<?xml version="1.0" encoding="UTF-8" standalone="no"?>
<!DOCTYPE svg PUBLIC "-//W3C//DTD SVG 1.1//EN"
 "http://www.w3.org/Graphics/SVG/1.1/DTD/svg11.dtd">
<!-- Generated by graphviz version 2.40.1 (20161225.0304)
 -->
<!-- Title: AccelerometerSensor.h Pages: 1 -->
<svg width="691pt" height="140pt"
 viewBox="0.00 0.00 690.50 140.00" xmlns="http://www.w3.org/2000/svg" xmlns:xlink="http://www.w3.org/1999/xlink">
<g id="graph0" class="graph" transform="scale(1 1) rotate(0) translate(4 136)">
<title>AccelerometerSensor.h</title>
<!-- Node55 -->
<g id="node1" class="node">
<title>Node55</title>
<polygon fill="#bfbfbf" stroke="#000000" points="255.5,-112.5 255.5,-131.5 384.5,-131.5 384.5,-112.5 255.5,-112.5"/>
<text text-anchor="middle" x="320" y="-119.5" font-family="FreeSans.ttf" font-size="10.00" fill="#000000">AccelerometerSensor.h</text>
</g>
<!-- Node56 -->
<g id="node2" class="node">
<title>Node56</title>
<g id="a_node2"><a xlink:href="SensorElement_8cpp.html" target="_top" xlink:title="SensorElement.cpp">
<polygon fill="none" stroke="#000000" points="0,-56.5 0,-75.5 110,-75.5 110,-56.5 0,-56.5"/>
<text text-anchor="middle" x="55" y="-63.5" font-family="FreeSans.ttf" font-size="10.00" fill="#000000">SensorElement.cpp</text>
</a>
</g>
</g>
<!-- Node55&#45;&gt;Node56 -->
<g id="edge1" class="edge">
<title>Node55&#45;&gt;Node56</title>
<path fill="none" stroke="#191970" d="M264.6684,-110.3073C215.8376,-99.9883 145.5429,-85.1336 100.0674,-75.5237"/>
<polygon fill="#191970" stroke="#191970" points="264.2384,-113.7936 274.746,-112.4369 265.6857,-106.9449 264.2384,-113.7936"/>
</g>
<!-- Node57 -->
<g id="node3" class="node">
<title>Node57</title>
<g id="a_node3"><a xlink:href="AllSensorsTypes_8h.html" target="_top" xlink:title="AllSensorsTypes.h">
<polygon fill="none" stroke="#000000" points="128,-56.5 128,-75.5 232,-75.5 232,-56.5 128,-56.5"/>
<text text-anchor="middle" x="180" y="-63.5" font-family="FreeSans.ttf" font-size="10.00" fill="#000000">AllSensorsTypes.h</text>
</a>
</g>
</g>
<!-- Node55&#45;&gt;Node57 -->
<g id="edge2" class="edge">
<title>Node55&#45;&gt;Node57</title>
<path fill="none" stroke="#191970" d="M286.6351,-108.6541C261.1048,-98.4419 226.5216,-84.6086 203.7528,-75.5011"/>
<polygon fill="#191970" stroke="#191970" points="285.3485,-111.909 295.9331,-112.3733 287.9483,-105.4096 285.3485,-111.909"/>
</g>
<!-- Node59 -->
<g id="node5" class="node">
<title>Node59</title>
<g id="a_node5"><a xlink:href="AccelerometerSensor_8cpp.html" target="_top" xlink:title="AccelerometerSensor.cpp">
<polygon fill="none" stroke="#000000" points="250,-56.5 250,-75.5 390,-75.5 390,-56.5 250,-56.5"/>
<text text-anchor="middle" x="320" y="-63.5" font-family="FreeSans.ttf" font-size="10.00" fill="#000000">AccelerometerSensor.cpp</text>
</a>
</g>
</g>
<!-- Node55&#45;&gt;Node59 -->
<g id="edge4" class="edge">
<title>Node55&#45;&gt;Node59</title>
<path fill="none" stroke="#191970" d="M320,-102.1575C320,-93.155 320,-82.9199 320,-75.6427"/>
<polygon fill="#191970" stroke="#191970" points="316.5001,-102.2455 320,-112.2455 323.5001,-102.2456 316.5001,-102.2455"/>
</g>
<!-- Node60 -->
<g id="node6" class="node">
<title>Node60</title>
<g id="a_node6"><a xlink:href="PredictSensorsMeasurements_8cpp.html" target="_top" xlink:title="PredictSensorsMeasurements.cpp">
<polygon fill="none" stroke="#000000" points="408.5,-56.5 408.5,-75.5 589.5,-75.5 589.5,-56.5 408.5,-56.5"/>
<text text-anchor="middle" x="499" y="-63.5" font-family="FreeSans.ttf" font-size="10.00" fill="#000000">PredictSensorsMeasurements.cpp</text>
</a>
</g>
</g>
<!-- Node55&#45;&gt;Node60 -->
<g id="edge5" class="edge">
<title>Node55&#45;&gt;Node60</title>
<path fill="none" stroke="#191970" d="M360.5195,-109.3235C393.3466,-99.0536 438.8776,-84.8093 468.6303,-75.5011"/>
<polygon fill="#191970" stroke="#191970" points="359.27,-106.0471 350.7712,-112.3733 361.3601,-112.7278 359.27,-106.0471"/>
</g>
<!-- Node61 -->
<g id="node7" class="node">
<title>Node61</title>
<g id="a_node7"><a xlink:href="Sensors_8cpp.html" target="_top" xlink:title="Sensors.cpp">
<polygon fill="none" stroke="#000000" points="607.5,-56.5 607.5,-75.5 682.5,-75.5 682.5,-56.5 607.5,-56.5"/>
<text text-anchor="middle" x="645" y="-63.5" font-family="FreeSans.ttf" font-size="10.00" fill="#000000">Sensors.cpp</text>
</a>
</g>
</g>
<!-- Node55&#45;&gt;Node61 -->
<g id="edge6" class="edge">
<title>Node55&#45;&gt;Node61</title>
<path fill="none" stroke="#191970" d="M393.2165,-110.9666C449.5965,-102.2194 529.4026,-89.2935 599,-76 601.7294,-75.4787 604.5451,-74.9194 607.3762,-74.3416"/>
<polygon fill="#191970" stroke="#191970" points="392.6697,-107.5094 383.3218,-112.4961 393.7391,-114.4273 392.6697,-107.5094"/>
</g>
<!-- Node58 -->
<g id="node4" class="node">
<title>Node58</title>
<g id="a_node4"><a xlink:href="BerdyHelper_8cpp.html" target="_top" xlink:title="BerdyHelper.cpp">
<polygon fill="none" stroke="#000000" points="131.5,-.5 131.5,-19.5 228.5,-19.5 228.5,-.5 131.5,-.5"/>
<text text-anchor="middle" x="180" y="-7.5" font-family="FreeSans.ttf" font-size="10.00" fill="#000000">BerdyHelper.cpp</text>
</a>
</g>
</g>
<!-- Node57&#45;&gt;Node58 -->
<g id="edge3" class="edge">
<title>Node57&#45;&gt;Node58</title>
<path fill="none" stroke="#191970" d="M180,-46.1575C180,-37.155 180,-26.9199 180,-19.6427"/>
<polygon fill="#191970" stroke="#191970" points="176.5001,-46.2455 180,-56.2455 183.5001,-46.2456 176.5001,-46.2455"/>
</g>
</g>
</svg>
