<?xml version="1.0" encoding="UTF-8" standalone="no"?>
<!DOCTYPE svg PUBLIC "-//W3C//DTD SVG 1.1//EN"
 "http://www.w3.org/Graphics/SVG/1.1/DTD/svg11.dtd">
<!-- Generated by graphviz version 2.40.1 (20161225.0304)
 -->
<!-- Title: AngularForceVector3.h Pages: 1 -->
<svg width="4989pt" height="263pt"
 viewBox="0.00 0.00 4988.90 263.00" xmlns="http://www.w3.org/2000/svg" xmlns:xlink="http://www.w3.org/1999/xlink">
<g id="graph0" class="graph" transform="scale(1 1) rotate(0) translate(4 259)">
<title>AngularForceVector3.h</title>
<!-- Node24 -->
<g id="node1" class="node">
<title>Node24</title>
<polygon fill="#bfbfbf" stroke="#000000" points="2664.8984,-235.5 2664.8984,-254.5 2790.8984,-254.5 2790.8984,-235.5 2664.8984,-235.5"/>
<text text-anchor="middle" x="2727.8984" y="-242.5" font-family="FreeSans.ttf" font-size="10.00" fill="#000000">AngularForceVector3.h</text>
</g>
<!-- Node25 -->
<g id="node2" class="node">
<title>Node25</title>
<g id="a_node2"><a xlink:href="SpatialForceVector_8h.html" target="_top" xlink:title="SpatialForceVector.h">
<polygon fill="none" stroke="#000000" points="2387.8984,-179.5 2387.8984,-198.5 2503.8984,-198.5 2503.8984,-179.5 2387.8984,-179.5"/>
<text text-anchor="middle" x="2445.8984" y="-186.5" font-family="FreeSans.ttf" font-size="10.00" fill="#000000">SpatialForceVector.h</text>
</a>
</g>
</g>
<!-- Node24&#45;&gt;Node25 -->
<g id="edge1" class="edge">
<title>Node24&#45;&gt;Node25</title>
<path fill="none" stroke="#191970" d="M2669.6684,-233.4366C2617.6803,-223.1127 2542.4522,-208.1738 2493.8569,-198.5237"/>
<polygon fill="#191970" stroke="#191970" points="2669.2511,-236.922 2679.7413,-235.4369 2670.6146,-230.0561 2669.2511,-236.922"/>
</g>
<!-- Node201 -->
<g id="node47" class="node">
<title>Node201</title>
<g id="a_node47"><a xlink:href="AngularForceVector3_8cpp.html" target="_top" xlink:title="AngularForceVector3.cpp">
<polygon fill="none" stroke="#000000" points="2522.3984,-179.5 2522.3984,-198.5 2659.3984,-198.5 2659.3984,-179.5 2522.3984,-179.5"/>
<text text-anchor="middle" x="2590.8984" y="-186.5" font-family="FreeSans.ttf" font-size="10.00" fill="#000000">AngularForceVector3.cpp</text>
</a>
</g>
</g>
<!-- Node24&#45;&gt;Node201 -->
<g id="edge62" class="edge">
<title>Node24&#45;&gt;Node201</title>
<path fill="none" stroke="#191970" d="M2694.9178,-231.5189C2669.9673,-221.3201 2636.325,-207.5685 2614.1423,-198.5011"/>
<polygon fill="#191970" stroke="#191970" points="2693.7664,-234.8293 2704.3473,-235.3733 2696.4151,-228.3497 2693.7664,-234.8293"/>
</g>
<!-- Node202 -->
<g id="node48" class="node">
<title>Node202</title>
<g id="a_node48"><a xlink:href="ForceVector3_8cpp.html" target="_top" xlink:title="ForceVector3.cpp">
<polygon fill="none" stroke="#000000" points="2677.8984,-179.5 2677.8984,-198.5 2777.8984,-198.5 2777.8984,-179.5 2677.8984,-179.5"/>
<text text-anchor="middle" x="2727.8984" y="-186.5" font-family="FreeSans.ttf" font-size="10.00" fill="#000000">ForceVector3.cpp</text>
</a>
</g>
</g>
<!-- Node24&#45;&gt;Node202 -->
<g id="edge63" class="edge">
<title>Node24&#45;&gt;Node202</title>
<path fill="none" stroke="#191970" d="M2727.8984,-225.1575C2727.8984,-216.155 2727.8984,-205.9199 2727.8984,-198.6427"/>
<polygon fill="#191970" stroke="#191970" points="2724.3985,-225.2455 2727.8984,-235.2455 2731.3985,-225.2456 2724.3985,-225.2455"/>
</g>
<!-- Node203 -->
<g id="node49" class="node">
<title>Node203</title>
<g id="a_node49"><a xlink:href="GeomVector3_8cpp.html" target="_top" xlink:title="GeomVector3.cpp">
<polygon fill="none" stroke="#000000" points="2796.3984,-179.5 2796.3984,-198.5 2899.3984,-198.5 2899.3984,-179.5 2796.3984,-179.5"/>
<text text-anchor="middle" x="2847.8984" y="-186.5" font-family="FreeSans.ttf" font-size="10.00" fill="#000000">GeomVector3.cpp</text>
</a>
</g>
</g>
<!-- Node24&#45;&gt;Node203 -->
<g id="edge64" class="edge">
<title>Node24&#45;&gt;Node203</title>
<path fill="none" stroke="#191970" d="M2757.6609,-231.1109C2779.4216,-220.9559 2808.3667,-207.4482 2827.5389,-198.5011"/>
<polygon fill="#191970" stroke="#191970" points="2756.1089,-227.9727 2748.5272,-235.3733 2759.0691,-234.316 2756.1089,-227.9727"/>
</g>
<!-- Node204 -->
<g id="node50" class="node">
<title>Node204</title>
<g id="a_node50"><a xlink:href="MotionVector3_8cpp.html" target="_top" xlink:title="MotionVector3.cpp">
<polygon fill="none" stroke="#000000" points="2917.3984,-179.5 2917.3984,-198.5 3024.3984,-198.5 3024.3984,-179.5 2917.3984,-179.5"/>
<text text-anchor="middle" x="2970.8984" y="-186.5" font-family="FreeSans.ttf" font-size="10.00" fill="#000000">MotionVector3.cpp</text>
</a>
</g>
</g>
<!-- Node24&#45;&gt;Node204 -->
<g id="edge65" class="edge">
<title>Node24&#45;&gt;Node204</title>
<path fill="none" stroke="#191970" d="M2779.1995,-233.1775C2823.9524,-222.8641 2888.0468,-208.0934 2929.5725,-198.5237"/>
<polygon fill="#191970" stroke="#191970" points="2778.3541,-229.7805 2769.3955,-235.4369 2779.9261,-236.6017 2778.3541,-229.7805"/>
</g>
<!-- Node26 -->
<g id="node3" class="node">
<title>Node26</title>
<g id="a_node3"><a xlink:href="EigenHelpers_8h.html" target="_top" xlink:title="EigenHelpers.h">
<polygon fill="none" stroke="#ff0000" points="2400.8984,-123.5 2400.8984,-142.5 2490.8984,-142.5 2490.8984,-123.5 2400.8984,-123.5"/>
<text text-anchor="middle" x="2445.8984" y="-130.5" font-family="FreeSans.ttf" font-size="10.00" fill="#000000">EigenHelpers.h</text>
</a>
</g>
</g>
<!-- Node25&#45;&gt;Node26 -->
<g id="edge2" class="edge">
<title>Node25&#45;&gt;Node26</title>
<path fill="none" stroke="#191970" d="M2445.8984,-169.1575C2445.8984,-160.155 2445.8984,-149.9199 2445.8984,-142.6427"/>
<polygon fill="#191970" stroke="#191970" points="2442.3985,-169.2455 2445.8984,-179.2455 2449.3985,-169.2456 2442.3985,-169.2455"/>
</g>
<!-- Node29 -->
<g id="node5" class="node">
<title>Node29</title>
<g id="a_node5"><a xlink:href="SpatialInertiaRaw_8cpp.html" target="_top" xlink:title="SpatialInertiaRaw.cpp">
<polygon fill="none" stroke="#000000" points="1017.8984,-.5 1017.8984,-19.5 1139.8984,-19.5 1139.8984,-.5 1017.8984,-.5"/>
<text text-anchor="middle" x="1078.8984" y="-7.5" font-family="FreeSans.ttf" font-size="10.00" fill="#000000">SpatialInertiaRaw.cpp</text>
</a>
</g>
</g>
<!-- Node25&#45;&gt;Node29 -->
<g id="edge54" class="edge">
<title>Node25&#45;&gt;Node29</title>
<path fill="none" stroke="#191970" d="M2377.8093,-188.267C2034.0839,-184.4702 497.6113,-166.3161 285.8984,-143 160.1854,-129.1551 87.0473,-184.8346 6.8984,-87 -1.8328,-76.3421 -2.6328,-65.949 6.8984,-56 42.0349,-19.3235 795.5571,-11.7519 1017.7541,-10.3143"/>
<polygon fill="#191970" stroke="#191970" points="2377.8291,-191.7673 2387.8671,-188.3777 2377.9063,-184.7677 2377.8291,-191.7673"/>
</g>
<!-- Node31 -->
<g id="node6" class="node">
<title>Node31</title>
<g id="a_node6"><a xlink:href="SpatialMotionVector_8cpp.html" target="_top" xlink:title="SpatialMotionVector.cpp">
<polygon fill="none" stroke="#000000" points="4846.8984,-.5 4846.8984,-19.5 4980.8984,-19.5 4980.8984,-.5 4846.8984,-.5"/>
<text text-anchor="middle" x="4913.8984" y="-7.5" font-family="FreeSans.ttf" font-size="10.00" fill="#000000">SpatialMotionVector.cpp</text>
</a>
</g>
</g>
<!-- Node25&#45;&gt;Node31 -->
<g id="edge55" class="edge">
<title>Node25&#45;&gt;Node31</title>
<path fill="none" stroke="#191970" d="M2465.5838,-172.7148C2487.6068,-154.8963 2522.2428,-128.1658 2537.8984,-123 2600.6609,-102.2905 4870.52,-134.0855 4916.8984,-87 4934.5478,-69.0815 4924.6568,-35.9542 4918.1569,-19.6196"/>
<polygon fill="#191970" stroke="#191970" points="2463.0884,-170.2337 2457.5542,-179.2683 2467.5145,-175.6567 2463.0884,-170.2337"/>
</g>
<!-- Node40 -->
<g id="node12" class="node">
<title>Node40</title>
<g id="a_node12"><a xlink:href="SpatialForceVector_8cpp.html" target="_top" xlink:title="SpatialForceVector.cpp">
<polygon fill="none" stroke="#000000" points="1029.3984,-62 1029.3984,-81 1156.3984,-81 1156.3984,-62 1029.3984,-62"/>
<text text-anchor="middle" x="1092.8984" y="-69" font-family="FreeSans.ttf" font-size="10.00" fill="#000000">SpatialForceVector.cpp</text>
</a>
</g>
</g>
<!-- Node25&#45;&gt;Node40 -->
<g id="edge53" class="edge">
<title>Node25&#45;&gt;Node40</title>
<path fill="none" stroke="#191970" d="M2377.6614,-186.6788C2185.8614,-179.4848 1625.9492,-153.8831 1165.8984,-87 1155.2567,-85.4529 1143.8419,-83.2797 1133.2739,-81.0489"/>
<polygon fill="#191970" stroke="#191970" points="2377.7485,-190.1844 2387.8713,-187.0574 2378.0079,-183.1892 2377.7485,-190.1844"/>
</g>
<!-- Node85 -->
<g id="node40" class="node">
<title>Node85</title>
<g id="a_node40"><a xlink:href="SpatialMomentum_8h.html" target="_top" xlink:title="SpatialMomentum.h">
<polygon fill="none" stroke="#ff0000" points="398.3984,-123.5 398.3984,-142.5 513.3984,-142.5 513.3984,-123.5 398.3984,-123.5"/>
<text text-anchor="middle" x="455.8984" y="-130.5" font-family="FreeSans.ttf" font-size="10.00" fill="#000000">SpatialMomentum.h</text>
</a>
</g>
</g>
<!-- Node25&#45;&gt;Node85 -->
<g id="edge40" class="edge">
<title>Node25&#45;&gt;Node85</title>
<path fill="none" stroke="#191970" d="M2377.3401,-187.3679C2146.2397,-181.8208 1374.5671,-162.9279 736.8984,-143 659.5635,-140.5832 570.2738,-137.3257 513.4779,-135.195"/>
<polygon fill="#191970" stroke="#191970" points="2377.5291,-190.8734 2387.6102,-187.6142 2377.697,-183.8754 2377.5291,-190.8734"/>
</g>
<!-- Node169 -->
<g id="node41" class="node">
<title>Node169</title>
<g id="a_node41"><a xlink:href="Wrench_8h.html" target="_top" xlink:title="Wrench.h">
<polygon fill="none" stroke="#ff0000" points="745.8984,-123.5 745.8984,-142.5 807.8984,-142.5 807.8984,-123.5 745.8984,-123.5"/>
<text text-anchor="middle" x="776.8984" y="-130.5" font-family="FreeSans.ttf" font-size="10.00" fill="#000000">Wrench.h</text>
</a>
</g>
</g>
<!-- Node25&#45;&gt;Node169 -->
<g id="edge46" class="edge">
<title>Node25&#45;&gt;Node169</title>
<path fill="none" stroke="#191970" d="M2377.2731,-186.6974C2092.0724,-177.1281 1006.1221,-140.6911 808.0158,-134.0441"/>
<polygon fill="#191970" stroke="#191970" points="2377.3647,-190.2024 2387.4765,-187.0398 2377.5995,-183.2063 2377.3647,-190.2024"/>
</g>
<!-- Node198 -->
<g id="node42" class="node">
<title>Node198</title>
<g id="a_node42"><a xlink:href="PositionRaw_8cpp.html" target="_top" xlink:title="PositionRaw.cpp">
<polygon fill="none" stroke="#000000" points="2546.8984,-123.5 2546.8984,-142.5 2642.8984,-142.5 2642.8984,-123.5 2546.8984,-123.5"/>
<text text-anchor="middle" x="2594.8984" y="-130.5" font-family="FreeSans.ttf" font-size="10.00" fill="#000000">PositionRaw.cpp</text>
</a>
</g>
</g>
<!-- Node25&#45;&gt;Node198 -->
<g id="edge51" class="edge">
<title>Node25&#45;&gt;Node198</title>
<path fill="none" stroke="#191970" d="M2481.0497,-175.7888C2508.2553,-165.5639 2545.2794,-151.6488 2569.6187,-142.5011"/>
<polygon fill="#191970" stroke="#191970" points="2479.6418,-172.5788 2471.5125,-179.3733 2482.1045,-179.1313 2479.6418,-172.5788"/>
</g>
<!-- Node199 -->
<g id="node43" class="node">
<title>Node199</title>
<g id="a_node43"><a xlink:href="RotationRaw_8cpp.html" target="_top" xlink:title="RotationRaw.cpp">
<polygon fill="none" stroke="#000000" points="2660.8984,-123.5 2660.8984,-142.5 2758.8984,-142.5 2758.8984,-123.5 2660.8984,-123.5"/>
<text text-anchor="middle" x="2709.8984" y="-130.5" font-family="FreeSans.ttf" font-size="10.00" fill="#000000">RotationRaw.cpp</text>
</a>
</g>
</g>
<!-- Node25&#45;&gt;Node199 -->
<g id="edge52" class="edge">
<title>Node25&#45;&gt;Node199</title>
<path fill="none" stroke="#191970" d="M2501.0212,-177.3073C2549.6678,-166.9883 2619.6973,-152.1336 2665.0011,-142.5237"/>
<polygon fill="#191970" stroke="#191970" points="2500.0377,-173.9379 2490.9817,-179.4369 2501.4903,-180.7856 2500.0377,-173.9379"/>
</g>
<!-- Node87 -->
<g id="node44" class="node">
<title>Node87</title>
<g id="a_node44"><a xlink:href="TestUtils_8cpp.html" target="_top" xlink:title="TestUtils.cpp">
<polygon fill="none" stroke="#000000" points="2777.3984,-123.5 2777.3984,-142.5 2856.3984,-142.5 2856.3984,-123.5 2777.3984,-123.5"/>
<text text-anchor="middle" x="2816.8984" y="-130.5" font-family="FreeSans.ttf" font-size="10.00" fill="#000000">TestUtils.cpp</text>
</a>
</g>
</g>
<!-- Node25&#45;&gt;Node87 -->
<g id="edge56" class="edge">
<title>Node25&#45;&gt;Node87</title>
<path fill="none" stroke="#191970" d="M2514.3295,-178.952C2628.4435,-162.6734 2658.7272,-161.8587 2767.8984,-143 2770.9785,-142.4679 2774.1612,-141.8878 2777.3569,-141.2836"/>
<polygon fill="#191970" stroke="#191970" points="2513.5352,-175.53 2504.1341,-180.4155 2514.53,-182.459 2513.5352,-175.53"/>
</g>
<!-- Node88 -->
<g id="node45" class="node">
<title>Node88</title>
<g id="a_node45"><a xlink:href="DynamicsUtils_8h.html" target="_top" xlink:title="DynamicsUtils.h">
<polygon fill="none" stroke="#000000" points="2874.3984,-123.5 2874.3984,-142.5 2971.3984,-142.5 2971.3984,-123.5 2874.3984,-123.5"/>
<text text-anchor="middle" x="2922.8984" y="-130.5" font-family="FreeSans.ttf" font-size="10.00" fill="#000000">DynamicsUtils.h</text>
</a>
</g>
</g>
<!-- Node25&#45;&gt;Node88 -->
<g id="edge57" class="edge">
<title>Node25&#45;&gt;Node88</title>
<path fill="none" stroke="#191970" d="M2514.1605,-179.0244C2671.6486,-159.7508 2713.3231,-164.1582 2865.8984,-143 2868.5854,-142.6274 2871.3396,-142.2221 2874.1171,-141.7953"/>
<polygon fill="#191970" stroke="#191970" points="2513.609,-175.5658 2504.114,-180.2665 2514.468,-182.5129 2513.609,-175.5658"/>
</g>
<!-- Node200 -->
<g id="node46" class="node">
<title>Node200</title>
<g id="a_node46"><a xlink:href="JointState_8h.html" target="_top" xlink:title="JointState.h">
<polygon fill="none" stroke="#ff0000" points="295.3984,-123.5 295.3984,-142.5 368.3984,-142.5 368.3984,-123.5 295.3984,-123.5"/>
<text text-anchor="middle" x="331.8984" y="-130.5" font-family="FreeSans.ttf" font-size="10.00" fill="#000000">JointState.h</text>
</a>
</g>
</g>
<!-- Node25&#45;&gt;Node200 -->
<g id="edge58" class="edge">
<title>Node25&#45;&gt;Node200</title>
<path fill="none" stroke="#191970" d="M2377.5394,-188.8623C2067.0562,-188.0234 787.6319,-182.2075 388.8984,-143 382.2993,-142.3511 375.3142,-141.3721 368.5807,-140.2764"/>
<polygon fill="#191970" stroke="#191970" points="2377.732,-192.3627 2387.7411,-188.889 2377.7504,-185.3628 2377.732,-192.3627"/>
</g>
<!-- Node27 -->
<g id="node4" class="node">
<title>Node27</title>
<g id="a_node4"><a xlink:href="PrivateUtils_8h.html" target="_top" xlink:title="PrivateUtils.h">
<polygon fill="none" stroke="#ff0000" points="2127.3984,-62 2127.3984,-81 2210.3984,-81 2210.3984,-62 2127.3984,-62"/>
<text text-anchor="middle" x="2168.8984" y="-69" font-family="FreeSans.ttf" font-size="10.00" fill="#000000">PrivateUtils.h</text>
</a>
</g>
</g>
<!-- Node26&#45;&gt;Node27 -->
<g id="edge3" class="edge">
<title>Node26&#45;&gt;Node27</title>
<path fill="none" stroke="#191970" d="M2390.5376,-123.2396C2344.5808,-114.777 2277.6377,-101.6156 2219.8984,-87 2212.9907,-85.2514 2205.6244,-83.1525 2198.7005,-81.0721"/>
<polygon fill="#191970" stroke="#191970" points="2390.1252,-126.7221 2400.5917,-125.0776 2391.3841,-119.8362 2390.1252,-126.7221"/>
</g>
<!-- Node26&#45;&gt;Node31 -->
<g id="edge13" class="edge">
<title>Node26&#45;&gt;Node31</title>
<path fill="none" stroke="#191970" d="M2501.0197,-123.3869C2502.3238,-123.2469 2503.6182,-123.1174 2504.8984,-123 2571.0172,-116.9346 4842.9368,-128.3336 4894.8984,-87 4915.2643,-70.7997 4915.9148,-36.5506 4914.8603,-19.733"/>
<polygon fill="#191970" stroke="#191970" points="2500.3956,-119.9375 2490.9034,-124.6438 2501.2587,-126.8841 2500.3956,-119.9375"/>
</g>
<!-- Node35 -->
<g id="node7" class="node">
<title>Node35</title>
<g id="a_node7"><a xlink:href="ArticulatedBodyInertia_8cpp.html" target="_top" xlink:title="ArticulatedBodyInertia.cpp">
<polygon fill="none" stroke="#000000" points="864.8984,-62 864.8984,-81 1010.8984,-81 1010.8984,-62 864.8984,-62"/>
<text text-anchor="middle" x="937.8984" y="-69" font-family="FreeSans.ttf" font-size="10.00" fill="#000000">ArticulatedBodyInertia.cpp</text>
</a>
</g>
</g>
<!-- Node26&#45;&gt;Node35 -->
<g id="edge6" class="edge">
<title>Node26&#45;&gt;Node35</title>
<path fill="none" stroke="#191970" d="M2390.7531,-132.344C2162.854,-129.4591 1293.6891,-116.6993 1020.8984,-87 1008.2202,-85.6197 994.5732,-83.3874 982.0802,-81.0416"/>
<polygon fill="#191970" stroke="#191970" points="2390.759,-135.8442 2400.8021,-132.47 2390.8468,-128.8448 2390.759,-135.8442"/>
</g>
<!-- Node36 -->
<g id="node8" class="node">
<title>Node36</title>
<g id="a_node8"><a xlink:href="CubicSpline_8cpp.html" target="_top" xlink:title="CubicSpline.cpp">
<polygon fill="none" stroke="#000000" points="3229.8984,-62 3229.8984,-81 3323.8984,-81 3323.8984,-62 3229.8984,-62"/>
<text text-anchor="middle" x="3276.8984" y="-69" font-family="FreeSans.ttf" font-size="10.00" fill="#000000">CubicSpline.cpp</text>
</a>
</g>
</g>
<!-- Node26&#45;&gt;Node36 -->
<g id="edge7" class="edge">
<title>Node26&#45;&gt;Node36</title>
<path fill="none" stroke="#191970" d="M2501.0258,-123.4481C2502.3281,-123.2897 2503.6204,-123.1399 2504.8984,-123 2821.6294,-88.3176 2906.3506,-137.8039 3220.8984,-87 3229.5625,-85.6006 3238.8054,-83.3622 3247.233,-81.0167"/>
<polygon fill="#191970" stroke="#191970" points="2500.3637,-120.0055 2490.92,-124.8084 2501.2975,-126.943 2500.3637,-120.0055"/>
</g>
<!-- Node37 -->
<g id="node9" class="node">
<title>Node37</title>
<g id="a_node9"><a xlink:href="Direction_8cpp.html" target="_top" xlink:title="Direction.cpp">
<polygon fill="none" stroke="#000000" points="3342.3984,-62 3342.3984,-81 3423.3984,-81 3423.3984,-62 3342.3984,-62"/>
<text text-anchor="middle" x="3382.8984" y="-69" font-family="FreeSans.ttf" font-size="10.00" fill="#000000">Direction.cpp</text>
</a>
</g>
</g>
<!-- Node26&#45;&gt;Node37 -->
<g id="edge8" class="edge">
<title>Node26&#45;&gt;Node37</title>
<path fill="none" stroke="#191970" d="M2501.0246,-123.4363C2502.3272,-123.2815 2503.62,-123.1356 2504.8984,-123 2871.1914,-84.1479 2969.9877,-150.0541 3332.8984,-87 3340.6884,-85.6465 3348.9583,-83.4228 3356.4822,-81.0767"/>
<polygon fill="#191970" stroke="#191970" points="2500.3697,-119.9924 2490.9166,-124.7767 2501.2899,-126.9317 2500.3697,-119.9924"/>
</g>
<!-- Node38 -->
<g id="node10" class="node">
<title>Node38</title>
<g id="a_node10"><a xlink:href="InertiaNonLinearParametrization_8cpp.html" target="_top" xlink:title="InertiaNonLinearParametrization.cpp">
<polygon fill="none" stroke="#000000" points="3441.3984,-62 3441.3984,-81 3636.3984,-81 3636.3984,-62 3441.3984,-62"/>
<text text-anchor="middle" x="3538.8984" y="-69" font-family="FreeSans.ttf" font-size="10.00" fill="#000000">InertiaNonLinearParametrization.cpp</text>
</a>
</g>
</g>
<!-- Node26&#45;&gt;Node38 -->
<g id="edge9" class="edge">
<title>Node26&#45;&gt;Node38</title>
<path fill="none" stroke="#191970" d="M2501.0237,-123.4282C2502.3266,-123.2758 2503.6196,-123.1326 2504.8984,-123 2915.4514,-80.4239 3021.8888,-124.9139 3432.8984,-87 3448.7329,-85.5393 3465.8143,-83.3254 3481.5434,-81.0243"/>
<polygon fill="#191970" stroke="#191970" points="2500.3738,-119.9833 2490.9143,-124.7548 2501.2847,-126.9238 2500.3738,-119.9833"/>
</g>
<!-- Node39 -->
<g id="node11" class="node">
<title>Node39</title>
<g id="a_node11"><a xlink:href="Rotation_8cpp.html" target="_top" xlink:title="Rotation.cpp">
<polygon fill="none" stroke="#000000" points="491.3984,-62 491.3984,-81 568.3984,-81 568.3984,-62 491.3984,-62"/>
<text text-anchor="middle" x="529.8984" y="-69" font-family="FreeSans.ttf" font-size="10.00" fill="#000000">Rotation.cpp</text>
</a>
</g>
</g>
<!-- Node26&#45;&gt;Node39 -->
<g id="edge10" class="edge">
<title>Node26&#45;&gt;Node39</title>
<path fill="none" stroke="#191970" d="M2390.5057,-132.584C2100.1627,-130.2767 760.2357,-118.0148 577.8984,-87 570.3014,-85.7078 562.2554,-83.4724 554.9669,-81.095"/>
<polygon fill="#191970" stroke="#191970" points="2390.7575,-136.086 2400.7848,-132.665 2390.8127,-129.0862 2390.7575,-136.086"/>
</g>
<!-- Node26&#45;&gt;Node40 -->
<g id="edge11" class="edge">
<title>Node26&#45;&gt;Node40</title>
<path fill="none" stroke="#191970" d="M2390.8324,-132.2921C2177.9179,-129.3579 1408.418,-116.8758 1165.8984,-87 1154.7112,-85.6218 1142.6967,-83.3903 1131.7093,-81.0445"/>
<polygon fill="#191970" stroke="#191970" points="2390.7937,-135.7918 2400.8406,-132.4286 2390.8893,-128.7925 2390.7937,-135.7918"/>
</g>
<!-- Node41 -->
<g id="node13" class="node">
<title>Node41</title>
<g id="a_node13"><a xlink:href="SpatialInertia_8cpp.html" target="_top" xlink:title="SpatialInertia.cpp">
<polygon fill="none" stroke="#000000" points="586.8984,-62 586.8984,-81 688.8984,-81 688.8984,-62 586.8984,-62"/>
<text text-anchor="middle" x="637.8984" y="-69" font-family="FreeSans.ttf" font-size="10.00" fill="#000000">SpatialInertia.cpp</text>
</a>
</g>
</g>
<!-- Node26&#45;&gt;Node41 -->
<g id="edge12" class="edge">
<title>Node26&#45;&gt;Node41</title>
<path fill="none" stroke="#191970" d="M2390.5494,-132.2893C2111.8281,-128.6105 868.5638,-110.9736 697.8984,-87 688.5229,-85.683 678.5032,-83.4399 669.39,-81.063"/>
<polygon fill="#191970" stroke="#191970" points="2390.7733,-135.7925 2400.8185,-132.4243 2390.8654,-128.7931 2390.7733,-135.7925"/>
</g>
<!-- Node42 -->
<g id="node14" class="node">
<title>Node42</title>
<g id="a_node14"><a xlink:href="TransformDerivative_8cpp.html" target="_top" xlink:title="TransformDerivative.cpp">
<polygon fill="none" stroke="#000000" points="3654.3984,-62 3654.3984,-81 3791.3984,-81 3791.3984,-62 3654.3984,-62"/>
<text text-anchor="middle" x="3722.8984" y="-69" font-family="FreeSans.ttf" font-size="10.00" fill="#000000">TransformDerivative.cpp</text>
</a>
</g>
</g>
<!-- Node26&#45;&gt;Node42 -->
<g id="edge14" class="edge">
<title>Node26&#45;&gt;Node42</title>
<path fill="none" stroke="#191970" d="M2501.0224,-123.4156C2502.3257,-123.267 2503.6192,-123.128 2504.8984,-123 3009.7414,-72.4904 3141.8916,-145.2648 3645.8984,-87 3657.6835,-85.6376 3670.3514,-83.4111 3681.941,-81.0651"/>
<polygon fill="#191970" stroke="#191970" points="2500.3804,-119.9693 2490.9108,-124.721 2501.2767,-126.9117 2500.3804,-119.9693"/>
</g>
<!-- Node43 -->
<g id="node15" class="node">
<title>Node43</title>
<g id="a_node15"><a xlink:href="GravityCompensationHelpers_8h.html" target="_top" xlink:title="GravityCompensationHelpers.h">
<polygon fill="none" stroke="#ff0000" points="3809.8984,-62 3809.8984,-81 3979.8984,-81 3979.8984,-62 3809.8984,-62"/>
<text text-anchor="middle" x="3894.8984" y="-69" font-family="FreeSans.ttf" font-size="10.00" fill="#000000">GravityCompensationHelpers.h</text>
</a>
</g>
</g>
<!-- Node26&#45;&gt;Node43 -->
<g id="edge15" class="edge">
<title>Node26&#45;&gt;Node43</title>
<path fill="none" stroke="#191970" d="M2501.0218,-123.409C2502.3253,-123.2624 2503.6189,-123.1256 2504.8984,-123 3078.3652,-66.7162 3227.3072,-142.0012 3800.8984,-87 3815.2224,-85.6265 3830.6669,-83.3964 3844.8161,-81.0505"/>
<polygon fill="#191970" stroke="#191970" points="2500.3838,-119.9621 2490.9091,-124.7033 2501.2725,-126.9054 2500.3838,-119.9621"/>
</g>
<!-- Node45 -->
<g id="node16" class="node">
<title>Node45</title>
<g id="a_node16"><a xlink:href="BerdyHelper_8cpp.html" target="_top" xlink:title="BerdyHelper.cpp">
<polygon fill="none" stroke="#000000" points="3998.3984,-62 3998.3984,-81 4095.3984,-81 4095.3984,-62 3998.3984,-62"/>
<text text-anchor="middle" x="4046.8984" y="-69" font-family="FreeSans.ttf" font-size="10.00" fill="#000000">BerdyHelper.cpp</text>
</a>
</g>
</g>
<!-- Node26&#45;&gt;Node45 -->
<g id="edge16" class="edge">
<title>Node26&#45;&gt;Node45</title>
<path fill="none" stroke="#191970" d="M2501.0212,-123.4029C2502.3248,-123.2581 2503.6187,-123.1233 2504.8984,-123 2833.252,-91.356 3662.3765,-133.9124 3988.8984,-87 3997.9773,-85.6956 4007.668,-83.4565 4016.477,-81.0793"/>
<polygon fill="#191970" stroke="#191970" points="2500.387,-119.9552 2490.9075,-124.6869 2501.2687,-126.8995 2500.387,-119.9552"/>
</g>
<!-- Node46 -->
<g id="node17" class="node">
<title>Node46</title>
<g id="a_node17"><a xlink:href="BerdySparseMAPSolver_8cpp.html" target="_top" xlink:title="BerdySparseMAPSolver.cpp">
<polygon fill="none" stroke="#000000" points="4113.3984,-62 4113.3984,-81 4262.3984,-81 4262.3984,-62 4113.3984,-62"/>
<text text-anchor="middle" x="4187.8984" y="-69" font-family="FreeSans.ttf" font-size="10.00" fill="#000000">BerdySparseMAPSolver.cpp</text>
</a>
</g>
</g>
<!-- Node26&#45;&gt;Node46 -->
<g id="edge17" class="edge">
<title>Node26&#45;&gt;Node46</title>
<path fill="none" stroke="#191970" d="M2501.0209,-123.3999C2502.3246,-123.256 2503.6186,-123.1222 2504.8984,-123 3212.969,-55.3901 3397.418,-160.5285 4104.8984,-87 4117.7291,-85.6665 4131.5463,-83.4182 4144.1557,-81.0417"/>
<polygon fill="#191970" stroke="#191970" points="2500.3887,-119.9519 2490.9067,-124.6786 2501.2668,-126.8966 2500.3887,-119.9519"/>
</g>
<!-- Node47 -->
<g id="node18" class="node">
<title>Node47</title>
<g id="a_node18"><a xlink:href="ExternalWrenchesEstimation_8cpp.html" target="_top" xlink:title="ExternalWrenchesEstimation.cpp">
<polygon fill="none" stroke="#000000" points="120.3984,-62 120.3984,-81 297.3984,-81 297.3984,-62 120.3984,-62"/>
<text text-anchor="middle" x="208.8984" y="-69" font-family="FreeSans.ttf" font-size="10.00" fill="#000000">ExternalWrenchesEstimation.cpp</text>
</a>
</g>
</g>
<!-- Node26&#45;&gt;Node47 -->
<g id="edge18" class="edge">
<title>Node26&#45;&gt;Node47</title>
<path fill="none" stroke="#191970" d="M2390.5346,-132.838C2097.8328,-131.8251 728.1578,-125.0948 305.8984,-87 290.9517,-85.6516 274.8189,-83.3986 260.0817,-81.0224"/>
<polygon fill="#191970" stroke="#191970" points="2390.877,-136.3391 2400.8888,-132.873 2390.9008,-129.3391 2390.877,-136.3391"/>
</g>
<!-- Node48 -->
<g id="node19" class="node">
<title>Node48</title>
<g id="a_node19"><a xlink:href="ExtWrenchesAndJointTorquesEstimator_8cpp.html" target="_top" xlink:title="ExtWrenchesAndJointTorques\lEstimator.cpp">
<polygon fill="none" stroke="#000000" points="314.8984,-56.5 314.8984,-86.5 472.8984,-86.5 472.8984,-56.5 314.8984,-56.5"/>
<text text-anchor="start" x="322.8984" y="-74.5" font-family="FreeSans.ttf" font-size="10.00" fill="#000000">ExtWrenchesAndJointTorques</text>
<text text-anchor="middle" x="393.8984" y="-63.5" font-family="FreeSans.ttf" font-size="10.00" fill="#000000">Estimator.cpp</text>
</a>
</g>
</g>
<!-- Node26&#45;&gt;Node48 -->
<g id="edge19" class="edge">
<title>Node26&#45;&gt;Node48</title>
<path fill="none" stroke="#191970" d="M2390.2158,-132.8318C2111.5786,-131.817 866.8341,-125.188 481.8984,-87 478.9654,-86.709 475.983,-86.3759 472.9746,-86.0084"/>
<polygon fill="#191970" stroke="#191970" points="2390.469,-136.3327 2400.4814,-132.8683 2390.4939,-129.3327 2390.469,-136.3327"/>
</g>
<!-- Node49 -->
<g id="node20" class="node">
<title>Node49</title>
<g id="a_node20"><a xlink:href="SimpleLeggedOdometry_8cpp.html" target="_top" xlink:title="SimpleLeggedOdometry.cpp">
<polygon fill="none" stroke="#000000" points="4280.3984,-62 4280.3984,-81 4433.3984,-81 4433.3984,-62 4280.3984,-62"/>
<text text-anchor="middle" x="4356.8984" y="-69" font-family="FreeSans.ttf" font-size="10.00" fill="#000000">SimpleLeggedOdometry.cpp</text>
</a>
</g>
</g>
<!-- Node26&#45;&gt;Node49 -->
<g id="edge20" class="edge">
<title>Node26&#45;&gt;Node49</title>
<path fill="none" stroke="#191970" d="M2501.0205,-123.3962C2502.3244,-123.2534 2503.6185,-123.1208 2504.8984,-123 3286.9171,-49.1678 3490.3555,-165.7087 4271.8984,-87 4285.0323,-85.6773 4299.1805,-83.4324 4312.0939,-81.0556"/>
<polygon fill="#191970" stroke="#191970" points="2500.3906,-119.9477 2490.9057,-124.6687 2501.2644,-126.893 2500.3906,-119.9477"/>
</g>
<!-- Node50 -->
<g id="node21" class="node">
<title>Node50</title>
<g id="a_node21"><a xlink:href="KinDynComputations_8cpp.html" target="_top" xlink:title="KinDynComputations.cpp">
<polygon fill="none" stroke="#000000" points="706.8984,-62 706.8984,-81 846.8984,-81 846.8984,-62 706.8984,-62"/>
<text text-anchor="middle" x="776.8984" y="-69" font-family="FreeSans.ttf" font-size="10.00" fill="#000000">KinDynComputations.cpp</text>
</a>
</g>
</g>
<!-- Node26&#45;&gt;Node50 -->
<g id="edge21" class="edge">
<title>Node26&#45;&gt;Node50</title>
<path fill="none" stroke="#191970" d="M2390.4843,-132.6229C2146.0302,-130.7707 1162.6473,-121.2928 855.8984,-87 843.8139,-85.649 830.8191,-83.4261 818.9284,-81.08"/>
<polygon fill="#191970" stroke="#191970" points="2390.5305,-136.1232 2400.5564,-132.698 2390.5828,-129.1234 2390.5305,-136.1232"/>
</g>
<!-- Node51 -->
<g id="node22" class="node">
<title>Node51</title>
<g id="a_node22"><a xlink:href="BoundingBoxHelpers_8cpp.html" target="_top" xlink:title="BoundingBoxHelpers.cpp">
<polygon fill="none" stroke="#000000" points="4451.3984,-62 4451.3984,-81 4590.3984,-81 4590.3984,-62 4451.3984,-62"/>
<text text-anchor="middle" x="4520.8984" y="-69" font-family="FreeSans.ttf" font-size="10.00" fill="#000000">BoundingBoxHelpers.cpp</text>
</a>
</g>
</g>
<!-- Node26&#45;&gt;Node51 -->
<g id="edge22" class="edge">
<title>Node26&#45;&gt;Node51</title>
<path fill="none" stroke="#191970" d="M2501.0203,-123.393C2502.3242,-123.2512 2503.6184,-123.1197 2504.8984,-123 3362.6388,-42.7962 3586.3773,-179.3181 4442.8984,-87 4455.1154,-85.6832 4468.2652,-83.4086 4480.2227,-81.0013"/>
<polygon fill="#191970" stroke="#191970" points="2500.3923,-119.9443 2490.905,-124.6603 2501.2625,-126.89 2500.3923,-119.9443"/>
</g>
<!-- Node52 -->
<g id="node23" class="node">
<title>Node52</title>
<g id="a_node23"><a xlink:href="ConvexHullHelpers_8cpp.html" target="_top" xlink:title="ConvexHullHelpers.cpp">
<polygon fill="none" stroke="#000000" points="4608.3984,-62 4608.3984,-81 4739.3984,-81 4739.3984,-62 4608.3984,-62"/>
<text text-anchor="middle" x="4673.8984" y="-69" font-family="FreeSans.ttf" font-size="10.00" fill="#000000">ConvexHullHelpers.cpp</text>
</a>
</g>
</g>
<!-- Node26&#45;&gt;Node52 -->
<g id="edge23" class="edge">
<title>Node26&#45;&gt;Node52</title>
<path fill="none" stroke="#191970" d="M2501.02,-123.3906C2502.324,-123.2495 2503.6183,-123.1188 2504.8984,-123 2968.5305,-79.9731 4137.1826,-138.9615 4599.8984,-87 4611.5076,-85.6963 4623.9888,-83.4257 4635.3325,-81.018"/>
<polygon fill="#191970" stroke="#191970" points="2500.3936,-119.9416 2490.9043,-124.6537 2501.261,-126.8876 2500.3936,-119.9416"/>
</g>
<!-- Node53 -->
<g id="node24" class="node">
<title>Node53</title>
<g id="a_node24"><a xlink:href="InverseKinematics_8cpp.html" target="_top" xlink:title="InverseKinematics.cpp">
<polygon fill="none" stroke="#000000" points="4757.8984,-62 4757.8984,-81 4885.8984,-81 4885.8984,-62 4757.8984,-62"/>
<text text-anchor="middle" x="4821.8984" y="-69" font-family="FreeSans.ttf" font-size="10.00" fill="#000000">InverseKinematics.cpp</text>
</a>
</g>
</g>
<!-- Node26&#45;&gt;Node53 -->
<g id="edge24" class="edge">
<title>Node26&#45;&gt;Node53</title>
<path fill="none" stroke="#191970" d="M2501.0198,-123.3886C2502.3239,-123.2481 2503.6182,-123.1181 2504.8984,-123 3001.5216,-77.197 4253.3277,-143.0541 4748.8984,-87 4760.3564,-85.704 4772.6706,-83.4357 4783.8608,-81.0278"/>
<polygon fill="#191970" stroke="#191970" points="2500.3947,-119.9394 2490.9038,-124.6484 2501.2597,-126.8857 2500.3947,-119.9394"/>
</g>
<!-- Node54 -->
<g id="node25" class="node">
<title>Node54</title>
<g id="a_node25"><a xlink:href="InverseKinematicsData_8cpp.html" target="_top" xlink:title="InverseKinematicsData.cpp">
<polygon fill="none" stroke="#000000" points="1174.3984,-62 1174.3984,-81 1325.3984,-81 1325.3984,-62 1174.3984,-62"/>
<text text-anchor="middle" x="1249.8984" y="-69" font-family="FreeSans.ttf" font-size="10.00" fill="#000000">InverseKinematicsData.cpp</text>
</a>
</g>
</g>
<!-- Node26&#45;&gt;Node54 -->
<g id="edge25" class="edge">
<title>Node26&#45;&gt;Node54</title>
<path fill="none" stroke="#191970" d="M2390.584,-131.7288C2195.9071,-127.0954 1542.9578,-110.1637 1334.8984,-87 1322.0774,-85.5726 1308.2779,-83.355 1295.6043,-81.0392"/>
<polygon fill="#191970" stroke="#191970" points="2390.7784,-135.2342 2400.8585,-131.972 2390.9441,-128.2362 2390.7784,-135.2342"/>
</g>
<!-- Node55 -->
<g id="node26" class="node">
<title>Node55</title>
<g id="a_node26"><a xlink:href="InverseKinematicsNLP_8cpp.html" target="_top" xlink:title="InverseKinematicsNLP.cpp">
<polygon fill="none" stroke="#000000" points="1343.3984,-62 1343.3984,-81 1488.3984,-81 1488.3984,-62 1343.3984,-62"/>
<text text-anchor="middle" x="1415.8984" y="-69" font-family="FreeSans.ttf" font-size="10.00" fill="#000000">InverseKinematicsNLP.cpp</text>
</a>
</g>
</g>
<!-- Node26&#45;&gt;Node55 -->
<g id="edge26" class="edge">
<title>Node26&#45;&gt;Node55</title>
<path fill="none" stroke="#191970" d="M2390.626,-131.3245C2215.2463,-125.8494 1672.5795,-107.647 1497.8984,-87 1485.6686,-85.5545 1472.5201,-83.36 1460.4112,-81.0734"/>
<polygon fill="#191970" stroke="#191970" points="2390.5598,-134.824 2400.6638,-131.6364 2390.7774,-127.8274 2390.5598,-134.824"/>
</g>
<!-- Node56 -->
<g id="node27" class="node">
<title>Node56</title>
<g id="a_node27"><a xlink:href="DenavitHartenberg_8cpp.html" target="_top" xlink:title="DenavitHartenberg.cpp">
<polygon fill="none" stroke="#000000" points="1506.8984,-62 1506.8984,-81 1636.8984,-81 1636.8984,-62 1506.8984,-62"/>
<text text-anchor="middle" x="1571.8984" y="-69" font-family="FreeSans.ttf" font-size="10.00" fill="#000000">DenavitHartenberg.cpp</text>
</a>
</g>
</g>
<!-- Node26&#45;&gt;Node56 -->
<g id="edge27" class="edge">
<title>Node26&#45;&gt;Node56</title>
<path fill="none" stroke="#191970" d="M2390.534,-130.8696C2234.1581,-124.6841 1791.16,-105.9562 1646.8984,-87 1635.6932,-85.5276 1623.6605,-83.3242 1612.5853,-81.0375"/>
<polygon fill="#191970" stroke="#191970" points="2390.7221,-134.3796 2400.8521,-131.276 2390.9976,-127.385 2390.7221,-134.3796"/>
</g>
<!-- Node57 -->
<g id="node28" class="node">
<title>Node57</title>
<g id="a_node28"><a xlink:href="Dynamics_8cpp.html" target="_top" xlink:title="Dynamics.cpp">
<polygon fill="none" stroke="#000000" points="15.8984,-62 15.8984,-81 101.8984,-81 101.8984,-62 15.8984,-62"/>
<text text-anchor="middle" x="58.8984" y="-69" font-family="FreeSans.ttf" font-size="10.00" fill="#000000">Dynamics.cpp</text>
</a>
</g>
</g>
<!-- Node26&#45;&gt;Node57 -->
<g id="edge28" class="edge">
<title>Node26&#45;&gt;Node57</title>
<path fill="none" stroke="#191970" d="M2390.5595,-132.8038C2059.0123,-131.5092 342.3714,-123.096 110.8984,-87 102.6145,-85.7082 93.8055,-83.4412 85.8378,-81.0332"/>
<polygon fill="#191970" stroke="#191970" points="2390.8531,-136.3048 2400.8665,-132.8434 2390.8801,-129.3049 2390.8531,-136.3048"/>
</g>
<!-- Node58 -->
<g id="node29" class="node">
<title>Node58</title>
<g id="a_node29"><a xlink:href="DynamicsLinearization_8cpp.html" target="_top" xlink:title="DynamicsLinearization.cpp">
<polygon fill="none" stroke="#000000" points="1655.3984,-62 1655.3984,-81 1804.3984,-81 1804.3984,-62 1655.3984,-62"/>
<text text-anchor="middle" x="1729.8984" y="-69" font-family="FreeSans.ttf" font-size="10.00" fill="#000000">DynamicsLinearization.cpp</text>
</a>
</g>
</g>
<!-- Node26&#45;&gt;Node58 -->
<g id="edge29" class="edge">
<title>Node26&#45;&gt;Node58</title>
<path fill="none" stroke="#191970" d="M2390.614,-131.0676C2280.352,-126.7538 2025.4147,-114.4772 1812.8984,-87 1800.8321,-85.4399 1787.8652,-83.2621 1775.8501,-81.0311"/>
<polygon fill="#191970" stroke="#191970" points="2390.6994,-134.5733 2400.8265,-131.4604 2390.9685,-127.5785 2390.6994,-134.5733"/>
</g>
<!-- Node59 -->
<g id="node30" class="node">
<title>Node59</title>
<g id="a_node30"><a xlink:href="DynamicsLinearizationHelpers_8cpp.html" target="_top" xlink:title="DynamicsLinearizationHelpers.cpp">
<polygon fill="none" stroke="#000000" points="1821.8984,-62 1821.8984,-81 2007.8984,-81 2007.8984,-62 1821.8984,-62"/>
<text text-anchor="middle" x="1914.8984" y="-69" font-family="FreeSans.ttf" font-size="10.00" fill="#000000">DynamicsLinearizationHelpers.cpp</text>
</a>
</g>
</g>
<!-- Node26&#45;&gt;Node59 -->
<g id="edge30" class="edge">
<title>Node26&#45;&gt;Node59</title>
<path fill="none" stroke="#191970" d="M2390.7994,-127.8301C2309.2165,-120.005 2151.5288,-104.2279 2017.8984,-87 2004.0886,-85.2196 1989.2679,-83.108 1975.2938,-81.0254"/>
<polygon fill="#191970" stroke="#191970" points="2390.5541,-131.3225 2400.8418,-128.79 2391.2203,-124.3543 2390.5541,-131.3225"/>
</g>
<!-- Node60 -->
<g id="node31" class="node">
<title>Node60</title>
<g id="a_node31"><a xlink:href="Jacobians_8cpp.html" target="_top" xlink:title="Jacobians.cpp">
<polygon fill="none" stroke="#000000" points="2026.3984,-62 2026.3984,-81 2109.3984,-81 2109.3984,-62 2026.3984,-62"/>
<text text-anchor="middle" x="2067.8984" y="-69" font-family="FreeSans.ttf" font-size="10.00" fill="#000000">Jacobians.cpp</text>
</a>
</g>
</g>
<!-- Node26&#45;&gt;Node60 -->
<g id="edge31" class="edge">
<title>Node26&#45;&gt;Node60</title>
<path fill="none" stroke="#191970" d="M2390.727,-127.8809C2325.3432,-121.2076 2213.3504,-107.8639 2118.8984,-87 2111.5791,-85.3832 2103.7858,-83.2378 2096.5512,-81.0601"/>
<polygon fill="#191970" stroke="#191970" points="2390.5107,-131.3767 2400.8107,-128.8948 2391.211,-124.4118 2390.5107,-131.3767"/>
</g>
<!-- Node61 -->
<g id="node32" class="node">
<title>Node61</title>
<g id="a_node32"><a xlink:href="Model_8cpp.html" target="_top" xlink:title="Model.cpp">
<polygon fill="none" stroke="#000000" points="2228.8984,-62 2228.8984,-81 2294.8984,-81 2294.8984,-62 2228.8984,-62"/>
<text text-anchor="middle" x="2261.8984" y="-69" font-family="FreeSans.ttf" font-size="10.00" fill="#000000">Model.cpp</text>
</a>
</g>
</g>
<!-- Node26&#45;&gt;Node61 -->
<g id="edge32" class="edge">
<title>Node26&#45;&gt;Node61</title>
<path fill="none" stroke="#191970" d="M2405.6926,-120.4506C2377.1805,-111.4355 2338.0693,-98.8347 2303.8984,-87 2298.4636,-85.1177 2292.6614,-83.0285 2287.1583,-81.0092"/>
<polygon fill="#191970" stroke="#191970" points="2404.7205,-123.8139 2415.3102,-123.4827 2406.8253,-117.1378 2404.7205,-123.8139"/>
</g>
<!-- Node62 -->
<g id="node33" class="node">
<title>Node62</title>
<g id="a_node33"><a xlink:href="ConstraintsGroup_8cpp.html" target="_top" xlink:title="ConstraintsGroup.cpp">
<polygon fill="none" stroke="#000000" points="2312.8984,-62 2312.8984,-81 2434.8984,-81 2434.8984,-62 2312.8984,-62"/>
<text text-anchor="middle" x="2373.8984" y="-69" font-family="FreeSans.ttf" font-size="10.00" fill="#000000">ConstraintsGroup.cpp</text>
</a>
</g>
</g>
<!-- Node26&#45;&gt;Node62 -->
<g id="edge33" class="edge">
<title>Node26&#45;&gt;Node62</title>
<path fill="none" stroke="#191970" d="M2427.0136,-116.8692C2413.7708,-105.5576 2396.5008,-90.8062 2385.3071,-81.2449"/>
<polygon fill="#191970" stroke="#191970" points="2424.7715,-119.557 2434.6484,-123.3906 2429.3179,-114.2344 2424.7715,-119.557"/>
</g>
<!-- Node63 -->
<g id="node34" class="node">
<title>Node63</title>
<g id="a_node34"><a xlink:href="FixedStepIntegrator_8cpp.html" target="_top" xlink:title="FixedStepIntegrator.cpp">
<polygon fill="none" stroke="#000000" points="2453.3984,-62 2453.3984,-81 2584.3984,-81 2584.3984,-62 2453.3984,-62"/>
<text text-anchor="middle" x="2518.8984" y="-69" font-family="FreeSans.ttf" font-size="10.00" fill="#000000">FixedStepIntegrator.cpp</text>
</a>
</g>
</g>
<!-- Node26&#45;&gt;Node63 -->
<g id="edge34" class="edge">
<title>Node26&#45;&gt;Node63</title>
<path fill="none" stroke="#191970" d="M2465.0455,-116.8692C2478.4723,-105.5576 2495.9821,-90.8062 2507.3314,-81.2449"/>
<polygon fill="#191970" stroke="#191970" points="2462.6974,-114.2709 2457.3047,-123.3906 2467.2075,-119.6243 2462.6974,-114.2709"/>
</g>
<!-- Node64 -->
<g id="node35" class="node">
<title>Node64</title>
<g id="a_node35"><a xlink:href="ForwardEuler_8cpp.html" target="_top" xlink:title="ForwardEuler.cpp">
<polygon fill="none" stroke="#000000" points="2602.8984,-62 2602.8984,-81 2702.8984,-81 2702.8984,-62 2602.8984,-62"/>
<text text-anchor="middle" x="2652.8984" y="-69" font-family="FreeSans.ttf" font-size="10.00" fill="#000000">ForwardEuler.cpp</text>
</a>
</g>
</g>
<!-- Node26&#45;&gt;Node64 -->
<g id="edge35" class="edge">
<title>Node26&#45;&gt;Node64</title>
<path fill="none" stroke="#191970" d="M2488.0575,-120.4745C2527.3517,-108.8001 2585.101,-91.6427 2620.7818,-81.0419"/>
<polygon fill="#191970" stroke="#191970" points="2486.8313,-117.1875 2478.2422,-123.3906 2488.8249,-123.8976 2486.8313,-117.1875"/>
</g>
<!-- Node65 -->
<g id="node36" class="node">
<title>Node65</title>
<g id="a_node36"><a xlink:href="ImplicitTrapezoidal_8cpp.html" target="_top" xlink:title="ImplicitTrapezoidal.cpp">
<polygon fill="none" stroke="#000000" points="2721.3984,-62 2721.3984,-81 2850.3984,-81 2850.3984,-62 2721.3984,-62"/>
<text text-anchor="middle" x="2785.8984" y="-69" font-family="FreeSans.ttf" font-size="10.00" fill="#000000">ImplicitTrapezoidal.cpp</text>
</a>
</g>
</g>
<!-- Node26&#45;&gt;Node65 -->
<g id="edge36" class="edge">
<title>Node26&#45;&gt;Node65</title>
<path fill="none" stroke="#191970" d="M2501.2575,-123.534C2573.0721,-111.2375 2691.6063,-90.8785 2711.8984,-87 2721.5679,-85.1518 2731.9232,-83.0562 2741.7324,-81.0167"/>
<polygon fill="#191970" stroke="#191970" points="2500.2842,-120.1496 2491.0181,-125.2868 2501.4653,-127.0492 2500.2842,-120.1496"/>
</g>
<!-- Node66 -->
<g id="node37" class="node">
<title>Node66</title>
<g id="a_node37"><a xlink:href="Integrator_8cpp.html" target="_top" xlink:title="Integrator.cpp">
<polygon fill="none" stroke="#000000" points="2868.8984,-62 2868.8984,-81 2952.8984,-81 2952.8984,-62 2868.8984,-62"/>
<text text-anchor="middle" x="2910.8984" y="-69" font-family="FreeSans.ttf" font-size="10.00" fill="#000000">Integrator.cpp</text>
</a>
</g>
</g>
<!-- Node26&#45;&gt;Node66 -->
<g id="edge37" class="edge">
<title>Node26&#45;&gt;Node66</title>
<path fill="none" stroke="#191970" d="M2501.0366,-123.5362C2502.3357,-123.3514 2503.6244,-123.1724 2504.8984,-123 2662.0536,-101.7375 2704.4117,-118.2043 2859.8984,-87 2867.5199,-85.4705 2875.6307,-83.2759 2883.0892,-81.0173"/>
<polygon fill="#191970" stroke="#191970" points="2500.3209,-120.1042 2490.949,-125.0456 2501.3569,-127.0271 2500.3209,-120.1042"/>
</g>
<!-- Node67 -->
<g id="node38" class="node">
<title>Node67</title>
<g id="a_node38"><a xlink:href="IpoptInterface_8cpp.html" target="_top" xlink:title="IpoptInterface.cpp">
<polygon fill="none" stroke="#000000" points="2971.3984,-62 2971.3984,-81 3076.3984,-81 3076.3984,-62 2971.3984,-62"/>
<text text-anchor="middle" x="3023.8984" y="-69" font-family="FreeSans.ttf" font-size="10.00" fill="#000000">IpoptInterface.cpp</text>
</a>
</g>
</g>
<!-- Node26&#45;&gt;Node67 -->
<g id="edge38" class="edge">
<title>Node26&#45;&gt;Node67</title>
<path fill="none" stroke="#191970" d="M2501.0316,-123.4973C2502.3321,-123.3242 2503.6225,-123.1581 2504.8984,-123 2707.0932,-97.9517 2760.819,-119.8206 2961.8984,-87 2971.0967,-85.4986 2980.9338,-83.3137 2990.0003,-81.0555"/>
<polygon fill="#191970" stroke="#191970" points="2500.3393,-120.0606 2490.9354,-124.9409 2501.3302,-126.9901 2500.3393,-120.0606"/>
</g>
<!-- Node68 -->
<g id="node39" class="node">
<title>Node68</title>
<g id="a_node39"><a xlink:href="LinearConstraint_8cpp.html" target="_top" xlink:title="LinearConstraint.cpp">
<polygon fill="none" stroke="#000000" points="3094.3984,-62 3094.3984,-81 3211.3984,-81 3211.3984,-62 3094.3984,-62"/>
<text text-anchor="middle" x="3152.8984" y="-69" font-family="FreeSans.ttf" font-size="10.00" fill="#000000">LinearConstraint.cpp</text>
</a>
</g>
</g>
<!-- Node26&#45;&gt;Node68 -->
<g id="edge39" class="edge">
<title>Node26&#45;&gt;Node68</title>
<path fill="none" stroke="#191970" d="M2501.0281,-123.4683C2502.3297,-123.3039 2503.6213,-123.1474 2504.8984,-123 2761.9103,-93.3414 2829.8816,-124.2837 3085.8984,-87 3095.9408,-85.5375 3106.7008,-83.3374 3116.5948,-81.0508"/>
<polygon fill="#191970" stroke="#191970" points="2500.3535,-120.0281 2490.9261,-124.8628 2501.3108,-126.9624 2500.3535,-120.0281"/>
</g>
<!-- Node27&#45;&gt;Node29 -->
<g id="edge4" class="edge">
<title>Node27&#45;&gt;Node29</title>
<path fill="none" stroke="#191970" d="M2132.6529,-59.0788C2128.0655,-57.8585 2123.4017,-56.7842 2118.8984,-56 1928.9384,-22.9218 1333.1359,-13.0278 1139.9954,-10.65"/>
<polygon fill="#191970" stroke="#191970" points="2131.9025,-62.5052 2142.4816,-61.9271 2133.851,-55.7819 2131.9025,-62.5052"/>
</g>
<!-- Node27&#45;&gt;Node31 -->
<g id="edge5" class="edge">
<title>Node27&#45;&gt;Node31</title>
<path fill="none" stroke="#191970" d="M2205.1495,-59.1447C2210.0582,-57.8668 2215.0677,-56.7601 2219.8984,-56 2353.4357,-34.9891 4442.8668,-14.4119 4846.6436,-10.6205"/>
<polygon fill="#191970" stroke="#191970" points="2203.962,-55.8437 2195.3052,-61.9519 2205.8817,-62.5754 2203.962,-55.8437"/>
</g>
<!-- Node85&#45;&gt;Node39 -->
<g id="edge41" class="edge">
<title>Node85&#45;&gt;Node39</title>
<path fill="none" stroke="#191970" d="M475.3078,-116.8692C488.9185,-105.5576 506.6682,-90.8062 518.1729,-81.2449"/>
<polygon fill="#191970" stroke="#191970" points="472.9146,-114.3072 467.4609,-123.3906 477.3888,-119.6907 472.9146,-114.3072"/>
</g>
<!-- Node85&#45;&gt;Node41 -->
<g id="edge42" class="edge">
<title>Node85&#45;&gt;Node41</title>
<path fill="none" stroke="#191970" d="M494.0715,-120.1009C528.5902,-108.4366 578.6221,-91.5302 609.6606,-81.0419"/>
<polygon fill="#191970" stroke="#191970" points="492.6892,-116.8735 484.3359,-123.3906 494.9302,-123.5051 492.6892,-116.8735"/>
</g>
<!-- Node85&#45;&gt;Node47 -->
<g id="edge43" class="edge">
<title>Node85&#45;&gt;Node47</title>
<path fill="none" stroke="#191970" d="M407.6545,-120.9878C360.778,-109.3162 290.5229,-91.8235 247.3111,-81.0643"/>
<polygon fill="#191970" stroke="#191970" points="407.0263,-124.4382 417.5757,-123.4581 408.7176,-117.6456 407.0263,-124.4382"/>
</g>
<!-- Node85&#45;&gt;Node48 -->
<g id="edge44" class="edge">
<title>Node85&#45;&gt;Node48</title>
<path fill="none" stroke="#191970" d="M438.972,-116.2101C429.6269,-106.9403 418.1156,-95.5218 409.0654,-86.5446"/>
<polygon fill="#191970" stroke="#191970" points="436.6464,-118.8331 446.2109,-123.3906 441.5761,-113.8633 436.6464,-118.8331"/>
</g>
<!-- Node85&#45;&gt;Node57 -->
<g id="edge45" class="edge">
<title>Node85&#45;&gt;Node57</title>
<path fill="none" stroke="#191970" d="M388.3887,-124.2755C291.8086,-111.754 124.2908,-89.8702 110.8984,-87 103.3453,-85.3812 95.2957,-83.2092 87.8426,-81.0044"/>
<polygon fill="#191970" stroke="#191970" points="387.999,-127.7542 398.3659,-125.5684 388.8987,-120.8122 387.999,-127.7542"/>
</g>
<!-- Node169&#45;&gt;Node35 -->
<g id="edge47" class="edge">
<title>Node169&#45;&gt;Node35</title>
<path fill="none" stroke="#191970" d="M811.4563,-119.7993C841.9613,-108.1468 885.6974,-91.4402 912.9188,-81.0419"/>
<polygon fill="#191970" stroke="#191970" points="810.1474,-116.5526 802.0547,-123.3906 812.6453,-123.0917 810.1474,-116.5526"/>
</g>
<!-- Node169&#45;&gt;Node39 -->
<g id="edge48" class="edge">
<title>Node169&#45;&gt;Node39</title>
<path fill="none" stroke="#191970" d="M735.6526,-124.5387C695.2265,-115.9939 631.9759,-101.9522 577.8984,-87 571.3994,-85.203 564.4674,-83.0848 557.9508,-81.0011"/>
<polygon fill="#191970" stroke="#191970" points="735.1639,-128.0124 745.6697,-126.6422 736.6025,-121.1618 735.1639,-128.0124"/>
</g>
<!-- Node169&#45;&gt;Node41 -->
<g id="edge49" class="edge">
<title>Node169&#45;&gt;Node41</title>
<path fill="none" stroke="#191970" d="M746.031,-119.3428C719.7478,-107.7139 682.6612,-91.3051 659.4647,-81.0419"/>
<polygon fill="#191970" stroke="#191970" points="744.6186,-122.5452 755.1797,-123.3906 747.451,-116.1437 744.6186,-122.5452"/>
</g>
<!-- Node169&#45;&gt;Node50 -->
<g id="edge50" class="edge">
<title>Node169&#45;&gt;Node50</title>
<path fill="none" stroke="#191970" d="M776.8984,-113.2462C776.8984,-102.5519 776.8984,-89.814 776.8984,-81.2449"/>
<polygon fill="#191970" stroke="#191970" points="773.3985,-113.3906 776.8984,-123.3906 780.3985,-113.3907 773.3985,-113.3906"/>
</g>
<!-- Node200&#45;&gt;Node47 -->
<g id="edge59" class="edge">
<title>Node200&#45;&gt;Node47</title>
<path fill="none" stroke="#191970" d="M303.6611,-118.8813C280.4648,-107.2832 248.2386,-91.1701 227.9822,-81.0419"/>
<polygon fill="#191970" stroke="#191970" points="302.1701,-122.0489 312.6797,-123.3906 305.3007,-115.7879 302.1701,-122.0489"/>
</g>
<!-- Node200&#45;&gt;Node48 -->
<g id="edge60" class="edge">
<title>Node200&#45;&gt;Node48</title>
<path fill="none" stroke="#191970" d="M348.8249,-116.2101C358.17,-106.9403 369.6813,-95.5218 378.7315,-86.5446"/>
<polygon fill="#191970" stroke="#191970" points="346.2208,-113.8633 341.5859,-123.3906 351.1505,-118.8331 346.2208,-113.8633"/>
</g>
<!-- Node200&#45;&gt;Node57 -->
<g id="edge61" class="edge">
<title>Node200&#45;&gt;Node57</title>
<path fill="none" stroke="#191970" d="M285.2882,-124.4848C240.3813,-116.0018 170.6485,-102.0947 110.8984,-87 103.8658,-85.2233 96.3593,-83.1132 89.3002,-81.0308"/>
<polygon fill="#191970" stroke="#191970" points="284.8398,-127.9617 295.3138,-126.3664 286.1311,-121.0818 284.8398,-127.9617"/>
</g>
</g>
</svg>
