<?xml version="1.0" encoding="UTF-8" standalone="no"?>
<!DOCTYPE svg PUBLIC "-//W3C//DTD SVG 1.1//EN"
 "http://www.w3.org/Graphics/SVG/1.1/DTD/svg11.dtd">
<!-- Generated by graphviz version 2.40.1 (20161225.0304)
 -->
<!-- Title: AngularMotionVector3.h Pages: 1 -->
<svg width="4551pt" height="263pt"
 viewBox="0.00 0.00 4550.50 263.00" xmlns="http://www.w3.org/2000/svg" xmlns:xlink="http://www.w3.org/1999/xlink">
<g id="graph0" class="graph" transform="scale(1 1) rotate(0) translate(4 259)">
<title>AngularMotionVector3.h</title>
<!-- Node24 -->
<g id="node1" class="node">
<title>Node24</title>
<polygon fill="#bfbfbf" stroke="#000000" points="3134,-235.5 3134,-254.5 3267,-254.5 3267,-235.5 3134,-235.5"/>
<text text-anchor="middle" x="3200.5" y="-242.5" font-family="FreeSans.ttf" font-size="10.00" fill="#000000">AngularMotionVector3.h</text>
</g>
<!-- Node25 -->
<g id="node2" class="node">
<title>Node25</title>
<g id="a_node2"><a xlink:href="SpatialMotionVector_8h.html" target="_top" xlink:title="SpatialMotionVector.h">
<polygon fill="none" stroke="#000000" points="2917.5,-179.5 2917.5,-198.5 3039.5,-198.5 3039.5,-179.5 2917.5,-179.5"/>
<text text-anchor="middle" x="2978.5" y="-186.5" font-family="FreeSans.ttf" font-size="10.00" fill="#000000">SpatialMotionVector.h</text>
</a>
</g>
</g>
<!-- Node24&#45;&gt;Node25 -->
<g id="edge1" class="edge">
<title>Node24&#45;&gt;Node25</title>
<path fill="none" stroke="#191970" d="M3152.8572,-232.982C3112.0097,-222.6781 3053.9525,-208.0331 3016.2546,-198.5237"/>
<polygon fill="#191970" stroke="#191970" points="3152.0367,-236.3846 3162.5891,-235.4369 3153.7489,-229.5972 3152.0367,-236.3846"/>
</g>
<!-- Node39 -->
<g id="node11" class="node">
<title>Node39</title>
<g id="a_node11"><a xlink:href="Rotation_8cpp.html" target="_top" xlink:title="Rotation.cpp">
<polygon fill="none" stroke="#000000" points="139,-62 139,-81 216,-81 216,-62 139,-62"/>
<text text-anchor="middle" x="177.5" y="-69" font-family="FreeSans.ttf" font-size="10.00" fill="#000000">Rotation.cpp</text>
</a>
</g>
</g>
<!-- Node24&#45;&gt;Node39 -->
<g id="edge64" class="edge">
<title>Node24&#45;&gt;Node39</title>
<path fill="none" stroke="#191970" d="M3123.4145,-243.4942C2700.3284,-235.0564 669.3769,-192.2564 394.5,-143 320.902,-129.8116 238.0357,-97.2794 199.4534,-81.0406"/>
<polygon fill="#191970" stroke="#191970" points="3123.6309,-246.9991 3133.6986,-243.6988 3123.7702,-240.0005 3123.6309,-246.9991"/>
</g>
<!-- Node156 -->
<g id="node37" class="node">
<title>Node156</title>
<g id="a_node37"><a xlink:href="GyroscopeSensor_8cpp.html" target="_top" xlink:title="GyroscopeSensor.cpp">
<polygon fill="none" stroke="#000000" points="0,-62 0,-81 121,-81 121,-62 0,-62"/>
<text text-anchor="middle" x="60.5" y="-69" font-family="FreeSans.ttf" font-size="10.00" fill="#000000">GyroscopeSensor.cpp</text>
</a>
</g>
</g>
<!-- Node24&#45;&gt;Node156 -->
<g id="edge65" class="edge">
<title>Node24&#45;&gt;Node156</title>
<path fill="none" stroke="#191970" d="M3123.6117,-244.2652C2774.8022,-240.8097 1338.7761,-225.2344 889.5,-199 632.2887,-183.9807 565.6764,-190.8008 312.5,-143 229.3814,-127.3069 134.0155,-96.6735 88.0768,-81.0942"/>
<polygon fill="#191970" stroke="#191970" points="3123.8225,-247.7674 3133.8565,-244.3663 3123.8916,-240.7677 3123.8225,-247.7674"/>
</g>
<!-- Node205 -->
<g id="node46" class="node">
<title>Node205</title>
<g id="a_node46"><a xlink:href="AngularMotionVector3_8cpp.html" target="_top" xlink:title="AngularMotionVector3.cpp">
<polygon fill="none" stroke="#000000" points="3057.5,-179.5 3057.5,-198.5 3201.5,-198.5 3201.5,-179.5 3057.5,-179.5"/>
<text text-anchor="middle" x="3129.5" y="-186.5" font-family="FreeSans.ttf" font-size="10.00" fill="#000000">AngularMotionVector3.cpp</text>
</a>
</g>
</g>
<!-- Node24&#45;&gt;Node205 -->
<g id="edge60" class="edge">
<title>Node24&#45;&gt;Node205</title>
<path fill="none" stroke="#191970" d="M3180.123,-228.928C3167.7129,-219.1397 3152.27,-206.9595 3141.7255,-198.6427"/>
<polygon fill="#191970" stroke="#191970" points="3178.1136,-231.8007 3188.1327,-235.2455 3182.4486,-226.3046 3178.1136,-231.8007"/>
</g>
<!-- Node206 -->
<g id="node47" class="node">
<title>Node206</title>
<g id="a_node47"><a xlink:href="GeomVector3_8cpp.html" target="_top" xlink:title="GeomVector3.cpp">
<polygon fill="none" stroke="#000000" points="3220,-179.5 3220,-198.5 3323,-198.5 3323,-179.5 3220,-179.5"/>
<text text-anchor="middle" x="3271.5" y="-186.5" font-family="FreeSans.ttf" font-size="10.00" fill="#000000">GeomVector3.cpp</text>
</a>
</g>
</g>
<!-- Node24&#45;&gt;Node206 -->
<g id="edge61" class="edge">
<title>Node24&#45;&gt;Node206</title>
<path fill="none" stroke="#191970" d="M3220.877,-228.928C3233.2871,-219.1397 3248.73,-206.9595 3259.2745,-198.6427"/>
<polygon fill="#191970" stroke="#191970" points="3218.5514,-226.3046 3212.8673,-235.2455 3222.8864,-231.8007 3218.5514,-226.3046"/>
</g>
<!-- Node207 -->
<g id="node48" class="node">
<title>Node207</title>
<g id="a_node48"><a xlink:href="LinearMotionVector3_8cpp.html" target="_top" xlink:title="LinearMotionVector3.cpp">
<polygon fill="none" stroke="#000000" points="3341,-179.5 3341,-198.5 3478,-198.5 3478,-179.5 3341,-179.5"/>
<text text-anchor="middle" x="3409.5" y="-186.5" font-family="FreeSans.ttf" font-size="10.00" fill="#000000">LinearMotionVector3.cpp</text>
</a>
</g>
</g>
<!-- Node24&#45;&gt;Node207 -->
<g id="edge62" class="edge">
<title>Node24&#45;&gt;Node207</title>
<path fill="none" stroke="#191970" d="M3246.3311,-232.7199C3284.7613,-222.4228 3338.852,-207.9296 3374.0405,-198.5011"/>
<polygon fill="#191970" stroke="#191970" points="3245.1818,-229.4043 3236.4284,-235.3733 3246.9935,-236.1658 3245.1818,-229.4043"/>
</g>
<!-- Node208 -->
<g id="node49" class="node">
<title>Node208</title>
<g id="a_node49"><a xlink:href="MotionVector3_8cpp.html" target="_top" xlink:title="MotionVector3.cpp">
<polygon fill="none" stroke="#000000" points="3496,-179.5 3496,-198.5 3603,-198.5 3603,-179.5 3496,-179.5"/>
<text text-anchor="middle" x="3549.5" y="-186.5" font-family="FreeSans.ttf" font-size="10.00" fill="#000000">MotionVector3.cpp</text>
</a>
</g>
</g>
<!-- Node24&#45;&gt;Node208 -->
<g id="edge63" class="edge">
<title>Node24&#45;&gt;Node208</title>
<path fill="none" stroke="#191970" d="M3270.3128,-233.8302C3328.4308,-224.5268 3413.3568,-210.9211 3487.5,-199 3490.1912,-198.5673 3492.948,-198.1237 3495.732,-197.6756"/>
<polygon fill="#191970" stroke="#191970" points="3269.4634,-230.4215 3260.1424,-235.4582 3270.5699,-237.3335 3269.4634,-230.4215"/>
</g>
<!-- Node154 -->
<g id="node50" class="node">
<title>Node154</title>
<g id="a_node50"><a xlink:href="Sensors_8cpp.html" target="_top" xlink:title="Sensors.cpp">
<polygon fill="none" stroke="#000000" points="3621,-179.5 3621,-198.5 3696,-198.5 3696,-179.5 3621,-179.5"/>
<text text-anchor="middle" x="3658.5" y="-186.5" font-family="FreeSans.ttf" font-size="10.00" fill="#000000">Sensors.cpp</text>
</a>
</g>
</g>
<!-- Node24&#45;&gt;Node154 -->
<g id="edge66" class="edge">
<title>Node24&#45;&gt;Node154</title>
<path fill="none" stroke="#191970" d="M3277.2523,-238.8085C3360.2402,-231.5606 3496.2549,-218.0728 3612.5,-199 3615.242,-198.5501 3618.0671,-198.0433 3620.9048,-197.5027"/>
<polygon fill="#191970" stroke="#191970" points="3276.8112,-235.3335 3267.1503,-239.6828 3277.4149,-242.3074 3276.8112,-235.3335"/>
</g>
<!-- Node26 -->
<g id="node3" class="node">
<title>Node26</title>
<g id="a_node3"><a xlink:href="EigenHelpers_8h.html" target="_top" xlink:title="EigenHelpers.h">
<polygon fill="none" stroke="#ff0000" points="2484.5,-123.5 2484.5,-142.5 2574.5,-142.5 2574.5,-123.5 2484.5,-123.5"/>
<text text-anchor="middle" x="2529.5" y="-130.5" font-family="FreeSans.ttf" font-size="10.00" fill="#000000">EigenHelpers.h</text>
</a>
</g>
</g>
<!-- Node25&#45;&gt;Node26 -->
<g id="edge2" class="edge">
<title>Node25&#45;&gt;Node26</title>
<path fill="none" stroke="#191970" d="M2907.2749,-180.1167C2813.9384,-168.4756 2652.958,-148.3979 2574.7577,-138.6446"/>
<polygon fill="#191970" stroke="#191970" points="2907.1223,-183.6247 2917.4786,-181.3893 2907.9887,-176.6785 2907.1223,-183.6247"/>
</g>
<!-- Node29 -->
<g id="node5" class="node">
<title>Node29</title>
<g id="a_node5"><a xlink:href="SpatialInertiaRaw_8cpp.html" target="_top" xlink:title="SpatialInertiaRaw.cpp">
<polygon fill="none" stroke="#000000" points="4420.5,-.5 4420.5,-19.5 4542.5,-19.5 4542.5,-.5 4420.5,-.5"/>
<text text-anchor="middle" x="4481.5" y="-7.5" font-family="FreeSans.ttf" font-size="10.00" fill="#000000">SpatialInertiaRaw.cpp</text>
</a>
</g>
</g>
<!-- Node25&#45;&gt;Node29 -->
<g id="edge50" class="edge">
<title>Node25&#45;&gt;Node29</title>
<path fill="none" stroke="#191970" d="M3049.7178,-179.1193C3251.6091,-165.9136 4392.5214,-204.8841 4498.5,-87 4515.6152,-67.9621 4498.6552,-35.6514 4488.2694,-19.6169"/>
<polygon fill="#191970" stroke="#191970" points="3049.242,-175.6455 3039.5401,-179.9025 3049.7791,-182.6249 3049.242,-175.6455"/>
</g>
<!-- Node31 -->
<g id="node6" class="node">
<title>Node31</title>
<g id="a_node6"><a xlink:href="SpatialMotionVector_8cpp.html" target="_top" xlink:title="SpatialMotionVector.cpp">
<polygon fill="none" stroke="#000000" points="4213.5,-.5 4213.5,-19.5 4347.5,-19.5 4347.5,-.5 4213.5,-.5"/>
<text text-anchor="middle" x="4280.5" y="-7.5" font-family="FreeSans.ttf" font-size="10.00" fill="#000000">SpatialMotionVector.cpp</text>
</a>
</g>
</g>
<!-- Node25&#45;&gt;Node31 -->
<g id="edge51" class="edge">
<title>Node25&#45;&gt;Node31</title>
<path fill="none" stroke="#191970" d="M2923.0735,-176.8603C2883.3159,-165.772 2840.6435,-147.3942 2864.5,-123 2927.2479,-58.8378 4416.7521,-151.1622 4479.5,-87 4523.5318,-41.9758 4421.329,-22.794 4347.6924,-14.9873"/>
<polygon fill="#191970" stroke="#191970" points="2922.2455,-180.2618 2932.8095,-179.4537 2924.0474,-173.4976 2922.2455,-180.2618"/>
</g>
<!-- Node74 -->
<g id="node34" class="node">
<title>Node74</title>
<g id="a_node34"><a xlink:href="PredictSensorsMeasurements_8cpp.html" target="_top" xlink:title="PredictSensorsMeasurements.cpp">
<polygon fill="none" stroke="#000000" points="847,-62 847,-81 1028,-81 1028,-62 847,-62"/>
<text text-anchor="middle" x="937.5" y="-69" font-family="FreeSans.ttf" font-size="10.00" fill="#000000">PredictSensorsMeasurements.cpp</text>
</a>
</g>
</g>
<!-- Node25&#45;&gt;Node74 -->
<g id="edge59" class="edge">
<title>Node25&#45;&gt;Node74</title>
<path fill="none" stroke="#191970" d="M2906.8587,-187.8935C2651.8042,-183.39 1764.3256,-162.887 1036.5,-87 1021.9654,-85.4845 1006.3102,-83.2948 991.8347,-81.0364"/>
<polygon fill="#191970" stroke="#191970" points="2907.0389,-191.3971 2917.0983,-188.0717 2907.1607,-184.3982 2907.0389,-191.3971"/>
</g>
<!-- Node85 -->
<g id="node35" class="node">
<title>Node85</title>
<g id="a_node35"><a xlink:href="SpatialAcc_8h.html" target="_top" xlink:title="SpatialAcc.h">
<polygon fill="none" stroke="#ff0000" points="575,-123.5 575,-142.5 652,-142.5 652,-123.5 575,-123.5"/>
<text text-anchor="middle" x="613.5" y="-130.5" font-family="FreeSans.ttf" font-size="10.00" fill="#000000">SpatialAcc.h</text>
</a>
</g>
</g>
<!-- Node25&#45;&gt;Node85 -->
<g id="edge35" class="edge">
<title>Node25&#45;&gt;Node85</title>
<path fill="none" stroke="#191970" d="M2907.3027,-187.3141C2546.2884,-178.7658 924.5395,-140.365 652.331,-133.9195"/>
<polygon fill="#191970" stroke="#191970" points="2907.2821,-190.8145 2917.3622,-187.5523 2907.4479,-183.8165 2907.2821,-190.8145"/>
</g>
<!-- Node198 -->
<g id="node36" class="node">
<title>Node198</title>
<g id="a_node36"><a xlink:href="Twist_8h.html" target="_top" xlink:title="Twist.h">
<polygon fill="none" stroke="#ff0000" points="403.5,-123.5 403.5,-142.5 453.5,-142.5 453.5,-123.5 403.5,-123.5"/>
<text text-anchor="middle" x="428.5" y="-130.5" font-family="FreeSans.ttf" font-size="10.00" fill="#000000">Twist.h</text>
</a>
</g>
</g>
<!-- Node25&#45;&gt;Node198 -->
<g id="edge42" class="edge">
<title>Node25&#45;&gt;Node198</title>
<path fill="none" stroke="#191970" d="M2907.0381,-188.1575C2558.9711,-183.9747 1038.7855,-164.7686 565.5,-143 526.4306,-141.203 481.194,-137.6044 453.726,-135.25"/>
<polygon fill="#191970" stroke="#191970" points="2907.1929,-191.6596 2917.2342,-188.2798 2907.2769,-184.6601 2907.1929,-191.6596"/>
</g>
<!-- Node200 -->
<g id="node38" class="node">
<title>Node200</title>
<g id="a_node38"><a xlink:href="PositionRaw_8cpp.html" target="_top" xlink:title="PositionRaw.cpp">
<polygon fill="none" stroke="#000000" points="2873.5,-123.5 2873.5,-142.5 2969.5,-142.5 2969.5,-123.5 2873.5,-123.5"/>
<text text-anchor="middle" x="2921.5" y="-130.5" font-family="FreeSans.ttf" font-size="10.00" fill="#000000">PositionRaw.cpp</text>
</a>
</g>
</g>
<!-- Node25&#45;&gt;Node200 -->
<g id="edge48" class="edge">
<title>Node25&#45;&gt;Node200</title>
<path fill="none" stroke="#191970" d="M2961.2729,-172.0751C2951.4659,-162.4402 2939.536,-150.7196 2931.3149,-142.6427"/>
<polygon fill="#191970" stroke="#191970" points="2958.9851,-174.734 2968.5714,-179.2455 2963.8909,-169.7406 2958.9851,-174.734"/>
</g>
<!-- Node201 -->
<g id="node39" class="node">
<title>Node201</title>
<g id="a_node39"><a xlink:href="RotationRaw_8cpp.html" target="_top" xlink:title="RotationRaw.cpp">
<polygon fill="none" stroke="#000000" points="2987.5,-123.5 2987.5,-142.5 3085.5,-142.5 3085.5,-123.5 2987.5,-123.5"/>
<text text-anchor="middle" x="3036.5" y="-130.5" font-family="FreeSans.ttf" font-size="10.00" fill="#000000">RotationRaw.cpp</text>
</a>
</g>
</g>
<!-- Node25&#45;&gt;Node201 -->
<g id="edge49" class="edge">
<title>Node25&#45;&gt;Node201</title>
<path fill="none" stroke="#191970" d="M2996.0293,-172.0751C3006.0083,-162.4402 3018.1476,-150.7196 3026.5129,-142.6427"/>
<polygon fill="#191970" stroke="#191970" points="2993.3658,-169.7817 2988.6028,-179.2455 2998.228,-174.8175 2993.3658,-169.7817"/>
</g>
<!-- Node87 -->
<g id="node40" class="node">
<title>Node87</title>
<g id="a_node40"><a xlink:href="TestUtils_8cpp.html" target="_top" xlink:title="TestUtils.cpp">
<polygon fill="none" stroke="#000000" points="3104,-123.5 3104,-142.5 3183,-142.5 3183,-123.5 3104,-123.5"/>
<text text-anchor="middle" x="3143.5" y="-130.5" font-family="FreeSans.ttf" font-size="10.00" fill="#000000">TestUtils.cpp</text>
</a>
</g>
</g>
<!-- Node25&#45;&gt;Node87 -->
<g id="edge52" class="edge">
<title>Node25&#45;&gt;Node87</title>
<path fill="none" stroke="#191970" d="M3016.6356,-176.057C3046.8325,-165.8084 3088.3163,-151.729 3115.5056,-142.5011"/>
<polygon fill="#191970" stroke="#191970" points="3015.2091,-172.845 3006.8645,-179.3733 3017.4589,-179.4736 3015.2091,-172.845"/>
</g>
<!-- Node88 -->
<g id="node41" class="node">
<title>Node88</title>
<g id="a_node41"><a xlink:href="DynamicsUtils_8h.html" target="_top" xlink:title="DynamicsUtils.h">
<polygon fill="none" stroke="#000000" points="3201,-123.5 3201,-142.5 3298,-142.5 3298,-123.5 3201,-123.5"/>
<text text-anchor="middle" x="3249.5" y="-130.5" font-family="FreeSans.ttf" font-size="10.00" fill="#000000">DynamicsUtils.h</text>
</a>
</g>
</g>
<!-- Node25&#45;&gt;Node88 -->
<g id="edge53" class="edge">
<title>Node25&#45;&gt;Node88</title>
<path fill="none" stroke="#191970" d="M3034.7712,-177.372C3084.7199,-167.0505 3156.8098,-152.1537 3203.4122,-142.5237"/>
<polygon fill="#191970" stroke="#191970" points="3033.8634,-173.9856 3024.7786,-179.4369 3035.2801,-180.8407 3033.8634,-173.9856"/>
</g>
<!-- Node202 -->
<g id="node42" class="node">
<title>Node202</title>
<g id="a_node42"><a xlink:href="PrismaticJoint_8h.html" target="_top" xlink:title="PrismaticJoint.h">
<polygon fill="none" stroke="#ff0000" points="3316,-123.5 3316,-142.5 3409,-142.5 3409,-123.5 3316,-123.5"/>
<text text-anchor="middle" x="3362.5" y="-130.5" font-family="FreeSans.ttf" font-size="10.00" fill="#000000">PrismaticJoint.h</text>
</a>
</g>
</g>
<!-- Node25&#45;&gt;Node202 -->
<g id="edge54" class="edge">
<title>Node25&#45;&gt;Node202</title>
<path fill="none" stroke="#191970" d="M3049.5442,-178.8619C3165.2397,-162.6938 3195.8856,-160.8957 3307.5,-143 3310.1832,-142.5698 3312.9374,-142.1141 3315.7149,-141.6435"/>
<polygon fill="#191970" stroke="#191970" points="3048.9979,-175.4042 3039.5814,-180.2602 3049.9709,-182.3362 3048.9979,-175.4042"/>
</g>
<!-- Node204 -->
<g id="node43" class="node">
<title>Node204</title>
<g id="a_node43"><a xlink:href="RevoluteJoint_8h.html" target="_top" xlink:title="RevoluteJoint.h">
<polygon fill="none" stroke="#ff0000" points="3874.5,-123.5 3874.5,-142.5 3964.5,-142.5 3964.5,-123.5 3874.5,-123.5"/>
<text text-anchor="middle" x="3919.5" y="-130.5" font-family="FreeSans.ttf" font-size="10.00" fill="#000000">RevoluteJoint.h</text>
</a>
</g>
</g>
<!-- Node25&#45;&gt;Node204 -->
<g id="edge55" class="edge">
<title>Node25&#45;&gt;Node204</title>
<path fill="none" stroke="#191970" d="M3049.7163,-178.985C3230.4923,-162.2822 3722.39,-141.1631 3874.2726,-134.8542"/>
<polygon fill="#191970" stroke="#191970" points="3049.1683,-175.5212 3039.5448,-179.9526 3049.8313,-182.4898 3049.1683,-175.5212"/>
</g>
<!-- Node188 -->
<g id="node44" class="node">
<title>Node188</title>
<g id="a_node44"><a xlink:href="FixedJoint_8cpp.html" target="_top" xlink:title="FixedJoint.cpp">
<polygon fill="none" stroke="#000000" points="3427.5,-123.5 3427.5,-142.5 3511.5,-142.5 3511.5,-123.5 3427.5,-123.5"/>
<text text-anchor="middle" x="3469.5" y="-130.5" font-family="FreeSans.ttf" font-size="10.00" fill="#000000">FixedJoint.cpp</text>
</a>
</g>
</g>
<!-- Node25&#45;&gt;Node188 -->
<g id="edge57" class="edge">
<title>Node25&#45;&gt;Node188</title>
<path fill="none" stroke="#191970" d="M3049.5503,-178.9255C3214.2492,-159.5974 3258.2132,-166.4561 3418.5,-143 3421.3569,-142.5819 3424.2964,-142.1121 3427.2533,-141.6101"/>
<polygon fill="#191970" stroke="#191970" points="3049.0793,-175.4568 3039.5621,-180.1122 3049.9053,-182.4079 3049.0793,-175.4568"/>
</g>
<!-- Node103 -->
<g id="node45" class="node">
<title>Node103</title>
<g id="a_node45"><a xlink:href="JointState_8cpp.html" target="_top" xlink:title="JointState.cpp">
<polygon fill="none" stroke="#000000" points="3529.5,-123.5 3529.5,-142.5 3613.5,-142.5 3613.5,-123.5 3529.5,-123.5"/>
<text text-anchor="middle" x="3571.5" y="-130.5" font-family="FreeSans.ttf" font-size="10.00" fill="#000000">JointState.cpp</text>
</a>
</g>
</g>
<!-- Node25&#45;&gt;Node103 -->
<g id="edge58" class="edge">
<title>Node25&#45;&gt;Node103</title>
<path fill="none" stroke="#191970" d="M3049.6575,-178.9438C3259.3754,-156.5747 3315.281,-170.8475 3520.5,-143 3523.3611,-142.6118 3526.3037,-142.1643 3529.2629,-141.6786"/>
<polygon fill="#191970" stroke="#191970" points="3049.119,-175.4815 3039.5535,-180.037 3049.872,-182.4409 3049.119,-175.4815"/>
</g>
<!-- Node27 -->
<g id="node4" class="node">
<title>Node27</title>
<g id="a_node4"><a xlink:href="PrivateUtils_8h.html" target="_top" xlink:title="PrivateUtils.h">
<polygon fill="none" stroke="#ff0000" points="4239,-62 4239,-81 4322,-81 4322,-62 4239,-62"/>
<text text-anchor="middle" x="4280.5" y="-69" font-family="FreeSans.ttf" font-size="10.00" fill="#000000">PrivateUtils.h</text>
</a>
</g>
</g>
<!-- Node26&#45;&gt;Node27 -->
<g id="edge3" class="edge">
<title>Node26&#45;&gt;Node27</title>
<path fill="none" stroke="#191970" d="M2584.6214,-131.0531C2645.1601,-128.9432 2745.25,-125.5385 2831.5,-123 3142.1351,-113.8576 3922.7194,-136.6334 4229.5,-87 4237.6304,-85.6846 4246.2717,-83.4104 4254.0861,-81.0031"/>
<polygon fill="#191970" stroke="#191970" points="2584.3939,-127.5588 2574.5222,-131.4058 2584.6383,-134.5545 2584.3939,-127.5588"/>
</g>
<!-- Node26&#45;&gt;Node31 -->
<g id="edge13" class="edge">
<title>Node26&#45;&gt;Node31</title>
<path fill="none" stroke="#191970" d="M2584.6988,-130.5377C2752.3722,-122.9361 3246.3013,-99.5932 3278.5,-87 3298.7986,-79.0611 3296.1476,-63.8002 3316.5,-56 3399.5677,-24.1639 4008.2546,-13.4915 4213.2952,-10.7787"/>
<polygon fill="#191970" stroke="#191970" points="2584.4349,-127.046 2574.6033,-130.9943 2584.7512,-134.0389 2584.4349,-127.046"/>
</g>
<!-- Node35 -->
<g id="node7" class="node">
<title>Node35</title>
<g id="a_node7"><a xlink:href="ArticulatedBodyInertia_8cpp.html" target="_top" xlink:title="ArticulatedBodyInertia.cpp">
<polygon fill="none" stroke="#000000" points="682.5,-62 682.5,-81 828.5,-81 828.5,-62 682.5,-62"/>
<text text-anchor="middle" x="755.5" y="-69" font-family="FreeSans.ttf" font-size="10.00" fill="#000000">ArticulatedBodyInertia.cpp</text>
</a>
</g>
</g>
<!-- Node26&#45;&gt;Node35 -->
<g id="edge6" class="edge">
<title>Node26&#45;&gt;Node35</title>
<path fill="none" stroke="#191970" d="M2474.3102,-132.6851C2220.7179,-131.0561 1165.6688,-122.2487 837.5,-87 824.8233,-85.6384 811.1724,-83.3813 798.7149,-81.0054"/>
<polygon fill="#191970" stroke="#191970" points="2474.3676,-136.1854 2484.3896,-132.7487 2474.4119,-129.1855 2474.3676,-136.1854"/>
</g>
<!-- Node36 -->
<g id="node8" class="node">
<title>Node36</title>
<g id="a_node8"><a xlink:href="CubicSpline_8cpp.html" target="_top" xlink:title="CubicSpline.cpp">
<polygon fill="none" stroke="#000000" points="3325.5,-62 3325.5,-81 3419.5,-81 3419.5,-62 3325.5,-62"/>
<text text-anchor="middle" x="3372.5" y="-69" font-family="FreeSans.ttf" font-size="10.00" fill="#000000">CubicSpline.cpp</text>
</a>
</g>
</g>
<!-- Node26&#45;&gt;Node36 -->
<g id="edge7" class="edge">
<title>Node26&#45;&gt;Node36</title>
<path fill="none" stroke="#191970" d="M2584.8087,-131.1153C2738.9249,-125.6456 3171.0932,-108.7656 3311.5,-87 3320.7861,-85.5605 3330.7173,-83.3389 3339.812,-81.0232"/>
<polygon fill="#191970" stroke="#191970" points="2584.503,-127.6238 2574.6326,-131.4742 2584.7498,-134.6194 2584.503,-127.6238"/>
</g>
<!-- Node37 -->
<g id="node9" class="node">
<title>Node37</title>
<g id="a_node9"><a xlink:href="Direction_8cpp.html" target="_top" xlink:title="Direction.cpp">
<polygon fill="none" stroke="#000000" points="3438,-62 3438,-81 3519,-81 3519,-62 3438,-62"/>
<text text-anchor="middle" x="3478.5" y="-69" font-family="FreeSans.ttf" font-size="10.00" fill="#000000">Direction.cpp</text>
</a>
</g>
</g>
<!-- Node26&#45;&gt;Node37 -->
<g id="edge8" class="edge">
<title>Node26&#45;&gt;Node37</title>
<path fill="none" stroke="#191970" d="M2584.7368,-130.9763C2767.5078,-124.1687 3345.7661,-101.7018 3428.5,-87 3436.2847,-85.6167 3444.5529,-83.3834 3452.0769,-81.0377"/>
<polygon fill="#191970" stroke="#191970" points="2584.4094,-127.4859 2574.5463,-131.3548 2584.6693,-134.4811 2584.4094,-127.4859"/>
</g>
<!-- Node38 -->
<g id="node10" class="node">
<title>Node38</title>
<g id="a_node10"><a xlink:href="InertiaNonLinearParametrization_8cpp.html" target="_top" xlink:title="InertiaNonLinearParametrization.cpp">
<polygon fill="none" stroke="#000000" points="3537,-62 3537,-81 3732,-81 3732,-62 3537,-62"/>
<text text-anchor="middle" x="3634.5" y="-69" font-family="FreeSans.ttf" font-size="10.00" fill="#000000">InertiaNonLinearParametrization.cpp</text>
</a>
</g>
</g>
<!-- Node26&#45;&gt;Node38 -->
<g id="edge9" class="edge">
<title>Node26&#45;&gt;Node38</title>
<path fill="none" stroke="#191970" d="M2584.6089,-131.1844C2765.9326,-125.0971 3342.9627,-104.7926 3528.5,-87 3544.1439,-85.4998 3561.0093,-83.3012 3576.5853,-81.0287"/>
<polygon fill="#191970" stroke="#191970" points="2584.3794,-127.69 2574.5021,-131.5227 2584.6137,-134.6861 2584.3794,-127.69"/>
</g>
<!-- Node26&#45;&gt;Node39 -->
<g id="edge10" class="edge">
<title>Node26&#45;&gt;Node39</title>
<path fill="none" stroke="#191970" d="M2473.8287,-132.8613C2144.044,-131.9101 453.2339,-125.1911 225.5,-87 217.8999,-85.7255 209.853,-83.4956 202.5646,-81.1179"/>
<polygon fill="#191970" stroke="#191970" points="2474.0769,-136.3619 2484.0868,-132.8902 2474.0968,-129.3619 2474.0769,-136.3619"/>
</g>
<!-- Node40 -->
<g id="node12" class="node">
<title>Node40</title>
<g id="a_node12"><a xlink:href="SpatialForceVector_8cpp.html" target="_top" xlink:title="SpatialForceVector.cpp">
<polygon fill="none" stroke="#000000" points="3750,-62 3750,-81 3877,-81 3877,-62 3750,-62"/>
<text text-anchor="middle" x="3813.5" y="-69" font-family="FreeSans.ttf" font-size="10.00" fill="#000000">SpatialForceVector.cpp</text>
</a>
</g>
</g>
<!-- Node26&#45;&gt;Node40 -->
<g id="edge11" class="edge">
<title>Node26&#45;&gt;Node40</title>
<path fill="none" stroke="#191970" d="M2584.6205,-131.1757C2813.9802,-123.5504 3683.5005,-94.2873 3741.5,-87 3752.5374,-85.6132 3764.3883,-83.3789 3775.2251,-81.0332"/>
<polygon fill="#191970" stroke="#191970" points="2584.3823,-127.6816 2574.5041,-131.5118 2584.6148,-134.6778 2584.3823,-127.6816"/>
</g>
<!-- Node41 -->
<g id="node13" class="node">
<title>Node41</title>
<g id="a_node13"><a xlink:href="SpatialInertia_8cpp.html" target="_top" xlink:title="SpatialInertia.cpp">
<polygon fill="none" stroke="#000000" points="562.5,-62 562.5,-81 664.5,-81 664.5,-62 562.5,-62"/>
<text text-anchor="middle" x="613.5" y="-69" font-family="FreeSans.ttf" font-size="10.00" fill="#000000">SpatialInertia.cpp</text>
</a>
</g>
</g>
<!-- Node26&#45;&gt;Node41 -->
<g id="edge12" class="edge">
<title>Node26&#45;&gt;Node41</title>
<path fill="none" stroke="#191970" d="M2474.0238,-132.3788C2184.7271,-129.0382 855.403,-112.4102 673.5,-87 664.1234,-85.6902 654.1034,-83.4493 644.9903,-81.0723"/>
<polygon fill="#191970" stroke="#191970" points="2474.2288,-135.8813 2484.2684,-132.4965 2474.3093,-128.8817 2474.2288,-135.8813"/>
</g>
<!-- Node42 -->
<g id="node14" class="node">
<title>Node42</title>
<g id="a_node14"><a xlink:href="TransformDerivative_8cpp.html" target="_top" xlink:title="TransformDerivative.cpp">
<polygon fill="none" stroke="#000000" points="3895,-62 3895,-81 4032,-81 4032,-62 3895,-62"/>
<text text-anchor="middle" x="3963.5" y="-69" font-family="FreeSans.ttf" font-size="10.00" fill="#000000">TransformDerivative.cpp</text>
</a>
</g>
</g>
<!-- Node26&#45;&gt;Node42 -->
<g id="edge14" class="edge">
<title>Node26&#45;&gt;Node42</title>
<path fill="none" stroke="#191970" d="M2584.8261,-131.155C2838.4825,-122.6924 3878.2775,-87.9603 3886.5,-87 3898.2834,-85.6238 3910.9508,-83.3928 3922.5404,-81.047"/>
<polygon fill="#191970" stroke="#191970" points="2584.6137,-127.66 2574.736,-131.4916 2584.8472,-134.6561 2584.6137,-127.66"/>
</g>
<!-- Node43 -->
<g id="node15" class="node">
<title>Node43</title>
<g id="a_node15"><a xlink:href="GravityCompensationHelpers_8h.html" target="_top" xlink:title="GravityCompensationHelpers.h">
<polygon fill="none" stroke="#ff0000" points="4050.5,-62 4050.5,-81 4220.5,-81 4220.5,-62 4050.5,-62"/>
<text text-anchor="middle" x="4135.5" y="-69" font-family="FreeSans.ttf" font-size="10.00" fill="#000000">GravityCompensationHelpers.h</text>
</a>
</g>
</g>
<!-- Node26&#45;&gt;Node43 -->
<g id="edge15" class="edge">
<title>Node26&#45;&gt;Node43</title>
<path fill="none" stroke="#191970" d="M2584.6235,-131.1192C2645.1638,-129.0665 2745.2553,-125.7109 2831.5,-123 3369.2502,-106.0973 3505.9917,-138.8825 4041.5,-87 4055.8226,-85.6124 4071.2667,-83.3777 4085.4159,-81.0321"/>
<polygon fill="#191970" stroke="#191970" points="2584.3994,-127.6247 2574.5239,-131.462 2584.6369,-134.6206 2584.3994,-127.6247"/>
</g>
<!-- Node45 -->
<g id="node16" class="node">
<title>Node45</title>
<g id="a_node16"><a xlink:href="BerdyHelper_8cpp.html" target="_top" xlink:title="BerdyHelper.cpp">
<polygon fill="none" stroke="#000000" points="1046,-62 1046,-81 1143,-81 1143,-62 1046,-62"/>
<text text-anchor="middle" x="1094.5" y="-69" font-family="FreeSans.ttf" font-size="10.00" fill="#000000">BerdyHelper.cpp</text>
</a>
</g>
</g>
<!-- Node26&#45;&gt;Node45 -->
<g id="edge16" class="edge">
<title>Node26&#45;&gt;Node45</title>
<path fill="none" stroke="#191970" d="M2474.2871,-132.8652C2250.8527,-132.0557 1413.1916,-126.4008 1151.5,-87 1142.576,-85.6564 1133.0519,-83.405 1124.3948,-81.0286"/>
<polygon fill="#191970" stroke="#191970" points="2474.4458,-136.3656 2484.4578,-132.9002 2474.47,-129.3657 2474.4458,-136.3656"/>
</g>
<!-- Node46 -->
<g id="node17" class="node">
<title>Node46</title>
<g id="a_node17"><a xlink:href="BerdySparseMAPSolver_8cpp.html" target="_top" xlink:title="BerdySparseMAPSolver.cpp">
<polygon fill="none" stroke="#000000" points="1161,-62 1161,-81 1310,-81 1310,-62 1161,-62"/>
<text text-anchor="middle" x="1235.5" y="-69" font-family="FreeSans.ttf" font-size="10.00" fill="#000000">BerdySparseMAPSolver.cpp</text>
</a>
</g>
</g>
<!-- Node26&#45;&gt;Node46 -->
<g id="edge17" class="edge">
<title>Node26&#45;&gt;Node46</title>
<path fill="none" stroke="#191970" d="M2474.0733,-131.9755C2268.1166,-128.0002 1547.0122,-112.5375 1318.5,-87 1305.9714,-85.5999 1292.4936,-83.3912 1280.1182,-81.0753"/>
<polygon fill="#191970" stroke="#191970" points="2474.2784,-135.4799 2484.3437,-132.1724 2474.4127,-128.4812 2474.2784,-135.4799"/>
</g>
<!-- Node47 -->
<g id="node18" class="node">
<title>Node47</title>
<g id="a_node18"><a xlink:href="ExternalWrenchesEstimation_8cpp.html" target="_top" xlink:title="ExternalWrenchesEstimation.cpp">
<polygon fill="none" stroke="#000000" points="1328,-62 1328,-81 1505,-81 1505,-62 1328,-62"/>
<text text-anchor="middle" x="1416.5" y="-69" font-family="FreeSans.ttf" font-size="10.00" fill="#000000">ExternalWrenchesEstimation.cpp</text>
</a>
</g>
</g>
<!-- Node26&#45;&gt;Node47 -->
<g id="edge18" class="edge">
<title>Node26&#45;&gt;Node47</title>
<path fill="none" stroke="#191970" d="M2474.2094,-132.6927C2321.1078,-131.3682 1878.8113,-124.3359 1513.5,-87 1499.0793,-85.5262 1483.5411,-83.3222 1469.2173,-81.0356"/>
<polygon fill="#191970" stroke="#191970" points="2474.2721,-136.1932 2484.3004,-132.7752 2474.3294,-129.1934 2474.2721,-136.1932"/>
</g>
<!-- Node48 -->
<g id="node19" class="node">
<title>Node48</title>
<g id="a_node19"><a xlink:href="ExtWrenchesAndJointTorquesEstimator_8cpp.html" target="_top" xlink:title="ExtWrenchesAndJointTorques\lEstimator.cpp">
<polygon fill="none" stroke="#000000" points="1522.5,-56.5 1522.5,-86.5 1680.5,-86.5 1680.5,-56.5 1522.5,-56.5"/>
<text text-anchor="start" x="1530.5" y="-74.5" font-family="FreeSans.ttf" font-size="10.00" fill="#000000">ExtWrenchesAndJointTorques</text>
<text text-anchor="middle" x="1601.5" y="-63.5" font-family="FreeSans.ttf" font-size="10.00" fill="#000000">Estimator.cpp</text>
</a>
</g>
</g>
<!-- Node26&#45;&gt;Node48 -->
<g id="edge19" class="edge">
<title>Node26&#45;&gt;Node48</title>
<path fill="none" stroke="#191970" d="M2474.1951,-132.2568C2339.519,-129.9505 1983.9884,-120.8753 1689.5,-87 1686.5718,-86.6632 1683.5936,-86.291 1680.5888,-85.8905"/>
<polygon fill="#191970" stroke="#191970" points="2474.2095,-135.7575 2484.2662,-132.4236 2474.3255,-128.7584 2474.2095,-135.7575"/>
</g>
<!-- Node49 -->
<g id="node20" class="node">
<title>Node49</title>
<g id="a_node20"><a xlink:href="SimpleLeggedOdometry_8cpp.html" target="_top" xlink:title="SimpleLeggedOdometry.cpp">
<polygon fill="none" stroke="#000000" points="1699,-62 1699,-81 1852,-81 1852,-62 1699,-62"/>
<text text-anchor="middle" x="1775.5" y="-69" font-family="FreeSans.ttf" font-size="10.00" fill="#000000">SimpleLeggedOdometry.cpp</text>
</a>
</g>
</g>
<!-- Node26&#45;&gt;Node49 -->
<g id="edge20" class="edge">
<title>Node26&#45;&gt;Node49</title>
<path fill="none" stroke="#191970" d="M2474.0145,-131.2817C2359.1413,-127.2633 2087.0638,-115.3564 1860.5,-87 1848.1461,-85.4538 1834.868,-83.2809 1822.5635,-81.0502"/>
<polygon fill="#191970" stroke="#191970" points="2474.1929,-134.7898 2484.3072,-131.6352 2474.4333,-127.7939 2474.1929,-134.7898"/>
</g>
<!-- Node50 -->
<g id="node21" class="node">
<title>Node50</title>
<g id="a_node21"><a xlink:href="KinDynComputations_8cpp.html" target="_top" xlink:title="KinDynComputations.cpp">
<polygon fill="none" stroke="#000000" points="234.5,-62 234.5,-81 374.5,-81 374.5,-62 234.5,-62"/>
<text text-anchor="middle" x="304.5" y="-69" font-family="FreeSans.ttf" font-size="10.00" fill="#000000">KinDynComputations.cpp</text>
</a>
</g>
</g>
<!-- Node26&#45;&gt;Node50 -->
<g id="edge21" class="edge">
<title>Node26&#45;&gt;Node50</title>
<path fill="none" stroke="#191970" d="M2474.2326,-132.3855C2159.1729,-128.8065 596.5493,-110.0101 383.5,-87 371.2716,-85.6793 358.1152,-83.435 346.1138,-81.0582"/>
<polygon fill="#191970" stroke="#191970" points="2474.4423,-135.888 2484.4813,-132.5016 2474.5216,-128.8885 2474.4423,-135.888"/>
</g>
<!-- Node51 -->
<g id="node22" class="node">
<title>Node51</title>
<g id="a_node22"><a xlink:href="BoundingBoxHelpers_8cpp.html" target="_top" xlink:title="BoundingBoxHelpers.cpp">
<polygon fill="none" stroke="#000000" points="1870,-62 1870,-81 2009,-81 2009,-62 1870,-62"/>
<text text-anchor="middle" x="1939.5" y="-69" font-family="FreeSans.ttf" font-size="10.00" fill="#000000">BoundingBoxHelpers.cpp</text>
</a>
</g>
</g>
<!-- Node26&#45;&gt;Node51 -->
<g id="edge22" class="edge">
<title>Node26&#45;&gt;Node51</title>
<path fill="none" stroke="#191970" d="M2474.3156,-129.9762C2380.2309,-124.3893 2182.8953,-110.7943 2017.5,-87 2006.2941,-85.3879 1994.2641,-83.2182 1983.0878,-81.0136"/>
<polygon fill="#191970" stroke="#191970" points="2474.2663,-133.4792 2484.4542,-130.5709 2474.6763,-126.4913 2474.2663,-133.4792"/>
</g>
<!-- Node52 -->
<g id="node23" class="node">
<title>Node52</title>
<g id="a_node23"><a xlink:href="ConvexHullHelpers_8cpp.html" target="_top" xlink:title="ConvexHullHelpers.cpp">
<polygon fill="none" stroke="#000000" points="2027,-62 2027,-81 2158,-81 2158,-62 2027,-62"/>
<text text-anchor="middle" x="2092.5" y="-69" font-family="FreeSans.ttf" font-size="10.00" fill="#000000">ConvexHullHelpers.cpp</text>
</a>
</g>
</g>
<!-- Node26&#45;&gt;Node52 -->
<g id="edge23" class="edge">
<title>Node26&#45;&gt;Node52</title>
<path fill="none" stroke="#191970" d="M2474.3938,-127.3399C2403.2599,-119.7263 2275.7537,-105.0364 2167.5,-87 2157.139,-85.2737 2146.0304,-83.1368 2135.6223,-81.0071"/>
<polygon fill="#191970" stroke="#191970" points="2474.1569,-130.8344 2484.4709,-128.4114 2474.8971,-123.8736 2474.1569,-130.8344"/>
</g>
<!-- Node53 -->
<g id="node24" class="node">
<title>Node53</title>
<g id="a_node24"><a xlink:href="InverseKinematics_8cpp.html" target="_top" xlink:title="InverseKinematics.cpp">
<polygon fill="none" stroke="#000000" points="2176.5,-62 2176.5,-81 2304.5,-81 2304.5,-62 2176.5,-62"/>
<text text-anchor="middle" x="2240.5" y="-69" font-family="FreeSans.ttf" font-size="10.00" fill="#000000">InverseKinematics.cpp</text>
</a>
</g>
</g>
<!-- Node26&#45;&gt;Node53 -->
<g id="edge24" class="edge">
<title>Node26&#45;&gt;Node53</title>
<path fill="none" stroke="#191970" d="M2474.7683,-121.3529C2419.932,-109.6836 2336.5338,-91.9363 2285.4444,-81.0643"/>
<polygon fill="#191970" stroke="#191970" points="2474.1513,-124.7999 2484.6608,-123.4581 2475.6084,-117.9533 2474.1513,-124.7999"/>
</g>
<!-- Node54 -->
<g id="node25" class="node">
<title>Node54</title>
<g id="a_node25"><a xlink:href="InverseKinematicsData_8cpp.html" target="_top" xlink:title="InverseKinematicsData.cpp">
<polygon fill="none" stroke="#000000" points="393,-62 393,-81 544,-81 544,-62 393,-62"/>
<text text-anchor="middle" x="468.5" y="-69" font-family="FreeSans.ttf" font-size="10.00" fill="#000000">InverseKinematicsData.cpp</text>
</a>
</g>
</g>
<!-- Node26&#45;&gt;Node54 -->
<g id="edge25" class="edge">
<title>Node26&#45;&gt;Node54</title>
<path fill="none" stroke="#191970" d="M2473.9294,-132.8865C2194.4741,-132.1357 940.8823,-126.5814 553.5,-87 540.3681,-85.6582 526.2205,-83.4074 513.3071,-81.031"/>
<polygon fill="#191970" stroke="#191970" points="2474.2134,-136.3871 2484.2225,-132.9131 2474.2316,-129.3872 2474.2134,-136.3871"/>
</g>
<!-- Node55 -->
<g id="node26" class="node">
<title>Node55</title>
<g id="a_node26"><a xlink:href="InverseKinematicsNLP_8cpp.html" target="_top" xlink:title="InverseKinematicsNLP.cpp">
<polygon fill="none" stroke="#000000" points="2323,-62 2323,-81 2468,-81 2468,-62 2323,-62"/>
<text text-anchor="middle" x="2395.5" y="-69" font-family="FreeSans.ttf" font-size="10.00" fill="#000000">InverseKinematicsNLP.cpp</text>
</a>
</g>
</g>
<!-- Node26&#45;&gt;Node55 -->
<g id="edge26" class="edge">
<title>Node26&#45;&gt;Node55</title>
<path fill="none" stroke="#191970" d="M2499.4089,-119.1895C2474.0918,-107.5701 2438.5546,-91.2601 2416.2905,-81.0419"/>
<polygon fill="#191970" stroke="#191970" points="2498.014,-122.4003 2508.5625,-123.3906 2500.9339,-116.0384 2498.014,-122.4003"/>
</g>
<!-- Node56 -->
<g id="node27" class="node">
<title>Node56</title>
<g id="a_node27"><a xlink:href="DenavitHartenberg_8cpp.html" target="_top" xlink:title="DenavitHartenberg.cpp">
<polygon fill="none" stroke="#000000" points="4340.5,-62 4340.5,-81 4470.5,-81 4470.5,-62 4340.5,-62"/>
<text text-anchor="middle" x="4405.5" y="-69" font-family="FreeSans.ttf" font-size="10.00" fill="#000000">DenavitHartenberg.cpp</text>
</a>
</g>
</g>
<!-- Node26&#45;&gt;Node56 -->
<g id="edge27" class="edge">
<title>Node26&#45;&gt;Node56</title>
<path fill="none" stroke="#191970" d="M2584.6206,-131.0241C2645.1585,-128.8892 2745.2478,-125.463 2831.5,-123 3164.7935,-113.4826 4000.282,-125.3377 4331.5,-87 4342.9743,-85.6719 4355.3041,-83.4253 4366.5455,-81.0486"/>
<polygon fill="#191970" stroke="#191970" points="2584.3915,-127.5299 2574.5215,-131.3812 2584.6389,-134.5256 2584.3915,-127.5299"/>
</g>
<!-- Node57 -->
<g id="node28" class="node">
<title>Node57</title>
<g id="a_node28"><a xlink:href="Dynamics_8cpp.html" target="_top" xlink:title="Dynamics.cpp">
<polygon fill="none" stroke="#000000" points="2486.5,-62 2486.5,-81 2572.5,-81 2572.5,-62 2486.5,-62"/>
<text text-anchor="middle" x="2529.5" y="-69" font-family="FreeSans.ttf" font-size="10.00" fill="#000000">Dynamics.cpp</text>
</a>
</g>
</g>
<!-- Node26&#45;&gt;Node57 -->
<g id="edge28" class="edge">
<title>Node26&#45;&gt;Node57</title>
<path fill="none" stroke="#191970" d="M2529.5,-113.2462C2529.5,-102.5519 2529.5,-89.814 2529.5,-81.2449"/>
<polygon fill="#191970" stroke="#191970" points="2526.0001,-113.3906 2529.5,-123.3906 2533.0001,-113.3907 2526.0001,-113.3906"/>
</g>
<!-- Node58 -->
<g id="node29" class="node">
<title>Node58</title>
<g id="a_node29"><a xlink:href="DynamicsLinearization_8cpp.html" target="_top" xlink:title="DynamicsLinearization.cpp">
<polygon fill="none" stroke="#000000" points="2591,-62 2591,-81 2740,-81 2740,-62 2591,-62"/>
<text text-anchor="middle" x="2665.5" y="-69" font-family="FreeSans.ttf" font-size="10.00" fill="#000000">DynamicsLinearization.cpp</text>
</a>
</g>
</g>
<!-- Node26&#45;&gt;Node58 -->
<g id="edge29" class="edge">
<title>Node26&#45;&gt;Node58</title>
<path fill="none" stroke="#191970" d="M2560.0402,-119.1895C2585.7352,-107.5701 2621.8028,-91.2601 2644.3992,-81.0419"/>
<polygon fill="#191970" stroke="#191970" points="2558.4195,-116.0811 2550.75,-123.3906 2561.3038,-122.4593 2558.4195,-116.0811"/>
</g>
<!-- Node59 -->
<g id="node30" class="node">
<title>Node59</title>
<g id="a_node30"><a xlink:href="DynamicsLinearizationHelpers_8cpp.html" target="_top" xlink:title="DynamicsLinearizationHelpers.cpp">
<polygon fill="none" stroke="#000000" points="2757.5,-62 2757.5,-81 2943.5,-81 2943.5,-62 2757.5,-62"/>
<text text-anchor="middle" x="2850.5" y="-69" font-family="FreeSans.ttf" font-size="10.00" fill="#000000">DynamicsLinearizationHelpers.cpp</text>
</a>
</g>
</g>
<!-- Node26&#45;&gt;Node59 -->
<g id="edge30" class="edge">
<title>Node26&#45;&gt;Node59</title>
<path fill="none" stroke="#191970" d="M2584.9804,-122.3706C2645.7299,-110.7317 2742.2597,-92.2376 2800.6726,-81.0464"/>
<polygon fill="#191970" stroke="#191970" points="2583.9734,-118.9998 2574.8106,-124.319 2585.2906,-125.8747 2583.9734,-118.9998"/>
</g>
<!-- Node60 -->
<g id="node31" class="node">
<title>Node60</title>
<g id="a_node31"><a xlink:href="Jacobians_8cpp.html" target="_top" xlink:title="Jacobians.cpp">
<polygon fill="none" stroke="#000000" points="2962,-62 2962,-81 3045,-81 3045,-62 2962,-62"/>
<text text-anchor="middle" x="3003.5" y="-69" font-family="FreeSans.ttf" font-size="10.00" fill="#000000">Jacobians.cpp</text>
</a>
</g>
</g>
<!-- Node26&#45;&gt;Node60 -->
<g id="edge31" class="edge">
<title>Node26&#45;&gt;Node60</title>
<path fill="none" stroke="#191970" d="M2584.6963,-130.2912C2665.9409,-125.5634 2822.1927,-113.6434 2952.5,-87 2960.0252,-85.4614 2968.0318,-83.2911 2975.4165,-81.0605"/>
<polygon fill="#191970" stroke="#191970" points="2584.4769,-126.7979 2574.6913,-130.8589 2584.8736,-133.7866 2584.4769,-126.7979"/>
</g>
<!-- Node61 -->
<g id="node32" class="node">
<title>Node61</title>
<g id="a_node32"><a xlink:href="Model_8cpp.html" target="_top" xlink:title="Model.cpp">
<polygon fill="none" stroke="#000000" points="3063.5,-62 3063.5,-81 3129.5,-81 3129.5,-62 3063.5,-62"/>
<text text-anchor="middle" x="3096.5" y="-69" font-family="FreeSans.ttf" font-size="10.00" fill="#000000">Model.cpp</text>
</a>
</g>
</g>
<!-- Node26&#45;&gt;Node61 -->
<g id="edge32" class="edge">
<title>Node26&#45;&gt;Node61</title>
<path fill="none" stroke="#191970" d="M2584.9091,-130.0149C2700.9797,-123.4563 2966.2103,-106.7868 3054.5,-87 3060.8708,-85.5722 3067.5827,-83.4126 3073.726,-81.1552"/>
<polygon fill="#191970" stroke="#191970" points="2584.6045,-126.5264 2574.8162,-130.5809 2584.9965,-133.5154 2584.6045,-126.5264"/>
</g>
<!-- Node62 -->
<g id="node33" class="node">
<title>Node62</title>
<g id="a_node33"><a xlink:href="ConstraintsGroup_8cpp.html" target="_top" xlink:title="ConstraintsGroup.cpp">
<polygon fill="none" stroke="#000000" points="3147.5,-62 3147.5,-81 3269.5,-81 3269.5,-62 3147.5,-62"/>
<text text-anchor="middle" x="3208.5" y="-69" font-family="FreeSans.ttf" font-size="10.00" fill="#000000">ConstraintsGroup.cpp</text>
</a>
</g>
</g>
<!-- Node26&#45;&gt;Node62 -->
<g id="edge33" class="edge">
<title>Node26&#45;&gt;Node62</title>
<path fill="none" stroke="#191970" d="M2585.0948,-131.4505C2692.5419,-127.8712 2935.9838,-116.9141 3138.5,-87 3148.8434,-85.4722 3159.9355,-83.2781 3170.1714,-81.0196"/>
<polygon fill="#191970" stroke="#191970" points="2584.701,-127.9614 2574.8198,-131.784 2584.9281,-134.9577 2584.701,-127.9614"/>
</g>
<!-- Node26&#45;&gt;Node74 -->
<g id="edge34" class="edge">
<title>Node26&#45;&gt;Node74</title>
<path fill="none" stroke="#191970" d="M2474.1094,-132.2181C2239.1369,-128.7586 1323.6934,-113.8016 1036.5,-87 1021.4302,-85.5937 1005.1693,-83.353 990.2673,-81.0076"/>
<polygon fill="#191970" stroke="#191970" points="2474.4064,-135.7227 2484.4566,-132.3695 2474.5089,-128.7235 2474.4064,-135.7227"/>
</g>
<!-- Node27&#45;&gt;Node29 -->
<g id="edge4" class="edge">
<title>Node27&#45;&gt;Node29</title>
<path fill="none" stroke="#191970" d="M4321.6803,-58.9001C4359.8303,-47.2273 4415.7412,-30.1202 4450.3143,-19.5419"/>
<polygon fill="#191970" stroke="#191970" points="4320.4446,-55.6179 4311.9063,-61.8906 4322.4927,-62.3116 4320.4446,-55.6179"/>
</g>
<!-- Node27&#45;&gt;Node31 -->
<g id="edge5" class="edge">
<title>Node27&#45;&gt;Node31</title>
<path fill="none" stroke="#191970" d="M4280.5,-51.7462C4280.5,-41.0519 4280.5,-28.314 4280.5,-19.7449"/>
<polygon fill="#191970" stroke="#191970" points="4277.0001,-51.8906 4280.5,-61.8906 4284.0001,-51.8907 4277.0001,-51.8906"/>
</g>
<!-- Node85&#45;&gt;Node35 -->
<g id="edge36" class="edge">
<title>Node85&#45;&gt;Node35</title>
<path fill="none" stroke="#191970" d="M645.0337,-119.3428C671.8841,-107.7139 709.7711,-91.3051 733.4683,-81.0419"/>
<polygon fill="#191970" stroke="#191970" points="643.4728,-116.2046 635.6875,-123.3906 646.2549,-122.628 643.4728,-116.2046"/>
</g>
<!-- Node85&#45;&gt;Node39 -->
<g id="edge37" class="edge">
<title>Node85&#45;&gt;Node39</title>
<path fill="none" stroke="#191970" d="M564.3992,-130.2457C490.2689,-125.4002 345.6661,-113.2635 225.5,-87 218.3993,-85.4481 210.8573,-83.2731 203.9065,-81.0423"/>
<polygon fill="#191970" stroke="#191970" points="564.6117,-133.7662 574.8138,-130.9085 565.0564,-126.7804 564.6117,-133.7662"/>
</g>
<!-- Node85&#45;&gt;Node41 -->
<g id="edge38" class="edge">
<title>Node85&#45;&gt;Node41</title>
<path fill="none" stroke="#191970" d="M613.5,-113.2462C613.5,-102.5519 613.5,-89.814 613.5,-81.2449"/>
<polygon fill="#191970" stroke="#191970" points="610.0001,-113.3906 613.5,-123.3906 617.0001,-113.3907 610.0001,-113.3906"/>
</g>
<!-- Node85&#45;&gt;Node50 -->
<g id="edge39" class="edge">
<title>Node85&#45;&gt;Node50</title>
<path fill="none" stroke="#191970" d="M564.9586,-123.3389C506.8599,-111.7755 410.1909,-92.5356 352.3847,-81.0304"/>
<polygon fill="#191970" stroke="#191970" points="564.4988,-126.8159 574.9897,-125.3353 565.8653,-119.9506 564.4988,-126.8159"/>
</g>
<!-- Node85&#45;&gt;Node54 -->
<g id="edge40" class="edge">
<title>Node85&#45;&gt;Node54</title>
<path fill="none" stroke="#191970" d="M581.3001,-119.3428C553.8824,-107.7139 515.195,-91.3051 490.9972,-81.0419"/>
<polygon fill="#191970" stroke="#191970" points="580.2709,-122.708 590.8438,-123.3906 583.0042,-116.2637 580.2709,-122.708"/>
</g>
<!-- Node85&#45;&gt;Node74 -->
<g id="edge41" class="edge">
<title>Node85&#45;&gt;Node74</title>
<path fill="none" stroke="#191970" d="M662.3486,-123.7278C723.0179,-112.2119 825.9824,-92.6677 887.2808,-81.0324"/>
<polygon fill="#191970" stroke="#191970" points="661.432,-120.3392 652.2601,-125.6427 662.7375,-127.2164 661.432,-120.3392"/>
</g>
<!-- Node198&#45;&gt;Node39 -->
<g id="edge43" class="edge">
<title>Node198&#45;&gt;Node39</title>
<path fill="none" stroke="#191970" d="M393.3671,-126.0356C352.7047,-117.7453 283.8487,-102.9973 225.5,-87 218.9971,-85.2171 212.0635,-83.1045 205.5467,-81.0217"/>
<polygon fill="#191970" stroke="#191970" points="392.8238,-129.4965 403.3195,-128.0504 394.2128,-122.6357 392.8238,-129.4965"/>
</g>
<!-- Node198&#45;&gt;Node41 -->
<g id="edge44" class="edge">
<title>Node198&#45;&gt;Node41</title>
<path fill="none" stroke="#191970" d="M463.6718,-121.3077C498.8125,-109.6258 552.1768,-91.8858 584.83,-81.0308"/>
<polygon fill="#191970" stroke="#191970" points="462.2208,-118.1017 453.8356,-124.5776 464.4291,-124.7443 462.2208,-118.1017"/>
</g>
<!-- Node198&#45;&gt;Node50 -->
<g id="edge45" class="edge">
<title>Node198&#45;&gt;Node50</title>
<path fill="none" stroke="#191970" d="M400.0331,-118.8813C376.6482,-107.2832 344.16,-91.1701 323.7389,-81.0419"/>
<polygon fill="#191970" stroke="#191970" points="398.6112,-122.0829 409.125,-123.3906 401.7215,-115.8118 398.6112,-122.0829"/>
</g>
<!-- Node198&#45;&gt;Node54 -->
<g id="edge46" class="edge">
<title>Node198&#45;&gt;Node54</title>
<path fill="none" stroke="#191970" d="M440.2614,-114.9169C447.424,-103.9043 456.2951,-90.265 462.1619,-81.2449"/>
<polygon fill="#191970" stroke="#191970" points="437.2683,-113.0994 434.75,-123.3906 443.1363,-116.916 437.2683,-113.0994"/>
</g>
<!-- Node198&#45;&gt;Node156 -->
<g id="edge47" class="edge">
<title>Node198&#45;&gt;Node156</title>
<path fill="none" stroke="#191970" d="M393.0751,-128.3484C336.9633,-120.8011 224.2824,-104.9151 129.5,-87 120.2107,-85.2442 110.267,-83.1423 100.9032,-81.0614"/>
<polygon fill="#191970" stroke="#191970" points="392.8237,-131.8459 403.1994,-129.7021 393.7514,-124.9076 392.8237,-131.8459"/>
</g>
<!-- Node204&#45;&gt;Node56 -->
<g id="edge56" class="edge">
<title>Node204&#45;&gt;Node56</title>
<path fill="none" stroke="#191970" d="M3975.0558,-128.4903C4054.4114,-121.6649 4204.6564,-107.318 4331.5,-87 4341.8686,-85.3391 4352.9834,-83.2026 4363.3655,-81.05"/>
<polygon fill="#191970" stroke="#191970" points="3974.4709,-125.0273 3964.8043,-129.364 3975.0654,-132.0021 3974.4709,-125.0273"/>
</g>
</g>
</svg>
