<?xml version="1.0" encoding="UTF-8" standalone="no"?>
<!DOCTYPE svg PUBLIC "-//W3C//DTD SVG 1.1//EN"
 "http://www.w3.org/Graphics/SVG/1.1/DTD/svg11.dtd">
<!-- Generated by graphviz version 2.40.1 (20161225.0304)
 -->
<!-- Title: BerdySparseMAPSolver.h Pages: 1 -->
<svg width="712pt" height="196pt"
 viewBox="0.00 0.00 712.00 196.00" xmlns="http://www.w3.org/2000/svg" xmlns:xlink="http://www.w3.org/1999/xlink">
<g id="graph0" class="graph" transform="scale(1 1) rotate(0) translate(4 192)">
<title>BerdySparseMAPSolver.h</title>
<!-- Node0 -->
<g id="node1" class="node">
<title>Node0</title>
<polygon fill="#bfbfbf" stroke="#000000" points="186.5,-168.5 186.5,-187.5 324.5,-187.5 324.5,-168.5 186.5,-168.5"/>
<text text-anchor="middle" x="255.5" y="-175.5" font-family="FreeSans.ttf" font-size="10.00" fill="#000000">BerdySparseMAPSolver.h</text>
</g>
<!-- Node1 -->
<g id="node2" class="node">
<title>Node1</title>
<g id="a_node2"><a xlink:href="Utils_8h.html" target="_top" xlink:title="iDynTree/Core/Utils.h">
<polygon fill="none" stroke="#000000" points="0,-56.5 0,-75.5 119,-75.5 119,-56.5 0,-56.5"/>
<text text-anchor="middle" x="59.5" y="-63.5" font-family="FreeSans.ttf" font-size="10.00" fill="#000000">iDynTree/Core/Utils.h</text>
</a>
</g>
</g>
<!-- Node0&#45;&gt;Node1 -->
<g id="edge1" class="edge">
<title>Node0&#45;&gt;Node1</title>
<path fill="none" stroke="#191970" d="M235.5825,-168.4217C217.1743,-159.4282 189.1749,-145.3892 165.5,-132 136.4058,-115.546 103.9068,-94.9709 82.6579,-81.2074"/>
<polygon fill="#191970" stroke="#191970" points="84.3016,-78.1012 74.0111,-75.58 80.4834,-83.9682 84.3016,-78.1012"/>
</g>
<!-- Node3 -->
<g id="node4" class="node">
<title>Node3</title>
<g id="a_node4"><a xlink:href="VectorFixSize_8h.html" target="_top" xlink:title="iDynTree/Core/VectorFixSize.h">
<polygon fill="none" stroke="#000000" points="175,-112.5 175,-131.5 336,-131.5 336,-112.5 175,-112.5"/>
<text text-anchor="middle" x="255.5" y="-119.5" font-family="FreeSans.ttf" font-size="10.00" fill="#000000">iDynTree/Core/VectorFixSize.h</text>
</a>
</g>
</g>
<!-- Node0&#45;&gt;Node3 -->
<g id="edge3" class="edge">
<title>Node0&#45;&gt;Node3</title>
<path fill="none" stroke="#191970" d="M255.5,-168.2455C255.5,-160.9382 255.5,-150.6944 255.5,-141.7046"/>
<polygon fill="#191970" stroke="#191970" points="259.0001,-141.6426 255.5,-131.6427 252.0001,-141.6427 259.0001,-141.6426"/>
</g>
<!-- Node16 -->
<g id="node17" class="node">
<title>Node16</title>
<g id="a_node17"><a xlink:href="Indices_8h.html" target="_top" xlink:title="iDynTree/Model/Indices.h">
<polygon fill="none" stroke="#000000" points="391.5,-112.5 391.5,-131.5 529.5,-131.5 529.5,-112.5 391.5,-112.5"/>
<text text-anchor="middle" x="460.5" y="-119.5" font-family="FreeSans.ttf" font-size="10.00" fill="#000000">iDynTree/Model/Indices.h</text>
</a>
</g>
</g>
<!-- Node0&#45;&gt;Node16 -->
<g id="edge19" class="edge">
<title>Node0&#45;&gt;Node16</title>
<path fill="none" stroke="#191970" d="M290.7408,-168.3733C325.4194,-158.9001 378.4883,-144.4032 416.0462,-134.1435"/>
<polygon fill="#191970" stroke="#191970" points="416.9949,-137.5126 425.7191,-131.5011 415.1502,-130.7601 416.9949,-137.5126"/>
</g>
<!-- Node2 -->
<g id="node3" class="node">
<title>Node2</title>
<polygon fill="none" stroke="#bfbfbf" points="52,-.5 52,-19.5 105,-19.5 105,-.5 52,-.5"/>
<text text-anchor="middle" x="78.5" y="-7.5" font-family="FreeSans.ttf" font-size="10.00" fill="#000000">cstddef</text>
</g>
<!-- Node1&#45;&gt;Node2 -->
<g id="edge2" class="edge">
<title>Node1&#45;&gt;Node2</title>
<path fill="none" stroke="#191970" d="M62.8095,-56.2455C65.3433,-48.7776 68.9177,-38.2427 72.015,-29.1137"/>
<polygon fill="#191970" stroke="#191970" points="75.3298,-30.237 75.2284,-19.6427 68.7009,-27.9879 75.3298,-30.237"/>
</g>
<!-- Node3&#45;&gt;Node1 -->
<g id="edge4" class="edge">
<title>Node3&#45;&gt;Node1</title>
<path fill="none" stroke="#191970" d="M221.8064,-112.3733C188.7913,-102.9404 138.3427,-88.5265 102.4614,-78.2747"/>
<polygon fill="#191970" stroke="#191970" points="103.3307,-74.8831 92.7539,-75.5011 101.4076,-81.6137 103.3307,-74.8831"/>
</g>
<!-- Node4 -->
<g id="node5" class="node">
<title>Node4</title>
<g id="a_node5"><a xlink:href="Span_8h.html" target="_top" xlink:title="iDynTree/Core/Span.h">
<polygon fill="none" stroke="#000000" points="318,-56.5 318,-75.5 439,-75.5 439,-56.5 318,-56.5"/>
<text text-anchor="middle" x="378.5" y="-63.5" font-family="FreeSans.ttf" font-size="10.00" fill="#000000">iDynTree/Core/Span.h</text>
</a>
</g>
</g>
<!-- Node3&#45;&gt;Node4 -->
<g id="edge5" class="edge">
<title>Node3&#45;&gt;Node4</title>
<path fill="none" stroke="#191970" d="M276.6445,-112.3733C296.3892,-103.3838 326.0698,-89.8706 348.3055,-79.7471"/>
<polygon fill="#191970" stroke="#191970" points="349.9806,-82.8302 357.6315,-75.5011 347.08,-76.4594 349.9806,-82.8302"/>
</g>
<!-- Node5 -->
<g id="node6" class="node">
<title>Node5</title>
<polygon fill="none" stroke="#bfbfbf" points="141.5,-.5 141.5,-19.5 193.5,-19.5 193.5,-.5 141.5,-.5"/>
<text text-anchor="middle" x="167.5" y="-7.5" font-family="FreeSans.ttf" font-size="10.00" fill="#000000">cassert</text>
</g>
<!-- Node3&#45;&gt;Node5 -->
<g id="edge17" class="edge">
<title>Node3&#45;&gt;Node5</title>
<path fill="none" stroke="#191970" d="M261.9988,-112.2397C270.1838,-98.6017 281.8816,-73.5481 270.5,-56 262.704,-43.9801 230.1759,-30.6743 203.7319,-21.4785"/>
<polygon fill="#191970" stroke="#191970" points="204.5534,-18.0614 193.9591,-18.1666 202.3066,-24.6911 204.5534,-18.0614"/>
</g>
<!-- Node13 -->
<g id="node14" class="node">
<title>Node13</title>
<polygon fill="none" stroke="#bfbfbf" points="457.5,-56.5 457.5,-75.5 501.5,-75.5 501.5,-56.5 457.5,-56.5"/>
<text text-anchor="middle" x="479.5" y="-63.5" font-family="FreeSans.ttf" font-size="10.00" fill="#000000">string</text>
</g>
<!-- Node3&#45;&gt;Node13 -->
<g id="edge15" class="edge">
<title>Node3&#45;&gt;Node13</title>
<path fill="none" stroke="#191970" d="M299.8276,-112.4682C336.9615,-104.2516 391.5425,-91.6377 447.4913,-76.1381"/>
<polygon fill="#191970" stroke="#191970" points="448.5243,-79.4835 457.212,-73.4194 446.6389,-72.7422 448.5243,-79.4835"/>
</g>
<!-- Node14 -->
<g id="node15" class="node">
<title>Node14</title>
<polygon fill="none" stroke="#bfbfbf" points="137.5,-56.5 137.5,-75.5 193.5,-75.5 193.5,-56.5 137.5,-56.5"/>
<text text-anchor="middle" x="165.5" y="-63.5" font-family="FreeSans.ttf" font-size="10.00" fill="#000000">sstream</text>
</g>
<!-- Node3&#45;&gt;Node14 -->
<g id="edge16" class="edge">
<title>Node3&#45;&gt;Node14</title>
<path fill="none" stroke="#191970" d="M239.8232,-112.2455C226.0144,-103.6534 205.6807,-91.0014 189.7708,-81.1018"/>
<polygon fill="#191970" stroke="#191970" points="191.3368,-77.954 180.9972,-75.6427 187.6387,-83.8974 191.3368,-77.954"/>
</g>
<!-- Node15 -->
<g id="node16" class="node">
<title>Node15</title>
<polygon fill="none" stroke="#bfbfbf" points="211.5,-56.5 211.5,-75.5 261.5,-75.5 261.5,-56.5 211.5,-56.5"/>
<text text-anchor="middle" x="236.5" y="-63.5" font-family="FreeSans.ttf" font-size="10.00" fill="#000000">cstring</text>
</g>
<!-- Node3&#45;&gt;Node15 -->
<g id="edge18" class="edge">
<title>Node3&#45;&gt;Node15</title>
<path fill="none" stroke="#191970" d="M252.1905,-112.2455C249.6567,-104.7776 246.0823,-94.2427 242.985,-85.1137"/>
<polygon fill="#191970" stroke="#191970" points="246.2991,-83.9879 239.7716,-75.6427 239.6702,-86.237 246.2991,-83.9879"/>
</g>
<!-- Node4&#45;&gt;Node2 -->
<g id="edge9" class="edge">
<title>Node4&#45;&gt;Node2</title>
<path fill="none" stroke="#191970" d="M327.269,-56.4369C267.0228,-45.1909 168.5102,-26.8019 115.3281,-16.8746"/>
<polygon fill="#191970" stroke="#191970" points="115.7934,-13.401 105.3209,-15.0066 114.5088,-20.2822 115.7934,-13.401"/>
</g>
<!-- Node4&#45;&gt;Node5 -->
<g id="edge6" class="edge">
<title>Node4&#45;&gt;Node5</title>
<path fill="none" stroke="#191970" d="M341.011,-56.464C307.4252,-47.8625 256.572,-34.6958 203.7396,-20.3006"/>
<polygon fill="#191970" stroke="#191970" points="204.4243,-16.8594 193.8554,-17.5992 202.5789,-23.6118 204.4243,-16.8594"/>
</g>
<!-- Node6 -->
<g id="node7" class="node">
<title>Node6</title>
<polygon fill="none" stroke="#bfbfbf" points="275.5,-.5 275.5,-19.5 339.5,-19.5 339.5,-.5 275.5,-.5"/>
<text text-anchor="middle" x="307.5" y="-7.5" font-family="FreeSans.ttf" font-size="10.00" fill="#000000">algorithm</text>
</g>
<!-- Node4&#45;&gt;Node6 -->
<g id="edge7" class="edge">
<title>Node4&#45;&gt;Node6</title>
<path fill="none" stroke="#191970" d="M366.1327,-56.2455C355.5446,-47.8943 340.0936,-35.7076 327.7107,-25.9408"/>
<polygon fill="#191970" stroke="#191970" points="329.7447,-23.0875 319.7255,-19.6427 325.4097,-28.5837 329.7447,-23.0875"/>
</g>
<!-- Node7 -->
<g id="node8" class="node">
<title>Node7</title>
<polygon fill="none" stroke="#bfbfbf" points="357.5,-.5 357.5,-19.5 399.5,-19.5 399.5,-.5 357.5,-.5"/>
<text text-anchor="middle" x="378.5" y="-7.5" font-family="FreeSans.ttf" font-size="10.00" fill="#000000">array</text>
</g>
<!-- Node4&#45;&gt;Node7 -->
<g id="edge8" class="edge">
<title>Node4&#45;&gt;Node7</title>
<path fill="none" stroke="#191970" d="M378.5,-56.2455C378.5,-48.9382 378.5,-38.6944 378.5,-29.7046"/>
<polygon fill="#191970" stroke="#191970" points="382.0001,-29.6426 378.5,-19.6427 375.0001,-29.6427 382.0001,-29.6426"/>
</g>
<!-- Node8 -->
<g id="node9" class="node">
<title>Node8</title>
<polygon fill="none" stroke="#bfbfbf" points="418,-.5 418,-19.5 471,-19.5 471,-.5 418,-.5"/>
<text text-anchor="middle" x="444.5" y="-7.5" font-family="FreeSans.ttf" font-size="10.00" fill="#000000">iterator</text>
</g>
<!-- Node4&#45;&gt;Node8 -->
<g id="edge10" class="edge">
<title>Node4&#45;&gt;Node8</title>
<path fill="none" stroke="#191970" d="M389.9963,-56.2455C399.7442,-47.9746 413.9259,-35.9416 425.3798,-26.2232"/>
<polygon fill="#191970" stroke="#191970" points="427.7747,-28.7813 433.1354,-19.6427 423.2459,-23.4437 427.7747,-28.7813"/>
</g>
<!-- Node9 -->
<g id="node10" class="node">
<title>Node9</title>
<polygon fill="none" stroke="#bfbfbf" points="489.5,-.5 489.5,-19.5 533.5,-19.5 533.5,-.5 489.5,-.5"/>
<text text-anchor="middle" x="511.5" y="-7.5" font-family="FreeSans.ttf" font-size="10.00" fill="#000000">limits</text>
</g>
<!-- Node4&#45;&gt;Node9 -->
<g id="edge11" class="edge">
<title>Node4&#45;&gt;Node9</title>
<path fill="none" stroke="#191970" d="M401.3635,-56.3733C423.0355,-47.2482 455.7779,-33.462 479.9331,-23.2913"/>
<polygon fill="#191970" stroke="#191970" points="481.5186,-26.4214 489.3768,-19.315 478.8022,-19.9699 481.5186,-26.4214"/>
</g>
<!-- Node10 -->
<g id="node11" class="node">
<title>Node10</title>
<polygon fill="none" stroke="#bfbfbf" points="552,-.5 552,-19.5 617,-19.5 617,-.5 552,-.5"/>
<text text-anchor="middle" x="584.5" y="-7.5" font-family="FreeSans.ttf" font-size="10.00" fill="#000000">stdexcept</text>
</g>
<!-- Node4&#45;&gt;Node10 -->
<g id="edge12" class="edge">
<title>Node4&#45;&gt;Node10</title>
<path fill="none" stroke="#191970" d="M413.9127,-56.3733C449.4997,-46.6991 504.3589,-31.7859 542.2097,-21.4964"/>
<polygon fill="#191970" stroke="#191970" points="543.1919,-24.8565 551.9235,-18.8557 541.3556,-18.1016 543.1919,-24.8565"/>
</g>
<!-- Node11 -->
<g id="node12" class="node">
<title>Node11</title>
<polygon fill="none" stroke="#bfbfbf" points="635,-.5 635,-19.5 704,-19.5 704,-.5 635,-.5"/>
<text text-anchor="middle" x="669.5" y="-7.5" font-family="FreeSans.ttf" font-size="10.00" fill="#000000">type_traits</text>
</g>
<!-- Node4&#45;&gt;Node11 -->
<g id="edge13" class="edge">
<title>Node4&#45;&gt;Node11</title>
<path fill="none" stroke="#191970" d="M433.7999,-56.4792C481.8897,-48.0329 553.6826,-35.0243 624.7721,-20.3008"/>
<polygon fill="#191970" stroke="#191970" points="625.7202,-23.6786 634.7959,-18.2122 624.2922,-16.8257 625.7202,-23.6786"/>
</g>
<!-- Node12 -->
<g id="node13" class="node">
<title>Node12</title>
<polygon fill="none" stroke="#bfbfbf" points="212,-.5 212,-19.5 257,-19.5 257,-.5 212,-.5"/>
<text text-anchor="middle" x="234.5" y="-7.5" font-family="FreeSans.ttf" font-size="10.00" fill="#000000">utility</text>
</g>
<!-- Node4&#45;&gt;Node12 -->
<g id="edge14" class="edge">
<title>Node4&#45;&gt;Node12</title>
<path fill="none" stroke="#191970" d="M353.7455,-56.3733C329.6447,-47.0007 292.899,-32.7107 266.5707,-22.472"/>
<polygon fill="#191970" stroke="#191970" points="267.627,-19.1274 257.0383,-18.7649 265.0898,-25.6514 267.627,-19.1274"/>
</g>
<!-- Node16&#45;&gt;Node13 -->
<g id="edge20" class="edge">
<title>Node16&#45;&gt;Node13</title>
<path fill="none" stroke="#191970" d="M463.8095,-112.2455C466.3433,-104.7776 469.9177,-94.2427 473.015,-85.1137"/>
<polygon fill="#191970" stroke="#191970" points="476.3298,-86.237 476.2284,-75.6427 469.7009,-83.9879 476.3298,-86.237"/>
</g>
</g>
</svg>
