<?xml version="1.0" encoding="UTF-8" standalone="no"?>
<!DOCTYPE svg PUBLIC "-//W3C//DTD SVG 1.1//EN"
 "http://www.w3.org/Graphics/SVG/1.1/DTD/svg11.dtd">
<!-- Generated by graphviz version 2.40.1 (20161225.0304)
 -->
<!-- Title: iDynTree::TransformSemantics Pages: 1 -->
<svg width="338pt" height="95pt"
 viewBox="0.00 0.00 338.00 95.00" xmlns="http://www.w3.org/2000/svg" xmlns:xlink="http://www.w3.org/1999/xlink">
<g id="graph0" class="graph" transform="scale(1 1) rotate(0) translate(4 91)">
<title>iDynTree::TransformSemantics</title>
<!-- Node1 -->
<g id="node1" class="node">
<title>Node1</title>
<polygon fill="#bfbfbf" stroke="#000000" points="83,-.5 83,-19.5 248,-19.5 248,-.5 83,-.5"/>
<text text-anchor="middle" x="165.5" y="-7.5" font-family="FreeSans.ttf" font-size="10.00" fill="#000000">iDynTree::TransformSemantics</text>
</g>
<!-- Node2 -->
<g id="node2" class="node">
<title>Node2</title>
<g id="a_node2"><a xlink:href="classiDynTree_1_1RotationSemantics.html" target="_top" xlink:title="Class providing the semantics for iDynTree::Rotation class. ">
<polygon fill="none" stroke="#000000" points="0,-67.5 0,-86.5 157,-86.5 157,-67.5 0,-67.5"/>
<text text-anchor="middle" x="78.5" y="-74.5" font-family="FreeSans.ttf" font-size="10.00" fill="#000000">iDynTree::RotationSemantics</text>
</a>
</g>
</g>
<!-- Node2&#45;&gt;Node1 -->
<g id="edge1" class="edge">
<title>Node2&#45;&gt;Node1</title>
<path fill="none" stroke="#9a32cd" stroke-dasharray="5,2" d="M99.0737,-61.1559C115.8458,-48.2395 138.9843,-30.4201 153.0581,-19.5817"/>
<polygon fill="#9a32cd" stroke="#9a32cd" points="96.7523,-58.526 90.965,-67.4005 101.0234,-64.072 96.7523,-58.526"/>
<text text-anchor="middle" x="174" y="-41" font-family="FreeSans.ttf" font-size="10.00" fill="#000000"> rotationSemantics</text>
</g>
<!-- Node3 -->
<g id="node3" class="node">
<title>Node3</title>
<g id="a_node3"><a xlink:href="classiDynTree_1_1PositionSemantics.html" target="_top" xlink:title="Class providing the semantics for iDynTree::Position class. ">
<polygon fill="none" stroke="#000000" points="175,-67.5 175,-86.5 330,-86.5 330,-67.5 175,-67.5"/>
<text text-anchor="middle" x="252.5" y="-74.5" font-family="FreeSans.ttf" font-size="10.00" fill="#000000">iDynTree::PositionSemantics</text>
</a>
</g>
</g>
<!-- Node3&#45;&gt;Node1 -->
<g id="edge2" class="edge">
<title>Node3&#45;&gt;Node1</title>
<path fill="none" stroke="#9a32cd" stroke-dasharray="5,2" d="M241.8954,-58.3291C237.2347,-51.3037 231.2745,-43.6555 224.5,-38 215.187,-30.2253 203.3519,-24.0583 192.73,-19.5132"/>
<polygon fill="#9a32cd" stroke="#9a32cd" points="239.1792,-60.5938 247.3999,-67.2774 245.1415,-56.9261 239.1792,-60.5938"/>
<text text-anchor="middle" x="281.5" y="-41" font-family="FreeSans.ttf" font-size="10.00" fill="#000000"> positionSemantics</text>
</g>
</g>
</svg>
