<?xml version="1.0" encoding="UTF-8" standalone="no"?>
<!DOCTYPE svg PUBLIC "-//W3C//DTD SVG 1.1//EN"
 "http://www.w3.org/Graphics/SVG/1.1/DTD/svg11.dtd">
<!-- Generated by graphviz version 2.40.1 (20161225.0304)
 -->
<!-- Title: iDynTree::SpatialAcc Pages: 1 -->
<svg width="1506pt" height="131pt"
 viewBox="0.00 0.00 1506.00 131.00" xmlns="http://www.w3.org/2000/svg" xmlns:xlink="http://www.w3.org/1999/xlink">
<g id="graph0" class="graph" transform="scale(1 1) rotate(0) translate(4 127)">
<title>iDynTree::SpatialAcc</title>
<!-- Node4 -->
<g id="node1" class="node">
<title>Node4</title>
<polygon fill="#bfbfbf" stroke="#000000" points="1382,-44.5 1382,-63.5 1498,-63.5 1498,-44.5 1382,-44.5"/>
<text text-anchor="middle" x="1440" y="-51.5" font-family="FreeSans.ttf" font-size="10.00" fill="#000000">iDynTree::SpatialAcc</text>
</g>
<!-- Node5 -->
<g id="node2" class="node">
<title>Node5</title>
<g id="a_node2"><a xlink:href="classiDynTree_1_1SpatialMotionVector.html" target="_top" xlink:title="Class providing the raw coordinates for any motion spatial vector (i.e. ">
<polygon fill="none" stroke="#000000" points="1182,-44.5 1182,-63.5 1345,-63.5 1345,-44.5 1182,-44.5"/>
<text text-anchor="middle" x="1263.5" y="-51.5" font-family="FreeSans.ttf" font-size="10.00" fill="#000000">iDynTree::SpatialMotionVector</text>
</a>
</g>
</g>
<!-- Node5&#45;&gt;Node4 -->
<g id="edge1" class="edge">
<title>Node5&#45;&gt;Node4</title>
<path fill="none" stroke="#191970" d="M1355.2785,-54C1364.3519,-54 1373.3754,-54 1381.9647,-54"/>
<polygon fill="#191970" stroke="#191970" points="1355.0336,-50.5001 1345.0336,-54 1355.0336,-57.5001 1355.0336,-50.5001"/>
</g>
<!-- Node6 -->
<g id="node3" class="node">
<title>Node6</title>
<g id="a_node3"><a xlink:href="classiDynTree_1_1SpatialVector.html" target="_top" xlink:title="iDynTree::SpatialVector\l\&lt; SpatialMotionVector \&gt;">
<polygon fill="none" stroke="#000000" points="1008,-39 1008,-69 1145,-69 1145,-39 1008,-39"/>
<text text-anchor="start" x="1016" y="-57" font-family="FreeSans.ttf" font-size="10.00" fill="#000000">iDynTree::SpatialVector</text>
<text text-anchor="middle" x="1076.5" y="-46" font-family="FreeSans.ttf" font-size="10.00" fill="#000000">&lt; SpatialMotionVector &gt;</text>
</a>
</g>
</g>
<!-- Node6&#45;&gt;Node5 -->
<g id="edge2" class="edge">
<title>Node6&#45;&gt;Node5</title>
<path fill="none" stroke="#191970" d="M1155.305,-54C1164.1099,-54 1173.0931,-54 1181.9317,-54"/>
<polygon fill="#191970" stroke="#191970" points="1155.0701,-50.5001 1145.0701,-54 1155.07,-57.5001 1155.0701,-50.5001"/>
</g>
<!-- Node7 -->
<g id="node4" class="node">
<title>Node7</title>
<g id="a_node4"><a xlink:href="classiDynTree_1_1SpatialMotionForceVectorT__traits.html" target="_top" xlink:title="iDynTree::SpatialMotionForce\lVectorT_traits\&lt; DerivedSpatialVecT \&gt;">
<polygon fill="none" stroke="#000000" points="408.5,-6 408.5,-36 610.5,-36 610.5,-6 408.5,-6"/>
<text text-anchor="start" x="416.5" y="-24" font-family="FreeSans.ttf" font-size="10.00" fill="#000000">iDynTree::SpatialMotionForce</text>
<text text-anchor="middle" x="509.5" y="-13" font-family="FreeSans.ttf" font-size="10.00" fill="#000000">VectorT_traits&lt; DerivedSpatialVecT &gt;</text>
</a>
</g>
</g>
<!-- Node7&#45;&gt;Node6 -->
<g id="edge3" class="edge">
<title>Node7&#45;&gt;Node6</title>
<path fill="none" stroke="#9a32cd" stroke-dasharray="5,2" d="M620.8472,-15.9371C652.2572,-14.7237 686.4628,-13.6048 718,-13 775.7672,-11.8922 790.4497,-7.8777 848,-13 903.1994,-17.913 965.0217,-29.3763 1010.4282,-38.9361"/>
<polygon fill="#9a32cd" stroke="#9a32cd" points="620.6091,-12.4436 610.7543,-16.3338 620.8841,-19.4382 620.6091,-12.4436"/>
<text text-anchor="middle" x="783" y="-27" font-family="FreeSans.ttf" font-size="10.00" fill="#000000"> linearVec3</text>
<text text-anchor="middle" x="783" y="-16" font-family="FreeSans.ttf" font-size="10.00" fill="#000000">angularVec3</text>
</g>
<!-- Node11 -->
<g id="node8" class="node">
<title>Node11</title>
<g id="a_node8"><a xlink:href="classiDynTree_1_1SpatialVector.html" target="_top" xlink:title="iDynTree::SpatialVector">
<polygon fill="none" stroke="#000000" points="718,-44.5 718,-63.5 848,-63.5 848,-44.5 718,-44.5"/>
<text text-anchor="middle" x="783" y="-51.5" font-family="FreeSans.ttf" font-size="10.00" fill="#000000">iDynTree::SpatialVector</text>
</a>
</g>
</g>
<!-- Node7&#45;&gt;Node11 -->
<g id="edge8" class="edge">
<title>Node7&#45;&gt;Node11</title>
<path fill="none" stroke="#9a32cd" stroke-dasharray="5,2" d="M620.9677,-25.4485C646.9957,-27.3601 674.5448,-30.093 700,-34 716.2622,-36.496 734.0263,-40.5876 748.9325,-44.4218"/>
<polygon fill="#9a32cd" stroke="#9a32cd" points="620.9113,-21.9361 610.6915,-24.7298 620.4229,-28.9191 620.9113,-21.9361"/>
<text text-anchor="middle" x="669.5" y="-48" font-family="FreeSans.ttf" font-size="10.00" fill="#000000"> linearVec3</text>
<text text-anchor="middle" x="669.5" y="-37" font-family="FreeSans.ttf" font-size="10.00" fill="#000000">angularVec3</text>
</g>
<!-- Node8 -->
<g id="node5" class="node">
<title>Node8</title>
<g id="a_node5"><a xlink:href="classiDynTree_1_1SpatialMotionForceVectorT__traits.html" target="_top" xlink:title="Traits class for SpatialMotionVector and SpatialForceVector classes. ">
<polygon fill="none" stroke="#000000" points="0,-.5 0,-41.5 188,-41.5 188,-.5 0,-.5"/>
<text text-anchor="start" x="8" y="-29.5" font-family="FreeSans.ttf" font-size="10.00" fill="#000000">iDynTree::SpatialMotionForce</text>
<text text-anchor="start" x="8" y="-18.5" font-family="FreeSans.ttf" font-size="10.00" fill="#000000">VectorT_traits&lt; SpatialMotionForce</text>
<text text-anchor="middle" x="94" y="-7.5" font-family="FreeSans.ttf" font-size="10.00" fill="#000000">VectorT &gt;</text>
</a>
</g>
</g>
<!-- Node8&#45;&gt;Node7 -->
<g id="edge4" class="edge">
<title>Node8&#45;&gt;Node7</title>
<path fill="none" stroke="#ffa500" stroke-dasharray="5,2" d="M198.1801,-21C262.4471,-21 344.4826,-21 408.2071,-21"/>
<polygon fill="#ffa500" stroke="#ffa500" points="198.0238,-17.5001 188.0238,-21 198.0237,-24.5001 198.0238,-17.5001"/>
<text text-anchor="middle" x="293" y="-24" font-family="FreeSans.ttf" font-size="10.00" fill="#000000"> &lt; DerivedSpatialVecT &gt;</text>
</g>
<!-- Node9 -->
<g id="node6" class="node">
<title>Node9</title>
<g id="a_node6"><a xlink:href="classiDynTree_1_1SpatialVectorSemantics.html" target="_top" xlink:title="iDynTree::SpatialVectorSemantics\l\&lt; typename LinearVector3T::\lSemanticsType, typename AngularVector3\lT::SemanticsType \&gt;">
<polygon fill="none" stroke="#000000" points="398,-64 398,-116 621,-116 621,-64 398,-64"/>
<text text-anchor="start" x="406" y="-104" font-family="FreeSans.ttf" font-size="10.00" fill="#000000">iDynTree::SpatialVectorSemantics</text>
<text text-anchor="start" x="406" y="-93" font-family="FreeSans.ttf" font-size="10.00" fill="#000000">&lt; typename LinearVector3T::</text>
<text text-anchor="start" x="406" y="-82" font-family="FreeSans.ttf" font-size="10.00" fill="#000000">SemanticsType, typename AngularVector3</text>
<text text-anchor="middle" x="509.5" y="-71" font-family="FreeSans.ttf" font-size="10.00" fill="#000000">T::SemanticsType &gt;</text>
</a>
</g>
</g>
<!-- Node9&#45;&gt;Node6 -->
<g id="edge5" class="edge">
<title>Node9&#45;&gt;Node6</title>
<path fill="none" stroke="#9a32cd" stroke-dasharray="5,2" d="M631.2173,-89.5899C728.5879,-88.0812 868.4545,-83.2671 990,-69 995.7523,-68.3248 1001.7028,-67.5195 1007.6659,-66.6377"/>
<polygon fill="#9a32cd" stroke="#9a32cd" points="630.99,-86.0927 621.042,-89.7379 631.0919,-93.092 630.99,-86.0927"/>
<text text-anchor="middle" x="783" y="-90" font-family="FreeSans.ttf" font-size="10.00" fill="#000000"> semantics</text>
</g>
<!-- Node9&#45;&gt;Node11 -->
<g id="edge9" class="edge">
<title>Node9&#45;&gt;Node11</title>
<path fill="none" stroke="#9a32cd" stroke-dasharray="5,2" d="M631.2273,-73.9774C661.1137,-70.0435 691.9689,-65.9822 717.9899,-62.5571"/>
<polygon fill="#9a32cd" stroke="#9a32cd" points="630.5951,-70.5303 621.1374,-75.3055 631.5087,-77.4705 630.5951,-70.5303"/>
<text text-anchor="middle" x="669.5" y="-75" font-family="FreeSans.ttf" font-size="10.00" fill="#000000"> semantics</text>
</g>
<!-- Node10 -->
<g id="node7" class="node">
<title>Node10</title>
<g id="a_node7"><a xlink:href="classiDynTree_1_1SpatialVectorSemantics.html" target="_top" xlink:title="iDynTree::SpatialVectorSemantics">
<polygon fill="none" stroke="#000000" points="3.5,-80.5 3.5,-99.5 184.5,-99.5 184.5,-80.5 3.5,-80.5"/>
<text text-anchor="middle" x="94" y="-87.5" font-family="FreeSans.ttf" font-size="10.00" fill="#000000">iDynTree::SpatialVectorSemantics</text>
</a>
</g>
</g>
<!-- Node10&#45;&gt;Node9 -->
<g id="edge6" class="edge">
<title>Node10&#45;&gt;Node9</title>
<path fill="none" stroke="#ffa500" stroke-dasharray="5,2" d="M194.7566,-90C256.1403,-90 334.6639,-90 397.9226,-90"/>
<polygon fill="#ffa500" stroke="#ffa500" points="194.6698,-86.5001 184.6698,-90 194.6698,-93.5001 194.6698,-86.5001"/>
<text text-anchor="start" x="206" y="-115" font-family="FreeSans.ttf" font-size="10.00" fill="#000000"> &lt; typename LinearVector3</text>
<text text-anchor="start" x="206" y="-104" font-family="FreeSans.ttf" font-size="10.00" fill="#000000">T::SemanticsType, typename</text>
<text text-anchor="middle" x="293" y="-93" font-family="FreeSans.ttf" font-size="10.00" fill="#000000"> AngularVector3T::SemanticsType &gt;</text>
</g>
<!-- Node11&#45;&gt;Node6 -->
<g id="edge7" class="edge">
<title>Node11&#45;&gt;Node6</title>
<path fill="none" stroke="#ffa500" stroke-dasharray="5,2" d="M858.3836,-54C904.5355,-54 963.1352,-54 1007.9709,-54"/>
<polygon fill="#ffa500" stroke="#ffa500" points="858.1372,-50.5001 848.1372,-54 858.1371,-57.5001 858.1372,-50.5001"/>
<text text-anchor="middle" x="928" y="-57" font-family="FreeSans.ttf" font-size="10.00" fill="#000000"> &lt; SpatialMotionVector &gt;</text>
</g>
</g>
</svg>
