<?xml version="1.0" encoding="UTF-8" standalone="no"?>
<!DOCTYPE svg PUBLIC "-//W3C//DTD SVG 1.1//EN"
 "http://www.w3.org/Graphics/SVG/1.1/DTD/svg11.dtd">
<!-- Generated by graphviz version 2.40.1 (20161225.0304)
 -->
<!-- Title: iDynTree::MatrixFixSize&lt; nRows, nCols &gt; Pages: 1 -->
<svg width="510pt" height="382pt"
 viewBox="0.00 0.00 510.00 382.00" xmlns="http://www.w3.org/2000/svg" xmlns:xlink="http://www.w3.org/1999/xlink">
<g id="graph0" class="graph" transform="scale(1 1) rotate(0) translate(4 378)">
<title>iDynTree::MatrixFixSize&lt; nRows, nCols &gt;</title>
<!-- Node0 -->
<g id="node1" class="node">
<title>Node0</title>
<polygon fill="#bfbfbf" stroke="#000000" points="0,-171.5 0,-201.5 130,-201.5 130,-171.5 0,-171.5"/>
<text text-anchor="start" x="8" y="-189.5" font-family="FreeSans.ttf" font-size="10.00" fill="#000000">iDynTree::MatrixFixSize</text>
<text text-anchor="middle" x="65" y="-178.5" font-family="FreeSans.ttf" font-size="10.00" fill="#000000">&lt; nRows, nCols &gt;</text>
</g>
<!-- Node1 -->
<g id="node2" class="node">
<title>Node1</title>
<g id="a_node2"><a xlink:href="classiDynTree_1_1RotationalInertiaRaw.html" target="_top" xlink:title="Class providing the raw coordinates for a 3d inertia matrix. ">
<polygon fill="none" stroke="#000000" points="211.5,-343.5 211.5,-373.5 357.5,-373.5 357.5,-343.5 211.5,-343.5"/>
<text text-anchor="start" x="219.5" y="-361.5" font-family="FreeSans.ttf" font-size="10.00" fill="#000000">iDynTree::RotationalInertia</text>
<text text-anchor="middle" x="284.5" y="-350.5" font-family="FreeSans.ttf" font-size="10.00" fill="#000000">Raw&lt; 3, 3 &gt;</text>
</a>
</g>
</g>
<!-- Node0&#45;&gt;Node1 -->
<g id="edge1" class="edge">
<title>Node0&#45;&gt;Node1</title>
<path fill="none" stroke="#191970" d="M81.3998,-209.7491C105.7234,-242.4959 154.505,-301.8455 210,-334.5 215.7386,-337.8768 222.0099,-340.8401 228.3996,-343.4246"/>
<polygon fill="#191970" stroke="#191970" points="84.2038,-207.6542 75.4776,-201.6456 78.5522,-211.7845 84.2038,-207.6542"/>
</g>
<!-- Node2 -->
<g id="node3" class="node">
<title>Node2</title>
<g id="a_node3"><a xlink:href="classiDynTree_1_1RotationRaw.html" target="_top" xlink:title="Class providing the raw coordinates for iDynTree::Rotation class. ">
<polygon fill="none" stroke="#000000" points="221,-294.5 221,-324.5 348,-324.5 348,-294.5 221,-294.5"/>
<text text-anchor="start" x="229" y="-312.5" font-family="FreeSans.ttf" font-size="10.00" fill="#000000">iDynTree::RotationRaw</text>
<text text-anchor="middle" x="284.5" y="-301.5" font-family="FreeSans.ttf" font-size="10.00" fill="#000000">&lt; 3, 3 &gt;</text>
</a>
</g>
</g>
<!-- Node0&#45;&gt;Node2 -->
<g id="edge2" class="edge">
<title>Node0&#45;&gt;Node2</title>
<path fill="none" stroke="#191970" d="M91.8031,-207.8899C119.9227,-229.5226 166.0611,-262.7824 210,-284.5 217.3383,-288.1271 225.3291,-291.4272 233.2636,-294.3545"/>
<polygon fill="#191970" stroke="#191970" points="93.7209,-204.9477 83.6772,-201.5752 89.4256,-210.475 93.7209,-204.9477"/>
</g>
<!-- Node4 -->
<g id="node5" class="node">
<title>Node4</title>
<g id="a_node5"><a xlink:href="classiDynTree_1_1SpatialForceWrtMotionDerivative.html" target="_top" xlink:title="Class representing the derivative of a spatial force vector with respect to a spatial motion vector...">
<polygon fill="none" stroke="#000000" points="213.5,-245.5 213.5,-275.5 355.5,-275.5 355.5,-245.5 213.5,-245.5"/>
<text text-anchor="start" x="221.5" y="-263.5" font-family="FreeSans.ttf" font-size="10.00" fill="#000000">iDynTree::SpatialForceWrt</text>
<text text-anchor="middle" x="284.5" y="-252.5" font-family="FreeSans.ttf" font-size="10.00" fill="#000000">MotionDerivative&lt; 6, 6 &gt;</text>
</a>
</g>
</g>
<!-- Node0&#45;&gt;Node4 -->
<g id="edge4" class="edge">
<title>Node0&#45;&gt;Node4</title>
<path fill="none" stroke="#191970" d="M119.151,-204.8297C146.4008,-214.0458 179.9461,-225.3793 210,-235.5 219.5678,-238.7219 229.8292,-242.1701 239.5838,-245.4446"/>
<polygon fill="#191970" stroke="#191970" points="120.0089,-201.4251 109.4146,-201.5362 117.7659,-208.056 120.0089,-201.4251"/>
</g>
<!-- Node5 -->
<g id="node6" class="node">
<title>Node5</title>
<g id="a_node6"><a xlink:href="classiDynTree_1_1SpatialMotionWrtMotionDerivative.html" target="_top" xlink:title="Class representing the derivative of a spatial motion vector with respect to another spatial motion v...">
<polygon fill="none" stroke="#000000" points="210,-196.5 210,-226.5 359,-226.5 359,-196.5 210,-196.5"/>
<text text-anchor="start" x="218" y="-214.5" font-family="FreeSans.ttf" font-size="10.00" fill="#000000">iDynTree::SpatialMotionWrt</text>
<text text-anchor="middle" x="284.5" y="-203.5" font-family="FreeSans.ttf" font-size="10.00" fill="#000000">MotionDerivative&lt; 6, 6 &gt;</text>
</a>
</g>
</g>
<!-- Node0&#45;&gt;Node5 -->
<g id="edge5" class="edge">
<title>Node0&#45;&gt;Node5</title>
<path fill="none" stroke="#191970" d="M140.4136,-195.0892C162.8663,-197.6465 187.4512,-200.4466 209.8547,-202.9983"/>
<polygon fill="#191970" stroke="#191970" points="140.5948,-191.5873 130.2629,-193.9331 139.8026,-198.5424 140.5948,-191.5873"/>
</g>
<!-- Node6 -->
<g id="node7" class="node">
<title>Node6</title>
<g id="a_node7"><a xlink:href="classiDynTree_1_1MatrixFixSize.html" target="_top" xlink:title="iDynTree::MatrixFixSize\l\&lt; 2, 3 \&gt;">
<polygon fill="none" stroke="#000000" points="219.5,-147.5 219.5,-177.5 349.5,-177.5 349.5,-147.5 219.5,-147.5"/>
<text text-anchor="start" x="227.5" y="-165.5" font-family="FreeSans.ttf" font-size="10.00" fill="#000000">iDynTree::MatrixFixSize</text>
<text text-anchor="middle" x="284.5" y="-154.5" font-family="FreeSans.ttf" font-size="10.00" fill="#000000">&lt; 2, 3 &gt;</text>
</a>
</g>
</g>
<!-- Node0&#45;&gt;Node6 -->
<g id="edge6" class="edge">
<title>Node0&#45;&gt;Node6</title>
<path fill="none" stroke="#ffa500" stroke-dasharray="5,2" d="M140.3492,-178.2614C166.0879,-175.4471 194.6348,-172.3258 219.4885,-169.6083"/>
<polygon fill="#ffa500" stroke="#ffa500" points="139.8232,-174.7979 130.2629,-179.3642 140.5841,-181.7564 139.8232,-174.7979"/>
<text text-anchor="middle" x="170" y="-180.5" font-family="FreeSans.ttf" font-size="10.00" fill="#000000"> &lt; 2, 3 &gt;</text>
</g>
<!-- Node7 -->
<g id="node8" class="node">
<title>Node7</title>
<g id="a_node8"><a xlink:href="classiDynTree_1_1MatrixFixSize.html" target="_top" xlink:title="iDynTree::MatrixFixSize\l\&lt; 4, 3 \&gt;">
<polygon fill="none" stroke="#000000" points="219.5,-98.5 219.5,-128.5 349.5,-128.5 349.5,-98.5 219.5,-98.5"/>
<text text-anchor="start" x="227.5" y="-116.5" font-family="FreeSans.ttf" font-size="10.00" fill="#000000">iDynTree::MatrixFixSize</text>
<text text-anchor="middle" x="284.5" y="-105.5" font-family="FreeSans.ttf" font-size="10.00" fill="#000000">&lt; 4, 3 &gt;</text>
</a>
</g>
</g>
<!-- Node0&#45;&gt;Node7 -->
<g id="edge7" class="edge">
<title>Node0&#45;&gt;Node7</title>
<path fill="none" stroke="#ffa500" stroke-dasharray="5,2" d="M118.7945,-168.1181C146.0856,-158.8442 179.773,-147.4755 210,-137.5 218.9038,-134.5616 228.4201,-131.4636 237.5719,-128.5056"/>
<polygon fill="#ffa500" stroke="#ffa500" points="117.3877,-164.8996 109.0475,-171.4335 119.642,-171.5267 117.3877,-164.8996"/>
<text text-anchor="middle" x="170" y="-160.5" font-family="FreeSans.ttf" font-size="10.00" fill="#000000"> &lt; 4, 3 &gt;</text>
</g>
<!-- Node8 -->
<g id="node9" class="node">
<title>Node8</title>
<g id="a_node9"><a xlink:href="classiDynTree_1_1MatrixFixSize.html" target="_top" xlink:title="iDynTree::MatrixFixSize\l\&lt; 3, 4 \&gt;">
<polygon fill="none" stroke="#000000" points="219.5,-49.5 219.5,-79.5 349.5,-79.5 349.5,-49.5 219.5,-49.5"/>
<text text-anchor="start" x="227.5" y="-67.5" font-family="FreeSans.ttf" font-size="10.00" fill="#000000">iDynTree::MatrixFixSize</text>
<text text-anchor="middle" x="284.5" y="-56.5" font-family="FreeSans.ttf" font-size="10.00" fill="#000000">&lt; 3, 4 &gt;</text>
</a>
</g>
</g>
<!-- Node0&#45;&gt;Node8 -->
<g id="edge8" class="edge">
<title>Node0&#45;&gt;Node8</title>
<path fill="none" stroke="#ffa500" stroke-dasharray="5,2" d="M91.7053,-164.9095C119.7465,-143.1159 165.8229,-109.7289 210,-88.5 216.8588,-85.2041 224.2818,-82.2017 231.694,-79.5221"/>
<polygon fill="#ffa500" stroke="#ffa500" points="89.305,-162.3443 83.604,-171.2746 93.6296,-167.8487 89.305,-162.3443"/>
<text text-anchor="middle" x="170" y="-125.5" font-family="FreeSans.ttf" font-size="10.00" fill="#000000"> &lt; 3, 4 &gt;</text>
</g>
<!-- Node9 -->
<g id="node10" class="node">
<title>Node9</title>
<g id="a_node10"><a xlink:href="classiDynTree_1_1MatrixFixSize.html" target="_top" xlink:title="iDynTree::MatrixFixSize\l\&lt; 3, 3 \&gt;">
<polygon fill="none" stroke="#000000" points="219.5,-.5 219.5,-30.5 349.5,-30.5 349.5,-.5 219.5,-.5"/>
<text text-anchor="start" x="227.5" y="-18.5" font-family="FreeSans.ttf" font-size="10.00" fill="#000000">iDynTree::MatrixFixSize</text>
<text text-anchor="middle" x="284.5" y="-7.5" font-family="FreeSans.ttf" font-size="10.00" fill="#000000">&lt; 3, 3 &gt;</text>
</a>
</g>
</g>
<!-- Node0&#45;&gt;Node9 -->
<g id="edge9" class="edge">
<title>Node0&#45;&gt;Node9</title>
<path fill="none" stroke="#ffa500" stroke-dasharray="5,2" d="M80.5688,-163.0041C104.1942,-129.4639 152.489,-68.695 210,-39.5 216.543,-36.1785 223.6406,-33.1903 230.7676,-30.5427"/>
<polygon fill="#ffa500" stroke="#ffa500" points="77.641,-161.0843 74.8372,-171.3014 83.4005,-165.0628 77.641,-161.0843"/>
<text text-anchor="middle" x="170" y="-85.5" font-family="FreeSans.ttf" font-size="10.00" fill="#000000"> &lt; 3, 3 &gt;</text>
</g>
<!-- Node3 -->
<g id="node4" class="node">
<title>Node3</title>
<g id="a_node4"><a xlink:href="classiDynTree_1_1Rotation.html" target="_top" xlink:title="Class representation the rotation of an orientation frame with respect to a reference orientation fra...">
<polygon fill="none" stroke="#000000" points="396,-300 396,-319 502,-319 502,-300 396,-300"/>
<text text-anchor="middle" x="449" y="-307" font-family="FreeSans.ttf" font-size="10.00" fill="#000000">iDynTree::Rotation</text>
</a>
</g>
</g>
<!-- Node2&#45;&gt;Node3 -->
<g id="edge3" class="edge">
<title>Node2&#45;&gt;Node3</title>
<path fill="none" stroke="#191970" d="M358.2184,-309.5C370.9382,-309.5 383.9331,-309.5 395.9686,-309.5"/>
<polygon fill="#191970" stroke="#191970" points="358.1,-306.0001 348.1,-309.5 358.1,-313.0001 358.1,-306.0001"/>
</g>
</g>
</svg>
