<?xml version="1.0" encoding="UTF-8" standalone="no"?>
<!DOCTYPE svg PUBLIC "-//W3C//DTD SVG 1.1//EN"
 "http://www.w3.org/Graphics/SVG/1.1/DTD/svg11.dtd">
<!-- Generated by graphviz version 2.40.1 (20161225.0304)
 -->
<!-- Title: iDynTree::SensorHelper Pages: 1 -->
<svg width="345pt" height="137pt"
 viewBox="0.00 0.00 345.00 137.00" xmlns="http://www.w3.org/2000/svg" xmlns:xlink="http://www.w3.org/1999/xlink">
<g id="graph0" class="graph" transform="scale(1 1) rotate(0) translate(4 133)">
<title>iDynTree::SensorHelper</title>
<!-- Node0 -->
<g id="node1" class="node">
<title>Node0</title>
<polygon fill="#bfbfbf" stroke="#000000" points="0,-55 0,-74 131,-74 131,-55 0,-55"/>
<text text-anchor="middle" x="65.5" y="-62" font-family="FreeSans.ttf" font-size="10.00" fill="#000000">iDynTree::SensorHelper</text>
</g>
<!-- Node1 -->
<g id="node2" class="node">
<title>Node1</title>
<g id="a_node2"><a xlink:href="classiDynTree_1_1AccelerometerSensorHelper.html" target="_top" xlink:title="iDynTree::AccelerometerSensor\lHelper">
<polygon fill="none" stroke="#000000" points="167,-98.5 167,-128.5 337,-128.5 337,-98.5 167,-98.5"/>
<text text-anchor="start" x="175" y="-116.5" font-family="FreeSans.ttf" font-size="10.00" fill="#000000">iDynTree::AccelerometerSensor</text>
<text text-anchor="middle" x="252" y="-105.5" font-family="FreeSans.ttf" font-size="10.00" fill="#000000">Helper</text>
</a>
</g>
</g>
<!-- Node0&#45;&gt;Node1 -->
<g id="edge1" class="edge">
<title>Node0&#45;&gt;Node1</title>
<path fill="none" stroke="#191970" d="M111.895,-76.6896C136.9822,-83.2808 168.1823,-91.4782 194.7675,-98.463"/>
<polygon fill="#191970" stroke="#191970" points="112.463,-73.2201 101.9018,-74.064 110.6842,-79.9903 112.463,-73.2201"/>
</g>
<!-- Node2 -->
<g id="node3" class="node">
<title>Node2</title>
<g id="a_node3"><a xlink:href="classiDynTree_1_1ForceTorqueSensorHelper.html" target="_top" xlink:title="iDynTree::ForceTorqueSensor\lHelper">
<polygon fill="none" stroke="#000000" points="173.5,-49.5 173.5,-79.5 330.5,-79.5 330.5,-49.5 173.5,-49.5"/>
<text text-anchor="start" x="181.5" y="-67.5" font-family="FreeSans.ttf" font-size="10.00" fill="#000000">iDynTree::ForceTorqueSensor</text>
<text text-anchor="middle" x="252" y="-56.5" font-family="FreeSans.ttf" font-size="10.00" fill="#000000">Helper</text>
</a>
</g>
</g>
<!-- Node0&#45;&gt;Node2 -->
<g id="edge2" class="edge">
<title>Node0&#45;&gt;Node2</title>
<path fill="none" stroke="#191970" d="M141.2913,-64.5C151.8804,-64.5 162.781,-64.5 173.4203,-64.5"/>
<polygon fill="#191970" stroke="#191970" points="141.253,-61.0001 131.2529,-64.5 141.2529,-68.0001 141.253,-61.0001"/>
</g>
<!-- Node3 -->
<g id="node4" class="node">
<title>Node3</title>
<g id="a_node4"><a xlink:href="classiDynTree_1_1GyroscopeSensorHelper.html" target="_top" xlink:title="iDynTree::GyroscopeSensor\lHelper">
<polygon fill="none" stroke="#000000" points="177,-.5 177,-30.5 327,-30.5 327,-.5 177,-.5"/>
<text text-anchor="start" x="185" y="-18.5" font-family="FreeSans.ttf" font-size="10.00" fill="#000000">iDynTree::GyroscopeSensor</text>
<text text-anchor="middle" x="252" y="-7.5" font-family="FreeSans.ttf" font-size="10.00" fill="#000000">Helper</text>
</a>
</g>
</g>
<!-- Node0&#45;&gt;Node3 -->
<g id="edge3" class="edge">
<title>Node0&#45;&gt;Node3</title>
<path fill="none" stroke="#191970" d="M111.895,-52.3104C136.9822,-45.7192 168.1823,-37.5218 194.7675,-30.537"/>
<polygon fill="#191970" stroke="#191970" points="110.6842,-49.0097 101.9018,-54.936 112.463,-55.7799 110.6842,-49.0097"/>
</g>
</g>
</svg>
