<?xml version="1.0" encoding="UTF-8" standalone="no"?>
<!DOCTYPE svg PUBLIC "-//W3C//DTD SVG 1.1//EN"
 "http://www.w3.org/Graphics/SVG/1.1/DTD/svg11.dtd">
<!-- Generated by graphviz version 2.40.1 (20161225.0304)
 -->
<!-- Title: iDynTree::Box Pages: 1 -->
<svg width="1173pt" height="154pt"
 viewBox="0.00 0.00 1173.00 153.50" xmlns="http://www.w3.org/2000/svg" xmlns:xlink="http://www.w3.org/1999/xlink">
<g id="graph0" class="graph" transform="scale(1 1) rotate(0) translate(4 149.5)">
<title>iDynTree::Box</title>
<!-- Node2 -->
<g id="node1" class="node">
<title>Node2</title>
<polygon fill="#bfbfbf" stroke="#000000" points="1081,-46 1081,-65 1165,-65 1165,-46 1081,-46"/>
<text text-anchor="middle" x="1123" y="-53" font-family="FreeSans.ttf" font-size="10.00" fill="#000000">iDynTree::Box</text>
</g>
<!-- Node3 -->
<g id="node2" class="node">
<title>Node3</title>
<g id="a_node2"><a xlink:href="classiDynTree_1_1SolidShape.html" target="_top" xlink:title="iDynTree::SolidShape">
<polygon fill="none" stroke="#000000" points="925,-46 925,-65 1044,-65 1044,-46 925,-46"/>
<text text-anchor="middle" x="984.5" y="-53" font-family="FreeSans.ttf" font-size="10.00" fill="#000000">iDynTree::SolidShape</text>
</a>
</g>
</g>
<!-- Node3&#45;&gt;Node2 -->
<g id="edge1" class="edge">
<title>Node3&#45;&gt;Node2</title>
<path fill="none" stroke="#191970" d="M1054.2053,-55.5C1063.2337,-55.5 1072.2518,-55.5 1080.6457,-55.5"/>
<polygon fill="#191970" stroke="#191970" points="1054.0403,-52.0001 1044.0402,-55.5 1054.0402,-59.0001 1054.0403,-52.0001"/>
</g>
<!-- Node4 -->
<g id="node3" class="node">
<title>Node4</title>
<g id="a_node3"><a xlink:href="classiDynTree_1_1Transform.html" target="_top" xlink:title="Class representation the relative displacement between two different frames. ">
<polygon fill="none" stroke="#000000" points="666,-68 666,-87 780,-87 780,-68 666,-68"/>
<text text-anchor="middle" x="723" y="-75" font-family="FreeSans.ttf" font-size="10.00" fill="#000000">iDynTree::Transform</text>
</a>
</g>
</g>
<!-- Node4&#45;&gt;Node3 -->
<g id="edge2" class="edge">
<title>Node4&#45;&gt;Node3</title>
<path fill="none" stroke="#9a32cd" stroke-dasharray="5,2" d="M790.1105,-71.854C831.7177,-68.3536 884.6959,-63.8965 924.8338,-60.5197"/>
<polygon fill="#9a32cd" stroke="#9a32cd" points="789.7355,-68.3731 780.0641,-72.6992 790.3224,-75.3484 789.7355,-68.3731"/>
<text text-anchor="middle" x="863.5" y="-71.5" font-family="FreeSans.ttf" font-size="10.00" fill="#000000"> link_H_geometry</text>
</g>
<!-- Node5 -->
<g id="node4" class="node">
<title>Node5</title>
<g id="a_node4"><a xlink:href="classiDynTree_1_1Rotation.html" target="_top" xlink:title="Class representation the rotation of an orientation frame with respect to a reference orientation fra...">
<polygon fill="none" stroke="#000000" points="418.5,-126 418.5,-145 524.5,-145 524.5,-126 418.5,-126"/>
<text text-anchor="middle" x="471.5" y="-133" font-family="FreeSans.ttf" font-size="10.00" fill="#000000">iDynTree::Rotation</text>
</a>
</g>
</g>
<!-- Node5&#45;&gt;Node4 -->
<g id="edge3" class="edge">
<title>Node5&#45;&gt;Node4</title>
<path fill="none" stroke="#9a32cd" stroke-dasharray="5,2" d="M530.969,-124.0162C559.7566,-118.245 594.7686,-110.9134 626,-103.5 647.2042,-98.4667 670.8278,-92.1499 689.4526,-87.003"/>
<polygon fill="#9a32cd" stroke="#9a32cd" points="530.1857,-120.6034 521.0625,-125.9901 531.5537,-127.4685 530.1857,-120.6034"/>
<text text-anchor="middle" x="599" y="-117.5" font-family="FreeSans.ttf" font-size="10.00" fill="#000000"> rot</text>
</g>
<!-- Node6 -->
<g id="node5" class="node">
<title>Node6</title>
<g id="a_node5"><a xlink:href="classiDynTree_1_1RotationRaw.html" target="_top" xlink:title="Class providing the raw coordinates for iDynTree::Rotation class. ">
<polygon fill="none" stroke="#000000" points="117,-126 117,-145 244,-145 244,-126 117,-126"/>
<text text-anchor="middle" x="180.5" y="-133" font-family="FreeSans.ttf" font-size="10.00" fill="#000000">iDynTree::RotationRaw</text>
</a>
</g>
</g>
<!-- Node6&#45;&gt;Node5 -->
<g id="edge4" class="edge">
<title>Node6&#45;&gt;Node5</title>
<path fill="none" stroke="#191970" d="M254.0186,-135.5C305.2181,-135.5 372.3136,-135.5 418.3641,-135.5"/>
<polygon fill="#191970" stroke="#191970" points="254.0016,-132.0001 244.0016,-135.5 254.0016,-139.0001 254.0016,-132.0001"/>
</g>
<!-- Node7 -->
<g id="node6" class="node">
<title>Node7</title>
<g id="a_node6"><a xlink:href="classiDynTree_1_1MatrixFixSize.html" target="_top" xlink:title="Class providing a simple form of matrix with dynamic size. ">
<polygon fill="none" stroke="#000000" points="0,-126 0,-145 65,-145 65,-126 0,-126"/>
<text text-anchor="middle" x="32.5" y="-133" font-family="FreeSans.ttf" font-size="10.00" fill="#000000">Matrix3x3</text>
</a>
</g>
</g>
<!-- Node7&#45;&gt;Node6 -->
<g id="edge5" class="edge">
<title>Node7&#45;&gt;Node6</title>
<path fill="none" stroke="#191970" d="M75.3502,-135.5C88.2889,-135.5 102.7819,-135.5 116.775,-135.5"/>
<polygon fill="#191970" stroke="#191970" points="75.346,-132.0001 65.346,-135.5 75.346,-139.0001 75.346,-132.0001"/>
</g>
<!-- Node8 -->
<g id="node7" class="node">
<title>Node8</title>
<g id="a_node7"><a xlink:href="classiDynTree_1_1Position.html" target="_top" xlink:title="Class representation the coordinates of the Position of a point with respect to another point...">
<polygon fill="none" stroke="#000000" points="419.5,-88 419.5,-107 523.5,-107 523.5,-88 419.5,-88"/>
<text text-anchor="middle" x="471.5" y="-95" font-family="FreeSans.ttf" font-size="10.00" fill="#000000">iDynTree::Position</text>
</a>
</g>
</g>
<!-- Node8&#45;&gt;Node4 -->
<g id="edge6" class="edge">
<title>Node8&#45;&gt;Node4</title>
<path fill="none" stroke="#9a32cd" stroke-dasharray="5,2" d="M533.6093,-92.5609C574.0036,-89.3486 626.2953,-85.1902 665.6948,-82.0571"/>
<polygon fill="#9a32cd" stroke="#9a32cd" points="533.302,-89.0742 523.611,-93.356 533.857,-96.0522 533.302,-89.0742"/>
<text text-anchor="middle" x="599" y="-91.5" font-family="FreeSans.ttf" font-size="10.00" fill="#000000"> pos</text>
</g>
<!-- Node9 -->
<g id="node8" class="node">
<title>Node9</title>
<g id="a_node8"><a xlink:href="classiDynTree_1_1PositionRaw.html" target="_top" xlink:title="Class providing the raw coordinates for iDynTree::Position class. ">
<polygon fill="none" stroke="#000000" points="118,-88 118,-107 243,-107 243,-88 118,-88"/>
<text text-anchor="middle" x="180.5" y="-95" font-family="FreeSans.ttf" font-size="10.00" fill="#000000">iDynTree::PositionRaw</text>
</a>
</g>
</g>
<!-- Node9&#45;&gt;Node8 -->
<g id="edge7" class="edge">
<title>Node9&#45;&gt;Node8</title>
<path fill="none" stroke="#191970" d="M253.3619,-97.5C304.8957,-97.5 372.7812,-97.5 419.0456,-97.5"/>
<polygon fill="#191970" stroke="#191970" points="253.2844,-94.0001 243.2844,-97.5 253.2844,-101.0001 253.2844,-94.0001"/>
</g>
<!-- Node10 -->
<g id="node9" class="node">
<title>Node10</title>
<g id="a_node9"><a xlink:href="classiDynTree_1_1VectorFixSize.html" target="_top" xlink:title="Class providing a simple vector of N elements. ">
<polygon fill="none" stroke="#000000" points="6,-88 6,-107 59,-107 59,-88 6,-88"/>
<text text-anchor="middle" x="32.5" y="-95" font-family="FreeSans.ttf" font-size="10.00" fill="#000000">Vector3</text>
</a>
</g>
</g>
<!-- Node10&#45;&gt;Node9 -->
<g id="edge8" class="edge">
<title>Node10&#45;&gt;Node9</title>
<path fill="none" stroke="#191970" d="M69.4766,-97.5C84.152,-97.5 101.4444,-97.5 117.9567,-97.5"/>
<polygon fill="#191970" stroke="#191970" points="69.3017,-94.0001 59.3017,-97.5 69.3016,-101.0001 69.3017,-94.0001"/>
</g>
<!-- Node11 -->
<g id="node10" class="node">
<title>Node11</title>
<g id="a_node10"><a xlink:href="classiDynTree_1_1TransformSemantics.html" target="_top" xlink:title="Class providing the semantics for iDynTree::Transform class. ">
<polygon fill="none" stroke="#000000" points="389,-50 389,-69 554,-69 554,-50 389,-50"/>
<text text-anchor="middle" x="471.5" y="-57" font-family="FreeSans.ttf" font-size="10.00" fill="#000000">iDynTree::TransformSemantics</text>
</a>
</g>
</g>
<!-- Node11&#45;&gt;Node4 -->
<g id="edge9" class="edge">
<title>Node11&#45;&gt;Node4</title>
<path fill="none" stroke="#9a32cd" stroke-dasharray="5,2" d="M564.3863,-60.1353C584.7146,-60.7679 606.1016,-61.8123 626,-63.5 638.9697,-64.6 652.85,-66.2928 665.9383,-68.1258"/>
<polygon fill="#9a32cd" stroke="#9a32cd" points="564.2803,-56.631 554.186,-59.8488 564.0837,-63.6282 564.2803,-56.631"/>
<text text-anchor="middle" x="599" y="-66.5" font-family="FreeSans.ttf" font-size="10.00" fill="#000000"> semantics</text>
</g>
<!-- Node12 -->
<g id="node11" class="node">
<title>Node12</title>
<g id="a_node11"><a xlink:href="classiDynTree_1_1RotationSemantics.html" target="_top" xlink:title="Class providing the semantics for iDynTree::Rotation class. ">
<polygon fill="none" stroke="#000000" points="102,-50 102,-69 259,-69 259,-50 102,-50"/>
<text text-anchor="middle" x="180.5" y="-57" font-family="FreeSans.ttf" font-size="10.00" fill="#000000">iDynTree::RotationSemantics</text>
</a>
</g>
</g>
<!-- Node12&#45;&gt;Node11 -->
<g id="edge10" class="edge">
<title>Node12&#45;&gt;Node11</title>
<path fill="none" stroke="#9a32cd" stroke-dasharray="5,2" d="M269.2936,-59.5C307.3453,-59.5 351.5311,-59.5 388.875,-59.5"/>
<polygon fill="#9a32cd" stroke="#9a32cd" points="269.2488,-56.0001 259.2488,-59.5 269.2488,-63.0001 269.2488,-56.0001"/>
<text text-anchor="middle" x="324" y="-62.5" font-family="FreeSans.ttf" font-size="10.00" fill="#000000"> rotationSemantics</text>
</g>
<!-- Node13 -->
<g id="node12" class="node">
<title>Node13</title>
<g id="a_node12"><a xlink:href="classiDynTree_1_1PositionSemantics.html" target="_top" xlink:title="Class providing the semantics for iDynTree::Position class. ">
<polygon fill="none" stroke="#000000" points="103,-12 103,-31 258,-31 258,-12 103,-12"/>
<text text-anchor="middle" x="180.5" y="-19" font-family="FreeSans.ttf" font-size="10.00" fill="#000000">iDynTree::PositionSemantics</text>
</a>
</g>
</g>
<!-- Node13&#45;&gt;Node11 -->
<g id="edge11" class="edge">
<title>Node13&#45;&gt;Node11</title>
<path fill="none" stroke="#9a32cd" stroke-dasharray="5,2" d="M268.7101,-31.6282C300.925,-35.4647 337.6355,-39.9969 371,-44.5 383.5001,-46.1871 396.8574,-48.1019 409.618,-49.9856"/>
<polygon fill="#9a32cd" stroke="#9a32cd" points="268.7612,-28.1098 258.4186,-30.408 267.9369,-35.0611 268.7612,-28.1098"/>
<text text-anchor="middle" x="324" y="-47.5" font-family="FreeSans.ttf" font-size="10.00" fill="#000000"> positionSemantics</text>
</g>
<!-- Node14 -->
<g id="node13" class="node">
<title>Node14</title>
<g id="a_node13"><a xlink:href="classiDynTree_1_1VectorFixSize.html" target="_top" xlink:title="iDynTree::VectorFixSize\&lt; 4 \&gt;">
<polygon fill="none" stroke="#000000" points="644,-27 644,-46 802,-46 802,-27 644,-27"/>
<text text-anchor="middle" x="723" y="-34" font-family="FreeSans.ttf" font-size="10.00" fill="#000000">iDynTree::VectorFixSize&lt; 4 &gt;</text>
</a>
</g>
</g>
<!-- Node14&#45;&gt;Node3 -->
<g id="edge12" class="edge">
<title>Node14&#45;&gt;Node3</title>
<path fill="none" stroke="#9a32cd" stroke-dasharray="5,2" d="M812.4942,-35.4067C842.5934,-35.8466 876.3148,-37.2209 907,-40.5 918.4467,-41.7232 930.7256,-43.7587 942.0581,-45.9417"/>
<polygon fill="#9a32cd" stroke="#9a32cd" points="812.4745,-31.9064 802.4352,-35.292 812.3945,-38.9059 812.4745,-31.9064"/>
<text text-anchor="middle" x="863.5" y="-43.5" font-family="FreeSans.ttf" font-size="10.00" fill="#000000"> material</text>
</g>
<!-- Node15 -->
<g id="node14" class="node">
<title>Node15</title>
<g id="a_node14"><a xlink:href="classiDynTree_1_1VectorFixSize.html" target="_top" xlink:title="Class providing a simple vector of N elements. ">
<polygon fill="none" stroke="#000000" points="406.5,-.5 406.5,-30.5 536.5,-30.5 536.5,-.5 406.5,-.5"/>
<text text-anchor="start" x="414.5" y="-18.5" font-family="FreeSans.ttf" font-size="10.00" fill="#000000">iDynTree::VectorFixSize</text>
<text text-anchor="middle" x="471.5" y="-7.5" font-family="FreeSans.ttf" font-size="10.00" fill="#000000">&lt; VecSize &gt;</text>
</a>
</g>
</g>
<!-- Node15&#45;&gt;Node14 -->
<g id="edge13" class="edge">
<title>Node15&#45;&gt;Node14</title>
<path fill="none" stroke="#ffa500" stroke-dasharray="5,2" d="M546.7823,-21.786C577.4034,-24.3428 612.8112,-27.2993 643.8196,-29.8885"/>
<polygon fill="#ffa500" stroke="#ffa500" points="546.8512,-18.2797 536.5946,-20.9353 546.2686,-25.2554 546.8512,-18.2797"/>
<text text-anchor="middle" x="599" y="-30.5" font-family="FreeSans.ttf" font-size="10.00" fill="#000000"> &lt; 4 &gt;</text>
</g>
</g>
</svg>
