<?xml version="1.0" encoding="UTF-8" standalone="no"?>
<!DOCTYPE svg PUBLIC "-//W3C//DTD SVG 1.1//EN"
 "http://www.w3.org/Graphics/SVG/1.1/DTD/svg11.dtd">
<!-- Generated by graphviz version 2.40.1 (20161225.0304)
 -->
<!-- Title: iDynTree::details::extent_type&lt; Ext &gt; Pages: 1 -->
<svg width="548pt" height="61pt"
 viewBox="0.00 0.00 548.00 61.00" xmlns="http://www.w3.org/2000/svg" xmlns:xlink="http://www.w3.org/1999/xlink">
<g id="graph0" class="graph" transform="scale(1 1) rotate(0) translate(4 57)">
<title>iDynTree::details::extent_type&lt; Ext &gt;</title>
<!-- Node0 -->
<g id="node1" class="node">
<title>Node0</title>
<polygon fill="#bfbfbf" stroke="#000000" points="0,-11.5 0,-41.5 113,-41.5 113,-11.5 0,-11.5"/>
<text text-anchor="start" x="8" y="-29.5" font-family="FreeSans.ttf" font-size="10.00" fill="#000000">iDynTree::details::</text>
<text text-anchor="middle" x="56.5" y="-18.5" font-family="FreeSans.ttf" font-size="10.00" fill="#000000">extent_type&lt; Ext &gt;</text>
</g>
<!-- Node1 -->
<g id="node2" class="node">
<title>Node1</title>
<g id="a_node2"><a xlink:href="classiDynTree_1_1details_1_1extent__type.html" target="_top" xlink:title="iDynTree::details::\lextent_type\&lt; Extent \&gt;">
<polygon fill="none" stroke="#000000" points="207,-11.5 207,-41.5 336,-41.5 336,-11.5 207,-11.5"/>
<text text-anchor="start" x="215" y="-29.5" font-family="FreeSans.ttf" font-size="10.00" fill="#000000">iDynTree::details::</text>
<text text-anchor="middle" x="271.5" y="-18.5" font-family="FreeSans.ttf" font-size="10.00" fill="#000000">extent_type&lt; Extent &gt;</text>
</a>
</g>
</g>
<!-- Node0&#45;&gt;Node1 -->
<g id="edge1" class="edge">
<title>Node0&#45;&gt;Node1</title>
<path fill="none" stroke="#ffa500" stroke-dasharray="5,2" d="M123.6135,-26.5C150.1436,-26.5 180.5136,-26.5 206.8022,-26.5"/>
<polygon fill="#ffa500" stroke="#ffa500" points="123.27,-23.0001 113.27,-26.5 123.2699,-30.0001 123.27,-23.0001"/>
<text text-anchor="middle" x="160" y="-29.5" font-family="FreeSans.ttf" font-size="10.00" fill="#000000"> &lt; Extent &gt;</text>
</g>
<!-- Node2 -->
<g id="node3" class="node">
<title>Node2</title>
<polygon fill="none" stroke="#bfbfbf" points="373,-.5 373,-52.5 540,-52.5 540,-.5 373,-.5"/>
<text text-anchor="start" x="381" y="-40.5" font-family="FreeSans.ttf" font-size="10.00" fill="#000000">iDynTree::Span&lt; ElementType,</text>
<text text-anchor="start" x="381" y="-29.5" font-family="FreeSans.ttf" font-size="10.00" fill="#000000"> Extent &gt;::storage_type</text>
<text text-anchor="start" x="381" y="-18.5" font-family="FreeSans.ttf" font-size="10.00" fill="#000000">&lt; iDynTree::details::extent</text>
<text text-anchor="middle" x="456.5" y="-7.5" font-family="FreeSans.ttf" font-size="10.00" fill="#000000">_type&lt; Extent &gt; &gt;</text>
</g>
<!-- Node1&#45;&gt;Node2 -->
<g id="edge2" class="edge">
<title>Node1&#45;&gt;Node2</title>
<path fill="none" stroke="#191970" d="M346.3666,-26.5C355.1263,-26.5 364.105,-26.5 372.9727,-26.5"/>
<polygon fill="#191970" stroke="#191970" points="346.2041,-23.0001 336.204,-26.5 346.204,-30.0001 346.2041,-23.0001"/>
</g>
</g>
</svg>
