<?xml version="1.0" encoding="UTF-8" standalone="no"?>
<!DOCTYPE svg PUBLIC "-//W3C//DTD SVG 1.1//EN"
 "http://www.w3.org/Graphics/SVG/1.1/DTD/svg11.dtd">
<!-- Generated by graphviz version 2.40.1 (20161225.0304)
 -->
<!-- Title: ClassicalAcc.cpp Pages: 1 -->
<svg width="1511pt" height="632pt"
 viewBox="0.00 0.00 1510.50 632.00" xmlns="http://www.w3.org/2000/svg" xmlns:xlink="http://www.w3.org/1999/xlink">
<g id="graph0" class="graph" transform="scale(1 1) rotate(0) translate(4 628)">
<title>ClassicalAcc.cpp</title>
<!-- Node0 -->
<g id="node1" class="node">
<title>Node0</title>
<polygon fill="#bfbfbf" stroke="#000000" points="797,-604.5 797,-623.5 895,-623.5 895,-604.5 797,-604.5"/>
<text text-anchor="middle" x="846" y="-611.5" font-family="FreeSans.ttf" font-size="10.00" fill="#000000">ClassicalAcc.cpp</text>
</g>
<!-- Node1 -->
<g id="node2" class="node">
<title>Node1</title>
<g id="a_node2"><a xlink:href="ClassicalAcc_8h.html" target="_top" xlink:title="iDynTree/Core/ClassicalAcc.h">
<polygon fill="none" stroke="#000000" points="908,-487 908,-506 1066,-506 1066,-487 908,-487"/>
<text text-anchor="middle" x="987" y="-494" font-family="FreeSans.ttf" font-size="10.00" fill="#000000">iDynTree/Core/ClassicalAcc.h</text>
</a>
</g>
</g>
<!-- Node0&#45;&gt;Node1 -->
<g id="edge1" class="edge">
<title>Node0&#45;&gt;Node1</title>
<path fill="none" stroke="#191970" d="M868.5939,-604.3787C886.163,-596.2414 910.5671,-583.4526 929,-568 947.4615,-552.5234 964.2888,-530.4869 975.007,-514.9793"/>
<polygon fill="#191970" stroke="#191970" points="978.1776,-516.5363 980.8511,-506.2844 972.3679,-512.6315 978.1776,-516.5363"/>
</g>
<!-- Node17 -->
<g id="node18" class="node">
<title>Node17</title>
<g id="a_node18"><a xlink:href="SpatialAcc_8h.html" target="_top" xlink:title="iDynTree/Core/SpatialAcc.h">
<polygon fill="none" stroke="#000000" points="772,-548.5 772,-567.5 920,-567.5 920,-548.5 772,-548.5"/>
<text text-anchor="middle" x="846" y="-555.5" font-family="FreeSans.ttf" font-size="10.00" fill="#000000">iDynTree/Core/SpatialAcc.h</text>
</a>
</g>
</g>
<!-- Node0&#45;&gt;Node17 -->
<g id="edge19" class="edge">
<title>Node0&#45;&gt;Node17</title>
<path fill="none" stroke="#191970" d="M846,-604.2455C846,-596.9382 846,-586.6944 846,-577.7046"/>
<polygon fill="#191970" stroke="#191970" points="849.5001,-577.6426 846,-567.6427 842.5001,-577.6427 849.5001,-577.6426"/>
</g>
<!-- Node23 -->
<g id="node24" class="node">
<title>Node23</title>
<g id="a_node24"><a xlink:href="RotationRaw_8h.html" target="_top" xlink:title="iDynTree/Core/RotationRaw.h">
<polygon fill="none" stroke="#000000" points="376,-168.5 376,-187.5 534,-187.5 534,-168.5 376,-168.5"/>
<text text-anchor="middle" x="455" y="-175.5" font-family="FreeSans.ttf" font-size="10.00" fill="#000000">iDynTree/Core/RotationRaw.h</text>
</a>
</g>
</g>
<!-- Node0&#45;&gt;Node23 -->
<g id="edge66" class="edge">
<title>Node0&#45;&gt;Node23</title>
<path fill="none" stroke="#191970" d="M796.9169,-608.0935C699.9221,-595.0477 493,-559.7988 493,-496.5 493,-496.5 493,-496.5 493,-368 493,-316.1503 473.4757,-305.9765 464,-255 460.3977,-235.6207 457.9715,-213.2141 456.5548,-197.5863"/>
<polygon fill="#191970" stroke="#191970" points="460.0356,-197.2119 455.6991,-187.5452 453.0609,-197.8063 460.0356,-197.2119"/>
</g>
<!-- Node35 -->
<g id="node36" class="node">
<title>Node35</title>
<g id="a_node36"><a xlink:href="Twist_8h.html" target="_top" xlink:title="iDynTree/Core/Twist.h">
<polygon fill="none" stroke="#000000" points="632,-548.5 632,-567.5 754,-567.5 754,-548.5 632,-548.5"/>
<text text-anchor="middle" x="693" y="-555.5" font-family="FreeSans.ttf" font-size="10.00" fill="#000000">iDynTree/Core/Twist.h</text>
</a>
</g>
</g>
<!-- Node0&#45;&gt;Node35 -->
<g id="edge64" class="edge">
<title>Node0&#45;&gt;Node35</title>
<path fill="none" stroke="#191970" d="M819.6984,-604.3733C794.5872,-595.1822 756.5562,-581.2624 728.7128,-571.0713"/>
<polygon fill="#191970" stroke="#191970" points="729.5522,-567.6516 718.9584,-567.5011 727.1462,-574.2251 729.5522,-567.6516"/>
</g>
<!-- Node36 -->
<g id="node37" class="node">
<title>Node36</title>
<polygon fill="none" stroke="#bfbfbf" points="976.5,-548.5 976.5,-567.5 1053.5,-567.5 1053.5,-548.5 976.5,-548.5"/>
<text text-anchor="middle" x="1015" y="-555.5" font-family="FreeSans.ttf" font-size="10.00" fill="#000000">Eigen/Dense</text>
</g>
<!-- Node0&#45;&gt;Node36 -->
<g id="edge67" class="edge">
<title>Node0&#45;&gt;Node36</title>
<path fill="none" stroke="#191970" d="M875.0521,-604.3733C903.1543,-595.0613 945.9054,-580.8953 976.7607,-570.671"/>
<polygon fill="#191970" stroke="#191970" points="977.9355,-573.969 986.327,-567.5011 975.7336,-567.3243 977.9355,-573.969"/>
</g>
<!-- Node2 -->
<g id="node3" class="node">
<title>Node2</title>
<g id="a_node3"><a xlink:href="VectorFixSize_8h.html" target="_top" xlink:title="iDynTree/Core/VectorFixSize.h">
<polygon fill="none" stroke="#000000" points="851.5,-168.5 851.5,-187.5 1012.5,-187.5 1012.5,-168.5 851.5,-168.5"/>
<text text-anchor="middle" x="932" y="-175.5" font-family="FreeSans.ttf" font-size="10.00" fill="#000000">iDynTree/Core/VectorFixSize.h</text>
</a>
</g>
</g>
<!-- Node1&#45;&gt;Node2 -->
<g id="edge2" class="edge">
<title>Node1&#45;&gt;Node2</title>
<path fill="none" stroke="#191970" d="M987.5066,-486.8313C988.5829,-465.427 991,-412.4165 991,-368 991,-368 991,-368 991,-306.5 991,-268.3133 984.1838,-258.1019 967,-224 961.8387,-213.7572 954.3094,-203.4912 947.5553,-195.2644"/>
<polygon fill="#191970" stroke="#191970" points="950.0885,-192.8413 940.9293,-187.5159 944.7684,-197.3907 950.0885,-192.8413"/>
</g>
<!-- Node3 -->
<g id="node4" class="node">
<title>Node3</title>
<g id="a_node4"><a xlink:href="Utils_8h.html" target="_top" xlink:title="iDynTree/Core/Utils.h">
<polygon fill="none" stroke="#000000" points="622.5,-56.5 622.5,-75.5 741.5,-75.5 741.5,-56.5 622.5,-56.5"/>
<text text-anchor="middle" x="682" y="-63.5" font-family="FreeSans.ttf" font-size="10.00" fill="#000000">iDynTree/Core/Utils.h</text>
</a>
</g>
</g>
<!-- Node2&#45;&gt;Node3 -->
<g id="edge3" class="edge">
<title>Node2&#45;&gt;Node3</title>
<path fill="none" stroke="#191970" d="M920.7527,-168.3777C903.6881,-154.2157 869.765,-127.7401 837,-112 805.5163,-96.8754 768.0183,-85.5859 737.7912,-77.9766"/>
<polygon fill="#191970" stroke="#191970" points="738.384,-74.5184 727.8382,-75.537 736.7174,-81.3171 738.384,-74.5184"/>
</g>
<!-- Node5 -->
<g id="node6" class="node">
<title>Node5</title>
<g id="a_node6"><a xlink:href="Span_8h.html" target="_top" xlink:title="iDynTree/Core/Span.h">
<polygon fill="none" stroke="#000000" points="1080.5,-112.5 1080.5,-131.5 1201.5,-131.5 1201.5,-112.5 1080.5,-112.5"/>
<text text-anchor="middle" x="1141" y="-119.5" font-family="FreeSans.ttf" font-size="10.00" fill="#000000">iDynTree/Core/Span.h</text>
</a>
</g>
</g>
<!-- Node2&#45;&gt;Node5 -->
<g id="edge5" class="edge">
<title>Node2&#45;&gt;Node5</title>
<path fill="none" stroke="#191970" d="M967.9284,-168.3733C1003.2837,-158.9001 1057.388,-144.4032 1095.6788,-134.1435"/>
<polygon fill="#191970" stroke="#191970" points="1096.787,-137.4701 1105.5405,-131.5011 1094.9753,-130.7086 1096.787,-137.4701"/>
</g>
<!-- Node6 -->
<g id="node7" class="node">
<title>Node6</title>
<polygon fill="none" stroke="#bfbfbf" points="902,-56.5 902,-75.5 954,-75.5 954,-56.5 902,-56.5"/>
<text text-anchor="middle" x="928" y="-63.5" font-family="FreeSans.ttf" font-size="10.00" fill="#000000">cassert</text>
</g>
<!-- Node2&#45;&gt;Node6 -->
<g id="edge17" class="edge">
<title>Node2&#45;&gt;Node6</title>
<path fill="none" stroke="#191970" d="M948.917,-168.4621C967.8775,-156.424 994.6601,-134.552 984,-112 977.9754,-99.2547 966.4968,-88.8542 955.4926,-81.1874"/>
<polygon fill="#191970" stroke="#191970" points="957.1828,-78.1127 946.8824,-75.6324 953.3879,-83.9948 957.1828,-78.1127"/>
</g>
<!-- Node14 -->
<g id="node15" class="node">
<title>Node14</title>
<polygon fill="none" stroke="#bfbfbf" points="441,-56.5 441,-75.5 485,-75.5 485,-56.5 441,-56.5"/>
<text text-anchor="middle" x="463" y="-63.5" font-family="FreeSans.ttf" font-size="10.00" fill="#000000">string</text>
</g>
<!-- Node2&#45;&gt;Node14 -->
<g id="edge15" class="edge">
<title>Node2&#45;&gt;Node14</title>
<path fill="none" stroke="#191970" d="M855.4354,-168.4917C800.1091,-160.812 723.8414,-148.556 658,-132 599.2951,-117.2385 532.9166,-93.1212 494.7126,-78.4884"/>
<polygon fill="#191970" stroke="#191970" points="495.7608,-75.1414 485.1712,-74.8063 493.2405,-81.672 495.7608,-75.1414"/>
</g>
<!-- Node15 -->
<g id="node16" class="node">
<title>Node15</title>
<polygon fill="none" stroke="#bfbfbf" points="828,-56.5 828,-75.5 884,-75.5 884,-56.5 828,-56.5"/>
<text text-anchor="middle" x="856" y="-63.5" font-family="FreeSans.ttf" font-size="10.00" fill="#000000">sstream</text>
</g>
<!-- Node2&#45;&gt;Node15 -->
<g id="edge16" class="edge">
<title>Node2&#45;&gt;Node15</title>
<path fill="none" stroke="#191970" d="M938.1379,-168.3054C945.8632,-154.7455 956.8827,-129.7841 946,-112 939.5886,-101.5227 913.2731,-88.7476 890.7412,-79.3214"/>
<polygon fill="#191970" stroke="#191970" points="891.9665,-76.0413 881.3853,-75.5031 889.3214,-82.5223 891.9665,-76.0413"/>
</g>
<!-- Node16 -->
<g id="node17" class="node">
<title>Node16</title>
<polygon fill="none" stroke="#bfbfbf" points="760,-56.5 760,-75.5 810,-75.5 810,-56.5 760,-56.5"/>
<text text-anchor="middle" x="785" y="-63.5" font-family="FreeSans.ttf" font-size="10.00" fill="#000000">cstring</text>
</g>
<!-- Node2&#45;&gt;Node16 -->
<g id="edge18" class="edge">
<title>Node2&#45;&gt;Node16</title>
<path fill="none" stroke="#191970" d="M930.9946,-168.1249C929.0372,-153.8853 923.4476,-127.5889 908,-112 901.4822,-105.4226 853.6996,-88.6673 819.6522,-77.3013"/>
<polygon fill="#191970" stroke="#191970" points="820.6174,-73.934 810.0239,-74.1079 818.4137,-80.5781 820.6174,-73.934"/>
</g>
<!-- Node4 -->
<g id="node5" class="node">
<title>Node4</title>
<polygon fill="none" stroke="#bfbfbf" points="837.5,-.5 837.5,-19.5 890.5,-19.5 890.5,-.5 837.5,-.5"/>
<text text-anchor="middle" x="864" y="-7.5" font-family="FreeSans.ttf" font-size="10.00" fill="#000000">cstddef</text>
</g>
<!-- Node3&#45;&gt;Node4 -->
<g id="edge4" class="edge">
<title>Node3&#45;&gt;Node4</title>
<path fill="none" stroke="#191970" d="M713.2869,-56.3733C744.9712,-46.6242 793.9471,-31.5547 827.4105,-21.2583"/>
<polygon fill="#191970" stroke="#191970" points="828.7329,-24.5134 837.2614,-18.2273 826.6743,-17.823 828.7329,-24.5134"/>
</g>
<!-- Node5&#45;&gt;Node4 -->
<g id="edge9" class="edge">
<title>Node5&#45;&gt;Node4</title>
<path fill="none" stroke="#191970" d="M1125.3339,-112.2753C1099.0001,-96.0407 1046.8008,-64.3699 1027,-56 985.0288,-38.2586 934.1414,-25.1401 900.5127,-17.5489"/>
<polygon fill="#191970" stroke="#191970" points="901.1789,-14.1117 890.6592,-15.3714 899.6684,-20.9468 901.1789,-14.1117"/>
</g>
<!-- Node5&#45;&gt;Node6 -->
<g id="edge6" class="edge">
<title>Node5&#45;&gt;Node6</title>
<path fill="none" stroke="#191970" d="M1103.6591,-112.4884C1067.8043,-103.3097 1012.1385,-88.9402 964,-76 963.9021,-75.9737 963.8041,-75.9473 963.7059,-75.9209"/>
<polygon fill="#191970" stroke="#191970" points="964.9004,-72.6188 954.3322,-73.369 963.0616,-79.373 964.9004,-72.6188"/>
</g>
<!-- Node7 -->
<g id="node8" class="node">
<title>Node7</title>
<polygon fill="none" stroke="#bfbfbf" points="1074,-56.5 1074,-75.5 1138,-75.5 1138,-56.5 1074,-56.5"/>
<text text-anchor="middle" x="1106" y="-63.5" font-family="FreeSans.ttf" font-size="10.00" fill="#000000">algorithm</text>
</g>
<!-- Node5&#45;&gt;Node7 -->
<g id="edge7" class="edge">
<title>Node5&#45;&gt;Node7</title>
<path fill="none" stroke="#191970" d="M1134.9035,-112.2455C1130.0855,-104.5367 1123.2249,-93.5598 1117.3968,-84.2348"/>
<polygon fill="#191970" stroke="#191970" points="1120.2947,-82.2677 1112.0267,-75.6427 1114.3587,-85.9777 1120.2947,-82.2677"/>
</g>
<!-- Node8 -->
<g id="node9" class="node">
<title>Node8</title>
<polygon fill="none" stroke="#bfbfbf" points="1156,-56.5 1156,-75.5 1198,-75.5 1198,-56.5 1156,-56.5"/>
<text text-anchor="middle" x="1177" y="-63.5" font-family="FreeSans.ttf" font-size="10.00" fill="#000000">array</text>
</g>
<!-- Node5&#45;&gt;Node8 -->
<g id="edge8" class="edge">
<title>Node5&#45;&gt;Node8</title>
<path fill="none" stroke="#191970" d="M1147.2707,-112.2455C1152.2264,-104.5367 1159.283,-93.5598 1165.2776,-84.2348"/>
<polygon fill="#191970" stroke="#191970" points="1168.3376,-85.9471 1170.8011,-75.6427 1162.4494,-82.1618 1168.3376,-85.9471"/>
</g>
<!-- Node9 -->
<g id="node10" class="node">
<title>Node9</title>
<polygon fill="none" stroke="#bfbfbf" points="1216.5,-56.5 1216.5,-75.5 1269.5,-75.5 1269.5,-56.5 1216.5,-56.5"/>
<text text-anchor="middle" x="1243" y="-63.5" font-family="FreeSans.ttf" font-size="10.00" fill="#000000">iterator</text>
</g>
<!-- Node5&#45;&gt;Node9 -->
<g id="edge10" class="edge">
<title>Node5&#45;&gt;Node9</title>
<path fill="none" stroke="#191970" d="M1158.767,-112.2455C1174.7095,-103.4928 1198.3259,-90.527 1216.4989,-80.5496"/>
<polygon fill="#191970" stroke="#191970" points="1218.3552,-83.5233 1225.4366,-75.6427 1214.9863,-77.3873 1218.3552,-83.5233"/>
</g>
<!-- Node10 -->
<g id="node11" class="node">
<title>Node10</title>
<polygon fill="none" stroke="#bfbfbf" points="1288,-56.5 1288,-75.5 1332,-75.5 1332,-56.5 1288,-56.5"/>
<text text-anchor="middle" x="1310" y="-63.5" font-family="FreeSans.ttf" font-size="10.00" fill="#000000">limits</text>
</g>
<!-- Node5&#45;&gt;Node10 -->
<g id="edge11" class="edge">
<title>Node5&#45;&gt;Node10</title>
<path fill="none" stroke="#191970" d="M1170.0521,-112.3733C1200.1981,-102.3841 1247.2012,-86.8091 1278.2938,-76.5062"/>
<polygon fill="#191970" stroke="#191970" points="1279.3966,-79.828 1287.7881,-73.3601 1277.1948,-73.1833 1279.3966,-79.828"/>
</g>
<!-- Node11 -->
<g id="node12" class="node">
<title>Node11</title>
<polygon fill="none" stroke="#bfbfbf" points="1350.5,-56.5 1350.5,-75.5 1415.5,-75.5 1415.5,-56.5 1350.5,-56.5"/>
<text text-anchor="middle" x="1383" y="-63.5" font-family="FreeSans.ttf" font-size="10.00" fill="#000000">stdexcept</text>
</g>
<!-- Node5&#45;&gt;Node11 -->
<g id="edge12" class="edge">
<title>Node5&#45;&gt;Node11</title>
<path fill="none" stroke="#191970" d="M1182.7748,-112.4899C1221.1956,-103.7214 1280.0099,-90.2435 1340.6939,-76.0589"/>
<polygon fill="#191970" stroke="#191970" points="1341.5069,-79.4632 1350.4465,-73.7769 1339.9121,-72.6473 1341.5069,-79.4632"/>
</g>
<!-- Node12 -->
<g id="node13" class="node">
<title>Node12</title>
<polygon fill="none" stroke="#bfbfbf" points="1433.5,-56.5 1433.5,-75.5 1502.5,-75.5 1502.5,-56.5 1433.5,-56.5"/>
<text text-anchor="middle" x="1468" y="-63.5" font-family="FreeSans.ttf" font-size="10.00" fill="#000000">type_traits</text>
</g>
<!-- Node5&#45;&gt;Node12 -->
<g id="edge13" class="edge">
<title>Node5&#45;&gt;Node12</title>
<path fill="none" stroke="#191970" d="M1201.6003,-113.403C1256.9933,-105.2683 1341.3957,-92.183 1423.3319,-76.239"/>
<polygon fill="#191970" stroke="#191970" points="1424.1712,-79.6412 1433.3098,-74.2806 1422.8229,-72.7722 1424.1712,-79.6412"/>
</g>
<!-- Node13 -->
<g id="node14" class="node">
<title>Node13</title>
<polygon fill="none" stroke="#bfbfbf" points="972.5,-56.5 972.5,-75.5 1017.5,-75.5 1017.5,-56.5 972.5,-56.5"/>
<text text-anchor="middle" x="995" y="-63.5" font-family="FreeSans.ttf" font-size="10.00" fill="#000000">utility</text>
</g>
<!-- Node5&#45;&gt;Node13 -->
<g id="edge14" class="edge">
<title>Node5&#45;&gt;Node13</title>
<path fill="none" stroke="#191970" d="M1115.9017,-112.3733C1091.4662,-103.0007 1054.2101,-88.7107 1027.5162,-78.472"/>
<polygon fill="#191970" stroke="#191970" points="1028.4416,-75.0783 1017.8514,-74.7649 1025.9347,-81.614 1028.4416,-75.0783"/>
</g>
<!-- Node18 -->
<g id="node19" class="node">
<title>Node18</title>
<g id="a_node19"><a xlink:href="SpatialMotionVector_8h.html" target="_top" xlink:title="iDynTree/Core/SpatialMotion\lVector.h">
<polygon fill="none" stroke="#000000" points="730.5,-481.5 730.5,-511.5 885.5,-511.5 885.5,-481.5 730.5,-481.5"/>
<text text-anchor="start" x="738.5" y="-499.5" font-family="FreeSans.ttf" font-size="10.00" fill="#000000">iDynTree/Core/SpatialMotion</text>
<text text-anchor="middle" x="808" y="-488.5" font-family="FreeSans.ttf" font-size="10.00" fill="#000000">Vector.h</text>
</a>
</g>
</g>
<!-- Node17&#45;&gt;Node18 -->
<g id="edge20" class="edge">
<title>Node17&#45;&gt;Node18</title>
<path fill="none" stroke="#191970" d="M840.0625,-548.3906C835.3959,-540.838 828.6915,-529.9876 822.6188,-520.1593"/>
<polygon fill="#191970" stroke="#191970" points="825.5298,-518.2119 817.2958,-511.5446 819.5748,-521.8914 825.5298,-518.2119"/>
</g>
<!-- Node18&#45;&gt;Node2 -->
<g id="edge21" class="edge">
<title>Node18&#45;&gt;Node2</title>
<path fill="none" stroke="#191970" d="M855.635,-481.4785C875.8599,-473.2407 898.5194,-461.319 915,-445 942.1178,-418.1482 953,-406.1627 953,-368 953,-368 953,-368 953,-306.5 953,-267.3148 943.3711,-222.2778 937.1536,-197.281"/>
<polygon fill="#191970" stroke="#191970" points="940.5403,-196.3973 934.6597,-187.5843 933.7609,-198.1409 940.5403,-196.3973"/>
</g>
<!-- Node19 -->
<g id="node20" class="node">
<title>Node19</title>
<g id="a_node20"><a xlink:href="LinearMotionVector3_8h.html" target="_top" xlink:title="iDynTree/Core/LinearMotion\lVector3.h">
<polygon fill="none" stroke="#000000" points="559.5,-414.5 559.5,-444.5 710.5,-444.5 710.5,-414.5 559.5,-414.5"/>
<text text-anchor="start" x="567.5" y="-432.5" font-family="FreeSans.ttf" font-size="10.00" fill="#000000">iDynTree/Core/LinearMotion</text>
<text text-anchor="middle" x="635" y="-421.5" font-family="FreeSans.ttf" font-size="10.00" fill="#000000">Vector3.h</text>
</a>
</g>
</g>
<!-- Node18&#45;&gt;Node19 -->
<g id="edge22" class="edge">
<title>Node18&#45;&gt;Node19</title>
<path fill="none" stroke="#191970" d="M769.1754,-481.4639C743.8887,-471.6708 710.6971,-458.8162 683.6532,-448.3426"/>
<polygon fill="#191970" stroke="#191970" points="684.583,-444.9494 673.9939,-444.6017 682.055,-451.477 684.583,-444.9494"/>
</g>
<!-- Node27 -->
<g id="node28" class="node">
<title>Node27</title>
<g id="a_node28"><a xlink:href="PrivateMotionForceVertorAssociations_8h.html" target="_top" xlink:title="iDynTree/Core/PrivateMotion\lForceVertorAssociations.h">
<polygon fill="none" stroke="#000000" points="761.5,-224.5 761.5,-254.5 916.5,-254.5 916.5,-224.5 761.5,-224.5"/>
<text text-anchor="start" x="769.5" y="-242.5" font-family="FreeSans.ttf" font-size="10.00" fill="#000000">iDynTree/Core/PrivateMotion</text>
<text text-anchor="middle" x="839" y="-231.5" font-family="FreeSans.ttf" font-size="10.00" fill="#000000">ForceVertorAssociations.h</text>
</a>
</g>
</g>
<!-- Node18&#45;&gt;Node27 -->
<g id="edge63" class="edge">
<title>Node18&#45;&gt;Node27</title>
<path fill="none" stroke="#191970" d="M852.6929,-481.3931C869.3418,-473.3419 886.4898,-461.5846 896,-445 912.7964,-415.709 914.641,-384.4473 876,-291 871.8352,-280.928 865.3582,-270.9441 858.9802,-262.4866"/>
<polygon fill="#191970" stroke="#191970" points="861.6779,-260.2555 852.7245,-254.591 856.1913,-264.6026 861.6779,-260.2555"/>
</g>
<!-- Node28 -->
<g id="node29" class="node">
<title>Node28</title>
<g id="a_node29"><a xlink:href="AngularMotionVector3_8h.html" target="_top" xlink:title="iDynTree/Core/AngularMotion\lVector3.h">
<polygon fill="none" stroke="#000000" points="729,-414.5 729,-444.5 887,-444.5 887,-414.5 729,-414.5"/>
<text text-anchor="start" x="737" y="-432.5" font-family="FreeSans.ttf" font-size="10.00" fill="#000000">iDynTree/Core/AngularMotion</text>
<text text-anchor="middle" x="808" y="-421.5" font-family="FreeSans.ttf" font-size="10.00" fill="#000000">Vector3.h</text>
</a>
</g>
</g>
<!-- Node18&#45;&gt;Node28 -->
<g id="edge43" class="edge">
<title>Node18&#45;&gt;Node28</title>
<path fill="none" stroke="#191970" d="M808,-481.2967C808,-473.5013 808,-463.7991 808,-454.9064"/>
<polygon fill="#191970" stroke="#191970" points="811.5001,-454.6431 808,-444.6432 804.5001,-454.6432 811.5001,-454.6431"/>
</g>
<!-- Node29 -->
<g id="node30" class="node">
<title>Node29</title>
<g id="a_node30"><a xlink:href="SpatialVector_8h.html" target="_top" xlink:title="iDynTree/Core/SpatialVector.h">
<polygon fill="none" stroke="#000000" points="303.5,-358.5 303.5,-377.5 464.5,-377.5 464.5,-358.5 303.5,-358.5"/>
<text text-anchor="middle" x="384" y="-365.5" font-family="FreeSans.ttf" font-size="10.00" fill="#000000">iDynTree/Core/SpatialVector.h</text>
</a>
</g>
</g>
<!-- Node18&#45;&gt;Node29 -->
<g id="edge46" class="edge">
<title>Node18&#45;&gt;Node29</title>
<path fill="none" stroke="#191970" d="M730.2876,-485.9186C678.4271,-477.6632 609.1576,-464.3203 550,-445 498.8218,-428.2857 442.6565,-399.9572 410.5346,-382.7161"/>
<polygon fill="#191970" stroke="#191970" points="411.829,-379.4365 401.3698,-377.7465 408.4922,-385.5901 411.829,-379.4365"/>
</g>
<!-- Node20 -->
<g id="node21" class="node">
<title>Node20</title>
<g id="a_node21"><a xlink:href="MotionVector3_8h.html" target="_top" xlink:title="iDynTree/Core/MotionVector3.h">
<polygon fill="none" stroke="#000000" points="682.5,-358.5 682.5,-377.5 849.5,-377.5 849.5,-358.5 682.5,-358.5"/>
<text text-anchor="middle" x="766" y="-365.5" font-family="FreeSans.ttf" font-size="10.00" fill="#000000">iDynTree/Core/MotionVector3.h</text>
</a>
</g>
</g>
<!-- Node19&#45;&gt;Node20 -->
<g id="edge23" class="edge">
<title>Node19&#45;&gt;Node20</title>
<path fill="none" stroke="#191970" d="M667.0462,-414.4554C688.2328,-404.509 715.8028,-391.5659 736.4588,-381.8686"/>
<polygon fill="#191970" stroke="#191970" points="738.1349,-384.9483 745.6996,-377.5303 735.1601,-378.6118 738.1349,-384.9483"/>
</g>
<!-- Node19&#45;&gt;Node27 -->
<g id="edge42" class="edge">
<title>Node19&#45;&gt;Node27</title>
<path fill="none" stroke="#191970" d="M639.6408,-414.2488C645.288,-398.1299 656.3216,-373.007 674,-358 710.9693,-326.6173 737.8528,-350.6199 777,-322 798.0615,-306.6023 815.223,-282.0284 826.1068,-263.6995"/>
<polygon fill="#191970" stroke="#191970" points="829.2895,-265.1843 831.2134,-254.7656 823.2122,-261.7104 829.2895,-265.1843"/>
</g>
<!-- Node21 -->
<g id="node22" class="node">
<title>Node21</title>
<g id="a_node22"><a xlink:href="GeomVector3_8h.html" target="_top" xlink:title="iDynTree/Core/GeomVector3.h">
<polygon fill="none" stroke="#000000" points="571.5,-297 571.5,-316 734.5,-316 734.5,-297 571.5,-297"/>
<text text-anchor="middle" x="653" y="-304" font-family="FreeSans.ttf" font-size="10.00" fill="#000000">iDynTree/Core/GeomVector3.h</text>
</a>
</g>
</g>
<!-- Node20&#45;&gt;Node21 -->
<g id="edge24" class="edge">
<title>Node20&#45;&gt;Node21</title>
<path fill="none" stroke="#191970" d="M748.3438,-358.3906C729.8514,-348.3262 700.599,-332.4057 679.3692,-320.8514"/>
<polygon fill="#191970" stroke="#191970" points="680.9888,-317.7481 670.5323,-316.0419 677.6425,-323.8965 680.9888,-317.7481"/>
</g>
<!-- Node20&#45;&gt;Node27 -->
<g id="edge41" class="edge">
<title>Node20&#45;&gt;Node27</title>
<path fill="none" stroke="#191970" d="M779.9849,-358.2073C791.0065,-349.7961 805.9733,-336.7219 815,-322 825.7832,-304.4134 831.9199,-281.7513 835.2834,-264.63"/>
<polygon fill="#191970" stroke="#191970" points="838.73,-265.2391 837.0361,-254.7805 831.8382,-264.0127 838.73,-265.2391"/>
</g>
<!-- Node21&#45;&gt;Node2 -->
<g id="edge25" class="edge">
<title>Node21&#45;&gt;Node2</title>
<path fill="none" stroke="#191970" d="M663.338,-296.9757C684.6747,-277.4887 733.2414,-234.0534 753,-224 785.3953,-207.517 824.1705,-196.6143 857.3361,-189.5809"/>
<polygon fill="#191970" stroke="#191970" points="858.337,-192.9488 867.4354,-187.5204 856.9376,-186.0901 858.337,-192.9488"/>
</g>
<!-- Node22 -->
<g id="node23" class="node">
<title>Node22</title>
<g id="a_node23"><a xlink:href="Rotation_8h.html" target="_top" xlink:title="iDynTree/Core/Rotation.h">
<polygon fill="none" stroke="#000000" points="279.5,-230 279.5,-249 416.5,-249 416.5,-230 279.5,-230"/>
<text text-anchor="middle" x="348" y="-237" font-family="FreeSans.ttf" font-size="10.00" fill="#000000">iDynTree/Core/Rotation.h</text>
</a>
</g>
</g>
<!-- Node21&#45;&gt;Node22 -->
<g id="edge26" class="edge">
<title>Node21&#45;&gt;Node22</title>
<path fill="none" stroke="#191970" d="M609.6248,-296.9717C554.8998,-284.9501 460.8033,-264.2797 401.625,-251.2799"/>
<polygon fill="#191970" stroke="#191970" points="402.2374,-247.8311 391.7193,-249.1039 400.7355,-254.6681 402.2374,-247.8311"/>
</g>
<!-- Node21&#45;&gt;Node27 -->
<g id="edge40" class="edge">
<title>Node21&#45;&gt;Node27</title>
<path fill="none" stroke="#191970" d="M679.6493,-296.9005C707.7456,-286.7798 752.7005,-270.5864 787.7095,-257.9756"/>
<polygon fill="#191970" stroke="#191970" points="789.0757,-261.2037 797.2978,-254.5218 786.7034,-254.6179 789.0757,-261.2037"/>
</g>
<!-- Node22&#45;&gt;Node2 -->
<g id="edge39" class="edge">
<title>Node22&#45;&gt;Node2</title>
<path fill="none" stroke="#191970" d="M416.3425,-229.9649C431.9895,-227.894 448.5602,-225.7898 464,-224 594.8687,-208.8297 746.7075,-194.5069 841.0795,-185.9909"/>
<polygon fill="#191970" stroke="#191970" points="841.5168,-189.4658 851.1628,-185.0834 840.8893,-182.494 841.5168,-189.4658"/>
</g>
<!-- Node22&#45;&gt;Node14 -->
<g id="edge27" class="edge">
<title>Node22&#45;&gt;Node14</title>
<path fill="none" stroke="#191970" d="M338.5162,-229.9695C317.2998,-207.488 270.0613,-150.1725 299,-112 314.8849,-91.0465 387.8422,-77.0064 430.9127,-70.3861"/>
<polygon fill="#191970" stroke="#191970" points="431.5316,-73.8327 440.9082,-68.9002 430.5022,-66.9088 431.5316,-73.8327"/>
</g>
<!-- Node22&#45;&gt;Node23 -->
<g id="edge28" class="edge">
<title>Node22&#45;&gt;Node23</title>
<path fill="none" stroke="#191970" d="M364.7188,-229.8906C382.0722,-219.9165 409.4323,-204.1908 429.4882,-192.6633"/>
<polygon fill="#191970" stroke="#191970" points="431.4728,-195.5596 438.3987,-187.5419 427.9846,-189.4907 431.4728,-195.5596"/>
</g>
<!-- Node26 -->
<g id="node27" class="node">
<title>Node26</title>
<g id="a_node27"><a xlink:href="RotationSemantics_8h.html" target="_top" xlink:title="iDynTree/Core/RotationSemantics.h">
<polygon fill="none" stroke="#000000" points="308,-112.5 308,-131.5 496,-131.5 496,-112.5 308,-112.5"/>
<text text-anchor="middle" x="402" y="-119.5" font-family="FreeSans.ttf" font-size="10.00" fill="#000000">iDynTree/Core/RotationSemantics.h</text>
</a>
</g>
</g>
<!-- Node22&#45;&gt;Node26 -->
<g id="edge37" class="edge">
<title>Node22&#45;&gt;Node26</title>
<path fill="none" stroke="#191970" d="M349.3426,-229.8274C351.5732,-215.6785 356.8384,-188.7663 367,-168 371.9758,-157.8314 379.363,-147.692 386.07,-139.5307"/>
<polygon fill="#191970" stroke="#191970" points="388.8275,-141.6918 392.6836,-131.8236 383.5153,-137.1332 388.8275,-141.6918"/>
</g>
<!-- Node23&#45;&gt;Node14 -->
<g id="edge36" class="edge">
<title>Node23&#45;&gt;Node14</title>
<path fill="none" stroke="#191970" d="M471.4177,-168.2212C483.2076,-160.1641 498.1747,-147.5536 505,-132 512.9664,-113.846 498.1931,-94.9368 484.0221,-82.0357"/>
<polygon fill="#191970" stroke="#191970" points="486.2477,-79.334 476.3595,-75.5295 481.717,-84.67 486.2477,-79.334"/>
</g>
<!-- Node24 -->
<g id="node25" class="node">
<title>Node24</title>
<g id="a_node25"><a xlink:href="MatrixFixSize_8h.html" target="_top" xlink:title="iDynTree/Core/MatrixFixSize.h">
<polygon fill="none" stroke="#000000" points="666.5,-112.5 666.5,-131.5 827.5,-131.5 827.5,-112.5 666.5,-112.5"/>
<text text-anchor="middle" x="747" y="-119.5" font-family="FreeSans.ttf" font-size="10.00" fill="#000000">iDynTree/Core/MatrixFixSize.h</text>
</a>
</g>
</g>
<!-- Node23&#45;&gt;Node24 -->
<g id="edge29" class="edge">
<title>Node23&#45;&gt;Node24</title>
<path fill="none" stroke="#191970" d="M504.8648,-168.4369C555.3633,-158.7522 633.4835,-143.7703 687.2605,-133.4569"/>
<polygon fill="#191970" stroke="#191970" points="688.1791,-136.8446 697.3409,-131.5237 686.8606,-129.9699 688.1791,-136.8446"/>
</g>
<!-- Node24&#45;&gt;Node3 -->
<g id="edge30" class="edge">
<title>Node24&#45;&gt;Node3</title>
<path fill="none" stroke="#191970" d="M735.6779,-112.2455C726.0777,-103.9746 712.1108,-91.9416 700.8305,-82.2232"/>
<polygon fill="#191970" stroke="#191970" points="703.053,-79.5182 693.1924,-75.6427 698.484,-84.8214 703.053,-79.5182"/>
</g>
<!-- Node24&#45;&gt;Node6 -->
<g id="edge31" class="edge">
<title>Node24&#45;&gt;Node6</title>
<path fill="none" stroke="#191970" d="M778.115,-112.3733C809.8084,-102.5676 858.8989,-87.3793 892.1904,-77.0792"/>
<polygon fill="#191970" stroke="#191970" points="893.4596,-80.3503 901.9783,-74.0509 891.3906,-73.663 893.4596,-80.3503"/>
</g>
<!-- Node24&#45;&gt;Node14 -->
<g id="edge33" class="edge">
<title>Node24&#45;&gt;Node14</title>
<path fill="none" stroke="#191970" d="M698.5014,-112.4369C640.3747,-100.9753 544.6202,-82.0941 495.016,-72.313"/>
<polygon fill="#191970" stroke="#191970" points="495.6499,-68.8707 485.1616,-70.3699 494.2956,-75.7384 495.6499,-68.8707"/>
</g>
<!-- Node24&#45;&gt;Node15 -->
<g id="edge35" class="edge">
<title>Node24&#45;&gt;Node15</title>
<path fill="none" stroke="#191970" d="M765.9864,-112.2455C783.1792,-103.4125 808.7238,-90.2887 828.2132,-80.2758"/>
<polygon fill="#191970" stroke="#191970" points="829.9359,-83.3257 837.2312,-75.6427 826.737,-77.0993 829.9359,-83.3257"/>
</g>
<!-- Node24&#45;&gt;Node16 -->
<g id="edge32" class="edge">
<title>Node24&#45;&gt;Node16</title>
<path fill="none" stroke="#191970" d="M753.6191,-112.2455C758.9046,-104.4564 766.4541,-93.3308 772.8238,-83.9439"/>
<polygon fill="#191970" stroke="#191970" points="775.7379,-85.8827 778.4568,-75.6427 769.9455,-81.9522 775.7379,-85.8827"/>
</g>
<!-- Node25 -->
<g id="node26" class="node">
<title>Node25</title>
<polygon fill="none" stroke="#bfbfbf" points="136,-56.5 136,-75.5 196,-75.5 196,-56.5 136,-56.5"/>
<text text-anchor="middle" x="166" y="-63.5" font-family="FreeSans.ttf" font-size="10.00" fill="#000000">iostream</text>
</g>
<!-- Node24&#45;&gt;Node25 -->
<g id="edge34" class="edge">
<title>Node24&#45;&gt;Node25</title>
<path fill="none" stroke="#191970" d="M666.2144,-114.2134C540.1395,-102.0616 301.2238,-79.0336 206.3249,-69.8867"/>
<polygon fill="#191970" stroke="#191970" points="206.5628,-66.3935 196.2731,-68.9179 205.8911,-73.3612 206.5628,-66.3935"/>
</g>
<!-- Node26&#45;&gt;Node14 -->
<g id="edge38" class="edge">
<title>Node26&#45;&gt;Node14</title>
<path fill="none" stroke="#191970" d="M412.6254,-112.2455C421.5473,-104.0549 434.488,-92.1749 445.0192,-82.5069"/>
<polygon fill="#191970" stroke="#191970" points="447.4968,-84.9837 452.4964,-75.6427 442.7629,-79.8271 447.4968,-84.9837"/>
</g>
<!-- Node28&#45;&gt;Node20 -->
<g id="edge44" class="edge">
<title>Node28&#45;&gt;Node20</title>
<path fill="none" stroke="#191970" d="M797.618,-414.2977C791.8487,-405.8498 784.6284,-395.2773 778.5447,-386.369"/>
<polygon fill="#191970" stroke="#191970" points="781.2547,-384.1311 772.7247,-377.8469 775.4741,-388.0788 781.2547,-384.1311"/>
</g>
<!-- Node28&#45;&gt;Node27 -->
<g id="edge45" class="edge">
<title>Node28&#45;&gt;Node27</title>
<path fill="none" stroke="#191970" d="M829.4314,-414.4899C840.5194,-405.3676 852.9684,-392.6627 859,-378 874.4752,-340.3804 861.1515,-292.723 850.0808,-264.2514"/>
<polygon fill="#191970" stroke="#191970" points="853.1912,-262.6109 846.1616,-254.684 846.7136,-265.2645 853.1912,-262.6109"/>
</g>
<!-- Node29&#45;&gt;Node3 -->
<g id="edge57" class="edge">
<title>Node29&#45;&gt;Node3</title>
<path fill="none" stroke="#191970" d="M400.083,-358.2954C426.3773,-342.6983 480.5059,-311.708 529,-291 575.9195,-270.9644 605.3138,-294.1724 638,-255 679.1149,-205.7264 638.4278,-173.1167 658,-112 661.0408,-102.5046 665.9388,-92.6208 670.5195,-84.4595"/>
<polygon fill="#191970" stroke="#191970" points="673.5624,-86.1897 675.6209,-75.7967 667.5306,-82.6376 673.5624,-86.1897"/>
</g>
<!-- Node29&#45;&gt;Node15 -->
<g id="edge62" class="edge">
<title>Node29&#45;&gt;Node15</title>
<path fill="none" stroke="#191970" d="M416.3196,-358.4632C442.6667,-350.2006 480.531,-337.2012 512,-322 535.5438,-310.6271 538.4964,-302.4558 562,-291 603.7107,-270.6701 618.8353,-276.4138 660,-255 670.6231,-249.4739 830.0239,-141.7326 837,-132 846.7565,-118.3883 851.5265,-99.8458 853.8448,-85.8804"/>
<polygon fill="#191970" stroke="#191970" points="857.33,-86.2272 855.2269,-75.8432 850.3955,-85.2723 857.33,-86.2272"/>
</g>
<!-- Node29&#45;&gt;Node22 -->
<g id="edge55" class="edge">
<title>Node29&#45;&gt;Node22</title>
<path fill="none" stroke="#191970" d="M387.028,-358.1874C391.1227,-343.2245 397.043,-314.0163 389,-291 384.4512,-277.9829 375.0826,-265.796 366.448,-256.5484"/>
<polygon fill="#191970" stroke="#191970" points="368.7162,-253.8652 359.1885,-249.2313 363.7469,-258.7953 368.7162,-253.8652"/>
</g>
<!-- Node29&#45;&gt;Node25 -->
<g id="edge61" class="edge">
<title>Node29&#45;&gt;Node25</title>
<path fill="none" stroke="#191970" d="M303.1985,-359.9681C231.5012,-351.9525 132.7469,-338.4748 97,-322 45.6009,-298.3115 0,-296.0952 0,-239.5 0,-239.5 0,-239.5 0,-178 0,-117.3412 77.1111,-87.3409 126.2215,-74.3854"/>
<polygon fill="#191970" stroke="#191970" points="127.0918,-77.7756 135.9387,-71.946 125.3874,-70.9863 127.0918,-77.7756"/>
</g>
<!-- Node29&#45;&gt;Node27 -->
<g id="edge56" class="edge">
<title>Node29&#45;&gt;Node27</title>
<path fill="none" stroke="#191970" d="M464.8447,-363.128C555.3357,-356.7229 695.6248,-343.6664 744,-322 760.2096,-314.74 794.1591,-283.414 816.7702,-261.526"/>
<polygon fill="#191970" stroke="#191970" points="819.2456,-264.0007 823.9616,-254.5133 814.3585,-258.9891 819.2456,-264.0007"/>
</g>
<!-- Node30 -->
<g id="node31" class="node">
<title>Node30</title>
<g id="a_node31"><a xlink:href="Position_8h.html" target="_top" xlink:title="Position.h">
<polygon fill="none" stroke="#000000" points="315.5,-297 315.5,-316 380.5,-316 380.5,-297 315.5,-297"/>
<text text-anchor="middle" x="348" y="-304" font-family="FreeSans.ttf" font-size="10.00" fill="#000000">Position.h</text>
</a>
</g>
</g>
<!-- Node29&#45;&gt;Node30 -->
<g id="edge47" class="edge">
<title>Node29&#45;&gt;Node30</title>
<path fill="none" stroke="#191970" d="M378.375,-358.3906C373.1747,-349.5068 365.3034,-336.0601 358.8767,-325.0811"/>
<polygon fill="#191970" stroke="#191970" points="361.7767,-323.1069 353.7043,-316.2449 355.7356,-326.6432 361.7767,-323.1069"/>
</g>
<!-- Node33 -->
<g id="node34" class="node">
<title>Node33</title>
<g id="a_node34"><a xlink:href="PrivatePreProcessorUtils_8h.html" target="_top" xlink:title="iDynTree/Core/PrivatePre\lProcessorUtils.h">
<polygon fill="none" stroke="#000000" points="31,-224.5 31,-254.5 169,-254.5 169,-224.5 31,-224.5"/>
<text text-anchor="start" x="39" y="-242.5" font-family="FreeSans.ttf" font-size="10.00" fill="#000000">iDynTree/Core/PrivatePre</text>
<text text-anchor="middle" x="100" y="-231.5" font-family="FreeSans.ttf" font-size="10.00" fill="#000000">ProcessorUtils.h</text>
</a>
</g>
</g>
<!-- Node29&#45;&gt;Node33 -->
<g id="edge58" class="edge">
<title>Node29&#45;&gt;Node33</title>
<path fill="none" stroke="#191970" d="M303.2772,-364.2059C233.9077,-359.2061 141.0579,-347.7861 115,-322 100.1219,-307.2772 97.2246,-283.0681 97.5433,-264.6728"/>
<polygon fill="#191970" stroke="#191970" points="101.0417,-264.7891 98.0364,-254.6295 94.0502,-264.4458 101.0417,-264.7891"/>
</g>
<!-- Node34 -->
<g id="node35" class="node">
<title>Node34</title>
<g id="a_node35"><a xlink:href="PrivateSemanticsMacros_8h.html" target="_top" xlink:title="iDynTree/Core/PrivateSemantics\lMacros.h">
<polygon fill="none" stroke="#000000" points="124.5,-291.5 124.5,-321.5 297.5,-321.5 297.5,-291.5 124.5,-291.5"/>
<text text-anchor="start" x="132.5" y="-309.5" font-family="FreeSans.ttf" font-size="10.00" fill="#000000">iDynTree/Core/PrivateSemantics</text>
<text text-anchor="middle" x="211" y="-298.5" font-family="FreeSans.ttf" font-size="10.00" fill="#000000">Macros.h</text>
</a>
</g>
</g>
<!-- Node29&#45;&gt;Node34 -->
<g id="edge59" class="edge">
<title>Node29&#45;&gt;Node34</title>
<path fill="none" stroke="#191970" d="M356.9688,-358.3906C331.9294,-349.4893 294.0043,-336.0073 263.0871,-325.0165"/>
<polygon fill="#191970" stroke="#191970" points="263.9153,-321.5964 253.3206,-321.5446 261.5705,-328.192 263.9153,-321.5964"/>
</g>
<!-- Node30&#45;&gt;Node14 -->
<g id="edge54" class="edge">
<title>Node30&#45;&gt;Node14</title>
<path fill="none" stroke="#191970" d="M321.4841,-296.8573C303.4021,-288.7255 280.8411,-275.1488 270,-255 251.6104,-220.8218 244.5335,-159.1775 287,-112 306.0631,-90.8221 385.6944,-76.645 431.0385,-70.1214"/>
<polygon fill="#191970" stroke="#191970" points="431.5452,-73.5846 440.9657,-68.7365 430.578,-66.6518 431.5452,-73.5846"/>
</g>
<!-- Node30&#45;&gt;Node22 -->
<g id="edge53" class="edge">
<title>Node30&#45;&gt;Node22</title>
<path fill="none" stroke="#191970" d="M348,-296.9005C348,-287.149 348,-271.7597 348,-259.3695"/>
<polygon fill="#191970" stroke="#191970" points="351.5001,-259.0816 348,-249.0817 344.5001,-259.0817 351.5001,-259.0816"/>
</g>
<!-- Node31 -->
<g id="node32" class="node">
<title>Node31</title>
<g id="a_node32"><a xlink:href="PositionRaw_8h.html" target="_top" xlink:title="iDynTree/Core/PositionRaw.h">
<polygon fill="none" stroke="#000000" points="473,-230 473,-249 629,-249 629,-230 473,-230"/>
<text text-anchor="middle" x="551" y="-237" font-family="FreeSans.ttf" font-size="10.00" fill="#000000">iDynTree/Core/PositionRaw.h</text>
</a>
</g>
</g>
<!-- Node30&#45;&gt;Node31 -->
<g id="edge48" class="edge">
<title>Node30&#45;&gt;Node31</title>
<path fill="none" stroke="#191970" d="M377.085,-296.9005C412.6604,-285.1589 473.0008,-265.2436 512.4245,-252.2318"/>
<polygon fill="#191970" stroke="#191970" points="513.5698,-255.5396 521.969,-249.0817 511.3759,-248.8923 513.5698,-255.5396"/>
</g>
<!-- Node32 -->
<g id="node33" class="node">
<title>Node32</title>
<g id="a_node33"><a xlink:href="PositionSemantics_8h.html" target="_top" xlink:title="iDynTree/Core/PositionSemantics.h">
<polygon fill="none" stroke="#000000" points="27.5,-168.5 27.5,-187.5 214.5,-187.5 214.5,-168.5 27.5,-168.5"/>
<text text-anchor="middle" x="121" y="-175.5" font-family="FreeSans.ttf" font-size="10.00" fill="#000000">iDynTree/Core/PositionSemantics.h</text>
</a>
</g>
</g>
<!-- Node30&#45;&gt;Node32 -->
<g id="edge51" class="edge">
<title>Node30&#45;&gt;Node32</title>
<path fill="none" stroke="#191970" d="M323.9787,-296.9175C294.1533,-284.894 245.12,-264.6796 228,-255 195.7504,-236.7662 161.503,-210.8046 140.6788,-194.1785"/>
<polygon fill="#191970" stroke="#191970" points="142.6006,-191.2319 132.6209,-187.6744 138.2039,-196.6789 142.6006,-191.2319"/>
</g>
<!-- Node31&#45;&gt;Node2 -->
<g id="edge49" class="edge">
<title>Node31&#45;&gt;Node2</title>
<path fill="none" stroke="#191970" d="M610.1132,-229.9581C678.4851,-218.9217 790.882,-200.7789 863.1407,-189.1151"/>
<polygon fill="#191970" stroke="#191970" points="863.7471,-192.5626 873.0616,-187.5137 862.6316,-185.652 863.7471,-192.5626"/>
</g>
<!-- Node31&#45;&gt;Node14 -->
<g id="edge50" class="edge">
<title>Node31&#45;&gt;Node14</title>
<path fill="none" stroke="#191970" d="M551.2071,-229.8021C551.2095,-206.9587 548.3325,-148.9178 521,-112 512.0419,-99.9004 499.1379,-89.2424 487.7747,-81.2401"/>
<polygon fill="#191970" stroke="#191970" points="489.7275,-78.3356 479.4765,-75.6585 485.8207,-84.1439 489.7275,-78.3356"/>
</g>
<!-- Node32&#45;&gt;Node14 -->
<g id="edge52" class="edge">
<title>Node32&#45;&gt;Node14</title>
<path fill="none" stroke="#191970" d="M133.3802,-168.2725C152.5328,-153.7272 191.0081,-126.4756 228,-112 297.319,-84.8743 384.632,-73.1904 430.8575,-68.6173"/>
<polygon fill="#191970" stroke="#191970" points="431.2557,-72.0954 440.8839,-67.6741 430.6,-65.1262 431.2557,-72.0954"/>
</g>
<!-- Node34&#45;&gt;Node33 -->
<g id="edge60" class="edge">
<title>Node34&#45;&gt;Node33</title>
<path fill="none" stroke="#191970" d="M186.0894,-291.4639C170.7729,-282.2188 150.9361,-270.2452 134.1651,-260.1222"/>
<polygon fill="#191970" stroke="#191970" points="135.5815,-256.889 125.2115,-254.7177 131.9641,-262.8819 135.5815,-256.889"/>
</g>
<!-- Node35&#45;&gt;Node18 -->
<g id="edge65" class="edge">
<title>Node35&#45;&gt;Node18</title>
<path fill="none" stroke="#191970" d="M710.9688,-548.3906C726.9649,-539.8361 750.8723,-527.0509 770.953,-516.3121"/>
<polygon fill="#191970" stroke="#191970" points="772.7002,-519.3469 779.8678,-511.5446 769.399,-513.1741 772.7002,-519.3469"/>
</g>
</g>
</svg>
