<?xml version="1.0" encoding="UTF-8" standalone="no"?>
<!DOCTYPE svg PUBLIC "-//W3C//DTD SVG 1.1//EN"
 "http://www.w3.org/Graphics/SVG/1.1/DTD/svg11.dtd">
<!-- Generated by graphviz version 2.40.1 (20161225.0304)
 -->
<!-- Title: iDynTree::GeomVector3 Pages: 1 -->
<svg width="139pt" height="163pt"
 viewBox="0.00 0.00 139.00 163.00" xmlns="http://www.w3.org/2000/svg" xmlns:xlink="http://www.w3.org/1999/xlink">
<g id="graph0" class="graph" transform="scale(1 1) rotate(0) translate(4 159)">
<title>iDynTree::GeomVector3</title>
<!-- Node15 -->
<g id="node1" class="node">
<title>Node15</title>
<polygon fill="#bfbfbf" stroke="#000000" points="0,-.5 0,-19.5 131,-19.5 131,-.5 0,-.5"/>
<text text-anchor="middle" x="65.5" y="-7.5" font-family="FreeSans.ttf" font-size="10.00" fill="#000000">iDynTree::GeomVector3</text>
</g>
<!-- Node16 -->
<g id="node2" class="node">
<title>Node16</title>
<g id="a_node2"><a xlink:href="classiDynTree_1_1VectorFixSize.html" target="_top" xlink:title="Vector3">
<polygon fill="none" stroke="#000000" points="39,-57.5 39,-76.5 92,-76.5 92,-57.5 39,-57.5"/>
<text text-anchor="middle" x="65.5" y="-64.5" font-family="FreeSans.ttf" font-size="10.00" fill="#000000">Vector3</text>
</a>
</g>
</g>
<!-- Node16&#45;&gt;Node15 -->
<g id="edge1" class="edge">
<title>Node16&#45;&gt;Node15</title>
<path fill="none" stroke="#191970" d="M65.5,-47.2342C65.5,-37.8491 65.5,-27.0651 65.5,-19.5265"/>
<polygon fill="#191970" stroke="#191970" points="62.0001,-47.3307 65.5,-57.3307 69.0001,-47.3308 62.0001,-47.3307"/>
</g>
<!-- Node17 -->
<g id="node3" class="node">
<title>Node17</title>
<g id="a_node3"><a xlink:href="classiDynTree_1_1VectorFixSize.html" target="_top" xlink:title="Class providing a simple vector of N elements. ">
<polygon fill="none" stroke="#000000" points=".5,-124.5 .5,-154.5 130.5,-154.5 130.5,-124.5 .5,-124.5"/>
<text text-anchor="start" x="8.5" y="-142.5" font-family="FreeSans.ttf" font-size="10.00" fill="#000000">iDynTree::VectorFixSize</text>
<text text-anchor="middle" x="65.5" y="-131.5" font-family="FreeSans.ttf" font-size="10.00" fill="#000000">&lt; VecSize &gt;</text>
</a>
</g>
</g>
<!-- Node17&#45;&gt;Node16 -->
<g id="edge2" class="edge">
<title>Node17&#45;&gt;Node16</title>
<path fill="none" stroke="#ffa500" stroke-dasharray="5,2" d="M65.5,-114.305C65.5,-101.424 65.5,-86.4836 65.5,-76.8957"/>
<polygon fill="#ffa500" stroke="#ffa500" points="62.0001,-114.4779 65.5,-124.478 69.0001,-114.478 62.0001,-114.4779"/>
<text text-anchor="middle" x="81.5" y="-98" font-family="FreeSans.ttf" font-size="10.00" fill="#000000"> &lt; 3 &gt;</text>
</g>
</g>
</svg>
