<?xml version="1.0" encoding="UTF-8" standalone="no"?>
<!DOCTYPE svg PUBLIC "-//W3C//DTD SVG 1.1//EN"
 "http://www.w3.org/Graphics/SVG/1.1/DTD/svg11.dtd">
<!-- Generated by graphviz version 2.40.1 (20161225.0304)
 -->
<!-- Title: iDynTree::LinearMotionVector3Semantics Pages: 1 -->
<svg width="280pt" height="174pt"
 viewBox="0.00 0.00 280.00 174.00" xmlns="http://www.w3.org/2000/svg" xmlns:xlink="http://www.w3.org/1999/xlink">
<g id="graph0" class="graph" transform="scale(1 1) rotate(0) translate(4 170)">
<title>iDynTree::LinearMotionVector3Semantics</title>
<!-- Node0 -->
<g id="node1" class="node">
<title>Node0</title>
<polygon fill="#bfbfbf" stroke="#000000" points="12.5,-.5 12.5,-30.5 177.5,-30.5 177.5,-.5 12.5,-.5"/>
<text text-anchor="start" x="20.5" y="-18.5" font-family="FreeSans.ttf" font-size="10.00" fill="#000000">iDynTree::LinearMotionVector3</text>
<text text-anchor="middle" x="95" y="-7.5" font-family="FreeSans.ttf" font-size="10.00" fill="#000000">Semantics</text>
</g>
<!-- Node1 -->
<g id="node2" class="node">
<title>Node1</title>
<g id="a_node2"><a xlink:href="classiDynTree_1_1GeomVector3Semantics.html" target="_top" xlink:title="iDynTree::GeomVector3Semantics\l\&lt; LinearMotionVector3Semantics \&gt;">
<polygon fill="none" stroke="#000000" points="0,-68.5 0,-98.5 190,-98.5 190,-68.5 0,-68.5"/>
<text text-anchor="start" x="8" y="-86.5" font-family="FreeSans.ttf" font-size="10.00" fill="#000000">iDynTree::GeomVector3Semantics</text>
<text text-anchor="middle" x="95" y="-75.5" font-family="FreeSans.ttf" font-size="10.00" fill="#000000">&lt; LinearMotionVector3Semantics &gt;</text>
</a>
</g>
</g>
<!-- Node1&#45;&gt;Node0 -->
<g id="edge1" class="edge">
<title>Node1&#45;&gt;Node0</title>
<path fill="none" stroke="#191970" d="M95,-58.1174C95,-48.8378 95,-38.6413 95,-30.5492"/>
<polygon fill="#191970" stroke="#191970" points="91.5001,-58.4086 95,-68.4086 98.5001,-58.4086 91.5001,-58.4086"/>
</g>
<!-- Node2 -->
<g id="node3" class="node">
<title>Node2</title>
<g id="a_node3"><a xlink:href="classiDynTree_1_1GeomVector3Semantics.html" target="_top" xlink:title="Template class providing the semantics for any geometric relation vector. ">
<polygon fill="none" stroke="#000000" points="4,-146.5 4,-165.5 186,-165.5 186,-146.5 4,-146.5"/>
<text text-anchor="middle" x="95" y="-153.5" font-family="FreeSans.ttf" font-size="10.00" fill="#000000">iDynTree::GeomVector3Semantics</text>
</a>
</g>
</g>
<!-- Node2&#45;&gt;Node1 -->
<g id="edge2" class="edge">
<title>Node2&#45;&gt;Node1</title>
<path fill="none" stroke="#ffa500" stroke-dasharray="5,2" d="M95,-136.0177C95,-124.2164 95,-109.513 95,-98.668"/>
<polygon fill="#ffa500" stroke="#ffa500" points="91.5001,-136.2223 95,-146.2223 98.5001,-136.2224 91.5001,-136.2223"/>
<text text-anchor="middle" x="183.5" y="-120" font-family="FreeSans.ttf" font-size="10.00" fill="#000000"> &lt; LinearMotionVector3Semantics &gt;</text>
</g>
</g>
</svg>
