<?xml version="1.0" encoding="UTF-8" standalone="no"?>
<!DOCTYPE svg PUBLIC "-//W3C//DTD SVG 1.1//EN"
 "http://www.w3.org/Graphics/SVG/1.1/DTD/svg11.dtd">
<!-- Generated by graphviz version 2.40.1 (20161225.0304)
 -->
<!-- Title: iDynTree::SpatialVector Pages: 1 -->
<svg width="856pt" height="116pt"
 viewBox="0.00 0.00 856.00 115.50" xmlns="http://www.w3.org/2000/svg" xmlns:xlink="http://www.w3.org/1999/xlink">
<g id="graph0" class="graph" transform="scale(1 1) rotate(0) translate(4 111.5)">
<title>iDynTree::SpatialVector</title>
<!-- Node9 -->
<g id="node1" class="node">
<title>Node9</title>
<polygon fill="#bfbfbf" stroke="#000000" points="718,-47 718,-66 848,-66 848,-47 718,-47"/>
<text text-anchor="middle" x="783" y="-54" font-family="FreeSans.ttf" font-size="10.00" fill="#000000">iDynTree::SpatialVector</text>
</g>
<!-- Node10 -->
<g id="node2" class="node">
<title>Node10</title>
<g id="a_node2"><a xlink:href="classiDynTree_1_1SpatialMotionForceVectorT__traits.html" target="_top" xlink:title="iDynTree::SpatialMotionForce\lVectorT_traits\&lt; DerivedSpatialVecT \&gt;">
<polygon fill="none" stroke="#000000" points="408.5,-71.5 408.5,-101.5 610.5,-101.5 610.5,-71.5 408.5,-71.5"/>
<text text-anchor="start" x="416.5" y="-89.5" font-family="FreeSans.ttf" font-size="10.00" fill="#000000">iDynTree::SpatialMotionForce</text>
<text text-anchor="middle" x="509.5" y="-78.5" font-family="FreeSans.ttf" font-size="10.00" fill="#000000">VectorT_traits&lt; DerivedSpatialVecT &gt;</text>
</a>
</g>
</g>
<!-- Node10&#45;&gt;Node9 -->
<g id="edge1" class="edge">
<title>Node10&#45;&gt;Node9</title>
<path fill="none" stroke="#9a32cd" stroke-dasharray="5,2" d="M620.705,-74.302C653.6212,-70.6915 688.5848,-66.8563 717.5972,-63.674"/>
<polygon fill="#9a32cd" stroke="#9a32cd" points="620.123,-70.8448 610.5642,-75.4143 620.8863,-77.803 620.123,-70.8448"/>
<text text-anchor="middle" x="669.5" y="-85.5" font-family="FreeSans.ttf" font-size="10.00" fill="#000000"> linearVec3</text>
<text text-anchor="middle" x="669.5" y="-74.5" font-family="FreeSans.ttf" font-size="10.00" fill="#000000">angularVec3</text>
</g>
<!-- Node11 -->
<g id="node3" class="node">
<title>Node11</title>
<g id="a_node3"><a xlink:href="classiDynTree_1_1SpatialMotionForceVectorT__traits.html" target="_top" xlink:title="Traits class for SpatialMotionVector and SpatialForceVector classes. ">
<polygon fill="none" stroke="#000000" points="0,-66 0,-107 188,-107 188,-66 0,-66"/>
<text text-anchor="start" x="8" y="-95" font-family="FreeSans.ttf" font-size="10.00" fill="#000000">iDynTree::SpatialMotionForce</text>
<text text-anchor="start" x="8" y="-84" font-family="FreeSans.ttf" font-size="10.00" fill="#000000">VectorT_traits&lt; SpatialMotionForce</text>
<text text-anchor="middle" x="94" y="-73" font-family="FreeSans.ttf" font-size="10.00" fill="#000000">VectorT &gt;</text>
</a>
</g>
</g>
<!-- Node11&#45;&gt;Node10 -->
<g id="edge2" class="edge">
<title>Node11&#45;&gt;Node10</title>
<path fill="none" stroke="#ffa500" stroke-dasharray="5,2" d="M198.1801,-86.5C262.4471,-86.5 344.4826,-86.5 408.2071,-86.5"/>
<polygon fill="#ffa500" stroke="#ffa500" points="198.0238,-83.0001 188.0238,-86.5 198.0237,-90.0001 198.0238,-83.0001"/>
<text text-anchor="middle" x="293" y="-89.5" font-family="FreeSans.ttf" font-size="10.00" fill="#000000"> &lt; DerivedSpatialVecT &gt;</text>
</g>
<!-- Node12 -->
<g id="node4" class="node">
<title>Node12</title>
<g id="a_node4"><a xlink:href="classiDynTree_1_1SpatialVectorSemantics.html" target="_top" xlink:title="iDynTree::SpatialVectorSemantics\l\&lt; typename LinearVector3T::\lSemanticsType, typename AngularVector3\lT::SemanticsType \&gt;">
<polygon fill="none" stroke="#000000" points="398,-.5 398,-52.5 621,-52.5 621,-.5 398,-.5"/>
<text text-anchor="start" x="406" y="-40.5" font-family="FreeSans.ttf" font-size="10.00" fill="#000000">iDynTree::SpatialVectorSemantics</text>
<text text-anchor="start" x="406" y="-29.5" font-family="FreeSans.ttf" font-size="10.00" fill="#000000">&lt; typename LinearVector3T::</text>
<text text-anchor="start" x="406" y="-18.5" font-family="FreeSans.ttf" font-size="10.00" fill="#000000">SemanticsType, typename AngularVector3</text>
<text text-anchor="middle" x="509.5" y="-7.5" font-family="FreeSans.ttf" font-size="10.00" fill="#000000">T::SemanticsType &gt;</text>
</a>
</g>
</g>
<!-- Node12&#45;&gt;Node9 -->
<g id="edge3" class="edge">
<title>Node12&#45;&gt;Node9</title>
<path fill="none" stroke="#9a32cd" stroke-dasharray="5,2" d="M631.2273,-39.8522C661.1137,-43.1304 691.9689,-46.5149 717.9899,-49.3691"/>
<polygon fill="#9a32cd" stroke="#9a32cd" points="631.4594,-36.3567 621.1374,-38.7454 630.6961,-43.315 631.4594,-36.3567"/>
<text text-anchor="middle" x="669.5" y="-49.5" font-family="FreeSans.ttf" font-size="10.00" fill="#000000"> semantics</text>
</g>
<!-- Node13 -->
<g id="node5" class="node">
<title>Node13</title>
<g id="a_node5"><a xlink:href="classiDynTree_1_1SpatialVectorSemantics.html" target="_top" xlink:title="iDynTree::SpatialVectorSemantics">
<polygon fill="none" stroke="#000000" points="3.5,-17 3.5,-36 184.5,-36 184.5,-17 3.5,-17"/>
<text text-anchor="middle" x="94" y="-24" font-family="FreeSans.ttf" font-size="10.00" fill="#000000">iDynTree::SpatialVectorSemantics</text>
</a>
</g>
</g>
<!-- Node13&#45;&gt;Node12 -->
<g id="edge4" class="edge">
<title>Node13&#45;&gt;Node12</title>
<path fill="none" stroke="#ffa500" stroke-dasharray="5,2" d="M194.7566,-26.5C256.1403,-26.5 334.6639,-26.5 397.9226,-26.5"/>
<polygon fill="#ffa500" stroke="#ffa500" points="194.6698,-23.0001 184.6698,-26.5 194.6698,-30.0001 194.6698,-23.0001"/>
<text text-anchor="start" x="206" y="-51.5" font-family="FreeSans.ttf" font-size="10.00" fill="#000000"> &lt; typename LinearVector3</text>
<text text-anchor="start" x="206" y="-40.5" font-family="FreeSans.ttf" font-size="10.00" fill="#000000">T::SemanticsType, typename</text>
<text text-anchor="middle" x="293" y="-29.5" font-family="FreeSans.ttf" font-size="10.00" fill="#000000"> AngularVector3T::SemanticsType &gt;</text>
</g>
</g>
</svg>
