<?xml version="1.0" encoding="UTF-8" standalone="no"?>
<!DOCTYPE svg PUBLIC "-//W3C//DTD SVG 1.1//EN"
 "http://www.w3.org/Graphics/SVG/1.1/DTD/svg11.dtd">
<!-- Generated by graphviz version 2.40.1 (20161225.0304)
 -->
<!-- Title: iDynTree::VectorFixSize&lt; VecSize &gt; Pages: 1 -->
<svg width="1461pt" height="221pt"
 viewBox="0.00 0.00 1461.00 220.50" xmlns="http://www.w3.org/2000/svg" xmlns:xlink="http://www.w3.org/1999/xlink">
<g id="graph0" class="graph" transform="scale(1 1) rotate(0) translate(4 216.5)">
<title>iDynTree::VectorFixSize&lt; VecSize &gt;</title>
<!-- Node0 -->
<g id="node1" class="node">
<title>Node0</title>
<polygon fill="#bfbfbf" stroke="#000000" points="0,-111.5 0,-141.5 130,-141.5 130,-111.5 0,-111.5"/>
<text text-anchor="start" x="8" y="-129.5" font-family="FreeSans.ttf" font-size="10.00" fill="#000000">iDynTree::VectorFixSize</text>
<text text-anchor="middle" x="65" y="-118.5" font-family="FreeSans.ttf" font-size="10.00" fill="#000000">&lt; VecSize &gt;</text>
</g>
<!-- Node1 -->
<g id="node2" class="node">
<title>Node1</title>
<g id="a_node2"><a xlink:href="classiDynTree_1_1ClassicalAcc.html" target="_top" xlink:title="Class representing a classical 6D acceleration, i.e. ">
<polygon fill="none" stroke="#000000" points="199.5,-193 199.5,-212 354.5,-212 354.5,-193 199.5,-193"/>
<text text-anchor="middle" x="277" y="-200" font-family="FreeSans.ttf" font-size="10.00" fill="#000000">iDynTree::ClassicalAcc&lt; 6 &gt;</text>
</a>
</g>
</g>
<!-- Node0&#45;&gt;Node1 -->
<g id="edge1" class="edge">
<title>Node0&#45;&gt;Node1</title>
<path fill="none" stroke="#191970" d="M105.2968,-145.8821C131.3202,-157.8676 166.1478,-172.9283 198,-183.5 208.7106,-187.0548 220.4419,-190.2433 231.51,-192.9474"/>
<polygon fill="#191970" stroke="#191970" points="106.6728,-142.6621 96.1294,-141.6195 103.7214,-149.0095 106.6728,-142.6621"/>
</g>
<!-- Node2 -->
<g id="node3" class="node">
<title>Node2</title>
<g id="a_node3"><a xlink:href="classiDynTree_1_1Direction.html" target="_top" xlink:title="Class representing the coordinates of a direction in the 3D space. ">
<polygon fill="none" stroke="#000000" points="208,-155 208,-174 346,-174 346,-155 208,-155"/>
<text text-anchor="middle" x="277" y="-162" font-family="FreeSans.ttf" font-size="10.00" fill="#000000">iDynTree::Direction&lt; 3 &gt;</text>
</a>
</g>
</g>
<!-- Node0&#45;&gt;Node2 -->
<g id="edge2" class="edge">
<title>Node0&#45;&gt;Node2</title>
<path fill="none" stroke="#191970" d="M140.0831,-139.9583C167.7425,-144.9161 198.4797,-150.4256 223.8118,-154.9663"/>
<polygon fill="#191970" stroke="#191970" points="140.5084,-136.4788 130.0477,-138.1595 139.2733,-143.369 140.5084,-136.4788"/>
</g>
<!-- Node3 -->
<g id="node4" class="node">
<title>Node3</title>
<g id="a_node4"><a xlink:href="classiDynTree_1_1PositionRaw.html" target="_top" xlink:title="Class providing the raw coordinates for iDynTree::Position class. ">
<polygon fill="none" stroke="#000000" points="200,-117 200,-136 354,-136 354,-117 200,-117"/>
<text text-anchor="middle" x="277" y="-124" font-family="FreeSans.ttf" font-size="10.00" fill="#000000">iDynTree::PositionRaw&lt; 3 &gt;</text>
</a>
</g>
</g>
<!-- Node0&#45;&gt;Node3 -->
<g id="edge3" class="edge">
<title>Node0&#45;&gt;Node3</title>
<path fill="none" stroke="#191970" d="M140.2938,-126.5C159.5954,-126.5 180.3837,-126.5 199.7808,-126.5"/>
<polygon fill="#191970" stroke="#191970" points="140.0478,-123.0001 130.0477,-126.5 140.0477,-130.0001 140.0478,-123.0001"/>
</g>
<!-- Node5 -->
<g id="node6" class="node">
<title>Node5</title>
<g id="a_node6"><a xlink:href="classiDynTree_1_1VectorFixSize.html" target="_top" xlink:title="iDynTree::VectorFixSize\&lt; 3 \&gt;">
<polygon fill="none" stroke="#000000" points="198,-79 198,-98 356,-98 356,-79 198,-79"/>
<text text-anchor="middle" x="277" y="-86" font-family="FreeSans.ttf" font-size="10.00" fill="#000000">iDynTree::VectorFixSize&lt; 3 &gt;</text>
</a>
</g>
</g>
<!-- Node0&#45;&gt;Node5 -->
<g id="edge5" class="edge">
<title>Node0&#45;&gt;Node5</title>
<path fill="none" stroke="#ffa500" stroke-dasharray="5,2" d="M140.3219,-112.8796C142.9125,-112.4137 145.4778,-111.9528 148,-111.5 172.7422,-107.0586 200.1594,-102.1661 223.3325,-98.0395"/>
<polygon fill="#ffa500" stroke="#ffa500" points="139.463,-109.4779 130.2413,-114.6944 140.7033,-116.3672 139.463,-109.4779"/>
<text text-anchor="middle" x="164" y="-114.5" font-family="FreeSans.ttf" font-size="10.00" fill="#000000"> &lt; 3 &gt;</text>
</g>
<!-- Node19 -->
<g id="node20" class="node">
<title>Node19</title>
<g id="a_node20"><a xlink:href="classiDynTree_1_1VectorFixSize.html" target="_top" xlink:title="iDynTree::VectorFixSize\&lt; 4 \&gt;">
<polygon fill="none" stroke="#000000" points="198,-41 198,-60 356,-60 356,-41 198,-41"/>
<text text-anchor="middle" x="277" y="-48" font-family="FreeSans.ttf" font-size="10.00" fill="#000000">iDynTree::VectorFixSize&lt; 4 &gt;</text>
</a>
</g>
</g>
<!-- Node0&#45;&gt;Node19 -->
<g id="edge19" class="edge">
<title>Node0&#45;&gt;Node19</title>
<path fill="none" stroke="#ffa500" stroke-dasharray="5,2" d="M105.0108,-107.1586C131.0514,-95.1222 166.0033,-79.9908 198,-69.5 208.8575,-65.9402 220.7531,-62.7309 231.943,-60.0067"/>
<polygon fill="#ffa500" stroke="#ffa500" points="103.4228,-104.0372 95.842,-111.4387 106.3838,-110.3802 103.4228,-104.0372"/>
<text text-anchor="middle" x="164" y="-91.5" font-family="FreeSans.ttf" font-size="10.00" fill="#000000"> &lt; 4 &gt;</text>
</g>
<!-- Node4 -->
<g id="node5" class="node">
<title>Node4</title>
<g id="a_node5"><a xlink:href="classiDynTree_1_1Position.html" target="_top" xlink:title="Class representation the coordinates of the Position of a point with respect to another point...">
<polygon fill="none" stroke="#000000" points="406.5,-117 406.5,-136 510.5,-136 510.5,-117 406.5,-117"/>
<text text-anchor="middle" x="458.5" y="-124" font-family="FreeSans.ttf" font-size="10.00" fill="#000000">iDynTree::Position</text>
</a>
</g>
</g>
<!-- Node3&#45;&gt;Node4 -->
<g id="edge4" class="edge">
<title>Node3&#45;&gt;Node4</title>
<path fill="none" stroke="#191970" d="M364.5835,-126.5C378.8477,-126.5 393.2164,-126.5 406.2776,-126.5"/>
<polygon fill="#191970" stroke="#191970" points="364.2356,-123.0001 354.2355,-126.5 364.2355,-130.0001 364.2356,-123.0001"/>
</g>
<!-- Node6 -->
<g id="node7" class="node">
<title>Node6</title>
<g id="a_node7"><a xlink:href="classiDynTree_1_1GeomVector3.html" target="_top" xlink:title="Template class providing the raw coordinates and semantics for any geometric relation vector...">
<polygon fill="none" stroke="#000000" points="393,-79 393,-98 524,-98 524,-79 393,-79"/>
<text text-anchor="middle" x="458.5" y="-86" font-family="FreeSans.ttf" font-size="10.00" fill="#000000">iDynTree::GeomVector3</text>
</a>
</g>
</g>
<!-- Node5&#45;&gt;Node6 -->
<g id="edge6" class="edge">
<title>Node5&#45;&gt;Node6</title>
<path fill="none" stroke="#191970" d="M366.2359,-88.5C375.2549,-88.5 384.2939,-88.5 392.9964,-88.5"/>
<polygon fill="#191970" stroke="#191970" points="366.0806,-85.0001 356.0806,-88.5 366.0805,-92.0001 366.0806,-85.0001"/>
</g>
<!-- Node7 -->
<g id="node8" class="node">
<title>Node7</title>
<g id="a_node8"><a xlink:href="classiDynTree_1_1GeomVector3.html" target="_top" xlink:title="iDynTree::GeomVector3\l\&lt; ForceT \&gt;">
<polygon fill="none" stroke="#000000" points="625,-98.5 625,-128.5 756,-128.5 756,-98.5 625,-98.5"/>
<text text-anchor="start" x="633" y="-116.5" font-family="FreeSans.ttf" font-size="10.00" fill="#000000">iDynTree::GeomVector3</text>
<text text-anchor="middle" x="690.5" y="-105.5" font-family="FreeSans.ttf" font-size="10.00" fill="#000000">&lt; ForceT &gt;</text>
</a>
</g>
</g>
<!-- Node6&#45;&gt;Node7 -->
<g id="edge7" class="edge">
<title>Node6&#45;&gt;Node7</title>
<path fill="none" stroke="#ffa500" stroke-dasharray="5,2" d="M534.206,-96.658C563.4135,-99.8053 596.5128,-103.3721 624.7083,-106.4104"/>
<polygon fill="#ffa500" stroke="#ffa500" points="534.3691,-93.1554 524.0516,-95.5638 533.6191,-100.1151 534.3691,-93.1554"/>
<text text-anchor="middle" x="574.5" y="-106.5" font-family="FreeSans.ttf" font-size="10.00" fill="#000000"> &lt; ForceT &gt;</text>
</g>
<!-- Node13 -->
<g id="node14" class="node">
<title>Node13</title>
<g id="a_node14"><a xlink:href="classiDynTree_1_1GeomVector3.html" target="_top" xlink:title="iDynTree::GeomVector3\l\&lt; MotionT \&gt;">
<polygon fill="none" stroke="#000000" points="625,-49.5 625,-79.5 756,-79.5 756,-49.5 625,-49.5"/>
<text text-anchor="start" x="633" y="-67.5" font-family="FreeSans.ttf" font-size="10.00" fill="#000000">iDynTree::GeomVector3</text>
<text text-anchor="middle" x="690.5" y="-56.5" font-family="FreeSans.ttf" font-size="10.00" fill="#000000">&lt; MotionT &gt;</text>
</a>
</g>
</g>
<!-- Node6&#45;&gt;Node13 -->
<g id="edge13" class="edge">
<title>Node6&#45;&gt;Node13</title>
<path fill="none" stroke="#ffa500" stroke-dasharray="5,2" d="M532.0052,-77.6784C535.3812,-77.2627 538.7253,-76.8673 542,-76.5 569.1179,-73.4587 599.1051,-70.8861 624.9911,-68.9124"/>
<polygon fill="#ffa500" stroke="#ffa500" points="531.2953,-74.2406 521.8191,-78.979 532.1819,-81.1842 531.2953,-74.2406"/>
<text text-anchor="middle" x="574.5" y="-79.5" font-family="FreeSans.ttf" font-size="10.00" fill="#000000"> &lt; MotionT &gt;</text>
</g>
<!-- Node8 -->
<g id="node9" class="node">
<title>Node8</title>
<g id="a_node9"><a xlink:href="classiDynTree_1_1ForceVector3.html" target="_top" xlink:title="Class providing the raw coordinates and semantics for any force vector. ">
<polygon fill="none" stroke="#000000" points="796.5,-104 796.5,-123 924.5,-123 924.5,-104 796.5,-104"/>
<text text-anchor="middle" x="860.5" y="-111" font-family="FreeSans.ttf" font-size="10.00" fill="#000000">iDynTree::ForceVector3</text>
</a>
</g>
</g>
<!-- Node7&#45;&gt;Node8 -->
<g id="edge8" class="edge">
<title>Node7&#45;&gt;Node8</title>
<path fill="none" stroke="#191970" d="M766.5225,-113.5C776.4827,-113.5 786.6092,-113.5 796.3467,-113.5"/>
<polygon fill="#191970" stroke="#191970" points="766.2265,-110.0001 756.2264,-113.5 766.2264,-117.0001 766.2265,-110.0001"/>
</g>
<!-- Node9 -->
<g id="node10" class="node">
<title>Node9</title>
<g id="a_node10"><a xlink:href="classiDynTree_1_1ForceVector3.html" target="_top" xlink:title="iDynTree::ForceVector3\l\&lt; LinearForceVector3 \&gt;">
<polygon fill="none" stroke="#000000" points="1104,-147.5 1104,-177.5 1236,-177.5 1236,-147.5 1104,-147.5"/>
<text text-anchor="start" x="1112" y="-165.5" font-family="FreeSans.ttf" font-size="10.00" fill="#000000">iDynTree::ForceVector3</text>
<text text-anchor="middle" x="1170" y="-154.5" font-family="FreeSans.ttf" font-size="10.00" fill="#000000">&lt; LinearForceVector3 &gt;</text>
</a>
</g>
</g>
<!-- Node8&#45;&gt;Node9 -->
<g id="edge9" class="edge">
<title>Node8&#45;&gt;Node9</title>
<path fill="none" stroke="#ffa500" stroke-dasharray="5,2" d="M923.9132,-124.7929C931.3545,-126.0683 938.8425,-127.3291 946,-128.5 998.987,-137.1681 1059.1528,-146.2589 1103.7774,-152.8572"/>
<polygon fill="#ffa500" stroke="#ffa500" points="924.2802,-121.3045 913.8304,-123.0516 923.0889,-128.2024 924.2802,-121.3045"/>
<text text-anchor="middle" x="1012.5" y="-150.5" font-family="FreeSans.ttf" font-size="10.00" fill="#000000"> &lt; LinearForceVector3 &gt;</text>
</g>
<!-- Node11 -->
<g id="node12" class="node">
<title>Node11</title>
<g id="a_node12"><a xlink:href="classiDynTree_1_1ForceVector3.html" target="_top" xlink:title="iDynTree::ForceVector3\l\&lt; AngularForceVector3 \&gt;">
<polygon fill="none" stroke="#000000" points="1100,-98.5 1100,-128.5 1240,-128.5 1240,-98.5 1100,-98.5"/>
<text text-anchor="start" x="1108" y="-116.5" font-family="FreeSans.ttf" font-size="10.00" fill="#000000">iDynTree::ForceVector3</text>
<text text-anchor="middle" x="1170" y="-105.5" font-family="FreeSans.ttf" font-size="10.00" fill="#000000">&lt; AngularForceVector3 &gt;</text>
</a>
</g>
</g>
<!-- Node8&#45;&gt;Node11 -->
<g id="edge11" class="edge">
<title>Node8&#45;&gt;Node11</title>
<path fill="none" stroke="#ffa500" stroke-dasharray="5,2" d="M934.7487,-113.5C984.8389,-113.5 1050.5237,-113.5 1099.753,-113.5"/>
<polygon fill="#ffa500" stroke="#ffa500" points="934.6286,-110.0001 924.6286,-113.5 934.6286,-117.0001 934.6286,-110.0001"/>
<text text-anchor="middle" x="1012.5" y="-116.5" font-family="FreeSans.ttf" font-size="10.00" fill="#000000"> &lt; AngularForceVector3 &gt;</text>
</g>
<!-- Node10 -->
<g id="node11" class="node">
<title>Node10</title>
<g id="a_node11"><a xlink:href="classiDynTree_1_1LinearForceVector3.html" target="_top" xlink:title="Class providing the raw coordinates and semantics for any linear force vector. ">
<polygon fill="none" stroke="#000000" points="1287.5,-153 1287.5,-172 1445.5,-172 1445.5,-153 1287.5,-153"/>
<text text-anchor="middle" x="1366.5" y="-160" font-family="FreeSans.ttf" font-size="10.00" fill="#000000">iDynTree::LinearForceVector3</text>
</a>
</g>
</g>
<!-- Node9&#45;&gt;Node10 -->
<g id="edge10" class="edge">
<title>Node9&#45;&gt;Node10</title>
<path fill="none" stroke="#191970" d="M1246.3797,-162.5C1259.7929,-162.5 1273.779,-162.5 1287.2678,-162.5"/>
<polygon fill="#191970" stroke="#191970" points="1246.252,-159.0001 1236.252,-162.5 1246.252,-166.0001 1246.252,-159.0001"/>
</g>
<!-- Node12 -->
<g id="node13" class="node">
<title>Node12</title>
<g id="a_node13"><a xlink:href="classiDynTree_1_1AngularForceVector3.html" target="_top" xlink:title="Class providing the raw coordinates and semantics for any torque vector. ">
<polygon fill="none" stroke="#000000" points="1283.5,-104 1283.5,-123 1449.5,-123 1449.5,-104 1283.5,-104"/>
<text text-anchor="middle" x="1366.5" y="-111" font-family="FreeSans.ttf" font-size="10.00" fill="#000000">iDynTree::AngularForceVector3</text>
</a>
</g>
</g>
<!-- Node11&#45;&gt;Node12 -->
<g id="edge12" class="edge">
<title>Node11&#45;&gt;Node12</title>
<path fill="none" stroke="#191970" d="M1250.4074,-113.5C1261.264,-113.5 1272.4213,-113.5 1283.3249,-113.5"/>
<polygon fill="#191970" stroke="#191970" points="1250.1088,-110.0001 1240.1088,-113.5 1250.1088,-117.0001 1250.1088,-110.0001"/>
</g>
<!-- Node14 -->
<g id="node15" class="node">
<title>Node14</title>
<g id="a_node15"><a xlink:href="classiDynTree_1_1MotionVector3.html" target="_top" xlink:title="Class providing the raw coordinates and semantics for any motion vector. ">
<polygon fill="none" stroke="#000000" points="793,-55 793,-74 928,-74 928,-55 793,-55"/>
<text text-anchor="middle" x="860.5" y="-62" font-family="FreeSans.ttf" font-size="10.00" fill="#000000">iDynTree::MotionVector3</text>
</a>
</g>
</g>
<!-- Node13&#45;&gt;Node14 -->
<g id="edge14" class="edge">
<title>Node13&#45;&gt;Node14</title>
<path fill="none" stroke="#191970" d="M766.5025,-64.5C775.327,-64.5 784.2824,-64.5 792.9824,-64.5"/>
<polygon fill="#191970" stroke="#191970" points="766.2265,-61.0001 756.2264,-64.5 766.2264,-68.0001 766.2265,-61.0001"/>
</g>
<!-- Node15 -->
<g id="node16" class="node">
<title>Node15</title>
<g id="a_node16"><a xlink:href="classiDynTree_1_1MotionVector3.html" target="_top" xlink:title="iDynTree::MotionVector3\l\&lt; LinearMotionVector3 \&gt;">
<polygon fill="none" stroke="#000000" points="1100.5,-49.5 1100.5,-79.5 1239.5,-79.5 1239.5,-49.5 1100.5,-49.5"/>
<text text-anchor="start" x="1108.5" y="-67.5" font-family="FreeSans.ttf" font-size="10.00" fill="#000000">iDynTree::MotionVector3</text>
<text text-anchor="middle" x="1170" y="-56.5" font-family="FreeSans.ttf" font-size="10.00" fill="#000000">&lt; LinearMotionVector3 &gt;</text>
</a>
</g>
</g>
<!-- Node14&#45;&gt;Node15 -->
<g id="edge15" class="edge">
<title>Node14&#45;&gt;Node15</title>
<path fill="none" stroke="#ffa500" stroke-dasharray="5,2" d="M938.1335,-64.5C988.0135,-64.5 1052.2531,-64.5 1100.4616,-64.5"/>
<polygon fill="#ffa500" stroke="#ffa500" points="938.0387,-61.0001 928.0386,-64.5 938.0386,-68.0001 938.0387,-61.0001"/>
<text text-anchor="middle" x="1012.5" y="-67.5" font-family="FreeSans.ttf" font-size="10.00" fill="#000000"> &lt; LinearMotionVector3 &gt;</text>
</g>
<!-- Node17 -->
<g id="node18" class="node">
<title>Node17</title>
<g id="a_node18"><a xlink:href="classiDynTree_1_1MotionVector3.html" target="_top" xlink:title="iDynTree::MotionVector3\l\&lt; AngularMotionVector3 \&gt;">
<polygon fill="none" stroke="#000000" points="1097,-.5 1097,-30.5 1243,-30.5 1243,-.5 1097,-.5"/>
<text text-anchor="start" x="1105" y="-18.5" font-family="FreeSans.ttf" font-size="10.00" fill="#000000">iDynTree::MotionVector3</text>
<text text-anchor="middle" x="1170" y="-7.5" font-family="FreeSans.ttf" font-size="10.00" fill="#000000">&lt; AngularMotionVector3 &gt;</text>
</a>
</g>
</g>
<!-- Node14&#45;&gt;Node17 -->
<g id="edge17" class="edge">
<title>Node14&#45;&gt;Node17</title>
<path fill="none" stroke="#ffa500" stroke-dasharray="5,2" d="M923.9132,-53.2071C931.3545,-51.9317 938.8425,-50.6709 946,-49.5 996.2697,-41.2764 1053.0008,-32.6724 1096.7925,-26.1772"/>
<polygon fill="#ffa500" stroke="#ffa500" points="923.0889,-49.7976 913.8304,-54.9484 924.2802,-56.6955 923.0889,-49.7976"/>
<text text-anchor="middle" x="1012.5" y="-52.5" font-family="FreeSans.ttf" font-size="10.00" fill="#000000"> &lt; AngularMotionVector3 &gt;</text>
</g>
<!-- Node16 -->
<g id="node17" class="node">
<title>Node16</title>
<g id="a_node17"><a xlink:href="classiDynTree_1_1LinearMotionVector3.html" target="_top" xlink:title="Class providing the raw coordinates and semantics for any linear motion vector. ">
<polygon fill="none" stroke="#000000" points="1284,-55 1284,-74 1449,-74 1449,-55 1284,-55"/>
<text text-anchor="middle" x="1366.5" y="-62" font-family="FreeSans.ttf" font-size="10.00" fill="#000000">iDynTree::LinearMotionVector3</text>
</a>
</g>
</g>
<!-- Node15&#45;&gt;Node16 -->
<g id="edge16" class="edge">
<title>Node15&#45;&gt;Node16</title>
<path fill="none" stroke="#191970" d="M1249.7765,-64.5C1261.0285,-64.5 1272.6159,-64.5 1283.9193,-64.5"/>
<polygon fill="#191970" stroke="#191970" points="1249.5551,-61.0001 1239.5551,-64.5 1249.555,-68.0001 1249.5551,-61.0001"/>
</g>
<!-- Node18 -->
<g id="node19" class="node">
<title>Node18</title>
<g id="a_node19"><a xlink:href="classiDynTree_1_1AngularMotionVector3.html" target="_top" xlink:title="Class providing the raw coordinates and semantics for any angular motion vector. ">
<polygon fill="none" stroke="#000000" points="1280,-6 1280,-25 1453,-25 1453,-6 1280,-6"/>
<text text-anchor="middle" x="1366.5" y="-13" font-family="FreeSans.ttf" font-size="10.00" fill="#000000">iDynTree::AngularMotionVector3</text>
</a>
</g>
</g>
<!-- Node17&#45;&gt;Node18 -->
<g id="edge18" class="edge">
<title>Node17&#45;&gt;Node18</title>
<path fill="none" stroke="#191970" d="M1253.4063,-15.5C1262.2051,-15.5 1271.1666,-15.5 1279.9995,-15.5"/>
<polygon fill="#191970" stroke="#191970" points="1253.1694,-12.0001 1243.1693,-15.5 1253.1693,-19.0001 1253.1694,-12.0001"/>
</g>
</g>
</svg>
