<?xml version="1.0" encoding="UTF-8" standalone="no"?>
<!DOCTYPE svg PUBLIC "-//W3C//DTD SVG 1.1//EN"
 "http://www.w3.org/Graphics/SVG/1.1/DTD/svg11.dtd">
<!-- Generated by graphviz version 2.40.1 (20161225.0304)
 -->
<!-- Title: Constraint.h Pages: 1 -->
<svg width="654pt" height="140pt"
 viewBox="0.00 0.00 653.50 140.00" xmlns="http://www.w3.org/2000/svg" xmlns:xlink="http://www.w3.org/1999/xlink">
<g id="graph0" class="graph" transform="scale(1 1) rotate(0) translate(4 136)">
<title>Constraint.h</title>
<!-- Node13 -->
<g id="node1" class="node">
<title>Node13</title>
<polygon fill="#bfbfbf" stroke="#000000" points="253.5,-112.5 253.5,-131.5 329.5,-131.5 329.5,-112.5 253.5,-112.5"/>
<text text-anchor="middle" x="291.5" y="-119.5" font-family="FreeSans.ttf" font-size="10.00" fill="#000000">Constraint.h</text>
</g>
<!-- Node14 -->
<g id="node2" class="node">
<title>Node14</title>
<g id="a_node2"><a xlink:href="LinearConstraint_8h.html" target="_top" xlink:title="LinearConstraint.h">
<polygon fill="none" stroke="#000000" points="5.5,-56.5 5.5,-75.5 111.5,-75.5 111.5,-56.5 5.5,-56.5"/>
<text text-anchor="middle" x="58.5" y="-63.5" font-family="FreeSans.ttf" font-size="10.00" fill="#000000">LinearConstraint.h</text>
</a>
</g>
</g>
<!-- Node13&#45;&gt;Node14 -->
<g id="edge1" class="edge">
<title>Node13&#45;&gt;Node14</title>
<path fill="none" stroke="#191970" d="M243.3597,-110.4298C200.4669,-100.1208 138.444,-85.214 98.2961,-75.5647"/>
<polygon fill="#191970" stroke="#191970" points="242.7446,-113.8816 253.2857,-112.8154 244.3805,-107.0754 242.7446,-113.8816"/>
</g>
<!-- Node16 -->
<g id="node4" class="node">
<title>Node16</title>
<g id="a_node4"><a xlink:href="OptimalControl_8h.html" target="_top" xlink:title="OptimalControl.h">
<polygon fill="none" stroke="#000000" points="129.5,-56.5 129.5,-75.5 229.5,-75.5 229.5,-56.5 129.5,-56.5"/>
<text text-anchor="middle" x="179.5" y="-63.5" font-family="FreeSans.ttf" font-size="10.00" fill="#000000">OptimalControl.h</text>
</a>
</g>
</g>
<!-- Node13&#45;&gt;Node16 -->
<g id="edge3" class="edge">
<title>Node13&#45;&gt;Node16</title>
<path fill="none" stroke="#191970" d="M263.1737,-107.8368C242.9279,-97.7139 216.2358,-84.3679 198.5022,-75.5011"/>
<polygon fill="#191970" stroke="#191970" points="261.737,-111.0316 272.2465,-112.3733 264.8675,-104.7706 261.737,-111.0316"/>
</g>
<!-- Node17 -->
<g id="node5" class="node">
<title>Node17</title>
<g id="a_node5"><a xlink:href="Constraint_8cpp.html" target="_top" xlink:title="Constraint.cpp">
<polygon fill="none" stroke="#000000" points="248,-56.5 248,-75.5 335,-75.5 335,-56.5 248,-56.5"/>
<text text-anchor="middle" x="291.5" y="-63.5" font-family="FreeSans.ttf" font-size="10.00" fill="#000000">Constraint.cpp</text>
</a>
</g>
</g>
<!-- Node13&#45;&gt;Node17 -->
<g id="edge4" class="edge">
<title>Node13&#45;&gt;Node17</title>
<path fill="none" stroke="#191970" d="M291.5,-102.1575C291.5,-93.155 291.5,-82.9199 291.5,-75.6427"/>
<polygon fill="#191970" stroke="#191970" points="288.0001,-102.2455 291.5,-112.2455 295.0001,-102.2456 288.0001,-102.2455"/>
</g>
<!-- Node18 -->
<g id="node6" class="node">
<title>Node18</title>
<g id="a_node6"><a xlink:href="ConstraintsGroup_8cpp.html" target="_top" xlink:title="ConstraintsGroup.cpp">
<polygon fill="none" stroke="#000000" points="353.5,-56.5 353.5,-75.5 475.5,-75.5 475.5,-56.5 353.5,-56.5"/>
<text text-anchor="middle" x="414.5" y="-63.5" font-family="FreeSans.ttf" font-size="10.00" fill="#000000">ConstraintsGroup.cpp</text>
</a>
</g>
</g>
<!-- Node13&#45;&gt;Node18 -->
<g id="edge5" class="edge">
<title>Node13&#45;&gt;Node18</title>
<path fill="none" stroke="#191970" d="M322.0065,-108.1109C344.3112,-97.9559 373.9799,-84.4482 393.6315,-75.5011"/>
<polygon fill="#191970" stroke="#191970" points="320.2953,-105.0442 312.6445,-112.3733 323.1959,-111.415 320.2953,-105.0442"/>
</g>
<!-- Node19 -->
<g id="node7" class="node">
<title>Node19</title>
<g id="a_node7"><a xlink:href="OptimalControlProblem_8cpp.html" target="_top" xlink:title="OptimalControlProblem.cpp">
<polygon fill="none" stroke="#000000" points="493.5,-56.5 493.5,-75.5 645.5,-75.5 645.5,-56.5 493.5,-56.5"/>
<text text-anchor="middle" x="569.5" y="-63.5" font-family="FreeSans.ttf" font-size="10.00" fill="#000000">OptimalControlProblem.cpp</text>
</a>
</g>
</g>
<!-- Node13&#45;&gt;Node19 -->
<g id="edge6" class="edge">
<title>Node13&#45;&gt;Node19</title>
<path fill="none" stroke="#191970" d="M339.3956,-112.352C390.5648,-102.0445 471.1713,-85.8072 522.1356,-75.541"/>
<polygon fill="#191970" stroke="#191970" points="338.6837,-108.925 329.5718,-114.3309 340.0661,-115.7871 338.6837,-108.925"/>
</g>
<!-- Node15 -->
<g id="node3" class="node">
<title>Node15</title>
<g id="a_node3"><a xlink:href="LinearConstraint_8cpp.html" target="_top" xlink:title="LinearConstraint.cpp">
<polygon fill="none" stroke="#000000" points="0,-.5 0,-19.5 117,-19.5 117,-.5 0,-.5"/>
<text text-anchor="middle" x="58.5" y="-7.5" font-family="FreeSans.ttf" font-size="10.00" fill="#000000">LinearConstraint.cpp</text>
</a>
</g>
</g>
<!-- Node14&#45;&gt;Node15 -->
<g id="edge2" class="edge">
<title>Node14&#45;&gt;Node15</title>
<path fill="none" stroke="#191970" d="M58.5,-46.1575C58.5,-37.155 58.5,-26.9199 58.5,-19.6427"/>
<polygon fill="#191970" stroke="#191970" points="55.0001,-46.2455 58.5,-56.2455 62.0001,-46.2456 55.0001,-46.2455"/>
</g>
</g>
</svg>
