<?xml version="1.0" encoding="UTF-8" standalone="no"?>
<!DOCTYPE svg PUBLIC "-//W3C//DTD SVG 1.1//EN"
 "http://www.w3.org/Graphics/SVG/1.1/DTD/svg11.dtd">
<!-- Generated by graphviz version 2.40.1 (20161225.0304)
 -->
<!-- Title: ConstraintsGroup.h Pages: 1 -->
<svg width="194pt" height="84pt"
 viewBox="0.00 0.00 193.50 84.00" xmlns="http://www.w3.org/2000/svg" xmlns:xlink="http://www.w3.org/1999/xlink">
<g id="graph0" class="graph" transform="scale(1 1) rotate(0) translate(4 80)">
<title>ConstraintsGroup.h</title>
<!-- Node0 -->
<g id="node1" class="node">
<title>Node0</title>
<polygon fill="#bfbfbf" stroke="#000000" points="43,-56.5 43,-75.5 153,-75.5 153,-56.5 43,-56.5"/>
<text text-anchor="middle" x="98" y="-63.5" font-family="FreeSans.ttf" font-size="10.00" fill="#000000">ConstraintsGroup.h</text>
</g>
<!-- Node1 -->
<g id="node2" class="node">
<title>Node1</title>
<polygon fill="none" stroke="#bfbfbf" points="0,-.5 0,-19.5 58,-19.5 58,-.5 0,-.5"/>
<text text-anchor="middle" x="29" y="-7.5" font-family="FreeSans.ttf" font-size="10.00" fill="#000000">memory</text>
</g>
<!-- Node0&#45;&gt;Node1 -->
<g id="edge1" class="edge">
<title>Node0&#45;&gt;Node1</title>
<path fill="none" stroke="#191970" d="M85.9811,-56.2455C75.7902,-47.9746 60.9638,-35.9416 48.9893,-26.2232"/>
<polygon fill="#191970" stroke="#191970" points="50.8514,-23.2268 40.8812,-19.6427 46.4402,-28.662 50.8514,-23.2268"/>
</g>
<!-- Node2 -->
<g id="node3" class="node">
<title>Node2</title>
<polygon fill="none" stroke="#bfbfbf" points="76,-.5 76,-19.5 120,-19.5 120,-.5 76,-.5"/>
<text text-anchor="middle" x="98" y="-7.5" font-family="FreeSans.ttf" font-size="10.00" fill="#000000">string</text>
</g>
<!-- Node0&#45;&gt;Node2 -->
<g id="edge2" class="edge">
<title>Node0&#45;&gt;Node2</title>
<path fill="none" stroke="#191970" d="M98,-56.2455C98,-48.9382 98,-38.6944 98,-29.7046"/>
<polygon fill="#191970" stroke="#191970" points="101.5001,-29.6426 98,-19.6427 94.5001,-29.6427 101.5001,-29.6426"/>
</g>
<!-- Node3 -->
<g id="node4" class="node">
<title>Node3</title>
<polygon fill="none" stroke="#bfbfbf" points="138.5,-.5 138.5,-19.5 185.5,-19.5 185.5,-.5 138.5,-.5"/>
<text text-anchor="middle" x="162" y="-7.5" font-family="FreeSans.ttf" font-size="10.00" fill="#000000">vector</text>
</g>
<!-- Node0&#45;&gt;Node3 -->
<g id="edge3" class="edge">
<title>Node0&#45;&gt;Node3</title>
<path fill="none" stroke="#191970" d="M109.1479,-56.2455C118.5087,-48.0549 132.0858,-36.1749 143.1349,-26.5069"/>
<polygon fill="#191970" stroke="#191970" points="145.7588,-28.8618 150.9798,-19.6427 141.1492,-23.5937 145.7588,-28.8618"/>
</g>
</g>
</svg>
