<?xml version="1.0" encoding="UTF-8" standalone="no"?>
<!DOCTYPE svg PUBLIC "-//W3C//DTD SVG 1.1//EN"
 "http://www.w3.org/Graphics/SVG/1.1/DTD/svg11.dtd">
<!-- Generated by graphviz version 2.40.1 (20161225.0304)
 -->
<!-- Title: Constraint.h Pages: 1 -->
<svg width="641pt" height="196pt"
 viewBox="0.00 0.00 641.00 196.00" xmlns="http://www.w3.org/2000/svg" xmlns:xlink="http://www.w3.org/1999/xlink">
<g id="graph0" class="graph" transform="scale(1 1) rotate(0) translate(4 192)">
<title>Constraint.h</title>
<!-- Node0 -->
<g id="node1" class="node">
<title>Node0</title>
<polygon fill="#bfbfbf" stroke="#000000" points="77.5,-168.5 77.5,-187.5 153.5,-187.5 153.5,-168.5 77.5,-168.5"/>
<text text-anchor="middle" x="115.5" y="-175.5" font-family="FreeSans.ttf" font-size="10.00" fill="#000000">Constraint.h</text>
</g>
<!-- Node1 -->
<g id="node2" class="node">
<title>Node1</title>
<polygon fill="none" stroke="#bfbfbf" points="0,-.5 0,-19.5 53,-19.5 53,-.5 0,-.5"/>
<text text-anchor="middle" x="26.5" y="-7.5" font-family="FreeSans.ttf" font-size="10.00" fill="#000000">cstddef</text>
</g>
<!-- Node0&#45;&gt;Node1 -->
<g id="edge1" class="edge">
<title>Node0&#45;&gt;Node1</title>
<path fill="none" stroke="#191970" d="M110.46,-168.4862C96.2084,-141.5845 55.4247,-64.5994 36.4422,-28.7673"/>
<polygon fill="#191970" stroke="#191970" points="39.4806,-27.026 31.7064,-19.8279 33.295,-30.303 39.4806,-27.026"/>
</g>
<!-- Node2 -->
<g id="node3" class="node">
<title>Node2</title>
<polygon fill="none" stroke="#bfbfbf" points="137.5,-56.5 137.5,-75.5 181.5,-75.5 181.5,-56.5 137.5,-56.5"/>
<text text-anchor="middle" x="159.5" y="-63.5" font-family="FreeSans.ttf" font-size="10.00" fill="#000000">string</text>
</g>
<!-- Node0&#45;&gt;Node2 -->
<g id="edge2" class="edge">
<title>Node0&#45;&gt;Node2</title>
<path fill="none" stroke="#191970" d="M117.5746,-168.3811C120.5444,-155.3311 126.5397,-131.4173 134.5,-112 138.3658,-102.5702 143.6411,-92.5764 148.3496,-84.3215"/>
<polygon fill="#191970" stroke="#191970" points="151.4453,-85.9618 153.4982,-75.5678 145.4116,-82.413 151.4453,-85.9618"/>
</g>
<!-- Node3 -->
<g id="node4" class="node">
<title>Node3</title>
<g id="a_node4"><a xlink:href="VectorDynSize_8h.html" target="_top" xlink:title="iDynTree/Core/VectorDynSize.h">
<polygon fill="none" stroke="#000000" points="143,-112.5 143,-131.5 310,-131.5 310,-112.5 143,-112.5"/>
<text text-anchor="middle" x="226.5" y="-119.5" font-family="FreeSans.ttf" font-size="10.00" fill="#000000">iDynTree/Core/VectorDynSize.h</text>
</a>
</g>
</g>
<!-- Node0&#45;&gt;Node3 -->
<g id="edge3" class="edge">
<title>Node0&#45;&gt;Node3</title>
<path fill="none" stroke="#191970" d="M134.5816,-168.3733C152.2402,-159.4644 178.7053,-146.1127 198.7098,-136.0203"/>
<polygon fill="#191970" stroke="#191970" points="200.3158,-139.1303 207.6674,-131.5011 197.1628,-132.8806 200.3158,-139.1303"/>
</g>
<!-- Node3&#45;&gt;Node2 -->
<g id="edge14" class="edge">
<title>Node3&#45;&gt;Node2</title>
<path fill="none" stroke="#191970" d="M214.8295,-112.2455C204.9339,-103.9746 190.5373,-91.9416 178.9099,-82.2232"/>
<polygon fill="#191970" stroke="#191970" points="180.9542,-79.3703 171.0368,-75.6427 176.465,-84.7413 180.9542,-79.3703"/>
</g>
<!-- Node4 -->
<g id="node5" class="node">
<title>Node4</title>
<g id="a_node5"><a xlink:href="Span_8h.html" target="_top" xlink:title="iDynTree/Core/Span.h">
<polygon fill="none" stroke="#000000" points="217,-56.5 217,-75.5 338,-75.5 338,-56.5 217,-56.5"/>
<text text-anchor="middle" x="277.5" y="-63.5" font-family="FreeSans.ttf" font-size="10.00" fill="#000000">iDynTree/Core/Span.h</text>
</a>
</g>
</g>
<!-- Node3&#45;&gt;Node4 -->
<g id="edge4" class="edge">
<title>Node3&#45;&gt;Node4</title>
<path fill="none" stroke="#191970" d="M235.3835,-112.2455C242.6966,-104.2155 253.2391,-92.6394 261.9467,-83.0781"/>
<polygon fill="#191970" stroke="#191970" points="264.5727,-85.3928 268.7183,-75.6427 259.3972,-80.6795 264.5727,-85.3928"/>
</g>
<!-- Node4&#45;&gt;Node1 -->
<g id="edge8" class="edge">
<title>Node4&#45;&gt;Node1</title>
<path fill="none" stroke="#191970" d="M228.6373,-56.4181C187.1544,-48.0868 125.8338,-35.3108 63.2429,-20.0727"/>
<polygon fill="#191970" stroke="#191970" points="63.7353,-16.5898 53.1894,-17.6062 62.0674,-23.3882 63.7353,-16.5898"/>
</g>
<!-- Node5 -->
<g id="node6" class="node">
<title>Node5</title>
<polygon fill="none" stroke="#bfbfbf" points="71.5,-.5 71.5,-19.5 123.5,-19.5 123.5,-.5 71.5,-.5"/>
<text text-anchor="middle" x="97.5" y="-7.5" font-family="FreeSans.ttf" font-size="10.00" fill="#000000">cassert</text>
</g>
<!-- Node4&#45;&gt;Node5 -->
<g id="edge5" class="edge">
<title>Node4&#45;&gt;Node5</title>
<path fill="none" stroke="#191970" d="M246.5569,-56.3733C215.1297,-46.5959 166.5014,-31.4671 133.3992,-21.1686"/>
<polygon fill="#191970" stroke="#191970" points="134.2491,-17.7676 123.6608,-18.1389 132.1696,-24.4516 134.2491,-17.7676"/>
</g>
<!-- Node6 -->
<g id="node7" class="node">
<title>Node6</title>
<polygon fill="none" stroke="#bfbfbf" points="141.5,-.5 141.5,-19.5 205.5,-19.5 205.5,-.5 141.5,-.5"/>
<text text-anchor="middle" x="173.5" y="-7.5" font-family="FreeSans.ttf" font-size="10.00" fill="#000000">algorithm</text>
</g>
<!-- Node4&#45;&gt;Node6 -->
<g id="edge6" class="edge">
<title>Node4&#45;&gt;Node6</title>
<path fill="none" stroke="#191970" d="M259.3846,-56.2455C243.055,-47.4527 218.829,-34.4079 200.2661,-24.4125"/>
<polygon fill="#191970" stroke="#191970" points="201.8719,-21.3021 191.4078,-19.6427 198.5532,-27.4654 201.8719,-21.3021"/>
</g>
<!-- Node7 -->
<g id="node8" class="node">
<title>Node7</title>
<polygon fill="none" stroke="#bfbfbf" points="223.5,-.5 223.5,-19.5 265.5,-19.5 265.5,-.5 223.5,-.5"/>
<text text-anchor="middle" x="244.5" y="-7.5" font-family="FreeSans.ttf" font-size="10.00" fill="#000000">array</text>
</g>
<!-- Node4&#45;&gt;Node7 -->
<g id="edge7" class="edge">
<title>Node4&#45;&gt;Node7</title>
<path fill="none" stroke="#191970" d="M271.7518,-56.2455C267.2565,-48.617 260.8752,-37.7881 255.4175,-28.5267"/>
<polygon fill="#191970" stroke="#191970" points="258.2747,-26.4811 250.1823,-19.6427 252.2439,-30.035 258.2747,-26.4811"/>
</g>
<!-- Node8 -->
<g id="node9" class="node">
<title>Node8</title>
<polygon fill="none" stroke="#bfbfbf" points="284,-.5 284,-19.5 337,-19.5 337,-.5 284,-.5"/>
<text text-anchor="middle" x="310.5" y="-7.5" font-family="FreeSans.ttf" font-size="10.00" fill="#000000">iterator</text>
</g>
<!-- Node4&#45;&gt;Node8 -->
<g id="edge9" class="edge">
<title>Node4&#45;&gt;Node8</title>
<path fill="none" stroke="#191970" d="M283.2482,-56.2455C287.7435,-48.617 294.1248,-37.7881 299.5825,-28.5267"/>
<polygon fill="#191970" stroke="#191970" points="302.7561,-30.035 304.8177,-19.6427 296.7253,-26.4811 302.7561,-30.035"/>
</g>
<!-- Node9 -->
<g id="node10" class="node">
<title>Node9</title>
<polygon fill="none" stroke="#bfbfbf" points="355.5,-.5 355.5,-19.5 399.5,-19.5 399.5,-.5 355.5,-.5"/>
<text text-anchor="middle" x="377.5" y="-7.5" font-family="FreeSans.ttf" font-size="10.00" fill="#000000">limits</text>
</g>
<!-- Node4&#45;&gt;Node9 -->
<g id="edge10" class="edge">
<title>Node4&#45;&gt;Node9</title>
<path fill="none" stroke="#191970" d="M294.9187,-56.2455C310.5485,-47.4928 333.7019,-34.527 351.5185,-24.5496"/>
<polygon fill="#191970" stroke="#191970" points="353.266,-27.5825 360.2809,-19.6427 349.8457,-21.475 353.266,-27.5825"/>
</g>
<!-- Node10 -->
<g id="node11" class="node">
<title>Node10</title>
<polygon fill="none" stroke="#bfbfbf" points="418,-.5 418,-19.5 483,-19.5 483,-.5 418,-.5"/>
<text text-anchor="middle" x="450.5" y="-7.5" font-family="FreeSans.ttf" font-size="10.00" fill="#000000">stdexcept</text>
</g>
<!-- Node4&#45;&gt;Node10 -->
<g id="edge11" class="edge">
<title>Node4&#45;&gt;Node10</title>
<path fill="none" stroke="#191970" d="M307.2398,-56.3733C336.007,-47.0613 379.77,-32.8953 411.3556,-22.671"/>
<polygon fill="#191970" stroke="#191970" points="412.7122,-25.9107 421.1483,-19.5011 410.5564,-19.251 412.7122,-25.9107"/>
</g>
<!-- Node11 -->
<g id="node12" class="node">
<title>Node11</title>
<polygon fill="none" stroke="#bfbfbf" points="501,-.5 501,-19.5 570,-19.5 570,-.5 501,-.5"/>
<text text-anchor="middle" x="535.5" y="-7.5" font-family="FreeSans.ttf" font-size="10.00" fill="#000000">type_traits</text>
</g>
<!-- Node4&#45;&gt;Node11 -->
<g id="edge12" class="edge">
<title>Node4&#45;&gt;Node11</title>
<path fill="none" stroke="#191970" d="M323.2673,-56.4532C364.6164,-47.773 427.4165,-34.4537 490.6322,-20.3929"/>
<polygon fill="#191970" stroke="#191970" points="491.7798,-23.723 500.7783,-18.1304 490.2562,-16.8908 491.7798,-23.723"/>
</g>
<!-- Node12 -->
<g id="node13" class="node">
<title>Node12</title>
<polygon fill="none" stroke="#bfbfbf" points="588,-.5 588,-19.5 633,-19.5 633,-.5 588,-.5"/>
<text text-anchor="middle" x="610.5" y="-7.5" font-family="FreeSans.ttf" font-size="10.00" fill="#000000">utility</text>
</g>
<!-- Node4&#45;&gt;Node12 -->
<g id="edge13" class="edge">
<title>Node4&#45;&gt;Node12</title>
<path fill="none" stroke="#191970" d="M338.2117,-59.6624C397.3704,-52.8329 489.9231,-40.4162 578.0423,-20.066"/>
<polygon fill="#191970" stroke="#191970" points="578.9966,-23.4372 587.9317,-17.7439 577.3964,-16.6226 578.9966,-23.4372"/>
</g>
</g>
</svg>
