<?xml version="1.0" encoding="UTF-8" standalone="no"?>
<!DOCTYPE svg PUBLIC "-//W3C//DTD SVG 1.1//EN"
 "http://www.w3.org/Graphics/SVG/1.1/DTD/svg11.dtd">
<!-- Generated by graphviz version 2.40.1 (20161225.0304)
 -->
<!-- Title: ContactStateMachine.h Pages: 1 -->
<svg width="215pt" height="140pt"
 viewBox="0.00 0.00 215.00 140.00" xmlns="http://www.w3.org/2000/svg" xmlns:xlink="http://www.w3.org/1999/xlink">
<g id="graph0" class="graph" transform="scale(1 1) rotate(0) translate(4 136)">
<title>ContactStateMachine.h</title>
<!-- Node0 -->
<g id="node1" class="node">
<title>Node0</title>
<polygon fill="#bfbfbf" stroke="#000000" points="0,-112.5 0,-131.5 129,-131.5 129,-112.5 0,-112.5"/>
<text text-anchor="middle" x="64.5" y="-119.5" font-family="FreeSans.ttf" font-size="10.00" fill="#000000">ContactStateMachine.h</text>
</g>
<!-- Node1 -->
<g id="node2" class="node">
<title>Node1</title>
<polygon fill="none" stroke="#bfbfbf" points="53.5,-.5 53.5,-19.5 113.5,-19.5 113.5,-.5 53.5,-.5"/>
<text text-anchor="middle" x="83.5" y="-7.5" font-family="FreeSans.ttf" font-size="10.00" fill="#000000">iostream</text>
</g>
<!-- Node0&#45;&gt;Node1 -->
<g id="edge1" class="edge">
<title>Node0&#45;&gt;Node1</title>
<path fill="none" stroke="#191970" d="M52.2474,-112.4121C37.699,-99.7875 16.5783,-76.7566 26.5,-56 32.6448,-43.1449 44.3299,-32.7306 55.5285,-25.0832"/>
<polygon fill="#191970" stroke="#191970" points="57.7041,-27.8488 64.29,-19.5495 53.9661,-21.9304 57.7041,-27.8488"/>
</g>
<!-- Node2 -->
<g id="node3" class="node">
<title>Node2</title>
<polygon fill="none" stroke="#bfbfbf" points="35.5,-56.5 35.5,-75.5 93.5,-75.5 93.5,-56.5 35.5,-56.5"/>
<text text-anchor="middle" x="64.5" y="-63.5" font-family="FreeSans.ttf" font-size="10.00" fill="#000000">memory</text>
</g>
<!-- Node0&#45;&gt;Node2 -->
<g id="edge2" class="edge">
<title>Node0&#45;&gt;Node2</title>
<path fill="none" stroke="#191970" d="M64.5,-112.2455C64.5,-104.9382 64.5,-94.6944 64.5,-85.7046"/>
<polygon fill="#191970" stroke="#191970" points="68.0001,-85.6426 64.5,-75.6427 61.0001,-85.6427 68.0001,-85.6426"/>
</g>
<!-- Node3 -->
<g id="node4" class="node">
<title>Node3</title>
<g id="a_node4"><a xlink:href="SchmittTrigger_8h.html" target="_top" xlink:title="SchmittTrigger.h">
<polygon fill="none" stroke="#000000" points="112,-56.5 112,-75.5 207,-75.5 207,-56.5 112,-56.5"/>
<text text-anchor="middle" x="159.5" y="-63.5" font-family="FreeSans.ttf" font-size="10.00" fill="#000000">SchmittTrigger.h</text>
</a>
</g>
</g>
<!-- Node0&#45;&gt;Node3 -->
<g id="edge3" class="edge">
<title>Node0&#45;&gt;Node3</title>
<path fill="none" stroke="#191970" d="M81.0477,-112.2455C95.7599,-103.5731 117.4888,-90.7645 134.3505,-80.825"/>
<polygon fill="#191970" stroke="#191970" points="136.3046,-83.736 143.1419,-75.6427 132.7498,-77.7057 136.3046,-83.736"/>
</g>
<!-- Node3&#45;&gt;Node1 -->
<g id="edge4" class="edge">
<title>Node3&#45;&gt;Node1</title>
<path fill="none" stroke="#191970" d="M146.2618,-56.2455C134.819,-47.814 118.0704,-35.4729 104.7525,-25.6598"/>
<polygon fill="#191970" stroke="#191970" points="106.7133,-22.757 96.5865,-19.6427 102.5609,-28.3924 106.7133,-22.757"/>
</g>
</g>
</svg>
