<?xml version="1.0" encoding="UTF-8" standalone="no"?>
<!DOCTYPE svg PUBLIC "-//W3C//DTD SVG 1.1//EN"
 "http://www.w3.org/Graphics/SVG/1.1/DTD/svg11.dtd">
<!-- Generated by graphviz version 2.40.1 (20161225.0304)
 -->
<!-- Title: ControlledDynamicalSystem.h Pages: 1 -->
<svg width="700pt" height="252pt"
 viewBox="0.00 0.00 700.00 252.00" xmlns="http://www.w3.org/2000/svg" xmlns:xlink="http://www.w3.org/1999/xlink">
<g id="graph0" class="graph" transform="scale(1 1) rotate(0) translate(4 248)">
<title>ControlledDynamicalSystem.h</title>
<!-- Node0 -->
<g id="node1" class="node">
<title>Node0</title>
<polygon fill="#bfbfbf" stroke="#000000" points="523.5,-224.5 523.5,-243.5 688.5,-243.5 688.5,-224.5 523.5,-224.5"/>
<text text-anchor="middle" x="606" y="-231.5" font-family="FreeSans.ttf" font-size="10.00" fill="#000000">ControlledDynamicalSystem.h</text>
</g>
<!-- Node1 -->
<g id="node2" class="node">
<title>Node1</title>
<g id="a_node2"><a xlink:href="DynamicalSystem_8h.html" target="_top" xlink:title="iDynTree/DynamicalSystem.h">
<polygon fill="none" stroke="#000000" points="416.5,-168.5 416.5,-187.5 577.5,-187.5 577.5,-168.5 416.5,-168.5"/>
<text text-anchor="middle" x="497" y="-175.5" font-family="FreeSans.ttf" font-size="10.00" fill="#000000">iDynTree/DynamicalSystem.h</text>
</a>
</g>
</g>
<!-- Node0&#45;&gt;Node1 -->
<g id="edge1" class="edge">
<title>Node0&#45;&gt;Node1</title>
<path fill="none" stroke="#191970" d="M587.0136,-224.2455C569.8208,-215.4125 544.2762,-202.2887 524.7868,-192.2758"/>
<polygon fill="#191970" stroke="#191970" points="526.263,-189.0993 515.7688,-187.6427 523.0641,-195.3257 526.263,-189.0993"/>
</g>
<!-- Node14 -->
<g id="node15" class="node">
<title>Node14</title>
<g id="a_node15"><a xlink:href="Controller_8h.html" target="_top" xlink:title="iDynTree/Controller.h">
<polygon fill="none" stroke="#000000" points="546.5,-112.5 546.5,-131.5 665.5,-131.5 665.5,-112.5 546.5,-112.5"/>
<text text-anchor="middle" x="606" y="-119.5" font-family="FreeSans.ttf" font-size="10.00" fill="#000000">iDynTree/Controller.h</text>
</a>
</g>
</g>
<!-- Node0&#45;&gt;Node14 -->
<g id="edge15" class="edge">
<title>Node0&#45;&gt;Node14</title>
<path fill="none" stroke="#191970" d="M606,-224.4509C606,-206.184 606,-165.9553 606,-141.6976"/>
<polygon fill="#191970" stroke="#191970" points="609.5001,-141.5249 606,-131.5249 602.5001,-141.5249 609.5001,-141.5249"/>
</g>
<!-- Node15 -->
<g id="node16" class="node">
<title>Node15</title>
<polygon fill="none" stroke="#bfbfbf" points="634,-168.5 634,-187.5 692,-187.5 692,-168.5 634,-168.5"/>
<text text-anchor="middle" x="663" y="-175.5" font-family="FreeSans.ttf" font-size="10.00" fill="#000000">memory</text>
</g>
<!-- Node0&#45;&gt;Node15 -->
<g id="edge17" class="edge">
<title>Node0&#45;&gt;Node15</title>
<path fill="none" stroke="#191970" d="M615.9286,-224.2455C624.1838,-216.1352 636.1209,-204.4075 645.9082,-194.7919"/>
<polygon fill="#191970" stroke="#191970" points="648.5046,-197.1476 653.1851,-187.6427 643.5989,-192.1542 648.5046,-197.1476"/>
</g>
<!-- Node2 -->
<g id="node3" class="node">
<title>Node2</title>
<g id="a_node3"><a xlink:href="VectorDynSize_8h.html" target="_top" xlink:title="iDynTree/Core/VectorDynSize.h">
<polygon fill="none" stroke="#000000" points="323.5,-112.5 323.5,-131.5 490.5,-131.5 490.5,-112.5 323.5,-112.5"/>
<text text-anchor="middle" x="407" y="-119.5" font-family="FreeSans.ttf" font-size="10.00" fill="#000000">iDynTree/Core/VectorDynSize.h</text>
</a>
</g>
</g>
<!-- Node1&#45;&gt;Node2 -->
<g id="edge2" class="edge">
<title>Node1&#45;&gt;Node2</title>
<path fill="none" stroke="#191970" d="M481.3232,-168.2455C467.5144,-159.6534 447.1807,-147.0014 431.2708,-137.1018"/>
<polygon fill="#191970" stroke="#191970" points="432.8368,-133.954 422.4972,-131.6427 429.1387,-139.8974 432.8368,-133.954"/>
</g>
<!-- Node7 -->
<g id="node8" class="node">
<title>Node7</title>
<polygon fill="none" stroke="#bfbfbf" points="579.5,-.5 579.5,-19.5 632.5,-19.5 632.5,-.5 579.5,-.5"/>
<text text-anchor="middle" x="606" y="-7.5" font-family="FreeSans.ttf" font-size="10.00" fill="#000000">cstddef</text>
</g>
<!-- Node1&#45;&gt;Node7 -->
<g id="edge14" class="edge">
<title>Node1&#45;&gt;Node7</title>
<path fill="none" stroke="#191970" d="M502.8117,-168.0653C510.4639,-155.0657 524.4231,-131.6299 537,-112 556.1036,-82.1834 579.3713,-48.2511 593.4178,-28.0105"/>
<polygon fill="#191970" stroke="#191970" points="596.3353,-29.9455 599.1746,-19.7382 590.5896,-25.947 596.3353,-29.9455"/>
</g>
<!-- Node3 -->
<g id="node4" class="node">
<title>Node3</title>
<g id="a_node4"><a xlink:href="Span_8h.html" target="_top" xlink:title="iDynTree/Core/Span.h">
<polygon fill="none" stroke="#000000" points="245.5,-56.5 245.5,-75.5 366.5,-75.5 366.5,-56.5 245.5,-56.5"/>
<text text-anchor="middle" x="306" y="-63.5" font-family="FreeSans.ttf" font-size="10.00" fill="#000000">iDynTree/Core/Span.h</text>
</a>
</g>
</g>
<!-- Node2&#45;&gt;Node3 -->
<g id="edge3" class="edge">
<title>Node2&#45;&gt;Node3</title>
<path fill="none" stroke="#191970" d="M389.4071,-112.2455C373.621,-103.4928 350.2361,-90.527 332.2413,-80.5496"/>
<polygon fill="#191970" stroke="#191970" points="333.8341,-77.4308 323.3913,-75.6427 330.4397,-83.5528 333.8341,-77.4308"/>
</g>
<!-- Node13 -->
<g id="node14" class="node">
<title>Node13</title>
<polygon fill="none" stroke="#bfbfbf" points="385,-56.5 385,-75.5 429,-75.5 429,-56.5 385,-56.5"/>
<text text-anchor="middle" x="407" y="-63.5" font-family="FreeSans.ttf" font-size="10.00" fill="#000000">string</text>
</g>
<!-- Node2&#45;&gt;Node13 -->
<g id="edge13" class="edge">
<title>Node2&#45;&gt;Node13</title>
<path fill="none" stroke="#191970" d="M407,-112.2455C407,-104.9382 407,-94.6944 407,-85.7046"/>
<polygon fill="#191970" stroke="#191970" points="410.5001,-85.6426 407,-75.6427 403.5001,-85.6427 410.5001,-85.6426"/>
</g>
<!-- Node4 -->
<g id="node5" class="node">
<title>Node4</title>
<polygon fill="none" stroke="#bfbfbf" points="0,-.5 0,-19.5 52,-19.5 52,-.5 0,-.5"/>
<text text-anchor="middle" x="26" y="-7.5" font-family="FreeSans.ttf" font-size="10.00" fill="#000000">cassert</text>
</g>
<!-- Node3&#45;&gt;Node4 -->
<g id="edge4" class="edge">
<title>Node3&#45;&gt;Node4</title>
<path fill="none" stroke="#191970" d="M246.7674,-56.4625C199.2809,-48.4562 130.7587,-36.0989 62.3884,-20.1738"/>
<polygon fill="#191970" stroke="#191970" points="62.8408,-16.6846 52.3046,-17.7984 61.2357,-23.4981 62.8408,-16.6846"/>
</g>
<!-- Node5 -->
<g id="node6" class="node">
<title>Node5</title>
<polygon fill="none" stroke="#bfbfbf" points="70,-.5 70,-19.5 134,-19.5 134,-.5 70,-.5"/>
<text text-anchor="middle" x="102" y="-7.5" font-family="FreeSans.ttf" font-size="10.00" fill="#000000">algorithm</text>
</g>
<!-- Node3&#45;&gt;Node5 -->
<g id="edge5" class="edge">
<title>Node3&#45;&gt;Node5</title>
<path fill="none" stroke="#191970" d="M270.9311,-56.3733C235.8396,-46.7403 181.825,-31.9128 144.3592,-21.628"/>
<polygon fill="#191970" stroke="#191970" points="144.83,-18.1278 134.2602,-18.8557 142.9769,-24.8781 144.83,-18.1278"/>
</g>
<!-- Node6 -->
<g id="node7" class="node">
<title>Node6</title>
<polygon fill="none" stroke="#bfbfbf" points="152,-.5 152,-19.5 194,-19.5 194,-.5 152,-.5"/>
<text text-anchor="middle" x="173" y="-7.5" font-family="FreeSans.ttf" font-size="10.00" fill="#000000">array</text>
</g>
<!-- Node3&#45;&gt;Node6 -->
<g id="edge6" class="edge">
<title>Node3&#45;&gt;Node6</title>
<path fill="none" stroke="#191970" d="M283.1365,-56.3733C261.2034,-47.1383 227.9316,-33.1291 203.6976,-22.9253"/>
<polygon fill="#191970" stroke="#191970" points="204.8235,-19.6018 194.2489,-18.9469 202.1071,-26.0533 204.8235,-19.6018"/>
</g>
<!-- Node3&#45;&gt;Node7 -->
<g id="edge7" class="edge">
<title>Node3&#45;&gt;Node7</title>
<path fill="none" stroke="#191970" d="M366.625,-57.174C418.0434,-49.2938 493.9248,-36.7396 569.2039,-20.0009"/>
<polygon fill="#191970" stroke="#191970" points="570.3498,-23.3307 579.3377,-17.7211 568.8133,-16.5014 570.3498,-23.3307"/>
</g>
<!-- Node8 -->
<g id="node9" class="node">
<title>Node8</title>
<polygon fill="none" stroke="#bfbfbf" points="212.5,-.5 212.5,-19.5 265.5,-19.5 265.5,-.5 212.5,-.5"/>
<text text-anchor="middle" x="239" y="-7.5" font-family="FreeSans.ttf" font-size="10.00" fill="#000000">iterator</text>
</g>
<!-- Node3&#45;&gt;Node8 -->
<g id="edge8" class="edge">
<title>Node3&#45;&gt;Node8</title>
<path fill="none" stroke="#191970" d="M294.3295,-56.2455C284.4339,-47.9746 270.0373,-35.9416 258.4099,-26.2232"/>
<polygon fill="#191970" stroke="#191970" points="260.4542,-23.3703 250.5368,-19.6427 255.965,-28.7413 260.4542,-23.3703"/>
</g>
<!-- Node9 -->
<g id="node10" class="node">
<title>Node9</title>
<polygon fill="none" stroke="#bfbfbf" points="284,-.5 284,-19.5 328,-19.5 328,-.5 284,-.5"/>
<text text-anchor="middle" x="306" y="-7.5" font-family="FreeSans.ttf" font-size="10.00" fill="#000000">limits</text>
</g>
<!-- Node3&#45;&gt;Node9 -->
<g id="edge9" class="edge">
<title>Node3&#45;&gt;Node9</title>
<path fill="none" stroke="#191970" d="M306,-56.2455C306,-48.9382 306,-38.6944 306,-29.7046"/>
<polygon fill="#191970" stroke="#191970" points="309.5001,-29.6426 306,-19.6427 302.5001,-29.6427 309.5001,-29.6426"/>
</g>
<!-- Node10 -->
<g id="node11" class="node">
<title>Node10</title>
<polygon fill="none" stroke="#bfbfbf" points="346.5,-.5 346.5,-19.5 411.5,-19.5 411.5,-.5 346.5,-.5"/>
<text text-anchor="middle" x="379" y="-7.5" font-family="FreeSans.ttf" font-size="10.00" fill="#000000">stdexcept</text>
</g>
<!-- Node3&#45;&gt;Node10 -->
<g id="edge10" class="edge">
<title>Node3&#45;&gt;Node10</title>
<path fill="none" stroke="#191970" d="M318.7156,-56.2455C329.602,-47.8943 345.4883,-35.7076 358.22,-25.9408"/>
<polygon fill="#191970" stroke="#191970" points="360.6261,-28.5063 366.4301,-19.6427 356.3654,-22.9523 360.6261,-28.5063"/>
</g>
<!-- Node11 -->
<g id="node12" class="node">
<title>Node11</title>
<polygon fill="none" stroke="#bfbfbf" points="429.5,-.5 429.5,-19.5 498.5,-19.5 498.5,-.5 429.5,-.5"/>
<text text-anchor="middle" x="464" y="-7.5" font-family="FreeSans.ttf" font-size="10.00" fill="#000000">type_traits</text>
</g>
<!-- Node3&#45;&gt;Node11 -->
<g id="edge11" class="edge">
<title>Node3&#45;&gt;Node11</title>
<path fill="none" stroke="#191970" d="M333.1612,-56.3733C359.2067,-47.1419 398.7116,-33.1402 427.4979,-22.9375"/>
<polygon fill="#191970" stroke="#191970" points="428.937,-26.1408 437.1933,-19.5011 426.5985,-19.5429 428.937,-26.1408"/>
</g>
<!-- Node12 -->
<g id="node13" class="node">
<title>Node12</title>
<polygon fill="none" stroke="#bfbfbf" points="516.5,-.5 516.5,-19.5 561.5,-19.5 561.5,-.5 516.5,-.5"/>
<text text-anchor="middle" x="539" y="-7.5" font-family="FreeSans.ttf" font-size="10.00" fill="#000000">utility</text>
</g>
<!-- Node3&#45;&gt;Node12 -->
<g id="edge12" class="edge">
<title>Node3&#45;&gt;Node12</title>
<path fill="none" stroke="#191970" d="M352.5577,-56.4212C391.3031,-48.2077 448.0924,-35.6113 506.5607,-19.9629"/>
<polygon fill="#191970" stroke="#191970" points="507.5973,-23.3084 516.3383,-17.3213 505.7716,-16.5507 507.5973,-23.3084"/>
</g>
<!-- Node14&#45;&gt;Node7 -->
<g id="edge16" class="edge">
<title>Node14&#45;&gt;Node7</title>
<path fill="none" stroke="#191970" d="M606,-112.4509C606,-94.184 606,-53.9553 606,-29.6976"/>
<polygon fill="#191970" stroke="#191970" points="609.5001,-29.5249 606,-19.5249 602.5001,-29.5249 609.5001,-29.5249"/>
</g>
</g>
</svg>
