<?xml version="1.0" encoding="UTF-8" standalone="no"?>
<!DOCTYPE svg PUBLIC "-//W3C//DTD SVG 1.1//EN"
 "http://www.w3.org/Graphics/SVG/1.1/DTD/svg11.dtd">
<!-- Generated by graphviz version 2.40.1 (20161225.0304)
 -->
<!-- Title: ConvexHullHelpers.h Pages: 1 -->
<svg width="924pt" height="207pt"
 viewBox="0.00 0.00 924.00 207.00" xmlns="http://www.w3.org/2000/svg" xmlns:xlink="http://www.w3.org/1999/xlink">
<g id="graph0" class="graph" transform="scale(1 1) rotate(0) translate(4 203)">
<title>ConvexHullHelpers.h</title>
<!-- Node29 -->
<g id="node1" class="node">
<title>Node29</title>
<polygon fill="#bfbfbf" stroke="#000000" points="388.5,-179.5 388.5,-198.5 507.5,-198.5 507.5,-179.5 388.5,-179.5"/>
<text text-anchor="middle" x="448" y="-186.5" font-family="FreeSans.ttf" font-size="10.00" fill="#000000">ConvexHullHelpers.h</text>
</g>
<!-- Node30 -->
<g id="node2" class="node">
<title>Node30</title>
<g id="a_node2"><a xlink:href="BoundingBoxHelpers_8h.html" target="_top" xlink:title="BoundingBoxHelpers.h">
<polygon fill="none" stroke="#000000" points="76,-123.5 76,-142.5 204,-142.5 204,-123.5 76,-123.5"/>
<text text-anchor="middle" x="140" y="-130.5" font-family="FreeSans.ttf" font-size="10.00" fill="#000000">BoundingBoxHelpers.h</text>
</a>
</g>
</g>
<!-- Node29&#45;&gt;Node30 -->
<g id="edge1" class="edge">
<title>Node29&#45;&gt;Node30</title>
<path fill="none" stroke="#191970" d="M385.4629,-177.6296C328.6481,-167.2997 245.7876,-152.2341 192.3802,-142.5237"/>
<polygon fill="#191970" stroke="#191970" points="384.938,-181.0915 395.4029,-179.4369 386.1903,-174.2044 384.938,-181.0915"/>
</g>
<!-- Node32 -->
<g id="node4" class="node">
<title>Node32</title>
<g id="a_node4"><a xlink:href="InverseKinematics_8h.html" target="_top" xlink:title="InverseKinematics.h">
<polygon fill="none" stroke="#000000" points="246,-123.5 246,-142.5 362,-142.5 362,-123.5 246,-123.5"/>
<text text-anchor="middle" x="304" y="-130.5" font-family="FreeSans.ttf" font-size="10.00" fill="#000000">InverseKinematics.h</text>
</a>
</g>
</g>
<!-- Node29&#45;&gt;Node32 -->
<g id="edge3" class="edge">
<title>Node29&#45;&gt;Node32</title>
<path fill="none" stroke="#191970" d="M413.6818,-175.6541C387.422,-165.4419 351.8508,-151.6086 328.4315,-142.5011"/>
<polygon fill="#191970" stroke="#191970" points="412.6569,-179.0108 423.2455,-179.3733 415.194,-172.4867 412.6569,-179.0108"/>
</g>
<!-- Node33 -->
<g id="node5" class="node">
<title>Node33</title>
<g id="a_node5"><a xlink:href="InverseKinematicsData_8h.html" target="_top" xlink:title="InverseKinematicsData.h">
<polygon fill="none" stroke="#000000" points="379,-67.5 379,-86.5 519,-86.5 519,-67.5 379,-67.5"/>
<text text-anchor="middle" x="449" y="-74.5" font-family="FreeSans.ttf" font-size="10.00" fill="#000000">InverseKinematicsData.h</text>
</a>
</g>
</g>
<!-- Node29&#45;&gt;Node33 -->
<g id="edge14" class="edge">
<title>Node29&#45;&gt;Node33</title>
<path fill="none" stroke="#191970" d="M433.2488,-171.3213C424.1656,-158.2673 415.1159,-139.9053 420,-123 423.9829,-109.214 433.4597,-95.5821 440.5023,-86.7814"/>
<polygon fill="#191970" stroke="#191970" points="430.5517,-173.5575 439.3717,-179.4275 436.1373,-169.3384 430.5517,-173.5575"/>
</g>
<!-- Node39 -->
<g id="node11" class="node">
<title>Node39</title>
<g id="a_node11"><a xlink:href="ConvexHullHelpers_8cpp.html" target="_top" xlink:title="ConvexHullHelpers.cpp">
<polygon fill="none" stroke="#000000" points="429.5,-123.5 429.5,-142.5 560.5,-142.5 560.5,-123.5 429.5,-123.5"/>
<text text-anchor="middle" x="495" y="-130.5" font-family="FreeSans.ttf" font-size="10.00" fill="#000000">ConvexHullHelpers.cpp</text>
</a>
</g>
</g>
<!-- Node29&#45;&gt;Node39 -->
<g id="edge15" class="edge">
<title>Node29&#45;&gt;Node39</title>
<path fill="none" stroke="#191970" d="M462.6872,-171.5004C470.6796,-161.9775 480.2625,-150.5596 486.907,-142.6427"/>
<polygon fill="#191970" stroke="#191970" points="459.9346,-169.3357 456.1868,-179.2455 465.2964,-173.8358 459.9346,-169.3357"/>
</g>
<!-- Node40 -->
<g id="node12" class="node">
<title>Node40</title>
<g id="a_node12"><a xlink:href="ObserverThread_8h.html" target="_top" xlink:title="ObserverThread.h">
<polygon fill="none" stroke="#000000" points="617,-123.5 617,-142.5 721,-142.5 721,-123.5 617,-123.5"/>
<text text-anchor="middle" x="669" y="-130.5" font-family="FreeSans.ttf" font-size="10.00" fill="#000000">ObserverThread.h</text>
</a>
</g>
</g>
<!-- Node29&#45;&gt;Node40 -->
<g id="edge16" class="edge">
<title>Node29&#45;&gt;Node40</title>
<path fill="none" stroke="#191970" d="M495.6863,-176.9166C536.336,-166.6162 593.9667,-152.013 631.4155,-142.5237"/>
<polygon fill="#191970" stroke="#191970" points="494.5741,-173.5877 485.7401,-179.4369 496.2935,-180.3733 494.5741,-173.5877"/>
</g>
<!-- Node41 -->
<g id="node13" class="node">
<title>Node41</title>
<g id="a_node13"><a xlink:href="ObserverThread_8cpp.html" target="_top" xlink:title="ObserverThread.cpp">
<polygon fill="none" stroke="#000000" points="537.5,-67.5 537.5,-86.5 652.5,-86.5 652.5,-67.5 537.5,-67.5"/>
<text text-anchor="middle" x="595" y="-74.5" font-family="FreeSans.ttf" font-size="10.00" fill="#000000">ObserverThread.cpp</text>
</a>
</g>
</g>
<!-- Node29&#45;&gt;Node41 -->
<g id="edge21" class="edge">
<title>Node29&#45;&gt;Node41</title>
<path fill="none" stroke="#191970" d="M509.0435,-176.5587C530.2194,-169.6652 552.7109,-159.0951 569,-143 584.7685,-127.4192 591.2166,-101.1195 593.6553,-86.8773"/>
<polygon fill="#191970" stroke="#191970" points="507.987,-173.2216 499.4337,-179.4738 510.0191,-179.9202 507.987,-173.2216"/>
</g>
<!-- Node31 -->
<g id="node3" class="node">
<title>Node31</title>
<g id="a_node3"><a xlink:href="BoundingBoxHelpers_8cpp.html" target="_top" xlink:title="BoundingBoxHelpers.cpp">
<polygon fill="none" stroke="#000000" points="39.5,-67.5 39.5,-86.5 178.5,-86.5 178.5,-67.5 39.5,-67.5"/>
<text text-anchor="middle" x="109" y="-74.5" font-family="FreeSans.ttf" font-size="10.00" fill="#000000">BoundingBoxHelpers.cpp</text>
</a>
</g>
</g>
<!-- Node30&#45;&gt;Node31 -->
<g id="edge2" class="edge">
<title>Node30&#45;&gt;Node31</title>
<path fill="none" stroke="#191970" d="M129.6688,-114.3372C124.5335,-105.0605 118.5434,-94.2398 114.3379,-86.6427"/>
<polygon fill="#191970" stroke="#191970" points="126.6949,-116.1917 134.6002,-123.2455 132.8191,-112.8015 126.6949,-116.1917"/>
</g>
<!-- Node32&#45;&gt;Node33 -->
<g id="edge4" class="edge">
<title>Node32&#45;&gt;Node33</title>
<path fill="none" stroke="#191970" d="M338.5565,-119.6541C364.9986,-109.4419 400.8169,-95.6086 424.3989,-86.5011"/>
<polygon fill="#191970" stroke="#191970" points="336.9939,-116.5055 328.9264,-123.3733 339.5158,-123.0354 336.9939,-116.5055"/>
</g>
<!-- Node34 -->
<g id="node6" class="node">
<title>Node34</title>
<g id="a_node6"><a xlink:href="InverseKinematics_8cpp.html" target="_top" xlink:title="InverseKinematics.cpp">
<polygon fill="none" stroke="#000000" points="154,-6 154,-25 282,-25 282,-6 154,-6"/>
<text text-anchor="middle" x="218" y="-13" font-family="FreeSans.ttf" font-size="10.00" fill="#000000">InverseKinematics.cpp</text>
</a>
</g>
</g>
<!-- Node32&#45;&gt;Node34 -->
<g id="edge13" class="edge">
<title>Node32&#45;&gt;Node34</title>
<path fill="none" stroke="#191970" d="M265.3021,-118.9997C250.6335,-111.7194 235.2533,-101.2885 226,-87 213.643,-67.9188 214.8126,-39.8303 216.5214,-25.186"/>
<polygon fill="#191970" stroke="#191970" points="264.2182,-122.353 274.7672,-123.3378 267.1348,-115.9895 264.2182,-122.353"/>
</g>
<!-- Node37 -->
<g id="node9" class="node">
<title>Node37</title>
<g id="a_node9"><a xlink:href="TransformConstraint_8h.html" target="_top" xlink:title="TransformConstraint.h">
<polygon fill="none" stroke="#000000" points="235.5,-67.5 235.5,-86.5 360.5,-86.5 360.5,-67.5 235.5,-67.5"/>
<text text-anchor="middle" x="298" y="-74.5" font-family="FreeSans.ttf" font-size="10.00" fill="#000000">TransformConstraint.h</text>
</a>
</g>
</g>
<!-- Node32&#45;&gt;Node37 -->
<g id="edge8" class="edge">
<title>Node32&#45;&gt;Node37</title>
<path fill="none" stroke="#191970" d="M301.874,-113.1575C300.9095,-104.155 299.8128,-93.9199 299.0331,-86.6427"/>
<polygon fill="#191970" stroke="#191970" points="298.4094,-113.6753 302.9549,-123.2455 305.3695,-112.9296 298.4094,-113.6753"/>
</g>
<!-- Node33&#45;&gt;Node34 -->
<g id="edge5" class="edge">
<title>Node33&#45;&gt;Node34</title>
<path fill="none" stroke="#191970" d="M403.3286,-64.8407C359.4907,-53.1696 294.1676,-35.7784 253.9244,-25.0643"/>
<polygon fill="#191970" stroke="#191970" points="402.5958,-68.2675 413.1597,-67.4581 404.3968,-61.5031 402.5958,-68.2675"/>
</g>
<!-- Node35 -->
<g id="node7" class="node">
<title>Node35</title>
<g id="a_node7"><a xlink:href="InverseKinematicsData_8cpp.html" target="_top" xlink:title="InverseKinematicsData.cpp">
<polygon fill="none" stroke="#000000" points="300.5,-6 300.5,-25 451.5,-25 451.5,-6 300.5,-6"/>
<text text-anchor="middle" x="376" y="-13" font-family="FreeSans.ttf" font-size="10.00" fill="#000000">InverseKinematicsData.cpp</text>
</a>
</g>
</g>
<!-- Node33&#45;&gt;Node35 -->
<g id="edge6" class="edge">
<title>Node33&#45;&gt;Node35</title>
<path fill="none" stroke="#191970" d="M429.8529,-60.8692C416.4261,-49.5576 398.9163,-34.8062 387.5671,-25.2449"/>
<polygon fill="#191970" stroke="#191970" points="427.6909,-63.6243 437.5938,-67.3906 432.201,-58.2709 427.6909,-63.6243"/>
</g>
<!-- Node36 -->
<g id="node8" class="node">
<title>Node36</title>
<g id="a_node8"><a xlink:href="InverseKinematicsNLP_8cpp.html" target="_top" xlink:title="InverseKinematicsNLP.cpp">
<polygon fill="none" stroke="#000000" points="469.5,-6 469.5,-25 614.5,-25 614.5,-6 469.5,-6"/>
<text text-anchor="middle" x="542" y="-13" font-family="FreeSans.ttf" font-size="10.00" fill="#000000">InverseKinematicsNLP.cpp</text>
</a>
</g>
</g>
<!-- Node33&#45;&gt;Node36 -->
<g id="edge7" class="edge">
<title>Node33&#45;&gt;Node36</title>
<path fill="none" stroke="#191970" d="M472.0065,-61.786C489.3962,-50.2864 512.7315,-34.855 527.5708,-25.0419"/>
<polygon fill="#191970" stroke="#191970" points="469.9418,-58.9553 463.5313,-67.3906 473.803,-64.7941 469.9418,-58.9553"/>
</g>
<!-- Node37&#45;&gt;Node34 -->
<g id="edge9" class="edge">
<title>Node37&#45;&gt;Node34</title>
<path fill="none" stroke="#191970" d="M277.381,-61.1491C262.5164,-49.722 242.943,-34.6749 230.4122,-25.0419"/>
<polygon fill="#191970" stroke="#191970" points="275.4387,-64.0707 285.5,-67.3906 279.7051,-58.521 275.4387,-64.0707"/>
</g>
<!-- Node37&#45;&gt;Node35 -->
<g id="edge10" class="edge">
<title>Node37&#45;&gt;Node35</title>
<path fill="none" stroke="#191970" d="M318.1036,-61.1491C332.5965,-49.722 351.6806,-34.6749 363.8981,-25.0419"/>
<polygon fill="#191970" stroke="#191970" points="315.8732,-58.4506 310.1875,-67.3906 320.2073,-63.9475 315.8732,-58.4506"/>
</g>
<!-- Node37&#45;&gt;Node36 -->
<g id="edge11" class="edge">
<title>Node37&#45;&gt;Node36</title>
<path fill="none" stroke="#191970" d="M345.658,-64.9878C391.9651,-53.3162 461.367,-35.8235 504.0539,-25.0643"/>
<polygon fill="#191970" stroke="#191970" points="344.6986,-61.6201 335.8573,-67.4581 346.4095,-68.4078 344.6986,-61.6201"/>
</g>
<!-- Node38 -->
<g id="node10" class="node">
<title>Node38</title>
<g id="a_node10"><a xlink:href="TransformConstraint_8cpp.html" target="_top" xlink:title="TransformConstraint.cpp">
<polygon fill="none" stroke="#000000" points="0,-6 0,-25 136,-25 136,-6 0,-6"/>
<text text-anchor="middle" x="68" y="-13" font-family="FreeSans.ttf" font-size="10.00" fill="#000000">TransformConstraint.cpp</text>
</a>
</g>
</g>
<!-- Node37&#45;&gt;Node38 -->
<g id="edge12" class="edge">
<title>Node37&#45;&gt;Node38</title>
<path fill="none" stroke="#191970" d="M252.5263,-64.8407C208.8781,-53.1696 143.8378,-35.7784 103.7689,-25.0643"/>
<polygon fill="#191970" stroke="#191970" points="251.7501,-68.2561 262.3149,-67.4581 253.5584,-61.4937 251.7501,-68.2561"/>
</g>
<!-- Node40&#45;&gt;Node41 -->
<g id="edge17" class="edge">
<title>Node40&#45;&gt;Node41</title>
<path fill="none" stroke="#191970" d="M648.1343,-117.2097C635.1375,-107.3743 618.8378,-95.0394 607.7421,-86.6427"/>
<polygon fill="#191970" stroke="#191970" points="646.024,-120.002 656.1102,-123.2455 650.2482,-114.4201 646.024,-120.002"/>
</g>
<!-- Node42 -->
<g id="node14" class="node">
<title>Node42</title>
<g id="a_node14"><a xlink:href="qticubskinguiplugin_8h.html" target="_top" xlink:title="qticubskinguiplugin.h">
<polygon fill="none" stroke="#000000" points="670.5,-67.5 670.5,-86.5 791.5,-86.5 791.5,-67.5 670.5,-67.5"/>
<text text-anchor="middle" x="731" y="-74.5" font-family="FreeSans.ttf" font-size="10.00" fill="#000000">qticubskinguiplugin.h</text>
</a>
</g>
</g>
<!-- Node40&#45;&gt;Node42 -->
<g id="edge18" class="edge">
<title>Node40&#45;&gt;Node42</title>
<path fill="none" stroke="#191970" d="M687.4221,-116.3607C698.1481,-106.6727 711.2934,-94.7995 720.3242,-86.6427"/>
<polygon fill="#191970" stroke="#191970" points="684.8746,-113.9453 679.7996,-123.2455 689.5666,-119.14 684.8746,-113.9453"/>
</g>
<!-- Node43 -->
<g id="node15" class="node">
<title>Node43</title>
<g id="a_node15"><a xlink:href="qticubskinguiplugin_8cpp.html" target="_top" xlink:title="qticubskinguiplugin.cpp">
<polygon fill="none" stroke="#000000" points="654,-6 654,-25 786,-25 786,-6 654,-6"/>
<text text-anchor="middle" x="720" y="-13" font-family="FreeSans.ttf" font-size="10.00" fill="#000000">qticubskinguiplugin.cpp</text>
</a>
</g>
</g>
<!-- Node42&#45;&gt;Node43 -->
<g id="edge19" class="edge">
<title>Node42&#45;&gt;Node43</title>
<path fill="none" stroke="#191970" d="M727.4668,-57.2462C725.554,-46.5519 723.2757,-33.814 721.743,-25.2449"/>
<polygon fill="#191970" stroke="#191970" points="724.0752,-58.1631 729.2813,-67.3906 730.9658,-56.9306 724.0752,-58.1631"/>
</g>
<!-- Node44 -->
<g id="node16" class="node">
<title>Node44</title>
<g id="a_node16"><a xlink:href="qticubskinguiplugin__plugin_8cpp.html" target="_top" xlink:title="qticubskinguiplugin\l_plugin.cpp">
<polygon fill="none" stroke="#000000" points="804,-.5 804,-30.5 916,-30.5 916,-.5 804,-.5"/>
<text text-anchor="start" x="812" y="-18.5" font-family="FreeSans.ttf" font-size="10.00" fill="#000000">qticubskinguiplugin</text>
<text text-anchor="middle" x="860" y="-7.5" font-family="FreeSans.ttf" font-size="10.00" fill="#000000">_plugin.cpp</text>
</a>
</g>
</g>
<!-- Node42&#45;&gt;Node44 -->
<g id="edge20" class="edge">
<title>Node42&#45;&gt;Node44</title>
<path fill="none" stroke="#191970" d="M760.2532,-63.0537C780.5757,-53.3651 807.6356,-40.4644 828.443,-30.5446"/>
<polygon fill="#191970" stroke="#191970" points="758.6767,-59.9278 751.1563,-67.3906 761.6891,-66.2465 758.6767,-59.9278"/>
</g>
</g>
</svg>
