<?xml version="1.0" encoding="UTF-8" standalone="no"?>
<!DOCTYPE svg PUBLIC "-//W3C//DTD SVG 1.1//EN"
 "http://www.w3.org/Graphics/SVG/1.1/DTD/svg11.dtd">
<!-- Generated by graphviz version 2.40.1 (20161225.0304)
 -->
<!-- Title: ConvexHullHelpers.h Pages: 1 -->
<svg width="1226pt" height="420pt"
 viewBox="0.00 0.00 1225.50 420.00" xmlns="http://www.w3.org/2000/svg" xmlns:xlink="http://www.w3.org/1999/xlink">
<g id="graph0" class="graph" transform="scale(1 1) rotate(0) translate(4 416)">
<title>ConvexHullHelpers.h</title>
<!-- Node0 -->
<g id="node1" class="node">
<title>Node0</title>
<polygon fill="#bfbfbf" stroke="#000000" points="935.5,-392.5 935.5,-411.5 1054.5,-411.5 1054.5,-392.5 935.5,-392.5"/>
<text text-anchor="middle" x="995" y="-399.5" font-family="FreeSans.ttf" font-size="10.00" fill="#000000">ConvexHullHelpers.h</text>
</g>
<!-- Node1 -->
<g id="node2" class="node">
<title>Node1</title>
<polygon fill="none" stroke="#bfbfbf" points="537,-56.5 537,-75.5 581,-75.5 581,-56.5 537,-56.5"/>
<text text-anchor="middle" x="559" y="-63.5" font-family="FreeSans.ttf" font-size="10.00" fill="#000000">string</text>
</g>
<!-- Node0&#45;&gt;Node1 -->
<g id="edge1" class="edge">
<title>Node0&#45;&gt;Node1</title>
<path fill="none" stroke="#191970" d="M999.1315,-392.3161C1006.9202,-373.1534 1023,-328.8832 1023,-290 1023,-290 1023,-290 1023,-178 1023,-92.7141 696.1591,-94.504 591.2212,-75.7143"/>
<polygon fill="#191970" stroke="#191970" points="591.7108,-72.2428 581.2169,-73.7013 590.3299,-79.1052 591.7108,-72.2428"/>
</g>
<!-- Node2 -->
<g id="node3" class="node">
<title>Node2</title>
<polygon fill="none" stroke="#bfbfbf" points="1089.5,-336.5 1089.5,-355.5 1136.5,-355.5 1136.5,-336.5 1089.5,-336.5"/>
<text text-anchor="middle" x="1113" y="-343.5" font-family="FreeSans.ttf" font-size="10.00" fill="#000000">vector</text>
</g>
<!-- Node0&#45;&gt;Node2 -->
<g id="edge2" class="edge">
<title>Node0&#45;&gt;Node2</title>
<path fill="none" stroke="#191970" d="M1015.2849,-392.3733C1034.1421,-383.4241 1062.446,-369.9917 1083.7455,-359.8835"/>
<polygon fill="#191970" stroke="#191970" points="1085.4461,-362.9506 1092.9798,-355.5011 1082.4449,-356.6266 1085.4461,-362.9506"/>
</g>
<!-- Node3 -->
<g id="node4" class="node">
<title>Node3</title>
<g id="a_node4"><a xlink:href="MatrixDynSize_8h.html" target="_top" xlink:title="iDynTree/Core/MatrixDynSize.h">
<polygon fill="none" stroke="#000000" points="828.5,-280.5 828.5,-299.5 995.5,-299.5 995.5,-280.5 828.5,-280.5"/>
<text text-anchor="middle" x="912" y="-287.5" font-family="FreeSans.ttf" font-size="10.00" fill="#000000">iDynTree/Core/MatrixDynSize.h</text>
</a>
</g>
</g>
<!-- Node0&#45;&gt;Node3 -->
<g id="edge3" class="edge">
<title>Node0&#45;&gt;Node3</title>
<path fill="none" stroke="#191970" d="M987.9235,-392.4509C974.0188,-373.688 942.9433,-331.7548 925.1599,-307.758"/>
<polygon fill="#191970" stroke="#191970" points="927.8247,-305.4753 919.0586,-299.5249 922.2006,-309.6431 927.8247,-305.4753"/>
</g>
<!-- Node4 -->
<g id="node5" class="node">
<title>Node4</title>
<g id="a_node5"><a xlink:href="Position_8h.html" target="_top" xlink:title="iDynTree/Core/Position.h">
<polygon fill="none" stroke="#000000" points="656,-280.5 656,-299.5 792,-299.5 792,-280.5 656,-280.5"/>
<text text-anchor="middle" x="724" y="-287.5" font-family="FreeSans.ttf" font-size="10.00" fill="#000000">iDynTree/Core/Position.h</text>
</a>
</g>
</g>
<!-- Node0&#45;&gt;Node4 -->
<g id="edge5" class="edge">
<title>Node0&#45;&gt;Node4</title>
<path fill="none" stroke="#191970" d="M971.8947,-392.4509C923.5952,-372.4895 811.8406,-326.3031 756.3984,-303.3897"/>
<polygon fill="#191970" stroke="#191970" points="757.6255,-300.1098 747.0468,-299.5249 754.9518,-306.5791 757.6255,-300.1098"/>
</g>
<!-- Node26 -->
<g id="node27" class="node">
<title>Node26</title>
<g id="a_node27"><a xlink:href="Transform_8h.html" target="_top" xlink:title="iDynTree/Core/Transform.h">
<polygon fill="none" stroke="#000000" points="413,-336.5 413,-355.5 559,-355.5 559,-336.5 413,-336.5"/>
<text text-anchor="middle" x="486" y="-343.5" font-family="FreeSans.ttf" font-size="10.00" fill="#000000">iDynTree/Core/Transform.h</text>
</a>
</g>
</g>
<!-- Node0&#45;&gt;Node26 -->
<g id="edge42" class="edge">
<title>Node0&#45;&gt;Node26</title>
<path fill="none" stroke="#191970" d="M935.365,-395.439C844.793,-385.4743 672.24,-366.4901 569.3182,-355.1666"/>
<polygon fill="#191970" stroke="#191970" points="569.5964,-351.6762 559.2736,-354.0615 568.8308,-358.6342 569.5964,-351.6762"/>
</g>
<!-- Node28 -->
<g id="node29" class="node">
<title>Node28</title>
<g id="a_node29"><a xlink:href="VectorDynSize_8h.html" target="_top" xlink:title="iDynTree/Core/VectorDynSize.h">
<polygon fill="none" stroke="#000000" points="1050.5,-112.5 1050.5,-131.5 1217.5,-131.5 1217.5,-112.5 1050.5,-112.5"/>
<text text-anchor="middle" x="1134" y="-119.5" font-family="FreeSans.ttf" font-size="10.00" fill="#000000">iDynTree/Core/VectorDynSize.h</text>
</a>
</g>
</g>
<!-- Node0&#45;&gt;Node28 -->
<g id="edge49" class="edge">
<title>Node0&#45;&gt;Node28</title>
<path fill="none" stroke="#191970" d="M1005.9482,-392.3551C1015.2768,-383.6418 1028.4873,-370.0615 1037,-356 1053.1644,-329.2992 1061,-321.2125 1061,-290 1061,-290 1061,-290 1061,-234 1061,-194.8965 1092.6171,-158.7535 1114.2361,-138.6105"/>
<polygon fill="#191970" stroke="#191970" points="1116.8346,-140.9817 1121.9455,-131.7011 1112.1627,-135.7688 1116.8346,-140.9817"/>
</g>
<!-- Node3&#45;&gt;Node1 -->
<g id="edge4" class="edge">
<title>Node3&#45;&gt;Node1</title>
<path fill="none" stroke="#191970" d="M929.8521,-280.3522C949.4587,-268.3712 976.8228,-246.7224 966,-224 932.0324,-152.6852 900.2559,-143.9169 828,-112 733.1033,-70.0823 696.3739,-98.6496 591.2761,-75.9284"/>
<polygon fill="#191970" stroke="#191970" points="591.7562,-72.4484 581.2294,-73.6468 590.2059,-79.2746 591.7562,-72.4484"/>
</g>
<!-- Node4&#45;&gt;Node1 -->
<g id="edge41" class="edge">
<title>Node4&#45;&gt;Node1</title>
<path fill="none" stroke="#191970" d="M729.8807,-280.4881C745.0563,-255.3804 783.5023,-187.8893 771,-168 750.4774,-135.3515 644.8856,-95.3711 590.8876,-76.6385"/>
<polygon fill="#191970" stroke="#191970" points="591.7213,-73.2243 581.1267,-73.289 589.4493,-79.8453 591.7213,-73.2243"/>
</g>
<!-- Node5 -->
<g id="node6" class="node">
<title>Node5</title>
<g id="a_node6"><a xlink:href="PositionRaw_8h.html" target="_top" xlink:title="iDynTree/Core/PositionRaw.h">
<polygon fill="none" stroke="#000000" points="606,-168.5 606,-187.5 762,-187.5 762,-168.5 606,-168.5"/>
<text text-anchor="middle" x="684" y="-175.5" font-family="FreeSans.ttf" font-size="10.00" fill="#000000">iDynTree/Core/PositionRaw.h</text>
</a>
</g>
</g>
<!-- Node4&#45;&gt;Node5 -->
<g id="edge6" class="edge">
<title>Node4&#45;&gt;Node5</title>
<path fill="none" stroke="#191970" d="M720.5896,-280.4509C714.0067,-262.0186 699.4376,-221.2254 690.8011,-197.043"/>
<polygon fill="#191970" stroke="#191970" points="694.0613,-195.7651 687.4017,-187.5249 687.4691,-198.1195 694.0613,-195.7651"/>
</g>
<!-- Node20 -->
<g id="node21" class="node">
<title>Node20</title>
<g id="a_node21"><a xlink:href="PositionSemantics_8h.html" target="_top" xlink:title="iDynTree/Core/PositionSemantics.h">
<polygon fill="none" stroke="#000000" points="770.5,-224.5 770.5,-243.5 957.5,-243.5 957.5,-224.5 770.5,-224.5"/>
<text text-anchor="middle" x="864" y="-231.5" font-family="FreeSans.ttf" font-size="10.00" fill="#000000">iDynTree/Core/PositionSemantics.h</text>
</a>
</g>
</g>
<!-- Node4&#45;&gt;Node20 -->
<g id="edge25" class="edge">
<title>Node4&#45;&gt;Node20</title>
<path fill="none" stroke="#191970" d="M748.0669,-280.3733C770.8428,-271.2629 805.2344,-257.5062 830.649,-247.3404"/>
<polygon fill="#191970" stroke="#191970" points="832.2623,-250.4648 840.2472,-243.5011 829.6625,-243.9654 832.2623,-250.4648"/>
</g>
<!-- Node21 -->
<g id="node22" class="node">
<title>Node21</title>
<g id="a_node22"><a xlink:href="Rotation_8h.html" target="_top" xlink:title="iDynTree/Core/Rotation.h">
<polygon fill="none" stroke="#000000" points="324.5,-224.5 324.5,-243.5 461.5,-243.5 461.5,-224.5 324.5,-224.5"/>
<text text-anchor="middle" x="393" y="-231.5" font-family="FreeSans.ttf" font-size="10.00" fill="#000000">iDynTree/Core/Rotation.h</text>
</a>
</g>
</g>
<!-- Node4&#45;&gt;Node21 -->
<g id="edge27" class="edge">
<title>Node4&#45;&gt;Node21</title>
<path fill="none" stroke="#191970" d="M667.4752,-280.4369C609.756,-270.6717 520.2029,-255.5207 459.2034,-245.2006"/>
<polygon fill="#191970" stroke="#191970" points="459.7355,-241.7409 449.2917,-243.5237 458.5677,-248.6429 459.7355,-241.7409"/>
</g>
<!-- Node5&#45;&gt;Node1 -->
<g id="edge24" class="edge">
<title>Node5&#45;&gt;Node1</title>
<path fill="none" stroke="#191970" d="M673.3426,-168.4509C651.9406,-149.2747 603.5271,-105.8962 577.079,-82.1988"/>
<polygon fill="#191970" stroke="#191970" points="579.4138,-79.5914 569.6305,-75.5249 574.7426,-84.8048 579.4138,-79.5914"/>
</g>
<!-- Node6 -->
<g id="node7" class="node">
<title>Node6</title>
<g id="a_node7"><a xlink:href="VectorFixSize_8h.html" target="_top" xlink:title="iDynTree/Core/VectorFixSize.h">
<polygon fill="none" stroke="#000000" points="236.5,-112.5 236.5,-131.5 397.5,-131.5 397.5,-112.5 236.5,-112.5"/>
<text text-anchor="middle" x="317" y="-119.5" font-family="FreeSans.ttf" font-size="10.00" fill="#000000">iDynTree/Core/VectorFixSize.h</text>
</a>
</g>
</g>
<!-- Node5&#45;&gt;Node6 -->
<g id="edge7" class="edge">
<title>Node5&#45;&gt;Node6</title>
<path fill="none" stroke="#191970" d="M621.3275,-168.4369C557.0668,-158.6314 457.2182,-143.3957 389.5686,-133.0731"/>
<polygon fill="#191970" stroke="#191970" points="389.8276,-129.5722 379.4141,-131.5237 388.7717,-136.4921 389.8276,-129.5722"/>
</g>
<!-- Node6&#45;&gt;Node1 -->
<g id="edge20" class="edge">
<title>Node6&#45;&gt;Node1</title>
<path fill="none" stroke="#191970" d="M358.3263,-112.4369C406.0675,-101.3893 483.5973,-83.4486 526.9875,-73.4079"/>
<polygon fill="#191970" stroke="#191970" points="527.7785,-76.8174 536.7319,-71.1529 526.2003,-69.9976 527.7785,-76.8174"/>
</g>
<!-- Node7 -->
<g id="node8" class="node">
<title>Node7</title>
<g id="a_node8"><a xlink:href="Utils_8h.html" target="_top" xlink:title="iDynTree/Core/Utils.h">
<polygon fill="none" stroke="#000000" points="116.5,-56.5 116.5,-75.5 235.5,-75.5 235.5,-56.5 116.5,-56.5"/>
<text text-anchor="middle" x="176" y="-63.5" font-family="FreeSans.ttf" font-size="10.00" fill="#000000">iDynTree/Core/Utils.h</text>
</a>
</g>
</g>
<!-- Node6&#45;&gt;Node7 -->
<g id="edge8" class="edge">
<title>Node6&#45;&gt;Node7</title>
<path fill="none" stroke="#191970" d="M292.7612,-112.3733C269.7211,-103.2226 234.8786,-89.3844 209.2499,-79.2057"/>
<polygon fill="#191970" stroke="#191970" points="210.5082,-75.9395 199.9225,-75.5011 207.9244,-82.4452 210.5082,-75.9395"/>
</g>
<!-- Node9 -->
<g id="node10" class="node">
<title>Node9</title>
<g id="a_node10"><a xlink:href="Span_8h.html" target="_top" xlink:title="iDynTree/Core/Span.h">
<polygon fill="none" stroke="#000000" points="599.5,-56.5 599.5,-75.5 720.5,-75.5 720.5,-56.5 599.5,-56.5"/>
<text text-anchor="middle" x="660" y="-63.5" font-family="FreeSans.ttf" font-size="10.00" fill="#000000">iDynTree/Core/Span.h</text>
</a>
</g>
</g>
<!-- Node6&#45;&gt;Node9 -->
<g id="edge10" class="edge">
<title>Node6&#45;&gt;Node9</title>
<path fill="none" stroke="#191970" d="M375.5741,-112.4369C435.5091,-102.6516 528.5683,-87.4582 591.7871,-77.1368"/>
<polygon fill="#191970" stroke="#191970" points="592.3622,-80.5893 601.6675,-75.5237 591.2342,-73.6808 592.3622,-80.5893"/>
</g>
<!-- Node10 -->
<g id="node11" class="node">
<title>Node10</title>
<polygon fill="none" stroke="#bfbfbf" points="327,-.5 327,-19.5 379,-19.5 379,-.5 327,-.5"/>
<text text-anchor="middle" x="353" y="-7.5" font-family="FreeSans.ttf" font-size="10.00" fill="#000000">cassert</text>
</g>
<!-- Node6&#45;&gt;Node10 -->
<g id="edge22" class="edge">
<title>Node6&#45;&gt;Node10</title>
<path fill="none" stroke="#191970" d="M342.885,-112.4647C358.7227,-105.1252 377.6794,-93.2779 387,-76 395.9011,-59.4997 383.7114,-40.4432 371.524,-27.0619"/>
<polygon fill="#191970" stroke="#191970" points="374.0065,-24.5946 364.5079,-19.9012 369.0065,-29.4936 374.0065,-24.5946"/>
</g>
<!-- Node18 -->
<g id="node19" class="node">
<title>Node18</title>
<polygon fill="none" stroke="#bfbfbf" points="254,-56.5 254,-75.5 310,-75.5 310,-56.5 254,-56.5"/>
<text text-anchor="middle" x="282" y="-63.5" font-family="FreeSans.ttf" font-size="10.00" fill="#000000">sstream</text>
</g>
<!-- Node6&#45;&gt;Node18 -->
<g id="edge21" class="edge">
<title>Node6&#45;&gt;Node18</title>
<path fill="none" stroke="#191970" d="M310.9035,-112.2455C306.0855,-104.5367 299.2249,-93.5598 293.3968,-84.2348"/>
<polygon fill="#191970" stroke="#191970" points="296.2947,-82.2677 288.0267,-75.6427 290.3587,-85.9777 296.2947,-82.2677"/>
</g>
<!-- Node19 -->
<g id="node20" class="node">
<title>Node19</title>
<polygon fill="none" stroke="#bfbfbf" points="328,-56.5 328,-75.5 378,-75.5 378,-56.5 328,-56.5"/>
<text text-anchor="middle" x="353" y="-63.5" font-family="FreeSans.ttf" font-size="10.00" fill="#000000">cstring</text>
</g>
<!-- Node6&#45;&gt;Node19 -->
<g id="edge23" class="edge">
<title>Node6&#45;&gt;Node19</title>
<path fill="none" stroke="#191970" d="M323.2707,-112.2455C328.2264,-104.5367 335.283,-93.5598 341.2776,-84.2348"/>
<polygon fill="#191970" stroke="#191970" points="344.3376,-85.9471 346.8011,-75.6427 338.4494,-82.1618 344.3376,-85.9471"/>
</g>
<!-- Node8 -->
<g id="node9" class="node">
<title>Node8</title>
<polygon fill="none" stroke="#bfbfbf" points="397.5,-.5 397.5,-19.5 450.5,-19.5 450.5,-.5 397.5,-.5"/>
<text text-anchor="middle" x="424" y="-7.5" font-family="FreeSans.ttf" font-size="10.00" fill="#000000">cstddef</text>
</g>
<!-- Node7&#45;&gt;Node8 -->
<g id="edge9" class="edge">
<title>Node7&#45;&gt;Node8</title>
<path fill="none" stroke="#191970" d="M223.7519,-56.4534C264.6497,-48.0937 325.3287,-35.2576 387.3464,-20.0571"/>
<polygon fill="#191970" stroke="#191970" points="388.439,-23.3926 397.3085,-17.5976 386.7611,-16.5966 388.439,-23.3926"/>
</g>
<!-- Node9&#45;&gt;Node8 -->
<g id="edge14" class="edge">
<title>Node9&#45;&gt;Node8</title>
<path fill="none" stroke="#191970" d="M615.7734,-56.4256C577.2974,-47.9619 519.8145,-34.9966 460.6028,-20.071"/>
<polygon fill="#191970" stroke="#191970" points="461.2543,-16.6255 450.7008,-17.5605 459.5339,-23.4108 461.2543,-16.6255"/>
</g>
<!-- Node9&#45;&gt;Node10 -->
<g id="edge11" class="edge">
<title>Node9&#45;&gt;Node10</title>
<path fill="none" stroke="#191970" d="M599.2817,-56.5355C536.1516,-46.5615 440.5088,-31.0449 389.2334,-20.0539"/>
<polygon fill="#191970" stroke="#191970" points="389.8132,-16.5976 379.2927,-17.85 388.298,-23.4316 389.8132,-16.5976"/>
</g>
<!-- Node11 -->
<g id="node12" class="node">
<title>Node11</title>
<polygon fill="none" stroke="#bfbfbf" points="897,-.5 897,-19.5 961,-19.5 961,-.5 897,-.5"/>
<text text-anchor="middle" x="929" y="-7.5" font-family="FreeSans.ttf" font-size="10.00" fill="#000000">algorithm</text>
</g>
<!-- Node9&#45;&gt;Node11 -->
<g id="edge12" class="edge">
<title>Node9&#45;&gt;Node11</title>
<path fill="none" stroke="#191970" d="M709.6977,-56.431C755.7556,-47.444 826.1329,-33.4092 887,-20 887.1006,-19.9778 887.2014,-19.9556 887.3023,-19.9333"/>
<polygon fill="#191970" stroke="#191970" points="887.9417,-23.3772 896.922,-17.7555 886.396,-16.55 887.9417,-23.3772"/>
</g>
<!-- Node12 -->
<g id="node13" class="node">
<title>Node12</title>
<polygon fill="none" stroke="#bfbfbf" points="469,-.5 469,-19.5 511,-19.5 511,-.5 469,-.5"/>
<text text-anchor="middle" x="490" y="-7.5" font-family="FreeSans.ttf" font-size="10.00" fill="#000000">array</text>
</g>
<!-- Node9&#45;&gt;Node12 -->
<g id="edge13" class="edge">
<title>Node9&#45;&gt;Node12</title>
<path fill="none" stroke="#191970" d="M630.7607,-56.4332C604.3663,-47.7884 564.2197,-34.6175 520.8874,-20.2853"/>
<polygon fill="#191970" stroke="#191970" points="521.8948,-16.9321 511.3015,-17.113 519.6955,-23.5777 521.8948,-16.9321"/>
</g>
<!-- Node13 -->
<g id="node14" class="node">
<title>Node13</title>
<polygon fill="none" stroke="#bfbfbf" points="529.5,-.5 529.5,-19.5 582.5,-19.5 582.5,-.5 529.5,-.5"/>
<text text-anchor="middle" x="556" y="-7.5" font-family="FreeSans.ttf" font-size="10.00" fill="#000000">iterator</text>
</g>
<!-- Node9&#45;&gt;Node13 -->
<g id="edge15" class="edge">
<title>Node9&#45;&gt;Node13</title>
<path fill="none" stroke="#191970" d="M641.8846,-56.2455C625.555,-47.4527 601.329,-34.4079 582.7661,-24.4125"/>
<polygon fill="#191970" stroke="#191970" points="584.3719,-21.3021 573.9078,-19.6427 581.0532,-27.4654 584.3719,-21.3021"/>
</g>
<!-- Node14 -->
<g id="node15" class="node">
<title>Node14</title>
<polygon fill="none" stroke="#bfbfbf" points="601,-.5 601,-19.5 645,-19.5 645,-.5 601,-.5"/>
<text text-anchor="middle" x="623" y="-7.5" font-family="FreeSans.ttf" font-size="10.00" fill="#000000">limits</text>
</g>
<!-- Node9&#45;&gt;Node14 -->
<g id="edge16" class="edge">
<title>Node9&#45;&gt;Node14</title>
<path fill="none" stroke="#191970" d="M653.5551,-56.2455C648.4618,-48.5367 641.2092,-37.5598 635.048,-28.2348"/>
<polygon fill="#191970" stroke="#191970" points="637.8038,-26.0566 629.3711,-19.6427 631.9635,-29.9155 637.8038,-26.0566"/>
</g>
<!-- Node15 -->
<g id="node16" class="node">
<title>Node15</title>
<polygon fill="none" stroke="#bfbfbf" points="663.5,-.5 663.5,-19.5 728.5,-19.5 728.5,-.5 663.5,-.5"/>
<text text-anchor="middle" x="696" y="-7.5" font-family="FreeSans.ttf" font-size="10.00" fill="#000000">stdexcept</text>
</g>
<!-- Node9&#45;&gt;Node15 -->
<g id="edge17" class="edge">
<title>Node9&#45;&gt;Node15</title>
<path fill="none" stroke="#191970" d="M666.2707,-56.2455C671.2264,-48.5367 678.283,-37.5598 684.2776,-28.2348"/>
<polygon fill="#191970" stroke="#191970" points="687.3376,-29.9471 689.8011,-19.6427 681.4494,-26.1618 687.3376,-29.9471"/>
</g>
<!-- Node16 -->
<g id="node17" class="node">
<title>Node16</title>
<polygon fill="none" stroke="#bfbfbf" points="746.5,-.5 746.5,-19.5 815.5,-19.5 815.5,-.5 746.5,-.5"/>
<text text-anchor="middle" x="781" y="-7.5" font-family="FreeSans.ttf" font-size="10.00" fill="#000000">type_traits</text>
</g>
<!-- Node9&#45;&gt;Node16 -->
<g id="edge18" class="edge">
<title>Node9&#45;&gt;Node16</title>
<path fill="none" stroke="#191970" d="M680.8006,-56.3733C700.2243,-47.3838 729.4224,-33.8706 751.2964,-23.7471"/>
<polygon fill="#191970" stroke="#191970" points="752.8656,-26.8776 760.4708,-19.5011 749.9255,-20.5249 752.8656,-26.8776"/>
</g>
<!-- Node17 -->
<g id="node18" class="node">
<title>Node17</title>
<polygon fill="none" stroke="#bfbfbf" points="833.5,-.5 833.5,-19.5 878.5,-19.5 878.5,-.5 833.5,-.5"/>
<text text-anchor="middle" x="856" y="-7.5" font-family="FreeSans.ttf" font-size="10.00" fill="#000000">utility</text>
</g>
<!-- Node9&#45;&gt;Node17 -->
<g id="edge19" class="edge">
<title>Node9&#45;&gt;Node17</title>
<path fill="none" stroke="#191970" d="M695.2767,-56.428C726.5326,-47.8753 773.6343,-34.8129 823.6055,-20.0576"/>
<polygon fill="#191970" stroke="#191970" points="824.7064,-23.3819 833.2995,-17.1844 822.7172,-16.6705 824.7064,-23.3819"/>
</g>
<!-- Node20&#45;&gt;Node1 -->
<g id="edge26" class="edge">
<title>Node20&#45;&gt;Node1</title>
<path fill="none" stroke="#191970" d="M862.2908,-224.1581C857.6391,-200.5649 842.4268,-140.6221 804,-112 729.2194,-56.2998 686.5882,-96.0241 591.2526,-75.8939"/>
<polygon fill="#191970" stroke="#191970" points="591.7691,-72.4216 581.2402,-73.6017 590.207,-79.2451 591.7691,-72.4216"/>
</g>
<!-- Node21&#45;&gt;Node1 -->
<g id="edge28" class="edge">
<title>Node21&#45;&gt;Node1</title>
<path fill="none" stroke="#191970" d="M452.8788,-224.4841C476.873,-217.8891 503.0325,-206.7582 521,-188 548.1229,-159.6836 555.9072,-112.3116 558.1275,-85.6953"/>
<polygon fill="#191970" stroke="#191970" points="561.6227,-85.8811 558.7786,-75.6752 554.6375,-85.4272 561.6227,-85.8811"/>
</g>
<!-- Node21&#45;&gt;Node6 -->
<g id="edge40" class="edge">
<title>Node21&#45;&gt;Node6</title>
<path fill="none" stroke="#191970" d="M324.3035,-227.8453C242.5923,-219.8168 115.3595,-204.7987 101,-188 95.2243,-181.2432 95.4074,-174.9091 101,-168 110.1215,-156.7314 183.8635,-142.7211 242.6837,-133.1423"/>
<polygon fill="#191970" stroke="#191970" points="243.4103,-136.5705 252.727,-131.5257 242.2978,-129.6594 243.4103,-136.5705"/>
</g>
<!-- Node22 -->
<g id="node23" class="node">
<title>Node22</title>
<g id="a_node23"><a xlink:href="RotationRaw_8h.html" target="_top" xlink:title="iDynTree/Core/RotationRaw.h">
<polygon fill="none" stroke="#000000" points="110,-168.5 110,-187.5 268,-187.5 268,-168.5 110,-168.5"/>
<text text-anchor="middle" x="189" y="-175.5" font-family="FreeSans.ttf" font-size="10.00" fill="#000000">iDynTree/Core/RotationRaw.h</text>
</a>
</g>
</g>
<!-- Node21&#45;&gt;Node22 -->
<g id="edge29" class="edge">
<title>Node21&#45;&gt;Node22</title>
<path fill="none" stroke="#191970" d="M357.9311,-224.3733C323.5685,-214.9404 271.0608,-200.5265 233.7149,-190.2747"/>
<polygon fill="#191970" stroke="#191970" points="234.181,-186.7732 223.6112,-187.5011 232.328,-193.5235 234.181,-186.7732"/>
</g>
<!-- Node25 -->
<g id="node26" class="node">
<title>Node25</title>
<g id="a_node26"><a xlink:href="RotationSemantics_8h.html" target="_top" xlink:title="iDynTree/Core/RotationSemantics.h">
<polygon fill="none" stroke="#000000" points="324,-168.5 324,-187.5 512,-187.5 512,-168.5 324,-168.5"/>
<text text-anchor="middle" x="418" y="-175.5" font-family="FreeSans.ttf" font-size="10.00" fill="#000000">iDynTree/Core/RotationSemantics.h</text>
</a>
</g>
</g>
<!-- Node21&#45;&gt;Node25 -->
<g id="edge38" class="edge">
<title>Node21&#45;&gt;Node25</title>
<path fill="none" stroke="#191970" d="M397.3547,-224.2455C400.7244,-216.6973 405.493,-206.0158 409.5983,-196.8197"/>
<polygon fill="#191970" stroke="#191970" points="412.8147,-198.2009 413.6952,-187.6427 406.4227,-195.3473 412.8147,-198.2009"/>
</g>
<!-- Node22&#45;&gt;Node1 -->
<g id="edge37" class="edge">
<title>Node22&#45;&gt;Node1</title>
<path fill="none" stroke="#191970" d="M251.6837,-168.4378C295.5449,-160.849 355.1498,-148.7248 406,-132 426.4056,-125.2885 430.325,-120.6213 450,-112 475.9398,-100.6336 505.5573,-88.1668 527.3659,-79.0823"/>
<polygon fill="#191970" stroke="#191970" points="528.9049,-82.233 536.7953,-75.1625 526.2179,-75.7693 528.9049,-82.233"/>
</g>
<!-- Node23 -->
<g id="node24" class="node">
<title>Node23</title>
<g id="a_node24"><a xlink:href="MatrixFixSize_8h.html" target="_top" xlink:title="iDynTree/Core/MatrixFixSize.h">
<polygon fill="none" stroke="#000000" points="57.5,-112.5 57.5,-131.5 218.5,-131.5 218.5,-112.5 57.5,-112.5"/>
<text text-anchor="middle" x="138" y="-119.5" font-family="FreeSans.ttf" font-size="10.00" fill="#000000">iDynTree/Core/MatrixFixSize.h</text>
</a>
</g>
</g>
<!-- Node22&#45;&gt;Node23 -->
<g id="edge30" class="edge">
<title>Node22&#45;&gt;Node23</title>
<path fill="none" stroke="#191970" d="M180.1165,-168.2455C172.8034,-160.2155 162.2609,-148.6394 153.5533,-139.0781"/>
<polygon fill="#191970" stroke="#191970" points="156.1028,-136.6795 146.7817,-131.6427 150.9273,-141.3928 156.1028,-136.6795"/>
</g>
<!-- Node23&#45;&gt;Node1 -->
<g id="edge34" class="edge">
<title>Node23&#45;&gt;Node1</title>
<path fill="none" stroke="#191970" d="M209.8941,-112.4369C302.4071,-100.1311 459.2187,-79.2726 526.6244,-70.3065"/>
<polygon fill="#191970" stroke="#191970" points="527.2003,-73.7608 536.6515,-68.9727 526.2772,-66.8219 527.2003,-73.7608"/>
</g>
<!-- Node23&#45;&gt;Node7 -->
<g id="edge31" class="edge">
<title>Node23&#45;&gt;Node7</title>
<path fill="none" stroke="#191970" d="M144.6191,-112.2455C149.9046,-104.4564 157.4541,-93.3308 163.8238,-83.9439"/>
<polygon fill="#191970" stroke="#191970" points="166.7379,-85.8827 169.4568,-75.6427 160.9455,-81.9522 166.7379,-85.8827"/>
</g>
<!-- Node23&#45;&gt;Node10 -->
<g id="edge32" class="edge">
<title>Node23&#45;&gt;Node10</title>
<path fill="none" stroke="#191970" d="M127.111,-112.1807C113.2153,-98.4726 92.605,-73.3363 107,-56 133.2381,-24.4008 254.8945,-14.3859 316.7207,-11.309"/>
<polygon fill="#191970" stroke="#191970" points="316.9925,-14.8003 326.8201,-10.8419 316.669,-7.8078 316.9925,-14.8003"/>
</g>
<!-- Node23&#45;&gt;Node18 -->
<g id="edge36" class="edge">
<title>Node23&#45;&gt;Node18</title>
<path fill="none" stroke="#191970" d="M162.7545,-112.3733C186.2849,-103.2226 221.8687,-89.3844 248.0426,-79.2057"/>
<polygon fill="#191970" stroke="#191970" points="249.5171,-82.3877 257.5685,-75.5011 246.9799,-75.8636 249.5171,-82.3877"/>
</g>
<!-- Node23&#45;&gt;Node19 -->
<g id="edge33" class="edge">
<title>Node23&#45;&gt;Node19</title>
<path fill="none" stroke="#191970" d="M177.302,-112.4587C211.9593,-103.9452 264.0567,-90.9065 318.0383,-76.1981"/>
<polygon fill="#191970" stroke="#191970" points="319.0579,-79.5479 327.7787,-73.5313 317.2094,-72.7963 319.0579,-79.5479"/>
</g>
<!-- Node24 -->
<g id="node25" class="node">
<title>Node24</title>
<polygon fill="none" stroke="#bfbfbf" points="0,-56.5 0,-75.5 60,-75.5 60,-56.5 0,-56.5"/>
<text text-anchor="middle" x="30" y="-63.5" font-family="FreeSans.ttf" font-size="10.00" fill="#000000">iostream</text>
</g>
<!-- Node23&#45;&gt;Node24 -->
<g id="edge35" class="edge">
<title>Node23&#45;&gt;Node24</title>
<path fill="none" stroke="#191970" d="M119.1878,-112.2455C102.1527,-103.4125 76.8425,-90.2887 57.5319,-80.2758"/>
<polygon fill="#191970" stroke="#191970" points="59.0853,-77.1388 48.5966,-75.6427 55.863,-83.353 59.0853,-77.1388"/>
</g>
<!-- Node25&#45;&gt;Node1 -->
<g id="edge39" class="edge">
<title>Node25&#45;&gt;Node1</title>
<path fill="none" stroke="#191970" d="M430.9599,-168.239C443.17,-159.0016 461.9363,-144.6977 478,-132 499.3282,-115.1409 523.4461,-95.4005 539.7769,-81.9311"/>
<polygon fill="#191970" stroke="#191970" points="542.0716,-84.5753 547.5511,-75.5075 537.6128,-79.1791 542.0716,-84.5753"/>
</g>
<!-- Node26&#45;&gt;Node1 -->
<g id="edge48" class="edge">
<title>Node26&#45;&gt;Node1</title>
<path fill="none" stroke="#191970" d="M450.5344,-336.3845C409.5177,-323.1466 343.9343,-294.9498 315,-244 298.3198,-214.6281 294.6311,-194.9453 315,-168 350.3785,-121.199 387.8473,-154.5713 442,-132 444.3858,-131.0056 499.6049,-99.7209 533.3186,-80.5865"/>
<polygon fill="#191970" stroke="#191970" points="535.2271,-83.5278 542.1955,-75.5471 531.7712,-77.4403 535.2271,-83.5278"/>
</g>
<!-- Node26&#45;&gt;Node4 -->
<g id="edge43" class="edge">
<title>Node26&#45;&gt;Node4</title>
<path fill="none" stroke="#191970" d="M526.6432,-336.4369C567.2895,-326.8731 629.8913,-312.1432 673.6587,-301.845"/>
<polygon fill="#191970" stroke="#191970" points="674.5919,-305.2211 683.5244,-299.5237 672.9886,-298.4072 674.5919,-305.2211"/>
</g>
<!-- Node26&#45;&gt;Node21 -->
<g id="edge44" class="edge">
<title>Node26&#45;&gt;Node21</title>
<path fill="none" stroke="#191970" d="M478.0709,-336.4509C462.4223,-317.6054 427.3642,-275.3849 407.483,-251.4419"/>
<polygon fill="#191970" stroke="#191970" points="409.9901,-248.9824 400.9091,-243.5249 404.6047,-253.4543 409.9901,-248.9824"/>
</g>
<!-- Node26&#45;&gt;Node23 -->
<g id="edge47" class="edge">
<title>Node26&#45;&gt;Node23</title>
<path fill="none" stroke="#191970" d="M419.6618,-336.4568C378.9795,-329.2915 326.3654,-317.6362 282,-300 191.265,-263.9309 141.3397,-272.8357 93,-188 82.8268,-170.1461 99.5052,-150.8494 115.3602,-137.7612"/>
<polygon fill="#191970" stroke="#191970" points="117.6584,-140.4085 123.4296,-131.5234 113.3773,-134.8702 117.6584,-140.4085"/>
</g>
<!-- Node27 -->
<g id="node28" class="node">
<title>Node27</title>
<g id="a_node28"><a xlink:href="TransformSemantics_8h.html" target="_top" xlink:title="iDynTree/Core/TransformSemantics.h">
<polygon fill="none" stroke="#000000" points="479.5,-224.5 479.5,-243.5 676.5,-243.5 676.5,-224.5 479.5,-224.5"/>
<text text-anchor="middle" x="578" y="-231.5" font-family="FreeSans.ttf" font-size="10.00" fill="#000000">iDynTree/Core/TransformSemantics.h</text>
</a>
</g>
</g>
<!-- Node26&#45;&gt;Node27 -->
<g id="edge45" class="edge">
<title>Node26&#45;&gt;Node27</title>
<path fill="none" stroke="#191970" d="M493.8439,-336.4509C509.3242,-317.6054 544.0053,-275.3849 563.6727,-251.4419"/>
<polygon fill="#191970" stroke="#191970" points="566.5331,-253.4738 570.176,-243.5249 561.124,-249.0306 566.5331,-253.4738"/>
</g>
<!-- Node27&#45;&gt;Node1 -->
<g id="edge46" class="edge">
<title>Node27&#45;&gt;Node1</title>
<path fill="none" stroke="#191970" d="M576.924,-224.4862C573.9206,-197.9293 565.3972,-122.5651 561.2806,-86.1655"/>
<polygon fill="#191970" stroke="#191970" points="564.7132,-85.3712 560.1115,-75.8279 557.7575,-86.1579 564.7132,-85.3712"/>
</g>
<!-- Node28&#45;&gt;Node1 -->
<g id="edge51" class="edge">
<title>Node28&#45;&gt;Node1</title>
<path fill="none" stroke="#191970" d="M1050.4127,-113.2629C1045.8767,-112.8262 1041.3832,-112.4024 1037,-112 841.8197,-94.0818 787.2871,-114.1658 591.2393,-75.8297"/>
<polygon fill="#191970" stroke="#191970" points="591.6776,-72.3486 581.188,-73.8377 590.3168,-79.215 591.6776,-72.3486"/>
</g>
<!-- Node28&#45;&gt;Node9 -->
<g id="edge50" class="edge">
<title>Node28&#45;&gt;Node9</title>
<path fill="none" stroke="#191970" d="M1053.3239,-112.4686C962.699,-101.7619 817.0278,-84.5518 730.7007,-74.3528"/>
<polygon fill="#191970" stroke="#191970" points="731.0744,-70.8727 720.7328,-73.1752 730.253,-77.8244 731.0744,-70.8727"/>
</g>
</g>
</svg>
