<?xml version="1.0" encoding="UTF-8" standalone="no"?>
<!DOCTYPE svg PUBLIC "-//W3C//DTD SVG 1.1//EN"
 "http://www.w3.org/Graphics/SVG/1.1/DTD/svg11.dtd">
<!-- Generated by graphviz version 2.40.1 (20161225.0304)
 -->
<!-- Title: Cost.h Pages: 1 -->
<svg width="469pt" height="140pt"
 viewBox="0.00 0.00 469.00 140.00" xmlns="http://www.w3.org/2000/svg" xmlns:xlink="http://www.w3.org/1999/xlink">
<g id="graph0" class="graph" transform="scale(1 1) rotate(0) translate(4 136)">
<title>Cost.h</title>
<!-- Node2 -->
<g id="node1" class="node">
<title>Node2</title>
<polygon fill="#bfbfbf" stroke="#000000" points="189.5,-112.5 189.5,-131.5 236.5,-131.5 236.5,-112.5 189.5,-112.5"/>
<text text-anchor="middle" x="213" y="-119.5" font-family="FreeSans.ttf" font-size="10.00" fill="#000000">Cost.h</text>
</g>
<!-- Node3 -->
<g id="node2" class="node">
<title>Node3</title>
<g id="a_node2"><a xlink:href="OptimalControl_8h.html" target="_top" xlink:title="OptimalControl.h">
<polygon fill="none" stroke="#000000" points="0,-56.5 0,-75.5 100,-75.5 100,-56.5 0,-56.5"/>
<text text-anchor="middle" x="50" y="-63.5" font-family="FreeSans.ttf" font-size="10.00" fill="#000000">OptimalControl.h</text>
</a>
</g>
</g>
<!-- Node2&#45;&gt;Node3 -->
<g id="edge1" class="edge">
<title>Node2&#45;&gt;Node3</title>
<path fill="none" stroke="#191970" d="M179.6803,-110.5528C149.6573,-100.2381 106.0253,-85.248 77.8275,-75.5604"/>
<polygon fill="#191970" stroke="#191970" points="178.7037,-113.918 189.2984,-113.8571 180.9782,-107.2978 178.7037,-113.918"/>
</g>
<!-- Node4 -->
<g id="node3" class="node">
<title>Node4</title>
<g id="a_node3"><a xlink:href="QuadraticCost_8h.html" target="_top" xlink:title="QuadraticCost.h">
<polygon fill="none" stroke="#000000" points="118.5,-56.5 118.5,-75.5 213.5,-75.5 213.5,-56.5 118.5,-56.5"/>
<text text-anchor="middle" x="166" y="-63.5" font-family="FreeSans.ttf" font-size="10.00" fill="#000000">QuadraticCost.h</text>
</a>
</g>
</g>
<!-- Node2&#45;&gt;Node4 -->
<g id="edge2" class="edge">
<title>Node2&#45;&gt;Node4</title>
<path fill="none" stroke="#191970" d="M198.3128,-104.5004C190.3204,-94.9775 180.7375,-83.5596 174.093,-75.6427"/>
<polygon fill="#191970" stroke="#191970" points="195.7036,-106.8358 204.8132,-112.2455 201.0654,-102.3357 195.7036,-106.8358"/>
</g>
<!-- Node6 -->
<g id="node5" class="node">
<title>Node6</title>
<g id="a_node5"><a xlink:href="Cost_8cpp.html" target="_top" xlink:title="Cost.cpp">
<polygon fill="none" stroke="#000000" points="231.5,-56.5 231.5,-75.5 290.5,-75.5 290.5,-56.5 231.5,-56.5"/>
<text text-anchor="middle" x="261" y="-63.5" font-family="FreeSans.ttf" font-size="10.00" fill="#000000">Cost.cpp</text>
</a>
</g>
</g>
<!-- Node2&#45;&gt;Node6 -->
<g id="edge4" class="edge">
<title>Node2&#45;&gt;Node6</title>
<path fill="none" stroke="#191970" d="M227.9997,-104.5004C236.1622,-94.9775 245.9489,-83.5596 252.7349,-75.6427"/>
<polygon fill="#191970" stroke="#191970" points="225.2115,-102.3752 221.361,-112.2455 230.5263,-106.9307 225.2115,-102.3752"/>
</g>
<!-- Node7 -->
<g id="node6" class="node">
<title>Node7</title>
<g id="a_node6"><a xlink:href="OptimalControlProblem_8cpp.html" target="_top" xlink:title="OptimalControlProblem.cpp">
<polygon fill="none" stroke="#000000" points="309,-56.5 309,-75.5 461,-75.5 461,-56.5 309,-56.5"/>
<text text-anchor="middle" x="385" y="-63.5" font-family="FreeSans.ttf" font-size="10.00" fill="#000000">OptimalControlProblem.cpp</text>
</a>
</g>
</g>
<!-- Node2&#45;&gt;Node7 -->
<g id="edge5" class="edge">
<title>Node2&#45;&gt;Node7</title>
<path fill="none" stroke="#191970" d="M246.2698,-111.168C278.0065,-100.8351 325.346,-85.4222 355.6954,-75.541"/>
<polygon fill="#191970" stroke="#191970" points="244.9804,-107.9069 236.5552,-114.3309 247.1475,-114.563 244.9804,-107.9069"/>
</g>
<!-- Node5 -->
<g id="node4" class="node">
<title>Node5</title>
<g id="a_node4"><a xlink:href="QuadraticCost_8cpp.html" target="_top" xlink:title="QuadraticCost.cpp">
<polygon fill="none" stroke="#000000" points="113,-.5 113,-19.5 219,-19.5 219,-.5 113,-.5"/>
<text text-anchor="middle" x="166" y="-7.5" font-family="FreeSans.ttf" font-size="10.00" fill="#000000">QuadraticCost.cpp</text>
</a>
</g>
</g>
<!-- Node4&#45;&gt;Node5 -->
<g id="edge3" class="edge">
<title>Node4&#45;&gt;Node5</title>
<path fill="none" stroke="#191970" d="M166,-46.1575C166,-37.155 166,-26.9199 166,-19.6427"/>
<polygon fill="#191970" stroke="#191970" points="162.5001,-46.2455 166,-56.2455 169.5001,-46.2456 162.5001,-46.2455"/>
</g>
</g>
</svg>
