<?xml version="1.0" encoding="UTF-8" standalone="no"?>
<!DOCTYPE svg PUBLIC "-//W3C//DTD SVG 1.1//EN"
 "http://www.w3.org/Graphics/SVG/1.1/DTD/svg11.dtd">
<!-- Generated by graphviz version 2.40.1 (20161225.0304)
 -->
<!-- Title: src Pages: 1 -->
<svg width="221pt" height="367pt"
 viewBox="0.00 0.00 220.83 367.00" xmlns="http://www.w3.org/2000/svg" xmlns:xlink="http://www.w3.org/1999/xlink">
<g id="graph0" class="graph" transform="scale(1 1) rotate(0) translate(4 363)">
<title>src</title>
<g id="clust1" class="cluster">
<title>clusterdir_710615f1fcb70e449001c5bcbae9c23a</title>
<g id="a_clust1"><a xlink:href="dir_710615f1fcb70e449001c5bcbae9c23a.html" target="_top" xlink:title="estimation">
<polygon fill="#ddddee" stroke="#000000" points="69.0861,-280 69.0861,-351 139.0861,-351 139.0861,-280 69.0861,-280"/>
<text text-anchor="middle" x="104.0861" y="-339" font-family="FreeSans.ttf" font-size="10.00" fill="#000000">estimation</text>
</a>
</g>
</g>
<!-- dir_c0a19cd8a90bd2ff9eaf571ff5da9093 -->
<g id="node1" class="node">
<title>dir_c0a19cd8a90bd2ff9eaf571ff5da9093</title>
<g id="a_node1"><a xlink:href="dir_c0a19cd8a90bd2ff9eaf571ff5da9093.html" target="_top" xlink:title="src">
<polygon fill="#eeeeff" stroke="#000000" points="131.0861,-324 77.0861,-324 77.0861,-288 131.0861,-288 131.0861,-324"/>
<text text-anchor="middle" x="104.0861" y="-303.5" font-family="FreeSans.ttf" font-size="10.00" fill="#000000">src</text>
</a>
</g>
</g>
<!-- dir_78fffd686f5438be918918eb345e2fa3 -->
<g id="node2" class="node">
<title>dir_78fffd686f5438be918918eb345e2fa3</title>
<g id="a_node2"><a xlink:href="dir_78fffd686f5438be918918eb345e2fa3.html" target="_top" xlink:title="include">
<polygon fill="none" stroke="#ff0000" points="76.0861,-252 22.0861,-252 22.0861,-216 76.0861,-216 76.0861,-252"/>
<text text-anchor="middle" x="49.0861" y="-231.5" font-family="FreeSans.ttf" font-size="10.00" fill="#000000">include</text>
</a>
</g>
</g>
<!-- dir_c0a19cd8a90bd2ff9eaf571ff5da9093&#45;&gt;dir_78fffd686f5438be918918eb345e2fa3 -->
<g id="edge4" class="edge">
<title>dir_c0a19cd8a90bd2ff9eaf571ff5da9093&#45;&gt;dir_78fffd686f5438be918918eb345e2fa3</title>
<path fill="none" stroke="#000000" d="M90.2072,-287.8314C83.8725,-279.5386 76.2477,-269.557 69.2935,-260.4533"/>
<polygon fill="#000000" stroke="#000000" points="72.0036,-258.2353 63.1518,-252.4133 66.4408,-262.4847 72.0036,-258.2353"/>
<g id="a_edge4&#45;headlabel"><a xlink:href="dir_000017_000018.html" target="_top" xlink:title="12">
<text text-anchor="middle" x="76.4419" y="-256.8683" font-family="FreeSans.ttf" font-size="10.00" fill="#000000">12</text>
</a>
</g>
</g>
<!-- dir_7349e89ef19c117195f8e371603e1b1f -->
<g id="node3" class="node">
<title>dir_7349e89ef19c117195f8e371603e1b1f</title>
<g id="a_node3"><a xlink:href="dir_7349e89ef19c117195f8e371603e1b1f.html" target="_top" xlink:title="sensors">
<polygon fill="none" stroke="#ff0000" points="152.0861,-180 98.0861,-180 98.0861,-144 152.0861,-144 152.0861,-180"/>
<text text-anchor="middle" x="125.0861" y="-159.5" font-family="FreeSans.ttf" font-size="10.00" fill="#000000">sensors</text>
</a>
</g>
</g>
<!-- dir_c0a19cd8a90bd2ff9eaf571ff5da9093&#45;&gt;dir_7349e89ef19c117195f8e371603e1b1f -->
<g id="edge5" class="edge">
<title>dir_c0a19cd8a90bd2ff9eaf571ff5da9093&#45;&gt;dir_7349e89ef19c117195f8e371603e1b1f</title>
<path fill="none" stroke="#000000" d="M106.7457,-287.7623C110.3276,-263.201 116.7375,-219.2474 120.9511,-190.3541"/>
<polygon fill="#000000" stroke="#000000" points="124.4682,-190.4901 122.448,-180.0896 117.5415,-189.4798 124.4682,-190.4901"/>
<g id="a_edge5&#45;headlabel"><a xlink:href="dir_000017_000001.html" target="_top" xlink:title="8">
<text text-anchor="middle" x="126.7591" y="-191.9567" font-family="FreeSans.ttf" font-size="10.00" fill="#000000">8</text>
</a>
</g>
</g>
<!-- dir_fb93052291ccda37fd41b6d18f3dfcc9 -->
<g id="node4" class="node">
<title>dir_fb93052291ccda37fd41b6d18f3dfcc9</title>
<g id="a_node4"><a xlink:href="dir_fb93052291ccda37fd41b6d18f3dfcc9.html" target="_top" xlink:title="model_io">
<polygon fill="none" stroke="#ff0000" points="194.0861,-252 132.0861,-252 132.0861,-216 194.0861,-216 194.0861,-252"/>
<text text-anchor="middle" x="163.0861" y="-231.5" font-family="FreeSans.ttf" font-size="10.00" fill="#000000">model_io</text>
</a>
</g>
</g>
<!-- dir_c0a19cd8a90bd2ff9eaf571ff5da9093&#45;&gt;dir_fb93052291ccda37fd41b6d18f3dfcc9 -->
<g id="edge6" class="edge">
<title>dir_c0a19cd8a90bd2ff9eaf571ff5da9093&#45;&gt;dir_fb93052291ccda37fd41b6d18f3dfcc9</title>
<path fill="none" stroke="#000000" d="M118.9743,-287.8314C125.839,-279.454 134.1161,-269.3531 141.6372,-260.1749"/>
<polygon fill="#000000" stroke="#000000" points="144.3663,-262.3665 147.9974,-252.4133 138.952,-257.9297 144.3663,-262.3665"/>
<g id="a_edge6&#45;headlabel"><a xlink:href="dir_000017_000038.html" target="_top" xlink:title="2">
<text text-anchor="middle" x="144.2841" y="-264.4464" font-family="FreeSans.ttf" font-size="10.00" fill="#000000">2</text>
</a>
</g>
</g>
<!-- dir_5dd65160827af56e6353642206b80129 -->
<g id="node5" class="node">
<title>dir_5dd65160827af56e6353642206b80129</title>
<g id="a_node5"><a xlink:href="dir_5dd65160827af56e6353642206b80129.html" target="_top" xlink:title="model">
<polygon fill="none" stroke="#ff0000" points="179.0861,-108 125.0861,-108 125.0861,-72 179.0861,-72 179.0861,-108"/>
<text text-anchor="middle" x="152.0861" y="-87.5" font-family="FreeSans.ttf" font-size="10.00" fill="#000000">model</text>
</a>
</g>
</g>
<!-- dir_c0a19cd8a90bd2ff9eaf571ff5da9093&#45;&gt;dir_5dd65160827af56e6353642206b80129 -->
<g id="edge7" class="edge">
<title>dir_c0a19cd8a90bd2ff9eaf571ff5da9093&#45;&gt;dir_5dd65160827af56e6353642206b80129</title>
<path fill="none" stroke="#000000" d="M131.3816,-299.4609C154.9958,-292.2013 187.6954,-277.9261 203.0861,-252 229.0616,-208.2432 196.8379,-149.8604 173.0784,-116.4569"/>
<polygon fill="#000000" stroke="#000000" points="175.7008,-114.1148 166.9592,-108.1286 170.0597,-118.2596 175.7008,-114.1148"/>
<g id="a_edge7&#45;headlabel"><a xlink:href="dir_000017_000027.html" target="_top" xlink:title="22">
<text text-anchor="middle" x="180.1172" y="-112.8304" font-family="FreeSans.ttf" font-size="10.00" fill="#000000">22</text>
</a>
</g>
</g>
<!-- dir_aebb8dcc11953d78e620bbef0b9e2183 -->
<g id="node6" class="node">
<title>dir_aebb8dcc11953d78e620bbef0b9e2183</title>
<g id="a_node6"><a xlink:href="dir_aebb8dcc11953d78e620bbef0b9e2183.html" target="_top" xlink:title="core">
<polygon fill="none" stroke="#ff0000" points="124.0861,-36 70.0861,-36 70.0861,0 124.0861,0 124.0861,-36"/>
<text text-anchor="middle" x="97.0861" y="-15.5" font-family="FreeSans.ttf" font-size="10.00" fill="#000000">core</text>
</a>
</g>
</g>
<!-- dir_c0a19cd8a90bd2ff9eaf571ff5da9093&#45;&gt;dir_aebb8dcc11953d78e620bbef0b9e2183 -->
<g id="edge8" class="edge">
<title>dir_c0a19cd8a90bd2ff9eaf571ff5da9093&#45;&gt;dir_aebb8dcc11953d78e620bbef0b9e2183</title>
<path fill="none" stroke="#000000" d="M76.7813,-298.0514C55.2354,-290.1773 26.6303,-275.7867 13.0861,-252 -27.026,-181.5545 36.9277,-88.528 73.8437,-43.9681"/>
<polygon fill="#000000" stroke="#000000" points="76.6047,-46.1235 80.3909,-36.2282 71.2603,-41.6027 76.6047,-46.1235"/>
<g id="a_edge8&#45;headlabel"><a xlink:href="dir_000017_000006.html" target="_top" xlink:title="16">
<text text-anchor="middle" x="76.451" y="-48.2016" font-family="FreeSans.ttf" font-size="10.00" fill="#000000">16</text>
</a>
</g>
</g>
<!-- dir_78fffd686f5438be918918eb345e2fa3&#45;&gt;dir_7349e89ef19c117195f8e371603e1b1f -->
<g id="edge1" class="edge">
<title>dir_78fffd686f5438be918918eb345e2fa3&#45;&gt;dir_7349e89ef19c117195f8e371603e1b1f</title>
<path fill="none" stroke="#000000" d="M68.2641,-215.8314C77.4449,-207.1337 88.5867,-196.5783 98.5636,-187.1265"/>
<polygon fill="#000000" stroke="#000000" points="101.0618,-189.5811 105.9142,-180.1628 96.2475,-184.4995 101.0618,-189.5811"/>
<g id="a_edge1&#45;headlabel"><a xlink:href="dir_000018_000001.html" target="_top" xlink:title="2">
<text text-anchor="middle" x="100.4049" y="-191.6145" font-family="FreeSans.ttf" font-size="10.00" fill="#000000">2</text>
</a>
</g>
</g>
<!-- dir_78fffd686f5438be918918eb345e2fa3&#45;&gt;dir_5dd65160827af56e6353642206b80129 -->
<g id="edge2" class="edge">
<title>dir_78fffd686f5438be918918eb345e2fa3&#45;&gt;dir_5dd65160827af56e6353642206b80129</title>
<path fill="none" stroke="#000000" d="M54.4958,-215.8466C60.7733,-196.727 72.4373,-166.3518 89.0861,-144 97.1662,-133.152 107.7946,-122.997 118.0149,-114.486"/>
<polygon fill="#000000" stroke="#000000" points="120.454,-117.0166 126.0674,-108.031 116.0757,-111.5548 120.454,-117.0166"/>
<g id="a_edge2&#45;headlabel"><a xlink:href="dir_000018_000027.html" target="_top" xlink:title="24">
<text text-anchor="middle" x="119.4251" y="-118.9802" font-family="FreeSans.ttf" font-size="10.00" fill="#000000">24</text>
</a>
</g>
</g>
<!-- dir_78fffd686f5438be918918eb345e2fa3&#45;&gt;dir_aebb8dcc11953d78e620bbef0b9e2183 -->
<g id="edge3" class="edge">
<title>dir_78fffd686f5438be918918eb345e2fa3&#45;&gt;dir_aebb8dcc11953d78e620bbef0b9e2183</title>
<path fill="none" stroke="#000000" d="M51.8911,-215.9951C54.8229,-197.7726 59.7351,-168.8218 65.0861,-144 72.4014,-110.0658 82.4777,-71.4247 89.3567,-45.9821"/>
<polygon fill="#000000" stroke="#000000" points="92.7525,-46.8325 92.0023,-36.2643 85.9983,-44.9937 92.7525,-46.8325"/>
<g id="a_edge3&#45;headlabel"><a xlink:href="dir_000018_000006.html" target="_top" xlink:title="18">
<text text-anchor="middle" x="94.5478" y="-48.5467" font-family="FreeSans.ttf" font-size="10.00" fill="#000000">18</text>
</a>
</g>
</g>
<!-- dir_7349e89ef19c117195f8e371603e1b1f&#45;&gt;dir_5dd65160827af56e6353642206b80129 -->
<g id="edge9" class="edge">
<title>dir_7349e89ef19c117195f8e371603e1b1f&#45;&gt;dir_5dd65160827af56e6353642206b80129</title>
<path fill="none" stroke="#000000" d="M131.8993,-143.8314C134.8504,-135.9617 138.3719,-126.5712 141.6411,-117.8533"/>
<polygon fill="#000000" stroke="#000000" points="144.9469,-119.0055 145.1811,-108.4133 138.3926,-116.5476 144.9469,-119.0055"/>
<g id="a_edge9&#45;headlabel"><a xlink:href="dir_000001_000027.html" target="_top" xlink:title="13">
<text text-anchor="middle" x="146.3433" y="-120.8682" font-family="FreeSans.ttf" font-size="10.00" fill="#000000">13</text>
</a>
</g>
</g>
<!-- dir_7349e89ef19c117195f8e371603e1b1f&#45;&gt;dir_aebb8dcc11953d78e620bbef0b9e2183 -->
<g id="edge10" class="edge">
<title>dir_7349e89ef19c117195f8e371603e1b1f&#45;&gt;dir_aebb8dcc11953d78e620bbef0b9e2183</title>
<path fill="none" stroke="#000000" d="M121.5398,-143.7623C116.743,-119.0928 108.1421,-74.8598 102.5253,-45.9731"/>
<polygon fill="#000000" stroke="#000000" points="105.9479,-45.2377 100.6035,-36.0896 99.0766,-46.5738 105.9479,-45.2377"/>
<g id="a_edge10&#45;headlabel"><a xlink:href="dir_000001_000006.html" target="_top" xlink:title="29">
<text text-anchor="middle" x="109.421" y="-45.7243" font-family="FreeSans.ttf" font-size="10.00" fill="#000000">29</text>
</a>
</g>
</g>
<!-- dir_fb93052291ccda37fd41b6d18f3dfcc9&#45;&gt;dir_7349e89ef19c117195f8e371603e1b1f -->
<g id="edge11" class="edge">
<title>dir_fb93052291ccda37fd41b6d18f3dfcc9&#45;&gt;dir_7349e89ef19c117195f8e371603e1b1f</title>
<path fill="none" stroke="#000000" d="M153.4971,-215.8314C149.2543,-207.7925 144.174,-198.1666 139.4901,-189.2918"/>
<polygon fill="#000000" stroke="#000000" points="142.5672,-187.6235 134.8042,-180.4133 136.3765,-190.8908 142.5672,-187.6235"/>
<g id="a_edge11&#45;headlabel"><a xlink:href="dir_000038_000001.html" target="_top" xlink:title="13">
<text text-anchor="middle" x="146.7559" y="-186.9772" font-family="FreeSans.ttf" font-size="10.00" fill="#000000">13</text>
</a>
</g>
</g>
<!-- dir_fb93052291ccda37fd41b6d18f3dfcc9&#45;&gt;dir_5dd65160827af56e6353642206b80129 -->
<g id="edge12" class="edge">
<title>dir_fb93052291ccda37fd41b6d18f3dfcc9&#45;&gt;dir_5dd65160827af56e6353642206b80129</title>
<path fill="none" stroke="#000000" d="M163.4435,-215.6842C163.6192,-197.4671 163.4107,-168.7409 161.0861,-144 160.2984,-135.6167 158.978,-126.5685 157.588,-118.3197"/>
<polygon fill="#000000" stroke="#000000" points="161.0223,-117.6413 155.8249,-108.4089 154.1305,-118.8674 161.0223,-117.6413"/>
<g id="a_edge12&#45;headlabel"><a xlink:href="dir_000038_000027.html" target="_top" xlink:title="17">
<text text-anchor="middle" x="164.4472" y="-118.1831" font-family="FreeSans.ttf" font-size="10.00" fill="#000000">17</text>
</a>
</g>
</g>
<!-- dir_fb93052291ccda37fd41b6d18f3dfcc9&#45;&gt;dir_aebb8dcc11953d78e620bbef0b9e2183 -->
<g id="edge13" class="edge">
<title>dir_fb93052291ccda37fd41b6d18f3dfcc9&#45;&gt;dir_aebb8dcc11953d78e620bbef0b9e2183</title>
<path fill="none" stroke="#000000" d="M173.0443,-215.6228C188.6671,-184.0667 214.559,-118.4923 188.0861,-72 176.4465,-51.5583 153.6841,-38.0559 133.8378,-29.6651"/>
<polygon fill="#000000" stroke="#000000" points="134.9779,-26.3526 124.3908,-25.9486 132.4152,-32.8667 134.9779,-26.3526"/>
<g id="a_edge13&#45;headlabel"><a xlink:href="dir_000038_000006.html" target="_top" xlink:title="18">
<text text-anchor="middle" x="139.3624" y="-22.5264" font-family="FreeSans.ttf" font-size="10.00" fill="#000000">18</text>
</a>
</g>
</g>
<!-- dir_5dd65160827af56e6353642206b80129&#45;&gt;dir_aebb8dcc11953d78e620bbef0b9e2183 -->
<g id="edge14" class="edge">
<title>dir_5dd65160827af56e6353642206b80129&#45;&gt;dir_aebb8dcc11953d78e620bbef0b9e2183</title>
<path fill="none" stroke="#000000" d="M138.2072,-71.8314C131.8725,-63.5386 124.2477,-53.557 117.2935,-44.4533"/>
<polygon fill="#000000" stroke="#000000" points="120.0036,-42.2353 111.1518,-36.4133 114.4408,-46.4847 120.0036,-42.2353"/>
<g id="a_edge14&#45;headlabel"><a xlink:href="dir_000027_000006.html" target="_top" xlink:title="57">
<text text-anchor="middle" x="124.4419" y="-40.8683" font-family="FreeSans.ttf" font-size="10.00" fill="#000000">57</text>
</a>
</g>
</g>
</g>
</svg>
