<?xml version="1.0" encoding="UTF-8" standalone="no"?>
<!DOCTYPE svg PUBLIC "-//W3C//DTD SVG 1.1//EN"
 "http://www.w3.org/Graphics/SVG/1.1/DTD/svg11.dtd">
<!-- Generated by graphviz version 2.40.1 (20161225.0304)
 -->
<!-- Title: include Pages: 1 -->
<svg width="158pt" height="295pt"
 viewBox="0.00 0.00 158.00 295.00" xmlns="http://www.w3.org/2000/svg" xmlns:xlink="http://www.w3.org/1999/xlink">
<g id="graph0" class="graph" transform="scale(1 1) rotate(0) translate(4 291)">
<title>include</title>
<g id="clust1" class="cluster">
<title>clusterdir_d32611501a8b9f9ee5f85682f67560af</title>
<g id="a_clust1"><a xlink:href="dir_d32611501a8b9f9ee5f85682f67560af.html" target="_top" xlink:title="yarprobotstatepublisher">
<polygon fill="#ddddee" stroke="#000000" points="8,-208 8,-279 142,-279 142,-208 8,-208"/>
<text text-anchor="middle" x="75" y="-267" font-family="FreeSans.ttf" font-size="10.00" fill="#000000">yarprobotstatepublisher</text>
</a>
</g>
</g>
<!-- dir_517fac0de58368127e466407b6b31ec8 -->
<g id="node1" class="node">
<title>dir_517fac0de58368127e466407b6b31ec8</title>
<g id="a_node1"><a xlink:href="dir_517fac0de58368127e466407b6b31ec8.html" target="_top" xlink:title="include">
<polygon fill="#eeeeff" stroke="#000000" points="102,-252 48,-252 48,-216 102,-216 102,-252"/>
<text text-anchor="middle" x="75" y="-231.5" font-family="FreeSans.ttf" font-size="10.00" fill="#000000">include</text>
</a>
</g>
</g>
<!-- dir_355314d08763ddbf0e6d36531a48f7ae -->
<g id="node2" class="node">
<title>dir_355314d08763ddbf0e6d36531a48f7ae</title>
<g id="a_node2"><a xlink:href="dir_355314d08763ddbf0e6d36531a48f7ae.html" target="_top" xlink:title="high&#45;level">
<polygon fill="none" stroke="#ff0000" points="107.5,-180 42.5,-180 42.5,-144 107.5,-144 107.5,-180"/>
<text text-anchor="middle" x="75" y="-159.5" font-family="FreeSans.ttf" font-size="10.00" fill="#000000">high&#45;level</text>
</a>
</g>
</g>
<!-- dir_517fac0de58368127e466407b6b31ec8&#45;&gt;dir_355314d08763ddbf0e6d36531a48f7ae -->
<g id="edge4" class="edge">
<title>dir_517fac0de58368127e466407b6b31ec8&#45;&gt;dir_355314d08763ddbf0e6d36531a48f7ae</title>
<path fill="none" stroke="#000000" d="M75,-215.8314C75,-208.131 75,-198.9743 75,-190.4166"/>
<polygon fill="#000000" stroke="#000000" points="78.5001,-190.4132 75,-180.4133 71.5001,-190.4133 78.5001,-190.4132"/>
<g id="a_edge4&#45;headlabel"><a xlink:href="dir_000081_000068.html" target="_top" xlink:title="1">
<text text-anchor="middle" x="81.3393" y="-191.5079" font-family="FreeSans.ttf" font-size="10.00" fill="#000000">1</text>
</a>
</g>
</g>
<!-- dir_5dd65160827af56e6353642206b80129 -->
<g id="node3" class="node">
<title>dir_5dd65160827af56e6353642206b80129</title>
<g id="a_node3"><a xlink:href="dir_5dd65160827af56e6353642206b80129.html" target="_top" xlink:title="model">
<polygon fill="none" stroke="#ff0000" points="58,-108 4,-108 4,-72 58,-72 58,-108"/>
<text text-anchor="middle" x="31" y="-87.5" font-family="FreeSans.ttf" font-size="10.00" fill="#000000">model</text>
</a>
</g>
</g>
<!-- dir_517fac0de58368127e466407b6b31ec8&#45;&gt;dir_5dd65160827af56e6353642206b80129 -->
<g id="edge5" class="edge">
<title>dir_517fac0de58368127e466407b6b31ec8&#45;&gt;dir_5dd65160827af56e6353642206b80129</title>
<path fill="none" stroke="#000000" d="M56.5843,-215.7415C48.033,-206.0073 38.7287,-193.3102 34,-180 26.9891,-160.266 26.494,-136.5414 27.6152,-118.4059"/>
<polygon fill="#000000" stroke="#000000" points="31.1243,-118.4368 28.4516,-108.1846 24.1476,-117.8658 31.1243,-118.4368"/>
<g id="a_edge5&#45;headlabel"><a xlink:href="dir_000081_000027.html" target="_top" xlink:title="1">
<text text-anchor="middle" x="33.6611" y="-119.7509" font-family="FreeSans.ttf" font-size="10.00" fill="#000000">1</text>
</a>
</g>
</g>
<!-- dir_aebb8dcc11953d78e620bbef0b9e2183 -->
<g id="node4" class="node">
<title>dir_aebb8dcc11953d78e620bbef0b9e2183</title>
<g id="a_node4"><a xlink:href="dir_aebb8dcc11953d78e620bbef0b9e2183.html" target="_top" xlink:title="core">
<polygon fill="none" stroke="#ff0000" points="113,-36 59,-36 59,0 113,0 113,-36"/>
<text text-anchor="middle" x="86" y="-15.5" font-family="FreeSans.ttf" font-size="10.00" fill="#000000">core</text>
</a>
</g>
</g>
<!-- dir_517fac0de58368127e466407b6b31ec8&#45;&gt;dir_aebb8dcc11953d78e620bbef0b9e2183 -->
<g id="edge6" class="edge">
<title>dir_517fac0de58368127e466407b6b31ec8&#45;&gt;dir_aebb8dcc11953d78e620bbef0b9e2183</title>
<path fill="none" stroke="#000000" d="M94.05,-215.8859C102.857,-206.1885 112.3746,-193.4808 117,-180 132.6649,-134.3442 114.2606,-78.5767 99.8611,-45.8078"/>
<polygon fill="#000000" stroke="#000000" points="102.9061,-44.0505 95.5631,-36.4131 96.5407,-46.9628 102.9061,-44.0505"/>
<g id="a_edge6&#45;headlabel"><a xlink:href="dir_000081_000006.html" target="_top" xlink:title="1">
<text text-anchor="middle" x="106.9835" y="-43.6381" font-family="FreeSans.ttf" font-size="10.00" fill="#000000">1</text>
</a>
</g>
</g>
<!-- dir_355314d08763ddbf0e6d36531a48f7ae&#45;&gt;dir_5dd65160827af56e6353642206b80129 -->
<g id="edge1" class="edge">
<title>dir_355314d08763ddbf0e6d36531a48f7ae&#45;&gt;dir_5dd65160827af56e6353642206b80129</title>
<path fill="none" stroke="#000000" d="M63.8969,-143.8314C58.9326,-135.7079 52.9778,-125.9637 47.5072,-117.0118"/>
<polygon fill="#000000" stroke="#000000" points="50.4536,-115.121 42.2526,-108.4133 44.4806,-118.7712 50.4536,-115.121"/>
<g id="a_edge1&#45;headlabel"><a xlink:href="dir_000068_000027.html" target="_top" xlink:title="11">
<text text-anchor="middle" x="54.7507" y="-114.2077" font-family="FreeSans.ttf" font-size="10.00" fill="#000000">11</text>
</a>
</g>
</g>
<!-- dir_355314d08763ddbf0e6d36531a48f7ae&#45;&gt;dir_aebb8dcc11953d78e620bbef0b9e2183 -->
<g id="edge2" class="edge">
<title>dir_355314d08763ddbf0e6d36531a48f7ae&#45;&gt;dir_aebb8dcc11953d78e620bbef0b9e2183</title>
<path fill="none" stroke="#000000" d="M76.3932,-143.7623C78.2694,-119.201 81.6269,-75.2474 83.8341,-46.3541"/>
<polygon fill="#000000" stroke="#000000" points="87.3462,-46.3272 84.6182,-36.0896 80.3666,-45.794 87.3462,-46.3272"/>
<g id="a_edge2&#45;headlabel"><a xlink:href="dir_000068_000006.html" target="_top" xlink:title="14">
<text text-anchor="middle" x="89.9036" y="-47.6276" font-family="FreeSans.ttf" font-size="10.00" fill="#000000">14</text>
</a>
</g>
</g>
<!-- dir_5dd65160827af56e6353642206b80129&#45;&gt;dir_aebb8dcc11953d78e620bbef0b9e2183 -->
<g id="edge3" class="edge">
<title>dir_5dd65160827af56e6353642206b80129&#45;&gt;dir_aebb8dcc11953d78e620bbef0b9e2183</title>
<path fill="none" stroke="#000000" d="M44.8788,-71.8314C51.2136,-63.5386 58.8384,-53.557 65.7926,-44.4533"/>
<polygon fill="#000000" stroke="#000000" points="68.6452,-46.4847 71.9343,-36.4133 63.0825,-42.2353 68.6452,-46.4847"/>
<g id="a_edge3&#45;headlabel"><a xlink:href="dir_000027_000006.html" target="_top" xlink:title="57">
<text text-anchor="middle" x="68.7195" y="-48.5647" font-family="FreeSans.ttf" font-size="10.00" fill="#000000">57</text>
</a>
</g>
</g>
</g>
</svg>
