<?xml version="1.0" encoding="UTF-8" standalone="no"?>
<!DOCTYPE svg PUBLIC "-//W3C//DTD SVG 1.1//EN"
 "http://www.w3.org/Graphics/SVG/1.1/DTD/svg11.dtd">
<!-- Generated by graphviz version 2.40.1 (20161225.0304)
 -->
<!-- Title: Direction.h Pages: 1 -->
<svg width="4012pt" height="274pt"
 viewBox="0.00 0.00 4011.50 274.00" xmlns="http://www.w3.org/2000/svg" xmlns:xlink="http://www.w3.org/1999/xlink">
<g id="graph0" class="graph" transform="scale(1 1) rotate(0) translate(4 270)">
<title>Direction.h</title>
<!-- Node16 -->
<g id="node1" class="node">
<title>Node16</title>
<polygon fill="#bfbfbf" stroke="#000000" points="2049.5,-246.5 2049.5,-265.5 2119.5,-265.5 2119.5,-246.5 2049.5,-246.5"/>
<text text-anchor="middle" x="2084.5" y="-253.5" font-family="FreeSans.ttf" font-size="10.00" fill="#000000">Direction.h</text>
</g>
<!-- Node17 -->
<g id="node2" class="node">
<title>Node17</title>
<g id="a_node2"><a xlink:href="Axis_8h.html" target="_top" xlink:title="Axis.h">
<polygon fill="none" stroke="#000000" points="782,-190.5 782,-209.5 829,-209.5 829,-190.5 782,-190.5"/>
<text text-anchor="middle" x="805.5" y="-197.5" font-family="FreeSans.ttf" font-size="10.00" fill="#000000">Axis.h</text>
</a>
</g>
</g>
<!-- Node16&#45;&gt;Node17 -->
<g id="edge1" class="edge">
<title>Node16&#45;&gt;Node17</title>
<path fill="none" stroke="#191970" d="M2039.0933,-254.0119C1832.2474,-244.9553 982.6341,-207.7557 829.2799,-201.0412"/>
<polygon fill="#191970" stroke="#191970" points="2039.1491,-257.5176 2049.2927,-254.4585 2039.4554,-250.5243 2039.1491,-257.5176"/>
</g>
<!-- Node19 -->
<g id="node4" class="node">
<title>Node19</title>
<g id="a_node4"><a xlink:href="Rotation_8cpp.html" target="_top" xlink:title="Rotation.cpp">
<polygon fill="none" stroke="#000000" points="202,-129 202,-148 279,-148 279,-129 202,-129"/>
<text text-anchor="middle" x="240.5" y="-136" font-family="FreeSans.ttf" font-size="10.00" fill="#000000">Rotation.cpp</text>
</a>
</g>
</g>
<!-- Node16&#45;&gt;Node19 -->
<g id="edge31" class="edge">
<title>Node16&#45;&gt;Node19</title>
<path fill="none" stroke="#191970" d="M2039.1571,-255.6002C1820.2597,-253.5195 871.3653,-242.7409 577.5,-210 447.4709,-195.5128 415.2055,-186.6061 288.5,-154 281.8002,-152.2759 274.6644,-150.1398 267.9997,-148.0102"/>
<polygon fill="#191970" stroke="#191970" points="2039.286,-259.1014 2049.3184,-255.6955 2039.3517,-252.1018 2039.286,-259.1014"/>
</g>
<!-- Node21 -->
<g id="node6" class="node">
<title>Node21</title>
<g id="a_node6"><a xlink:href="Transform_8cpp.html" target="_top" xlink:title="Transform.cpp">
<polygon fill="none" stroke="#000000" points="297.5,-129 297.5,-148 383.5,-148 383.5,-129 297.5,-129"/>
<text text-anchor="middle" x="340.5" y="-136" font-family="FreeSans.ttf" font-size="10.00" fill="#000000">Transform.cpp</text>
</a>
</g>
</g>
<!-- Node16&#45;&gt;Node21 -->
<g id="edge32" class="edge">
<title>Node16&#45;&gt;Node21</title>
<path fill="none" stroke="#191970" d="M2039.0312,-255.0862C1837.8226,-250.9377 1026.2921,-233.0774 772.5,-210 602.4885,-194.5408 559.1724,-190.9219 392.5,-154 385.0502,-152.3497 377.1088,-150.192 369.7328,-148.0131"/>
<polygon fill="#191970" stroke="#191970" points="2039.169,-258.5897 2049.2388,-255.2957 2039.3127,-251.5911 2039.169,-258.5897"/>
</g>
<!-- Node24 -->
<g id="node9" class="node">
<title>Node24</title>
<g id="a_node9"><a xlink:href="InverseKinematics_8cpp.html" target="_top" xlink:title="InverseKinematics.cpp">
<polygon fill="none" stroke="#000000" points="1306.5,-62 1306.5,-81 1434.5,-81 1434.5,-62 1306.5,-62"/>
<text text-anchor="middle" x="1370.5" y="-69" font-family="FreeSans.ttf" font-size="10.00" fill="#000000">InverseKinematics.cpp</text>
</a>
</g>
</g>
<!-- Node16&#45;&gt;Node24 -->
<g id="edge52" class="edge">
<title>Node16&#45;&gt;Node24</title>
<path fill="none" stroke="#191970" d="M2039.13,-254.6372C1918.5782,-250.6758 1592.406,-237.6485 1488.5,-210 1432.4014,-195.0726 1401.5247,-203.0647 1370.5,-154 1356.109,-131.2411 1362.8548,-97.4165 1367.4539,-81.053"/>
<polygon fill="#191970" stroke="#191970" points="2039.0282,-258.1356 2049.1361,-254.9606 2039.2544,-251.1393 2039.0282,-258.1356"/>
</g>
<!-- Node41 -->
<g id="node23" class="node">
<title>Node41</title>
<g id="a_node23"><a xlink:href="Direction_8cpp.html" target="_top" xlink:title="Direction.cpp">
<polygon fill="none" stroke="#000000" points="1973,-190.5 1973,-209.5 2054,-209.5 2054,-190.5 1973,-190.5"/>
<text text-anchor="middle" x="2013.5" y="-197.5" font-family="FreeSans.ttf" font-size="10.00" fill="#000000">Direction.cpp</text>
</a>
</g>
</g>
<!-- Node16&#45;&gt;Node41 -->
<g id="edge30" class="edge">
<title>Node16&#45;&gt;Node41</title>
<path fill="none" stroke="#191970" d="M2064.123,-239.928C2051.7129,-230.1397 2036.27,-217.9595 2025.7255,-209.6427"/>
<polygon fill="#191970" stroke="#191970" points="2062.1136,-242.8007 2072.1327,-246.2455 2066.4486,-237.3046 2062.1136,-242.8007"/>
</g>
<!-- Node42 -->
<g id="node24" class="node">
<title>Node42</title>
<g id="a_node24"><a xlink:href="BerdyHelper_8h.html" target="_top" xlink:title="BerdyHelper.h">
<polygon fill="none" stroke="#000000" points="2500.5,-190.5 2500.5,-209.5 2586.5,-209.5 2586.5,-190.5 2500.5,-190.5"/>
<text text-anchor="middle" x="2543.5" y="-197.5" font-family="FreeSans.ttf" font-size="10.00" fill="#000000">BerdyHelper.h</text>
</a>
</g>
</g>
<!-- Node16&#45;&gt;Node42 -->
<g id="edge33" class="edge">
<title>Node16&#45;&gt;Node42</title>
<path fill="none" stroke="#191970" d="M2129.7565,-250.4785C2218.2866,-239.6774 2413.3012,-215.8848 2500.2199,-205.2804"/>
<polygon fill="#191970" stroke="#191970" points="2129.2573,-247.0134 2119.7548,-251.6988 2130.1051,-253.9618 2129.2573,-247.0134"/>
</g>
<!-- Node45 -->
<g id="node27" class="node">
<title>Node45</title>
<g id="a_node27"><a xlink:href="ExternalWrenchesEstimation_8h.html" target="_top" xlink:title="ExternalWrenchesEstimation.h">
<polygon fill="none" stroke="#000000" points="2072.5,-190.5 2072.5,-209.5 2238.5,-209.5 2238.5,-190.5 2072.5,-190.5"/>
<text text-anchor="middle" x="2155.5" y="-197.5" font-family="FreeSans.ttf" font-size="10.00" fill="#000000">ExternalWrenchesEstimation.h</text>
</a>
</g>
</g>
<!-- Node16&#45;&gt;Node45 -->
<g id="edge36" class="edge">
<title>Node16&#45;&gt;Node45</title>
<path fill="none" stroke="#191970" d="M2104.877,-239.928C2117.2871,-230.1397 2132.73,-217.9595 2143.2745,-209.6427"/>
<polygon fill="#191970" stroke="#191970" points="2102.5514,-237.3046 2096.8673,-246.2455 2106.8864,-242.8007 2102.5514,-237.3046"/>
</g>
<!-- Node54 -->
<g id="node33" class="node">
<title>Node54</title>
<g id="a_node33"><a xlink:href="InverseKinematics_8h.html" target="_top" xlink:title="InverseKinematics.h">
<polygon fill="none" stroke="#000000" points="1497.5,-190.5 1497.5,-209.5 1613.5,-209.5 1613.5,-190.5 1497.5,-190.5"/>
<text text-anchor="middle" x="1555.5" y="-197.5" font-family="FreeSans.ttf" font-size="10.00" fill="#000000">InverseKinematics.h</text>
</a>
</g>
</g>
<!-- Node16&#45;&gt;Node54 -->
<g id="edge44" class="edge">
<title>Node16&#45;&gt;Node54</title>
<path fill="none" stroke="#191970" d="M2039.1511,-251.1994C1943.3033,-241.0529 1720.234,-217.4388 1613.8976,-206.182"/>
<polygon fill="#191970" stroke="#191970" points="2039.0682,-254.7101 2049.3812,-252.2823 2039.8052,-247.749 2039.0682,-254.7101"/>
</g>
<!-- Node59 -->
<g id="node36" class="node">
<title>Node59</title>
<g id="a_node36"><a xlink:href="ObserverThread_8h.html" target="_top" xlink:title="ObserverThread.h">
<polygon fill="none" stroke="#000000" points="2782.5,-190.5 2782.5,-209.5 2886.5,-209.5 2886.5,-190.5 2782.5,-190.5"/>
<text text-anchor="middle" x="2834.5" y="-197.5" font-family="FreeSans.ttf" font-size="10.00" fill="#000000">ObserverThread.h</text>
</a>
</g>
</g>
<!-- Node16&#45;&gt;Node59 -->
<g id="edge53" class="edge">
<title>Node16&#45;&gt;Node59</title>
<path fill="none" stroke="#191970" d="M2129.7898,-252.6184C2261.2564,-242.8022 2642.4424,-214.3403 2782.2757,-203.8994"/>
<polygon fill="#191970" stroke="#191970" points="2129.3797,-249.1391 2119.6681,-253.3741 2129.901,-256.1197 2129.3797,-249.1391"/>
</g>
<!-- Node60 -->
<g id="node37" class="node">
<title>Node60</title>
<g id="a_node37"><a xlink:href="ObserverThread_8cpp.html" target="_top" xlink:title="ObserverThread.cpp">
<polygon fill="none" stroke="#000000" points="2777,-129 2777,-148 2892,-148 2892,-129 2777,-129"/>
<text text-anchor="middle" x="2834.5" y="-136" font-family="FreeSans.ttf" font-size="10.00" fill="#000000">ObserverThread.cpp</text>
</a>
</g>
</g>
<!-- Node16&#45;&gt;Node60 -->
<g id="edge56" class="edge">
<title>Node16&#45;&gt;Node60</title>
<path fill="none" stroke="#191970" d="M2129.6161,-254.975C2219.2001,-252.274 2425.5456,-242.7267 2595.5,-210 2674.8161,-194.7268 2765.4118,-163.7595 2808.7566,-148.071"/>
<polygon fill="#191970" stroke="#191970" points="2129.4291,-251.4789 2119.5338,-255.2647 2129.6302,-258.476 2129.4291,-251.4789"/>
</g>
<!-- Node64 -->
<g id="node39" class="node">
<title>Node64</title>
<g id="a_node39"><a xlink:href="Visualizer_8h.html" target="_top" xlink:title="Visualizer.h">
<polygon fill="none" stroke="#000000" points="3492,-190.5 3492,-209.5 3565,-209.5 3565,-190.5 3492,-190.5"/>
<text text-anchor="middle" x="3528.5" y="-197.5" font-family="FreeSans.ttf" font-size="10.00" fill="#000000">Visualizer.h</text>
</a>
</g>
</g>
<!-- Node16&#45;&gt;Node64 -->
<g id="edge57" class="edge">
<title>Node16&#45;&gt;Node64</title>
<path fill="none" stroke="#191970" d="M2130.0129,-254.235C2349.1521,-245.7365 3293.1266,-209.1281 3491.7383,-201.4257"/>
<polygon fill="#191970" stroke="#191970" points="2129.6928,-250.7446 2119.836,-254.6296 2129.9641,-257.7394 2129.6928,-250.7446"/>
</g>
<!-- Node81 -->
<g id="node50" class="node">
<title>Node81</title>
<g id="a_node50"><a xlink:href="YARPConversions_8cpp.html" target="_top" xlink:title="YARPConversions.cpp">
<polygon fill="none" stroke="#000000" points="3583.5,-190.5 3583.5,-209.5 3705.5,-209.5 3705.5,-190.5 3583.5,-190.5"/>
<text text-anchor="middle" x="3644.5" y="-197.5" font-family="FreeSans.ttf" font-size="10.00" fill="#000000">YARPConversions.cpp</text>
</a>
</g>
</g>
<!-- Node16&#45;&gt;Node81 -->
<g id="edge72" class="edge">
<title>Node16&#45;&gt;Node81</title>
<path fill="none" stroke="#191970" d="M2129.6245,-255.2705C2346.4313,-251.6639 3282.5681,-234.9073 3573.5,-210 3576.7247,-209.7239 3580.0267,-209.4008 3583.3572,-209.043"/>
<polygon fill="#191970" stroke="#191970" points="2129.4979,-251.772 2119.5572,-255.4371 2129.6138,-258.7711 2129.4979,-251.772"/>
</g>
<!-- Node18 -->
<g id="node3" class="node">
<title>Node18</title>
<g id="a_node3"><a xlink:href="Axis_8cpp.html" target="_top" xlink:title="Axis.cpp">
<polygon fill="none" stroke="#000000" points="953.5,-129 953.5,-148 1011.5,-148 1011.5,-129 953.5,-129"/>
<text text-anchor="middle" x="982.5" y="-136" font-family="FreeSans.ttf" font-size="10.00" fill="#000000">Axis.cpp</text>
</a>
</g>
</g>
<!-- Node17&#45;&gt;Node18 -->
<g id="edge2" class="edge">
<title>Node17&#45;&gt;Node18</title>
<path fill="none" stroke="#191970" d="M838.7942,-189.4851C866.8593,-180.4826 908.0044,-166.9578 943.5,-154 948.5647,-152.1511 953.9601,-150.076 959.0718,-148.0599"/>
<polygon fill="#191970" stroke="#191970" points="837.5418,-186.2109 829.0809,-192.5878 839.6718,-192.879 837.5418,-186.2109"/>
</g>
<!-- Node17&#45;&gt;Node19 -->
<g id="edge3" class="edge">
<title>Node17&#45;&gt;Node19</title>
<path fill="none" stroke="#191970" d="M771.6615,-199.5948C688.5453,-198.038 468.058,-190.4999 288.5,-154 281.2057,-152.5172 273.4635,-150.3103 266.375,-148.0236"/>
<polygon fill="#191970" stroke="#191970" points="771.7262,-203.0963 781.7843,-199.767 771.8453,-196.0973 771.7262,-203.0963"/>
</g>
<!-- Node20 -->
<g id="node5" class="node">
<title>Node20</title>
<g id="a_node5"><a xlink:href="TestUtils_8cpp.html" target="_top" xlink:title="TestUtils.cpp">
<polygon fill="none" stroke="#000000" points="1030,-129 1030,-148 1109,-148 1109,-129 1030,-129"/>
<text text-anchor="middle" x="1069.5" y="-136" font-family="FreeSans.ttf" font-size="10.00" fill="#000000">TestUtils.cpp</text>
</a>
</g>
</g>
<!-- Node17&#45;&gt;Node20 -->
<g id="edge4" class="edge">
<title>Node17&#45;&gt;Node20</title>
<path fill="none" stroke="#191970" d="M839.3045,-193.8048C881.8537,-185.7699 957.0542,-170.7809 1020.5,-154 1027.1419,-152.2433 1034.2212,-150.1411 1040.874,-148.0601"/>
<polygon fill="#191970" stroke="#191970" points="838.4019,-190.413 829.2174,-195.6946 839.691,-197.2933 838.4019,-190.413"/>
</g>
<!-- Node17&#45;&gt;Node21 -->
<g id="edge5" class="edge">
<title>Node17&#45;&gt;Node21</title>
<path fill="none" stroke="#191970" d="M771.8797,-198.2958C701.0858,-194.2618 531.7075,-182.2633 392.5,-154 384.8375,-152.4443 376.6775,-150.268 369.1481,-148.0371"/>
<polygon fill="#191970" stroke="#191970" points="771.8072,-201.797 781.9854,-198.8552 772.1942,-194.8077 771.8072,-201.797"/>
</g>
<!-- Node22 -->
<g id="node7" class="node">
<title>Node22</title>
<g id="a_node7"><a xlink:href="BoundingBoxHelpers_8cpp.html" target="_top" xlink:title="BoundingBoxHelpers.cpp">
<polygon fill="none" stroke="#000000" points="1127,-129 1127,-148 1266,-148 1266,-129 1127,-129"/>
<text text-anchor="middle" x="1196.5" y="-136" font-family="FreeSans.ttf" font-size="10.00" fill="#000000">BoundingBoxHelpers.cpp</text>
</a>
</g>
</g>
<!-- Node17&#45;&gt;Node22 -->
<g id="edge6" class="edge">
<title>Node17&#45;&gt;Node22</title>
<path fill="none" stroke="#191970" d="M838.975,-195.5944C896.1889,-187.9461 1016.4069,-171.3597 1117.5,-154 1127.9691,-152.2022 1139.1848,-150.1058 1149.7812,-148.0465"/>
<polygon fill="#191970" stroke="#191970" points="838.4945,-192.1274 829.0439,-196.9166 839.4184,-199.0661 838.4945,-192.1274"/>
</g>
<!-- Node23 -->
<g id="node8" class="node">
<title>Node23</title>
<g id="a_node8"><a xlink:href="ConvexHullHelpers_8cpp.html" target="_top" xlink:title="ConvexHullHelpers.cpp">
<polygon fill="none" stroke="#000000" points="804,-129 804,-148 935,-148 935,-129 804,-129"/>
<text text-anchor="middle" x="869.5" y="-136" font-family="FreeSans.ttf" font-size="10.00" fill="#000000">ConvexHullHelpers.cpp</text>
</a>
</g>
</g>
<!-- Node17&#45;&gt;Node23 -->
<g id="edge7" class="edge">
<title>Node17&#45;&gt;Node23</title>
<path fill="none" stroke="#191970" d="M822.9566,-183.2253C834.6353,-172.0028 849.5967,-157.6258 859.359,-148.2449"/>
<polygon fill="#191970" stroke="#191970" points="820.2854,-180.9381 815.5,-190.3906 825.1356,-185.9854 820.2854,-180.9381"/>
</g>
<!-- Node17&#45;&gt;Node24 -->
<g id="edge8" class="edge">
<title>Node17&#45;&gt;Node24</title>
<path fill="none" stroke="#191970" d="M839.2418,-199.3133C933.1674,-196.9911 1195.9013,-187.5874 1274.5,-154 1294.4047,-145.4942 1340.5239,-101.2246 1360.7248,-81.2709"/>
<polygon fill="#191970" stroke="#191970" points="839.0693,-195.8163 829.1546,-199.5512 839.2344,-202.8143 839.0693,-195.8163"/>
</g>
<!-- Node25 -->
<g id="node10" class="node">
<title>Node25</title>
<g id="a_node10"><a xlink:href="InverseKinematicsData_8cpp.html" target="_top" xlink:title="InverseKinematicsData.cpp">
<polygon fill="none" stroke="#000000" points="1477,-62 1477,-81 1628,-81 1628,-62 1477,-62"/>
<text text-anchor="middle" x="1552.5" y="-69" font-family="FreeSans.ttf" font-size="10.00" fill="#000000">InverseKinematicsData.cpp</text>
</a>
</g>
</g>
<!-- Node17&#45;&gt;Node25 -->
<g id="edge9" class="edge">
<title>Node17&#45;&gt;Node25</title>
<path fill="none" stroke="#191970" d="M839.2037,-198.973C978.7996,-194.579 1505.6185,-176.5536 1532.5,-154 1554.0645,-135.9073 1554.5839,-98.8882 1553.4573,-81.2558"/>
<polygon fill="#191970" stroke="#191970" points="838.9834,-195.4781 829.0975,-199.2885 839.2019,-202.4747 838.9834,-195.4781"/>
</g>
<!-- Node26 -->
<g id="node11" class="node">
<title>Node26</title>
<g id="a_node11"><a xlink:href="PrismaticJoint_8h.html" target="_top" xlink:title="PrismaticJoint.h">
<polygon fill="none" stroke="#000000" points="586,-129 586,-148 679,-148 679,-129 586,-129"/>
<text text-anchor="middle" x="632.5" y="-136" font-family="FreeSans.ttf" font-size="10.00" fill="#000000">PrismaticJoint.h</text>
</a>
</g>
</g>
<!-- Node17&#45;&gt;Node26 -->
<g id="edge10" class="edge">
<title>Node17&#45;&gt;Node26</title>
<path fill="none" stroke="#191970" d="M772.1855,-188.157C739.3203,-176.4737 689.7145,-158.8392 659.3103,-148.0308"/>
<polygon fill="#191970" stroke="#191970" points="771.2131,-191.5258 781.8078,-191.5776 773.5579,-184.9302 771.2131,-191.5258"/>
</g>
<!-- Node28 -->
<g id="node13" class="node">
<title>Node28</title>
<g id="a_node13"><a xlink:href="PrismaticJoint_8cpp.html" target="_top" xlink:title="PrismaticJoint.cpp">
<polygon fill="none" stroke="#000000" points="569.5,-62 569.5,-81 673.5,-81 673.5,-62 569.5,-62"/>
<text text-anchor="middle" x="621.5" y="-69" font-family="FreeSans.ttf" font-size="10.00" fill="#000000">PrismaticJoint.cpp</text>
</a>
</g>
</g>
<!-- Node17&#45;&gt;Node28 -->
<g id="edge22" class="edge">
<title>Node17&#45;&gt;Node28</title>
<path fill="none" stroke="#191970" d="M771.8465,-198.3016C714.2959,-194.6159 600.8111,-183.6802 576.5,-154 557.1674,-130.3979 590.0898,-97.2562 609.2415,-81.1055"/>
<polygon fill="#191970" stroke="#191970" points="771.7148,-201.7999 781.9074,-198.9083 772.1362,-194.8126 771.7148,-201.7999"/>
</g>
<!-- Node31 -->
<g id="node16" class="node">
<title>Node31</title>
<g id="a_node16"><a xlink:href="RevoluteJoint_8h.html" target="_top" xlink:title="RevoluteJoint.h">
<polygon fill="none" stroke="#000000" points="401.5,-129 401.5,-148 491.5,-148 491.5,-129 401.5,-129"/>
<text text-anchor="middle" x="446.5" y="-136" font-family="FreeSans.ttf" font-size="10.00" fill="#000000">RevoluteJoint.h</text>
</a>
</g>
</g>
<!-- Node17&#45;&gt;Node31 -->
<g id="edge15" class="edge">
<title>Node17&#45;&gt;Node31</title>
<path fill="none" stroke="#191970" d="M771.5884,-195.977C715.7828,-189.0938 601.2281,-173.8567 505.5,-154 497.3078,-152.3007 488.5531,-150.1741 480.3633,-148.0458"/>
<polygon fill="#191970" stroke="#191970" points="771.2749,-199.4646 781.6254,-197.2027 772.1235,-192.5163 771.2749,-199.4646"/>
</g>
<!-- Node35 -->
<g id="node19" class="node">
<title>Node35</title>
<g id="a_node19"><a xlink:href="RevoluteJoint_8cpp.html" target="_top" xlink:title="RevoluteJoint.cpp">
<polygon fill="none" stroke="#000000" points="302,-62 302,-81 403,-81 403,-62 302,-62"/>
<text text-anchor="middle" x="352.5" y="-69" font-family="FreeSans.ttf" font-size="10.00" fill="#000000">RevoluteJoint.cpp</text>
</a>
</g>
</g>
<!-- Node17&#45;&gt;Node35 -->
<g id="edge23" class="edge">
<title>Node17&#45;&gt;Node35</title>
<path fill="none" stroke="#191970" d="M771.5352,-196.07C724.7653,-190.0683 638.2828,-176.8407 567.5,-154 536.2747,-143.924 530.9199,-135.2953 500.5,-123 460.269,-106.7391 412.7179,-90.7492 382.5853,-81.0048"/>
<polygon fill="#191970" stroke="#191970" points="771.3587,-199.5751 781.7155,-197.3421 772.2267,-192.6291 771.3587,-199.5751"/>
</g>
<!-- Node36 -->
<g id="node20" class="node">
<title>Node36</title>
<g id="a_node20"><a xlink:href="JointElement_8h.html" target="_top" xlink:title="JointElement.h">
<polygon fill="none" stroke="#ff0000" points="697.5,-129 697.5,-148 785.5,-148 785.5,-129 697.5,-129"/>
<text text-anchor="middle" x="741.5" y="-136" font-family="FreeSans.ttf" font-size="10.00" fill="#000000">JointElement.h</text>
</a>
</g>
</g>
<!-- Node17&#45;&gt;Node36 -->
<g id="edge24" class="edge">
<title>Node17&#45;&gt;Node36</title>
<path fill="none" stroke="#191970" d="M788.0434,-183.2253C776.3647,-172.0028 761.4033,-157.6258 751.641,-148.2449"/>
<polygon fill="#191970" stroke="#191970" points="785.8644,-185.9854 795.5,-190.3906 790.7146,-180.9381 785.8644,-185.9854"/>
</g>
<!-- Node27 -->
<g id="node12" class="node">
<title>Node27</title>
<g id="a_node12"><a xlink:href="ModelTransformers_8cpp.html" target="_top" xlink:title="ModelTransformers.cpp">
<polygon fill="none" stroke="#000000" points="421.5,-62 421.5,-81 551.5,-81 551.5,-62 421.5,-62"/>
<text text-anchor="middle" x="486.5" y="-69" font-family="FreeSans.ttf" font-size="10.00" fill="#000000">ModelTransformers.cpp</text>
</a>
</g>
</g>
<!-- Node26&#45;&gt;Node27 -->
<g id="edge11" class="edge">
<title>Node26&#45;&gt;Node27</title>
<path fill="none" stroke="#191970" d="M602.1498,-124.5722C573.7852,-111.5555 532.1893,-92.467 507.3794,-81.0817"/>
<polygon fill="#191970" stroke="#191970" points="601.0333,-127.9107 611.5818,-128.9005 603.9529,-121.5486 601.0333,-127.9107"/>
</g>
<!-- Node26&#45;&gt;Node28 -->
<g id="edge12" class="edge">
<title>Node26&#45;&gt;Node28</title>
<path fill="none" stroke="#191970" d="M629.2963,-118.9863C627.251,-106.5286 624.6893,-90.9258 623.0731,-81.0817"/>
<polygon fill="#191970" stroke="#191970" points="625.85,-119.5997 630.924,-128.9005 632.7575,-118.4656 625.85,-119.5997"/>
</g>
<!-- Node29 -->
<g id="node14" class="node">
<title>Node29</title>
<g id="a_node14"><a xlink:href="JointElement_8cpp.html" target="_top" xlink:title="JointElement.cpp">
<polygon fill="none" stroke="#000000" points="692,-62 692,-81 791,-81 791,-62 692,-62"/>
<text text-anchor="middle" x="741.5" y="-69" font-family="FreeSans.ttf" font-size="10.00" fill="#000000">JointElement.cpp</text>
</a>
</g>
</g>
<!-- Node26&#45;&gt;Node29 -->
<g id="edge13" class="edge">
<title>Node26&#45;&gt;Node29</title>
<path fill="none" stroke="#191970" d="M656.8431,-123.5368C677.9537,-110.5605 707.8748,-92.1687 725.9119,-81.0817"/>
<polygon fill="#191970" stroke="#191970" points="654.8035,-120.6821 648.117,-128.9005 658.4692,-126.6456 654.8035,-120.6821"/>
</g>
<!-- Node30 -->
<g id="node15" class="node">
<title>Node30</title>
<g id="a_node15"><a xlink:href="URDFDocument_8cpp.html" target="_top" xlink:title="URDFDocument.cpp">
<polygon fill="none" stroke="#000000" points="802.5,-.5 802.5,-19.5 916.5,-19.5 916.5,-.5 802.5,-.5"/>
<text text-anchor="middle" x="859.5" y="-7.5" font-family="FreeSans.ttf" font-size="10.00" fill="#000000">URDFDocument.cpp</text>
</a>
</g>
</g>
<!-- Node26&#45;&gt;Node30 -->
<g id="edge14" class="edge">
<title>Node26&#45;&gt;Node30</title>
<path fill="none" stroke="#191970" d="M675.0468,-126.0715C722.758,-112.0309 794.2106,-90.6497 799.5,-87 825.724,-68.9051 845.7899,-35.8605 854.5996,-19.5822"/>
<polygon fill="#191970" stroke="#191970" points="673.8664,-122.7703 665.2585,-128.9472 675.8396,-129.4865 673.8664,-122.7703"/>
</g>
<!-- Node31&#45;&gt;Node27 -->
<g id="edge18" class="edge">
<title>Node31&#45;&gt;Node27</title>
<path fill="none" stroke="#191970" d="M457.4792,-120.1099C465.0197,-107.4795 474.7244,-91.2241 480.7796,-81.0817"/>
<polygon fill="#191970" stroke="#191970" points="454.352,-118.5202 452.231,-128.9005 460.3624,-122.1085 454.352,-118.5202"/>
</g>
<!-- Node31&#45;&gt;Node29 -->
<g id="edge20" class="edge">
<title>Node31&#45;&gt;Node29</title>
<path fill="none" stroke="#191970" d="M501.7335,-127.1326C549.6569,-117.1062 620.8307,-101.8224 682.5,-87 690.223,-85.1437 698.4849,-83.0448 706.3069,-81.0046"/>
<polygon fill="#191970" stroke="#191970" points="500.9461,-123.7214 491.8719,-129.1903 502.376,-130.5739 500.9461,-123.7214"/>
</g>
<!-- Node31&#45;&gt;Node30 -->
<g id="edge21" class="edge">
<title>Node31&#45;&gt;Node30</title>
<path fill="none" stroke="#191970" d="M405.1233,-125.9703C360.6918,-112.3209 295.9458,-91.7856 292.5,-87 284.4494,-75.819 283.1598,-66.1286 292.5,-56 309.6354,-37.4181 662.0637,-19.1344 802.4859,-12.5584"/>
<polygon fill="#191970" stroke="#191970" points="404.234,-129.3583 414.8205,-128.9392 406.2833,-122.665 404.234,-129.3583"/>
</g>
<!-- Node32 -->
<g id="node17" class="node">
<title>Node32</title>
<g id="a_node17"><a xlink:href="ModelTestUtils_8h.html" target="_top" xlink:title="ModelTestUtils.h">
<polygon fill="none" stroke="#ff0000" points="0,-62 0,-81 97,-81 97,-62 0,-62"/>
<text text-anchor="middle" x="48.5" y="-69" font-family="FreeSans.ttf" font-size="10.00" fill="#000000">ModelTestUtils.h</text>
</a>
</g>
</g>
<!-- Node31&#45;&gt;Node32 -->
<g id="edge16" class="edge">
<title>Node31&#45;&gt;Node32</title>
<path fill="none" stroke="#191970" d="M406.7687,-126.3465C401.9875,-125.1065 397.1519,-123.9545 392.5,-123 267.0003,-97.2503 232.2311,-111.5951 106.5,-87 98.2146,-85.3792 89.3657,-83.2324 81.1394,-81.0546"/>
<polygon fill="#191970" stroke="#191970" points="405.8617,-129.7269 416.4302,-128.98 407.7027,-122.9733 405.8617,-129.7269"/>
</g>
<!-- Node34 -->
<g id="node18" class="node">
<title>Node34</title>
<g id="a_node18"><a xlink:href="DenavitHartenberg_8cpp.html" target="_top" xlink:title="DenavitHartenberg.cpp">
<polygon fill="none" stroke="#000000" points="115.5,-62 115.5,-81 245.5,-81 245.5,-62 115.5,-62"/>
<text text-anchor="middle" x="180.5" y="-69" font-family="FreeSans.ttf" font-size="10.00" fill="#000000">DenavitHartenberg.cpp</text>
</a>
</g>
</g>
<!-- Node31&#45;&gt;Node34 -->
<g id="edge17" class="edge">
<title>Node31&#45;&gt;Node34</title>
<path fill="none" stroke="#191970" d="M404.2354,-126.1886C400.2743,-125.089 396.3156,-124.0106 392.5,-123 333.5523,-107.3871 264.8988,-91.0428 222.0628,-81.0624"/>
<polygon fill="#191970" stroke="#191970" points="403.4327,-129.5986 414.007,-128.9387 405.3292,-122.8603 403.4327,-129.5986"/>
</g>
<!-- Node31&#45;&gt;Node35 -->
<g id="edge19" class="edge">
<title>Node31&#45;&gt;Node35</title>
<path fill="none" stroke="#191970" d="M424.768,-123.0102C406.609,-110.067 381.2886,-92.0195 365.9429,-81.0817"/>
<polygon fill="#191970" stroke="#191970" points="422.8574,-125.9464 433.0321,-128.9005 426.9204,-120.2462 422.8574,-125.9464"/>
</g>
<!-- Node36&#45;&gt;Node29 -->
<g id="edge29" class="edge">
<title>Node36&#45;&gt;Node29</title>
<path fill="none" stroke="#191970" d="M741.5,-118.6079C741.5,-106.214 741.5,-90.8263 741.5,-81.0817"/>
<polygon fill="#191970" stroke="#191970" points="738.0001,-118.9005 741.5,-128.9005 745.0001,-118.9006 738.0001,-118.9005"/>
</g>
<!-- Node37 -->
<g id="node21" class="node">
<title>Node37</title>
<g id="a_node21"><a xlink:href="RobotElement_8h.html" target="_top" xlink:title="RobotElement.h">
<polygon fill="none" stroke="#ff0000" points="969.5,-62 969.5,-81 1063.5,-81 1063.5,-62 969.5,-62"/>
<text text-anchor="middle" x="1016.5" y="-69" font-family="FreeSans.ttf" font-size="10.00" fill="#000000">RobotElement.h</text>
</a>
</g>
</g>
<!-- Node36&#45;&gt;Node37 -->
<g id="edge25" class="edge">
<title>Node36&#45;&gt;Node37</title>
<path fill="none" stroke="#191970" d="M782.6354,-126.1653C786.6347,-125.0579 790.639,-123.9845 794.5,-123 867.2313,-104.4545 886.5957,-104.8535 959.5,-87 966.9706,-85.1705 974.9563,-83.0826 982.514,-81.0448"/>
<polygon fill="#191970" stroke="#191970" points="781.4549,-122.862 772.7889,-128.9572 783.3644,-129.5966 781.4549,-122.862"/>
</g>
<!-- Node39 -->
<g id="node22" class="node">
<title>Node39</title>
<g id="a_node22"><a xlink:href="URDFDocument_8h.html" target="_top" xlink:title="URDFDocument.h">
<polygon fill="none" stroke="#ff0000" points="848,-62 848,-81 951,-81 951,-62 848,-62"/>
<text text-anchor="middle" x="899.5" y="-69" font-family="FreeSans.ttf" font-size="10.00" fill="#000000">URDFDocument.h</text>
</a>
</g>
</g>
<!-- Node36&#45;&gt;Node39 -->
<g id="edge27" class="edge">
<title>Node36&#45;&gt;Node39</title>
<path fill="none" stroke="#191970" d="M773.5437,-124.9118C804.253,-111.8895 849.8209,-92.5664 876.9044,-81.0817"/>
<polygon fill="#191970" stroke="#191970" points="771.9776,-121.7742 764.1375,-128.9005 774.7104,-128.2187 771.9776,-121.7742"/>
</g>
<!-- Node37&#45;&gt;Node30 -->
<g id="edge26" class="edge">
<title>Node37&#45;&gt;Node30</title>
<path fill="none" stroke="#191970" d="M982.4137,-58.1477C952.6847,-46.5023 910.2893,-29.8952 883.859,-19.5419"/>
<polygon fill="#191970" stroke="#191970" points="981.381,-61.5021 991.9688,-61.8906 983.9342,-54.9843 981.381,-61.5021"/>
</g>
<!-- Node39&#45;&gt;Node30 -->
<g id="edge28" class="edge">
<title>Node39&#45;&gt;Node30</title>
<path fill="none" stroke="#191970" d="M887.7386,-53.4169C880.576,-42.4043 871.7049,-28.765 865.8381,-19.7449"/>
<polygon fill="#191970" stroke="#191970" points="884.8637,-55.416 893.25,-61.8906 890.7317,-51.5994 884.8637,-55.416"/>
</g>
<!-- Node43 -->
<g id="node25" class="node">
<title>Node43</title>
<g id="a_node25"><a xlink:href="BerdyHelper_8cpp.html" target="_top" xlink:title="BerdyHelper.cpp">
<polygon fill="none" stroke="#000000" points="2495,-129 2495,-148 2592,-148 2592,-129 2495,-129"/>
<text text-anchor="middle" x="2543.5" y="-136" font-family="FreeSans.ttf" font-size="10.00" fill="#000000">BerdyHelper.cpp</text>
</a>
</g>
</g>
<!-- Node42&#45;&gt;Node43 -->
<g id="edge34" class="edge">
<title>Node42&#45;&gt;Node43</title>
<path fill="none" stroke="#191970" d="M2543.5,-180.2462C2543.5,-169.5519 2543.5,-156.814 2543.5,-148.2449"/>
<polygon fill="#191970" stroke="#191970" points="2540.0001,-180.3906 2543.5,-190.3906 2547.0001,-180.3907 2540.0001,-180.3906"/>
</g>
<!-- Node44 -->
<g id="node26" class="node">
<title>Node44</title>
<g id="a_node26"><a xlink:href="BerdySparseMAPSolver_8cpp.html" target="_top" xlink:title="BerdySparseMAPSolver.cpp">
<polygon fill="none" stroke="#000000" points="2610,-129 2610,-148 2759,-148 2759,-129 2610,-129"/>
<text text-anchor="middle" x="2684.5" y="-136" font-family="FreeSans.ttf" font-size="10.00" fill="#000000">BerdySparseMAPSolver.cpp</text>
</a>
</g>
</g>
<!-- Node42&#45;&gt;Node44 -->
<g id="edge35" class="edge">
<title>Node42&#45;&gt;Node44</title>
<path fill="none" stroke="#191970" d="M2574.8116,-186.3428C2601.4729,-174.7139 2639.0931,-158.3051 2662.6235,-148.0419"/>
<polygon fill="#191970" stroke="#191970" points="2573.298,-183.1845 2565.5313,-190.3906 2576.0966,-189.6007 2573.298,-183.1845"/>
</g>
<!-- Node45&#45;&gt;Node43 -->
<g id="edge40" class="edge">
<title>Node45&#45;&gt;Node43</title>
<path fill="none" stroke="#191970" d="M2248.7271,-190.0967C2315.1066,-182.2939 2406.2283,-170.0543 2485.5,-154 2493.6723,-152.3449 2502.401,-150.2106 2510.5403,-148.0582"/>
<polygon fill="#191970" stroke="#191970" points="2248.2332,-186.6304 2238.7049,-191.2632 2249.0425,-193.5835 2248.2332,-186.6304"/>
</g>
<!-- Node46 -->
<g id="node28" class="node">
<title>Node46</title>
<g id="a_node28"><a xlink:href="ExtWrenchesAndJointTorquesEstimator_8h.html" target="_top" xlink:title="ExtWrenchesAndJointTorques\lEstimator.h">
<polygon fill="none" stroke="#000000" points="2130.5,-123.5 2130.5,-153.5 2288.5,-153.5 2288.5,-123.5 2130.5,-123.5"/>
<text text-anchor="start" x="2138.5" y="-141.5" font-family="FreeSans.ttf" font-size="10.00" fill="#000000">ExtWrenchesAndJointTorques</text>
<text text-anchor="middle" x="2209.5" y="-130.5" font-family="FreeSans.ttf" font-size="10.00" fill="#000000">Estimator.h</text>
</a>
</g>
</g>
<!-- Node45&#45;&gt;Node46 -->
<g id="edge37" class="edge">
<title>Node45&#45;&gt;Node46</title>
<path fill="none" stroke="#191970" d="M2170.7329,-182.6514C2178.7819,-173.4845 2188.5653,-162.3423 2196.2901,-153.5446"/>
<polygon fill="#191970" stroke="#191970" points="2167.9055,-180.5669 2163.9375,-190.3906 2173.1656,-185.1855 2167.9055,-180.5669"/>
</g>
<!-- Node47 -->
<g id="node29" class="node">
<title>Node47</title>
<g id="a_node29"><a xlink:href="ExtWrenchesAndJointTorquesEstimator_8cpp.html" target="_top" xlink:title="ExtWrenchesAndJointTorques\lEstimator.cpp">
<polygon fill="none" stroke="#000000" points="2076.5,-56.5 2076.5,-86.5 2234.5,-86.5 2234.5,-56.5 2076.5,-56.5"/>
<text text-anchor="start" x="2084.5" y="-74.5" font-family="FreeSans.ttf" font-size="10.00" fill="#000000">ExtWrenchesAndJointTorques</text>
<text text-anchor="middle" x="2155.5" y="-63.5" font-family="FreeSans.ttf" font-size="10.00" fill="#000000">Estimator.cpp</text>
</a>
</g>
</g>
<!-- Node45&#45;&gt;Node47 -->
<g id="edge42" class="edge">
<title>Node45&#45;&gt;Node47</title>
<path fill="none" stroke="#191970" d="M2138.7787,-182.9123C2132.0241,-174.836 2125.0056,-164.6406 2121.5,-154 2117.1888,-140.9141 2117.5371,-136.1955 2121.5,-123 2125.5677,-109.4555 2134.4802,-96.1865 2142.1597,-86.51"/>
<polygon fill="#191970" stroke="#191970" points="2136.286,-185.3753 2145.5638,-190.4913 2141.5014,-180.7063 2136.286,-185.3753"/>
</g>
<!-- Node48 -->
<g id="node30" class="node">
<title>Node48</title>
<g id="a_node30"><a xlink:href="GravityCompensationHelpers_8h.html" target="_top" xlink:title="GravityCompensationHelpers.h">
<polygon fill="none" stroke="#ff0000" points="2306.5,-129 2306.5,-148 2476.5,-148 2476.5,-129 2306.5,-129"/>
<text text-anchor="middle" x="2391.5" y="-136" font-family="FreeSans.ttf" font-size="10.00" fill="#000000">GravityCompensationHelpers.h</text>
</a>
</g>
</g>
<!-- Node45&#45;&gt;Node48 -->
<g id="edge39" class="edge">
<title>Node45&#45;&gt;Node48</title>
<path fill="none" stroke="#191970" d="M2201.8774,-187.9144C2246.6657,-176.2428 2313.5972,-158.8009 2354.798,-148.0643"/>
<polygon fill="#191970" stroke="#191970" points="2200.9103,-184.5494 2192.1161,-190.4581 2202.6755,-191.3232 2200.9103,-184.5494"/>
</g>
<!-- Node50 -->
<g id="node31" class="node">
<title>Node50</title>
<g id="a_node31"><a xlink:href="ExternalWrenchesEstimation_8cpp.html" target="_top" xlink:title="ExternalWrenchesEstimation.cpp">
<polygon fill="none" stroke="#000000" points="1739,-129 1739,-148 1916,-148 1916,-129 1739,-129"/>
<text text-anchor="middle" x="1827.5" y="-136" font-family="FreeSans.ttf" font-size="10.00" fill="#000000">ExternalWrenchesEstimation.cpp</text>
</a>
</g>
</g>
<!-- Node45&#45;&gt;Node50 -->
<g id="edge41" class="edge">
<title>Node45&#45;&gt;Node50</title>
<path fill="none" stroke="#191970" d="M2094.5255,-188.5673C2032.2141,-176.8839 1936.5548,-158.9478 1878.2396,-148.0137"/>
<polygon fill="#191970" stroke="#191970" points="2094.1361,-192.0552 2104.6099,-190.4581 2095.4262,-185.1751 2094.1361,-192.0552"/>
</g>
<!-- Node51 -->
<g id="node32" class="node">
<title>Node51</title>
<g id="a_node32"><a xlink:href="skinDynLibConversions_8h.html" target="_top" xlink:title="skinDynLibConversions.h">
<polygon fill="none" stroke="#ff0000" points="1934.5,-129 1934.5,-148 2074.5,-148 2074.5,-129 1934.5,-129"/>
<text text-anchor="middle" x="2004.5" y="-136" font-family="FreeSans.ttf" font-size="10.00" fill="#000000">skinDynLibConversions.h</text>
</a>
</g>
</g>
<!-- Node45&#45;&gt;Node51 -->
<g id="edge43" class="edge">
<title>Node45&#45;&gt;Node51</title>
<path fill="none" stroke="#191970" d="M2122.3427,-186.4955C2093.7692,-174.858 2053.2377,-158.3501 2027.9281,-148.0419"/>
<polygon fill="#191970" stroke="#191970" points="2121.3247,-189.86 2131.9063,-190.3906 2123.9651,-183.3771 2121.3247,-189.86"/>
</g>
<!-- Node46&#45;&gt;Node47 -->
<g id="edge38" class="edge">
<title>Node46&#45;&gt;Node47</title>
<path fill="none" stroke="#191970" d="M2190.8425,-115.3509C2183.1836,-105.8482 2174.5315,-95.1132 2167.7049,-86.6432"/>
<polygon fill="#191970" stroke="#191970" points="2188.2462,-117.707 2197.2466,-123.2967 2193.6964,-113.3143 2188.2462,-117.707"/>
</g>
<!-- Node54&#45;&gt;Node24 -->
<g id="edge51" class="edge">
<title>Node54&#45;&gt;Node24</title>
<path fill="none" stroke="#191970" d="M1487.888,-188.5031C1448.2745,-180.4246 1403.3669,-168.4904 1389.5,-154 1370.1923,-133.8241 1369.0784,-98.1523 1369.7875,-81.1001"/>
<polygon fill="#191970" stroke="#191970" points="1487.3333,-191.9612 1497.8231,-190.4731 1488.6948,-185.0948 1487.3333,-191.9612"/>
</g>
<!-- Node55 -->
<g id="node34" class="node">
<title>Node55</title>
<g id="a_node34"><a xlink:href="InverseKinematicsData_8h.html" target="_top" xlink:title="InverseKinematicsData.h">
<polygon fill="none" stroke="#ff0000" points="1580.5,-129 1580.5,-148 1720.5,-148 1720.5,-129 1580.5,-129"/>
<text text-anchor="middle" x="1650.5" y="-136" font-family="FreeSans.ttf" font-size="10.00" fill="#000000">InverseKinematicsData.h</text>
</a>
</g>
</g>
<!-- Node54&#45;&gt;Node55 -->
<g id="edge45" class="edge">
<title>Node54&#45;&gt;Node55</title>
<path fill="none" stroke="#191970" d="M1579.0013,-184.786C1596.7649,-173.2864 1620.6021,-157.855 1635.7605,-148.0419"/>
<polygon fill="#191970" stroke="#191970" points="1576.8362,-182.0182 1570.3438,-190.3906 1580.6403,-187.8943 1576.8362,-182.0182"/>
</g>
<!-- Node57 -->
<g id="node35" class="node">
<title>Node57</title>
<g id="a_node35"><a xlink:href="TransformConstraint_8h.html" target="_top" xlink:title="TransformConstraint.h">
<polygon fill="none" stroke="#ff0000" points="1399,-129 1399,-148 1524,-148 1524,-129 1399,-129"/>
<text text-anchor="middle" x="1461.5" y="-136" font-family="FreeSans.ttf" font-size="10.00" fill="#000000">TransformConstraint.h</text>
</a>
</g>
</g>
<!-- Node54&#45;&gt;Node57 -->
<g id="edge48" class="edge">
<title>Node54&#45;&gt;Node57</title>
<path fill="none" stroke="#191970" d="M1532.2461,-184.786C1514.6694,-173.2864 1491.0832,-157.855 1476.0844,-148.0419"/>
<polygon fill="#191970" stroke="#191970" points="1530.5281,-187.8445 1540.8125,-190.3906 1534.3606,-181.9868 1530.5281,-187.8445"/>
</g>
<!-- Node55&#45;&gt;Node24 -->
<g id="edge46" class="edge">
<title>Node55&#45;&gt;Node24</title>
<path fill="none" stroke="#191970" d="M1600.9378,-126.6405C1546.7047,-113.6633 1460.818,-93.1118 1410.6358,-81.1039"/>
<polygon fill="#191970" stroke="#191970" points="1600.1402,-130.0484 1610.6802,-128.9717 1601.7693,-123.2405 1600.1402,-130.0484"/>
</g>
<!-- Node55&#45;&gt;Node25 -->
<g id="edge47" class="edge">
<title>Node55&#45;&gt;Node25</title>
<path fill="none" stroke="#191970" d="M1628.1009,-123.1864C1609.1517,-110.2312 1582.5864,-92.0693 1566.515,-81.0817"/>
<polygon fill="#191970" stroke="#191970" points="1626.2285,-126.146 1636.459,-128.9005 1630.1792,-120.3674 1626.2285,-126.146"/>
</g>
<!-- Node57&#45;&gt;Node24 -->
<g id="edge49" class="edge">
<title>Node57&#45;&gt;Node24</title>
<path fill="none" stroke="#191970" d="M1439.9804,-122.6559C1422.4372,-109.7395 1398.2348,-91.9201 1383.5139,-81.0817"/>
<polygon fill="#191970" stroke="#191970" points="1438.334,-125.79 1448.4619,-128.9005 1442.4843,-120.153 1438.334,-125.79"/>
</g>
<!-- Node57&#45;&gt;Node25 -->
<g id="edge50" class="edge">
<title>Node57&#45;&gt;Node25</title>
<path fill="none" stroke="#191970" d="M1483.0196,-122.6559C1500.5628,-109.7395 1524.7652,-91.9201 1539.4861,-81.0817"/>
<polygon fill="#191970" stroke="#191970" points="1480.5157,-120.153 1474.5381,-128.9005 1484.666,-125.79 1480.5157,-120.153"/>
</g>
<!-- Node59&#45;&gt;Node60 -->
<g id="edge54" class="edge">
<title>Node59&#45;&gt;Node60</title>
<path fill="none" stroke="#191970" d="M2834.5,-180.2462C2834.5,-169.5519 2834.5,-156.814 2834.5,-148.2449"/>
<polygon fill="#191970" stroke="#191970" points="2831.0001,-180.3906 2834.5,-190.3906 2838.0001,-180.3907 2831.0001,-180.3906"/>
</g>
<!-- Node61 -->
<g id="node38" class="node">
<title>Node61</title>
<g id="a_node38"><a xlink:href="qticubskinguiplugin_8h.html" target="_top" xlink:title="qticubskinguiplugin.h">
<polygon fill="none" stroke="#ff0000" points="2910,-129 2910,-148 3031,-148 3031,-129 2910,-129"/>
<text text-anchor="middle" x="2970.5" y="-136" font-family="FreeSans.ttf" font-size="10.00" fill="#000000">qticubskinguiplugin.h</text>
</a>
</g>
</g>
<!-- Node59&#45;&gt;Node61 -->
<g id="edge55" class="edge">
<title>Node59&#45;&gt;Node61</title>
<path fill="none" stroke="#191970" d="M2865.0402,-186.1895C2890.7352,-174.5701 2926.8028,-158.2601 2949.3992,-148.0419"/>
<polygon fill="#191970" stroke="#191970" points="2863.4195,-183.0811 2855.75,-190.3906 2866.3038,-189.4593 2863.4195,-183.0811"/>
</g>
<!-- Node65 -->
<g id="node40" class="node">
<title>Node65</title>
<g id="a_node40"><a xlink:href="idyntree-model-view_8cpp.html" target="_top" xlink:title="idyntree&#45;model&#45;view.cpp">
<polygon fill="none" stroke="#000000" points="3310.5,-129 3310.5,-148 3448.5,-148 3448.5,-129 3310.5,-129"/>
<text text-anchor="middle" x="3379.5" y="-136" font-family="FreeSans.ttf" font-size="10.00" fill="#000000">idyntree&#45;model&#45;view.cpp</text>
</a>
</g>
</g>
<!-- Node64&#45;&gt;Node65 -->
<g id="edge58" class="edge">
<title>Node64&#45;&gt;Node65</title>
<path fill="none" stroke="#191970" d="M3495.7819,-186.4955C3467.5868,-174.858 3427.5922,-158.3501 3402.6178,-148.0419"/>
<polygon fill="#191970" stroke="#191970" points="3494.6398,-189.8105 3505.2188,-190.3906 3497.3106,-183.34 3494.6398,-189.8105"/>
</g>
<!-- Node66 -->
<g id="node41" class="node">
<title>Node66</title>
<g id="a_node41"><a xlink:href="Camera_8h.html" target="_top" xlink:title="Camera.h">
<polygon fill="none" stroke="#ff0000" points="3466.5,-129 3466.5,-148 3530.5,-148 3530.5,-129 3466.5,-129"/>
<text text-anchor="middle" x="3498.5" y="-136" font-family="FreeSans.ttf" font-size="10.00" fill="#000000">Camera.h</text>
</a>
</g>
</g>
<!-- Node64&#45;&gt;Node66 -->
<g id="edge59" class="edge">
<title>Node64&#45;&gt;Node66</title>
<path fill="none" stroke="#191970" d="M3519.3551,-181.253C3514.0417,-170.3606 3507.5657,-157.0846 3503.2536,-148.2449"/>
<polygon fill="#191970" stroke="#191970" points="3516.2825,-182.9374 3523.8125,-190.3906 3522.5739,-179.8684 3516.2825,-182.9374"/>
</g>
<!-- Node68 -->
<g id="node42" class="node">
<title>Node68</title>
<g id="a_node42"><a xlink:href="IrrlichtUtils_8h.html" target="_top" xlink:title="IrrlichtUtils.h">
<polygon fill="none" stroke="#ff0000" points="3563.5,-62 3563.5,-81 3643.5,-81 3643.5,-62 3563.5,-62"/>
<text text-anchor="middle" x="3603.5" y="-69" font-family="FreeSans.ttf" font-size="10.00" fill="#000000">IrrlichtUtils.h</text>
</a>
</g>
</g>
<!-- Node64&#45;&gt;Node68 -->
<g id="edge60" class="edge">
<title>Node64&#45;&gt;Node68</title>
<path fill="none" stroke="#191970" d="M3539.2143,-181.6428C3555.3438,-154.0077 3585.3029,-102.6776 3597.7974,-81.2705"/>
<polygon fill="#191970" stroke="#191970" points="3536.1552,-179.9407 3534.1372,-190.3416 3542.2008,-183.4693 3536.1552,-179.9407"/>
</g>
<!-- Node74 -->
<g id="node43" class="node">
<title>Node74</title>
<g id="a_node43"><a xlink:href="FloorGridSceneNode_8h.html" target="_top" xlink:title="FloorGridSceneNode.h">
<polygon fill="none" stroke="#ff0000" points="3587,-129 3587,-148 3712,-148 3712,-129 3587,-129"/>
<text text-anchor="middle" x="3649.5" y="-136" font-family="FreeSans.ttf" font-size="10.00" fill="#000000">FloorGridSceneNode.h</text>
</a>
</g>
</g>
<!-- Node64&#45;&gt;Node74 -->
<g id="edge61" class="edge">
<title>Node64&#45;&gt;Node74</title>
<path fill="none" stroke="#191970" d="M3556.583,-185.7264C3579.3789,-174.1401 3610.8881,-158.1251 3630.7265,-148.0419"/>
<polygon fill="#191970" stroke="#191970" points="3554.735,-182.7395 3547.4063,-190.3906 3557.9067,-188.9797 3554.735,-182.7395"/>
</g>
<!-- Node75 -->
<g id="node44" class="node">
<title>Node75</title>
<g id="a_node44"><a xlink:href="DummyImplementations_8h.html" target="_top" xlink:title="DummyImplementations.h">
<polygon fill="none" stroke="#000000" points="3836.5,-129 3836.5,-148 3984.5,-148 3984.5,-129 3836.5,-129"/>
<text text-anchor="middle" x="3910.5" y="-136" font-family="FreeSans.ttf" font-size="10.00" fill="#000000">DummyImplementations.h</text>
</a>
</g>
</g>
<!-- Node64&#45;&gt;Node75 -->
<g id="edge63" class="edge">
<title>Node64&#45;&gt;Node75</title>
<path fill="none" stroke="#191970" d="M3575.1884,-189.9897C3688.0055,-170.0483 3718.602,-171.9073 3827.5,-154 3838.4931,-152.1923 3850.2742,-150.0918 3861.4066,-148.0317"/>
<polygon fill="#191970" stroke="#191970" points="3574.3392,-186.5859 3565.1105,-191.7899 3575.5701,-193.4768 3574.3392,-186.5859"/>
</g>
<!-- Node76 -->
<g id="node45" class="node">
<title>Node76</title>
<g id="a_node45"><a xlink:href="Environment_8h.html" target="_top" xlink:title="Environment.h">
<polygon fill="none" stroke="#ff0000" points="3749.5,-62 3749.5,-81 3837.5,-81 3837.5,-62 3749.5,-62"/>
<text text-anchor="middle" x="3793.5" y="-69" font-family="FreeSans.ttf" font-size="10.00" fill="#000000">Environment.h</text>
</a>
</g>
</g>
<!-- Node64&#45;&gt;Node76 -->
<g id="edge66" class="edge">
<title>Node64&#45;&gt;Node76</title>
<path fill="none" stroke="#191970" d="M3575.0939,-189.5759C3629.8719,-177.2111 3714.1892,-157.7896 3720.5,-154 3751.8163,-135.1947 3777.0387,-98.5263 3787.828,-81.118"/>
<polygon fill="#191970" stroke="#191970" points="3574.221,-186.1848 3565.2348,-191.7973 3575.7596,-193.0136 3574.221,-186.1848"/>
</g>
<!-- Node77 -->
<g id="node46" class="node">
<title>Node77</title>
<g id="a_node46"><a xlink:href="Visualizer_8cpp.html" target="_top" xlink:title="Visualizer.cpp">
<polygon fill="none" stroke="#000000" points="3919.5,-62 3919.5,-81 4003.5,-81 4003.5,-62 3919.5,-62"/>
<text text-anchor="middle" x="3961.5" y="-69" font-family="FreeSans.ttf" font-size="10.00" fill="#000000">Visualizer.cpp</text>
</a>
</g>
</g>
<!-- Node64&#45;&gt;Node77 -->
<g id="edge71" class="edge">
<title>Node64&#45;&gt;Node77</title>
<path fill="none" stroke="#191970" d="M3575.2011,-190.4411C3653.2855,-183.4553 3963.4475,-186.7452 3993.5,-154 4013.1327,-132.6082 3986.3346,-97.8353 3970.9627,-81.0992"/>
<polygon fill="#191970" stroke="#191970" points="3574.6147,-186.9854 3565.0798,-191.6045 3575.4141,-193.9396 3574.6147,-186.9854"/>
</g>
<!-- Node78 -->
<g id="node47" class="node">
<title>Node78</title>
<g id="a_node47"><a xlink:href="Light_8h.html" target="_top" xlink:title="Light.h">
<polygon fill="none" stroke="#ff0000" points="3768.5,-129 3768.5,-148 3818.5,-148 3818.5,-129 3768.5,-129"/>
<text text-anchor="middle" x="3793.5" y="-136" font-family="FreeSans.ttf" font-size="10.00" fill="#000000">Light.h</text>
</a>
</g>
</g>
<!-- Node64&#45;&gt;Node78 -->
<g id="edge67" class="edge">
<title>Node64&#45;&gt;Node78</title>
<path fill="none" stroke="#191970" d="M3575.301,-189.8911C3656.1614,-173.5917 3679.328,-176.256 3754.5,-154 3760.089,-152.3453 3765.9934,-150.2111 3771.4704,-148.0587"/>
<polygon fill="#191970" stroke="#191970" points="3574.2384,-186.5361 3565.1466,-191.9757 3575.6461,-193.3931 3574.2384,-186.5361"/>
</g>
<!-- Node79 -->
<g id="node48" class="node">
<title>Node79</title>
<g id="a_node48"><a xlink:href="JetsVisualization_8h.html" target="_top" xlink:title="JetsVisualization.h">
<polygon fill="none" stroke="#ff0000" points="3049,-129 3049,-148 3156,-148 3156,-129 3049,-129"/>
<text text-anchor="middle" x="3102.5" y="-136" font-family="FreeSans.ttf" font-size="10.00" fill="#000000">JetsVisualization.h</text>
</a>
</g>
</g>
<!-- Node64&#45;&gt;Node79 -->
<g id="edge69" class="edge">
<title>Node64&#45;&gt;Node79</title>
<path fill="none" stroke="#191970" d="M3481.8024,-195.819C3412.4331,-189.2166 3278.2248,-174.9373 3165.5,-154 3156.6406,-152.3545 3147.166,-150.2237 3138.3258,-148.0717"/>
<polygon fill="#191970" stroke="#191970" points="3481.6773,-199.3226 3491.9612,-196.775 3482.3331,-192.3534 3481.6773,-199.3226"/>
</g>
<!-- Node80 -->
<g id="node49" class="node">
<title>Node80</title>
<g id="a_node49"><a xlink:href="ModelVisualization_8h.html" target="_top" xlink:title="ModelVisualization.h">
<polygon fill="none" stroke="#ff0000" points="3174.5,-129 3174.5,-148 3292.5,-148 3292.5,-129 3174.5,-129"/>
<text text-anchor="middle" x="3233.5" y="-136" font-family="FreeSans.ttf" font-size="10.00" fill="#000000">ModelVisualization.h</text>
</a>
</g>
</g>
<!-- Node64&#45;&gt;Node80 -->
<g id="edge70" class="edge">
<title>Node64&#45;&gt;Node80</title>
<path fill="none" stroke="#191970" d="M3481.9233,-190.9036C3435.988,-181.8518 3363.8114,-167.4131 3301.5,-154 3292.7405,-152.1144 3283.3631,-150.0238 3274.4571,-148.0043"/>
<polygon fill="#191970" stroke="#191970" points="3481.3922,-194.3661 3491.8797,-192.8621 3482.7433,-187.4977 3481.3922,-194.3661"/>
</g>
<!-- Node74&#45;&gt;Node68 -->
<g id="edge62" class="edge">
<title>Node74&#45;&gt;Node68</title>
<path fill="none" stroke="#191970" d="M3637.1283,-120.4803C3628.4216,-107.7989 3617.1102,-91.3235 3610.0785,-81.0817"/>
<polygon fill="#191970" stroke="#191970" points="3634.3638,-122.6375 3642.9093,-128.9005 3640.1346,-118.6755 3634.3638,-122.6375"/>
</g>
<!-- Node75&#45;&gt;Node76 -->
<g id="edge64" class="edge">
<title>Node75&#45;&gt;Node76</title>
<path fill="none" stroke="#191970" d="M3884.9776,-123.8846C3862.2873,-110.891 3829.7667,-92.2681 3810.2322,-81.0817"/>
<polygon fill="#191970" stroke="#191970" points="3883.3196,-126.9684 3893.7368,-128.9005 3886.7982,-120.8939 3883.3196,-126.9684"/>
</g>
<!-- Node75&#45;&gt;Node77 -->
<g id="edge65" class="edge">
<title>Node75&#45;&gt;Node77</title>
<path fill="none" stroke="#191970" d="M3923.9361,-120.8486C3933.6256,-108.1194 3946.3348,-91.4229 3954.2065,-81.0817"/>
<polygon fill="#191970" stroke="#191970" points="3921.079,-118.8236 3917.8071,-128.9005 3926.6489,-123.0634 3921.079,-118.8236"/>
</g>
<!-- Node78&#45;&gt;Node76 -->
<g id="edge68" class="edge">
<title>Node78&#45;&gt;Node76</title>
<path fill="none" stroke="#191970" d="M3793.5,-118.6079C3793.5,-106.214 3793.5,-90.8263 3793.5,-81.0817"/>
<polygon fill="#191970" stroke="#191970" points="3790.0001,-118.9005 3793.5,-128.9005 3797.0001,-118.9006 3790.0001,-118.9005"/>
</g>
</g>
</svg>
