<?xml version="1.0" encoding="UTF-8" standalone="no"?>
<!DOCTYPE svg PUBLIC "-//W3C//DTD SVG 1.1//EN"
 "http://www.w3.org/Graphics/SVG/1.1/DTD/svg11.dtd">
<!-- Generated by graphviz version 2.40.1 (20161225.0304)
 -->
<!-- Title: DummyImplementations.h Pages: 1 -->
<svg width="204pt" height="140pt"
 viewBox="0.00 0.00 203.50 140.00" xmlns="http://www.w3.org/2000/svg" xmlns:xlink="http://www.w3.org/1999/xlink">
<g id="graph0" class="graph" transform="scale(1 1) rotate(0) translate(4 136)">
<title>DummyImplementations.h</title>
<!-- Node59 -->
<g id="node1" class="node">
<title>Node59</title>
<polygon fill="#bfbfbf" stroke="#000000" points="27.5,-112.5 27.5,-131.5 175.5,-131.5 175.5,-112.5 27.5,-112.5"/>
<text text-anchor="middle" x="101.5" y="-119.5" font-family="FreeSans.ttf" font-size="10.00" fill="#000000">DummyImplementations.h</text>
</g>
<!-- Node60 -->
<g id="node2" class="node">
<title>Node60</title>
<g id="a_node2"><a xlink:href="Environment_8h.html" target="_top" xlink:title="Environment.h">
<polygon fill="none" stroke="#000000" points="5.5,-56.5 5.5,-75.5 93.5,-75.5 93.5,-56.5 5.5,-56.5"/>
<text text-anchor="middle" x="49.5" y="-63.5" font-family="FreeSans.ttf" font-size="10.00" fill="#000000">Environment.h</text>
</a>
</g>
</g>
<!-- Node59&#45;&gt;Node60 -->
<g id="edge1" class="edge">
<title>Node59&#45;&gt;Node60</title>
<path fill="none" stroke="#191970" d="M85.5178,-104.7884C76.6222,-95.2085 65.8796,-83.6396 58.4539,-75.6427"/>
<polygon fill="#191970" stroke="#191970" points="83.073,-107.2992 92.4423,-112.2455 88.2025,-102.536 83.073,-107.2992"/>
</g>
<!-- Node62 -->
<g id="node4" class="node">
<title>Node62</title>
<g id="a_node4"><a xlink:href="Visualizer_8cpp.html" target="_top" xlink:title="Visualizer.cpp">
<polygon fill="none" stroke="#000000" points="111.5,-56.5 111.5,-75.5 195.5,-75.5 195.5,-56.5 111.5,-56.5"/>
<text text-anchor="middle" x="153.5" y="-63.5" font-family="FreeSans.ttf" font-size="10.00" fill="#000000">Visualizer.cpp</text>
</a>
</g>
</g>
<!-- Node59&#45;&gt;Node62 -->
<g id="edge3" class="edge">
<title>Node59&#45;&gt;Node62</title>
<path fill="none" stroke="#191970" d="M117.4822,-104.7884C126.3778,-95.2085 137.1204,-83.6396 144.5461,-75.6427"/>
<polygon fill="#191970" stroke="#191970" points="114.7975,-102.536 110.5577,-112.2455 119.927,-107.2992 114.7975,-102.536"/>
</g>
<!-- Node61 -->
<g id="node3" class="node">
<title>Node61</title>
<g id="a_node3"><a xlink:href="Environment_8cpp.html" target="_top" xlink:title="Environment.cpp">
<polygon fill="none" stroke="#000000" points="0,-.5 0,-19.5 99,-19.5 99,-.5 0,-.5"/>
<text text-anchor="middle" x="49.5" y="-7.5" font-family="FreeSans.ttf" font-size="10.00" fill="#000000">Environment.cpp</text>
</a>
</g>
</g>
<!-- Node60&#45;&gt;Node61 -->
<g id="edge2" class="edge">
<title>Node60&#45;&gt;Node61</title>
<path fill="none" stroke="#191970" d="M49.5,-46.1575C49.5,-37.155 49.5,-26.9199 49.5,-19.6427"/>
<polygon fill="#191970" stroke="#191970" points="46.0001,-46.2455 49.5,-56.2455 53.0001,-46.2456 46.0001,-46.2455"/>
</g>
</g>
</svg>
