<?xml version="1.0" encoding="UTF-8" standalone="no"?>
<!DOCTYPE svg PUBLIC "-//W3C//DTD SVG 1.1//EN"
 "http://www.w3.org/Graphics/SVG/1.1/DTD/svg11.dtd">
<!-- Generated by graphviz version 2.40.1 (20161225.0304)
 -->
<!-- Title: DynamicDatasetFileCollection.cpp Pages: 1 -->
<svg width="499pt" height="252pt"
 viewBox="0.00 0.00 499.00 252.00" xmlns="http://www.w3.org/2000/svg" xmlns:xlink="http://www.w3.org/1999/xlink">
<g id="graph0" class="graph" transform="scale(1 1) rotate(0) translate(4 248)">
<title>DynamicDatasetFileCollection.cpp</title>
<!-- Node0 -->
<g id="node1" class="node">
<title>Node0</title>
<polygon fill="#bfbfbf" stroke="#000000" points="49.5,-224.5 49.5,-243.5 233.5,-243.5 233.5,-224.5 49.5,-224.5"/>
<text text-anchor="middle" x="141.5" y="-231.5" font-family="FreeSans.ttf" font-size="10.00" fill="#000000">DynamicDatasetFileCollection.cpp</text>
</g>
<!-- Node1 -->
<g id="node2" class="node">
<title>Node1</title>
<polygon fill="none" stroke="#bfbfbf" points="0,-168.5 0,-187.5 55,-187.5 55,-168.5 0,-168.5"/>
<text text-anchor="middle" x="27.5" y="-175.5" font-family="FreeSans.ttf" font-size="10.00" fill="#000000">fstream</text>
</g>
<!-- Node0&#45;&gt;Node1 -->
<g id="edge1" class="edge">
<title>Node0&#45;&gt;Node1</title>
<path fill="none" stroke="#191970" d="M121.9027,-224.3733C103.7669,-215.4644 76.5865,-202.1127 56.0413,-192.0203"/>
<polygon fill="#191970" stroke="#191970" points="57.3603,-188.7688 46.8416,-187.5011 54.2739,-195.0517 57.3603,-188.7688"/>
</g>
<!-- Node2 -->
<g id="node3" class="node">
<title>Node2</title>
<polygon fill="none" stroke="#bfbfbf" points="73.5,-168.5 73.5,-187.5 133.5,-187.5 133.5,-168.5 73.5,-168.5"/>
<text text-anchor="middle" x="103.5" y="-175.5" font-family="FreeSans.ttf" font-size="10.00" fill="#000000">iostream</text>
</g>
<!-- Node0&#45;&gt;Node2 -->
<g id="edge2" class="edge">
<title>Node0&#45;&gt;Node2</title>
<path fill="none" stroke="#191970" d="M134.8809,-224.2455C129.5954,-216.4564 122.0459,-205.3308 115.6762,-195.9439"/>
<polygon fill="#191970" stroke="#191970" points="118.5545,-193.9522 110.0432,-187.6427 112.7621,-197.8827 118.5545,-193.9522"/>
</g>
<!-- Node3 -->
<g id="node4" class="node">
<title>Node3</title>
<polygon fill="none" stroke="#bfbfbf" points="151.5,-168.5 151.5,-187.5 207.5,-187.5 207.5,-168.5 151.5,-168.5"/>
<text text-anchor="middle" x="179.5" y="-175.5" font-family="FreeSans.ttf" font-size="10.00" fill="#000000">sstream</text>
</g>
<!-- Node0&#45;&gt;Node3 -->
<g id="edge3" class="edge">
<title>Node0&#45;&gt;Node3</title>
<path fill="none" stroke="#191970" d="M148.1191,-224.2455C153.4046,-216.4564 160.9541,-205.3308 167.3238,-195.9439"/>
<polygon fill="#191970" stroke="#191970" points="170.2379,-197.8827 172.9568,-187.6427 164.4455,-193.9522 170.2379,-197.8827"/>
</g>
<!-- Node4 -->
<g id="node5" class="node">
<title>Node4</title>
<g id="a_node5"><a xlink:href="DynamicDatasetFile_8hpp.html" target="_top" xlink:title="DynamicDatasetFile.hpp">
<polygon fill="none" stroke="#000000" points="225.5,-168.5 225.5,-187.5 361.5,-187.5 361.5,-168.5 225.5,-168.5"/>
<text text-anchor="middle" x="293.5" y="-175.5" font-family="FreeSans.ttf" font-size="10.00" fill="#000000">DynamicDatasetFile.hpp</text>
</a>
</g>
</g>
<!-- Node0&#45;&gt;Node4 -->
<g id="edge4" class="edge">
<title>Node0&#45;&gt;Node4</title>
<path fill="none" stroke="#191970" d="M167.6297,-224.3733C192.5768,-215.1822 230.3592,-201.2624 258.0206,-191.0713"/>
<polygon fill="#191970" stroke="#191970" points="259.5378,-194.2424 267.7112,-187.5011 257.1178,-187.674 259.5378,-194.2424"/>
</g>
<!-- Node5 -->
<g id="node6" class="node">
<title>Node5</title>
<g id="a_node6"><a xlink:href="DynamicDatasetInterfaces_8hpp.html" target="_top" xlink:title="DynamicDatasetInterfaces.hpp">
<polygon fill="none" stroke="#000000" points="153.5,-112.5 153.5,-131.5 321.5,-131.5 321.5,-112.5 153.5,-112.5"/>
<text text-anchor="middle" x="237.5" y="-119.5" font-family="FreeSans.ttf" font-size="10.00" fill="#000000">DynamicDatasetInterfaces.hpp</text>
</a>
</g>
</g>
<!-- Node4&#45;&gt;Node5 -->
<g id="edge5" class="edge">
<title>Node4&#45;&gt;Node5</title>
<path fill="none" stroke="#191970" d="M283.7455,-168.2455C275.6352,-160.1352 263.9075,-148.4075 254.2919,-138.7919"/>
<polygon fill="#191970" stroke="#191970" points="256.6887,-136.2389 247.1427,-131.6427 251.7389,-141.1887 256.6887,-136.2389"/>
</g>
<!-- Node6 -->
<g id="node7" class="node">
<title>Node6</title>
<g id="a_node7"><a xlink:href="DynamicSample_8hpp.html" target="_top" xlink:title="DynamicSample.hpp">
<polygon fill="none" stroke="#000000" points="234.5,-56.5 234.5,-75.5 352.5,-75.5 352.5,-56.5 234.5,-56.5"/>
<text text-anchor="middle" x="293.5" y="-63.5" font-family="FreeSans.ttf" font-size="10.00" fill="#000000">DynamicSample.hpp</text>
</a>
</g>
</g>
<!-- Node4&#45;&gt;Node6 -->
<g id="edge12" class="edge">
<title>Node4&#45;&gt;Node6</title>
<path fill="none" stroke="#191970" d="M304.6502,-168.3293C313.5671,-159.8007 325.3921,-146.5 330.5,-132 336.7167,-114.3523 324.5612,-95.9107 312.5533,-83.0221"/>
<polygon fill="#191970" stroke="#191970" points="314.8204,-80.3405 305.2614,-75.7714 309.8846,-85.3043 314.8204,-80.3405"/>
</g>
<!-- Node5&#45;&gt;Node6 -->
<g id="edge6" class="edge">
<title>Node5&#45;&gt;Node6</title>
<path fill="none" stroke="#191970" d="M247.2545,-112.2455C255.3648,-104.1352 267.0925,-92.4075 276.7081,-82.7919"/>
<polygon fill="#191970" stroke="#191970" points="279.2611,-85.1887 283.8573,-75.6427 274.3113,-80.2389 279.2611,-85.1887"/>
</g>
<!-- Node7 -->
<g id="node8" class="node">
<title>Node7</title>
<polygon fill="none" stroke="#bfbfbf" points="30.5,-.5 30.5,-19.5 120.5,-19.5 120.5,-.5 30.5,-.5"/>
<text text-anchor="middle" x="75.5" y="-7.5" font-family="FreeSans.ttf" font-size="10.00" fill="#000000">kdl/frames.hpp</text>
</g>
<!-- Node6&#45;&gt;Node7 -->
<g id="edge7" class="edge">
<title>Node6&#45;&gt;Node7</title>
<path fill="none" stroke="#191970" d="M256.0245,-56.3733C218.9897,-46.8598 162.2318,-32.2797 122.2639,-22.0127"/>
<polygon fill="#191970" stroke="#191970" points="123.0429,-18.5993 112.4865,-19.5011 121.3012,-25.3792 123.0429,-18.5993"/>
</g>
<!-- Node8 -->
<g id="node9" class="node">
<title>Node8</title>
<polygon fill="none" stroke="#bfbfbf" points="138.5,-.5 138.5,-19.5 230.5,-19.5 230.5,-.5 138.5,-.5"/>
<text text-anchor="middle" x="184.5" y="-7.5" font-family="FreeSans.ttf" font-size="10.00" fill="#000000">kdl/jntarray.hpp</text>
</g>
<!-- Node6&#45;&gt;Node8 -->
<g id="edge8" class="edge">
<title>Node6&#45;&gt;Node8</title>
<path fill="none" stroke="#191970" d="M274.5136,-56.2455C257.3208,-47.4125 231.7762,-34.2887 212.2868,-24.2758"/>
<polygon fill="#191970" stroke="#191970" points="213.763,-21.0993 203.2688,-19.6427 210.5641,-27.3257 213.763,-21.0993"/>
</g>
<!-- Node9 -->
<g id="node10" class="node">
<title>Node9</title>
<polygon fill="none" stroke="#bfbfbf" points="248.5,-.5 248.5,-19.5 338.5,-19.5 338.5,-.5 248.5,-.5"/>
<text text-anchor="middle" x="293.5" y="-7.5" font-family="FreeSans.ttf" font-size="10.00" fill="#000000">kdl/kinfam.hpp</text>
</g>
<!-- Node6&#45;&gt;Node9 -->
<g id="edge9" class="edge">
<title>Node6&#45;&gt;Node9</title>
<path fill="none" stroke="#191970" d="M293.5,-56.2455C293.5,-48.9382 293.5,-38.6944 293.5,-29.7046"/>
<polygon fill="#191970" stroke="#191970" points="297.0001,-29.6426 293.5,-19.6427 290.0001,-29.6427 297.0001,-29.6426"/>
</g>
<!-- Node10 -->
<g id="node11" class="node">
<title>Node10</title>
<polygon fill="none" stroke="#bfbfbf" points="357,-.5 357,-19.5 426,-19.5 426,-.5 357,-.5"/>
<text text-anchor="middle" x="391.5" y="-7.5" font-family="FreeSans.ttf" font-size="10.00" fill="#000000">Eigen/Core</text>
</g>
<!-- Node6&#45;&gt;Node10 -->
<g id="edge10" class="edge">
<title>Node6&#45;&gt;Node10</title>
<path fill="none" stroke="#191970" d="M310.5703,-56.2455C325.747,-47.5731 348.1621,-34.7645 365.5563,-24.825"/>
<polygon fill="#191970" stroke="#191970" points="367.6794,-27.643 374.6253,-19.6427 364.2064,-21.5653 367.6794,-27.643"/>
</g>
<!-- Node11 -->
<g id="node12" class="node">
<title>Node11</title>
<polygon fill="none" stroke="#bfbfbf" points="444,-.5 444,-19.5 491,-19.5 491,-.5 444,-.5"/>
<text text-anchor="middle" x="467.5" y="-7.5" font-family="FreeSans.ttf" font-size="10.00" fill="#000000">vector</text>
</g>
<!-- Node6&#45;&gt;Node11 -->
<g id="edge11" class="edge">
<title>Node6&#45;&gt;Node11</title>
<path fill="none" stroke="#191970" d="M323.4117,-56.3733C354.1864,-46.4687 402.0242,-31.0727 434.0383,-20.7693"/>
<polygon fill="#191970" stroke="#191970" points="435.3879,-24.0118 443.8348,-17.6164 433.2433,-17.3484 435.3879,-24.0118"/>
</g>
</g>
</svg>
