<?xml version="1.0" encoding="UTF-8" standalone="no"?>
<!DOCTYPE svg PUBLIC "-//W3C//DTD SVG 1.1//EN"
 "http://www.w3.org/Graphics/SVG/1.1/DTD/svg11.dtd">
<!-- Generated by graphviz version 2.40.1 (20161225.0304)
 -->
<!-- Title: DynamicDatasetFile.hpp Pages: 1 -->
<svg width="346pt" height="84pt"
 viewBox="0.00 0.00 345.50 84.00" xmlns="http://www.w3.org/2000/svg" xmlns:xlink="http://www.w3.org/1999/xlink">
<g id="graph0" class="graph" transform="scale(1 1) rotate(0) translate(4 80)">
<title>DynamicDatasetFile.hpp</title>
<!-- Node8 -->
<g id="node1" class="node">
<title>Node8</title>
<polygon fill="#bfbfbf" stroke="#000000" points="88.5,-56.5 88.5,-75.5 224.5,-75.5 224.5,-56.5 88.5,-56.5"/>
<text text-anchor="middle" x="156.5" y="-63.5" font-family="FreeSans.ttf" font-size="10.00" fill="#000000">DynamicDatasetFile.hpp</text>
</g>
<!-- Node9 -->
<g id="node2" class="node">
<title>Node9</title>
<g id="a_node2"><a xlink:href="DynamicDatasetFile_8cpp.html" target="_top" xlink:title="DynamicDatasetFile.cpp">
<polygon fill="none" stroke="#000000" points="0,-.5 0,-19.5 135,-19.5 135,-.5 0,-.5"/>
<text text-anchor="middle" x="67.5" y="-7.5" font-family="FreeSans.ttf" font-size="10.00" fill="#000000">DynamicDatasetFile.cpp</text>
</a>
</g>
</g>
<!-- Node8&#45;&gt;Node9 -->
<g id="edge1" class="edge">
<title>Node8&#45;&gt;Node9</title>
<path fill="none" stroke="#191970" d="M132.2936,-50.769C116.5225,-40.8456 96.424,-28.1994 82.825,-19.6427"/>
<polygon fill="#191970" stroke="#191970" points="130.6695,-53.8823 140.9974,-56.2455 134.3974,-47.9575 130.6695,-53.8823"/>
</g>
<!-- Node10 -->
<g id="node3" class="node">
<title>Node10</title>
<g id="a_node3"><a xlink:href="DynamicDatasetFileCollection_8cpp.html" target="_top" xlink:title="DynamicDatasetFileCollection.cpp">
<polygon fill="none" stroke="#000000" points="153.5,-.5 153.5,-19.5 337.5,-19.5 337.5,-.5 153.5,-.5"/>
<text text-anchor="middle" x="245.5" y="-7.5" font-family="FreeSans.ttf" font-size="10.00" fill="#000000">DynamicDatasetFileCollection.cpp</text>
</a>
</g>
</g>
<!-- Node8&#45;&gt;Node10 -->
<g id="edge2" class="edge">
<title>Node8&#45;&gt;Node10</title>
<path fill="none" stroke="#191970" d="M180.7064,-50.769C196.4775,-40.8456 216.576,-28.1994 230.175,-19.6427"/>
<polygon fill="#191970" stroke="#191970" points="178.6026,-47.9575 172.0026,-56.2455 182.3305,-53.8823 178.6026,-47.9575"/>
</g>
</g>
</svg>
