<?xml version="1.0" encoding="UTF-8" standalone="no"?>
<!DOCTYPE svg PUBLIC "-//W3C//DTD SVG 1.1//EN"
 "http://www.w3.org/Graphics/SVG/1.1/DTD/svg11.dtd">
<!-- Generated by graphviz version 2.40.1 (20161225.0304)
 -->
<!-- Title: EigenHelpers.h Pages: 1 -->
<svg width="6823pt" height="151pt"
 viewBox="0.00 0.00 6823.00 151.00" xmlns="http://www.w3.org/2000/svg" xmlns:xlink="http://www.w3.org/1999/xlink">
<g id="graph0" class="graph" transform="scale(1 1) rotate(0) translate(4 147)">
<title>EigenHelpers.h</title>
<!-- Node42 -->
<g id="node1" class="node">
<title>Node42</title>
<polygon fill="#bfbfbf" stroke="#000000" points="3617,-123.5 3617,-142.5 3707,-142.5 3707,-123.5 3617,-123.5"/>
<text text-anchor="middle" x="3662" y="-130.5" font-family="FreeSans.ttf" font-size="10.00" fill="#000000">EigenHelpers.h</text>
</g>
<!-- Node43 -->
<g id="node2" class="node">
<title>Node43</title>
<g id="a_node2"><a xlink:href="PrivateUtils_8h.html" target="_top" xlink:title="PrivateUtils.h">
<polygon fill="none" stroke="#ff0000" points="335.5,-62 335.5,-81 418.5,-81 418.5,-62 335.5,-62"/>
<text text-anchor="middle" x="377" y="-69" font-family="FreeSans.ttf" font-size="10.00" fill="#000000">PrivateUtils.h</text>
</a>
</g>
</g>
<!-- Node42&#45;&gt;Node43 -->
<g id="edge1" class="edge">
<title>Node42&#45;&gt;Node43</title>
<path fill="none" stroke="#191970" d="M3606.6805,-132.5924C3210.8107,-129.6233 815.0153,-110.7672 493,-87 468.2794,-85.1754 440.7757,-81.5697 418.7558,-78.2948"/>
<polygon fill="#191970" stroke="#191970" points="3606.7105,-136.0926 3616.7364,-132.6676 3606.7629,-129.0928 3606.7105,-136.0926"/>
</g>
<!-- Node47 -->
<g id="node6" class="node">
<title>Node47</title>
<g id="a_node6"><a xlink:href="SpatialMotionVector_8cpp.html" target="_top" xlink:title="SpatialMotionVector.cpp">
<polygon fill="none" stroke="#000000" points="500,-.5 500,-19.5 634,-19.5 634,-.5 500,-.5"/>
<text text-anchor="middle" x="567" y="-7.5" font-family="FreeSans.ttf" font-size="10.00" fill="#000000">SpatialMotionVector.cpp</text>
</a>
</g>
</g>
<!-- Node42&#45;&gt;Node47 -->
<g id="edge14" class="edge">
<title>Node42&#45;&gt;Node47</title>
<path fill="none" stroke="#191970" d="M3606.5989,-132.7175C3189.246,-130.5267 554.1527,-115.5687 526,-87 506.2276,-66.9354 536.8306,-35.3794 555.0449,-19.6224"/>
<polygon fill="#191970" stroke="#191970" points="3606.8744,-136.2189 3616.8926,-132.7713 3606.9111,-129.219 3606.8744,-136.2189"/>
</g>
<!-- Node51 -->
<g id="node8" class="node">
<title>Node51</title>
<g id="a_node8"><a xlink:href="ArticulatedBodyInertia_8cpp.html" target="_top" xlink:title="ArticulatedBodyInertia.cpp">
<polygon fill="none" stroke="#000000" points="535,-62 535,-81 681,-81 681,-62 535,-62"/>
<text text-anchor="middle" x="608" y="-69" font-family="FreeSans.ttf" font-size="10.00" fill="#000000">ArticulatedBodyInertia.cpp</text>
</a>
</g>
</g>
<!-- Node42&#45;&gt;Node51 -->
<g id="edge7" class="edge">
<title>Node42&#45;&gt;Node51</title>
<path fill="none" stroke="#191970" d="M3606.5617,-132.7145C3224.6864,-130.6723 990.3322,-117.4821 690,-87 677.1714,-85.698 663.3518,-83.4278 650.7807,-81.0201"/>
<polygon fill="#191970" stroke="#191970" points="3606.7806,-136.2156 3616.7991,-132.7689 3606.8179,-129.2157 3606.7806,-136.2156"/>
</g>
<!-- Node52 -->
<g id="node9" class="node">
<title>Node52</title>
<g id="a_node9"><a xlink:href="CubicSpline_8cpp.html" target="_top" xlink:title="CubicSpline.cpp">
<polygon fill="none" stroke="#000000" points="699,-62 699,-81 793,-81 793,-62 699,-62"/>
<text text-anchor="middle" x="746" y="-69" font-family="FreeSans.ttf" font-size="10.00" fill="#000000">CubicSpline.cpp</text>
</a>
</g>
</g>
<!-- Node42&#45;&gt;Node52 -->
<g id="edge8" class="edge">
<title>Node42&#45;&gt;Node52</title>
<path fill="none" stroke="#191970" d="M3606.5988,-132.9393C3233.1944,-132.4206 1089.9992,-127.6783 803,-87 793.9632,-85.7192 784.3205,-83.4555 775.5854,-81.0472"/>
<polygon fill="#191970" stroke="#191970" points="3606.8688,-136.4396 3616.8735,-132.9531 3606.8783,-129.4396 3606.8688,-136.4396"/>
</g>
<!-- Node53 -->
<g id="node10" class="node">
<title>Node53</title>
<g id="a_node10"><a xlink:href="Direction_8cpp.html" target="_top" xlink:title="Direction.cpp">
<polygon fill="none" stroke="#000000" points="811.5,-62 811.5,-81 892.5,-81 892.5,-62 811.5,-62"/>
<text text-anchor="middle" x="852" y="-69" font-family="FreeSans.ttf" font-size="10.00" fill="#000000">Direction.cpp</text>
</a>
</g>
</g>
<!-- Node42&#45;&gt;Node53 -->
<g id="edge9" class="edge">
<title>Node42&#45;&gt;Node53</title>
<path fill="none" stroke="#191970" d="M3606.8044,-132.5244C3229.4104,-129.2175 1040.3402,-109.1316 902,-87 894.0132,-85.7223 885.5364,-83.4596 877.8758,-81.0512"/>
<polygon fill="#191970" stroke="#191970" points="3606.8964,-136.0253 3616.9266,-132.6129 3606.9577,-129.0255 3606.8964,-136.0253"/>
</g>
<!-- Node54 -->
<g id="node11" class="node">
<title>Node54</title>
<g id="a_node11"><a xlink:href="InertiaNonLinearParametrization_8cpp.html" target="_top" xlink:title="InertiaNonLinearParametrization.cpp">
<polygon fill="none" stroke="#000000" points="910.5,-62 910.5,-81 1105.5,-81 1105.5,-62 910.5,-62"/>
<text text-anchor="middle" x="1008" y="-69" font-family="FreeSans.ttf" font-size="10.00" fill="#000000">InertiaNonLinearParametrization.cpp</text>
</a>
</g>
</g>
<!-- Node42&#45;&gt;Node54 -->
<g id="edge10" class="edge">
<title>Node42&#45;&gt;Node54</title>
<path fill="none" stroke="#191970" d="M3606.8525,-132.9493C3282.8084,-132.5086 1623.3008,-128.2416 1115,-87 1098.5363,-85.6642 1080.7478,-83.4152 1064.4907,-81.0387"/>
<polygon fill="#191970" stroke="#191970" points="3606.9286,-136.4493 3616.9332,-132.9624 3606.9377,-129.4493 3606.9286,-136.4493"/>
</g>
<!-- Node55 -->
<g id="node12" class="node">
<title>Node55</title>
<g id="a_node12"><a xlink:href="Rotation_8cpp.html" target="_top" xlink:title="Rotation.cpp">
<polygon fill="none" stroke="#000000" points="1123.5,-62 1123.5,-81 1200.5,-81 1200.5,-62 1123.5,-62"/>
<text text-anchor="middle" x="1162" y="-69" font-family="FreeSans.ttf" font-size="10.00" fill="#000000">Rotation.cpp</text>
</a>
</g>
</g>
<!-- Node42&#45;&gt;Node55 -->
<g id="edge11" class="edge">
<title>Node42&#45;&gt;Node55</title>
<path fill="none" stroke="#191970" d="M3606.8714,-132.9345C3266.124,-132.4011 1453.3453,-127.6585 1210,-87 1202.3992,-85.73 1194.352,-83.5016 1187.0636,-81.1238"/>
<polygon fill="#191970" stroke="#191970" points="3606.9793,-136.4346 3616.9846,-132.9497 3606.9899,-129.4346 3606.9793,-136.4346"/>
</g>
<!-- Node56 -->
<g id="node13" class="node">
<title>Node56</title>
<g id="a_node13"><a xlink:href="SpatialForceVector_8cpp.html" target="_top" xlink:title="SpatialForceVector.cpp">
<polygon fill="none" stroke="#000000" points="1218.5,-62 1218.5,-81 1345.5,-81 1345.5,-62 1218.5,-62"/>
<text text-anchor="middle" x="1282" y="-69" font-family="FreeSans.ttf" font-size="10.00" fill="#000000">SpatialForceVector.cpp</text>
</a>
</g>
</g>
<!-- Node42&#45;&gt;Node56 -->
<g id="edge12" class="edge">
<title>Node42&#45;&gt;Node56</title>
<path fill="none" stroke="#191970" d="M3606.3044,-132.5213C3276.3697,-129.6018 1584.6985,-113.4344 1355,-87 1343.6733,-85.6965 1331.5078,-83.4576 1320.4185,-81.0804"/>
<polygon fill="#191970" stroke="#191970" points="3606.5367,-136.0234 3616.5672,-132.6118 3606.5985,-129.0237 3606.5367,-136.0234"/>
</g>
<!-- Node57 -->
<g id="node14" class="node">
<title>Node57</title>
<g id="a_node14"><a xlink:href="SpatialInertia_8cpp.html" target="_top" xlink:title="SpatialInertia.cpp">
<polygon fill="none" stroke="#000000" points="1364,-62 1364,-81 1466,-81 1466,-62 1364,-62"/>
<text text-anchor="middle" x="1415" y="-69" font-family="FreeSans.ttf" font-size="10.00" fill="#000000">SpatialInertia.cpp</text>
</a>
</g>
</g>
<!-- Node42&#45;&gt;Node57 -->
<g id="edge13" class="edge">
<title>Node42&#45;&gt;Node57</title>
<path fill="none" stroke="#191970" d="M3606.1965,-132.586C3286.3349,-130.1114 1692.4127,-116.3804 1476,-87 1466.3635,-85.6917 1456.0547,-83.4197 1446.7056,-81.0122"/>
<polygon fill="#191970" stroke="#191970" points="3606.5719,-136.0888 3616.5985,-132.6659 3606.6258,-129.0891 3606.5719,-136.0888"/>
</g>
<!-- Node58 -->
<g id="node15" class="node">
<title>Node58</title>
<g id="a_node15"><a xlink:href="TransformDerivative_8cpp.html" target="_top" xlink:title="TransformDerivative.cpp">
<polygon fill="none" stroke="#000000" points="1484.5,-62 1484.5,-81 1621.5,-81 1621.5,-62 1484.5,-62"/>
<text text-anchor="middle" x="1553" y="-69" font-family="FreeSans.ttf" font-size="10.00" fill="#000000">TransformDerivative.cpp</text>
</a>
</g>
</g>
<!-- Node42&#45;&gt;Node58 -->
<g id="edge15" class="edge">
<title>Node42&#45;&gt;Node58</title>
<path fill="none" stroke="#191970" d="M3606.32,-132.3165C3300.5365,-128.4857 1831.8487,-109.0617 1631,-87 1618.923,-85.6734 1605.9321,-83.4273 1594.0827,-81.0506"/>
<polygon fill="#191970" stroke="#191970" points="3606.6601,-135.8209 3616.7031,-132.4462 3606.7476,-128.8215 3606.6601,-135.8209"/>
</g>
<!-- Node59 -->
<g id="node16" class="node">
<title>Node59</title>
<g id="a_node16"><a xlink:href="GravityCompensationHelpers_8h.html" target="_top" xlink:title="GravityCompensationHelpers.h">
<polygon fill="none" stroke="#ff0000" points="1640,-62 1640,-81 1810,-81 1810,-62 1640,-62"/>
<text text-anchor="middle" x="1725" y="-69" font-family="FreeSans.ttf" font-size="10.00" fill="#000000">GravityCompensationHelpers.h</text>
</a>
</g>
</g>
<!-- Node42&#45;&gt;Node59 -->
<g id="edge16" class="edge">
<title>Node42&#45;&gt;Node59</title>
<path fill="none" stroke="#191970" d="M3606.3626,-132.6375C3338.4682,-130.7351 2179.6766,-120.6738 1820,-87 1805.5246,-85.6448 1789.9161,-83.4205 1775.6163,-81.0744"/>
<polygon fill="#191970" stroke="#191970" points="3606.5942,-136.1391 3616.6186,-132.7094 3606.6434,-129.1393 3606.5942,-136.1391"/>
</g>
<!-- Node61 -->
<g id="node17" class="node">
<title>Node61</title>
<g id="a_node17"><a xlink:href="BerdyHelper_8cpp.html" target="_top" xlink:title="BerdyHelper.cpp">
<polygon fill="none" stroke="#000000" points="1828.5,-62 1828.5,-81 1925.5,-81 1925.5,-62 1828.5,-62"/>
<text text-anchor="middle" x="1877" y="-69" font-family="FreeSans.ttf" font-size="10.00" fill="#000000">BerdyHelper.cpp</text>
</a>
</g>
</g>
<!-- Node42&#45;&gt;Node61 -->
<g id="edge17" class="edge">
<title>Node42&#45;&gt;Node61</title>
<path fill="none" stroke="#191970" d="M3606.4106,-132.2945C3329.2507,-128.6726 2103.3292,-111.3884 1935,-87 1925.9227,-85.6848 1916.2325,-83.4423 1907.4234,-81.0654"/>
<polygon fill="#191970" stroke="#191970" points="3606.5826,-135.7969 3616.6273,-132.4274 3606.6737,-128.7975 3606.5826,-135.7969"/>
</g>
<!-- Node62 -->
<g id="node18" class="node">
<title>Node62</title>
<g id="a_node18"><a xlink:href="BerdySparseMAPSolver_8cpp.html" target="_top" xlink:title="BerdySparseMAPSolver.cpp">
<polygon fill="none" stroke="#000000" points="1943.5,-62 1943.5,-81 2092.5,-81 2092.5,-62 1943.5,-62"/>
<text text-anchor="middle" x="2018" y="-69" font-family="FreeSans.ttf" font-size="10.00" fill="#000000">BerdySparseMAPSolver.cpp</text>
</a>
</g>
</g>
<!-- Node42&#45;&gt;Node62 -->
<g id="edge18" class="edge">
<title>Node42&#45;&gt;Node62</title>
<path fill="none" stroke="#191970" d="M3606.4854,-132.5027C3364.7554,-130.162 2402.6609,-118.9823 2102,-87 2089.1707,-85.6353 2075.3598,-83.408 2062.7163,-81.0621"/>
<polygon fill="#191970" stroke="#191970" points="3606.751,-136.0053 3616.7841,-132.6013 3606.8181,-129.0057 3606.751,-136.0053"/>
</g>
<!-- Node63 -->
<g id="node19" class="node">
<title>Node63</title>
<g id="a_node19"><a xlink:href="ExternalWrenchesEstimation_8cpp.html" target="_top" xlink:title="ExternalWrenchesEstimation.cpp">
<polygon fill="none" stroke="#000000" points="2110.5,-62 2110.5,-81 2287.5,-81 2287.5,-62 2110.5,-62"/>
<text text-anchor="middle" x="2199" y="-69" font-family="FreeSans.ttf" font-size="10.00" fill="#000000">ExternalWrenchesEstimation.cpp</text>
</a>
</g>
</g>
<!-- Node42&#45;&gt;Node63 -->
<g id="edge19" class="edge">
<title>Node42&#45;&gt;Node63</title>
<path fill="none" stroke="#191970" d="M3606.623,-132.0589C3384.4023,-128.1391 2556.8391,-112.1331 2296,-87 2281.3164,-85.5852 2265.4812,-83.3568 2250.949,-81.0262"/>
<polygon fill="#191970" stroke="#191970" points="3606.6828,-135.5603 3616.7427,-132.2364 3606.8057,-128.5614 3606.6828,-135.5603"/>
</g>
<!-- Node64 -->
<g id="node20" class="node">
<title>Node64</title>
<g id="a_node20"><a xlink:href="ExtWrenchesAndJointTorquesEstimator_8cpp.html" target="_top" xlink:title="ExtWrenchesAndJointTorques\lEstimator.cpp">
<polygon fill="none" stroke="#000000" points="2305,-56.5 2305,-86.5 2463,-86.5 2463,-56.5 2305,-56.5"/>
<text text-anchor="start" x="2313" y="-74.5" font-family="FreeSans.ttf" font-size="10.00" fill="#000000">ExtWrenchesAndJointTorques</text>
<text text-anchor="middle" x="2384" y="-63.5" font-family="FreeSans.ttf" font-size="10.00" fill="#000000">Estimator.cpp</text>
</a>
</g>
</g>
<!-- Node42&#45;&gt;Node64 -->
<g id="edge20" class="edge">
<title>Node42&#45;&gt;Node64</title>
<path fill="none" stroke="#191970" d="M3606.5625,-131.8408C3403.0218,-127.4314 2697.1286,-110.7446 2473,-87 2469.7247,-86.653 2466.3879,-86.2586 2463.0216,-85.827"/>
<polygon fill="#191970" stroke="#191970" points="3606.6455,-135.3433 3616.7186,-132.0597 3606.7963,-128.345 3606.6455,-135.3433"/>
</g>
<!-- Node65 -->
<g id="node21" class="node">
<title>Node65</title>
<g id="a_node21"><a xlink:href="SimpleLeggedOdometry_8cpp.html" target="_top" xlink:title="SimpleLeggedOdometry.cpp">
<polygon fill="none" stroke="#000000" points="2481.5,-62 2481.5,-81 2634.5,-81 2634.5,-62 2481.5,-62"/>
<text text-anchor="middle" x="2558" y="-69" font-family="FreeSans.ttf" font-size="10.00" fill="#000000">SimpleLeggedOdometry.cpp</text>
</a>
</g>
</g>
<!-- Node42&#45;&gt;Node65 -->
<g id="edge21" class="edge">
<title>Node42&#45;&gt;Node65</title>
<path fill="none" stroke="#191970" d="M3606.4495,-131.4666C3422.3103,-126.2302 2832.9572,-108.2018 2644,-87 2631.0342,-85.5452 2617.0744,-83.3186 2604.2516,-81.0029"/>
<polygon fill="#191970" stroke="#191970" points="3606.6143,-134.9726 3616.7094,-131.757 3606.8124,-127.9754 3606.6143,-134.9726"/>
</g>
<!-- Node66 -->
<g id="node22" class="node">
<title>Node66</title>
<g id="a_node22"><a xlink:href="KinDynComputations_8cpp.html" target="_top" xlink:title="KinDynComputations.cpp">
<polygon fill="none" stroke="#000000" points="2653,-62 2653,-81 2793,-81 2793,-62 2653,-62"/>
<text text-anchor="middle" x="2723" y="-69" font-family="FreeSans.ttf" font-size="10.00" fill="#000000">KinDynComputations.cpp</text>
</a>
</g>
</g>
<!-- Node42&#45;&gt;Node66 -->
<g id="edge22" class="edge">
<title>Node42&#45;&gt;Node66</title>
<path fill="none" stroke="#191970" d="M3606.4688,-131.0292C3442.052,-125.0351 2959.4651,-106.2538 2803,-87 2791.0649,-85.5313 2778.2359,-83.3292 2766.4224,-81.0425"/>
<polygon fill="#191970" stroke="#191970" points="3606.7113,-134.5402 3616.8317,-131.4054 3606.9653,-127.5448 3606.7113,-134.5402"/>
</g>
<!-- Node67 -->
<g id="node23" class="node">
<title>Node67</title>
<g id="a_node23"><a xlink:href="BoundingBoxHelpers_8cpp.html" target="_top" xlink:title="BoundingBoxHelpers.cpp">
<polygon fill="none" stroke="#000000" points="2811.5,-62 2811.5,-81 2950.5,-81 2950.5,-62 2811.5,-62"/>
<text text-anchor="middle" x="2881" y="-69" font-family="FreeSans.ttf" font-size="10.00" fill="#000000">BoundingBoxHelpers.cpp</text>
</a>
</g>
</g>
<!-- Node42&#45;&gt;Node67 -->
<g id="edge23" class="edge">
<title>Node42&#45;&gt;Node67</title>
<path fill="none" stroke="#191970" d="M3606.3208,-131.7767C3487.2535,-128.6291 3199.2429,-118.1776 2960,-87 2948.358,-85.4828 2935.8504,-83.2925 2924.2987,-81.0341"/>
<polygon fill="#191970" stroke="#191970" points="3606.5472,-135.2836 3616.6339,-132.0421 3606.7273,-128.2859 3606.5472,-135.2836"/>
</g>
<!-- Node68 -->
<g id="node24" class="node">
<title>Node68</title>
<g id="a_node24"><a xlink:href="ConvexHullHelpers_8cpp.html" target="_top" xlink:title="ConvexHullHelpers.cpp">
<polygon fill="none" stroke="#000000" points="2968.5,-62 2968.5,-81 3099.5,-81 3099.5,-62 2968.5,-62"/>
<text text-anchor="middle" x="3034" y="-69" font-family="FreeSans.ttf" font-size="10.00" fill="#000000">ConvexHullHelpers.cpp</text>
</a>
</g>
</g>
<!-- Node42&#45;&gt;Node68 -->
<g id="edge24" class="edge">
<title>Node42&#45;&gt;Node68</title>
<path fill="none" stroke="#191970" d="M3606.8475,-130.6218C3507.0862,-125.8296 3290.1885,-113.161 3109,-87 3098.0776,-85.423 3086.3538,-83.2392 3075.4965,-81.0079"/>
<polygon fill="#191970" stroke="#191970" points="3606.8379,-134.1252 3616.992,-131.1012 3607.1684,-127.133 3606.8379,-134.1252"/>
</g>
<!-- Node69 -->
<g id="node25" class="node">
<title>Node69</title>
<g id="a_node25"><a xlink:href="InverseKinematics_8cpp.html" target="_top" xlink:title="InverseKinematics.cpp">
<polygon fill="none" stroke="#000000" points="3118,-62 3118,-81 3246,-81 3246,-62 3118,-62"/>
<text text-anchor="middle" x="3182" y="-69" font-family="FreeSans.ttf" font-size="10.00" fill="#000000">InverseKinematics.cpp</text>
</a>
</g>
</g>
<!-- Node42&#45;&gt;Node69 -->
<g id="edge25" class="edge">
<title>Node42&#45;&gt;Node69</title>
<path fill="none" stroke="#191970" d="M3606.6246,-128.3824C3528.2636,-121.4722 3380.6678,-107.0737 3256,-87 3245.6327,-85.3307 3234.5184,-83.191 3224.1364,-81.038"/>
<polygon fill="#191970" stroke="#191970" points="3606.4855,-131.8835 3616.7524,-129.2677 3607.0952,-124.91 3606.4855,-131.8835"/>
</g>
<!-- Node70 -->
<g id="node26" class="node">
<title>Node70</title>
<g id="a_node26"><a xlink:href="InverseKinematicsData_8cpp.html" target="_top" xlink:title="InverseKinematicsData.cpp">
<polygon fill="none" stroke="#000000" points="3264.5,-62 3264.5,-81 3415.5,-81 3415.5,-62 3264.5,-62"/>
<text text-anchor="middle" x="3340" y="-69" font-family="FreeSans.ttf" font-size="10.00" fill="#000000">InverseKinematicsData.cpp</text>
</a>
</g>
</g>
<!-- Node42&#45;&gt;Node70 -->
<g id="edge26" class="edge">
<title>Node42&#45;&gt;Node70</title>
<path fill="none" stroke="#191970" d="M3607.062,-122.5072C3546.1147,-110.8666 3448.6365,-92.2489 3389.828,-81.0168"/>
<polygon fill="#191970" stroke="#191970" points="3606.4091,-125.9457 3616.8882,-124.3839 3607.7224,-119.07 3606.4091,-125.9457"/>
</g>
<!-- Node71 -->
<g id="node27" class="node">
<title>Node71</title>
<g id="a_node27"><a xlink:href="InverseKinematicsNLP_8cpp.html" target="_top" xlink:title="InverseKinematicsNLP.cpp">
<polygon fill="none" stroke="#000000" points="3433.5,-62 3433.5,-81 3578.5,-81 3578.5,-62 3433.5,-62"/>
<text text-anchor="middle" x="3506" y="-69" font-family="FreeSans.ttf" font-size="10.00" fill="#000000">InverseKinematicsNLP.cpp</text>
</a>
</g>
</g>
<!-- Node42&#45;&gt;Node71 -->
<g id="edge27" class="edge">
<title>Node42&#45;&gt;Node71</title>
<path fill="none" stroke="#191970" d="M3628.1308,-119.6477C3598.5912,-108.0023 3556.4658,-91.3952 3530.2038,-81.0419"/>
<polygon fill="#191970" stroke="#191970" points="3627.0382,-122.9791 3637.625,-123.3906 3629.6055,-116.4669 3627.0382,-122.9791"/>
</g>
<!-- Node72 -->
<g id="node28" class="node">
<title>Node72</title>
<g id="a_node28"><a xlink:href="DenavitHartenberg_8cpp.html" target="_top" xlink:title="DenavitHartenberg.cpp">
<polygon fill="none" stroke="#000000" points="3597,-62 3597,-81 3727,-81 3727,-62 3597,-62"/>
<text text-anchor="middle" x="3662" y="-69" font-family="FreeSans.ttf" font-size="10.00" fill="#000000">DenavitHartenberg.cpp</text>
</a>
</g>
</g>
<!-- Node42&#45;&gt;Node72 -->
<g id="edge28" class="edge">
<title>Node42&#45;&gt;Node72</title>
<path fill="none" stroke="#191970" d="M3662,-113.2462C3662,-102.5519 3662,-89.814 3662,-81.2449"/>
<polygon fill="#191970" stroke="#191970" points="3658.5001,-113.3906 3662,-123.3906 3665.5001,-113.3907 3658.5001,-113.3906"/>
</g>
<!-- Node73 -->
<g id="node29" class="node">
<title>Node73</title>
<g id="a_node29"><a xlink:href="Dynamics_8cpp.html" target="_top" xlink:title="Dynamics.cpp">
<polygon fill="none" stroke="#000000" points="3745,-62 3745,-81 3831,-81 3831,-62 3745,-62"/>
<text text-anchor="middle" x="3788" y="-69" font-family="FreeSans.ttf" font-size="10.00" fill="#000000">Dynamics.cpp</text>
</a>
</g>
</g>
<!-- Node42&#45;&gt;Node73 -->
<g id="edge29" class="edge">
<title>Node42&#45;&gt;Node73</title>
<path fill="none" stroke="#191970" d="M3690.9261,-118.8813C3714.6881,-107.2832 3747.7003,-91.1701 3768.4507,-81.0419"/>
<polygon fill="#191970" stroke="#191970" points="3689.1389,-115.8589 3681.6875,-123.3906 3692.2094,-122.1496 3689.1389,-115.8589"/>
</g>
<!-- Node74 -->
<g id="node30" class="node">
<title>Node74</title>
<g id="a_node30"><a xlink:href="DynamicsLinearization_8cpp.html" target="_top" xlink:title="DynamicsLinearization.cpp">
<polygon fill="none" stroke="#000000" points="3849.5,-62 3849.5,-81 3998.5,-81 3998.5,-62 3849.5,-62"/>
<text text-anchor="middle" x="3924" y="-69" font-family="FreeSans.ttf" font-size="10.00" fill="#000000">DynamicsLinearization.cpp</text>
</a>
</g>
</g>
<!-- Node42&#45;&gt;Node74 -->
<g id="edge30" class="edge">
<title>Node42&#45;&gt;Node74</title>
<path fill="none" stroke="#191970" d="M3712.5496,-121.1343C3762.2716,-109.463 3837.2264,-91.8686 3883.2546,-81.0643"/>
<polygon fill="#191970" stroke="#191970" points="3711.5856,-117.7654 3702.65,-123.4581 3713.1853,-124.5802 3711.5856,-117.7654"/>
</g>
<!-- Node75 -->
<g id="node31" class="node">
<title>Node75</title>
<g id="a_node31"><a xlink:href="DynamicsLinearizationHelpers_8cpp.html" target="_top" xlink:title="DynamicsLinearizationHelpers.cpp">
<polygon fill="none" stroke="#000000" points="4016,-62 4016,-81 4202,-81 4202,-62 4016,-62"/>
<text text-anchor="middle" x="4109" y="-69" font-family="FreeSans.ttf" font-size="10.00" fill="#000000">DynamicsLinearizationHelpers.cpp</text>
</a>
</g>
</g>
<!-- Node42&#45;&gt;Node75 -->
<g id="edge31" class="edge">
<title>Node42&#45;&gt;Node75</title>
<path fill="none" stroke="#191970" d="M3717.2103,-126.0076C3785.5415,-117.2733 3905.4398,-101.6858 4008,-87 4021.0829,-85.1266 4035.1048,-83.0309 4048.4112,-81.001"/>
<polygon fill="#191970" stroke="#191970" points="3716.5804,-122.5595 3707.104,-127.2975 3717.4667,-129.5032 3716.5804,-122.5595"/>
</g>
<!-- Node76 -->
<g id="node32" class="node">
<title>Node76</title>
<g id="a_node32"><a xlink:href="Jacobians_8cpp.html" target="_top" xlink:title="Jacobians.cpp">
<polygon fill="none" stroke="#000000" points="4220.5,-62 4220.5,-81 4303.5,-81 4303.5,-62 4220.5,-62"/>
<text text-anchor="middle" x="4262" y="-69" font-family="FreeSans.ttf" font-size="10.00" fill="#000000">Jacobians.cpp</text>
</a>
</g>
</g>
<!-- Node42&#45;&gt;Node76 -->
<g id="edge32" class="edge">
<title>Node42&#45;&gt;Node76</title>
<path fill="none" stroke="#191970" d="M3717.2789,-129.8584C3837.0902,-122.8065 4117.4409,-104.9275 4211,-87 4218.7254,-85.5197 4226.9431,-83.3136 4234.4746,-81.0269"/>
<polygon fill="#191970" stroke="#191970" points="3716.999,-126.3687 3707.2206,-130.4472 3717.4081,-133.3568 3716.999,-126.3687"/>
</g>
<!-- Node77 -->
<g id="node33" class="node">
<title>Node77</title>
<g id="a_node33"><a xlink:href="Model_8cpp.html" target="_top" xlink:title="Model.cpp">
<polygon fill="none" stroke="#000000" points="4322,-62 4322,-81 4388,-81 4388,-62 4322,-62"/>
<text text-anchor="middle" x="4355" y="-69" font-family="FreeSans.ttf" font-size="10.00" fill="#000000">Model.cpp</text>
</a>
</g>
</g>
<!-- Node42&#45;&gt;Node77 -->
<g id="edge33" class="edge">
<title>Node42&#45;&gt;Node77</title>
<path fill="none" stroke="#191970" d="M3717.3229,-131.101C3853.0968,-126.1175 4199.9196,-111.3438 4313,-87 4319.5345,-85.5933 4326.4185,-83.3824 4332.6798,-81.0665"/>
<polygon fill="#191970" stroke="#191970" points="3717.0152,-127.6098 3707.1489,-131.4706 3717.2694,-134.6052 3717.0152,-127.6098"/>
</g>
<!-- Node78 -->
<g id="node34" class="node">
<title>Node78</title>
<g id="a_node34"><a xlink:href="ConstraintsGroup_8cpp.html" target="_top" xlink:title="ConstraintsGroup.cpp">
<polygon fill="none" stroke="#000000" points="4406,-62 4406,-81 4528,-81 4528,-62 4406,-62"/>
<text text-anchor="middle" x="4467" y="-69" font-family="FreeSans.ttf" font-size="10.00" fill="#000000">ConstraintsGroup.cpp</text>
</a>
</g>
</g>
<!-- Node42&#45;&gt;Node78 -->
<g id="edge34" class="edge">
<title>Node42&#45;&gt;Node78</title>
<path fill="none" stroke="#191970" d="M3717.7092,-132.4609C3840.8265,-130.6258 4145.1291,-122.5476 4397,-87 4407.4762,-85.5214 4418.7127,-83.3159 4429.0497,-81.0292"/>
<polygon fill="#191970" stroke="#191970" points="3717.3613,-128.9654 3707.4117,-132.606 3717.46,-135.9647 3717.3613,-128.9654"/>
</g>
<!-- Node79 -->
<g id="node35" class="node">
<title>Node79</title>
<g id="a_node35"><a xlink:href="FixedStepIntegrator_8cpp.html" target="_top" xlink:title="FixedStepIntegrator.cpp">
<polygon fill="none" stroke="#000000" points="4546.5,-62 4546.5,-81 4677.5,-81 4677.5,-62 4546.5,-62"/>
<text text-anchor="middle" x="4612" y="-69" font-family="FreeSans.ttf" font-size="10.00" fill="#000000">FixedStepIntegrator.cpp</text>
</a>
</g>
</g>
<!-- Node42&#45;&gt;Node79 -->
<g id="edge35" class="edge">
<title>Node42&#45;&gt;Node79</title>
<path fill="none" stroke="#191970" d="M3717.2083,-131.1925C3883.3933,-125.5785 4377.3075,-107.579 4537,-87 4548.2089,-85.5555 4560.2428,-83.3615 4571.318,-81.0749"/>
<polygon fill="#191970" stroke="#191970" points="3717.0838,-127.6946 3707.2071,-131.5288 3717.3191,-134.6907 3717.0838,-127.6946"/>
</g>
<!-- Node80 -->
<g id="node36" class="node">
<title>Node80</title>
<g id="a_node36"><a xlink:href="ForwardEuler_8cpp.html" target="_top" xlink:title="ForwardEuler.cpp">
<polygon fill="none" stroke="#000000" points="4696,-62 4696,-81 4796,-81 4796,-62 4696,-62"/>
<text text-anchor="middle" x="4746" y="-69" font-family="FreeSans.ttf" font-size="10.00" fill="#000000">ForwardEuler.cpp</text>
</a>
</g>
</g>
<!-- Node42&#45;&gt;Node80 -->
<g id="edge36" class="edge">
<title>Node42&#45;&gt;Node80</title>
<path fill="none" stroke="#191970" d="M3717.0987,-132.0674C3901.7046,-128.7012 4497.4169,-115.8228 4687,-87 4696.1092,-85.6151 4705.8411,-83.3814 4714.7204,-81.0357"/>
<polygon fill="#191970" stroke="#191970" points="3717.0101,-128.5683 3707.0749,-132.2481 3717.1364,-135.5671 3717.0101,-128.5683"/>
</g>
<!-- Node81 -->
<g id="node37" class="node">
<title>Node81</title>
<g id="a_node37"><a xlink:href="ImplicitTrapezoidal_8cpp.html" target="_top" xlink:title="ImplicitTrapezoidal.cpp">
<polygon fill="none" stroke="#000000" points="4814.5,-62 4814.5,-81 4943.5,-81 4943.5,-62 4814.5,-62"/>
<text text-anchor="middle" x="4879" y="-69" font-family="FreeSans.ttf" font-size="10.00" fill="#000000">ImplicitTrapezoidal.cpp</text>
</a>
</g>
</g>
<!-- Node42&#45;&gt;Node81 -->
<g id="edge37" class="edge">
<title>Node42&#45;&gt;Node81</title>
<path fill="none" stroke="#191970" d="M3717.2809,-131.9939C3915.5751,-128.1949 4590.6816,-113.5708 4805,-87 4816.3329,-85.595 4828.5095,-83.3548 4839.6475,-81.0093"/>
<polygon fill="#191970" stroke="#191970" points="3717.0318,-128.4979 3707.1002,-132.1874 3717.1649,-135.4966 3717.0318,-128.4979"/>
</g>
<!-- Node82 -->
<g id="node38" class="node">
<title>Node82</title>
<g id="a_node38"><a xlink:href="Integrator_8cpp.html" target="_top" xlink:title="Integrator.cpp">
<polygon fill="none" stroke="#000000" points="4962,-62 4962,-81 5046,-81 5046,-62 4962,-62"/>
<text text-anchor="middle" x="5004" y="-69" font-family="FreeSans.ttf" font-size="10.00" fill="#000000">Integrator.cpp</text>
</a>
</g>
</g>
<!-- Node42&#45;&gt;Node82 -->
<g id="edge38" class="edge">
<title>Node42&#45;&gt;Node82</title>
<path fill="none" stroke="#191970" d="M3717.4995,-131.871C3948.8499,-127.0495 4830.1773,-107.4938 4953,-87 4961.0325,-85.6597 4969.5691,-83.4093 4977.3139,-81.0329"/>
<polygon fill="#191970" stroke="#191970" points="3717.2233,-128.3759 3707.2981,-132.0829 3717.3687,-135.3744 3717.2233,-128.3759"/>
</g>
<!-- Node83 -->
<g id="node39" class="node">
<title>Node83</title>
<g id="a_node39"><a xlink:href="IpoptInterface_8cpp.html" target="_top" xlink:title="IpoptInterface.cpp">
<polygon fill="none" stroke="#000000" points="5064.5,-62 5064.5,-81 5169.5,-81 5169.5,-62 5064.5,-62"/>
<text text-anchor="middle" x="5117" y="-69" font-family="FreeSans.ttf" font-size="10.00" fill="#000000">IpoptInterface.cpp</text>
</a>
</g>
</g>
<!-- Node42&#45;&gt;Node83 -->
<g id="edge39" class="edge">
<title>Node42&#45;&gt;Node83</title>
<path fill="none" stroke="#191970" d="M3717.4154,-132.7372C3942.6296,-131.427 4789.914,-124.0846 5055,-87 5064.6696,-85.6473 5075.0175,-83.393 5084.4348,-81.0168"/>
<polygon fill="#191970" stroke="#191970" points="3717.1459,-129.2386 3707.1659,-132.7951 3717.1855,-136.2384 3717.1459,-129.2386"/>
</g>
<!-- Node84 -->
<g id="node40" class="node">
<title>Node84</title>
<g id="a_node40"><a xlink:href="LinearConstraint_8cpp.html" target="_top" xlink:title="LinearConstraint.cpp">
<polygon fill="none" stroke="#000000" points="5187.5,-62 5187.5,-81 5304.5,-81 5304.5,-62 5187.5,-62"/>
<text text-anchor="middle" x="5246" y="-69" font-family="FreeSans.ttf" font-size="10.00" fill="#000000">LinearConstraint.cpp</text>
</a>
</g>
</g>
<!-- Node42&#45;&gt;Node84 -->
<g id="edge40" class="edge">
<title>Node42&#45;&gt;Node84</title>
<path fill="none" stroke="#191970" d="M3717.1969,-132.7826C3954.3493,-131.6243 4887.8891,-124.7123 5179,-87 5189.4194,-85.6502 5200.5924,-83.3969 5210.7698,-81.0206"/>
<polygon fill="#191970" stroke="#191970" points="3717.0696,-129.2831 3707.0863,-132.8305 3717.1029,-136.283 3717.0696,-129.2831"/>
</g>
<!-- Node85 -->
<g id="node41" class="node">
<title>Node85</title>
<g id="a_node41"><a xlink:href="LinearSystem_8cpp.html" target="_top" xlink:title="LinearSystem.cpp">
<polygon fill="none" stroke="#000000" points="5323,-62 5323,-81 5427,-81 5427,-62 5323,-62"/>
<text text-anchor="middle" x="5375" y="-69" font-family="FreeSans.ttf" font-size="10.00" fill="#000000">LinearSystem.cpp</text>
</a>
</g>
</g>
<!-- Node42&#45;&gt;Node85 -->
<g id="edge41" class="edge">
<title>Node42&#45;&gt;Node85</title>
<path fill="none" stroke="#191970" d="M3717.3128,-132.1862C3986.5224,-128.1274 5153.2789,-109.3763 5314,-87 5323.5237,-85.6741 5333.7079,-83.4282 5342.9731,-81.0515"/>
<polygon fill="#191970" stroke="#191970" points="3716.9545,-128.6911 3707.0082,-132.3409 3717.0597,-135.6903 3716.9545,-128.6911"/>
</g>
<!-- Node86 -->
<g id="node42" class="node">
<title>Node86</title>
<g id="a_node42"><a xlink:href="MultipleShootingSolver_8cpp.html" target="_top" xlink:title="MultipleShootingSolver.cpp">
<polygon fill="none" stroke="#000000" points="5445.5,-62 5445.5,-81 5594.5,-81 5594.5,-62 5445.5,-62"/>
<text text-anchor="middle" x="5520" y="-69" font-family="FreeSans.ttf" font-size="10.00" fill="#000000">MultipleShootingSolver.cpp</text>
</a>
</g>
</g>
<!-- Node42&#45;&gt;Node86 -->
<g id="edge42" class="edge">
<title>Node42&#45;&gt;Node86</title>
<path fill="none" stroke="#191970" d="M3717.3022,-132.7327C3978.5475,-131.2912 5090.721,-123.1081 5436,-87 5448.9792,-85.6427 5462.961,-83.387 5475.7224,-81.0109"/>
<polygon fill="#191970" stroke="#191970" points="3717.2721,-129.2327 3707.2912,-132.7869 3717.31,-136.2326 3717.2721,-129.2327"/>
</g>
<!-- Node87 -->
<g id="node43" class="node">
<title>Node87</title>
<g id="a_node43"><a xlink:href="OptimalControlProblem_8cpp.html" target="_top" xlink:title="OptimalControlProblem.cpp">
<polygon fill="none" stroke="#000000" points="5613,-62 5613,-81 5765,-81 5765,-62 5613,-62"/>
<text text-anchor="middle" x="5689" y="-69" font-family="FreeSans.ttf" font-size="10.00" fill="#000000">OptimalControlProblem.cpp</text>
</a>
</g>
</g>
<!-- Node42&#45;&gt;Node87 -->
<g id="edge43" class="edge">
<title>Node42&#45;&gt;Node87</title>
<path fill="none" stroke="#191970" d="M3717.5141,-132.8604C3993.941,-131.9857 5223.7015,-125.9358 5604,-87 5617.1316,-85.6556 5631.2792,-83.4039 5644.1926,-81.0275"/>
<polygon fill="#191970" stroke="#191970" points="3717.3166,-129.3609 3707.3274,-132.8916 3717.3381,-136.3608 3717.3166,-129.3609"/>
</g>
<!-- Node88 -->
<g id="node44" class="node">
<title>Node88</title>
<g id="a_node44"><a xlink:href="QuadraticCost_8cpp.html" target="_top" xlink:title="QuadraticCost.cpp">
<polygon fill="none" stroke="#000000" points="5783,-62 5783,-81 5889,-81 5889,-62 5783,-62"/>
<text text-anchor="middle" x="5836" y="-69" font-family="FreeSans.ttf" font-size="10.00" fill="#000000">QuadraticCost.cpp</text>
</a>
</g>
</g>
<!-- Node42&#45;&gt;Node88 -->
<g id="edge44" class="edge">
<title>Node42&#45;&gt;Node88</title>
<path fill="none" stroke="#191970" d="M3717.4162,-132.5324C4029.8973,-129.797 5565.2029,-115.0152 5774,-87 5783.787,-85.6868 5794.2626,-83.4133 5803.7651,-81.0059"/>
<polygon fill="#191970" stroke="#191970" points="3717.2148,-129.0339 3707.2457,-132.6209 3717.2758,-136.0336 3717.2148,-129.0339"/>
</g>
<!-- Node89 -->
<g id="node45" class="node">
<title>Node89</title>
<g id="a_node45"><a xlink:href="RK4_8cpp.html" target="_top" xlink:title="RK4.cpp">
<polygon fill="none" stroke="#000000" points="5907,-62 5907,-81 5963,-81 5963,-62 5907,-62"/>
<text text-anchor="middle" x="5935" y="-69" font-family="FreeSans.ttf" font-size="10.00" fill="#000000">RK4.cpp</text>
</a>
</g>
</g>
<!-- Node42&#45;&gt;Node89 -->
<g id="edge45" class="edge">
<title>Node42&#45;&gt;Node89</title>
<path fill="none" stroke="#191970" d="M3717.627,-132.4446C4052.3854,-129.0287 5788.203,-110.2462 5898,-87 5903.9958,-85.7306 5910.2416,-83.5023 5915.857,-81.1245"/>
<polygon fill="#191970" stroke="#191970" points="3717.1851,-128.9489 3707.2212,-132.5505 3717.2563,-135.9485 3717.1851,-128.9489"/>
</g>
<!-- Node90 -->
<g id="node46" class="node">
<title>Node90</title>
<g id="a_node46"><a xlink:href="PredictSensorsMeasurements_8cpp.html" target="_top" xlink:title="PredictSensorsMeasurements.cpp">
<polygon fill="none" stroke="#000000" points="5981.5,-62 5981.5,-81 6162.5,-81 6162.5,-62 5981.5,-62"/>
<text text-anchor="middle" x="6072" y="-69" font-family="FreeSans.ttf" font-size="10.00" fill="#000000">PredictSensorsMeasurements.cpp</text>
</a>
</g>
</g>
<!-- Node42&#45;&gt;Node90 -->
<g id="edge46" class="edge">
<title>Node42&#45;&gt;Node90</title>
<path fill="none" stroke="#191970" d="M3717.7617,-132.9036C4025.0057,-132.2188 5514.132,-126.8631 5972,-87 5987.402,-85.6591 6004.0315,-83.4085 6019.2246,-81.0321"/>
<polygon fill="#191970" stroke="#191970" points="3717.3267,-129.4045 3707.3343,-132.9261 3717.3419,-136.4045 3717.3267,-129.4045"/>
</g>
<!-- Node91 -->
<g id="node47" class="node">
<title>Node91</title>
<g id="a_node47"><a xlink:href="SixAxisForceTorqueSensor_8cpp.html" target="_top" xlink:title="SixAxisForceTorqueSensor.cpp">
<polygon fill="none" stroke="#000000" points="6181,-62 6181,-81 6345,-81 6345,-62 6181,-62"/>
<text text-anchor="middle" x="6263" y="-69" font-family="FreeSans.ttf" font-size="10.00" fill="#000000">SixAxisForceTorqueSensor.cpp</text>
</a>
</g>
</g>
<!-- Node42&#45;&gt;Node91 -->
<g id="edge47" class="edge">
<title>Node42&#45;&gt;Node91</title>
<path fill="none" stroke="#191970" d="M3717.2589,-132.4867C4062.8364,-129.2107 5920.2826,-110.6089 6172,-87 6186.0414,-85.683 6201.1822,-83.4399 6215.0075,-81.0631"/>
<polygon fill="#191970" stroke="#191970" points="3716.975,-128.9892 3707.0085,-132.5836 3717.0412,-135.9889 3716.975,-128.9892"/>
</g>
<!-- Node92 -->
<g id="node48" class="node">
<title>Node92</title>
<g id="a_node48"><a xlink:href="ThreeAxisAngularAccelerometerSensor_8cpp.html" target="_top" xlink:title="ThreeAxisAngularAccelerometer\lSensor.cpp">
<polygon fill="none" stroke="#000000" points="6363,-56.5 6363,-86.5 6537,-86.5 6537,-56.5 6363,-56.5"/>
<text text-anchor="start" x="6371" y="-74.5" font-family="FreeSans.ttf" font-size="10.00" fill="#000000">ThreeAxisAngularAccelerometer</text>
<text text-anchor="middle" x="6450" y="-63.5" font-family="FreeSans.ttf" font-size="10.00" fill="#000000">Sensor.cpp</text>
</a>
</g>
</g>
<!-- Node42&#45;&gt;Node92 -->
<g id="edge48" class="edge">
<title>Node42&#45;&gt;Node92</title>
<path fill="none" stroke="#191970" d="M3717.222,-132.5317C4077.1384,-129.4166 6082.9171,-111.0759 6354,-87 6356.9429,-86.7386 6359.932,-86.4406 6362.9473,-86.112"/>
<polygon fill="#191970" stroke="#191970" points="3717.0265,-129.0332 3707.0571,-132.6194 3717.0869,-136.0329 3717.0265,-129.0332"/>
</g>
<!-- Node93 -->
<g id="node49" class="node">
<title>Node93</title>
<g id="a_node49"><a xlink:href="ThreeAxisForceTorqueContactSensor_8cpp.html" target="_top" xlink:title="ThreeAxisForceTorqueContact\lSensor.cpp">
<polygon fill="none" stroke="#000000" points="6555.5,-56.5 6555.5,-86.5 6716.5,-86.5 6716.5,-56.5 6555.5,-56.5"/>
<text text-anchor="start" x="6563.5" y="-74.5" font-family="FreeSans.ttf" font-size="10.00" fill="#000000">ThreeAxisForceTorqueContact</text>
<text text-anchor="middle" x="6636" y="-63.5" font-family="FreeSans.ttf" font-size="10.00" fill="#000000">Sensor.cpp</text>
</a>
</g>
</g>
<!-- Node42&#45;&gt;Node93 -->
<g id="edge49" class="edge">
<title>Node42&#45;&gt;Node93</title>
<path fill="none" stroke="#191970" d="M3717.272,-132.6334C4092.0596,-130.0793 6254.7197,-114.2406 6546,-87 6548.9994,-86.7195 6552.0493,-86.3953 6555.1257,-86.0353"/>
<polygon fill="#191970" stroke="#191970" points="3717.1925,-129.1337 3707.2165,-132.7016 3717.2401,-136.1336 3717.1925,-129.1337"/>
</g>
<!-- Node94 -->
<g id="node50" class="node">
<title>Node94</title>
<g id="a_node50"><a xlink:href="IrrlichtUtils_8h.html" target="_top" xlink:title="IrrlichtUtils.h">
<polygon fill="none" stroke="#ff0000" points="6735,-62 6735,-81 6815,-81 6815,-62 6735,-62"/>
<text text-anchor="middle" x="6775" y="-69" font-family="FreeSans.ttf" font-size="10.00" fill="#000000">IrrlichtUtils.h</text>
</a>
</g>
</g>
<!-- Node42&#45;&gt;Node94 -->
<g id="edge50" class="edge">
<title>Node42&#45;&gt;Node94</title>
<path fill="none" stroke="#191970" d="M3717.4653,-132.6262C4119.2003,-129.8617 6571.7508,-112.0018 6726,-87 6733.8386,-85.7295 6742.1494,-83.4689 6749.6565,-81.0603"/>
<polygon fill="#191970" stroke="#191970" points="3717.2412,-129.1275 3707.2655,-132.6962 3717.2893,-136.1274 3717.2412,-129.1275"/>
</g>
<!-- Node44 -->
<g id="node3" class="node">
<title>Node44</title>
<g id="a_node3"><a xlink:href="PrivateUtils_8cpp.html" target="_top" xlink:title="PrivateUtils.cpp">
<polygon fill="none" stroke="#000000" points="0,-.5 0,-19.5 94,-19.5 94,-.5 0,-.5"/>
<text text-anchor="middle" x="47" y="-7.5" font-family="FreeSans.ttf" font-size="10.00" fill="#000000">PrivateUtils.cpp</text>
</a>
</g>
</g>
<!-- Node43&#45;&gt;Node44 -->
<g id="edge2" class="edge">
<title>Node43&#45;&gt;Node44</title>
<path fill="none" stroke="#191970" d="M325.0215,-61.8131C261.5628,-49.9867 155.1659,-30.1582 94.0385,-18.7663"/>
<polygon fill="#191970" stroke="#191970" points="324.7333,-65.3196 335.2053,-63.711 326.0158,-58.4381 324.7333,-65.3196"/>
</g>
<!-- Node45 -->
<g id="node4" class="node">
<title>Node45</title>
<g id="a_node4"><a xlink:href="SpatialInertiaRaw_8cpp.html" target="_top" xlink:title="SpatialInertiaRaw.cpp">
<polygon fill="none" stroke="#000000" points="112,-.5 112,-19.5 234,-19.5 234,-.5 112,-.5"/>
<text text-anchor="middle" x="173" y="-7.5" font-family="FreeSans.ttf" font-size="10.00" fill="#000000">SpatialInertiaRaw.cpp</text>
</a>
</g>
</g>
<!-- Node43&#45;&gt;Node45 -->
<g id="edge3" class="edge">
<title>Node43&#45;&gt;Node45</title>
<path fill="none" stroke="#191970" d="M335.2051,-58.9001C296.4856,-47.2273 239.7403,-30.1202 204.6512,-19.5419"/>
<polygon fill="#191970" stroke="#191970" points="334.5404,-62.3552 345.125,-61.8906 336.5609,-55.6531 334.5404,-62.3552"/>
</g>
<!-- Node46 -->
<g id="node5" class="node">
<title>Node46</title>
<g id="a_node5"><a xlink:href="SpatialMomentum_8cpp.html" target="_top" xlink:title="SpatialMomentum.cpp">
<polygon fill="none" stroke="#000000" points="252,-.5 252,-19.5 378,-19.5 378,-.5 252,-.5"/>
<text text-anchor="middle" x="315" y="-7.5" font-family="FreeSans.ttf" font-size="10.00" fill="#000000">SpatialMomentum.cpp</text>
</a>
</g>
</g>
<!-- Node43&#45;&gt;Node46 -->
<g id="edge4" class="edge">
<title>Node43&#45;&gt;Node46</title>
<path fill="none" stroke="#191970" d="M360.089,-54.7253C348.7752,-43.5028 334.2813,-29.1258 324.8241,-19.7449"/>
<polygon fill="#191970" stroke="#191970" points="357.748,-57.3331 367.3125,-61.8906 362.6777,-52.3633 357.748,-57.3331"/>
</g>
<!-- Node43&#45;&gt;Node47 -->
<g id="edge5" class="edge">
<title>Node43&#45;&gt;Node47</title>
<path fill="none" stroke="#191970" d="M416.3879,-58.7507C452.4383,-47.0818 504.979,-30.0752 537.521,-19.5419"/>
<polygon fill="#191970" stroke="#191970" points="415.1237,-55.4811 406.6875,-61.8906 417.2794,-62.1409 415.1237,-55.4811"/>
</g>
<!-- Node48 -->
<g id="node7" class="node">
<title>Node48</title>
<g id="a_node7"><a xlink:href="Transform_8cpp.html" target="_top" xlink:title="Transform.cpp">
<polygon fill="none" stroke="#000000" points="396,-.5 396,-19.5 482,-19.5 482,-.5 396,-.5"/>
<text text-anchor="middle" x="439" y="-7.5" font-family="FreeSans.ttf" font-size="10.00" fill="#000000">Transform.cpp</text>
</a>
</g>
</g>
<!-- Node43&#45;&gt;Node48 -->
<g id="edge6" class="edge">
<title>Node43&#45;&gt;Node48</title>
<path fill="none" stroke="#191970" d="M393.911,-54.7253C405.2248,-43.5028 419.7187,-29.1258 429.1759,-19.7449"/>
<polygon fill="#191970" stroke="#191970" points="391.3223,-52.3633 386.6875,-61.8906 396.252,-57.3331 391.3223,-52.3633"/>
</g>
</g>
</svg>
