<?xml version="1.0" encoding="UTF-8" standalone="no"?>
<!DOCTYPE svg PUBLIC "-//W3C//DTD SVG 1.1//EN"
 "http://www.w3.org/Graphics/SVG/1.1/DTD/svg11.dtd">
<!-- Generated by graphviz version 2.40.1 (20161225.0304)
 -->
<!-- Title: ExtWrenchesAndJointTorquesEstimator.cpp Pages: 1 -->
<svg width="3198pt" height="676pt"
 viewBox="0.00 0.00 3197.50 676.00" xmlns="http://www.w3.org/2000/svg" xmlns:xlink="http://www.w3.org/1999/xlink">
<g id="graph0" class="graph" transform="scale(1 1) rotate(0) translate(4 672)">
<title>ExtWrenchesAndJointTorquesEstimator.cpp</title>
<!-- Node0 -->
<g id="node1" class="node">
<title>Node0</title>
<polygon fill="#bfbfbf" stroke="#000000" points="1187,-637.5 1187,-667.5 1345,-667.5 1345,-637.5 1187,-637.5"/>
<text text-anchor="start" x="1195" y="-655.5" font-family="FreeSans.ttf" font-size="10.00" fill="#000000">ExtWrenchesAndJointTorques</text>
<text text-anchor="middle" x="1266" y="-644.5" font-family="FreeSans.ttf" font-size="10.00" fill="#000000">Estimator.cpp</text>
</g>
<!-- Node1 -->
<g id="node2" class="node">
<title>Node1</title>
<g id="a_node2"><a xlink:href="ExtWrenchesAndJointTorquesEstimator_8h.html" target="_top" xlink:title="iDynTree/Estimation\l/ExtWrenchesAndJointTorques\lEstimator.h">
<polygon fill="none" stroke="#000000" points="1586.5,-559.5 1586.5,-600.5 1747.5,-600.5 1747.5,-559.5 1586.5,-559.5"/>
<text text-anchor="start" x="1594.5" y="-588.5" font-family="FreeSans.ttf" font-size="10.00" fill="#000000">iDynTree/Estimation</text>
<text text-anchor="start" x="1594.5" y="-577.5" font-family="FreeSans.ttf" font-size="10.00" fill="#000000">/ExtWrenchesAndJointTorques</text>
<text text-anchor="middle" x="1667" y="-566.5" font-family="FreeSans.ttf" font-size="10.00" fill="#000000">Estimator.h</text>
</a>
</g>
</g>
<!-- Node0&#45;&gt;Node1 -->
<g id="edge1" class="edge">
<title>Node0&#45;&gt;Node1</title>
<path fill="none" stroke="#191970" d="M1345.276,-639.9767C1406.5031,-630.0747 1493.2804,-615.5408 1569,-601 1571.4671,-600.5262 1573.9676,-600.0391 1576.4899,-599.5417"/>
<polygon fill="#191970" stroke="#191970" points="1577.1835,-602.9723 1586.3022,-597.578 1575.8098,-596.1084 1577.1835,-602.9723"/>
</g>
<!-- Node2 -->
<g id="node3" class="node">
<title>Node2</title>
<g id="a_node3"><a xlink:href="ExternalWrenchesEstimation_8h.html" target="_top" xlink:title="iDynTree/Estimation\l/ExternalWrenchesEstimation.h">
<polygon fill="none" stroke="#000000" points="828.5,-425.5 828.5,-455.5 997.5,-455.5 997.5,-425.5 828.5,-425.5"/>
<text text-anchor="start" x="836.5" y="-443.5" font-family="FreeSans.ttf" font-size="10.00" fill="#000000">iDynTree/Estimation</text>
<text text-anchor="middle" x="913" y="-432.5" font-family="FreeSans.ttf" font-size="10.00" fill="#000000">/ExternalWrenchesEstimation.h</text>
</a>
</g>
</g>
<!-- Node0&#45;&gt;Node2 -->
<g id="edge98" class="edge">
<title>Node0&#45;&gt;Node2</title>
<path fill="none" stroke="#191970" d="M1240.8961,-637.4234C1178.7897,-600.1244 1017.8753,-503.4846 947.1726,-461.0229"/>
<polygon fill="#191970" stroke="#191970" points="948.5869,-457.7896 938.2121,-455.6415 944.9829,-463.7906 948.5869,-457.7896"/>
</g>
<!-- Node17 -->
<g id="node9" class="node">
<title>Node17</title>
<polygon fill="none" stroke="#bfbfbf" points="493,-56.5 493,-75.5 549,-75.5 549,-56.5 493,-56.5"/>
<text text-anchor="middle" x="521" y="-63.5" font-family="FreeSans.ttf" font-size="10.00" fill="#000000">sstream</text>
</g>
<!-- Node0&#45;&gt;Node17 -->
<g id="edge140" class="edge">
<title>Node0&#45;&gt;Node17</title>
<path fill="none" stroke="#191970" d="M1186.8434,-650.2008C1009.0659,-644.5732 589.0892,-628.52 531,-601 371.0594,-525.2274 222.0915,-472.9236 268,-302 293.3108,-207.7644 302.0429,-173.2495 378,-112 386.3807,-105.2421 443.4458,-88.0637 482.9033,-76.7193"/>
<polygon fill="#191970" stroke="#191970" points="484.1109,-80.0144 492.7635,-73.9002 482.1866,-73.2841 484.1109,-80.0144"/>
</g>
<!-- Node30 -->
<g id="node16" class="node">
<title>Node30</title>
<g id="a_node16"><a xlink:href="LinkState_8h.html" target="_top" xlink:title="iDynTree/Model/LinkState.h">
<polygon fill="none" stroke="#000000" points="760.5,-364 760.5,-383 909.5,-383 909.5,-364 760.5,-364"/>
<text text-anchor="middle" x="835" y="-371" font-family="FreeSans.ttf" font-size="10.00" fill="#000000">iDynTree/Model/LinkState.h</text>
</a>
</g>
</g>
<!-- Node0&#45;&gt;Node30 -->
<g id="edge118" class="edge">
<title>Node0&#45;&gt;Node30</title>
<path fill="none" stroke="#191970" d="M1186.7224,-647.5235C1117.9744,-641.5121 1016.5164,-628.5299 932,-601 860.1783,-577.6052 821.2462,-586.9212 781,-523 757.7884,-486.1341 761.4903,-464.891 779,-425 785.4506,-410.3041 798.3936,-397.9567 810.2127,-389.0391"/>
<polygon fill="#191970" stroke="#191970" points="812.3697,-391.8004 818.5113,-383.1673 808.3265,-386.0862 812.3697,-391.8004"/>
</g>
<!-- Node51 -->
<g id="node26" class="node">
<title>Node51</title>
<g id="a_node26"><a xlink:href="Model_8h.html" target="_top" xlink:title="iDynTree/Model/Model.h">
<polygon fill="none" stroke="#000000" points="2130.5,-431 2130.5,-450 2263.5,-450 2263.5,-431 2130.5,-431"/>
<text text-anchor="middle" x="2197" y="-438" font-family="FreeSans.ttf" font-size="10.00" fill="#000000">iDynTree/Model/Model.h</text>
</a>
</g>
</g>
<!-- Node0&#45;&gt;Node51 -->
<g id="edge115" class="edge">
<title>Node0&#45;&gt;Node51</title>
<path fill="none" stroke="#191970" d="M1345.0878,-650.8204C1457.4364,-647.2298 1669.2384,-636.0031 1846,-601 1960.1764,-578.3903 1993.5041,-578.1548 2096,-523 2129.1462,-505.1634 2161.8368,-475.7001 2180.6845,-457.2335"/>
<polygon fill="#191970" stroke="#191970" points="2183.2687,-459.5993 2187.8755,-450.0585 2178.3244,-454.644 2183.2687,-459.5993"/>
</g>
<!-- Node60 -->
<g id="node31" class="node">
<title>Node60</title>
<g id="a_node31"><a xlink:href="SubModel_8h.html" target="_top" xlink:title="iDynTree/Model/SubModel.h">
<polygon fill="none" stroke="#000000" points="2699.5,-364 2699.5,-383 2850.5,-383 2850.5,-364 2699.5,-364"/>
<text text-anchor="middle" x="2775" y="-371" font-family="FreeSans.ttf" font-size="10.00" fill="#000000">iDynTree/Model/SubModel.h</text>
</a>
</g>
</g>
<!-- Node0&#45;&gt;Node60 -->
<g id="edge117" class="edge">
<title>Node0&#45;&gt;Node60</title>
<path fill="none" stroke="#191970" d="M1345.345,-651.1761C1586.5706,-646.8341 2300.8828,-631.5226 2401,-601 2552.1538,-554.9179 2704.4914,-433.6152 2756.3769,-389.6805"/>
<polygon fill="#191970" stroke="#191970" points="2758.7622,-392.246 2764.0908,-383.0886 2754.2146,-386.9244 2758.7622,-392.246"/>
</g>
<!-- Node61 -->
<g id="node32" class="node">
<title>Node61</title>
<g id="a_node32"><a xlink:href="ContactWrench_8h.html" target="_top" xlink:title="iDynTree/Model/ContactWrench.h">
<polygon fill="none" stroke="#000000" points="1015.5,-431 1015.5,-450 1192.5,-450 1192.5,-431 1015.5,-431"/>
<text text-anchor="middle" x="1104" y="-438" font-family="FreeSans.ttf" font-size="10.00" fill="#000000">iDynTree/Model/ContactWrench.h</text>
</a>
</g>
</g>
<!-- Node0&#45;&gt;Node61 -->
<g id="edge120" class="edge">
<title>Node0&#45;&gt;Node61</title>
<path fill="none" stroke="#191970" d="M1254.3494,-637.2535C1225.1506,-599.0428 1148.9543,-499.3291 1117.6895,-458.4146"/>
<polygon fill="#191970" stroke="#191970" points="1120.4221,-456.2262 1111.5693,-450.4056 1114.8601,-460.4764 1120.4221,-456.2262"/>
</g>
<!-- Node62 -->
<g id="node33" class="node">
<title>Node62</title>
<g id="a_node33"><a xlink:href="Traversal_8h.html" target="_top" xlink:title="iDynTree/Model/Traversal.h">
<polygon fill="none" stroke="#000000" points="1722,-498 1722,-517 1870,-517 1870,-498 1722,-498"/>
<text text-anchor="middle" x="1796" y="-505" font-family="FreeSans.ttf" font-size="10.00" fill="#000000">iDynTree/Model/Traversal.h</text>
</a>
</g>
</g>
<!-- Node0&#45;&gt;Node62 -->
<g id="edge116" class="edge">
<title>Node0&#45;&gt;Node62</title>
<path fill="none" stroke="#191970" d="M1345.2072,-648.5938C1475.6993,-641.512 1724.7329,-625.0276 1757,-601 1780.5449,-583.4674 1789.9662,-549.052 1793.6721,-527.2209"/>
<polygon fill="#191970" stroke="#191970" points="1797.1673,-527.5057 1795.1336,-517.1078 1790.2393,-526.5044 1797.1673,-527.5057"/>
</g>
<!-- Node63 -->
<g id="node34" class="node">
<title>Node63</title>
<g id="a_node34"><a xlink:href="JointState_8h.html" target="_top" xlink:title="iDynTree/Model/JointState.h">
<polygon fill="none" stroke="#000000" points="1117.5,-364 1117.5,-383 1268.5,-383 1268.5,-364 1117.5,-364"/>
<text text-anchor="middle" x="1193" y="-371" font-family="FreeSans.ttf" font-size="10.00" fill="#000000">iDynTree/Model/JointState.h</text>
</a>
</g>
</g>
<!-- Node0&#45;&gt;Node63 -->
<g id="edge119" class="edge">
<title>Node0&#45;&gt;Node63</title>
<path fill="none" stroke="#191970" d="M1283.6504,-637.2265C1325.922,-598.8159 1425.5946,-496.1883 1372,-425 1358.6194,-407.2269 1307.9128,-393.6817 1263.8692,-384.9539"/>
<polygon fill="#191970" stroke="#191970" points="1264.4907,-381.5094 1254.0094,-383.0566 1263.1679,-388.3832 1264.4907,-381.5094"/>
</g>
<!-- Node66 -->
<g id="node37" class="node">
<title>Node66</title>
<g id="a_node37"><a xlink:href="Sensors_8h.html" target="_top" xlink:title="iDynTree/Sensors/Sensors.h">
<polygon fill="none" stroke="#000000" points="1888.5,-498 1888.5,-517 2039.5,-517 2039.5,-498 1888.5,-498"/>
<text text-anchor="middle" x="1964" y="-505" font-family="FreeSans.ttf" font-size="10.00" fill="#000000">iDynTree/Sensors/Sensors.h</text>
</a>
</g>
</g>
<!-- Node0&#45;&gt;Node66 -->
<g id="edge127" class="edge">
<title>Node0&#45;&gt;Node66</title>
<path fill="none" stroke="#191970" d="M1345.1935,-648.2979C1469.3556,-641.0919 1703.9271,-624.8153 1784,-601 1844.471,-583.0147 1908.4602,-544.41 1941.427,-522.8546"/>
<polygon fill="#191970" stroke="#191970" points="1943.4707,-525.6991 1949.874,-517.2582 1939.6045,-519.8636 1943.4707,-525.6991"/>
</g>
<!-- Node67 -->
<g id="node39" class="node">
<title>Node67</title>
<g id="a_node39"><a xlink:href="EigenHelpers_8h.html" target="_top" xlink:title="iDynTree/Core/EigenHelpers.h">
<polygon fill="none" stroke="#000000" points="409.5,-364 409.5,-383 570.5,-383 570.5,-364 409.5,-364"/>
<text text-anchor="middle" x="490" y="-371" font-family="FreeSans.ttf" font-size="10.00" fill="#000000">iDynTree/Core/EigenHelpers.h</text>
</a>
</g>
</g>
<!-- Node0&#45;&gt;Node67 -->
<g id="edge99" class="edge">
<title>Node0&#45;&gt;Node67</title>
<path fill="none" stroke="#191970" d="M1186.8978,-649.9222C1043.619,-644.5894 746.8322,-630.3137 648,-601 577.8439,-580.1916 543.2252,-584.1294 503,-523 476.8404,-483.2458 481.3935,-424.1088 486.149,-393.4895"/>
<polygon fill="#191970" stroke="#191970" points="489.6643,-393.7004 487.9178,-383.2505 482.7665,-392.5087 489.6643,-393.7004"/>
</g>
<!-- Node69 -->
<g id="node41" class="node">
<title>Node69</title>
<g id="a_node41"><a xlink:href="EigenMathHelpers_8h.html" target="_top" xlink:title="iDynTree/Core/EigenMathHelpers.h">
<polygon fill="none" stroke="#000000" points="512.5,-498 512.5,-517 697.5,-517 697.5,-498 512.5,-498"/>
<text text-anchor="middle" x="605" y="-505" font-family="FreeSans.ttf" font-size="10.00" fill="#000000">iDynTree/Core/EigenMathHelpers.h</text>
</a>
</g>
</g>
<!-- Node0&#45;&gt;Node69 -->
<g id="edge109" class="edge">
<title>Node0&#45;&gt;Node69</title>
<path fill="none" stroke="#191970" d="M1186.7382,-651.1567C1054.3325,-647.919 794.4517,-637.0403 711,-601 671.8209,-584.0797 636.9536,-546.9971 618.6215,-524.9558"/>
<polygon fill="#191970" stroke="#191970" points="621.2372,-522.6243 612.2238,-517.0557 615.7973,-527.0297 621.2372,-522.6243"/>
</g>
<!-- Node57 -->
<g id="node42" class="node">
<title>Node57</title>
<g id="a_node42"><a xlink:href="SpatialMomentum_8h.html" target="_top" xlink:title="iDynTree/Core/SpatialMomentum.h">
<polygon fill="none" stroke="#000000" points="46,-498 46,-517 232,-517 232,-498 46,-498"/>
<text text-anchor="middle" x="139" y="-505" font-family="FreeSans.ttf" font-size="10.00" fill="#000000">iDynTree/Core/SpatialMomentum.h</text>
</a>
</g>
</g>
<!-- Node0&#45;&gt;Node57 -->
<g id="edge111" class="edge">
<title>Node0&#45;&gt;Node57</title>
<path fill="none" stroke="#191970" d="M1186.9939,-651.4838C962.6328,-648.1825 332.2459,-635.8792 246,-601 206.2259,-584.9147 171.1105,-547.5325 152.6805,-525.2133"/>
<polygon fill="#191970" stroke="#191970" points="155.2414,-522.8125 146.2513,-517.2064 149.7832,-527.1952 155.2414,-522.8125"/>
</g>
<!-- Node70 -->
<g id="node43" class="node">
<title>Node70</title>
<g id="a_node43"><a xlink:href="ClassicalAcc_8h.html" target="_top" xlink:title="iDynTree/Core/ClassicalAcc.h">
<polygon fill="none" stroke="#000000" points="104,-241 104,-260 262,-260 262,-241 104,-241"/>
<text text-anchor="middle" x="183" y="-248" font-family="FreeSans.ttf" font-size="10.00" fill="#000000">iDynTree/Core/ClassicalAcc.h</text>
</a>
</g>
</g>
<!-- Node0&#45;&gt;Node70 -->
<g id="edge113" class="edge">
<title>Node0&#45;&gt;Node70</title>
<path fill="none" stroke="#191970" d="M1186.6078,-650.6731C952.9561,-645.0245 278.0749,-626.6634 182,-601 94.1416,-577.5313 0,-598.4389 0,-507.5 0,-507.5 0,-507.5 0,-373.5 0,-311.1553 74.0658,-278.3542 127.9583,-262.7391"/>
<polygon fill="#191970" stroke="#191970" points="129.0628,-266.065 137.764,-260.0202 127.1924,-259.3195 129.0628,-266.065"/>
</g>
<!-- Node71 -->
<g id="node44" class="node">
<title>Node71</title>
<g id="a_node44"><a xlink:href="Dynamics_8h.html" target="_top" xlink:title="iDynTree/Model/Dynamics.h">
<polygon fill="none" stroke="#000000" points="1211,-431 1211,-450 1363,-450 1363,-431 1211,-431"/>
<text text-anchor="middle" x="1287" y="-438" font-family="FreeSans.ttf" font-size="10.00" fill="#000000">iDynTree/Model/Dynamics.h</text>
</a>
</g>
</g>
<!-- Node0&#45;&gt;Node71 -->
<g id="edge121" class="edge">
<title>Node0&#45;&gt;Node71</title>
<path fill="none" stroke="#191970" d="M1267.5103,-637.2535C1271.2318,-599.6836 1280.843,-502.6565 1285.0167,-460.5223"/>
<polygon fill="#191970" stroke="#191970" points="1288.5159,-460.7019 1286.0188,-450.4056 1281.55,-460.0118 1288.5159,-460.7019"/>
</g>
<!-- Node72 -->
<g id="node45" class="node">
<title>Node72</title>
<g id="a_node45"><a xlink:href="ModelTransformers_8h.html" target="_top" xlink:title="Collection of function to modify model in various ways. ">
<polygon fill="none" stroke="#000000" points="2803.5,-570.5 2803.5,-589.5 3000.5,-589.5 3000.5,-570.5 2803.5,-570.5"/>
<text text-anchor="middle" x="2902" y="-577.5" font-family="FreeSans.ttf" font-size="10.00" fill="#000000">iDynTree/Model/ModelTransformers.h</text>
</a>
</g>
</g>
<!-- Node0&#45;&gt;Node72 -->
<g id="edge125" class="edge">
<title>Node0&#45;&gt;Node72</title>
<path fill="none" stroke="#191970" d="M1345.1248,-651.3928C1615.9933,-647.3567 2504.9629,-632.0181 2789,-601 2808.7566,-598.8425 2830.2448,-595.1851 2849.1267,-591.5214"/>
<polygon fill="#191970" stroke="#191970" points="2849.9031,-594.9356 2859.0295,-589.5541 2848.5391,-588.0698 2849.9031,-594.9356"/>
</g>
<!-- Node73 -->
<g id="node46" class="node">
<title>Node73</title>
<g id="a_node46"><a xlink:href="ModelSensorsTransformers_8h.html" target="_top" xlink:title="Collection of function to modify model and sensors in various ways. ">
<polygon fill="none" stroke="#000000" points="3018.5,-565 3018.5,-595 3189.5,-595 3189.5,-565 3018.5,-565"/>
<text text-anchor="start" x="3026.5" y="-583" font-family="FreeSans.ttf" font-size="10.00" fill="#000000">iDynTree/Sensors/ModelSensors</text>
<text text-anchor="middle" x="3104" y="-572" font-family="FreeSans.ttf" font-size="10.00" fill="#000000">Transformers.h</text>
</a>
</g>
</g>
<!-- Node0&#45;&gt;Node73 -->
<g id="edge126" class="edge">
<title>Node0&#45;&gt;Node73</title>
<path fill="none" stroke="#191970" d="M1345.1484,-652.1627C1640.9389,-650.591 2681.2633,-642.1933 3010,-601 3018.0802,-599.9875 3026.4878,-598.6003 3034.8059,-597.0175"/>
<polygon fill="#191970" stroke="#191970" points="3035.7607,-600.3959 3044.8797,-595.002 3034.3874,-593.532 3035.7607,-600.3959"/>
</g>
<!-- Node74 -->
<g id="node47" class="node">
<title>Node74</title>
<g id="a_node47"><a xlink:href="SixAxisForceTorqueSensor_8h.html" target="_top" xlink:title="iDynTree/Sensors/SixAxis\lForceTorqueSensor.h">
<polygon fill="none" stroke="#000000" points="1420,-565 1420,-595 1560,-595 1560,-565 1420,-565"/>
<text text-anchor="start" x="1428" y="-583" font-family="FreeSans.ttf" font-size="10.00" fill="#000000">iDynTree/Sensors/SixAxis</text>
<text text-anchor="middle" x="1490" y="-572" font-family="FreeSans.ttf" font-size="10.00" fill="#000000">ForceTorqueSensor.h</text>
</a>
</g>
</g>
<!-- Node0&#45;&gt;Node74 -->
<g id="edge128" class="edge">
<title>Node0&#45;&gt;Node74</title>
<path fill="none" stroke="#191970" d="M1312.4129,-637.478C1347.7033,-626.0559 1396.4073,-610.2923 1433.8856,-598.162"/>
<polygon fill="#191970" stroke="#191970" points="1435.2102,-601.4121 1443.6465,-595.0028 1433.0546,-594.7523 1435.2102,-601.4121"/>
</g>
<!-- Node75 -->
<g id="node48" class="node">
<title>Node75</title>
<g id="a_node48"><a xlink:href="PredictSensorsMeasurements_8h.html" target="_top" xlink:title="iDynTree/Sensors/Predict\lSensorsMeasurements.h">
<polygon fill="none" stroke="#000000" points="790.5,-492.5 790.5,-522.5 927.5,-522.5 927.5,-492.5 790.5,-492.5"/>
<text text-anchor="start" x="798.5" y="-510.5" font-family="FreeSans.ttf" font-size="10.00" fill="#000000">iDynTree/Sensors/Predict</text>
<text text-anchor="middle" x="859" y="-499.5" font-family="FreeSans.ttf" font-size="10.00" fill="#000000">SensorsMeasurements.h</text>
</a>
</g>
</g>
<!-- Node0&#45;&gt;Node75 -->
<g id="edge132" class="edge">
<title>Node0&#45;&gt;Node75</title>
<path fill="none" stroke="#191970" d="M1186.8833,-643.2472C1136.4698,-635.6679 1070.4463,-622.5795 1015,-601 967.3286,-582.4464 917.5178,-549.93 887.3673,-528.5539"/>
<polygon fill="#191970" stroke="#191970" points="889.1993,-525.5606 879.0343,-522.5734 885.1178,-531.2476 889.1993,-525.5606"/>
</g>
<!-- Node76 -->
<g id="node49" class="node">
<title>Node76</title>
<g id="a_node49"><a xlink:href="ModelLoader_8h.html" target="_top" xlink:title="iDynTree/ModelIO/ModelLoader.h">
<polygon fill="none" stroke="#000000" points="2216,-570.5 2216,-589.5 2392,-589.5 2392,-570.5 2216,-570.5"/>
<text text-anchor="middle" x="2304" y="-577.5" font-family="FreeSans.ttf" font-size="10.00" fill="#000000">iDynTree/ModelIO/ModelLoader.h</text>
</a>
</g>
</g>
<!-- Node0&#45;&gt;Node76 -->
<g id="edge134" class="edge">
<title>Node0&#45;&gt;Node76</title>
<path fill="none" stroke="#191970" d="M1345.0763,-649.6586C1539.5357,-642.4278 2037.177,-622.3818 2202,-601 2219.2235,-598.7657 2237.8834,-595.2512 2254.4765,-591.7319"/>
<polygon fill="#191970" stroke="#191970" points="2255.4811,-595.0954 2264.5097,-589.5515 2253.9944,-588.2551 2255.4811,-595.0954"/>
</g>
<!-- Node1&#45;&gt;Node2 -->
<g id="edge2" class="edge">
<title>Node1&#45;&gt;Node2</title>
<path fill="none" stroke="#191970" d="M1586.2893,-562.4884C1580.4428,-561.2864 1574.6333,-560.1121 1569,-559 1369.7388,-519.664 1135.3853,-478.5702 1007.6985,-456.6151"/>
<polygon fill="#191970" stroke="#191970" points="1008.0105,-453.1175 997.5622,-454.8739 1006.8253,-460.0164 1008.0105,-453.1175"/>
</g>
<!-- Node1&#45;&gt;Node51 -->
<g id="edge47" class="edge">
<title>Node1&#45;&gt;Node51</title>
<path fill="none" stroke="#191970" d="M1747.6186,-576.3813C1826.3211,-570.9118 1948.5557,-557.217 2049,-523 2096.7833,-506.7223 2147.0069,-475.1976 2174.929,-456.1806"/>
<polygon fill="#191970" stroke="#191970" points="2177.2715,-458.8162 2183.5075,-450.251 2173.2912,-453.0579 2177.2715,-458.8162"/>
</g>
<!-- Node1&#45;&gt;Node60 -->
<g id="edge61" class="edge">
<title>Node1&#45;&gt;Node60</title>
<path fill="none" stroke="#191970" d="M1747.794,-572.5676C1834.4376,-563.8297 1975.7873,-547.3585 2096,-523 2147.0405,-512.6578 2157.922,-502.1556 2209,-492 2335.0871,-466.9306 2370.1667,-482.3137 2496,-456 2584.4831,-437.4968 2685.6046,-404.5448 2738.4505,-386.3888"/>
<polygon fill="#191970" stroke="#191970" points="2739.7423,-389.6455 2748.0502,-383.0706 2737.4554,-383.0296 2739.7423,-389.6455"/>
</g>
<!-- Node1&#45;&gt;Node61 -->
<g id="edge66" class="edge">
<title>Node1&#45;&gt;Node61</title>
<path fill="none" stroke="#191970" d="M1639.8871,-559.303C1607.2571,-534.5765 1555.5215,-496.0173 1545,-492 1401.8011,-437.3249 1353.9741,-475.9798 1202,-456 1191.9051,-454.6728 1181.2472,-453.1322 1170.8246,-451.5474"/>
<polygon fill="#191970" stroke="#191970" points="1171.3468,-448.0867 1160.9299,-450.02 1170.2788,-455.0047 1171.3468,-448.0867"/>
</g>
<!-- Node1&#45;&gt;Node62 -->
<g id="edge72" class="edge">
<title>Node1&#45;&gt;Node62</title>
<path fill="none" stroke="#191970" d="M1703.6212,-559.4183C1724.8736,-547.4741 1751.1265,-532.7196 1770.2072,-521.9959"/>
<polygon fill="#191970" stroke="#191970" points="1771.9419,-525.036 1778.9447,-517.0853 1768.5123,-518.9337 1771.9419,-525.036"/>
</g>
<!-- Node1&#45;&gt;Node63 -->
<g id="edge75" class="edge">
<title>Node1&#45;&gt;Node63</title>
<path fill="none" stroke="#191970" d="M1651.9943,-559.4707C1636.245,-539.3785 1609.6808,-509.338 1580,-492 1527.4928,-461.328 1502.8756,-482.2002 1448,-456 1426.7392,-445.8491 1426.4005,-434.8529 1405,-425 1378.0115,-412.5744 1304.4795,-396.0363 1251.5884,-385.0933"/>
<polygon fill="#191970" stroke="#191970" points="1252.1369,-381.633 1241.6372,-383.0498 1250.7288,-388.4899 1252.1369,-381.633"/>
</g>
<!-- Node64 -->
<g id="node35" class="node">
<title>Node64</title>
<g id="a_node35"><a xlink:href="FreeFloatingState_8h.html" target="_top" xlink:title="iDynTree/Model/FreeFloating\lState.h">
<polygon fill="none" stroke="#000000" points="1457,-425.5 1457,-455.5 1611,-455.5 1611,-425.5 1457,-425.5"/>
<text text-anchor="start" x="1465" y="-443.5" font-family="FreeSans.ttf" font-size="10.00" fill="#000000">iDynTree/Model/FreeFloating</text>
<text text-anchor="middle" x="1534" y="-432.5" font-family="FreeSans.ttf" font-size="10.00" fill="#000000">State.h</text>
</a>
</g>
</g>
<!-- Node1&#45;&gt;Node64 -->
<g id="edge80" class="edge">
<title>Node1&#45;&gt;Node64</title>
<path fill="none" stroke="#191970" d="M1659.8986,-559.139C1652.5405,-539.9213 1639.5075,-511.5118 1621,-492 1608.8963,-479.2395 1592.9387,-468.5782 1577.9986,-460.3277"/>
<polygon fill="#191970" stroke="#191970" points="1579.348,-457.0822 1568.8712,-455.505 1576.0777,-463.2714 1579.348,-457.0822"/>
</g>
<!-- Node65 -->
<g id="node36" class="node">
<title>Node65</title>
<g id="a_node36"><a xlink:href="LinkTraversalsCache_8h.html" target="_top" xlink:title="iDynTree/Model/LinkTraversals\lCache.h">
<polygon fill="none" stroke="#000000" points="1705,-358.5 1705,-388.5 1869,-388.5 1869,-358.5 1705,-358.5"/>
<text text-anchor="start" x="1713" y="-376.5" font-family="FreeSans.ttf" font-size="10.00" fill="#000000">iDynTree/Model/LinkTraversals</text>
<text text-anchor="middle" x="1787" y="-365.5" font-family="FreeSans.ttf" font-size="10.00" fill="#000000">Cache.h</text>
</a>
</g>
</g>
<!-- Node1&#45;&gt;Node65 -->
<g id="edge88" class="edge">
<title>Node1&#45;&gt;Node65</title>
<path fill="none" stroke="#191970" d="M1677.1613,-559.4893C1686.2055,-541.5002 1699.9813,-514.7407 1713,-492 1732.149,-458.551 1756.0378,-420.9691 1771.404,-397.2731"/>
<polygon fill="#191970" stroke="#191970" points="1774.5192,-398.9029 1777.0417,-388.6128 1768.6527,-395.0839 1774.5192,-398.9029"/>
</g>
<!-- Node1&#45;&gt;Node66 -->
<g id="edge91" class="edge">
<title>Node1&#45;&gt;Node66</title>
<path fill="none" stroke="#191970" d="M1747.7642,-560.2848C1801.262,-547.2256 1869.6866,-530.5226 1915.0831,-519.441"/>
<polygon fill="#191970" stroke="#191970" points="1916.0868,-522.7988 1924.9715,-517.0272 1914.4267,-515.9985 1916.0868,-522.7988"/>
</g>
<!-- Node3 -->
<g id="node4" class="node">
<title>Node3</title>
<g id="a_node4"><a xlink:href="Direction_8h.html" target="_top" xlink:title="iDynTree/Core/Direction.h">
<polygon fill="none" stroke="#000000" points="120.5,-174 120.5,-193 261.5,-193 261.5,-174 120.5,-174"/>
<text text-anchor="middle" x="191" y="-181" font-family="FreeSans.ttf" font-size="10.00" fill="#000000">iDynTree/Core/Direction.h</text>
</a>
</g>
</g>
<!-- Node2&#45;&gt;Node3 -->
<g id="edge3" class="edge">
<title>Node2&#45;&gt;Node3</title>
<path fill="none" stroke="#191970" d="M828.431,-438.2666C624.1763,-432.4616 118.8696,-415.4826 94,-389 47.1447,-339.1059 59.4189,-293.4707 95,-235 106.1025,-216.7552 126.0891,-204.5856 144.962,-196.6816"/>
<polygon fill="#191970" stroke="#191970" points="146.3234,-199.9077 154.3841,-193.032 143.795,-193.3803 146.3234,-199.9077"/>
</g>
<!-- Node5 -->
<g id="node6" class="node">
<title>Node5</title>
<g id="a_node6"><a xlink:href="VectorFixSize_8h.html" target="_top" xlink:title="iDynTree/Core/VectorFixSize.h">
<polygon fill="none" stroke="#ff0000" points="387.5,-112.5 387.5,-131.5 548.5,-131.5 548.5,-112.5 387.5,-112.5"/>
<text text-anchor="middle" x="468" y="-119.5" font-family="FreeSans.ttf" font-size="10.00" fill="#000000">iDynTree/Core/VectorFixSize.h</text>
</a>
</g>
</g>
<!-- Node2&#45;&gt;Node5 -->
<g id="edge22" class="edge">
<title>Node2&#45;&gt;Node5</title>
<path fill="none" stroke="#191970" d="M828.4382,-437.5118C697.313,-432.0359 451.4474,-418.1694 369,-389 318.2169,-371.0332 293.4722,-369.4647 268,-322 244.1959,-277.6438 386.8106,-176.0484 444.5424,-137.3521"/>
<polygon fill="#191970" stroke="#191970" points="446.6524,-140.1522 453.0407,-131.7 442.7758,-134.3236 446.6524,-140.1522"/>
</g>
<!-- Node19 -->
<g id="node10" class="node">
<title>Node19</title>
<g id="a_node10"><a xlink:href="Position_8h.html" target="_top" xlink:title="iDynTree/Core/Position.h">
<polygon fill="none" stroke="#ff0000" points="1235,-241 1235,-260 1371,-260 1371,-241 1235,-241"/>
<text text-anchor="middle" x="1303" y="-248" font-family="FreeSans.ttf" font-size="10.00" fill="#000000">iDynTree/Core/Position.h</text>
</a>
</g>
</g>
<!-- Node2&#45;&gt;Node19 -->
<g id="edge11" class="edge">
<title>Node2&#45;&gt;Node19</title>
<path fill="none" stroke="#191970" d="M919.9537,-425.4606C929.6274,-406.377 949.0448,-374.0219 976,-358 1065.6964,-304.6853 1111.8741,-362.592 1208,-322 1224.1877,-315.1643 1260.8608,-285.7978 1283.6127,-266.8915"/>
<polygon fill="#191970" stroke="#191970" points="1286.1553,-269.3277 1291.5792,-260.2264 1281.6636,-263.9588 1286.1553,-269.3277"/>
</g>
<!-- Node27 -->
<g id="node13" class="node">
<title>Node27</title>
<g id="a_node13"><a xlink:href="MatrixDynSize_8h.html" target="_top" xlink:title="iDynTree/Core/MatrixDynSize.h">
<polygon fill="none" stroke="#000000" points="649.5,-302.5 649.5,-321.5 816.5,-321.5 816.5,-302.5 649.5,-302.5"/>
<text text-anchor="middle" x="733" y="-309.5" font-family="FreeSans.ttf" font-size="10.00" fill="#000000">iDynTree/Core/MatrixDynSize.h</text>
</a>
</g>
</g>
<!-- Node2&#45;&gt;Node27 -->
<g id="edge18" class="edge">
<title>Node2&#45;&gt;Node27</title>
<path fill="none" stroke="#191970" d="M842.9275,-425.4797C805.2766,-416.0438 763.9739,-403.0297 751,-389 736.702,-373.5385 733.0761,-348.9591 732.4663,-331.7406"/>
<polygon fill="#191970" stroke="#191970" points="735.966,-331.6418 732.4193,-321.6582 728.9661,-331.6745 735.966,-331.6418"/>
</g>
<!-- Node28 -->
<g id="node14" class="node">
<title>Node28</title>
<g id="a_node14"><a xlink:href="VectorDynSize_8h.html" target="_top" xlink:title="iDynTree/Core/VectorDynSize.h">
<polygon fill="none" stroke="#ff0000" points="1330.5,-302.5 1330.5,-321.5 1497.5,-321.5 1497.5,-302.5 1330.5,-302.5"/>
<text text-anchor="middle" x="1414" y="-309.5" font-family="FreeSans.ttf" font-size="10.00" fill="#000000">iDynTree/Core/VectorDynSize.h</text>
</a>
</g>
</g>
<!-- Node2&#45;&gt;Node28 -->
<g id="edge20" class="edge">
<title>Node2&#45;&gt;Node28</title>
<path fill="none" stroke="#191970" d="M930.0284,-425.3328C952.6821,-406.111 994.8021,-373.6067 1037,-358 1087.2708,-339.4076 1225.7374,-325.8779 1320.1055,-318.479"/>
<polygon fill="#191970" stroke="#191970" points="1320.5389,-321.956 1330.239,-317.6947 1319.9987,-314.9769 1320.5389,-321.956"/>
</g>
<!-- Node29 -->
<g id="node15" class="node">
<title>Node29</title>
<g id="a_node15"><a xlink:href="Indices_8h.html" target="_top" xlink:title="iDynTree/Model/Indices.h">
<polygon fill="none" stroke="#000000" points="1866,-302.5 1866,-321.5 2004,-321.5 2004,-302.5 1866,-302.5"/>
<text text-anchor="middle" x="1935" y="-309.5" font-family="FreeSans.ttf" font-size="10.00" fill="#000000">iDynTree/Model/Indices.h</text>
</a>
</g>
</g>
<!-- Node2&#45;&gt;Node29 -->
<g id="edge23" class="edge">
<title>Node2&#45;&gt;Node29</title>
<path fill="none" stroke="#191970" d="M997.628,-426.2716C1000.4512,-425.8364 1003.2479,-425.4113 1006,-425 1126.6034,-406.9738 1159.2209,-416.5982 1278,-389 1320.0282,-379.2348 1327.7393,-366.7041 1370,-358 1460.5974,-339.3403 1722.7818,-323.2816 1855.7164,-316.065"/>
<polygon fill="#191970" stroke="#191970" points="1856.0406,-319.5527 1865.8376,-315.5191 1855.6635,-312.5628 1856.0406,-319.5527"/>
</g>
<!-- Node2&#45;&gt;Node30 -->
<g id="edge25" class="edge">
<title>Node2&#45;&gt;Node30</title>
<path fill="none" stroke="#191970" d="M895.3006,-425.2967C882.9119,-414.6551 866.3865,-400.4602 853.7685,-389.6217"/>
<polygon fill="#191970" stroke="#191970" points="855.99,-386.9159 846.1237,-383.055 851.4288,-392.2259 855.99,-386.9159"/>
</g>
<!-- Node50 -->
<g id="node25" class="node">
<title>Node50</title>
<polygon fill="none" stroke="#bfbfbf" points="1680.5,-302.5 1680.5,-321.5 1727.5,-321.5 1727.5,-302.5 1680.5,-302.5"/>
<text text-anchor="middle" x="1704" y="-309.5" font-family="FreeSans.ttf" font-size="10.00" fill="#000000">vector</text>
</g>
<!-- Node2&#45;&gt;Node50 -->
<g id="edge46" class="edge">
<title>Node2&#45;&gt;Node50</title>
<path fill="none" stroke="#191970" d="M945.3738,-425.3964C995.8957,-401.8516 1088.1532,-358.9699 1092,-358 1338.8321,-295.7652 1415.3124,-365.869 1670.437,-321.6422"/>
<polygon fill="#191970" stroke="#191970" points="1671.1339,-325.0733 1680.368,-319.8788 1669.9101,-318.1811 1671.1339,-325.0733"/>
</g>
<!-- Node4 -->
<g id="node5" class="node">
<title>Node4</title>
<polygon fill="none" stroke="#bfbfbf" points="1402,-56.5 1402,-75.5 1446,-75.5 1446,-56.5 1402,-56.5"/>
<text text-anchor="middle" x="1424" y="-63.5" font-family="FreeSans.ttf" font-size="10.00" fill="#000000">string</text>
</g>
<!-- Node3&#45;&gt;Node4 -->
<g id="edge4" class="edge">
<title>Node3&#45;&gt;Node4</title>
<path fill="none" stroke="#191970" d="M209.7664,-173.9848C242.7826,-157.7848 313.8484,-125.31 378,-112 479.2296,-90.9971 1226.6366,-70.9949 1391.7688,-66.8022"/>
<polygon fill="#191970" stroke="#191970" points="1391.8822,-70.3006 1401.7906,-66.5491 1391.7054,-63.3028 1391.8822,-70.3006"/>
</g>
<!-- Node3&#45;&gt;Node5 -->
<g id="edge5" class="edge">
<title>Node3&#45;&gt;Node5</title>
<path fill="none" stroke="#191970" d="M233.9773,-173.9581C282.8014,-163.1181 362.5041,-145.4224 415.1049,-133.7439"/>
<polygon fill="#191970" stroke="#191970" points="415.9182,-137.1486 424.9219,-131.5643 414.4009,-130.315 415.9182,-137.1486"/>
</g>
<!-- Node6 -->
<g id="node7" class="node">
<title>Node6</title>
<g id="a_node7"><a xlink:href="Utils_8h.html" target="_top" xlink:title="iDynTree/Core/Utils.h">
<polygon fill="none" stroke="#000000" points="355.5,-56.5 355.5,-75.5 474.5,-75.5 474.5,-56.5 355.5,-56.5"/>
<text text-anchor="middle" x="415" y="-63.5" font-family="FreeSans.ttf" font-size="10.00" fill="#000000">iDynTree/Core/Utils.h</text>
</a>
</g>
</g>
<!-- Node3&#45;&gt;Node6 -->
<g id="edge10" class="edge">
<title>Node3&#45;&gt;Node6</title>
<path fill="none" stroke="#191970" d="M200.0382,-173.8206C214.6651,-158.671 245.0244,-129.3049 276,-112 302.9576,-96.9398 335.6309,-85.8143 362.525,-78.2806"/>
<polygon fill="#191970" stroke="#191970" points="363.7903,-81.564 372.5255,-75.5684 361.958,-74.808 363.7903,-81.564"/>
</g>
<!-- Node5&#45;&gt;Node4 -->
<g id="edge8" class="edge">
<title>Node5&#45;&gt;Node4</title>
<path fill="none" stroke="#191970" d="M548.6841,-117.2737C748.1226,-105.5911 1257.8251,-75.7341 1391.499,-67.9038"/>
<polygon fill="#191970" stroke="#191970" points="1392.0877,-71.3754 1401.8659,-67.2966 1391.6783,-64.3874 1392.0877,-71.3754"/>
</g>
<!-- Node5&#45;&gt;Node6 -->
<g id="edge6" class="edge">
<title>Node5&#45;&gt;Node6</title>
<path fill="none" stroke="#191970" d="M458.7681,-112.2455C451.1683,-104.2155 440.2123,-92.6394 431.1632,-83.0781"/>
<polygon fill="#191970" stroke="#191970" points="433.542,-80.4998 424.1261,-75.6427 428.4579,-85.3115 433.542,-80.4998"/>
</g>
<!-- Node5&#45;&gt;Node17 -->
<g id="edge9" class="edge">
<title>Node5&#45;&gt;Node17</title>
<path fill="none" stroke="#191970" d="M477.2319,-112.2455C484.8317,-104.2155 495.7877,-92.6394 504.8368,-83.0781"/>
<polygon fill="#191970" stroke="#191970" points="507.5421,-85.3115 511.8739,-75.6427 502.458,-80.4998 507.5421,-85.3115"/>
</g>
<!-- Node7 -->
<g id="node8" class="node">
<title>Node7</title>
<polygon fill="none" stroke="#bfbfbf" points="1591.5,-.5 1591.5,-19.5 1644.5,-19.5 1644.5,-.5 1591.5,-.5"/>
<text text-anchor="middle" x="1618" y="-7.5" font-family="FreeSans.ttf" font-size="10.00" fill="#000000">cstddef</text>
</g>
<!-- Node6&#45;&gt;Node7 -->
<g id="edge7" class="edge">
<title>Node6&#45;&gt;Node7</title>
<path fill="none" stroke="#191970" d="M474.7941,-56.9483C477.904,-56.5984 480.9868,-56.2787 484,-56 704.4118,-35.6127 1411.4385,-15.5784 1581.1326,-10.9816"/>
<polygon fill="#191970" stroke="#191970" points="1581.3971,-14.4758 1591.299,-10.7073 1581.2083,-7.4783 1581.3971,-14.4758"/>
</g>
<!-- Node19&#45;&gt;Node4 -->
<g id="edge17" class="edge">
<title>Node19&#45;&gt;Node4</title>
<path fill="none" stroke="#191970" d="M1314.1376,-240.9319C1335.251,-222.1879 1381.1997,-178.3959 1406,-132 1413.6985,-117.5978 1418.3199,-99.6266 1420.9487,-86.0751"/>
<polygon fill="#191970" stroke="#191970" points="1424.4519,-86.3578 1422.7121,-75.9068 1417.5548,-85.1617 1424.4519,-86.3578"/>
</g>
<!-- Node20 -->
<g id="node11" class="node">
<title>Node20</title>
<g id="a_node11"><a xlink:href="PositionRaw_8h.html" target="_top" xlink:title="iDynTree/Core/PositionRaw.h">
<polygon fill="none" stroke="#000000" points="1115,-174 1115,-193 1271,-193 1271,-174 1115,-174"/>
<text text-anchor="middle" x="1193" y="-181" font-family="FreeSans.ttf" font-size="10.00" fill="#000000">iDynTree/Core/PositionRaw.h</text>
</a>
</g>
</g>
<!-- Node19&#45;&gt;Node20 -->
<g id="edge12" class="edge">
<title>Node19&#45;&gt;Node20</title>
<path fill="none" stroke="#191970" d="M1287.2397,-240.9005C1269.0243,-229.8057 1238.827,-211.4128 1217.5323,-198.4424"/>
<polygon fill="#191970" stroke="#191970" points="1219.0923,-195.2945 1208.7311,-193.0817 1215.4509,-201.2728 1219.0923,-195.2945"/>
</g>
<!-- Node21 -->
<g id="node12" class="node">
<title>Node21</title>
<g id="a_node12"><a xlink:href="PositionSemantics_8h.html" target="_top" xlink:title="iDynTree/Core/PositionSemantics.h">
<polygon fill="none" stroke="#000000" points="1209.5,-112.5 1209.5,-131.5 1396.5,-131.5 1396.5,-112.5 1209.5,-112.5"/>
<text text-anchor="middle" x="1303" y="-119.5" font-family="FreeSans.ttf" font-size="10.00" fill="#000000">iDynTree/Core/PositionSemantics.h</text>
</a>
</g>
</g>
<!-- Node19&#45;&gt;Node21 -->
<g id="edge15" class="edge">
<title>Node19&#45;&gt;Node21</title>
<path fill="none" stroke="#191970" d="M1303,-240.8416C1303,-219.9114 1303,-170.004 1303,-141.9762"/>
<polygon fill="#191970" stroke="#191970" points="1306.5001,-141.7704 1303,-131.7705 1299.5001,-141.7705 1306.5001,-141.7704"/>
</g>
<!-- Node20&#45;&gt;Node4 -->
<g id="edge14" class="edge">
<title>Node20&#45;&gt;Node4</title>
<path fill="none" stroke="#191970" d="M1190.8674,-173.7438C1188.1559,-158.489 1185.5132,-128.9814 1201,-112 1226.2122,-84.3547 1336.0721,-72.4418 1391.608,-68.1108"/>
<polygon fill="#191970" stroke="#191970" points="1391.9186,-71.5975 1401.6316,-67.3657 1391.3996,-64.6167 1391.9186,-71.5975"/>
</g>
<!-- Node20&#45;&gt;Node5 -->
<g id="edge13" class="edge">
<title>Node20&#45;&gt;Node5</title>
<path fill="none" stroke="#191970" d="M1114.7235,-176.86C979.3836,-165.3794 702.3934,-141.883 558.8136,-129.7035"/>
<polygon fill="#191970" stroke="#191970" points="558.9703,-126.2043 548.7102,-128.8464 558.3785,-133.1793 558.9703,-126.2043"/>
</g>
<!-- Node21&#45;&gt;Node4 -->
<g id="edge16" class="edge">
<title>Node21&#45;&gt;Node4</title>
<path fill="none" stroke="#191970" d="M1323.8006,-112.3733C1343.2243,-103.3838 1372.4224,-89.8706 1394.2964,-79.7471"/>
<polygon fill="#191970" stroke="#191970" points="1395.8656,-82.8776 1403.4708,-75.5011 1392.9255,-76.5249 1395.8656,-82.8776"/>
</g>
<!-- Node27&#45;&gt;Node4 -->
<g id="edge19" class="edge">
<title>Node27&#45;&gt;Node4</title>
<path fill="none" stroke="#191970" d="M794.9726,-302.4994C834.2998,-295.2529 885.7425,-283.4951 929,-266 1052.7988,-215.9307 1062.2529,-159.6576 1187,-112 1257.1058,-85.2172 1345.0834,-73.3965 1391.6374,-68.7103"/>
<polygon fill="#191970" stroke="#191970" points="1392.1143,-72.1806 1401.7342,-67.7413 1391.4456,-65.2127 1392.1143,-72.1806"/>
</g>
<!-- Node28&#45;&gt;Node4 -->
<g id="edge21" class="edge">
<title>Node28&#45;&gt;Node4</title>
<path fill="none" stroke="#191970" d="M1414.7323,-302.2521C1416.7211,-275.2313 1422.1937,-197.0752 1424,-132 1424.4278,-116.5855 1424.4059,-99.1382 1424.2888,-86.0552"/>
<polygon fill="#191970" stroke="#191970" points="1427.7861,-85.801 1424.1703,-75.8424 1420.7866,-85.8823 1427.7861,-85.801"/>
</g>
<!-- Node29&#45;&gt;Node4 -->
<g id="edge24" class="edge">
<title>Node29&#45;&gt;Node4</title>
<path fill="none" stroke="#191970" d="M1914.9682,-302.3565C1836.0178,-264.3491 1546.1615,-124.8097 1453.0243,-79.9726"/>
<polygon fill="#191970" stroke="#191970" points="1454.4218,-76.7609 1443.8933,-75.5768 1451.3854,-83.0681 1454.4218,-76.7609"/>
</g>
<!-- Node30&#45;&gt;Node29 -->
<g id="edge44" class="edge">
<title>Node30&#45;&gt;Node29</title>
<path fill="none" stroke="#191970" d="M909.7356,-369.2335C964.6005,-366.1071 1040.9327,-361.7692 1108,-358 1382.4548,-342.5757 1708.1602,-324.5372 1855.5394,-316.3893"/>
<polygon fill="#191970" stroke="#191970" points="1856.0479,-319.8667 1865.8394,-315.82 1855.6614,-312.8773 1856.0479,-319.8667"/>
</g>
<!-- Node31 -->
<g id="node17" class="node">
<title>Node31</title>
<g id="a_node17"><a xlink:href="Transform_8h.html" target="_top" xlink:title="iDynTree/Core/Transform.h">
<polygon fill="none" stroke="#ff0000" points="1516,-302.5 1516,-321.5 1662,-321.5 1662,-302.5 1516,-302.5"/>
<text text-anchor="middle" x="1589" y="-309.5" font-family="FreeSans.ttf" font-size="10.00" fill="#000000">iDynTree/Core/Transform.h</text>
</a>
</g>
</g>
<!-- Node30&#45;&gt;Node31 -->
<g id="edge26" class="edge">
<title>Node30&#45;&gt;Node31</title>
<path fill="none" stroke="#191970" d="M909.8251,-367.756C947.9015,-364.8337 994.9164,-361.2263 1037,-358 1242.6239,-342.236 1296.84,-342.6679 1505.6396,-322.0998"/>
<polygon fill="#191970" stroke="#191970" points="1506.0937,-325.5721 1515.7005,-321.1044 1505.4044,-318.6061 1506.0937,-325.5721"/>
</g>
<!-- Node33 -->
<g id="node19" class="node">
<title>Node33</title>
<g id="a_node19"><a xlink:href="Twist_8h.html" target="_top" xlink:title="iDynTree/Core/Twist.h">
<polygon fill="none" stroke="#000000" points="1077,-302.5 1077,-321.5 1199,-321.5 1199,-302.5 1077,-302.5"/>
<text text-anchor="middle" x="1138" y="-309.5" font-family="FreeSans.ttf" font-size="10.00" fill="#000000">iDynTree/Core/Twist.h</text>
</a>
</g>
</g>
<!-- Node30&#45;&gt;Node33 -->
<g id="edge33" class="edge">
<title>Node30&#45;&gt;Node33</title>
<path fill="none" stroke="#191970" d="M882.0113,-363.9581C935.6402,-353.073 1023.3276,-335.2751 1080.8562,-323.5985"/>
<polygon fill="#191970" stroke="#191970" points="1081.7745,-326.9836 1090.8784,-321.5643 1080.382,-320.1234 1081.7745,-326.9836"/>
</g>
<!-- Node43 -->
<g id="node21" class="node">
<title>Node43</title>
<g id="a_node21"><a xlink:href="SpatialAcc_8h.html" target="_top" xlink:title="iDynTree/Core/SpatialAcc.h">
<polygon fill="none" stroke="#000000" points="835,-302.5 835,-321.5 983,-321.5 983,-302.5 835,-302.5"/>
<text text-anchor="middle" x="909" y="-309.5" font-family="FreeSans.ttf" font-size="10.00" fill="#000000">iDynTree/Core/SpatialAcc.h</text>
</a>
</g>
</g>
<!-- Node30&#45;&gt;Node43 -->
<g id="edge36" class="edge">
<title>Node30&#45;&gt;Node43</title>
<path fill="none" stroke="#191970" d="M846.5625,-363.8906C858.0079,-354.3786 875.7473,-339.6357 889.397,-328.2917"/>
<polygon fill="#191970" stroke="#191970" points="891.8208,-330.8283 897.2745,-321.7449 887.3467,-325.4447 891.8208,-330.8283"/>
</g>
<!-- Node44 -->
<g id="node22" class="node">
<title>Node44</title>
<g id="a_node22"><a xlink:href="Wrench_8h.html" target="_top" xlink:title="iDynTree/Core/Wrench.h">
<polygon fill="none" stroke="#000000" points="288.5,-302.5 288.5,-321.5 421.5,-321.5 421.5,-302.5 288.5,-302.5"/>
<text text-anchor="middle" x="355" y="-309.5" font-family="FreeSans.ttf" font-size="10.00" fill="#000000">iDynTree/Core/Wrench.h</text>
</a>
</g>
</g>
<!-- Node30&#45;&gt;Node44 -->
<g id="edge38" class="edge">
<title>Node30&#45;&gt;Node44</title>
<path fill="none" stroke="#191970" d="M760.7895,-363.9918C671.4707,-352.5478 522.2422,-333.4279 431.7887,-321.8386"/>
<polygon fill="#191970" stroke="#191970" points="431.9631,-318.3324 421.5993,-320.533 431.0734,-325.2756 431.9631,-318.3324"/>
</g>
<!-- Node49 -->
<g id="node24" class="node">
<title>Node49</title>
<g id="a_node24"><a xlink:href="ArticulatedBodyInertia_8h.html" target="_top" xlink:title="iDynTree/Core/Articulated\lBodyInertia.h">
<polygon fill="none" stroke="#000000" points="803.5,-168.5 803.5,-198.5 944.5,-198.5 944.5,-168.5 803.5,-168.5"/>
<text text-anchor="start" x="811.5" y="-186.5" font-family="FreeSans.ttf" font-size="10.00" fill="#000000">iDynTree/Core/Articulated</text>
<text text-anchor="middle" x="874" y="-175.5" font-family="FreeSans.ttf" font-size="10.00" fill="#000000">BodyInertia.h</text>
</a>
</g>
</g>
<!-- Node30&#45;&gt;Node49 -->
<g id="edge41" class="edge">
<title>Node30&#45;&gt;Node49</title>
<path fill="none" stroke="#191970" d="M884.1406,-363.9181C925.2107,-354.7937 979.0841,-339.8298 992,-322 1024.1406,-277.6314 958.5701,-229.8109 912.9329,-203.5806"/>
<polygon fill="#191970" stroke="#191970" points="914.54,-200.4691 904.1061,-198.6298 911.1157,-206.5743 914.54,-200.4691"/>
</g>
<!-- Node30&#45;&gt;Node50 -->
<g id="edge45" class="edge">
<title>Node30&#45;&gt;Node50</title>
<path fill="none" stroke="#191970" d="M909.7999,-367.4045C947.8698,-364.3926 994.8867,-360.8111 1037,-358 1315.3049,-339.4229 1391.328,-370.527 1670.3585,-321.6666"/>
<polygon fill="#191970" stroke="#191970" points="1671.1338,-325.0838 1680.3708,-319.8945 1669.9138,-318.191 1671.1338,-325.0838"/>
</g>
<!-- Node31&#45;&gt;Node4 -->
<g id="edge32" class="edge">
<title>Node31&#45;&gt;Node4</title>
<path fill="none" stroke="#191970" d="M1582.5318,-302.3565C1557.7865,-265.4636 1468.8757,-132.9057 1436.1779,-84.1561"/>
<polygon fill="#191970" stroke="#191970" points="1438.9006,-81.9321 1430.4235,-75.5768 1433.0872,-85.8314 1438.9006,-81.9321"/>
</g>
<!-- Node31&#45;&gt;Node19 -->
<g id="edge27" class="edge">
<title>Node31&#45;&gt;Node19</title>
<path fill="none" stroke="#191970" d="M1544.6263,-302.4581C1494.1111,-291.5956 1411.5812,-273.8488 1357.2754,-262.1711"/>
<polygon fill="#191970" stroke="#191970" points="1357.9902,-258.7449 1347.4778,-260.0643 1356.5185,-265.5884 1357.9902,-258.7449"/>
</g>
<!-- Node24 -->
<g id="node18" class="node">
<title>Node24</title>
<g id="a_node18"><a xlink:href="MatrixFixSize_8h.html" target="_top" xlink:title="iDynTree/Core/MatrixFixSize.h">
<polygon fill="none" stroke="#ff0000" points="665.5,-112.5 665.5,-131.5 826.5,-131.5 826.5,-112.5 665.5,-112.5"/>
<text text-anchor="middle" x="746" y="-119.5" font-family="FreeSans.ttf" font-size="10.00" fill="#000000">iDynTree/Core/MatrixFixSize.h</text>
</a>
</g>
</g>
<!-- Node31&#45;&gt;Node24 -->
<g id="edge28" class="edge">
<title>Node31&#45;&gt;Node24</title>
<path fill="none" stroke="#191970" d="M1515.5856,-302.9003C1411.5558,-289.9769 1232.9881,-267.6757 1226,-266 1100.6396,-235.9395 1076.8344,-203.8315 953,-168 904.6487,-154.0095 848.8983,-141.8418 807.4446,-133.5407"/>
<polygon fill="#191970" stroke="#191970" points="807.9843,-130.0796 797.4945,-131.5673 806.6225,-136.9459 807.9843,-130.0796"/>
</g>
<!-- Node24&#45;&gt;Node4 -->
<g id="edge30" class="edge">
<title>Node24&#45;&gt;Node4</title>
<path fill="none" stroke="#191970" d="M826.7733,-115.3285C976.3479,-102.9742 1290.4376,-77.0317 1391.7563,-68.6632"/>
<polygon fill="#191970" stroke="#191970" points="1392.288,-72.1313 1401.9659,-67.8199 1391.7117,-65.155 1392.288,-72.1313"/>
</g>
<!-- Node24&#45;&gt;Node6 -->
<g id="edge29" class="edge">
<title>Node24&#45;&gt;Node6</title>
<path fill="none" stroke="#191970" d="M689.4752,-112.4369C631.756,-102.6717 542.2029,-87.5207 481.2034,-77.2006"/>
<polygon fill="#191970" stroke="#191970" points="481.7355,-73.7409 471.2917,-75.5237 480.5677,-80.6429 481.7355,-73.7409"/>
</g>
<!-- Node24&#45;&gt;Node17 -->
<g id="edge31" class="edge">
<title>Node24&#45;&gt;Node17</title>
<path fill="none" stroke="#191970" d="M707.5768,-112.4369C666.1535,-102.1271 600.61,-85.814 559.253,-75.5207"/>
<polygon fill="#191970" stroke="#191970" points="559.8383,-72.0597 549.289,-73.0408 558.1476,-78.8525 559.8383,-72.0597"/>
</g>
<!-- Node34 -->
<g id="node20" class="node">
<title>Node34</title>
<g id="a_node20"><a xlink:href="SpatialMotionVector_8h.html" target="_top" xlink:title="iDynTree/Core/SpatialMotion\lVector.h">
<polygon fill="none" stroke="#ff0000" points="765.5,-235.5 765.5,-265.5 920.5,-265.5 920.5,-235.5 765.5,-235.5"/>
<text text-anchor="start" x="773.5" y="-253.5" font-family="FreeSans.ttf" font-size="10.00" fill="#000000">iDynTree/Core/SpatialMotion</text>
<text text-anchor="middle" x="843" y="-242.5" font-family="FreeSans.ttf" font-size="10.00" fill="#000000">Vector.h</text>
</a>
</g>
</g>
<!-- Node33&#45;&gt;Node34 -->
<g id="edge34" class="edge">
<title>Node33&#45;&gt;Node34</title>
<path fill="none" stroke="#191970" d="M1092.2299,-302.4581C1047.6666,-293.1678 978.9484,-278.8418 924.9467,-267.5838"/>
<polygon fill="#191970" stroke="#191970" points="925.5477,-264.1339 915.0439,-265.5193 924.1191,-270.9866 925.5477,-264.1339"/>
</g>
<!-- Node34&#45;&gt;Node5 -->
<g id="edge35" class="edge">
<title>Node34&#45;&gt;Node5</title>
<path fill="none" stroke="#191970" d="M773.5844,-235.4029C734.9815,-226.2953 686.3292,-213.6325 644,-199 590.6373,-180.5534 530.8861,-152.8318 496.531,-136.1686"/>
<polygon fill="#191970" stroke="#191970" points="497.6517,-132.8209 487.1301,-131.5769 494.5794,-139.1107 497.6517,-132.8209"/>
</g>
<!-- Node43&#45;&gt;Node34 -->
<g id="edge37" class="edge">
<title>Node43&#45;&gt;Node34</title>
<path fill="none" stroke="#191970" d="M898.6875,-302.3906C890.086,-294.3756 877.4988,-282.6466 866.4666,-272.3666"/>
<polygon fill="#191970" stroke="#191970" points="868.8476,-269.8012 859.1454,-265.5446 864.0755,-274.9225 868.8476,-269.8012"/>
</g>
<!-- Node45 -->
<g id="node23" class="node">
<title>Node45</title>
<g id="a_node23"><a xlink:href="SpatialForceVector_8h.html" target="_top" xlink:title="iDynTree/Core/SpatialForce\lVector.h">
<polygon fill="none" stroke="#ff0000" points="394,-235.5 394,-265.5 542,-265.5 542,-235.5 394,-235.5"/>
<text text-anchor="start" x="402" y="-253.5" font-family="FreeSans.ttf" font-size="10.00" fill="#000000">iDynTree/Core/SpatialForce</text>
<text text-anchor="middle" x="468" y="-242.5" font-family="FreeSans.ttf" font-size="10.00" fill="#000000">Vector.h</text>
</a>
</g>
</g>
<!-- Node44&#45;&gt;Node45 -->
<g id="edge39" class="edge">
<title>Node44&#45;&gt;Node45</title>
<path fill="none" stroke="#191970" d="M372.6563,-302.3906C388.3034,-293.8747 411.6544,-281.166 431.3304,-270.4573"/>
<polygon fill="#191970" stroke="#191970" points="433.2468,-273.3992 440.3571,-265.5446 429.9005,-267.2508 433.2468,-273.3992"/>
</g>
<!-- Node45&#45;&gt;Node5 -->
<g id="edge40" class="edge">
<title>Node45&#45;&gt;Node5</title>
<path fill="none" stroke="#191970" d="M468,-235.2548C468,-211.9744 468,-167.5607 468,-141.8117"/>
<polygon fill="#191970" stroke="#191970" points="471.5001,-141.7358 468,-131.7358 464.5001,-141.7358 471.5001,-141.7358"/>
</g>
<!-- Node49&#45;&gt;Node4 -->
<g id="edge43" class="edge">
<title>Node49&#45;&gt;Node4</title>
<path fill="none" stroke="#191970" d="M886.6444,-168.4237C901.8704,-151.4448 929.1481,-124.5852 959,-112 1037.466,-78.9197 1299.9558,-69.1601 1391.8753,-66.7189"/>
<polygon fill="#191970" stroke="#191970" points="1392.0617,-70.2154 1401.9695,-66.4624 1391.8838,-63.2177 1392.0617,-70.2154"/>
</g>
<!-- Node49&#45;&gt;Node24 -->
<g id="edge42" class="edge">
<title>Node49&#45;&gt;Node24</title>
<path fill="none" stroke="#191970" d="M842.6877,-168.4554C821.9862,-158.509 795.0477,-145.5659 774.8647,-135.8686"/>
<polygon fill="#191970" stroke="#191970" points="776.3648,-132.7064 765.8355,-131.5303 773.3333,-139.0159 776.3648,-132.7064"/>
</g>
<!-- Node51&#45;&gt;Node29 -->
<g id="edge53" class="edge">
<title>Node51&#45;&gt;Node29</title>
<path fill="none" stroke="#191970" d="M2263.6253,-436.1512C2366.8685,-428.7261 2555.7985,-412.1322 2576,-389 2585.0628,-378.6225 2585.3872,-368.085 2576,-358 2557.1296,-337.7269 2181.7903,-321.2253 2014.3997,-314.8438"/>
<polygon fill="#191970" stroke="#191970" points="2014.2896,-311.3372 2004.1643,-314.4563 2014.0247,-318.3322 2014.2896,-311.3372"/>
</g>
<!-- Node51&#45;&gt;Node31 -->
<g id="edge52" class="edge">
<title>Node51&#45;&gt;Node31</title>
<path fill="none" stroke="#191970" d="M2130.3863,-434.5704C1998.703,-422.7216 1716.0127,-396.6039 1696,-389 1660.2734,-375.4256 1625.6268,-346.7962 1605.8534,-328.5291"/>
<polygon fill="#191970" stroke="#191970" points="1608.234,-325.9632 1598.5634,-321.6353 1603.4243,-331.0492 1608.234,-325.9632"/>
</g>
<!-- Node51&#45;&gt;Node50 -->
<g id="edge60" class="edge">
<title>Node51&#45;&gt;Node50</title>
<path fill="none" stroke="#191970" d="M2181.0716,-430.7994C2151.4815,-413.2567 2085.5277,-376.3781 2025,-358 1923.5729,-327.2036 1797.7039,-316.8247 1738.2099,-313.4886"/>
<polygon fill="#191970" stroke="#191970" points="1738.0649,-309.9762 1727.8943,-312.9444 1737.696,-316.9665 1738.0649,-309.9762"/>
</g>
<!-- Node52 -->
<g id="node27" class="node">
<title>Node52</title>
<g id="a_node27"><a xlink:href="IJoint_8h.html" target="_top" xlink:title="iDynTree/Model/IJoint.h">
<polygon fill="none" stroke="#000000" points="2297,-364 2297,-383 2425,-383 2425,-364 2297,-364"/>
<text text-anchor="middle" x="2361" y="-371" font-family="FreeSans.ttf" font-size="10.00" fill="#000000">iDynTree/Model/IJoint.h</text>
</a>
</g>
</g>
<!-- Node51&#45;&gt;Node52 -->
<g id="edge48" class="edge">
<title>Node51&#45;&gt;Node52</title>
<path fill="none" stroke="#191970" d="M2220.4972,-430.9005C2248.7508,-419.3579 2296.3392,-399.9163 2328.2017,-386.8993"/>
<polygon fill="#191970" stroke="#191970" points="2329.6128,-390.1037 2337.5464,-383.0817 2326.9654,-383.6236 2329.6128,-390.1037"/>
</g>
<!-- Node53 -->
<g id="node28" class="node">
<title>Node53</title>
<g id="a_node28"><a xlink:href="Link_8h.html" target="_top" xlink:title="iDynTree/Model/Link.h">
<polygon fill="none" stroke="#ff0000" points="2443,-364 2443,-383 2567,-383 2567,-364 2443,-364"/>
<text text-anchor="middle" x="2505" y="-371" font-family="FreeSans.ttf" font-size="10.00" fill="#000000">iDynTree/Model/Link.h</text>
</a>
</g>
</g>
<!-- Node51&#45;&gt;Node53 -->
<g id="edge50" class="edge">
<title>Node51&#45;&gt;Node53</title>
<path fill="none" stroke="#191970" d="M2241.1196,-430.9261C2288.7168,-420.5945 2366.7336,-403.6509 2434,-389 2439.6861,-387.7615 2445.6282,-386.4662 2451.5493,-385.1746"/>
<polygon fill="#191970" stroke="#191970" points="2452.4215,-388.5667 2461.4455,-383.0153 2450.9292,-381.7276 2452.4215,-388.5667"/>
</g>
<!-- Node58 -->
<g id="node29" class="node">
<title>Node58</title>
<g id="a_node29"><a xlink:href="SolidShapes_8h.html" target="_top" xlink:title="iDynTree/Model/SolidShapes.h">
<polygon fill="none" stroke="#000000" points="2115.5,-364 2115.5,-383 2278.5,-383 2278.5,-364 2115.5,-364"/>
<text text-anchor="middle" x="2197" y="-371" font-family="FreeSans.ttf" font-size="10.00" fill="#000000">iDynTree/Model/SolidShapes.h</text>
</a>
</g>
</g>
<!-- Node51&#45;&gt;Node58 -->
<g id="edge54" class="edge">
<title>Node51&#45;&gt;Node58</title>
<path fill="none" stroke="#191970" d="M2197,-430.9005C2197,-421.149 2197,-405.7597 2197,-393.3695"/>
<polygon fill="#191970" stroke="#191970" points="2200.5001,-393.0816 2197,-383.0817 2193.5001,-393.0817 2200.5001,-393.0816"/>
</g>
<!-- Node59 -->
<g id="node30" class="node">
<title>Node59</title>
<polygon fill="none" stroke="#bfbfbf" points="2226.5,-302.5 2226.5,-321.5 2275.5,-321.5 2275.5,-302.5 2226.5,-302.5"/>
<text text-anchor="middle" x="2251" y="-309.5" font-family="FreeSans.ttf" font-size="10.00" fill="#000000">cstdlib</text>
</g>
<!-- Node51&#45;&gt;Node59 -->
<g id="edge59" class="edge">
<title>Node51&#45;&gt;Node59</title>
<path fill="none" stroke="#191970" d="M2263.5771,-436.932C2374.3308,-430.3096 2586.5485,-414.4326 2609,-389 2618.1182,-378.6711 2618.1004,-368.3446 2609,-358 2587.8173,-333.9214 2371.5899,-318.9373 2285.8,-313.8998"/>
<polygon fill="#191970" stroke="#191970" points="2285.9546,-310.403 2275.7697,-313.3215 2285.5516,-317.3914 2285.9546,-310.403"/>
</g>
<!-- Node52&#45;&gt;Node29 -->
<g id="edge49" class="edge">
<title>Node52&#45;&gt;Node29</title>
<path fill="none" stroke="#191970" d="M2319.0335,-363.9919C2308.9028,-361.8623 2298.0888,-359.7256 2288,-358 2194.5191,-342.011 2086.2709,-328.6621 2014.5481,-320.5332"/>
<polygon fill="#191970" stroke="#191970" points="2014.566,-317.0132 2004.2371,-319.3721 2013.7826,-323.9693 2014.566,-317.0132"/>
</g>
<!-- Node53&#45;&gt;Node29 -->
<g id="edge51" class="edge">
<title>Node53&#45;&gt;Node29</title>
<path fill="none" stroke="#191970" d="M2465.357,-363.9434C2455.1831,-361.7397 2444.2242,-359.5811 2434,-358 2286.8141,-335.2382 2113.3355,-322.3484 2014.5479,-316.3062"/>
<polygon fill="#191970" stroke="#191970" points="2014.5377,-312.7993 2004.345,-315.6903 2014.1159,-319.7865 2014.5377,-312.7993"/>
</g>
<!-- Node58&#45;&gt;Node4 -->
<g id="edge56" class="edge">
<title>Node58&#45;&gt;Node4</title>
<path fill="none" stroke="#191970" d="M2189.3525,-363.9529C2174.24,-344.0916 2142,-296.3479 2142,-250.5 2142,-250.5 2142,-250.5 2142,-183.5 2142,-113.0231 1596.2715,-76.1244 1456.3669,-67.8229"/>
<polygon fill="#191970" stroke="#191970" points="1456.4631,-64.3226 1446.2756,-67.2322 1456.054,-71.3107 1456.4631,-64.3226"/>
</g>
<!-- Node58&#45;&gt;Node31 -->
<g id="edge58" class="edge">
<title>Node58&#45;&gt;Node31</title>
<path fill="none" stroke="#191970" d="M2115.099,-366.0314C2013.8757,-356.6733 1836.0702,-339.8205 1672.5609,-322.0397"/>
<polygon fill="#191970" stroke="#191970" points="1672.6308,-318.5267 1662.3103,-320.9217 1671.8718,-325.4854 1672.6308,-318.5267"/>
</g>
<!-- Node58&#45;&gt;Node50 -->
<g id="edge57" class="edge">
<title>Node58&#45;&gt;Node50</title>
<path fill="none" stroke="#191970" d="M2120.7796,-363.9918C2011.8456,-350.4026 1816.1486,-325.9901 1737.7907,-316.2153"/>
<polygon fill="#191970" stroke="#191970" points="1737.8904,-312.7007 1727.534,-314.9358 1737.0238,-319.6468 1737.8904,-312.7007"/>
</g>
<!-- Node58&#45;&gt;Node59 -->
<g id="edge55" class="edge">
<title>Node58&#45;&gt;Node59</title>
<path fill="none" stroke="#191970" d="M2205.4375,-363.8906C2213.5531,-354.6478 2226.0055,-340.466 2235.8424,-329.2628"/>
<polygon fill="#191970" stroke="#191970" points="2238.4755,-331.5686 2242.4435,-321.7449 2233.2154,-326.95 2238.4755,-331.5686"/>
</g>
<!-- Node60&#45;&gt;Node4 -->
<g id="edge64" class="edge">
<title>Node60&#45;&gt;Node4</title>
<path fill="none" stroke="#191970" d="M2767.7696,-363.8858C2753.4814,-343.9007 2723,-295.9408 2723,-250.5 2723,-250.5 2723,-250.5 2723,-183.5 2723,-147.513 2715.502,-131.0968 2685,-112 2631.3831,-78.4314 1647.726,-67.9888 1456.1756,-66.2698"/>
<polygon fill="#191970" stroke="#191970" points="1456.2031,-62.77 1446.1726,-66.1816 1456.1413,-69.7698 1456.2031,-62.77"/>
</g>
<!-- Node60&#45;&gt;Node7 -->
<g id="edge65" class="edge">
<title>Node60&#45;&gt;Node7</title>
<path fill="none" stroke="#191970" d="M2774.0849,-363.9414C2772.1874,-343.269 2768,-292.8497 2768,-250.5 2768,-250.5 2768,-250.5 2768,-122 2768,-64.6931 1851.4387,-20.443 1654.8438,-11.6109"/>
<polygon fill="#191970" stroke="#191970" points="1654.88,-8.1091 1644.7338,-11.1595 1654.5677,-15.1021 1654.88,-8.1091"/>
</g>
<!-- Node60&#45;&gt;Node29 -->
<g id="edge62" class="edge">
<title>Node60&#45;&gt;Node29</title>
<path fill="none" stroke="#191970" d="M2699.4216,-366.0419C2671.0753,-363.3502 2638.5721,-360.3894 2609,-358 2394.3752,-340.6586 2140.949,-324.5322 2014.7544,-316.7967"/>
<polygon fill="#191970" stroke="#191970" points="2014.6118,-313.2815 2004.4168,-316.1644 2014.1844,-320.2685 2014.6118,-313.2815"/>
</g>
<!-- Node60&#45;&gt;Node50 -->
<g id="edge63" class="edge">
<title>Node60&#45;&gt;Node50</title>
<path fill="none" stroke="#191970" d="M2699.4381,-367.1192C2662.2757,-364.1075 2616.8074,-360.6103 2576,-358 2256.6967,-337.5751 2176.4244,-340.4343 1857,-322 1815.9931,-319.6334 1768.8329,-316.4866 1737.836,-314.36"/>
<polygon fill="#191970" stroke="#191970" points="1737.7997,-310.8493 1727.5826,-313.6533 1737.3183,-317.8327 1737.7997,-310.8493"/>
</g>
<!-- Node61&#45;&gt;Node19 -->
<g id="edge67" class="edge">
<title>Node61&#45;&gt;Node19</title>
<path fill="none" stroke="#191970" d="M1098.4875,-430.922C1089.6842,-414.2185 1075.0801,-379.4947 1092,-358 1134.1387,-304.4676 1182.8042,-357.4207 1241,-322 1262.8221,-308.7181 1281.0074,-285.1946 1291.9237,-268.7697"/>
<polygon fill="#191970" stroke="#191970" points="1295.0582,-270.3638 1297.4837,-260.0503 1289.156,-266.6002 1295.0582,-270.3638"/>
</g>
<!-- Node61&#45;&gt;Node29 -->
<g id="edge69" class="edge">
<title>Node61&#45;&gt;Node29</title>
<path fill="none" stroke="#191970" d="M1149.2199,-430.9952C1228.903,-414.4809 1399.658,-380.1405 1545,-358 1652.0767,-341.6886 1776.4493,-327.9069 1855.4144,-319.7969"/>
<polygon fill="#191970" stroke="#191970" points="1856.1777,-323.2372 1865.7702,-318.7391 1855.4663,-316.2734 1856.1777,-323.2372"/>
</g>
<!-- Node61&#45;&gt;Node30 -->
<g id="edge70" class="edge">
<title>Node61&#45;&gt;Node30</title>
<path fill="none" stroke="#191970" d="M1065.7445,-430.9717C1017.778,-419.0246 935.5163,-398.5357 883.2696,-385.5225"/>
<polygon fill="#191970" stroke="#191970" points="884.1085,-382.1246 873.559,-383.1039 882.4166,-388.9171 884.1085,-382.1246"/>
</g>
<!-- Node61&#45;&gt;Node44 -->
<g id="edge68" class="edge">
<title>Node61&#45;&gt;Node44</title>
<path fill="none" stroke="#191970" d="M1049.9542,-430.9851C1035.6965,-428.7403 1020.2992,-426.5518 1006,-425 938.9417,-417.7226 457.4825,-424.2923 400,-389 379.0426,-376.1328 366.7685,-349.5927 360.4701,-331.2985"/>
<polygon fill="#191970" stroke="#191970" points="363.7727,-330.1335 357.4317,-321.6457 357.0957,-332.2352 363.7727,-330.1335"/>
</g>
<!-- Node61&#45;&gt;Node50 -->
<g id="edge71" class="edge">
<title>Node61&#45;&gt;Node50</title>
<path fill="none" stroke="#191970" d="M1100.8487,-430.7479C1095.9397,-413.4545 1088.8835,-377.4133 1108,-358 1150.263,-315.0807 1574.22,-331.7127 1670.3204,-321.2853"/>
<polygon fill="#191970" stroke="#191970" points="1670.9513,-324.7311 1680.367,-319.8737 1669.9773,-317.7992 1670.9513,-324.7311"/>
</g>
<!-- Node62&#45;&gt;Node29 -->
<g id="edge73" class="edge">
<title>Node62&#45;&gt;Node29</title>
<path fill="none" stroke="#191970" d="M1807.6857,-497.9253C1829.8972,-479.1701 1878.5287,-435.3598 1907,-389 1918.1288,-370.8789 1925.8086,-347.6628 1930.2723,-331.4824"/>
<polygon fill="#191970" stroke="#191970" points="1933.7248,-332.1126 1932.8517,-321.5538 1926.9496,-330.3525 1933.7248,-332.1126"/>
</g>
<!-- Node62&#45;&gt;Node50 -->
<g id="edge74" class="edge">
<title>Node62&#45;&gt;Node50</title>
<path fill="none" stroke="#191970" d="M1783.3474,-497.8006C1760.63,-479.4863 1713.6529,-437.2906 1696,-389 1689.1764,-370.3337 1692.9052,-347.5399 1697.2724,-331.6153"/>
<polygon fill="#191970" stroke="#191970" points="1700.6895,-332.41 1700.2759,-321.8232 1693.9972,-330.3572 1700.6895,-332.41"/>
</g>
<!-- Node63&#45;&gt;Node5 -->
<g id="edge76" class="edge">
<title>Node63&#45;&gt;Node5</title>
<path fill="none" stroke="#191970" d="M1199.611,-363.5805C1208.6649,-348.6311 1222.2639,-320.1495 1208,-302 1205.2507,-298.5018 683.3996,-173.4963 517.805,-133.9009"/>
<polygon fill="#191970" stroke="#191970" points="518.4201,-130.4494 507.8803,-131.528 516.7923,-137.2575 518.4201,-130.4494"/>
</g>
<!-- Node63&#45;&gt;Node28 -->
<g id="edge77" class="edge">
<title>Node63&#45;&gt;Node28</title>
<path fill="none" stroke="#191970" d="M1227.5313,-363.8906C1265.9682,-353.1944 1328.1744,-335.8836 1370.0536,-324.2294"/>
<polygon fill="#191970" stroke="#191970" points="1371.0157,-327.5948 1379.7112,-321.5419 1369.1389,-320.851 1371.0157,-327.5948"/>
</g>
<!-- Node63&#45;&gt;Node45 -->
<g id="edge78" class="edge">
<title>Node63&#45;&gt;Node45</title>
<path fill="none" stroke="#191970" d="M1171.5062,-363.883C1135.2808,-348.1275 1059.4128,-317.0653 992,-302 839.4028,-267.8979 656.7832,-256.3756 552.391,-252.4837"/>
<polygon fill="#191970" stroke="#191970" points="552.3454,-248.9799 542.2265,-252.1197 552.0949,-255.9754 552.3454,-248.9799"/>
</g>
<!-- Node63&#45;&gt;Node50 -->
<g id="edge79" class="edge">
<title>Node63&#45;&gt;Node50</title>
<path fill="none" stroke="#191970" d="M1268.7794,-364.0947C1285.9438,-362.0281 1304.0934,-359.893 1321,-358 1473.2181,-340.9567 1515.949,-352.328 1670.4895,-321.7384"/>
<polygon fill="#191970" stroke="#191970" points="1671.2293,-325.1598 1680.3455,-319.7612 1669.8524,-318.2965 1671.2293,-325.1598"/>
</g>
<!-- Node64&#45;&gt;Node28 -->
<g id="edge83" class="edge">
<title>Node64&#45;&gt;Node28</title>
<path fill="none" stroke="#191970" d="M1519.7632,-425.2548C1497.2429,-401.1393 1453.5457,-354.3468 1429.9824,-329.1145"/>
<polygon fill="#191970" stroke="#191970" points="1432.4751,-326.6556 1423.0918,-321.7358 1427.359,-331.4333 1432.4751,-326.6556"/>
</g>
<!-- Node64&#45;&gt;Node29 -->
<g id="edge84" class="edge">
<title>Node64&#45;&gt;Node29</title>
<path fill="none" stroke="#191970" d="M1611.0311,-435.8053C1698.3541,-429.3079 1834.2615,-415.2825 1878,-389 1900.7345,-375.3388 1917.2632,-348.8187 1926.4959,-330.761"/>
<polygon fill="#191970" stroke="#191970" points="1929.6584,-332.2605 1930.8676,-321.7349 1923.3585,-329.2092 1929.6584,-332.2605"/>
</g>
<!-- Node64&#45;&gt;Node30 -->
<g id="edge85" class="edge">
<title>Node64&#45;&gt;Node30</title>
<path fill="none" stroke="#191970" d="M1456.8599,-433.106C1324.887,-420.4563 1056.7885,-394.7587 919.766,-381.6249"/>
<polygon fill="#191970" stroke="#191970" points="920.0179,-378.1331 909.7295,-380.6629 919.3499,-385.1012 920.0179,-378.1331"/>
</g>
<!-- Node64&#45;&gt;Node31 -->
<g id="edge81" class="edge">
<title>Node64&#45;&gt;Node31</title>
<path fill="none" stroke="#191970" d="M1534.3615,-425.4652C1535.2976,-408.3454 1538.4736,-379.9144 1549,-358 1554.1551,-347.2679 1562.5041,-337.0848 1570.2443,-329.0408"/>
<polygon fill="#191970" stroke="#191970" points="1572.9638,-331.2754 1577.6408,-321.7687 1568.0562,-326.2838 1572.9638,-331.2754"/>
</g>
<!-- Node64&#45;&gt;Node33 -->
<g id="edge82" class="edge">
<title>Node64&#45;&gt;Node33</title>
<path fill="none" stroke="#191970" d="M1487.4093,-425.3816C1408.6188,-399.8144 1250.4852,-348.5009 1177.0863,-324.6833"/>
<polygon fill="#191970" stroke="#191970" points="1177.901,-321.2681 1167.3089,-321.5106 1175.7403,-327.9263 1177.901,-321.2681"/>
</g>
<!-- Node64&#45;&gt;Node50 -->
<g id="edge87" class="edge">
<title>Node64&#45;&gt;Node50</title>
<path fill="none" stroke="#191970" d="M1548.6183,-425.4577C1565.935,-408.0775 1596.0915,-379.1604 1625,-358 1641.1204,-346.2002 1660.4877,-334.883 1676.0115,-326.4266"/>
<polygon fill="#191970" stroke="#191970" points="1677.9527,-329.3574 1685.1172,-321.5522 1674.6491,-323.186 1677.9527,-329.3574"/>
</g>
<!-- Node64&#45;&gt;Node63 -->
<g id="edge86" class="edge">
<title>Node64&#45;&gt;Node63</title>
<path fill="none" stroke="#191970" d="M1457.4729,-425.4639C1395.0466,-413.1983 1308.178,-396.1303 1251.2888,-384.9526"/>
<polygon fill="#191970" stroke="#191970" points="1251.8649,-381.499 1241.3777,-383.0053 1250.5152,-388.3677 1251.8649,-381.499"/>
</g>
<!-- Node65&#45;&gt;Node29 -->
<g id="edge90" class="edge">
<title>Node65&#45;&gt;Node29</title>
<path fill="none" stroke="#191970" d="M1823.2049,-358.4554C1847.4658,-348.374 1879.1356,-335.2139 1902.5712,-325.4755"/>
<polygon fill="#191970" stroke="#191970" points="1904.1739,-328.5997 1912.0653,-321.5303 1901.4877,-322.1356 1904.1739,-328.5997"/>
</g>
<!-- Node65&#45;&gt;Node50 -->
<g id="edge89" class="edge">
<title>Node65&#45;&gt;Node50</title>
<path fill="none" stroke="#191970" d="M1766.4831,-358.2977C1754.0018,-349.0495 1738.0841,-337.2551 1725.4386,-327.8853"/>
<polygon fill="#191970" stroke="#191970" points="1727.4078,-324.9882 1717.2894,-321.8469 1723.2404,-330.6126 1727.4078,-324.9882"/>
</g>
<!-- Node66&#45;&gt;Node4 -->
<g id="edge92" class="edge">
<title>Node66&#45;&gt;Node4</title>
<path fill="none" stroke="#191970" d="M2025.3399,-497.9624C2184.7289,-472.9872 2601.3498,-406.4031 2626,-389 2658.381,-366.1389 2671,-351.6379 2671,-312 2671,-312 2671,-312 2671,-183.5 2671,-120.6086 1652.3567,-75.4183 1456.3931,-67.3066"/>
<polygon fill="#191970" stroke="#191970" points="1456.3086,-63.8003 1446.1733,-66.8864 1456.021,-70.7944 1456.3086,-63.8003"/>
</g>
<!-- Node66&#45;&gt;Node28 -->
<g id="edge95" class="edge">
<title>Node66&#45;&gt;Node28</title>
<path fill="none" stroke="#191970" d="M1937.1,-497.9383C1846.7242,-465.8138 1553.8812,-361.7214 1450.5282,-324.9841"/>
<polygon fill="#191970" stroke="#191970" points="1451.4429,-321.5948 1440.8482,-321.5433 1449.0984,-328.1905 1451.4429,-321.5948"/>
</g>
<!-- Node66&#45;&gt;Node29 -->
<g id="edge97" class="edge">
<title>Node66&#45;&gt;Node29</title>
<path fill="none" stroke="#191970" d="M1973.512,-497.8647C1982.3236,-488.2045 1994.8235,-472.4403 2000,-456 2004.1379,-442.8583 2001.3182,-438.7146 2000,-425 1997.0978,-394.806 2002.0482,-384.3373 1987,-358 1980.1796,-346.0629 1969.1139,-335.6312 1958.9399,-327.7331"/>
<polygon fill="#191970" stroke="#191970" points="1960.8537,-324.7966 1950.7162,-321.7172 1956.7207,-330.4463 1960.8537,-324.7966"/>
</g>
<!-- Node66&#45;&gt;Node50 -->
<g id="edge93" class="edge">
<title>Node66&#45;&gt;Node50</title>
<path fill="none" stroke="#191970" d="M1956.9407,-497.85C1949.6101,-487.6649 1937.9795,-471.0354 1929,-456 1903.8241,-413.8451 1916.3422,-388.6715 1878,-358 1856.4841,-340.7885 1782.0331,-325.4599 1737.7936,-317.5884"/>
<polygon fill="#191970" stroke="#191970" points="1738.2317,-314.112 1727.779,-315.8419 1737.029,-321.008 1738.2317,-314.112"/>
</g>
<!-- Node66&#45;&gt;Node51 -->
<g id="edge96" class="edge">
<title>Node66&#45;&gt;Node51</title>
<path fill="none" stroke="#191970" d="M1997.3832,-497.9005C2038.5621,-486.0594 2108.6498,-465.9054 2153.8689,-452.9025"/>
<polygon fill="#191970" stroke="#191970" points="2155.0354,-456.209 2163.6787,-450.0817 2153.1009,-449.4816 2155.0354,-456.209"/>
</g>
<!-- Node12 -->
<g id="node38" class="node">
<title>Node12</title>
<polygon fill="none" stroke="#bfbfbf" points="1937.5,-431 1937.5,-450 1990.5,-450 1990.5,-431 1937.5,-431"/>
<text text-anchor="middle" x="1964" y="-438" font-family="FreeSans.ttf" font-size="10.00" fill="#000000">iterator</text>
</g>
<!-- Node66&#45;&gt;Node12 -->
<g id="edge94" class="edge">
<title>Node66&#45;&gt;Node12</title>
<path fill="none" stroke="#191970" d="M1964,-497.9005C1964,-488.149 1964,-472.7597 1964,-460.3695"/>
<polygon fill="#191970" stroke="#191970" points="1967.5001,-460.0816 1964,-450.0817 1960.5001,-460.0817 1967.5001,-460.0816"/>
</g>
<!-- Node67&#45;&gt;Node5 -->
<g id="edge102" class="edge">
<title>Node67&#45;&gt;Node5</title>
<path fill="none" stroke="#191970" d="M409.3339,-364.1475C356.8778,-356.2154 295.3019,-342.7593 279,-322 247.8492,-282.3316 320.7021,-283.4194 342,-266 389.5657,-227.0964 434.1787,-169.2292 455.271,-140.1162"/>
<polygon fill="#191970" stroke="#191970" points="458.2952,-141.9044 461.2667,-131.7348 452.6019,-137.8317 458.2952,-141.9044"/>
</g>
<!-- Node67&#45;&gt;Node6 -->
<g id="edge108" class="edge">
<title>Node67&#45;&gt;Node6</title>
<path fill="none" stroke="#191970" d="M413.1371,-363.9503C309.1356,-349.2325 132.2596,-317.224 95,-266 79.8287,-245.1428 101.822,-178.7935 111,-168 143.3124,-129.9998 279.3532,-95.2188 358.0655,-77.771"/>
<polygon fill="#191970" stroke="#191970" points="359.2873,-81.0864 368.3063,-75.527 357.7889,-74.2486 359.2873,-81.0864"/>
</g>
<!-- Node67&#45;&gt;Node27 -->
<g id="edge103" class="edge">
<title>Node67&#45;&gt;Node27</title>
<path fill="none" stroke="#191970" d="M527.7021,-363.9581C570.1772,-353.2082 639.292,-335.7162 685.4413,-324.0365"/>
<polygon fill="#191970" stroke="#191970" points="686.3738,-327.4109 695.2094,-321.5643 684.6563,-320.6248 686.3738,-327.4109"/>
</g>
<!-- Node67&#45;&gt;Node28 -->
<g id="edge101" class="edge">
<title>Node67&#45;&gt;Node28</title>
<path fill="none" stroke="#191970" d="M570.7854,-368.1231C741.5774,-356.7554 1138.4988,-330.3369 1320.1744,-318.2449"/>
<polygon fill="#191970" stroke="#191970" points="1320.4992,-321.7311 1330.2446,-317.5746 1320.0342,-314.7466 1320.4992,-321.7311"/>
</g>
<!-- Node67&#45;&gt;Node31 -->
<g id="edge107" class="edge">
<title>Node67&#45;&gt;Node31</title>
<path fill="none" stroke="#191970" d="M570.5263,-368.4731C622.11,-365.3135 690.4878,-361.2375 751,-358 1083.6201,-340.2044 1170.1361,-350.18 1505.7088,-322.0528"/>
<polygon fill="#191970" stroke="#191970" points="1506.0396,-325.5374 1515.7101,-321.2095 1505.4514,-318.5622 1506.0396,-325.5374"/>
</g>
<!-- Node67&#45;&gt;Node24 -->
<g id="edge104" class="edge">
<title>Node67&#45;&gt;Node24</title>
<path fill="none" stroke="#191970" d="M492.205,-363.9223C495.8932,-349.4195 504.3851,-321.5133 519,-302 549.3633,-261.4601 672.4565,-173.2947 723.5757,-137.5353"/>
<polygon fill="#191970" stroke="#191970" points="725.7685,-140.2732 731.9694,-131.6826 721.7647,-134.5312 725.7685,-140.2732"/>
</g>
<!-- Node67&#45;&gt;Node34 -->
<g id="edge105" class="edge">
<title>Node67&#45;&gt;Node34</title>
<path fill="none" stroke="#191970" d="M494.4942,-363.7625C502.3281,-347.9771 520.0624,-317.0541 545,-302 562.8883,-291.2013 673.7619,-273.9184 755.0594,-262.3913"/>
<polygon fill="#191970" stroke="#191970" points="755.9054,-265.8067 765.3187,-260.9448 754.928,-258.8753 755.9054,-265.8067"/>
</g>
<!-- Node67&#45;&gt;Node45 -->
<g id="edge106" class="edge">
<title>Node67&#45;&gt;Node45</title>
<path fill="none" stroke="#191970" d="M486.2861,-363.7901C482.5379,-353.5561 476.9013,-336.8872 474,-322 471.0481,-306.8531 469.5481,-289.6223 468.786,-275.8715"/>
<polygon fill="#191970" stroke="#191970" points="472.2739,-275.5252 468.3195,-265.6961 465.2813,-275.8459 472.2739,-275.5252"/>
</g>
<!-- Node68 -->
<g id="node40" class="node">
<title>Node68</title>
<polygon fill="none" stroke="#bfbfbf" points="554.5,-302.5 554.5,-321.5 631.5,-321.5 631.5,-302.5 554.5,-302.5"/>
<text text-anchor="middle" x="593" y="-309.5" font-family="FreeSans.ttf" font-size="10.00" fill="#000000">Eigen/Dense</text>
</g>
<!-- Node67&#45;&gt;Node68 -->
<g id="edge100" class="edge">
<title>Node67&#45;&gt;Node68</title>
<path fill="none" stroke="#191970" d="M506.0938,-363.8906C522.7228,-353.9616 548.8976,-338.333 568.1794,-326.8201"/>
<polygon fill="#191970" stroke="#191970" points="570.2276,-329.6736 577.0193,-321.5419 566.639,-323.6634 570.2276,-329.6736"/>
</g>
<!-- Node69&#45;&gt;Node68 -->
<g id="edge110" class="edge">
<title>Node69&#45;&gt;Node68</title>
<path fill="none" stroke="#191970" d="M604.4049,-497.8051C602.5375,-467.3813 596.7667,-373.3666 594.2243,-331.9452"/>
<polygon fill="#191970" stroke="#191970" points="597.7048,-331.5201 593.5987,-321.7534 590.718,-331.9491 597.7048,-331.5201"/>
</g>
<!-- Node57&#45;&gt;Node45 -->
<g id="edge112" class="edge">
<title>Node57&#45;&gt;Node45</title>
<path fill="none" stroke="#191970" d="M142.6249,-497.9814C155.6057,-465.215 203.0759,-356.1332 279,-302 309.4959,-280.2567 348.7308,-267.6901 383.5422,-260.4287"/>
<polygon fill="#191970" stroke="#191970" points="384.5723,-263.7933 393.7091,-258.4297 383.2217,-256.9248 384.5723,-263.7933"/>
</g>
<!-- Node70&#45;&gt;Node5 -->
<g id="edge114" class="edge">
<title>Node70&#45;&gt;Node5</title>
<path fill="none" stroke="#191970" d="M201.5364,-240.8707C232.4055,-224.9667 296.447,-192.5313 352,-168 378.7052,-156.2074 409.4361,-144.0844 432.5558,-135.2461"/>
<polygon fill="#191970" stroke="#191970" points="433.8603,-138.4947 441.9643,-131.6699 431.3732,-131.9514 433.8603,-138.4947"/>
</g>
<!-- Node71&#45;&gt;Node29 -->
<g id="edge122" class="edge">
<title>Node71&#45;&gt;Node29</title>
<path fill="none" stroke="#191970" d="M1333.5898,-430.962C1409.4771,-415.4576 1564.5206,-383.9128 1696,-358 1756.7654,-346.024 1826.2967,-332.6821 1874.6357,-323.4644"/>
<polygon fill="#191970" stroke="#191970" points="1875.4503,-326.8723 1884.6183,-321.5621 1874.1399,-319.996 1875.4503,-326.8723"/>
</g>
<!-- Node71&#45;&gt;Node30 -->
<g id="edge123" class="edge">
<title>Node71&#45;&gt;Node30</title>
<path fill="none" stroke="#191970" d="M1236.1234,-430.9957C1224.5891,-428.9342 1212.3845,-426.8262 1201,-425 1104.4841,-409.5179 993.2348,-394.2254 918.9623,-384.379"/>
<polygon fill="#191970" stroke="#191970" points="919.1055,-380.8676 908.733,-383.0264 918.1878,-387.8072 919.1055,-380.8676"/>
</g>
<!-- Node71&#45;&gt;Node63 -->
<g id="edge124" class="edge">
<title>Node71&#45;&gt;Node63</title>
<path fill="none" stroke="#191970" d="M1273.5321,-430.9005C1258.1756,-419.9549 1232.8537,-401.9064 1214.7024,-388.9688"/>
<polygon fill="#191970" stroke="#191970" points="1216.6176,-386.0358 1206.4429,-383.0817 1212.5546,-391.736 1216.6176,-386.0358"/>
</g>
<!-- Node74&#45;&gt;Node30 -->
<g id="edge130" class="edge">
<title>Node74&#45;&gt;Node30</title>
<path fill="none" stroke="#191970" d="M1419.9656,-569.5104C1251.9258,-544.0155 838.299,-479.1922 819,-456 804.0491,-438.0331 814.0772,-410.2439 823.6755,-391.9626"/>
<polygon fill="#191970" stroke="#191970" points="826.7887,-393.5675 828.6614,-383.1394 820.6945,-390.1236 826.7887,-393.5675"/>
</g>
<!-- Node74&#45;&gt;Node50 -->
<g id="edge131" class="edge">
<title>Node74&#45;&gt;Node50</title>
<path fill="none" stroke="#191970" d="M1508.8157,-564.9846C1535.6243,-542.9798 1585.3938,-499.8114 1620,-456 1652.5946,-414.7352 1681.234,-359.5106 1695.1144,-330.9261"/>
<polygon fill="#191970" stroke="#191970" points="1698.3816,-332.2068 1699.5405,-321.6755 1692.0672,-329.1855 1698.3816,-332.2068"/>
</g>
<!-- Node74&#45;&gt;Node66 -->
<g id="edge129" class="edge">
<title>Node74&#45;&gt;Node66</title>
<path fill="none" stroke="#191970" d="M1548.9739,-564.9395C1558.6344,-562.7573 1568.568,-560.6837 1578,-559 1710.6346,-535.3239 1745.7757,-543.0945 1879,-523 1887.3155,-521.7458 1896.0653,-520.2975 1904.6605,-518.8004"/>
<polygon fill="#191970" stroke="#191970" points="1905.4094,-522.2222 1914.6442,-517.0291 1904.1865,-515.3299 1905.4094,-522.2222"/>
</g>
<!-- Node75&#45;&gt;Node30 -->
<g id="edge133" class="edge">
<title>Node75&#45;&gt;Node30</title>
<path fill="none" stroke="#191970" d="M825.2667,-492.3642C810.6998,-483.9147 795.1523,-471.8543 787,-456 780.6996,-443.7472 781.9521,-437.8197 787,-425 792.4415,-411.1807 803.5322,-398.8771 813.6829,-389.7639"/>
<polygon fill="#191970" stroke="#191970" points="816.1105,-392.2951 821.4963,-383.1712 811.5963,-386.945 816.1105,-392.2951"/>
</g>
<!-- Node76&#45;&gt;Node4 -->
<g id="edge138" class="edge">
<title>Node76&#45;&gt;Node4</title>
<path fill="none" stroke="#191970" d="M2348.6111,-570.4443C2467.6341,-544.0894 2788.5271,-467.1328 2860,-389 2883.7915,-362.9916 2879,-347.2487 2879,-312 2879,-312 2879,-312 2879,-183.5 2879,-101.9432 2789.6265,-129.6387 2710,-112 2584.3621,-84.169 1643.194,-69.1736 1456.2333,-66.453"/>
<polygon fill="#191970" stroke="#191970" points="1456.2588,-62.9531 1446.2093,-66.3084 1456.1577,-69.9524 1456.2588,-62.9531"/>
</g>
<!-- Node76&#45;&gt;Node50 -->
<g id="edge139" class="edge">
<title>Node76&#45;&gt;Node50</title>
<path fill="none" stroke="#191970" d="M2288.2088,-570.4488C2224.5067,-532.0431 1985.9378,-389.4391 1904,-358 1847.662,-336.3834 1778.3301,-323.2353 1737.8561,-316.8119"/>
<polygon fill="#191970" stroke="#191970" points="1738.1435,-313.3149 1727.7268,-315.2498 1737.0765,-320.2331 1738.1435,-313.3149"/>
</g>
<!-- Node76&#45;&gt;Node51 -->
<g id="edge135" class="edge">
<title>Node76&#45;&gt;Node51</title>
<path fill="none" stroke="#191970" d="M2304.3367,-570.2639C2304.4498,-552.8741 2302.423,-516.0485 2285,-492 2272.6444,-474.9459 2252.7676,-462.6204 2235.0285,-454.3116"/>
<polygon fill="#191970" stroke="#191970" points="2236.0179,-450.9233 2225.4547,-450.1043 2233.2016,-457.3318 2236.0179,-450.9233"/>
</g>
<!-- Node76&#45;&gt;Node66 -->
<g id="edge136" class="edge">
<title>Node76&#45;&gt;Node66</title>
<path fill="none" stroke="#191970" d="M2259.2013,-570.4473C2197.1979,-557.226 2085.3336,-533.3726 2018.5442,-519.1307"/>
<polygon fill="#191970" stroke="#191970" points="2019.1376,-515.6787 2008.6275,-517.0162 2017.6777,-522.5247 2019.1376,-515.6787"/>
</g>
<!-- Node77 -->
<g id="node50" class="node">
<title>Node77</title>
<polygon fill="none" stroke="#bfbfbf" points="2218,-498 2218,-517 2276,-517 2276,-498 2218,-498"/>
<text text-anchor="middle" x="2247" y="-505" font-family="FreeSans.ttf" font-size="10.00" fill="#000000">memory</text>
</g>
<!-- Node76&#45;&gt;Node77 -->
<g id="edge137" class="edge">
<title>Node76&#45;&gt;Node77</title>
<path fill="none" stroke="#191970" d="M2296.3127,-570.2223C2287.2534,-558.6994 2272.0249,-539.3299 2260.883,-525.1583"/>
<polygon fill="#191970" stroke="#191970" points="2263.4976,-522.8209 2254.5655,-517.1228 2257.9947,-527.1473 2263.4976,-522.8209"/>
</g>
</g>
</svg>
