<?xml version="1.0" encoding="UTF-8" standalone="no"?>
<!DOCTYPE svg PUBLIC "-//W3C//DTD SVG 1.1//EN"
 "http://www.w3.org/Graphics/SVG/1.1/DTD/svg11.dtd">
<!-- Generated by graphviz version 2.40.1 (20161225.0304)
 -->
<!-- Title: FixedJoint.h Pages: 1 -->
<svg width="1164pt" height="420pt"
 viewBox="0.00 0.00 1164.05 420.00" xmlns="http://www.w3.org/2000/svg" xmlns:xlink="http://www.w3.org/1999/xlink">
<g id="graph0" class="graph" transform="scale(1 1) rotate(0) translate(4 416)">
<title>FixedJoint.h</title>
<!-- Node0 -->
<g id="node1" class="node">
<title>Node0</title>
<polygon fill="#bfbfbf" stroke="#000000" points="958.549,-392.5 958.549,-411.5 1031.549,-411.5 1031.549,-392.5 958.549,-392.5"/>
<text text-anchor="middle" x="995.049" y="-399.5" font-family="FreeSans.ttf" font-size="10.00" fill="#000000">FixedJoint.h</text>
</g>
<!-- Node1 -->
<g id="node2" class="node">
<title>Node1</title>
<g id="a_node2"><a xlink:href="Transform_8h.html" target="_top" xlink:title="iDynTree/Core/Transform.h">
<polygon fill="none" stroke="#000000" points="702.049,-336.5 702.049,-355.5 848.049,-355.5 848.049,-336.5 702.049,-336.5"/>
<text text-anchor="middle" x="775.049" y="-343.5" font-family="FreeSans.ttf" font-size="10.00" fill="#000000">iDynTree/Core/Transform.h</text>
</a>
</g>
</g>
<!-- Node0&#45;&gt;Node1 -->
<g id="edge1" class="edge">
<title>Node0&#45;&gt;Node1</title>
<path fill="none" stroke="#191970" d="M958.2259,-392.6269C920.9346,-383.1345 863.1081,-368.4151 822.4227,-358.0588"/>
<polygon fill="#191970" stroke="#191970" points="823.284,-354.6665 812.7296,-355.5914 821.5572,-361.4501 823.284,-354.6665"/>
</g>
<!-- Node26 -->
<g id="node27" class="node">
<title>Node26</title>
<g id="a_node27"><a xlink:href="Indices_8h.html" target="_top" xlink:title="iDynTree/Model/Indices.h">
<polygon fill="none" stroke="#000000" points="1018.049,-280.5 1018.049,-299.5 1156.049,-299.5 1156.049,-280.5 1018.049,-280.5"/>
<text text-anchor="middle" x="1087.049" y="-287.5" font-family="FreeSans.ttf" font-size="10.00" fill="#000000">iDynTree/Model/Indices.h</text>
</a>
</g>
</g>
<!-- Node0&#45;&gt;Node26 -->
<g id="edge44" class="edge">
<title>Node0&#45;&gt;Node26</title>
<path fill="none" stroke="#191970" d="M1019.0173,-392.3887C1035.0941,-384.7773 1055.5406,-372.6464 1068.049,-356 1078.1094,-342.6113 1082.8498,-324.0472 1085.0795,-310.0167"/>
<polygon fill="#191970" stroke="#191970" points="1088.5735,-310.2879 1086.3831,-299.9219 1081.6311,-309.3913 1088.5735,-310.2879"/>
</g>
<!-- Node27 -->
<g id="node28" class="node">
<title>Node27</title>
<g id="a_node28"><a xlink:href="IJoint_8h.html" target="_top" xlink:title="iDynTree/Model/IJoint.h">
<polygon fill="none" stroke="#000000" points="931.049,-336.5 931.049,-355.5 1059.049,-355.5 1059.049,-336.5 931.049,-336.5"/>
<text text-anchor="middle" x="995.049" y="-343.5" font-family="FreeSans.ttf" font-size="10.00" fill="#000000">iDynTree/Model/IJoint.h</text>
</a>
</g>
</g>
<!-- Node0&#45;&gt;Node27 -->
<g id="edge46" class="edge">
<title>Node0&#45;&gt;Node27</title>
<path fill="none" stroke="#191970" d="M995.049,-392.2455C995.049,-384.9382 995.049,-374.6944 995.049,-365.7046"/>
<polygon fill="#191970" stroke="#191970" points="998.5491,-365.6426 995.049,-355.6427 991.5491,-365.6427 998.5491,-365.6426"/>
</g>
<!-- Node2 -->
<g id="node3" class="node">
<title>Node2</title>
<g id="a_node3"><a xlink:href="Position_8h.html" target="_top" xlink:title="iDynTree/Core/Position.h">
<polygon fill="none" stroke="#000000" points="561.049,-280.5 561.049,-299.5 697.049,-299.5 697.049,-280.5 561.049,-280.5"/>
<text text-anchor="middle" x="629.049" y="-287.5" font-family="FreeSans.ttf" font-size="10.00" fill="#000000">iDynTree/Core/Position.h</text>
</a>
</g>
</g>
<!-- Node1&#45;&gt;Node2 -->
<g id="edge2" class="edge">
<title>Node1&#45;&gt;Node2</title>
<path fill="none" stroke="#191970" d="M749.9507,-336.3733C726.0935,-327.2226 690.0155,-313.3844 663.478,-303.2057"/>
<polygon fill="#191970" stroke="#191970" points="664.4099,-299.8145 653.8197,-299.5011 661.9031,-306.3503 664.4099,-299.8145"/>
</g>
<!-- Node16 -->
<g id="node17" class="node">
<title>Node16</title>
<polygon fill="none" stroke="#bfbfbf" points="681.049,-56.5 681.049,-75.5 725.049,-75.5 725.049,-56.5 681.049,-56.5"/>
<text text-anchor="middle" x="703.049" y="-63.5" font-family="FreeSans.ttf" font-size="10.00" fill="#000000">string</text>
</g>
<!-- Node1&#45;&gt;Node16 -->
<g id="edge43" class="edge">
<title>Node1&#45;&gt;Node16</title>
<path fill="none" stroke="#191970" d="M792.2118,-336.4139C819.8248,-319.5774 871.049,-281.8904 871.049,-234 871.049,-234 871.049,-234 871.049,-178 871.049,-113.3658 783.8965,-83.736 735.1353,-72.2164"/>
<polygon fill="#191970" stroke="#191970" points="735.8812,-68.7968 725.3581,-70.027 734.3516,-75.6277 735.8812,-68.7968"/>
</g>
<!-- Node20 -->
<g id="node21" class="node">
<title>Node20</title>
<g id="a_node21"><a xlink:href="Rotation_8h.html" target="_top" xlink:title="iDynTree/Core/Rotation.h">
<polygon fill="none" stroke="#000000" points="402.549,-224.5 402.549,-243.5 539.549,-243.5 539.549,-224.5 402.549,-224.5"/>
<text text-anchor="middle" x="471.049" y="-231.5" font-family="FreeSans.ttf" font-size="10.00" fill="#000000">iDynTree/Core/Rotation.h</text>
</a>
</g>
</g>
<!-- Node1&#45;&gt;Node20 -->
<g id="edge39" class="edge">
<title>Node1&#45;&gt;Node20</title>
<path fill="none" stroke="#191970" d="M701.9469,-339.8398C656.9954,-333.924 599.1794,-322.3938 552.049,-300 526.656,-287.9346 502.3212,-266.288 487.0704,-251.0834"/>
<polygon fill="#191970" stroke="#191970" points="489.4553,-248.516 479.9657,-243.8044 484.4459,-253.4054 489.4553,-248.516"/>
</g>
<!-- Node22 -->
<g id="node23" class="node">
<title>Node22</title>
<g id="a_node23"><a xlink:href="MatrixFixSize_8h.html" target="_top" xlink:title="iDynTree/Core/MatrixFixSize.h">
<polygon fill="none" stroke="#000000" points="52.549,-112.5 52.549,-131.5 213.549,-131.5 213.549,-112.5 52.549,-112.5"/>
<text text-anchor="middle" x="133.049" y="-119.5" font-family="FreeSans.ttf" font-size="10.00" fill="#000000">iDynTree/Core/MatrixFixSize.h</text>
</a>
</g>
</g>
<!-- Node1&#45;&gt;Node22 -->
<g id="edge42" class="edge">
<title>Node1&#45;&gt;Node22</title>
<path fill="none" stroke="#191970" d="M701.9915,-337.6103C649.5232,-330.482 577.5114,-318.4256 516.049,-300 395.5272,-263.8693 369.3651,-242.6843 256.049,-188 221.7938,-171.4691 183.3091,-150.4004 158.6564,-136.5714"/>
<polygon fill="#191970" stroke="#191970" points="160.3533,-133.5102 149.923,-131.6504 156.9169,-139.6087 160.3533,-133.5102"/>
</g>
<!-- Node25 -->
<g id="node26" class="node">
<title>Node25</title>
<g id="a_node26"><a xlink:href="TransformSemantics_8h.html" target="_top" xlink:title="iDynTree/Core/TransformSemantics.h">
<polygon fill="none" stroke="#000000" points="899.549,-224.5 899.549,-243.5 1096.549,-243.5 1096.549,-224.5 899.549,-224.5"/>
<text text-anchor="middle" x="998.049" y="-231.5" font-family="FreeSans.ttf" font-size="10.00" fill="#000000">iDynTree/Core/TransformSemantics.h</text>
</a>
</g>
</g>
<!-- Node1&#45;&gt;Node25 -->
<g id="edge40" class="edge">
<title>Node1&#45;&gt;Node25</title>
<path fill="none" stroke="#191970" d="M800.8189,-336.3417C823.3895,-327.6199 856.8888,-314.0345 885.049,-300 916.8602,-284.1458 951.9919,-263.0206 974.5055,-248.9878"/>
<polygon fill="#191970" stroke="#191970" points="976.4419,-251.9047 983.0508,-243.6237 972.7204,-245.9759 976.4419,-251.9047"/>
</g>
<!-- Node3 -->
<g id="node4" class="node">
<title>Node3</title>
<g id="a_node4"><a xlink:href="PositionRaw_8h.html" target="_top" xlink:title="iDynTree/Core/PositionRaw.h">
<polygon fill="none" stroke="#000000" points="525.049,-168.5 525.049,-187.5 681.049,-187.5 681.049,-168.5 525.049,-168.5"/>
<text text-anchor="middle" x="603.049" y="-175.5" font-family="FreeSans.ttf" font-size="10.00" fill="#000000">iDynTree/Core/PositionRaw.h</text>
</a>
</g>
</g>
<!-- Node2&#45;&gt;Node3 -->
<g id="edge3" class="edge">
<title>Node2&#45;&gt;Node3</title>
<path fill="none" stroke="#191970" d="M625.7126,-280.2202C622.6428,-270.9695 618.1147,-256.6565 615.049,-244 611.3592,-228.7673 608.2326,-211.3106 606.0967,-198.1779"/>
<polygon fill="#191970" stroke="#191970" points="609.4941,-197.2508 604.4854,-187.9147 602.5788,-198.3365 609.4941,-197.2508"/>
</g>
<!-- Node2&#45;&gt;Node16 -->
<g id="edge38" class="edge">
<title>Node2&#45;&gt;Node16</title>
<path fill="none" stroke="#191970" d="M630.0698,-280.325C631.8705,-266.7884 636.5737,-241.8545 648.049,-224 661.3416,-203.3179 677.3006,-209.022 690.049,-188 703.2979,-166.1527 700.1412,-157.3847 703.049,-132 704.8039,-116.6798 704.7137,-99.2276 704.2333,-86.1188"/>
<polygon fill="#191970" stroke="#191970" points="707.7176,-85.7026 703.7474,-75.8799 700.7255,-86.0346 707.7176,-85.7026"/>
</g>
<!-- Node19 -->
<g id="node20" class="node">
<title>Node19</title>
<g id="a_node20"><a xlink:href="PositionSemantics_8h.html" target="_top" xlink:title="iDynTree/Core/PositionSemantics.h">
<polygon fill="none" stroke="#000000" points="656.549,-224.5 656.549,-243.5 843.549,-243.5 843.549,-224.5 656.549,-224.5"/>
<text text-anchor="middle" x="750.049" y="-231.5" font-family="FreeSans.ttf" font-size="10.00" fill="#000000">iDynTree/Core/PositionSemantics.h</text>
</a>
</g>
</g>
<!-- Node2&#45;&gt;Node19 -->
<g id="edge22" class="edge">
<title>Node2&#45;&gt;Node19</title>
<path fill="none" stroke="#191970" d="M649.8496,-280.3733C669.2733,-271.3838 698.4713,-257.8706 720.3454,-247.7471"/>
<polygon fill="#191970" stroke="#191970" points="721.9146,-250.8776 729.5198,-243.5011 718.9745,-244.5249 721.9146,-250.8776"/>
</g>
<!-- Node2&#45;&gt;Node20 -->
<g id="edge24" class="edge">
<title>Node2&#45;&gt;Node20</title>
<path fill="none" stroke="#191970" d="M601.8878,-280.3733C575.8423,-271.1419 536.3374,-257.1402 507.5511,-246.9375"/>
<polygon fill="#191970" stroke="#191970" points="508.4505,-243.5429 497.8557,-243.5011 506.1119,-250.1408 508.4505,-243.5429"/>
</g>
<!-- Node4 -->
<g id="node5" class="node">
<title>Node4</title>
<g id="a_node5"><a xlink:href="VectorFixSize_8h.html" target="_top" xlink:title="iDynTree/Core/VectorFixSize.h">
<polygon fill="none" stroke="#000000" points="231.549,-112.5 231.549,-131.5 392.549,-131.5 392.549,-112.5 231.549,-112.5"/>
<text text-anchor="middle" x="312.049" y="-119.5" font-family="FreeSans.ttf" font-size="10.00" fill="#000000">iDynTree/Core/VectorFixSize.h</text>
</a>
</g>
</g>
<!-- Node3&#45;&gt;Node4 -->
<g id="edge4" class="edge">
<title>Node3&#45;&gt;Node4</title>
<path fill="none" stroke="#191970" d="M553.3549,-168.4369C503.0294,-158.7522 425.1767,-143.7703 371.5839,-133.4569"/>
<polygon fill="#191970" stroke="#191970" points="372.0193,-129.9765 361.538,-131.5237 370.6964,-136.8504 372.0193,-129.9765"/>
</g>
<!-- Node3&#45;&gt;Node16 -->
<g id="edge21" class="edge">
<title>Node3&#45;&gt;Node16</title>
<path fill="none" stroke="#191970" d="M631.1746,-168.3783C648.7512,-161.0033 670.5377,-149.149 684.049,-132 694.5298,-118.6974 699.2293,-99.8399 701.3365,-85.6861"/>
<polygon fill="#191970" stroke="#191970" points="704.8378,-85.8802 702.5315,-75.5394 697.8858,-85.0613 704.8378,-85.8802"/>
</g>
<!-- Node5 -->
<g id="node6" class="node">
<title>Node5</title>
<g id="a_node6"><a xlink:href="Utils_8h.html" target="_top" xlink:title="iDynTree/Core/Utils.h">
<polygon fill="none" stroke="#000000" points="161.549,-56.5 161.549,-75.5 280.549,-75.5 280.549,-56.5 161.549,-56.5"/>
<text text-anchor="middle" x="221.049" y="-63.5" font-family="FreeSans.ttf" font-size="10.00" fill="#000000">iDynTree/Core/Utils.h</text>
</a>
</g>
</g>
<!-- Node4&#45;&gt;Node5 -->
<g id="edge5" class="edge">
<title>Node4&#45;&gt;Node5</title>
<path fill="none" stroke="#191970" d="M296.198,-112.2455C282.2358,-103.6534 261.6762,-91.0014 245.5894,-81.1018"/>
<polygon fill="#191970" stroke="#191970" points="247.0693,-77.9029 236.7183,-75.6427 243.4005,-83.8645 247.0693,-77.9029"/>
</g>
<!-- Node7 -->
<g id="node8" class="node">
<title>Node7</title>
<g id="a_node8"><a xlink:href="Span_8h.html" target="_top" xlink:title="iDynTree/Core/Span.h">
<polygon fill="none" stroke="#000000" points="411.549,-56.5 411.549,-75.5 532.549,-75.5 532.549,-56.5 411.549,-56.5"/>
<text text-anchor="middle" x="472.049" y="-63.5" font-family="FreeSans.ttf" font-size="10.00" fill="#000000">iDynTree/Core/Span.h</text>
</a>
</g>
</g>
<!-- Node4&#45;&gt;Node7 -->
<g id="edge7" class="edge">
<title>Node4&#45;&gt;Node7</title>
<path fill="none" stroke="#191970" d="M339.5539,-112.3733C365.9292,-103.1419 405.9341,-89.1402 435.0848,-78.9375"/>
<polygon fill="#191970" stroke="#191970" points="436.6206,-82.1082 444.9029,-75.5011 434.3081,-75.5012 436.6206,-82.1082"/>
</g>
<!-- Node8 -->
<g id="node9" class="node">
<title>Node8</title>
<polygon fill="none" stroke="#bfbfbf" points="142.049,-.5 142.049,-19.5 194.049,-19.5 194.049,-.5 142.049,-.5"/>
<text text-anchor="middle" x="168.049" y="-7.5" font-family="FreeSans.ttf" font-size="10.00" fill="#000000">cassert</text>
</g>
<!-- Node4&#45;&gt;Node8 -->
<g id="edge19" class="edge">
<title>Node4&#45;&gt;Node8</title>
<path fill="none" stroke="#191970" d="M329.1658,-112.3427C349.8494,-99.4496 380.0095,-75.9235 364.049,-56 320.1764,-1.2341 277.9006,-34.8798 204.4609,-20.0092"/>
<polygon fill="#191970" stroke="#191970" points="204.9066,-16.5207 194.3776,-17.7004 203.3442,-23.3441 204.9066,-16.5207"/>
</g>
<!-- Node4&#45;&gt;Node16 -->
<g id="edge17" class="edge">
<title>Node4&#45;&gt;Node16</title>
<path fill="none" stroke="#191970" d="M378.82,-112.4369C463.5623,-100.2999 606.3946,-79.8431 670.3584,-70.682"/>
<polygon fill="#191970" stroke="#191970" points="671.2384,-74.0918 680.6411,-69.2093 670.2459,-67.1625 671.2384,-74.0918"/>
</g>
<!-- Node17 -->
<g id="node18" class="node">
<title>Node17</title>
<polygon fill="none" stroke="#bfbfbf" points="299.049,-56.5 299.049,-75.5 355.049,-75.5 355.049,-56.5 299.049,-56.5"/>
<text text-anchor="middle" x="327.049" y="-63.5" font-family="FreeSans.ttf" font-size="10.00" fill="#000000">sstream</text>
</g>
<!-- Node4&#45;&gt;Node17 -->
<g id="edge18" class="edge">
<title>Node4&#45;&gt;Node17</title>
<path fill="none" stroke="#191970" d="M314.6618,-112.2455C316.6406,-104.8579 319.4234,-94.4689 321.8502,-85.4087"/>
<polygon fill="#191970" stroke="#191970" points="325.2595,-86.2078 324.4661,-75.6427 318.4978,-84.3966 325.2595,-86.2078"/>
</g>
<!-- Node18 -->
<g id="node19" class="node">
<title>Node18</title>
<polygon fill="none" stroke="#bfbfbf" points="93.049,-56.5 93.049,-75.5 143.049,-75.5 143.049,-56.5 93.049,-56.5"/>
<text text-anchor="middle" x="118.049" y="-63.5" font-family="FreeSans.ttf" font-size="10.00" fill="#000000">cstring</text>
</g>
<!-- Node4&#45;&gt;Node18 -->
<g id="edge20" class="edge">
<title>Node4&#45;&gt;Node18</title>
<path fill="none" stroke="#191970" d="M278.6293,-112.456C248.2722,-103.7724 202.0007,-90.5014 153.1051,-76.2963"/>
<polygon fill="#191970" stroke="#191970" points="153.8745,-72.8751 143.2949,-73.4439 151.9201,-79.5967 153.8745,-72.8751"/>
</g>
<!-- Node6 -->
<g id="node7" class="node">
<title>Node6</title>
<polygon fill="none" stroke="#bfbfbf" points="212.549,-.5 212.549,-19.5 265.549,-19.5 265.549,-.5 212.549,-.5"/>
<text text-anchor="middle" x="239.049" y="-7.5" font-family="FreeSans.ttf" font-size="10.00" fill="#000000">cstddef</text>
</g>
<!-- Node5&#45;&gt;Node6 -->
<g id="edge6" class="edge">
<title>Node5&#45;&gt;Node6</title>
<path fill="none" stroke="#191970" d="M224.1843,-56.2455C226.5589,-48.8579 229.8983,-38.4689 232.8105,-29.4087"/>
<polygon fill="#191970" stroke="#191970" points="236.2215,-30.234 235.9495,-19.6427 229.5573,-28.0919 236.2215,-30.234"/>
</g>
<!-- Node7&#45;&gt;Node6 -->
<g id="edge11" class="edge">
<title>Node7&#45;&gt;Node6</title>
<path fill="none" stroke="#191970" d="M428.8821,-56.4628C390.9948,-47.9704 334.1772,-34.9418 275.5564,-20.0538"/>
<polygon fill="#191970" stroke="#191970" points="276.3073,-16.6333 265.7523,-17.5506 274.5755,-23.4158 276.3073,-16.6333"/>
</g>
<!-- Node7&#45;&gt;Node8 -->
<g id="edge8" class="edge">
<title>Node7&#45;&gt;Node8</title>
<path fill="none" stroke="#191970" d="M411.3144,-57.546C358.7949,-49.797 280.6898,-37.2272 204.1526,-20.0712"/>
<polygon fill="#191970" stroke="#191970" points="204.8695,-16.645 194.3428,-17.8448 203.3201,-23.4714 204.8695,-16.645"/>
</g>
<!-- Node9 -->
<g id="node10" class="node">
<title>Node9</title>
<polygon fill="none" stroke="#bfbfbf" points="284.049,-.5 284.049,-19.5 348.049,-19.5 348.049,-.5 284.049,-.5"/>
<text text-anchor="middle" x="316.049" y="-7.5" font-family="FreeSans.ttf" font-size="10.00" fill="#000000">algorithm</text>
</g>
<!-- Node7&#45;&gt;Node9 -->
<g id="edge9" class="edge">
<title>Node7&#45;&gt;Node9</title>
<path fill="none" stroke="#191970" d="M445.2316,-56.3733C419.5158,-47.1419 380.5109,-33.1402 352.0891,-22.9375"/>
<polygon fill="#191970" stroke="#191970" points="353.1109,-19.5857 342.5164,-19.5011 350.7458,-26.174 353.1109,-19.5857"/>
</g>
<!-- Node10 -->
<g id="node11" class="node">
<title>Node10</title>
<polygon fill="none" stroke="#bfbfbf" points="366.049,-.5 366.049,-19.5 408.049,-19.5 408.049,-.5 366.049,-.5"/>
<text text-anchor="middle" x="387.049" y="-7.5" font-family="FreeSans.ttf" font-size="10.00" fill="#000000">array</text>
</g>
<!-- Node7&#45;&gt;Node10 -->
<g id="edge10" class="edge">
<title>Node7&#45;&gt;Node10</title>
<path fill="none" stroke="#191970" d="M457.2431,-56.2455C444.3234,-47.7337 425.3559,-35.2375 410.3937,-25.3801"/>
<polygon fill="#191970" stroke="#191970" points="411.9614,-22.2216 401.6852,-19.6427 408.1102,-28.067 411.9614,-22.2216"/>
</g>
<!-- Node11 -->
<g id="node12" class="node">
<title>Node11</title>
<polygon fill="none" stroke="#bfbfbf" points="426.549,-.5 426.549,-19.5 479.549,-19.5 479.549,-.5 426.549,-.5"/>
<text text-anchor="middle" x="453.049" y="-7.5" font-family="FreeSans.ttf" font-size="10.00" fill="#000000">iterator</text>
</g>
<!-- Node7&#45;&gt;Node11 -->
<g id="edge12" class="edge">
<title>Node7&#45;&gt;Node11</title>
<path fill="none" stroke="#191970" d="M468.7394,-56.2455C466.2057,-48.7776 462.6313,-38.2427 459.534,-29.1137"/>
<polygon fill="#191970" stroke="#191970" points="462.848,-27.9879 456.3206,-19.6427 456.2192,-30.237 462.848,-27.9879"/>
</g>
<!-- Node12 -->
<g id="node13" class="node">
<title>Node12</title>
<polygon fill="none" stroke="#bfbfbf" points="498.049,-.5 498.049,-19.5 542.049,-19.5 542.049,-.5 498.049,-.5"/>
<text text-anchor="middle" x="520.049" y="-7.5" font-family="FreeSans.ttf" font-size="10.00" fill="#000000">limits</text>
</g>
<!-- Node7&#45;&gt;Node12 -->
<g id="edge13" class="edge">
<title>Node7&#45;&gt;Node12</title>
<path fill="none" stroke="#191970" d="M480.4099,-56.2455C487.224,-48.2958 497.0171,-36.8706 505.1642,-27.3656"/>
<polygon fill="#191970" stroke="#191970" points="507.9333,-29.513 511.7838,-19.6427 502.6185,-24.9575 507.9333,-29.513"/>
</g>
<!-- Node13 -->
<g id="node14" class="node">
<title>Node13</title>
<polygon fill="none" stroke="#bfbfbf" points="560.549,-.5 560.549,-19.5 625.549,-19.5 625.549,-.5 560.549,-.5"/>
<text text-anchor="middle" x="593.049" y="-7.5" font-family="FreeSans.ttf" font-size="10.00" fill="#000000">stdexcept</text>
</g>
<!-- Node7&#45;&gt;Node13 -->
<g id="edge14" class="edge">
<title>Node7&#45;&gt;Node13</title>
<path fill="none" stroke="#191970" d="M492.8496,-56.3733C512.2733,-47.3838 541.4713,-33.8706 563.3454,-23.7471"/>
<polygon fill="#191970" stroke="#191970" points="564.9146,-26.8776 572.5198,-19.5011 561.9745,-20.5249 564.9146,-26.8776"/>
</g>
<!-- Node14 -->
<g id="node15" class="node">
<title>Node14</title>
<polygon fill="none" stroke="#bfbfbf" points="643.549,-.5 643.549,-19.5 712.549,-19.5 712.549,-.5 643.549,-.5"/>
<text text-anchor="middle" x="678.049" y="-7.5" font-family="FreeSans.ttf" font-size="10.00" fill="#000000">type_traits</text>
</g>
<!-- Node7&#45;&gt;Node14 -->
<g id="edge15" class="edge">
<title>Node7&#45;&gt;Node14</title>
<path fill="none" stroke="#191970" d="M507.4616,-56.3733C542.415,-46.8714 595.9605,-32.3153 633.721,-22.0503"/>
<polygon fill="#191970" stroke="#191970" points="634.7096,-25.4087 643.4413,-19.4079 632.8733,-18.6538 634.7096,-25.4087"/>
</g>
<!-- Node15 -->
<g id="node16" class="node">
<title>Node15</title>
<polygon fill="none" stroke="#bfbfbf" points="730.549,-.5 730.549,-19.5 775.549,-19.5 775.549,-.5 730.549,-.5"/>
<text text-anchor="middle" x="753.049" y="-7.5" font-family="FreeSans.ttf" font-size="10.00" fill="#000000">utility</text>
</g>
<!-- Node7&#45;&gt;Node15 -->
<g id="edge16" class="edge">
<title>Node7&#45;&gt;Node15</title>
<path fill="none" stroke="#191970" d="M532.6353,-57.1159C581.2735,-49.4691 651.428,-37.2872 720.695,-20.1175"/>
<polygon fill="#191970" stroke="#191970" points="721.6162,-23.4949 730.4606,-17.6617 719.909,-16.7063 721.6162,-23.4949"/>
</g>
<!-- Node19&#45;&gt;Node16 -->
<g id="edge23" class="edge">
<title>Node19&#45;&gt;Node16</title>
<path fill="none" stroke="#191970" d="M753.2593,-224.2689C759.7437,-202.8477 772.3762,-150.4619 755.049,-112 749.4793,-99.6369 738.7627,-89.2563 728.4984,-81.5033"/>
<polygon fill="#191970" stroke="#191970" points="730.3039,-78.4948 720.1057,-75.623 726.2872,-84.2277 730.3039,-78.4948"/>
</g>
<!-- Node20&#45;&gt;Node4 -->
<g id="edge37" class="edge">
<title>Node20&#45;&gt;Node4</title>
<path fill="none" stroke="#191970" d="M402.3212,-227.8855C348.9706,-221.5478 281.2681,-209.4656 264.049,-188 250.64,-171.2842 269.8309,-151.2819 287.781,-137.7116"/>
<polygon fill="#191970" stroke="#191970" points="290.2322,-140.2627 296.3449,-131.609 286.1699,-134.5619 290.2322,-140.2627"/>
</g>
<!-- Node20&#45;&gt;Node16 -->
<g id="edge25" class="edge">
<title>Node20&#45;&gt;Node16</title>
<path fill="none" stroke="#191970" d="M468.1092,-224.3312C461.8617,-201.6323 450.01,-144.4095 478.049,-112 502.8008,-83.39 614.4952,-71.9191 670.6321,-67.8988"/>
<polygon fill="#191970" stroke="#191970" points="671.0155,-71.3809 680.7555,-67.2117 670.5414,-64.397 671.0155,-71.3809"/>
</g>
<!-- Node21 -->
<g id="node22" class="node">
<title>Node21</title>
<g id="a_node22"><a xlink:href="RotationRaw_8h.html" target="_top" xlink:title="iDynTree/Core/RotationRaw.h">
<polygon fill="none" stroke="#000000" points="273.049,-168.5 273.049,-187.5 431.049,-187.5 431.049,-168.5 273.049,-168.5"/>
<text text-anchor="middle" x="352.049" y="-175.5" font-family="FreeSans.ttf" font-size="10.00" fill="#000000">iDynTree/Core/RotationRaw.h</text>
</a>
</g>
</g>
<!-- Node20&#45;&gt;Node21 -->
<g id="edge26" class="edge">
<title>Node20&#45;&gt;Node21</title>
<path fill="none" stroke="#191970" d="M450.5921,-224.3733C431.5752,-215.4241 403.0314,-201.9917 381.5514,-191.8835"/>
<polygon fill="#191970" stroke="#191970" points="382.7774,-188.5923 372.2388,-187.5011 379.7967,-194.926 382.7774,-188.5923"/>
</g>
<!-- Node24 -->
<g id="node25" class="node">
<title>Node24</title>
<g id="a_node25"><a xlink:href="RotationSemantics_8h.html" target="_top" xlink:title="iDynTree/Core/RotationSemantics.h">
<polygon fill="none" stroke="#000000" points="487.049,-112.5 487.049,-131.5 675.049,-131.5 675.049,-112.5 487.049,-112.5"/>
<text text-anchor="middle" x="581.049" y="-119.5" font-family="FreeSans.ttf" font-size="10.00" fill="#000000">iDynTree/Core/RotationSemantics.h</text>
</a>
</g>
</g>
<!-- Node20&#45;&gt;Node24 -->
<g id="edge35" class="edge">
<title>Node20&#45;&gt;Node24</title>
<path fill="none" stroke="#191970" d="M476.2172,-224.256C483.7497,-210.6375 498.7466,-185.6069 516.049,-168 527.745,-156.0981 542.8618,-145.1934 555.5735,-136.9914"/>
<polygon fill="#191970" stroke="#191970" points="557.6982,-139.7908 564.3213,-131.5212 553.9868,-133.8557 557.6982,-139.7908"/>
</g>
<!-- Node21&#45;&gt;Node16 -->
<g id="edge34" class="edge">
<title>Node21&#45;&gt;Node16</title>
<path fill="none" stroke="#191970" d="M362.2712,-168.3764C378.4683,-153.7121 411.633,-126.0028 445.049,-112 521.6735,-79.8909 620.2523,-70.184 670.4811,-67.2573"/>
<polygon fill="#191970" stroke="#191970" points="670.9274,-70.7387 680.729,-66.7164 670.5584,-63.7485 670.9274,-70.7387"/>
</g>
<!-- Node21&#45;&gt;Node22 -->
<g id="edge27" class="edge">
<title>Node21&#45;&gt;Node22</title>
<path fill="none" stroke="#191970" d="M314.4015,-168.3733C277.1969,-158.8598 220.1787,-144.2797 180.0274,-134.0127"/>
<polygon fill="#191970" stroke="#191970" points="180.7605,-130.5877 170.2051,-131.5011 179.0263,-137.3695 180.7605,-130.5877"/>
</g>
<!-- Node22&#45;&gt;Node5 -->
<g id="edge28" class="edge">
<title>Node22&#45;&gt;Node5</title>
<path fill="none" stroke="#191970" d="M148.3774,-112.2455C161.8793,-103.6534 181.7611,-91.0014 197.3176,-81.1018"/>
<polygon fill="#191970" stroke="#191970" points="199.3386,-83.9643 205.8962,-75.6427 195.5805,-78.0587 199.3386,-83.9643"/>
</g>
<!-- Node22&#45;&gt;Node8 -->
<g id="edge29" class="edge">
<title>Node22&#45;&gt;Node8</title>
<path fill="none" stroke="#191970" d="M72.9058,-112.4341C30.1011,-102.9339 -16.1958,-85.4406 6.049,-56 21.1919,-35.9585 88.9931,-22.0969 131.9396,-15.1484"/>
<polygon fill="#191970" stroke="#191970" points="132.6743,-18.5761 142.0124,-13.5711 131.5912,-11.6604 132.6743,-18.5761"/>
</g>
<!-- Node22&#45;&gt;Node16 -->
<g id="edge31" class="edge">
<title>Node22&#45;&gt;Node16</title>
<path fill="none" stroke="#191970" d="M213.5727,-112.892C216.4329,-112.5877 219.2652,-112.2895 222.049,-112 390.9914,-94.4317 593.5873,-75.878 670.9183,-68.8877"/>
<polygon fill="#191970" stroke="#191970" points="671.3372,-72.3642 680.9821,-67.9794 670.7079,-65.3925 671.3372,-72.3642"/>
</g>
<!-- Node22&#45;&gt;Node17 -->
<g id="edge33" class="edge">
<title>Node22&#45;&gt;Node17</title>
<path fill="none" stroke="#191970" d="M166.3988,-112.3733C200.4163,-102.5537 253.133,-87.3366 288.818,-77.0357"/>
<polygon fill="#191970" stroke="#191970" points="290.2164,-80.275 298.8535,-74.1389 288.275,-73.5496 290.2164,-80.275"/>
</g>
<!-- Node22&#45;&gt;Node18 -->
<g id="edge30" class="edge">
<title>Node22&#45;&gt;Node18</title>
<path fill="none" stroke="#191970" d="M130.4362,-112.2455C128.4573,-104.8579 125.6746,-94.4689 123.2477,-85.4087"/>
<polygon fill="#191970" stroke="#191970" points="126.6001,-84.3966 120.6318,-75.6427 119.8384,-86.2078 126.6001,-84.3966"/>
</g>
<!-- Node23 -->
<g id="node24" class="node">
<title>Node23</title>
<polygon fill="none" stroke="#bfbfbf" points="15.049,-56.5 15.049,-75.5 75.049,-75.5 75.049,-56.5 15.049,-56.5"/>
<text text-anchor="middle" x="45.049" y="-63.5" font-family="FreeSans.ttf" font-size="10.00" fill="#000000">iostream</text>
</g>
<!-- Node22&#45;&gt;Node23 -->
<g id="edge32" class="edge">
<title>Node22&#45;&gt;Node23</title>
<path fill="none" stroke="#191970" d="M117.7205,-112.2455C104.2186,-103.6534 84.3368,-91.0014 68.7804,-81.1018"/>
<polygon fill="#191970" stroke="#191970" points="70.5174,-78.0587 60.2017,-75.6427 66.7593,-83.9643 70.5174,-78.0587"/>
</g>
<!-- Node24&#45;&gt;Node16 -->
<g id="edge36" class="edge">
<title>Node24&#45;&gt;Node16</title>
<path fill="none" stroke="#191970" d="M602.0215,-112.3733C621.6057,-103.3838 651.0451,-89.8706 673.0999,-79.7471"/>
<polygon fill="#191970" stroke="#191970" points="674.7219,-82.8538 682.3501,-75.5011 671.8017,-76.4919 674.7219,-82.8538"/>
</g>
<!-- Node25&#45;&gt;Node16 -->
<g id="edge41" class="edge">
<title>Node25&#45;&gt;Node16</title>
<path fill="none" stroke="#191970" d="M992.0048,-224.3239C976.9715,-201.0986 935.4476,-141.9112 885.049,-112 837.6556,-83.8725 773.4618,-72.8332 735.3419,-68.5797"/>
<polygon fill="#191970" stroke="#191970" points="735.6221,-65.0901 725.3171,-67.5513 734.9077,-72.0536 735.6221,-65.0901"/>
</g>
<!-- Node26&#45;&gt;Node16 -->
<g id="edge45" class="edge">
<title>Node26&#45;&gt;Node16</title>
<path fill="none" stroke="#191970" d="M1094.2212,-280.4715C1103.3301,-267.109 1116.6613,-242.3805 1106.049,-224 1056.2682,-137.7795 1004.8671,-148.0123 912.049,-112 851.8264,-88.6344 777.0022,-75.7888 735.1883,-69.9514"/>
<polygon fill="#191970" stroke="#191970" points="735.4287,-66.4522 725.0506,-68.5839 734.4929,-73.3893 735.4287,-66.4522"/>
</g>
<!-- Node27&#45;&gt;Node26 -->
<g id="edge47" class="edge">
<title>Node27&#45;&gt;Node26</title>
<path fill="none" stroke="#191970" d="M1011.0741,-336.2455C1025.1898,-327.6534 1045.9753,-315.0014 1062.2388,-305.1018"/>
<polygon fill="#191970" stroke="#191970" points="1064.4853,-307.8319 1071.2074,-299.6427 1060.8456,-301.8525 1064.4853,-307.8319"/>
</g>
</g>
</svg>
