<?xml version="1.0" encoding="UTF-8" standalone="no"?>
<!DOCTYPE svg PUBLIC "-//W3C//DTD SVG 1.1//EN"
 "http://www.w3.org/Graphics/SVG/1.1/DTD/svg11.dtd">
<!-- Generated by graphviz version 2.40.1 (20161225.0304)
 -->
<!-- Title: FixedJoint.h Pages: 1 -->
<svg width="621pt" height="140pt"
 viewBox="0.00 0.00 621.00 140.00" xmlns="http://www.w3.org/2000/svg" xmlns:xlink="http://www.w3.org/1999/xlink">
<g id="graph0" class="graph" transform="scale(1 1) rotate(0) translate(4 136)">
<title>FixedJoint.h</title>
<!-- Node28 -->
<g id="node1" class="node">
<title>Node28</title>
<polygon fill="#bfbfbf" stroke="#000000" points="269,-112.5 269,-131.5 342,-131.5 342,-112.5 269,-112.5"/>
<text text-anchor="middle" x="305.5" y="-119.5" font-family="FreeSans.ttf" font-size="10.00" fill="#000000">FixedJoint.h</text>
</g>
<!-- Node29 -->
<g id="node2" class="node">
<title>Node29</title>
<g id="a_node2"><a xlink:href="ModelTestUtils_8h.html" target="_top" xlink:title="ModelTestUtils.h">
<polygon fill="none" stroke="#000000" points="0,-56.5 0,-75.5 97,-75.5 97,-56.5 0,-56.5"/>
<text text-anchor="middle" x="48.5" y="-63.5" font-family="FreeSans.ttf" font-size="10.00" fill="#000000">ModelTestUtils.h</text>
</a>
</g>
</g>
<!-- Node28&#45;&gt;Node29 -->
<g id="edge1" class="edge">
<title>Node28&#45;&gt;Node29</title>
<path fill="none" stroke="#191970" d="M258.9484,-111.8565C211.5405,-101.5263 138.5967,-85.632 92.233,-75.5294"/>
<polygon fill="#191970" stroke="#191970" points="258.4352,-115.3267 268.9511,-114.036 259.9256,-108.4872 258.4352,-115.3267"/>
</g>
<!-- Node31 -->
<g id="node4" class="node">
<title>Node31</title>
<g id="a_node4"><a xlink:href="DenavitHartenberg_8cpp.html" target="_top" xlink:title="DenavitHartenberg.cpp">
<polygon fill="none" stroke="#000000" points="115.5,-56.5 115.5,-75.5 245.5,-75.5 245.5,-56.5 115.5,-56.5"/>
<text text-anchor="middle" x="180.5" y="-63.5" font-family="FreeSans.ttf" font-size="10.00" fill="#000000">DenavitHartenberg.cpp</text>
</a>
</g>
</g>
<!-- Node28&#45;&gt;Node31 -->
<g id="edge3" class="edge">
<title>Node28&#45;&gt;Node31</title>
<path fill="none" stroke="#191970" d="M274.802,-108.2473C252.1007,-98.0771 221.7685,-84.4883 201.7079,-75.5011"/>
<polygon fill="#191970" stroke="#191970" points="273.4547,-111.4789 284.0117,-112.3733 276.3167,-105.0906 273.4547,-111.4789"/>
</g>
<!-- Node32 -->
<g id="node5" class="node">
<title>Node32</title>
<g id="a_node5"><a xlink:href="FixedJoint_8cpp.html" target="_top" xlink:title="FixedJoint.cpp">
<polygon fill="none" stroke="#000000" points="263.5,-56.5 263.5,-75.5 347.5,-75.5 347.5,-56.5 263.5,-56.5"/>
<text text-anchor="middle" x="305.5" y="-63.5" font-family="FreeSans.ttf" font-size="10.00" fill="#000000">FixedJoint.cpp</text>
</a>
</g>
</g>
<!-- Node28&#45;&gt;Node32 -->
<g id="edge4" class="edge">
<title>Node28&#45;&gt;Node32</title>
<path fill="none" stroke="#191970" d="M305.5,-102.1575C305.5,-93.155 305.5,-82.9199 305.5,-75.6427"/>
<polygon fill="#191970" stroke="#191970" points="302.0001,-102.2455 305.5,-112.2455 309.0001,-102.2456 302.0001,-102.2455"/>
</g>
<!-- Node33 -->
<g id="node6" class="node">
<title>Node33</title>
<g id="a_node6"><a xlink:href="ModelTransformers_8cpp.html" target="_top" xlink:title="ModelTransformers.cpp">
<polygon fill="none" stroke="#000000" points="365.5,-56.5 365.5,-75.5 495.5,-75.5 495.5,-56.5 365.5,-56.5"/>
<text text-anchor="middle" x="430.5" y="-63.5" font-family="FreeSans.ttf" font-size="10.00" fill="#000000">ModelTransformers.cpp</text>
</a>
</g>
</g>
<!-- Node28&#45;&gt;Node33 -->
<g id="edge5" class="edge">
<title>Node28&#45;&gt;Node33</title>
<path fill="none" stroke="#191970" d="M336.198,-108.2473C358.8993,-98.0771 389.2315,-84.4883 409.2921,-75.5011"/>
<polygon fill="#191970" stroke="#191970" points="334.6833,-105.0906 326.9883,-112.3733 337.5453,-111.4789 334.6833,-105.0906"/>
</g>
<!-- Node34 -->
<g id="node7" class="node">
<title>Node34</title>
<g id="a_node7"><a xlink:href="JointElement_8cpp.html" target="_top" xlink:title="JointElement.cpp">
<polygon fill="none" stroke="#000000" points="514,-56.5 514,-75.5 613,-75.5 613,-56.5 514,-56.5"/>
<text text-anchor="middle" x="563.5" y="-63.5" font-family="FreeSans.ttf" font-size="10.00" fill="#000000">JointElement.cpp</text>
</a>
</g>
</g>
<!-- Node28&#45;&gt;Node34 -->
<g id="edge6" class="edge">
<title>Node28&#45;&gt;Node34</title>
<path fill="none" stroke="#191970" d="M352.2327,-111.8565C399.8251,-101.5263 473.0527,-85.632 519.5968,-75.5294"/>
<polygon fill="#191970" stroke="#191970" points="351.2211,-108.4945 342.1911,-114.036 352.706,-115.3352 351.2211,-108.4945"/>
</g>
<!-- Node30 -->
<g id="node3" class="node">
<title>Node30</title>
<g id="a_node3"><a xlink:href="urdf2dh_8cpp.html" target="_top" xlink:title="urdf2dh.cpp">
<polygon fill="none" stroke="#000000" points="11.5,-.5 11.5,-19.5 85.5,-19.5 85.5,-.5 11.5,-.5"/>
<text text-anchor="middle" x="48.5" y="-7.5" font-family="FreeSans.ttf" font-size="10.00" fill="#000000">urdf2dh.cpp</text>
</a>
</g>
</g>
<!-- Node29&#45;&gt;Node30 -->
<g id="edge2" class="edge">
<title>Node29&#45;&gt;Node30</title>
<path fill="none" stroke="#191970" d="M48.5,-46.1575C48.5,-37.155 48.5,-26.9199 48.5,-19.6427"/>
<polygon fill="#191970" stroke="#191970" points="45.0001,-46.2455 48.5,-56.2455 52.0001,-46.2456 45.0001,-46.2455"/>
</g>
</g>
</svg>
