<?xml version="1.0" encoding="UTF-8" standalone="no"?>
<!DOCTYPE svg PUBLIC "-//W3C//DTD SVG 1.1//EN"
 "http://www.w3.org/Graphics/SVG/1.1/DTD/svg11.dtd">
<!-- Generated by graphviz version 2.40.1 (20161225.0304)
 -->
<!-- Title: FloorGridSceneNode.h Pages: 1 -->
<svg width="718pt" height="140pt"
 viewBox="0.00 0.00 717.50 140.00" xmlns="http://www.w3.org/2000/svg" xmlns:xlink="http://www.w3.org/1999/xlink">
<g id="graph0" class="graph" transform="scale(1 1) rotate(0) translate(4 136)">
<title>FloorGridSceneNode.h</title>
<!-- Node51 -->
<g id="node1" class="node">
<title>Node51</title>
<polygon fill="#bfbfbf" stroke="#000000" points="120.5,-112.5 120.5,-131.5 245.5,-131.5 245.5,-112.5 120.5,-112.5"/>
<text text-anchor="middle" x="183" y="-119.5" font-family="FreeSans.ttf" font-size="10.00" fill="#000000">FloorGridSceneNode.h</text>
</g>
<!-- Node52 -->
<g id="node2" class="node">
<title>Node52</title>
<g id="a_node2"><a xlink:href="IrrlichtUtils_8h.html" target="_top" xlink:title="IrrlichtUtils.h">
<polygon fill="none" stroke="#000000" points="257,-56.5 257,-75.5 337,-75.5 337,-56.5 257,-56.5"/>
<text text-anchor="middle" x="297" y="-63.5" font-family="FreeSans.ttf" font-size="10.00" fill="#000000">IrrlichtUtils.h</text>
</a>
</g>
</g>
<!-- Node51&#45;&gt;Node52 -->
<g id="edge1" class="edge">
<title>Node51&#45;&gt;Node52</title>
<path fill="none" stroke="#191970" d="M211.8321,-107.8368C232.4395,-97.7139 259.6082,-84.3679 277.6584,-75.5011"/>
<polygon fill="#191970" stroke="#191970" points="210.0297,-104.8227 202.5973,-112.3733 213.116,-111.1056 210.0297,-104.8227"/>
</g>
<!-- Node55 -->
<g id="node5" class="node">
<title>Node55</title>
<g id="a_node5"><a xlink:href="FloorGridSceneNode_8cpp.html" target="_top" xlink:title="FloorGridSceneNode.cpp">
<polygon fill="none" stroke="#000000" points="0,-.5 0,-19.5 136,-19.5 136,-.5 0,-.5"/>
<text text-anchor="middle" x="68" y="-7.5" font-family="FreeSans.ttf" font-size="10.00" fill="#000000">FloorGridSceneNode.cpp</text>
</a>
</g>
</g>
<!-- Node51&#45;&gt;Node55 -->
<g id="edge8" class="edge">
<title>Node51&#45;&gt;Node55</title>
<path fill="none" stroke="#191970" d="M166.0206,-105.4635C141.6039,-81.6838 97.3642,-38.5982 77.78,-19.5249"/>
<polygon fill="#191970" stroke="#191970" points="163.5893,-107.9813 173.1952,-112.4509 168.4732,-102.9665 163.5893,-107.9813"/>
</g>
<!-- Node53 -->
<g id="node3" class="node">
<title>Node53</title>
<g id="a_node3"><a xlink:href="Camera_8cpp.html" target="_top" xlink:title="Camera.cpp">
<polygon fill="none" stroke="#000000" points="154.5,-.5 154.5,-19.5 229.5,-19.5 229.5,-.5 154.5,-.5"/>
<text text-anchor="middle" x="192" y="-7.5" font-family="FreeSans.ttf" font-size="10.00" fill="#000000">Camera.cpp</text>
</a>
</g>
</g>
<!-- Node52&#45;&gt;Node53 -->
<g id="edge2" class="edge">
<title>Node52&#45;&gt;Node53</title>
<path fill="none" stroke="#191970" d="M269.7375,-51.46C250.9478,-41.4388 226.4987,-28.3993 210.08,-19.6427"/>
<polygon fill="#191970" stroke="#191970" points="268.2398,-54.6278 278.7104,-56.2455 271.5339,-48.4514 268.2398,-54.6278"/>
</g>
<!-- Node54 -->
<g id="node4" class="node">
<title>Node54</title>
<g id="a_node4"><a xlink:href="Environment_8cpp.html" target="_top" xlink:title="Environment.cpp">
<polygon fill="none" stroke="#000000" points="247.5,-.5 247.5,-19.5 346.5,-19.5 346.5,-.5 247.5,-.5"/>
<text text-anchor="middle" x="297" y="-7.5" font-family="FreeSans.ttf" font-size="10.00" fill="#000000">Environment.cpp</text>
</a>
</g>
</g>
<!-- Node52&#45;&gt;Node54 -->
<g id="edge3" class="edge">
<title>Node52&#45;&gt;Node54</title>
<path fill="none" stroke="#191970" d="M297,-46.1575C297,-37.155 297,-26.9199 297,-19.6427"/>
<polygon fill="#191970" stroke="#191970" points="293.5001,-46.2455 297,-56.2455 300.5001,-46.2456 293.5001,-46.2455"/>
</g>
<!-- Node52&#45;&gt;Node55 -->
<g id="edge4" class="edge">
<title>Node52&#45;&gt;Node55</title>
<path fill="none" stroke="#191970" d="M248.122,-54.0473C205.9728,-43.7401 145.9138,-29.0532 106.945,-19.5237"/>
<polygon fill="#191970" stroke="#191970" points="247.3485,-57.4612 257.8937,-56.4369 249.0113,-50.6616 247.3485,-57.4612"/>
</g>
<!-- Node56 -->
<g id="node6" class="node">
<title>Node56</title>
<g id="a_node6"><a xlink:href="JetsVisualization_8cpp.html" target="_top" xlink:title="JetsVisualization.cpp">
<polygon fill="none" stroke="#000000" points="365,-.5 365,-19.5 483,-19.5 483,-.5 365,-.5"/>
<text text-anchor="middle" x="424" y="-7.5" font-family="FreeSans.ttf" font-size="10.00" fill="#000000">JetsVisualization.cpp</text>
</a>
</g>
</g>
<!-- Node52&#45;&gt;Node56 -->
<g id="edge5" class="edge">
<title>Node52&#45;&gt;Node56</title>
<path fill="none" stroke="#191970" d="M328.1892,-52.2473C351.2537,-42.0771 382.0712,-28.4883 402.4528,-19.5011"/>
<polygon fill="#191970" stroke="#191970" points="326.5699,-49.1361 318.8321,-56.3733 329.3942,-55.5411 326.5699,-49.1361"/>
</g>
<!-- Node57 -->
<g id="node7" class="node">
<title>Node57</title>
<g id="a_node7"><a xlink:href="Light_8cpp.html" target="_top" xlink:title="Light.cpp">
<polygon fill="none" stroke="#000000" points="501.5,-.5 501.5,-19.5 562.5,-19.5 562.5,-.5 501.5,-.5"/>
<text text-anchor="middle" x="532" y="-7.5" font-family="FreeSans.ttf" font-size="10.00" fill="#000000">Light.cpp</text>
</a>
</g>
</g>
<!-- Node52&#45;&gt;Node57 -->
<g id="edge6" class="edge">
<title>Node52&#45;&gt;Node57</title>
<path fill="none" stroke="#191970" d="M347.265,-54.3365C386.6709,-45.1458 442.8721,-31.935 492,-20 495.0606,-19.2565 498.2507,-18.4731 501.4355,-17.6856"/>
<polygon fill="#191970" stroke="#191970" points="346.3166,-50.9636 337.3718,-56.6417 347.9052,-57.781 346.3166,-50.9636"/>
</g>
<!-- Node58 -->
<g id="node8" class="node">
<title>Node58</title>
<g id="a_node8"><a xlink:href="ModelVisualization_8cpp.html" target="_top" xlink:title="ModelVisualization.cpp">
<polygon fill="none" stroke="#000000" points="580.5,-.5 580.5,-19.5 709.5,-19.5 709.5,-.5 580.5,-.5"/>
<text text-anchor="middle" x="645" y="-7.5" font-family="FreeSans.ttf" font-size="10.00" fill="#000000">ModelVisualization.cpp</text>
</a>
</g>
</g>
<!-- Node52&#45;&gt;Node58 -->
<g id="edge7" class="edge">
<title>Node52&#45;&gt;Node58</title>
<path fill="none" stroke="#191970" d="M347.3735,-57.8939C410.5195,-47.7325 518.5945,-30.3411 585.6758,-19.5464"/>
<polygon fill="#191970" stroke="#191970" points="346.5769,-54.477 337.26,-59.5214 347.6891,-61.3881 346.5769,-54.477"/>
</g>
</g>
</svg>
