<?xml version="1.0" encoding="UTF-8" standalone="no"?>
<!DOCTYPE svg PUBLIC "-//W3C//DTD SVG 1.1//EN"
 "http://www.w3.org/Graphics/SVG/1.1/DTD/svg11.dtd">
<!-- Generated by graphviz version 2.40.1 (20161225.0304)
 -->
<!-- Title: ForceVector3.h Pages: 1 -->
<svg width="956pt" height="375pt"
 viewBox="0.00 0.00 955.62 375.00" xmlns="http://www.w3.org/2000/svg" xmlns:xlink="http://www.w3.org/1999/xlink">
<g id="graph0" class="graph" transform="scale(1 1) rotate(0) translate(4 371)">
<title>ForceVector3.h</title>
<!-- Node0 -->
<g id="node1" class="node">
<title>Node0</title>
<polygon fill="#bfbfbf" stroke="#000000" points="682,-347.5 682,-366.5 771,-366.5 771,-347.5 682,-347.5"/>
<text text-anchor="middle" x="726.5" y="-354.5" font-family="FreeSans.ttf" font-size="10.00" fill="#000000">ForceVector3.h</text>
</g>
<!-- Node1 -->
<g id="node2" class="node">
<title>Node1</title>
<g id="a_node2"><a xlink:href="GeomVector3_8h.html" target="_top" xlink:title="iDynTree/Core/GeomVector3.h">
<polygon fill="none" stroke="#000000" points="590,-291.5 590,-310.5 753,-310.5 753,-291.5 590,-291.5"/>
<text text-anchor="middle" x="671.5" y="-298.5" font-family="FreeSans.ttf" font-size="10.00" fill="#000000">iDynTree/Core/GeomVector3.h</text>
</a>
</g>
</g>
<!-- Node0&#45;&gt;Node1 -->
<g id="edge1" class="edge">
<title>Node0&#45;&gt;Node1</title>
<path fill="none" stroke="#191970" d="M716.9197,-347.2455C708.9542,-339.1352 697.4359,-327.4075 687.9921,-317.7919"/>
<polygon fill="#191970" stroke="#191970" points="690.4747,-315.3247 680.9705,-310.6427 685.4805,-320.2297 690.4747,-315.3247"/>
</g>
<!-- Node22 -->
<g id="node23" class="node">
<title>Node22</title>
<g id="a_node23"><a xlink:href="PrivateMotionForceVertorAssociations_8h.html" target="_top" xlink:title="iDynTree/Core/PrivateMotion\lForceVertorAssociations.h">
<polygon fill="none" stroke="#000000" points="731,-224.5 731,-254.5 886,-254.5 886,-224.5 731,-224.5"/>
<text text-anchor="start" x="739" y="-242.5" font-family="FreeSans.ttf" font-size="10.00" fill="#000000">iDynTree/Core/PrivateMotion</text>
<text text-anchor="middle" x="808.5" y="-231.5" font-family="FreeSans.ttf" font-size="10.00" fill="#000000">ForceVertorAssociations.h</text>
</a>
</g>
</g>
<!-- Node0&#45;&gt;Node22 -->
<g id="edge34" class="edge">
<title>Node0&#45;&gt;Node22</title>
<path fill="none" stroke="#191970" d="M734.2092,-347.2755C741.4372,-338.0639 752.4556,-323.7774 761.5,-311 772.5532,-295.3846 784.3804,-277.3848 793.4053,-263.3518"/>
<polygon fill="#191970" stroke="#191970" points="796.4558,-265.0782 798.895,-254.7679 790.5587,-261.3067 796.4558,-265.0782"/>
</g>
<!-- Node2 -->
<g id="node3" class="node">
<title>Node2</title>
<g id="a_node3"><a xlink:href="VectorFixSize_8h.html" target="_top" xlink:title="iDynTree/Core/VectorFixSize.h">
<polygon fill="none" stroke="#000000" points="419,-112.5 419,-131.5 580,-131.5 580,-112.5 419,-112.5"/>
<text text-anchor="middle" x="499.5" y="-119.5" font-family="FreeSans.ttf" font-size="10.00" fill="#000000">iDynTree/Core/VectorFixSize.h</text>
</a>
</g>
</g>
<!-- Node1&#45;&gt;Node2 -->
<g id="edge2" class="edge">
<title>Node1&#45;&gt;Node2</title>
<path fill="none" stroke="#191970" d="M633.8973,-291.4523C612.0885,-284.3532 585.3056,-272.7686 566.5,-255 532.6554,-223.0216 513.2712,-170.2146 504.7517,-141.7105"/>
<polygon fill="#191970" stroke="#191970" points="508.022,-140.4142 501.9248,-131.7496 501.288,-142.3253 508.022,-140.4142"/>
</g>
<!-- Node17 -->
<g id="node18" class="node">
<title>Node17</title>
<g id="a_node18"><a xlink:href="Rotation_8h.html" target="_top" xlink:title="iDynTree/Core/Rotation.h">
<polygon fill="none" stroke="#000000" points="576,-230 576,-249 713,-249 713,-230 576,-230"/>
<text text-anchor="middle" x="644.5" y="-237" font-family="FreeSans.ttf" font-size="10.00" fill="#000000">iDynTree/Core/Rotation.h</text>
</a>
</g>
</g>
<!-- Node1&#45;&gt;Node17 -->
<g id="edge19" class="edge">
<title>Node1&#45;&gt;Node17</title>
<path fill="none" stroke="#191970" d="M667.2813,-291.3906C663.4204,-282.5965 657.5966,-269.3312 652.8039,-258.4145"/>
<polygon fill="#191970" stroke="#191970" points="656.0029,-256.9943 648.7782,-249.2449 649.5934,-259.8083 656.0029,-256.9943"/>
</g>
<!-- Node1&#45;&gt;Node22 -->
<g id="edge33" class="edge">
<title>Node1&#45;&gt;Node22</title>
<path fill="none" stroke="#191970" d="M692.9063,-291.3906C712.3059,-282.682 741.4729,-269.5888 765.6543,-258.7336"/>
<polygon fill="#191970" stroke="#191970" points="767.2965,-261.833 774.986,-254.5446 764.4297,-255.447 767.2965,-261.833"/>
</g>
<!-- Node3 -->
<g id="node4" class="node">
<title>Node3</title>
<g id="a_node4"><a xlink:href="Utils_8h.html" target="_top" xlink:title="iDynTree/Core/Utils.h">
<polygon fill="none" stroke="#000000" points="560,-56.5 560,-75.5 679,-75.5 679,-56.5 560,-56.5"/>
<text text-anchor="middle" x="619.5" y="-63.5" font-family="FreeSans.ttf" font-size="10.00" fill="#000000">iDynTree/Core/Utils.h</text>
</a>
</g>
</g>
<!-- Node2&#45;&gt;Node3 -->
<g id="edge3" class="edge">
<title>Node2&#45;&gt;Node3</title>
<path fill="none" stroke="#191970" d="M520.1287,-112.3733C539.3919,-103.3838 568.3486,-89.8706 590.0419,-79.7471"/>
<polygon fill="#191970" stroke="#191970" points="591.5587,-82.9017 599.1405,-75.5011 588.5985,-76.5584 591.5587,-82.9017"/>
</g>
<!-- Node5 -->
<g id="node6" class="node">
<title>Node5</title>
<g id="a_node6"><a xlink:href="Span_8h.html" target="_top" xlink:title="iDynTree/Core/Span.h">
<polygon fill="none" stroke="#000000" points="240,-56.5 240,-75.5 361,-75.5 361,-56.5 240,-56.5"/>
<text text-anchor="middle" x="300.5" y="-63.5" font-family="FreeSans.ttf" font-size="10.00" fill="#000000">iDynTree/Core/Span.h</text>
</a>
</g>
</g>
<!-- Node2&#45;&gt;Node5 -->
<g id="edge5" class="edge">
<title>Node2&#45;&gt;Node5</title>
<path fill="none" stroke="#191970" d="M465.2907,-112.3733C431.7703,-102.9404 380.5495,-88.5265 344.119,-78.2747"/>
<polygon fill="#191970" stroke="#191970" points="344.8372,-74.8409 334.2629,-75.5011 342.9409,-81.5792 344.8372,-74.8409"/>
</g>
<!-- Node6 -->
<g id="node7" class="node">
<title>Node6</title>
<polygon fill="none" stroke="#bfbfbf" points="581.5,-.5 581.5,-19.5 633.5,-19.5 633.5,-.5 581.5,-.5"/>
<text text-anchor="middle" x="607.5" y="-7.5" font-family="FreeSans.ttf" font-size="10.00" fill="#000000">cassert</text>
</g>
<!-- Node2&#45;&gt;Node6 -->
<g id="edge17" class="edge">
<title>Node2&#45;&gt;Node6</title>
<path fill="none" stroke="#191970" d="M465.5346,-112.427C431.9665,-101.2664 388.334,-81.1058 408.5,-56 454.9605,1.8413 499.5101,-37.9347 571.5,-20 571.5983,-19.9755 571.6968,-19.9509 571.7955,-19.9263"/>
<polygon fill="#191970" stroke="#191970" points="572.3997,-23.3856 581.1969,-17.4816 570.6379,-16.6109 572.3997,-23.3856"/>
</g>
<!-- Node14 -->
<g id="node15" class="node">
<title>Node14</title>
<polygon fill="none" stroke="#bfbfbf" points="813.5,-56.5 813.5,-75.5 857.5,-75.5 857.5,-56.5 813.5,-56.5"/>
<text text-anchor="middle" x="835.5" y="-63.5" font-family="FreeSans.ttf" font-size="10.00" fill="#000000">string</text>
</g>
<!-- Node2&#45;&gt;Node14 -->
<g id="edge15" class="edge">
<title>Node2&#45;&gt;Node14</title>
<path fill="none" stroke="#191970" d="M556.8787,-112.4369C627.8407,-100.6099 746.2039,-80.8827 803.0652,-71.4058"/>
<polygon fill="#191970" stroke="#191970" points="803.9751,-74.8025 813.2636,-69.7061 802.8243,-67.8978 803.9751,-74.8025"/>
</g>
<!-- Node15 -->
<g id="node16" class="node">
<title>Node15</title>
<polygon fill="none" stroke="#bfbfbf" points="485.5,-56.5 485.5,-75.5 541.5,-75.5 541.5,-56.5 485.5,-56.5"/>
<text text-anchor="middle" x="513.5" y="-63.5" font-family="FreeSans.ttf" font-size="10.00" fill="#000000">sstream</text>
</g>
<!-- Node2&#45;&gt;Node15 -->
<g id="edge16" class="edge">
<title>Node2&#45;&gt;Node15</title>
<path fill="none" stroke="#191970" d="M501.9386,-112.2455C503.7855,-104.8579 506.3828,-94.4689 508.6478,-85.4087"/>
<polygon fill="#191970" stroke="#191970" points="512.0594,-86.193 511.0893,-75.6427 505.2684,-84.4952 512.0594,-86.193"/>
</g>
<!-- Node16 -->
<g id="node17" class="node">
<title>Node16</title>
<polygon fill="none" stroke="#bfbfbf" points="417.5,-56.5 417.5,-75.5 467.5,-75.5 467.5,-56.5 417.5,-56.5"/>
<text text-anchor="middle" x="442.5" y="-63.5" font-family="FreeSans.ttf" font-size="10.00" fill="#000000">cstring</text>
</g>
<!-- Node2&#45;&gt;Node16 -->
<g id="edge18" class="edge">
<title>Node2&#45;&gt;Node16</title>
<path fill="none" stroke="#191970" d="M489.5714,-112.2455C481.3162,-104.1352 469.3791,-92.4075 459.5918,-82.7919"/>
<polygon fill="#191970" stroke="#191970" points="461.9011,-80.1542 452.3149,-75.6427 456.9954,-85.1476 461.9011,-80.1542"/>
</g>
<!-- Node4 -->
<g id="node5" class="node">
<title>Node4</title>
<polygon fill="none" stroke="#bfbfbf" points="510,-.5 510,-19.5 563,-19.5 563,-.5 510,-.5"/>
<text text-anchor="middle" x="536.5" y="-7.5" font-family="FreeSans.ttf" font-size="10.00" fill="#000000">cstddef</text>
</g>
<!-- Node3&#45;&gt;Node4 -->
<g id="edge4" class="edge">
<title>Node3&#45;&gt;Node4</title>
<path fill="none" stroke="#191970" d="M605.0425,-56.2455C592.4268,-47.7337 573.9056,-35.2375 559.2955,-25.3801"/>
<polygon fill="#191970" stroke="#191970" points="561.0391,-22.3343 550.7918,-19.6427 557.1239,-28.1371 561.0391,-22.3343"/>
</g>
<!-- Node5&#45;&gt;Node4 -->
<g id="edge9" class="edge">
<title>Node5&#45;&gt;Node4</title>
<path fill="none" stroke="#191970" d="M344.7266,-56.4256C383.2026,-47.9619 440.6855,-34.9966 499.8972,-20.071"/>
<polygon fill="#191970" stroke="#191970" points="500.9661,-23.4108 509.7992,-17.5605 499.2457,-16.6255 500.9661,-23.4108"/>
</g>
<!-- Node5&#45;&gt;Node6 -->
<g id="edge6" class="edge">
<title>Node5&#45;&gt;Node6</title>
<path fill="none" stroke="#191970" d="M361.122,-57.534C416.2736,-49.4005 499.7728,-36.0052 571.5,-20 571.5989,-19.9779 571.698,-19.9558 571.7972,-19.9335"/>
<polygon fill="#191970" stroke="#191970" points="572.3465,-23.4022 581.2326,-17.6325 570.688,-16.6015 572.3465,-23.4022"/>
</g>
<!-- Node7 -->
<g id="node8" class="node">
<title>Node7</title>
<polygon fill="none" stroke="#bfbfbf" points="233.5,-.5 233.5,-19.5 297.5,-19.5 297.5,-.5 233.5,-.5"/>
<text text-anchor="middle" x="265.5" y="-7.5" font-family="FreeSans.ttf" font-size="10.00" fill="#000000">algorithm</text>
</g>
<!-- Node5&#45;&gt;Node7 -->
<g id="edge7" class="edge">
<title>Node5&#45;&gt;Node7</title>
<path fill="none" stroke="#191970" d="M294.4035,-56.2455C289.5855,-48.5367 282.7249,-37.5598 276.8968,-28.2348"/>
<polygon fill="#191970" stroke="#191970" points="279.7947,-26.2677 271.5267,-19.6427 273.8587,-29.9777 279.7947,-26.2677"/>
</g>
<!-- Node8 -->
<g id="node9" class="node">
<title>Node8</title>
<polygon fill="none" stroke="#bfbfbf" points="315.5,-.5 315.5,-19.5 357.5,-19.5 357.5,-.5 315.5,-.5"/>
<text text-anchor="middle" x="336.5" y="-7.5" font-family="FreeSans.ttf" font-size="10.00" fill="#000000">array</text>
</g>
<!-- Node5&#45;&gt;Node8 -->
<g id="edge8" class="edge">
<title>Node5&#45;&gt;Node8</title>
<path fill="none" stroke="#191970" d="M306.7707,-56.2455C311.7264,-48.5367 318.783,-37.5598 324.7776,-28.2348"/>
<polygon fill="#191970" stroke="#191970" points="327.8376,-29.9471 330.3011,-19.6427 321.9494,-26.1618 327.8376,-29.9471"/>
</g>
<!-- Node9 -->
<g id="node10" class="node">
<title>Node9</title>
<polygon fill="none" stroke="#bfbfbf" points="376,-.5 376,-19.5 429,-19.5 429,-.5 376,-.5"/>
<text text-anchor="middle" x="402.5" y="-7.5" font-family="FreeSans.ttf" font-size="10.00" fill="#000000">iterator</text>
</g>
<!-- Node5&#45;&gt;Node9 -->
<g id="edge10" class="edge">
<title>Node5&#45;&gt;Node9</title>
<path fill="none" stroke="#191970" d="M318.267,-56.2455C334.2095,-47.4928 357.8259,-34.527 375.9989,-24.5496"/>
<polygon fill="#191970" stroke="#191970" points="377.8552,-27.5233 384.9366,-19.6427 374.4863,-21.3873 377.8552,-27.5233"/>
</g>
<!-- Node10 -->
<g id="node11" class="node">
<title>Node10</title>
<polygon fill="none" stroke="#bfbfbf" points="447.5,-.5 447.5,-19.5 491.5,-19.5 491.5,-.5 447.5,-.5"/>
<text text-anchor="middle" x="469.5" y="-7.5" font-family="FreeSans.ttf" font-size="10.00" fill="#000000">limits</text>
</g>
<!-- Node5&#45;&gt;Node10 -->
<g id="edge11" class="edge">
<title>Node5&#45;&gt;Node10</title>
<path fill="none" stroke="#191970" d="M329.5521,-56.3733C359.6981,-46.3841 406.7012,-30.8091 437.7938,-20.5062"/>
<polygon fill="#191970" stroke="#191970" points="438.8966,-23.828 447.2881,-17.3601 436.6948,-17.1833 438.8966,-23.828"/>
</g>
<!-- Node11 -->
<g id="node12" class="node">
<title>Node11</title>
<polygon fill="none" stroke="#bfbfbf" points="0,-.5 0,-19.5 65,-19.5 65,-.5 0,-.5"/>
<text text-anchor="middle" x="32.5" y="-7.5" font-family="FreeSans.ttf" font-size="10.00" fill="#000000">stdexcept</text>
</g>
<!-- Node5&#45;&gt;Node11 -->
<g id="edge12" class="edge">
<title>Node5&#45;&gt;Node11</title>
<path fill="none" stroke="#191970" d="M250.3384,-56.4224C206.5111,-47.9218 140.9249,-34.883 75.2574,-20.3368"/>
<polygon fill="#191970" stroke="#191970" points="75.6684,-16.8426 65.1466,-18.0851 74.1467,-23.6752 75.6684,-16.8426"/>
</g>
<!-- Node12 -->
<g id="node13" class="node">
<title>Node12</title>
<polygon fill="none" stroke="#bfbfbf" points="83,-.5 83,-19.5 152,-19.5 152,-.5 83,-.5"/>
<text text-anchor="middle" x="117.5" y="-7.5" font-family="FreeSans.ttf" font-size="10.00" fill="#000000">type_traits</text>
</g>
<!-- Node5&#45;&gt;Node12 -->
<g id="edge13" class="edge">
<title>Node5&#45;&gt;Node12</title>
<path fill="none" stroke="#191970" d="M269.0412,-56.3733C238.4793,-47.021 191.9174,-32.7725 158.4739,-22.5385"/>
<polygon fill="#191970" stroke="#191970" points="159.1348,-19.0806 148.5483,-19.5011 157.0864,-25.7742 159.1348,-19.0806"/>
</g>
<!-- Node13 -->
<g id="node14" class="node">
<title>Node13</title>
<polygon fill="none" stroke="#bfbfbf" points="170,-.5 170,-19.5 215,-19.5 215,-.5 170,-.5"/>
<text text-anchor="middle" x="192.5" y="-7.5" font-family="FreeSans.ttf" font-size="10.00" fill="#000000">utility</text>
</g>
<!-- Node5&#45;&gt;Node13 -->
<g id="edge14" class="edge">
<title>Node5&#45;&gt;Node13</title>
<path fill="none" stroke="#191970" d="M281.6878,-56.2455C264.6527,-47.4125 239.3425,-34.2887 220.0319,-24.2758"/>
<polygon fill="#191970" stroke="#191970" points="221.5853,-21.1388 211.0966,-19.6427 218.363,-27.353 221.5853,-21.1388"/>
</g>
<!-- Node17&#45;&gt;Node2 -->
<g id="edge32" class="edge">
<title>Node17&#45;&gt;Node2</title>
<path fill="none" stroke="#191970" d="M624.0645,-229.9713C605.4029,-220.7266 577.5918,-205.5488 556.5,-188 539.5061,-173.8607 523.3544,-154.3793 512.6126,-140.2496"/>
<polygon fill="#191970" stroke="#191970" points="515.149,-137.794 506.3806,-131.8471 509.5267,-141.9641 515.149,-137.794"/>
</g>
<!-- Node17&#45;&gt;Node14 -->
<g id="edge20" class="edge">
<title>Node17&#45;&gt;Node14</title>
<path fill="none" stroke="#191970" d="M690.4601,-229.9804C700.6668,-227.9411 711.4409,-225.8463 721.5,-224 769.5782,-215.1756 906.8904,-225.2856 938.5,-188 971.427,-149.1604 904.0692,-103.2449 863.3911,-80.4054"/>
<polygon fill="#191970" stroke="#191970" points="864.8836,-77.2324 854.4309,-75.5025 861.5234,-83.3732 864.8836,-77.2324"/>
</g>
<!-- Node18 -->
<g id="node19" class="node">
<title>Node18</title>
<g id="a_node19"><a xlink:href="RotationRaw_8h.html" target="_top" xlink:title="iDynTree/Core/RotationRaw.h">
<polygon fill="none" stroke="#000000" points="565.5,-168.5 565.5,-187.5 723.5,-187.5 723.5,-168.5 565.5,-168.5"/>
<text text-anchor="middle" x="644.5" y="-175.5" font-family="FreeSans.ttf" font-size="10.00" fill="#000000">iDynTree/Core/RotationRaw.h</text>
</a>
</g>
</g>
<!-- Node17&#45;&gt;Node18 -->
<g id="edge21" class="edge">
<title>Node17&#45;&gt;Node18</title>
<path fill="none" stroke="#191970" d="M644.5,-229.8906C644.5,-221.3657 644.5,-208.6392 644.5,-197.9235"/>
<polygon fill="#191970" stroke="#191970" points="648.0001,-197.7448 644.5,-187.7449 641.0001,-197.7449 648.0001,-197.7448"/>
</g>
<!-- Node21 -->
<g id="node22" class="node">
<title>Node21</title>
<g id="a_node22"><a xlink:href="RotationSemantics_8h.html" target="_top" xlink:title="iDynTree/Core/RotationSemantics.h">
<polygon fill="none" stroke="#000000" points="741.5,-168.5 741.5,-187.5 929.5,-187.5 929.5,-168.5 741.5,-168.5"/>
<text text-anchor="middle" x="835.5" y="-175.5" font-family="FreeSans.ttf" font-size="10.00" fill="#000000">iDynTree/Core/RotationSemantics.h</text>
</a>
</g>
</g>
<!-- Node17&#45;&gt;Node21 -->
<g id="edge30" class="edge">
<title>Node17&#45;&gt;Node21</title>
<path fill="none" stroke="#191970" d="M674.3438,-229.8906C707.1425,-219.3298 759.9672,-202.3208 796.1364,-190.6747"/>
<polygon fill="#191970" stroke="#191970" points="797.4198,-193.9385 805.8658,-187.5419 795.2743,-187.2753 797.4198,-193.9385"/>
</g>
<!-- Node18&#45;&gt;Node14 -->
<g id="edge29" class="edge">
<title>Node18&#45;&gt;Node14</title>
<path fill="none" stroke="#191970" d="M681.5861,-168.4947C707.0042,-160.9635 740.8173,-148.8844 767.5,-132 788.4187,-118.763 808.2387,-98.2855 821.0249,-83.6519"/>
<polygon fill="#191970" stroke="#191970" points="823.882,-85.6949 827.6955,-75.8101 818.5501,-81.1593 823.882,-85.6949"/>
</g>
<!-- Node19 -->
<g id="node20" class="node">
<title>Node19</title>
<g id="a_node20"><a xlink:href="MatrixFixSize_8h.html" target="_top" xlink:title="iDynTree/Core/MatrixFixSize.h">
<polygon fill="none" stroke="#000000" points="598,-112.5 598,-131.5 759,-131.5 759,-112.5 598,-112.5"/>
<text text-anchor="middle" x="678.5" y="-119.5" font-family="FreeSans.ttf" font-size="10.00" fill="#000000">iDynTree/Core/MatrixFixSize.h</text>
</a>
</g>
</g>
<!-- Node18&#45;&gt;Node19 -->
<g id="edge22" class="edge">
<title>Node18&#45;&gt;Node19</title>
<path fill="none" stroke="#191970" d="M650.4223,-168.2455C655.1027,-160.5367 661.7673,-149.5598 667.4289,-140.2348"/>
<polygon fill="#191970" stroke="#191970" points="670.4475,-142.007 672.6455,-131.6427 664.4639,-138.3741 670.4475,-142.007"/>
</g>
<!-- Node19&#45;&gt;Node3 -->
<g id="edge23" class="edge">
<title>Node19&#45;&gt;Node3</title>
<path fill="none" stroke="#191970" d="M668.223,-112.2455C659.6782,-104.1352 647.3222,-92.4075 637.1915,-82.7919"/>
<polygon fill="#191970" stroke="#191970" points="639.3218,-79.9884 629.6592,-75.6427 634.5028,-85.0655 639.3218,-79.9884"/>
</g>
<!-- Node19&#45;&gt;Node6 -->
<g id="edge24" class="edge">
<title>Node19&#45;&gt;Node6</title>
<path fill="none" stroke="#191970" d="M711.1305,-112.4581C743.4036,-101.3247 785.4337,-81.1878 766.5,-56 751.7449,-36.371 685.8243,-22.4487 643.6318,-15.3621"/>
<polygon fill="#191970" stroke="#191970" points="644.1535,-11.901 633.7211,-13.7492 643.029,-18.8101 644.1535,-11.901"/>
</g>
<!-- Node19&#45;&gt;Node14 -->
<g id="edge26" class="edge">
<title>Node19&#45;&gt;Node14</title>
<path fill="none" stroke="#191970" d="M705.4893,-112.3733C732.7816,-102.6384 774.9469,-87.5985 803.8106,-77.3032"/>
<polygon fill="#191970" stroke="#191970" points="805.1762,-80.5322 813.4191,-73.876 802.8244,-73.939 805.1762,-80.5322"/>
</g>
<!-- Node19&#45;&gt;Node15 -->
<g id="edge28" class="edge">
<title>Node19&#45;&gt;Node15</title>
<path fill="none" stroke="#191970" d="M650.1355,-112.3733C622.8173,-103.1016 581.3204,-89.0178 551.2262,-78.804"/>
<polygon fill="#191970" stroke="#191970" points="552.0887,-75.4008 541.4944,-75.5011 549.839,-82.0294 552.0887,-75.4008"/>
</g>
<!-- Node19&#45;&gt;Node16 -->
<g id="edge25" class="edge">
<title>Node19&#45;&gt;Node16</title>
<path fill="none" stroke="#191970" d="M632.9763,-112.4793C594.0727,-104.153 536.4038,-91.3631 477.5411,-76.1626"/>
<polygon fill="#191970" stroke="#191970" points="478.2616,-72.7336 467.7024,-73.6019 476.4984,-79.5079 478.2616,-72.7336"/>
</g>
<!-- Node20 -->
<g id="node21" class="node">
<title>Node20</title>
<polygon fill="none" stroke="#bfbfbf" points="697.5,-56.5 697.5,-75.5 757.5,-75.5 757.5,-56.5 697.5,-56.5"/>
<text text-anchor="middle" x="727.5" y="-63.5" font-family="FreeSans.ttf" font-size="10.00" fill="#000000">iostream</text>
</g>
<!-- Node19&#45;&gt;Node20 -->
<g id="edge27" class="edge">
<title>Node19&#45;&gt;Node20</title>
<path fill="none" stroke="#191970" d="M687.0351,-112.2455C693.9912,-104.2958 703.9883,-92.8706 712.3051,-83.3656"/>
<polygon fill="#191970" stroke="#191970" points="715.1116,-85.4732 719.0627,-75.6427 709.8436,-80.8637 715.1116,-85.4732"/>
</g>
<!-- Node21&#45;&gt;Node14 -->
<g id="edge31" class="edge">
<title>Node21&#45;&gt;Node14</title>
<path fill="none" stroke="#191970" d="M835.5,-168.4509C835.5,-150.184 835.5,-109.9553 835.5,-85.6976"/>
<polygon fill="#191970" stroke="#191970" points="839.0001,-85.5249 835.5,-75.5249 832.0001,-85.5249 839.0001,-85.5249"/>
</g>
</g>
</svg>
