<?xml version="1.0" encoding="UTF-8" standalone="no"?>
<!DOCTYPE svg PUBLIC "-//W3C//DTD SVG 1.1//EN"
 "http://www.w3.org/Graphics/SVG/1.1/DTD/svg11.dtd">
<!-- Generated by graphviz version 2.40.1 (20161225.0304)
 -->
<!-- Title: ForwardEuler.h Pages: 1 -->
<svg width="765pt" height="319pt"
 viewBox="0.00 0.00 765.00 319.00" xmlns="http://www.w3.org/2000/svg" xmlns:xlink="http://www.w3.org/1999/xlink">
<g id="graph0" class="graph" transform="scale(1 1) rotate(0) translate(4 315)">
<title>ForwardEuler.h</title>
<!-- Node0 -->
<g id="node1" class="node">
<title>Node0</title>
<polygon fill="#bfbfbf" stroke="#000000" points="376.5,-291.5 376.5,-310.5 465.5,-310.5 465.5,-291.5 376.5,-291.5"/>
<text text-anchor="middle" x="421" y="-298.5" font-family="FreeSans.ttf" font-size="10.00" fill="#000000">ForwardEuler.h</text>
</g>
<!-- Node1 -->
<g id="node2" class="node">
<title>Node1</title>
<g id="a_node2"><a xlink:href="FixedStepIntegrator_8h.html" target="_top" xlink:title="iDynTree/Integrators\l/FixedStepIntegrator.h">
<polygon fill="none" stroke="#000000" points="359.5,-224.5 359.5,-254.5 482.5,-254.5 482.5,-224.5 359.5,-224.5"/>
<text text-anchor="start" x="367.5" y="-242.5" font-family="FreeSans.ttf" font-size="10.00" fill="#000000">iDynTree/Integrators</text>
<text text-anchor="middle" x="421" y="-231.5" font-family="FreeSans.ttf" font-size="10.00" fill="#000000">/FixedStepIntegrator.h</text>
</a>
</g>
</g>
<!-- Node0&#45;&gt;Node1 -->
<g id="edge1" class="edge">
<title>Node0&#45;&gt;Node1</title>
<path fill="none" stroke="#191970" d="M421,-291.3906C421,-284.2234 421,-274.0862 421,-264.671"/>
<polygon fill="#191970" stroke="#191970" points="424.5001,-264.5446 421,-254.5446 417.5001,-264.5446 424.5001,-264.5446"/>
</g>
<!-- Node2 -->
<g id="node3" class="node">
<title>Node2</title>
<g id="a_node3"><a xlink:href="Integrator_8h.html" target="_top" xlink:title="iDynTree/Integrator.h">
<polygon fill="none" stroke="#000000" points="416.5,-168.5 416.5,-187.5 535.5,-187.5 535.5,-168.5 416.5,-168.5"/>
<text text-anchor="middle" x="476" y="-175.5" font-family="FreeSans.ttf" font-size="10.00" fill="#000000">iDynTree/Integrator.h</text>
</a>
</g>
</g>
<!-- Node1&#45;&gt;Node2 -->
<g id="edge2" class="edge">
<title>Node1&#45;&gt;Node2</title>
<path fill="none" stroke="#191970" d="M434.5955,-224.2977C442.3891,-215.5831 452.2047,-204.6075 460.3226,-195.5302"/>
<polygon fill="#191970" stroke="#191970" points="463.1365,-197.6341 467.1938,-187.8469 457.9187,-192.9678 463.1365,-197.6341"/>
</g>
<!-- Node3 -->
<g id="node4" class="node">
<title>Node3</title>
<g id="a_node4"><a xlink:href="VectorDynSize_8h.html" target="_top" xlink:title="iDynTree/Core/VectorDynSize.h">
<polygon fill="none" stroke="#000000" points="226.5,-112.5 226.5,-131.5 393.5,-131.5 393.5,-112.5 226.5,-112.5"/>
<text text-anchor="middle" x="310" y="-119.5" font-family="FreeSans.ttf" font-size="10.00" fill="#000000">iDynTree/Core/VectorDynSize.h</text>
</a>
</g>
</g>
<!-- Node1&#45;&gt;Node3 -->
<g id="edge20" class="edge">
<title>Node1&#45;&gt;Node3</title>
<path fill="none" stroke="#191970" d="M406.4887,-224.1389C385.672,-202.1032 347.4731,-161.6675 325.9088,-138.8403"/>
<polygon fill="#191970" stroke="#191970" points="328.4421,-136.4253 319.0307,-131.5595 323.3536,-141.2323 328.4421,-136.4253"/>
</g>
<!-- Node2&#45;&gt;Node3 -->
<g id="edge3" class="edge">
<title>Node2&#45;&gt;Node3</title>
<path fill="none" stroke="#191970" d="M447.4636,-168.3733C419.9798,-159.1016 378.2314,-145.0178 347.9548,-134.804"/>
<polygon fill="#191970" stroke="#191970" points="348.7582,-131.3813 338.164,-131.5011 346.5206,-138.0141 348.7582,-131.3813"/>
</g>
<!-- Node14 -->
<g id="node15" class="node">
<title>Node14</title>
<polygon fill="none" stroke="#bfbfbf" points="399,-56.5 399,-75.5 443,-75.5 443,-56.5 399,-56.5"/>
<text text-anchor="middle" x="421" y="-63.5" font-family="FreeSans.ttf" font-size="10.00" fill="#000000">string</text>
</g>
<!-- Node2&#45;&gt;Node14 -->
<g id="edge18" class="edge">
<title>Node2&#45;&gt;Node14</title>
<path fill="none" stroke="#191970" d="M466.4743,-168.1898C458.3877,-159.3706 447.0108,-145.7278 440,-132 432.5432,-117.3988 427.6153,-99.4424 424.651,-85.9473"/>
<polygon fill="#191970" stroke="#191970" points="428.0189,-84.9425 422.6104,-75.8322 421.1572,-86.3269 428.0189,-84.9425"/>
</g>
<!-- Node15 -->
<g id="node16" class="node">
<title>Node15</title>
<g id="a_node16"><a xlink:href="MatrixDynSize_8h.html" target="_top" xlink:title="iDynTree/Core/MatrixDynSize.h">
<polygon fill="none" stroke="#000000" points="448.5,-112.5 448.5,-131.5 615.5,-131.5 615.5,-112.5 448.5,-112.5"/>
<text text-anchor="middle" x="532" y="-119.5" font-family="FreeSans.ttf" font-size="10.00" fill="#000000">iDynTree/Core/MatrixDynSize.h</text>
</a>
</g>
</g>
<!-- Node2&#45;&gt;Node15 -->
<g id="edge15" class="edge">
<title>Node2&#45;&gt;Node15</title>
<path fill="none" stroke="#191970" d="M485.7545,-168.2455C493.8648,-160.1352 505.5925,-148.4075 515.2081,-138.7919"/>
<polygon fill="#191970" stroke="#191970" points="517.7611,-141.1887 522.3573,-131.6427 512.8113,-136.2389 517.7611,-141.1887"/>
</g>
<!-- Node16 -->
<g id="node17" class="node">
<title>Node16</title>
<polygon fill="none" stroke="#bfbfbf" points="633.5,-112.5 633.5,-131.5 680.5,-131.5 680.5,-112.5 633.5,-112.5"/>
<text text-anchor="middle" x="657" y="-119.5" font-family="FreeSans.ttf" font-size="10.00" fill="#000000">vector</text>
</g>
<!-- Node2&#45;&gt;Node16 -->
<g id="edge17" class="edge">
<title>Node2&#45;&gt;Node16</title>
<path fill="none" stroke="#191970" d="M507.1158,-168.4279C535.2637,-159.7613 578.1099,-146.5506 623.514,-132.4557"/>
<polygon fill="#191970" stroke="#191970" points="624.7253,-135.7444 633.2372,-129.4359 622.6491,-129.0594 624.7253,-135.7444"/>
</g>
<!-- Node17 -->
<g id="node18" class="node">
<title>Node17</title>
<polygon fill="none" stroke="#bfbfbf" points="699,-112.5 699,-131.5 757,-131.5 757,-112.5 699,-112.5"/>
<text text-anchor="middle" x="728" y="-119.5" font-family="FreeSans.ttf" font-size="10.00" fill="#000000">memory</text>
</g>
<!-- Node2&#45;&gt;Node17 -->
<g id="edge19" class="edge">
<title>Node2&#45;&gt;Node17</title>
<path fill="none" stroke="#191970" d="M523.3156,-168.4749C564.5654,-160.0257 626.238,-147.0455 688.922,-132.1816"/>
<polygon fill="#191970" stroke="#191970" points="690.0733,-135.5052 698.9882,-129.7802 688.4489,-128.6963 690.0733,-135.5052"/>
</g>
<!-- Node4 -->
<g id="node5" class="node">
<title>Node4</title>
<g id="a_node5"><a xlink:href="Span_8h.html" target="_top" xlink:title="iDynTree/Core/Span.h">
<polygon fill="none" stroke="#000000" points="249.5,-56.5 249.5,-75.5 370.5,-75.5 370.5,-56.5 249.5,-56.5"/>
<text text-anchor="middle" x="310" y="-63.5" font-family="FreeSans.ttf" font-size="10.00" fill="#000000">iDynTree/Core/Span.h</text>
</a>
</g>
</g>
<!-- Node3&#45;&gt;Node4 -->
<g id="edge4" class="edge">
<title>Node3&#45;&gt;Node4</title>
<path fill="none" stroke="#191970" d="M310,-112.2455C310,-104.9382 310,-94.6944 310,-85.7046"/>
<polygon fill="#191970" stroke="#191970" points="313.5001,-85.6426 310,-75.6427 306.5001,-85.6427 313.5001,-85.6426"/>
</g>
<!-- Node3&#45;&gt;Node14 -->
<g id="edge14" class="edge">
<title>Node3&#45;&gt;Node14</title>
<path fill="none" stroke="#191970" d="M329.0816,-112.3733C346.7402,-103.4644 373.2053,-90.1127 393.2098,-80.0203"/>
<polygon fill="#191970" stroke="#191970" points="394.8158,-83.1303 402.1674,-75.5011 391.6628,-76.8806 394.8158,-83.1303"/>
</g>
<!-- Node5 -->
<g id="node6" class="node">
<title>Node5</title>
<polygon fill="none" stroke="#bfbfbf" points="0,-.5 0,-19.5 52,-19.5 52,-.5 0,-.5"/>
<text text-anchor="middle" x="26" y="-7.5" font-family="FreeSans.ttf" font-size="10.00" fill="#000000">cassert</text>
</g>
<!-- Node4&#45;&gt;Node5 -->
<g id="edge5" class="edge">
<title>Node4&#45;&gt;Node5</title>
<path fill="none" stroke="#191970" d="M249.5394,-56.494C201.1809,-48.5115 131.4801,-36.1607 62.0896,-20.0978"/>
<polygon fill="#191970" stroke="#191970" points="62.8372,-16.6783 52.3027,-17.8067 61.2416,-23.494 62.8372,-16.6783"/>
</g>
<!-- Node6 -->
<g id="node7" class="node">
<title>Node6</title>
<polygon fill="none" stroke="#bfbfbf" points="70,-.5 70,-19.5 134,-19.5 134,-.5 70,-.5"/>
<text text-anchor="middle" x="102" y="-7.5" font-family="FreeSans.ttf" font-size="10.00" fill="#000000">algorithm</text>
</g>
<!-- Node4&#45;&gt;Node6 -->
<g id="edge6" class="edge">
<title>Node4&#45;&gt;Node6</title>
<path fill="none" stroke="#191970" d="M274.2435,-56.3733C238.0977,-46.6417 182.261,-31.6087 144.0223,-21.3137"/>
<polygon fill="#191970" stroke="#191970" points="144.7854,-17.8946 134.2193,-18.6744 142.9655,-24.6539 144.7854,-17.8946"/>
</g>
<!-- Node7 -->
<g id="node8" class="node">
<title>Node7</title>
<polygon fill="none" stroke="#bfbfbf" points="152,-.5 152,-19.5 194,-19.5 194,-.5 152,-.5"/>
<text text-anchor="middle" x="173" y="-7.5" font-family="FreeSans.ttf" font-size="10.00" fill="#000000">array</text>
</g>
<!-- Node4&#45;&gt;Node7 -->
<g id="edge7" class="edge">
<title>Node4&#45;&gt;Node7</title>
<path fill="none" stroke="#191970" d="M286.4489,-56.3733C263.4855,-46.9868 228.4562,-32.6682 203.4002,-22.4263"/>
<polygon fill="#191970" stroke="#191970" points="204.5817,-19.1282 194.0008,-18.5843 201.9331,-25.6078 204.5817,-19.1282"/>
</g>
<!-- Node8 -->
<g id="node9" class="node">
<title>Node8</title>
<polygon fill="none" stroke="#bfbfbf" points="212.5,-.5 212.5,-19.5 265.5,-19.5 265.5,-.5 212.5,-.5"/>
<text text-anchor="middle" x="239" y="-7.5" font-family="FreeSans.ttf" font-size="10.00" fill="#000000">cstddef</text>
</g>
<!-- Node4&#45;&gt;Node8 -->
<g id="edge8" class="edge">
<title>Node4&#45;&gt;Node8</title>
<path fill="none" stroke="#191970" d="M297.6327,-56.2455C287.0446,-47.8943 271.5936,-35.7076 259.2107,-25.9408"/>
<polygon fill="#191970" stroke="#191970" points="261.2447,-23.0875 251.2255,-19.6427 256.9097,-28.5837 261.2447,-23.0875"/>
</g>
<!-- Node9 -->
<g id="node10" class="node">
<title>Node9</title>
<polygon fill="none" stroke="#bfbfbf" points="283.5,-.5 283.5,-19.5 336.5,-19.5 336.5,-.5 283.5,-.5"/>
<text text-anchor="middle" x="310" y="-7.5" font-family="FreeSans.ttf" font-size="10.00" fill="#000000">iterator</text>
</g>
<!-- Node4&#45;&gt;Node9 -->
<g id="edge9" class="edge">
<title>Node4&#45;&gt;Node9</title>
<path fill="none" stroke="#191970" d="M310,-56.2455C310,-48.9382 310,-38.6944 310,-29.7046"/>
<polygon fill="#191970" stroke="#191970" points="313.5001,-29.6426 310,-19.6427 306.5001,-29.6427 313.5001,-29.6426"/>
</g>
<!-- Node10 -->
<g id="node11" class="node">
<title>Node10</title>
<polygon fill="none" stroke="#bfbfbf" points="355,-.5 355,-19.5 399,-19.5 399,-.5 355,-.5"/>
<text text-anchor="middle" x="377" y="-7.5" font-family="FreeSans.ttf" font-size="10.00" fill="#000000">limits</text>
</g>
<!-- Node4&#45;&gt;Node10 -->
<g id="edge10" class="edge">
<title>Node4&#45;&gt;Node10</title>
<path fill="none" stroke="#191970" d="M321.6705,-56.2455C331.5661,-47.9746 345.9627,-35.9416 357.5901,-26.2232"/>
<polygon fill="#191970" stroke="#191970" points="360.035,-28.7413 365.4632,-19.6427 355.5458,-23.3703 360.035,-28.7413"/>
</g>
<!-- Node11 -->
<g id="node12" class="node">
<title>Node11</title>
<polygon fill="none" stroke="#bfbfbf" points="417.5,-.5 417.5,-19.5 482.5,-19.5 482.5,-.5 417.5,-.5"/>
<text text-anchor="middle" x="450" y="-7.5" font-family="FreeSans.ttf" font-size="10.00" fill="#000000">stdexcept</text>
</g>
<!-- Node4&#45;&gt;Node11 -->
<g id="edge11" class="edge">
<title>Node4&#45;&gt;Node11</title>
<path fill="none" stroke="#191970" d="M334.0669,-56.3733C356.8428,-47.2629 391.2344,-33.5062 416.649,-23.3404"/>
<polygon fill="#191970" stroke="#191970" points="418.2623,-26.4648 426.2472,-19.5011 415.6625,-19.9654 418.2623,-26.4648"/>
</g>
<!-- Node12 -->
<g id="node13" class="node">
<title>Node12</title>
<polygon fill="none" stroke="#bfbfbf" points="500.5,-.5 500.5,-19.5 569.5,-19.5 569.5,-.5 500.5,-.5"/>
<text text-anchor="middle" x="535" y="-7.5" font-family="FreeSans.ttf" font-size="10.00" fill="#000000">type_traits</text>
</g>
<!-- Node4&#45;&gt;Node12 -->
<g id="edge12" class="edge">
<title>Node4&#45;&gt;Node12</title>
<path fill="none" stroke="#191970" d="M348.4232,-56.4369C387.8471,-46.6247 449.119,-31.3748 490.5948,-21.052"/>
<polygon fill="#191970" stroke="#191970" points="491.5685,-24.4165 500.4271,-18.6048 489.8778,-17.6237 491.5685,-24.4165"/>
</g>
<!-- Node13 -->
<g id="node14" class="node">
<title>Node13</title>
<polygon fill="none" stroke="#bfbfbf" points="587.5,-.5 587.5,-19.5 632.5,-19.5 632.5,-.5 587.5,-.5"/>
<text text-anchor="middle" x="610" y="-7.5" font-family="FreeSans.ttf" font-size="10.00" fill="#000000">utility</text>
</g>
<!-- Node4&#45;&gt;Node13 -->
<g id="edge13" class="edge">
<title>Node4&#45;&gt;Node13</title>
<path fill="none" stroke="#191970" d="M370.6026,-58.1578C423.2073,-50.7799 501.5095,-38.4308 577.6628,-20.0825"/>
<polygon fill="#191970" stroke="#191970" points="578.5384,-23.4716 587.42,-17.6952 576.8747,-16.6722 578.5384,-23.4716"/>
</g>
<!-- Node15&#45;&gt;Node14 -->
<g id="edge16" class="edge">
<title>Node15&#45;&gt;Node14</title>
<path fill="none" stroke="#191970" d="M512.9184,-112.3733C495.2598,-103.4644 468.7947,-90.1127 448.7902,-80.0203"/>
<polygon fill="#191970" stroke="#191970" points="450.3372,-76.8806 439.8326,-75.5011 447.1842,-83.1303 450.3372,-76.8806"/>
</g>
</g>
</svg>
