<?xml version="1.0" encoding="UTF-8" standalone="no"?>
<!DOCTYPE svg PUBLIC "-//W3C//DTD SVG 1.1//EN"
 "http://www.w3.org/Graphics/SVG/1.1/DTD/svg11.dtd">
<!-- Generated by graphviz version 2.40.1 (20161225.0304)
 -->
<!-- Title: GeomVector3.cpp Pages: 1 -->
<svg width="1605pt" height="509pt"
 viewBox="0.00 0.00 1605.00 509.00" xmlns="http://www.w3.org/2000/svg" xmlns:xlink="http://www.w3.org/1999/xlink">
<g id="graph0" class="graph" transform="scale(1 1) rotate(0) translate(4 505)">
<title>GeomVector3.cpp</title>
<!-- Node0 -->
<g id="node1" class="node">
<title>Node0</title>
<polygon fill="#bfbfbf" stroke="#000000" points="1062,-481.5 1062,-500.5 1165,-500.5 1165,-481.5 1062,-481.5"/>
<text text-anchor="middle" x="1113.5" y="-488.5" font-family="FreeSans.ttf" font-size="10.00" fill="#000000">GeomVector3.cpp</text>
</g>
<!-- Node1 -->
<g id="node2" class="node">
<title>Node1</title>
<g id="a_node2"><a xlink:href="GeomVector3_8h.html" target="_top" xlink:title="iDynTree/Core/GeomVector3.h">
<polygon fill="none" stroke="#000000" points="503,-291.5 503,-310.5 666,-310.5 666,-291.5 503,-291.5"/>
<text text-anchor="middle" x="584.5" y="-298.5" font-family="FreeSans.ttf" font-size="10.00" fill="#000000">iDynTree/Core/GeomVector3.h</text>
</a>
</g>
</g>
<!-- Node0&#45;&gt;Node1 -->
<g id="edge1" class="edge">
<title>Node0&#45;&gt;Node1</title>
<path fill="none" stroke="#191970" d="M1061.6138,-489.9295C938.4103,-486.8855 636.0938,-476.2768 603.5,-445 569.9564,-412.8118 574.8721,-352.303 580.2503,-320.9575"/>
<polygon fill="#191970" stroke="#191970" points="583.7454,-321.314 582.1823,-310.8351 576.8695,-320.0016 583.7454,-321.314"/>
</g>
<!-- Node23 -->
<g id="node24" class="node">
<title>Node23</title>
<g id="a_node24"><a xlink:href="LinearMotionVector3_8h.html" target="_top" xlink:title="iDynTree/Core/LinearMotion\lVector3.h">
<polygon fill="none" stroke="#000000" points="789,-414.5 789,-444.5 940,-444.5 940,-414.5 789,-414.5"/>
<text text-anchor="start" x="797" y="-432.5" font-family="FreeSans.ttf" font-size="10.00" fill="#000000">iDynTree/Core/LinearMotion</text>
<text text-anchor="middle" x="864.5" y="-421.5" font-family="FreeSans.ttf" font-size="10.00" fill="#000000">Vector3.h</text>
</a>
</g>
</g>
<!-- Node0&#45;&gt;Node23 -->
<g id="edge34" class="edge">
<title>Node0&#45;&gt;Node23</title>
<path fill="none" stroke="#191970" d="M1074.867,-481.4581C1037.7063,-472.2799 980.6463,-458.1867 935.3238,-446.9926"/>
<polygon fill="#191970" stroke="#191970" points="936.0968,-443.5784 925.5492,-444.5784 934.4182,-450.3742 936.0968,-443.5784"/>
</g>
<!-- Node25 -->
<g id="node26" class="node">
<title>Node25</title>
<g id="a_node26"><a xlink:href="AngularMotionVector3_8h.html" target="_top" xlink:title="iDynTree/Core/AngularMotion\lVector3.h">
<polygon fill="none" stroke="#000000" points="612.5,-414.5 612.5,-444.5 770.5,-444.5 770.5,-414.5 612.5,-414.5"/>
<text text-anchor="start" x="620.5" y="-432.5" font-family="FreeSans.ttf" font-size="10.00" fill="#000000">iDynTree/Core/AngularMotion</text>
<text text-anchor="middle" x="691.5" y="-421.5" font-family="FreeSans.ttf" font-size="10.00" fill="#000000">Vector3.h</text>
</a>
</g>
</g>
<!-- Node0&#45;&gt;Node25 -->
<g id="edge39" class="edge">
<title>Node0&#45;&gt;Node25</title>
<path fill="none" stroke="#191970" d="M1061.916,-484.5053C998.2111,-476.3487 886.2856,-461.577 780.5169,-445.1274"/>
<polygon fill="#191970" stroke="#191970" points="781.0513,-441.6685 770.6307,-443.582 779.9702,-448.5845 781.0513,-441.6685"/>
</g>
<!-- Node26 -->
<g id="node27" class="node">
<title>Node26</title>
<g id="a_node27"><a xlink:href="LinearForceVector3_8h.html" target="_top" xlink:title="iDynTree/Core/LinearForce\lVector3.h">
<polygon fill="none" stroke="#000000" points="958.5,-414.5 958.5,-444.5 1102.5,-444.5 1102.5,-414.5 958.5,-414.5"/>
<text text-anchor="start" x="966.5" y="-432.5" font-family="FreeSans.ttf" font-size="10.00" fill="#000000">iDynTree/Core/LinearForce</text>
<text text-anchor="middle" x="1030.5" y="-421.5" font-family="FreeSans.ttf" font-size="10.00" fill="#000000">Vector3.h</text>
</a>
</g>
</g>
<!-- Node0&#45;&gt;Node26 -->
<g id="edge42" class="edge">
<title>Node0&#45;&gt;Node26</title>
<path fill="none" stroke="#191970" d="M1100.5313,-481.3906C1089.5062,-473.2215 1073.2742,-461.1941 1059.2128,-450.7752"/>
<polygon fill="#191970" stroke="#191970" points="1060.9225,-447.6859 1050.8041,-444.5446 1056.7551,-453.3102 1060.9225,-447.6859"/>
</g>
<!-- Node28 -->
<g id="node29" class="node">
<title>Node28</title>
<g id="a_node29"><a xlink:href="AngularForceVector3_8h.html" target="_top" xlink:title="iDynTree/Core/AngularForce\lVector3.h">
<polygon fill="none" stroke="#000000" points="1120.5,-414.5 1120.5,-444.5 1272.5,-444.5 1272.5,-414.5 1120.5,-414.5"/>
<text text-anchor="start" x="1128.5" y="-432.5" font-family="FreeSans.ttf" font-size="10.00" fill="#000000">iDynTree/Core/AngularForce</text>
<text text-anchor="middle" x="1196.5" y="-421.5" font-family="FreeSans.ttf" font-size="10.00" fill="#000000">Vector3.h</text>
</a>
</g>
</g>
<!-- Node0&#45;&gt;Node28 -->
<g id="edge47" class="edge">
<title>Node0&#45;&gt;Node28</title>
<path fill="none" stroke="#191970" d="M1126.4688,-481.3906C1137.4938,-473.2215 1153.7258,-461.1941 1167.7872,-450.7752"/>
<polygon fill="#191970" stroke="#191970" points="1170.2449,-453.3102 1176.1959,-444.5446 1166.0775,-447.6859 1170.2449,-453.3102"/>
</g>
<!-- Node29 -->
<g id="node30" class="node">
<title>Node29</title>
<g id="a_node30"><a xlink:href="PrivatePreProcessorUtils_8h.html" target="_top" xlink:title="iDynTree/Core/PrivatePre\lProcessorUtils.h">
<polygon fill="none" stroke="#000000" points="1288.5,-347.5 1288.5,-377.5 1426.5,-377.5 1426.5,-347.5 1288.5,-347.5"/>
<text text-anchor="start" x="1296.5" y="-365.5" font-family="FreeSans.ttf" font-size="10.00" fill="#000000">iDynTree/Core/PrivatePre</text>
<text text-anchor="middle" x="1357.5" y="-354.5" font-family="FreeSans.ttf" font-size="10.00" fill="#000000">ProcessorUtils.h</text>
</a>
</g>
</g>
<!-- Node0&#45;&gt;Node29 -->
<g id="edge50" class="edge">
<title>Node0&#45;&gt;Node29</title>
<path fill="none" stroke="#191970" d="M1165.3351,-484.4537C1200.1532,-478.2865 1245.9829,-466.6207 1281.5,-445 1306.1995,-429.9644 1327.8146,-404.616 1341.614,-385.9762"/>
<polygon fill="#191970" stroke="#191970" points="1344.5726,-387.8566 1347.5633,-377.6926 1338.887,-383.7732 1344.5726,-387.8566"/>
</g>
<!-- Node30 -->
<g id="node31" class="node">
<title>Node30</title>
<g id="a_node31"><a xlink:href="PrivateSemanticsMacros_8h.html" target="_top" xlink:title="iDynTree/Core/PrivateSemantics\lMacros.h">
<polygon fill="none" stroke="#000000" points="1329,-414.5 1329,-444.5 1502,-444.5 1502,-414.5 1329,-414.5"/>
<text text-anchor="start" x="1337" y="-432.5" font-family="FreeSans.ttf" font-size="10.00" fill="#000000">iDynTree/Core/PrivateSemantics</text>
<text text-anchor="middle" x="1415.5" y="-421.5" font-family="FreeSans.ttf" font-size="10.00" fill="#000000">Macros.h</text>
</a>
</g>
</g>
<!-- Node0&#45;&gt;Node30 -->
<g id="edge51" class="edge">
<title>Node0&#45;&gt;Node30</title>
<path fill="none" stroke="#191970" d="M1160.3561,-481.4581C1205.9769,-472.1678 1276.3257,-457.8418 1331.6088,-446.5838"/>
<polygon fill="#191970" stroke="#191970" points="1332.6462,-449.9445 1341.7466,-444.5193 1331.2493,-443.0852 1332.6462,-449.9445"/>
</g>
<!-- Node31 -->
<g id="node32" class="node">
<title>Node31</title>
<polygon fill="none" stroke="#bfbfbf" points="1520,-420 1520,-439 1597,-439 1597,-420 1520,-420"/>
<text text-anchor="middle" x="1558.5" y="-427" font-family="FreeSans.ttf" font-size="10.00" fill="#000000">Eigen/Dense</text>
</g>
<!-- Node0&#45;&gt;Node31 -->
<g id="edge53" class="edge">
<title>Node0&#45;&gt;Node31</title>
<path fill="none" stroke="#191970" d="M1165.2578,-488.3851C1241.7274,-483.7661 1389.0584,-471.9707 1511.5,-445 1515.1553,-444.1948 1518.9275,-443.2149 1522.671,-442.1429"/>
<polygon fill="#191970" stroke="#191970" points="1523.8835,-445.4319 1532.4132,-439.1474 1521.8262,-438.741 1523.8835,-445.4319"/>
</g>
<!-- Node2 -->
<g id="node3" class="node">
<title>Node2</title>
<g id="a_node3"><a xlink:href="VectorFixSize_8h.html" target="_top" xlink:title="iDynTree/Core/VectorFixSize.h">
<polygon fill="none" stroke="#000000" points="432,-112.5 432,-131.5 593,-131.5 593,-112.5 432,-112.5"/>
<text text-anchor="middle" x="512.5" y="-119.5" font-family="FreeSans.ttf" font-size="10.00" fill="#000000">iDynTree/Core/VectorFixSize.h</text>
</a>
</g>
</g>
<!-- Node1&#45;&gt;Node2 -->
<g id="edge2" class="edge">
<title>Node1&#45;&gt;Node2</title>
<path fill="none" stroke="#191970" d="M580.629,-291.3762C569.2018,-262.9669 535.4607,-179.0828 520.1775,-141.0871"/>
<polygon fill="#191970" stroke="#191970" points="523.3692,-139.6429 516.3902,-131.6714 516.8748,-142.2552 523.3692,-139.6429"/>
</g>
<!-- Node17 -->
<g id="node18" class="node">
<title>Node17</title>
<g id="a_node18"><a xlink:href="Rotation_8h.html" target="_top" xlink:title="iDynTree/Core/Rotation.h">
<polygon fill="none" stroke="#000000" points="589,-230 589,-249 726,-249 726,-230 589,-230"/>
<text text-anchor="middle" x="657.5" y="-237" font-family="FreeSans.ttf" font-size="10.00" fill="#000000">iDynTree/Core/Rotation.h</text>
</a>
</g>
</g>
<!-- Node1&#45;&gt;Node17 -->
<g id="edge19" class="edge">
<title>Node1&#45;&gt;Node17</title>
<path fill="none" stroke="#191970" d="M595.9063,-291.3906C607.1969,-281.8786 624.6967,-267.1357 638.1619,-255.7917"/>
<polygon fill="#191970" stroke="#191970" points="640.5402,-258.3646 645.9329,-249.2449 636.0301,-253.0111 640.5402,-258.3646"/>
</g>
<!-- Node22 -->
<g id="node23" class="node">
<title>Node22</title>
<g id="a_node23"><a xlink:href="PrivateMotionForceVertorAssociations_8h.html" target="_top" xlink:title="iDynTree/Core/PrivateMotion\lForceVertorAssociations.h">
<polygon fill="none" stroke="#000000" points="837,-224.5 837,-254.5 992,-254.5 992,-224.5 837,-224.5"/>
<text text-anchor="start" x="845" y="-242.5" font-family="FreeSans.ttf" font-size="10.00" fill="#000000">iDynTree/Core/PrivateMotion</text>
<text text-anchor="middle" x="914.5" y="-231.5" font-family="FreeSans.ttf" font-size="10.00" fill="#000000">ForceVertorAssociations.h</text>
</a>
</g>
</g>
<!-- Node1&#45;&gt;Node22 -->
<g id="edge33" class="edge">
<title>Node1&#45;&gt;Node22</title>
<path fill="none" stroke="#191970" d="M635.7004,-291.4581C686.6329,-281.9661 765.7718,-267.2175 826.7405,-255.8552"/>
<polygon fill="#191970" stroke="#191970" points="827.5564,-259.2635 836.7459,-253.9905 826.2739,-252.3819 827.5564,-259.2635"/>
</g>
<!-- Node3 -->
<g id="node4" class="node">
<title>Node3</title>
<g id="a_node4"><a xlink:href="Utils_8h.html" target="_top" xlink:title="iDynTree/Core/Utils.h">
<polygon fill="none" stroke="#000000" points="499,-56.5 499,-75.5 618,-75.5 618,-56.5 499,-56.5"/>
<text text-anchor="middle" x="558.5" y="-63.5" font-family="FreeSans.ttf" font-size="10.00" fill="#000000">iDynTree/Core/Utils.h</text>
</a>
</g>
</g>
<!-- Node2&#45;&gt;Node3 -->
<g id="edge3" class="edge">
<title>Node2&#45;&gt;Node3</title>
<path fill="none" stroke="#191970" d="M520.5126,-112.2455C526.9768,-104.3761 536.2385,-93.101 543.9983,-83.6542"/>
<polygon fill="#191970" stroke="#191970" points="546.9364,-85.5916 550.5792,-75.6427 541.5273,-81.1484 546.9364,-85.5916"/>
</g>
<!-- Node5 -->
<g id="node6" class="node">
<title>Node5</title>
<g id="a_node6"><a xlink:href="Span_8h.html" target="_top" xlink:title="iDynTree/Core/Span.h">
<polygon fill="none" stroke="#000000" points="253,-56.5 253,-75.5 374,-75.5 374,-56.5 253,-56.5"/>
<text text-anchor="middle" x="313.5" y="-63.5" font-family="FreeSans.ttf" font-size="10.00" fill="#000000">iDynTree/Core/Span.h</text>
</a>
</g>
</g>
<!-- Node2&#45;&gt;Node5 -->
<g id="edge5" class="edge">
<title>Node2&#45;&gt;Node5</title>
<path fill="none" stroke="#191970" d="M478.2907,-112.3733C444.7703,-102.9404 393.5495,-88.5265 357.119,-78.2747"/>
<polygon fill="#191970" stroke="#191970" points="357.8372,-74.8409 347.2629,-75.5011 355.9409,-81.5792 357.8372,-74.8409"/>
</g>
<!-- Node6 -->
<g id="node7" class="node">
<title>Node6</title>
<polygon fill="none" stroke="#bfbfbf" points="581.5,-.5 581.5,-19.5 633.5,-19.5 633.5,-.5 581.5,-.5"/>
<text text-anchor="middle" x="607.5" y="-7.5" font-family="FreeSans.ttf" font-size="10.00" fill="#000000">cassert</text>
</g>
<!-- Node2&#45;&gt;Node6 -->
<g id="edge17" class="edge">
<title>Node2&#45;&gt;Node6</title>
<path fill="none" stroke="#191970" d="M478.6214,-112.4961C445.1293,-101.396 401.563,-81.2881 421.5,-56 463.947,-2.1604 505.127,-37.1775 571.5,-20 571.5981,-19.9746 571.6964,-19.9491 571.7948,-19.9236"/>
<polygon fill="#191970" stroke="#191970" points="572.4188,-23.3794 581.1828,-17.4261 570.6191,-16.6147 572.4188,-23.3794"/>
</g>
<!-- Node14 -->
<g id="node15" class="node">
<title>Node14</title>
<polygon fill="none" stroke="#bfbfbf" points="826.5,-56.5 826.5,-75.5 870.5,-75.5 870.5,-56.5 826.5,-56.5"/>
<text text-anchor="middle" x="848.5" y="-63.5" font-family="FreeSans.ttf" font-size="10.00" fill="#000000">string</text>
</g>
<!-- Node2&#45;&gt;Node14 -->
<g id="edge15" class="edge">
<title>Node2&#45;&gt;Node14</title>
<path fill="none" stroke="#191970" d="M569.8787,-112.4369C640.8407,-100.6099 759.2039,-80.8827 816.0652,-71.4058"/>
<polygon fill="#191970" stroke="#191970" points="816.9751,-74.8025 826.2636,-69.7061 815.8243,-67.8978 816.9751,-74.8025"/>
</g>
<!-- Node15 -->
<g id="node16" class="node">
<title>Node15</title>
<polygon fill="none" stroke="#bfbfbf" points="636.5,-56.5 636.5,-75.5 692.5,-75.5 692.5,-56.5 636.5,-56.5"/>
<text text-anchor="middle" x="664.5" y="-63.5" font-family="FreeSans.ttf" font-size="10.00" fill="#000000">sstream</text>
</g>
<!-- Node2&#45;&gt;Node15 -->
<g id="edge16" class="edge">
<title>Node2&#45;&gt;Node15</title>
<path fill="none" stroke="#191970" d="M538.6297,-112.3733C563.5768,-103.1822 601.3592,-89.2624 629.0206,-79.0713"/>
<polygon fill="#191970" stroke="#191970" points="630.5378,-82.2424 638.7112,-75.5011 628.1178,-75.674 630.5378,-82.2424"/>
</g>
<!-- Node16 -->
<g id="node17" class="node">
<title>Node16</title>
<polygon fill="none" stroke="#bfbfbf" points="430.5,-56.5 430.5,-75.5 480.5,-75.5 480.5,-56.5 430.5,-56.5"/>
<text text-anchor="middle" x="455.5" y="-63.5" font-family="FreeSans.ttf" font-size="10.00" fill="#000000">cstring</text>
</g>
<!-- Node2&#45;&gt;Node16 -->
<g id="edge18" class="edge">
<title>Node2&#45;&gt;Node16</title>
<path fill="none" stroke="#191970" d="M502.5714,-112.2455C494.3162,-104.1352 482.3791,-92.4075 472.5918,-82.7919"/>
<polygon fill="#191970" stroke="#191970" points="474.9011,-80.1542 465.3149,-75.6427 469.9954,-85.1476 474.9011,-80.1542"/>
</g>
<!-- Node4 -->
<g id="node5" class="node">
<title>Node4</title>
<polygon fill="none" stroke="#bfbfbf" points="510,-.5 510,-19.5 563,-19.5 563,-.5 510,-.5"/>
<text text-anchor="middle" x="536.5" y="-7.5" font-family="FreeSans.ttf" font-size="10.00" fill="#000000">cstddef</text>
</g>
<!-- Node3&#45;&gt;Node4 -->
<g id="edge4" class="edge">
<title>Node3&#45;&gt;Node4</title>
<path fill="none" stroke="#191970" d="M554.6679,-56.2455C551.7341,-48.7776 547.5953,-38.2427 544.009,-29.1137"/>
<polygon fill="#191970" stroke="#191970" points="547.2024,-27.6704 540.2882,-19.6427 540.6871,-30.23 547.2024,-27.6704"/>
</g>
<!-- Node5&#45;&gt;Node4 -->
<g id="edge9" class="edge">
<title>Node5&#45;&gt;Node4</title>
<path fill="none" stroke="#191970" d="M353.7132,-56.4736C389.5677,-47.8981 443.7184,-34.7471 500.0012,-20.0762"/>
<polygon fill="#191970" stroke="#191970" points="500.9994,-23.4329 509.7876,-17.5153 499.2272,-16.6609 500.9994,-23.4329"/>
</g>
<!-- Node5&#45;&gt;Node6 -->
<g id="edge6" class="edge">
<title>Node5&#45;&gt;Node6</title>
<path fill="none" stroke="#191970" d="M374.0352,-56.8653C426.5274,-48.5499 504.3988,-35.2656 571.5,-20 571.5988,-19.9775 571.6978,-19.9549 571.7969,-19.9323"/>
<polygon fill="#191970" stroke="#191970" points="572.3556,-23.3994 581.2268,-17.607 570.6797,-16.603 572.3556,-23.3994"/>
</g>
<!-- Node7 -->
<g id="node8" class="node">
<title>Node7</title>
<polygon fill="none" stroke="#bfbfbf" points="233.5,-.5 233.5,-19.5 297.5,-19.5 297.5,-.5 233.5,-.5"/>
<text text-anchor="middle" x="265.5" y="-7.5" font-family="FreeSans.ttf" font-size="10.00" fill="#000000">algorithm</text>
</g>
<!-- Node5&#45;&gt;Node7 -->
<g id="edge7" class="edge">
<title>Node5&#45;&gt;Node7</title>
<path fill="none" stroke="#191970" d="M305.139,-56.2455C298.325,-48.2958 288.5319,-36.8706 280.3848,-27.3656"/>
<polygon fill="#191970" stroke="#191970" points="282.9305,-24.9575 273.7651,-19.6427 277.6157,-29.513 282.9305,-24.9575"/>
</g>
<!-- Node8 -->
<g id="node9" class="node">
<title>Node8</title>
<polygon fill="none" stroke="#bfbfbf" points="315.5,-.5 315.5,-19.5 357.5,-19.5 357.5,-.5 315.5,-.5"/>
<text text-anchor="middle" x="336.5" y="-7.5" font-family="FreeSans.ttf" font-size="10.00" fill="#000000">array</text>
</g>
<!-- Node5&#45;&gt;Node8 -->
<g id="edge8" class="edge">
<title>Node5&#45;&gt;Node8</title>
<path fill="none" stroke="#191970" d="M317.5063,-56.2455C320.5735,-48.7776 324.9003,-38.2427 328.6497,-29.1137"/>
<polygon fill="#191970" stroke="#191970" points="331.9779,-30.2226 332.5396,-19.6427 325.5028,-27.5631 331.9779,-30.2226"/>
</g>
<!-- Node9 -->
<g id="node10" class="node">
<title>Node9</title>
<polygon fill="none" stroke="#bfbfbf" points="376,-.5 376,-19.5 429,-19.5 429,-.5 376,-.5"/>
<text text-anchor="middle" x="402.5" y="-7.5" font-family="FreeSans.ttf" font-size="10.00" fill="#000000">iterator</text>
</g>
<!-- Node5&#45;&gt;Node9 -->
<g id="edge10" class="edge">
<title>Node5&#45;&gt;Node9</title>
<path fill="none" stroke="#191970" d="M329.0026,-56.2455C342.658,-47.6534 362.7657,-35.0014 378.4989,-25.1018"/>
<polygon fill="#191970" stroke="#191970" points="380.5751,-27.9307 387.175,-19.6427 376.8471,-22.006 380.5751,-27.9307"/>
</g>
<!-- Node10 -->
<g id="node11" class="node">
<title>Node10</title>
<polygon fill="none" stroke="#bfbfbf" points="447.5,-.5 447.5,-19.5 491.5,-19.5 491.5,-.5 447.5,-.5"/>
<text text-anchor="middle" x="469.5" y="-7.5" font-family="FreeSans.ttf" font-size="10.00" fill="#000000">limits</text>
</g>
<!-- Node5&#45;&gt;Node10 -->
<g id="edge11" class="edge">
<title>Node5&#45;&gt;Node10</title>
<path fill="none" stroke="#191970" d="M340.3174,-56.3733C367.28,-46.6944 408.8515,-31.7712 437.5166,-21.4812"/>
<polygon fill="#191970" stroke="#191970" points="438.8431,-24.7238 447.0725,-18.0509 436.478,-18.1354 438.8431,-24.7238"/>
</g>
<!-- Node11 -->
<g id="node12" class="node">
<title>Node11</title>
<polygon fill="none" stroke="#bfbfbf" points="0,-.5 0,-19.5 65,-19.5 65,-.5 0,-.5"/>
<text text-anchor="middle" x="32.5" y="-7.5" font-family="FreeSans.ttf" font-size="10.00" fill="#000000">stdexcept</text>
</g>
<!-- Node5&#45;&gt;Node11 -->
<g id="edge12" class="edge">
<title>Node5&#45;&gt;Node11</title>
<path fill="none" stroke="#191970" d="M259.4884,-56.4427C213.0285,-48.0418 143.9792,-35.1301 75.2717,-20.3156"/>
<polygon fill="#191970" stroke="#191970" points="75.6546,-16.8173 65.1397,-18.1163 74.1697,-23.658 75.6546,-16.8173"/>
</g>
<!-- Node12 -->
<g id="node13" class="node">
<title>Node12</title>
<polygon fill="none" stroke="#bfbfbf" points="83,-.5 83,-19.5 152,-19.5 152,-.5 83,-.5"/>
<text text-anchor="middle" x="117.5" y="-7.5" font-family="FreeSans.ttf" font-size="10.00" fill="#000000">type_traits</text>
</g>
<!-- Node5&#45;&gt;Node12 -->
<g id="edge13" class="edge">
<title>Node5&#45;&gt;Node12</title>
<path fill="none" stroke="#191970" d="M279.8064,-56.3733C246.7913,-46.9404 196.3427,-32.5265 160.4614,-22.2747"/>
<polygon fill="#191970" stroke="#191970" points="161.3307,-18.8831 150.7539,-19.5011 159.4076,-25.6137 161.3307,-18.8831"/>
</g>
<!-- Node13 -->
<g id="node14" class="node">
<title>Node13</title>
<polygon fill="none" stroke="#bfbfbf" points="170,-.5 170,-19.5 215,-19.5 215,-.5 170,-.5"/>
<text text-anchor="middle" x="192.5" y="-7.5" font-family="FreeSans.ttf" font-size="10.00" fill="#000000">utility</text>
</g>
<!-- Node5&#45;&gt;Node13 -->
<g id="edge14" class="edge">
<title>Node5&#45;&gt;Node13</title>
<path fill="none" stroke="#191970" d="M292.6994,-56.3733C273.2757,-47.3838 244.0776,-33.8706 222.2036,-23.7471"/>
<polygon fill="#191970" stroke="#191970" points="223.5745,-20.5249 213.0292,-19.5011 220.6344,-26.8776 223.5745,-20.5249"/>
</g>
<!-- Node17&#45;&gt;Node2 -->
<g id="edge32" class="edge">
<title>Node17&#45;&gt;Node2</title>
<path fill="none" stroke="#191970" d="M637.0645,-229.9713C618.4029,-220.7266 590.5918,-205.5488 569.5,-188 552.5061,-173.8607 536.3544,-154.3793 525.6126,-140.2496"/>
<polygon fill="#191970" stroke="#191970" points="528.149,-137.794 519.3806,-131.8471 522.5267,-141.9641 528.149,-137.794"/>
</g>
<!-- Node17&#45;&gt;Node14 -->
<g id="edge20" class="edge">
<title>Node17&#45;&gt;Node14</title>
<path fill="none" stroke="#191970" d="M726.3426,-232.0983C808.6342,-222.5453 937.1261,-205.1106 951.5,-188 984.169,-149.1109 917.3094,-103.3929 876.6574,-80.5431"/>
<polygon fill="#191970" stroke="#191970" points="878.1461,-77.3679 867.6941,-75.6338 874.7834,-83.5074 878.1461,-77.3679"/>
</g>
<!-- Node18 -->
<g id="node19" class="node">
<title>Node18</title>
<g id="a_node19"><a xlink:href="RotationRaw_8h.html" target="_top" xlink:title="iDynTree/Core/RotationRaw.h">
<polygon fill="none" stroke="#000000" points="578.5,-168.5 578.5,-187.5 736.5,-187.5 736.5,-168.5 578.5,-168.5"/>
<text text-anchor="middle" x="657.5" y="-175.5" font-family="FreeSans.ttf" font-size="10.00" fill="#000000">iDynTree/Core/RotationRaw.h</text>
</a>
</g>
</g>
<!-- Node17&#45;&gt;Node18 -->
<g id="edge21" class="edge">
<title>Node17&#45;&gt;Node18</title>
<path fill="none" stroke="#191970" d="M657.5,-229.8906C657.5,-221.3657 657.5,-208.6392 657.5,-197.9235"/>
<polygon fill="#191970" stroke="#191970" points="661.0001,-197.7448 657.5,-187.7449 654.0001,-197.7449 661.0001,-197.7448"/>
</g>
<!-- Node21 -->
<g id="node22" class="node">
<title>Node21</title>
<g id="a_node22"><a xlink:href="RotationSemantics_8h.html" target="_top" xlink:title="iDynTree/Core/RotationSemantics.h">
<polygon fill="none" stroke="#000000" points="754.5,-168.5 754.5,-187.5 942.5,-187.5 942.5,-168.5 754.5,-168.5"/>
<text text-anchor="middle" x="848.5" y="-175.5" font-family="FreeSans.ttf" font-size="10.00" fill="#000000">iDynTree/Core/RotationSemantics.h</text>
</a>
</g>
</g>
<!-- Node17&#45;&gt;Node21 -->
<g id="edge30" class="edge">
<title>Node17&#45;&gt;Node21</title>
<path fill="none" stroke="#191970" d="M687.3438,-229.8906C720.1425,-219.3298 772.9672,-202.3208 809.1364,-190.6747"/>
<polygon fill="#191970" stroke="#191970" points="810.4198,-193.9385 818.8658,-187.5419 808.2743,-187.2753 810.4198,-193.9385"/>
</g>
<!-- Node18&#45;&gt;Node14 -->
<g id="edge29" class="edge">
<title>Node18&#45;&gt;Node14</title>
<path fill="none" stroke="#191970" d="M694.5861,-168.4947C720.0042,-160.9635 753.8173,-148.8844 780.5,-132 801.4187,-118.763 821.2387,-98.2855 834.0249,-83.6519"/>
<polygon fill="#191970" stroke="#191970" points="836.882,-85.6949 840.6955,-75.8101 831.5501,-81.1593 836.882,-85.6949"/>
</g>
<!-- Node19 -->
<g id="node20" class="node">
<title>Node19</title>
<g id="a_node20"><a xlink:href="MatrixFixSize_8h.html" target="_top" xlink:title="iDynTree/Core/MatrixFixSize.h">
<polygon fill="none" stroke="#000000" points="611,-112.5 611,-131.5 772,-131.5 772,-112.5 611,-112.5"/>
<text text-anchor="middle" x="691.5" y="-119.5" font-family="FreeSans.ttf" font-size="10.00" fill="#000000">iDynTree/Core/MatrixFixSize.h</text>
</a>
</g>
</g>
<!-- Node18&#45;&gt;Node19 -->
<g id="edge22" class="edge">
<title>Node18&#45;&gt;Node19</title>
<path fill="none" stroke="#191970" d="M663.4223,-168.2455C668.1027,-160.5367 674.7673,-149.5598 680.4289,-140.2348"/>
<polygon fill="#191970" stroke="#191970" points="683.4475,-142.007 685.6455,-131.6427 677.4639,-138.3741 683.4475,-142.007"/>
</g>
<!-- Node19&#45;&gt;Node3 -->
<g id="edge23" class="edge">
<title>Node19&#45;&gt;Node3</title>
<path fill="none" stroke="#191970" d="M668.6365,-112.3733C647.095,-103.3032 614.6162,-89.6279 590.5044,-79.4755"/>
<polygon fill="#191970" stroke="#191970" points="591.6397,-76.156 581.0652,-75.5011 588.9233,-82.6075 591.6397,-76.156"/>
</g>
<!-- Node19&#45;&gt;Node6 -->
<g id="edge24" class="edge">
<title>Node19&#45;&gt;Node6</title>
<path fill="none" stroke="#191970" d="M723.9331,-112.4863C756.3289,-101.3095 798.7464,-81.0701 779.5,-56 763.085,-34.6181 689.1989,-21.0193 643.7719,-14.5232"/>
<polygon fill="#191970" stroke="#191970" points="644.0998,-11.0353 633.7149,-13.1341 643.142,-17.9695 644.0998,-11.0353"/>
</g>
<!-- Node19&#45;&gt;Node14 -->
<g id="edge26" class="edge">
<title>Node19&#45;&gt;Node14</title>
<path fill="none" stroke="#191970" d="M718.4893,-112.3733C745.7816,-102.6384 787.9469,-87.5985 816.8106,-77.3032"/>
<polygon fill="#191970" stroke="#191970" points="818.1762,-80.5322 826.4191,-73.876 815.8244,-73.939 818.1762,-80.5322"/>
</g>
<!-- Node19&#45;&gt;Node15 -->
<g id="edge28" class="edge">
<title>Node19&#45;&gt;Node15</title>
<path fill="none" stroke="#191970" d="M686.797,-112.2455C683.1576,-104.6973 678.0076,-94.0158 673.5738,-84.8197"/>
<polygon fill="#191970" stroke="#191970" points="676.6449,-83.1303 669.1491,-75.6427 670.3395,-86.1704 676.6449,-83.1303"/>
</g>
<!-- Node19&#45;&gt;Node16 -->
<g id="edge25" class="edge">
<title>Node19&#45;&gt;Node16</title>
<path fill="none" stroke="#191970" d="M645.9763,-112.4793C607.0727,-104.153 549.4038,-91.3631 490.5411,-76.1626"/>
<polygon fill="#191970" stroke="#191970" points="491.2616,-72.7336 480.7024,-73.6019 489.4984,-79.5079 491.2616,-72.7336"/>
</g>
<!-- Node20 -->
<g id="node21" class="node">
<title>Node20</title>
<polygon fill="none" stroke="#bfbfbf" points="710.5,-56.5 710.5,-75.5 770.5,-75.5 770.5,-56.5 710.5,-56.5"/>
<text text-anchor="middle" x="740.5" y="-63.5" font-family="FreeSans.ttf" font-size="10.00" fill="#000000">iostream</text>
</g>
<!-- Node19&#45;&gt;Node20 -->
<g id="edge27" class="edge">
<title>Node19&#45;&gt;Node20</title>
<path fill="none" stroke="#191970" d="M700.0351,-112.2455C706.9912,-104.2958 716.9883,-92.8706 725.3051,-83.3656"/>
<polygon fill="#191970" stroke="#191970" points="728.1116,-85.4732 732.0627,-75.6427 722.8436,-80.8637 728.1116,-85.4732"/>
</g>
<!-- Node21&#45;&gt;Node14 -->
<g id="edge31" class="edge">
<title>Node21&#45;&gt;Node14</title>
<path fill="none" stroke="#191970" d="M848.5,-168.4509C848.5,-150.184 848.5,-109.9553 848.5,-85.6976"/>
<polygon fill="#191970" stroke="#191970" points="852.0001,-85.5249 848.5,-75.5249 845.0001,-85.5249 852.0001,-85.5249"/>
</g>
<!-- Node23&#45;&gt;Node22 -->
<g id="edge38" class="edge">
<title>Node23&#45;&gt;Node22</title>
<path fill="none" stroke="#191970" d="M876.0486,-414.1004C882.8192,-404.2772 890.9179,-390.9909 895.5,-378 908.8987,-340.0125 912.9102,-293.0674 914.0745,-264.7461"/>
<polygon fill="#191970" stroke="#191970" points="917.5802,-264.6239 914.403,-254.5167 910.5838,-264.3992 917.5802,-264.6239"/>
</g>
<!-- Node24 -->
<g id="node25" class="node">
<title>Node24</title>
<g id="a_node25"><a xlink:href="MotionVector3_8h.html" target="_top" xlink:title="iDynTree/Core/MotionVector3.h">
<polygon fill="none" stroke="#000000" points="720,-353 720,-372 887,-372 887,-353 720,-353"/>
<text text-anchor="middle" x="803.5" y="-360" font-family="FreeSans.ttf" font-size="10.00" fill="#000000">iDynTree/Core/MotionVector3.h</text>
</a>
</g>
</g>
<!-- Node23&#45;&gt;Node24 -->
<g id="edge35" class="edge">
<title>Node23&#45;&gt;Node24</title>
<path fill="none" stroke="#191970" d="M850.6582,-414.2967C841.2463,-403.9591 828.7817,-390.2684 819.0311,-379.5588"/>
<polygon fill="#191970" stroke="#191970" points="821.5196,-377.0931 812.1993,-372.055 816.3435,-381.8057 821.5196,-377.0931"/>
</g>
<!-- Node24&#45;&gt;Node1 -->
<g id="edge36" class="edge">
<title>Node24&#45;&gt;Node1</title>
<path fill="none" stroke="#191970" d="M769.2813,-352.8906C731.2725,-342.2169 669.8089,-324.9566 628.3116,-313.3033"/>
<polygon fill="#191970" stroke="#191970" points="629.0523,-309.8759 618.4785,-310.5419 627.1598,-316.6153 629.0523,-309.8759"/>
</g>
<!-- Node24&#45;&gt;Node22 -->
<g id="edge37" class="edge">
<title>Node24&#45;&gt;Node22</title>
<path fill="none" stroke="#191970" d="M812.21,-352.8484C829.7,-333.4675 869.5079,-289.3561 893.9856,-262.2322"/>
<polygon fill="#191970" stroke="#191970" points="896.6487,-264.5053 900.75,-254.7365 891.4519,-259.8156 896.6487,-264.5053"/>
</g>
<!-- Node25&#45;&gt;Node22 -->
<g id="edge41" class="edge">
<title>Node25&#45;&gt;Node22</title>
<path fill="none" stroke="#191970" d="M691.3416,-414.2111C691.9207,-396.3319 695.3475,-366.6824 710.5,-347 745.0409,-302.1329 803.6861,-274.029 849.2566,-257.8608"/>
<polygon fill="#191970" stroke="#191970" points="850.4505,-261.1515 858.7691,-254.5902 848.1744,-254.5319 850.4505,-261.1515"/>
</g>
<!-- Node25&#45;&gt;Node24 -->
<g id="edge40" class="edge">
<title>Node25&#45;&gt;Node24</title>
<path fill="none" stroke="#191970" d="M716.635,-414.4639C735.1732,-403.3741 760.274,-388.3584 778.7262,-377.32"/>
<polygon fill="#191970" stroke="#191970" points="780.6608,-380.2412 787.4457,-372.1039 777.0672,-374.2341 780.6608,-380.2412"/>
</g>
<!-- Node26&#45;&gt;Node22 -->
<g id="edge46" class="edge">
<title>Node26&#45;&gt;Node22</title>
<path fill="none" stroke="#191970" d="M1008.603,-414.3595C996.3874,-405.021 981.6374,-392.146 971.5,-378 946.0051,-342.4236 929.3937,-293.7522 921.0062,-264.588"/>
<polygon fill="#191970" stroke="#191970" points="924.3329,-263.4866 918.2869,-254.7862 917.5877,-265.358 924.3329,-263.4866"/>
</g>
<!-- Node27 -->
<g id="node28" class="node">
<title>Node27</title>
<g id="a_node28"><a xlink:href="ForceVector3_8h.html" target="_top" xlink:title="iDynTree/Core/ForceVector3.h">
<polygon fill="none" stroke="#000000" points="980.5,-353 980.5,-372 1140.5,-372 1140.5,-353 980.5,-353"/>
<text text-anchor="middle" x="1060.5" y="-360" font-family="FreeSans.ttf" font-size="10.00" fill="#000000">iDynTree/Core/ForceVector3.h</text>
</a>
</g>
</g>
<!-- Node26&#45;&gt;Node27 -->
<g id="edge43" class="edge">
<title>Node26&#45;&gt;Node27</title>
<path fill="none" stroke="#191970" d="M1037.3075,-414.2967C1041.6639,-404.5672 1047.3504,-391.8675 1052.0022,-381.4784"/>
<polygon fill="#191970" stroke="#191970" points="1055.3293,-382.6122 1056.2217,-372.055 1048.9406,-379.7515 1055.3293,-382.6122"/>
</g>
<!-- Node27&#45;&gt;Node1 -->
<g id="edge44" class="edge">
<title>Node27&#45;&gt;Node1</title>
<path fill="none" stroke="#191970" d="M986.9079,-352.9918C900.759,-341.8612 758.4086,-323.4693 668.1464,-311.8073"/>
<polygon fill="#191970" stroke="#191970" points="668.5867,-308.3351 658.2206,-310.5248 667.6897,-315.2774 668.5867,-308.3351"/>
</g>
<!-- Node27&#45;&gt;Node22 -->
<g id="edge45" class="edge">
<title>Node27&#45;&gt;Node22</title>
<path fill="none" stroke="#191970" d="M1049.0436,-352.8484C1025.7425,-333.218 972.3256,-288.2161 940.2494,-261.193"/>
<polygon fill="#191970" stroke="#191970" points="942.4884,-258.5028 932.5856,-254.7365 937.9783,-263.8562 942.4884,-258.5028"/>
</g>
<!-- Node28&#45;&gt;Node22 -->
<g id="edge49" class="edge">
<title>Node28&#45;&gt;Node22</title>
<path fill="none" stroke="#191970" d="M1191.1512,-414.2284C1184.1173,-396.09 1170.1754,-365.9161 1149.5,-347 1101.2997,-302.901 1031.9001,-274.1888 981.0128,-257.6272"/>
<polygon fill="#191970" stroke="#191970" points="982.0057,-254.2702 971.4152,-254.5755 979.8846,-260.9412 982.0057,-254.2702"/>
</g>
<!-- Node28&#45;&gt;Node27 -->
<g id="edge48" class="edge">
<title>Node28&#45;&gt;Node27</title>
<path fill="none" stroke="#191970" d="M1165.9789,-414.4639C1142.9543,-403.1209 1111.5928,-387.6707 1089.0606,-376.5703"/>
<polygon fill="#191970" stroke="#191970" points="1090.5118,-373.3836 1079.9945,-372.1039 1087.4183,-379.6629 1090.5118,-373.3836"/>
</g>
<!-- Node30&#45;&gt;Node29 -->
<g id="edge52" class="edge">
<title>Node30&#45;&gt;Node29</title>
<path fill="none" stroke="#191970" d="M1402.3389,-414.2967C1394.9232,-405.7303 1385.5143,-394.8614 1377.2323,-385.2943"/>
<polygon fill="#191970" stroke="#191970" points="1379.8003,-382.913 1370.609,-377.6432 1374.5078,-387.4946 1379.8003,-382.913"/>
</g>
</g>
</svg>
