<?xml version="1.0" encoding="UTF-8" standalone="no"?>
<!DOCTYPE svg PUBLIC "-//W3C//DTD SVG 1.1//EN"
 "http://www.w3.org/Graphics/SVG/1.1/DTD/svg11.dtd">
<!-- Generated by graphviz version 2.40.1 (20161225.0304)
 -->
<!-- Title: iKin_export.hpp Pages: 1 -->
<svg width="222pt" height="84pt"
 viewBox="0.00 0.00 222.00 84.00" xmlns="http://www.w3.org/2000/svg" xmlns:xlink="http://www.w3.org/1999/xlink">
<g id="graph0" class="graph" transform="scale(1 1) rotate(0) translate(4 80)">
<title>iKin_export.hpp</title>
<!-- Node7 -->
<g id="node1" class="node">
<title>Node7</title>
<polygon fill="#bfbfbf" stroke="#000000" points="57.5,-56.5 57.5,-75.5 150.5,-75.5 150.5,-56.5 57.5,-56.5"/>
<text text-anchor="middle" x="104" y="-63.5" font-family="FreeSans.ttf" font-size="10.00" fill="#000000">iKin_export.hpp</text>
</g>
<!-- Node8 -->
<g id="node2" class="node">
<title>Node8</title>
<g id="a_node2"><a xlink:href="iKin__export_8cpp.html" target="_top" xlink:title="iKin_export.cpp">
<polygon fill="none" stroke="#000000" points="0,-.5 0,-19.5 92,-19.5 92,-.5 0,-.5"/>
<text text-anchor="middle" x="46" y="-7.5" font-family="FreeSans.ttf" font-size="10.00" fill="#000000">iKin_export.cpp</text>
</a>
</g>
</g>
<!-- Node7&#45;&gt;Node8 -->
<g id="edge1" class="edge">
<title>Node7&#45;&gt;Node8</title>
<path fill="none" stroke="#191970" d="M86.4707,-49.0751C76.4917,-39.4402 64.3524,-27.7196 55.9871,-19.6427"/>
<polygon fill="#191970" stroke="#191970" points="84.272,-51.8175 93.8972,-56.2455 89.1342,-46.7817 84.272,-51.8175"/>
</g>
<!-- Node9 -->
<g id="node3" class="node">
<title>Node9</title>
<g id="a_node3"><a xlink:href="urdf2dh__helpers_8h.html" target="_top" xlink:title="urdf2dh_helpers.h">
<polygon fill="none" stroke="#000000" points="110,-.5 110,-19.5 214,-19.5 214,-.5 110,-.5"/>
<text text-anchor="middle" x="162" y="-7.5" font-family="FreeSans.ttf" font-size="10.00" fill="#000000">urdf2dh_helpers.h</text>
</a>
</g>
</g>
<!-- Node7&#45;&gt;Node9 -->
<g id="edge2" class="edge">
<title>Node7&#45;&gt;Node9</title>
<path fill="none" stroke="#191970" d="M121.5293,-49.0751C131.5083,-39.4402 143.6476,-27.7196 152.0129,-19.6427"/>
<polygon fill="#191970" stroke="#191970" points="118.8658,-46.7817 114.1028,-56.2455 123.728,-51.8175 118.8658,-46.7817"/>
</g>
</g>
</svg>
