<?xml version="1.0" encoding="UTF-8" standalone="no"?>
<!DOCTYPE svg PUBLIC "-//W3C//DTD SVG 1.1//EN"
 "http://www.w3.org/Graphics/SVG/1.1/DTD/svg11.dtd">
<!-- Generated by graphviz version 2.40.1 (20161225.0304)
 -->
<!-- Title: Indices.h Pages: 1 -->
<svg width="3540pt" height="330pt"
 viewBox="0.00 0.00 3539.90 330.00" xmlns="http://www.w3.org/2000/svg" xmlns:xlink="http://www.w3.org/1999/xlink">
<g id="graph0" class="graph" transform="scale(1 1) rotate(0) translate(4 326)">
<title>Indices.h</title>
<!-- Node2 -->
<g id="node1" class="node">
<title>Node2</title>
<polygon fill="#bfbfbf" stroke="#000000" points="1744,-302.5 1744,-321.5 1804,-321.5 1804,-302.5 1744,-302.5"/>
<text text-anchor="middle" x="1774" y="-309.5" font-family="FreeSans.ttf" font-size="10.00" fill="#000000">Indices.h</text>
</g>
<!-- Node3 -->
<g id="node2" class="node">
<title>Node3</title>
<g id="a_node2"><a xlink:href="BerdyHelper_8h.html" target="_top" xlink:title="BerdyHelper.h">
<polygon fill="none" stroke="#000000" points="1822,-73 1822,-92 1908,-92 1908,-73 1822,-73"/>
<text text-anchor="middle" x="1865" y="-80" font-family="FreeSans.ttf" font-size="10.00" fill="#000000">BerdyHelper.h</text>
</a>
</g>
</g>
<!-- Node2&#45;&gt;Node3 -->
<g id="edge1" class="edge">
<title>Node2&#45;&gt;Node3</title>
<path fill="none" stroke="#191970" d="M1781.5841,-292.8731C1800.1623,-246.0192 1847.4322,-126.8056 1861.1895,-92.11"/>
<polygon fill="#191970" stroke="#191970" points="1778.2268,-291.8448 1777.7943,-302.4309 1784.7339,-294.4251 1778.2268,-291.8448"/>
</g>
<!-- Node6 -->
<g id="node5" class="node">
<title>Node6</title>
<g id="a_node5"><a xlink:href="BerdySparseMAPSolver_8h.html" target="_top" xlink:title="BerdySparseMAPSolver.h">
<polygon fill="none" stroke="#000000" points="239,-190.5 239,-209.5 377,-209.5 377,-190.5 239,-190.5"/>
<text text-anchor="middle" x="308" y="-197.5" font-family="FreeSans.ttf" font-size="10.00" fill="#000000">BerdySparseMAPSolver.h</text>
</a>
</g>
</g>
<!-- Node2&#45;&gt;Node6 -->
<g id="edge4" class="edge">
<title>Node2&#45;&gt;Node6</title>
<path fill="none" stroke="#191970" d="M1733.7633,-311.3539C1555.4151,-308.3446 835.1617,-294.623 611,-266 512.2025,-253.3846 397.962,-224.5351 342.1936,-209.503"/>
<polygon fill="#191970" stroke="#191970" points="1733.7111,-314.8534 1743.7682,-311.521 1733.8281,-307.8543 1733.7111,-314.8534"/>
</g>
<!-- Node7 -->
<g id="node6" class="node">
<title>Node7</title>
<g id="a_node6"><a xlink:href="ExternalWrenchesEstimation_8h.html" target="_top" xlink:title="ExternalWrenchesEstimation.h">
<polygon fill="none" stroke="#000000" points="2731,-134.5 2731,-153.5 2897,-153.5 2897,-134.5 2731,-134.5"/>
<text text-anchor="middle" x="2814" y="-141.5" font-family="FreeSans.ttf" font-size="10.00" fill="#000000">ExternalWrenchesEstimation.h</text>
</a>
</g>
</g>
<!-- Node2&#45;&gt;Node7 -->
<g id="edge6" class="edge">
<title>Node2&#45;&gt;Node7</title>
<path fill="none" stroke="#191970" d="M1814.2534,-308.0108C1878.1334,-301.3535 2006.5009,-286.6439 2114,-266 2149.9922,-259.0881 2158.1103,-253.4254 2194,-246 2392.4245,-204.9468 2629.3154,-169.7684 2744.3858,-153.5529"/>
<polygon fill="#191970" stroke="#191970" points="1813.7874,-304.5402 1804.1991,-309.0474 1814.5054,-311.5033 1813.7874,-304.5402"/>
</g>
<!-- Node13 -->
<g id="node11" class="node">
<title>Node13</title>
<g id="a_node11"><a xlink:href="skinDynLibConversions_8h.html" target="_top" xlink:title="skinDynLibConversions.h">
<polygon fill="none" stroke="#000000" points="3248,-73 3248,-92 3388,-92 3388,-73 3248,-73"/>
<text text-anchor="middle" x="3318" y="-80" font-family="FreeSans.ttf" font-size="10.00" fill="#000000">skinDynLibConversions.h</text>
</a>
</g>
</g>
<!-- Node2&#45;&gt;Node13 -->
<g id="edge28" class="edge">
<title>Node2&#45;&gt;Node13</title>
<path fill="none" stroke="#191970" d="M1814.449,-311.2459C1979.0777,-307.3431 2613.7916,-284.1859 3115,-154 3181.7247,-136.6686 3257.7129,-107.1808 3294.9544,-92.061"/>
<polygon fill="#191970" stroke="#191970" points="1814.2095,-307.7503 1804.2914,-311.476 1814.3682,-314.7485 1814.2095,-307.7503"/>
</g>
<!-- Node16 -->
<g id="node14" class="node">
<title>Node16</title>
<g id="a_node14"><a xlink:href="SimpleLeggedOdometry_8h.html" target="_top" xlink:title="SimpleLeggedOdometry.h">
<polygon fill="none" stroke="#000000" points="292,-73 292,-92 434,-92 434,-73 292,-73"/>
<text text-anchor="middle" x="363" y="-80" font-family="FreeSans.ttf" font-size="10.00" fill="#000000">SimpleLeggedOdometry.h</text>
</a>
</g>
</g>
<!-- Node2&#45;&gt;Node16 -->
<g id="edge16" class="edge">
<title>Node2&#45;&gt;Node16</title>
<path fill="none" stroke="#191970" d="M1733.8455,-310.6506C1640.6536,-307.105 1402.6354,-295.6661 1206,-266 979.1035,-231.7685 914.9446,-239.4893 702,-154 686.0846,-147.6106 685.1019,-139.9035 669,-134 573.5051,-98.9885 543.1631,-115.6758 443,-98 432.5511,-96.1561 421.3581,-94.0622 410.7539,-92.0231"/>
<polygon fill="#191970" stroke="#191970" points="1733.8414,-314.1528 1743.9643,-311.026 1734.1009,-307.1576 1733.8414,-314.1528"/>
</g>
<!-- Node17 -->
<g id="node15" class="node">
<title>Node17</title>
<g id="a_node15"><a xlink:href="SimpleLeggedOdometry_8cpp.html" target="_top" xlink:title="SimpleLeggedOdometry.cpp">
<polygon fill="none" stroke="#000000" points="286.5,-6 286.5,-25 439.5,-25 439.5,-6 286.5,-6"/>
<text text-anchor="middle" x="363" y="-13" font-family="FreeSans.ttf" font-size="10.00" fill="#000000">SimpleLeggedOdometry.cpp</text>
</a>
</g>
</g>
<!-- Node2&#45;&gt;Node17 -->
<g id="edge18" class="edge">
<title>Node2&#45;&gt;Node17</title>
<path fill="none" stroke="#191970" d="M1733.6824,-311.6275C1469.8065,-308.9326 0,-289.8873 0,-200 0,-200 0,-200 0,-144 0,-105.6385 7.9983,-89.5943 39,-67 77.3766,-39.0309 203.2251,-25.6477 286.3105,-19.7156"/>
<polygon fill="#191970" stroke="#191970" points="1733.9187,-315.1299 1743.9533,-311.7303 1733.9888,-308.1303 1733.9187,-315.1299"/>
</g>
<!-- Node18 -->
<g id="node16" class="node">
<title>Node18</title>
<g id="a_node16"><a xlink:href="KinDynComputations_8h.html" target="_top" xlink:title="KinDynComputations.h">
<polygon fill="none" stroke="#000000" points="830.5,-134.5 830.5,-153.5 959.5,-153.5 959.5,-134.5 830.5,-134.5"/>
<text text-anchor="middle" x="895" y="-141.5" font-family="FreeSans.ttf" font-size="10.00" fill="#000000">KinDynComputations.h</text>
</a>
</g>
</g>
<!-- Node2&#45;&gt;Node18 -->
<g id="edge19" class="edge">
<title>Node2&#45;&gt;Node18</title>
<path fill="none" stroke="#191970" d="M1733.8019,-310.9771C1650.2071,-308.2407 1451.8472,-298.5739 1289,-266 1145.7593,-237.3479 980.6146,-176.8889 919.4347,-153.5096"/>
<polygon fill="#191970" stroke="#191970" points="1733.7821,-314.4781 1743.8863,-311.2914 1734.0002,-307.4815 1733.7821,-314.4781"/>
</g>
<!-- Node34 -->
<g id="node24" class="node">
<title>Node34</title>
<g id="a_node24"><a xlink:href="Centroidal_8h.html" target="_top" xlink:title="Centroidal.h">
<polygon fill="none" stroke="#000000" points="1389,-246.5 1389,-265.5 1465,-265.5 1465,-246.5 1389,-246.5"/>
<text text-anchor="middle" x="1427" y="-253.5" font-family="FreeSans.ttf" font-size="10.00" fill="#000000">Centroidal.h</text>
</a>
</g>
</g>
<!-- Node2&#45;&gt;Node34 -->
<g id="edge29" class="edge">
<title>Node2&#45;&gt;Node34</title>
<path fill="none" stroke="#191970" d="M1733.5013,-306.5437C1675.7453,-298.5914 1566.467,-282.9116 1474,-266 1471.1278,-265.4747 1468.1625,-264.9061 1465.1831,-264.3159"/>
<polygon fill="#191970" stroke="#191970" points="1733.2877,-310.0471 1743.6703,-307.9372 1734.2381,-303.1119 1733.2877,-310.0471"/>
</g>
<!-- Node35 -->
<g id="node25" class="node">
<title>Node35</title>
<g id="a_node25"><a xlink:href="ContactWrench_8h.html" target="_top" xlink:title="ContactWrench.h">
<polygon fill="none" stroke="#000000" points="3006.5,-134.5 3006.5,-153.5 3105.5,-153.5 3105.5,-134.5 3006.5,-134.5"/>
<text text-anchor="middle" x="3056" y="-141.5" font-family="FreeSans.ttf" font-size="10.00" fill="#000000">ContactWrench.h</text>
</a>
</g>
</g>
<!-- Node2&#45;&gt;Node35 -->
<g id="edge30" class="edge">
<title>Node2&#45;&gt;Node35</title>
<path fill="none" stroke="#191970" d="M1814.1727,-310.2985C1911.7497,-305.875 2168.8977,-292.4725 2382,-266 2526.5858,-248.0389 2561.6247,-235.9072 2705,-210 2812.6955,-190.54 2938.7353,-166.5407 3006.6318,-153.5116"/>
<polygon fill="#191970" stroke="#191970" points="1813.9855,-306.8033 1804.1518,-310.7465 1814.2982,-313.7963 1813.9855,-306.8033"/>
</g>
<!-- Node37 -->
<g id="node27" class="node">
<title>Node37</title>
<g id="a_node27"><a xlink:href="DenavitHartenberg_8h.html" target="_top" xlink:title="DenavitHartenberg.h">
<polygon fill="none" stroke="#000000" points="540.5,-134.5 540.5,-153.5 659.5,-153.5 659.5,-134.5 540.5,-134.5"/>
<text text-anchor="middle" x="600" y="-141.5" font-family="FreeSans.ttf" font-size="10.00" fill="#000000">DenavitHartenberg.h</text>
</a>
</g>
</g>
<!-- Node2&#45;&gt;Node37 -->
<g id="edge36" class="edge">
<title>Node2&#45;&gt;Node37</title>
<path fill="none" stroke="#191970" d="M1733.4527,-311.3735C1540.2447,-308.2533 720.433,-293.436 674,-266 630.2787,-240.1663 609.1272,-177.4743 602.4349,-153.5208"/>
<polygon fill="#191970" stroke="#191970" points="1733.6747,-314.8774 1743.7295,-311.538 1733.7868,-307.8783 1733.6747,-314.8774"/>
</g>
<!-- Node40 -->
<g id="node30" class="node">
<title>Node40</title>
<g id="a_node30"><a xlink:href="Dynamics_8h.html" target="_top" xlink:title="Dynamics.h">
<polygon fill="none" stroke="#000000" points="2080,-134.5 2080,-153.5 2154,-153.5 2154,-134.5 2080,-134.5"/>
<text text-anchor="middle" x="2117" y="-141.5" font-family="FreeSans.ttf" font-size="10.00" fill="#000000">Dynamics.h</text>
</a>
</g>
</g>
<!-- Node2&#45;&gt;Node40 -->
<g id="edge40" class="edge">
<title>Node2&#45;&gt;Node40</title>
<path fill="none" stroke="#191970" d="M1814.8024,-309.2215C1880.3044,-304.0706 2005.2003,-291.1952 2041,-266 2072.7374,-243.6637 2063.1031,-222.7031 2084,-190 2092.2558,-177.0798 2102.704,-162.8246 2109.6069,-153.6591"/>
<polygon fill="#191970" stroke="#191970" points="1814.146,-305.7613 1804.4407,-310.0108 1814.6777,-312.7411 1814.146,-305.7613"/>
</g>
<!-- Node47 -->
<g id="node35" class="node">
<title>Node47</title>
<g id="a_node35"><a xlink:href="FixedJoint_8h.html" target="_top" xlink:title="FixedJoint.h">
<polygon fill="none" stroke="#ff0000" points="1324.5,-190.5 1324.5,-209.5 1397.5,-209.5 1397.5,-190.5 1324.5,-190.5"/>
<text text-anchor="middle" x="1361" y="-197.5" font-family="FreeSans.ttf" font-size="10.00" fill="#000000">FixedJoint.h</text>
</a>
</g>
</g>
<!-- Node2&#45;&gt;Node47 -->
<g id="edge50" class="edge">
<title>Node2&#45;&gt;Node47</title>
<path fill="none" stroke="#191970" d="M1733.6084,-309.7995C1638.5418,-304.2684 1406.6417,-288.5935 1380,-266 1363.4492,-251.9641 1360.8283,-224.527 1360.6961,-209.8377"/>
<polygon fill="#191970" stroke="#191970" points="1733.5209,-313.3001 1743.7049,-310.3786 1733.9218,-306.3116 1733.5209,-313.3001"/>
</g>
<!-- Node52 -->
<g id="node36" class="node">
<title>Node52</title>
<g id="a_node36"><a xlink:href="ForwardKinematics_8h.html" target="_top" xlink:title="ForwardKinematics.h">
<polygon fill="none" stroke="#ff0000" points="1234.5,-134.5 1234.5,-153.5 1353.5,-153.5 1353.5,-134.5 1234.5,-134.5"/>
<text text-anchor="middle" x="1294" y="-141.5" font-family="FreeSans.ttf" font-size="10.00" fill="#000000">ForwardKinematics.h</text>
</a>
</g>
</g>
<!-- Node2&#45;&gt;Node52 -->
<g id="edge52" class="edge">
<title>Node2&#45;&gt;Node52</title>
<path fill="none" stroke="#191970" d="M1737.2932,-299.1526C1644.584,-266.7044 1402.5984,-182.0095 1321.1808,-153.5133"/>
<polygon fill="#191970" stroke="#191970" points="1736.223,-302.4862 1746.8178,-302.4862 1738.5355,-295.8792 1736.223,-302.4862"/>
</g>
<!-- Node55 -->
<g id="node37" class="node">
<title>Node55</title>
<g id="a_node37"><a xlink:href="FreeFloatingState_8h.html" target="_top" xlink:title="FreeFloatingState.h">
<polygon fill="none" stroke="#ff0000" points="1674,-134.5 1674,-153.5 1784,-153.5 1784,-134.5 1674,-134.5"/>
<text text-anchor="middle" x="1729" y="-141.5" font-family="FreeSans.ttf" font-size="10.00" fill="#000000">FreeFloatingState.h</text>
</a>
</g>
</g>
<!-- Node2&#45;&gt;Node55 -->
<g id="edge58" class="edge">
<title>Node2&#45;&gt;Node55</title>
<path fill="none" stroke="#191970" d="M1768.8375,-292.7267C1759.2198,-256.8207 1738.8792,-180.8822 1731.6325,-153.8279"/>
<polygon fill="#191970" stroke="#191970" points="1765.4834,-293.7324 1771.4517,-302.4862 1772.2451,-291.9212 1765.4834,-293.7324"/>
</g>
<!-- Node57 -->
<g id="node38" class="node">
<title>Node57</title>
<g id="a_node38"><a xlink:href="IJoint_8h.html" target="_top" xlink:title="IJoint.h">
<polygon fill="none" stroke="#ff0000" points="1483,-246.5 1483,-265.5 1533,-265.5 1533,-246.5 1483,-246.5"/>
<text text-anchor="middle" x="1508" y="-253.5" font-family="FreeSans.ttf" font-size="10.00" fill="#000000">IJoint.h</text>
</a>
</g>
</g>
<!-- Node2&#45;&gt;Node57 -->
<g id="edge66" class="edge">
<title>Node2&#45;&gt;Node57</title>
<path fill="none" stroke="#191970" d="M1733.7347,-304.4846C1688.2516,-295.8459 1612.0856,-280.9286 1547,-266 1542.5035,-264.9686 1537.7332,-263.8044 1533.1293,-262.6443"/>
<polygon fill="#191970" stroke="#191970" points="1733.3088,-307.966 1743.7851,-306.386 1734.6101,-301.088 1733.3088,-307.966"/>
</g>
<!-- Node58 -->
<g id="node39" class="node">
<title>Node58</title>
<g id="a_node39"><a xlink:href="Model_8h.html" target="_top" xlink:title="Model.h">
<polygon fill="none" stroke="#ff0000" points="1655.5,-190.5 1655.5,-209.5 1710.5,-209.5 1710.5,-190.5 1655.5,-190.5"/>
<text text-anchor="middle" x="1683" y="-197.5" font-family="FreeSans.ttf" font-size="10.00" fill="#000000">Model.h</text>
</a>
</g>
</g>
<!-- Node2&#45;&gt;Node58 -->
<g id="edge114" class="edge">
<title>Node2&#45;&gt;Node58</title>
<path fill="none" stroke="#191970" d="M1734.5494,-299.2406C1718.4866,-292.0256 1701.3082,-281.3069 1691,-266 1679.5239,-248.9588 1680.1391,-223.7072 1681.5793,-209.9015"/>
<polygon fill="#191970" stroke="#191970" points="1733.2401,-302.4866 1743.8176,-303.092 1735.9263,-296.0225 1733.2401,-302.4866"/>
</g>
<!-- Node81 -->
<g id="node40" class="node">
<title>Node81</title>
<g id="a_node40"><a xlink:href="Sensors_8h.html" target="_top" xlink:title="Sensors.h">
<polygon fill="none" stroke="#ff0000" points="2535,-134.5 2535,-153.5 2599,-153.5 2599,-134.5 2535,-134.5"/>
<text text-anchor="middle" x="2567" y="-141.5" font-family="FreeSans.ttf" font-size="10.00" fill="#000000">Sensors.h</text>
</a>
</g>
</g>
<!-- Node2&#45;&gt;Node81 -->
<g id="edge136" class="edge">
<title>Node2&#45;&gt;Node81</title>
<path fill="none" stroke="#191970" d="M1814.4726,-309.3675C1888.1974,-304.0361 2041.1042,-290.3514 2088,-266 2129.2936,-244.5577 2118.2096,-210.4574 2160,-190 2306.8056,-118.1351 2364.867,-181.4338 2526,-154 2528.8891,-153.5081 2531.8764,-152.9258 2534.8605,-152.2933"/>
<polygon fill="#191970" stroke="#191970" points="1813.9202,-305.8977 1804.1917,-310.0937 1814.4135,-312.8803 1813.9202,-305.8977"/>
</g>
<!-- Node131 -->
<g id="node41" class="node">
<title>Node131</title>
<g id="a_node41"><a xlink:href="Indeces_8h.html" target="_top" xlink:title="Indeces.h">
<polygon fill="none" stroke="#000000" points="1968.5,-246.5 1968.5,-265.5 2031.5,-265.5 2031.5,-246.5 1968.5,-246.5"/>
<text text-anchor="middle" x="2000" y="-253.5" font-family="FreeSans.ttf" font-size="10.00" fill="#000000">Indeces.h</text>
</a>
</g>
</g>
<!-- Node2&#45;&gt;Node131 -->
<g id="edge91" class="edge">
<title>Node2&#45;&gt;Node131</title>
<path fill="none" stroke="#191970" d="M1813.805,-302.1368C1857.8579,-291.2211 1927.9622,-273.8501 1968.4084,-263.828"/>
<polygon fill="#191970" stroke="#191970" points="1812.8757,-298.7612 1804.0111,-304.5636 1814.5593,-305.5557 1812.8757,-298.7612"/>
</g>
<!-- Node132 -->
<g id="node42" class="node">
<title>Node132</title>
<g id="a_node42"><a xlink:href="Jacobians_8h.html" target="_top" xlink:title="Jacobians.h">
<polygon fill="none" stroke="#ff0000" points="1565,-190.5 1565,-209.5 1637,-209.5 1637,-190.5 1565,-190.5"/>
<text text-anchor="middle" x="1601" y="-197.5" font-family="FreeSans.ttf" font-size="10.00" fill="#000000">Jacobians.h</text>
</a>
</g>
</g>
<!-- Node2&#45;&gt;Node132 -->
<g id="edge92" class="edge">
<title>Node2&#45;&gt;Node132</title>
<path fill="none" stroke="#191970" d="M1740.3627,-298.4721C1721.398,-290.2183 1697.6437,-278.8064 1678,-266 1651.7464,-248.8843 1624.7753,-223.6618 1610.7771,-209.8808"/>
<polygon fill="#191970" stroke="#191970" points="1739.2245,-301.7915 1749.7962,-302.4911 1741.9681,-295.3516 1739.2245,-301.7915"/>
</g>
<!-- Node133 -->
<g id="node43" class="node">
<title>Node133</title>
<g id="a_node43"><a xlink:href="Link_8h.html" target="_top" xlink:title="Link.h">
<polygon fill="none" stroke="#ff0000" points="1700,-246.5 1700,-265.5 1746,-265.5 1746,-246.5 1700,-246.5"/>
<text text-anchor="middle" x="1723" y="-253.5" font-family="FreeSans.ttf" font-size="10.00" fill="#000000">Link.h</text>
</a>
</g>
</g>
<!-- Node2&#45;&gt;Node133 -->
<g id="edge94" class="edge">
<title>Node2&#45;&gt;Node133</title>
<path fill="none" stroke="#191970" d="M1758.3251,-294.7884C1749.6006,-285.2085 1739.0646,-273.6396 1731.7817,-265.6427"/>
<polygon fill="#191970" stroke="#191970" points="1755.7954,-297.2088 1765.1165,-302.2455 1760.9709,-292.4954 1755.7954,-297.2088"/>
</g>
<!-- Node136 -->
<g id="node44" class="node">
<title>Node136</title>
<g id="a_node44"><a xlink:href="LinkState_8h.html" target="_top" xlink:title="LinkState.h">
<polygon fill="none" stroke="#ff0000" points="1840.5,-190.5 1840.5,-209.5 1911.5,-209.5 1911.5,-190.5 1840.5,-190.5"/>
<text text-anchor="middle" x="1876" y="-197.5" font-family="FreeSans.ttf" font-size="10.00" fill="#000000">LinkState.h</text>
</a>
</g>
</g>
<!-- Node2&#45;&gt;Node136 -->
<g id="edge96" class="edge">
<title>Node2&#45;&gt;Node136</title>
<path fill="none" stroke="#191970" d="M1794.0316,-295.8943C1804.065,-287.4347 1816.1424,-276.6358 1826,-266 1843.1982,-247.444 1860.3817,-223.2072 1869.4419,-209.8713"/>
<polygon fill="#191970" stroke="#191970" points="1791.6495,-293.3225 1786.1778,-302.3951 1796.113,-298.7149 1791.6495,-293.3225"/>
</g>
<!-- Node148 -->
<g id="node45" class="node">
<title>Node148</title>
<g id="a_node45"><a xlink:href="LinkTraversalsCache_8h.html" target="_top" xlink:title="LinkTraversalsCache.h">
<polygon fill="none" stroke="#ff0000" points="2391.5,-134.5 2391.5,-153.5 2516.5,-153.5 2516.5,-134.5 2391.5,-134.5"/>
<text text-anchor="middle" x="2454" y="-141.5" font-family="FreeSans.ttf" font-size="10.00" fill="#000000">LinkTraversalsCache.h</text>
</a>
</g>
</g>
<!-- Node2&#45;&gt;Node148 -->
<g id="edge109" class="edge">
<title>Node2&#45;&gt;Node148</title>
<path fill="none" stroke="#191970" d="M1814.3821,-309.2939C1883.8661,-304.0361 2022.5731,-290.7267 2064,-266 2100.4854,-244.2228 2085.3026,-211.418 2122,-190 2124.8976,-188.3089 2296.0637,-165.1623 2391.45,-152.3648"/>
<polygon fill="#191970" stroke="#191970" points="1813.9668,-305.8149 1804.2511,-310.0404 1814.4813,-312.796 1813.9668,-305.8149"/>
</g>
<!-- Node126 -->
<g id="node46" class="node">
<title>Node126</title>
<g id="a_node46"><a xlink:href="PrismaticJoint_8h.html" target="_top" xlink:title="PrismaticJoint.h">
<polygon fill="none" stroke="#ff0000" points="2202.5,-246.5 2202.5,-265.5 2295.5,-265.5 2295.5,-246.5 2202.5,-246.5"/>
<text text-anchor="middle" x="2249" y="-253.5" font-family="FreeSans.ttf" font-size="10.00" fill="#000000">PrismaticJoint.h</text>
</a>
</g>
</g>
<!-- Node2&#45;&gt;Node126 -->
<g id="edge115" class="edge">
<title>Node2&#45;&gt;Node126</title>
<path fill="none" stroke="#191970" d="M1814.4876,-308.2046C1888.6958,-301.0917 2051.4288,-284.7688 2188,-266 2192.678,-265.3571 2197.5499,-264.6398 2202.4109,-263.8927"/>
<polygon fill="#191970" stroke="#191970" points="1813.8173,-304.7525 1804.1949,-309.1864 1814.4821,-311.7209 1813.8173,-304.7525"/>
</g>
<!-- Node128 -->
<g id="node47" class="node">
<title>Node128</title>
<g id="a_node47"><a xlink:href="RevoluteJoint_8h.html" target="_top" xlink:title="RevoluteJoint.h">
<polygon fill="none" stroke="#ff0000" points="1128,-190.5 1128,-209.5 1218,-209.5 1218,-190.5 1128,-190.5"/>
<text text-anchor="middle" x="1173" y="-197.5" font-family="FreeSans.ttf" font-size="10.00" fill="#000000">RevoluteJoint.h</text>
</a>
</g>
</g>
<!-- Node2&#45;&gt;Node128 -->
<g id="edge116" class="edge">
<title>Node2&#45;&gt;Node128</title>
<path fill="none" stroke="#191970" d="M1733.5704,-310.4968C1659.1783,-307.0687 1495.9495,-296.4575 1362,-266 1299.9803,-251.8979 1230.0501,-224.2313 1195.2111,-209.5994"/>
<polygon fill="#191970" stroke="#191970" points="1733.7431,-314.0077 1743.8876,-310.952 1734.0517,-307.0145 1733.7431,-314.0077"/>
</g>
<!-- Node149 -->
<g id="node48" class="node">
<title>Node149</title>
<g id="a_node48"><a xlink:href="SubModel_8h.html" target="_top" xlink:title="SubModel.h">
<polygon fill="none" stroke="#ff0000" points="2915.5,-134.5 2915.5,-153.5 2988.5,-153.5 2988.5,-134.5 2915.5,-134.5"/>
<text text-anchor="middle" x="2952" y="-141.5" font-family="FreeSans.ttf" font-size="10.00" fill="#000000">SubModel.h</text>
</a>
</g>
</g>
<!-- Node2&#45;&gt;Node149 -->
<g id="edge118" class="edge">
<title>Node2&#45;&gt;Node149</title>
<path fill="none" stroke="#191970" d="M1814.2303,-309.8625C1903.0757,-304.847 2122.6222,-290.8326 2305,-266 2539.1667,-234.1158 2817.1021,-174.1581 2915.3754,-152.2685"/>
<polygon fill="#191970" stroke="#191970" points="1813.8444,-306.3784 1804.0547,-310.4296 1814.234,-313.3676 1813.8444,-306.3784"/>
</g>
<!-- Node150 -->
<g id="node49" class="node">
<title>Node150</title>
<g id="a_node49"><a xlink:href="Traversal_8h.html" target="_top" xlink:title="Traversal.h">
<polygon fill="none" stroke="#ff0000" points="1916,-134.5 1916,-153.5 1986,-153.5 1986,-134.5 1916,-134.5"/>
<text text-anchor="middle" x="1951" y="-141.5" font-family="FreeSans.ttf" font-size="10.00" fill="#000000">Traversal.h</text>
</a>
</g>
</g>
<!-- Node2&#45;&gt;Node150 -->
<g id="edge122" class="edge">
<title>Node2&#45;&gt;Node150</title>
<path fill="none" stroke="#191970" d="M1804.044,-297.9053C1836.8542,-281.141 1888.9856,-250.2828 1921,-210 1934.9394,-192.4605 1943.9981,-167.4036 1948.2242,-153.7627"/>
<polygon fill="#191970" stroke="#191970" points="1802.3152,-294.8563 1794.9304,-302.4533 1805.441,-301.1197 1802.3152,-294.8563"/>
</g>
<!-- Node151 -->
<g id="node50" class="node">
<title>Node151</title>
<g id="a_node50"><a xlink:href="Indices_8cpp.html" target="_top" xlink:title="Indices.cpp">
<polygon fill="none" stroke="#000000" points="3162.5,-246.5 3162.5,-265.5 3233.5,-265.5 3233.5,-246.5 3162.5,-246.5"/>
<text text-anchor="middle" x="3198" y="-253.5" font-family="FreeSans.ttf" font-size="10.00" fill="#000000">Indices.cpp</text>
</a>
</g>
</g>
<!-- Node2&#45;&gt;Node151 -->
<g id="edge135" class="edge">
<title>Node2&#45;&gt;Node151</title>
<path fill="none" stroke="#191970" d="M1814.2638,-311.5433C2011.7981,-309.1667 2879.6938,-297.1091 3148,-266 3152.6606,-265.4596 3157.5345,-264.7144 3162.3336,-263.8722"/>
<polygon fill="#191970" stroke="#191970" points="1814.007,-308.046 1804.0493,-311.6647 1814.0902,-315.0455 1814.007,-308.046"/>
</g>
<!-- Node4 -->
<g id="node3" class="node">
<title>Node4</title>
<g id="a_node3"><a xlink:href="BerdyHelper_8cpp.html" target="_top" xlink:title="BerdyHelper.cpp">
<polygon fill="none" stroke="#000000" points="1887.5,-6 1887.5,-25 1984.5,-25 1984.5,-6 1887.5,-6"/>
<text text-anchor="middle" x="1936" y="-13" font-family="FreeSans.ttf" font-size="10.00" fill="#000000">BerdyHelper.cpp</text>
</a>
</g>
</g>
<!-- Node3&#45;&gt;Node4 -->
<g id="edge2" class="edge">
<title>Node3&#45;&gt;Node4</title>
<path fill="none" stroke="#191970" d="M1882.5486,-65.94C1896.168,-53.0879 1914.5715,-35.7212 1925.8463,-25.0817"/>
<polygon fill="#191970" stroke="#191970" points="1880.0434,-63.4917 1875.1726,-72.9005 1884.8477,-68.5828 1880.0434,-63.4917"/>
</g>
<!-- Node5 -->
<g id="node4" class="node">
<title>Node5</title>
<g id="a_node4"><a xlink:href="BerdySparseMAPSolver_8cpp.html" target="_top" xlink:title="BerdySparseMAPSolver.cpp">
<polygon fill="none" stroke="#000000" points="1342.5,-6 1342.5,-25 1491.5,-25 1491.5,-6 1342.5,-6"/>
<text text-anchor="middle" x="1417" y="-13" font-family="FreeSans.ttf" font-size="10.00" fill="#000000">BerdySparseMAPSolver.cpp</text>
</a>
</g>
</g>
<!-- Node3&#45;&gt;Node5 -->
<g id="edge3" class="edge">
<title>Node3&#45;&gt;Node5</title>
<path fill="none" stroke="#191970" d="M1826.3896,-70.2477C1821.9017,-69.0451 1817.3682,-67.9288 1813,-67 1702.2953,-43.4611 1571.7469,-29.0007 1491.6818,-21.6124"/>
<polygon fill="#191970" stroke="#191970" points="1825.4846,-73.6289 1836.0594,-72.9787 1827.3872,-66.8924 1825.4846,-73.6289"/>
</g>
<!-- Node6&#45;&gt;Node5 -->
<g id="edge5" class="edge">
<title>Node6&#45;&gt;Node5</title>
<path fill="none" stroke="#191970" d="M238.0231,-188.6122C144.0406,-170.5891 -4.468,-130.8397 57,-67 62.6207,-61.1624 1058.4371,-27.474 1342.2861,-17.9862"/>
<polygon fill="#191970" stroke="#191970" points="237.5927,-192.0924 248.0666,-190.4959 238.8832,-185.2123 237.5927,-192.0924"/>
</g>
<!-- Node7&#45;&gt;Node4 -->
<g id="edge10" class="edge">
<title>Node7&#45;&gt;Node4</title>
<path fill="none" stroke="#191970" d="M2897.0917,-133.0368C2961.0083,-123.75 3040.0634,-110.0604 3050,-98 3058.761,-87.3665 3059.5147,-76.9648 3050,-67 3047.6641,-64.5536 2199.3563,-27.0835 1984.8314,-17.6453"/>
<polygon fill="#191970" stroke="#191970" points="2896.3777,-129.6033 2886.9764,-134.4885 2897.3722,-136.5323 2896.3777,-129.6033"/>
</g>
<!-- Node8 -->
<g id="node7" class="node">
<title>Node8</title>
<g id="a_node7"><a xlink:href="ExtWrenchesAndJointTorquesEstimator_8h.html" target="_top" xlink:title="ExtWrenchesAndJointTorques\lEstimator.h">
<polygon fill="none" stroke="#000000" points="2688,-67.5 2688,-97.5 2846,-97.5 2846,-67.5 2688,-67.5"/>
<text text-anchor="start" x="2696" y="-85.5" font-family="FreeSans.ttf" font-size="10.00" fill="#000000">ExtWrenchesAndJointTorques</text>
<text text-anchor="middle" x="2767" y="-74.5" font-family="FreeSans.ttf" font-size="10.00" fill="#000000">Estimator.h</text>
</a>
</g>
</g>
<!-- Node7&#45;&gt;Node8 -->
<g id="edge7" class="edge">
<title>Node7&#45;&gt;Node8</title>
<path fill="none" stroke="#191970" d="M2800.5268,-126.3701C2793.5625,-117.2574 2785.1523,-106.2525 2778.4975,-97.5446"/>
<polygon fill="#191970" stroke="#191970" points="2797.8032,-128.5704 2806.6563,-134.3906 2803.365,-124.3199 2797.8032,-128.5704"/>
</g>
<!-- Node9 -->
<g id="node8" class="node">
<title>Node9</title>
<g id="a_node8"><a xlink:href="ExtWrenchesAndJointTorquesEstimator_8cpp.html" target="_top" xlink:title="ExtWrenchesAndJointTorques\lEstimator.cpp">
<polygon fill="none" stroke="#000000" points="2688,-.5 2688,-30.5 2846,-30.5 2846,-.5 2688,-.5"/>
<text text-anchor="start" x="2696" y="-18.5" font-family="FreeSans.ttf" font-size="10.00" fill="#000000">ExtWrenchesAndJointTorques</text>
<text text-anchor="middle" x="2767" y="-7.5" font-family="FreeSans.ttf" font-size="10.00" fill="#000000">Estimator.cpp</text>
</a>
</g>
</g>
<!-- Node7&#45;&gt;Node9 -->
<g id="edge12" class="edge">
<title>Node7&#45;&gt;Node9</title>
<path fill="none" stroke="#191970" d="M2907.3081,-133.9081C2980.0298,-125.0781 3070.5576,-111.5738 3082,-98 3090.8802,-87.4658 3090.9218,-77.4989 3082,-67 3066.8393,-49.1594 2934.4165,-32.4299 2846.1613,-23.1196"/>
<polygon fill="#191970" stroke="#191970" points="2906.6874,-130.4573 2897.175,-135.1225 2907.5204,-137.4076 2906.6874,-130.4573"/>
</g>
<!-- Node10 -->
<g id="node9" class="node">
<title>Node10</title>
<g id="a_node9"><a xlink:href="GravityCompensationHelpers_8h.html" target="_top" xlink:title="GravityCompensationHelpers.h">
<polygon fill="none" stroke="#ff0000" points="2040,-73 2040,-92 2210,-92 2210,-73 2040,-73"/>
<text text-anchor="middle" x="2125" y="-80" font-family="FreeSans.ttf" font-size="10.00" fill="#000000">GravityCompensationHelpers.h</text>
</a>
</g>
</g>
<!-- Node7&#45;&gt;Node10 -->
<g id="edge9" class="edge">
<title>Node7&#45;&gt;Node10</title>
<path fill="none" stroke="#191970" d="M2720.6082,-135.6639C2586.083,-123.6562 2339.7247,-101.6663 2210.0233,-90.0892"/>
<polygon fill="#191970" stroke="#191970" points="2720.6189,-139.1787 2730.8905,-136.5817 2721.2413,-132.2064 2720.6189,-139.1787"/>
</g>
<!-- Node12 -->
<g id="node10" class="node">
<title>Node12</title>
<g id="a_node10"><a xlink:href="ExternalWrenchesEstimation_8cpp.html" target="_top" xlink:title="ExternalWrenchesEstimation.cpp">
<polygon fill="none" stroke="#000000" points="2863.5,-73 2863.5,-92 3040.5,-92 3040.5,-73 2863.5,-73"/>
<text text-anchor="middle" x="2952" y="-80" font-family="FreeSans.ttf" font-size="10.00" fill="#000000">ExternalWrenchesEstimation.cpp</text>
</a>
</g>
</g>
<!-- Node7&#45;&gt;Node12 -->
<g id="edge11" class="edge">
<title>Node7&#45;&gt;Node12</title>
<path fill="none" stroke="#191970" d="M2844.9894,-130.1895C2871.0622,-118.5701 2907.6602,-102.2601 2930.5889,-92.0419"/>
<polygon fill="#191970" stroke="#191970" points="2843.2718,-127.1231 2835.5625,-134.3906 2846.1213,-133.5169 2843.2718,-127.1231"/>
</g>
<!-- Node7&#45;&gt;Node13 -->
<g id="edge13" class="edge">
<title>Node7&#45;&gt;Node13</title>
<path fill="none" stroke="#191970" d="M2902.1257,-133.2466C3000.3722,-121.2582 3157.2964,-102.1097 3247.6724,-91.0816"/>
<polygon fill="#191970" stroke="#191970" points="2901.4235,-129.8062 2891.9211,-134.4918 2902.2714,-136.7547 2901.4235,-129.8062"/>
</g>
<!-- Node8&#45;&gt;Node9 -->
<g id="edge8" class="edge">
<title>Node8&#45;&gt;Node9</title>
<path fill="none" stroke="#191970" d="M2767,-57.0249C2767,-48.128 2767,-38.4287 2767,-30.6432"/>
<polygon fill="#191970" stroke="#191970" points="2763.5001,-57.2966 2767,-67.2967 2770.5001,-57.2967 2763.5001,-57.2966"/>
</g>
<!-- Node14 -->
<g id="node12" class="node">
<title>Node14</title>
<g id="a_node12"><a xlink:href="iCub_2skinDynLibConversions_8h.html" target="_top" xlink:title="skinDynLibConversions.h">
<polygon fill="none" stroke="#000000" points="3248,-6 3248,-25 3388,-25 3388,-6 3248,-6"/>
<text text-anchor="middle" x="3318" y="-13" font-family="FreeSans.ttf" font-size="10.00" fill="#000000">skinDynLibConversions.h</text>
</a>
</g>
</g>
<!-- Node13&#45;&gt;Node14 -->
<g id="edge14" class="edge">
<title>Node13&#45;&gt;Node14</title>
<path fill="none" stroke="#191970" d="M3318,-62.6079C3318,-50.214 3318,-34.8263 3318,-25.0817"/>
<polygon fill="#191970" stroke="#191970" points="3314.5001,-62.9005 3318,-72.9005 3321.5001,-62.9006 3314.5001,-62.9005"/>
</g>
<!-- Node15 -->
<g id="node13" class="node">
<title>Node15</title>
<g id="a_node13"><a xlink:href="skinDynLibConversions_8cpp.html" target="_top" xlink:title="skinDynLibConversions.cpp">
<polygon fill="none" stroke="#000000" points="2513.5,-6 2513.5,-25 2664.5,-25 2664.5,-6 2513.5,-6"/>
<text text-anchor="middle" x="2589" y="-13" font-family="FreeSans.ttf" font-size="10.00" fill="#000000">skinDynLibConversions.cpp</text>
</a>
</g>
</g>
<!-- Node13&#45;&gt;Node15 -->
<g id="edge15" class="edge">
<title>Node13&#45;&gt;Node15</title>
<path fill="none" stroke="#191970" d="M3237.6993,-76.2221C3072.2008,-63.2567 2706.276,-34.4408 2679,-31 2666.2584,-29.3927 2652.5697,-27.2507 2639.8088,-25.0734"/>
<polygon fill="#191970" stroke="#191970" points="3237.5832,-79.7236 3247.826,-77.0152 3238.1298,-72.745 3237.5832,-79.7236"/>
</g>
<!-- Node16&#45;&gt;Node17 -->
<g id="edge17" class="edge">
<title>Node16&#45;&gt;Node17</title>
<path fill="none" stroke="#191970" d="M363,-62.6079C363,-50.214 363,-34.8263 363,-25.0817"/>
<polygon fill="#191970" stroke="#191970" points="359.5001,-62.9005 363,-72.9005 366.5001,-62.9006 359.5001,-62.9005"/>
</g>
<!-- Node19 -->
<g id="node17" class="node">
<title>Node19</title>
<g id="a_node17"><a xlink:href="KinDynComputations_8cpp.html" target="_top" xlink:title="KinDynComputations.cpp">
<polygon fill="none" stroke="#000000" points="1360,-73 1360,-92 1500,-92 1500,-73 1360,-73"/>
<text text-anchor="middle" x="1430" y="-80" font-family="FreeSans.ttf" font-size="10.00" fill="#000000">KinDynComputations.cpp</text>
</a>
</g>
</g>
<!-- Node18&#45;&gt;Node19 -->
<g id="edge20" class="edge">
<title>Node18&#45;&gt;Node19</title>
<path fill="none" stroke="#191970" d="M969.5861,-135.4261C1073.0127,-123.5369 1258.6369,-102.1988 1359.722,-90.5787"/>
<polygon fill="#191970" stroke="#191970" points="969.0683,-131.9625 959.5335,-136.5817 969.8678,-138.9167 969.0683,-131.9625"/>
</g>
<!-- Node20 -->
<g id="node18" class="node">
<title>Node20</title>
<g id="a_node18"><a xlink:href="InverseKinematicsData_8h.html" target="_top" xlink:title="InverseKinematicsData.h">
<polygon fill="none" stroke="#ff0000" points="452,-73 452,-92 592,-92 592,-73 452,-73"/>
<text text-anchor="middle" x="522" y="-80" font-family="FreeSans.ttf" font-size="10.00" fill="#000000">InverseKinematicsData.h</text>
</a>
</g>
</g>
<!-- Node18&#45;&gt;Node20 -->
<g id="edge21" class="edge">
<title>Node18&#45;&gt;Node20</title>
<path fill="none" stroke="#191970" d="M820.2986,-133.1241C760.7968,-124.2655 675.4284,-111.1191 601,-98 590.6766,-96.1803 579.6214,-94.0965 569.1493,-92.0595"/>
<polygon fill="#191970" stroke="#191970" points="819.9529,-136.6111 830.3585,-134.6177 820.981,-129.687 819.9529,-136.6111"/>
</g>
<!-- Node24 -->
<g id="node19" class="node">
<title>Node24</title>
<g id="a_node19"><a xlink:href="idyntree-model-info_8cpp.html" target="_top" xlink:title="idyntree&#45;model&#45;info.cpp">
<polygon fill="none" stroke="#000000" points="908,-73 908,-92 1042,-92 1042,-73 908,-73"/>
<text text-anchor="middle" x="975" y="-80" font-family="FreeSans.ttf" font-size="10.00" fill="#000000">idyntree&#45;model&#45;info.cpp</text>
</a>
</g>
</g>
<!-- Node18&#45;&gt;Node24 -->
<g id="edge22" class="edge">
<title>Node18&#45;&gt;Node24</title>
<path fill="none" stroke="#191970" d="M915.619,-128.1491C930.4836,-116.722 950.057,-101.6749 962.5878,-92.0419"/>
<polygon fill="#191970" stroke="#191970" points="913.2949,-125.521 907.5,-134.3906 917.5613,-131.0707 913.2949,-125.521"/>
</g>
<!-- Node25 -->
<g id="node20" class="node">
<title>Node25</title>
<g id="a_node20"><a xlink:href="ObserverThread_8h.html" target="_top" xlink:title="ObserverThread.h">
<polygon fill="none" stroke="#ff0000" points="610,-73 610,-92 714,-92 714,-73 610,-73"/>
<text text-anchor="middle" x="662" y="-80" font-family="FreeSans.ttf" font-size="10.00" fill="#000000">ObserverThread.h</text>
</a>
</g>
</g>
<!-- Node18&#45;&gt;Node25 -->
<g id="edge23" class="edge">
<title>Node18&#45;&gt;Node25</title>
<path fill="none" stroke="#191970" d="M848.9331,-131.8407C804.7157,-120.1696 738.827,-102.7784 698.2354,-92.0643"/>
<polygon fill="#191970" stroke="#191970" points="848.2873,-135.2901 858.8494,-134.4581 850.0738,-128.5218 848.2873,-135.2901"/>
</g>
<!-- Node30 -->
<g id="node21" class="node">
<title>Node30</title>
<g id="a_node21"><a xlink:href="urdf2dh_8cpp.html" target="_top" xlink:title="urdf2dh.cpp">
<polygon fill="none" stroke="#000000" points="200,-73 200,-92 274,-92 274,-73 200,-73"/>
<text text-anchor="middle" x="237" y="-80" font-family="FreeSans.ttf" font-size="10.00" fill="#000000">urdf2dh.cpp</text>
</a>
</g>
</g>
<!-- Node18&#45;&gt;Node30 -->
<g id="edge24" class="edge">
<title>Node18&#45;&gt;Node30</title>
<path fill="none" stroke="#191970" d="M820.1896,-140.7173C680.2039,-134.1873 383.7299,-118.4206 283,-98 275.897,-96.56 268.3751,-94.3383 261.5172,-92.0226"/>
<polygon fill="#191970" stroke="#191970" points="820.2482,-144.2237 830.3995,-141.1901 820.5721,-137.2312 820.2482,-144.2237"/>
</g>
<!-- Node31 -->
<g id="node22" class="node">
<title>Node31</title>
<g id="a_node22"><a xlink:href="robotstatepublisher_8h.html" target="_top" xlink:title="robotstatepublisher.h">
<polygon fill="none" stroke="#ff0000" points="732,-73 732,-92 852,-92 852,-73 732,-73"/>
<text text-anchor="middle" x="792" y="-80" font-family="FreeSans.ttf" font-size="10.00" fill="#000000">robotstatepublisher.h</text>
</a>
</g>
</g>
<!-- Node18&#45;&gt;Node31 -->
<g id="edge25" class="edge">
<title>Node18&#45;&gt;Node31</title>
<path fill="none" stroke="#191970" d="M870.311,-129.2585C850.9732,-117.7122 824.6418,-101.99 807.9807,-92.0419"/>
<polygon fill="#191970" stroke="#191970" points="868.526,-132.2691 878.9063,-134.3906 872.1146,-126.2589 868.526,-132.2691"/>
</g>
<!-- Node33 -->
<g id="node23" class="node">
<title>Node33</title>
<g id="a_node23"><a xlink:href="robotstatepublisher_8cpp.html" target="_top" xlink:title="robotstatepublisher.cpp">
<polygon fill="none" stroke="#000000" points="814.5,-6 814.5,-25 945.5,-25 945.5,-6 814.5,-6"/>
<text text-anchor="middle" x="880" y="-13" font-family="FreeSans.ttf" font-size="10.00" fill="#000000">robotstatepublisher.cpp</text>
</a>
</g>
</g>
<!-- Node18&#45;&gt;Node33 -->
<g id="edge27" class="edge">
<title>Node18&#45;&gt;Node33</title>
<path fill="none" stroke="#191970" d="M892.6856,-124.1733C889.423,-96.2236 883.5958,-46.3037 881.1405,-25.2705"/>
<polygon fill="#191970" stroke="#191970" points="889.2366,-124.8149 893.8726,-134.3416 896.1894,-124.0032 889.2366,-124.8149"/>
</g>
<!-- Node31&#45;&gt;Node33 -->
<g id="edge26" class="edge">
<title>Node31&#45;&gt;Node33</title>
<path fill="none" stroke="#191970" d="M812.8101,-66.6559C829.775,-53.7395 853.1796,-35.9201 867.4151,-25.0817"/>
<polygon fill="#191970" stroke="#191970" points="810.4445,-64.058 804.6083,-72.9005 814.6849,-69.6275 810.4445,-64.058"/>
</g>
<!-- Node35&#45;&gt;Node8 -->
<g id="edge31" class="edge">
<title>Node35&#45;&gt;Node8</title>
<path fill="none" stroke="#191970" d="M3001.2908,-132.3577C2954.8844,-122.4823 2888.011,-108.2515 2837.5786,-97.5193"/>
<polygon fill="#191970" stroke="#191970" points="3000.6513,-135.7999 3011.1608,-134.4581 3002.1084,-128.9533 3000.6513,-135.7999"/>
</g>
<!-- Node35&#45;&gt;Node9 -->
<g id="edge33" class="edge">
<title>Node35&#45;&gt;Node9</title>
<path fill="none" stroke="#191970" d="M3085.5593,-129.1349C3097.2938,-121.5543 3109.5207,-111.1319 3116,-98 3122.0963,-85.6444 3125.0032,-77.4293 3116,-67 3098.5904,-46.8329 2943.6177,-30.2887 2846.1245,-21.7593"/>
<polygon fill="#191970" stroke="#191970" points="3083.5756,-126.2428 3076.7852,-134.3756 3087.1652,-132.2525 3083.5756,-126.2428"/>
</g>
<!-- Node35&#45;&gt;Node12 -->
<g id="edge32" class="edge">
<title>Node35&#45;&gt;Node12</title>
<path fill="none" stroke="#191970" d="M3031.0713,-129.2585C3011.5458,-117.7122 2984.9587,-101.99 2968.1359,-92.0419"/>
<polygon fill="#191970" stroke="#191970" points="3029.3608,-132.3132 3039.75,-134.3906 3032.9239,-126.2878 3029.3608,-132.3132"/>
</g>
<!-- Node35&#45;&gt;Node15 -->
<g id="edge34" class="edge">
<title>Node35&#45;&gt;Node15</title>
<path fill="none" stroke="#191970" d="M3070.8338,-126.4209C3083.4027,-109.3265 3097.1643,-83.5793 3082,-67 3051.6584,-33.8272 2723.5778,-36.8199 2679,-31 2666.4227,-29.358 2652.9172,-27.2285 2640.2918,-25.0767"/>
<polygon fill="#191970" stroke="#191970" points="3067.9359,-124.4449 3064.5293,-134.4771 3073.4485,-128.7589 3067.9359,-124.4449"/>
</g>
<!-- Node36 -->
<g id="node26" class="node">
<title>Node36</title>
<g id="a_node26"><a xlink:href="ContactWrench_8cpp.html" target="_top" xlink:title="ContactWrench.cpp">
<polygon fill="none" stroke="#000000" points="3406,-73 3406,-92 3516,-92 3516,-73 3406,-73"/>
<text text-anchor="middle" x="3461" y="-80" font-family="FreeSans.ttf" font-size="10.00" fill="#000000">ContactWrench.cpp</text>
</a>
</g>
</g>
<!-- Node35&#45;&gt;Node36 -->
<g id="edge35" class="edge">
<title>Node35&#45;&gt;Node36</title>
<path fill="none" stroke="#191970" d="M3115.8145,-137.8293C3184.1393,-130.3416 3299.1364,-116.4003 3397,-98 3405.9884,-96.31 3415.609,-94.1626 3424.589,-92.0087"/>
<polygon fill="#191970" stroke="#191970" points="3115.2334,-134.3717 3105.6698,-138.9311 3115.9893,-141.3308 3115.2334,-134.3717"/>
</g>
<!-- Node37&#45;&gt;Node30 -->
<g id="edge39" class="edge">
<title>Node37&#45;&gt;Node30</title>
<path fill="none" stroke="#191970" d="M530.3023,-137.5504C465.6132,-130.7029 366.9437,-118.0587 283,-98 276.2788,-96.3939 269.1438,-94.2265 262.5497,-92.022"/>
<polygon fill="#191970" stroke="#191970" points="530.0767,-141.0457 540.3853,-138.5998 530.8014,-134.0833 530.0767,-141.0457"/>
</g>
<!-- Node38 -->
<g id="node28" class="node">
<title>Node38</title>
<g id="a_node28"><a xlink:href="iKinConversions_8cpp.html" target="_top" xlink:title="iKinConversions.cpp">
<polygon fill="none" stroke="#000000" points="66,-73 66,-92 182,-92 182,-73 66,-73"/>
<text text-anchor="middle" x="124" y="-80" font-family="FreeSans.ttf" font-size="10.00" fill="#000000">iKinConversions.cpp</text>
</a>
</g>
</g>
<!-- Node37&#45;&gt;Node38 -->
<g id="edge37" class="edge">
<title>Node37&#45;&gt;Node38</title>
<path fill="none" stroke="#191970" d="M530.2729,-138.6236C448.5893,-131.7564 309.3637,-118.2779 191,-98 181.4682,-96.367 171.2606,-94.2157 161.7592,-92.0374"/>
<polygon fill="#191970" stroke="#191970" points="530.1761,-142.1275 540.4318,-139.4685 530.7563,-135.1516 530.1761,-142.1275"/>
</g>
<!-- Node39 -->
<g id="node29" class="node">
<title>Node39</title>
<g id="a_node29"><a xlink:href="DenavitHartenberg_8cpp.html" target="_top" xlink:title="DenavitHartenberg.cpp">
<polygon fill="none" stroke="#000000" points="1098,-73 1098,-92 1228,-92 1228,-73 1098,-73"/>
<text text-anchor="middle" x="1163" y="-80" font-family="FreeSans.ttf" font-size="10.00" fill="#000000">DenavitHartenberg.cpp</text>
</a>
</g>
</g>
<!-- Node37&#45;&gt;Node39 -->
<g id="edge38" class="edge">
<title>Node37&#45;&gt;Node39</title>
<path fill="none" stroke="#191970" d="M669.7394,-137.6692C758.4333,-129.4381 916.2638,-114.1892 1051,-98 1066.2019,-96.1734 1082.5376,-94.021 1097.9049,-91.9108"/>
<polygon fill="#191970" stroke="#191970" points="669.17,-134.2069 659.5351,-138.6136 669.8151,-141.1771 669.17,-134.2069"/>
</g>
<!-- Node40&#45;&gt;Node4 -->
<g id="edge42" class="edge">
<title>Node40&#45;&gt;Node4</title>
<path fill="none" stroke="#191970" d="M2163.6636,-134.9232C2184.3113,-128.3352 2206.6697,-117.0869 2219,-98 2226.4762,-86.427 2227.8273,-77.5786 2219,-67 2189.7244,-31.916 2057.6903,-20.6746 1984.7701,-17.1163"/>
<polygon fill="#191970" stroke="#191970" points="2162.6596,-131.5701 2154.029,-137.7152 2164.608,-138.2934 2162.6596,-131.5701"/>
</g>
<!-- Node40&#45;&gt;Node9 -->
<g id="edge43" class="edge">
<title>Node40&#45;&gt;Node9</title>
<path fill="none" stroke="#191970" d="M2164.3485,-142.5777C2241.3872,-139.401 2398.2122,-129.3286 2527,-98 2564.4542,-88.889 2571.6522,-79.8321 2608,-67 2644.8006,-54.0081 2686.8214,-40.452 2718.4189,-30.5108"/>
<polygon fill="#191970" stroke="#191970" points="2163.8743,-139.0935 2154.0187,-142.9817 2164.1479,-146.0881 2163.8743,-139.0935"/>
</g>
<!-- Node40&#45;&gt;Node10 -->
<g id="edge41" class="edge">
<title>Node40&#45;&gt;Node10</title>
<path fill="none" stroke="#191970" d="M2119.5696,-124.2462C2120.9607,-113.5519 2122.6177,-100.814 2123.7324,-92.2449"/>
<polygon fill="#191970" stroke="#191970" points="2116.0693,-124.0227 2118.25,-134.3906 2123.0108,-124.9257 2116.0693,-124.0227"/>
</g>
<!-- Node40&#45;&gt;Node19 -->
<g id="edge44" class="edge">
<title>Node40&#45;&gt;Node19</title>
<path fill="none" stroke="#191970" d="M2069.8691,-140.0518C2047.2308,-138.1771 2019.7119,-135.9299 1995,-134 1779.5076,-117.1709 1724.2472,-126.6063 1510,-98 1498.3611,-96.446 1485.8599,-94.2703 1474.279,-92.0395"/>
<polygon fill="#191970" stroke="#191970" points="2069.6441,-143.545 2079.8994,-140.8844 2070.2233,-136.569 2069.6441,-143.545"/>
</g>
<!-- Node41 -->
<g id="node31" class="node">
<title>Node41</title>
<g id="a_node31"><a xlink:href="DynamicsLinearization_8h.html" target="_top" xlink:title="DynamicsLinearization.h">
<polygon fill="none" stroke="#ff0000" points="2304.5,-6 2304.5,-25 2441.5,-25 2441.5,-6 2304.5,-6"/>
<text text-anchor="middle" x="2373" y="-13" font-family="FreeSans.ttf" font-size="10.00" fill="#000000">DynamicsLinearization.h</text>
</a>
</g>
</g>
<!-- Node40&#45;&gt;Node41 -->
<g id="edge45" class="edge">
<title>Node40&#45;&gt;Node41</title>
<path fill="none" stroke="#191970" d="M2155.6352,-130.9855C2179.2751,-122.5541 2209.8921,-110.7873 2236,-98 2282.8763,-75.0405 2334.788,-41.31 2359.0587,-25.0106"/>
<polygon fill="#191970" stroke="#191970" points="2154.236,-127.7674 2145.9644,-134.388 2156.5593,-134.3706 2154.236,-127.7674"/>
</g>
<!-- Node43 -->
<g id="node32" class="node">
<title>Node43</title>
<g id="a_node32"><a xlink:href="DynamicsLinearizationHelpers_8h.html" target="_top" xlink:title="DynamicsLinearizationHelpers.h">
<polygon fill="none" stroke="#ff0000" points="2342.5,-73 2342.5,-92 2517.5,-92 2517.5,-73 2342.5,-73"/>
<text text-anchor="middle" x="2430" y="-80" font-family="FreeSans.ttf" font-size="10.00" fill="#000000">DynamicsLinearizationHelpers.h</text>
</a>
</g>
</g>
<!-- Node40&#45;&gt;Node43 -->
<g id="edge46" class="edge">
<title>Node40&#45;&gt;Node43</title>
<path fill="none" stroke="#191970" d="M2164.2424,-134.7176C2222.9117,-123.1899 2322.4657,-103.6289 2381.646,-92.0009"/>
<polygon fill="#191970" stroke="#191970" points="2163.2719,-131.3412 2154.1343,-136.7036 2164.6215,-138.2099 2163.2719,-131.3412"/>
</g>
<!-- Node45 -->
<g id="node33" class="node">
<title>Node45</title>
<g id="a_node33"><a xlink:href="Dynamics_8cpp.html" target="_top" xlink:title="Dynamics.cpp">
<polygon fill="none" stroke="#000000" points="1718,-73 1718,-92 1804,-92 1804,-73 1718,-73"/>
<text text-anchor="middle" x="1761" y="-80" font-family="FreeSans.ttf" font-size="10.00" fill="#000000">Dynamics.cpp</text>
</a>
</g>
</g>
<!-- Node40&#45;&gt;Node45 -->
<g id="edge48" class="edge">
<title>Node40&#45;&gt;Node45</title>
<path fill="none" stroke="#191970" d="M2069.7727,-138.9247C2009.6733,-131.9936 1902.8702,-118.0905 1813,-98 1805.6453,-96.3559 1797.8092,-94.2256 1790.5107,-92.0737"/>
<polygon fill="#191970" stroke="#191970" points="2069.3901,-142.4037 2079.7219,-140.0575 2070.1821,-135.4486 2069.3901,-142.4037"/>
</g>
<!-- Node46 -->
<g id="node34" class="node">
<title>Node46</title>
<g id="a_node34"><a xlink:href="PredictSensorsMeasurements_8cpp.html" target="_top" xlink:title="PredictSensorsMeasurements.cpp">
<polygon fill="none" stroke="#000000" points="1518.5,-73 1518.5,-92 1699.5,-92 1699.5,-73 1518.5,-73"/>
<text text-anchor="middle" x="1609" y="-80" font-family="FreeSans.ttf" font-size="10.00" fill="#000000">PredictSensorsMeasurements.cpp</text>
</a>
</g>
</g>
<!-- Node40&#45;&gt;Node46 -->
<g id="edge49" class="edge">
<title>Node40&#45;&gt;Node46</title>
<path fill="none" stroke="#191970" d="M2069.593,-139.3003C1993.4509,-131.6068 1839.2335,-115.4271 1709,-98 1695.5918,-96.2058 1681.2026,-94.0886 1667.6354,-92.0051"/>
<polygon fill="#191970" stroke="#191970" points="2069.5078,-142.8093 2079.8082,-140.3288 2070.2091,-135.8445 2069.5078,-142.8093"/>
</g>
<!-- Node43&#45;&gt;Node41 -->
<g id="edge47" class="edge">
<title>Node43&#45;&gt;Node41</title>
<path fill="none" stroke="#191970" d="M2415.2946,-65.2147C2404.4274,-52.441 2390.034,-35.5224 2381.1516,-25.0817"/>
<polygon fill="#191970" stroke="#191970" points="2412.6877,-67.5519 2421.8333,-72.9005 2418.0193,-63.016 2412.6877,-67.5519"/>
</g>
<!-- Node47&#45;&gt;Node39 -->
<g id="edge51" class="edge">
<title>Node47&#45;&gt;Node39</title>
<path fill="none" stroke="#191970" d="M1314.1986,-192.0661C1270.7229,-183.8617 1210.0585,-170.0188 1192,-154 1173.5614,-137.6441 1166.6469,-107.8628 1164.2159,-92.4046"/>
<polygon fill="#191970" stroke="#191970" points="1313.8234,-195.5559 1324.2926,-193.9288 1315.0938,-188.6721 1313.8234,-195.5559"/>
</g>
<!-- Node52&#45;&gt;Node4 -->
<g id="edge53" class="edge">
<title>Node52&#45;&gt;Node4</title>
<path fill="none" stroke="#191970" d="M1294.3307,-124.11C1295.7892,-106.196 1300.9831,-80.6458 1318,-67 1362.044,-31.6813 1748.7848,-19.6658 1887.0875,-16.4771"/>
<polygon fill="#191970" stroke="#191970" points="1290.8231,-124.1806 1293.8287,-134.3401 1297.8147,-124.5237 1290.8231,-124.1806"/>
</g>
<!-- Node52&#45;&gt;Node17 -->
<g id="edge54" class="edge">
<title>Node52&#45;&gt;Node17</title>
<path fill="none" stroke="#191970" d="M1285.8904,-125.0894C1276.8813,-106.6855 1260.4478,-79.6944 1237,-67 1202.2256,-48.1736 646.3233,-25.9195 439.619,-18.2544"/>
<polygon fill="#191970" stroke="#191970" points="1282.7643,-126.6685 1290.129,-134.2851 1289.1214,-123.7382 1282.7643,-126.6685"/>
</g>
<!-- Node52&#45;&gt;Node19 -->
<g id="edge55" class="edge">
<title>Node52&#45;&gt;Node19</title>
<path fill="none" stroke="#191970" d="M1324.5402,-130.1895C1350.2352,-118.5701 1386.3028,-102.2601 1408.8992,-92.0419"/>
<polygon fill="#191970" stroke="#191970" points="1322.9195,-127.0811 1315.25,-134.3906 1325.8038,-133.4593 1322.9195,-127.0811"/>
</g>
<!-- Node52&#45;&gt;Node39 -->
<g id="edge56" class="edge">
<title>Node52&#45;&gt;Node39</title>
<path fill="none" stroke="#191970" d="M1264.2549,-130.0357C1239.5264,-118.4265 1204.9948,-102.2151 1183.325,-92.0419"/>
<polygon fill="#191970" stroke="#191970" points="1262.9917,-133.3092 1273.5313,-134.3906 1265.9665,-126.9727 1262.9917,-133.3092"/>
</g>
<!-- Node52&#45;&gt;Node46 -->
<g id="edge57" class="edge">
<title>Node52&#45;&gt;Node46</title>
<path fill="none" stroke="#191970" d="M1352.9284,-132.4949C1412.7783,-120.81 1504.383,-102.9252 1560.2714,-92.0137"/>
<polygon fill="#191970" stroke="#191970" points="1352.0171,-129.1067 1342.8731,-134.4581 1353.3585,-135.977 1352.0171,-129.1067"/>
</g>
<!-- Node55&#45;&gt;Node3 -->
<g id="edge59" class="edge">
<title>Node55&#45;&gt;Node3</title>
<path fill="none" stroke="#191970" d="M1759.5402,-130.1895C1785.2352,-118.5701 1821.3028,-102.2601 1843.8992,-92.0419"/>
<polygon fill="#191970" stroke="#191970" points="1757.9195,-127.0811 1750.25,-134.3906 1760.8038,-133.4593 1757.9195,-127.0811"/>
</g>
<!-- Node55&#45;&gt;Node8 -->
<g id="edge60" class="edge">
<title>Node55&#45;&gt;Node8</title>
<path fill="none" stroke="#191970" d="M1794.4924,-140.2834C1958.7175,-130.9544 2385.0246,-106.6765 2527,-98 2580.6575,-94.7208 2641.0483,-90.8195 2687.8276,-87.7512"/>
<polygon fill="#191970" stroke="#191970" points="1793.8454,-136.8144 1784.06,-140.8759 1794.2424,-143.8031 1793.8454,-136.8144"/>
</g>
<!-- Node55&#45;&gt;Node10 -->
<g id="edge61" class="edge">
<title>Node55&#45;&gt;Node10</title>
<path fill="none" stroke="#191970" d="M1794.2874,-133.8607C1869.0224,-122.2541 1990.5044,-103.3876 2063.5798,-92.0387"/>
<polygon fill="#191970" stroke="#191970" points="1793.4065,-130.4554 1784.0621,-135.4487 1794.4808,-137.3725 1793.4065,-130.4554"/>
</g>
<!-- Node55&#45;&gt;Node19 -->
<g id="edge62" class="edge">
<title>Node55&#45;&gt;Node19</title>
<path fill="none" stroke="#191970" d="M1672.7272,-132.4255C1615.9989,-120.7573 1529.4665,-102.9588 1476.4995,-92.0643"/>
<polygon fill="#191970" stroke="#191970" points="1672.1092,-135.8716 1682.6093,-134.4581 1673.5195,-129.0151 1672.1092,-135.8716"/>
</g>
<!-- Node55&#45;&gt;Node39 -->
<g id="edge63" class="edge">
<title>Node55&#45;&gt;Node39</title>
<path fill="none" stroke="#191970" d="M1663.7585,-136.911C1554.7843,-125.0702 1336.9781,-101.404 1228.0989,-89.5735"/>
<polygon fill="#191970" stroke="#191970" points="1663.6378,-140.4184 1673.9574,-138.0192 1664.394,-133.4594 1663.6378,-140.4184"/>
</g>
<!-- Node55&#45;&gt;Node45 -->
<g id="edge64" class="edge">
<title>Node55&#45;&gt;Node45</title>
<path fill="none" stroke="#191970" d="M1738.7545,-125.253C1744.4221,-114.3606 1751.33,-101.0846 1755.9295,-92.2449"/>
<polygon fill="#191970" stroke="#191970" points="1735.511,-123.9041 1734,-134.3906 1741.7207,-127.1352 1735.511,-123.9041"/>
</g>
<!-- Node55&#45;&gt;Node46 -->
<g id="edge65" class="edge">
<title>Node55&#45;&gt;Node46</title>
<path fill="none" stroke="#191970" d="M1701.1491,-129.7264C1678.5416,-118.1401 1647.2928,-102.1251 1627.6183,-92.0419"/>
<polygon fill="#191970" stroke="#191970" points="1699.7543,-132.9444 1710.25,-134.3906 1702.947,-126.7149 1699.7543,-132.9444"/>
</g>
<!-- Node57&#45;&gt;Node47 -->
<g id="edge67" class="edge">
<title>Node57&#45;&gt;Node47</title>
<path fill="none" stroke="#191970" d="M1473.3206,-242.7888C1446.4802,-232.5639 1409.953,-218.6488 1385.9404,-209.5011"/>
<polygon fill="#191970" stroke="#191970" points="1472.1389,-246.0839 1482.7298,-246.3733 1474.6309,-239.5425 1472.1389,-246.0839"/>
</g>
<!-- Node57&#45;&gt;Node58 -->
<g id="edge68" class="edge">
<title>Node57&#45;&gt;Node58</title>
<path fill="none" stroke="#191970" d="M1542.7811,-244.87C1575.8416,-234.2907 1624.9113,-218.5884 1655.3748,-208.8401"/>
<polygon fill="#191970" stroke="#191970" points="1541.5307,-241.5953 1533.0732,-247.9766 1543.6642,-248.2622 1541.5307,-241.5953"/>
</g>
<!-- Node58&#45;&gt;Node4 -->
<g id="edge72" class="edge">
<title>Node58&#45;&gt;Node4</title>
<path fill="none" stroke="#191970" d="M1645.5644,-189.7802C1560.6433,-166.4256 1360.0281,-110.2182 1351,-98 1342.8123,-86.919 1341.6946,-77.1606 1351,-67 1386.9361,-27.7613 1753.2469,-18.2717 1887.2429,-16.1055"/>
<polygon fill="#191970" stroke="#191970" points="1644.7566,-193.1879 1655.3265,-192.4603 1646.6099,-186.4376 1644.7566,-193.1879"/>
</g>
<!-- Node58&#45;&gt;Node8 -->
<g id="edge69" class="edge">
<title>Node58&#45;&gt;Node8</title>
<path fill="none" stroke="#191970" d="M1720.7981,-197.2468C1750.9085,-195.1059 1794.1422,-192.1483 1832,-190 2004.3526,-180.2195 2440.3532,-195.1781 2608,-154 2628.4688,-148.9724 2631.8117,-142.7211 2651,-134 2678.3816,-121.5551 2709.5427,-107.7398 2732.6681,-97.5536"/>
<polygon fill="#191970" stroke="#191970" points="1720.4501,-193.7627 1710.7253,-197.9674 1720.9496,-200.7448 1720.4501,-193.7627"/>
</g>
<!-- Node58&#45;&gt;Node9 -->
<g id="edge74" class="edge">
<title>Node58&#45;&gt;Node9</title>
<path fill="none" stroke="#191970" d="M1720.8136,-197.5012C1831.4724,-190.105 2153.4242,-167.969 2258,-154 2291.3941,-149.5393 2523.6143,-107.2859 2556,-98 2560.3835,-96.7431 2669.2017,-53.9904 2728.8043,-30.5383"/>
<polygon fill="#191970" stroke="#191970" points="1720.5237,-194.0126 1710.7787,-198.1701 1720.9894,-200.9971 1720.5237,-194.0126"/>
</g>
<!-- Node58&#45;&gt;Node10 -->
<g id="edge70" class="edge">
<title>Node58&#45;&gt;Node10</title>
<path fill="none" stroke="#191970" d="M1721.0018,-198.7309C1780.7816,-195.7829 1899.7854,-186.0412 1995,-154 2040.4075,-138.7196 2088.4583,-107.8992 2111.3411,-92.1868"/>
<polygon fill="#191970" stroke="#191970" points="1720.7226,-195.2399 1710.8924,-199.1918 1721.0415,-202.2327 1720.7226,-195.2399"/>
</g>
<!-- Node58&#45;&gt;Node12 -->
<g id="edge73" class="edge">
<title>Node58&#45;&gt;Node12</title>
<path fill="none" stroke="#191970" d="M1720.7969,-197.226C1750.9066,-195.0735 1794.1401,-192.1105 1832,-190 2012.1201,-179.9593 2469.4146,-203.1136 2643,-154 2660.612,-149.0169 2661.7862,-140.2207 2679,-134 2699.1288,-126.7259 2822.5886,-104.7804 2896.4115,-92.0057"/>
<polygon fill="#191970" stroke="#191970" points="1720.4474,-193.742 1710.7244,-197.9508 1720.9499,-200.7239 1720.4474,-193.742"/>
</g>
<!-- Node58&#45;&gt;Node15 -->
<g id="edge76" class="edge">
<title>Node58&#45;&gt;Node15</title>
<path fill="none" stroke="#191970" d="M1720.8814,-197.1098C1802.0737,-190.7527 1998.8286,-174.4781 2163,-154 2203.6056,-148.935 2491.8916,-119.0206 2527,-98 2556.5142,-80.3288 2576.6321,-42.7582 2584.8464,-25.0773"/>
<polygon fill="#191970" stroke="#191970" points="1720.3558,-193.6401 1710.6576,-197.9056 1720.8991,-200.619 1720.3558,-193.6401"/>
</g>
<!-- Node58&#45;&gt;Node16 -->
<g id="edge71" class="edge">
<title>Node58&#45;&gt;Node16</title>
<path fill="none" stroke="#191970" d="M1645.272,-190.332C1430.8969,-160.9578 931.5703,-205.392 740,-154 721.5665,-149.0549 720.168,-139.8456 702,-134 591.3679,-98.4035 557.6442,-117.0598 443,-98 432.2542,-96.2135 420.7351,-94.0994 409.8801,-92.0164"/>
<polygon fill="#191970" stroke="#191970" points="1644.8625,-193.8092 1655.2626,-191.7872 1645.8716,-186.8823 1644.8625,-193.8092"/>
</g>
<!-- Node58&#45;&gt;Node19 -->
<g id="edge75" class="edge">
<title>Node58&#45;&gt;Node19</title>
<path fill="none" stroke="#191970" d="M1652.9284,-186.0339C1600.8688,-161.8561 1495.2532,-112.8054 1450.6353,-92.0836"/>
<polygon fill="#191970" stroke="#191970" points="1651.7521,-189.3466 1662.2959,-190.3845 1654.7006,-182.9979 1651.7521,-189.3466"/>
</g>
<!-- Node58&#45;&gt;Node20 -->
<g id="edge77" class="edge">
<title>Node58&#45;&gt;Node20</title>
<path fill="none" stroke="#191970" d="M1645.2595,-190.2602C1281.9488,-135.1265 1181.6324,-205.2108 822,-154 784.8618,-148.7116 776.4764,-142.7568 740,-134 678.3622,-119.2028 606.8368,-102.3703 563.0036,-92.0932"/>
<polygon fill="#191970" stroke="#191970" points="1644.8447,-193.7375 1655.2608,-191.7993 1645.9095,-186.8189 1644.8447,-193.7375"/>
</g>
<!-- Node58&#45;&gt;Node24 -->
<g id="edge89" class="edge">
<title>Node58&#45;&gt;Node24</title>
<path fill="none" stroke="#191970" d="M1645.1631,-190.3226C1500.6041,-170.3688 1174.5431,-203.0138 1056,-154 1023.4118,-140.5258 995.0037,-108.2814 982.2112,-92.1023"/>
<polygon fill="#191970" stroke="#191970" points="1644.8407,-193.8136 1655.2524,-191.852 1645.8899,-186.8927 1644.8407,-193.8136"/>
</g>
<!-- Node58&#45;&gt;Node33 -->
<g id="edge90" class="edge">
<title>Node58&#45;&gt;Node33</title>
<path fill="none" stroke="#191970" d="M1645.3746,-190.2305C1446.8115,-157.4323 1386.3438,-208.2785 1197,-154 1145.0245,-139.1004 1134.1874,-127.6909 1089,-98 1070.7844,-86.0312 1070.2475,-77.2272 1051,-67 1012.5317,-46.5599 964.7811,-33.0435 929.524,-25.0079"/>
<polygon fill="#191970" stroke="#191970" points="1644.797,-193.6825 1655.2426,-191.9101 1645.9716,-186.7817 1644.797,-193.6825"/>
</g>
<!-- Node58&#45;&gt;Node36 -->
<g id="edge79" class="edge">
<title>Node58&#45;&gt;Node36</title>
<path fill="none" stroke="#191970" d="M1720.7881,-197.0557C1750.893,-194.8087 1794.1242,-191.8017 1832,-190 2401.8024,-162.8953 2548.1301,-217.7801 3115,-154 3229.8983,-141.0725 3363.1849,-108.4169 3425.4847,-92.095"/>
<polygon fill="#191970" stroke="#191970" points="1720.4257,-193.573 1710.7174,-197.8156 1720.9524,-200.5532 1720.4257,-193.573"/>
</g>
<!-- Node58&#45;&gt;Node37 -->
<g id="edge78" class="edge">
<title>Node58&#45;&gt;Node37</title>
<path fill="none" stroke="#191970" d="M1645.1735,-190.2504C1233.5508,-128.2594 1123.2344,-180.2671 712,-154 694.9532,-152.9112 676.475,-151.3984 659.5355,-149.8787"/>
<polygon fill="#191970" stroke="#191970" points="1644.8508,-193.7415 1655.2632,-191.7836 1645.9025,-186.8209 1644.8508,-193.7415"/>
</g>
<!-- Node58&#45;&gt;Node45 -->
<g id="edge80" class="edge">
<title>Node58&#45;&gt;Node45</title>
<path fill="none" stroke="#191970" d="M1670.7356,-181.7627C1663.0708,-167.8898 1656.1805,-148.7398 1665,-134 1677.7216,-112.7387 1702.5617,-99.7515 1723.7864,-92.1377"/>
<polygon fill="#191970" stroke="#191970" points="1667.8008,-183.6731 1675.9821,-190.4049 1673.7845,-180.0404 1667.8008,-183.6731"/>
</g>
<!-- Node58&#45;&gt;Node46 -->
<g id="edge88" class="edge">
<title>Node58&#45;&gt;Node46</title>
<path fill="none" stroke="#191970" d="M1648.6394,-186.6306C1626.3553,-177.1819 1600.3314,-164.3995 1594,-154 1581.9959,-134.2829 1594.6416,-106.4627 1602.9554,-92.0266"/>
<polygon fill="#191970" stroke="#191970" points="1647.3141,-189.87 1657.8925,-190.4594 1649.9905,-183.4018 1647.3141,-189.87"/>
</g>
<!-- Node58&#45;&gt;Node81 -->
<g id="edge81" class="edge">
<title>Node58&#45;&gt;Node81</title>
<path fill="none" stroke="#191970" d="M1720.8014,-197.3039C1750.9136,-195.1946 1794.1483,-192.2518 1832,-190 2140.3141,-171.6583 2220.4057,-198.7895 2526,-154 2528.8997,-153.575 2531.8942,-153.0387 2534.8832,-152.4362"/>
<polygon fill="#191970" stroke="#191970" points="1720.4576,-193.8193 1710.728,-198.0127 1720.949,-200.8021 1720.4576,-193.8193"/>
</g>
<!-- Node81&#45;&gt;Node3 -->
<g id="edge82" class="edge">
<title>Node81&#45;&gt;Node3</title>
<path fill="none" stroke="#191970" d="M2524.6907,-134.0344C2306.3236,-100.2389 2247.497,-115.9783 2031,-98 1989.3182,-94.5387 1941.8025,-90.0465 1908.3188,-86.7899"/>
<polygon fill="#191970" stroke="#191970" points="2524.4524,-137.5397 2534.8734,-135.6281 2525.5349,-130.6239 2524.4524,-137.5397"/>
</g>
<!-- Node81&#45;&gt;Node4 -->
<g id="edge84" class="edge">
<title>Node81&#45;&gt;Node4</title>
<path fill="none" stroke="#191970" d="M2524.9249,-133.8684C2439.3924,-115.9224 2415.1669,-118.3675 2334,-98 2289.691,-86.8814 2280.393,-77.7785 2236,-67 2148.4428,-45.7413 2044.4415,-29.9557 1984.7385,-21.7826"/>
<polygon fill="#191970" stroke="#191970" points="2524.2989,-137.3135 2534.8088,-135.9749 2525.758,-130.4673 2524.2989,-137.3135"/>
</g>
<!-- Node81&#45;&gt;Node8 -->
<g id="edge83" class="edge">
<title>Node81&#45;&gt;Node8</title>
<path fill="none" stroke="#191970" d="M2608.1428,-131.3486C2640.045,-121.5386 2684.3551,-107.9133 2718.0745,-97.5446"/>
<polygon fill="#191970" stroke="#191970" points="2606.7796,-128.106 2598.25,-134.3906 2608.837,-134.7968 2606.7796,-128.106"/>
</g>
<!-- Node81&#45;&gt;Node9 -->
<g id="edge86" class="edge">
<title>Node81&#45;&gt;Node9</title>
<path fill="none" stroke="#191970" d="M2590.2805,-128.7849C2603.7244,-119.9227 2620.9082,-108.4655 2636,-98 2655.3603,-84.5746 2659.2553,-79.8533 2679,-67 2698.8793,-54.0591 2722.0583,-40.5553 2739.6359,-30.6237"/>
<polygon fill="#191970" stroke="#191970" points="2588.0773,-126.0447 2581.6425,-134.4616 2591.9216,-131.8945 2588.0773,-126.0447"/>
</g>
<!-- Node81&#45;&gt;Node12 -->
<g id="edge85" class="edge">
<title>Node81&#45;&gt;Node12</title>
<path fill="none" stroke="#191970" d="M2609.3279,-137.2402C2665.4789,-128.2727 2767.6851,-111.9493 2855,-98 2867.1251,-96.0629 2880.1026,-93.9894 2892.4941,-92.0094"/>
<polygon fill="#191970" stroke="#191970" points="2608.7161,-133.7935 2599.3933,-138.8268 2609.8201,-140.7059 2608.7161,-133.7935"/>
</g>
<!-- Node81&#45;&gt;Node46 -->
<g id="edge87" class="edge">
<title>Node81&#45;&gt;Node46</title>
<path fill="none" stroke="#191970" d="M2524.9612,-134.1329C2164.4291,-83.6112 2067.4199,-133.5658 1709,-98 1694.1398,-96.5254 1678.1233,-94.3213 1663.3565,-92.0346"/>
<polygon fill="#191970" stroke="#191970" points="2524.4944,-137.6016 2534.8866,-135.5397 2525.4768,-130.6709 2524.4944,-137.6016"/>
</g>
<!-- Node132&#45;&gt;Node19 -->
<g id="edge93" class="edge">
<title>Node132&#45;&gt;Node19</title>
<path fill="none" stroke="#191970" d="M1559.6159,-187.004C1538.7975,-179.3146 1513.8419,-168.2661 1494,-154 1469.1115,-136.1055 1446.9377,-106.9973 1436.4337,-92.0395"/>
<polygon fill="#191970" stroke="#191970" points="1558.5643,-190.3448 1569.1589,-190.404 1560.9136,-183.7508 1558.5643,-190.3448"/>
</g>
<!-- Node133&#45;&gt;Node58 -->
<g id="edge95" class="edge">
<title>Node133&#45;&gt;Node58</title>
<path fill="none" stroke="#191970" d="M1710.0864,-237.9209C1703.3697,-228.5176 1695.4283,-217.3997 1689.8876,-209.6427"/>
<polygon fill="#191970" stroke="#191970" points="1707.372,-240.1425 1716.0325,-246.2455 1713.0682,-236.0738 1707.372,-240.1425"/>
</g>
<!-- Node136&#45;&gt;Node3 -->
<g id="edge97" class="edge">
<title>Node136&#45;&gt;Node3</title>
<path fill="none" stroke="#191970" d="M1874.166,-180.4095C1871.7846,-154.9723 1867.7198,-111.5527 1865.9126,-92.2484"/>
<polygon fill="#191970" stroke="#191970" points="1870.6829,-180.7543 1875.0998,-190.3845 1877.6524,-180.1018 1870.6829,-180.7543"/>
</g>
<!-- Node136&#45;&gt;Node7 -->
<g id="edge98" class="edge">
<title>Node136&#45;&gt;Node7</title>
<path fill="none" stroke="#191970" d="M1921.8059,-198.2696C2048.4389,-193.3185 2413.9308,-177.8967 2717,-154 2721.5568,-153.6407 2726.2314,-153.246 2730.9483,-152.8272"/>
<polygon fill="#191970" stroke="#191970" points="1921.5555,-194.7766 1911.699,-198.6623 1921.8274,-201.7713 1921.5555,-194.7766"/>
</g>
<!-- Node136&#45;&gt;Node9 -->
<g id="edge101" class="edge">
<title>Node136&#45;&gt;Node9</title>
<path fill="none" stroke="#191970" d="M1921.9172,-199.2031C2124.1959,-195.5678 2937.0084,-179.6235 3191,-154 3340.7563,-138.8921 3427.7657,-212.8943 3525,-98 3533.9005,-87.483 3534.4064,-77.0671 3525,-67 3502.0791,-42.469 3036.0518,-24.3795 2846.3223,-18.0045"/>
<polygon fill="#191970" stroke="#191970" points="1921.5883,-195.7083 1911.6524,-199.3864 1921.7133,-202.7072 1921.5883,-195.7083"/>
</g>
<!-- Node136&#45;&gt;Node12 -->
<g id="edge100" class="edge">
<title>Node136&#45;&gt;Node12</title>
<path fill="none" stroke="#191970" d="M1922.1625,-198.3706C2081.9434,-192.5908 2605.693,-172.4288 2679,-154 2699.4411,-148.8613 2702.0452,-140.7864 2722,-134 2778.9482,-114.6327 2846.3322,-100.5266 2893.3898,-92.0254"/>
<polygon fill="#191970" stroke="#191970" points="1921.6025,-194.8884 1911.735,-198.746 1921.8545,-201.8839 1921.6025,-194.8884"/>
</g>
<!-- Node136&#45;&gt;Node16 -->
<g id="edge99" class="edge">
<title>Node136&#45;&gt;Node16</title>
<path fill="none" stroke="#191970" d="M1830.2901,-196.7807C1799.2037,-194.6624 1757.1332,-191.9342 1720,-190 1321.1091,-169.2224 1217.9034,-206.9732 822,-154 782.6752,-148.7382 774.074,-140.881 735,-134 606.2212,-111.3219 572.1516,-118.4482 443,-98 432.101,-96.2744 420.4168,-94.1614 409.4377,-92.0573"/>
<polygon fill="#191970" stroke="#191970" points="1830.1722,-200.2808 1840.3884,-197.4737 1830.6515,-193.2972 1830.1722,-200.2808"/>
</g>
<!-- Node136&#45;&gt;Node18 -->
<g id="edge102" class="edge">
<title>Node136&#45;&gt;Node18</title>
<path fill="none" stroke="#191970" d="M1830.2796,-196.9688C1799.1886,-194.9322 1757.1169,-192.2244 1720,-190 1436.8324,-173.03 1098.8625,-154.8293 959.7205,-147.4252"/>
<polygon fill="#191970" stroke="#191970" points="1830.1716,-200.4692 1840.3795,-197.6321 1830.6304,-193.4842 1830.1716,-200.4692"/>
</g>
<!-- Node136&#45;&gt;Node19 -->
<g id="edge103" class="edge">
<title>Node136&#45;&gt;Node19</title>
<path fill="none" stroke="#191970" d="M1830.4681,-191.1792C1787.5635,-182.6067 1721.5946,-168.753 1665,-154 1589.8956,-134.4219 1502.8037,-106.543 1458.7292,-92.0614"/>
<polygon fill="#191970" stroke="#191970" points="1829.8353,-194.6218 1840.3255,-193.1368 1831.1989,-187.7559 1829.8353,-194.6218"/>
</g>
<!-- Node136&#45;&gt;Node35 -->
<g id="edge104" class="edge">
<title>Node136&#45;&gt;Node35</title>
<path fill="none" stroke="#191970" d="M1921.5714,-198.9222C2104.2465,-194.4795 2783.9373,-176.7447 2998,-154 3000.7434,-153.7085 3003.5533,-153.3673 3006.3852,-152.99"/>
<polygon fill="#191970" stroke="#191970" points="1921.4141,-195.4249 1911.5017,-199.1659 1921.5835,-202.4229 1921.4141,-195.4249"/>
</g>
<!-- Node136&#45;&gt;Node39 -->
<g id="edge107" class="edge">
<title>Node136&#45;&gt;Node39</title>
<path fill="none" stroke="#191970" d="M1830.0309,-196.9779C1682.9073,-187.2767 1232.784,-157.3576 1226,-154 1198.1239,-140.2034 1177.2145,-108.1101 1168.0732,-92.034"/>
<polygon fill="#191970" stroke="#191970" points="1829.8813,-200.4756 1840.0899,-197.6408 1830.3417,-193.4907 1829.8813,-200.4756"/>
</g>
<!-- Node136&#45;&gt;Node40 -->
<g id="edge105" class="edge">
<title>Node136&#45;&gt;Node40</title>
<path fill="none" stroke="#191970" d="M1921.517,-189.4234C1967.3105,-178.7826 2037.0813,-162.5703 2079.7072,-152.6656"/>
<polygon fill="#191970" stroke="#191970" points="1920.5087,-186.0644 1911.5604,-191.737 1922.0931,-192.8828 1920.5087,-186.0644"/>
</g>
<!-- Node136&#45;&gt;Node45 -->
<g id="edge108" class="edge">
<title>Node136&#45;&gt;Node45</title>
<path fill="none" stroke="#191970" d="M1859.4359,-183.0758C1835.0098,-158.1187 1790.1124,-112.2453 1770.541,-92.2484"/>
<polygon fill="#191970" stroke="#191970" points="1857.0931,-185.6859 1866.5891,-190.3845 1862.0958,-180.7896 1857.0931,-185.6859"/>
</g>
<!-- Node136&#45;&gt;Node55 -->
<g id="edge106" class="edge">
<title>Node136&#45;&gt;Node55</title>
<path fill="none" stroke="#191970" d="M1841.3206,-186.7888C1814.4802,-176.5639 1777.953,-162.6488 1753.9404,-153.5011"/>
<polygon fill="#191970" stroke="#191970" points="1840.1389,-190.0839 1850.7298,-190.3733 1842.6309,-183.5425 1840.1389,-190.0839"/>
</g>
<!-- Node148&#45;&gt;Node3 -->
<g id="edge110" class="edge">
<title>Node148&#45;&gt;Node3</title>
<path fill="none" stroke="#191970" d="M2381.0785,-136.386C2256.9522,-123.4254 2008.3388,-97.4666 1908.2334,-87.0142"/>
<polygon fill="#191970" stroke="#191970" points="2380.9363,-139.8901 2391.2457,-137.4476 2381.6633,-132.9279 2380.9363,-139.8901"/>
</g>
<!-- Node148&#45;&gt;Node8 -->
<g id="edge111" class="edge">
<title>Node148&#45;&gt;Node8</title>
<path fill="none" stroke="#191970" d="M2512.6215,-132.4817C2562.9051,-122.6017 2635.7106,-108.2965 2690.5602,-97.5193"/>
<polygon fill="#191970" stroke="#191970" points="2511.7004,-129.0957 2502.5628,-134.4581 2513.05,-135.9644 2511.7004,-129.0957"/>
</g>
<!-- Node148&#45;&gt;Node12 -->
<g id="edge112" class="edge">
<title>Node148&#45;&gt;Node12</title>
<path fill="none" stroke="#191970" d="M2527.0937,-133.8982C2673.7025,-115.9473 2712.4926,-117.1707 2855,-98 2868.0988,-96.2379 2882.1565,-94.1221 2895.3922,-92.0284"/>
<polygon fill="#191970" stroke="#191970" points="2526.3106,-130.4682 2516.8145,-135.1665 2527.1678,-137.4155 2526.3106,-130.4682"/>
</g>
<!-- Node148&#45;&gt;Node19 -->
<g id="edge113" class="edge">
<title>Node148&#45;&gt;Node19</title>
<path fill="none" stroke="#191970" d="M2381.3063,-141.0571C2175.0398,-132.6223 1595.4558,-108.3072 1510,-98 1497.921,-96.5431 1484.9292,-94.3158 1473.0012,-92.0002"/>
<polygon fill="#191970" stroke="#191970" points="2381.2949,-144.5595 2391.4295,-141.4706 2381.5807,-137.5653 2381.2949,-144.5595"/>
</g>
<!-- Node128&#45;&gt;Node39 -->
<g id="edge117" class="edge">
<title>Node128&#45;&gt;Node39</title>
<path fill="none" stroke="#191970" d="M1163.4054,-181.4785C1159.6799,-173.2885 1155.8648,-163.3997 1154,-154 1149.6663,-132.1559 1155.7103,-106.1214 1159.7957,-92.2845"/>
<polygon fill="#191970" stroke="#191970" points="1160.2567,-183.007 1167.7682,-190.4788 1166.5557,-179.9536 1160.2567,-183.007"/>
</g>
<!-- Node149&#45;&gt;Node8 -->
<g id="edge119" class="edge">
<title>Node149&#45;&gt;Node8</title>
<path fill="none" stroke="#191970" d="M2913.5591,-131.221C2884.0787,-121.4207 2843.3115,-107.8684 2812.2561,-97.5446"/>
<polygon fill="#191970" stroke="#191970" points="2912.5002,-134.5573 2923.0938,-134.3906 2914.7085,-127.9147 2912.5002,-134.5573"/>
</g>
<!-- Node149&#45;&gt;Node9 -->
<g id="edge121" class="edge">
<title>Node149&#45;&gt;Node9</title>
<path fill="none" stroke="#191970" d="M2998.4806,-132.3936C3039.1858,-121.7622 3092.8008,-106.4355 3099,-98 3107.1589,-86.8978 3107.9646,-77.4624 3099,-67 3082.7282,-48.0095 2939.258,-31.3503 2846.3181,-22.4217"/>
<polygon fill="#191970" stroke="#191970" points="2997.5139,-129.0284 2988.709,-134.9211 2999.2669,-135.8053 2997.5139,-129.0284"/>
</g>
<!-- Node149&#45;&gt;Node12 -->
<g id="edge120" class="edge">
<title>Node149&#45;&gt;Node12</title>
<path fill="none" stroke="#191970" d="M2952,-124.2462C2952,-113.5519 2952,-100.814 2952,-92.2449"/>
<polygon fill="#191970" stroke="#191970" points="2948.5001,-124.3906 2952,-134.3906 2955.5001,-124.3907 2948.5001,-124.3906"/>
</g>
<!-- Node150&#45;&gt;Node3 -->
<g id="edge123" class="edge">
<title>Node150&#45;&gt;Node3</title>
<path fill="none" stroke="#191970" d="M1929.2812,-128.4685C1913.2491,-117.0037 1891.9396,-101.765 1878.3431,-92.0419"/>
<polygon fill="#191970" stroke="#191970" points="1927.3924,-131.4207 1937.5625,-134.3906 1931.4643,-125.7268 1927.3924,-131.4207"/>
</g>
<!-- Node150&#45;&gt;Node4 -->
<g id="edge127" class="edge">
<title>Node150&#45;&gt;Node4</title>
<path fill="none" stroke="#191970" d="M1948.6856,-124.1733C1945.423,-96.2236 1939.5958,-46.3037 1937.1405,-25.2705"/>
<polygon fill="#191970" stroke="#191970" points="1945.2366,-124.8149 1949.8726,-134.3416 1952.1894,-124.0032 1945.2366,-124.8149"/>
</g>
<!-- Node150&#45;&gt;Node8 -->
<g id="edge124" class="edge">
<title>Node150&#45;&gt;Node8</title>
<path fill="none" stroke="#191970" d="M1996.4245,-140.1146C2018.8653,-138.2207 2046.3513,-135.9389 2071,-134 2294.6135,-116.4101 2558.7821,-97.329 2687.9154,-88.1118"/>
<polygon fill="#191970" stroke="#191970" points="1995.8426,-136.6513 1986.1735,-140.9824 1996.4331,-143.6263 1995.8426,-136.6513"/>
</g>
<!-- Node150&#45;&gt;Node9 -->
<g id="edge129" class="edge">
<title>Node150&#45;&gt;Node9</title>
<path fill="none" stroke="#191970" d="M1968.2026,-127.1543C1991.1203,-104.7535 2029.034,-67.8571 2031,-67 2162.1882,-9.8082 2531.7608,-46.7873 2674,-31 2678.5552,-30.4944 2683.2265,-29.914 2687.9341,-29.2812"/>
<polygon fill="#191970" stroke="#191970" points="1965.5063,-124.8957 1960.8052,-134.3904 1970.4012,-129.8997 1965.5063,-124.8957"/>
</g>
<!-- Node150&#45;&gt;Node10 -->
<g id="edge125" class="edge">
<title>Node150&#45;&gt;Node10</title>
<path fill="none" stroke="#191970" d="M1987.9209,-130.9504C2020.9068,-119.2916 2068.4566,-102.4852 2098.0034,-92.0419"/>
<polygon fill="#191970" stroke="#191970" points="1986.4495,-127.7582 1978.1875,-134.3906 1988.7823,-134.3581 1986.4495,-127.7582"/>
</g>
<!-- Node150&#45;&gt;Node12 -->
<g id="edge128" class="edge">
<title>Node150&#45;&gt;Node12</title>
<path fill="none" stroke="#191970" d="M1996.403,-139.8151C2018.8387,-137.8495 2046.3265,-135.594 2071,-134 2419.086,-111.5125 2508.0074,-133.5762 2855,-98 2869.4202,-96.5215 2884.9583,-94.3161 2899.2821,-92.0294"/>
<polygon fill="#191970" stroke="#191970" points="1995.8069,-136.3541 1986.155,-140.7234 1996.4249,-143.3268 1995.8069,-136.3541"/>
</g>
<!-- Node150&#45;&gt;Node15 -->
<g id="edge131" class="edge">
<title>Node150&#45;&gt;Node15</title>
<path fill="none" stroke="#191970" d="M1957.0139,-124.7693C1963.8197,-106.5263 1976.8069,-80.0239 1998,-67 2084.0365,-14.1276 2350.4768,-40.637 2451,-31 2471.2791,-29.0559 2493.2062,-26.7064 2513.4838,-24.431"/>
<polygon fill="#191970" stroke="#191970" points="1953.6472,-123.797 1953.7058,-134.3917 1960.2669,-126.0729 1953.6472,-123.797"/>
</g>
<!-- Node150&#45;&gt;Node16 -->
<g id="edge126" class="edge">
<title>Node150&#45;&gt;Node16</title>
<path fill="none" stroke="#191970" d="M1905.6369,-140.6878C1874.0681,-138.491 1830.9903,-135.7082 1793,-134 1193.3925,-107.0393 1039.65,-163.3055 443,-98 430.6244,-96.6454 417.3039,-94.3906 405.1505,-92.0145"/>
<polygon fill="#191970" stroke="#191970" points="1905.6568,-144.1978 1915.8777,-141.408 1906.1479,-137.215 1905.6568,-144.1978"/>
</g>
<!-- Node150&#45;&gt;Node19 -->
<g id="edge130" class="edge">
<title>Node150&#45;&gt;Node19</title>
<path fill="none" stroke="#191970" d="M1905.7788,-140.5964C1825.7213,-134.2786 1653.9155,-119.4057 1510,-98 1498.8054,-96.3349 1486.7949,-94.1969 1475.5717,-92.044"/>
<polygon fill="#191970" stroke="#191970" points="1905.7539,-144.1051 1915.9964,-141.3955 1906.2997,-137.1264 1905.7539,-144.1051"/>
</g>
<!-- Node150&#45;&gt;Node39 -->
<g id="edge132" class="edge">
<title>Node150&#45;&gt;Node39</title>
<path fill="none" stroke="#191970" d="M1905.7708,-140.6216C1805.7448,-133.1306 1558.2025,-114.4842 1351,-98 1310.1919,-94.7535 1264.4128,-90.9819 1228.2465,-87.972"/>
<polygon fill="#191970" stroke="#191970" points="1905.5944,-144.1181 1915.8278,-141.3744 1906.1169,-137.1376 1905.5944,-144.1181"/>
</g>
<!-- Node150&#45;&gt;Node45 -->
<g id="edge133" class="edge">
<title>Node150&#45;&gt;Node45</title>
<path fill="none" stroke="#191970" d="M1911.6121,-131.2507C1875.5617,-119.5818 1823.021,-102.5752 1790.479,-92.0419"/>
<polygon fill="#191970" stroke="#191970" points="1910.7206,-134.6409 1921.3125,-134.3906 1912.8763,-127.9811 1910.7206,-134.6409"/>
</g>
<!-- Node150&#45;&gt;Node46 -->
<g id="edge134" class="edge">
<title>Node150&#45;&gt;Node46</title>
<path fill="none" stroke="#191970" d="M1905.6509,-135.8451C1842.6211,-124.5108 1728.7669,-104.037 1661.9306,-92.0182"/>
<polygon fill="#191970" stroke="#191970" points="1905.2265,-139.3249 1915.6881,-137.6501 1906.4655,-132.4354 1905.2265,-139.3249"/>
</g>
</g>
</svg>
