<?xml version="1.0" encoding="UTF-8" standalone="no"?>
<!DOCTYPE svg PUBLIC "-//W3C//DTD SVG 1.1//EN"
 "http://www.w3.org/Graphics/SVG/1.1/DTD/svg11.dtd">
<!-- Generated by graphviz version 2.40.1 (20161225.0304)
 -->
<!-- Title: InertiaNonLinearParametrization.h Pages: 1 -->
<svg width="1383pt" height="420pt"
 viewBox="0.00 0.00 1383.00 420.00" xmlns="http://www.w3.org/2000/svg" xmlns:xlink="http://www.w3.org/1999/xlink">
<g id="graph0" class="graph" transform="scale(1 1) rotate(0) translate(4 416)">
<title>InertiaNonLinearParametrization.h</title>
<!-- Node0 -->
<g id="node1" class="node">
<title>Node0</title>
<polygon fill="#bfbfbf" stroke="#000000" points="661.5,-392.5 661.5,-411.5 845.5,-411.5 845.5,-392.5 661.5,-392.5"/>
<text text-anchor="middle" x="753.5" y="-399.5" font-family="FreeSans.ttf" font-size="10.00" fill="#000000">InertiaNonLinearParametrization.h</text>
</g>
<!-- Node1 -->
<g id="node2" class="node">
<title>Node1</title>
<g id="a_node2"><a xlink:href="VectorFixSize_8h.html" target="_top" xlink:title="iDynTree/Core/VectorFixSize.h">
<polygon fill="none" stroke="#000000" points="385,-112.5 385,-131.5 546,-131.5 546,-112.5 385,-112.5"/>
<text text-anchor="middle" x="465.5" y="-119.5" font-family="FreeSans.ttf" font-size="10.00" fill="#000000">iDynTree/Core/VectorFixSize.h</text>
</a>
</g>
</g>
<!-- Node0&#45;&gt;Node1 -->
<g id="edge1" class="edge">
<title>Node0&#45;&gt;Node1</title>
<path fill="none" stroke="#191970" d="M702.9752,-392.4795C622.5751,-375.8694 474.5,-338.6715 474.5,-290 474.5,-290 474.5,-290 474.5,-234 474.5,-201.6075 470.7133,-164.1141 468.0523,-141.7662"/>
<polygon fill="#191970" stroke="#191970" points="471.4919,-141.0616 466.7895,-131.5676 464.545,-141.9219 471.4919,-141.0616"/>
</g>
<!-- Node16 -->
<g id="node17" class="node">
<title>Node16</title>
<g id="a_node17"><a xlink:href="Rotation_8h.html" target="_top" xlink:title="iDynTree/Core/Rotation.h">
<polygon fill="none" stroke="#000000" points="704,-224.5 704,-243.5 841,-243.5 841,-224.5 704,-224.5"/>
<text text-anchor="middle" x="772.5" y="-231.5" font-family="FreeSans.ttf" font-size="10.00" fill="#000000">iDynTree/Core/Rotation.h</text>
</a>
</g>
</g>
<!-- Node0&#45;&gt;Node16 -->
<g id="edge18" class="edge">
<title>Node0&#45;&gt;Node16</title>
<path fill="none" stroke="#191970" d="M754.576,-392.4862C757.5794,-365.9293 766.1028,-290.5651 770.2194,-254.1655"/>
<polygon fill="#191970" stroke="#191970" points="773.7425,-254.1579 771.3885,-243.8279 766.7868,-253.3712 773.7425,-254.1579"/>
</g>
<!-- Node21 -->
<g id="node22" class="node">
<title>Node21</title>
<g id="a_node22"><a xlink:href="Transform_8h.html" target="_top" xlink:title="iDynTree/Core/Transform.h">
<polygon fill="none" stroke="#000000" points="797.5,-336.5 797.5,-355.5 943.5,-355.5 943.5,-336.5 797.5,-336.5"/>
<text text-anchor="middle" x="870.5" y="-343.5" font-family="FreeSans.ttf" font-size="10.00" fill="#000000">iDynTree/Core/Transform.h</text>
</a>
</g>
</g>
<!-- Node0&#45;&gt;Node21 -->
<g id="edge32" class="edge">
<title>Node0&#45;&gt;Node21</title>
<path fill="none" stroke="#191970" d="M773.613,-392.3733C792.3103,-383.4241 820.3744,-369.9917 841.4934,-359.8835"/>
<polygon fill="#191970" stroke="#191970" points="843.1405,-362.9755 850.6494,-355.5011 840.1183,-356.6614 843.1405,-362.9755"/>
</g>
<!-- Node2 -->
<g id="node3" class="node">
<title>Node2</title>
<g id="a_node3"><a xlink:href="Utils_8h.html" target="_top" xlink:title="iDynTree/Core/Utils.h">
<polygon fill="none" stroke="#000000" points="497,-56.5 497,-75.5 616,-75.5 616,-56.5 497,-56.5"/>
<text text-anchor="middle" x="556.5" y="-63.5" font-family="FreeSans.ttf" font-size="10.00" fill="#000000">iDynTree/Core/Utils.h</text>
</a>
</g>
</g>
<!-- Node1&#45;&gt;Node2 -->
<g id="edge2" class="edge">
<title>Node1&#45;&gt;Node2</title>
<path fill="none" stroke="#191970" d="M481.351,-112.2455C495.3132,-103.6534 515.8728,-91.0014 531.9596,-81.1018"/>
<polygon fill="#191970" stroke="#191970" points="534.1484,-83.8645 540.8307,-75.6427 530.4797,-77.9029 534.1484,-83.8645"/>
</g>
<!-- Node4 -->
<g id="node5" class="node">
<title>Node4</title>
<g id="a_node5"><a xlink:href="Span_8h.html" target="_top" xlink:title="iDynTree/Core/Span.h">
<polygon fill="none" stroke="#000000" points="245,-56.5 245,-75.5 366,-75.5 366,-56.5 245,-56.5"/>
<text text-anchor="middle" x="305.5" y="-63.5" font-family="FreeSans.ttf" font-size="10.00" fill="#000000">iDynTree/Core/Span.h</text>
</a>
</g>
</g>
<!-- Node1&#45;&gt;Node4 -->
<g id="edge4" class="edge">
<title>Node1&#45;&gt;Node4</title>
<path fill="none" stroke="#191970" d="M437.995,-112.3733C411.6198,-103.1419 371.6149,-89.1402 342.4642,-78.9375"/>
<polygon fill="#191970" stroke="#191970" points="343.2409,-75.5012 332.6461,-75.5011 340.9284,-82.1082 343.2409,-75.5012"/>
</g>
<!-- Node5 -->
<g id="node6" class="node">
<title>Node5</title>
<polygon fill="none" stroke="#bfbfbf" points="581.5,-.5 581.5,-19.5 633.5,-19.5 633.5,-.5 581.5,-.5"/>
<text text-anchor="middle" x="607.5" y="-7.5" font-family="FreeSans.ttf" font-size="10.00" fill="#000000">cassert</text>
</g>
<!-- Node1&#45;&gt;Node5 -->
<g id="edge16" class="edge">
<title>Node1&#45;&gt;Node5</title>
<path fill="none" stroke="#191970" d="M448.3953,-112.3524C427.7251,-99.47 397.5798,-75.9557 413.5,-56 458.4155,.3006 501.6725,-37.643 571.5,-20 571.5983,-19.9752 571.6967,-19.9503 571.7952,-19.9253"/>
<polygon fill="#191970" stroke="#191970" points="572.4067,-23.3834 581.1918,-17.4612 570.6311,-16.6123 572.4067,-23.3834"/>
</g>
<!-- Node13 -->
<g id="node14" class="node">
<title>Node13</title>
<polygon fill="none" stroke="#bfbfbf" points="952.5,-56.5 952.5,-75.5 996.5,-75.5 996.5,-56.5 952.5,-56.5"/>
<text text-anchor="middle" x="974.5" y="-63.5" font-family="FreeSans.ttf" font-size="10.00" fill="#000000">string</text>
</g>
<!-- Node1&#45;&gt;Node13 -->
<g id="edge14" class="edge">
<title>Node1&#45;&gt;Node13</title>
<path fill="none" stroke="#191970" d="M546.0291,-112.9416C548.8878,-112.6232 551.7183,-112.3086 554.5,-112 699.0855,-95.9595 871.712,-77.1654 942.1626,-69.5105"/>
<polygon fill="#191970" stroke="#191970" points="942.6233,-72.9811 952.1868,-68.4216 941.8673,-66.0221 942.6233,-72.9811"/>
</g>
<!-- Node14 -->
<g id="node15" class="node">
<title>Node14</title>
<polygon fill="none" stroke="#bfbfbf" points="422.5,-56.5 422.5,-75.5 478.5,-75.5 478.5,-56.5 422.5,-56.5"/>
<text text-anchor="middle" x="450.5" y="-63.5" font-family="FreeSans.ttf" font-size="10.00" fill="#000000">sstream</text>
</g>
<!-- Node1&#45;&gt;Node14 -->
<g id="edge15" class="edge">
<title>Node1&#45;&gt;Node14</title>
<path fill="none" stroke="#191970" d="M462.8872,-112.2455C460.9084,-104.8579 458.1256,-94.4689 455.6988,-85.4087"/>
<polygon fill="#191970" stroke="#191970" points="459.0511,-84.3966 453.0829,-75.6427 452.2895,-86.2078 459.0511,-84.3966"/>
</g>
<!-- Node15 -->
<g id="node16" class="node">
<title>Node15</title>
<polygon fill="none" stroke="#bfbfbf" points="634.5,-56.5 634.5,-75.5 684.5,-75.5 684.5,-56.5 634.5,-56.5"/>
<text text-anchor="middle" x="659.5" y="-63.5" font-family="FreeSans.ttf" font-size="10.00" fill="#000000">cstring</text>
</g>
<!-- Node1&#45;&gt;Node15 -->
<g id="edge17" class="edge">
<title>Node1&#45;&gt;Node15</title>
<path fill="none" stroke="#191970" d="M498.8498,-112.3733C533.8534,-102.2691 588.6558,-86.4499 624.3283,-76.1526"/>
<polygon fill="#191970" stroke="#191970" points="625.6586,-79.4116 634.2956,-73.2755 623.7172,-72.6862 625.6586,-79.4116"/>
</g>
<!-- Node3 -->
<g id="node4" class="node">
<title>Node3</title>
<polygon fill="none" stroke="#bfbfbf" points="510,-.5 510,-19.5 563,-19.5 563,-.5 510,-.5"/>
<text text-anchor="middle" x="536.5" y="-7.5" font-family="FreeSans.ttf" font-size="10.00" fill="#000000">cstddef</text>
</g>
<!-- Node2&#45;&gt;Node3 -->
<g id="edge3" class="edge">
<title>Node2&#45;&gt;Node3</title>
<path fill="none" stroke="#191970" d="M553.0163,-56.2455C550.3492,-48.7776 546.5867,-38.2427 543.3263,-29.1137"/>
<polygon fill="#191970" stroke="#191970" points="546.6033,-27.8829 539.9438,-19.6427 540.0111,-30.2373 546.6033,-27.8829"/>
</g>
<!-- Node4&#45;&gt;Node3 -->
<g id="edge8" class="edge">
<title>Node4&#45;&gt;Node3</title>
<path fill="none" stroke="#191970" d="M348.2227,-56.4299C385.7215,-47.916 441.9596,-34.873 500.0746,-20.0376"/>
<polygon fill="#191970" stroke="#191970" points="500.9785,-23.4192 509.7949,-17.5438 499.2388,-16.6388 500.9785,-23.4192"/>
</g>
<!-- Node4&#45;&gt;Node5 -->
<g id="edge5" class="edge">
<title>Node4&#45;&gt;Node5</title>
<path fill="none" stroke="#191970" d="M366.0554,-57.2891C420.1911,-49.0843 501.5404,-35.7246 571.5,-20 571.5989,-19.9778 571.6979,-19.9554 571.7971,-19.933"/>
<polygon fill="#191970" stroke="#191970" points="572.3499,-23.4011 581.2304,-17.623 570.6849,-16.602 572.3499,-23.4011"/>
</g>
<!-- Node6 -->
<g id="node7" class="node">
<title>Node6</title>
<polygon fill="none" stroke="#bfbfbf" points="367.5,-.5 367.5,-19.5 431.5,-19.5 431.5,-.5 367.5,-.5"/>
<text text-anchor="middle" x="399.5" y="-7.5" font-family="FreeSans.ttf" font-size="10.00" fill="#000000">algorithm</text>
</g>
<!-- Node4&#45;&gt;Node6 -->
<g id="edge6" class="edge">
<title>Node4&#45;&gt;Node6</title>
<path fill="none" stroke="#191970" d="M321.8736,-56.2455C336.4308,-47.5731 357.931,-34.7645 374.6152,-24.825"/>
<polygon fill="#191970" stroke="#191970" points="376.5144,-27.7676 383.3141,-19.6427 372.9317,-21.7539 376.5144,-27.7676"/>
</g>
<!-- Node7 -->
<g id="node8" class="node">
<title>Node7</title>
<polygon fill="none" stroke="#bfbfbf" points="449.5,-.5 449.5,-19.5 491.5,-19.5 491.5,-.5 449.5,-.5"/>
<text text-anchor="middle" x="470.5" y="-7.5" font-family="FreeSans.ttf" font-size="10.00" fill="#000000">array</text>
</g>
<!-- Node4&#45;&gt;Node7 -->
<g id="edge7" class="edge">
<title>Node4&#45;&gt;Node7</title>
<path fill="none" stroke="#191970" d="M333.8645,-56.3733C363.3351,-46.3711 409.3065,-30.7687 439.6622,-20.4662"/>
<polygon fill="#191970" stroke="#191970" points="440.967,-23.7195 449.3116,-17.1912 438.7173,-17.0908 440.967,-23.7195"/>
</g>
<!-- Node8 -->
<g id="node9" class="node">
<title>Node8</title>
<polygon fill="none" stroke="#bfbfbf" points="0,-.5 0,-19.5 53,-19.5 53,-.5 0,-.5"/>
<text text-anchor="middle" x="26.5" y="-7.5" font-family="FreeSans.ttf" font-size="10.00" fill="#000000">iterator</text>
</g>
<!-- Node4&#45;&gt;Node8 -->
<g id="edge9" class="edge">
<title>Node4&#45;&gt;Node8</title>
<path fill="none" stroke="#191970" d="M247.7705,-56.4764C200.5746,-48.3708 131.9367,-35.8569 62.9124,-19.945"/>
<polygon fill="#191970" stroke="#191970" points="63.7056,-16.5361 53.1724,-17.6773 62.1182,-23.3537 63.7056,-16.5361"/>
</g>
<!-- Node9 -->
<g id="node10" class="node">
<title>Node9</title>
<polygon fill="none" stroke="#bfbfbf" points="71.5,-.5 71.5,-19.5 115.5,-19.5 115.5,-.5 71.5,-.5"/>
<text text-anchor="middle" x="93.5" y="-7.5" font-family="FreeSans.ttf" font-size="10.00" fill="#000000">limits</text>
</g>
<!-- Node4&#45;&gt;Node9 -->
<g id="edge10" class="edge">
<title>Node4&#45;&gt;Node9</title>
<path fill="none" stroke="#191970" d="M265.0457,-56.4936C230.3188,-48.16 178.735,-35.3723 125.4184,-20.1475"/>
<polygon fill="#191970" stroke="#191970" points="126.3773,-16.7815 115.7994,-17.3792 124.4413,-23.5084 126.3773,-16.7815"/>
</g>
<!-- Node10 -->
<g id="node11" class="node">
<title>Node10</title>
<polygon fill="none" stroke="#bfbfbf" points="134,-.5 134,-19.5 199,-19.5 199,-.5 134,-.5"/>
<text text-anchor="middle" x="166.5" y="-7.5" font-family="FreeSans.ttf" font-size="10.00" fill="#000000">stdexcept</text>
</g>
<!-- Node4&#45;&gt;Node10 -->
<g id="edge11" class="edge">
<title>Node4&#45;&gt;Node10</title>
<path fill="none" stroke="#191970" d="M281.605,-56.3733C258.9918,-47.2629 224.8458,-33.5062 199.6127,-23.3404"/>
<polygon fill="#191970" stroke="#191970" points="200.6666,-19.9917 190.0831,-19.5011 198.0507,-26.4845 200.6666,-19.9917"/>
</g>
<!-- Node11 -->
<g id="node12" class="node">
<title>Node11</title>
<polygon fill="none" stroke="#bfbfbf" points="217,-.5 217,-19.5 286,-19.5 286,-.5 217,-.5"/>
<text text-anchor="middle" x="251.5" y="-7.5" font-family="FreeSans.ttf" font-size="10.00" fill="#000000">type_traits</text>
</g>
<!-- Node4&#45;&gt;Node11 -->
<g id="edge12" class="edge">
<title>Node4&#45;&gt;Node11</title>
<path fill="none" stroke="#191970" d="M296.0939,-56.2455C288.3507,-48.2155 277.188,-36.6394 267.9682,-27.0781"/>
<polygon fill="#191970" stroke="#191970" points="270.2591,-24.4117 260.7983,-19.6427 265.2202,-29.2706 270.2591,-24.4117"/>
</g>
<!-- Node12 -->
<g id="node13" class="node">
<title>Node12</title>
<polygon fill="none" stroke="#bfbfbf" points="304,-.5 304,-19.5 349,-19.5 349,-.5 304,-.5"/>
<text text-anchor="middle" x="326.5" y="-7.5" font-family="FreeSans.ttf" font-size="10.00" fill="#000000">utility</text>
</g>
<!-- Node4&#45;&gt;Node12 -->
<g id="edge13" class="edge">
<title>Node4&#45;&gt;Node12</title>
<path fill="none" stroke="#191970" d="M309.1579,-56.2455C311.9584,-48.7776 315.909,-38.2427 319.3324,-29.1137"/>
<polygon fill="#191970" stroke="#191970" points="322.6499,-30.2349 322.884,-19.6427 316.0955,-27.777 322.6499,-30.2349"/>
</g>
<!-- Node16&#45;&gt;Node1 -->
<g id="edge31" class="edge">
<title>Node16&#45;&gt;Node1</title>
<path fill="none" stroke="#191970" d="M724.9688,-224.4356C689.0638,-216.5293 638.8962,-204.0147 596.5,-188 558.308,-173.5734 516.5773,-151.3332 490.717,-136.7229"/>
<polygon fill="#191970" stroke="#191970" points="492.3632,-133.6325 481.9435,-131.714 488.8925,-139.7116 492.3632,-133.6325"/>
</g>
<!-- Node16&#45;&gt;Node13 -->
<g id="edge19" class="edge">
<title>Node16&#45;&gt;Node13</title>
<path fill="none" stroke="#191970" d="M772.5696,-224.1741C773.2835,-201.1357 778.3649,-143.2324 810.5,-112 829.2181,-93.8077 900.1112,-78.8309 942.3174,-71.2861"/>
<polygon fill="#191970" stroke="#191970" points="943.1308,-74.6972 952.3805,-69.5307 941.9278,-67.8013 943.1308,-74.6972"/>
</g>
<!-- Node17 -->
<g id="node18" class="node">
<title>Node17</title>
<g id="a_node18"><a xlink:href="RotationRaw_8h.html" target="_top" xlink:title="iDynTree/Core/RotationRaw.h">
<polygon fill="none" stroke="#000000" points="605.5,-168.5 605.5,-187.5 763.5,-187.5 763.5,-168.5 605.5,-168.5"/>
<text text-anchor="middle" x="684.5" y="-175.5" font-family="FreeSans.ttf" font-size="10.00" fill="#000000">iDynTree/Core/RotationRaw.h</text>
</a>
</g>
</g>
<!-- Node16&#45;&gt;Node17 -->
<g id="edge20" class="edge">
<title>Node16&#45;&gt;Node17</title>
<path fill="none" stroke="#191970" d="M757.1716,-224.2455C743.6697,-215.6534 723.7878,-203.0014 708.2314,-193.1018"/>
<polygon fill="#191970" stroke="#191970" points="709.9685,-190.0587 699.6528,-187.6427 706.2103,-195.9643 709.9685,-190.0587"/>
</g>
<!-- Node20 -->
<g id="node21" class="node">
<title>Node20</title>
<g id="a_node21"><a xlink:href="RotationSemantics_8h.html" target="_top" xlink:title="iDynTree/Core/RotationSemantics.h">
<polygon fill="none" stroke="#000000" points="819.5,-112.5 819.5,-131.5 1007.5,-131.5 1007.5,-112.5 819.5,-112.5"/>
<text text-anchor="middle" x="913.5" y="-119.5" font-family="FreeSans.ttf" font-size="10.00" fill="#000000">iDynTree/Core/RotationSemantics.h</text>
</a>
</g>
</g>
<!-- Node16&#45;&gt;Node20 -->
<g id="edge29" class="edge">
<title>Node16&#45;&gt;Node20</title>
<path fill="none" stroke="#191970" d="M783.0389,-224.2559C797.457,-211.0642 824.3063,-186.9903 848.5,-168 862.0638,-157.3535 877.8401,-146.1619 890.4533,-137.4836"/>
<polygon fill="#191970" stroke="#191970" points="892.7131,-140.1789 899.0018,-131.6523 888.7684,-134.3962 892.7131,-140.1789"/>
</g>
<!-- Node17&#45;&gt;Node13 -->
<g id="edge28" class="edge">
<title>Node17&#45;&gt;Node13</title>
<path fill="none" stroke="#191970" d="M695.0846,-168.3541C711.5016,-153.9155 744.6469,-126.8012 777.5,-112 832.4684,-87.2353 902.2968,-74.9992 942.3409,-69.6248"/>
<polygon fill="#191970" stroke="#191970" points="942.8569,-73.0874 952.3308,-68.3443 941.9669,-66.1442 942.8569,-73.0874"/>
</g>
<!-- Node18 -->
<g id="node19" class="node">
<title>Node18</title>
<g id="a_node19"><a xlink:href="MatrixFixSize_8h.html" target="_top" xlink:title="iDynTree/Core/MatrixFixSize.h">
<polygon fill="none" stroke="#000000" points="564,-112.5 564,-131.5 725,-131.5 725,-112.5 564,-112.5"/>
<text text-anchor="middle" x="644.5" y="-119.5" font-family="FreeSans.ttf" font-size="10.00" fill="#000000">iDynTree/Core/MatrixFixSize.h</text>
</a>
</g>
</g>
<!-- Node17&#45;&gt;Node18 -->
<g id="edge21" class="edge">
<title>Node17&#45;&gt;Node18</title>
<path fill="none" stroke="#191970" d="M677.5325,-168.2455C671.9689,-160.4564 664.022,-149.3308 657.3171,-139.9439"/>
<polygon fill="#191970" stroke="#191970" points="660.0481,-137.7457 651.3876,-131.6427 654.352,-141.8144 660.0481,-137.7457"/>
</g>
<!-- Node18&#45;&gt;Node2 -->
<g id="edge22" class="edge">
<title>Node18&#45;&gt;Node2</title>
<path fill="none" stroke="#191970" d="M629.1716,-112.2455C615.6697,-103.6534 595.7878,-91.0014 580.2314,-81.1018"/>
<polygon fill="#191970" stroke="#191970" points="581.9685,-78.0587 571.6528,-75.6427 578.2103,-83.9643 581.9685,-78.0587"/>
</g>
<!-- Node18&#45;&gt;Node5 -->
<g id="edge23" class="edge">
<title>Node18&#45;&gt;Node5</title>
<path fill="none" stroke="#191970" d="M704.6681,-112.4152C747.4875,-102.9039 793.792,-85.4049 771.5,-56 756.0777,-35.6567 686.8585,-21.8299 643.4239,-14.9833"/>
<polygon fill="#191970" stroke="#191970" points="643.9293,-11.52 633.5157,-13.4715 642.8733,-18.4399 643.9293,-11.52"/>
</g>
<!-- Node18&#45;&gt;Node13 -->
<g id="edge25" class="edge">
<title>Node18&#45;&gt;Node13</title>
<path fill="none" stroke="#191970" d="M700.8541,-112.4369C770.3759,-100.6392 886.2219,-80.9805 942.2276,-71.4765"/>
<polygon fill="#191970" stroke="#191970" points="943.0086,-74.8941 952.282,-69.7703 941.8374,-67.9928 943.0086,-74.8941"/>
</g>
<!-- Node18&#45;&gt;Node14 -->
<g id="edge27" class="edge">
<title>Node18&#45;&gt;Node14</title>
<path fill="none" stroke="#191970" d="M611.1502,-112.3733C577.1326,-102.5537 524.416,-87.3366 488.7309,-77.0357"/>
<polygon fill="#191970" stroke="#191970" points="489.2739,-73.5496 478.6955,-74.1389 487.3325,-80.275 489.2739,-73.5496"/>
</g>
<!-- Node18&#45;&gt;Node15 -->
<g id="edge24" class="edge">
<title>Node18&#45;&gt;Node15</title>
<path fill="none" stroke="#191970" d="M647.1128,-112.2455C649.0916,-104.8579 651.8744,-94.4689 654.3012,-85.4087"/>
<polygon fill="#191970" stroke="#191970" points="657.7105,-86.2078 656.9171,-75.6427 650.9489,-84.3966 657.7105,-86.2078"/>
</g>
<!-- Node19 -->
<g id="node20" class="node">
<title>Node19</title>
<polygon fill="none" stroke="#bfbfbf" points="702.5,-56.5 702.5,-75.5 762.5,-75.5 762.5,-56.5 702.5,-56.5"/>
<text text-anchor="middle" x="732.5" y="-63.5" font-family="FreeSans.ttf" font-size="10.00" fill="#000000">iostream</text>
</g>
<!-- Node18&#45;&gt;Node19 -->
<g id="edge26" class="edge">
<title>Node18&#45;&gt;Node19</title>
<path fill="none" stroke="#191970" d="M659.8284,-112.2455C673.3303,-103.6534 693.2122,-91.0014 708.7686,-81.1018"/>
<polygon fill="#191970" stroke="#191970" points="710.7897,-83.9643 717.3472,-75.6427 707.0315,-78.0587 710.7897,-83.9643"/>
</g>
<!-- Node20&#45;&gt;Node13 -->
<g id="edge30" class="edge">
<title>Node20&#45;&gt;Node13</title>
<path fill="none" stroke="#191970" d="M924.1254,-112.2455C933.0473,-104.0549 945.988,-92.1749 956.5192,-82.5069"/>
<polygon fill="#191970" stroke="#191970" points="958.9968,-84.9837 963.9964,-75.6427 954.2629,-79.8271 958.9968,-84.9837"/>
</g>
<!-- Node21&#45;&gt;Node13 -->
<g id="edge45" class="edge">
<title>Node21&#45;&gt;Node13</title>
<path fill="none" stroke="#191970" d="M921.0248,-336.4795C1001.4249,-319.8694 1149.5,-282.6715 1149.5,-234 1149.5,-234 1149.5,-234 1149.5,-178 1149.5,-110.9846 1057.332,-82.251 1006.7729,-71.5304"/>
<polygon fill="#191970" stroke="#191970" points="1007.1561,-68.0378 996.6639,-69.5089 1005.7834,-74.9019 1007.1561,-68.0378"/>
</g>
<!-- Node21&#45;&gt;Node16 -->
<g id="edge41" class="edge">
<title>Node21&#45;&gt;Node16</title>
<path fill="none" stroke="#191970" d="M854.8322,-336.4876C841.845,-328.0555 823.4758,-314.8077 810.5,-300 798.0187,-285.7566 787.6083,-266.7905 780.8587,-252.8454"/>
<polygon fill="#191970" stroke="#191970" points="784.0043,-251.3092 776.6136,-243.7179 777.6572,-254.2612 784.0043,-251.3092"/>
</g>
<!-- Node21&#45;&gt;Node18 -->
<g id="edge44" class="edge">
<title>Node21&#45;&gt;Node18</title>
<path fill="none" stroke="#191970" d="M830.1777,-336.439C767.1283,-319.07 647.1793,-275.7253 596.5,-188 586.0589,-169.9265 603.5308,-150.7976 620.2473,-137.8133"/>
<polygon fill="#191970" stroke="#191970" points="622.7359,-140.3315 628.7682,-131.6216 618.621,-134.6686 622.7359,-140.3315"/>
</g>
<!-- Node22 -->
<g id="node23" class="node">
<title>Node22</title>
<g id="a_node23"><a xlink:href="Position_8h.html" target="_top" xlink:title="iDynTree/Core/Position.h">
<polygon fill="none" stroke="#000000" points="819.5,-280.5 819.5,-299.5 955.5,-299.5 955.5,-280.5 819.5,-280.5"/>
<text text-anchor="middle" x="887.5" y="-287.5" font-family="FreeSans.ttf" font-size="10.00" fill="#000000">iDynTree/Core/Position.h</text>
</a>
</g>
</g>
<!-- Node21&#45;&gt;Node22 -->
<g id="edge33" class="edge">
<title>Node21&#45;&gt;Node22</title>
<path fill="none" stroke="#191970" d="M873.4612,-336.2455C875.7038,-328.8579 878.8577,-318.4689 881.6081,-309.4087"/>
<polygon fill="#191970" stroke="#191970" points="885.017,-310.2282 884.5728,-299.6427 878.3188,-308.1948 885.017,-310.2282"/>
</g>
<!-- Node25 -->
<g id="node26" class="node">
<title>Node25</title>
<g id="a_node26"><a xlink:href="TransformSemantics_8h.html" target="_top" xlink:title="iDynTree/Core/TransformSemantics.h">
<polygon fill="none" stroke="#000000" points="1178,-280.5 1178,-299.5 1375,-299.5 1375,-280.5 1178,-280.5"/>
<text text-anchor="middle" x="1276.5" y="-287.5" font-family="FreeSans.ttf" font-size="10.00" fill="#000000">iDynTree/Core/TransformSemantics.h</text>
</a>
</g>
</g>
<!-- Node21&#45;&gt;Node25 -->
<g id="edge42" class="edge">
<title>Node21&#45;&gt;Node25</title>
<path fill="none" stroke="#191970" d="M939.8326,-336.4369C1011.214,-326.5912 1122.2892,-311.2705 1197.1399,-300.9462"/>
<polygon fill="#191970" stroke="#191970" points="1198.0254,-304.3573 1207.4534,-299.5237 1197.0689,-297.423 1198.0254,-304.3573"/>
</g>
<!-- Node22&#45;&gt;Node13 -->
<g id="edge40" class="edge">
<title>Node22&#45;&gt;Node13</title>
<path fill="none" stroke="#191970" d="M955.5711,-283.7921C1008.4106,-277.3981 1075.4613,-265.2857 1092.5,-244 1119.3526,-210.4542 1150.0574,-232.9478 1049.5,-112 1037.8845,-98.0292 1020.8718,-87.1104 1005.9848,-79.4235"/>
<polygon fill="#191970" stroke="#191970" points="1007.1091,-76.0778 996.587,-74.8392 1004.0402,-82.3692 1007.1091,-76.0778"/>
</g>
<!-- Node22&#45;&gt;Node16 -->
<g id="edge39" class="edge">
<title>Node22&#45;&gt;Node16</title>
<path fill="none" stroke="#191970" d="M867.7308,-280.3733C849.3531,-271.4241 821.7688,-257.9917 801.0107,-247.8835"/>
<polygon fill="#191970" stroke="#191970" points="802.5343,-244.7325 792.0112,-243.5011 799.4696,-251.026 802.5343,-244.7325"/>
</g>
<!-- Node23 -->
<g id="node24" class="node">
<title>Node23</title>
<g id="a_node24"><a xlink:href="PositionRaw_8h.html" target="_top" xlink:title="iDynTree/Core/PositionRaw.h">
<polygon fill="none" stroke="#000000" points="857.5,-168.5 857.5,-187.5 1013.5,-187.5 1013.5,-168.5 857.5,-168.5"/>
<text text-anchor="middle" x="935.5" y="-175.5" font-family="FreeSans.ttf" font-size="10.00" fill="#000000">iDynTree/Core/PositionRaw.h</text>
</a>
</g>
</g>
<!-- Node22&#45;&gt;Node23 -->
<g id="edge34" class="edge">
<title>Node22&#45;&gt;Node23</title>
<path fill="none" stroke="#191970" d="M885.1811,-280.1265C882.553,-266.7881 879.5848,-242.5484 887.5,-224 892.6156,-212.0122 902.5575,-201.6498 912.0727,-193.8114"/>
<polygon fill="#191970" stroke="#191970" points="914.3797,-196.4532 920.1926,-187.5954 910.1246,-190.8949 914.3797,-196.4532"/>
</g>
<!-- Node24 -->
<g id="node25" class="node">
<title>Node24</title>
<g id="a_node25"><a xlink:href="PositionSemantics_8h.html" target="_top" xlink:title="iDynTree/Core/PositionSemantics.h">
<polygon fill="none" stroke="#000000" points="897,-224.5 897,-243.5 1084,-243.5 1084,-224.5 897,-224.5"/>
<text text-anchor="middle" x="990.5" y="-231.5" font-family="FreeSans.ttf" font-size="10.00" fill="#000000">iDynTree/Core/PositionSemantics.h</text>
</a>
</g>
</g>
<!-- Node22&#45;&gt;Node24 -->
<g id="edge37" class="edge">
<title>Node22&#45;&gt;Node24</title>
<path fill="none" stroke="#191970" d="M905.4412,-280.2455C921.54,-271.4928 945.3879,-258.527 963.7391,-248.5496"/>
<polygon fill="#191970" stroke="#191970" points="965.6507,-251.4942 972.7644,-243.6427 962.3071,-245.3444 965.6507,-251.4942"/>
</g>
<!-- Node23&#45;&gt;Node1 -->
<g id="edge35" class="edge">
<title>Node23&#45;&gt;Node1</title>
<path fill="none" stroke="#191970" d="M857.3615,-168.6899C774.2518,-158.7874 642.9698,-143.1453 555.5682,-132.7315"/>
<polygon fill="#191970" stroke="#191970" points="555.7424,-129.2276 545.3986,-131.5198 554.9142,-136.1785 555.7424,-129.2276"/>
</g>
<!-- Node23&#45;&gt;Node13 -->
<g id="edge36" class="edge">
<title>Node23&#45;&gt;Node13</title>
<path fill="none" stroke="#191970" d="M968.1897,-168.4174C985.8362,-161.3899 1006.0862,-149.8899 1016.5,-132 1026.5312,-114.7674 1011.2436,-95.5936 996.3781,-82.3727"/>
<polygon fill="#191970" stroke="#191970" points="998.2567,-79.3834 988.3264,-75.6903 993.7862,-84.77 998.2567,-79.3834"/>
</g>
<!-- Node24&#45;&gt;Node13 -->
<g id="edge38" class="edge">
<title>Node24&#45;&gt;Node13</title>
<path fill="none" stroke="#191970" d="M998.9624,-224.2003C1016.1196,-203.0766 1051.7975,-151.9349 1032.5,-112 1026.2172,-98.9981 1014.2765,-88.5481 1002.8549,-80.9145"/>
<polygon fill="#191970" stroke="#191970" points="1004.6684,-77.9209 994.3241,-75.6305 1000.9823,-83.8718 1004.6684,-77.9209"/>
</g>
<!-- Node25&#45;&gt;Node13 -->
<g id="edge43" class="edge">
<title>Node25&#45;&gt;Node13</title>
<path fill="none" stroke="#191970" d="M1273.37,-280.4659C1263.0144,-250.4851 1226.8667,-157.425 1163.5,-112 1138.5573,-94.1196 1053.7636,-78.4415 1006.6771,-70.8514"/>
<polygon fill="#191970" stroke="#191970" points="1007.107,-67.376 996.6829,-69.2706 1006.0133,-74.29 1007.107,-67.376"/>
</g>
</g>
</svg>
