<?xml version="1.0" encoding="UTF-8" standalone="no"?>
<!DOCTYPE svg PUBLIC "-//W3C//DTD SVG 1.1//EN"
 "http://www.w3.org/Graphics/SVG/1.1/DTD/svg11.dtd">
<!-- Generated by graphviz version 2.40.1 (20161225.0304)
 -->
<!-- Title: Graphical Class Hierarchy Pages: 1 -->
<svg width="483pt" height="165pt"
 viewBox="0.00 0.00 483.00 164.50" xmlns="http://www.w3.org/2000/svg" xmlns:xlink="http://www.w3.org/1999/xlink">
<g id="graph0" class="graph" transform="scale(1 1) rotate(0) translate(4 160.5)">
<title>Graphical Class Hierarchy</title>
<!-- Node0 -->
<g id="node1" class="node">
<title>Node0</title>
<g id="a_node1"><a xlink:href="classiDynTree_1_1MatrixFixSize.html" target="_top" xlink:title="Class providing a simple form of matrix with dynamic size. ">
<polygon fill="none" stroke="#000000" points="0,-71.5 0,-101.5 130,-101.5 130,-71.5 0,-71.5"/>
<text text-anchor="start" x="8" y="-89.5" font-family="FreeSans.ttf" font-size="10.00" fill="#000000">iDynTree::MatrixFixSize</text>
<text text-anchor="middle" x="65" y="-78.5" font-family="FreeSans.ttf" font-size="10.00" fill="#000000">&lt; nRows, nCols &gt;</text>
</a>
</g>
</g>
<!-- Node1 -->
<g id="node2" class="node">
<title>Node1</title>
<g id="a_node2"><a xlink:href="classiDynTree_1_1RotationalInertiaRaw.html" target="_top" xlink:title="Class providing the raw coordinates for a 3d inertia matrix. ">
<polygon fill="none" stroke="#000000" points="166,-137 166,-156 333,-156 333,-137 166,-137"/>
<text text-anchor="middle" x="249.5" y="-144" font-family="FreeSans.ttf" font-size="10.00" fill="#000000">iDynTree::RotationalInertiaRaw</text>
</a>
</g>
</g>
<!-- Node0&#45;&gt;Node1 -->
<g id="edge1" class="edge">
<title>Node0&#45;&gt;Node1</title>
<path fill="none" stroke="#191970" d="M107.6902,-105.6179C125.4807,-113.1137 146.5029,-121.3688 166,-127.5 177.3459,-131.0679 189.7549,-134.2613 201.4546,-136.9659"/>
<polygon fill="#191970" stroke="#191970" points="108.7403,-102.2606 98.1693,-101.5501 105.99,-108.6976 108.7403,-102.2606"/>
</g>
<!-- Node2 -->
<g id="node3" class="node">
<title>Node2</title>
<g id="a_node3"><a xlink:href="classiDynTree_1_1RotationRaw.html" target="_top" xlink:title="Class providing the raw coordinates for iDynTree::Rotation class. ">
<polygon fill="none" stroke="#000000" points="186,-99 186,-118 313,-118 313,-99 186,-99"/>
<text text-anchor="middle" x="249.5" y="-106" font-family="FreeSans.ttf" font-size="10.00" fill="#000000">iDynTree::RotationRaw</text>
</a>
</g>
</g>
<!-- Node0&#45;&gt;Node2 -->
<g id="edge2" class="edge">
<title>Node0&#45;&gt;Node2</title>
<path fill="none" stroke="#191970" d="M140.4023,-95.4911C155.5336,-97.2953 171.2908,-99.1742 185.9703,-100.9246"/>
<polygon fill="#191970" stroke="#191970" points="140.3919,-91.9651 130.0478,-94.2564 139.563,-98.9159 140.3919,-91.9651"/>
</g>
<!-- Node4 -->
<g id="node5" class="node">
<title>Node4</title>
<g id="a_node5"><a xlink:href="classiDynTree_1_1SpatialForceWrtMotionDerivative.html" target="_top" xlink:title="Class representing the derivative of a spatial force vector with respect to a spatial motion vector...">
<polygon fill="none" stroke="#000000" points="178.5,-49.5 178.5,-79.5 320.5,-79.5 320.5,-49.5 178.5,-49.5"/>
<text text-anchor="start" x="186.5" y="-67.5" font-family="FreeSans.ttf" font-size="10.00" fill="#000000">iDynTree::SpatialForceWrt</text>
<text text-anchor="middle" x="249.5" y="-56.5" font-family="FreeSans.ttf" font-size="10.00" fill="#000000">MotionDerivative</text>
</a>
</g>
</g>
<!-- Node0&#45;&gt;Node4 -->
<g id="edge4" class="edge">
<title>Node0&#45;&gt;Node4</title>
<path fill="none" stroke="#191970" d="M140.0956,-77.5455C152.7679,-76.0344 165.8879,-74.47 178.453,-72.9717"/>
<polygon fill="#191970" stroke="#191970" points="139.563,-74.0841 130.0478,-78.7436 140.3919,-81.0349 139.563,-74.0841"/>
</g>
<!-- Node5 -->
<g id="node6" class="node">
<title>Node5</title>
<g id="a_node6"><a xlink:href="classiDynTree_1_1SpatialMotionWrtMotionDerivative.html" target="_top" xlink:title="Class representing the derivative of a spatial motion vector with respect to another spatial motion v...">
<polygon fill="none" stroke="#000000" points="175,-.5 175,-30.5 324,-30.5 324,-.5 175,-.5"/>
<text text-anchor="start" x="183" y="-18.5" font-family="FreeSans.ttf" font-size="10.00" fill="#000000">iDynTree::SpatialMotionWrt</text>
<text text-anchor="middle" x="249.5" y="-7.5" font-family="FreeSans.ttf" font-size="10.00" fill="#000000">MotionDerivative</text>
</a>
</g>
</g>
<!-- Node0&#45;&gt;Node5 -->
<g id="edge5" class="edge">
<title>Node0&#45;&gt;Node5</title>
<path fill="none" stroke="#191970" d="M104.7181,-66.8925C123.1157,-58.2056 145.4165,-48.2275 166,-40.5 175.3501,-36.9898 185.4291,-33.6278 195.2397,-30.571"/>
<polygon fill="#191970" stroke="#191970" points="103.0011,-63.8337 95.4829,-71.2988 106.0155,-70.1514 103.0011,-63.8337"/>
</g>
<!-- Node3 -->
<g id="node4" class="node">
<title>Node3</title>
<g id="a_node4"><a xlink:href="classiDynTree_1_1Rotation.html" target="_top" xlink:title="Class representation the rotation of an orientation frame with respect to a reference orientation fra...">
<polygon fill="none" stroke="#000000" points="369,-99 369,-118 475,-118 475,-99 369,-99"/>
<text text-anchor="middle" x="422" y="-106" font-family="FreeSans.ttf" font-size="10.00" fill="#000000">iDynTree::Rotation</text>
</a>
</g>
</g>
<!-- Node2&#45;&gt;Node3 -->
<g id="edge3" class="edge">
<title>Node2&#45;&gt;Node3</title>
<path fill="none" stroke="#191970" d="M323.2443,-108.5C338.6151,-108.5 354.5272,-108.5 368.9719,-108.5"/>
<polygon fill="#191970" stroke="#191970" points="323.2426,-105.0001 313.2425,-108.5 323.2425,-112.0001 323.2426,-105.0001"/>
</g>
</g>
</svg>
