<?xml version="1.0" encoding="UTF-8" standalone="no"?>
<!DOCTYPE svg PUBLIC "-//W3C//DTD SVG 1.1//EN"
 "http://www.w3.org/Graphics/SVG/1.1/DTD/svg11.dtd">
<!-- Generated by graphviz version 2.40.1 (20161225.0304)
 -->
<!-- Title: Graphical Class Hierarchy Pages: 1 -->
<svg width="288pt" height="182pt"
 viewBox="0.00 0.00 288.00 182.00" xmlns="http://www.w3.org/2000/svg" xmlns:xlink="http://www.w3.org/1999/xlink">
<g id="graph0" class="graph" transform="scale(1 1) rotate(0) translate(4 178)">
<title>Graphical Class Hierarchy</title>
<!-- Node38 -->
<g id="node1" class="node">
<title>Node38</title>
<polygon fill="none" stroke="#bfbfbf" points="0,-77.5 0,-96.5 63,-96.5 63,-77.5 0,-77.5"/>
<text text-anchor="middle" x="31.5" y="-84.5" font-family="FreeSans.ttf" font-size="10.00" fill="#000000">true_type</text>
</g>
<!-- Node0 -->
<g id="node2" class="node">
<title>Node0</title>
<g id="a_node2"><a xlink:href="structiDynTree_1_1details_1_1is__span__oracle_3_01iDynTree_1_1Span_3_01ElementType_00_01Extent_01_4_01_4.html" target="_top" xlink:title="iDynTree::details::\lis_span_oracle\&lt; iDynTree\l::Span\&lt; ElementType, Extent \&gt; \&gt;">
<polygon fill="none" stroke="#000000" points="99,-132.5 99,-173.5 280,-173.5 280,-132.5 99,-132.5"/>
<text text-anchor="start" x="107" y="-161.5" font-family="FreeSans.ttf" font-size="10.00" fill="#000000">iDynTree::details::</text>
<text text-anchor="start" x="107" y="-150.5" font-family="FreeSans.ttf" font-size="10.00" fill="#000000">is_span_oracle&lt; iDynTree</text>
<text text-anchor="middle" x="189.5" y="-139.5" font-family="FreeSans.ttf" font-size="10.00" fill="#000000">::Span&lt; ElementType, Extent &gt; &gt;</text>
</a>
</g>
</g>
<!-- Node38&#45;&gt;Node0 -->
<g id="edge1" class="edge">
<title>Node38&#45;&gt;Node0</title>
<path fill="none" stroke="#191970" d="M56.4074,-101.5916C68.937,-108.5922 84.5065,-116.7862 99,-123 106.7588,-126.3264 115.018,-129.5181 123.2702,-132.4967"/>
<polygon fill="#191970" stroke="#191970" points="57.9103,-98.4201 47.4867,-96.5233 54.4524,-104.5064 57.9103,-98.4201"/>
</g>
<!-- Node40 -->
<g id="node3" class="node">
<title>Node40</title>
<g id="a_node3"><a xlink:href="structiDynTree_1_1details_1_1is__std__array__oracle_3_01std_1_1array_3_01ElementType_00_01Extent_01_4_01_4.html" target="_top" xlink:title="iDynTree::details::\lis_std_array_oracle\l\&lt; std::array\&lt; ElementType,\l Extent \&gt; \&gt;">
<polygon fill="none" stroke="#000000" points="113.5,-61 113.5,-113 265.5,-113 265.5,-61 113.5,-61"/>
<text text-anchor="start" x="121.5" y="-101" font-family="FreeSans.ttf" font-size="10.00" fill="#000000">iDynTree::details::</text>
<text text-anchor="start" x="121.5" y="-90" font-family="FreeSans.ttf" font-size="10.00" fill="#000000">is_std_array_oracle</text>
<text text-anchor="start" x="121.5" y="-79" font-family="FreeSans.ttf" font-size="10.00" fill="#000000">&lt; std::array&lt; ElementType,</text>
<text text-anchor="middle" x="189.5" y="-68" font-family="FreeSans.ttf" font-size="10.00" fill="#000000"> Extent &gt; &gt;</text>
</a>
</g>
</g>
<!-- Node38&#45;&gt;Node40 -->
<g id="edge2" class="edge">
<title>Node38&#45;&gt;Node40</title>
<path fill="none" stroke="#191970" d="M73.4279,-87C85.6854,-87 99.4827,-87 113.1729,-87"/>
<polygon fill="#191970" stroke="#191970" points="73.094,-83.5001 63.0939,-87 73.0939,-90.5001 73.094,-83.5001"/>
</g>
<!-- Node41 -->
<g id="node4" class="node">
<title>Node41</title>
<g id="a_node4"><a xlink:href="structinternal_1_1kinematics_1_1is__matrixfixsize_3_01iDynTree_1_1MatrixFixSize_3_01row_00_01col_01_4_01_4.html" target="_top" xlink:title="internal::kinematics\l::is_matrixfixsize\&lt; iDynTree\l::MatrixFixSize\&lt; row, col \&gt; \&gt;">
<polygon fill="none" stroke="#000000" points="110,-.5 110,-41.5 269,-41.5 269,-.5 110,-.5"/>
<text text-anchor="start" x="118" y="-29.5" font-family="FreeSans.ttf" font-size="10.00" fill="#000000">internal::kinematics</text>
<text text-anchor="start" x="118" y="-18.5" font-family="FreeSans.ttf" font-size="10.00" fill="#000000">::is_matrixfixsize&lt; iDynTree</text>
<text text-anchor="middle" x="189.5" y="-7.5" font-family="FreeSans.ttf" font-size="10.00" fill="#000000">::MatrixFixSize&lt; row, col &gt; &gt;</text>
</a>
</g>
</g>
<!-- Node38&#45;&gt;Node41 -->
<g id="edge3" class="edge">
<title>Node38&#45;&gt;Node41</title>
<path fill="none" stroke="#191970" d="M57.2405,-72.5086C69.6522,-65.8187 84.8796,-58.0398 99,-52 107.5511,-48.3424 116.6916,-44.8016 125.7546,-41.5015"/>
<polygon fill="#191970" stroke="#191970" points="55.4561,-69.4952 48.3629,-77.3652 58.8158,-75.6363 55.4561,-69.4952"/>
</g>
</g>
</svg>
