<?xml version="1.0" encoding="UTF-8" standalone="no"?>
<!DOCTYPE svg PUBLIC "-//W3C//DTD SVG 1.1//EN"
 "http://www.w3.org/Graphics/SVG/1.1/DTD/svg11.dtd">
<!-- Generated by graphviz version 2.40.1 (20161225.0304)
 -->
<!-- Title: Graphical Class Hierarchy Pages: 1 -->
<svg width="402pt" height="66pt"
 viewBox="0.00 0.00 402.00 66.00" xmlns="http://www.w3.org/2000/svg" xmlns:xlink="http://www.w3.org/1999/xlink">
<g id="graph0" class="graph" transform="scale(1 1) rotate(0) translate(4 62)">
<title>Graphical Class Hierarchy</title>
<!-- Node0 -->
<g id="node1" class="node">
<title>Node0</title>
<g id="a_node1"><a xlink:href="classiDynTree_1_1IModelVisualization.html" target="_top" xlink:title="Interface to the visualization of a model istance. ">
<polygon fill="none" stroke="#000000" points="0,-19.5 0,-38.5 161,-38.5 161,-19.5 0,-19.5"/>
<text text-anchor="middle" x="80.5" y="-26.5" font-family="FreeSans.ttf" font-size="10.00" fill="#000000">iDynTree::IModelVisualization</text>
</a>
</g>
</g>
<!-- Node1 -->
<g id="node2" class="node">
<title>Node1</title>
<g id="a_node2"><a xlink:href="classiDynTree_1_1DummyModelVisualization.html" target="_top" xlink:title="Dummy model visualization. ">
<polygon fill="none" stroke="#000000" points="197,-38.5 197,-57.5 394,-57.5 394,-38.5 197,-38.5"/>
<text text-anchor="middle" x="295.5" y="-45.5" font-family="FreeSans.ttf" font-size="10.00" fill="#000000">iDynTree::DummyModelVisualization</text>
</a>
</g>
</g>
<!-- Node0&#45;&gt;Node1 -->
<g id="edge1" class="edge">
<title>Node0&#45;&gt;Node1</title>
<path fill="none" stroke="#191970" d="M171.3946,-37.0325C179.8461,-37.7794 188.438,-38.5387 196.9543,-39.2913"/>
<polygon fill="#191970" stroke="#191970" points="171.4391,-33.5229 161.1698,-36.129 170.8228,-40.4957 171.4391,-33.5229"/>
</g>
<!-- Node2 -->
<g id="node3" class="node">
<title>Node2</title>
<g id="a_node3"><a xlink:href="classiDynTree_1_1ModelVisualization.html" target="_top" xlink:title="iDynTree::ModelVisualization">
<polygon fill="none" stroke="#000000" points="216.5,-.5 216.5,-19.5 374.5,-19.5 374.5,-.5 216.5,-.5"/>
<text text-anchor="middle" x="295.5" y="-7.5" font-family="FreeSans.ttf" font-size="10.00" fill="#000000">iDynTree::ModelVisualization</text>
</a>
</g>
</g>
<!-- Node0&#45;&gt;Node2 -->
<g id="edge2" class="edge">
<title>Node0&#45;&gt;Node2</title>
<path fill="none" stroke="#191970" d="M171.3889,-20.968C186.2714,-19.6528 201.589,-18.2991 216.1636,-17.0111"/>
<polygon fill="#191970" stroke="#191970" points="170.8228,-17.5043 161.1698,-21.871 171.4391,-24.4771 170.8228,-17.5043"/>
</g>
</g>
</svg>
