<?xml version="1.0" encoding="UTF-8" standalone="no"?>
<!DOCTYPE svg PUBLIC "-//W3C//DTD SVG 1.1//EN"
 "http://www.w3.org/Graphics/SVG/1.1/DTD/svg11.dtd">
<!-- Generated by graphviz version 2.40.1 (20161225.0304)
 -->
<!-- Title: Graphical Class Hierarchy Pages: 1 -->
<svg width="327pt" height="88pt"
 viewBox="0.00 0.00 327.00 88.00" xmlns="http://www.w3.org/2000/svg" xmlns:xlink="http://www.w3.org/1999/xlink">
<g id="graph0" class="graph" transform="scale(1 1) rotate(0) translate(4 84)">
<title>Graphical Class Hierarchy</title>
<!-- Node0 -->
<g id="node1" class="node">
<title>Node0</title>
<g id="a_node1"><a xlink:href="classiDynTree_1_1VectorDynSize.html" target="_top" xlink:title="Class providing a simple form of vector with dynamic size. ">
<polygon fill="none" stroke="#000000" points="0,-30 0,-49 136,-49 136,-30 0,-30"/>
<text text-anchor="middle" x="68" y="-37" font-family="FreeSans.ttf" font-size="10.00" fill="#000000">iDynTree::VectorDynSize</text>
</a>
</g>
</g>
<!-- Node1 -->
<g id="node2" class="node">
<title>Node1</title>
<g id="a_node2"><a xlink:href="classiDynTree_1_1JointDOFsDoubleArray.html" target="_top" xlink:title="Class for storing a vector of scalar values, one for each internal coordinate in a model...">
<polygon fill="none" stroke="#000000" points="172,-49.5 172,-79.5 319,-79.5 319,-49.5 172,-49.5"/>
<text text-anchor="start" x="180" y="-67.5" font-family="FreeSans.ttf" font-size="10.00" fill="#000000">iDynTree::JointDOFsDouble</text>
<text text-anchor="middle" x="245.5" y="-56.5" font-family="FreeSans.ttf" font-size="10.00" fill="#000000">Array</text>
</a>
</g>
</g>
<!-- Node0&#45;&gt;Node1 -->
<g id="edge1" class="edge">
<title>Node0&#45;&gt;Node1</title>
<path fill="none" stroke="#191970" d="M145.7202,-50.4465C154.4047,-51.6697 163.2322,-52.913 171.8633,-54.1286"/>
<polygon fill="#191970" stroke="#191970" points="146.0019,-46.9517 135.6115,-49.0227 145.0256,-53.8833 146.0019,-46.9517"/>
</g>
<!-- Node2 -->
<g id="node3" class="node">
<title>Node2</title>
<g id="a_node3"><a xlink:href="classiDynTree_1_1JointPosDoubleArray.html" target="_top" xlink:title="Class for storing a vector of scalar values, one for each internal position coordinate in a model...">
<polygon fill="none" stroke="#000000" points="176,-.5 176,-30.5 315,-30.5 315,-.5 176,-.5"/>
<text text-anchor="start" x="184" y="-18.5" font-family="FreeSans.ttf" font-size="10.00" fill="#000000">iDynTree::JointPosDouble</text>
<text text-anchor="middle" x="245.5" y="-7.5" font-family="FreeSans.ttf" font-size="10.00" fill="#000000">Array</text>
</a>
</g>
</g>
<!-- Node0&#45;&gt;Node2 -->
<g id="edge2" class="edge">
<title>Node0&#45;&gt;Node2</title>
<path fill="none" stroke="#191970" d="M146.2795,-28.9157C156.1101,-27.5865 166.1144,-26.2338 175.8011,-24.9241"/>
<polygon fill="#191970" stroke="#191970" points="145.5593,-25.4812 136.1185,-30.2896 146.4973,-32.418 145.5593,-25.4812"/>
</g>
</g>
</svg>
