<?xml version="1.0" encoding="UTF-8" standalone="no"?>
<!DOCTYPE svg PUBLIC "-//W3C//DTD SVG 1.1//EN"
 "http://www.w3.org/Graphics/SVG/1.1/DTD/svg11.dtd">
<!-- Generated by graphviz version 2.40.1 (20161225.0304)
 -->
<!-- Title: Graphical Class Hierarchy Pages: 1 -->
<svg width="440pt" height="104pt"
 viewBox="0.00 0.00 440.00 104.00" xmlns="http://www.w3.org/2000/svg" xmlns:xlink="http://www.w3.org/1999/xlink">
<g id="graph0" class="graph" transform="scale(1 1) rotate(0) translate(4 100)">
<title>Graphical Class Hierarchy</title>
<!-- Node0 -->
<g id="node1" class="node">
<title>Node0</title>
<g id="a_node1"><a xlink:href="classiDynTree_1_1VectorFixSize.html" target="_top" xlink:title="Class providing a simple vector of N elements. ">
<polygon fill="none" stroke="#000000" points="0,-33 0,-63 130,-63 130,-33 0,-33"/>
<text text-anchor="start" x="8" y="-51" font-family="FreeSans.ttf" font-size="10.00" fill="#000000">iDynTree::VectorFixSize</text>
<text text-anchor="middle" x="65" y="-40" font-family="FreeSans.ttf" font-size="10.00" fill="#000000">&lt; VecSize &gt;</text>
</a>
</g>
</g>
<!-- Node1 -->
<g id="node2" class="node">
<title>Node1</title>
<g id="a_node2"><a xlink:href="classiDynTree_1_1ClassicalAcc.html" target="_top" xlink:title="Class representing a classical 6D acceleration, i.e. ">
<polygon fill="none" stroke="#000000" points="166,-76.5 166,-95.5 292,-95.5 292,-76.5 166,-76.5"/>
<text text-anchor="middle" x="229" y="-83.5" font-family="FreeSans.ttf" font-size="10.00" fill="#000000">iDynTree::ClassicalAcc</text>
</a>
</g>
</g>
<!-- Node0&#45;&gt;Node1 -->
<g id="edge1" class="edge">
<title>Node0&#45;&gt;Node1</title>
<path fill="none" stroke="#191970" d="M139.9779,-65.3729C156.4136,-69.1812 173.2283,-73.0773 187.7548,-76.4432"/>
<polygon fill="#191970" stroke="#191970" points="140.3491,-61.8663 129.8171,-63.0186 138.769,-68.6856 140.3491,-61.8663"/>
</g>
<!-- Node2 -->
<g id="node3" class="node">
<title>Node2</title>
<g id="a_node3"><a xlink:href="classiDynTree_1_1Direction.html" target="_top" xlink:title="Class representing the coordinates of a direction in the 3D space. ">
<polygon fill="none" stroke="#000000" points="174,-38.5 174,-57.5 284,-57.5 284,-38.5 174,-38.5"/>
<text text-anchor="middle" x="229" y="-45.5" font-family="FreeSans.ttf" font-size="10.00" fill="#000000">iDynTree::Direction</text>
</a>
</g>
</g>
<!-- Node0&#45;&gt;Node2 -->
<g id="edge2" class="edge">
<title>Node0&#45;&gt;Node2</title>
<path fill="none" stroke="#191970" d="M140.558,-48C151.817,-48 163.2391,-48 173.968,-48"/>
<polygon fill="#191970" stroke="#191970" points="140.2884,-44.5001 130.2884,-48 140.2883,-51.5001 140.2884,-44.5001"/>
</g>
<!-- Node3 -->
<g id="node4" class="node">
<title>Node3</title>
<g id="a_node4"><a xlink:href="classiDynTree_1_1PositionRaw.html" target="_top" xlink:title="Class providing the raw coordinates for iDynTree::Position class. ">
<polygon fill="none" stroke="#000000" points="166.5,-.5 166.5,-19.5 291.5,-19.5 291.5,-.5 166.5,-.5"/>
<text text-anchor="middle" x="229" y="-7.5" font-family="FreeSans.ttf" font-size="10.00" fill="#000000">iDynTree::PositionRaw</text>
</a>
</g>
</g>
<!-- Node0&#45;&gt;Node3 -->
<g id="edge3" class="edge">
<title>Node0&#45;&gt;Node3</title>
<path fill="none" stroke="#191970" d="M139.9779,-30.6271C156.4136,-26.8188 173.2283,-22.9227 187.7548,-19.5568"/>
<polygon fill="#191970" stroke="#191970" points="138.769,-27.3144 129.8171,-32.9814 140.3491,-34.1337 138.769,-27.3144"/>
</g>
<!-- Node4 -->
<g id="node5" class="node">
<title>Node4</title>
<g id="a_node5"><a xlink:href="classiDynTree_1_1Position.html" target="_top" xlink:title="Class representation the coordinates of the Position of a point with respect to another point...">
<polygon fill="none" stroke="#000000" points="328,-.5 328,-19.5 432,-19.5 432,-.5 328,-.5"/>
<text text-anchor="middle" x="380" y="-7.5" font-family="FreeSans.ttf" font-size="10.00" fill="#000000">iDynTree::Position</text>
</a>
</g>
</g>
<!-- Node3&#45;&gt;Node4 -->
<g id="edge4" class="edge">
<title>Node3&#45;&gt;Node4</title>
<path fill="none" stroke="#191970" d="M301.9214,-10C310.6485,-10 319.4215,-10 327.7733,-10"/>
<polygon fill="#191970" stroke="#191970" points="301.7258,-6.5001 291.7258,-10 301.7257,-13.5001 301.7258,-6.5001"/>
</g>
</g>
</svg>
