<?xml version="1.0" encoding="UTF-8" standalone="no"?>
<!DOCTYPE svg PUBLIC "-//W3C//DTD SVG 1.1//EN"
 "http://www.w3.org/Graphics/SVG/1.1/DTD/svg11.dtd">
<!-- Generated by graphviz version 2.40.1 (20161225.0304)
 -->
<!-- Title: InverseKinematicsData.cpp Pages: 1 -->
<svg width="2844pt" height="621pt"
 viewBox="0.00 0.00 2844.09 621.00" xmlns="http://www.w3.org/2000/svg" xmlns:xlink="http://www.w3.org/1999/xlink">
<g id="graph0" class="graph" transform="scale(1 1) rotate(0) translate(4 617)">
<title>InverseKinematicsData.cpp</title>
<!-- Node0 -->
<g id="node1" class="node">
<title>Node0</title>
<polygon fill="#bfbfbf" stroke="#000000" points="531.5,-593.5 531.5,-612.5 682.5,-612.5 682.5,-593.5 531.5,-593.5"/>
<text text-anchor="middle" x="607" y="-600.5" font-family="FreeSans.ttf" font-size="10.00" fill="#000000">InverseKinematicsData.cpp</text>
</g>
<!-- Node1 -->
<g id="node2" class="node">
<title>Node1</title>
<g id="a_node2"><a xlink:href="InverseKinematicsData_8h.html" target="_top" xlink:title="InverseKinematicsData.h">
<polygon fill="none" stroke="#000000" points="1063,-481.5 1063,-500.5 1203,-500.5 1203,-481.5 1063,-481.5"/>
<text text-anchor="middle" x="1133" y="-488.5" font-family="FreeSans.ttf" font-size="10.00" fill="#000000">InverseKinematicsData.h</text>
</a>
</g>
</g>
<!-- Node0&#45;&gt;Node1 -->
<g id="edge1" class="edge">
<title>Node0&#45;&gt;Node1</title>
<path fill="none" stroke="#191970" d="M651.8465,-593.4509C748.0201,-572.9729 973.8148,-524.8949 1078.2473,-502.6584"/>
<polygon fill="#191970" stroke="#191970" points="1079.2152,-506.0308 1088.267,-500.5249 1077.7574,-499.1843 1079.2152,-506.0308"/>
</g>
<!-- Node2 -->
<g id="node3" class="node">
<title>Node2</title>
<g id="a_node3"><a xlink:href="InverseKinematicsNLP_8h.html" target="_top" xlink:title="InverseKinematicsNLP.h">
<polygon fill="none" stroke="#000000" points="696,-364 696,-383 830,-383 830,-364 696,-364"/>
<text text-anchor="middle" x="763" y="-371" font-family="FreeSans.ttf" font-size="10.00" fill="#000000">InverseKinematicsNLP.h</text>
</a>
</g>
</g>
<!-- Node0&#45;&gt;Node2 -->
<g id="edge98" class="edge">
<title>Node0&#45;&gt;Node2</title>
<path fill="none" stroke="#191970" d="M611.5946,-593.1816C624.8526,-565.3473 665.1666,-484.1166 711,-425 720.9262,-412.1971 733.8636,-399.3725 744.3506,-389.7235"/>
<polygon fill="#191970" stroke="#191970" points="746.7106,-392.3083 751.8019,-383.0169 742.0277,-387.1053 746.7106,-392.3083"/>
</g>
<!-- Node8 -->
<g id="node9" class="node">
<title>Node8</title>
<polygon fill="none" stroke="#bfbfbf" points="595,-.5 595,-19.5 647,-19.5 647,-.5 595,-.5"/>
<text text-anchor="middle" x="621" y="-7.5" font-family="FreeSans.ttf" font-size="10.00" fill="#000000">cassert</text>
</g>
<!-- Node0&#45;&gt;Node8 -->
<g id="edge133" class="edge">
<title>Node0&#45;&gt;Node8</title>
<path fill="none" stroke="#191970" d="M531.4661,-599.9397C390.1426,-593.7423 96.245,-578.4516 55,-557 21.1244,-539.3812 0,-529.1834 0,-491 0,-491 0,-491 0,-122 0,-62.2019 451.7176,-22.9358 584.6314,-12.6763"/>
<polygon fill="#191970" stroke="#191970" points="585.0085,-16.1578 594.7131,-11.9068 584.4756,-9.1781 585.0085,-16.1578"/>
</g>
<!-- Node21 -->
<g id="node15" class="node">
<title>Node21</title>
<g id="a_node15"><a xlink:href="Twist_8h.html" target="_top" xlink:title="iDynTree/Core/Twist.h">
<polygon fill="none" stroke="#000000" points="352,-302.5 352,-321.5 474,-321.5 474,-302.5 352,-302.5"/>
<text text-anchor="middle" x="413" y="-309.5" font-family="FreeSans.ttf" font-size="10.00" fill="#000000">iDynTree/Core/Twist.h</text>
</a>
</g>
</g>
<!-- Node0&#45;&gt;Node21 -->
<g id="edge107" class="edge">
<title>Node0&#45;&gt;Node21</title>
<path fill="none" stroke="#191970" d="M573.3696,-593.4248C530.5352,-578.9271 462,-546.9834 462,-491 462,-491 462,-491 462,-435 462,-395.4026 439.8122,-353.4006 425.2976,-330.1603"/>
<polygon fill="#191970" stroke="#191970" points="428.1821,-328.1753 419.8132,-321.6781 422.3038,-331.9761 428.1821,-328.1753"/>
</g>
<!-- Node50 -->
<g id="node34" class="node">
<title>Node50</title>
<g id="a_node34"><a xlink:href="SpatialAcc_8h.html" target="_top" xlink:title="iDynTree/Core/SpatialAcc.h">
<polygon fill="none" stroke="#000000" points="492,-302.5 492,-321.5 640,-321.5 640,-302.5 492,-302.5"/>
<text text-anchor="middle" x="566" y="-309.5" font-family="FreeSans.ttf" font-size="10.00" fill="#000000">iDynTree/Core/SpatialAcc.h</text>
</a>
</g>
</g>
<!-- Node0&#45;&gt;Node50 -->
<g id="edge110" class="edge">
<title>Node0&#45;&gt;Node50</title>
<path fill="none" stroke="#191970" d="M604.1965,-593.2066C598.9113,-573.8521 588,-529.2612 588,-491 588,-491 588,-491 588,-435 588,-397.9405 578.2028,-355.5675 571.6843,-331.4763"/>
<polygon fill="#191970" stroke="#191970" points="575.0354,-330.4634 568.967,-321.7786 568.295,-332.3521 575.0354,-330.4634"/>
</g>
<!-- Node68 -->
<g id="node42" class="node">
<title>Node68</title>
<g id="a_node42"><a xlink:href="TransformConstraint_8h.html" target="_top" xlink:title="TransformConstraint.h">
<polygon fill="none" stroke="#000000" points="1544.5,-481.5 1544.5,-500.5 1669.5,-500.5 1669.5,-481.5 1544.5,-481.5"/>
<text text-anchor="middle" x="1607" y="-488.5" font-family="FreeSans.ttf" font-size="10.00" fill="#000000">TransformConstraint.h</text>
</a>
</g>
</g>
<!-- Node0&#45;&gt;Node68 -->
<g id="edge99" class="edge">
<title>Node0&#45;&gt;Node68</title>
<path fill="none" stroke="#191970" d="M682.5724,-594.5359C869.2366,-573.6295 1350.2643,-519.7544 1534.0922,-499.1657"/>
<polygon fill="#191970" stroke="#191970" points="1534.6473,-502.6255 1544.1956,-498.0341 1533.8681,-495.669 1534.6473,-502.6255"/>
</g>
<!-- Node69 -->
<g id="node43" class="node">
<title>Node69</title>
<g id="a_node43"><a xlink:href="Axis_8h.html" target="_top" xlink:title="iDynTree/Core/Axis.h">
<polygon fill="none" stroke="#000000" points="1138,-302.5 1138,-321.5 1256,-321.5 1256,-302.5 1138,-302.5"/>
<text text-anchor="middle" x="1197" y="-309.5" font-family="FreeSans.ttf" font-size="10.00" fill="#000000">iDynTree/Core/Axis.h</text>
</a>
</g>
</g>
<!-- Node0&#45;&gt;Node69 -->
<g id="edge102" class="edge">
<title>Node0&#45;&gt;Node69</title>
<path fill="none" stroke="#191970" d="M615.7405,-593.3231C643.0001,-563.7126 730.0322,-473.4125 820,-425 921.3487,-370.4634 1052.5379,-338.7736 1130.4251,-323.4756"/>
<polygon fill="#191970" stroke="#191970" points="1131.4311,-326.8461 1140.5862,-321.5136 1130.1039,-319.9731 1131.4311,-326.8461"/>
</g>
<!-- Node70 -->
<g id="node44" class="node">
<title>Node70</title>
<g id="a_node44"><a xlink:href="ClassicalAcc_8h.html" target="_top" xlink:title="iDynTree/Core/ClassicalAcc.h">
<polygon fill="none" stroke="#000000" points="64,-537.5 64,-556.5 222,-556.5 222,-537.5 64,-537.5"/>
<text text-anchor="middle" x="143" y="-544.5" font-family="FreeSans.ttf" font-size="10.00" fill="#000000">iDynTree/Core/ClassicalAcc.h</text>
</a>
</g>
</g>
<!-- Node0&#45;&gt;Node70 -->
<g id="edge108" class="edge">
<title>Node0&#45;&gt;Node70</title>
<path fill="none" stroke="#191970" d="M531.4177,-593.878C449.5318,-583.9952 318.983,-568.2393 232.1481,-557.7592"/>
<polygon fill="#191970" stroke="#191970" points="232.3923,-554.2634 222.045,-556.5399 231.5535,-561.213 232.3923,-554.2634"/>
</g>
<!-- Node71 -->
<g id="node45" class="node">
<title>Node71</title>
<g id="a_node45"><a xlink:href="ModelLoader_8h.html" target="_top" xlink:title="iDynTree/ModelIO/ModelLoader.h">
<polygon fill="none" stroke="#000000" points="1915,-537.5 1915,-556.5 2091,-556.5 2091,-537.5 1915,-537.5"/>
<text text-anchor="middle" x="2003" y="-544.5" font-family="FreeSans.ttf" font-size="10.00" fill="#000000">iDynTree/ModelIO/ModelLoader.h</text>
</a>
</g>
</g>
<!-- Node0&#45;&gt;Node71 -->
<g id="edge111" class="edge">
<title>Node0&#45;&gt;Node71</title>
<path fill="none" stroke="#191970" d="M682.55,-599.9693C918.2424,-590.5146 1640.0348,-561.5602 1904.5299,-550.9501"/>
<polygon fill="#191970" stroke="#191970" points="1905.0319,-554.4329 1914.8835,-550.5348 1904.7513,-547.4385 1905.0319,-554.4329"/>
</g>
<!-- Node74 -->
<g id="node48" class="node">
<title>Node74</title>
<g id="a_node48"><a xlink:href="EigenHelpers_8h.html" target="_top" xlink:title="iDynTree/Core/EigenHelpers.h">
<polygon fill="none" stroke="#000000" points="214.5,-364 214.5,-383 375.5,-383 375.5,-364 214.5,-364"/>
<text text-anchor="middle" x="295" y="-371" font-family="FreeSans.ttf" font-size="10.00" fill="#000000">iDynTree/Core/EigenHelpers.h</text>
</a>
</g>
</g>
<!-- Node0&#45;&gt;Node74 -->
<g id="edge122" class="edge">
<title>Node0&#45;&gt;Node74</title>
<path fill="none" stroke="#191970" d="M542.9497,-593.4779C512.3868,-586.7682 476.3874,-575.546 448,-557 380.1037,-512.6421 326.6691,-428.9972 305.213,-391.9551"/>
<polygon fill="#191970" stroke="#191970" points="308.223,-390.1676 300.2395,-383.2023 302.1369,-393.6259 308.223,-390.1676"/>
</g>
<!-- Node1&#45;&gt;Node2 -->
<g id="edge2" class="edge">
<title>Node1&#45;&gt;Node2</title>
<path fill="none" stroke="#191970" d="M1062.8051,-485.6352C967.8502,-477.7807 807.8635,-462.204 787,-445 771.733,-432.4109 766.1274,-409.7681 764.0968,-393.3289"/>
<polygon fill="#191970" stroke="#191970" points="767.5625,-392.788 763.1873,-383.1388 760.5902,-393.4103 767.5625,-392.788"/>
</g>
<!-- Node19 -->
<g id="node13" class="node">
<title>Node19</title>
<g id="a_node13"><a xlink:href="VectorDynSize_8h.html" target="_top" xlink:title="iDynTree/Core/VectorDynSize.h">
<polygon fill="none" stroke="#000000" points="877.5,-302.5 877.5,-321.5 1044.5,-321.5 1044.5,-302.5 877.5,-302.5"/>
<text text-anchor="middle" x="961" y="-309.5" font-family="FreeSans.ttf" font-size="10.00" fill="#000000">iDynTree/Core/VectorDynSize.h</text>
</a>
</g>
</g>
<!-- Node1&#45;&gt;Node19 -->
<g id="edge90" class="edge">
<title>Node1&#45;&gt;Node19</title>
<path fill="none" stroke="#191970" d="M1127.2825,-481.3679C1118.2262,-466.9472 1099.207,-439.8562 1076,-425 1027.3087,-393.8299 985.7664,-435.1922 951,-389 938.5136,-372.41 944.6732,-347.908 951.5611,-331.0211"/>
<polygon fill="#191970" stroke="#191970" points="954.8752,-332.1853 955.7838,-321.6294 948.4908,-329.3147 954.8752,-332.1853"/>
</g>
<!-- Node20 -->
<g id="node14" class="node">
<title>Node20</title>
<g id="a_node14"><a xlink:href="MatrixDynSize_8h.html" target="_top" xlink:title="iDynTree/Core/MatrixDynSize.h">
<polygon fill="none" stroke="#000000" points="1274.5,-302.5 1274.5,-321.5 1441.5,-321.5 1441.5,-302.5 1274.5,-302.5"/>
<text text-anchor="middle" x="1358" y="-309.5" font-family="FreeSans.ttf" font-size="10.00" fill="#000000">iDynTree/Core/MatrixDynSize.h</text>
</a>
</g>
</g>
<!-- Node1&#45;&gt;Node20 -->
<g id="edge91" class="edge">
<title>Node1&#45;&gt;Node20</title>
<path fill="none" stroke="#191970" d="M1128.2728,-481.1304C1115.4412,-453.667 1081.9674,-377.1181 1098,-358 1108.8964,-345.0065 1194.0635,-331.6652 1264.0011,-322.7193"/>
<polygon fill="#191970" stroke="#191970" points="1264.7158,-326.1569 1274.1986,-321.4318 1263.8389,-319.212 1264.7158,-326.1569"/>
</g>
<!-- Node1&#45;&gt;Node21 -->
<g id="edge93" class="edge">
<title>Node1&#45;&gt;Node21</title>
<path fill="none" stroke="#191970" d="M1062.8226,-487.0237C988.6745,-481.6967 868.7655,-469.8635 768,-445 643.3099,-414.2331 502.4451,-353.0936 442.5127,-325.7612"/>
<polygon fill="#191970" stroke="#191970" points="443.8212,-322.5108 433.2726,-321.5218 440.9021,-328.8731 443.8212,-322.5108"/>
</g>
<!-- Node39 -->
<g id="node18" class="node">
<title>Node39</title>
<g id="a_node18"><a xlink:href="Transform_8h.html" target="_top" xlink:title="iDynTree/Core/Transform.h">
<polygon fill="none" stroke="#000000" points="1497,-302.5 1497,-321.5 1643,-321.5 1643,-302.5 1497,-302.5"/>
<text text-anchor="middle" x="1570" y="-309.5" font-family="FreeSans.ttf" font-size="10.00" fill="#000000">iDynTree/Core/Transform.h</text>
</a>
</g>
</g>
<!-- Node1&#45;&gt;Node39 -->
<g id="edge92" class="edge">
<title>Node1&#45;&gt;Node39</title>
<path fill="none" stroke="#191970" d="M1203.0217,-482.6589C1254.174,-475.4998 1324.8164,-463.3852 1385,-445 1444.3859,-426.8585 1464.4438,-427.7053 1513,-389 1533.3308,-372.7939 1550.0858,-347.6689 1560.0514,-330.56"/>
<polygon fill="#191970" stroke="#191970" points="1563.2707,-331.9748 1565.1101,-321.5409 1557.1655,-328.5505 1563.2707,-331.9748"/>
</g>
<!-- Node41 -->
<g id="node25" class="node">
<title>Node41</title>
<polygon fill="none" stroke="#bfbfbf" points="822,-302.5 822,-321.5 860,-321.5 860,-302.5 822,-302.5"/>
<text text-anchor="middle" x="841" y="-309.5" font-family="FreeSans.ttf" font-size="10.00" fill="#000000">map</text>
</g>
<!-- Node1&#45;&gt;Node41 -->
<g id="edge96" class="edge">
<title>Node1&#45;&gt;Node41</title>
<path fill="none" stroke="#191970" d="M1062.791,-485.4952C975.4031,-477.9186 835.6626,-463.1327 820,-445 805.4057,-428.1041 838.7783,-389.8476 839,-389 843.9552,-370.0527 843.8954,-347.5838 842.9368,-331.8236"/>
<polygon fill="#191970" stroke="#191970" points="846.4124,-331.3744 842.1389,-321.6797 839.434,-331.9235 846.4124,-331.3744"/>
</g>
<!-- Node42 -->
<g id="node26" class="node">
<title>Node42</title>
<g id="a_node26"><a xlink:href="ConvexHullHelpers_8h.html" target="_top" xlink:title="iDynTree/ConvexHullHelpers.h">
<polygon fill="none" stroke="#000000" points="1635.5,-364 1635.5,-383 1800.5,-383 1800.5,-364 1635.5,-364"/>
<text text-anchor="middle" x="1718" y="-371" font-family="FreeSans.ttf" font-size="10.00" fill="#000000">iDynTree/ConvexHullHelpers.h</text>
</a>
</g>
</g>
<!-- Node1&#45;&gt;Node42 -->
<g id="edge45" class="edge">
<title>Node1&#45;&gt;Node42</title>
<path fill="none" stroke="#191970" d="M1203.3574,-487.1068C1311.6382,-480.5588 1513.8603,-465.9691 1583,-445 1625.2699,-432.1801 1669.6786,-405.7787 1695.5527,-388.8933"/>
<polygon fill="#191970" stroke="#191970" points="1697.8139,-391.5932 1704.2084,-383.1457 1693.9416,-385.7618 1697.8139,-391.5932"/>
</g>
<!-- Node43 -->
<g id="node27" class="node">
<title>Node43</title>
<polygon fill="none" stroke="#bfbfbf" points="1955.5,-302.5 1955.5,-321.5 2002.5,-321.5 2002.5,-302.5 1955.5,-302.5"/>
<text text-anchor="middle" x="1979" y="-309.5" font-family="FreeSans.ttf" font-size="10.00" fill="#000000">vector</text>
</g>
<!-- Node1&#45;&gt;Node43 -->
<g id="edge95" class="edge">
<title>Node1&#45;&gt;Node43</title>
<path fill="none" stroke="#191970" d="M1203.0105,-488.7829C1370.5573,-483.1477 1785.0926,-467.1386 1844,-445 1902.054,-423.1822 1947.8086,-361.3847 1967.9009,-330.313"/>
<polygon fill="#191970" stroke="#191970" points="1970.9351,-332.0628 1973.2978,-321.7348 1965.0101,-328.3352 1970.9351,-332.0628"/>
</g>
<!-- Node44 -->
<g id="node28" class="node">
<title>Node44</title>
<g id="a_node28"><a xlink:href="InverseKinematics_8h.html" target="_top" xlink:title="iDynTree/InverseKinematics.h">
<polygon fill="none" stroke="#000000" points="1673,-425.5 1673,-444.5 1835,-444.5 1835,-425.5 1673,-425.5"/>
<text text-anchor="middle" x="1754" y="-432.5" font-family="FreeSans.ttf" font-size="10.00" fill="#000000">iDynTree/InverseKinematics.h</text>
</a>
</g>
</g>
<!-- Node1&#45;&gt;Node44 -->
<g id="edge52" class="edge">
<title>Node1&#45;&gt;Node44</title>
<path fill="none" stroke="#191970" d="M1203.2281,-485.2548C1304.1187,-476.9111 1495.8988,-460.7148 1659,-445 1660.2768,-444.877 1661.5631,-444.7523 1662.8573,-444.6261"/>
<polygon fill="#191970" stroke="#191970" points="1663.2961,-448.0999 1672.9033,-443.6332 1662.6075,-441.1338 1663.2961,-448.0999"/>
</g>
<!-- Node46 -->
<g id="node30" class="node">
<title>Node46</title>
<g id="a_node30"><a xlink:href="KinDynComputations_8h.html" target="_top" xlink:title="iDynTree/KinDynComputations.h">
<polygon fill="none" stroke="#000000" points="1200.5,-425.5 1200.5,-444.5 1375.5,-444.5 1375.5,-425.5 1200.5,-425.5"/>
<text text-anchor="middle" x="1288" y="-432.5" font-family="FreeSans.ttf" font-size="10.00" fill="#000000">iDynTree/KinDynComputations.h</text>
</a>
</g>
</g>
<!-- Node1&#45;&gt;Node46 -->
<g id="edge60" class="edge">
<title>Node1&#45;&gt;Node46</title>
<path fill="none" stroke="#191970" d="M1159.6454,-481.3733C1185.1964,-472.1419 1223.9512,-458.1402 1252.1909,-447.9375"/>
<polygon fill="#191970" stroke="#191970" points="1253.4865,-451.1909 1261.7022,-444.5011 1251.1079,-444.6074 1253.4865,-451.1909"/>
</g>
<!-- Node57 -->
<g id="node35" class="node">
<title>Node57</title>
<g id="a_node35"><a xlink:href="Model_8h.html" target="_top" xlink:title="iDynTree/Model/Model.h">
<polygon fill="none" stroke="#000000" points="2095.5,-425.5 2095.5,-444.5 2228.5,-444.5 2228.5,-425.5 2095.5,-425.5"/>
<text text-anchor="middle" x="2162" y="-432.5" font-family="FreeSans.ttf" font-size="10.00" fill="#000000">iDynTree/Model/Model.h</text>
</a>
</g>
</g>
<!-- Node1&#45;&gt;Node57 -->
<g id="edge76" class="edge">
<title>Node1&#45;&gt;Node57</title>
<path fill="none" stroke="#191970" d="M1203.3223,-487.1729C1389.2096,-477.0566 1892.5057,-449.6664 2085.3668,-439.1705"/>
<polygon fill="#191970" stroke="#191970" points="2085.6224,-442.6619 2095.4174,-438.6235 2085.2419,-435.6722 2085.6224,-442.6619"/>
</g>
<!-- Node66 -->
<g id="node40" class="node">
<title>Node66</title>
<polygon fill="none" stroke="#bfbfbf" points="829,-425.5 829,-444.5 955,-444.5 955,-425.5 829,-425.5"/>
<text text-anchor="middle" x="892" y="-432.5" font-family="FreeSans.ttf" font-size="10.00" fill="#000000">IpIpoptApplication.hpp</text>
</g>
<!-- Node1&#45;&gt;Node66 -->
<g id="edge94" class="edge">
<title>Node1&#45;&gt;Node66</title>
<path fill="none" stroke="#191970" d="M1091.8445,-481.4369C1050.6858,-471.8731 987.295,-457.1432 942.9758,-446.845"/>
<polygon fill="#191970" stroke="#191970" points="943.5185,-443.3779 932.9858,-444.5237 941.9341,-450.1963 943.5185,-443.3779"/>
</g>
<!-- Node67 -->
<g id="node41" class="node">
<title>Node67</title>
<polygon fill="none" stroke="#bfbfbf" points="973.5,-425.5 973.5,-444.5 1066.5,-444.5 1066.5,-425.5 973.5,-425.5"/>
<text text-anchor="middle" x="1020" y="-432.5" font-family="FreeSans.ttf" font-size="10.00" fill="#000000">unordered_map</text>
</g>
<!-- Node1&#45;&gt;Node67 -->
<g id="edge97" class="edge">
<title>Node1&#45;&gt;Node67</title>
<path fill="none" stroke="#191970" d="M1113.5746,-481.3733C1095.5979,-472.4644 1068.6559,-459.1127 1048.291,-449.0203"/>
<polygon fill="#191970" stroke="#191970" points="1049.6861,-445.8055 1039.1719,-444.5011 1046.5778,-452.0776 1049.6861,-445.8055"/>
</g>
<!-- Node3 -->
<g id="node4" class="node">
<title>Node3</title>
<polygon fill="none" stroke="#bfbfbf" points="734,-302.5 734,-321.5 804,-321.5 804,-302.5 734,-302.5"/>
<text text-anchor="middle" x="769" y="-309.5" font-family="FreeSans.ttf" font-size="10.00" fill="#000000">IpTNLP.hpp</text>
</g>
<!-- Node2&#45;&gt;Node3 -->
<g id="edge3" class="edge">
<title>Node2&#45;&gt;Node3</title>
<path fill="none" stroke="#191970" d="M763.9375,-363.8906C764.7692,-355.3657 766.0108,-342.6392 767.0562,-331.9235"/>
<polygon fill="#191970" stroke="#191970" points="770.5617,-332.0375 768.0493,-321.7449 763.5947,-331.3577 770.5617,-332.0375"/>
</g>
<!-- Node4 -->
<g id="node5" class="node">
<title>Node4</title>
<g id="a_node5"><a xlink:href="VectorFixSize_8h.html" target="_top" xlink:title="iDynTree/Core/VectorFixSize.h">
<polygon fill="none" stroke="#000000" points="630.5,-112.5 630.5,-131.5 791.5,-131.5 791.5,-112.5 630.5,-112.5"/>
<text text-anchor="middle" x="711" y="-119.5" font-family="FreeSans.ttf" font-size="10.00" fill="#000000">iDynTree/Core/VectorFixSize.h</text>
</a>
</g>
</g>
<!-- Node2&#45;&gt;Node4 -->
<g id="edge4" class="edge">
<title>Node2&#45;&gt;Node4</title>
<path fill="none" stroke="#191970" d="M753.2242,-363.8799C744.1192,-354.231 731.0659,-338.4749 725,-322 701.9939,-259.5157 705.5531,-178.7371 708.822,-141.8956"/>
<polygon fill="#191970" stroke="#191970" points="712.3431,-141.8515 709.839,-131.5568 705.3767,-141.1661 712.3431,-141.8515"/>
</g>
<!-- Node2&#45;&gt;Node19 -->
<g id="edge14" class="edge">
<title>Node2&#45;&gt;Node19</title>
<path fill="none" stroke="#191970" d="M793.9375,-363.8906C828.0837,-353.2846 883.1674,-336.1753 920.6735,-324.5257"/>
<polygon fill="#191970" stroke="#191970" points="921.768,-327.8507 930.2797,-321.5419 919.6916,-321.1658 921.768,-327.8507"/>
</g>
<!-- Node2&#45;&gt;Node20 -->
<g id="edge17" class="edge">
<title>Node2&#45;&gt;Node20</title>
<path fill="none" stroke="#191970" d="M830,-366.7315C924.2846,-357.1832 1101.7847,-339.1223 1264.1716,-322.0829"/>
<polygon fill="#191970" stroke="#191970" points="1264.7708,-325.5393 1274.3506,-321.014 1264.0397,-318.5776 1264.7708,-325.5393"/>
</g>
<!-- Node2&#45;&gt;Node21 -->
<g id="edge19" class="edge">
<title>Node2&#45;&gt;Node21</title>
<path fill="none" stroke="#191970" d="M708.6965,-363.9581C646.1446,-352.9668 543.4799,-334.9272 477.0729,-323.2585"/>
<polygon fill="#191970" stroke="#191970" points="477.5978,-319.7972 467.1429,-321.5137 476.3863,-326.6916 477.5978,-319.7972"/>
</g>
<!-- Node2&#45;&gt;Node39 -->
<g id="edge23" class="edge">
<title>Node2&#45;&gt;Node39</title>
<path fill="none" stroke="#191970" d="M830.3987,-368.6598C953.6269,-359.7647 1223.5384,-340.0701 1451,-322 1462.5447,-321.0829 1474.717,-320.0898 1486.6935,-319.0977"/>
<polygon fill="#191970" stroke="#191970" points="1487.0141,-322.5832 1496.6895,-318.2663 1486.4338,-315.6073 1487.0141,-322.5832"/>
</g>
<!-- Node2&#45;&gt;Node41 -->
<g id="edge44" class="edge">
<title>Node2&#45;&gt;Node41</title>
<path fill="none" stroke="#191970" d="M775.1875,-363.8906C787.437,-354.2324 806.5263,-339.1812 820.9977,-327.771"/>
<polygon fill="#191970" stroke="#191970" points="823.2124,-330.4819 828.8981,-321.5419 818.8783,-324.985 823.2124,-330.4819"/>
</g>
<!-- Node5 -->
<g id="node6" class="node">
<title>Node5</title>
<g id="a_node6"><a xlink:href="Utils_8h.html" target="_top" xlink:title="iDynTree/Core/Utils.h">
<polygon fill="none" stroke="#000000" points="878.5,-56.5 878.5,-75.5 997.5,-75.5 997.5,-56.5 878.5,-56.5"/>
<text text-anchor="middle" x="938" y="-63.5" font-family="FreeSans.ttf" font-size="10.00" fill="#000000">iDynTree/Core/Utils.h</text>
</a>
</g>
</g>
<!-- Node4&#45;&gt;Node5 -->
<g id="edge5" class="edge">
<title>Node4&#45;&gt;Node5</title>
<path fill="none" stroke="#191970" d="M749.7648,-112.4369C788.3692,-102.9133 847.7384,-88.2672 889.4572,-77.9753"/>
<polygon fill="#191970" stroke="#191970" points="890.5245,-81.317 899.3951,-75.5237 888.8479,-74.5208 890.5245,-81.317"/>
</g>
<!-- Node7 -->
<g id="node8" class="node">
<title>Node7</title>
<g id="a_node8"><a xlink:href="Span_8h.html" target="_top" xlink:title="iDynTree/Core/Span.h">
<polygon fill="none" stroke="#ff0000" points="739.5,-56.5 739.5,-75.5 860.5,-75.5 860.5,-56.5 739.5,-56.5"/>
<text text-anchor="middle" x="800" y="-63.5" font-family="FreeSans.ttf" font-size="10.00" fill="#000000">iDynTree/Core/Span.h</text>
</a>
</g>
</g>
<!-- Node4&#45;&gt;Node7 -->
<g id="edge7" class="edge">
<title>Node4&#45;&gt;Node7</title>
<path fill="none" stroke="#191970" d="M726.5026,-112.2455C740.158,-103.6534 760.2657,-91.0014 775.9989,-81.1018"/>
<polygon fill="#191970" stroke="#191970" points="778.0751,-83.9307 784.675,-75.6427 774.3471,-78.006 778.0751,-83.9307"/>
</g>
<!-- Node4&#45;&gt;Node8 -->
<g id="edge12" class="edge">
<title>Node4&#45;&gt;Node8</title>
<path fill="none" stroke="#191970" d="M710.3043,-112.1003C708.8899,-98.2968 704.6427,-73.0478 692,-56 682.0482,-42.5806 666.9224,-32.0047 653.1855,-24.3947"/>
<polygon fill="#191970" stroke="#191970" points="654.4641,-21.1146 643.9778,-19.6017 651.2319,-27.3237 654.4641,-21.1146"/>
</g>
<!-- Node16 -->
<g id="node10" class="node">
<title>Node16</title>
<polygon fill="none" stroke="#bfbfbf" points="1546,-56.5 1546,-75.5 1590,-75.5 1590,-56.5 1546,-56.5"/>
<text text-anchor="middle" x="1568" y="-63.5" font-family="FreeSans.ttf" font-size="10.00" fill="#000000">string</text>
</g>
<!-- Node4&#45;&gt;Node16 -->
<g id="edge10" class="edge">
<title>Node4&#45;&gt;Node16</title>
<path fill="none" stroke="#191970" d="M791.6245,-116.7317C974.2423,-104.7986 1413.0976,-76.122 1535.7004,-68.1106"/>
<polygon fill="#191970" stroke="#191970" points="1536.1708,-71.5874 1545.9213,-67.4427 1535.7143,-64.6023 1536.1708,-71.5874"/>
</g>
<!-- Node17 -->
<g id="node11" class="node">
<title>Node17</title>
<polygon fill="none" stroke="#bfbfbf" points="627,-56.5 627,-75.5 683,-75.5 683,-56.5 627,-56.5"/>
<text text-anchor="middle" x="655" y="-63.5" font-family="FreeSans.ttf" font-size="10.00" fill="#000000">sstream</text>
</g>
<!-- Node4&#45;&gt;Node17 -->
<g id="edge11" class="edge">
<title>Node4&#45;&gt;Node17</title>
<path fill="none" stroke="#191970" d="M701.2455,-112.2455C693.1352,-104.1352 681.4075,-92.4075 671.7919,-82.7919"/>
<polygon fill="#191970" stroke="#191970" points="674.1887,-80.2389 664.6427,-75.6427 669.2389,-85.1887 674.1887,-80.2389"/>
</g>
<!-- Node18 -->
<g id="node12" class="node">
<title>Node18</title>
<polygon fill="none" stroke="#bfbfbf" points="559,-56.5 559,-75.5 609,-75.5 609,-56.5 559,-56.5"/>
<text text-anchor="middle" x="584" y="-63.5" font-family="FreeSans.ttf" font-size="10.00" fill="#000000">cstring</text>
</g>
<!-- Node4&#45;&gt;Node18 -->
<g id="edge13" class="edge">
<title>Node4&#45;&gt;Node18</title>
<path fill="none" stroke="#191970" d="M689.1679,-112.3733C668.6897,-103.3435 637.8601,-89.7494 614.8681,-79.6111"/>
<polygon fill="#191970" stroke="#191970" points="616.1093,-76.3333 605.5472,-75.5011 613.285,-82.7383 616.1093,-76.3333"/>
</g>
<!-- Node6 -->
<g id="node7" class="node">
<title>Node6</title>
<polygon fill="none" stroke="#bfbfbf" points="842.5,-.5 842.5,-19.5 895.5,-19.5 895.5,-.5 842.5,-.5"/>
<text text-anchor="middle" x="869" y="-7.5" font-family="FreeSans.ttf" font-size="10.00" fill="#000000">cstddef</text>
</g>
<!-- Node5&#45;&gt;Node6 -->
<g id="edge6" class="edge">
<title>Node5&#45;&gt;Node6</title>
<path fill="none" stroke="#191970" d="M925.9811,-56.2455C915.7902,-47.9746 900.9638,-35.9416 888.9893,-26.2232"/>
<polygon fill="#191970" stroke="#191970" points="890.8514,-23.2268 880.8812,-19.6427 886.4402,-28.662 890.8514,-23.2268"/>
</g>
<!-- Node7&#45;&gt;Node6 -->
<g id="edge9" class="edge">
<title>Node7&#45;&gt;Node6</title>
<path fill="none" stroke="#191970" d="M812.0189,-56.2455C822.2098,-47.9746 837.0362,-35.9416 849.0107,-26.2232"/>
<polygon fill="#191970" stroke="#191970" points="851.5598,-28.662 857.1188,-19.6427 847.1486,-23.2268 851.5598,-28.662"/>
</g>
<!-- Node7&#45;&gt;Node8 -->
<g id="edge8" class="edge">
<title>Node7&#45;&gt;Node8</title>
<path fill="none" stroke="#191970" d="M769.2288,-56.3733C737.9762,-46.5959 689.618,-31.4671 656.6997,-21.1686"/>
<polygon fill="#191970" stroke="#191970" points="657.6043,-17.7844 647.0154,-18.1389 655.5142,-24.4651 657.6043,-17.7844"/>
</g>
<!-- Node19&#45;&gt;Node7 -->
<g id="edge15" class="edge">
<title>Node19&#45;&gt;Node7</title>
<path fill="none" stroke="#191970" d="M954.6886,-302.3565C930.5432,-265.4636 843.7879,-132.9057 811.8827,-84.1561"/>
<polygon fill="#191970" stroke="#191970" points="814.6725,-82.0275 806.2678,-75.5768 808.8154,-85.8608 814.6725,-82.0275"/>
</g>
<!-- Node19&#45;&gt;Node16 -->
<g id="edge16" class="edge">
<title>Node19&#45;&gt;Node16</title>
<path fill="none" stroke="#191970" d="M963.7818,-302.4044C971.6781,-276.82 996.6458,-206.3199 1042,-168 1117.9173,-103.8573 1433.588,-75.7278 1535.8636,-68.1815"/>
<polygon fill="#191970" stroke="#191970" points="1536.1782,-71.668 1545.9002,-67.4569 1535.6741,-64.6861 1536.1782,-71.668"/>
</g>
<!-- Node20&#45;&gt;Node16 -->
<g id="edge18" class="edge">
<title>Node20&#45;&gt;Node16</title>
<path fill="none" stroke="#191970" d="M1347.7415,-302.4898C1338.6129,-293.6533 1325.3039,-279.8126 1316,-266 1276.9457,-208.0201 1238.6924,-165.2366 1284,-112 1300.2041,-92.9602 1464.7855,-75.5646 1535.7356,-68.8881"/>
<polygon fill="#191970" stroke="#191970" points="1536.2555,-72.3549 1545.8893,-67.9458 1535.6086,-65.3849 1536.2555,-72.3549"/>
</g>
<!-- Node22 -->
<g id="node16" class="node">
<title>Node22</title>
<g id="a_node16"><a xlink:href="SpatialMotionVector_8h.html" target="_top" xlink:title="iDynTree/Core/SpatialMotion\lVector.h">
<polygon fill="none" stroke="#ff0000" points="366.5,-235.5 366.5,-265.5 521.5,-265.5 521.5,-235.5 366.5,-235.5"/>
<text text-anchor="start" x="374.5" y="-253.5" font-family="FreeSans.ttf" font-size="10.00" fill="#000000">iDynTree/Core/SpatialMotion</text>
<text text-anchor="middle" x="444" y="-242.5" font-family="FreeSans.ttf" font-size="10.00" fill="#000000">Vector.h</text>
</a>
</g>
</g>
<!-- Node21&#45;&gt;Node22 -->
<g id="edge20" class="edge">
<title>Node21&#45;&gt;Node22</title>
<path fill="none" stroke="#191970" d="M417.8438,-302.3906C421.5731,-294.9922 426.8975,-284.4291 431.7702,-274.7623"/>
<polygon fill="#191970" stroke="#191970" points="435.0407,-276.0497 436.4165,-265.5446 428.7899,-272.8989 435.0407,-276.0497"/>
</g>
<!-- Node22&#45;&gt;Node4 -->
<g id="edge21" class="edge">
<title>Node22&#45;&gt;Node4</title>
<path fill="none" stroke="#191970" d="M442.898,-235.3303C442.4428,-216.7182 444.7443,-185.4878 463,-168 474.9936,-156.5109 559.8704,-142.4838 627.0334,-132.962"/>
<polygon fill="#191970" stroke="#191970" points="627.8078,-136.3877 637.2245,-131.5321 626.8352,-129.4556 627.8078,-136.3877"/>
</g>
<!-- Node23 -->
<g id="node17" class="node">
<title>Node23</title>
<g id="a_node17"><a xlink:href="LinearMotionVector3_8h.html" target="_top" xlink:title="iDynTree/Core/LinearMotion\lVector3.h">
<polygon fill="none" stroke="#ff0000" points="472.5,-168.5 472.5,-198.5 623.5,-198.5 623.5,-168.5 472.5,-168.5"/>
<text text-anchor="start" x="480.5" y="-186.5" font-family="FreeSans.ttf" font-size="10.00" fill="#000000">iDynTree/Core/LinearMotion</text>
<text text-anchor="middle" x="548" y="-175.5" font-family="FreeSans.ttf" font-size="10.00" fill="#000000">Vector3.h</text>
</a>
</g>
</g>
<!-- Node22&#45;&gt;Node23 -->
<g id="edge22" class="edge">
<title>Node22&#45;&gt;Node23</title>
<path fill="none" stroke="#191970" d="M467.3396,-235.4639C481.5574,-226.3044 499.9323,-214.4667 515.5522,-204.4038"/>
<polygon fill="#191970" stroke="#191970" points="517.8674,-207.0758 524.3784,-198.7177 514.0764,-201.1912 517.8674,-207.0758"/>
</g>
<!-- Node39&#45;&gt;Node16 -->
<g id="edge43" class="edge">
<title>Node39&#45;&gt;Node16</title>
<path fill="none" stroke="#191970" d="M1559.3498,-302.3977C1550.3222,-293.7117 1537.6562,-280.1476 1530,-266 1508.884,-226.9806 1499.8175,-210.9342 1511,-168 1519.3424,-135.9703 1540.2047,-103.3353 1554.2391,-83.8773"/>
<polygon fill="#191970" stroke="#191970" points="1557.1731,-85.7966 1560.3165,-75.6788 1551.5497,-81.628 1557.1731,-85.7966"/>
</g>
<!-- Node34 -->
<g id="node19" class="node">
<title>Node34</title>
<g id="a_node19"><a xlink:href="Position_8h.html" target="_top" xlink:title="Position.h">
<polygon fill="none" stroke="#000000" points="1538.5,-241 1538.5,-260 1603.5,-260 1603.5,-241 1538.5,-241"/>
<text text-anchor="middle" x="1571" y="-248" font-family="FreeSans.ttf" font-size="10.00" fill="#000000">Position.h</text>
</a>
</g>
</g>
<!-- Node39&#45;&gt;Node34 -->
<g id="edge24" class="edge">
<title>Node39&#45;&gt;Node34</title>
<path fill="none" stroke="#191970" d="M1570.1563,-302.3906C1570.2949,-293.8657 1570.5018,-281.1392 1570.676,-270.4235"/>
<polygon fill="#191970" stroke="#191970" points="1574.1784,-270.3005 1570.8415,-260.2449 1567.1793,-270.1866 1574.1784,-270.3005"/>
</g>
<!-- Node26 -->
<g id="node22" class="node">
<title>Node26</title>
<g id="a_node22"><a xlink:href="Rotation_8h.html" target="_top" xlink:title="iDynTree/Core/Rotation.h">
<polygon fill="none" stroke="#ff0000" points="1326.5,-174 1326.5,-193 1463.5,-193 1463.5,-174 1326.5,-174"/>
<text text-anchor="middle" x="1395" y="-181" font-family="FreeSans.ttf" font-size="10.00" fill="#000000">iDynTree/Core/Rotation.h</text>
</a>
</g>
</g>
<!-- Node39&#45;&gt;Node26 -->
<g id="edge34" class="edge">
<title>Node39&#45;&gt;Node26</title>
<path fill="none" stroke="#191970" d="M1545.7615,-302.4138C1526.4891,-294.2106 1499.3187,-281.3168 1478,-266 1451.3421,-246.8472 1425.2738,-219.0101 1409.6685,-201.0786"/>
<polygon fill="#191970" stroke="#191970" points="1412.0505,-198.4787 1402.8915,-193.1529 1406.7303,-203.0279 1412.0505,-198.4787"/>
</g>
<!-- Node40 -->
<g id="node23" class="node">
<title>Node40</title>
<g id="a_node23"><a xlink:href="TransformSemantics_8h.html" target="_top" xlink:title="iDynTree/Core/TransformSemantics.h">
<polygon fill="none" stroke="#000000" points="1660.5,-241 1660.5,-260 1857.5,-260 1857.5,-241 1660.5,-241"/>
<text text-anchor="middle" x="1759" y="-248" font-family="FreeSans.ttf" font-size="10.00" fill="#000000">iDynTree/Core/TransformSemantics.h</text>
</a>
</g>
</g>
<!-- Node39&#45;&gt;Node40 -->
<g id="edge35" class="edge">
<title>Node39&#45;&gt;Node40</title>
<path fill="none" stroke="#191970" d="M1599.5313,-302.3906C1631.9866,-291.8298 1684.2581,-274.8208 1720.0486,-263.1747"/>
<polygon fill="#191970" stroke="#191970" points="1721.2499,-266.4645 1729.6761,-260.0419 1719.0839,-259.808 1721.2499,-266.4645"/>
</g>
<!-- Node28 -->
<g id="node24" class="node">
<title>Node28</title>
<g id="a_node24"><a xlink:href="MatrixFixSize_8h.html" target="_top" xlink:title="iDynTree/Core/MatrixFixSize.h">
<polygon fill="none" stroke="#ff0000" points="451.5,-112.5 451.5,-131.5 612.5,-131.5 612.5,-112.5 451.5,-112.5"/>
<text text-anchor="middle" x="532" y="-119.5" font-family="FreeSans.ttf" font-size="10.00" fill="#000000">iDynTree/Core/MatrixFixSize.h</text>
</a>
</g>
</g>
<!-- Node39&#45;&gt;Node28 -->
<g id="edge37" class="edge">
<title>Node39&#45;&gt;Node28</title>
<path fill="none" stroke="#191970" d="M1517.8141,-302.4477C1343.5237,-270.5448 781.9652,-167.7547 593.9739,-133.344"/>
<polygon fill="#191970" stroke="#191970" points="594.4484,-129.8727 583.9816,-131.5149 593.188,-136.7583 594.4484,-129.8727"/>
</g>
<!-- Node34&#45;&gt;Node16 -->
<g id="edge33" class="edge">
<title>Node34&#45;&gt;Node16</title>
<path fill="none" stroke="#191970" d="M1595.9221,-240.9074C1627.878,-228.3594 1679.8174,-207.0282 1685,-199 1692.4725,-187.4246 1692.8858,-179.2979 1685,-168 1658.4419,-129.9506 1618.6129,-165.9664 1587,-132 1575.4621,-119.6031 1570.8784,-100.6463 1569.0839,-86.2246"/>
<polygon fill="#191970" stroke="#191970" points="1572.533,-85.4946 1568.1632,-75.8429 1565.5604,-86.113 1572.533,-85.4946"/>
</g>
<!-- Node35 -->
<g id="node20" class="node">
<title>Node35</title>
<g id="a_node20"><a xlink:href="PositionRaw_8h.html" target="_top" xlink:title="iDynTree/Core/PositionRaw.h">
<polygon fill="none" stroke="#000000" points="1520,-174 1520,-193 1676,-193 1676,-174 1520,-174"/>
<text text-anchor="middle" x="1598" y="-181" font-family="FreeSans.ttf" font-size="10.00" fill="#000000">iDynTree/Core/PositionRaw.h</text>
</a>
</g>
</g>
<!-- Node34&#45;&gt;Node35 -->
<g id="edge25" class="edge">
<title>Node34&#45;&gt;Node35</title>
<path fill="none" stroke="#191970" d="M1574.8684,-240.9005C1578.8784,-230.95 1585.2539,-215.1292 1590.297,-202.6147"/>
<polygon fill="#191970" stroke="#191970" points="1593.6472,-203.6651 1594.1387,-193.0817 1587.1546,-201.0486 1593.6472,-203.6651"/>
</g>
<!-- Node36 -->
<g id="node21" class="node">
<title>Node36</title>
<g id="a_node21"><a xlink:href="PositionSemantics_8h.html" target="_top" xlink:title="iDynTree/Core/PositionSemantics.h">
<polygon fill="none" stroke="#000000" points="1595.5,-112.5 1595.5,-131.5 1782.5,-131.5 1782.5,-112.5 1595.5,-112.5"/>
<text text-anchor="middle" x="1689" y="-119.5" font-family="FreeSans.ttf" font-size="10.00" fill="#000000">iDynTree/Core/PositionSemantics.h</text>
</a>
</g>
</g>
<!-- Node34&#45;&gt;Node36 -->
<g id="edge28" class="edge">
<title>Node34&#45;&gt;Node36</title>
<path fill="none" stroke="#191970" d="M1599.606,-240.9407C1641.8623,-226.7554 1716.2107,-201.5228 1718,-199 1730.9486,-180.7434 1717.1826,-155.9895 1704.5532,-139.531"/>
<polygon fill="#191970" stroke="#191970" points="1707.2387,-137.2861 1698.1999,-131.7588 1701.819,-141.7164 1707.2387,-137.2861"/>
</g>
<!-- Node34&#45;&gt;Node26 -->
<g id="edge30" class="edge">
<title>Node34&#45;&gt;Node26</title>
<path fill="none" stroke="#191970" d="M1545.7835,-240.9005C1515.3319,-229.3082 1463.9515,-209.7486 1429.757,-196.7313"/>
<polygon fill="#191970" stroke="#191970" points="1430.7607,-193.3685 1420.1697,-193.0817 1428.2702,-199.9105 1430.7607,-193.3685"/>
</g>
<!-- Node35&#45;&gt;Node4 -->
<g id="edge26" class="edge">
<title>Node35&#45;&gt;Node4</title>
<path fill="none" stroke="#191970" d="M1527.6782,-173.9908C1509.8632,-171.799 1490.747,-169.6343 1473,-168 1231.0261,-145.7163 944.7877,-131.7562 801.8121,-125.6274"/>
<polygon fill="#191970" stroke="#191970" points="801.9079,-122.1284 791.768,-125.1997 801.61,-129.1221 801.9079,-122.1284"/>
</g>
<!-- Node35&#45;&gt;Node16 -->
<g id="edge27" class="edge">
<title>Node35&#45;&gt;Node16</title>
<path fill="none" stroke="#191970" d="M1586.0109,-173.943C1575.3006,-164.5699 1560.3511,-149.2109 1554,-132 1548.3127,-116.588 1553.059,-98.2536 1558.5137,-84.8247"/>
<polygon fill="#191970" stroke="#191970" points="1561.735,-86.1956 1562.662,-75.6414 1555.3556,-83.3139 1561.735,-86.1956"/>
</g>
<!-- Node36&#45;&gt;Node16 -->
<g id="edge29" class="edge">
<title>Node36&#45;&gt;Node16</title>
<path fill="none" stroke="#191970" d="M1668.1994,-112.3733C1648.7757,-103.3838 1619.5776,-89.8706 1597.7036,-79.7471"/>
<polygon fill="#191970" stroke="#191970" points="1599.0745,-76.5249 1588.5292,-75.5011 1596.1344,-82.8776 1599.0745,-76.5249"/>
</g>
<!-- Node26&#45;&gt;Node4 -->
<g id="edge32" class="edge">
<title>Node26&#45;&gt;Node4</title>
<path fill="none" stroke="#191970" d="M1326.2837,-177.3216C1202.1792,-166.163 940.6841,-142.6514 801.9353,-130.1762"/>
<polygon fill="#191970" stroke="#191970" points="802.0267,-126.6704 791.7534,-129.2607 801.3998,-133.6423 802.0267,-126.6704"/>
</g>
<!-- Node26&#45;&gt;Node16 -->
<g id="edge31" class="edge">
<title>Node26&#45;&gt;Node16</title>
<path fill="none" stroke="#191970" d="M1404.595,-173.8714C1419.4407,-159.302 1449.2718,-131.3101 1478,-112 1496.4318,-99.6108 1518.6363,-88.2285 1536.3781,-79.8856"/>
<polygon fill="#191970" stroke="#191970" points="1538.1079,-82.9423 1545.7232,-75.5763 1535.1766,-76.5855 1538.1079,-82.9423"/>
</g>
<!-- Node40&#45;&gt;Node16 -->
<g id="edge36" class="edge">
<title>Node40&#45;&gt;Node16</title>
<path fill="none" stroke="#191970" d="M1770.259,-240.823C1796.8465,-216.8347 1858.7621,-153.5652 1824,-112 1795.7932,-78.2731 1662.3684,-69.2398 1600.1218,-66.8478"/>
<polygon fill="#191970" stroke="#191970" points="1600.1838,-63.3479 1590.0674,-66.4958 1599.9388,-70.3436 1600.1838,-63.3479"/>
</g>
<!-- Node28&#45;&gt;Node5 -->
<g id="edge38" class="edge">
<title>Node28&#45;&gt;Node5</title>
<path fill="none" stroke="#191970" d="M603.5733,-112.4863C669.7371,-103.6397 771.0841,-89.9578 868.3011,-76.2306"/>
<polygon fill="#191970" stroke="#191970" points="868.8898,-79.6822 878.3012,-74.8163 867.9095,-72.7512 868.8898,-79.6822"/>
</g>
<!-- Node28&#45;&gt;Node8 -->
<g id="edge39" class="edge">
<title>Node28&#45;&gt;Node8</title>
<path fill="none" stroke="#191970" d="M532.5209,-112.1062C533.6967,-98.3097 537.5266,-73.0688 550,-56 559.8573,-42.511 574.9726,-31.9274 588.727,-24.3303"/>
<polygon fill="#191970" stroke="#191970" points="590.6833,-27.2586 597.9505,-19.549 587.4617,-21.0439 590.6833,-27.2586"/>
</g>
<!-- Node28&#45;&gt;Node16 -->
<g id="edge41" class="edge">
<title>Node28&#45;&gt;Node16</title>
<path fill="none" stroke="#191970" d="M612.5082,-112.7229C615.3728,-112.4664 618.2102,-112.2243 621,-112 979.3517,-83.1936 1415.5423,-70.0576 1535.9183,-66.8209"/>
<polygon fill="#191970" stroke="#191970" points="1536.0401,-70.319 1545.9436,-66.5548 1535.8542,-63.3215 1536.0401,-70.319"/>
</g>
<!-- Node28&#45;&gt;Node17 -->
<g id="edge42" class="edge">
<title>Node28&#45;&gt;Node17</title>
<path fill="none" stroke="#191970" d="M553.1445,-112.3733C572.8892,-103.3838 602.5698,-89.8706 624.8055,-79.7471"/>
<polygon fill="#191970" stroke="#191970" points="626.4806,-82.8302 634.1315,-75.5011 623.58,-76.4594 626.4806,-82.8302"/>
</g>
<!-- Node28&#45;&gt;Node18 -->
<g id="edge40" class="edge">
<title>Node28&#45;&gt;Node18</title>
<path fill="none" stroke="#191970" d="M541.0577,-112.2455C548.5142,-104.2155 559.2634,-92.6394 568.1417,-83.0781"/>
<polygon fill="#191970" stroke="#191970" points="570.8063,-85.3522 575.0461,-75.6427 565.6768,-80.589 570.8063,-85.3522"/>
</g>
<!-- Node42&#45;&gt;Node16 -->
<g id="edge46" class="edge">
<title>Node42&#45;&gt;Node16</title>
<path fill="none" stroke="#191970" d="M1755.7025,-363.9959C1805.2345,-348.9819 1886,-314.6631 1886,-250.5 1886,-250.5 1886,-250.5 1886,-183.5 1886,-146.1872 1872.9478,-132.8442 1842,-112 1802.9518,-85.7 1664.1375,-72.7623 1600.4103,-68.1008"/>
<polygon fill="#191970" stroke="#191970" points="1600.3601,-64.5886 1590.138,-67.3739 1599.866,-71.5711 1600.3601,-64.5886"/>
</g>
<!-- Node42&#45;&gt;Node19 -->
<g id="edge51" class="edge">
<title>Node42&#45;&gt;Node19</title>
<path fill="none" stroke="#191970" d="M1635.1848,-366.772C1493.145,-355.2324 1203.9885,-331.7408 1054.7597,-319.6172"/>
<polygon fill="#191970" stroke="#191970" points="1054.9489,-316.1211 1044.6983,-318.7998 1054.382,-323.0981 1054.9489,-316.1211"/>
</g>
<!-- Node42&#45;&gt;Node20 -->
<g id="edge48" class="edge">
<title>Node42&#45;&gt;Node20</title>
<path fill="none" stroke="#191970" d="M1662.145,-363.9581C1597.8059,-352.9668 1492.2079,-334.9272 1423.9035,-323.2585"/>
<polygon fill="#191970" stroke="#191970" points="1424.1364,-319.7477 1413.6898,-321.5137 1422.9576,-326.6477 1424.1364,-319.7477"/>
</g>
<!-- Node42&#45;&gt;Node39 -->
<g id="edge50" class="edge">
<title>Node42&#45;&gt;Node39</title>
<path fill="none" stroke="#191970" d="M1694.875,-363.8906C1670.0033,-353.5554 1630.2702,-337.0447 1602.3156,-325.4284"/>
<polygon fill="#191970" stroke="#191970" points="1603.5402,-322.1472 1592.9626,-321.5419 1600.854,-328.6113 1603.5402,-322.1472"/>
</g>
<!-- Node42&#45;&gt;Node34 -->
<g id="edge49" class="edge">
<title>Node42&#45;&gt;Node34</title>
<path fill="none" stroke="#191970" d="M1710.5591,-363.9714C1699.0008,-349.5328 1675.5975,-321.7092 1652,-302 1635.2143,-287.9802 1614.3506,-274.7998 1598.002,-265.2829"/>
<polygon fill="#191970" stroke="#191970" points="1599.3828,-262.0411 1588.9628,-260.1242 1595.9131,-268.1207 1599.3828,-262.0411"/>
</g>
<!-- Node42&#45;&gt;Node43 -->
<g id="edge47" class="edge">
<title>Node42&#45;&gt;Node43</title>
<path fill="none" stroke="#191970" d="M1758.4949,-363.9581C1809.8522,-351.8567 1897.4702,-331.211 1945.3393,-319.9315"/>
<polygon fill="#191970" stroke="#191970" points="1946.2738,-323.3073 1955.2045,-317.607 1944.6683,-316.4939 1946.2738,-323.3073"/>
</g>
<!-- Node44&#45;&gt;Node16 -->
<g id="edge53" class="edge">
<title>Node44&#45;&gt;Node16</title>
<path fill="none" stroke="#191970" d="M1773.8339,-425.4075C1818.678,-402.1736 1924,-338.2641 1924,-250.5 1924,-250.5 1924,-250.5 1924,-183.5 1924,-143.1356 1902.8418,-132.3798 1868,-112 1822.9921,-85.6738 1668.2725,-72.5598 1600.3762,-67.964"/>
<polygon fill="#191970" stroke="#191970" points="1600.4629,-64.4622 1590.2549,-67.2988 1600.0038,-71.4472 1600.4629,-64.4622"/>
</g>
<!-- Node44&#45;&gt;Node42 -->
<g id="edge55" class="edge">
<title>Node44&#45;&gt;Node42</title>
<path fill="none" stroke="#191970" d="M1748.375,-425.3906C1743.1747,-416.5068 1735.3034,-403.0601 1728.8767,-392.0811"/>
<polygon fill="#191970" stroke="#191970" points="1731.7767,-390.1069 1723.7043,-383.2449 1725.7356,-393.6432 1731.7767,-390.1069"/>
</g>
<!-- Node44&#45;&gt;Node43 -->
<g id="edge54" class="edge">
<title>Node44&#45;&gt;Node43</title>
<path fill="none" stroke="#191970" d="M1789.5266,-425.4553C1815.7416,-417.6339 1851.7826,-405.2181 1881,-389 1911.6521,-371.9856 1942.7601,-345.6644 1961.4687,-328.6325"/>
<polygon fill="#191970" stroke="#191970" points="1963.9538,-331.1016 1968.9181,-321.7418 1959.2004,-325.9629 1963.9538,-331.1016"/>
</g>
<!-- Node45 -->
<g id="node29" class="node">
<title>Node45</title>
<g id="a_node29"><a xlink:href="Direction_8h.html" target="_top" xlink:title="iDynTree/Core/Direction.h">
<polygon fill="none" stroke="#000000" points="1050.5,-174 1050.5,-193 1191.5,-193 1191.5,-174 1050.5,-174"/>
<text text-anchor="middle" x="1121" y="-181" font-family="FreeSans.ttf" font-size="10.00" fill="#000000">iDynTree/Core/Direction.h</text>
</a>
</g>
</g>
<!-- Node44&#45;&gt;Node45 -->
<g id="edge56" class="edge">
<title>Node44&#45;&gt;Node45</title>
<path fill="none" stroke="#191970" d="M1726.6179,-425.4268C1672.8287,-406.7586 1554.9605,-366.5654 1513,-358 1429.0242,-340.858 1188.5105,-383.6788 1129,-322 1098.3177,-290.1998 1107.5049,-232.8437 1115.1738,-202.8955"/>
<polygon fill="#191970" stroke="#191970" points="1118.5629,-203.7712 1117.8538,-193.2001 1111.8159,-201.9061 1118.5629,-203.7712"/>
</g>
<!-- Node45&#45;&gt;Node4 -->
<g id="edge58" class="edge">
<title>Node45&#45;&gt;Node4</title>
<path fill="none" stroke="#191970" d="M1057.3874,-173.9581C983.6609,-162.8991 862.3644,-144.7047 784.624,-133.0436"/>
<polygon fill="#191970" stroke="#191970" points="784.8331,-129.5359 774.4245,-131.5137 783.7947,-136.4584 784.8331,-129.5359"/>
</g>
<!-- Node45&#45;&gt;Node5 -->
<g id="edge59" class="edge">
<title>Node45&#45;&gt;Node5</title>
<path fill="none" stroke="#191970" d="M1106.0243,-173.8845C1074.1763,-153.4356 999.5237,-105.5029 961.3601,-80.999"/>
<polygon fill="#191970" stroke="#191970" points="963.2318,-78.0414 952.9259,-75.5836 959.4497,-83.9317 963.2318,-78.0414"/>
</g>
<!-- Node45&#45;&gt;Node16 -->
<g id="edge57" class="edge">
<title>Node45&#45;&gt;Node16</title>
<path fill="none" stroke="#191970" d="M1134.0618,-173.773C1155.9612,-158.0026 1202.0188,-127.1009 1246,-112 1299.342,-93.6851 1465.4775,-75.946 1535.9156,-69.0343"/>
<polygon fill="#191970" stroke="#191970" points="1536.3638,-72.5073 1545.9786,-68.0568 1535.687,-65.5401 1536.3638,-72.5073"/>
</g>
<!-- Node46&#45;&gt;Node4 -->
<g id="edge62" class="edge">
<title>Node46&#45;&gt;Node4</title>
<path fill="none" stroke="#191970" d="M1200.2008,-429.812C1035.4413,-419.8697 695.6117,-398.296 687,-389 621.8897,-318.7158 677.0128,-188.8178 701.1046,-140.6282"/>
<polygon fill="#191970" stroke="#191970" points="704.2674,-142.1309 705.7201,-131.6361 698.0398,-138.9343 704.2674,-142.1309"/>
</g>
<!-- Node46&#45;&gt;Node5 -->
<g id="edge64" class="edge">
<title>Node46&#45;&gt;Node5</title>
<path fill="none" stroke="#191970" d="M1224.1119,-425.4699C1176.8368,-417.3411 1117.4211,-404.5197 1098,-389 1096.3325,-387.6675 981.1703,-153.7491 947.2822,-84.8707"/>
<polygon fill="#191970" stroke="#191970" points="950.287,-83.0497 942.7321,-75.6217 944.0059,-86.1397 950.287,-83.0497"/>
</g>
<!-- Node46&#45;&gt;Node16 -->
<g id="edge61" class="edge">
<title>Node46&#45;&gt;Node16</title>
<path fill="none" stroke="#191970" d="M1292.7126,-425.4992C1301.1918,-409.344 1320.5348,-376.4798 1346,-358 1385.9277,-329.0249 1422.3256,-362.1442 1451,-322 1503.5652,-248.4088 1268.3919,-243.6161 1318,-168 1366.6757,-93.8051 1480.0621,-73.5648 1535.8429,-68.0544"/>
<polygon fill="#191970" stroke="#191970" points="1536.2268,-71.5342 1545.8774,-67.1621 1535.6066,-64.5617 1536.2268,-71.5342"/>
</g>
<!-- Node46&#45;&gt;Node20 -->
<g id="edge63" class="edge">
<title>Node46&#45;&gt;Node20</title>
<path fill="none" stroke="#191970" d="M1289.6431,-425.4042C1292.5539,-410.224 1299.6114,-380.1257 1313,-358 1319.6424,-347.023 1329.3814,-336.6372 1338.1018,-328.5214"/>
<polygon fill="#191970" stroke="#191970" points="1340.5624,-331.0169 1345.706,-321.7544 1335.9089,-325.7877 1340.5624,-331.0169"/>
</g>
<!-- Node47 -->
<g id="node31" class="node">
<title>Node47</title>
<g id="a_node31"><a xlink:href="Indices_8h.html" target="_top" xlink:title="iDynTree/Model/Indices.h">
<polygon fill="none" stroke="#000000" points="2336,-302.5 2336,-321.5 2474,-321.5 2474,-302.5 2336,-302.5"/>
<text text-anchor="middle" x="2405" y="-309.5" font-family="FreeSans.ttf" font-size="10.00" fill="#000000">iDynTree/Model/Indices.h</text>
</a>
</g>
</g>
<!-- Node46&#45;&gt;Node47 -->
<g id="edge65" class="edge">
<title>Node46&#45;&gt;Node47</title>
<path fill="none" stroke="#191970" d="M1375.7745,-433.0036C1598.571,-427.6286 2174.3065,-411.7085 2258,-389 2305.7133,-376.054 2355.5115,-345.8657 2383.1606,-327.3678"/>
<polygon fill="#191970" stroke="#191970" points="2385.3576,-330.1061 2391.6531,-321.5845 2381.4175,-324.3203 2385.3576,-330.1061"/>
</g>
<!-- Node48 -->
<g id="node32" class="node">
<title>Node48</title>
<g id="a_node32"><a xlink:href="FreeFloatingMatrices_8h.html" target="_top" xlink:title="iDynTree/Model/FreeFloating\lMatrices.h">
<polygon fill="none" stroke="#000000" points="1107,-358.5 1107,-388.5 1261,-388.5 1261,-358.5 1107,-358.5"/>
<text text-anchor="start" x="1115" y="-376.5" font-family="FreeSans.ttf" font-size="10.00" fill="#000000">iDynTree/Model/FreeFloating</text>
<text text-anchor="middle" x="1184" y="-365.5" font-family="FreeSans.ttf" font-size="10.00" fill="#000000">Matrices.h</text>
</a>
</g>
</g>
<!-- Node46&#45;&gt;Node48 -->
<g id="edge67" class="edge">
<title>Node46&#45;&gt;Node48</title>
<path fill="none" stroke="#191970" d="M1271.75,-425.3906C1257.5445,-416.9903 1236.4401,-404.5103 1218.4883,-393.8945"/>
<polygon fill="#191970" stroke="#191970" points="1219.8304,-390.622 1209.4413,-388.5446 1216.2673,-396.6474 1219.8304,-390.622"/>
</g>
<!-- Node49 -->
<g id="node33" class="node">
<title>Node49</title>
<g id="a_node33"><a xlink:href="LinkState_8h.html" target="_top" xlink:title="iDynTree/Model/LinkState.h">
<polygon fill="none" stroke="#ff0000" points="1354.5,-364 1354.5,-383 1503.5,-383 1503.5,-364 1354.5,-364"/>
<text text-anchor="middle" x="1429" y="-371" font-family="FreeSans.ttf" font-size="10.00" fill="#000000">iDynTree/Model/LinkState.h</text>
</a>
</g>
</g>
<!-- Node46&#45;&gt;Node49 -->
<g id="edge69" class="edge">
<title>Node46&#45;&gt;Node49</title>
<path fill="none" stroke="#191970" d="M1310.0313,-425.3906C1333.6231,-415.1005 1371.2501,-398.6888 1397.8633,-387.0809"/>
<polygon fill="#191970" stroke="#191970" points="1399.3567,-390.248 1407.1235,-383.0419 1396.5581,-383.8318 1399.3567,-390.248"/>
</g>
<!-- Node47&#45;&gt;Node16 -->
<g id="edge66" class="edge">
<title>Node47&#45;&gt;Node16</title>
<path fill="none" stroke="#191970" d="M2394.9558,-302.142C2359.7605,-268.3115 2237.343,-156.5717 2112,-112 2016.6927,-78.1089 1702.1371,-68.7546 1600.1962,-66.5812"/>
<polygon fill="#191970" stroke="#191970" points="1600.2608,-63.0819 1590.1913,-66.3767 1600.1177,-70.0804 1600.2608,-63.0819"/>
</g>
<!-- Node48&#45;&gt;Node20 -->
<g id="edge68" class="edge">
<title>Node48&#45;&gt;Node20</title>
<path fill="none" stroke="#191970" d="M1226.5652,-358.4554C1255.5975,-348.194 1293.6541,-334.7429 1321.3409,-324.9571"/>
<polygon fill="#191970" stroke="#191970" points="1322.7741,-328.1628 1331.0362,-321.5303 1320.4414,-321.5629 1322.7741,-328.1628"/>
</g>
<!-- Node49&#45;&gt;Node21 -->
<g id="edge71" class="edge">
<title>Node49&#45;&gt;Node21</title>
<path fill="none" stroke="#191970" d="M1354.2482,-365.413C1327.6742,-362.7501 1297.5259,-359.9699 1270,-358 924.0751,-333.2435 833.3253,-354.3861 484.1833,-322.0212"/>
<polygon fill="#191970" stroke="#191970" points="484.3248,-318.5192 474.0423,-321.0729 483.673,-325.4888 484.3248,-318.5192"/>
</g>
<!-- Node49&#45;&gt;Node39 -->
<g id="edge70" class="edge">
<title>Node49&#45;&gt;Node39</title>
<path fill="none" stroke="#191970" d="M1451.0313,-363.8906C1474.6231,-353.6005 1512.2501,-337.1888 1538.8633,-325.5809"/>
<polygon fill="#191970" stroke="#191970" points="1540.3567,-328.748 1548.1235,-321.5419 1537.5581,-322.3318 1540.3567,-328.748"/>
</g>
<!-- Node49&#45;&gt;Node43 -->
<g id="edge75" class="edge">
<title>Node49&#45;&gt;Node43</title>
<path fill="none" stroke="#191970" d="M1503.7478,-365.1418C1624.564,-351.6324 1858.0075,-325.5292 1945.1258,-315.7878"/>
<polygon fill="#191970" stroke="#191970" points="1945.6951,-319.246 1955.2442,-314.6563 1944.9171,-312.2894 1945.6951,-319.246"/>
</g>
<!-- Node49&#45;&gt;Node47 -->
<g id="edge74" class="edge">
<title>Node49&#45;&gt;Node47</title>
<path fill="none" stroke="#191970" d="M1503.7203,-367.2791C1540.7839,-364.288 1586.2345,-360.7619 1627,-358 1906.3726,-339.0723 1976.5266,-339.3755 2256,-322 2278.5518,-320.5979 2303.0175,-318.9915 2325.4802,-317.4823"/>
<polygon fill="#191970" stroke="#191970" points="2325.904,-320.9618 2335.6459,-316.7969 2325.433,-313.9777 2325.904,-320.9618"/>
</g>
<!-- Node49&#45;&gt;Node50 -->
<g id="edge72" class="edge">
<title>Node49&#45;&gt;Node50</title>
<path fill="none" stroke="#191970" d="M1354.2251,-365.7144C1327.6491,-363.0787 1297.5054,-360.2387 1270,-358 1209.7411,-353.0954 823.6665,-328.3937 650.196,-317.3496"/>
<polygon fill="#191970" stroke="#191970" points="650.2888,-313.8485 640.0866,-316.7061 649.8441,-320.8344 650.2888,-313.8485"/>
</g>
<!-- Node50&#45;&gt;Node22 -->
<g id="edge73" class="edge">
<title>Node50&#45;&gt;Node22</title>
<path fill="none" stroke="#191970" d="M546.9375,-302.3906C529.8912,-293.7976 504.3764,-280.9356 483.0144,-270.1671"/>
<polygon fill="#191970" stroke="#191970" points="484.3497,-266.9207 473.8446,-265.5446 481.1986,-273.1714 484.3497,-266.9207"/>
</g>
<!-- Node57&#45;&gt;Node39 -->
<g id="edge81" class="edge">
<title>Node57&#45;&gt;Node39</title>
<path fill="none" stroke="#191970" d="M2120.0823,-425.4611C2054.1882,-410.5496 1922.295,-381.0398 1810,-358 1749.6667,-345.6213 1680.581,-332.4892 1632.0721,-323.439"/>
<polygon fill="#191970" stroke="#191970" points="1632.5154,-319.9615 1622.0437,-321.5715 1631.2339,-326.8432 1632.5154,-319.9615"/>
</g>
<!-- Node57&#45;&gt;Node43 -->
<g id="edge89" class="edge">
<title>Node57&#45;&gt;Node43</title>
<path fill="none" stroke="#191970" d="M2142.2146,-425.4956C2124.6298,-416.7695 2098.4598,-403.0907 2077,-389 2048.01,-369.965 2016.9053,-344.5816 1997.6979,-328.261"/>
<polygon fill="#191970" stroke="#191970" points="1999.8682,-325.5115 1989.9979,-321.6608 1995.3126,-330.8262 1999.8682,-325.5115"/>
</g>
<!-- Node57&#45;&gt;Node47 -->
<g id="edge82" class="edge">
<title>Node57&#45;&gt;Node47</title>
<path fill="none" stroke="#191970" d="M2228.6973,-429.8318C2316.0561,-422.3748 2460.0591,-407.4463 2476,-389 2485.0087,-378.5754 2482.5807,-370.1046 2476,-358 2468.3623,-343.9511 2454.3791,-333.5317 2440.8292,-326.1958"/>
<polygon fill="#191970" stroke="#191970" points="2442.113,-322.9253 2431.601,-321.603 2438.9941,-329.1921 2442.113,-322.9253"/>
</g>
<!-- Node58 -->
<g id="node36" class="node">
<title>Node58</title>
<g id="a_node36"><a xlink:href="IJoint_8h.html" target="_top" xlink:title="iDynTree/Model/IJoint.h">
<polygon fill="none" stroke="#000000" points="2523,-364 2523,-383 2651,-383 2651,-364 2523,-364"/>
<text text-anchor="middle" x="2587" y="-371" font-family="FreeSans.ttf" font-size="10.00" fill="#000000">iDynTree/Model/IJoint.h</text>
</a>
</g>
</g>
<!-- Node57&#45;&gt;Node58 -->
<g id="edge77" class="edge">
<title>Node57&#45;&gt;Node58</title>
<path fill="none" stroke="#191970" d="M2228.711,-427.449C2298.7157,-419.223 2411.8731,-405.0711 2509,-389 2516.3874,-387.7776 2524.1455,-386.3775 2531.7856,-384.9299"/>
<polygon fill="#191970" stroke="#191970" points="2532.566,-388.3439 2541.7204,-383.0103 2531.238,-381.471 2532.566,-388.3439"/>
</g>
<!-- Node59 -->
<g id="node37" class="node">
<title>Node59</title>
<g id="a_node37"><a xlink:href="Link_8h.html" target="_top" xlink:title="iDynTree/Model/Link.h">
<polygon fill="none" stroke="#ff0000" points="2343,-364 2343,-383 2467,-383 2467,-364 2343,-364"/>
<text text-anchor="middle" x="2405" y="-371" font-family="FreeSans.ttf" font-size="10.00" fill="#000000">iDynTree/Model/Link.h</text>
</a>
</g>
</g>
<!-- Node57&#45;&gt;Node59 -->
<g id="edge79" class="edge">
<title>Node57&#45;&gt;Node59</title>
<path fill="none" stroke="#191970" d="M2199.7021,-425.4581C2242.1772,-414.7082 2311.292,-397.2162 2357.4413,-385.5365"/>
<polygon fill="#191970" stroke="#191970" points="2358.3738,-388.9109 2367.2094,-383.0643 2356.6563,-382.1248 2358.3738,-388.9109"/>
</g>
<!-- Node64 -->
<g id="node38" class="node">
<title>Node64</title>
<g id="a_node38"><a xlink:href="SolidShapes_8h.html" target="_top" xlink:title="iDynTree/Model/SolidShapes.h">
<polygon fill="none" stroke="#000000" points="2085.5,-364 2085.5,-383 2248.5,-383 2248.5,-364 2085.5,-364"/>
<text text-anchor="middle" x="2167" y="-371" font-family="FreeSans.ttf" font-size="10.00" fill="#000000">iDynTree/Model/SolidShapes.h</text>
</a>
</g>
</g>
<!-- Node57&#45;&gt;Node64 -->
<g id="edge83" class="edge">
<title>Node57&#45;&gt;Node64</title>
<path fill="none" stroke="#191970" d="M2162.7813,-425.3906C2163.4743,-416.8657 2164.509,-404.1392 2165.3802,-393.4235"/>
<polygon fill="#191970" stroke="#191970" points="2168.8858,-393.4956 2166.2077,-383.2449 2161.9088,-392.9283 2168.8858,-393.4956"/>
</g>
<!-- Node65 -->
<g id="node39" class="node">
<title>Node65</title>
<polygon fill="none" stroke="#bfbfbf" points="2197.5,-302.5 2197.5,-321.5 2246.5,-321.5 2246.5,-302.5 2197.5,-302.5"/>
<text text-anchor="middle" x="2222" y="-309.5" font-family="FreeSans.ttf" font-size="10.00" fill="#000000">cstdlib</text>
</g>
<!-- Node57&#45;&gt;Node65 -->
<g id="edge88" class="edge">
<title>Node57&#45;&gt;Node65</title>
<path fill="none" stroke="#191970" d="M2205.4832,-425.3976C2225.0751,-418.6689 2246.3795,-407.4539 2258,-389 2270.254,-369.5402 2254.2491,-345.2392 2239.8488,-329.2019"/>
<polygon fill="#191970" stroke="#191970" points="2242.0613,-326.4511 2232.6228,-321.6382 2236.9998,-331.2866 2242.0613,-326.4511"/>
</g>
<!-- Node58&#45;&gt;Node47 -->
<g id="edge78" class="edge">
<title>Node58&#45;&gt;Node47</title>
<path fill="none" stroke="#191970" d="M2558.5625,-363.8906C2527.4428,-353.3749 2477.4036,-336.466 2442.9515,-324.8243"/>
<polygon fill="#191970" stroke="#191970" points="2443.832,-321.4274 2433.2378,-321.5419 2441.5911,-328.0591 2443.832,-321.4274"/>
</g>
<!-- Node59&#45;&gt;Node47 -->
<g id="edge80" class="edge">
<title>Node59&#45;&gt;Node47</title>
<path fill="none" stroke="#191970" d="M2405,-363.8906C2405,-355.3657 2405,-342.6392 2405,-331.9235"/>
<polygon fill="#191970" stroke="#191970" points="2408.5001,-331.7448 2405,-321.7449 2401.5001,-331.7449 2408.5001,-331.7448"/>
</g>
<!-- Node64&#45;&gt;Node16 -->
<g id="edge85" class="edge">
<title>Node64&#45;&gt;Node16</title>
<path fill="none" stroke="#191970" d="M2156.8188,-363.7093C2137.6253,-344.1444 2098,-298.0003 2098,-250.5 2098,-250.5 2098,-250.5 2098,-183.5 2098,-105.6115 2013.0256,-132.9232 1938,-112 1816.3296,-78.0684 1665.1656,-69.1384 1600.1652,-66.8101"/>
<polygon fill="#191970" stroke="#191970" points="1600.2404,-63.3108 1590.1305,-66.4795 1600.0098,-70.307 1600.2404,-63.3108"/>
</g>
<!-- Node64&#45;&gt;Node39 -->
<g id="edge87" class="edge">
<title>Node64&#45;&gt;Node39</title>
<path fill="none" stroke="#191970" d="M2085.2415,-365.0776C1971.7864,-353.3901 1767.6964,-332.3657 1653.3833,-320.5897"/>
<polygon fill="#191970" stroke="#191970" points="1653.5894,-317.0925 1643.2833,-319.5493 1652.872,-324.0557 1653.5894,-317.0925"/>
</g>
<!-- Node64&#45;&gt;Node43 -->
<g id="edge86" class="edge">
<title>Node64&#45;&gt;Node43</title>
<path fill="none" stroke="#191970" d="M2137.625,-363.8906C2103.6935,-352.7907 2047.987,-334.5676 2012.4265,-322.9347"/>
<polygon fill="#191970" stroke="#191970" points="2013.1176,-319.4784 2002.525,-319.6957 2010.9412,-326.1314 2013.1176,-319.4784"/>
</g>
<!-- Node64&#45;&gt;Node65 -->
<g id="edge84" class="edge">
<title>Node64&#45;&gt;Node65</title>
<path fill="none" stroke="#191970" d="M2175.5938,-363.8906C2183.8597,-354.6478 2196.5426,-340.466 2206.5617,-329.2628"/>
<polygon fill="#191970" stroke="#191970" points="2209.2278,-331.5321 2213.2851,-321.7449 2204.01,-326.8657 2209.2278,-331.5321"/>
</g>
<!-- Node68&#45;&gt;Node39 -->
<g id="edge100" class="edge">
<title>Node68&#45;&gt;Node39</title>
<path fill="none" stroke="#191970" d="M1605.5731,-481.2553C1602.2685,-459.1805 1593.56,-403.7228 1583,-358 1580.9743,-349.2292 1578.3314,-339.6326 1575.9579,-331.4847"/>
<polygon fill="#191970" stroke="#191970" points="1579.2811,-330.3807 1573.0676,-321.7992 1572.5734,-332.3825 1579.2811,-330.3807"/>
</g>
<!-- Node68&#45;&gt;Node44 -->
<g id="edge101" class="edge">
<title>Node68&#45;&gt;Node44</title>
<path fill="none" stroke="#191970" d="M1632.2702,-481.3733C1656.3966,-472.1822 1692.9362,-458.2624 1719.6877,-448.0713"/>
<polygon fill="#191970" stroke="#191970" points="1720.9607,-451.3318 1729.0596,-444.5011 1718.4687,-444.7904 1720.9607,-451.3318"/>
</g>
<!-- Node69&#45;&gt;Node5 -->
<g id="edge106" class="edge">
<title>Node69&#45;&gt;Node5</title>
<path fill="none" stroke="#191970" d="M1200.8619,-302.1686C1209.9763,-277.1951 1229.9665,-210.3029 1201,-168 1176.1113,-131.6524 1056.3212,-96.0183 987.3036,-78.0452"/>
<polygon fill="#191970" stroke="#191970" points="988.0633,-74.6267 977.5065,-75.5235 986.3184,-81.4057 988.0633,-74.6267"/>
</g>
<!-- Node69&#45;&gt;Node16 -->
<g id="edge103" class="edge">
<title>Node69&#45;&gt;Node16</title>
<path fill="none" stroke="#191970" d="M1256.0738,-303.2779C1259.4302,-302.8324 1262.7568,-302.4031 1266,-302 1419.8662,-282.8767 1469.4454,-324.5883 1613,-266 1633.5005,-257.6332 1633.0388,-246.4343 1652,-235 1686.0842,-214.4461 1701.9679,-222.6251 1734,-199 1765.6968,-175.6222 1778.245,-168.9054 1792,-132 1795.1044,-123.6708 1797.6178,-118.8886 1792,-112 1768.1929,-82.8071 1656.5921,-71.6175 1600.4404,-67.7817"/>
<polygon fill="#191970" stroke="#191970" points="1600.5174,-64.2795 1590.313,-67.1289 1600.0671,-71.265 1600.5174,-64.2795"/>
</g>
<!-- Node69&#45;&gt;Node34 -->
<g id="edge105" class="edge">
<title>Node69&#45;&gt;Node34</title>
<path fill="none" stroke="#191970" d="M1255.0271,-302.4581C1330.5925,-290.0323 1460.9406,-268.598 1528.1575,-257.545"/>
<polygon fill="#191970" stroke="#191970" points="1529.0857,-260.9394 1538.3853,-255.8631 1527.9499,-254.0322 1529.0857,-260.9394"/>
</g>
<!-- Node69&#45;&gt;Node45 -->
<g id="edge104" class="edge">
<title>Node69&#45;&gt;Node45</title>
<path fill="none" stroke="#191970" d="M1191.2876,-302.3416C1178.6886,-281.0393 1148.3365,-229.7203 1131.9431,-202.0025"/>
<polygon fill="#191970" stroke="#191970" points="1134.8819,-200.096 1126.7786,-193.2705 1128.8568,-203.6595 1134.8819,-200.096"/>
</g>
<!-- Node70&#45;&gt;Node4 -->
<g id="edge109" class="edge">
<title>Node70&#45;&gt;Node4</title>
<path fill="none" stroke="#191970" d="M132.2353,-537.3752C113.2959,-519.322 76,-478.2769 76,-435 76,-435 76,-435 76,-250.5 76,-86.9561 380.4558,-153.3451 619.784,-132.0475"/>
<polygon fill="#191970" stroke="#191970" points="620.4301,-135.5021 630.0554,-131.0746 619.7699,-128.5333 620.4301,-135.5021"/>
</g>
<!-- Node71&#45;&gt;Node16 -->
<g id="edge120" class="edge">
<title>Node71&#45;&gt;Node16</title>
<path fill="none" stroke="#191970" d="M2091.1052,-542.9547C2289.6829,-532.6613 2755,-501.4515 2755,-435 2755,-435 2755,-435 2755,-183.5 2755,-143.0866 3084.6955,-188.7572 2404,-112 2092.2725,-76.8487 1711.9982,-68.2725 1600.29,-66.4461"/>
<polygon fill="#191970" stroke="#191970" points="1600.09,-62.9427 1590.0363,-66.2854 1599.9802,-69.9418 1600.09,-62.9427"/>
</g>
<!-- Node71&#45;&gt;Node43 -->
<g id="edge121" class="edge">
<title>Node71&#45;&gt;Node43</title>
<path fill="none" stroke="#191970" d="M2002.0294,-537.4967C1998.4491,-502.4391 1985.9354,-379.9096 1981.0119,-331.7"/>
<polygon fill="#191970" stroke="#191970" points="1984.4806,-331.2142 1979.9826,-321.6216 1977.5168,-331.9255 1984.4806,-331.2142"/>
</g>
<!-- Node71&#45;&gt;Node57 -->
<g id="edge112" class="edge">
<title>Node71&#45;&gt;Node57</title>
<path fill="none" stroke="#191970" d="M2008.6798,-537.2459C2017.3118,-523.1572 2034.9712,-497.0468 2056,-481 2074.9993,-466.5019 2099.2711,-455.5357 2119.7936,-447.9539"/>
<polygon fill="#191970" stroke="#191970" points="2120.973,-451.2492 2129.2261,-444.6057 2118.6314,-444.6525 2120.973,-451.2492"/>
</g>
<!-- Node72 -->
<g id="node46" class="node">
<title>Node72</title>
<g id="a_node46"><a xlink:href="Sensors_8h.html" target="_top" xlink:title="iDynTree/Sensors/Sensors.h">
<polygon fill="none" stroke="#ff0000" points="2064.5,-481.5 2064.5,-500.5 2215.5,-500.5 2215.5,-481.5 2064.5,-481.5"/>
<text text-anchor="middle" x="2140" y="-488.5" font-family="FreeSans.ttf" font-size="10.00" fill="#000000">iDynTree/Sensors/Sensors.h</text>
</a>
</g>
</g>
<!-- Node71&#45;&gt;Node72 -->
<g id="edge113" class="edge">
<title>Node71&#45;&gt;Node72</title>
<path fill="none" stroke="#191970" d="M2026.5511,-537.3733C2048.8391,-528.2629 2082.4937,-514.5062 2107.3637,-504.3404"/>
<polygon fill="#191970" stroke="#191970" points="2108.8239,-507.5247 2116.7562,-500.5011 2106.1753,-501.0451 2108.8239,-507.5247"/>
</g>
<!-- Node73 -->
<g id="node47" class="node">
<title>Node73</title>
<polygon fill="none" stroke="#bfbfbf" points="1895,-481.5 1895,-500.5 1953,-500.5 1953,-481.5 1895,-481.5"/>
<text text-anchor="middle" x="1924" y="-488.5" font-family="FreeSans.ttf" font-size="10.00" fill="#000000">memory</text>
</g>
<!-- Node71&#45;&gt;Node73 -->
<g id="edge119" class="edge">
<title>Node71&#45;&gt;Node73</title>
<path fill="none" stroke="#191970" d="M1989.2393,-537.2455C1977.3448,-528.814 1959.935,-516.4729 1946.0915,-506.6598"/>
<polygon fill="#191970" stroke="#191970" points="1947.7854,-503.5704 1937.6031,-500.6427 1943.7372,-509.2811 1947.7854,-503.5704"/>
</g>
<!-- Node72&#45;&gt;Node16 -->
<g id="edge114" class="edge">
<title>Node72&#45;&gt;Node16</title>
<path fill="none" stroke="#191970" d="M2215.8114,-486.7571C2324.2724,-480.0754 2518.0289,-465.6956 2585,-445 2648.746,-425.301 2717,-440.2203 2717,-373.5 2717,-373.5 2717,-373.5 2717,-183.5 2717,-125.7786 1787.2179,-76.8229 1600.445,-67.571"/>
<polygon fill="#191970" stroke="#191970" points="1600.341,-64.0618 1590.181,-67.0656 1599.9967,-71.0533 1600.341,-64.0618"/>
</g>
<!-- Node72&#45;&gt;Node19 -->
<g id="edge116" class="edge">
<title>Node72&#45;&gt;Node19</title>
<path fill="none" stroke="#191970" d="M2064.2207,-486.5853C2032.6215,-484.7853 1995.538,-482.726 1962,-481 1619.8568,-463.3915 1530.3317,-498.8861 1192,-445 1168.8932,-441.3198 1006.1902,-404.8735 989,-389 972.8834,-374.1179 966.0233,-349.2224 963.1159,-331.7789"/>
<polygon fill="#191970" stroke="#191970" points="966.5427,-331.0051 961.7186,-321.5723 959.6074,-331.9546 966.5427,-331.0051"/>
</g>
<!-- Node72&#45;&gt;Node43 -->
<g id="edge115" class="edge">
<title>Node72&#45;&gt;Node43</title>
<path fill="none" stroke="#191970" d="M2128.3679,-481.4154C2117.4522,-472.3026 2100.7873,-458.083 2087,-445 2061.9193,-421.2005 2054.9927,-415.6792 2033,-389 2017.199,-369.832 2001.1067,-346.2513 1990.6501,-330.2728"/>
<polygon fill="#191970" stroke="#191970" points="1993.5608,-328.3283 1985.1895,-321.8342 1987.6839,-332.1313 1993.5608,-328.3283"/>
</g>
<!-- Node72&#45;&gt;Node47 -->
<g id="edge118" class="edge">
<title>Node72&#45;&gt;Node47</title>
<path fill="none" stroke="#191970" d="M2215.5658,-487.5683C2345.9507,-479.8905 2604.5751,-456.3529 2660,-389 2668.7547,-378.3612 2668.8354,-368.5718 2660,-358 2637.8426,-331.4879 2550.4595,-320.2302 2484.107,-315.4661"/>
<polygon fill="#191970" stroke="#191970" points="2484.281,-311.9699 2474.0663,-314.7825 2483.8055,-318.9537 2484.281,-311.9699"/>
</g>
<!-- Node72&#45;&gt;Node57 -->
<g id="edge117" class="edge">
<title>Node72&#45;&gt;Node57</title>
<path fill="none" stroke="#191970" d="M2143.8321,-481.2455C2146.7659,-473.7776 2150.9047,-463.2427 2154.491,-454.1137"/>
<polygon fill="#191970" stroke="#191970" points="2157.8129,-455.23 2158.2118,-444.6427 2151.2976,-452.6704 2157.8129,-455.23"/>
</g>
<!-- Node74&#45;&gt;Node4 -->
<g id="edge125" class="edge">
<title>Node74&#45;&gt;Node4</title>
<path fill="none" stroke="#191970" d="M243.4862,-363.9594C201.2296,-354.9619 146.2847,-340.1631 133,-322 111.6932,-292.869 142.0918,-258.6324 170,-235 238.3329,-177.1365 272.9132,-188.8198 360,-168 384.8965,-162.048 526.0492,-144.3604 621.5952,-132.7331"/>
<polygon fill="#191970" stroke="#191970" points="622.0558,-136.203 631.5606,-131.5222 621.2114,-129.2541 622.0558,-136.203"/>
</g>
<!-- Node74&#45;&gt;Node5 -->
<g id="edge132" class="edge">
<title>Node74&#45;&gt;Node5</title>
<path fill="none" stroke="#191970" d="M298.6031,-363.8296C304.9811,-348.1407 319.8136,-317.3532 343,-302 413.5687,-255.2719 449.7391,-292.8633 530,-266 682.9819,-214.7969 851.9095,-117.7718 913.6832,-80.8079"/>
<polygon fill="#191970" stroke="#191970" points="915.5681,-83.7586 922.3328,-75.6045 911.9596,-77.7603 915.5681,-83.7586"/>
</g>
<!-- Node74&#45;&gt;Node19 -->
<g id="edge124" class="edge">
<title>Node74&#45;&gt;Node19</title>
<path fill="none" stroke="#191970" d="M375.845,-366.7284C484.9978,-357.4777 685.847,-340.0756 867.2762,-322.158"/>
<polygon fill="#191970" stroke="#191970" points="867.6636,-325.6369 877.27,-321.1686 866.9738,-318.6709 867.6636,-325.6369"/>
</g>
<!-- Node74&#45;&gt;Node20 -->
<g id="edge126" class="edge">
<title>Node74&#45;&gt;Node20</title>
<path fill="none" stroke="#191970" d="M375.5785,-370.6964C540.2563,-364.6451 927.4777,-348.7706 1263.9282,-322.0425"/>
<polygon fill="#191970" stroke="#191970" points="1264.6792,-325.4938 1274.3686,-321.2083 1264.1216,-318.516 1264.6792,-325.4938"/>
</g>
<!-- Node74&#45;&gt;Node22 -->
<g id="edge128" class="edge">
<title>Node74&#45;&gt;Node22</title>
<path fill="none" stroke="#191970" d="M294.3019,-363.9308C293.7407,-348.9321 294.8706,-319.7691 310,-302 322.5205,-287.2949 339.7394,-276.7735 357.665,-269.2503"/>
<polygon fill="#191970" stroke="#191970" points="359.0338,-272.4734 367.0822,-265.5832 356.4937,-265.9505 359.0338,-272.4734"/>
</g>
<!-- Node74&#45;&gt;Node39 -->
<g id="edge131" class="edge">
<title>Node74&#45;&gt;Node39</title>
<path fill="none" stroke="#191970" d="M375.589,-370.3235C602.0508,-361.3313 1241.2479,-335.4801 1451,-322 1462.5572,-321.2573 1474.7366,-320.3625 1486.7164,-319.4175"/>
<polygon fill="#191970" stroke="#191970" points="1487.027,-322.9039 1496.7145,-318.6141 1486.4663,-315.9264 1487.027,-322.9039"/>
</g>
<!-- Node74&#45;&gt;Node28 -->
<g id="edge127" class="edge">
<title>Node74&#45;&gt;Node28</title>
<path fill="none" stroke="#191970" d="M233.6166,-363.9409C183.9193,-355.0279 119.1397,-340.3626 100,-322 49.1289,-273.1942 14.6409,-220.2206 62,-168 86.9191,-140.5229 311.4884,-128.9061 440.9773,-124.457"/>
<polygon fill="#191970" stroke="#191970" points="441.4055,-127.9447 451.2824,-124.1111 441.1706,-120.9486 441.4055,-127.9447"/>
</g>
<!-- Node75 -->
<g id="node49" class="node">
<title>Node75</title>
<polygon fill="none" stroke="#bfbfbf" points="142.5,-302.5 142.5,-321.5 219.5,-321.5 219.5,-302.5 142.5,-302.5"/>
<text text-anchor="middle" x="181" y="-309.5" font-family="FreeSans.ttf" font-size="10.00" fill="#000000">Eigen/Dense</text>
</g>
<!-- Node74&#45;&gt;Node75 -->
<g id="edge123" class="edge">
<title>Node74&#45;&gt;Node75</title>
<path fill="none" stroke="#191970" d="M277.1875,-363.8906C258.5315,-353.8262 229.0203,-337.9057 207.6026,-326.3514"/>
<polygon fill="#191970" stroke="#191970" points="209.1502,-323.2095 198.6874,-321.5419 205.8266,-329.3702 209.1502,-323.2095"/>
</g>
<!-- Node52 -->
<g id="node50" class="node">
<title>Node52</title>
<g id="a_node50"><a xlink:href="SpatialForceVector_8h.html" target="_top" xlink:title="iDynTree/Core/SpatialForce\lVector.h">
<polygon fill="none" stroke="#ff0000" points="179,-235.5 179,-265.5 327,-265.5 327,-235.5 179,-235.5"/>
<text text-anchor="start" x="187" y="-253.5" font-family="FreeSans.ttf" font-size="10.00" fill="#000000">iDynTree/Core/SpatialForce</text>
<text text-anchor="middle" x="253" y="-242.5" font-family="FreeSans.ttf" font-size="10.00" fill="#000000">Vector.h</text>
</a>
</g>
</g>
<!-- Node74&#45;&gt;Node52 -->
<g id="edge129" class="edge">
<title>Node74&#45;&gt;Node52</title>
<path fill="none" stroke="#191970" d="M290.1133,-363.8178C285.094,-353.6064 277.2884,-336.9558 272,-322 266.6089,-306.7537 261.9248,-289.2093 258.5564,-275.3152"/>
<polygon fill="#191970" stroke="#191970" points="261.9445,-274.4329 256.247,-265.5004 255.1305,-276.0362 261.9445,-274.4329"/>
</g>
<!-- Node52&#45;&gt;Node4 -->
<g id="edge130" class="edge">
<title>Node52&#45;&gt;Node4</title>
<path fill="none" stroke="#191970" d="M281.7996,-235.3912C318.3322,-216.8419 383.7257,-185.6763 443,-168 477.9623,-157.5738 568.4027,-142.9689 634.584,-133.032"/>
<polygon fill="#191970" stroke="#191970" points="635.2005,-136.4788 644.5736,-131.5397 634.1662,-129.5556 635.2005,-136.4788"/>
</g>
</g>
</svg>
