<?xml version="1.0" encoding="UTF-8" standalone="no"?>
<!DOCTYPE svg PUBLIC "-//W3C//DTD SVG 1.1//EN"
 "http://www.w3.org/Graphics/SVG/1.1/DTD/svg11.dtd">
<!-- Generated by graphviz version 2.40.1 (20161225.0304)
 -->
<!-- Title: InverseKinematics.h Pages: 1 -->
<svg width="1353pt" height="476pt"
 viewBox="0.00 0.00 1352.50 476.00" xmlns="http://www.w3.org/2000/svg" xmlns:xlink="http://www.w3.org/1999/xlink">
<g id="graph0" class="graph" transform="scale(1 1) rotate(0) translate(4 472)">
<title>InverseKinematics.h</title>
<!-- Node0 -->
<g id="node1" class="node">
<title>Node0</title>
<polygon fill="#bfbfbf" stroke="#000000" points="827,-448.5 827,-467.5 943,-467.5 943,-448.5 827,-448.5"/>
<text text-anchor="middle" x="885" y="-455.5" font-family="FreeSans.ttf" font-size="10.00" fill="#000000">InverseKinematics.h</text>
</g>
<!-- Node1 -->
<g id="node2" class="node">
<title>Node1</title>
<polygon fill="none" stroke="#bfbfbf" points="541,-56.5 541,-75.5 585,-75.5 585,-56.5 541,-56.5"/>
<text text-anchor="middle" x="563" y="-63.5" font-family="FreeSans.ttf" font-size="10.00" fill="#000000">string</text>
</g>
<!-- Node0&#45;&gt;Node1 -->
<g id="edge1" class="edge">
<title>Node0&#45;&gt;Node1</title>
<path fill="none" stroke="#191970" d="M826.9327,-456.7766C630.0439,-451.8689 0,-429.6305 0,-346 0,-346 0,-346 0,-178 0,-123.4636 411.6181,-80.3053 530.9437,-68.9397"/>
<polygon fill="#191970" stroke="#191970" points="531.3025,-72.4215 540.9297,-67.9981 530.6453,-65.4524 531.3025,-72.4215"/>
</g>
<!-- Node2 -->
<g id="node3" class="node">
<title>Node2</title>
<polygon fill="none" stroke="#bfbfbf" points="917.5,-336.5 917.5,-355.5 964.5,-355.5 964.5,-336.5 917.5,-336.5"/>
<text text-anchor="middle" x="941" y="-343.5" font-family="FreeSans.ttf" font-size="10.00" fill="#000000">vector</text>
</g>
<!-- Node0&#45;&gt;Node2 -->
<g id="edge2" class="edge">
<title>Node0&#45;&gt;Node2</title>
<path fill="none" stroke="#191970" d="M894.4784,-448.1654C902.5347,-439.3306 913.8937,-425.6786 921,-412 928.5896,-397.3911 933.796,-379.4353 936.9898,-365.9423"/>
<polygon fill="#191970" stroke="#191970" points="940.4842,-366.3469 939.2074,-355.8293 933.6467,-364.8475 940.4842,-366.3469"/>
</g>
<!-- Node3 -->
<g id="node4" class="node">
<title>Node3</title>
<g id="a_node4"><a xlink:href="ConvexHullHelpers_8h.html" target="_top" xlink:title="iDynTree/ConvexHullHelpers.h">
<polygon fill="none" stroke="#000000" points="747.5,-392.5 747.5,-411.5 912.5,-411.5 912.5,-392.5 747.5,-392.5"/>
<text text-anchor="middle" x="830" y="-399.5" font-family="FreeSans.ttf" font-size="10.00" fill="#000000">iDynTree/ConvexHullHelpers.h</text>
</a>
</g>
</g>
<!-- Node0&#45;&gt;Node3 -->
<g id="edge3" class="edge">
<title>Node0&#45;&gt;Node3</title>
<path fill="none" stroke="#191970" d="M875.4197,-448.2455C867.4542,-440.1352 855.9359,-428.4075 846.4921,-418.7919"/>
<polygon fill="#191970" stroke="#191970" points="848.9747,-416.3247 839.4705,-411.6427 843.9805,-421.2297 848.9747,-416.3247"/>
</g>
<!-- Node30 -->
<g id="node31" class="node">
<title>Node30</title>
<g id="a_node31"><a xlink:href="Direction_8h.html" target="_top" xlink:title="iDynTree/Core/Direction.h">
<polygon fill="none" stroke="#000000" points="1046.5,-168.5 1046.5,-187.5 1187.5,-187.5 1187.5,-168.5 1046.5,-168.5"/>
<text text-anchor="middle" x="1117" y="-175.5" font-family="FreeSans.ttf" font-size="10.00" fill="#000000">iDynTree/Core/Direction.h</text>
</a>
</g>
</g>
<!-- Node0&#45;&gt;Node30 -->
<g id="edge55" class="edge">
<title>Node0&#45;&gt;Node30</title>
<path fill="none" stroke="#191970" d="M910.3925,-448.4421C946.6703,-432.9427 1009,-398.6516 1009,-346 1009,-346 1009,-346 1009,-290 1009,-244.5175 1055.7218,-210.4132 1087.7047,-192.3957"/>
<polygon fill="#191970" stroke="#191970" points="1089.5574,-195.3728 1096.686,-187.5348 1086.2255,-189.2165 1089.5574,-195.3728"/>
</g>
<!-- Node3&#45;&gt;Node1 -->
<g id="edge4" class="edge">
<title>Node3&#45;&gt;Node1</title>
<path fill="none" stroke="#191970" d="M833.0986,-392.2275C838.9401,-372.9094 851,-328.3796 851,-290 851,-290 851,-290 851,-234 851,-203.4754 853.8345,-189.3309 832,-168 786.967,-124.0058 752.9639,-156.5692 695,-132 679.2099,-125.307 677.1327,-120.07 662,-112 639.9688,-100.2512 614.3946,-88.4125 594.7585,-79.6878"/>
<polygon fill="#191970" stroke="#191970" points="595.9226,-76.3761 585.3602,-75.5478 593.1007,-82.7821 595.9226,-76.3761"/>
</g>
<!-- Node3&#45;&gt;Node2 -->
<g id="edge5" class="edge">
<title>Node3&#45;&gt;Node2</title>
<path fill="none" stroke="#191970" d="M849.0816,-392.3733C866.7402,-383.4644 893.2053,-370.1127 913.2098,-360.0203"/>
<polygon fill="#191970" stroke="#191970" points="914.8158,-363.1303 922.1674,-355.5011 911.6628,-356.8806 914.8158,-363.1303"/>
</g>
<!-- Node4 -->
<g id="node5" class="node">
<title>Node4</title>
<g id="a_node5"><a xlink:href="MatrixDynSize_8h.html" target="_top" xlink:title="iDynTree/Core/MatrixDynSize.h">
<polygon fill="none" stroke="#000000" points="43.5,-280.5 43.5,-299.5 210.5,-299.5 210.5,-280.5 43.5,-280.5"/>
<text text-anchor="middle" x="127" y="-287.5" font-family="FreeSans.ttf" font-size="10.00" fill="#000000">iDynTree/Core/MatrixDynSize.h</text>
</a>
</g>
</g>
<!-- Node3&#45;&gt;Node4 -->
<g id="edge6" class="edge">
<title>Node3&#45;&gt;Node4</title>
<path fill="none" stroke="#191970" d="M747.1381,-395.5879C663.2837,-388.4444 530.0866,-375.3008 416,-356 329.1157,-341.3012 229.1743,-316.7405 172.5076,-302.085"/>
<polygon fill="#191970" stroke="#191970" points="173.3397,-298.685 162.7807,-299.5566 171.5785,-305.4599 173.3397,-298.685"/>
</g>
<!-- Node5 -->
<g id="node6" class="node">
<title>Node5</title>
<g id="a_node6"><a xlink:href="Position_8h.html" target="_top" xlink:title="iDynTree/Core/Position.h">
<polygon fill="none" stroke="#000000" points="567,-280.5 567,-299.5 703,-299.5 703,-280.5 567,-280.5"/>
<text text-anchor="middle" x="635" y="-287.5" font-family="FreeSans.ttf" font-size="10.00" fill="#000000">iDynTree/Core/Position.h</text>
</a>
</g>
</g>
<!-- Node3&#45;&gt;Node5 -->
<g id="edge8" class="edge">
<title>Node3&#45;&gt;Node5</title>
<path fill="none" stroke="#191970" d="M813.3744,-392.4509C779.1958,-372.8201 700.8576,-327.8259 660.3277,-304.5472"/>
<polygon fill="#191970" stroke="#191970" points="661.9982,-301.4705 651.5835,-299.5249 658.5118,-307.5405 661.9982,-301.4705"/>
</g>
<!-- Node27 -->
<g id="node28" class="node">
<title>Node27</title>
<g id="a_node28"><a xlink:href="Transform_8h.html" target="_top" xlink:title="iDynTree/Core/Transform.h">
<polygon fill="none" stroke="#000000" points="425,-336.5 425,-355.5 571,-355.5 571,-336.5 425,-336.5"/>
<text text-anchor="middle" x="498" y="-343.5" font-family="FreeSans.ttf" font-size="10.00" fill="#000000">iDynTree/Core/Transform.h</text>
</a>
</g>
</g>
<!-- Node3&#45;&gt;Node27 -->
<g id="edge45" class="edge">
<title>Node3&#45;&gt;Node27</title>
<path fill="none" stroke="#191970" d="M773.3044,-392.4369C715.4109,-382.6717 625.5872,-367.5207 564.4034,-357.2006"/>
<polygon fill="#191970" stroke="#191970" points="564.9046,-353.7358 554.4618,-355.5237 563.7403,-360.6383 564.9046,-353.7358"/>
</g>
<!-- Node29 -->
<g id="node30" class="node">
<title>Node29</title>
<g id="a_node30"><a xlink:href="VectorDynSize_8h.html" target="_top" xlink:title="iDynTree/Core/VectorDynSize.h">
<polygon fill="none" stroke="#000000" points="704.5,-112.5 704.5,-131.5 871.5,-131.5 871.5,-112.5 704.5,-112.5"/>
<text text-anchor="middle" x="788" y="-119.5" font-family="FreeSans.ttf" font-size="10.00" fill="#000000">iDynTree/Core/VectorDynSize.h</text>
</a>
</g>
</g>
<!-- Node3&#45;&gt;Node29 -->
<g id="edge52" class="edge">
<title>Node3&#45;&gt;Node29</title>
<path fill="none" stroke="#191970" d="M839.2188,-392.4119C855.8125,-374.0983 889,-332.1966 889,-290 889,-290 889,-290 889,-234 889,-202.7875 884.8807,-192.062 865,-168 853.6907,-154.3121 837.1801,-143.6918 822.3453,-136.1219"/>
<polygon fill="#191970" stroke="#191970" points="823.4393,-132.7644 812.9102,-131.5863 820.4065,-139.0734 823.4393,-132.7644"/>
</g>
<!-- Node4&#45;&gt;Node1 -->
<g id="edge7" class="edge">
<title>Node4&#45;&gt;Node1</title>
<path fill="none" stroke="#191970" d="M102.2281,-280.3015C77.1412,-268.8896 43.785,-248.3748 57,-224 100.4783,-143.8051 143.5298,-143.8815 229,-112 283.9031,-91.5204 457.2346,-74.9372 530.1605,-68.683"/>
<polygon fill="#191970" stroke="#191970" points="530.8988,-72.1331 540.568,-67.8024 530.3085,-65.1581 530.8988,-72.1331"/>
</g>
<!-- Node5&#45;&gt;Node1 -->
<g id="edge44" class="edge">
<title>Node5&#45;&gt;Node1</title>
<path fill="none" stroke="#191970" d="M645.8548,-280.2679C654.5343,-271.7019 666.0417,-258.3808 671,-244 673.8974,-235.5966 673.6251,-232.4924 671,-224 653.0367,-165.8878 605.5382,-110.0929 579.9306,-83.0168"/>
<polygon fill="#191970" stroke="#191970" points="582.2046,-80.3328 572.7431,-75.5651 577.1663,-85.1925 582.2046,-80.3328"/>
</g>
<!-- Node6 -->
<g id="node7" class="node">
<title>Node6</title>
<g id="a_node7"><a xlink:href="PositionRaw_8h.html" target="_top" xlink:title="iDynTree/Core/PositionRaw.h">
<polygon fill="none" stroke="#000000" points="667,-168.5 667,-187.5 823,-187.5 823,-168.5 667,-168.5"/>
<text text-anchor="middle" x="745" y="-175.5" font-family="FreeSans.ttf" font-size="10.00" fill="#000000">iDynTree/Core/PositionRaw.h</text>
</a>
</g>
</g>
<!-- Node5&#45;&gt;Node6 -->
<g id="edge9" class="edge">
<title>Node5&#45;&gt;Node6</title>
<path fill="none" stroke="#191970" d="M653.8675,-280.3522C668.7115,-272.1142 689.2773,-259.2036 704,-244 717.4409,-230.1201 728.6763,-211.1107 735.9665,-197.057"/>
<polygon fill="#191970" stroke="#191970" points="739.2296,-198.3556 740.5527,-187.8437 732.9631,-195.2362 739.2296,-198.3556"/>
</g>
<!-- Node21 -->
<g id="node22" class="node">
<title>Node21</title>
<g id="a_node22"><a xlink:href="PositionSemantics_8h.html" target="_top" xlink:title="iDynTree/Core/PositionSemantics.h">
<polygon fill="none" stroke="#000000" points="475.5,-224.5 475.5,-243.5 662.5,-243.5 662.5,-224.5 475.5,-224.5"/>
<text text-anchor="middle" x="569" y="-231.5" font-family="FreeSans.ttf" font-size="10.00" fill="#000000">iDynTree/Core/PositionSemantics.h</text>
</a>
</g>
</g>
<!-- Node5&#45;&gt;Node21 -->
<g id="edge28" class="edge">
<title>Node5&#45;&gt;Node21</title>
<path fill="none" stroke="#191970" d="M623.5037,-280.2455C613.7558,-271.9746 599.5741,-259.9416 588.1202,-250.2232"/>
<polygon fill="#191970" stroke="#191970" points="590.2541,-247.4437 580.3646,-243.6427 585.7253,-252.7813 590.2541,-247.4437"/>
</g>
<!-- Node22 -->
<g id="node23" class="node">
<title>Node22</title>
<g id="a_node23"><a xlink:href="Rotation_8h.html" target="_top" xlink:title="iDynTree/Core/Rotation.h">
<polygon fill="none" stroke="#000000" points="320.5,-224.5 320.5,-243.5 457.5,-243.5 457.5,-224.5 320.5,-224.5"/>
<text text-anchor="middle" x="389" y="-231.5" font-family="FreeSans.ttf" font-size="10.00" fill="#000000">iDynTree/Core/Rotation.h</text>
</a>
</g>
</g>
<!-- Node5&#45;&gt;Node22 -->
<g id="edge30" class="edge">
<title>Node5&#45;&gt;Node22</title>
<path fill="none" stroke="#191970" d="M592.9906,-280.4369C550.8896,-270.8529 485.9995,-256.0812 440.7479,-245.78"/>
<polygon fill="#191970" stroke="#191970" points="441.3636,-242.3307 430.8361,-243.5237 439.8098,-249.1561 441.3636,-242.3307"/>
</g>
<!-- Node6&#45;&gt;Node1 -->
<g id="edge27" class="edge">
<title>Node6&#45;&gt;Node1</title>
<path fill="none" stroke="#191970" d="M727.1924,-168.4924C710.4377,-159.434 684.7446,-145.2511 663,-132 635.7351,-115.3848 605.2156,-94.9672 585.1459,-81.2799"/>
<polygon fill="#191970" stroke="#191970" points="586.9377,-78.2649 576.7093,-75.5026 582.9826,-84.0406 586.9377,-78.2649"/>
</g>
<!-- Node7 -->
<g id="node8" class="node">
<title>Node7</title>
<g id="a_node8"><a xlink:href="VectorFixSize_8h.html" target="_top" xlink:title="iDynTree/Core/VectorFixSize.h">
<polygon fill="none" stroke="#000000" points="1106.5,-112.5 1106.5,-131.5 1267.5,-131.5 1267.5,-112.5 1106.5,-112.5"/>
<text text-anchor="middle" x="1187" y="-119.5" font-family="FreeSans.ttf" font-size="10.00" fill="#000000">iDynTree/Core/VectorFixSize.h</text>
</a>
</g>
</g>
<!-- Node6&#45;&gt;Node7 -->
<g id="edge10" class="edge">
<title>Node6&#45;&gt;Node7</title>
<path fill="none" stroke="#191970" d="M820.2296,-168.4686C898.2164,-158.588 1019.9183,-143.1687 1101.5009,-132.8325"/>
<polygon fill="#191970" stroke="#191970" points="1102.2612,-136.2642 1111.742,-131.535 1101.3813,-129.3197 1102.2612,-136.2642"/>
</g>
<!-- Node7&#45;&gt;Node1 -->
<g id="edge23" class="edge">
<title>Node7&#45;&gt;Node1</title>
<path fill="none" stroke="#191970" d="M1106.4798,-112.8574C1103.6185,-112.5629 1100.7851,-112.2762 1098,-112 907.5872,-93.1199 678.592,-74.9444 595.287,-68.4804"/>
<polygon fill="#191970" stroke="#191970" points="595.4281,-64.9809 585.1878,-67.6988 594.8879,-71.9601 595.4281,-64.9809"/>
</g>
<!-- Node8 -->
<g id="node9" class="node">
<title>Node8</title>
<g id="a_node9"><a xlink:href="Utils_8h.html" target="_top" xlink:title="iDynTree/Core/Utils.h">
<polygon fill="none" stroke="#000000" points="1225.5,-56.5 1225.5,-75.5 1344.5,-75.5 1344.5,-56.5 1225.5,-56.5"/>
<text text-anchor="middle" x="1285" y="-63.5" font-family="FreeSans.ttf" font-size="10.00" fill="#000000">iDynTree/Core/Utils.h</text>
</a>
</g>
</g>
<!-- Node7&#45;&gt;Node8 -->
<g id="edge11" class="edge">
<title>Node7&#45;&gt;Node8</title>
<path fill="none" stroke="#191970" d="M1204.0703,-112.2455C1219.247,-103.5731 1241.6621,-90.7645 1259.0563,-80.825"/>
<polygon fill="#191970" stroke="#191970" points="1261.1794,-83.643 1268.1253,-75.6427 1257.7064,-77.5653 1261.1794,-83.643"/>
</g>
<!-- Node10 -->
<g id="node11" class="node">
<title>Node10</title>
<g id="a_node11"><a xlink:href="Span_8h.html" target="_top" xlink:title="iDynTree/Core/Span.h">
<polygon fill="none" stroke="#000000" points="789.5,-56.5 789.5,-75.5 910.5,-75.5 910.5,-56.5 789.5,-56.5"/>
<text text-anchor="middle" x="850" y="-63.5" font-family="FreeSans.ttf" font-size="10.00" fill="#000000">iDynTree/Core/Span.h</text>
</a>
</g>
</g>
<!-- Node7&#45;&gt;Node10 -->
<g id="edge13" class="edge">
<title>Node7&#45;&gt;Node10</title>
<path fill="none" stroke="#191970" d="M1129.4505,-112.4369C1070.6851,-102.6717 979.5087,-87.5207 917.4034,-77.2006"/>
<polygon fill="#191970" stroke="#191970" points="917.7506,-73.7103 907.3121,-75.5237 916.6031,-80.6157 917.7506,-73.7103"/>
</g>
<!-- Node11 -->
<g id="node12" class="node">
<title>Node11</title>
<polygon fill="none" stroke="#bfbfbf" points="1071,-.5 1071,-19.5 1123,-19.5 1123,-.5 1071,-.5"/>
<text text-anchor="middle" x="1097" y="-7.5" font-family="FreeSans.ttf" font-size="10.00" fill="#000000">cassert</text>
</g>
<!-- Node7&#45;&gt;Node11 -->
<g id="edge25" class="edge">
<title>Node7&#45;&gt;Node11</title>
<path fill="none" stroke="#191970" d="M1188.2156,-112.1004C1189.3812,-98.297 1189.5365,-73.048 1178,-56 1167.2414,-40.1015 1149.0447,-29.0566 1132.621,-21.7825"/>
<polygon fill="#191970" stroke="#191970" points="1133.8055,-18.4854 1123.2254,-17.9272 1131.1482,-24.9614 1133.8055,-18.4854"/>
</g>
<!-- Node19 -->
<g id="node20" class="node">
<title>Node19</title>
<polygon fill="none" stroke="#bfbfbf" points="1045,-56.5 1045,-75.5 1101,-75.5 1101,-56.5 1045,-56.5"/>
<text text-anchor="middle" x="1073" y="-63.5" font-family="FreeSans.ttf" font-size="10.00" fill="#000000">sstream</text>
</g>
<!-- Node7&#45;&gt;Node19 -->
<g id="edge24" class="edge">
<title>Node7&#45;&gt;Node19</title>
<path fill="none" stroke="#191970" d="M1167.4027,-112.3733C1149.2669,-103.4644 1122.0865,-90.1127 1101.5413,-80.0203"/>
<polygon fill="#191970" stroke="#191970" points="1102.8603,-76.7688 1092.3416,-75.5011 1099.7739,-83.0517 1102.8603,-76.7688"/>
</g>
<!-- Node20 -->
<g id="node21" class="node">
<title>Node20</title>
<polygon fill="none" stroke="#bfbfbf" points="1119,-56.5 1119,-75.5 1169,-75.5 1169,-56.5 1119,-56.5"/>
<text text-anchor="middle" x="1144" y="-63.5" font-family="FreeSans.ttf" font-size="10.00" fill="#000000">cstring</text>
</g>
<!-- Node7&#45;&gt;Node20 -->
<g id="edge26" class="edge">
<title>Node7&#45;&gt;Node20</title>
<path fill="none" stroke="#191970" d="M1179.51,-112.2455C1173.4674,-104.3761 1164.8097,-93.101 1157.5559,-83.6542"/>
<polygon fill="#191970" stroke="#191970" points="1160.2705,-81.4426 1151.4042,-75.6427 1154.7185,-85.7058 1160.2705,-81.4426"/>
</g>
<!-- Node9 -->
<g id="node10" class="node">
<title>Node9</title>
<polygon fill="none" stroke="#bfbfbf" points="1218.5,-.5 1218.5,-19.5 1271.5,-19.5 1271.5,-.5 1218.5,-.5"/>
<text text-anchor="middle" x="1245" y="-7.5" font-family="FreeSans.ttf" font-size="10.00" fill="#000000">cstddef</text>
</g>
<!-- Node8&#45;&gt;Node9 -->
<g id="edge12" class="edge">
<title>Node8&#45;&gt;Node9</title>
<path fill="none" stroke="#191970" d="M1278.0325,-56.2455C1272.4689,-48.4564 1264.522,-37.3308 1257.8171,-27.9439"/>
<polygon fill="#191970" stroke="#191970" points="1260.5481,-25.7457 1251.8876,-19.6427 1254.852,-29.8144 1260.5481,-25.7457"/>
</g>
<!-- Node10&#45;&gt;Node9 -->
<g id="edge17" class="edge">
<title>Node10&#45;&gt;Node9</title>
<path fill="none" stroke="#191970" d="M910.8531,-57.3727C993.842,-45.6072 1139.9679,-24.8906 1208.0965,-15.2319"/>
<polygon fill="#191970" stroke="#191970" points="1208.9297,-18.6488 1218.3394,-13.7797 1207.9471,-11.7181 1208.9297,-18.6488"/>
</g>
<!-- Node10&#45;&gt;Node11 -->
<g id="edge14" class="edge">
<title>Node10&#45;&gt;Node11</title>
<path fill="none" stroke="#191970" d="M898.1985,-56.467C939.1136,-48.1662 999.5855,-35.4095 1060.8409,-20.183"/>
<polygon fill="#191970" stroke="#191970" points="1061.8266,-23.5443 1070.6759,-17.7184 1060.125,-16.7543 1061.8266,-23.5443"/>
</g>
<!-- Node12 -->
<g id="node13" class="node">
<title>Node12</title>
<polygon fill="none" stroke="#bfbfbf" points="929,-.5 929,-19.5 993,-19.5 993,-.5 929,-.5"/>
<text text-anchor="middle" x="961" y="-7.5" font-family="FreeSans.ttf" font-size="10.00" fill="#000000">algorithm</text>
</g>
<!-- Node10&#45;&gt;Node12 -->
<g id="edge15" class="edge">
<title>Node10&#45;&gt;Node12</title>
<path fill="none" stroke="#191970" d="M869.0816,-56.3733C886.7402,-47.4644 913.2053,-34.1127 933.2098,-24.0203"/>
<polygon fill="#191970" stroke="#191970" points="934.8158,-27.1303 942.1674,-19.5011 931.6628,-20.8806 934.8158,-27.1303"/>
</g>
<!-- Node13 -->
<g id="node14" class="node">
<title>Node13</title>
<polygon fill="none" stroke="#bfbfbf" points="1011,-.5 1011,-19.5 1053,-19.5 1053,-.5 1011,-.5"/>
<text text-anchor="middle" x="1032" y="-7.5" font-family="FreeSans.ttf" font-size="10.00" fill="#000000">array</text>
</g>
<!-- Node10&#45;&gt;Node13 -->
<g id="edge16" class="edge">
<title>Node10&#45;&gt;Node13</title>
<path fill="none" stroke="#191970" d="M882.401,-56.4792C911.2426,-47.9414 954.8071,-34.8922 1001.113,-20.228"/>
<polygon fill="#191970" stroke="#191970" points="1002.2485,-23.5397 1010.7186,-17.1752 1000.1282,-16.8685 1002.2485,-23.5397"/>
</g>
<!-- Node14 -->
<g id="node15" class="node">
<title>Node14</title>
<polygon fill="none" stroke="#bfbfbf" points="561.5,-.5 561.5,-19.5 614.5,-19.5 614.5,-.5 561.5,-.5"/>
<text text-anchor="middle" x="588" y="-7.5" font-family="FreeSans.ttf" font-size="10.00" fill="#000000">iterator</text>
</g>
<!-- Node10&#45;&gt;Node14 -->
<g id="edge18" class="edge">
<title>Node10&#45;&gt;Node14</title>
<path fill="none" stroke="#191970" d="M797.7081,-56.4349C753.9986,-48.1958 689.8197,-35.5344 624.7134,-20.0439"/>
<polygon fill="#191970" stroke="#191970" points="625.2228,-16.5668 614.6821,-17.6361 623.589,-23.3735 625.2228,-16.5668"/>
</g>
<!-- Node15 -->
<g id="node16" class="node">
<title>Node15</title>
<polygon fill="none" stroke="#bfbfbf" points="633,-.5 633,-19.5 677,-19.5 677,-.5 633,-.5"/>
<text text-anchor="middle" x="655" y="-7.5" font-family="FreeSans.ttf" font-size="10.00" fill="#000000">limits</text>
</g>
<!-- Node10&#45;&gt;Node15 -->
<g id="edge19" class="edge">
<title>Node10&#45;&gt;Node15</title>
<path fill="none" stroke="#191970" d="M814.375,-56.4335C783.1585,-47.9565 736.3385,-35.0154 687.1782,-20.2828"/>
<polygon fill="#191970" stroke="#191970" points="687.9034,-16.846 677.3188,-17.3132 685.8845,-23.5485 687.9034,-16.846"/>
</g>
<!-- Node16 -->
<g id="node17" class="node">
<title>Node16</title>
<polygon fill="none" stroke="#bfbfbf" points="695.5,-.5 695.5,-19.5 760.5,-19.5 760.5,-.5 695.5,-.5"/>
<text text-anchor="middle" x="728" y="-7.5" font-family="FreeSans.ttf" font-size="10.00" fill="#000000">stdexcept</text>
</g>
<!-- Node10&#45;&gt;Node16 -->
<g id="edge20" class="edge">
<title>Node10&#45;&gt;Node16</title>
<path fill="none" stroke="#191970" d="M829.0275,-56.3733C809.4433,-47.3838 780.0039,-33.8706 757.949,-23.7471"/>
<polygon fill="#191970" stroke="#191970" points="759.2473,-20.4919 748.6989,-19.5011 756.3271,-26.8538 759.2473,-20.4919"/>
</g>
<!-- Node17 -->
<g id="node18" class="node">
<title>Node17</title>
<polygon fill="none" stroke="#bfbfbf" points="778.5,-.5 778.5,-19.5 847.5,-19.5 847.5,-.5 778.5,-.5"/>
<text text-anchor="middle" x="813" y="-7.5" font-family="FreeSans.ttf" font-size="10.00" fill="#000000">type_traits</text>
</g>
<!-- Node10&#45;&gt;Node17 -->
<g id="edge21" class="edge">
<title>Node10&#45;&gt;Node17</title>
<path fill="none" stroke="#191970" d="M843.5551,-56.2455C838.4618,-48.5367 831.2092,-37.5598 825.048,-28.2348"/>
<polygon fill="#191970" stroke="#191970" points="827.8038,-26.0566 819.3711,-19.6427 821.9635,-29.9155 827.8038,-26.0566"/>
</g>
<!-- Node18 -->
<g id="node19" class="node">
<title>Node18</title>
<polygon fill="none" stroke="#bfbfbf" points="865.5,-.5 865.5,-19.5 910.5,-19.5 910.5,-.5 865.5,-.5"/>
<text text-anchor="middle" x="888" y="-7.5" font-family="FreeSans.ttf" font-size="10.00" fill="#000000">utility</text>
</g>
<!-- Node10&#45;&gt;Node18 -->
<g id="edge22" class="edge">
<title>Node10&#45;&gt;Node18</title>
<path fill="none" stroke="#191970" d="M856.6191,-56.2455C861.9046,-48.4564 869.4541,-37.3308 875.8238,-27.9439"/>
<polygon fill="#191970" stroke="#191970" points="878.7379,-29.8827 881.4568,-19.6427 872.9455,-25.9522 878.7379,-29.8827"/>
</g>
<!-- Node21&#45;&gt;Node1 -->
<g id="edge29" class="edge">
<title>Node21&#45;&gt;Node1</title>
<path fill="none" stroke="#191970" d="M568.6602,-224.4862C567.7118,-197.9293 565.0202,-122.5651 563.7202,-86.1655"/>
<polygon fill="#191970" stroke="#191970" points="567.2058,-85.6966 563.351,-75.8279 560.2102,-85.9465 567.2058,-85.6966"/>
</g>
<!-- Node22&#45;&gt;Node1 -->
<g id="edge31" class="edge">
<title>Node22&#45;&gt;Node1</title>
<path fill="none" stroke="#191970" d="M380.9118,-224.2293C370.6529,-210.5791 355.6928,-185.511 368,-168 395.1617,-129.3535 426.0224,-153.6607 468,-132 482.8756,-124.3241 518.6615,-98.6584 541.817,-81.6871"/>
<polygon fill="#191970" stroke="#191970" points="544.0227,-84.4095 550.0032,-75.664 539.8743,-78.7712 544.0227,-84.4095"/>
</g>
<!-- Node22&#45;&gt;Node7 -->
<g id="edge43" class="edge">
<title>Node22&#45;&gt;Node7</title>
<path fill="none" stroke="#191970" d="M420.9573,-224.4042C471.004,-209.7771 571.1414,-182.1169 658,-168 848.4526,-137.0463 900.9748,-150.4897 1096.4573,-132.1156"/>
<polygon fill="#191970" stroke="#191970" points="1096.8597,-135.5932 1106.4812,-131.1575 1096.1935,-128.625 1096.8597,-135.5932"/>
</g>
<!-- Node23 -->
<g id="node24" class="node">
<title>Node23</title>
<g id="a_node24"><a xlink:href="RotationRaw_8h.html" target="_top" xlink:title="iDynTree/Core/RotationRaw.h">
<polygon fill="none" stroke="#000000" points="377,-168.5 377,-187.5 535,-187.5 535,-168.5 377,-168.5"/>
<text text-anchor="middle" x="456" y="-175.5" font-family="FreeSans.ttf" font-size="10.00" fill="#000000">iDynTree/Core/RotationRaw.h</text>
</a>
</g>
</g>
<!-- Node22&#45;&gt;Node23 -->
<g id="edge32" class="edge">
<title>Node22&#45;&gt;Node23</title>
<path fill="none" stroke="#191970" d="M400.6705,-224.2455C410.5661,-215.9746 424.9627,-203.9416 436.5901,-194.2232"/>
<polygon fill="#191970" stroke="#191970" points="439.035,-196.7413 444.4632,-187.6427 434.5458,-191.3703 439.035,-196.7413"/>
</g>
<!-- Node26 -->
<g id="node27" class="node">
<title>Node26</title>
<g id="a_node27"><a xlink:href="RotationSemantics_8h.html" target="_top" xlink:title="iDynTree/Core/RotationSemantics.h">
<polygon fill="none" stroke="#000000" points="271,-112.5 271,-131.5 459,-131.5 459,-112.5 271,-112.5"/>
<text text-anchor="middle" x="365" y="-119.5" font-family="FreeSans.ttf" font-size="10.00" fill="#000000">iDynTree/Core/RotationSemantics.h</text>
</a>
</g>
</g>
<!-- Node22&#45;&gt;Node26 -->
<g id="edge41" class="edge">
<title>Node22&#45;&gt;Node26</title>
<path fill="none" stroke="#191970" d="M371.0401,-224.3701C358.3676,-216.4681 342.3833,-203.9885 335,-188 327.4681,-171.6898 337.6612,-153.05 348.1554,-139.7486"/>
<polygon fill="#191970" stroke="#191970" points="351.067,-141.7294 354.9117,-131.8568 345.7495,-137.177 351.067,-141.7294"/>
</g>
<!-- Node23&#45;&gt;Node1 -->
<g id="edge40" class="edge">
<title>Node23&#45;&gt;Node1</title>
<path fill="none" stroke="#191970" d="M465.714,-168.1857C474.8674,-158.9105 488.9393,-144.5811 501,-132 516.6765,-115.6472 534.3482,-96.7932 546.8024,-83.4346"/>
<polygon fill="#191970" stroke="#191970" points="549.5659,-85.6028 553.8182,-75.8987 544.4425,-80.833 549.5659,-85.6028"/>
</g>
<!-- Node24 -->
<g id="node25" class="node">
<title>Node24</title>
<g id="a_node25"><a xlink:href="MatrixFixSize_8h.html" target="_top" xlink:title="iDynTree/Core/MatrixFixSize.h">
<polygon fill="none" stroke="#000000" points="927.5,-112.5 927.5,-131.5 1088.5,-131.5 1088.5,-112.5 927.5,-112.5"/>
<text text-anchor="middle" x="1008" y="-119.5" font-family="FreeSans.ttf" font-size="10.00" fill="#000000">iDynTree/Core/MatrixFixSize.h</text>
</a>
</g>
</g>
<!-- Node23&#45;&gt;Node24 -->
<g id="edge33" class="edge">
<title>Node23&#45;&gt;Node24</title>
<path fill="none" stroke="#191970" d="M535.0881,-169.9766C636.1665,-159.7222 810.766,-142.0092 917.1827,-131.2133"/>
<polygon fill="#191970" stroke="#191970" points="917.6679,-134.6822 927.2635,-130.1907 916.9613,-127.7179 917.6679,-134.6822"/>
</g>
<!-- Node24&#45;&gt;Node1 -->
<g id="edge37" class="edge">
<title>Node24&#45;&gt;Node1</title>
<path fill="none" stroke="#191970" d="M932.2598,-112.4686C833.6162,-100.0551 665.504,-78.8994 595.2978,-70.0644"/>
<polygon fill="#191970" stroke="#191970" points="595.6412,-66.5801 585.2824,-68.8041 594.7672,-73.5254 595.6412,-66.5801"/>
</g>
<!-- Node24&#45;&gt;Node8 -->
<g id="edge34" class="edge">
<title>Node24&#45;&gt;Node8</title>
<path fill="none" stroke="#191970" d="M1055.3033,-112.4369C1103.108,-102.7724 1177.0068,-87.8326 1228.0108,-77.5213"/>
<polygon fill="#191970" stroke="#191970" points="1228.7837,-80.9359 1237.8918,-75.5237 1227.3966,-74.0747 1228.7837,-80.9359"/>
</g>
<!-- Node24&#45;&gt;Node11 -->
<g id="edge35" class="edge">
<title>Node24&#45;&gt;Node11</title>
<path fill="none" stroke="#191970" d="M991.7263,-112.4835C972.0429,-99.7462 943.2687,-76.3922 958,-56 961.1475,-51.643 1020.83,-32.9581 1060.9569,-20.7836"/>
<polygon fill="#191970" stroke="#191970" points="1062.1314,-24.085 1070.6909,-17.8413 1060.106,-17.3844 1062.1314,-24.085"/>
</g>
<!-- Node24&#45;&gt;Node19 -->
<g id="edge39" class="edge">
<title>Node24&#45;&gt;Node19</title>
<path fill="none" stroke="#191970" d="M1019.3221,-112.2455C1028.9223,-103.9746 1042.8892,-91.9416 1054.1695,-82.2232"/>
<polygon fill="#191970" stroke="#191970" points="1056.516,-84.8214 1061.8076,-75.6427 1051.947,-79.5182 1056.516,-84.8214"/>
</g>
<!-- Node24&#45;&gt;Node20 -->
<g id="edge36" class="edge">
<title>Node24&#45;&gt;Node20</title>
<path fill="none" stroke="#191970" d="M1031.3792,-112.3733C1053.5045,-103.2629 1086.9134,-89.5062 1111.6019,-79.3404"/>
<polygon fill="#191970" stroke="#191970" points="1113.0117,-82.5451 1120.9258,-75.5011 1110.3464,-76.0723 1113.0117,-82.5451"/>
</g>
<!-- Node25 -->
<g id="node26" class="node">
<title>Node25</title>
<polygon fill="none" stroke="#bfbfbf" points="967,-56.5 967,-75.5 1027,-75.5 1027,-56.5 967,-56.5"/>
<text text-anchor="middle" x="997" y="-63.5" font-family="FreeSans.ttf" font-size="10.00" fill="#000000">iostream</text>
</g>
<!-- Node24&#45;&gt;Node25 -->
<g id="edge38" class="edge">
<title>Node24&#45;&gt;Node25</title>
<path fill="none" stroke="#191970" d="M1006.0839,-112.2455C1004.6486,-104.9382 1002.6364,-94.6944 1000.8705,-85.7046"/>
<polygon fill="#191970" stroke="#191970" points="1004.256,-84.7805 998.8941,-75.6427 997.3873,-86.1298 1004.256,-84.7805"/>
</g>
<!-- Node26&#45;&gt;Node1 -->
<g id="edge42" class="edge">
<title>Node26&#45;&gt;Node1</title>
<path fill="none" stroke="#191970" d="M399.0374,-112.3733C435.9703,-101.9276 494.4995,-85.3739 530.7268,-75.1278"/>
<polygon fill="#191970" stroke="#191970" points="532.0909,-78.3793 540.7608,-72.2899 530.1857,-71.6436 532.0909,-78.3793"/>
</g>
<!-- Node27&#45;&gt;Node1 -->
<g id="edge51" class="edge">
<title>Node27&#45;&gt;Node1</title>
<path fill="none" stroke="#191970" d="M473.7481,-336.4123C398.9877,-305.5487 181.8369,-205.3446 262,-112 279.3982,-91.741 456.8559,-74.8049 530.8618,-68.5676"/>
<polygon fill="#191970" stroke="#191970" points="531.3227,-72.0414 540.9987,-67.7258 530.7434,-65.0655 531.3227,-72.0414"/>
</g>
<!-- Node27&#45;&gt;Node5 -->
<g id="edge46" class="edge">
<title>Node27&#45;&gt;Node5</title>
<path fill="none" stroke="#191970" d="M521.5511,-336.3733C543.8391,-327.2629 577.4937,-313.5062 602.3637,-303.3404"/>
<polygon fill="#191970" stroke="#191970" points="603.8239,-306.5247 611.7562,-299.5011 601.1753,-300.0451 603.8239,-306.5247"/>
</g>
<!-- Node27&#45;&gt;Node22 -->
<g id="edge47" class="edge">
<title>Node27&#45;&gt;Node22</title>
<path fill="none" stroke="#191970" d="M488.7067,-336.4509C470.2051,-317.4401 428.5537,-274.6423 405.3656,-250.816"/>
<polygon fill="#191970" stroke="#191970" points="407.7525,-248.2502 398.2698,-243.5249 402.736,-253.1324 407.7525,-248.2502"/>
</g>
<!-- Node27&#45;&gt;Node24 -->
<g id="edge50" class="edge">
<title>Node27&#45;&gt;Node24</title>
<path fill="none" stroke="#191970" d="M569.5235,-336.4751C611.9132,-329.4055 666.137,-317.8435 712,-300 803.7105,-264.319 818.8881,-239.0797 903,-188 931.2149,-170.8656 963.2939,-150.5828 984.4894,-137.068"/>
<polygon fill="#191970" stroke="#191970" points="986.5928,-139.8776 993.1363,-131.5449 982.8247,-133.9783 986.5928,-139.8776"/>
</g>
<!-- Node28 -->
<g id="node29" class="node">
<title>Node28</title>
<g id="a_node29"><a xlink:href="TransformSemantics_8h.html" target="_top" xlink:title="iDynTree/Core/TransformSemantics.h">
<polygon fill="none" stroke="#000000" points="66.5,-224.5 66.5,-243.5 263.5,-243.5 263.5,-224.5 66.5,-224.5"/>
<text text-anchor="middle" x="165" y="-231.5" font-family="FreeSans.ttf" font-size="10.00" fill="#000000">iDynTree/Core/TransformSemantics.h</text>
</a>
</g>
</g>
<!-- Node27&#45;&gt;Node28 -->
<g id="edge48" class="edge">
<title>Node27&#45;&gt;Node28</title>
<path fill="none" stroke="#191970" d="M424.9833,-336.7797C381.3342,-329.7967 325.3418,-318.2192 278,-300 244.0831,-286.9473 208.4329,-264.4378 186.4578,-249.3859"/>
<polygon fill="#191970" stroke="#191970" points="188.4008,-246.4739 178.1939,-243.6333 184.4016,-252.2191 188.4008,-246.4739"/>
</g>
<!-- Node28&#45;&gt;Node1 -->
<g id="edge49" class="edge">
<title>Node28&#45;&gt;Node1</title>
<path fill="none" stroke="#191970" d="M166.9067,-224.4149C172.138,-200.8634 189.0705,-140.0424 229,-112 277.2805,-78.0926 456.6278,-69.0624 530.6888,-66.7555"/>
<polygon fill="#191970" stroke="#191970" points="530.9294,-70.2501 540.8238,-66.4618 530.7265,-63.2531 530.9294,-70.2501"/>
</g>
<!-- Node29&#45;&gt;Node1 -->
<g id="edge54" class="edge">
<title>Node29&#45;&gt;Node1</title>
<path fill="none" stroke="#191970" d="M749.5768,-112.4369C706.0475,-101.6029 635.883,-84.1398 595.1389,-73.999"/>
<polygon fill="#191970" stroke="#191970" points="595.7539,-70.5454 585.2046,-71.5265 594.0632,-77.3381 595.7539,-70.5454"/>
</g>
<!-- Node29&#45;&gt;Node10 -->
<g id="edge53" class="edge">
<title>Node29&#45;&gt;Node10</title>
<path fill="none" stroke="#191970" d="M798.7996,-112.2455C807.8678,-104.0549 821.0206,-92.1749 831.7245,-82.5069"/>
<polygon fill="#191970" stroke="#191970" points="834.2491,-84.9429 839.3242,-75.6427 829.5571,-79.7482 834.2491,-84.9429"/>
</g>
<!-- Node30&#45;&gt;Node1 -->
<g id="edge56" class="edge">
<title>Node30&#45;&gt;Node1</title>
<path fill="none" stroke="#191970" d="M1057.9348,-168.4739C1017.7197,-160.9948 963.7029,-148.985 918,-132 900.1102,-125.3514 898.1504,-117.9001 880,-112 779.4278,-79.3074 653.3527,-69.8023 595.1584,-67.0756"/>
<polygon fill="#191970" stroke="#191970" points="595.2454,-63.5761 585.1036,-66.6412 594.9432,-70.5696 595.2454,-63.5761"/>
</g>
<!-- Node30&#45;&gt;Node7 -->
<g id="edge57" class="edge">
<title>Node30&#45;&gt;Node7</title>
<path fill="none" stroke="#191970" d="M1129.1931,-168.2455C1139.6321,-159.8943 1154.8655,-147.7076 1167.074,-137.9408"/>
<polygon fill="#191970" stroke="#191970" points="1169.3244,-140.6227 1174.9467,-131.6427 1164.9515,-135.1566 1169.3244,-140.6227"/>
</g>
<!-- Node30&#45;&gt;Node8 -->
<g id="edge58" class="edge">
<title>Node30&#45;&gt;Node8</title>
<path fill="none" stroke="#191970" d="M1173.9089,-168.4681C1214.2246,-160.5014 1263.4558,-147.8943 1277,-132 1287.6327,-119.5223 1288.9297,-100.5744 1287.9771,-86.1766"/>
<polygon fill="#191970" stroke="#191970" points="1291.4125,-85.3857 1286.8663,-75.8158 1284.4524,-86.132 1291.4125,-85.3857"/>
</g>
</g>
</svg>
