<?xml version="1.0" encoding="UTF-8" standalone="no"?>
<!DOCTYPE svg PUBLIC "-//W3C//DTD SVG 1.1//EN"
 "http://www.w3.org/Graphics/SVG/1.1/DTD/svg11.dtd">
<!-- Generated by graphviz version 2.40.1 (20161225.0304)
 -->
<!-- Title: IpoptInterface.h Pages: 1 -->
<svg width="267pt" height="196pt"
 viewBox="0.00 0.00 266.50 196.00" xmlns="http://www.w3.org/2000/svg" xmlns:xlink="http://www.w3.org/1999/xlink">
<g id="graph0" class="graph" transform="scale(1 1) rotate(0) translate(4 192)">
<title>IpoptInterface.h</title>
<!-- Node0 -->
<g id="node1" class="node">
<title>Node0</title>
<polygon fill="#bfbfbf" stroke="#000000" points="24,-168.5 24,-187.5 118,-187.5 118,-168.5 24,-168.5"/>
<text text-anchor="middle" x="71" y="-175.5" font-family="FreeSans.ttf" font-size="10.00" fill="#000000">IpoptInterface.h</text>
</g>
<!-- Node1 -->
<g id="node2" class="node">
<title>Node1</title>
<polygon fill="none" stroke="#bfbfbf" points="0,-56.5 0,-75.5 58,-75.5 58,-56.5 0,-56.5"/>
<text text-anchor="middle" x="29" y="-63.5" font-family="FreeSans.ttf" font-size="10.00" fill="#000000">memory</text>
</g>
<!-- Node0&#45;&gt;Node1 -->
<g id="edge1" class="edge">
<title>Node0&#45;&gt;Node1</title>
<path fill="none" stroke="#191970" d="M62.7715,-168.4732C55.5917,-159.6256 45.4883,-145.7778 40,-132 34.0892,-117.1614 31.3545,-99.2226 30.0893,-85.7946"/>
<polygon fill="#191970" stroke="#191970" points="33.5736,-85.453 29.3347,-75.7431 26.5933,-85.9771 33.5736,-85.453"/>
</g>
<!-- Node2 -->
<g id="node3" class="node">
<title>Node2</title>
<polygon fill="none" stroke="#bfbfbf" points="49,-112.5 49,-131.5 93,-131.5 93,-112.5 49,-112.5"/>
<text text-anchor="middle" x="71" y="-119.5" font-family="FreeSans.ttf" font-size="10.00" fill="#000000">string</text>
</g>
<!-- Node0&#45;&gt;Node2 -->
<g id="edge2" class="edge">
<title>Node0&#45;&gt;Node2</title>
<path fill="none" stroke="#191970" d="M71,-168.2455C71,-160.9382 71,-150.6944 71,-141.7046"/>
<polygon fill="#191970" stroke="#191970" points="74.5001,-141.6426 71,-131.6427 67.5001,-141.6427 74.5001,-141.6426"/>
</g>
<!-- Node3 -->
<g id="node4" class="node">
<title>Node3</title>
<g id="a_node4"><a xlink:href="Optimizer_8h.html" target="_top" xlink:title="iDynTree/Optimizer.h">
<polygon fill="none" stroke="#000000" points="111.5,-112.5 111.5,-131.5 230.5,-131.5 230.5,-112.5 111.5,-112.5"/>
<text text-anchor="middle" x="171" y="-119.5" font-family="FreeSans.ttf" font-size="10.00" fill="#000000">iDynTree/Optimizer.h</text>
</a>
</g>
</g>
<!-- Node0&#45;&gt;Node3 -->
<g id="edge3" class="edge">
<title>Node0&#45;&gt;Node3</title>
<path fill="none" stroke="#191970" d="M88.4187,-168.2455C104.0485,-159.4928 127.2019,-146.527 145.0185,-136.5496"/>
<polygon fill="#191970" stroke="#191970" points="146.766,-139.5825 153.7809,-131.6427 143.3457,-133.475 146.766,-139.5825"/>
</g>
<!-- Node3&#45;&gt;Node1 -->
<g id="edge4" class="edge">
<title>Node3&#45;&gt;Node1</title>
<path fill="none" stroke="#191970" d="M146.5893,-112.3733C123.3858,-103.2226 88.2962,-89.3844 62.4858,-79.2057"/>
<polygon fill="#191970" stroke="#191970" points="63.6789,-75.9139 53.0921,-75.5011 61.1108,-82.4258 63.6789,-75.9139"/>
</g>
<!-- Node4 -->
<g id="node5" class="node">
<title>Node4</title>
<g id="a_node5"><a xlink:href="OptimizationProblem_8h.html" target="_top" xlink:title="iDynTree/OptimizationProblem.h">
<polygon fill="none" stroke="#000000" points="83.5,-56.5 83.5,-75.5 258.5,-75.5 258.5,-56.5 83.5,-56.5"/>
<text text-anchor="middle" x="171" y="-63.5" font-family="FreeSans.ttf" font-size="10.00" fill="#000000">iDynTree/OptimizationProblem.h</text>
</a>
</g>
</g>
<!-- Node3&#45;&gt;Node4 -->
<g id="edge5" class="edge">
<title>Node3&#45;&gt;Node4</title>
<path fill="none" stroke="#191970" d="M171,-112.2455C171,-104.9382 171,-94.6944 171,-85.7046"/>
<polygon fill="#191970" stroke="#191970" points="174.5001,-85.6426 171,-75.6427 167.5001,-85.6427 174.5001,-85.6426"/>
</g>
<!-- Node5 -->
<g id="node6" class="node">
<title>Node5</title>
<polygon fill="none" stroke="#bfbfbf" points="113.5,-.5 113.5,-19.5 160.5,-19.5 160.5,-.5 113.5,-.5"/>
<text text-anchor="middle" x="137" y="-7.5" font-family="FreeSans.ttf" font-size="10.00" fill="#000000">vector</text>
</g>
<!-- Node4&#45;&gt;Node5 -->
<g id="edge6" class="edge">
<title>Node4&#45;&gt;Node5</title>
<path fill="none" stroke="#191970" d="M165.0777,-56.2455C160.3973,-48.5367 153.7327,-37.5598 148.0711,-28.2348"/>
<polygon fill="#191970" stroke="#191970" points="151.0361,-26.3741 142.8545,-19.6427 145.0525,-30.007 151.0361,-26.3741"/>
</g>
<!-- Node6 -->
<g id="node7" class="node">
<title>Node6</title>
<polygon fill="none" stroke="#bfbfbf" points="178.5,-.5 178.5,-19.5 231.5,-19.5 231.5,-.5 178.5,-.5"/>
<text text-anchor="middle" x="205" y="-7.5" font-family="FreeSans.ttf" font-size="10.00" fill="#000000">cstddef</text>
</g>
<!-- Node4&#45;&gt;Node6 -->
<g id="edge7" class="edge">
<title>Node4&#45;&gt;Node6</title>
<path fill="none" stroke="#191970" d="M176.9223,-56.2455C181.6027,-48.5367 188.2673,-37.5598 193.9289,-28.2348"/>
<polygon fill="#191970" stroke="#191970" points="196.9475,-30.007 199.1455,-19.6427 190.9639,-26.3741 196.9475,-30.007"/>
</g>
</g>
</svg>
