<?xml version="1.0" encoding="UTF-8" standalone="no"?>
<!DOCTYPE svg PUBLIC "-//W3C//DTD SVG 1.1//EN"
 "http://www.w3.org/Graphics/SVG/1.1/DTD/svg11.dtd">
<!-- Generated by graphviz version 2.40.1 (20161225.0304)
 -->
<!-- Title: IrrlichtUtils.h Pages: 1 -->
<svg width="717pt" height="84pt"
 viewBox="0.00 0.00 717.00 84.00" xmlns="http://www.w3.org/2000/svg" xmlns:xlink="http://www.w3.org/1999/xlink">
<g id="graph0" class="graph" transform="scale(1 1) rotate(0) translate(4 80)">
<title>IrrlichtUtils.h</title>
<!-- Node59 -->
<g id="node1" class="node">
<title>Node59</title>
<polygon fill="#bfbfbf" stroke="#000000" points="310.5,-56.5 310.5,-75.5 390.5,-75.5 390.5,-56.5 310.5,-56.5"/>
<text text-anchor="middle" x="350.5" y="-63.5" font-family="FreeSans.ttf" font-size="10.00" fill="#000000">IrrlichtUtils.h</text>
</g>
<!-- Node60 -->
<g id="node2" class="node">
<title>Node60</title>
<g id="a_node2"><a xlink:href="Camera_8cpp.html" target="_top" xlink:title="Camera.cpp">
<polygon fill="none" stroke="#000000" points="0,-.5 0,-19.5 75,-19.5 75,-.5 0,-.5"/>
<text text-anchor="middle" x="37.5" y="-7.5" font-family="FreeSans.ttf" font-size="10.00" fill="#000000">Camera.cpp</text>
</a>
</g>
</g>
<!-- Node59&#45;&gt;Node60 -->
<g id="edge1" class="edge">
<title>Node59&#45;&gt;Node60</title>
<path fill="none" stroke="#191970" d="M300.182,-58.0002C246.4181,-49.2963 158.7544,-34.6552 83.5,-20 80.7725,-19.4688 77.9582,-18.9024 75.1281,-18.3194"/>
<polygon fill="#191970" stroke="#191970" points="299.7123,-61.4696 310.1422,-59.6075 300.8276,-54.559 299.7123,-61.4696"/>
</g>
<!-- Node61 -->
<g id="node3" class="node">
<title>Node61</title>
<g id="a_node3"><a xlink:href="Environment_8cpp.html" target="_top" xlink:title="Environment.cpp">
<polygon fill="none" stroke="#000000" points="93,-.5 93,-19.5 192,-19.5 192,-.5 93,-.5"/>
<text text-anchor="middle" x="142.5" y="-7.5" font-family="FreeSans.ttf" font-size="10.00" fill="#000000">Environment.cpp</text>
</a>
</g>
</g>
<!-- Node59&#45;&gt;Node61 -->
<g id="edge2" class="edge">
<title>Node59&#45;&gt;Node61</title>
<path fill="none" stroke="#191970" d="M304.8882,-53.7199C266.6418,-43.4228 212.81,-28.9296 177.7899,-19.5011"/>
<polygon fill="#191970" stroke="#191970" points="304.1774,-57.1531 314.7435,-56.3733 305.9973,-50.3938 304.1774,-57.1531"/>
</g>
<!-- Node62 -->
<g id="node4" class="node">
<title>Node62</title>
<g id="a_node4"><a xlink:href="FloorGridSceneNode_8cpp.html" target="_top" xlink:title="FloorGridSceneNode.cpp">
<polygon fill="none" stroke="#000000" points="210.5,-.5 210.5,-19.5 346.5,-19.5 346.5,-.5 210.5,-.5"/>
<text text-anchor="middle" x="278.5" y="-7.5" font-family="FreeSans.ttf" font-size="10.00" fill="#000000">FloorGridSceneNode.cpp</text>
</a>
</g>
</g>
<!-- Node59&#45;&gt;Node62 -->
<g id="edge3" class="edge">
<title>Node59&#45;&gt;Node62</title>
<path fill="none" stroke="#191970" d="M329.836,-49.928C317.2511,-40.1397 301.5908,-27.9595 290.8977,-19.6427"/>
<polygon fill="#191970" stroke="#191970" points="327.9162,-52.8688 337.9586,-56.2455 332.2138,-47.3434 327.9162,-52.8688"/>
</g>
<!-- Node63 -->
<g id="node5" class="node">
<title>Node63</title>
<g id="a_node5"><a xlink:href="JetsVisualization_8cpp.html" target="_top" xlink:title="JetsVisualization.cpp">
<polygon fill="none" stroke="#000000" points="364.5,-.5 364.5,-19.5 482.5,-19.5 482.5,-.5 364.5,-.5"/>
<text text-anchor="middle" x="423.5" y="-7.5" font-family="FreeSans.ttf" font-size="10.00" fill="#000000">JetsVisualization.cpp</text>
</a>
</g>
</g>
<!-- Node59&#45;&gt;Node63 -->
<g id="edge4" class="edge">
<title>Node59&#45;&gt;Node63</title>
<path fill="none" stroke="#191970" d="M371.451,-49.928C384.2107,-40.1397 400.0885,-27.9595 410.9301,-19.6427"/>
<polygon fill="#191970" stroke="#191970" points="369.0196,-47.3819 363.2156,-56.2455 373.2803,-52.9359 369.0196,-47.3819"/>
</g>
<!-- Node64 -->
<g id="node6" class="node">
<title>Node64</title>
<g id="a_node6"><a xlink:href="Light_8cpp.html" target="_top" xlink:title="Light.cpp">
<polygon fill="none" stroke="#000000" points="501,-.5 501,-19.5 562,-19.5 562,-.5 501,-.5"/>
<text text-anchor="middle" x="531.5" y="-7.5" font-family="FreeSans.ttf" font-size="10.00" fill="#000000">Light.cpp</text>
</a>
</g>
</g>
<!-- Node59&#45;&gt;Node64 -->
<g id="edge5" class="edge">
<title>Node59&#45;&gt;Node64</title>
<path fill="none" stroke="#191970" d="M391.4722,-53.3235C424.6661,-43.0536 470.7058,-28.8093 500.791,-19.5011"/>
<polygon fill="#191970" stroke="#191970" points="390.1337,-50.0739 381.615,-56.3733 392.2027,-56.7611 390.1337,-50.0739"/>
</g>
<!-- Node65 -->
<g id="node7" class="node">
<title>Node65</title>
<g id="a_node7"><a xlink:href="ModelVisualization_8cpp.html" target="_top" xlink:title="ModelVisualization.cpp">
<polygon fill="none" stroke="#000000" points="580,-.5 580,-19.5 709,-19.5 709,-.5 580,-.5"/>
<text text-anchor="middle" x="644.5" y="-7.5" font-family="FreeSans.ttf" font-size="10.00" fill="#000000">ModelVisualization.cpp</text>
</a>
</g>
</g>
<!-- Node59&#45;&gt;Node65 -->
<g id="edge6" class="edge">
<title>Node59&#45;&gt;Node65</title>
<path fill="none" stroke="#191970" d="M400.8144,-56.4163C454.9111,-46.1122 540.3998,-29.8286 594.4096,-19.541"/>
<polygon fill="#191970" stroke="#191970" points="399.9315,-53.0215 390.763,-58.3309 401.2413,-59.8978 399.9315,-53.0215"/>
</g>
</g>
</svg>
