<?xml version="1.0" encoding="UTF-8" standalone="no"?>
<!DOCTYPE svg PUBLIC "-//W3C//DTD SVG 1.1//EN"
 "http://www.w3.org/Graphics/SVG/1.1/DTD/svg11.dtd">
<!-- Generated by graphviz version 2.40.1 (20161225.0304)
 -->
<!-- Title: JetsVisualization.cpp Pages: 1 -->
<svg width="1930pt" height="744pt"
 viewBox="0.00 0.00 1929.54 744.00" xmlns="http://www.w3.org/2000/svg" xmlns:xlink="http://www.w3.org/1999/xlink">
<g id="graph0" class="graph" transform="scale(1 1) rotate(0) translate(4 740)">
<title>JetsVisualization.cpp</title>
<!-- Node0 -->
<g id="node1" class="node">
<title>Node0</title>
<polygon fill="#bfbfbf" stroke="#000000" points="1075.5412,-716.5 1075.5412,-735.5 1193.5412,-735.5 1193.5412,-716.5 1075.5412,-716.5"/>
<text text-anchor="middle" x="1134.5412" y="-723.5" font-family="FreeSans.ttf" font-size="10.00" fill="#000000">JetsVisualization.cpp</text>
</g>
<!-- Node1 -->
<g id="node2" class="node">
<title>Node1</title>
<g id="a_node2"><a xlink:href="JetsVisualization_8h.html" target="_top" xlink:title="JetsVisualization.h">
<polygon fill="none" stroke="#000000" points="657.0412,-604.5 657.0412,-623.5 764.0412,-623.5 764.0412,-604.5 657.0412,-604.5"/>
<text text-anchor="middle" x="710.5412" y="-611.5" font-family="FreeSans.ttf" font-size="10.00" fill="#000000">JetsVisualization.h</text>
</a>
</g>
</g>
<!-- Node0&#45;&gt;Node1 -->
<g id="edge1" class="edge">
<title>Node0&#45;&gt;Node1</title>
<path fill="none" stroke="#191970" d="M1098.3912,-716.4509C1021.4148,-696.1176 841.4238,-648.5728 756.4748,-626.1334"/>
<polygon fill="#191970" stroke="#191970" points="757.1619,-622.6949 746.5997,-623.5249 755.3741,-629.4628 757.1619,-622.6949"/>
</g>
<!-- Node9 -->
<g id="node10" class="node">
<title>Node9</title>
<polygon fill="none" stroke="#bfbfbf" points="555.5412,-.5 555.5412,-19.5 607.5412,-19.5 607.5412,-.5 555.5412,-.5"/>
<text text-anchor="middle" x="581.5412" y="-7.5" font-family="FreeSans.ttf" font-size="10.00" fill="#000000">cassert</text>
</g>
<!-- Node0&#45;&gt;Node9 -->
<g id="edge117" class="edge">
<title>Node0&#45;&gt;Node9</title>
<path fill="none" stroke="#191970" d="M1193.6941,-723.802C1376.7199,-716.2228 1921.5412,-687.4896 1921.5412,-614 1921.5412,-614 1921.5412,-614 1921.5412,-122 1921.5412,-54.6342 831.8709,-17.6882 617.7914,-11.0798"/>
<polygon fill="#191970" stroke="#191970" points="617.8098,-7.5788 607.7073,-10.771 617.5955,-14.5755 617.8098,-7.5788"/>
</g>
<!-- Node52 -->
<g id="node37" class="node">
<title>Node52</title>
<g id="a_node37"><a xlink:href="ModelVisualization_8h.html" target="_top" xlink:title="ModelVisualization.h">
<polygon fill="none" stroke="#000000" points="782.5412,-604.5 782.5412,-623.5 900.5412,-623.5 900.5412,-604.5 782.5412,-604.5"/>
<text text-anchor="middle" x="841.5412" y="-611.5" font-family="FreeSans.ttf" font-size="10.00" fill="#000000">ModelVisualization.h</text>
</a>
</g>
</g>
<!-- Node0&#45;&gt;Node52 -->
<g id="edge75" class="edge">
<title>Node0&#45;&gt;Node52</title>
<path fill="none" stroke="#191970" d="M1109.5601,-716.4509C1057.1234,-696.4069 935.5109,-649.9202 875.8282,-627.1063"/>
<polygon fill="#191970" stroke="#191970" points="877.0495,-623.8262 866.4589,-623.5249 874.5501,-630.3648 877.0495,-623.8262"/>
</g>
<!-- Node53 -->
<g id="node38" class="node">
<title>Node53</title>
<g id="a_node38"><a xlink:href="IrrlichtUtils_8h.html" target="_top" xlink:title="IrrlichtUtils.h">
<polygon fill="none" stroke="#000000" points="1094.5412,-660.5 1094.5412,-679.5 1174.5412,-679.5 1174.5412,-660.5 1094.5412,-660.5"/>
<text text-anchor="middle" x="1134.5412" y="-667.5" font-family="FreeSans.ttf" font-size="10.00" fill="#000000">IrrlichtUtils.h</text>
</a>
</g>
</g>
<!-- Node0&#45;&gt;Node53 -->
<g id="edge78" class="edge">
<title>Node0&#45;&gt;Node53</title>
<path fill="none" stroke="#191970" d="M1134.5412,-716.2455C1134.5412,-708.9382 1134.5412,-698.6944 1134.5412,-689.7046"/>
<polygon fill="#191970" stroke="#191970" points="1138.0413,-689.6426 1134.5412,-679.6427 1131.0413,-689.6427 1138.0413,-689.6426"/>
</g>
<!-- Node62 -->
<g id="node47" class="node">
<title>Node62</title>
<g id="a_node47"><a xlink:href="Model_8h.html" target="_top" xlink:title="iDynTree/Model/Model.h">
<polygon fill="none" stroke="#000000" points="1550.0412,-604.5 1550.0412,-623.5 1683.0412,-623.5 1683.0412,-604.5 1550.0412,-604.5"/>
<text text-anchor="middle" x="1616.5412" y="-611.5" font-family="FreeSans.ttf" font-size="10.00" fill="#000000">iDynTree/Model/Model.h</text>
</a>
</g>
</g>
<!-- Node0&#45;&gt;Node62 -->
<g id="edge102" class="edge">
<title>Node0&#45;&gt;Node62</title>
<path fill="none" stroke="#191970" d="M1175.6362,-716.4509C1263.587,-696.0142 1469.8372,-648.0889 1565.7878,-625.7933"/>
<polygon fill="#191970" stroke="#191970" points="1566.6018,-629.1975 1575.5501,-623.5249 1565.0174,-622.3791 1566.6018,-629.1975"/>
</g>
<!-- Node2 -->
<g id="node3" class="node">
<title>Node2</title>
<g id="a_node3"><a xlink:href="Visualizer_8h.html" target="_top" xlink:title="iDynTree/Visualizer.h">
<polygon fill="none" stroke="#000000" points="835.0412,-548.5 835.0412,-567.5 954.0412,-567.5 954.0412,-548.5 835.0412,-548.5"/>
<text text-anchor="middle" x="894.5412" y="-555.5" font-family="FreeSans.ttf" font-size="10.00" fill="#000000">iDynTree/Visualizer.h</text>
</a>
</g>
</g>
<!-- Node1&#45;&gt;Node2 -->
<g id="edge2" class="edge">
<title>Node1&#45;&gt;Node2</title>
<path fill="none" stroke="#191970" d="M742.1719,-604.3733C772.9007,-595.021 819.7172,-580.7725 853.3433,-570.5385"/>
<polygon fill="#191970" stroke="#191970" points="854.7755,-573.7612 863.3232,-567.5011 852.7373,-567.0644 854.7755,-573.7612"/>
</g>
<!-- Node51 -->
<g id="node36" class="node">
<title>Node51</title>
<polygon fill="none" stroke="#bfbfbf" points="760.0412,-548.5 760.0412,-567.5 817.0412,-567.5 817.0412,-548.5 760.0412,-548.5"/>
<text text-anchor="middle" x="788.5412" y="-555.5" font-family="FreeSans.ttf" font-size="10.00" fill="#000000">irrlicht.h</text>
</g>
<!-- Node1&#45;&gt;Node51 -->
<g id="edge74" class="edge">
<title>Node1&#45;&gt;Node51</title>
<path fill="none" stroke="#191970" d="M724.1277,-604.2455C735.8716,-595.814 753.061,-583.4729 766.7293,-573.6598"/>
<polygon fill="#191970" stroke="#191970" points="769.0283,-576.3179 775.1103,-567.6427 764.9458,-570.6316 769.0283,-576.3179"/>
</g>
<!-- Node3 -->
<g id="node4" class="node">
<title>Node3</title>
<polygon fill="none" stroke="#bfbfbf" points="1286.5412,-56.5 1286.5412,-75.5 1330.5412,-75.5 1330.5412,-56.5 1286.5412,-56.5"/>
<text text-anchor="middle" x="1308.5412" y="-63.5" font-family="FreeSans.ttf" font-size="10.00" fill="#000000">string</text>
</g>
<!-- Node2&#45;&gt;Node3 -->
<g id="edge3" class="edge">
<title>Node2&#45;&gt;Node3</title>
<path fill="none" stroke="#191970" d="M954.2275,-556.4843C1078.6051,-552.753 1356.599,-541.2094 1387.5412,-512 1455.4116,-447.9304 1454.8353,-367.6993 1388.5412,-302 1337.6927,-251.6078 1276.1479,-321.9927 1231.5412,-266 1185.6326,-208.3732 1256.82,-120.229 1291.4183,-83.2604"/>
<polygon fill="#191970" stroke="#191970" points="1294.1868,-85.4298 1298.574,-75.7861 1289.1304,-80.589 1294.1868,-85.4298"/>
</g>
<!-- Node4 -->
<g id="node5" class="node">
<title>Node4</title>
<g id="a_node5"><a xlink:href="Direction_8h.html" target="_top" xlink:title="iDynTree/Core/Direction.h">
<polygon fill="none" stroke="#000000" points="15.0412,-174 15.0412,-193 156.0412,-193 156.0412,-174 15.0412,-174"/>
<text text-anchor="middle" x="85.5412" y="-181" font-family="FreeSans.ttf" font-size="10.00" fill="#000000">iDynTree/Core/Direction.h</text>
</a>
</g>
</g>
<!-- Node2&#45;&gt;Node4 -->
<g id="edge4" class="edge">
<title>Node2&#45;&gt;Node4</title>
<path fill="none" stroke="#191970" d="M834.8541,-549.096C832.0452,-548.7168 829.2633,-548.3494 826.5412,-548 742.4699,-537.2083 70.5412,-530.7611 70.5412,-446 70.5412,-446 70.5412,-446 70.5412,-317.5 70.5412,-276.7168 77.4882,-229.3825 81.9268,-203.302"/>
<polygon fill="#191970" stroke="#191970" points="85.4166,-203.6652 83.7019,-193.21 78.5224,-202.4525 85.4166,-203.6652"/>
</g>
<!-- Node19 -->
<g id="node13" class="node">
<title>Node19</title>
<g id="a_node13"><a xlink:href="JointState_8h.html" target="_top" xlink:title="iDynTree/Model/JointState.h">
<polygon fill="none" stroke="#000000" points="507.0412,-492.5 507.0412,-511.5 658.0412,-511.5 658.0412,-492.5 507.0412,-492.5"/>
<text text-anchor="middle" x="582.5412" y="-499.5" font-family="FreeSans.ttf" font-size="10.00" fill="#000000">iDynTree/Model/JointState.h</text>
</a>
</g>
</g>
<!-- Node2&#45;&gt;Node19 -->
<g id="edge17" class="edge">
<title>Node2&#45;&gt;Node19</title>
<path fill="none" stroke="#191970" d="M841.2609,-548.4369C787.0793,-538.712 703.1381,-523.6456 645.657,-513.3285"/>
<polygon fill="#191970" stroke="#191970" points="646.0627,-509.8454 635.6016,-511.5237 644.826,-516.7353 646.0627,-509.8454"/>
</g>
<!-- Node39 -->
<g id="node24" class="node">
<title>Node39</title>
<g id="a_node24"><a xlink:href="LinkState_8h.html" target="_top" xlink:title="iDynTree/Model/LinkState.h">
<polygon fill="none" stroke="#000000" points="1229.0412,-492.5 1229.0412,-511.5 1378.0412,-511.5 1378.0412,-492.5 1229.0412,-492.5"/>
<text text-anchor="middle" x="1303.5412" y="-499.5" font-family="FreeSans.ttf" font-size="10.00" fill="#000000">iDynTree/Model/LinkState.h</text>
</a>
</g>
</g>
<!-- Node2&#45;&gt;Node39 -->
<g id="edge41" class="edge">
<title>Node2&#45;&gt;Node39</title>
<path fill="none" stroke="#191970" d="M954.4513,-549.7971C1025.5879,-540.0572 1144.5153,-523.7737 1223.4889,-512.9607"/>
<polygon fill="#191970" stroke="#191970" points="1224.4438,-516.3627 1233.8766,-511.5384 1223.4942,-509.4274 1224.4438,-516.3627"/>
</g>
<!-- Node4&#45;&gt;Node3 -->
<g id="edge5" class="edge">
<title>Node4&#45;&gt;Node3</title>
<path fill="none" stroke="#191970" d="M156.2778,-182.1909C303.9781,-178.8178 655.7459,-167.4424 948.5412,-132 1070.4874,-117.2386 1213.5465,-87.1353 1276.2934,-73.2783"/>
<polygon fill="#191970" stroke="#191970" points="1277.3544,-76.628 1286.3573,-71.0425 1275.8363,-69.7945 1277.3544,-76.628"/>
</g>
<!-- Node5 -->
<g id="node6" class="node">
<title>Node5</title>
<g id="a_node6"><a xlink:href="VectorFixSize_8h.html" target="_top" xlink:title="iDynTree/Core/VectorFixSize.h">
<polygon fill="none" stroke="#000000" points="225.0412,-112.5 225.0412,-131.5 386.0412,-131.5 386.0412,-112.5 225.0412,-112.5"/>
<text text-anchor="middle" x="305.5412" y="-119.5" font-family="FreeSans.ttf" font-size="10.00" fill="#000000">iDynTree/Core/VectorFixSize.h</text>
</a>
</g>
</g>
<!-- Node4&#45;&gt;Node5 -->
<g id="edge6" class="edge">
<title>Node4&#45;&gt;Node5</title>
<path fill="none" stroke="#191970" d="M119.9162,-173.8906C158.0985,-163.2169 219.8427,-145.9566 261.5295,-134.3033"/>
<polygon fill="#191970" stroke="#191970" points="262.7191,-137.605 271.4075,-131.5419 260.8345,-130.8634 262.7191,-137.605"/>
</g>
<!-- Node6 -->
<g id="node7" class="node">
<title>Node6</title>
<g id="a_node7"><a xlink:href="Utils_8h.html" target="_top" xlink:title="iDynTree/Core/Utils.h">
<polygon fill="none" stroke="#000000" points="267.0412,-56.5 267.0412,-75.5 386.0412,-75.5 386.0412,-56.5 267.0412,-56.5"/>
<text text-anchor="middle" x="326.5412" y="-63.5" font-family="FreeSans.ttf" font-size="10.00" fill="#000000">iDynTree/Core/Utils.h</text>
</a>
</g>
</g>
<!-- Node4&#45;&gt;Node6 -->
<g id="edge16" class="edge">
<title>Node4&#45;&gt;Node6</title>
<path fill="none" stroke="#191970" d="M101.7996,-173.9142C126.2862,-159.6415 174.2688,-132.3078 216.5412,-112 241.4589,-100.0294 270.3141,-88.0299 292.2177,-79.2892"/>
<polygon fill="#191970" stroke="#191970" points="293.7436,-82.4495 301.7533,-75.5144 291.167,-75.9409 293.7436,-82.4495"/>
</g>
<!-- Node5&#45;&gt;Node3 -->
<g id="edge12" class="edge">
<title>Node5&#45;&gt;Node3</title>
<path fill="none" stroke="#191970" d="M386.09,-115.393C401.8208,-114.1914 418.1938,-113.0028 433.5412,-112 762.2029,-90.526 1160.8264,-72.4713 1275.972,-67.4128"/>
<polygon fill="#191970" stroke="#191970" points="1276.381,-70.8983 1286.2183,-66.9641 1276.0748,-63.905 1276.381,-70.8983"/>
</g>
<!-- Node5&#45;&gt;Node6 -->
<g id="edge7" class="edge">
<title>Node5&#45;&gt;Node6</title>
<path fill="none" stroke="#191970" d="M309.1991,-112.2455C311.9995,-104.7776 315.9502,-94.2427 319.3735,-85.1137"/>
<polygon fill="#191970" stroke="#191970" points="322.691,-86.2349 322.9252,-75.6427 316.1367,-83.777 322.691,-86.2349"/>
</g>
<!-- Node8 -->
<g id="node9" class="node">
<title>Node8</title>
<g id="a_node9"><a xlink:href="Span_8h.html" target="_top" xlink:title="iDynTree/Core/Span.h">
<polygon fill="none" stroke="#ff0000" points="459.0412,-56.5 459.0412,-75.5 580.0412,-75.5 580.0412,-56.5 459.0412,-56.5"/>
<text text-anchor="middle" x="519.5412" y="-63.5" font-family="FreeSans.ttf" font-size="10.00" fill="#000000">iDynTree/Core/Span.h</text>
</a>
</g>
</g>
<!-- Node5&#45;&gt;Node8 -->
<g id="edge9" class="edge">
<title>Node5&#45;&gt;Node8</title>
<path fill="none" stroke="#191970" d="M342.3291,-112.3733C378.6072,-102.8799 434.1647,-88.3415 473.3857,-78.0781"/>
<polygon fill="#191970" stroke="#191970" points="474.4451,-81.4188 483.2333,-75.5011 472.673,-74.6468 474.4451,-81.4188"/>
</g>
<!-- Node5&#45;&gt;Node9 -->
<g id="edge14" class="edge">
<title>Node5&#45;&gt;Node9</title>
<path fill="none" stroke="#191970" d="M325.0004,-112.4691C352.6056,-99.1037 404.865,-74.372 450.5412,-56 482.269,-43.2383 519.0647,-30.4934 545.5662,-21.6662"/>
<polygon fill="#191970" stroke="#191970" points="546.7927,-24.9471 555.1871,-18.4831 544.5938,-18.3014 546.7927,-24.9471"/>
</g>
<!-- Node17 -->
<g id="node11" class="node">
<title>Node17</title>
<polygon fill="none" stroke="#bfbfbf" points="706.5412,-56.5 706.5412,-75.5 762.5412,-75.5 762.5412,-56.5 706.5412,-56.5"/>
<text text-anchor="middle" x="734.5412" y="-63.5" font-family="FreeSans.ttf" font-size="10.00" fill="#000000">sstream</text>
</g>
<!-- Node5&#45;&gt;Node17 -->
<g id="edge13" class="edge">
<title>Node5&#45;&gt;Node17</title>
<path fill="none" stroke="#191970" d="M378.8014,-112.4369C470.5349,-100.4624 624.3089,-80.3893 695.8088,-71.056"/>
<polygon fill="#191970" stroke="#191970" points="696.6873,-74.4711 706.1501,-69.7061 695.7812,-67.53 696.6873,-74.4711"/>
</g>
<!-- Node18 -->
<g id="node12" class="node">
<title>Node18</title>
<polygon fill="none" stroke="#bfbfbf" points="780.5412,-56.5 780.5412,-75.5 830.5412,-75.5 830.5412,-56.5 780.5412,-56.5"/>
<text text-anchor="middle" x="805.5412" y="-63.5" font-family="FreeSans.ttf" font-size="10.00" fill="#000000">cstring</text>
</g>
<!-- Node5&#45;&gt;Node18 -->
<g id="edge15" class="edge">
<title>Node5&#45;&gt;Node18</title>
<path fill="none" stroke="#191970" d="M386.1771,-114.8711C502.0764,-104.5064 707.8824,-85.6233 770.218,-75.7515"/>
<polygon fill="#191970" stroke="#191970" points="771.1763,-79.1368 780.4201,-73.9597 769.9654,-72.2423 771.1763,-79.1368"/>
</g>
<!-- Node7 -->
<g id="node8" class="node">
<title>Node7</title>
<polygon fill="none" stroke="#bfbfbf" points="431.0412,-.5 431.0412,-19.5 484.0412,-19.5 484.0412,-.5 431.0412,-.5"/>
<text text-anchor="middle" x="457.5412" y="-7.5" font-family="FreeSans.ttf" font-size="10.00" fill="#000000">cstddef</text>
</g>
<!-- Node6&#45;&gt;Node7 -->
<g id="edge8" class="edge">
<title>Node6&#45;&gt;Node7</title>
<path fill="none" stroke="#191970" d="M349.0609,-56.3733C370.2784,-47.3032 402.2688,-33.6279 426.018,-23.4755"/>
<polygon fill="#191970" stroke="#191970" points="427.496,-26.6502 435.3153,-19.5011 424.7445,-20.2136 427.496,-26.6502"/>
</g>
<!-- Node8&#45;&gt;Node7 -->
<g id="edge11" class="edge">
<title>Node8&#45;&gt;Node7</title>
<path fill="none" stroke="#191970" d="M508.7416,-56.2455C499.6734,-48.0549 486.5205,-36.1749 475.8167,-26.5069"/>
<polygon fill="#191970" stroke="#191970" points="477.984,-23.7482 468.217,-19.6427 473.292,-28.9429 477.984,-23.7482"/>
</g>
<!-- Node8&#45;&gt;Node9 -->
<g id="edge10" class="edge">
<title>Node8&#45;&gt;Node9</title>
<path fill="none" stroke="#191970" d="M530.3407,-56.2455C539.4089,-48.0549 552.5618,-36.1749 563.2656,-26.5069"/>
<polygon fill="#191970" stroke="#191970" points="565.7903,-28.9429 570.8653,-19.6427 561.0983,-23.7482 565.7903,-28.9429"/>
</g>
<!-- Node19&#45;&gt;Node5 -->
<g id="edge18" class="edge">
<title>Node19&#45;&gt;Node5</title>
<path fill="none" stroke="#191970" d="M506.9238,-498.7501C408.3335,-493.5694 241.9339,-481.3236 186.5412,-456 143.771,-436.447 108.5412,-431.5277 108.5412,-384.5 108.5412,-384.5 108.5412,-384.5 108.5412,-317.5 108.5412,-237.5614 148.0249,-220.2299 208.5412,-168 225.1221,-153.6895 246.9203,-142.824 265.6519,-135.2564"/>
<polygon fill="#191970" stroke="#191970" points="267.0561,-138.4661 275.1239,-131.5988 264.5345,-131.9361 267.0561,-138.4661"/>
</g>
<!-- Node20 -->
<g id="node14" class="node">
<title>Node20</title>
<g id="a_node14"><a xlink:href="VectorDynSize_8h.html" target="_top" xlink:title="iDynTree/Core/VectorDynSize.h">
<polygon fill="none" stroke="#000000" points="442.0412,-112.5 442.0412,-131.5 609.0412,-131.5 609.0412,-112.5 442.0412,-112.5"/>
<text text-anchor="middle" x="525.5412" y="-119.5" font-family="FreeSans.ttf" font-size="10.00" fill="#000000">iDynTree/Core/VectorDynSize.h</text>
</a>
</g>
</g>
<!-- Node19&#45;&gt;Node20 -->
<g id="edge19" class="edge">
<title>Node19&#45;&gt;Node20</title>
<path fill="none" stroke="#191970" d="M506.6829,-496.9812C404.0645,-489.5427 231.1554,-474.4624 208.5412,-456 182.5754,-434.8014 184.5412,-418.0202 184.5412,-384.5 184.5412,-384.5 184.5412,-384.5 184.5412,-317.5 184.5412,-199.9461 338.9463,-152.0748 439.9567,-133.3351"/>
<polygon fill="#191970" stroke="#191970" points="440.6372,-136.7689 449.8622,-131.5584 439.4013,-129.8789 440.6372,-136.7689"/>
</g>
<!-- Node21 -->
<g id="node15" class="node">
<title>Node21</title>
<g id="a_node15"><a xlink:href="SpatialForceVector_8h.html" target="_top" xlink:title="iDynTree/Core/SpatialForce\lVector.h">
<polygon fill="none" stroke="#000000" points="508.5412,-369.5 508.5412,-399.5 656.5412,-399.5 656.5412,-369.5 508.5412,-369.5"/>
<text text-anchor="start" x="516.5412" y="-387.5" font-family="FreeSans.ttf" font-size="10.00" fill="#000000">iDynTree/Core/SpatialForce</text>
<text text-anchor="middle" x="582.5412" y="-376.5" font-family="FreeSans.ttf" font-size="10.00" fill="#000000">Vector.h</text>
</a>
</g>
</g>
<!-- Node19&#45;&gt;Node21 -->
<g id="edge22" class="edge">
<title>Node19&#45;&gt;Node21</title>
<path fill="none" stroke="#191970" d="M582.5412,-492.3845C582.5412,-474.544 582.5412,-435.7839 582.5412,-409.9138"/>
<polygon fill="#191970" stroke="#191970" points="586.0413,-409.7143 582.5412,-399.7143 579.0413,-409.7143 586.0413,-409.7143"/>
</g>
<!-- Node38 -->
<g id="node23" class="node">
<title>Node38</title>
<polygon fill="none" stroke="#bfbfbf" points="852.0412,-436.5 852.0412,-455.5 899.0412,-455.5 899.0412,-436.5 852.0412,-436.5"/>
<text text-anchor="middle" x="875.5412" y="-443.5" font-family="FreeSans.ttf" font-size="10.00" fill="#000000">vector</text>
</g>
<!-- Node19&#45;&gt;Node38 -->
<g id="edge40" class="edge">
<title>Node19&#45;&gt;Node38</title>
<path fill="none" stroke="#191970" d="M632.5767,-492.4369C692.365,-481.0098 790.7405,-462.2076 842.0475,-452.4015"/>
<polygon fill="#191970" stroke="#191970" points="842.7883,-455.8234 851.9535,-450.5082 841.4742,-448.9478 842.7883,-455.8234"/>
</g>
<!-- Node20&#45;&gt;Node3 -->
<g id="edge21" class="edge">
<title>Node20&#45;&gt;Node3</title>
<path fill="none" stroke="#191970" d="M609.3359,-116.007C780.3651,-103.775 1163.0429,-76.406 1276.3453,-68.3026"/>
<polygon fill="#191970" stroke="#191970" points="1276.7282,-71.7843 1286.453,-67.5797 1276.2288,-64.8021 1276.7282,-71.7843"/>
</g>
<!-- Node20&#45;&gt;Node8 -->
<g id="edge20" class="edge">
<title>Node20&#45;&gt;Node8</title>
<path fill="none" stroke="#191970" d="M524.496,-112.2455C523.7131,-104.9382 522.6156,-94.6944 521.6524,-85.7046"/>
<polygon fill="#191970" stroke="#191970" points="525.1198,-85.2129 520.5743,-75.6427 518.1596,-85.9587 525.1198,-85.2129"/>
</g>
<!-- Node21&#45;&gt;Node5 -->
<g id="edge23" class="edge">
<title>Node21&#45;&gt;Node5</title>
<path fill="none" stroke="#191970" d="M508.3411,-371.2224C463.1695,-361.8444 410.9145,-348.2637 393.5412,-333 334.5453,-281.168 314.1765,-183.4145 307.9675,-141.6861"/>
<polygon fill="#191970" stroke="#191970" points="311.4243,-141.1316 306.5979,-131.6999 304.4892,-142.0828 311.4243,-141.1316"/>
</g>
<!-- Node22 -->
<g id="node16" class="node">
<title>Node22</title>
<g id="a_node16"><a xlink:href="LinearForceVector3_8h.html" target="_top" xlink:title="iDynTree/Core/LinearForce\lVector3.h">
<polygon fill="none" stroke="#ff0000" points="610.5412,-302.5 610.5412,-332.5 754.5412,-332.5 754.5412,-302.5 610.5412,-302.5"/>
<text text-anchor="start" x="618.5412" y="-320.5" font-family="FreeSans.ttf" font-size="10.00" fill="#000000">iDynTree/Core/LinearForce</text>
<text text-anchor="middle" x="682.5412" y="-309.5" font-family="FreeSans.ttf" font-size="10.00" fill="#000000">Vector3.h</text>
</a>
</g>
</g>
<!-- Node21&#45;&gt;Node22 -->
<g id="edge24" class="edge">
<title>Node21&#45;&gt;Node22</title>
<path fill="none" stroke="#191970" d="M605.2327,-369.2967C618.9133,-360.1306 636.5285,-348.3285 651.4881,-338.3055"/>
<polygon fill="#191970" stroke="#191970" points="653.5799,-341.1171 659.9394,-332.6432 649.6835,-335.3017 653.5799,-341.1171"/>
</g>
<!-- Node30 -->
<g id="node17" class="node">
<title>Node30</title>
<g id="a_node17"><a xlink:href="PrivateMotionForceVertorAssociations_8h.html" target="_top" xlink:title="iDynTree/Core/PrivateMotion\lForceVertorAssociations.h">
<polygon fill="none" stroke="#000000" points="511.0412,-235.5 511.0412,-265.5 666.0412,-265.5 666.0412,-235.5 511.0412,-235.5"/>
<text text-anchor="start" x="519.0412" y="-253.5" font-family="FreeSans.ttf" font-size="10.00" fill="#000000">iDynTree/Core/PrivateMotion</text>
<text text-anchor="middle" x="588.5412" y="-242.5" font-family="FreeSans.ttf" font-size="10.00" fill="#000000">ForceVertorAssociations.h</text>
</a>
</g>
</g>
<!-- Node21&#45;&gt;Node30 -->
<g id="edge39" class="edge">
<title>Node21&#45;&gt;Node30</title>
<path fill="none" stroke="#191970" d="M583.2178,-369.389C584.2351,-346.6691 586.1708,-303.438 587.4065,-275.8405"/>
<polygon fill="#191970" stroke="#191970" points="590.9069,-275.908 587.8578,-265.7614 583.9139,-275.5948 590.9069,-275.908"/>
</g>
<!-- Node31 -->
<g id="node18" class="node">
<title>Node31</title>
<g id="a_node18"><a xlink:href="AngularForceVector3_8h.html" target="_top" xlink:title="iDynTree/Core/AngularForce\lVector3.h">
<polygon fill="none" stroke="#ff0000" points="402.5412,-302.5 402.5412,-332.5 554.5412,-332.5 554.5412,-302.5 402.5412,-302.5"/>
<text text-anchor="start" x="410.5412" y="-320.5" font-family="FreeSans.ttf" font-size="10.00" fill="#000000">iDynTree/Core/AngularForce</text>
<text text-anchor="middle" x="478.5412" y="-309.5" font-family="FreeSans.ttf" font-size="10.00" fill="#000000">Vector3.h</text>
</a>
</g>
</g>
<!-- Node21&#45;&gt;Node31 -->
<g id="edge26" class="edge">
<title>Node21&#45;&gt;Node31</title>
<path fill="none" stroke="#191970" d="M559.2015,-369.4639C544.9837,-360.3044 526.6089,-348.4667 510.9889,-338.4038"/>
<polygon fill="#191970" stroke="#191970" points="512.4648,-335.1912 502.1627,-332.7177 508.6737,-341.0758 512.4648,-335.1912"/>
</g>
<!-- Node32 -->
<g id="node19" class="node">
<title>Node32</title>
<g id="a_node19"><a xlink:href="SpatialVector_8h.html" target="_top" xlink:title="iDynTree/Core/SpatialVector.h">
<polygon fill="none" stroke="#ff0000" points="1195.0412,-308 1195.0412,-327 1356.0412,-327 1356.0412,-308 1195.0412,-308"/>
<text text-anchor="middle" x="1275.5412" y="-315" font-family="FreeSans.ttf" font-size="10.00" fill="#000000">iDynTree/Core/SpatialVector.h</text>
</a>
</g>
</g>
<!-- Node21&#45;&gt;Node32 -->
<g id="edge28" class="edge">
<title>Node21&#45;&gt;Node32</title>
<path fill="none" stroke="#191970" d="M656.5544,-380.2202C770.4988,-373.1712 995.6171,-357.4197 1185.5412,-333 1194.9949,-331.7845 1204.9718,-330.2851 1214.7047,-328.7021"/>
<polygon fill="#191970" stroke="#191970" points="1215.4389,-332.1281 1224.7269,-327.0307 1214.2874,-325.2235 1215.4389,-332.1281"/>
</g>
<!-- Node22&#45;&gt;Node30 -->
<g id="edge25" class="edge">
<title>Node22&#45;&gt;Node30</title>
<path fill="none" stroke="#191970" d="M661.2111,-302.2967C648.4715,-293.2163 632.1022,-281.5488 618.1259,-271.587"/>
<polygon fill="#191970" stroke="#191970" points="619.9615,-268.5973 609.7868,-265.6432 615.8985,-274.2975 619.9615,-268.5973"/>
</g>
<!-- Node31&#45;&gt;Node30 -->
<g id="edge27" class="edge">
<title>Node31&#45;&gt;Node30</title>
<path fill="none" stroke="#191970" d="M503.2273,-302.4639C518.4059,-293.2188 538.064,-281.2452 554.6839,-271.1222"/>
<polygon fill="#191970" stroke="#191970" points="556.837,-273.9089 563.5568,-265.7177 553.1956,-267.9305 556.837,-273.9089"/>
</g>
<!-- Node32&#45;&gt;Node6 -->
<g id="edge36" class="edge">
<title>Node32&#45;&gt;Node6</title>
<path fill="none" stroke="#191970" d="M1221.3204,-307.9501C1209.5338,-305.9334 1197.1262,-303.8555 1185.5412,-302 1077.7364,-284.7337 1049.4945,-287.9311 942.5412,-266 713.3791,-219.0096 648.5416,-224.1855 433.5412,-132 416.5839,-124.7293 375.3564,-98.2761 349.3114,-81.1484"/>
<polygon fill="#191970" stroke="#191970" points="351.0703,-78.1156 340.7969,-75.5258 347.2129,-83.957 351.0703,-78.1156"/>
</g>
<!-- Node32&#45;&gt;Node17 -->
<g id="edge38" class="edge">
<title>Node32&#45;&gt;Node17</title>
<path fill="none" stroke="#191970" d="M1226.5164,-307.9725C1169.0938,-296.5673 1077.6061,-277.562 1044.5412,-266 916.2011,-221.1227 867.3084,-226.4813 769.5412,-132 756.0324,-118.9453 746.6057,-99.5349 740.9663,-85.1401"/>
<polygon fill="#191970" stroke="#191970" points="744.2404,-83.9022 737.525,-75.7074 737.6643,-86.3013 744.2404,-83.9022"/>
</g>
<!-- Node32&#45;&gt;Node30 -->
<g id="edge35" class="edge">
<title>Node32&#45;&gt;Node30</title>
<path fill="none" stroke="#191970" d="M1225.2148,-307.9245C1212.3196,-305.7211 1198.4474,-303.5675 1185.5412,-302 962.1685,-274.8714 903.9628,-292.7222 680.5412,-266 679.2294,-265.8431 677.9079,-265.6805 676.5785,-265.5126"/>
<polygon fill="#191970" stroke="#191970" points="676.6413,-261.9899 666.2654,-264.1325 675.7128,-268.9281 676.6413,-261.9899"/>
</g>
<!-- Node33 -->
<g id="node20" class="node">
<title>Node33</title>
<g id="a_node20"><a xlink:href="Position_8h.html" target="_top" xlink:title="Position.h">
<polygon fill="none" stroke="#ff0000" points="1240.0412,-241 1240.0412,-260 1305.0412,-260 1305.0412,-241 1240.0412,-241"/>
<text text-anchor="middle" x="1272.5412" y="-248" font-family="FreeSans.ttf" font-size="10.00" fill="#000000">Position.h</text>
</a>
</g>
</g>
<!-- Node32&#45;&gt;Node33 -->
<g id="edge29" class="edge">
<title>Node32&#45;&gt;Node33</title>
<path fill="none" stroke="#191970" d="M1275.1113,-307.9005C1274.6747,-298.149 1273.9856,-282.7597 1273.4308,-270.3695"/>
<polygon fill="#191970" stroke="#191970" points="1276.9141,-269.9151 1272.9702,-260.0817 1269.9211,-270.2282 1276.9141,-269.9151"/>
</g>
<!-- Node25 -->
<g id="node21" class="node">
<title>Node25</title>
<g id="a_node21"><a xlink:href="Rotation_8h.html" target="_top" xlink:title="iDynTree/Core/Rotation.h">
<polygon fill="none" stroke="#ff0000" points="1240.0412,-174 1240.0412,-193 1377.0412,-193 1377.0412,-174 1240.0412,-174"/>
<text text-anchor="middle" x="1308.5412" y="-181" font-family="FreeSans.ttf" font-size="10.00" fill="#000000">iDynTree/Core/Rotation.h</text>
</a>
</g>
</g>
<!-- Node32&#45;&gt;Node25 -->
<g id="edge34" class="edge">
<title>Node32&#45;&gt;Node25</title>
<path fill="none" stroke="#191970" d="M1263.7177,-307.8448C1246.3551,-292.4384 1217.4674,-261.3444 1231.5412,-235 1240.5365,-218.1617 1257.7451,-205.8661 1273.6162,-197.5207"/>
<polygon fill="#191970" stroke="#191970" points="1275.2902,-200.5982 1282.7341,-193.059 1272.2134,-194.3106 1275.2902,-200.5982"/>
</g>
<!-- Node28 -->
<g id="node22" class="node">
<title>Node28</title>
<polygon fill="none" stroke="#bfbfbf" points="933.5412,-56.5 933.5412,-75.5 993.5412,-75.5 993.5412,-56.5 933.5412,-56.5"/>
<text text-anchor="middle" x="963.5412" y="-63.5" font-family="FreeSans.ttf" font-size="10.00" fill="#000000">iostream</text>
</g>
<!-- Node32&#45;&gt;Node28 -->
<g id="edge37" class="edge">
<title>Node32&#45;&gt;Node28</title>
<path fill="none" stroke="#191970" d="M1225.3431,-307.929C1176.5474,-297.9417 1106.535,-281.5921 1083.5412,-266 1017.2303,-221.0348 981.7385,-126.1045 969.0375,-85.3042"/>
<polygon fill="#191970" stroke="#191970" points="972.332,-84.1046 966.1126,-75.5273 965.6256,-86.1109 972.332,-84.1046"/>
</g>
<!-- Node33&#45;&gt;Node3 -->
<g id="edge33" class="edge">
<title>Node33&#45;&gt;Node3</title>
<path fill="none" stroke="#191970" d="M1305.0999,-245.5799C1332.0471,-239.6041 1368.6964,-226.6426 1386.5412,-199 1413.2145,-157.6813 1361.4267,-107.166 1330.0594,-81.9365"/>
<polygon fill="#191970" stroke="#191970" points="1331.8729,-78.9122 1321.8359,-75.5197 1327.5666,-84.4309 1331.8729,-78.9122"/>
</g>
<!-- Node33&#45;&gt;Node25 -->
<g id="edge30" class="edge">
<title>Node33&#45;&gt;Node25</title>
<path fill="none" stroke="#191970" d="M1277.6991,-240.9005C1283.0991,-230.8505 1291.7167,-214.8122 1298.4717,-202.2403"/>
<polygon fill="#191970" stroke="#191970" points="1301.7427,-203.5472 1303.3928,-193.0817 1295.5765,-200.234 1301.7427,-203.5472"/>
</g>
<!-- Node25&#45;&gt;Node3 -->
<g id="edge31" class="edge">
<title>Node25&#45;&gt;Node3</title>
<path fill="none" stroke="#191970" d="M1308.5412,-173.8845C1308.5412,-154.6913 1308.5412,-111.286 1308.5412,-85.7663"/>
<polygon fill="#191970" stroke="#191970" points="1312.0413,-85.7483 1308.5412,-75.7484 1305.0413,-85.7484 1312.0413,-85.7483"/>
</g>
<!-- Node25&#45;&gt;Node5 -->
<g id="edge32" class="edge">
<title>Node25&#45;&gt;Node5</title>
<path fill="none" stroke="#191970" d="M1244.832,-173.9913C1227.8712,-171.7327 1209.5389,-169.5359 1192.5412,-168 856.1989,-137.6083 770.5905,-153.1543 433.5412,-132 421.4292,-131.2398 408.6794,-130.3507 396.111,-129.4218"/>
<polygon fill="#191970" stroke="#191970" points="396.3197,-125.9277 386.086,-128.67 395.7962,-132.9081 396.3197,-125.9277"/>
</g>
<!-- Node39&#45;&gt;Node38 -->
<g id="edge73" class="edge">
<title>Node39&#45;&gt;Node38</title>
<path fill="none" stroke="#191970" d="M1228.8876,-493.0999C1225.73,-492.7275 1222.6042,-492.3596 1219.5412,-492 1084.5841,-476.1559 1046.55,-483.9043 909.2621,-455.8097"/>
<polygon fill="#191970" stroke="#191970" points="909.7055,-452.3273 899.2032,-453.7241 908.2843,-459.1815 909.7055,-452.3273"/>
</g>
<!-- Node40 -->
<g id="node25" class="node">
<title>Node40</title>
<g id="a_node25"><a xlink:href="Transform_8h.html" target="_top" xlink:title="iDynTree/Core/Transform.h">
<polygon fill="none" stroke="#000000" points="1450.5412,-308 1450.5412,-327 1596.5412,-327 1596.5412,-308 1450.5412,-308"/>
<text text-anchor="middle" x="1523.5412" y="-315" font-family="FreeSans.ttf" font-size="10.00" fill="#000000">iDynTree/Core/Transform.h</text>
</a>
</g>
</g>
<!-- Node39&#45;&gt;Node40 -->
<g id="edge42" class="edge">
<title>Node39&#45;&gt;Node40</title>
<path fill="none" stroke="#191970" d="M1330.0618,-492.3846C1350.0148,-484.4131 1377.4351,-471.8381 1398.5412,-456 1446.4641,-420.0383 1490.3959,-363.7331 1511.0829,-335.2605"/>
<polygon fill="#191970" stroke="#191970" points="1513.982,-337.2234 1516.9582,-327.0551 1508.2906,-333.1481 1513.982,-337.2234"/>
</g>
<!-- Node42 -->
<g id="node28" class="node">
<title>Node42</title>
<g id="a_node28"><a xlink:href="Twist_8h.html" target="_top" xlink:title="iDynTree/Core/Twist.h">
<polygon fill="none" stroke="#000000" points="1068.5412,-436.5 1068.5412,-455.5 1190.5412,-455.5 1190.5412,-436.5 1068.5412,-436.5"/>
<text text-anchor="middle" x="1129.5412" y="-443.5" font-family="FreeSans.ttf" font-size="10.00" fill="#000000">iDynTree/Core/Twist.h</text>
</a>
</g>
</g>
<!-- Node39&#45;&gt;Node42 -->
<g id="edge55" class="edge">
<title>Node39&#45;&gt;Node42</title>
<path fill="none" stroke="#191970" d="M1273.6295,-492.3733C1244.6959,-483.0613 1200.68,-468.8953 1168.9118,-458.671"/>
<polygon fill="#191970" stroke="#191970" points="1169.6539,-455.2331 1159.0625,-455.5011 1167.5094,-461.8965 1169.6539,-455.2331"/>
</g>
<!-- Node47 -->
<g id="node32" class="node">
<title>Node47</title>
<g id="a_node32"><a xlink:href="SpatialAcc_8h.html" target="_top" xlink:title="iDynTree/Core/SpatialAcc.h">
<polygon fill="none" stroke="#000000" points="1208.5412,-436.5 1208.5412,-455.5 1356.5412,-455.5 1356.5412,-436.5 1208.5412,-436.5"/>
<text text-anchor="middle" x="1282.5412" y="-443.5" font-family="FreeSans.ttf" font-size="10.00" fill="#000000">iDynTree/Core/SpatialAcc.h</text>
</a>
</g>
</g>
<!-- Node39&#45;&gt;Node47 -->
<g id="edge64" class="edge">
<title>Node39&#45;&gt;Node47</title>
<path fill="none" stroke="#191970" d="M1299.8832,-492.2455C1297.0828,-484.7776 1293.1322,-474.2427 1289.7088,-465.1137"/>
<polygon fill="#191970" stroke="#191970" points="1292.9456,-463.777 1286.1572,-455.6427 1286.3913,-466.2349 1292.9456,-463.777"/>
</g>
<!-- Node48 -->
<g id="node33" class="node">
<title>Node48</title>
<g id="a_node33"><a xlink:href="Wrench_8h.html" target="_top" xlink:title="iDynTree/Core/Wrench.h">
<polygon fill="none" stroke="#000000" points="917.0412,-436.5 917.0412,-455.5 1050.0412,-455.5 1050.0412,-436.5 917.0412,-436.5"/>
<text text-anchor="middle" x="983.5412" y="-443.5" font-family="FreeSans.ttf" font-size="10.00" fill="#000000">iDynTree/Core/Wrench.h</text>
</a>
</g>
</g>
<!-- Node39&#45;&gt;Node48 -->
<g id="edge66" class="edge">
<title>Node39&#45;&gt;Node48</title>
<path fill="none" stroke="#191970" d="M1248.8948,-492.4369C1193.2088,-482.6918 1106.8737,-467.5832 1047.9095,-457.2645"/>
<polygon fill="#191970" stroke="#191970" points="1048.4158,-453.7999 1037.9621,-455.5237 1047.2091,-460.6952 1048.4158,-453.7999"/>
</g>
<!-- Node49 -->
<g id="node34" class="node">
<title>Node49</title>
<g id="a_node34"><a xlink:href="ArticulatedBodyInertia_8h.html" target="_top" xlink:title="iDynTree/Core/Articulated\lBodyInertia.h">
<polygon fill="none" stroke="#000000" points="1042.0412,-168.5 1042.0412,-198.5 1183.0412,-198.5 1183.0412,-168.5 1042.0412,-168.5"/>
<text text-anchor="start" x="1050.0412" y="-186.5" font-family="FreeSans.ttf" font-size="10.00" fill="#000000">iDynTree/Core/Articulated</text>
<text text-anchor="middle" x="1112.5412" y="-175.5" font-family="FreeSans.ttf" font-size="10.00" fill="#000000">BodyInertia.h</text>
</a>
</g>
</g>
<!-- Node39&#45;&gt;Node49 -->
<g id="edge68" class="edge">
<title>Node39&#45;&gt;Node49</title>
<path fill="none" stroke="#191970" d="M1325.307,-492.3857C1339.6075,-484.773 1357.1664,-472.6416 1365.5412,-456 1396.3089,-394.8609 1408.5706,-355.2269 1365.5412,-302 1317.5343,-242.6161 1264.8894,-301.9906 1197.5412,-266 1170.2081,-251.3934 1145.6002,-225.3949 1129.9807,-206.4782"/>
<polygon fill="#191970" stroke="#191970" points="1132.6482,-204.2102 1123.6573,-198.6054 1127.1906,-208.5937 1132.6482,-204.2102"/>
</g>
<!-- Node50 -->
<g id="node35" class="node">
<title>Node50</title>
<g id="a_node35"><a xlink:href="Indices_8h.html" target="_top" xlink:title="iDynTree/Model/Indices.h">
<polygon fill="none" stroke="#000000" points="1727.5412,-436.5 1727.5412,-455.5 1865.5412,-455.5 1865.5412,-436.5 1727.5412,-436.5"/>
<text text-anchor="middle" x="1796.5412" y="-443.5" font-family="FreeSans.ttf" font-size="10.00" fill="#000000">iDynTree/Model/Indices.h</text>
</a>
</g>
</g>
<!-- Node39&#45;&gt;Node50 -->
<g id="edge71" class="edge">
<title>Node39&#45;&gt;Node50</title>
<path fill="none" stroke="#191970" d="M1378.1495,-493.5252C1469.5696,-483.1408 1623.8014,-465.6215 1717.2898,-455.0022"/>
<polygon fill="#191970" stroke="#191970" points="1717.7202,-458.4759 1727.2612,-453.8695 1716.93,-451.5206 1717.7202,-458.4759"/>
</g>
<!-- Node40&#45;&gt;Node3 -->
<g id="edge54" class="edge">
<title>Node40&#45;&gt;Node3</title>
<path fill="none" stroke="#191970" d="M1536.2198,-307.6407C1547.1364,-298.2782 1562.1157,-283.1188 1568.5412,-266 1573.3827,-253.1009 1574.7028,-247.3232 1568.5412,-235 1522.3208,-142.5592 1399.2116,-93.7242 1340.5228,-75.0789"/>
<polygon fill="#191970" stroke="#191970" points="1341.2662,-71.6456 1330.6788,-72.044 1339.2038,-78.3349 1341.2662,-71.6456"/>
</g>
<!-- Node40&#45;&gt;Node33 -->
<g id="edge43" class="edge">
<title>Node40&#45;&gt;Node33</title>
<path fill="none" stroke="#191970" d="M1482.282,-307.9967C1440.9091,-298.2535 1375.4868,-282.2644 1319.5412,-266 1316.406,-265.0886 1313.166,-264.1062 1309.9214,-263.094"/>
<polygon fill="#191970" stroke="#191970" points="1310.8647,-259.7211 1300.2738,-260.0092 1308.7328,-266.3886 1310.8647,-259.7211"/>
</g>
<!-- Node40&#45;&gt;Node25 -->
<g id="edge44" class="edge">
<title>Node40&#45;&gt;Node25</title>
<path fill="none" stroke="#191970" d="M1478.6406,-307.9586C1435.0742,-297.9949 1372.8006,-281.6638 1353.5412,-266 1333.3438,-249.5734 1320.8415,-221.5712 1314.2885,-202.8063"/>
<polygon fill="#191970" stroke="#191970" points="1317.5941,-201.6532 1311.1766,-193.2231 1310.9363,-203.8152 1317.5941,-201.6532"/>
</g>
<!-- Node41 -->
<g id="node26" class="node">
<title>Node41</title>
<g id="a_node26"><a xlink:href="TransformSemantics_8h.html" target="_top" xlink:title="iDynTree/Core/TransformSemantics.h">
<polygon fill="none" stroke="#000000" points="1362.0412,-241 1362.0412,-260 1559.0412,-260 1559.0412,-241 1362.0412,-241"/>
<text text-anchor="middle" x="1460.5412" y="-248" font-family="FreeSans.ttf" font-size="10.00" fill="#000000">iDynTree/Core/TransformSemantics.h</text>
</a>
</g>
</g>
<!-- Node40&#45;&gt;Node41 -->
<g id="edge45" class="edge">
<title>Node40&#45;&gt;Node41</title>
<path fill="none" stroke="#191970" d="M1514.5148,-307.9005C1504.5969,-297.353 1488.4771,-280.2096 1476.432,-267.3998"/>
<polygon fill="#191970" stroke="#191970" points="1478.9509,-264.9693 1469.5508,-260.0817 1473.8512,-269.7645 1478.9509,-264.9693"/>
</g>
<!-- Node27 -->
<g id="node27" class="node">
<title>Node27</title>
<g id="a_node27"><a xlink:href="MatrixFixSize_8h.html" target="_top" xlink:title="iDynTree/Core/MatrixFixSize.h">
<polygon fill="none" stroke="#000000" points="778.0412,-112.5 778.0412,-131.5 939.0412,-131.5 939.0412,-112.5 778.0412,-112.5"/>
<text text-anchor="middle" x="858.5412" y="-119.5" font-family="FreeSans.ttf" font-size="10.00" fill="#000000">iDynTree/Core/MatrixFixSize.h</text>
</a>
</g>
</g>
<!-- Node40&#45;&gt;Node27 -->
<g id="edge47" class="edge">
<title>Node40&#45;&gt;Node27</title>
<path fill="none" stroke="#191970" d="M1452.0928,-307.9921C1392.5759,-299.3357 1305.8491,-285.0081 1231.5412,-266 1141.5375,-242.9769 1120.1425,-232.6291 1033.5412,-199 981.7232,-178.878 922.8109,-152.1309 888.2614,-136.0377"/>
<polygon fill="#191970" stroke="#191970" points="889.3135,-132.6659 878.7724,-131.6 886.3481,-139.0068 889.3135,-132.6659"/>
</g>
<!-- Node41&#45;&gt;Node3 -->
<g id="edge46" class="edge">
<title>Node41&#45;&gt;Node3</title>
<path fill="none" stroke="#191970" d="M1457.1069,-240.6942C1448.2106,-216.4119 1422.3687,-152.5244 1383.5412,-112 1371.0582,-98.9716 1354.1267,-88.1724 1339.5097,-80.3192"/>
<polygon fill="#191970" stroke="#191970" points="1340.8025,-77.0484 1330.3085,-75.5901 1337.6026,-83.2743 1340.8025,-77.0484"/>
</g>
<!-- Node27&#45;&gt;Node3 -->
<g id="edge51" class="edge">
<title>Node27&#45;&gt;Node3</title>
<path fill="none" stroke="#191970" d="M935.1324,-112.4686C1035.123,-100.0254 1205.6992,-78.7981 1276.3883,-70.0012"/>
<polygon fill="#191970" stroke="#191970" points="1276.9707,-73.4559 1286.4619,-68.7476 1276.1062,-66.5094 1276.9707,-73.4559"/>
</g>
<!-- Node27&#45;&gt;Node6 -->
<g id="edge48" class="edge">
<title>Node27&#45;&gt;Node6</title>
<path fill="none" stroke="#191970" d="M778.0308,-113.5252C674.0887,-102.584 494.902,-83.7222 396.4191,-73.3556"/>
<polygon fill="#191970" stroke="#191970" points="396.585,-69.8538 386.2735,-72.2876 395.8521,-76.8153 396.585,-69.8538"/>
</g>
<!-- Node27&#45;&gt;Node9 -->
<g id="edge49" class="edge">
<title>Node27&#45;&gt;Node9</title>
<path fill="none" stroke="#191970" d="M858.7372,-112.2856C858.4642,-97.7574 855.662,-70.5278 839.5412,-56 807.5111,-27.1351 681.4866,-15.7968 618.2066,-11.855"/>
<polygon fill="#191970" stroke="#191970" points="618.074,-8.3411 607.8844,-11.2432 617.6598,-15.3288 618.074,-8.3411"/>
</g>
<!-- Node27&#45;&gt;Node17 -->
<g id="edge53" class="edge">
<title>Node27&#45;&gt;Node17</title>
<path fill="none" stroke="#191970" d="M837.2248,-112.3733C817.3196,-103.3838 787.3976,-89.8706 764.9812,-79.7471"/>
<polygon fill="#191970" stroke="#191970" points="766.1336,-76.4272 755.5794,-75.5011 763.2525,-82.8068 766.1336,-76.4272"/>
</g>
<!-- Node27&#45;&gt;Node18 -->
<g id="edge50" class="edge">
<title>Node27&#45;&gt;Node18</title>
<path fill="none" stroke="#191970" d="M849.3093,-112.2455C841.7094,-104.2155 830.7534,-92.6394 821.7044,-83.0781"/>
<polygon fill="#191970" stroke="#191970" points="824.0832,-80.4998 814.6673,-75.6427 818.9991,-85.3115 824.0832,-80.4998"/>
</g>
<!-- Node27&#45;&gt;Node28 -->
<g id="edge52" class="edge">
<title>Node27&#45;&gt;Node28</title>
<path fill="none" stroke="#191970" d="M876.8308,-112.2455C893.3174,-103.4527 917.7763,-90.4079 936.5177,-80.4125"/>
<polygon fill="#191970" stroke="#191970" points="938.2847,-83.4368 945.4611,-75.6427 934.9905,-77.2604 938.2847,-83.4368"/>
</g>
<!-- Node43 -->
<g id="node29" class="node">
<title>Node43</title>
<g id="a_node29"><a xlink:href="SpatialMotionVector_8h.html" target="_top" xlink:title="iDynTree/Core/SpatialMotion\lVector.h">
<polygon fill="none" stroke="#000000" points="934.0412,-369.5 934.0412,-399.5 1089.0412,-399.5 1089.0412,-369.5 934.0412,-369.5"/>
<text text-anchor="start" x="942.0412" y="-387.5" font-family="FreeSans.ttf" font-size="10.00" fill="#000000">iDynTree/Core/SpatialMotion</text>
<text text-anchor="middle" x="1011.5412" y="-376.5" font-family="FreeSans.ttf" font-size="10.00" fill="#000000">Vector.h</text>
</a>
</g>
</g>
<!-- Node42&#45;&gt;Node43 -->
<g id="edge56" class="edge">
<title>Node42&#45;&gt;Node43</title>
<path fill="none" stroke="#191970" d="M1111.1037,-436.3906C1094.6162,-427.7976 1069.938,-414.9356 1049.2764,-404.1671"/>
<polygon fill="#191970" stroke="#191970" points="1050.8927,-401.0627 1040.4072,-399.5446 1047.6574,-407.2702 1050.8927,-401.0627"/>
</g>
<!-- Node43&#45;&gt;Node5 -->
<g id="edge57" class="edge">
<title>Node43&#45;&gt;Node5</title>
<path fill="none" stroke="#191970" d="M933.9436,-375.8221C891.4364,-368.6902 838.9375,-355.8666 796.5412,-333 778.83,-323.4474 781.6992,-310.6733 763.5412,-302 657.8779,-251.5294 612.1691,-307.1548 502.5412,-266 426.1243,-237.3128 353.1444,-170.2391 321.7139,-138.8098"/>
<polygon fill="#191970" stroke="#191970" points="324.1533,-136.2988 314.6415,-131.6324 319.1672,-141.2119 324.1533,-136.2988"/>
</g>
<!-- Node43&#45;&gt;Node30 -->
<g id="edge63" class="edge">
<title>Node43&#45;&gt;Node30</title>
<path fill="none" stroke="#191970" d="M943.8923,-369.485C911.6763,-361.0034 873.1554,-348.8814 840.5412,-333 819.0338,-322.5271 818.3026,-311.934 796.5412,-302 774.0619,-291.7383 718.9,-278.2583 671.0293,-267.6635"/>
<polygon fill="#191970" stroke="#191970" points="671.7702,-264.2429 661.2523,-265.5169 670.269,-271.0801 671.7702,-264.2429"/>
</g>
<!-- Node43&#45;&gt;Node32 -->
<g id="edge62" class="edge">
<title>Node43&#45;&gt;Node32</title>
<path fill="none" stroke="#191970" d="M1070.7879,-369.4639C1118.3175,-357.4015 1184.1484,-340.6944 1228.207,-329.5128"/>
<polygon fill="#191970" stroke="#191970" points="1229.2558,-332.8577 1238.0875,-327.0053 1227.5338,-326.0728 1229.2558,-332.8577"/>
</g>
<!-- Node44 -->
<g id="node30" class="node">
<title>Node44</title>
<g id="a_node30"><a xlink:href="LinearMotionVector3_8h.html" target="_top" xlink:title="iDynTree/Core/LinearMotion\lVector3.h">
<polygon fill="none" stroke="#ff0000" points="849.0412,-302.5 849.0412,-332.5 1000.0412,-332.5 1000.0412,-302.5 849.0412,-302.5"/>
<text text-anchor="start" x="857.0412" y="-320.5" font-family="FreeSans.ttf" font-size="10.00" fill="#000000">iDynTree/Core/LinearMotion</text>
<text text-anchor="middle" x="924.5412" y="-309.5" font-family="FreeSans.ttf" font-size="10.00" fill="#000000">Vector3.h</text>
</a>
</g>
</g>
<!-- Node43&#45;&gt;Node44 -->
<g id="edge58" class="edge">
<title>Node43&#45;&gt;Node44</title>
<path fill="none" stroke="#191970" d="M991.7995,-369.2967C980.1198,-360.302 965.1439,-348.7687 952.2895,-338.8694"/>
<polygon fill="#191970" stroke="#191970" points="954.2631,-335.9717 944.2047,-332.6432 949.992,-341.5177 954.2631,-335.9717"/>
</g>
<!-- Node46 -->
<g id="node31" class="node">
<title>Node46</title>
<g id="a_node31"><a xlink:href="AngularMotionVector3_8h.html" target="_top" xlink:title="iDynTree/Core/AngularMotion\lVector3.h">
<polygon fill="none" stroke="#ff0000" points="1018.5412,-302.5 1018.5412,-332.5 1176.5412,-332.5 1176.5412,-302.5 1018.5412,-302.5"/>
<text text-anchor="start" x="1026.5412" y="-320.5" font-family="FreeSans.ttf" font-size="10.00" fill="#000000">iDynTree/Core/AngularMotion</text>
<text text-anchor="middle" x="1097.5412" y="-309.5" font-family="FreeSans.ttf" font-size="10.00" fill="#000000">Vector3.h</text>
</a>
</g>
</g>
<!-- Node43&#45;&gt;Node46 -->
<g id="edge60" class="edge">
<title>Node43&#45;&gt;Node46</title>
<path fill="none" stroke="#191970" d="M1031.0559,-369.2967C1042.6013,-360.302 1057.4052,-348.7687 1070.1118,-338.8694"/>
<polygon fill="#191970" stroke="#191970" points="1072.3661,-341.55 1078.1037,-332.6432 1068.064,-336.028 1072.3661,-341.55"/>
</g>
<!-- Node44&#45;&gt;Node30 -->
<g id="edge59" class="edge">
<title>Node44&#45;&gt;Node30</title>
<path fill="none" stroke="#191970" d="M849.1362,-302.4639C797.1331,-292.0942 727.9162,-278.2921 673.8884,-267.5186"/>
<polygon fill="#191970" stroke="#191970" points="674.4759,-264.067 663.9845,-265.5438 673.107,-270.9318 674.4759,-264.067"/>
</g>
<!-- Node46&#45;&gt;Node30 -->
<g id="edge61" class="edge">
<title>Node46&#45;&gt;Node30</title>
<path fill="none" stroke="#191970" d="M1018.4261,-303.3135C1015.4286,-302.8559 1012.4591,-302.4162 1009.5412,-302 863.9198,-281.2309 826.2388,-286.2274 680.5412,-266 679.2326,-265.8183 677.9141,-265.6325 676.5875,-265.443"/>
<polygon fill="#191970" stroke="#191970" points="676.6959,-261.9212 666.2922,-263.9247 675.6746,-268.8463 676.6959,-261.9212"/>
</g>
<!-- Node47&#45;&gt;Node43 -->
<g id="edge65" class="edge">
<title>Node47&#45;&gt;Node43</title>
<path fill="none" stroke="#191970" d="M1240.4947,-436.4581C1199.8117,-427.2256 1137.2143,-413.0199 1087.7489,-401.7944"/>
<polygon fill="#191970" stroke="#191970" points="1088.2505,-398.3193 1077.7238,-399.5193 1086.7012,-405.1457 1088.2505,-398.3193"/>
</g>
<!-- Node48&#45;&gt;Node21 -->
<g id="edge67" class="edge">
<title>Node48&#45;&gt;Node21</title>
<path fill="none" stroke="#191970" d="M921.3249,-436.4581C853.0064,-425.9803 742.9239,-409.0974 666.8769,-397.4343"/>
<polygon fill="#191970" stroke="#191970" points="667.2616,-393.9524 656.8465,-395.896 666.2004,-400.8715 667.2616,-393.9524"/>
</g>
<!-- Node49&#45;&gt;Node3 -->
<g id="edge70" class="edge">
<title>Node49&#45;&gt;Node3</title>
<path fill="none" stroke="#191970" d="M1127.708,-168.2217C1143.8982,-152.5473 1170.8455,-128.2247 1197.5412,-112 1222.6967,-96.7113 1253.8478,-84.3003 1276.7406,-76.2401"/>
<polygon fill="#191970" stroke="#191970" points="1277.9938,-79.5104 1286.315,-72.9524 1275.7203,-72.8899 1277.9938,-79.5104"/>
</g>
<!-- Node49&#45;&gt;Node27 -->
<g id="edge69" class="edge">
<title>Node49&#45;&gt;Node27</title>
<path fill="none" stroke="#191970" d="M1050.4058,-168.4554C1006.5382,-157.8339 948.5566,-143.7951 907.8578,-133.9408"/>
<polygon fill="#191970" stroke="#191970" points="908.445,-130.4819 897.9021,-131.5303 906.7976,-137.2854 908.445,-130.4819"/>
</g>
<!-- Node50&#45;&gt;Node3 -->
<g id="edge72" class="edge">
<title>Node50&#45;&gt;Node3</title>
<path fill="none" stroke="#191970" d="M1803.4192,-436.2045C1817.3401,-415.3897 1847.5412,-364.7837 1847.5412,-317.5 1847.5412,-317.5 1847.5412,-317.5 1847.5412,-183.5 1847.5412,-149.9798 1849.8563,-132.7634 1823.5412,-112 1785.6434,-82.0975 1447.8069,-69.9687 1340.8568,-66.8571"/>
<polygon fill="#191970" stroke="#191970" points="1340.7715,-63.3533 1330.6762,-66.5681 1340.5728,-70.3505 1340.7715,-63.3533"/>
</g>
<!-- Node52&#45;&gt;Node2 -->
<g id="edge76" class="edge">
<title>Node52&#45;&gt;Node2</title>
<path fill="none" stroke="#191970" d="M850.7731,-604.2455C858.3729,-596.2155 869.3289,-584.6394 878.3779,-575.0781"/>
<polygon fill="#191970" stroke="#191970" points="881.0832,-577.3115 885.4151,-567.6427 875.9991,-572.4998 881.0832,-577.3115"/>
</g>
<!-- Node52&#45;&gt;Node51 -->
<g id="edge77" class="edge">
<title>Node52&#45;&gt;Node51</title>
<path fill="none" stroke="#191970" d="M832.3093,-604.2455C824.7094,-596.2155 813.7534,-584.6394 804.7044,-575.0781"/>
<polygon fill="#191970" stroke="#191970" points="807.0832,-572.4998 797.6673,-567.6427 801.9991,-577.3115 807.0832,-572.4998"/>
</g>
<!-- Node53&#45;&gt;Node2 -->
<g id="edge84" class="edge">
<title>Node53&#45;&gt;Node2</title>
<path fill="none" stroke="#191970" d="M1174.6557,-663.1507C1219.5314,-653.8223 1282.6143,-634.6813 1255.5412,-604 1213.0124,-555.8034 1032.2801,-576.3041 968.5412,-568 967.2396,-567.8304 965.9251,-567.6586 964.601,-567.485"/>
<polygon fill="#191970" stroke="#191970" points="964.6811,-563.9653 954.3091,-566.1265 963.765,-570.9051 964.6811,-563.9653"/>
</g>
<!-- Node53&#45;&gt;Node51 -->
<g id="edge85" class="edge">
<title>Node53&#45;&gt;Node51</title>
<path fill="none" stroke="#191970" d="M1094.1844,-662.825C1055.9534,-655.3768 997.2969,-642.2488 948.5412,-624 930.2975,-617.1716 927.3391,-611.9176 909.5412,-604 881.9291,-591.7165 849.9387,-579.6452 825.7885,-570.9524"/>
<polygon fill="#191970" stroke="#191970" points="826.8794,-567.6256 816.2848,-567.5601 824.5262,-574.2182 826.8794,-567.6256"/>
</g>
<!-- Node54 -->
<g id="node39" class="node">
<title>Node54</title>
<g id="a_node39"><a xlink:href="SolidShapes_8h.html" target="_top" xlink:title="iDynTree/Model/SolidShapes.h">
<polygon fill="none" stroke="#000000" points="1328.0412,-548.5 1328.0412,-567.5 1491.0412,-567.5 1491.0412,-548.5 1328.0412,-548.5"/>
<text text-anchor="middle" x="1409.5412" y="-555.5" font-family="FreeSans.ttf" font-size="10.00" fill="#000000">iDynTree/Model/SolidShapes.h</text>
</a>
</g>
</g>
<!-- Node53&#45;&gt;Node54 -->
<g id="edge79" class="edge">
<title>Node53&#45;&gt;Node54</title>
<path fill="none" stroke="#191970" d="M1167.0293,-660.4519C1195.265,-651.8513 1237.0866,-638.3813 1272.5412,-624 1311.4957,-608.199 1354.9919,-586.5212 1382.3103,-572.3898"/>
<polygon fill="#191970" stroke="#191970" points="1384.0109,-575.4504 1391.2645,-567.7281 1380.7783,-569.2415 1384.0109,-575.4504"/>
</g>
<!-- Node56 -->
<g id="node41" class="node">
<title>Node56</title>
<polygon fill="none" stroke="#bfbfbf" points="1100.0412,-604.5 1100.0412,-623.5 1169.0412,-623.5 1169.0412,-604.5 1100.0412,-604.5"/>
<text text-anchor="middle" x="1134.5412" y="-611.5" font-family="FreeSans.ttf" font-size="10.00" fill="#000000">Eigen/Core</text>
</g>
<!-- Node53&#45;&gt;Node56 -->
<g id="edge86" class="edge">
<title>Node53&#45;&gt;Node56</title>
<path fill="none" stroke="#191970" d="M1134.5412,-660.2455C1134.5412,-652.9382 1134.5412,-642.6944 1134.5412,-633.7046"/>
<polygon fill="#191970" stroke="#191970" points="1138.0413,-633.6426 1134.5412,-623.6427 1131.0413,-633.6427 1138.0413,-633.6426"/>
</g>
<!-- Node57 -->
<g id="node42" class="node">
<title>Node57</title>
<polygon fill="none" stroke="#bfbfbf" points="1187.0412,-604.5 1187.0412,-623.5 1246.0412,-623.5 1246.0412,-604.5 1187.0412,-604.5"/>
<text text-anchor="middle" x="1216.5412" y="-611.5" font-family="FreeSans.ttf" font-size="10.00" fill="#000000">Eigen/LU</text>
</g>
<!-- Node53&#45;&gt;Node57 -->
<g id="edge87" class="edge">
<title>Node53&#45;&gt;Node57</title>
<path fill="none" stroke="#191970" d="M1148.8245,-660.2455C1161.2882,-651.7337 1179.5863,-639.2375 1194.0203,-629.3801"/>
<polygon fill="#191970" stroke="#191970" points="1196.1374,-632.1726 1202.4215,-623.6427 1192.1896,-626.392 1196.1374,-632.1726"/>
</g>
<!-- Node58 -->
<g id="node43" class="node">
<title>Node58</title>
<g id="a_node43"><a xlink:href="EigenHelpers_8h.html" target="_top" xlink:title="iDynTree/Core/EigenHelpers.h">
<polygon fill="none" stroke="#000000" points="327.0412,-436.5 327.0412,-455.5 488.0412,-455.5 488.0412,-436.5 327.0412,-436.5"/>
<text text-anchor="middle" x="407.5412" y="-443.5" font-family="FreeSans.ttf" font-size="10.00" fill="#000000">iDynTree/Core/EigenHelpers.h</text>
</a>
</g>
</g>
<!-- Node53&#45;&gt;Node58 -->
<g id="edge88" class="edge">
<title>Node53&#45;&gt;Node58</title>
<path fill="none" stroke="#191970" d="M1094.3926,-668.9563C993.1595,-665.8874 729.7801,-655.0677 648.5412,-624 551.8821,-587.0352 459.9034,-500.0174 423.7103,-463.071"/>
<polygon fill="#191970" stroke="#191970" points="425.945,-460.347 416.4778,-455.5907 420.9126,-465.2127 425.945,-460.347"/>
</g>
<!-- Node61 -->
<g id="node46" class="node">
<title>Node61</title>
<g id="a_node46"><a xlink:href="FloorGridSceneNode_8h.html" target="_top" xlink:title="FloorGridSceneNode.h">
<polygon fill="none" stroke="#000000" points="957.0412,-604.5 957.0412,-623.5 1082.0412,-623.5 1082.0412,-604.5 957.0412,-604.5"/>
<text text-anchor="middle" x="1019.5412" y="-611.5" font-family="FreeSans.ttf" font-size="10.00" fill="#000000">FloorGridSceneNode.h</text>
</a>
</g>
</g>
<!-- Node53&#45;&gt;Node61 -->
<g id="edge99" class="edge">
<title>Node53&#45;&gt;Node61</title>
<path fill="none" stroke="#191970" d="M1114.772,-660.3733C1096.3942,-651.4241 1068.8099,-637.9917 1048.0519,-627.8835"/>
<polygon fill="#191970" stroke="#191970" points="1049.5754,-624.7325 1039.0524,-623.5011 1046.5107,-631.026 1049.5754,-624.7325"/>
</g>
<!-- Node54&#45;&gt;Node3 -->
<g id="edge81" class="edge">
<title>Node54&#45;&gt;Node3</title>
<path fill="none" stroke="#191970" d="M1429.5084,-548.4124C1446.929,-539.7358 1472.6194,-526.1773 1493.5412,-512 1643.2351,-410.5624 1872.6445,-396.6172 1791.5412,-235 1750.5166,-153.2491 1711.0659,-146.9541 1626.5412,-112 1575.1801,-90.7603 1411.0995,-74.7149 1340.9013,-68.6465"/>
<polygon fill="#191970" stroke="#191970" points="1341.1215,-65.1527 1330.8606,-67.7915 1340.5275,-72.1275 1341.1215,-65.1527"/>
</g>
<!-- Node54&#45;&gt;Node38 -->
<g id="edge82" class="edge">
<title>Node54&#45;&gt;Node38</title>
<path fill="none" stroke="#191970" d="M1327.9754,-555.1379C1252.0203,-550.7765 1136.2906,-539.7706 1039.5412,-512 1019.282,-506.1849 1015.9601,-500.1947 996.5412,-492 967.2419,-479.6359 933.3635,-466.8858 908.9202,-457.9541"/>
<polygon fill="#191970" stroke="#191970" points="909.9849,-454.6171 899.3909,-454.4907 907.5938,-461.1961 909.9849,-454.6171"/>
</g>
<!-- Node54&#45;&gt;Node40 -->
<g id="edge83" class="edge">
<title>Node54&#45;&gt;Node40</title>
<path fill="none" stroke="#191970" d="M1430.1278,-548.3916C1444.6575,-540.5748 1463.4427,-528.1927 1474.5412,-512 1512.3647,-456.8154 1521.0144,-374.9128 1522.976,-337.4771"/>
<polygon fill="#191970" stroke="#191970" points="1526.4779,-337.5019 1523.395,-327.3655 1519.4839,-337.212 1526.4779,-337.5019"/>
</g>
<!-- Node55 -->
<g id="node40" class="node">
<title>Node55</title>
<polygon fill="none" stroke="#bfbfbf" points="1584.0412,-492.5 1584.0412,-511.5 1633.0412,-511.5 1633.0412,-492.5 1584.0412,-492.5"/>
<text text-anchor="middle" x="1608.5412" y="-499.5" font-family="FreeSans.ttf" font-size="10.00" fill="#000000">cstdlib</text>
</g>
<!-- Node54&#45;&gt;Node55 -->
<g id="edge80" class="edge">
<title>Node54&#45;&gt;Node55</title>
<path fill="none" stroke="#191970" d="M1443.7505,-548.3733C1480.2166,-538.1114 1537.6308,-521.9547 1574.1619,-511.6746"/>
<polygon fill="#191970" stroke="#191970" points="1575.199,-515.0187 1583.877,-508.9407 1573.3027,-508.2805 1575.199,-515.0187"/>
</g>
<!-- Node58&#45;&gt;Node5 -->
<g id="edge91" class="edge">
<title>Node58&#45;&gt;Node5</title>
<path fill="none" stroke="#191970" d="M351.056,-436.4774C327.6231,-429.8624 301.9092,-418.718 284.5412,-400 258.5674,-372.0074 260.5412,-355.6867 260.5412,-317.5 260.5412,-317.5 260.5412,-317.5 260.5412,-250.5 260.5412,-209.3653 281.3356,-164.7758 294.6533,-140.4369"/>
<polygon fill="#191970" stroke="#191970" points="297.7795,-142.019 299.6582,-131.592 291.6872,-138.5716 297.7795,-142.019"/>
</g>
<!-- Node58&#45;&gt;Node6 -->
<g id="edge98" class="edge">
<title>Node58&#45;&gt;Node6</title>
<path fill="none" stroke="#191970" d="M366.8797,-436.4433C279.6246,-413.3931 76.5941,-345.4787 5.5412,-199 -.472,-186.6037 -2.5346,-179.1629 5.5412,-168 35.7186,-126.2866 176.2614,-93.6978 261.0596,-77.4174"/>
<polygon fill="#191970" stroke="#191970" points="261.9393,-80.8131 271.1133,-75.5133 260.6367,-73.9353 261.9393,-80.8131"/>
</g>
<!-- Node58&#45;&gt;Node20 -->
<g id="edge90" class="edge">
<title>Node58&#45;&gt;Node20</title>
<path fill="none" stroke="#191970" d="M392.5447,-436.3308C381.3814,-428.1671 367.003,-415.3661 360.5412,-400 343.6571,-359.8501 343.5848,-342.1194 360.5412,-302 386.1142,-241.4931 422.8929,-248.0906 466.5412,-199 483.5663,-179.852 501.1937,-156.2676 512.6944,-140.2827"/>
<polygon fill="#191970" stroke="#191970" points="515.7568,-142.0161 518.7069,-131.8402 510.055,-137.9553 515.7568,-142.0161"/>
</g>
<!-- Node58&#45;&gt;Node21 -->
<g id="edge96" class="edge">
<title>Node58&#45;&gt;Node21</title>
<path fill="none" stroke="#191970" d="M434.8849,-436.3906C460.3234,-427.4508 498.9097,-413.8905 530.2576,-402.8739"/>
<polygon fill="#191970" stroke="#191970" points="531.4574,-406.1622 539.7313,-399.5446 529.1365,-399.5581 531.4574,-406.1622"/>
</g>
<!-- Node58&#45;&gt;Node40 -->
<g id="edge97" class="edge">
<title>Node58&#45;&gt;Node40</title>
<path fill="none" stroke="#191970" d="M488.1852,-443.9062C617.4569,-439.8151 878.8595,-428.5201 1098.5412,-400 1235.1453,-382.2654 1393.979,-347.6405 1473.2016,-329.3984"/>
<polygon fill="#191970" stroke="#191970" points="1474.4279,-332.7072 1483.3817,-327.0433 1472.8501,-325.8873 1474.4279,-332.7072"/>
</g>
<!-- Node58&#45;&gt;Node27 -->
<g id="edge94" class="edge">
<title>Node58&#45;&gt;Node27</title>
<path fill="none" stroke="#191970" d="M403.1036,-436.483C392.5062,-412.2472 368.4119,-346.9434 393.5412,-302 435.4729,-227.0056 691.9718,-160.0852 805.0635,-133.8101"/>
<polygon fill="#191970" stroke="#191970" points="805.9428,-137.1993 814.9015,-131.543 804.3709,-130.3781 805.9428,-137.1993"/>
</g>
<!-- Node58&#45;&gt;Node43 -->
<g id="edge95" class="edge">
<title>Node58&#45;&gt;Node43</title>
<path fill="none" stroke="#191970" d="M488.0599,-437.8015C601.3453,-426.2666 806.9843,-405.3282 923.9668,-393.4169"/>
<polygon fill="#191970" stroke="#191970" points="924.3711,-396.894 933.965,-392.3989 923.6619,-389.93 924.3711,-396.894"/>
</g>
<!-- Node59 -->
<g id="node44" class="node">
<title>Node59</title>
<polygon fill="none" stroke="#bfbfbf" points="403.0412,-375 403.0412,-394 480.0412,-394 480.0412,-375 403.0412,-375"/>
<text text-anchor="middle" x="441.5412" y="-382" font-family="FreeSans.ttf" font-size="10.00" fill="#000000">Eigen/Dense</text>
</g>
<!-- Node58&#45;&gt;Node59 -->
<g id="edge89" class="edge">
<title>Node58&#45;&gt;Node59</title>
<path fill="none" stroke="#191970" d="M412.8537,-436.3906C417.7651,-427.5068 425.199,-414.0601 431.2687,-403.0811"/>
<polygon fill="#191970" stroke="#191970" points="434.3785,-404.6899 436.1538,-394.2449 428.2523,-401.3031 434.3785,-404.6899"/>
</g>
<!-- Node60 -->
<g id="node45" class="node">
<title>Node60</title>
<g id="a_node45"><a xlink:href="MatrixDynSize_8h.html" target="_top" xlink:title="iDynTree/Core/MatrixDynSize.h">
<polygon fill="none" stroke="#000000" points="1615.0412,-241 1615.0412,-260 1782.0412,-260 1782.0412,-241 1615.0412,-241"/>
<text text-anchor="middle" x="1698.5412" y="-248" font-family="FreeSans.ttf" font-size="10.00" fill="#000000">iDynTree/Core/MatrixDynSize.h</text>
</a>
</g>
</g>
<!-- Node58&#45;&gt;Node60 -->
<g id="edge92" class="edge">
<title>Node58&#45;&gt;Node60</title>
<path fill="none" stroke="#191970" d="M488.2059,-444.2383C632.5097,-440.444 944.2098,-429.3312 1205.5412,-400 1384.6708,-379.8949 1442.9037,-410.722 1605.5412,-333 1638.111,-317.4353 1667.8187,-286.9948 1684.5024,-267.7593"/>
<polygon fill="#191970" stroke="#191970" points="1687.2428,-269.9389 1691.0205,-260.0404 1681.8946,-265.4226 1687.2428,-269.9389"/>
</g>
<!-- Node60&#45;&gt;Node3 -->
<g id="edge93" class="edge">
<title>Node60&#45;&gt;Node3</title>
<path fill="none" stroke="#191970" d="M1694.9069,-240.7551C1684.6985,-214.8673 1653.0975,-144.1638 1601.5412,-112 1558.5028,-85.1502 1408.1504,-72.3816 1341.1676,-67.9239"/>
<polygon fill="#191970" stroke="#191970" points="1340.9931,-64.4055 1330.7888,-67.2557 1340.5432,-71.391 1340.9931,-64.4055"/>
</g>
<!-- Node61&#45;&gt;Node2 -->
<g id="edge100" class="edge">
<title>Node61&#45;&gt;Node2</title>
<path fill="none" stroke="#191970" d="M998.0529,-604.3733C977.8972,-595.3435 947.5531,-581.7494 924.9231,-571.6111"/>
<polygon fill="#191970" stroke="#191970" points="926.306,-568.3955 915.749,-567.5011 923.4441,-574.7838 926.306,-568.3955"/>
</g>
<!-- Node61&#45;&gt;Node51 -->
<g id="edge101" class="edge">
<title>Node61&#45;&gt;Node51</title>
<path fill="none" stroke="#191970" d="M978.4352,-604.4959C941.3789,-595.8625 885.15,-582.6005 826.9007,-568.0486"/>
<polygon fill="#191970" stroke="#191970" points="827.7074,-564.6426 817.1566,-565.6068 826.0059,-571.4327 827.7074,-564.6426"/>
</g>
<!-- Node62&#45;&gt;Node38 -->
<g id="edge116" class="edge">
<title>Node62&#45;&gt;Node38</title>
<path fill="none" stroke="#191970" d="M1549.9957,-610.5559C1434.434,-602.9428 1190.4454,-579.6125 996.5412,-512 960.0386,-499.2719 921.419,-476.3238 897.8916,-461.1239"/>
<polygon fill="#191970" stroke="#191970" points="899.6405,-458.0852 889.3603,-455.5224 895.7986,-463.9367 899.6405,-458.0852"/>
</g>
<!-- Node62&#45;&gt;Node40 -->
<g id="edge112" class="edge">
<title>Node62&#45;&gt;Node40</title>
<path fill="none" stroke="#191970" d="M1630.621,-604.4001C1654.3012,-586.9894 1699.5412,-547.7414 1699.5412,-502 1699.5412,-502 1699.5412,-502 1699.5412,-446 1699.5412,-382.3793 1623.5979,-346.8941 1571.4831,-330.0331"/>
<polygon fill="#191970" stroke="#191970" points="1572.3187,-326.6277 1561.7305,-327.0025 1570.2415,-333.3124 1572.3187,-326.6277"/>
</g>
<!-- Node62&#45;&gt;Node50 -->
<g id="edge113" class="edge">
<title>Node62&#45;&gt;Node50</title>
<path fill="none" stroke="#191970" d="M1648.7206,-604.3717C1669.1526,-596.9941 1695.1201,-585.1392 1713.5412,-568 1741.9544,-541.564 1734.1398,-523.6915 1756.5412,-492 1763.5968,-482.0183 1772.428,-471.68 1779.9965,-463.3386"/>
<polygon fill="#191970" stroke="#191970" points="1782.7996,-465.4631 1787.0315,-455.7501 1777.6662,-460.7041 1782.7996,-465.4631"/>
</g>
<!-- Node62&#45;&gt;Node54 -->
<g id="edge114" class="edge">
<title>Node62&#45;&gt;Node54</title>
<path fill="none" stroke="#191970" d="M1580.9566,-604.3733C1545.9396,-594.9001 1492.353,-580.4032 1454.4287,-570.1435"/>
<polygon fill="#191970" stroke="#191970" points="1455.2284,-566.7341 1444.6614,-567.5011 1453.4003,-573.4912 1455.2284,-566.7341"/>
</g>
<!-- Node62&#45;&gt;Node55 -->
<g id="edge115" class="edge">
<title>Node62&#45;&gt;Node55</title>
<path fill="none" stroke="#191970" d="M1624.8989,-604.2878C1634.8254,-591.5288 1649.2464,-568.3527 1642.5412,-548 1639.0356,-537.3594 1632.0171,-527.164 1625.2625,-519.0877"/>
<polygon fill="#191970" stroke="#191970" points="1627.7551,-516.6247 1618.4773,-511.5087 1622.5398,-521.2937 1627.7551,-516.6247"/>
</g>
<!-- Node63 -->
<g id="node48" class="node">
<title>Node63</title>
<g id="a_node48"><a xlink:href="IJoint_8h.html" target="_top" xlink:title="iDynTree/Model/IJoint.h">
<polygon fill="none" stroke="#000000" points="1765.5412,-492.5 1765.5412,-511.5 1893.5412,-511.5 1893.5412,-492.5 1765.5412,-492.5"/>
<text text-anchor="middle" x="1829.5412" y="-499.5" font-family="FreeSans.ttf" font-size="10.00" fill="#000000">iDynTree/Model/IJoint.h</text>
</a>
</g>
</g>
<!-- Node62&#45;&gt;Node63 -->
<g id="edge103" class="edge">
<title>Node62&#45;&gt;Node63</title>
<path fill="none" stroke="#191970" d="M1657.1961,-604.4232C1684.9024,-596.8911 1721.809,-584.8396 1751.5412,-568 1774.9834,-554.7229 1798.0637,-533.97 1812.9608,-519.2846"/>
<polygon fill="#191970" stroke="#191970" points="1815.7902,-521.4019 1820.3454,-511.8363 1810.8193,-516.4735 1815.7902,-521.4019"/>
</g>
<!-- Node64 -->
<g id="node49" class="node">
<title>Node64</title>
<g id="a_node49"><a xlink:href="Link_8h.html" target="_top" xlink:title="iDynTree/Model/Link.h">
<polygon fill="none" stroke="#000000" points="1509.5412,-548.5 1509.5412,-567.5 1633.5412,-567.5 1633.5412,-548.5 1509.5412,-548.5"/>
<text text-anchor="middle" x="1571.5412" y="-555.5" font-family="FreeSans.ttf" font-size="10.00" fill="#000000">iDynTree/Model/Link.h</text>
</a>
</g>
</g>
<!-- Node62&#45;&gt;Node64 -->
<g id="edge105" class="edge">
<title>Node62&#45;&gt;Node64</title>
<path fill="none" stroke="#191970" d="M1608.7028,-604.2455C1602.3791,-596.3761 1593.3188,-585.101 1585.7276,-575.6542"/>
<polygon fill="#191970" stroke="#191970" points="1588.282,-573.2454 1579.2897,-567.6427 1582.8254,-577.6302 1588.282,-573.2454"/>
</g>
<!-- Node63&#45;&gt;Node50 -->
<g id="edge104" class="edge">
<title>Node63&#45;&gt;Node50</title>
<path fill="none" stroke="#191970" d="M1823.793,-492.2455C1819.2976,-484.617 1812.9163,-473.7881 1807.4587,-464.5267"/>
<polygon fill="#191970" stroke="#191970" points="1810.3158,-462.4811 1802.2234,-455.6427 1804.285,-466.035 1810.3158,-462.4811"/>
</g>
<!-- Node64&#45;&gt;Node50 -->
<g id="edge111" class="edge">
<title>Node64&#45;&gt;Node50</title>
<path fill="none" stroke="#191970" d="M1590.7245,-548.4509C1630.4105,-528.6961 1721.6954,-483.2565 1768.1977,-460.1088"/>
<polygon fill="#191970" stroke="#191970" points="1770.0138,-463.1144 1777.4063,-455.5249 1766.8944,-456.8479 1770.0138,-463.1144"/>
</g>
<!-- Node65 -->
<g id="node50" class="node">
<title>Node65</title>
<g id="a_node50"><a xlink:href="SpatialInertia_8h.html" target="_top" xlink:title="iDynTree/Core/SpatialInertia.h">
<polygon fill="none" stroke="#ff0000" points="1048.5412,-492.5 1048.5412,-511.5 1210.5412,-511.5 1210.5412,-492.5 1048.5412,-492.5"/>
<text text-anchor="middle" x="1129.5412" y="-499.5" font-family="FreeSans.ttf" font-size="10.00" fill="#000000">iDynTree/Core/SpatialInertia.h</text>
</a>
</g>
</g>
<!-- Node64&#45;&gt;Node65 -->
<g id="edge106" class="edge">
<title>Node64&#45;&gt;Node65</title>
<path fill="none" stroke="#191970" d="M1509.211,-549.1616C1506.2808,-548.7648 1503.3794,-548.3758 1500.5412,-548 1404.8312,-535.3272 1295.0847,-521.8505 1219.9297,-512.783"/>
<polygon fill="#191970" stroke="#191970" points="1219.9065,-509.2549 1209.5596,-511.5333 1219.069,-516.2047 1219.9065,-509.2549"/>
</g>
<!-- Node65&#45;&gt;Node5 -->
<g id="edge107" class="edge">
<title>Node65&#45;&gt;Node5</title>
<path fill="none" stroke="#191970" d="M1048.3013,-500.0433C856.3515,-495.0421 385.8111,-480.4343 318.5412,-456 268.5373,-437.8372 222.5412,-437.7003 222.5412,-384.5 222.5412,-384.5 222.5412,-384.5 222.5412,-250.5 222.5412,-203.9714 261.4137,-160.9449 285.9534,-138.4185"/>
<polygon fill="#191970" stroke="#191970" points="288.4925,-140.8448 293.6493,-131.5896 283.8464,-135.6089 288.4925,-140.8448"/>
</g>
<!-- Node65&#45;&gt;Node42 -->
<g id="edge108" class="edge">
<title>Node65&#45;&gt;Node42</title>
<path fill="none" stroke="#191970" d="M1129.5412,-492.2455C1129.5412,-484.9382 1129.5412,-474.6944 1129.5412,-465.7046"/>
<polygon fill="#191970" stroke="#191970" points="1133.0413,-465.6426 1129.5412,-455.6427 1126.0413,-465.6427 1133.0413,-465.6426"/>
</g>
<!-- Node65&#45;&gt;Node47 -->
<g id="edge109" class="edge">
<title>Node65&#45;&gt;Node47</title>
<path fill="none" stroke="#191970" d="M1155.8428,-492.3733C1180.954,-483.1822 1218.985,-469.2624 1246.8284,-459.0713"/>
<polygon fill="#191970" stroke="#191970" points="1248.395,-462.2251 1256.5827,-455.5011 1245.989,-455.6516 1248.395,-462.2251"/>
</g>
<!-- Node65&#45;&gt;Node48 -->
<g id="edge110" class="edge">
<title>Node65&#45;&gt;Node48</title>
<path fill="none" stroke="#191970" d="M1104.4429,-492.3733C1080.5857,-483.2226 1044.5076,-469.3844 1017.9702,-459.2057"/>
<polygon fill="#191970" stroke="#191970" points="1018.9021,-455.8145 1008.3119,-455.5011 1016.3952,-462.3503 1018.9021,-455.8145"/>
</g>
</g>
</svg>
