<?xml version="1.0" encoding="UTF-8" standalone="no"?>
<!DOCTYPE svg PUBLIC "-//W3C//DTD SVG 1.1//EN"
 "http://www.w3.org/Graphics/SVG/1.1/DTD/svg11.dtd">
<!-- Generated by graphviz version 2.40.1 (20161225.0304)
 -->
<!-- Title: JointElement.h Pages: 1 -->
<svg width="421pt" height="140pt"
 viewBox="0.00 0.00 421.00 140.00" xmlns="http://www.w3.org/2000/svg" xmlns:xlink="http://www.w3.org/1999/xlink">
<g id="graph0" class="graph" transform="scale(1 1) rotate(0) translate(4 136)">
<title>JointElement.h</title>
<!-- Node33 -->
<g id="node1" class="node">
<title>Node33</title>
<polygon fill="#bfbfbf" stroke="#000000" points="141.5,-112.5 141.5,-131.5 229.5,-131.5 229.5,-112.5 141.5,-112.5"/>
<text text-anchor="middle" x="185.5" y="-119.5" font-family="FreeSans.ttf" font-size="10.00" fill="#000000">JointElement.h</text>
</g>
<!-- Node34 -->
<g id="node2" class="node">
<title>Node34</title>
<g id="a_node2"><a xlink:href="RobotElement_8h.html" target="_top" xlink:title="RobotElement.h">
<polygon fill="none" stroke="#000000" points="80.5,-56.5 80.5,-75.5 174.5,-75.5 174.5,-56.5 80.5,-56.5"/>
<text text-anchor="middle" x="127.5" y="-63.5" font-family="FreeSans.ttf" font-size="10.00" fill="#000000">RobotElement.h</text>
</a>
</g>
</g>
<!-- Node33&#45;&gt;Node34 -->
<g id="edge1" class="edge">
<title>Node33&#45;&gt;Node34</title>
<path fill="none" stroke="#191970" d="M167.9707,-105.0751C157.9917,-95.4402 145.8524,-83.7196 137.4871,-75.6427"/>
<polygon fill="#191970" stroke="#191970" points="165.772,-107.8175 175.3972,-112.2455 170.6342,-102.7817 165.772,-107.8175"/>
</g>
<!-- Node35 -->
<g id="node3" class="node">
<title>Node35</title>
<g id="a_node3"><a xlink:href="RobotElement_8cpp.html" target="_top" xlink:title="RobotElement.cpp">
<polygon fill="none" stroke="#000000" points="0,-.5 0,-19.5 105,-19.5 105,-.5 0,-.5"/>
<text text-anchor="middle" x="52.5" y="-7.5" font-family="FreeSans.ttf" font-size="10.00" fill="#000000">RobotElement.cpp</text>
</a>
</g>
</g>
<!-- Node33&#45;&gt;Node35 -->
<g id="edge8" class="edge">
<title>Node33&#45;&gt;Node35</title>
<path fill="none" stroke="#191970" d="M131.7209,-111.1366C110.3535,-104.3195 87.1788,-93.387 71.5,-76 57.1268,-60.0609 53.5726,-33.9067 52.7291,-19.7825"/>
<polygon fill="#191970" stroke="#191970" points="130.796,-114.5128 141.3778,-113.9876 132.7781,-107.7993 130.796,-114.5128"/>
</g>
<!-- Node37 -->
<g id="node5" class="node">
<title>Node37</title>
<g id="a_node5"><a xlink:href="URDFDocument_8h.html" target="_top" xlink:title="URDFDocument.h">
<polygon fill="none" stroke="#000000" points="193,-56.5 193,-75.5 296,-75.5 296,-56.5 193,-56.5"/>
<text text-anchor="middle" x="244.5" y="-63.5" font-family="FreeSans.ttf" font-size="10.00" fill="#000000">URDFDocument.h</text>
</a>
</g>
</g>
<!-- Node33&#45;&gt;Node37 -->
<g id="edge4" class="edge">
<title>Node33&#45;&gt;Node37</title>
<path fill="none" stroke="#191970" d="M203.0307,-105.3607C213.2377,-95.6727 225.7469,-83.7995 234.3408,-75.6427"/>
<polygon fill="#191970" stroke="#191970" points="200.6206,-102.8227 195.777,-112.2455 205.4396,-107.8998 200.6206,-102.8227"/>
</g>
<!-- Node39 -->
<g id="node7" class="node">
<title>Node39</title>
<g id="a_node7"><a xlink:href="JointElement_8cpp.html" target="_top" xlink:title="JointElement.cpp">
<polygon fill="none" stroke="#000000" points="314,-56.5 314,-75.5 413,-75.5 413,-56.5 314,-56.5"/>
<text text-anchor="middle" x="363.5" y="-63.5" font-family="FreeSans.ttf" font-size="10.00" fill="#000000">JointElement.cpp</text>
</a>
</g>
</g>
<!-- Node33&#45;&gt;Node39 -->
<g id="edge7" class="edge">
<title>Node33&#45;&gt;Node39</title>
<path fill="none" stroke="#191970" d="M225.7931,-109.3235C258.4368,-99.0536 303.7134,-84.8093 333.3,-75.5011"/>
<polygon fill="#191970" stroke="#191970" points="224.588,-106.0335 216.0993,-112.3733 226.6887,-112.7108 224.588,-106.0335"/>
</g>
<!-- Node34&#45;&gt;Node35 -->
<g id="edge2" class="edge">
<title>Node34&#45;&gt;Node35</title>
<path fill="none" stroke="#191970" d="M106.3523,-50.2097C93.1799,-40.3743 76.66,-28.0394 65.4143,-19.6427"/>
<polygon fill="#191970" stroke="#191970" points="104.3291,-53.0671 114.436,-56.2455 108.5172,-47.4581 104.3291,-53.0671"/>
</g>
<!-- Node36 -->
<g id="node4" class="node">
<title>Node36</title>
<g id="a_node4"><a xlink:href="URDFDocument_8cpp.html" target="_top" xlink:title="URDFDocument.cpp">
<polygon fill="none" stroke="#000000" points="123.5,-.5 123.5,-19.5 237.5,-19.5 237.5,-.5 123.5,-.5"/>
<text text-anchor="middle" x="180.5" y="-7.5" font-family="FreeSans.ttf" font-size="10.00" fill="#000000">URDFDocument.cpp</text>
</a>
</g>
</g>
<!-- Node34&#45;&gt;Node36 -->
<g id="edge3" class="edge">
<title>Node34&#45;&gt;Node36</title>
<path fill="none" stroke="#191970" d="M143.7896,-48.7884C152.8562,-39.2085 163.8054,-27.6396 171.3739,-19.6427"/>
<polygon fill="#191970" stroke="#191970" points="141.0637,-46.5767 136.7319,-56.2455 146.1478,-51.3884 141.0637,-46.5767"/>
</g>
<!-- Node37&#45;&gt;Node36 -->
<g id="edge6" class="edge">
<title>Node37&#45;&gt;Node36</title>
<path fill="none" stroke="#191970" d="M225.8086,-49.645C214.6781,-39.9058 200.9337,-27.8795 191.5202,-19.6427"/>
<polygon fill="#191970" stroke="#191970" points="223.5215,-52.2945 233.3521,-56.2455 228.131,-47.0264 223.5215,-52.2945"/>
</g>
<!-- Node38 -->
<g id="node6" class="node">
<title>Node38</title>
<g id="a_node6"><a xlink:href="ModelLoader_8cpp.html" target="_top" xlink:title="ModelLoader.cpp">
<polygon fill="none" stroke="#000000" points="255.5,-.5 255.5,-19.5 353.5,-19.5 353.5,-.5 255.5,-.5"/>
<text text-anchor="middle" x="304.5" y="-7.5" font-family="FreeSans.ttf" font-size="10.00" fill="#000000">ModelLoader.cpp</text>
</a>
</g>
</g>
<!-- Node37&#45;&gt;Node38 -->
<g id="edge5" class="edge">
<title>Node37&#45;&gt;Node38</title>
<path fill="none" stroke="#191970" d="M262.3278,-49.3607C272.7078,-39.6727 285.4291,-27.7995 294.1686,-19.6427"/>
<polygon fill="#191970" stroke="#191970" points="259.8737,-46.8636 254.9512,-56.2455 264.6499,-51.981 259.8737,-46.8636"/>
</g>
</g>
</svg>
