<?xml version="1.0" encoding="UTF-8" standalone="no"?>
<!DOCTYPE svg PUBLIC "-//W3C//DTD SVG 1.1//EN"
 "http://www.w3.org/Graphics/SVG/1.1/DTD/svg11.dtd">
<!-- Generated by graphviz version 2.40.1 (20161225.0304)
 -->
<!-- Title: JointElement.h Pages: 1 -->
<svg width="1322pt" height="420pt"
 viewBox="0.00 0.00 1321.50 420.00" xmlns="http://www.w3.org/2000/svg" xmlns:xlink="http://www.w3.org/1999/xlink">
<g id="graph0" class="graph" transform="scale(1 1) rotate(0) translate(4 416)">
<title>JointElement.h</title>
<!-- Node0 -->
<g id="node1" class="node">
<title>Node0</title>
<polygon fill="#bfbfbf" stroke="#000000" points="395.5,-392.5 395.5,-411.5 483.5,-411.5 483.5,-392.5 395.5,-392.5"/>
<text text-anchor="middle" x="439.5" y="-399.5" font-family="FreeSans.ttf" font-size="10.00" fill="#000000">JointElement.h</text>
</g>
<!-- Node1 -->
<g id="node2" class="node">
<title>Node1</title>
<g id="a_node2"><a xlink:href="XMLElement_8h.html" target="_top" xlink:title="iDynTree/XMLElement.h">
<polygon fill="none" stroke="#000000" points="202.5,-336.5 202.5,-355.5 334.5,-355.5 334.5,-336.5 202.5,-336.5"/>
<text text-anchor="middle" x="268.5" y="-343.5" font-family="FreeSans.ttf" font-size="10.00" fill="#000000">iDynTree/XMLElement.h</text>
</a>
</g>
</g>
<!-- Node0&#45;&gt;Node1 -->
<g id="edge1" class="edge">
<title>Node0&#45;&gt;Node1</title>
<path fill="none" stroke="#191970" d="M410.1041,-392.3733C381.6693,-383.0613 338.4123,-368.8953 307.1919,-358.671"/>
<polygon fill="#191970" stroke="#191970" points="308.105,-355.2872 297.5124,-355.5011 305.9264,-361.9396 308.105,-355.2872"/>
</g>
<!-- Node3 -->
<g id="node4" class="node">
<title>Node3</title>
<polygon fill="none" stroke="#bfbfbf" points="60.5,-280.5 60.5,-299.5 118.5,-299.5 118.5,-280.5 60.5,-280.5"/>
<text text-anchor="middle" x="89.5" y="-287.5" font-family="FreeSans.ttf" font-size="10.00" fill="#000000">memory</text>
</g>
<!-- Node0&#45;&gt;Node3 -->
<g id="edge58" class="edge">
<title>Node0&#45;&gt;Node3</title>
<path fill="none" stroke="#191970" d="M395.4549,-398.8271C345.128,-394.0623 261.0123,-382.5879 193.5,-356 161.782,-343.5087 129.2393,-320.9825 109.1977,-305.7622"/>
<polygon fill="#191970" stroke="#191970" points="111.2141,-302.897 101.1647,-299.5414 106.9281,-308.4315 111.2141,-302.897"/>
</g>
<!-- Node4 -->
<g id="node5" class="node">
<title>Node4</title>
<polygon fill="none" stroke="#bfbfbf" points="787.5,-56.5 787.5,-75.5 831.5,-75.5 831.5,-56.5 787.5,-56.5"/>
<text text-anchor="middle" x="809.5" y="-63.5" font-family="FreeSans.ttf" font-size="10.00" fill="#000000">string</text>
</g>
<!-- Node0&#45;&gt;Node4 -->
<g id="edge59" class="edge">
<title>Node0&#45;&gt;Node4</title>
<path fill="none" stroke="#191970" d="M483.7416,-401.039C661.4105,-396.6043 1313.5,-374.5675 1313.5,-290 1313.5,-290 1313.5,-290 1313.5,-178 1313.5,-130.87 1274.0853,-129.9319 1230.5,-112 1160.0769,-83.0264 927.9846,-70.8236 841.957,-67.221"/>
<polygon fill="#191970" stroke="#191970" points="841.8785,-63.715 831.7444,-66.8053 841.5938,-70.7092 841.8785,-63.715"/>
</g>
<!-- Node5 -->
<g id="node6" class="node">
<title>Node5</title>
<polygon fill="none" stroke="#bfbfbf" points="324,-280.5 324,-299.5 417,-299.5 417,-280.5 324,-280.5"/>
<text text-anchor="middle" x="370.5" y="-287.5" font-family="FreeSans.ttf" font-size="10.00" fill="#000000">unordered_map</text>
</g>
<!-- Node0&#45;&gt;Node5 -->
<g id="edge60" class="edge">
<title>Node0&#45;&gt;Node5</title>
<path fill="none" stroke="#191970" d="M433.6171,-392.4509C422.1087,-373.7707 396.4512,-332.1238 381.6362,-308.0761"/>
<polygon fill="#191970" stroke="#191970" points="384.5932,-306.203 376.368,-299.5249 378.6334,-309.8747 384.5932,-306.203"/>
</g>
<!-- Node7 -->
<g id="node8" class="node">
<title>Node7</title>
<g id="a_node8"><a xlink:href="Axis_8h.html" target="_top" xlink:title="iDynTree/Core/Axis.h">
<polygon fill="none" stroke="#000000" points="424.5,-336.5 424.5,-355.5 542.5,-355.5 542.5,-336.5 424.5,-336.5"/>
<text text-anchor="middle" x="483.5" y="-343.5" font-family="FreeSans.ttf" font-size="10.00" fill="#000000">iDynTree/Core/Axis.h</text>
</a>
</g>
</g>
<!-- Node0&#45;&gt;Node7 -->
<g id="edge7" class="edge">
<title>Node0&#45;&gt;Node7</title>
<path fill="none" stroke="#191970" d="M447.1642,-392.2455C453.3473,-384.3761 462.2063,-373.101 469.6289,-363.6542"/>
<polygon fill="#191970" stroke="#191970" points="472.4975,-365.6683 475.9236,-355.6427 466.9932,-361.3435 472.4975,-365.6683"/>
</g>
<!-- Node31 -->
<g id="node32" class="node">
<title>Node31</title>
<g id="a_node32"><a xlink:href="Transform_8h.html" target="_top" xlink:title="iDynTree/Core/Transform.h">
<polygon fill="none" stroke="#000000" points="773.5,-336.5 773.5,-355.5 919.5,-355.5 919.5,-336.5 773.5,-336.5"/>
<text text-anchor="middle" x="846.5" y="-343.5" font-family="FreeSans.ttf" font-size="10.00" fill="#000000">iDynTree/Core/Transform.h</text>
</a>
</g>
</g>
<!-- Node0&#45;&gt;Node31 -->
<g id="edge51" class="edge">
<title>Node0&#45;&gt;Node31</title>
<path fill="none" stroke="#191970" d="M483.8309,-395.9004C551.7375,-386.557 682.5105,-368.5637 767.0674,-356.9293"/>
<polygon fill="#191970" stroke="#191970" points="767.7132,-360.3735 777.1427,-355.543 766.759,-353.4388 767.7132,-360.3735"/>
</g>
<!-- Node2 -->
<g id="node3" class="node">
<title>Node2</title>
<polygon fill="none" stroke="#bfbfbf" points="202,-280.5 202,-299.5 267,-299.5 267,-280.5 202,-280.5"/>
<text text-anchor="middle" x="234.5" y="-287.5" font-family="FreeSans.ttf" font-size="10.00" fill="#000000">functional</text>
</g>
<!-- Node1&#45;&gt;Node2 -->
<g id="edge2" class="edge">
<title>Node1&#45;&gt;Node2</title>
<path fill="none" stroke="#191970" d="M262.5777,-336.2455C257.8973,-328.5367 251.2327,-317.5598 245.5711,-308.2348"/>
<polygon fill="#191970" stroke="#191970" points="248.5361,-306.3741 240.3545,-299.6427 242.5525,-310.007 248.5361,-306.3741"/>
</g>
<!-- Node1&#45;&gt;Node3 -->
<g id="edge3" class="edge">
<title>Node1&#45;&gt;Node3</title>
<path fill="none" stroke="#191970" d="M237.7288,-336.3733C207.4726,-326.9076 161.1843,-312.4264 128.3945,-302.1681"/>
<polygon fill="#191970" stroke="#191970" points="129.2733,-298.7758 118.6844,-299.1303 127.1832,-305.4565 129.2733,-298.7758"/>
</g>
<!-- Node1&#45;&gt;Node4 -->
<g id="edge4" class="edge">
<title>Node1&#45;&gt;Node4</title>
<path fill="none" stroke="#191970" d="M273.2694,-336.2221C280.5911,-322.1037 295.8405,-295.9568 315.5,-280 443.1453,-176.3957 507.1434,-204.8916 654.5,-132 670.9059,-123.8846 673.9243,-119.7627 690.5,-112 719.4129,-98.4596 753.493,-85.5839 777.7553,-76.917"/>
<polygon fill="#191970" stroke="#191970" points="778.9236,-80.2164 787.1855,-73.5837 776.5907,-73.6165 778.9236,-80.2164"/>
</g>
<!-- Node1&#45;&gt;Node5 -->
<g id="edge5" class="edge">
<title>Node1&#45;&gt;Node5</title>
<path fill="none" stroke="#191970" d="M286.267,-336.2455C302.2095,-327.4928 325.8259,-314.527 343.9989,-304.5496"/>
<polygon fill="#191970" stroke="#191970" points="345.8552,-307.5233 352.9366,-299.6427 342.4863,-301.3873 345.8552,-307.5233"/>
</g>
<!-- Node6 -->
<g id="node7" class="node">
<title>Node6</title>
<polygon fill="none" stroke="#bfbfbf" points="137,-280.5 137,-299.5 184,-299.5 184,-280.5 137,-280.5"/>
<text text-anchor="middle" x="160.5" y="-287.5" font-family="FreeSans.ttf" font-size="10.00" fill="#000000">vector</text>
</g>
<!-- Node1&#45;&gt;Node6 -->
<g id="edge6" class="edge">
<title>Node1&#45;&gt;Node6</title>
<path fill="none" stroke="#191970" d="M249.6878,-336.2455C232.6527,-327.4125 207.3425,-314.2887 188.0319,-304.2758"/>
<polygon fill="#191970" stroke="#191970" points="189.5853,-301.1388 179.0966,-299.6427 186.363,-307.353 189.5853,-301.1388"/>
</g>
<!-- Node7&#45;&gt;Node4 -->
<g id="edge8" class="edge">
<title>Node7&#45;&gt;Node4</title>
<path fill="none" stroke="#191970" d="M487.1071,-336.3961C498.6136,-306.9956 537.2638,-217.2359 597.5,-168 631.8169,-139.9501 650.3592,-150.7926 690.5,-132 724.1215,-116.2595 761.305,-94.975 785.0093,-80.8835"/>
<polygon fill="#191970" stroke="#191970" points="786.9151,-83.8219 793.6967,-75.6818 783.3191,-77.8161 786.9151,-83.8219"/>
</g>
<!-- Node8 -->
<g id="node9" class="node">
<title>Node8</title>
<g id="a_node9"><a xlink:href="Direction_8h.html" target="_top" xlink:title="iDynTree/Core/Direction.h">
<polygon fill="none" stroke="#000000" points="284,-168.5 284,-187.5 425,-187.5 425,-168.5 284,-168.5"/>
<text text-anchor="middle" x="354.5" y="-175.5" font-family="FreeSans.ttf" font-size="10.00" fill="#000000">iDynTree/Core/Direction.h</text>
</a>
</g>
</g>
<!-- Node7&#45;&gt;Node8 -->
<g id="edge9" class="edge">
<title>Node7&#45;&gt;Node8</title>
<path fill="none" stroke="#191970" d="M481.4573,-336.4269C478.2878,-323.0114 471.2904,-298.2204 459.5,-280 436.505,-244.4643 398.9891,-211.9947 375.5786,-193.6421"/>
<polygon fill="#191970" stroke="#191970" points="377.7053,-190.8623 367.6449,-187.5398 373.4375,-196.4109 377.7053,-190.8623"/>
</g>
<!-- Node10 -->
<g id="node11" class="node">
<title>Node10</title>
<g id="a_node11"><a xlink:href="Utils_8h.html" target="_top" xlink:title="iDynTree/Core/Utils.h">
<polygon fill="none" stroke="#000000" points="132,-56.5 132,-75.5 251,-75.5 251,-56.5 132,-56.5"/>
<text text-anchor="middle" x="191.5" y="-63.5" font-family="FreeSans.ttf" font-size="10.00" fill="#000000">iDynTree/Core/Utils.h</text>
</a>
</g>
</g>
<!-- Node7&#45;&gt;Node10 -->
<g id="edge50" class="edge">
<title>Node7&#45;&gt;Node10</title>
<path fill="none" stroke="#191970" d="M476.5767,-336.2038C466.5877,-322.5232 447.0628,-297.4193 426.5,-280 366.5371,-229.2038 333.9773,-240.4996 275.5,-188 252.1498,-167.0367 250.3567,-157.8037 232.5,-132 221.6288,-116.2906 210.2377,-97.7631 202.2291,-84.3436"/>
<polygon fill="#191970" stroke="#191970" points="205.1543,-82.414 197.0513,-75.5882 199.1291,-85.9773 205.1543,-82.414"/>
</g>
<!-- Node23 -->
<g id="node24" class="node">
<title>Node23</title>
<g id="a_node24"><a xlink:href="Position_8h.html" target="_top" xlink:title="iDynTree/Core/Position.h">
<polygon fill="none" stroke="#000000" points="661.5,-280.5 661.5,-299.5 797.5,-299.5 797.5,-280.5 661.5,-280.5"/>
<text text-anchor="middle" x="729.5" y="-287.5" font-family="FreeSans.ttf" font-size="10.00" fill="#000000">iDynTree/Core/Position.h</text>
</a>
</g>
</g>
<!-- Node7&#45;&gt;Node23 -->
<g id="edge29" class="edge">
<title>Node7&#45;&gt;Node23</title>
<path fill="none" stroke="#191970" d="M525.5094,-336.4369C567.6104,-326.8529 632.5005,-312.0812 677.7521,-301.78"/>
<polygon fill="#191970" stroke="#191970" points="678.6902,-305.1561 687.6639,-299.5237 677.1364,-298.3307 678.6902,-305.1561"/>
</g>
<!-- Node8&#45;&gt;Node4 -->
<g id="edge10" class="edge">
<title>Node8&#45;&gt;Node4</title>
<path fill="none" stroke="#191970" d="M425.1593,-170.8683C479.2444,-164.1865 555.2233,-152.1378 619.5,-132 639.6132,-125.6986 642.8439,-119.6083 662.5,-112 701.3159,-96.9754 747.2724,-83.2162 777.3377,-74.7376"/>
<polygon fill="#191970" stroke="#191970" points="778.5804,-78.0246 787.2716,-71.9655 776.6988,-71.2822 778.5804,-78.0246"/>
</g>
<!-- Node9 -->
<g id="node10" class="node">
<title>Node9</title>
<g id="a_node10"><a xlink:href="VectorFixSize_8h.html" target="_top" xlink:title="iDynTree/Core/VectorFixSize.h">
<polygon fill="none" stroke="#000000" points="270,-112.5 270,-131.5 431,-131.5 431,-112.5 270,-112.5"/>
<text text-anchor="middle" x="350.5" y="-119.5" font-family="FreeSans.ttf" font-size="10.00" fill="#000000">iDynTree/Core/VectorFixSize.h</text>
</a>
</g>
</g>
<!-- Node8&#45;&gt;Node9 -->
<g id="edge11" class="edge">
<title>Node8&#45;&gt;Node9</title>
<path fill="none" stroke="#191970" d="M353.8033,-168.2455C353.2813,-160.9382 352.5496,-150.6944 351.9075,-141.7046"/>
<polygon fill="#191970" stroke="#191970" points="355.3924,-141.3679 351.1888,-131.6427 348.4102,-141.8667 355.3924,-141.3679"/>
</g>
<!-- Node8&#45;&gt;Node10 -->
<g id="edge28" class="edge">
<title>Node8&#45;&gt;Node10</title>
<path fill="none" stroke="#191970" d="M330.4958,-168.4739C311.0502,-160.2173 283.3867,-147.2211 261.5,-132 241.0959,-117.81 220.7625,-97.8182 207.3108,-83.5631"/>
<polygon fill="#191970" stroke="#191970" points="209.5984,-80.882 200.2374,-75.9199 204.4609,-85.6366 209.5984,-80.882"/>
</g>
<!-- Node9&#45;&gt;Node4 -->
<g id="edge24" class="edge">
<title>Node9&#45;&gt;Node4</title>
<path fill="none" stroke="#191970" d="M428.6231,-112.4686C530.8568,-99.9957 705.4321,-78.6967 777.2186,-69.9385"/>
<polygon fill="#191970" stroke="#191970" points="777.9352,-73.3771 787.4376,-68.6917 777.0873,-66.4286 777.9352,-73.3771"/>
</g>
<!-- Node9&#45;&gt;Node10 -->
<g id="edge12" class="edge">
<title>Node9&#45;&gt;Node10</title>
<path fill="none" stroke="#191970" d="M323.1669,-112.3733C296.9566,-103.1419 257.2016,-89.1402 228.2332,-78.9375"/>
<polygon fill="#191970" stroke="#191970" points="229.0712,-75.5219 218.4764,-75.5011 226.7458,-82.1244 229.0712,-75.5219"/>
</g>
<!-- Node12 -->
<g id="node13" class="node">
<title>Node12</title>
<g id="a_node13"><a xlink:href="Span_8h.html" target="_top" xlink:title="iDynTree/Core/Span.h">
<polygon fill="none" stroke="#000000" points="269,-56.5 269,-75.5 390,-75.5 390,-56.5 269,-56.5"/>
<text text-anchor="middle" x="329.5" y="-63.5" font-family="FreeSans.ttf" font-size="10.00" fill="#000000">iDynTree/Core/Span.h</text>
</a>
</g>
</g>
<!-- Node9&#45;&gt;Node12 -->
<g id="edge14" class="edge">
<title>Node9&#45;&gt;Node12</title>
<path fill="none" stroke="#191970" d="M346.8421,-112.2455C344.0416,-104.7776 340.091,-94.2427 336.6676,-85.1137"/>
<polygon fill="#191970" stroke="#191970" points="339.9045,-83.777 333.116,-75.6427 333.3501,-86.2349 339.9045,-83.777"/>
</g>
<!-- Node13 -->
<g id="node14" class="node">
<title>Node13</title>
<polygon fill="none" stroke="#bfbfbf" points="580.5,-.5 580.5,-19.5 632.5,-19.5 632.5,-.5 580.5,-.5"/>
<text text-anchor="middle" x="606.5" y="-7.5" font-family="FreeSans.ttf" font-size="10.00" fill="#000000">cassert</text>
</g>
<!-- Node9&#45;&gt;Node13 -->
<g id="edge26" class="edge">
<title>Node9&#45;&gt;Node13</title>
<path fill="none" stroke="#191970" d="M360.3392,-112.4506C375.6153,-98.138 406.5168,-71.1861 437.5,-56 490.0617,-30.2375 510.0298,-35.7877 570.1368,-20.2609"/>
<polygon fill="#191970" stroke="#191970" points="571.3864,-23.5496 580.1393,-17.58 569.5741,-16.7882 571.3864,-23.5496"/>
</g>
<!-- Node21 -->
<g id="node22" class="node">
<title>Node21</title>
<polygon fill="none" stroke="#bfbfbf" points="514.5,-56.5 514.5,-75.5 570.5,-75.5 570.5,-56.5 514.5,-56.5"/>
<text text-anchor="middle" x="542.5" y="-63.5" font-family="FreeSans.ttf" font-size="10.00" fill="#000000">sstream</text>
</g>
<!-- Node9&#45;&gt;Node21 -->
<g id="edge25" class="edge">
<title>Node9&#45;&gt;Node21</title>
<path fill="none" stroke="#191970" d="M383.506,-112.3733C417.0753,-102.5822 469.0437,-87.4247 504.3557,-77.1254"/>
<polygon fill="#191970" stroke="#191970" points="505.6723,-80.3873 514.2922,-74.2273 503.7122,-73.6673 505.6723,-80.3873"/>
</g>
<!-- Node22 -->
<g id="node23" class="node">
<title>Node22</title>
<polygon fill="none" stroke="#bfbfbf" points="446.5,-56.5 446.5,-75.5 496.5,-75.5 496.5,-56.5 446.5,-56.5"/>
<text text-anchor="middle" x="471.5" y="-63.5" font-family="FreeSans.ttf" font-size="10.00" fill="#000000">cstring</text>
</g>
<!-- Node9&#45;&gt;Node22 -->
<g id="edge27" class="edge">
<title>Node9&#45;&gt;Node22</title>
<path fill="none" stroke="#191970" d="M371.3006,-112.3733C390.7243,-103.3838 419.9224,-89.8706 441.7964,-79.7471"/>
<polygon fill="#191970" stroke="#191970" points="443.3656,-82.8776 450.9708,-75.5011 440.4255,-76.5249 443.3656,-82.8776"/>
</g>
<!-- Node11 -->
<g id="node12" class="node">
<title>Node11</title>
<polygon fill="none" stroke="#bfbfbf" points="0,-.5 0,-19.5 53,-19.5 53,-.5 0,-.5"/>
<text text-anchor="middle" x="26.5" y="-7.5" font-family="FreeSans.ttf" font-size="10.00" fill="#000000">cstddef</text>
</g>
<!-- Node10&#45;&gt;Node11 -->
<g id="edge13" class="edge">
<title>Node10&#45;&gt;Node11</title>
<path fill="none" stroke="#191970" d="M163.1355,-56.3733C135.4034,-46.9611 93.0596,-32.5899 62.8662,-22.3425"/>
<polygon fill="#191970" stroke="#191970" points="63.7255,-18.9381 53.1311,-19.0384 61.4757,-25.5667 63.7255,-18.9381"/>
</g>
<!-- Node12&#45;&gt;Node11 -->
<g id="edge18" class="edge">
<title>Node12&#45;&gt;Node11</title>
<path fill="none" stroke="#191970" d="M269.379,-56.4593C207.2999,-46.4787 113.5455,-31.0154 63.2271,-20.1817"/>
<polygon fill="#191970" stroke="#191970" points="63.6977,-16.7008 53.176,-17.9438 62.1763,-23.5335 63.6977,-16.7008"/>
</g>
<!-- Node12&#45;&gt;Node13 -->
<g id="edge15" class="edge">
<title>Node12&#45;&gt;Node13</title>
<path fill="none" stroke="#191970" d="M387.5093,-56.492C434.4215,-48.4577 502.3526,-36.0476 570.1885,-20.161"/>
<polygon fill="#191970" stroke="#191970" points="571.2694,-23.502 580.1939,-17.792 569.6565,-16.6903 571.2694,-23.502"/>
</g>
<!-- Node14 -->
<g id="node15" class="node">
<title>Node14</title>
<polygon fill="none" stroke="#bfbfbf" points="438.5,-.5 438.5,-19.5 502.5,-19.5 502.5,-.5 438.5,-.5"/>
<text text-anchor="middle" x="470.5" y="-7.5" font-family="FreeSans.ttf" font-size="10.00" fill="#000000">algorithm</text>
</g>
<!-- Node12&#45;&gt;Node14 -->
<g id="edge16" class="edge">
<title>Node12&#45;&gt;Node14</title>
<path fill="none" stroke="#191970" d="M353.7388,-56.3733C376.7789,-47.2226 411.6214,-33.3844 437.2501,-23.2057"/>
<polygon fill="#191970" stroke="#191970" points="438.5756,-26.4452 446.5775,-19.5011 435.9918,-19.9395 438.5756,-26.4452"/>
</g>
<!-- Node15 -->
<g id="node16" class="node">
<title>Node15</title>
<polygon fill="none" stroke="#bfbfbf" points="520.5,-.5 520.5,-19.5 562.5,-19.5 562.5,-.5 520.5,-.5"/>
<text text-anchor="middle" x="541.5" y="-7.5" font-family="FreeSans.ttf" font-size="10.00" fill="#000000">array</text>
</g>
<!-- Node12&#45;&gt;Node15 -->
<g id="edge17" class="edge">
<title>Node12&#45;&gt;Node15</title>
<path fill="none" stroke="#191970" d="M370.9373,-56.4531C405.8825,-48.1949 457.3969,-35.5388 510.6486,-20.1071"/>
<polygon fill="#191970" stroke="#191970" points="511.6403,-23.4637 520.2561,-17.2978 509.6757,-16.7451 511.6403,-23.4637"/>
</g>
<!-- Node16 -->
<g id="node17" class="node">
<title>Node16</title>
<polygon fill="none" stroke="#bfbfbf" points="71,-.5 71,-19.5 124,-19.5 124,-.5 71,-.5"/>
<text text-anchor="middle" x="97.5" y="-7.5" font-family="FreeSans.ttf" font-size="10.00" fill="#000000">iterator</text>
</g>
<!-- Node12&#45;&gt;Node16 -->
<g id="edge19" class="edge">
<title>Node12&#45;&gt;Node16</title>
<path fill="none" stroke="#191970" d="M286.5552,-56.4463C248.8621,-47.9432 192.3343,-34.9074 133.9664,-20.0457"/>
<polygon fill="#191970" stroke="#191970" points="134.7598,-16.636 124.2042,-17.5472 133.0241,-23.4175 134.7598,-16.636"/>
</g>
<!-- Node17 -->
<g id="node18" class="node">
<title>Node17</title>
<polygon fill="none" stroke="#bfbfbf" points="142.5,-.5 142.5,-19.5 186.5,-19.5 186.5,-.5 142.5,-.5"/>
<text text-anchor="middle" x="164.5" y="-7.5" font-family="FreeSans.ttf" font-size="10.00" fill="#000000">limits</text>
</g>
<!-- Node12&#45;&gt;Node17 -->
<g id="edge20" class="edge">
<title>Node12&#45;&gt;Node17</title>
<path fill="none" stroke="#191970" d="M301.1355,-56.3733C271.9961,-46.4835 226.7244,-31.1186 196.3669,-20.8154"/>
<polygon fill="#191970" stroke="#191970" points="197.2827,-17.4302 186.6884,-17.5306 195.033,-24.0589 197.2827,-17.4302"/>
</g>
<!-- Node18 -->
<g id="node19" class="node">
<title>Node18</title>
<polygon fill="none" stroke="#bfbfbf" points="205,-.5 205,-19.5 270,-19.5 270,-.5 205,-.5"/>
<text text-anchor="middle" x="237.5" y="-7.5" font-family="FreeSans.ttf" font-size="10.00" fill="#000000">stdexcept</text>
</g>
<!-- Node12&#45;&gt;Node18 -->
<g id="edge21" class="edge">
<title>Node12&#45;&gt;Node18</title>
<path fill="none" stroke="#191970" d="M313.4748,-56.2455C299.3592,-47.6534 278.5737,-35.0014 262.3101,-25.1018"/>
<polygon fill="#191970" stroke="#191970" points="263.7034,-21.8525 253.3415,-19.6427 260.0637,-27.8319 263.7034,-21.8525"/>
</g>
<!-- Node19 -->
<g id="node20" class="node">
<title>Node19</title>
<polygon fill="none" stroke="#bfbfbf" points="288,-.5 288,-19.5 357,-19.5 357,-.5 288,-.5"/>
<text text-anchor="middle" x="322.5" y="-7.5" font-family="FreeSans.ttf" font-size="10.00" fill="#000000">type_traits</text>
</g>
<!-- Node12&#45;&gt;Node19 -->
<g id="edge22" class="edge">
<title>Node12&#45;&gt;Node19</title>
<path fill="none" stroke="#191970" d="M328.2807,-56.2455C327.3673,-48.9382 326.0868,-38.6944 324.9631,-29.7046"/>
<polygon fill="#191970" stroke="#191970" points="328.4187,-29.1313 323.7053,-19.6427 321.4728,-29.9996 328.4187,-29.1313"/>
</g>
<!-- Node20 -->
<g id="node21" class="node">
<title>Node20</title>
<polygon fill="none" stroke="#bfbfbf" points="375,-.5 375,-19.5 420,-19.5 420,-.5 375,-.5"/>
<text text-anchor="middle" x="397.5" y="-7.5" font-family="FreeSans.ttf" font-size="10.00" fill="#000000">utility</text>
</g>
<!-- Node12&#45;&gt;Node20 -->
<g id="edge23" class="edge">
<title>Node12&#45;&gt;Node20</title>
<path fill="none" stroke="#191970" d="M341.3447,-56.2455C351.388,-47.9746 365.9995,-35.9416 377.8004,-26.2232"/>
<polygon fill="#191970" stroke="#191970" points="380.2967,-28.7015 385.791,-19.6427 375.8467,-23.298 380.2967,-28.7015"/>
</g>
<!-- Node23&#45;&gt;Node4 -->
<g id="edge49" class="edge">
<title>Node23&#45;&gt;Node4</title>
<path fill="none" stroke="#191970" d="M713.6264,-280.3067C694.8207,-267.5681 667.679,-244.4141 681.5,-224 705.6526,-188.3258 742.2566,-219.6358 771.5,-188 797.9971,-159.3351 806.0218,-112.4372 808.4495,-85.9138"/>
<polygon fill="#191970" stroke="#191970" points="811.9647,-85.8305 809.2013,-75.6024 804.9833,-85.3214 811.9647,-85.8305"/>
</g>
<!-- Node24 -->
<g id="node25" class="node">
<title>Node24</title>
<g id="a_node25"><a xlink:href="PositionRaw_8h.html" target="_top" xlink:title="iDynTree/Core/PositionRaw.h">
<polygon fill="none" stroke="#000000" points="606.5,-168.5 606.5,-187.5 762.5,-187.5 762.5,-168.5 606.5,-168.5"/>
<text text-anchor="middle" x="684.5" y="-175.5" font-family="FreeSans.ttf" font-size="10.00" fill="#000000">iDynTree/Core/PositionRaw.h</text>
</a>
</g>
</g>
<!-- Node23&#45;&gt;Node24 -->
<g id="edge30" class="edge">
<title>Node23&#45;&gt;Node24</title>
<path fill="none" stroke="#191970" d="M696.8103,-280.4174C679.1638,-273.3899 658.9138,-261.8899 648.5,-244 638.8944,-227.4984 652.0225,-208.3042 665.039,-194.8833"/>
<polygon fill="#191970" stroke="#191970" points="667.7219,-197.1598 672.5174,-187.7123 662.8771,-192.1073 667.7219,-197.1598"/>
</g>
<!-- Node25 -->
<g id="node26" class="node">
<title>Node25</title>
<g id="a_node26"><a xlink:href="PositionSemantics_8h.html" target="_top" xlink:title="iDynTree/Core/PositionSemantics.h">
<polygon fill="none" stroke="#000000" points="690,-224.5 690,-243.5 877,-243.5 877,-224.5 690,-224.5"/>
<text text-anchor="middle" x="783.5" y="-231.5" font-family="FreeSans.ttf" font-size="10.00" fill="#000000">iDynTree/Core/PositionSemantics.h</text>
</a>
</g>
</g>
<!-- Node23&#45;&gt;Node25 -->
<g id="edge33" class="edge">
<title>Node23&#45;&gt;Node25</title>
<path fill="none" stroke="#191970" d="M738.9061,-280.2455C746.6493,-272.2155 757.812,-260.6394 767.0318,-251.0781"/>
<polygon fill="#191970" stroke="#191970" points="769.7798,-253.2706 774.2017,-243.6427 764.7409,-248.4117 769.7798,-253.2706"/>
</g>
<!-- Node26 -->
<g id="node27" class="node">
<title>Node26</title>
<g id="a_node27"><a xlink:href="Rotation_8h.html" target="_top" xlink:title="iDynTree/Core/Rotation.h">
<polygon fill="none" stroke="#000000" points="895,-224.5 895,-243.5 1032,-243.5 1032,-224.5 895,-224.5"/>
<text text-anchor="middle" x="963.5" y="-231.5" font-family="FreeSans.ttf" font-size="10.00" fill="#000000">iDynTree/Core/Rotation.h</text>
</a>
</g>
</g>
<!-- Node23&#45;&gt;Node26 -->
<g id="edge35" class="edge">
<title>Node23&#45;&gt;Node26</title>
<path fill="none" stroke="#191970" d="M769.4602,-280.4369C809.3392,-270.8932 870.7139,-256.2052 913.7328,-245.9101"/>
<polygon fill="#191970" stroke="#191970" points="914.7939,-249.2551 923.7047,-243.5237 913.1646,-242.4473 914.7939,-249.2551"/>
</g>
<!-- Node24&#45;&gt;Node4 -->
<g id="edge32" class="edge">
<title>Node24&#45;&gt;Node4</title>
<path fill="none" stroke="#191970" d="M695.1574,-168.4509C716.5594,-149.2747 764.9729,-105.8962 791.421,-82.1988"/>
<polygon fill="#191970" stroke="#191970" points="793.7574,-84.8048 798.8695,-75.5249 789.0862,-79.5914 793.7574,-84.8048"/>
</g>
<!-- Node24&#45;&gt;Node9 -->
<g id="edge31" class="edge">
<title>Node24&#45;&gt;Node9</title>
<path fill="none" stroke="#191970" d="M627.4629,-168.4369C569.2206,-158.6717 478.8558,-143.5207 417.3034,-133.2006"/>
<polygon fill="#191970" stroke="#191970" points="417.743,-129.7255 407.3019,-131.5237 416.5855,-136.6291 417.743,-129.7255"/>
</g>
<!-- Node25&#45;&gt;Node4 -->
<g id="edge34" class="edge">
<title>Node25&#45;&gt;Node4</title>
<path fill="none" stroke="#191970" d="M789.348,-224.1738C794.3961,-215.1246 801.3572,-201.1492 804.5,-188 812.9232,-152.7584 812.3273,-110.1885 811.001,-85.7877"/>
<polygon fill="#191970" stroke="#191970" points="814.4845,-85.4173 810.3489,-75.663 807.499,-85.8673 814.4845,-85.4173"/>
</g>
<!-- Node26&#45;&gt;Node4 -->
<g id="edge36" class="edge">
<title>Node26&#45;&gt;Node4</title>
<path fill="none" stroke="#191970" d="M988.081,-224.4409C1035.2244,-204.763 1130.3725,-157.7271 1091.5,-112 1075.4559,-93.1267 912.7665,-75.7006 842.0419,-68.9534"/>
<polygon fill="#191970" stroke="#191970" points="842.1932,-65.4523 831.9093,-68 841.5374,-72.4215 842.1932,-65.4523"/>
</g>
<!-- Node26&#45;&gt;Node9 -->
<g id="edge48" class="edge">
<title>Node26&#45;&gt;Node9</title>
<path fill="none" stroke="#191970" d="M894.6553,-225.041C891.9011,-224.6884 889.1745,-224.3402 886.5,-224 758.0977,-207.6649 724.5459,-212.7653 597.5,-188 523.6779,-173.6097 439.3673,-149.3537 390.7956,-134.5969"/>
<polygon fill="#191970" stroke="#191970" points="391.5764,-131.1758 380.9901,-131.5991 389.5298,-137.8699 391.5764,-131.1758"/>
</g>
<!-- Node27 -->
<g id="node28" class="node">
<title>Node27</title>
<g id="a_node28"><a xlink:href="RotationRaw_8h.html" target="_top" xlink:title="iDynTree/Core/RotationRaw.h">
<polygon fill="none" stroke="#000000" points="856.5,-168.5 856.5,-187.5 1014.5,-187.5 1014.5,-168.5 856.5,-168.5"/>
<text text-anchor="middle" x="935.5" y="-175.5" font-family="FreeSans.ttf" font-size="10.00" fill="#000000">iDynTree/Core/RotationRaw.h</text>
</a>
</g>
</g>
<!-- Node26&#45;&gt;Node27 -->
<g id="edge37" class="edge">
<title>Node26&#45;&gt;Node27</title>
<path fill="none" stroke="#191970" d="M958.6228,-224.2455C954.8487,-216.6973 949.5079,-206.0158 944.9099,-196.8197"/>
<polygon fill="#191970" stroke="#191970" points="947.924,-195.0217 940.3213,-187.6427 941.663,-198.1522 947.924,-195.0217"/>
</g>
<!-- Node30 -->
<g id="node31" class="node">
<title>Node30</title>
<g id="a_node31"><a xlink:href="RotationSemantics_8h.html" target="_top" xlink:title="iDynTree/Core/RotationSemantics.h">
<polygon fill="none" stroke="#000000" points="894.5,-112.5 894.5,-131.5 1082.5,-131.5 1082.5,-112.5 894.5,-112.5"/>
<text text-anchor="middle" x="988.5" y="-119.5" font-family="FreeSans.ttf" font-size="10.00" fill="#000000">iDynTree/Core/RotationSemantics.h</text>
</a>
</g>
</g>
<!-- Node26&#45;&gt;Node30 -->
<g id="edge46" class="edge">
<title>Node26&#45;&gt;Node30</title>
<path fill="none" stroke="#191970" d="M984.2852,-224.3756C998.187,-216.6917 1015.3691,-204.4793 1023.5,-188 1031.8473,-171.0822 1019.4103,-152.0826 1007.1125,-138.8283"/>
<polygon fill="#191970" stroke="#191970" points="1009.5874,-136.3534 1000.0461,-131.7475 1004.6326,-141.2981 1009.5874,-136.3534"/>
</g>
<!-- Node27&#45;&gt;Node4 -->
<g id="edge45" class="edge">
<title>Node27&#45;&gt;Node4</title>
<path fill="none" stroke="#191970" d="M924.7573,-168.4509C903.1841,-149.2747 854.3833,-105.8962 827.7237,-82.1988"/>
<polygon fill="#191970" stroke="#191970" points="830.0149,-79.5526 820.2155,-75.5249 825.3643,-84.7845 830.0149,-79.5526"/>
</g>
<!-- Node28 -->
<g id="node29" class="node">
<title>Node28</title>
<g id="a_node29"><a xlink:href="MatrixFixSize_8h.html" target="_top" xlink:title="iDynTree/Core/MatrixFixSize.h">
<polygon fill="none" stroke="#000000" points="449,-112.5 449,-131.5 610,-131.5 610,-112.5 449,-112.5"/>
<text text-anchor="middle" x="529.5" y="-119.5" font-family="FreeSans.ttf" font-size="10.00" fill="#000000">iDynTree/Core/MatrixFixSize.h</text>
</a>
</g>
</g>
<!-- Node27&#45;&gt;Node28 -->
<g id="edge38" class="edge">
<title>Node27&#45;&gt;Node28</title>
<path fill="none" stroke="#191970" d="M866.1674,-168.4369C794.786,-158.5912 683.7108,-143.2705 608.8601,-132.9462"/>
<polygon fill="#191970" stroke="#191970" points="608.9311,-129.423 598.5466,-131.5237 607.9746,-136.3573 608.9311,-129.423"/>
</g>
<!-- Node28&#45;&gt;Node4 -->
<g id="edge42" class="edge">
<title>Node28&#45;&gt;Node4</title>
<path fill="none" stroke="#191970" d="M577.3156,-112.4369C634.3581,-101.0284 728.1557,-82.2689 777.2525,-72.4495"/>
<polygon fill="#191970" stroke="#191970" points="778.1864,-75.8321 787.3058,-70.4388 776.8136,-68.968 778.1864,-75.8321"/>
</g>
<!-- Node28&#45;&gt;Node10 -->
<g id="edge39" class="edge">
<title>Node28&#45;&gt;Node10</title>
<path fill="none" stroke="#191970" d="M471.7798,-112.4369C412.84,-102.6717 321.393,-87.5207 259.1034,-77.2006"/>
<polygon fill="#191970" stroke="#191970" points="259.4198,-73.7053 248.9822,-75.5237 258.2756,-80.6112 259.4198,-73.7053"/>
</g>
<!-- Node28&#45;&gt;Node13 -->
<g id="edge40" class="edge">
<title>Node28&#45;&gt;Node13</title>
<path fill="none" stroke="#191970" d="M542.9222,-112.3424C553.9681,-103.8218 569.3979,-90.5255 579.5,-76 589.428,-61.7247 596.5894,-43.2468 601.0316,-29.4748"/>
<polygon fill="#191970" stroke="#191970" points="604.4705,-30.1939 604.012,-19.609 597.7696,-28.1696 604.4705,-30.1939"/>
</g>
<!-- Node28&#45;&gt;Node21 -->
<g id="edge44" class="edge">
<title>Node28&#45;&gt;Node21</title>
<path fill="none" stroke="#191970" d="M531.7644,-112.2455C533.4794,-104.8579 535.8912,-94.4689 537.9944,-85.4087"/>
<polygon fill="#191970" stroke="#191970" points="541.4095,-86.1751 540.2615,-75.6427 534.5908,-84.5922 541.4095,-86.1751"/>
</g>
<!-- Node28&#45;&gt;Node22 -->
<g id="edge41" class="edge">
<title>Node28&#45;&gt;Node22</title>
<path fill="none" stroke="#191970" d="M519.3972,-112.2455C510.9972,-104.1352 498.8506,-92.4075 488.8916,-82.7919"/>
<polygon fill="#191970" stroke="#191970" points="491.1122,-80.0707 481.4871,-75.6427 486.25,-85.1066 491.1122,-80.0707"/>
</g>
<!-- Node29 -->
<g id="node30" class="node">
<title>Node29</title>
<polygon fill="none" stroke="#bfbfbf" points="626.5,-56.5 626.5,-75.5 686.5,-75.5 686.5,-56.5 626.5,-56.5"/>
<text text-anchor="middle" x="656.5" y="-63.5" font-family="FreeSans.ttf" font-size="10.00" fill="#000000">iostream</text>
</g>
<!-- Node28&#45;&gt;Node29 -->
<g id="edge43" class="edge">
<title>Node28&#45;&gt;Node29</title>
<path fill="none" stroke="#191970" d="M551.3321,-112.3733C571.8103,-103.3435 602.6399,-89.7494 625.6319,-79.6111"/>
<polygon fill="#191970" stroke="#191970" points="627.215,-82.7383 634.9528,-75.5011 624.3907,-76.3333 627.215,-82.7383"/>
</g>
<!-- Node30&#45;&gt;Node4 -->
<g id="edge47" class="edge">
<title>Node30&#45;&gt;Node4</title>
<path fill="none" stroke="#191970" d="M957.7288,-112.3733C925.2079,-102.1991 874.1651,-86.2304 841.2707,-75.9394"/>
<polygon fill="#191970" stroke="#191970" points="842.2743,-72.5862 831.6854,-72.9407 840.1842,-79.2669 842.2743,-72.5862"/>
</g>
<!-- Node31&#45;&gt;Node4 -->
<g id="edge57" class="edge">
<title>Node31&#45;&gt;Node4</title>
<path fill="none" stroke="#191970" d="M919.7603,-341.9133C1042.2878,-333.0526 1275.5,-306.6457 1275.5,-234 1275.5,-234 1275.5,-234 1275.5,-178 1275.5,-88.6067 947.2082,-70.3731 841.7204,-66.8216"/>
<polygon fill="#191970" stroke="#191970" points="841.7677,-63.3215 831.6627,-66.5054 841.5477,-70.318 841.7677,-63.3215"/>
</g>
<!-- Node31&#45;&gt;Node23 -->
<g id="edge52" class="edge">
<title>Node31&#45;&gt;Node23</title>
<path fill="none" stroke="#191970" d="M826.387,-336.3733C807.6897,-327.4241 779.6256,-313.9917 758.5066,-303.8835"/>
<polygon fill="#191970" stroke="#191970" points="759.8817,-300.6614 749.3506,-299.5011 756.8595,-306.9755 759.8817,-300.6614"/>
</g>
<!-- Node31&#45;&gt;Node26 -->
<g id="edge53" class="edge">
<title>Node31&#45;&gt;Node26</title>
<path fill="none" stroke="#191970" d="M856.4754,-336.4509C876.4213,-317.3574 921.4325,-274.2697 946.2568,-250.5063"/>
<polygon fill="#191970" stroke="#191970" points="948.7464,-252.9683 953.5499,-243.5249 943.9059,-247.9116 948.7464,-252.9683"/>
</g>
<!-- Node31&#45;&gt;Node28 -->
<g id="edge56" class="edge">
<title>Node31&#45;&gt;Node28</title>
<path fill="none" stroke="#191970" d="M785.7699,-336.4897C737.2747,-328.0111 674.0056,-314.6961 652.5,-300 592.3765,-258.914 552.7766,-177.9773 537.0952,-141.1077"/>
<polygon fill="#191970" stroke="#191970" points="540.2042,-139.4664 533.1538,-131.5581 533.7337,-142.1371 540.2042,-139.4664"/>
</g>
<!-- Node32 -->
<g id="node33" class="node">
<title>Node32</title>
<g id="a_node33"><a xlink:href="TransformSemantics_8h.html" target="_top" xlink:title="iDynTree/Core/TransformSemantics.h">
<polygon fill="none" stroke="#000000" points="1050,-224.5 1050,-243.5 1247,-243.5 1247,-224.5 1050,-224.5"/>
<text text-anchor="middle" x="1148.5" y="-231.5" font-family="FreeSans.ttf" font-size="10.00" fill="#000000">iDynTree/Core/TransformSemantics.h</text>
</a>
</g>
</g>
<!-- Node31&#45;&gt;Node32 -->
<g id="edge54" class="edge">
<title>Node31&#45;&gt;Node32</title>
<path fill="none" stroke="#191970" d="M872.2484,-336.4509C926.2958,-316.4069 1051.6439,-269.9202 1113.1598,-247.1063"/>
<polygon fill="#191970" stroke="#191970" points="1114.6579,-250.2837 1122.8168,-243.5249 1112.2238,-243.7205 1114.6579,-250.2837"/>
</g>
<!-- Node32&#45;&gt;Node4 -->
<g id="edge55" class="edge">
<title>Node32&#45;&gt;Node4</title>
<path fill="none" stroke="#191970" d="M1148.5913,-224.247C1148.2368,-200.851 1143.8273,-141.313 1109.5,-112 1069.7528,-78.0588 911.4463,-69.0979 842.205,-66.7836"/>
<polygon fill="#191970" stroke="#191970" points="841.9916,-63.2755 831.8887,-66.4664 841.7764,-70.2722 841.9916,-63.2755"/>
</g>
</g>
</svg>
