<?xml version="1.0" encoding="UTF-8" standalone="no"?>
<!DOCTYPE svg PUBLIC "-//W3C//DTD SVG 1.1//EN"
 "http://www.w3.org/Graphics/SVG/1.1/DTD/svg11.dtd">
<!-- Generated by graphviz version 2.40.1 (20161225.0304)
 -->
<!-- Title: KinDynComputations.cpp Pages: 1 -->
<svg width="3124pt" height="699pt"
 viewBox="0.00 0.00 3123.50 699.00" xmlns="http://www.w3.org/2000/svg" xmlns:xlink="http://www.w3.org/1999/xlink">
<g id="graph0" class="graph" transform="scale(1 1) rotate(0) translate(4 695)">
<title>KinDynComputations.cpp</title>
<!-- Node0 -->
<g id="node1" class="node">
<title>Node0</title>
<polygon fill="#bfbfbf" stroke="#000000" points="903,-671.5 903,-690.5 1043,-690.5 1043,-671.5 903,-671.5"/>
<text text-anchor="middle" x="973" y="-678.5" font-family="FreeSans.ttf" font-size="10.00" fill="#000000">KinDynComputations.cpp</text>
</g>
<!-- Node1 -->
<g id="node2" class="node">
<title>Node1</title>
<g id="a_node2"><a xlink:href="KinDynComputations_8h.html" target="_top" xlink:title="iDynTree/KinDynComputations.h">
<polygon fill="none" stroke="#000000" points="2660.5,-498 2660.5,-517 2835.5,-517 2835.5,-498 2660.5,-498"/>
<text text-anchor="middle" x="2748" y="-505" font-family="FreeSans.ttf" font-size="10.00" fill="#000000">iDynTree/KinDynComputations.h</text>
</a>
</g>
</g>
<!-- Node0&#45;&gt;Node1 -->
<g id="edge1" class="edge">
<title>Node0&#45;&gt;Node1</title>
<path fill="none" stroke="#191970" d="M1043.4244,-680.2341C1293.1725,-677.284 2135.8541,-665.2719 2404,-635 2533.1407,-620.4209 2579.8824,-646.3999 2691,-579 2712.1042,-566.1989 2728.5993,-542.5722 2738.2989,-525.9921"/>
<polygon fill="#191970" stroke="#191970" points="2741.3992,-527.6186 2743.2081,-517.1793 2735.284,-524.212 2741.3992,-527.6186"/>
</g>
<!-- Node4 -->
<g id="node5" class="node">
<title>Node4</title>
<g id="a_node5"><a xlink:href="Utils_8h.html" target="_top" xlink:title="iDynTree/Core/Utils.h">
<polygon fill="none" stroke="#000000" points="541.5,-56.5 541.5,-75.5 660.5,-75.5 660.5,-56.5 541.5,-56.5"/>
<text text-anchor="middle" x="601" y="-63.5" font-family="FreeSans.ttf" font-size="10.00" fill="#000000">iDynTree/Core/Utils.h</text>
</a>
</g>
</g>
<!-- Node0&#45;&gt;Node4 -->
<g id="edge61" class="edge">
<title>Node0&#45;&gt;Node4</title>
<path fill="none" stroke="#191970" d="M902.9541,-680.5569C740.2288,-678.9169 346.9001,-671.2099 300,-635 204.9946,-561.6496 214,-499.0263 214,-379 214,-379 214,-379 214,-183.5 214,-114.4232 286.6584,-134.4072 352,-112 384.3988,-100.8897 469.6119,-86.2616 531.3399,-76.5147"/>
<polygon fill="#191970" stroke="#191970" points="532.081,-79.9413 541.4177,-74.9337 530.996,-73.0259 532.081,-79.9413"/>
</g>
<!-- Node7 -->
<g id="node8" class="node">
<title>Node7</title>
<polygon fill="none" stroke="#bfbfbf" points="466,-56.5 466,-75.5 518,-75.5 518,-56.5 466,-56.5"/>
<text text-anchor="middle" x="492" y="-63.5" font-family="FreeSans.ttf" font-size="10.00" fill="#000000">cassert</text>
</g>
<!-- Node0&#45;&gt;Node7 -->
<g id="edge135" class="edge">
<title>Node0&#45;&gt;Node7</title>
<path fill="none" stroke="#191970" d="M902.9485,-679.6915C694.4068,-675.5066 90.0064,-661.1676 57,-635 33.0805,-616.0366 38,-599.5246 38,-569 38,-569 38,-569 38,-183.5 38,-97.3205 348.4699,-73.3212 455.9205,-67.5959"/>
<polygon fill="#191970" stroke="#191970" points="456.1519,-71.0888 465.9604,-67.0831 455.7948,-64.0979 456.1519,-71.0888"/>
</g>
<!-- Node17 -->
<g id="node9" class="node">
<title>Node17</title>
<g id="a_node9"><a xlink:href="MatrixDynSize_8h.html" target="_top" xlink:title="iDynTree/Core/MatrixDynSize.h">
<polygon fill="none" stroke="#000000" points="2811.5,-369.5 2811.5,-388.5 2978.5,-388.5 2978.5,-369.5 2811.5,-369.5"/>
<text text-anchor="middle" x="2895" y="-376.5" font-family="FreeSans.ttf" font-size="10.00" fill="#000000">iDynTree/Core/MatrixDynSize.h</text>
</a>
</g>
</g>
<!-- Node0&#45;&gt;Node17 -->
<g id="edge54" class="edge">
<title>Node0&#45;&gt;Node17</title>
<path fill="none" stroke="#191970" d="M1043.1666,-679.8372C1305.4041,-675.3476 2227.8439,-658.2304 2521,-635 2635.141,-625.9552 3032,-683.4988 3032,-569 3032,-569 3032,-569 3032,-507.5 3032,-469.8735 3037.6038,-453.4676 3013,-425 2999.0997,-408.9168 2978.8689,-398.4207 2959.0716,-391.5856"/>
<polygon fill="#191970" stroke="#191970" points="2960.0078,-388.2107 2949.4174,-388.5158 2957.8866,-394.8816 2960.0078,-388.2107"/>
</g>
<!-- Node20 -->
<g id="node12" class="node">
<title>Node20</title>
<g id="a_node12"><a xlink:href="LinkState_8h.html" target="_top" xlink:title="iDynTree/Model/LinkState.h">
<polygon fill="none" stroke="#000000" points="1029.5,-431 1029.5,-450 1178.5,-450 1178.5,-431 1029.5,-431"/>
<text text-anchor="middle" x="1104" y="-438" font-family="FreeSans.ttf" font-size="10.00" fill="#000000">iDynTree/Model/LinkState.h</text>
</a>
</g>
</g>
<!-- Node0&#45;&gt;Node20 -->
<g id="edge112" class="edge">
<title>Node0&#45;&gt;Node20</title>
<path fill="none" stroke="#191970" d="M968.3361,-671.2194C954.7717,-641.2021 918.769,-548.9821 959,-492 970.0205,-476.3909 1014.0007,-462.1455 1050.6642,-452.6136"/>
<polygon fill="#191970" stroke="#191970" points="1051.9428,-455.9004 1060.7777,-450.0529 1050.2246,-449.1146 1051.9428,-455.9004"/>
</g>
<!-- Node21 -->
<g id="node13" class="node">
<title>Node21</title>
<g id="a_node13"><a xlink:href="Transform_8h.html" target="_top" xlink:title="iDynTree/Core/Transform.h">
<polygon fill="none" stroke="#000000" points="1414,-369.5 1414,-388.5 1560,-388.5 1560,-369.5 1414,-369.5"/>
<text text-anchor="middle" x="1487" y="-376.5" font-family="FreeSans.ttf" font-size="10.00" fill="#000000">iDynTree/Core/Transform.h</text>
</a>
</g>
</g>
<!-- Node0&#45;&gt;Node21 -->
<g id="edge59" class="edge">
<title>Node0&#45;&gt;Node21</title>
<path fill="none" stroke="#191970" d="M1013.2064,-671.4325C1081.0017,-653.3919 1218.6962,-608.2724 1301,-523 1334.0317,-488.7768 1308.6924,-456.87 1344,-425 1362.2097,-408.5632 1386.3436,-397.995 1409.5899,-391.2017"/>
<polygon fill="#191970" stroke="#191970" points="1410.7457,-394.5147 1419.4783,-388.5154 1408.9105,-387.7595 1410.7457,-394.5147"/>
</g>
<!-- Node25 -->
<g id="node15" class="node">
<title>Node25</title>
<g id="a_node15"><a xlink:href="Rotation_8h.html" target="_top" xlink:title="iDynTree/Core/Rotation.h">
<polygon fill="none" stroke="#000000" points="1642.5,-241 1642.5,-260 1779.5,-260 1779.5,-241 1642.5,-241"/>
<text text-anchor="middle" x="1711" y="-248" font-family="FreeSans.ttf" font-size="10.00" fill="#000000">iDynTree/Core/Rotation.h</text>
</a>
</g>
</g>
<!-- Node0&#45;&gt;Node25 -->
<g id="edge60" class="edge">
<title>Node0&#45;&gt;Node25</title>
<path fill="none" stroke="#191970" d="M902.899,-673.9677C860.5199,-667.7429 806.3067,-656.1942 762,-635 719.797,-614.8121 680,-615.7829 680,-569 680,-569 680,-569 680,-507.5 680,-444.6095 667.1321,-415.9286 709,-369 724.7423,-351.3548 887.7889,-306.5187 911,-302 1047.5386,-275.4186 1458.609,-258.9489 1632.2371,-253.0065"/>
<polygon fill="#191970" stroke="#191970" points="1632.4511,-256.5014 1642.3266,-252.6639 1632.2135,-249.5054 1632.4511,-256.5014"/>
</g>
<!-- Node28 -->
<g id="node18" class="node">
<title>Node28</title>
<polygon fill="none" stroke="#bfbfbf" points="164,-56.5 164,-75.5 224,-75.5 224,-56.5 164,-56.5"/>
<text text-anchor="middle" x="194" y="-63.5" font-family="FreeSans.ttf" font-size="10.00" fill="#000000">iostream</text>
</g>
<!-- Node0&#45;&gt;Node28 -->
<g id="edge136" class="edge">
<title>Node0&#45;&gt;Node28</title>
<path fill="none" stroke="#191970" d="M902.8885,-679.3815C691.8455,-674.2692 74.7445,-657.4664 38,-635 9.1222,-617.3435 0,-602.8479 0,-569 0,-569 0,-569 0,-183.5 0,-112.3269 96.7116,-83.0827 153.5674,-72.0399"/>
<polygon fill="#191970" stroke="#191970" points="154.483,-75.4305 163.6875,-70.1838 153.2201,-68.5453 154.483,-75.4305"/>
</g>
<!-- Node31 -->
<g id="node21" class="node">
<title>Node31</title>
<g id="a_node21"><a xlink:href="Twist_8h.html" target="_top" xlink:title="iDynTree/Core/Twist.h">
<polygon fill="none" stroke="#000000" points="1109,-308 1109,-327 1231,-327 1231,-308 1109,-308"/>
<text text-anchor="middle" x="1170" y="-315" font-family="FreeSans.ttf" font-size="10.00" fill="#000000">iDynTree/Core/Twist.h</text>
</a>
</g>
</g>
<!-- Node0&#45;&gt;Node31 -->
<g id="edge58" class="edge">
<title>Node0&#45;&gt;Node31</title>
<path fill="none" stroke="#191970" d="M902.7764,-675.3244C742.9952,-661.4685 366,-623.0492 366,-569 366,-569 366,-569 366,-440.5 366,-292.5522 618.4656,-377.2581 1062,-333 1074.3443,-331.7682 1087.441,-330.1522 1100.0971,-328.4293"/>
<polygon fill="#191970" stroke="#191970" points="1100.7094,-331.8778 1110.1299,-327.0298 1099.7423,-324.945 1100.7094,-331.8778"/>
</g>
<!-- Node41 -->
<g id="node23" class="node">
<title>Node41</title>
<g id="a_node23"><a xlink:href="SpatialAcc_8h.html" target="_top" xlink:title="iDynTree/Core/SpatialAcc.h">
<polygon fill="none" stroke="#000000" points="601,-308 601,-327 749,-327 749,-308 601,-308"/>
<text text-anchor="middle" x="675" y="-315" font-family="FreeSans.ttf" font-size="10.00" fill="#000000">iDynTree/Core/SpatialAcc.h</text>
</a>
</g>
</g>
<!-- Node0&#45;&gt;Node41 -->
<g id="edge62" class="edge">
<title>Node0&#45;&gt;Node41</title>
<path fill="none" stroke="#191970" d="M902.7745,-679.5906C746.0909,-675.9321 377.9238,-664.2951 330,-635 300.7346,-617.1106 290,-603.3001 290,-569 290,-569 290,-569 290,-440.5 290,-404.0874 300.0393,-389.6939 330,-369 371.0828,-340.6241 502.3787,-327.4363 590.6265,-321.6436"/>
<polygon fill="#191970" stroke="#191970" points="590.8729,-325.1351 600.6302,-321.0063 590.4279,-318.1492 590.8729,-325.1351"/>
</g>
<!-- Node42 -->
<g id="node24" class="node">
<title>Node42</title>
<g id="a_node24"><a xlink:href="Wrench_8h.html" target="_top" xlink:title="iDynTree/Core/Wrench.h">
<polygon fill="none" stroke="#000000" points="919.5,-308 919.5,-327 1052.5,-327 1052.5,-308 919.5,-308"/>
<text text-anchor="middle" x="986" y="-315" font-family="FreeSans.ttf" font-size="10.00" fill="#000000">iDynTree/Core/Wrench.h</text>
</a>
</g>
</g>
<!-- Node0&#45;&gt;Node42 -->
<g id="edge71" class="edge">
<title>Node0&#45;&gt;Node42</title>
<path fill="none" stroke="#191970" d="M902.7526,-680.038C749.4401,-677.3378 395.0704,-667.6054 352,-635 327.1141,-616.1608 328,-600.2125 328,-569 328,-569 328,-569 328,-440.5 328,-406.9798 325.6017,-389.6576 352,-369 362.8545,-360.506 742.5544,-333.9266 909.0558,-322.6454"/>
<polygon fill="#191970" stroke="#191970" points="909.4873,-326.1243 919.2283,-321.9573 909.0148,-319.1403 909.4873,-326.1243"/>
</g>
<!-- Node49 -->
<g id="node28" class="node">
<title>Node49</title>
<g id="a_node28"><a xlink:href="ClassicalAcc_8h.html" target="_top" xlink:title="iDynTree/Core/ClassicalAcc.h">
<polygon fill="none" stroke="#000000" points="66,-615.5 66,-634.5 224,-634.5 224,-615.5 66,-615.5"/>
<text text-anchor="middle" x="145" y="-622.5" font-family="FreeSans.ttf" font-size="10.00" fill="#000000">iDynTree/Core/ClassicalAcc.h</text>
</a>
</g>
</g>
<!-- Node0&#45;&gt;Node49 -->
<g id="edge52" class="edge">
<title>Node0&#45;&gt;Node49</title>
<path fill="none" stroke="#191970" d="M902.9971,-677.6609C772.22,-671.1914 481.9601,-655.7399 238,-635 236.7258,-634.8917 235.442,-634.7806 234.1503,-634.6669"/>
<polygon fill="#191970" stroke="#191970" points="234.4017,-631.1754 224.1246,-633.7507 233.7646,-638.1463 234.4017,-631.1754"/>
</g>
<!-- Node50 -->
<g id="node29" class="node">
<title>Node50</title>
<g id="a_node29"><a xlink:href="VectorDynSize_8h.html" target="_top" xlink:title="iDynTree/Core/VectorDynSize.h">
<polygon fill="none" stroke="#000000" points="717.5,-369.5 717.5,-388.5 884.5,-388.5 884.5,-369.5 717.5,-369.5"/>
<text text-anchor="middle" x="801" y="-376.5" font-family="FreeSans.ttf" font-size="10.00" fill="#000000">iDynTree/Core/VectorDynSize.h</text>
</a>
</g>
</g>
<!-- Node0&#45;&gt;Node50 -->
<g id="edge55" class="edge">
<title>Node0&#45;&gt;Node50</title>
<path fill="none" stroke="#191970" d="M930.0311,-671.4593C857.358,-654.0681 718,-614.7538 718,-569 718,-569 718,-569 718,-507.5 718,-460.9714 756.8726,-417.9449 781.4123,-395.4185"/>
<polygon fill="#191970" stroke="#191970" points="783.9513,-397.8448 789.1081,-388.5896 779.3053,-392.6089 783.9513,-397.8448"/>
</g>
<!-- Node51 -->
<g id="node30" class="node">
<title>Node51</title>
<g id="a_node30"><a xlink:href="SpatialInertia_8h.html" target="_top" xlink:title="iDynTree/Core/SpatialInertia.h">
<polygon fill="none" stroke="#000000" points="1234,-369.5 1234,-388.5 1396,-388.5 1396,-369.5 1234,-369.5"/>
<text text-anchor="middle" x="1315" y="-376.5" font-family="FreeSans.ttf" font-size="10.00" fill="#000000">iDynTree/Core/SpatialInertia.h</text>
</a>
</g>
</g>
<!-- Node0&#45;&gt;Node51 -->
<g id="edge63" class="edge">
<title>Node0&#45;&gt;Node51</title>
<path fill="none" stroke="#191970" d="M965.578,-671.3455C959.0998,-662.4119 949.9785,-648.5097 945,-635 923.0151,-575.3415 911.9762,-548.5693 941,-492 941.6616,-490.7105 1019.6803,-425.5992 1021,-425 1056.2684,-408.9872 1151.0871,-395.951 1223.5952,-387.8982"/>
<polygon fill="#191970" stroke="#191970" points="1224.1102,-391.3628 1233.6698,-386.7952 1223.3483,-384.4044 1224.1102,-391.3628"/>
</g>
<!-- Node55 -->
<g id="node33" class="node">
<title>Node55</title>
<g id="a_node33"><a xlink:href="EigenHelpers_8h.html" target="_top" xlink:title="iDynTree/Core/EigenHelpers.h">
<polygon fill="none" stroke="#000000" points="490.5,-431 490.5,-450 651.5,-450 651.5,-431 490.5,-431"/>
<text text-anchor="middle" x="571" y="-438" font-family="FreeSans.ttf" font-size="10.00" fill="#000000">iDynTree/Core/EigenHelpers.h</text>
</a>
</g>
</g>
<!-- Node0&#45;&gt;Node55 -->
<g id="edge72" class="edge">
<title>Node0&#45;&gt;Node55</title>
<path fill="none" stroke="#191970" d="M902.7556,-677.9603C824.0348,-673.2799 702.6194,-661.8452 666,-635 606.4372,-591.3353 582.3384,-500.0886 574.3557,-460.0468"/>
<polygon fill="#191970" stroke="#191970" points="577.7918,-459.3804 572.5155,-450.1929 570.9108,-460.6655 577.7918,-459.3804"/>
</g>
<!-- Node57 -->
<g id="node35" class="node">
<title>Node57</title>
<g id="a_node35"><a xlink:href="Model_8h.html" target="_top" xlink:title="iDynTree/Model/Model.h">
<polygon fill="none" stroke="#000000" points="1545.5,-498 1545.5,-517 1678.5,-517 1678.5,-498 1545.5,-498"/>
<text text-anchor="middle" x="1612" y="-505" font-family="FreeSans.ttf" font-size="10.00" fill="#000000">iDynTree/Model/Model.h</text>
</a>
</g>
</g>
<!-- Node0&#45;&gt;Node57 -->
<g id="edge82" class="edge">
<title>Node0&#45;&gt;Node57</title>
<path fill="none" stroke="#191970" d="M1043.1165,-680.0933C1195.192,-677.5116 1545.0952,-668.0147 1587,-635 1619.0664,-609.7365 1618.2889,-556.4727 1615.0791,-527.4234"/>
<polygon fill="#191970" stroke="#191970" points="1618.5164,-526.7161 1613.7435,-517.2572 1611.576,-527.628 1618.5164,-526.7161"/>
</g>
<!-- Node62 -->
<g id="node40" class="node">
<title>Node62</title>
<g id="a_node40"><a xlink:href="Traversal_8h.html" target="_top" xlink:title="iDynTree/Model/Traversal.h">
<polygon fill="none" stroke="#000000" points="1976,-431 1976,-450 2124,-450 2124,-431 1976,-431"/>
<text text-anchor="middle" x="2050" y="-438" font-family="FreeSans.ttf" font-size="10.00" fill="#000000">iDynTree/Model/Traversal.h</text>
</a>
</g>
</g>
<!-- Node0&#45;&gt;Node62 -->
<g id="edge97" class="edge">
<title>Node0&#45;&gt;Node62</title>
<path fill="none" stroke="#191970" d="M1043.1534,-678.9334C1185.2847,-674.253 1502.6712,-661.1589 1608,-635 1775.5109,-593.3978 1959.455,-492.9183 2025.0658,-455.1653"/>
<polygon fill="#191970" stroke="#191970" points="2026.9725,-458.1057 2033.8714,-450.0648 2023.4639,-452.0484 2026.9725,-458.1057"/>
</g>
<!-- Node63 -->
<g id="node41" class="node">
<title>Node63</title>
<g id="a_node41"><a xlink:href="FreeFloatingState_8h.html" target="_top" xlink:title="iDynTree/Model/FreeFloating\lState.h">
<polygon fill="none" stroke="#000000" points="1138,-492.5 1138,-522.5 1292,-522.5 1292,-492.5 1138,-492.5"/>
<text text-anchor="start" x="1146" y="-510.5" font-family="FreeSans.ttf" font-size="10.00" fill="#000000">iDynTree/Model/FreeFloating</text>
<text text-anchor="middle" x="1215" y="-499.5" font-family="FreeSans.ttf" font-size="10.00" fill="#000000">State.h</text>
</a>
</g>
</g>
<!-- Node0&#45;&gt;Node63 -->
<g id="edge100" class="edge">
<title>Node0&#45;&gt;Node63</title>
<path fill="none" stroke="#191970" d="M986.3557,-671.4248C1024.182,-644.3055 1132.71,-566.4972 1185.4806,-528.6637"/>
<polygon fill="#191970" stroke="#191970" points="1187.6658,-531.4037 1193.7536,-522.7325 1183.5871,-525.7147 1187.6658,-531.4037"/>
</g>
<!-- Node65 -->
<g id="node43" class="node">
<title>Node65</title>
<g id="a_node43"><a xlink:href="LinkTraversalsCache_8h.html" target="_top" xlink:title="iDynTree/Model/LinkTraversals\lCache.h">
<polygon fill="none" stroke="#000000" points="2142,-425.5 2142,-455.5 2306,-455.5 2306,-425.5 2142,-425.5"/>
<text text-anchor="start" x="2150" y="-443.5" font-family="FreeSans.ttf" font-size="10.00" fill="#000000">iDynTree/Model/LinkTraversals</text>
<text text-anchor="middle" x="2224" y="-432.5" font-family="FreeSans.ttf" font-size="10.00" fill="#000000">Cache.h</text>
</a>
</g>
</g>
<!-- Node0&#45;&gt;Node65 -->
<g id="edge113" class="edge">
<title>Node0&#45;&gt;Node65</title>
<path fill="none" stroke="#191970" d="M1043.079,-678.5755C1192.4378,-673.0301 1537.8548,-658.0923 1653,-635 1856.3007,-594.2281 2086.6833,-500.1801 2180.6497,-459.6529"/>
<polygon fill="#191970" stroke="#191970" points="2182.3216,-462.743 2190.1061,-455.5561 2179.5388,-456.3199 2182.3216,-462.743"/>
</g>
<!-- Node66 -->
<g id="node44" class="node">
<title>Node66</title>
<g id="a_node44"><a xlink:href="ForwardKinematics_8h.html" target="_top" xlink:title="iDynTree/Model/ForwardKinematics.h">
<polygon fill="none" stroke="#000000" points="2316.5,-559.5 2316.5,-578.5 2513.5,-578.5 2513.5,-559.5 2316.5,-559.5"/>
<text text-anchor="middle" x="2415" y="-566.5" font-family="FreeSans.ttf" font-size="10.00" fill="#000000">iDynTree/Model/ForwardKinematics.h</text>
</a>
</g>
</g>
<!-- Node0&#45;&gt;Node66 -->
<g id="edge116" class="edge">
<title>Node0&#45;&gt;Node66</title>
<path fill="none" stroke="#191970" d="M1043.2797,-680.5779C1300.3654,-678.7581 2180.995,-670.0067 2302,-635 2337.4857,-624.734 2373.4797,-600.8836 2395.0209,-584.8465"/>
<polygon fill="#191970" stroke="#191970" points="2397.2299,-587.5636 2403.0624,-578.7187 2392.9871,-581.9959 2397.2299,-587.5636"/>
</g>
<!-- Node67 -->
<g id="node45" class="node">
<title>Node67</title>
<g id="a_node45"><a xlink:href="Dynamics_8h.html" target="_top" xlink:title="iDynTree/Model/Dynamics.h">
<polygon fill="none" stroke="#000000" points="968,-498 968,-517 1120,-517 1120,-498 968,-498"/>
<text text-anchor="middle" x="1044" y="-505" font-family="FreeSans.ttf" font-size="10.00" fill="#000000">iDynTree/Model/Dynamics.h</text>
</a>
</g>
</g>
<!-- Node0&#45;&gt;Node67 -->
<g id="edge118" class="edge">
<title>Node0&#45;&gt;Node67</title>
<path fill="none" stroke="#191970" d="M976.9184,-671.4248C988.19,-643.8807 1020.8595,-564.0477 1036.0546,-526.916"/>
<polygon fill="#191970" stroke="#191970" points="1039.458,-527.8402 1040.0062,-517.2595 1032.9795,-525.189 1039.458,-527.8402"/>
</g>
<!-- Node68 -->
<g id="node46" class="node">
<title>Node68</title>
<g id="a_node46"><a xlink:href="Jacobians_8h.html" target="_top" xlink:title="iDynTree/Model/Jacobians.h">
<polygon fill="none" stroke="#000000" points="2532,-559.5 2532,-578.5 2682,-578.5 2682,-559.5 2532,-559.5"/>
<text text-anchor="middle" x="2607" y="-566.5" font-family="FreeSans.ttf" font-size="10.00" fill="#000000">iDynTree/Model/Jacobians.h</text>
</a>
</g>
</g>
<!-- Node0&#45;&gt;Node68 -->
<g id="edge122" class="edge">
<title>Node0&#45;&gt;Node68</title>
<path fill="none" stroke="#191970" d="M1043.1401,-680.5525C1285.1164,-678.7088 2084.0281,-670.0507 2338,-635 2420.617,-623.598 2514.7587,-597.352 2566.8887,-581.6087"/>
<polygon fill="#191970" stroke="#191970" points="2568.193,-584.8702 2576.7387,-578.6076 2566.1527,-578.1741 2568.193,-584.8702"/>
</g>
<!-- Node69 -->
<g id="node47" class="node">
<title>Node69</title>
<g id="a_node47"><a xlink:href="ModelLoader_8h.html" target="_top" xlink:title="iDynTree/ModelIO/ModelLoader.h">
<polygon fill="none" stroke="#000000" points="1402,-615.5 1402,-634.5 1578,-634.5 1578,-615.5 1402,-615.5"/>
<text text-anchor="middle" x="1490" y="-622.5" font-family="FreeSans.ttf" font-size="10.00" fill="#000000">iDynTree/ModelIO/ModelLoader.h</text>
</a>
</g>
</g>
<!-- Node0&#45;&gt;Node69 -->
<g id="edge124" class="edge">
<title>Node0&#45;&gt;Node69</title>
<path fill="none" stroke="#191970" d="M1043.263,-673.3893C1133.44,-663.6216 1290.3681,-646.6236 1392.1826,-635.5953"/>
<polygon fill="#191970" stroke="#191970" points="1392.601,-639.0706 1402.1659,-634.5139 1391.8471,-632.1113 1392.601,-639.0706"/>
</g>
<!-- Node72 -->
<g id="node50" class="node">
<title>Node72</title>
<polygon fill="none" stroke="#bfbfbf" points="3060.5,-615.5 3060.5,-634.5 3115.5,-634.5 3115.5,-615.5 3060.5,-615.5"/>
<text text-anchor="middle" x="3088" y="-622.5" font-family="FreeSans.ttf" font-size="10.00" fill="#000000">fstream</text>
</g>
<!-- Node0&#45;&gt;Node72 -->
<g id="edge137" class="edge">
<title>Node0&#45;&gt;Node72</title>
<path fill="none" stroke="#191970" d="M1043.1402,-680.3251C1382.3027,-676.9427 2844.216,-660.9631 3046,-635 3047.2963,-634.8332 3048.6109,-634.6427 3049.9353,-634.4326"/>
<polygon fill="#191970" stroke="#191970" points="3050.9629,-637.8004 3060.1382,-632.5027 3049.6619,-630.9223 3050.9629,-637.8004"/>
</g>
<!-- Node2 -->
<g id="node3" class="node">
<title>Node2</title>
<polygon fill="none" stroke="#bfbfbf" points="1965,-56.5 1965,-75.5 2009,-75.5 2009,-56.5 1965,-56.5"/>
<text text-anchor="middle" x="1987" y="-63.5" font-family="FreeSans.ttf" font-size="10.00" fill="#000000">string</text>
</g>
<!-- Node1&#45;&gt;Node2 -->
<g id="edge2" class="edge">
<title>Node1&#45;&gt;Node2</title>
<path fill="none" stroke="#191970" d="M2752.7064,-497.7649C2762.4646,-476.6554 2784,-424.8726 2784,-379 2784,-379 2784,-379 2784,-183.5 2784,-149.9798 2786.62,-132.3711 2760,-112 2730.1497,-89.1569 2162.3605,-71.1149 2019.438,-66.9225"/>
<polygon fill="#191970" stroke="#191970" points="2019.2474,-63.4156 2009.1498,-66.6232 2019.0437,-70.4126 2019.2474,-63.4156"/>
</g>
<!-- Node3 -->
<g id="node4" class="node">
<title>Node3</title>
<g id="a_node4"><a xlink:href="VectorFixSize_8h.html" target="_top" xlink:title="iDynTree/Core/VectorFixSize.h">
<polygon fill="none" stroke="#ff0000" points="535.5,-174 535.5,-193 696.5,-193 696.5,-174 535.5,-174"/>
<text text-anchor="middle" x="616" y="-181" font-family="FreeSans.ttf" font-size="10.00" fill="#000000">iDynTree/Core/VectorFixSize.h</text>
</a>
</g>
</g>
<!-- Node1&#45;&gt;Node3 -->
<g id="edge3" class="edge">
<title>Node1&#45;&gt;Node3</title>
<path fill="none" stroke="#191970" d="M2737.4897,-497.8715C2715.7915,-478.1872 2666.37,-434.3994 2646,-425 2522.8427,-368.1712 2480.6055,-385.6915 2346,-369 2090.5697,-337.3259 2021.9391,-374.986 1768,-333 1716.1967,-324.4349 1705.2382,-313.4709 1654,-302 1487.0756,-264.6302 1444.6898,-256.5778 1275,-235 1167.7492,-221.3619 861.3802,-199.9009 707.1024,-189.5206"/>
<polygon fill="#191970" stroke="#191970" points="706.9251,-186.0009 696.713,-188.8229 706.456,-192.9852 706.9251,-186.0009"/>
</g>
<!-- Node1&#45;&gt;Node4 -->
<g id="edge13" class="edge">
<title>Node1&#45;&gt;Node4</title>
<path fill="none" stroke="#191970" d="M2742.7486,-497.7607C2732.9362,-480.4876 2710.1486,-444.4776 2681,-425 2435.0037,-260.6211 2328.4975,-312.6259 2043,-235 1922.8593,-202.3341 1893.827,-188.3562 1771,-168 1357.3655,-99.4482 853.3339,-75.2133 671.0131,-68.3306"/>
<polygon fill="#191970" stroke="#191970" points="670.8851,-64.8235 660.7619,-67.9492 670.6248,-71.8187 670.8851,-64.8235"/>
</g>
<!-- Node1&#45;&gt;Node17 -->
<g id="edge11" class="edge">
<title>Node1&#45;&gt;Node17</title>
<path fill="none" stroke="#191970" d="M2758.819,-497.7761C2776.0972,-482.2754 2811.0287,-451.0547 2841,-425 2852.4408,-415.0543 2865.3642,-404.0378 2875.6994,-395.2797"/>
<polygon fill="#191970" stroke="#191970" points="2877.9808,-397.9341 2883.3553,-388.8036 2873.46,-392.5897 2877.9808,-397.9341"/>
</g>
<!-- Node18 -->
<g id="node10" class="node">
<title>Node18</title>
<g id="a_node10"><a xlink:href="Indices_8h.html" target="_top" xlink:title="iDynTree/Model/Indices.h">
<polygon fill="none" stroke="#000000" points="2199,-369.5 2199,-388.5 2337,-388.5 2337,-369.5 2199,-369.5"/>
<text text-anchor="middle" x="2268" y="-376.5" font-family="FreeSans.ttf" font-size="10.00" fill="#000000">iDynTree/Model/Indices.h</text>
</a>
</g>
</g>
<!-- Node1&#45;&gt;Node18 -->
<g id="edge14" class="edge">
<title>Node1&#45;&gt;Node18</title>
<path fill="none" stroke="#191970" d="M2730.1729,-497.9544C2711.4984,-487.8545 2681.4051,-471.2936 2656,-456 2634.2426,-442.9022 2631.8213,-433.8025 2608,-425 2561.6249,-407.8634 2432.4296,-393.609 2347.3227,-385.7044"/>
<polygon fill="#191970" stroke="#191970" points="2347.4491,-382.2014 2337.1709,-384.7722 2346.8089,-389.1721 2347.4491,-382.2014"/>
</g>
<!-- Node19 -->
<g id="node11" class="node">
<title>Node19</title>
<g id="a_node11"><a xlink:href="FreeFloatingMatrices_8h.html" target="_top" xlink:title="iDynTree/Model/FreeFloating\lMatrices.h">
<polygon fill="none" stroke="#000000" points="2850,-425.5 2850,-455.5 3004,-455.5 3004,-425.5 2850,-425.5"/>
<text text-anchor="start" x="2858" y="-443.5" font-family="FreeSans.ttf" font-size="10.00" fill="#000000">iDynTree/Model/FreeFloating</text>
<text text-anchor="middle" x="2927" y="-432.5" font-family="FreeSans.ttf" font-size="10.00" fill="#000000">Matrices.h</text>
</a>
</g>
</g>
<!-- Node1&#45;&gt;Node19 -->
<g id="edge16" class="edge">
<title>Node1&#45;&gt;Node19</title>
<path fill="none" stroke="#191970" d="M2773.6463,-497.9005C2800.5697,-487.8231 2843.5789,-471.7247 2877.2073,-459.1375"/>
<polygon fill="#191970" stroke="#191970" points="2878.7287,-462.3052 2886.8672,-455.5218 2876.2748,-455.7494 2878.7287,-462.3052"/>
</g>
<!-- Node1&#45;&gt;Node20 -->
<g id="edge18" class="edge">
<title>Node1&#45;&gt;Node20</title>
<path fill="none" stroke="#191970" d="M2660.4826,-503.9333C2374.7455,-492.2883 1471.3636,-455.4716 1189.1169,-443.9689"/>
<polygon fill="#191970" stroke="#191970" points="1189.0741,-440.4643 1178.9399,-443.5541 1188.789,-447.4585 1189.0741,-440.4643"/>
</g>
<!-- Node3&#45;&gt;Node2 -->
<g id="edge9" class="edge">
<title>Node3&#45;&gt;Node2</title>
<path fill="none" stroke="#191970" d="M663.9022,-173.9712C757.6121,-155.3885 958.8708,-115.7854 991,-112 1184.0817,-89.2512 1805.1709,-71.0078 1954.4933,-66.8782"/>
<polygon fill="#191970" stroke="#191970" points="1954.9032,-70.3683 1964.8032,-66.5948 1954.7108,-63.371 1954.9032,-70.3683"/>
</g>
<!-- Node3&#45;&gt;Node4 -->
<g id="edge4" class="edge">
<title>Node3&#45;&gt;Node4</title>
<path fill="none" stroke="#191970" d="M614.7725,-173.8845C612.3223,-154.6913 606.7812,-111.286 603.5234,-85.7663"/>
<polygon fill="#191970" stroke="#191970" points="606.9827,-85.2246 602.2445,-75.7484 600.0391,-86.1111 606.9827,-85.2246"/>
</g>
<!-- Node6 -->
<g id="node7" class="node">
<title>Node6</title>
<g id="a_node7"><a xlink:href="Span_8h.html" target="_top" xlink:title="iDynTree/Core/Span.h">
<polygon fill="none" stroke="#ff0000" points="360.5,-112.5 360.5,-131.5 481.5,-131.5 481.5,-112.5 360.5,-112.5"/>
<text text-anchor="middle" x="421" y="-119.5" font-family="FreeSans.ttf" font-size="10.00" fill="#000000">iDynTree/Core/Span.h</text>
</a>
</g>
</g>
<!-- Node3&#45;&gt;Node6 -->
<g id="edge6" class="edge">
<title>Node3&#45;&gt;Node6</title>
<path fill="none" stroke="#191970" d="M585.5313,-173.8906C552.0456,-163.3298 498.1147,-146.3208 461.188,-134.6747"/>
<polygon fill="#191970" stroke="#191970" points="461.8445,-131.2118 451.2548,-131.5419 459.739,-137.8877 461.8445,-131.2118"/>
</g>
<!-- Node3&#45;&gt;Node7 -->
<g id="edge10" class="edge">
<title>Node3&#45;&gt;Node7</title>
<path fill="none" stroke="#191970" d="M605.8526,-173.8845C584.7802,-153.9167 536.0522,-107.743 509.6942,-82.7667"/>
<polygon fill="#191970" stroke="#191970" points="511.9538,-80.0861 502.2877,-75.7484 507.139,-85.1672 511.9538,-80.0861"/>
</g>
<!-- Node5 -->
<g id="node6" class="node">
<title>Node5</title>
<polygon fill="none" stroke="#bfbfbf" points="492.5,-.5 492.5,-19.5 545.5,-19.5 545.5,-.5 492.5,-.5"/>
<text text-anchor="middle" x="519" y="-7.5" font-family="FreeSans.ttf" font-size="10.00" fill="#000000">cstddef</text>
</g>
<!-- Node4&#45;&gt;Node5 -->
<g id="edge5" class="edge">
<title>Node4&#45;&gt;Node5</title>
<path fill="none" stroke="#191970" d="M586.7167,-56.2455C574.253,-47.7337 555.9549,-35.2375 541.5208,-25.3801"/>
<polygon fill="#191970" stroke="#191970" points="543.3515,-22.392 533.1196,-19.6427 539.4038,-28.1726 543.3515,-22.392"/>
</g>
<!-- Node6&#45;&gt;Node5 -->
<g id="edge8" class="edge">
<title>Node6&#45;&gt;Node5</title>
<path fill="none" stroke="#191970" d="M424.743,-112.2343C430.3039,-98.59 441.7523,-73.5289 457,-56 467.3743,-44.0736 481.3486,-33.3731 493.4042,-25.3001"/>
<polygon fill="#191970" stroke="#191970" points="495.6458,-28.0195 502.1577,-19.6621 491.8553,-22.1346 495.6458,-28.0195"/>
</g>
<!-- Node6&#45;&gt;Node7 -->
<g id="edge7" class="edge">
<title>Node6&#45;&gt;Node7</title>
<path fill="none" stroke="#191970" d="M433.3673,-112.2455C443.9554,-103.8943 459.4064,-91.7076 471.7893,-81.9408"/>
<polygon fill="#191970" stroke="#191970" points="474.0903,-84.5837 479.7745,-75.6427 469.7553,-79.0875 474.0903,-84.5837"/>
</g>
<!-- Node17&#45;&gt;Node2 -->
<g id="edge12" class="edge">
<title>Node17&#45;&gt;Node2</title>
<path fill="none" stroke="#191970" d="M2890.1629,-369.2793C2880.1336,-348.198 2858,-296.4665 2858,-250.5 2858,-250.5 2858,-250.5 2858,-183.5 2858,-142.0158 2835.0861,-130.5893 2798,-112 2727.5787,-76.7016 2162.3192,-67.9785 2019.6236,-66.3302"/>
<polygon fill="#191970" stroke="#191970" points="2019.3861,-62.8274 2009.3476,-66.2155 2019.3079,-69.827 2019.3861,-62.8274"/>
</g>
<!-- Node18&#45;&gt;Node2 -->
<g id="edge15" class="edge">
<title>Node18&#45;&gt;Node2</title>
<path fill="none" stroke="#191970" d="M2267.2401,-369.3353C2265.6256,-347.939 2262,-294.9433 2262,-250.5 2262,-250.5 2262,-250.5 2262,-183.5 2262,-138.402 2229.5257,-133.7151 2190,-112 2134.9342,-81.7473 2061.0297,-71.3696 2019.2753,-67.8245"/>
<polygon fill="#191970" stroke="#191970" points="2019.3745,-64.3219 2009.1357,-67.0455 2018.8382,-71.3014 2019.3745,-64.3219"/>
</g>
<!-- Node19&#45;&gt;Node17 -->
<g id="edge17" class="edge">
<title>Node19&#45;&gt;Node17</title>
<path fill="none" stroke="#191970" d="M2919.0899,-425.2977C2914.7868,-417.0277 2909.4242,-406.7215 2904.8518,-397.9339"/>
<polygon fill="#191970" stroke="#191970" points="2907.8443,-396.1024 2900.1236,-388.8469 2901.6346,-399.3335 2907.8443,-396.1024"/>
</g>
<!-- Node20&#45;&gt;Node18 -->
<g id="edge50" class="edge">
<title>Node20&#45;&gt;Node18</title>
<path fill="none" stroke="#191970" d="M1178.6008,-437.7432C1387.0079,-429.9195 1973.6037,-407.0321 2188.4551,-389.0554"/>
<polygon fill="#191970" stroke="#191970" points="2189.0442,-392.5178 2198.7086,-388.1762 2188.4462,-385.5434 2189.0442,-392.5178"/>
</g>
<!-- Node20&#45;&gt;Node21 -->
<g id="edge19" class="edge">
<title>Node20&#45;&gt;Node21</title>
<path fill="none" stroke="#191970" d="M1163.4235,-430.9581C1232.1543,-419.9217 1345.1412,-401.7789 1417.7793,-390.1151"/>
<polygon fill="#191970" stroke="#191970" points="1418.4336,-393.5549 1427.7522,-388.5137 1417.3238,-386.6435 1418.4336,-393.5549"/>
</g>
<!-- Node20&#45;&gt;Node31 -->
<g id="edge39" class="edge">
<title>Node20&#45;&gt;Node31</title>
<path fill="none" stroke="#191970" d="M1109.1789,-430.8484C1120.119,-410.4601 1145.7446,-362.7033 1159.9949,-336.1459"/>
<polygon fill="#191970" stroke="#191970" points="1163.201,-337.5733 1164.8451,-327.1068 1157.0329,-334.2635 1163.201,-337.5733"/>
</g>
<!-- Node20&#45;&gt;Node41 -->
<g id="edge42" class="edge">
<title>Node20&#45;&gt;Node41</title>
<path fill="none" stroke="#191970" d="M1083.6049,-430.9024C1050.9627,-415.8648 984.6802,-386.6493 926,-369 866.5943,-351.1324 797.4279,-337.4491 746.763,-328.6933"/>
<polygon fill="#191970" stroke="#191970" points="747.3313,-325.2398 736.8851,-327.0081 746.154,-332.1401 747.3313,-325.2398"/>
</g>
<!-- Node20&#45;&gt;Node42 -->
<g id="edge44" class="edge">
<title>Node20&#45;&gt;Node42</title>
<path fill="none" stroke="#191970" d="M1094.7407,-430.8484C1074.7504,-410.011 1027.3347,-360.5862 1002.2345,-334.4224"/>
<polygon fill="#191970" stroke="#191970" points="1004.6648,-331.9 995.2162,-327.1068 999.6135,-336.746 1004.6648,-331.9"/>
</g>
<!-- Node47 -->
<g id="node26" class="node">
<title>Node47</title>
<g id="a_node26"><a xlink:href="ArticulatedBodyInertia_8h.html" target="_top" xlink:title="iDynTree/Core/Articulated\lBodyInertia.h">
<polygon fill="none" stroke="#000000" points="873.5,-168.5 873.5,-198.5 1014.5,-198.5 1014.5,-168.5 873.5,-168.5"/>
<text text-anchor="start" x="881.5" y="-186.5" font-family="FreeSans.ttf" font-size="10.00" fill="#000000">iDynTree/Core/Articulated</text>
<text text-anchor="middle" x="944" y="-175.5" font-family="FreeSans.ttf" font-size="10.00" fill="#000000">BodyInertia.h</text>
</a>
</g>
</g>
<!-- Node20&#45;&gt;Node47 -->
<g id="edge47" class="edge">
<title>Node20&#45;&gt;Node47</title>
<path fill="none" stroke="#191970" d="M1102.7105,-430.7782C1099.2474,-407.2158 1088.1744,-345.7787 1062,-302 1038.5068,-262.7058 999.1847,-226.8588 972.4475,-205.121"/>
<polygon fill="#191970" stroke="#191970" points="974.5827,-202.347 964.5852,-198.8396 970.2133,-207.816 974.5827,-202.347"/>
</g>
<!-- Node48 -->
<g id="node27" class="node">
<title>Node48</title>
<polygon fill="none" stroke="#bfbfbf" points="1616.5,-369.5 1616.5,-388.5 1663.5,-388.5 1663.5,-369.5 1616.5,-369.5"/>
<text text-anchor="middle" x="1640" y="-376.5" font-family="FreeSans.ttf" font-size="10.00" fill="#000000">vector</text>
</g>
<!-- Node20&#45;&gt;Node48 -->
<g id="edge51" class="edge">
<title>Node20&#45;&gt;Node48</title>
<path fill="none" stroke="#191970" d="M1178.5754,-432.9281C1270.4852,-423.4377 1431.3962,-406.3066 1569,-389 1581.2272,-387.4622 1594.6156,-385.6182 1606.4385,-383.9349"/>
<polygon fill="#191970" stroke="#191970" points="1606.9567,-387.3965 1616.3567,-382.5088 1605.9603,-380.4678 1606.9567,-387.3965"/>
</g>
<!-- Node21&#45;&gt;Node2 -->
<g id="edge38" class="edge">
<title>Node21&#45;&gt;Node2</title>
<path fill="none" stroke="#191970" d="M1560.0913,-370.5065C1564.7971,-369.9881 1569.4644,-369.4819 1574,-369 1737.8564,-351.5913 1787.863,-388.5384 1943,-333 2003.5902,-311.309 2062,-314.8559 2062,-250.5 2062,-250.5 2062,-250.5 2062,-183.5 2062,-142.1168 2028.5363,-103.5926 2006.3144,-82.5723"/>
<polygon fill="#191970" stroke="#191970" points="2008.4665,-79.7982 1998.7188,-75.6471 2003.7503,-84.971 2008.4665,-79.7982"/>
</g>
<!-- Node22 -->
<g id="node14" class="node">
<title>Node22</title>
<g id="a_node14"><a xlink:href="Position_8h.html" target="_top" xlink:title="iDynTree/Core/Position.h">
<polygon fill="none" stroke="#ff0000" points="1777,-308 1777,-327 1913,-327 1913,-308 1777,-308"/>
<text text-anchor="middle" x="1845" y="-315" font-family="FreeSans.ttf" font-size="10.00" fill="#000000">iDynTree/Core/Position.h</text>
</a>
</g>
</g>
<!-- Node21&#45;&gt;Node22 -->
<g id="edge20" class="edge">
<title>Node21&#45;&gt;Node22</title>
<path fill="none" stroke="#191970" d="M1542.5447,-369.4581C1606.5264,-358.4668 1711.5377,-340.4272 1779.4626,-328.7585"/>
<polygon fill="#191970" stroke="#191970" points="1780.3565,-332.1563 1789.6196,-327.0137 1779.1713,-325.2574 1780.3565,-332.1563"/>
</g>
<!-- Node21&#45;&gt;Node25 -->
<g id="edge34" class="edge">
<title>Node21&#45;&gt;Node25</title>
<path fill="none" stroke="#191970" d="M1560.2407,-370.0129C1609.5045,-362.537 1668.6748,-350.3089 1687,-333 1704.143,-316.8078 1709.2656,-289.1536 1710.6764,-270.3681"/>
<polygon fill="#191970" stroke="#191970" points="1714.1789,-270.3939 1711.1453,-260.2426 1707.1864,-270.07 1714.1789,-270.3939"/>
</g>
<!-- Node27 -->
<g id="node17" class="node">
<title>Node27</title>
<g id="a_node17"><a xlink:href="MatrixFixSize_8h.html" target="_top" xlink:title="iDynTree/Core/MatrixFixSize.h">
<polygon fill="none" stroke="#ff0000" points="707.5,-112.5 707.5,-131.5 868.5,-131.5 868.5,-112.5 707.5,-112.5"/>
<text text-anchor="middle" x="788" y="-119.5" font-family="FreeSans.ttf" font-size="10.00" fill="#000000">iDynTree/Core/MatrixFixSize.h</text>
</a>
</g>
</g>
<!-- Node21&#45;&gt;Node27 -->
<g id="edge37" class="edge">
<title>Node21&#45;&gt;Node27</title>
<path fill="none" stroke="#191970" d="M1560.1435,-370.2678C1618.2211,-360.3147 1684.9391,-340.2119 1654,-302 1557.1324,-182.3619 1080.832,-139.714 878.8297,-126.844"/>
<polygon fill="#191970" stroke="#191970" points="879.0364,-123.3501 868.8369,-126.2174 878.5982,-130.3364 879.0364,-123.3501"/>
</g>
<!-- Node30 -->
<g id="node20" class="node">
<title>Node30</title>
<g id="a_node20"><a xlink:href="TransformSemantics_8h.html" target="_top" xlink:title="iDynTree/Core/TransformSemantics.h">
<polygon fill="none" stroke="#000000" points="1836.5,-241 1836.5,-260 2033.5,-260 2033.5,-241 1836.5,-241"/>
<text text-anchor="middle" x="1935" y="-248" font-family="FreeSans.ttf" font-size="10.00" fill="#000000">iDynTree/Core/TransformSemantics.h</text>
</a>
</g>
</g>
<!-- Node21&#45;&gt;Node30 -->
<g id="edge35" class="edge">
<title>Node21&#45;&gt;Node30</title>
<path fill="none" stroke="#191970" d="M1560.0946,-370.5374C1564.7997,-370.0115 1569.4659,-369.4951 1574,-369 1651.2867,-360.5609 1865.5823,-386.4929 1922,-333 1938.7212,-317.1457 1939.6919,-289.1831 1938.0235,-270.2548"/>
<polygon fill="#191970" stroke="#191970" points="1941.4676,-269.5801 1936.7982,-260.0697 1934.5177,-270.4162 1941.4676,-269.5801"/>
</g>
<!-- Node22&#45;&gt;Node2 -->
<g id="edge33" class="edge">
<title>Node22&#45;&gt;Node2</title>
<path fill="none" stroke="#191970" d="M1839.3688,-307.529C1831.2038,-291.6898 1818.0828,-260.0137 1828,-235 1835.5008,-216.0811 1930.2329,-121.726 1969.8074,-82.8169"/>
<polygon fill="#191970" stroke="#191970" points="1972.4684,-85.1095 1977.1548,-75.6074 1967.5657,-80.113 1972.4684,-85.1095"/>
</g>
<!-- Node22&#45;&gt;Node25 -->
<g id="edge21" class="edge">
<title>Node22&#45;&gt;Node25</title>
<path fill="none" stroke="#191970" d="M1825.8011,-307.9005C1803.1138,-296.5569 1765.1687,-277.5844 1739.1565,-264.5783"/>
<polygon fill="#191970" stroke="#191970" points="1740.6729,-261.4234 1730.1633,-260.0817 1737.5423,-267.6843 1740.6729,-261.4234"/>
</g>
<!-- Node25&#45;&gt;Node2 -->
<g id="edge22" class="edge">
<title>Node25&#45;&gt;Node2</title>
<path fill="none" stroke="#191970" d="M1726.0661,-240.8596C1742.1675,-230.5431 1768.4285,-213.6779 1791,-199 1836.4701,-169.4314 1848.1332,-162.4761 1893,-132 1918.0619,-114.9765 1946.4865,-94.9116 1965.4541,-81.4121"/>
<polygon fill="#191970" stroke="#191970" points="1967.593,-84.1857 1973.7034,-75.5304 1963.5292,-78.486 1967.593,-84.1857"/>
</g>
<!-- Node25&#45;&gt;Node3 -->
<g id="edge32" class="edge">
<title>Node25&#45;&gt;Node3</title>
<path fill="none" stroke="#191970" d="M1665.941,-240.9201C1653.6845,-238.6335 1640.3764,-236.4407 1628,-235 1290.7886,-195.7468 1203.9814,-217.5465 865,-199 812.6207,-196.1342 754.0708,-192.5108 706.9126,-189.488"/>
<polygon fill="#191970" stroke="#191970" points="706.9267,-185.9818 696.7227,-188.8328 706.4775,-192.9673 706.9267,-185.9818"/>
</g>
<!-- Node26 -->
<g id="node16" class="node">
<title>Node26</title>
<g id="a_node16"><a xlink:href="RotationRaw_8h.html" target="_top" xlink:title="iDynTree/Core/RotationRaw.h">
<polygon fill="none" stroke="#000000" points="1604,-174 1604,-193 1762,-193 1762,-174 1604,-174"/>
<text text-anchor="middle" x="1683" y="-181" font-family="FreeSans.ttf" font-size="10.00" fill="#000000">iDynTree/Core/RotationRaw.h</text>
</a>
</g>
</g>
<!-- Node25&#45;&gt;Node26 -->
<g id="edge23" class="edge">
<title>Node25&#45;&gt;Node26</title>
<path fill="none" stroke="#191970" d="M1706.9883,-240.9005C1702.8298,-230.95 1696.2182,-215.1292 1690.9883,-202.6147"/>
<polygon fill="#191970" stroke="#191970" points="1694.0896,-200.9588 1687.0043,-193.0817 1687.6309,-203.658 1694.0896,-200.9588"/>
</g>
<!-- Node29 -->
<g id="node19" class="node">
<title>Node29</title>
<g id="a_node19"><a xlink:href="RotationSemantics_8h.html" target="_top" xlink:title="iDynTree/Core/RotationSemantics.h">
<polygon fill="none" stroke="#000000" points="1696,-112.5 1696,-131.5 1884,-131.5 1884,-112.5 1696,-112.5"/>
<text text-anchor="middle" x="1790" y="-119.5" font-family="FreeSans.ttf" font-size="10.00" fill="#000000">iDynTree/Core/RotationSemantics.h</text>
</a>
</g>
</g>
<!-- Node25&#45;&gt;Node29 -->
<g id="edge30" class="edge">
<title>Node25&#45;&gt;Node29</title>
<path fill="none" stroke="#191970" d="M1726.9765,-240.8847C1740.7099,-231.789 1759.9914,-216.8871 1771,-199 1781.7892,-181.4694 1786.4567,-158.1541 1788.4729,-141.789"/>
<polygon fill="#191970" stroke="#191970" points="1791.9665,-142.027 1789.4878,-131.7263 1785.0019,-141.3245 1791.9665,-142.027"/>
</g>
<!-- Node26&#45;&gt;Node2 -->
<g id="edge29" class="edge">
<title>Node26&#45;&gt;Node2</title>
<path fill="none" stroke="#191970" d="M1680.1218,-173.7329C1676.283,-158.4631 1671.6212,-128.9353 1687,-112 1704.852,-92.3411 1880.61,-75.1196 1954.5199,-68.6868"/>
<polygon fill="#191970" stroke="#191970" points="1954.9907,-72.1593 1964.6547,-67.8169 1954.392,-65.185 1954.9907,-72.1593"/>
</g>
<!-- Node26&#45;&gt;Node27 -->
<g id="edge24" class="edge">
<title>Node26&#45;&gt;Node27</title>
<path fill="none" stroke="#191970" d="M1631.9731,-173.978C1618.3748,-171.7195 1603.6646,-169.5261 1590,-168 1333.0769,-139.3063 1027.7341,-128.0482 878.7962,-124.0201"/>
<polygon fill="#191970" stroke="#191970" points="878.8695,-120.5209 868.7799,-123.7537 878.6833,-127.5184 878.8695,-120.5209"/>
</g>
<!-- Node27&#45;&gt;Node2 -->
<g id="edge27" class="edge">
<title>Node27&#45;&gt;Node2</title>
<path fill="none" stroke="#191970" d="M868.6171,-114.4726C879.8237,-113.5593 891.1949,-112.7026 902,-112 1317.3998,-84.9888 1823.3446,-70.3529 1954.6505,-66.8381"/>
<polygon fill="#191970" stroke="#191970" points="1954.9223,-70.3323 1964.8259,-66.5681 1954.7365,-63.3347 1954.9223,-70.3323"/>
</g>
<!-- Node27&#45;&gt;Node4 -->
<g id="edge25" class="edge">
<title>Node27&#45;&gt;Node4</title>
<path fill="none" stroke="#191970" d="M755.8536,-112.3733C724.4891,-102.9807 676.6335,-88.6496 642.4284,-78.4064"/>
<polygon fill="#191970" stroke="#191970" points="643.3107,-75.0171 632.727,-75.5011 641.3025,-81.7229 643.3107,-75.0171"/>
</g>
<!-- Node27&#45;&gt;Node7 -->
<g id="edge26" class="edge">
<title>Node27&#45;&gt;Node7</title>
<path fill="none" stroke="#191970" d="M729.5689,-112.4978C677.7562,-103.825 600.1119,-90.2239 533,-76 531.5217,-75.6867 530.0155,-75.3589 528.4954,-75.0211"/>
<polygon fill="#191970" stroke="#191970" points="528.9435,-71.5326 518.4123,-72.6919 527.3679,-78.3529 528.9435,-71.5326"/>
</g>
<!-- Node27&#45;&gt;Node28 -->
<g id="edge28" class="edge">
<title>Node27&#45;&gt;Node28</title>
<path fill="none" stroke="#191970" d="M707.2723,-114.3893C578.4226,-102.2419 330.9586,-78.9119 234.1876,-69.7887"/>
<polygon fill="#191970" stroke="#191970" points="234.507,-66.3034 224.2227,-68.8493 233.85,-73.2725 234.507,-66.3034"/>
</g>
<!-- Node29&#45;&gt;Node2 -->
<g id="edge31" class="edge">
<title>Node29&#45;&gt;Node2</title>
<path fill="none" stroke="#191970" d="M1823.8655,-112.3733C1860.6119,-101.9276 1918.8455,-85.3739 1954.8898,-75.1278"/>
<polygon fill="#191970" stroke="#191970" points="1956.2113,-78.3909 1964.8732,-72.2899 1954.2972,-71.6576 1956.2113,-78.3909"/>
</g>
<!-- Node30&#45;&gt;Node2 -->
<g id="edge36" class="edge">
<title>Node30&#45;&gt;Node2</title>
<path fill="none" stroke="#191970" d="M1941.3069,-240.642C1947.4779,-230.5607 1956.6997,-214.258 1962,-199 1975.4988,-160.1411 1982.2273,-112.2221 1985.132,-85.8136"/>
<polygon fill="#191970" stroke="#191970" points="1988.6407,-85.907 1986.1798,-75.6019 1981.6772,-85.1924 1988.6407,-85.907"/>
</g>
<!-- Node32 -->
<g id="node22" class="node">
<title>Node32</title>
<g id="a_node22"><a xlink:href="SpatialMotionVector_8h.html" target="_top" xlink:title="iDynTree/Core/SpatialMotion\lVector.h">
<polygon fill="none" stroke="#ff0000" points="601.5,-235.5 601.5,-265.5 756.5,-265.5 756.5,-235.5 601.5,-235.5"/>
<text text-anchor="start" x="609.5" y="-253.5" font-family="FreeSans.ttf" font-size="10.00" fill="#000000">iDynTree/Core/SpatialMotion</text>
<text text-anchor="middle" x="679" y="-242.5" font-family="FreeSans.ttf" font-size="10.00" fill="#000000">Vector.h</text>
</a>
</g>
</g>
<!-- Node31&#45;&gt;Node32 -->
<g id="edge40" class="edge">
<title>Node31&#45;&gt;Node32</title>
<path fill="none" stroke="#191970" d="M1108.8992,-308.6344C1093.5894,-306.4395 1077.197,-304.1122 1062,-302 960.8803,-287.9455 844.6519,-272.4032 767.0037,-262.1076"/>
<polygon fill="#191970" stroke="#191970" points="767.1563,-258.5973 756.7831,-260.7532 766.2366,-265.5367 767.1563,-258.5973"/>
</g>
<!-- Node32&#45;&gt;Node3 -->
<g id="edge41" class="edge">
<title>Node32&#45;&gt;Node3</title>
<path fill="none" stroke="#191970" d="M664.7043,-235.2967C654.9839,-224.9591 642.1106,-211.2684 632.0403,-200.5588"/>
<polygon fill="#191970" stroke="#191970" points="634.3846,-197.9426 624.9845,-193.055 629.285,-202.7378 634.3846,-197.9426"/>
</g>
<!-- Node41&#45;&gt;Node32 -->
<g id="edge43" class="edge">
<title>Node41&#45;&gt;Node32</title>
<path fill="none" stroke="#191970" d="M675.5731,-307.9005C676.074,-299.5099 676.8242,-286.9451 677.495,-275.7085"/>
<polygon fill="#191970" stroke="#191970" points="681.0009,-275.7126 678.1032,-265.5218 674.0134,-275.2954 681.0009,-275.7126"/>
</g>
<!-- Node43 -->
<g id="node25" class="node">
<title>Node43</title>
<g id="a_node25"><a xlink:href="SpatialForceVector_8h.html" target="_top" xlink:title="iDynTree/Core/SpatialForce\lVector.h">
<polygon fill="none" stroke="#ff0000" points="817,-235.5 817,-265.5 965,-265.5 965,-235.5 817,-235.5"/>
<text text-anchor="start" x="825" y="-253.5" font-family="FreeSans.ttf" font-size="10.00" fill="#000000">iDynTree/Core/SpatialForce</text>
<text text-anchor="middle" x="891" y="-242.5" font-family="FreeSans.ttf" font-size="10.00" fill="#000000">Vector.h</text>
</a>
</g>
</g>
<!-- Node42&#45;&gt;Node43 -->
<g id="edge45" class="edge">
<title>Node42&#45;&gt;Node43</title>
<path fill="none" stroke="#191970" d="M972.3888,-307.9005C959.0198,-298.4718 938.1774,-283.7725 920.9315,-271.6096"/>
<polygon fill="#191970" stroke="#191970" points="922.4888,-268.425 912.2995,-265.5218 918.4544,-274.1455 922.4888,-268.425"/>
</g>
<!-- Node43&#45;&gt;Node3 -->
<g id="edge46" class="edge">
<title>Node43&#45;&gt;Node3</title>
<path fill="none" stroke="#191970" d="M829.2846,-235.4639C779.6704,-223.3761 710.9119,-206.624 665.0169,-195.4423"/>
<polygon fill="#191970" stroke="#191970" points="665.5586,-191.972 655.0142,-193.0053 663.9015,-198.773 665.5586,-191.972"/>
</g>
<!-- Node47&#45;&gt;Node2 -->
<g id="edge49" class="edge">
<title>Node47&#45;&gt;Node2</title>
<path fill="none" stroke="#191970" d="M956.2661,-168.4611C971.3345,-151.2457 998.6596,-123.896 1029,-112 1116.6157,-77.6472 1796.5995,-68.0945 1954.3791,-66.3305"/>
<polygon fill="#191970" stroke="#191970" points="1954.8602,-69.8256 1964.8215,-66.2167 1954.7839,-62.826 1954.8602,-69.8256"/>
</g>
<!-- Node47&#45;&gt;Node27 -->
<g id="edge48" class="edge">
<title>Node47&#45;&gt;Node27</title>
<path fill="none" stroke="#191970" d="M905.8381,-168.4554C880.0374,-158.284 846.2874,-144.9787 821.5222,-135.2155"/>
<polygon fill="#191970" stroke="#191970" points="822.7613,-131.9419 812.1745,-131.5303 820.194,-138.4541 822.7613,-131.9419"/>
</g>
<!-- Node49&#45;&gt;Node3 -->
<g id="edge53" class="edge">
<title>Node49&#45;&gt;Node3</title>
<path fill="none" stroke="#191970" d="M149.0412,-615.0264C164.3102,-578.326 221.7714,-448.7825 303,-369 389.0171,-284.5142 520.7688,-222.8904 582.2367,-197.0042"/>
<polygon fill="#191970" stroke="#191970" points="583.9393,-200.0868 591.829,-193.0155 581.2516,-193.6234 583.9393,-200.0868"/>
</g>
<!-- Node50&#45;&gt;Node2 -->
<g id="edge57" class="edge">
<title>Node50&#45;&gt;Node2</title>
<path fill="none" stroke="#191970" d="M811.7191,-369.434C830.49,-353.1802 871.1199,-320.1714 911,-302 1228.618,-157.277 1330.5733,-179.6012 1673,-112 1775.0674,-91.8501 1897.4024,-76.3984 1954.5727,-69.6771"/>
<polygon fill="#191970" stroke="#191970" points="1955.2634,-73.1204 1964.7915,-68.4874 1954.4539,-66.1673 1955.2634,-73.1204"/>
</g>
<!-- Node50&#45;&gt;Node6 -->
<g id="edge56" class="edge">
<title>Node50&#45;&gt;Node6</title>
<path fill="none" stroke="#191970" d="M723.1643,-369.4631C667.2409,-361.4739 597.5608,-348.84 573,-333 497.1001,-284.0499 447.0046,-182.7577 428.7321,-140.8179"/>
<polygon fill="#191970" stroke="#191970" points="431.9063,-139.3382 424.7758,-131.502 425.4633,-142.0745 431.9063,-139.3382"/>
</g>
<!-- Node51&#45;&gt;Node3 -->
<g id="edge65" class="edge">
<title>Node51&#45;&gt;Node3</title>
<path fill="none" stroke="#191970" d="M1361.2802,-369.4839C1408.9442,-357.6496 1472.5346,-334.9091 1444,-302 1396.1425,-246.8057 911.9258,-205.1645 706.9168,-189.8725"/>
<polygon fill="#191970" stroke="#191970" points="707.0077,-186.3697 696.7762,-189.1206 706.49,-193.3505 707.0077,-186.3697"/>
</g>
<!-- Node51&#45;&gt;Node31 -->
<g id="edge66" class="edge">
<title>Node51&#45;&gt;Node31</title>
<path fill="none" stroke="#191970" d="M1292.3438,-369.3906C1268.0826,-359.1005 1229.3882,-342.6888 1202.02,-331.0809"/>
<polygon fill="#191970" stroke="#191970" points="1203.07,-327.7245 1192.4972,-327.0419 1200.3367,-334.1688 1203.07,-327.7245"/>
</g>
<!-- Node51&#45;&gt;Node41 -->
<g id="edge69" class="edge">
<title>Node51&#45;&gt;Node41</title>
<path fill="none" stroke="#191970" d="M1233.9436,-371.211C1112.24,-359.516 883.4043,-337.5264 759.6372,-325.6331"/>
<polygon fill="#191970" stroke="#191970" points="759.7418,-322.1271 749.4528,-324.6544 759.0721,-329.095 759.7418,-322.1271"/>
</g>
<!-- Node51&#45;&gt;Node42 -->
<g id="edge70" class="edge">
<title>Node51&#45;&gt;Node42</title>
<path fill="none" stroke="#191970" d="M1263.9547,-369.4581C1205.3974,-358.512 1109.4431,-340.5752 1046.9993,-328.9026"/>
<polygon fill="#191970" stroke="#191970" points="1047.3672,-325.4108 1036.8943,-327.0137 1046.0809,-332.2916 1047.3672,-325.4108"/>
</g>
<!-- Node52 -->
<g id="node31" class="node">
<title>Node52</title>
<g id="a_node31"><a xlink:href="SpatialInertiaRaw_8h.html" target="_top" xlink:title="iDynTree/Core/SpatialInertia\lRaw.h">
<polygon fill="none" stroke="#ff0000" points="1491.5,-302.5 1491.5,-332.5 1644.5,-332.5 1644.5,-302.5 1491.5,-302.5"/>
<text text-anchor="start" x="1499.5" y="-320.5" font-family="FreeSans.ttf" font-size="10.00" fill="#000000">iDynTree/Core/SpatialInertia</text>
<text text-anchor="middle" x="1568" y="-309.5" font-family="FreeSans.ttf" font-size="10.00" fill="#000000">Raw.h</text>
</a>
</g>
</g>
<!-- Node51&#45;&gt;Node52 -->
<g id="edge64" class="edge">
<title>Node51&#45;&gt;Node52</title>
<path fill="none" stroke="#191970" d="M1354.2537,-369.4581C1392.0113,-360.2799 1449.9879,-346.1867 1496.0385,-334.9926"/>
<polygon fill="#191970" stroke="#191970" points="1497.0798,-338.3415 1505.9701,-332.5784 1495.4263,-331.5396 1497.0798,-338.3415"/>
</g>
<!-- Node54 -->
<g id="node32" class="node">
<title>Node54</title>
<g id="a_node32"><a xlink:href="SpatialMomentum_8h.html" target="_top" xlink:title="iDynTree/Core/SpatialMomentum.h">
<polygon fill="none" stroke="#000000" points="1249,-308 1249,-327 1435,-327 1435,-308 1249,-308"/>
<text text-anchor="middle" x="1342" y="-315" font-family="FreeSans.ttf" font-size="10.00" fill="#000000">iDynTree/Core/SpatialMomentum.h</text>
</a>
</g>
</g>
<!-- Node51&#45;&gt;Node54 -->
<g id="edge67" class="edge">
<title>Node51&#45;&gt;Node54</title>
<path fill="none" stroke="#191970" d="M1319.2188,-369.3906C1323.0796,-360.5965 1328.9034,-347.3312 1333.6961,-336.4145"/>
<polygon fill="#191970" stroke="#191970" points="1336.9066,-337.8083 1337.7218,-327.2449 1330.4971,-334.9943 1336.9066,-337.8083"/>
</g>
<!-- Node54&#45;&gt;Node43 -->
<g id="edge68" class="edge">
<title>Node54&#45;&gt;Node43</title>
<path fill="none" stroke="#191970" d="M1279.7087,-307.961C1266.596,-305.9735 1252.8455,-303.9046 1240,-302 1129.3918,-285.6004 1101.5837,-282.5638 991,-266 985.9179,-265.2388 980.6917,-264.4492 975.4206,-263.6476"/>
<polygon fill="#191970" stroke="#191970" points="975.6685,-260.1449 965.2548,-262.0956 974.612,-267.0648 975.6685,-260.1449"/>
</g>
<!-- Node55&#45;&gt;Node3 -->
<g id="edge75" class="edge">
<title>Node55&#45;&gt;Node3</title>
<path fill="none" stroke="#191970" d="M577.4326,-430.601C585.6627,-416.6282 597.9565,-390.4332 590,-369 582.6518,-349.2053 566.3482,-352.7947 559,-333 543.8419,-292.1672 541.3184,-274.8051 559,-235 565.5786,-220.1902 578.7534,-207.837 590.7807,-198.9447"/>
<polygon fill="#191970" stroke="#191970" points="592.9972,-201.6671 599.2249,-193.0958 589.0114,-195.9127 592.9972,-201.6671"/>
</g>
<!-- Node55&#45;&gt;Node4 -->
<g id="edge81" class="edge">
<title>Node55&#45;&gt;Node4</title>
<path fill="none" stroke="#191970" d="M564.4832,-430.7903C541.247,-394.89 465.8809,-266.6418 505,-168 519.706,-130.9177 554.9841,-99.4768 578.4309,-81.6739"/>
<polygon fill="#191970" stroke="#191970" points="580.7917,-84.2821 586.7702,-75.5352 576.6419,-78.6447 580.7917,-84.2821"/>
</g>
<!-- Node55&#45;&gt;Node17 -->
<g id="edge76" class="edge">
<title>Node55&#45;&gt;Node17</title>
<path fill="none" stroke="#191970" d="M651.6784,-434.5098C698.9527,-431.2108 759.8345,-427.3252 814,-425 1013.6855,-416.4281 2422.3888,-388.3176 2801.3302,-380.8405"/>
<polygon fill="#191970" stroke="#191970" points="2801.5055,-384.3378 2811.4345,-380.6412 2801.3674,-377.3392 2801.5055,-384.3378"/>
</g>
<!-- Node55&#45;&gt;Node21 -->
<g id="edge80" class="edge">
<title>Node55&#45;&gt;Node21</title>
<path fill="none" stroke="#191970" d="M651.7197,-435.2932C699.0078,-432.2573 759.8896,-428.3738 814,-425 1073.3092,-408.8321 1141.2227,-412.8327 1403.4915,-389.0909"/>
<polygon fill="#191970" stroke="#191970" points="1404.0643,-392.5533 1413.7059,-388.1612 1403.4298,-385.5821 1404.0643,-392.5533"/>
</g>
<!-- Node55&#45;&gt;Node27 -->
<g id="edge77" class="edge">
<title>Node55&#45;&gt;Node27</title>
<path fill="none" stroke="#191970" d="M568.2924,-430.7907C563.1403,-412.0274 551.8319,-369.4233 545,-333 531.4004,-260.496 479.5803,-224.508 527,-168 548.6268,-142.2282 630.7189,-130.8897 697.1357,-125.9044"/>
<polygon fill="#191970" stroke="#191970" points="697.5038,-129.3872 707.23,-125.1858 697.0067,-122.4048 697.5038,-129.3872"/>
</g>
<!-- Node55&#45;&gt;Node32 -->
<g id="edge78" class="edge">
<title>Node55&#45;&gt;Node32</title>
<path fill="none" stroke="#191970" d="M497.109,-430.9036C450.2605,-421.3853 402.2487,-403.0932 424,-369 460.6107,-311.6161 532.9881,-281.588 591.3097,-266.1397"/>
<polygon fill="#191970" stroke="#191970" points="592.4528,-269.4605 601.2809,-263.6026 590.7266,-262.6767 592.4528,-269.4605"/>
</g>
<!-- Node55&#45;&gt;Node43 -->
<g id="edge79" class="edge">
<title>Node55&#45;&gt;Node43</title>
<path fill="none" stroke="#191970" d="M583.4463,-430.9055C602.6295,-416.3806 640.8863,-388.4461 676,-369 710.8191,-349.7171 723.4425,-352.7479 758,-333 778.4554,-321.3108 781.1929,-314.757 801,-302 818.1118,-290.9789 837.6637,-279.6474 854.1626,-270.4294"/>
<polygon fill="#191970" stroke="#191970" points="855.9309,-273.451 862.9797,-265.5412 852.5368,-267.329 855.9309,-273.451"/>
</g>
<!-- Node55&#45;&gt;Node50 -->
<g id="edge74" class="edge">
<title>Node55&#45;&gt;Node50</title>
<path fill="none" stroke="#191970" d="M606.6851,-430.9581C646.7193,-420.2533 711.7571,-402.8628 755.435,-391.1837"/>
<polygon fill="#191970" stroke="#191970" points="756.4747,-394.5287 765.2311,-388.5643 754.6664,-387.7663 756.4747,-394.5287"/>
</g>
<!-- Node56 -->
<g id="node34" class="node">
<title>Node56</title>
<polygon fill="none" stroke="#bfbfbf" points="432.5,-369.5 432.5,-388.5 509.5,-388.5 509.5,-369.5 432.5,-369.5"/>
<text text-anchor="middle" x="471" y="-376.5" font-family="FreeSans.ttf" font-size="10.00" fill="#000000">Eigen/Dense</text>
</g>
<!-- Node55&#45;&gt;Node56 -->
<g id="edge73" class="edge">
<title>Node55&#45;&gt;Node56</title>
<path fill="none" stroke="#191970" d="M555.375,-430.8906C539.2302,-420.9616 513.8178,-405.333 495.0977,-393.8201"/>
<polygon fill="#191970" stroke="#191970" points="496.8669,-390.7992 486.5153,-388.5419 493.1998,-396.7619 496.8669,-390.7992"/>
</g>
<!-- Node57&#45;&gt;Node18 -->
<g id="edge89" class="edge">
<title>Node57&#45;&gt;Node18</title>
<path fill="none" stroke="#191970" d="M1678.5853,-505.0514C1849.801,-498.4339 2293.5082,-479.1238 2315,-456 2332.2594,-437.4299 2308.8996,-411.5573 2289.3886,-395.0422"/>
<polygon fill="#191970" stroke="#191970" points="2291.3713,-392.1446 2281.3921,-388.5857 2286.9739,-397.591 2291.3713,-392.1446"/>
</g>
<!-- Node57&#45;&gt;Node21 -->
<g id="edge88" class="edge">
<title>Node57&#45;&gt;Node21</title>
<path fill="none" stroke="#191970" d="M1584.3443,-497.9304C1563.9244,-489.632 1536.7128,-475.8138 1519,-456 1504.279,-439.5328 1495.7384,-415.3424 1491.2404,-398.4845"/>
<polygon fill="#191970" stroke="#191970" points="1494.6059,-397.5113 1488.844,-388.6202 1487.8037,-399.1639 1494.6059,-397.5113"/>
</g>
<!-- Node57&#45;&gt;Node48 -->
<g id="edge96" class="edge">
<title>Node57&#45;&gt;Node48</title>
<path fill="none" stroke="#191970" d="M1583.0179,-497.9688C1563.9452,-490.0112 1540.4605,-476.5984 1529,-456 1522.3014,-443.9603 1521.3465,-436.4565 1529,-425 1538.044,-411.4622 1577.328,-397.3312 1606.6118,-388.3637"/>
<polygon fill="#191970" stroke="#191970" points="1607.9054,-391.6302 1616.4869,-385.4165 1605.9035,-384.9226 1607.9054,-391.6302"/>
</g>
<!-- Node58 -->
<g id="node36" class="node">
<title>Node58</title>
<g id="a_node36"><a xlink:href="IJoint_8h.html" target="_top" xlink:title="iDynTree/Model/IJoint.h">
<polygon fill="none" stroke="#000000" points="2362,-431 2362,-450 2490,-450 2490,-431 2362,-431"/>
<text text-anchor="middle" x="2426" y="-438" font-family="FreeSans.ttf" font-size="10.00" fill="#000000">iDynTree/Model/IJoint.h</text>
</a>
</g>
</g>
<!-- Node57&#45;&gt;Node58 -->
<g id="edge83" class="edge">
<title>Node57&#45;&gt;Node58</title>
<path fill="none" stroke="#191970" d="M1678.509,-505.6594C1807.9331,-501.4568 2102.4934,-488.849 2348,-456 2356.1722,-454.9066 2364.7762,-453.4798 2373.1659,-451.9347"/>
<polygon fill="#191970" stroke="#191970" points="2374.0854,-455.3224 2383.2497,-450.0058 2372.7702,-448.447 2374.0854,-455.3224"/>
</g>
<!-- Node59 -->
<g id="node37" class="node">
<title>Node59</title>
<g id="a_node37"><a xlink:href="Link_8h.html" target="_top" xlink:title="iDynTree/Model/Link.h">
<polygon fill="none" stroke="#000000" points="1538,-431 1538,-450 1662,-450 1662,-431 1538,-431"/>
<text text-anchor="middle" x="1600" y="-438" font-family="FreeSans.ttf" font-size="10.00" fill="#000000">iDynTree/Model/Link.h</text>
</a>
</g>
</g>
<!-- Node57&#45;&gt;Node59 -->
<g id="edge85" class="edge">
<title>Node57&#45;&gt;Node59</title>
<path fill="none" stroke="#191970" d="M1610.2807,-497.9005C1608.5163,-488.0495 1605.7215,-472.4451 1603.491,-459.9912"/>
<polygon fill="#191970" stroke="#191970" points="1606.9244,-459.308 1601.7161,-450.0817 1600.034,-460.5421 1606.9244,-459.308"/>
</g>
<!-- Node60 -->
<g id="node38" class="node">
<title>Node60</title>
<g id="a_node38"><a xlink:href="SolidShapes_8h.html" target="_top" xlink:title="iDynTree/Model/SolidShapes.h">
<polygon fill="none" stroke="#000000" points="1680.5,-431 1680.5,-450 1843.5,-450 1843.5,-431 1680.5,-431"/>
<text text-anchor="middle" x="1762" y="-438" font-family="FreeSans.ttf" font-size="10.00" fill="#000000">iDynTree/Model/SolidShapes.h</text>
</a>
</g>
</g>
<!-- Node57&#45;&gt;Node60 -->
<g id="edge90" class="edge">
<title>Node57&#45;&gt;Node60</title>
<path fill="none" stroke="#191970" d="M1633.4913,-497.9005C1659.1103,-486.4574 1702.1099,-467.2509 1731.2447,-454.2374"/>
<polygon fill="#191970" stroke="#191970" points="1732.8454,-457.3557 1740.5485,-450.0817 1729.9905,-450.9643 1732.8454,-457.3557"/>
</g>
<!-- Node61 -->
<g id="node39" class="node">
<title>Node61</title>
<polygon fill="none" stroke="#bfbfbf" points="2131.5,-369.5 2131.5,-388.5 2180.5,-388.5 2180.5,-369.5 2131.5,-369.5"/>
<text text-anchor="middle" x="2156" y="-376.5" font-family="FreeSans.ttf" font-size="10.00" fill="#000000">cstdlib</text>
</g>
<!-- Node57&#45;&gt;Node61 -->
<g id="edge95" class="edge">
<title>Node57&#45;&gt;Node61</title>
<path fill="none" stroke="#191970" d="M1660.6464,-497.9223C1709.4493,-488.1219 1786.682,-472.0899 1853,-456 1904.0262,-443.6202 1916.1326,-438.0172 1967,-425 2033.4195,-408.003 2050.459,-405.5148 2117,-389 2118.4416,-388.6422 2119.9126,-388.2749 2121.3982,-387.9022"/>
<polygon fill="#191970" stroke="#191970" points="2122.4221,-391.2534 2131.257,-385.4057 2120.7038,-384.4676 2122.4221,-391.2534"/>
</g>
<!-- Node58&#45;&gt;Node18 -->
<g id="edge84" class="edge">
<title>Node58&#45;&gt;Node18</title>
<path fill="none" stroke="#191970" d="M2401.3125,-430.8906C2374.6443,-420.5103 2331.9718,-403.9004 2302.1089,-392.2766"/>
<polygon fill="#191970" stroke="#191970" points="2303.1027,-388.9076 2292.5141,-388.5419 2300.5635,-395.4309 2303.1027,-388.9076"/>
</g>
<!-- Node59&#45;&gt;Node18 -->
<g id="edge87" class="edge">
<title>Node59&#45;&gt;Node18</title>
<path fill="none" stroke="#191970" d="M1639.4298,-430.9513C1649.9581,-428.693 1661.3656,-426.5064 1672,-425 1897.261,-393.0917 1958.6113,-411.1537 2188.6819,-389.0734"/>
<polygon fill="#191970" stroke="#191970" points="2189.088,-392.5505 2198.7012,-388.0968 2188.4089,-385.5835 2189.088,-392.5505"/>
</g>
<!-- Node59&#45;&gt;Node51 -->
<g id="edge86" class="edge">
<title>Node59&#45;&gt;Node51</title>
<path fill="none" stroke="#191970" d="M1555.7815,-430.9581C1505.5473,-420.1181 1423.5427,-402.4224 1369.4228,-390.7439"/>
<polygon fill="#191970" stroke="#191970" points="1369.8356,-387.2524 1359.3223,-388.5643 1368.359,-394.095 1369.8356,-387.2524"/>
</g>
<!-- Node60&#45;&gt;Node2 -->
<g id="edge92" class="edge">
<title>Node60&#45;&gt;Node2</title>
<path fill="none" stroke="#191970" d="M1804.6904,-430.9712C1886.8159,-412.079 2063.1809,-368.6217 2114,-333 2151.5587,-306.6732 2176,-296.3667 2176,-250.5 2176,-250.5 2176,-250.5 2176,-183.5 2176,-110.5129 2073.086,-81.2614 2019.1416,-70.9421"/>
<polygon fill="#191970" stroke="#191970" points="2019.5129,-67.4527 2009.0506,-69.1233 2018.2712,-74.3417 2019.5129,-67.4527"/>
</g>
<!-- Node60&#45;&gt;Node21 -->
<g id="edge94" class="edge">
<title>Node60&#45;&gt;Node21</title>
<path fill="none" stroke="#191970" d="M1719.333,-430.9581C1670.9622,-420.1406 1592.0631,-402.4959 1539.8393,-390.8168"/>
<polygon fill="#191970" stroke="#191970" points="1540.2899,-387.3312 1529.7671,-388.5643 1538.7622,-394.1624 1540.2899,-387.3312"/>
</g>
<!-- Node60&#45;&gt;Node48 -->
<g id="edge93" class="edge">
<title>Node60&#45;&gt;Node48</title>
<path fill="none" stroke="#191970" d="M1742.9375,-430.8906C1722.8828,-420.7811 1691.1066,-404.7628 1668.1616,-393.1962"/>
<polygon fill="#191970" stroke="#191970" points="1669.4337,-389.918 1658.9286,-388.5419 1666.2827,-396.1687 1669.4337,-389.918"/>
</g>
<!-- Node60&#45;&gt;Node61 -->
<g id="edge91" class="edge">
<title>Node60&#45;&gt;Node61</title>
<path fill="none" stroke="#191970" d="M1819.5852,-430.9914C1832.2331,-428.9619 1845.5621,-426.8683 1858,-425 1972.9284,-407.7367 2002.9749,-411.4686 2117,-389 2118.4573,-388.7128 2119.9414,-388.4044 2121.4378,-388.0803"/>
<polygon fill="#191970" stroke="#191970" points="2122.3946,-391.4512 2131.3383,-385.7714 2120.8047,-384.6341 2122.3946,-391.4512"/>
</g>
<!-- Node62&#45;&gt;Node18 -->
<g id="edge98" class="edge">
<title>Node62&#45;&gt;Node18</title>
<path fill="none" stroke="#191970" d="M2084.0625,-430.8906C2121.8977,-420.2169 2183.0806,-402.9566 2224.3885,-391.3033"/>
<polygon fill="#191970" stroke="#191970" points="2225.5027,-394.6256 2234.1767,-388.5419 2223.602,-387.8886 2225.5027,-394.6256"/>
</g>
<!-- Node62&#45;&gt;Node48 -->
<g id="edge99" class="edge">
<title>Node62&#45;&gt;Node48</title>
<path fill="none" stroke="#191970" d="M1986.3874,-430.9581C1898.4243,-417.7636 1742.7459,-394.4119 1674.1175,-384.1176"/>
<polygon fill="#191970" stroke="#191970" points="1674.2828,-380.6033 1663.8742,-382.5811 1673.2443,-387.5259 1674.2828,-380.6033"/>
</g>
<!-- Node63&#45;&gt;Node18 -->
<g id="edge104" class="edge">
<title>Node63&#45;&gt;Node18</title>
<path fill="none" stroke="#191970" d="M1292.2066,-504.3758C1443.709,-497.7844 1774.8573,-480.9774 1886,-456 1923.6084,-447.5482 1929.7351,-434.8568 1967,-425 1988.2184,-419.3876 2108.5806,-401.6982 2190.5231,-389.9631"/>
<polygon fill="#191970" stroke="#191970" points="2191.162,-393.4074 2200.5659,-388.5271 2190.1711,-386.4779 2191.162,-393.4074"/>
</g>
<!-- Node63&#45;&gt;Node20 -->
<g id="edge105" class="edge">
<title>Node63&#45;&gt;Node20</title>
<path fill="none" stroke="#191970" d="M1190.0894,-492.4639C1171.7167,-481.3741 1146.84,-466.3584 1128.5526,-455.32"/>
<polygon fill="#191970" stroke="#191970" points="1130.281,-452.2751 1119.911,-450.1039 1126.6636,-458.268 1130.281,-452.2751"/>
</g>
<!-- Node63&#45;&gt;Node21 -->
<g id="edge101" class="edge">
<title>Node63&#45;&gt;Node21</title>
<path fill="none" stroke="#191970" d="M1220.4537,-492.3769C1228.071,-473.5128 1243.7495,-441.712 1268,-425 1290.0138,-409.8294 1351.6556,-397.6752 1403.9533,-389.679"/>
<polygon fill="#191970" stroke="#191970" points="1404.5636,-393.1267 1413.9354,-388.185 1403.5275,-386.2038 1404.5636,-393.1267"/>
</g>
<!-- Node63&#45;&gt;Node31 -->
<g id="edge102" class="edge">
<title>Node63&#45;&gt;Node31</title>
<path fill="none" stroke="#191970" d="M1211.3935,-492.2727C1203.2691,-457.9695 1183.546,-374.6941 1174.5765,-336.8228"/>
<polygon fill="#191970" stroke="#191970" points="1177.9666,-335.95 1172.2561,-327.0258 1171.1551,-337.5633 1177.9666,-335.95"/>
</g>
<!-- Node63&#45;&gt;Node48 -->
<g id="edge111" class="edge">
<title>Node63&#45;&gt;Node48</title>
<path fill="none" stroke="#191970" d="M1247.3788,-492.3901C1287.2536,-474.2717 1357.4025,-443.9778 1420,-425 1484.683,-405.3899 1562.5556,-391.2572 1606.1549,-384.1677"/>
<polygon fill="#191970" stroke="#191970" points="1606.8924,-387.5943 1616.2139,-382.5586 1605.7866,-380.6822 1606.8924,-387.5943"/>
</g>
<!-- Node63&#45;&gt;Node50 -->
<g id="edge103" class="edge">
<title>Node63&#45;&gt;Node50</title>
<path fill="none" stroke="#191970" d="M1137.6835,-493.3221C1134.7541,-492.8621 1131.8518,-492.4195 1129,-492 1059.2945,-481.7461 865.1334,-504.4703 814,-456 798.7538,-441.5479 797.2014,-416.3805 798.3512,-398.7643"/>
<polygon fill="#191970" stroke="#191970" points="801.8452,-398.9975 799.349,-388.7009 794.8794,-398.3067 801.8452,-398.9975"/>
</g>
<!-- Node64 -->
<g id="node42" class="node">
<title>Node64</title>
<g id="a_node42"><a xlink:href="JointState_8h.html" target="_top" xlink:title="iDynTree/Model/JointState.h">
<polygon fill="none" stroke="#000000" points="822.5,-431 822.5,-450 973.5,-450 973.5,-431 822.5,-431"/>
<text text-anchor="middle" x="898" y="-438" font-family="FreeSans.ttf" font-size="10.00" fill="#000000">iDynTree/Model/JointState.h</text>
</a>
</g>
</g>
<!-- Node63&#45;&gt;Node64 -->
<g id="edge106" class="edge">
<title>Node63&#45;&gt;Node64</title>
<path fill="none" stroke="#191970" d="M1143.859,-492.4639C1086.0666,-480.2491 1005.74,-463.2716 952.8447,-452.0918"/>
<polygon fill="#191970" stroke="#191970" points="953.4804,-448.6489 942.9728,-450.0053 952.0328,-455.4976 953.4804,-448.6489"/>
</g>
<!-- Node64&#45;&gt;Node3 -->
<g id="edge107" class="edge">
<title>Node64&#45;&gt;Node3</title>
<path fill="none" stroke="#191970" d="M900.945,-430.6712C904.8753,-415.3169 909.6603,-385.6753 894,-369 801.4645,-270.4668 681.7464,-434.0801 592,-333 559.4002,-296.2833 587.1486,-233.5581 604.5363,-202.324"/>
<polygon fill="#191970" stroke="#191970" points="607.7436,-203.7698 609.728,-193.3624 601.6866,-200.2608 607.7436,-203.7698"/>
</g>
<!-- Node64&#45;&gt;Node43 -->
<g id="edge109" class="edge">
<title>Node64&#45;&gt;Node43</title>
<path fill="none" stroke="#191970" d="M905.1665,-430.8627C912.053,-420.953 921.9874,-404.781 926,-389 928.1905,-380.3852 927.7433,-377.7163 926,-369 922.6007,-352.0033 916.3918,-349.4734 911,-333 904.7949,-314.0418 899.5605,-292.0685 896.0049,-275.5679"/>
<polygon fill="#191970" stroke="#191970" points="899.3932,-274.6717 893.9174,-265.6017 892.5419,-276.1068 899.3932,-274.6717"/>
</g>
<!-- Node64&#45;&gt;Node48 -->
<g id="edge110" class="edge">
<title>Node64&#45;&gt;Node48</title>
<path fill="none" stroke="#191970" d="M967.8448,-430.9629C985.1902,-428.7973 1003.7529,-426.6517 1021,-425 1263.9689,-401.7312 1326.2071,-414.0381 1569,-389 1581.2586,-387.7358 1594.654,-385.9539 1606.4738,-384.2437"/>
<polygon fill="#191970" stroke="#191970" points="1607.0085,-387.7028 1616.3871,-382.7741 1605.9819,-380.7785 1607.0085,-387.7028"/>
</g>
<!-- Node64&#45;&gt;Node50 -->
<g id="edge108" class="edge">
<title>Node64&#45;&gt;Node50</title>
<path fill="none" stroke="#191970" d="M882.8438,-430.8906C867.3257,-421.0519 842.9807,-405.6167 824.8716,-394.1351"/>
<polygon fill="#191970" stroke="#191970" points="826.3696,-390.9407 816.0498,-388.5419 822.6213,-396.8526 826.3696,-390.9407"/>
</g>
<!-- Node65&#45;&gt;Node18 -->
<g id="edge115" class="edge">
<title>Node65&#45;&gt;Node18</title>
<path fill="none" stroke="#191970" d="M2234.8764,-425.2977C2240.9841,-416.7609 2248.6439,-406.0545 2255.0588,-397.0883"/>
<polygon fill="#191970" stroke="#191970" points="2257.9829,-399.0163 2260.955,-388.8469 2252.2899,-394.9433 2257.9829,-399.0163"/>
</g>
<!-- Node65&#45;&gt;Node48 -->
<g id="edge114" class="edge">
<title>Node65&#45;&gt;Node48</title>
<path fill="none" stroke="#191970" d="M2141.7024,-426.1952C2138.7678,-425.7766 2135.86,-425.3765 2133,-425 1960.8982,-402.3469 1753.5556,-386.8098 1673.6518,-381.2574"/>
<polygon fill="#191970" stroke="#191970" points="1673.8915,-377.7658 1663.6746,-380.5702 1673.4105,-384.7492 1673.8915,-377.7658"/>
</g>
<!-- Node66&#45;&gt;Node18 -->
<g id="edge117" class="edge">
<title>Node66&#45;&gt;Node18</title>
<path fill="none" stroke="#191970" d="M2433.3793,-559.4749C2475.8552,-536.2705 2574.0824,-475.049 2532,-425 2508.7062,-397.2965 2416.2004,-386.276 2347.2224,-381.8929"/>
<polygon fill="#191970" stroke="#191970" points="2347.4187,-378.3985 2337.227,-381.2932 2346.9994,-385.3859 2347.4187,-378.3985"/>
</g>
<!-- Node67&#45;&gt;Node18 -->
<g id="edge119" class="edge">
<title>Node67&#45;&gt;Node18</title>
<path fill="none" stroke="#191970" d="M1090.1564,-497.9505C1102.7082,-495.6638 1116.334,-493.4634 1129,-492 1289.0231,-473.5114 1704.7492,-519.0153 1853,-456 1871.5195,-448.1281 1867.7596,-433.4986 1886,-425 2006.4356,-368.8864 2052.7854,-403.9169 2188.7363,-389.0786"/>
<polygon fill="#191970" stroke="#191970" points="2189.1531,-392.5538 2198.6819,-387.9222 2188.3445,-385.6007 2189.1531,-392.5538"/>
</g>
<!-- Node67&#45;&gt;Node20 -->
<g id="edge120" class="edge">
<title>Node67&#45;&gt;Node20</title>
<path fill="none" stroke="#191970" d="M1052.5965,-497.9005C1061.953,-487.4525 1077.1052,-470.5325 1088.5401,-457.7635"/>
<polygon fill="#191970" stroke="#191970" points="1091.3555,-459.8661 1095.4194,-450.0817 1086.1408,-455.1963 1091.3555,-459.8661"/>
</g>
<!-- Node67&#45;&gt;Node64 -->
<g id="edge121" class="edge">
<title>Node67&#45;&gt;Node64</title>
<path fill="none" stroke="#191970" d="M1023.0818,-497.9005C998.2544,-486.5072 956.6567,-467.4178 928.3058,-454.4075"/>
<polygon fill="#191970" stroke="#191970" points="929.4279,-451.0715 918.8794,-450.0817 926.5083,-457.4336 929.4279,-451.0715"/>
</g>
<!-- Node68&#45;&gt;Node18 -->
<g id="edge123" class="edge">
<title>Node68&#45;&gt;Node18</title>
<path fill="none" stroke="#191970" d="M2606.4057,-559.4134C2604.2308,-533.227 2594.3654,-460.1053 2551,-425 2520.4232,-400.2474 2419.7155,-388.5246 2347.1375,-383.1779"/>
<polygon fill="#191970" stroke="#191970" points="2347.3161,-379.6818 2337.0934,-382.465 2346.8205,-386.6643 2347.3161,-379.6818"/>
</g>
<!-- Node69&#45;&gt;Node2 -->
<g id="edge133" class="edge">
<title>Node69&#45;&gt;Node2</title>
<path fill="none" stroke="#191970" d="M1578.3195,-617.0957C1864.2118,-590.3389 2746,-498.154 2746,-379 2746,-379 2746,-379 2746,-183.5 2746,-108.7824 2164.1595,-74.8287 2019.3397,-67.5349"/>
<polygon fill="#191970" stroke="#191970" points="2019.4655,-64.0369 2009.3044,-67.0371 2019.1187,-71.0283 2019.4655,-64.0369"/>
</g>
<!-- Node69&#45;&gt;Node48 -->
<g id="edge134" class="edge">
<title>Node69&#45;&gt;Node48</title>
<path fill="none" stroke="#191970" d="M1488.2934,-615.347C1483.3253,-583.9806 1472.0371,-483.5823 1519,-425 1524.7733,-417.7983 1572.9669,-400.896 1606.7584,-389.7093"/>
<polygon fill="#191970" stroke="#191970" points="1607.8814,-393.0245 1616.2896,-386.5784 1605.6967,-386.3741 1607.8814,-393.0245"/>
</g>
<!-- Node69&#45;&gt;Node57 -->
<g id="edge125" class="edge">
<title>Node69&#45;&gt;Node57</title>
<path fill="none" stroke="#191970" d="M1494.0407,-615.0681C1500.048,-601.2263 1512.4304,-575.932 1529,-559 1544.1115,-543.558 1564.7395,-530.7305 1581.6502,-521.74"/>
<polygon fill="#191970" stroke="#191970" points="1583.3033,-524.8257 1590.604,-517.1477 1580.1088,-518.5971 1583.3033,-524.8257"/>
</g>
<!-- Node70 -->
<g id="node48" class="node">
<title>Node70</title>
<g id="a_node48"><a xlink:href="Sensors_8h.html" target="_top" xlink:title="iDynTree/Sensors/Sensors.h">
<polygon fill="none" stroke="#ff0000" points="1292.5,-559.5 1292.5,-578.5 1443.5,-578.5 1443.5,-559.5 1292.5,-559.5"/>
<text text-anchor="middle" x="1368" y="-566.5" font-family="FreeSans.ttf" font-size="10.00" fill="#000000">iDynTree/Sensors/Sensors.h</text>
</a>
</g>
</g>
<!-- Node69&#45;&gt;Node70 -->
<g id="edge126" class="edge">
<title>Node69&#45;&gt;Node70</title>
<path fill="none" stroke="#191970" d="M1469.0275,-615.3733C1449.4433,-606.3838 1420.0039,-592.8706 1397.949,-582.7471"/>
<polygon fill="#191970" stroke="#191970" points="1399.2473,-579.4919 1388.6989,-578.5011 1396.3271,-585.8538 1399.2473,-579.4919"/>
</g>
<!-- Node71 -->
<g id="node49" class="node">
<title>Node71</title>
<polygon fill="none" stroke="#bfbfbf" points="1538,-559.5 1538,-578.5 1596,-578.5 1596,-559.5 1538,-559.5"/>
<text text-anchor="middle" x="1567" y="-566.5" font-family="FreeSans.ttf" font-size="10.00" fill="#000000">memory</text>
</g>
<!-- Node69&#45;&gt;Node71 -->
<g id="edge132" class="edge">
<title>Node69&#45;&gt;Node71</title>
<path fill="none" stroke="#191970" d="M1503.4124,-615.2455C1515.0057,-606.814 1531.9748,-594.4729 1545.4678,-584.6598"/>
<polygon fill="#191970" stroke="#191970" points="1547.7126,-587.355 1553.7413,-578.6427 1543.5953,-581.6938 1547.7126,-587.355"/>
</g>
<!-- Node70&#45;&gt;Node2 -->
<g id="edge127" class="edge">
<title>Node70&#45;&gt;Node2</title>
<path fill="none" stroke="#191970" d="M1368.3378,-559.1777C1369.8456,-532.3889 1378.0778,-457.8704 1423,-425 1476.9355,-385.5344 1506.4002,-412.4058 1569,-389 1587.246,-382.1779 1589.2918,-374.4277 1608,-369 1777.302,-319.8818 1840.4846,-401.2971 2003,-333 2055.1751,-311.0734 2100,-307.0952 2100,-250.5 2100,-250.5 2100,-250.5 2100,-183.5 2100,-135.2529 2049.8919,-99.1586 2016.4105,-80.4262"/>
<polygon fill="#191970" stroke="#191970" points="2017.9274,-77.2678 2007.4634,-75.6074 2014.6081,-83.4308 2017.9274,-77.2678"/>
</g>
<!-- Node70&#45;&gt;Node18 -->
<g id="edge131" class="edge">
<title>Node70&#45;&gt;Node18</title>
<path fill="none" stroke="#191970" d="M1443.8631,-564.2029C1691.6622,-548.1746 2463.4543,-495.2741 2499,-456 2508.2454,-445.7848 2507.7394,-435.6513 2499,-425 2479.9054,-401.7282 2406.3664,-390.0094 2347.3238,-384.2524"/>
<polygon fill="#191970" stroke="#191970" points="2347.5174,-380.7553 2337.2356,-383.312 2346.8676,-387.7251 2347.5174,-380.7553"/>
</g>
<!-- Node70&#45;&gt;Node48 -->
<g id="edge128" class="edge">
<title>Node70&#45;&gt;Node48</title>
<path fill="none" stroke="#191970" d="M1371.2043,-559.1366C1380.2597,-532.8873 1408.6385,-460.8835 1458,-425 1511.3602,-386.2096 1538.1,-405.3947 1602,-389 1603.4455,-388.6291 1604.9214,-388.2486 1606.4119,-387.8629"/>
<polygon fill="#191970" stroke="#191970" points="1607.5014,-391.1959 1616.295,-385.2864 1605.7355,-384.4223 1607.5014,-391.1959"/>
</g>
<!-- Node70&#45;&gt;Node50 -->
<g id="edge129" class="edge">
<title>Node70&#45;&gt;Node50</title>
<path fill="none" stroke="#191970" d="M1292.2497,-566.713C1209.2931,-562.7754 1072.891,-552.0716 959,-523 882.7093,-503.5262 838.9027,-521.361 795,-456 783.7152,-439.1996 787.8232,-415.4429 793.0957,-398.773"/>
<polygon fill="#191970" stroke="#191970" points="796.5232,-399.5809 796.5786,-388.9863 789.9284,-397.234 796.5232,-399.5809"/>
</g>
<!-- Node70&#45;&gt;Node57 -->
<g id="edge130" class="edge">
<title>Node70&#45;&gt;Node57</title>
<path fill="none" stroke="#191970" d="M1405.8573,-559.4581C1448.5071,-548.7082 1517.9064,-531.2162 1564.2456,-519.5365"/>
<polygon fill="#191970" stroke="#191970" points="1565.2126,-522.9023 1574.0539,-517.0643 1563.5017,-516.1146 1565.2126,-522.9023"/>
</g>
</g>
</svg>
