<?xml version="1.0" encoding="UTF-8" standalone="no"?>
<!DOCTYPE svg PUBLIC "-//W3C//DTD SVG 1.1//EN"
 "http://www.w3.org/Graphics/SVG/1.1/DTD/svg11.dtd">
<!-- Generated by graphviz version 2.40.1 (20161225.0304)
 -->
<!-- Title: LinearMotionVector3.cpp Pages: 1 -->
<svg width="1360pt" height="509pt"
 viewBox="0.00 0.00 1360.00 509.00" xmlns="http://www.w3.org/2000/svg" xmlns:xlink="http://www.w3.org/1999/xlink">
<g id="graph0" class="graph" transform="scale(1 1) rotate(0) translate(4 505)">
<title>LinearMotionVector3.cpp</title>
<!-- Node0 -->
<g id="node1" class="node">
<title>Node0</title>
<polygon fill="#bfbfbf" stroke="#000000" points="663,-481.5 663,-500.5 800,-500.5 800,-481.5 663,-481.5"/>
<text text-anchor="middle" x="731.5" y="-488.5" font-family="FreeSans.ttf" font-size="10.00" fill="#000000">LinearMotionVector3.cpp</text>
</g>
<!-- Node1 -->
<g id="node2" class="node">
<title>Node1</title>
<g id="a_node2"><a xlink:href="LinearMotionVector3_8h.html" target="_top" xlink:title="iDynTree/Core/LinearMotion\lVector3.h">
<polygon fill="none" stroke="#000000" points="533,-414.5 533,-444.5 684,-444.5 684,-414.5 533,-414.5"/>
<text text-anchor="start" x="541" y="-432.5" font-family="FreeSans.ttf" font-size="10.00" fill="#000000">iDynTree/Core/LinearMotion</text>
<text text-anchor="middle" x="608.5" y="-421.5" font-family="FreeSans.ttf" font-size="10.00" fill="#000000">Vector3.h</text>
</a>
</g>
</g>
<!-- Node0&#45;&gt;Node1 -->
<g id="edge1" class="edge">
<title>Node0&#45;&gt;Node1</title>
<path fill="none" stroke="#191970" d="M712.2813,-481.3906C695.0182,-472.7591 669.1404,-459.8202 647.5447,-449.0224"/>
<polygon fill="#191970" stroke="#191970" points="649.0987,-445.8863 638.5892,-444.5446 645.9682,-452.1473 649.0987,-445.8863"/>
</g>
<!-- Node25 -->
<g id="node26" class="node">
<title>Node25</title>
<g id="a_node26"><a xlink:href="AngularMotionVector3_8h.html" target="_top" xlink:title="iDynTree/Core/AngularMotion\lVector3.h">
<polygon fill="none" stroke="#000000" points="356.5,-414.5 356.5,-444.5 514.5,-444.5 514.5,-414.5 356.5,-414.5"/>
<text text-anchor="start" x="364.5" y="-432.5" font-family="FreeSans.ttf" font-size="10.00" fill="#000000">iDynTree/Core/AngularMotion</text>
<text text-anchor="middle" x="435.5" y="-421.5" font-family="FreeSans.ttf" font-size="10.00" fill="#000000">Vector3.h</text>
</a>
</g>
</g>
<!-- Node0&#45;&gt;Node25 -->
<g id="edge38" class="edge">
<title>Node0&#45;&gt;Node25</title>
<path fill="none" stroke="#191970" d="M685.5748,-481.4581C640.8603,-472.1678 571.9092,-457.8418 517.7245,-446.5838"/>
<polygon fill="#191970" stroke="#191970" points="518.291,-443.1268 507.7881,-444.5193 516.867,-449.9805 518.291,-443.1268"/>
</g>
<!-- Node26 -->
<g id="node27" class="node">
<title>Node26</title>
<g id="a_node27"><a xlink:href="Position_8h.html" target="_top" xlink:title="iDynTree/Core/Position.h">
<polygon fill="none" stroke="#000000" points="955.5,-291.5 955.5,-310.5 1091.5,-310.5 1091.5,-291.5 955.5,-291.5"/>
<text text-anchor="middle" x="1023.5" y="-298.5" font-family="FreeSans.ttf" font-size="10.00" fill="#000000">iDynTree/Core/Position.h</text>
</a>
</g>
</g>
<!-- Node0&#45;&gt;Node26 -->
<g id="edge41" class="edge">
<title>Node0&#45;&gt;Node26</title>
<path fill="none" stroke="#191970" d="M730.0477,-481.2497C726.7837,-455.2811 721.8595,-383.9122 759.5,-347 785.2896,-321.7094 876.9223,-310.1753 945.0345,-305.0141"/>
<polygon fill="#191970" stroke="#191970" points="945.605,-308.4821 955.326,-304.2687 945.0993,-301.5003 945.605,-308.4821"/>
</g>
<!-- Node29 -->
<g id="node30" class="node">
<title>Node29</title>
<g id="a_node30"><a xlink:href="PrivatePreProcessorUtils_8h.html" target="_top" xlink:title="iDynTree/Core/PrivatePre\lProcessorUtils.h">
<polygon fill="none" stroke="#000000" points="768.5,-347.5 768.5,-377.5 906.5,-377.5 906.5,-347.5 768.5,-347.5"/>
<text text-anchor="start" x="776.5" y="-365.5" font-family="FreeSans.ttf" font-size="10.00" fill="#000000">iDynTree/Core/PrivatePre</text>
<text text-anchor="middle" x="837.5" y="-354.5" font-family="FreeSans.ttf" font-size="10.00" fill="#000000">ProcessorUtils.h</text>
</a>
</g>
</g>
<!-- Node0&#45;&gt;Node29 -->
<g id="edge49" class="edge">
<title>Node0&#45;&gt;Node29</title>
<path fill="none" stroke="#191970" d="M734.6808,-481.1716C740.0417,-465.6728 752.0291,-435.1457 769.5,-414 779.1396,-402.3328 791.9195,-391.7736 803.7963,-383.2971"/>
<polygon fill="#191970" stroke="#191970" points="805.9654,-386.0534 812.227,-377.5069 802.0024,-380.2832 805.9654,-386.0534"/>
</g>
<!-- Node30 -->
<g id="node31" class="node">
<title>Node30</title>
<g id="a_node31"><a xlink:href="PrivateSemanticsMacros_8h.html" target="_top" xlink:title="iDynTree/Core/PrivateSemantics\lMacros.h">
<polygon fill="none" stroke="#000000" points="779,-414.5 779,-444.5 952,-444.5 952,-414.5 779,-414.5"/>
<text text-anchor="start" x="787" y="-432.5" font-family="FreeSans.ttf" font-size="10.00" fill="#000000">iDynTree/Core/PrivateSemantics</text>
<text text-anchor="middle" x="865.5" y="-421.5" font-family="FreeSans.ttf" font-size="10.00" fill="#000000">Macros.h</text>
</a>
</g>
</g>
<!-- Node0&#45;&gt;Node30 -->
<g id="edge50" class="edge">
<title>Node0&#45;&gt;Node30</title>
<path fill="none" stroke="#191970" d="M752.4375,-481.3906C771.4124,-472.682 799.9407,-459.5888 823.5926,-448.7336"/>
<polygon fill="#191970" stroke="#191970" points="825.0913,-451.8968 832.7199,-444.5446 822.1715,-445.5349 825.0913,-451.8968"/>
</g>
<!-- Node31 -->
<g id="node32" class="node">
<title>Node31</title>
<polygon fill="none" stroke="#bfbfbf" points="970,-420 970,-439 1047,-439 1047,-420 970,-420"/>
<text text-anchor="middle" x="1008.5" y="-427" font-family="FreeSans.ttf" font-size="10.00" fill="#000000">Eigen/Dense</text>
</g>
<!-- Node0&#45;&gt;Node31 -->
<g id="edge52" class="edge">
<title>Node0&#45;&gt;Node31</title>
<path fill="none" stroke="#191970" d="M789.1272,-481.473C835.9172,-473.2601 903.4236,-460.3237 961.5,-445 964.8412,-444.1184 968.2927,-443.1312 971.7372,-442.0934"/>
<polygon fill="#191970" stroke="#191970" points="972.8379,-445.4164 981.3293,-439.0802 970.7399,-438.7381 972.8379,-445.4164"/>
</g>
<!-- Node2 -->
<g id="node3" class="node">
<title>Node2</title>
<g id="a_node3"><a xlink:href="MotionVector3_8h.html" target="_top" xlink:title="iDynTree/Core/MotionVector3.h">
<polygon fill="none" stroke="#000000" points="414,-353 414,-372 581,-372 581,-353 414,-353"/>
<text text-anchor="middle" x="497.5" y="-360" font-family="FreeSans.ttf" font-size="10.00" fill="#000000">iDynTree/Core/MotionVector3.h</text>
</a>
</g>
</g>
<!-- Node1&#45;&gt;Node2 -->
<g id="edge2" class="edge">
<title>Node1&#45;&gt;Node2</title>
<path fill="none" stroke="#191970" d="M583.5894,-414.4639C565.2167,-403.3741 540.34,-388.3584 522.0526,-377.32"/>
<polygon fill="#191970" stroke="#191970" points="523.781,-374.2751 513.411,-372.1039 520.1636,-380.268 523.781,-374.2751"/>
</g>
<!-- Node24 -->
<g id="node25" class="node">
<title>Node24</title>
<g id="a_node25"><a xlink:href="PrivateMotionForceVertorAssociations_8h.html" target="_top" xlink:title="iDynTree/Core/PrivateMotion\lForceVertorAssociations.h">
<polygon fill="none" stroke="#000000" points="420,-224.5 420,-254.5 575,-254.5 575,-224.5 420,-224.5"/>
<text text-anchor="start" x="428" y="-242.5" font-family="FreeSans.ttf" font-size="10.00" fill="#000000">iDynTree/Core/PrivateMotion</text>
<text text-anchor="middle" x="497.5" y="-231.5" font-family="FreeSans.ttf" font-size="10.00" fill="#000000">ForceVertorAssociations.h</text>
</a>
</g>
</g>
<!-- Node1&#45;&gt;Node24 -->
<g id="edge37" class="edge">
<title>Node1&#45;&gt;Node24</title>
<path fill="none" stroke="#191970" d="M607.2152,-414.4658C605.2707,-397.3465 600.5529,-368.916 589.5,-347 572.6535,-313.5964 543.2908,-281.8909 522.2663,-261.6852"/>
<polygon fill="#191970" stroke="#191970" points="524.615,-259.0893 514.9363,-254.7795 519.8148,-264.1843 524.615,-259.0893"/>
</g>
<!-- Node3 -->
<g id="node4" class="node">
<title>Node3</title>
<g id="a_node4"><a xlink:href="GeomVector3_8h.html" target="_top" xlink:title="iDynTree/Core/GeomVector3.h">
<polygon fill="none" stroke="#000000" points="637,-291.5 637,-310.5 800,-310.5 800,-291.5 637,-291.5"/>
<text text-anchor="middle" x="718.5" y="-298.5" font-family="FreeSans.ttf" font-size="10.00" fill="#000000">iDynTree/Core/GeomVector3.h</text>
</a>
</g>
</g>
<!-- Node2&#45;&gt;Node3 -->
<g id="edge3" class="edge">
<title>Node2&#45;&gt;Node3</title>
<path fill="none" stroke="#191970" d="M532.0313,-352.8906C570.4682,-342.1944 632.6744,-324.8836 674.5536,-313.2294"/>
<polygon fill="#191970" stroke="#191970" points="675.5157,-316.5948 684.2112,-310.5419 673.6389,-309.851 675.5157,-316.5948"/>
</g>
<!-- Node2&#45;&gt;Node24 -->
<g id="edge36" class="edge">
<title>Node2&#45;&gt;Node24</title>
<path fill="none" stroke="#191970" d="M497.5,-352.8484C497.5,-334.133 497.5,-292.356 497.5,-265.0844"/>
<polygon fill="#191970" stroke="#191970" points="501.0001,-264.7364 497.5,-254.7365 494.0001,-264.7365 501.0001,-264.7364"/>
</g>
<!-- Node4 -->
<g id="node5" class="node">
<title>Node4</title>
<g id="a_node5"><a xlink:href="VectorFixSize_8h.html" target="_top" xlink:title="iDynTree/Core/VectorFixSize.h">
<polygon fill="none" stroke="#000000" points="449,-112.5 449,-131.5 610,-131.5 610,-112.5 449,-112.5"/>
<text text-anchor="middle" x="529.5" y="-119.5" font-family="FreeSans.ttf" font-size="10.00" fill="#000000">iDynTree/Core/VectorFixSize.h</text>
</a>
</g>
</g>
<!-- Node3&#45;&gt;Node4 -->
<g id="edge4" class="edge">
<title>Node3&#45;&gt;Node4</title>
<path fill="none" stroke="#191970" d="M708.3385,-291.3762C677.7012,-262.3598 585.9599,-175.4726 547.1491,-138.7153"/>
<polygon fill="#191970" stroke="#191970" points="549.379,-136.0066 539.7117,-131.6714 544.5655,-141.089 549.379,-136.0066"/>
</g>
<!-- Node19 -->
<g id="node20" class="node">
<title>Node19</title>
<g id="a_node20"><a xlink:href="Rotation_8h.html" target="_top" xlink:title="iDynTree/Core/Rotation.h">
<polygon fill="none" stroke="#000000" points="734,-230 734,-249 871,-249 871,-230 734,-230"/>
<text text-anchor="middle" x="802.5" y="-237" font-family="FreeSans.ttf" font-size="10.00" fill="#000000">iDynTree/Core/Rotation.h</text>
</a>
</g>
</g>
<!-- Node3&#45;&gt;Node19 -->
<g id="edge21" class="edge">
<title>Node3&#45;&gt;Node19</title>
<path fill="none" stroke="#191970" d="M731.625,-291.3906C744.94,-281.6421 765.7594,-266.3994 781.3947,-254.9521"/>
<polygon fill="#191970" stroke="#191970" points="783.4661,-257.7734 789.4672,-249.0419 779.3309,-252.1253 783.4661,-257.7734"/>
</g>
<!-- Node3&#45;&gt;Node24 -->
<g id="edge35" class="edge">
<title>Node3&#45;&gt;Node24</title>
<path fill="none" stroke="#191970" d="M683.9688,-291.3906C651.2204,-282.2774 601.218,-268.3627 561.2335,-257.2358"/>
<polygon fill="#191970" stroke="#191970" points="562.135,-253.8537 551.5627,-254.5446 560.2583,-260.5975 562.135,-253.8537"/>
</g>
<!-- Node5 -->
<g id="node6" class="node">
<title>Node5</title>
<g id="a_node6"><a xlink:href="Utils_8h.html" target="_top" xlink:title="iDynTree/Core/Utils.h">
<polygon fill="none" stroke="#000000" points="471,-56.5 471,-75.5 590,-75.5 590,-56.5 471,-56.5"/>
<text text-anchor="middle" x="530.5" y="-63.5" font-family="FreeSans.ttf" font-size="10.00" fill="#000000">iDynTree/Core/Utils.h</text>
</a>
</g>
</g>
<!-- Node4&#45;&gt;Node5 -->
<g id="edge5" class="edge">
<title>Node4&#45;&gt;Node5</title>
<path fill="none" stroke="#191970" d="M529.6742,-112.2455C529.8047,-104.9382 529.9876,-94.6944 530.1481,-85.7046"/>
<polygon fill="#191970" stroke="#191970" points="533.6486,-85.7036 530.3278,-75.6427 526.6497,-85.5786 533.6486,-85.7036"/>
</g>
<!-- Node7 -->
<g id="node8" class="node">
<title>Node7</title>
<g id="a_node8"><a xlink:href="Span_8h.html" target="_top" xlink:title="iDynTree/Core/Span.h">
<polygon fill="none" stroke="#000000" points="287,-56.5 287,-75.5 408,-75.5 408,-56.5 287,-56.5"/>
<text text-anchor="middle" x="347.5" y="-63.5" font-family="FreeSans.ttf" font-size="10.00" fill="#000000">iDynTree/Core/Span.h</text>
</a>
</g>
</g>
<!-- Node4&#45;&gt;Node7 -->
<g id="edge7" class="edge">
<title>Node4&#45;&gt;Node7</title>
<path fill="none" stroke="#191970" d="M498.2131,-112.3733C467.8182,-103.021 421.5107,-88.7725 388.25,-78.5385"/>
<polygon fill="#191970" stroke="#191970" points="388.9658,-75.0968 378.3786,-75.5011 386.9071,-81.7873 388.9658,-75.0968"/>
</g>
<!-- Node8 -->
<g id="node9" class="node">
<title>Node8</title>
<polygon fill="none" stroke="#bfbfbf" points="581.5,-.5 581.5,-19.5 633.5,-19.5 633.5,-.5 581.5,-.5"/>
<text text-anchor="middle" x="607.5" y="-7.5" font-family="FreeSans.ttf" font-size="10.00" fill="#000000">cassert</text>
</g>
<!-- Node4&#45;&gt;Node8 -->
<g id="edge19" class="edge">
<title>Node4&#45;&gt;Node8</title>
<path fill="none" stroke="#191970" d="M506.0339,-112.2949C480.3736,-100.2575 444.9598,-78.5531 461.5,-56 464.8738,-51.3997 529.423,-32.2709 571.5527,-20.176"/>
<polygon fill="#191970" stroke="#191970" points="572.5579,-23.529 581.2098,-17.4139 570.6329,-16.7988 572.5579,-23.529"/>
</g>
<!-- Node16 -->
<g id="node17" class="node">
<title>Node16</title>
<polygon fill="none" stroke="#bfbfbf" points="911.5,-56.5 911.5,-75.5 955.5,-75.5 955.5,-56.5 911.5,-56.5"/>
<text text-anchor="middle" x="933.5" y="-63.5" font-family="FreeSans.ttf" font-size="10.00" fill="#000000">string</text>
</g>
<!-- Node4&#45;&gt;Node16 -->
<g id="edge17" class="edge">
<title>Node4&#45;&gt;Node16</title>
<path fill="none" stroke="#191970" d="M598.491,-112.4369C686.6587,-100.2156 835.6841,-79.5586 901.0871,-70.4929"/>
<polygon fill="#191970" stroke="#191970" points="901.783,-73.93 911.2077,-69.09 900.8218,-66.9963 901.783,-73.93"/>
</g>
<!-- Node17 -->
<g id="node18" class="node">
<title>Node17</title>
<polygon fill="none" stroke="#bfbfbf" points="608.5,-56.5 608.5,-75.5 664.5,-75.5 664.5,-56.5 608.5,-56.5"/>
<text text-anchor="middle" x="636.5" y="-63.5" font-family="FreeSans.ttf" font-size="10.00" fill="#000000">sstream</text>
</g>
<!-- Node4&#45;&gt;Node17 -->
<g id="edge18" class="edge">
<title>Node4&#45;&gt;Node17</title>
<path fill="none" stroke="#191970" d="M548.138,-112.2455C564.9386,-103.4527 589.8634,-90.4079 608.9618,-80.4125"/>
<polygon fill="#191970" stroke="#191970" points="610.8386,-83.3807 618.0756,-75.6427 607.5927,-77.1787 610.8386,-83.3807"/>
</g>
<!-- Node18 -->
<g id="node19" class="node">
<title>Node18</title>
<polygon fill="none" stroke="#bfbfbf" points="682.5,-56.5 682.5,-75.5 732.5,-75.5 732.5,-56.5 682.5,-56.5"/>
<text text-anchor="middle" x="707.5" y="-63.5" font-family="FreeSans.ttf" font-size="10.00" fill="#000000">cstring</text>
</g>
<!-- Node4&#45;&gt;Node18 -->
<g id="edge20" class="edge">
<title>Node4&#45;&gt;Node18</title>
<path fill="none" stroke="#191970" d="M560.0993,-112.3733C591.4476,-102.5109 640.1029,-87.2036 672.8501,-76.9011"/>
<polygon fill="#191970" stroke="#191970" points="673.9769,-80.2158 682.4656,-73.876 671.8761,-73.5384 673.9769,-80.2158"/>
</g>
<!-- Node6 -->
<g id="node7" class="node">
<title>Node6</title>
<polygon fill="none" stroke="#bfbfbf" points="510,-.5 510,-19.5 563,-19.5 563,-.5 510,-.5"/>
<text text-anchor="middle" x="536.5" y="-7.5" font-family="FreeSans.ttf" font-size="10.00" fill="#000000">cstddef</text>
</g>
<!-- Node5&#45;&gt;Node6 -->
<g id="edge6" class="edge">
<title>Node5&#45;&gt;Node6</title>
<path fill="none" stroke="#191970" d="M531.5451,-56.2455C532.328,-48.9382 533.4256,-38.6944 534.3888,-29.7046"/>
<polygon fill="#191970" stroke="#191970" points="537.8815,-29.9587 535.4669,-19.6427 530.9214,-29.2129 537.8815,-29.9587"/>
</g>
<!-- Node7&#45;&gt;Node6 -->
<g id="edge11" class="edge">
<title>Node7&#45;&gt;Node6</title>
<path fill="none" stroke="#191970" d="M379.9903,-56.3733C413.4193,-46.4684 465.3836,-31.0715 500.1575,-20.7681"/>
<polygon fill="#191970" stroke="#191970" points="501.3249,-24.0727 509.9185,-17.876 499.3362,-17.3612 501.3249,-24.0727"/>
</g>
<!-- Node7&#45;&gt;Node8 -->
<g id="edge8" class="edge">
<title>Node7&#45;&gt;Node8</title>
<path fill="none" stroke="#191970" d="M398.8761,-56.486C444.4216,-47.8055 512.6456,-34.1997 571.5,-20 571.5985,-19.9762 571.6972,-19.9524 571.796,-19.9284"/>
<polygon fill="#191970" stroke="#191970" points="572.3838,-23.3907 581.2081,-17.5269 570.6532,-16.608 572.3838,-23.3907"/>
</g>
<!-- Node9 -->
<g id="node10" class="node">
<title>Node9</title>
<polygon fill="none" stroke="#bfbfbf" points="233.5,-.5 233.5,-19.5 297.5,-19.5 297.5,-.5 233.5,-.5"/>
<text text-anchor="middle" x="265.5" y="-7.5" font-family="FreeSans.ttf" font-size="10.00" fill="#000000">algorithm</text>
</g>
<!-- Node7&#45;&gt;Node9 -->
<g id="edge9" class="edge">
<title>Node7&#45;&gt;Node9</title>
<path fill="none" stroke="#191970" d="M333.2167,-56.2455C320.753,-47.7337 302.4549,-35.2375 288.0208,-25.3801"/>
<polygon fill="#191970" stroke="#191970" points="289.8515,-22.392 279.6196,-19.6427 285.9038,-28.1726 289.8515,-22.392"/>
</g>
<!-- Node10 -->
<g id="node11" class="node">
<title>Node10</title>
<polygon fill="none" stroke="#bfbfbf" points="315.5,-.5 315.5,-19.5 357.5,-19.5 357.5,-.5 315.5,-.5"/>
<text text-anchor="middle" x="336.5" y="-7.5" font-family="FreeSans.ttf" font-size="10.00" fill="#000000">array</text>
</g>
<!-- Node7&#45;&gt;Node10 -->
<g id="edge10" class="edge">
<title>Node7&#45;&gt;Node10</title>
<path fill="none" stroke="#191970" d="M345.5839,-56.2455C344.1486,-48.9382 342.1364,-38.6944 340.3705,-29.7046"/>
<polygon fill="#191970" stroke="#191970" points="343.756,-28.7805 338.3941,-19.6427 336.8873,-30.1298 343.756,-28.7805"/>
</g>
<!-- Node11 -->
<g id="node12" class="node">
<title>Node11</title>
<polygon fill="none" stroke="#bfbfbf" points="376,-.5 376,-19.5 429,-19.5 429,-.5 376,-.5"/>
<text text-anchor="middle" x="402.5" y="-7.5" font-family="FreeSans.ttf" font-size="10.00" fill="#000000">iterator</text>
</g>
<!-- Node7&#45;&gt;Node11 -->
<g id="edge12" class="edge">
<title>Node7&#45;&gt;Node11</title>
<path fill="none" stroke="#191970" d="M357.0803,-56.2455C365.0458,-48.1352 376.5641,-36.4075 386.0079,-26.7919"/>
<polygon fill="#191970" stroke="#191970" points="388.5195,-29.2297 393.0295,-19.6427 383.5253,-24.3247 388.5195,-29.2297"/>
</g>
<!-- Node12 -->
<g id="node13" class="node">
<title>Node12</title>
<polygon fill="none" stroke="#bfbfbf" points="447.5,-.5 447.5,-19.5 491.5,-19.5 491.5,-.5 447.5,-.5"/>
<text text-anchor="middle" x="469.5" y="-7.5" font-family="FreeSans.ttf" font-size="10.00" fill="#000000">limits</text>
</g>
<!-- Node7&#45;&gt;Node12 -->
<g id="edge13" class="edge">
<title>Node7&#45;&gt;Node12</title>
<path fill="none" stroke="#191970" d="M368.4725,-56.3733C388.0567,-47.3838 417.4961,-33.8706 439.551,-23.7471"/>
<polygon fill="#191970" stroke="#191970" points="441.1729,-26.8538 448.8011,-19.5011 438.2527,-20.4919 441.1729,-26.8538"/>
</g>
<!-- Node13 -->
<g id="node14" class="node">
<title>Node13</title>
<polygon fill="none" stroke="#bfbfbf" points="0,-.5 0,-19.5 65,-19.5 65,-.5 0,-.5"/>
<text text-anchor="middle" x="32.5" y="-7.5" font-family="FreeSans.ttf" font-size="10.00" fill="#000000">stdexcept</text>
</g>
<!-- Node7&#45;&gt;Node13 -->
<g id="edge14" class="edge">
<title>Node7&#45;&gt;Node13</title>
<path fill="none" stroke="#191970" d="M286.8621,-57.1186C233.4668,-49.0031 153.3945,-36.1194 75.1523,-20.2386"/>
<polygon fill="#191970" stroke="#191970" points="75.6243,-16.7626 65.1253,-18.1846 74.2195,-23.6202 75.6243,-16.7626"/>
</g>
<!-- Node14 -->
<g id="node15" class="node">
<title>Node14</title>
<polygon fill="none" stroke="#bfbfbf" points="83,-.5 83,-19.5 152,-19.5 152,-.5 83,-.5"/>
<text text-anchor="middle" x="117.5" y="-7.5" font-family="FreeSans.ttf" font-size="10.00" fill="#000000">type_traits</text>
</g>
<!-- Node7&#45;&gt;Node14 -->
<g id="edge15" class="edge">
<title>Node7&#45;&gt;Node14</title>
<path fill="none" stroke="#191970" d="M308.2229,-56.4369C267.6002,-46.5461 204.2848,-31.1302 161.8772,-20.8049"/>
<polygon fill="#191970" stroke="#191970" points="162.6477,-17.3903 152.1035,-18.4252 160.9916,-24.1916 162.6477,-17.3903"/>
</g>
<!-- Node15 -->
<g id="node16" class="node">
<title>Node15</title>
<polygon fill="none" stroke="#bfbfbf" points="170,-.5 170,-19.5 215,-19.5 215,-.5 170,-.5"/>
<text text-anchor="middle" x="192.5" y="-7.5" font-family="FreeSans.ttf" font-size="10.00" fill="#000000">utility</text>
</g>
<!-- Node7&#45;&gt;Node15 -->
<g id="edge16" class="edge">
<title>Node7&#45;&gt;Node15</title>
<path fill="none" stroke="#191970" d="M320.8546,-56.3733C294.2196,-46.7503 253.2367,-31.9436 224.7735,-21.6601"/>
<polygon fill="#191970" stroke="#191970" points="225.8662,-18.3335 215.2719,-18.2273 223.4876,-24.917 225.8662,-18.3335"/>
</g>
<!-- Node19&#45;&gt;Node4 -->
<g id="edge34" class="edge">
<title>Node19&#45;&gt;Node4</title>
<path fill="none" stroke="#191970" d="M773.0045,-229.9446C744.0043,-220.2839 698.6647,-204.4656 660.5,-188 640.6011,-179.4149 589.2577,-153.0724 557.0765,-136.3789"/>
<polygon fill="#191970" stroke="#191970" points="558.6427,-133.2485 548.1553,-131.7437 555.4154,-139.4601 558.6427,-133.2485"/>
</g>
<!-- Node19&#45;&gt;Node16 -->
<g id="edge22" class="edge">
<title>Node19&#45;&gt;Node16</title>
<path fill="none" stroke="#191970" d="M809.3759,-229.8483C816.5119,-219.6617 827.8222,-203.0311 836.5,-188 855.3817,-155.2944 850.5747,-141.2191 874.5,-112 884.2702,-100.068 897.6693,-89.309 909.2293,-81.2016"/>
<polygon fill="#191970" stroke="#191970" points="911.2862,-84.036 917.6203,-75.5431 907.3725,-78.2323 911.2862,-84.036"/>
</g>
<!-- Node20 -->
<g id="node21" class="node">
<title>Node20</title>
<g id="a_node21"><a xlink:href="RotationRaw_8h.html" target="_top" xlink:title="iDynTree/Core/RotationRaw.h">
<polygon fill="none" stroke="#000000" points="669.5,-168.5 669.5,-187.5 827.5,-187.5 827.5,-168.5 669.5,-168.5"/>
<text text-anchor="middle" x="748.5" y="-175.5" font-family="FreeSans.ttf" font-size="10.00" fill="#000000">iDynTree/Core/RotationRaw.h</text>
</a>
</g>
</g>
<!-- Node19&#45;&gt;Node20 -->
<g id="edge23" class="edge">
<title>Node19&#45;&gt;Node20</title>
<path fill="none" stroke="#191970" d="M794.0625,-229.8906C785.9469,-220.6478 773.4945,-206.466 763.6576,-195.2628"/>
<polygon fill="#191970" stroke="#191970" points="766.2846,-192.95 757.0565,-187.7449 761.0245,-197.5686 766.2846,-192.95"/>
</g>
<!-- Node23 -->
<g id="node24" class="node">
<title>Node23</title>
<g id="a_node24"><a xlink:href="RotationSemantics_8h.html" target="_top" xlink:title="iDynTree/Core/RotationSemantics.h">
<polygon fill="none" stroke="#000000" points="883.5,-112.5 883.5,-131.5 1071.5,-131.5 1071.5,-112.5 883.5,-112.5"/>
<text text-anchor="middle" x="977.5" y="-119.5" font-family="FreeSans.ttf" font-size="10.00" fill="#000000">iDynTree/Core/RotationSemantics.h</text>
</a>
</g>
</g>
<!-- Node19&#45;&gt;Node23 -->
<g id="edge32" class="edge">
<title>Node19&#45;&gt;Node23</title>
<path fill="none" stroke="#191970" d="M816.821,-229.8845C847.073,-209.5724 917.7125,-162.1431 954.4239,-137.4939"/>
<polygon fill="#191970" stroke="#191970" points="956.6299,-140.2285 962.9811,-131.7484 952.7279,-134.417 956.6299,-140.2285"/>
</g>
<!-- Node20&#45;&gt;Node16 -->
<g id="edge31" class="edge">
<title>Node20&#45;&gt;Node16</title>
<path fill="none" stroke="#191970" d="M760.7236,-168.4022C778.1234,-154.9572 811.2808,-130.1315 841.5,-112 861.3592,-100.0845 884.7087,-88.436 902.9151,-79.8421"/>
<polygon fill="#191970" stroke="#191970" points="904.5989,-82.9188 912.183,-75.5207 901.6407,-76.5746 904.5989,-82.9188"/>
</g>
<!-- Node21 -->
<g id="node22" class="node">
<title>Node21</title>
<g id="a_node22"><a xlink:href="MatrixFixSize_8h.html" target="_top" xlink:title="iDynTree/Core/MatrixFixSize.h">
<polygon fill="none" stroke="#000000" points="628,-112.5 628,-131.5 789,-131.5 789,-112.5 628,-112.5"/>
<text text-anchor="middle" x="708.5" y="-119.5" font-family="FreeSans.ttf" font-size="10.00" fill="#000000">iDynTree/Core/MatrixFixSize.h</text>
</a>
</g>
</g>
<!-- Node20&#45;&gt;Node21 -->
<g id="edge24" class="edge">
<title>Node20&#45;&gt;Node21</title>
<path fill="none" stroke="#191970" d="M741.5325,-168.2455C735.9689,-160.4564 728.022,-149.3308 721.3171,-139.9439"/>
<polygon fill="#191970" stroke="#191970" points="724.0481,-137.7457 715.3876,-131.6427 718.352,-141.8144 724.0481,-137.7457"/>
</g>
<!-- Node21&#45;&gt;Node5 -->
<g id="edge25" class="edge">
<title>Node21&#45;&gt;Node5</title>
<path fill="none" stroke="#191970" d="M677.9007,-112.3733C648.1739,-103.021 602.8841,-88.7725 570.3544,-78.5385"/>
<polygon fill="#191970" stroke="#191970" points="571.2895,-75.1636 560.7,-75.5011 569.1887,-81.8409 571.2895,-75.1636"/>
</g>
<!-- Node21&#45;&gt;Node8 -->
<g id="edge26" class="edge">
<title>Node21&#45;&gt;Node8</title>
<path fill="none" stroke="#191970" d="M719.9922,-112.0683C734.0909,-98.6639 754.6017,-74.3498 741.5,-56 729.9224,-39.7849 679.3327,-25.6705 643.7447,-17.4919"/>
<polygon fill="#191970" stroke="#191970" points="644.2188,-14.0116 633.6963,-15.2471 642.6926,-20.8432 644.2188,-14.0116"/>
</g>
<!-- Node21&#45;&gt;Node16 -->
<g id="edge28" class="edge">
<title>Node21&#45;&gt;Node16</title>
<path fill="none" stroke="#191970" d="M746.9232,-112.4369C790.4525,-101.6029 860.617,-84.1398 901.3611,-73.999"/>
<polygon fill="#191970" stroke="#191970" points="902.4368,-77.3381 911.2954,-71.5265 900.7461,-70.5454 902.4368,-77.3381"/>
</g>
<!-- Node21&#45;&gt;Node17 -->
<g id="edge30" class="edge">
<title>Node21&#45;&gt;Node17</title>
<path fill="none" stroke="#191970" d="M695.9586,-112.2455C685.2213,-103.8943 669.5527,-91.7076 656.9953,-81.9408"/>
<polygon fill="#191970" stroke="#191970" points="658.9401,-79.0194 648.8977,-75.6427 654.6425,-84.5449 658.9401,-79.0194"/>
</g>
<!-- Node21&#45;&gt;Node18 -->
<g id="edge27" class="edge">
<title>Node21&#45;&gt;Node18</title>
<path fill="none" stroke="#191970" d="M708.3258,-112.2455C708.1953,-104.9382 708.0124,-94.6944 707.8519,-85.7046"/>
<polygon fill="#191970" stroke="#191970" points="711.3503,-85.5786 707.6722,-75.6427 704.3514,-85.7036 711.3503,-85.5786"/>
</g>
<!-- Node22 -->
<g id="node23" class="node">
<title>Node22</title>
<polygon fill="none" stroke="#bfbfbf" points="788.5,-56.5 788.5,-75.5 848.5,-75.5 848.5,-56.5 788.5,-56.5"/>
<text text-anchor="middle" x="818.5" y="-63.5" font-family="FreeSans.ttf" font-size="10.00" fill="#000000">iostream</text>
</g>
<!-- Node21&#45;&gt;Node22 -->
<g id="edge29" class="edge">
<title>Node21&#45;&gt;Node22</title>
<path fill="none" stroke="#191970" d="M727.6605,-112.2455C745.0111,-103.4125 770.7901,-90.2887 790.4583,-80.2758"/>
<polygon fill="#191970" stroke="#191970" points="792.2353,-83.2986 799.559,-75.6427 789.0595,-77.0605 792.2353,-83.2986"/>
</g>
<!-- Node23&#45;&gt;Node16 -->
<g id="edge33" class="edge">
<title>Node23&#45;&gt;Node16</title>
<path fill="none" stroke="#191970" d="M969.8358,-112.2455C963.6527,-104.3761 954.7937,-93.101 947.3711,-83.6542"/>
<polygon fill="#191970" stroke="#191970" points="950.0068,-81.3435 941.0764,-75.6427 944.5025,-85.6683 950.0068,-81.3435"/>
</g>
<!-- Node25&#45;&gt;Node2 -->
<g id="edge39" class="edge">
<title>Node25&#45;&gt;Node2</title>
<path fill="none" stroke="#191970" d="M449.5688,-414.2967C459.1349,-403.9591 471.8038,-390.2684 481.7143,-379.5588"/>
<polygon fill="#191970" stroke="#191970" points="484.435,-381.7718 488.6581,-372.055 479.2973,-377.0175 484.435,-381.7718"/>
</g>
<!-- Node25&#45;&gt;Node24 -->
<g id="edge40" class="edge">
<title>Node25&#45;&gt;Node24</title>
<path fill="none" stroke="#191970" d="M422.9726,-414.3042C410.9263,-397.7591 395.7402,-370.5145 404.5,-347 417.4668,-312.1926 447.3348,-281.154 469.7474,-261.4849"/>
<polygon fill="#191970" stroke="#191970" points="472.286,-263.9198 477.6222,-254.7668 467.7429,-258.5943 472.286,-263.9198"/>
</g>
<!-- Node26&#45;&gt;Node16 -->
<g id="edge48" class="edge">
<title>Node26&#45;&gt;Node16</title>
<path fill="none" stroke="#191970" d="M1034.8439,-291.2203C1054.7612,-273.2076 1095.3427,-232.5331 1110.5,-188 1118.2856,-165.1253 1098.1482,-113.6985 1096.5,-112 1078.4253,-93.3734 1007.7638,-78.5612 965.6394,-71.1606"/>
<polygon fill="#191970" stroke="#191970" points="966.0412,-67.6785 955.594,-69.4409 964.86,-74.5782 966.0412,-67.6785"/>
</g>
<!-- Node26&#45;&gt;Node19 -->
<g id="edge47" class="edge">
<title>Node26&#45;&gt;Node19</title>
<path fill="none" stroke="#191970" d="M988.9688,-291.3906C950.5318,-280.6944 888.3256,-263.3836 846.4464,-251.7294"/>
<polygon fill="#191970" stroke="#191970" points="847.3611,-248.351 836.7888,-249.0419 845.4843,-255.0948 847.3611,-248.351"/>
</g>
<!-- Node27 -->
<g id="node28" class="node">
<title>Node27</title>
<g id="a_node28"><a xlink:href="PositionRaw_8h.html" target="_top" xlink:title="iDynTree/Core/PositionRaw.h">
<polygon fill="none" stroke="#000000" points="945.5,-168.5 945.5,-187.5 1101.5,-187.5 1101.5,-168.5 945.5,-168.5"/>
<text text-anchor="middle" x="1023.5" y="-175.5" font-family="FreeSans.ttf" font-size="10.00" fill="#000000">iDynTree/Core/PositionRaw.h</text>
</a>
</g>
</g>
<!-- Node26&#45;&gt;Node27 -->
<g id="edge42" class="edge">
<title>Node26&#45;&gt;Node27</title>
<path fill="none" stroke="#191970" d="M1023.5,-291.3484C1023.5,-271.2295 1023.5,-224.4608 1023.5,-197.7098"/>
<polygon fill="#191970" stroke="#191970" points="1027.0001,-197.6067 1023.5,-187.6068 1020.0001,-197.6068 1027.0001,-197.6067"/>
</g>
<!-- Node28 -->
<g id="node29" class="node">
<title>Node28</title>
<g id="a_node29"><a xlink:href="PositionSemantics_8h.html" target="_top" xlink:title="iDynTree/Core/PositionSemantics.h">
<polygon fill="none" stroke="#000000" points="1165,-168.5 1165,-187.5 1352,-187.5 1352,-168.5 1165,-168.5"/>
<text text-anchor="middle" x="1258.5" y="-175.5" font-family="FreeSans.ttf" font-size="10.00" fill="#000000">iDynTree/Core/PositionSemantics.h</text>
</a>
</g>
</g>
<!-- Node26&#45;&gt;Node28 -->
<g id="edge45" class="edge">
<title>Node26&#45;&gt;Node28</title>
<path fill="none" stroke="#191970" d="M1058.0087,-291.4653C1084.4144,-283.4971 1121.3036,-270.8894 1151.5,-255 1184.4626,-237.655 1218.7598,-211.2429 1239.3722,-194.3027"/>
<polygon fill="#191970" stroke="#191970" points="1241.8823,-196.767 1247.3244,-187.6766 1237.4013,-191.3892 1241.8823,-196.767"/>
</g>
<!-- Node27&#45;&gt;Node4 -->
<g id="edge43" class="edge">
<title>Node27&#45;&gt;Node4</title>
<path fill="none" stroke="#191970" d="M945.4968,-169.1575C857.2232,-159.1508 713.6257,-142.8725 620.364,-132.3004"/>
<polygon fill="#191970" stroke="#191970" points="620.7056,-128.8168 610.375,-131.168 619.9171,-135.7722 620.7056,-128.8168"/>
</g>
<!-- Node27&#45;&gt;Node16 -->
<g id="edge44" class="edge">
<title>Node27&#45;&gt;Node16</title>
<path fill="none" stroke="#191970" d="M1042.4812,-168.3412C1064.5268,-155.8267 1096.0106,-133.1059 1080.5,-112 1066.7993,-93.3568 1004.4591,-78.9002 965.4924,-71.4881"/>
<polygon fill="#191970" stroke="#191970" points="966.1267,-68.0461 955.6573,-69.6718 964.8554,-74.9297 966.1267,-68.0461"/>
</g>
<!-- Node28&#45;&gt;Node16 -->
<g id="edge46" class="edge">
<title>Node28&#45;&gt;Node16</title>
<path fill="none" stroke="#191970" d="M1246.0929,-168.3404C1226.9053,-153.8837 1188.3849,-126.7463 1151.5,-112 1088.2906,-86.7293 1008.9623,-74.4642 965.55,-69.2659"/>
<polygon fill="#191970" stroke="#191970" points="965.9072,-65.784 955.5733,-68.1209 965.109,-72.7384 965.9072,-65.784"/>
</g>
<!-- Node30&#45;&gt;Node29 -->
<g id="edge51" class="edge">
<title>Node30&#45;&gt;Node29</title>
<path fill="none" stroke="#191970" d="M859.1464,-414.2967C855.7812,-406.2443 851.5658,-396.1574 847.7512,-387.0296"/>
<polygon fill="#191970" stroke="#191970" points="850.9138,-385.5203 843.8285,-377.6432 844.4551,-388.2195 850.9138,-385.5203"/>
</g>
</g>
</svg>
