<?xml version="1.0" encoding="UTF-8" standalone="no"?>
<!DOCTYPE svg PUBLIC "-//W3C//DTD SVG 1.1//EN"
 "http://www.w3.org/Graphics/SVG/1.1/DTD/svg11.dtd">
<!-- Generated by graphviz version 2.40.1 (20161225.0304)
 -->
<!-- Title: MaterialElement.cpp Pages: 1 -->
<svg width="1478pt" height="476pt"
 viewBox="0.00 0.00 1477.50 476.00" xmlns="http://www.w3.org/2000/svg" xmlns:xlink="http://www.w3.org/1999/xlink">
<g id="graph0" class="graph" transform="scale(1 1) rotate(0) translate(4 472)">
<title>MaterialElement.cpp</title>
<!-- Node0 -->
<g id="node1" class="node">
<title>Node0</title>
<polygon fill="#bfbfbf" stroke="#000000" points="288.5,-448.5 288.5,-467.5 405.5,-467.5 405.5,-448.5 288.5,-448.5"/>
<text text-anchor="middle" x="347" y="-455.5" font-family="FreeSans.ttf" font-size="10.00" fill="#000000">MaterialElement.cpp</text>
</g>
<!-- Node1 -->
<g id="node2" class="node">
<title>Node1</title>
<g id="a_node2"><a xlink:href="MaterialElement_8h.html" target="_top" xlink:title="MaterialElement.h">
<polygon fill="none" stroke="#000000" points="129,-168.5 129,-187.5 235,-187.5 235,-168.5 129,-168.5"/>
<text text-anchor="middle" x="182" y="-175.5" font-family="FreeSans.ttf" font-size="10.00" fill="#000000">MaterialElement.h</text>
</a>
</g>
</g>
<!-- Node0&#45;&gt;Node1 -->
<g id="edge1" class="edge">
<title>Node0&#45;&gt;Node1</title>
<path fill="none" stroke="#191970" d="M300.9042,-448.4667C263.6083,-439.8755 215.0563,-426.411 201,-412 179.6865,-390.1485 182,-376.5246 182,-346 182,-346 182,-346 182,-290 182,-257.7116 182,-220.1872 182,-197.8048"/>
<polygon fill="#191970" stroke="#191970" points="185.5001,-197.5883 182,-187.5884 178.5001,-197.5884 185.5001,-197.5883"/>
</g>
<!-- Node9 -->
<g id="node10" class="node">
<title>Node9</title>
<g id="a_node10"><a xlink:href="Utils_8h.html" target="_top" xlink:title="iDynTree/Core/Utils.h">
<polygon fill="none" stroke="#000000" points="1263.5,-56.5 1263.5,-75.5 1382.5,-75.5 1382.5,-56.5 1263.5,-56.5"/>
<text text-anchor="middle" x="1323" y="-63.5" font-family="FreeSans.ttf" font-size="10.00" fill="#000000">iDynTree/Core/Utils.h</text>
</a>
</g>
</g>
<!-- Node0&#45;&gt;Node9 -->
<g id="edge62" class="edge">
<title>Node0&#45;&gt;Node9</title>
<path fill="none" stroke="#191970" d="M405.5371,-457.3032C612.8807,-454.0713 1300,-436.5313 1300,-346 1300,-346 1300,-346 1300,-178 1300,-144.906 1309.7548,-107.4151 1316.5588,-85.2901"/>
<polygon fill="#191970" stroke="#191970" points="1319.8974,-86.3405 1319.6063,-75.7497 1313.2294,-84.2105 1319.8974,-86.3405"/>
</g>
<!-- Node22 -->
<g id="node23" class="node">
<title>Node22</title>
<g id="a_node23"><a xlink:href="URDFParsingUtils_8h.html" target="_top" xlink:title="URDFParsingUtils.h">
<polygon fill="none" stroke="#000000" points="362,-392.5 362,-411.5 472,-411.5 472,-392.5 362,-392.5"/>
<text text-anchor="middle" x="417" y="-399.5" font-family="FreeSans.ttf" font-size="10.00" fill="#000000">URDFParsingUtils.h</text>
</a>
</g>
</g>
<!-- Node0&#45;&gt;Node22 -->
<g id="edge27" class="edge">
<title>Node0&#45;&gt;Node22</title>
<path fill="none" stroke="#191970" d="M359.1931,-448.2455C369.6321,-439.8943 384.8655,-427.7076 397.074,-417.9408"/>
<polygon fill="#191970" stroke="#191970" points="399.3244,-420.6227 404.9467,-411.6427 394.9515,-415.1566 399.3244,-420.6227"/>
</g>
<!-- Node34 -->
<g id="node35" class="node">
<title>Node34</title>
<g id="a_node35"><a xlink:href="XMLAttribute_8h.html" target="_top" xlink:title="iDynTree/XMLAttribute.h">
<polygon fill="none" stroke="#000000" points="210,-392.5 210,-411.5 344,-411.5 344,-392.5 210,-392.5"/>
<text text-anchor="middle" x="277" y="-399.5" font-family="FreeSans.ttf" font-size="10.00" fill="#000000">iDynTree/XMLAttribute.h</text>
</a>
</g>
</g>
<!-- Node0&#45;&gt;Node34 -->
<g id="edge60" class="edge">
<title>Node0&#45;&gt;Node34</title>
<path fill="none" stroke="#191970" d="M334.8069,-448.2455C324.3679,-439.8943 309.1345,-427.7076 296.926,-417.9408"/>
<polygon fill="#191970" stroke="#191970" points="299.0485,-415.1566 289.0533,-411.6427 294.6756,-420.6227 299.0485,-415.1566"/>
</g>
<!-- Node2 -->
<g id="node3" class="node">
<title>Node2</title>
<g id="a_node3"><a xlink:href="XMLElement_8h.html" target="_top" xlink:title="iDynTree/XMLElement.h">
<polygon fill="none" stroke="#000000" points="95,-112.5 95,-131.5 227,-131.5 227,-112.5 95,-112.5"/>
<text text-anchor="middle" x="161" y="-119.5" font-family="FreeSans.ttf" font-size="10.00" fill="#000000">iDynTree/XMLElement.h</text>
</a>
</g>
</g>
<!-- Node1&#45;&gt;Node2 -->
<g id="edge2" class="edge">
<title>Node1&#45;&gt;Node2</title>
<path fill="none" stroke="#191970" d="M178.3421,-168.2455C175.5416,-160.7776 171.591,-150.2427 168.1676,-141.1137"/>
<polygon fill="#191970" stroke="#191970" points="171.4045,-139.777 164.616,-131.6427 164.8501,-142.2349 171.4045,-139.777"/>
</g>
<!-- Node4 -->
<g id="node5" class="node">
<title>Node4</title>
<polygon fill="none" stroke="#bfbfbf" points="0,-56.5 0,-75.5 58,-75.5 58,-56.5 0,-56.5"/>
<text text-anchor="middle" x="29" y="-63.5" font-family="FreeSans.ttf" font-size="10.00" fill="#000000">memory</text>
</g>
<!-- Node1&#45;&gt;Node4 -->
<g id="edge25" class="edge">
<title>Node1&#45;&gt;Node4</title>
<path fill="none" stroke="#191970" d="M154.6718,-168.4057C134.4908,-160.5219 106.9967,-148.0495 86,-132 68.2392,-118.424 52.004,-98.552 41.4431,-84.1634"/>
<polygon fill="#191970" stroke="#191970" points="44.0136,-81.7389 35.3635,-75.6211 38.3105,-85.7978 44.0136,-81.7389"/>
</g>
<!-- Node5 -->
<g id="node6" class="node">
<title>Node5</title>
<polygon fill="none" stroke="#bfbfbf" points="606,-56.5 606,-75.5 650,-75.5 650,-56.5 606,-56.5"/>
<text text-anchor="middle" x="628" y="-63.5" font-family="FreeSans.ttf" font-size="10.00" fill="#000000">string</text>
</g>
<!-- Node1&#45;&gt;Node5 -->
<g id="edge26" class="edge">
<title>Node1&#45;&gt;Node5</title>
<path fill="none" stroke="#191970" d="M197.5482,-168.4109C222.0093,-153.7928 271.4014,-126.1444 317,-112 415.6821,-81.3894 538.4744,-70.8966 595.7619,-67.5069"/>
<polygon fill="#191970" stroke="#191970" points="596.2082,-70.9876 605.998,-66.9365 595.8187,-63.9984 596.2082,-70.9876"/>
</g>
<!-- Node8 -->
<g id="node9" class="node">
<title>Node8</title>
<g id="a_node9"><a xlink:href="VectorFixSize_8h.html" target="_top" xlink:title="iDynTree/Core/VectorFixSize.h">
<polygon fill="none" stroke="#000000" points="1048.5,-112.5 1048.5,-131.5 1209.5,-131.5 1209.5,-112.5 1048.5,-112.5"/>
<text text-anchor="middle" x="1129" y="-119.5" font-family="FreeSans.ttf" font-size="10.00" fill="#000000">iDynTree/Core/VectorFixSize.h</text>
</a>
</g>
</g>
<!-- Node1&#45;&gt;Node8 -->
<g id="edge8" class="edge">
<title>Node1&#45;&gt;Node8</title>
<path fill="none" stroke="#191970" d="M235.2889,-176.2246C368.7205,-171.5466 728.1533,-157.5133 1038.4013,-132.0912"/>
<polygon fill="#191970" stroke="#191970" points="1038.812,-135.5693 1048.4904,-131.259 1038.2364,-128.593 1038.812,-135.5693"/>
</g>
<!-- Node3 -->
<g id="node4" class="node">
<title>Node3</title>
<polygon fill="none" stroke="#bfbfbf" points="187.5,-56.5 187.5,-75.5 252.5,-75.5 252.5,-56.5 187.5,-56.5"/>
<text text-anchor="middle" x="220" y="-63.5" font-family="FreeSans.ttf" font-size="10.00" fill="#000000">functional</text>
</g>
<!-- Node2&#45;&gt;Node3 -->
<g id="edge3" class="edge">
<title>Node2&#45;&gt;Node3</title>
<path fill="none" stroke="#191970" d="M171.277,-112.2455C179.8218,-104.1352 192.1778,-92.4075 202.3085,-82.7919"/>
<polygon fill="#191970" stroke="#191970" points="204.9972,-85.0655 209.8408,-75.6427 200.1782,-79.9884 204.9972,-85.0655"/>
</g>
<!-- Node2&#45;&gt;Node4 -->
<g id="edge4" class="edge">
<title>Node2&#45;&gt;Node4</title>
<path fill="none" stroke="#191970" d="M138.3084,-112.3733C116.9289,-103.3032 84.6943,-89.6279 60.7638,-79.4755"/>
<polygon fill="#191970" stroke="#191970" points="61.9683,-76.1846 51.3955,-75.5011 59.2344,-82.6287 61.9683,-76.1846"/>
</g>
<!-- Node2&#45;&gt;Node5 -->
<g id="edge5" class="edge">
<title>Node2&#45;&gt;Node5</title>
<path fill="none" stroke="#191970" d="M227.4138,-114.036C328.9394,-101.8617 518.9647,-79.0749 595.1595,-69.9381"/>
<polygon fill="#191970" stroke="#191970" points="596.0391,-73.3577 605.5513,-68.6919 595.2057,-66.4075 596.0391,-73.3577"/>
</g>
<!-- Node6 -->
<g id="node7" class="node">
<title>Node6</title>
<polygon fill="none" stroke="#bfbfbf" points="76.5,-56.5 76.5,-75.5 169.5,-75.5 169.5,-56.5 76.5,-56.5"/>
<text text-anchor="middle" x="123" y="-63.5" font-family="FreeSans.ttf" font-size="10.00" fill="#000000">unordered_map</text>
</g>
<!-- Node2&#45;&gt;Node6 -->
<g id="edge6" class="edge">
<title>Node2&#45;&gt;Node6</title>
<path fill="none" stroke="#191970" d="M154.3809,-112.2455C149.0954,-104.4564 141.5459,-93.3308 135.1762,-83.9439"/>
<polygon fill="#191970" stroke="#191970" points="138.0545,-81.9522 129.5432,-75.6427 132.2621,-85.8827 138.0545,-81.9522"/>
</g>
<!-- Node7 -->
<g id="node8" class="node">
<title>Node7</title>
<polygon fill="none" stroke="#bfbfbf" points="270.5,-56.5 270.5,-75.5 317.5,-75.5 317.5,-56.5 270.5,-56.5"/>
<text text-anchor="middle" x="294" y="-63.5" font-family="FreeSans.ttf" font-size="10.00" fill="#000000">vector</text>
</g>
<!-- Node2&#45;&gt;Node7 -->
<g id="edge7" class="edge">
<title>Node2&#45;&gt;Node7</title>
<path fill="none" stroke="#191970" d="M183.8635,-112.3733C205.405,-103.3032 237.8838,-89.6279 261.9956,-79.4755"/>
<polygon fill="#191970" stroke="#191970" points="263.5767,-82.6075 271.4348,-75.5011 260.8603,-76.156 263.5767,-82.6075"/>
</g>
<!-- Node8&#45;&gt;Node5 -->
<g id="edge21" class="edge">
<title>Node8&#45;&gt;Node5</title>
<path fill="none" stroke="#191970" d="M1048.4701,-112.9491C1045.6116,-112.6287 1042.7814,-112.3115 1040,-112 898.7829,-96.183 730.3281,-77.4021 660.6467,-69.6372"/>
<polygon fill="#191970" stroke="#191970" points="660.6568,-66.1167 650.3307,-68.4877 659.8816,-73.0737 660.6568,-66.1167"/>
</g>
<!-- Node8&#45;&gt;Node9 -->
<g id="edge9" class="edge">
<title>Node8&#45;&gt;Node9</title>
<path fill="none" stroke="#191970" d="M1162.3498,-112.3733C1195.028,-102.9404 1244.9618,-88.5265 1280.477,-78.2747"/>
<polygon fill="#191970" stroke="#191970" points="1281.4484,-81.6373 1290.0854,-75.5011 1279.507,-74.9119 1281.4484,-81.6373"/>
</g>
<!-- Node11 -->
<g id="node12" class="node">
<title>Node11</title>
<g id="a_node12"><a xlink:href="Span_8h.html" target="_top" xlink:title="iDynTree/Core/Span.h">
<polygon fill="none" stroke="#000000" points="1049.5,-56.5 1049.5,-75.5 1170.5,-75.5 1170.5,-56.5 1049.5,-56.5"/>
<text text-anchor="middle" x="1110" y="-63.5" font-family="FreeSans.ttf" font-size="10.00" fill="#000000">iDynTree/Core/Span.h</text>
</a>
</g>
</g>
<!-- Node8&#45;&gt;Node11 -->
<g id="edge11" class="edge">
<title>Node8&#45;&gt;Node11</title>
<path fill="none" stroke="#191970" d="M1125.6905,-112.2455C1123.1567,-104.7776 1119.5823,-94.2427 1116.485,-85.1137"/>
<polygon fill="#191970" stroke="#191970" points="1119.7991,-83.9879 1113.2716,-75.6427 1113.1702,-86.237 1119.7991,-83.9879"/>
</g>
<!-- Node12 -->
<g id="node13" class="node">
<title>Node12</title>
<polygon fill="none" stroke="#bfbfbf" points="837,-.5 837,-19.5 889,-19.5 889,-.5 837,-.5"/>
<text text-anchor="middle" x="863" y="-7.5" font-family="FreeSans.ttf" font-size="10.00" fill="#000000">cassert</text>
</g>
<!-- Node8&#45;&gt;Node12 -->
<g id="edge23" class="edge">
<title>Node8&#45;&gt;Node12</title>
<path fill="none" stroke="#191970" d="M1110.7491,-112.4676C1076.278,-94.47 1004.7757,-57.1717 1002,-56 983.2435,-48.0825 933.5359,-32.0626 898.9554,-21.1802"/>
<polygon fill="#191970" stroke="#191970" points="899.7905,-17.774 889.2013,-18.1204 897.6952,-24.4531 899.7905,-17.774"/>
</g>
<!-- Node20 -->
<g id="node21" class="node">
<title>Node20</title>
<polygon fill="none" stroke="#bfbfbf" points="1189,-56.5 1189,-75.5 1245,-75.5 1245,-56.5 1189,-56.5"/>
<text text-anchor="middle" x="1217" y="-63.5" font-family="FreeSans.ttf" font-size="10.00" fill="#000000">sstream</text>
</g>
<!-- Node8&#45;&gt;Node20 -->
<g id="edge22" class="edge">
<title>Node8&#45;&gt;Node20</title>
<path fill="none" stroke="#191970" d="M1144.3284,-112.2455C1157.8303,-103.6534 1177.7122,-91.0014 1193.2686,-81.1018"/>
<polygon fill="#191970" stroke="#191970" points="1195.2897,-83.9643 1201.8472,-75.6427 1191.5315,-78.0587 1195.2897,-83.9643"/>
</g>
<!-- Node21 -->
<g id="node22" class="node">
<title>Node21</title>
<polygon fill="none" stroke="#bfbfbf" points="943,-56.5 943,-75.5 993,-75.5 993,-56.5 943,-56.5"/>
<text text-anchor="middle" x="968" y="-63.5" font-family="FreeSans.ttf" font-size="10.00" fill="#000000">cstring</text>
</g>
<!-- Node8&#45;&gt;Node21 -->
<g id="edge24" class="edge">
<title>Node8&#45;&gt;Node21</title>
<path fill="none" stroke="#191970" d="M1101.3231,-112.3733C1074.0209,-102.8769 1032.2049,-88.3321 1002.6959,-78.0682"/>
<polygon fill="#191970" stroke="#191970" points="1003.7939,-74.7444 993.1991,-74.7649 1001.4942,-81.3559 1003.7939,-74.7444"/>
</g>
<!-- Node10 -->
<g id="node11" class="node">
<title>Node10</title>
<polygon fill="none" stroke="#bfbfbf" points="1416.5,-.5 1416.5,-19.5 1469.5,-19.5 1469.5,-.5 1416.5,-.5"/>
<text text-anchor="middle" x="1443" y="-7.5" font-family="FreeSans.ttf" font-size="10.00" fill="#000000">cstddef</text>
</g>
<!-- Node9&#45;&gt;Node10 -->
<g id="edge10" class="edge">
<title>Node9&#45;&gt;Node10</title>
<path fill="none" stroke="#191970" d="M1343.6287,-56.3733C1362.8919,-47.3838 1391.8486,-33.8706 1413.5419,-23.7471"/>
<polygon fill="#191970" stroke="#191970" points="1415.0587,-26.9017 1422.6405,-19.5011 1412.0985,-20.5584 1415.0587,-26.9017"/>
</g>
<!-- Node11&#45;&gt;Node10 -->
<g id="edge15" class="edge">
<title>Node11&#45;&gt;Node10</title>
<path fill="none" stroke="#191970" d="M1170.8159,-57.029C1244.4488,-46.1083 1363.1883,-28.2907 1406.4358,-20.014"/>
<polygon fill="#191970" stroke="#191970" points="1407.238,-23.4225 1416.3345,-17.9908 1405.8362,-16.5643 1407.238,-23.4225"/>
</g>
<!-- Node11&#45;&gt;Node12 -->
<g id="edge12" class="edge">
<title>Node11&#45;&gt;Node12</title>
<path fill="none" stroke="#191970" d="M1061.8015,-56.467C1020.8864,-48.1662 960.4145,-35.4095 899.1591,-20.183"/>
<polygon fill="#191970" stroke="#191970" points="899.875,-16.7543 889.3241,-17.7184 898.1734,-23.5443 899.875,-16.7543"/>
</g>
<!-- Node13 -->
<g id="node14" class="node">
<title>Node13</title>
<polygon fill="none" stroke="#bfbfbf" points="907,-.5 907,-19.5 971,-19.5 971,-.5 907,-.5"/>
<text text-anchor="middle" x="939" y="-7.5" font-family="FreeSans.ttf" font-size="10.00" fill="#000000">algorithm</text>
</g>
<!-- Node11&#45;&gt;Node13 -->
<g id="edge13" class="edge">
<title>Node11&#45;&gt;Node13</title>
<path fill="none" stroke="#191970" d="M1080.6041,-56.3733C1052.1693,-47.0613 1008.9123,-32.8953 977.6919,-22.671"/>
<polygon fill="#191970" stroke="#191970" points="978.605,-19.2872 968.0124,-19.5011 976.4264,-25.9396 978.605,-19.2872"/>
</g>
<!-- Node14 -->
<g id="node15" class="node">
<title>Node14</title>
<polygon fill="none" stroke="#bfbfbf" points="989,-.5 989,-19.5 1031,-19.5 1031,-.5 989,-.5"/>
<text text-anchor="middle" x="1010" y="-7.5" font-family="FreeSans.ttf" font-size="10.00" fill="#000000">array</text>
</g>
<!-- Node11&#45;&gt;Node14 -->
<g id="edge14" class="edge">
<title>Node11&#45;&gt;Node14</title>
<path fill="none" stroke="#191970" d="M1092.5813,-56.2455C1076.9515,-47.4928 1053.7981,-34.527 1035.9815,-24.5496"/>
<polygon fill="#191970" stroke="#191970" points="1037.6543,-21.475 1027.2191,-19.6427 1034.234,-27.5825 1037.6543,-21.475"/>
</g>
<!-- Node15 -->
<g id="node16" class="node">
<title>Node15</title>
<polygon fill="none" stroke="#bfbfbf" points="1049.5,-.5 1049.5,-19.5 1102.5,-19.5 1102.5,-.5 1049.5,-.5"/>
<text text-anchor="middle" x="1076" y="-7.5" font-family="FreeSans.ttf" font-size="10.00" fill="#000000">iterator</text>
</g>
<!-- Node11&#45;&gt;Node15 -->
<g id="edge16" class="edge">
<title>Node11&#45;&gt;Node15</title>
<path fill="none" stroke="#191970" d="M1104.0777,-56.2455C1099.3973,-48.5367 1092.7327,-37.5598 1087.0711,-28.2348"/>
<polygon fill="#191970" stroke="#191970" points="1090.0361,-26.3741 1081.8545,-19.6427 1084.0525,-30.007 1090.0361,-26.3741"/>
</g>
<!-- Node16 -->
<g id="node17" class="node">
<title>Node16</title>
<polygon fill="none" stroke="#bfbfbf" points="1121,-.5 1121,-19.5 1165,-19.5 1165,-.5 1121,-.5"/>
<text text-anchor="middle" x="1143" y="-7.5" font-family="FreeSans.ttf" font-size="10.00" fill="#000000">limits</text>
</g>
<!-- Node11&#45;&gt;Node16 -->
<g id="edge17" class="edge">
<title>Node11&#45;&gt;Node16</title>
<path fill="none" stroke="#191970" d="M1115.7482,-56.2455C1120.2435,-48.617 1126.6248,-37.7881 1132.0825,-28.5267"/>
<polygon fill="#191970" stroke="#191970" points="1135.2561,-30.035 1137.3177,-19.6427 1129.2253,-26.4811 1135.2561,-30.035"/>
</g>
<!-- Node17 -->
<g id="node18" class="node">
<title>Node17</title>
<polygon fill="none" stroke="#bfbfbf" points="1183.5,-.5 1183.5,-19.5 1248.5,-19.5 1248.5,-.5 1183.5,-.5"/>
<text text-anchor="middle" x="1216" y="-7.5" font-family="FreeSans.ttf" font-size="10.00" fill="#000000">stdexcept</text>
</g>
<!-- Node11&#45;&gt;Node17 -->
<g id="edge18" class="edge">
<title>Node11&#45;&gt;Node17</title>
<path fill="none" stroke="#191970" d="M1128.4638,-56.2455C1145.1074,-47.4527 1169.7993,-34.4079 1188.7192,-24.4125"/>
<polygon fill="#191970" stroke="#191970" points="1190.5408,-27.4086 1197.7478,-19.6427 1187.2709,-21.2193 1190.5408,-27.4086"/>
</g>
<!-- Node18 -->
<g id="node19" class="node">
<title>Node18</title>
<polygon fill="none" stroke="#bfbfbf" points="1266.5,-.5 1266.5,-19.5 1335.5,-19.5 1335.5,-.5 1266.5,-.5"/>
<text text-anchor="middle" x="1301" y="-7.5" font-family="FreeSans.ttf" font-size="10.00" fill="#000000">type_traits</text>
</g>
<!-- Node11&#45;&gt;Node18 -->
<g id="edge19" class="edge">
<title>Node11&#45;&gt;Node18</title>
<path fill="none" stroke="#191970" d="M1142.8341,-56.3733C1174.8695,-46.9807 1223.7487,-32.6496 1258.6855,-22.4064"/>
<polygon fill="#191970" stroke="#191970" points="1259.9831,-25.6733 1268.5944,-19.5011 1258.0136,-18.9561 1259.9831,-25.6733"/>
</g>
<!-- Node19 -->
<g id="node20" class="node">
<title>Node19</title>
<polygon fill="none" stroke="#bfbfbf" points="1353.5,-.5 1353.5,-19.5 1398.5,-19.5 1398.5,-.5 1353.5,-.5"/>
<text text-anchor="middle" x="1376" y="-7.5" font-family="FreeSans.ttf" font-size="10.00" fill="#000000">utility</text>
</g>
<!-- Node11&#45;&gt;Node19 -->
<g id="edge20" class="edge">
<title>Node11&#45;&gt;Node19</title>
<path fill="none" stroke="#191970" d="M1168.8616,-56.4761C1214.3244,-48.6659 1278.9423,-36.5814 1343.4698,-20.1899"/>
<polygon fill="#191970" stroke="#191970" points="1344.5929,-23.515 1353.404,-17.6315 1342.847,-16.7361 1344.5929,-23.515"/>
</g>
<!-- Node22&#45;&gt;Node5 -->
<g id="edge30" class="edge">
<title>Node22&#45;&gt;Node5</title>
<path fill="none" stroke="#191970" d="M413.3922,-392.107C402.2292,-361.155 369,-266.3055 369,-234 369,-234 369,-234 369,-178 369,-140.6561 389.3816,-131.8707 421,-112 449.809,-93.8949 544.942,-77.9522 595.5962,-70.4889"/>
<polygon fill="#191970" stroke="#191970" points="596.2951,-73.9243 605.6903,-69.0273 595.2919,-66.9966 596.2951,-73.9243"/>
</g>
<!-- Node22&#45;&gt;Node7 -->
<g id="edge31" class="edge">
<title>Node22&#45;&gt;Node7</title>
<path fill="none" stroke="#191970" d="M383.3214,-392.3469C364.0343,-385.2104 340.799,-373.6236 326,-356 306.2896,-332.5275 306,-320.6506 306,-290 306,-290 306,-290 306,-234 306,-180.3519 299.8365,-117.3117 296.344,-85.8964"/>
<polygon fill="#191970" stroke="#191970" points="299.8064,-85.3675 295.1945,-75.8292 292.8516,-86.1617 299.8064,-85.3675"/>
</g>
<!-- Node22&#45;&gt;Node8 -->
<g id="edge59" class="edge">
<title>Node22&#45;&gt;Node8</title>
<path fill="none" stroke="#191970" d="M472.2484,-398.8831C636.4267,-388.8906 1110,-354.4788 1110,-290 1110,-290 1110,-290 1110,-234 1110,-201.2688 1117.9852,-163.9052 1123.6022,-141.6716"/>
<polygon fill="#191970" stroke="#191970" points="1127.0415,-142.3545 1126.1965,-131.7934 1120.2711,-140.5763 1127.0415,-142.3545"/>
</g>
<!-- Node22&#45;&gt;Node20 -->
<g id="edge29" class="edge">
<title>Node22&#45;&gt;Node20</title>
<path fill="none" stroke="#191970" d="M472.143,-400.2967C656.2214,-393.8877 1238,-367.5018 1238,-290 1238,-290 1238,-290 1238,-178 1238,-145.1675 1229.1743,-107.834 1222.966,-85.634"/>
<polygon fill="#191970" stroke="#191970" points="1226.2515,-84.3977 1220.0986,-75.7725 1219.5299,-86.3521 1226.2515,-84.3977"/>
</g>
<!-- Node23 -->
<g id="node24" class="node">
<title>Node23</title>
<polygon fill="none" stroke="#bfbfbf" points="334.5,-336.5 334.5,-355.5 383.5,-355.5 383.5,-336.5 334.5,-336.5"/>
<text text-anchor="middle" x="359" y="-343.5" font-family="FreeSans.ttf" font-size="10.00" fill="#000000">cstdlib</text>
</g>
<!-- Node22&#45;&gt;Node23 -->
<g id="edge28" class="edge">
<title>Node22&#45;&gt;Node23</title>
<path fill="none" stroke="#191970" d="M406.8972,-392.2455C398.4972,-384.1352 386.3506,-372.4075 376.3916,-362.7919"/>
<polygon fill="#191970" stroke="#191970" points="378.6122,-360.0707 368.9871,-355.6427 373.75,-365.1066 378.6122,-360.0707"/>
</g>
<!-- Node24 -->
<g id="node25" class="node">
<title>Node24</title>
<g id="a_node25"><a xlink:href="Transform_8h.html" target="_top" xlink:title="iDynTree/Core/Transform.h">
<polygon fill="none" stroke="#000000" points="527,-336.5 527,-355.5 673,-355.5 673,-336.5 527,-336.5"/>
<text text-anchor="middle" x="600" y="-343.5" font-family="FreeSans.ttf" font-size="10.00" fill="#000000">iDynTree/Core/Transform.h</text>
</a>
</g>
</g>
<!-- Node22&#45;&gt;Node24 -->
<g id="edge32" class="edge">
<title>Node22&#45;&gt;Node24</title>
<path fill="none" stroke="#191970" d="M448.4588,-392.3733C479.0207,-383.021 525.5826,-368.7725 559.0261,-358.5385"/>
<polygon fill="#191970" stroke="#191970" points="560.4136,-361.7742 568.9517,-355.5011 558.3652,-355.0806 560.4136,-361.7742"/>
</g>
<!-- Node24&#45;&gt;Node5 -->
<g id="edge58" class="edge">
<title>Node24&#45;&gt;Node5</title>
<path fill="none" stroke="#191970" d="M540.2169,-336.4686C496.9212,-328.422 443.2595,-315.7104 427,-300 404.9577,-278.7022 407,-264.6506 407,-234 407,-234 407,-234 407,-178 407,-94.6131 533.7332,-73.2917 595.2578,-67.854"/>
<polygon fill="#191970" stroke="#191970" points="595.9004,-71.3142 605.5931,-67.0363 595.3482,-64.336 595.9004,-71.3142"/>
</g>
<!-- Node25 -->
<g id="node26" class="node">
<title>Node25</title>
<g id="a_node26"><a xlink:href="Position_8h.html" target="_top" xlink:title="iDynTree/Core/Position.h">
<polygon fill="none" stroke="#000000" points="693,-280.5 693,-299.5 829,-299.5 829,-280.5 693,-280.5"/>
<text text-anchor="middle" x="761" y="-287.5" font-family="FreeSans.ttf" font-size="10.00" fill="#000000">iDynTree/Core/Position.h</text>
</a>
</g>
</g>
<!-- Node24&#45;&gt;Node25 -->
<g id="edge33" class="edge">
<title>Node24&#45;&gt;Node25</title>
<path fill="none" stroke="#191970" d="M627.6769,-336.3733C654.3328,-327.1016 694.8238,-313.0178 724.1884,-302.804"/>
<polygon fill="#191970" stroke="#191970" points="725.3891,-306.0921 733.6843,-299.5011 723.0895,-299.4807 725.3891,-306.0921"/>
</g>
<!-- Node28 -->
<g id="node29" class="node">
<title>Node28</title>
<g id="a_node29"><a xlink:href="Rotation_8h.html" target="_top" xlink:title="iDynTree/Core/Rotation.h">
<polygon fill="none" stroke="#000000" points="590.5,-224.5 590.5,-243.5 727.5,-243.5 727.5,-224.5 590.5,-224.5"/>
<text text-anchor="middle" x="659" y="-231.5" font-family="FreeSans.ttf" font-size="10.00" fill="#000000">iDynTree/Core/Rotation.h</text>
</a>
</g>
</g>
<!-- Node24&#45;&gt;Node28 -->
<g id="edge54" class="edge">
<title>Node24&#45;&gt;Node28</title>
<path fill="none" stroke="#191970" d="M611.6683,-336.209C621.187,-327.6071 634.2796,-314.2662 642,-300 649.7433,-285.6914 654.0729,-267.7133 656.422,-254.1353"/>
<polygon fill="#191970" stroke="#191970" points="659.9288,-254.3523 657.9609,-243.9419 653.0072,-253.3073 659.9288,-254.3523"/>
</g>
<!-- Node30 -->
<g id="node31" class="node">
<title>Node30</title>
<g id="a_node31"><a xlink:href="MatrixFixSize_8h.html" target="_top" xlink:title="iDynTree/Core/MatrixFixSize.h">
<polygon fill="none" stroke="#000000" points="869.5,-112.5 869.5,-131.5 1030.5,-131.5 1030.5,-112.5 869.5,-112.5"/>
<text text-anchor="middle" x="950" y="-119.5" font-family="FreeSans.ttf" font-size="10.00" fill="#000000">iDynTree/Core/MatrixFixSize.h</text>
</a>
</g>
</g>
<!-- Node24&#45;&gt;Node30 -->
<g id="edge57" class="edge">
<title>Node24&#45;&gt;Node30</title>
<path fill="none" stroke="#191970" d="M663.9506,-336.4462C763.5365,-320.4818 949.595,-285.9625 1001,-244 1029.5268,-220.7133 1052.7712,-199.6811 1034,-168 1025.1564,-153.0742 1009.5668,-142.6736 994.1998,-135.589"/>
<polygon fill="#191970" stroke="#191970" points="995.2971,-132.2534 984.7227,-131.5956 992.5789,-138.7041 995.2971,-132.2534"/>
</g>
<!-- Node33 -->
<g id="node34" class="node">
<title>Node33</title>
<g id="a_node34"><a xlink:href="TransformSemantics_8h.html" target="_top" xlink:title="iDynTree/Core/TransformSemantics.h">
<polygon fill="none" stroke="#000000" points="435.5,-280.5 435.5,-299.5 632.5,-299.5 632.5,-280.5 435.5,-280.5"/>
<text text-anchor="middle" x="534" y="-287.5" font-family="FreeSans.ttf" font-size="10.00" fill="#000000">iDynTree/Core/TransformSemantics.h</text>
</a>
</g>
</g>
<!-- Node24&#45;&gt;Node33 -->
<g id="edge55" class="edge">
<title>Node24&#45;&gt;Node33</title>
<path fill="none" stroke="#191970" d="M588.5037,-336.2455C578.7558,-327.9746 564.5741,-315.9416 553.1202,-306.2232"/>
<polygon fill="#191970" stroke="#191970" points="555.2541,-303.4437 545.3646,-299.6427 550.7253,-308.7813 555.2541,-303.4437"/>
</g>
<!-- Node25&#45;&gt;Node5 -->
<g id="edge53" class="edge">
<title>Node25&#45;&gt;Node5</title>
<path fill="none" stroke="#191970" d="M761.8307,-280.2749C763.7988,-250.5255 765.4465,-159.8683 718,-112 701.695,-95.5501 678.2781,-83.8346 659.4176,-76.3445"/>
<polygon fill="#191970" stroke="#191970" points="660.6238,-73.0588 650.0318,-72.8101 658.1568,-79.6097 660.6238,-73.0588"/>
</g>
<!-- Node26 -->
<g id="node27" class="node">
<title>Node26</title>
<g id="a_node27"><a xlink:href="PositionRaw_8h.html" target="_top" xlink:title="iDynTree/Core/PositionRaw.h">
<polygon fill="none" stroke="#000000" points="869,-168.5 869,-187.5 1025,-187.5 1025,-168.5 869,-168.5"/>
<text text-anchor="middle" x="947" y="-175.5" font-family="FreeSans.ttf" font-size="10.00" fill="#000000">iDynTree/Core/PositionRaw.h</text>
</a>
</g>
</g>
<!-- Node25&#45;&gt;Node26 -->
<g id="edge34" class="edge">
<title>Node25&#45;&gt;Node26</title>
<path fill="none" stroke="#191970" d="M829.0079,-285.3038C887.5398,-279.6778 965.5548,-267.8442 985,-244 997.6661,-228.4685 982.0107,-208.1909 967.1317,-194.2326"/>
<polygon fill="#191970" stroke="#191970" points="969.3907,-191.5581 959.5759,-187.568 964.7602,-196.8078 969.3907,-191.5581"/>
</g>
<!-- Node27 -->
<g id="node28" class="node">
<title>Node27</title>
<g id="a_node28"><a xlink:href="PositionSemantics_8h.html" target="_top" xlink:title="iDynTree/Core/PositionSemantics.h">
<polygon fill="none" stroke="#000000" points="788.5,-224.5 788.5,-243.5 975.5,-243.5 975.5,-224.5 788.5,-224.5"/>
<text text-anchor="middle" x="882" y="-231.5" font-family="FreeSans.ttf" font-size="10.00" fill="#000000">iDynTree/Core/PositionSemantics.h</text>
</a>
</g>
</g>
<!-- Node25&#45;&gt;Node27 -->
<g id="edge37" class="edge">
<title>Node25&#45;&gt;Node27</title>
<path fill="none" stroke="#191970" d="M781.8006,-280.3733C801.2243,-271.3838 830.4224,-257.8706 852.2964,-247.7471"/>
<polygon fill="#191970" stroke="#191970" points="853.8656,-250.8776 861.4708,-243.5011 850.9255,-244.5249 853.8656,-250.8776"/>
</g>
<!-- Node25&#45;&gt;Node28 -->
<g id="edge39" class="edge">
<title>Node25&#45;&gt;Node28</title>
<path fill="none" stroke="#191970" d="M743.233,-280.2455C727.2905,-271.4928 703.6741,-258.527 685.5011,-248.5496"/>
<polygon fill="#191970" stroke="#191970" points="687.0137,-245.3873 676.5634,-243.6427 683.6448,-251.5233 687.0137,-245.3873"/>
</g>
<!-- Node26&#45;&gt;Node5 -->
<g id="edge36" class="edge">
<title>Node26&#45;&gt;Node5</title>
<path fill="none" stroke="#191970" d="M929.0792,-168.2507C898.9649,-151.979 839.3154,-120.2537 817,-112 763.4399,-92.1899 698.172,-78.4798 660.0334,-71.4548"/>
<polygon fill="#191970" stroke="#191970" points="660.4903,-67.9808 650.028,-69.6511 659.2484,-74.8698 660.4903,-67.9808"/>
</g>
<!-- Node26&#45;&gt;Node8 -->
<g id="edge35" class="edge">
<title>Node26&#45;&gt;Node8</title>
<path fill="none" stroke="#191970" d="M978.2869,-168.3733C1008.6818,-159.021 1054.9893,-144.7725 1088.25,-134.5385"/>
<polygon fill="#191970" stroke="#191970" points="1089.5929,-137.7873 1098.1214,-131.5011 1087.5342,-131.0968 1089.5929,-137.7873"/>
</g>
<!-- Node27&#45;&gt;Node5 -->
<g id="edge38" class="edge">
<title>Node27&#45;&gt;Node5</title>
<path fill="none" stroke="#191970" d="M876.6254,-224.4592C863.2214,-201.5344 825.9859,-142.9635 779,-112 742.4054,-87.8843 692.6049,-75.9473 660.3787,-70.3841"/>
<polygon fill="#191970" stroke="#191970" points="660.5984,-66.8742 650.168,-68.7334 659.4812,-73.7845 660.5984,-66.8742"/>
</g>
<!-- Node28&#45;&gt;Node5 -->
<g id="edge40" class="edge">
<title>Node28&#45;&gt;Node5</title>
<path fill="none" stroke="#191970" d="M620.9024,-224.4497C602.1054,-217.6063 581.1252,-206.2734 570,-188 536.6457,-133.2147 634.4475,-182.585 670,-132 681.7047,-115.3462 665.3089,-95.5708 649.7035,-82.0369"/>
<polygon fill="#191970" stroke="#191970" points="651.7332,-79.1762 641.7681,-75.5781 647.3145,-84.6052 651.7332,-79.1762"/>
</g>
<!-- Node28&#45;&gt;Node8 -->
<g id="edge52" class="edge">
<title>Node28&#45;&gt;Node8</title>
<path fill="none" stroke="#191970" d="M684.0336,-224.4488C721.7161,-210.3775 795.4789,-184.0163 860,-168 921.5593,-152.7189 992.2971,-140.8406 1045.7795,-132.985"/>
<polygon fill="#191970" stroke="#191970" points="1046.5045,-136.4165 1055.898,-131.5164 1045.499,-129.4891 1046.5045,-136.4165"/>
</g>
<!-- Node29 -->
<g id="node30" class="node">
<title>Node29</title>
<g id="a_node30"><a xlink:href="RotationRaw_8h.html" target="_top" xlink:title="iDynTree/Core/RotationRaw.h">
<polygon fill="none" stroke="#000000" points="579,-168.5 579,-187.5 737,-187.5 737,-168.5 579,-168.5"/>
<text text-anchor="middle" x="658" y="-175.5" font-family="FreeSans.ttf" font-size="10.00" fill="#000000">iDynTree/Core/RotationRaw.h</text>
</a>
</g>
</g>
<!-- Node28&#45;&gt;Node29 -->
<g id="edge41" class="edge">
<title>Node28&#45;&gt;Node29</title>
<path fill="none" stroke="#191970" d="M658.8258,-224.2455C658.6953,-216.9382 658.5124,-206.6944 658.3519,-197.7046"/>
<polygon fill="#191970" stroke="#191970" points="661.8503,-197.5786 658.1722,-187.6427 654.8514,-197.7036 661.8503,-197.5786"/>
</g>
<!-- Node32 -->
<g id="node33" class="node">
<title>Node32</title>
<g id="a_node33"><a xlink:href="RotationSemantics_8h.html" target="_top" xlink:title="iDynTree/Core/RotationSemantics.h">
<polygon fill="none" stroke="#000000" points="473,-112.5 473,-131.5 661,-131.5 661,-112.5 473,-112.5"/>
<text text-anchor="middle" x="567" y="-119.5" font-family="FreeSans.ttf" font-size="10.00" fill="#000000">iDynTree/Core/RotationSemantics.h</text>
</a>
</g>
</g>
<!-- Node28&#45;&gt;Node32 -->
<g id="edge50" class="edge">
<title>Node28&#45;&gt;Node32</title>
<path fill="none" stroke="#191970" d="M620.1145,-224.4838C588.2324,-215.8019 546.8185,-202.1953 537,-188 526.3463,-172.5971 538.2124,-152.8025 550.0188,-138.925"/>
<polygon fill="#191970" stroke="#191970" points="552.6281,-141.258 556.7926,-131.5159 547.4618,-136.5346 552.6281,-141.258"/>
</g>
<!-- Node29&#45;&gt;Node5 -->
<g id="edge49" class="edge">
<title>Node29&#45;&gt;Node5</title>
<path fill="none" stroke="#191970" d="M672.8192,-168.2874C690.0484,-155.7161 714.719,-132.9353 703,-112 693.732,-95.4433 675.7997,-84.1236 659.7935,-76.8569"/>
<polygon fill="#191970" stroke="#191970" points="660.7478,-73.4628 650.1709,-72.8454 658.0543,-79.9238 660.7478,-73.4628"/>
</g>
<!-- Node29&#45;&gt;Node30 -->
<g id="edge42" class="edge">
<title>Node29&#45;&gt;Node30</title>
<path fill="none" stroke="#191970" d="M707.8648,-168.4369C758.3633,-158.7522 836.4835,-143.7703 890.2605,-133.4569"/>
<polygon fill="#191970" stroke="#191970" points="891.1791,-136.8446 900.3409,-131.5237 889.8606,-129.9699 891.1791,-136.8446"/>
</g>
<!-- Node30&#45;&gt;Node5 -->
<g id="edge46" class="edge">
<title>Node30&#45;&gt;Node5</title>
<path fill="none" stroke="#191970" d="M895.0121,-112.4369C827.485,-100.693 715.1683,-81.1597 660.2415,-71.6072"/>
<polygon fill="#191970" stroke="#191970" points="660.5035,-68.1003 650.0516,-69.8351 659.304,-74.9968 660.5035,-68.1003"/>
</g>
<!-- Node30&#45;&gt;Node9 -->
<g id="edge43" class="edge">
<title>Node30&#45;&gt;Node9</title>
<path fill="none" stroke="#191970" d="M1013.6972,-112.4369C1080.1959,-102.4532 1184.1916,-86.8399 1252.9624,-76.515"/>
<polygon fill="#191970" stroke="#191970" points="1253.8956,-79.9142 1263.2651,-74.9682 1252.8562,-72.9918 1253.8956,-79.9142"/>
</g>
<!-- Node30&#45;&gt;Node12 -->
<g id="edge44" class="edge">
<title>Node30&#45;&gt;Node12</title>
<path fill="none" stroke="#191970" d="M942.5824,-112.4509C927.9435,-93.6054 895.1472,-51.3849 876.5486,-27.4419"/>
<polygon fill="#191970" stroke="#191970" points="879.2974,-25.2751 870.3988,-19.5249 873.7693,-29.5693 879.2974,-25.2751"/>
</g>
<!-- Node30&#45;&gt;Node20 -->
<g id="edge48" class="edge">
<title>Node30&#45;&gt;Node20</title>
<path fill="none" stroke="#191970" d="M1002.7404,-112.4854C1047.3063,-104.2114 1113.0292,-91.4632 1179.03,-76.1204"/>
<polygon fill="#191970" stroke="#191970" points="1179.8299,-79.5278 1188.7673,-73.8381 1178.2325,-72.7125 1179.8299,-79.5278"/>
</g>
<!-- Node30&#45;&gt;Node21 -->
<g id="edge45" class="edge">
<title>Node30&#45;&gt;Node21</title>
<path fill="none" stroke="#191970" d="M953.1354,-112.2455C955.51,-104.8579 958.8493,-94.4689 961.7615,-85.4087"/>
<polygon fill="#191970" stroke="#191970" points="965.1725,-86.234 964.9006,-75.6427 958.5083,-84.0919 965.1725,-86.234"/>
</g>
<!-- Node31 -->
<g id="node32" class="node">
<title>Node31</title>
<polygon fill="none" stroke="#bfbfbf" points="827,-56.5 827,-75.5 887,-75.5 887,-56.5 827,-56.5"/>
<text text-anchor="middle" x="857" y="-63.5" font-family="FreeSans.ttf" font-size="10.00" fill="#000000">iostream</text>
</g>
<!-- Node30&#45;&gt;Node31 -->
<g id="edge47" class="edge">
<title>Node30&#45;&gt;Node31</title>
<path fill="none" stroke="#191970" d="M933.8006,-112.2455C919.3982,-103.5731 898.1268,-90.7645 881.6201,-80.825"/>
<polygon fill="#191970" stroke="#191970" points="883.386,-77.8028 873.0137,-75.6427 879.775,-83.7996 883.386,-77.8028"/>
</g>
<!-- Node32&#45;&gt;Node5 -->
<g id="edge51" class="edge">
<title>Node32&#45;&gt;Node5</title>
<path fill="none" stroke="#191970" d="M577.6254,-112.2455C586.5473,-104.0549 599.488,-92.1749 610.0192,-82.5069"/>
<polygon fill="#191970" stroke="#191970" points="612.4968,-84.9837 617.4964,-75.6427 607.7629,-79.8271 612.4968,-84.9837"/>
</g>
<!-- Node33&#45;&gt;Node5 -->
<g id="edge56" class="edge">
<title>Node33&#45;&gt;Node5</title>
<path fill="none" stroke="#191970" d="M523.9512,-280.2065C495.9642,-251.7489 421.8721,-167.57 464,-112 479.8849,-91.0465 552.8422,-77.0064 595.9127,-70.3861"/>
<polygon fill="#191970" stroke="#191970" points="596.5316,-73.8327 605.9082,-68.9002 595.5022,-66.9088 596.5316,-73.8327"/>
</g>
<!-- Node34&#45;&gt;Node5 -->
<g id="edge61" class="edge">
<title>Node34&#45;&gt;Node5</title>
<path fill="none" stroke="#191970" d="M275.7105,-392.4324C273.2219,-373.112 268,-328.0389 268,-290 268,-290 268,-290 268,-234 268,-158.2551 320.2831,-147.8628 387,-112 422.6876,-92.8166 538.4223,-76.7418 595.5267,-69.7491"/>
<polygon fill="#191970" stroke="#191970" points="596.2902,-73.1826 605.8,-68.5119 595.4532,-66.2328 596.2902,-73.1826"/>
</g>
</g>
</svg>
