<?xml version="1.0" encoding="UTF-8" standalone="no"?>
<!DOCTYPE svg PUBLIC "-//W3C//DTD SVG 1.1//EN"
 "http://www.w3.org/Graphics/SVG/1.1/DTD/svg11.dtd">
<!-- Generated by graphviz version 2.40.1 (20161225.0304)
 -->
<!-- Title: ModelInterfaceDestructors.cpp Pages: 1 -->
<svg width="174pt" height="196pt"
 viewBox="0.00 0.00 174.00 196.00" xmlns="http://www.w3.org/2000/svg" xmlns:xlink="http://www.w3.org/1999/xlink">
<g id="graph0" class="graph" transform="scale(1 1) rotate(0) translate(4 192)">
<title>ModelInterfaceDestructors.cpp</title>
<!-- Node0 -->
<g id="node1" class="node">
<title>Node0</title>
<polygon fill="#bfbfbf" stroke="#000000" points="0,-168.5 0,-187.5 166,-187.5 166,-168.5 0,-168.5"/>
<text text-anchor="middle" x="83" y="-175.5" font-family="FreeSans.ttf" font-size="10.00" fill="#000000">ModelInterfaceDestructors.cpp</text>
</g>
<!-- Node1 -->
<g id="node2" class="node">
<title>Node1</title>
<g id="a_node2"><a xlink:href="IJoint_8h.html" target="_top" xlink:title="iDynTree/Model/IJoint.h">
<polygon fill="none" stroke="#000000" points="19,-112.5 19,-131.5 147,-131.5 147,-112.5 19,-112.5"/>
<text text-anchor="middle" x="83" y="-119.5" font-family="FreeSans.ttf" font-size="10.00" fill="#000000">iDynTree/Model/IJoint.h</text>
</a>
</g>
</g>
<!-- Node0&#45;&gt;Node1 -->
<g id="edge1" class="edge">
<title>Node0&#45;&gt;Node1</title>
<path fill="none" stroke="#191970" d="M83,-168.2455C83,-160.9382 83,-150.6944 83,-141.7046"/>
<polygon fill="#191970" stroke="#191970" points="86.5001,-141.6426 83,-131.6427 79.5001,-141.6427 86.5001,-141.6426"/>
</g>
<!-- Node2 -->
<g id="node3" class="node">
<title>Node2</title>
<g id="a_node3"><a xlink:href="Indices_8h.html" target="_top" xlink:title="iDynTree/Model/Indices.h">
<polygon fill="none" stroke="#000000" points="14,-56.5 14,-75.5 152,-75.5 152,-56.5 14,-56.5"/>
<text text-anchor="middle" x="83" y="-63.5" font-family="FreeSans.ttf" font-size="10.00" fill="#000000">iDynTree/Model/Indices.h</text>
</a>
</g>
</g>
<!-- Node1&#45;&gt;Node2 -->
<g id="edge2" class="edge">
<title>Node1&#45;&gt;Node2</title>
<path fill="none" stroke="#191970" d="M83,-112.2455C83,-104.9382 83,-94.6944 83,-85.7046"/>
<polygon fill="#191970" stroke="#191970" points="86.5001,-85.6426 83,-75.6427 79.5001,-85.6427 86.5001,-85.6426"/>
</g>
<!-- Node3 -->
<g id="node4" class="node">
<title>Node3</title>
<polygon fill="none" stroke="#bfbfbf" points="61,-.5 61,-19.5 105,-19.5 105,-.5 61,-.5"/>
<text text-anchor="middle" x="83" y="-7.5" font-family="FreeSans.ttf" font-size="10.00" fill="#000000">string</text>
</g>
<!-- Node2&#45;&gt;Node3 -->
<g id="edge3" class="edge">
<title>Node2&#45;&gt;Node3</title>
<path fill="none" stroke="#191970" d="M83,-56.2455C83,-48.9382 83,-38.6944 83,-29.7046"/>
<polygon fill="#191970" stroke="#191970" points="86.5001,-29.6426 83,-19.6427 79.5001,-29.6427 86.5001,-29.6426"/>
</g>
</g>
</svg>
