<?xml version="1.0" encoding="UTF-8" standalone="no"?>
<!DOCTYPE svg PUBLIC "-//W3C//DTD SVG 1.1//EN"
 "http://www.w3.org/Graphics/SVG/1.1/DTD/svg11.dtd">
<!-- Generated by graphviz version 2.40.1 (20161225.0304)
 -->
<!-- Title: ModelLoader.h Pages: 1 -->
<svg width="2150pt" height="151pt"
 viewBox="0.00 0.00 2150.00 151.00" xmlns="http://www.w3.org/2000/svg" xmlns:xlink="http://www.w3.org/1999/xlink">
<g id="graph0" class="graph" transform="scale(1 1) rotate(0) translate(4 147)">
<title>ModelLoader.h</title>
<!-- Node56 -->
<g id="node1" class="node">
<title>Node56</title>
<polygon fill="#bfbfbf" stroke="#000000" points="1024.5,-123.5 1024.5,-142.5 1111.5,-142.5 1111.5,-123.5 1024.5,-123.5"/>
<text text-anchor="middle" x="1068" y="-130.5" font-family="FreeSans.ttf" font-size="10.00" fill="#000000">ModelLoader.h</text>
</g>
<!-- Node57 -->
<g id="node2" class="node">
<title>Node57</title>
<g id="a_node2"><a xlink:href="ExtWrenchesAndJointTorquesEstimator_8cpp.html" target="_top" xlink:title="ExtWrenchesAndJointTorques\lEstimator.cpp">
<polygon fill="none" stroke="#000000" points="0,-56.5 0,-86.5 158,-86.5 158,-56.5 0,-56.5"/>
<text text-anchor="start" x="8" y="-74.5" font-family="FreeSans.ttf" font-size="10.00" fill="#000000">ExtWrenchesAndJointTorques</text>
<text text-anchor="middle" x="79" y="-63.5" font-family="FreeSans.ttf" font-size="10.00" fill="#000000">Estimator.cpp</text>
</a>
</g>
</g>
<!-- Node56&#45;&gt;Node57 -->
<g id="edge1" class="edge">
<title>Node56&#45;&gt;Node57</title>
<path fill="none" stroke="#191970" d="M1014.2003,-132.5636C874.1652,-130.928 486.991,-123.2097 167,-87 164.0712,-86.6686 161.0925,-86.301 158.0872,-85.9044"/>
<polygon fill="#191970" stroke="#191970" points="1014.2058,-136.0638 1024.2442,-132.6754 1014.2837,-129.0643 1014.2058,-136.0638"/>
</g>
<!-- Node58 -->
<g id="node3" class="node">
<title>Node58</title>
<g id="a_node3"><a xlink:href="SimpleLeggedOdometry_8cpp.html" target="_top" xlink:title="SimpleLeggedOdometry.cpp">
<polygon fill="none" stroke="#000000" points="176.5,-62 176.5,-81 329.5,-81 329.5,-62 176.5,-62"/>
<text text-anchor="middle" x="253" y="-69" font-family="FreeSans.ttf" font-size="10.00" fill="#000000">SimpleLeggedOdometry.cpp</text>
</a>
</g>
</g>
<!-- Node56&#45;&gt;Node58 -->
<g id="edge2" class="edge">
<title>Node56&#45;&gt;Node58</title>
<path fill="none" stroke="#191970" d="M1014.1749,-131.7264C893.1319,-128.3983 590.3815,-117.4816 339,-87 326.3489,-85.466 312.7408,-83.2698 300.1659,-81.0112"/>
<polygon fill="#191970" stroke="#191970" points="1014.1992,-135.2282 1024.2897,-131.9983 1014.3874,-128.2307 1014.1992,-135.2282"/>
</g>
<!-- Node59 -->
<g id="node4" class="node">
<title>Node59</title>
<g id="a_node4"><a xlink:href="KinDynComputations_8cpp.html" target="_top" xlink:title="KinDynComputations.cpp">
<polygon fill="none" stroke="#000000" points="348,-62 348,-81 488,-81 488,-62 348,-62"/>
<text text-anchor="middle" x="418" y="-69" font-family="FreeSans.ttf" font-size="10.00" fill="#000000">KinDynComputations.cpp</text>
</a>
</g>
</g>
<!-- Node56&#45;&gt;Node59 -->
<g id="edge3" class="edge">
<title>Node56&#45;&gt;Node59</title>
<path fill="none" stroke="#191970" d="M1014.4876,-130.7157C913.1232,-125.9404 686.3078,-113.111 497,-87 485.6465,-85.434 473.461,-83.281 462.1412,-81.0776"/>
<polygon fill="#191970" stroke="#191970" points="1014.3292,-134.2121 1024.4807,-131.1795 1014.6537,-127.2196 1014.3292,-134.2121"/>
</g>
<!-- Node60 -->
<g id="node5" class="node">
<title>Node60</title>
<g id="a_node5"><a xlink:href="InverseKinematics_8cpp.html" target="_top" xlink:title="InverseKinematics.cpp">
<polygon fill="none" stroke="#000000" points="506,-62 506,-81 634,-81 634,-62 506,-62"/>
<text text-anchor="middle" x="570" y="-69" font-family="FreeSans.ttf" font-size="10.00" fill="#000000">InverseKinematics.cpp</text>
</a>
</g>
</g>
<!-- Node56&#45;&gt;Node60 -->
<g id="edge4" class="edge">
<title>Node56&#45;&gt;Node60</title>
<path fill="none" stroke="#191970" d="M1013.9325,-128.9158C932.9662,-122.4007 775.5574,-108.1906 643,-87 632.6371,-85.3434 621.5237,-83.1834 611.1723,-81.0043"/>
<polygon fill="#191970" stroke="#191970" points="1014.1204,-132.4417 1024.3668,-129.7467 1014.6762,-125.4638 1014.1204,-132.4417"/>
</g>
<!-- Node61 -->
<g id="node6" class="node">
<title>Node61</title>
<g id="a_node6"><a xlink:href="InverseKinematicsData_8cpp.html" target="_top" xlink:title="InverseKinematicsData.cpp">
<polygon fill="none" stroke="#000000" points="652.5,-62 652.5,-81 803.5,-81 803.5,-62 652.5,-62"/>
<text text-anchor="middle" x="728" y="-69" font-family="FreeSans.ttf" font-size="10.00" fill="#000000">InverseKinematicsData.cpp</text>
</a>
</g>
</g>
<!-- Node56&#45;&gt;Node61 -->
<g id="edge5" class="edge">
<title>Node56&#45;&gt;Node61</title>
<path fill="none" stroke="#191970" d="M1014.3639,-123.2982C950.4464,-111.7366 844.3331,-92.5426 780.7905,-81.0489"/>
<polygon fill="#191970" stroke="#191970" points="1013.7837,-126.7499 1024.247,-125.0859 1015.0297,-119.8617 1013.7837,-126.7499"/>
</g>
<!-- Node62 -->
<g id="node7" class="node">
<title>Node62</title>
<g id="a_node7"><a xlink:href="URDFDocument_8h.html" target="_top" xlink:title="URDFDocument.h">
<polygon fill="none" stroke="#000000" points="860.5,-62 860.5,-81 963.5,-81 963.5,-62 860.5,-62"/>
<text text-anchor="middle" x="912" y="-69" font-family="FreeSans.ttf" font-size="10.00" fill="#000000">URDFDocument.h</text>
</a>
</g>
</g>
<!-- Node56&#45;&gt;Node62 -->
<g id="edge6" class="edge">
<title>Node56&#45;&gt;Node62</title>
<path fill="none" stroke="#191970" d="M1034.1308,-119.6477C1004.5912,-108.0023 962.4658,-91.3952 936.2038,-81.0419"/>
<polygon fill="#191970" stroke="#191970" points="1033.0382,-122.9791 1043.625,-123.3906 1035.6055,-116.4669 1033.0382,-122.9791"/>
</g>
<!-- Node63 -->
<g id="node8" class="node">
<title>Node63</title>
<g id="a_node8"><a xlink:href="ModelLoader_8cpp.html" target="_top" xlink:title="ModelLoader.cpp">
<polygon fill="none" stroke="#000000" points="783,-.5 783,-19.5 881,-19.5 881,-.5 783,-.5"/>
<text text-anchor="middle" x="832" y="-7.5" font-family="FreeSans.ttf" font-size="10.00" fill="#000000">ModelLoader.cpp</text>
</a>
</g>
</g>
<!-- Node56&#45;&gt;Node63 -->
<g id="edge12" class="edge">
<title>Node56&#45;&gt;Node63</title>
<path fill="none" stroke="#191970" d="M1014.1129,-128.0939C957.5992,-121.8486 873.8637,-109.1207 851,-87 832.3962,-69.0008 830.8699,-35.9113 831.3717,-19.6025"/>
<polygon fill="#191970" stroke="#191970" points="1014.0123,-131.603 1024.3276,-129.1854 1014.7561,-124.6426 1014.0123,-131.603"/>
</g>
<!-- Node65 -->
<g id="node10" class="node">
<title>Node65</title>
<g id="a_node10"><a xlink:href="URDFGenericSensorsImport_8cpp.html" target="_top" xlink:title="URDFGenericSensorsImport.cpp">
<polygon fill="none" stroke="#000000" points="982,-62 982,-81 1154,-81 1154,-62 982,-62"/>
<text text-anchor="middle" x="1068" y="-69" font-family="FreeSans.ttf" font-size="10.00" fill="#000000">URDFGenericSensorsImport.cpp</text>
</a>
</g>
</g>
<!-- Node56&#45;&gt;Node65 -->
<g id="edge9" class="edge">
<title>Node56&#45;&gt;Node65</title>
<path fill="none" stroke="#191970" d="M1068,-113.2462C1068,-102.5519 1068,-89.814 1068,-81.2449"/>
<polygon fill="#191970" stroke="#191970" points="1064.5001,-113.3906 1068,-123.3906 1071.5001,-113.3907 1064.5001,-113.3906"/>
</g>
<!-- Node66 -->
<g id="node11" class="node">
<title>Node66</title>
<g id="a_node11"><a xlink:href="URDFModelImport_8cpp.html" target="_top" xlink:title="URDFModelImport.cpp">
<polygon fill="none" stroke="#000000" points="1172.5,-62 1172.5,-81 1297.5,-81 1297.5,-62 1172.5,-62"/>
<text text-anchor="middle" x="1235" y="-69" font-family="FreeSans.ttf" font-size="10.00" fill="#000000">URDFModelImport.cpp</text>
</a>
</g>
</g>
<!-- Node56&#45;&gt;Node66 -->
<g id="edge10" class="edge">
<title>Node56&#45;&gt;Node66</title>
<path fill="none" stroke="#191970" d="M1103.8457,-119.7993C1135.4875,-108.1468 1180.8535,-91.4402 1209.0895,-81.0419"/>
<polygon fill="#191970" stroke="#191970" points="1102.2681,-116.6504 1094.0938,-123.3906 1104.6872,-123.2192 1102.2681,-116.6504"/>
</g>
<!-- Node67 -->
<g id="node12" class="node">
<title>Node67</title>
<g id="a_node12"><a xlink:href="URDFSolidShapesImport_8cpp.html" target="_top" xlink:title="URDFSolidShapesImport.cpp">
<polygon fill="none" stroke="#000000" points="1315.5,-62 1315.5,-81 1470.5,-81 1470.5,-62 1315.5,-62"/>
<text text-anchor="middle" x="1393" y="-69" font-family="FreeSans.ttf" font-size="10.00" fill="#000000">URDFSolidShapesImport.cpp</text>
</a>
</g>
</g>
<!-- Node56&#45;&gt;Node67 -->
<g id="edge11" class="edge">
<title>Node56&#45;&gt;Node67</title>
<path fill="none" stroke="#191970" d="M1121.7118,-122.8361C1183.0871,-111.222 1282.7548,-92.3618 1342.6769,-81.0227"/>
<polygon fill="#191970" stroke="#191970" points="1121.0058,-119.4075 1111.8309,-124.7058 1122.3074,-126.2854 1121.0058,-119.4075"/>
</g>
<!-- Node68 -->
<g id="node13" class="node">
<title>Node68</title>
<g id="a_node13"><a xlink:href="URDFDofsImport_8cpp.html" target="_top" xlink:title="URDFDofsImport.cpp">
<polygon fill="none" stroke="#000000" points="1488.5,-62 1488.5,-81 1607.5,-81 1607.5,-62 1488.5,-62"/>
<text text-anchor="middle" x="1548" y="-69" font-family="FreeSans.ttf" font-size="10.00" fill="#000000">URDFDofsImport.cpp</text>
</a>
</g>
</g>
<!-- Node56&#45;&gt;Node68 -->
<g id="edge13" class="edge">
<title>Node56&#45;&gt;Node68</title>
<path fill="none" stroke="#191970" d="M1121.704,-128.9521C1200.6034,-122.565 1352.3218,-108.6082 1480,-87 1489.6703,-85.3634 1500.0287,-83.2107 1509.6718,-81.0324"/>
<polygon fill="#191970" stroke="#191970" points="1121.2148,-125.4799 1111.5259,-129.7666 1121.7733,-132.4576 1121.2148,-125.4799"/>
</g>
<!-- Node69 -->
<g id="node14" class="node">
<title>Node69</title>
<g id="a_node14"><a xlink:href="idyntree-model-info_8cpp.html" target="_top" xlink:title="idyntree&#45;model&#45;info.cpp">
<polygon fill="none" stroke="#000000" points="1626,-62 1626,-81 1760,-81 1760,-62 1626,-62"/>
<text text-anchor="middle" x="1693" y="-69" font-family="FreeSans.ttf" font-size="10.00" fill="#000000">idyntree&#45;model&#45;info.cpp</text>
</a>
</g>
</g>
<!-- Node56&#45;&gt;Node69 -->
<g id="edge14" class="edge">
<title>Node56&#45;&gt;Node69</title>
<path fill="none" stroke="#191970" d="M1121.6192,-130.6042C1220.1332,-125.7374 1436.4012,-112.8908 1617,-87 1627.9304,-85.433 1639.6561,-83.2796 1650.5462,-81.0761"/>
<polygon fill="#191970" stroke="#191970" points="1121.4275,-127.1093 1111.6094,-131.0911 1121.7677,-134.101 1121.4275,-127.1093"/>
</g>
<!-- Node70 -->
<g id="node15" class="node">
<title>Node70</title>
<g id="a_node15"><a xlink:href="idyntree-model-view_8cpp.html" target="_top" xlink:title="idyntree&#45;model&#45;view.cpp">
<polygon fill="none" stroke="#000000" points="1778,-62 1778,-81 1916,-81 1916,-62 1778,-62"/>
<text text-anchor="middle" x="1847" y="-69" font-family="FreeSans.ttf" font-size="10.00" fill="#000000">idyntree&#45;model&#45;view.cpp</text>
</a>
</g>
</g>
<!-- Node56&#45;&gt;Node70 -->
<g id="edge15" class="edge">
<title>Node56&#45;&gt;Node70</title>
<path fill="none" stroke="#191970" d="M1121.8651,-131.8615C1239.6869,-128.8469 1528.962,-118.5881 1769,-87 1780.4983,-85.4869 1792.8488,-83.2979 1804.2542,-81.0395"/>
<polygon fill="#191970" stroke="#191970" points="1121.5815,-128.3673 1111.6717,-132.115 1121.7557,-135.3652 1121.5815,-128.3673"/>
</g>
<!-- Node71 -->
<g id="node16" class="node">
<title>Node71</title>
<g id="a_node16"><a xlink:href="ObserverThread_8cpp.html" target="_top" xlink:title="ObserverThread.cpp">
<polygon fill="none" stroke="#000000" points="1934.5,-62 1934.5,-81 2049.5,-81 2049.5,-62 1934.5,-62"/>
<text text-anchor="middle" x="1992" y="-69" font-family="FreeSans.ttf" font-size="10.00" fill="#000000">ObserverThread.cpp</text>
</a>
</g>
</g>
<!-- Node56&#45;&gt;Node71 -->
<g id="edge16" class="edge">
<title>Node56&#45;&gt;Node71</title>
<path fill="none" stroke="#191970" d="M1121.736,-131.3392C1284.213,-126.1241 1768.7288,-109.0992 1925,-87 1935.1665,-85.5623 1946.0636,-83.3413 1956.0531,-81.0256"/>
<polygon fill="#191970" stroke="#191970" points="1121.3898,-127.8484 1111.5065,-131.6656 1121.6131,-134.8448 1121.3898,-127.8484"/>
</g>
<!-- Node72 -->
<g id="node17" class="node">
<title>Node72</title>
<g id="a_node17"><a xlink:href="urdf2dh_8cpp.html" target="_top" xlink:title="urdf2dh.cpp">
<polygon fill="none" stroke="#000000" points="2068,-62 2068,-81 2142,-81 2142,-62 2068,-62"/>
<text text-anchor="middle" x="2105" y="-69" font-family="FreeSans.ttf" font-size="10.00" fill="#000000">urdf2dh.cpp</text>
</a>
</g>
</g>
<!-- Node56&#45;&gt;Node72 -->
<g id="edge17" class="edge">
<title>Node56&#45;&gt;Node72</title>
<path fill="none" stroke="#191970" d="M1121.8868,-132.4714C1301.2403,-130.403 1876.9553,-121.199 2059,-87 2066.1229,-85.6619 2073.6514,-83.4736 2080.5091,-81.1573"/>
<polygon fill="#191970" stroke="#191970" points="1121.6065,-128.9742 1111.6466,-132.5866 1121.6853,-135.9737 1121.6065,-128.9742"/>
</g>
<!-- Node62&#45;&gt;Node63 -->
<g id="edge7" class="edge">
<title>Node62&#45;&gt;Node63</title>
<path fill="none" stroke="#191970" d="M891.381,-55.6491C876.5164,-44.222 856.943,-29.1749 844.4122,-19.5419"/>
<polygon fill="#191970" stroke="#191970" points="889.4387,-58.5707 899.5,-61.8906 893.7051,-53.021 889.4387,-58.5707"/>
</g>
<!-- Node64 -->
<g id="node9" class="node">
<title>Node64</title>
<g id="a_node9"><a xlink:href="URDFDocument_8cpp.html" target="_top" xlink:title="URDFDocument.cpp">
<polygon fill="none" stroke="#000000" points="899,-.5 899,-19.5 1013,-19.5 1013,-.5 899,-.5"/>
<text text-anchor="middle" x="956" y="-7.5" font-family="FreeSans.ttf" font-size="10.00" fill="#000000">URDFDocument.cpp</text>
</a>
</g>
</g>
<!-- Node62&#45;&gt;Node64 -->
<g id="edge8" class="edge">
<title>Node62&#45;&gt;Node64</title>
<path fill="none" stroke="#191970" d="M924.7017,-53.7465C932.621,-42.6775 942.5101,-28.8552 949.0281,-19.7449"/>
<polygon fill="#191970" stroke="#191970" points="921.8472,-51.7212 918.875,-61.8906 927.5402,-55.7943 921.8472,-51.7212"/>
</g>
</g>
</svg>
