<?xml version="1.0" encoding="UTF-8" standalone="no"?>
<!DOCTYPE svg PUBLIC "-//W3C//DTD SVG 1.1//EN"
 "http://www.w3.org/Graphics/SVG/1.1/DTD/svg11.dtd">
<!-- Generated by graphviz version 2.40.1 (20161225.0304)
 -->
<!-- Title: ModelVisualization.h Pages: 1 -->
<svg width="274pt" height="84pt"
 viewBox="0.00 0.00 273.50 84.00" xmlns="http://www.w3.org/2000/svg" xmlns:xlink="http://www.w3.org/1999/xlink">
<g id="graph0" class="graph" transform="scale(1 1) rotate(0) translate(4 80)">
<title>ModelVisualization.h</title>
<!-- Node51 -->
<g id="node1" class="node">
<title>Node51</title>
<polygon fill="#bfbfbf" stroke="#000000" points="71,-56.5 71,-75.5 189,-75.5 189,-56.5 71,-56.5"/>
<text text-anchor="middle" x="130" y="-63.5" font-family="FreeSans.ttf" font-size="10.00" fill="#000000">ModelVisualization.h</text>
</g>
<!-- Node52 -->
<g id="node2" class="node">
<title>Node52</title>
<g id="a_node2"><a xlink:href="JetsVisualization_8cpp.html" target="_top" xlink:title="JetsVisualization.cpp">
<polygon fill="none" stroke="#000000" points="0,-.5 0,-19.5 118,-19.5 118,-.5 0,-.5"/>
<text text-anchor="middle" x="59" y="-7.5" font-family="FreeSans.ttf" font-size="10.00" fill="#000000">JetsVisualization.cpp</text>
</a>
</g>
</g>
<!-- Node51&#45;&gt;Node52 -->
<g id="edge1" class="edge">
<title>Node51&#45;&gt;Node52</title>
<path fill="none" stroke="#191970" d="M109.623,-49.928C97.2129,-40.1397 81.77,-27.9595 71.2255,-19.6427"/>
<polygon fill="#191970" stroke="#191970" points="107.6136,-52.8007 117.6327,-56.2455 111.9486,-47.3046 107.6136,-52.8007"/>
</g>
<!-- Node53 -->
<g id="node3" class="node">
<title>Node53</title>
<g id="a_node3"><a xlink:href="ModelVisualization_8cpp.html" target="_top" xlink:title="ModelVisualization.cpp">
<polygon fill="none" stroke="#000000" points="136.5,-.5 136.5,-19.5 265.5,-19.5 265.5,-.5 136.5,-.5"/>
<text text-anchor="middle" x="201" y="-7.5" font-family="FreeSans.ttf" font-size="10.00" fill="#000000">ModelVisualization.cpp</text>
</a>
</g>
</g>
<!-- Node51&#45;&gt;Node53 -->
<g id="edge2" class="edge">
<title>Node51&#45;&gt;Node53</title>
<path fill="none" stroke="#191970" d="M150.377,-49.928C162.7871,-40.1397 178.23,-27.9595 188.7745,-19.6427"/>
<polygon fill="#191970" stroke="#191970" points="148.0514,-47.3046 142.3673,-56.2455 152.3864,-52.8007 148.0514,-47.3046"/>
</g>
</g>
</svg>
