<?xml version="1.0" encoding="UTF-8" standalone="no"?>
<!DOCTYPE svg PUBLIC "-//W3C//DTD SVG 1.1//EN"
 "http://www.w3.org/Graphics/SVG/1.1/DTD/svg11.dtd">
<!-- Generated by graphviz version 2.40.1 (20161225.0304)
 -->
<!-- Title: ModelLoader.cpp Pages: 1 -->
<svg width="2657pt" height="666pt"
 viewBox="0.00 0.00 2656.50 666.00" xmlns="http://www.w3.org/2000/svg" xmlns:xlink="http://www.w3.org/1999/xlink">
<g id="graph0" class="graph" transform="scale(1 1) rotate(0) translate(4 662)">
<title>ModelLoader.cpp</title>
<!-- Node0 -->
<g id="node1" class="node">
<title>Node0</title>
<polygon fill="#bfbfbf" stroke="#000000" points="1048,-638.5 1048,-657.5 1146,-657.5 1146,-638.5 1048,-638.5"/>
<text text-anchor="middle" x="1097" y="-645.5" font-family="FreeSans.ttf" font-size="10.00" fill="#000000">ModelLoader.cpp</text>
</g>
<!-- Node1 -->
<g id="node2" class="node">
<title>Node1</title>
<g id="a_node2"><a xlink:href="ModelLoader_8h.html" target="_top" xlink:title="iDynTree/ModelIO/ModelLoader.h">
<polygon fill="none" stroke="#000000" points="632,-515.5 632,-534.5 808,-534.5 808,-515.5 632,-515.5"/>
<text text-anchor="middle" x="720" y="-522.5" font-family="FreeSans.ttf" font-size="10.00" fill="#000000">iDynTree/ModelIO/ModelLoader.h</text>
</a>
</g>
</g>
<!-- Node0&#45;&gt;Node1 -->
<g id="edge1" class="edge">
<title>Node0&#45;&gt;Node1</title>
<path fill="none" stroke="#191970" d="M1047.8467,-642.6315C980.0597,-634.7432 861.7431,-619.0936 822,-602 788.2927,-587.5024 755.5693,-559.6027 736.625,-541.6662"/>
<polygon fill="#191970" stroke="#191970" points="739.0056,-539.0994 729.3869,-534.6573 734.136,-544.1281 739.0056,-539.0994"/>
</g>
<!-- Node5 -->
<g id="node6" class="node">
<title>Node5</title>
<polygon fill="none" stroke="#bfbfbf" points="1552,-.5 1552,-19.5 1596,-19.5 1596,-.5 1552,-.5"/>
<text text-anchor="middle" x="1574" y="-7.5" font-family="FreeSans.ttf" font-size="10.00" fill="#000000">string</text>
</g>
<!-- Node0&#45;&gt;Node5 -->
<g id="edge128" class="edge">
<title>Node0&#45;&gt;Node5</title>
<path fill="none" stroke="#191970" d="M1047.6949,-647.526C838.8734,-644.8794 38,-628.0142 38,-525 38,-525 38,-525 38,-122 38,-87.4675 49.0809,-73.2436 79,-56 144.5459,-18.2231 1329.9469,-11.104 1541.7508,-10.1318"/>
<polygon fill="#191970" stroke="#191970" points="1541.9204,-13.6312 1551.9047,-10.0865 1541.8892,-6.6312 1541.9204,-13.6312"/>
</g>
<!-- Node53 -->
<g id="node34" class="node">
<title>Node53</title>
<polygon fill="none" stroke="#bfbfbf" points="850.5,-291.5 850.5,-310.5 897.5,-310.5 897.5,-291.5 850.5,-291.5"/>
<text text-anchor="middle" x="874" y="-298.5" font-family="FreeSans.ttf" font-size="10.00" fill="#000000">vector</text>
</g>
<!-- Node0&#45;&gt;Node53 -->
<g id="edge129" class="edge">
<title>Node0&#45;&gt;Node53</title>
<path fill="none" stroke="#191970" d="M1058.7688,-638.4751C986.2736,-619.2894 836,-573.652 836,-525 836,-525 836,-525 836,-413 836,-378.6118 852.2634,-341.2832 863.511,-319.5791"/>
<polygon fill="#191970" stroke="#191970" points="866.7317,-320.9804 868.393,-310.5166 860.569,-317.6605 866.7317,-320.9804"/>
</g>
<!-- Node57 -->
<g id="node38" class="node">
<title>Node57</title>
<g id="a_node38"><a xlink:href="URDFDocument_8h.html" target="_top" xlink:title="URDFDocument.h">
<polygon fill="none" stroke="#000000" points="1290.5,-577 1290.5,-596 1393.5,-596 1393.5,-577 1290.5,-577"/>
<text text-anchor="middle" x="1342" y="-584" font-family="FreeSans.ttf" font-size="10.00" fill="#000000">URDFDocument.h</text>
</a>
</g>
</g>
<!-- Node0&#45;&gt;Node57 -->
<g id="edge71" class="edge">
<title>Node0&#45;&gt;Node57</title>
<path fill="none" stroke="#191970" d="M1135.0124,-638.4581C1177.8371,-627.7082 1247.5208,-610.2162 1294.0499,-598.5365"/>
<polygon fill="#191970" stroke="#191970" points="1295.0515,-601.8937 1303.8984,-596.0643 1293.3471,-595.1043 1295.0515,-601.8937"/>
</g>
<!-- Node68 -->
<g id="node49" class="node">
<title>Node68</title>
<g id="a_node49"><a xlink:href="XMLParser_8h.html" target="_top" xlink:title="iDynTree/XMLParser.h">
<polygon fill="none" stroke="#000000" points="2078.5,-347.5 2078.5,-366.5 2199.5,-366.5 2199.5,-347.5 2078.5,-347.5"/>
<text text-anchor="middle" x="2139" y="-354.5" font-family="FreeSans.ttf" font-size="10.00" fill="#000000">iDynTree/XMLParser.h</text>
</a>
</g>
</g>
<!-- Node0&#45;&gt;Node68 -->
<g id="edge122" class="edge">
<title>Node0&#45;&gt;Node68</title>
<path fill="none" stroke="#191970" d="M1146.2569,-643.2364C1207.1451,-636.7451 1313.6664,-623.4147 1403,-602 1680.5621,-535.464 2003.0048,-411.1708 2105.7686,-370.3598"/>
<polygon fill="#191970" stroke="#191970" points="2107.2991,-373.5177 2115.2941,-366.5657 2104.7088,-367.0146 2107.2991,-373.5177"/>
</g>
<!-- Node69 -->
<g id="node50" class="node">
<title>Node69</title>
<g id="a_node50"><a xlink:href="ModelSensorsTransformers_8h.html" target="_top" xlink:title="Collection of function to modify model and sensors in various ways. ">
<polygon fill="none" stroke="#000000" points="2313.5,-571.5 2313.5,-601.5 2484.5,-601.5 2484.5,-571.5 2313.5,-571.5"/>
<text text-anchor="start" x="2321.5" y="-589.5" font-family="FreeSans.ttf" font-size="10.00" fill="#000000">iDynTree/Sensors/ModelSensors</text>
<text text-anchor="middle" x="2399" y="-578.5" font-family="FreeSans.ttf" font-size="10.00" fill="#000000">Transformers.h</text>
</a>
</g>
</g>
<!-- Node0&#45;&gt;Node69 -->
<g id="edge127" class="edge">
<title>Node0&#45;&gt;Node69</title>
<path fill="none" stroke="#191970" d="M1146.0432,-646.8806C1342.0445,-642.2895 2069.5619,-624.0971 2299,-602 2300.4755,-601.8579 2301.9624,-601.7083 2303.4583,-601.5519"/>
<polygon fill="#191970" stroke="#191970" points="2303.8918,-605.0253 2313.437,-600.4275 2303.1079,-598.0693 2303.8918,-605.0253"/>
</g>
<!-- Node2 -->
<g id="node3" class="node">
<title>Node2</title>
<g id="a_node3"><a xlink:href="Model_8h.html" target="_top" xlink:title="iDynTree/Model/Model.h">
<polygon fill="none" stroke="#000000" points="598.5,-403.5 598.5,-422.5 731.5,-422.5 731.5,-403.5 598.5,-403.5"/>
<text text-anchor="middle" x="665" y="-410.5" font-family="FreeSans.ttf" font-size="10.00" fill="#000000">iDynTree/Model/Model.h</text>
</a>
</g>
</g>
<!-- Node1&#45;&gt;Node2 -->
<g id="edge2" class="edge">
<title>Node1&#45;&gt;Node2</title>
<path fill="none" stroke="#191970" d="M715.5057,-515.0985C709.5859,-502.1347 698.779,-478.7376 689,-459 684.5162,-449.95 679.3561,-440.0032 674.9722,-431.6813"/>
<polygon fill="#191970" stroke="#191970" points="678.0455,-430.0059 670.2696,-422.8096 671.8607,-433.2843 678.0455,-430.0059"/>
</g>
<!-- Node1&#45;&gt;Node5 -->
<g id="edge69" class="edge">
<title>Node1&#45;&gt;Node5</title>
<path fill="none" stroke="#191970" d="M631.8049,-518.6964C455.4295,-504.9023 76,-468.7489 76,-413 76,-413 76,-413 76,-122 76,-90.6328 75.4703,-74.2245 101,-56 131.3503,-34.3343 1328.6653,-13.9704 1541.7389,-10.5143"/>
<polygon fill="#191970" stroke="#191970" points="1542.0069,-14.0105 1551.9491,-10.3494 1541.8938,-7.0114 1542.0069,-14.0105"/>
</g>
<!-- Node1&#45;&gt;Node53 -->
<g id="edge70" class="edge">
<title>Node1&#45;&gt;Node53</title>
<path fill="none" stroke="#191970" d="M724.1215,-515.4415C736.3891,-487.6209 774.7686,-404.9964 822,-347 831.0383,-335.9016 842.8805,-325.2016 852.9805,-316.9185"/>
<polygon fill="#191970" stroke="#191970" points="855.3089,-319.5386 860.9549,-310.5735 850.9505,-314.061 855.3089,-319.5386"/>
</g>
<!-- Node54 -->
<g id="node35" class="node">
<title>Node54</title>
<g id="a_node35"><a xlink:href="Sensors_8h.html" target="_top" xlink:title="iDynTree/Sensors/Sensors.h">
<polygon fill="none" stroke="#000000" points="528.5,-459.5 528.5,-478.5 679.5,-478.5 679.5,-459.5 528.5,-459.5"/>
<text text-anchor="middle" x="604" y="-466.5" font-family="FreeSans.ttf" font-size="10.00" fill="#000000">iDynTree/Sensors/Sensors.h</text>
</a>
</g>
</g>
<!-- Node1&#45;&gt;Node54 -->
<g id="edge59" class="edge">
<title>Node1&#45;&gt;Node54</title>
<path fill="none" stroke="#191970" d="M700.0589,-515.3733C681.5214,-506.4241 653.6972,-492.9917 632.7587,-482.8835"/>
<polygon fill="#191970" stroke="#191970" points="634.2081,-479.6967 623.6809,-478.5011 631.1648,-486.0006 634.2081,-479.6967"/>
</g>
<!-- Node56 -->
<g id="node37" class="node">
<title>Node56</title>
<polygon fill="none" stroke="#bfbfbf" points="1539,-291.5 1539,-310.5 1597,-310.5 1597,-291.5 1539,-291.5"/>
<text text-anchor="middle" x="1568" y="-298.5" font-family="FreeSans.ttf" font-size="10.00" fill="#000000">memory</text>
</g>
<!-- Node1&#45;&gt;Node56 -->
<g id="edge68" class="edge">
<title>Node1&#45;&gt;Node56</title>
<path fill="none" stroke="#191970" d="M756.1662,-515.4467C894.0267,-479.0307 1385.9898,-349.0782 1528.8437,-311.3432"/>
<polygon fill="#191970" stroke="#191970" points="1530.1271,-314.6243 1538.9015,-308.6864 1528.3393,-307.8564 1530.1271,-314.6243"/>
</g>
<!-- Node3 -->
<g id="node4" class="node">
<title>Node3</title>
<g id="a_node4"><a xlink:href="IJoint_8h.html" target="_top" xlink:title="iDynTree/Model/IJoint.h">
<polygon fill="none" stroke="#000000" points="490,-347.5 490,-366.5 618,-366.5 618,-347.5 490,-347.5"/>
<text text-anchor="middle" x="554" y="-354.5" font-family="FreeSans.ttf" font-size="10.00" fill="#000000">iDynTree/Model/IJoint.h</text>
</a>
</g>
</g>
<!-- Node2&#45;&gt;Node3 -->
<g id="edge3" class="edge">
<title>Node2&#45;&gt;Node3</title>
<path fill="none" stroke="#191970" d="M645.9184,-403.3733C628.2598,-394.4644 601.7947,-381.1127 581.7902,-371.0203"/>
<polygon fill="#191970" stroke="#191970" points="583.3372,-367.8806 572.8326,-366.5011 580.1842,-374.1303 583.3372,-367.8806"/>
</g>
<!-- Node4 -->
<g id="node5" class="node">
<title>Node4</title>
<g id="a_node5"><a xlink:href="Indices_8h.html" target="_top" xlink:title="iDynTree/Model/Indices.h">
<polygon fill="none" stroke="#000000" points="558,-291.5 558,-310.5 696,-310.5 696,-291.5 558,-291.5"/>
<text text-anchor="middle" x="627" y="-298.5" font-family="FreeSans.ttf" font-size="10.00" fill="#000000">iDynTree/Model/Indices.h</text>
</a>
</g>
</g>
<!-- Node2&#45;&gt;Node4 -->
<g id="edge51" class="edge">
<title>Node2&#45;&gt;Node4</title>
<path fill="none" stroke="#191970" d="M661.7601,-403.4509C655.5063,-385.0186 641.6658,-344.2254 633.461,-320.043"/>
<polygon fill="#191970" stroke="#191970" points="636.7591,-318.8701 630.2317,-310.5249 630.1303,-321.1192 636.7591,-318.8701"/>
</g>
<!-- Node6 -->
<g id="node7" class="node">
<title>Node6</title>
<g id="a_node7"><a xlink:href="Link_8h.html" target="_top" xlink:title="iDynTree/Model/Link.h">
<polygon fill="none" stroke="#000000" points="310,-347.5 310,-366.5 434,-366.5 434,-347.5 310,-347.5"/>
<text text-anchor="middle" x="372" y="-354.5" font-family="FreeSans.ttf" font-size="10.00" fill="#000000">iDynTree/Model/Link.h</text>
</a>
</g>
</g>
<!-- Node2&#45;&gt;Node6 -->
<g id="edge6" class="edge">
<title>Node2&#45;&gt;Node6</title>
<path fill="none" stroke="#191970" d="M614.9644,-403.4369C564.293,-393.7522 485.9052,-378.7703 431.9441,-368.4569"/>
<polygon fill="#191970" stroke="#191970" points="432.3085,-364.9633 421.8292,-366.5237 430.9943,-371.8388 432.3085,-364.9633"/>
</g>
<!-- Node49 -->
<g id="node22" class="node">
<title>Node49</title>
<g id="a_node22"><a xlink:href="Transform_8h.html" target="_top" xlink:title="iDynTree/Core/Transform.h">
<polygon fill="none" stroke="#000000" points="1241,-291.5 1241,-310.5 1387,-310.5 1387,-291.5 1241,-291.5"/>
<text text-anchor="middle" x="1314" y="-298.5" font-family="FreeSans.ttf" font-size="10.00" fill="#000000">iDynTree/Core/Transform.h</text>
</a>
</g>
</g>
<!-- Node2&#45;&gt;Node49 -->
<g id="edge24" class="edge">
<title>Node2&#45;&gt;Node49</title>
<path fill="none" stroke="#191970" d="M731.5593,-409.505C845.6406,-403.047 1073.7021,-387.9658 1151,-367 1171.3422,-361.4825 1174.5924,-355.2215 1194,-347 1221.9874,-335.1438 1254.1699,-322.8797 1278.157,-313.9993"/>
<polygon fill="#191970" stroke="#191970" points="1279.3985,-317.272 1287.5726,-310.5314 1276.9791,-310.7034 1279.3985,-317.272"/>
</g>
<!-- Node51 -->
<g id="node32" class="node">
<title>Node51</title>
<g id="a_node32"><a xlink:href="SolidShapes_8h.html" target="_top" xlink:title="iDynTree/Model/SolidShapes.h">
<polygon fill="none" stroke="#000000" points="978.5,-347.5 978.5,-366.5 1141.5,-366.5 1141.5,-347.5 978.5,-347.5"/>
<text text-anchor="middle" x="1060" y="-354.5" font-family="FreeSans.ttf" font-size="10.00" fill="#000000">iDynTree/Model/SolidShapes.h</text>
</a>
</g>
</g>
<!-- Node2&#45;&gt;Node51 -->
<g id="edge52" class="edge">
<title>Node2&#45;&gt;Node51</title>
<path fill="none" stroke="#191970" d="M731.5597,-403.5637C800.9615,-393.7244 909.6247,-378.319 982.7606,-367.9504"/>
<polygon fill="#191970" stroke="#191970" points="983.4271,-371.391 992.8368,-366.5219 982.4445,-364.4603 983.4271,-371.391"/>
</g>
<!-- Node52 -->
<g id="node33" class="node">
<title>Node52</title>
<polygon fill="none" stroke="#bfbfbf" points="739.5,-291.5 739.5,-310.5 788.5,-310.5 788.5,-291.5 739.5,-291.5"/>
<text text-anchor="middle" x="764" y="-298.5" font-family="FreeSans.ttf" font-size="10.00" fill="#000000">cstdlib</text>
</g>
<!-- Node2&#45;&gt;Node52 -->
<g id="edge57" class="edge">
<title>Node2&#45;&gt;Node52</title>
<path fill="none" stroke="#191970" d="M670.0206,-403.4031C677.3159,-389.9593 691.7615,-365.135 708,-347 718.0664,-335.758 730.9923,-324.953 741.8888,-316.6431"/>
<polygon fill="#191970" stroke="#191970" points="744.1526,-319.3217 750.0991,-310.553 739.9823,-313.6995 744.1526,-319.3217"/>
</g>
<!-- Node2&#45;&gt;Node53 -->
<g id="edge58" class="edge">
<title>Node2&#45;&gt;Node53</title>
<path fill="none" stroke="#191970" d="M674.6619,-403.2504C689.0765,-389.1672 717.5734,-363.0636 746,-347 776.1275,-329.9752 813.7074,-317.368 840.3348,-309.6996"/>
<polygon fill="#191970" stroke="#191970" points="841.6287,-312.9721 850.3165,-306.9082 839.7434,-306.2308 841.6287,-312.9721"/>
</g>
<!-- Node3&#45;&gt;Node4 -->
<g id="edge4" class="edge">
<title>Node3&#45;&gt;Node4</title>
<path fill="none" stroke="#191970" d="M566.7156,-347.2455C577.602,-338.8943 593.4883,-326.7076 606.22,-316.9408"/>
<polygon fill="#191970" stroke="#191970" points="608.6261,-319.5063 614.4301,-310.6427 604.3654,-313.9523 608.6261,-319.5063"/>
</g>
<!-- Node4&#45;&gt;Node5 -->
<g id="edge5" class="edge">
<title>Node4&#45;&gt;Node5</title>
<path fill="none" stroke="#191970" d="M696.301,-293.8563C813.5939,-281.6926 1038.917,-257.979 1042,-255 1106.2753,-192.8934 1006.1316,-117.4868 1071,-56 1105.1878,-23.5945 1436.3432,-13.1809 1541.8687,-10.6712"/>
<polygon fill="#191970" stroke="#191970" points="1542.0046,-14.1691 1551.9215,-10.44 1541.8436,-7.1709 1542.0046,-14.1691"/>
</g>
<!-- Node6&#45;&gt;Node4 -->
<g id="edge23" class="edge">
<title>Node6&#45;&gt;Node4</title>
<path fill="none" stroke="#191970" d="M415.5463,-347.4369C459.2793,-337.8328 526.7345,-323.0191 573.6542,-312.7152"/>
<polygon fill="#191970" stroke="#191970" points="574.6168,-316.0872 583.6333,-310.5237 573.1153,-309.2502 574.6168,-316.0872"/>
</g>
<!-- Node7 -->
<g id="node8" class="node">
<title>Node7</title>
<g id="a_node8"><a xlink:href="SpatialInertia_8h.html" target="_top" xlink:title="iDynTree/Core/SpatialInertia.h">
<polygon fill="none" stroke="#000000" points="378,-291.5 378,-310.5 540,-310.5 540,-291.5 378,-291.5"/>
<text text-anchor="middle" x="459" y="-298.5" font-family="FreeSans.ttf" font-size="10.00" fill="#000000">iDynTree/Core/SpatialInertia.h</text>
</a>
</g>
</g>
<!-- Node6&#45;&gt;Node7 -->
<g id="edge7" class="edge">
<title>Node6&#45;&gt;Node7</title>
<path fill="none" stroke="#191970" d="M387.1542,-347.2455C400.5027,-338.6534 420.1586,-326.0014 435.5383,-316.1018"/>
<polygon fill="#191970" stroke="#191970" points="437.5051,-318.9982 444.0194,-310.6427 433.7164,-313.1121 437.5051,-318.9982"/>
</g>
<!-- Node8 -->
<g id="node9" class="node">
<title>Node8</title>
<g id="a_node9"><a xlink:href="SpatialInertiaRaw_8h.html" target="_top" xlink:title="iDynTree/Core/SpatialInertia\lRaw.h">
<polygon fill="none" stroke="#ff0000" points="369.5,-224.5 369.5,-254.5 522.5,-254.5 522.5,-224.5 369.5,-224.5"/>
<text text-anchor="start" x="377.5" y="-242.5" font-family="FreeSans.ttf" font-size="10.00" fill="#000000">iDynTree/Core/SpatialInertia</text>
<text text-anchor="middle" x="446" y="-231.5" font-family="FreeSans.ttf" font-size="10.00" fill="#000000">Raw.h</text>
</a>
</g>
</g>
<!-- Node7&#45;&gt;Node8 -->
<g id="edge8" class="edge">
<title>Node7&#45;&gt;Node8</title>
<path fill="none" stroke="#191970" d="M456.9688,-291.3906C455.4374,-284.1463 453.2648,-273.8679 451.2566,-264.3676"/>
<polygon fill="#191970" stroke="#191970" points="454.6727,-263.6045 449.1802,-254.5446 447.824,-265.0523 454.6727,-263.6045"/>
</g>
<!-- Node17 -->
<g id="node10" class="node">
<title>Node17</title>
<g id="a_node10"><a xlink:href="VectorFixSize_8h.html" target="_top" xlink:title="iDynTree/Core/VectorFixSize.h">
<polygon fill="none" stroke="#000000" points="2171.5,-112.5 2171.5,-131.5 2332.5,-131.5 2332.5,-112.5 2171.5,-112.5"/>
<text text-anchor="middle" x="2252" y="-119.5" font-family="FreeSans.ttf" font-size="10.00" fill="#000000">iDynTree/Core/VectorFixSize.h</text>
</a>
</g>
</g>
<!-- Node7&#45;&gt;Node17 -->
<g id="edge9" class="edge">
<title>Node7&#45;&gt;Node17</title>
<path fill="none" stroke="#191970" d="M540.4082,-291.656C543.3063,-291.4185 546.1772,-291.1985 549,-291 817.3453,-272.1311 1492.8786,-294.3017 1759,-255 1933.7218,-229.1965 2135.081,-163.0034 2215.7961,-134.9143"/>
<polygon fill="#191970" stroke="#191970" points="2217.1966,-138.1323 2225.479,-131.5254 2214.8842,-131.5253 2217.1966,-138.1323"/>
</g>
<!-- Node26 -->
<g id="node18" class="node">
<title>Node26</title>
<g id="a_node18"><a xlink:href="Twist_8h.html" target="_top" xlink:title="iDynTree/Core/Twist.h">
<polygon fill="none" stroke="#ff0000" points="541,-230 541,-249 663,-249 663,-230 541,-230"/>
<text text-anchor="middle" x="602" y="-237" font-family="FreeSans.ttf" font-size="10.00" fill="#000000">iDynTree/Core/Twist.h</text>
</a>
</g>
</g>
<!-- Node7&#45;&gt;Node26 -->
<g id="edge19" class="edge">
<title>Node7&#45;&gt;Node26</title>
<path fill="none" stroke="#191970" d="M481.3438,-291.3906C505.2703,-281.1005 543.4309,-264.6888 570.4216,-253.0809"/>
<polygon fill="#191970" stroke="#191970" points="572.0095,-256.208 579.8131,-249.0419 569.2439,-249.7775 572.0095,-256.208"/>
</g>
<!-- Node42 -->
<g id="node19" class="node">
<title>Node42</title>
<g id="a_node19"><a xlink:href="SpatialMomentum_8h.html" target="_top" xlink:title="iDynTree/Core/SpatialMomentum.h">
<polygon fill="none" stroke="#ff0000" points="681,-230 681,-249 867,-249 867,-230 681,-230"/>
<text text-anchor="middle" x="774" y="-237" font-family="FreeSans.ttf" font-size="10.00" fill="#000000">iDynTree/Core/SpatialMomentum.h</text>
</a>
</g>
</g>
<!-- Node7&#45;&gt;Node42 -->
<g id="edge20" class="edge">
<title>Node7&#45;&gt;Node42</title>
<path fill="none" stroke="#191970" d="M507.8731,-291.4581C563.8231,-280.5345 655.4311,-262.6492 715.2262,-250.9749"/>
<polygon fill="#191970" stroke="#191970" points="716.1274,-254.3651 725.2714,-249.0137 714.786,-247.4948 716.1274,-254.3651"/>
</g>
<!-- Node47 -->
<g id="node20" class="node">
<title>Node47</title>
<g id="a_node20"><a xlink:href="SpatialAcc_8h.html" target="_top" xlink:title="iDynTree/Core/SpatialAcc.h">
<polygon fill="none" stroke="#ff0000" points="885,-230 885,-249 1033,-249 1033,-230 885,-230"/>
<text text-anchor="middle" x="959" y="-237" font-family="FreeSans.ttf" font-size="10.00" fill="#000000">iDynTree/Core/SpatialAcc.h</text>
</a>
</g>
</g>
<!-- Node7&#45;&gt;Node47 -->
<g id="edge21" class="edge">
<title>Node7&#45;&gt;Node47</title>
<path fill="none" stroke="#191970" d="M540.4346,-291.948C543.3253,-291.6279 546.1873,-291.3111 549,-291 694.3253,-274.9268 731.3684,-276.4353 876,-255 884.2335,-253.7797 892.8979,-252.3383 901.397,-250.8337"/>
<polygon fill="#191970" stroke="#191970" points="902.0457,-254.2732 911.2624,-249.048 900.7989,-247.3852 902.0457,-254.2732"/>
</g>
<!-- Node48 -->
<g id="node21" class="node">
<title>Node48</title>
<g id="a_node21"><a xlink:href="Wrench_8h.html" target="_top" xlink:title="iDynTree/Core/Wrench.h">
<polygon fill="none" stroke="#ff0000" points="218.5,-230 218.5,-249 351.5,-249 351.5,-230 218.5,-230"/>
<text text-anchor="middle" x="285" y="-237" font-family="FreeSans.ttf" font-size="10.00" fill="#000000">iDynTree/Core/Wrench.h</text>
</a>
</g>
</g>
<!-- Node7&#45;&gt;Node48 -->
<g id="edge22" class="edge">
<title>Node7&#45;&gt;Node48</title>
<path fill="none" stroke="#191970" d="M431.8125,-291.3906C402.1883,-280.92 354.6313,-264.1111 321.7082,-252.4745"/>
<polygon fill="#191970" stroke="#191970" points="322.5914,-249.0745 311.9966,-249.0419 320.2586,-255.6744 322.5914,-249.0745"/>
</g>
<!-- Node17&#45;&gt;Node5 -->
<g id="edge15" class="edge">
<title>Node17&#45;&gt;Node5</title>
<path fill="none" stroke="#191970" d="M2234.7407,-112.4153C2204.4231,-95.753 2142.5851,-62.5889 2119,-56 2021.4974,-28.7612 1708.3134,-14.9849 1606.3886,-11.142"/>
<polygon fill="#191970" stroke="#191970" points="1606.2318,-7.6339 1596.1091,-10.7613 1605.9727,-14.6291 1606.2318,-7.6339"/>
</g>
<!-- Node11 -->
<g id="node11" class="node">
<title>Node11</title>
<g id="a_node11"><a xlink:href="Utils_8h.html" target="_top" xlink:title="iDynTree/Core/Utils.h">
<polygon fill="none" stroke="#ff0000" points="2529.5,-.5 2529.5,-19.5 2648.5,-19.5 2648.5,-.5 2529.5,-.5"/>
<text text-anchor="middle" x="2589" y="-7.5" font-family="FreeSans.ttf" font-size="10.00" fill="#000000">iDynTree/Core/Utils.h</text>
</a>
</g>
</g>
<!-- Node17&#45;&gt;Node11 -->
<g id="edge10" class="edge">
<title>Node17&#45;&gt;Node11</title>
<path fill="none" stroke="#191970" d="M2332.6228,-114.6597C2380.0868,-108.3576 2440.5165,-96.8354 2491,-76 2521.0905,-63.5812 2551.5341,-41.1968 2570.3298,-25.9745"/>
<polygon fill="#191970" stroke="#191970" points="2572.6274,-28.6163 2578.1029,-19.546 2568.1662,-23.222 2572.6274,-28.6163"/>
</g>
<!-- Node18 -->
<g id="node12" class="node">
<title>Node18</title>
<g id="a_node12"><a xlink:href="Span_8h.html" target="_top" xlink:title="iDynTree/Core/Span.h">
<polygon fill="none" stroke="#ff0000" points="110.5,-56.5 110.5,-75.5 231.5,-75.5 231.5,-56.5 110.5,-56.5"/>
<text text-anchor="middle" x="171" y="-63.5" font-family="FreeSans.ttf" font-size="10.00" fill="#000000">iDynTree/Core/Span.h</text>
</a>
</g>
</g>
<!-- Node17&#45;&gt;Node18 -->
<g id="edge11" class="edge">
<title>Node17&#45;&gt;Node18</title>
<path fill="none" stroke="#191970" d="M2171.3795,-119.8305C1836.4893,-110.8185 557.9655,-76.4133 241.9511,-67.9093"/>
<polygon fill="#191970" stroke="#191970" points="241.649,-64.4 231.5585,-67.6296 241.4607,-71.3975 241.649,-64.4"/>
</g>
<!-- Node13 -->
<g id="node13" class="node">
<title>Node13</title>
<polygon fill="none" stroke="#bfbfbf" points="2231,-.5 2231,-19.5 2283,-19.5 2283,-.5 2231,-.5"/>
<text text-anchor="middle" x="2257" y="-7.5" font-family="FreeSans.ttf" font-size="10.00" fill="#000000">cassert</text>
</g>
<!-- Node17&#45;&gt;Node13 -->
<g id="edge17" class="edge">
<title>Node17&#45;&gt;Node13</title>
<path fill="none" stroke="#191970" d="M2252.4263,-112.4509C2253.2418,-94.184 2255.0377,-53.9553 2256.1206,-29.6976"/>
<polygon fill="#191970" stroke="#191970" points="2259.6252,-29.6711 2256.5748,-19.5249 2252.6322,-29.3588 2259.6252,-29.6711"/>
</g>
<!-- Node16 -->
<g id="node16" class="node">
<title>Node16</title>
<polygon fill="none" stroke="#bfbfbf" points="2455,-.5 2455,-19.5 2511,-19.5 2511,-.5 2455,-.5"/>
<text text-anchor="middle" x="2483" y="-7.5" font-family="FreeSans.ttf" font-size="10.00" fill="#000000">sstream</text>
</g>
<!-- Node17&#45;&gt;Node16 -->
<g id="edge16" class="edge">
<title>Node17&#45;&gt;Node16</title>
<path fill="none" stroke="#191970" d="M2332.612,-114.649C2387.2245,-107.9543 2452.8154,-95.9872 2472,-76 2483.6664,-63.8456 2485.6446,-44.2798 2485.1675,-29.6012"/>
<polygon fill="#191970" stroke="#191970" points="2488.6518,-29.256 2484.4439,-19.5327 2481.6698,-29.7579 2488.6518,-29.256"/>
</g>
<!-- Node14 -->
<g id="node17" class="node">
<title>Node14</title>
<polygon fill="none" stroke="#bfbfbf" points="2387,-.5 2387,-19.5 2437,-19.5 2437,-.5 2387,-.5"/>
<text text-anchor="middle" x="2412" y="-7.5" font-family="FreeSans.ttf" font-size="10.00" fill="#000000">cstring</text>
</g>
<!-- Node17&#45;&gt;Node14 -->
<g id="edge18" class="edge">
<title>Node17&#45;&gt;Node14</title>
<path fill="none" stroke="#191970" d="M2332.6453,-114.0869C2382.7177,-107.3179 2440.412,-95.4944 2456,-76 2469.0819,-59.6399 2451.0838,-39.4203 2434.3212,-25.7036"/>
<polygon fill="#191970" stroke="#191970" points="2436.3879,-22.8774 2426.3332,-19.5377 2432.1107,-28.4187 2436.3879,-22.8774"/>
</g>
<!-- Node18&#45;&gt;Node13 -->
<g id="edge12" class="edge">
<title>Node18&#45;&gt;Node13</title>
<path fill="none" stroke="#191970" d="M231.7391,-64.3694C545.0625,-55.9581 1973.5343,-17.6098 2220.5544,-10.9784"/>
<polygon fill="#191970" stroke="#191970" points="2220.8778,-14.4711 2230.7803,-10.7039 2220.6899,-7.4736 2220.8778,-14.4711"/>
</g>
<!-- Node19 -->
<g id="node14" class="node">
<title>Node19</title>
<polygon fill="none" stroke="#bfbfbf" points="139,-.5 139,-19.5 203,-19.5 203,-.5 139,-.5"/>
<text text-anchor="middle" x="171" y="-7.5" font-family="FreeSans.ttf" font-size="10.00" fill="#000000">algorithm</text>
</g>
<!-- Node18&#45;&gt;Node19 -->
<g id="edge13" class="edge">
<title>Node18&#45;&gt;Node19</title>
<path fill="none" stroke="#191970" d="M171,-56.2455C171,-48.9382 171,-38.6944 171,-29.7046"/>
<polygon fill="#191970" stroke="#191970" points="174.5001,-29.6426 171,-19.6427 167.5001,-29.6427 174.5001,-29.6426"/>
</g>
<!-- Node21 -->
<g id="node15" class="node">
<title>Node21</title>
<polygon fill="none" stroke="#bfbfbf" points="20.5,-.5 20.5,-19.5 73.5,-19.5 73.5,-.5 20.5,-.5"/>
<text text-anchor="middle" x="47" y="-7.5" font-family="FreeSans.ttf" font-size="10.00" fill="#000000">iterator</text>
</g>
<!-- Node18&#45;&gt;Node21 -->
<g id="edge14" class="edge">
<title>Node18&#45;&gt;Node21</title>
<path fill="none" stroke="#191970" d="M149.6836,-56.3733C129.7784,-47.3838 99.8564,-33.8706 77.44,-23.7471"/>
<polygon fill="#191970" stroke="#191970" points="78.5925,-20.4272 68.0382,-19.5011 75.7113,-26.8068 78.5925,-20.4272"/>
</g>
<!-- Node49&#45;&gt;Node5 -->
<g id="edge50" class="edge">
<title>Node49&#45;&gt;Node5</title>
<path fill="none" stroke="#191970" d="M1321.7177,-291.2768C1338.2226,-269.2461 1374.1784,-213.8728 1358,-168 1351.1665,-148.6241 1340.1024,-149.2876 1329,-132 1313.9632,-108.586 1307.3932,-103.0822 1301,-76 1298.9578,-67.3489 1295.2605,-62.7875 1301,-56 1316.429,-37.7538 1472.6215,-20.0976 1541.5765,-13.1249"/>
<polygon fill="#191970" stroke="#191970" points="1542.2563,-16.5745 1551.8595,-12.0991 1541.5614,-9.6091 1542.2563,-16.5745"/>
</g>
<!-- Node37 -->
<g id="node23" class="node">
<title>Node37</title>
<g id="a_node23"><a xlink:href="Position_8h.html" target="_top" xlink:title="Position.h">
<polygon fill="none" stroke="#000000" points="1684.5,-230 1684.5,-249 1749.5,-249 1749.5,-230 1684.5,-230"/>
<text text-anchor="middle" x="1717" y="-237" font-family="FreeSans.ttf" font-size="10.00" fill="#000000">Position.h</text>
</a>
</g>
</g>
<!-- Node49&#45;&gt;Node37 -->
<g id="edge25" class="edge">
<title>Node49&#45;&gt;Node37</title>
<path fill="none" stroke="#191970" d="M1376.5266,-291.4581C1459.34,-278.8203 1603.2146,-256.8643 1674.4813,-245.9886"/>
<polygon fill="#191970" stroke="#191970" points="1675.0958,-249.4354 1684.4533,-244.4668 1674.0397,-242.5155 1675.0958,-249.4354"/>
</g>
<!-- Node31 -->
<g id="node26" class="node">
<title>Node31</title>
<g id="a_node26"><a xlink:href="Rotation_8h.html" target="_top" xlink:title="iDynTree/Core/Rotation.h">
<polygon fill="none" stroke="#000000" points="1519.5,-168.5 1519.5,-187.5 1656.5,-187.5 1656.5,-168.5 1519.5,-168.5"/>
<text text-anchor="middle" x="1588" y="-175.5" font-family="FreeSans.ttf" font-size="10.00" fill="#000000">iDynTree/Core/Rotation.h</text>
</a>
</g>
</g>
<!-- Node49&#45;&gt;Node31 -->
<g id="edge46" class="edge">
<title>Node49&#45;&gt;Node31</title>
<path fill="none" stroke="#191970" d="M1335.5003,-291.3484C1383.8194,-269.6577 1501.143,-216.9905 1557.1942,-191.8289"/>
<polygon fill="#191970" stroke="#191970" points="1558.91,-194.8952 1566.5996,-187.6068 1556.0432,-188.5091 1558.91,-194.8952"/>
</g>
<!-- Node10 -->
<g id="node28" class="node">
<title>Node10</title>
<g id="a_node28"><a xlink:href="MatrixFixSize_8h.html" target="_top" xlink:title="iDynTree/Core/MatrixFixSize.h">
<polygon fill="none" stroke="#000000" points="2285.5,-56.5 2285.5,-75.5 2446.5,-75.5 2446.5,-56.5 2285.5,-56.5"/>
<text text-anchor="middle" x="2366" y="-63.5" font-family="FreeSans.ttf" font-size="10.00" fill="#000000">iDynTree/Core/MatrixFixSize.h</text>
</a>
</g>
</g>
<!-- Node49&#45;&gt;Node10 -->
<g id="edge49" class="edge">
<title>Node49&#45;&gt;Node10</title>
<path fill="none" stroke="#191970" d="M1387.309,-298.7393C1476.2215,-294.7833 1630.1921,-284.0207 1759,-255 1944.8141,-213.1357 1980.0262,-164.9158 2163,-112 2210.683,-98.2101 2265.6394,-85.9752 2306.3363,-77.5966"/>
<polygon fill="#191970" stroke="#191970" points="2307.2641,-80.9795 2316.3626,-75.551 2305.8647,-74.1208 2307.2641,-80.9795"/>
</g>
<!-- Node50 -->
<g id="node31" class="node">
<title>Node50</title>
<g id="a_node31"><a xlink:href="TransformSemantics_8h.html" target="_top" xlink:title="iDynTree/Core/TransformSemantics.h">
<polygon fill="none" stroke="#000000" points="1151.5,-168.5 1151.5,-187.5 1348.5,-187.5 1348.5,-168.5 1151.5,-168.5"/>
<text text-anchor="middle" x="1250" y="-175.5" font-family="FreeSans.ttf" font-size="10.00" fill="#000000">iDynTree/Core/TransformSemantics.h</text>
</a>
</g>
</g>
<!-- Node49&#45;&gt;Node50 -->
<g id="edge47" class="edge">
<title>Node49&#45;&gt;Node50</title>
<path fill="none" stroke="#191970" d="M1308.978,-291.3484C1298.3695,-270.9601 1273.5204,-223.2033 1259.7019,-196.6459"/>
<polygon fill="#191970" stroke="#191970" points="1262.7193,-194.8622 1254.9986,-187.6068 1256.5096,-198.0933 1262.7193,-194.8622"/>
</g>
<!-- Node37&#45;&gt;Node5 -->
<g id="edge45" class="edge">
<title>Node37&#45;&gt;Node5</title>
<path fill="none" stroke="#191970" d="M1714.2925,-229.8786C1705.856,-201.1201 1677.8307,-114.2026 1632,-56 1622.5595,-44.0111 1609.3994,-33.2479 1598.0008,-25.1524"/>
<polygon fill="#191970" stroke="#191970" points="1599.9525,-22.247 1589.7184,-19.5057 1596.0093,-28.0307 1599.9525,-22.247"/>
</g>
<!-- Node38 -->
<g id="node24" class="node">
<title>Node38</title>
<g id="a_node24"><a xlink:href="PositionRaw_8h.html" target="_top" xlink:title="iDynTree/Core/PositionRaw.h">
<polygon fill="none" stroke="#000000" points="1769,-168.5 1769,-187.5 1925,-187.5 1925,-168.5 1769,-168.5"/>
<text text-anchor="middle" x="1847" y="-175.5" font-family="FreeSans.ttf" font-size="10.00" fill="#000000">iDynTree/Core/PositionRaw.h</text>
</a>
</g>
</g>
<!-- Node37&#45;&gt;Node38 -->
<g id="edge26" class="edge">
<title>Node37&#45;&gt;Node38</title>
<path fill="none" stroke="#191970" d="M1737.3125,-229.8906C1758.8731,-219.6908 1793.1478,-203.4763 1817.6444,-191.8875"/>
<polygon fill="#191970" stroke="#191970" points="1819.2874,-194.9822 1826.8301,-187.5419 1816.2939,-188.6545 1819.2874,-194.9822"/>
</g>
<!-- Node39 -->
<g id="node25" class="node">
<title>Node39</title>
<g id="a_node25"><a xlink:href="PositionSemantics_8h.html" target="_top" xlink:title="iDynTree/Core/PositionSemantics.h">
<polygon fill="none" stroke="#000000" points="1738.5,-56.5 1738.5,-75.5 1925.5,-75.5 1925.5,-56.5 1738.5,-56.5"/>
<text text-anchor="middle" x="1832" y="-63.5" font-family="FreeSans.ttf" font-size="10.00" fill="#000000">iDynTree/Core/PositionSemantics.h</text>
</a>
</g>
</g>
<!-- Node37&#45;&gt;Node39 -->
<g id="edge29" class="edge">
<title>Node37&#45;&gt;Node39</title>
<path fill="none" stroke="#191970" d="M1720.3552,-229.6691C1726.0869,-214.3119 1739.2013,-184.6666 1760,-168 1799.4836,-136.3607 1838.4157,-173.046 1868,-132 1879.3974,-116.1869 1865.2452,-96.3623 1851.4745,-82.5881"/>
<polygon fill="#191970" stroke="#191970" points="1853.7219,-79.8977 1844.0281,-75.6222 1848.9398,-85.0097 1853.7219,-79.8977"/>
</g>
<!-- Node37&#45;&gt;Node31 -->
<g id="edge31" class="edge">
<title>Node37&#45;&gt;Node31</title>
<path fill="none" stroke="#191970" d="M1696.8438,-229.8906C1675.449,-219.6908 1641.438,-203.4763 1617.1298,-191.8875"/>
<polygon fill="#191970" stroke="#191970" points="1618.5476,-188.686 1608.0147,-187.5419 1615.5352,-195.0047 1618.5476,-188.686"/>
</g>
<!-- Node38&#45;&gt;Node5 -->
<g id="edge28" class="edge">
<title>Node38&#45;&gt;Node5</title>
<path fill="none" stroke="#191970" d="M1863.2537,-168.3493C1897.1202,-147.0881 1969.3475,-95.0019 1935,-56 1913.3764,-31.4462 1690.3948,-16.5107 1606.0672,-11.704"/>
<polygon fill="#191970" stroke="#191970" points="1606.2146,-8.2069 1596.0347,-11.1429 1605.8236,-15.196 1606.2146,-8.2069"/>
</g>
<!-- Node38&#45;&gt;Node17 -->
<g id="edge27" class="edge">
<title>Node38&#45;&gt;Node17</title>
<path fill="none" stroke="#191970" d="M1916.1618,-168.4369C1987.3674,-158.5912 2098.169,-143.2705 2172.8354,-132.9462"/>
<polygon fill="#191970" stroke="#191970" points="2173.6971,-136.3605 2183.1235,-131.5237 2172.7383,-129.4264 2173.6971,-136.3605"/>
</g>
<!-- Node39&#45;&gt;Node5 -->
<g id="edge30" class="edge">
<title>Node39&#45;&gt;Node5</title>
<path fill="none" stroke="#191970" d="M1787.9414,-56.4369C1736.2687,-45.2211 1651.8636,-26.9006 1606.0415,-16.9548"/>
<polygon fill="#191970" stroke="#191970" points="1606.5845,-13.4912 1596.0697,-14.7903 1605.0997,-20.3319 1606.5845,-13.4912"/>
</g>
<!-- Node31&#45;&gt;Node5 -->
<g id="edge32" class="edge">
<title>Node31&#45;&gt;Node5</title>
<path fill="none" stroke="#191970" d="M1594.0565,-168.2282C1606.3004,-147.1587 1631.559,-96.1162 1616,-56 1611.6142,-44.692 1603.0098,-34.463 1594.7251,-26.5381"/>
<polygon fill="#191970" stroke="#191970" points="1596.8244,-23.721 1587.028,-19.6859 1592.1699,-28.9494 1596.8244,-23.721"/>
</g>
<!-- Node31&#45;&gt;Node17 -->
<g id="edge44" class="edge">
<title>Node31&#45;&gt;Node17</title>
<path fill="none" stroke="#191970" d="M1656.5587,-172.2179C1777.0139,-162.0591 2026.5957,-141.01 2161.215,-129.6566"/>
<polygon fill="#191970" stroke="#191970" points="2161.8275,-133.1174 2171.498,-128.7893 2161.2392,-126.1422 2161.8275,-133.1174"/>
</g>
<!-- Node32 -->
<g id="node27" class="node">
<title>Node32</title>
<g id="a_node27"><a xlink:href="RotationRaw_8h.html" target="_top" xlink:title="iDynTree/Core/RotationRaw.h">
<polygon fill="none" stroke="#000000" points="1701,-112.5 1701,-131.5 1859,-131.5 1859,-112.5 1701,-112.5"/>
<text text-anchor="middle" x="1780" y="-119.5" font-family="FreeSans.ttf" font-size="10.00" fill="#000000">iDynTree/Core/RotationRaw.h</text>
</a>
</g>
</g>
<!-- Node31&#45;&gt;Node32 -->
<g id="edge33" class="edge">
<title>Node31&#45;&gt;Node32</title>
<path fill="none" stroke="#191970" d="M1621.006,-168.3733C1653.2091,-158.9807 1702.3442,-144.6496 1737.4639,-134.4064"/>
<polygon fill="#191970" stroke="#191970" points="1738.8047,-137.6612 1747.4247,-131.5011 1736.8447,-130.9412 1738.8047,-137.6612"/>
</g>
<!-- Node33 -->
<g id="node30" class="node">
<title>Node33</title>
<g id="a_node30"><a xlink:href="RotationSemantics_8h.html" target="_top" xlink:title="iDynTree/Core/RotationSemantics.h">
<polygon fill="none" stroke="#000000" points="1419,-56.5 1419,-75.5 1607,-75.5 1607,-56.5 1419,-56.5"/>
<text text-anchor="middle" x="1513" y="-63.5" font-family="FreeSans.ttf" font-size="10.00" fill="#000000">iDynTree/Core/RotationSemantics.h</text>
</a>
</g>
</g>
<!-- Node31&#45;&gt;Node33 -->
<g id="edge42" class="edge">
<title>Node31&#45;&gt;Node33</title>
<path fill="none" stroke="#191970" d="M1581.6055,-168.4509C1569.0964,-149.7707 1541.2079,-108.1238 1525.1046,-84.0761"/>
<polygon fill="#191970" stroke="#191970" points="1527.8506,-81.8865 1519.3783,-75.5249 1522.0342,-85.7814 1527.8506,-81.8865"/>
</g>
<!-- Node32&#45;&gt;Node5 -->
<g id="edge41" class="edge">
<title>Node32&#45;&gt;Node5</title>
<path fill="none" stroke="#191970" d="M1768.2527,-112.3063C1751.1581,-98.5241 1718.0687,-73.0494 1687,-56 1660.7959,-41.6201 1629.1445,-29.116 1606.0139,-20.7892"/>
<polygon fill="#191970" stroke="#191970" points="1606.945,-17.4061 1596.3502,-17.3744 1604.6128,-24.0062 1606.945,-17.4061"/>
</g>
<!-- Node32&#45;&gt;Node10 -->
<g id="edge34" class="edge">
<title>Node32&#45;&gt;Node10</title>
<path fill="none" stroke="#191970" d="M1859.0306,-114.4476C1967.2928,-104.1017 2161.2506,-85.5665 2275.304,-74.6672"/>
<polygon fill="#191970" stroke="#191970" points="2275.7862,-78.1372 2285.4079,-73.7016 2275.1202,-71.1689 2275.7862,-78.1372"/>
</g>
<!-- Node10&#45;&gt;Node5 -->
<g id="edge38" class="edge">
<title>Node10&#45;&gt;Node5</title>
<path fill="none" stroke="#191970" d="M2285.4752,-59.8758C2268.1657,-58.5789 2249.9747,-57.2306 2233,-56 1992.3374,-38.5532 1702.1434,-18.7139 1606.3814,-12.1986"/>
<polygon fill="#191970" stroke="#191970" points="1606.4043,-8.6922 1596.1898,-11.5056 1605.9293,-15.6761 1606.4043,-8.6922"/>
</g>
<!-- Node10&#45;&gt;Node11 -->
<g id="edge35" class="edge">
<title>Node10&#45;&gt;Node11</title>
<path fill="none" stroke="#191970" d="M2404.0817,-56.4369C2442.0059,-46.9133 2500.3289,-32.2672 2541.3126,-21.9753"/>
<polygon fill="#191970" stroke="#191970" points="2542.229,-25.3539 2551.0754,-19.5237 2540.524,-18.5647 2542.229,-25.3539"/>
</g>
<!-- Node10&#45;&gt;Node13 -->
<g id="edge36" class="edge">
<title>Node10&#45;&gt;Node13</title>
<path fill="none" stroke="#191970" d="M2347.0136,-56.2455C2329.8208,-47.4125 2304.2762,-34.2887 2284.7868,-24.2758"/>
<polygon fill="#191970" stroke="#191970" points="2286.263,-21.0993 2275.7688,-19.6427 2283.0641,-27.3257 2286.263,-21.0993"/>
</g>
<!-- Node10&#45;&gt;Node16 -->
<g id="edge40" class="edge">
<title>Node10&#45;&gt;Node16</title>
<path fill="none" stroke="#191970" d="M2386.113,-56.3733C2404.8103,-47.4241 2432.8744,-33.9917 2453.9934,-23.8835"/>
<polygon fill="#191970" stroke="#191970" points="2455.6405,-26.9755 2463.1494,-19.5011 2452.6183,-20.6614 2455.6405,-26.9755"/>
</g>
<!-- Node10&#45;&gt;Node14 -->
<g id="edge37" class="edge">
<title>Node10&#45;&gt;Node14</title>
<path fill="none" stroke="#191970" d="M2374.0126,-56.2455C2380.4768,-48.3761 2389.7385,-37.101 2397.4983,-27.6542"/>
<polygon fill="#191970" stroke="#191970" points="2400.4364,-29.5916 2404.0792,-19.6427 2395.0273,-25.1484 2400.4364,-29.5916"/>
</g>
<!-- Node15 -->
<g id="node29" class="node">
<title>Node15</title>
<polygon fill="none" stroke="#bfbfbf" points="2309,-.5 2309,-19.5 2369,-19.5 2369,-.5 2309,-.5"/>
<text text-anchor="middle" x="2339" y="-7.5" font-family="FreeSans.ttf" font-size="10.00" fill="#000000">iostream</text>
</g>
<!-- Node10&#45;&gt;Node15 -->
<g id="edge39" class="edge">
<title>Node10&#45;&gt;Node15</title>
<path fill="none" stroke="#191970" d="M2361.297,-56.2455C2357.6576,-48.6973 2352.5076,-38.0158 2348.0738,-28.8197"/>
<polygon fill="#191970" stroke="#191970" points="2351.1449,-27.1303 2343.6491,-19.6427 2344.8395,-30.1704 2351.1449,-27.1303"/>
</g>
<!-- Node33&#45;&gt;Node5 -->
<g id="edge43" class="edge">
<title>Node33&#45;&gt;Node5</title>
<path fill="none" stroke="#191970" d="M1523.6254,-56.2455C1532.5473,-48.0549 1545.488,-36.1749 1556.0192,-26.5069"/>
<polygon fill="#191970" stroke="#191970" points="1558.4968,-28.9837 1563.4964,-19.6427 1553.7629,-23.8271 1558.4968,-28.9837"/>
</g>
<!-- Node50&#45;&gt;Node5 -->
<g id="edge48" class="edge">
<title>Node50&#45;&gt;Node5</title>
<path fill="none" stroke="#191970" d="M1247.5901,-168.4884C1242.4257,-145.6285 1233.0531,-87.1909 1263,-56 1282.1405,-36.0644 1465.6639,-18.8801 1541.4801,-12.5722"/>
<polygon fill="#191970" stroke="#191970" points="1542.1719,-16.0273 1551.8522,-11.7214 1541.5996,-9.0507 1542.1719,-16.0273"/>
</g>
<!-- Node51&#45;&gt;Node5 -->
<g id="edge54" class="edge">
<title>Node51&#45;&gt;Node5</title>
<path fill="none" stroke="#191970" d="M1060.8705,-347.4054C1065.4155,-298.3009 1087.0496,-76.614 1109,-56 1140.4876,-26.4294 1441.4564,-14.2222 1541.6995,-10.955"/>
<polygon fill="#191970" stroke="#191970" points="1541.9512,-14.4488 1551.835,-10.633 1541.7289,-7.4524 1541.9512,-14.4488"/>
</g>
<!-- Node51&#45;&gt;Node49 -->
<g id="edge56" class="edge">
<title>Node51&#45;&gt;Node49</title>
<path fill="none" stroke="#191970" d="M1103.3756,-347.4369C1146.937,-337.8328 1214.1277,-323.0191 1260.8634,-312.7152"/>
<polygon fill="#191970" stroke="#191970" points="1261.7915,-316.0947 1270.8034,-310.5237 1260.2843,-309.2588 1261.7915,-316.0947"/>
</g>
<!-- Node51&#45;&gt;Node52 -->
<g id="edge53" class="edge">
<title>Node51&#45;&gt;Node52</title>
<path fill="none" stroke="#191970" d="M1009.4521,-347.4369C949.3606,-336.0682 850.6846,-317.3998 798.6357,-307.5527"/>
<polygon fill="#191970" stroke="#191970" points="799.0463,-304.0684 788.57,-305.6484 797.745,-310.9464 799.0463,-304.0684"/>
</g>
<!-- Node51&#45;&gt;Node53 -->
<g id="edge55" class="edge">
<title>Node51&#45;&gt;Node53</title>
<path fill="none" stroke="#191970" d="M1028.0255,-347.3733C994.4211,-337.2558 941.7843,-321.4082 907.5862,-311.112"/>
<polygon fill="#191970" stroke="#191970" points="908.1909,-307.6389 897.6064,-308.1073 906.1728,-314.3417 908.1909,-307.6389"/>
</g>
<!-- Node54&#45;&gt;Node2 -->
<g id="edge66" class="edge">
<title>Node54&#45;&gt;Node2</title>
<path fill="none" stroke="#191970" d="M614.6254,-459.2455C623.5473,-451.0549 636.488,-439.1749 647.0192,-429.5069"/>
<polygon fill="#191970" stroke="#191970" points="649.4968,-431.9837 654.4964,-422.6427 644.7629,-426.8271 649.4968,-431.9837"/>
</g>
<!-- Node54&#45;&gt;Node4 -->
<g id="edge67" class="edge">
<title>Node54&#45;&gt;Node4</title>
<path fill="none" stroke="#191970" d="M580.1248,-459.4276C535.3786,-440.0889 446.4038,-394.1729 481,-347 491.4872,-332.7005 530.7166,-320.8089 565.8716,-312.7008"/>
<polygon fill="#191970" stroke="#191970" points="566.6558,-316.1119 575.6518,-310.5153 565.1292,-309.2804 566.6558,-316.1119"/>
</g>
<!-- Node54&#45;&gt;Node5 -->
<g id="edge60" class="edge">
<title>Node54&#45;&gt;Node5</title>
<path fill="none" stroke="#191970" d="M528.066,-463.9898C408.5477,-453.9933 190,-426.2466 190,-357 190,-357 190,-357 190,-301 190,-265.7513 183.5184,-248.3548 209,-224 485.1759,39.9641 673.8273,-110.1815 1052,-56 1236.2247,-29.6058 1459.3426,-16.0214 1541.562,-11.6281"/>
<polygon fill="#191970" stroke="#191970" points="1541.9657,-15.1119 1551.7681,-11.0917 1541.5982,-8.1215 1541.9657,-15.1119"/>
</g>
<!-- Node54&#45;&gt;Node21 -->
<g id="edge62" class="edge">
<title>Node54&#45;&gt;Node21</title>
<path fill="none" stroke="#191970" d="M528.3491,-466.337C418.5158,-461.6125 220.8294,-449.634 155,-423 73.7314,-390.1194 0,-388.6683 0,-301 0,-301 0,-301 0,-122 0,-86.5481 20.2704,-49.3564 34.1871,-27.9999"/>
<polygon fill="#191970" stroke="#191970" points="37.1549,-29.8593 39.8617,-19.6161 31.3579,-25.9356 37.1549,-29.8593"/>
</g>
<!-- Node54&#45;&gt;Node53 -->
<g id="edge61" class="edge">
<title>Node54&#45;&gt;Node53</title>
<path fill="none" stroke="#191970" d="M661.6235,-459.4815C688.0579,-452.8018 718.4555,-441.6039 741,-423 770.9335,-398.2986 755.9822,-373.8547 784,-347 800.1074,-331.5613 822.4162,-320.1111 840.7928,-312.4959"/>
<polygon fill="#191970" stroke="#191970" points="842.2431,-315.6863 850.261,-308.7607 839.6743,-309.1747 842.2431,-315.6863"/>
</g>
<!-- Node55 -->
<g id="node36" class="node">
<title>Node55</title>
<g id="a_node36"><a xlink:href="VectorDynSize_8h.html" target="_top" xlink:title="iDynTree/Core/VectorDynSize.h">
<polygon fill="none" stroke="#000000" points="103.5,-112.5 103.5,-131.5 270.5,-131.5 270.5,-112.5 103.5,-112.5"/>
<text text-anchor="middle" x="187" y="-119.5" font-family="FreeSans.ttf" font-size="10.00" fill="#000000">iDynTree/Core/VectorDynSize.h</text>
</a>
</g>
</g>
<!-- Node54&#45;&gt;Node55 -->
<g id="edge63" class="edge">
<title>Node54&#45;&gt;Node55</title>
<path fill="none" stroke="#191970" d="M528.3697,-465.1881C412.8967,-458.7284 203.0986,-444.2294 176,-423 151.4296,-403.7512 152,-388.2125 152,-357 152,-357 152,-357 152,-239.5 152,-203.5066 167.2716,-163.7955 177.6393,-140.9832"/>
<polygon fill="#191970" stroke="#191970" points="180.8866,-142.3027 181.9854,-131.765 174.555,-139.3176 180.8866,-142.3027"/>
</g>
<!-- Node55&#45;&gt;Node5 -->
<g id="edge65" class="edge">
<title>Node55&#45;&gt;Node5</title>
<path fill="none" stroke="#191970" d="M196.9815,-112.2927C213.4801,-96.9739 248.19,-67.7302 284,-56 406.735,-15.7962 1354.4604,-10.6981 1541.8653,-10.0815"/>
<polygon fill="#191970" stroke="#191970" points="1541.9191,-13.5815 1551.9082,-10.0505 1541.8974,-6.5815 1541.9191,-13.5815"/>
</g>
<!-- Node55&#45;&gt;Node18 -->
<g id="edge64" class="edge">
<title>Node55&#45;&gt;Node18</title>
<path fill="none" stroke="#191970" d="M184.213,-112.2455C182.1023,-104.8579 179.134,-94.4689 176.5453,-85.4087"/>
<polygon fill="#191970" stroke="#191970" points="179.8677,-84.2964 173.755,-75.6427 173.137,-86.2195 179.8677,-84.2964"/>
</g>
<!-- Node57&#45;&gt;Node1 -->
<g id="edge116" class="edge">
<title>Node57&#45;&gt;Node1</title>
<path fill="none" stroke="#191970" d="M1290.3045,-581.3886C1186.7438,-571.1491 952.3407,-547.9726 818.5175,-534.7409"/>
<polygon fill="#191970" stroke="#191970" points="818.5631,-531.2284 808.2672,-533.7274 817.8743,-538.1944 818.5631,-531.2284"/>
</g>
<!-- Node57&#45;&gt;Node2 -->
<g id="edge117" class="edge">
<title>Node57&#45;&gt;Node2</title>
<path fill="none" stroke="#191970" d="M1290.314,-582.8879C1189.5103,-575.4525 970.2124,-557.252 898,-535 815.4149,-509.5517 727.5927,-455.0519 687.4135,-428.3642"/>
<polygon fill="#191970" stroke="#191970" points="689.1701,-425.3279 678.9165,-422.6608 685.2689,-431.14 689.1701,-425.3279"/>
</g>
<!-- Node57&#45;&gt;Node5 -->
<g id="edge119" class="edge">
<title>Node57&#45;&gt;Node5</title>
<path fill="none" stroke="#191970" d="M1393.5883,-582.7769C1478.4128,-576.1851 1652.4606,-560.6809 1798,-535 2066.0521,-487.7013 2219.1094,-538.8611 2368,-311 2416.4405,-236.8671 2422.0202,-173.1848 2358,-112 2330.1594,-85.3924 2231.731,-63.7095 2194,-56 2079.7609,-32.6577 1716.7365,-15.9508 1606.2299,-11.3054"/>
<polygon fill="#191970" stroke="#191970" points="1606.1858,-7.8006 1596.0489,-10.8817 1605.8947,-14.7946 1606.1858,-7.8006"/>
</g>
<!-- Node57&#45;&gt;Node53 -->
<g id="edge120" class="edge">
<title>Node57&#45;&gt;Node53</title>
<path fill="none" stroke="#191970" d="M1315.039,-576.9423C1253.4372,-554.5479 1098.6152,-495.0854 981,-423 944.9214,-400.8877 930.7495,-399.7884 904,-367 892.7143,-353.1664 884.7248,-334.4005 879.8436,-320.4149"/>
<polygon fill="#191970" stroke="#191970" points="883.1406,-319.2357 876.7137,-310.8128 876.4852,-321.4052 883.1406,-319.2357"/>
</g>
<!-- Node57&#45;&gt;Node54 -->
<g id="edge118" class="edge">
<title>Node57&#45;&gt;Node54</title>
<path fill="none" stroke="#191970" d="M1290.4245,-586.1622C1134.3398,-584.6818 674.5631,-576.7825 623,-535 609.5643,-524.1128 605.2539,-504.3784 604.0415,-489.3155"/>
<polygon fill="#191970" stroke="#191970" points="607.5227,-488.7805 603.6185,-478.9313 600.5285,-489.0655 607.5227,-488.7805"/>
</g>
<!-- Node58 -->
<g id="node39" class="node">
<title>Node58</title>
<g id="a_node39"><a xlink:href="XMLDocument_8h.html" target="_top" xlink:title="iDynTree/XMLDocument.h">
<polygon fill="none" stroke="#000000" points="1918,-347.5 1918,-366.5 2060,-366.5 2060,-347.5 1918,-347.5"/>
<text text-anchor="middle" x="1989" y="-354.5" font-family="FreeSans.ttf" font-size="10.00" fill="#000000">iDynTree/XMLDocument.h</text>
</a>
</g>
</g>
<!-- Node57&#45;&gt;Node58 -->
<g id="edge72" class="edge">
<title>Node57&#45;&gt;Node58</title>
<path fill="none" stroke="#191970" d="M1371.1103,-576.9236C1445.7119,-552.2906 1649.7107,-484.3551 1818,-423 1866.0274,-405.4901 1921.1139,-383.9668 1955.4885,-370.3617"/>
<polygon fill="#191970" stroke="#191970" points="1957.0304,-373.5155 1965.036,-366.5757 1954.45,-367.0085 1957.0304,-373.5155"/>
</g>
<!-- Node59 -->
<g id="node40" class="node">
<title>Node59</title>
<g id="a_node40"><a xlink:href="JointElement_8h.html" target="_top" xlink:title="JointElement.h">
<polygon fill="none" stroke="#000000" points="1664,-403.5 1664,-422.5 1752,-422.5 1752,-403.5 1664,-403.5"/>
<text text-anchor="middle" x="1708" y="-410.5" font-family="FreeSans.ttf" font-size="10.00" fill="#000000">JointElement.h</text>
</a>
</g>
</g>
<!-- Node57&#45;&gt;Node59 -->
<g id="edge75" class="edge">
<title>Node57&#45;&gt;Node59</title>
<path fill="none" stroke="#191970" d="M1364.3461,-576.8648C1387.7849,-566.6918 1425.6423,-550.0721 1458,-535 1539.1301,-497.2098 1633.8078,-450.2005 1679.9042,-427.1227"/>
<polygon fill="#191970" stroke="#191970" points="1681.6093,-430.1832 1688.981,-422.5733 1678.4727,-423.9252 1681.6093,-430.1832"/>
</g>
<!-- Node62 -->
<g id="node43" class="node">
<title>Node62</title>
<polygon fill="none" stroke="#bfbfbf" points="1824.5,-291.5 1824.5,-310.5 1917.5,-310.5 1917.5,-291.5 1824.5,-291.5"/>
<text text-anchor="middle" x="1871" y="-298.5" font-family="FreeSans.ttf" font-size="10.00" fill="#000000">unordered_map</text>
</g>
<!-- Node57&#45;&gt;Node62 -->
<g id="edge121" class="edge">
<title>Node57&#45;&gt;Node62</title>
<path fill="none" stroke="#191970" d="M1393.7031,-581.5485C1564.6323,-564.012 2106.4748,-498.7164 2209,-367 2214.4599,-359.9856 2214.8463,-353.6958 2209,-347 2190.8102,-326.167 2019.1987,-311.2446 1927.7514,-304.6996"/>
<polygon fill="#191970" stroke="#191970" points="1927.7704,-301.1923 1917.5489,-303.9803 1927.278,-308.175 1927.7704,-301.1923"/>
</g>
<!-- Node65 -->
<g id="node46" class="node">
<title>Node65</title>
<g id="a_node46"><a xlink:href="MaterialElement_8h.html" target="_top" xlink:title="MaterialElement.h">
<polygon fill="none" stroke="#000000" points="1540,-403.5 1540,-422.5 1646,-422.5 1646,-403.5 1540,-403.5"/>
<text text-anchor="middle" x="1593" y="-410.5" font-family="FreeSans.ttf" font-size="10.00" fill="#000000">MaterialElement.h</text>
</a>
</g>
</g>
<!-- Node57&#45;&gt;Node65 -->
<g id="edge94" class="edge">
<title>Node57&#45;&gt;Node65</title>
<path fill="none" stroke="#191970" d="M1359.1032,-576.8634C1390.603,-558.8876 1459.5465,-518.4773 1514,-479 1535.4871,-463.4225 1558.6285,-443.7089 1574.2748,-429.8995"/>
<polygon fill="#191970" stroke="#191970" points="1576.9966,-432.1625 1582.138,-422.8987 1572.3418,-426.9343 1576.9966,-432.1625"/>
</g>
<!-- Node66 -->
<g id="node47" class="node">
<title>Node66</title>
<g id="a_node47"><a xlink:href="SensorElement_8h.html" target="_top" xlink:title="SensorElement.h">
<polygon fill="none" stroke="#000000" points="1253.5,-515.5 1253.5,-534.5 1352.5,-534.5 1352.5,-515.5 1253.5,-515.5"/>
<text text-anchor="middle" x="1303" y="-522.5" font-family="FreeSans.ttf" font-size="10.00" fill="#000000">SensorElement.h</text>
</a>
</g>
</g>
<!-- Node57&#45;&gt;Node66 -->
<g id="edge99" class="edge">
<title>Node57&#45;&gt;Node66</title>
<path fill="none" stroke="#191970" d="M1335.9063,-576.8906C1330.2157,-567.917 1321.5728,-554.2879 1314.5726,-543.2491"/>
<polygon fill="#191970" stroke="#191970" points="1317.4909,-541.3155 1309.1797,-534.7449 1311.5793,-545.0644 1317.4909,-541.3155"/>
</g>
<!-- Node67 -->
<g id="node48" class="node">
<title>Node67</title>
<g id="a_node48"><a xlink:href="VisualElement_8h.html" target="_top" xlink:title="VisualElement.h">
<polygon fill="none" stroke="#000000" points="1388,-459.5 1388,-478.5 1484,-478.5 1484,-459.5 1388,-459.5"/>
<text text-anchor="middle" x="1436" y="-466.5" font-family="FreeSans.ttf" font-size="10.00" fill="#000000">VisualElement.h</text>
</a>
</g>
</g>
<!-- Node57&#45;&gt;Node67 -->
<g id="edge107" class="edge">
<title>Node57&#45;&gt;Node67</title>
<path fill="none" stroke="#191970" d="M1349.6924,-576.8845C1365.4601,-557.1749 1401.6538,-511.9328 1421.8031,-486.7461"/>
<polygon fill="#191970" stroke="#191970" points="1424.6874,-488.7435 1428.2013,-478.7484 1419.2213,-484.3706 1424.6874,-488.7435"/>
</g>
<!-- Node58&#45;&gt;Node5 -->
<g id="edge74" class="edge">
<title>Node58&#45;&gt;Node5</title>
<path fill="none" stroke="#191970" d="M1994.731,-347.3226C2005.7914,-327.7007 2029,-281.5204 2029,-239.5 2029,-239.5 2029,-239.5 2029,-122 2029,-90.7875 2029.5775,-75.2397 2005,-56 1973.7262,-31.5183 1700.9232,-16.1317 1606.2198,-11.4887"/>
<polygon fill="#191970" stroke="#191970" points="1606.2451,-7.9859 1596.088,-10.9998 1605.9077,-14.9778 1606.2451,-7.9859"/>
</g>
<!-- Node58&#45;&gt;Node56 -->
<g id="edge73" class="edge">
<title>Node58&#45;&gt;Node56</title>
<path fill="none" stroke="#191970" d="M1917.8729,-350.2438C1842.2373,-342.6002 1719.2472,-328.8562 1614,-311 1611.6885,-310.6078 1609.3174,-310.178 1606.9291,-309.7238"/>
<polygon fill="#191970" stroke="#191970" points="1607.6161,-306.292 1597.1227,-307.7541 1606.2376,-313.1549 1607.6161,-306.292"/>
</g>
<!-- Node59&#45;&gt;Node5 -->
<g id="edge92" class="edge">
<title>Node59&#45;&gt;Node5</title>
<path fill="none" stroke="#191970" d="M1715.0826,-403.3329C1731.3078,-381.5925 1773.0875,-327.8677 1816,-291 1886.2252,-230.667 1991,-270.5832 1991,-178 1991,-178 1991,-178 1991,-122 1991,-88.1521 1981.2271,-74.6791 1953,-56 1924.2804,-36.995 1692.3982,-18.5301 1606.154,-12.2543"/>
<polygon fill="#191970" stroke="#191970" points="1606.3736,-8.7611 1596.1479,-11.5335 1605.8706,-15.743 1606.3736,-8.7611"/>
</g>
<!-- Node59&#45;&gt;Node49 -->
<g id="edge90" class="edge">
<title>Node59&#45;&gt;Node49</title>
<path fill="none" stroke="#191970" d="M1696.5126,-403.3299C1678.3518,-388.6033 1641.3287,-360.8121 1605,-347 1568.0141,-332.938 1469.4387,-319.0708 1397.2317,-310.2995"/>
<polygon fill="#191970" stroke="#191970" points="1397.5735,-306.8155 1387.2271,-309.0961 1396.7375,-313.7654 1397.5735,-306.8155"/>
</g>
<!-- Node59&#45;&gt;Node56 -->
<g id="edge91" class="edge">
<title>Node59&#45;&gt;Node56</title>
<path fill="none" stroke="#191970" d="M1705.6023,-403.1827C1701.6757,-389.0152 1692.5985,-362.8076 1676,-347 1656.931,-328.8395 1629.5981,-317.2927 1607.2013,-310.3098"/>
<polygon fill="#191970" stroke="#191970" points="1607.8861,-306.8635 1597.3056,-307.4152 1605.9208,-313.5819 1607.8861,-306.8635"/>
</g>
<!-- Node60 -->
<g id="node41" class="node">
<title>Node60</title>
<g id="a_node41"><a xlink:href="XMLElement_8h.html" target="_top" xlink:title="iDynTree/XMLElement.h">
<polygon fill="none" stroke="#000000" points="1464,-347.5 1464,-366.5 1596,-366.5 1596,-347.5 1464,-347.5"/>
<text text-anchor="middle" x="1530" y="-354.5" font-family="FreeSans.ttf" font-size="10.00" fill="#000000">iDynTree/XMLElement.h</text>
</a>
</g>
</g>
<!-- Node59&#45;&gt;Node60 -->
<g id="edge76" class="edge">
<title>Node59&#45;&gt;Node60</title>
<path fill="none" stroke="#191970" d="M1677.4007,-403.3733C1647.6739,-394.021 1602.3841,-379.7725 1569.8544,-369.5385"/>
<polygon fill="#191970" stroke="#191970" points="1570.7895,-366.1636 1560.2,-366.5011 1568.6887,-372.8409 1570.7895,-366.1636"/>
</g>
<!-- Node59&#45;&gt;Node62 -->
<g id="edge93" class="edge">
<title>Node59&#45;&gt;Node62</title>
<path fill="none" stroke="#191970" d="M1727.1136,-403.4756C1744.0951,-394.7363 1769.3521,-381.0494 1790,-367 1812.7324,-351.5322 1836.9424,-331.2428 1852.9105,-317.2644"/>
<polygon fill="#191970" stroke="#191970" points="1855.2864,-319.8356 1860.4581,-310.5888 1850.6488,-314.5923 1855.2864,-319.8356"/>
</g>
<!-- Node63 -->
<g id="node44" class="node">
<title>Node63</title>
<g id="a_node44"><a xlink:href="Axis_8h.html" target="_top" xlink:title="iDynTree/Core/Axis.h">
<polygon fill="none" stroke="#000000" points="2241,-291.5 2241,-310.5 2359,-310.5 2359,-291.5 2241,-291.5"/>
<text text-anchor="middle" x="2300" y="-298.5" font-family="FreeSans.ttf" font-size="10.00" fill="#000000">iDynTree/Core/Axis.h</text>
</a>
</g>
</g>
<!-- Node59&#45;&gt;Node63 -->
<g id="edge82" class="edge">
<title>Node59&#45;&gt;Node63</title>
<path fill="none" stroke="#191970" d="M1752.2916,-411.0762C1872.4986,-405.5907 2198.7615,-388.8484 2242,-367 2262.7454,-356.5174 2279.3431,-335.1311 2289.381,-319.5349"/>
<polygon fill="#191970" stroke="#191970" points="2292.5381,-321.0805 2294.7617,-310.7216 2286.5636,-317.4329 2292.5381,-321.0805"/>
</g>
<!-- Node60&#45;&gt;Node5 -->
<g id="edge79" class="edge">
<title>Node60&#45;&gt;Node5</title>
<path fill="none" stroke="#191970" d="M1524.8245,-347.1178C1510.072,-318.9921 1466.4566,-236.1396 1429,-168 1402.5626,-119.9062 1342.8893,-98.9932 1377,-56 1397.2268,-30.5061 1491.4033,-17.8168 1541.8657,-12.7533"/>
<polygon fill="#191970" stroke="#191970" points="1542.3086,-16.2269 1551.928,-11.7866 1541.6391,-9.259 1542.3086,-16.2269"/>
</g>
<!-- Node60&#45;&gt;Node53 -->
<g id="edge81" class="edge">
<title>Node60&#45;&gt;Node53</title>
<path fill="none" stroke="#191970" d="M1463.7932,-351.3482C1325.702,-339.5599 1011.1948,-312.7117 907.7054,-303.8773"/>
<polygon fill="#191970" stroke="#191970" points="907.7896,-300.3718 897.5281,-303.0085 907.1942,-307.3465 907.7896,-300.3718"/>
</g>
<!-- Node60&#45;&gt;Node56 -->
<g id="edge78" class="edge">
<title>Node60&#45;&gt;Node56</title>
<path fill="none" stroke="#191970" d="M1536.6191,-347.2455C1541.9046,-339.4564 1549.4541,-328.3308 1555.8238,-318.9439"/>
<polygon fill="#191970" stroke="#191970" points="1558.7379,-320.8827 1561.4568,-310.6427 1552.9455,-316.9522 1558.7379,-320.8827"/>
</g>
<!-- Node61 -->
<g id="node42" class="node">
<title>Node61</title>
<polygon fill="none" stroke="#bfbfbf" points="1622.5,-291.5 1622.5,-310.5 1687.5,-310.5 1687.5,-291.5 1622.5,-291.5"/>
<text text-anchor="middle" x="1655" y="-298.5" font-family="FreeSans.ttf" font-size="10.00" fill="#000000">functional</text>
</g>
<!-- Node60&#45;&gt;Node61 -->
<g id="edge77" class="edge">
<title>Node60&#45;&gt;Node61</title>
<path fill="none" stroke="#191970" d="M1551.4883,-347.3733C1571.644,-338.3435 1601.988,-324.7494 1624.618,-314.6111"/>
<polygon fill="#191970" stroke="#191970" points="1626.0971,-317.7838 1633.7921,-310.5011 1623.2351,-311.3955 1626.0971,-317.7838"/>
</g>
<!-- Node60&#45;&gt;Node62 -->
<g id="edge80" class="edge">
<title>Node60&#45;&gt;Node62</title>
<path fill="none" stroke="#191970" d="M1588.2325,-347.4369C1651.3894,-337.0651 1751.5431,-320.6176 1814.1526,-310.3356"/>
<polygon fill="#191970" stroke="#191970" points="1814.9465,-313.7522 1824.2471,-308.6779 1813.8121,-306.8448 1814.9465,-313.7522"/>
</g>
<!-- Node63&#45;&gt;Node5 -->
<g id="edge83" class="edge">
<title>Node63&#45;&gt;Node5</title>
<path fill="none" stroke="#191970" d="M2240.9031,-295.3294C2171.8744,-285.0724 2067,-256.5616 2067,-178 2067,-178 2067,-178 2067,-122 2067,-90.7875 2067.6596,-75.1344 2043,-56 2008.5821,-29.2938 1706.7901,-15.1847 1606.3531,-11.1975"/>
<polygon fill="#191970" stroke="#191970" points="1606.3276,-7.694 1596.1989,-10.8019 1606.055,-14.6887 1606.3276,-7.694"/>
</g>
<!-- Node63&#45;&gt;Node11 -->
<g id="edge89" class="edge">
<title>Node63&#45;&gt;Node11</title>
<path fill="none" stroke="#191970" d="M2358.0842,-291.4386C2452.051,-274.3076 2627,-234.7875 2627,-178 2627,-178 2627,-178 2627,-122 2627,-87.6118 2610.7366,-50.2832 2599.489,-28.5791"/>
<polygon fill="#191970" stroke="#191970" points="2602.431,-26.6605 2594.607,-19.5166 2596.2683,-29.9804 2602.431,-26.6605"/>
</g>
<!-- Node63&#45;&gt;Node37 -->
<g id="edge88" class="edge">
<title>Node63&#45;&gt;Node37</title>
<path fill="none" stroke="#191970" d="M2240.8905,-294.7646C2123.2045,-282.35 1862.1127,-254.8078 1759.5463,-243.9882"/>
<polygon fill="#191970" stroke="#191970" points="1759.864,-240.5023 1749.552,-242.9339 1759.1296,-247.4637 1759.864,-240.5023"/>
</g>
<!-- Node64 -->
<g id="node45" class="node">
<title>Node64</title>
<g id="a_node45"><a xlink:href="Direction_8h.html" target="_top" xlink:title="iDynTree/Core/Direction.h">
<polygon fill="none" stroke="#000000" points="2229.5,-168.5 2229.5,-187.5 2370.5,-187.5 2370.5,-168.5 2229.5,-168.5"/>
<text text-anchor="middle" x="2300" y="-175.5" font-family="FreeSans.ttf" font-size="10.00" fill="#000000">iDynTree/Core/Direction.h</text>
</a>
</g>
</g>
<!-- Node63&#45;&gt;Node64 -->
<g id="edge84" class="edge">
<title>Node63&#45;&gt;Node64</title>
<path fill="none" stroke="#191970" d="M2300,-291.3484C2300,-271.2295 2300,-224.4608 2300,-197.7098"/>
<polygon fill="#191970" stroke="#191970" points="2303.5001,-197.6067 2300,-187.6068 2296.5001,-197.6068 2303.5001,-197.6067"/>
</g>
<!-- Node64&#45;&gt;Node5 -->
<g id="edge85" class="edge">
<title>Node64&#45;&gt;Node5</title>
<path fill="none" stroke="#191970" d="M2313.7245,-168.4621C2330.9828,-155.2999 2356.6804,-131.0364 2342,-112 2303.5542,-62.1465 2264.7155,-95.9379 2205,-76 2182.6888,-68.5507 2178.8853,-61.4357 2156,-56 2050.1737,-30.8641 1712.7051,-15.5422 1606.3952,-11.2464"/>
<polygon fill="#191970" stroke="#191970" points="1606.4103,-7.7443 1596.2787,-10.8429 1606.1312,-14.7387 1606.4103,-7.7443"/>
</g>
<!-- Node64&#45;&gt;Node17 -->
<g id="edge86" class="edge">
<title>Node64&#45;&gt;Node17</title>
<path fill="none" stroke="#191970" d="M2291.639,-168.2455C2284.825,-160.2958 2275.0319,-148.8706 2266.8848,-139.3656"/>
<polygon fill="#191970" stroke="#191970" points="2269.4305,-136.9575 2260.2651,-131.6427 2264.1157,-141.513 2269.4305,-136.9575"/>
</g>
<!-- Node64&#45;&gt;Node11 -->
<g id="edge87" class="edge">
<title>Node64&#45;&gt;Node11</title>
<path fill="none" stroke="#191970" d="M2329.1764,-168.4407C2373.5008,-153.1124 2459.3671,-120.209 2523,-76 2543.0244,-62.088 2562.3105,-41.729 2574.8084,-27.3078"/>
<polygon fill="#191970" stroke="#191970" points="2577.5465,-29.4903 2581.3367,-19.5966 2572.204,-24.9672 2577.5465,-29.4903"/>
</g>
<!-- Node65&#45;&gt;Node5 -->
<g id="edge98" class="edge">
<title>Node65&#45;&gt;Node5</title>
<path fill="none" stroke="#191970" d="M1612.5942,-403.4847C1649.7893,-384.0689 1724.5551,-337.7569 1697,-291 1649.023,-209.59 1584.9876,-246.7811 1511,-188 1458.5182,-146.3046 1434.0448,-138.5675 1410,-76 1406.8113,-67.7027 1404.63,-63.0835 1410,-56 1425.8849,-35.0465 1498.8422,-21.0064 1541.9127,-14.3861"/>
<polygon fill="#191970" stroke="#191970" points="1542.5316,-17.8327 1551.9082,-12.9002 1541.5022,-10.9088 1542.5316,-17.8327"/>
</g>
<!-- Node65&#45;&gt;Node17 -->
<g id="edge96" class="edge">
<title>Node65&#45;&gt;Node17</title>
<path fill="none" stroke="#191970" d="M1646.0543,-404.1029C1649.0769,-403.702 1652.0748,-403.3302 1655,-403 1716.2961,-396.081 2165.4836,-410.7197 2209,-367 2240.2535,-335.6004 2206.786,-209.9604 2221,-168 2224.449,-157.8184 2230.7841,-147.7701 2236.8328,-139.6746"/>
<polygon fill="#191970" stroke="#191970" points="2239.6541,-141.7498 2243.1336,-131.7426 2234.173,-137.3958 2239.6541,-141.7498"/>
</g>
<!-- Node65&#45;&gt;Node56 -->
<g id="edge97" class="edge">
<title>Node65&#45;&gt;Node56</title>
<path fill="none" stroke="#191970" d="M1597.7784,-403.3563C1603.5846,-390.2783 1611.8103,-366.3328 1605,-347 1601.1691,-336.125 1593.5598,-325.9246 1586.2328,-317.9061"/>
<polygon fill="#191970" stroke="#191970" points="1588.6466,-315.3686 1579.1502,-310.6707 1583.6443,-320.2652 1588.6466,-315.3686"/>
</g>
<!-- Node65&#45;&gt;Node60 -->
<g id="edge95" class="edge">
<title>Node65&#45;&gt;Node60</title>
<path fill="none" stroke="#191970" d="M1582.0262,-403.2455C1572.8118,-395.0549 1559.4468,-383.1749 1548.5703,-373.5069"/>
<polygon fill="#191970" stroke="#191970" points="1550.6474,-370.6704 1540.848,-366.6427 1545.9968,-375.9023 1550.6474,-370.6704"/>
</g>
<!-- Node66&#45;&gt;Node5 -->
<g id="edge104" class="edge">
<title>Node66&#45;&gt;Node5</title>
<path fill="none" stroke="#191970" d="M1292.6772,-515.493C1249.497,-474.5287 1088.1017,-308.796 1143,-168 1167.5673,-104.993 1186.118,-87.4257 1246,-56 1296.9727,-29.2499 1468.8516,-16.2047 1541.3311,-11.79"/>
<polygon fill="#191970" stroke="#191970" points="1541.9019,-15.2624 1551.6776,-11.1776 1541.4883,-8.2746 1541.9019,-15.2624"/>
</g>
<!-- Node66&#45;&gt;Node49 -->
<g id="edge101" class="edge">
<title>Node66&#45;&gt;Node49</title>
<path fill="none" stroke="#191970" d="M1303.4727,-515.375C1305.1369,-481.4851 1310.7476,-367.2317 1313.026,-320.8332"/>
<polygon fill="#191970" stroke="#191970" points="1316.5343,-320.7488 1313.5291,-310.5891 1309.5427,-320.4054 1316.5343,-320.7488"/>
</g>
<!-- Node66&#45;&gt;Node53 -->
<g id="edge106" class="edge">
<title>Node66&#45;&gt;Node53</title>
<path fill="none" stroke="#191970" d="M1262.9677,-515.4704C1190.5527,-496.7219 1035.5378,-449.5261 930,-367 912.5209,-353.3321 896.5751,-333.4743 886.2088,-319.114"/>
<polygon fill="#191970" stroke="#191970" points="888.8446,-316.7762 880.2423,-310.5914 883.1102,-320.7908 888.8446,-316.7762"/>
</g>
<!-- Node66&#45;&gt;Node54 -->
<g id="edge102" class="edge">
<title>Node66&#45;&gt;Node54</title>
<path fill="none" stroke="#191970" d="M1253.29,-521.0175C1135.4137,-511.5739 837.7869,-487.7297 689.9988,-475.8897"/>
<polygon fill="#191970" stroke="#191970" points="689.8691,-472.3682 679.6215,-475.0584 689.31,-479.3459 689.8691,-472.3682"/>
</g>
<!-- Node66&#45;&gt;Node56 -->
<g id="edge103" class="edge">
<title>Node66&#45;&gt;Node56</title>
<path fill="none" stroke="#191970" d="M1307.8297,-515.3486C1323.0824,-485.8114 1373.1949,-395.7 1440,-347 1466.5645,-327.6349 1502.0901,-315.7281 1528.9747,-308.8947"/>
<polygon fill="#191970" stroke="#191970" points="1529.9188,-312.2674 1538.8187,-306.5191 1528.2767,-305.4627 1529.9188,-312.2674"/>
</g>
<!-- Node66&#45;&gt;Node60 -->
<g id="edge100" class="edge">
<title>Node66&#45;&gt;Node60</title>
<path fill="none" stroke="#191970" d="M1352.9555,-518.5842C1402.2383,-511.2841 1473.0158,-497.8777 1493,-479 1521.5792,-452.0032 1528.3119,-403.7359 1529.7556,-376.712"/>
<polygon fill="#191970" stroke="#191970" points="1533.259,-376.6675 1530.0988,-366.5549 1526.263,-376.431 1533.259,-376.6675"/>
</g>
<!-- Node66&#45;&gt;Node62 -->
<g id="edge105" class="edge">
<title>Node66&#45;&gt;Node62</title>
<path fill="none" stroke="#191970" d="M1352.8468,-518.0669C1460.8674,-502.4789 1712.9392,-462.8978 1789,-423 1821.016,-406.206 1828.3871,-397.371 1848,-367 1857.2456,-352.683 1863.2694,-334.2092 1866.8235,-320.4493"/>
<polygon fill="#191970" stroke="#191970" points="1870.2586,-321.1319 1869.1588,-310.5943 1863.4473,-319.5178 1870.2586,-321.1319"/>
</g>
<!-- Node67&#45;&gt;Node5 -->
<g id="edge113" class="edge">
<title>Node67&#45;&gt;Node5</title>
<path fill="none" stroke="#191970" d="M1433.8462,-459.2246C1420.4705,-398.2757 1349.7542,-72.4446 1363,-56 1385.1039,-28.558 1488.504,-16.6149 1541.8995,-12.2052"/>
<polygon fill="#191970" stroke="#191970" points="1542.178,-15.6942 1551.873,-11.4213 1541.6294,-8.7157 1542.178,-15.6942"/>
</g>
<!-- Node67&#45;&gt;Node49 -->
<g id="edge110" class="edge">
<title>Node67&#45;&gt;Node49</title>
<path fill="none" stroke="#191970" d="M1422.9568,-459.425C1411.7351,-450.7565 1395.573,-437.2027 1384,-423 1356.885,-389.7238 1334.0031,-344.6247 1322.3252,-319.6281"/>
<polygon fill="#191970" stroke="#191970" points="1325.5016,-318.1581 1318.1546,-310.5245 1319.1376,-321.0736 1325.5016,-318.1581"/>
</g>
<!-- Node67&#45;&gt;Node51 -->
<g id="edge111" class="edge">
<title>Node67&#45;&gt;Node51</title>
<path fill="none" stroke="#191970" d="M1405.9406,-459.4957C1364.5906,-446.4751 1287.7979,-422.4854 1222,-403 1182.2407,-391.2257 1136.8127,-378.3787 1104.2006,-369.2616"/>
<polygon fill="#191970" stroke="#191970" points="1105.0843,-365.8745 1094.5115,-366.5572 1103.2024,-372.6168 1105.0843,-365.8745"/>
</g>
<!-- Node67&#45;&gt;Node53 -->
<g id="edge115" class="edge">
<title>Node67&#45;&gt;Node53</title>
<path fill="none" stroke="#191970" d="M1387.8199,-464.6776C1301.0885,-455.563 1114.2831,-429.792 970,-367 940.862,-354.3192 911.3294,-332.3432 892.8621,-317.2582"/>
<polygon fill="#191970" stroke="#191970" points="894.8879,-314.3903 884.9662,-310.6739 890.4049,-319.7664 894.8879,-314.3903"/>
</g>
<!-- Node67&#45;&gt;Node56 -->
<g id="edge112" class="edge">
<title>Node67&#45;&gt;Node56</title>
<path fill="none" stroke="#191970" d="M1434.5522,-459.2048C1431.7998,-436.7282 1428.2661,-380.7892 1455,-347 1472.9618,-324.2979 1503.9517,-312.725 1528.9399,-306.8686"/>
<polygon fill="#191970" stroke="#191970" points="1529.8214,-310.2596 1538.8767,-304.7594 1528.3679,-303.4121 1529.8214,-310.2596"/>
</g>
<!-- Node67&#45;&gt;Node60 -->
<g id="edge108" class="edge">
<title>Node67&#45;&gt;Node60</title>
<path fill="none" stroke="#191970" d="M1444.0144,-459.4509C1459.8312,-440.6054 1495.2663,-398.3849 1515.3613,-374.4419"/>
<polygon fill="#191970" stroke="#191970" points="1518.2581,-376.4347 1522.0059,-366.5249 1512.8962,-371.9346 1518.2581,-376.4347"/>
</g>
<!-- Node67&#45;&gt;Node62 -->
<g id="edge114" class="edge">
<title>Node67&#45;&gt;Node62</title>
<path fill="none" stroke="#191970" d="M1484.0513,-465.9872C1562.3496,-460.4528 1713.4991,-446.98 1761,-423 1807.4579,-399.5466 1843.5765,-347.5384 1860.4897,-319.6021"/>
<polygon fill="#191970" stroke="#191970" points="1863.607,-321.2055 1865.6566,-310.8108 1857.5721,-317.6586 1863.607,-321.2055"/>
</g>
<!-- Node67&#45;&gt;Node65 -->
<g id="edge109" class="edge">
<title>Node67&#45;&gt;Node65</title>
<path fill="none" stroke="#191970" d="M1462.9893,-459.3733C1488.8699,-450.1419 1528.1248,-436.1402 1556.7289,-425.9375"/>
<polygon fill="#191970" stroke="#191970" points="1558.12,-429.1573 1566.3629,-422.5011 1555.7683,-422.5642 1558.12,-429.1573"/>
</g>
<!-- Node68&#45;&gt;Node5 -->
<g id="edge125" class="edge">
<title>Node68&#45;&gt;Node5</title>
<path fill="none" stroke="#191970" d="M2139.5562,-347.2549C2140.6553,-327.1291 2143,-279.5058 2143,-239.5 2143,-239.5 2143,-239.5 2143,-178 2143,-113.643 2119.9438,-89.5113 2065,-56 2025.9079,-32.157 1709.2716,-16.0402 1606.256,-11.3869"/>
<polygon fill="#191970" stroke="#191970" points="1606.2894,-7.885 1596.1434,-10.9361 1605.9776,-14.878 1606.2894,-7.885"/>
</g>
<!-- Node68&#45;&gt;Node56 -->
<g id="edge124" class="edge">
<title>Node68&#45;&gt;Node56</title>
<path fill="none" stroke="#191970" d="M2078.3233,-348.0936C2075.1725,-347.7057 2072.0503,-347.3382 2069,-347 1867.3814,-324.645 1814.681,-340.6137 1614,-311 1611.7665,-310.6704 1609.4794,-310.2955 1607.1762,-309.8889"/>
<polygon fill="#191970" stroke="#191970" points="1607.574,-306.4012 1597.0923,-307.9455 1606.2493,-313.2748 1607.574,-306.4012"/>
</g>
<!-- Node68&#45;&gt;Node61 -->
<g id="edge123" class="edge">
<title>Node68&#45;&gt;Node61</title>
<path fill="none" stroke="#191970" d="M2078.3093,-348.2116C2075.1621,-347.7929 2072.0446,-347.3865 2069,-347 1933.5042,-329.7985 1772.599,-312.9408 1697.5256,-305.2822"/>
<polygon fill="#191970" stroke="#191970" points="1697.8166,-301.7939 1687.5136,-304.2636 1697.108,-308.7579 1697.8166,-301.7939"/>
</g>
<!-- Node68&#45;&gt;Node62 -->
<g id="edge126" class="edge">
<title>Node68&#45;&gt;Node62</title>
<path fill="none" stroke="#191970" d="M2093.2337,-347.4369C2047.0785,-337.7925 1975.7822,-322.8948 1926.4463,-312.5858"/>
<polygon fill="#191970" stroke="#191970" points="1927.0821,-309.1431 1916.5776,-310.5237 1925.6502,-315.9951 1927.0821,-309.1431"/>
</g>
</g>
</svg>
