<?xml version="1.0" encoding="UTF-8" standalone="no"?>
<!DOCTYPE svg PUBLIC "-//W3C//DTD SVG 1.1//EN"
 "http://www.w3.org/Graphics/SVG/1.1/DTD/svg11.dtd">
<!-- Generated by graphviz version 2.40.1 (20161225.0304)
 -->
<!-- Title: ModelTransformers.h Pages: 1 -->
<svg width="524pt" height="95pt"
 viewBox="0.00 0.00 524.00 95.00" xmlns="http://www.w3.org/2000/svg" xmlns:xlink="http://www.w3.org/1999/xlink">
<g id="graph0" class="graph" transform="scale(1 1) rotate(0) translate(4 91)">
<title>ModelTransformers.h</title>
<!-- Node1 -->
<g id="node1" class="node">
<title>Node1</title>
<polygon fill="#bfbfbf" stroke="#000000" points="193.5,-67.5 193.5,-86.5 312.5,-86.5 312.5,-67.5 193.5,-67.5"/>
<text text-anchor="middle" x="253" y="-74.5" font-family="FreeSans.ttf" font-size="10.00" fill="#000000">ModelTransformers.h</text>
</g>
<!-- Node2 -->
<g id="node2" class="node">
<title>Node2</title>
<g id="a_node2"><a xlink:href="ExtWrenchesAndJointTorquesEstimator_8cpp.html" target="_top" xlink:title="ExtWrenchesAndJointTorques\lEstimator.cpp">
<polygon fill="none" stroke="#000000" points="0,-.5 0,-30.5 158,-30.5 158,-.5 0,-.5"/>
<text text-anchor="start" x="8" y="-18.5" font-family="FreeSans.ttf" font-size="10.00" fill="#000000">ExtWrenchesAndJointTorques</text>
<text text-anchor="middle" x="79" y="-7.5" font-family="FreeSans.ttf" font-size="10.00" fill="#000000">Estimator.cpp</text>
</a>
</g>
</g>
<!-- Node1&#45;&gt;Node2 -->
<g id="edge1" class="edge">
<title>Node1&#45;&gt;Node2</title>
<path fill="none" stroke="#191970" d="M216.119,-63.9645C188.4511,-54.1853 150.5201,-40.7786 121.5652,-30.5446"/>
<polygon fill="#191970" stroke="#191970" points="215.2177,-67.3581 225.8125,-67.3906 217.5505,-60.7582 215.2177,-67.3581"/>
</g>
<!-- Node3 -->
<g id="node3" class="node">
<title>Node3</title>
<g id="a_node3"><a xlink:href="SimpleLeggedOdometry_8cpp.html" target="_top" xlink:title="SimpleLeggedOdometry.cpp">
<polygon fill="none" stroke="#000000" points="176.5,-6 176.5,-25 329.5,-25 329.5,-6 176.5,-6"/>
<text text-anchor="middle" x="253" y="-13" font-family="FreeSans.ttf" font-size="10.00" fill="#000000">SimpleLeggedOdometry.cpp</text>
</a>
</g>
</g>
<!-- Node1&#45;&gt;Node3 -->
<g id="edge2" class="edge">
<title>Node1&#45;&gt;Node3</title>
<path fill="none" stroke="#191970" d="M253,-57.2462C253,-46.5519 253,-33.814 253,-25.2449"/>
<polygon fill="#191970" stroke="#191970" points="249.5001,-57.3906 253,-67.3906 256.5001,-57.3907 249.5001,-57.3906"/>
</g>
<!-- Node4 -->
<g id="node4" class="node">
<title>Node4</title>
<g id="a_node4"><a xlink:href="ModelSensorsTransformers_8cpp.html" target="_top" xlink:title="ModelSensorsTransformers.cpp">
<polygon fill="none" stroke="#000000" points="348,-6 348,-25 516,-25 516,-6 348,-6"/>
<text text-anchor="middle" x="432" y="-13" font-family="FreeSans.ttf" font-size="10.00" fill="#000000">ModelSensorsTransformers.cpp</text>
</a>
</g>
</g>
<!-- Node1&#45;&gt;Node4 -->
<g id="edge3" class="edge">
<title>Node1&#45;&gt;Node4</title>
<path fill="none" stroke="#191970" d="M290.5439,-64.1009C324.4935,-52.4366 373.7007,-35.5302 404.2276,-25.0419"/>
<polygon fill="#191970" stroke="#191970" points="289.2888,-60.8312 280.9688,-67.3906 291.5634,-67.4513 289.2888,-60.8312"/>
</g>
</g>
</svg>
