<?xml version="1.0" encoding="UTF-8" standalone="no"?>
<!DOCTYPE svg PUBLIC "-//W3C//DTD SVG 1.1//EN"
 "http://www.w3.org/Graphics/SVG/1.1/DTD/svg11.dtd">
<!-- Generated by graphviz version 2.40.1 (20161225.0304)
 -->
<!-- Title: MotionVector3.cpp Pages: 1 -->
<svg width="1313pt" height="498pt"
 viewBox="0.00 0.00 1313.00 498.00" xmlns="http://www.w3.org/2000/svg" xmlns:xlink="http://www.w3.org/1999/xlink">
<g id="graph0" class="graph" transform="scale(1 1) rotate(0) translate(4 494)">
<title>MotionVector3.cpp</title>
<!-- Node0 -->
<g id="node1" class="node">
<title>Node0</title>
<polygon fill="#bfbfbf" stroke="#000000" points="829,-470.5 829,-489.5 936,-489.5 936,-470.5 829,-470.5"/>
<text text-anchor="middle" x="882.5" y="-477.5" font-family="FreeSans.ttf" font-size="10.00" fill="#000000">MotionVector3.cpp</text>
</g>
<!-- Node1 -->
<g id="node2" class="node">
<title>Node1</title>
<g id="a_node2"><a xlink:href="MotionVector3_8h.html" target="_top" xlink:title="iDynTree/Core/MotionVector3.h">
<polygon fill="none" stroke="#000000" points="615,-347.5 615,-366.5 782,-366.5 782,-347.5 615,-347.5"/>
<text text-anchor="middle" x="698.5" y="-354.5" font-family="FreeSans.ttf" font-size="10.00" fill="#000000">iDynTree/Core/MotionVector3.h</text>
</a>
</g>
</g>
<!-- Node0&#45;&gt;Node1 -->
<g id="edge1" class="edge">
<title>Node0&#45;&gt;Node1</title>
<path fill="none" stroke="#191970" d="M828.6148,-472.1196C784.2744,-464.4993 726.2534,-451.5312 710.5,-434 696.6284,-418.5629 695.0722,-393.9787 696.053,-376.7523"/>
<polygon fill="#191970" stroke="#191970" points="699.5503,-376.938 696.9599,-366.6647 692.5785,-376.3111 699.5503,-376.938"/>
</g>
<!-- Node24 -->
<g id="node25" class="node">
<title>Node24</title>
<g id="a_node25"><a xlink:href="LinearMotionVector3_8h.html" target="_top" xlink:title="iDynTree/Core/LinearMotion\lVector3.h">
<polygon fill="none" stroke="#000000" points="512,-403.5 512,-433.5 663,-433.5 663,-403.5 512,-403.5"/>
<text text-anchor="start" x="520" y="-421.5" font-family="FreeSans.ttf" font-size="10.00" fill="#000000">iDynTree/Core/LinearMotion</text>
<text text-anchor="middle" x="587.5" y="-410.5" font-family="FreeSans.ttf" font-size="10.00" fill="#000000">Vector3.h</text>
</a>
</g>
</g>
<!-- Node0&#45;&gt;Node24 -->
<g id="edge36" class="edge">
<title>Node0&#45;&gt;Node24</title>
<path fill="none" stroke="#191970" d="M836.7299,-470.4581C792.1666,-461.1678 723.4484,-446.8418 669.4467,-435.5838"/>
<polygon fill="#191970" stroke="#191970" points="670.0477,-432.1339 659.5439,-433.5193 668.6191,-438.9866 670.0477,-432.1339"/>
</g>
<!-- Node25 -->
<g id="node26" class="node">
<title>Node25</title>
<g id="a_node26"><a xlink:href="AngularMotionVector3_8h.html" target="_top" xlink:title="iDynTree/Core/AngularMotion\lVector3.h">
<polygon fill="none" stroke="#000000" points="719.5,-403.5 719.5,-433.5 877.5,-433.5 877.5,-403.5 719.5,-403.5"/>
<text text-anchor="start" x="727.5" y="-421.5" font-family="FreeSans.ttf" font-size="10.00" fill="#000000">iDynTree/Core/AngularMotion</text>
<text text-anchor="middle" x="798.5" y="-410.5" font-family="FreeSans.ttf" font-size="10.00" fill="#000000">Vector3.h</text>
</a>
</g>
</g>
<!-- Node0&#45;&gt;Node25 -->
<g id="edge39" class="edge">
<title>Node0&#45;&gt;Node25</title>
<path fill="none" stroke="#191970" d="M869.375,-470.3906C858.1119,-462.1444 841.4791,-449.9669 827.1566,-439.4807"/>
<polygon fill="#191970" stroke="#191970" points="829.185,-436.628 819.0487,-433.5446 825.0498,-442.276 829.185,-436.628"/>
</g>
<!-- Node26 -->
<g id="node27" class="node">
<title>Node26</title>
<g id="a_node27"><a xlink:href="LinearForceVector3_8h.html" target="_top" xlink:title="iDynTree/Core/LinearForce\lVector3.h">
<polygon fill="none" stroke="#000000" points="895.5,-403.5 895.5,-433.5 1039.5,-433.5 1039.5,-403.5 895.5,-403.5"/>
<text text-anchor="start" x="903.5" y="-421.5" font-family="FreeSans.ttf" font-size="10.00" fill="#000000">iDynTree/Core/LinearForce</text>
<text text-anchor="middle" x="967.5" y="-410.5" font-family="FreeSans.ttf" font-size="10.00" fill="#000000">Vector3.h</text>
</a>
</g>
</g>
<!-- Node0&#45;&gt;Node26 -->
<g id="edge42" class="edge">
<title>Node0&#45;&gt;Node26</title>
<path fill="none" stroke="#191970" d="M895.7813,-470.3906C907.1784,-462.1444 924.0092,-449.9669 938.5023,-439.4807"/>
<polygon fill="#191970" stroke="#191970" points="940.6565,-442.2421 946.7067,-433.5446 936.5532,-436.5709 940.6565,-442.2421"/>
</g>
<!-- Node28 -->
<g id="node29" class="node">
<title>Node28</title>
<g id="a_node29"><a xlink:href="AngularForceVector3_8h.html" target="_top" xlink:title="iDynTree/Core/AngularForce\lVector3.h">
<polygon fill="none" stroke="#000000" points="1057.5,-403.5 1057.5,-433.5 1209.5,-433.5 1209.5,-403.5 1057.5,-403.5"/>
<text text-anchor="start" x="1065.5" y="-421.5" font-family="FreeSans.ttf" font-size="10.00" fill="#000000">iDynTree/Core/AngularForce</text>
<text text-anchor="middle" x="1133.5" y="-410.5" font-family="FreeSans.ttf" font-size="10.00" fill="#000000">Vector3.h</text>
</a>
</g>
</g>
<!-- Node0&#45;&gt;Node28 -->
<g id="edge47" class="edge">
<title>Node0&#45;&gt;Node28</title>
<path fill="none" stroke="#191970" d="M921.4434,-470.4581C958.9025,-461.2799 1016.4208,-447.1867 1062.1073,-435.9926"/>
<polygon fill="#191970" stroke="#191970" points="1063.0807,-439.3577 1071.9604,-433.5784 1061.4148,-432.5589 1063.0807,-439.3577"/>
</g>
<!-- Node29 -->
<g id="node30" class="node">
<title>Node29</title>
<polygon fill="none" stroke="#bfbfbf" points="1228,-409 1228,-428 1305,-428 1305,-409 1228,-409"/>
<text text-anchor="middle" x="1266.5" y="-416" font-family="FreeSans.ttf" font-size="10.00" fill="#000000">Eigen/Dense</text>
</g>
<!-- Node0&#45;&gt;Node29 -->
<g id="edge50" class="edge">
<title>Node0&#45;&gt;Node29</title>
<path fill="none" stroke="#191970" d="M936.2705,-475.5841C1003.056,-469.4269 1120.1959,-456.4169 1218.5,-434 1222.3287,-433.1269 1226.2889,-432.0841 1230.2171,-430.9578"/>
<polygon fill="#191970" stroke="#191970" points="1231.2743,-434.2946 1239.8224,-428.0353 1229.2366,-427.5978 1231.2743,-434.2946"/>
</g>
<!-- Node2 -->
<g id="node3" class="node">
<title>Node2</title>
<g id="a_node3"><a xlink:href="GeomVector3_8h.html" target="_top" xlink:title="iDynTree/Core/GeomVector3.h">
<polygon fill="none" stroke="#000000" points="616,-291.5 616,-310.5 779,-310.5 779,-291.5 616,-291.5"/>
<text text-anchor="middle" x="697.5" y="-298.5" font-family="FreeSans.ttf" font-size="10.00" fill="#000000">iDynTree/Core/GeomVector3.h</text>
</a>
</g>
</g>
<!-- Node1&#45;&gt;Node2 -->
<g id="edge2" class="edge">
<title>Node1&#45;&gt;Node2</title>
<path fill="none" stroke="#191970" d="M698.3258,-347.2455C698.1953,-339.9382 698.0124,-329.6944 697.8519,-320.7046"/>
<polygon fill="#191970" stroke="#191970" points="701.3503,-320.5786 697.6722,-310.6427 694.3514,-320.7036 701.3503,-320.5786"/>
</g>
<!-- Node23 -->
<g id="node24" class="node">
<title>Node23</title>
<g id="a_node24"><a xlink:href="PrivateMotionForceVertorAssociations_8h.html" target="_top" xlink:title="iDynTree/Core/PrivateMotion\lForceVertorAssociations.h">
<polygon fill="none" stroke="#000000" points="784,-224.5 784,-254.5 939,-254.5 939,-224.5 784,-224.5"/>
<text text-anchor="start" x="792" y="-242.5" font-family="FreeSans.ttf" font-size="10.00" fill="#000000">iDynTree/Core/PrivateMotion</text>
<text text-anchor="middle" x="861.5" y="-231.5" font-family="FreeSans.ttf" font-size="10.00" fill="#000000">ForceVertorAssociations.h</text>
</a>
</g>
</g>
<!-- Node1&#45;&gt;Node23 -->
<g id="edge35" class="edge">
<title>Node1&#45;&gt;Node23</title>
<path fill="none" stroke="#191970" d="M721.4898,-347.3622C740.1097,-339.0409 766.5886,-326.012 787.5,-311 807.52,-296.628 827.4522,-276.9826 841.5776,-261.9207"/>
<polygon fill="#191970" stroke="#191970" points="844.2004,-264.2393 848.4047,-254.5144 839.0535,-259.4949 844.2004,-264.2393"/>
</g>
<!-- Node3 -->
<g id="node4" class="node">
<title>Node3</title>
<g id="a_node4"><a xlink:href="VectorFixSize_8h.html" target="_top" xlink:title="iDynTree/Core/VectorFixSize.h">
<polygon fill="none" stroke="#000000" points="472,-112.5 472,-131.5 633,-131.5 633,-112.5 472,-112.5"/>
<text text-anchor="middle" x="552.5" y="-119.5" font-family="FreeSans.ttf" font-size="10.00" fill="#000000">iDynTree/Core/VectorFixSize.h</text>
</a>
</g>
</g>
<!-- Node2&#45;&gt;Node3 -->
<g id="edge3" class="edge">
<title>Node2&#45;&gt;Node3</title>
<path fill="none" stroke="#191970" d="M673.9623,-291.4415C657.1063,-283.6496 634.7785,-271.2767 619.5,-255 587.7889,-221.2172 567.642,-169.5552 558.4088,-141.6021"/>
<polygon fill="#191970" stroke="#191970" points="561.6663,-140.2952 555.3073,-131.8209 554.9937,-142.4111 561.6663,-140.2952"/>
</g>
<!-- Node18 -->
<g id="node19" class="node">
<title>Node18</title>
<g id="a_node19"><a xlink:href="Rotation_8h.html" target="_top" xlink:title="iDynTree/Core/Rotation.h">
<polygon fill="none" stroke="#000000" points="629,-230 629,-249 766,-249 766,-230 629,-230"/>
<text text-anchor="middle" x="697.5" y="-237" font-family="FreeSans.ttf" font-size="10.00" fill="#000000">iDynTree/Core/Rotation.h</text>
</a>
</g>
</g>
<!-- Node2&#45;&gt;Node18 -->
<g id="edge20" class="edge">
<title>Node2&#45;&gt;Node18</title>
<path fill="none" stroke="#191970" d="M697.5,-291.3906C697.5,-282.8657 697.5,-270.1392 697.5,-259.4235"/>
<polygon fill="#191970" stroke="#191970" points="701.0001,-259.2448 697.5,-249.2449 694.0001,-259.2449 701.0001,-259.2448"/>
</g>
<!-- Node2&#45;&gt;Node23 -->
<g id="edge34" class="edge">
<title>Node2&#45;&gt;Node23</title>
<path fill="none" stroke="#191970" d="M723.125,-291.3906C746.759,-282.5279 782.5028,-269.1239 811.7416,-258.1594"/>
<polygon fill="#191970" stroke="#191970" points="813.2467,-261.333 821.3811,-254.5446 810.7888,-254.7787 813.2467,-261.333"/>
</g>
<!-- Node4 -->
<g id="node5" class="node">
<title>Node4</title>
<g id="a_node5"><a xlink:href="Utils_8h.html" target="_top" xlink:title="iDynTree/Core/Utils.h">
<polygon fill="none" stroke="#000000" points="471,-56.5 471,-75.5 590,-75.5 590,-56.5 471,-56.5"/>
<text text-anchor="middle" x="530.5" y="-63.5" font-family="FreeSans.ttf" font-size="10.00" fill="#000000">iDynTree/Core/Utils.h</text>
</a>
</g>
</g>
<!-- Node3&#45;&gt;Node4 -->
<g id="edge4" class="edge">
<title>Node3&#45;&gt;Node4</title>
<path fill="none" stroke="#191970" d="M548.6679,-112.2455C545.7341,-104.7776 541.5953,-94.2427 538.009,-85.1137"/>
<polygon fill="#191970" stroke="#191970" points="541.2024,-83.6704 534.2882,-75.6427 534.6871,-86.23 541.2024,-83.6704"/>
</g>
<!-- Node6 -->
<g id="node7" class="node">
<title>Node6</title>
<g id="a_node7"><a xlink:href="Span_8h.html" target="_top" xlink:title="iDynTree/Core/Span.h">
<polygon fill="none" stroke="#000000" points="287,-56.5 287,-75.5 408,-75.5 408,-56.5 287,-56.5"/>
<text text-anchor="middle" x="347.5" y="-63.5" font-family="FreeSans.ttf" font-size="10.00" fill="#000000">iDynTree/Core/Span.h</text>
</a>
</g>
</g>
<!-- Node3&#45;&gt;Node6 -->
<g id="edge6" class="edge">
<title>Node3&#45;&gt;Node6</title>
<path fill="none" stroke="#191970" d="M517.2592,-112.3733C482.5806,-102.9001 429.5117,-88.4032 391.9538,-78.1435"/>
<polygon fill="#191970" stroke="#191970" points="392.8498,-74.7601 382.2809,-75.5011 391.0051,-81.5126 392.8498,-74.7601"/>
</g>
<!-- Node7 -->
<g id="node8" class="node">
<title>Node7</title>
<polygon fill="none" stroke="#bfbfbf" points="581.5,-.5 581.5,-19.5 633.5,-19.5 633.5,-.5 581.5,-.5"/>
<text text-anchor="middle" x="607.5" y="-7.5" font-family="FreeSans.ttf" font-size="10.00" fill="#000000">cassert</text>
</g>
<!-- Node3&#45;&gt;Node7 -->
<g id="edge18" class="edge">
<title>Node3&#45;&gt;Node7</title>
<path fill="none" stroke="#191970" d="M518.0521,-112.4547C484.9818,-101.5163 442.629,-81.7311 461.5,-56 464.8738,-51.3997 529.423,-32.2709 571.5527,-20.176"/>
<polygon fill="#191970" stroke="#191970" points="572.5579,-23.529 581.2098,-17.4139 570.6329,-16.7988 572.5579,-23.529"/>
</g>
<!-- Node15 -->
<g id="node16" class="node">
<title>Node15</title>
<polygon fill="none" stroke="#bfbfbf" points="866.5,-56.5 866.5,-75.5 910.5,-75.5 910.5,-56.5 866.5,-56.5"/>
<text text-anchor="middle" x="888.5" y="-63.5" font-family="FreeSans.ttf" font-size="10.00" fill="#000000">string</text>
</g>
<!-- Node3&#45;&gt;Node15 -->
<g id="edge16" class="edge">
<title>Node3&#45;&gt;Node15</title>
<path fill="none" stroke="#191970" d="M609.8787,-112.4369C680.8407,-100.6099 799.2039,-80.8827 856.0652,-71.4058"/>
<polygon fill="#191970" stroke="#191970" points="856.9751,-74.8025 866.2636,-69.7061 855.8243,-67.8978 856.9751,-74.8025"/>
</g>
<!-- Node16 -->
<g id="node17" class="node">
<title>Node16</title>
<polygon fill="none" stroke="#bfbfbf" points="608.5,-56.5 608.5,-75.5 664.5,-75.5 664.5,-56.5 608.5,-56.5"/>
<text text-anchor="middle" x="636.5" y="-63.5" font-family="FreeSans.ttf" font-size="10.00" fill="#000000">sstream</text>
</g>
<!-- Node3&#45;&gt;Node16 -->
<g id="edge17" class="edge">
<title>Node3&#45;&gt;Node16</title>
<path fill="none" stroke="#191970" d="M567.1317,-112.2455C579.8994,-103.7337 598.6438,-91.2375 613.4299,-81.3801"/>
<polygon fill="#191970" stroke="#191970" points="615.6569,-84.1019 622.036,-75.6427 611.774,-78.2775 615.6569,-84.1019"/>
</g>
<!-- Node17 -->
<g id="node18" class="node">
<title>Node17</title>
<polygon fill="none" stroke="#bfbfbf" points="682.5,-56.5 682.5,-75.5 732.5,-75.5 732.5,-56.5 682.5,-56.5"/>
<text text-anchor="middle" x="707.5" y="-63.5" font-family="FreeSans.ttf" font-size="10.00" fill="#000000">cstring</text>
</g>
<!-- Node3&#45;&gt;Node17 -->
<g id="edge19" class="edge">
<title>Node3&#45;&gt;Node17</title>
<path fill="none" stroke="#191970" d="M579.1454,-112.3733C605.0836,-103.0021 644.6287,-88.7148 672.9672,-78.4764"/>
<polygon fill="#191970" stroke="#191970" points="674.2672,-81.7282 682.4829,-75.0384 671.8886,-75.1447 674.2672,-81.7282"/>
</g>
<!-- Node5 -->
<g id="node6" class="node">
<title>Node5</title>
<polygon fill="none" stroke="#bfbfbf" points="510,-.5 510,-19.5 563,-19.5 563,-.5 510,-.5"/>
<text text-anchor="middle" x="536.5" y="-7.5" font-family="FreeSans.ttf" font-size="10.00" fill="#000000">cstddef</text>
</g>
<!-- Node4&#45;&gt;Node5 -->
<g id="edge5" class="edge">
<title>Node4&#45;&gt;Node5</title>
<path fill="none" stroke="#191970" d="M531.5451,-56.2455C532.328,-48.9382 533.4256,-38.6944 534.3888,-29.7046"/>
<polygon fill="#191970" stroke="#191970" points="537.8815,-29.9587 535.4669,-19.6427 530.9214,-29.2129 537.8815,-29.9587"/>
</g>
<!-- Node6&#45;&gt;Node5 -->
<g id="edge10" class="edge">
<title>Node6&#45;&gt;Node5</title>
<path fill="none" stroke="#191970" d="M379.9903,-56.3733C413.4193,-46.4684 465.3836,-31.0715 500.1575,-20.7681"/>
<polygon fill="#191970" stroke="#191970" points="501.3249,-24.0727 509.9185,-17.876 499.3362,-17.3612 501.3249,-24.0727"/>
</g>
<!-- Node6&#45;&gt;Node7 -->
<g id="edge7" class="edge">
<title>Node6&#45;&gt;Node7</title>
<path fill="none" stroke="#191970" d="M398.8761,-56.486C444.4216,-47.8055 512.6456,-34.1997 571.5,-20 571.5985,-19.9762 571.6972,-19.9524 571.796,-19.9284"/>
<polygon fill="#191970" stroke="#191970" points="572.3838,-23.3907 581.2081,-17.5269 570.6532,-16.608 572.3838,-23.3907"/>
</g>
<!-- Node8 -->
<g id="node9" class="node">
<title>Node8</title>
<polygon fill="none" stroke="#bfbfbf" points="233.5,-.5 233.5,-19.5 297.5,-19.5 297.5,-.5 233.5,-.5"/>
<text text-anchor="middle" x="265.5" y="-7.5" font-family="FreeSans.ttf" font-size="10.00" fill="#000000">algorithm</text>
</g>
<!-- Node6&#45;&gt;Node8 -->
<g id="edge8" class="edge">
<title>Node6&#45;&gt;Node8</title>
<path fill="none" stroke="#191970" d="M333.2167,-56.2455C320.753,-47.7337 302.4549,-35.2375 288.0208,-25.3801"/>
<polygon fill="#191970" stroke="#191970" points="289.8515,-22.392 279.6196,-19.6427 285.9038,-28.1726 289.8515,-22.392"/>
</g>
<!-- Node9 -->
<g id="node10" class="node">
<title>Node9</title>
<polygon fill="none" stroke="#bfbfbf" points="315.5,-.5 315.5,-19.5 357.5,-19.5 357.5,-.5 315.5,-.5"/>
<text text-anchor="middle" x="336.5" y="-7.5" font-family="FreeSans.ttf" font-size="10.00" fill="#000000">array</text>
</g>
<!-- Node6&#45;&gt;Node9 -->
<g id="edge9" class="edge">
<title>Node6&#45;&gt;Node9</title>
<path fill="none" stroke="#191970" d="M345.5839,-56.2455C344.1486,-48.9382 342.1364,-38.6944 340.3705,-29.7046"/>
<polygon fill="#191970" stroke="#191970" points="343.756,-28.7805 338.3941,-19.6427 336.8873,-30.1298 343.756,-28.7805"/>
</g>
<!-- Node10 -->
<g id="node11" class="node">
<title>Node10</title>
<polygon fill="none" stroke="#bfbfbf" points="376,-.5 376,-19.5 429,-19.5 429,-.5 376,-.5"/>
<text text-anchor="middle" x="402.5" y="-7.5" font-family="FreeSans.ttf" font-size="10.00" fill="#000000">iterator</text>
</g>
<!-- Node6&#45;&gt;Node10 -->
<g id="edge11" class="edge">
<title>Node6&#45;&gt;Node10</title>
<path fill="none" stroke="#191970" d="M357.0803,-56.2455C365.0458,-48.1352 376.5641,-36.4075 386.0079,-26.7919"/>
<polygon fill="#191970" stroke="#191970" points="388.5195,-29.2297 393.0295,-19.6427 383.5253,-24.3247 388.5195,-29.2297"/>
</g>
<!-- Node11 -->
<g id="node12" class="node">
<title>Node11</title>
<polygon fill="none" stroke="#bfbfbf" points="447.5,-.5 447.5,-19.5 491.5,-19.5 491.5,-.5 447.5,-.5"/>
<text text-anchor="middle" x="469.5" y="-7.5" font-family="FreeSans.ttf" font-size="10.00" fill="#000000">limits</text>
</g>
<!-- Node6&#45;&gt;Node11 -->
<g id="edge12" class="edge">
<title>Node6&#45;&gt;Node11</title>
<path fill="none" stroke="#191970" d="M368.4725,-56.3733C388.0567,-47.3838 417.4961,-33.8706 439.551,-23.7471"/>
<polygon fill="#191970" stroke="#191970" points="441.1729,-26.8538 448.8011,-19.5011 438.2527,-20.4919 441.1729,-26.8538"/>
</g>
<!-- Node12 -->
<g id="node13" class="node">
<title>Node12</title>
<polygon fill="none" stroke="#bfbfbf" points="0,-.5 0,-19.5 65,-19.5 65,-.5 0,-.5"/>
<text text-anchor="middle" x="32.5" y="-7.5" font-family="FreeSans.ttf" font-size="10.00" fill="#000000">stdexcept</text>
</g>
<!-- Node6&#45;&gt;Node12 -->
<g id="edge13" class="edge">
<title>Node6&#45;&gt;Node12</title>
<path fill="none" stroke="#191970" d="M286.8621,-57.1186C233.4668,-49.0031 153.3945,-36.1194 75.1523,-20.2386"/>
<polygon fill="#191970" stroke="#191970" points="75.6243,-16.7626 65.1253,-18.1846 74.2195,-23.6202 75.6243,-16.7626"/>
</g>
<!-- Node13 -->
<g id="node14" class="node">
<title>Node13</title>
<polygon fill="none" stroke="#bfbfbf" points="83,-.5 83,-19.5 152,-19.5 152,-.5 83,-.5"/>
<text text-anchor="middle" x="117.5" y="-7.5" font-family="FreeSans.ttf" font-size="10.00" fill="#000000">type_traits</text>
</g>
<!-- Node6&#45;&gt;Node13 -->
<g id="edge14" class="edge">
<title>Node6&#45;&gt;Node13</title>
<path fill="none" stroke="#191970" d="M308.2229,-56.4369C267.6002,-46.5461 204.2848,-31.1302 161.8772,-20.8049"/>
<polygon fill="#191970" stroke="#191970" points="162.6477,-17.3903 152.1035,-18.4252 160.9916,-24.1916 162.6477,-17.3903"/>
</g>
<!-- Node14 -->
<g id="node15" class="node">
<title>Node14</title>
<polygon fill="none" stroke="#bfbfbf" points="170,-.5 170,-19.5 215,-19.5 215,-.5 170,-.5"/>
<text text-anchor="middle" x="192.5" y="-7.5" font-family="FreeSans.ttf" font-size="10.00" fill="#000000">utility</text>
</g>
<!-- Node6&#45;&gt;Node14 -->
<g id="edge15" class="edge">
<title>Node6&#45;&gt;Node14</title>
<path fill="none" stroke="#191970" d="M320.8546,-56.3733C294.2196,-46.7503 253.2367,-31.9436 224.7735,-21.6601"/>
<polygon fill="#191970" stroke="#191970" points="225.8662,-18.3335 215.2719,-18.2273 223.4876,-24.917 225.8662,-18.3335"/>
</g>
<!-- Node18&#45;&gt;Node3 -->
<g id="edge33" class="edge">
<title>Node18&#45;&gt;Node3</title>
<path fill="none" stroke="#191970" d="M677.0645,-229.9713C658.4029,-220.7266 630.5918,-205.5488 609.5,-188 592.5061,-173.8607 576.3544,-154.3793 565.6126,-140.2496"/>
<polygon fill="#191970" stroke="#191970" points="568.149,-137.794 559.3806,-131.8471 562.5267,-141.9641 568.149,-137.794"/>
</g>
<!-- Node18&#45;&gt;Node15 -->
<g id="edge21" class="edge">
<title>Node18&#45;&gt;Node15</title>
<path fill="none" stroke="#191970" d="M743.4601,-229.9804C753.6668,-227.9411 764.4409,-225.8463 774.5,-224 822.5782,-215.1756 959.8904,-225.2856 991.5,-188 1024.427,-149.1604 957.0692,-103.2449 916.3911,-80.4054"/>
<polygon fill="#191970" stroke="#191970" points="917.8836,-77.2324 907.4309,-75.5025 914.5234,-83.3732 917.8836,-77.2324"/>
</g>
<!-- Node19 -->
<g id="node20" class="node">
<title>Node19</title>
<g id="a_node20"><a xlink:href="RotationRaw_8h.html" target="_top" xlink:title="iDynTree/Core/RotationRaw.h">
<polygon fill="none" stroke="#000000" points="618.5,-168.5 618.5,-187.5 776.5,-187.5 776.5,-168.5 618.5,-168.5"/>
<text text-anchor="middle" x="697.5" y="-175.5" font-family="FreeSans.ttf" font-size="10.00" fill="#000000">iDynTree/Core/RotationRaw.h</text>
</a>
</g>
</g>
<!-- Node18&#45;&gt;Node19 -->
<g id="edge22" class="edge">
<title>Node18&#45;&gt;Node19</title>
<path fill="none" stroke="#191970" d="M697.5,-229.8906C697.5,-221.3657 697.5,-208.6392 697.5,-197.9235"/>
<polygon fill="#191970" stroke="#191970" points="701.0001,-197.7448 697.5,-187.7449 694.0001,-197.7449 701.0001,-197.7448"/>
</g>
<!-- Node22 -->
<g id="node23" class="node">
<title>Node22</title>
<g id="a_node23"><a xlink:href="RotationSemantics_8h.html" target="_top" xlink:title="iDynTree/Core/RotationSemantics.h">
<polygon fill="none" stroke="#000000" points="794.5,-168.5 794.5,-187.5 982.5,-187.5 982.5,-168.5 794.5,-168.5"/>
<text text-anchor="middle" x="888.5" y="-175.5" font-family="FreeSans.ttf" font-size="10.00" fill="#000000">iDynTree/Core/RotationSemantics.h</text>
</a>
</g>
</g>
<!-- Node18&#45;&gt;Node22 -->
<g id="edge31" class="edge">
<title>Node18&#45;&gt;Node22</title>
<path fill="none" stroke="#191970" d="M727.3438,-229.8906C760.1425,-219.3298 812.9672,-202.3208 849.1364,-190.6747"/>
<polygon fill="#191970" stroke="#191970" points="850.4198,-193.9385 858.8658,-187.5419 848.2743,-187.2753 850.4198,-193.9385"/>
</g>
<!-- Node19&#45;&gt;Node15 -->
<g id="edge30" class="edge">
<title>Node19&#45;&gt;Node15</title>
<path fill="none" stroke="#191970" d="M734.5861,-168.4947C760.0042,-160.9635 793.8173,-148.8844 820.5,-132 841.4187,-118.763 861.2387,-98.2855 874.0249,-83.6519"/>
<polygon fill="#191970" stroke="#191970" points="876.882,-85.6949 880.6955,-75.8101 871.5501,-81.1593 876.882,-85.6949"/>
</g>
<!-- Node20 -->
<g id="node21" class="node">
<title>Node20</title>
<g id="a_node21"><a xlink:href="MatrixFixSize_8h.html" target="_top" xlink:title="iDynTree/Core/MatrixFixSize.h">
<polygon fill="none" stroke="#000000" points="651,-112.5 651,-131.5 812,-131.5 812,-112.5 651,-112.5"/>
<text text-anchor="middle" x="731.5" y="-119.5" font-family="FreeSans.ttf" font-size="10.00" fill="#000000">iDynTree/Core/MatrixFixSize.h</text>
</a>
</g>
</g>
<!-- Node19&#45;&gt;Node20 -->
<g id="edge23" class="edge">
<title>Node19&#45;&gt;Node20</title>
<path fill="none" stroke="#191970" d="M703.4223,-168.2455C708.1027,-160.5367 714.7673,-149.5598 720.4289,-140.2348"/>
<polygon fill="#191970" stroke="#191970" points="723.4475,-142.007 725.6455,-131.6427 717.4639,-138.3741 723.4475,-142.007"/>
</g>
<!-- Node20&#45;&gt;Node4 -->
<g id="edge24" class="edge">
<title>Node20&#45;&gt;Node4</title>
<path fill="none" stroke="#191970" d="M696.9469,-112.3733C663.0896,-102.9404 611.354,-88.5265 574.5574,-78.2747"/>
<polygon fill="#191970" stroke="#191970" points="575.1747,-74.8135 564.6022,-75.5011 573.296,-81.5566 575.1747,-74.8135"/>
</g>
<!-- Node20&#45;&gt;Node7 -->
<g id="edge25" class="edge">
<title>Node20&#45;&gt;Node7</title>
<path fill="none" stroke="#191970" d="M763.8599,-112.4142C796.4894,-101.1033 839.3982,-80.6787 819.5,-56 797.8366,-29.1319 698.5271,-17.1575 643.8559,-12.5225"/>
<polygon fill="#191970" stroke="#191970" points="643.8022,-9.0069 633.553,-11.6912 643.2391,-15.9842 643.8022,-9.0069"/>
</g>
<!-- Node20&#45;&gt;Node15 -->
<g id="edge27" class="edge">
<title>Node20&#45;&gt;Node15</title>
<path fill="none" stroke="#191970" d="M758.4893,-112.3733C785.7816,-102.6384 827.9469,-87.5985 856.8106,-77.3032"/>
<polygon fill="#191970" stroke="#191970" points="858.1762,-80.5322 866.4191,-73.876 855.8244,-73.939 858.1762,-80.5322"/>
</g>
<!-- Node20&#45;&gt;Node16 -->
<g id="edge29" class="edge">
<title>Node20&#45;&gt;Node16</title>
<path fill="none" stroke="#191970" d="M714.9523,-112.2455C700.2401,-103.5731 678.5112,-90.7645 661.6495,-80.825"/>
<polygon fill="#191970" stroke="#191970" points="663.2502,-77.7057 652.8581,-75.6427 659.6954,-83.736 663.2502,-77.7057"/>
</g>
<!-- Node20&#45;&gt;Node17 -->
<g id="edge26" class="edge">
<title>Node20&#45;&gt;Node17</title>
<path fill="none" stroke="#191970" d="M727.3195,-112.2455C724.119,-104.7776 719.604,-94.2427 715.6916,-85.1137"/>
<polygon fill="#191970" stroke="#191970" points="718.7888,-83.4554 711.6326,-75.6427 712.3548,-86.2129 718.7888,-83.4554"/>
</g>
<!-- Node21 -->
<g id="node22" class="node">
<title>Node21</title>
<polygon fill="none" stroke="#bfbfbf" points="750.5,-56.5 750.5,-75.5 810.5,-75.5 810.5,-56.5 750.5,-56.5"/>
<text text-anchor="middle" x="780.5" y="-63.5" font-family="FreeSans.ttf" font-size="10.00" fill="#000000">iostream</text>
</g>
<!-- Node20&#45;&gt;Node21 -->
<g id="edge28" class="edge">
<title>Node20&#45;&gt;Node21</title>
<path fill="none" stroke="#191970" d="M740.0351,-112.2455C746.9912,-104.2958 756.9883,-92.8706 765.3051,-83.3656"/>
<polygon fill="#191970" stroke="#191970" points="768.1116,-85.4732 772.0627,-75.6427 762.8436,-80.8637 768.1116,-85.4732"/>
</g>
<!-- Node22&#45;&gt;Node15 -->
<g id="edge32" class="edge">
<title>Node22&#45;&gt;Node15</title>
<path fill="none" stroke="#191970" d="M888.5,-168.4509C888.5,-150.184 888.5,-109.9553 888.5,-85.6976"/>
<polygon fill="#191970" stroke="#191970" points="892.0001,-85.5249 888.5,-75.5249 885.0001,-85.5249 892.0001,-85.5249"/>
</g>
<!-- Node24&#45;&gt;Node1 -->
<g id="edge37" class="edge">
<title>Node24&#45;&gt;Node1</title>
<path fill="none" stroke="#191970" d="M614.6537,-403.4554C632.1995,-393.734 654.9122,-381.15 672.2721,-371.5317"/>
<polygon fill="#191970" stroke="#191970" points="674.248,-374.4383 681.2989,-366.5303 670.8555,-368.3153 674.248,-374.4383"/>
</g>
<!-- Node24&#45;&gt;Node23 -->
<g id="edge38" class="edge">
<title>Node24&#45;&gt;Node23</title>
<path fill="none" stroke="#191970" d="M584.7369,-403.1731C580.8954,-376.5474 577.3685,-321.6671 606.5,-291 609.4941,-287.8481 701.1721,-269.8503 773.7482,-256.0094"/>
<polygon fill="#191970" stroke="#191970" points="774.6821,-259.3946 783.851,-254.086 773.3729,-252.5181 774.6821,-259.3946"/>
</g>
<!-- Node25&#45;&gt;Node1 -->
<g id="edge40" class="edge">
<title>Node25&#45;&gt;Node1</title>
<path fill="none" stroke="#191970" d="M774.0372,-403.4554C758.3765,-393.8241 738.1468,-381.3828 722.5644,-371.7996"/>
<polygon fill="#191970" stroke="#191970" points="724.348,-368.7876 713.9965,-366.5303 720.681,-374.7503 724.348,-368.7876"/>
</g>
<!-- Node25&#45;&gt;Node23 -->
<g id="edge41" class="edge">
<title>Node25&#45;&gt;Node23</title>
<path fill="none" stroke="#191970" d="M803.8713,-403.2386C814.7509,-372.3267 839.4801,-302.0645 852.7304,-264.4168"/>
<polygon fill="#191970" stroke="#191970" points="856.1237,-265.3176 856.1423,-254.7228 849.5208,-262.9936 856.1237,-265.3176"/>
</g>
<!-- Node26&#45;&gt;Node23 -->
<g id="edge46" class="edge">
<title>Node26&#45;&gt;Node23</title>
<path fill="none" stroke="#191970" d="M941.9096,-403.4656C928.4873,-394.418 912.7499,-381.7927 902.5,-367 880.6381,-335.4486 869.9222,-291.5688 865.0683,-264.3817"/>
<polygon fill="#191970" stroke="#191970" points="868.5196,-263.7991 863.4329,-254.5053 861.6137,-264.9428 868.5196,-263.7991"/>
</g>
<!-- Node27 -->
<g id="node28" class="node">
<title>Node27</title>
<g id="a_node28"><a xlink:href="ForceVector3_8h.html" target="_top" xlink:title="iDynTree/Core/ForceVector3.h">
<polygon fill="none" stroke="#000000" points="911.5,-347.5 911.5,-366.5 1071.5,-366.5 1071.5,-347.5 911.5,-347.5"/>
<text text-anchor="middle" x="991.5" y="-354.5" font-family="FreeSans.ttf" font-size="10.00" fill="#000000">iDynTree/Core/ForceVector3.h</text>
</a>
</g>
</g>
<!-- Node26&#45;&gt;Node27 -->
<g id="edge43" class="edge">
<title>Node26&#45;&gt;Node27</title>
<path fill="none" stroke="#191970" d="M973.4326,-403.2977C976.6252,-395.1166 980.5954,-384.943 984.0004,-376.2179"/>
<polygon fill="#191970" stroke="#191970" points="987.2823,-377.4351 987.6573,-366.8469 980.7613,-374.8903 987.2823,-377.4351"/>
</g>
<!-- Node27&#45;&gt;Node2 -->
<g id="edge44" class="edge">
<title>Node27&#45;&gt;Node2</title>
<path fill="none" stroke="#191970" d="M941.2937,-347.4369C890.4493,-337.7522 811.794,-322.7703 757.6487,-312.4569"/>
<polygon fill="#191970" stroke="#191970" points="757.9776,-308.9567 747.4993,-310.5237 756.6677,-315.8331 757.9776,-308.9567"/>
</g>
<!-- Node27&#45;&gt;Node23 -->
<g id="edge45" class="edge">
<title>Node27&#45;&gt;Node23</title>
<path fill="none" stroke="#191970" d="M980.8616,-347.3845C960.242,-328.7476 914.3647,-287.2815 885.8726,-261.5291"/>
<polygon fill="#191970" stroke="#191970" points="888.0985,-258.8232 878.3329,-254.7143 883.4047,-264.0163 888.0985,-258.8232"/>
</g>
<!-- Node28&#45;&gt;Node23 -->
<g id="edge49" class="edge">
<title>Node28&#45;&gt;Node23</title>
<path fill="none" stroke="#191970" d="M1125.2595,-403.4304C1116.0462,-387.7001 1099.8505,-363.1214 1080.5,-347 1031.1814,-305.9115 963.5003,-275.7958 916.4847,-258.0617"/>
<polygon fill="#191970" stroke="#191970" points="917.6676,-254.7675 907.0745,-254.5732 915.2343,-261.331 917.6676,-254.7675"/>
</g>
<!-- Node28&#45;&gt;Node27 -->
<g id="edge48" class="edge">
<title>Node28&#45;&gt;Node27</title>
<path fill="none" stroke="#191970" d="M1098.7629,-403.4554C1075.5894,-393.419 1045.3708,-380.3314 1022.9158,-370.6061"/>
<polygon fill="#191970" stroke="#191970" points="1024.0723,-367.2929 1013.505,-366.5303 1021.2903,-373.7164 1024.0723,-367.2929"/>
</g>
</g>
</svg>
