<?xml version="1.0" encoding="UTF-8" standalone="no"?>
<!DOCTYPE svg PUBLIC "-//W3C//DTD SVG 1.1//EN"
 "http://www.w3.org/Graphics/SVG/1.1/DTD/svg11.dtd">
<!-- Generated by graphviz version 2.40.1 (20161225.0304)
 -->
<!-- Title: MultiBodySystem.h Pages: 1 -->
<svg width="641pt" height="252pt"
 viewBox="0.00 0.00 640.50 252.00" xmlns="http://www.w3.org/2000/svg" xmlns:xlink="http://www.w3.org/1999/xlink">
<g id="graph0" class="graph" transform="scale(1 1) rotate(0) translate(4 248)">
<title>MultiBodySystem.h</title>
<!-- Node0 -->
<g id="node1" class="node">
<title>Node0</title>
<polygon fill="#bfbfbf" stroke="#000000" points="439.5,-224.5 439.5,-243.5 550.5,-243.5 550.5,-224.5 439.5,-224.5"/>
<text text-anchor="middle" x="495" y="-231.5" font-family="FreeSans.ttf" font-size="10.00" fill="#000000">MultiBodySystem.h</text>
</g>
<!-- Node1 -->
<g id="node2" class="node">
<title>Node1</title>
<g id="a_node2"><a xlink:href="DynamicalSystem_8h.html" target="_top" xlink:title="iDynTree/DynamicalSystem.h">
<polygon fill="none" stroke="#000000" points="414.5,-168.5 414.5,-187.5 575.5,-187.5 575.5,-168.5 414.5,-168.5"/>
<text text-anchor="middle" x="495" y="-175.5" font-family="FreeSans.ttf" font-size="10.00" fill="#000000">iDynTree/DynamicalSystem.h</text>
</a>
</g>
</g>
<!-- Node0&#45;&gt;Node1 -->
<g id="edge1" class="edge">
<title>Node0&#45;&gt;Node1</title>
<path fill="none" stroke="#191970" d="M495,-224.2455C495,-216.9382 495,-206.6944 495,-197.7046"/>
<polygon fill="#191970" stroke="#191970" points="498.5001,-197.6426 495,-187.6427 491.5001,-197.6427 498.5001,-197.6426"/>
</g>
<!-- Node2 -->
<g id="node3" class="node">
<title>Node2</title>
<g id="a_node3"><a xlink:href="VectorDynSize_8h.html" target="_top" xlink:title="iDynTree/Core/VectorDynSize.h">
<polygon fill="none" stroke="#000000" points="356.5,-112.5 356.5,-131.5 523.5,-131.5 523.5,-112.5 356.5,-112.5"/>
<text text-anchor="middle" x="440" y="-119.5" font-family="FreeSans.ttf" font-size="10.00" fill="#000000">iDynTree/Core/VectorDynSize.h</text>
</a>
</g>
</g>
<!-- Node1&#45;&gt;Node2 -->
<g id="edge2" class="edge">
<title>Node1&#45;&gt;Node2</title>
<path fill="none" stroke="#191970" d="M485.4197,-168.2455C477.4542,-160.1352 465.9359,-148.4075 456.4921,-138.7919"/>
<polygon fill="#191970" stroke="#191970" points="458.9747,-136.3247 449.4705,-131.6427 453.9805,-141.2297 458.9747,-136.3247"/>
</g>
<!-- Node7 -->
<g id="node8" class="node">
<title>Node7</title>
<polygon fill="none" stroke="#bfbfbf" points="579.5,-.5 579.5,-19.5 632.5,-19.5 632.5,-.5 579.5,-.5"/>
<text text-anchor="middle" x="606" y="-7.5" font-family="FreeSans.ttf" font-size="10.00" fill="#000000">cstddef</text>
</g>
<!-- Node1&#45;&gt;Node7 -->
<g id="edge14" class="edge">
<title>Node1&#45;&gt;Node7</title>
<path fill="none" stroke="#191970" d="M503.3259,-168.4199C511.0915,-159.3103 522.8237,-145.0928 532,-132 556.7422,-96.6976 582.0413,-53.0147 595.7068,-28.6583"/>
<polygon fill="#191970" stroke="#191970" points="598.8525,-30.2035 600.6608,-19.7641 592.7371,-26.7972 598.8525,-30.2035"/>
</g>
<!-- Node3 -->
<g id="node4" class="node">
<title>Node3</title>
<g id="a_node4"><a xlink:href="Span_8h.html" target="_top" xlink:title="iDynTree/Core/Span.h">
<polygon fill="none" stroke="#000000" points="267.5,-56.5 267.5,-75.5 388.5,-75.5 388.5,-56.5 267.5,-56.5"/>
<text text-anchor="middle" x="328" y="-63.5" font-family="FreeSans.ttf" font-size="10.00" fill="#000000">iDynTree/Core/Span.h</text>
</a>
</g>
</g>
<!-- Node2&#45;&gt;Node3 -->
<g id="edge3" class="edge">
<title>Node2&#45;&gt;Node3</title>
<path fill="none" stroke="#191970" d="M420.7465,-112.3733C402.9288,-103.4644 376.2253,-90.1127 356.0406,-80.0203"/>
<polygon fill="#191970" stroke="#191970" points="357.5118,-76.8428 347.0022,-75.5011 354.3813,-83.1038 357.5118,-76.8428"/>
</g>
<!-- Node13 -->
<g id="node14" class="node">
<title>Node13</title>
<polygon fill="none" stroke="#bfbfbf" points="418,-56.5 418,-75.5 462,-75.5 462,-56.5 418,-56.5"/>
<text text-anchor="middle" x="440" y="-63.5" font-family="FreeSans.ttf" font-size="10.00" fill="#000000">string</text>
</g>
<!-- Node2&#45;&gt;Node13 -->
<g id="edge13" class="edge">
<title>Node2&#45;&gt;Node13</title>
<path fill="none" stroke="#191970" d="M440,-112.2455C440,-104.9382 440,-94.6944 440,-85.7046"/>
<polygon fill="#191970" stroke="#191970" points="443.5001,-85.6426 440,-75.6427 436.5001,-85.6427 443.5001,-85.6426"/>
</g>
<!-- Node4 -->
<g id="node5" class="node">
<title>Node4</title>
<polygon fill="none" stroke="#bfbfbf" points="0,-.5 0,-19.5 52,-19.5 52,-.5 0,-.5"/>
<text text-anchor="middle" x="26" y="-7.5" font-family="FreeSans.ttf" font-size="10.00" fill="#000000">cassert</text>
</g>
<!-- Node3&#45;&gt;Node4 -->
<g id="edge4" class="edge">
<title>Node3&#45;&gt;Node4</title>
<path fill="none" stroke="#191970" d="M267.4536,-57.4713C215.4312,-49.7122 138.2568,-37.1792 62.4892,-20.1606"/>
<polygon fill="#191970" stroke="#191970" points="62.822,-16.647 52.2947,-17.8412 61.269,-23.4725 62.822,-16.647"/>
</g>
<!-- Node5 -->
<g id="node6" class="node">
<title>Node5</title>
<polygon fill="none" stroke="#bfbfbf" points="70,-.5 70,-19.5 134,-19.5 134,-.5 70,-.5"/>
<text text-anchor="middle" x="102" y="-7.5" font-family="FreeSans.ttf" font-size="10.00" fill="#000000">algorithm</text>
</g>
<!-- Node3&#45;&gt;Node5 -->
<g id="edge5" class="edge">
<title>Node3&#45;&gt;Node5</title>
<path fill="none" stroke="#191970" d="M289.406,-56.4369C248.9917,-46.4227 185.7192,-30.7446 144.0551,-20.4207"/>
<polygon fill="#191970" stroke="#191970" points="144.763,-16.9904 134.2147,-17.9824 143.0794,-23.7849 144.763,-16.9904"/>
</g>
<!-- Node6 -->
<g id="node7" class="node">
<title>Node6</title>
<polygon fill="none" stroke="#bfbfbf" points="152,-.5 152,-19.5 194,-19.5 194,-.5 152,-.5"/>
<text text-anchor="middle" x="173" y="-7.5" font-family="FreeSans.ttf" font-size="10.00" fill="#000000">array</text>
</g>
<!-- Node3&#45;&gt;Node6 -->
<g id="edge6" class="edge">
<title>Node3&#45;&gt;Node6</title>
<path fill="none" stroke="#191970" d="M301.3546,-56.3733C274.255,-46.5825 232.3027,-31.4255 203.7957,-21.1262"/>
<polygon fill="#191970" stroke="#191970" points="204.9139,-17.8088 194.3196,-17.7026 202.5353,-24.3923 204.9139,-17.8088"/>
</g>
<!-- Node3&#45;&gt;Node7 -->
<g id="edge7" class="edge">
<title>Node3&#45;&gt;Node7</title>
<path fill="none" stroke="#191970" d="M385.4902,-56.4587C432.3947,-48.3594 500.5661,-35.874 569.1999,-20.036"/>
<polygon fill="#191970" stroke="#191970" points="570.3829,-23.3541 579.3271,-17.675 568.7936,-16.5369 570.3829,-23.3541"/>
</g>
<!-- Node8 -->
<g id="node9" class="node">
<title>Node8</title>
<polygon fill="none" stroke="#bfbfbf" points="212.5,-.5 212.5,-19.5 265.5,-19.5 265.5,-.5 212.5,-.5"/>
<text text-anchor="middle" x="239" y="-7.5" font-family="FreeSans.ttf" font-size="10.00" fill="#000000">iterator</text>
</g>
<!-- Node3&#45;&gt;Node8 -->
<g id="edge8" class="edge">
<title>Node3&#45;&gt;Node8</title>
<path fill="none" stroke="#191970" d="M312.4974,-56.2455C298.842,-47.6534 278.7343,-35.0014 263.0011,-25.1018"/>
<polygon fill="#191970" stroke="#191970" points="264.6529,-22.006 254.325,-19.6427 260.9249,-27.9307 264.6529,-22.006"/>
</g>
<!-- Node9 -->
<g id="node10" class="node">
<title>Node9</title>
<polygon fill="none" stroke="#bfbfbf" points="284,-.5 284,-19.5 328,-19.5 328,-.5 284,-.5"/>
<text text-anchor="middle" x="306" y="-7.5" font-family="FreeSans.ttf" font-size="10.00" fill="#000000">limits</text>
</g>
<!-- Node3&#45;&gt;Node9 -->
<g id="edge9" class="edge">
<title>Node3&#45;&gt;Node9</title>
<path fill="none" stroke="#191970" d="M324.1679,-56.2455C321.2341,-48.7776 317.0953,-38.2427 313.509,-29.1137"/>
<polygon fill="#191970" stroke="#191970" points="316.7024,-27.6704 309.7882,-19.6427 310.1871,-30.23 316.7024,-27.6704"/>
</g>
<!-- Node10 -->
<g id="node11" class="node">
<title>Node10</title>
<polygon fill="none" stroke="#bfbfbf" points="346.5,-.5 346.5,-19.5 411.5,-19.5 411.5,-.5 346.5,-.5"/>
<text text-anchor="middle" x="379" y="-7.5" font-family="FreeSans.ttf" font-size="10.00" fill="#000000">stdexcept</text>
</g>
<!-- Node3&#45;&gt;Node10 -->
<g id="edge10" class="edge">
<title>Node3&#45;&gt;Node10</title>
<path fill="none" stroke="#191970" d="M336.8835,-56.2455C344.1966,-48.2155 354.7391,-36.6394 363.4467,-27.0781"/>
<polygon fill="#191970" stroke="#191970" points="366.0727,-29.3928 370.2183,-19.6427 360.8972,-24.6795 366.0727,-29.3928"/>
</g>
<!-- Node11 -->
<g id="node12" class="node">
<title>Node11</title>
<polygon fill="none" stroke="#bfbfbf" points="429.5,-.5 429.5,-19.5 498.5,-19.5 498.5,-.5 429.5,-.5"/>
<text text-anchor="middle" x="464" y="-7.5" font-family="FreeSans.ttf" font-size="10.00" fill="#000000">type_traits</text>
</g>
<!-- Node3&#45;&gt;Node11 -->
<g id="edge11" class="edge">
<title>Node3&#45;&gt;Node11</title>
<path fill="none" stroke="#191970" d="M351.3792,-56.3733C373.5045,-47.2629 406.9134,-33.5062 431.6019,-23.3404"/>
<polygon fill="#191970" stroke="#191970" points="433.0117,-26.5451 440.9258,-19.5011 430.3464,-20.0723 433.0117,-26.5451"/>
</g>
<!-- Node12 -->
<g id="node13" class="node">
<title>Node12</title>
<polygon fill="none" stroke="#bfbfbf" points="516.5,-.5 516.5,-19.5 561.5,-19.5 561.5,-.5 516.5,-.5"/>
<text text-anchor="middle" x="539" y="-7.5" font-family="FreeSans.ttf" font-size="10.00" fill="#000000">utility</text>
</g>
<!-- Node3&#45;&gt;Node12 -->
<g id="edge12" class="edge">
<title>Node3&#45;&gt;Node12</title>
<path fill="none" stroke="#191970" d="M367.6171,-56.4387C401.9331,-48.0184 453.1129,-35.1306 506.6515,-19.9961"/>
<polygon fill="#191970" stroke="#191970" points="507.6569,-23.349 516.3175,-17.2462 505.7414,-16.6162 507.6569,-23.349"/>
</g>
</g>
</svg>
