<?xml version="1.0" encoding="UTF-8" standalone="no"?>
<!DOCTYPE svg PUBLIC "-//W3C//DTD SVG 1.1//EN"
 "http://www.w3.org/Graphics/SVG/1.1/DTD/svg11.dtd">
<!-- Generated by graphviz version 2.40.1 (20161225.0304)
 -->
<!-- Title: MultipleShootingSolver.h Pages: 1 -->
<svg width="411pt" height="196pt"
 viewBox="0.00 0.00 411.16 196.00" xmlns="http://www.w3.org/2000/svg" xmlns:xlink="http://www.w3.org/1999/xlink">
<g id="graph0" class="graph" transform="scale(1 1) rotate(0) translate(4 192)">
<title>MultipleShootingSolver.h</title>
<!-- Node0 -->
<g id="node1" class="node">
<title>Node0</title>
<polygon fill="#bfbfbf" stroke="#000000" points="223.5,-168.5 223.5,-187.5 360.5,-187.5 360.5,-168.5 223.5,-168.5"/>
<text text-anchor="middle" x="292" y="-175.5" font-family="FreeSans.ttf" font-size="10.00" fill="#000000">MultipleShootingSolver.h</text>
</g>
<!-- Node1 -->
<g id="node2" class="node">
<title>Node1</title>
<g id="a_node2"><a xlink:href="OptimalControlSolver_8h.html" target="_top" xlink:title="iDynTree/OptimalControlSolver.h">
<polygon fill="none" stroke="#000000" points="0,-112.5 0,-131.5 176,-131.5 176,-112.5 0,-112.5"/>
<text text-anchor="middle" x="88" y="-119.5" font-family="FreeSans.ttf" font-size="10.00" fill="#000000">iDynTree/OptimalControlSolver.h</text>
</a>
</g>
</g>
<!-- Node0&#45;&gt;Node1 -->
<g id="edge1" class="edge">
<title>Node0&#45;&gt;Node1</title>
<path fill="none" stroke="#191970" d="M256.9311,-168.3733C222.5685,-158.9404 170.0608,-144.5265 132.7149,-134.2747"/>
<polygon fill="#191970" stroke="#191970" points="133.181,-130.7732 122.6112,-131.5011 131.328,-137.5235 133.181,-130.7732"/>
</g>
<!-- Node2 -->
<g id="node3" class="node">
<title>Node2</title>
<polygon fill="none" stroke="#bfbfbf" points="138,-56.5 138,-75.5 196,-75.5 196,-56.5 138,-56.5"/>
<text text-anchor="middle" x="167" y="-63.5" font-family="FreeSans.ttf" font-size="10.00" fill="#000000">memory</text>
</g>
<!-- Node0&#45;&gt;Node2 -->
<g id="edge11" class="edge">
<title>Node0&#45;&gt;Node2</title>
<path fill="none" stroke="#191970" d="M274.8922,-168.4295C260.3237,-159.8646 239.2347,-146.4585 223,-132 206.6142,-117.407 190.7022,-97.9894 180.0543,-83.9983"/>
<polygon fill="#191970" stroke="#191970" points="182.647,-81.6201 173.8651,-75.6931 177.0341,-85.8029 182.647,-81.6201"/>
</g>
<!-- Node4 -->
<g id="node5" class="node">
<title>Node4</title>
<g id="a_node5"><a xlink:href="OptimizationProblem_8h.html" target="_top" xlink:title="iDynTree/OptimizationProblem.h">
<polygon fill="none" stroke="#000000" points="214.5,-56.5 214.5,-75.5 389.5,-75.5 389.5,-56.5 214.5,-56.5"/>
<text text-anchor="middle" x="302" y="-63.5" font-family="FreeSans.ttf" font-size="10.00" fill="#000000">iDynTree/OptimizationProblem.h</text>
</a>
</g>
</g>
<!-- Node0&#45;&gt;Node4 -->
<g id="edge4" class="edge">
<title>Node0&#45;&gt;Node4</title>
<path fill="none" stroke="#191970" d="M316.8255,-168.4395C332.2879,-161.0336 350.9112,-149.1213 360,-132 370.544,-112.1373 349.71,-93.264 330.1405,-80.8276"/>
<polygon fill="#191970" stroke="#191970" points="331.7363,-77.7041 321.3554,-75.586 328.1497,-83.7155 331.7363,-77.7041"/>
</g>
<!-- Node5 -->
<g id="node6" class="node">
<title>Node5</title>
<polygon fill="none" stroke="#bfbfbf" points="336.5,-.5 336.5,-19.5 383.5,-19.5 383.5,-.5 336.5,-.5"/>
<text text-anchor="middle" x="360" y="-7.5" font-family="FreeSans.ttf" font-size="10.00" fill="#000000">vector</text>
</g>
<!-- Node0&#45;&gt;Node5 -->
<g id="edge10" class="edge">
<title>Node0&#45;&gt;Node5</title>
<path fill="none" stroke="#191970" d="M320.216,-168.3394C338.2818,-160.8913 361.0547,-148.9695 376,-132 399.2413,-105.6109 409.8999,-89.0898 398,-56 394.0564,-45.0341 386.2403,-34.8227 378.7169,-26.8204"/>
<polygon fill="#191970" stroke="#191970" points="381.0101,-24.1653 371.4453,-19.6084 376.0807,-29.1354 381.0101,-24.1653"/>
</g>
<!-- Node6 -->
<g id="node7" class="node">
<title>Node6</title>
<g id="a_node7"><a xlink:href="Optimizer_8h.html" target="_top" xlink:title="iDynTree/Optimizer.h">
<polygon fill="none" stroke="#000000" points="232.5,-112.5 232.5,-131.5 351.5,-131.5 351.5,-112.5 232.5,-112.5"/>
<text text-anchor="middle" x="292" y="-119.5" font-family="FreeSans.ttf" font-size="10.00" fill="#000000">iDynTree/Optimizer.h</text>
</a>
</g>
</g>
<!-- Node0&#45;&gt;Node6 -->
<g id="edge7" class="edge">
<title>Node0&#45;&gt;Node6</title>
<path fill="none" stroke="#191970" d="M292,-168.2455C292,-160.9382 292,-150.6944 292,-141.7046"/>
<polygon fill="#191970" stroke="#191970" points="295.5001,-141.6426 292,-131.6427 288.5001,-141.6427 295.5001,-141.6426"/>
</g>
<!-- Node1&#45;&gt;Node2 -->
<g id="edge2" class="edge">
<title>Node1&#45;&gt;Node2</title>
<path fill="none" stroke="#191970" d="M101.7607,-112.2455C113.6552,-103.814 131.065,-91.4729 144.9085,-81.6598"/>
<polygon fill="#191970" stroke="#191970" points="147.2628,-84.2811 153.3969,-75.6427 143.2146,-78.5704 147.2628,-84.2811"/>
</g>
<!-- Node3 -->
<g id="node4" class="node">
<title>Node3</title>
<polygon fill="none" stroke="#bfbfbf" points="198.5,-.5 198.5,-19.5 251.5,-19.5 251.5,-.5 198.5,-.5"/>
<text text-anchor="middle" x="225" y="-7.5" font-family="FreeSans.ttf" font-size="10.00" fill="#000000">cstddef</text>
</g>
<!-- Node1&#45;&gt;Node3 -->
<g id="edge3" class="edge">
<title>Node1&#45;&gt;Node3</title>
<path fill="none" stroke="#191970" d="M91.9149,-112.2886C97.9958,-98.2529 110.921,-72.208 129,-56 146.1871,-40.5916 169.4545,-29.2688 188.7783,-21.7127"/>
<polygon fill="#191970" stroke="#191970" points="190.0399,-24.9777 198.1864,-18.2039 187.5938,-18.419 190.0399,-24.9777"/>
</g>
<!-- Node4&#45;&gt;Node3 -->
<g id="edge6" class="edge">
<title>Node4&#45;&gt;Node3</title>
<path fill="none" stroke="#191970" d="M288.5876,-56.2455C276.9943,-47.814 260.0252,-35.4729 246.5322,-25.6598"/>
<polygon fill="#191970" stroke="#191970" points="248.4047,-22.6938 238.2587,-19.6427 244.2874,-28.355 248.4047,-22.6938"/>
</g>
<!-- Node4&#45;&gt;Node5 -->
<g id="edge5" class="edge">
<title>Node4&#45;&gt;Node5</title>
<path fill="none" stroke="#191970" d="M312.1028,-56.2455C320.5028,-48.1352 332.6494,-36.4075 342.6084,-26.7919"/>
<polygon fill="#191970" stroke="#191970" points="345.25,-29.1066 350.0129,-19.6427 340.3878,-24.0707 345.25,-29.1066"/>
</g>
<!-- Node6&#45;&gt;Node2 -->
<g id="edge8" class="edge">
<title>Node6&#45;&gt;Node2</title>
<path fill="none" stroke="#191970" d="M270.5117,-112.3733C250.356,-103.3435 220.012,-89.7494 197.382,-79.6111"/>
<polygon fill="#191970" stroke="#191970" points="198.7649,-76.3955 188.2079,-75.5011 195.9029,-82.7838 198.7649,-76.3955"/>
</g>
<!-- Node6&#45;&gt;Node4 -->
<g id="edge9" class="edge">
<title>Node6&#45;&gt;Node4</title>
<path fill="none" stroke="#191970" d="M293.7419,-112.2455C295.0467,-104.9382 296.876,-94.6944 298.4813,-85.7046"/>
<polygon fill="#191970" stroke="#191970" points="301.9656,-86.1022 300.2781,-75.6427 295.0746,-84.8717 301.9656,-86.1022"/>
</g>
</g>
</svg>
