<?xml version="1.0" encoding="UTF-8" standalone="no"?>
<!DOCTYPE svg PUBLIC "-//W3C//DTD SVG 1.1//EN"
 "http://www.w3.org/Graphics/SVG/1.1/DTD/svg11.dtd">
<!-- Generated by graphviz version 2.40.1 (20161225.0304)
 -->
<!-- Title: OptimalControlSolver.cpp Pages: 1 -->
<svg width="707pt" height="196pt"
 viewBox="0.00 0.00 707.00 196.00" xmlns="http://www.w3.org/2000/svg" xmlns:xlink="http://www.w3.org/1999/xlink">
<g id="graph0" class="graph" transform="scale(1 1) rotate(0) translate(4 192)">
<title>OptimalControlSolver.cpp</title>
<!-- Node0 -->
<g id="node1" class="node">
<title>Node0</title>
<polygon fill="#bfbfbf" stroke="#000000" points="313.5,-168.5 313.5,-187.5 454.5,-187.5 454.5,-168.5 313.5,-168.5"/>
<text text-anchor="middle" x="384" y="-175.5" font-family="FreeSans.ttf" font-size="10.00" fill="#000000">OptimalControlSolver.cpp</text>
</g>
<!-- Node1 -->
<g id="node2" class="node">
<title>Node1</title>
<g id="a_node2"><a xlink:href="OptimalControlSolver_8h.html" target="_top" xlink:title="iDynTree/OptimalControlSolver.h">
<polygon fill="none" stroke="#000000" points="0,-112.5 0,-131.5 176,-131.5 176,-112.5 0,-112.5"/>
<text text-anchor="middle" x="88" y="-119.5" font-family="FreeSans.ttf" font-size="10.00" fill="#000000">iDynTree/OptimalControlSolver.h</text>
</a>
</g>
</g>
<!-- Node0&#45;&gt;Node1 -->
<g id="edge1" class="edge">
<title>Node0&#45;&gt;Node1</title>
<path fill="none" stroke="#191970" d="M333.4521,-168.4369C282.1555,-158.7321 202.7421,-143.708 148.2182,-133.3926"/>
<polygon fill="#191970" stroke="#191970" points="148.8158,-129.9437 138.3394,-131.5237 147.5145,-136.8217 148.8158,-129.9437"/>
</g>
<!-- Node4 -->
<g id="node5" class="node">
<title>Node4</title>
<g id="a_node5"><a xlink:href="OptimalControlProblem_8h.html" target="_top" xlink:title="iDynTree/OptimalControlProblem.h">
<polygon fill="none" stroke="#000000" points="194,-112.5 194,-131.5 380,-131.5 380,-112.5 194,-112.5"/>
<text text-anchor="middle" x="287" y="-119.5" font-family="FreeSans.ttf" font-size="10.00" fill="#000000">iDynTree/OptimalControlProblem.h</text>
</a>
</g>
</g>
<!-- Node0&#45;&gt;Node4 -->
<g id="edge4" class="edge">
<title>Node0&#45;&gt;Node4</title>
<path fill="none" stroke="#191970" d="M367.1039,-168.2455C352.082,-159.5731 329.8957,-146.7645 312.679,-136.825"/>
<polygon fill="#191970" stroke="#191970" points="314.1128,-133.6114 303.7025,-131.6427 310.6129,-139.6737 314.1128,-133.6114"/>
</g>
<!-- Node7 -->
<g id="node8" class="node">
<title>Node7</title>
<g id="a_node8"><a xlink:href="VectorDynSize_8h.html" target="_top" xlink:title="iDynTree/Core/VectorDynSize.h">
<polygon fill="none" stroke="#000000" points="397.5,-112.5 397.5,-131.5 564.5,-131.5 564.5,-112.5 397.5,-112.5"/>
<text text-anchor="middle" x="481" y="-119.5" font-family="FreeSans.ttf" font-size="10.00" fill="#000000">iDynTree/Core/VectorDynSize.h</text>
</a>
</g>
</g>
<!-- Node0&#45;&gt;Node7 -->
<g id="edge8" class="edge">
<title>Node0&#45;&gt;Node7</title>
<path fill="none" stroke="#191970" d="M400.8961,-168.2455C415.918,-159.5731 438.1043,-146.7645 455.321,-136.825"/>
<polygon fill="#191970" stroke="#191970" points="457.3871,-139.6737 464.2975,-131.6427 453.8872,-133.6114 457.3871,-139.6737"/>
</g>
<!-- Node9 -->
<g id="node10" class="node">
<title>Node9</title>
<polygon fill="none" stroke="#bfbfbf" points="647,-.5 647,-19.5 699,-19.5 699,-.5 647,-.5"/>
<text text-anchor="middle" x="673" y="-7.5" font-family="FreeSans.ttf" font-size="10.00" fill="#000000">cassert</text>
</g>
<!-- Node0&#45;&gt;Node9 -->
<g id="edge20" class="edge">
<title>Node0&#45;&gt;Node9</title>
<path fill="none" stroke="#191970" d="M440.0827,-168.4189C487.4797,-159.589 551.0603,-145.7997 573,-132 614.9126,-105.6376 647.5019,-55.6613 663.0319,-28.574"/>
<polygon fill="#191970" stroke="#191970" points="666.1575,-30.1553 667.9674,-19.7161 660.0426,-26.7481 666.1575,-30.1553"/>
</g>
<!-- Node2 -->
<g id="node3" class="node">
<title>Node2</title>
<polygon fill="none" stroke="#bfbfbf" points="152,-56.5 152,-75.5 210,-75.5 210,-56.5 152,-56.5"/>
<text text-anchor="middle" x="181" y="-63.5" font-family="FreeSans.ttf" font-size="10.00" fill="#000000">memory</text>
</g>
<!-- Node1&#45;&gt;Node2 -->
<g id="edge2" class="edge">
<title>Node1&#45;&gt;Node2</title>
<path fill="none" stroke="#191970" d="M104.1994,-112.2455C118.6018,-103.5731 139.8732,-90.7645 156.3799,-80.825"/>
<polygon fill="#191970" stroke="#191970" points="158.225,-83.7996 164.9863,-75.6427 154.614,-77.8028 158.225,-83.7996"/>
</g>
<!-- Node3 -->
<g id="node4" class="node">
<title>Node3</title>
<polygon fill="none" stroke="#bfbfbf" points="64.5,-.5 64.5,-19.5 117.5,-19.5 117.5,-.5 64.5,-.5"/>
<text text-anchor="middle" x="91" y="-7.5" font-family="FreeSans.ttf" font-size="10.00" fill="#000000">cstddef</text>
</g>
<!-- Node1&#45;&gt;Node3 -->
<g id="edge3" class="edge">
<title>Node1&#45;&gt;Node3</title>
<path fill="none" stroke="#191970" d="M88.2558,-112.4509C88.7451,-94.184 89.8226,-53.9553 90.4724,-29.6976"/>
<polygon fill="#191970" stroke="#191970" points="93.9758,-29.6151 90.7449,-19.5249 86.9783,-29.4276 93.9758,-29.6151"/>
</g>
<!-- Node4&#45;&gt;Node2 -->
<g id="edge5" class="edge">
<title>Node4&#45;&gt;Node2</title>
<path fill="none" stroke="#191970" d="M268.5362,-112.2455C251.8926,-103.4527 227.2007,-90.4079 208.2808,-80.4125"/>
<polygon fill="#191970" stroke="#191970" points="209.7291,-77.2193 199.2522,-75.6427 206.4592,-83.4086 209.7291,-77.2193"/>
</g>
<!-- Node5 -->
<g id="node6" class="node">
<title>Node5</title>
<polygon fill="none" stroke="#bfbfbf" points="260.5,-56.5 260.5,-75.5 307.5,-75.5 307.5,-56.5 260.5,-56.5"/>
<text text-anchor="middle" x="284" y="-63.5" font-family="FreeSans.ttf" font-size="10.00" fill="#000000">vector</text>
</g>
<!-- Node4&#45;&gt;Node5 -->
<g id="edge6" class="edge">
<title>Node4&#45;&gt;Node5</title>
<path fill="none" stroke="#191970" d="M286.4774,-112.2455C286.086,-104.9382 285.5372,-94.6944 285.0556,-85.7046"/>
<polygon fill="#191970" stroke="#191970" points="288.5466,-85.4411 284.5166,-75.6427 281.5566,-85.8156 288.5466,-85.4411"/>
</g>
<!-- Node6 -->
<g id="node7" class="node">
<title>Node6</title>
<polygon fill="none" stroke="#bfbfbf" points="326,-56.5 326,-75.5 370,-75.5 370,-56.5 326,-56.5"/>
<text text-anchor="middle" x="348" y="-63.5" font-family="FreeSans.ttf" font-size="10.00" fill="#000000">string</text>
</g>
<!-- Node4&#45;&gt;Node6 -->
<g id="edge7" class="edge">
<title>Node4&#45;&gt;Node6</title>
<path fill="none" stroke="#191970" d="M297.6254,-112.2455C306.5473,-104.0549 319.488,-92.1749 330.0192,-82.5069"/>
<polygon fill="#191970" stroke="#191970" points="332.4968,-84.9837 337.4964,-75.6427 327.7629,-79.8271 332.4968,-84.9837"/>
</g>
<!-- Node7&#45;&gt;Node6 -->
<g id="edge19" class="edge">
<title>Node7&#45;&gt;Node6</title>
<path fill="none" stroke="#191970" d="M458.1365,-112.3733C436.4645,-103.2482 403.7221,-89.462 379.5669,-79.2913"/>
<polygon fill="#191970" stroke="#191970" points="380.6978,-75.9699 370.1232,-75.315 377.9814,-82.4214 380.6978,-75.9699"/>
</g>
<!-- Node8 -->
<g id="node9" class="node">
<title>Node8</title>
<g id="a_node9"><a xlink:href="Span_8h.html" target="_top" xlink:title="iDynTree/Core/Span.h">
<polygon fill="none" stroke="#000000" points="388.5,-56.5 388.5,-75.5 509.5,-75.5 509.5,-56.5 388.5,-56.5"/>
<text text-anchor="middle" x="449" y="-63.5" font-family="FreeSans.ttf" font-size="10.00" fill="#000000">iDynTree/Core/Span.h</text>
</a>
</g>
</g>
<!-- Node7&#45;&gt;Node8 -->
<g id="edge9" class="edge">
<title>Node7&#45;&gt;Node8</title>
<path fill="none" stroke="#191970" d="M475.426,-112.2455C471.0669,-104.617 464.8789,-93.7881 459.5867,-84.5267"/>
<polygon fill="#191970" stroke="#191970" points="462.5104,-82.5886 454.5101,-75.6427 456.4327,-86.0616 462.5104,-82.5886"/>
</g>
<!-- Node8&#45;&gt;Node3 -->
<g id="edge13" class="edge">
<title>Node8&#45;&gt;Node3</title>
<path fill="none" stroke="#191970" d="M388.2388,-57.3161C295.6195,-44.0759 129.5896,-20.3274 128,-20 127.7882,-19.9564 127.5758,-19.9122 127.3629,-19.8676"/>
<polygon fill="#191970" stroke="#191970" points="128.1165,-16.4496 117.5843,-17.5999 126.535,-23.2686 128.1165,-16.4496"/>
</g>
<!-- Node8&#45;&gt;Node9 -->
<g id="edge10" class="edge">
<title>Node8&#45;&gt;Node9</title>
<path fill="none" stroke="#191970" d="M490.4125,-56.4183C526.6854,-47.9143 581.0453,-34.9025 636.9439,-20.2129"/>
<polygon fill="#191970" stroke="#191970" points="637.8829,-23.5849 646.6575,-17.6471 636.0952,-16.817 637.8829,-23.5849"/>
</g>
<!-- Node10 -->
<g id="node11" class="node">
<title>Node10</title>
<polygon fill="none" stroke="#bfbfbf" points="565,-.5 565,-19.5 629,-19.5 629,-.5 565,-.5"/>
<text text-anchor="middle" x="597" y="-7.5" font-family="FreeSans.ttf" font-size="10.00" fill="#000000">algorithm</text>
</g>
<!-- Node8&#45;&gt;Node10 -->
<g id="edge11" class="edge">
<title>Node8&#45;&gt;Node10</title>
<path fill="none" stroke="#191970" d="M474.4421,-56.3733C498.7326,-47.1822 535.5208,-33.2624 562.4543,-23.0713"/>
<polygon fill="#191970" stroke="#191970" points="563.7757,-26.3136 571.8899,-19.5011 561.2984,-19.7666 563.7757,-26.3136"/>
</g>
<!-- Node11 -->
<g id="node12" class="node">
<title>Node11</title>
<polygon fill="none" stroke="#bfbfbf" points="137,-.5 137,-19.5 179,-19.5 179,-.5 137,-.5"/>
<text text-anchor="middle" x="158" y="-7.5" font-family="FreeSans.ttf" font-size="10.00" fill="#000000">array</text>
</g>
<!-- Node8&#45;&gt;Node11 -->
<g id="edge12" class="edge">
<title>Node8&#45;&gt;Node11</title>
<path fill="none" stroke="#191970" d="M388.9253,-56.4658C328.3768,-46.6813 238.0726,-31.5688 189.0088,-19.9225"/>
<polygon fill="#191970" stroke="#191970" points="189.7386,-16.4976 179.1907,-17.4931 188.0572,-23.2926 189.7386,-16.4976"/>
</g>
<!-- Node12 -->
<g id="node13" class="node">
<title>Node12</title>
<polygon fill="none" stroke="#bfbfbf" points="197.5,-.5 197.5,-19.5 250.5,-19.5 250.5,-.5 197.5,-.5"/>
<text text-anchor="middle" x="224" y="-7.5" font-family="FreeSans.ttf" font-size="10.00" fill="#000000">iterator</text>
</g>
<!-- Node8&#45;&gt;Node12 -->
<g id="edge14" class="edge">
<title>Node8&#45;&gt;Node12</title>
<path fill="none" stroke="#191970" d="M407.9809,-56.4188C371.73,-47.8614 317.1887,-34.7684 260.557,-20.0862"/>
<polygon fill="#191970" stroke="#191970" points="261.2698,-16.6551 250.7105,-17.5226 259.5061,-23.4293 261.2698,-16.6551"/>
</g>
<!-- Node13 -->
<g id="node14" class="node">
<title>Node13</title>
<polygon fill="none" stroke="#bfbfbf" points="269,-.5 269,-19.5 313,-19.5 313,-.5 269,-.5"/>
<text text-anchor="middle" x="291" y="-7.5" font-family="FreeSans.ttf" font-size="10.00" fill="#000000">limits</text>
</g>
<!-- Node8&#45;&gt;Node13 -->
<g id="edge15" class="edge">
<title>Node8&#45;&gt;Node13</title>
<path fill="none" stroke="#191970" d="M421.8388,-56.3733C394.3726,-46.6384 351.9388,-31.5985 322.8913,-21.3032"/>
<polygon fill="#191970" stroke="#191970" points="323.8163,-17.9178 313.2216,-17.876 321.4778,-24.5157 323.8163,-17.9178"/>
</g>
<!-- Node14 -->
<g id="node15" class="node">
<title>Node14</title>
<polygon fill="none" stroke="#bfbfbf" points="331.5,-.5 331.5,-19.5 396.5,-19.5 396.5,-.5 331.5,-.5"/>
<text text-anchor="middle" x="364" y="-7.5" font-family="FreeSans.ttf" font-size="10.00" fill="#000000">stdexcept</text>
</g>
<!-- Node8&#45;&gt;Node14 -->
<g id="edge16" class="edge">
<title>Node8&#45;&gt;Node14</title>
<path fill="none" stroke="#191970" d="M434.1941,-56.2455C421.2744,-47.7337 402.3069,-35.2375 387.3448,-25.3801"/>
<polygon fill="#191970" stroke="#191970" points="388.9124,-22.2216 378.6362,-19.6427 385.0613,-28.067 388.9124,-22.2216"/>
</g>
<!-- Node15 -->
<g id="node16" class="node">
<title>Node15</title>
<polygon fill="none" stroke="#bfbfbf" points="414.5,-.5 414.5,-19.5 483.5,-19.5 483.5,-.5 414.5,-.5"/>
<text text-anchor="middle" x="449" y="-7.5" font-family="FreeSans.ttf" font-size="10.00" fill="#000000">type_traits</text>
</g>
<!-- Node8&#45;&gt;Node15 -->
<g id="edge17" class="edge">
<title>Node8&#45;&gt;Node15</title>
<path fill="none" stroke="#191970" d="M449,-56.2455C449,-48.9382 449,-38.6944 449,-29.7046"/>
<polygon fill="#191970" stroke="#191970" points="452.5001,-29.6426 449,-19.6427 445.5001,-29.6427 452.5001,-29.6426"/>
</g>
<!-- Node16 -->
<g id="node17" class="node">
<title>Node16</title>
<polygon fill="none" stroke="#bfbfbf" points="501.5,-.5 501.5,-19.5 546.5,-19.5 546.5,-.5 501.5,-.5"/>
<text text-anchor="middle" x="524" y="-7.5" font-family="FreeSans.ttf" font-size="10.00" fill="#000000">utility</text>
</g>
<!-- Node8&#45;&gt;Node16 -->
<g id="edge18" class="edge">
<title>Node8&#45;&gt;Node16</title>
<path fill="none" stroke="#191970" d="M462.064,-56.2455C473.3562,-47.814 489.8845,-35.4729 503.0271,-25.6598"/>
<polygon fill="#191970" stroke="#191970" points="505.1669,-28.4301 511.0857,-19.6427 500.9789,-22.8211 505.1669,-28.4301"/>
</g>
</g>
</svg>
