<?xml version="1.0" encoding="UTF-8" standalone="no"?>
<!DOCTYPE svg PUBLIC "-//W3C//DTD SVG 1.1//EN"
 "http://www.w3.org/Graphics/SVG/1.1/DTD/svg11.dtd">
<!-- Generated by graphviz version 2.40.1 (20161225.0304)
 -->
<!-- Title: OptimizationProblem.h Pages: 1 -->
<svg width="399pt" height="196pt"
 viewBox="0.00 0.00 398.50 196.00" xmlns="http://www.w3.org/2000/svg" xmlns:xlink="http://www.w3.org/1999/xlink">
<g id="graph0" class="graph" transform="scale(1 1) rotate(0) translate(4 192)">
<title>OptimizationProblem.h</title>
<!-- Node3 -->
<g id="node1" class="node">
<title>Node3</title>
<polygon fill="#bfbfbf" stroke="#000000" points="131,-168.5 131,-187.5 260,-187.5 260,-168.5 131,-168.5"/>
<text text-anchor="middle" x="195.5" y="-175.5" font-family="FreeSans.ttf" font-size="10.00" fill="#000000">OptimizationProblem.h</text>
</g>
<!-- Node4 -->
<g id="node2" class="node">
<title>Node4</title>
<g id="a_node2"><a xlink:href="MultipleShootingSolver_8h.html" target="_top" xlink:title="MultipleShootingSolver.h">
<polygon fill="none" stroke="#000000" points="11,-56.5 11,-75.5 148,-75.5 148,-56.5 11,-56.5"/>
<text text-anchor="middle" x="79.5" y="-63.5" font-family="FreeSans.ttf" font-size="10.00" fill="#000000">MultipleShootingSolver.h</text>
</a>
</g>
</g>
<!-- Node3&#45;&gt;Node4 -->
<g id="edge1" class="edge">
<title>Node3&#45;&gt;Node4</title>
<path fill="none" stroke="#191970" d="M178.373,-161.4635C153.744,-137.6838 109.1195,-94.5982 89.3651,-75.5249"/>
<polygon fill="#191970" stroke="#191970" points="175.9848,-164.0229 185.6099,-168.4509 180.847,-158.9871 175.9848,-164.0229"/>
</g>
<!-- Node6 -->
<g id="node4" class="node">
<title>Node6</title>
<g id="a_node4"><a xlink:href="Optimizer_8h.html" target="_top" xlink:title="Optimizer.h">
<polygon fill="none" stroke="#000000" points="159,-112.5 159,-131.5 232,-131.5 232,-112.5 159,-112.5"/>
<text text-anchor="middle" x="195.5" y="-119.5" font-family="FreeSans.ttf" font-size="10.00" fill="#000000">Optimizer.h</text>
</a>
</g>
</g>
<!-- Node3&#45;&gt;Node6 -->
<g id="edge3" class="edge">
<title>Node3&#45;&gt;Node6</title>
<path fill="none" stroke="#191970" d="M195.5,-158.1575C195.5,-149.155 195.5,-138.9199 195.5,-131.6427"/>
<polygon fill="#191970" stroke="#191970" points="192.0001,-158.2455 195.5,-168.2455 199.0001,-158.2456 192.0001,-158.2455"/>
</g>
<!-- Node10 -->
<g id="node8" class="node">
<title>Node10</title>
<g id="a_node8"><a xlink:href="OptimizationProblem_8cpp.html" target="_top" xlink:title="OptimizationProblem.cpp">
<polygon fill="none" stroke="#000000" points="250.5,-112.5 250.5,-131.5 390.5,-131.5 390.5,-112.5 250.5,-112.5"/>
<text text-anchor="middle" x="320.5" y="-119.5" font-family="FreeSans.ttf" font-size="10.00" fill="#000000">OptimizationProblem.cpp</text>
</a>
</g>
</g>
<!-- Node3&#45;&gt;Node10 -->
<g id="edge8" class="edge">
<title>Node3&#45;&gt;Node10</title>
<path fill="none" stroke="#191970" d="M226.198,-164.2473C248.8993,-154.0771 279.2315,-140.4883 299.2921,-131.5011"/>
<polygon fill="#191970" stroke="#191970" points="224.6833,-161.0906 216.9883,-168.3733 227.5453,-167.4789 224.6833,-161.0906"/>
</g>
<!-- Node5 -->
<g id="node3" class="node">
<title>Node5</title>
<g id="a_node3"><a xlink:href="MultipleShootingSolver_8cpp.html" target="_top" xlink:title="MultipleShootingSolver.cpp">
<polygon fill="none" stroke="#000000" points="0,-.5 0,-19.5 149,-19.5 149,-.5 0,-.5"/>
<text text-anchor="middle" x="74.5" y="-7.5" font-family="FreeSans.ttf" font-size="10.00" fill="#000000">MultipleShootingSolver.cpp</text>
</a>
</g>
</g>
<!-- Node4&#45;&gt;Node5 -->
<g id="edge2" class="edge">
<title>Node4&#45;&gt;Node5</title>
<path fill="none" stroke="#191970" d="M77.7283,-46.1575C76.9246,-37.155 76.0107,-26.9199 75.361,-19.6427"/>
<polygon fill="#191970" stroke="#191970" points="74.2535,-46.5965 78.6291,-56.2455 81.2258,-45.9739 74.2535,-46.5965"/>
</g>
<!-- Node6&#45;&gt;Node4 -->
<g id="edge4" class="edge">
<title>Node6&#45;&gt;Node4</title>
<path fill="none" stroke="#191970" d="M166.4463,-107.9741C145.4435,-97.8348 117.6309,-84.408 99.1809,-75.5011"/>
<polygon fill="#191970" stroke="#191970" points="165.0317,-111.1776 175.5589,-112.3733 168.075,-104.8738 165.0317,-111.1776"/>
</g>
<!-- Node7 -->
<g id="node5" class="node">
<title>Node7</title>
<g id="a_node5"><a xlink:href="IpoptInterface_8h.html" target="_top" xlink:title="IpoptInterface.h">
<polygon fill="none" stroke="#000000" points="166.5,-56.5 166.5,-75.5 260.5,-75.5 260.5,-56.5 166.5,-56.5"/>
<text text-anchor="middle" x="213.5" y="-63.5" font-family="FreeSans.ttf" font-size="10.00" fill="#000000">IpoptInterface.h</text>
</a>
</g>
</g>
<!-- Node6&#45;&gt;Node7 -->
<g id="edge5" class="edge">
<title>Node6&#45;&gt;Node7</title>
<path fill="none" stroke="#191970" d="M201.7827,-102.4538C204.6992,-93.3803 208.0358,-82.9998 210.4006,-75.6427"/>
<polygon fill="#191970" stroke="#191970" points="198.3634,-101.6542 198.6354,-112.2455 205.0276,-103.7963 198.3634,-101.6542"/>
</g>
<!-- Node9 -->
<g id="node7" class="node">
<title>Node9</title>
<g id="a_node7"><a xlink:href="Optimizer_8cpp.html" target="_top" xlink:title="Optimizer.cpp">
<polygon fill="none" stroke="#000000" points="278.5,-56.5 278.5,-75.5 362.5,-75.5 362.5,-56.5 278.5,-56.5"/>
<text text-anchor="middle" x="320.5" y="-63.5" font-family="FreeSans.ttf" font-size="10.00" fill="#000000">Optimizer.cpp</text>
</a>
</g>
</g>
<!-- Node6&#45;&gt;Node9 -->
<g id="edge7" class="edge">
<title>Node6&#45;&gt;Node9</title>
<path fill="none" stroke="#191970" d="M226.198,-108.2473C248.8993,-98.0771 279.2315,-84.4883 299.2921,-75.5011"/>
<polygon fill="#191970" stroke="#191970" points="224.6833,-105.0906 216.9883,-112.3733 227.5453,-111.4789 224.6833,-105.0906"/>
</g>
<!-- Node8 -->
<g id="node6" class="node">
<title>Node8</title>
<g id="a_node6"><a xlink:href="IpoptInterface_8cpp.html" target="_top" xlink:title="IpoptInterface.cpp">
<polygon fill="none" stroke="#000000" points="167,-.5 167,-19.5 272,-19.5 272,-.5 167,-.5"/>
<text text-anchor="middle" x="219.5" y="-7.5" font-family="FreeSans.ttf" font-size="10.00" fill="#000000">IpoptInterface.cpp</text>
</a>
</g>
</g>
<!-- Node7&#45;&gt;Node8 -->
<g id="edge6" class="edge">
<title>Node7&#45;&gt;Node8</title>
<path fill="none" stroke="#191970" d="M215.626,-46.1575C216.5905,-37.155 217.6872,-26.9199 218.4669,-19.6427"/>
<polygon fill="#191970" stroke="#191970" points="212.1305,-45.9296 214.5451,-56.2455 219.0906,-46.6753 212.1305,-45.9296"/>
</g>
</g>
</svg>
