<?xml version="1.0" encoding="UTF-8" standalone="no"?>
<!DOCTYPE svg PUBLIC "-//W3C//DTD SVG 1.1//EN"
 "http://www.w3.org/Graphics/SVG/1.1/DTD/svg11.dtd">
<!-- Generated by graphviz version 2.40.1 (20161225.0304)
 -->
<!-- Title: OptimizationProblem.cpp Pages: 1 -->
<svg width="320pt" height="140pt"
 viewBox="0.00 0.00 320.00 140.00" xmlns="http://www.w3.org/2000/svg" xmlns:xlink="http://www.w3.org/1999/xlink">
<g id="graph0" class="graph" transform="scale(1 1) rotate(0) translate(4 136)">
<title>OptimizationProblem.cpp</title>
<!-- Node0 -->
<g id="node1" class="node">
<title>Node0</title>
<polygon fill="#bfbfbf" stroke="#000000" points="99.5,-112.5 99.5,-131.5 239.5,-131.5 239.5,-112.5 99.5,-112.5"/>
<text text-anchor="middle" x="169.5" y="-119.5" font-family="FreeSans.ttf" font-size="10.00" fill="#000000">OptimizationProblem.cpp</text>
</g>
<!-- Node1 -->
<g id="node2" class="node">
<title>Node1</title>
<g id="a_node2"><a xlink:href="OptimizationProblem_8h.html" target="_top" xlink:title="iDynTree/OptimizationProblem.h">
<polygon fill="none" stroke="#000000" points="0,-56.5 0,-75.5 175,-75.5 175,-56.5 0,-56.5"/>
<text text-anchor="middle" x="87.5" y="-63.5" font-family="FreeSans.ttf" font-size="10.00" fill="#000000">iDynTree/OptimizationProblem.h</text>
</a>
</g>
</g>
<!-- Node0&#45;&gt;Node1 -->
<g id="edge1" class="edge">
<title>Node0&#45;&gt;Node1</title>
<path fill="none" stroke="#191970" d="M155.2167,-112.2455C142.753,-103.7337 124.4549,-91.2375 110.0208,-81.3801"/>
<polygon fill="#191970" stroke="#191970" points="111.8515,-78.392 101.6196,-75.6427 107.9038,-84.1726 111.8515,-78.392"/>
</g>
<!-- Node4 -->
<g id="node5" class="node">
<title>Node4</title>
<g id="a_node5"><a xlink:href="Utils_8h.html" target="_top" xlink:title="iDynTree/Core/Utils.h">
<polygon fill="none" stroke="#000000" points="193,-56.5 193,-75.5 312,-75.5 312,-56.5 193,-56.5"/>
<text text-anchor="middle" x="252.5" y="-63.5" font-family="FreeSans.ttf" font-size="10.00" fill="#000000">iDynTree/Core/Utils.h</text>
</a>
</g>
</g>
<!-- Node0&#45;&gt;Node4 -->
<g id="edge4" class="edge">
<title>Node0&#45;&gt;Node4</title>
<path fill="none" stroke="#191970" d="M183.9575,-112.2455C196.5732,-103.7337 215.0944,-91.2375 229.7045,-81.3801"/>
<polygon fill="#191970" stroke="#191970" points="231.8761,-84.1371 238.2082,-75.6427 227.9609,-78.3343 231.8761,-84.1371"/>
</g>
<!-- Node2 -->
<g id="node3" class="node">
<title>Node2</title>
<polygon fill="none" stroke="#bfbfbf" points="64,-.5 64,-19.5 111,-19.5 111,-.5 64,-.5"/>
<text text-anchor="middle" x="87.5" y="-7.5" font-family="FreeSans.ttf" font-size="10.00" fill="#000000">vector</text>
</g>
<!-- Node1&#45;&gt;Node2 -->
<g id="edge2" class="edge">
<title>Node1&#45;&gt;Node2</title>
<path fill="none" stroke="#191970" d="M87.5,-56.2455C87.5,-48.9382 87.5,-38.6944 87.5,-29.7046"/>
<polygon fill="#191970" stroke="#191970" points="91.0001,-29.6426 87.5,-19.6427 84.0001,-29.6427 91.0001,-29.6426"/>
</g>
<!-- Node3 -->
<g id="node4" class="node">
<title>Node3</title>
<polygon fill="none" stroke="#bfbfbf" points="177,-.5 177,-19.5 230,-19.5 230,-.5 177,-.5"/>
<text text-anchor="middle" x="203.5" y="-7.5" font-family="FreeSans.ttf" font-size="10.00" fill="#000000">cstddef</text>
</g>
<!-- Node1&#45;&gt;Node3 -->
<g id="edge3" class="edge">
<title>Node1&#45;&gt;Node3</title>
<path fill="none" stroke="#191970" d="M107.4411,-56.3733C125.9786,-47.4241 153.8028,-33.9917 174.7413,-23.8835"/>
<polygon fill="#191970" stroke="#191970" points="176.3352,-27.0006 183.8191,-19.5011 173.2919,-20.6967 176.3352,-27.0006"/>
</g>
<!-- Node4&#45;&gt;Node3 -->
<g id="edge5" class="edge">
<title>Node4&#45;&gt;Node3</title>
<path fill="none" stroke="#191970" d="M243.9649,-56.2455C237.0088,-48.2958 227.0117,-36.8706 218.6949,-27.3656"/>
<polygon fill="#191970" stroke="#191970" points="221.1564,-24.8637 211.9373,-19.6427 215.8884,-29.4732 221.1564,-24.8637"/>
</g>
</g>
</svg>
