<?xml version="1.0" encoding="UTF-8" standalone="no"?>
<!DOCTYPE svg PUBLIC "-//W3C//DTD SVG 1.1//EN"
 "http://www.w3.org/Graphics/SVG/1.1/DTD/svg11.dtd">
<!-- Generated by graphviz version 2.40.1 (20161225.0304)
 -->
<!-- Title: OptimalControl.h Pages: 1 -->
<svg width="852pt" height="308pt"
 viewBox="0.00 0.00 852.00 308.00" xmlns="http://www.w3.org/2000/svg" xmlns:xlink="http://www.w3.org/1999/xlink">
<g id="graph0" class="graph" transform="scale(1 1) rotate(0) translate(4 304)">
<title>OptimalControl.h</title>
<!-- Node0 -->
<g id="node1" class="node">
<title>Node0</title>
<polygon fill="#bfbfbf" stroke="#000000" points="343.5,-280.5 343.5,-299.5 443.5,-299.5 443.5,-280.5 343.5,-280.5"/>
<text text-anchor="middle" x="393.5" y="-287.5" font-family="FreeSans.ttf" font-size="10.00" fill="#000000">OptimalControl.h</text>
</g>
<!-- Node1 -->
<g id="node2" class="node">
<title>Node1</title>
<g id="a_node2"><a xlink:href="DynamicalSystem_8h.html" target="_top" xlink:title="iDynTree/DynamicalSystem.h">
<polygon fill="none" stroke="#000000" points="0,-168.5 0,-187.5 161,-187.5 161,-168.5 0,-168.5"/>
<text text-anchor="middle" x="80.5" y="-175.5" font-family="FreeSans.ttf" font-size="10.00" fill="#000000">iDynTree/DynamicalSystem.h</text>
</a>
</g>
</g>
<!-- Node0&#45;&gt;Node1 -->
<g id="edge1" class="edge">
<title>Node0&#45;&gt;Node1</title>
<path fill="none" stroke="#191970" d="M343.2335,-285.9691C276.1407,-279.8134 161.6777,-266.3675 126.5,-244 108.9038,-232.8116 96.1864,-212.2258 88.6419,-197.0088"/>
<polygon fill="#191970" stroke="#191970" points="91.8162,-195.5345 84.4317,-187.9371 85.4667,-198.4813 91.8162,-195.5345"/>
</g>
<!-- Node14 -->
<g id="node15" class="node">
<title>Node14</title>
<g id="a_node15"><a xlink:href="LinearSystem_8h.html" target="_top" xlink:title="iDynTree/LinearSystem.h">
<polygon fill="none" stroke="#000000" points="144.5,-224.5 144.5,-243.5 282.5,-243.5 282.5,-224.5 144.5,-224.5"/>
<text text-anchor="middle" x="213.5" y="-231.5" font-family="FreeSans.ttf" font-size="10.00" fill="#000000">iDynTree/LinearSystem.h</text>
</a>
</g>
</g>
<!-- Node0&#45;&gt;Node14 -->
<g id="edge15" class="edge">
<title>Node0&#45;&gt;Node14</title>
<path fill="none" stroke="#191970" d="M362.5569,-280.3733C332.4961,-271.021 286.6974,-256.7725 253.8022,-246.5385"/>
<polygon fill="#191970" stroke="#191970" points="254.6277,-243.1299 244.0393,-243.5011 252.5481,-249.8139 254.6277,-243.1299"/>
</g>
<!-- Node16 -->
<g id="node17" class="node">
<title>Node16</title>
<g id="a_node17"><a xlink:href="Constraint_8h.html" target="_top" xlink:title="iDynTree/Constraint.h">
<polygon fill="none" stroke="#000000" points="180.5,-168.5 180.5,-187.5 302.5,-187.5 302.5,-168.5 180.5,-168.5"/>
<text text-anchor="middle" x="241.5" y="-175.5" font-family="FreeSans.ttf" font-size="10.00" fill="#000000">iDynTree/Constraint.h</text>
</a>
</g>
</g>
<!-- Node0&#45;&gt;Node16 -->
<g id="edge18" class="edge">
<title>Node0&#45;&gt;Node16</title>
<path fill="none" stroke="#191970" d="M343.4822,-288.4371C276.0757,-285.1568 161.499,-275.0444 135.5,-244 115.0801,-219.6174 152.8764,-201.5055 188.8706,-190.4848"/>
<polygon fill="#191970" stroke="#191970" points="190.2979,-193.715 198.9251,-187.5651 188.3458,-186.9927 190.2979,-193.715"/>
</g>
<!-- Node17 -->
<g id="node18" class="node">
<title>Node17</title>
<g id="a_node18"><a xlink:href="ConstraintsGroup_8h.html" target="_top" xlink:title="iDynTree/ConstraintsGroup.h">
<polygon fill="none" stroke="#000000" points="504.5,-224.5 504.5,-243.5 660.5,-243.5 660.5,-224.5 504.5,-224.5"/>
<text text-anchor="middle" x="582.5" y="-231.5" font-family="FreeSans.ttf" font-size="10.00" fill="#000000">iDynTree/ConstraintsGroup.h</text>
</a>
</g>
</g>
<!-- Node0&#45;&gt;Node17 -->
<g id="edge22" class="edge">
<title>Node0&#45;&gt;Node17</title>
<path fill="none" stroke="#191970" d="M425.9903,-280.3733C457.6902,-270.9807 506.0576,-256.6496 540.6286,-246.4064"/>
<polygon fill="#191970" stroke="#191970" points="541.8401,-249.6979 550.4337,-243.5011 539.8514,-242.9863 541.8401,-249.6979"/>
</g>
<!-- Node19 -->
<g id="node20" class="node">
<title>Node19</title>
<g id="a_node20"><a xlink:href="Cost_8h.html" target="_top" xlink:title="iDynTree/Cost.h">
<polygon fill="none" stroke="#000000" points="628,-112.5 628,-131.5 721,-131.5 721,-112.5 628,-112.5"/>
<text text-anchor="middle" x="674.5" y="-119.5" font-family="FreeSans.ttf" font-size="10.00" fill="#000000">iDynTree/Cost.h</text>
</a>
</g>
</g>
<!-- Node0&#45;&gt;Node19 -->
<g id="edge26" class="edge">
<title>Node0&#45;&gt;Node19</title>
<path fill="none" stroke="#191970" d="M443.5135,-285.0735C518.9683,-277.1414 654.7303,-260.7281 669.5,-244 694.4095,-215.7877 687.1737,-168.0296 680.3985,-141.4051"/>
<polygon fill="#191970" stroke="#191970" points="683.755,-140.411 677.7096,-131.7102 677.0096,-142.2819 683.755,-140.411"/>
</g>
<!-- Node20 -->
<g id="node21" class="node">
<title>Node20</title>
<g id="a_node21"><a xlink:href="OptimalControlProblem_8h.html" target="_top" xlink:title="iDynTree/OptimalControlProblem.h">
<polygon fill="none" stroke="#000000" points="300.5,-224.5 300.5,-243.5 486.5,-243.5 486.5,-224.5 300.5,-224.5"/>
<text text-anchor="middle" x="393.5" y="-231.5" font-family="FreeSans.ttf" font-size="10.00" fill="#000000">iDynTree/OptimalControlProblem.h</text>
</a>
</g>
</g>
<!-- Node0&#45;&gt;Node20 -->
<g id="edge28" class="edge">
<title>Node0&#45;&gt;Node20</title>
<path fill="none" stroke="#191970" d="M393.5,-280.2455C393.5,-272.9382 393.5,-262.6944 393.5,-253.7046"/>
<polygon fill="#191970" stroke="#191970" points="397.0001,-253.6426 393.5,-243.6427 390.0001,-253.6427 397.0001,-253.6426"/>
</g>
<!-- Node21 -->
<g id="node22" class="node">
<title>Node21</title>
<g id="a_node22"><a xlink:href="TimeRange_8h.html" target="_top" xlink:title="iDynTree/TimeRange.h">
<polygon fill="none" stroke="#000000" points="717,-224.5 717,-243.5 844,-243.5 844,-224.5 717,-224.5"/>
<text text-anchor="middle" x="780.5" y="-231.5" font-family="FreeSans.ttf" font-size="10.00" fill="#000000">iDynTree/TimeRange.h</text>
</a>
</g>
</g>
<!-- Node0&#45;&gt;Node21 -->
<g id="edge32" class="edge">
<title>Node0&#45;&gt;Node21</title>
<path fill="none" stroke="#191970" d="M443.6967,-282.7364C510.6361,-273.0501 629.63,-255.8313 706.7694,-244.669"/>
<polygon fill="#191970" stroke="#191970" points="707.5023,-248.0995 716.8979,-243.2034 706.4998,-241.1717 707.5023,-248.0995"/>
</g>
<!-- Node2 -->
<g id="node3" class="node">
<title>Node2</title>
<g id="a_node3"><a xlink:href="VectorDynSize_8h.html" target="_top" xlink:title="iDynTree/Core/VectorDynSize.h">
<polygon fill="none" stroke="#000000" points="158,-112.5 158,-131.5 325,-131.5 325,-112.5 158,-112.5"/>
<text text-anchor="middle" x="241.5" y="-119.5" font-family="FreeSans.ttf" font-size="10.00" fill="#000000">iDynTree/Core/VectorDynSize.h</text>
</a>
</g>
</g>
<!-- Node1&#45;&gt;Node2 -->
<g id="edge2" class="edge">
<title>Node1&#45;&gt;Node2</title>
<path fill="none" stroke="#191970" d="M108.1769,-168.3733C134.8328,-159.1016 175.3238,-145.0178 204.6884,-134.804"/>
<polygon fill="#191970" stroke="#191970" points="205.8891,-138.0921 214.1843,-131.5011 203.5895,-131.4807 205.8891,-138.0921"/>
</g>
<!-- Node7 -->
<g id="node8" class="node">
<title>Node7</title>
<polygon fill="none" stroke="#bfbfbf" points="48,-.5 48,-19.5 101,-19.5 101,-.5 48,-.5"/>
<text text-anchor="middle" x="74.5" y="-7.5" font-family="FreeSans.ttf" font-size="10.00" fill="#000000">cstddef</text>
</g>
<!-- Node1&#45;&gt;Node7 -->
<g id="edge14" class="edge">
<title>Node1&#45;&gt;Node7</title>
<path fill="none" stroke="#191970" d="M80.1602,-168.4862C79.2118,-141.9293 76.5202,-66.5651 75.2202,-30.1655"/>
<polygon fill="#191970" stroke="#191970" points="78.7058,-29.6966 74.851,-19.8279 71.7102,-29.9465 78.7058,-29.6966"/>
</g>
<!-- Node3 -->
<g id="node4" class="node">
<title>Node3</title>
<g id="a_node4"><a xlink:href="Span_8h.html" target="_top" xlink:title="iDynTree/Core/Span.h">
<polygon fill="none" stroke="#000000" points="232,-56.5 232,-75.5 353,-75.5 353,-56.5 232,-56.5"/>
<text text-anchor="middle" x="292.5" y="-63.5" font-family="FreeSans.ttf" font-size="10.00" fill="#000000">iDynTree/Core/Span.h</text>
</a>
</g>
</g>
<!-- Node2&#45;&gt;Node3 -->
<g id="edge3" class="edge">
<title>Node2&#45;&gt;Node3</title>
<path fill="none" stroke="#191970" d="M250.3835,-112.2455C257.6966,-104.2155 268.2391,-92.6394 276.9467,-83.0781"/>
<polygon fill="#191970" stroke="#191970" points="279.5727,-85.3928 283.7183,-75.6427 274.3972,-80.6795 279.5727,-85.3928"/>
</g>
<!-- Node13 -->
<g id="node14" class="node">
<title>Node13</title>
<polygon fill="none" stroke="#bfbfbf" points="371.5,-56.5 371.5,-75.5 415.5,-75.5 415.5,-56.5 371.5,-56.5"/>
<text text-anchor="middle" x="393.5" y="-63.5" font-family="FreeSans.ttf" font-size="10.00" fill="#000000">string</text>
</g>
<!-- Node2&#45;&gt;Node13 -->
<g id="edge13" class="edge">
<title>Node2&#45;&gt;Node13</title>
<path fill="none" stroke="#191970" d="M267.6297,-112.3733C293.6351,-102.7923 333.5881,-88.0728 361.4848,-77.7951"/>
<polygon fill="#191970" stroke="#191970" points="362.9954,-80.9686 371.1689,-74.2273 360.5754,-74.4002 362.9954,-80.9686"/>
</g>
<!-- Node4 -->
<g id="node5" class="node">
<title>Node4</title>
<polygon fill="none" stroke="#bfbfbf" points="119.5,-.5 119.5,-19.5 171.5,-19.5 171.5,-.5 119.5,-.5"/>
<text text-anchor="middle" x="145.5" y="-7.5" font-family="FreeSans.ttf" font-size="10.00" fill="#000000">cassert</text>
</g>
<!-- Node3&#45;&gt;Node4 -->
<g id="edge4" class="edge">
<title>Node3&#45;&gt;Node4</title>
<path fill="none" stroke="#191970" d="M267.2298,-56.3733C243.1034,-47.1822 206.5638,-33.2624 179.8123,-23.0713"/>
<polygon fill="#191970" stroke="#191970" points="181.0313,-19.7904 170.4404,-19.5011 178.5393,-26.3318 181.0313,-19.7904"/>
</g>
<!-- Node5 -->
<g id="node6" class="node">
<title>Node5</title>
<polygon fill="none" stroke="#bfbfbf" points="189.5,-.5 189.5,-19.5 253.5,-19.5 253.5,-.5 189.5,-.5"/>
<text text-anchor="middle" x="221.5" y="-7.5" font-family="FreeSans.ttf" font-size="10.00" fill="#000000">algorithm</text>
</g>
<!-- Node3&#45;&gt;Node5 -->
<g id="edge5" class="edge">
<title>Node3&#45;&gt;Node5</title>
<path fill="none" stroke="#191970" d="M280.1327,-56.2455C269.5446,-47.8943 254.0936,-35.7076 241.7107,-25.9408"/>
<polygon fill="#191970" stroke="#191970" points="243.7447,-23.0875 233.7255,-19.6427 239.4097,-28.5837 243.7447,-23.0875"/>
</g>
<!-- Node6 -->
<g id="node7" class="node">
<title>Node6</title>
<polygon fill="none" stroke="#bfbfbf" points="271.5,-.5 271.5,-19.5 313.5,-19.5 313.5,-.5 271.5,-.5"/>
<text text-anchor="middle" x="292.5" y="-7.5" font-family="FreeSans.ttf" font-size="10.00" fill="#000000">array</text>
</g>
<!-- Node3&#45;&gt;Node6 -->
<g id="edge6" class="edge">
<title>Node3&#45;&gt;Node6</title>
<path fill="none" stroke="#191970" d="M292.5,-56.2455C292.5,-48.9382 292.5,-38.6944 292.5,-29.7046"/>
<polygon fill="#191970" stroke="#191970" points="296.0001,-29.6426 292.5,-19.6427 289.0001,-29.6427 296.0001,-29.6426"/>
</g>
<!-- Node3&#45;&gt;Node7 -->
<g id="edge7" class="edge">
<title>Node3&#45;&gt;Node7</title>
<path fill="none" stroke="#191970" d="M253.733,-56.4805C218.9302,-47.8723 166.1971,-34.6767 111.1537,-20.1304"/>
<polygon fill="#191970" stroke="#191970" points="111.7804,-16.6757 101.2174,-17.4963 109.9867,-23.442 111.7804,-16.6757"/>
</g>
<!-- Node8 -->
<g id="node9" class="node">
<title>Node8</title>
<polygon fill="none" stroke="#bfbfbf" points="332,-.5 332,-19.5 385,-19.5 385,-.5 332,-.5"/>
<text text-anchor="middle" x="358.5" y="-7.5" font-family="FreeSans.ttf" font-size="10.00" fill="#000000">iterator</text>
</g>
<!-- Node3&#45;&gt;Node8 -->
<g id="edge8" class="edge">
<title>Node3&#45;&gt;Node8</title>
<path fill="none" stroke="#191970" d="M303.9963,-56.2455C313.7442,-47.9746 327.9259,-35.9416 339.3798,-26.2232"/>
<polygon fill="#191970" stroke="#191970" points="341.7747,-28.7813 347.1354,-19.6427 337.2459,-23.4437 341.7747,-28.7813"/>
</g>
<!-- Node9 -->
<g id="node10" class="node">
<title>Node9</title>
<polygon fill="none" stroke="#bfbfbf" points="403.5,-.5 403.5,-19.5 447.5,-19.5 447.5,-.5 403.5,-.5"/>
<text text-anchor="middle" x="425.5" y="-7.5" font-family="FreeSans.ttf" font-size="10.00" fill="#000000">limits</text>
</g>
<!-- Node3&#45;&gt;Node9 -->
<g id="edge9" class="edge">
<title>Node3&#45;&gt;Node9</title>
<path fill="none" stroke="#191970" d="M315.3635,-56.3733C337.0355,-47.2482 369.7779,-33.462 393.9331,-23.2913"/>
<polygon fill="#191970" stroke="#191970" points="395.5186,-26.4214 403.3768,-19.315 392.8022,-19.9699 395.5186,-26.4214"/>
</g>
<!-- Node10 -->
<g id="node11" class="node">
<title>Node10</title>
<polygon fill="none" stroke="#bfbfbf" points="466,-.5 466,-19.5 531,-19.5 531,-.5 466,-.5"/>
<text text-anchor="middle" x="498.5" y="-7.5" font-family="FreeSans.ttf" font-size="10.00" fill="#000000">stdexcept</text>
</g>
<!-- Node3&#45;&gt;Node10 -->
<g id="edge10" class="edge">
<title>Node3&#45;&gt;Node10</title>
<path fill="none" stroke="#191970" d="M327.9127,-56.3733C363.4997,-46.6991 418.3589,-31.7859 456.2097,-21.4964"/>
<polygon fill="#191970" stroke="#191970" points="457.1919,-24.8565 465.9235,-18.8557 455.3556,-18.1016 457.1919,-24.8565"/>
</g>
<!-- Node11 -->
<g id="node12" class="node">
<title>Node11</title>
<polygon fill="none" stroke="#bfbfbf" points="549,-.5 549,-19.5 618,-19.5 618,-.5 549,-.5"/>
<text text-anchor="middle" x="583.5" y="-7.5" font-family="FreeSans.ttf" font-size="10.00" fill="#000000">type_traits</text>
</g>
<!-- Node3&#45;&gt;Node11 -->
<g id="edge11" class="edge">
<title>Node3&#45;&gt;Node11</title>
<path fill="none" stroke="#191970" d="M347.0712,-56.473C394.9494,-47.9703 466.7006,-34.8811 538.7716,-20.0878"/>
<polygon fill="#191970" stroke="#191970" points="539.8544,-23.4382 548.9408,-17.9894 538.4397,-16.5826 539.8544,-23.4382"/>
</g>
<!-- Node12 -->
<g id="node13" class="node">
<title>Node12</title>
<polygon fill="none" stroke="#bfbfbf" points="636,-.5 636,-19.5 681,-19.5 681,-.5 636,-.5"/>
<text text-anchor="middle" x="658.5" y="-7.5" font-family="FreeSans.ttf" font-size="10.00" fill="#000000">utility</text>
</g>
<!-- Node3&#45;&gt;Node12 -->
<g id="edge12" class="edge">
<title>Node3&#45;&gt;Node12</title>
<path fill="none" stroke="#191970" d="M353.2028,-57.3021C356.3468,-56.8598 359.4603,-56.4236 362.5,-56 477.0031,-40.0438 509.8172,-45.9963 625.9465,-20.0519"/>
<polygon fill="#191970" stroke="#191970" points="626.9625,-23.4105 635.9417,-17.787 625.4155,-16.5836 626.9625,-23.4105"/>
</g>
<!-- Node14&#45;&gt;Node1 -->
<g id="edge16" class="edge">
<title>Node14&#45;&gt;Node1</title>
<path fill="none" stroke="#191970" d="M190.6365,-224.3733C169.095,-215.3032 136.6162,-201.6279 112.5044,-191.4755"/>
<polygon fill="#191970" stroke="#191970" points="113.6397,-188.156 103.0652,-187.5011 110.9233,-194.6075 113.6397,-188.156"/>
</g>
<!-- Node15 -->
<g id="node16" class="node">
<title>Node15</title>
<polygon fill="none" stroke="#bfbfbf" points="422,-168.5 422,-187.5 469,-187.5 469,-168.5 422,-168.5"/>
<text text-anchor="middle" x="445.5" y="-175.5" font-family="FreeSans.ttf" font-size="10.00" fill="#000000">vector</text>
</g>
<!-- Node14&#45;&gt;Node15 -->
<g id="edge17" class="edge">
<title>Node14&#45;&gt;Node15</title>
<path fill="none" stroke="#191970" d="M253.1186,-224.4369C297.9536,-213.6147 370.1931,-196.1775 412.2248,-186.0319"/>
<polygon fill="#191970" stroke="#191970" points="413.0737,-189.4276 421.9732,-183.6789 411.4311,-182.6231 413.0737,-189.4276"/>
</g>
<!-- Node16&#45;&gt;Node2 -->
<g id="edge21" class="edge">
<title>Node16&#45;&gt;Node2</title>
<path fill="none" stroke="#191970" d="M241.5,-168.2455C241.5,-160.9382 241.5,-150.6944 241.5,-141.7046"/>
<polygon fill="#191970" stroke="#191970" points="245.0001,-141.6426 241.5,-131.6427 238.0001,-141.6427 245.0001,-141.6426"/>
</g>
<!-- Node16&#45;&gt;Node7 -->
<g id="edge19" class="edge">
<title>Node16&#45;&gt;Node7</title>
<path fill="none" stroke="#191970" d="M212.1123,-168.402C192.4094,-160.8604 166.8156,-148.8063 148.5,-132 116.255,-102.4121 93.2738,-55.5627 82.1262,-29.3654"/>
<polygon fill="#191970" stroke="#191970" points="85.2384,-27.7307 78.1991,-19.8125 78.7641,-30.3922 85.2384,-27.7307"/>
</g>
<!-- Node16&#45;&gt;Node13 -->
<g id="edge20" class="edge">
<title>Node16&#45;&gt;Node13</title>
<path fill="none" stroke="#191970" d="M266.7488,-168.3737C286.0865,-160.3165 312.8603,-147.6355 333.5,-132 351.8996,-118.0614 369.2146,-97.9781 380.4698,-83.6317"/>
<polygon fill="#191970" stroke="#191970" points="383.3577,-85.6169 386.6502,-75.5466 377.7964,-81.3657 383.3577,-85.6169"/>
</g>
<!-- Node17&#45;&gt;Node13 -->
<g id="edge24" class="edge">
<title>Node17&#45;&gt;Node13</title>
<path fill="none" stroke="#191970" d="M580.988,-224.0411C578.449,-210.1672 572.196,-184.835 558.5,-168 522.5046,-123.7547 461.9179,-93.4087 425.0332,-77.9367"/>
<polygon fill="#191970" stroke="#191970" points="426.3283,-74.6851 415.7472,-74.1459 423.6827,-81.1659 426.3283,-74.6851"/>
</g>
<!-- Node17&#45;&gt;Node15 -->
<g id="edge25" class="edge">
<title>Node17&#45;&gt;Node15</title>
<path fill="none" stroke="#191970" d="M558.9489,-224.3733C536.6609,-215.2629 503.0063,-201.5062 478.1363,-191.3404"/>
<polygon fill="#191970" stroke="#191970" points="479.3247,-188.0451 468.7438,-187.5011 476.6761,-194.5247 479.3247,-188.0451"/>
</g>
<!-- Node18 -->
<g id="node19" class="node">
<title>Node18</title>
<polygon fill="none" stroke="#bfbfbf" points="491.5,-168.5 491.5,-187.5 549.5,-187.5 549.5,-168.5 491.5,-168.5"/>
<text text-anchor="middle" x="520.5" y="-175.5" font-family="FreeSans.ttf" font-size="10.00" fill="#000000">memory</text>
</g>
<!-- Node17&#45;&gt;Node18 -->
<g id="edge23" class="edge">
<title>Node17&#45;&gt;Node18</title>
<path fill="none" stroke="#191970" d="M571.7004,-224.2455C562.6322,-216.0549 549.4794,-204.1749 538.7755,-194.5069"/>
<polygon fill="#191970" stroke="#191970" points="540.9429,-191.7482 531.1758,-187.6427 536.2509,-196.9429 540.9429,-191.7482"/>
</g>
<!-- Node19&#45;&gt;Node13 -->
<g id="edge27" class="edge">
<title>Node19&#45;&gt;Node13</title>
<path fill="none" stroke="#191970" d="M627.7831,-112.6899C570.5238,-101.2788 475.0191,-82.2458 425.4869,-72.3746"/>
<polygon fill="#191970" stroke="#191970" points="426.1366,-68.9353 415.6453,-70.4133 424.7684,-75.8003 426.1366,-68.9353"/>
</g>
<!-- Node20&#45;&gt;Node13 -->
<g id="edge31" class="edge">
<title>Node20&#45;&gt;Node13</title>
<path fill="none" stroke="#191970" d="M393.5,-224.4862C393.5,-197.9293 393.5,-122.5651 393.5,-86.1655"/>
<polygon fill="#191970" stroke="#191970" points="397.0001,-85.8278 393.5,-75.8279 390.0001,-85.8279 397.0001,-85.8278"/>
</g>
<!-- Node20&#45;&gt;Node15 -->
<g id="edge30" class="edge">
<title>Node20&#45;&gt;Node15</title>
<path fill="none" stroke="#191970" d="M402.5577,-224.2455C410.0142,-216.2155 420.7634,-204.6394 429.6417,-195.0781"/>
<polygon fill="#191970" stroke="#191970" points="432.3063,-197.3522 436.5461,-187.6427 427.1768,-192.589 432.3063,-197.3522"/>
</g>
<!-- Node20&#45;&gt;Node18 -->
<g id="edge29" class="edge">
<title>Node20&#45;&gt;Node18</title>
<path fill="none" stroke="#191970" d="M415.3321,-224.3733C435.8103,-215.3435 466.6399,-201.7494 489.6319,-191.6111"/>
<polygon fill="#191970" stroke="#191970" points="491.215,-194.7383 498.9528,-187.5011 488.3907,-188.3333 491.215,-194.7383"/>
</g>
</g>
</svg>
