<?xml version="1.0" encoding="UTF-8" standalone="no"?>
<!DOCTYPE svg PUBLIC "-//W3C//DTD SVG 1.1//EN"
 "http://www.w3.org/Graphics/SVG/1.1/DTD/svg11.dtd">
<!-- Generated by graphviz version 2.40.1 (20161225.0304)
 -->
<!-- Title: Optimizer.cpp Pages: 1 -->
<svg width="770pt" height="196pt"
 viewBox="0.00 0.00 769.50 196.00" xmlns="http://www.w3.org/2000/svg" xmlns:xlink="http://www.w3.org/1999/xlink">
<g id="graph0" class="graph" transform="scale(1 1) rotate(0) translate(4 192)">
<title>Optimizer.cpp</title>
<!-- Node0 -->
<g id="node1" class="node">
<title>Node0</title>
<polygon fill="#bfbfbf" stroke="#000000" points="434,-168.5 434,-187.5 518,-187.5 518,-168.5 434,-168.5"/>
<text text-anchor="middle" x="476" y="-175.5" font-family="FreeSans.ttf" font-size="10.00" fill="#000000">Optimizer.cpp</text>
</g>
<!-- Node1 -->
<g id="node2" class="node">
<title>Node1</title>
<g id="a_node2"><a xlink:href="VectorDynSize_8h.html" target="_top" xlink:title="iDynTree/Core/VectorDynSize.h">
<polygon fill="none" stroke="#000000" points="229.5,-112.5 229.5,-131.5 396.5,-131.5 396.5,-112.5 229.5,-112.5"/>
<text text-anchor="middle" x="313" y="-119.5" font-family="FreeSans.ttf" font-size="10.00" fill="#000000">iDynTree/Core/VectorDynSize.h</text>
</a>
</g>
</g>
<!-- Node0&#45;&gt;Node1 -->
<g id="edge1" class="edge">
<title>Node0&#45;&gt;Node1</title>
<path fill="none" stroke="#191970" d="M447.9793,-168.3733C420.9922,-159.1016 379.9983,-145.0178 350.2689,-134.804"/>
<polygon fill="#191970" stroke="#191970" points="351.2497,-131.4403 340.6551,-131.5011 348.9752,-138.0605 351.2497,-131.4403"/>
</g>
<!-- Node13 -->
<g id="node14" class="node">
<title>Node13</title>
<g id="a_node14"><a xlink:href="Optimizer_8h.html" target="_top" xlink:title="iDynTree/Optimizer.h">
<polygon fill="none" stroke="#000000" points="553.5,-112.5 553.5,-131.5 672.5,-131.5 672.5,-112.5 553.5,-112.5"/>
<text text-anchor="middle" x="613" y="-119.5" font-family="FreeSans.ttf" font-size="10.00" fill="#000000">iDynTree/Optimizer.h</text>
</a>
</g>
</g>
<!-- Node0&#45;&gt;Node13 -->
<g id="edge13" class="edge">
<title>Node0&#45;&gt;Node13</title>
<path fill="none" stroke="#191970" d="M499.5511,-168.3733C521.8391,-159.2629 555.4937,-145.5062 580.3637,-135.3404"/>
<polygon fill="#191970" stroke="#191970" points="581.8239,-138.5247 589.7562,-131.5011 579.1753,-132.0451 581.8239,-138.5247"/>
</g>
<!-- Node17 -->
<g id="node18" class="node">
<title>Node17</title>
<g id="a_node18"><a xlink:href="Utils_8h.html" target="_top" xlink:title="iDynTree/Core/Utils.h">
<polygon fill="none" stroke="#000000" points="416.5,-112.5 416.5,-131.5 535.5,-131.5 535.5,-112.5 416.5,-112.5"/>
<text text-anchor="middle" x="476" y="-119.5" font-family="FreeSans.ttf" font-size="10.00" fill="#000000">iDynTree/Core/Utils.h</text>
</a>
</g>
</g>
<!-- Node0&#45;&gt;Node17 -->
<g id="edge18" class="edge">
<title>Node0&#45;&gt;Node17</title>
<path fill="none" stroke="#191970" d="M476,-168.2455C476,-160.9382 476,-150.6944 476,-141.7046"/>
<polygon fill="#191970" stroke="#191970" points="479.5001,-141.6426 476,-131.6427 472.5001,-141.6427 479.5001,-141.6426"/>
</g>
<!-- Node2 -->
<g id="node3" class="node">
<title>Node2</title>
<g id="a_node3"><a xlink:href="Span_8h.html" target="_top" xlink:title="iDynTree/Core/Span.h">
<polygon fill="none" stroke="#000000" points="252.5,-56.5 252.5,-75.5 373.5,-75.5 373.5,-56.5 252.5,-56.5"/>
<text text-anchor="middle" x="313" y="-63.5" font-family="FreeSans.ttf" font-size="10.00" fill="#000000">iDynTree/Core/Span.h</text>
</a>
</g>
</g>
<!-- Node1&#45;&gt;Node2 -->
<g id="edge2" class="edge">
<title>Node1&#45;&gt;Node2</title>
<path fill="none" stroke="#191970" d="M313,-112.2455C313,-104.9382 313,-94.6944 313,-85.7046"/>
<polygon fill="#191970" stroke="#191970" points="316.5001,-85.6426 313,-75.6427 309.5001,-85.6427 316.5001,-85.6426"/>
</g>
<!-- Node12 -->
<g id="node13" class="node">
<title>Node12</title>
<polygon fill="none" stroke="#bfbfbf" points="190,-56.5 190,-75.5 234,-75.5 234,-56.5 190,-56.5"/>
<text text-anchor="middle" x="212" y="-63.5" font-family="FreeSans.ttf" font-size="10.00" fill="#000000">string</text>
</g>
<!-- Node1&#45;&gt;Node12 -->
<g id="edge12" class="edge">
<title>Node1&#45;&gt;Node12</title>
<path fill="none" stroke="#191970" d="M295.4071,-112.2455C279.621,-103.4928 256.2361,-90.527 238.2413,-80.5496"/>
<polygon fill="#191970" stroke="#191970" points="239.8341,-77.4308 229.3913,-75.6427 236.4397,-83.5528 239.8341,-77.4308"/>
</g>
<!-- Node3 -->
<g id="node4" class="node">
<title>Node3</title>
<polygon fill="none" stroke="#bfbfbf" points="428,-.5 428,-19.5 480,-19.5 480,-.5 428,-.5"/>
<text text-anchor="middle" x="454" y="-7.5" font-family="FreeSans.ttf" font-size="10.00" fill="#000000">cassert</text>
</g>
<!-- Node2&#45;&gt;Node3 -->
<g id="edge3" class="edge">
<title>Node2&#45;&gt;Node3</title>
<path fill="none" stroke="#191970" d="M337.2388,-56.3733C360.2789,-47.2226 395.1214,-33.3844 420.7501,-23.2057"/>
<polygon fill="#191970" stroke="#191970" points="422.0756,-26.4452 430.0775,-19.5011 419.4918,-19.9395 422.0756,-26.4452"/>
</g>
<!-- Node4 -->
<g id="node5" class="node">
<title>Node4</title>
<polygon fill="none" stroke="#bfbfbf" points="498,-.5 498,-19.5 562,-19.5 562,-.5 498,-.5"/>
<text text-anchor="middle" x="530" y="-7.5" font-family="FreeSans.ttf" font-size="10.00" fill="#000000">algorithm</text>
</g>
<!-- Node2&#45;&gt;Node4 -->
<g id="edge4" class="edge">
<title>Node2&#45;&gt;Node4</title>
<path fill="none" stroke="#191970" d="M350.3036,-56.3733C388.6207,-46.485 448.1478,-31.1232 488.0724,-20.82"/>
<polygon fill="#191970" stroke="#191970" points="488.9674,-24.2038 497.7756,-18.316 487.2182,-17.4259 488.9674,-24.2038"/>
</g>
<!-- Node5 -->
<g id="node6" class="node">
<title>Node5</title>
<polygon fill="none" stroke="#bfbfbf" points="0,-.5 0,-19.5 42,-19.5 42,-.5 0,-.5"/>
<text text-anchor="middle" x="21" y="-7.5" font-family="FreeSans.ttf" font-size="10.00" fill="#000000">array</text>
</g>
<!-- Node2&#45;&gt;Node5 -->
<g id="edge5" class="edge">
<title>Node2&#45;&gt;Node5</title>
<path fill="none" stroke="#191970" d="M252.6947,-56.4742C191.9139,-46.6968 101.2633,-31.5907 52.0396,-19.9281"/>
<polygon fill="#191970" stroke="#191970" points="52.7378,-16.4954 42.1902,-17.4948 51.0589,-23.2911 52.7378,-16.4954"/>
</g>
<!-- Node6 -->
<g id="node7" class="node">
<title>Node6</title>
<polygon fill="none" stroke="#bfbfbf" points="580.5,-.5 580.5,-19.5 633.5,-19.5 633.5,-.5 580.5,-.5"/>
<text text-anchor="middle" x="607" y="-7.5" font-family="FreeSans.ttf" font-size="10.00" fill="#000000">cstddef</text>
</g>
<!-- Node2&#45;&gt;Node6 -->
<g id="edge6" class="edge">
<title>Node2&#45;&gt;Node6</title>
<path fill="none" stroke="#191970" d="M373.5352,-56.8653C423.7719,-48.9072 497.2536,-36.398 570.4761,-19.9487"/>
<polygon fill="#191970" stroke="#191970" points="571.3587,-23.3374 580.335,-17.7092 569.8081,-16.5113 571.3587,-23.3374"/>
</g>
<!-- Node7 -->
<g id="node8" class="node">
<title>Node7</title>
<polygon fill="none" stroke="#bfbfbf" points="60.5,-.5 60.5,-19.5 113.5,-19.5 113.5,-.5 60.5,-.5"/>
<text text-anchor="middle" x="87" y="-7.5" font-family="FreeSans.ttf" font-size="10.00" fill="#000000">iterator</text>
</g>
<!-- Node2&#45;&gt;Node7 -->
<g id="edge7" class="edge">
<title>Node2&#45;&gt;Node7</title>
<path fill="none" stroke="#191970" d="M271.7606,-56.4351C235.3159,-47.8885 180.4845,-34.8028 123.5996,-20.0946"/>
<polygon fill="#191970" stroke="#191970" points="124.2683,-16.6522 113.7096,-17.5262 122.5088,-23.4275 124.2683,-16.6522"/>
</g>
<!-- Node8 -->
<g id="node9" class="node">
<title>Node8</title>
<polygon fill="none" stroke="#bfbfbf" points="132,-.5 132,-19.5 176,-19.5 176,-.5 132,-.5"/>
<text text-anchor="middle" x="154" y="-7.5" font-family="FreeSans.ttf" font-size="10.00" fill="#000000">limits</text>
</g>
<!-- Node2&#45;&gt;Node8 -->
<g id="edge8" class="edge">
<title>Node2&#45;&gt;Node8</title>
<path fill="none" stroke="#191970" d="M285.6669,-56.3733C258.0269,-46.6384 215.3244,-31.5985 186.0931,-21.3032"/>
<polygon fill="#191970" stroke="#191970" points="186.957,-17.8968 176.3622,-17.876 184.6316,-24.4993 186.957,-17.8968"/>
</g>
<!-- Node9 -->
<g id="node10" class="node">
<title>Node9</title>
<polygon fill="none" stroke="#bfbfbf" points="194.5,-.5 194.5,-19.5 259.5,-19.5 259.5,-.5 194.5,-.5"/>
<text text-anchor="middle" x="227" y="-7.5" font-family="FreeSans.ttf" font-size="10.00" fill="#000000">stdexcept</text>
</g>
<!-- Node2&#45;&gt;Node9 -->
<g id="edge9" class="edge">
<title>Node2&#45;&gt;Node9</title>
<path fill="none" stroke="#191970" d="M298.0199,-56.2455C284.8249,-47.6534 265.3949,-35.0014 250.1921,-25.1018"/>
<polygon fill="#191970" stroke="#191970" points="252.0983,-22.1665 241.8084,-19.6427 248.2785,-28.0325 252.0983,-22.1665"/>
</g>
<!-- Node10 -->
<g id="node11" class="node">
<title>Node10</title>
<polygon fill="none" stroke="#bfbfbf" points="277.5,-.5 277.5,-19.5 346.5,-19.5 346.5,-.5 277.5,-.5"/>
<text text-anchor="middle" x="312" y="-7.5" font-family="FreeSans.ttf" font-size="10.00" fill="#000000">type_traits</text>
</g>
<!-- Node2&#45;&gt;Node10 -->
<g id="edge10" class="edge">
<title>Node2&#45;&gt;Node10</title>
<path fill="none" stroke="#191970" d="M312.8258,-56.2455C312.6953,-48.9382 312.5124,-38.6944 312.3519,-29.7046"/>
<polygon fill="#191970" stroke="#191970" points="315.8503,-29.5786 312.1722,-19.6427 308.8514,-29.7036 315.8503,-29.5786"/>
</g>
<!-- Node11 -->
<g id="node12" class="node">
<title>Node11</title>
<polygon fill="none" stroke="#bfbfbf" points="364.5,-.5 364.5,-19.5 409.5,-19.5 409.5,-.5 364.5,-.5"/>
<text text-anchor="middle" x="387" y="-7.5" font-family="FreeSans.ttf" font-size="10.00" fill="#000000">utility</text>
</g>
<!-- Node2&#45;&gt;Node11 -->
<g id="edge11" class="edge">
<title>Node2&#45;&gt;Node11</title>
<path fill="none" stroke="#191970" d="M325.8898,-56.2455C336.9254,-47.8943 353.0292,-35.7076 365.9353,-25.9408"/>
<polygon fill="#191970" stroke="#191970" points="368.3959,-28.4681 374.2579,-19.6427 364.1717,-22.8862 368.3959,-28.4681"/>
</g>
<!-- Node14 -->
<g id="node15" class="node">
<title>Node14</title>
<polygon fill="none" stroke="#bfbfbf" points="510,-56.5 510,-75.5 568,-75.5 568,-56.5 510,-56.5"/>
<text text-anchor="middle" x="539" y="-63.5" font-family="FreeSans.ttf" font-size="10.00" fill="#000000">memory</text>
</g>
<!-- Node13&#45;&gt;Node14 -->
<g id="edge14" class="edge">
<title>Node13&#45;&gt;Node14</title>
<path fill="none" stroke="#191970" d="M600.1102,-112.2455C589.0746,-103.8943 572.9708,-91.7076 560.0647,-81.9408"/>
<polygon fill="#191970" stroke="#191970" points="561.8283,-78.8862 551.7421,-75.6427 557.6041,-84.4681 561.8283,-78.8862"/>
</g>
<!-- Node15 -->
<g id="node16" class="node">
<title>Node15</title>
<g id="a_node16"><a xlink:href="OptimizationProblem_8h.html" target="_top" xlink:title="iDynTree/OptimizationProblem.h">
<polygon fill="none" stroke="#000000" points="586.5,-56.5 586.5,-75.5 761.5,-75.5 761.5,-56.5 586.5,-56.5"/>
<text text-anchor="middle" x="674" y="-63.5" font-family="FreeSans.ttf" font-size="10.00" fill="#000000">iDynTree/OptimizationProblem.h</text>
</a>
</g>
</g>
<!-- Node13&#45;&gt;Node15 -->
<g id="edge15" class="edge">
<title>Node13&#45;&gt;Node15</title>
<path fill="none" stroke="#191970" d="M623.6254,-112.2455C632.5473,-104.0549 645.488,-92.1749 656.0192,-82.5069"/>
<polygon fill="#191970" stroke="#191970" points="658.4968,-84.9837 663.4964,-75.6427 653.7629,-79.8271 658.4968,-84.9837"/>
</g>
<!-- Node15&#45;&gt;Node6 -->
<g id="edge17" class="edge">
<title>Node15&#45;&gt;Node6</title>
<path fill="none" stroke="#191970" d="M662.3295,-56.2455C652.4339,-47.9746 638.0373,-35.9416 626.4099,-26.2232"/>
<polygon fill="#191970" stroke="#191970" points="628.4542,-23.3703 618.5368,-19.6427 623.965,-28.7413 628.4542,-23.3703"/>
</g>
<!-- Node16 -->
<g id="node17" class="node">
<title>Node16</title>
<polygon fill="none" stroke="#bfbfbf" points="651.5,-.5 651.5,-19.5 698.5,-19.5 698.5,-.5 651.5,-.5"/>
<text text-anchor="middle" x="675" y="-7.5" font-family="FreeSans.ttf" font-size="10.00" fill="#000000">vector</text>
</g>
<!-- Node15&#45;&gt;Node16 -->
<g id="edge16" class="edge">
<title>Node15&#45;&gt;Node16</title>
<path fill="none" stroke="#191970" d="M674.1742,-56.2455C674.3047,-48.9382 674.4876,-38.6944 674.6481,-29.7046"/>
<polygon fill="#191970" stroke="#191970" points="678.1486,-29.7036 674.8278,-19.6427 671.1497,-29.5786 678.1486,-29.7036"/>
</g>
<!-- Node17&#45;&gt;Node6 -->
<g id="edge19" class="edge">
<title>Node17&#45;&gt;Node6</title>
<path fill="none" stroke="#191970" d="M477.2772,-112.223C479.6025,-98.1057 485.7783,-71.9601 501,-56 511.1115,-45.398 544.1913,-31.9195 570.7384,-22.2982"/>
<polygon fill="#191970" stroke="#191970" points="571.922,-25.5921 580.1687,-18.9405 569.574,-18.9976 571.922,-25.5921"/>
</g>
</g>
</svg>
