<?xml version="1.0" encoding="UTF-8" standalone="no"?>
<!DOCTYPE svg PUBLIC "-//W3C//DTD SVG 1.1//EN"
 "http://www.w3.org/Graphics/SVG/1.1/DTD/svg11.dtd">
<!-- Generated by graphviz version 2.40.1 (20161225.0304)
 -->
<!-- Title: PositionRaw.h Pages: 1 -->
<svg width="708pt" height="196pt"
 viewBox="0.00 0.00 708.00 196.00" xmlns="http://www.w3.org/2000/svg" xmlns:xlink="http://www.w3.org/1999/xlink">
<g id="graph0" class="graph" transform="scale(1 1) rotate(0) translate(4 192)">
<title>PositionRaw.h</title>
<!-- Node0 -->
<g id="node1" class="node">
<title>Node0</title>
<polygon fill="#bfbfbf" stroke="#000000" points="486.5,-168.5 486.5,-187.5 571.5,-187.5 571.5,-168.5 486.5,-168.5"/>
<text text-anchor="middle" x="529" y="-175.5" font-family="FreeSans.ttf" font-size="10.00" fill="#000000">PositionRaw.h</text>
</g>
<!-- Node1 -->
<g id="node2" class="node">
<title>Node1</title>
<g id="a_node2"><a xlink:href="VectorFixSize_8h.html" target="_top" xlink:title="iDynTree/Core/VectorFixSize.h">
<polygon fill="none" stroke="#000000" points="394.5,-112.5 394.5,-131.5 555.5,-131.5 555.5,-112.5 394.5,-112.5"/>
<text text-anchor="middle" x="475" y="-119.5" font-family="FreeSans.ttf" font-size="10.00" fill="#000000">iDynTree/Core/VectorFixSize.h</text>
</a>
</g>
</g>
<!-- Node0&#45;&gt;Node1 -->
<g id="edge1" class="edge">
<title>Node0&#45;&gt;Node1</title>
<path fill="none" stroke="#191970" d="M519.5939,-168.2455C511.8507,-160.2155 500.688,-148.6394 491.4682,-139.0781"/>
<polygon fill="#191970" stroke="#191970" points="493.7591,-136.4117 484.2983,-131.6427 488.7202,-141.2706 493.7591,-136.4117"/>
</g>
<!-- Node13 -->
<g id="node14" class="node">
<title>Node13</title>
<polygon fill="none" stroke="#bfbfbf" points="656,-56.5 656,-75.5 700,-75.5 700,-56.5 656,-56.5"/>
<text text-anchor="middle" x="678" y="-63.5" font-family="FreeSans.ttf" font-size="10.00" fill="#000000">string</text>
</g>
<!-- Node0&#45;&gt;Node13 -->
<g id="edge18" class="edge">
<title>Node0&#45;&gt;Node13</title>
<path fill="none" stroke="#191970" d="M541.7037,-168.4509C567.4348,-149.1094 625.9211,-105.1465 657.2592,-81.5904"/>
<polygon fill="#191970" stroke="#191970" points="659.4379,-84.3313 665.3285,-75.5249 655.2319,-78.7358 659.4379,-84.3313"/>
</g>
<!-- Node2 -->
<g id="node3" class="node">
<title>Node2</title>
<g id="a_node3"><a xlink:href="Utils_8h.html" target="_top" xlink:title="iDynTree/Core/Utils.h">
<polygon fill="none" stroke="#000000" points="518.5,-56.5 518.5,-75.5 637.5,-75.5 637.5,-56.5 518.5,-56.5"/>
<text text-anchor="middle" x="578" y="-63.5" font-family="FreeSans.ttf" font-size="10.00" fill="#000000">iDynTree/Core/Utils.h</text>
</a>
</g>
</g>
<!-- Node1&#45;&gt;Node2 -->
<g id="edge2" class="edge">
<title>Node1&#45;&gt;Node2</title>
<path fill="none" stroke="#191970" d="M492.9412,-112.2455C509.04,-103.4928 532.8879,-90.527 551.2391,-80.5496"/>
<polygon fill="#191970" stroke="#191970" points="553.1507,-83.4942 560.2644,-75.6427 549.8071,-77.3444 553.1507,-83.4942"/>
</g>
<!-- Node4 -->
<g id="node5" class="node">
<title>Node4</title>
<g id="a_node5"><a xlink:href="Span_8h.html" target="_top" xlink:title="iDynTree/Core/Span.h">
<polygon fill="none" stroke="#000000" points="236.5,-56.5 236.5,-75.5 357.5,-75.5 357.5,-56.5 236.5,-56.5"/>
<text text-anchor="middle" x="297" y="-63.5" font-family="FreeSans.ttf" font-size="10.00" fill="#000000">iDynTree/Core/Span.h</text>
</a>
</g>
</g>
<!-- Node1&#45;&gt;Node4 -->
<g id="edge4" class="edge">
<title>Node1&#45;&gt;Node4</title>
<path fill="none" stroke="#191970" d="M444.4007,-112.3733C414.6739,-103.021 369.3841,-88.7725 336.8544,-78.5385"/>
<polygon fill="#191970" stroke="#191970" points="337.7895,-75.1636 327.2,-75.5011 335.6887,-81.8409 337.7895,-75.1636"/>
</g>
<!-- Node5 -->
<g id="node6" class="node">
<title>Node5</title>
<polygon fill="none" stroke="#bfbfbf" points="0,-.5 0,-19.5 52,-19.5 52,-.5 0,-.5"/>
<text text-anchor="middle" x="26" y="-7.5" font-family="FreeSans.ttf" font-size="10.00" fill="#000000">cassert</text>
</g>
<!-- Node1&#45;&gt;Node5 -->
<g id="edge16" class="edge">
<title>Node1&#45;&gt;Node5</title>
<path fill="none" stroke="#191970" d="M410.5139,-112.4682C360.1547,-104.4416 288.6223,-91.7566 227,-76 167.7887,-60.8599 100.6304,-37.5172 60.8725,-23.0319"/>
<polygon fill="#191970" stroke="#191970" points="61.9701,-19.7065 51.3764,-19.5503 59.5605,-26.2787 61.9701,-19.7065"/>
</g>
<!-- Node1&#45;&gt;Node13 -->
<g id="edge14" class="edge">
<title>Node1&#45;&gt;Node13</title>
<path fill="none" stroke="#191970" d="M512.7328,-112.4959C545.5678,-104.0949 594.6499,-91.2255 645.7827,-76.2639"/>
<polygon fill="#191970" stroke="#191970" points="647.0871,-79.5285 655.6909,-73.3457 645.1094,-72.8137 647.0871,-79.5285"/>
</g>
<!-- Node14 -->
<g id="node15" class="node">
<title>Node14</title>
<polygon fill="none" stroke="#bfbfbf" points="376,-56.5 376,-75.5 432,-75.5 432,-56.5 376,-56.5"/>
<text text-anchor="middle" x="404" y="-63.5" font-family="FreeSans.ttf" font-size="10.00" fill="#000000">sstream</text>
</g>
<!-- Node1&#45;&gt;Node14 -->
<g id="edge15" class="edge">
<title>Node1&#45;&gt;Node14</title>
<path fill="none" stroke="#191970" d="M462.6327,-112.2455C452.0446,-103.8943 436.5936,-91.7076 424.2107,-81.9408"/>
<polygon fill="#191970" stroke="#191970" points="426.2447,-79.0875 416.2255,-75.6427 421.9097,-84.5837 426.2447,-79.0875"/>
</g>
<!-- Node15 -->
<g id="node16" class="node">
<title>Node15</title>
<polygon fill="none" stroke="#bfbfbf" points="450,-56.5 450,-75.5 500,-75.5 500,-56.5 450,-56.5"/>
<text text-anchor="middle" x="475" y="-63.5" font-family="FreeSans.ttf" font-size="10.00" fill="#000000">cstring</text>
</g>
<!-- Node1&#45;&gt;Node15 -->
<g id="edge17" class="edge">
<title>Node1&#45;&gt;Node15</title>
<path fill="none" stroke="#191970" d="M475,-112.2455C475,-104.9382 475,-94.6944 475,-85.7046"/>
<polygon fill="#191970" stroke="#191970" points="478.5001,-85.6426 475,-75.6427 471.5001,-85.6427 478.5001,-85.6426"/>
</g>
<!-- Node3 -->
<g id="node4" class="node">
<title>Node3</title>
<polygon fill="none" stroke="#bfbfbf" points="580.5,-.5 580.5,-19.5 633.5,-19.5 633.5,-.5 580.5,-.5"/>
<text text-anchor="middle" x="607" y="-7.5" font-family="FreeSans.ttf" font-size="10.00" fill="#000000">cstddef</text>
</g>
<!-- Node2&#45;&gt;Node3 -->
<g id="edge3" class="edge">
<title>Node2&#45;&gt;Node3</title>
<path fill="none" stroke="#191970" d="M583.0514,-56.2455C587.0019,-48.617 592.6097,-37.7881 597.4058,-28.5267"/>
<polygon fill="#191970" stroke="#191970" points="600.5159,-30.1321 602.0065,-19.6427 594.2999,-26.9131 600.5159,-30.1321"/>
</g>
<!-- Node4&#45;&gt;Node3 -->
<g id="edge8" class="edge">
<title>Node4&#45;&gt;Node3</title>
<path fill="none" stroke="#191970" d="M357.5474,-56.5934C421.2444,-46.5715 518.2993,-30.9141 570.5189,-19.8815"/>
<polygon fill="#191970" stroke="#191970" points="571.317,-23.2898 580.3418,-17.7397 569.8257,-16.4504 571.317,-23.2898"/>
</g>
<!-- Node4&#45;&gt;Node5 -->
<g id="edge5" class="edge">
<title>Node4&#45;&gt;Node5</title>
<path fill="none" stroke="#191970" d="M240.9188,-56.4675C195.1676,-48.3733 128.6809,-35.8909 62.1268,-20.128"/>
<polygon fill="#191970" stroke="#191970" points="62.8493,-16.7022 52.3093,-17.7787 61.2201,-23.51 62.8493,-16.7022"/>
</g>
<!-- Node6 -->
<g id="node7" class="node">
<title>Node6</title>
<polygon fill="none" stroke="#bfbfbf" points="498,-.5 498,-19.5 562,-19.5 562,-.5 498,-.5"/>
<text text-anchor="middle" x="530" y="-7.5" font-family="FreeSans.ttf" font-size="10.00" fill="#000000">algorithm</text>
</g>
<!-- Node4&#45;&gt;Node6 -->
<g id="edge6" class="edge">
<title>Node4&#45;&gt;Node6</title>
<path fill="none" stroke="#191970" d="M336.7894,-56.4369C378.9046,-46.3148 445.0966,-30.406 488.0234,-20.0888"/>
<polygon fill="#191970" stroke="#191970" points="488.9695,-23.4612 497.8746,-17.7211 487.3336,-16.655 488.9695,-23.4612"/>
</g>
<!-- Node7 -->
<g id="node8" class="node">
<title>Node7</title>
<polygon fill="none" stroke="#bfbfbf" points="70,-.5 70,-19.5 112,-19.5 112,-.5 70,-.5"/>
<text text-anchor="middle" x="91" y="-7.5" font-family="FreeSans.ttf" font-size="10.00" fill="#000000">array</text>
</g>
<!-- Node4&#45;&gt;Node7 -->
<g id="edge7" class="edge">
<title>Node4&#45;&gt;Node7</title>
<path fill="none" stroke="#191970" d="M257.2992,-56.42C223.5896,-48.1081 173.7399,-35.4008 121.9414,-20.1526"/>
<polygon fill="#191970" stroke="#191970" points="122.8328,-16.7663 112.2503,-17.2763 120.8411,-23.477 122.8328,-16.7663"/>
</g>
<!-- Node8 -->
<g id="node9" class="node">
<title>Node8</title>
<polygon fill="none" stroke="#bfbfbf" points="130.5,-.5 130.5,-19.5 183.5,-19.5 183.5,-.5 130.5,-.5"/>
<text text-anchor="middle" x="157" y="-7.5" font-family="FreeSans.ttf" font-size="10.00" fill="#000000">iterator</text>
</g>
<!-- Node4&#45;&gt;Node8 -->
<g id="edge9" class="edge">
<title>Node4&#45;&gt;Node8</title>
<path fill="none" stroke="#191970" d="M272.9331,-56.3733C250.1572,-47.2629 215.7656,-33.5062 190.351,-23.3404"/>
<polygon fill="#191970" stroke="#191970" points="191.3375,-19.9654 180.7528,-19.5011 188.7377,-26.4648 191.3375,-19.9654"/>
</g>
<!-- Node9 -->
<g id="node10" class="node">
<title>Node9</title>
<polygon fill="none" stroke="#bfbfbf" points="202,-.5 202,-19.5 246,-19.5 246,-.5 202,-.5"/>
<text text-anchor="middle" x="224" y="-7.5" font-family="FreeSans.ttf" font-size="10.00" fill="#000000">limits</text>
</g>
<!-- Node4&#45;&gt;Node9 -->
<g id="edge10" class="edge">
<title>Node4&#45;&gt;Node9</title>
<path fill="none" stroke="#191970" d="M284.2844,-56.2455C273.398,-47.8943 257.5117,-35.7076 244.78,-25.9408"/>
<polygon fill="#191970" stroke="#191970" points="246.6346,-22.9523 236.5699,-19.6427 242.3739,-28.5063 246.6346,-22.9523"/>
</g>
<!-- Node10 -->
<g id="node11" class="node">
<title>Node10</title>
<polygon fill="none" stroke="#bfbfbf" points="264.5,-.5 264.5,-19.5 329.5,-19.5 329.5,-.5 264.5,-.5"/>
<text text-anchor="middle" x="297" y="-7.5" font-family="FreeSans.ttf" font-size="10.00" fill="#000000">stdexcept</text>
</g>
<!-- Node4&#45;&gt;Node10 -->
<g id="edge11" class="edge">
<title>Node4&#45;&gt;Node10</title>
<path fill="none" stroke="#191970" d="M297,-56.2455C297,-48.9382 297,-38.6944 297,-29.7046"/>
<polygon fill="#191970" stroke="#191970" points="300.5001,-29.6426 297,-19.6427 293.5001,-29.6427 300.5001,-29.6426"/>
</g>
<!-- Node11 -->
<g id="node12" class="node">
<title>Node11</title>
<polygon fill="none" stroke="#bfbfbf" points="347.5,-.5 347.5,-19.5 416.5,-19.5 416.5,-.5 347.5,-.5"/>
<text text-anchor="middle" x="382" y="-7.5" font-family="FreeSans.ttf" font-size="10.00" fill="#000000">type_traits</text>
</g>
<!-- Node4&#45;&gt;Node11 -->
<g id="edge12" class="edge">
<title>Node4&#45;&gt;Node11</title>
<path fill="none" stroke="#191970" d="M311.8059,-56.2455C324.7256,-47.7337 343.6931,-35.2375 358.6552,-25.3801"/>
<polygon fill="#191970" stroke="#191970" points="360.9387,-28.067 367.3638,-19.6427 357.0876,-22.2216 360.9387,-28.067"/>
</g>
<!-- Node12 -->
<g id="node13" class="node">
<title>Node12</title>
<polygon fill="none" stroke="#bfbfbf" points="434.5,-.5 434.5,-19.5 479.5,-19.5 479.5,-.5 434.5,-.5"/>
<text text-anchor="middle" x="457" y="-7.5" font-family="FreeSans.ttf" font-size="10.00" fill="#000000">utility</text>
</g>
<!-- Node4&#45;&gt;Node12 -->
<g id="edge13" class="edge">
<title>Node4&#45;&gt;Node12</title>
<path fill="none" stroke="#191970" d="M324.505,-56.3733C352.3188,-46.6384 395.2899,-31.5985 424.7051,-21.3032"/>
<polygon fill="#191970" stroke="#191970" points="426.2148,-24.4831 434.4972,-17.876 423.9023,-17.8761 426.2148,-24.4831"/>
</g>
</g>
</svg>
