<?xml version="1.0" encoding="UTF-8" standalone="no"?>
<!DOCTYPE svg PUBLIC "-//W3C//DTD SVG 1.1//EN"
 "http://www.w3.org/Graphics/SVG/1.1/DTD/svg11.dtd">
<!-- Generated by graphviz version 2.40.1 (20161225.0304)
 -->
<!-- Title: QuadraticCost.h Pages: 1 -->
<svg width="286pt" height="140pt"
 viewBox="0.00 0.00 286.00 140.00" xmlns="http://www.w3.org/2000/svg" xmlns:xlink="http://www.w3.org/1999/xlink">
<g id="graph0" class="graph" transform="scale(1 1) rotate(0) translate(4 136)">
<title>QuadraticCost.h</title>
<!-- Node0 -->
<g id="node1" class="node">
<title>Node0</title>
<polygon fill="#bfbfbf" stroke="#000000" points="73,-112.5 73,-131.5 168,-131.5 168,-112.5 73,-112.5"/>
<text text-anchor="middle" x="120.5" y="-119.5" font-family="FreeSans.ttf" font-size="10.00" fill="#000000">QuadraticCost.h</text>
</g>
<!-- Node1 -->
<g id="node2" class="node">
<title>Node1</title>
<g id="a_node2"><a xlink:href="Cost_8h.html" target="_top" xlink:title="iDynTree/Cost.h">
<polygon fill="none" stroke="#000000" points="0,-56.5 0,-75.5 93,-75.5 93,-56.5 0,-56.5"/>
<text text-anchor="middle" x="46.5" y="-63.5" font-family="FreeSans.ttf" font-size="10.00" fill="#000000">iDynTree/Cost.h</text>
</a>
</g>
</g>
<!-- Node0&#45;&gt;Node1 -->
<g id="edge1" class="edge">
<title>Node0&#45;&gt;Node1</title>
<path fill="none" stroke="#191970" d="M107.6102,-112.2455C96.5746,-103.8943 80.4708,-91.7076 67.5647,-81.9408"/>
<polygon fill="#191970" stroke="#191970" points="69.3283,-78.8862 59.2421,-75.6427 65.1041,-84.4681 69.3283,-78.8862"/>
</g>
<!-- Node3 -->
<g id="node4" class="node">
<title>Node3</title>
<g id="a_node4"><a xlink:href="MatrixDynSize_8h.html" target="_top" xlink:title="iDynTree/Core/MatrixDynSize.h">
<polygon fill="none" stroke="#000000" points="111,-56.5 111,-75.5 278,-75.5 278,-56.5 111,-56.5"/>
<text text-anchor="middle" x="194.5" y="-63.5" font-family="FreeSans.ttf" font-size="10.00" fill="#000000">iDynTree/Core/MatrixDynSize.h</text>
</a>
</g>
</g>
<!-- Node0&#45;&gt;Node3 -->
<g id="edge3" class="edge">
<title>Node0&#45;&gt;Node3</title>
<path fill="none" stroke="#191970" d="M133.3898,-112.2455C144.4254,-103.8943 160.5292,-91.7076 173.4353,-81.9408"/>
<polygon fill="#191970" stroke="#191970" points="175.8959,-84.4681 181.7579,-75.6427 171.6717,-78.8862 175.8959,-84.4681"/>
</g>
<!-- Node2 -->
<g id="node3" class="node">
<title>Node2</title>
<polygon fill="none" stroke="#bfbfbf" points="98.5,-.5 98.5,-19.5 142.5,-19.5 142.5,-.5 98.5,-.5"/>
<text text-anchor="middle" x="120.5" y="-7.5" font-family="FreeSans.ttf" font-size="10.00" fill="#000000">string</text>
</g>
<!-- Node1&#45;&gt;Node2 -->
<g id="edge2" class="edge">
<title>Node1&#45;&gt;Node2</title>
<path fill="none" stroke="#191970" d="M59.3898,-56.2455C70.4254,-47.8943 86.5292,-35.7076 99.4353,-25.9408"/>
<polygon fill="#191970" stroke="#191970" points="101.8959,-28.4681 107.7579,-19.6427 97.6717,-22.8862 101.8959,-28.4681"/>
</g>
<!-- Node3&#45;&gt;Node2 -->
<g id="edge4" class="edge">
<title>Node3&#45;&gt;Node2</title>
<path fill="none" stroke="#191970" d="M181.6102,-56.2455C170.5746,-47.8943 154.4708,-35.7076 141.5647,-25.9408"/>
<polygon fill="#191970" stroke="#191970" points="143.3283,-22.8862 133.2421,-19.6427 139.1041,-28.4681 143.3283,-22.8862"/>
</g>
</g>
</svg>
