<?xml version="1.0" encoding="UTF-8" standalone="no"?>
<!DOCTYPE svg PUBLIC "-//W3C//DTD SVG 1.1//EN"
 "http://www.w3.org/Graphics/SVG/1.1/DTD/svg11.dtd">
<!-- Generated by graphviz version 2.40.1 (20161225.0304)
 -->
<!-- Title: RevoluteJoint.h Pages: 1 -->
<svg width="771pt" height="140pt"
 viewBox="0.00 0.00 770.50 140.00" xmlns="http://www.w3.org/2000/svg" xmlns:xlink="http://www.w3.org/1999/xlink">
<g id="graph0" class="graph" transform="scale(1 1) rotate(0) translate(4 136)">
<title>RevoluteJoint.h</title>
<!-- Node40 -->
<g id="node1" class="node">
<title>Node40</title>
<polygon fill="#bfbfbf" stroke="#000000" points="350.5,-112.5 350.5,-131.5 440.5,-131.5 440.5,-112.5 350.5,-112.5"/>
<text text-anchor="middle" x="395.5" y="-119.5" font-family="FreeSans.ttf" font-size="10.00" fill="#000000">RevoluteJoint.h</text>
</g>
<!-- Node41 -->
<g id="node2" class="node">
<title>Node41</title>
<g id="a_node2"><a xlink:href="ModelTestUtils_8h.html" target="_top" xlink:title="ModelTestUtils.h">
<polygon fill="none" stroke="#000000" points="0,-56.5 0,-75.5 97,-75.5 97,-56.5 0,-56.5"/>
<text text-anchor="middle" x="48.5" y="-63.5" font-family="FreeSans.ttf" font-size="10.00" fill="#000000">ModelTestUtils.h</text>
</a>
</g>
</g>
<!-- Node40&#45;&gt;Node41 -->
<g id="edge1" class="edge">
<title>Node40&#45;&gt;Node41</title>
<path fill="none" stroke="#191970" d="M340.34,-113.4366C282.1587,-104.3535 187.8254,-89.4825 106.5,-76 103.4759,-75.4986 100.364,-74.9775 97.2265,-74.448"/>
<polygon fill="#191970" stroke="#191970" points="339.9983,-116.9256 350.4182,-115.0085 341.0771,-110.0092 339.9983,-116.9256"/>
</g>
<!-- Node43 -->
<g id="node4" class="node">
<title>Node43</title>
<g id="a_node4"><a xlink:href="DenavitHartenberg_8cpp.html" target="_top" xlink:title="DenavitHartenberg.cpp">
<polygon fill="none" stroke="#000000" points="115.5,-56.5 115.5,-75.5 245.5,-75.5 245.5,-56.5 115.5,-56.5"/>
<text text-anchor="middle" x="180.5" y="-63.5" font-family="FreeSans.ttf" font-size="10.00" fill="#000000">DenavitHartenberg.cpp</text>
</a>
</g>
</g>
<!-- Node40&#45;&gt;Node43 -->
<g id="edge3" class="edge">
<title>Node40&#45;&gt;Node43</title>
<path fill="none" stroke="#191970" d="M348.857,-109.8511C309.2936,-99.5462 253.3303,-84.9697 216.9775,-75.5011"/>
<polygon fill="#191970" stroke="#191970" points="347.9808,-113.2396 358.5402,-112.3733 349.7453,-106.4656 347.9808,-113.2396"/>
</g>
<!-- Node44 -->
<g id="node5" class="node">
<title>Node44</title>
<g id="a_node5"><a xlink:href="ModelTransformers_8cpp.html" target="_top" xlink:title="ModelTransformers.cpp">
<polygon fill="none" stroke="#000000" points="263.5,-56.5 263.5,-75.5 393.5,-75.5 393.5,-56.5 263.5,-56.5"/>
<text text-anchor="middle" x="328.5" y="-63.5" font-family="FreeSans.ttf" font-size="10.00" fill="#000000">ModelTransformers.cpp</text>
</a>
</g>
</g>
<!-- Node40&#45;&gt;Node44 -->
<g id="edge4" class="edge">
<title>Node40&#45;&gt;Node44</title>
<path fill="none" stroke="#191970" d="M375.9324,-105.645C364.2802,-95.9058 349.8916,-83.8795 340.0368,-75.6427"/>
<polygon fill="#191970" stroke="#191970" points="373.9121,-108.5179 383.8295,-112.2455 378.4012,-103.1469 373.9121,-108.5179"/>
</g>
<!-- Node45 -->
<g id="node6" class="node">
<title>Node45</title>
<g id="a_node6"><a xlink:href="RevoluteJoint_8cpp.html" target="_top" xlink:title="RevoluteJoint.cpp">
<polygon fill="none" stroke="#000000" points="412,-56.5 412,-75.5 513,-75.5 513,-56.5 412,-56.5"/>
<text text-anchor="middle" x="462.5" y="-63.5" font-family="FreeSans.ttf" font-size="10.00" fill="#000000">RevoluteJoint.cpp</text>
</a>
</g>
</g>
<!-- Node40&#45;&gt;Node45 -->
<g id="edge5" class="edge">
<title>Node40&#45;&gt;Node45</title>
<path fill="none" stroke="#191970" d="M415.0676,-105.645C426.7198,-95.9058 441.1084,-83.8795 450.9632,-75.6427"/>
<polygon fill="#191970" stroke="#191970" points="412.5988,-103.1469 407.1705,-112.2455 417.0879,-108.5179 412.5988,-103.1469"/>
</g>
<!-- Node46 -->
<g id="node7" class="node">
<title>Node46</title>
<g id="a_node7"><a xlink:href="JointElement_8cpp.html" target="_top" xlink:title="JointElement.cpp">
<polygon fill="none" stroke="#000000" points="531,-56.5 531,-75.5 630,-75.5 630,-56.5 531,-56.5"/>
<text text-anchor="middle" x="580.5" y="-63.5" font-family="FreeSans.ttf" font-size="10.00" fill="#000000">JointElement.cpp</text>
</a>
</g>
</g>
<!-- Node40&#45;&gt;Node46 -->
<g id="edge6" class="edge">
<title>Node40&#45;&gt;Node46</title>
<path fill="none" stroke="#191970" d="M436.9397,-109.4561C470.8991,-99.1765 518.2297,-84.8494 549.1124,-75.5011"/>
<polygon fill="#191970" stroke="#191970" points="435.8597,-106.1261 427.3026,-112.3733 437.8878,-112.8259 435.8597,-106.1261"/>
</g>
<!-- Node47 -->
<g id="node8" class="node">
<title>Node47</title>
<g id="a_node8"><a xlink:href="URDFDocument_8cpp.html" target="_top" xlink:title="URDFDocument.cpp">
<polygon fill="none" stroke="#000000" points="648.5,-56.5 648.5,-75.5 762.5,-75.5 762.5,-56.5 648.5,-56.5"/>
<text text-anchor="middle" x="705.5" y="-63.5" font-family="FreeSans.ttf" font-size="10.00" fill="#000000">URDFDocument.cpp</text>
</a>
</g>
</g>
<!-- Node40&#45;&gt;Node47 -->
<g id="edge7" class="edge">
<title>Node40&#45;&gt;Node47</title>
<path fill="none" stroke="#191970" d="M450.5202,-112.0609C507.7024,-101.7312 596.5531,-85.6807 652.8435,-75.5121"/>
<polygon fill="#191970" stroke="#191970" points="449.7952,-108.6351 440.5767,-113.8571 451.0396,-115.5236 449.7952,-108.6351"/>
</g>
<!-- Node42 -->
<g id="node3" class="node">
<title>Node42</title>
<g id="a_node3"><a xlink:href="urdf2dh_8cpp.html" target="_top" xlink:title="urdf2dh.cpp">
<polygon fill="none" stroke="#000000" points="11.5,-.5 11.5,-19.5 85.5,-19.5 85.5,-.5 11.5,-.5"/>
<text text-anchor="middle" x="48.5" y="-7.5" font-family="FreeSans.ttf" font-size="10.00" fill="#000000">urdf2dh.cpp</text>
</a>
</g>
</g>
<!-- Node41&#45;&gt;Node42 -->
<g id="edge2" class="edge">
<title>Node41&#45;&gt;Node42</title>
<path fill="none" stroke="#191970" d="M48.5,-46.1575C48.5,-37.155 48.5,-26.9199 48.5,-19.6427"/>
<polygon fill="#191970" stroke="#191970" points="45.0001,-46.2455 48.5,-56.2455 52.0001,-46.2456 45.0001,-46.2455"/>
</g>
</g>
</svg>
