<?xml version="1.0" encoding="UTF-8" standalone="no"?>
<!DOCTYPE svg PUBLIC "-//W3C//DTD SVG 1.1//EN"
 "http://www.w3.org/Graphics/SVG/1.1/DTD/svg11.dtd">
<!-- Generated by graphviz version 2.40.1 (20161225.0304)
 -->
<!-- Title: RK4.h Pages: 1 -->
<svg width="766pt" height="319pt"
 viewBox="0.00 0.00 766.00 319.00" xmlns="http://www.w3.org/2000/svg" xmlns:xlink="http://www.w3.org/1999/xlink">
<g id="graph0" class="graph" transform="scale(1 1) rotate(0) translate(4 315)">
<title>RK4.h</title>
<!-- Node0 -->
<g id="node1" class="node">
<title>Node0</title>
<polygon fill="#bfbfbf" stroke="#000000" points="437.5,-291.5 437.5,-310.5 482.5,-310.5 482.5,-291.5 437.5,-291.5"/>
<text text-anchor="middle" x="460" y="-298.5" font-family="FreeSans.ttf" font-size="10.00" fill="#000000">RK4.h</text>
</g>
<!-- Node1 -->
<g id="node2" class="node">
<title>Node1</title>
<g id="a_node2"><a xlink:href="FixedStepIntegrator_8h.html" target="_top" xlink:title="iDynTree/Integrators\l/FixedStepIntegrator.h">
<polygon fill="none" stroke="#000000" points="338.5,-224.5 338.5,-254.5 461.5,-254.5 461.5,-224.5 338.5,-224.5"/>
<text text-anchor="start" x="346.5" y="-242.5" font-family="FreeSans.ttf" font-size="10.00" fill="#000000">iDynTree/Integrators</text>
<text text-anchor="middle" x="400" y="-231.5" font-family="FreeSans.ttf" font-size="10.00" fill="#000000">/FixedStepIntegrator.h</text>
</a>
</g>
</g>
<!-- Node0&#45;&gt;Node1 -->
<g id="edge1" class="edge">
<title>Node0&#45;&gt;Node1</title>
<path fill="none" stroke="#191970" d="M450.625,-291.3906C442.9559,-283.5298 431.8013,-272.0964 421.9134,-261.9612"/>
<polygon fill="#191970" stroke="#191970" points="424.1662,-259.2583 414.6777,-254.5446 419.1557,-264.1466 424.1662,-259.2583"/>
</g>
<!-- Node3 -->
<g id="node4" class="node">
<title>Node3</title>
<g id="a_node4"><a xlink:href="VectorDynSize_8h.html" target="_top" xlink:title="iDynTree/Core/VectorDynSize.h">
<polygon fill="none" stroke="#000000" points="226.5,-112.5 226.5,-131.5 393.5,-131.5 393.5,-112.5 226.5,-112.5"/>
<text text-anchor="middle" x="310" y="-119.5" font-family="FreeSans.ttf" font-size="10.00" fill="#000000">iDynTree/Core/VectorDynSize.h</text>
</a>
</g>
</g>
<!-- Node0&#45;&gt;Node3 -->
<g id="edge23" class="edge">
<title>Node0&#45;&gt;Node3</title>
<path fill="none" stroke="#191970" d="M437.2569,-296.0055C403.5911,-288.1388 342.9584,-271.9988 329,-255 302.4605,-222.6797 303.7763,-170.3918 306.9473,-141.9601"/>
<polygon fill="#191970" stroke="#191970" points="310.4652,-142.0519 308.2957,-131.6815 303.5247,-141.1413 310.4652,-142.0519"/>
</g>
<!-- Node18 -->
<g id="node19" class="node">
<title>Node18</title>
<polygon fill="none" stroke="#bfbfbf" points="480,-230 480,-249 560,-249 560,-230 480,-230"/>
<text text-anchor="middle" x="520" y="-237" font-family="FreeSans.ttf" font-size="10.00" fill="#000000">Eigen/Sparse</text>
</g>
<!-- Node0&#45;&gt;Node18 -->
<g id="edge21" class="edge">
<title>Node0&#45;&gt;Node18</title>
<path fill="none" stroke="#191970" d="M469.375,-291.3906C478.4799,-282.0581 492.4974,-267.6902 503.4757,-256.4374"/>
<polygon fill="#191970" stroke="#191970" points="506.0148,-258.8468 510.4928,-249.2449 501.0043,-253.9586 506.0148,-258.8468"/>
</g>
<!-- Node19 -->
<g id="node20" class="node">
<title>Node19</title>
<polygon fill="none" stroke="#bfbfbf" points="578.5,-230 578.5,-249 655.5,-249 655.5,-230 578.5,-230"/>
<text text-anchor="middle" x="617" y="-237" font-family="FreeSans.ttf" font-size="10.00" fill="#000000">Eigen/Dense</text>
</g>
<!-- Node0&#45;&gt;Node19 -->
<g id="edge22" class="edge">
<title>Node0&#45;&gt;Node19</title>
<path fill="none" stroke="#191970" d="M482.8291,-292.0574C509.228,-281.7164 552.9326,-264.5965 583.2563,-252.7181"/>
<polygon fill="#191970" stroke="#191970" points="584.5581,-255.9672 592.5926,-249.0609 582.0049,-249.4494 584.5581,-255.9672"/>
</g>
<!-- Node2 -->
<g id="node3" class="node">
<title>Node2</title>
<g id="a_node3"><a xlink:href="Integrator_8h.html" target="_top" xlink:title="iDynTree/Integrator.h">
<polygon fill="none" stroke="#000000" points="490.5,-168.5 490.5,-187.5 609.5,-187.5 609.5,-168.5 490.5,-168.5"/>
<text text-anchor="middle" x="550" y="-175.5" font-family="FreeSans.ttf" font-size="10.00" fill="#000000">iDynTree/Integrator.h</text>
</a>
</g>
</g>
<!-- Node1&#45;&gt;Node2 -->
<g id="edge2" class="edge">
<title>Node1&#45;&gt;Node2</title>
<path fill="none" stroke="#191970" d="M436.6941,-224.4554C461.3927,-214.329 493.6674,-201.0964 517.4506,-191.3453"/>
<polygon fill="#191970" stroke="#191970" points="518.8306,-194.5623 526.7553,-187.5303 516.175,-188.0855 518.8306,-194.5623"/>
</g>
<!-- Node1&#45;&gt;Node3 -->
<g id="edge20" class="edge">
<title>Node1&#45;&gt;Node3</title>
<path fill="none" stroke="#191970" d="M388.2341,-224.1389C371.5768,-202.3919 341.1927,-162.7238 323.593,-139.7465"/>
<polygon fill="#191970" stroke="#191970" points="326.1815,-137.37 317.3222,-131.5595 320.6244,-141.6266 326.1815,-137.37"/>
</g>
<!-- Node2&#45;&gt;Node3 -->
<g id="edge3" class="edge">
<title>Node2&#45;&gt;Node3</title>
<path fill="none" stroke="#191970" d="M509.0152,-168.4369C468.0274,-158.8731 404.8996,-144.1432 360.7643,-133.845"/>
<polygon fill="#191970" stroke="#191970" points="361.3495,-130.3876 350.8157,-131.5237 359.7588,-137.2045 361.3495,-130.3876"/>
</g>
<!-- Node14 -->
<g id="node15" class="node">
<title>Node14</title>
<polygon fill="none" stroke="#bfbfbf" points="473,-56.5 473,-75.5 517,-75.5 517,-56.5 473,-56.5"/>
<text text-anchor="middle" x="495" y="-63.5" font-family="FreeSans.ttf" font-size="10.00" fill="#000000">string</text>
</g>
<!-- Node2&#45;&gt;Node14 -->
<g id="edge18" class="edge">
<title>Node2&#45;&gt;Node14</title>
<path fill="none" stroke="#191970" d="M562.4101,-168.484C577.7119,-155.5507 600.2766,-131.7686 588,-112 574.71,-90.5995 548.1857,-78.8528 526.8531,-72.599"/>
<polygon fill="#191970" stroke="#191970" points="527.7454,-69.2147 517.1815,-70.0245 525.9447,-75.9792 527.7454,-69.2147"/>
</g>
<!-- Node15 -->
<g id="node16" class="node">
<title>Node15</title>
<g id="a_node16"><a xlink:href="MatrixDynSize_8h.html" target="_top" xlink:title="iDynTree/Core/MatrixDynSize.h">
<polygon fill="none" stroke="#000000" points="411.5,-112.5 411.5,-131.5 578.5,-131.5 578.5,-112.5 411.5,-112.5"/>
<text text-anchor="middle" x="495" y="-119.5" font-family="FreeSans.ttf" font-size="10.00" fill="#000000">iDynTree/Core/MatrixDynSize.h</text>
</a>
</g>
</g>
<!-- Node2&#45;&gt;Node15 -->
<g id="edge15" class="edge">
<title>Node2&#45;&gt;Node15</title>
<path fill="none" stroke="#191970" d="M540.4197,-168.2455C532.4542,-160.1352 520.9359,-148.4075 511.4921,-138.7919"/>
<polygon fill="#191970" stroke="#191970" points="513.9747,-136.3247 504.4705,-131.6427 508.9805,-141.2297 513.9747,-136.3247"/>
</g>
<!-- Node16 -->
<g id="node17" class="node">
<title>Node16</title>
<polygon fill="none" stroke="#bfbfbf" points="634.5,-112.5 634.5,-131.5 681.5,-131.5 681.5,-112.5 634.5,-112.5"/>
<text text-anchor="middle" x="658" y="-119.5" font-family="FreeSans.ttf" font-size="10.00" fill="#000000">vector</text>
</g>
<!-- Node2&#45;&gt;Node16 -->
<g id="edge17" class="edge">
<title>Node2&#45;&gt;Node16</title>
<path fill="none" stroke="#191970" d="M568.8122,-168.2455C585.8473,-159.4125 611.1575,-146.2887 630.4681,-136.2758"/>
<polygon fill="#191970" stroke="#191970" points="632.137,-139.353 639.4034,-131.6427 628.9147,-133.1388 632.137,-139.353"/>
</g>
<!-- Node17 -->
<g id="node18" class="node">
<title>Node17</title>
<polygon fill="none" stroke="#bfbfbf" points="700,-112.5 700,-131.5 758,-131.5 758,-112.5 700,-112.5"/>
<text text-anchor="middle" x="729" y="-119.5" font-family="FreeSans.ttf" font-size="10.00" fill="#000000">memory</text>
</g>
<!-- Node2&#45;&gt;Node17 -->
<g id="edge19" class="edge">
<title>Node2&#45;&gt;Node17</title>
<path fill="none" stroke="#191970" d="M580.7712,-168.3733C611.0274,-158.9076 657.3157,-144.4264 690.1055,-134.1681"/>
<polygon fill="#191970" stroke="#191970" points="691.3168,-137.4565 699.8156,-131.1303 689.2267,-130.7758 691.3168,-137.4565"/>
</g>
<!-- Node4 -->
<g id="node5" class="node">
<title>Node4</title>
<g id="a_node5"><a xlink:href="Span_8h.html" target="_top" xlink:title="iDynTree/Core/Span.h">
<polygon fill="none" stroke="#000000" points="249.5,-56.5 249.5,-75.5 370.5,-75.5 370.5,-56.5 249.5,-56.5"/>
<text text-anchor="middle" x="310" y="-63.5" font-family="FreeSans.ttf" font-size="10.00" fill="#000000">iDynTree/Core/Span.h</text>
</a>
</g>
</g>
<!-- Node3&#45;&gt;Node4 -->
<g id="edge4" class="edge">
<title>Node3&#45;&gt;Node4</title>
<path fill="none" stroke="#191970" d="M310,-112.2455C310,-104.9382 310,-94.6944 310,-85.7046"/>
<polygon fill="#191970" stroke="#191970" points="313.5001,-85.6426 310,-75.6427 306.5001,-85.6427 313.5001,-85.6426"/>
</g>
<!-- Node3&#45;&gt;Node14 -->
<g id="edge14" class="edge">
<title>Node3&#45;&gt;Node14</title>
<path fill="none" stroke="#191970" d="M341.8026,-112.3733C375.6945,-102.1141 429.0503,-85.9631 463.0127,-75.6827"/>
<polygon fill="#191970" stroke="#191970" points="464.33,-78.9408 472.8871,-72.6936 462.3019,-72.241 464.33,-78.9408"/>
</g>
<!-- Node5 -->
<g id="node6" class="node">
<title>Node5</title>
<polygon fill="none" stroke="#bfbfbf" points="0,-.5 0,-19.5 52,-19.5 52,-.5 0,-.5"/>
<text text-anchor="middle" x="26" y="-7.5" font-family="FreeSans.ttf" font-size="10.00" fill="#000000">cassert</text>
</g>
<!-- Node4&#45;&gt;Node5 -->
<g id="edge5" class="edge">
<title>Node4&#45;&gt;Node5</title>
<path fill="none" stroke="#191970" d="M249.5394,-56.494C201.1809,-48.5115 131.4801,-36.1607 62.0896,-20.0978"/>
<polygon fill="#191970" stroke="#191970" points="62.8372,-16.6783 52.3027,-17.8067 61.2416,-23.494 62.8372,-16.6783"/>
</g>
<!-- Node6 -->
<g id="node7" class="node">
<title>Node6</title>
<polygon fill="none" stroke="#bfbfbf" points="70,-.5 70,-19.5 134,-19.5 134,-.5 70,-.5"/>
<text text-anchor="middle" x="102" y="-7.5" font-family="FreeSans.ttf" font-size="10.00" fill="#000000">algorithm</text>
</g>
<!-- Node4&#45;&gt;Node6 -->
<g id="edge6" class="edge">
<title>Node4&#45;&gt;Node6</title>
<path fill="none" stroke="#191970" d="M274.2435,-56.3733C238.0977,-46.6417 182.261,-31.6087 144.0223,-21.3137"/>
<polygon fill="#191970" stroke="#191970" points="144.7854,-17.8946 134.2193,-18.6744 142.9655,-24.6539 144.7854,-17.8946"/>
</g>
<!-- Node7 -->
<g id="node8" class="node">
<title>Node7</title>
<polygon fill="none" stroke="#bfbfbf" points="152,-.5 152,-19.5 194,-19.5 194,-.5 152,-.5"/>
<text text-anchor="middle" x="173" y="-7.5" font-family="FreeSans.ttf" font-size="10.00" fill="#000000">array</text>
</g>
<!-- Node4&#45;&gt;Node7 -->
<g id="edge7" class="edge">
<title>Node4&#45;&gt;Node7</title>
<path fill="none" stroke="#191970" d="M286.4489,-56.3733C263.4855,-46.9868 228.4562,-32.6682 203.4002,-22.4263"/>
<polygon fill="#191970" stroke="#191970" points="204.5817,-19.1282 194.0008,-18.5843 201.9331,-25.6078 204.5817,-19.1282"/>
</g>
<!-- Node8 -->
<g id="node9" class="node">
<title>Node8</title>
<polygon fill="none" stroke="#bfbfbf" points="212.5,-.5 212.5,-19.5 265.5,-19.5 265.5,-.5 212.5,-.5"/>
<text text-anchor="middle" x="239" y="-7.5" font-family="FreeSans.ttf" font-size="10.00" fill="#000000">cstddef</text>
</g>
<!-- Node4&#45;&gt;Node8 -->
<g id="edge8" class="edge">
<title>Node4&#45;&gt;Node8</title>
<path fill="none" stroke="#191970" d="M297.6327,-56.2455C287.0446,-47.8943 271.5936,-35.7076 259.2107,-25.9408"/>
<polygon fill="#191970" stroke="#191970" points="261.2447,-23.0875 251.2255,-19.6427 256.9097,-28.5837 261.2447,-23.0875"/>
</g>
<!-- Node9 -->
<g id="node10" class="node">
<title>Node9</title>
<polygon fill="none" stroke="#bfbfbf" points="283.5,-.5 283.5,-19.5 336.5,-19.5 336.5,-.5 283.5,-.5"/>
<text text-anchor="middle" x="310" y="-7.5" font-family="FreeSans.ttf" font-size="10.00" fill="#000000">iterator</text>
</g>
<!-- Node4&#45;&gt;Node9 -->
<g id="edge9" class="edge">
<title>Node4&#45;&gt;Node9</title>
<path fill="none" stroke="#191970" d="M310,-56.2455C310,-48.9382 310,-38.6944 310,-29.7046"/>
<polygon fill="#191970" stroke="#191970" points="313.5001,-29.6426 310,-19.6427 306.5001,-29.6427 313.5001,-29.6426"/>
</g>
<!-- Node10 -->
<g id="node11" class="node">
<title>Node10</title>
<polygon fill="none" stroke="#bfbfbf" points="355,-.5 355,-19.5 399,-19.5 399,-.5 355,-.5"/>
<text text-anchor="middle" x="377" y="-7.5" font-family="FreeSans.ttf" font-size="10.00" fill="#000000">limits</text>
</g>
<!-- Node4&#45;&gt;Node10 -->
<g id="edge10" class="edge">
<title>Node4&#45;&gt;Node10</title>
<path fill="none" stroke="#191970" d="M321.6705,-56.2455C331.5661,-47.9746 345.9627,-35.9416 357.5901,-26.2232"/>
<polygon fill="#191970" stroke="#191970" points="360.035,-28.7413 365.4632,-19.6427 355.5458,-23.3703 360.035,-28.7413"/>
</g>
<!-- Node11 -->
<g id="node12" class="node">
<title>Node11</title>
<polygon fill="none" stroke="#bfbfbf" points="417.5,-.5 417.5,-19.5 482.5,-19.5 482.5,-.5 417.5,-.5"/>
<text text-anchor="middle" x="450" y="-7.5" font-family="FreeSans.ttf" font-size="10.00" fill="#000000">stdexcept</text>
</g>
<!-- Node4&#45;&gt;Node11 -->
<g id="edge11" class="edge">
<title>Node4&#45;&gt;Node11</title>
<path fill="none" stroke="#191970" d="M334.0669,-56.3733C356.8428,-47.2629 391.2344,-33.5062 416.649,-23.3404"/>
<polygon fill="#191970" stroke="#191970" points="418.2623,-26.4648 426.2472,-19.5011 415.6625,-19.9654 418.2623,-26.4648"/>
</g>
<!-- Node12 -->
<g id="node13" class="node">
<title>Node12</title>
<polygon fill="none" stroke="#bfbfbf" points="500.5,-.5 500.5,-19.5 569.5,-19.5 569.5,-.5 500.5,-.5"/>
<text text-anchor="middle" x="535" y="-7.5" font-family="FreeSans.ttf" font-size="10.00" fill="#000000">type_traits</text>
</g>
<!-- Node4&#45;&gt;Node12 -->
<g id="edge12" class="edge">
<title>Node4&#45;&gt;Node12</title>
<path fill="none" stroke="#191970" d="M348.4232,-56.4369C387.8471,-46.6247 449.119,-31.3748 490.5948,-21.052"/>
<polygon fill="#191970" stroke="#191970" points="491.5685,-24.4165 500.4271,-18.6048 489.8778,-17.6237 491.5685,-24.4165"/>
</g>
<!-- Node13 -->
<g id="node14" class="node">
<title>Node13</title>
<polygon fill="none" stroke="#bfbfbf" points="587.5,-.5 587.5,-19.5 632.5,-19.5 632.5,-.5 587.5,-.5"/>
<text text-anchor="middle" x="610" y="-7.5" font-family="FreeSans.ttf" font-size="10.00" fill="#000000">utility</text>
</g>
<!-- Node4&#45;&gt;Node13 -->
<g id="edge13" class="edge">
<title>Node4&#45;&gt;Node13</title>
<path fill="none" stroke="#191970" d="M370.6026,-58.1578C423.2073,-50.7799 501.5095,-38.4308 577.6628,-20.0825"/>
<polygon fill="#191970" stroke="#191970" points="578.5384,-23.4716 587.42,-17.6952 576.8747,-16.6722 578.5384,-23.4716"/>
</g>
<!-- Node15&#45;&gt;Node14 -->
<g id="edge16" class="edge">
<title>Node15&#45;&gt;Node14</title>
<path fill="none" stroke="#191970" d="M495,-112.2455C495,-104.9382 495,-94.6944 495,-85.7046"/>
<polygon fill="#191970" stroke="#191970" points="498.5001,-85.6426 495,-75.6427 491.5001,-85.6427 498.5001,-85.6426"/>
</g>
</g>
</svg>
