<?xml version="1.0" encoding="UTF-8" standalone="no"?>
<!DOCTYPE svg PUBLIC "-//W3C//DTD SVG 1.1//EN"
 "http://www.w3.org/Graphics/SVG/1.1/DTD/svg11.dtd">
<!-- Generated by graphviz version 2.40.1 (20161225.0304)
 -->
<!-- Title: RobotElement.h Pages: 1 -->
<svg width="1537pt" height="532pt"
 viewBox="0.00 0.00 1536.50 532.00" xmlns="http://www.w3.org/2000/svg" xmlns:xlink="http://www.w3.org/1999/xlink">
<g id="graph0" class="graph" transform="scale(1 1) rotate(0) translate(4 528)">
<title>RobotElement.h</title>
<!-- Node0 -->
<g id="node1" class="node">
<title>Node0</title>
<polygon fill="#bfbfbf" stroke="#000000" points="446.5,-504.5 446.5,-523.5 540.5,-523.5 540.5,-504.5 446.5,-504.5"/>
<text text-anchor="middle" x="493.5" y="-511.5" font-family="FreeSans.ttf" font-size="10.00" fill="#000000">RobotElement.h</text>
</g>
<!-- Node1 -->
<g id="node2" class="node">
<title>Node1</title>
<g id="a_node2"><a xlink:href="XMLElement_8h.html" target="_top" xlink:title="iDynTree/XMLElement.h">
<polygon fill="none" stroke="#000000" points="412.5,-336.5 412.5,-355.5 544.5,-355.5 544.5,-336.5 412.5,-336.5"/>
<text text-anchor="middle" x="478.5" y="-343.5" font-family="FreeSans.ttf" font-size="10.00" fill="#000000">iDynTree/XMLElement.h</text>
</a>
</g>
</g>
<!-- Node0&#45;&gt;Node1 -->
<g id="edge1" class="edge">
<title>Node0&#45;&gt;Node1</title>
<path fill="none" stroke="#191970" d="M492.1461,-504.4603C489.6395,-486.4358 484.279,-446.1215 481.5,-412 480.2469,-396.6146 479.4823,-379.1658 479.0388,-366.0749"/>
<polygon fill="#191970" stroke="#191970" points="482.5304,-365.7427 478.7275,-355.8539 475.5336,-365.9559 482.5304,-365.7427"/>
</g>
<!-- Node5 -->
<g id="node6" class="node">
<title>Node5</title>
<polygon fill="none" stroke="#bfbfbf" points="301,-280.5 301,-299.5 394,-299.5 394,-280.5 301,-280.5"/>
<text text-anchor="middle" x="347.5" y="-287.5" font-family="FreeSans.ttf" font-size="10.00" fill="#000000">unordered_map</text>
</g>
<!-- Node0&#45;&gt;Node5 -->
<g id="edge81" class="edge">
<title>Node0&#45;&gt;Node5</title>
<path fill="none" stroke="#191970" d="M446.2367,-506.2273C395.5384,-495.0931 317.474,-469.2294 281.5,-412 272.6063,-397.8514 276.2685,-359.0512 289.5,-336 296.7907,-323.2986 309.0829,-312.7902 320.4794,-305.0393"/>
<polygon fill="#191970" stroke="#191970" points="322.37,-307.9848 328.9221,-299.6589 318.608,-302.0816 322.37,-307.9848"/>
</g>
<!-- Node6 -->
<g id="node7" class="node">
<title>Node6</title>
<polygon fill="none" stroke="#bfbfbf" points="1453,-280.5 1453,-299.5 1500,-299.5 1500,-280.5 1453,-280.5"/>
<text text-anchor="middle" x="1476.5" y="-287.5" font-family="FreeSans.ttf" font-size="10.00" fill="#000000">vector</text>
</g>
<!-- Node0&#45;&gt;Node6 -->
<g id="edge82" class="edge">
<title>Node0&#45;&gt;Node6</title>
<path fill="none" stroke="#191970" d="M540.5633,-510.2236C694.9791,-497.5348 1185.0112,-454.8196 1337.5,-412 1395.3291,-395.7613 1422.2336,-402.2989 1460.5,-356 1471.1683,-343.0923 1474.9239,-324.1915 1476.1534,-309.9209"/>
<polygon fill="#191970" stroke="#191970" points="1479.6622,-309.8386 1476.6816,-299.6717 1472.6714,-309.4783 1479.6622,-309.8386"/>
</g>
<!-- Node7 -->
<g id="node8" class="node">
<title>Node7</title>
<g id="a_node8"><a xlink:href="JointElement_8h.html" target="_top" xlink:title="JointElement.h">
<polygon fill="none" stroke="#000000" points="506.5,-392.5 506.5,-411.5 594.5,-411.5 594.5,-392.5 506.5,-392.5"/>
<text text-anchor="middle" x="550.5" y="-399.5" font-family="FreeSans.ttf" font-size="10.00" fill="#000000">JointElement.h</text>
</a>
</g>
</g>
<!-- Node0&#45;&gt;Node7 -->
<g id="edge7" class="edge">
<title>Node0&#45;&gt;Node7</title>
<path fill="none" stroke="#191970" d="M498.3598,-504.4509C507.7826,-485.936 528.6878,-444.8591 540.9735,-420.7187"/>
<polygon fill="#191970" stroke="#191970" points="544.2361,-422.0246 545.6525,-411.5249 537.9975,-418.8496 544.2361,-422.0246"/>
</g>
<!-- Node34 -->
<g id="node35" class="node">
<title>Node34</title>
<g id="a_node35"><a xlink:href="MaterialElement_8h.html" target="_top" xlink:title="MaterialElement.h">
<polygon fill="none" stroke="#000000" points="302.5,-392.5 302.5,-411.5 408.5,-411.5 408.5,-392.5 302.5,-392.5"/>
<text text-anchor="middle" x="355.5" y="-399.5" font-family="FreeSans.ttf" font-size="10.00" fill="#000000">MaterialElement.h</text>
</a>
</g>
</g>
<!-- Node0&#45;&gt;Node34 -->
<g id="edge63" class="edge">
<title>Node0&#45;&gt;Node34</title>
<path fill="none" stroke="#191970" d="M478.1439,-504.3805C464.2607,-495.4704 443.4599,-481.5831 426.5,-468 407.1738,-452.5217 386.6109,-433.0354 372.6161,-419.2602"/>
<polygon fill="#191970" stroke="#191970" points="374.7539,-416.4503 365.1941,-411.883 369.8192,-421.415 374.7539,-416.4503"/>
</g>
<!-- Node35 -->
<g id="node36" class="node">
<title>Node35</title>
<g id="a_node36"><a xlink:href="VisualElement_8h.html" target="_top" xlink:title="VisualElement.h">
<polygon fill="none" stroke="#000000" points="574.5,-448.5 574.5,-467.5 670.5,-467.5 670.5,-448.5 574.5,-448.5"/>
<text text-anchor="middle" x="622.5" y="-455.5" font-family="FreeSans.ttf" font-size="10.00" fill="#000000">VisualElement.h</text>
</a>
</g>
</g>
<!-- Node0&#45;&gt;Node35 -->
<g id="edge68" class="edge">
<title>Node0&#45;&gt;Node35</title>
<path fill="none" stroke="#191970" d="M515.6759,-504.3733C536.4766,-495.3435 567.7917,-481.7494 591.1458,-471.6111"/>
<polygon fill="#191970" stroke="#191970" points="592.8343,-474.6938 600.6135,-467.5011 590.0468,-468.2727 592.8343,-474.6938"/>
</g>
<!-- Node2 -->
<g id="node3" class="node">
<title>Node2</title>
<polygon fill="none" stroke="#bfbfbf" points="412,-280.5 412,-299.5 477,-299.5 477,-280.5 412,-280.5"/>
<text text-anchor="middle" x="444.5" y="-287.5" font-family="FreeSans.ttf" font-size="10.00" fill="#000000">functional</text>
</g>
<!-- Node1&#45;&gt;Node2 -->
<g id="edge2" class="edge">
<title>Node1&#45;&gt;Node2</title>
<path fill="none" stroke="#191970" d="M472.5777,-336.2455C467.8973,-328.5367 461.2327,-317.5598 455.5711,-308.2348"/>
<polygon fill="#191970" stroke="#191970" points="458.5361,-306.3741 450.3545,-299.6427 452.5525,-310.007 458.5361,-306.3741"/>
</g>
<!-- Node3 -->
<g id="node4" class="node">
<title>Node3</title>
<polygon fill="none" stroke="#bfbfbf" points="533.5,-280.5 533.5,-299.5 591.5,-299.5 591.5,-280.5 533.5,-280.5"/>
<text text-anchor="middle" x="562.5" y="-287.5" font-family="FreeSans.ttf" font-size="10.00" fill="#000000">memory</text>
</g>
<!-- Node1&#45;&gt;Node3 -->
<g id="edge3" class="edge">
<title>Node1&#45;&gt;Node3</title>
<path fill="none" stroke="#191970" d="M493.1317,-336.2455C505.8994,-327.7337 524.6438,-315.2375 539.4299,-305.3801"/>
<polygon fill="#191970" stroke="#191970" points="541.6569,-308.1019 548.036,-299.6427 537.774,-302.2775 541.6569,-308.1019"/>
</g>
<!-- Node4 -->
<g id="node5" class="node">
<title>Node4</title>
<polygon fill="none" stroke="#bfbfbf" points="882.5,-56.5 882.5,-75.5 926.5,-75.5 926.5,-56.5 882.5,-56.5"/>
<text text-anchor="middle" x="904.5" y="-63.5" font-family="FreeSans.ttf" font-size="10.00" fill="#000000">string</text>
</g>
<!-- Node1&#45;&gt;Node4 -->
<g id="edge4" class="edge">
<title>Node1&#45;&gt;Node4</title>
<path fill="none" stroke="#191970" d="M484.0701,-336.4927C492.1111,-323.1552 507.844,-298.4565 524.5,-280 601.141,-195.0743 617.8968,-164.5644 719.5,-112 769.2077,-86.2837 833.9674,-74.4702 872.2048,-69.4132"/>
<polygon fill="#191970" stroke="#191970" points="872.7619,-72.8709 882.2518,-68.1601 871.8955,-65.9247 872.7619,-72.8709"/>
</g>
<!-- Node1&#45;&gt;Node5 -->
<g id="edge5" class="edge">
<title>Node1&#45;&gt;Node5</title>
<path fill="none" stroke="#191970" d="M455.9803,-336.3733C434.7628,-327.3032 402.7724,-313.6279 379.0231,-303.4755"/>
<polygon fill="#191970" stroke="#191970" points="380.2967,-300.2136 369.7258,-299.5011 377.5452,-306.6502 380.2967,-300.2136"/>
</g>
<!-- Node1&#45;&gt;Node6 -->
<g id="edge6" class="edge">
<title>Node1&#45;&gt;Node6</title>
<path fill="none" stroke="#191970" d="M544.6415,-341.4491C571.0349,-339.6777 601.7014,-337.6753 629.5,-336 945.6389,-316.9479 1328.3771,-297.4423 1442.7018,-291.6911"/>
<polygon fill="#191970" stroke="#191970" points="1443.1046,-295.1754 1452.9164,-291.178 1442.7533,-288.1842 1443.1046,-295.1754"/>
</g>
<!-- Node7&#45;&gt;Node1 -->
<g id="edge8" class="edge">
<title>Node7&#45;&gt;Node1</title>
<path fill="none" stroke="#191970" d="M537.9586,-392.2455C527.2213,-383.8943 511.5527,-371.7076 498.9953,-361.9408"/>
<polygon fill="#191970" stroke="#191970" points="500.9401,-359.0194 490.8977,-355.6427 496.6425,-364.5449 500.9401,-359.0194"/>
</g>
<!-- Node7&#45;&gt;Node3 -->
<g id="edge60" class="edge">
<title>Node7&#45;&gt;Node3</title>
<path fill="none" stroke="#191970" d="M551.5231,-392.4509C553.4803,-374.184 557.7905,-333.9553 560.3895,-309.6976"/>
<polygon fill="#191970" stroke="#191970" points="563.8941,-309.8409 561.4795,-299.5249 556.934,-309.0951 563.8941,-309.8409"/>
</g>
<!-- Node7&#45;&gt;Node4 -->
<g id="edge61" class="edge">
<title>Node7&#45;&gt;Node4</title>
<path fill="none" stroke="#191970" d="M594.5225,-398.3518C650.43,-392.7781 742.4277,-380.1498 765.5,-356 806.5855,-312.9958 754.0273,-273.1626 787.5,-224 805.002,-198.2942 826.6752,-211.0963 847.5,-188 875.0333,-157.4634 891.6384,-111.3026 899.3355,-85.3985"/>
<polygon fill="#191970" stroke="#191970" points="902.7414,-86.2166 902.0948,-75.6415 896.0055,-84.3116 902.7414,-86.2166"/>
</g>
<!-- Node7&#45;&gt;Node5 -->
<g id="edge62" class="edge">
<title>Node7&#45;&gt;Node5</title>
<path fill="none" stroke="#191970" d="M506.1982,-394.8937C475.4524,-388.4142 434.5961,-376.6063 403.5,-356 384.7984,-343.6071 368.8638,-323.2217 358.8294,-308.3811"/>
<polygon fill="#191970" stroke="#191970" points="361.4938,-306.0568 353.1176,-299.5691 355.6198,-309.8642 361.4938,-306.0568"/>
</g>
<!-- Node8 -->
<g id="node9" class="node">
<title>Node8</title>
<g id="a_node9"><a xlink:href="Axis_8h.html" target="_top" xlink:title="iDynTree/Core/Axis.h">
<polygon fill="none" stroke="#000000" points="638.5,-336.5 638.5,-355.5 756.5,-355.5 756.5,-336.5 638.5,-336.5"/>
<text text-anchor="middle" x="697.5" y="-343.5" font-family="FreeSans.ttf" font-size="10.00" fill="#000000">iDynTree/Core/Axis.h</text>
</a>
</g>
</g>
<!-- Node7&#45;&gt;Node8 -->
<g id="edge9" class="edge">
<title>Node7&#45;&gt;Node8</title>
<path fill="none" stroke="#191970" d="M575.7702,-392.3733C599.8966,-383.1822 636.4362,-369.2624 663.1877,-359.0713"/>
<polygon fill="#191970" stroke="#191970" points="664.4607,-362.3318 672.5596,-355.5011 661.9687,-355.7904 664.4607,-362.3318"/>
</g>
<!-- Node32 -->
<g id="node33" class="node">
<title>Node32</title>
<g id="a_node33"><a xlink:href="Transform_8h.html" target="_top" xlink:title="iDynTree/Core/Transform.h">
<polygon fill="none" stroke="#000000" points="925.5,-336.5 925.5,-355.5 1071.5,-355.5 1071.5,-336.5 925.5,-336.5"/>
<text text-anchor="middle" x="998.5" y="-343.5" font-family="FreeSans.ttf" font-size="10.00" fill="#000000">iDynTree/Core/Transform.h</text>
</a>
</g>
</g>
<!-- Node7&#45;&gt;Node32 -->
<g id="edge53" class="edge">
<title>Node7&#45;&gt;Node32</title>
<path fill="none" stroke="#191970" d="M594.682,-396.4772C669.015,-387.1856 820.2407,-368.2824 915.0662,-356.4292"/>
<polygon fill="#191970" stroke="#191970" points="915.712,-359.8758 925.2006,-355.1624 914.8437,-352.9299 915.712,-359.8758"/>
</g>
<!-- Node8&#45;&gt;Node4 -->
<g id="edge10" class="edge">
<title>Node8&#45;&gt;Node4</title>
<path fill="none" stroke="#191970" d="M691.991,-336.1381C676.8027,-307.4952 637.7512,-222.864 673.5,-168 696.4727,-132.7436 814.8929,-93.0053 872.6904,-75.3333"/>
<polygon fill="#191970" stroke="#191970" points="873.8524,-78.6385 882.4117,-72.3945 871.8267,-71.938 873.8524,-78.6385"/>
</g>
<!-- Node9 -->
<g id="node10" class="node">
<title>Node9</title>
<g id="a_node10"><a xlink:href="Direction_8h.html" target="_top" xlink:title="iDynTree/Core/Direction.h">
<polygon fill="none" stroke="#000000" points="322,-168.5 322,-187.5 463,-187.5 463,-168.5 322,-168.5"/>
<text text-anchor="middle" x="392.5" y="-175.5" font-family="FreeSans.ttf" font-size="10.00" fill="#000000">iDynTree/Core/Direction.h</text>
</a>
</g>
</g>
<!-- Node8&#45;&gt;Node9 -->
<g id="edge11" class="edge">
<title>Node8&#45;&gt;Node9</title>
<path fill="none" stroke="#191970" d="M690.1942,-336.2959C679.2138,-322.2693 657.2022,-296.2357 633.5,-280 570.4232,-236.7932 486.1355,-206.3154 435.7787,-190.5017"/>
<polygon fill="#191970" stroke="#191970" points="436.7637,-187.1428 426.1761,-187.535 434.6974,-193.8309 436.7637,-187.1428"/>
</g>
<!-- Node11 -->
<g id="node12" class="node">
<title>Node11</title>
<g id="a_node12"><a xlink:href="Utils_8h.html" target="_top" xlink:title="iDynTree/Core/Utils.h">
<polygon fill="none" stroke="#000000" points="121,-56.5 121,-75.5 240,-75.5 240,-56.5 121,-56.5"/>
<text text-anchor="middle" x="180.5" y="-63.5" font-family="FreeSans.ttf" font-size="10.00" fill="#000000">iDynTree/Core/Utils.h</text>
</a>
</g>
</g>
<!-- Node8&#45;&gt;Node11 -->
<g id="edge52" class="edge">
<title>Node8&#45;&gt;Node11</title>
<path fill="none" stroke="#191970" d="M684.2473,-336.2786C661.957,-320.049 617.7128,-288.3855 600.5,-280 479.7001,-221.1503 434.4769,-244.3697 312.5,-188 269.7347,-168.2367 255.9809,-165.1434 222.5,-132 208.6747,-118.3141 197.1721,-99.2816 189.721,-85.1699"/>
<polygon fill="#191970" stroke="#191970" points="192.6739,-83.2536 185.0362,-75.9108 186.4279,-86.4139 192.6739,-83.2536"/>
</g>
<!-- Node24 -->
<g id="node25" class="node">
<title>Node24</title>
<g id="a_node25"><a xlink:href="Position_8h.html" target="_top" xlink:title="iDynTree/Core/Position.h">
<polygon fill="none" stroke="#000000" points="882.5,-280.5 882.5,-299.5 1018.5,-299.5 1018.5,-280.5 882.5,-280.5"/>
<text text-anchor="middle" x="950.5" y="-287.5" font-family="FreeSans.ttf" font-size="10.00" fill="#000000">iDynTree/Core/Position.h</text>
</a>
</g>
</g>
<!-- Node8&#45;&gt;Node24 -->
<g id="edge31" class="edge">
<title>Node8&#45;&gt;Node24</title>
<path fill="none" stroke="#191970" d="M740.7048,-336.4369C784.0947,-326.8328 851.0209,-312.0191 897.5726,-301.7152"/>
<polygon fill="#191970" stroke="#191970" points="898.4662,-305.1022 907.4734,-299.5237 896.9533,-298.2676 898.4662,-305.1022"/>
</g>
<!-- Node9&#45;&gt;Node4 -->
<g id="edge12" class="edge">
<title>Node9&#45;&gt;Node4</title>
<path fill="none" stroke="#191970" d="M456.4741,-168.4459C500.4665,-160.9239 559.8584,-148.8752 610.5,-132 630.4962,-125.3367 633.4166,-118.3957 653.5,-112 729.8318,-87.6915 823.5601,-74.7729 872.0254,-69.2819"/>
<polygon fill="#191970" stroke="#191970" points="872.6601,-72.7333 882.2179,-68.1618 871.8954,-65.7752 872.6601,-72.7333"/>
</g>
<!-- Node10 -->
<g id="node11" class="node">
<title>Node10</title>
<g id="a_node11"><a xlink:href="VectorFixSize_8h.html" target="_top" xlink:title="iDynTree/Core/VectorFixSize.h">
<polygon fill="none" stroke="#000000" points="261,-112.5 261,-131.5 422,-131.5 422,-112.5 261,-112.5"/>
<text text-anchor="middle" x="341.5" y="-119.5" font-family="FreeSans.ttf" font-size="10.00" fill="#000000">iDynTree/Core/VectorFixSize.h</text>
</a>
</g>
</g>
<!-- Node9&#45;&gt;Node10 -->
<g id="edge13" class="edge">
<title>Node9&#45;&gt;Node10</title>
<path fill="none" stroke="#191970" d="M383.6165,-168.2455C376.3034,-160.2155 365.7609,-148.6394 357.0533,-139.0781"/>
<polygon fill="#191970" stroke="#191970" points="359.6028,-136.6795 350.2817,-131.6427 354.4273,-141.3928 359.6028,-136.6795"/>
</g>
<!-- Node9&#45;&gt;Node11 -->
<g id="edge30" class="edge">
<title>Node9&#45;&gt;Node11</title>
<path fill="none" stroke="#191970" d="M346.8892,-168.4622C318.1932,-161.201 281.1217,-149.4409 251.5,-132 229.6784,-119.1516 208.9804,-98.6059 195.6239,-83.85"/>
<polygon fill="#191970" stroke="#191970" points="197.8896,-81.1268 188.6552,-75.933 192.6352,-85.7519 197.8896,-81.1268"/>
</g>
<!-- Node10&#45;&gt;Node4 -->
<g id="edge26" class="edge">
<title>Node10&#45;&gt;Node4</title>
<path fill="none" stroke="#191970" d="M422.4474,-112.9529C425.5034,-112.6281 428.5291,-112.3095 431.5,-112 597.2632,-94.7314 795.9288,-76.0744 872.3666,-68.9718"/>
<polygon fill="#191970" stroke="#191970" points="872.6912,-72.4568 882.3249,-68.0476 872.0443,-65.4868 872.6912,-72.4568"/>
</g>
<!-- Node10&#45;&gt;Node11 -->
<g id="edge14" class="edge">
<title>Node10&#45;&gt;Node11</title>
<path fill="none" stroke="#191970" d="M313.8231,-112.3733C287.1672,-103.1016 246.6762,-89.0178 217.3116,-78.804"/>
<polygon fill="#191970" stroke="#191970" points="218.4105,-75.4807 207.8157,-75.5011 216.1109,-82.0921 218.4105,-75.4807"/>
</g>
<!-- Node13 -->
<g id="node14" class="node">
<title>Node13</title>
<g id="a_node14"><a xlink:href="Span_8h.html" target="_top" xlink:title="iDynTree/Core/Span.h">
<polygon fill="none" stroke="#000000" points="258,-56.5 258,-75.5 379,-75.5 379,-56.5 258,-56.5"/>
<text text-anchor="middle" x="318.5" y="-63.5" font-family="FreeSans.ttf" font-size="10.00" fill="#000000">iDynTree/Core/Span.h</text>
</a>
</g>
</g>
<!-- Node10&#45;&gt;Node13 -->
<g id="edge16" class="edge">
<title>Node10&#45;&gt;Node13</title>
<path fill="none" stroke="#191970" d="M337.4937,-112.2455C334.4265,-104.7776 330.0997,-94.2427 326.3503,-85.1137"/>
<polygon fill="#191970" stroke="#191970" points="329.4972,-83.5631 322.4604,-75.6427 323.0221,-86.2226 329.4972,-83.5631"/>
</g>
<!-- Node14 -->
<g id="node15" class="node">
<title>Node14</title>
<polygon fill="none" stroke="#bfbfbf" points="581.5,-.5 581.5,-19.5 633.5,-19.5 633.5,-.5 581.5,-.5"/>
<text text-anchor="middle" x="607.5" y="-7.5" font-family="FreeSans.ttf" font-size="10.00" fill="#000000">cassert</text>
</g>
<!-- Node10&#45;&gt;Node14 -->
<g id="edge28" class="edge">
<title>Node10&#45;&gt;Node14</title>
<path fill="none" stroke="#191970" d="M351.0296,-112.359C365.8456,-97.9267 395.8964,-70.8206 426.5,-56 483.8307,-28.2361 505.8354,-36.3029 571.189,-20.1974"/>
<polygon fill="#191970" stroke="#191970" points="572.3398,-23.5155 581.1552,-17.6386 570.599,-16.7354 572.3398,-23.5155"/>
</g>
<!-- Node22 -->
<g id="node23" class="node">
<title>Node22</title>
<polygon fill="none" stroke="#bfbfbf" points="435.5,-56.5 435.5,-75.5 491.5,-75.5 491.5,-56.5 435.5,-56.5"/>
<text text-anchor="middle" x="463.5" y="-63.5" font-family="FreeSans.ttf" font-size="10.00" fill="#000000">sstream</text>
</g>
<!-- Node10&#45;&gt;Node22 -->
<g id="edge27" class="edge">
<title>Node10&#45;&gt;Node22</title>
<path fill="none" stroke="#191970" d="M362.4725,-112.3733C382.0567,-103.3838 411.4961,-89.8706 433.551,-79.7471"/>
<polygon fill="#191970" stroke="#191970" points="435.1729,-82.8538 442.8011,-75.5011 432.2527,-76.4919 435.1729,-82.8538"/>
</g>
<!-- Node23 -->
<g id="node24" class="node">
<title>Node23</title>
<polygon fill="none" stroke="#bfbfbf" points="509.5,-56.5 509.5,-75.5 559.5,-75.5 559.5,-56.5 509.5,-56.5"/>
<text text-anchor="middle" x="534.5" y="-63.5" font-family="FreeSans.ttf" font-size="10.00" fill="#000000">cstring</text>
</g>
<!-- Node10&#45;&gt;Node23 -->
<g id="edge29" class="edge">
<title>Node10&#45;&gt;Node23</title>
<path fill="none" stroke="#191970" d="M374.7062,-112.4395C404.8704,-103.7447 450.8505,-90.4654 499.4926,-76.286"/>
<polygon fill="#191970" stroke="#191970" points="500.6328,-79.5994 509.2527,-73.4392 498.6726,-72.8794 500.6328,-79.5994"/>
</g>
<!-- Node12 -->
<g id="node13" class="node">
<title>Node12</title>
<polygon fill="none" stroke="#bfbfbf" points="0,-.5 0,-19.5 53,-19.5 53,-.5 0,-.5"/>
<text text-anchor="middle" x="26.5" y="-7.5" font-family="FreeSans.ttf" font-size="10.00" fill="#000000">cstddef</text>
</g>
<!-- Node11&#45;&gt;Node12 -->
<g id="edge15" class="edge">
<title>Node11&#45;&gt;Node12</title>
<path fill="none" stroke="#191970" d="M154.0265,-56.3733C128.6403,-47.1419 90.1355,-33.1402 62.078,-22.9375"/>
<polygon fill="#191970" stroke="#191970" points="63.2222,-19.6293 52.6281,-19.5011 60.8299,-26.2079 63.2222,-19.6293"/>
</g>
<!-- Node13&#45;&gt;Node12 -->
<g id="edge20" class="edge">
<title>Node13&#45;&gt;Node12</title>
<path fill="none" stroke="#191970" d="M257.9196,-56.7475C208.0805,-48.7634 135.4359,-36.276 62.9292,-19.9302"/>
<polygon fill="#191970" stroke="#191970" points="63.6937,-16.5147 53.1659,-17.7052 62.1382,-23.3397 63.6937,-16.5147"/>
</g>
<!-- Node13&#45;&gt;Node14 -->
<g id="edge17" class="edge">
<title>Node13&#45;&gt;Node14</title>
<path fill="none" stroke="#191970" d="M379.1475,-56.7523C428.5032,-48.8315 500.1325,-36.4426 571.1807,-20.1427"/>
<polygon fill="#191970" stroke="#191970" points="572.2502,-23.4876 581.1997,-17.8168 570.6672,-16.6689 572.2502,-23.4876"/>
</g>
<!-- Node15 -->
<g id="node16" class="node">
<title>Node15</title>
<polygon fill="none" stroke="#bfbfbf" points="499.5,-.5 499.5,-19.5 563.5,-19.5 563.5,-.5 499.5,-.5"/>
<text text-anchor="middle" x="531.5" y="-7.5" font-family="FreeSans.ttf" font-size="10.00" fill="#000000">algorithm</text>
</g>
<!-- Node13&#45;&gt;Node15 -->
<g id="edge18" class="edge">
<title>Node13&#45;&gt;Node15</title>
<path fill="none" stroke="#191970" d="M355.116,-56.3733C392.4283,-46.5635 450.2304,-31.3667 489.4085,-21.0663"/>
<polygon fill="#191970" stroke="#191970" points="490.4092,-24.4222 499.1906,-18.4945 488.6293,-17.6523 490.4092,-24.4222"/>
</g>
<!-- Node16 -->
<g id="node17" class="node">
<title>Node16</title>
<polygon fill="none" stroke="#bfbfbf" points="71.5,-.5 71.5,-19.5 113.5,-19.5 113.5,-.5 71.5,-.5"/>
<text text-anchor="middle" x="92.5" y="-7.5" font-family="FreeSans.ttf" font-size="10.00" fill="#000000">array</text>
</g>
<!-- Node13&#45;&gt;Node16 -->
<g id="edge19" class="edge">
<title>Node13&#45;&gt;Node16</title>
<path fill="none" stroke="#191970" d="M272.6528,-56.4798C234.92,-48.3662 179.8737,-35.8946 123.5211,-20.1148"/>
<polygon fill="#191970" stroke="#191970" points="124.3062,-16.6995 113.7309,-17.3431 122.3993,-23.4348 124.3062,-16.6995"/>
</g>
<!-- Node17 -->
<g id="node18" class="node">
<title>Node17</title>
<polygon fill="none" stroke="#bfbfbf" points="132,-.5 132,-19.5 185,-19.5 185,-.5 132,-.5"/>
<text text-anchor="middle" x="158.5" y="-7.5" font-family="FreeSans.ttf" font-size="10.00" fill="#000000">iterator</text>
</g>
<!-- Node13&#45;&gt;Node17 -->
<g id="edge21" class="edge">
<title>Node13&#45;&gt;Node17</title>
<path fill="none" stroke="#191970" d="M290.995,-56.3733C264.3441,-47.0454 223.777,-32.8469 194.5536,-22.6188"/>
<polygon fill="#191970" stroke="#191970" points="195.7092,-19.3151 185.1144,-19.315 193.3967,-25.9221 195.7092,-19.3151"/>
</g>
<!-- Node18 -->
<g id="node19" class="node">
<title>Node18</title>
<polygon fill="none" stroke="#bfbfbf" points="203.5,-.5 203.5,-19.5 247.5,-19.5 247.5,-.5 203.5,-.5"/>
<text text-anchor="middle" x="225.5" y="-7.5" font-family="FreeSans.ttf" font-size="10.00" fill="#000000">limits</text>
</g>
<!-- Node13&#45;&gt;Node18 -->
<g id="edge22" class="edge">
<title>Node13&#45;&gt;Node18</title>
<path fill="none" stroke="#191970" d="M302.3006,-56.2455C287.8982,-47.5731 266.6268,-34.7645 250.1201,-24.825"/>
<polygon fill="#191970" stroke="#191970" points="251.886,-21.8028 241.5137,-19.6427 248.275,-27.7996 251.886,-21.8028"/>
</g>
<!-- Node19 -->
<g id="node20" class="node">
<title>Node19</title>
<polygon fill="none" stroke="#bfbfbf" points="266,-.5 266,-19.5 331,-19.5 331,-.5 266,-.5"/>
<text text-anchor="middle" x="298.5" y="-7.5" font-family="FreeSans.ttf" font-size="10.00" fill="#000000">stdexcept</text>
</g>
<!-- Node13&#45;&gt;Node19 -->
<g id="edge23" class="edge">
<title>Node13&#45;&gt;Node19</title>
<path fill="none" stroke="#191970" d="M315.0163,-56.2455C312.3492,-48.7776 308.5867,-38.2427 305.3263,-29.1137"/>
<polygon fill="#191970" stroke="#191970" points="308.6033,-27.8829 301.9438,-19.6427 302.0111,-30.2373 308.6033,-27.8829"/>
</g>
<!-- Node20 -->
<g id="node21" class="node">
<title>Node20</title>
<polygon fill="none" stroke="#bfbfbf" points="349,-.5 349,-19.5 418,-19.5 418,-.5 349,-.5"/>
<text text-anchor="middle" x="383.5" y="-7.5" font-family="FreeSans.ttf" font-size="10.00" fill="#000000">type_traits</text>
</g>
<!-- Node13&#45;&gt;Node20 -->
<g id="edge24" class="edge">
<title>Node13&#45;&gt;Node20</title>
<path fill="none" stroke="#191970" d="M329.8221,-56.2455C339.4223,-47.9746 353.3892,-35.9416 364.6695,-26.2232"/>
<polygon fill="#191970" stroke="#191970" points="367.016,-28.8214 372.3076,-19.6427 362.447,-23.5182 367.016,-28.8214"/>
</g>
<!-- Node21 -->
<g id="node22" class="node">
<title>Node21</title>
<polygon fill="none" stroke="#bfbfbf" points="436,-.5 436,-19.5 481,-19.5 481,-.5 436,-.5"/>
<text text-anchor="middle" x="458.5" y="-7.5" font-family="FreeSans.ttf" font-size="10.00" fill="#000000">utility</text>
</g>
<!-- Node13&#45;&gt;Node21 -->
<g id="edge25" class="edge">
<title>Node13&#45;&gt;Node21</title>
<path fill="none" stroke="#191970" d="M342.5669,-56.3733C365.6189,-47.1524 400.5698,-33.1721 426.0692,-22.9723"/>
<polygon fill="#191970" stroke="#191970" points="427.6894,-26.0939 435.6742,-19.1303 425.0896,-19.5946 427.6894,-26.0939"/>
</g>
<!-- Node24&#45;&gt;Node4 -->
<g id="edge51" class="edge">
<title>Node24&#45;&gt;Node4</title>
<path fill="none" stroke="#191970" d="M963.7243,-280.4191C978.8757,-268.1654 1000.6298,-245.9002 992.5,-224 985.1518,-204.2053 972.965,-205.7308 961.5,-188 939.495,-153.969 921.1554,-110.0863 911.6069,-85.2977"/>
<polygon fill="#191970" stroke="#191970" points="914.7679,-83.7608 907.962,-75.641 908.2189,-86.2328 914.7679,-83.7608"/>
</g>
<!-- Node25 -->
<g id="node26" class="node">
<title>Node25</title>
<g id="a_node26"><a xlink:href="PositionRaw_8h.html" target="_top" xlink:title="iDynTree/Core/PositionRaw.h">
<polygon fill="none" stroke="#000000" points="682.5,-168.5 682.5,-187.5 838.5,-187.5 838.5,-168.5 682.5,-168.5"/>
<text text-anchor="middle" x="760.5" y="-175.5" font-family="FreeSans.ttf" font-size="10.00" fill="#000000">iDynTree/Core/PositionRaw.h</text>
</a>
</g>
</g>
<!-- Node24&#45;&gt;Node25 -->
<g id="edge32" class="edge">
<title>Node24&#45;&gt;Node25</title>
<path fill="none" stroke="#191970" d="M898.2665,-280.425C857.0854,-271.9548 803.9514,-258.6861 787.5,-244 774.1057,-232.0429 767.2221,-212.4509 763.7712,-197.7124"/>
<polygon fill="#191970" stroke="#191970" points="767.1413,-196.7155 761.7504,-187.5948 760.2769,-198.0866 767.1413,-196.7155"/>
</g>
<!-- Node26 -->
<g id="node27" class="node">
<title>Node26</title>
<g id="a_node27"><a xlink:href="PositionSemantics_8h.html" target="_top" xlink:title="iDynTree/Core/PositionSemantics.h">
<polygon fill="none" stroke="#000000" points="796,-224.5 796,-243.5 983,-243.5 983,-224.5 796,-224.5"/>
<text text-anchor="middle" x="889.5" y="-231.5" font-family="FreeSans.ttf" font-size="10.00" fill="#000000">iDynTree/Core/PositionSemantics.h</text>
</a>
</g>
</g>
<!-- Node24&#45;&gt;Node26 -->
<g id="edge35" class="edge">
<title>Node24&#45;&gt;Node26</title>
<path fill="none" stroke="#191970" d="M939.8746,-280.2455C930.9527,-272.0549 918.012,-260.1749 907.4808,-250.5069"/>
<polygon fill="#191970" stroke="#191970" points="909.7371,-247.8271 900.0036,-243.6427 905.0032,-252.9837 909.7371,-247.8271"/>
</g>
<!-- Node27 -->
<g id="node28" class="node">
<title>Node27</title>
<g id="a_node28"><a xlink:href="Rotation_8h.html" target="_top" xlink:title="iDynTree/Core/Rotation.h">
<polygon fill="none" stroke="#000000" points="1039,-224.5 1039,-243.5 1176,-243.5 1176,-224.5 1039,-224.5"/>
<text text-anchor="middle" x="1107.5" y="-231.5" font-family="FreeSans.ttf" font-size="10.00" fill="#000000">iDynTree/Core/Rotation.h</text>
</a>
</g>
</g>
<!-- Node24&#45;&gt;Node27 -->
<g id="edge37" class="edge">
<title>Node24&#45;&gt;Node27</title>
<path fill="none" stroke="#191970" d="M977.4893,-280.3733C1003.3699,-271.1419 1042.6248,-257.1402 1071.2289,-246.9375"/>
<polygon fill="#191970" stroke="#191970" points="1072.62,-250.1573 1080.8629,-243.5011 1070.2683,-243.5642 1072.62,-250.1573"/>
</g>
<!-- Node25&#45;&gt;Node4 -->
<g id="edge34" class="edge">
<title>Node25&#45;&gt;Node4</title>
<path fill="none" stroke="#191970" d="M772.7774,-168.4509C797.5387,-149.1921 853.6862,-105.5218 884.0655,-81.8935"/>
<polygon fill="#191970" stroke="#191970" points="886.509,-84.4271 892.2537,-75.5249 882.2114,-78.9016 886.509,-84.4271"/>
</g>
<!-- Node25&#45;&gt;Node10 -->
<g id="edge33" class="edge">
<title>Node25&#45;&gt;Node10</title>
<path fill="none" stroke="#191970" d="M688.9474,-168.4369C615.1297,-158.571 500.1796,-143.2078 422.9277,-132.8829"/>
<polygon fill="#191970" stroke="#191970" points="423.133,-129.3793 412.7575,-131.5237 422.2056,-136.3176 423.133,-129.3793"/>
</g>
<!-- Node26&#45;&gt;Node4 -->
<g id="edge36" class="edge">
<title>Node26&#45;&gt;Node4</title>
<path fill="none" stroke="#191970" d="M890.3494,-224.4862C892.7206,-197.9293 899.4495,-122.5651 902.6995,-86.1655"/>
<polygon fill="#191970" stroke="#191970" points="906.2192,-86.0996 903.6225,-75.8279 899.247,-85.477 906.2192,-86.0996"/>
</g>
<!-- Node27&#45;&gt;Node4 -->
<g id="edge38" class="edge">
<title>Node27&#45;&gt;Node4</title>
<path fill="none" stroke="#191970" d="M1125.4287,-224.4923C1162.3625,-203.7286 1240.6347,-152.912 1205.5,-112 1188.1018,-91.741 1010.6441,-74.8049 936.6382,-68.5676"/>
<polygon fill="#191970" stroke="#191970" points="936.7566,-65.0655 926.5013,-67.7258 936.1773,-72.0414 936.7566,-65.0655"/>
</g>
<!-- Node27&#45;&gt;Node10 -->
<g id="edge50" class="edge">
<title>Node27&#45;&gt;Node10</title>
<path fill="none" stroke="#191970" d="M1038.9018,-227.4955C934.8901,-217.5026 742.1345,-198.4375 673.5,-188 573.6812,-172.8203 458.3079,-148.2884 393.2178,-133.7945"/>
<polygon fill="#191970" stroke="#191970" points="393.7358,-130.324 383.213,-131.5575 392.2083,-137.1553 393.7358,-130.324"/>
</g>
<!-- Node28 -->
<g id="node29" class="node">
<title>Node28</title>
<g id="a_node29"><a xlink:href="RotationRaw_8h.html" target="_top" xlink:title="iDynTree/Core/RotationRaw.h">
<polygon fill="none" stroke="#000000" points="970.5,-168.5 970.5,-187.5 1128.5,-187.5 1128.5,-168.5 970.5,-168.5"/>
<text text-anchor="middle" x="1049.5" y="-175.5" font-family="FreeSans.ttf" font-size="10.00" fill="#000000">iDynTree/Core/RotationRaw.h</text>
</a>
</g>
</g>
<!-- Node27&#45;&gt;Node28 -->
<g id="edge39" class="edge">
<title>Node27&#45;&gt;Node28</title>
<path fill="none" stroke="#191970" d="M1097.3972,-224.2455C1088.9972,-216.1352 1076.8506,-204.4075 1066.8916,-194.7919"/>
<polygon fill="#191970" stroke="#191970" points="1069.1122,-192.0707 1059.4871,-187.6427 1064.25,-197.1066 1069.1122,-192.0707"/>
</g>
<!-- Node31 -->
<g id="node32" class="node">
<title>Node31</title>
<g id="a_node32"><a xlink:href="RotationSemantics_8h.html" target="_top" xlink:title="iDynTree/Core/RotationSemantics.h">
<polygon fill="none" stroke="#000000" points="1008.5,-112.5 1008.5,-131.5 1196.5,-131.5 1196.5,-112.5 1008.5,-112.5"/>
<text text-anchor="middle" x="1102.5" y="-119.5" font-family="FreeSans.ttf" font-size="10.00" fill="#000000">iDynTree/Core/RotationSemantics.h</text>
</a>
</g>
</g>
<!-- Node27&#45;&gt;Node31 -->
<g id="edge48" class="edge">
<title>Node27&#45;&gt;Node31</title>
<path fill="none" stroke="#191970" d="M1116.916,-224.4109C1128.1235,-211.785 1144.4974,-188.7526 1137.5,-168 1133.9305,-157.4138 1126.8465,-147.3356 1119.9798,-139.3256"/>
<polygon fill="#191970" stroke="#191970" points="1122.4019,-136.7886 1113.059,-131.7924 1117.247,-141.5244 1122.4019,-136.7886"/>
</g>
<!-- Node28&#45;&gt;Node4 -->
<g id="edge47" class="edge">
<title>Node28&#45;&gt;Node4</title>
<path fill="none" stroke="#191970" d="M1037.1374,-168.4509C1012.204,-149.1921 955.6667,-105.5218 925.0764,-81.8935"/>
<polygon fill="#191970" stroke="#191970" points="926.8849,-78.8679 916.8313,-75.5249 922.6059,-84.4078 926.8849,-78.8679"/>
</g>
<!-- Node29 -->
<g id="node30" class="node">
<title>Node29</title>
<g id="a_node30"><a xlink:href="MatrixFixSize_8h.html" target="_top" xlink:title="iDynTree/Core/MatrixFixSize.h">
<polygon fill="none" stroke="#000000" points="440,-112.5 440,-131.5 601,-131.5 601,-112.5 440,-112.5"/>
<text text-anchor="middle" x="520.5" y="-119.5" font-family="FreeSans.ttf" font-size="10.00" fill="#000000">iDynTree/Core/MatrixFixSize.h</text>
</a>
</g>
</g>
<!-- Node28&#45;&gt;Node29 -->
<g id="edge40" class="edge">
<title>Node28&#45;&gt;Node29</title>
<path fill="none" stroke="#191970" d="M970.3034,-169.6162C874.166,-159.4391 712.3933,-142.3139 611.3023,-131.6123"/>
<polygon fill="#191970" stroke="#191970" points="611.4196,-128.1053 601.1067,-130.533 610.6827,-135.0664 611.4196,-128.1053"/>
</g>
<!-- Node29&#45;&gt;Node4 -->
<g id="edge44" class="edge">
<title>Node29&#45;&gt;Node4</title>
<path fill="none" stroke="#191970" d="M586.0756,-112.4369C669.3008,-100.2999 809.5761,-79.8431 872.3946,-70.682"/>
<polygon fill="#191970" stroke="#191970" points="873.1031,-74.1158 882.4933,-69.2093 872.0929,-67.1891 873.1031,-74.1158"/>
</g>
<!-- Node29&#45;&gt;Node11 -->
<g id="edge41" class="edge">
<title>Node29&#45;&gt;Node11</title>
<path fill="none" stroke="#191970" d="M462.4382,-112.4369C403.1497,-102.6717 311.1616,-87.5207 248.5035,-77.2006"/>
<polygon fill="#191970" stroke="#191970" points="248.7582,-73.6954 238.3223,-75.5237 247.6205,-80.6024 248.7582,-73.6954"/>
</g>
<!-- Node29&#45;&gt;Node14 -->
<g id="edge42" class="edge">
<title>Node29&#45;&gt;Node14</title>
<path fill="none" stroke="#191970" d="M532.4337,-112.2005C542.7241,-103.3882 557.6027,-89.7494 568.5,-76 580.208,-61.2277 590.8979,-42.6005 598.1128,-28.9048"/>
<polygon fill="#191970" stroke="#191970" points="601.2669,-30.4245 602.7172,-19.9294 595.0386,-27.2294 601.2669,-30.4245"/>
</g>
<!-- Node29&#45;&gt;Node22 -->
<g id="edge46" class="edge">
<title>Node29&#45;&gt;Node22</title>
<path fill="none" stroke="#191970" d="M510.5714,-112.2455C502.3162,-104.1352 490.3791,-92.4075 480.5918,-82.7919"/>
<polygon fill="#191970" stroke="#191970" points="482.9011,-80.1542 473.3149,-75.6427 477.9954,-85.1476 482.9011,-80.1542"/>
</g>
<!-- Node29&#45;&gt;Node23 -->
<g id="edge43" class="edge">
<title>Node29&#45;&gt;Node23</title>
<path fill="none" stroke="#191970" d="M522.9386,-112.2455C524.7855,-104.8579 527.3828,-94.4689 529.6478,-85.4087"/>
<polygon fill="#191970" stroke="#191970" points="533.0594,-86.193 532.0893,-75.6427 526.2684,-84.4952 533.0594,-86.193"/>
</g>
<!-- Node30 -->
<g id="node31" class="node">
<title>Node30</title>
<polygon fill="none" stroke="#bfbfbf" points="615.5,-56.5 615.5,-75.5 675.5,-75.5 675.5,-56.5 615.5,-56.5"/>
<text text-anchor="middle" x="645.5" y="-63.5" font-family="FreeSans.ttf" font-size="10.00" fill="#000000">iostream</text>
</g>
<!-- Node29&#45;&gt;Node30 -->
<g id="edge45" class="edge">
<title>Node29&#45;&gt;Node30</title>
<path fill="none" stroke="#191970" d="M541.9883,-112.3733C562.144,-103.3435 592.488,-89.7494 615.118,-79.6111"/>
<polygon fill="#191970" stroke="#191970" points="616.5971,-82.7838 624.2921,-75.5011 613.7351,-76.3955 616.5971,-82.7838"/>
</g>
<!-- Node31&#45;&gt;Node4 -->
<g id="edge49" class="edge">
<title>Node31&#45;&gt;Node4</title>
<path fill="none" stroke="#191970" d="M1068.4626,-112.3733C1031.5297,-101.9276 973.0005,-85.3739 936.7732,-75.1278"/>
<polygon fill="#191970" stroke="#191970" points="937.3143,-71.6436 926.7392,-72.2899 935.4091,-78.3793 937.3143,-71.6436"/>
</g>
<!-- Node32&#45;&gt;Node4 -->
<g id="edge59" class="edge">
<title>Node32&#45;&gt;Node4</title>
<path fill="none" stroke="#191970" d="M1071.6229,-338.1159C1195.8462,-322.9663 1431.8043,-285.7111 1400.5,-224 1362.3756,-148.8444 1325.679,-143.4622 1247.5,-112 1191.3205,-89.3912 1010.9336,-73.8656 936.7875,-68.2869"/>
<polygon fill="#191970" stroke="#191970" points="936.8774,-64.7841 926.6463,-67.5364 936.3606,-71.765 936.8774,-64.7841"/>
</g>
<!-- Node32&#45;&gt;Node24 -->
<g id="edge54" class="edge">
<title>Node32&#45;&gt;Node24</title>
<path fill="none" stroke="#191970" d="M990.139,-336.2455C983.325,-328.2958 973.5319,-316.8706 965.3848,-307.3656"/>
<polygon fill="#191970" stroke="#191970" points="967.9305,-304.9575 958.7651,-299.6427 962.6157,-309.513 967.9305,-304.9575"/>
</g>
<!-- Node32&#45;&gt;Node27 -->
<g id="edge55" class="edge">
<title>Node32&#45;&gt;Node27</title>
<path fill="none" stroke="#191970" d="M1007.7933,-336.4509C1026.2949,-317.4401 1067.9463,-274.6423 1091.1344,-250.816"/>
<polygon fill="#191970" stroke="#191970" points="1093.764,-253.1324 1098.2302,-243.5249 1088.7475,-248.2502 1093.764,-253.1324"/>
</g>
<!-- Node32&#45;&gt;Node29 -->
<g id="edge58" class="edge">
<title>Node32&#45;&gt;Node29</title>
<path fill="none" stroke="#191970" d="M969.8368,-336.4988C944.2613,-327.7748 905.9501,-314.0973 873.5,-300 748.2733,-245.5978 604.5165,-168.2638 546.6408,-136.4853"/>
<polygon fill="#191970" stroke="#191970" points="548.2397,-133.3701 537.7915,-131.6133 544.8636,-139.5022 548.2397,-133.3701"/>
</g>
<!-- Node33 -->
<g id="node34" class="node">
<title>Node33</title>
<g id="a_node34"><a xlink:href="TransformSemantics_8h.html" target="_top" xlink:title="iDynTree/Core/TransformSemantics.h">
<polygon fill="none" stroke="#000000" points="1194,-224.5 1194,-243.5 1391,-243.5 1391,-224.5 1194,-224.5"/>
<text text-anchor="middle" x="1292.5" y="-231.5" font-family="FreeSans.ttf" font-size="10.00" fill="#000000">iDynTree/Core/TransformSemantics.h</text>
</a>
</g>
</g>
<!-- Node32&#45;&gt;Node33 -->
<g id="edge56" class="edge">
<title>Node32&#45;&gt;Node33</title>
<path fill="none" stroke="#191970" d="M1023.5663,-336.4509C1076.182,-316.4069 1198.2096,-269.9202 1258.096,-247.1063"/>
<polygon fill="#191970" stroke="#191970" points="1259.3983,-250.3556 1267.4972,-243.5249 1256.9063,-243.8142 1259.3983,-250.3556"/>
</g>
<!-- Node33&#45;&gt;Node4 -->
<g id="edge57" class="edge">
<title>Node33&#45;&gt;Node4</title>
<path fill="none" stroke="#191970" d="M1290.1882,-224.4115C1283.9637,-200.852 1264.4798,-140.0144 1223.5,-112 1177.2561,-80.387 1008.2144,-70.0856 936.7467,-67.0974"/>
<polygon fill="#191970" stroke="#191970" points="936.6724,-63.5918 926.5416,-66.6931 936.3952,-70.5863 936.6724,-63.5918"/>
</g>
<!-- Node34&#45;&gt;Node1 -->
<g id="edge64" class="edge">
<title>Node34&#45;&gt;Node1</title>
<path fill="none" stroke="#191970" d="M376.6445,-392.3733C396.3892,-383.3838 426.0698,-369.8706 448.3055,-359.7471"/>
<polygon fill="#191970" stroke="#191970" points="449.9806,-362.8302 457.6315,-355.5011 447.08,-356.4594 449.9806,-362.8302"/>
</g>
<!-- Node34&#45;&gt;Node3 -->
<g id="edge66" class="edge">
<title>Node34&#45;&gt;Node3</title>
<path fill="none" stroke="#191970" d="M359.9221,-392.3564C367.0357,-377.9207 382.3912,-350.8103 403.5,-336 439.4215,-310.7969 489.0624,-299.2938 523.2744,-294.1141"/>
<polygon fill="#191970" stroke="#191970" points="523.9462,-297.5543 533.3643,-292.7014 522.9755,-290.6219 523.9462,-297.5543"/>
</g>
<!-- Node34&#45;&gt;Node4 -->
<g id="edge67" class="edge">
<title>Node34&#45;&gt;Node4</title>
<path fill="none" stroke="#191970" d="M343.4712,-392.441C318.4263,-371.3629 265.1218,-319.6189 291.5,-280 338.7538,-209.0268 568.7808,-169.206 645.5,-132 661.9689,-124.0132 664.3396,-118.3666 681.5,-112 746.8962,-87.7378 828.0855,-75.0679 872.2282,-69.5365"/>
<polygon fill="#191970" stroke="#191970" points="872.8544,-72.9864 882.362,-68.3114 872.0142,-66.037 872.8544,-72.9864"/>
</g>
<!-- Node34&#45;&gt;Node10 -->
<g id="edge65" class="edge">
<title>Node34&#45;&gt;Node10</title>
<path fill="none" stroke="#191970" d="M330.3123,-392.3828C294.327,-376.8068 232.5,-342.4182 232.5,-290 232.5,-290 232.5,-290 232.5,-234 232.5,-188.4375 279.3998,-154.4581 311.6714,-136.4701"/>
<polygon fill="#191970" stroke="#191970" points="313.5768,-139.4201 320.7414,-131.6149 310.2732,-133.2486 313.5768,-139.4201"/>
</g>
<!-- Node35&#45;&gt;Node1 -->
<g id="edge69" class="edge">
<title>Node35&#45;&gt;Node1</title>
<path fill="none" stroke="#191970" d="M574.196,-451.0384C548.1784,-444.9017 517.4231,-433.4186 497.5,-412 485.9656,-399.5998 481.3816,-380.6434 479.586,-366.2226"/>
<polygon fill="#191970" stroke="#191970" points="483.0351,-365.493 478.6644,-355.8418 476.0626,-366.1121 483.0351,-365.493"/>
</g>
<!-- Node35&#45;&gt;Node3 -->
<g id="edge77" class="edge">
<title>Node35&#45;&gt;Node3</title>
<path fill="none" stroke="#191970" d="M619.9775,-448.0621C616.6001,-435.059 610.2475,-411.6193 603.5,-392 593.4044,-362.6455 579.587,-329.4178 570.8522,-309.0878"/>
<polygon fill="#191970" stroke="#191970" points="573.9812,-307.5058 566.7945,-299.7211 567.5581,-310.2884 573.9812,-307.5058"/>
</g>
<!-- Node35&#45;&gt;Node4 -->
<g id="edge78" class="edge">
<title>Node35&#45;&gt;Node4</title>
<path fill="none" stroke="#191970" d="M670.5708,-457.1631C857.8744,-453.2766 1528.5,-433.268 1528.5,-346 1528.5,-346 1528.5,-346 1528.5,-178 1528.5,-117.3073 1065.2637,-78.0561 937.046,-68.3543"/>
<polygon fill="#191970" stroke="#191970" points="936.9416,-64.8368 926.7085,-67.5815 936.4197,-71.8173 936.9416,-64.8368"/>
</g>
<!-- Node35&#45;&gt;Node5 -->
<g id="edge79" class="edge">
<title>Node35&#45;&gt;Node5</title>
<path fill="none" stroke="#191970" d="M574.1608,-454.7036C487.1892,-448.278 311.6457,-432.8593 293.5,-412 265.8082,-380.167 304.8647,-331.8668 329.7006,-306.6508"/>
<polygon fill="#191970" stroke="#191970" points="332.1849,-309.1166 336.8622,-299.6101 327.2774,-304.1249 332.1849,-309.1166"/>
</g>
<!-- Node35&#45;&gt;Node6 -->
<g id="edge80" class="edge">
<title>Node35&#45;&gt;Node6</title>
<path fill="none" stroke="#191970" d="M670.788,-456.1773C800.9979,-451.0081 1157.2829,-435.1166 1272.5,-412 1348.8414,-396.6832 1378.2941,-405.3748 1438.5,-356 1453.4727,-343.7209 1463.7507,-323.8908 1469.8053,-309.1679"/>
<polygon fill="#191970" stroke="#191970" points="1473.1871,-310.1219 1473.4743,-299.531 1466.6452,-307.6312 1473.1871,-310.1219"/>
</g>
<!-- Node35&#45;&gt;Node32 -->
<g id="edge71" class="edge">
<title>Node35&#45;&gt;Node32</title>
<path fill="none" stroke="#191970" d="M654.5575,-448.4509C722.5421,-428.2002 881.1381,-380.9589 956.8435,-358.4083"/>
<polygon fill="#191970" stroke="#191970" points="957.9389,-361.7341 966.5236,-355.5249 955.9405,-355.0254 957.9389,-361.7341"/>
</g>
<!-- Node35&#45;&gt;Node34 -->
<g id="edge70" class="edge">
<title>Node35&#45;&gt;Node34</title>
<path fill="none" stroke="#191970" d="M576.9044,-448.4369C530.9215,-438.7925 459.8912,-423.8948 410.7394,-413.5858"/>
<polygon fill="#191970" stroke="#191970" points="411.413,-410.151 400.9075,-411.5237 409.9761,-417.0019 411.413,-410.151"/>
</g>
<!-- Node36 -->
<g id="node37" class="node">
<title>Node36</title>
<g id="a_node37"><a xlink:href="SolidShapes_8h.html" target="_top" xlink:title="iDynTree/Model/SolidShapes.h">
<polygon fill="none" stroke="#000000" points="1100,-392.5 1100,-411.5 1263,-411.5 1263,-392.5 1100,-392.5"/>
<text text-anchor="middle" x="1181.5" y="-399.5" font-family="FreeSans.ttf" font-size="10.00" fill="#000000">iDynTree/Model/SolidShapes.h</text>
</a>
</g>
</g>
<!-- Node35&#45;&gt;Node36 -->
<g id="edge72" class="edge">
<title>Node35&#45;&gt;Node36</title>
<path fill="none" stroke="#191970" d="M670.6438,-453.177C763.6687,-443.8579 969.5007,-423.2379 1089.5705,-411.2094"/>
<polygon fill="#191970" stroke="#191970" points="1090.2443,-414.6595 1099.8456,-410.1801 1089.5465,-407.6944 1090.2443,-414.6595"/>
</g>
<!-- Node36&#45;&gt;Node4 -->
<g id="edge74" class="edge">
<title>Node36&#45;&gt;Node4</title>
<path fill="none" stroke="#191970" d="M1212.3206,-392.4051C1265.8618,-373.8216 1374.2732,-327.2404 1415.5,-244 1430.201,-214.3174 1383.8326,-168.334 1383.5,-168 1348.3784,-132.7225 1333.7259,-127.7398 1286.5,-112 1221.8141,-90.441 1017.3704,-74.0138 937.2052,-68.2436"/>
<polygon fill="#191970" stroke="#191970" points="936.9687,-64.7181 926.7459,-67.5007 936.4727,-71.7005 936.9687,-64.7181"/>
</g>
<!-- Node36&#45;&gt;Node6 -->
<g id="edge75" class="edge">
<title>Node36&#45;&gt;Node6</title>
<path fill="none" stroke="#191970" d="M1181.4449,-392.2504C1181.9299,-377.6761 1185.1342,-350.3872 1201.5,-336 1210.5125,-328.0771 1370.5989,-304.8234 1442.2811,-294.7468"/>
<polygon fill="#191970" stroke="#191970" points="1443.1714,-298.1564 1452.5892,-293.303 1442.2003,-291.224 1443.1714,-298.1564"/>
</g>
<!-- Node36&#45;&gt;Node32 -->
<g id="edge76" class="edge">
<title>Node36&#45;&gt;Node32</title>
<path fill="none" stroke="#191970" d="M1150.0412,-392.3733C1119.4793,-383.021 1072.9174,-368.7725 1039.4739,-358.5385"/>
<polygon fill="#191970" stroke="#191970" points="1040.1348,-355.0806 1029.5483,-355.5011 1038.0864,-361.7742 1040.1348,-355.0806"/>
</g>
<!-- Node37 -->
<g id="node38" class="node">
<title>Node37</title>
<polygon fill="none" stroke="#bfbfbf" points="1210,-336.5 1210,-355.5 1259,-355.5 1259,-336.5 1210,-336.5"/>
<text text-anchor="middle" x="1234.5" y="-343.5" font-family="FreeSans.ttf" font-size="10.00" fill="#000000">cstdlib</text>
</g>
<!-- Node36&#45;&gt;Node37 -->
<g id="edge73" class="edge">
<title>Node36&#45;&gt;Node37</title>
<path fill="none" stroke="#191970" d="M1190.7319,-392.2455C1198.3317,-384.2155 1209.2877,-372.6394 1218.3368,-363.0781"/>
<polygon fill="#191970" stroke="#191970" points="1221.0421,-365.3115 1225.3739,-355.6427 1215.958,-360.4998 1221.0421,-365.3115"/>
</g>
</g>
</svg>
