<?xml version="1.0" encoding="UTF-8" standalone="no"?>
<!DOCTYPE svg PUBLIC "-//W3C//DTD SVG 1.1//EN"
 "http://www.w3.org/Graphics/SVG/1.1/DTD/svg11.dtd">
<!-- Generated by graphviz version 2.40.1 (20161225.0304)
 -->
<!-- Title: RotationalInertiaRaw.cpp Pages: 1 -->
<svg width="480pt" height="263pt"
 viewBox="0.00 0.00 479.50 263.00" xmlns="http://www.w3.org/2000/svg" xmlns:xlink="http://www.w3.org/1999/xlink">
<g id="graph0" class="graph" transform="scale(1 1) rotate(0) translate(4 259)">
<title>RotationalInertiaRaw.cpp</title>
<!-- Node0 -->
<g id="node1" class="node">
<title>Node0</title>
<polygon fill="#bfbfbf" stroke="#000000" points="220.5,-235.5 220.5,-254.5 358.5,-254.5 358.5,-235.5 220.5,-235.5"/>
<text text-anchor="middle" x="289.5" y="-242.5" font-family="FreeSans.ttf" font-size="10.00" fill="#000000">RotationalInertiaRaw.cpp</text>
</g>
<!-- Node1 -->
<g id="node2" class="node">
<title>Node1</title>
<g id="a_node2"><a xlink:href="RotationalInertiaRaw_8h.html" target="_top" xlink:title="iDynTree/Core/Rotational\lInertiaRaw.h">
<polygon fill="none" stroke="#000000" points="167,-168.5 167,-198.5 304,-198.5 304,-168.5 167,-168.5"/>
<text text-anchor="start" x="175" y="-186.5" font-family="FreeSans.ttf" font-size="10.00" fill="#000000">iDynTree/Core/Rotational</text>
<text text-anchor="middle" x="235.5" y="-175.5" font-family="FreeSans.ttf" font-size="10.00" fill="#000000">InertiaRaw.h</text>
</a>
</g>
</g>
<!-- Node0&#45;&gt;Node1 -->
<g id="edge1" class="edge">
<title>Node0&#45;&gt;Node1</title>
<path fill="none" stroke="#191970" d="M281.0625,-235.3906C274.2279,-227.6068 264.3177,-216.3202 255.4841,-206.2597"/>
<polygon fill="#191970" stroke="#191970" points="257.938,-203.7497 248.7099,-198.5446 252.6779,-208.3683 257.938,-203.7497"/>
</g>
<!-- Node3 -->
<g id="node4" class="node">
<title>Node3</title>
<g id="a_node4"><a xlink:href="Utils_8h.html" target="_top" xlink:title="iDynTree/Core/Utils.h">
<polygon fill="none" stroke="#000000" points="0,-56.5 0,-75.5 119,-75.5 119,-56.5 0,-56.5"/>
<text text-anchor="middle" x="59.5" y="-63.5" font-family="FreeSans.ttf" font-size="10.00" fill="#000000">iDynTree/Core/Utils.h</text>
</a>
</g>
</g>
<!-- Node0&#45;&gt;Node3 -->
<g id="edge10" class="edge">
<title>Node0&#45;&gt;Node3</title>
<path fill="none" stroke="#191970" d="M220.3888,-236.4662C191.1373,-230.0344 158.1915,-218.7597 133.5,-199 95.9979,-168.9884 74.4434,-114.5392 65.0971,-85.4889"/>
<polygon fill="#191970" stroke="#191970" points="68.3759,-84.2422 62.105,-75.7026 61.6818,-86.289 68.3759,-84.2422"/>
</g>
<!-- Node5 -->
<g id="node6" class="node">
<title>Node5</title>
<polygon fill="none" stroke="#bfbfbf" points="137.5,-56.5 137.5,-75.5 189.5,-75.5 189.5,-56.5 137.5,-56.5"/>
<text text-anchor="middle" x="163.5" y="-63.5" font-family="FreeSans.ttf" font-size="10.00" fill="#000000">cassert</text>
</g>
<!-- Node0&#45;&gt;Node5 -->
<g id="edge13" class="edge">
<title>Node0&#45;&gt;Node5</title>
<path fill="none" stroke="#191970" d="M224.3519,-235.4405C200.4151,-228.8601 174.9327,-217.7515 157.5,-199 130.615,-170.081 130.0972,-150.3497 139.5,-112 141.8743,-102.3164 146.6821,-92.4071 151.3753,-84.2776"/>
<polygon fill="#191970" stroke="#191970" points="154.4119,-86.0214 156.6792,-75.672 148.4528,-82.3486 154.4119,-86.0214"/>
</g>
<!-- Node6 -->
<g id="node7" class="node">
<title>Node6</title>
<polygon fill="none" stroke="#bfbfbf" points="269.5,-56.5 269.5,-75.5 319.5,-75.5 319.5,-56.5 269.5,-56.5"/>
<text text-anchor="middle" x="294.5" y="-63.5" font-family="FreeSans.ttf" font-size="10.00" fill="#000000">cstring</text>
</g>
<!-- Node0&#45;&gt;Node6 -->
<g id="edge14" class="edge">
<title>Node0&#45;&gt;Node6</title>
<path fill="none" stroke="#191970" d="M295.7567,-235.2114C301.1858,-226.1875 308.7466,-212.2281 312.5,-199 323.08,-161.7135 327.7297,-149.6435 318.5,-112 316.1257,-102.3164 311.3179,-92.4071 306.6247,-84.2776"/>
<polygon fill="#191970" stroke="#191970" points="309.5472,-82.3486 301.3208,-75.672 303.5881,-86.0214 309.5472,-82.3486"/>
</g>
<!-- Node8 -->
<g id="node9" class="node">
<title>Node8</title>
<polygon fill="none" stroke="#bfbfbf" points="337.5,-56.5 337.5,-75.5 397.5,-75.5 397.5,-56.5 337.5,-56.5"/>
<text text-anchor="middle" x="367.5" y="-63.5" font-family="FreeSans.ttf" font-size="10.00" fill="#000000">iostream</text>
</g>
<!-- Node0&#45;&gt;Node8 -->
<g id="edge11" class="edge">
<title>Node0&#45;&gt;Node8</title>
<path fill="none" stroke="#191970" d="M301.1235,-235.1846C310.6148,-226.5677 323.6924,-213.2187 331.5,-199 351.8505,-161.939 361.2608,-112.6539 365.1368,-85.6911"/>
<polygon fill="#191970" stroke="#191970" points="368.6295,-85.9764 366.4749,-75.603 361.6903,-85.056 368.6295,-85.9764"/>
</g>
<!-- Node9 -->
<g id="node10" class="node">
<title>Node9</title>
<polygon fill="none" stroke="#bfbfbf" points="415.5,-56.5 415.5,-75.5 471.5,-75.5 471.5,-56.5 415.5,-56.5"/>
<text text-anchor="middle" x="443.5" y="-63.5" font-family="FreeSans.ttf" font-size="10.00" fill="#000000">sstream</text>
</g>
<!-- Node0&#45;&gt;Node9 -->
<g id="edge12" class="edge">
<title>Node0&#45;&gt;Node9</title>
<path fill="none" stroke="#191970" d="M305.6847,-235.3718C319.1588,-226.8691 338.3574,-213.5826 352.5,-199 387.5421,-162.8677 418.2741,-111.8353 433.4476,-84.6898"/>
<polygon fill="#191970" stroke="#191970" points="436.5617,-86.2905 438.3131,-75.8414 430.4278,-82.9176 436.5617,-86.2905"/>
</g>
<!-- Node2 -->
<g id="node3" class="node">
<title>Node2</title>
<g id="a_node3"><a xlink:href="MatrixFixSize_8h.html" target="_top" xlink:title="iDynTree/Core/MatrixFixSize.h">
<polygon fill="none" stroke="#000000" points="149,-112.5 149,-131.5 310,-131.5 310,-112.5 149,-112.5"/>
<text text-anchor="middle" x="229.5" y="-119.5" font-family="FreeSans.ttf" font-size="10.00" fill="#000000">iDynTree/Core/MatrixFixSize.h</text>
</a>
</g>
</g>
<!-- Node1&#45;&gt;Node2 -->
<g id="edge2" class="edge">
<title>Node1&#45;&gt;Node2</title>
<path fill="none" stroke="#191970" d="M234.0169,-168.2977C233.2447,-160.3834 232.2907,-150.6043 231.4586,-142.0759"/>
<polygon fill="#191970" stroke="#191970" points="234.9152,-141.4598 230.4607,-131.8469 227.9483,-142.1396 234.9152,-141.4598"/>
</g>
<!-- Node2&#45;&gt;Node3 -->
<g id="edge3" class="edge">
<title>Node2&#45;&gt;Node3</title>
<path fill="none" stroke="#191970" d="M200.276,-112.3733C172.0075,-103.0613 129.0035,-88.8953 97.9656,-78.671"/>
<polygon fill="#191970" stroke="#191970" points="98.9357,-75.3056 88.3427,-75.5011 96.7456,-81.9542 98.9357,-75.3056"/>
</g>
<!-- Node2&#45;&gt;Node5 -->
<g id="edge5" class="edge">
<title>Node2&#45;&gt;Node5</title>
<path fill="none" stroke="#191970" d="M218.0037,-112.2455C208.2558,-103.9746 194.0741,-91.9416 182.6202,-82.2232"/>
<polygon fill="#191970" stroke="#191970" points="184.7541,-79.4437 174.8646,-75.6427 180.2253,-84.7813 184.7541,-79.4437"/>
</g>
<!-- Node2&#45;&gt;Node6 -->
<g id="edge6" class="edge">
<title>Node2&#45;&gt;Node6</title>
<path fill="none" stroke="#191970" d="M240.8221,-112.2455C250.4223,-103.9746 264.3892,-91.9416 275.6695,-82.2232"/>
<polygon fill="#191970" stroke="#191970" points="278.016,-84.8214 283.3076,-75.6427 273.447,-79.5182 278.016,-84.8214"/>
</g>
<!-- Node7 -->
<g id="node8" class="node">
<title>Node7</title>
<polygon fill="none" stroke="#bfbfbf" points="207.5,-56.5 207.5,-75.5 251.5,-75.5 251.5,-56.5 207.5,-56.5"/>
<text text-anchor="middle" x="229.5" y="-63.5" font-family="FreeSans.ttf" font-size="10.00" fill="#000000">string</text>
</g>
<!-- Node2&#45;&gt;Node7 -->
<g id="edge7" class="edge">
<title>Node2&#45;&gt;Node7</title>
<path fill="none" stroke="#191970" d="M229.5,-112.2455C229.5,-104.9382 229.5,-94.6944 229.5,-85.7046"/>
<polygon fill="#191970" stroke="#191970" points="233.0001,-85.6426 229.5,-75.6427 226.0001,-85.6427 233.0001,-85.6426"/>
</g>
<!-- Node2&#45;&gt;Node8 -->
<g id="edge8" class="edge">
<title>Node2&#45;&gt;Node8</title>
<path fill="none" stroke="#191970" d="M253.223,-112.3733C275.6737,-103.2629 309.5739,-89.5062 334.6255,-79.3404"/>
<polygon fill="#191970" stroke="#191970" points="336.1365,-82.5045 344.0865,-75.5011 333.5043,-76.0182 336.1365,-82.5045"/>
</g>
<!-- Node2&#45;&gt;Node9 -->
<g id="edge9" class="edge">
<title>Node2&#45;&gt;Node9</title>
<path fill="none" stroke="#191970" d="M266.8208,-112.4129C300.561,-103.7206 351.8625,-90.4427 405.2389,-76.3182"/>
<polygon fill="#191970" stroke="#191970" points="406.4559,-79.6166 415.2258,-73.6719 404.6629,-72.8501 406.4559,-79.6166"/>
</g>
<!-- Node4 -->
<g id="node5" class="node">
<title>Node4</title>
<polygon fill="none" stroke="#bfbfbf" points="33,-.5 33,-19.5 86,-19.5 86,-.5 33,-.5"/>
<text text-anchor="middle" x="59.5" y="-7.5" font-family="FreeSans.ttf" font-size="10.00" fill="#000000">cstddef</text>
</g>
<!-- Node3&#45;&gt;Node4 -->
<g id="edge4" class="edge">
<title>Node3&#45;&gt;Node4</title>
<path fill="none" stroke="#191970" d="M59.5,-56.2455C59.5,-48.9382 59.5,-38.6944 59.5,-29.7046"/>
<polygon fill="#191970" stroke="#191970" points="63.0001,-29.6426 59.5,-19.6427 56.0001,-29.6427 63.0001,-29.6426"/>
</g>
</g>
</svg>
