<?xml version="1.0" encoding="UTF-8" standalone="no"?>
<!DOCTYPE svg PUBLIC "-//W3C//DTD SVG 1.1//EN"
 "http://www.w3.org/Graphics/SVG/1.1/DTD/svg11.dtd">
<!-- Generated by graphviz version 2.40.1 (20161225.0304)
 -->
<!-- Title: RotationSemantics.cpp Pages: 1 -->
<svg width="921pt" height="162pt"
 viewBox="0.00 0.00 921.00 162.00" xmlns="http://www.w3.org/2000/svg" xmlns:xlink="http://www.w3.org/1999/xlink">
<g id="graph0" class="graph" transform="scale(1 1) rotate(0) translate(4 158)">
<title>RotationSemantics.cpp</title>
<!-- Node0 -->
<g id="node1" class="node">
<title>Node0</title>
<polygon fill="#bfbfbf" stroke="#000000" points="495,-134.5 495,-153.5 623,-153.5 623,-134.5 495,-134.5"/>
<text text-anchor="middle" x="559" y="-141.5" font-family="FreeSans.ttf" font-size="10.00" fill="#000000">RotationSemantics.cpp</text>
</g>
<!-- Node1 -->
<g id="node2" class="node">
<title>Node1</title>
<g id="a_node2"><a xlink:href="RotationSemantics_8h.html" target="_top" xlink:title="iDynTree/Core/RotationSemantics.h">
<polygon fill="none" stroke="#000000" points="0,-73 0,-92 188,-92 188,-73 0,-73"/>
<text text-anchor="middle" x="94" y="-80" font-family="FreeSans.ttf" font-size="10.00" fill="#000000">iDynTree/Core/RotationSemantics.h</text>
</a>
</g>
</g>
<!-- Node0&#45;&gt;Node1 -->
<g id="edge1" class="edge">
<title>Node0&#45;&gt;Node1</title>
<path fill="none" stroke="#191970" d="M494.8577,-136.3008C422.4532,-127.5048 301.1673,-112.4542 197,-98 186.8876,-96.5968 176.226,-95.0587 165.7492,-93.5133"/>
<polygon fill="#191970" stroke="#191970" points="166.1908,-90.0406 155.7851,-92.0337 165.1625,-96.9647 166.1908,-90.0406"/>
</g>
<!-- Node3 -->
<g id="node4" class="node">
<title>Node3</title>
<g id="a_node4"><a xlink:href="PositionSemantics_8h.html" target="_top" xlink:title="iDynTree/Core/PositionSemantics.h">
<polygon fill="none" stroke="#000000" points="206.5,-73 206.5,-92 393.5,-92 393.5,-73 206.5,-73"/>
<text text-anchor="middle" x="300" y="-80" font-family="FreeSans.ttf" font-size="10.00" fill="#000000">iDynTree/Core/PositionSemantics.h</text>
</a>
</g>
</g>
<!-- Node0&#45;&gt;Node3 -->
<g id="edge3" class="edge">
<title>Node0&#45;&gt;Node3</title>
<path fill="none" stroke="#191970" d="M518.8154,-134.4581C473.3539,-123.6632 399.2598,-106.0694 350.0727,-94.3899"/>
<polygon fill="#191970" stroke="#191970" points="350.8169,-90.9693 340.2788,-92.0643 349.1997,-97.78 350.8169,-90.9693"/>
</g>
<!-- Node4 -->
<g id="node5" class="node">
<title>Node4</title>
<g id="a_node5"><a xlink:href="Utils_8h.html" target="_top" xlink:title="iDynTree/Core/Utils.h">
<polygon fill="none" stroke="#000000" points="411.5,-73 411.5,-92 530.5,-92 530.5,-73 411.5,-73"/>
<text text-anchor="middle" x="471" y="-80" font-family="FreeSans.ttf" font-size="10.00" fill="#000000">iDynTree/Core/Utils.h</text>
</a>
</g>
</g>
<!-- Node0&#45;&gt;Node4 -->
<g id="edge5" class="edge">
<title>Node0&#45;&gt;Node4</title>
<path fill="none" stroke="#191970" d="M545.25,-134.3906C531.3009,-124.6421 509.4902,-109.3994 493.1103,-97.9521"/>
<polygon fill="#191970" stroke="#191970" points="494.8551,-94.9015 484.6534,-92.0419 490.8452,-100.6392 494.8551,-94.9015"/>
</g>
<!-- Node6 -->
<g id="node7" class="node">
<title>Node6</title>
<g id="a_node7"><a xlink:href="PrivatePreProcessorUtils_8h.html" target="_top" xlink:title="iDynTree/Core/PrivatePre\lProcessorUtils.h">
<polygon fill="none" stroke="#000000" points="560,-.5 560,-30.5 698,-30.5 698,-.5 560,-.5"/>
<text text-anchor="start" x="568" y="-18.5" font-family="FreeSans.ttf" font-size="10.00" fill="#000000">iDynTree/Core/PrivatePre</text>
<text text-anchor="middle" x="629" y="-7.5" font-family="FreeSans.ttf" font-size="10.00" fill="#000000">ProcessorUtils.h</text>
</a>
</g>
</g>
<!-- Node0&#45;&gt;Node6 -->
<g id="edge7" class="edge">
<title>Node0&#45;&gt;Node6</title>
<path fill="none" stroke="#191970" d="M559.722,-134.3971C561.2124,-119.2072 565.6051,-89.0959 578,-67 584.0947,-56.1353 593.1026,-45.9719 601.8591,-37.5922"/>
<polygon fill="#191970" stroke="#191970" points="604.3738,-40.0359 609.41,-30.7146 599.6602,-34.8608 604.3738,-40.0359"/>
</g>
<!-- Node7 -->
<g id="node8" class="node">
<title>Node7</title>
<g id="a_node8"><a xlink:href="PrivateSemanticsMacros_8h.html" target="_top" xlink:title="iDynTree/Core/PrivateSemantics\lMacros.h">
<polygon fill="none" stroke="#000000" points="587.5,-67.5 587.5,-97.5 760.5,-97.5 760.5,-67.5 587.5,-67.5"/>
<text text-anchor="start" x="595.5" y="-85.5" font-family="FreeSans.ttf" font-size="10.00" fill="#000000">iDynTree/Core/PrivateSemantics</text>
<text text-anchor="middle" x="674" y="-74.5" font-family="FreeSans.ttf" font-size="10.00" fill="#000000">Macros.h</text>
</a>
</g>
</g>
<!-- Node0&#45;&gt;Node7 -->
<g id="edge8" class="edge">
<title>Node0&#45;&gt;Node7</title>
<path fill="none" stroke="#191970" d="M576.9688,-134.3906C592.9649,-125.8361 616.8723,-113.0509 636.953,-102.3121"/>
<polygon fill="#191970" stroke="#191970" points="638.7002,-105.3469 645.8678,-97.5446 635.399,-99.1741 638.7002,-105.3469"/>
</g>
<!-- Node8 -->
<g id="node9" class="node">
<title>Node8</title>
<polygon fill="none" stroke="#bfbfbf" points="779,-73 779,-92 839,-92 839,-73 779,-73"/>
<text text-anchor="middle" x="809" y="-80" font-family="FreeSans.ttf" font-size="10.00" fill="#000000">iostream</text>
</g>
<!-- Node0&#45;&gt;Node8 -->
<g id="edge10" class="edge">
<title>Node0&#45;&gt;Node8</title>
<path fill="none" stroke="#191970" d="M614.7267,-134.4302C657.64,-126.4432 718.1871,-113.8276 770,-98 772.2929,-97.2996 774.6408,-96.5231 776.9916,-95.7017"/>
<polygon fill="#191970" stroke="#191970" points="778.3851,-98.9177 786.5384,-92.152 775.9455,-92.3566 778.3851,-98.9177"/>
</g>
<!-- Node9 -->
<g id="node10" class="node">
<title>Node9</title>
<polygon fill="none" stroke="#bfbfbf" points="857,-73 857,-92 913,-92 913,-73 857,-73"/>
<text text-anchor="middle" x="885" y="-80" font-family="FreeSans.ttf" font-size="10.00" fill="#000000">sstream</text>
</g>
<!-- Node0&#45;&gt;Node9 -->
<g id="edge11" class="edge">
<title>Node0&#45;&gt;Node9</title>
<path fill="none" stroke="#191970" d="M623.0894,-138.2354C682.291,-131.8725 772.2598,-119.5563 848,-98 850.3173,-97.3405 852.6839,-96.5762 855.0442,-95.7474"/>
<polygon fill="#191970" stroke="#191970" points="856.4939,-98.9398 864.5692,-92.0813 853.9794,-92.407 856.4939,-98.9398"/>
</g>
<!-- Node2 -->
<g id="node3" class="node">
<title>Node2</title>
<polygon fill="none" stroke="#bfbfbf" points="175,-6 175,-25 219,-25 219,-6 175,-6"/>
<text text-anchor="middle" x="197" y="-13" font-family="FreeSans.ttf" font-size="10.00" fill="#000000">string</text>
</g>
<!-- Node1&#45;&gt;Node2 -->
<g id="edge2" class="edge">
<title>Node1&#45;&gt;Node2</title>
<path fill="none" stroke="#191970" d="M108.7574,-72.9005C125.7372,-61.8554 153.8359,-43.5776 173.7601,-30.6172"/>
<polygon fill="#191970" stroke="#191970" points="175.7959,-33.4684 182.27,-25.0817 171.9789,-27.6005 175.7959,-33.4684"/>
</g>
<!-- Node3&#45;&gt;Node2 -->
<g id="edge4" class="edge">
<title>Node3&#45;&gt;Node2</title>
<path fill="none" stroke="#191970" d="M285.2426,-72.9005C268.2628,-61.8554 240.1641,-43.5776 220.2399,-30.6172"/>
<polygon fill="#191970" stroke="#191970" points="222.0211,-27.6005 211.73,-25.0817 218.2041,-33.4684 222.0211,-27.6005"/>
</g>
<!-- Node5 -->
<g id="node6" class="node">
<title>Node5</title>
<polygon fill="none" stroke="#bfbfbf" points="444.5,-6 444.5,-25 497.5,-25 497.5,-6 444.5,-6"/>
<text text-anchor="middle" x="471" y="-13" font-family="FreeSans.ttf" font-size="10.00" fill="#000000">cstddef</text>
</g>
<!-- Node4&#45;&gt;Node5 -->
<g id="edge6" class="edge">
<title>Node4&#45;&gt;Node5</title>
<path fill="none" stroke="#191970" d="M471,-72.9005C471,-63.149 471,-47.7597 471,-35.3695"/>
<polygon fill="#191970" stroke="#191970" points="474.5001,-35.0816 471,-25.0817 467.5001,-35.0817 474.5001,-35.0816"/>
</g>
<!-- Node7&#45;&gt;Node6 -->
<g id="edge9" class="edge">
<title>Node7&#45;&gt;Node6</title>
<path fill="none" stroke="#191970" d="M663.7888,-67.2967C658.2079,-58.9873 651.1719,-48.5115 644.8902,-39.1587"/>
<polygon fill="#191970" stroke="#191970" points="647.6519,-36.9931 639.1708,-30.6432 641.8409,-40.896 647.6519,-36.9931"/>
</g>
</g>
</svg>
