<?xml version="1.0" encoding="UTF-8" standalone="no"?>
<!DOCTYPE svg PUBLIC "-//W3C//DTD SVG 1.1//EN"
 "http://www.w3.org/Graphics/SVG/1.1/DTD/svg11.dtd">
<!-- Generated by graphviz version 2.40.1 (20161225.0304)
 -->
<!-- Title: Rotation.cpp Pages: 1 -->
<svg width="2170pt" height="643pt"
 viewBox="0.00 0.00 2170.00 643.00" xmlns="http://www.w3.org/2000/svg" xmlns:xlink="http://www.w3.org/1999/xlink">
<g id="graph0" class="graph" transform="scale(1 1) rotate(0) translate(4 639)">
<title>Rotation.cpp</title>
<!-- Node0 -->
<g id="node1" class="node">
<title>Node0</title>
<polygon fill="#bfbfbf" stroke="#000000" points="1253.5,-615.5 1253.5,-634.5 1330.5,-634.5 1330.5,-615.5 1253.5,-615.5"/>
<text text-anchor="middle" x="1292" y="-622.5" font-family="FreeSans.ttf" font-size="10.00" fill="#000000">Rotation.cpp</text>
</g>
<!-- Node1 -->
<g id="node2" class="node">
<title>Node1</title>
<g id="a_node2"><a xlink:href="AngularMotionVector3_8h.html" target="_top" xlink:title="iDynTree/Core/AngularMotion\lVector3.h">
<polygon fill="none" stroke="#000000" points="818,-425.5 818,-455.5 976,-455.5 976,-425.5 818,-425.5"/>
<text text-anchor="start" x="826" y="-443.5" font-family="FreeSans.ttf" font-size="10.00" fill="#000000">iDynTree/Core/AngularMotion</text>
<text text-anchor="middle" x="897" y="-432.5" font-family="FreeSans.ttf" font-size="10.00" fill="#000000">Vector3.h</text>
</a>
</g>
</g>
<!-- Node0&#45;&gt;Node1 -->
<g id="edge1" class="edge">
<title>Node0&#45;&gt;Node1</title>
<path fill="none" stroke="#191970" d="M1253.3582,-623.9515C1149.3334,-620.7329 869.3683,-609.3086 842,-579 811.5993,-545.3332 848.6401,-492.8157 875.0024,-463.061"/>
<polygon fill="#191970" stroke="#191970" points="877.6019,-465.4048 881.7582,-455.6592 872.4317,-460.6858 877.6019,-465.4048"/>
</g>
<!-- Node5 -->
<g id="node6" class="node">
<title>Node5</title>
<g id="a_node6"><a xlink:href="Utils_8h.html" target="_top" xlink:title="iDynTree/Core/Utils.h">
<polygon fill="none" stroke="#000000" points="264.5,-56.5 264.5,-75.5 383.5,-75.5 383.5,-56.5 264.5,-56.5"/>
<text text-anchor="middle" x="324" y="-63.5" font-family="FreeSans.ttf" font-size="10.00" fill="#000000">iDynTree/Core/Utils.h</text>
</a>
</g>
</g>
<!-- Node0&#45;&gt;Node5 -->
<g id="edge91" class="edge">
<title>Node0&#45;&gt;Node5</title>
<path fill="none" stroke="#191970" d="M1253.4794,-624.5775C1049.184,-622.2114 99.6877,-609.5973 46,-579 13.1709,-560.2903 0,-545.2863 0,-507.5 0,-507.5 0,-507.5 0,-178 0,-124.6678 158.795,-91.1168 254.0475,-75.7888"/>
<polygon fill="#191970" stroke="#191970" points="254.8644,-79.2033 264.1958,-74.1858 253.7722,-72.289 254.8644,-79.2033"/>
</g>
<!-- Node8 -->
<g id="node9" class="node">
<title>Node8</title>
<polygon fill="none" stroke="#bfbfbf" points="1553,-56.5 1553,-75.5 1605,-75.5 1605,-56.5 1553,-56.5"/>
<text text-anchor="middle" x="1579" y="-63.5" font-family="FreeSans.ttf" font-size="10.00" fill="#000000">cassert</text>
</g>
<!-- Node0&#45;&gt;Node8 -->
<g id="edge113" class="edge">
<title>Node0&#45;&gt;Node8</title>
<path fill="none" stroke="#191970" d="M1330.5295,-623.1268C1484.5876,-615.134 2048,-580.8863 2048,-507.5 2048,-507.5 2048,-507.5 2048,-178 2048,-166.8872 1725.1539,-97.117 1615.1805,-73.673"/>
<polygon fill="#191970" stroke="#191970" points="1615.7301,-70.2117 1605.2204,-71.5524 1614.2723,-77.0582 1615.7301,-70.2117"/>
</g>
<!-- Node17 -->
<g id="node18" class="node">
<title>Node17</title>
<polygon fill="none" stroke="#bfbfbf" points="1636,-56.5 1636,-75.5 1692,-75.5 1692,-56.5 1636,-56.5"/>
<text text-anchor="middle" x="1664" y="-63.5" font-family="FreeSans.ttf" font-size="10.00" fill="#000000">sstream</text>
</g>
<!-- Node0&#45;&gt;Node17 -->
<g id="edge115" class="edge">
<title>Node0&#45;&gt;Node17</title>
<path fill="none" stroke="#191970" d="M1330.7142,-623.4918C1447.4208,-618.725 1794.558,-602.8731 1905,-579 1989.541,-560.7256 2086,-593.9936 2086,-507.5 2086,-507.5 2086,-507.5 2086,-178 2086,-98.9454 1805.841,-74.3617 1702.0649,-67.9672"/>
<polygon fill="#191970" stroke="#191970" points="1702.2051,-64.4695 1692.0154,-67.3713 1701.7907,-71.4572 1702.2051,-64.4695"/>
</g>
<!-- Node19 -->
<g id="node20" class="node">
<title>Node19</title>
<g id="a_node20"><a xlink:href="Rotation_8h.html" target="_top" xlink:title="iDynTree/Core/Rotation.h">
<polygon fill="none" stroke="#000000" points="675.5,-230 675.5,-249 812.5,-249 812.5,-230 675.5,-230"/>
<text text-anchor="middle" x="744" y="-237" font-family="FreeSans.ttf" font-size="10.00" fill="#000000">iDynTree/Core/Rotation.h</text>
</a>
</g>
</g>
<!-- Node0&#45;&gt;Node19 -->
<g id="edge40" class="edge">
<title>Node0&#45;&gt;Node19</title>
<path fill="none" stroke="#191970" d="M1253.1338,-623.5104C1147.716,-619.1426 862.0481,-605.0084 829,-579 727.8488,-499.3954 735.9002,-319.0512 741.6864,-259.2098"/>
<polygon fill="#191970" stroke="#191970" points="745.1737,-259.5137 742.7471,-249.2005 738.2127,-258.7759 745.1737,-259.5137"/>
</g>
<!-- Node22 -->
<g id="node23" class="node">
<title>Node22</title>
<polygon fill="none" stroke="#bfbfbf" points="2094,-56.5 2094,-75.5 2154,-75.5 2154,-56.5 2094,-56.5"/>
<text text-anchor="middle" x="2124" y="-63.5" font-family="FreeSans.ttf" font-size="10.00" fill="#000000">iostream</text>
</g>
<!-- Node0&#45;&gt;Node22 -->
<g id="edge114" class="edge">
<title>Node0&#45;&gt;Node22</title>
<path fill="none" stroke="#191970" d="M1330.5376,-624.207C1458.436,-621.3058 1867.98,-609.7834 1996,-579 2074.1042,-560.2192 2162,-587.8305 2162,-507.5 2162,-507.5 2162,-507.5 2162,-178 2162,-143.6118 2145.7366,-106.2832 2134.489,-84.5791"/>
<polygon fill="#191970" stroke="#191970" points="2137.431,-82.6605 2129.607,-75.5166 2131.2683,-85.9804 2137.431,-82.6605"/>
</g>
<!-- Node25 -->
<g id="node26" class="node">
<title>Node25</title>
<g id="a_node26"><a xlink:href="ClassicalAcc_8h.html" target="_top" xlink:title="iDynTree/Core/ClassicalAcc.h">
<polygon fill="none" stroke="#000000" points="1706,-498 1706,-517 1864,-517 1864,-498 1706,-498"/>
<text text-anchor="middle" x="1785" y="-505" font-family="FreeSans.ttf" font-size="10.00" fill="#000000">iDynTree/Core/ClassicalAcc.h</text>
</a>
</g>
</g>
<!-- Node0&#45;&gt;Node25 -->
<g id="edge38" class="edge">
<title>Node0&#45;&gt;Node25</title>
<path fill="none" stroke="#191970" d="M1330.7652,-623.1788C1417.9557,-618.6603 1626.971,-605.3486 1692,-579 1722.6092,-566.5977 1751.7569,-541.2176 1769.0123,-524.278"/>
<polygon fill="#191970" stroke="#191970" points="1771.5093,-526.7306 1776.0662,-517.1658 1766.5392,-521.8013 1771.5093,-526.7306"/>
</g>
<!-- Node26 -->
<g id="node27" class="node">
<title>Node26</title>
<g id="a_node27"><a xlink:href="Axis_8h.html" target="_top" xlink:title="iDynTree/Core/Axis.h">
<polygon fill="none" stroke="#000000" points="177,-364 177,-383 295,-383 295,-364 177,-364"/>
<text text-anchor="middle" x="236" y="-371" font-family="FreeSans.ttf" font-size="10.00" fill="#000000">iDynTree/Core/Axis.h</text>
</a>
</g>
</g>
<!-- Node0&#45;&gt;Node26 -->
<g id="edge41" class="edge">
<title>Node0&#45;&gt;Node26</title>
<path fill="none" stroke="#191970" d="M1253.2981,-624.5404C1096.6915,-622.4601 514.7643,-612.5222 440,-579 347.6527,-537.594 274.3905,-434.2251 247.3063,-391.955"/>
<polygon fill="#191970" stroke="#191970" points="250.1169,-389.8495 241.8305,-383.2475 244.1912,-393.576 250.1169,-389.8495"/>
</g>
<!-- Node27 -->
<g id="node28" class="node">
<title>Node27</title>
<g id="a_node28"><a xlink:href="Direction_8h.html" target="_top" xlink:title="iDynTree/Core/Direction.h">
<polygon fill="none" stroke="#000000" points="66.5,-230 66.5,-249 207.5,-249 207.5,-230 66.5,-230"/>
<text text-anchor="middle" x="137" y="-237" font-family="FreeSans.ttf" font-size="10.00" fill="#000000">iDynTree/Core/Direction.h</text>
</a>
</g>
</g>
<!-- Node0&#45;&gt;Node27 -->
<g id="edge56" class="edge">
<title>Node0&#45;&gt;Node27</title>
<path fill="none" stroke="#191970" d="M1253.4135,-623.7383C1104.9679,-618.7706 570.6226,-599.8115 402,-579 238.3723,-558.805 38,-672.3693 38,-507.5 38,-507.5 38,-507.5 38,-373.5 38,-322.1649 85.5835,-277.6034 114.7728,-255.0972"/>
<polygon fill="#191970" stroke="#191970" points="116.897,-257.8792 122.8157,-249.0917 112.7089,-252.2702 116.897,-257.8792"/>
</g>
<!-- Node28 -->
<g id="node29" class="node">
<title>Node28</title>
<g id="a_node29"><a xlink:href="Position_8h.html" target="_top" xlink:title="iDynTree/Core/Position.h">
<polygon fill="none" stroke="#000000" points="387,-297 387,-316 523,-316 523,-297 387,-297"/>
<text text-anchor="middle" x="455" y="-304" font-family="FreeSans.ttf" font-size="10.00" fill="#000000">iDynTree/Core/Position.h</text>
</a>
</g>
</g>
<!-- Node0&#45;&gt;Node28 -->
<g id="edge57" class="edge">
<title>Node0&#45;&gt;Node28</title>
<path fill="none" stroke="#191970" d="M1253.2366,-624.6534C1124.607,-623.1641 712.8721,-615.5847 586,-579 521.8918,-560.5138 454,-574.2203 454,-507.5 454,-507.5 454,-507.5 454,-440.5 454,-399.9688 454.4631,-352.5436 454.759,-326.3792"/>
<polygon fill="#191970" stroke="#191970" points="458.2602,-326.2918 454.8774,-316.2516 451.2607,-326.21 458.2602,-326.2918"/>
</g>
<!-- Node31 -->
<g id="node32" class="node">
<title>Node31</title>
<g id="a_node32"><a xlink:href="Wrench_8h.html" target="_top" xlink:title="iDynTree/Core/Wrench.h">
<polygon fill="none" stroke="#000000" points="1375.5,-559.5 1375.5,-578.5 1508.5,-578.5 1508.5,-559.5 1375.5,-559.5"/>
<text text-anchor="middle" x="1442" y="-566.5" font-family="FreeSans.ttf" font-size="10.00" fill="#000000">iDynTree/Core/Wrench.h</text>
</a>
</g>
</g>
<!-- Node0&#45;&gt;Node31 -->
<g id="edge58" class="edge">
<title>Node0&#45;&gt;Node31</title>
<path fill="none" stroke="#191970" d="M1317.7859,-615.3733C1342.4047,-606.1822 1379.69,-592.2624 1406.9875,-582.0713"/>
<polygon fill="#191970" stroke="#191970" points="1408.4063,-585.2777 1416.5506,-578.5011 1405.958,-578.7198 1408.4063,-585.2777"/>
</g>
<!-- Node38 -->
<g id="node38" class="node">
<title>Node38</title>
<g id="a_node38"><a xlink:href="PrivateSemanticsMacros_8h.html" target="_top" xlink:title="iDynTree/Core/PrivateSemantics\lMacros.h">
<polygon fill="none" stroke="#000000" points="1656.5,-291.5 1656.5,-321.5 1829.5,-321.5 1829.5,-291.5 1656.5,-291.5"/>
<text text-anchor="start" x="1664.5" y="-309.5" font-family="FreeSans.ttf" font-size="10.00" fill="#000000">iDynTree/Core/PrivateSemantics</text>
<text text-anchor="middle" x="1743" y="-298.5" font-family="FreeSans.ttf" font-size="10.00" fill="#000000">Macros.h</text>
</a>
</g>
</g>
<!-- Node0&#45;&gt;Node38 -->
<g id="edge92" class="edge">
<title>Node0&#45;&gt;Node38</title>
<path fill="none" stroke="#191970" d="M1330.7318,-621.0115C1380.366,-615.1869 1468.6406,-602.4096 1541,-579 1596.2321,-561.1314 1619.4771,-565.5184 1659,-523 1710.8745,-467.1939 1731.9368,-375.7964 1739.4093,-331.7686"/>
<polygon fill="#191970" stroke="#191970" points="1742.9049,-332.0733 1741.0267,-321.6463 1735.9926,-330.9687 1742.9049,-332.0733"/>
</g>
<!-- Node39 -->
<g id="node39" class="node">
<title>Node39</title>
<g id="a_node39"><a xlink:href="RotationalInertiaRaw_8h.html" target="_top" xlink:title="iDynTree/Core/Rotational\lInertiaRaw.h">
<polygon fill="none" stroke="#000000" points="1882.5,-492.5 1882.5,-522.5 2019.5,-522.5 2019.5,-492.5 1882.5,-492.5"/>
<text text-anchor="start" x="1890.5" y="-510.5" font-family="FreeSans.ttf" font-size="10.00" fill="#000000">iDynTree/Core/Rotational</text>
<text text-anchor="middle" x="1951" y="-499.5" font-family="FreeSans.ttf" font-size="10.00" fill="#000000">InertiaRaw.h</text>
</a>
</g>
</g>
<!-- Node0&#45;&gt;Node39 -->
<g id="edge76" class="edge">
<title>Node0&#45;&gt;Node39</title>
<path fill="none" stroke="#191970" d="M1330.7389,-623.4305C1406.7028,-619.7903 1580.2565,-608.6949 1723,-579 1785.8113,-565.9333 1855.9412,-542.5602 1901.6242,-526.1018"/>
<polygon fill="#191970" stroke="#191970" points="1903.0685,-529.301 1911.2728,-522.5973 1900.6787,-522.7215 1903.0685,-529.301"/>
</g>
<!-- Node40 -->
<g id="node40" class="node">
<title>Node40</title>
<g id="a_node40"><a xlink:href="Twist_8h.html" target="_top" xlink:title="iDynTree/Core/Twist.h">
<polygon fill="none" stroke="#000000" points="1017,-559.5 1017,-578.5 1139,-578.5 1139,-559.5 1017,-559.5"/>
<text text-anchor="middle" x="1078" y="-566.5" font-family="FreeSans.ttf" font-size="10.00" fill="#000000">iDynTree/Core/Twist.h</text>
</a>
</g>
</g>
<!-- Node0&#45;&gt;Node40 -->
<g id="edge78" class="edge">
<title>Node0&#45;&gt;Node40</title>
<path fill="none" stroke="#191970" d="M1255.2121,-615.3733C1218.9339,-605.8799 1163.3764,-591.3415 1124.1554,-581.0781"/>
<polygon fill="#191970" stroke="#191970" points="1124.8682,-577.6468 1114.3079,-578.5011 1123.096,-584.4188 1124.8682,-577.6468"/>
</g>
<!-- Node43 -->
<g id="node43" class="node">
<title>Node43</title>
<g id="a_node43"><a xlink:href="SpatialAcc_8h.html" target="_top" xlink:title="iDynTree/Core/SpatialAcc.h">
<polygon fill="none" stroke="#000000" points="851,-559.5 851,-578.5 999,-578.5 999,-559.5 851,-559.5"/>
<text text-anchor="middle" x="925" y="-566.5" font-family="FreeSans.ttf" font-size="10.00" fill="#000000">iDynTree/Core/SpatialAcc.h</text>
</a>
</g>
</g>
<!-- Node0&#45;&gt;Node43 -->
<g id="edge87" class="edge">
<title>Node0&#45;&gt;Node43</title>
<path fill="none" stroke="#191970" d="M1253.4182,-619.1129C1192.8305,-609.8679 1074.3728,-591.7926 997.5169,-580.0652"/>
<polygon fill="#191970" stroke="#191970" points="997.839,-576.574 987.4254,-578.5254 996.783,-583.4939 997.839,-576.574"/>
</g>
<!-- Node44 -->
<g id="node44" class="node">
<title>Node44</title>
<g id="a_node44"><a xlink:href="SpatialMomentum_8h.html" target="_top" xlink:title="iDynTree/Core/SpatialMomentum.h">
<polygon fill="none" stroke="#000000" points="1464,-498 1464,-517 1650,-517 1650,-498 1464,-498"/>
<text text-anchor="middle" x="1557" y="-505" font-family="FreeSans.ttf" font-size="10.00" fill="#000000">iDynTree/Core/SpatialMomentum.h</text>
</a>
</g>
</g>
<!-- Node0&#45;&gt;Node44 -->
<g id="edge89" class="edge">
<title>Node0&#45;&gt;Node44</title>
<path fill="none" stroke="#191970" d="M1330.6534,-621.0051C1386.9001,-614.5497 1487.7892,-600.3518 1517,-579 1534.5206,-566.1932 1545.3654,-543.2537 1551.2683,-526.8091"/>
<polygon fill="#191970" stroke="#191970" points="1554.6579,-527.7052 1554.4542,-517.1124 1548.0076,-525.5202 1554.6579,-527.7052"/>
</g>
<!-- Node45 -->
<g id="node45" class="node">
<title>Node45</title>
<g id="a_node45"><a xlink:href="EigenHelpers_8h.html" target="_top" xlink:title="iDynTree/Core/EigenHelpers.h">
<polygon fill="none" stroke="#000000" points="1157.5,-559.5 1157.5,-578.5 1318.5,-578.5 1318.5,-559.5 1157.5,-559.5"/>
<text text-anchor="middle" x="1238" y="-566.5" font-family="FreeSans.ttf" font-size="10.00" fill="#000000">iDynTree/Core/EigenHelpers.h</text>
</a>
</g>
</g>
<!-- Node0&#45;&gt;Node45 -->
<g id="edge93" class="edge">
<title>Node0&#45;&gt;Node45</title>
<path fill="none" stroke="#191970" d="M1282.5939,-615.2455C1274.8507,-607.2155 1263.688,-595.6394 1254.4682,-586.0781"/>
<polygon fill="#191970" stroke="#191970" points="1256.7591,-583.4117 1247.2983,-578.6427 1251.7202,-588.2706 1256.7591,-583.4117"/>
</g>
<!-- Node46 -->
<g id="node46" class="node">
<title>Node46</title>
<polygon fill="none" stroke="#bfbfbf" points="1330.5,-498 1330.5,-517 1407.5,-517 1407.5,-498 1330.5,-498"/>
<text text-anchor="middle" x="1369" y="-505" font-family="FreeSans.ttf" font-size="10.00" fill="#000000">Eigen/Dense</text>
</g>
<!-- Node0&#45;&gt;Node46 -->
<g id="edge112" class="edge">
<title>Node0&#45;&gt;Node46</title>
<path fill="none" stroke="#191970" d="M1299.8579,-615.378C1307.191,-606.2388 1318.2804,-592.0013 1327,-579 1338.5971,-561.7081 1350.4955,-541.1341 1358.6535,-526.5054"/>
<polygon fill="#191970" stroke="#191970" points="1361.8882,-527.8876 1363.654,-517.441 1355.759,-524.5063 1361.8882,-527.8876"/>
</g>
<!-- Node2 -->
<g id="node3" class="node">
<title>Node2</title>
<g id="a_node3"><a xlink:href="MotionVector3_8h.html" target="_top" xlink:title="iDynTree/Core/MotionVector3.h">
<polygon fill="none" stroke="#000000" points="929.5,-364 929.5,-383 1096.5,-383 1096.5,-364 929.5,-364"/>
<text text-anchor="middle" x="1013" y="-371" font-family="FreeSans.ttf" font-size="10.00" fill="#000000">iDynTree/Core/MotionVector3.h</text>
</a>
</g>
</g>
<!-- Node1&#45;&gt;Node2 -->
<g id="edge2" class="edge">
<title>Node1&#45;&gt;Node2</title>
<path fill="none" stroke="#191970" d="M923.0327,-425.4639C942.3206,-414.3234 968.4678,-399.2212 987.6028,-388.1691"/>
<polygon fill="#191970" stroke="#191970" points="989.4635,-391.1363 996.3723,-383.1039 985.9624,-385.0747 989.4635,-391.1363"/>
</g>
<!-- Node24 -->
<g id="node25" class="node">
<title>Node24</title>
<g id="a_node25"><a xlink:href="PrivateMotionForceVertorAssociations_8h.html" target="_top" xlink:title="iDynTree/Core/PrivateMotion\lForceVertorAssociations.h">
<polygon fill="none" stroke="#000000" points="1084.5,-224.5 1084.5,-254.5 1239.5,-254.5 1239.5,-224.5 1084.5,-224.5"/>
<text text-anchor="start" x="1092.5" y="-242.5" font-family="FreeSans.ttf" font-size="10.00" fill="#000000">iDynTree/Core/PrivateMotion</text>
<text text-anchor="middle" x="1162" y="-231.5" font-family="FreeSans.ttf" font-size="10.00" fill="#000000">ForceVertorAssociations.h</text>
</a>
</g>
</g>
<!-- Node1&#45;&gt;Node24 -->
<g id="edge37" class="edge">
<title>Node1&#45;&gt;Node24</title>
<path fill="none" stroke="#191970" d="M897.1269,-425.3469C898.1,-407.0432 902.4748,-376.4217 920,-358 954.874,-321.3421 982.9632,-345.0584 1028,-322 1048.9709,-311.2631 1051.1627,-303.7099 1071,-291 1088.1526,-280.0102 1107.7534,-268.7593 1124.3602,-259.5879"/>
<polygon fill="#191970" stroke="#191970" points="1126.1548,-262.5956 1133.2435,-254.7215 1122.7917,-256.4564 1126.1548,-262.5956"/>
</g>
<!-- Node3 -->
<g id="node4" class="node">
<title>Node3</title>
<g id="a_node4"><a xlink:href="GeomVector3_8h.html" target="_top" xlink:title="iDynTree/Core/GeomVector3.h">
<polygon fill="none" stroke="#000000" points="856.5,-297 856.5,-316 1019.5,-316 1019.5,-297 856.5,-297"/>
<text text-anchor="middle" x="938" y="-304" font-family="FreeSans.ttf" font-size="10.00" fill="#000000">iDynTree/Core/GeomVector3.h</text>
</a>
</g>
</g>
<!-- Node2&#45;&gt;Node3 -->
<g id="edge3" class="edge">
<title>Node2&#45;&gt;Node3</title>
<path fill="none" stroke="#191970" d="M1002.2543,-363.9005C990.336,-353.2535 970.8943,-335.8856 956.5132,-323.0385"/>
<polygon fill="#191970" stroke="#191970" points="958.5151,-320.1337 948.7257,-316.0817 953.8516,-325.354 958.5151,-320.1337"/>
</g>
<!-- Node2&#45;&gt;Node24 -->
<g id="edge36" class="edge">
<title>Node2&#45;&gt;Node24</title>
<path fill="none" stroke="#191970" d="M1023.7157,-363.8631C1047.3372,-342.6196 1104.4004,-291.301 1137.3696,-261.6509"/>
<polygon fill="#191970" stroke="#191970" points="1140.1024,-263.9004 1145.1974,-254.611 1135.4216,-258.6955 1140.1024,-263.9004"/>
</g>
<!-- Node4 -->
<g id="node5" class="node">
<title>Node4</title>
<g id="a_node5"><a xlink:href="VectorFixSize_8h.html" target="_top" xlink:title="iDynTree/Core/VectorFixSize.h">
<polygon fill="none" stroke="#000000" points="1274.5,-168.5 1274.5,-187.5 1435.5,-187.5 1435.5,-168.5 1274.5,-168.5"/>
<text text-anchor="middle" x="1355" y="-175.5" font-family="FreeSans.ttf" font-size="10.00" fill="#000000">iDynTree/Core/VectorFixSize.h</text>
</a>
</g>
</g>
<!-- Node3&#45;&gt;Node4 -->
<g id="edge4" class="edge">
<title>Node3&#45;&gt;Node4</title>
<path fill="none" stroke="#191970" d="M950.3855,-296.7852C973.4641,-279.2195 1025.2295,-242.3048 1075,-224 1109.3728,-211.3582 1198.2728,-197.8837 1266.7648,-188.8084"/>
<polygon fill="#191970" stroke="#191970" points="1267.2541,-192.2743 1276.7132,-187.502 1266.3426,-185.3339 1267.2541,-192.2743"/>
</g>
<!-- Node3&#45;&gt;Node19 -->
<g id="edge21" class="edge">
<title>Node3&#45;&gt;Node19</title>
<path fill="none" stroke="#191970" d="M910.2045,-296.9005C876.3504,-285.2086 819.0293,-265.4122 781.3453,-252.3976"/>
<polygon fill="#191970" stroke="#191970" points="782.3387,-249.0379 771.7439,-249.0817 780.0535,-255.6544 782.3387,-249.0379"/>
</g>
<!-- Node3&#45;&gt;Node24 -->
<g id="edge35" class="edge">
<title>Node3&#45;&gt;Node24</title>
<path fill="none" stroke="#191970" d="M970.0937,-296.9005C1004.4363,-286.6284 1059.6935,-270.1006 1102.1145,-257.4122"/>
<polygon fill="#191970" stroke="#191970" points="1103.2004,-260.7407 1111.778,-254.5218 1101.1944,-254.0342 1103.2004,-260.7407"/>
</g>
<!-- Node4&#45;&gt;Node5 -->
<g id="edge5" class="edge">
<title>Node4&#45;&gt;Node5</title>
<path fill="none" stroke="#191970" d="M1299.2991,-168.5C1249.9119,-159.8286 1175.9139,-146.2283 1112,-132 1077.067,-124.2233 1069.3432,-117.6257 1034,-112 912.1448,-92.6037 548.0668,-75.4658 394.0458,-68.8744"/>
<polygon fill="#191970" stroke="#191970" points="393.9069,-65.3654 383.7671,-68.4368 393.6092,-72.359 393.9069,-65.3654"/>
</g>
<!-- Node7 -->
<g id="node8" class="node">
<title>Node7</title>
<g id="a_node8"><a xlink:href="Span_8h.html" target="_top" xlink:title="iDynTree/Core/Span.h">
<polygon fill="none" stroke="#000000" points="1233.5,-112.5 1233.5,-131.5 1354.5,-131.5 1354.5,-112.5 1233.5,-112.5"/>
<text text-anchor="middle" x="1294" y="-119.5" font-family="FreeSans.ttf" font-size="10.00" fill="#000000">iDynTree/Core/Span.h</text>
</a>
</g>
</g>
<!-- Node4&#45;&gt;Node7 -->
<g id="edge7" class="edge">
<title>Node4&#45;&gt;Node7</title>
<path fill="none" stroke="#191970" d="M1344.3746,-168.2455C1335.4527,-160.0549 1322.512,-148.1749 1311.9808,-138.5069"/>
<polygon fill="#191970" stroke="#191970" points="1314.2371,-135.8271 1304.5036,-131.6427 1309.5032,-140.9837 1314.2371,-135.8271"/>
</g>
<!-- Node4&#45;&gt;Node8 -->
<g id="edge19" class="edge">
<title>Node4&#45;&gt;Node8</title>
<path fill="none" stroke="#191970" d="M1364.9288,-168.422C1380.0254,-154.3165 1410.1611,-127.9122 1440,-112 1458.0154,-102.3929 1508.155,-86.7295 1543.0083,-76.3936"/>
<polygon fill="#191970" stroke="#191970" points="1544.2331,-79.6816 1552.8373,-73.4994 1542.2558,-72.9667 1544.2331,-79.6816"/>
</g>
<!-- Node16 -->
<g id="node17" class="node">
<title>Node16</title>
<polygon fill="none" stroke="#bfbfbf" points="634,-56.5 634,-75.5 678,-75.5 678,-56.5 634,-56.5"/>
<text text-anchor="middle" x="656" y="-63.5" font-family="FreeSans.ttf" font-size="10.00" fill="#000000">string</text>
</g>
<!-- Node4&#45;&gt;Node16 -->
<g id="edge17" class="edge">
<title>Node4&#45;&gt;Node16</title>
<path fill="none" stroke="#191970" d="M1326.6714,-168.4869C1282.2925,-153.9703 1193.4367,-126.4556 1116,-112 957.3317,-82.3804 764.0728,-70.9096 688.4916,-67.3523"/>
<polygon fill="#191970" stroke="#191970" points="688.3613,-63.8428 678.2123,-66.8837 688.0425,-70.8356 688.3613,-63.8428"/>
</g>
<!-- Node4&#45;&gt;Node17 -->
<g id="edge18" class="edge">
<title>Node4&#45;&gt;Node17</title>
<path fill="none" stroke="#191970" d="M1435.5945,-170.876C1501.7811,-163.7787 1589.2787,-151.1531 1619,-132 1636.2383,-120.8912 1648.5766,-100.5943 1655.9238,-85.4306"/>
<polygon fill="#191970" stroke="#191970" points="1659.2886,-86.4834 1660.2119,-75.9288 1652.9083,-83.6039 1659.2886,-86.4834"/>
</g>
<!-- Node18 -->
<g id="node19" class="node">
<title>Node18</title>
<polygon fill="none" stroke="#bfbfbf" points="1485,-56.5 1485,-75.5 1535,-75.5 1535,-56.5 1485,-56.5"/>
<text text-anchor="middle" x="1510" y="-63.5" font-family="FreeSans.ttf" font-size="10.00" fill="#000000">cstring</text>
</g>
<!-- Node4&#45;&gt;Node18 -->
<g id="edge20" class="edge">
<title>Node4&#45;&gt;Node18</title>
<path fill="none" stroke="#191970" d="M1360.5508,-168.2693C1368.9926,-154.2097 1386.2852,-128.1353 1407,-112 1427.407,-96.1045 1454.1748,-84.3662 1475.3074,-76.7267"/>
<polygon fill="#191970" stroke="#191970" points="1476.5768,-79.9911 1484.8761,-73.4053 1474.2813,-73.3781 1476.5768,-79.9911"/>
</g>
<!-- Node6 -->
<g id="node7" class="node">
<title>Node6</title>
<polygon fill="none" stroke="#bfbfbf" points="606.5,-.5 606.5,-19.5 659.5,-19.5 659.5,-.5 606.5,-.5"/>
<text text-anchor="middle" x="633" y="-7.5" font-family="FreeSans.ttf" font-size="10.00" fill="#000000">cstddef</text>
</g>
<!-- Node5&#45;&gt;Node6 -->
<g id="edge6" class="edge">
<title>Node5&#45;&gt;Node6</title>
<path fill="none" stroke="#191970" d="M376.7679,-56.4369C439.2747,-45.1088 541.7735,-26.5329 596.2596,-16.6585"/>
<polygon fill="#191970" stroke="#191970" points="596.9569,-20.0892 606.1724,-14.862 595.7085,-13.2014 596.9569,-20.0892"/>
</g>
<!-- Node7&#45;&gt;Node6 -->
<g id="edge11" class="edge">
<title>Node7&#45;&gt;Node6</title>
<path fill="none" stroke="#191970" d="M1245.1285,-112.4246C1208.8504,-104.5878 1158.5133,-92.166 1116,-76 1097.7923,-69.0764 1095.6744,-61.5431 1077,-56 1000.8922,-33.4091 762.2056,-17.5139 669.9284,-12.0673"/>
<polygon fill="#191970" stroke="#191970" points="669.862,-8.5575 659.6753,-11.4697 669.4547,-15.5457 669.862,-8.5575"/>
</g>
<!-- Node7&#45;&gt;Node8 -->
<g id="edge8" class="edge">
<title>Node7&#45;&gt;Node8</title>
<path fill="none" stroke="#191970" d="M1354.705,-112.5124C1403.2587,-104.5404 1473.2399,-92.1954 1542.8764,-76.1041"/>
<polygon fill="#191970" stroke="#191970" points="1543.7567,-79.4928 1552.6978,-73.8088 1542.1637,-72.6764 1543.7567,-79.4928"/>
</g>
<!-- Node9 -->
<g id="node10" class="node">
<title>Node9</title>
<polygon fill="none" stroke="#bfbfbf" points="1125,-56.5 1125,-75.5 1189,-75.5 1189,-56.5 1125,-56.5"/>
<text text-anchor="middle" x="1157" y="-63.5" font-family="FreeSans.ttf" font-size="10.00" fill="#000000">algorithm</text>
</g>
<!-- Node7&#45;&gt;Node9 -->
<g id="edge9" class="edge">
<title>Node7&#45;&gt;Node9</title>
<path fill="none" stroke="#191970" d="M1270.4489,-112.3733C1248.1609,-103.2629 1214.5063,-89.5062 1189.6363,-79.3404"/>
<polygon fill="#191970" stroke="#191970" points="1190.8247,-76.0451 1180.2438,-75.5011 1188.1761,-82.5247 1190.8247,-76.0451"/>
</g>
<!-- Node10 -->
<g id="node11" class="node">
<title>Node10</title>
<polygon fill="none" stroke="#bfbfbf" points="1207,-56.5 1207,-75.5 1249,-75.5 1249,-56.5 1207,-56.5"/>
<text text-anchor="middle" x="1228" y="-63.5" font-family="FreeSans.ttf" font-size="10.00" fill="#000000">array</text>
</g>
<!-- Node7&#45;&gt;Node10 -->
<g id="edge10" class="edge">
<title>Node7&#45;&gt;Node10</title>
<path fill="none" stroke="#191970" d="M1282.5037,-112.2455C1272.7558,-103.9746 1258.5741,-91.9416 1247.1202,-82.2232"/>
<polygon fill="#191970" stroke="#191970" points="1249.2541,-79.4437 1239.3646,-75.6427 1244.7253,-84.7813 1249.2541,-79.4437"/>
</g>
<!-- Node11 -->
<g id="node12" class="node">
<title>Node11</title>
<polygon fill="none" stroke="#bfbfbf" points="1267.5,-56.5 1267.5,-75.5 1320.5,-75.5 1320.5,-56.5 1267.5,-56.5"/>
<text text-anchor="middle" x="1294" y="-63.5" font-family="FreeSans.ttf" font-size="10.00" fill="#000000">iterator</text>
</g>
<!-- Node7&#45;&gt;Node11 -->
<g id="edge12" class="edge">
<title>Node7&#45;&gt;Node11</title>
<path fill="none" stroke="#191970" d="M1294,-112.2455C1294,-104.9382 1294,-94.6944 1294,-85.7046"/>
<polygon fill="#191970" stroke="#191970" points="1297.5001,-85.6426 1294,-75.6427 1290.5001,-85.6427 1297.5001,-85.6426"/>
</g>
<!-- Node12 -->
<g id="node13" class="node">
<title>Node12</title>
<polygon fill="none" stroke="#bfbfbf" points="1339,-56.5 1339,-75.5 1383,-75.5 1383,-56.5 1339,-56.5"/>
<text text-anchor="middle" x="1361" y="-63.5" font-family="FreeSans.ttf" font-size="10.00" fill="#000000">limits</text>
</g>
<!-- Node7&#45;&gt;Node12 -->
<g id="edge13" class="edge">
<title>Node7&#45;&gt;Node12</title>
<path fill="none" stroke="#191970" d="M1305.6705,-112.2455C1315.5661,-103.9746 1329.9627,-91.9416 1341.5901,-82.2232"/>
<polygon fill="#191970" stroke="#191970" points="1344.035,-84.7413 1349.4632,-75.6427 1339.5458,-79.3703 1344.035,-84.7413"/>
</g>
<!-- Node13 -->
<g id="node14" class="node">
<title>Node13</title>
<polygon fill="none" stroke="#bfbfbf" points="1401.5,-56.5 1401.5,-75.5 1466.5,-75.5 1466.5,-56.5 1401.5,-56.5"/>
<text text-anchor="middle" x="1434" y="-63.5" font-family="FreeSans.ttf" font-size="10.00" fill="#000000">stdexcept</text>
</g>
<!-- Node7&#45;&gt;Node13 -->
<g id="edge14" class="edge">
<title>Node7&#45;&gt;Node13</title>
<path fill="none" stroke="#191970" d="M1318.0669,-112.3733C1340.8428,-103.2629 1375.2344,-89.5062 1400.649,-79.3404"/>
<polygon fill="#191970" stroke="#191970" points="1402.2623,-82.4648 1410.2472,-75.5011 1399.6625,-75.9654 1402.2623,-82.4648"/>
</g>
<!-- Node14 -->
<g id="node15" class="node">
<title>Node14</title>
<polygon fill="none" stroke="#bfbfbf" points="936.5,-56.5 936.5,-75.5 1005.5,-75.5 1005.5,-56.5 936.5,-56.5"/>
<text text-anchor="middle" x="971" y="-63.5" font-family="FreeSans.ttf" font-size="10.00" fill="#000000">type_traits</text>
</g>
<!-- Node7&#45;&gt;Node14 -->
<g id="edge15" class="edge">
<title>Node7&#45;&gt;Node14</title>
<path fill="none" stroke="#191970" d="M1233.4391,-113.225C1178.9194,-105.0592 1096.3748,-92.0396 1015.9913,-76.3072"/>
<polygon fill="#191970" stroke="#191970" points="1016.1801,-72.777 1005.6915,-74.2738 1014.8243,-79.6444 1016.1801,-72.777"/>
</g>
<!-- Node15 -->
<g id="node16" class="node">
<title>Node15</title>
<polygon fill="none" stroke="#bfbfbf" points="1023.5,-56.5 1023.5,-75.5 1068.5,-75.5 1068.5,-56.5 1023.5,-56.5"/>
<text text-anchor="middle" x="1046" y="-63.5" font-family="FreeSans.ttf" font-size="10.00" fill="#000000">utility</text>
</g>
<!-- Node7&#45;&gt;Node15 -->
<g id="edge16" class="edge">
<title>Node7&#45;&gt;Node15</title>
<path fill="none" stroke="#191970" d="M1246.9171,-112.4293C1204.0551,-103.5521 1139.0928,-89.6857 1083,-76 1081.5455,-75.6451 1080.0609,-75.2754 1078.5626,-74.8961"/>
<polygon fill="#191970" stroke="#191970" points="1079.2122,-71.4485 1068.6526,-72.3119 1077.4458,-78.222 1079.2122,-71.4485"/>
</g>
<!-- Node19&#45;&gt;Node4 -->
<g id="edge34" class="edge">
<title>Node19&#45;&gt;Node4</title>
<path fill="none" stroke="#191970" d="M812.7156,-232.9753C910.4633,-223.6343 1095.5571,-205.7265 1264.006,-188.0944"/>
<polygon fill="#191970" stroke="#191970" points="1264.4715,-191.5649 1274.052,-187.0411 1263.7415,-184.603 1264.4715,-191.5649"/>
</g>
<!-- Node19&#45;&gt;Node16 -->
<g id="edge22" class="edge">
<title>Node19&#45;&gt;Node16</title>
<path fill="none" stroke="#191970" d="M764.5515,-229.9229C801.4206,-212.8176 877.5139,-177.879 905,-168 961.0158,-147.8669 998.0088,-179.4104 1034,-132 1039.3747,-124.9201 1039.8935,-118.6542 1034,-112 1011.1996,-86.2567 775.7519,-71.9726 688.3897,-67.5264"/>
<polygon fill="#191970" stroke="#191970" points="688.4193,-64.0236 678.2574,-67.0212 688.0707,-71.0149 688.4193,-64.0236"/>
</g>
<!-- Node20 -->
<g id="node21" class="node">
<title>Node20</title>
<g id="a_node21"><a xlink:href="RotationRaw_8h.html" target="_top" xlink:title="iDynTree/Core/RotationRaw.h">
<polygon fill="none" stroke="#000000" points="914,-168.5 914,-187.5 1072,-187.5 1072,-168.5 914,-168.5"/>
<text text-anchor="middle" x="993" y="-175.5" font-family="FreeSans.ttf" font-size="10.00" fill="#000000">iDynTree/Core/RotationRaw.h</text>
</a>
</g>
</g>
<!-- Node19&#45;&gt;Node20 -->
<g id="edge23" class="edge">
<title>Node19&#45;&gt;Node20</title>
<path fill="none" stroke="#191970" d="M782.633,-229.9581C826.2481,-219.1857 897.2753,-201.6428 944.5641,-189.9631"/>
<polygon fill="#191970" stroke="#191970" points="945.4073,-193.3601 954.2763,-187.5643 943.7288,-186.5643 945.4073,-193.3601"/>
</g>
<!-- Node23 -->
<g id="node24" class="node">
<title>Node23</title>
<g id="a_node24"><a xlink:href="RotationSemantics_8h.html" target="_top" xlink:title="iDynTree/Core/RotationSemantics.h">
<polygon fill="none" stroke="#000000" points="837,-112.5 837,-131.5 1025,-131.5 1025,-112.5 837,-112.5"/>
<text text-anchor="middle" x="931" y="-119.5" font-family="FreeSans.ttf" font-size="10.00" fill="#000000">iDynTree/Core/RotationSemantics.h</text>
</a>
</g>
</g>
<!-- Node19&#45;&gt;Node23 -->
<g id="edge32" class="edge">
<title>Node19&#45;&gt;Node23</title>
<path fill="none" stroke="#191970" d="M759.303,-229.8845C791.8471,-209.4356 868.1315,-161.5029 907.1293,-136.999"/>
<polygon fill="#191970" stroke="#191970" points="909.1427,-139.8675 915.7478,-131.5836 905.4184,-133.9404 909.1427,-139.8675"/>
</g>
<!-- Node20&#45;&gt;Node16 -->
<g id="edge31" class="edge">
<title>Node20&#45;&gt;Node16</title>
<path fill="none" stroke="#191970" d="M1018.0487,-168.4742C1046.5484,-156.2773 1086.7382,-134.0706 1067,-112 1041.8504,-83.8786 780.9602,-70.9265 688.3717,-67.1908"/>
<polygon fill="#191970" stroke="#191970" points="688.3205,-63.6862 678.1905,-66.79 688.0451,-70.6808 688.3205,-63.6862"/>
</g>
<!-- Node21 -->
<g id="node22" class="node">
<title>Node21</title>
<g id="a_node22"><a xlink:href="MatrixFixSize_8h.html" target="_top" xlink:title="iDynTree/Core/MatrixFixSize.h">
<polygon fill="none" stroke="#000000" points="1449.5,-112.5 1449.5,-131.5 1610.5,-131.5 1610.5,-112.5 1449.5,-112.5"/>
<text text-anchor="middle" x="1530" y="-119.5" font-family="FreeSans.ttf" font-size="10.00" fill="#000000">iDynTree/Core/MatrixFixSize.h</text>
</a>
</g>
</g>
<!-- Node20&#45;&gt;Node21 -->
<g id="edge24" class="edge">
<title>Node20&#45;&gt;Node21</title>
<path fill="none" stroke="#191970" d="M1072.1813,-168.8559C1074.8186,-168.565 1077.4305,-168.279 1080,-168 1204.5425,-154.4774 1348.6021,-139.9463 1439.4976,-130.9141"/>
<polygon fill="#191970" stroke="#191970" points="1439.8867,-134.3927 1449.4919,-129.9218 1439.195,-127.427 1439.8867,-134.3927"/>
</g>
<!-- Node21&#45;&gt;Node5 -->
<g id="edge25" class="edge">
<title>Node21&#45;&gt;Node5</title>
<path fill="none" stroke="#191970" d="M1449.3195,-116.9146C1421.9258,-115.2557 1391.1355,-113.4651 1363,-112 998.287,-93.0081 561.291,-75.3114 393.9074,-68.719"/>
<polygon fill="#191970" stroke="#191970" points="393.8813,-65.2154 383.7515,-68.3196 393.6062,-72.21 393.8813,-65.2154"/>
</g>
<!-- Node21&#45;&gt;Node8 -->
<g id="edge26" class="edge">
<title>Node21&#45;&gt;Node8</title>
<path fill="none" stroke="#191970" d="M1538.5351,-112.2455C1545.4912,-104.2958 1555.4883,-92.8706 1563.8051,-83.3656"/>
<polygon fill="#191970" stroke="#191970" points="1566.6116,-85.4732 1570.5627,-75.6427 1561.3436,-80.8637 1566.6116,-85.4732"/>
</g>
<!-- Node21&#45;&gt;Node16 -->
<g id="edge28" class="edge">
<title>Node21&#45;&gt;Node16</title>
<path fill="none" stroke="#191970" d="M1449.3428,-116.832C1263.7415,-104.94 812.7888,-76.046 688.3001,-68.0696"/>
<polygon fill="#191970" stroke="#191970" points="688.4652,-64.5731 678.2618,-67.4264 688.0175,-71.5587 688.4652,-64.5731"/>
</g>
<!-- Node21&#45;&gt;Node17 -->
<g id="edge30" class="edge">
<title>Node21&#45;&gt;Node17</title>
<path fill="none" stroke="#191970" d="M1553.0354,-112.3733C1574.7388,-103.3032 1607.4618,-89.6279 1631.755,-79.4755"/>
<polygon fill="#191970" stroke="#191970" points="1633.3881,-82.5865 1641.2652,-75.5011 1630.6889,-76.1278 1633.3881,-82.5865"/>
</g>
<!-- Node21&#45;&gt;Node18 -->
<g id="edge27" class="edge">
<title>Node21&#45;&gt;Node18</title>
<path fill="none" stroke="#191970" d="M1526.5163,-112.2455C1523.8492,-104.7776 1520.0867,-94.2427 1516.8263,-85.1137"/>
<polygon fill="#191970" stroke="#191970" points="1520.1033,-83.8829 1513.4438,-75.6427 1513.5111,-86.2373 1520.1033,-83.8829"/>
</g>
<!-- Node21&#45;&gt;Node22 -->
<g id="edge29" class="edge">
<title>Node21&#45;&gt;Node22</title>
<path fill="none" stroke="#191970" d="M1610.7277,-114.3893C1739.5774,-102.2419 1987.0414,-78.9119 2083.8124,-69.7887"/>
<polygon fill="#191970" stroke="#191970" points="2084.15,-73.2725 2093.7773,-68.8493 2083.493,-66.3034 2084.15,-73.2725"/>
</g>
<!-- Node23&#45;&gt;Node16 -->
<g id="edge33" class="edge">
<title>Node23&#45;&gt;Node16</title>
<path fill="none" stroke="#191970" d="M884.0383,-112.4369C828.1573,-101.0575 736.3615,-82.3645 688.0415,-72.5248"/>
<polygon fill="#191970" stroke="#191970" points="688.6359,-69.0741 678.1386,-70.5082 687.2391,-75.9333 688.6359,-69.0741"/>
</g>
<!-- Node25&#45;&gt;Node4 -->
<g id="edge39" class="edge">
<title>Node25&#45;&gt;Node4</title>
<path fill="none" stroke="#191970" d="M1795.8854,-497.9559C1838.8583,-459.195 1990.5126,-311.4617 1910,-224 1879.2546,-190.601 1594.9113,-181.4492 1445.6126,-178.9434"/>
<polygon fill="#191970" stroke="#191970" points="1445.595,-175.4428 1435.5399,-178.781 1445.4821,-182.4419 1445.595,-175.4428"/>
</g>
<!-- Node26&#45;&gt;Node5 -->
<g id="edge55" class="edge">
<title>Node26&#45;&gt;Node5</title>
<path fill="none" stroke="#191970" d="M203.5016,-363.9952C145.6085,-345.0392 32.842,-297.8909 57,-224 76.1714,-165.3614 87.7802,-146.3884 139,-112 158.4785,-98.9224 213.124,-86.2212 258.01,-77.4905"/>
<polygon fill="#191970" stroke="#191970" points="258.8424,-80.8948 268.0073,-75.5793 257.5279,-74.0193 258.8424,-80.8948"/>
</g>
<!-- Node26&#45;&gt;Node16 -->
<g id="edge42" class="edge">
<title>Node26&#45;&gt;Node16</title>
<path fill="none" stroke="#191970" d="M236.4411,-363.7107C238.2398,-332.7138 247.0344,-234.8311 288,-168 307.7524,-135.776 317.716,-127.9106 352,-112 399.9131,-89.7643 555.4366,-74.4162 623.5481,-68.5958"/>
<polygon fill="#191970" stroke="#191970" points="624.027,-72.068 633.6992,-67.7439 623.4415,-65.0925 624.027,-72.068"/>
</g>
<!-- Node26&#45;&gt;Node27 -->
<g id="edge43" class="edge">
<title>Node26&#45;&gt;Node27</title>
<path fill="none" stroke="#191970" d="M228.8802,-363.8631C212.3977,-341.5535 171.4094,-286.0744 150.1929,-257.3571"/>
<polygon fill="#191970" stroke="#191970" points="152.8126,-255.0129 144.0553,-249.0496 147.1825,-259.1724 152.8126,-255.0129"/>
</g>
<!-- Node26&#45;&gt;Node28 -->
<g id="edge47" class="edge">
<title>Node26&#45;&gt;Node28</title>
<path fill="none" stroke="#191970" d="M267.3774,-363.9005C305.9194,-352.1091 371.4053,-332.0746 413.9235,-319.0668"/>
<polygon fill="#191970" stroke="#191970" points="415.1423,-322.3541 423.6808,-316.0817 413.0944,-315.6604 415.1423,-322.3541"/>
</g>
<!-- Node27&#45;&gt;Node4 -->
<g id="edge45" class="edge">
<title>Node27&#45;&gt;Node4</title>
<path fill="none" stroke="#191970" d="M207.5339,-234.2994C253.4961,-231.0311 314.7831,-226.8998 369,-224 763.6712,-202.891 865.8982,-217.7729 1264.0126,-188.0209"/>
<polygon fill="#191970" stroke="#191970" points="1264.3628,-191.5045 1274.0721,-187.2643 1263.8378,-184.5242 1264.3628,-191.5045"/>
</g>
<!-- Node27&#45;&gt;Node5 -->
<g id="edge46" class="edge">
<title>Node27&#45;&gt;Node5</title>
<path fill="none" stroke="#191970" d="M135.0426,-229.7522C130.9399,-206.2894 124.124,-146.0949 154,-112 167.4962,-96.5979 213.4149,-84.7196 254.1298,-76.8944"/>
<polygon fill="#191970" stroke="#191970" points="254.8839,-80.3142 264.0737,-75.0417 253.6018,-73.4326 254.8839,-80.3142"/>
</g>
<!-- Node27&#45;&gt;Node16 -->
<g id="edge44" class="edge">
<title>Node27&#45;&gt;Node16</title>
<path fill="none" stroke="#191970" d="M140.8125,-229.682C150.9885,-204.9583 181.3721,-140.1068 230,-112 263.914,-92.3978 530.41,-73.9116 623.8004,-67.9751"/>
<polygon fill="#191970" stroke="#191970" points="624.0432,-71.4668 633.8035,-67.3453 623.6033,-64.4807 624.0432,-71.4668"/>
</g>
<!-- Node28&#45;&gt;Node16 -->
<g id="edge54" class="edge">
<title>Node28&#45;&gt;Node16</title>
<path fill="none" stroke="#191970" d="M427.0789,-296.8736C372.1214,-276.3942 258.6939,-225.6393 300,-168 338.35,-114.4857 543.189,-81.3133 623.5834,-70.1857"/>
<polygon fill="#191970" stroke="#191970" points="624.1954,-73.6348 633.6331,-68.8203 623.253,-66.6985 624.1954,-73.6348"/>
</g>
<!-- Node28&#45;&gt;Node19 -->
<g id="edge53" class="edge">
<title>Node28&#45;&gt;Node19</title>
<path fill="none" stroke="#191970" d="M496.0997,-296.9717C547.7397,-284.9998 636.378,-264.4504 692.4913,-251.4415"/>
<polygon fill="#191970" stroke="#191970" points="693.623,-254.772 702.5741,-249.1039 692.042,-247.9529 693.623,-254.772"/>
</g>
<!-- Node29 -->
<g id="node30" class="node">
<title>Node29</title>
<g id="a_node30"><a xlink:href="PositionRaw_8h.html" target="_top" xlink:title="iDynTree/Core/PositionRaw.h">
<polygon fill="none" stroke="#000000" points="378,-230 378,-249 534,-249 534,-230 378,-230"/>
<text text-anchor="middle" x="456" y="-237" font-family="FreeSans.ttf" font-size="10.00" fill="#000000">iDynTree/Core/PositionRaw.h</text>
</a>
</g>
</g>
<!-- Node28&#45;&gt;Node29 -->
<g id="edge48" class="edge">
<title>Node28&#45;&gt;Node29</title>
<path fill="none" stroke="#191970" d="M455.1433,-296.9005C455.2888,-287.149 455.5185,-271.7597 455.7034,-259.3695"/>
<polygon fill="#191970" stroke="#191970" points="459.2073,-259.1328 455.857,-249.0817 452.208,-259.0283 459.2073,-259.1328"/>
</g>
<!-- Node30 -->
<g id="node31" class="node">
<title>Node30</title>
<g id="a_node31"><a xlink:href="PositionSemantics_8h.html" target="_top" xlink:title="iDynTree/Core/PositionSemantics.h">
<polygon fill="none" stroke="#000000" points="309.5,-168.5 309.5,-187.5 496.5,-187.5 496.5,-168.5 309.5,-168.5"/>
<text text-anchor="middle" x="403" y="-175.5" font-family="FreeSans.ttf" font-size="10.00" fill="#000000">iDynTree/Core/PositionSemantics.h</text>
</a>
</g>
</g>
<!-- Node28&#45;&gt;Node30 -->
<g id="edge51" class="edge">
<title>Node28&#45;&gt;Node30</title>
<path fill="none" stroke="#191970" d="M424.1483,-296.9073C404.559,-289.0331 380.7558,-275.7423 369,-255 357.8328,-235.2962 372.6486,-211.2282 386.0798,-195.302"/>
<polygon fill="#191970" stroke="#191970" points="388.7553,-197.561 392.8323,-187.782 383.5469,-192.8841 388.7553,-197.561"/>
</g>
<!-- Node29&#45;&gt;Node4 -->
<g id="edge49" class="edge">
<title>Node29&#45;&gt;Node4</title>
<path fill="none" stroke="#191970" d="M534.2661,-233.4683C573.7579,-230.4896 622.4114,-226.9183 666,-224 928.8585,-206.4012 997.5987,-210.6257 1264.0947,-188.038"/>
<polygon fill="#191970" stroke="#191970" points="1264.3993,-191.5249 1274.066,-187.1883 1263.8049,-184.5501 1264.3993,-191.5249"/>
</g>
<!-- Node29&#45;&gt;Node16 -->
<g id="edge50" class="edge">
<title>Node29&#45;&gt;Node16</title>
<path fill="none" stroke="#191970" d="M467.1937,-229.7052C477.8874,-219.9267 493.9665,-204.0775 505,-188 526.1486,-157.1832 513.7667,-137.5985 541,-112 564.1349,-90.2539 598.8402,-78.2901 624.0721,-72.0586"/>
<polygon fill="#191970" stroke="#191970" points="624.9447,-75.4494 633.9068,-69.7988 623.377,-68.6272 624.9447,-75.4494"/>
</g>
<!-- Node30&#45;&gt;Node16 -->
<g id="edge52" class="edge">
<title>Node30&#45;&gt;Node16</title>
<path fill="none" stroke="#191970" d="M414.9393,-168.4341C433.0296,-154.3439 468.8989,-127.959 503,-112 542.95,-93.3037 592.3056,-80.0851 623.966,-72.7532"/>
<polygon fill="#191970" stroke="#191970" points="625.0008,-76.1078 633.9855,-70.493 623.4604,-69.2793 625.0008,-76.1078"/>
</g>
<!-- Node32 -->
<g id="node33" class="node">
<title>Node32</title>
<g id="a_node33"><a xlink:href="SpatialForceVector_8h.html" target="_top" xlink:title="iDynTree/Core/SpatialForce\lVector.h">
<polygon fill="none" stroke="#000000" points="1373,-425.5 1373,-455.5 1521,-455.5 1521,-425.5 1373,-425.5"/>
<text text-anchor="start" x="1381" y="-443.5" font-family="FreeSans.ttf" font-size="10.00" fill="#000000">iDynTree/Core/SpatialForce</text>
<text text-anchor="middle" x="1447" y="-432.5" font-family="FreeSans.ttf" font-size="10.00" fill="#000000">Vector.h</text>
</a>
</g>
</g>
<!-- Node31&#45;&gt;Node32 -->
<g id="edge59" class="edge">
<title>Node31&#45;&gt;Node32</title>
<path fill="none" stroke="#191970" d="M1442.3758,-559.3416C1443.1411,-539.6745 1444.9019,-494.4221 1446.0164,-465.7784"/>
<polygon fill="#191970" stroke="#191970" points="1449.5169,-465.8302 1446.4085,-455.7016 1442.5222,-465.5579 1449.5169,-465.8302"/>
</g>
<!-- Node32&#45;&gt;Node4 -->
<g id="edge60" class="edge">
<title>Node32&#45;&gt;Node4</title>
<path fill="none" stroke="#191970" d="M1521.2923,-429.1603C1562.2624,-421.2091 1613.3249,-408.4522 1656,-389 1677.767,-379.0781 1678.3009,-368.0695 1700,-358 1757.4968,-331.3186 1799.2469,-372.1595 1838,-322 1846.4235,-311.0972 1842.0152,-304.1797 1838,-291 1827.5462,-256.6862 1823.7298,-242.5039 1793,-224 1764.001,-206.5383 1565.5299,-191.223 1445.9288,-183.4403"/>
<polygon fill="#191970" stroke="#191970" points="1445.8829,-179.9301 1435.6783,-182.7791 1445.4323,-186.9156 1445.8829,-179.9301"/>
</g>
<!-- Node32&#45;&gt;Node24 -->
<g id="edge75" class="edge">
<title>Node32&#45;&gt;Node24</title>
<path fill="none" stroke="#191970" d="M1448.7114,-425.2913C1449.9595,-408.0119 1449.8658,-379.4347 1439,-358 1418.7903,-318.1328 1403.4508,-312.011 1364,-291 1328.8161,-272.2615 1286.5145,-260.1141 1249.7332,-252.3548"/>
<polygon fill="#191970" stroke="#191970" points="1250.0122,-248.8402 1239.5158,-250.2809 1248.6197,-255.7003 1250.0122,-248.8402"/>
</g>
<!-- Node33 -->
<g id="node34" class="node">
<title>Node33</title>
<g id="a_node34"><a xlink:href="LinearForceVector3_8h.html" target="_top" xlink:title="iDynTree/Core/LinearForce\lVector3.h">
<polygon fill="none" stroke="#ff0000" points="1190,-291.5 1190,-321.5 1334,-321.5 1334,-291.5 1190,-291.5"/>
<text text-anchor="start" x="1198" y="-309.5" font-family="FreeSans.ttf" font-size="10.00" fill="#000000">iDynTree/Core/LinearForce</text>
<text text-anchor="middle" x="1262" y="-298.5" font-family="FreeSans.ttf" font-size="10.00" fill="#000000">Vector3.h</text>
</a>
</g>
</g>
<!-- Node32&#45;&gt;Node33 -->
<g id="edge61" class="edge">
<title>Node32&#45;&gt;Node33</title>
<path fill="none" stroke="#191970" d="M1372.6076,-427.7139C1330.0809,-418.7959 1282.5664,-405.5415 1269,-389 1256.1066,-373.2791 1255.324,-349.7449 1257.2053,-331.8307"/>
<polygon fill="#191970" stroke="#191970" points="1260.6925,-332.1636 1258.5927,-321.7789 1253.7582,-331.2064 1260.6925,-332.1636"/>
</g>
<!-- Node35 -->
<g id="node35" class="node">
<title>Node35</title>
<g id="a_node35"><a xlink:href="AngularForceVector3_8h.html" target="_top" xlink:title="iDynTree/Core/AngularForce\lVector3.h">
<polygon fill="none" stroke="#ff0000" points="1278,-358.5 1278,-388.5 1430,-388.5 1430,-358.5 1278,-358.5"/>
<text text-anchor="start" x="1286" y="-376.5" font-family="FreeSans.ttf" font-size="10.00" fill="#000000">iDynTree/Core/AngularForce</text>
<text text-anchor="middle" x="1354" y="-365.5" font-family="FreeSans.ttf" font-size="10.00" fill="#000000">Vector3.h</text>
</a>
</g>
</g>
<!-- Node32&#45;&gt;Node35 -->
<g id="edge63" class="edge">
<title>Node32&#45;&gt;Node35</title>
<path fill="none" stroke="#191970" d="M1425.8969,-425.2967C1413.2928,-416.2163 1397.0976,-404.5488 1383.27,-394.587"/>
<polygon fill="#191970" stroke="#191970" points="1385.1792,-391.6488 1375.0196,-388.6432 1381.0874,-397.3284 1385.1792,-391.6488"/>
</g>
<!-- Node36 -->
<g id="node36" class="node">
<title>Node36</title>
<g id="a_node36"><a xlink:href="SpatialVector_8h.html" target="_top" xlink:title="iDynTree/Core/SpatialVector.h">
<polygon fill="none" stroke="#000000" points="1486.5,-364 1486.5,-383 1647.5,-383 1647.5,-364 1486.5,-364"/>
<text text-anchor="middle" x="1567" y="-371" font-family="FreeSans.ttf" font-size="10.00" fill="#000000">iDynTree/Core/SpatialVector.h</text>
</a>
</g>
</g>
<!-- Node32&#45;&gt;Node36 -->
<g id="edge65" class="edge">
<title>Node32&#45;&gt;Node36</title>
<path fill="none" stroke="#191970" d="M1473.9303,-425.4639C1493.9741,-414.2728 1521.1783,-399.0838 1540.9965,-388.0186"/>
<polygon fill="#191970" stroke="#191970" points="1542.7739,-391.0349 1549.7989,-383.1039 1539.3614,-384.923 1542.7739,-391.0349"/>
</g>
<!-- Node33&#45;&gt;Node24 -->
<g id="edge62" class="edge">
<title>Node33&#45;&gt;Node24</title>
<path fill="none" stroke="#191970" d="M1239.3085,-291.2967C1225.6278,-282.1306 1208.0126,-270.3285 1193.053,-260.3055"/>
<polygon fill="#191970" stroke="#191970" points="1194.8576,-257.3017 1184.6017,-254.6432 1190.9613,-263.1171 1194.8576,-257.3017"/>
</g>
<!-- Node35&#45;&gt;Node24 -->
<g id="edge64" class="edge">
<title>Node35&#45;&gt;Node24</title>
<path fill="none" stroke="#191970" d="M1356.5131,-358.4352C1358.6416,-340.2205 1359.1636,-309.6888 1343,-291 1330.1443,-276.1359 1289.3987,-263.8688 1249.8154,-255.0405"/>
<polygon fill="#191970" stroke="#191970" points="1250.3089,-251.5663 1239.7946,-252.8706 1248.8274,-258.4077 1250.3089,-251.5663"/>
</g>
<!-- Node36&#45;&gt;Node5 -->
<g id="edge69" class="edge">
<title>Node36&#45;&gt;Node5</title>
<path fill="none" stroke="#191970" d="M1560.4002,-363.7373C1548.1835,-346.4272 1520.3237,-310.3605 1488,-291 1392.993,-234.0951 1356.7855,-244.7417 1248,-224 1097.4306,-195.2916 1056.6351,-210.4076 905,-188 773.8449,-168.6188 741.7473,-159.2565 612,-132 527.9413,-114.3415 430.631,-91.5466 373.3673,-77.8895"/>
<polygon fill="#191970" stroke="#191970" points="374.037,-74.451 363.4974,-75.5314 372.4103,-81.2594 374.037,-74.451"/>
</g>
<!-- Node36&#45;&gt;Node17 -->
<g id="edge74" class="edge">
<title>Node36&#45;&gt;Node17</title>
<path fill="none" stroke="#191970" d="M1567.7496,-363.8065C1569.0142,-348.3476 1571.8464,-317.1831 1576,-291 1580.7663,-260.9548 1579.0452,-252.38 1590,-224 1607.0734,-179.7688 1624.9923,-175.4351 1644,-132 1650.6,-116.9182 1655.8799,-98.9974 1659.3537,-85.6383"/>
<polygon fill="#191970" stroke="#191970" points="1662.8203,-86.201 1661.8363,-75.6519 1656.0271,-84.5121 1662.8203,-86.201"/>
</g>
<!-- Node36&#45;&gt;Node19 -->
<g id="edge67" class="edge">
<title>Node36&#45;&gt;Node19</title>
<path fill="none" stroke="#191970" d="M1494.6485,-363.9736C1476.5019,-361.7951 1457.0571,-359.6409 1439,-358 1307.7422,-346.0726 969.9729,-369.4188 847,-322 810.7389,-308.0176 777.3092,-276.3429 758.8793,-256.5613"/>
<polygon fill="#191970" stroke="#191970" points="761.4585,-254.1952 752.1476,-249.1395 756.2735,-258.898 761.4585,-254.1952"/>
</g>
<!-- Node36&#45;&gt;Node22 -->
<g id="edge73" class="edge">
<title>Node36&#45;&gt;Node22</title>
<path fill="none" stroke="#191970" d="M1568.747,-363.8646C1574.0319,-337.4888 1592.3143,-263.4544 1637,-224 1770.4757,-106.15 1993.2524,-75.9909 2083.8481,-68.4467"/>
<polygon fill="#191970" stroke="#191970" points="2084.278,-71.9239 2093.9738,-67.6529 2083.7308,-64.9453 2084.278,-71.9239"/>
</g>
<!-- Node36&#45;&gt;Node24 -->
<g id="edge68" class="edge">
<title>Node36&#45;&gt;Node24</title>
<path fill="none" stroke="#191970" d="M1554.1104,-363.7577C1526.5063,-342.9667 1463.264,-295.7494 1452,-291 1416.2804,-275.9389 1321.1474,-260.6532 1249.5069,-250.692"/>
<polygon fill="#191970" stroke="#191970" points="1249.9467,-247.2196 1239.5626,-249.3223 1248.9915,-254.1541 1249.9467,-247.2196"/>
</g>
<!-- Node36&#45;&gt;Node28 -->
<g id="edge66" class="edge">
<title>Node36&#45;&gt;Node28</title>
<path fill="none" stroke="#191970" d="M1495.6658,-363.9752C1477.2329,-361.7576 1457.3992,-359.5845 1439,-358 1128.1844,-331.2324 1049.5279,-338.5305 738,-322 668.7018,-318.3229 589.8672,-313.993 533.0355,-310.8456"/>
<polygon fill="#191970" stroke="#191970" points="533.2219,-307.3507 523.0435,-310.2919 532.8345,-314.34 533.2219,-307.3507"/>
</g>
<!-- Node37 -->
<g id="node37" class="node">
<title>Node37</title>
<g id="a_node37"><a xlink:href="PrivatePreProcessorUtils_8h.html" target="_top" xlink:title="iDynTree/Core/PrivatePre\lProcessorUtils.h">
<polygon fill="none" stroke="#000000" points="1646,-224.5 1646,-254.5 1784,-254.5 1784,-224.5 1646,-224.5"/>
<text text-anchor="start" x="1654" y="-242.5" font-family="FreeSans.ttf" font-size="10.00" fill="#000000">iDynTree/Core/PrivatePre</text>
<text text-anchor="middle" x="1715" y="-231.5" font-family="FreeSans.ttf" font-size="10.00" fill="#000000">ProcessorUtils.h</text>
</a>
</g>
</g>
<!-- Node36&#45;&gt;Node37 -->
<g id="edge70" class="edge">
<title>Node36&#45;&gt;Node37</title>
<path fill="none" stroke="#191970" d="M1575.4401,-363.8848C1589.5716,-348.0011 1619.2112,-315.5941 1647,-291 1658.8686,-280.4959 1672.6983,-269.7736 1684.775,-260.8514"/>
<polygon fill="#191970" stroke="#191970" points="1687.1894,-263.4225 1693.2058,-254.7016 1683.0642,-257.7671 1687.1894,-263.4225"/>
</g>
<!-- Node36&#45;&gt;Node38 -->
<g id="edge71" class="edge">
<title>Node36&#45;&gt;Node38</title>
<path fill="none" stroke="#191970" d="M1592.2165,-363.9005C1618.6887,-353.8231 1660.977,-337.7247 1694.0418,-325.1375"/>
<polygon fill="#191970" stroke="#191970" points="1695.4394,-328.3506 1703.5398,-321.5218 1692.9489,-321.8086 1695.4394,-328.3506"/>
</g>
<!-- Node38&#45;&gt;Node37 -->
<g id="edge72" class="edge">
<title>Node38&#45;&gt;Node37</title>
<path fill="none" stroke="#191970" d="M1736.6464,-291.2967C1733.2812,-283.2443 1729.0658,-273.1574 1725.2512,-264.0296"/>
<polygon fill="#191970" stroke="#191970" points="1728.4138,-262.5203 1721.3285,-254.6432 1721.9551,-265.2195 1728.4138,-262.5203"/>
</g>
<!-- Node39&#45;&gt;Node21 -->
<g id="edge77" class="edge">
<title>Node39&#45;&gt;Node21</title>
<path fill="none" stroke="#191970" d="M1962.6565,-492.3733C1979.8509,-468.5034 2010,-420.0169 2010,-373.5 2010,-373.5 2010,-373.5 2010,-239.5 2010,-205.9798 2012.1958,-188.9138 1986,-168 1958.1406,-145.758 1745.8172,-132.1139 1620.9495,-125.9298"/>
<polygon fill="#191970" stroke="#191970" points="1620.7908,-122.418 1610.6319,-125.4259 1620.4493,-129.4097 1620.7908,-122.418"/>
</g>
<!-- Node41 -->
<g id="node41" class="node">
<title>Node41</title>
<g id="a_node41"><a xlink:href="SpatialMotionVector_8h.html" target="_top" xlink:title="iDynTree/Core/SpatialMotion\lVector.h">
<polygon fill="none" stroke="#000000" points="1024.5,-492.5 1024.5,-522.5 1179.5,-522.5 1179.5,-492.5 1024.5,-492.5"/>
<text text-anchor="start" x="1032.5" y="-510.5" font-family="FreeSans.ttf" font-size="10.00" fill="#000000">iDynTree/Core/SpatialMotion</text>
<text text-anchor="middle" x="1102" y="-499.5" font-family="FreeSans.ttf" font-size="10.00" fill="#000000">Vector.h</text>
</a>
</g>
</g>
<!-- Node40&#45;&gt;Node41 -->
<g id="edge79" class="edge">
<title>Node40&#45;&gt;Node41</title>
<path fill="none" stroke="#191970" d="M1081.75,-559.3906C1084.6071,-552.0692 1088.6736,-541.6488 1092.4138,-532.0647"/>
<polygon fill="#191970" stroke="#191970" points="1095.754,-533.1328 1096.1289,-522.5446 1089.2329,-530.588 1095.754,-533.1328"/>
</g>
<!-- Node41&#45;&gt;Node1 -->
<g id="edge84" class="edge">
<title>Node41&#45;&gt;Node1</title>
<path fill="none" stroke="#191970" d="M1055.994,-492.4639C1025.5043,-482.499 985.3159,-469.3642 952.9729,-458.7936"/>
<polygon fill="#191970" stroke="#191970" points="953.7992,-455.3815 943.2067,-455.6017 951.6246,-462.0352 953.7992,-455.3815"/>
</g>
<!-- Node41&#45;&gt;Node4 -->
<g id="edge80" class="edge">
<title>Node41&#45;&gt;Node4</title>
<path fill="none" stroke="#191970" d="M1125.165,-492.4952C1139.6826,-482.7174 1158.5113,-469.3379 1174,-456 1219.9667,-416.4164 1219.872,-393.5842 1269,-358 1298.6206,-336.5454 1322.3311,-352.1741 1343,-322 1368.7706,-284.3781 1363.9938,-227.5801 1359.0576,-197.8075"/>
<polygon fill="#191970" stroke="#191970" points="1362.4714,-197.019 1357.2213,-187.8165 1355.5867,-198.2844 1362.4714,-197.019"/>
</g>
<!-- Node41&#45;&gt;Node24 -->
<g id="edge86" class="edge">
<title>Node41&#45;&gt;Node24</title>
<path fill="none" stroke="#191970" d="M1123.6318,-492.4876C1134.8684,-483.3646 1147.5659,-470.6597 1154,-456 1182.1686,-391.8195 1173.5671,-306.3591 1166.8013,-264.6062"/>
<polygon fill="#191970" stroke="#191970" points="1170.2081,-263.7658 1165.059,-254.5063 1163.31,-264.9558 1170.2081,-263.7658"/>
</g>
<!-- Node41&#45;&gt;Node36 -->
<g id="edge85" class="edge">
<title>Node41&#45;&gt;Node36</title>
<path fill="none" stroke="#191970" d="M1147.2039,-492.4093C1199.2386,-475.2382 1287.3917,-446.7601 1364,-425 1415.6988,-410.3153 1475.3732,-395.4191 1516.5776,-385.4512"/>
<polygon fill="#191970" stroke="#191970" points="1517.4768,-388.8348 1526.3783,-383.089 1515.8365,-382.0297 1517.4768,-388.8348"/>
</g>
<!-- Node42 -->
<g id="node42" class="node">
<title>Node42</title>
<g id="a_node42"><a xlink:href="LinearMotionVector3_8h.html" target="_top" xlink:title="iDynTree/Core/LinearMotion\lVector3.h">
<polygon fill="none" stroke="#000000" points="994.5,-425.5 994.5,-455.5 1145.5,-455.5 1145.5,-425.5 994.5,-425.5"/>
<text text-anchor="start" x="1002.5" y="-443.5" font-family="FreeSans.ttf" font-size="10.00" fill="#000000">iDynTree/Core/LinearMotion</text>
<text text-anchor="middle" x="1070" y="-432.5" font-family="FreeSans.ttf" font-size="10.00" fill="#000000">Vector3.h</text>
</a>
</g>
</g>
<!-- Node41&#45;&gt;Node42 -->
<g id="edge81" class="edge">
<title>Node41&#45;&gt;Node42</title>
<path fill="none" stroke="#191970" d="M1094.7387,-492.2967C1090.8519,-484.1586 1085.9726,-473.9425 1081.5767,-464.7386"/>
<polygon fill="#191970" stroke="#191970" points="1084.7007,-463.1584 1077.2326,-455.6432 1078.3841,-466.1752 1084.7007,-463.1584"/>
</g>
<!-- Node42&#45;&gt;Node2 -->
<g id="edge82" class="edge">
<title>Node42&#45;&gt;Node2</title>
<path fill="none" stroke="#191970" d="M1057.0658,-425.2967C1048.3574,-415.0605 1036.852,-401.5366 1027.7814,-390.8746"/>
<polygon fill="#191970" stroke="#191970" points="1030.2745,-388.4036 1021.1289,-383.055 1024.9429,-392.9395 1030.2745,-388.4036"/>
</g>
<!-- Node42&#45;&gt;Node24 -->
<g id="edge83" class="edge">
<title>Node42&#45;&gt;Node24</title>
<path fill="none" stroke="#191970" d="M1081.7077,-425.311C1089.0276,-415.3532 1098.3032,-401.845 1105,-389 1126.8254,-347.1371 1144.7948,-294.9645 1154.4082,-264.6238"/>
<polygon fill="#191970" stroke="#191970" points="1157.8187,-265.4437 1157.4527,-254.8551 1151.1358,-263.3608 1157.8187,-265.4437"/>
</g>
<!-- Node43&#45;&gt;Node41 -->
<g id="edge88" class="edge">
<title>Node43&#45;&gt;Node41</title>
<path fill="none" stroke="#191970" d="M952.6563,-559.3906C978.3855,-550.4508 1017.4127,-536.8905 1049.1189,-525.8739"/>
<polygon fill="#191970" stroke="#191970" points="1050.4036,-529.1329 1058.7009,-522.5446 1048.1061,-522.5206 1050.4036,-529.1329"/>
</g>
<!-- Node44&#45;&gt;Node32 -->
<g id="edge90" class="edge">
<title>Node44&#45;&gt;Node32</title>
<path fill="none" stroke="#191970" d="M1541.2397,-497.9005C1525.4047,-488.2556 1500.5149,-473.0954 1480.2903,-460.7768"/>
<polygon fill="#191970" stroke="#191970" points="1482.0238,-457.7346 1471.6626,-455.5218 1478.3824,-463.7129 1482.0238,-457.7346"/>
</g>
<!-- Node45&#45;&gt;Node4 -->
<g id="edge98" class="edge">
<title>Node45&#45;&gt;Node4</title>
<path fill="none" stroke="#191970" d="M1241.2744,-559.2852C1247.4824,-542.4957 1262.6585,-508.2888 1288,-492 1379.4725,-433.204 1425.198,-484.9955 1530,-456 1605.0937,-435.2238 1623.3481,-425.846 1692,-389 1713.7227,-377.3413 1715.7553,-368.6291 1738,-358 1787.0897,-334.5437 1822.6774,-365.7635 1855,-322 1877.4187,-291.646 1828.0915,-227.5707 1823,-224 1792.8801,-202.877 1573.1745,-188.6951 1445.7803,-182.1514"/>
<polygon fill="#191970" stroke="#191970" points="1445.8037,-178.6481 1435.639,-181.6365 1445.4487,-185.6391 1445.8037,-178.6481"/>
</g>
<!-- Node45&#45;&gt;Node5 -->
<g id="edge111" class="edge">
<title>Node45&#45;&gt;Node5</title>
<path fill="none" stroke="#191970" d="M1157.0607,-559.8709C1154.0025,-559.5691 1150.9741,-559.2776 1148,-559 862.0161,-532.3058 750.4083,-613.1726 510,-456 402.1319,-385.4787 362.5912,-368.2048 301,-255 282.3155,-220.6578 281.3993,-206.5347 288,-168 293.1568,-137.8949 306.2928,-104.8703 315.1873,-84.7884"/>
<polygon fill="#191970" stroke="#191970" points="318.4345,-86.1026 319.3872,-75.5506 312.0622,-83.2054 318.4345,-86.1026"/>
</g>
<!-- Node45&#45;&gt;Node21 -->
<g id="edge101" class="edge">
<title>Node45&#45;&gt;Node21</title>
<path fill="none" stroke="#191970" d="M1248.7586,-559.1616C1258.9044,-549.8695 1274.5233,-535.5286 1288,-523 1302.7381,-509.2987 1302.8246,-500.6367 1321,-492 1429.9469,-440.2302 1474.3573,-490.2972 1590,-456 1723.0359,-416.5443 1797.8678,-439.3018 1872,-322 1941.4468,-212.1121 1721.9617,-155.4712 1602.3027,-133.3483"/>
<polygon fill="#191970" stroke="#191970" points="1602.5677,-129.8395 1592.104,-131.5015 1601.3203,-136.7274 1602.5677,-129.8395"/>
</g>
<!-- Node45&#45;&gt;Node32 -->
<g id="edge103" class="edge">
<title>Node45&#45;&gt;Node32</title>
<path fill="none" stroke="#191970" d="M1236.4484,-559.3249C1234.4529,-543.2047 1233.037,-510.7709 1250,-492 1265.4847,-474.865 1316.4829,-461.8052 1362.7084,-453.1245"/>
<polygon fill="#191970" stroke="#191970" points="1363.5817,-456.523 1372.7908,-451.2845 1362.3249,-449.6367 1363.5817,-456.523"/>
</g>
<!-- Node45&#45;&gt;Node41 -->
<g id="edge102" class="edge">
<title>Node45&#45;&gt;Node41</title>
<path fill="none" stroke="#191970" d="M1216.75,-559.3906C1197.4919,-550.682 1168.5378,-537.5888 1144.5329,-526.7336"/>
<polygon fill="#191970" stroke="#191970" points="1145.8232,-523.4759 1135.2693,-522.5446 1142.9389,-529.8541 1145.8232,-523.4759"/>
</g>
<!-- Node45&#45;&gt;Node46 -->
<g id="edge94" class="edge">
<title>Node45&#45;&gt;Node46</title>
<path fill="none" stroke="#191970" d="M1258.4688,-559.3906C1280.1952,-549.1908 1314.7335,-532.9763 1339.4185,-521.3875"/>
<polygon fill="#191970" stroke="#191970" points="1341.1103,-524.4598 1348.675,-517.0419 1338.1355,-518.1234 1341.1103,-524.4598"/>
</g>
<!-- Node47 -->
<g id="node47" class="node">
<title>Node47</title>
<g id="a_node47"><a xlink:href="VectorDynSize_8h.html" target="_top" xlink:title="iDynTree/Core/VectorDynSize.h">
<polygon fill="none" stroke="#000000" points="1089.5,-168.5 1089.5,-187.5 1256.5,-187.5 1256.5,-168.5 1089.5,-168.5"/>
<text text-anchor="middle" x="1173" y="-175.5" font-family="FreeSans.ttf" font-size="10.00" fill="#000000">iDynTree/Core/VectorDynSize.h</text>
</a>
</g>
</g>
<!-- Node45&#45;&gt;Node47 -->
<g id="edge95" class="edge">
<title>Node45&#45;&gt;Node47</title>
<path fill="none" stroke="#191970" d="M1185.2913,-559.4677C1066.8661,-537.3266 790,-481.2099 790,-440.5 790,-440.5 790,-440.5 790,-373.5 790,-255.6499 897.6166,-262.5016 1009,-224 1047.2456,-210.7797 1091.4644,-198.5491 1124.3422,-190.0277"/>
<polygon fill="#191970" stroke="#191970" points="1125.3477,-193.3832 1134.1624,-187.5052 1123.6061,-186.6033 1125.3477,-193.3832"/>
</g>
<!-- Node48 -->
<g id="node48" class="node">
<title>Node48</title>
<g id="a_node48"><a xlink:href="MatrixDynSize_8h.html" target="_top" xlink:title="iDynTree/Core/MatrixDynSize.h">
<polygon fill="none" stroke="#000000" points="519.5,-431 519.5,-450 686.5,-450 686.5,-431 519.5,-431"/>
<text text-anchor="middle" x="603" y="-438" font-family="FreeSans.ttf" font-size="10.00" fill="#000000">iDynTree/Core/MatrixDynSize.h</text>
</a>
</g>
</g>
<!-- Node45&#45;&gt;Node48 -->
<g id="edge99" class="edge">
<title>Node45&#45;&gt;Node48</title>
<path fill="none" stroke="#191970" d="M1157.0563,-559.9171C1153.9993,-559.6024 1150.9724,-559.2956 1148,-559 965.9745,-540.8985 911.7483,-580.2054 738,-523 692.9574,-508.17 647.2689,-475.8211 622.2912,-456.3272"/>
<polygon fill="#191970" stroke="#191970" points="624.3609,-453.5013 614.3551,-450.0179 620.0047,-458.9807 624.3609,-453.5013"/>
</g>
<!-- Node49 -->
<g id="node49" class="node">
<title>Node49</title>
<g id="a_node49"><a xlink:href="Transform_8h.html" target="_top" xlink:title="iDynTree/Core/Transform.h">
<polygon fill="none" stroke="#000000" points="540,-364 540,-383 686,-383 686,-364 540,-364"/>
<text text-anchor="middle" x="613" y="-371" font-family="FreeSans.ttf" font-size="10.00" fill="#000000">iDynTree/Core/Transform.h</text>
</a>
</g>
</g>
<!-- Node45&#45;&gt;Node49 -->
<g id="edge104" class="edge">
<title>Node45&#45;&gt;Node49</title>
<path fill="none" stroke="#191970" d="M1157.0528,-559.9511C1153.9968,-559.6268 1150.971,-559.3088 1148,-559 1065.3921,-550.414 849.3474,-561.9607 776,-523 726.096,-496.4919 737.4663,-462.2787 695,-425 678.5248,-410.5374 657.5566,-397.4457 640.9478,-388.081"/>
<polygon fill="#191970" stroke="#191970" points="642.1884,-384.7689 631.7396,-383.0158 638.8145,-390.9022 642.1884,-384.7689"/>
</g>
<!-- Node47&#45;&gt;Node7 -->
<g id="edge96" class="edge">
<title>Node47&#45;&gt;Node7</title>
<path fill="none" stroke="#191970" d="M1193.8006,-168.3733C1213.2243,-159.3838 1242.4224,-145.8706 1264.2964,-135.7471"/>
<polygon fill="#191970" stroke="#191970" points="1265.8656,-138.8776 1273.4708,-131.5011 1262.9255,-132.5249 1265.8656,-138.8776"/>
</g>
<!-- Node47&#45;&gt;Node16 -->
<g id="edge97" class="edge">
<title>Node47&#45;&gt;Node16</title>
<path fill="none" stroke="#191970" d="M1163.663,-168.332C1148.5213,-153.3431 1116.9666,-124.8843 1084,-112 1011.6682,-83.7306 774.691,-71.0437 688.0734,-67.2703"/>
<polygon fill="#191970" stroke="#191970" points="688.1824,-63.7719 678.0428,-66.8442 687.8852,-70.7656 688.1824,-63.7719"/>
</g>
<!-- Node48&#45;&gt;Node16 -->
<g id="edge100" class="edge">
<title>Node48&#45;&gt;Node16</title>
<path fill="none" stroke="#191970" d="M579.526,-430.8543C562.6364,-422.516 541.1201,-408.6812 531,-389 524.6996,-376.7472 529.0707,-371.642 531,-358 546.9348,-245.3252 540.2948,-207.6138 602,-112 609.617,-100.1972 621.1665,-89.7801 631.6321,-81.857"/>
<polygon fill="#191970" stroke="#191970" points="633.9728,-84.4853 640.0581,-75.8124 629.8925,-78.7975 633.9728,-84.4853"/>
</g>
<!-- Node49&#45;&gt;Node16 -->
<g id="edge110" class="edge">
<title>Node49&#45;&gt;Node16</title>
<path fill="none" stroke="#191970" d="M610.5042,-363.9967C601.7834,-328.8977 575.1435,-203.8526 612,-112 616.6633,-100.3782 625.8188,-90.0324 634.5762,-82.1099"/>
<polygon fill="#191970" stroke="#191970" points="636.9727,-84.6675 642.3664,-75.5484 632.4632,-79.3136 636.9727,-84.6675"/>
</g>
<!-- Node49&#45;&gt;Node19 -->
<g id="edge106" class="edge">
<title>Node49&#45;&gt;Node19</title>
<path fill="none" stroke="#191970" d="M622.4212,-363.8631C644.5145,-341.2638 699.8825,-284.6278 727.6231,-256.2519"/>
<polygon fill="#191970" stroke="#191970" points="730.1763,-258.647 734.6642,-249.0496 725.1708,-253.7536 730.1763,-258.647"/>
</g>
<!-- Node49&#45;&gt;Node21 -->
<g id="edge109" class="edge">
<title>Node49&#45;&gt;Node21</title>
<path fill="none" stroke="#191970" d="M638.8174,-363.8914C681.7773,-348.0172 770.7564,-315.6236 847,-291 947.5064,-258.5405 971.3134,-244.1059 1075,-224 1236.7654,-192.632 1290.7273,-248.4937 1444,-188 1471.4304,-177.1738 1497.4998,-154.8754 1513.5983,-139.2038"/>
<polygon fill="#191970" stroke="#191970" points="1516.4861,-141.2641 1521.0623,-131.7085 1511.526,-136.3247 1516.4861,-141.2641"/>
</g>
<!-- Node49&#45;&gt;Node28 -->
<g id="edge105" class="edge">
<title>Node49&#45;&gt;Node28</title>
<path fill="none" stroke="#191970" d="M590.3625,-363.9005C563.2599,-352.4077 517.6901,-333.0838 486.9961,-320.068"/>
<polygon fill="#191970" stroke="#191970" points="488.1684,-316.7635 477.5956,-316.0817 485.4356,-323.208 488.1684,-316.7635"/>
</g>
<!-- Node50 -->
<g id="node50" class="node">
<title>Node50</title>
<g id="a_node50"><a xlink:href="TransformSemantics_8h.html" target="_top" xlink:title="iDynTree/Core/TransformSemantics.h">
<polygon fill="none" stroke="#000000" points="621.5,-112.5 621.5,-131.5 818.5,-131.5 818.5,-112.5 621.5,-112.5"/>
<text text-anchor="middle" x="720" y="-119.5" font-family="FreeSans.ttf" font-size="10.00" fill="#000000">iDynTree/Core/TransformSemantics.h</text>
</a>
</g>
</g>
<!-- Node49&#45;&gt;Node50 -->
<g id="edge107" class="edge">
<title>Node49&#45;&gt;Node50</title>
<path fill="none" stroke="#191970" d="M615.876,-363.8675C623.1681,-339.8296 643.412,-275.4355 666,-224 679.2241,-193.8871 697.6899,-160.4568 709.2393,-140.3427"/>
<polygon fill="#191970" stroke="#191970" points="712.3136,-142.018 714.3001,-131.6111 706.2573,-138.5078 712.3136,-142.018"/>
</g>
<!-- Node50&#45;&gt;Node16 -->
<g id="edge108" class="edge">
<title>Node50&#45;&gt;Node16</title>
<path fill="none" stroke="#191970" d="M708.8521,-112.2455C699.4913,-104.0549 685.9142,-92.1749 674.8651,-82.5069"/>
<polygon fill="#191970" stroke="#191970" points="676.8508,-79.5937 667.0202,-75.6427 672.2412,-84.8618 676.8508,-79.5937"/>
</g>
</g>
</svg>
