<?xml version="1.0" encoding="UTF-8" standalone="no"?>
<!DOCTYPE svg PUBLIC "-//W3C//DTD SVG 1.1//EN"
 "http://www.w3.org/Graphics/SVG/1.1/DTD/svg11.dtd">
<!-- Generated by graphviz version 2.40.1 (20161225.0304)
 -->
<!-- Title: SchmittTrigger.cpp Pages: 1 -->
<svg width="123pt" height="151pt"
 viewBox="0.00 0.00 123.00 151.00" xmlns="http://www.w3.org/2000/svg" xmlns:xlink="http://www.w3.org/1999/xlink">
<g id="graph0" class="graph" transform="scale(1 1) rotate(0) translate(4 147)">
<title>SchmittTrigger.cpp</title>
<!-- Node0 -->
<g id="node1" class="node">
<title>Node0</title>
<polygon fill="#bfbfbf" stroke="#000000" points="4,-123.5 4,-142.5 111,-142.5 111,-123.5 4,-123.5"/>
<text text-anchor="middle" x="57.5" y="-130.5" font-family="FreeSans.ttf" font-size="10.00" fill="#000000">SchmittTrigger.cpp</text>
</g>
<!-- Node1 -->
<g id="node2" class="node">
<title>Node1</title>
<g id="a_node2"><a xlink:href="SchmittTrigger_8h.html" target="_top" xlink:title="iDynTree/Estimation\l/SchmittTrigger.h">
<polygon fill="none" stroke="#000000" points="0,-56.5 0,-86.5 115,-86.5 115,-56.5 0,-56.5"/>
<text text-anchor="start" x="8" y="-74.5" font-family="FreeSans.ttf" font-size="10.00" fill="#000000">iDynTree/Estimation</text>
<text text-anchor="middle" x="57.5" y="-63.5" font-family="FreeSans.ttf" font-size="10.00" fill="#000000">/SchmittTrigger.h</text>
</a>
</g>
</g>
<!-- Node0&#45;&gt;Node1 -->
<g id="edge1" class="edge">
<title>Node0&#45;&gt;Node1</title>
<path fill="none" stroke="#191970" d="M57.5,-123.3906C57.5,-116.2234 57.5,-106.0862 57.5,-96.671"/>
<polygon fill="#191970" stroke="#191970" points="61.0001,-96.5446 57.5,-86.5446 54.0001,-96.5446 61.0001,-96.5446"/>
</g>
<!-- Node2 -->
<g id="node3" class="node">
<title>Node2</title>
<polygon fill="none" stroke="#bfbfbf" points="27.5,-.5 27.5,-19.5 87.5,-19.5 87.5,-.5 27.5,-.5"/>
<text text-anchor="middle" x="57.5" y="-7.5" font-family="FreeSans.ttf" font-size="10.00" fill="#000000">iostream</text>
</g>
<!-- Node1&#45;&gt;Node2 -->
<g id="edge2" class="edge">
<title>Node1&#45;&gt;Node2</title>
<path fill="none" stroke="#191970" d="M57.5,-56.2977C57.5,-48.3834 57.5,-38.6043 57.5,-30.0759"/>
<polygon fill="#191970" stroke="#191970" points="61.0001,-29.8469 57.5,-19.8469 54.0001,-29.847 61.0001,-29.8469"/>
</g>
</g>
</svg>
