<?xml version="1.0" encoding="UTF-8" standalone="no"?>
<!DOCTYPE svg PUBLIC "-//W3C//DTD SVG 1.1//EN"
 "http://www.w3.org/Graphics/SVG/1.1/DTD/svg11.dtd">
<!-- Generated by graphviz version 2.40.1 (20161225.0304)
 -->
<!-- Title: SensorElement.h Pages: 1 -->
<svg width="554pt" height="140pt"
 viewBox="0.00 0.00 553.50 140.00" xmlns="http://www.w3.org/2000/svg" xmlns:xlink="http://www.w3.org/1999/xlink">
<g id="graph0" class="graph" transform="scale(1 1) rotate(0) translate(4 136)">
<title>SensorElement.h</title>
<!-- Node59 -->
<g id="node1" class="node">
<title>Node59</title>
<polygon fill="#bfbfbf" stroke="#000000" points="275,-112.5 275,-131.5 374,-131.5 374,-112.5 275,-112.5"/>
<text text-anchor="middle" x="324.5" y="-119.5" font-family="FreeSans.ttf" font-size="10.00" fill="#000000">SensorElement.h</text>
</g>
<!-- Node60 -->
<g id="node2" class="node">
<title>Node60</title>
<g id="a_node2"><a xlink:href="ForceTorqueSensorElement_8h.html" target="_top" xlink:title="ForceTorqueSensorElement.h">
<polygon fill="none" stroke="#000000" points="98.5,-56.5 98.5,-75.5 256.5,-75.5 256.5,-56.5 98.5,-56.5"/>
<text text-anchor="middle" x="177.5" y="-63.5" font-family="FreeSans.ttf" font-size="10.00" fill="#000000">ForceTorqueSensorElement.h</text>
</a>
</g>
</g>
<!-- Node59&#45;&gt;Node60 -->
<g id="edge1" class="edge">
<title>Node59&#45;&gt;Node60</title>
<path fill="none" stroke="#191970" d="M289.8206,-108.7888C262.9802,-98.5639 226.453,-84.6488 202.4404,-75.5011"/>
<polygon fill="#191970" stroke="#191970" points="288.6389,-112.0839 299.2298,-112.3733 291.1309,-105.5425 288.6389,-112.0839"/>
</g>
<!-- Node62 -->
<g id="node4" class="node">
<title>Node62</title>
<g id="a_node4"><a xlink:href="SensorElement_8cpp.html" target="_top" xlink:title="SensorElement.cpp">
<polygon fill="none" stroke="#000000" points="187.5,-.5 187.5,-19.5 297.5,-19.5 297.5,-.5 187.5,-.5"/>
<text text-anchor="middle" x="242.5" y="-7.5" font-family="FreeSans.ttf" font-size="10.00" fill="#000000">SensorElement.cpp</text>
</a>
</g>
</g>
<!-- Node59&#45;&gt;Node62 -->
<g id="edge8" class="edge">
<title>Node59&#45;&gt;Node62</title>
<path fill="none" stroke="#191970" d="M311.476,-104.2111C293.8956,-80.1989 263.1961,-38.2679 249.4736,-19.5249"/>
<polygon fill="#191970" stroke="#191970" points="308.7773,-106.4499 317.5087,-112.4509 314.4253,-102.3147 308.7773,-106.4499"/>
</g>
<!-- Node63 -->
<g id="node5" class="node">
<title>Node63</title>
<g id="a_node5"><a xlink:href="URDFDocument_8h.html" target="_top" xlink:title="URDFDocument.h">
<polygon fill="none" stroke="#000000" points="313,-56.5 313,-75.5 416,-75.5 416,-56.5 313,-56.5"/>
<text text-anchor="middle" x="364.5" y="-63.5" font-family="FreeSans.ttf" font-size="10.00" fill="#000000">URDFDocument.h</text>
</a>
</g>
</g>
<!-- Node59&#45;&gt;Node63 -->
<g id="edge4" class="edge">
<title>Node59&#45;&gt;Node63</title>
<path fill="none" stroke="#191970" d="M337.4136,-103.9209C344.1303,-94.5176 352.0717,-83.3997 357.6124,-75.6427"/>
<polygon fill="#191970" stroke="#191970" points="334.4318,-102.0738 331.4675,-112.2455 340.128,-106.1425 334.4318,-102.0738"/>
</g>
<!-- Node66 -->
<g id="node8" class="node">
<title>Node66</title>
<g id="a_node8"><a xlink:href="RobotElement_8cpp.html" target="_top" xlink:title="RobotElement.cpp">
<polygon fill="none" stroke="#000000" points="434,-56.5 434,-75.5 539,-75.5 539,-56.5 434,-56.5"/>
<text text-anchor="middle" x="486.5" y="-63.5" font-family="FreeSans.ttf" font-size="10.00" fill="#000000">RobotElement.cpp</text>
</a>
</g>
</g>
<!-- Node59&#45;&gt;Node66 -->
<g id="edge7" class="edge">
<title>Node59&#45;&gt;Node66</title>
<path fill="none" stroke="#191970" d="M361.9422,-109.057C391.5901,-98.8084 432.3196,-84.729 459.0146,-75.5011"/>
<polygon fill="#191970" stroke="#191970" points="360.6565,-105.7982 352.3488,-112.3733 362.9436,-112.414 360.6565,-105.7982"/>
</g>
<!-- Node61 -->
<g id="node3" class="node">
<title>Node61</title>
<g id="a_node3"><a xlink:href="ForceTorqueSensorElement_8cpp.html" target="_top" xlink:title="ForceTorqueSensorElement.cpp">
<polygon fill="none" stroke="#000000" points="0,-.5 0,-19.5 169,-19.5 169,-.5 0,-.5"/>
<text text-anchor="middle" x="84.5" y="-7.5" font-family="FreeSans.ttf" font-size="10.00" fill="#000000">ForceTorqueSensorElement.cpp</text>
</a>
</g>
</g>
<!-- Node60&#45;&gt;Node61 -->
<g id="edge2" class="edge">
<title>Node60&#45;&gt;Node61</title>
<path fill="none" stroke="#191970" d="M152.6665,-51.0465C136.1189,-41.0824 114.8568,-28.2794 100.5137,-19.6427"/>
<polygon fill="#191970" stroke="#191970" points="150.9283,-54.0854 161.3006,-56.2455 154.5393,-48.0886 150.9283,-54.0854"/>
</g>
<!-- Node60&#45;&gt;Node62 -->
<g id="edge3" class="edge">
<title>Node60&#45;&gt;Node62</title>
<path fill="none" stroke="#191970" d="M196.4835,-49.645C207.7879,-39.9058 221.747,-27.8795 231.3076,-19.6427"/>
<polygon fill="#191970" stroke="#191970" points="194.1138,-47.0668 188.8221,-56.2455 198.6827,-52.3701 194.1138,-47.0668"/>
</g>
<!-- Node64 -->
<g id="node6" class="node">
<title>Node64</title>
<g id="a_node6"><a xlink:href="ModelLoader_8cpp.html" target="_top" xlink:title="ModelLoader.cpp">
<polygon fill="none" stroke="#000000" points="315.5,-.5 315.5,-19.5 413.5,-19.5 413.5,-.5 315.5,-.5"/>
<text text-anchor="middle" x="364.5" y="-7.5" font-family="FreeSans.ttf" font-size="10.00" fill="#000000">ModelLoader.cpp</text>
</a>
</g>
</g>
<!-- Node63&#45;&gt;Node64 -->
<g id="edge5" class="edge">
<title>Node63&#45;&gt;Node64</title>
<path fill="none" stroke="#191970" d="M364.5,-46.1575C364.5,-37.155 364.5,-26.9199 364.5,-19.6427"/>
<polygon fill="#191970" stroke="#191970" points="361.0001,-46.2455 364.5,-56.2455 368.0001,-46.2456 361.0001,-46.2455"/>
</g>
<!-- Node65 -->
<g id="node7" class="node">
<title>Node65</title>
<g id="a_node7"><a xlink:href="URDFDocument_8cpp.html" target="_top" xlink:title="URDFDocument.cpp">
<polygon fill="none" stroke="#000000" points="431.5,-.5 431.5,-19.5 545.5,-19.5 545.5,-.5 431.5,-.5"/>
<text text-anchor="middle" x="488.5" y="-7.5" font-family="FreeSans.ttf" font-size="10.00" fill="#000000">URDFDocument.cpp</text>
</a>
</g>
</g>
<!-- Node63&#45;&gt;Node65 -->
<g id="edge6" class="edge">
<title>Node63&#45;&gt;Node65</title>
<path fill="none" stroke="#191970" d="M394.9524,-52.2473C417.4722,-42.0771 447.5617,-28.4883 467.4618,-19.5011"/>
<polygon fill="#191970" stroke="#191970" points="393.4895,-49.0675 385.8164,-56.3733 396.3706,-55.4471 393.4895,-49.0675"/>
</g>
</g>
</svg>
