<?xml version="1.0" encoding="UTF-8" standalone="no"?>
<!DOCTYPE svg PUBLIC "-//W3C//DTD SVG 1.1//EN"
 "http://www.w3.org/Graphics/SVG/1.1/DTD/svg11.dtd">
<!-- Generated by graphviz version 2.40.1 (20161225.0304)
 -->
<!-- Title: SimpleLeggedOdometry.cpp Pages: 1 -->
<svg width="2816pt" height="643pt"
 viewBox="0.00 0.00 2816.43 643.00" xmlns="http://www.w3.org/2000/svg" xmlns:xlink="http://www.w3.org/1999/xlink">
<g id="graph0" class="graph" transform="scale(1 1) rotate(0) translate(4 639)">
<title>SimpleLeggedOdometry.cpp</title>
<!-- Node0 -->
<g id="node1" class="node">
<title>Node0</title>
<polygon fill="#bfbfbf" stroke="#000000" points="2316.4266,-615.5 2316.4266,-634.5 2469.4266,-634.5 2469.4266,-615.5 2316.4266,-615.5"/>
<text text-anchor="middle" x="2392.9266" y="-622.5" font-family="FreeSans.ttf" font-size="10.00" fill="#000000">SimpleLeggedOdometry.cpp</text>
</g>
<!-- Node1 -->
<g id="node2" class="node">
<title>Node1</title>
<g id="a_node2"><a xlink:href="EigenHelpers_8h.html" target="_top" xlink:title="iDynTree/Core/EigenHelpers.h">
<polygon fill="none" stroke="#000000" points="234.4266,-436.5 234.4266,-455.5 395.4266,-455.5 395.4266,-436.5 234.4266,-436.5"/>
<text text-anchor="middle" x="314.9266" y="-443.5" font-family="FreeSans.ttf" font-size="10.00" fill="#000000">iDynTree/Core/EigenHelpers.h</text>
</a>
</g>
</g>
<!-- Node0&#45;&gt;Node1 -->
<g id="edge1" class="edge">
<title>Node0&#45;&gt;Node1</title>
<path fill="none" stroke="#191970" d="M2316.2594,-619.0787C2204.4737,-610.4206 1990.1996,-593.7327 1807.9266,-579 1449.1958,-550.0046 1359.3908,-544.123 1000.9266,-512 787.5123,-492.8753 536.9786,-468.2096 405.6975,-455.1143"/>
<polygon fill="#191970" stroke="#191970" points="405.9808,-451.6253 395.6826,-454.1147 405.2855,-458.5907 405.9808,-451.6253"/>
</g>
<!-- Node17 -->
<g id="node14" class="node">
<title>Node17</title>
<polygon fill="none" stroke="#bfbfbf" points="924.9266,-56.5 924.9266,-75.5 980.9266,-75.5 980.9266,-56.5 924.9266,-56.5"/>
<text text-anchor="middle" x="952.9266" y="-63.5" font-family="FreeSans.ttf" font-size="10.00" fill="#000000">sstream</text>
</g>
<!-- Node0&#45;&gt;Node17 -->
<g id="edge117" class="edge">
<title>Node0&#45;&gt;Node17</title>
<path fill="none" stroke="#191970" d="M2316.4031,-623.0933C1908.859,-612.6936 11.9266,-561.1128 11.9266,-502 11.9266,-502 11.9266,-502 11.9266,-317.5 11.9266,-238.536 41.0005,-209.9072 107.9266,-168 253.9836,-76.5432 706.9588,-97.6105 877.9266,-76 889.9214,-74.4838 902.9858,-72.7653 914.8003,-71.1858"/>
<polygon fill="#191970" stroke="#191970" points="915.3576,-74.6425 924.8026,-69.8422 914.4256,-67.7048 915.3576,-74.6425"/>
</g>
<!-- Node43 -->
<g id="node31" class="node">
<title>Node43</title>
<g id="a_node31"><a xlink:href="SimpleLeggedOdometry_8h.html" target="_top" xlink:title="iDynTree/Estimation\l/SimpleLeggedOdometry.h">
<polygon fill="none" stroke="#000000" points="1816.4266,-548.5 1816.4266,-578.5 1961.4266,-578.5 1961.4266,-548.5 1816.4266,-548.5"/>
<text text-anchor="start" x="1824.4266" y="-566.5" font-family="FreeSans.ttf" font-size="10.00" fill="#000000">iDynTree/Estimation</text>
<text text-anchor="middle" x="1888.9266" y="-555.5" font-family="FreeSans.ttf" font-size="10.00" fill="#000000">/SimpleLeggedOdometry.h</text>
</a>
</g>
</g>
<!-- Node0&#45;&gt;Node43 -->
<g id="edge62" class="edge">
<title>Node0&#45;&gt;Node43</title>
<path fill="none" stroke="#191970" d="M2316.3798,-615.6595C2223.5195,-604.3283 2067.5581,-585.2973 1971.8956,-573.6242"/>
<polygon fill="#191970" stroke="#191970" points="1972.0351,-570.1153 1961.6847,-572.3782 1971.1871,-577.0638 1972.0351,-570.1153"/>
</g>
<!-- Node44 -->
<g id="node32" class="node">
<title>Node44</title>
<g id="a_node32"><a xlink:href="Indices_8h.html" target="_top" xlink:title="iDynTree/Model/Indices.h">
<polygon fill="none" stroke="#000000" points="2043.9266,-308 2043.9266,-327 2181.9266,-327 2181.9266,-308 2043.9266,-308"/>
<text text-anchor="middle" x="2112.9266" y="-315" font-family="FreeSans.ttf" font-size="10.00" fill="#000000">iDynTree/Model/Indices.h</text>
</a>
</g>
</g>
<!-- Node0&#45;&gt;Node44 -->
<g id="edge103" class="edge">
<title>Node0&#45;&gt;Node44</title>
<path fill="none" stroke="#191970" d="M2437.1014,-615.428C2456.8249,-608.7169 2478.2199,-597.508 2489.9266,-579 2544.3969,-492.8838 2484.3167,-423.0347 2397.9266,-369 2364.3377,-347.9911 2264.1052,-333.3322 2192.0058,-325.1665"/>
<polygon fill="#191970" stroke="#191970" points="2192.3543,-321.6838 2182.0288,-324.0574 2191.5809,-328.6409 2192.3543,-321.6838"/>
</g>
<!-- Node62 -->
<g id="node46" class="node">
<title>Node62</title>
<g id="a_node46"><a xlink:href="ForwardKinematics_8h.html" target="_top" xlink:title="iDynTree/Model/ForwardKinematics.h">
<polygon fill="none" stroke="#000000" points="2573.4266,-492.5 2573.4266,-511.5 2770.4266,-511.5 2770.4266,-492.5 2573.4266,-492.5"/>
<text text-anchor="middle" x="2671.9266" y="-499.5" font-family="FreeSans.ttf" font-size="10.00" fill="#000000">iDynTree/Model/ForwardKinematics.h</text>
</a>
</g>
</g>
<!-- Node0&#45;&gt;Node62 -->
<g id="edge101" class="edge">
<title>Node0&#45;&gt;Node62</title>
<path fill="none" stroke="#191970" d="M2444.6676,-615.46C2478.2673,-608.1187 2522.4348,-596.271 2558.9266,-579 2580.5488,-568.7665 2583.1951,-561.5247 2602.9266,-548 2618.075,-537.6167 2635.259,-526.1597 2648.6888,-517.2771"/>
<polygon fill="#191970" stroke="#191970" points="2650.8971,-520.0133 2657.3154,-511.5838 2647.0412,-514.1709 2650.8971,-520.0133"/>
</g>
<!-- Node63 -->
<g id="node47" class="node">
<title>Node63</title>
<g id="a_node47"><a xlink:href="ModelTransformers_8h.html" target="_top" xlink:title="Collection of function to modify model in various ways. ">
<polygon fill="none" stroke="#000000" points="2611.4266,-554 2611.4266,-573 2808.4266,-573 2808.4266,-554 2611.4266,-554"/>
<text text-anchor="middle" x="2709.9266" y="-561" font-family="FreeSans.ttf" font-size="10.00" fill="#000000">iDynTree/Model/ModelTransformers.h</text>
</a>
</g>
</g>
<!-- Node0&#45;&gt;Node63 -->
<g id="edge104" class="edge">
<title>Node0&#45;&gt;Node63</title>
<path fill="none" stroke="#191970" d="M2442.11,-615.4581C2498.4152,-604.5345 2590.6049,-586.6492 2650.7796,-574.9749"/>
<polygon fill="#191970" stroke="#191970" points="2651.7382,-578.3542 2660.8886,-573.0137 2650.405,-571.4824 2651.7382,-578.3542"/>
</g>
<!-- Node64 -->
<g id="node48" class="node">
<title>Node64</title>
<g id="a_node48"><a xlink:href="ModelLoader_8h.html" target="_top" xlink:title="iDynTree/ModelIO/ModelLoader.h">
<polygon fill="none" stroke="#000000" points="2304.9266,-554 2304.9266,-573 2480.9266,-573 2480.9266,-554 2304.9266,-554"/>
<text text-anchor="middle" x="2392.9266" y="-561" font-family="FreeSans.ttf" font-size="10.00" fill="#000000">iDynTree/ModelIO/ModelLoader.h</text>
</a>
</g>
</g>
<!-- Node0&#45;&gt;Node64 -->
<g id="edge105" class="edge">
<title>Node0&#45;&gt;Node64</title>
<path fill="none" stroke="#191970" d="M2392.9266,-615.3906C2392.9266,-606.8657 2392.9266,-594.1392 2392.9266,-583.4235"/>
<polygon fill="#191970" stroke="#191970" points="2396.4267,-583.2448 2392.9266,-573.2449 2389.4267,-583.2449 2396.4267,-583.2448"/>
</g>
<!-- Node2 -->
<g id="node3" class="node">
<title>Node2</title>
<polygon fill="none" stroke="#bfbfbf" points="78.4266,-375 78.4266,-394 155.4266,-394 155.4266,-375 78.4266,-375"/>
<text text-anchor="middle" x="116.9266" y="-382" font-family="FreeSans.ttf" font-size="10.00" fill="#000000">Eigen/Dense</text>
</g>
<!-- Node1&#45;&gt;Node2 -->
<g id="edge2" class="edge">
<title>Node1&#45;&gt;Node2</title>
<path fill="none" stroke="#191970" d="M283.9891,-436.3906C249.8429,-425.7846 194.7592,-408.6753 157.2531,-397.0257"/>
<polygon fill="#191970" stroke="#191970" points="158.235,-393.6658 147.6468,-394.0419 156.1585,-400.3507 158.235,-393.6658"/>
</g>
<!-- Node3 -->
<g id="node4" class="node">
<title>Node3</title>
<g id="a_node4"><a xlink:href="VectorDynSize_8h.html" target="_top" xlink:title="iDynTree/Core/VectorDynSize.h">
<polygon fill="none" stroke="#000000" points="287.4266,-375 287.4266,-394 454.4266,-394 454.4266,-375 287.4266,-375"/>
<text text-anchor="middle" x="370.9266" y="-382" font-family="FreeSans.ttf" font-size="10.00" fill="#000000">iDynTree/Core/VectorDynSize.h</text>
</a>
</g>
</g>
<!-- Node1&#45;&gt;Node3 -->
<g id="edge3" class="edge">
<title>Node1&#45;&gt;Node3</title>
<path fill="none" stroke="#191970" d="M323.6766,-436.3906C332.0928,-427.1478 345.0063,-412.966 355.2076,-401.7628"/>
<polygon fill="#191970" stroke="#191970" points="357.9084,-403.9953 362.0532,-394.2449 352.7326,-399.2824 357.9084,-403.9953"/>
</g>
<!-- Node15 -->
<g id="node12" class="node">
<title>Node15</title>
<g id="a_node12"><a xlink:href="VectorFixSize_8h.html" target="_top" xlink:title="iDynTree/Core/VectorFixSize.h">
<polygon fill="none" stroke="#000000" points="778.4266,-112.5 778.4266,-131.5 939.4266,-131.5 939.4266,-112.5 778.4266,-112.5"/>
<text text-anchor="middle" x="858.9266" y="-119.5" font-family="FreeSans.ttf" font-size="10.00" fill="#000000">iDynTree/Core/VectorFixSize.h</text>
</a>
</g>
</g>
<!-- Node1&#45;&gt;Node15 -->
<g id="edge11" class="edge">
<title>Node1&#45;&gt;Node15</title>
<path fill="none" stroke="#191970" d="M286.4928,-436.3889C267.8813,-428.9028 244.1026,-416.9183 227.9266,-400 150.9266,-319.4666 56.6718,-249.2393 132.9266,-168 154.3436,-145.183 577.8904,-130.1208 767.9653,-124.4846"/>
<polygon fill="#191970" stroke="#191970" points="768.323,-127.9757 778.2157,-124.1831 768.1171,-120.9788 768.323,-127.9757"/>
</g>
<!-- Node16 -->
<g id="node13" class="node">
<title>Node16</title>
<g id="a_node13"><a xlink:href="Utils_8h.html" target="_top" xlink:title="iDynTree/Core/Utils.h">
<polygon fill="none" stroke="#000000" points="749.4266,-56.5 749.4266,-75.5 868.4266,-75.5 868.4266,-56.5 749.4266,-56.5"/>
<text text-anchor="middle" x="808.9266" y="-63.5" font-family="FreeSans.ttf" font-size="10.00" fill="#000000">iDynTree/Core/Utils.h</text>
</a>
</g>
</g>
<!-- Node1&#45;&gt;Node16 -->
<g id="edge61" class="edge">
<title>Node1&#45;&gt;Node16</title>
<path fill="none" stroke="#191970" d="M234.3492,-441.7921C170.8928,-436.5926 89.7783,-425.1122 68.9266,-400 46.3148,-372.7681 -14.1071,-284.3916 107.9266,-168 208.5778,-72.0023 583.6736,-95.4745 739.2954,-76.1239"/>
<polygon fill="#191970" stroke="#191970" points="739.7805,-79.5903 749.2233,-74.7857 738.8454,-72.653 739.7805,-79.5903"/>
</g>
<!-- Node19 -->
<g id="node16" class="node">
<title>Node19</title>
<g id="a_node16"><a xlink:href="MatrixDynSize_8h.html" target="_top" xlink:title="iDynTree/Core/MatrixDynSize.h">
<polygon fill="none" stroke="#000000" points="141.4266,-174 141.4266,-193 308.4266,-193 308.4266,-174 141.4266,-174"/>
<text text-anchor="middle" x="224.9266" y="-181" font-family="FreeSans.ttf" font-size="10.00" fill="#000000">iDynTree/Core/MatrixDynSize.h</text>
</a>
</g>
</g>
<!-- Node1&#45;&gt;Node19 -->
<g id="edge19" class="edge">
<title>Node1&#45;&gt;Node19</title>
<path fill="none" stroke="#191970" d="M290.6302,-436.3901C275.1115,-428.9045 256.0631,-416.9201 245.9266,-400 207.8685,-336.4727 215.7948,-243.2305 221.5872,-203.0763"/>
<polygon fill="#191970" stroke="#191970" points="225.0725,-203.4421 223.1592,-193.0214 218.1565,-202.3608 225.0725,-203.4421"/>
</g>
<!-- Node20 -->
<g id="node17" class="node">
<title>Node20</title>
<g id="a_node17"><a xlink:href="MatrixFixSize_8h.html" target="_top" xlink:title="iDynTree/Core/MatrixFixSize.h">
<polygon fill="none" stroke="#000000" points="996.4266,-112.5 996.4266,-131.5 1157.4266,-131.5 1157.4266,-112.5 996.4266,-112.5"/>
<text text-anchor="middle" x="1076.9266" y="-119.5" font-family="FreeSans.ttf" font-size="10.00" fill="#000000">iDynTree/Core/MatrixFixSize.h</text>
</a>
</g>
</g>
<!-- Node1&#45;&gt;Node20 -->
<g id="edge21" class="edge">
<title>Node1&#45;&gt;Node20</title>
<path fill="none" stroke="#191970" d="M304.0718,-436.2679C295.3923,-427.7019 283.8849,-414.3808 278.9266,-400 263.4228,-355.0338 285.3981,-332.4629 321.9266,-302 423.6962,-217.1293 814.7408,-156.4209 990.4958,-132.8439"/>
<polygon fill="#191970" stroke="#191970" points="991.0342,-136.3032 1000.4843,-131.5129 990.1096,-129.3645 991.0342,-136.3032"/>
</g>
<!-- Node22 -->
<g id="node19" class="node">
<title>Node22</title>
<g id="a_node19"><a xlink:href="SpatialMotionVector_8h.html" target="_top" xlink:title="iDynTree/Core/SpatialMotion\lVector.h">
<polygon fill="none" stroke="#000000" points="937.4266,-369.5 937.4266,-399.5 1092.4266,-399.5 1092.4266,-369.5 937.4266,-369.5"/>
<text text-anchor="start" x="945.4266" y="-387.5" font-family="FreeSans.ttf" font-size="10.00" fill="#000000">iDynTree/Core/SpatialMotion</text>
<text text-anchor="middle" x="1014.9266" y="-376.5" font-family="FreeSans.ttf" font-size="10.00" fill="#000000">Vector.h</text>
</a>
</g>
</g>
<!-- Node1&#45;&gt;Node22 -->
<g id="edge28" class="edge">
<title>Node1&#45;&gt;Node22</title>
<path fill="none" stroke="#191970" d="M395.5671,-438.9152C527.9658,-427.283 790.3502,-404.2306 927.219,-392.2057"/>
<polygon fill="#191970" stroke="#191970" points="927.5993,-395.6859 937.2546,-391.324 926.9866,-388.7128 927.5993,-395.6859"/>
</g>
<!-- Node37 -->
<g id="node26" class="node">
<title>Node37</title>
<g id="a_node26"><a xlink:href="SpatialForceVector_8h.html" target="_top" xlink:title="iDynTree/Core/SpatialForce\lVector.h">
<polygon fill="none" stroke="#000000" points="565.9266,-369.5 565.9266,-399.5 713.9266,-399.5 713.9266,-369.5 565.9266,-369.5"/>
<text text-anchor="start" x="573.9266" y="-387.5" font-family="FreeSans.ttf" font-size="10.00" fill="#000000">iDynTree/Core/SpatialForce</text>
<text text-anchor="middle" x="639.9266" y="-376.5" font-family="FreeSans.ttf" font-size="10.00" fill="#000000">Vector.h</text>
</a>
</g>
</g>
<!-- Node1&#45;&gt;Node37 -->
<g id="edge46" class="edge">
<title>Node1&#45;&gt;Node37</title>
<path fill="none" stroke="#191970" d="M365.3512,-436.4581C416.1876,-426.8383 495.5562,-411.8193 555.9129,-400.398"/>
<polygon fill="#191970" stroke="#191970" points="556.6333,-403.8238 565.8081,-398.5255 555.3317,-396.9459 556.6333,-403.8238"/>
</g>
<!-- Node41 -->
<g id="node29" class="node">
<title>Node41</title>
<g id="a_node29"><a xlink:href="Transform_8h.html" target="_top" xlink:title="iDynTree/Core/Transform.h">
<polygon fill="none" stroke="#000000" points="1411.9266,-308 1411.9266,-327 1557.9266,-327 1557.9266,-308 1411.9266,-308"/>
<text text-anchor="middle" x="1484.9266" y="-315" font-family="FreeSans.ttf" font-size="10.00" fill="#000000">iDynTree/Core/Transform.h</text>
</a>
</g>
</g>
<!-- Node1&#45;&gt;Node41 -->
<g id="edge54" class="edge">
<title>Node1&#45;&gt;Node41</title>
<path fill="none" stroke="#191970" d="M395.5053,-442.8662C567.7916,-435.9081 967.2441,-418.3309 1101.9266,-400 1225.4233,-383.1916 1368.352,-348.1777 1439.6234,-329.632"/>
<polygon fill="#191970" stroke="#191970" points="1440.8198,-332.9368 1449.6081,-327.0193 1439.0477,-326.1648 1440.8198,-332.9368"/>
</g>
<!-- Node4 -->
<g id="node5" class="node">
<title>Node4</title>
<g id="a_node5"><a xlink:href="Span_8h.html" target="_top" xlink:title="iDynTree/Core/Span.h">
<polygon fill="none" stroke="#ff0000" points="610.4266,-56.5 610.4266,-75.5 731.4266,-75.5 731.4266,-56.5 610.4266,-56.5"/>
<text text-anchor="middle" x="670.9266" y="-63.5" font-family="FreeSans.ttf" font-size="10.00" fill="#000000">iDynTree/Core/Span.h</text>
</a>
</g>
</g>
<!-- Node3&#45;&gt;Node4 -->
<g id="edge4" class="edge">
<title>Node3&#45;&gt;Node4</title>
<path fill="none" stroke="#191970" d="M338.0688,-374.9305C231.9788,-342.5488 -88.1892,-232.37 23.9266,-112 43.3242,-91.1743 435.6581,-74.5512 599.7473,-68.4827"/>
<polygon fill="#191970" stroke="#191970" points="600.3542,-71.9629 610.2191,-68.0983 600.0974,-64.9676 600.3542,-71.9629"/>
</g>
<!-- Node14 -->
<g id="node11" class="node">
<title>Node14</title>
<polygon fill="none" stroke="#bfbfbf" points="1386.9266,-56.5 1386.9266,-75.5 1430.9266,-75.5 1430.9266,-56.5 1386.9266,-56.5"/>
<text text-anchor="middle" x="1408.9266" y="-63.5" font-family="FreeSans.ttf" font-size="10.00" fill="#000000">string</text>
</g>
<!-- Node3&#45;&gt;Node14 -->
<g id="edge10" class="edge">
<title>Node3&#45;&gt;Node14</title>
<path fill="none" stroke="#191970" d="M370.6136,-374.8731C370.6047,-357.7784 373.1383,-322.0415 392.9266,-302 431.6808,-262.7498 578.14,-247.2261 631.9266,-235 890.2127,-176.2896 962.5513,-198.5608 1218.9266,-132 1275.8602,-117.2188 1340.1319,-93.3142 1377.4349,-78.6922"/>
<polygon fill="#191970" stroke="#191970" points="1378.7492,-81.9362 1386.7647,-75.0078 1376.1781,-75.4255 1378.7492,-81.9362"/>
</g>
<!-- Node5 -->
<g id="node6" class="node">
<title>Node5</title>
<polygon fill="none" stroke="#bfbfbf" points="870.9266,-.5 870.9266,-19.5 922.9266,-19.5 922.9266,-.5 870.9266,-.5"/>
<text text-anchor="middle" x="896.9266" y="-7.5" font-family="FreeSans.ttf" font-size="10.00" fill="#000000">cassert</text>
</g>
<!-- Node4&#45;&gt;Node5 -->
<g id="edge5" class="edge">
<title>Node4&#45;&gt;Node5</title>
<path fill="none" stroke="#191970" d="M709.5206,-56.4369C751.9414,-45.9255 819.5466,-29.1738 860.9121,-18.9239"/>
<polygon fill="#191970" stroke="#191970" points="861.9675,-22.2684 870.8321,-16.4659 860.2838,-15.4738 861.9675,-22.2684"/>
</g>
<!-- Node6 -->
<g id="node7" class="node">
<title>Node6</title>
<polygon fill="none" stroke="#bfbfbf" points="603.9266,-.5 603.9266,-19.5 667.9266,-19.5 667.9266,-.5 603.9266,-.5"/>
<text text-anchor="middle" x="635.9266" y="-7.5" font-family="FreeSans.ttf" font-size="10.00" fill="#000000">algorithm</text>
</g>
<!-- Node4&#45;&gt;Node6 -->
<g id="edge6" class="edge">
<title>Node4&#45;&gt;Node6</title>
<path fill="none" stroke="#191970" d="M664.83,-56.2455C660.012,-48.5367 653.1514,-37.5598 647.3233,-28.2348"/>
<polygon fill="#191970" stroke="#191970" points="650.2213,-26.2677 641.9532,-19.6427 644.2853,-29.9777 650.2213,-26.2677"/>
</g>
<!-- Node7 -->
<g id="node8" class="node">
<title>Node7</title>
<polygon fill="none" stroke="#bfbfbf" points="685.9266,-.5 685.9266,-19.5 727.9266,-19.5 727.9266,-.5 685.9266,-.5"/>
<text text-anchor="middle" x="706.9266" y="-7.5" font-family="FreeSans.ttf" font-size="10.00" fill="#000000">array</text>
</g>
<!-- Node4&#45;&gt;Node7 -->
<g id="edge7" class="edge">
<title>Node4&#45;&gt;Node7</title>
<path fill="none" stroke="#191970" d="M677.1973,-56.2455C682.153,-48.5367 689.2095,-37.5598 695.2042,-28.2348"/>
<polygon fill="#191970" stroke="#191970" points="698.2642,-29.9471 700.7277,-19.6427 692.376,-26.1618 698.2642,-29.9471"/>
</g>
<!-- Node8 -->
<g id="node9" class="node">
<title>Node8</title>
<polygon fill="none" stroke="#bfbfbf" points="764.4266,-.5 764.4266,-19.5 817.4266,-19.5 817.4266,-.5 764.4266,-.5"/>
<text text-anchor="middle" x="790.9266" y="-7.5" font-family="FreeSans.ttf" font-size="10.00" fill="#000000">cstddef</text>
</g>
<!-- Node4&#45;&gt;Node8 -->
<g id="edge8" class="edge">
<title>Node4&#45;&gt;Node8</title>
<path fill="none" stroke="#191970" d="M691.5553,-56.3733C710.8184,-47.3838 739.7752,-33.8706 761.4685,-23.7471"/>
<polygon fill="#191970" stroke="#191970" points="762.9853,-26.9017 770.567,-19.5011 760.0251,-20.5584 762.9853,-26.9017"/>
</g>
<!-- Node9 -->
<g id="node10" class="node">
<title>Node9</title>
<polygon fill="none" stroke="#bfbfbf" points="1727.4266,-.5 1727.4266,-19.5 1780.4266,-19.5 1780.4266,-.5 1727.4266,-.5"/>
<text text-anchor="middle" x="1753.9266" y="-7.5" font-family="FreeSans.ttf" font-size="10.00" fill="#000000">iterator</text>
</g>
<!-- Node4&#45;&gt;Node9 -->
<g id="edge9" class="edge">
<title>Node4&#45;&gt;Node9</title>
<path fill="none" stroke="#191970" d="M731.5904,-56.9684C734.7446,-56.6132 737.871,-56.287 740.9266,-56 1121.1088,-20.2962 1584.2603,-12.072 1716.8624,-10.3927"/>
<polygon fill="#191970" stroke="#191970" points="1717.2962,-13.8878 1727.2528,-10.2662 1717.2109,-6.8883 1717.2962,-13.8878"/>
</g>
<!-- Node15&#45;&gt;Node4 -->
<g id="edge14" class="edge">
<title>Node15&#45;&gt;Node4</title>
<path fill="none" stroke="#191970" d="M826.6082,-112.3733C795.076,-102.9807 746.9645,-88.6496 712.5765,-78.4064"/>
<polygon fill="#191970" stroke="#191970" points="713.4062,-75.0016 702.8232,-75.5011 711.4079,-81.7103 713.4062,-75.0016"/>
</g>
<!-- Node15&#45;&gt;Node5 -->
<g id="edge17" class="edge">
<title>Node15&#45;&gt;Node5</title>
<path fill="none" stroke="#191970" d="M863.3247,-112.2518C867.3991,-103.0233 873.4823,-88.7255 877.9266,-76 883.3322,-60.5217 888.4123,-42.6304 891.957,-29.3834"/>
<polygon fill="#191970" stroke="#191970" points="895.3968,-30.064 894.547,-19.5033 888.6256,-28.2889 895.3968,-30.064"/>
</g>
<!-- Node15&#45;&gt;Node14 -->
<g id="edge15" class="edge">
<title>Node15&#45;&gt;Node14</title>
<path fill="none" stroke="#191970" d="M939.4903,-113.7971C1062.6721,-101.255 1292.4178,-77.8627 1376.7858,-69.2725"/>
<polygon fill="#191970" stroke="#191970" points="1377.1995,-72.7486 1386.7935,-68.2536 1376.4903,-65.7846 1377.1995,-72.7486"/>
</g>
<!-- Node15&#45;&gt;Node16 -->
<g id="edge12" class="edge">
<title>Node15&#45;&gt;Node16</title>
<path fill="none" stroke="#191970" d="M850.2172,-112.2455C843.1193,-104.2958 832.9181,-92.8706 824.4315,-83.3656"/>
<polygon fill="#191970" stroke="#191970" points="826.8071,-80.771 817.5361,-75.6427 821.5855,-85.4331 826.8071,-80.771"/>
</g>
<!-- Node15&#45;&gt;Node17 -->
<g id="edge16" class="edge">
<title>Node15&#45;&gt;Node17</title>
<path fill="none" stroke="#191970" d="M875.3001,-112.2455C889.8574,-103.5731 911.3576,-90.7645 928.0418,-80.825"/>
<polygon fill="#191970" stroke="#191970" points="929.941,-83.7676 936.7406,-75.6427 926.3583,-77.7539 929.941,-83.7676"/>
</g>
<!-- Node18 -->
<g id="node15" class="node">
<title>Node18</title>
<polygon fill="none" stroke="#bfbfbf" points="998.9266,-56.5 998.9266,-75.5 1048.9266,-75.5 1048.9266,-56.5 998.9266,-56.5"/>
<text text-anchor="middle" x="1023.9266" y="-63.5" font-family="FreeSans.ttf" font-size="10.00" fill="#000000">cstring</text>
</g>
<!-- Node15&#45;&gt;Node18 -->
<g id="edge18" class="edge">
<title>Node15&#45;&gt;Node18</title>
<path fill="none" stroke="#191970" d="M887.2911,-112.3733C915.5199,-102.7926 958.8884,-88.0736 989.1709,-77.7959"/>
<polygon fill="#191970" stroke="#191970" points="990.5535,-81.0228 998.8981,-74.4945 988.3038,-74.3941 990.5535,-81.0228"/>
</g>
<!-- Node16&#45;&gt;Node8 -->
<g id="edge13" class="edge">
<title>Node16&#45;&gt;Node8</title>
<path fill="none" stroke="#191970" d="M805.7912,-56.2455C803.4166,-48.8579 800.0773,-38.4689 797.1651,-29.4087"/>
<polygon fill="#191970" stroke="#191970" points="800.4183,-28.0919 794.026,-19.6427 793.7541,-30.234 800.4183,-28.0919"/>
</g>
<!-- Node19&#45;&gt;Node14 -->
<g id="edge20" class="edge">
<title>Node19&#45;&gt;Node14</title>
<path fill="none" stroke="#191970" d="M308.6012,-181.1959C507.2575,-175.3586 1002.9198,-158.5404 1166.9266,-132 1187.7536,-128.6297 1315.7226,-92.5419 1376.6886,-75.2014"/>
<polygon fill="#191970" stroke="#191970" points="1377.9036,-78.4946 1386.563,-72.3901 1375.9868,-71.7622 1377.9036,-78.4946"/>
</g>
<!-- Node20&#45;&gt;Node5 -->
<g id="edge23" class="edge">
<title>Node20&#45;&gt;Node5</title>
<path fill="none" stroke="#191970" d="M1076.932,-112.4866C1076.41,-98.221 1073.2869,-71.3296 1057.9266,-56 1040.4281,-38.5365 975.1121,-23.9729 933.2426,-16.1646"/>
<polygon fill="#191970" stroke="#191970" points="933.6114,-12.6743 923.1464,-14.3274 932.3581,-19.5612 933.6114,-12.6743"/>
</g>
<!-- Node20&#45;&gt;Node14 -->
<g id="edge25" class="edge">
<title>Node20&#45;&gt;Node14</title>
<path fill="none" stroke="#191970" d="M1133.6222,-112.4369C1203.5654,-100.6392 1320.1134,-80.9805 1376.4585,-71.4765"/>
<polygon fill="#191970" stroke="#191970" points="1377.2954,-74.8849 1386.5739,-69.7703 1376.131,-67.9824 1377.2954,-74.8849"/>
</g>
<!-- Node20&#45;&gt;Node16 -->
<g id="edge22" class="edge">
<title>Node20&#45;&gt;Node16</title>
<path fill="none" stroke="#191970" d="M1031.1602,-112.4369C985.005,-102.7925 913.7087,-87.8948 864.3728,-77.5858"/>
<polygon fill="#191970" stroke="#191970" points="865.0086,-74.1431 854.5041,-75.5237 863.5768,-80.9951 865.0086,-74.1431"/>
</g>
<!-- Node20&#45;&gt;Node17 -->
<g id="edge27" class="edge">
<title>Node20&#45;&gt;Node17</title>
<path fill="none" stroke="#191970" d="M1055.6102,-112.3733C1035.705,-103.3838 1005.783,-89.8706 983.3666,-79.7471"/>
<polygon fill="#191970" stroke="#191970" points="984.5191,-76.4272 973.9648,-75.5011 981.6379,-82.8068 984.5191,-76.4272"/>
</g>
<!-- Node20&#45;&gt;Node18 -->
<g id="edge24" class="edge">
<title>Node20&#45;&gt;Node18</title>
<path fill="none" stroke="#191970" d="M1067.6947,-112.2455C1060.0948,-104.2155 1049.1388,-92.6394 1040.0898,-83.0781"/>
<polygon fill="#191970" stroke="#191970" points="1042.4686,-80.4998 1033.0527,-75.6427 1037.3845,-85.3115 1042.4686,-80.4998"/>
</g>
<!-- Node21 -->
<g id="node18" class="node">
<title>Node21</title>
<polygon fill="none" stroke="#bfbfbf" points="1130.9266,-56.5 1130.9266,-75.5 1190.9266,-75.5 1190.9266,-56.5 1130.9266,-56.5"/>
<text text-anchor="middle" x="1160.9266" y="-63.5" font-family="FreeSans.ttf" font-size="10.00" fill="#000000">iostream</text>
</g>
<!-- Node20&#45;&gt;Node21 -->
<g id="edge26" class="edge">
<title>Node20&#45;&gt;Node21</title>
<path fill="none" stroke="#191970" d="M1091.5582,-112.2455C1104.326,-103.7337 1123.0703,-91.2375 1137.8564,-81.3801"/>
<polygon fill="#191970" stroke="#191970" points="1140.0835,-84.1019 1146.4626,-75.6427 1136.2006,-78.2775 1140.0835,-84.1019"/>
</g>
<!-- Node22&#45;&gt;Node15 -->
<g id="edge29" class="edge">
<title>Node22&#45;&gt;Node15</title>
<path fill="none" stroke="#191970" d="M1092.5626,-376.9099C1179.9781,-367.5647 1311.8756,-350.7389 1326.9266,-333 1335.8404,-322.4942 1335.2119,-313.0082 1326.9266,-302 1292.1602,-255.8078 1256.451,-285.2226 1201.9266,-266 1083.6474,-224.3006 947.4473,-163.0057 888.5723,-135.8376"/>
<polygon fill="#191970" stroke="#191970" points="890.0201,-132.6511 879.4749,-131.6269 887.0797,-139.0036 890.0201,-132.6511"/>
</g>
<!-- Node23 -->
<g id="node20" class="node">
<title>Node23</title>
<g id="a_node20"><a xlink:href="LinearMotionVector3_8h.html" target="_top" xlink:title="iDynTree/Core/LinearMotion\lVector3.h">
<polygon fill="none" stroke="#ff0000" points="810.4266,-302.5 810.4266,-332.5 961.4266,-332.5 961.4266,-302.5 810.4266,-302.5"/>
<text text-anchor="start" x="818.4266" y="-320.5" font-family="FreeSans.ttf" font-size="10.00" fill="#000000">iDynTree/Core/LinearMotion</text>
<text text-anchor="middle" x="885.9266" y="-309.5" font-family="FreeSans.ttf" font-size="10.00" fill="#000000">Vector3.h</text>
</a>
</g>
</g>
<!-- Node22&#45;&gt;Node23 -->
<g id="edge30" class="edge">
<title>Node22&#45;&gt;Node23</title>
<path fill="none" stroke="#191970" d="M985.9764,-369.4639C967.7641,-360.0047 944.0524,-347.6894 924.2843,-337.4222"/>
<polygon fill="#191970" stroke="#191970" points="925.7141,-334.2209 915.2264,-332.7177 922.4876,-340.433 925.7141,-334.2209"/>
</g>
<!-- Node29 -->
<g id="node21" class="node">
<title>Node29</title>
<g id="a_node21"><a xlink:href="PrivateMotionForceVertorAssociations_8h.html" target="_top" xlink:title="iDynTree/Core/PrivateMotion\lForceVertorAssociations.h">
<polygon fill="none" stroke="#000000" points="640.4266,-235.5 640.4266,-265.5 795.4266,-265.5 795.4266,-235.5 640.4266,-235.5"/>
<text text-anchor="start" x="648.4266" y="-253.5" font-family="FreeSans.ttf" font-size="10.00" fill="#000000">iDynTree/Core/PrivateMotion</text>
<text text-anchor="middle" x="717.9266" y="-242.5" font-family="FreeSans.ttf" font-size="10.00" fill="#000000">ForceVertorAssociations.h</text>
</a>
</g>
</g>
<!-- Node22&#45;&gt;Node29 -->
<g id="edge45" class="edge">
<title>Node22&#45;&gt;Node29</title>
<path fill="none" stroke="#191970" d="M937.3454,-375.9783C895.2622,-368.9028 843.5045,-356.0832 801.9266,-333 775.1505,-318.1345 750.9436,-292.4103 735.4704,-273.6298"/>
<polygon fill="#191970" stroke="#191970" points="738.1822,-271.4168 729.1949,-265.8062 732.7217,-275.7968 738.1822,-271.4168"/>
</g>
<!-- Node30 -->
<g id="node22" class="node">
<title>Node30</title>
<g id="a_node22"><a xlink:href="AngularMotionVector3_8h.html" target="_top" xlink:title="iDynTree/Core/AngularMotion\lVector3.h">
<polygon fill="none" stroke="#ff0000" points="979.9266,-302.5 979.9266,-332.5 1137.9266,-332.5 1137.9266,-302.5 979.9266,-302.5"/>
<text text-anchor="start" x="987.9266" y="-320.5" font-family="FreeSans.ttf" font-size="10.00" fill="#000000">iDynTree/Core/AngularMotion</text>
<text text-anchor="middle" x="1058.9266" y="-309.5" font-family="FreeSans.ttf" font-size="10.00" fill="#000000">Vector3.h</text>
</a>
</g>
</g>
<!-- Node22&#45;&gt;Node30 -->
<g id="edge32" class="edge">
<title>Node22&#45;&gt;Node30</title>
<path fill="none" stroke="#191970" d="M1024.9108,-369.2967C1030.3678,-360.9873 1037.2474,-350.5115 1043.3895,-341.1587"/>
<polygon fill="#191970" stroke="#191970" points="1046.418,-342.9231 1048.9818,-332.6432 1040.5669,-339.0806 1046.418,-342.9231"/>
</g>
<!-- Node31 -->
<g id="node23" class="node">
<title>Node31</title>
<g id="a_node23"><a xlink:href="SpatialVector_8h.html" target="_top" xlink:title="iDynTree/Core/SpatialVector.h">
<polygon fill="none" stroke="#ff0000" points="1156.4266,-308 1156.4266,-327 1317.4266,-327 1317.4266,-308 1156.4266,-308"/>
<text text-anchor="middle" x="1236.9266" y="-315" font-family="FreeSans.ttf" font-size="10.00" fill="#000000">iDynTree/Core/SpatialVector.h</text>
</a>
</g>
</g>
<!-- Node22&#45;&gt;Node31 -->
<g id="edge34" class="edge">
<title>Node22&#45;&gt;Node31</title>
<path fill="none" stroke="#191970" d="M1064.7477,-369.4639C1104.1268,-357.5792 1158.4453,-341.1858 1195.473,-330.0108"/>
<polygon fill="#191970" stroke="#191970" points="1196.8692,-333.2454 1205.4314,-327.0053 1194.8467,-326.5439 1196.8692,-333.2454"/>
</g>
<!-- Node23&#45;&gt;Node29 -->
<g id="edge31" class="edge">
<title>Node23&#45;&gt;Node29</title>
<path fill="none" stroke="#191970" d="M848.2241,-302.4639C823.6682,-292.6708 791.4359,-279.8162 765.1736,-269.3426"/>
<polygon fill="#191970" stroke="#191970" points="766.3786,-266.0551 755.7935,-265.6017 763.7855,-272.5571 766.3786,-266.0551"/>
</g>
<!-- Node30&#45;&gt;Node29 -->
<g id="edge33" class="edge">
<title>Node30&#45;&gt;Node29</title>
<path fill="none" stroke="#191970" d="M982.3995,-302.4639C929.6226,-292.0942 859.3757,-278.2921 804.5438,-267.5186"/>
<polygon fill="#191970" stroke="#191970" points="804.9798,-264.0375 794.4926,-265.5438 803.6302,-270.9061 804.9798,-264.0375"/>
</g>
<!-- Node31&#45;&gt;Node16 -->
<g id="edge42" class="edge">
<title>Node31&#45;&gt;Node16</title>
<path fill="none" stroke="#191970" d="M1197.6598,-307.9664C1094.4575,-282.0292 820.0692,-207.0887 769.9266,-132 758.9506,-115.5635 773.8316,-95.9876 788.2648,-82.4451"/>
<polygon fill="#191970" stroke="#191970" points="790.8591,-84.8253 796.0701,-75.6005 786.2438,-79.5622 790.8591,-84.8253"/>
</g>
<!-- Node31&#45;&gt;Node17 -->
<g id="edge44" class="edge">
<title>Node31&#45;&gt;Node17</title>
<path fill="none" stroke="#191970" d="M1216.1515,-307.8827C1196.3765,-298.3533 1166.129,-282.7867 1141.9266,-266 1067.3759,-214.2921 1044.3498,-203.0487 987.9266,-132 976.4856,-117.5934 966.9779,-98.8895 960.7736,-85.0731"/>
<polygon fill="#191970" stroke="#191970" points="963.8682,-83.4103 956.6956,-75.6125 957.4399,-86.1812 963.8682,-83.4103"/>
</g>
<!-- Node31&#45;&gt;Node21 -->
<g id="edge43" class="edge">
<title>Node31&#45;&gt;Node21</title>
<path fill="none" stroke="#191970" d="M1222.5224,-307.8643C1197.2202,-289.9581 1145.6117,-248.81 1125.9266,-199 1120.8626,-186.1866 1120.2442,-180.5514 1125.9266,-168 1135.9279,-145.9088 1156.9252,-154.0912 1166.9266,-132 1173.5165,-117.4439 1171.1909,-99.2578 1167.6835,-85.6637"/>
<polygon fill="#191970" stroke="#191970" points="1170.9831,-84.4813 1164.7649,-75.9031 1164.2765,-86.4867 1170.9831,-84.4813"/>
</g>
<!-- Node31&#45;&gt;Node29 -->
<g id="edge41" class="edge">
<title>Node31&#45;&gt;Node29</title>
<path fill="none" stroke="#191970" d="M1185.1401,-307.9969C1172.6518,-305.867 1159.3321,-303.7291 1146.9266,-302 997.7387,-281.2066 959.152,-286.522 809.9266,-266 808.6178,-265.82 807.299,-265.6358 805.9722,-265.4477"/>
<polygon fill="#191970" stroke="#191970" points="806.0775,-261.9258 795.6757,-263.9388 805.0625,-268.8519 806.0775,-261.9258"/>
</g>
<!-- Node32 -->
<g id="node24" class="node">
<title>Node32</title>
<g id="a_node24"><a xlink:href="Position_8h.html" target="_top" xlink:title="Position.h">
<polygon fill="none" stroke="#ff0000" points="1210.4266,-241 1210.4266,-260 1275.4266,-260 1275.4266,-241 1210.4266,-241"/>
<text text-anchor="middle" x="1242.9266" y="-248" font-family="FreeSans.ttf" font-size="10.00" fill="#000000">Position.h</text>
</a>
</g>
</g>
<!-- Node31&#45;&gt;Node32 -->
<g id="edge35" class="edge">
<title>Node31&#45;&gt;Node32</title>
<path fill="none" stroke="#191970" d="M1237.7862,-307.9005C1238.6595,-298.149 1240.0376,-282.7597 1241.1472,-270.3695"/>
<polygon fill="#191970" stroke="#191970" points="1244.6625,-270.354 1242.0685,-260.0817 1237.6904,-269.7296 1244.6625,-270.354"/>
</g>
<!-- Node26 -->
<g id="node25" class="node">
<title>Node26</title>
<g id="a_node25"><a xlink:href="Rotation_8h.html" target="_top" xlink:title="iDynTree/Core/Rotation.h">
<polygon fill="none" stroke="#ff0000" points="1134.4266,-174 1134.4266,-193 1271.4266,-193 1271.4266,-174 1134.4266,-174"/>
<text text-anchor="middle" x="1202.9266" y="-181" font-family="FreeSans.ttf" font-size="10.00" fill="#000000">iDynTree/Core/Rotation.h</text>
</a>
</g>
</g>
<!-- Node31&#45;&gt;Node26 -->
<g id="edge40" class="edge">
<title>Node31&#45;&gt;Node26</title>
<path fill="none" stroke="#191970" d="M1227.6743,-307.8141C1219.104,-298.1164 1206.9489,-282.3252 1201.9266,-266 1195.5693,-245.3356 1197.0561,-220.3593 1199.3473,-203.3393"/>
<polygon fill="#191970" stroke="#191970" points="1202.81,-203.8492 1200.8947,-193.4289 1195.8938,-202.7692 1202.81,-203.8492"/>
</g>
<!-- Node32&#45;&gt;Node14 -->
<g id="edge39" class="edge">
<title>Node32&#45;&gt;Node14</title>
<path fill="none" stroke="#191970" d="M1251.6177,-240.8402C1278.2863,-211.1996 1359.2108,-121.2563 1393.408,-83.2481"/>
<polygon fill="#191970" stroke="#191970" points="1396.2348,-85.3391 1400.3214,-75.5641 1391.031,-80.6571 1396.2348,-85.3391"/>
</g>
<!-- Node32&#45;&gt;Node26 -->
<g id="edge36" class="edge">
<title>Node32&#45;&gt;Node26</title>
<path fill="none" stroke="#191970" d="M1237.1955,-240.9005C1231.1361,-230.751 1221.4305,-214.4941 1213.8925,-201.8679"/>
<polygon fill="#191970" stroke="#191970" points="1216.7783,-199.8737 1208.647,-193.0817 1210.7679,-203.462 1216.7783,-199.8737"/>
</g>
<!-- Node26&#45;&gt;Node14 -->
<g id="edge37" class="edge">
<title>Node26&#45;&gt;Node14</title>
<path fill="none" stroke="#191970" d="M1218.8644,-173.8229C1241.9009,-159.895 1285.9124,-133.5076 1323.9266,-112 1342.971,-101.2251 1364.6695,-89.4912 1381.3762,-80.5713"/>
<polygon fill="#191970" stroke="#191970" points="1383.3955,-83.4615 1390.5783,-75.6731 1380.1064,-77.2823 1383.3955,-83.4615"/>
</g>
<!-- Node26&#45;&gt;Node15 -->
<g id="edge38" class="edge">
<title>Node26&#45;&gt;Node15</title>
<path fill="none" stroke="#191970" d="M1149.554,-173.9581C1088.2006,-162.9894 987.5839,-145.0012 922.3036,-133.3305"/>
<polygon fill="#191970" stroke="#191970" points="922.6012,-129.8283 912.1413,-131.5137 921.3692,-136.719 922.6012,-129.8283"/>
</g>
<!-- Node37&#45;&gt;Node15 -->
<g id="edge47" class="edge">
<title>Node37&#45;&gt;Node15</title>
<path fill="none" stroke="#191970" d="M565.7921,-373.8409C497.1159,-363.2093 403.9452,-346.553 392.9266,-333 384.2352,-322.3095 385.1346,-313.3628 392.9266,-302 441.8579,-230.6447 697.5808,-161.1772 808.0344,-133.9985"/>
<polygon fill="#191970" stroke="#191970" points="809.0597,-137.351 817.9435,-131.5779 807.3986,-130.5509 809.0597,-137.351"/>
</g>
<!-- Node37&#45;&gt;Node29 -->
<g id="edge53" class="edge">
<title>Node37&#45;&gt;Node29</title>
<path fill="none" stroke="#191970" d="M682.2424,-369.4897C698.6073,-361.3701 715.611,-349.5362 724.9266,-333 734.7422,-315.5762 731.8216,-292.7246 727.1091,-275.4907"/>
<polygon fill="#191970" stroke="#191970" points="730.343,-274.1018 724.0411,-265.585 723.6563,-276.1728 730.343,-274.1018"/>
</g>
<!-- Node37&#45;&gt;Node31 -->
<g id="edge52" class="edge">
<title>Node37&#45;&gt;Node31</title>
<path fill="none" stroke="#191970" d="M714.006,-378.5948C812.9307,-370.3392 993.5248,-353.975 1146.9266,-333 1156.0402,-331.7539 1165.6453,-330.2765 1175.0511,-328.7367"/>
<polygon fill="#191970" stroke="#191970" points="1175.8603,-332.1501 1185.1465,-327.0493 1174.7063,-325.2458 1175.8603,-332.1501"/>
</g>
<!-- Node38 -->
<g id="node27" class="node">
<title>Node38</title>
<g id="a_node27"><a xlink:href="LinearForceVector3_8h.html" target="_top" xlink:title="iDynTree/Core/LinearForce\lVector3.h">
<polygon fill="none" stroke="#ff0000" points="401.9266,-302.5 401.9266,-332.5 545.9266,-332.5 545.9266,-302.5 401.9266,-302.5"/>
<text text-anchor="start" x="409.9266" y="-320.5" font-family="FreeSans.ttf" font-size="10.00" fill="#000000">iDynTree/Core/LinearForce</text>
<text text-anchor="middle" x="473.9266" y="-309.5" font-family="FreeSans.ttf" font-size="10.00" fill="#000000">Vector3.h</text>
</a>
</g>
</g>
<!-- Node37&#45;&gt;Node38 -->
<g id="edge48" class="edge">
<title>Node37&#45;&gt;Node38</title>
<path fill="none" stroke="#191970" d="M602.6729,-369.4639C578.5158,-359.7137 546.84,-346.9289 520.953,-336.4805"/>
<polygon fill="#191970" stroke="#191970" points="521.9259,-333.0989 511.3427,-332.6017 519.3059,-339.5901 521.9259,-333.0989"/>
</g>
<!-- Node40 -->
<g id="node28" class="node">
<title>Node40</title>
<g id="a_node28"><a xlink:href="AngularForceVector3_8h.html" target="_top" xlink:title="iDynTree/Core/AngularForce\lVector3.h">
<polygon fill="none" stroke="#ff0000" points="563.9266,-302.5 563.9266,-332.5 715.9266,-332.5 715.9266,-302.5 563.9266,-302.5"/>
<text text-anchor="start" x="571.9266" y="-320.5" font-family="FreeSans.ttf" font-size="10.00" fill="#000000">iDynTree/Core/AngularForce</text>
<text text-anchor="middle" x="639.9266" y="-309.5" font-family="FreeSans.ttf" font-size="10.00" fill="#000000">Vector3.h</text>
</a>
</g>
</g>
<!-- Node37&#45;&gt;Node40 -->
<g id="edge50" class="edge">
<title>Node37&#45;&gt;Node40</title>
<path fill="none" stroke="#191970" d="M639.9266,-369.2967C639.9266,-361.5013 639.9266,-351.7991 639.9266,-342.9064"/>
<polygon fill="#191970" stroke="#191970" points="643.4267,-342.6431 639.9266,-332.6432 636.4267,-342.6432 643.4267,-342.6431"/>
</g>
<!-- Node38&#45;&gt;Node29 -->
<g id="edge49" class="edge">
<title>Node38&#45;&gt;Node29</title>
<path fill="none" stroke="#191970" d="M528.6849,-302.4639C565.4444,-292.3701 614.0481,-279.024 652.7939,-268.3848"/>
<polygon fill="#191970" stroke="#191970" points="654.2131,-271.6247 662.9294,-265.6017 652.3595,-264.8746 654.2131,-271.6247"/>
</g>
<!-- Node40&#45;&gt;Node29 -->
<g id="edge51" class="edge">
<title>Node40&#45;&gt;Node29</title>
<path fill="none" stroke="#191970" d="M657.626,-302.2967C667.8979,-293.4733 681.0137,-282.2072 692.3882,-272.4368"/>
<polygon fill="#191970" stroke="#191970" points="694.9921,-274.8141 700.2972,-265.6432 690.4309,-269.5041 694.9921,-274.8141"/>
</g>
<!-- Node41&#45;&gt;Node14 -->
<g id="edge60" class="edge">
<title>Node41&#45;&gt;Node14</title>
<path fill="none" stroke="#191970" d="M1491.1842,-307.8301C1506.2906,-283.1629 1541.7335,-216.4289 1516.9266,-168 1504.4426,-143.6283 1487.2047,-150.4017 1466.9266,-132 1450.4323,-117.032 1433.8849,-97.6672 1422.711,-83.7907"/>
<polygon fill="#191970" stroke="#191970" points="1425.1503,-81.2332 1416.1987,-75.5658 1419.6623,-85.5785 1425.1503,-81.2332"/>
</g>
<!-- Node41&#45;&gt;Node20 -->
<g id="edge59" class="edge">
<title>Node41&#45;&gt;Node20</title>
<path fill="none" stroke="#191970" d="M1474.8676,-307.6935C1446.7708,-280.8806 1364.0528,-205.8326 1280.9266,-168 1243.9193,-151.1572 1200.2497,-140.2473 1162.8294,-133.3029"/>
<polygon fill="#191970" stroke="#191970" points="1163.4169,-129.8525 1152.9564,-131.5347 1162.1828,-136.7428 1163.4169,-129.8525"/>
</g>
<!-- Node41&#45;&gt;Node32 -->
<g id="edge55" class="edge">
<title>Node41&#45;&gt;Node32</title>
<path fill="none" stroke="#191970" d="M1445.8864,-307.9269C1406.3813,-298.0671 1343.637,-281.9332 1289.9266,-266 1286.974,-265.1241 1283.9269,-264.1897 1280.8696,-263.2302"/>
<polygon fill="#191970" stroke="#191970" points="1281.7639,-259.8415 1271.1728,-260.1215 1279.6269,-266.5073 1281.7639,-259.8415"/>
</g>
<!-- Node41&#45;&gt;Node26 -->
<g id="edge56" class="edge">
<title>Node41&#45;&gt;Node26</title>
<path fill="none" stroke="#191970" d="M1444.547,-307.9315C1412.0103,-299.3654 1365.635,-285.1926 1327.9266,-266 1306.93,-255.3133 1304.4677,-248.1608 1284.9266,-235 1266.044,-222.2828 1244.1927,-208.6088 1227.7974,-198.549"/>
<polygon fill="#191970" stroke="#191970" points="1229.1969,-195.3027 1218.8383,-193.0781 1225.5488,-201.2769 1229.1969,-195.3027"/>
</g>
<!-- Node42 -->
<g id="node30" class="node">
<title>Node42</title>
<g id="a_node30"><a xlink:href="TransformSemantics_8h.html" target="_top" xlink:title="iDynTree/Core/TransformSemantics.h">
<polygon fill="none" stroke="#000000" points="1475.4266,-112.5 1475.4266,-131.5 1672.4266,-131.5 1672.4266,-112.5 1475.4266,-112.5"/>
<text text-anchor="middle" x="1573.9266" y="-119.5" font-family="FreeSans.ttf" font-size="10.00" fill="#000000">iDynTree/Core/TransformSemantics.h</text>
</a>
</g>
</g>
<!-- Node41&#45;&gt;Node42 -->
<g id="edge57" class="edge">
<title>Node41&#45;&gt;Node42</title>
<path fill="none" stroke="#191970" d="M1503.4865,-307.8906C1518.5239,-299.085 1538.954,-284.6009 1549.9266,-266 1573.2314,-226.4933 1575.5803,-170.8783 1574.9556,-141.6743"/>
<polygon fill="#191970" stroke="#191970" points="1578.4484,-141.4078 1574.5916,-131.5399 1571.4529,-141.6591 1578.4484,-141.4078"/>
</g>
<!-- Node42&#45;&gt;Node14 -->
<g id="edge58" class="edge">
<title>Node42&#45;&gt;Node14</title>
<path fill="none" stroke="#191970" d="M1545.5621,-112.3733C1516.4226,-102.4835 1471.151,-87.1186 1440.7935,-76.8154"/>
<polygon fill="#191970" stroke="#191970" points="1441.7093,-73.4302 1431.1149,-73.5306 1439.4595,-80.0589 1441.7093,-73.4302"/>
</g>
<!-- Node43&#45;&gt;Node41 -->
<g id="edge63" class="edge">
<title>Node43&#45;&gt;Node41</title>
<path fill="none" stroke="#191970" d="M1822.1364,-548.4173C1710.4288,-521.6885 1493.6006,-462.8705 1449.9266,-400 1435.6618,-379.4654 1453.0987,-352.2014 1468.0572,-334.7487"/>
<polygon fill="#191970" stroke="#191970" points="1470.923,-336.799 1475.0517,-327.0417 1465.7394,-332.0947 1470.923,-336.799"/>
</g>
<!-- Node43&#45;&gt;Node44 -->
<g id="edge64" class="edge">
<title>Node43&#45;&gt;Node44</title>
<path fill="none" stroke="#191970" d="M1896.5492,-548.3228C1909.53,-523.3189 1937.6756,-472.5944 1969.9266,-436 2007.2136,-393.6913 2060.3019,-353.8797 2090.1943,-332.9028"/>
<polygon fill="#191970" stroke="#191970" points="2092.4606,-335.5904 2098.6833,-327.0155 2088.4714,-329.8383 2092.4606,-335.5904"/>
</g>
<!-- Node45 -->
<g id="node33" class="node">
<title>Node45</title>
<g id="a_node33"><a xlink:href="Model_8h.html" target="_top" xlink:title="iDynTree/Model/Model.h">
<polygon fill="none" stroke="#000000" points="1978.4266,-436.5 1978.4266,-455.5 2111.4266,-455.5 2111.4266,-436.5 1978.4266,-436.5"/>
<text text-anchor="middle" x="2044.9266" y="-443.5" font-family="FreeSans.ttf" font-size="10.00" fill="#000000">iDynTree/Model/Model.h</text>
</a>
</g>
</g>
<!-- Node43&#45;&gt;Node45 -->
<g id="edge66" class="edge">
<title>Node43&#45;&gt;Node45</title>
<path fill="none" stroke="#191970" d="M1911.9138,-548.4259C1926.9345,-538.4033 1946.8579,-524.7806 1963.9266,-512 1985.6888,-495.705 2009.7325,-475.8682 2025.9273,-462.2219"/>
<polygon fill="#191970" stroke="#191970" points="2028.2575,-464.835 2033.627,-455.7015 2023.7338,-459.493 2028.2575,-464.835"/>
</g>
<!-- Node58 -->
<g id="node39" class="node">
<title>Node58</title>
<g id="a_node39"><a xlink:href="Traversal_8h.html" target="_top" xlink:title="iDynTree/Model/Traversal.h">
<polygon fill="none" stroke="#000000" points="1814.9266,-375 1814.9266,-394 1962.9266,-394 1962.9266,-375 1814.9266,-375"/>
<text text-anchor="middle" x="1888.9266" y="-382" font-family="FreeSans.ttf" font-size="10.00" fill="#000000">iDynTree/Model/Traversal.h</text>
</a>
</g>
</g>
<!-- Node43&#45;&gt;Node58 -->
<g id="edge80" class="edge">
<title>Node43&#45;&gt;Node58</title>
<path fill="none" stroke="#191970" d="M1888.9266,-548.2386C1888.9266,-515.892 1888.9266,-440.458 1888.9266,-404.393"/>
<polygon fill="#191970" stroke="#191970" points="1892.4267,-404.1714 1888.9266,-394.1714 1885.4267,-404.1714 1892.4267,-404.1714"/>
</g>
<!-- Node59 -->
<g id="node40" class="node">
<title>Node59</title>
<g id="a_node40"><a xlink:href="JointState_8h.html" target="_top" xlink:title="iDynTree/Model/JointState.h">
<polygon fill="none" stroke="#000000" points="564.4266,-436.5 564.4266,-455.5 715.4266,-455.5 715.4266,-436.5 564.4266,-436.5"/>
<text text-anchor="middle" x="639.9266" y="-443.5" font-family="FreeSans.ttf" font-size="10.00" fill="#000000">iDynTree/Model/JointState.h</text>
</a>
</g>
</g>
<!-- Node43&#45;&gt;Node59 -->
<g id="edge83" class="edge">
<title>Node43&#45;&gt;Node59</title>
<path fill="none" stroke="#191970" d="M1816.218,-559.3077C1688.5183,-551.6916 1415.679,-534.2892 1185.9266,-512 1019.9782,-495.9007 826.3851,-471.057 720.0689,-456.8883"/>
<polygon fill="#191970" stroke="#191970" points="720.4319,-453.4058 710.0566,-455.5511 719.5052,-460.3442 720.4319,-453.4058"/>
</g>
<!-- Node60 -->
<g id="node41" class="node">
<title>Node60</title>
<g id="a_node41"><a xlink:href="LinkState_8h.html" target="_top" xlink:title="iDynTree/Model/LinkState.h">
<polygon fill="none" stroke="#000000" points="1194.4266,-492.5 1194.4266,-511.5 1343.4266,-511.5 1343.4266,-492.5 1194.4266,-492.5"/>
<text text-anchor="middle" x="1268.9266" y="-499.5" font-family="FreeSans.ttf" font-size="10.00" fill="#000000">iDynTree/Model/LinkState.h</text>
</a>
</g>
</g>
<!-- Node43&#45;&gt;Node60 -->
<g id="edge88" class="edge">
<title>Node43&#45;&gt;Node60</title>
<path fill="none" stroke="#191970" d="M1816.1575,-556.5698C1714.6301,-546.8564 1524.7224,-528.5265 1362.9266,-512 1359.8819,-511.689 1356.782,-511.3703 1353.6511,-511.0465"/>
<polygon fill="#191970" stroke="#191970" points="1353.8845,-507.552 1343.5761,-509.9991 1353.1606,-514.5145 1353.8845,-507.552"/>
</g>
<!-- Node44&#45;&gt;Node14 -->
<g id="edge65" class="edge">
<title>Node44&#45;&gt;Node14</title>
<path fill="none" stroke="#191970" d="M2098.5178,-307.8037C2048.2102,-274.457 1874.7406,-163.7076 1714.9266,-112 1618.4096,-80.7721 1497.7895,-70.585 1441.1369,-67.3891"/>
<polygon fill="#191970" stroke="#191970" points="1441.1746,-63.8863 1431.004,-66.8545 1440.8057,-70.8766 1441.1746,-63.8863"/>
</g>
<!-- Node45&#45;&gt;Node41 -->
<g id="edge71" class="edge">
<title>Node45&#45;&gt;Node41</title>
<path fill="none" stroke="#191970" d="M1978.1569,-443.1367C1828.7683,-436.4073 1479.2405,-418.7338 1461.9266,-400 1445.6093,-382.3446 1459.0777,-354.0823 1471.2167,-335.6538"/>
<polygon fill="#191970" stroke="#191970" points="1474.2308,-337.4515 1477.1054,-327.254 1468.499,-333.4331 1474.2308,-337.4515"/>
</g>
<!-- Node45&#45;&gt;Node44 -->
<g id="edge72" class="edge">
<title>Node45&#45;&gt;Node44</title>
<path fill="none" stroke="#191970" d="M2050.0376,-436.3416C2061.2612,-415.1323 2088.2307,-364.1679 2102.9425,-336.3669"/>
<polygon fill="#191970" stroke="#191970" points="2106.1724,-337.7463 2107.7562,-327.2705 2099.9853,-334.4721 2106.1724,-337.7463"/>
</g>
<!-- Node46 -->
<g id="node34" class="node">
<title>Node46</title>
<g id="a_node34"><a xlink:href="IJoint_8h.html" target="_top" xlink:title="iDynTree/Model/IJoint.h">
<polygon fill="none" stroke="#000000" points="2094.9266,-375 2094.9266,-394 2222.9266,-394 2222.9266,-375 2094.9266,-375"/>
<text text-anchor="middle" x="2158.9266" y="-382" font-family="FreeSans.ttf" font-size="10.00" fill="#000000">iDynTree/Model/IJoint.h</text>
</a>
</g>
</g>
<!-- Node45&#45;&gt;Node46 -->
<g id="edge67" class="edge">
<title>Node45&#45;&gt;Node46</title>
<path fill="none" stroke="#191970" d="M2062.7391,-436.3906C2081.3951,-426.3262 2110.9063,-410.4057 2132.324,-398.8514"/>
<polygon fill="#191970" stroke="#191970" points="2134.0999,-401.8702 2141.2391,-394.0419 2130.7764,-395.7095 2134.0999,-401.8702"/>
</g>
<!-- Node47 -->
<g id="node35" class="node">
<title>Node47</title>
<g id="a_node35"><a xlink:href="Link_8h.html" target="_top" xlink:title="iDynTree/Model/Link.h">
<polygon fill="none" stroke="#ff0000" points="2240.9266,-375 2240.9266,-394 2364.9266,-394 2364.9266,-375 2240.9266,-375"/>
<text text-anchor="middle" x="2302.9266" y="-382" font-family="FreeSans.ttf" font-size="10.00" fill="#000000">iDynTree/Model/Link.h</text>
</a>
</g>
</g>
<!-- Node45&#45;&gt;Node47 -->
<g id="edge69" class="edge">
<title>Node45&#45;&gt;Node47</title>
<path fill="none" stroke="#191970" d="M2084.956,-436.4581C2130.242,-425.6632 2204.05,-408.0694 2253.0472,-396.3899"/>
<polygon fill="#191970" stroke="#191970" points="2253.8874,-399.7877 2262.8032,-394.0643 2252.2642,-392.9785 2253.8874,-399.7877"/>
</g>
<!-- Node55 -->
<g id="node36" class="node">
<title>Node55</title>
<g id="a_node36"><a xlink:href="SolidShapes_8h.html" target="_top" xlink:title="iDynTree/Model/SolidShapes.h">
<polygon fill="none" stroke="#000000" points="1481.4266,-375 1481.4266,-394 1644.4266,-394 1644.4266,-375 1481.4266,-375"/>
<text text-anchor="middle" x="1562.9266" y="-382" font-family="FreeSans.ttf" font-size="10.00" fill="#000000">iDynTree/Model/SolidShapes.h</text>
</a>
</g>
</g>
<!-- Node45&#45;&gt;Node55 -->
<g id="edge73" class="edge">
<title>Node45&#45;&gt;Node55</title>
<path fill="none" stroke="#191970" d="M1978.4126,-437.5133C1892.1986,-426.5129 1741.7743,-407.3198 1647.5254,-395.2943"/>
<polygon fill="#191970" stroke="#191970" points="1647.8151,-391.8029 1637.4525,-394.009 1646.9291,-398.7466 1647.8151,-391.8029"/>
</g>
<!-- Node56 -->
<g id="node37" class="node">
<title>Node56</title>
<polygon fill="none" stroke="#bfbfbf" points="1576.4266,-308 1576.4266,-327 1625.4266,-327 1625.4266,-308 1576.4266,-308"/>
<text text-anchor="middle" x="1600.9266" y="-315" font-family="FreeSans.ttf" font-size="10.00" fill="#000000">cstdlib</text>
</g>
<!-- Node45&#45;&gt;Node56 -->
<g id="edge78" class="edge">
<title>Node45&#45;&gt;Node56</title>
<path fill="none" stroke="#191970" d="M1978.3176,-443.0387C1831.1376,-436.173 1489.8598,-418.3496 1472.9266,-400 1463.5828,-389.8747 1465.1184,-380.3516 1472.9266,-369 1498.28,-332.141 1525.6647,-350.287 1566.9266,-333 1568.3102,-332.4203 1569.7213,-331.8189 1571.1436,-331.2043"/>
<polygon fill="#191970" stroke="#191970" points="1572.7951,-334.3009 1580.5206,-327.0506 1569.9599,-327.9007 1572.7951,-334.3009"/>
</g>
<!-- Node57 -->
<g id="node38" class="node">
<title>Node57</title>
<polygon fill="none" stroke="#bfbfbf" points="1729.4266,-308 1729.4266,-327 1776.4266,-327 1776.4266,-308 1729.4266,-308"/>
<text text-anchor="middle" x="1752.9266" y="-315" font-family="FreeSans.ttf" font-size="10.00" fill="#000000">vector</text>
</g>
<!-- Node45&#45;&gt;Node57 -->
<g id="edge79" class="edge">
<title>Node45&#45;&gt;Node57</title>
<path fill="none" stroke="#191970" d="M1978.2461,-439.0935C1917.5979,-431.7633 1833.4845,-418.65 1805.9266,-400 1783.2056,-384.6235 1768.0877,-355.9125 1760.0044,-336.7491"/>
<polygon fill="#191970" stroke="#191970" points="1763.1707,-335.2386 1756.2338,-327.2304 1756.6627,-337.8166 1763.1707,-335.2386"/>
</g>
<!-- Node46&#45;&gt;Node44 -->
<g id="edge68" class="edge">
<title>Node46&#45;&gt;Node44</title>
<path fill="none" stroke="#191970" d="M2152.3359,-374.9005C2145.2992,-364.6515 2133.9868,-348.1747 2125.2831,-335.4976"/>
<polygon fill="#191970" stroke="#191970" points="2128.0505,-333.3446 2119.505,-327.0817 2122.2797,-337.3067 2128.0505,-333.3446"/>
</g>
<!-- Node47&#45;&gt;Node44 -->
<g id="edge70" class="edge">
<title>Node47&#45;&gt;Node44</title>
<path fill="none" stroke="#191970" d="M2275.7042,-374.9005C2242.6892,-363.2584 2186.8863,-343.5805 2149.974,-330.5641"/>
<polygon fill="#191970" stroke="#191970" points="2150.6932,-327.1065 2140.0984,-327.0817 2148.3653,-333.7081 2150.6932,-327.1065"/>
</g>
<!-- Node55&#45;&gt;Node14 -->
<g id="edge75" class="edge">
<title>Node55&#45;&gt;Node14</title>
<path fill="none" stroke="#191970" d="M1586.0247,-374.8821C1625.3099,-356.8024 1700.9266,-313.7831 1700.9266,-250.5 1700.9266,-250.5 1700.9266,-250.5 1700.9266,-183.5 1700.9266,-150.6194 1706.2301,-134.1467 1681.9266,-112 1647.096,-80.2605 1505.4578,-70.1555 1441.0658,-67.164"/>
<polygon fill="#191970" stroke="#191970" points="1441.2046,-63.6668 1431.0616,-66.728 1440.8997,-70.6602 1441.2046,-63.6668"/>
</g>
<!-- Node55&#45;&gt;Node41 -->
<g id="edge77" class="edge">
<title>Node55&#45;&gt;Node41</title>
<path fill="none" stroke="#191970" d="M1551.7511,-374.9005C1539.2401,-364.1539 1518.758,-346.5603 1503.7623,-333.6794"/>
<polygon fill="#191970" stroke="#191970" points="1505.9476,-330.9426 1496.0813,-327.0817 1501.3865,-336.2526 1505.9476,-330.9426"/>
</g>
<!-- Node55&#45;&gt;Node56 -->
<g id="edge74" class="edge">
<title>Node55&#45;&gt;Node56</title>
<path fill="none" stroke="#191970" d="M1568.371,-374.9005C1574.1275,-364.751 1583.3478,-348.4941 1590.5089,-335.8679"/>
<polygon fill="#191970" stroke="#191970" points="1593.6032,-337.5067 1595.4922,-327.0817 1587.5143,-334.0533 1593.6032,-337.5067"/>
</g>
<!-- Node55&#45;&gt;Node57 -->
<g id="edge76" class="edge">
<title>Node55&#45;&gt;Node57</title>
<path fill="none" stroke="#191970" d="M1592.823,-374.9636C1623.6126,-365.0039 1672.8962,-348.6758 1714.9266,-333 1716.7791,-332.3091 1718.6765,-331.5858 1720.5873,-330.8453"/>
<polygon fill="#191970" stroke="#191970" points="1722.1018,-334.0099 1730.107,-327.0696 1719.521,-327.503 1722.1018,-334.0099"/>
</g>
<!-- Node58&#45;&gt;Node44 -->
<g id="edge81" class="edge">
<title>Node58&#45;&gt;Node44</title>
<path fill="none" stroke="#191970" d="M1921.0203,-374.9005C1960.5254,-363.0843 2027.706,-342.9901 2071.1872,-329.9845"/>
<polygon fill="#191970" stroke="#191970" points="2072.3147,-333.3006 2080.8924,-327.0817 2070.3087,-326.5941 2072.3147,-333.3006"/>
</g>
<!-- Node58&#45;&gt;Node57 -->
<g id="edge82" class="edge">
<title>Node58&#45;&gt;Node57</title>
<path fill="none" stroke="#191970" d="M1869.4411,-374.9005C1846.4152,-363.5569 1807.9038,-344.5844 1781.5033,-331.5783"/>
<polygon fill="#191970" stroke="#191970" points="1782.8932,-328.3613 1772.3759,-327.0817 1779.7996,-334.6407 1782.8932,-328.3613"/>
</g>
<!-- Node59&#45;&gt;Node3 -->
<g id="edge85" class="edge">
<title>Node59&#45;&gt;Node3</title>
<path fill="none" stroke="#191970" d="M598.1905,-436.4581C550.875,-425.6406 473.6973,-407.9959 422.613,-396.3168"/>
<polygon fill="#191970" stroke="#191970" points="423.2891,-392.8811 412.7606,-394.0643 421.729,-399.7051 423.2891,-392.8811"/>
</g>
<!-- Node59&#45;&gt;Node15 -->
<g id="edge84" class="edge">
<title>Node59&#45;&gt;Node15</title>
<path fill="none" stroke="#191970" d="M617.9403,-436.3819C555.5775,-409.0995 382.0363,-333.1679 381.9266,-333 374.3877,-321.4678 377.7126,-315.1175 381.9266,-302 393.1301,-267.1244 401.357,-257.9262 429.9266,-235 489.0966,-187.5178 514.1303,-189.3625 586.9266,-168 646.1808,-150.6115 714.748,-139.0696 768.2149,-131.8961"/>
<polygon fill="#191970" stroke="#191970" points="768.8992,-135.3363 778.3579,-130.5631 767.9871,-128.396 768.8992,-135.3363"/>
</g>
<!-- Node59&#45;&gt;Node37 -->
<g id="edge86" class="edge">
<title>Node59&#45;&gt;Node37</title>
<path fill="none" stroke="#191970" d="M639.9266,-436.3906C639.9266,-429.2234 639.9266,-419.0862 639.9266,-409.671"/>
<polygon fill="#191970" stroke="#191970" points="643.4267,-409.5446 639.9266,-399.5446 636.4267,-409.5446 643.4267,-409.5446"/>
</g>
<!-- Node59&#45;&gt;Node57 -->
<g id="edge87" class="edge">
<title>Node59&#45;&gt;Node57</title>
<path fill="none" stroke="#191970" d="M715.4434,-438.0299C724.0321,-437.27 732.6647,-436.5714 740.9266,-436 842.2079,-428.9955 1559.1666,-436.4353 1653.9266,-400 1663.3482,-396.3774 1708.6855,-356.8629 1734.6183,-333.8612"/>
<polygon fill="#191970" stroke="#191970" points="1737.1411,-336.3015 1742.2861,-327.0398 1732.4884,-331.0715 1737.1411,-336.3015"/>
</g>
<!-- Node60&#45;&gt;Node41 -->
<g id="edge89" class="edge">
<title>Node60&#45;&gt;Node41</title>
<path fill="none" stroke="#191970" d="M1273.4233,-492.2422C1284.9778,-468.1451 1317.9843,-405.157 1362.9266,-369 1385.1253,-351.1407 1414.4211,-338.5038 1438.7409,-330.2183"/>
<polygon fill="#191970" stroke="#191970" points="1440.0583,-333.4701 1448.4781,-327.0391 1437.8856,-326.8158 1440.0583,-333.4701"/>
</g>
<!-- Node60&#45;&gt;Node44 -->
<g id="edge99" class="edge">
<title>Node60&#45;&gt;Node44</title>
<path fill="none" stroke="#191970" d="M1343.7328,-494.7283C1404.9368,-487.7799 1493.4051,-475.4434 1568.9266,-456 1677.5893,-428.0243 1697.4632,-397.7387 1805.9266,-369 1882.1347,-348.8077 1971.1781,-334.9052 2033.6827,-326.681"/>
<polygon fill="#191970" stroke="#191970" points="2034.4012,-330.1172 2043.8681,-325.3601 2033.501,-323.1753 2034.4012,-330.1172"/>
</g>
<!-- Node60&#45;&gt;Node57 -->
<g id="edge100" class="edge">
<title>Node60&#45;&gt;Node57</title>
<path fill="none" stroke="#191970" d="M1327.4359,-492.4375C1427.4863,-475.313 1626.415,-437.6683 1685.9266,-400 1711.2844,-383.9495 1731.4658,-354.992 1742.8123,-336.0073"/>
<polygon fill="#191970" stroke="#191970" points="1745.9769,-337.5246 1747.9211,-327.1097 1739.9064,-334.0391 1745.9769,-337.5246"/>
</g>
<!-- Node51 -->
<g id="node42" class="node">
<title>Node51</title>
<g id="a_node42"><a xlink:href="Twist_8h.html" target="_top" xlink:title="iDynTree/Core/Twist.h">
<polygon fill="none" stroke="#000000" points="908.9266,-436.5 908.9266,-455.5 1030.9266,-455.5 1030.9266,-436.5 908.9266,-436.5"/>
<text text-anchor="middle" x="969.9266" y="-443.5" font-family="FreeSans.ttf" font-size="10.00" fill="#000000">iDynTree/Core/Twist.h</text>
</a>
</g>
</g>
<!-- Node60&#45;&gt;Node51 -->
<g id="edge90" class="edge">
<title>Node60&#45;&gt;Node51</title>
<path fill="none" stroke="#191970" d="M1217.8664,-492.4369C1166.0498,-482.7321 1085.8316,-467.708 1030.7551,-457.3926"/>
<polygon fill="#191970" stroke="#191970" points="1031.2496,-453.9245 1020.7762,-455.5237 1029.9609,-460.8048 1031.2496,-453.9245"/>
</g>
<!-- Node53 -->
<g id="node43" class="node">
<title>Node53</title>
<g id="a_node43"><a xlink:href="SpatialAcc_8h.html" target="_top" xlink:title="iDynTree/Core/SpatialAcc.h">
<polygon fill="none" stroke="#000000" points="1048.9266,-436.5 1048.9266,-455.5 1196.9266,-455.5 1196.9266,-436.5 1048.9266,-436.5"/>
<text text-anchor="middle" x="1122.9266" y="-443.5" font-family="FreeSans.ttf" font-size="10.00" fill="#000000">iDynTree/Core/SpatialAcc.h</text>
</a>
</g>
</g>
<!-- Node60&#45;&gt;Node53 -->
<g id="edge92" class="edge">
<title>Node60&#45;&gt;Node53</title>
<path fill="none" stroke="#191970" d="M1243.8283,-492.3733C1219.9711,-483.2226 1183.8931,-469.3844 1157.3556,-459.2057"/>
<polygon fill="#191970" stroke="#191970" points="1158.2876,-455.8145 1147.6973,-455.5011 1155.7807,-462.3503 1158.2876,-455.8145"/>
</g>
<!-- Node54 -->
<g id="node44" class="node">
<title>Node54</title>
<g id="a_node44"><a xlink:href="Wrench_8h.html" target="_top" xlink:title="iDynTree/Core/Wrench.h">
<polygon fill="none" stroke="#000000" points="749.4266,-436.5 749.4266,-455.5 882.4266,-455.5 882.4266,-436.5 749.4266,-436.5"/>
<text text-anchor="middle" x="815.9266" y="-443.5" font-family="FreeSans.ttf" font-size="10.00" fill="#000000">iDynTree/Core/Wrench.h</text>
</a>
</g>
</g>
<!-- Node60&#45;&gt;Node54 -->
<g id="edge94" class="edge">
<title>Node60&#45;&gt;Node54</title>
<path fill="none" stroke="#191970" d="M1194.3766,-492.7841C1110.993,-482.4762 976.6177,-465.8647 892.4426,-455.4589"/>
<polygon fill="#191970" stroke="#191970" points="892.7869,-451.9749 882.433,-454.2215 891.928,-458.9221 892.7869,-451.9749"/>
</g>
<!-- Node61 -->
<g id="node45" class="node">
<title>Node61</title>
<g id="a_node45"><a xlink:href="ArticulatedBodyInertia_8h.html" target="_top" xlink:title="iDynTree/Core/Articulated\lBodyInertia.h">
<polygon fill="none" stroke="#000000" points="1366.4266,-168.5 1366.4266,-198.5 1507.4266,-198.5 1507.4266,-168.5 1366.4266,-168.5"/>
<text text-anchor="start" x="1374.4266" y="-186.5" font-family="FreeSans.ttf" font-size="10.00" fill="#000000">iDynTree/Core/Articulated</text>
<text text-anchor="middle" x="1436.9266" y="-175.5" font-family="FreeSans.ttf" font-size="10.00" fill="#000000">BodyInertia.h</text>
</a>
</g>
</g>
<!-- Node60&#45;&gt;Node61 -->
<g id="edge96" class="edge">
<title>Node60&#45;&gt;Node61</title>
<path fill="none" stroke="#191970" d="M1271.092,-492.3488C1274.1971,-479.2624 1280.4845,-455.3073 1288.9266,-436 1309.3304,-389.3358 1388.5308,-260.9241 1421.9338,-207.4054"/>
<polygon fill="#191970" stroke="#191970" points="1425.0995,-208.944 1427.4325,-198.6092 1419.1638,-205.2334 1425.0995,-208.944"/>
</g>
<!-- Node51&#45;&gt;Node22 -->
<g id="edge91" class="edge">
<title>Node51&#45;&gt;Node22</title>
<path fill="none" stroke="#191970" d="M976.9578,-436.3906C982.5405,-428.761 990.5857,-417.7658 997.8348,-407.8588"/>
<polygon fill="#191970" stroke="#191970" points="1000.8378,-409.6817 1003.9183,-399.5446 995.1886,-405.5481 1000.8378,-409.6817"/>
</g>
<!-- Node53&#45;&gt;Node22 -->
<g id="edge93" class="edge">
<title>Node53&#45;&gt;Node22</title>
<path fill="none" stroke="#191970" d="M1106.0516,-436.3906C1091.1644,-427.9132 1068.9809,-415.2809 1050.2291,-404.6028"/>
<polygon fill="#191970" stroke="#191970" points="1051.7682,-401.4516 1041.3463,-399.5446 1048.3042,-407.5345 1051.7682,-401.4516"/>
</g>
<!-- Node54&#45;&gt;Node37 -->
<g id="edge95" class="edge">
<title>Node54&#45;&gt;Node37</title>
<path fill="none" stroke="#191970" d="M788.4266,-436.3906C762.8427,-427.4508 724.0359,-413.8905 692.5089,-402.8739"/>
<polygon fill="#191970" stroke="#191970" points="693.5758,-399.5393 682.981,-399.5446 691.2667,-406.1475 693.5758,-399.5393"/>
</g>
<!-- Node61&#45;&gt;Node14 -->
<g id="edge98" class="edge">
<title>Node61&#45;&gt;Node14</title>
<path fill="none" stroke="#191970" d="M1433.2661,-168.1389C1428.1984,-146.873 1419.0471,-108.4702 1413.5247,-85.2956"/>
<polygon fill="#191970" stroke="#191970" points="1416.9274,-84.4757 1411.2046,-75.5595 1410.118,-86.0985 1416.9274,-84.4757"/>
</g>
<!-- Node61&#45;&gt;Node20 -->
<g id="edge97" class="edge">
<title>Node61&#45;&gt;Node20</title>
<path fill="none" stroke="#191970" d="M1366.2317,-171.423C1301.312,-160.3325 1205.8629,-144.0266 1142.5852,-133.2167"/>
<polygon fill="#191970" stroke="#191970" points="1143.1619,-129.7646 1132.7153,-131.5306 1141.9831,-136.6646 1143.1619,-129.7646"/>
</g>
<!-- Node62&#45;&gt;Node44 -->
<g id="edge102" class="edge">
<title>Node62&#45;&gt;Node44</title>
<path fill="none" stroke="#191970" d="M2664.4031,-492.1482C2644.3263,-466.6813 2586.5237,-398.5959 2520.9266,-369 2463.9862,-343.3098 2294.2524,-328.6777 2192.5316,-321.9897"/>
<polygon fill="#191970" stroke="#191970" points="2192.5041,-318.4807 2182.2992,-321.3286 2192.0527,-325.4662 2192.5041,-318.4807"/>
</g>
<!-- Node64&#45;&gt;Node14 -->
<g id="edge115" class="edge">
<title>Node64&#45;&gt;Node14</title>
<path fill="none" stroke="#191970" d="M2429.2838,-553.9335C2450.3962,-546.3055 2475.2579,-533.2782 2487.9266,-512 2500.3981,-491.0529 2634.1113,-417.8977 2444.9266,-168 2406.9544,-117.8418 2376.1984,-126.2649 2314.9266,-112 2143.7521,-72.1484 1582.4226,-66.8204 1441.331,-66.1093"/>
<polygon fill="#191970" stroke="#191970" points="1441.1898,-62.6087 1431.1738,-66.0626 1441.1575,-69.6086 1441.1898,-62.6087"/>
</g>
<!-- Node64&#45;&gt;Node45 -->
<g id="edge106" class="edge">
<title>Node64&#45;&gt;Node45</title>
<path fill="none" stroke="#191970" d="M2352.5147,-553.9699C2314.1436,-544.5603 2255.0425,-529.1271 2204.9266,-512 2158.8018,-496.2369 2106.8871,-473.9497 2075.0409,-459.736"/>
<polygon fill="#191970" stroke="#191970" points="2076.3868,-456.5037 2065.8305,-455.6002 2073.5193,-462.8895 2076.3868,-456.5037"/>
</g>
<!-- Node64&#45;&gt;Node57 -->
<g id="edge116" class="edge">
<title>Node64&#45;&gt;Node57</title>
<path fill="none" stroke="#191970" d="M2395.7361,-553.6273C2404.1725,-521.6372 2425.6412,-419.9632 2373.9266,-369 2363.3519,-358.579 1914.0546,-328.1467 1786.4195,-319.698"/>
<polygon fill="#191970" stroke="#191970" points="1786.6435,-316.2053 1776.4346,-319.0385 1786.1821,-323.19 1786.6435,-316.2053"/>
</g>
<!-- Node65 -->
<g id="node49" class="node">
<title>Node65</title>
<g id="a_node49"><a xlink:href="Sensors_8h.html" target="_top" xlink:title="iDynTree/Sensors/Sensors.h">
<polygon fill="none" stroke="#000000" points="2213.4266,-492.5 2213.4266,-511.5 2364.4266,-511.5 2364.4266,-492.5 2213.4266,-492.5"/>
<text text-anchor="middle" x="2288.9266" y="-499.5" font-family="FreeSans.ttf" font-size="10.00" fill="#000000">iDynTree/Sensors/Sensors.h</text>
</a>
</g>
</g>
<!-- Node64&#45;&gt;Node65 -->
<g id="edge107" class="edge">
<title>Node64&#45;&gt;Node65</title>
<path fill="none" stroke="#191970" d="M2376.6766,-553.8906C2359.8097,-543.9165 2333.2166,-528.1908 2313.7231,-516.6633"/>
<polygon fill="#191970" stroke="#191970" points="2315.4516,-513.6194 2305.0625,-511.5419 2311.8885,-519.6447 2315.4516,-513.6194"/>
</g>
<!-- Node66 -->
<g id="node50" class="node">
<title>Node66</title>
<polygon fill="none" stroke="#bfbfbf" points="2420.9266,-492.5 2420.9266,-511.5 2478.9266,-511.5 2478.9266,-492.5 2420.9266,-492.5"/>
<text text-anchor="middle" x="2449.9266" y="-499.5" font-family="FreeSans.ttf" font-size="10.00" fill="#000000">memory</text>
</g>
<!-- Node64&#45;&gt;Node66 -->
<g id="edge114" class="edge">
<title>Node64&#45;&gt;Node66</title>
<path fill="none" stroke="#191970" d="M2401.8328,-553.8906C2410.3993,-544.6478 2423.5434,-530.466 2433.9269,-519.2628"/>
<polygon fill="#191970" stroke="#191970" points="2436.6641,-521.4584 2440.8947,-511.7449 2431.5301,-516.7 2436.6641,-521.4584"/>
</g>
<!-- Node65&#45;&gt;Node3 -->
<g id="edge111" class="edge">
<title>Node65&#45;&gt;Node3</title>
<path fill="none" stroke="#191970" d="M2213.1096,-497.2369C2036.5409,-486.1755 1584.1449,-458.0144 1205.9266,-436 917.5268,-419.2136 845.1215,-419.9973 556.9266,-400 526.998,-397.9233 494.3892,-395.3214 464.9534,-392.8458"/>
<polygon fill="#191970" stroke="#191970" points="464.9431,-389.3325 454.6835,-391.9764 464.3526,-396.3075 464.9431,-389.3325"/>
</g>
<!-- Node65&#45;&gt;Node9 -->
<g id="edge110" class="edge">
<title>Node65&#45;&gt;Node9</title>
<path fill="none" stroke="#191970" d="M2330.6271,-492.4425C2403.1678,-473.071 2544.9266,-421.8639 2544.9266,-317.5 2544.9266,-317.5 2544.9266,-317.5 2544.9266,-122 2544.9266,-44.8036 1946.6781,-17.1696 1790.734,-11.2777"/>
<polygon fill="#191970" stroke="#191970" points="1790.8206,-7.7786 1780.6978,-10.9056 1790.5612,-14.7738 1790.8206,-7.7786"/>
</g>
<!-- Node65&#45;&gt;Node14 -->
<g id="edge108" class="edge">
<title>Node65&#45;&gt;Node14</title>
<path fill="none" stroke="#191970" d="M2318.6944,-492.4391C2360.3334,-476.9809 2430.9266,-442.2569 2430.9266,-384.5 2430.9266,-384.5 2430.9266,-384.5 2430.9266,-183.5 2430.9266,-81.3807 1615.1961,-67.9439 1441.2889,-66.2397"/>
<polygon fill="#191970" stroke="#191970" points="1441.2547,-62.7393 1431.2229,-66.1473 1441.1904,-69.739 1441.2547,-62.7393"/>
</g>
<!-- Node65&#45;&gt;Node44 -->
<g id="edge113" class="edge">
<title>Node65&#45;&gt;Node44</title>
<path fill="none" stroke="#191970" d="M2303.369,-492.4513C2335.8324,-469.8488 2409.0757,-411.7624 2373.9266,-369 2351.2265,-341.3832 2260.5421,-328.3345 2192.3941,-322.3337"/>
<polygon fill="#191970" stroke="#191970" points="2192.3484,-318.8175 2182.0895,-321.4643 2191.7598,-325.7928 2192.3484,-318.8175"/>
</g>
<!-- Node65&#45;&gt;Node45 -->
<g id="edge112" class="edge">
<title>Node65&#45;&gt;Node45</title>
<path fill="none" stroke="#191970" d="M2247.2587,-492.4369C2205.5,-482.8529 2141.1375,-468.0812 2096.2538,-457.78"/>
<polygon fill="#191970" stroke="#191970" points="2096.9521,-454.3494 2086.4226,-455.5237 2095.3862,-461.172 2096.9521,-454.3494"/>
</g>
<!-- Node65&#45;&gt;Node57 -->
<g id="edge109" class="edge">
<title>Node65&#45;&gt;Node57</title>
<path fill="none" stroke="#191970" d="M2269.335,-492.4229C2220.2664,-468.7384 2087.7215,-406.6175 1971.9266,-369 1907.5814,-348.0967 1830.0473,-331.9028 1786.6316,-323.6154"/>
<polygon fill="#191970" stroke="#191970" points="1787.0898,-320.1402 1776.6147,-321.7285 1785.794,-327.0193 1787.0898,-320.1402"/>
</g>
</g>
</svg>
