<?xml version="1.0" encoding="UTF-8" standalone="no"?>
<!DOCTYPE svg PUBLIC "-//W3C//DTD SVG 1.1//EN"
 "http://www.w3.org/Graphics/SVG/1.1/DTD/svg11.dtd">
<!-- Generated by graphviz version 2.40.1 (20161225.0304)
 -->
<!-- Title: SolidShapes.h Pages: 1 -->
<svg width="1081pt" height="420pt"
 viewBox="0.00 0.00 1080.86 420.00" xmlns="http://www.w3.org/2000/svg" xmlns:xlink="http://www.w3.org/1999/xlink">
<g id="graph0" class="graph" transform="scale(1 1) rotate(0) translate(4 416)">
<title>SolidShapes.h</title>
<!-- Node0 -->
<g id="node1" class="node">
<title>Node0</title>
<polygon fill="#bfbfbf" stroke="#000000" points="162,-392.5 162,-411.5 247,-411.5 247,-392.5 162,-392.5"/>
<text text-anchor="middle" x="204.5" y="-399.5" font-family="FreeSans.ttf" font-size="10.00" fill="#000000">SolidShapes.h</text>
</g>
<!-- Node1 -->
<g id="node2" class="node">
<title>Node1</title>
<polygon fill="none" stroke="#bfbfbf" points="0,-336.5 0,-355.5 49,-355.5 49,-336.5 0,-336.5"/>
<text text-anchor="middle" x="24.5" y="-343.5" font-family="FreeSans.ttf" font-size="10.00" fill="#000000">cstdlib</text>
</g>
<!-- Node0&#45;&gt;Node1 -->
<g id="edge1" class="edge">
<title>Node0&#45;&gt;Node1</title>
<path fill="none" stroke="#191970" d="M173.5569,-392.3733C141.6742,-382.4542 92.0882,-367.0275 58.9698,-356.7239"/>
<polygon fill="#191970" stroke="#191970" points="59.8465,-353.3313 49.2582,-353.7026 57.767,-360.0153 59.8465,-353.3313"/>
</g>
<!-- Node2 -->
<g id="node3" class="node">
<title>Node2</title>
<polygon fill="none" stroke="#bfbfbf" points="388.5,-56.5 388.5,-75.5 432.5,-75.5 432.5,-56.5 388.5,-56.5"/>
<text text-anchor="middle" x="410.5" y="-63.5" font-family="FreeSans.ttf" font-size="10.00" fill="#000000">string</text>
</g>
<!-- Node0&#45;&gt;Node2 -->
<g id="edge2" class="edge">
<title>Node0&#45;&gt;Node2</title>
<path fill="none" stroke="#191970" d="M178.1855,-392.4947C140.9864,-377.1657 77.5,-343.2099 77.5,-290 77.5,-290 77.5,-290 77.5,-178 77.5,-114.9006 295.0149,-80.6377 378.4507,-69.816"/>
<polygon fill="#191970" stroke="#191970" points="378.9126,-73.2856 388.3931,-68.5557 378.0323,-66.3412 378.9126,-73.2856"/>
</g>
<!-- Node3 -->
<g id="node4" class="node">
<title>Node3</title>
<polygon fill="none" stroke="#bfbfbf" points="423,-336.5 423,-355.5 470,-355.5 470,-336.5 423,-336.5"/>
<text text-anchor="middle" x="446.5" y="-343.5" font-family="FreeSans.ttf" font-size="10.00" fill="#000000">vector</text>
</g>
<!-- Node0&#45;&gt;Node3 -->
<g id="edge3" class="edge">
<title>Node0&#45;&gt;Node3</title>
<path fill="none" stroke="#191970" d="M247.1614,-393.6209C287.4922,-385.4742 349.8798,-372.2927 413.0394,-355.9698"/>
<polygon fill="#191970" stroke="#191970" points="413.9768,-359.3425 422.7694,-353.4314 412.2097,-352.5692 413.9768,-359.3425"/>
</g>
<!-- Node4 -->
<g id="node5" class="node">
<title>Node4</title>
<g id="a_node5"><a xlink:href="Transform_8h.html" target="_top" xlink:title="iDynTree/Core/Transform.h">
<polygon fill="none" stroke="#000000" points="258.5,-336.5 258.5,-355.5 404.5,-355.5 404.5,-336.5 258.5,-336.5"/>
<text text-anchor="middle" x="331.5" y="-343.5" font-family="FreeSans.ttf" font-size="10.00" fill="#000000">iDynTree/Core/Transform.h</text>
</a>
</g>
</g>
<!-- Node0&#45;&gt;Node4 -->
<g id="edge4" class="edge">
<title>Node0&#45;&gt;Node4</title>
<path fill="none" stroke="#191970" d="M226.3321,-392.3733C246.8103,-383.3435 277.6399,-369.7494 300.6319,-359.6111"/>
<polygon fill="#191970" stroke="#191970" points="302.215,-362.7383 309.9528,-355.5011 299.3907,-356.3333 302.215,-362.7383"/>
</g>
<!-- Node4&#45;&gt;Node2 -->
<g id="edge46" class="edge">
<title>Node4&#45;&gt;Node2</title>
<path fill="none" stroke="#191970" d="M330.7092,-336.1694C329.1817,-322.448 324.8012,-297.2959 312.5,-280 296.4196,-257.3903 274.2644,-268.6343 261.5,-244 257.4105,-236.1077 258.6178,-232.4087 261.5,-224 283.815,-158.8966 350.0579,-106.3071 386.2418,-81.4842"/>
<polygon fill="#191970" stroke="#191970" points="388.3916,-84.2567 394.7484,-75.7807 384.4934,-78.4426 388.3916,-84.2567"/>
</g>
<!-- Node5 -->
<g id="node6" class="node">
<title>Node5</title>
<g id="a_node6"><a xlink:href="Position_8h.html" target="_top" xlink:title="iDynTree/Core/Position.h">
<polygon fill="none" stroke="#000000" points="416.5,-280.5 416.5,-299.5 552.5,-299.5 552.5,-280.5 416.5,-280.5"/>
<text text-anchor="middle" x="484.5" y="-287.5" font-family="FreeSans.ttf" font-size="10.00" fill="#000000">iDynTree/Core/Position.h</text>
</a>
</g>
</g>
<!-- Node4&#45;&gt;Node5 -->
<g id="edge5" class="edge">
<title>Node4&#45;&gt;Node5</title>
<path fill="none" stroke="#191970" d="M357.8016,-336.3733C382.9128,-327.1822 420.9438,-313.2624 448.7872,-303.0713"/>
<polygon fill="#191970" stroke="#191970" points="450.3538,-306.2251 458.5416,-299.5011 447.9478,-299.6516 450.3538,-306.2251"/>
</g>
<!-- Node22 -->
<g id="node23" class="node">
<title>Node22</title>
<g id="a_node23"><a xlink:href="Rotation_8h.html" target="_top" xlink:title="iDynTree/Core/Rotation.h">
<polygon fill="none" stroke="#000000" points="574,-224.5 574,-243.5 711,-243.5 711,-224.5 574,-224.5"/>
<text text-anchor="middle" x="642.5" y="-231.5" font-family="FreeSans.ttf" font-size="10.00" fill="#000000">iDynTree/Core/Rotation.h</text>
</a>
</g>
</g>
<!-- Node4&#45;&gt;Node22 -->
<g id="edge42" class="edge">
<title>Node4&#45;&gt;Node22</title>
<path fill="none" stroke="#191970" d="M397.0459,-336.4972C454.4067,-327.5277 532.9083,-313.4797 561.5,-300 586.9292,-288.0112 611.2564,-266.3484 626.4955,-251.1192"/>
<polygon fill="#191970" stroke="#191970" points="629.1267,-253.434 633.594,-243.827 624.1107,-248.5513 629.1267,-253.434"/>
</g>
<!-- Node24 -->
<g id="node25" class="node">
<title>Node24</title>
<g id="a_node25"><a xlink:href="MatrixFixSize_8h.html" target="_top" xlink:title="iDynTree/Core/MatrixFixSize.h">
<polygon fill="none" stroke="#000000" points="900,-112.5 900,-131.5 1061,-131.5 1061,-112.5 900,-112.5"/>
<text text-anchor="middle" x="980.5" y="-119.5" font-family="FreeSans.ttf" font-size="10.00" fill="#000000">iDynTree/Core/MatrixFixSize.h</text>
</a>
</g>
</g>
<!-- Node4&#45;&gt;Node24 -->
<g id="edge45" class="edge">
<title>Node4&#45;&gt;Node24</title>
<path fill="none" stroke="#191970" d="M404.7268,-337.1956C457.1186,-329.8838 528.9662,-317.7787 590.5,-300 717.2843,-263.3687 746.892,-245.8641 865.5,-188 897.8668,-172.2095 933.622,-151.0702 956.5364,-137.0167"/>
<polygon fill="#191970" stroke="#191970" points="958.5657,-139.8771 965.234,-131.6439 954.8869,-133.9217 958.5657,-139.8771"/>
</g>
<!-- Node27 -->
<g id="node28" class="node">
<title>Node27</title>
<g id="a_node28"><a xlink:href="TransformSemantics_8h.html" target="_top" xlink:title="iDynTree/Core/TransformSemantics.h">
<polygon fill="none" stroke="#000000" points="106,-280.5 106,-299.5 303,-299.5 303,-280.5 106,-280.5"/>
<text text-anchor="middle" x="204.5" y="-287.5" font-family="FreeSans.ttf" font-size="10.00" fill="#000000">iDynTree/Core/TransformSemantics.h</text>
</a>
</g>
</g>
<!-- Node4&#45;&gt;Node27 -->
<g id="edge43" class="edge">
<title>Node4&#45;&gt;Node27</title>
<path fill="none" stroke="#191970" d="M309.6679,-336.3733C289.1897,-327.3435 258.3601,-313.7494 235.3681,-303.6111"/>
<polygon fill="#191970" stroke="#191970" points="236.6093,-300.3333 226.0472,-299.5011 233.785,-306.7383 236.6093,-300.3333"/>
</g>
<!-- Node5&#45;&gt;Node2 -->
<g id="edge41" class="edge">
<title>Node5&#45;&gt;Node2</title>
<path fill="none" stroke="#191970" d="M483.6825,-280.3093C482.1543,-266.7541 477.9085,-241.7983 466.5,-224 453.0496,-203.0162 435.8101,-209.6725 423.5,-188 411.0498,-166.0809 417.2659,-157.0561 414.5,-132 412.805,-116.6446 411.7866,-99.1942 411.202,-86.0951"/>
<polygon fill="#191970" stroke="#191970" points="414.6898,-85.7183 410.7937,-75.8658 407.6954,-85.9975 414.6898,-85.7183"/>
</g>
<!-- Node6 -->
<g id="node7" class="node">
<title>Node6</title>
<g id="a_node7"><a xlink:href="PositionRaw_8h.html" target="_top" xlink:title="iDynTree/Core/PositionRaw.h">
<polygon fill="none" stroke="#000000" points="432.5,-168.5 432.5,-187.5 588.5,-187.5 588.5,-168.5 432.5,-168.5"/>
<text text-anchor="middle" x="510.5" y="-175.5" font-family="FreeSans.ttf" font-size="10.00" fill="#000000">iDynTree/Core/PositionRaw.h</text>
</a>
</g>
</g>
<!-- Node5&#45;&gt;Node6 -->
<g id="edge6" class="edge">
<title>Node5&#45;&gt;Node6</title>
<path fill="none" stroke="#191970" d="M487.8364,-280.2202C490.9062,-270.9695 495.4343,-256.6565 498.5,-244 502.1897,-228.7673 505.3164,-211.3106 507.4523,-198.1779"/>
<polygon fill="#191970" stroke="#191970" points="510.9702,-198.3365 509.0635,-187.9147 504.0549,-197.2508 510.9702,-198.3365"/>
</g>
<!-- Node21 -->
<g id="node22" class="node">
<title>Node21</title>
<g id="a_node22"><a xlink:href="PositionSemantics_8h.html" target="_top" xlink:title="iDynTree/Core/PositionSemantics.h">
<polygon fill="none" stroke="#000000" points="270,-224.5 270,-243.5 457,-243.5 457,-224.5 270,-224.5"/>
<text text-anchor="middle" x="363.5" y="-231.5" font-family="FreeSans.ttf" font-size="10.00" fill="#000000">iDynTree/Core/PositionSemantics.h</text>
</a>
</g>
</g>
<!-- Node5&#45;&gt;Node21 -->
<g id="edge25" class="edge">
<title>Node5&#45;&gt;Node21</title>
<path fill="none" stroke="#191970" d="M463.6994,-280.3733C444.2757,-271.3838 415.0776,-257.8706 393.2036,-247.7471"/>
<polygon fill="#191970" stroke="#191970" points="394.5745,-244.5249 384.0292,-243.5011 391.6344,-250.8776 394.5745,-244.5249"/>
</g>
<!-- Node5&#45;&gt;Node22 -->
<g id="edge27" class="edge">
<title>Node5&#45;&gt;Node22</title>
<path fill="none" stroke="#191970" d="M511.6612,-280.3733C537.7067,-271.1419 577.2116,-257.1402 605.9979,-246.9375"/>
<polygon fill="#191970" stroke="#191970" points="607.437,-250.1408 615.6933,-243.5011 605.0985,-243.5429 607.437,-250.1408"/>
</g>
<!-- Node6&#45;&gt;Node2 -->
<g id="edge24" class="edge">
<title>Node6&#45;&gt;Node2</title>
<path fill="none" stroke="#191970" d="M482.3744,-168.3783C464.7978,-161.0033 443.0113,-149.149 429.5,-132 419.0192,-118.6974 414.3196,-99.8399 412.2125,-85.6861"/>
<polygon fill="#191970" stroke="#191970" points="415.6632,-85.0613 411.0174,-75.5394 408.7112,-85.8802 415.6632,-85.0613"/>
</g>
<!-- Node7 -->
<g id="node8" class="node">
<title>Node7</title>
<g id="a_node8"><a xlink:href="VectorFixSize_8h.html" target="_top" xlink:title="iDynTree/Core/VectorFixSize.h">
<polygon fill="none" stroke="#000000" points="721,-112.5 721,-131.5 882,-131.5 882,-112.5 721,-112.5"/>
<text text-anchor="middle" x="801.5" y="-119.5" font-family="FreeSans.ttf" font-size="10.00" fill="#000000">iDynTree/Core/VectorFixSize.h</text>
</a>
</g>
</g>
<!-- Node6&#45;&gt;Node7 -->
<g id="edge7" class="edge">
<title>Node6&#45;&gt;Node7</title>
<path fill="none" stroke="#191970" d="M560.194,-168.4369C610.5196,-158.7522 688.3723,-143.7703 741.9651,-133.4569"/>
<polygon fill="#191970" stroke="#191970" points="742.8525,-136.8504 752.0109,-131.5237 741.5297,-129.9765 742.8525,-136.8504"/>
</g>
<!-- Node7&#45;&gt;Node2 -->
<g id="edge20" class="edge">
<title>Node7&#45;&gt;Node2</title>
<path fill="none" stroke="#191970" d="M734.729,-112.4369C649.9867,-100.2999 507.1543,-79.8431 443.1906,-70.682"/>
<polygon fill="#191970" stroke="#191970" points="443.3031,-67.1625 432.9079,-69.2093 442.3106,-74.0918 443.3031,-67.1625"/>
</g>
<!-- Node8 -->
<g id="node9" class="node">
<title>Node8</title>
<g id="a_node9"><a xlink:href="Utils_8h.html" target="_top" xlink:title="iDynTree/Core/Utils.h">
<polygon fill="none" stroke="#000000" points="681,-56.5 681,-75.5 800,-75.5 800,-56.5 681,-56.5"/>
<text text-anchor="middle" x="740.5" y="-63.5" font-family="FreeSans.ttf" font-size="10.00" fill="#000000">iDynTree/Core/Utils.h</text>
</a>
</g>
</g>
<!-- Node7&#45;&gt;Node8 -->
<g id="edge8" class="edge">
<title>Node7&#45;&gt;Node8</title>
<path fill="none" stroke="#191970" d="M790.8746,-112.2455C781.9527,-104.0549 769.012,-92.1749 758.4808,-82.5069"/>
<polygon fill="#191970" stroke="#191970" points="760.7371,-79.8271 751.0036,-75.6427 756.0032,-84.9837 760.7371,-79.8271"/>
</g>
<!-- Node10 -->
<g id="node11" class="node">
<title>Node10</title>
<g id="a_node11"><a xlink:href="Span_8h.html" target="_top" xlink:title="iDynTree/Core/Span.h">
<polygon fill="none" stroke="#000000" points="515,-56.5 515,-75.5 636,-75.5 636,-56.5 515,-56.5"/>
<text text-anchor="middle" x="575.5" y="-63.5" font-family="FreeSans.ttf" font-size="10.00" fill="#000000">iDynTree/Core/Span.h</text>
</a>
</g>
</g>
<!-- Node7&#45;&gt;Node10 -->
<g id="edge10" class="edge">
<title>Node7&#45;&gt;Node10</title>
<path fill="none" stroke="#191970" d="M762.906,-112.4369C724.4716,-102.9133 665.364,-88.2672 623.829,-77.9753"/>
<polygon fill="#191970" stroke="#191970" points="624.4831,-74.5316 613.9348,-75.5237 622.7994,-81.3261 624.4831,-74.5316"/>
</g>
<!-- Node11 -->
<g id="node12" class="node">
<title>Node11</title>
<polygon fill="none" stroke="#bfbfbf" points="816.5,-.5 816.5,-19.5 868.5,-19.5 868.5,-.5 816.5,-.5"/>
<text text-anchor="middle" x="842.5" y="-7.5" font-family="FreeSans.ttf" font-size="10.00" fill="#000000">cassert</text>
</g>
<!-- Node7&#45;&gt;Node11 -->
<g id="edge22" class="edge">
<title>Node7&#45;&gt;Node11</title>
<path fill="none" stroke="#191970" d="M804.9956,-112.4509C811.7432,-94.0186 826.6764,-53.2254 835.5289,-29.043"/>
<polygon fill="#191970" stroke="#191970" points="838.8622,-30.1187 839.0132,-19.5249 832.2888,-27.7123 838.8622,-30.1187"/>
</g>
<!-- Node19 -->
<g id="node20" class="node">
<title>Node19</title>
<polygon fill="none" stroke="#bfbfbf" points="924.5,-56.5 924.5,-75.5 980.5,-75.5 980.5,-56.5 924.5,-56.5"/>
<text text-anchor="middle" x="952.5" y="-63.5" font-family="FreeSans.ttf" font-size="10.00" fill="#000000">sstream</text>
</g>
<!-- Node7&#45;&gt;Node19 -->
<g id="edge21" class="edge">
<title>Node7&#45;&gt;Node19</title>
<path fill="none" stroke="#191970" d="M827.4578,-112.3733C852.2407,-103.1822 889.7746,-89.2624 917.254,-79.0713"/>
<polygon fill="#191970" stroke="#191970" points="918.7219,-82.26 926.8809,-75.5011 916.2879,-75.6968 918.7219,-82.26"/>
</g>
<!-- Node20 -->
<g id="node21" class="node">
<title>Node20</title>
<polygon fill="none" stroke="#bfbfbf" points="856.5,-56.5 856.5,-75.5 906.5,-75.5 906.5,-56.5 856.5,-56.5"/>
<text text-anchor="middle" x="881.5" y="-63.5" font-family="FreeSans.ttf" font-size="10.00" fill="#000000">cstring</text>
</g>
<!-- Node7&#45;&gt;Node20 -->
<g id="edge23" class="edge">
<title>Node7&#45;&gt;Node20</title>
<path fill="none" stroke="#191970" d="M815.4349,-112.2455C827.5947,-103.7337 845.4464,-91.2375 859.5285,-81.3801"/>
<polygon fill="#191970" stroke="#191970" points="861.5395,-84.2447 867.7248,-75.6427 857.5253,-78.51 861.5395,-84.2447"/>
</g>
<!-- Node9 -->
<g id="node10" class="node">
<title>Node9</title>
<polygon fill="none" stroke="#bfbfbf" points="745,-.5 745,-19.5 798,-19.5 798,-.5 745,-.5"/>
<text text-anchor="middle" x="771.5" y="-7.5" font-family="FreeSans.ttf" font-size="10.00" fill="#000000">cstddef</text>
</g>
<!-- Node8&#45;&gt;Node9 -->
<g id="edge9" class="edge">
<title>Node8&#45;&gt;Node9</title>
<path fill="none" stroke="#191970" d="M745.8998,-56.2455C750.1227,-48.617 756.1173,-37.7881 761.2441,-28.5267"/>
<polygon fill="#191970" stroke="#191970" points="764.381,-30.0867 766.1621,-19.6427 758.2568,-26.6965 764.381,-30.0867"/>
</g>
<!-- Node10&#45;&gt;Node9 -->
<g id="edge14" class="edge">
<title>Node10&#45;&gt;Node9</title>
<path fill="none" stroke="#191970" d="M609.1936,-56.3733C644.3097,-46.3401 699.1486,-30.6718 735.2034,-20.3704"/>
<polygon fill="#191970" stroke="#191970" points="736.1889,-23.729 744.8426,-17.6164 734.2658,-16.9983 736.1889,-23.729"/>
</g>
<!-- Node10&#45;&gt;Node11 -->
<g id="edge11" class="edge">
<title>Node10&#45;&gt;Node11</title>
<path fill="none" stroke="#191970" d="M630.1536,-56.4801C675.0392,-48.3635 740.4593,-35.8546 806.0832,-20.2043"/>
<polygon fill="#191970" stroke="#191970" points="807.2866,-23.5146 816.1885,-17.7695 805.6468,-16.7094 807.2866,-23.5146"/>
</g>
<!-- Node12 -->
<g id="node13" class="node">
<title>Node12</title>
<polygon fill="none" stroke="#bfbfbf" points="602.5,-.5 602.5,-19.5 666.5,-19.5 666.5,-.5 602.5,-.5"/>
<text text-anchor="middle" x="634.5" y="-7.5" font-family="FreeSans.ttf" font-size="10.00" fill="#000000">algorithm</text>
</g>
<!-- Node10&#45;&gt;Node12 -->
<g id="edge12" class="edge">
<title>Node10&#45;&gt;Node12</title>
<path fill="none" stroke="#191970" d="M585.777,-56.2455C594.3218,-48.1352 606.6778,-36.4075 616.8085,-26.7919"/>
<polygon fill="#191970" stroke="#191970" points="619.4972,-29.0655 624.3408,-19.6427 614.6782,-23.9884 619.4972,-29.0655"/>
</g>
<!-- Node13 -->
<g id="node14" class="node">
<title>Node13</title>
<polygon fill="none" stroke="#bfbfbf" points="684.5,-.5 684.5,-19.5 726.5,-19.5 726.5,-.5 684.5,-.5"/>
<text text-anchor="middle" x="705.5" y="-7.5" font-family="FreeSans.ttf" font-size="10.00" fill="#000000">array</text>
</g>
<!-- Node10&#45;&gt;Node13 -->
<g id="edge13" class="edge">
<title>Node10&#45;&gt;Node13</title>
<path fill="none" stroke="#191970" d="M597.8478,-56.3733C619.1586,-47.1932 651.4207,-33.2957 675.0709,-23.1079"/>
<polygon fill="#191970" stroke="#191970" points="676.5052,-26.301 684.3047,-19.1303 673.7358,-19.8722 676.5052,-26.301"/>
</g>
<!-- Node14 -->
<g id="node15" class="node">
<title>Node14</title>
<polygon fill="none" stroke="#bfbfbf" points="235,-.5 235,-19.5 288,-19.5 288,-.5 235,-.5"/>
<text text-anchor="middle" x="261.5" y="-7.5" font-family="FreeSans.ttf" font-size="10.00" fill="#000000">iterator</text>
</g>
<!-- Node10&#45;&gt;Node14 -->
<g id="edge15" class="edge">
<title>Node10&#45;&gt;Node14</title>
<path fill="none" stroke="#191970" d="M514.9489,-57.8865C460.6013,-50.1723 378.5,-37.4548 297.9678,-19.9102"/>
<polygon fill="#191970" stroke="#191970" points="298.6757,-16.4823 288.1566,-17.7467 297.1683,-23.3181 298.6757,-16.4823"/>
</g>
<!-- Node15 -->
<g id="node16" class="node">
<title>Node15</title>
<polygon fill="none" stroke="#bfbfbf" points="306.5,-.5 306.5,-19.5 350.5,-19.5 350.5,-.5 306.5,-.5"/>
<text text-anchor="middle" x="328.5" y="-7.5" font-family="FreeSans.ttf" font-size="10.00" fill="#000000">limits</text>
</g>
<!-- Node10&#45;&gt;Node15 -->
<g id="edge16" class="edge">
<title>Node10&#45;&gt;Node15</title>
<path fill="none" stroke="#191970" d="M524.3624,-56.437C480.6036,-47.9258 416.0633,-34.5926 360.5,-20 360.4015,-19.9741 360.3028,-19.9481 360.204,-19.922"/>
<polygon fill="#191970" stroke="#191970" points="361.3791,-16.6173 350.8036,-17.2578 359.4703,-23.352 361.3791,-16.6173"/>
</g>
<!-- Node16 -->
<g id="node17" class="node">
<title>Node16</title>
<polygon fill="none" stroke="#bfbfbf" points="369,-.5 369,-19.5 434,-19.5 434,-.5 369,-.5"/>
<text text-anchor="middle" x="401.5" y="-7.5" font-family="FreeSans.ttf" font-size="10.00" fill="#000000">stdexcept</text>
</g>
<!-- Node10&#45;&gt;Node16 -->
<g id="edge17" class="edge">
<title>Node10&#45;&gt;Node16</title>
<path fill="none" stroke="#191970" d="M545.5883,-56.3733C516.6548,-47.0613 472.6389,-32.8953 440.8707,-22.671"/>
<polygon fill="#191970" stroke="#191970" points="441.6128,-19.2331 431.0213,-19.5011 439.4682,-25.8965 441.6128,-19.2331"/>
</g>
<!-- Node17 -->
<g id="node18" class="node">
<title>Node17</title>
<polygon fill="none" stroke="#bfbfbf" points="452,-.5 452,-19.5 521,-19.5 521,-.5 452,-.5"/>
<text text-anchor="middle" x="486.5" y="-7.5" font-family="FreeSans.ttf" font-size="10.00" fill="#000000">type_traits</text>
</g>
<!-- Node10&#45;&gt;Node17 -->
<g id="edge18" class="edge">
<title>Node10&#45;&gt;Node17</title>
<path fill="none" stroke="#191970" d="M559.9974,-56.2455C546.342,-47.6534 526.2343,-35.0014 510.5011,-25.1018"/>
<polygon fill="#191970" stroke="#191970" points="512.1529,-22.006 501.825,-19.6427 508.4249,-27.9307 512.1529,-22.006"/>
</g>
<!-- Node18 -->
<g id="node19" class="node">
<title>Node18</title>
<polygon fill="none" stroke="#bfbfbf" points="539,-.5 539,-19.5 584,-19.5 584,-.5 539,-.5"/>
<text text-anchor="middle" x="561.5" y="-7.5" font-family="FreeSans.ttf" font-size="10.00" fill="#000000">utility</text>
</g>
<!-- Node10&#45;&gt;Node18 -->
<g id="edge19" class="edge">
<title>Node10&#45;&gt;Node18</title>
<path fill="none" stroke="#191970" d="M573.0614,-56.2455C571.2145,-48.8579 568.6172,-38.4689 566.3522,-29.4087"/>
<polygon fill="#191970" stroke="#191970" points="569.7316,-28.4952 563.9107,-19.6427 562.9406,-30.193 569.7316,-28.4952"/>
</g>
<!-- Node21&#45;&gt;Node2 -->
<g id="edge26" class="edge">
<title>Node21&#45;&gt;Node2</title>
<path fill="none" stroke="#191970" d="M360.2897,-224.2689C353.8053,-202.8477 341.1728,-150.4619 358.5,-112 364.0697,-99.6369 374.7863,-89.2563 385.0506,-81.5033"/>
<polygon fill="#191970" stroke="#191970" points="387.2618,-84.2277 393.4433,-75.623 383.2451,-78.4948 387.2618,-84.2277"/>
</g>
<!-- Node22&#45;&gt;Node2 -->
<g id="edge28" class="edge">
<title>Node22&#45;&gt;Node2</title>
<path fill="none" stroke="#191970" d="M645.4398,-224.3312C651.6873,-201.6323 663.539,-144.4095 635.5,-112 622.9188,-97.4577 501.5252,-78.7103 442.462,-70.3539"/>
<polygon fill="#191970" stroke="#191970" points="442.9232,-66.8844 432.5345,-68.9643 441.9527,-73.8168 442.9232,-66.8844"/>
</g>
<!-- Node22&#45;&gt;Node7 -->
<g id="edge40" class="edge">
<title>Node22&#45;&gt;Node7</title>
<path fill="none" stroke="#191970" d="M711.2278,-227.8855C764.5783,-221.5478 832.2809,-209.4656 849.5,-188 862.909,-171.2842 843.7181,-151.2819 825.768,-137.7116"/>
<polygon fill="#191970" stroke="#191970" points="827.3791,-134.5619 817.204,-131.609 823.3168,-140.2627 827.3791,-134.5619"/>
</g>
<!-- Node23 -->
<g id="node24" class="node">
<title>Node23</title>
<g id="a_node24"><a xlink:href="RotationRaw_8h.html" target="_top" xlink:title="iDynTree/Core/RotationRaw.h">
<polygon fill="none" stroke="#000000" points="682.5,-168.5 682.5,-187.5 840.5,-187.5 840.5,-168.5 682.5,-168.5"/>
<text text-anchor="middle" x="761.5" y="-175.5" font-family="FreeSans.ttf" font-size="10.00" fill="#000000">iDynTree/Core/RotationRaw.h</text>
</a>
</g>
</g>
<!-- Node22&#45;&gt;Node23 -->
<g id="edge29" class="edge">
<title>Node22&#45;&gt;Node23</title>
<path fill="none" stroke="#191970" d="M662.9568,-224.3733C681.9738,-215.4241 710.5175,-201.9917 731.9976,-191.8835"/>
<polygon fill="#191970" stroke="#191970" points="733.7522,-194.926 741.3101,-187.5011 730.7716,-188.5923 733.7522,-194.926"/>
</g>
<!-- Node26 -->
<g id="node27" class="node">
<title>Node26</title>
<g id="a_node27"><a xlink:href="RotationSemantics_8h.html" target="_top" xlink:title="iDynTree/Core/RotationSemantics.h">
<polygon fill="none" stroke="#000000" points="438.5,-112.5 438.5,-131.5 626.5,-131.5 626.5,-112.5 438.5,-112.5"/>
<text text-anchor="middle" x="532.5" y="-119.5" font-family="FreeSans.ttf" font-size="10.00" fill="#000000">iDynTree/Core/RotationSemantics.h</text>
</a>
</g>
</g>
<!-- Node22&#45;&gt;Node26 -->
<g id="edge38" class="edge">
<title>Node22&#45;&gt;Node26</title>
<path fill="none" stroke="#191970" d="M637.3318,-224.256C629.7993,-210.6375 614.8023,-185.6069 597.5,-168 585.804,-156.0981 570.6872,-145.1934 557.9754,-136.9914"/>
<polygon fill="#191970" stroke="#191970" points="559.5622,-133.8557 549.2277,-131.5212 555.8507,-139.7908 559.5622,-133.8557"/>
</g>
<!-- Node23&#45;&gt;Node2 -->
<g id="edge37" class="edge">
<title>Node23&#45;&gt;Node2</title>
<path fill="none" stroke="#191970" d="M751.2778,-168.3764C735.0807,-153.7121 701.916,-126.0028 668.5,-112 628.1224,-95.08 502.6527,-77.6037 442.843,-69.9692"/>
<polygon fill="#191970" stroke="#191970" points="443.1722,-66.483 432.8125,-68.7027 442.2953,-73.4279 443.1722,-66.483"/>
</g>
<!-- Node23&#45;&gt;Node24 -->
<g id="edge30" class="edge">
<title>Node23&#45;&gt;Node24</title>
<path fill="none" stroke="#191970" d="M799.1474,-168.3733C836.352,-158.8598 893.3703,-144.2797 933.5216,-134.0127"/>
<polygon fill="#191970" stroke="#191970" points="934.5227,-137.3695 943.3438,-131.5011 932.7884,-130.5877 934.5227,-137.3695"/>
</g>
<!-- Node24&#45;&gt;Node2 -->
<g id="edge34" class="edge">
<title>Node24&#45;&gt;Node2</title>
<path fill="none" stroke="#191970" d="M899.977,-112.8844C897.1166,-112.5822 894.284,-112.2865 891.5,-112 720.5456,-94.4047 677.5243,-92.903 506.5,-76 485.2126,-73.8961 461.2841,-71.4038 442.6419,-69.4337"/>
<polygon fill="#191970" stroke="#191970" points="442.9218,-65.9439 432.6085,-68.3699 442.1837,-72.9048 442.9218,-65.9439"/>
</g>
<!-- Node24&#45;&gt;Node8 -->
<g id="edge31" class="edge">
<title>Node24&#45;&gt;Node8</title>
<path fill="none" stroke="#191970" d="M939.5152,-112.4369C898.5274,-102.8731 835.3996,-88.1432 791.2643,-77.845"/>
<polygon fill="#191970" stroke="#191970" points="791.8495,-74.3876 781.3157,-75.5237 790.2588,-81.2045 791.8495,-74.3876"/>
</g>
<!-- Node24&#45;&gt;Node11 -->
<g id="edge32" class="edge">
<title>Node24&#45;&gt;Node11</title>
<path fill="none" stroke="#191970" d="M1012.285,-112.4065C1044.655,-101.0173 1087.4604,-80.4541 1067.5,-56 1044.1217,-27.3585 936.5323,-16.0737 879.0132,-12.0292"/>
<polygon fill="#191970" stroke="#191970" points="879.0976,-8.5272 868.8874,-11.3558 878.633,-15.5118 879.0976,-8.5272"/>
</g>
<!-- Node24&#45;&gt;Node19 -->
<g id="edge36" class="edge">
<title>Node24&#45;&gt;Node19</title>
<path fill="none" stroke="#191970" d="M975.6228,-112.2455C971.8487,-104.6973 966.5079,-94.0158 961.9099,-84.8197"/>
<polygon fill="#191970" stroke="#191970" points="964.924,-83.0217 957.3213,-75.6427 958.663,-86.1522 964.924,-83.0217"/>
</g>
<!-- Node24&#45;&gt;Node20 -->
<g id="edge33" class="edge">
<title>Node24&#45;&gt;Node20</title>
<path fill="none" stroke="#191970" d="M963.2555,-112.2455C947.9239,-103.5731 925.2801,-90.7645 907.7084,-80.825"/>
<polygon fill="#191970" stroke="#191970" points="908.9741,-77.5198 898.5469,-75.6427 905.5276,-83.6126 908.9741,-77.5198"/>
</g>
<!-- Node25 -->
<g id="node26" class="node">
<title>Node25</title>
<polygon fill="none" stroke="#bfbfbf" points="998.5,-56.5 998.5,-75.5 1058.5,-75.5 1058.5,-56.5 998.5,-56.5"/>
<text text-anchor="middle" x="1028.5" y="-63.5" font-family="FreeSans.ttf" font-size="10.00" fill="#000000">iostream</text>
</g>
<!-- Node24&#45;&gt;Node25 -->
<g id="edge35" class="edge">
<title>Node24&#45;&gt;Node25</title>
<path fill="none" stroke="#191970" d="M988.861,-112.2455C995.675,-104.2958 1005.4681,-92.8706 1013.6152,-83.3656"/>
<polygon fill="#191970" stroke="#191970" points="1016.3843,-85.513 1020.2349,-75.6427 1011.0695,-80.9575 1016.3843,-85.513"/>
</g>
<!-- Node26&#45;&gt;Node2 -->
<g id="edge39" class="edge">
<title>Node26&#45;&gt;Node2</title>
<path fill="none" stroke="#191970" d="M511.5275,-112.3733C491.9433,-103.3838 462.5039,-89.8706 440.449,-79.7471"/>
<polygon fill="#191970" stroke="#191970" points="441.7473,-76.4919 431.1989,-75.5011 438.8271,-82.8538 441.7473,-76.4919"/>
</g>
<!-- Node27&#45;&gt;Node2 -->
<g id="edge44" class="edge">
<title>Node27&#45;&gt;Node2</title>
<path fill="none" stroke="#191970" d="M202.4823,-280.4037C196.9102,-251.025 184.483,-161.3214 228.5,-112 248.2208,-89.9027 331.679,-75.9955 378.43,-69.7873"/>
<polygon fill="#191970" stroke="#191970" points="378.8918,-73.2568 388.364,-68.5106 377.9994,-66.3139 378.8918,-73.2568"/>
</g>
</g>
</svg>
