<?xml version="1.0" encoding="UTF-8" standalone="no"?>
<!DOCTYPE svg PUBLIC "-//W3C//DTD SVG 1.1//EN"
 "http://www.w3.org/Graphics/SVG/1.1/DTD/svg11.dtd">
<!-- Generated by graphviz version 2.40.1 (20161225.0304)
 -->
<!-- Title: SpatialMotionVector.h Pages: 1 -->
<svg width="1336pt" height="509pt"
 viewBox="0.00 0.00 1336.00 509.00" xmlns="http://www.w3.org/2000/svg" xmlns:xlink="http://www.w3.org/1999/xlink">
<g id="graph0" class="graph" transform="scale(1 1) rotate(0) translate(4 505)">
<title>SpatialMotionVector.h</title>
<!-- Node0 -->
<g id="node1" class="node">
<title>Node0</title>
<polygon fill="#bfbfbf" stroke="#000000" points="186,-481.5 186,-500.5 308,-500.5 308,-481.5 186,-481.5"/>
<text text-anchor="middle" x="247" y="-488.5" font-family="FreeSans.ttf" font-size="10.00" fill="#000000">SpatialMotionVector.h</text>
</g>
<!-- Node1 -->
<g id="node2" class="node">
<title>Node1</title>
<g id="a_node2"><a xlink:href="VectorFixSize_8h.html" target="_top" xlink:title="iDynTree/Core/VectorFixSize.h">
<polygon fill="none" stroke="#000000" points="358.5,-112.5 358.5,-131.5 519.5,-131.5 519.5,-112.5 358.5,-112.5"/>
<text text-anchor="middle" x="439" y="-119.5" font-family="FreeSans.ttf" font-size="10.00" fill="#000000">iDynTree/Core/VectorFixSize.h</text>
</a>
</g>
</g>
<!-- Node0&#45;&gt;Node1 -->
<g id="edge1" class="edge">
<title>Node0&#45;&gt;Node1</title>
<path fill="none" stroke="#191970" d="M199.0238,-481.4988C178.7472,-474.8558 157.0695,-463.6832 145,-445 115.2879,-399.0065 -10.9486,-447.5996 156,-224 184.014,-186.4799 311.6325,-151.4773 385.5744,-133.874"/>
<polygon fill="#191970" stroke="#191970" points="386.7029,-137.2041 395.6357,-131.5071 385.0999,-130.3901 386.7029,-137.2041"/>
</g>
<!-- Node16 -->
<g id="node17" class="node">
<title>Node16</title>
<g id="a_node17"><a xlink:href="LinearMotionVector3_8h.html" target="_top" xlink:title="iDynTree/Core/LinearMotion\lVector3.h">
<polygon fill="none" stroke="#000000" points="344.5,-414.5 344.5,-444.5 495.5,-444.5 495.5,-414.5 344.5,-414.5"/>
<text text-anchor="start" x="352.5" y="-432.5" font-family="FreeSans.ttf" font-size="10.00" fill="#000000">iDynTree/Core/LinearMotion</text>
<text text-anchor="middle" x="420" y="-421.5" font-family="FreeSans.ttf" font-size="10.00" fill="#000000">Vector3.h</text>
</a>
</g>
</g>
<!-- Node0&#45;&gt;Node16 -->
<g id="edge18" class="edge">
<title>Node0&#45;&gt;Node16</title>
<path fill="none" stroke="#191970" d="M274.0313,-481.3906C299.0706,-472.4893 336.9957,-459.0073 367.9129,-448.0165"/>
<polygon fill="#191970" stroke="#191970" points="369.4295,-451.192 377.6794,-444.5446 367.0847,-444.5964 369.4295,-451.192"/>
</g>
<!-- Node24 -->
<g id="node25" class="node">
<title>Node24</title>
<g id="a_node25"><a xlink:href="PrivateMotionForceVertorAssociations_8h.html" target="_top" xlink:title="iDynTree/Core/PrivateMotion\lForceVertorAssociations.h">
<polygon fill="none" stroke="#000000" points="165.5,-224.5 165.5,-254.5 320.5,-254.5 320.5,-224.5 165.5,-224.5"/>
<text text-anchor="start" x="173.5" y="-242.5" font-family="FreeSans.ttf" font-size="10.00" fill="#000000">iDynTree/Core/PrivateMotion</text>
<text text-anchor="middle" x="243" y="-231.5" font-family="FreeSans.ttf" font-size="10.00" fill="#000000">ForceVertorAssociations.h</text>
</a>
</g>
</g>
<!-- Node0&#45;&gt;Node24 -->
<g id="edge59" class="edge">
<title>Node0&#45;&gt;Node24</title>
<path fill="none" stroke="#191970" d="M209.318,-481.3393C190.7287,-474.4646 169.9848,-463.137 159,-445 136.9103,-408.5275 148.8243,-366.1776 192,-291 198.2041,-280.1974 207.2368,-270.0481 215.9826,-261.6623"/>
<polygon fill="#191970" stroke="#191970" points="218.4973,-264.1055 223.5161,-254.7748 213.774,-258.9392 218.4973,-264.1055"/>
</g>
<!-- Node25 -->
<g id="node26" class="node">
<title>Node25</title>
<g id="a_node26"><a xlink:href="AngularMotionVector3_8h.html" target="_top" xlink:title="iDynTree/Core/AngularMotion\lVector3.h">
<polygon fill="none" stroke="#000000" points="168,-414.5 168,-444.5 326,-444.5 326,-414.5 168,-414.5"/>
<text text-anchor="start" x="176" y="-432.5" font-family="FreeSans.ttf" font-size="10.00" fill="#000000">iDynTree/Core/AngularMotion</text>
<text text-anchor="middle" x="247" y="-421.5" font-family="FreeSans.ttf" font-size="10.00" fill="#000000">Vector3.h</text>
</a>
</g>
</g>
<!-- Node0&#45;&gt;Node25 -->
<g id="edge39" class="edge">
<title>Node0&#45;&gt;Node25</title>
<path fill="none" stroke="#191970" d="M247,-481.3906C247,-474.2234 247,-464.0862 247,-454.671"/>
<polygon fill="#191970" stroke="#191970" points="250.5001,-454.5446 247,-444.5446 243.5001,-454.5446 250.5001,-454.5446"/>
</g>
<!-- Node26 -->
<g id="node27" class="node">
<title>Node26</title>
<g id="a_node27"><a xlink:href="SpatialVector_8h.html" target="_top" xlink:title="iDynTree/Core/SpatialVector.h">
<polygon fill="none" stroke="#000000" points="661.5,-358.5 661.5,-377.5 822.5,-377.5 822.5,-358.5 661.5,-358.5"/>
<text text-anchor="middle" x="742" y="-365.5" font-family="FreeSans.ttf" font-size="10.00" fill="#000000">iDynTree/Core/SpatialVector.h</text>
</a>
</g>
</g>
<!-- Node0&#45;&gt;Node26 -->
<g id="edge42" class="edge">
<title>Node0&#45;&gt;Node26</title>
<path fill="none" stroke="#191970" d="M308.2482,-482.4327C360.63,-474.5367 437.8199,-461.547 504,-445 577.2033,-426.697 660.6739,-397.7687 706.7532,-381.0695"/>
<polygon fill="#191970" stroke="#191970" points="708.0765,-384.3125 716.2737,-377.6002 705.6798,-377.7356 708.0765,-384.3125"/>
</g>
<!-- Node2 -->
<g id="node3" class="node">
<title>Node2</title>
<g id="a_node3"><a xlink:href="Utils_8h.html" target="_top" xlink:title="iDynTree/Core/Utils.h">
<polygon fill="none" stroke="#000000" points="488.5,-56.5 488.5,-75.5 607.5,-75.5 607.5,-56.5 488.5,-56.5"/>
<text text-anchor="middle" x="548" y="-63.5" font-family="FreeSans.ttf" font-size="10.00" fill="#000000">iDynTree/Core/Utils.h</text>
</a>
</g>
</g>
<!-- Node1&#45;&gt;Node2 -->
<g id="edge2" class="edge">
<title>Node1&#45;&gt;Node2</title>
<path fill="none" stroke="#191970" d="M457.9864,-112.2455C475.1792,-103.4125 500.7238,-90.2887 520.2132,-80.2758"/>
<polygon fill="#191970" stroke="#191970" points="521.9359,-83.3257 529.2312,-75.6427 518.737,-77.0993 521.9359,-83.3257"/>
</g>
<!-- Node4 -->
<g id="node5" class="node">
<title>Node4</title>
<g id="a_node5"><a xlink:href="Span_8h.html" target="_top" xlink:title="iDynTree/Core/Span.h">
<polygon fill="none" stroke="#000000" points="236.5,-56.5 236.5,-75.5 357.5,-75.5 357.5,-56.5 236.5,-56.5"/>
<text text-anchor="middle" x="297" y="-63.5" font-family="FreeSans.ttf" font-size="10.00" fill="#000000">iDynTree/Core/Span.h</text>
</a>
</g>
</g>
<!-- Node1&#45;&gt;Node4 -->
<g id="edge4" class="edge">
<title>Node1&#45;&gt;Node4</title>
<path fill="none" stroke="#191970" d="M414.5893,-112.3733C391.3858,-103.2226 356.2962,-89.3844 330.4858,-79.2057"/>
<polygon fill="#191970" stroke="#191970" points="331.6789,-75.9139 321.0921,-75.5011 329.1108,-82.4258 331.6789,-75.9139"/>
</g>
<!-- Node5 -->
<g id="node6" class="node">
<title>Node5</title>
<polygon fill="none" stroke="#bfbfbf" points="581,-.5 581,-19.5 633,-19.5 633,-.5 581,-.5"/>
<text text-anchor="middle" x="607" y="-7.5" font-family="FreeSans.ttf" font-size="10.00" fill="#000000">cassert</text>
</g>
<!-- Node1&#45;&gt;Node5 -->
<g id="edge16" class="edge">
<title>Node1&#45;&gt;Node5</title>
<path fill="none" stroke="#191970" d="M427.4403,-112.324C412.6548,-98.7862 390.5871,-73.8509 405,-56 450.7412,.6523 494.5979,-35.2032 570.7287,-19.9686"/>
<polygon fill="#191970" stroke="#191970" points="571.6934,-23.3389 580.6768,-17.7222 570.1515,-16.5109 571.6934,-23.3389"/>
</g>
<!-- Node13 -->
<g id="node14" class="node">
<title>Node13</title>
<polygon fill="none" stroke="#bfbfbf" points="927,-56.5 927,-75.5 971,-75.5 971,-56.5 927,-56.5"/>
<text text-anchor="middle" x="949" y="-63.5" font-family="FreeSans.ttf" font-size="10.00" fill="#000000">string</text>
</g>
<!-- Node1&#45;&gt;Node13 -->
<g id="edge14" class="edge">
<title>Node1&#45;&gt;Node13</title>
<path fill="none" stroke="#191970" d="M519.5296,-113.1575C633.7333,-100.6175 837.6324,-78.2286 916.5561,-69.5625"/>
<polygon fill="#191970" stroke="#191970" points="917.2826,-73.0038 926.8408,-68.4332 916.5185,-66.0456 917.2826,-73.0038"/>
</g>
<!-- Node14 -->
<g id="node15" class="node">
<title>Node14</title>
<polygon fill="none" stroke="#bfbfbf" points="414,-56.5 414,-75.5 470,-75.5 470,-56.5 414,-56.5"/>
<text text-anchor="middle" x="442" y="-63.5" font-family="FreeSans.ttf" font-size="10.00" fill="#000000">sstream</text>
</g>
<!-- Node1&#45;&gt;Node14 -->
<g id="edge15" class="edge">
<title>Node1&#45;&gt;Node14</title>
<path fill="none" stroke="#191970" d="M439.5226,-112.2455C439.914,-104.9382 440.4628,-94.6944 440.9444,-85.7046"/>
<polygon fill="#191970" stroke="#191970" points="444.4434,-85.8156 441.4834,-75.6427 437.4534,-85.4411 444.4434,-85.8156"/>
</g>
<!-- Node15 -->
<g id="node16" class="node">
<title>Node15</title>
<polygon fill="none" stroke="#bfbfbf" points="626,-56.5 626,-75.5 676,-75.5 676,-56.5 626,-56.5"/>
<text text-anchor="middle" x="651" y="-63.5" font-family="FreeSans.ttf" font-size="10.00" fill="#000000">cstring</text>
</g>
<!-- Node1&#45;&gt;Node15 -->
<g id="edge17" class="edge">
<title>Node1&#45;&gt;Node15</title>
<path fill="none" stroke="#191970" d="M477.2922,-112.4945C511.2896,-103.9683 562.5562,-90.9002 615.8121,-76.2693"/>
<polygon fill="#191970" stroke="#191970" points="617.0669,-79.554 625.7756,-73.52 615.2049,-72.8062 617.0669,-79.554"/>
</g>
<!-- Node3 -->
<g id="node4" class="node">
<title>Node3</title>
<polygon fill="none" stroke="#bfbfbf" points="509.5,-.5 509.5,-19.5 562.5,-19.5 562.5,-.5 509.5,-.5"/>
<text text-anchor="middle" x="536" y="-7.5" font-family="FreeSans.ttf" font-size="10.00" fill="#000000">cstddef</text>
</g>
<!-- Node2&#45;&gt;Node3 -->
<g id="edge3" class="edge">
<title>Node2&#45;&gt;Node3</title>
<path fill="none" stroke="#191970" d="M545.9098,-56.2455C544.3439,-48.9382 542.1488,-38.6944 540.2224,-29.7046"/>
<polygon fill="#191970" stroke="#191970" points="543.584,-28.6873 538.0663,-19.6427 536.7393,-30.1541 543.584,-28.6873"/>
</g>
<!-- Node4&#45;&gt;Node3 -->
<g id="edge8" class="edge">
<title>Node4&#45;&gt;Node3</title>
<path fill="none" stroke="#191970" d="M341.8984,-56.4753C380.9569,-48.0438 439.3057,-35.0998 499.2743,-20.0949"/>
<polygon fill="#191970" stroke="#191970" points="500.4589,-23.4059 509.3016,-17.5701 498.7497,-16.6178 500.4589,-23.4059"/>
</g>
<!-- Node4&#45;&gt;Node5 -->
<g id="edge5" class="edge">
<title>Node4&#45;&gt;Node5</title>
<path fill="none" stroke="#191970" d="M357.7341,-57.8457C411.4164,-50.1843 491.9885,-37.5819 570.6308,-20.1221"/>
<polygon fill="#191970" stroke="#191970" points="571.7204,-23.4645 580.7085,-17.8552 570.1841,-16.6352 571.7204,-23.4645"/>
</g>
<!-- Node6 -->
<g id="node7" class="node">
<title>Node6</title>
<polygon fill="none" stroke="#bfbfbf" points="0,-.5 0,-19.5 64,-19.5 64,-.5 0,-.5"/>
<text text-anchor="middle" x="32" y="-7.5" font-family="FreeSans.ttf" font-size="10.00" fill="#000000">algorithm</text>
</g>
<!-- Node4&#45;&gt;Node6 -->
<g id="edge6" class="edge">
<title>Node4&#45;&gt;Node6</title>
<path fill="none" stroke="#191970" d="M247.9487,-56.4651C204.712,-47.9392 139.7658,-34.8392 74.2879,-20.2334"/>
<polygon fill="#191970" stroke="#191970" points="74.7262,-16.7448 64.2028,-17.9725 73.1949,-23.5753 74.7262,-16.7448"/>
</g>
<!-- Node7 -->
<g id="node8" class="node">
<title>Node7</title>
<polygon fill="none" stroke="#bfbfbf" points="82,-.5 82,-19.5 124,-19.5 124,-.5 82,-.5"/>
<text text-anchor="middle" x="103" y="-7.5" font-family="FreeSans.ttf" font-size="10.00" fill="#000000">array</text>
</g>
<!-- Node4&#45;&gt;Node7 -->
<g id="edge7" class="edge">
<title>Node4&#45;&gt;Node7</title>
<path fill="none" stroke="#191970" d="M261.023,-56.4456C229.7809,-48.0296 183.1114,-35.1741 134.0952,-20.2424"/>
<polygon fill="#191970" stroke="#191970" points="134.8512,-16.8135 124.2645,-17.2291 132.7997,-23.5061 134.8512,-16.8135"/>
</g>
<!-- Node8 -->
<g id="node9" class="node">
<title>Node8</title>
<polygon fill="none" stroke="#bfbfbf" points="142.5,-.5 142.5,-19.5 195.5,-19.5 195.5,-.5 142.5,-.5"/>
<text text-anchor="middle" x="169" y="-7.5" font-family="FreeSans.ttf" font-size="10.00" fill="#000000">iterator</text>
</g>
<!-- Node4&#45;&gt;Node8 -->
<g id="edge9" class="edge">
<title>Node4&#45;&gt;Node8</title>
<path fill="none" stroke="#191970" d="M274.996,-56.3733C254.3565,-47.3435 223.2842,-33.7494 200.1111,-23.6111"/>
<polygon fill="#191970" stroke="#191970" points="201.2813,-20.3028 190.7169,-19.5011 198.4755,-26.7159 201.2813,-20.3028"/>
</g>
<!-- Node9 -->
<g id="node10" class="node">
<title>Node9</title>
<polygon fill="none" stroke="#bfbfbf" points="214,-.5 214,-19.5 258,-19.5 258,-.5 214,-.5"/>
<text text-anchor="middle" x="236" y="-7.5" font-family="FreeSans.ttf" font-size="10.00" fill="#000000">limits</text>
</g>
<!-- Node4&#45;&gt;Node9 -->
<g id="edge10" class="edge">
<title>Node4&#45;&gt;Node9</title>
<path fill="none" stroke="#191970" d="M286.3746,-56.2455C277.4527,-48.0549 264.512,-36.1749 253.9808,-26.5069"/>
<polygon fill="#191970" stroke="#191970" points="256.2371,-23.8271 246.5036,-19.6427 251.5032,-28.9837 256.2371,-23.8271"/>
</g>
<!-- Node10 -->
<g id="node11" class="node">
<title>Node10</title>
<polygon fill="none" stroke="#bfbfbf" points="276.5,-.5 276.5,-19.5 341.5,-19.5 341.5,-.5 276.5,-.5"/>
<text text-anchor="middle" x="309" y="-7.5" font-family="FreeSans.ttf" font-size="10.00" fill="#000000">stdexcept</text>
</g>
<!-- Node4&#45;&gt;Node10 -->
<g id="edge11" class="edge">
<title>Node4&#45;&gt;Node10</title>
<path fill="none" stroke="#191970" d="M299.0902,-56.2455C300.6561,-48.9382 302.8512,-38.6944 304.7776,-29.7046"/>
<polygon fill="#191970" stroke="#191970" points="308.2607,-30.1541 306.9337,-19.6427 301.416,-28.6873 308.2607,-30.1541"/>
</g>
<!-- Node11 -->
<g id="node12" class="node">
<title>Node11</title>
<polygon fill="none" stroke="#bfbfbf" points="359.5,-.5 359.5,-19.5 428.5,-19.5 428.5,-.5 359.5,-.5"/>
<text text-anchor="middle" x="394" y="-7.5" font-family="FreeSans.ttf" font-size="10.00" fill="#000000">type_traits</text>
</g>
<!-- Node4&#45;&gt;Node11 -->
<g id="edge12" class="edge">
<title>Node4&#45;&gt;Node11</title>
<path fill="none" stroke="#191970" d="M313.8961,-56.2455C328.918,-47.5731 351.1043,-34.7645 368.321,-24.825"/>
<polygon fill="#191970" stroke="#191970" points="370.3871,-27.6737 377.2975,-19.6427 366.8872,-21.6114 370.3871,-27.6737"/>
</g>
<!-- Node12 -->
<g id="node13" class="node">
<title>Node12</title>
<polygon fill="none" stroke="#bfbfbf" points="446.5,-.5 446.5,-19.5 491.5,-19.5 491.5,-.5 446.5,-.5"/>
<text text-anchor="middle" x="469" y="-7.5" font-family="FreeSans.ttf" font-size="10.00" fill="#000000">utility</text>
</g>
<!-- Node4&#45;&gt;Node12 -->
<g id="edge13" class="edge">
<title>Node4&#45;&gt;Node12</title>
<path fill="none" stroke="#191970" d="M326.5679,-56.3733C357.2489,-46.3841 405.0864,-30.8091 436.7309,-20.5062"/>
<polygon fill="#191970" stroke="#191970" points="437.9687,-23.7841 446.3938,-17.3601 435.8016,-17.128 437.9687,-23.7841"/>
</g>
<!-- Node17 -->
<g id="node18" class="node">
<title>Node17</title>
<g id="a_node18"><a xlink:href="MotionVector3_8h.html" target="_top" xlink:title="iDynTree/Core/MotionVector3.h">
<polygon fill="none" stroke="#000000" points="205.5,-358.5 205.5,-377.5 372.5,-377.5 372.5,-358.5 205.5,-358.5"/>
<text text-anchor="middle" x="289" y="-365.5" font-family="FreeSans.ttf" font-size="10.00" fill="#000000">iDynTree/Core/MotionVector3.h</text>
</a>
</g>
</g>
<!-- Node16&#45;&gt;Node17 -->
<g id="edge19" class="edge">
<title>Node16&#45;&gt;Node17</title>
<path fill="none" stroke="#191970" d="M387.9538,-414.4554C366.7672,-404.509 339.1972,-391.5659 318.5412,-381.8686"/>
<polygon fill="#191970" stroke="#191970" points="319.8399,-378.6118 309.3004,-377.5303 316.8651,-384.9483 319.8399,-378.6118"/>
</g>
<!-- Node16&#45;&gt;Node24 -->
<g id="edge38" class="edge">
<title>Node16&#45;&gt;Node24</title>
<path fill="none" stroke="#191970" d="M415.511,-414.4843C409.9384,-398.3272 398.9158,-372.9445 381,-358 341.8225,-325.3199 308.417,-357.7305 272,-322 256.5091,-306.801 249.2759,-282.8531 245.9085,-264.6656"/>
<polygon fill="#191970" stroke="#191970" points="249.3569,-264.0638 244.3393,-254.7324 242.4427,-265.1561 249.3569,-264.0638"/>
</g>
<!-- Node18 -->
<g id="node19" class="node">
<title>Node18</title>
<g id="a_node19"><a xlink:href="GeomVector3_8h.html" target="_top" xlink:title="iDynTree/Core/GeomVector3.h">
<polygon fill="none" stroke="#000000" points="320.5,-297 320.5,-316 483.5,-316 483.5,-297 320.5,-297"/>
<text text-anchor="middle" x="402" y="-304" font-family="FreeSans.ttf" font-size="10.00" fill="#000000">iDynTree/Core/GeomVector3.h</text>
</a>
</g>
</g>
<!-- Node17&#45;&gt;Node18 -->
<g id="edge20" class="edge">
<title>Node17&#45;&gt;Node18</title>
<path fill="none" stroke="#191970" d="M306.6563,-358.3906C325.1486,-348.3262 354.401,-332.4057 375.6308,-320.8514"/>
<polygon fill="#191970" stroke="#191970" points="377.3575,-323.8965 384.4677,-316.0419 374.0112,-317.7481 377.3575,-323.8965"/>
</g>
<!-- Node17&#45;&gt;Node24 -->
<g id="edge37" class="edge">
<title>Node17&#45;&gt;Node24</title>
<path fill="none" stroke="#191970" d="M273.382,-358.4791C261.7528,-350.3972 246.7668,-337.6339 240,-322 232.2009,-303.9812 233.6079,-281.6224 236.6015,-264.7283"/>
<polygon fill="#191970" stroke="#191970" points="240.1156,-265.0183 238.717,-254.5162 233.2612,-263.5983 240.1156,-265.0183"/>
</g>
<!-- Node18&#45;&gt;Node1 -->
<g id="edge21" class="edge">
<title>Node18&#45;&gt;Node1</title>
<path fill="none" stroke="#191970" d="M403.9372,-296.8402C409.769,-267.76 427.241,-180.636 435.0977,-141.459"/>
<polygon fill="#191970" stroke="#191970" points="438.5473,-142.0571 437.082,-131.5641 431.684,-140.6807 438.5473,-142.0571"/>
</g>
<!-- Node19 -->
<g id="node20" class="node">
<title>Node19</title>
<g id="a_node20"><a xlink:href="Rotation_8h.html" target="_top" xlink:title="iDynTree/Core/Rotation.h">
<polygon fill="none" stroke="#000000" points="749.5,-230 749.5,-249 886.5,-249 886.5,-230 749.5,-230"/>
<text text-anchor="middle" x="818" y="-237" font-family="FreeSans.ttf" font-size="10.00" fill="#000000">iDynTree/Core/Rotation.h</text>
</a>
</g>
</g>
<!-- Node18&#45;&gt;Node19 -->
<g id="edge22" class="edge">
<title>Node18&#45;&gt;Node19</title>
<path fill="none" stroke="#191970" d="M461.1609,-296.9717C536.9894,-284.7589 668.2395,-263.6201 748.6735,-250.6656"/>
<polygon fill="#191970" stroke="#191970" points="749.3906,-254.0953 758.7068,-249.0496 748.2775,-247.1843 749.3906,-254.0953"/>
</g>
<!-- Node18&#45;&gt;Node24 -->
<g id="edge36" class="edge">
<title>Node18&#45;&gt;Node24</title>
<path fill="none" stroke="#191970" d="M379.2192,-296.9005C355.5093,-286.9096 317.7551,-271.0006 288.0003,-258.4624"/>
<polygon fill="#191970" stroke="#191970" points="289.2231,-255.1796 278.6487,-254.5218 286.5048,-261.6303 289.2231,-255.1796"/>
</g>
<!-- Node19&#45;&gt;Node1 -->
<g id="edge35" class="edge">
<title>Node19&#45;&gt;Node1</title>
<path fill="none" stroke="#191970" d="M783.9696,-229.9551C748.2595,-219.8557 690.5381,-203.2952 641,-188 583.6414,-170.2902 517.5931,-148.4304 477.0726,-134.8503"/>
<polygon fill="#191970" stroke="#191970" points="477.9356,-131.4482 467.3417,-131.5837 475.7079,-138.0842 477.9356,-131.4482"/>
</g>
<!-- Node19&#45;&gt;Node13 -->
<g id="edge23" class="edge">
<title>Node19&#45;&gt;Node13</title>
<path fill="none" stroke="#191970" d="M825.7921,-229.8651C838.4478,-214.7765 864.8985,-185.4924 893,-168 932.393,-143.479 964.4419,-170.0494 991,-132 1002.6506,-115.3084 986.264,-95.5394 970.6757,-82.0174"/>
<polygon fill="#191970" stroke="#191970" points="972.7143,-79.1639 962.7494,-75.5651 968.2951,-84.5926 972.7143,-79.1639"/>
</g>
<!-- Node20 -->
<g id="node21" class="node">
<title>Node20</title>
<g id="a_node21"><a xlink:href="RotationRaw_8h.html" target="_top" xlink:title="iDynTree/Core/RotationRaw.h">
<polygon fill="none" stroke="#000000" points="650,-168.5 650,-187.5 808,-187.5 808,-168.5 650,-168.5"/>
<text text-anchor="middle" x="729" y="-175.5" font-family="FreeSans.ttf" font-size="10.00" fill="#000000">iDynTree/Core/RotationRaw.h</text>
</a>
</g>
</g>
<!-- Node19&#45;&gt;Node20 -->
<g id="edge24" class="edge">
<title>Node19&#45;&gt;Node20</title>
<path fill="none" stroke="#191970" d="M804.0938,-229.8906C789.9862,-220.1421 767.9276,-204.8994 751.3615,-193.4521"/>
<polygon fill="#191970" stroke="#191970" points="753.0253,-190.3474 742.8086,-187.5419 749.0458,-196.1063 753.0253,-190.3474"/>
</g>
<!-- Node23 -->
<g id="node24" class="node">
<title>Node23</title>
<g id="a_node24"><a xlink:href="RotationSemantics_8h.html" target="_top" xlink:title="iDynTree/Core/RotationSemantics.h">
<polygon fill="none" stroke="#000000" points="794,-112.5 794,-131.5 982,-131.5 982,-112.5 794,-112.5"/>
<text text-anchor="middle" x="888" y="-119.5" font-family="FreeSans.ttf" font-size="10.00" fill="#000000">iDynTree/Core/RotationSemantics.h</text>
</a>
</g>
</g>
<!-- Node19&#45;&gt;Node23 -->
<g id="edge33" class="edge">
<title>Node19&#45;&gt;Node23</title>
<path fill="none" stroke="#191970" d="M823.6583,-229.757C831.6802,-215.9694 846.848,-189.9931 860,-168 865.4386,-158.9053 871.5501,-148.8467 876.6725,-140.4606"/>
<polygon fill="#191970" stroke="#191970" points="879.7115,-142.1998 881.947,-131.8435 873.7412,-138.5453 879.7115,-142.1998"/>
</g>
<!-- Node20&#45;&gt;Node13 -->
<g id="edge32" class="edge">
<title>Node20&#45;&gt;Node13</title>
<path fill="none" stroke="#191970" d="M734.5618,-168.3453C743.3869,-153.8951 761.9793,-126.766 785,-112 825.9414,-85.7393 881.9755,-74.2344 916.8059,-69.3647"/>
<polygon fill="#191970" stroke="#191970" points="917.4272,-72.8136 926.8945,-68.0575 916.5276,-65.8716 917.4272,-72.8136"/>
</g>
<!-- Node21 -->
<g id="node22" class="node">
<title>Node21</title>
<g id="a_node22"><a xlink:href="MatrixFixSize_8h.html" target="_top" xlink:title="iDynTree/Core/MatrixFixSize.h">
<polygon fill="none" stroke="#000000" points="576.5,-112.5 576.5,-131.5 737.5,-131.5 737.5,-112.5 576.5,-112.5"/>
<text text-anchor="middle" x="657" y="-119.5" font-family="FreeSans.ttf" font-size="10.00" fill="#000000">iDynTree/Core/MatrixFixSize.h</text>
</a>
</g>
</g>
<!-- Node20&#45;&gt;Node21 -->
<g id="edge25" class="edge">
<title>Node20&#45;&gt;Node21</title>
<path fill="none" stroke="#191970" d="M716.4586,-168.2455C705.7213,-159.8943 690.0527,-147.7076 677.4953,-137.9408"/>
<polygon fill="#191970" stroke="#191970" points="679.4401,-135.0194 669.3977,-131.6427 675.1425,-140.5449 679.4401,-135.0194"/>
</g>
<!-- Node21&#45;&gt;Node2 -->
<g id="edge26" class="edge">
<title>Node21&#45;&gt;Node2</title>
<path fill="none" stroke="#191970" d="M638.0136,-112.2455C620.8208,-103.4125 595.2762,-90.2887 575.7868,-80.2758"/>
<polygon fill="#191970" stroke="#191970" points="577.263,-77.0993 566.7688,-75.6427 574.0641,-83.3257 577.263,-77.0993"/>
</g>
<!-- Node21&#45;&gt;Node5 -->
<g id="edge27" class="edge">
<title>Node21&#45;&gt;Node5</title>
<path fill="none" stroke="#191970" d="M666.6774,-112.2652C678.5565,-99.084 695.8654,-75.022 685,-56 675.8306,-39.9471 658.6269,-28.9359 642.7048,-21.7218"/>
<polygon fill="#191970" stroke="#191970" points="643.6177,-18.3112 633.0399,-17.7095 640.9337,-24.7763 643.6177,-18.3112"/>
</g>
<!-- Node21&#45;&gt;Node13 -->
<g id="edge29" class="edge">
<title>Node21&#45;&gt;Node13</title>
<path fill="none" stroke="#191970" d="M706.8648,-112.4369C766.933,-100.917 866.0837,-81.9018 916.8571,-72.1644"/>
<polygon fill="#191970" stroke="#191970" points="917.764,-75.5543 926.9258,-70.2334 916.4456,-68.6796 917.764,-75.5543"/>
</g>
<!-- Node21&#45;&gt;Node14 -->
<g id="edge31" class="edge">
<title>Node21&#45;&gt;Node14</title>
<path fill="none" stroke="#191970" d="M619.4646,-112.4284C585.4608,-103.7286 533.7239,-90.4211 479.9733,-76.2391"/>
<polygon fill="#191970" stroke="#191970" points="480.8355,-72.8469 470.2731,-73.6759 479.0471,-79.6146 480.8355,-72.8469"/>
</g>
<!-- Node21&#45;&gt;Node15 -->
<g id="edge28" class="edge">
<title>Node21&#45;&gt;Node15</title>
<path fill="none" stroke="#191970" d="M655.9549,-112.2455C655.172,-104.9382 654.0744,-94.6944 653.1112,-85.7046"/>
<polygon fill="#191970" stroke="#191970" points="656.5786,-85.2129 652.0331,-75.6427 649.6185,-85.9587 656.5786,-85.2129"/>
</g>
<!-- Node22 -->
<g id="node23" class="node">
<title>Node22</title>
<polygon fill="none" stroke="#bfbfbf" points="1174,-56.5 1174,-75.5 1234,-75.5 1234,-56.5 1174,-56.5"/>
<text text-anchor="middle" x="1204" y="-63.5" font-family="FreeSans.ttf" font-size="10.00" fill="#000000">iostream</text>
</g>
<!-- Node21&#45;&gt;Node22 -->
<g id="edge30" class="edge">
<title>Node21&#45;&gt;Node22</title>
<path fill="none" stroke="#191970" d="M737.7117,-113.737C856.4881,-101.5771 1073.9649,-79.3125 1163.6703,-70.1288"/>
<polygon fill="#191970" stroke="#191970" points="1164.1191,-73.6013 1173.7107,-69.1009 1163.4062,-66.6377 1164.1191,-73.6013"/>
</g>
<!-- Node23&#45;&gt;Node13 -->
<g id="edge34" class="edge">
<title>Node23&#45;&gt;Node13</title>
<path fill="none" stroke="#191970" d="M898.6254,-112.2455C907.5473,-104.0549 920.488,-92.1749 931.0192,-82.5069"/>
<polygon fill="#191970" stroke="#191970" points="933.4968,-84.9837 938.4964,-75.6427 928.7629,-79.8271 933.4968,-84.9837"/>
</g>
<!-- Node25&#45;&gt;Node17 -->
<g id="edge40" class="edge">
<title>Node25&#45;&gt;Node17</title>
<path fill="none" stroke="#191970" d="M257.382,-414.2977C263.1513,-405.8498 270.3716,-395.2773 276.4553,-386.369"/>
<polygon fill="#191970" stroke="#191970" points="279.5259,-388.0788 282.2753,-377.8469 273.7453,-384.1311 279.5259,-388.0788"/>
</g>
<!-- Node25&#45;&gt;Node24 -->
<g id="edge41" class="edge">
<title>Node25&#45;&gt;Node24</title>
<path fill="none" stroke="#191970" d="M225.5686,-414.4899C214.4806,-405.3676 202.0316,-392.6627 196,-378 179.7002,-338.3757 205.3074,-290.8145 224.6585,-262.9944"/>
<polygon fill="#191970" stroke="#191970" points="227.6391,-264.8455 230.6605,-254.6906 221.9658,-260.7449 227.6391,-264.8455"/>
</g>
<!-- Node26&#45;&gt;Node2 -->
<g id="edge53" class="edge">
<title>Node26&#45;&gt;Node2</title>
<path fill="none" stroke="#191970" d="M747.3187,-358.2895C754.814,-343.2107 766.4644,-313.5554 756,-291 709.945,-191.7315 628.109,-223.4451 568,-132 558.7631,-117.9477 553.6415,-99.4481 550.9,-85.6111"/>
<polygon fill="#191970" stroke="#191970" points="554.3363,-84.9423 549.1784,-75.6877 547.4393,-86.1388 554.3363,-84.9423"/>
</g>
<!-- Node26&#45;&gt;Node14 -->
<g id="edge58" class="edge">
<title>Node26&#45;&gt;Node14</title>
<path fill="none" stroke="#191970" d="M742.0234,-358.4258C741.5835,-342.7381 738.6408,-311.2795 723,-291 612.6917,-147.9767 452.432,-280.0724 349,-132 331.0706,-106.3325 370.7812,-87.191 403.7609,-76.3075"/>
<polygon fill="#191970" stroke="#191970" points="405.209,-79.5219 413.7087,-73.1969 403.1198,-72.8409 405.209,-79.5219"/>
</g>
<!-- Node26&#45;&gt;Node19 -->
<g id="edge51" class="edge">
<title>Node26&#45;&gt;Node19</title>
<path fill="none" stroke="#191970" d="M756.8576,-358.3921C768.5636,-350.0882 784.4516,-337.0681 794,-322 806.2479,-302.672 812.4349,-276.885 815.4269,-259.3196"/>
<polygon fill="#191970" stroke="#191970" points="818.9355,-259.5239 816.9633,-249.1143 812.0135,-258.4818 818.9355,-259.5239"/>
</g>
<!-- Node26&#45;&gt;Node22 -->
<g id="edge57" class="edge">
<title>Node26&#45;&gt;Node22</title>
<path fill="none" stroke="#191970" d="M822.5586,-358.6563C983.1819,-338.9315 1328,-290.6328 1328,-239.5 1328,-239.5 1328,-239.5 1328,-178 1328,-129.6674 1275.4768,-96.8067 1238.7974,-79.7513"/>
<polygon fill="#191970" stroke="#191970" points="1239.9511,-76.4336 1229.3925,-75.5579 1237.1004,-82.8269 1239.9511,-76.4336"/>
</g>
<!-- Node26&#45;&gt;Node24 -->
<g id="edge52" class="edge">
<title>Node26&#45;&gt;Node24</title>
<path fill="none" stroke="#191970" d="M661.408,-366.5944C553.7464,-363.5029 369.7217,-353.6152 311,-322 286.562,-308.8428 267.4725,-282.9086 255.8211,-263.6127"/>
<polygon fill="#191970" stroke="#191970" points="258.7398,-261.668 250.708,-254.7585 252.678,-265.1686 258.7398,-261.668"/>
</g>
<!-- Node27 -->
<g id="node28" class="node">
<title>Node27</title>
<g id="a_node28"><a xlink:href="Position_8h.html" target="_top" xlink:title="Position.h">
<polygon fill="none" stroke="#000000" points="947.5,-297 947.5,-316 1012.5,-316 1012.5,-297 947.5,-297"/>
<text text-anchor="middle" x="980" y="-304" font-family="FreeSans.ttf" font-size="10.00" fill="#000000">Position.h</text>
</a>
</g>
</g>
<!-- Node26&#45;&gt;Node27 -->
<g id="edge43" class="edge">
<title>Node26&#45;&gt;Node27</title>
<path fill="none" stroke="#191970" d="M778.9264,-358.4581C821.7755,-347.3858 892.3052,-329.1606 937.4258,-317.5013"/>
<polygon fill="#191970" stroke="#191970" points="938.3979,-320.8652 947.2043,-314.9745 936.6466,-314.0878 938.3979,-320.8652"/>
</g>
<!-- Node30 -->
<g id="node31" class="node">
<title>Node30</title>
<g id="a_node31"><a xlink:href="PrivatePreProcessorUtils_8h.html" target="_top" xlink:title="iDynTree/Core/PrivatePre\lProcessorUtils.h">
<polygon fill="none" stroke="#000000" points="453,-224.5 453,-254.5 591,-254.5 591,-224.5 453,-224.5"/>
<text text-anchor="start" x="461" y="-242.5" font-family="FreeSans.ttf" font-size="10.00" fill="#000000">iDynTree/Core/PrivatePre</text>
<text text-anchor="middle" x="522" y="-231.5" font-family="FreeSans.ttf" font-size="10.00" fill="#000000">ProcessorUtils.h</text>
</a>
</g>
</g>
<!-- Node26&#45;&gt;Node30 -->
<g id="edge54" class="edge">
<title>Node26&#45;&gt;Node30</title>
<path fill="none" stroke="#191970" d="M661.2639,-360.1356C609.3505,-353.3145 548.4547,-341.4102 531,-322 517.2931,-306.7574 516.042,-282.9749 517.6355,-264.8531"/>
<polygon fill="#191970" stroke="#191970" points="521.1389,-265.0357 518.8692,-254.6869 514.1899,-264.1923 521.1389,-265.0357"/>
</g>
<!-- Node31 -->
<g id="node32" class="node">
<title>Node31</title>
<g id="a_node32"><a xlink:href="PrivateSemanticsMacros_8h.html" target="_top" xlink:title="iDynTree/Core/PrivateSemantics\lMacros.h">
<polygon fill="none" stroke="#000000" points="540.5,-291.5 540.5,-321.5 713.5,-321.5 713.5,-291.5 540.5,-291.5"/>
<text text-anchor="start" x="548.5" y="-309.5" font-family="FreeSans.ttf" font-size="10.00" fill="#000000">iDynTree/Core/PrivateSemantics</text>
<text text-anchor="middle" x="627" y="-298.5" font-family="FreeSans.ttf" font-size="10.00" fill="#000000">Macros.h</text>
</a>
</g>
</g>
<!-- Node26&#45;&gt;Node31 -->
<g id="edge55" class="edge">
<title>Node26&#45;&gt;Node31</title>
<path fill="none" stroke="#191970" d="M724.0313,-358.3906C708.0351,-349.8361 684.1277,-337.0509 664.047,-326.3121"/>
<polygon fill="#191970" stroke="#191970" points="665.601,-323.1741 655.1322,-321.5446 662.2998,-329.3469 665.601,-323.1741"/>
</g>
<!-- Node27&#45;&gt;Node13 -->
<g id="edge50" class="edge">
<title>Node27&#45;&gt;Node13</title>
<path fill="none" stroke="#191970" d="M993.3629,-296.8198C1020.8093,-275.646 1079.9174,-222.7191 1067,-168 1060.6068,-140.9178 1058.5891,-131.7633 1039,-112 1022.695,-95.5501 999.2781,-83.8346 980.4176,-76.3445"/>
<polygon fill="#191970" stroke="#191970" points="981.6238,-73.0588 971.0318,-72.8101 979.1568,-79.6097 981.6238,-73.0588"/>
</g>
<!-- Node27&#45;&gt;Node19 -->
<g id="edge49" class="edge">
<title>Node27&#45;&gt;Node19</title>
<path fill="none" stroke="#191970" d="M956.7893,-296.9005C929.0006,-285.4077 882.2772,-266.0838 850.8062,-253.068"/>
<polygon fill="#191970" stroke="#191970" points="851.7461,-249.6693 841.1676,-249.0817 849.0708,-256.1379 851.7461,-249.6693"/>
</g>
<!-- Node28 -->
<g id="node29" class="node">
<title>Node28</title>
<g id="a_node29"><a xlink:href="PositionRaw_8h.html" target="_top" xlink:title="iDynTree/Core/PositionRaw.h">
<polygon fill="none" stroke="#000000" points="902,-168.5 902,-187.5 1058,-187.5 1058,-168.5 902,-168.5"/>
<text text-anchor="middle" x="980" y="-175.5" font-family="FreeSans.ttf" font-size="10.00" fill="#000000">iDynTree/Core/PositionRaw.h</text>
</a>
</g>
</g>
<!-- Node27&#45;&gt;Node28 -->
<g id="edge44" class="edge">
<title>Node27&#45;&gt;Node28</title>
<path fill="none" stroke="#191970" d="M980,-296.8416C980,-275.9114 980,-226.004 980,-197.9762"/>
<polygon fill="#191970" stroke="#191970" points="983.5001,-197.7704 980,-187.7705 976.5001,-197.7705 983.5001,-197.7704"/>
</g>
<!-- Node29 -->
<g id="node30" class="node">
<title>Node29</title>
<g id="a_node30"><a xlink:href="PositionSemantics_8h.html" target="_top" xlink:title="iDynTree/Core/PositionSemantics.h">
<polygon fill="none" stroke="#000000" points="1113.5,-168.5 1113.5,-187.5 1300.5,-187.5 1300.5,-168.5 1113.5,-168.5"/>
<text text-anchor="middle" x="1207" y="-175.5" font-family="FreeSans.ttf" font-size="10.00" fill="#000000">iDynTree/Core/PositionSemantics.h</text>
</a>
</g>
</g>
<!-- Node27&#45;&gt;Node29 -->
<g id="edge47" class="edge">
<title>Node27&#45;&gt;Node29</title>
<path fill="none" stroke="#191970" d="M1007.0131,-296.8527C1031.8722,-287.5263 1069.4109,-272.2949 1100,-255 1132.2496,-236.7662 1166.497,-210.8046 1187.3212,-194.1785"/>
<polygon fill="#191970" stroke="#191970" points="1189.7961,-196.6789 1195.3791,-187.6744 1185.3994,-191.2319 1189.7961,-196.6789"/>
</g>
<!-- Node28&#45;&gt;Node1 -->
<g id="edge45" class="edge">
<title>Node28&#45;&gt;Node1</title>
<path fill="none" stroke="#191970" d="M901.9117,-169.9169C803.3629,-159.7159 634.1694,-142.2024 529.9091,-131.4102"/>
<polygon fill="#191970" stroke="#191970" points="530.0218,-127.9032 519.7146,-130.3549 529.301,-134.866 530.0218,-127.9032"/>
</g>
<!-- Node28&#45;&gt;Node13 -->
<g id="edge46" class="edge">
<title>Node28&#45;&gt;Node13</title>
<path fill="none" stroke="#191970" d="M994.2537,-168.459C1011.1711,-155.8851 1035.7042,-132.9089 1024,-112 1014.732,-95.4433 996.7997,-84.1236 980.7935,-76.8569"/>
<polygon fill="#191970" stroke="#191970" points="981.7478,-73.4628 971.1709,-72.8454 979.0543,-79.9238 981.7478,-73.4628"/>
</g>
<!-- Node29&#45;&gt;Node13 -->
<g id="edge48" class="edge">
<title>Node29&#45;&gt;Node13</title>
<path fill="none" stroke="#191970" d="M1193.775,-168.2786C1174.1583,-154.2304 1135.8048,-128.1702 1100,-112 1060.507,-94.1642 1012.1917,-80.8118 981.0203,-73.209"/>
<polygon fill="#191970" stroke="#191970" points="981.6831,-69.769 971.1438,-70.8529 980.0587,-76.5779 981.6831,-69.769"/>
</g>
<!-- Node31&#45;&gt;Node30 -->
<g id="edge56" class="edge">
<title>Node31&#45;&gt;Node30</title>
<path fill="none" stroke="#191970" d="M603.436,-291.4639C588.9473,-282.2188 570.1828,-270.2452 554.3183,-260.1222"/>
<polygon fill="#191970" stroke="#191970" points="556.1614,-257.1464 545.8487,-254.7177 552.396,-263.0474 556.1614,-257.1464"/>
</g>
</g>
</svg>
