<?xml version="1.0" encoding="UTF-8" standalone="no"?>
<!DOCTYPE svg PUBLIC "-//W3C//DTD SVG 1.1//EN"
 "http://www.w3.org/Graphics/SVG/1.1/DTD/svg11.dtd">
<!-- Generated by graphviz version 2.40.1 (20161225.0304)
 -->
<!-- Title: SpatialForceVector.h Pages: 1 -->
<svg width="5607pt" height="207pt"
 viewBox="0.00 0.00 5607.05 207.00" xmlns="http://www.w3.org/2000/svg" xmlns:xlink="http://www.w3.org/1999/xlink">
<g id="graph0" class="graph" transform="scale(1 1) rotate(0) translate(4 203)">
<title>SpatialForceVector.h</title>
<!-- Node32 -->
<g id="node1" class="node">
<title>Node32</title>
<polygon fill="#bfbfbf" stroke="#000000" points="2901.849,-179.5 2901.849,-198.5 3017.849,-198.5 3017.849,-179.5 2901.849,-179.5"/>
<text text-anchor="middle" x="2959.849" y="-186.5" font-family="FreeSans.ttf" font-size="10.00" fill="#000000">SpatialForceVector.h</text>
</g>
<!-- Node33 -->
<g id="node2" class="node">
<title>Node33</title>
<g id="a_node2"><a xlink:href="EigenHelpers_8h.html" target="_top" xlink:title="EigenHelpers.h">
<polygon fill="none" stroke="#ff0000" points="2914.849,-123.5 2914.849,-142.5 3004.849,-142.5 3004.849,-123.5 2914.849,-123.5"/>
<text text-anchor="middle" x="2959.849" y="-130.5" font-family="FreeSans.ttf" font-size="10.00" fill="#000000">EigenHelpers.h</text>
</a>
</g>
</g>
<!-- Node32&#45;&gt;Node33 -->
<g id="edge1" class="edge">
<title>Node32&#45;&gt;Node33</title>
<path fill="none" stroke="#191970" d="M2959.849,-169.1575C2959.849,-160.155 2959.849,-149.9199 2959.849,-142.6427"/>
<polygon fill="#191970" stroke="#191970" points="2956.3491,-169.2455 2959.849,-179.2455 2963.3491,-169.2456 2956.3491,-169.2455"/>
</g>
<!-- Node36 -->
<g id="node4" class="node">
<title>Node36</title>
<g id="a_node4"><a xlink:href="SpatialInertiaRaw_8cpp.html" target="_top" xlink:title="SpatialInertiaRaw.cpp">
<polygon fill="none" stroke="#000000" points="710.849,-.5 710.849,-19.5 832.849,-19.5 832.849,-.5 710.849,-.5"/>
<text text-anchor="middle" x="771.849" y="-7.5" font-family="FreeSans.ttf" font-size="10.00" fill="#000000">SpatialInertiaRaw.cpp</text>
</a>
</g>
</g>
<!-- Node32&#45;&gt;Node36 -->
<g id="edge58" class="edge">
<title>Node32&#45;&gt;Node36</title>
<path fill="none" stroke="#191970" d="M2891.7273,-188.5996C2499.9914,-186.1951 542.4092,-172.7621 275.849,-143 154.4844,-129.4493 83.8996,-181.7428 6.849,-87 -1.8441,-76.3109 -2.5965,-66.0305 6.849,-56 30.8784,-30.4822 533.8054,-15.8036 710.8472,-11.4117"/>
<polygon fill="#191970" stroke="#191970" points="2891.755,-192.0998 2901.7762,-188.661 2891.7978,-185.0999 2891.755,-192.0998"/>
</g>
<!-- Node38 -->
<g id="node5" class="node">
<title>Node38</title>
<g id="a_node5"><a xlink:href="SpatialMotionVector_8cpp.html" target="_top" xlink:title="SpatialMotionVector.cpp">
<polygon fill="none" stroke="#000000" points="4621.849,-.5 4621.849,-19.5 4755.849,-19.5 4755.849,-.5 4621.849,-.5"/>
<text text-anchor="middle" x="4688.849" y="-7.5" font-family="FreeSans.ttf" font-size="10.00" fill="#000000">SpatialMotionVector.cpp</text>
</a>
</g>
</g>
<!-- Node32&#45;&gt;Node38 -->
<g id="edge59" class="edge">
<title>Node32&#45;&gt;Node38</title>
<path fill="none" stroke="#191970" d="M2979.5334,-172.7121C3001.5556,-154.8911 3036.1908,-128.1583 3051.849,-123 3118.8685,-100.9214 5542.3085,-137.2476 5591.849,-87 5601.522,-77.1888 5601.3403,-65.9871 5591.849,-56 5563.142,-25.7934 4960.603,-14.0469 4756.0791,-10.9206"/>
<polygon fill="#191970" stroke="#191970" points="2977.0375,-170.2314 2971.5042,-179.2666 2981.4641,-175.6541 2977.0375,-170.2314"/>
</g>
<!-- Node47 -->
<g id="node11" class="node">
<title>Node47</title>
<g id="a_node11"><a xlink:href="SpatialForceVector_8cpp.html" target="_top" xlink:title="SpatialForceVector.cpp">
<polygon fill="none" stroke="#000000" points="1029.349,-62 1029.349,-81 1156.349,-81 1156.349,-62 1029.349,-62"/>
<text text-anchor="middle" x="1092.849" y="-69" font-family="FreeSans.ttf" font-size="10.00" fill="#000000">SpatialForceVector.cpp</text>
</a>
</g>
</g>
<!-- Node32&#45;&gt;Node47 -->
<g id="edge57" class="edge">
<title>Node32&#45;&gt;Node47</title>
<path fill="none" stroke="#191970" d="M2891.5078,-186.5113C2606.1937,-175.906 1509.0775,-132.9234 1165.849,-87 1154.9335,-85.5395 1143.2187,-83.3401 1132.4388,-81.0535"/>
<polygon fill="#191970" stroke="#191970" points="2891.5877,-190.0166 2901.7106,-186.8896 2891.8472,-183.0214 2891.5877,-190.0166"/>
</g>
<!-- Node92 -->
<g id="node44" class="node">
<title>Node92</title>
<g id="a_node44"><a xlink:href="SpatialMomentum_8h.html" target="_top" xlink:title="SpatialMomentum.h">
<polygon fill="none" stroke="#ff0000" points="440.349,-123.5 440.349,-142.5 555.349,-142.5 555.349,-123.5 440.349,-123.5"/>
<text text-anchor="middle" x="497.849" y="-130.5" font-family="FreeSans.ttf" font-size="10.00" fill="#000000">SpatialMomentum.h</text>
</a>
</g>
</g>
<!-- Node32&#45;&gt;Node92 -->
<g id="edge44" class="edge">
<title>Node32&#45;&gt;Node92</title>
<path fill="none" stroke="#191970" d="M2891.3171,-188.1096C2618.9088,-184.4587 1586.3304,-169.5577 736.849,-143 675.0004,-141.0664 604.1837,-137.996 555.7902,-135.7672"/>
<polygon fill="#191970" stroke="#191970" points="2891.4005,-191.6109 2901.4463,-188.2449 2891.494,-184.6116 2891.4005,-191.6109"/>
</g>
<!-- Node176 -->
<g id="node45" class="node">
<title>Node176</title>
<g id="a_node45"><a xlink:href="Wrench_8h.html" target="_top" xlink:title="Wrench.h">
<polygon fill="none" stroke="#ff0000" points="745.849,-123.5 745.849,-142.5 807.849,-142.5 807.849,-123.5 745.849,-123.5"/>
<text text-anchor="middle" x="776.849" y="-130.5" font-family="FreeSans.ttf" font-size="10.00" fill="#000000">Wrench.h</text>
</a>
</g>
</g>
<!-- Node32&#45;&gt;Node176 -->
<g id="edge50" class="edge">
<title>Node32&#45;&gt;Node176</title>
<path fill="none" stroke="#191970" d="M2891.5337,-187.2475C2550.9605,-178.5109 1043.5447,-139.8415 807.8819,-133.7961"/>
<polygon fill="#191970" stroke="#191970" points="2891.654,-190.7517 2901.7405,-187.5094 2891.8335,-183.754 2891.654,-190.7517"/>
</g>
<!-- Node205 -->
<g id="node46" class="node">
<title>Node205</title>
<g id="a_node46"><a xlink:href="PositionRaw_8cpp.html" target="_top" xlink:title="PositionRaw.cpp">
<polygon fill="none" stroke="#000000" points="3060.849,-123.5 3060.849,-142.5 3156.849,-142.5 3156.849,-123.5 3060.849,-123.5"/>
<text text-anchor="middle" x="3108.849" y="-130.5" font-family="FreeSans.ttf" font-size="10.00" fill="#000000">PositionRaw.cpp</text>
</a>
</g>
</g>
<!-- Node32&#45;&gt;Node205 -->
<g id="edge55" class="edge">
<title>Node32&#45;&gt;Node205</title>
<path fill="none" stroke="#191970" d="M2995.0002,-175.7888C3022.2058,-165.5639 3059.2299,-151.6488 3083.5692,-142.5011"/>
<polygon fill="#191970" stroke="#191970" points="2993.5923,-172.5788 2985.463,-179.3733 2996.0551,-179.1313 2993.5923,-172.5788"/>
</g>
<!-- Node206 -->
<g id="node47" class="node">
<title>Node206</title>
<g id="a_node47"><a xlink:href="RotationRaw_8cpp.html" target="_top" xlink:title="RotationRaw.cpp">
<polygon fill="none" stroke="#000000" points="3174.849,-123.5 3174.849,-142.5 3272.849,-142.5 3272.849,-123.5 3174.849,-123.5"/>
<text text-anchor="middle" x="3223.849" y="-130.5" font-family="FreeSans.ttf" font-size="10.00" fill="#000000">RotationRaw.cpp</text>
</a>
</g>
</g>
<!-- Node32&#45;&gt;Node206 -->
<g id="edge56" class="edge">
<title>Node32&#45;&gt;Node206</title>
<path fill="none" stroke="#191970" d="M3014.9717,-177.3073C3063.6183,-166.9883 3133.6478,-152.1336 3178.9517,-142.5237"/>
<polygon fill="#191970" stroke="#191970" points="3013.9883,-173.9379 3004.9322,-179.4369 3015.4409,-180.7856 3013.9883,-173.9379"/>
</g>
<!-- Node94 -->
<g id="node48" class="node">
<title>Node94</title>
<g id="a_node48"><a xlink:href="TestUtils_8cpp.html" target="_top" xlink:title="TestUtils.cpp">
<polygon fill="none" stroke="#000000" points="3291.349,-123.5 3291.349,-142.5 3370.349,-142.5 3370.349,-123.5 3291.349,-123.5"/>
<text text-anchor="middle" x="3330.849" y="-130.5" font-family="FreeSans.ttf" font-size="10.00" fill="#000000">TestUtils.cpp</text>
</a>
</g>
</g>
<!-- Node32&#45;&gt;Node94 -->
<g id="edge60" class="edge">
<title>Node32&#45;&gt;Node94</title>
<path fill="none" stroke="#191970" d="M3028.0544,-180.4523C3093.3585,-171.9859 3194.5716,-158.1262 3281.849,-143 3284.9287,-142.4662 3288.1112,-141.8849 3291.3068,-141.2798"/>
<polygon fill="#191970" stroke="#191970" points="3027.3591,-177.0129 3017.8894,-181.7642 3028.2552,-183.9553 3027.3591,-177.0129"/>
</g>
<!-- Node95 -->
<g id="node49" class="node">
<title>Node95</title>
<g id="a_node49"><a xlink:href="DynamicsUtils_8h.html" target="_top" xlink:title="DynamicsUtils.h">
<polygon fill="none" stroke="#000000" points="3388.349,-123.5 3388.349,-142.5 3485.349,-142.5 3485.349,-123.5 3388.349,-123.5"/>
<text text-anchor="middle" x="3436.849" y="-130.5" font-family="FreeSans.ttf" font-size="10.00" fill="#000000">DynamicsUtils.h</text>
</a>
</g>
</g>
<!-- Node32&#45;&gt;Node95 -->
<g id="edge61" class="edge">
<title>Node32&#45;&gt;Node95</title>
<path fill="none" stroke="#191970" d="M3028.1769,-182.884C3111.4306,-175.1169 3256.2824,-160.5872 3379.849,-143 3382.5346,-142.6178 3385.2878,-142.2049 3388.0643,-141.7722"/>
<polygon fill="#191970" stroke="#191970" points="3027.7209,-179.4112 3018.0871,-183.8203 3028.3677,-186.3813 3027.7209,-179.4112"/>
</g>
<!-- Node207 -->
<g id="node50" class="node">
<title>Node207</title>
<g id="a_node50"><a xlink:href="JointState_8h.html" target="_top" xlink:title="JointState.h">
<polygon fill="none" stroke="#ff0000" points="285.349,-123.5 285.349,-142.5 358.349,-142.5 358.349,-123.5 285.349,-123.5"/>
<text text-anchor="middle" x="321.849" y="-130.5" font-family="FreeSans.ttf" font-size="10.00" fill="#000000">JointState.h</text>
</a>
</g>
</g>
<!-- Node32&#45;&gt;Node207 -->
<g id="edge62" class="edge">
<title>Node32&#45;&gt;Node207</title>
<path fill="none" stroke="#191970" d="M2891.6567,-188.4373C2540.1145,-185.4329 929.7639,-170.3865 430.849,-143 406.7513,-141.6772 379.7372,-139.2058 358.6309,-137.051"/>
<polygon fill="#191970" stroke="#191970" points="2891.6583,-191.9373 2901.6878,-188.5226 2891.7179,-184.9376 2891.6583,-191.9373"/>
</g>
<!-- Node34 -->
<g id="node3" class="node">
<title>Node34</title>
<g id="a_node3"><a xlink:href="PrivateUtils_8h.html" target="_top" xlink:title="PrivateUtils.h">
<polygon fill="none" stroke="#ff0000" points="1512.349,-62 1512.349,-81 1595.349,-81 1595.349,-62 1512.349,-62"/>
<text text-anchor="middle" x="1553.849" y="-69" font-family="FreeSans.ttf" font-size="10.00" fill="#000000">PrivateUtils.h</text>
</a>
</g>
</g>
<!-- Node33&#45;&gt;Node34 -->
<g id="edge2" class="edge">
<title>Node33&#45;&gt;Node34</title>
<path fill="none" stroke="#191970" d="M2904.3538,-131.9712C2665.8665,-127.434 1734.2639,-108.482 1604.849,-87 1596.8153,-85.6665 1588.2784,-83.4182 1580.5336,-81.0416"/>
<polygon fill="#191970" stroke="#191970" points="2904.461,-135.4738 2914.5256,-132.164 2904.5937,-128.475 2904.461,-135.4738"/>
</g>
<!-- Node33&#45;&gt;Node38 -->
<g id="edge12" class="edge">
<title>Node33&#45;&gt;Node38</title>
<path fill="none" stroke="#191970" d="M3014.9713,-123.3987C3016.2751,-123.2551 3017.5691,-123.1218 3018.849,-123 3064.5148,-118.6556 4634.0461,-115.6774 4669.849,-87 4690.1601,-70.7311 4690.8367,-36.5147 4689.7996,-19.7189"/>
<polygon fill="#191970" stroke="#191970" points="3014.3398,-119.9505 3004.8569,-124.6754 3015.2165,-126.8954 3014.3398,-119.9505"/>
</g>
<!-- Node42 -->
<g id="node6" class="node">
<title>Node42</title>
<g id="a_node6"><a xlink:href="ArticulatedBodyInertia_8cpp.html" target="_top" xlink:title="ArticulatedBodyInertia.cpp">
<polygon fill="none" stroke="#000000" points="864.849,-62 864.849,-81 1010.849,-81 1010.849,-62 864.849,-62"/>
<text text-anchor="middle" x="937.849" y="-69" font-family="FreeSans.ttf" font-size="10.00" fill="#000000">ArticulatedBodyInertia.cpp</text>
</a>
</g>
</g>
<!-- Node33&#45;&gt;Node42 -->
<g id="edge5" class="edge">
<title>Node33&#45;&gt;Node42</title>
<path fill="none" stroke="#191970" d="M2904.4174,-132.89C2628.4016,-132.1581 1400.4761,-126.6893 1020.849,-87 1008.0191,-85.6587 994.2022,-83.408 981.5928,-81.0316"/>
<polygon fill="#191970" stroke="#191970" points="2904.5799,-136.3903 2914.5889,-132.9159 2904.5979,-129.3903 2904.5799,-136.3903"/>
</g>
<!-- Node43 -->
<g id="node7" class="node">
<title>Node43</title>
<g id="a_node7"><a xlink:href="CubicSpline_8cpp.html" target="_top" xlink:title="CubicSpline.cpp">
<polygon fill="none" stroke="#000000" points="4716.849,-62 4716.849,-81 4810.849,-81 4810.849,-62 4716.849,-62"/>
<text text-anchor="middle" x="4763.849" y="-69" font-family="FreeSans.ttf" font-size="10.00" fill="#000000">CubicSpline.cpp</text>
</a>
</g>
</g>
<!-- Node33&#45;&gt;Node43 -->
<g id="edge6" class="edge">
<title>Node33&#45;&gt;Node43</title>
<path fill="none" stroke="#191970" d="M3014.9712,-123.3979C3016.275,-123.2546 3017.5691,-123.1215 3018.849,-123 3391.4818,-87.6302 4331.9522,-137.4165 4702.849,-87 4712.4852,-85.6901 4722.794,-83.4176 4732.1431,-81.0101"/>
<polygon fill="#191970" stroke="#191970" points="3014.3402,-119.9497 3004.8567,-124.6734 3015.2161,-126.8947 3014.3402,-119.9497"/>
</g>
<!-- Node44 -->
<g id="node8" class="node">
<title>Node44</title>
<g id="a_node8"><a xlink:href="Direction_8cpp.html" target="_top" xlink:title="Direction.cpp">
<polygon fill="none" stroke="#000000" points="4829.349,-62 4829.349,-81 4910.349,-81 4910.349,-62 4829.349,-62"/>
<text text-anchor="middle" x="4869.849" y="-69" font-family="FreeSans.ttf" font-size="10.00" fill="#000000">Direction.cpp</text>
</a>
</g>
</g>
<!-- Node33&#45;&gt;Node44 -->
<g id="edge7" class="edge">
<title>Node33&#45;&gt;Node44</title>
<path fill="none" stroke="#191970" d="M3014.971,-123.3955C3016.2749,-123.2529 3017.569,-123.1206 3018.849,-123 3417.3861,-85.4505 4424.6786,-150.8924 4819.849,-87 4827.8337,-85.709 4836.3098,-83.4423 4843.9705,-81.0342"/>
<polygon fill="#191970" stroke="#191970" points="3014.3415,-119.947 3004.8561,-124.6669 3015.2145,-126.8924 3014.3415,-119.947"/>
</g>
<!-- Node45 -->
<g id="node9" class="node">
<title>Node45</title>
<g id="a_node9"><a xlink:href="InertiaNonLinearParametrization_8cpp.html" target="_top" xlink:title="InertiaNonLinearParametrization.cpp">
<polygon fill="none" stroke="#000000" points="4928.349,-62 4928.349,-81 5123.349,-81 5123.349,-62 4928.349,-62"/>
<text text-anchor="middle" x="5025.849" y="-69" font-family="FreeSans.ttf" font-size="10.00" fill="#000000">InertiaNonLinearParametrization.cpp</text>
</a>
</g>
</g>
<!-- Node33&#45;&gt;Node45 -->
<g id="edge8" class="edge">
<title>Node33&#45;&gt;Node45</title>
<path fill="none" stroke="#191970" d="M3014.9708,-123.3937C3016.2748,-123.2516 3017.5689,-123.1199 3018.849,-123 3860.2049,-44.1749 4077.6526,-156.2715 4919.849,-87 4936.1606,-85.6584 4953.7833,-83.4075 4969.8884,-81.0312"/>
<polygon fill="#191970" stroke="#191970" points="3014.3425,-119.945 3004.8556,-124.662 3015.2134,-126.8906 3014.3425,-119.945"/>
</g>
<!-- Node46 -->
<g id="node10" class="node">
<title>Node46</title>
<g id="a_node10"><a xlink:href="Rotation_8cpp.html" target="_top" xlink:title="Rotation.cpp">
<polygon fill="none" stroke="#000000" points="491.349,-62 491.349,-81 568.349,-81 568.349,-62 491.349,-62"/>
<text text-anchor="middle" x="529.849" y="-69" font-family="FreeSans.ttf" font-size="10.00" fill="#000000">Rotation.cpp</text>
</a>
</g>
</g>
<!-- Node33&#45;&gt;Node46 -->
<g id="edge9" class="edge">
<title>Node33&#45;&gt;Node46</title>
<path fill="none" stroke="#191970" d="M2903.9259,-132.9C2566.9673,-132.1671 813.6808,-126.4699 577.849,-87 570.2485,-85.7279 562.2015,-83.4989 554.913,-81.1211"/>
<polygon fill="#191970" stroke="#191970" points="2904.3906,-136.4009 2914.398,-132.9221 2904.4055,-129.4009 2904.3906,-136.4009"/>
</g>
<!-- Node33&#45;&gt;Node47 -->
<g id="edge10" class="edge">
<title>Node33&#45;&gt;Node47</title>
<path fill="none" stroke="#191970" d="M2904.4122,-132.1851C2621.1388,-127.9396 1341.7818,-107.755 1165.849,-87 1154.5261,-85.6642 1142.3617,-83.4153 1131.2723,-81.0387"/>
<polygon fill="#191970" stroke="#191970" points="2904.4027,-135.6852 2914.4539,-132.3352 2904.5073,-128.686 2904.4027,-135.6852"/>
</g>
<!-- Node48 -->
<g id="node12" class="node">
<title>Node48</title>
<g id="a_node12"><a xlink:href="SpatialInertia_8cpp.html" target="_top" xlink:title="SpatialInertia.cpp">
<polygon fill="none" stroke="#000000" points="586.849,-62 586.849,-81 688.849,-81 688.849,-62 586.849,-62"/>
<text text-anchor="middle" x="637.849" y="-69" font-family="FreeSans.ttf" font-size="10.00" fill="#000000">SpatialInertia.cpp</text>
</a>
</g>
</g>
<!-- Node33&#45;&gt;Node48 -->
<g id="edge11" class="edge">
<title>Node33&#45;&gt;Node48</title>
<path fill="none" stroke="#191970" d="M2904.7006,-132.6459C2579.8415,-130.4582 922.3241,-117.8485 697.849,-87 688.3629,-85.6964 678.2208,-83.4258 669.0252,-81.0181"/>
<polygon fill="#191970" stroke="#191970" points="2904.7852,-136.1465 2914.8084,-132.7135 2904.8321,-129.1466 2904.7852,-136.1465"/>
</g>
<!-- Node49 -->
<g id="node13" class="node">
<title>Node49</title>
<g id="a_node13"><a xlink:href="TransformDerivative_8cpp.html" target="_top" xlink:title="TransformDerivative.cpp">
<polygon fill="none" stroke="#000000" points="5141.349,-62 5141.349,-81 5278.349,-81 5278.349,-62 5141.349,-62"/>
<text text-anchor="middle" x="5209.849" y="-69" font-family="FreeSans.ttf" font-size="10.00" fill="#000000">TransformDerivative.cpp</text>
</a>
</g>
</g>
<!-- Node33&#45;&gt;Node49 -->
<g id="edge13" class="edge">
<title>Node33&#45;&gt;Node49</title>
<path fill="none" stroke="#191970" d="M3014.9705,-123.3904C3016.2745,-123.2493 3017.5688,-123.1187 3018.849,-123 3486.6879,-79.6191 4665.7323,-137.5681 5132.849,-87 5144.9147,-85.6938 5157.8976,-83.4224 5169.7016,-81.0148"/>
<polygon fill="#191970" stroke="#191970" points="3014.3443,-119.9413 3004.8548,-124.653 3015.2113,-126.8874 3014.3443,-119.9413"/>
</g>
<!-- Node50 -->
<g id="node14" class="node">
<title>Node50</title>
<g id="a_node14"><a xlink:href="GravityCompensationHelpers_8h.html" target="_top" xlink:title="GravityCompensationHelpers.h">
<polygon fill="none" stroke="#ff0000" points="5296.849,-62 5296.849,-81 5466.849,-81 5466.849,-62 5296.849,-62"/>
<text text-anchor="middle" x="5381.849" y="-69" font-family="FreeSans.ttf" font-size="10.00" fill="#000000">GravityCompensationHelpers.h</text>
</a>
</g>
</g>
<!-- Node33&#45;&gt;Node50 -->
<g id="edge14" class="edge">
<title>Node33&#45;&gt;Node50</title>
<path fill="none" stroke="#191970" d="M3014.9703,-123.3883C3016.2744,-123.2479 3017.5687,-123.118 3018.849,-123 4023.1662,-30.4625 4283.3273,-177.2912 5287.849,-87 5302.3456,-85.697 5317.9832,-83.4582 5332.2644,-81.0811"/>
<polygon fill="#191970" stroke="#191970" points="3014.3453,-119.939 3004.8543,-124.6476 3015.2101,-126.8854 3014.3453,-119.939"/>
</g>
<!-- Node52 -->
<g id="node15" class="node">
<title>Node52</title>
<g id="a_node15"><a xlink:href="BerdyHelper_8cpp.html" target="_top" xlink:title="BerdyHelper.cpp">
<polygon fill="none" stroke="#000000" points="5485.349,-62 5485.349,-81 5582.349,-81 5582.349,-62 5485.349,-62"/>
<text text-anchor="middle" x="5533.849" y="-69" font-family="FreeSans.ttf" font-size="10.00" fill="#000000">BerdyHelper.cpp</text>
</a>
</g>
</g>
<!-- Node33&#45;&gt;Node52 -->
<g id="edge15" class="edge">
<title>Node33&#45;&gt;Node52</title>
<path fill="none" stroke="#191970" d="M3014.9701,-123.3862C3016.2743,-123.2464 3017.5687,-123.1172 3018.849,-123 3562.6346,-73.2285 4934.9738,-162.0603 5475.849,-87 5485.0372,-85.7249 5494.8469,-83.463 5503.7354,-81.0545"/>
<polygon fill="#191970" stroke="#191970" points="3014.3465,-119.9367 3004.8538,-124.6419 3015.2088,-126.8834 3014.3465,-119.9367"/>
</g>
<!-- Node53 -->
<g id="node16" class="node">
<title>Node53</title>
<g id="a_node16"><a xlink:href="BerdySparseMAPSolver_8cpp.html" target="_top" xlink:title="BerdySparseMAPSolver.cpp">
<polygon fill="none" stroke="#000000" points="1174.349,-62 1174.349,-81 1323.349,-81 1323.349,-62 1174.349,-62"/>
<text text-anchor="middle" x="1248.849" y="-69" font-family="FreeSans.ttf" font-size="10.00" fill="#000000">BerdySparseMAPSolver.cpp</text>
</a>
</g>
</g>
<!-- Node33&#45;&gt;Node53 -->
<g id="edge16" class="edge">
<title>Node33&#45;&gt;Node53</title>
<path fill="none" stroke="#191970" d="M2904.3895,-132.5812C2656.3826,-130.5319 1647.4532,-120.2725 1332.849,-87 1320.0188,-85.6431 1306.2077,-83.4183 1293.5641,-81.0722"/>
<polygon fill="#191970" stroke="#191970" points="2904.5727,-136.0827 2914.601,-132.6645 2904.6299,-129.083 2904.5727,-136.0827"/>
</g>
<!-- Node54 -->
<g id="node17" class="node">
<title>Node54</title>
<g id="a_node17"><a xlink:href="ExternalWrenchesEstimation_8cpp.html" target="_top" xlink:title="ExternalWrenchesEstimation.cpp">
<polygon fill="none" stroke="#000000" points="16.349,-62 16.349,-81 193.349,-81 193.349,-62 16.349,-62"/>
<text text-anchor="middle" x="104.849" y="-69" font-family="FreeSans.ttf" font-size="10.00" fill="#000000">ExternalWrenchesEstimation.cpp</text>
</a>
</g>
</g>
<!-- Node33&#45;&gt;Node54 -->
<g id="edge17" class="edge">
<title>Node33&#45;&gt;Node54</title>
<path fill="none" stroke="#191970" d="M2904.7138,-132.5512C2539.9229,-129.5196 479.9648,-111.4158 201.849,-87 186.8141,-85.6801 170.5819,-83.4204 155.777,-81.0283"/>
<polygon fill="#191970" stroke="#191970" points="2904.7323,-136.0514 2914.761,-132.6345 2904.7904,-129.0516 2904.7323,-136.0514"/>
</g>
<!-- Node55 -->
<g id="node18" class="node">
<title>Node55</title>
<g id="a_node18"><a xlink:href="ExtWrenchesAndJointTorquesEstimator_8cpp.html" target="_top" xlink:title="ExtWrenchesAndJointTorques\lEstimator.cpp">
<polygon fill="none" stroke="#000000" points="210.849,-56.5 210.849,-86.5 368.849,-86.5 368.849,-56.5 210.849,-56.5"/>
<text text-anchor="start" x="218.849" y="-74.5" font-family="FreeSans.ttf" font-size="10.00" fill="#000000">ExtWrenchesAndJointTorques</text>
<text text-anchor="middle" x="289.849" y="-63.5" font-family="FreeSans.ttf" font-size="10.00" fill="#000000">Estimator.cpp</text>
</a>
</g>
</g>
<!-- Node33&#45;&gt;Node55 -->
<g id="edge18" class="edge">
<title>Node33&#45;&gt;Node55</title>
<path fill="none" stroke="#191970" d="M2904.6766,-132.5364C2553.5443,-129.517 637.1304,-111.9889 377.849,-87 374.9151,-86.7172 371.932,-86.3911 368.9231,-86.0295"/>
<polygon fill="#191970" stroke="#191970" points="2904.8144,-136.0376 2914.844,-132.6235 2904.8744,-129.0379 2904.8144,-136.0376"/>
</g>
<!-- Node56 -->
<g id="node19" class="node">
<title>Node56</title>
<g id="a_node19"><a xlink:href="SimpleLeggedOdometry_8cpp.html" target="_top" xlink:title="SimpleLeggedOdometry.cpp">
<polygon fill="none" stroke="#000000" points="1341.349,-62 1341.349,-81 1494.349,-81 1494.349,-62 1341.349,-62"/>
<text text-anchor="middle" x="1417.849" y="-69" font-family="FreeSans.ttf" font-size="10.00" fill="#000000">SimpleLeggedOdometry.cpp</text>
</a>
</g>
</g>
<!-- Node33&#45;&gt;Node56 -->
<g id="edge19" class="edge">
<title>Node33&#45;&gt;Node56</title>
<path fill="none" stroke="#191970" d="M2904.6673,-132.341C2673.6334,-129.4143 1783.1367,-116.4195 1503.849,-87 1490.7227,-85.6173 1476.5858,-83.3843 1463.641,-81.0385"/>
<polygon fill="#191970" stroke="#191970" points="2904.8047,-135.8429 2914.8479,-132.4688 2904.8926,-128.8434 2904.8047,-135.8429"/>
</g>
<!-- Node57 -->
<g id="node20" class="node">
<title>Node57</title>
<g id="a_node20"><a xlink:href="KinDynComputations_8cpp.html" target="_top" xlink:title="KinDynComputations.cpp">
<polygon fill="none" stroke="#000000" points="706.849,-62 706.849,-81 846.849,-81 846.849,-62 706.849,-62"/>
<text text-anchor="middle" x="776.849" y="-69" font-family="FreeSans.ttf" font-size="10.00" fill="#000000">KinDynComputations.cpp</text>
</a>
</g>
</g>
<!-- Node33&#45;&gt;Node57 -->
<g id="edge20" class="edge">
<title>Node33&#45;&gt;Node57</title>
<path fill="none" stroke="#191970" d="M2904.663,-132.3612C2593.4776,-128.683 1064.5013,-109.5804 855.849,-87 843.6208,-85.6767 830.4645,-83.4316 818.4632,-81.0548"/>
<polygon fill="#191970" stroke="#191970" points="2904.7508,-135.8623 2914.7913,-132.4805 2904.8333,-128.8628 2904.7508,-135.8623"/>
</g>
<!-- Node58 -->
<g id="node21" class="node">
<title>Node58</title>
<g id="a_node21"><a xlink:href="BoundingBoxHelpers_8cpp.html" target="_top" xlink:title="BoundingBoxHelpers.cpp">
<polygon fill="none" stroke="#000000" points="1613.349,-62 1613.349,-81 1752.349,-81 1752.349,-62 1613.349,-62"/>
<text text-anchor="middle" x="1682.849" y="-69" font-family="FreeSans.ttf" font-size="10.00" fill="#000000">BoundingBoxHelpers.cpp</text>
</a>
</g>
</g>
<!-- Node33&#45;&gt;Node58 -->
<g id="edge21" class="edge">
<title>Node33&#45;&gt;Node58</title>
<path fill="none" stroke="#191970" d="M2904.3204,-132.0141C2699.6331,-128.2016 1987.5346,-113.3113 1761.849,-87 1749.771,-85.5919 1736.7782,-83.3507 1724.8874,-81.0053"/>
<polygon fill="#191970" stroke="#191970" points="2904.4687,-135.5174 2914.5317,-132.203 2904.5982,-128.5186 2904.4687,-135.5174"/>
</g>
<!-- Node59 -->
<g id="node22" class="node">
<title>Node59</title>
<g id="a_node22"><a xlink:href="ConvexHullHelpers_8cpp.html" target="_top" xlink:title="ConvexHullHelpers.cpp">
<polygon fill="none" stroke="#000000" points="1770.349,-62 1770.349,-81 1901.349,-81 1901.349,-62 1770.349,-62"/>
<text text-anchor="middle" x="1835.849" y="-69" font-family="FreeSans.ttf" font-size="10.00" fill="#000000">ConvexHullHelpers.cpp</text>
</a>
</g>
</g>
<!-- Node33&#45;&gt;Node59 -->
<g id="edge22" class="edge">
<title>Node33&#45;&gt;Node59</title>
<path fill="none" stroke="#191970" d="M2904.4789,-131.7424C2716.8441,-127.2973 2105.9223,-111.2763 1910.849,-87 1899.5019,-85.5879 1887.3147,-83.3753 1876.1322,-81.0594"/>
<polygon fill="#191970" stroke="#191970" points="2904.5817,-135.2457 2914.6613,-131.9821 2904.7465,-128.2476 2904.5817,-135.2457"/>
</g>
<!-- Node60 -->
<g id="node23" class="node">
<title>Node60</title>
<g id="a_node23"><a xlink:href="InverseKinematics_8cpp.html" target="_top" xlink:title="InverseKinematics.cpp">
<polygon fill="none" stroke="#000000" points="1919.849,-62 1919.849,-81 2047.849,-81 2047.849,-62 1919.849,-62"/>
<text text-anchor="middle" x="1983.849" y="-69" font-family="FreeSans.ttf" font-size="10.00" fill="#000000">InverseKinematics.cpp</text>
</a>
</g>
</g>
<!-- Node33&#45;&gt;Node60 -->
<g id="edge23" class="edge">
<title>Node33&#45;&gt;Node60</title>
<path fill="none" stroke="#191970" d="M2904.4126,-131.3044C2734.5631,-125.9305 2222.9199,-108.3651 2057.849,-87 2046.654,-85.551 2034.6294,-83.3264 2023.5961,-81.0107"/>
<polygon fill="#191970" stroke="#191970" points="2904.5201,-134.8094 2914.6253,-131.6258 2904.7404,-127.8129 2904.5201,-134.8094"/>
</g>
<!-- Node61 -->
<g id="node24" class="node">
<title>Node61</title>
<g id="a_node24"><a xlink:href="InverseKinematicsData_8cpp.html" target="_top" xlink:title="InverseKinematicsData.cpp">
<polygon fill="none" stroke="#000000" points="2066.349,-62 2066.349,-81 2217.349,-81 2217.349,-62 2066.349,-62"/>
<text text-anchor="middle" x="2141.849" y="-69" font-family="FreeSans.ttf" font-size="10.00" fill="#000000">InverseKinematicsData.cpp</text>
</a>
</g>
</g>
<!-- Node33&#45;&gt;Node61 -->
<g id="edge24" class="edge">
<title>Node33&#45;&gt;Node61</title>
<path fill="none" stroke="#191970" d="M2904.3839,-131.7464C2781.786,-128.4883 2478.6557,-117.7517 2226.849,-87 2214.3416,-85.4726 2200.8906,-83.2787 2188.4619,-81.0202"/>
<polygon fill="#191970" stroke="#191970" points="2904.5503,-135.2518 2914.6377,-132.0125 2904.732,-128.2542 2904.5503,-135.2518"/>
</g>
<!-- Node62 -->
<g id="node25" class="node">
<title>Node62</title>
<g id="a_node25"><a xlink:href="InverseKinematicsNLP_8cpp.html" target="_top" xlink:title="InverseKinematicsNLP.cpp">
<polygon fill="none" stroke="#000000" points="2235.349,-62 2235.349,-81 2380.349,-81 2380.349,-62 2235.349,-62"/>
<text text-anchor="middle" x="2307.849" y="-69" font-family="FreeSans.ttf" font-size="10.00" fill="#000000">InverseKinematicsNLP.cpp</text>
</a>
</g>
</g>
<!-- Node33&#45;&gt;Node62 -->
<g id="edge25" class="edge">
<title>Node33&#45;&gt;Node62</title>
<path fill="none" stroke="#191970" d="M2904.5235,-130.4925C2802.4421,-125.4319 2577.7255,-112.2648 2389.849,-87 2378.0746,-85.4166 2365.43,-83.2573 2353.6807,-81.0535"/>
<polygon fill="#191970" stroke="#191970" points="2904.4415,-133.9926 2914.6006,-130.9854 2904.7835,-127.001 2904.4415,-133.9926"/>
</g>
<!-- Node63 -->
<g id="node26" class="node">
<title>Node63</title>
<g id="a_node26"><a xlink:href="DenavitHartenberg_8cpp.html" target="_top" xlink:title="DenavitHartenberg.cpp">
<polygon fill="none" stroke="#000000" points="2398.849,-62 2398.849,-81 2528.849,-81 2528.849,-62 2398.849,-62"/>
<text text-anchor="middle" x="2463.849" y="-69" font-family="FreeSans.ttf" font-size="10.00" fill="#000000">DenavitHartenberg.cpp</text>
</a>
</g>
</g>
<!-- Node33&#45;&gt;Node63 -->
<g id="edge26" class="edge">
<title>Node33&#45;&gt;Node63</title>
<path fill="none" stroke="#191970" d="M2904.3826,-128.6297C2823.6484,-121.886 2669.1766,-107.5397 2538.849,-87 2528.3419,-85.3441 2517.0775,-83.2094 2506.5552,-81.057"/>
<polygon fill="#191970" stroke="#191970" points="2904.5476,-132.1552 2914.8022,-129.4919 2905.1249,-125.1791 2904.5476,-132.1552"/>
</g>
<!-- Node64 -->
<g id="node27" class="node">
<title>Node64</title>
<g id="a_node27"><a xlink:href="Dynamics_8cpp.html" target="_top" xlink:title="Dynamics.cpp">
<polygon fill="none" stroke="#000000" points="386.849,-62 386.849,-81 472.849,-81 472.849,-62 386.849,-62"/>
<text text-anchor="middle" x="429.849" y="-69" font-family="FreeSans.ttf" font-size="10.00" fill="#000000">Dynamics.cpp</text>
</a>
</g>
</g>
<!-- Node33&#45;&gt;Node64 -->
<g id="edge27" class="edge">
<title>Node33&#45;&gt;Node64</title>
<path fill="none" stroke="#191970" d="M2904.4232,-132.8713C2560.8386,-131.9541 728.2929,-125.2872 481.849,-87 473.5643,-85.7129 464.7551,-83.4473 456.7874,-81.0392"/>
<polygon fill="#191970" stroke="#191970" points="2904.61,-136.3717 2914.6191,-132.898 2904.6284,-129.3717 2904.61,-136.3717"/>
</g>
<!-- Node65 -->
<g id="node28" class="node">
<title>Node65</title>
<g id="a_node28"><a xlink:href="DynamicsLinearization_8cpp.html" target="_top" xlink:title="DynamicsLinearization.cpp">
<polygon fill="none" stroke="#000000" points="2547.349,-62 2547.349,-81 2696.349,-81 2696.349,-62 2547.349,-62"/>
<text text-anchor="middle" x="2621.849" y="-69" font-family="FreeSans.ttf" font-size="10.00" fill="#000000">DynamicsLinearization.cpp</text>
</a>
</g>
</g>
<!-- Node33&#45;&gt;Node65 -->
<g id="edge28" class="edge">
<title>Node33&#45;&gt;Node65</title>
<path fill="none" stroke="#191970" d="M2904.7413,-123.1599C2853.0824,-113.9116 2773.7069,-99.6401 2704.849,-87 2694.4681,-85.0944 2683.361,-83.0346 2672.7574,-81.0581"/>
<polygon fill="#191970" stroke="#191970" points="2904.232,-126.6242 2914.6922,-124.9405 2905.4651,-119.7337 2904.232,-126.6242"/>
</g>
<!-- Node66 -->
<g id="node29" class="node">
<title>Node66</title>
<g id="a_node29"><a xlink:href="DynamicsLinearizationHelpers_8cpp.html" target="_top" xlink:title="DynamicsLinearizationHelpers.cpp">
<polygon fill="none" stroke="#000000" points="2713.849,-62 2713.849,-81 2899.849,-81 2899.849,-62 2713.849,-62"/>
<text text-anchor="middle" x="2806.849" y="-69" font-family="FreeSans.ttf" font-size="10.00" fill="#000000">DynamicsLinearizationHelpers.cpp</text>
</a>
</g>
</g>
<!-- Node33&#45;&gt;Node66 -->
<g id="edge29" class="edge">
<title>Node33&#45;&gt;Node66</title>
<path fill="none" stroke="#191970" d="M2926.6311,-119.6477C2897.6595,-108.0023 2856.3442,-91.3952 2830.5873,-81.0419"/>
<polygon fill="#191970" stroke="#191970" points="2925.3589,-122.9084 2935.9427,-123.3906 2927.9696,-116.4135 2925.3589,-122.9084"/>
</g>
<!-- Node67 -->
<g id="node30" class="node">
<title>Node67</title>
<g id="a_node30"><a xlink:href="Jacobians_8cpp.html" target="_top" xlink:title="Jacobians.cpp">
<polygon fill="none" stroke="#000000" points="2918.349,-62 2918.349,-81 3001.349,-81 3001.349,-62 2918.349,-62"/>
<text text-anchor="middle" x="2959.849" y="-69" font-family="FreeSans.ttf" font-size="10.00" fill="#000000">Jacobians.cpp</text>
</a>
</g>
</g>
<!-- Node33&#45;&gt;Node67 -->
<g id="edge30" class="edge">
<title>Node33&#45;&gt;Node67</title>
<path fill="none" stroke="#191970" d="M2959.849,-113.2462C2959.849,-102.5519 2959.849,-89.814 2959.849,-81.2449"/>
<polygon fill="#191970" stroke="#191970" points="2956.3491,-113.3906 2959.849,-123.3906 2963.3491,-113.3907 2956.3491,-113.3906"/>
</g>
<!-- Node68 -->
<g id="node31" class="node">
<title>Node68</title>
<g id="a_node31"><a xlink:href="Model_8cpp.html" target="_top" xlink:title="Model.cpp">
<polygon fill="none" stroke="#000000" points="3019.849,-62 3019.849,-81 3085.849,-81 3085.849,-62 3019.849,-62"/>
<text text-anchor="middle" x="3052.849" y="-69" font-family="FreeSans.ttf" font-size="10.00" fill="#000000">Model.cpp</text>
</a>
</g>
</g>
<!-- Node33&#45;&gt;Node68 -->
<g id="edge31" class="edge">
<title>Node33&#45;&gt;Node68</title>
<path fill="none" stroke="#191970" d="M2982.8555,-117.786C3000.2452,-106.2864 3023.5805,-90.855 3038.4198,-81.0419"/>
<polygon fill="#191970" stroke="#191970" points="2980.7908,-114.9553 2974.3802,-123.3906 2984.652,-120.7941 2980.7908,-114.9553"/>
</g>
<!-- Node69 -->
<g id="node32" class="node">
<title>Node69</title>
<g id="a_node32"><a xlink:href="ConstraintsGroup_8cpp.html" target="_top" xlink:title="ConstraintsGroup.cpp">
<polygon fill="none" stroke="#000000" points="3103.849,-62 3103.849,-81 3225.849,-81 3225.849,-62 3103.849,-62"/>
<text text-anchor="middle" x="3164.849" y="-69" font-family="FreeSans.ttf" font-size="10.00" fill="#000000">ConstraintsGroup.cpp</text>
</a>
</g>
</g>
<!-- Node33&#45;&gt;Node69 -->
<g id="edge32" class="edge">
<title>Node33&#45;&gt;Node69</title>
<path fill="none" stroke="#191970" d="M3001.8488,-120.4001C3040.758,-108.7273 3097.7816,-91.6202 3133.0426,-81.0419"/>
<polygon fill="#191970" stroke="#191970" points="3000.4527,-117.1647 2991.8802,-123.3906 3002.4642,-123.8695 3000.4527,-117.1647"/>
</g>
<!-- Node70 -->
<g id="node33" class="node">
<title>Node70</title>
<g id="a_node33"><a xlink:href="FixedStepIntegrator_8cpp.html" target="_top" xlink:title="FixedStepIntegrator.cpp">
<polygon fill="none" stroke="#000000" points="3244.349,-62 3244.349,-81 3375.349,-81 3375.349,-62 3244.349,-62"/>
<text text-anchor="middle" x="3309.849" y="-69" font-family="FreeSans.ttf" font-size="10.00" fill="#000000">FixedStepIntegrator.cpp</text>
</a>
</g>
</g>
<!-- Node33&#45;&gt;Node70 -->
<g id="edge33" class="edge">
<title>Node33&#45;&gt;Node70</title>
<path fill="none" stroke="#191970" d="M3015.0039,-123.6468C3016.2979,-123.429 3017.5811,-123.2131 3018.849,-123 3114.8269,-106.8681 3139.1761,-104.852 3234.849,-87 3244.6518,-85.1709 3255.148,-83.0831 3265.0901,-81.0453"/>
<polygon fill="#191970" stroke="#191970" points="3014.2233,-120.229 3004.9447,-125.3435 3015.3876,-127.1315 3014.2233,-120.229"/>
</g>
<!-- Node71 -->
<g id="node34" class="node">
<title>Node71</title>
<g id="a_node34"><a xlink:href="ForwardEuler_8cpp.html" target="_top" xlink:title="ForwardEuler.cpp">
<polygon fill="none" stroke="#000000" points="3393.849,-62 3393.849,-81 3493.849,-81 3493.849,-62 3393.849,-62"/>
<text text-anchor="middle" x="3443.849" y="-69" font-family="FreeSans.ttf" font-size="10.00" fill="#000000">ForwardEuler.cpp</text>
</a>
</g>
</g>
<!-- Node33&#45;&gt;Node71 -->
<g id="edge34" class="edge">
<title>Node33&#45;&gt;Node71</title>
<path fill="none" stroke="#191970" d="M3014.9864,-123.531C3016.2857,-123.3478 3017.5747,-123.1705 3018.849,-123 3180.8577,-101.3297 3223.9647,-115.8567 3384.849,-87 3393.5011,-85.4481 3402.7448,-83.2732 3411.287,-81.0424"/>
<polygon fill="#191970" stroke="#191970" points="3014.2739,-120.0983 3004.8976,-125.0316 3015.3038,-127.0222 3014.2739,-120.0983"/>
</g>
<!-- Node72 -->
<g id="node35" class="node">
<title>Node72</title>
<g id="a_node35"><a xlink:href="ImplicitTrapezoidal_8cpp.html" target="_top" xlink:title="ImplicitTrapezoidal.cpp">
<polygon fill="none" stroke="#000000" points="3512.349,-62 3512.349,-81 3641.349,-81 3641.349,-62 3512.349,-62"/>
<text text-anchor="middle" x="3576.849" y="-69" font-family="FreeSans.ttf" font-size="10.00" fill="#000000">ImplicitTrapezoidal.cpp</text>
</a>
</g>
</g>
<!-- Node33&#45;&gt;Node72 -->
<g id="edge35" class="edge">
<title>Node33&#45;&gt;Node72</title>
<path fill="none" stroke="#191970" d="M3014.9812,-123.4897C3016.282,-123.3189 3017.5727,-123.1553 3018.849,-123 3232.9753,-96.9484 3289.2649,-117.1769 3502.849,-87 3513.6364,-85.4759 3525.2076,-83.3107 3535.9204,-81.0804"/>
<polygon fill="#191970" stroke="#191970" points="3014.2935,-120.0521 3004.8835,-124.9205 3015.2756,-126.9829 3014.2935,-120.0521"/>
</g>
<!-- Node73 -->
<g id="node36" class="node">
<title>Node73</title>
<g id="a_node36"><a xlink:href="Integrator_8cpp.html" target="_top" xlink:title="Integrator.cpp">
<polygon fill="none" stroke="#000000" points="3659.849,-62 3659.849,-81 3743.849,-81 3743.849,-62 3659.849,-62"/>
<text text-anchor="middle" x="3701.849" y="-69" font-family="FreeSans.ttf" font-size="10.00" fill="#000000">Integrator.cpp</text>
</a>
</g>
</g>
<!-- Node33&#45;&gt;Node73 -->
<g id="edge36" class="edge">
<title>Node33&#45;&gt;Node73</title>
<path fill="none" stroke="#191970" d="M3014.9776,-123.4596C3016.2795,-123.2978 3017.5714,-123.1442 3018.849,-123 3298.4179,-91.4439 3373.8498,-136.2546 3650.849,-87 3658.7757,-85.5905 3667.2049,-83.3489 3674.8795,-81.0035"/>
<polygon fill="#191970" stroke="#191970" points="3014.3084,-120.0185 3004.874,-124.8395 3015.2556,-126.9541 3014.3084,-120.0185"/>
</g>
<!-- Node74 -->
<g id="node37" class="node">
<title>Node74</title>
<g id="a_node37"><a xlink:href="IpoptInterface_8cpp.html" target="_top" xlink:title="IpoptInterface.cpp">
<polygon fill="none" stroke="#000000" points="3762.349,-62 3762.349,-81 3867.349,-81 3867.349,-62 3762.349,-62"/>
<text text-anchor="middle" x="3814.849" y="-69" font-family="FreeSans.ttf" font-size="10.00" fill="#000000">IpoptInterface.cpp</text>
</a>
</g>
</g>
<!-- Node33&#45;&gt;Node74 -->
<g id="edge37" class="edge">
<title>Node33&#45;&gt;Node74</title>
<path fill="none" stroke="#191970" d="M3014.9761,-123.4459C3016.2785,-123.2882 3017.5709,-123.1392 3018.849,-123 3343.5444,-87.6476 3429.7568,-134.8373 3752.849,-87 3762.2879,-85.6025 3772.382,-83.3947 3781.6259,-81.0787"/>
<polygon fill="#191970" stroke="#191970" points="3014.3153,-120.0032 3004.8699,-124.8026 3015.2467,-126.9409 3014.3153,-120.0032"/>
</g>
<!-- Node75 -->
<g id="node38" class="node">
<title>Node75</title>
<g id="a_node38"><a xlink:href="LinearConstraint_8cpp.html" target="_top" xlink:title="LinearConstraint.cpp">
<polygon fill="none" stroke="#000000" points="3885.349,-62 3885.349,-81 4002.349,-81 4002.349,-62 3885.349,-62"/>
<text text-anchor="middle" x="3943.849" y="-69" font-family="FreeSans.ttf" font-size="10.00" fill="#000000">LinearConstraint.cpp</text>
</a>
</g>
</g>
<!-- Node33&#45;&gt;Node75 -->
<g id="edge38" class="edge">
<title>Node33&#45;&gt;Node75</title>
<path fill="none" stroke="#191970" d="M3014.9748,-123.4336C3016.2775,-123.2796 3017.5704,-123.1346 3018.849,-123 3398.4192,-83.0308 3498.6343,-138.2323 3876.849,-87 3887.142,-85.6057 3898.1771,-83.369 3908.2611,-81.0234"/>
<polygon fill="#191970" stroke="#191970" points="3014.3215,-119.9895 3004.8663,-124.7696 3015.2387,-126.9291 3014.3215,-119.9895"/>
</g>
<!-- Node76 -->
<g id="node39" class="node">
<title>Node76</title>
<g id="a_node39"><a xlink:href="LinearSystem_8cpp.html" target="_top" xlink:title="LinearSystem.cpp">
<polygon fill="none" stroke="#000000" points="4020.849,-62 4020.849,-81 4124.849,-81 4124.849,-62 4020.849,-62"/>
<text text-anchor="middle" x="4072.849" y="-69" font-family="FreeSans.ttf" font-size="10.00" fill="#000000">LinearSystem.cpp</text>
</a>
</g>
</g>
<!-- Node33&#45;&gt;Node76 -->
<g id="edge39" class="edge">
<title>Node33&#45;&gt;Node76</title>
<path fill="none" stroke="#191970" d="M3014.9738,-123.4238C3016.2768,-123.2727 3017.57,-123.131 3018.849,-123 3458.1739,-78.0031 3574.7042,-149.7339 4011.849,-87 4021.2589,-85.6496 4031.3181,-83.4269 4040.4986,-81.0807"/>
<polygon fill="#191970" stroke="#191970" points="3014.3267,-119.9784 3004.8636,-124.7429 3015.2324,-126.9196 3014.3267,-119.9784"/>
</g>
<!-- Node77 -->
<g id="node40" class="node">
<title>Node77</title>
<g id="a_node40"><a xlink:href="MultipleShootingSolver_8cpp.html" target="_top" xlink:title="MultipleShootingSolver.cpp">
<polygon fill="none" stroke="#000000" points="4143.349,-62 4143.349,-81 4292.349,-81 4292.349,-62 4143.349,-62"/>
<text text-anchor="middle" x="4217.849" y="-69" font-family="FreeSans.ttf" font-size="10.00" fill="#000000">MultipleShootingSolver.cpp</text>
</a>
</g>
</g>
<!-- Node33&#45;&gt;Node77 -->
<g id="edge40" class="edge">
<title>Node33&#45;&gt;Node77</title>
<path fill="none" stroke="#191970" d="M3014.9731,-123.4169C3016.2763,-123.2679 3017.5697,-123.1285 3018.849,-123 3512.1815,-73.4589 3640.8906,-140.135 4133.849,-87 4146.6764,-85.6174 4160.4866,-83.3843 4173.1302,-81.0386"/>
<polygon fill="#191970" stroke="#191970" points="3014.3302,-119.9708 3004.8617,-124.7244 3015.228,-126.913 3014.3302,-119.9708"/>
</g>
<!-- Node78 -->
<g id="node41" class="node">
<title>Node78</title>
<g id="a_node41"><a xlink:href="OptimalControlProblem_8cpp.html" target="_top" xlink:title="OptimalControlProblem.cpp">
<polygon fill="none" stroke="#000000" points="4310.849,-62 4310.849,-81 4462.849,-81 4462.849,-62 4310.849,-62"/>
<text text-anchor="middle" x="4386.849" y="-69" font-family="FreeSans.ttf" font-size="10.00" fill="#000000">OptimalControlProblem.cpp</text>
</a>
</g>
</g>
<!-- Node33&#45;&gt;Node78 -->
<g id="edge41" class="edge">
<title>Node33&#45;&gt;Node78</title>
<path fill="none" stroke="#191970" d="M3014.9724,-123.4095C3016.2758,-123.2627 3017.5695,-123.1258 3018.849,-123 3586.56,-67.2005 3734.4971,-146.3396 4301.849,-87 4314.8284,-85.6425 4328.8029,-83.4175 4341.597,-81.0714"/>
<polygon fill="#191970" stroke="#191970" points="3014.3341,-119.9626 3004.8597,-124.7046 3015.2234,-126.9059 3014.3341,-119.9626"/>
</g>
<!-- Node79 -->
<g id="node42" class="node">
<title>Node79</title>
<g id="a_node42"><a xlink:href="QuadraticCost_8cpp.html" target="_top" xlink:title="QuadraticCost.cpp">
<polygon fill="none" stroke="#000000" points="4480.849,-62 4480.849,-81 4586.849,-81 4586.849,-62 4480.849,-62"/>
<text text-anchor="middle" x="4533.849" y="-69" font-family="FreeSans.ttf" font-size="10.00" fill="#000000">QuadraticCost.cpp</text>
</a>
</g>
</g>
<!-- Node33&#45;&gt;Node79 -->
<g id="edge42" class="edge">
<title>Node33&#45;&gt;Node79</title>
<path fill="none" stroke="#191970" d="M3014.9718,-123.4038C3016.2754,-123.2587 3017.5693,-123.1237 3018.849,-123 3661.8299,-60.867 3831.7397,-173.8621 4471.849,-87 4481.524,-85.6871 4491.8737,-83.4453 4501.2909,-81.0683"/>
<polygon fill="#191970" stroke="#191970" points="3014.3371,-119.9562 3004.8582,-124.6893 3015.2198,-126.9004 3014.3371,-119.9562"/>
</g>
<!-- Node80 -->
<g id="node43" class="node">
<title>Node80</title>
<g id="a_node43"><a xlink:href="RK4_8cpp.html" target="_top" xlink:title="RK4.cpp">
<polygon fill="none" stroke="#000000" points="4604.849,-62 4604.849,-81 4660.849,-81 4660.849,-62 4604.849,-62"/>
<text text-anchor="middle" x="4632.849" y="-69" font-family="FreeSans.ttf" font-size="10.00" fill="#000000">RK4.cpp</text>
</a>
</g>
</g>
<!-- Node33&#45;&gt;Node80 -->
<g id="edge43" class="edge">
<title>Node33&#45;&gt;Node80</title>
<path fill="none" stroke="#191970" d="M3014.9715,-123.4004C3016.2752,-123.2564 3017.5692,-123.1224 3018.849,-123 3367.7921,-89.6235 4252.9971,-159.9926 4595.849,-87 4601.8434,-85.7238 4608.0887,-83.4934 4613.7041,-81.1157"/>
<polygon fill="#191970" stroke="#191970" points="3014.3389,-119.9525 3004.8574,-124.6802 3015.2176,-126.8971 3014.3389,-119.9525"/>
</g>
<!-- Node34&#45;&gt;Node36 -->
<g id="edge3" class="edge">
<title>Node34&#45;&gt;Node36</title>
<path fill="none" stroke="#191970" d="M1517.4308,-59.1171C1512.8969,-57.9004 1508.2931,-56.8164 1503.849,-56 1375.7146,-32.4607 984.7403,-17.1624 832.9765,-11.9702"/>
<polygon fill="#191970" stroke="#191970" points="1516.5761,-62.5134 1527.1555,-61.9407 1518.528,-55.7911 1516.5761,-62.5134"/>
</g>
<!-- Node34&#45;&gt;Node38 -->
<g id="edge4" class="edge">
<title>Node34&#45;&gt;Node38</title>
<path fill="none" stroke="#191970" d="M1590.0985,-59.1349C1595.0074,-57.8585 1600.0174,-56.7549 1604.849,-56 1758.8545,-31.9389 4184.6693,-13.5882 4621.6702,-10.4692"/>
<polygon fill="#191970" stroke="#191970" points="1588.9116,-55.8337 1580.254,-61.9407 1590.8304,-62.5656 1588.9116,-55.8337"/>
</g>
<!-- Node92&#45;&gt;Node46 -->
<g id="edge45" class="edge">
<title>Node92&#45;&gt;Node46</title>
<path fill="none" stroke="#191970" d="M507.6035,-114.253C513.2711,-103.3606 520.1789,-90.0846 524.7785,-81.2449"/>
<polygon fill="#191970" stroke="#191970" points="504.36,-112.9041 502.849,-123.3906 510.5697,-116.1352 504.36,-112.9041"/>
</g>
<!-- Node92&#45;&gt;Node48 -->
<g id="edge46" class="edge">
<title>Node92&#45;&gt;Node48</title>
<path fill="none" stroke="#191970" d="M528.9385,-119.3428C555.4107,-107.7139 592.7641,-91.3051 616.1276,-81.0419"/>
<polygon fill="#191970" stroke="#191970" points="527.4718,-116.1642 519.724,-123.3906 530.2872,-122.5731 527.4718,-116.1642"/>
</g>
<!-- Node92&#45;&gt;Node54 -->
<g id="edge47" class="edge">
<title>Node92&#45;&gt;Node54</title>
<path fill="none" stroke="#191970" d="M430.1578,-122.5648C370.1542,-113.2945 280.1557,-99.341 201.849,-87 189.6356,-85.0752 176.5602,-82.9974 164.0905,-81.0078"/>
<polygon fill="#191970" stroke="#191970" points="429.8454,-126.0579 440.2625,-124.1254 430.9139,-119.14 429.8454,-126.0579"/>
</g>
<!-- Node92&#45;&gt;Node55 -->
<g id="edge48" class="edge">
<title>Node92&#45;&gt;Node55</title>
<path fill="none" stroke="#191970" d="M455.4907,-120.4758C422.2813,-110.6567 375.9515,-96.9582 340.7315,-86.5446"/>
<polygon fill="#191970" stroke="#191970" points="454.7669,-123.9115 465.349,-123.3906 456.7518,-117.1988 454.7669,-123.9115"/>
</g>
<!-- Node92&#45;&gt;Node64 -->
<g id="edge49" class="edge">
<title>Node92&#45;&gt;Node64</title>
<path fill="none" stroke="#191970" d="M479.6583,-116.5482C467.1989,-105.2798 451.0959,-90.716 440.6238,-81.2449"/>
<polygon fill="#191970" stroke="#191970" points="477.4596,-119.2787 487.224,-123.3906 482.155,-114.0871 477.4596,-119.2787"/>
</g>
<!-- Node176&#45;&gt;Node42 -->
<g id="edge51" class="edge">
<title>Node176&#45;&gt;Node42</title>
<path fill="none" stroke="#191970" d="M811.4068,-119.7993C841.9118,-108.1468 885.6479,-91.4402 912.8694,-81.0419"/>
<polygon fill="#191970" stroke="#191970" points="810.0979,-116.5526 802.0052,-123.3906 812.5958,-123.0917 810.0979,-116.5526"/>
</g>
<!-- Node176&#45;&gt;Node46 -->
<g id="edge52" class="edge">
<title>Node176&#45;&gt;Node46</title>
<path fill="none" stroke="#191970" d="M735.6031,-124.5387C695.177,-115.9939 631.9265,-101.9522 577.849,-87 571.3499,-85.203 564.4179,-83.0848 557.9014,-81.0011"/>
<polygon fill="#191970" stroke="#191970" points="735.1144,-128.0124 745.6203,-126.6422 736.553,-121.1618 735.1144,-128.0124"/>
</g>
<!-- Node176&#45;&gt;Node48 -->
<g id="edge53" class="edge">
<title>Node176&#45;&gt;Node48</title>
<path fill="none" stroke="#191970" d="M745.9815,-119.3428C719.6983,-107.7139 682.6118,-91.3051 659.4152,-81.0419"/>
<polygon fill="#191970" stroke="#191970" points="744.5692,-122.5452 755.1302,-123.3906 747.4015,-116.1437 744.5692,-122.5452"/>
</g>
<!-- Node176&#45;&gt;Node57 -->
<g id="edge54" class="edge">
<title>Node176&#45;&gt;Node57</title>
<path fill="none" stroke="#191970" d="M776.849,-113.2462C776.849,-102.5519 776.849,-89.814 776.849,-81.2449"/>
<polygon fill="#191970" stroke="#191970" points="773.3491,-113.3906 776.849,-123.3906 780.3491,-113.3907 773.3491,-113.3906"/>
</g>
<!-- Node207&#45;&gt;Node54 -->
<g id="edge63" class="edge">
<title>Node207&#45;&gt;Node54</title>
<path fill="none" stroke="#191970" d="M278.177,-120.6229C236.9753,-108.9459 176.0805,-91.6877 138.5171,-81.0419"/>
<polygon fill="#191970" stroke="#191970" points="277.3673,-124.0312 287.9427,-123.3906 279.276,-117.2965 277.3673,-124.0312"/>
</g>
<!-- Node207&#45;&gt;Node55 -->
<g id="edge64" class="edge">
<title>Node207&#45;&gt;Node55</title>
<path fill="none" stroke="#191970" d="M312.233,-114.5193C307.5811,-105.5789 302.0679,-94.9832 297.6771,-86.5446"/>
<polygon fill="#191970" stroke="#191970" points="309.1283,-116.1352 316.849,-123.3906 315.338,-112.9041 309.1283,-116.1352"/>
</g>
<!-- Node207&#45;&gt;Node64 -->
<g id="edge65" class="edge">
<title>Node207&#45;&gt;Node64</title>
<path fill="none" stroke="#191970" d="M347.4616,-118.415C367.7629,-106.8546 395.5435,-91.035 413.0925,-81.0419"/>
<polygon fill="#191970" stroke="#191970" points="345.6819,-115.4007 338.724,-123.3906 349.1458,-121.4836 345.6819,-115.4007"/>
</g>
</g>
</svg>
