<?xml version="1.0" encoding="UTF-8" standalone="no"?>
<!DOCTYPE svg PUBLIC "-//W3C//DTD SVG 1.1//EN"
 "http://www.w3.org/Graphics/SVG/1.1/DTD/svg11.dtd">
<!-- Generated by graphviz version 2.40.1 (20161225.0304)
 -->
<!-- Title: SpatialMotionVector.h Pages: 1 -->
<svg width="5274pt" height="207pt"
 viewBox="0.00 0.00 5273.59 207.00" xmlns="http://www.w3.org/2000/svg" xmlns:xlink="http://www.w3.org/1999/xlink">
<g id="graph0" class="graph" transform="scale(1 1) rotate(0) translate(4 203)">
<title>SpatialMotionVector.h</title>
<!-- Node32 -->
<g id="node1" class="node">
<title>Node32</title>
<polygon fill="#bfbfbf" stroke="#000000" points="4089.8997,-179.5 4089.8997,-198.5 4211.8997,-198.5 4211.8997,-179.5 4089.8997,-179.5"/>
<text text-anchor="middle" x="4150.8997" y="-186.5" font-family="FreeSans.ttf" font-size="10.00" fill="#000000">SpatialMotionVector.h</text>
</g>
<!-- Node33 -->
<g id="node2" class="node">
<title>Node33</title>
<g id="a_node2"><a xlink:href="EigenHelpers_8h.html" target="_top" xlink:title="EigenHelpers.h">
<polygon fill="none" stroke="#ff0000" points="2655.8997,-123.5 2655.8997,-142.5 2745.8997,-142.5 2745.8997,-123.5 2655.8997,-123.5"/>
<text text-anchor="middle" x="2700.8997" y="-130.5" font-family="FreeSans.ttf" font-size="10.00" fill="#000000">EigenHelpers.h</text>
</a>
</g>
</g>
<!-- Node32&#45;&gt;Node33 -->
<g id="edge1" class="edge">
<title>Node32&#45;&gt;Node33</title>
<path fill="none" stroke="#191970" d="M4079.2072,-186.2312C3822.6196,-176.3216 2954.2242,-142.7836 2746.0322,-134.743"/>
<polygon fill="#191970" stroke="#191970" points="4079.3935,-189.7409 4089.5212,-186.6295 4079.6637,-182.7461 4079.3935,-189.7409"/>
</g>
<!-- Node36 -->
<g id="node4" class="node">
<title>Node36</title>
<g id="a_node4"><a xlink:href="SpatialInertiaRaw_8cpp.html" target="_top" xlink:title="SpatialInertiaRaw.cpp">
<polygon fill="none" stroke="#000000" points="656.8997,-.5 656.8997,-19.5 778.8997,-19.5 778.8997,-.5 656.8997,-.5"/>
<text text-anchor="middle" x="717.8997" y="-7.5" font-family="FreeSans.ttf" font-size="10.00" fill="#000000">SpatialInertiaRaw.cpp</text>
</a>
</g>
</g>
<!-- Node32&#45;&gt;Node36 -->
<g id="edge55" class="edge">
<title>Node32&#45;&gt;Node36</title>
<path fill="none" stroke="#191970" d="M4079.4962,-188.8129C3588.6396,-187.4375 721.7378,-177.9467 335.8997,-143 188.1791,-129.6204 102.5782,-200.3403 6.8997,-87 -1.9877,-76.4719 -2.5229,-66.0519 6.8997,-56 28.987,-32.4375 488.3599,-16.7019 656.7361,-11.7071"/>
<polygon fill="#191970" stroke="#191970" points="4079.6225,-192.3131 4089.6323,-188.8411 4079.6421,-185.3132 4079.6225,-192.3131"/>
</g>
<!-- Node38 -->
<g id="node5" class="node">
<title>Node38</title>
<g id="a_node5"><a xlink:href="SpatialMotionVector_8cpp.html" target="_top" xlink:title="SpatialMotionVector.cpp">
<polygon fill="none" stroke="#000000" points="5021.8997,-.5 5021.8997,-19.5 5155.8997,-19.5 5155.8997,-.5 5021.8997,-.5"/>
<text text-anchor="middle" x="5088.8997" y="-7.5" font-family="FreeSans.ttf" font-size="10.00" fill="#000000">SpatialMotionVector.cpp</text>
</a>
</g>
</g>
<!-- Node32&#45;&gt;Node38 -->
<g id="edge56" class="edge">
<title>Node32&#45;&gt;Node38</title>
<path fill="none" stroke="#191970" d="M4137.2505,-170.7553C4128.0111,-156.0436 4119.5346,-135.7675 4131.8997,-123 4218.8291,-33.2419 5168.9704,-176.7581 5255.8997,-87 5291.5487,-50.191 5216.8544,-29.2706 5156.1645,-18.7846"/>
<polygon fill="#191970" stroke="#191970" points="4134.3991,-172.7863 4142.9224,-179.0795 4140.1839,-168.8447 4134.3991,-172.7863"/>
</g>
<!-- Node81 -->
<g id="node40" class="node">
<title>Node81</title>
<g id="a_node40"><a xlink:href="PredictSensorsMeasurements_8cpp.html" target="_top" xlink:title="PredictSensorsMeasurements.cpp">
<polygon fill="none" stroke="#000000" points="723.3997,-62 723.3997,-81 904.3997,-81 904.3997,-62 723.3997,-62"/>
<text text-anchor="middle" x="813.8997" y="-69" font-family="FreeSans.ttf" font-size="10.00" fill="#000000">PredictSensorsMeasurements.cpp</text>
</a>
</g>
</g>
<!-- Node32&#45;&gt;Node81 -->
<g id="edge64" class="edge">
<title>Node32&#45;&gt;Node81</title>
<path fill="none" stroke="#191970" d="M4079.5256,-187.948C3664.5635,-181.6506 1558.7752,-147.1726 913.8997,-87 898.7688,-85.5881 882.446,-83.3608 867.4644,-81.0302"/>
<polygon fill="#191970" stroke="#191970" points="4079.5365,-191.4485 4089.5884,-188.1002 4079.6425,-184.4493 4079.5365,-191.4485"/>
</g>
<!-- Node92 -->
<g id="node41" class="node">
<title>Node92</title>
<g id="a_node41"><a xlink:href="SpatialAcc_8h.html" target="_top" xlink:title="SpatialAcc.h">
<polygon fill="none" stroke="#ff0000" points="463.3997,-123.5 463.3997,-142.5 540.3997,-142.5 540.3997,-123.5 463.3997,-123.5"/>
<text text-anchor="middle" x="501.8997" y="-130.5" font-family="FreeSans.ttf" font-size="10.00" fill="#000000">SpatialAcc.h</text>
</a>
</g>
</g>
<!-- Node32&#45;&gt;Node92 -->
<g id="edge41" class="edge">
<title>Node32&#45;&gt;Node92</title>
<path fill="none" stroke="#191970" d="M4079.6941,-187.9072C3604.1205,-180.6088 896.5322,-139.0563 540.5259,-133.5928"/>
<polygon fill="#191970" stroke="#191970" points="4079.8019,-191.4092 4089.8545,-188.0632 4079.9094,-184.41 4079.8019,-191.4092"/>
</g>
<!-- Node205 -->
<g id="node42" class="node">
<title>Node205</title>
<g id="a_node42"><a xlink:href="Twist_8h.html" target="_top" xlink:title="Twist.h">
<polygon fill="none" stroke="#ff0000" points="344.8997,-123.5 344.8997,-142.5 394.8997,-142.5 394.8997,-123.5 344.8997,-123.5"/>
<text text-anchor="middle" x="369.8997" y="-130.5" font-family="FreeSans.ttf" font-size="10.00" fill="#000000">Twist.h</text>
</a>
</g>
</g>
<!-- Node32&#45;&gt;Node205 -->
<g id="edge48" class="edge">
<title>Node32&#45;&gt;Node205</title>
<path fill="none" stroke="#191970" d="M4079.4614,-188.5679C3597.4301,-185.5921 827.9429,-167.5221 453.8997,-143 434.1157,-141.703 411.8379,-138.993 395.1984,-136.721"/>
<polygon fill="#191970" stroke="#191970" points="4079.7342,-192.0696 4089.7556,-188.6313 4079.7774,-185.0697 4079.7342,-192.0696"/>
</g>
<!-- Node207 -->
<g id="node43" class="node">
<title>Node207</title>
<g id="a_node43"><a xlink:href="PositionRaw_8cpp.html" target="_top" xlink:title="PositionRaw.cpp">
<polygon fill="none" stroke="#000000" points="4140.8997,-123.5 4140.8997,-142.5 4236.8997,-142.5 4236.8997,-123.5 4140.8997,-123.5"/>
<text text-anchor="middle" x="4188.8997" y="-130.5" font-family="FreeSans.ttf" font-size="10.00" fill="#000000">PositionRaw.cpp</text>
</a>
</g>
</g>
<!-- Node32&#45;&gt;Node207 -->
<g id="edge53" class="edge">
<title>Node32&#45;&gt;Node207</title>
<path fill="none" stroke="#191970" d="M4163.1677,-170.9209C4169.5485,-161.5176 4177.0928,-150.3997 4182.3565,-142.6427"/>
<polygon fill="#191970" stroke="#191970" points="4160.2377,-169.0055 4157.5188,-179.2455 4166.0301,-172.936 4160.2377,-169.0055"/>
</g>
<!-- Node208 -->
<g id="node44" class="node">
<title>Node208</title>
<g id="a_node44"><a xlink:href="RotationRaw_8cpp.html" target="_top" xlink:title="RotationRaw.cpp">
<polygon fill="none" stroke="#000000" points="4254.8997,-123.5 4254.8997,-142.5 4352.8997,-142.5 4352.8997,-123.5 4254.8997,-123.5"/>
<text text-anchor="middle" x="4303.8997" y="-130.5" font-family="FreeSans.ttf" font-size="10.00" fill="#000000">RotationRaw.cpp</text>
</a>
</g>
</g>
<!-- Node32&#45;&gt;Node208 -->
<g id="edge54" class="edge">
<title>Node32&#45;&gt;Node208</title>
<path fill="none" stroke="#191970" d="M4186.6276,-175.9231C4214.5968,-165.686 4252.839,-151.6889 4277.9413,-142.5011"/>
<polygon fill="#191970" stroke="#191970" points="4185.3891,-172.6493 4177.2014,-179.3733 4187.7951,-179.2228 4185.3891,-172.6493"/>
</g>
<!-- Node94 -->
<g id="node45" class="node">
<title>Node94</title>
<g id="a_node45"><a xlink:href="TestUtils_8cpp.html" target="_top" xlink:title="TestUtils.cpp">
<polygon fill="none" stroke="#000000" points="4371.3997,-123.5 4371.3997,-142.5 4450.3997,-142.5 4450.3997,-123.5 4371.3997,-123.5"/>
<text text-anchor="middle" x="4410.8997" y="-130.5" font-family="FreeSans.ttf" font-size="10.00" fill="#000000">TestUtils.cpp</text>
</a>
</g>
</g>
<!-- Node32&#45;&gt;Node94 -->
<g id="edge57" class="edge">
<title>Node32&#45;&gt;Node94</title>
<path fill="none" stroke="#191970" d="M4205.2174,-177.3008C4254.8366,-166.6136 4327.026,-151.0651 4371.3666,-141.5148"/>
<polygon fill="#191970" stroke="#191970" points="4204.3387,-173.9097 4195.2999,-179.4369 4205.8127,-180.7528 4204.3387,-173.9097"/>
</g>
<!-- Node95 -->
<g id="node46" class="node">
<title>Node95</title>
<g id="a_node46"><a xlink:href="DynamicsUtils_8h.html" target="_top" xlink:title="DynamicsUtils.h">
<polygon fill="none" stroke="#000000" points="4468.3997,-123.5 4468.3997,-142.5 4565.3997,-142.5 4565.3997,-123.5 4468.3997,-123.5"/>
<text text-anchor="middle" x="4516.8997" y="-130.5" font-family="FreeSans.ttf" font-size="10.00" fill="#000000">DynamicsUtils.h</text>
</a>
</g>
</g>
<!-- Node32&#45;&gt;Node95 -->
<g id="edge58" class="edge">
<title>Node32&#45;&gt;Node95</title>
<path fill="none" stroke="#191970" d="M4222.1196,-178.9316C4284.8012,-169.9429 4378.5027,-156.1965 4459.8997,-143 4462.5774,-142.5659 4465.3244,-142.1121 4468.0962,-141.6476"/>
<polygon fill="#191970" stroke="#191970" points="4221.3502,-175.506 4211.947,-180.3877 4222.3421,-182.4354 4221.3502,-175.506"/>
</g>
<!-- Node209 -->
<g id="node47" class="node">
<title>Node209</title>
<g id="a_node47"><a xlink:href="PrismaticJoint_8h.html" target="_top" xlink:title="PrismaticJoint.h">
<polygon fill="none" stroke="#ff0000" points="4583.3997,-123.5 4583.3997,-142.5 4676.3997,-142.5 4676.3997,-123.5 4583.3997,-123.5"/>
<text text-anchor="middle" x="4629.8997" y="-130.5" font-family="FreeSans.ttf" font-size="10.00" fill="#000000">PrismaticJoint.h</text>
</a>
</g>
</g>
<!-- Node32&#45;&gt;Node209 -->
<g id="edge59" class="edge">
<title>Node32&#45;&gt;Node209</title>
<path fill="none" stroke="#191970" d="M4222.1492,-182.8446C4306.5569,-175.1887 4451.3219,-160.9143 4574.8997,-143 4577.5891,-142.6101 4580.3481,-142.1859 4583.1293,-141.7396"/>
<polygon fill="#191970" stroke="#191970" points="4221.8056,-179.3613 4212.1603,-183.7452 4222.4342,-186.333 4221.8056,-179.3613"/>
</g>
<!-- Node211 -->
<g id="node48" class="node">
<title>Node211</title>
<g id="a_node48"><a xlink:href="RevoluteJoint_8h.html" target="_top" xlink:title="RevoluteJoint.h">
<polygon fill="none" stroke="#ff0000" points="3994.8997,-123.5 3994.8997,-142.5 4084.8997,-142.5 4084.8997,-123.5 3994.8997,-123.5"/>
<text text-anchor="middle" x="4039.8997" y="-130.5" font-family="FreeSans.ttf" font-size="10.00" fill="#000000">RevoluteJoint.h</text>
</a>
</g>
</g>
<!-- Node32&#45;&gt;Node211 -->
<g id="edge60" class="edge">
<title>Node32&#45;&gt;Node211</title>
<path fill="none" stroke="#191970" d="M4122.8263,-174.8368C4102.7613,-164.7139 4076.3076,-151.3679 4058.7323,-142.5011"/>
<polygon fill="#191970" stroke="#191970" points="4121.3135,-177.9938 4131.8181,-179.3733 4124.4665,-171.7441 4121.3135,-177.9938"/>
</g>
<!-- Node195 -->
<g id="node49" class="node">
<title>Node195</title>
<g id="a_node49"><a xlink:href="FixedJoint_8cpp.html" target="_top" xlink:title="FixedJoint.cpp">
<polygon fill="none" stroke="#000000" points="4694.8997,-123.5 4694.8997,-142.5 4778.8997,-142.5 4778.8997,-123.5 4694.8997,-123.5"/>
<text text-anchor="middle" x="4736.8997" y="-130.5" font-family="FreeSans.ttf" font-size="10.00" fill="#000000">FixedJoint.cpp</text>
</a>
</g>
</g>
<!-- Node32&#45;&gt;Node195 -->
<g id="edge62" class="edge">
<title>Node32&#45;&gt;Node195</title>
<path fill="none" stroke="#191970" d="M4222.3833,-185.311C4325.2402,-179.4463 4520.7849,-166.2171 4685.8997,-143 4688.7589,-142.598 4691.7001,-142.1402 4694.6583,-141.6469"/>
<polygon fill="#191970" stroke="#191970" points="4221.9062,-181.8323 4212.1189,-185.8893 4222.3,-188.8212 4221.9062,-181.8323"/>
</g>
<!-- Node110 -->
<g id="node50" class="node">
<title>Node110</title>
<g id="a_node50"><a xlink:href="JointState_8cpp.html" target="_top" xlink:title="JointState.cpp">
<polygon fill="none" stroke="#000000" points="4796.8997,-123.5 4796.8997,-142.5 4880.8997,-142.5 4880.8997,-123.5 4796.8997,-123.5"/>
<text text-anchor="middle" x="4838.8997" y="-130.5" font-family="FreeSans.ttf" font-size="10.00" fill="#000000">JointState.cpp</text>
</a>
</g>
</g>
<!-- Node32&#45;&gt;Node110 -->
<g id="edge63" class="edge">
<title>Node32&#45;&gt;Node110</title>
<path fill="none" stroke="#191970" d="M4222.2006,-186.6786C4340.2773,-182.2017 4583.6663,-170.2942 4787.8997,-143 4790.7616,-142.6175 4793.7048,-142.1744 4796.6644,-141.6918"/>
<polygon fill="#191970" stroke="#191970" points="4222.0624,-183.1812 4212.1997,-187.0513 4222.3231,-190.1764 4222.0624,-183.1812"/>
</g>
<!-- Node34 -->
<g id="node3" class="node">
<title>Node34</title>
<g id="a_node3"><a xlink:href="PrivateUtils_8h.html" target="_top" xlink:title="PrivateUtils.h">
<polygon fill="none" stroke="#ff0000" points="1406.3997,-62 1406.3997,-81 1489.3997,-81 1489.3997,-62 1406.3997,-62"/>
<text text-anchor="middle" x="1447.8997" y="-69" font-family="FreeSans.ttf" font-size="10.00" fill="#000000">PrivateUtils.h</text>
</a>
</g>
</g>
<!-- Node33&#45;&gt;Node34 -->
<g id="edge2" class="edge">
<title>Node33&#45;&gt;Node34</title>
<path fill="none" stroke="#191970" d="M2645.427,-132.7635C2440.1421,-131.5951 1723.8396,-124.8373 1498.8997,-87 1490.869,-85.6491 1482.333,-83.3955 1474.5881,-81.0193"/>
<polygon fill="#191970" stroke="#191970" points="2645.6472,-136.2646 2655.6662,-132.8195 2645.6855,-129.2647 2645.6472,-136.2646"/>
</g>
<!-- Node33&#45;&gt;Node38 -->
<g id="edge12" class="edge">
<title>Node33&#45;&gt;Node38</title>
<path fill="none" stroke="#191970" d="M2756.1608,-132.3841C3110.2302,-128.3835 5046.5418,-105.6635 5069.8997,-87 5090.2303,-70.7554 5090.8976,-36.5274 5089.8544,-19.7239"/>
<polygon fill="#191970" stroke="#191970" points="2756.1103,-128.8844 2746.1504,-132.497 2756.1893,-135.8839 2756.1103,-128.8844"/>
</g>
<!-- Node42 -->
<g id="node6" class="node">
<title>Node42</title>
<g id="a_node6"><a xlink:href="ArticulatedBodyInertia_8cpp.html" target="_top" xlink:title="ArticulatedBodyInertia.cpp">
<polygon fill="none" stroke="#000000" points="558.8997,-62 558.8997,-81 704.8997,-81 704.8997,-62 558.8997,-62"/>
<text text-anchor="middle" x="631.8997" y="-69" font-family="FreeSans.ttf" font-size="10.00" fill="#000000">ArticulatedBodyInertia.cpp</text>
</a>
</g>
</g>
<!-- Node33&#45;&gt;Node42 -->
<g id="edge5" class="edge">
<title>Node33&#45;&gt;Node42</title>
<path fill="none" stroke="#191970" d="M2645.4576,-132.2589C2344.1903,-128.1592 910.281,-107.6928 713.8997,-87 701.2203,-85.664 687.5685,-83.4149 675.1111,-81.0384"/>
<polygon fill="#191970" stroke="#191970" points="2645.6463,-135.7617 2655.6929,-132.3978 2645.7414,-128.7623 2645.6463,-135.7617"/>
</g>
<!-- Node43 -->
<g id="node7" class="node">
<title>Node43</title>
<g id="a_node7"><a xlink:href="CubicSpline_8cpp.html" target="_top" xlink:title="CubicSpline.cpp">
<polygon fill="none" stroke="#000000" points="1507.8997,-62 1507.8997,-81 1601.8997,-81 1601.8997,-62 1507.8997,-62"/>
<text text-anchor="middle" x="1554.8997" y="-69" font-family="FreeSans.ttf" font-size="10.00" fill="#000000">CubicSpline.cpp</text>
</a>
</g>
</g>
<!-- Node33&#45;&gt;Node43 -->
<g id="edge6" class="edge">
<title>Node33&#45;&gt;Node43</title>
<path fill="none" stroke="#191970" d="M2645.5666,-132.3297C2453.0812,-129.7381 1813.4525,-118.8781 1610.8997,-87 1602.2301,-85.6356 1592.9854,-83.4084 1584.5579,-81.0624"/>
<polygon fill="#191970" stroke="#191970" points="2645.6859,-135.8315 2655.7315,-132.4645 2645.7788,-128.8322 2645.6859,-135.8315"/>
</g>
<!-- Node44 -->
<g id="node8" class="node">
<title>Node44</title>
<g id="a_node8"><a xlink:href="Direction_8cpp.html" target="_top" xlink:title="Direction.cpp">
<polygon fill="none" stroke="#000000" points="1620.3997,-62 1620.3997,-81 1701.3997,-81 1701.3997,-62 1620.3997,-62"/>
<text text-anchor="middle" x="1660.8997" y="-69" font-family="FreeSans.ttf" font-size="10.00" fill="#000000">Direction.cpp</text>
</a>
</g>
</g>
<!-- Node33&#45;&gt;Node44 -->
<g id="edge7" class="edge">
<title>Node33&#45;&gt;Node44</title>
<path fill="none" stroke="#191970" d="M2645.765,-132.3236C2465.0533,-129.8114 1891.8263,-119.4244 1709.8997,-87 1702.2577,-85.638 1694.1506,-83.4115 1686.7772,-81.0655"/>
<polygon fill="#191970" stroke="#191970" points="2645.7929,-135.8242 2655.8398,-132.4611 2645.8885,-128.8249 2645.7929,-135.8242"/>
</g>
<!-- Node45 -->
<g id="node9" class="node">
<title>Node45</title>
<g id="a_node9"><a xlink:href="InertiaNonLinearParametrization_8cpp.html" target="_top" xlink:title="InertiaNonLinearParametrization.cpp">
<polygon fill="none" stroke="#000000" points="1719.3997,-62 1719.3997,-81 1914.3997,-81 1914.3997,-62 1719.3997,-62"/>
<text text-anchor="middle" x="1816.8997" y="-69" font-family="FreeSans.ttf" font-size="10.00" fill="#000000">InertiaNonLinearParametrization.cpp</text>
</a>
</g>
</g>
<!-- Node33&#45;&gt;Node45 -->
<g id="edge8" class="edge">
<title>Node33&#45;&gt;Node45</title>
<path fill="none" stroke="#191970" d="M2645.3188,-131.358C2517.5031,-127.2227 2192.9219,-114.6729 1922.8997,-87 1907.5434,-85.4262 1891.0022,-83.2436 1875.6587,-81.0124"/>
<polygon fill="#191970" stroke="#191970" points="2645.5197,-134.8661 2655.6263,-131.6869 2645.7431,-127.8696 2645.5197,-134.8661"/>
</g>
<!-- Node46 -->
<g id="node10" class="node">
<title>Node46</title>
<g id="a_node10"><a xlink:href="Rotation_8cpp.html" target="_top" xlink:title="Rotation.cpp">
<polygon fill="none" stroke="#000000" points="463.3997,-62 463.3997,-81 540.3997,-81 540.3997,-62 463.3997,-62"/>
<text text-anchor="middle" x="501.8997" y="-69" font-family="FreeSans.ttf" font-size="10.00" fill="#000000">Rotation.cpp</text>
</a>
</g>
</g>
<!-- Node33&#45;&gt;Node46 -->
<g id="edge9" class="edge">
<title>Node33&#45;&gt;Node46</title>
<path fill="none" stroke="#191970" d="M2645.4497,-132.777C2329.3562,-131.3776 761.7038,-122.6742 549.8997,-87 542.3006,-85.7201 534.254,-83.4885 526.9655,-81.1109"/>
<polygon fill="#191970" stroke="#191970" points="2645.7169,-136.2781 2655.7321,-132.8219 2645.7475,-129.2782 2645.7169,-136.2781"/>
</g>
<!-- Node47 -->
<g id="node11" class="node">
<title>Node47</title>
<g id="a_node11"><a xlink:href="SpatialForceVector_8cpp.html" target="_top" xlink:title="SpatialForceVector.cpp">
<polygon fill="none" stroke="#000000" points="1932.3997,-62 1932.3997,-81 2059.3997,-81 2059.3997,-62 1932.3997,-62"/>
<text text-anchor="middle" x="1995.8997" y="-69" font-family="FreeSans.ttf" font-size="10.00" fill="#000000">SpatialForceVector.cpp</text>
</a>
</g>
</g>
<!-- Node33&#45;&gt;Node47 -->
<g id="edge10" class="edge">
<title>Node33&#45;&gt;Node47</title>
<path fill="none" stroke="#191970" d="M2645.5465,-131.572C2535.1627,-128.153 2280.0193,-117.3883 2067.8997,-87 2057.2677,-85.4769 2045.861,-83.2845 2035.3327,-81.026"/>
<polygon fill="#191970" stroke="#191970" points="2645.6696,-135.0772 2655.7706,-131.8803 2645.8807,-128.0804 2645.6696,-135.0772"/>
</g>
<!-- Node48 -->
<g id="node12" class="node">
<title>Node48</title>
<g id="a_node12"><a xlink:href="SpatialInertia_8cpp.html" target="_top" xlink:title="SpatialInertia.cpp">
<polygon fill="none" stroke="#000000" points="15.8997,-62 15.8997,-81 117.8997,-81 117.8997,-62 15.8997,-62"/>
<text text-anchor="middle" x="66.8997" y="-69" font-family="FreeSans.ttf" font-size="10.00" fill="#000000">SpatialInertia.cpp</text>
</a>
</g>
</g>
<!-- Node33&#45;&gt;Node48 -->
<g id="edge11" class="edge">
<title>Node33&#45;&gt;Node48</title>
<path fill="none" stroke="#191970" d="M2645.5882,-132.7914C2294.6194,-131.3646 384.1328,-122.0274 126.8997,-87 117.4121,-85.7081 107.2694,-83.441 98.0739,-81.033"/>
<polygon fill="#191970" stroke="#191970" points="2645.7385,-136.292 2655.7525,-132.8323 2645.7667,-129.292 2645.7385,-136.292"/>
</g>
<!-- Node49 -->
<g id="node13" class="node">
<title>Node49</title>
<g id="a_node13"><a xlink:href="TransformDerivative_8cpp.html" target="_top" xlink:title="TransformDerivative.cpp">
<polygon fill="none" stroke="#000000" points="2077.3997,-62 2077.3997,-81 2214.3997,-81 2214.3997,-62 2077.3997,-62"/>
<text text-anchor="middle" x="2145.8997" y="-69" font-family="FreeSans.ttf" font-size="10.00" fill="#000000">TransformDerivative.cpp</text>
</a>
</g>
</g>
<!-- Node33&#45;&gt;Node49 -->
<g id="edge13" class="edge">
<title>Node33&#45;&gt;Node49</title>
<path fill="none" stroke="#191970" d="M2645.5188,-129.4655C2556.3848,-123.3718 2375.7176,-109.3476 2223.8997,-87 2212.8357,-85.3714 2200.9644,-83.2216 2189.9042,-81.0435"/>
<polygon fill="#191970" stroke="#191970" points="2645.4549,-132.9691 2655.6683,-130.1521 2645.9274,-125.9851 2645.4549,-132.9691"/>
</g>
<!-- Node50 -->
<g id="node14" class="node">
<title>Node50</title>
<g id="a_node14"><a xlink:href="GravityCompensationHelpers_8h.html" target="_top" xlink:title="GravityCompensationHelpers.h">
<polygon fill="none" stroke="#ff0000" points="2232.8997,-62 2232.8997,-81 2402.8997,-81 2402.8997,-62 2232.8997,-62"/>
<text text-anchor="middle" x="2317.8997" y="-69" font-family="FreeSans.ttf" font-size="10.00" fill="#000000">GravityCompensationHelpers.h</text>
</a>
</g>
</g>
<!-- Node33&#45;&gt;Node50 -->
<g id="edge14" class="edge">
<title>Node33&#45;&gt;Node50</title>
<path fill="none" stroke="#191970" d="M2645.7593,-124.317C2587.5941,-115.1357 2493.2739,-100.1851 2411.8997,-87 2400.1444,-85.0953 2387.5659,-83.0359 2375.5571,-81.0595"/>
<polygon fill="#191970" stroke="#191970" points="2645.4113,-127.8053 2655.8346,-125.9067 2646.5024,-120.8908 2645.4113,-127.8053"/>
</g>
<!-- Node52 -->
<g id="node15" class="node">
<title>Node52</title>
<g id="a_node15"><a xlink:href="BerdyHelper_8cpp.html" target="_top" xlink:title="BerdyHelper.cpp">
<polygon fill="none" stroke="#000000" points="2421.3997,-62 2421.3997,-81 2518.3997,-81 2518.3997,-62 2421.3997,-62"/>
<text text-anchor="middle" x="2469.8997" y="-69" font-family="FreeSans.ttf" font-size="10.00" fill="#000000">BerdyHelper.cpp</text>
</a>
</g>
</g>
<!-- Node33&#45;&gt;Node52 -->
<g id="edge15" class="edge">
<title>Node33&#45;&gt;Node52</title>
<path fill="none" stroke="#191970" d="M2654.6058,-120.8563C2619.5331,-111.6331 2570.1626,-98.6007 2526.8997,-87 2519.7679,-85.0876 2512.139,-83.0249 2504.8567,-81.0477"/>
<polygon fill="#191970" stroke="#191970" points="2653.9934,-124.3142 2664.5546,-123.4713 2655.7729,-117.5441 2653.9934,-124.3142"/>
</g>
<!-- Node53 -->
<g id="node16" class="node">
<title>Node53</title>
<g id="a_node16"><a xlink:href="BerdySparseMAPSolver_8cpp.html" target="_top" xlink:title="BerdySparseMAPSolver.cpp">
<polygon fill="none" stroke="#000000" points="2536.3997,-62 2536.3997,-81 2685.3997,-81 2685.3997,-62 2536.3997,-62"/>
<text text-anchor="middle" x="2610.8997" y="-69" font-family="FreeSans.ttf" font-size="10.00" fill="#000000">BerdySparseMAPSolver.cpp</text>
</a>
</g>
</g>
<!-- Node33&#45;&gt;Node53 -->
<g id="edge16" class="edge">
<title>Node33&#45;&gt;Node53</title>
<path fill="none" stroke="#191970" d="M2678.1708,-117.4685C2661.393,-106.0037 2639.0923,-90.765 2624.8635,-81.0419"/>
<polygon fill="#191970" stroke="#191970" points="2676.6061,-120.6384 2686.8372,-123.3906 2680.5554,-114.8589 2676.6061,-120.6384"/>
</g>
<!-- Node54 -->
<g id="node17" class="node">
<title>Node54</title>
<g id="a_node17"><a xlink:href="ExternalWrenchesEstimation_8cpp.html" target="_top" xlink:title="ExternalWrenchesEstimation.cpp">
<polygon fill="none" stroke="#000000" points="2703.3997,-62 2703.3997,-81 2880.3997,-81 2880.3997,-62 2703.3997,-62"/>
<text text-anchor="middle" x="2791.8997" y="-69" font-family="FreeSans.ttf" font-size="10.00" fill="#000000">ExternalWrenchesEstimation.cpp</text>
</a>
</g>
</g>
<!-- Node33&#45;&gt;Node54 -->
<g id="edge17" class="edge">
<title>Node33&#45;&gt;Node54</title>
<path fill="none" stroke="#191970" d="M2723.4115,-117.786C2740.4272,-106.2864 2763.2606,-90.855 2777.7808,-81.0419"/>
<polygon fill="#191970" stroke="#191970" points="2721.444,-114.8913 2715.1185,-123.3906 2725.3636,-120.691 2721.444,-114.8913"/>
</g>
<!-- Node55 -->
<g id="node18" class="node">
<title>Node55</title>
<g id="a_node18"><a xlink:href="ExtWrenchesAndJointTorquesEstimator_8cpp.html" target="_top" xlink:title="ExtWrenchesAndJointTorques\lEstimator.cpp">
<polygon fill="none" stroke="#000000" points="2897.8997,-56.5 2897.8997,-86.5 3055.8997,-86.5 3055.8997,-56.5 2897.8997,-56.5"/>
<text text-anchor="start" x="2905.8997" y="-74.5" font-family="FreeSans.ttf" font-size="10.00" fill="#000000">ExtWrenchesAndJointTorques</text>
<text text-anchor="middle" x="2976.8997" y="-63.5" font-family="FreeSans.ttf" font-size="10.00" fill="#000000">Estimator.cpp</text>
</a>
</g>
</g>
<!-- Node33&#45;&gt;Node55 -->
<g id="edge18" class="edge">
<title>Node33&#45;&gt;Node55</title>
<path fill="none" stroke="#191970" d="M2753.7065,-121.2333C2798.0022,-111.363 2861.5341,-97.2065 2909.496,-86.5193"/>
<polygon fill="#191970" stroke="#191970" points="2752.7213,-117.8669 2743.7219,-123.4581 2754.2438,-124.6993 2752.7213,-117.8669"/>
</g>
<!-- Node56 -->
<g id="node19" class="node">
<title>Node56</title>
<g id="a_node19"><a xlink:href="SimpleLeggedOdometry_8cpp.html" target="_top" xlink:title="SimpleLeggedOdometry.cpp">
<polygon fill="none" stroke="#000000" points="3074.3997,-62 3074.3997,-81 3227.3997,-81 3227.3997,-62 3074.3997,-62"/>
<text text-anchor="middle" x="3150.8997" y="-69" font-family="FreeSans.ttf" font-size="10.00" fill="#000000">SimpleLeggedOdometry.cpp</text>
</a>
</g>
</g>
<!-- Node33&#45;&gt;Node56 -->
<g id="edge19" class="edge">
<title>Node33&#45;&gt;Node56</title>
<path fill="none" stroke="#191970" d="M2756.2419,-126.9236C2827.696,-118.8679 2955.8294,-103.709 3064.8997,-87 3076.4468,-85.2311 3088.8279,-83.124 3100.4967,-81.0422"/>
<polygon fill="#191970" stroke="#191970" points="2755.6668,-123.4661 2746.1197,-128.06 2756.4478,-130.4224 2755.6668,-123.4661"/>
</g>
<!-- Node57 -->
<g id="node20" class="node">
<title>Node57</title>
<g id="a_node20"><a xlink:href="KinDynComputations_8cpp.html" target="_top" xlink:title="KinDynComputations.cpp">
<polygon fill="none" stroke="#000000" points="135.8997,-62 135.8997,-81 275.8997,-81 275.8997,-62 135.8997,-62"/>
<text text-anchor="middle" x="205.8997" y="-69" font-family="FreeSans.ttf" font-size="10.00" fill="#000000">KinDynComputations.cpp</text>
</a>
</g>
</g>
<!-- Node33&#45;&gt;Node57 -->
<g id="edge20" class="edge">
<title>Node33&#45;&gt;Node57</title>
<path fill="none" stroke="#191970" d="M2645.8244,-132.529C2308.3483,-129.5661 526.4293,-112.7936 284.8997,-87 272.6697,-85.6939 259.5129,-83.4542 247.5115,-81.0771"/>
<polygon fill="#191970" stroke="#191970" points="2645.8146,-136.0289 2655.8448,-132.6166 2645.8759,-129.0292 2645.8146,-136.0289"/>
</g>
<!-- Node58 -->
<g id="node21" class="node">
<title>Node58</title>
<g id="a_node21"><a xlink:href="BoundingBoxHelpers_8cpp.html" target="_top" xlink:title="BoundingBoxHelpers.cpp">
<polygon fill="none" stroke="#000000" points="3245.3997,-62 3245.3997,-81 3384.3997,-81 3384.3997,-62 3245.3997,-62"/>
<text text-anchor="middle" x="3314.8997" y="-69" font-family="FreeSans.ttf" font-size="10.00" fill="#000000">BoundingBoxHelpers.cpp</text>
</a>
</g>
</g>
<!-- Node33&#45;&gt;Node58 -->
<g id="edge21" class="edge">
<title>Node33&#45;&gt;Node58</title>
<path fill="none" stroke="#191970" d="M2756.3786,-130.2087C2853.7882,-124.8672 3061.7674,-111.4957 3235.8997,-87 3247.2489,-85.4035 3259.433,-83.2394 3270.7526,-81.0352"/>
<polygon fill="#191970" stroke="#191970" points="2755.9742,-126.7254 2746.178,-130.7608 2756.3525,-133.7152 2755.9742,-126.7254"/>
</g>
<!-- Node59 -->
<g id="node22" class="node">
<title>Node59</title>
<g id="a_node22"><a xlink:href="ConvexHullHelpers_8cpp.html" target="_top" xlink:title="ConvexHullHelpers.cpp">
<polygon fill="none" stroke="#000000" points="3402.3997,-62 3402.3997,-81 3533.3997,-81 3533.3997,-62 3402.3997,-62"/>
<text text-anchor="middle" x="3467.8997" y="-69" font-family="FreeSans.ttf" font-size="10.00" fill="#000000">ConvexHullHelpers.cpp</text>
</a>
</g>
</g>
<!-- Node33&#45;&gt;Node59 -->
<g id="edge22" class="edge">
<title>Node33&#45;&gt;Node59</title>
<path fill="none" stroke="#191970" d="M2756.2439,-131.8996C2873.9268,-128.9947 3157.5123,-118.9926 3392.8997,-87 3403.9666,-85.4958 3415.8458,-83.31 3426.8127,-81.0517"/>
<polygon fill="#191970" stroke="#191970" points="2755.9612,-128.4053 2746.0478,-132.1437 2756.1287,-135.4033 2755.9612,-128.4053"/>
</g>
<!-- Node60 -->
<g id="node23" class="node">
<title>Node60</title>
<g id="a_node23"><a xlink:href="InverseKinematics_8cpp.html" target="_top" xlink:title="InverseKinematics.cpp">
<polygon fill="none" stroke="#000000" points="3551.8997,-62 3551.8997,-81 3679.8997,-81 3679.8997,-62 3551.8997,-62"/>
<text text-anchor="middle" x="3615.8997" y="-69" font-family="FreeSans.ttf" font-size="10.00" fill="#000000">InverseKinematics.cpp</text>
</a>
</g>
</g>
<!-- Node33&#45;&gt;Node60 -->
<g id="edge23" class="edge">
<title>Node33&#45;&gt;Node60</title>
<path fill="none" stroke="#191970" d="M2756.1234,-131.0765C2917.9328,-125.2666 3389.1279,-107.0598 3541.8997,-87 3552.9619,-85.5475 3564.8362,-83.3507 3575.7638,-81.0641"/>
<polygon fill="#191970" stroke="#191970" points="2755.788,-127.5862 2745.9194,-131.4412 2756.038,-134.5817 2755.788,-127.5862"/>
</g>
<!-- Node61 -->
<g id="node24" class="node">
<title>Node61</title>
<g id="a_node24"><a xlink:href="InverseKinematicsData_8cpp.html" target="_top" xlink:title="InverseKinematicsData.cpp">
<polygon fill="none" stroke="#000000" points="294.3997,-62 294.3997,-81 445.3997,-81 445.3997,-62 294.3997,-62"/>
<text text-anchor="middle" x="369.8997" y="-69" font-family="FreeSans.ttf" font-size="10.00" fill="#000000">InverseKinematicsData.cpp</text>
</a>
</g>
</g>
<!-- Node33&#45;&gt;Node61 -->
<g id="edge24" class="edge">
<title>Node33&#45;&gt;Node61</title>
<path fill="none" stroke="#191970" d="M2645.6248,-132.4052C2321.8338,-128.8497 677.705,-109.7878 453.8997,-87 440.9169,-85.6781 426.9339,-83.4334 414.1726,-81.0567"/>
<polygon fill="#191970" stroke="#191970" points="2645.6644,-135.9058 2655.7022,-132.5156 2645.7411,-128.9062 2645.6644,-135.9058"/>
</g>
<!-- Node62 -->
<g id="node25" class="node">
<title>Node62</title>
<g id="a_node25"><a xlink:href="InverseKinematicsNLP_8cpp.html" target="_top" xlink:title="InverseKinematicsNLP.cpp">
<polygon fill="none" stroke="#000000" points="3698.3997,-62 3698.3997,-81 3843.3997,-81 3843.3997,-62 3698.3997,-62"/>
<text text-anchor="middle" x="3770.8997" y="-69" font-family="FreeSans.ttf" font-size="10.00" fill="#000000">InverseKinematicsNLP.cpp</text>
</a>
</g>
</g>
<!-- Node33&#45;&gt;Node62 -->
<g id="edge25" class="edge">
<title>Node33&#45;&gt;Node62</title>
<path fill="none" stroke="#191970" d="M2756.05,-131.4527C2936.164,-126.2391 3506.0216,-108.4342 3688.8997,-87 3701.2749,-85.5496 3714.5895,-83.3244 3726.8158,-81.0087"/>
<polygon fill="#191970" stroke="#191970" points="2755.9018,-127.9554 2746.0068,-131.7421 2756.1035,-134.9525 2755.9018,-127.9554"/>
</g>
<!-- Node63 -->
<g id="node26" class="node">
<title>Node63</title>
<g id="a_node26"><a xlink:href="DenavitHartenberg_8cpp.html" target="_top" xlink:title="DenavitHartenberg.cpp">
<polygon fill="none" stroke="#000000" points="5116.8997,-62 5116.8997,-81 5246.8997,-81 5246.8997,-62 5116.8997,-62"/>
<text text-anchor="middle" x="5181.8997" y="-69" font-family="FreeSans.ttf" font-size="10.00" fill="#000000">DenavitHartenberg.cpp</text>
</a>
</g>
</g>
<!-- Node33&#45;&gt;Node63 -->
<g id="edge26" class="edge">
<title>Node33&#45;&gt;Node63</title>
<path fill="none" stroke="#191970" d="M2756.1949,-132.5205C3093.0689,-129.5221 4862.8989,-112.6438 5102.8997,-87 5115.1297,-85.6932 5128.2865,-83.4533 5140.2878,-81.0762"/>
<polygon fill="#191970" stroke="#191970" points="2756.1579,-129.0206 2746.1894,-132.6092 2756.2201,-136.0203 2756.1579,-129.0206"/>
</g>
<!-- Node64 -->
<g id="node27" class="node">
<title>Node64</title>
<g id="a_node27"><a xlink:href="Dynamics_8cpp.html" target="_top" xlink:title="Dynamics.cpp">
<polygon fill="none" stroke="#000000" points="3861.8997,-62 3861.8997,-81 3947.8997,-81 3947.8997,-62 3861.8997,-62"/>
<text text-anchor="middle" x="3904.8997" y="-69" font-family="FreeSans.ttf" font-size="10.00" fill="#000000">Dynamics.cpp</text>
</a>
</g>
</g>
<!-- Node33&#45;&gt;Node64 -->
<g id="edge27" class="edge">
<title>Node33&#45;&gt;Node64</title>
<path fill="none" stroke="#191970" d="M2756.3111,-132.5779C2955.8436,-130.7788 3637.1657,-122.1454 3851.8997,-87 3860.2253,-85.6373 3869.0898,-83.38 3877.1388,-81.004"/>
<polygon fill="#191970" stroke="#191970" points="2756.0376,-129.0801 2746.0688,-132.668 2756.0992,-136.0798 2756.0376,-129.0801"/>
</g>
<!-- Node65 -->
<g id="node28" class="node">
<title>Node65</title>
<g id="a_node28"><a xlink:href="DynamicsLinearization_8cpp.html" target="_top" xlink:title="DynamicsLinearization.cpp">
<polygon fill="none" stroke="#000000" points="3966.3997,-62 3966.3997,-81 4115.3997,-81 4115.3997,-62 3966.3997,-62"/>
<text text-anchor="middle" x="4040.8997" y="-69" font-family="FreeSans.ttf" font-size="10.00" fill="#000000">DynamicsLinearization.cpp</text>
</a>
</g>
</g>
<!-- Node33&#45;&gt;Node65 -->
<g id="edge28" class="edge">
<title>Node33&#45;&gt;Node65</title>
<path fill="none" stroke="#191970" d="M2756.2812,-132.0474C2967.0313,-128.2554 3719.0778,-113.1556 3956.8997,-87 3969.7241,-85.5896 3983.5334,-83.3476 3996.177,-81.0023"/>
<polygon fill="#191970" stroke="#191970" points="2756.0113,-128.5516 2746.0755,-132.2298 2756.1365,-135.5505 2756.0113,-128.5516"/>
</g>
<!-- Node66 -->
<g id="node29" class="node">
<title>Node66</title>
<g id="a_node29"><a xlink:href="DynamicsLinearizationHelpers_8cpp.html" target="_top" xlink:title="DynamicsLinearizationHelpers.cpp">
<polygon fill="none" stroke="#000000" points="4132.8997,-62 4132.8997,-81 4318.8997,-81 4318.8997,-62 4132.8997,-62"/>
<text text-anchor="middle" x="4225.8997" y="-69" font-family="FreeSans.ttf" font-size="10.00" fill="#000000">DynamicsLinearizationHelpers.cpp</text>
</a>
</g>
</g>
<!-- Node33&#45;&gt;Node66 -->
<g id="edge29" class="edge">
<title>Node33&#45;&gt;Node66</title>
<path fill="none" stroke="#191970" d="M2755.9825,-132.1056C2983.6266,-128.2726 3851.8563,-112.2695 4124.8997,-87 4140.1795,-85.5859 4156.6647,-83.3578 4171.7962,-81.0272"/>
<polygon fill="#191970" stroke="#191970" points="2755.8847,-128.6067 2745.9447,-132.2737 2756.002,-135.6057 2755.8847,-128.6067"/>
</g>
<!-- Node67 -->
<g id="node30" class="node">
<title>Node67</title>
<g id="a_node30"><a xlink:href="Jacobians_8cpp.html" target="_top" xlink:title="Jacobians.cpp">
<polygon fill="none" stroke="#000000" points="4337.3997,-62 4337.3997,-81 4420.3997,-81 4420.3997,-62 4337.3997,-62"/>
<text text-anchor="middle" x="4378.8997" y="-69" font-family="FreeSans.ttf" font-size="10.00" fill="#000000">Jacobians.cpp</text>
</a>
</g>
</g>
<!-- Node33&#45;&gt;Node67 -->
<g id="edge30" class="edge">
<title>Node33&#45;&gt;Node67</title>
<path fill="none" stroke="#191970" d="M2756.2689,-132.3108C3023.1461,-128.8706 4170.338,-112.6953 4327.8997,-87 4335.9371,-85.6893 4344.4752,-83.4481 4352.22,-81.0711"/>
<polygon fill="#191970" stroke="#191970" points="2756.0027,-128.8138 2746.0485,-132.4418 2756.0926,-135.8132 2756.0027,-128.8138"/>
</g>
<!-- Node68 -->
<g id="node31" class="node">
<title>Node68</title>
<g id="a_node31"><a xlink:href="Model_8cpp.html" target="_top" xlink:title="Model.cpp">
<polygon fill="none" stroke="#000000" points="4438.8997,-62 4438.8997,-81 4504.8997,-81 4504.8997,-62 4438.8997,-62"/>
<text text-anchor="middle" x="4471.8997" y="-69" font-family="FreeSans.ttf" font-size="10.00" fill="#000000">Model.cpp</text>
</a>
</g>
</g>
<!-- Node33&#45;&gt;Node68 -->
<g id="edge31" class="edge">
<title>Node33&#45;&gt;Node68</title>
<path fill="none" stroke="#191970" d="M2756.152,-132.601C3032.9953,-130.4583 4262.5918,-119.1888 4429.8997,-87 4436.6162,-85.7078 4443.678,-83.4724 4450.0541,-81.095"/>
<polygon fill="#191970" stroke="#191970" points="2755.9223,-129.1026 2745.9495,-132.6792 2755.976,-136.1024 2755.9223,-129.1026"/>
</g>
<!-- Node69 -->
<g id="node32" class="node">
<title>Node69</title>
<g id="a_node32"><a xlink:href="ConstraintsGroup_8cpp.html" target="_top" xlink:title="ConstraintsGroup.cpp">
<polygon fill="none" stroke="#000000" points="4522.8997,-62 4522.8997,-81 4644.8997,-81 4644.8997,-62 4522.8997,-62"/>
<text text-anchor="middle" x="4583.8997" y="-69" font-family="FreeSans.ttf" font-size="10.00" fill="#000000">ConstraintsGroup.cpp</text>
</a>
</g>
</g>
<!-- Node33&#45;&gt;Node69 -->
<g id="edge32" class="edge">
<title>Node33&#45;&gt;Node69</title>
<path fill="none" stroke="#191970" d="M2755.998,-132.2344C3040.4084,-128.1979 4336.0017,-108.7468 4513.8997,-87 4524.7723,-85.6709 4536.4414,-83.424 4547.0748,-81.0474"/>
<polygon fill="#191970" stroke="#191970" points="2755.8707,-128.7358 2745.9212,-132.377 2755.9697,-135.7351 2755.8707,-128.7358"/>
</g>
<!-- Node70 -->
<g id="node33" class="node">
<title>Node70</title>
<g id="a_node33"><a xlink:href="FixedStepIntegrator_8cpp.html" target="_top" xlink:title="FixedStepIntegrator.cpp">
<polygon fill="none" stroke="#000000" points="4663.3997,-62 4663.3997,-81 4794.3997,-81 4794.3997,-62 4663.3997,-62"/>
<text text-anchor="middle" x="4728.8997" y="-69" font-family="FreeSans.ttf" font-size="10.00" fill="#000000">FixedStepIntegrator.cpp</text>
</a>
</g>
</g>
<!-- Node33&#45;&gt;Node70 -->
<g id="edge33" class="edge">
<title>Node33&#45;&gt;Node70</title>
<path fill="none" stroke="#191970" d="M2756.3621,-132.2908C3054.5852,-128.3972 4461.2692,-108.9918 4653.8997,-87 4665.5247,-85.6728 4678.0198,-83.4265 4689.4132,-81.0499"/>
<polygon fill="#191970" stroke="#191970" points="2756.1784,-128.7927 2746.2248,-132.4227 2756.2695,-135.7922 2756.1784,-128.7927"/>
</g>
<!-- Node71 -->
<g id="node34" class="node">
<title>Node71</title>
<g id="a_node34"><a xlink:href="ForwardEuler_8cpp.html" target="_top" xlink:title="ForwardEuler.cpp">
<polygon fill="none" stroke="#000000" points="4812.8997,-62 4812.8997,-81 4912.8997,-81 4912.8997,-62 4812.8997,-62"/>
<text text-anchor="middle" x="4862.8997" y="-69" font-family="FreeSans.ttf" font-size="10.00" fill="#000000">ForwardEuler.cpp</text>
</a>
</g>
</g>
<!-- Node33&#45;&gt;Node71 -->
<g id="edge34" class="edge">
<title>Node33&#45;&gt;Node71</title>
<path fill="none" stroke="#191970" d="M2756.0852,-132.568C3067.2643,-130.0285 4596.1634,-116.145 4803.8997,-87 4813.234,-85.6904 4823.209,-83.418 4832.2512,-81.0105"/>
<polygon fill="#191970" stroke="#191970" points="2755.9283,-129.069 2745.9571,-132.6501 2755.9852,-136.0688 2755.9283,-129.069"/>
</g>
<!-- Node72 -->
<g id="node35" class="node">
<title>Node72</title>
<g id="a_node35"><a xlink:href="ImplicitTrapezoidal_8cpp.html" target="_top" xlink:title="ImplicitTrapezoidal.cpp">
<polygon fill="none" stroke="#000000" points="4931.3997,-62 4931.3997,-81 5060.3997,-81 5060.3997,-62 4931.3997,-62"/>
<text text-anchor="middle" x="4995.8997" y="-69" font-family="FreeSans.ttf" font-size="10.00" fill="#000000">ImplicitTrapezoidal.cpp</text>
</a>
</g>
</g>
<!-- Node33&#45;&gt;Node72 -->
<g id="edge35" class="edge">
<title>Node33&#45;&gt;Node72</title>
<path fill="none" stroke="#191970" d="M2756.0596,-132.4714C3077.3792,-129.3104 4701.0908,-112.1904 4921.8997,-87 4933.3762,-85.6907 4945.7067,-83.45 4956.948,-81.073"/>
<polygon fill="#191970" stroke="#191970" points="2756.0215,-128.9715 2746.0563,-132.5694 2756.0902,-135.9712 2756.0215,-128.9715"/>
</g>
<!-- Node73 -->
<g id="node36" class="node">
<title>Node73</title>
<g id="a_node36"><a xlink:href="Integrator_8cpp.html" target="_top" xlink:title="Integrator.cpp">
<polygon fill="none" stroke="#000000" points="922.8997,-62 922.8997,-81 1006.8997,-81 1006.8997,-62 922.8997,-62"/>
<text text-anchor="middle" x="964.8997" y="-69" font-family="FreeSans.ttf" font-size="10.00" fill="#000000">Integrator.cpp</text>
</a>
</g>
</g>
<!-- Node33&#45;&gt;Node73 -->
<g id="edge36" class="edge">
<title>Node33&#45;&gt;Node73</title>
<path fill="none" stroke="#191970" d="M2645.759,-132.3713C2373.5415,-129.1498 1179.524,-113.6024 1015.8997,-87 1007.8617,-85.6932 999.3234,-83.4532 991.5787,-81.0761"/>
<polygon fill="#191970" stroke="#191970" points="2645.7581,-135.8715 2655.7986,-132.4895 2645.8405,-128.8719 2645.7581,-135.8715"/>
</g>
<!-- Node74 -->
<g id="node37" class="node">
<title>Node74</title>
<g id="a_node37"><a xlink:href="IpoptInterface_8cpp.html" target="_top" xlink:title="IpoptInterface.cpp">
<polygon fill="none" stroke="#000000" points="1025.3997,-62 1025.3997,-81 1130.3997,-81 1130.3997,-62 1025.3997,-62"/>
<text text-anchor="middle" x="1077.8997" y="-69" font-family="FreeSans.ttf" font-size="10.00" fill="#000000">IpoptInterface.cpp</text>
</a>
</g>
</g>
<!-- Node33&#45;&gt;Node74 -->
<g id="edge37" class="edge">
<title>Node33&#45;&gt;Node74</title>
<path fill="none" stroke="#191970" d="M2645.2618,-132.0856C2384.5635,-127.7035 1290.1999,-108.1883 1138.8997,-87 1129.3771,-85.6664 1119.1932,-83.4181 1109.928,-81.0416"/>
<polygon fill="#191970" stroke="#191970" points="2645.5602,-135.591 2655.6174,-132.2591 2645.6775,-128.592 2645.5602,-135.591"/>
</g>
<!-- Node75 -->
<g id="node38" class="node">
<title>Node75</title>
<g id="a_node38"><a xlink:href="LinearConstraint_8cpp.html" target="_top" xlink:title="LinearConstraint.cpp">
<polygon fill="none" stroke="#000000" points="1148.3997,-62 1148.3997,-81 1265.3997,-81 1265.3997,-62 1148.3997,-62"/>
<text text-anchor="middle" x="1206.8997" y="-69" font-family="FreeSans.ttf" font-size="10.00" fill="#000000">LinearConstraint.cpp</text>
</a>
</g>
</g>
<!-- Node33&#45;&gt;Node75 -->
<g id="edge38" class="edge">
<title>Node33&#45;&gt;Node75</title>
<path fill="none" stroke="#191970" d="M2645.6812,-132.6346C2417.4852,-130.9059 1547.242,-122.1011 1274.8997,-87 1264.3318,-85.6379 1252.9941,-83.3808 1242.6647,-81.0048"/>
<polygon fill="#191970" stroke="#191970" points="2645.7176,-136.1348 2655.7434,-132.7093 2645.7697,-129.135 2645.7176,-136.1348"/>
</g>
<!-- Node76 -->
<g id="node39" class="node">
<title>Node76</title>
<g id="a_node39"><a xlink:href="LinearSystem_8cpp.html" target="_top" xlink:title="LinearSystem.cpp">
<polygon fill="none" stroke="#000000" points="1283.8997,-62 1283.8997,-81 1387.8997,-81 1387.8997,-62 1283.8997,-62"/>
<text text-anchor="middle" x="1335.8997" y="-69" font-family="FreeSans.ttf" font-size="10.00" fill="#000000">LinearSystem.cpp</text>
</a>
</g>
</g>
<!-- Node33&#45;&gt;Node76 -->
<g id="edge39" class="edge">
<title>Node33&#45;&gt;Node76</title>
<path fill="none" stroke="#191970" d="M2645.489,-132.6202C2429.4684,-130.8954 1643.597,-122.2802 1396.8997,-87 1387.381,-85.6387 1377.1984,-83.3818 1367.9331,-81.0058"/>
<polygon fill="#191970" stroke="#191970" points="2645.612,-136.1212 2655.6391,-132.6995 2645.6667,-129.1214 2645.612,-136.1212"/>
</g>
<!-- Node33&#45;&gt;Node81 -->
<g id="edge40" class="edge">
<title>Node33&#45;&gt;Node81</title>
<path fill="none" stroke="#191970" d="M2645.6444,-132.532C2383.3754,-130.1644 1262.3869,-118.3631 913.8997,-87 898.5892,-85.6221 882.0624,-83.3753 866.9393,-81.0146"/>
<polygon fill="#191970" stroke="#191970" points="2645.6613,-136.0322 2655.6922,-132.6218 2645.724,-129.0324 2645.6613,-136.0322"/>
</g>
<!-- Node34&#45;&gt;Node36 -->
<g id="edge3" class="edge">
<title>Node34&#45;&gt;Node36</title>
<path fill="none" stroke="#191970" d="M1410.7387,-59.1432C1406.1167,-57.9219 1401.4253,-56.8298 1396.8997,-56 1279.2324,-34.4243 922.8643,-18.1996 779.0526,-12.3605"/>
<polygon fill="#191970" stroke="#191970" points="1410.0788,-62.5945 1420.6553,-61.9713 1411.9987,-55.8629 1410.0788,-62.5945"/>
</g>
<!-- Node34&#45;&gt;Node38 -->
<g id="edge4" class="edge">
<title>Node34&#45;&gt;Node38</title>
<path fill="none" stroke="#191970" d="M1484.1478,-59.1253C1489.0569,-57.8505 1494.0674,-56.7498 1498.8997,-56 1679.5448,-27.9713 4544.5921,-12.6804 5021.7733,-10.3223"/>
<polygon fill="#191970" stroke="#191970" points="1482.9615,-55.8239 1474.303,-61.9298 1484.8793,-62.556 1482.9615,-55.8239"/>
</g>
<!-- Node92&#45;&gt;Node42 -->
<g id="edge42" class="edge">
<title>Node92&#45;&gt;Node42</title>
<path fill="none" stroke="#191970" d="M531.4178,-119.0357C555.9575,-107.4265 590.2255,-91.2151 611.7299,-81.0419"/>
<polygon fill="#191970" stroke="#191970" points="529.755,-115.9504 522.2122,-123.3906 532.7485,-122.278 529.755,-115.9504"/>
</g>
<!-- Node92&#45;&gt;Node46 -->
<g id="edge43" class="edge">
<title>Node92&#45;&gt;Node46</title>
<path fill="none" stroke="#191970" d="M501.8997,-113.2462C501.8997,-102.5519 501.8997,-89.814 501.8997,-81.2449"/>
<polygon fill="#191970" stroke="#191970" points="498.3998,-113.3906 501.8997,-123.3906 505.3998,-113.3907 498.3998,-113.3906"/>
</g>
<!-- Node92&#45;&gt;Node48 -->
<g id="edge44" class="edge">
<title>Node92&#45;&gt;Node48</title>
<path fill="none" stroke="#191970" d="M453.2062,-127.8295C366.424,-118.4807 188.3613,-98.6567 126.8997,-87 118.3379,-85.3762 109.1873,-83.2282 100.6777,-81.0503"/>
<polygon fill="#191970" stroke="#191970" points="453.0063,-131.3281 463.323,-128.9164 453.7541,-124.3681 453.0063,-131.3281"/>
</g>
<!-- Node92&#45;&gt;Node57 -->
<g id="edge45" class="edge">
<title>Node92&#45;&gt;Node57</title>
<path fill="none" stroke="#191970" d="M453.1884,-122.8792C397.2789,-111.2629 306.284,-92.3569 251.6502,-81.0056"/>
<polygon fill="#191970" stroke="#191970" points="452.7,-126.3524 463.2029,-124.9599 454.124,-119.4988 452.7,-126.3524"/>
</g>
<!-- Node92&#45;&gt;Node61 -->
<g id="edge46" class="edge">
<title>Node92&#45;&gt;Node61</title>
<path fill="none" stroke="#191970" d="M471.9275,-119.0357C447.0103,-107.4265 412.2151,-91.2151 390.3799,-81.0419"/>
<polygon fill="#191970" stroke="#191970" points="470.7321,-122.3399 481.2747,-123.3906 473.6884,-115.9948 470.7321,-122.3399"/>
</g>
<!-- Node92&#45;&gt;Node81 -->
<g id="edge47" class="edge">
<title>Node92&#45;&gt;Node81</title>
<path fill="none" stroke="#191970" d="M550.5826,-123.4039C609.1722,-111.8549 706.9515,-92.5812 765.441,-81.052"/>
<polygon fill="#191970" stroke="#191970" points="549.6043,-120.0293 540.47,-125.3972 550.9581,-126.8971 549.6043,-120.0293"/>
</g>
<!-- Node205&#45;&gt;Node46 -->
<g id="edge49" class="edge">
<title>Node205&#45;&gt;Node46</title>
<path fill="none" stroke="#191970" d="M399.8719,-119.0357C424.7891,-107.4265 459.5844,-91.2151 481.4196,-81.0419"/>
<polygon fill="#191970" stroke="#191970" points="398.1111,-115.9948 390.5247,-123.3906 401.0673,-122.3399 398.1111,-115.9948"/>
</g>
<!-- Node205&#45;&gt;Node48 -->
<g id="edge50" class="edge">
<title>Node205&#45;&gt;Node48</title>
<path fill="none" stroke="#191970" d="M334.5358,-127.0567C287.101,-118.9135 200.332,-103.4167 126.8997,-87 118.9201,-85.2161 110.3904,-83.1252 102.3403,-81.067"/>
<polygon fill="#191970" stroke="#191970" points="334.154,-130.5421 344.6005,-128.7753 335.3324,-123.6419 334.154,-130.5421"/>
</g>
<!-- Node205&#45;&gt;Node57 -->
<g id="edge51" class="edge">
<title>Node205&#45;&gt;Node57</title>
<path fill="none" stroke="#191970" d="M335.0738,-119.9403C304.0291,-108.2985 259.3135,-91.5302 231.4642,-81.0867"/>
<polygon fill="#191970" stroke="#191970" points="334.0419,-123.2913 344.6341,-123.5254 336.4998,-116.737 334.0419,-123.2913"/>
</g>
<!-- Node205&#45;&gt;Node61 -->
<g id="edge52" class="edge">
<title>Node205&#45;&gt;Node61</title>
<path fill="none" stroke="#191970" d="M369.8997,-113.2462C369.8997,-102.5519 369.8997,-89.814 369.8997,-81.2449"/>
<polygon fill="#191970" stroke="#191970" points="366.3998,-113.3906 369.8997,-123.3906 373.3998,-113.3907 366.3998,-113.3906"/>
</g>
<!-- Node211&#45;&gt;Node63 -->
<g id="edge61" class="edge">
<title>Node211&#45;&gt;Node63</title>
<path fill="none" stroke="#191970" d="M4095.0245,-123.4231C4096.3275,-123.2722 4097.6207,-123.1307 4098.8997,-123 4543.094,-77.5934 4659.3294,-138.1429 5102.8997,-87 5114.9795,-85.6072 5127.9728,-83.3709 5139.8636,-81.0253"/>
<polygon fill="#191970" stroke="#191970" points="4094.3778,-119.9777 4084.9141,-124.7411 4095.2827,-126.9189 4094.3778,-119.9777"/>
</g>
</g>
</svg>
