<?xml version="1.0" encoding="UTF-8" standalone="no"?>
<!DOCTYPE svg PUBLIC "-//W3C//DTD SVG 1.1//EN"
 "http://www.w3.org/Graphics/SVG/1.1/DTD/svg11.dtd">
<!-- Generated by graphviz version 2.40.1 (20161225.0304)
 -->
<!-- Title: iDynTree::Visualizer::VisualizerPimpl Pages: 1 -->
<svg width="551pt" height="163pt"
 viewBox="0.00 0.00 551.00 163.00" xmlns="http://www.w3.org/2000/svg" xmlns:xlink="http://www.w3.org/1999/xlink">
<g id="graph0" class="graph" transform="scale(1 1) rotate(0) translate(4 159)">
<title>iDynTree::Visualizer::VisualizerPimpl</title>
<!-- Node1 -->
<g id="node1" class="node">
<title>Node1</title>
<polygon fill="#bfbfbf" stroke="#000000" points="188,-.5 188,-30.5 301,-30.5 301,-.5 188,-.5"/>
<text text-anchor="start" x="196" y="-18.5" font-family="FreeSans.ttf" font-size="10.00" fill="#000000">iDynTree::Visualizer</text>
<text text-anchor="middle" x="244.5" y="-7.5" font-family="FreeSans.ttf" font-size="10.00" fill="#000000">::VisualizerPimpl</text>
</g>
<!-- Node2 -->
<g id="node2" class="node">
<title>Node2</title>
<g id="a_node2"><a xlink:href="classiDynTree_1_1DummyCamera.html" target="_top" xlink:title="Dummy camera. ">
<polygon fill="none" stroke="#000000" points="0,-78.5 0,-97.5 143,-97.5 143,-78.5 0,-78.5"/>
<text text-anchor="middle" x="71.5" y="-85.5" font-family="FreeSans.ttf" font-size="10.00" fill="#000000">iDynTree::DummyCamera</text>
</a>
</g>
</g>
<!-- Node2&#45;&gt;Node1 -->
<g id="edge1" class="edge">
<title>Node2&#45;&gt;Node1</title>
<path fill="none" stroke="#9a32cd" stroke-dasharray="5,2" d="M103.9742,-74.3908C133.7132,-61.928 177.6602,-43.5109 208.4696,-30.5995"/>
<polygon fill="#9a32cd" stroke="#9a32cd" points="102.3431,-71.2794 94.4731,-78.3726 105.0487,-77.7354 102.3431,-71.2794"/>
<text text-anchor="middle" x="191" y="-52" font-family="FreeSans.ttf" font-size="10.00" fill="#000000"> m_camera</text>
</g>
<!-- Node3 -->
<g id="node3" class="node">
<title>Node3</title>
<g id="a_node3"><a xlink:href="classiDynTree_1_1ICamera.html" target="_top" xlink:title="Interface to manipulate the camera parameters. ">
<polygon fill="none" stroke="#000000" points="18,-135.5 18,-154.5 125,-154.5 125,-135.5 18,-135.5"/>
<text text-anchor="middle" x="71.5" y="-142.5" font-family="FreeSans.ttf" font-size="10.00" fill="#000000">iDynTree::ICamera</text>
</a>
</g>
</g>
<!-- Node3&#45;&gt;Node2 -->
<g id="edge2" class="edge">
<title>Node3&#45;&gt;Node2</title>
<path fill="none" stroke="#191970" d="M71.5,-125.2342C71.5,-115.8491 71.5,-105.0651 71.5,-97.5265"/>
<polygon fill="#191970" stroke="#191970" points="68.0001,-125.3307 71.5,-135.3307 75.0001,-125.3308 68.0001,-125.3307"/>
</g>
<!-- Node4 -->
<g id="node4" class="node">
<title>Node4</title>
<g id="a_node4"><a xlink:href="classiDynTree_1_1DummyEnvironment.html" target="_top" xlink:title="Dummy environment. ">
<polygon fill="none" stroke="#000000" points="161,-78.5 161,-97.5 328,-97.5 328,-78.5 161,-78.5"/>
<text text-anchor="middle" x="244.5" y="-85.5" font-family="FreeSans.ttf" font-size="10.00" fill="#000000">iDynTree::DummyEnvironment</text>
</a>
</g>
</g>
<!-- Node4&#45;&gt;Node1 -->
<g id="edge3" class="edge">
<title>Node4&#45;&gt;Node1</title>
<path fill="none" stroke="#9a32cd" stroke-dasharray="5,2" d="M244.5,-68.0177C244.5,-56.2164 244.5,-41.513 244.5,-30.668"/>
<polygon fill="#9a32cd" stroke="#9a32cd" points="241.0001,-68.2223 244.5,-78.2223 248.0001,-68.2224 241.0001,-68.2223"/>
<text text-anchor="middle" x="285" y="-52" font-family="FreeSans.ttf" font-size="10.00" fill="#000000"> m_environment</text>
</g>
<!-- Node5 -->
<g id="node5" class="node">
<title>Node5</title>
<g id="a_node5"><a xlink:href="classiDynTree_1_1IEnvironment.html" target="_top" xlink:title="Interface to manipulate the elements in the enviroment (background, root frame, reference lines) ...">
<polygon fill="none" stroke="#000000" points="179,-135.5 179,-154.5 310,-154.5 310,-135.5 179,-135.5"/>
<text text-anchor="middle" x="244.5" y="-142.5" font-family="FreeSans.ttf" font-size="10.00" fill="#000000">iDynTree::IEnvironment</text>
</a>
</g>
</g>
<!-- Node5&#45;&gt;Node4 -->
<g id="edge4" class="edge">
<title>Node5&#45;&gt;Node4</title>
<path fill="none" stroke="#191970" d="M244.5,-125.2342C244.5,-115.8491 244.5,-105.0651 244.5,-97.5265"/>
<polygon fill="#191970" stroke="#191970" points="241.0001,-125.3307 244.5,-135.3307 248.0001,-125.3308 241.0001,-125.3307"/>
</g>
<!-- Node6 -->
<g id="node6" class="node">
<title>Node6</title>
<g id="a_node6"><a xlink:href="classiDynTree_1_1DummyModelVisualization.html" target="_top" xlink:title="Dummy model visualization. ">
<polygon fill="none" stroke="#000000" points="346,-78.5 346,-97.5 543,-97.5 543,-78.5 346,-78.5"/>
<text text-anchor="middle" x="444.5" y="-85.5" font-family="FreeSans.ttf" font-size="10.00" fill="#000000">iDynTree::DummyModelVisualization</text>
</a>
</g>
</g>
<!-- Node6&#45;&gt;Node1 -->
<g id="edge5" class="edge">
<title>Node6&#45;&gt;Node1</title>
<path fill="none" stroke="#9a32cd" stroke-dasharray="5,2" d="M408.2944,-74.8755C373.9052,-62.4094 322.236,-43.6793 286.1537,-30.5995"/>
<polygon fill="#9a32cd" stroke="#9a32cd" points="407.3474,-78.255 417.9415,-78.3726 409.733,-71.674 407.3474,-78.255"/>
<text text-anchor="middle" x="410.5" y="-52" font-family="FreeSans.ttf" font-size="10.00" fill="#000000"> m_invalidModelViz</text>
</g>
<!-- Node7 -->
<g id="node7" class="node">
<title>Node7</title>
<g id="a_node7"><a xlink:href="classiDynTree_1_1IModelVisualization.html" target="_top" xlink:title="Interface to the visualization of a model istance. ">
<polygon fill="none" stroke="#000000" points="364,-135.5 364,-154.5 525,-154.5 525,-135.5 364,-135.5"/>
<text text-anchor="middle" x="444.5" y="-142.5" font-family="FreeSans.ttf" font-size="10.00" fill="#000000">iDynTree::IModelVisualization</text>
</a>
</g>
</g>
<!-- Node7&#45;&gt;Node6 -->
<g id="edge6" class="edge">
<title>Node7&#45;&gt;Node6</title>
<path fill="none" stroke="#191970" d="M444.5,-125.2342C444.5,-115.8491 444.5,-105.0651 444.5,-97.5265"/>
<polygon fill="#191970" stroke="#191970" points="441.0001,-125.3307 444.5,-135.3307 448.0001,-125.3308 441.0001,-125.3307"/>
</g>
</g>
</svg>
