<?xml version="1.0" encoding="UTF-8" standalone="no"?>
<!DOCTYPE svg PUBLIC "-//W3C//DTD SVG 1.1//EN"
 "http://www.w3.org/Graphics/SVG/1.1/DTD/svg11.dtd">
<!-- Generated by graphviz version 2.40.1 (20161225.0304)
 -->
<!-- Title: iDynTree::ModelVisualization::ModelVisualizationPimpl Pages: 1 -->
<svg width="616pt" height="142pt"
 viewBox="0.00 0.00 616.00 142.00" xmlns="http://www.w3.org/2000/svg" xmlns:xlink="http://www.w3.org/1999/xlink">
<g id="graph0" class="graph" transform="scale(1 1) rotate(0) translate(4 138)">
<title>iDynTree::ModelVisualization::ModelVisualizationPimpl</title>
<!-- Node1 -->
<g id="node1" class="node">
<title>Node1</title>
<polygon fill="#bfbfbf" stroke="#000000" points="450,-52 450,-82 608,-82 608,-52 450,-52"/>
<text text-anchor="start" x="458" y="-70" font-family="FreeSans.ttf" font-size="10.00" fill="#000000">iDynTree::ModelVisualization</text>
<text text-anchor="middle" x="529" y="-59" font-family="FreeSans.ttf" font-size="10.00" fill="#000000">::ModelVisualizationPimpl</text>
</g>
<!-- Node2 -->
<g id="node2" class="node">
<title>Node2</title>
<g id="a_node2"><a xlink:href="classiDynTree_1_1JetsVisualization.html" target="_top" xlink:title="iDynTree::JetsVisualization">
<polygon fill="none" stroke="#000000" points="186,-114.5 186,-133.5 332,-133.5 332,-114.5 186,-114.5"/>
<text text-anchor="middle" x="259" y="-121.5" font-family="FreeSans.ttf" font-size="10.00" fill="#000000">iDynTree::JetsVisualization</text>
</a>
</g>
</g>
<!-- Node2&#45;&gt;Node1 -->
<g id="edge1" class="edge">
<title>Node2&#45;&gt;Node1</title>
<path fill="none" stroke="#9a32cd" stroke-dasharray="5,2" d="M336.6912,-112.9259C366.6292,-108.1499 401.0512,-102.0363 432,-95 448.0662,-91.3473 465.4119,-86.6019 480.9314,-82.0587"/>
<polygon fill="#9a32cd" stroke="#9a32cd" points="336.0565,-109.4826 326.7217,-114.4937 337.1441,-116.3976 336.0565,-109.4826"/>
<text text-anchor="middle" x="391" y="-114" font-family="FreeSans.ttf" font-size="10.00" fill="#000000"> m_jets</text>
</g>
<!-- Node3 -->
<g id="node3" class="node">
<title>Node3</title>
<g id="a_node3"><a xlink:href="classiDynTree_1_1IJetsVisualization.html" target="_top" xlink:title="Interface to the visualization of jets attached to a model. ">
<polygon fill="none" stroke="#000000" points="0,-114.5 0,-133.5 149,-133.5 149,-114.5 0,-114.5"/>
<text text-anchor="middle" x="74.5" y="-121.5" font-family="FreeSans.ttf" font-size="10.00" fill="#000000">iDynTree::IJetsVisualization</text>
</a>
</g>
</g>
<!-- Node3&#45;&gt;Node2 -->
<g id="edge2" class="edge">
<title>Node3&#45;&gt;Node2</title>
<path fill="none" stroke="#191970" d="M159.0153,-124C167.9282,-124 176.9381,-124 185.7091,-124"/>
<polygon fill="#191970" stroke="#191970" points="159.0114,-120.5001 149.0114,-124 159.0114,-127.5001 159.0114,-120.5001"/>
</g>
<!-- Node4 -->
<g id="node4" class="node">
<title>Node4</title>
<g id="a_node4"><a xlink:href="classiDynTree_1_1Traversal.html" target="_top" xlink:title="Class that represents a traversal of a set of links of a Model. ">
<polygon fill="none" stroke="#000000" points="204,-76.5 204,-95.5 314,-95.5 314,-76.5 204,-76.5"/>
<text text-anchor="middle" x="259" y="-83.5" font-family="FreeSans.ttf" font-size="10.00" fill="#000000">iDynTree::Traversal</text>
</a>
</g>
</g>
<!-- Node4&#45;&gt;Node1 -->
<g id="edge3" class="edge">
<title>Node4&#45;&gt;Node1</title>
<path fill="none" stroke="#9a32cd" stroke-dasharray="5,2" d="M324.6665,-81.379C362.4427,-78.7207 410.1604,-75.3628 449.9809,-72.5606"/>
<polygon fill="#9a32cd" stroke="#9a32cd" points="324.0197,-77.9158 314.2901,-82.1092 324.5111,-84.8985 324.0197,-77.9158"/>
<text text-anchor="middle" x="391" y="-83" font-family="FreeSans.ttf" font-size="10.00" fill="#000000"> m_traversal</text>
</g>
<!-- Node5 -->
<g id="node5" class="node">
<title>Node5</title>
<g id="a_node5"><a xlink:href="classiDynTree_1_1Model.html" target="_top" xlink:title="Class that represents a generic multibody model. ">
<polygon fill="none" stroke="#000000" points="211.5,-38.5 211.5,-57.5 306.5,-57.5 306.5,-38.5 211.5,-38.5"/>
<text text-anchor="middle" x="259" y="-45.5" font-family="FreeSans.ttf" font-size="10.00" fill="#000000">iDynTree::Model</text>
</a>
</g>
</g>
<!-- Node5&#45;&gt;Node1 -->
<g id="edge4" class="edge">
<title>Node5&#45;&gt;Node1</title>
<path fill="none" stroke="#9a32cd" stroke-dasharray="5,2" d="M316.842,-51.9717C350.4571,-54.29 393.625,-57.2844 432,-60 437.8105,-60.4112 443.8165,-60.8387 449.8599,-61.2706"/>
<polygon fill="#9a32cd" stroke="#9a32cd" points="316.9493,-48.4709 306.7323,-51.275 316.468,-55.4543 316.9493,-48.4709"/>
<text text-anchor="middle" x="391" y="-63" font-family="FreeSans.ttf" font-size="10.00" fill="#000000"> m_model</text>
</g>
<!-- Node6 -->
<g id="node6" class="node">
<title>Node6</title>
<g id="a_node6"><a xlink:href="classiDynTree_1_1LinkPositions.html" target="_top" xlink:title="iDynTree::LinkPositions">
<polygon fill="none" stroke="#000000" points="194,-.5 194,-19.5 324,-19.5 324,-.5 194,-.5"/>
<text text-anchor="middle" x="259" y="-7.5" font-family="FreeSans.ttf" font-size="10.00" fill="#000000">iDynTree::LinkPositions</text>
</a>
</g>
</g>
<!-- Node6&#45;&gt;Node1 -->
<g id="edge5" class="edge">
<title>Node6&#45;&gt;Node1</title>
<path fill="none" stroke="#9a32cd" stroke-dasharray="5,2" d="M333.1827,-21.1952C363.9013,-26.2632 399.8055,-32.7469 432,-40 447.2625,-43.4385 463.7092,-47.7728 478.6465,-51.9564"/>
<polygon fill="#9a32cd" stroke="#9a32cd" points="333.4096,-17.6861 322.9767,-19.5318 332.2834,-24.5949 333.4096,-17.6861"/>
<text text-anchor="middle" x="391" y="-43" font-family="FreeSans.ttf" font-size="10.00" fill="#000000"> m_fwdKinBuffer</text>
</g>
</g>
</svg>
