<?xml version="1.0" encoding="UTF-8" standalone="no"?>
<!DOCTYPE svg PUBLIC "-//W3C//DTD SVG 1.1//EN"
 "http://www.w3.org/Graphics/SVG/1.1/DTD/svg11.dtd">
<!-- Generated by graphviz version 2.40.1 (20161225.0304)
 -->
<!-- Title: iDynTree::optimalcontrol::BufferedGroup Pages: 1 -->
<svg width="308pt" height="117pt"
 viewBox="0.00 0.00 308.00 117.00" xmlns="http://www.w3.org/2000/svg" xmlns:xlink="http://www.w3.org/1999/xlink">
<g id="graph0" class="graph" transform="scale(1 1) rotate(0) translate(4 113)">
<title>iDynTree::optimalcontrol::BufferedGroup</title>
<!-- Node1 -->
<g id="node1" class="node">
<title>Node1</title>
<polygon fill="#bfbfbf" stroke="#000000" points="76.5,-.5 76.5,-30.5 213.5,-30.5 213.5,-.5 76.5,-.5"/>
<text text-anchor="start" x="84.5" y="-18.5" font-family="FreeSans.ttf" font-size="10.00" fill="#000000">iDynTree::optimalcontrol</text>
<text text-anchor="middle" x="145" y="-7.5" font-family="FreeSans.ttf" font-size="10.00" fill="#000000">::BufferedGroup</text>
</g>
<!-- Node2 -->
<g id="node2" class="node">
<title>Node2</title>
<g id="a_node2"><a xlink:href="classiDynTree_1_1MatrixDynSize.html" target="_top" xlink:title="Class providing a simple form of matrix with dynamic size. ">
<polygon fill="none" stroke="#000000" points="0,-89.5 0,-108.5 136,-108.5 136,-89.5 0,-89.5"/>
<text text-anchor="middle" x="68" y="-96.5" font-family="FreeSans.ttf" font-size="10.00" fill="#000000">iDynTree::MatrixDynSize</text>
</a>
</g>
</g>
<!-- Node2&#45;&gt;Node1 -->
<g id="edge1" class="edge">
<title>Node2&#45;&gt;Node1</title>
<path fill="none" stroke="#9a32cd" stroke-dasharray="5,2" d="M75.6584,-79.8555C80.2641,-69.9113 86.8241,-57.9936 95,-49 101.396,-41.9643 109.5628,-35.6976 117.4332,-30.5421"/>
<polygon fill="#9a32cd" stroke="#9a32cd" points="72.3318,-78.7307 71.5803,-89.2988 78.7582,-81.5059 72.3318,-78.7307"/>
<text text-anchor="middle" x="147.5" y="-63" font-family="FreeSans.ttf" font-size="10.00" fill="#000000"> stateJacobianBuffer</text>
<text text-anchor="middle" x="147.5" y="-52" font-family="FreeSans.ttf" font-size="10.00" fill="#000000">controlJacobianBuffer</text>
</g>
<!-- Node3 -->
<g id="node3" class="node">
<title>Node3</title>
<g id="a_node3"><a xlink:href="classiDynTree_1_1VectorDynSize.html" target="_top" xlink:title="Class providing a simple form of vector with dynamic size. ">
<polygon fill="none" stroke="#000000" points="154,-89.5 154,-108.5 290,-108.5 290,-89.5 154,-89.5"/>
<text text-anchor="middle" x="222" y="-96.5" font-family="FreeSans.ttf" font-size="10.00" fill="#000000">iDynTree::VectorDynSize</text>
</a>
</g>
</g>
<!-- Node3&#45;&gt;Node1 -->
<g id="edge2" class="edge">
<title>Node3&#45;&gt;Node1</title>
<path fill="none" stroke="#9a32cd" stroke-dasharray="5,2" d="M216.4835,-79.3759C212.9669,-69.4508 207.6156,-57.6985 200,-49 193.6663,-41.7657 185.3811,-35.6113 177.1704,-30.6277"/>
<polygon fill="#9a32cd" stroke="#9a32cd" points="213.2393,-80.7244 219.5997,-89.1977 219.9116,-78.6074 213.2393,-80.7244"/>
<text text-anchor="middle" x="256.5" y="-57.5" font-family="FreeSans.ttf" font-size="10.00" fill="#000000"> constraintsBuffer</text>
</g>
</g>
</svg>
