<?xml version="1.0" encoding="UTF-8" standalone="no"?>
<!DOCTYPE svg PUBLIC "-//W3C//DTD SVG 1.1//EN"
 "http://www.w3.org/Graphics/SVG/1.1/DTD/svg11.dtd">
<!-- Generated by graphviz version 2.40.1 (20161225.0304)
 -->
<!-- Title: symoro_par_import_serialization.hpp Pages: 1 -->
<svg width="271pt" height="196pt"
 viewBox="0.00 0.00 270.50 196.00" xmlns="http://www.w3.org/2000/svg" xmlns:xlink="http://www.w3.org/1999/xlink">
<g id="graph0" class="graph" transform="scale(1 1) rotate(0) translate(4 192)">
<title>symoro_par_import_serialization.hpp</title>
<!-- Node0 -->
<g id="node1" class="node">
<title>Node0</title>
<polygon fill="#bfbfbf" stroke="#000000" points="0,-168.5 0,-187.5 198,-187.5 198,-168.5 0,-168.5"/>
<text text-anchor="middle" x="99" y="-175.5" font-family="FreeSans.ttf" font-size="10.00" fill="#000000">symoro_par_import_serialization.hpp</text>
</g>
<!-- Node1 -->
<g id="node2" class="node">
<title>Node1</title>
<polygon fill="none" stroke="#bfbfbf" points="1,-.5 1,-19.5 45,-19.5 45,-.5 1,-.5"/>
<text text-anchor="middle" x="23" y="-7.5" font-family="FreeSans.ttf" font-size="10.00" fill="#000000">string</text>
</g>
<!-- Node0&#45;&gt;Node1 -->
<g id="edge1" class="edge">
<title>Node0&#45;&gt;Node1</title>
<path fill="none" stroke="#191970" d="M69.4315,-168.3976C52.5892,-161.2338 32.9206,-149.6009 23,-132 4.8812,-99.8542 11.4236,-54.9587 17.4527,-29.5549"/>
<polygon fill="#191970" stroke="#191970" points="20.8959,-30.2201 20.0141,-19.662 14.1193,-28.4656 20.8959,-30.2201"/>
</g>
<!-- Node2 -->
<g id="node3" class="node">
<title>Node2</title>
<g id="a_node3"><a xlink:href="symoro__par__import_8hpp.html" target="_top" xlink:title="symoro_par_import.hpp">
<polygon fill="none" stroke="#000000" points="32.5,-112.5 32.5,-131.5 165.5,-131.5 165.5,-112.5 32.5,-112.5"/>
<text text-anchor="middle" x="99" y="-119.5" font-family="FreeSans.ttf" font-size="10.00" fill="#000000">symoro_par_import.hpp</text>
</a>
</g>
</g>
<!-- Node0&#45;&gt;Node2 -->
<g id="edge2" class="edge">
<title>Node0&#45;&gt;Node2</title>
<path fill="none" stroke="#191970" d="M99,-168.2455C99,-160.9382 99,-150.6944 99,-141.7046"/>
<polygon fill="#191970" stroke="#191970" points="102.5001,-141.6426 99,-131.6427 95.5001,-141.6427 102.5001,-141.6426"/>
</g>
<!-- Node3 -->
<g id="node4" class="node">
<title>Node3</title>
<g id="a_node4"><a xlink:href="symoro__par__model_8hpp.html" target="_top" xlink:title="symoro_par_model.hpp">
<polygon fill="none" stroke="#000000" points="93.5,-56.5 93.5,-75.5 224.5,-75.5 224.5,-56.5 93.5,-56.5"/>
<text text-anchor="middle" x="159" y="-63.5" font-family="FreeSans.ttf" font-size="10.00" fill="#000000">symoro_par_model.hpp</text>
</a>
</g>
</g>
<!-- Node0&#45;&gt;Node3 -->
<g id="edge9" class="edge">
<title>Node0&#45;&gt;Node3</title>
<path fill="none" stroke="#191970" d="M128.5685,-168.3976C145.4108,-161.2338 165.0794,-149.6009 175,-132 183.2921,-117.2883 177.2964,-98.3779 170.4053,-84.5728"/>
<polygon fill="#191970" stroke="#191970" points="173.322,-82.6144 165.4208,-75.5558 167.1957,-86.0009 173.322,-82.6144"/>
</g>
<!-- Node2&#45;&gt;Node1 -->
<g id="edge3" class="edge">
<title>Node2&#45;&gt;Node1</title>
<path fill="none" stroke="#191970" d="M92.5203,-112.4509C79.8444,-93.7707 51.584,-52.1238 35.266,-28.0761"/>
<polygon fill="#191970" stroke="#191970" points="37.9745,-25.8344 29.4633,-19.5249 32.1822,-29.7649 37.9745,-25.8344"/>
</g>
<!-- Node2&#45;&gt;Node3 -->
<g id="edge4" class="edge">
<title>Node2&#45;&gt;Node3</title>
<path fill="none" stroke="#191970" d="M109.4512,-112.2455C118.2269,-104.0549 130.9554,-92.1749 141.314,-82.5069"/>
<polygon fill="#191970" stroke="#191970" points="143.7461,-85.0246 148.6686,-75.6427 138.9699,-79.9072 143.7461,-85.0246"/>
</g>
<!-- Node3&#45;&gt;Node1 -->
<g id="edge5" class="edge">
<title>Node3&#45;&gt;Node1</title>
<path fill="none" stroke="#191970" d="M135.6208,-56.3733C113.2273,-47.1524 79.275,-33.1721 54.5042,-22.9723"/>
<polygon fill="#191970" stroke="#191970" points="55.753,-19.7015 45.1736,-19.1303 53.0877,-26.1742 55.753,-19.7015"/>
</g>
<!-- Node4 -->
<g id="node5" class="node">
<title>Node4</title>
<polygon fill="none" stroke="#bfbfbf" points="63,-.5 63,-19.5 119,-19.5 119,-.5 63,-.5"/>
<text text-anchor="middle" x="91" y="-7.5" font-family="FreeSans.ttf" font-size="10.00" fill="#000000">sstream</text>
</g>
<!-- Node3&#45;&gt;Node4 -->
<g id="edge6" class="edge">
<title>Node3&#45;&gt;Node4</title>
<path fill="none" stroke="#191970" d="M147.1553,-56.2455C137.112,-47.9746 122.5005,-35.9416 110.6996,-26.2232"/>
<polygon fill="#191970" stroke="#191970" points="112.6533,-23.298 102.709,-19.6427 108.2033,-28.7015 112.6533,-23.298"/>
</g>
<!-- Node5 -->
<g id="node6" class="node">
<title>Node5</title>
<polygon fill="none" stroke="#bfbfbf" points="137,-.5 137,-19.5 197,-19.5 197,-.5 137,-.5"/>
<text text-anchor="middle" x="167" y="-7.5" font-family="FreeSans.ttf" font-size="10.00" fill="#000000">iostream</text>
</g>
<!-- Node3&#45;&gt;Node5 -->
<g id="edge7" class="edge">
<title>Node3&#45;&gt;Node5</title>
<path fill="none" stroke="#191970" d="M160.3935,-56.2455C161.4374,-48.9382 162.9008,-38.6944 164.1851,-29.7046"/>
<polygon fill="#191970" stroke="#191970" points="167.673,-30.0372 165.6225,-19.6427 160.7434,-29.0472 167.673,-30.0372"/>
</g>
<!-- Node6 -->
<g id="node7" class="node">
<title>Node6</title>
<polygon fill="none" stroke="#bfbfbf" points="215.5,-.5 215.5,-19.5 262.5,-19.5 262.5,-.5 215.5,-.5"/>
<text text-anchor="middle" x="239" y="-7.5" font-family="FreeSans.ttf" font-size="10.00" fill="#000000">vector</text>
</g>
<!-- Node3&#45;&gt;Node6 -->
<g id="edge8" class="edge">
<title>Node3&#45;&gt;Node6</title>
<path fill="none" stroke="#191970" d="M172.9349,-56.2455C185.0947,-47.7337 202.9464,-35.2375 217.0285,-25.3801"/>
<polygon fill="#191970" stroke="#191970" points="219.0395,-28.2447 225.2248,-19.6427 215.0253,-22.51 219.0395,-28.2447"/>
</g>
</g>
</svg>
