<?xml version="1.0" encoding="UTF-8" standalone="no"?>
<!DOCTYPE svg PUBLIC "-//W3C//DTD SVG 1.1//EN"
 "http://www.w3.org/Graphics/SVG/1.1/DTD/svg11.dtd">
<!-- Generated by graphviz version 2.40.1 (20161225.0304)
 -->
<!-- Title: TestUtils.h Pages: 1 -->
<svg width="229pt" height="140pt"
 viewBox="0.00 0.00 228.50 140.00" xmlns="http://www.w3.org/2000/svg" xmlns:xlink="http://www.w3.org/1999/xlink">
<g id="graph0" class="graph" transform="scale(1 1) rotate(0) translate(4 136)">
<title>TestUtils.h</title>
<!-- Node11 -->
<g id="node1" class="node">
<title>Node11</title>
<polygon fill="#bfbfbf" stroke="#000000" points="111.5,-112.5 111.5,-131.5 179.5,-131.5 179.5,-112.5 111.5,-112.5"/>
<text text-anchor="middle" x="145.5" y="-119.5" font-family="FreeSans.ttf" font-size="10.00" fill="#000000">TestUtils.h</text>
</g>
<!-- Node12 -->
<g id="node2" class="node">
<title>Node12</title>
<g id="a_node2"><a xlink:href="TestUtils_8cpp.html" target="_top" xlink:title="TestUtils.cpp">
<polygon fill="none" stroke="#000000" points="0,-56.5 0,-75.5 79,-75.5 79,-56.5 0,-56.5"/>
<text text-anchor="middle" x="39.5" y="-63.5" font-family="FreeSans.ttf" font-size="10.00" fill="#000000">TestUtils.cpp</text>
</a>
</g>
</g>
<!-- Node11&#45;&gt;Node12 -->
<g id="edge1" class="edge">
<title>Node11&#45;&gt;Node12</title>
<path fill="none" stroke="#191970" d="M117.9778,-107.46C99.0092,-97.4388 74.3273,-84.3993 57.7522,-75.6427"/>
<polygon fill="#191970" stroke="#191970" points="116.5593,-110.669 127.0362,-112.2455 119.8292,-104.4796 116.5593,-110.669"/>
</g>
<!-- Node13 -->
<g id="node3" class="node">
<title>Node13</title>
<g id="a_node3"><a xlink:href="ModelTestUtils_8h.html" target="_top" xlink:title="ModelTestUtils.h">
<polygon fill="none" stroke="#000000" points="97,-56.5 97,-75.5 194,-75.5 194,-56.5 97,-56.5"/>
<text text-anchor="middle" x="145.5" y="-63.5" font-family="FreeSans.ttf" font-size="10.00" fill="#000000">ModelTestUtils.h</text>
</a>
</g>
</g>
<!-- Node11&#45;&gt;Node13 -->
<g id="edge2" class="edge">
<title>Node11&#45;&gt;Node13</title>
<path fill="none" stroke="#191970" d="M145.5,-102.1575C145.5,-93.155 145.5,-82.9199 145.5,-75.6427"/>
<polygon fill="#191970" stroke="#191970" points="142.0001,-102.2455 145.5,-112.2455 149.0001,-102.2456 142.0001,-102.2455"/>
</g>
<!-- Node14 -->
<g id="node4" class="node">
<title>Node14</title>
<g id="a_node4"><a xlink:href="urdf2dh_8cpp.html" target="_top" xlink:title="urdf2dh.cpp">
<polygon fill="none" stroke="#000000" points="146.5,-.5 146.5,-19.5 220.5,-19.5 220.5,-.5 146.5,-.5"/>
<text text-anchor="middle" x="183.5" y="-7.5" font-family="FreeSans.ttf" font-size="10.00" fill="#000000">urdf2dh.cpp</text>
</a>
</g>
</g>
<!-- Node11&#45;&gt;Node14 -->
<g id="edge4" class="edge">
<title>Node11&#45;&gt;Node14</title>
<path fill="none" stroke="#191970" d="M173.8549,-107.0855C185.2765,-99.4519 197.2172,-89.0019 203.5,-76 212.6683,-57.0268 199.7771,-32.9464 190.8247,-19.7491"/>
<polygon fill="#191970" stroke="#191970" points="171.9823,-104.1282 165.3241,-112.3695 175.6684,-110.0791 171.9823,-104.1282"/>
</g>
<!-- Node13&#45;&gt;Node14 -->
<g id="edge3" class="edge">
<title>Node13&#45;&gt;Node14</title>
<path fill="none" stroke="#191970" d="M157.7679,-47.9209C164.1488,-38.5176 171.6931,-27.3997 176.9568,-19.6427"/>
<polygon fill="#191970" stroke="#191970" points="154.838,-46.0055 152.1191,-56.2455 160.6303,-49.936 154.838,-46.0055"/>
</g>
</g>
</svg>
