<?xml version="1.0" encoding="UTF-8" standalone="no"?>
<!DOCTYPE svg PUBLIC "-//W3C//DTD SVG 1.1//EN"
 "http://www.w3.org/Graphics/SVG/1.1/DTD/svg11.dtd">
<!-- Generated by graphviz version 2.40.1 (20161225.0304)
 -->
<!-- Title: ThreeAxisForceTorqueContactSensor.h Pages: 1 -->
<svg width="292pt" height="162pt"
 viewBox="0.00 0.00 291.50 162.00" xmlns="http://www.w3.org/2000/svg" xmlns:xlink="http://www.w3.org/1999/xlink">
<g id="graph0" class="graph" transform="scale(1 1) rotate(0) translate(4 158)">
<title>ThreeAxisForceTorqueContactSensor.h</title>
<!-- Node55 -->
<g id="node1" class="node">
<title>Node55</title>
<polygon fill="#bfbfbf" stroke="#000000" points="46.5,-123.5 46.5,-153.5 207.5,-153.5 207.5,-123.5 46.5,-123.5"/>
<text text-anchor="start" x="54.5" y="-141.5" font-family="FreeSans.ttf" font-size="10.00" fill="#000000">ThreeAxisForceTorqueContact</text>
<text text-anchor="middle" x="127" y="-130.5" font-family="FreeSans.ttf" font-size="10.00" fill="#000000">Sensor.h</text>
</g>
<!-- Node56 -->
<g id="node2" class="node">
<title>Node56</title>
<g id="a_node2"><a xlink:href="AllSensorsTypes_8h.html" target="_top" xlink:title="AllSensorsTypes.h">
<polygon fill="none" stroke="#000000" points="0,-62 0,-81 104,-81 104,-62 0,-62"/>
<text text-anchor="middle" x="52" y="-69" font-family="FreeSans.ttf" font-size="10.00" fill="#000000">AllSensorsTypes.h</text>
</a>
</g>
</g>
<!-- Node55&#45;&gt;Node56 -->
<g id="edge1" class="edge">
<title>Node55&#45;&gt;Node56</title>
<path fill="none" stroke="#191970" d="M102.4186,-116.5406C88.9734,-104.5296 73.0041,-90.2637 62.6959,-81.055"/>
<polygon fill="#191970" stroke="#191970" points="100.1919,-119.2447 109.9813,-123.2967 104.8555,-114.0243 100.1919,-119.2447"/>
</g>
<!-- Node58 -->
<g id="node4" class="node">
<title>Node58</title>
<g id="a_node4"><a xlink:href="ThreeAxisForceTorqueContactSensor_8cpp.html" target="_top" xlink:title="ThreeAxisForceTorqueContact\lSensor.cpp">
<polygon fill="none" stroke="#000000" points="122.5,-56.5 122.5,-86.5 283.5,-86.5 283.5,-56.5 122.5,-56.5"/>
<text text-anchor="start" x="130.5" y="-74.5" font-family="FreeSans.ttf" font-size="10.00" fill="#000000">ThreeAxisForceTorqueContact</text>
<text text-anchor="middle" x="203" y="-63.5" font-family="FreeSans.ttf" font-size="10.00" fill="#000000">Sensor.cpp</text>
</a>
</g>
</g>
<!-- Node55&#45;&gt;Node58 -->
<g id="edge3" class="edge">
<title>Node55&#45;&gt;Node58</title>
<path fill="none" stroke="#191970" d="M151.9592,-116.4965C163.0497,-106.7193 175.8267,-95.4554 185.8227,-86.6432"/>
<polygon fill="#191970" stroke="#191970" points="149.4323,-114.0582 144.2456,-123.2967 154.0614,-119.3091 149.4323,-114.0582"/>
</g>
<!-- Node57 -->
<g id="node3" class="node">
<title>Node57</title>
<g id="a_node3"><a xlink:href="BerdyHelper_8cpp.html" target="_top" xlink:title="BerdyHelper.cpp">
<polygon fill="none" stroke="#000000" points="3.5,-.5 3.5,-19.5 100.5,-19.5 100.5,-.5 3.5,-.5"/>
<text text-anchor="middle" x="52" y="-7.5" font-family="FreeSans.ttf" font-size="10.00" fill="#000000">BerdyHelper.cpp</text>
</a>
</g>
</g>
<!-- Node56&#45;&gt;Node57 -->
<g id="edge2" class="edge">
<title>Node56&#45;&gt;Node57</title>
<path fill="none" stroke="#191970" d="M52,-51.7462C52,-41.0519 52,-28.314 52,-19.7449"/>
<polygon fill="#191970" stroke="#191970" points="48.5001,-51.8906 52,-61.8906 55.5001,-51.8907 48.5001,-51.8906"/>
</g>
</g>
</svg>
