<?xml version="1.0" encoding="UTF-8" standalone="no"?>
<!DOCTYPE svg PUBLIC "-//W3C//DTD SVG 1.1//EN"
 "http://www.w3.org/Graphics/SVG/1.1/DTD/svg11.dtd">
<!-- Generated by graphviz version 2.40.1 (20161225.0304)
 -->
<!-- Title: TimeRange.cpp Pages: 1 -->
<svg width="272pt" height="140pt"
 viewBox="0.00 0.00 272.00 140.00" xmlns="http://www.w3.org/2000/svg" xmlns:xlink="http://www.w3.org/1999/xlink">
<g id="graph0" class="graph" transform="scale(1 1) rotate(0) translate(4 136)">
<title>TimeRange.cpp</title>
<!-- Node0 -->
<g id="node1" class="node">
<title>Node0</title>
<polygon fill="#bfbfbf" stroke="#000000" points="87.5,-112.5 87.5,-131.5 179.5,-131.5 179.5,-112.5 87.5,-112.5"/>
<text text-anchor="middle" x="133.5" y="-119.5" font-family="FreeSans.ttf" font-size="10.00" fill="#000000">TimeRange.cpp</text>
</g>
<!-- Node1 -->
<g id="node2" class="node">
<title>Node1</title>
<g id="a_node2"><a xlink:href="TimeRange_8h.html" target="_top" xlink:title="iDynTree/TimeRange.h">
<polygon fill="none" stroke="#000000" points="0,-56.5 0,-75.5 127,-75.5 127,-56.5 0,-56.5"/>
<text text-anchor="middle" x="63.5" y="-63.5" font-family="FreeSans.ttf" font-size="10.00" fill="#000000">iDynTree/TimeRange.h</text>
</a>
</g>
</g>
<!-- Node0&#45;&gt;Node1 -->
<g id="edge1" class="edge">
<title>Node0&#45;&gt;Node1</title>
<path fill="none" stroke="#191970" d="M121.3069,-112.2455C110.8679,-103.8943 95.6345,-91.7076 83.426,-81.9408"/>
<polygon fill="#191970" stroke="#191970" points="85.5485,-79.1566 75.5533,-75.6427 81.1756,-84.6227 85.5485,-79.1566"/>
</g>
<!-- Node2 -->
<g id="node3" class="node">
<title>Node2</title>
<g id="a_node3"><a xlink:href="Utils_8h.html" target="_top" xlink:title="iDynTree/Core/Utils.h">
<polygon fill="none" stroke="#000000" points="145,-56.5 145,-75.5 264,-75.5 264,-56.5 145,-56.5"/>
<text text-anchor="middle" x="204.5" y="-63.5" font-family="FreeSans.ttf" font-size="10.00" fill="#000000">iDynTree/Core/Utils.h</text>
</a>
</g>
</g>
<!-- Node0&#45;&gt;Node2 -->
<g id="edge2" class="edge">
<title>Node0&#45;&gt;Node2</title>
<path fill="none" stroke="#191970" d="M145.8673,-112.2455C156.4554,-103.8943 171.9064,-91.7076 184.2893,-81.9408"/>
<polygon fill="#191970" stroke="#191970" points="186.5903,-84.5837 192.2745,-75.6427 182.2553,-79.0875 186.5903,-84.5837"/>
</g>
<!-- Node3 -->
<g id="node4" class="node">
<title>Node3</title>
<polygon fill="none" stroke="#bfbfbf" points="178,-.5 178,-19.5 231,-19.5 231,-.5 178,-.5"/>
<text text-anchor="middle" x="204.5" y="-7.5" font-family="FreeSans.ttf" font-size="10.00" fill="#000000">cstddef</text>
</g>
<!-- Node2&#45;&gt;Node3 -->
<g id="edge3" class="edge">
<title>Node2&#45;&gt;Node3</title>
<path fill="none" stroke="#191970" d="M204.5,-56.2455C204.5,-48.9382 204.5,-38.6944 204.5,-29.7046"/>
<polygon fill="#191970" stroke="#191970" points="208.0001,-29.6426 204.5,-19.6427 201.0001,-29.6427 208.0001,-29.6426"/>
</g>
</g>
</svg>
