<?xml version="1.0" encoding="UTF-8" standalone="no"?>
<!DOCTYPE svg PUBLIC "-//W3C//DTD SVG 1.1//EN"
 "http://www.w3.org/Graphics/SVG/1.1/DTD/svg11.dtd">
<!-- Generated by graphviz version 2.40.1 (20161225.0304)
 -->
<!-- Title: Transform.h Pages: 1 -->
<svg width="1061pt" height="364pt"
 viewBox="0.00 0.00 1060.50 364.00" xmlns="http://www.w3.org/2000/svg" xmlns:xlink="http://www.w3.org/1999/xlink">
<g id="graph0" class="graph" transform="scale(1 1) rotate(0) translate(4 360)">
<title>Transform.h</title>
<!-- Node0 -->
<g id="node1" class="node">
<title>Node0</title>
<polygon fill="#bfbfbf" stroke="#000000" points="570,-336.5 570,-355.5 644,-355.5 644,-336.5 570,-336.5"/>
<text text-anchor="middle" x="607" y="-343.5" font-family="FreeSans.ttf" font-size="10.00" fill="#000000">Transform.h</text>
</g>
<!-- Node1 -->
<g id="node2" class="node">
<title>Node1</title>
<g id="a_node2"><a xlink:href="Position_8h.html" target="_top" xlink:title="iDynTree/Core/Position.h">
<polygon fill="none" stroke="#000000" points="539,-280.5 539,-299.5 675,-299.5 675,-280.5 539,-280.5"/>
<text text-anchor="middle" x="607" y="-287.5" font-family="FreeSans.ttf" font-size="10.00" fill="#000000">iDynTree/Core/Position.h</text>
</a>
</g>
</g>
<!-- Node0&#45;&gt;Node1 -->
<g id="edge1" class="edge">
<title>Node0&#45;&gt;Node1</title>
<path fill="none" stroke="#191970" d="M607,-336.2455C607,-328.9382 607,-318.6944 607,-309.7046"/>
<polygon fill="#191970" stroke="#191970" points="610.5001,-309.6426 607,-299.6427 603.5001,-309.6427 610.5001,-309.6426"/>
</g>
<!-- Node15 -->
<g id="node16" class="node">
<title>Node15</title>
<polygon fill="none" stroke="#bfbfbf" points="662,-56.5 662,-75.5 706,-75.5 706,-56.5 662,-56.5"/>
<text text-anchor="middle" x="684" y="-63.5" font-family="FreeSans.ttf" font-size="10.00" fill="#000000">string</text>
</g>
<!-- Node0&#45;&gt;Node15 -->
<g id="edge42" class="edge">
<title>Node0&#45;&gt;Node15</title>
<path fill="none" stroke="#191970" d="M644.32,-343.6462C707.087,-337.447 827,-315.0037 827,-234 827,-234 827,-234 827,-178 827,-121.8011 757.6998,-89.5702 715.5853,-75.1719"/>
<polygon fill="#191970" stroke="#191970" points="716.6229,-71.8289 706.0304,-72.0497 714.4486,-78.4826 716.6229,-71.8289"/>
</g>
<!-- Node19 -->
<g id="node20" class="node">
<title>Node19</title>
<g id="a_node20"><a xlink:href="Rotation_8h.html" target="_top" xlink:title="iDynTree/Core/Rotation.h">
<polygon fill="none" stroke="#000000" points="381.5,-224.5 381.5,-243.5 518.5,-243.5 518.5,-224.5 381.5,-224.5"/>
<text text-anchor="middle" x="450" y="-231.5" font-family="FreeSans.ttf" font-size="10.00" fill="#000000">iDynTree/Core/Rotation.h</text>
</a>
</g>
</g>
<!-- Node0&#45;&gt;Node19 -->
<g id="edge38" class="edge">
<title>Node0&#45;&gt;Node19</title>
<path fill="none" stroke="#191970" d="M589.4031,-336.493C573.4821,-327.6586 549.5985,-313.8193 530,-300 507.8997,-284.4167 484.1961,-264.4019 468.3768,-250.5188"/>
<polygon fill="#191970" stroke="#191970" points="470.2656,-247.516 460.4598,-243.5038 465.6233,-252.7553 470.2656,-247.516"/>
</g>
<!-- Node21 -->
<g id="node22" class="node">
<title>Node21</title>
<g id="a_node22"><a xlink:href="MatrixFixSize_8h.html" target="_top" xlink:title="iDynTree/Core/MatrixFixSize.h">
<polygon fill="none" stroke="#000000" points="62.5,-112.5 62.5,-131.5 223.5,-131.5 223.5,-112.5 62.5,-112.5"/>
<text text-anchor="middle" x="143" y="-119.5" font-family="FreeSans.ttf" font-size="10.00" fill="#000000">iDynTree/Core/MatrixFixSize.h</text>
</a>
</g>
</g>
<!-- Node0&#45;&gt;Node21 -->
<g id="edge41" class="edge">
<title>Node0&#45;&gt;Node21</title>
<path fill="none" stroke="#191970" d="M585.0743,-336.486C563.6386,-327.1844 530.0756,-312.6198 501,-300 443.6651,-275.1146 428.34,-271.0624 372,-244 323.9719,-220.9302 313.0306,-213.0408 266,-188 232.8063,-170.3265 194.6605,-149.8287 169.7622,-136.4243"/>
<polygon fill="#191970" stroke="#191970" points="171.3703,-133.3151 160.9063,-131.6549 168.0511,-139.4781 171.3703,-133.3151"/>
</g>
<!-- Node24 -->
<g id="node25" class="node">
<title>Node24</title>
<g id="a_node25"><a xlink:href="TransformSemantics_8h.html" target="_top" xlink:title="iDynTree/Core/TransformSemantics.h">
<polygon fill="none" stroke="#000000" points="855.5,-280.5 855.5,-299.5 1052.5,-299.5 1052.5,-280.5 855.5,-280.5"/>
<text text-anchor="middle" x="954" y="-287.5" font-family="FreeSans.ttf" font-size="10.00" fill="#000000">iDynTree/Core/TransformSemantics.h</text>
</a>
</g>
</g>
<!-- Node0&#45;&gt;Node24 -->
<g id="edge39" class="edge">
<title>Node0&#45;&gt;Node24</title>
<path fill="none" stroke="#191970" d="M644.1351,-340.007C701.4937,-330.7503 812.5685,-312.8247 884.9711,-301.1401"/>
<polygon fill="#191970" stroke="#191970" points="885.6066,-304.5829 894.9212,-299.5343 884.4913,-297.6723 885.6066,-304.5829"/>
</g>
<!-- Node2 -->
<g id="node3" class="node">
<title>Node2</title>
<g id="a_node3"><a xlink:href="PositionRaw_8h.html" target="_top" xlink:title="iDynTree/Core/PositionRaw.h">
<polygon fill="none" stroke="#000000" points="535,-168.5 535,-187.5 691,-187.5 691,-168.5 535,-168.5"/>
<text text-anchor="middle" x="613" y="-175.5" font-family="FreeSans.ttf" font-size="10.00" fill="#000000">iDynTree/Core/PositionRaw.h</text>
</a>
</g>
</g>
<!-- Node1&#45;&gt;Node2 -->
<g id="edge2" class="edge">
<title>Node1&#45;&gt;Node2</title>
<path fill="none" stroke="#191970" d="M594.0124,-280.4692C578.858,-268.0899 556.9538,-245.5117 566,-224 570.9978,-212.1153 580.7314,-201.765 590.0503,-193.908"/>
<polygon fill="#191970" stroke="#191970" points="592.2957,-196.5951 598.0035,-187.6692 587.9752,-191.0874 592.2957,-196.5951"/>
</g>
<!-- Node1&#45;&gt;Node15 -->
<g id="edge37" class="edge">
<title>Node1&#45;&gt;Node15</title>
<path fill="none" stroke="#191970" d="M669.3627,-280.4676C710.2769,-272.7934 758.4501,-260.5543 771,-244 811.5693,-190.4859 739.6593,-115.0684 703.2357,-82.2805"/>
<polygon fill="#191970" stroke="#191970" points="705.4639,-79.5791 695.6444,-75.6006 700.8397,-84.8343 705.4639,-79.5791"/>
</g>
<!-- Node18 -->
<g id="node19" class="node">
<title>Node18</title>
<g id="a_node19"><a xlink:href="PositionSemantics_8h.html" target="_top" xlink:title="iDynTree/Core/PositionSemantics.h">
<polygon fill="none" stroke="#000000" points="574.5,-224.5 574.5,-243.5 761.5,-243.5 761.5,-224.5 574.5,-224.5"/>
<text text-anchor="middle" x="668" y="-231.5" font-family="FreeSans.ttf" font-size="10.00" fill="#000000">iDynTree/Core/PositionSemantics.h</text>
</a>
</g>
</g>
<!-- Node1&#45;&gt;Node18 -->
<g id="edge21" class="edge">
<title>Node1&#45;&gt;Node18</title>
<path fill="none" stroke="#191970" d="M617.6254,-280.2455C626.5473,-272.0549 639.488,-260.1749 650.0192,-250.5069"/>
<polygon fill="#191970" stroke="#191970" points="652.4968,-252.9837 657.4964,-243.6427 647.7629,-247.8271 652.4968,-252.9837"/>
</g>
<!-- Node1&#45;&gt;Node19 -->
<g id="edge23" class="edge">
<title>Node1&#45;&gt;Node19</title>
<path fill="none" stroke="#191970" d="M580.0107,-280.3733C554.1301,-271.1419 514.8752,-257.1402 486.2711,-246.9375"/>
<polygon fill="#191970" stroke="#191970" points="487.2317,-243.5642 476.6371,-243.5011 484.88,-250.1573 487.2317,-243.5642"/>
</g>
<!-- Node3 -->
<g id="node4" class="node">
<title>Node3</title>
<g id="a_node4"><a xlink:href="VectorFixSize_8h.html" target="_top" xlink:title="iDynTree/Core/VectorFixSize.h">
<polygon fill="none" stroke="#000000" points="241.5,-112.5 241.5,-131.5 402.5,-131.5 402.5,-112.5 241.5,-112.5"/>
<text text-anchor="middle" x="322" y="-119.5" font-family="FreeSans.ttf" font-size="10.00" fill="#000000">iDynTree/Core/VectorFixSize.h</text>
</a>
</g>
</g>
<!-- Node2&#45;&gt;Node3 -->
<g id="edge3" class="edge">
<title>Node2&#45;&gt;Node3</title>
<path fill="none" stroke="#191970" d="M563.306,-168.4369C512.9804,-158.7522 435.1277,-143.7703 381.5349,-133.4569"/>
<polygon fill="#191970" stroke="#191970" points="381.9703,-129.9765 371.4891,-131.5237 380.6475,-136.8504 381.9703,-129.9765"/>
</g>
<!-- Node2&#45;&gt;Node15 -->
<g id="edge20" class="edge">
<title>Node2&#45;&gt;Node15</title>
<path fill="none" stroke="#191970" d="M645.6897,-168.4174C663.3362,-161.3899 683.5862,-149.8899 694,-132 702.2698,-117.7932 698.3054,-99.0677 693.1253,-85.1923"/>
<polygon fill="#191970" stroke="#191970" points="696.224,-83.5332 689.1096,-75.6824 689.7754,-86.2563 696.224,-83.5332"/>
</g>
<!-- Node4 -->
<g id="node5" class="node">
<title>Node4</title>
<g id="a_node5"><a xlink:href="Utils_8h.html" target="_top" xlink:title="iDynTree/Core/Utils.h">
<polygon fill="none" stroke="#000000" points="78.5,-56.5 78.5,-75.5 197.5,-75.5 197.5,-56.5 78.5,-56.5"/>
<text text-anchor="middle" x="138" y="-63.5" font-family="FreeSans.ttf" font-size="10.00" fill="#000000">iDynTree/Core/Utils.h</text>
</a>
</g>
</g>
<!-- Node3&#45;&gt;Node4 -->
<g id="edge4" class="edge">
<title>Node3&#45;&gt;Node4</title>
<path fill="none" stroke="#191970" d="M290.3693,-112.3733C259.6404,-103.021 212.824,-88.7725 179.1978,-78.5385"/>
<polygon fill="#191970" stroke="#191970" points="179.8038,-75.0644 169.218,-75.5011 177.7656,-81.7612 179.8038,-75.0644"/>
</g>
<!-- Node6 -->
<g id="node7" class="node">
<title>Node6</title>
<g id="a_node7"><a xlink:href="Span_8h.html" target="_top" xlink:title="iDynTree/Core/Span.h">
<polygon fill="none" stroke="#000000" points="358.5,-56.5 358.5,-75.5 479.5,-75.5 479.5,-56.5 358.5,-56.5"/>
<text text-anchor="middle" x="419" y="-63.5" font-family="FreeSans.ttf" font-size="10.00" fill="#000000">iDynTree/Core/Span.h</text>
</a>
</g>
</g>
<!-- Node3&#45;&gt;Node6 -->
<g id="edge6" class="edge">
<title>Node3&#45;&gt;Node6</title>
<path fill="none" stroke="#191970" d="M338.8961,-112.2455C353.918,-103.5731 376.1043,-90.7645 393.321,-80.825"/>
<polygon fill="#191970" stroke="#191970" points="395.3871,-83.6737 402.2975,-75.6427 391.8872,-77.6114 395.3871,-83.6737"/>
</g>
<!-- Node7 -->
<g id="node8" class="node">
<title>Node7</title>
<polygon fill="none" stroke="#bfbfbf" points="637,-.5 637,-19.5 689,-19.5 689,-.5 637,-.5"/>
<text text-anchor="middle" x="663" y="-7.5" font-family="FreeSans.ttf" font-size="10.00" fill="#000000">cassert</text>
</g>
<!-- Node3&#45;&gt;Node7 -->
<g id="edge18" class="edge">
<title>Node3&#45;&gt;Node7</title>
<path fill="none" stroke="#191970" d="M386.9238,-112.4592C446.7882,-103.1377 530.9261,-88.5589 562,-76 592.8193,-63.544 624.2409,-41.1685 643.6749,-25.9584"/>
<polygon fill="#191970" stroke="#191970" points="646.0865,-28.5116 651.7152,-19.5356 641.7175,-23.0424 646.0865,-28.5116"/>
</g>
<!-- Node3&#45;&gt;Node15 -->
<g id="edge16" class="edge">
<title>Node3&#45;&gt;Node15</title>
<path fill="none" stroke="#191970" d="M383.9306,-112.4743C444.2087,-103.1947 538.3979,-88.6733 620,-76 630.3096,-74.3989 641.5521,-72.6449 651.6973,-71.0592"/>
<polygon fill="#191970" stroke="#191970" points="652.4484,-74.4843 661.7874,-69.481 651.3667,-67.5684 652.4484,-74.4843"/>
</g>
<!-- Node16 -->
<g id="node17" class="node">
<title>Node16</title>
<polygon fill="none" stroke="#bfbfbf" points="216,-56.5 216,-75.5 272,-75.5 272,-56.5 216,-56.5"/>
<text text-anchor="middle" x="244" y="-63.5" font-family="FreeSans.ttf" font-size="10.00" fill="#000000">sstream</text>
</g>
<!-- Node3&#45;&gt;Node16 -->
<g id="edge17" class="edge">
<title>Node3&#45;&gt;Node16</title>
<path fill="none" stroke="#191970" d="M308.4134,-112.2455C296.6695,-103.814 279.4801,-91.4729 265.8118,-81.6598"/>
<polygon fill="#191970" stroke="#191970" points="267.5954,-78.6316 257.4309,-75.6427 263.5129,-84.3179 267.5954,-78.6316"/>
</g>
<!-- Node17 -->
<g id="node18" class="node">
<title>Node17</title>
<polygon fill="none" stroke="#bfbfbf" points="290,-56.5 290,-75.5 340,-75.5 340,-56.5 290,-56.5"/>
<text text-anchor="middle" x="315" y="-63.5" font-family="FreeSans.ttf" font-size="10.00" fill="#000000">cstring</text>
</g>
<!-- Node3&#45;&gt;Node17 -->
<g id="edge19" class="edge">
<title>Node3&#45;&gt;Node17</title>
<path fill="none" stroke="#191970" d="M320.7807,-112.2455C319.8673,-104.9382 318.5868,-94.6944 317.4631,-85.7046"/>
<polygon fill="#191970" stroke="#191970" points="320.9187,-85.1313 316.2053,-75.6427 313.9728,-85.9996 320.9187,-85.1313"/>
</g>
<!-- Node5 -->
<g id="node6" class="node">
<title>Node5</title>
<polygon fill="none" stroke="#bfbfbf" points="55.5,-.5 55.5,-19.5 108.5,-19.5 108.5,-.5 55.5,-.5"/>
<text text-anchor="middle" x="82" y="-7.5" font-family="FreeSans.ttf" font-size="10.00" fill="#000000">cstddef</text>
</g>
<!-- Node4&#45;&gt;Node5 -->
<g id="edge5" class="edge">
<title>Node4&#45;&gt;Node5</title>
<path fill="none" stroke="#191970" d="M128.2455,-56.2455C120.1352,-48.1352 108.4075,-36.4075 98.7919,-26.7919"/>
<polygon fill="#191970" stroke="#191970" points="101.1887,-24.2389 91.6427,-19.6427 96.2389,-29.1887 101.1887,-24.2389"/>
</g>
<!-- Node6&#45;&gt;Node5 -->
<g id="edge10" class="edge">
<title>Node6&#45;&gt;Node5</title>
<path fill="none" stroke="#191970" d="M358.2623,-57.1149C283.8077,-46.1669 162.9411,-28.1949 118.6114,-19.7947"/>
<polygon fill="#191970" stroke="#191970" points="119.1433,-16.3316 108.6485,-17.7839 117.7584,-23.1932 119.1433,-16.3316"/>
</g>
<!-- Node6&#45;&gt;Node7 -->
<g id="edge7" class="edge">
<title>Node6&#45;&gt;Node7</title>
<path fill="none" stroke="#191970" d="M466.5091,-56.4148C506.8406,-48.0813 566.4538,-35.304 626.9583,-20.1604"/>
<polygon fill="#191970" stroke="#191970" points="627.8334,-23.5493 636.6737,-17.7099 626.1214,-16.7619 627.8334,-23.5493"/>
</g>
<!-- Node8 -->
<g id="node9" class="node">
<title>Node8</title>
<polygon fill="none" stroke="#bfbfbf" points="423,-.5 423,-19.5 487,-19.5 487,-.5 423,-.5"/>
<text text-anchor="middle" x="455" y="-7.5" font-family="FreeSans.ttf" font-size="10.00" fill="#000000">algorithm</text>
</g>
<!-- Node6&#45;&gt;Node8 -->
<g id="edge8" class="edge">
<title>Node6&#45;&gt;Node8</title>
<path fill="none" stroke="#191970" d="M425.2707,-56.2455C430.2264,-48.5367 437.283,-37.5598 443.2776,-28.2348"/>
<polygon fill="#191970" stroke="#191970" points="446.3376,-29.9471 448.8011,-19.6427 440.4494,-26.1618 446.3376,-29.9471"/>
</g>
<!-- Node9 -->
<g id="node10" class="node">
<title>Node9</title>
<polygon fill="none" stroke="#bfbfbf" points="505,-.5 505,-19.5 547,-19.5 547,-.5 505,-.5"/>
<text text-anchor="middle" x="526" y="-7.5" font-family="FreeSans.ttf" font-size="10.00" fill="#000000">array</text>
</g>
<!-- Node6&#45;&gt;Node9 -->
<g id="edge9" class="edge">
<title>Node6&#45;&gt;Node9</title>
<path fill="none" stroke="#191970" d="M437.638,-56.2455C454.4386,-47.4527 479.3634,-34.4079 498.4618,-24.4125"/>
<polygon fill="#191970" stroke="#191970" points="500.3386,-27.3807 507.5756,-19.6427 497.0927,-21.1787 500.3386,-27.3807"/>
</g>
<!-- Node10 -->
<g id="node11" class="node">
<title>Node10</title>
<polygon fill="none" stroke="#bfbfbf" points="565.5,-.5 565.5,-19.5 618.5,-19.5 618.5,-.5 565.5,-.5"/>
<text text-anchor="middle" x="592" y="-7.5" font-family="FreeSans.ttf" font-size="10.00" fill="#000000">iterator</text>
</g>
<!-- Node6&#45;&gt;Node10 -->
<g id="edge11" class="edge">
<title>Node6&#45;&gt;Node10</title>
<path fill="none" stroke="#191970" d="M448.7398,-56.3733C478.3788,-46.7791 523.9361,-32.0323 555.6927,-21.7527"/>
<polygon fill="#191970" stroke="#191970" points="557.0446,-24.9939 565.4807,-18.5843 554.8888,-18.3341 557.0446,-24.9939"/>
</g>
<!-- Node11 -->
<g id="node12" class="node">
<title>Node11</title>
<polygon fill="none" stroke="#bfbfbf" points="127,-.5 127,-19.5 171,-19.5 171,-.5 127,-.5"/>
<text text-anchor="middle" x="149" y="-7.5" font-family="FreeSans.ttf" font-size="10.00" fill="#000000">limits</text>
</g>
<!-- Node6&#45;&gt;Node11 -->
<g id="edge12" class="edge">
<title>Node6&#45;&gt;Node11</title>
<path fill="none" stroke="#191970" d="M358.6347,-56.4771C312.3182,-48.6925 246.6704,-36.6299 180.9507,-20.0214"/>
<polygon fill="#191970" stroke="#191970" points="181.8119,-16.6291 171.2562,-17.5379 180.0748,-23.4101 181.8119,-16.6291"/>
</g>
<!-- Node12 -->
<g id="node13" class="node">
<title>Node12</title>
<polygon fill="none" stroke="#bfbfbf" points="189.5,-.5 189.5,-19.5 254.5,-19.5 254.5,-.5 189.5,-.5"/>
<text text-anchor="middle" x="222" y="-7.5" font-family="FreeSans.ttf" font-size="10.00" fill="#000000">stdexcept</text>
</g>
<!-- Node6&#45;&gt;Node12 -->
<g id="edge13" class="edge">
<title>Node6&#45;&gt;Node12</title>
<path fill="none" stroke="#191970" d="M385.1345,-56.3733C351.7498,-46.8832 300.6297,-32.3516 264.5265,-22.0888"/>
<polygon fill="#191970" stroke="#191970" points="265.3449,-18.6828 254.769,-19.315 263.4309,-25.416 265.3449,-18.6828"/>
</g>
<!-- Node13 -->
<g id="node14" class="node">
<title>Node13</title>
<polygon fill="none" stroke="#bfbfbf" points="272.5,-.5 272.5,-19.5 341.5,-19.5 341.5,-.5 272.5,-.5"/>
<text text-anchor="middle" x="307" y="-7.5" font-family="FreeSans.ttf" font-size="10.00" fill="#000000">type_traits</text>
</g>
<!-- Node6&#45;&gt;Node13 -->
<g id="edge14" class="edge">
<title>Node6&#45;&gt;Node13</title>
<path fill="none" stroke="#191970" d="M399.7465,-56.3733C381.9288,-47.4644 355.2253,-34.1127 335.0406,-24.0203"/>
<polygon fill="#191970" stroke="#191970" points="336.5118,-20.8428 326.0022,-19.5011 333.3813,-27.1038 336.5118,-20.8428"/>
</g>
<!-- Node14 -->
<g id="node15" class="node">
<title>Node14</title>
<polygon fill="none" stroke="#bfbfbf" points="359.5,-.5 359.5,-19.5 404.5,-19.5 404.5,-.5 359.5,-.5"/>
<text text-anchor="middle" x="382" y="-7.5" font-family="FreeSans.ttf" font-size="10.00" fill="#000000">utility</text>
</g>
<!-- Node6&#45;&gt;Node14 -->
<g id="edge15" class="edge">
<title>Node6&#45;&gt;Node14</title>
<path fill="none" stroke="#191970" d="M412.5551,-56.2455C407.4618,-48.5367 400.2092,-37.5598 394.048,-28.2348"/>
<polygon fill="#191970" stroke="#191970" points="396.8038,-26.0566 388.3711,-19.6427 390.9635,-29.9155 396.8038,-26.0566"/>
</g>
<!-- Node18&#45;&gt;Node15 -->
<g id="edge22" class="edge">
<title>Node18&#45;&gt;Node15</title>
<path fill="none" stroke="#191970" d="M676.754,-224.1583C684.1259,-215.3189 694.3472,-201.6641 700,-188 709.6649,-164.6376 707.7691,-157.184 710,-132 710.7844,-123.1458 712.2613,-120.5964 710,-112 707.3888,-102.0734 702.0933,-92.0366 696.9588,-83.8822"/>
<polygon fill="#191970" stroke="#191970" points="699.864,-81.9303 691.3819,-75.5817 694.0537,-85.8342 699.864,-81.9303"/>
</g>
<!-- Node19&#45;&gt;Node3 -->
<g id="edge36" class="edge">
<title>Node19&#45;&gt;Node3</title>
<path fill="none" stroke="#191970" d="M381.2519,-224.7636C337.7855,-217.3541 287.3672,-205.31 274,-188 260.9024,-171.0391 280.0367,-151.0814 297.8884,-137.5885"/>
<polygon fill="#191970" stroke="#191970" points="300.2868,-140.1773 306.4021,-131.5255 296.2262,-134.4754 300.2868,-140.1773"/>
</g>
<!-- Node19&#45;&gt;Node15 -->
<g id="edge24" class="edge">
<title>Node19&#45;&gt;Node15</title>
<path fill="none" stroke="#191970" d="M449.9736,-224.4236C450.4579,-201.4196 455.0394,-142.6865 488,-112 511.5351,-90.0887 602.4915,-75.9113 651.7935,-69.6697"/>
<polygon fill="#191970" stroke="#191970" points="652.4318,-73.1176 661.9302,-68.424 651.578,-66.1699 652.4318,-73.1176"/>
</g>
<!-- Node20 -->
<g id="node21" class="node">
<title>Node20</title>
<g id="a_node21"><a xlink:href="RotationRaw_8h.html" target="_top" xlink:title="iDynTree/Core/RotationRaw.h">
<polygon fill="none" stroke="#000000" points="283,-168.5 283,-187.5 441,-187.5 441,-168.5 283,-168.5"/>
<text text-anchor="middle" x="362" y="-175.5" font-family="FreeSans.ttf" font-size="10.00" fill="#000000">iDynTree/Core/RotationRaw.h</text>
</a>
</g>
</g>
<!-- Node19&#45;&gt;Node20 -->
<g id="edge25" class="edge">
<title>Node19&#45;&gt;Node20</title>
<path fill="none" stroke="#191970" d="M434.6716,-224.2455C421.1697,-215.6534 401.2878,-203.0014 385.7314,-193.1018"/>
<polygon fill="#191970" stroke="#191970" points="387.4685,-190.0587 377.1528,-187.6427 383.7103,-195.9643 387.4685,-190.0587"/>
</g>
<!-- Node23 -->
<g id="node24" class="node">
<title>Node23</title>
<g id="a_node24"><a xlink:href="RotationSemantics_8h.html" target="_top" xlink:title="iDynTree/Core/RotationSemantics.h">
<polygon fill="none" stroke="#000000" points="497,-112.5 497,-131.5 685,-131.5 685,-112.5 497,-112.5"/>
<text text-anchor="middle" x="591" y="-119.5" font-family="FreeSans.ttf" font-size="10.00" fill="#000000">iDynTree/Core/RotationSemantics.h</text>
</a>
</g>
</g>
<!-- Node19&#45;&gt;Node23 -->
<g id="edge34" class="edge">
<title>Node19&#45;&gt;Node23</title>
<path fill="none" stroke="#191970" d="M460.5389,-224.2559C474.957,-211.0642 501.8063,-186.9903 526,-168 539.5638,-157.3535 555.3401,-146.1619 567.9533,-137.4836"/>
<polygon fill="#191970" stroke="#191970" points="570.2131,-140.1789 576.5018,-131.6523 566.2684,-134.3962 570.2131,-140.1789"/>
</g>
<!-- Node20&#45;&gt;Node15 -->
<g id="edge33" class="edge">
<title>Node20&#45;&gt;Node15</title>
<path fill="none" stroke="#191970" d="M372.2599,-168.465C388.5075,-153.9193 421.7386,-126.3661 455,-112 472.9105,-104.2642 593.3036,-82.1638 651.9775,-71.6673"/>
<polygon fill="#191970" stroke="#191970" points="652.613,-75.1093 661.843,-69.9078 651.3838,-68.2181 652.613,-75.1093"/>
</g>
<!-- Node20&#45;&gt;Node21 -->
<g id="edge26" class="edge">
<title>Node20&#45;&gt;Node21</title>
<path fill="none" stroke="#191970" d="M324.3526,-168.3733C287.148,-158.8598 230.1297,-144.2797 189.9784,-134.0127"/>
<polygon fill="#191970" stroke="#191970" points="190.7116,-130.5877 180.1562,-131.5011 188.9773,-137.3695 190.7116,-130.5877"/>
</g>
<!-- Node21&#45;&gt;Node4 -->
<g id="edge27" class="edge">
<title>Node21&#45;&gt;Node4</title>
<path fill="none" stroke="#191970" d="M142.1291,-112.2455C141.4766,-104.9382 140.562,-94.6944 139.7593,-85.7046"/>
<polygon fill="#191970" stroke="#191970" points="143.2365,-85.2918 138.861,-75.6427 136.2642,-85.9143 143.2365,-85.2918"/>
</g>
<!-- Node21&#45;&gt;Node7 -->
<g id="edge28" class="edge">
<title>Node21&#45;&gt;Node7</title>
<path fill="none" stroke="#191970" d="M221.5108,-112.4911C315.2981,-100.9816 462.7663,-82.3519 488,-76 540.4469,-62.7979 598.7263,-38.8367 633.0477,-23.7051"/>
<polygon fill="#191970" stroke="#191970" points="634.7729,-26.7682 642.4826,-19.501 631.9238,-20.3742 634.7729,-26.7682"/>
</g>
<!-- Node21&#45;&gt;Node15 -->
<g id="edge30" class="edge">
<title>Node21&#45;&gt;Node15</title>
<path fill="none" stroke="#191970" d="M223.5261,-112.9139C226.3856,-112.6034 229.2172,-112.2979 232,-112 389.355,-95.1533 577.6923,-76.4587 651.7983,-69.1603"/>
<polygon fill="#191970" stroke="#191970" points="652.2767,-72.6302 661.8859,-68.1678 651.5912,-65.6639 652.2767,-72.6302"/>
</g>
<!-- Node21&#45;&gt;Node16 -->
<g id="edge32" class="edge">
<title>Node21&#45;&gt;Node16</title>
<path fill="none" stroke="#191970" d="M160.5929,-112.2455C176.379,-103.4928 199.7639,-90.527 217.7587,-80.5496"/>
<polygon fill="#191970" stroke="#191970" points="219.5603,-83.5528 226.6087,-75.6427 216.1659,-77.4308 219.5603,-83.5528"/>
</g>
<!-- Node21&#45;&gt;Node17 -->
<g id="edge29" class="edge">
<title>Node21&#45;&gt;Node17</title>
<path fill="none" stroke="#191970" d="M172.5679,-112.3733C202.3822,-102.6663 248.3974,-87.6846 280.0112,-77.3917"/>
<polygon fill="#191970" stroke="#191970" points="281.3054,-80.6512 289.7305,-74.2273 279.1382,-73.9951 281.3054,-80.6512"/>
</g>
<!-- Node22 -->
<g id="node23" class="node">
<title>Node22</title>
<polygon fill="none" stroke="#bfbfbf" points="0,-56.5 0,-75.5 60,-75.5 60,-56.5 0,-56.5"/>
<text text-anchor="middle" x="30" y="-63.5" font-family="FreeSans.ttf" font-size="10.00" fill="#000000">iostream</text>
</g>
<!-- Node21&#45;&gt;Node22 -->
<g id="edge31" class="edge">
<title>Node21&#45;&gt;Node22</title>
<path fill="none" stroke="#191970" d="M123.5746,-112.3733C105.5979,-103.4644 78.6559,-90.1127 58.291,-80.0203"/>
<polygon fill="#191970" stroke="#191970" points="59.6861,-76.8055 49.1719,-75.5011 56.5778,-83.0776 59.6861,-76.8055"/>
</g>
<!-- Node23&#45;&gt;Node15 -->
<g id="edge35" class="edge">
<title>Node23&#45;&gt;Node15</title>
<path fill="none" stroke="#191970" d="M607.1994,-112.2455C621.6018,-103.5731 642.8732,-90.7645 659.3799,-80.825"/>
<polygon fill="#191970" stroke="#191970" points="661.225,-83.7996 667.9863,-75.6427 657.614,-77.8028 661.225,-83.7996"/>
</g>
<!-- Node24&#45;&gt;Node15 -->
<g id="edge40" class="edge">
<title>Node24&#45;&gt;Node15</title>
<path fill="none" stroke="#191970" d="M950.6283,-280.1677C939.8091,-250.1097 903.0064,-158.6587 841,-112 804.0357,-84.185 750.5561,-73.1432 716.5384,-68.7906"/>
<polygon fill="#191970" stroke="#191970" points="716.5586,-65.2698 706.2231,-67.5997 715.7557,-72.2236 716.5586,-65.2698"/>
</g>
</g>
</svg>
