<?xml version="1.0" encoding="UTF-8" standalone="no"?>
<!DOCTYPE svg PUBLIC "-//W3C//DTD SVG 1.1//EN"
 "http://www.w3.org/Graphics/SVG/1.1/DTD/svg11.dtd">
<!-- Generated by graphviz version 2.40.1 (20161225.0304)
 -->
<!-- Title: Triplets.h Pages: 1 -->
<svg width="508pt" height="196pt"
 viewBox="0.00 0.00 508.46 196.00" xmlns="http://www.w3.org/2000/svg" xmlns:xlink="http://www.w3.org/1999/xlink">
<g id="graph0" class="graph" transform="scale(1 1) rotate(0) translate(4 192)">
<title>Triplets.h</title>
<!-- Node5 -->
<g id="node1" class="node">
<title>Node5</title>
<polygon fill="#bfbfbf" stroke="#000000" points="248.9587,-168.5 248.9587,-187.5 309.9587,-187.5 309.9587,-168.5 248.9587,-168.5"/>
<text text-anchor="middle" x="279.4587" y="-175.5" font-family="FreeSans.ttf" font-size="10.00" fill="#000000">Triplets.h</text>
</g>
<!-- Node6 -->
<g id="node2" class="node">
<title>Node6</title>
<g id="a_node2"><a xlink:href="SparseMatrix_8h.html" target="_top" xlink:title="SparseMatrix.h">
<polygon fill="none" stroke="#000000" points="198.9587,-112.5 198.9587,-131.5 287.9587,-131.5 287.9587,-112.5 198.9587,-112.5"/>
<text text-anchor="middle" x="243.4587" y="-119.5" font-family="FreeSans.ttf" font-size="10.00" fill="#000000">SparseMatrix.h</text>
</a>
</g>
</g>
<!-- Node5&#45;&gt;Node6 -->
<g id="edge1" class="edge">
<title>Node5&#45;&gt;Node6</title>
<path fill="none" stroke="#191970" d="M267.6492,-159.6296C261.6443,-150.2887 254.5929,-139.3197 249.6576,-131.6427"/>
<polygon fill="#191970" stroke="#191970" points="264.8363,-161.7264 273.188,-168.2455 270.7245,-157.9411 264.8363,-161.7264"/>
</g>
<!-- Node9 -->
<g id="node5" class="node">
<title>Node9</title>
<g id="a_node5"><a xlink:href="SparseMatrix_8cpp.html" target="_top" xlink:title="SparseMatrix.cpp">
<polygon fill="none" stroke="#000000" points="308.9587,-56.5 308.9587,-75.5 409.9587,-75.5 409.9587,-56.5 308.9587,-56.5"/>
<text text-anchor="middle" x="359.4587" y="-63.5" font-family="FreeSans.ttf" font-size="10.00" fill="#000000">SparseMatrix.cpp</text>
</a>
</g>
</g>
<!-- Node5&#45;&gt;Node9 -->
<g id="edge8" class="edge">
<title>Node5&#45;&gt;Node9</title>
<path fill="none" stroke="#191970" d="M292.1651,-160.2111C309.3167,-136.1989 339.2674,-94.2679 352.6553,-75.5249"/>
<polygon fill="#191970" stroke="#191970" points="289.2439,-158.2792 286.2795,-168.4509 294.94,-162.3479 289.2439,-158.2792"/>
</g>
<!-- Node10 -->
<g id="node6" class="node">
<title>Node10</title>
<g id="a_node6"><a xlink:href="Triplets_8cpp.html" target="_top" xlink:title="Triplets.cpp">
<polygon fill="none" stroke="#000000" points="428.4587,-56.5 428.4587,-75.5 500.4587,-75.5 500.4587,-56.5 428.4587,-56.5"/>
<text text-anchor="middle" x="464.4587" y="-63.5" font-family="FreeSans.ttf" font-size="10.00" fill="#000000">Triplets.cpp</text>
</a>
</g>
</g>
<!-- Node5&#45;&gt;Node10 -->
<g id="edge9" class="edge">
<title>Node5&#45;&gt;Node10</title>
<path fill="none" stroke="#191970" d="M304.2684,-162.9801C342.9529,-139.5603 416.5388,-95.011 448.7257,-75.5249"/>
<polygon fill="#191970" stroke="#191970" points="301.9736,-160.2779 295.2317,-168.4509 305.5989,-166.266 301.9736,-160.2779"/>
</g>
<!-- Node12 -->
<g id="node8" class="node">
<title>Node12</title>
<g id="a_node8"><a xlink:href="BerdyHelper_8h.html" target="_top" xlink:title="BerdyHelper.h">
<polygon fill="none" stroke="#000000" points="19.4587,-112.5 19.4587,-131.5 105.4587,-131.5 105.4587,-112.5 19.4587,-112.5"/>
<text text-anchor="middle" x="62.4587" y="-119.5" font-family="FreeSans.ttf" font-size="10.00" fill="#000000">BerdyHelper.h</text>
</a>
</g>
</g>
<!-- Node5&#45;&gt;Node12 -->
<g id="edge10" class="edge">
<title>Node5&#45;&gt;Node12</title>
<path fill="none" stroke="#191970" d="M239.1277,-167.592C199.1075,-157.2642 138.2885,-141.569 99.4697,-131.5512"/>
<polygon fill="#191970" stroke="#191970" points="238.2708,-170.9855 248.8282,-170.0953 240.02,-164.2075 238.2708,-170.9855"/>
</g>
<!-- Node7 -->
<g id="node3" class="node">
<title>Node7</title>
<g id="a_node3"><a xlink:href="EigenSparseHelpers_8h.html" target="_top" xlink:title="EigenSparseHelpers.h">
<polygon fill="none" stroke="#000000" points="167.9587,-56.5 167.9587,-75.5 290.9587,-75.5 290.9587,-56.5 167.9587,-56.5"/>
<text text-anchor="middle" x="229.4587" y="-63.5" font-family="FreeSans.ttf" font-size="10.00" fill="#000000">EigenSparseHelpers.h</text>
</a>
</g>
</g>
<!-- Node6&#45;&gt;Node7 -->
<g id="edge2" class="edge">
<title>Node6&#45;&gt;Node7</title>
<path fill="none" stroke="#191970" d="M238.5722,-102.4538C236.3038,-93.3803 233.7087,-82.9998 231.8694,-75.6427"/>
<polygon fill="#191970" stroke="#191970" points="235.1992,-103.393 241.0201,-112.2455 241.9902,-101.6952 235.1992,-103.393"/>
</g>
<!-- Node8 -->
<g id="node4" class="node">
<title>Node8</title>
<g id="a_node4"><a xlink:href="BerdySparseMAPSolver_8cpp.html" target="_top" xlink:title="BerdySparseMAPSolver.cpp">
<polygon fill="none" stroke="#000000" points="64.9587,-.5 64.9587,-19.5 213.9587,-19.5 213.9587,-.5 64.9587,-.5"/>
<text text-anchor="middle" x="139.4587" y="-7.5" font-family="FreeSans.ttf" font-size="10.00" fill="#000000">BerdySparseMAPSolver.cpp</text>
</a>
</g>
</g>
<!-- Node6&#45;&gt;Node8 -->
<g id="edge7" class="edge">
<title>Node6&#45;&gt;Node8</title>
<path fill="none" stroke="#191970" d="M203.857,-108.4468C187.7219,-101.1209 170.1531,-90.5347 158.4587,-76 145.0045,-59.2779 141.077,-33.4419 139.9308,-19.5755"/>
<polygon fill="#191970" stroke="#191970" points="202.5637,-111.7001 213.1361,-112.3886 205.3006,-105.2573 202.5637,-111.7001"/>
</g>
<!-- Node6&#45;&gt;Node9 -->
<g id="edge4" class="edge">
<title>Node6&#45;&gt;Node9</title>
<path fill="none" stroke="#191970" d="M272.5125,-107.9741C293.5152,-97.8348 321.3278,-84.408 339.7779,-75.5011"/>
<polygon fill="#191970" stroke="#191970" points="270.8837,-104.8738 263.3999,-112.3733 273.927,-111.1776 270.8837,-104.8738"/>
</g>
<!-- Node6&#45;&gt;Node10 -->
<g id="edge5" class="edge">
<title>Node6&#45;&gt;Node10</title>
<path fill="none" stroke="#191970" d="M291.0089,-109.9511C332.1999,-99.5135 390.9027,-84.6386 428.3409,-75.152"/>
<polygon fill="#191970" stroke="#191970" points="290.0328,-106.5877 281.1989,-112.4369 291.7523,-113.3733 290.0328,-106.5877"/>
</g>
<!-- Node11 -->
<g id="node7" class="node">
<title>Node11</title>
<g id="a_node7"><a xlink:href="BerdyHelper_8cpp.html" target="_top" xlink:title="BerdyHelper.cpp">
<polygon fill="none" stroke="#000000" points="13.9587,-56.5 13.9587,-75.5 110.9587,-75.5 110.9587,-56.5 13.9587,-56.5"/>
<text text-anchor="middle" x="62.4587" y="-63.5" font-family="FreeSans.ttf" font-size="10.00" fill="#000000">BerdyHelper.cpp</text>
</a>
</g>
</g>
<!-- Node6&#45;&gt;Node11 -->
<g id="edge6" class="edge">
<title>Node6&#45;&gt;Node11</title>
<path fill="none" stroke="#191970" d="M202.4865,-109.3235C169.2927,-99.0536 123.253,-84.8093 93.1677,-75.5011"/>
<polygon fill="#191970" stroke="#191970" points="201.756,-112.7611 212.3437,-112.3733 203.825,-106.0739 201.756,-112.7611"/>
</g>
<!-- Node7&#45;&gt;Node8 -->
<g id="edge3" class="edge">
<title>Node7&#45;&gt;Node8</title>
<path fill="none" stroke="#191970" d="M204.9803,-50.769C189.0321,-40.8456 168.7078,-28.1994 154.9559,-19.6427"/>
<polygon fill="#191970" stroke="#191970" points="203.4423,-53.9342 213.7819,-56.2455 207.1404,-47.9908 203.4423,-53.9342"/>
</g>
<!-- Node12&#45;&gt;Node8 -->
<g id="edge12" class="edge">
<title>Node12&#45;&gt;Node8</title>
<path fill="none" stroke="#191970" d="M34.5801,-107.348C13.7533,-94.4247 -8.9803,-74.7771 4.4587,-56 15.1949,-40.9994 59.1662,-27.8775 94.0478,-19.5289"/>
<polygon fill="#191970" stroke="#191970" points="32.8822,-110.4097 43.2782,-112.4527 36.4253,-104.3726 32.8822,-110.4097"/>
</g>
<!-- Node12&#45;&gt;Node11 -->
<g id="edge11" class="edge">
<title>Node12&#45;&gt;Node11</title>
<path fill="none" stroke="#191970" d="M62.4587,-102.1575C62.4587,-93.155 62.4587,-82.9199 62.4587,-75.6427"/>
<polygon fill="#191970" stroke="#191970" points="58.9588,-102.2455 62.4587,-112.2455 65.9588,-102.2456 58.9588,-102.2455"/>
</g>
</g>
</svg>
