<?xml version="1.0" encoding="UTF-8" standalone="no"?>
<!DOCTYPE svg PUBLIC "-//W3C//DTD SVG 1.1//EN"
 "http://www.w3.org/Graphics/SVG/1.1/DTD/svg11.dtd">
<!-- Generated by graphviz version 2.40.1 (20161225.0304)
 -->
<!-- Title: URDFParsingUtils.h Pages: 1 -->
<svg width="642pt" height="84pt"
 viewBox="0.00 0.00 641.50 84.00" xmlns="http://www.w3.org/2000/svg" xmlns:xlink="http://www.w3.org/1999/xlink">
<g id="graph0" class="graph" transform="scale(1 1) rotate(0) translate(4 80)">
<title>URDFParsingUtils.h</title>
<!-- Node28 -->
<g id="node1" class="node">
<title>Node28</title>
<polygon fill="#bfbfbf" stroke="#000000" points="269,-56.5 269,-75.5 379,-75.5 379,-56.5 269,-56.5"/>
<text text-anchor="middle" x="324" y="-63.5" font-family="FreeSans.ttf" font-size="10.00" fill="#000000">URDFParsingUtils.h</text>
</g>
<!-- Node29 -->
<g id="node2" class="node">
<title>Node29</title>
<g id="a_node2"><a xlink:href="GeometryElement_8cpp.html" target="_top" xlink:title="GeometryElement.cpp">
<polygon fill="none" stroke="#000000" points="0,-.5 0,-19.5 126,-19.5 126,-.5 0,-.5"/>
<text text-anchor="middle" x="63" y="-7.5" font-family="FreeSans.ttf" font-size="10.00" fill="#000000">GeometryElement.cpp</text>
</a>
</g>
</g>
<!-- Node28&#45;&gt;Node29 -->
<g id="edge1" class="edge">
<title>Node28&#45;&gt;Node29</title>
<path fill="none" stroke="#191970" d="M269.5036,-54.3073C221.4098,-43.9883 152.1762,-29.1336 107.3871,-19.5237"/>
<polygon fill="#191970" stroke="#191970" points="268.9173,-57.7611 279.4291,-56.4369 270.3859,-50.9168 268.9173,-57.7611"/>
</g>
<!-- Node30 -->
<g id="node3" class="node">
<title>Node30</title>
<g id="a_node3"><a xlink:href="InertialElement_8cpp.html" target="_top" xlink:title="InertialElement.cpp">
<polygon fill="none" stroke="#000000" points="144,-.5 144,-19.5 256,-19.5 256,-.5 144,-.5"/>
<text text-anchor="middle" x="200" y="-7.5" font-family="FreeSans.ttf" font-size="10.00" fill="#000000">InertialElement.cpp</text>
</a>
</g>
</g>
<!-- Node28&#45;&gt;Node30 -->
<g id="edge2" class="edge">
<title>Node28&#45;&gt;Node30</title>
<path fill="none" stroke="#191970" d="M293.5476,-52.2473C271.0278,-42.0771 240.9383,-28.4883 221.0382,-19.5011"/>
<polygon fill="#191970" stroke="#191970" points="292.1294,-55.4471 302.6836,-56.3733 295.0105,-49.0675 292.1294,-55.4471"/>
</g>
<!-- Node31 -->
<g id="node4" class="node">
<title>Node31</title>
<g id="a_node4"><a xlink:href="JointElement_8cpp.html" target="_top" xlink:title="JointElement.cpp">
<polygon fill="none" stroke="#000000" points="274.5,-.5 274.5,-19.5 373.5,-19.5 373.5,-.5 274.5,-.5"/>
<text text-anchor="middle" x="324" y="-7.5" font-family="FreeSans.ttf" font-size="10.00" fill="#000000">JointElement.cpp</text>
</a>
</g>
</g>
<!-- Node28&#45;&gt;Node31 -->
<g id="edge3" class="edge">
<title>Node28&#45;&gt;Node31</title>
<path fill="none" stroke="#191970" d="M324,-46.1575C324,-37.155 324,-26.9199 324,-19.6427"/>
<polygon fill="#191970" stroke="#191970" points="320.5001,-46.2455 324,-56.2455 327.5001,-46.2456 320.5001,-46.2455"/>
</g>
<!-- Node32 -->
<g id="node5" class="node">
<title>Node32</title>
<g id="a_node5"><a xlink:href="MaterialElement_8cpp.html" target="_top" xlink:title="MaterialElement.cpp">
<polygon fill="none" stroke="#000000" points="391.5,-.5 391.5,-19.5 508.5,-19.5 508.5,-.5 391.5,-.5"/>
<text text-anchor="middle" x="450" y="-7.5" font-family="FreeSans.ttf" font-size="10.00" fill="#000000">MaterialElement.cpp</text>
</a>
</g>
</g>
<!-- Node28&#45;&gt;Node32 -->
<g id="edge4" class="edge">
<title>Node28&#45;&gt;Node32</title>
<path fill="none" stroke="#191970" d="M354.9436,-52.2473C377.8265,-42.0771 408.4014,-28.4883 428.6225,-19.5011"/>
<polygon fill="#191970" stroke="#191970" points="353.3768,-49.1135 345.6602,-56.3733 356.2198,-55.5102 353.3768,-49.1135"/>
</g>
<!-- Node33 -->
<g id="node6" class="node">
<title>Node33</title>
<g id="a_node6"><a xlink:href="OriginElement_8cpp.html" target="_top" xlink:title="OriginElement.cpp">
<polygon fill="none" stroke="#000000" points="526.5,-.5 526.5,-19.5 633.5,-19.5 633.5,-.5 526.5,-.5"/>
<text text-anchor="middle" x="580" y="-7.5" font-family="FreeSans.ttf" font-size="10.00" fill="#000000">OriginElement.cpp</text>
</a>
</g>
</g>
<!-- Node28&#45;&gt;Node33 -->
<g id="edge5" class="edge">
<title>Node28&#45;&gt;Node33</title>
<path fill="none" stroke="#191970" d="M377.7487,-54.2425C424.9089,-43.9262 492.6241,-29.1135 536.4632,-19.5237"/>
<polygon fill="#191970" stroke="#191970" points="376.7381,-50.8807 367.7171,-56.4369 378.2341,-57.719 376.7381,-50.8807"/>
</g>
</g>
</svg>
