<?xml version="1.0" encoding="UTF-8" standalone="no"?>
<!DOCTYPE svg PUBLIC "-//W3C//DTD SVG 1.1//EN"
 "http://www.w3.org/Graphics/SVG/1.1/DTD/svg11.dtd">
<!-- Generated by graphviz version 2.40.1 (20161225.0304)
 -->
<!-- Title: urdf_import.hpp Pages: 1 -->
<svg width="576pt" height="84pt"
 viewBox="0.00 0.00 576.00 84.00" xmlns="http://www.w3.org/2000/svg" xmlns:xlink="http://www.w3.org/1999/xlink">
<g id="graph0" class="graph" transform="scale(1 1) rotate(0) translate(4 80)">
<title>urdf_import.hpp</title>
<!-- Node3 -->
<g id="node1" class="node">
<title>Node3</title>
<polygon fill="#bfbfbf" stroke="#000000" points="219.5,-56.5 219.5,-75.5 314.5,-75.5 314.5,-56.5 219.5,-56.5"/>
<text text-anchor="middle" x="267" y="-63.5" font-family="FreeSans.ttf" font-size="10.00" fill="#000000">urdf_import.hpp</text>
</g>
<!-- Node4 -->
<g id="node2" class="node">
<title>Node4</title>
<g id="a_node2"><a xlink:href="urdf__import_8cpp.html" target="_top" xlink:title="urdf_import.cpp">
<polygon fill="none" stroke="#000000" points="0,-.5 0,-19.5 94,-19.5 94,-.5 0,-.5"/>
<text text-anchor="middle" x="47" y="-7.5" font-family="FreeSans.ttf" font-size="10.00" fill="#000000">urdf_import.cpp</text>
</a>
</g>
</g>
<!-- Node3&#45;&gt;Node4 -->
<g id="edge1" class="edge">
<title>Node3&#45;&gt;Node4</title>
<path fill="none" stroke="#191970" d="M219.2722,-53.8511C178.7888,-43.5462 121.524,-28.9697 84.3258,-19.5011"/>
<polygon fill="#191970" stroke="#191970" points="218.6263,-57.2982 229.1807,-56.3733 220.3531,-50.5145 218.6263,-57.2982"/>
</g>
<!-- Node5 -->
<g id="node3" class="node">
<title>Node5</title>
<g id="a_node3"><a xlink:href="URDFSensorsImport_8cpp.html" target="_top" xlink:title="URDFSensorsImport.cpp">
<polygon fill="none" stroke="#000000" points="112,-.5 112,-19.5 246,-19.5 246,-.5 112,-.5"/>
<text text-anchor="middle" x="179" y="-7.5" font-family="FreeSans.ttf" font-size="10.00" fill="#000000">URDFSensorsImport.cpp</text>
</a>
</g>
</g>
<!-- Node3&#45;&gt;Node5 -->
<g id="edge2" class="edge">
<title>Node3&#45;&gt;Node5</title>
<path fill="none" stroke="#191970" d="M243.0655,-50.769C227.4717,-40.8456 207.599,-28.1994 194.1528,-19.6427"/>
<polygon fill="#191970" stroke="#191970" points="241.3559,-53.8296 251.6716,-56.2455 245.114,-47.9239 241.3559,-53.8296"/>
</g>
<!-- Node6 -->
<g id="node4" class="node">
<title>Node6</title>
<g id="a_node4"><a xlink:href="DynamicsRegressorGenerator_8cpp.html" target="_top" xlink:title="DynamicsRegressorGenerator.cpp">
<polygon fill="none" stroke="#000000" points="264,-.5 264,-19.5 446,-19.5 446,-.5 264,-.5"/>
<text text-anchor="middle" x="355" y="-7.5" font-family="FreeSans.ttf" font-size="10.00" fill="#000000">DynamicsRegressorGenerator.cpp</text>
</a>
</g>
</g>
<!-- Node3&#45;&gt;Node6 -->
<g id="edge3" class="edge">
<title>Node3&#45;&gt;Node6</title>
<path fill="none" stroke="#191970" d="M290.9345,-50.769C306.5283,-40.8456 326.401,-28.1994 339.8472,-19.6427"/>
<polygon fill="#191970" stroke="#191970" points="288.886,-47.9239 282.3284,-56.2455 292.6441,-53.8296 288.886,-47.9239"/>
</g>
<!-- Node7 -->
<g id="node5" class="node">
<title>Node7</title>
<g id="a_node5"><a xlink:href="urdf2dh__helpers_8h.html" target="_top" xlink:title="urdf2dh_helpers.h">
<polygon fill="none" stroke="#000000" points="464,-.5 464,-19.5 568,-19.5 568,-.5 464,-.5"/>
<text text-anchor="middle" x="516" y="-7.5" font-family="FreeSans.ttf" font-size="10.00" fill="#000000">urdf2dh_helpers.h</text>
</a>
</g>
</g>
<!-- Node3&#45;&gt;Node7 -->
<g id="edge4" class="edge">
<title>Node3&#45;&gt;Node7</title>
<path fill="none" stroke="#191970" d="M319.279,-54.2425C365.1496,-43.9262 431.0133,-29.1135 473.6537,-19.5237"/>
<polygon fill="#191970" stroke="#191970" points="318.51,-50.8279 309.5217,-56.4369 320.046,-57.6573 318.51,-50.8279"/>
</g>
</g>
</svg>
