<?xml version="1.0" encoding="UTF-8" standalone="no"?>
<!DOCTYPE svg PUBLIC "-//W3C//DTD SVG 1.1//EN"
 "http://www.w3.org/Graphics/SVG/1.1/DTD/svg11.dtd">
<!-- Generated by graphviz version 2.40.1 (20161225.0304)
 -->
<!-- Title: Utils.cpp Pages: 1 -->
<svg width="341pt" height="140pt"
 viewBox="0.00 0.00 341.00 140.00" xmlns="http://www.w3.org/2000/svg" xmlns:xlink="http://www.w3.org/1999/xlink">
<g id="graph0" class="graph" transform="scale(1 1) rotate(0) translate(4 136)">
<title>Utils.cpp</title>
<!-- Node0 -->
<g id="node1" class="node">
<title>Node0</title>
<polygon fill="#bfbfbf" stroke="#000000" points="175,-112.5 175,-131.5 234,-131.5 234,-112.5 175,-112.5"/>
<text text-anchor="middle" x="204.5" y="-119.5" font-family="FreeSans.ttf" font-size="10.00" fill="#000000">Utils.cpp</text>
</g>
<!-- Node1 -->
<g id="node2" class="node">
<title>Node1</title>
<g id="a_node2"><a xlink:href="Utils_8h.html" target="_top" xlink:title="iDynTree/Core/Utils.h">
<polygon fill="none" stroke="#000000" points="0,-56.5 0,-75.5 119,-75.5 119,-56.5 0,-56.5"/>
<text text-anchor="middle" x="59.5" y="-63.5" font-family="FreeSans.ttf" font-size="10.00" fill="#000000">iDynTree/Core/Utils.h</text>
</a>
</g>
</g>
<!-- Node0&#45;&gt;Node1 -->
<g id="edge1" class="edge">
<title>Node0&#45;&gt;Node1</title>
<path fill="none" stroke="#191970" d="M179.5736,-112.3733C155.8798,-103.2226 120.0489,-89.3844 93.6932,-79.2057"/>
<polygon fill="#191970" stroke="#191970" points="94.6906,-75.8389 84.1011,-75.5011 92.1686,-82.3689 94.6906,-75.8389"/>
</g>
<!-- Node3 -->
<g id="node4" class="node">
<title>Node3</title>
<polygon fill="none" stroke="#bfbfbf" points="137.5,-56.5 137.5,-75.5 197.5,-75.5 197.5,-56.5 137.5,-56.5"/>
<text text-anchor="middle" x="167.5" y="-63.5" font-family="FreeSans.ttf" font-size="10.00" fill="#000000">iostream</text>
</g>
<!-- Node0&#45;&gt;Node3 -->
<g id="edge3" class="edge">
<title>Node0&#45;&gt;Node3</title>
<path fill="none" stroke="#191970" d="M198.0551,-112.2455C192.9618,-104.5367 185.7092,-93.5598 179.548,-84.2348"/>
<polygon fill="#191970" stroke="#191970" points="182.3038,-82.0566 173.8711,-75.6427 176.4635,-85.9155 182.3038,-82.0566"/>
</g>
<!-- Node4 -->
<g id="node5" class="node">
<title>Node4</title>
<polygon fill="none" stroke="#bfbfbf" points="215.5,-56.5 215.5,-75.5 267.5,-75.5 267.5,-56.5 215.5,-56.5"/>
<text text-anchor="middle" x="241.5" y="-63.5" font-family="FreeSans.ttf" font-size="10.00" fill="#000000">cassert</text>
</g>
<!-- Node0&#45;&gt;Node4 -->
<g id="edge4" class="edge">
<title>Node0&#45;&gt;Node4</title>
<path fill="none" stroke="#191970" d="M210.9449,-112.2455C216.0382,-104.5367 223.2908,-93.5598 229.452,-84.2348"/>
<polygon fill="#191970" stroke="#191970" points="232.5365,-85.9155 235.1289,-75.6427 226.6962,-82.0566 232.5365,-85.9155"/>
</g>
<!-- Node5 -->
<g id="node6" class="node">
<title>Node5</title>
<polygon fill="none" stroke="#bfbfbf" points="286,-56.5 286,-75.5 333,-75.5 333,-56.5 286,-56.5"/>
<text text-anchor="middle" x="309.5" y="-63.5" font-family="FreeSans.ttf" font-size="10.00" fill="#000000">cmath</text>
</g>
<!-- Node0&#45;&gt;Node5 -->
<g id="edge5" class="edge">
<title>Node0&#45;&gt;Node5</title>
<path fill="none" stroke="#191970" d="M222.7896,-112.2455C239.2762,-103.4527 263.7352,-90.4079 282.4765,-80.4125"/>
<polygon fill="#191970" stroke="#191970" points="284.2435,-83.4368 291.42,-75.6427 280.9494,-77.2604 284.2435,-83.4368"/>
</g>
<!-- Node2 -->
<g id="node3" class="node">
<title>Node2</title>
<polygon fill="none" stroke="#bfbfbf" points="33,-.5 33,-19.5 86,-19.5 86,-.5 33,-.5"/>
<text text-anchor="middle" x="59.5" y="-7.5" font-family="FreeSans.ttf" font-size="10.00" fill="#000000">cstddef</text>
</g>
<!-- Node1&#45;&gt;Node2 -->
<g id="edge2" class="edge">
<title>Node1&#45;&gt;Node2</title>
<path fill="none" stroke="#191970" d="M59.5,-56.2455C59.5,-48.9382 59.5,-38.6944 59.5,-29.7046"/>
<polygon fill="#191970" stroke="#191970" points="63.0001,-29.6426 59.5,-19.6427 56.0001,-29.6427 63.0001,-29.6426"/>
</g>
</g>
</svg>
