<?xml version="1.0" encoding="UTF-8" standalone="no"?>
<!DOCTYPE svg PUBLIC "-//W3C//DTD SVG 1.1//EN"
 "http://www.w3.org/Graphics/SVG/1.1/DTD/svg11.dtd">
<!-- Generated by graphviz version 2.40.1 (20161225.0304)
 -->
<!-- Title: VisualElement.h Pages: 1 -->
<svg width="1500pt" height="476pt"
 viewBox="0.00 0.00 1499.50 476.00" xmlns="http://www.w3.org/2000/svg" xmlns:xlink="http://www.w3.org/1999/xlink">
<g id="graph0" class="graph" transform="scale(1 1) rotate(0) translate(4 472)">
<title>VisualElement.h</title>
<!-- Node0 -->
<g id="node1" class="node">
<title>Node0</title>
<polygon fill="#bfbfbf" stroke="#000000" points="740.5,-448.5 740.5,-467.5 836.5,-467.5 836.5,-448.5 740.5,-448.5"/>
<text text-anchor="middle" x="788.5" y="-455.5" font-family="FreeSans.ttf" font-size="10.00" fill="#000000">VisualElement.h</text>
</g>
<!-- Node1 -->
<g id="node2" class="node">
<title>Node1</title>
<g id="a_node2"><a xlink:href="XMLElement_8h.html" target="_top" xlink:title="iDynTree/XMLElement.h">
<polygon fill="none" stroke="#000000" points="647.5,-336.5 647.5,-355.5 779.5,-355.5 779.5,-336.5 647.5,-336.5"/>
<text text-anchor="middle" x="713.5" y="-343.5" font-family="FreeSans.ttf" font-size="10.00" fill="#000000">iDynTree/XMLElement.h</text>
</a>
</g>
</g>
<!-- Node0&#45;&gt;Node1 -->
<g id="edge1" class="edge">
<title>Node0&#45;&gt;Node1</title>
<path fill="none" stroke="#191970" d="M782.1055,-448.4509C769.5964,-429.7707 741.7079,-388.1238 725.6046,-364.0761"/>
<polygon fill="#191970" stroke="#191970" points="728.3506,-361.8865 719.8783,-355.5249 722.5342,-365.7814 728.3506,-361.8865"/>
</g>
<!-- Node3 -->
<g id="node4" class="node">
<title>Node3</title>
<polygon fill="none" stroke="#bfbfbf" points="416.5,-280.5 416.5,-299.5 474.5,-299.5 474.5,-280.5 416.5,-280.5"/>
<text text-anchor="middle" x="445.5" y="-287.5" font-family="FreeSans.ttf" font-size="10.00" fill="#000000">memory</text>
</g>
<!-- Node0&#45;&gt;Node3 -->
<g id="edge60" class="edge">
<title>Node0&#45;&gt;Node3</title>
<path fill="none" stroke="#191970" d="M740.1764,-453.8186C657.4639,-446.2342 495.7566,-429.3783 476.5,-412 447.6824,-385.9933 443.9307,-337.3422 444.3346,-309.9905"/>
<polygon fill="#191970" stroke="#191970" points="447.8428,-309.8187 444.7011,-299.7005 440.8472,-309.5695 447.8428,-309.8187"/>
</g>
<!-- Node4 -->
<g id="node5" class="node">
<title>Node4</title>
<polygon fill="none" stroke="#bfbfbf" points="976.5,-56.5 976.5,-75.5 1020.5,-75.5 1020.5,-56.5 976.5,-56.5"/>
<text text-anchor="middle" x="998.5" y="-63.5" font-family="FreeSans.ttf" font-size="10.00" fill="#000000">string</text>
</g>
<!-- Node0&#45;&gt;Node4 -->
<g id="edge61" class="edge">
<title>Node0&#45;&gt;Node4</title>
<path fill="none" stroke="#191970" d="M836.5434,-455.4294C995.071,-446.315 1491.5,-412.4671 1491.5,-346 1491.5,-346 1491.5,-346 1491.5,-178 1491.5,-115.5686 1427.0205,-130.8412 1367.5,-112 1304.8957,-92.1826 1108.7742,-74.8133 1030.8689,-68.5155"/>
<polygon fill="#191970" stroke="#191970" points="1030.9341,-65.0096 1020.6869,-67.7012 1030.376,-71.9873 1030.9341,-65.0096"/>
</g>
<!-- Node5 -->
<g id="node6" class="node">
<title>Node5</title>
<polygon fill="none" stroke="#bfbfbf" points="569,-280.5 569,-299.5 662,-299.5 662,-280.5 569,-280.5"/>
<text text-anchor="middle" x="615.5" y="-287.5" font-family="FreeSans.ttf" font-size="10.00" fill="#000000">unordered_map</text>
</g>
<!-- Node0&#45;&gt;Node5 -->
<g id="edge62" class="edge">
<title>Node0&#45;&gt;Node5</title>
<path fill="none" stroke="#191970" d="M766.0842,-448.3851C733.4805,-433.3084 673.1028,-401.0977 638.5,-356 628.1254,-342.4788 622.2114,-323.9275 618.9864,-309.9356"/>
<polygon fill="#191970" stroke="#191970" points="622.3635,-308.9782 616.9427,-299.8752 615.5036,-310.3718 622.3635,-308.9782"/>
</g>
<!-- Node6 -->
<g id="node7" class="node">
<title>Node6</title>
<polygon fill="none" stroke="#bfbfbf" points="802,-280.5 802,-299.5 849,-299.5 849,-280.5 802,-280.5"/>
<text text-anchor="middle" x="825.5" y="-287.5" font-family="FreeSans.ttf" font-size="10.00" fill="#000000">vector</text>
</g>
<!-- Node0&#45;&gt;Node6 -->
<g id="edge63" class="edge">
<title>Node0&#45;&gt;Node6</title>
<path fill="none" stroke="#191970" d="M790.5953,-448.4862C796.4695,-421.8144 813.1861,-345.9117 821.1624,-309.695"/>
<polygon fill="#191970" stroke="#191970" points="824.6027,-310.3467 823.3355,-299.8279 817.7665,-308.841 824.6027,-310.3467"/>
</g>
<!-- Node7 -->
<g id="node8" class="node">
<title>Node7</title>
<g id="a_node8"><a xlink:href="MaterialElement_8h.html" target="_top" xlink:title="MaterialElement.h">
<polygon fill="none" stroke="#000000" points="485.5,-392.5 485.5,-411.5 591.5,-411.5 591.5,-392.5 485.5,-392.5"/>
<text text-anchor="middle" x="538.5" y="-399.5" font-family="FreeSans.ttf" font-size="10.00" fill="#000000">MaterialElement.h</text>
</a>
</g>
</g>
<!-- Node0&#45;&gt;Node7 -->
<g id="edge7" class="edge">
<title>Node0&#45;&gt;Node7</title>
<path fill="none" stroke="#191970" d="M745.8075,-448.4369C702.9321,-438.8328 636.7995,-424.0191 590.7998,-413.7152"/>
<polygon fill="#191970" stroke="#191970" points="591.5396,-410.2942 581.0164,-411.5237 590.0095,-417.1249 591.5396,-410.2942"/>
</g>
<!-- Node22 -->
<g id="node23" class="node">
<title>Node22</title>
<g id="a_node23"><a xlink:href="Transform_8h.html" target="_top" xlink:title="iDynTree/Core/Transform.h">
<polygon fill="none" stroke="#000000" points="1005.5,-336.5 1005.5,-355.5 1151.5,-355.5 1151.5,-336.5 1005.5,-336.5"/>
<text text-anchor="middle" x="1078.5" y="-343.5" font-family="FreeSans.ttf" font-size="10.00" fill="#000000">iDynTree/Core/Transform.h</text>
</a>
</g>
</g>
<!-- Node0&#45;&gt;Node22 -->
<g id="edge28" class="edge">
<title>Node0&#45;&gt;Node22</title>
<path fill="none" stroke="#191970" d="M813.2252,-448.4509C865.0181,-428.4482 984.9964,-382.1117 1044.1979,-359.2477"/>
<polygon fill="#191970" stroke="#191970" points="1045.7698,-362.3926 1053.8373,-355.5249 1043.2479,-355.8627 1045.7698,-362.3926"/>
</g>
<!-- Node32 -->
<g id="node33" class="node">
<title>Node32</title>
<g id="a_node33"><a xlink:href="SolidShapes_8h.html" target="_top" xlink:title="iDynTree/Model/SolidShapes.h">
<polygon fill="none" stroke="#000000" points="997,-392.5 997,-411.5 1160,-411.5 1160,-392.5 997,-392.5"/>
<text text-anchor="middle" x="1078.5" y="-399.5" font-family="FreeSans.ttf" font-size="10.00" fill="#000000">iDynTree/Model/SolidShapes.h</text>
</a>
</g>
</g>
<!-- Node0&#45;&gt;Node32 -->
<g id="edge55" class="edge">
<title>Node0&#45;&gt;Node32</title>
<path fill="none" stroke="#191970" d="M836.7131,-448.6899C886.7962,-439.0187 965.2307,-423.8727 1019.1047,-413.4694"/>
<polygon fill="#191970" stroke="#191970" points="1020.0459,-416.8524 1029.2009,-411.5198 1018.7186,-409.9794 1020.0459,-416.8524"/>
</g>
<!-- Node2 -->
<g id="node3" class="node">
<title>Node2</title>
<polygon fill="none" stroke="#bfbfbf" points="680,-280.5 680,-299.5 745,-299.5 745,-280.5 680,-280.5"/>
<text text-anchor="middle" x="712.5" y="-287.5" font-family="FreeSans.ttf" font-size="10.00" fill="#000000">functional</text>
</g>
<!-- Node1&#45;&gt;Node2 -->
<g id="edge2" class="edge">
<title>Node1&#45;&gt;Node2</title>
<path fill="none" stroke="#191970" d="M713.3258,-336.2455C713.1953,-328.9382 713.0124,-318.6944 712.8519,-309.7046"/>
<polygon fill="#191970" stroke="#191970" points="716.3503,-309.5786 712.6722,-299.6427 709.3514,-309.7036 716.3503,-309.5786"/>
</g>
<!-- Node1&#45;&gt;Node3 -->
<g id="edge3" class="edge">
<title>Node1&#45;&gt;Node3</title>
<path fill="none" stroke="#191970" d="M667.7337,-336.4369C616.0919,-325.6461 532.9767,-308.2787 484.3624,-298.1205"/>
<polygon fill="#191970" stroke="#191970" points="485.0405,-294.6867 474.536,-296.0672 483.6087,-301.5387 485.0405,-294.6867"/>
</g>
<!-- Node1&#45;&gt;Node4 -->
<g id="edge4" class="edge">
<title>Node1&#45;&gt;Node4</title>
<path fill="none" stroke="#191970" d="M726.2248,-336.2466C736.0407,-327.8582 748.8633,-314.7955 754.5,-300 775.4458,-245.02 711.5486,-216.7415 744.5,-168 794.881,-93.4768 909.6379,-73.3938 966.0171,-67.9876"/>
<polygon fill="#191970" stroke="#191970" points="966.4946,-71.4595 976.1575,-67.1146 965.8941,-64.4853 966.4946,-71.4595"/>
</g>
<!-- Node1&#45;&gt;Node5 -->
<g id="edge5" class="edge">
<title>Node1&#45;&gt;Node5</title>
<path fill="none" stroke="#191970" d="M696.4297,-336.2455C681.253,-327.5731 658.8379,-314.7645 641.4437,-304.825"/>
<polygon fill="#191970" stroke="#191970" points="642.7936,-301.5653 632.3747,-299.6427 639.3206,-307.643 642.7936,-301.5653"/>
</g>
<!-- Node1&#45;&gt;Node6 -->
<g id="edge6" class="edge">
<title>Node1&#45;&gt;Node6</title>
<path fill="none" stroke="#191970" d="M732.7535,-336.3733C750.5712,-327.4644 777.2747,-314.1127 797.4594,-304.0203"/>
<polygon fill="#191970" stroke="#191970" points="799.1187,-307.1038 806.4978,-299.5011 795.9882,-300.8428 799.1187,-307.1038"/>
</g>
<!-- Node7&#45;&gt;Node1 -->
<g id="edge8" class="edge">
<title>Node7&#45;&gt;Node1</title>
<path fill="none" stroke="#191970" d="M568.5836,-392.3733C597.6834,-383.0613 641.9523,-368.8953 673.903,-358.671"/>
<polygon fill="#191970" stroke="#191970" points="675.3515,-361.8824 683.809,-355.5011 673.218,-355.2155 675.3515,-361.8824"/>
</g>
<!-- Node7&#45;&gt;Node3 -->
<g id="edge26" class="edge">
<title>Node7&#45;&gt;Node3</title>
<path fill="none" stroke="#191970" d="M526.1827,-392.1696C515.5364,-383.3374 500.0808,-369.6869 488.5,-356 475.9895,-341.2144 464.1608,-322.5886 456.0885,-308.8968"/>
<polygon fill="#191970" stroke="#191970" points="458.9437,-306.8415 450.9184,-299.9245 452.8786,-310.3364 458.9437,-306.8415"/>
</g>
<!-- Node7&#45;&gt;Node4 -->
<g id="edge27" class="edge">
<title>Node7&#45;&gt;Node4</title>
<path fill="none" stroke="#191970" d="M537.9991,-392.3274C537.3243,-370.5755 538.2188,-316.8289 560.5,-280 591.9769,-227.9713 721.2945,-137.4977 776.5,-112 839.7166,-82.8023 921.5807,-71.9913 966.1284,-68.0982"/>
<polygon fill="#191970" stroke="#191970" points="966.6704,-71.5659 976.3551,-67.2699 966.1052,-64.5887 966.6704,-71.5659"/>
</g>
<!-- Node8 -->
<g id="node9" class="node">
<title>Node8</title>
<g id="a_node9"><a xlink:href="VectorFixSize_8h.html" target="_top" xlink:title="iDynTree/Core/VectorFixSize.h">
<polygon fill="none" stroke="#000000" points="390,-112.5 390,-131.5 551,-131.5 551,-112.5 390,-112.5"/>
<text text-anchor="middle" x="470.5" y="-119.5" font-family="FreeSans.ttf" font-size="10.00" fill="#000000">iDynTree/Core/VectorFixSize.h</text>
</a>
</g>
</g>
<!-- Node7&#45;&gt;Node8 -->
<g id="edge9" class="edge">
<title>Node7&#45;&gt;Node8</title>
<path fill="none" stroke="#191970" d="M533.1881,-392.4462C523.1741,-373.5117 502.5,-329.623 502.5,-290 502.5,-290 502.5,-290 502.5,-234 502.5,-200.132 488.8045,-162.643 479.3328,-140.7657"/>
<polygon fill="#191970" stroke="#191970" points="482.5149,-139.3077 475.2217,-131.6226 476.1305,-142.1784 482.5149,-139.3077"/>
</g>
<!-- Node8&#45;&gt;Node4 -->
<g id="edge22" class="edge">
<title>Node8&#45;&gt;Node4</title>
<path fill="none" stroke="#191970" d="M551.0272,-112.9247C553.8865,-112.6111 556.7176,-112.3021 559.5,-112 711.3139,-95.5176 892.7771,-76.8233 965.7464,-69.3474"/>
<polygon fill="#191970" stroke="#191970" points="966.516,-72.7869 976.1075,-68.2865 965.803,-65.8233 966.516,-72.7869"/>
</g>
<!-- Node9 -->
<g id="node10" class="node">
<title>Node9</title>
<g id="a_node10"><a xlink:href="Utils_8h.html" target="_top" xlink:title="iDynTree/Core/Utils.h">
<polygon fill="none" stroke="#000000" points="499,-56.5 499,-75.5 618,-75.5 618,-56.5 499,-56.5"/>
<text text-anchor="middle" x="558.5" y="-63.5" font-family="FreeSans.ttf" font-size="10.00" fill="#000000">iDynTree/Core/Utils.h</text>
</a>
</g>
</g>
<!-- Node8&#45;&gt;Node9 -->
<g id="edge10" class="edge">
<title>Node8&#45;&gt;Node9</title>
<path fill="none" stroke="#191970" d="M485.8284,-112.2455C499.3303,-103.6534 519.2122,-91.0014 534.7686,-81.1018"/>
<polygon fill="#191970" stroke="#191970" points="536.7897,-83.9643 543.3472,-75.6427 533.0315,-78.0587 536.7897,-83.9643"/>
</g>
<!-- Node11 -->
<g id="node12" class="node">
<title>Node11</title>
<g id="a_node12"><a xlink:href="Span_8h.html" target="_top" xlink:title="iDynTree/Core/Span.h">
<polygon fill="none" stroke="#000000" points="253,-56.5 253,-75.5 374,-75.5 374,-56.5 253,-56.5"/>
<text text-anchor="middle" x="313.5" y="-63.5" font-family="FreeSans.ttf" font-size="10.00" fill="#000000">iDynTree/Core/Span.h</text>
</a>
</g>
</g>
<!-- Node8&#45;&gt;Node11 -->
<g id="edge12" class="edge">
<title>Node8&#45;&gt;Node11</title>
<path fill="none" stroke="#191970" d="M443.5107,-112.3733C417.6301,-103.1419 378.3752,-89.1402 349.7711,-78.9375"/>
<polygon fill="#191970" stroke="#191970" points="350.7317,-75.5642 340.1371,-75.5011 348.38,-82.1573 350.7317,-75.5642"/>
</g>
<!-- Node12 -->
<g id="node13" class="node">
<title>Node12</title>
<polygon fill="none" stroke="#bfbfbf" points="581.5,-.5 581.5,-19.5 633.5,-19.5 633.5,-.5 581.5,-.5"/>
<text text-anchor="middle" x="607.5" y="-7.5" font-family="FreeSans.ttf" font-size="10.00" fill="#000000">cassert</text>
</g>
<!-- Node8&#45;&gt;Node12 -->
<g id="edge24" class="edge">
<title>Node8&#45;&gt;Node12</title>
<path fill="none" stroke="#191970" d="M454.5794,-112.471C434.9411,-99.5229 405.9495,-75.7242 421.5,-56 463.947,-2.1604 505.127,-37.1775 571.5,-20 571.5981,-19.9746 571.6964,-19.9491 571.7948,-19.9236"/>
<polygon fill="#191970" stroke="#191970" points="572.4188,-23.3794 581.1828,-17.4261 570.6191,-16.6147 572.4188,-23.3794"/>
</g>
<!-- Node20 -->
<g id="node21" class="node">
<title>Node20</title>
<polygon fill="none" stroke="#bfbfbf" points="636.5,-56.5 636.5,-75.5 692.5,-75.5 692.5,-56.5 636.5,-56.5"/>
<text text-anchor="middle" x="664.5" y="-63.5" font-family="FreeSans.ttf" font-size="10.00" fill="#000000">sstream</text>
</g>
<!-- Node8&#45;&gt;Node20 -->
<g id="edge23" class="edge">
<title>Node8&#45;&gt;Node20</title>
<path fill="none" stroke="#191970" d="M503.8498,-112.3733C537.8674,-102.5537 590.584,-87.3366 626.2691,-77.0357"/>
<polygon fill="#191970" stroke="#191970" points="627.6675,-80.275 636.3045,-74.1389 625.7261,-73.5496 627.6675,-80.275"/>
</g>
<!-- Node21 -->
<g id="node22" class="node">
<title>Node21</title>
<polygon fill="none" stroke="#bfbfbf" points="430.5,-56.5 430.5,-75.5 480.5,-75.5 480.5,-56.5 430.5,-56.5"/>
<text text-anchor="middle" x="455.5" y="-63.5" font-family="FreeSans.ttf" font-size="10.00" fill="#000000">cstring</text>
</g>
<!-- Node8&#45;&gt;Node21 -->
<g id="edge25" class="edge">
<title>Node8&#45;&gt;Node21</title>
<path fill="none" stroke="#191970" d="M467.8872,-112.2455C465.9084,-104.8579 463.1256,-94.4689 460.6988,-85.4087"/>
<polygon fill="#191970" stroke="#191970" points="464.0511,-84.3966 458.0829,-75.6427 457.2895,-86.2078 464.0511,-84.3966"/>
</g>
<!-- Node10 -->
<g id="node11" class="node">
<title>Node10</title>
<polygon fill="none" stroke="#bfbfbf" points="510,-.5 510,-19.5 563,-19.5 563,-.5 510,-.5"/>
<text text-anchor="middle" x="536.5" y="-7.5" font-family="FreeSans.ttf" font-size="10.00" fill="#000000">cstddef</text>
</g>
<!-- Node9&#45;&gt;Node10 -->
<g id="edge11" class="edge">
<title>Node9&#45;&gt;Node10</title>
<path fill="none" stroke="#191970" d="M554.6679,-56.2455C551.7341,-48.7776 547.5953,-38.2427 544.009,-29.1137"/>
<polygon fill="#191970" stroke="#191970" points="547.2024,-27.6704 540.2882,-19.6427 540.6871,-30.23 547.2024,-27.6704"/>
</g>
<!-- Node11&#45;&gt;Node10 -->
<g id="edge16" class="edge">
<title>Node11&#45;&gt;Node10</title>
<path fill="none" stroke="#191970" d="M353.7132,-56.4736C389.5677,-47.8981 443.7184,-34.7471 500.0012,-20.0762"/>
<polygon fill="#191970" stroke="#191970" points="500.9994,-23.4329 509.7876,-17.5153 499.2272,-16.6609 500.9994,-23.4329"/>
</g>
<!-- Node11&#45;&gt;Node12 -->
<g id="edge13" class="edge">
<title>Node11&#45;&gt;Node12</title>
<path fill="none" stroke="#191970" d="M374.0352,-56.8653C426.5274,-48.5499 504.3988,-35.2656 571.5,-20 571.5988,-19.9775 571.6978,-19.9549 571.7969,-19.9323"/>
<polygon fill="#191970" stroke="#191970" points="572.3556,-23.3994 581.2268,-17.607 570.6797,-16.603 572.3556,-23.3994"/>
</g>
<!-- Node13 -->
<g id="node14" class="node">
<title>Node13</title>
<polygon fill="none" stroke="#bfbfbf" points="233.5,-.5 233.5,-19.5 297.5,-19.5 297.5,-.5 233.5,-.5"/>
<text text-anchor="middle" x="265.5" y="-7.5" font-family="FreeSans.ttf" font-size="10.00" fill="#000000">algorithm</text>
</g>
<!-- Node11&#45;&gt;Node13 -->
<g id="edge14" class="edge">
<title>Node11&#45;&gt;Node13</title>
<path fill="none" stroke="#191970" d="M305.139,-56.2455C298.325,-48.2958 288.5319,-36.8706 280.3848,-27.3656"/>
<polygon fill="#191970" stroke="#191970" points="282.9305,-24.9575 273.7651,-19.6427 277.6157,-29.513 282.9305,-24.9575"/>
</g>
<!-- Node14 -->
<g id="node15" class="node">
<title>Node14</title>
<polygon fill="none" stroke="#bfbfbf" points="315.5,-.5 315.5,-19.5 357.5,-19.5 357.5,-.5 315.5,-.5"/>
<text text-anchor="middle" x="336.5" y="-7.5" font-family="FreeSans.ttf" font-size="10.00" fill="#000000">array</text>
</g>
<!-- Node11&#45;&gt;Node14 -->
<g id="edge15" class="edge">
<title>Node11&#45;&gt;Node14</title>
<path fill="none" stroke="#191970" d="M317.5063,-56.2455C320.5735,-48.7776 324.9003,-38.2427 328.6497,-29.1137"/>
<polygon fill="#191970" stroke="#191970" points="331.9779,-30.2226 332.5396,-19.6427 325.5028,-27.5631 331.9779,-30.2226"/>
</g>
<!-- Node15 -->
<g id="node16" class="node">
<title>Node15</title>
<polygon fill="none" stroke="#bfbfbf" points="376,-.5 376,-19.5 429,-19.5 429,-.5 376,-.5"/>
<text text-anchor="middle" x="402.5" y="-7.5" font-family="FreeSans.ttf" font-size="10.00" fill="#000000">iterator</text>
</g>
<!-- Node11&#45;&gt;Node15 -->
<g id="edge17" class="edge">
<title>Node11&#45;&gt;Node15</title>
<path fill="none" stroke="#191970" d="M329.0026,-56.2455C342.658,-47.6534 362.7657,-35.0014 378.4989,-25.1018"/>
<polygon fill="#191970" stroke="#191970" points="380.5751,-27.9307 387.175,-19.6427 376.8471,-22.006 380.5751,-27.9307"/>
</g>
<!-- Node16 -->
<g id="node17" class="node">
<title>Node16</title>
<polygon fill="none" stroke="#bfbfbf" points="447.5,-.5 447.5,-19.5 491.5,-19.5 491.5,-.5 447.5,-.5"/>
<text text-anchor="middle" x="469.5" y="-7.5" font-family="FreeSans.ttf" font-size="10.00" fill="#000000">limits</text>
</g>
<!-- Node11&#45;&gt;Node16 -->
<g id="edge18" class="edge">
<title>Node11&#45;&gt;Node16</title>
<path fill="none" stroke="#191970" d="M340.3174,-56.3733C367.28,-46.6944 408.8515,-31.7712 437.5166,-21.4812"/>
<polygon fill="#191970" stroke="#191970" points="438.8431,-24.7238 447.0725,-18.0509 436.478,-18.1354 438.8431,-24.7238"/>
</g>
<!-- Node17 -->
<g id="node18" class="node">
<title>Node17</title>
<polygon fill="none" stroke="#bfbfbf" points="0,-.5 0,-19.5 65,-19.5 65,-.5 0,-.5"/>
<text text-anchor="middle" x="32.5" y="-7.5" font-family="FreeSans.ttf" font-size="10.00" fill="#000000">stdexcept</text>
</g>
<!-- Node11&#45;&gt;Node17 -->
<g id="edge19" class="edge">
<title>Node11&#45;&gt;Node17</title>
<path fill="none" stroke="#191970" d="M259.4884,-56.4427C213.0285,-48.0418 143.9792,-35.1301 75.2717,-20.3156"/>
<polygon fill="#191970" stroke="#191970" points="75.6546,-16.8173 65.1397,-18.1163 74.1697,-23.658 75.6546,-16.8173"/>
</g>
<!-- Node18 -->
<g id="node19" class="node">
<title>Node18</title>
<polygon fill="none" stroke="#bfbfbf" points="83,-.5 83,-19.5 152,-19.5 152,-.5 83,-.5"/>
<text text-anchor="middle" x="117.5" y="-7.5" font-family="FreeSans.ttf" font-size="10.00" fill="#000000">type_traits</text>
</g>
<!-- Node11&#45;&gt;Node18 -->
<g id="edge20" class="edge">
<title>Node11&#45;&gt;Node18</title>
<path fill="none" stroke="#191970" d="M279.8064,-56.3733C246.7913,-46.9404 196.3427,-32.5265 160.4614,-22.2747"/>
<polygon fill="#191970" stroke="#191970" points="161.3307,-18.8831 150.7539,-19.5011 159.4076,-25.6137 161.3307,-18.8831"/>
</g>
<!-- Node19 -->
<g id="node20" class="node">
<title>Node19</title>
<polygon fill="none" stroke="#bfbfbf" points="170,-.5 170,-19.5 215,-19.5 215,-.5 170,-.5"/>
<text text-anchor="middle" x="192.5" y="-7.5" font-family="FreeSans.ttf" font-size="10.00" fill="#000000">utility</text>
</g>
<!-- Node11&#45;&gt;Node19 -->
<g id="edge21" class="edge">
<title>Node11&#45;&gt;Node19</title>
<path fill="none" stroke="#191970" d="M292.6994,-56.3733C273.2757,-47.3838 244.0776,-33.8706 222.2036,-23.7471"/>
<polygon fill="#191970" stroke="#191970" points="223.5745,-20.5249 213.0292,-19.5011 220.6344,-26.8776 223.5745,-20.5249"/>
</g>
<!-- Node22&#45;&gt;Node4 -->
<g id="edge54" class="edge">
<title>Node22&#45;&gt;Node4</title>
<path fill="none" stroke="#191970" d="M1092.9497,-336.372C1125.2009,-314.1373 1203.5106,-255.8898 1245.5,-188 1263.7067,-158.5629 1284.7753,-138.4922 1262.5,-112 1233.2765,-77.2443 1095.1181,-68.7463 1031.1485,-66.6703"/>
<polygon fill="#191970" stroke="#191970" points="1030.9241,-63.1624 1020.8267,-66.3706 1030.7209,-70.1594 1030.9241,-63.1624"/>
</g>
<!-- Node23 -->
<g id="node24" class="node">
<title>Node23</title>
<g id="a_node24"><a xlink:href="Position_8h.html" target="_top" xlink:title="iDynTree/Core/Position.h">
<polygon fill="none" stroke="#000000" points="937.5,-280.5 937.5,-299.5 1073.5,-299.5 1073.5,-280.5 937.5,-280.5"/>
<text text-anchor="middle" x="1005.5" y="-287.5" font-family="FreeSans.ttf" font-size="10.00" fill="#000000">iDynTree/Core/Position.h</text>
</a>
</g>
</g>
<!-- Node22&#45;&gt;Node23 -->
<g id="edge29" class="edge">
<title>Node22&#45;&gt;Node23</title>
<path fill="none" stroke="#191970" d="M1065.7844,-336.2455C1054.898,-327.8943 1039.0117,-315.7076 1026.28,-305.9408"/>
<polygon fill="#191970" stroke="#191970" points="1028.1346,-302.9523 1018.0699,-299.6427 1023.8739,-308.5063 1028.1346,-302.9523"/>
</g>
<!-- Node26 -->
<g id="node27" class="node">
<title>Node26</title>
<g id="a_node27"><a xlink:href="Rotation_8h.html" target="_top" xlink:title="iDynTree/Core/Rotation.h">
<polygon fill="none" stroke="#000000" points="1034,-224.5 1034,-243.5 1171,-243.5 1171,-224.5 1034,-224.5"/>
<text text-anchor="middle" x="1102.5" y="-231.5" font-family="FreeSans.ttf" font-size="10.00" fill="#000000">iDynTree/Core/Rotation.h</text>
</a>
</g>
</g>
<!-- Node22&#45;&gt;Node26 -->
<g id="edge50" class="edge">
<title>Node22&#45;&gt;Node26</title>
<path fill="none" stroke="#191970" d="M1080.5462,-336.4509C1084.4783,-318.1013 1093.1591,-277.5908 1098.3494,-253.3693"/>
<polygon fill="#191970" stroke="#191970" points="1101.7859,-254.0363 1100.459,-243.5249 1094.9413,-252.5695 1101.7859,-254.0363"/>
</g>
<!-- Node28 -->
<g id="node29" class="node">
<title>Node28</title>
<g id="a_node29"><a xlink:href="MatrixFixSize_8h.html" target="_top" xlink:title="iDynTree/Core/MatrixFixSize.h">
<polygon fill="none" stroke="#000000" points="569,-112.5 569,-131.5 730,-131.5 730,-112.5 569,-112.5"/>
<text text-anchor="middle" x="649.5" y="-119.5" font-family="FreeSans.ttf" font-size="10.00" fill="#000000">iDynTree/Core/MatrixFixSize.h</text>
</a>
</g>
</g>
<!-- Node22&#45;&gt;Node28 -->
<g id="edge53" class="edge">
<title>Node22&#45;&gt;Node28</title>
<path fill="none" stroke="#191970" d="M1045.8742,-336.498C1015.3898,-327.5007 968.6775,-313.4094 928.5,-300 893.7602,-288.4055 804.4908,-263.5154 773.5,-244 727.1207,-214.7942 684.1812,-165.6839 663.1133,-139.5687"/>
<polygon fill="#191970" stroke="#191970" points="665.7916,-137.3132 656.8336,-131.6558 660.3084,-141.6646 665.7916,-137.3132"/>
</g>
<!-- Node31 -->
<g id="node32" class="node">
<title>Node31</title>
<g id="a_node32"><a xlink:href="TransformSemantics_8h.html" target="_top" xlink:title="iDynTree/Core/TransformSemantics.h">
<polygon fill="none" stroke="#000000" points="1228,-224.5 1228,-243.5 1425,-243.5 1425,-224.5 1228,-224.5"/>
<text text-anchor="middle" x="1326.5" y="-231.5" font-family="FreeSans.ttf" font-size="10.00" fill="#000000">iDynTree/Core/TransformSemantics.h</text>
</a>
</g>
</g>
<!-- Node22&#45;&gt;Node31 -->
<g id="edge51" class="edge">
<title>Node22&#45;&gt;Node31</title>
<path fill="none" stroke="#191970" d="M1112.511,-336.477C1140.2548,-328.2224 1180.1675,-315.2271 1213.5,-300 1246.1927,-285.0652 1281.6332,-263.3838 1303.94,-248.998"/>
<polygon fill="#191970" stroke="#191970" points="1305.9035,-251.8961 1312.3707,-243.504 1302.0817,-246.0314 1305.9035,-251.8961"/>
</g>
<!-- Node23&#45;&gt;Node4 -->
<g id="edge49" class="edge">
<title>Node23&#45;&gt;Node4</title>
<path fill="none" stroke="#191970" d="M1005.1992,-280.375C1004.1402,-246.4851 1000.5697,-132.2317 999.1198,-85.8332"/>
<polygon fill="#191970" stroke="#191970" points="1002.6104,-85.4749 998.7997,-75.5891 995.6138,-85.6936 1002.6104,-85.4749"/>
</g>
<!-- Node24 -->
<g id="node25" class="node">
<title>Node24</title>
<g id="a_node25"><a xlink:href="PositionRaw_8h.html" target="_top" xlink:title="iDynTree/Core/PositionRaw.h">
<polygon fill="none" stroke="#000000" points="753.5,-168.5 753.5,-187.5 909.5,-187.5 909.5,-168.5 753.5,-168.5"/>
<text text-anchor="middle" x="831.5" y="-175.5" font-family="FreeSans.ttf" font-size="10.00" fill="#000000">iDynTree/Core/PositionRaw.h</text>
</a>
</g>
</g>
<!-- Node23&#45;&gt;Node24 -->
<g id="edge30" class="edge">
<title>Node23&#45;&gt;Node24</title>
<path fill="none" stroke="#191970" d="M937.2279,-285.2052C879.0191,-279.5274 801.789,-267.674 782.5,-244 768.7419,-227.1142 788.8055,-206.9034 807.2526,-193.3343"/>
<polygon fill="#191970" stroke="#191970" points="809.2789,-196.1883 815.4872,-187.603 805.2801,-190.4429 809.2789,-196.1883"/>
</g>
<!-- Node25 -->
<g id="node26" class="node">
<title>Node25</title>
<g id="a_node26"><a xlink:href="PositionSemantics_8h.html" target="_top" xlink:title="iDynTree/Core/PositionSemantics.h">
<polygon fill="none" stroke="#000000" points="791,-224.5 791,-243.5 978,-243.5 978,-224.5 791,-224.5"/>
<text text-anchor="middle" x="884.5" y="-231.5" font-family="FreeSans.ttf" font-size="10.00" fill="#000000">iDynTree/Core/PositionSemantics.h</text>
</a>
</g>
</g>
<!-- Node23&#45;&gt;Node25 -->
<g id="edge33" class="edge">
<title>Node23&#45;&gt;Node25</title>
<path fill="none" stroke="#191970" d="M984.6994,-280.3733C965.2757,-271.3838 936.0776,-257.8706 914.2036,-247.7471"/>
<polygon fill="#191970" stroke="#191970" points="915.5745,-244.5249 905.0292,-243.5011 912.6344,-250.8776 915.5745,-244.5249"/>
</g>
<!-- Node23&#45;&gt;Node26 -->
<g id="edge35" class="edge">
<title>Node23&#45;&gt;Node26</title>
<path fill="none" stroke="#191970" d="M1022.3961,-280.2455C1037.418,-271.5731 1059.6043,-258.7645 1076.821,-248.825"/>
<polygon fill="#191970" stroke="#191970" points="1078.8871,-251.6737 1085.7975,-243.6427 1075.3872,-245.6114 1078.8871,-251.6737"/>
</g>
<!-- Node24&#45;&gt;Node4 -->
<g id="edge32" class="edge">
<title>Node24&#45;&gt;Node4</title>
<path fill="none" stroke="#191970" d="M844.3945,-168.2998C862.0031,-155.1577 894.6799,-131.1398 923.5,-112 939.7832,-101.1861 958.5281,-89.689 973.2047,-80.894"/>
<polygon fill="#191970" stroke="#191970" points="975.3947,-83.6634 982.195,-75.5389 971.8125,-77.6494 975.3947,-83.6634"/>
</g>
<!-- Node24&#45;&gt;Node8 -->
<g id="edge31" class="edge">
<title>Node24&#45;&gt;Node8</title>
<path fill="none" stroke="#191970" d="M769.8521,-168.4369C706.642,-158.6314 608.4258,-143.3957 541.8822,-133.0731"/>
<polygon fill="#191970" stroke="#191970" points="542.312,-129.598 531.8937,-131.5237 541.2389,-136.5153 542.312,-129.598"/>
</g>
<!-- Node25&#45;&gt;Node4 -->
<g id="edge34" class="edge">
<title>Node25&#45;&gt;Node4</title>
<path fill="none" stroke="#191970" d="M892.15,-224.3751C899.2853,-215.2338 910.0658,-200.9949 918.5,-188 939.6286,-155.4461 939.7105,-144.1153 961.5,-112 968.2325,-102.0771 976.5395,-91.616 983.5756,-83.1813"/>
<polygon fill="#191970" stroke="#191970" points="986.2786,-85.4054 990.0827,-75.517 980.9424,-80.8749 986.2786,-85.4054"/>
</g>
<!-- Node26&#45;&gt;Node4 -->
<g id="edge36" class="edge">
<title>Node26&#45;&gt;Node4</title>
<path fill="none" stroke="#191970" d="M1154.6766,-224.4381C1178.3103,-217.7487 1205.0285,-206.5552 1223.5,-188 1248.2234,-163.1645 1266.8867,-138.9608 1244.5,-112 1217.6615,-79.6777 1090.988,-69.9389 1030.631,-67.1085"/>
<polygon fill="#191970" stroke="#191970" points="1030.6546,-63.6064 1020.5124,-66.6701 1030.3515,-70.5998 1030.6546,-63.6064"/>
</g>
<!-- Node26&#45;&gt;Node8 -->
<g id="edge48" class="edge">
<title>Node26&#45;&gt;Node8</title>
<path fill="none" stroke="#191970" d="M1081.202,-224.4196C1047.4447,-209.683 979.2443,-181.7222 918.5,-168 765.2933,-133.3904 720.7737,-148.3064 561.2018,-132.148"/>
<polygon fill="#191970" stroke="#191970" points="561.3335,-128.6429 551.0255,-131.0914 560.6106,-135.6055 561.3335,-128.6429"/>
</g>
<!-- Node27 -->
<g id="node28" class="node">
<title>Node27</title>
<g id="a_node28"><a xlink:href="RotationRaw_8h.html" target="_top" xlink:title="iDynTree/Core/RotationRaw.h">
<polygon fill="none" stroke="#000000" points="1041.5,-168.5 1041.5,-187.5 1199.5,-187.5 1199.5,-168.5 1041.5,-168.5"/>
<text text-anchor="middle" x="1120.5" y="-175.5" font-family="FreeSans.ttf" font-size="10.00" fill="#000000">iDynTree/Core/RotationRaw.h</text>
</a>
</g>
</g>
<!-- Node26&#45;&gt;Node27 -->
<g id="edge37" class="edge">
<title>Node26&#45;&gt;Node27</title>
<path fill="none" stroke="#191970" d="M1105.6354,-224.2455C1108.01,-216.8579 1111.3493,-206.4689 1114.2615,-197.4087"/>
<polygon fill="#191970" stroke="#191970" points="1117.6725,-198.234 1117.4006,-187.6427 1111.0083,-196.0919 1117.6725,-198.234"/>
</g>
<!-- Node30 -->
<g id="node31" class="node">
<title>Node30</title>
<g id="a_node31"><a xlink:href="RotationSemantics_8h.html" target="_top" xlink:title="iDynTree/Core/RotationSemantics.h">
<polygon fill="none" stroke="#000000" points="1047.5,-112.5 1047.5,-131.5 1235.5,-131.5 1235.5,-112.5 1047.5,-112.5"/>
<text text-anchor="middle" x="1141.5" y="-119.5" font-family="FreeSans.ttf" font-size="10.00" fill="#000000">iDynTree/Core/RotationSemantics.h</text>
</a>
</g>
</g>
<!-- Node26&#45;&gt;Node30 -->
<g id="edge46" class="edge">
<title>Node26&#45;&gt;Node30</title>
<path fill="none" stroke="#191970" d="M1153.9625,-224.4528C1174.539,-217.8386 1196.2291,-206.7016 1208.5,-188 1221.8638,-167.6326 1196.8945,-148.5884 1173.7336,-136.2428"/>
<polygon fill="#191970" stroke="#191970" points="1175.2054,-133.0653 1164.6997,-131.6931 1172.0567,-139.3172 1175.2054,-133.0653"/>
</g>
<!-- Node27&#45;&gt;Node4 -->
<g id="edge45" class="edge">
<title>Node27&#45;&gt;Node4</title>
<path fill="none" stroke="#191970" d="M1096.1128,-168.3436C1078.5703,-160.5029 1055.1632,-148.112 1038.5,-132 1024.5485,-118.51 1013.5794,-99.1569 1006.6841,-84.8939"/>
<polygon fill="#191970" stroke="#191970" points="1009.7534,-83.1907 1002.3988,-75.5644 1003.3923,-86.1125 1009.7534,-83.1907"/>
</g>
<!-- Node27&#45;&gt;Node28 -->
<g id="edge38" class="edge">
<title>Node27&#45;&gt;Node28</title>
<path fill="none" stroke="#191970" d="M1041.3997,-168.5953C958.0985,-158.6911 827.1494,-143.1218 739.8402,-132.7411"/>
<polygon fill="#191970" stroke="#191970" points="740.0237,-129.2383 729.6804,-131.5331 739.1972,-136.1894 740.0237,-129.2383"/>
</g>
<!-- Node28&#45;&gt;Node4 -->
<g id="edge42" class="edge">
<title>Node28&#45;&gt;Node4</title>
<path fill="none" stroke="#191970" d="M709.0987,-112.4369C783.326,-100.5265 907.4855,-80.604 966.0502,-71.2068"/>
<polygon fill="#191970" stroke="#191970" points="966.8762,-74.6192 976.1954,-69.579 965.7671,-67.7076 966.8762,-74.6192"/>
</g>
<!-- Node28&#45;&gt;Node9 -->
<g id="edge39" class="edge">
<title>Node28&#45;&gt;Node9</title>
<path fill="none" stroke="#191970" d="M633.649,-112.2455C619.6868,-103.6534 599.1272,-91.0014 583.0404,-81.1018"/>
<polygon fill="#191970" stroke="#191970" points="584.5203,-77.9029 574.1693,-75.6427 580.8516,-83.8645 584.5203,-77.9029"/>
</g>
<!-- Node28&#45;&gt;Node12 -->
<g id="edge40" class="edge">
<title>Node28&#45;&gt;Node12</title>
<path fill="none" stroke="#191970" d="M712.013,-112.4414C755.6147,-103.0128 802.2348,-85.6141 779.5,-56 763.085,-34.6181 689.1989,-21.0193 643.7719,-14.5232"/>
<polygon fill="#191970" stroke="#191970" points="644.0998,-11.0353 633.7149,-13.1341 643.142,-17.9695 644.0998,-11.0353"/>
</g>
<!-- Node28&#45;&gt;Node20 -->
<g id="edge44" class="edge">
<title>Node28&#45;&gt;Node20</title>
<path fill="none" stroke="#191970" d="M652.1128,-112.2455C654.0916,-104.8579 656.8744,-94.4689 659.3012,-85.4087"/>
<polygon fill="#191970" stroke="#191970" points="662.7105,-86.2078 661.9171,-75.6427 655.9489,-84.3966 662.7105,-86.2078"/>
</g>
<!-- Node28&#45;&gt;Node21 -->
<g id="edge41" class="edge">
<title>Node28&#45;&gt;Node21</title>
<path fill="none" stroke="#191970" d="M616.0803,-112.456C585.7232,-103.7724 539.4517,-90.5014 490.5561,-76.2963"/>
<polygon fill="#191970" stroke="#191970" points="491.3255,-72.8751 480.746,-73.4439 489.3711,-79.5967 491.3255,-72.8751"/>
</g>
<!-- Node29 -->
<g id="node30" class="node">
<title>Node29</title>
<polygon fill="none" stroke="#bfbfbf" points="710.5,-56.5 710.5,-75.5 770.5,-75.5 770.5,-56.5 710.5,-56.5"/>
<text text-anchor="middle" x="740.5" y="-63.5" font-family="FreeSans.ttf" font-size="10.00" fill="#000000">iostream</text>
</g>
<!-- Node28&#45;&gt;Node29 -->
<g id="edge43" class="edge">
<title>Node28&#45;&gt;Node29</title>
<path fill="none" stroke="#191970" d="M665.351,-112.2455C679.3132,-103.6534 699.8728,-91.0014 715.9596,-81.1018"/>
<polygon fill="#191970" stroke="#191970" points="718.1484,-83.8645 724.8307,-75.6427 714.4797,-77.9029 718.1484,-83.8645"/>
</g>
<!-- Node30&#45;&gt;Node4 -->
<g id="edge47" class="edge">
<title>Node30&#45;&gt;Node4</title>
<path fill="none" stroke="#191970" d="M1116.9174,-112.3733C1092.984,-103.0007 1056.4934,-88.7107 1030.348,-78.472"/>
<polygon fill="#191970" stroke="#191970" points="1031.4696,-75.1524 1020.8818,-74.7649 1028.917,-81.6704 1031.4696,-75.1524"/>
</g>
<!-- Node31&#45;&gt;Node4 -->
<g id="edge52" class="edge">
<title>Node31&#45;&gt;Node4</title>
<path fill="none" stroke="#191970" d="M1329.3736,-224.1927C1335.4485,-201.1948 1346.7621,-143.3723 1317.5,-112 1298.0896,-91.1898 1108.0874,-74.4056 1030.8738,-68.3899"/>
<polygon fill="#191970" stroke="#191970" points="1030.9953,-64.889 1020.7567,-67.6132 1030.4594,-71.8685 1030.9953,-64.889"/>
</g>
<!-- Node32&#45;&gt;Node4 -->
<g id="edge57" class="edge">
<title>Node32&#45;&gt;Node4</title>
<path fill="none" stroke="#191970" d="M1160.0954,-395.6826C1278.3263,-382.4232 1478.6162,-342.3249 1434.5,-224 1411.495,-162.2978 1395.4171,-143.3369 1337.5,-112 1284.8484,-83.512 1104.9136,-71.3663 1030.8004,-67.4901"/>
<polygon fill="#191970" stroke="#191970" points="1030.8253,-63.9869 1020.6612,-66.9772 1030.4716,-70.978 1030.8253,-63.9869"/>
</g>
<!-- Node32&#45;&gt;Node6 -->
<g id="edge58" class="edge">
<title>Node32&#45;&gt;Node6</title>
<path fill="none" stroke="#191970" d="M1056.9294,-392.4509C1012.0246,-372.5722 908.3691,-326.6852 856.3921,-303.6756"/>
<polygon fill="#191970" stroke="#191970" points="857.5769,-300.3725 847.016,-299.5249 854.7433,-306.7733 857.5769,-300.3725"/>
</g>
<!-- Node32&#45;&gt;Node22 -->
<g id="edge59" class="edge">
<title>Node32&#45;&gt;Node22</title>
<path fill="none" stroke="#191970" d="M1078.5,-392.2455C1078.5,-384.9382 1078.5,-374.6944 1078.5,-365.7046"/>
<polygon fill="#191970" stroke="#191970" points="1082.0001,-365.6426 1078.5,-355.6427 1075.0001,-365.6427 1082.0001,-365.6426"/>
</g>
<!-- Node33 -->
<g id="node34" class="node">
<title>Node33</title>
<polygon fill="none" stroke="#bfbfbf" points="1414,-336.5 1414,-355.5 1463,-355.5 1463,-336.5 1414,-336.5"/>
<text text-anchor="middle" x="1438.5" y="-343.5" font-family="FreeSans.ttf" font-size="10.00" fill="#000000">cstdlib</text>
</g>
<!-- Node32&#45;&gt;Node33 -->
<g id="edge56" class="edge">
<title>Node32&#45;&gt;Node33</title>
<path fill="none" stroke="#191970" d="M1160.0497,-392.7973C1225.1798,-384.8514 1318.6126,-372.1163 1399.5,-356 1400.9567,-355.7098 1402.4403,-355.3988 1403.9363,-355.0726"/>
<polygon fill="#191970" stroke="#191970" points="1404.8961,-358.4426 1413.8352,-352.7555 1403.3006,-351.6268 1404.8961,-358.4426"/>
</g>
</g>
</svg>
