<?xml version="1.0" encoding="UTF-8" standalone="no"?>
<!DOCTYPE svg PUBLIC "-//W3C//DTD SVG 1.1//EN"
 "http://www.w3.org/Graphics/SVG/1.1/DTD/svg11.dtd">
<!-- Generated by graphviz version 2.40.1 (20161225.0304)
 -->
<!-- Title: XMLAttribute.cpp Pages: 1 -->
<svg width="171pt" height="140pt"
 viewBox="0.00 0.00 170.50 140.00" xmlns="http://www.w3.org/2000/svg" xmlns:xlink="http://www.w3.org/1999/xlink">
<g id="graph0" class="graph" transform="scale(1 1) rotate(0) translate(4 136)">
<title>XMLAttribute.cpp</title>
<!-- Node0 -->
<g id="node1" class="node">
<title>Node0</title>
<polygon fill="#bfbfbf" stroke="#000000" points="39.5,-112.5 39.5,-131.5 139.5,-131.5 139.5,-112.5 39.5,-112.5"/>
<text text-anchor="middle" x="89.5" y="-119.5" font-family="FreeSans.ttf" font-size="10.00" fill="#000000">XMLAttribute.cpp</text>
</g>
<!-- Node1 -->
<g id="node2" class="node">
<title>Node1</title>
<g id="a_node2"><a xlink:href="XMLAttribute_8h.html" target="_top" xlink:title="XMLAttribute.h">
<polygon fill="none" stroke="#000000" points="0,-56.5 0,-75.5 89,-75.5 89,-56.5 0,-56.5"/>
<text text-anchor="middle" x="44.5" y="-63.5" font-family="FreeSans.ttf" font-size="10.00" fill="#000000">XMLAttribute.h</text>
</a>
</g>
</g>
<!-- Node0&#45;&gt;Node1 -->
<g id="edge1" class="edge">
<title>Node0&#45;&gt;Node1</title>
<path fill="none" stroke="#191970" d="M81.6616,-112.2455C75.338,-104.3761 66.2776,-93.101 58.6864,-83.6542"/>
<polygon fill="#191970" stroke="#191970" points="61.2408,-81.2454 52.2486,-75.6427 55.7842,-85.6302 61.2408,-81.2454"/>
</g>
<!-- Node3 -->
<g id="node4" class="node">
<title>Node3</title>
<polygon fill="none" stroke="#bfbfbf" points="106.5,-56.5 106.5,-75.5 162.5,-75.5 162.5,-56.5 106.5,-56.5"/>
<text text-anchor="middle" x="134.5" y="-63.5" font-family="FreeSans.ttf" font-size="10.00" fill="#000000">sstream</text>
</g>
<!-- Node0&#45;&gt;Node3 -->
<g id="edge3" class="edge">
<title>Node0&#45;&gt;Node3</title>
<path fill="none" stroke="#191970" d="M97.3384,-112.2455C103.662,-104.3761 112.7224,-93.101 120.3136,-83.6542"/>
<polygon fill="#191970" stroke="#191970" points="123.2158,-85.6302 126.7514,-75.6427 117.7592,-81.2454 123.2158,-85.6302"/>
</g>
<!-- Node2 -->
<g id="node3" class="node">
<title>Node2</title>
<polygon fill="none" stroke="#bfbfbf" points="22.5,-.5 22.5,-19.5 66.5,-19.5 66.5,-.5 22.5,-.5"/>
<text text-anchor="middle" x="44.5" y="-7.5" font-family="FreeSans.ttf" font-size="10.00" fill="#000000">string</text>
</g>
<!-- Node1&#45;&gt;Node2 -->
<g id="edge2" class="edge">
<title>Node1&#45;&gt;Node2</title>
<path fill="none" stroke="#191970" d="M44.5,-56.2455C44.5,-48.9382 44.5,-38.6944 44.5,-29.7046"/>
<polygon fill="#191970" stroke="#191970" points="48.0001,-29.6426 44.5,-19.6427 41.0001,-29.6427 48.0001,-29.6426"/>
</g>
</g>
</svg>
