<?xml version="1.0" encoding="UTF-8" standalone="no"?>
<!DOCTYPE svg PUBLIC "-//W3C//DTD SVG 1.1//EN"
 "http://www.w3.org/Graphics/SVG/1.1/DTD/svg11.dtd">
<!-- Generated by graphviz version 2.40.1 (20161225.0304)
 -->
<!-- Title: XMLElement.cpp Pages: 1 -->
<svg width="391pt" height="140pt"
 viewBox="0.00 0.00 391.00 140.00" xmlns="http://www.w3.org/2000/svg" xmlns:xlink="http://www.w3.org/1999/xlink">
<g id="graph0" class="graph" transform="scale(1 1) rotate(0) translate(4 136)">
<title>XMLElement.cpp</title>
<!-- Node0 -->
<g id="node1" class="node">
<title>Node0</title>
<polygon fill="#bfbfbf" stroke="#000000" points="212,-112.5 212,-131.5 310,-131.5 310,-112.5 212,-112.5"/>
<text text-anchor="middle" x="261" y="-119.5" font-family="FreeSans.ttf" font-size="10.00" fill="#000000">XMLElement.cpp</text>
</g>
<!-- Node1 -->
<g id="node2" class="node">
<title>Node1</title>
<g id="a_node2"><a xlink:href="XMLElement_8h.html" target="_top" xlink:title="XMLElement.h">
<polygon fill="none" stroke="#000000" points="134,-56.5 134,-75.5 220,-75.5 220,-56.5 134,-56.5"/>
<text text-anchor="middle" x="177" y="-63.5" font-family="FreeSans.ttf" font-size="10.00" fill="#000000">XMLElement.h</text>
</a>
</g>
</g>
<!-- Node0&#45;&gt;Node1 -->
<g id="edge1" class="edge">
<title>Node0&#45;&gt;Node1</title>
<path fill="none" stroke="#191970" d="M246.3683,-112.2455C233.6006,-103.7337 214.8562,-91.2375 200.0701,-81.3801"/>
<polygon fill="#191970" stroke="#191970" points="201.726,-78.2775 191.464,-75.6427 197.8431,-84.1019 201.726,-78.2775"/>
</g>
<!-- Node5 -->
<g id="node6" class="node">
<title>Node5</title>
<polygon fill="none" stroke="#bfbfbf" points="221.5,-.5 221.5,-19.5 314.5,-19.5 314.5,-.5 221.5,-.5"/>
<text text-anchor="middle" x="268" y="-7.5" font-family="FreeSans.ttf" font-size="10.00" fill="#000000">unordered_map</text>
</g>
<!-- Node0&#45;&gt;Node5 -->
<g id="edge10" class="edge">
<title>Node0&#45;&gt;Node5</title>
<path fill="none" stroke="#191970" d="M261.5968,-112.4509C262.7385,-94.184 265.2528,-53.9553 266.7689,-29.6976"/>
<polygon fill="#191970" stroke="#191970" points="270.274,-29.7238 267.4047,-19.5249 263.2876,-29.2871 270.274,-29.7238"/>
</g>
<!-- Node6 -->
<g id="node7" class="node">
<title>Node6</title>
<polygon fill="none" stroke="#bfbfbf" points="332.5,-.5 332.5,-19.5 379.5,-19.5 379.5,-.5 332.5,-.5"/>
<text text-anchor="middle" x="356" y="-7.5" font-family="FreeSans.ttf" font-size="10.00" fill="#000000">vector</text>
</g>
<!-- Node0&#45;&gt;Node6 -->
<g id="edge11" class="edge">
<title>Node0&#45;&gt;Node6</title>
<path fill="none" stroke="#191970" d="M269.0996,-112.4509C285.0847,-93.6054 320.8968,-51.3849 341.2056,-27.4419"/>
<polygon fill="#191970" stroke="#191970" points="344.1214,-29.415 347.9209,-19.5249 338.7831,-24.887 344.1214,-29.415"/>
</g>
<!-- Node7 -->
<g id="node8" class="node">
<title>Node7</title>
<g id="a_node8"><a xlink:href="XMLAttribute_8h.html" target="_top" xlink:title="XMLAttribute.h">
<polygon fill="none" stroke="#000000" points="5.5,-56.5 5.5,-75.5 94.5,-75.5 94.5,-56.5 5.5,-56.5"/>
<text text-anchor="middle" x="50" y="-63.5" font-family="FreeSans.ttf" font-size="10.00" fill="#000000">XMLAttribute.h</text>
</a>
</g>
</g>
<!-- Node0&#45;&gt;Node7 -->
<g id="edge7" class="edge">
<title>Node0&#45;&gt;Node7</title>
<path fill="none" stroke="#191970" d="M224.7278,-112.3733C189.0342,-102.9001 134.4121,-88.4032 95.7549,-78.1435"/>
<polygon fill="#191970" stroke="#191970" points="96.3621,-74.6835 85.7989,-75.5011 94.5664,-81.4493 96.3621,-74.6835"/>
</g>
<!-- Node8 -->
<g id="node9" class="node">
<title>Node8</title>
<polygon fill="none" stroke="#bfbfbf" points="327,-56.5 327,-75.5 383,-75.5 383,-56.5 327,-56.5"/>
<text text-anchor="middle" x="355" y="-63.5" font-family="FreeSans.ttf" font-size="10.00" fill="#000000">sstream</text>
</g>
<!-- Node0&#45;&gt;Node8 -->
<g id="edge9" class="edge">
<title>Node0&#45;&gt;Node8</title>
<path fill="none" stroke="#191970" d="M277.3736,-112.2455C291.9308,-103.5731 313.431,-90.7645 330.1152,-80.825"/>
<polygon fill="#191970" stroke="#191970" points="332.0144,-83.7676 338.8141,-75.6427 328.4317,-77.7539 332.0144,-83.7676"/>
</g>
<!-- Node2 -->
<g id="node3" class="node">
<title>Node2</title>
<polygon fill="none" stroke="#bfbfbf" points="138.5,-.5 138.5,-19.5 203.5,-19.5 203.5,-.5 138.5,-.5"/>
<text text-anchor="middle" x="171" y="-7.5" font-family="FreeSans.ttf" font-size="10.00" fill="#000000">functional</text>
</g>
<!-- Node1&#45;&gt;Node2 -->
<g id="edge2" class="edge">
<title>Node1&#45;&gt;Node2</title>
<path fill="none" stroke="#191970" d="M175.9549,-56.2455C175.172,-48.9382 174.0744,-38.6944 173.1112,-29.7046"/>
<polygon fill="#191970" stroke="#191970" points="176.5786,-29.2129 172.0331,-19.6427 169.6185,-29.9587 176.5786,-29.2129"/>
</g>
<!-- Node3 -->
<g id="node4" class="node">
<title>Node3</title>
<polygon fill="none" stroke="#bfbfbf" points="62,-.5 62,-19.5 120,-19.5 120,-.5 62,-.5"/>
<text text-anchor="middle" x="91" y="-7.5" font-family="FreeSans.ttf" font-size="10.00" fill="#000000">memory</text>
</g>
<!-- Node1&#45;&gt;Node3 -->
<g id="edge3" class="edge">
<title>Node1&#45;&gt;Node3</title>
<path fill="none" stroke="#191970" d="M162.0199,-56.2455C148.8249,-47.6534 129.3949,-35.0014 114.1921,-25.1018"/>
<polygon fill="#191970" stroke="#191970" points="116.0983,-22.1665 105.8084,-19.6427 112.2785,-28.0325 116.0983,-22.1665"/>
</g>
<!-- Node4 -->
<g id="node5" class="node">
<title>Node4</title>
<polygon fill="none" stroke="#bfbfbf" points="0,-.5 0,-19.5 44,-19.5 44,-.5 0,-.5"/>
<text text-anchor="middle" x="22" y="-7.5" font-family="FreeSans.ttf" font-size="10.00" fill="#000000">string</text>
</g>
<!-- Node1&#45;&gt;Node4 -->
<g id="edge4" class="edge">
<title>Node1&#45;&gt;Node4</title>
<path fill="none" stroke="#191970" d="M150.3546,-56.3733C123.5647,-46.6944 82.2597,-31.7712 53.7783,-21.4812"/>
<polygon fill="#191970" stroke="#191970" points="54.8781,-18.1572 44.2838,-18.0509 52.4995,-24.7407 54.8781,-18.1572"/>
</g>
<!-- Node1&#45;&gt;Node5 -->
<g id="edge5" class="edge">
<title>Node1&#45;&gt;Node5</title>
<path fill="none" stroke="#191970" d="M192.851,-56.2455C206.8132,-47.6534 227.3728,-35.0014 243.4596,-25.1018"/>
<polygon fill="#191970" stroke="#191970" points="245.6484,-27.8645 252.3307,-19.6427 241.9797,-21.9029 245.6484,-27.8645"/>
</g>
<!-- Node1&#45;&gt;Node6 -->
<g id="edge6" class="edge">
<title>Node1&#45;&gt;Node6</title>
<path fill="none" stroke="#191970" d="M207.7712,-56.3733C239.8391,-46.3408 289.9166,-30.6741 322.8444,-20.3727"/>
<polygon fill="#191970" stroke="#191970" points="323.975,-23.6863 332.4738,-17.3601 321.8849,-17.0056 323.975,-23.6863"/>
</g>
<!-- Node7&#45;&gt;Node4 -->
<g id="edge8" class="edge">
<title>Node7&#45;&gt;Node4</title>
<path fill="none" stroke="#191970" d="M45.1228,-56.2455C41.3487,-48.6973 36.0079,-38.0158 31.4099,-28.8197"/>
<polygon fill="#191970" stroke="#191970" points="34.424,-27.0217 26.8213,-19.6427 28.163,-30.1522 34.424,-27.0217"/>
</g>
</g>
</svg>
