<?xml version="1.0" encoding="UTF-8" standalone="no"?>
<!DOCTYPE svg PUBLIC "-//W3C//DTD SVG 1.1//EN"
 "http://www.w3.org/Graphics/SVG/1.1/DTD/svg11.dtd">
<!-- Generated by graphviz version 2.40.1 (20161225.0304)
 -->
<!-- Title: YARPConversions.cpp Pages: 1 -->
<svg width="1582pt" height="688pt"
 viewBox="0.00 0.00 1581.50 688.00" xmlns="http://www.w3.org/2000/svg" xmlns:xlink="http://www.w3.org/1999/xlink">
<g id="graph0" class="graph" transform="scale(1 1) rotate(0) translate(4 684)">
<title>YARPConversions.cpp</title>
<!-- Node0 -->
<g id="node1" class="node">
<title>Node0</title>
<polygon fill="#bfbfbf" stroke="#000000" points="1283,-660.5 1283,-679.5 1405,-679.5 1405,-660.5 1283,-660.5"/>
<text text-anchor="middle" x="1344" y="-667.5" font-family="FreeSans.ttf" font-size="10.00" fill="#000000">YARPConversions.cpp</text>
</g>
<!-- Node1 -->
<g id="node2" class="node">
<title>Node1</title>
<g id="a_node2"><a xlink:href="YARPConversions_8h.html" target="_top" xlink:title="iDynTree/yarp/YARPConversions.h">
<polygon fill="none" stroke="#000000" points="611.5,-604.5 611.5,-623.5 792.5,-623.5 792.5,-604.5 611.5,-604.5"/>
<text text-anchor="middle" x="702" y="-611.5" font-family="FreeSans.ttf" font-size="10.00" fill="#000000">iDynTree/yarp/YARPConversions.h</text>
</a>
</g>
</g>
<!-- Node0&#45;&gt;Node1 -->
<g id="edge1" class="edge">
<title>Node0&#45;&gt;Node1</title>
<path fill="none" stroke="#191970" d="M1282.7332,-664.6559C1172.0031,-654.9972 937.5754,-634.5486 802.8839,-622.7998"/>
<polygon fill="#191970" stroke="#191970" points="802.8303,-619.282 792.5639,-621.8997 802.2219,-626.2555 802.8303,-619.282"/>
</g>
<!-- Node20 -->
<g id="node21" class="node">
<title>Node20</title>
<polygon fill="none" stroke="#bfbfbf" points="254,-56.5 254,-75.5 304,-75.5 304,-56.5 254,-56.5"/>
<text text-anchor="middle" x="279" y="-63.5" font-family="FreeSans.ttf" font-size="10.00" fill="#000000">cstring</text>
</g>
<!-- Node0&#45;&gt;Node20 -->
<g id="edge80" class="edge">
<title>Node0&#45;&gt;Node20</title>
<path fill="none" stroke="#191970" d="M1282.7587,-668.1502C1019.833,-659.8128 0,-623.2671 0,-558 0,-558 0,-558 0,-306.5 0,-205.6207 30.2443,-163.4791 117,-112 156.8761,-88.3383 209.5189,-76.3395 243.8063,-70.6342"/>
<polygon fill="#191970" stroke="#191970" points="244.4883,-74.0701 253.8235,-69.0597 243.4013,-67.155 244.4883,-74.0701"/>
</g>
<!-- Node37 -->
<g id="node38" class="node">
<title>Node37</title>
<g id="a_node38"><a xlink:href="Direction_8h.html" target="_top" xlink:title="iDynTree/Core/Direction.h">
<polygon fill="none" stroke="#000000" points="916.5,-168.5 916.5,-187.5 1057.5,-187.5 1057.5,-168.5 916.5,-168.5"/>
<text text-anchor="middle" x="987" y="-175.5" font-family="FreeSans.ttf" font-size="10.00" fill="#000000">iDynTree/Core/Direction.h</text>
</a>
</g>
</g>
<!-- Node0&#45;&gt;Node37 -->
<g id="edge65" class="edge">
<title>Node0&#45;&gt;Node37</title>
<path fill="none" stroke="#191970" d="M1353.375,-660.4412C1370.25,-642.1765 1404,-600.353 1404,-558 1404,-558 1404,-558 1404,-306.5 1404,-261.9329 1385.0725,-247.167 1347,-224 1345.509,-223.0927 1173.4404,-201.3821 1067.7608,-188.1161"/>
<polygon fill="#191970" stroke="#191970" points="1068.107,-184.6322 1057.749,-186.8597 1067.2353,-191.5777 1068.107,-184.6322"/>
</g>
<!-- Node38 -->
<g id="node39" class="node">
<title>Node38</title>
<g id="a_node39"><a xlink:href="Transform_8h.html" target="_top" xlink:title="iDynTree/Core/Transform.h">
<polygon fill="none" stroke="#000000" points="977,-358.5 977,-377.5 1123,-377.5 1123,-358.5 977,-358.5"/>
<text text-anchor="middle" x="1050" y="-365.5" font-family="FreeSans.ttf" font-size="10.00" fill="#000000">iDynTree/Core/Transform.h</text>
</a>
</g>
</g>
<!-- Node0&#45;&gt;Node38 -->
<g id="edge69" class="edge">
<title>Node0&#45;&gt;Node38</title>
<path fill="none" stroke="#191970" d="M1306.7636,-660.4945C1240.4999,-642.4786 1109,-601.2745 1109,-558 1109,-558 1109,-558 1109,-496.5 1109,-453.6184 1081.5289,-409.4268 1064.0769,-385.6792"/>
<polygon fill="#191970" stroke="#191970" points="1066.7935,-383.4693 1057.957,-377.6241 1061.2197,-387.704 1066.7935,-383.4693"/>
</g>
<!-- Node40 -->
<g id="node41" class="node">
<title>Node40</title>
<g id="a_node41"><a xlink:href="VectorDynSize_8h.html" target="_top" xlink:title="iDynTree/Core/VectorDynSize.h">
<polygon fill="none" stroke="#000000" points="1393.5,-112.5 1393.5,-131.5 1560.5,-131.5 1560.5,-112.5 1393.5,-112.5"/>
<text text-anchor="middle" x="1477" y="-119.5" font-family="FreeSans.ttf" font-size="10.00" fill="#000000">iDynTree/Core/VectorDynSize.h</text>
</a>
</g>
</g>
<!-- Node0&#45;&gt;Node40 -->
<g id="edge76" class="edge">
<title>Node0&#45;&gt;Node40</title>
<path fill="none" stroke="#191970" d="M1361.9747,-660.2369C1390.2665,-643.4053 1442,-606.0571 1442,-558 1442,-558 1442,-558 1442,-239.5 1442,-203.5066 1457.2716,-163.7955 1467.6393,-140.9832"/>
<polygon fill="#191970" stroke="#191970" points="1470.8866,-142.3027 1471.9854,-131.765 1464.555,-139.3176 1470.8866,-142.3027"/>
</g>
<!-- Node41 -->
<g id="node42" class="node">
<title>Node41</title>
<polygon fill="none" stroke="#bfbfbf" points="1470.5,-604.5 1470.5,-623.5 1573.5,-623.5 1573.5,-604.5 1470.5,-604.5"/>
<text text-anchor="middle" x="1522" y="-611.5" font-family="FreeSans.ttf" font-size="10.00" fill="#000000">yarp/math/Math.h</text>
</g>
<!-- Node0&#45;&gt;Node41 -->
<g id="edge79" class="edge">
<title>Node0&#45;&gt;Node41</title>
<path fill="none" stroke="#191970" d="M1374.5993,-660.3733C1404.3261,-651.021 1449.6159,-636.7725 1482.1456,-626.5385"/>
<polygon fill="#191970" stroke="#191970" points="1483.3113,-629.8409 1491.8,-623.5011 1481.2105,-623.1636 1483.3113,-629.8409"/>
</g>
<!-- Node2 -->
<g id="node3" class="node">
<title>Node2</title>
<polygon fill="none" stroke="#bfbfbf" points="586,-548.5 586,-567.5 684,-567.5 684,-548.5 586,-548.5"/>
<text text-anchor="middle" x="635" y="-555.5" font-family="FreeSans.ttf" font-size="10.00" fill="#000000">yarp/sig/Matrix.h</text>
</g>
<!-- Node1&#45;&gt;Node2 -->
<g id="edge2" class="edge">
<title>Node1&#45;&gt;Node2</title>
<path fill="none" stroke="#191970" d="M690.3295,-604.2455C680.4339,-595.9746 666.0373,-583.9416 654.4099,-574.2232"/>
<polygon fill="#191970" stroke="#191970" points="656.4542,-571.3703 646.5368,-567.6427 651.965,-576.7413 656.4542,-571.3703"/>
</g>
<!-- Node3 -->
<g id="node4" class="node">
<title>Node3</title>
<polygon fill="none" stroke="#bfbfbf" points="470,-548.5 470,-567.5 568,-567.5 568,-548.5 470,-548.5"/>
<text text-anchor="middle" x="519" y="-555.5" font-family="FreeSans.ttf" font-size="10.00" fill="#000000">yarp/sig/Vector.h</text>
</g>
<!-- Node1&#45;&gt;Node3 -->
<g id="edge3" class="edge">
<title>Node1&#45;&gt;Node3</title>
<path fill="none" stroke="#191970" d="M670.5412,-604.3733C639.9793,-595.021 593.4174,-580.7725 559.9739,-570.5385"/>
<polygon fill="#191970" stroke="#191970" points="560.6348,-567.0806 550.0483,-567.5011 558.5864,-573.7742 560.6348,-567.0806"/>
</g>
<!-- Node4 -->
<g id="node5" class="node">
<title>Node4</title>
<g id="a_node5"><a xlink:href="Wrench_8h.html" target="_top" xlink:title="iDynTree/Core/Wrench.h">
<polygon fill="none" stroke="#000000" points="702.5,-548.5 702.5,-567.5 835.5,-567.5 835.5,-548.5 702.5,-548.5"/>
<text text-anchor="middle" x="769" y="-555.5" font-family="FreeSans.ttf" font-size="10.00" fill="#000000">iDynTree/Core/Wrench.h</text>
</a>
</g>
</g>
<!-- Node1&#45;&gt;Node4 -->
<g id="edge4" class="edge">
<title>Node1&#45;&gt;Node4</title>
<path fill="none" stroke="#191970" d="M713.6705,-604.2455C723.5661,-595.9746 737.9627,-583.9416 749.5901,-574.2232"/>
<polygon fill="#191970" stroke="#191970" points="752.035,-576.7413 757.4632,-567.6427 747.5458,-571.3703 752.035,-576.7413"/>
</g>
<!-- Node5 -->
<g id="node6" class="node">
<title>Node5</title>
<g id="a_node6"><a xlink:href="SpatialForceVector_8h.html" target="_top" xlink:title="iDynTree/Core/SpatialForce\lVector.h">
<polygon fill="none" stroke="#000000" points="533,-481.5 533,-511.5 681,-511.5 681,-481.5 533,-481.5"/>
<text text-anchor="start" x="541" y="-499.5" font-family="FreeSans.ttf" font-size="10.00" fill="#000000">iDynTree/Core/SpatialForce</text>
<text text-anchor="middle" x="607" y="-488.5" font-family="FreeSans.ttf" font-size="10.00" fill="#000000">Vector.h</text>
</a>
</g>
</g>
<!-- Node4&#45;&gt;Node5 -->
<g id="edge5" class="edge">
<title>Node4&#45;&gt;Node5</title>
<path fill="none" stroke="#191970" d="M743.6875,-548.3906C720.3417,-539.5279 685.0338,-526.1239 656.1516,-515.1594"/>
<polygon fill="#191970" stroke="#191970" points="657.2209,-511.8217 646.6297,-511.5446 654.7364,-518.366 657.2209,-511.8217"/>
</g>
<!-- Node6 -->
<g id="node7" class="node">
<title>Node6</title>
<g id="a_node7"><a xlink:href="VectorFixSize_8h.html" target="_top" xlink:title="iDynTree/Core/VectorFixSize.h">
<polygon fill="none" stroke="#000000" points="481.5,-112.5 481.5,-131.5 642.5,-131.5 642.5,-112.5 481.5,-112.5"/>
<text text-anchor="middle" x="562" y="-119.5" font-family="FreeSans.ttf" font-size="10.00" fill="#000000">iDynTree/Core/VectorFixSize.h</text>
</a>
</g>
</g>
<!-- Node5&#45;&gt;Node6 -->
<g id="edge6" class="edge">
<title>Node5&#45;&gt;Node6</title>
<path fill="none" stroke="#191970" d="M681.4182,-482.0849C719.3361,-473.0699 759.7856,-460.2759 771,-445 779.1534,-433.8937 772.9549,-427.6384 771,-414 762.9182,-357.6162 772.0893,-334.2299 735,-291 710.4011,-262.3285 687.1008,-279.0895 658,-255 618.1446,-222.0078 586.5063,-168.854 571.4965,-140.7748"/>
<polygon fill="#191970" stroke="#191970" points="574.4635,-138.8948 566.7346,-131.6481 568.2574,-142.1329 574.4635,-138.8948"/>
</g>
<!-- Node21 -->
<g id="node22" class="node">
<title>Node21</title>
<g id="a_node22"><a xlink:href="LinearForceVector3_8h.html" target="_top" xlink:title="iDynTree/Core/LinearForce\lVector3.h">
<polygon fill="none" stroke="#000000" points="618,-414.5 618,-444.5 762,-444.5 762,-414.5 618,-414.5"/>
<text text-anchor="start" x="626" y="-432.5" font-family="FreeSans.ttf" font-size="10.00" fill="#000000">iDynTree/Core/LinearForce</text>
<text text-anchor="middle" x="690" y="-421.5" font-family="FreeSans.ttf" font-size="10.00" fill="#000000">Vector3.h</text>
</a>
</g>
</g>
<!-- Node5&#45;&gt;Node21 -->
<g id="edge23" class="edge">
<title>Node5&#45;&gt;Node21</title>
<path fill="none" stroke="#191970" d="M625.834,-481.2967C636.8705,-472.3876 650.9922,-460.9882 663.1765,-451.1527"/>
<polygon fill="#191970" stroke="#191970" points="665.6578,-453.6478 671.2405,-444.6432 661.2609,-448.201 665.6578,-453.6478"/>
</g>
<!-- Node29 -->
<g id="node30" class="node">
<title>Node29</title>
<g id="a_node30"><a xlink:href="PrivateMotionForceVertorAssociations_8h.html" target="_top" xlink:title="iDynTree/Core/PrivateMotion\lForceVertorAssociations.h">
<polygon fill="none" stroke="#000000" points="378.5,-224.5 378.5,-254.5 533.5,-254.5 533.5,-224.5 378.5,-224.5"/>
<text text-anchor="start" x="386.5" y="-242.5" font-family="FreeSans.ttf" font-size="10.00" fill="#000000">iDynTree/Core/PrivateMotion</text>
<text text-anchor="middle" x="456" y="-231.5" font-family="FreeSans.ttf" font-size="10.00" fill="#000000">ForceVertorAssociations.h</text>
</a>
</g>
</g>
<!-- Node5&#45;&gt;Node29 -->
<g id="edge64" class="edge">
<title>Node5&#45;&gt;Node29</title>
<path fill="none" stroke="#191970" d="M532.6214,-482.7332C493.2656,-473.7749 450.6982,-460.8215 439,-445 399.0859,-391.0171 426.7744,-305.8439 444.4388,-264.1486"/>
<polygon fill="#191970" stroke="#191970" points="447.7439,-265.3268 448.5602,-254.7635 441.3347,-262.5122 447.7439,-265.3268"/>
</g>
<!-- Node30 -->
<g id="node31" class="node">
<title>Node30</title>
<g id="a_node31"><a xlink:href="AngularForceVector3_8h.html" target="_top" xlink:title="iDynTree/Core/AngularForce\lVector3.h">
<polygon fill="none" stroke="#000000" points="448,-414.5 448,-444.5 600,-444.5 600,-414.5 448,-414.5"/>
<text text-anchor="start" x="456" y="-432.5" font-family="FreeSans.ttf" font-size="10.00" fill="#000000">iDynTree/Core/AngularForce</text>
<text text-anchor="middle" x="524" y="-421.5" font-family="FreeSans.ttf" font-size="10.00" fill="#000000">Vector3.h</text>
</a>
</g>
</g>
<!-- Node5&#45;&gt;Node30 -->
<g id="edge44" class="edge">
<title>Node5&#45;&gt;Node30</title>
<path fill="none" stroke="#191970" d="M588.166,-481.2967C577.1295,-472.3876 563.0078,-460.9882 550.8235,-451.1527"/>
<polygon fill="#191970" stroke="#191970" points="552.7391,-448.201 542.7595,-444.6432 548.3422,-453.6478 552.7391,-448.201"/>
</g>
<!-- Node31 -->
<g id="node32" class="node">
<title>Node31</title>
<g id="a_node32"><a xlink:href="SpatialVector_8h.html" target="_top" xlink:title="iDynTree/Core/SpatialVector.h">
<polygon fill="none" stroke="#000000" points="230.5,-358.5 230.5,-377.5 391.5,-377.5 391.5,-358.5 230.5,-358.5"/>
<text text-anchor="middle" x="311" y="-365.5" font-family="FreeSans.ttf" font-size="10.00" fill="#000000">iDynTree/Core/SpatialVector.h</text>
</a>
</g>
</g>
<!-- Node5&#45;&gt;Node31 -->
<g id="edge47" class="edge">
<title>Node5&#45;&gt;Node31</title>
<path fill="none" stroke="#191970" d="M532.6673,-485.3618C493.5315,-477.5739 445.5844,-464.9075 406,-445 375.0782,-429.449 345.0121,-402.4764 327.2527,-384.9367"/>
<polygon fill="#191970" stroke="#191970" points="329.5247,-382.257 320.0001,-377.6166 324.552,-387.1837 329.5247,-382.257"/>
</g>
<!-- Node7 -->
<g id="node8" class="node">
<title>Node7</title>
<g id="a_node8"><a xlink:href="Utils_8h.html" target="_top" xlink:title="iDynTree/Core/Utils.h">
<polygon fill="none" stroke="#000000" points="546.5,-56.5 546.5,-75.5 665.5,-75.5 665.5,-56.5 546.5,-56.5"/>
<text text-anchor="middle" x="606" y="-63.5" font-family="FreeSans.ttf" font-size="10.00" fill="#000000">iDynTree/Core/Utils.h</text>
</a>
</g>
</g>
<!-- Node6&#45;&gt;Node7 -->
<g id="edge7" class="edge">
<title>Node6&#45;&gt;Node7</title>
<path fill="none" stroke="#191970" d="M569.6642,-112.2455C575.8473,-104.3761 584.7063,-93.101 592.1289,-83.6542"/>
<polygon fill="#191970" stroke="#191970" points="594.9975,-85.6683 598.4236,-75.6427 589.4932,-81.3435 594.9975,-85.6683"/>
</g>
<!-- Node9 -->
<g id="node10" class="node">
<title>Node9</title>
<g id="a_node10"><a xlink:href="Span_8h.html" target="_top" xlink:title="iDynTree/Core/Span.h">
<polygon fill="none" stroke="#000000" points="974.5,-56.5 974.5,-75.5 1095.5,-75.5 1095.5,-56.5 974.5,-56.5"/>
<text text-anchor="middle" x="1035" y="-63.5" font-family="FreeSans.ttf" font-size="10.00" fill="#000000">iDynTree/Core/Span.h</text>
</a>
</g>
</g>
<!-- Node6&#45;&gt;Node9 -->
<g id="edge9" class="edge">
<title>Node6&#45;&gt;Node9</title>
<path fill="none" stroke="#191970" d="M642.7479,-113.4612C721.9418,-104.9316 846.389,-91.1159 964.3738,-76.0507"/>
<polygon fill="#191970" stroke="#191970" points="964.8341,-79.5204 974.3079,-74.7772 963.944,-72.5772 964.8341,-79.5204"/>
</g>
<!-- Node10 -->
<g id="node11" class="node">
<title>Node10</title>
<polygon fill="none" stroke="#bfbfbf" points="492,-.5 492,-19.5 544,-19.5 544,-.5 492,-.5"/>
<text text-anchor="middle" x="518" y="-7.5" font-family="FreeSans.ttf" font-size="10.00" fill="#000000">cassert</text>
</g>
<!-- Node6&#45;&gt;Node10 -->
<g id="edge21" class="edge">
<title>Node6&#45;&gt;Node10</title>
<path fill="none" stroke="#191970" d="M556.3057,-112.3819C551.0611,-103.2455 543.3107,-89.0099 538,-76 531.7782,-60.7583 526.4703,-42.8494 522.8894,-29.5355"/>
<polygon fill="#191970" stroke="#191970" points="526.2081,-28.3903 520.3055,-19.592 519.4331,-30.1508 526.2081,-28.3903"/>
</g>
<!-- Node18 -->
<g id="node19" class="node">
<title>Node18</title>
<polygon fill="none" stroke="#bfbfbf" points="912,-56.5 912,-75.5 956,-75.5 956,-56.5 912,-56.5"/>
<text text-anchor="middle" x="934" y="-63.5" font-family="FreeSans.ttf" font-size="10.00" fill="#000000">string</text>
</g>
<!-- Node6&#45;&gt;Node18 -->
<g id="edge19" class="edge">
<title>Node6&#45;&gt;Node18</title>
<path fill="none" stroke="#191970" d="M625.5264,-112.4369C705.5927,-100.3839 840.1637,-80.1259 901.6234,-70.8739"/>
<polygon fill="#191970" stroke="#191970" points="902.5079,-74.2803 911.8755,-69.3306 901.4659,-67.3583 902.5079,-74.2803"/>
</g>
<!-- Node19 -->
<g id="node20" class="node">
<title>Node19</title>
<polygon fill="none" stroke="#bfbfbf" points="360,-56.5 360,-75.5 416,-75.5 416,-56.5 360,-56.5"/>
<text text-anchor="middle" x="388" y="-63.5" font-family="FreeSans.ttf" font-size="10.00" fill="#000000">sstream</text>
</g>
<!-- Node6&#45;&gt;Node19 -->
<g id="edge20" class="edge">
<title>Node6&#45;&gt;Node19</title>
<path fill="none" stroke="#191970" d="M532.0883,-112.3733C502.7164,-102.9202 457.8016,-88.4649 425.9352,-78.209"/>
<polygon fill="#191970" stroke="#191970" points="426.6752,-74.7704 416.0837,-75.0384 424.5306,-81.4338 426.6752,-74.7704"/>
</g>
<!-- Node6&#45;&gt;Node20 -->
<g id="edge22" class="edge">
<title>Node6&#45;&gt;Node20</title>
<path fill="none" stroke="#191970" d="M513.6721,-112.4369C457.0766,-101.2378 364.6834,-82.955 314.3705,-72.9991"/>
<polygon fill="#191970" stroke="#191970" points="314.7903,-69.5144 304.3011,-71.0066 313.4314,-76.3812 314.7903,-69.5144"/>
</g>
<!-- Node8 -->
<g id="node9" class="node">
<title>Node8</title>
<polygon fill="none" stroke="#bfbfbf" points="636.5,-.5 636.5,-19.5 689.5,-19.5 689.5,-.5 636.5,-.5"/>
<text text-anchor="middle" x="663" y="-7.5" font-family="FreeSans.ttf" font-size="10.00" fill="#000000">cstddef</text>
</g>
<!-- Node7&#45;&gt;Node8 -->
<g id="edge8" class="edge">
<title>Node7&#45;&gt;Node8</title>
<path fill="none" stroke="#191970" d="M615.9286,-56.2455C624.1838,-48.1352 636.1209,-36.4075 645.9082,-26.7919"/>
<polygon fill="#191970" stroke="#191970" points="648.5046,-29.1476 653.1851,-19.6427 643.5989,-24.1542 648.5046,-29.1476"/>
</g>
<!-- Node9&#45;&gt;Node8 -->
<g id="edge13" class="edge">
<title>Node9&#45;&gt;Node8</title>
<path fill="none" stroke="#191970" d="M974.4038,-56.878C896.5896,-45.164 763.9638,-25.1989 699.8545,-15.548"/>
<polygon fill="#191970" stroke="#191970" points="700.2155,-12.063 689.8059,-14.0353 699.1734,-18.985 700.2155,-12.063"/>
</g>
<!-- Node9&#45;&gt;Node10 -->
<g id="edge10" class="edge">
<title>Node9&#45;&gt;Node10</title>
<path fill="none" stroke="#191970" d="M974.3131,-57.1815C971.1649,-56.7706 968.0461,-56.3742 965,-56 812.6555,-37.2869 630.4547,-20.1673 554.2718,-13.2448"/>
<polygon fill="#191970" stroke="#191970" points="554.5147,-9.7525 544.2398,-12.3366 553.8835,-16.724 554.5147,-9.7525"/>
</g>
<!-- Node11 -->
<g id="node12" class="node">
<title>Node11</title>
<polygon fill="none" stroke="#bfbfbf" points="1151,-.5 1151,-19.5 1215,-19.5 1215,-.5 1151,-.5"/>
<text text-anchor="middle" x="1183" y="-7.5" font-family="FreeSans.ttf" font-size="10.00" fill="#000000">algorithm</text>
</g>
<!-- Node9&#45;&gt;Node11 -->
<g id="edge11" class="edge">
<title>Node9&#45;&gt;Node11</title>
<path fill="none" stroke="#191970" d="M1060.4421,-56.3733C1084.7326,-47.1822 1121.5208,-33.2624 1148.4543,-23.0713"/>
<polygon fill="#191970" stroke="#191970" points="1149.7757,-26.3136 1157.8899,-19.5011 1147.2984,-19.7666 1149.7757,-26.3136"/>
</g>
<!-- Node12 -->
<g id="node13" class="node">
<title>Node12</title>
<polygon fill="none" stroke="#bfbfbf" points="1233,-.5 1233,-19.5 1275,-19.5 1275,-.5 1233,-.5"/>
<text text-anchor="middle" x="1254" y="-7.5" font-family="FreeSans.ttf" font-size="10.00" fill="#000000">array</text>
</g>
<!-- Node9&#45;&gt;Node12 -->
<g id="edge12" class="edge">
<title>Node9&#45;&gt;Node12</title>
<path fill="none" stroke="#191970" d="M1078.81,-56.4225C1115.1112,-48.2436 1168.2321,-35.7176 1222.902,-20.1567"/>
<polygon fill="#191970" stroke="#191970" points="1224.1195,-23.4485 1232.7629,-17.3212 1222.185,-16.7211 1224.1195,-23.4485"/>
</g>
<!-- Node13 -->
<g id="node14" class="node">
<title>Node13</title>
<polygon fill="none" stroke="#bfbfbf" points="783.5,-.5 783.5,-19.5 836.5,-19.5 836.5,-.5 783.5,-.5"/>
<text text-anchor="middle" x="810" y="-7.5" font-family="FreeSans.ttf" font-size="10.00" fill="#000000">iterator</text>
</g>
<!-- Node9&#45;&gt;Node13 -->
<g id="edge14" class="edge">
<title>Node9&#45;&gt;Node13</title>
<path fill="none" stroke="#191970" d="M993.9809,-56.4188C957.73,-47.8614 903.1887,-34.7684 846.557,-20.0862"/>
<polygon fill="#191970" stroke="#191970" points="847.2698,-16.6551 836.7105,-17.5226 845.5061,-23.4293 847.2698,-16.6551"/>
</g>
<!-- Node14 -->
<g id="node15" class="node">
<title>Node14</title>
<polygon fill="none" stroke="#bfbfbf" points="855,-.5 855,-19.5 899,-19.5 899,-.5 855,-.5"/>
<text text-anchor="middle" x="877" y="-7.5" font-family="FreeSans.ttf" font-size="10.00" fill="#000000">limits</text>
</g>
<!-- Node9&#45;&gt;Node14 -->
<g id="edge15" class="edge">
<title>Node9&#45;&gt;Node14</title>
<path fill="none" stroke="#191970" d="M1007.8388,-56.3733C980.3726,-46.6384 937.9388,-31.5985 908.8913,-21.3032"/>
<polygon fill="#191970" stroke="#191970" points="909.8163,-17.9178 899.2216,-17.876 907.4778,-24.5157 909.8163,-17.9178"/>
</g>
<!-- Node15 -->
<g id="node16" class="node">
<title>Node15</title>
<polygon fill="none" stroke="#bfbfbf" points="917.5,-.5 917.5,-19.5 982.5,-19.5 982.5,-.5 917.5,-.5"/>
<text text-anchor="middle" x="950" y="-7.5" font-family="FreeSans.ttf" font-size="10.00" fill="#000000">stdexcept</text>
</g>
<!-- Node9&#45;&gt;Node15 -->
<g id="edge16" class="edge">
<title>Node9&#45;&gt;Node15</title>
<path fill="none" stroke="#191970" d="M1020.1941,-56.2455C1007.2744,-47.7337 988.3069,-35.2375 973.3448,-25.3801"/>
<polygon fill="#191970" stroke="#191970" points="974.9124,-22.2216 964.6362,-19.6427 971.0613,-28.067 974.9124,-22.2216"/>
</g>
<!-- Node16 -->
<g id="node17" class="node">
<title>Node16</title>
<polygon fill="none" stroke="#bfbfbf" points="1000.5,-.5 1000.5,-19.5 1069.5,-19.5 1069.5,-.5 1000.5,-.5"/>
<text text-anchor="middle" x="1035" y="-7.5" font-family="FreeSans.ttf" font-size="10.00" fill="#000000">type_traits</text>
</g>
<!-- Node9&#45;&gt;Node16 -->
<g id="edge17" class="edge">
<title>Node9&#45;&gt;Node16</title>
<path fill="none" stroke="#191970" d="M1035,-56.2455C1035,-48.9382 1035,-38.6944 1035,-29.7046"/>
<polygon fill="#191970" stroke="#191970" points="1038.5001,-29.6426 1035,-19.6427 1031.5001,-29.6427 1038.5001,-29.6426"/>
</g>
<!-- Node17 -->
<g id="node18" class="node">
<title>Node17</title>
<polygon fill="none" stroke="#bfbfbf" points="1087.5,-.5 1087.5,-19.5 1132.5,-19.5 1132.5,-.5 1087.5,-.5"/>
<text text-anchor="middle" x="1110" y="-7.5" font-family="FreeSans.ttf" font-size="10.00" fill="#000000">utility</text>
</g>
<!-- Node9&#45;&gt;Node17 -->
<g id="edge18" class="edge">
<title>Node9&#45;&gt;Node17</title>
<path fill="none" stroke="#191970" d="M1048.064,-56.2455C1059.3562,-47.814 1075.8845,-35.4729 1089.0271,-25.6598"/>
<polygon fill="#191970" stroke="#191970" points="1091.1669,-28.4301 1097.0857,-19.6427 1086.9789,-22.8211 1091.1669,-28.4301"/>
</g>
<!-- Node22 -->
<g id="node23" class="node">
<title>Node22</title>
<g id="a_node23"><a xlink:href="ForceVector3_8h.html" target="_top" xlink:title="iDynTree/Core/ForceVector3.h">
<polygon fill="none" stroke="#000000" points="486,-358.5 486,-377.5 646,-377.5 646,-358.5 486,-358.5"/>
<text text-anchor="middle" x="566" y="-365.5" font-family="FreeSans.ttf" font-size="10.00" fill="#000000">iDynTree/Core/ForceVector3.h</text>
</a>
</g>
</g>
<!-- Node21&#45;&gt;Node22 -->
<g id="edge24" class="edge">
<title>Node21&#45;&gt;Node22</title>
<path fill="none" stroke="#191970" d="M659.6662,-414.4554C639.7024,-404.554 613.751,-391.683 594.2285,-382.0004"/>
<polygon fill="#191970" stroke="#191970" points="595.7294,-378.838 585.2156,-377.5303 592.6191,-385.1091 595.7294,-378.838"/>
</g>
<!-- Node21&#45;&gt;Node29 -->
<g id="edge43" class="edge">
<title>Node21&#45;&gt;Node29</title>
<path fill="none" stroke="#191970" d="M686.2381,-414.2841C681.5147,-398.1953 671.9053,-373.098 655,-358 619.4564,-326.2563 594.8537,-346.5354 554,-322 536.4693,-311.4716 535.5288,-304.3052 520,-291 508.1478,-280.8449 494.7331,-269.9607 483.2578,-260.8266"/>
<polygon fill="#191970" stroke="#191970" points="485.3072,-257.985 475.2949,-254.5203 480.9613,-263.4725 485.3072,-257.985"/>
</g>
<!-- Node23 -->
<g id="node24" class="node">
<title>Node23</title>
<g id="a_node24"><a xlink:href="GeomVector3_8h.html" target="_top" xlink:title="iDynTree/Core/GeomVector3.h">
<polygon fill="none" stroke="#000000" points="562.5,-297 562.5,-316 725.5,-316 725.5,-297 562.5,-297"/>
<text text-anchor="middle" x="644" y="-304" font-family="FreeSans.ttf" font-size="10.00" fill="#000000">iDynTree/Core/GeomVector3.h</text>
</a>
</g>
</g>
<!-- Node22&#45;&gt;Node23 -->
<g id="edge25" class="edge">
<title>Node22&#45;&gt;Node23</title>
<path fill="none" stroke="#191970" d="M578.1875,-358.3906C590.437,-348.7324 609.5263,-333.6812 623.9977,-322.271"/>
<polygon fill="#191970" stroke="#191970" points="626.2124,-324.9819 631.8981,-316.0419 621.8783,-319.485 626.2124,-324.9819"/>
</g>
<!-- Node22&#45;&gt;Node29 -->
<g id="edge42" class="edge">
<title>Node22&#45;&gt;Node29</title>
<path fill="none" stroke="#191970" d="M555.7603,-358.4762C546.1845,-349.4063 531.6518,-335.2157 520,-322 503.0536,-302.779 485.3081,-279.6301 472.8132,-262.7519"/>
<polygon fill="#191970" stroke="#191970" points="475.5305,-260.5389 466.7898,-254.5513 469.8888,-264.6828 475.5305,-260.5389"/>
</g>
<!-- Node23&#45;&gt;Node6 -->
<g id="edge26" class="edge">
<title>Node23&#45;&gt;Node6</title>
<path fill="none" stroke="#191970" d="M638.8298,-296.8316C628.2316,-276.8291 603.564,-229.3154 586,-188 579.3756,-172.4175 572.8755,-154.3185 568.3144,-141.0191"/>
<polygon fill="#191970" stroke="#191970" points="571.6227,-139.8763 565.1068,-131.522 564.9908,-142.1162 571.6227,-139.8763"/>
</g>
<!-- Node24 -->
<g id="node25" class="node">
<title>Node24</title>
<g id="a_node25"><a xlink:href="Rotation_8h.html" target="_top" xlink:title="iDynTree/Core/Rotation.h">
<polygon fill="none" stroke="#000000" points="666.5,-230 666.5,-249 803.5,-249 803.5,-230 666.5,-230"/>
<text text-anchor="middle" x="735" y="-237" font-family="FreeSans.ttf" font-size="10.00" fill="#000000">iDynTree/Core/Rotation.h</text>
</a>
</g>
</g>
<!-- Node23&#45;&gt;Node24 -->
<g id="edge27" class="edge">
<title>Node23&#45;&gt;Node24</title>
<path fill="none" stroke="#191970" d="M657.0381,-296.9005C671.7693,-286.0544 695.9733,-268.2339 713.5092,-255.3229"/>
<polygon fill="#191970" stroke="#191970" points="716.0085,-257.8291 721.9861,-249.0817 711.8582,-252.1922 716.0085,-257.8291"/>
</g>
<!-- Node23&#45;&gt;Node29 -->
<g id="edge41" class="edge">
<title>Node23&#45;&gt;Node29</title>
<path fill="none" stroke="#191970" d="M617.0642,-296.9005C588.6658,-286.7798 543.2274,-270.5864 507.842,-257.9756"/>
<polygon fill="#191970" stroke="#191970" points="508.7453,-254.582 498.1506,-254.5218 506.3953,-261.1757 508.7453,-254.582"/>
</g>
<!-- Node24&#45;&gt;Node6 -->
<g id="edge40" class="edge">
<title>Node24&#45;&gt;Node6</title>
<path fill="none" stroke="#191970" d="M720.8427,-229.8845C690.9364,-209.5724 621.1042,-162.1431 584.8123,-137.4939"/>
<polygon fill="#191970" stroke="#191970" points="586.5918,-134.4716 576.3529,-131.7484 582.6588,-140.2623 586.5918,-134.4716"/>
</g>
<!-- Node24&#45;&gt;Node18 -->
<g id="edge28" class="edge">
<title>Node24&#45;&gt;Node18</title>
<path fill="none" stroke="#191970" d="M731.2188,-229.9414C725.9844,-214.9574 718.691,-185.814 733,-168 779.4605,-110.1587 836.1784,-175.8814 896,-132 911.6135,-120.5469 921.7992,-100.5977 927.6574,-85.6216"/>
<polygon fill="#191970" stroke="#191970" points="931.1022,-86.3829 931.174,-75.7883 924.511,-84.0257 931.1022,-86.3829"/>
</g>
<!-- Node25 -->
<g id="node26" class="node">
<title>Node25</title>
<g id="a_node26"><a xlink:href="RotationRaw_8h.html" target="_top" xlink:title="iDynTree/Core/RotationRaw.h">
<polygon fill="none" stroke="#000000" points="376,-168.5 376,-187.5 534,-187.5 534,-168.5 376,-168.5"/>
<text text-anchor="middle" x="455" y="-175.5" font-family="FreeSans.ttf" font-size="10.00" fill="#000000">iDynTree/Core/RotationRaw.h</text>
</a>
</g>
</g>
<!-- Node24&#45;&gt;Node25 -->
<g id="edge29" class="edge">
<title>Node24&#45;&gt;Node25</title>
<path fill="none" stroke="#191970" d="M691.5572,-229.9581C642.2044,-219.1181 561.6384,-201.4224 508.468,-189.7439"/>
<polygon fill="#191970" stroke="#191970" points="509.0628,-186.2911 498.5447,-187.5643 507.561,-193.1282 509.0628,-186.2911"/>
</g>
<!-- Node28 -->
<g id="node29" class="node">
<title>Node28</title>
<g id="a_node29"><a xlink:href="RotationSemantics_8h.html" target="_top" xlink:title="iDynTree/Core/RotationSemantics.h">
<polygon fill="none" stroke="#000000" points="699,-112.5 699,-131.5 887,-131.5 887,-112.5 699,-112.5"/>
<text text-anchor="middle" x="793" y="-119.5" font-family="FreeSans.ttf" font-size="10.00" fill="#000000">iDynTree/Core/RotationSemantics.h</text>
</a>
</g>
</g>
<!-- Node24&#45;&gt;Node28 -->
<g id="edge38" class="edge">
<title>Node24&#45;&gt;Node28</title>
<path fill="none" stroke="#191970" d="M724.1073,-229.9245C709.5109,-215.8965 686.8757,-189.1335 700,-168 709.5327,-152.6499 725.8742,-142.2666 742.2248,-135.3145"/>
<polygon fill="#191970" stroke="#191970" points="743.7401,-138.481 751.8015,-131.6061 741.2123,-131.9534 743.7401,-138.481"/>
</g>
<!-- Node25&#45;&gt;Node18 -->
<g id="edge37" class="edge">
<title>Node25&#45;&gt;Node18</title>
<path fill="none" stroke="#191970" d="M454.5053,-168.1429C454.3604,-153.4282 456.4952,-125.9583 473,-112 505.6644,-84.3754 802.4222,-70.8961 901.766,-67.1299"/>
<polygon fill="#191970" stroke="#191970" points="901.9536,-70.6254 911.8168,-66.7567 901.6937,-63.6302 901.9536,-70.6254"/>
</g>
<!-- Node26 -->
<g id="node27" class="node">
<title>Node26</title>
<g id="a_node27"><a xlink:href="MatrixFixSize_8h.html" target="_top" xlink:title="iDynTree/Core/MatrixFixSize.h">
<polygon fill="none" stroke="#000000" points="225.5,-112.5 225.5,-131.5 386.5,-131.5 386.5,-112.5 225.5,-112.5"/>
<text text-anchor="middle" x="306" y="-119.5" font-family="FreeSans.ttf" font-size="10.00" fill="#000000">iDynTree/Core/MatrixFixSize.h</text>
</a>
</g>
</g>
<!-- Node25&#45;&gt;Node26 -->
<g id="edge30" class="edge">
<title>Node25&#45;&gt;Node26</title>
<path fill="none" stroke="#191970" d="M429.386,-168.3733C404.9313,-159.1822 367.8946,-145.2624 340.7791,-135.0713"/>
<polygon fill="#191970" stroke="#191970" points="341.8719,-131.7431 331.2798,-131.5011 339.4091,-138.2956 341.8719,-131.7431"/>
</g>
<!-- Node26&#45;&gt;Node7 -->
<g id="edge31" class="edge">
<title>Node26&#45;&gt;Node7</title>
<path fill="none" stroke="#191970" d="M357.231,-112.4369C409.2208,-102.7321 489.7073,-87.708 544.9681,-77.3926"/>
<polygon fill="#191970" stroke="#191970" points="545.7924,-80.7993 554.9803,-75.5237 544.5079,-73.9182 545.7924,-80.7993"/>
</g>
<!-- Node26&#45;&gt;Node10 -->
<g id="edge32" class="edge">
<title>Node26&#45;&gt;Node10</title>
<path fill="none" stroke="#191970" d="M309.9591,-112.3231C316.3844,-97.8439 330.466,-70.6774 351,-56 390.1906,-27.9871 445.7229,-17.0205 481.8011,-12.7355"/>
<polygon fill="#191970" stroke="#191970" points="482.3135,-16.2007 491.8821,-11.6519 481.5653,-9.2408 482.3135,-16.2007"/>
</g>
<!-- Node26&#45;&gt;Node18 -->
<g id="edge34" class="edge">
<title>Node26&#45;&gt;Node18</title>
<path fill="none" stroke="#191970" d="M386.8144,-114.7936C526.3688,-102.3493 806.7062,-77.351 901.6847,-68.8816"/>
<polygon fill="#191970" stroke="#191970" points="902.1718,-72.3522 911.8214,-67.9777 901.55,-65.3798 902.1718,-72.3522"/>
</g>
<!-- Node26&#45;&gt;Node19 -->
<g id="edge36" class="edge">
<title>Node26&#45;&gt;Node19</title>
<path fill="none" stroke="#191970" d="M320.2833,-112.2455C332.747,-103.7337 351.0451,-91.2375 365.4792,-81.3801"/>
<polygon fill="#191970" stroke="#191970" points="367.5962,-84.1726 373.8804,-75.6427 363.6485,-78.392 367.5962,-84.1726"/>
</g>
<!-- Node26&#45;&gt;Node20 -->
<g id="edge33" class="edge">
<title>Node26&#45;&gt;Node20</title>
<path fill="none" stroke="#191970" d="M301.297,-112.2455C297.6576,-104.6973 292.5076,-94.0158 288.0738,-84.8197"/>
<polygon fill="#191970" stroke="#191970" points="291.1449,-83.1303 283.6491,-75.6427 284.8395,-86.1704 291.1449,-83.1303"/>
</g>
<!-- Node27 -->
<g id="node28" class="node">
<title>Node27</title>
<polygon fill="none" stroke="#bfbfbf" points="88,-56.5 88,-75.5 148,-75.5 148,-56.5 88,-56.5"/>
<text text-anchor="middle" x="118" y="-63.5" font-family="FreeSans.ttf" font-size="10.00" fill="#000000">iostream</text>
</g>
<!-- Node26&#45;&gt;Node27 -->
<g id="edge35" class="edge">
<title>Node26&#45;&gt;Node27</title>
<path fill="none" stroke="#191970" d="M273.6816,-112.3733C241.5761,-102.8099 192.283,-88.1268 157.788,-77.8517"/>
<polygon fill="#191970" stroke="#191970" points="158.6191,-74.4474 148.0361,-74.9469 156.6207,-81.1561 158.6191,-74.4474"/>
</g>
<!-- Node28&#45;&gt;Node18 -->
<g id="edge39" class="edge">
<title>Node28&#45;&gt;Node18</title>
<path fill="none" stroke="#191970" d="M817.2388,-112.3733C840.8375,-103.0007 876.8177,-88.7107 902.5974,-78.472"/>
<polygon fill="#191970" stroke="#191970" points="903.9293,-81.709 911.9312,-74.7649 901.3455,-75.2033 903.9293,-81.709"/>
</g>
<!-- Node30&#45;&gt;Node22 -->
<g id="edge45" class="edge">
<title>Node30&#45;&gt;Node22</title>
<path fill="none" stroke="#191970" d="M534.382,-414.2977C540.1513,-405.8498 547.3716,-395.2773 553.4553,-386.369"/>
<polygon fill="#191970" stroke="#191970" points="556.5259,-388.0788 559.2753,-377.8469 550.7453,-384.1311 556.5259,-388.0788"/>
</g>
<!-- Node30&#45;&gt;Node29 -->
<g id="edge46" class="edge">
<title>Node30&#45;&gt;Node29</title>
<path fill="none" stroke="#191970" d="M505.5033,-414.2382C495.421,-404.8592 483.671,-391.9842 477,-378 459.5442,-341.4082 455.9174,-293.7427 455.5112,-264.942"/>
<polygon fill="#191970" stroke="#191970" points="459.0112,-264.8829 455.491,-254.89 452.0112,-264.897 459.0112,-264.8829"/>
</g>
<!-- Node31&#45;&gt;Node7 -->
<g id="edge58" class="edge">
<title>Node31&#45;&gt;Node7</title>
<path fill="none" stroke="#191970" d="M314.0875,-358.1542C316.9814,-348.8568 321.3906,-334.5123 325,-322 344.6635,-253.8353 324.7627,-225.0009 367,-168 406.9506,-114.0852 481.1604,-88.3879 536.3318,-76.3191"/>
<polygon fill="#191970" stroke="#191970" points="537.3241,-79.6875 546.3994,-74.2204 535.8955,-72.8348 537.3241,-79.6875"/>
</g>
<!-- Node31&#45;&gt;Node19 -->
<g id="edge63" class="edge">
<title>Node31&#45;&gt;Node19</title>
<path fill="none" stroke="#191970" d="M250.7541,-358.4316C204.0174,-350.0595 143.9407,-336.9252 124,-322 90.0383,-296.5804 76,-281.9212 76,-239.5 76,-239.5 76,-239.5 76,-178 76,-120.4639 266.3311,-84.4807 349.678,-71.4818"/>
<polygon fill="#191970" stroke="#191970" points="350.4056,-74.9113 359.7618,-69.9401 349.3477,-67.9917 350.4056,-74.9113"/>
</g>
<!-- Node31&#45;&gt;Node24 -->
<g id="edge56" class="edge">
<title>Node31&#45;&gt;Node24</title>
<path fill="none" stroke="#191970" d="M391.5185,-362.025C511.3048,-352.7448 723.6723,-334.6231 735,-322 750.1936,-305.0689 746.5343,-277.3904 741.5672,-258.8176"/>
<polygon fill="#191970" stroke="#191970" points="744.8688,-257.6435 738.6242,-249.0845 738.1684,-259.6695 744.8688,-257.6435"/>
</g>
<!-- Node31&#45;&gt;Node27 -->
<g id="edge62" class="edge">
<title>Node31&#45;&gt;Node27</title>
<path fill="none" stroke="#191970" d="M230.2863,-360.8165C174.2774,-354.1522 106.2367,-342.1493 86,-322 36.9124,-273.1243 44.792,-235.0992 62,-168 70.1881,-136.0722 90.6865,-103.4092 104.4774,-83.9175"/>
<polygon fill="#191970" stroke="#191970" points="107.4,-85.8495 110.4494,-75.703 101.7381,-81.7333 107.4,-85.8495"/>
</g>
<!-- Node31&#45;&gt;Node29 -->
<g id="edge57" class="edge">
<title>Node31&#45;&gt;Node29</title>
<path fill="none" stroke="#191970" d="M321.8986,-358.3416C344.9709,-337.8948 399.2485,-289.7936 431.2288,-261.4524"/>
<polygon fill="#191970" stroke="#191970" points="433.6837,-263.9535 438.8464,-254.7016 429.041,-258.7146 433.6837,-263.9535"/>
</g>
<!-- Node32 -->
<g id="node33" class="node">
<title>Node32</title>
<g id="a_node33"><a xlink:href="Position_8h.html" target="_top" xlink:title="Position.h">
<polygon fill="none" stroke="#000000" points="935.5,-297 935.5,-316 1000.5,-316 1000.5,-297 935.5,-297"/>
<text text-anchor="middle" x="968" y="-304" font-family="FreeSans.ttf" font-size="10.00" fill="#000000">Position.h</text>
</a>
</g>
</g>
<!-- Node31&#45;&gt;Node32 -->
<g id="edge48" class="edge">
<title>Node31&#45;&gt;Node32</title>
<path fill="none" stroke="#191970" d="M391.9091,-361.9858C496.4334,-353.9939 683.9776,-338.9004 844,-322 871.0635,-319.1417 901.3766,-315.3631 925.2569,-312.2523"/>
<polygon fill="#191970" stroke="#191970" points="925.9451,-315.6921 935.4045,-310.9203 925.0341,-308.7516 925.9451,-315.6921"/>
</g>
<!-- Node35 -->
<g id="node36" class="node">
<title>Node35</title>
<g id="a_node36"><a xlink:href="PrivatePreProcessorUtils_8h.html" target="_top" xlink:title="iDynTree/Core/PrivatePre\lProcessorUtils.h">
<polygon fill="none" stroke="#000000" points="132,-224.5 132,-254.5 270,-254.5 270,-224.5 132,-224.5"/>
<text text-anchor="start" x="140" y="-242.5" font-family="FreeSans.ttf" font-size="10.00" fill="#000000">iDynTree/Core/PrivatePre</text>
<text text-anchor="middle" x="201" y="-231.5" font-family="FreeSans.ttf" font-size="10.00" fill="#000000">ProcessorUtils.h</text>
</a>
</g>
</g>
<!-- Node31&#45;&gt;Node35 -->
<g id="edge59" class="edge">
<title>Node31&#45;&gt;Node35</title>
<path fill="none" stroke="#191970" d="M239.968,-358.4931C196.6979,-351.0814 147.2562,-339.1416 134,-322 117.4409,-300.5873 141.8631,-276.6234 165.7351,-260.0641"/>
<polygon fill="#191970" stroke="#191970" points="167.6833,-262.9719 174.0879,-254.532 163.818,-257.1358 167.6833,-262.9719"/>
</g>
<!-- Node36 -->
<g id="node37" class="node">
<title>Node36</title>
<g id="a_node37"><a xlink:href="PrivateSemanticsMacros_8h.html" target="_top" xlink:title="iDynTree/Core/PrivateSemantics\lMacros.h">
<polygon fill="none" stroke="#000000" points="142.5,-291.5 142.5,-321.5 315.5,-321.5 315.5,-291.5 142.5,-291.5"/>
<text text-anchor="start" x="150.5" y="-309.5" font-family="FreeSans.ttf" font-size="10.00" fill="#000000">iDynTree/Core/PrivateSemantics</text>
<text text-anchor="middle" x="229" y="-298.5" font-family="FreeSans.ttf" font-size="10.00" fill="#000000">Macros.h</text>
</a>
</g>
</g>
<!-- Node31&#45;&gt;Node36 -->
<g id="edge60" class="edge">
<title>Node31&#45;&gt;Node36</title>
<path fill="none" stroke="#191970" d="M298.1875,-358.3906C287.2953,-350.2215 271.2588,-338.1941 257.3669,-327.7752"/>
<polygon fill="#191970" stroke="#191970" points="259.1595,-324.7446 249.0595,-321.5446 254.9595,-330.3446 259.1595,-324.7446"/>
</g>
<!-- Node32&#45;&gt;Node18 -->
<g id="edge55" class="edge">
<title>Node32&#45;&gt;Node18</title>
<path fill="none" stroke="#191970" d="M993.2319,-296.8303C1017.3299,-287.2631 1054.4031,-271.67 1085,-255 1106.9738,-243.0281 1109.1247,-234.1437 1132,-224 1193.2623,-196.834 1311.9874,-221.778 1272,-168 1187.2618,-54.038 1101.7766,-117.6246 966,-76 965.8991,-75.9691 965.7981,-75.9381 965.6969,-75.907"/>
<polygon fill="#191970" stroke="#191970" points="966.6118,-72.5265 956.0242,-72.9169 964.5444,-79.2143 966.6118,-72.5265"/>
</g>
<!-- Node32&#45;&gt;Node24 -->
<g id="edge54" class="edge">
<title>Node32&#45;&gt;Node24</title>
<path fill="none" stroke="#191970" d="M935.111,-297.0426C893.9433,-285.2047 823.335,-264.901 777.9412,-251.8479"/>
<polygon fill="#191970" stroke="#191970" points="778.676,-248.4174 768.0981,-249.0175 776.7414,-255.1448 778.676,-248.4174"/>
</g>
<!-- Node33 -->
<g id="node34" class="node">
<title>Node33</title>
<g id="a_node34"><a xlink:href="PositionRaw_8h.html" target="_top" xlink:title="iDynTree/Core/PositionRaw.h">
<polygon fill="none" stroke="#000000" points="742,-168.5 742,-187.5 898,-187.5 898,-168.5 742,-168.5"/>
<text text-anchor="middle" x="820" y="-175.5" font-family="FreeSans.ttf" font-size="10.00" fill="#000000">iDynTree/Core/PositionRaw.h</text>
</a>
</g>
</g>
<!-- Node32&#45;&gt;Node33 -->
<g id="edge49" class="edge">
<title>Node32&#45;&gt;Node33</title>
<path fill="none" stroke="#191970" d="M956.8759,-296.8416C931.6982,-274.9812 870.1133,-221.5105 838.858,-194.3733"/>
<polygon fill="#191970" stroke="#191970" points="841.0988,-191.6837 831.2531,-187.7705 836.5095,-196.9695 841.0988,-191.6837"/>
</g>
<!-- Node34 -->
<g id="node35" class="node">
<title>Node34</title>
<g id="a_node35"><a xlink:href="PositionSemantics_8h.html" target="_top" xlink:title="iDynTree/Core/PositionSemantics.h">
<polygon fill="none" stroke="#000000" points="1075.5,-168.5 1075.5,-187.5 1262.5,-187.5 1262.5,-168.5 1075.5,-168.5"/>
<text text-anchor="middle" x="1169" y="-175.5" font-family="FreeSans.ttf" font-size="10.00" fill="#000000">iDynTree/Core/PositionSemantics.h</text>
</a>
</g>
</g>
<!-- Node32&#45;&gt;Node34 -->
<g id="edge52" class="edge">
<title>Node32&#45;&gt;Node34</title>
<path fill="none" stroke="#191970" d="M983.1077,-296.8416C1017.8962,-274.6012 1103.8632,-219.6422 1145.5644,-192.9825"/>
<polygon fill="#191970" stroke="#191970" points="1147.4511,-195.9305 1153.9912,-187.5952 1143.6806,-190.0327 1147.4511,-195.9305"/>
</g>
<!-- Node33&#45;&gt;Node6 -->
<g id="edge50" class="edge">
<title>Node33&#45;&gt;Node6</title>
<path fill="none" stroke="#191970" d="M775.9414,-168.4369C731.6011,-158.8127 663.1589,-143.957 615.6751,-133.6504"/>
<polygon fill="#191970" stroke="#191970" points="616.3918,-130.2245 605.8769,-131.5237 614.9069,-137.0653 616.3918,-130.2245"/>
</g>
<!-- Node33&#45;&gt;Node18 -->
<g id="edge51" class="edge">
<title>Node33&#45;&gt;Node18</title>
<path fill="none" stroke="#191970" d="M871.9151,-168.4371C893.0252,-161.8147 915.5675,-150.6755 929,-132 938.53,-118.7502 939.0244,-99.887 937.5758,-85.7175"/>
<polygon fill="#191970" stroke="#191970" points="941.0042,-84.9657 936.133,-75.5571 934.0738,-85.9499 941.0042,-84.9657"/>
</g>
<!-- Node34&#45;&gt;Node18 -->
<g id="edge53" class="edge">
<title>Node34&#45;&gt;Node18</title>
<path fill="none" stroke="#191970" d="M1148.964,-168.4509C1107.4275,-148.6548 1011.773,-103.0663 963.299,-79.9638"/>
<polygon fill="#191970" stroke="#191970" points="964.5183,-76.6677 953.9853,-75.5249 961.5066,-82.9868 964.5183,-76.6677"/>
</g>
<!-- Node36&#45;&gt;Node35 -->
<g id="edge61" class="edge">
<title>Node36&#45;&gt;Node35</title>
<path fill="none" stroke="#191970" d="M222.6464,-291.2967C219.2812,-283.2443 215.0658,-273.1574 211.2512,-264.0296"/>
<polygon fill="#191970" stroke="#191970" points="214.4138,-262.5203 207.3285,-254.6432 207.9551,-265.2195 214.4138,-262.5203"/>
</g>
<!-- Node37&#45;&gt;Node6 -->
<g id="edge67" class="edge">
<title>Node37&#45;&gt;Node6</title>
<path fill="none" stroke="#191970" d="M916.3428,-168.6899C841.4193,-158.8176 723.2007,-143.2406 644.1679,-132.8268"/>
<polygon fill="#191970" stroke="#191970" points="644.6203,-129.3563 634.2487,-131.5198 643.7058,-136.2963 644.6203,-129.3563"/>
</g>
<!-- Node37&#45;&gt;Node7 -->
<g id="edge68" class="edge">
<title>Node37&#45;&gt;Node7</title>
<path fill="none" stroke="#191970" d="M916.2108,-168.9525C835.0019,-158.2726 710.369,-140.8485 690,-132 663.6362,-120.5473 638.4066,-98.7715 622.6006,-83.3696"/>
<polygon fill="#191970" stroke="#191970" points="624.7771,-80.5954 615.238,-75.9848 619.8199,-85.5377 624.7771,-80.5954"/>
</g>
<!-- Node37&#45;&gt;Node18 -->
<g id="edge66" class="edge">
<title>Node37&#45;&gt;Node18</title>
<path fill="none" stroke="#191970" d="M985.0925,-168.2289C982.2796,-155.0066 976.3223,-130.898 967,-112 962.0825,-102.0314 955.0695,-91.893 948.7721,-83.6803"/>
<polygon fill="#191970" stroke="#191970" points="951.3217,-81.2636 942.3527,-75.6237 945.847,-85.6257 951.3217,-81.2636"/>
</g>
<!-- Node38&#45;&gt;Node18 -->
<g id="edge75" class="edge">
<title>Node38&#45;&gt;Node18</title>
<path fill="none" stroke="#191970" d="M1100.0711,-358.4381C1189.1746,-339.9801 1366,-296.2066 1366,-239.5 1366,-239.5 1366,-239.5 1366,-178 1366,-143.2309 1353.6025,-130.2369 1324,-112 1255.9247,-70.0615 1044.3382,-92.0067 966,-76 965.9002,-75.9796 965.8003,-75.959 965.7002,-75.9383"/>
<polygon fill="#191970" stroke="#191970" points="966.7782,-72.5999 956.2287,-73.579 965.0862,-79.3924 966.7782,-72.5999"/>
</g>
<!-- Node38&#45;&gt;Node24 -->
<g id="edge71" class="edge">
<title>Node38&#45;&gt;Node24</title>
<path fill="none" stroke="#191970" d="M1023.466,-358.4934C998.4591,-349.4358 960.0042,-335.2534 927,-322 869.6705,-298.9783 803.6583,-270.0812 765.8797,-253.3108"/>
<polygon fill="#191970" stroke="#191970" points="767.0139,-249.9847 756.4546,-249.1183 764.1689,-256.3805 767.0139,-249.9847"/>
</g>
<!-- Node38&#45;&gt;Node26 -->
<g id="edge74" class="edge">
<title>Node38&#45;&gt;Node26</title>
<path fill="none" stroke="#191970" d="M1002.7731,-358.46C961.6505,-349.8646 900.5539,-336.3976 848,-322 710.6788,-284.3796 680.7292,-260.0978 543,-224 465.7668,-203.7577 436.5543,-227.2036 367,-188 346.5137,-176.4531 329.006,-155.6256 318.0705,-140.4477"/>
<polygon fill="#191970" stroke="#191970" points="320.7044,-138.1022 312.1431,-131.8609 314.9436,-142.0789 320.7044,-138.1022"/>
</g>
<!-- Node38&#45;&gt;Node32 -->
<g id="edge70" class="edge">
<title>Node38&#45;&gt;Node32</title>
<path fill="none" stroke="#191970" d="M1037.1875,-358.3906C1024.3099,-348.7324 1004.2416,-333.6812 989.028,-322.271"/>
<polygon fill="#191970" stroke="#191970" points="990.8226,-319.2419 980.7225,-316.0419 986.6225,-324.8419 990.8226,-319.2419"/>
</g>
<!-- Node39 -->
<g id="node40" class="node">
<title>Node39</title>
<g id="a_node40"><a xlink:href="TransformSemantics_8h.html" target="_top" xlink:title="iDynTree/Core/TransformSemantics.h">
<polygon fill="none" stroke="#000000" points="1140.5,-230 1140.5,-249 1337.5,-249 1337.5,-230 1140.5,-230"/>
<text text-anchor="middle" x="1239" y="-237" font-family="FreeSans.ttf" font-size="10.00" fill="#000000">iDynTree/Core/TransformSemantics.h</text>
</a>
</g>
</g>
<!-- Node38&#45;&gt;Node39 -->
<g id="edge72" class="edge">
<title>Node38&#45;&gt;Node39</title>
<path fill="none" stroke="#191970" d="M1064.2057,-358.3416C1096.7116,-336.2411 1176.7371,-281.8322 1216.2188,-254.9888"/>
<polygon fill="#191970" stroke="#191970" points="1218.5855,-257.6121 1224.8873,-249.0952 1214.6497,-251.8233 1218.5855,-257.6121"/>
</g>
<!-- Node39&#45;&gt;Node18 -->
<g id="edge73" class="edge">
<title>Node39&#45;&gt;Node18</title>
<path fill="none" stroke="#191970" d="M1258.9922,-229.9787C1274.4488,-221.3987 1294.7243,-207.1834 1304,-188 1318.7038,-157.5905 1326.5843,-137.1175 1304,-112 1253.4956,-55.8308 1039.962,-91.3394 966,-76 965.9003,-75.9793 965.8004,-75.9584 965.7004,-75.9374"/>
<polygon fill="#191970" stroke="#191970" points="966.7834,-72.6007 956.2322,-73.5618 965.0798,-79.3903 966.7834,-72.6007"/>
</g>
<!-- Node40&#45;&gt;Node9 -->
<g id="edge77" class="edge">
<title>Node40&#45;&gt;Node9</title>
<path fill="none" stroke="#191970" d="M1401.7704,-112.4686C1318.9389,-101.9742 1186.7924,-85.2316 1105.7797,-74.9676"/>
<polygon fill="#191970" stroke="#191970" points="1106.0341,-71.4719 1095.6734,-73.6871 1105.1541,-78.4164 1106.0341,-71.4719"/>
</g>
<!-- Node40&#45;&gt;Node18 -->
<g id="edge78" class="edge">
<title>Node40&#45;&gt;Node18</title>
<path fill="none" stroke="#191970" d="M1393.4096,-113.2968C1388.8744,-112.8513 1384.3819,-112.4164 1380,-112 1196.1338,-94.5293 1147.2007,-111.7534 966,-76 965.9001,-75.9803 965.8,-75.9604 965.6998,-75.9403"/>
<polygon fill="#191970" stroke="#191970" points="966.7664,-72.5981 956.2208,-73.6185 965.101,-79.3971 966.7664,-72.5981"/>
</g>
</g>
</svg>
