<?xml version="1.0" encoding="UTF-8" standalone="no"?>
<!DOCTYPE svg PUBLIC "-//W3C//DTD SVG 1.1//EN"
 "http://www.w3.org/Graphics/SVG/1.1/DTD/svg11.dtd">
<!-- Generated by graphviz version 2.40.1 (20161225.0304)
 -->
<!-- Title: YARPConversions.h Pages: 1 -->
<svg width="1386pt" height="632pt"
 viewBox="0.00 0.00 1386.00 632.00" xmlns="http://www.w3.org/2000/svg" xmlns:xlink="http://www.w3.org/1999/xlink">
<g id="graph0" class="graph" transform="scale(1 1) rotate(0) translate(4 628)">
<title>YARPConversions.h</title>
<!-- Node0 -->
<g id="node1" class="node">
<title>Node0</title>
<polygon fill="#bfbfbf" stroke="#000000" points="110,-604.5 110,-623.5 220,-623.5 220,-604.5 110,-604.5"/>
<text text-anchor="middle" x="165" y="-611.5" font-family="FreeSans.ttf" font-size="10.00" fill="#000000">YARPConversions.h</text>
</g>
<!-- Node1 -->
<g id="node2" class="node">
<title>Node1</title>
<polygon fill="none" stroke="#bfbfbf" points="0,-548.5 0,-567.5 98,-567.5 98,-548.5 0,-548.5"/>
<text text-anchor="middle" x="49" y="-555.5" font-family="FreeSans.ttf" font-size="10.00" fill="#000000">yarp/sig/Matrix.h</text>
</g>
<!-- Node0&#45;&gt;Node1 -->
<g id="edge1" class="edge">
<title>Node0&#45;&gt;Node1</title>
<path fill="none" stroke="#191970" d="M145.0589,-604.3733C126.5214,-595.4241 98.6972,-581.9917 77.7587,-571.8835"/>
<polygon fill="#191970" stroke="#191970" points="79.2081,-568.6967 68.6809,-567.5011 76.1648,-575.0006 79.2081,-568.6967"/>
</g>
<!-- Node2 -->
<g id="node3" class="node">
<title>Node2</title>
<polygon fill="none" stroke="#bfbfbf" points="116,-548.5 116,-567.5 214,-567.5 214,-548.5 116,-548.5"/>
<text text-anchor="middle" x="165" y="-555.5" font-family="FreeSans.ttf" font-size="10.00" fill="#000000">yarp/sig/Vector.h</text>
</g>
<!-- Node0&#45;&gt;Node2 -->
<g id="edge2" class="edge">
<title>Node0&#45;&gt;Node2</title>
<path fill="none" stroke="#191970" d="M165,-604.2455C165,-596.9382 165,-586.6944 165,-577.7046"/>
<polygon fill="#191970" stroke="#191970" points="168.5001,-577.6426 165,-567.6427 161.5001,-577.6427 168.5001,-577.6426"/>
</g>
<!-- Node3 -->
<g id="node4" class="node">
<title>Node3</title>
<g id="a_node4"><a xlink:href="Wrench_8h.html" target="_top" xlink:title="iDynTree/Core/Wrench.h">
<polygon fill="none" stroke="#000000" points="232.5,-548.5 232.5,-567.5 365.5,-567.5 365.5,-548.5 232.5,-548.5"/>
<text text-anchor="middle" x="299" y="-555.5" font-family="FreeSans.ttf" font-size="10.00" fill="#000000">iDynTree/Core/Wrench.h</text>
</a>
</g>
</g>
<!-- Node0&#45;&gt;Node3 -->
<g id="edge3" class="edge">
<title>Node0&#45;&gt;Node3</title>
<path fill="none" stroke="#191970" d="M188.0354,-604.3733C209.7388,-595.3032 242.4618,-581.6279 266.755,-571.4755"/>
<polygon fill="#191970" stroke="#191970" points="268.3881,-574.5865 276.2652,-567.5011 265.6889,-568.1278 268.3881,-574.5865"/>
</g>
<!-- Node4 -->
<g id="node5" class="node">
<title>Node4</title>
<g id="a_node5"><a xlink:href="SpatialForceVector_8h.html" target="_top" xlink:title="iDynTree/Core/SpatialForce\lVector.h">
<polygon fill="none" stroke="#000000" points="225,-481.5 225,-511.5 373,-511.5 373,-481.5 225,-481.5"/>
<text text-anchor="start" x="233" y="-499.5" font-family="FreeSans.ttf" font-size="10.00" fill="#000000">iDynTree/Core/SpatialForce</text>
<text text-anchor="middle" x="299" y="-488.5" font-family="FreeSans.ttf" font-size="10.00" fill="#000000">Vector.h</text>
</a>
</g>
</g>
<!-- Node3&#45;&gt;Node4 -->
<g id="edge4" class="edge">
<title>Node3&#45;&gt;Node4</title>
<path fill="none" stroke="#191970" d="M299,-548.3906C299,-541.2234 299,-531.0862 299,-521.671"/>
<polygon fill="#191970" stroke="#191970" points="302.5001,-521.5446 299,-511.5446 295.5001,-521.5446 302.5001,-521.5446"/>
</g>
<!-- Node5 -->
<g id="node6" class="node">
<title>Node5</title>
<g id="a_node6"><a xlink:href="VectorFixSize_8h.html" target="_top" xlink:title="iDynTree/Core/VectorFixSize.h">
<polygon fill="none" stroke="#000000" points="408.5,-112.5 408.5,-131.5 569.5,-131.5 569.5,-112.5 408.5,-112.5"/>
<text text-anchor="middle" x="489" y="-119.5" font-family="FreeSans.ttf" font-size="10.00" fill="#000000">iDynTree/Core/VectorFixSize.h</text>
</a>
</g>
</g>
<!-- Node4&#45;&gt;Node5 -->
<g id="edge5" class="edge">
<title>Node4&#45;&gt;Node5</title>
<path fill="none" stroke="#191970" d="M246.797,-481.4592C229.1009,-473.5907 211.2372,-461.9444 201,-445 173.9062,-400.1548 39.7437,-452.9841 203,-224 230.3476,-185.6422 358.9089,-151.1274 434.0304,-133.7856"/>
<polygon fill="#191970" stroke="#191970" points="434.8402,-137.1909 443.8116,-131.5549 433.2837,-130.3661 434.8402,-137.1909"/>
</g>
<!-- Node20 -->
<g id="node21" class="node">
<title>Node20</title>
<g id="a_node21"><a xlink:href="LinearForceVector3_8h.html" target="_top" xlink:title="iDynTree/Core/LinearForce\lVector3.h">
<polygon fill="none" stroke="#000000" points="393,-414.5 393,-444.5 537,-444.5 537,-414.5 393,-414.5"/>
<text text-anchor="start" x="401" y="-432.5" font-family="FreeSans.ttf" font-size="10.00" fill="#000000">iDynTree/Core/LinearForce</text>
<text text-anchor="middle" x="465" y="-421.5" font-family="FreeSans.ttf" font-size="10.00" fill="#000000">Vector3.h</text>
</a>
</g>
</g>
<!-- Node4&#45;&gt;Node20 -->
<g id="edge22" class="edge">
<title>Node4&#45;&gt;Node20</title>
<path fill="none" stroke="#191970" d="M336.2536,-481.4639C360.4108,-471.7137 392.0866,-458.9289 417.9736,-448.4805"/>
<polygon fill="#191970" stroke="#191970" points="419.6207,-451.5901 427.5839,-444.6017 417.0007,-445.0989 419.6207,-451.5901"/>
</g>
<!-- Node28 -->
<g id="node29" class="node">
<title>Node28</title>
<g id="a_node29"><a xlink:href="PrivateMotionForceVertorAssociations_8h.html" target="_top" xlink:title="iDynTree/Core/PrivateMotion\lForceVertorAssociations.h">
<polygon fill="none" stroke="#000000" points="212.5,-224.5 212.5,-254.5 367.5,-254.5 367.5,-224.5 212.5,-224.5"/>
<text text-anchor="start" x="220.5" y="-242.5" font-family="FreeSans.ttf" font-size="10.00" fill="#000000">iDynTree/Core/PrivateMotion</text>
<text text-anchor="middle" x="290" y="-231.5" font-family="FreeSans.ttf" font-size="10.00" fill="#000000">ForceVertorAssociations.h</text>
</a>
</g>
</g>
<!-- Node4&#45;&gt;Node28 -->
<g id="edge63" class="edge">
<title>Node4&#45;&gt;Node28</title>
<path fill="none" stroke="#191970" d="M256.6841,-481.4897C240.3193,-473.3701 223.3156,-461.5362 214,-445 178.9649,-382.8089 236.1283,-301.374 269.1489,-262.3236"/>
<polygon fill="#191970" stroke="#191970" points="271.8877,-264.5074 275.7868,-254.6562 266.5954,-259.9257 271.8877,-264.5074"/>
</g>
<!-- Node29 -->
<g id="node30" class="node">
<title>Node29</title>
<g id="a_node30"><a xlink:href="AngularForceVector3_8h.html" target="_top" xlink:title="iDynTree/Core/AngularForce\lVector3.h">
<polygon fill="none" stroke="#000000" points="223,-414.5 223,-444.5 375,-444.5 375,-414.5 223,-414.5"/>
<text text-anchor="start" x="231" y="-432.5" font-family="FreeSans.ttf" font-size="10.00" fill="#000000">iDynTree/Core/AngularForce</text>
<text text-anchor="middle" x="299" y="-421.5" font-family="FreeSans.ttf" font-size="10.00" fill="#000000">Vector3.h</text>
</a>
</g>
</g>
<!-- Node4&#45;&gt;Node29 -->
<g id="edge43" class="edge">
<title>Node4&#45;&gt;Node29</title>
<path fill="none" stroke="#191970" d="M299,-481.2967C299,-473.5013 299,-463.7991 299,-454.9064"/>
<polygon fill="#191970" stroke="#191970" points="302.5001,-454.6431 299,-444.6432 295.5001,-454.6432 302.5001,-454.6431"/>
</g>
<!-- Node30 -->
<g id="node31" class="node">
<title>Node30</title>
<g id="a_node31"><a xlink:href="SpatialVector_8h.html" target="_top" xlink:title="iDynTree/Core/SpatialVector.h">
<polygon fill="none" stroke="#000000" points="716.5,-358.5 716.5,-377.5 877.5,-377.5 877.5,-358.5 716.5,-358.5"/>
<text text-anchor="middle" x="797" y="-365.5" font-family="FreeSans.ttf" font-size="10.00" fill="#000000">iDynTree/Core/SpatialVector.h</text>
</a>
</g>
</g>
<!-- Node4&#45;&gt;Node30 -->
<g id="edge46" class="edge">
<title>Node4&#45;&gt;Node30</title>
<path fill="none" stroke="#191970" d="M373.1757,-482.8851C422.4413,-473.3892 488.4082,-459.8043 546,-445 622.612,-425.3065 710.7012,-396.9278 759.4992,-380.6897"/>
<polygon fill="#191970" stroke="#191970" points="760.6327,-384.0012 769.0087,-377.5133 758.4149,-377.3618 760.6327,-384.0012"/>
</g>
<!-- Node6 -->
<g id="node7" class="node">
<title>Node6</title>
<g id="a_node7"><a xlink:href="Utils_8h.html" target="_top" xlink:title="iDynTree/Core/Utils.h">
<polygon fill="none" stroke="#000000" points="538.5,-56.5 538.5,-75.5 657.5,-75.5 657.5,-56.5 538.5,-56.5"/>
<text text-anchor="middle" x="598" y="-63.5" font-family="FreeSans.ttf" font-size="10.00" fill="#000000">iDynTree/Core/Utils.h</text>
</a>
</g>
</g>
<!-- Node5&#45;&gt;Node6 -->
<g id="edge6" class="edge">
<title>Node5&#45;&gt;Node6</title>
<path fill="none" stroke="#191970" d="M507.9864,-112.2455C525.1792,-103.4125 550.7238,-90.2887 570.2132,-80.2758"/>
<polygon fill="#191970" stroke="#191970" points="571.9359,-83.3257 579.2312,-75.6427 568.737,-77.0993 571.9359,-83.3257"/>
</g>
<!-- Node8 -->
<g id="node9" class="node">
<title>Node8</title>
<g id="a_node9"><a xlink:href="Span_8h.html" target="_top" xlink:title="iDynTree/Core/Span.h">
<polygon fill="none" stroke="#000000" points="286.5,-56.5 286.5,-75.5 407.5,-75.5 407.5,-56.5 286.5,-56.5"/>
<text text-anchor="middle" x="347" y="-63.5" font-family="FreeSans.ttf" font-size="10.00" fill="#000000">iDynTree/Core/Span.h</text>
</a>
</g>
</g>
<!-- Node5&#45;&gt;Node8 -->
<g id="edge8" class="edge">
<title>Node5&#45;&gt;Node8</title>
<path fill="none" stroke="#191970" d="M464.5893,-112.3733C441.3858,-103.2226 406.2962,-89.3844 380.4858,-79.2057"/>
<polygon fill="#191970" stroke="#191970" points="381.6789,-75.9139 371.0921,-75.5011 379.1108,-82.4258 381.6789,-75.9139"/>
</g>
<!-- Node9 -->
<g id="node10" class="node">
<title>Node9</title>
<polygon fill="none" stroke="#bfbfbf" points="631,-.5 631,-19.5 683,-19.5 683,-.5 631,-.5"/>
<text text-anchor="middle" x="657" y="-7.5" font-family="FreeSans.ttf" font-size="10.00" fill="#000000">cassert</text>
</g>
<!-- Node5&#45;&gt;Node9 -->
<g id="edge20" class="edge">
<title>Node5&#45;&gt;Node9</title>
<path fill="none" stroke="#191970" d="M477.4403,-112.324C462.6548,-98.7862 440.5871,-73.8509 455,-56 500.7412,.6523 544.5979,-35.2032 620.7287,-19.9686"/>
<polygon fill="#191970" stroke="#191970" points="621.6934,-23.3389 630.6768,-17.7222 620.1515,-16.5109 621.6934,-23.3389"/>
</g>
<!-- Node17 -->
<g id="node18" class="node">
<title>Node17</title>
<polygon fill="none" stroke="#bfbfbf" points="977,-56.5 977,-75.5 1021,-75.5 1021,-56.5 977,-56.5"/>
<text text-anchor="middle" x="999" y="-63.5" font-family="FreeSans.ttf" font-size="10.00" fill="#000000">string</text>
</g>
<!-- Node5&#45;&gt;Node17 -->
<g id="edge18" class="edge">
<title>Node5&#45;&gt;Node17</title>
<path fill="none" stroke="#191970" d="M569.5296,-113.1575C683.7333,-100.6175 887.6324,-78.2286 966.5561,-69.5625"/>
<polygon fill="#191970" stroke="#191970" points="967.2826,-73.0038 976.8408,-68.4332 966.5185,-66.0456 967.2826,-73.0038"/>
</g>
<!-- Node18 -->
<g id="node19" class="node">
<title>Node18</title>
<polygon fill="none" stroke="#bfbfbf" points="464,-56.5 464,-75.5 520,-75.5 520,-56.5 464,-56.5"/>
<text text-anchor="middle" x="492" y="-63.5" font-family="FreeSans.ttf" font-size="10.00" fill="#000000">sstream</text>
</g>
<!-- Node5&#45;&gt;Node18 -->
<g id="edge19" class="edge">
<title>Node5&#45;&gt;Node18</title>
<path fill="none" stroke="#191970" d="M489.5226,-112.2455C489.914,-104.9382 490.4628,-94.6944 490.9444,-85.7046"/>
<polygon fill="#191970" stroke="#191970" points="494.4434,-85.8156 491.4834,-75.6427 487.4534,-85.4411 494.4434,-85.8156"/>
</g>
<!-- Node19 -->
<g id="node20" class="node">
<title>Node19</title>
<polygon fill="none" stroke="#bfbfbf" points="676,-56.5 676,-75.5 726,-75.5 726,-56.5 676,-56.5"/>
<text text-anchor="middle" x="701" y="-63.5" font-family="FreeSans.ttf" font-size="10.00" fill="#000000">cstring</text>
</g>
<!-- Node5&#45;&gt;Node19 -->
<g id="edge21" class="edge">
<title>Node5&#45;&gt;Node19</title>
<path fill="none" stroke="#191970" d="M527.2922,-112.4945C561.2896,-103.9683 612.5562,-90.9002 665.8121,-76.2693"/>
<polygon fill="#191970" stroke="#191970" points="667.0669,-79.554 675.7756,-73.52 665.2049,-72.8062 667.0669,-79.554"/>
</g>
<!-- Node7 -->
<g id="node8" class="node">
<title>Node7</title>
<polygon fill="none" stroke="#bfbfbf" points="559.5,-.5 559.5,-19.5 612.5,-19.5 612.5,-.5 559.5,-.5"/>
<text text-anchor="middle" x="586" y="-7.5" font-family="FreeSans.ttf" font-size="10.00" fill="#000000">cstddef</text>
</g>
<!-- Node6&#45;&gt;Node7 -->
<g id="edge7" class="edge">
<title>Node6&#45;&gt;Node7</title>
<path fill="none" stroke="#191970" d="M595.9098,-56.2455C594.3439,-48.9382 592.1488,-38.6944 590.2224,-29.7046"/>
<polygon fill="#191970" stroke="#191970" points="593.584,-28.6873 588.0663,-19.6427 586.7393,-30.1541 593.584,-28.6873"/>
</g>
<!-- Node8&#45;&gt;Node7 -->
<g id="edge12" class="edge">
<title>Node8&#45;&gt;Node7</title>
<path fill="none" stroke="#191970" d="M391.8984,-56.4753C430.9569,-48.0438 489.3057,-35.0998 549.2743,-20.0949"/>
<polygon fill="#191970" stroke="#191970" points="550.4589,-23.4059 559.3016,-17.5701 548.7497,-16.6178 550.4589,-23.4059"/>
</g>
<!-- Node8&#45;&gt;Node9 -->
<g id="edge9" class="edge">
<title>Node8&#45;&gt;Node9</title>
<path fill="none" stroke="#191970" d="M407.7341,-57.8457C461.4164,-50.1843 541.9885,-37.5819 620.6308,-20.1221"/>
<polygon fill="#191970" stroke="#191970" points="621.7204,-23.4645 630.7085,-17.8552 620.1841,-16.6352 621.7204,-23.4645"/>
</g>
<!-- Node10 -->
<g id="node11" class="node">
<title>Node10</title>
<polygon fill="none" stroke="#bfbfbf" points="50,-.5 50,-19.5 114,-19.5 114,-.5 50,-.5"/>
<text text-anchor="middle" x="82" y="-7.5" font-family="FreeSans.ttf" font-size="10.00" fill="#000000">algorithm</text>
</g>
<!-- Node8&#45;&gt;Node10 -->
<g id="edge10" class="edge">
<title>Node8&#45;&gt;Node10</title>
<path fill="none" stroke="#191970" d="M297.9487,-56.4651C254.712,-47.9392 189.7658,-34.8392 124.2879,-20.2334"/>
<polygon fill="#191970" stroke="#191970" points="124.7262,-16.7448 114.2028,-17.9725 123.1949,-23.5753 124.7262,-16.7448"/>
</g>
<!-- Node11 -->
<g id="node12" class="node">
<title>Node11</title>
<polygon fill="none" stroke="#bfbfbf" points="132,-.5 132,-19.5 174,-19.5 174,-.5 132,-.5"/>
<text text-anchor="middle" x="153" y="-7.5" font-family="FreeSans.ttf" font-size="10.00" fill="#000000">array</text>
</g>
<!-- Node8&#45;&gt;Node11 -->
<g id="edge11" class="edge">
<title>Node8&#45;&gt;Node11</title>
<path fill="none" stroke="#191970" d="M311.023,-56.4456C279.7809,-48.0296 233.1114,-35.1741 184.0952,-20.2424"/>
<polygon fill="#191970" stroke="#191970" points="184.8512,-16.8135 174.2645,-17.2291 182.7997,-23.5061 184.8512,-16.8135"/>
</g>
<!-- Node12 -->
<g id="node13" class="node">
<title>Node12</title>
<polygon fill="none" stroke="#bfbfbf" points="192.5,-.5 192.5,-19.5 245.5,-19.5 245.5,-.5 192.5,-.5"/>
<text text-anchor="middle" x="219" y="-7.5" font-family="FreeSans.ttf" font-size="10.00" fill="#000000">iterator</text>
</g>
<!-- Node8&#45;&gt;Node12 -->
<g id="edge13" class="edge">
<title>Node8&#45;&gt;Node12</title>
<path fill="none" stroke="#191970" d="M324.996,-56.3733C304.3565,-47.3435 273.2842,-33.7494 250.1111,-23.6111"/>
<polygon fill="#191970" stroke="#191970" points="251.2813,-20.3028 240.7169,-19.5011 248.4755,-26.7159 251.2813,-20.3028"/>
</g>
<!-- Node13 -->
<g id="node14" class="node">
<title>Node13</title>
<polygon fill="none" stroke="#bfbfbf" points="264,-.5 264,-19.5 308,-19.5 308,-.5 264,-.5"/>
<text text-anchor="middle" x="286" y="-7.5" font-family="FreeSans.ttf" font-size="10.00" fill="#000000">limits</text>
</g>
<!-- Node8&#45;&gt;Node13 -->
<g id="edge14" class="edge">
<title>Node8&#45;&gt;Node13</title>
<path fill="none" stroke="#191970" d="M336.3746,-56.2455C327.4527,-48.0549 314.512,-36.1749 303.9808,-26.5069"/>
<polygon fill="#191970" stroke="#191970" points="306.2371,-23.8271 296.5036,-19.6427 301.5032,-28.9837 306.2371,-23.8271"/>
</g>
<!-- Node14 -->
<g id="node15" class="node">
<title>Node14</title>
<polygon fill="none" stroke="#bfbfbf" points="326.5,-.5 326.5,-19.5 391.5,-19.5 391.5,-.5 326.5,-.5"/>
<text text-anchor="middle" x="359" y="-7.5" font-family="FreeSans.ttf" font-size="10.00" fill="#000000">stdexcept</text>
</g>
<!-- Node8&#45;&gt;Node14 -->
<g id="edge15" class="edge">
<title>Node8&#45;&gt;Node14</title>
<path fill="none" stroke="#191970" d="M349.0902,-56.2455C350.6561,-48.9382 352.8512,-38.6944 354.7776,-29.7046"/>
<polygon fill="#191970" stroke="#191970" points="358.2607,-30.1541 356.9337,-19.6427 351.416,-28.6873 358.2607,-30.1541"/>
</g>
<!-- Node15 -->
<g id="node16" class="node">
<title>Node15</title>
<polygon fill="none" stroke="#bfbfbf" points="409.5,-.5 409.5,-19.5 478.5,-19.5 478.5,-.5 409.5,-.5"/>
<text text-anchor="middle" x="444" y="-7.5" font-family="FreeSans.ttf" font-size="10.00" fill="#000000">type_traits</text>
</g>
<!-- Node8&#45;&gt;Node15 -->
<g id="edge16" class="edge">
<title>Node8&#45;&gt;Node15</title>
<path fill="none" stroke="#191970" d="M363.8961,-56.2455C378.918,-47.5731 401.1043,-34.7645 418.321,-24.825"/>
<polygon fill="#191970" stroke="#191970" points="420.3871,-27.6737 427.2975,-19.6427 416.8872,-21.6114 420.3871,-27.6737"/>
</g>
<!-- Node16 -->
<g id="node17" class="node">
<title>Node16</title>
<polygon fill="none" stroke="#bfbfbf" points="496.5,-.5 496.5,-19.5 541.5,-19.5 541.5,-.5 496.5,-.5"/>
<text text-anchor="middle" x="519" y="-7.5" font-family="FreeSans.ttf" font-size="10.00" fill="#000000">utility</text>
</g>
<!-- Node8&#45;&gt;Node16 -->
<g id="edge17" class="edge">
<title>Node8&#45;&gt;Node16</title>
<path fill="none" stroke="#191970" d="M376.5679,-56.3733C407.2489,-46.3841 455.0864,-30.8091 486.7309,-20.5062"/>
<polygon fill="#191970" stroke="#191970" points="487.9687,-23.7841 496.3938,-17.3601 485.8016,-17.128 487.9687,-23.7841"/>
</g>
<!-- Node21 -->
<g id="node22" class="node">
<title>Node21</title>
<g id="a_node22"><a xlink:href="ForceVector3_8h.html" target="_top" xlink:title="iDynTree/Core/ForceVector3.h">
<polygon fill="none" stroke="#000000" points="261,-358.5 261,-377.5 421,-377.5 421,-358.5 261,-358.5"/>
<text text-anchor="middle" x="341" y="-365.5" font-family="FreeSans.ttf" font-size="10.00" fill="#000000">iDynTree/Core/ForceVector3.h</text>
</a>
</g>
</g>
<!-- Node20&#45;&gt;Node21 -->
<g id="edge23" class="edge">
<title>Node20&#45;&gt;Node21</title>
<path fill="none" stroke="#191970" d="M434.6662,-414.4554C414.7024,-404.554 388.751,-391.683 369.2285,-382.0004"/>
<polygon fill="#191970" stroke="#191970" points="370.7294,-378.838 360.2156,-377.5303 367.6191,-385.1091 370.7294,-378.838"/>
</g>
<!-- Node20&#45;&gt;Node28 -->
<g id="edge42" class="edge">
<title>Node20&#45;&gt;Node28</title>
<path fill="none" stroke="#191970" d="M461.2818,-414.2348C456.5957,-398.1039 447.0181,-372.9708 430,-358 392.6435,-325.1374 360.2807,-356.0466 324,-322 307.8522,-306.8466 299.1368,-282.8933 294.5883,-264.6922"/>
<polygon fill="#191970" stroke="#191970" points="297.9634,-263.7466 292.3671,-254.7504 291.1319,-265.273 297.9634,-263.7466"/>
</g>
<!-- Node22 -->
<g id="node23" class="node">
<title>Node22</title>
<g id="a_node23"><a xlink:href="GeomVector3_8h.html" target="_top" xlink:title="iDynTree/Core/GeomVector3.h">
<polygon fill="none" stroke="#000000" points="375.5,-297 375.5,-316 538.5,-316 538.5,-297 375.5,-297"/>
<text text-anchor="middle" x="457" y="-304" font-family="FreeSans.ttf" font-size="10.00" fill="#000000">iDynTree/Core/GeomVector3.h</text>
</a>
</g>
</g>
<!-- Node21&#45;&gt;Node22 -->
<g id="edge24" class="edge">
<title>Node21&#45;&gt;Node22</title>
<path fill="none" stroke="#191970" d="M359.125,-358.3906C378.1083,-348.3262 408.1373,-332.4057 429.9307,-320.8514"/>
<polygon fill="#191970" stroke="#191970" points="431.8066,-323.8184 439.0023,-316.0419 428.5277,-317.6338 431.8066,-323.8184"/>
</g>
<!-- Node21&#45;&gt;Node28 -->
<g id="edge41" class="edge">
<title>Node21&#45;&gt;Node28</title>
<path fill="none" stroke="#191970" d="M327.0101,-358.4851C316.1635,-350.2351 301.861,-337.2422 295,-322 286.9314,-304.075 286.0664,-281.7096 287.0059,-264.7891"/>
<polygon fill="#191970" stroke="#191970" points="290.5157,-264.8054 287.8263,-254.5576 283.5381,-264.2459 290.5157,-264.8054"/>
</g>
<!-- Node22&#45;&gt;Node5 -->
<g id="edge25" class="edge">
<title>Node22&#45;&gt;Node5</title>
<path fill="none" stroke="#191970" d="M458.6754,-296.8402C463.7191,-267.76 478.8301,-180.636 485.625,-141.459"/>
<polygon fill="#191970" stroke="#191970" points="489.0807,-142.0152 487.3412,-131.5641 482.1837,-140.8189 489.0807,-142.0152"/>
</g>
<!-- Node23 -->
<g id="node24" class="node">
<title>Node23</title>
<g id="a_node24"><a xlink:href="Rotation_8h.html" target="_top" xlink:title="iDynTree/Core/Rotation.h">
<polygon fill="none" stroke="#000000" points="804.5,-230 804.5,-249 941.5,-249 941.5,-230 804.5,-230"/>
<text text-anchor="middle" x="873" y="-237" font-family="FreeSans.ttf" font-size="10.00" fill="#000000">iDynTree/Core/Rotation.h</text>
</a>
</g>
</g>
<!-- Node22&#45;&gt;Node23 -->
<g id="edge26" class="edge">
<title>Node22&#45;&gt;Node23</title>
<path fill="none" stroke="#191970" d="M516.1609,-296.9717C591.9894,-284.7589 723.2395,-263.6201 803.6735,-250.6656"/>
<polygon fill="#191970" stroke="#191970" points="804.3906,-254.0953 813.7068,-249.0496 803.2775,-247.1843 804.3906,-254.0953"/>
</g>
<!-- Node22&#45;&gt;Node28 -->
<g id="edge40" class="edge">
<title>Node22&#45;&gt;Node28</title>
<path fill="none" stroke="#191970" d="M433.073,-296.9005C408.0623,-286.8663 368.1728,-270.8627 336.8591,-258.2997"/>
<polygon fill="#191970" stroke="#191970" points="338.0265,-254.997 327.4423,-254.5218 335.42,-261.4936 338.0265,-254.997"/>
</g>
<!-- Node23&#45;&gt;Node5 -->
<g id="edge39" class="edge">
<title>Node23&#45;&gt;Node5</title>
<path fill="none" stroke="#191970" d="M837.6472,-229.9474C800.8862,-219.9087 741.7302,-203.4583 691,-188 633.4137,-170.4525 567.1715,-148.4607 526.7032,-134.819"/>
<polygon fill="#191970" stroke="#191970" points="527.5851,-131.4226 516.9909,-131.5384 525.345,-138.0545 527.5851,-131.4226"/>
</g>
<!-- Node23&#45;&gt;Node17 -->
<g id="edge27" class="edge">
<title>Node23&#45;&gt;Node17</title>
<path fill="none" stroke="#191970" d="M880.1272,-229.8329C891.7399,-214.7003 916.1591,-185.3569 943,-168 981.9643,-142.8034 1014.4419,-170.0494 1041,-132 1052.6506,-115.3084 1036.264,-95.5394 1020.6757,-82.0174"/>
<polygon fill="#191970" stroke="#191970" points="1022.7143,-79.1639 1012.7494,-75.5651 1018.2951,-84.5926 1022.7143,-79.1639"/>
</g>
<!-- Node24 -->
<g id="node25" class="node">
<title>Node24</title>
<g id="a_node25"><a xlink:href="RotationRaw_8h.html" target="_top" xlink:title="iDynTree/Core/RotationRaw.h">
<polygon fill="none" stroke="#000000" points="700,-168.5 700,-187.5 858,-187.5 858,-168.5 700,-168.5"/>
<text text-anchor="middle" x="779" y="-175.5" font-family="FreeSans.ttf" font-size="10.00" fill="#000000">iDynTree/Core/RotationRaw.h</text>
</a>
</g>
</g>
<!-- Node23&#45;&gt;Node24 -->
<g id="edge28" class="edge">
<title>Node23&#45;&gt;Node24</title>
<path fill="none" stroke="#191970" d="M858.3125,-229.8906C843.2744,-220.0519 819.6824,-204.6167 802.1333,-193.1351"/>
<polygon fill="#191970" stroke="#191970" points="803.8687,-190.088 793.5844,-187.5419 800.0363,-195.9457 803.8687,-190.088"/>
</g>
<!-- Node27 -->
<g id="node28" class="node">
<title>Node27</title>
<g id="a_node28"><a xlink:href="RotationSemantics_8h.html" target="_top" xlink:title="iDynTree/Core/RotationSemantics.h">
<polygon fill="none" stroke="#000000" points="844,-112.5 844,-131.5 1032,-131.5 1032,-112.5 844,-112.5"/>
<text text-anchor="middle" x="938" y="-119.5" font-family="FreeSans.ttf" font-size="10.00" fill="#000000">iDynTree/Core/RotationSemantics.h</text>
</a>
</g>
</g>
<!-- Node23&#45;&gt;Node27 -->
<g id="edge37" class="edge">
<title>Node23&#45;&gt;Node27</title>
<path fill="none" stroke="#191970" d="M877.816,-229.6716C884.6824,-215.7825 897.8079,-189.6864 910,-168 915.1931,-158.7629 921.2765,-148.688 926.4438,-140.3279"/>
<polygon fill="#191970" stroke="#191970" points="929.4692,-142.0908 931.7923,-131.7538 923.53,-138.3859 929.4692,-142.0908"/>
</g>
<!-- Node24&#45;&gt;Node17 -->
<g id="edge36" class="edge">
<title>Node24&#45;&gt;Node17</title>
<path fill="none" stroke="#191970" d="M784.5618,-168.3453C793.3869,-153.8951 811.9793,-126.766 835,-112 875.9414,-85.7393 931.9755,-74.2344 966.8059,-69.3647"/>
<polygon fill="#191970" stroke="#191970" points="967.4272,-72.8136 976.8945,-68.0575 966.5276,-65.8716 967.4272,-72.8136"/>
</g>
<!-- Node25 -->
<g id="node26" class="node">
<title>Node25</title>
<g id="a_node26"><a xlink:href="MatrixFixSize_8h.html" target="_top" xlink:title="iDynTree/Core/MatrixFixSize.h">
<polygon fill="none" stroke="#000000" points="626.5,-112.5 626.5,-131.5 787.5,-131.5 787.5,-112.5 626.5,-112.5"/>
<text text-anchor="middle" x="707" y="-119.5" font-family="FreeSans.ttf" font-size="10.00" fill="#000000">iDynTree/Core/MatrixFixSize.h</text>
</a>
</g>
</g>
<!-- Node24&#45;&gt;Node25 -->
<g id="edge29" class="edge">
<title>Node24&#45;&gt;Node25</title>
<path fill="none" stroke="#191970" d="M766.4586,-168.2455C755.7213,-159.8943 740.0527,-147.7076 727.4953,-137.9408"/>
<polygon fill="#191970" stroke="#191970" points="729.4401,-135.0194 719.3977,-131.6427 725.1425,-140.5449 729.4401,-135.0194"/>
</g>
<!-- Node25&#45;&gt;Node6 -->
<g id="edge30" class="edge">
<title>Node25&#45;&gt;Node6</title>
<path fill="none" stroke="#191970" d="M688.0136,-112.2455C670.8208,-103.4125 645.2762,-90.2887 625.7868,-80.2758"/>
<polygon fill="#191970" stroke="#191970" points="627.263,-77.0993 616.7688,-75.6427 624.0641,-83.3257 627.263,-77.0993"/>
</g>
<!-- Node25&#45;&gt;Node9 -->
<g id="edge31" class="edge">
<title>Node25&#45;&gt;Node9</title>
<path fill="none" stroke="#191970" d="M716.6774,-112.2652C728.5565,-99.084 745.8654,-75.022 735,-56 725.8306,-39.9471 708.6269,-28.9359 692.7048,-21.7218"/>
<polygon fill="#191970" stroke="#191970" points="693.6177,-18.3112 683.0399,-17.7095 690.9337,-24.7763 693.6177,-18.3112"/>
</g>
<!-- Node25&#45;&gt;Node17 -->
<g id="edge33" class="edge">
<title>Node25&#45;&gt;Node17</title>
<path fill="none" stroke="#191970" d="M756.8648,-112.4369C816.933,-100.917 916.0837,-81.9018 966.8571,-72.1644"/>
<polygon fill="#191970" stroke="#191970" points="967.764,-75.5543 976.9258,-70.2334 966.4456,-68.6796 967.764,-75.5543"/>
</g>
<!-- Node25&#45;&gt;Node18 -->
<g id="edge35" class="edge">
<title>Node25&#45;&gt;Node18</title>
<path fill="none" stroke="#191970" d="M669.4646,-112.4284C635.4608,-103.7286 583.7239,-90.4211 529.9733,-76.2391"/>
<polygon fill="#191970" stroke="#191970" points="530.8355,-72.8469 520.2731,-73.6759 529.0471,-79.6146 530.8355,-72.8469"/>
</g>
<!-- Node25&#45;&gt;Node19 -->
<g id="edge32" class="edge">
<title>Node25&#45;&gt;Node19</title>
<path fill="none" stroke="#191970" d="M705.9549,-112.2455C705.172,-104.9382 704.0744,-94.6944 703.1112,-85.7046"/>
<polygon fill="#191970" stroke="#191970" points="706.5786,-85.2129 702.0331,-75.6427 699.6185,-85.9587 706.5786,-85.2129"/>
</g>
<!-- Node26 -->
<g id="node27" class="node">
<title>Node26</title>
<polygon fill="none" stroke="#bfbfbf" points="1224,-56.5 1224,-75.5 1284,-75.5 1284,-56.5 1224,-56.5"/>
<text text-anchor="middle" x="1254" y="-63.5" font-family="FreeSans.ttf" font-size="10.00" fill="#000000">iostream</text>
</g>
<!-- Node25&#45;&gt;Node26 -->
<g id="edge34" class="edge">
<title>Node25&#45;&gt;Node26</title>
<path fill="none" stroke="#191970" d="M787.7117,-113.737C906.4881,-101.5771 1123.9649,-79.3125 1213.6703,-70.1288"/>
<polygon fill="#191970" stroke="#191970" points="1214.1191,-73.6013 1223.7107,-69.1009 1213.4062,-66.6377 1214.1191,-73.6013"/>
</g>
<!-- Node27&#45;&gt;Node17 -->
<g id="edge38" class="edge">
<title>Node27&#45;&gt;Node17</title>
<path fill="none" stroke="#191970" d="M948.6254,-112.2455C957.5473,-104.0549 970.488,-92.1749 981.0192,-82.5069"/>
<polygon fill="#191970" stroke="#191970" points="983.4968,-84.9837 988.4964,-75.6427 978.7629,-79.8271 983.4968,-84.9837"/>
</g>
<!-- Node29&#45;&gt;Node21 -->
<g id="edge44" class="edge">
<title>Node29&#45;&gt;Node21</title>
<path fill="none" stroke="#191970" d="M309.382,-414.2977C315.1513,-405.8498 322.3716,-395.2773 328.4553,-386.369"/>
<polygon fill="#191970" stroke="#191970" points="331.5259,-388.0788 334.2753,-377.8469 325.7453,-384.1311 331.5259,-388.0788"/>
</g>
<!-- Node29&#45;&gt;Node28 -->
<g id="edge45" class="edge">
<title>Node29&#45;&gt;Node28</title>
<path fill="none" stroke="#191970" d="M279.2146,-414.1477C268.9853,-404.9184 257.5135,-392.2204 252,-378 236.8567,-338.9423 257.9566,-291.4977 274.2507,-263.4968"/>
<polygon fill="#191970" stroke="#191970" points="277.3402,-265.1519 279.5329,-254.7865 271.3548,-261.5222 277.3402,-265.1519"/>
</g>
<!-- Node30&#45;&gt;Node6 -->
<g id="edge57" class="edge">
<title>Node30&#45;&gt;Node6</title>
<path fill="none" stroke="#191970" d="M802.3541,-358.2729C809.8969,-343.1719 821.6098,-313.4873 811,-291 763.5771,-190.488 679.6444,-224.4747 618,-132 608.6726,-118.0076 603.5598,-99.5022 600.8447,-85.6477"/>
<polygon fill="#191970" stroke="#191970" points="604.2808,-84.9765 599.1465,-75.7089 597.3808,-86.1555 604.2808,-84.9765"/>
</g>
<!-- Node30&#45;&gt;Node18 -->
<g id="edge62" class="edge">
<title>Node30&#45;&gt;Node18</title>
<path fill="none" stroke="#191970" d="M797.0311,-358.4198C796.6023,-342.7236 793.6752,-311.2529 778,-291 666.1961,-146.5452 503.9842,-281.4845 399,-132 380.954,-106.3047 420.9596,-87.1161 454.0159,-76.234"/>
<polygon fill="#191970" stroke="#191970" points="455.4759,-79.4449 463.9797,-73.1254 453.3911,-72.7626 455.4759,-79.4449"/>
</g>
<!-- Node30&#45;&gt;Node23 -->
<g id="edge55" class="edge">
<title>Node30&#45;&gt;Node23</title>
<path fill="none" stroke="#191970" d="M811.8576,-358.3921C823.5636,-350.0882 839.4516,-337.0681 849,-322 861.2479,-302.672 867.4349,-276.885 870.4269,-259.3196"/>
<polygon fill="#191970" stroke="#191970" points="873.9355,-259.5239 871.9633,-249.1143 867.0135,-258.4818 873.9355,-259.5239"/>
</g>
<!-- Node30&#45;&gt;Node26 -->
<g id="edge61" class="edge">
<title>Node30&#45;&gt;Node26</title>
<path fill="none" stroke="#191970" d="M877.7856,-358.4745C1037.4285,-338.5524 1378,-290.1198 1378,-239.5 1378,-239.5 1378,-239.5 1378,-178 1378,-129.6674 1325.4768,-96.8067 1288.7974,-79.7513"/>
<polygon fill="#191970" stroke="#191970" points="1289.9511,-76.4336 1279.3925,-75.5579 1287.1004,-82.8269 1289.9511,-76.4336"/>
</g>
<!-- Node30&#45;&gt;Node28 -->
<g id="edge56" class="edge">
<title>Node30&#45;&gt;Node28</title>
<path fill="none" stroke="#191970" d="M716.1939,-366.1167C608.7502,-362.4713 425.4857,-351.9445 366,-322 339.7533,-308.7877 318.0438,-282.489 304.6413,-263.1207"/>
<polygon fill="#191970" stroke="#191970" points="307.5408,-261.1602 299.0815,-254.7814 301.7165,-265.0433 307.5408,-261.1602"/>
</g>
<!-- Node31 -->
<g id="node32" class="node">
<title>Node31</title>
<g id="a_node32"><a xlink:href="Position_8h.html" target="_top" xlink:title="Position.h">
<polygon fill="none" stroke="#000000" points="997.5,-297 997.5,-316 1062.5,-316 1062.5,-297 997.5,-297"/>
<text text-anchor="middle" x="1030" y="-304" font-family="FreeSans.ttf" font-size="10.00" fill="#000000">Position.h</text>
</a>
</g>
</g>
<!-- Node30&#45;&gt;Node31 -->
<g id="edge47" class="edge">
<title>Node30&#45;&gt;Node31</title>
<path fill="none" stroke="#191970" d="M833.1506,-358.4581C874.7742,-347.4716 943.0783,-329.4429 987.2881,-317.7737"/>
<polygon fill="#191970" stroke="#191970" points="988.3811,-321.1052 997.1567,-315.1689 986.5946,-314.337 988.3811,-321.1052"/>
</g>
<!-- Node34 -->
<g id="node35" class="node">
<title>Node34</title>
<g id="a_node35"><a xlink:href="PrivatePreProcessorUtils_8h.html" target="_top" xlink:title="iDynTree/Core/PrivatePre\lProcessorUtils.h">
<polygon fill="none" stroke="#000000" points="507,-224.5 507,-254.5 645,-254.5 645,-224.5 507,-224.5"/>
<text text-anchor="start" x="515" y="-242.5" font-family="FreeSans.ttf" font-size="10.00" fill="#000000">iDynTree/Core/PrivatePre</text>
<text text-anchor="middle" x="576" y="-231.5" font-family="FreeSans.ttf" font-size="10.00" fill="#000000">ProcessorUtils.h</text>
</a>
</g>
</g>
<!-- Node30&#45;&gt;Node34 -->
<g id="edge58" class="edge">
<title>Node30&#45;&gt;Node34</title>
<path fill="none" stroke="#191970" d="M716.3361,-360.0702C664.4561,-353.219 603.5705,-341.3054 586,-322 572.1831,-306.8188 570.6355,-283.0294 571.9871,-264.8894"/>
<polygon fill="#191970" stroke="#191970" points="575.4922,-265.0285 573.083,-254.7112 568.5325,-264.279 575.4922,-265.0285"/>
</g>
<!-- Node35 -->
<g id="node36" class="node">
<title>Node35</title>
<g id="a_node36"><a xlink:href="PrivateSemanticsMacros_8h.html" target="_top" xlink:title="iDynTree/Core/PrivateSemantics\lMacros.h">
<polygon fill="none" stroke="#000000" points="595.5,-291.5 595.5,-321.5 768.5,-321.5 768.5,-291.5 595.5,-291.5"/>
<text text-anchor="start" x="603.5" y="-309.5" font-family="FreeSans.ttf" font-size="10.00" fill="#000000">iDynTree/Core/PrivateSemantics</text>
<text text-anchor="middle" x="682" y="-298.5" font-family="FreeSans.ttf" font-size="10.00" fill="#000000">Macros.h</text>
</a>
</g>
</g>
<!-- Node30&#45;&gt;Node35 -->
<g id="edge59" class="edge">
<title>Node30&#45;&gt;Node35</title>
<path fill="none" stroke="#191970" d="M779.0313,-358.3906C763.0351,-349.8361 739.1277,-337.0509 719.047,-326.3121"/>
<polygon fill="#191970" stroke="#191970" points="720.601,-323.1741 710.1322,-321.5446 717.2998,-329.3469 720.601,-323.1741"/>
</g>
<!-- Node31&#45;&gt;Node17 -->
<g id="edge54" class="edge">
<title>Node31&#45;&gt;Node17</title>
<path fill="none" stroke="#191970" d="M1043.3629,-296.8198C1070.8093,-275.646 1129.9174,-222.7191 1117,-168 1110.6068,-140.9178 1108.5891,-131.7633 1089,-112 1072.695,-95.5501 1049.2781,-83.8346 1030.4176,-76.3445"/>
<polygon fill="#191970" stroke="#191970" points="1031.6238,-73.0588 1021.0318,-72.8101 1029.1568,-79.6097 1031.6238,-73.0588"/>
</g>
<!-- Node31&#45;&gt;Node23 -->
<g id="edge53" class="edge">
<title>Node31&#45;&gt;Node23</title>
<path fill="none" stroke="#191970" d="M1007.5057,-296.9005C980.5747,-285.4077 935.2933,-266.0838 904.7936,-253.068"/>
<polygon fill="#191970" stroke="#191970" points="906.0238,-249.7876 895.4525,-249.0817 903.2763,-256.2259 906.0238,-249.7876"/>
</g>
<!-- Node32 -->
<g id="node33" class="node">
<title>Node32</title>
<g id="a_node33"><a xlink:href="PositionRaw_8h.html" target="_top" xlink:title="iDynTree/Core/PositionRaw.h">
<polygon fill="none" stroke="#000000" points="952,-168.5 952,-187.5 1108,-187.5 1108,-168.5 952,-168.5"/>
<text text-anchor="middle" x="1030" y="-175.5" font-family="FreeSans.ttf" font-size="10.00" fill="#000000">iDynTree/Core/PositionRaw.h</text>
</a>
</g>
</g>
<!-- Node31&#45;&gt;Node32 -->
<g id="edge48" class="edge">
<title>Node31&#45;&gt;Node32</title>
<path fill="none" stroke="#191970" d="M1030,-296.8416C1030,-275.9114 1030,-226.004 1030,-197.9762"/>
<polygon fill="#191970" stroke="#191970" points="1033.5001,-197.7704 1030,-187.7705 1026.5001,-197.7705 1033.5001,-197.7704"/>
</g>
<!-- Node33 -->
<g id="node34" class="node">
<title>Node33</title>
<g id="a_node34"><a xlink:href="PositionSemantics_8h.html" target="_top" xlink:title="iDynTree/Core/PositionSemantics.h">
<polygon fill="none" stroke="#000000" points="1163.5,-168.5 1163.5,-187.5 1350.5,-187.5 1350.5,-168.5 1163.5,-168.5"/>
<text text-anchor="middle" x="1257" y="-175.5" font-family="FreeSans.ttf" font-size="10.00" fill="#000000">iDynTree/Core/PositionSemantics.h</text>
</a>
</g>
</g>
<!-- Node31&#45;&gt;Node33 -->
<g id="edge51" class="edge">
<title>Node31&#45;&gt;Node33</title>
<path fill="none" stroke="#191970" d="M1057.0131,-296.8527C1081.8722,-287.5263 1119.4109,-272.2949 1150,-255 1182.2496,-236.7662 1216.497,-210.8046 1237.3212,-194.1785"/>
<polygon fill="#191970" stroke="#191970" points="1239.7961,-196.6789 1245.3791,-187.6744 1235.3994,-191.2319 1239.7961,-196.6789"/>
</g>
<!-- Node32&#45;&gt;Node5 -->
<g id="edge49" class="edge">
<title>Node32&#45;&gt;Node5</title>
<path fill="none" stroke="#191970" d="M951.9117,-169.9169C853.3629,-159.7159 684.1694,-142.2024 579.9091,-131.4102"/>
<polygon fill="#191970" stroke="#191970" points="580.0218,-127.9032 569.7146,-130.3549 579.301,-134.866 580.0218,-127.9032"/>
</g>
<!-- Node32&#45;&gt;Node17 -->
<g id="edge50" class="edge">
<title>Node32&#45;&gt;Node17</title>
<path fill="none" stroke="#191970" d="M1044.2537,-168.459C1061.1711,-155.8851 1085.7042,-132.9089 1074,-112 1064.732,-95.4433 1046.7997,-84.1236 1030.7935,-76.8569"/>
<polygon fill="#191970" stroke="#191970" points="1031.7478,-73.4628 1021.1709,-72.8454 1029.0543,-79.9238 1031.7478,-73.4628"/>
</g>
<!-- Node33&#45;&gt;Node17 -->
<g id="edge52" class="edge">
<title>Node33&#45;&gt;Node17</title>
<path fill="none" stroke="#191970" d="M1243.775,-168.2786C1224.1583,-154.2304 1185.8048,-128.1702 1150,-112 1110.507,-94.1642 1062.1917,-80.8118 1031.0203,-73.209"/>
<polygon fill="#191970" stroke="#191970" points="1031.6831,-69.769 1021.1438,-70.8529 1030.0587,-76.5779 1031.6831,-69.769"/>
</g>
<!-- Node35&#45;&gt;Node34 -->
<g id="edge60" class="edge">
<title>Node35&#45;&gt;Node34</title>
<path fill="none" stroke="#191970" d="M658.2115,-291.4639C643.5849,-282.2188 624.6417,-270.2452 608.6261,-260.1222"/>
<polygon fill="#191970" stroke="#191970" points="610.3989,-257.1022 600.0758,-254.7177 606.6588,-263.0193 610.3989,-257.1022"/>
</g>
</g>
</svg>
