<?xml version="1.0" encoding="UTF-8" standalone="no"?>
<!DOCTYPE svg PUBLIC "-//W3C//DTD SVG 1.1//EN"
 "http://www.w3.org/Graphics/SVG/1.1/DTD/svg11.dtd">
<!-- Generated by graphviz version 2.40.1 (20161225.0304)
 -->
<!-- Title: AngularForceVector3.cpp Pages: 1 -->
<svg width="1152pt" height="509pt"
 viewBox="0.00 0.00 1152.22 509.00" xmlns="http://www.w3.org/2000/svg" xmlns:xlink="http://www.w3.org/1999/xlink">
<g id="graph0" class="graph" transform="scale(1 1) rotate(0) translate(4 505)">
<title>AngularForceVector3.cpp</title>
<!-- Node0 -->
<g id="node1" class="node">
<title>Node0</title>
<polygon fill="#bfbfbf" stroke="#000000" points="646,-481.5 646,-500.5 783,-500.5 783,-481.5 646,-481.5"/>
<text text-anchor="middle" x="714.5" y="-488.5" font-family="FreeSans.ttf" font-size="10.00" fill="#000000">AngularForceVector3.cpp</text>
</g>
<!-- Node1 -->
<g id="node2" class="node">
<title>Node1</title>
<g id="a_node2"><a xlink:href="AngularForceVector3_8h.html" target="_top" xlink:title="iDynTree/Core/AngularForce\lVector3.h">
<polygon fill="none" stroke="#000000" points="341.5,-414.5 341.5,-444.5 493.5,-444.5 493.5,-414.5 341.5,-414.5"/>
<text text-anchor="start" x="349.5" y="-432.5" font-family="FreeSans.ttf" font-size="10.00" fill="#000000">iDynTree/Core/AngularForce</text>
<text text-anchor="middle" x="417.5" y="-421.5" font-family="FreeSans.ttf" font-size="10.00" fill="#000000">Vector3.h</text>
</a>
</g>
</g>
<!-- Node0&#45;&gt;Node1 -->
<g id="edge1" class="edge">
<title>Node0&#45;&gt;Node1</title>
<path fill="none" stroke="#191970" d="M668.4196,-481.4581C623.5541,-472.1678 554.37,-457.8418 500.0023,-446.5838"/>
<polygon fill="#191970" stroke="#191970" points="500.5343,-443.1198 490.0323,-444.5193 499.1148,-449.9744 500.5343,-443.1198"/>
</g>
<!-- Node25 -->
<g id="node26" class="node">
<title>Node25</title>
<g id="a_node26"><a xlink:href="LinearForceVector3_8h.html" target="_top" xlink:title="iDynTree/Core/LinearForce\lVector3.h">
<polygon fill="none" stroke="#000000" points="523.5,-414.5 523.5,-444.5 667.5,-444.5 667.5,-414.5 523.5,-414.5"/>
<text text-anchor="start" x="531.5" y="-432.5" font-family="FreeSans.ttf" font-size="10.00" fill="#000000">iDynTree/Core/LinearForce</text>
<text text-anchor="middle" x="595.5" y="-421.5" font-family="FreeSans.ttf" font-size="10.00" fill="#000000">Vector3.h</text>
</a>
</g>
</g>
<!-- Node0&#45;&gt;Node25 -->
<g id="edge41" class="edge">
<title>Node0&#45;&gt;Node25</title>
<path fill="none" stroke="#191970" d="M695.9063,-481.3906C679.2791,-472.7976 654.3917,-459.9356 633.555,-449.1671"/>
<polygon fill="#191970" stroke="#191970" points="635.1014,-446.0265 624.6107,-444.5446 631.8875,-452.2451 635.1014,-446.0265"/>
</g>
<!-- Node26 -->
<g id="node27" class="node">
<title>Node26</title>
<g id="a_node27"><a xlink:href="Position_8h.html" target="_top" xlink:title="iDynTree/Core/Position.h">
<polygon fill="none" stroke="#000000" points="770.5,-291.5 770.5,-310.5 906.5,-310.5 906.5,-291.5 770.5,-291.5"/>
<text text-anchor="middle" x="838.5" y="-298.5" font-family="FreeSans.ttf" font-size="10.00" fill="#000000">iDynTree/Core/Position.h</text>
</a>
</g>
</g>
<!-- Node0&#45;&gt;Node26 -->
<g id="edge44" class="edge">
<title>Node0&#45;&gt;Node26</title>
<path fill="none" stroke="#191970" d="M713.6154,-481.4168C711.8366,-456.4583 710.416,-388.5108 742.5,-347 754.3247,-331.7011 772.5188,-321.2239 789.9011,-314.1826"/>
<polygon fill="#191970" stroke="#191970" points="791.2908,-317.3996 799.4287,-310.6155 788.8364,-310.844 791.2908,-317.3996"/>
</g>
<!-- Node29 -->
<g id="node30" class="node">
<title>Node29</title>
<g id="a_node30"><a xlink:href="PrivatePreProcessorUtils_8h.html" target="_top" xlink:title="iDynTree/Core/PrivatePre\lProcessorUtils.h">
<polygon fill="none" stroke="#000000" points="751.5,-347.5 751.5,-377.5 889.5,-377.5 889.5,-347.5 751.5,-347.5"/>
<text text-anchor="start" x="759.5" y="-365.5" font-family="FreeSans.ttf" font-size="10.00" fill="#000000">iDynTree/Core/PrivatePre</text>
<text text-anchor="middle" x="820.5" y="-354.5" font-family="FreeSans.ttf" font-size="10.00" fill="#000000">ProcessorUtils.h</text>
</a>
</g>
</g>
<!-- Node0&#45;&gt;Node29 -->
<g id="edge52" class="edge">
<title>Node0&#45;&gt;Node29</title>
<path fill="none" stroke="#191970" d="M717.8439,-481.191C723.4546,-465.7187 735.9036,-435.2274 753.5,-414 763.0685,-402.457 775.6747,-391.9229 787.3685,-383.4316"/>
<polygon fill="#191970" stroke="#191970" points="789.4798,-386.226 795.6656,-377.6245 785.4659,-380.4911 789.4798,-386.226"/>
</g>
<!-- Node30 -->
<g id="node31" class="node">
<title>Node30</title>
<g id="a_node31"><a xlink:href="PrivateSemanticsMacros_8h.html" target="_top" xlink:title="iDynTree/Core/PrivateSemantics\lMacros.h">
<polygon fill="none" stroke="#000000" points="762,-414.5 762,-444.5 935,-444.5 935,-414.5 762,-414.5"/>
<text text-anchor="start" x="770" y="-432.5" font-family="FreeSans.ttf" font-size="10.00" fill="#000000">iDynTree/Core/PrivateSemantics</text>
<text text-anchor="middle" x="848.5" y="-421.5" font-family="FreeSans.ttf" font-size="10.00" fill="#000000">Macros.h</text>
</a>
</g>
</g>
<!-- Node0&#45;&gt;Node30 -->
<g id="edge53" class="edge">
<title>Node0&#45;&gt;Node30</title>
<path fill="none" stroke="#191970" d="M735.4375,-481.3906C754.4124,-472.682 782.9407,-459.5888 806.5926,-448.7336"/>
<polygon fill="#191970" stroke="#191970" points="808.0913,-451.8968 815.7199,-444.5446 805.1715,-445.5349 808.0913,-451.8968"/>
</g>
<!-- Node31 -->
<g id="node32" class="node">
<title>Node31</title>
<polygon fill="none" stroke="#bfbfbf" points="953,-420 953,-439 1030,-439 1030,-420 953,-420"/>
<text text-anchor="middle" x="991.5" y="-427" font-family="FreeSans.ttf" font-size="10.00" fill="#000000">Eigen/Dense</text>
</g>
<!-- Node0&#45;&gt;Node31 -->
<g id="edge55" class="edge">
<title>Node0&#45;&gt;Node31</title>
<path fill="none" stroke="#191970" d="M772.1272,-481.473C818.9172,-473.2601 886.4236,-460.3237 944.5,-445 947.8412,-444.1184 951.2927,-443.1312 954.7372,-442.0934"/>
<polygon fill="#191970" stroke="#191970" points="955.8379,-445.4164 964.3293,-439.0802 953.7399,-438.7381 955.8379,-445.4164"/>
</g>
<!-- Node2 -->
<g id="node3" class="node">
<title>Node2</title>
<g id="a_node3"><a xlink:href="ForceVector3_8h.html" target="_top" xlink:title="iDynTree/Core/ForceVector3.h">
<polygon fill="none" stroke="#000000" points="420.5,-353 420.5,-372 580.5,-372 580.5,-353 420.5,-353"/>
<text text-anchor="middle" x="500.5" y="-360" font-family="FreeSans.ttf" font-size="10.00" fill="#000000">iDynTree/Core/ForceVector3.h</text>
</a>
</g>
</g>
<!-- Node1&#45;&gt;Node2 -->
<g id="edge2" class="edge">
<title>Node1&#45;&gt;Node2</title>
<path fill="none" stroke="#191970" d="M436.334,-414.2967C449.5169,-403.6551 467.1015,-389.4602 480.5284,-378.6217"/>
<polygon fill="#191970" stroke="#191970" points="483.0805,-381.0596 488.6632,-372.055 478.6836,-375.6128 483.0805,-381.0596"/>
</g>
<!-- Node5 -->
<g id="node6" class="node">
<title>Node5</title>
<g id="a_node6"><a xlink:href="Utils_8h.html" target="_top" xlink:title="iDynTree/Core/Utils.h">
<polygon fill="none" stroke="#000000" points="128,-56.5 128,-75.5 247,-75.5 247,-56.5 128,-56.5"/>
<text text-anchor="middle" x="187.5" y="-63.5" font-family="FreeSans.ttf" font-size="10.00" fill="#000000">iDynTree/Core/Utils.h</text>
</a>
</g>
</g>
<!-- Node1&#45;&gt;Node5 -->
<g id="edge40" class="edge">
<title>Node1&#45;&gt;Node5</title>
<path fill="none" stroke="#191970" d="M355.2648,-414.41C272.2188,-392.4255 135.5,-348.9507 135.5,-301 135.5,-301 135.5,-301 135.5,-178 135.5,-141.9842 157.8945,-105.0048 173.2908,-83.8372"/>
<polygon fill="#191970" stroke="#191970" points="176.1405,-85.8714 179.375,-75.7823 170.5549,-81.6522 176.1405,-85.8714"/>
</g>
<!-- Node24 -->
<g id="node25" class="node">
<title>Node24</title>
<g id="a_node25"><a xlink:href="PrivateMotionForceVertorAssociations_8h.html" target="_top" xlink:title="iDynTree/Core/PrivateMotion\lForceVertorAssociations.h">
<polygon fill="none" stroke="#000000" points="336,-224.5 336,-254.5 491,-254.5 491,-224.5 336,-224.5"/>
<text text-anchor="start" x="344" y="-242.5" font-family="FreeSans.ttf" font-size="10.00" fill="#000000">iDynTree/Core/PrivateMotion</text>
<text text-anchor="middle" x="413.5" y="-231.5" font-family="FreeSans.ttf" font-size="10.00" fill="#000000">ForceVertorAssociations.h</text>
</a>
</g>
</g>
<!-- Node1&#45;&gt;Node24 -->
<g id="edge39" class="edge">
<title>Node1&#45;&gt;Node24</title>
<path fill="none" stroke="#191970" d="M415.2486,-414.217C413.8585,-403.9922 412.2095,-390.2214 411.5,-378 409.2114,-338.5794 410.6815,-292.7477 412.0301,-264.9476"/>
<polygon fill="#191970" stroke="#191970" points="415.5292,-265.0549 412.5517,-254.8871 408.5386,-264.6924 415.5292,-265.0549"/>
</g>
<!-- Node3 -->
<g id="node4" class="node">
<title>Node3</title>
<g id="a_node4"><a xlink:href="GeomVector3_8h.html" target="_top" xlink:title="iDynTree/Core/GeomVector3.h">
<polygon fill="none" stroke="#000000" points="201,-291.5 201,-310.5 364,-310.5 364,-291.5 201,-291.5"/>
<text text-anchor="middle" x="282.5" y="-298.5" font-family="FreeSans.ttf" font-size="10.00" fill="#000000">iDynTree/Core/GeomVector3.h</text>
</a>
</g>
</g>
<!-- Node2&#45;&gt;Node3 -->
<g id="edge3" class="edge">
<title>Node2&#45;&gt;Node3</title>
<path fill="none" stroke="#191970" d="M466.4375,-352.8906C428.6023,-342.2169 367.4194,-324.9566 326.1115,-313.3033"/>
<polygon fill="#191970" stroke="#191970" points="326.898,-309.8886 316.3233,-310.5419 324.9973,-316.6256 326.898,-309.8886"/>
</g>
<!-- Node2&#45;&gt;Node24 -->
<g id="edge38" class="edge">
<title>Node2&#45;&gt;Node24</title>
<path fill="none" stroke="#191970" d="M493.6733,-352.8484C480.0825,-333.6339 449.2984,-290.1115 430.0755,-262.9344"/>
<polygon fill="#191970" stroke="#191970" points="432.9092,-260.8795 424.277,-254.7365 427.1943,-264.9218 432.9092,-260.8795"/>
</g>
<!-- Node4 -->
<g id="node5" class="node">
<title>Node4</title>
<g id="a_node5"><a xlink:href="VectorFixSize_8h.html" target="_top" xlink:title="iDynTree/Core/VectorFixSize.h">
<polygon fill="none" stroke="#000000" points="202,-112.5 202,-131.5 363,-131.5 363,-112.5 202,-112.5"/>
<text text-anchor="middle" x="282.5" y="-119.5" font-family="FreeSans.ttf" font-size="10.00" fill="#000000">iDynTree/Core/VectorFixSize.h</text>
</a>
</g>
</g>
<!-- Node3&#45;&gt;Node4 -->
<g id="edge4" class="edge">
<title>Node3&#45;&gt;Node4</title>
<path fill="none" stroke="#191970" d="M282.5,-291.3762C282.5,-263.2097 282.5,-180.5126 282.5,-142.0713"/>
<polygon fill="#191970" stroke="#191970" points="286.0001,-141.6714 282.5,-131.6714 279.0001,-141.6714 286.0001,-141.6714"/>
</g>
<!-- Node3&#45;&gt;Node5 -->
<g id="edge37" class="edge">
<title>Node3&#45;&gt;Node5</title>
<path fill="none" stroke="#191970" d="M275.469,-291.3426C257.7807,-266.4468 211.4945,-197.4442 192.5,-132 188.1399,-116.9776 187.0029,-99.27 186.8942,-85.9803"/>
<polygon fill="#191970" stroke="#191970" points="190.3979,-85.6552 187.0081,-75.6173 183.3983,-85.5782 190.3979,-85.6552"/>
</g>
<!-- Node19 -->
<g id="node20" class="node">
<title>Node19</title>
<g id="a_node20"><a xlink:href="Rotation_8h.html" target="_top" xlink:title="iDynTree/Core/Rotation.h">
<polygon fill="none" stroke="#000000" points="530,-230 530,-249 667,-249 667,-230 530,-230"/>
<text text-anchor="middle" x="598.5" y="-237" font-family="FreeSans.ttf" font-size="10.00" fill="#000000">iDynTree/Core/Rotation.h</text>
</a>
</g>
</g>
<!-- Node3&#45;&gt;Node19 -->
<g id="edge21" class="edge">
<title>Node3&#45;&gt;Node19</title>
<path fill="none" stroke="#191970" d="M331.5283,-291.4581C387.6558,-280.5345 479.5547,-262.6492 539.5396,-250.9749"/>
<polygon fill="#191970" stroke="#191970" points="540.4695,-254.3597 549.6167,-249.0137 539.1322,-247.4886 540.4695,-254.3597"/>
</g>
<!-- Node3&#45;&gt;Node24 -->
<g id="edge36" class="edge">
<title>Node3&#45;&gt;Node24</title>
<path fill="none" stroke="#191970" d="M302.9688,-291.3906C321.4367,-282.7205 349.1618,-269.7046 372.2236,-258.8779"/>
<polygon fill="#191970" stroke="#191970" points="373.8891,-261.9625 381.4538,-254.5446 370.9143,-255.6261 373.8891,-261.9625"/>
</g>
<!-- Node4&#45;&gt;Node5 -->
<g id="edge5" class="edge">
<title>Node4&#45;&gt;Node5</title>
<path fill="none" stroke="#191970" d="M265.9523,-112.2455C251.2401,-103.5731 229.5112,-90.7645 212.6495,-80.825"/>
<polygon fill="#191970" stroke="#191970" points="214.2502,-77.7057 203.8581,-75.6427 210.6954,-83.736 214.2502,-77.7057"/>
</g>
<!-- Node7 -->
<g id="node8" class="node">
<title>Node7</title>
<g id="a_node8"><a xlink:href="Span_8h.html" target="_top" xlink:title="iDynTree/Core/Span.h">
<polygon fill="none" stroke="#000000" points="272,-56.5 272,-75.5 393,-75.5 393,-56.5 272,-56.5"/>
<text text-anchor="middle" x="332.5" y="-63.5" font-family="FreeSans.ttf" font-size="10.00" fill="#000000">iDynTree/Core/Span.h</text>
</a>
</g>
</g>
<!-- Node4&#45;&gt;Node7 -->
<g id="edge7" class="edge">
<title>Node4&#45;&gt;Node7</title>
<path fill="none" stroke="#191970" d="M291.2093,-112.2455C298.3073,-104.2958 308.5084,-92.8706 316.995,-83.3656"/>
<polygon fill="#191970" stroke="#191970" points="319.8411,-85.4331 323.8905,-75.6427 314.6195,-80.771 319.8411,-85.4331"/>
</g>
<!-- Node8 -->
<g id="node9" class="node">
<title>Node8</title>
<polygon fill="none" stroke="#bfbfbf" points="580.5,-.5 580.5,-19.5 632.5,-19.5 632.5,-.5 580.5,-.5"/>
<text text-anchor="middle" x="606.5" y="-7.5" font-family="FreeSans.ttf" font-size="10.00" fill="#000000">cassert</text>
</g>
<!-- Node4&#45;&gt;Node8 -->
<g id="edge19" class="edge">
<title>Node4&#45;&gt;Node8</title>
<path fill="none" stroke="#191970" d="M308.6728,-112.3791C332.9003,-103.3563 369.8483,-89.2981 401.5,-76 421.3041,-67.6796 425.3396,-63.4155 445.5,-56 445.8783,-55.8609 523.1128,-33.8059 570.4572,-20.2892"/>
<polygon fill="#191970" stroke="#191970" points="571.699,-23.5746 580.354,-17.4637 569.7773,-16.8435 571.699,-23.5746"/>
</g>
<!-- Node16 -->
<g id="node17" class="node">
<title>Node16</title>
<polygon fill="none" stroke="#bfbfbf" points="774.5,-56.5 774.5,-75.5 818.5,-75.5 818.5,-56.5 774.5,-56.5"/>
<text text-anchor="middle" x="796.5" y="-63.5" font-family="FreeSans.ttf" font-size="10.00" fill="#000000">string</text>
</g>
<!-- Node4&#45;&gt;Node16 -->
<g id="edge17" class="edge">
<title>Node4&#45;&gt;Node16</title>
<path fill="none" stroke="#191970" d="M363.4515,-112.9915C366.5063,-112.6559 369.5307,-112.3245 372.5,-112 521.3598,-95.7316 558.6503,-92.3601 707.5,-76 726.1372,-73.9516 746.9638,-71.6142 763.7821,-69.7145"/>
<polygon fill="#191970" stroke="#191970" points="764.6488,-73.1388 774.1919,-68.5368 763.8618,-66.1832 764.6488,-73.1388"/>
</g>
<!-- Node17 -->
<g id="node18" class="node">
<title>Node17</title>
<polygon fill="none" stroke="#bfbfbf" points="524.5,-56.5 524.5,-75.5 580.5,-75.5 580.5,-56.5 524.5,-56.5"/>
<text text-anchor="middle" x="552.5" y="-63.5" font-family="FreeSans.ttf" font-size="10.00" fill="#000000">sstream</text>
</g>
<!-- Node4&#45;&gt;Node17 -->
<g id="edge18" class="edge">
<title>Node4&#45;&gt;Node17</title>
<path fill="none" stroke="#191970" d="M334.5069,-112.4814C381.4377,-103.693 452.2965,-89.9296 513.5,-76 513.8323,-75.9244 514.166,-75.848 514.5011,-75.771"/>
<polygon fill="#191970" stroke="#191970" points="515.516,-79.1269 524.4253,-73.3932 513.885,-72.3196 515.516,-79.1269"/>
</g>
<!-- Node18 -->
<g id="node19" class="node">
<title>Node18</title>
<polygon fill="none" stroke="#bfbfbf" points="454.5,-56.5 454.5,-75.5 504.5,-75.5 504.5,-56.5 454.5,-56.5"/>
<text text-anchor="middle" x="479.5" y="-63.5" font-family="FreeSans.ttf" font-size="10.00" fill="#000000">cstring</text>
</g>
<!-- Node4&#45;&gt;Node18 -->
<g id="edge20" class="edge">
<title>Node4&#45;&gt;Node18</title>
<path fill="none" stroke="#191970" d="M316.3655,-112.3733C352.2641,-102.1686 408.6696,-86.1345 444.8599,-75.8469"/>
<polygon fill="#191970" stroke="#191970" points="445.8356,-79.2083 454.4975,-73.1073 443.9216,-72.4751 445.8356,-79.2083"/>
</g>
<!-- Node6 -->
<g id="node7" class="node">
<title>Node6</title>
<polygon fill="none" stroke="#bfbfbf" points="0,-.5 0,-19.5 53,-19.5 53,-.5 0,-.5"/>
<text text-anchor="middle" x="26.5" y="-7.5" font-family="FreeSans.ttf" font-size="10.00" fill="#000000">cstddef</text>
</g>
<!-- Node5&#45;&gt;Node6 -->
<g id="edge6" class="edge">
<title>Node5&#45;&gt;Node6</title>
<path fill="none" stroke="#191970" d="M159.8231,-56.3733C132.9248,-47.0173 91.9389,-32.7614 62.5135,-22.5264"/>
<polygon fill="#191970" stroke="#191970" points="63.6095,-19.202 53.0147,-19.2225 61.3098,-25.8135 63.6095,-19.202"/>
</g>
<!-- Node7&#45;&gt;Node6 -->
<g id="edge11" class="edge">
<title>Node7&#45;&gt;Node6</title>
<path fill="none" stroke="#191970" d="M271.8497,-57.6596C218.942,-49.9407 139.9708,-37.3543 63.0333,-20.178"/>
<polygon fill="#191970" stroke="#191970" points="63.7005,-16.7406 53.1748,-17.9489 62.1567,-23.5682 63.7005,-16.7406"/>
</g>
<!-- Node7&#45;&gt;Node8 -->
<g id="edge8" class="edge">
<title>Node7&#45;&gt;Node8</title>
<path fill="none" stroke="#191970" d="M389.7849,-56.4373C436.1125,-48.3713 503.1998,-35.943 570.2953,-20.1412"/>
<polygon fill="#191970" stroke="#191970" points="571.2746,-23.506 580.1923,-17.7854 569.6536,-16.6962 571.2746,-23.506"/>
</g>
<!-- Node9 -->
<g id="node10" class="node">
<title>Node9</title>
<polygon fill="none" stroke="#bfbfbf" points="304.5,-.5 304.5,-19.5 368.5,-19.5 368.5,-.5 304.5,-.5"/>
<text text-anchor="middle" x="336.5" y="-7.5" font-family="FreeSans.ttf" font-size="10.00" fill="#000000">algorithm</text>
</g>
<!-- Node7&#45;&gt;Node9 -->
<g id="edge9" class="edge">
<title>Node7&#45;&gt;Node9</title>
<path fill="none" stroke="#191970" d="M333.1967,-56.2455C333.7187,-48.9382 334.4504,-38.6944 335.0925,-29.7046"/>
<polygon fill="#191970" stroke="#191970" points="338.5898,-29.8667 335.8112,-19.6427 331.6076,-29.3679 338.5898,-29.8667"/>
</g>
<!-- Node10 -->
<g id="node11" class="node">
<title>Node10</title>
<polygon fill="none" stroke="#bfbfbf" points="386.5,-.5 386.5,-19.5 428.5,-19.5 428.5,-.5 386.5,-.5"/>
<text text-anchor="middle" x="407.5" y="-7.5" font-family="FreeSans.ttf" font-size="10.00" fill="#000000">array</text>
</g>
<!-- Node7&#45;&gt;Node10 -->
<g id="edge10" class="edge">
<title>Node7&#45;&gt;Node10</title>
<path fill="none" stroke="#191970" d="M345.564,-56.2455C356.8562,-47.814 373.3845,-35.4729 386.5271,-25.6598"/>
<polygon fill="#191970" stroke="#191970" points="388.6669,-28.4301 394.5857,-19.6427 384.4789,-22.8211 388.6669,-28.4301"/>
</g>
<!-- Node11 -->
<g id="node12" class="node">
<title>Node11</title>
<polygon fill="none" stroke="#bfbfbf" points="447,-.5 447,-19.5 500,-19.5 500,-.5 447,-.5"/>
<text text-anchor="middle" x="473.5" y="-7.5" font-family="FreeSans.ttf" font-size="10.00" fill="#000000">iterator</text>
</g>
<!-- Node7&#45;&gt;Node11 -->
<g id="edge12" class="edge">
<title>Node7&#45;&gt;Node11</title>
<path fill="none" stroke="#191970" d="M356.7388,-56.3733C379.7789,-47.2226 414.6214,-33.3844 440.2501,-23.2057"/>
<polygon fill="#191970" stroke="#191970" points="441.5756,-26.4452 449.5775,-19.5011 438.9918,-19.9395 441.5756,-26.4452"/>
</g>
<!-- Node12 -->
<g id="node13" class="node">
<title>Node12</title>
<polygon fill="none" stroke="#bfbfbf" points="518.5,-.5 518.5,-19.5 562.5,-19.5 562.5,-.5 518.5,-.5"/>
<text text-anchor="middle" x="540.5" y="-7.5" font-family="FreeSans.ttf" font-size="10.00" fill="#000000">limits</text>
</g>
<!-- Node7&#45;&gt;Node12 -->
<g id="edge13" class="edge">
<title>Node7&#45;&gt;Node12</title>
<path fill="none" stroke="#191970" d="M371.0959,-56.4704C406.85,-47.5105 461.4445,-33.4936 508.5,-20 508.5979,-19.9719 508.696,-19.9438 508.7942,-19.9155"/>
<polygon fill="#191970" stroke="#191970" points="509.5743,-23.3351 518.1609,-17.1286 507.578,-16.6258 509.5743,-23.3351"/>
</g>
<!-- Node13 -->
<g id="node14" class="node">
<title>Node13</title>
<polygon fill="none" stroke="#bfbfbf" points="71,-.5 71,-19.5 136,-19.5 136,-.5 71,-.5"/>
<text text-anchor="middle" x="103.5" y="-7.5" font-family="FreeSans.ttf" font-size="10.00" fill="#000000">stdexcept</text>
</g>
<!-- Node7&#45;&gt;Node13 -->
<g id="edge14" class="edge">
<title>Node7&#45;&gt;Node13</title>
<path fill="none" stroke="#191970" d="M293.3937,-56.4369C252.4429,-46.4227 188.3306,-30.7446 146.1133,-20.4207"/>
<polygon fill="#191970" stroke="#191970" points="146.6876,-16.9581 136.1424,-17.9824 145.0247,-23.7577 146.6876,-16.9581"/>
</g>
<!-- Node14 -->
<g id="node15" class="node">
<title>Node14</title>
<polygon fill="none" stroke="#bfbfbf" points="154,-.5 154,-19.5 223,-19.5 223,-.5 154,-.5"/>
<text text-anchor="middle" x="188.5" y="-7.5" font-family="FreeSans.ttf" font-size="10.00" fill="#000000">type_traits</text>
</g>
<!-- Node7&#45;&gt;Node14 -->
<g id="edge15" class="edge">
<title>Node7&#45;&gt;Node14</title>
<path fill="none" stroke="#191970" d="M307.7455,-56.3733C284.2151,-47.2226 248.6313,-33.3844 222.4574,-23.2057"/>
<polygon fill="#191970" stroke="#191970" points="223.5201,-19.8636 212.9315,-19.5011 220.9829,-26.3877 223.5201,-19.8636"/>
</g>
<!-- Node15 -->
<g id="node16" class="node">
<title>Node15</title>
<polygon fill="none" stroke="#bfbfbf" points="241,-.5 241,-19.5 286,-19.5 286,-.5 241,-.5"/>
<text text-anchor="middle" x="263.5" y="-7.5" font-family="FreeSans.ttf" font-size="10.00" fill="#000000">utility</text>
</g>
<!-- Node7&#45;&gt;Node15 -->
<g id="edge16" class="edge">
<title>Node7&#45;&gt;Node15</title>
<path fill="none" stroke="#191970" d="M320.4811,-56.2455C310.2902,-47.9746 295.4638,-35.9416 283.4893,-26.2232"/>
<polygon fill="#191970" stroke="#191970" points="285.3514,-23.2268 275.3812,-19.6427 280.9402,-28.662 285.3514,-23.2268"/>
</g>
<!-- Node19&#45;&gt;Node4 -->
<g id="edge35" class="edge">
<title>Node19&#45;&gt;Node4</title>
<path fill="none" stroke="#191970" d="M572.9081,-229.984C516.7018,-209.0845 382.3727,-159.1362 318.0333,-135.2125"/>
<polygon fill="#191970" stroke="#191970" points="318.9237,-131.8095 308.3308,-131.6048 316.484,-138.3706 318.9237,-131.8095"/>
</g>
<!-- Node19&#45;&gt;Node16 -->
<g id="edge22" class="edge">
<title>Node19&#45;&gt;Node16</title>
<path fill="none" stroke="#191970" d="M632.9184,-229.9297C675.649,-216.0547 746.9807,-185.9166 780.5,-132 789.1566,-118.0757 793.1297,-99.8038 794.9532,-86.0165"/>
<polygon fill="#191970" stroke="#191970" points="798.4746,-85.9939 796.035,-75.6837 791.5127,-85.2649 798.4746,-85.9939"/>
</g>
<!-- Node20 -->
<g id="node21" class="node">
<title>Node20</title>
<g id="a_node21"><a xlink:href="RotationRaw_8h.html" target="_top" xlink:title="iDynTree/Core/RotationRaw.h">
<polygon fill="none" stroke="#000000" points="546.5,-168.5 546.5,-187.5 704.5,-187.5 704.5,-168.5 546.5,-168.5"/>
<text text-anchor="middle" x="625.5" y="-175.5" font-family="FreeSans.ttf" font-size="10.00" fill="#000000">iDynTree/Core/RotationRaw.h</text>
</a>
</g>
</g>
<!-- Node19&#45;&gt;Node20 -->
<g id="edge23" class="edge">
<title>Node19&#45;&gt;Node20</title>
<path fill="none" stroke="#191970" d="M602.7188,-229.8906C606.5796,-221.0965 612.4034,-207.8312 617.1961,-196.9145"/>
<polygon fill="#191970" stroke="#191970" points="620.4066,-198.3083 621.2218,-187.7449 613.9971,-195.4943 620.4066,-198.3083"/>
</g>
<!-- Node23 -->
<g id="node24" class="node">
<title>Node23</title>
<g id="a_node24"><a xlink:href="RotationSemantics_8h.html" target="_top" xlink:title="iDynTree/Core/RotationSemantics.h">
<polygon fill="none" stroke="#000000" points="381.5,-112.5 381.5,-131.5 569.5,-131.5 569.5,-112.5 381.5,-112.5"/>
<text text-anchor="middle" x="475.5" y="-119.5" font-family="FreeSans.ttf" font-size="10.00" fill="#000000">iDynTree/Core/RotationSemantics.h</text>
</a>
</g>
</g>
<!-- Node19&#45;&gt;Node23 -->
<g id="edge32" class="edge">
<title>Node19&#45;&gt;Node23</title>
<path fill="none" stroke="#191970" d="M585.9875,-229.6427C573.3961,-219.5619 553.5906,-203.2596 537.5,-188 520.874,-172.2327 503.0827,-153.0257 490.8421,-139.4066"/>
<polygon fill="#191970" stroke="#191970" points="493.2652,-136.8649 483.998,-131.7296 488.0401,-141.5231 493.2652,-136.8649"/>
</g>
<!-- Node20&#45;&gt;Node16 -->
<g id="edge31" class="edge">
<title>Node20&#45;&gt;Node16</title>
<path fill="none" stroke="#191970" d="M679.7473,-168.4923C705.7748,-161.7645 736.0892,-150.5224 758.5,-132 773.4257,-119.6639 783.7105,-99.842 789.7795,-85.1366"/>
<polygon fill="#191970" stroke="#191970" points="793.1568,-86.1037 793.4597,-75.5132 786.6186,-83.6033 793.1568,-86.1037"/>
</g>
<!-- Node21 -->
<g id="node22" class="node">
<title>Node21</title>
<g id="a_node22"><a xlink:href="MatrixFixSize_8h.html" target="_top" xlink:title="iDynTree/Core/MatrixFixSize.h">
<polygon fill="none" stroke="#000000" points="588,-112.5 588,-131.5 749,-131.5 749,-112.5 588,-112.5"/>
<text text-anchor="middle" x="668.5" y="-119.5" font-family="FreeSans.ttf" font-size="10.00" fill="#000000">iDynTree/Core/MatrixFixSize.h</text>
</a>
</g>
</g>
<!-- Node20&#45;&gt;Node21 -->
<g id="edge24" class="edge">
<title>Node20&#45;&gt;Node21</title>
<path fill="none" stroke="#191970" d="M632.99,-168.2455C639.0326,-160.3761 647.6903,-149.101 654.9441,-139.6542"/>
<polygon fill="#191970" stroke="#191970" points="657.7815,-141.7058 661.0958,-131.6427 652.2295,-137.4426 657.7815,-141.7058"/>
</g>
<!-- Node21&#45;&gt;Node5 -->
<g id="edge25" class="edge">
<title>Node21&#45;&gt;Node5</title>
<path fill="none" stroke="#191970" d="M587.5807,-112.9187C478.3934,-100.6515 293.8737,-79.8685 262.5,-76 260.797,-75.79 259.0725,-75.5754 257.3332,-75.3572"/>
<polygon fill="#191970" stroke="#191970" points="257.617,-71.8652 247.2553,-74.0755 256.7338,-78.8093 257.617,-71.8652"/>
</g>
<!-- Node21&#45;&gt;Node8 -->
<g id="edge26" class="edge">
<title>Node21&#45;&gt;Node8</title>
<path fill="none" stroke="#191970" d="M658.3303,-112.2338C649.6658,-103.4428 637.3976,-89.8166 629.5,-76 621.1375,-61.3701 615.0794,-43.1902 611.2865,-29.6174"/>
<polygon fill="#191970" stroke="#191970" points="614.6537,-28.6595 608.7296,-19.8757 607.8831,-30.4367 614.6537,-28.6595"/>
</g>
<!-- Node21&#45;&gt;Node16 -->
<g id="edge28" class="edge">
<title>Node21&#45;&gt;Node16</title>
<path fill="none" stroke="#191970" d="M690.504,-112.3733C711.1435,-103.3435 742.2158,-89.7494 765.3889,-79.6111"/>
<polygon fill="#191970" stroke="#191970" points="767.0245,-82.7159 774.7831,-75.5011 764.2187,-76.3028 767.0245,-82.7159"/>
</g>
<!-- Node21&#45;&gt;Node17 -->
<g id="edge30" class="edge">
<title>Node21&#45;&gt;Node17</title>
<path fill="none" stroke="#191970" d="M648.5589,-112.3733C630.0214,-103.4241 602.1972,-89.9917 581.2587,-79.8835"/>
<polygon fill="#191970" stroke="#191970" points="582.7081,-76.6967 572.1809,-75.5011 579.6648,-83.0006 582.7081,-76.6967"/>
</g>
<!-- Node21&#45;&gt;Node18 -->
<g id="edge27" class="edge">
<title>Node21&#45;&gt;Node18</title>
<path fill="none" stroke="#191970" d="M636.0097,-112.3733C602.1004,-102.3261 549.1193,-86.6279 514.3543,-76.3272"/>
<polygon fill="#191970" stroke="#191970" points="515.2098,-72.9303 504.6275,-73.4452 513.2211,-79.6419 515.2098,-72.9303"/>
</g>
<!-- Node22 -->
<g id="node23" class="node">
<title>Node22</title>
<polygon fill="none" stroke="#bfbfbf" points="638.5,-56.5 638.5,-75.5 698.5,-75.5 698.5,-56.5 638.5,-56.5"/>
<text text-anchor="middle" x="668.5" y="-63.5" font-family="FreeSans.ttf" font-size="10.00" fill="#000000">iostream</text>
</g>
<!-- Node21&#45;&gt;Node22 -->
<g id="edge29" class="edge">
<title>Node21&#45;&gt;Node22</title>
<path fill="none" stroke="#191970" d="M668.5,-112.2455C668.5,-104.9382 668.5,-94.6944 668.5,-85.7046"/>
<polygon fill="#191970" stroke="#191970" points="672.0001,-85.6426 668.5,-75.6427 665.0001,-85.6427 672.0001,-85.6426"/>
</g>
<!-- Node23&#45;&gt;Node5 -->
<g id="edge34" class="edge">
<title>Node23&#45;&gt;Node5</title>
<path fill="none" stroke="#191970" d="M426.3183,-112.4369C376.5116,-102.7522 299.4615,-87.7703 246.4212,-77.4569"/>
<polygon fill="#191970" stroke="#191970" points="246.9631,-73.9968 236.4789,-75.5237 245.627,-80.8681 246.9631,-73.9968"/>
</g>
<!-- Node23&#45;&gt;Node16 -->
<g id="edge33" class="edge">
<title>Node23&#45;&gt;Node16</title>
<path fill="none" stroke="#191970" d="M530.3171,-112.4369C597.6065,-100.6979 709.5093,-81.1759 764.2903,-71.6191"/>
<polygon fill="#191970" stroke="#191970" points="764.8933,-75.0669 774.143,-69.9003 763.6903,-68.171 764.8933,-75.0669"/>
</g>
<!-- Node25&#45;&gt;Node2 -->
<g id="edge42" class="edge">
<title>Node25&#45;&gt;Node2</title>
<path fill="none" stroke="#191970" d="M573.943,-414.2967C558.5668,-403.4524 537.9586,-388.9182 522.4862,-378.006"/>
<polygon fill="#191970" stroke="#191970" points="524.2374,-374.9582 514.0481,-372.055 520.203,-380.6787 524.2374,-374.9582"/>
</g>
<!-- Node25&#45;&gt;Node24 -->
<g id="edge43" class="edge">
<title>Node25&#45;&gt;Node24</title>
<path fill="none" stroke="#191970" d="M598.3128,-414.2587C600.7188,-396.6916 602.0597,-367.599 589.5,-347 562.8396,-303.2746 511.0285,-274.8515 470.4939,-258.2811"/>
<polygon fill="#191970" stroke="#191970" points="471.5678,-254.9421 460.9813,-254.5225 468.9955,-261.4524 471.5678,-254.9421"/>
</g>
<!-- Node26&#45;&gt;Node16 -->
<g id="edge51" class="edge">
<title>Node26&#45;&gt;Node16</title>
<path fill="none" stroke="#191970" d="M906.5367,-295.2866C1011.1441,-283.7813 1193.2703,-251.3778 1131.5,-168 1094.7747,-118.428 905.7277,-83.3478 828.9595,-70.9382"/>
<polygon fill="#191970" stroke="#191970" points="829.3255,-67.4525 818.8999,-69.3385 828.226,-74.3657 829.3255,-67.4525"/>
</g>
<!-- Node26&#45;&gt;Node19 -->
<g id="edge50" class="edge">
<title>Node26&#45;&gt;Node19</title>
<path fill="none" stroke="#191970" d="M801.2633,-291.4581C759.4006,-280.7308 691.3372,-263.2895 645.7585,-251.61"/>
<polygon fill="#191970" stroke="#191970" points="646.3799,-248.1562 635.824,-249.0643 644.6422,-254.9371 646.3799,-248.1562"/>
</g>
<!-- Node27 -->
<g id="node28" class="node">
<title>Node27</title>
<g id="a_node28"><a xlink:href="PositionRaw_8h.html" target="_top" xlink:title="iDynTree/Core/PositionRaw.h">
<polygon fill="none" stroke="#000000" points="760.5,-168.5 760.5,-187.5 916.5,-187.5 916.5,-168.5 760.5,-168.5"/>
<text text-anchor="middle" x="838.5" y="-175.5" font-family="FreeSans.ttf" font-size="10.00" fill="#000000">iDynTree/Core/PositionRaw.h</text>
</a>
</g>
</g>
<!-- Node26&#45;&gt;Node27 -->
<g id="edge45" class="edge">
<title>Node26&#45;&gt;Node27</title>
<path fill="none" stroke="#191970" d="M838.5,-291.3484C838.5,-271.2295 838.5,-224.4608 838.5,-197.7098"/>
<polygon fill="#191970" stroke="#191970" points="842.0001,-197.6067 838.5,-187.6068 835.0001,-197.6068 842.0001,-197.6067"/>
</g>
<!-- Node28 -->
<g id="node29" class="node">
<title>Node28</title>
<g id="a_node29"><a xlink:href="PositionSemantics_8h.html" target="_top" xlink:title="iDynTree/Core/PositionSemantics.h">
<polygon fill="none" stroke="#000000" points="935,-168.5 935,-187.5 1122,-187.5 1122,-168.5 935,-168.5"/>
<text text-anchor="middle" x="1028.5" y="-175.5" font-family="FreeSans.ttf" font-size="10.00" fill="#000000">iDynTree/Core/PositionSemantics.h</text>
</a>
</g>
</g>
<!-- Node26&#45;&gt;Node28 -->
<g id="edge48" class="edge">
<title>Node26&#45;&gt;Node28</title>
<path fill="none" stroke="#191970" d="M853.409,-291.3484C886.3599,-270.017 965.5888,-218.7267 1005.1725,-193.1015"/>
<polygon fill="#191970" stroke="#191970" points="1007.1678,-195.9792 1013.6603,-187.6068 1003.3637,-190.1031 1007.1678,-195.9792"/>
</g>
<!-- Node27&#45;&gt;Node4 -->
<g id="edge46" class="edge">
<title>Node27&#45;&gt;Node4</title>
<path fill="none" stroke="#191970" d="M760.1411,-170.5608C669.6869,-161.9064 516.1426,-147.0108 373.6848,-132.1141"/>
<polygon fill="#191970" stroke="#191970" points="373.7583,-128.6027 363.448,-131.0416 373.0288,-135.5646 373.7583,-128.6027"/>
</g>
<!-- Node27&#45;&gt;Node16 -->
<g id="edge47" class="edge">
<title>Node27&#45;&gt;Node16</title>
<path fill="none" stroke="#191970" d="M838.6183,-168.2323C838.4595,-155.0138 837.0289,-130.9096 829.5,-112 825.4416,-101.8071 818.6483,-91.7572 812.2766,-83.6637"/>
<polygon fill="#191970" stroke="#191970" points="814.7649,-81.1821 805.6776,-75.7349 809.3846,-85.6601 814.7649,-81.1821"/>
</g>
<!-- Node28&#45;&gt;Node16 -->
<g id="edge49" class="edge">
<title>Node28&#45;&gt;Node16</title>
<path fill="none" stroke="#191970" d="M1008.7198,-168.4509C967.7136,-148.6548 873.2802,-103.0663 825.4249,-79.9638"/>
<polygon fill="#191970" stroke="#191970" points="826.7573,-76.7205 816.2301,-75.5249 823.714,-83.0244 826.7573,-76.7205"/>
</g>
<!-- Node30&#45;&gt;Node29 -->
<g id="edge54" class="edge">
<title>Node30&#45;&gt;Node29</title>
<path fill="none" stroke="#191970" d="M842.1464,-414.2967C838.7812,-406.2443 834.5658,-396.1574 830.7512,-387.0296"/>
<polygon fill="#191970" stroke="#191970" points="833.9138,-385.5203 826.8285,-377.6432 827.4551,-388.2195 833.9138,-385.5203"/>
</g>
</g>
</svg>
