<?xml version="1.0" encoding="UTF-8" standalone="no"?>
<!DOCTYPE svg PUBLIC "-//W3C//DTD SVG 1.1//EN"
 "http://www.w3.org/Graphics/SVG/1.1/DTD/svg11.dtd">
<!-- Generated by graphviz version 2.40.1 (20161225.0304)
 -->
<!-- Title: AttitudeEstimator.cpp Pages: 1 -->
<svg width="937pt" height="375pt"
 viewBox="0.00 0.00 937.34 375.00" xmlns="http://www.w3.org/2000/svg" xmlns:xlink="http://www.w3.org/1999/xlink">
<g id="graph0" class="graph" transform="scale(1 1) rotate(0) translate(4 371)">
<title>AttitudeEstimator.cpp</title>
<!-- Node0 -->
<g id="node1" class="node">
<title>Node0</title>
<polygon fill="#bfbfbf" stroke="#000000" points="663.5,-347.5 663.5,-366.5 785.5,-366.5 785.5,-347.5 663.5,-347.5"/>
<text text-anchor="middle" x="724.5" y="-354.5" font-family="FreeSans.ttf" font-size="10.00" fill="#000000">AttitudeEstimator.cpp</text>
</g>
<!-- Node1 -->
<g id="node2" class="node">
<title>Node1</title>
<g id="a_node2"><a xlink:href="AttitudeEstimator_8h.html" target="_top" xlink:title="iDynTree/Estimation\l/AttitudeEstimator.h">
<polygon fill="none" stroke="#000000" points="667,-280.5 667,-310.5 782,-310.5 782,-280.5 667,-280.5"/>
<text text-anchor="start" x="675" y="-298.5" font-family="FreeSans.ttf" font-size="10.00" fill="#000000">iDynTree/Estimation</text>
<text text-anchor="middle" x="724.5" y="-287.5" font-family="FreeSans.ttf" font-size="10.00" fill="#000000">/AttitudeEstimator.h</text>
</a>
</g>
</g>
<!-- Node0&#45;&gt;Node1 -->
<g id="edge1" class="edge">
<title>Node0&#45;&gt;Node1</title>
<path fill="none" stroke="#191970" d="M724.5,-347.3906C724.5,-340.2234 724.5,-330.0862 724.5,-320.671"/>
<polygon fill="#191970" stroke="#191970" points="728.0001,-320.5446 724.5,-310.5446 721.0001,-320.5446 728.0001,-320.5446"/>
</g>
<!-- Node2 -->
<g id="node3" class="node">
<title>Node2</title>
<g id="a_node3"><a xlink:href="VectorFixSize_8h.html" target="_top" xlink:title="iDynTree/Core/VectorFixSize.h">
<polygon fill="none" stroke="#000000" points="310,-112.5 310,-131.5 471,-131.5 471,-112.5 310,-112.5"/>
<text text-anchor="middle" x="390.5" y="-119.5" font-family="FreeSans.ttf" font-size="10.00" fill="#000000">iDynTree/Core/VectorFixSize.h</text>
</a>
</g>
</g>
<!-- Node1&#45;&gt;Node2 -->
<g id="edge2" class="edge">
<title>Node1&#45;&gt;Node2</title>
<path fill="none" stroke="#191970" d="M695.444,-280.4065C631.7183,-247.3035 480.4024,-168.7008 418.0671,-136.32"/>
<polygon fill="#191970" stroke="#191970" points="419.3413,-133.0379 408.8537,-131.534 416.1144,-139.2498 419.3413,-133.0379"/>
</g>
<!-- Node17 -->
<g id="node18" class="node">
<title>Node17</title>
<g id="a_node18"><a xlink:href="Rotation_8h.html" target="_top" xlink:title="iDynTree/Core/Rotation.h">
<polygon fill="none" stroke="#000000" points="656,-224.5 656,-243.5 793,-243.5 793,-224.5 656,-224.5"/>
<text text-anchor="middle" x="724.5" y="-231.5" font-family="FreeSans.ttf" font-size="10.00" fill="#000000">iDynTree/Core/Rotation.h</text>
</a>
</g>
</g>
<!-- Node1&#45;&gt;Node17 -->
<g id="edge19" class="edge">
<title>Node1&#45;&gt;Node17</title>
<path fill="none" stroke="#191970" d="M724.5,-280.2977C724.5,-272.3834 724.5,-262.6043 724.5,-254.0759"/>
<polygon fill="#191970" stroke="#191970" points="728.0001,-253.8469 724.5,-243.8469 721.0001,-253.847 728.0001,-253.8469"/>
</g>
<!-- Node20 -->
<g id="node21" class="node">
<title>Node20</title>
<polygon fill="none" stroke="#bfbfbf" points="866.5,-56.5 866.5,-75.5 926.5,-75.5 926.5,-56.5 866.5,-56.5"/>
<text text-anchor="middle" x="896.5" y="-63.5" font-family="FreeSans.ttf" font-size="10.00" fill="#000000">iostream</text>
</g>
<!-- Node1&#45;&gt;Node20 -->
<g id="edge34" class="edge">
<title>Node1&#45;&gt;Node20</title>
<path fill="none" stroke="#191970" d="M782.2285,-281.2361C828.6478,-266.3907 890.8415,-238.0933 920.5,-188 939.9176,-155.2035 921.1343,-109.6131 907.6076,-84.4773"/>
<polygon fill="#191970" stroke="#191970" points="910.5707,-82.6068 902.6004,-75.6265 904.4781,-86.0537 910.5707,-82.6068"/>
</g>
<!-- Node3 -->
<g id="node4" class="node">
<title>Node3</title>
<g id="a_node4"><a xlink:href="Utils_8h.html" target="_top" xlink:title="iDynTree/Core/Utils.h">
<polygon fill="none" stroke="#000000" points="599,-56.5 599,-75.5 718,-75.5 718,-56.5 599,-56.5"/>
<text text-anchor="middle" x="658.5" y="-63.5" font-family="FreeSans.ttf" font-size="10.00" fill="#000000">iDynTree/Core/Utils.h</text>
</a>
</g>
</g>
<!-- Node2&#45;&gt;Node3 -->
<g id="edge3" class="edge">
<title>Node2&#45;&gt;Node3</title>
<path fill="none" stroke="#191970" d="M436.2663,-112.4369C482.4215,-102.7925 553.7178,-87.8948 603.0537,-77.5858"/>
<polygon fill="#191970" stroke="#191970" points="603.8498,-80.9951 612.9224,-75.5237 602.4179,-74.1431 603.8498,-80.9951"/>
</g>
<!-- Node5 -->
<g id="node6" class="node">
<title>Node5</title>
<g id="a_node6"><a xlink:href="Span_8h.html" target="_top" xlink:title="iDynTree/Core/Span.h">
<polygon fill="none" stroke="#000000" points="241,-56.5 241,-75.5 362,-75.5 362,-56.5 241,-56.5"/>
<text text-anchor="middle" x="301.5" y="-63.5" font-family="FreeSans.ttf" font-size="10.00" fill="#000000">iDynTree/Core/Span.h</text>
</a>
</g>
</g>
<!-- Node2&#45;&gt;Node5 -->
<g id="edge5" class="edge">
<title>Node2&#45;&gt;Node5</title>
<path fill="none" stroke="#191970" d="M374.9974,-112.2455C361.342,-103.6534 341.2343,-91.0014 325.5011,-81.1018"/>
<polygon fill="#191970" stroke="#191970" points="327.1529,-78.006 316.825,-75.6427 323.4249,-83.9307 327.1529,-78.006"/>
</g>
<!-- Node6 -->
<g id="node7" class="node">
<title>Node6</title>
<polygon fill="none" stroke="#bfbfbf" points="509.5,-.5 509.5,-19.5 561.5,-19.5 561.5,-.5 509.5,-.5"/>
<text text-anchor="middle" x="535.5" y="-7.5" font-family="FreeSans.ttf" font-size="10.00" fill="#000000">cassert</text>
</g>
<!-- Node2&#45;&gt;Node6 -->
<g id="edge17" class="edge">
<title>Node2&#45;&gt;Node6</title>
<path fill="none" stroke="#191970" d="M390.6591,-112.1533C391.4154,-97.9491 394.862,-71.6963 409.5,-56 415.9146,-49.1216 464.4118,-32.6055 499.3233,-21.3549"/>
<polygon fill="#191970" stroke="#191970" points="500.7533,-24.5723 509.2112,-18.1915 498.6203,-17.9052 500.7533,-24.5723"/>
</g>
<!-- Node14 -->
<g id="node15" class="node">
<title>Node14</title>
<polygon fill="none" stroke="#bfbfbf" points="740.5,-56.5 740.5,-75.5 784.5,-75.5 784.5,-56.5 740.5,-56.5"/>
<text text-anchor="middle" x="762.5" y="-63.5" font-family="FreeSans.ttf" font-size="10.00" fill="#000000">string</text>
</g>
<!-- Node2&#45;&gt;Node14 -->
<g id="edge15" class="edge">
<title>Node2&#45;&gt;Node14</title>
<path fill="none" stroke="#191970" d="M469.273,-112.4631C552.7168,-102.1378 678.8564,-85.8317 726.5,-76 727.7507,-75.7419 729.022,-75.4644 730.3032,-75.1719"/>
<polygon fill="#191970" stroke="#191970" points="731.2923,-78.5324 740.1455,-72.7125 729.5953,-71.7412 731.2923,-78.5324"/>
</g>
<!-- Node15 -->
<g id="node16" class="node">
<title>Node15</title>
<polygon fill="none" stroke="#bfbfbf" points="486.5,-56.5 486.5,-75.5 542.5,-75.5 542.5,-56.5 486.5,-56.5"/>
<text text-anchor="middle" x="514.5" y="-63.5" font-family="FreeSans.ttf" font-size="10.00" fill="#000000">sstream</text>
</g>
<!-- Node2&#45;&gt;Node15 -->
<g id="edge16" class="edge">
<title>Node2&#45;&gt;Node15</title>
<path fill="none" stroke="#191970" d="M411.8164,-112.3733C431.7216,-103.3838 461.6436,-89.8706 484.06,-79.7471"/>
<polygon fill="#191970" stroke="#191970" points="485.7887,-82.8068 493.4618,-75.5011 482.9075,-76.4272 485.7887,-82.8068"/>
</g>
<!-- Node16 -->
<g id="node17" class="node">
<title>Node16</title>
<polygon fill="none" stroke="#bfbfbf" points="418.5,-56.5 418.5,-75.5 468.5,-75.5 468.5,-56.5 418.5,-56.5"/>
<text text-anchor="middle" x="443.5" y="-63.5" font-family="FreeSans.ttf" font-size="10.00" fill="#000000">cstring</text>
</g>
<!-- Node2&#45;&gt;Node16 -->
<g id="edge18" class="edge">
<title>Node2&#45;&gt;Node16</title>
<path fill="none" stroke="#191970" d="M399.7319,-112.2455C407.3317,-104.2155 418.2877,-92.6394 427.3368,-83.0781"/>
<polygon fill="#191970" stroke="#191970" points="430.0421,-85.3115 434.3739,-75.6427 424.958,-80.4998 430.0421,-85.3115"/>
</g>
<!-- Node4 -->
<g id="node5" class="node">
<title>Node4</title>
<polygon fill="none" stroke="#bfbfbf" points="624,-.5 624,-19.5 677,-19.5 677,-.5 624,-.5"/>
<text text-anchor="middle" x="650.5" y="-7.5" font-family="FreeSans.ttf" font-size="10.00" fill="#000000">cstddef</text>
</g>
<!-- Node3&#45;&gt;Node4 -->
<g id="edge4" class="edge">
<title>Node3&#45;&gt;Node4</title>
<path fill="none" stroke="#191970" d="M657.1065,-56.2455C656.0626,-48.9382 654.5992,-38.6944 653.3149,-29.7046"/>
<polygon fill="#191970" stroke="#191970" points="656.7566,-29.0472 651.8775,-19.6427 649.827,-30.0372 656.7566,-29.0472"/>
</g>
<!-- Node5&#45;&gt;Node4 -->
<g id="edge9" class="edge">
<title>Node5&#45;&gt;Node4</title>
<path fill="none" stroke="#191970" d="M361.0987,-56.4369C433.4598,-44.8259 553.2738,-25.6008 613.5104,-15.9353"/>
<polygon fill="#191970" stroke="#191970" points="614.3738,-19.3416 623.6929,-14.3014 613.2647,-12.43 614.3738,-19.3416"/>
</g>
<!-- Node5&#45;&gt;Node6 -->
<g id="edge6" class="edge">
<title>Node5&#45;&gt;Node6</title>
<path fill="none" stroke="#191970" d="M345.9194,-56.4146C384.2209,-47.9961 441.2224,-35.104 499.4356,-20.1893"/>
<polygon fill="#191970" stroke="#191970" points="500.3569,-23.5663 509.1661,-17.68 498.6089,-16.7881 500.3569,-23.5663"/>
</g>
<!-- Node7 -->
<g id="node8" class="node">
<title>Node7</title>
<polygon fill="none" stroke="#bfbfbf" points="233.5,-.5 233.5,-19.5 297.5,-19.5 297.5,-.5 233.5,-.5"/>
<text text-anchor="middle" x="265.5" y="-7.5" font-family="FreeSans.ttf" font-size="10.00" fill="#000000">algorithm</text>
</g>
<!-- Node5&#45;&gt;Node7 -->
<g id="edge7" class="edge">
<title>Node5&#45;&gt;Node7</title>
<path fill="none" stroke="#191970" d="M295.2293,-56.2455C290.2736,-48.5367 283.217,-37.5598 277.2224,-28.2348"/>
<polygon fill="#191970" stroke="#191970" points="280.0506,-26.1618 271.6989,-19.6427 274.1624,-29.9471 280.0506,-26.1618"/>
</g>
<!-- Node8 -->
<g id="node9" class="node">
<title>Node8</title>
<polygon fill="none" stroke="#bfbfbf" points="315.5,-.5 315.5,-19.5 357.5,-19.5 357.5,-.5 315.5,-.5"/>
<text text-anchor="middle" x="336.5" y="-7.5" font-family="FreeSans.ttf" font-size="10.00" fill="#000000">array</text>
</g>
<!-- Node5&#45;&gt;Node8 -->
<g id="edge8" class="edge">
<title>Node5&#45;&gt;Node8</title>
<path fill="none" stroke="#191970" d="M307.5965,-56.2455C312.4145,-48.5367 319.2751,-37.5598 325.1032,-28.2348"/>
<polygon fill="#191970" stroke="#191970" points="328.1413,-29.9777 330.4733,-19.6427 322.2053,-26.2677 328.1413,-29.9777"/>
</g>
<!-- Node9 -->
<g id="node10" class="node">
<title>Node9</title>
<polygon fill="none" stroke="#bfbfbf" points="376,-.5 376,-19.5 429,-19.5 429,-.5 376,-.5"/>
<text text-anchor="middle" x="402.5" y="-7.5" font-family="FreeSans.ttf" font-size="10.00" fill="#000000">iterator</text>
</g>
<!-- Node5&#45;&gt;Node9 -->
<g id="edge10" class="edge">
<title>Node5&#45;&gt;Node9</title>
<path fill="none" stroke="#191970" d="M319.0929,-56.2455C334.879,-47.4928 358.2639,-34.527 376.2587,-24.5496"/>
<polygon fill="#191970" stroke="#191970" points="378.0603,-27.5528 385.1087,-19.6427 374.6659,-21.4308 378.0603,-27.5528"/>
</g>
<!-- Node10 -->
<g id="node11" class="node">
<title>Node10</title>
<polygon fill="none" stroke="#bfbfbf" points="447.5,-.5 447.5,-19.5 491.5,-19.5 491.5,-.5 447.5,-.5"/>
<text text-anchor="middle" x="469.5" y="-7.5" font-family="FreeSans.ttf" font-size="10.00" fill="#000000">limits</text>
</g>
<!-- Node5&#45;&gt;Node10 -->
<g id="edge11" class="edge">
<title>Node5&#45;&gt;Node10</title>
<path fill="none" stroke="#191970" d="M330.3802,-56.3733C360.218,-46.4273 406.6685,-30.9438 437.5791,-20.6403"/>
<polygon fill="#191970" stroke="#191970" points="439.0396,-23.8429 447.4196,-17.3601 436.8259,-17.2021 439.0396,-23.8429"/>
</g>
<!-- Node11 -->
<g id="node12" class="node">
<title>Node11</title>
<polygon fill="none" stroke="#bfbfbf" points="0,-.5 0,-19.5 65,-19.5 65,-.5 0,-.5"/>
<text text-anchor="middle" x="32.5" y="-7.5" font-family="FreeSans.ttf" font-size="10.00" fill="#000000">stdexcept</text>
</g>
<!-- Node5&#45;&gt;Node11 -->
<g id="edge12" class="edge">
<title>Node5&#45;&gt;Node11</title>
<path fill="none" stroke="#191970" d="M251.1152,-56.4372C207.0934,-47.9461 141.2173,-34.9137 75.2957,-20.3433"/>
<polygon fill="#191970" stroke="#191970" points="75.6672,-16.8405 65.1461,-18.0876 74.1486,-23.6738 75.6672,-16.8405"/>
</g>
<!-- Node12 -->
<g id="node13" class="node">
<title>Node12</title>
<polygon fill="none" stroke="#bfbfbf" points="83,-.5 83,-19.5 152,-19.5 152,-.5 83,-.5"/>
<text text-anchor="middle" x="117.5" y="-7.5" font-family="FreeSans.ttf" font-size="10.00" fill="#000000">type_traits</text>
</g>
<!-- Node5&#45;&gt;Node12 -->
<g id="edge13" class="edge">
<title>Node5&#45;&gt;Node12</title>
<path fill="none" stroke="#191970" d="M269.8693,-56.3733C239.1404,-47.021 192.324,-32.7725 158.6978,-22.5385"/>
<polygon fill="#191970" stroke="#191970" points="159.3038,-19.0644 148.718,-19.5011 157.2656,-25.7612 159.3038,-19.0644"/>
</g>
<!-- Node13 -->
<g id="node14" class="node">
<title>Node13</title>
<polygon fill="none" stroke="#bfbfbf" points="170,-.5 170,-19.5 215,-19.5 215,-.5 170,-.5"/>
<text text-anchor="middle" x="192.5" y="-7.5" font-family="FreeSans.ttf" font-size="10.00" fill="#000000">utility</text>
</g>
<!-- Node5&#45;&gt;Node13 -->
<g id="edge14" class="edge">
<title>Node5&#45;&gt;Node13</title>
<path fill="none" stroke="#191970" d="M282.5136,-56.2455C265.3208,-47.4125 239.7762,-34.2887 220.2868,-24.2758"/>
<polygon fill="#191970" stroke="#191970" points="221.763,-21.0993 211.2688,-19.6427 218.5641,-27.3257 221.763,-21.0993"/>
</g>
<!-- Node17&#45;&gt;Node2 -->
<g id="edge33" class="edge">
<title>Node17&#45;&gt;Node2</title>
<path fill="none" stroke="#191970" d="M709.2037,-224.2721C686.0875,-209.9753 640.4856,-183.3298 598.5,-168 555.1044,-152.1553 504.5352,-140.8211 464.1253,-133.3682"/>
<polygon fill="#191970" stroke="#191970" points="464.5435,-129.8872 454.081,-131.5566 463.301,-136.7761 464.5435,-129.8872"/>
</g>
<!-- Node17&#45;&gt;Node14 -->
<g id="edge20" class="edge">
<title>Node17&#45;&gt;Node14</title>
<path fill="none" stroke="#191970" d="M793.4499,-225.0789C837.865,-217.7555 889.785,-205.6852 903.5,-188 919.5284,-167.3318 897.135,-127.5497 881.5,-112 857.9304,-88.559 821.0978,-76.7929 794.6534,-71.0693"/>
<polygon fill="#191970" stroke="#191970" points="795.2173,-67.613 784.7268,-69.0963 793.8526,-74.4787 795.2173,-67.613"/>
</g>
<!-- Node18 -->
<g id="node19" class="node">
<title>Node18</title>
<g id="a_node19"><a xlink:href="RotationRaw_8h.html" target="_top" xlink:title="iDynTree/Core/RotationRaw.h">
<polygon fill="none" stroke="#000000" points="736.5,-168.5 736.5,-187.5 894.5,-187.5 894.5,-168.5 736.5,-168.5"/>
<text text-anchor="middle" x="815.5" y="-175.5" font-family="FreeSans.ttf" font-size="10.00" fill="#000000">iDynTree/Core/RotationRaw.h</text>
</a>
</g>
</g>
<!-- Node17&#45;&gt;Node18 -->
<g id="edge21" class="edge">
<title>Node17&#45;&gt;Node18</title>
<path fill="none" stroke="#191970" d="M740.351,-224.2455C754.3132,-215.6534 774.8728,-203.0014 790.9596,-193.1018"/>
<polygon fill="#191970" stroke="#191970" points="793.1484,-195.8645 799.8307,-187.6427 789.4797,-189.9029 793.1484,-195.8645"/>
</g>
<!-- Node21 -->
<g id="node22" class="node">
<title>Node21</title>
<g id="a_node22"><a xlink:href="RotationSemantics_8h.html" target="_top" xlink:title="iDynTree/Core/RotationSemantics.h">
<polygon fill="none" stroke="#000000" points="668.5,-112.5 668.5,-131.5 856.5,-131.5 856.5,-112.5 668.5,-112.5"/>
<text text-anchor="middle" x="762.5" y="-119.5" font-family="FreeSans.ttf" font-size="10.00" fill="#000000">iDynTree/Core/RotationSemantics.h</text>
</a>
</g>
</g>
<!-- Node17&#45;&gt;Node21 -->
<g id="edge30" class="edge">
<title>Node17&#45;&gt;Node21</title>
<path fill="none" stroke="#191970" d="M723.1793,-224.2523C721.7803,-211.0565 720.6172,-186.9779 727.5,-168 731.3597,-157.3576 738.6145,-147.162 745.5225,-139.086"/>
<polygon fill="#191970" stroke="#191970" points="748.2831,-141.2532 752.439,-131.5075 743.1127,-136.5344 748.2831,-141.2532"/>
</g>
<!-- Node18&#45;&gt;Node14 -->
<g id="edge29" class="edge">
<title>Node18&#45;&gt;Node14</title>
<path fill="none" stroke="#191970" d="M831.7931,-168.4825C851.1207,-155.9341 879.1109,-132.9853 865.5,-112 849.9971,-88.0976 818.8535,-76.5065 794.851,-70.9532"/>
<polygon fill="#191970" stroke="#191970" points="795.2394,-67.4596 784.7381,-68.8642 793.8233,-74.3149 795.2394,-67.4596"/>
</g>
<!-- Node19 -->
<g id="node20" class="node">
<title>Node19</title>
<g id="a_node20"><a xlink:href="MatrixFixSize_8h.html" target="_top" xlink:title="iDynTree/Core/MatrixFixSize.h">
<polygon fill="none" stroke="#000000" points="489,-112.5 489,-131.5 650,-131.5 650,-112.5 489,-112.5"/>
<text text-anchor="middle" x="569.5" y="-119.5" font-family="FreeSans.ttf" font-size="10.00" fill="#000000">iDynTree/Core/MatrixFixSize.h</text>
</a>
</g>
</g>
<!-- Node18&#45;&gt;Node19 -->
<g id="edge22" class="edge">
<title>Node18&#45;&gt;Node19</title>
<path fill="none" stroke="#191970" d="M773.4906,-168.4369C731.3896,-158.8529 666.4995,-144.0812 621.2479,-133.78"/>
<polygon fill="#191970" stroke="#191970" points="621.8636,-130.3307 611.3361,-131.5237 620.3098,-137.1561 621.8636,-130.3307"/>
</g>
<!-- Node19&#45;&gt;Node3 -->
<g id="edge23" class="edge">
<title>Node19&#45;&gt;Node3</title>
<path fill="none" stroke="#191970" d="M585.0026,-112.2455C598.658,-103.6534 618.7657,-91.0014 634.4989,-81.1018"/>
<polygon fill="#191970" stroke="#191970" points="636.5751,-83.9307 643.175,-75.6427 632.8471,-78.006 636.5751,-83.9307"/>
</g>
<!-- Node19&#45;&gt;Node6 -->
<g id="edge24" class="edge">
<title>Node19&#45;&gt;Node6</title>
<path fill="none" stroke="#191970" d="M567.0255,-112.0991C563.7342,-99.1361 557.6169,-75.7397 551.5,-56 548.7548,-47.1411 545.4247,-37.4288 542.5149,-29.2208"/>
<polygon fill="#191970" stroke="#191970" points="545.8069,-28.0318 539.1296,-19.806 539.2198,-30.4004 545.8069,-28.0318"/>
</g>
<!-- Node19&#45;&gt;Node14 -->
<g id="edge26" class="edge">
<title>Node19&#45;&gt;Node14</title>
<path fill="none" stroke="#191970" d="M602.6779,-112.3733C638.482,-101.9845 695.1081,-85.5541 730.4625,-75.2959"/>
<polygon fill="#191970" stroke="#191970" points="731.6414,-78.5982 740.2699,-72.4502 729.6907,-71.8755 731.6414,-78.5982"/>
</g>
<!-- Node19&#45;&gt;Node15 -->
<g id="edge28" class="edge">
<title>Node19&#45;&gt;Node15</title>
<path fill="none" stroke="#191970" d="M559.9197,-112.2455C551.9542,-104.1352 540.4359,-92.4075 530.9921,-82.7919"/>
<polygon fill="#191970" stroke="#191970" points="533.4747,-80.3247 523.9705,-75.6427 528.4805,-85.2297 533.4747,-80.3247"/>
</g>
<!-- Node19&#45;&gt;Node16 -->
<g id="edge25" class="edge">
<title>Node19&#45;&gt;Node16</title>
<path fill="none" stroke="#191970" d="M547.8398,-112.3733C527.5228,-103.3435 496.936,-89.7494 474.125,-79.6111"/>
<polygon fill="#191970" stroke="#191970" points="475.4372,-76.3642 464.8775,-75.5011 472.5941,-82.7609 475.4372,-76.3642"/>
</g>
<!-- Node19&#45;&gt;Node20 -->
<g id="edge27" class="edge">
<title>Node19&#45;&gt;Node20</title>
<path fill="none" stroke="#191970" d="M625.3418,-112.4369C691.0764,-101.1796 798.6056,-82.7648 856.5327,-72.8446"/>
<polygon fill="#191970" stroke="#191970" points="857.1448,-76.2908 866.4105,-71.1529 855.9632,-69.3912 857.1448,-76.2908"/>
</g>
<!-- Node21&#45;&gt;Node3 -->
<g id="edge32" class="edge">
<title>Node21&#45;&gt;Node3</title>
<path fill="none" stroke="#191970" d="M744.3846,-112.2455C728.055,-103.4527 703.829,-90.4079 685.2661,-80.4125"/>
<polygon fill="#191970" stroke="#191970" points="686.8719,-77.3021 676.4078,-75.6427 683.5532,-83.4654 686.8719,-77.3021"/>
</g>
<!-- Node21&#45;&gt;Node14 -->
<g id="edge31" class="edge">
<title>Node21&#45;&gt;Node14</title>
<path fill="none" stroke="#191970" d="M762.5,-112.2455C762.5,-104.9382 762.5,-94.6944 762.5,-85.7046"/>
<polygon fill="#191970" stroke="#191970" points="766.0001,-85.6426 762.5,-75.6427 759.0001,-85.6427 766.0001,-85.6426"/>
</g>
</g>
</svg>
