<?xml version="1.0" encoding="UTF-8" standalone="no"?>
<!DOCTYPE svg PUBLIC "-//W3C//DTD SVG 1.1//EN"
 "http://www.w3.org/Graphics/SVG/1.1/DTD/svg11.dtd">
<!-- Generated by graphviz version 2.40.1 (20161225.0304)
 -->
<!-- Title: AttitudeEstimatorUtils.h Pages: 1 -->
<svg width="474pt" height="84pt"
 viewBox="0.00 0.00 474.00 84.00" xmlns="http://www.w3.org/2000/svg" xmlns:xlink="http://www.w3.org/1999/xlink">
<g id="graph0" class="graph" transform="scale(1 1) rotate(0) translate(4 80)">
<title>AttitudeEstimatorUtils.h</title>
<!-- Node46 -->
<g id="node1" class="node">
<title>Node46</title>
<polygon fill="#bfbfbf" stroke="#000000" points="166,-56.5 166,-75.5 300,-75.5 300,-56.5 166,-56.5"/>
<text text-anchor="middle" x="233" y="-63.5" font-family="FreeSans.ttf" font-size="10.00" fill="#000000">AttitudeEstimatorUtils.h</text>
</g>
<!-- Node47 -->
<g id="node2" class="node">
<title>Node47</title>
<g id="a_node2"><a xlink:href="AttitudeEstimatorUtils_8cpp.html" target="_top" xlink:title="AttitudeEstimatorUtils.cpp">
<polygon fill="none" stroke="#000000" points="0,-.5 0,-19.5 146,-19.5 146,-.5 0,-.5"/>
<text text-anchor="middle" x="73" y="-7.5" font-family="FreeSans.ttf" font-size="10.00" fill="#000000">AttitudeEstimatorUtils.cpp</text>
</a>
</g>
</g>
<!-- Node46&#45;&gt;Node47 -->
<g id="edge1" class="edge">
<title>Node46&#45;&gt;Node47</title>
<path fill="none" stroke="#191970" d="M196.0201,-53.057C166.7382,-42.8084 126.5115,-28.729 100.1461,-19.5011"/>
<polygon fill="#191970" stroke="#191970" points="194.9002,-56.3732 205.495,-56.3733 197.2127,-49.7662 194.9002,-56.3732"/>
</g>
<!-- Node48 -->
<g id="node3" class="node">
<title>Node48</title>
<g id="a_node3"><a xlink:href="AttitudeMahonyFilter_8cpp.html" target="_top" xlink:title="AttitudeMahonyFilter.cpp">
<polygon fill="none" stroke="#000000" points="164.5,-.5 164.5,-19.5 301.5,-19.5 301.5,-.5 164.5,-.5"/>
<text text-anchor="middle" x="233" y="-7.5" font-family="FreeSans.ttf" font-size="10.00" fill="#000000">AttitudeMahonyFilter.cpp</text>
</a>
</g>
</g>
<!-- Node46&#45;&gt;Node48 -->
<g id="edge2" class="edge">
<title>Node46&#45;&gt;Node48</title>
<path fill="none" stroke="#191970" d="M233,-46.1575C233,-37.155 233,-26.9199 233,-19.6427"/>
<polygon fill="#191970" stroke="#191970" points="229.5001,-46.2455 233,-56.2455 236.5001,-46.2456 229.5001,-46.2455"/>
</g>
<!-- Node49 -->
<g id="node4" class="node">
<title>Node49</title>
<g id="a_node4"><a xlink:href="AttitudeQuaternionEKF_8cpp.html" target="_top" xlink:title="AttitudeQuaternionEKF.cpp">
<polygon fill="none" stroke="#000000" points="320,-.5 320,-19.5 466,-19.5 466,-.5 320,-.5"/>
<text text-anchor="middle" x="393" y="-7.5" font-family="FreeSans.ttf" font-size="10.00" fill="#000000">AttitudeQuaternionEKF.cpp</text>
</a>
</g>
</g>
<!-- Node46&#45;&gt;Node49 -->
<g id="edge3" class="edge">
<title>Node46&#45;&gt;Node49</title>
<path fill="none" stroke="#191970" d="M269.9799,-53.057C299.2618,-42.8084 339.4885,-28.729 365.8539,-19.5011"/>
<polygon fill="#191970" stroke="#191970" points="268.7873,-49.7662 260.505,-56.3733 271.0998,-56.3732 268.7873,-49.7662"/>
</g>
</g>
</svg>
