<?xml version="1.0" encoding="UTF-8" standalone="no"?>
<!DOCTYPE svg PUBLIC "-//W3C//DTD SVG 1.1//EN"
 "http://www.w3.org/Graphics/SVG/1.1/DTD/svg11.dtd">
<!-- Generated by graphviz version 2.40.1 (20161225.0304)
 -->
<!-- Title: Axis.h Pages: 1 -->
<svg width="954pt" height="364pt"
 viewBox="0.00 0.00 953.50 364.00" xmlns="http://www.w3.org/2000/svg" xmlns:xlink="http://www.w3.org/1999/xlink">
<g id="graph0" class="graph" transform="scale(1 1) rotate(0) translate(4 360)">
<title>Axis.h</title>
<!-- Node0 -->
<g id="node1" class="node">
<title>Node0</title>
<polygon fill="#bfbfbf" stroke="#000000" points="573,-336.5 573,-355.5 620,-355.5 620,-336.5 573,-336.5"/>
<text text-anchor="middle" x="596.5" y="-343.5" font-family="FreeSans.ttf" font-size="10.00" fill="#000000">Axis.h</text>
</g>
<!-- Node1 -->
<g id="node2" class="node">
<title>Node1</title>
<polygon fill="none" stroke="#bfbfbf" points="752.5,-56.5 752.5,-75.5 796.5,-75.5 796.5,-56.5 752.5,-56.5"/>
<text text-anchor="middle" x="774.5" y="-63.5" font-family="FreeSans.ttf" font-size="10.00" fill="#000000">string</text>
</g>
<!-- Node0&#45;&gt;Node1 -->
<g id="edge1" class="edge">
<title>Node0&#45;&gt;Node1</title>
<path fill="none" stroke="#191970" d="M620.2138,-343.5958C698.7644,-334.9848 945.5,-302.4859 945.5,-234 945.5,-234 945.5,-234 945.5,-178 945.5,-112.2333 855.8907,-82.9921 806.4084,-71.8586"/>
<polygon fill="#191970" stroke="#191970" points="807.0147,-68.4094 796.5052,-69.7511 805.5576,-75.256 807.0147,-68.4094"/>
</g>
<!-- Node2 -->
<g id="node3" class="node">
<title>Node2</title>
<g id="a_node3"><a xlink:href="Direction_8h.html" target="_top" xlink:title="iDynTree/Core/Direction.h">
<polygon fill="none" stroke="#000000" points="194,-168.5 194,-187.5 335,-187.5 335,-168.5 194,-168.5"/>
<text text-anchor="middle" x="264.5" y="-175.5" font-family="FreeSans.ttf" font-size="10.00" fill="#000000">iDynTree/Core/Direction.h</text>
</a>
</g>
</g>
<!-- Node0&#45;&gt;Node2 -->
<g id="edge2" class="edge">
<title>Node0&#45;&gt;Node2</title>
<path fill="none" stroke="#191970" d="M577.699,-336.4862C522.1333,-308.3686 358.4452,-225.5385 292.5019,-192.1696"/>
<polygon fill="#191970" stroke="#191970" points="294.0093,-189.0099 283.5063,-187.6177 290.8487,-195.2557 294.0093,-189.0099"/>
</g>
<!-- Node4 -->
<g id="node5" class="node">
<title>Node4</title>
<g id="a_node5"><a xlink:href="Utils_8h.html" target="_top" xlink:title="iDynTree/Core/Utils.h">
<polygon fill="none" stroke="#000000" points="54,-56.5 54,-75.5 173,-75.5 173,-56.5 54,-56.5"/>
<text text-anchor="middle" x="113.5" y="-63.5" font-family="FreeSans.ttf" font-size="10.00" fill="#000000">iDynTree/Core/Utils.h</text>
</a>
</g>
</g>
<!-- Node0&#45;&gt;Node4 -->
<g id="edge44" class="edge">
<title>Node0&#45;&gt;Node4</title>
<path fill="none" stroke="#191970" d="M572.7599,-343.4678C470.8371,-332.2837 75.5,-285.5787 75.5,-234 75.5,-234 75.5,-234 75.5,-178 75.5,-143.6118 91.7634,-106.2832 103.011,-84.5791"/>
<polygon fill="#191970" stroke="#191970" points="106.2317,-85.9804 107.893,-75.5166 100.069,-82.6605 106.2317,-85.9804"/>
</g>
<!-- Node17 -->
<g id="node18" class="node">
<title>Node17</title>
<g id="a_node18"><a xlink:href="Position_8h.html" target="_top" xlink:title="iDynTree/Core/Position.h">
<polygon fill="none" stroke="#000000" points="597.5,-280.5 597.5,-299.5 733.5,-299.5 733.5,-280.5 597.5,-280.5"/>
<text text-anchor="middle" x="665.5" y="-287.5" font-family="FreeSans.ttf" font-size="10.00" fill="#000000">iDynTree/Core/Position.h</text>
</a>
</g>
</g>
<!-- Node0&#45;&gt;Node17 -->
<g id="edge22" class="edge">
<title>Node0&#45;&gt;Node17</title>
<path fill="none" stroke="#191970" d="M608.5189,-336.2455C618.7098,-327.9746 633.5362,-315.9416 645.5107,-306.2232"/>
<polygon fill="#191970" stroke="#191970" points="648.0598,-308.662 653.6188,-299.6427 643.6486,-303.2268 648.0598,-308.662"/>
</g>
<!-- Node2&#45;&gt;Node1 -->
<g id="edge3" class="edge">
<title>Node2&#45;&gt;Node1</title>
<path fill="none" stroke="#191970" d="M335.0114,-172.8558C449.4147,-164.1623 666.0185,-146.1308 698.5,-132 723.3782,-121.177 746.0328,-99.2079 760.0112,-83.5921"/>
<polygon fill="#191970" stroke="#191970" points="762.9559,-85.5374 766.8434,-75.6815 757.6582,-80.9619 762.9559,-85.5374"/>
</g>
<!-- Node3 -->
<g id="node4" class="node">
<title>Node3</title>
<g id="a_node4"><a xlink:href="VectorFixSize_8h.html" target="_top" xlink:title="iDynTree/Core/VectorFixSize.h">
<polygon fill="none" stroke="#000000" points="142,-112.5 142,-131.5 303,-131.5 303,-112.5 142,-112.5"/>
<text text-anchor="middle" x="222.5" y="-119.5" font-family="FreeSans.ttf" font-size="10.00" fill="#000000">iDynTree/Core/VectorFixSize.h</text>
</a>
</g>
</g>
<!-- Node2&#45;&gt;Node3 -->
<g id="edge4" class="edge">
<title>Node2&#45;&gt;Node3</title>
<path fill="none" stroke="#191970" d="M257.1842,-168.2455C251.2821,-160.3761 242.8258,-149.101 235.7406,-139.6542"/>
<polygon fill="#191970" stroke="#191970" points="238.5321,-137.5427 229.732,-131.6427 232.932,-141.7427 238.5321,-137.5427"/>
</g>
<!-- Node2&#45;&gt;Node4 -->
<g id="edge21" class="edge">
<title>Node2&#45;&gt;Node4</title>
<path fill="none" stroke="#191970" d="M200.2042,-168.465C176.0953,-161.8858 150.2661,-150.7715 132.5,-132 120.7436,-119.5782 116.1966,-100.3564 114.471,-85.8543"/>
<polygon fill="#191970" stroke="#191970" points="117.9574,-85.5455 113.6286,-75.8753 110.9823,-86.1343 117.9574,-85.5455"/>
</g>
<!-- Node3&#45;&gt;Node1 -->
<g id="edge17" class="edge">
<title>Node3&#45;&gt;Node1</title>
<path fill="none" stroke="#191970" d="M303.4483,-112.9616C306.504,-112.6345 309.5294,-112.3129 312.5,-112 473.7122,-95.0186 666.7524,-76.3293 742.1228,-69.0954"/>
<polygon fill="#191970" stroke="#191970" points="742.7512,-72.5513 752.3715,-68.1128 742.083,-65.5833 742.7512,-72.5513"/>
</g>
<!-- Node3&#45;&gt;Node4 -->
<g id="edge5" class="edge">
<title>Node3&#45;&gt;Node4</title>
<path fill="none" stroke="#191970" d="M203.5136,-112.2455C186.3208,-103.4125 160.7762,-90.2887 141.2868,-80.2758"/>
<polygon fill="#191970" stroke="#191970" points="142.763,-77.0993 132.2688,-75.6427 139.5641,-83.3257 142.763,-77.0993"/>
</g>
<!-- Node6 -->
<g id="node7" class="node">
<title>Node6</title>
<g id="a_node7"><a xlink:href="Span_8h.html" target="_top" xlink:title="iDynTree/Core/Span.h">
<polygon fill="none" stroke="#000000" points="192,-56.5 192,-75.5 313,-75.5 313,-56.5 192,-56.5"/>
<text text-anchor="middle" x="252.5" y="-63.5" font-family="FreeSans.ttf" font-size="10.00" fill="#000000">iDynTree/Core/Span.h</text>
</a>
</g>
</g>
<!-- Node3&#45;&gt;Node6 -->
<g id="edge7" class="edge">
<title>Node3&#45;&gt;Node6</title>
<path fill="none" stroke="#191970" d="M227.7256,-112.2455C231.8123,-104.617 237.6135,-93.7881 242.575,-84.5267"/>
<polygon fill="#191970" stroke="#191970" points="245.6972,-86.1103 247.3343,-75.6427 239.5268,-82.8047 245.6972,-86.1103"/>
</g>
<!-- Node7 -->
<g id="node8" class="node">
<title>Node7</title>
<polygon fill="none" stroke="#bfbfbf" points="581.5,-.5 581.5,-19.5 633.5,-19.5 633.5,-.5 581.5,-.5"/>
<text text-anchor="middle" x="607.5" y="-7.5" font-family="FreeSans.ttf" font-size="10.00" fill="#000000">cassert</text>
</g>
<!-- Node3&#45;&gt;Node7 -->
<g id="edge19" class="edge">
<title>Node3&#45;&gt;Node7</title>
<path fill="none" stroke="#191970" d="M242.9224,-112.4722C281.1279,-94.6715 360.1481,-57.9745 366.5,-56 452.2202,-29.3534 480.0182,-39.9956 571.2718,-20.0679"/>
<polygon fill="#191970" stroke="#191970" points="572.2153,-23.4432 581.2037,-17.8344 570.6795,-16.6138 572.2153,-23.4432"/>
</g>
<!-- Node15 -->
<g id="node16" class="node">
<title>Node15</title>
<polygon fill="none" stroke="#bfbfbf" points="445.5,-56.5 445.5,-75.5 501.5,-75.5 501.5,-56.5 445.5,-56.5"/>
<text text-anchor="middle" x="473.5" y="-63.5" font-family="FreeSans.ttf" font-size="10.00" fill="#000000">sstream</text>
</g>
<!-- Node3&#45;&gt;Node15 -->
<g id="edge18" class="edge">
<title>Node3&#45;&gt;Node15</title>
<path fill="none" stroke="#191970" d="M268.9312,-112.446C311.9576,-103.4692 377.6924,-89.4412 434.5,-76 434.8316,-75.9215 435.1647,-75.8424 435.4992,-75.7628"/>
<polygon fill="#191970" stroke="#191970" points="436.5313,-79.1135 445.4119,-73.3355 434.8664,-72.3144 436.5313,-79.1135"/>
</g>
<!-- Node16 -->
<g id="node17" class="node">
<title>Node16</title>
<polygon fill="none" stroke="#bfbfbf" points="375.5,-56.5 375.5,-75.5 425.5,-75.5 425.5,-56.5 375.5,-56.5"/>
<text text-anchor="middle" x="400.5" y="-63.5" font-family="FreeSans.ttf" font-size="10.00" fill="#000000">cstring</text>
</g>
<!-- Node3&#45;&gt;Node16 -->
<g id="edge20" class="edge">
<title>Node3&#45;&gt;Node16</title>
<path fill="none" stroke="#191970" d="M253.0993,-112.3733C284.4476,-102.5109 333.1029,-87.2036 365.8501,-76.9011"/>
<polygon fill="#191970" stroke="#191970" points="366.9769,-80.2158 375.4656,-73.876 364.8761,-73.5384 366.9769,-80.2158"/>
</g>
<!-- Node5 -->
<g id="node6" class="node">
<title>Node5</title>
<polygon fill="none" stroke="#bfbfbf" points="0,-.5 0,-19.5 53,-19.5 53,-.5 0,-.5"/>
<text text-anchor="middle" x="26.5" y="-7.5" font-family="FreeSans.ttf" font-size="10.00" fill="#000000">cstddef</text>
</g>
<!-- Node4&#45;&gt;Node5 -->
<g id="edge6" class="edge">
<title>Node4&#45;&gt;Node5</title>
<path fill="none" stroke="#191970" d="M98.3458,-56.2455C84.9973,-47.6534 65.3414,-35.0014 49.9617,-25.1018"/>
<polygon fill="#191970" stroke="#191970" points="51.7836,-22.1121 41.4806,-19.6427 47.9949,-27.9982 51.7836,-22.1121"/>
</g>
<!-- Node6&#45;&gt;Node5 -->
<g id="edge11" class="edge">
<title>Node6&#45;&gt;Node5</title>
<path fill="none" stroke="#191970" d="M211.2606,-56.4351C174.8159,-47.8885 119.9845,-34.8028 63.0996,-20.0946"/>
<polygon fill="#191970" stroke="#191970" points="63.7683,-16.6522 53.2096,-17.5262 62.0088,-23.4275 63.7683,-16.6522"/>
</g>
<!-- Node6&#45;&gt;Node7 -->
<g id="edge8" class="edge">
<title>Node6&#45;&gt;Node7</title>
<path fill="none" stroke="#191970" d="M313.1196,-57.738C392.1132,-46.908 524.8486,-28.4723 571.3451,-19.8822"/>
<polygon fill="#191970" stroke="#191970" points="572.096,-23.3015 581.2229,-17.921 570.7328,-16.4355 572.096,-23.3015"/>
</g>
<!-- Node8 -->
<g id="node9" class="node">
<title>Node8</title>
<polygon fill="none" stroke="#bfbfbf" points="367.5,-.5 367.5,-19.5 431.5,-19.5 431.5,-.5 367.5,-.5"/>
<text text-anchor="middle" x="399.5" y="-7.5" font-family="FreeSans.ttf" font-size="10.00" fill="#000000">algorithm</text>
</g>
<!-- Node6&#45;&gt;Node8 -->
<g id="edge9" class="edge">
<title>Node6&#45;&gt;Node8</title>
<path fill="none" stroke="#191970" d="M277.7702,-56.3733C301.8966,-47.1822 338.4362,-33.2624 365.1877,-23.0713"/>
<polygon fill="#191970" stroke="#191970" points="366.4607,-26.3318 374.5596,-19.5011 363.9687,-19.7904 366.4607,-26.3318"/>
</g>
<!-- Node9 -->
<g id="node10" class="node">
<title>Node9</title>
<polygon fill="none" stroke="#bfbfbf" points="449.5,-.5 449.5,-19.5 491.5,-19.5 491.5,-.5 449.5,-.5"/>
<text text-anchor="middle" x="470.5" y="-7.5" font-family="FreeSans.ttf" font-size="10.00" fill="#000000">array</text>
</g>
<!-- Node6&#45;&gt;Node9 -->
<g id="edge10" class="edge">
<title>Node6&#45;&gt;Node9</title>
<path fill="none" stroke="#191970" d="M295.6981,-56.4878C331.8069,-48.3001 384.8363,-35.7288 439.4171,-20.1553"/>
<polygon fill="#191970" stroke="#191970" points="440.6223,-23.4505 449.2619,-17.318 438.6837,-16.7243 440.6223,-23.4505"/>
</g>
<!-- Node10 -->
<g id="node11" class="node">
<title>Node10</title>
<polygon fill="none" stroke="#bfbfbf" points="510,-.5 510,-19.5 563,-19.5 563,-.5 510,-.5"/>
<text text-anchor="middle" x="536.5" y="-7.5" font-family="FreeSans.ttf" font-size="10.00" fill="#000000">iterator</text>
</g>
<!-- Node6&#45;&gt;Node10 -->
<g id="edge12" class="edge">
<title>Node6&#45;&gt;Node10</title>
<path fill="none" stroke="#191970" d="M311.9295,-56.4804C360.0929,-48.423 429.8892,-35.9746 499.9455,-19.9701"/>
<polygon fill="#191970" stroke="#191970" points="500.8737,-23.348 509.8302,-17.6883 499.2992,-16.5274 500.8737,-23.348"/>
</g>
<!-- Node11 -->
<g id="node12" class="node">
<title>Node11</title>
<polygon fill="none" stroke="#bfbfbf" points="71.5,-.5 71.5,-19.5 115.5,-19.5 115.5,-.5 71.5,-.5"/>
<text text-anchor="middle" x="93.5" y="-7.5" font-family="FreeSans.ttf" font-size="10.00" fill="#000000">limits</text>
</g>
<!-- Node6&#45;&gt;Node11 -->
<g id="edge13" class="edge">
<title>Node6&#45;&gt;Node11</title>
<path fill="none" stroke="#191970" d="M225.1669,-56.3733C197.5269,-46.6384 154.8244,-31.5985 125.5931,-21.3032"/>
<polygon fill="#191970" stroke="#191970" points="126.457,-17.8968 115.8622,-17.876 124.1316,-24.4993 126.457,-17.8968"/>
</g>
<!-- Node12 -->
<g id="node13" class="node">
<title>Node12</title>
<polygon fill="none" stroke="#bfbfbf" points="134,-.5 134,-19.5 199,-19.5 199,-.5 134,-.5"/>
<text text-anchor="middle" x="166.5" y="-7.5" font-family="FreeSans.ttf" font-size="10.00" fill="#000000">stdexcept</text>
</g>
<!-- Node6&#45;&gt;Node12 -->
<g id="edge14" class="edge">
<title>Node6&#45;&gt;Node12</title>
<path fill="none" stroke="#191970" d="M237.5199,-56.2455C224.3249,-47.6534 204.8949,-35.0014 189.6921,-25.1018"/>
<polygon fill="#191970" stroke="#191970" points="191.5983,-22.1665 181.3084,-19.6427 187.7785,-28.0325 191.5983,-22.1665"/>
</g>
<!-- Node13 -->
<g id="node14" class="node">
<title>Node13</title>
<polygon fill="none" stroke="#bfbfbf" points="217,-.5 217,-19.5 286,-19.5 286,-.5 217,-.5"/>
<text text-anchor="middle" x="251.5" y="-7.5" font-family="FreeSans.ttf" font-size="10.00" fill="#000000">type_traits</text>
</g>
<!-- Node6&#45;&gt;Node13 -->
<g id="edge15" class="edge">
<title>Node6&#45;&gt;Node13</title>
<path fill="none" stroke="#191970" d="M252.3258,-56.2455C252.1953,-48.9382 252.0124,-38.6944 251.8519,-29.7046"/>
<polygon fill="#191970" stroke="#191970" points="255.3503,-29.5786 251.6722,-19.6427 248.3514,-29.7036 255.3503,-29.5786"/>
</g>
<!-- Node14 -->
<g id="node15" class="node">
<title>Node14</title>
<polygon fill="none" stroke="#bfbfbf" points="304,-.5 304,-19.5 349,-19.5 349,-.5 304,-.5"/>
<text text-anchor="middle" x="326.5" y="-7.5" font-family="FreeSans.ttf" font-size="10.00" fill="#000000">utility</text>
</g>
<!-- Node6&#45;&gt;Node14 -->
<g id="edge16" class="edge">
<title>Node6&#45;&gt;Node14</title>
<path fill="none" stroke="#191970" d="M265.3898,-56.2455C276.4254,-47.8943 292.5292,-35.7076 305.4353,-25.9408"/>
<polygon fill="#191970" stroke="#191970" points="307.8959,-28.4681 313.7579,-19.6427 303.6717,-22.8862 307.8959,-28.4681"/>
</g>
<!-- Node17&#45;&gt;Node1 -->
<g id="edge43" class="edge">
<title>Node17&#45;&gt;Node1</title>
<path fill="none" stroke="#191970" d="M733.5079,-285.3038C792.0398,-279.6778 870.0548,-267.8442 889.5,-244 917.2951,-209.9169 945.1961,-237.2742 842.5,-112 831.9278,-99.1035 816.8156,-88.3868 803.5215,-80.5513"/>
<polygon fill="#191970" stroke="#191970" points="805.1204,-77.4352 794.6865,-75.5956 801.6959,-83.5404 805.1204,-77.4352"/>
</g>
<!-- Node18 -->
<g id="node19" class="node">
<title>Node18</title>
<g id="a_node19"><a xlink:href="PositionRaw_8h.html" target="_top" xlink:title="iDynTree/Core/PositionRaw.h">
<polygon fill="none" stroke="#000000" points="685.5,-168.5 685.5,-187.5 841.5,-187.5 841.5,-168.5 685.5,-168.5"/>
<text text-anchor="middle" x="763.5" y="-175.5" font-family="FreeSans.ttf" font-size="10.00" fill="#000000">iDynTree/Core/PositionRaw.h</text>
</a>
</g>
</g>
<!-- Node17&#45;&gt;Node18 -->
<g id="edge23" class="edge">
<title>Node17&#45;&gt;Node18</title>
<path fill="none" stroke="#191970" d="M666.0416,-280.4795C667.2743,-266.6817 671.3086,-240.9302 684.5,-224 695.4861,-209.9001 712.0961,-199.3032 727.2552,-191.8561"/>
<polygon fill="#191970" stroke="#191970" points="728.8252,-194.9864 736.4432,-187.6231 725.8961,-188.6287 728.8252,-194.9864"/>
</g>
<!-- Node19 -->
<g id="node20" class="node">
<title>Node19</title>
<g id="a_node20"><a xlink:href="PositionSemantics_8h.html" target="_top" xlink:title="iDynTree/Core/PositionSemantics.h">
<polygon fill="none" stroke="#000000" points="693,-224.5 693,-243.5 880,-243.5 880,-224.5 693,-224.5"/>
<text text-anchor="middle" x="786.5" y="-231.5" font-family="FreeSans.ttf" font-size="10.00" fill="#000000">iDynTree/Core/PositionSemantics.h</text>
</a>
</g>
</g>
<!-- Node17&#45;&gt;Node19 -->
<g id="edge26" class="edge">
<title>Node17&#45;&gt;Node19</title>
<path fill="none" stroke="#191970" d="M686.3006,-280.3733C705.7243,-271.3838 734.9224,-257.8706 756.7964,-247.7471"/>
<polygon fill="#191970" stroke="#191970" points="758.3656,-250.8776 765.9708,-243.5011 755.4255,-244.5249 758.3656,-250.8776"/>
</g>
<!-- Node20 -->
<g id="node21" class="node">
<title>Node20</title>
<g id="a_node21"><a xlink:href="Rotation_8h.html" target="_top" xlink:title="iDynTree/Core/Rotation.h">
<polygon fill="none" stroke="#000000" points="482,-224.5 482,-243.5 619,-243.5 619,-224.5 482,-224.5"/>
<text text-anchor="middle" x="550.5" y="-231.5" font-family="FreeSans.ttf" font-size="10.00" fill="#000000">iDynTree/Core/Rotation.h</text>
</a>
</g>
</g>
<!-- Node17&#45;&gt;Node20 -->
<g id="edge28" class="edge">
<title>Node17&#45;&gt;Node20</title>
<path fill="none" stroke="#191970" d="M645.7308,-280.3733C627.3531,-271.4241 599.7688,-257.9917 579.0107,-247.8835"/>
<polygon fill="#191970" stroke="#191970" points="580.5343,-244.7325 570.0112,-243.5011 577.4696,-251.026 580.5343,-244.7325"/>
</g>
<!-- Node18&#45;&gt;Node1 -->
<g id="edge25" class="edge">
<title>Node18&#45;&gt;Node1</title>
<path fill="none" stroke="#191970" d="M777.1336,-168.4516C787.6548,-160.1822 801.4091,-147.1795 807.5,-132 814.3743,-114.8682 803.055,-96.1122 791.8453,-82.9881"/>
<polygon fill="#191970" stroke="#191970" points="794.3946,-80.5897 785.0434,-75.6091 789.2477,-85.3341 794.3946,-80.5897"/>
</g>
<!-- Node18&#45;&gt;Node3 -->
<g id="edge24" class="edge">
<title>Node18&#45;&gt;Node3</title>
<path fill="none" stroke="#191970" d="M685.2615,-170.2359C597.4959,-161.4775 450.5871,-146.6708 313.7057,-132.1209"/>
<polygon fill="#191970" stroke="#191970" points="313.7636,-128.6074 303.4493,-131.0292 313.0226,-135.5681 313.7636,-128.6074"/>
</g>
<!-- Node19&#45;&gt;Node1 -->
<g id="edge27" class="edge">
<title>Node19&#45;&gt;Node1</title>
<path fill="none" stroke="#191970" d="M809.266,-224.3999C823.9597,-216.8573 841.8842,-204.8029 850.5,-188 854.5557,-180.0903 852.5422,-176.6511 850.5,-168 844.1068,-140.9178 839.0097,-134.3998 822.5,-112 814.4493,-101.077 803.67,-90.4854 794.3661,-82.2243"/>
<polygon fill="#191970" stroke="#191970" points="796.5407,-79.4782 786.6754,-75.6147 791.9782,-84.787 796.5407,-79.4782"/>
</g>
<!-- Node20&#45;&gt;Node1 -->
<g id="edge29" class="edge">
<title>Node20&#45;&gt;Node1</title>
<path fill="none" stroke="#191970" d="M569.0492,-224.3231C586.8639,-215.0248 614.5316,-200.5719 638.5,-188 655.4014,-179.1349 659.3854,-176.4462 676.5,-168 710.7384,-151.103 729.4302,-160.7973 754.5,-132 765.6658,-119.1741 770.598,-100.2644 772.7767,-85.9695"/>
<polygon fill="#191970" stroke="#191970" points="776.2926,-86.0429 774,-75.6991 769.3417,-85.2149 776.2926,-86.0429"/>
</g>
<!-- Node20&#45;&gt;Node3 -->
<g id="edge42" class="edge">
<title>Node20&#45;&gt;Node3</title>
<path fill="none" stroke="#191970" d="M522.5349,-224.4509C463.5923,-204.3242 326.5706,-157.5363 260.0597,-134.8253"/>
<polygon fill="#191970" stroke="#191970" points="260.9888,-131.4442 250.3943,-131.5249 258.7268,-138.0686 260.9888,-131.4442"/>
</g>
<!-- Node21 -->
<g id="node22" class="node">
<title>Node21</title>
<g id="a_node22"><a xlink:href="RotationRaw_8h.html" target="_top" xlink:title="iDynTree/Core/RotationRaw.h">
<polygon fill="none" stroke="#000000" points="471.5,-168.5 471.5,-187.5 629.5,-187.5 629.5,-168.5 471.5,-168.5"/>
<text text-anchor="middle" x="550.5" y="-175.5" font-family="FreeSans.ttf" font-size="10.00" fill="#000000">iDynTree/Core/RotationRaw.h</text>
</a>
</g>
</g>
<!-- Node20&#45;&gt;Node21 -->
<g id="edge30" class="edge">
<title>Node20&#45;&gt;Node21</title>
<path fill="none" stroke="#191970" d="M550.5,-224.2455C550.5,-216.9382 550.5,-206.6944 550.5,-197.7046"/>
<polygon fill="#191970" stroke="#191970" points="554.0001,-197.6426 550.5,-187.6427 547.0001,-197.6427 554.0001,-197.6426"/>
</g>
<!-- Node24 -->
<g id="node25" class="node">
<title>Node24</title>
<g id="a_node25"><a xlink:href="RotationSemantics_8h.html" target="_top" xlink:title="iDynTree/Core/RotationSemantics.h">
<polygon fill="none" stroke="#000000" points="321.5,-112.5 321.5,-131.5 509.5,-131.5 509.5,-112.5 321.5,-112.5"/>
<text text-anchor="middle" x="415.5" y="-119.5" font-family="FreeSans.ttf" font-size="10.00" fill="#000000">iDynTree/Core/RotationSemantics.h</text>
</a>
</g>
</g>
<!-- Node20&#45;&gt;Node24 -->
<g id="edge39" class="edge">
<title>Node20&#45;&gt;Node24</title>
<path fill="none" stroke="#191970" d="M525.0623,-224.4914C506.3655,-216.6514 481.0851,-204.1962 462.5,-188 446.9903,-174.4839 433.8622,-154.8705 425.4565,-140.5377"/>
<polygon fill="#191970" stroke="#191970" points="428.3782,-138.593 420.4203,-131.5985 422.2794,-142.029 428.3782,-138.593"/>
</g>
<!-- Node21&#45;&gt;Node1 -->
<g id="edge38" class="edge">
<title>Node21&#45;&gt;Node1</title>
<path fill="none" stroke="#191970" d="M605.9235,-168.4928C651.4088,-159.8678 711.4611,-146.3397 731.5,-132 747.9459,-120.2314 759.7398,-100.0369 766.7687,-85.0775"/>
<polygon fill="#191970" stroke="#191970" points="770.0592,-86.2889 770.8722,-75.7253 763.6491,-83.4763 770.0592,-86.2889"/>
</g>
<!-- Node22 -->
<g id="node23" class="node">
<title>Node22</title>
<g id="a_node23"><a xlink:href="MatrixFixSize_8h.html" target="_top" xlink:title="iDynTree/Core/MatrixFixSize.h">
<polygon fill="none" stroke="#000000" points="528,-112.5 528,-131.5 689,-131.5 689,-112.5 528,-112.5"/>
<text text-anchor="middle" x="608.5" y="-119.5" font-family="FreeSans.ttf" font-size="10.00" fill="#000000">iDynTree/Core/MatrixFixSize.h</text>
</a>
</g>
</g>
<!-- Node21&#45;&gt;Node22 -->
<g id="edge31" class="edge">
<title>Node21&#45;&gt;Node22</title>
<path fill="none" stroke="#191970" d="M560.6028,-168.2455C569.0028,-160.1352 581.1494,-148.4075 591.1084,-138.7919"/>
<polygon fill="#191970" stroke="#191970" points="593.75,-141.1066 598.5129,-131.6427 588.8878,-136.0707 593.75,-141.1066"/>
</g>
<!-- Node22&#45;&gt;Node1 -->
<g id="edge35" class="edge">
<title>Node22&#45;&gt;Node1</title>
<path fill="none" stroke="#191970" d="M637.0364,-112.3733C666.4357,-102.4554 712.1574,-87.0313 742.6999,-76.7278"/>
<polygon fill="#191970" stroke="#191970" points="744.0738,-79.9581 752.4304,-73.4452 741.8362,-73.3254 744.0738,-79.9581"/>
</g>
<!-- Node22&#45;&gt;Node4 -->
<g id="edge32" class="edge">
<title>Node22&#45;&gt;Node4</title>
<path fill="none" stroke="#191970" d="M527.5486,-112.9903C524.4938,-112.6551 521.4694,-112.324 518.5,-112 372.406,-96.0573 333.181,-94.8211 183.3519,-76.0694"/>
<polygon fill="#191970" stroke="#191970" points="183.6791,-72.583 173.3207,-74.8085 182.8061,-79.5284 183.6791,-72.583"/>
</g>
<!-- Node22&#45;&gt;Node7 -->
<g id="edge33" class="edge">
<title>Node22&#45;&gt;Node7</title>
<path fill="none" stroke="#191970" d="M608.4147,-112.4509C608.2516,-94.184 607.8925,-53.9553 607.6759,-29.6976"/>
<polygon fill="#191970" stroke="#191970" points="611.1743,-29.4932 607.585,-19.5249 604.1746,-29.5558 611.1743,-29.4932"/>
</g>
<!-- Node22&#45;&gt;Node15 -->
<g id="edge37" class="edge">
<title>Node22&#45;&gt;Node15</title>
<path fill="none" stroke="#191970" d="M585.2927,-112.3733C563.3301,-103.2629 530.1668,-89.5062 505.6599,-79.3404"/>
<polygon fill="#191970" stroke="#191970" points="506.9824,-76.0999 496.4045,-75.5011 504.3003,-82.5657 506.9824,-76.0999"/>
</g>
<!-- Node22&#45;&gt;Node16 -->
<g id="edge34" class="edge">
<title>Node22&#45;&gt;Node16</title>
<path fill="none" stroke="#191970" d="M572.5651,-112.4972C537.7493,-103.2649 483.4702,-88.8042 436.5,-76 436.1714,-75.9104 435.8412,-75.8203 435.5095,-75.7298"/>
<polygon fill="#191970" stroke="#191970" points="436.2386,-72.3004 425.6685,-73.0245 434.3831,-79.05 436.2386,-72.3004"/>
</g>
<!-- Node23 -->
<g id="node24" class="node">
<title>Node23</title>
<polygon fill="none" stroke="#bfbfbf" points="520.5,-56.5 520.5,-75.5 580.5,-75.5 580.5,-56.5 520.5,-56.5"/>
<text text-anchor="middle" x="550.5" y="-63.5" font-family="FreeSans.ttf" font-size="10.00" fill="#000000">iostream</text>
</g>
<!-- Node22&#45;&gt;Node23 -->
<g id="edge36" class="edge">
<title>Node22&#45;&gt;Node23</title>
<path fill="none" stroke="#191970" d="M598.3972,-112.2455C589.9972,-104.1352 577.8506,-92.4075 567.8916,-82.7919"/>
<polygon fill="#191970" stroke="#191970" points="570.1122,-80.0707 560.4871,-75.6427 565.25,-85.1066 570.1122,-80.0707"/>
</g>
<!-- Node24&#45;&gt;Node1 -->
<g id="edge40" class="edge">
<title>Node24&#45;&gt;Node1</title>
<path fill="none" stroke="#191970" d="M476.8064,-112.4369C553.6968,-100.4428 682.6741,-80.3238 742.3797,-71.0104"/>
<polygon fill="#191970" stroke="#191970" points="743.0177,-74.4533 752.3587,-69.4538 741.9387,-67.5369 743.0177,-74.4533"/>
</g>
<!-- Node24&#45;&gt;Node4 -->
<g id="edge41" class="edge">
<title>Node24&#45;&gt;Node4</title>
<path fill="none" stroke="#191970" d="M363.9275,-112.4369C311.591,-102.7321 230.568,-87.708 174.9388,-77.3926"/>
<polygon fill="#191970" stroke="#191970" points="175.3303,-73.9056 164.8598,-75.5237 174.054,-80.7883 175.3303,-73.9056"/>
</g>
</g>
</svg>
