<?xml version="1.0" encoding="UTF-8" standalone="no"?>
<!DOCTYPE svg PUBLIC "-//W3C//DTD SVG 1.1//EN"
 "http://www.w3.org/Graphics/SVG/1.1/DTD/svg11.dtd">
<!-- Generated by graphviz version 2.40.1 (20161225.0304)
 -->
<!-- Title: BerdyHelper.h Pages: 1 -->
<svg width="272pt" height="84pt"
 viewBox="0.00 0.00 272.00 84.00" xmlns="http://www.w3.org/2000/svg" xmlns:xlink="http://www.w3.org/1999/xlink">
<g id="graph0" class="graph" transform="scale(1 1) rotate(0) translate(4 80)">
<title>BerdyHelper.h</title>
<!-- Node64 -->
<g id="node1" class="node">
<title>Node64</title>
<polygon fill="#bfbfbf" stroke="#000000" points="75.5,-56.5 75.5,-75.5 161.5,-75.5 161.5,-56.5 75.5,-56.5"/>
<text text-anchor="middle" x="118.5" y="-63.5" font-family="FreeSans.ttf" font-size="10.00" fill="#000000">BerdyHelper.h</text>
</g>
<!-- Node65 -->
<g id="node2" class="node">
<title>Node65</title>
<g id="a_node2"><a xlink:href="BerdyHelper_8cpp.html" target="_top" xlink:title="BerdyHelper.cpp">
<polygon fill="none" stroke="#000000" points="0,-.5 0,-19.5 97,-19.5 97,-.5 0,-.5"/>
<text text-anchor="middle" x="48.5" y="-7.5" font-family="FreeSans.ttf" font-size="10.00" fill="#000000">BerdyHelper.cpp</text>
</a>
</g>
</g>
<!-- Node64&#45;&gt;Node65 -->
<g id="edge1" class="edge">
<title>Node64&#45;&gt;Node65</title>
<path fill="none" stroke="#191970" d="M98.41,-49.928C86.1747,-40.1397 70.9493,-27.9595 60.5533,-19.6427"/>
<polygon fill="#191970" stroke="#191970" points="96.3118,-52.7316 106.3069,-56.2455 100.6847,-47.2655 96.3118,-52.7316"/>
</g>
<!-- Node66 -->
<g id="node3" class="node">
<title>Node66</title>
<g id="a_node3"><a xlink:href="BerdySparseMAPSolver_8cpp.html" target="_top" xlink:title="BerdySparseMAPSolver.cpp">
<polygon fill="none" stroke="#000000" points="115,-.5 115,-19.5 264,-19.5 264,-.5 115,-.5"/>
<text text-anchor="middle" x="189.5" y="-7.5" font-family="FreeSans.ttf" font-size="10.00" fill="#000000">BerdySparseMAPSolver.cpp</text>
</a>
</g>
</g>
<!-- Node64&#45;&gt;Node66 -->
<g id="edge2" class="edge">
<title>Node64&#45;&gt;Node66</title>
<path fill="none" stroke="#191970" d="M138.877,-49.928C151.2871,-40.1397 166.73,-27.9595 177.2745,-19.6427"/>
<polygon fill="#191970" stroke="#191970" points="136.5514,-47.3046 130.8673,-56.2455 140.8864,-52.8007 136.5514,-47.3046"/>
</g>
</g>
</svg>
