<?xml version="1.0" encoding="UTF-8" standalone="no"?>
<!DOCTYPE svg PUBLIC "-//W3C//DTD SVG 1.1//EN"
 "http://www.w3.org/Graphics/SVG/1.1/DTD/svg11.dtd">
<!-- Generated by graphviz version 2.40.1 (20161225.0304)
 -->
<!-- Title: BerdyHelper.cpp Pages: 1 -->
<svg width="2940pt" height="710pt"
 viewBox="0.00 0.00 2940.00 710.00" xmlns="http://www.w3.org/2000/svg" xmlns:xlink="http://www.w3.org/1999/xlink">
<g id="graph0" class="graph" transform="scale(1 1) rotate(0) translate(4 706)">
<title>BerdyHelper.cpp</title>
<!-- Node0 -->
<g id="node1" class="node">
<title>Node0</title>
<polygon fill="#bfbfbf" stroke="#000000" points="1889.5,-682.5 1889.5,-701.5 1986.5,-701.5 1986.5,-682.5 1889.5,-682.5"/>
<text text-anchor="middle" x="1938" y="-689.5" font-family="FreeSans.ttf" font-size="10.00" fill="#000000">BerdyHelper.cpp</text>
</g>
<!-- Node1 -->
<g id="node2" class="node">
<title>Node1</title>
<g id="a_node2"><a xlink:href="BerdyHelper_8h.html" target="_top" xlink:title="iDynTree/Estimation\l/BerdyHelper.h">
<polygon fill="none" stroke="#000000" points="1719.5,-548.5 1719.5,-578.5 1834.5,-578.5 1834.5,-548.5 1719.5,-548.5"/>
<text text-anchor="start" x="1727.5" y="-566.5" font-family="FreeSans.ttf" font-size="10.00" fill="#000000">iDynTree/Estimation</text>
<text text-anchor="middle" x="1777" y="-555.5" font-family="FreeSans.ttf" font-size="10.00" fill="#000000">/BerdyHelper.h</text>
</a>
</g>
</g>
<!-- Node0&#45;&gt;Node1 -->
<g id="edge1" class="edge">
<title>Node0&#45;&gt;Node1</title>
<path fill="none" stroke="#191970" d="M1925.8988,-682.3416C1900.172,-661.8081 1839.5024,-613.3855 1804.0545,-585.0932"/>
<polygon fill="#191970" stroke="#191970" points="1806.0455,-582.2042 1796.0464,-578.7016 1801.6789,-587.6752 1806.0455,-582.2042"/>
</g>
<!-- Node9 -->
<g id="node10" class="node">
<title>Node9</title>
<polygon fill="none" stroke="#bfbfbf" points="2701,-.5 2701,-19.5 2765,-19.5 2765,-.5 2701,-.5"/>
<text text-anchor="middle" x="2733" y="-7.5" font-family="FreeSans.ttf" font-size="10.00" fill="#000000">algorithm</text>
</g>
<!-- Node0&#45;&gt;Node9 -->
<g id="edge144" class="edge">
<title>Node0&#45;&gt;Node9</title>
<path fill="none" stroke="#191970" d="M1986.5135,-690.6497C2154.9555,-685.7847 2708.4154,-668.2577 2785,-646 2856.9425,-625.0914 2932,-638.4192 2932,-563.5 2932,-563.5 2932,-563.5 2932,-122 2932,-50.7547 2833.9342,-24.3439 2775.4855,-14.9298"/>
<polygon fill="#191970" stroke="#191970" points="2775.8257,-11.4416 2765.4157,-13.4119 2774.7823,-18.3634 2775.8257,-11.4416"/>
</g>
<!-- Node16 -->
<g id="node12" class="node">
<title>Node16</title>
<polygon fill="none" stroke="#bfbfbf" points="2147,-56.5 2147,-75.5 2203,-75.5 2203,-56.5 2147,-56.5"/>
<text text-anchor="middle" x="2175" y="-63.5" font-family="FreeSans.ttf" font-size="10.00" fill="#000000">sstream</text>
</g>
<!-- Node0&#45;&gt;Node16 -->
<g id="edge143" class="edge">
<title>Node0&#45;&gt;Node16</title>
<path fill="none" stroke="#191970" d="M1986.5211,-690.8855C2158.6382,-686.7266 2731.2631,-671.054 2761,-646 2789.775,-621.7564 2780,-601.1265 2780,-563.5 2780,-563.5 2780,-563.5 2780,-239.5 2780,-180.322 2346.7627,-97.0572 2213.5195,-72.8483"/>
<polygon fill="#191970" stroke="#191970" points="2213.8321,-69.3482 2203.3689,-71.0131 2212.5867,-76.2365 2213.8321,-69.3482"/>
</g>
<!-- Node51 -->
<g id="node26" class="node">
<title>Node51</title>
<g id="a_node26"><a xlink:href="Traversal_8h.html" target="_top" xlink:title="iDynTree/Model/Traversal.h">
<polygon fill="none" stroke="#000000" points="1212,-492.5 1212,-511.5 1360,-511.5 1360,-492.5 1212,-492.5"/>
<text text-anchor="middle" x="1286" y="-499.5" font-family="FreeSans.ttf" font-size="10.00" fill="#000000">iDynTree/Model/Traversal.h</text>
</a>
</g>
</g>
<!-- Node0&#45;&gt;Node51 -->
<g id="edge118" class="edge">
<title>Node0&#45;&gt;Node51</title>
<path fill="none" stroke="#191970" d="M1905.2204,-682.4477C1796.8404,-650.8645 1450.0563,-549.8078 1328.5481,-514.399"/>
<polygon fill="#191970" stroke="#191970" points="1329.4247,-511.0089 1318.8448,-511.5714 1327.4663,-517.7294 1329.4247,-511.0089"/>
</g>
<!-- Node54 -->
<g id="node30" class="node">
<title>Node54</title>
<g id="a_node30"><a xlink:href="Sensors_8h.html" target="_top" xlink:title="iDynTree/Sensors/Sensors.h">
<polygon fill="none" stroke="#000000" points="402.5,-492.5 402.5,-511.5 553.5,-511.5 553.5,-492.5 402.5,-492.5"/>
<text text-anchor="middle" x="478" y="-499.5" font-family="FreeSans.ttf" font-size="10.00" fill="#000000">iDynTree/Sensors/Sensors.h</text>
</a>
</g>
</g>
<!-- Node0&#45;&gt;Node54 -->
<g id="edge119" class="edge">
<title>Node0&#45;&gt;Node54</title>
<path fill="none" stroke="#191970" d="M1889.3108,-691.7238C1735.452,-690.4723 1246.054,-683.5929 843,-646 636.4153,-626.7318 516.7758,-735.8866 381,-579 371.9838,-568.582 373.6349,-559.644 381,-548 390.7861,-532.5285 407.3422,-522.1575 424.0327,-515.2507"/>
<polygon fill="#191970" stroke="#191970" points="425.6948,-518.3652 433.8252,-511.572 423.2331,-511.8123 425.6948,-518.3652"/>
</g>
<!-- Node55 -->
<g id="node31" class="node">
<title>Node55</title>
<g id="a_node31"><a xlink:href="Model_8h.html" target="_top" xlink:title="iDynTree/Model/Model.h">
<polygon fill="none" stroke="#000000" points="316.5,-431 316.5,-450 449.5,-450 449.5,-431 316.5,-431"/>
<text text-anchor="middle" x="383" y="-438" font-family="FreeSans.ttf" font-size="10.00" fill="#000000">iDynTree/Model/Model.h</text>
</a>
</g>
</g>
<!-- Node0&#45;&gt;Node55 -->
<g id="edge117" class="edge">
<title>Node0&#45;&gt;Node55</title>
<path fill="none" stroke="#191970" d="M1889.3889,-691.7491C1636.905,-690.2922 484.1871,-681.7007 418,-646 385.9862,-628.7321 381.9528,-613.6857 371,-579 358.0973,-538.1393 368.8625,-487.3406 376.6733,-460.0404"/>
<polygon fill="#191970" stroke="#191970" points="380.1102,-460.7674 379.6639,-450.182 373.4116,-458.7353 380.1102,-460.7674"/>
</g>
<!-- Node65 -->
<g id="node37" class="node">
<title>Node65</title>
<g id="a_node37"><a xlink:href="ClassicalAcc_8h.html" target="_top" xlink:title="iDynTree/Core/ClassicalAcc.h">
<polygon fill="none" stroke="#000000" points="2594,-621 2594,-640 2752,-640 2752,-621 2594,-621"/>
<text text-anchor="middle" x="2673" y="-628" font-family="FreeSans.ttf" font-size="10.00" fill="#000000">iDynTree/Core/ClassicalAcc.h</text>
</a>
</g>
</g>
<!-- Node0&#45;&gt;Node65 -->
<g id="edge92" class="edge">
<title>Node0&#45;&gt;Node65</title>
<path fill="none" stroke="#191970" d="M1986.8734,-690.0614C2094.398,-685.4539 2359.4619,-672.2207 2580,-646 2589.9963,-644.8115 2600.5569,-643.2995 2610.8338,-641.688"/>
<polygon fill="#191970" stroke="#191970" points="2611.6693,-645.0986 2620.9848,-640.0517 2610.5552,-638.1878 2611.6693,-645.0986"/>
</g>
<!-- Node66 -->
<g id="node38" class="node">
<title>Node66</title>
<g id="a_node38"><a xlink:href="EigenHelpers_8h.html" target="_top" xlink:title="iDynTree/Core/EigenHelpers.h">
<polygon fill="none" stroke="#000000" points="2458.5,-364 2458.5,-383 2619.5,-383 2619.5,-364 2458.5,-364"/>
<text text-anchor="middle" x="2539" y="-371" font-family="FreeSans.ttf" font-size="10.00" fill="#000000">iDynTree/Core/EigenHelpers.h</text>
</a>
</g>
</g>
<!-- Node0&#45;&gt;Node66 -->
<g id="edge94" class="edge">
<title>Node0&#45;&gt;Node66</title>
<path fill="none" stroke="#191970" d="M1965.2141,-682.4971C2043.4473,-654.5264 2274.2185,-567.4132 2444,-456 2473.7745,-436.4615 2504.1545,-408.3496 2522.2933,-390.5083"/>
<polygon fill="#191970" stroke="#191970" points="2525.1111,-392.6412 2529.7198,-383.1013 2520.1678,-387.6849 2525.1111,-392.6412"/>
</g>
<!-- Node68 -->
<g id="node41" class="node">
<title>Node68</title>
<g id="a_node41"><a xlink:href="SparseMatrix_8h.html" target="_top" xlink:title="iDynTree/Core/SparseMatrix.h">
<polygon fill="none" stroke="#000000" points="2240.5,-431 2240.5,-450 2401.5,-450 2401.5,-431 2240.5,-431"/>
<text text-anchor="middle" x="2321" y="-438" font-family="FreeSans.ttf" font-size="10.00" fill="#000000">iDynTree/Core/SparseMatrix.h</text>
</a>
</g>
</g>
<!-- Node0&#45;&gt;Node68 -->
<g id="edge105" class="edge">
<title>Node0&#45;&gt;Node68</title>
<path fill="none" stroke="#191970" d="M1952.5464,-682.448C2010.6076,-644.3216 2226.078,-502.8313 2297.6906,-455.8063"/>
<polygon fill="#191970" stroke="#191970" points="2300.0013,-458.4761 2306.4391,-450.0615 2296.159,-452.6249 2300.0013,-458.4761"/>
</g>
<!-- Node69 -->
<g id="node42" class="node">
<title>Node69</title>
<g id="a_node42"><a xlink:href="ForwardKinematics_8h.html" target="_top" xlink:title="iDynTree/Model/ForwardKinematics.h">
<polygon fill="none" stroke="#000000" points="38.5,-492.5 38.5,-511.5 235.5,-511.5 235.5,-492.5 38.5,-492.5"/>
<text text-anchor="middle" x="137" y="-499.5" font-family="FreeSans.ttf" font-size="10.00" fill="#000000">iDynTree/Model/ForwardKinematics.h</text>
</a>
</g>
</g>
<!-- Node0&#45;&gt;Node69 -->
<g id="edge110" class="edge">
<title>Node0&#45;&gt;Node69</title>
<path fill="none" stroke="#191970" d="M1889.1592,-691.5186C1625.9617,-688.8111 385.6321,-674.5726 310,-646 240.1633,-619.6168 178.2165,-552.4191 151.2749,-520.0146"/>
<polygon fill="#191970" stroke="#191970" points="153.6585,-517.3993 144.6268,-511.8604 148.2331,-521.8226 153.6585,-517.3993"/>
</g>
<!-- Node70 -->
<g id="node43" class="node">
<title>Node70</title>
<g id="a_node43"><a xlink:href="Dynamics_8h.html" target="_top" xlink:title="iDynTree/Model/Dynamics.h">
<polygon fill="none" stroke="#000000" points="1530,-431 1530,-450 1682,-450 1682,-431 1530,-431"/>
<text text-anchor="middle" x="1606" y="-438" font-family="FreeSans.ttf" font-size="10.00" fill="#000000">iDynTree/Model/Dynamics.h</text>
</a>
</g>
</g>
<!-- Node0&#45;&gt;Node70 -->
<g id="edge112" class="edge">
<title>Node0&#45;&gt;Node70</title>
<path fill="none" stroke="#191970" d="M1933.9134,-682.2511C1922.8429,-656.8928 1889.9206,-588.0631 1843,-548 1785.9846,-499.3174 1703.3065,-468.5797 1652.1899,-452.9775"/>
<polygon fill="#191970" stroke="#191970" points="1652.9876,-449.5631 1642.4043,-450.0581 1650.9863,-456.271 1652.9876,-449.5631"/>
</g>
<!-- Node71 -->
<g id="node44" class="node">
<title>Node71</title>
<g id="a_node44"><a xlink:href="AllSensorsTypes_8h.html" target="_top" xlink:title="iDynTree/Sensors/AllSensors\lTypes.h">
<polygon fill="none" stroke="#000000" points="852.5,-615.5 852.5,-645.5 1007.5,-645.5 1007.5,-615.5 852.5,-615.5"/>
<text text-anchor="start" x="860.5" y="-633.5" font-family="FreeSans.ttf" font-size="10.00" fill="#000000">iDynTree/Sensors/AllSensors</text>
<text text-anchor="middle" x="930" y="-622.5" font-family="FreeSans.ttf" font-size="10.00" fill="#000000">Types.h</text>
</a>
</g>
</g>
<!-- Node0&#45;&gt;Node71 -->
<g id="edge120" class="edge">
<title>Node0&#45;&gt;Node71</title>
<path fill="none" stroke="#191970" d="M1889.3821,-689.0337C1730.24,-679.3242 1223.3511,-648.3979 1017.8245,-635.8583"/>
<polygon fill="#191970" stroke="#191970" points="1017.871,-632.3548 1007.6763,-635.2392 1017.4446,-639.3418 1017.871,-632.3548"/>
</g>
<!-- Node77 -->
<g id="node50" class="node">
<title>Node77</title>
<g id="a_node50"><a xlink:href="ExternalWrenchesEstimation_8h.html" target="_top" xlink:title="iDynTree/Estimation\l/ExternalWrenchesEstimation.h">
<polygon fill="none" stroke="#000000" points="1927.5,-425.5 1927.5,-455.5 2096.5,-455.5 2096.5,-425.5 1927.5,-425.5"/>
<text text-anchor="start" x="1935.5" y="-443.5" font-family="FreeSans.ttf" font-size="10.00" fill="#000000">iDynTree/Estimation</text>
<text text-anchor="middle" x="2012" y="-432.5" font-family="FreeSans.ttf" font-size="10.00" fill="#000000">/ExternalWrenchesEstimation.h</text>
</a>
</g>
</g>
<!-- Node0&#45;&gt;Node77 -->
<g id="edge134" class="edge">
<title>Node0&#45;&gt;Node77</title>
<path fill="none" stroke="#191970" d="M1940.9274,-682.4947C1943.7819,-673.1996 1948.2315,-658.6397 1952,-646 1971.3648,-581.0499 1993.586,-504.3587 2004.7684,-465.6096"/>
<polygon fill="#191970" stroke="#191970" points="2008.2101,-466.306 2007.6181,-455.7277 2001.4842,-464.3664 2008.2101,-466.306"/>
</g>
<!-- Node2 -->
<g id="node3" class="node">
<title>Node2</title>
<g id="a_node3"><a xlink:href="Direction_8h.html" target="_top" xlink:title="iDynTree/Core/Direction.h">
<polygon fill="none" stroke="#000000" points="2105.5,-168.5 2105.5,-187.5 2246.5,-187.5 2246.5,-168.5 2105.5,-168.5"/>
<text text-anchor="middle" x="2176" y="-175.5" font-family="FreeSans.ttf" font-size="10.00" fill="#000000">iDynTree/Core/Direction.h</text>
</a>
</g>
</g>
<!-- Node1&#45;&gt;Node2 -->
<g id="edge2" class="edge">
<title>Node1&#45;&gt;Node2</title>
<path fill="none" stroke="#191970" d="M1834.7005,-557.943C1983.8291,-543.0007 2373.0291,-500.0987 2410,-456 2430.9925,-430.9602 2395.2766,-366.6639 2385,-358 2319.2896,-302.6014 2254.0463,-384.4532 2195,-322 2163.0614,-288.2186 2167.2704,-228.4113 2172.1274,-197.5832"/>
<polygon fill="#191970" stroke="#191970" points="2175.5912,-198.0943 2173.8804,-187.6385 2168.6975,-196.879 2175.5912,-198.0943"/>
</g>
<!-- Node4 -->
<g id="node5" class="node">
<title>Node4</title>
<g id="a_node5"><a xlink:href="VectorFixSize_8h.html" target="_top" xlink:title="iDynTree/Core/VectorFixSize.h">
<polygon fill="none" stroke="#000000" points="2150.5,-112.5 2150.5,-131.5 2311.5,-131.5 2311.5,-112.5 2150.5,-112.5"/>
<text text-anchor="middle" x="2231" y="-119.5" font-family="FreeSans.ttf" font-size="10.00" fill="#000000">iDynTree/Core/VectorFixSize.h</text>
</a>
</g>
</g>
<!-- Node1&#45;&gt;Node4 -->
<g id="edge32" class="edge">
<title>Node1&#45;&gt;Node4</title>
<path fill="none" stroke="#191970" d="M1834.7295,-561.7383C1927.6424,-557.9558 2115.6679,-546.3828 2271,-512 2281.2409,-509.7332 2619.2213,-394.7401 2628,-389 2669.7255,-361.7169 2704,-356.3536 2704,-306.5 2704,-306.5 2704,-306.5 2704,-239.5 2704,-201.441 2839.8194,-247.4532 2537,-168 2465.75,-149.3056 2383.0393,-137.4406 2321.5852,-130.4522"/>
<polygon fill="#191970" stroke="#191970" points="2321.8514,-126.9603 2311.525,-129.3301 2321.0753,-133.9171 2321.8514,-126.9603"/>
</g>
<!-- Node5 -->
<g id="node6" class="node">
<title>Node5</title>
<g id="a_node6"><a xlink:href="Utils_8h.html" target="_top" xlink:title="iDynTree/Core/Utils.h">
<polygon fill="none" stroke="#000000" points="2398.5,-56.5 2398.5,-75.5 2517.5,-75.5 2517.5,-56.5 2398.5,-56.5"/>
<text text-anchor="middle" x="2458" y="-63.5" font-family="FreeSans.ttf" font-size="10.00" fill="#000000">iDynTree/Core/Utils.h</text>
</a>
</g>
</g>
<!-- Node1&#45;&gt;Node5 -->
<g id="edge33" class="edge">
<title>Node1&#45;&gt;Node5</title>
<path fill="none" stroke="#191970" d="M1834.7851,-561.8248C1933.7867,-558.0973 2141.8185,-546.5143 2314,-512 2396.5642,-495.4498 2415.4681,-483.6665 2495,-456 2572.8763,-428.9094 2594.7485,-426.8528 2668,-389 2774.9916,-333.7121 2894,-359.9323 2894,-239.5 2894,-239.5 2894,-239.5 2894,-178 2894,-103.3152 2650.9753,-77.7198 2527.8053,-69.5436"/>
<polygon fill="#191970" stroke="#191970" points="2527.9137,-66.0434 2517.7097,-68.8946 2527.4646,-73.029 2527.9137,-66.0434"/>
</g>
<!-- Node18 -->
<g id="node14" class="node">
<title>Node18</title>
<g id="a_node14"><a xlink:href="Position_8h.html" target="_top" xlink:title="iDynTree/Core/Position.h">
<polygon fill="none" stroke="#000000" points="1376,-230 1376,-249 1512,-249 1512,-230 1376,-230"/>
<text text-anchor="middle" x="1444" y="-237" font-family="FreeSans.ttf" font-size="10.00" fill="#000000">iDynTree/Core/Position.h</text>
</a>
</g>
</g>
<!-- Node1&#45;&gt;Node18 -->
<g id="edge17" class="edge">
<title>Node1&#45;&gt;Node18</title>
<path fill="none" stroke="#191970" d="M1719.3207,-558.4661C1629.1567,-550.1124 1459.2158,-532.2826 1402,-512 1385.8356,-506.2698 1384.8509,-498.5478 1369,-492 1204.8923,-424.2093 1090.2002,-530.5452 983,-389 974.6817,-378.0167 974.557,-368.8877 983,-358 1029.4991,-298.0367 1246.5254,-263.1225 1365.4862,-248.1769"/>
<polygon fill="#191970" stroke="#191970" points="1366.1371,-251.6232 1375.6312,-246.9209 1365.2769,-244.6762 1366.1371,-251.6232"/>
</g>
<!-- Node26 -->
<g id="node18" class="node">
<title>Node26</title>
<g id="a_node18"><a xlink:href="MatrixDynSize_8h.html" target="_top" xlink:title="iDynTree/Core/MatrixDynSize.h">
<polygon fill="none" stroke="#000000" points="1721.5,-297 1721.5,-316 1888.5,-316 1888.5,-297 1721.5,-297"/>
<text text-anchor="middle" x="1805" y="-304" font-family="FreeSans.ttf" font-size="10.00" fill="#000000">iDynTree/Core/MatrixDynSize.h</text>
</a>
</g>
</g>
<!-- Node1&#45;&gt;Node26 -->
<g id="edge27" class="edge">
<title>Node1&#45;&gt;Node26</title>
<path fill="none" stroke="#191970" d="M1792.7874,-548.2616C1812.1625,-528.6813 1844.6903,-492.8063 1863,-456 1876.6831,-428.4941 1876.1929,-419.4846 1880,-389 1881.7074,-375.3284 1886.4177,-370.1918 1880,-358 1871.2873,-341.4483 1854.5865,-329.1895 1839.1522,-320.7938"/>
<polygon fill="#191970" stroke="#191970" points="1840.2924,-317.4484 1829.7887,-316.0616 1837.135,-323.6959 1840.2924,-317.4484"/>
</g>
<!-- Node27 -->
<g id="node19" class="node">
<title>Node27</title>
<g id="a_node19"><a xlink:href="VectorDynSize_8h.html" target="_top" xlink:title="iDynTree/Core/VectorDynSize.h">
<polygon fill="none" stroke="#000000" points="1981.5,-297 1981.5,-316 2148.5,-316 2148.5,-297 1981.5,-297"/>
<text text-anchor="middle" x="2065" y="-304" font-family="FreeSans.ttf" font-size="10.00" fill="#000000">iDynTree/Core/VectorDynSize.h</text>
</a>
</g>
</g>
<!-- Node1&#45;&gt;Node27 -->
<g id="edge29" class="edge">
<title>Node1&#45;&gt;Node27</title>
<path fill="none" stroke="#191970" d="M1834.6056,-555.887C1889.9993,-547.7884 1975.7381,-533.2017 2048,-512 2111.909,-493.2491 2128.4987,-487.8363 2187,-456 2208.0118,-444.5654 2209.7103,-435.9085 2231,-425 2274.5314,-402.6951 2306.6285,-428.8441 2335,-389 2342.9916,-377.7768 2343.7824,-368.6159 2335,-358 2328.5864,-350.2475 2213.4066,-330.3529 2135.5756,-317.6826"/>
<polygon fill="#191970" stroke="#191970" points="2135.7627,-314.1673 2125.3314,-316.0214 2134.6422,-321.077 2135.7627,-314.1673"/>
</g>
<!-- Node28 -->
<g id="node20" class="node">
<title>Node28</title>
<g id="a_node20"><a xlink:href="Triplets_8h.html" target="_top" xlink:title="iDynTree/Core/Triplets.h">
<polygon fill="none" stroke="#000000" points="2194,-364 2194,-383 2326,-383 2326,-364 2194,-364"/>
<text text-anchor="middle" x="2260" y="-371" font-family="FreeSans.ttf" font-size="10.00" fill="#000000">iDynTree/Core/Triplets.h</text>
</a>
</g>
</g>
<!-- Node1&#45;&gt;Node28 -->
<g id="edge34" class="edge">
<title>Node1&#45;&gt;Node28</title>
<path fill="none" stroke="#191970" d="M1834.6591,-553.6293C1910.0519,-539.2391 2044.8821,-508.3493 2150,-456 2168.896,-446.5897 2214.1843,-410.8059 2240.3795,-389.5806"/>
<polygon fill="#191970" stroke="#191970" points="2242.6085,-392.2792 2248.1559,-383.2527 2238.1904,-386.8496 2242.6085,-392.2792"/>
</g>
<!-- Node29 -->
<g id="node21" class="node">
<title>Node29</title>
<polygon fill="none" stroke="#bfbfbf" points="1270.5,-297 1270.5,-316 1317.5,-316 1317.5,-297 1270.5,-297"/>
<text text-anchor="middle" x="1294" y="-304" font-family="FreeSans.ttf" font-size="10.00" fill="#000000">vector</text>
</g>
<!-- Node1&#45;&gt;Node29 -->
<g id="edge91" class="edge">
<title>Node1&#45;&gt;Node29</title>
<path fill="none" stroke="#191970" d="M1719.4522,-552.1542C1631.7514,-532.3603 1463.3264,-484.22 1354,-389 1332.8157,-370.5491 1314.8478,-343.2886 1304.2439,-325.2199"/>
<polygon fill="#191970" stroke="#191970" points="1307.1234,-323.2032 1299.1367,-316.2417 1301.0389,-326.6644 1307.1234,-323.2032"/>
</g>
<!-- Node30 -->
<g id="node22" class="node">
<title>Node30</title>
<g id="a_node22"><a xlink:href="Indices_8h.html" target="_top" xlink:title="iDynTree/Model/Indices.h">
<polygon fill="none" stroke="#000000" points="485,-297 485,-316 623,-316 623,-297 485,-297"/>
<text text-anchor="middle" x="554" y="-304" font-family="FreeSans.ttf" font-size="10.00" fill="#000000">iDynTree/Model/Indices.h</text>
</a>
</g>
</g>
<!-- Node1&#45;&gt;Node30 -->
<g id="edge38" class="edge">
<title>Node1&#45;&gt;Node30</title>
<path fill="none" stroke="#191970" d="M1719.1747,-561.9205C1518.2359,-555.8226 851.7585,-530.3278 653,-456 604.6066,-437.9028 582.8834,-434.2797 558,-389 547.3555,-369.6305 548.0784,-343.6795 550.3394,-326.0932"/>
<polygon fill="#191970" stroke="#191970" points="553.8106,-326.5488 551.9005,-316.1276 546.895,-325.4654 553.8106,-326.5488"/>
</g>
<!-- Node31 -->
<g id="node23" class="node">
<title>Node31</title>
<g id="a_node23"><a xlink:href="LinkState_8h.html" target="_top" xlink:title="iDynTree/Model/LinkState.h">
<polygon fill="none" stroke="#ff0000" points="1363.5,-364 1363.5,-383 1512.5,-383 1512.5,-364 1363.5,-364"/>
<text text-anchor="middle" x="1438" y="-371" font-family="FreeSans.ttf" font-size="10.00" fill="#000000">iDynTree/Model/LinkState.h</text>
</a>
</g>
</g>
<!-- Node1&#45;&gt;Node31 -->
<g id="edge40" class="edge">
<title>Node1&#45;&gt;Node31</title>
<path fill="none" stroke="#191970" d="M1725.5452,-548.3944C1671.6957,-531.1475 1586.0901,-499.5786 1521,-456 1493.5788,-437.6412 1467.5421,-409.3687 1452.1712,-391.1524"/>
<polygon fill="#191970" stroke="#191970" points="1454.5904,-388.5853 1445.523,-383.1051 1449.1938,-393.0437 1454.5904,-388.5853"/>
</g>
<!-- Node1&#45;&gt;Node51 -->
<g id="edge53" class="edge">
<title>Node1&#45;&gt;Node51</title>
<path fill="none" stroke="#191970" d="M1719.2322,-556.2643C1632.9631,-545.4587 1469.9778,-525.0441 1370.3715,-512.5679"/>
<polygon fill="#191970" stroke="#191970" points="1370.6964,-509.0814 1360.3389,-511.3113 1369.8264,-516.0271 1370.6964,-509.0814"/>
</g>
<!-- Node52 -->
<g id="node27" class="node">
<title>Node52</title>
<g id="a_node27"><a xlink:href="FreeFloatingState_8h.html" target="_top" xlink:title="iDynTree/Model/FreeFloating\lState.h">
<polygon fill="none" stroke="#ff0000" points="1700,-425.5 1700,-455.5 1854,-455.5 1854,-425.5 1700,-425.5"/>
<text text-anchor="start" x="1708" y="-443.5" font-family="FreeSans.ttf" font-size="10.00" fill="#000000">iDynTree/Model/FreeFloating</text>
<text text-anchor="middle" x="1777" y="-432.5" font-family="FreeSans.ttf" font-size="10.00" fill="#000000">State.h</text>
</a>
</g>
</g>
<!-- Node1&#45;&gt;Node52 -->
<g id="edge56" class="edge">
<title>Node1&#45;&gt;Node52</title>
<path fill="none" stroke="#191970" d="M1777,-548.4178C1777,-527.8539 1777,-490.7363 1777,-465.8546"/>
<polygon fill="#191970" stroke="#191970" points="1780.5001,-465.7055 1777,-455.7056 1773.5001,-465.7056 1780.5001,-465.7055"/>
</g>
<!-- Node1&#45;&gt;Node54 -->
<g id="edge68" class="edge">
<title>Node1&#45;&gt;Node54</title>
<path fill="none" stroke="#191970" d="M1719.3683,-561.5669C1510.858,-554.4916 796.0604,-529.507 568,-512 566.5305,-511.8872 565.0479,-511.7692 563.5551,-511.6467"/>
<polygon fill="#191970" stroke="#191970" points="563.8536,-508.1595 553.587,-510.7762 563.2446,-515.133 563.8536,-508.1595"/>
</g>
<!-- Node64 -->
<g id="node36" class="node">
<title>Node64</title>
<g id="a_node36"><a xlink:href="LinkTraversalsCache_8h.html" target="_top" xlink:title="iDynTree/Model/LinkTraversals\lCache.h">
<polygon fill="none" stroke="#000000" points="992,-358.5 992,-388.5 1156,-388.5 1156,-358.5 992,-358.5"/>
<text text-anchor="start" x="1000" y="-376.5" font-family="FreeSans.ttf" font-size="10.00" fill="#000000">iDynTree/Model/LinkTraversals</text>
<text text-anchor="middle" x="1074" y="-365.5" font-family="FreeSans.ttf" font-size="10.00" fill="#000000">Cache.h</text>
</a>
</g>
</g>
<!-- Node1&#45;&gt;Node64 -->
<g id="edge88" class="edge">
<title>Node1&#45;&gt;Node64</title>
<path fill="none" stroke="#191970" d="M1719.4003,-558.6211C1653.3723,-552.0693 1542.3566,-538.1082 1450,-512 1427.7604,-505.7131 1423.5409,-500.3733 1402,-492 1305.9169,-454.6511 1192.5557,-414.5662 1127.3991,-391.905"/>
<polygon fill="#191970" stroke="#191970" points="1128.3495,-388.5301 1117.7547,-388.5556 1126.053,-395.1426 1128.3495,-388.5301"/>
</g>
<!-- Node3 -->
<g id="node4" class="node">
<title>Node3</title>
<polygon fill="none" stroke="#bfbfbf" points="1525,-56.5 1525,-75.5 1569,-75.5 1569,-56.5 1525,-56.5"/>
<text text-anchor="middle" x="1547" y="-63.5" font-family="FreeSans.ttf" font-size="10.00" fill="#000000">string</text>
</g>
<!-- Node2&#45;&gt;Node3 -->
<g id="edge3" class="edge">
<title>Node2&#45;&gt;Node3</title>
<path fill="none" stroke="#191970" d="M2129.573,-168.4443C2086.1651,-159.4096 2019.5775,-145.2934 1962,-132 1925.8693,-123.6582 1917.4176,-118.9837 1881,-112 1771.1411,-90.9326 1639.1744,-75.6846 1579.3282,-69.3078"/>
<polygon fill="#191970" stroke="#191970" points="1579.3262,-65.7883 1569.0145,-68.221 1578.5926,-72.7498 1579.3262,-65.7883"/>
</g>
<!-- Node2&#45;&gt;Node4 -->
<g id="edge4" class="edge">
<title>Node2&#45;&gt;Node4</title>
<path fill="none" stroke="#191970" d="M2185.5803,-168.2455C2193.5458,-160.1352 2205.0641,-148.4075 2214.5079,-138.7919"/>
<polygon fill="#191970" stroke="#191970" points="2217.0195,-141.2297 2221.5295,-131.6427 2212.0253,-136.3247 2217.0195,-141.2297"/>
</g>
<!-- Node2&#45;&gt;Node5 -->
<g id="edge16" class="edge">
<title>Node2&#45;&gt;Node5</title>
<path fill="none" stroke="#191970" d="M2210.5049,-168.4226C2239.9704,-159.9026 2283.2852,-146.5645 2320,-132 2359.5274,-116.3197 2403.5961,-94.4344 2431.0613,-80.2405"/>
<polygon fill="#191970" stroke="#191970" points="2432.7939,-83.2845 2440.049,-75.5635 2429.5625,-77.0749 2432.7939,-83.2845"/>
</g>
<!-- Node4&#45;&gt;Node3 -->
<g id="edge12" class="edge">
<title>Node4&#45;&gt;Node3</title>
<path fill="none" stroke="#191970" d="M2150.0601,-112.8777C2147.002,-112.574 2143.9738,-112.2803 2141,-112 1926.7628,-91.8082 1668.4381,-74.0551 1579.1714,-68.1123"/>
<polygon fill="#191970" stroke="#191970" points="1579.3474,-64.6163 1569.1376,-67.4467 1578.884,-71.601 1579.3474,-64.6163"/>
</g>
<!-- Node4&#45;&gt;Node5 -->
<g id="edge5" class="edge">
<title>Node4&#45;&gt;Node5</title>
<path fill="none" stroke="#191970" d="M2269.7648,-112.4369C2308.3692,-102.9133 2367.7384,-88.2672 2409.4572,-77.9753"/>
<polygon fill="#191970" stroke="#191970" points="2410.5245,-81.317 2419.3951,-75.5237 2408.8479,-74.5208 2410.5245,-81.317"/>
</g>
<!-- Node7 -->
<g id="node8" class="node">
<title>Node7</title>
<g id="a_node8"><a xlink:href="Span_8h.html" target="_top" xlink:title="iDynTree/Core/Span.h">
<polygon fill="none" stroke="#ff0000" points="2259.5,-56.5 2259.5,-75.5 2380.5,-75.5 2380.5,-56.5 2259.5,-56.5"/>
<text text-anchor="middle" x="2320" y="-63.5" font-family="FreeSans.ttf" font-size="10.00" fill="#000000">iDynTree/Core/Span.h</text>
</a>
</g>
</g>
<!-- Node4&#45;&gt;Node7 -->
<g id="edge7" class="edge">
<title>Node4&#45;&gt;Node7</title>
<path fill="none" stroke="#191970" d="M2246.5026,-112.2455C2260.158,-103.6534 2280.2657,-91.0014 2295.9989,-81.1018"/>
<polygon fill="#191970" stroke="#191970" points="2298.0751,-83.9307 2304.675,-75.6427 2294.3471,-78.006 2298.0751,-83.9307"/>
</g>
<!-- Node8 -->
<g id="node9" class="node">
<title>Node8</title>
<polygon fill="none" stroke="#bfbfbf" points="2205,-.5 2205,-19.5 2257,-19.5 2257,-.5 2205,-.5"/>
<text text-anchor="middle" x="2231" y="-7.5" font-family="FreeSans.ttf" font-size="10.00" fill="#000000">cassert</text>
</g>
<!-- Node4&#45;&gt;Node8 -->
<g id="edge14" class="edge">
<title>Node4&#45;&gt;Node8</title>
<path fill="none" stroke="#191970" d="M2231,-112.4509C2231,-94.184 2231,-53.9553 2231,-29.6976"/>
<polygon fill="#191970" stroke="#191970" points="2234.5001,-29.5249 2231,-19.5249 2227.5001,-29.5249 2234.5001,-29.5249"/>
</g>
<!-- Node4&#45;&gt;Node16 -->
<g id="edge13" class="edge">
<title>Node4&#45;&gt;Node16</title>
<path fill="none" stroke="#191970" d="M2221.2455,-112.2455C2213.1352,-104.1352 2201.4075,-92.4075 2191.7919,-82.7919"/>
<polygon fill="#191970" stroke="#191970" points="2194.1887,-80.2389 2184.6427,-75.6427 2189.2389,-85.1887 2194.1887,-80.2389"/>
</g>
<!-- Node17 -->
<g id="node13" class="node">
<title>Node17</title>
<polygon fill="none" stroke="#bfbfbf" points="2079,-56.5 2079,-75.5 2129,-75.5 2129,-56.5 2079,-56.5"/>
<text text-anchor="middle" x="2104" y="-63.5" font-family="FreeSans.ttf" font-size="10.00" fill="#000000">cstring</text>
</g>
<!-- Node4&#45;&gt;Node17 -->
<g id="edge15" class="edge">
<title>Node4&#45;&gt;Node17</title>
<path fill="none" stroke="#191970" d="M2209.1679,-112.3733C2188.6897,-103.3435 2157.8601,-89.7494 2134.8681,-79.6111"/>
<polygon fill="#191970" stroke="#191970" points="2136.1093,-76.3333 2125.5472,-75.5011 2133.285,-82.7383 2136.1093,-76.3333"/>
</g>
<!-- Node6 -->
<g id="node7" class="node">
<title>Node6</title>
<polygon fill="none" stroke="#bfbfbf" points="2362.5,-.5 2362.5,-19.5 2415.5,-19.5 2415.5,-.5 2362.5,-.5"/>
<text text-anchor="middle" x="2389" y="-7.5" font-family="FreeSans.ttf" font-size="10.00" fill="#000000">cstddef</text>
</g>
<!-- Node5&#45;&gt;Node6 -->
<g id="edge6" class="edge">
<title>Node5&#45;&gt;Node6</title>
<path fill="none" stroke="#191970" d="M2445.9811,-56.2455C2435.7902,-47.9746 2420.9638,-35.9416 2408.9893,-26.2232"/>
<polygon fill="#191970" stroke="#191970" points="2410.8514,-23.2268 2400.8812,-19.6427 2406.4402,-28.662 2410.8514,-23.2268"/>
</g>
<!-- Node7&#45;&gt;Node6 -->
<g id="edge10" class="edge">
<title>Node7&#45;&gt;Node6</title>
<path fill="none" stroke="#191970" d="M2332.0189,-56.2455C2342.2098,-47.9746 2357.0362,-35.9416 2369.0107,-26.2232"/>
<polygon fill="#191970" stroke="#191970" points="2371.5598,-28.662 2377.1188,-19.6427 2367.1486,-23.2268 2371.5598,-28.662"/>
</g>
<!-- Node7&#45;&gt;Node8 -->
<g id="edge8" class="edge">
<title>Node7&#45;&gt;Node8</title>
<path fill="none" stroke="#191970" d="M2304.4974,-56.2455C2290.842,-47.6534 2270.7343,-35.0014 2255.0011,-25.1018"/>
<polygon fill="#191970" stroke="#191970" points="2256.6529,-22.006 2246.325,-19.6427 2252.9249,-27.9307 2256.6529,-22.006"/>
</g>
<!-- Node7&#45;&gt;Node9 -->
<g id="edge9" class="edge">
<title>Node7&#45;&gt;Node9</title>
<path fill="none" stroke="#191970" d="M2380.5767,-57.1823C2383.4238,-56.78 2386.2426,-56.3842 2389,-56 2497.5383,-40.8784 2625.4846,-24.0251 2690.4787,-15.5331"/>
<polygon fill="#191970" stroke="#191970" points="2691.2711,-18.9595 2700.7339,-14.1944 2690.3649,-12.0184 2691.2711,-18.9595"/>
</g>
<!-- Node11 -->
<g id="node11" class="node">
<title>Node11</title>
<polygon fill="none" stroke="#bfbfbf" points="1878.5,-.5 1878.5,-19.5 1931.5,-19.5 1931.5,-.5 1878.5,-.5"/>
<text text-anchor="middle" x="1905" y="-7.5" font-family="FreeSans.ttf" font-size="10.00" fill="#000000">iterator</text>
</g>
<!-- Node7&#45;&gt;Node11 -->
<g id="edge11" class="edge">
<title>Node7&#45;&gt;Node11</title>
<path fill="none" stroke="#191970" d="M2259.211,-57.7971C2171.8402,-46.0073 2013.4193,-24.6301 1941.8508,-14.9726"/>
<polygon fill="#191970" stroke="#191970" points="1941.9152,-11.4497 1931.5369,-13.5809 1940.979,-18.3868 1941.9152,-11.4497"/>
</g>
<!-- Node18&#45;&gt;Node3 -->
<g id="edge26" class="edge">
<title>Node18&#45;&gt;Node3</title>
<path fill="none" stroke="#191970" d="M1443.8771,-229.7003C1444.0765,-215.393 1445.9102,-188.2855 1456,-168 1465.8011,-148.2951 1475.2484,-148.3321 1490,-132 1504.6514,-115.7788 1520.9063,-96.8623 1532.296,-83.4498"/>
<polygon fill="#191970" stroke="#191970" points="1535.2235,-85.4085 1539.0124,-75.5143 1529.8804,-80.8862 1535.2235,-85.4085"/>
</g>
<!-- Node19 -->
<g id="node15" class="node">
<title>Node19</title>
<g id="a_node15"><a xlink:href="PositionRaw_8h.html" target="_top" xlink:title="iDynTree/Core/PositionRaw.h">
<polygon fill="none" stroke="#000000" points="1465,-168.5 1465,-187.5 1621,-187.5 1621,-168.5 1465,-168.5"/>
<text text-anchor="middle" x="1543" y="-175.5" font-family="FreeSans.ttf" font-size="10.00" fill="#000000">iDynTree/Core/PositionRaw.h</text>
</a>
</g>
</g>
<!-- Node18&#45;&gt;Node19 -->
<g id="edge18" class="edge">
<title>Node18&#45;&gt;Node19</title>
<path fill="none" stroke="#191970" d="M1459.4688,-229.8906C1475.4521,-219.9616 1500.6103,-204.333 1519.1433,-192.8201"/>
<polygon fill="#191970" stroke="#191970" points="1520.9924,-195.7918 1527.6399,-187.5419 1517.2985,-189.8457 1520.9924,-195.7918"/>
</g>
<!-- Node20 -->
<g id="node16" class="node">
<title>Node20</title>
<g id="a_node16"><a xlink:href="PositionSemantics_8h.html" target="_top" xlink:title="iDynTree/Core/PositionSemantics.h">
<polygon fill="none" stroke="#000000" points="1294.5,-112.5 1294.5,-131.5 1481.5,-131.5 1481.5,-112.5 1294.5,-112.5"/>
<text text-anchor="middle" x="1388" y="-119.5" font-family="FreeSans.ttf" font-size="10.00" fill="#000000">iDynTree/Core/PositionSemantics.h</text>
</a>
</g>
</g>
<!-- Node18&#45;&gt;Node20 -->
<g id="edge21" class="edge">
<title>Node18&#45;&gt;Node20</title>
<path fill="none" stroke="#191970" d="M1439.4173,-229.8845C1430.1879,-210.5192 1409.2111,-166.5055 1397.0954,-141.084"/>
<polygon fill="#191970" stroke="#191970" points="1400.1079,-139.2697 1392.646,-131.7484 1393.7889,-142.2814 1400.1079,-139.2697"/>
</g>
<!-- Node21 -->
<g id="node17" class="node">
<title>Node21</title>
<g id="a_node17"><a xlink:href="Rotation_8h.html" target="_top" xlink:title="iDynTree/Core/Rotation.h">
<polygon fill="none" stroke="#ff0000" points="1639.5,-168.5 1639.5,-187.5 1776.5,-187.5 1776.5,-168.5 1639.5,-168.5"/>
<text text-anchor="middle" x="1708" y="-175.5" font-family="FreeSans.ttf" font-size="10.00" fill="#000000">iDynTree/Core/Rotation.h</text>
</a>
</g>
</g>
<!-- Node18&#45;&gt;Node21 -->
<g id="edge23" class="edge">
<title>Node18&#45;&gt;Node21</title>
<path fill="none" stroke="#191970" d="M1484.9603,-229.9581C1531.2995,-219.1632 1606.824,-201.5694 1656.9606,-189.8899"/>
<polygon fill="#191970" stroke="#191970" points="1657.9984,-193.2419 1666.9436,-187.5643 1656.4102,-186.4244 1657.9984,-193.2419"/>
</g>
<!-- Node19&#45;&gt;Node3 -->
<g id="edge20" class="edge">
<title>Node19&#45;&gt;Node3</title>
<path fill="none" stroke="#191970" d="M1543.341,-168.4509C1543.9934,-150.184 1545.4302,-109.9553 1546.2965,-85.6976"/>
<polygon fill="#191970" stroke="#191970" points="1549.8006,-85.6435 1546.6598,-75.5249 1542.805,-85.3936 1549.8006,-85.6435"/>
</g>
<!-- Node19&#45;&gt;Node4 -->
<g id="edge19" class="edge">
<title>Node19&#45;&gt;Node4</title>
<path fill="none" stroke="#191970" d="M1621.2377,-168.8423C1624.195,-168.5485 1627.1236,-168.2665 1630,-168 1853.3822,-147.3034 1912.5351,-152.4176 2139.8137,-132.0732"/>
<polygon fill="#191970" stroke="#191970" points="2140.4174,-135.5331 2150.0625,-131.1488 2139.7885,-128.5614 2140.4174,-135.5331"/>
</g>
<!-- Node20&#45;&gt;Node3 -->
<g id="edge22" class="edge">
<title>Node20&#45;&gt;Node3</title>
<path fill="none" stroke="#191970" d="M1415.3331,-112.3733C1442.9731,-102.6384 1485.6756,-87.5985 1514.9069,-77.3032"/>
<polygon fill="#191970" stroke="#191970" points="1516.3684,-80.4993 1524.6378,-73.876 1514.043,-73.8968 1516.3684,-80.4993"/>
</g>
<!-- Node21&#45;&gt;Node3 -->
<g id="edge24" class="edge">
<title>Node21&#45;&gt;Node3</title>
<path fill="none" stroke="#191970" d="M1694.2732,-168.4509C1666.351,-149.0268 1602.7324,-104.7703 1568.9786,-81.2895"/>
<polygon fill="#191970" stroke="#191970" points="1570.8998,-78.3624 1560.692,-75.5249 1566.9024,-84.1087 1570.8998,-78.3624"/>
</g>
<!-- Node21&#45;&gt;Node4 -->
<g id="edge25" class="edge">
<title>Node21&#45;&gt;Node4</title>
<path fill="none" stroke="#191970" d="M1776.63,-170.8122C1859.9385,-162.0639 2004.9995,-146.7566 2139.9386,-132.1113"/>
<polygon fill="#191970" stroke="#191970" points="2140.4854,-135.5726 2150.049,-131.0132 2139.7295,-128.6135 2140.4854,-135.5726"/>
</g>
<!-- Node26&#45;&gt;Node3 -->
<g id="edge28" class="edge">
<title>Node26&#45;&gt;Node3</title>
<path fill="none" stroke="#191970" d="M1806.5456,-296.9036C1809.9076,-272.5543 1815.325,-207.5072 1785,-168 1734.0403,-101.6101 1631.3271,-77.8374 1579.0866,-69.8082"/>
<polygon fill="#191970" stroke="#191970" points="1579.4379,-66.3228 1569.0416,-68.3641 1578.4418,-73.2516 1579.4379,-66.3228"/>
</g>
<!-- Node27&#45;&gt;Node3 -->
<g id="edge31" class="edge">
<title>Node27&#45;&gt;Node3</title>
<path fill="none" stroke="#191970" d="M2052.725,-296.9666C2011.7252,-265.5905 1874.8262,-164.556 1746,-112 1689.6396,-89.0072 1619.3867,-76.1668 1579.214,-70.2018"/>
<polygon fill="#191970" stroke="#191970" points="1579.5919,-66.7202 1569.1963,-68.765 1578.5981,-73.6493 1579.5919,-66.7202"/>
</g>
<!-- Node27&#45;&gt;Node7 -->
<g id="edge30" class="edge">
<title>Node27&#45;&gt;Node7</title>
<path fill="none" stroke="#191970" d="M2096.3421,-296.9439C2154.4669,-277.2375 2276.9686,-225.8722 2320,-132 2326.5653,-117.6779 2326.0781,-99.7007 2324.2202,-86.1266"/>
<polygon fill="#191970" stroke="#191970" points="2327.6114,-85.1961 2322.462,-75.9368 2320.7134,-86.3864 2327.6114,-85.1961"/>
</g>
<!-- Node28&#45;&gt;Node5 -->
<g id="edge35" class="edge">
<title>Node28&#45;&gt;Node5</title>
<path fill="none" stroke="#191970" d="M2317.8453,-363.9381C2344.5178,-356.6863 2374.5105,-344.0238 2394,-322 2455.5642,-252.4303 2459.7532,-132.45 2458.8342,-85.5714"/>
<polygon fill="#191970" stroke="#191970" points="2462.3315,-85.4258 2458.532,-75.5358 2455.3347,-85.6366 2462.3315,-85.4258"/>
</g>
<!-- Node28&#45;&gt;Node11 -->
<g id="edge36" class="edge">
<title>Node28&#45;&gt;Node11</title>
<path fill="none" stroke="#191970" d="M2193.8496,-370.0545C2118.836,-364.7503 2002.915,-351.864 1972,-322 1888.8575,-241.6841 1896.7382,-85.0202 1902.4964,-29.8235"/>
<polygon fill="#191970" stroke="#191970" points="1906.001,-29.982 1903.6594,-19.6492 1899.0463,-29.187 1906.001,-29.982"/>
</g>
<!-- Node28&#45;&gt;Node29 -->
<g id="edge37" class="edge">
<title>Node28&#45;&gt;Node29</title>
<path fill="none" stroke="#191970" d="M2193.7292,-370.3398C2000.0576,-361.0144 1443.5115,-333.5449 1362,-322 1350.7344,-320.4044 1338.5771,-317.8917 1327.7006,-315.3503"/>
<polygon fill="#191970" stroke="#191970" points="1328.2792,-311.8892 1317.736,-312.9338 1326.6294,-318.692 1328.2792,-311.8892"/>
</g>
<!-- Node30&#45;&gt;Node3 -->
<g id="edge39" class="edge">
<title>Node30&#45;&gt;Node3</title>
<path fill="none" stroke="#191970" d="M563.698,-296.8255C597.6895,-263.6393 715.994,-154.1504 838,-112 902.4251,-89.7425 1384.1563,-71.6273 1514.5419,-67.0943"/>
<polygon fill="#191970" stroke="#191970" points="1514.8148,-70.587 1524.6882,-66.7444 1514.5735,-63.5912 1514.8148,-70.587"/>
</g>
<!-- Node31&#45;&gt;Node29 -->
<g id="edge52" class="edge">
<title>Node31&#45;&gt;Node29</title>
<path fill="none" stroke="#191970" d="M1417.3683,-363.9005C1392.8811,-352.5072 1351.8532,-333.4178 1323.8907,-320.4075"/>
<polygon fill="#191970" stroke="#191970" points="1325.1366,-317.1269 1314.5934,-316.0817 1322.1836,-323.4736 1325.1366,-317.1269"/>
</g>
<!-- Node31&#45;&gt;Node30 -->
<g id="edge51" class="edge">
<title>Node31&#45;&gt;Node30</title>
<path fill="none" stroke="#191970" d="M1363.3925,-367.8454C1198.1857,-355.324 802.7418,-325.3526 633.2846,-312.5091"/>
<polygon fill="#191970" stroke="#191970" points="633.4221,-309.0096 623.1861,-311.7437 632.893,-315.9896 633.4221,-309.0096"/>
</g>
<!-- Node32 -->
<g id="node24" class="node">
<title>Node32</title>
<g id="a_node24"><a xlink:href="Transform_8h.html" target="_top" xlink:title="iDynTree/Core/Transform.h">
<polygon fill="none" stroke="#ff0000" points="1371,-297 1371,-316 1517,-316 1517,-297 1371,-297"/>
<text text-anchor="middle" x="1444" y="-304" font-family="FreeSans.ttf" font-size="10.00" fill="#000000">iDynTree/Core/Transform.h</text>
</a>
</g>
</g>
<!-- Node31&#45;&gt;Node32 -->
<g id="edge41" class="edge">
<title>Node31&#45;&gt;Node32</title>
<path fill="none" stroke="#191970" d="M1438.8597,-363.9005C1439.7329,-354.149 1441.1111,-338.7597 1442.2206,-326.3695"/>
<polygon fill="#191970" stroke="#191970" points="1445.7359,-326.354 1443.1419,-316.0817 1438.7639,-325.7296 1445.7359,-326.354"/>
</g>
<!-- Node32&#45;&gt;Node3 -->
<g id="edge50" class="edge">
<title>Node32&#45;&gt;Node3</title>
<path fill="none" stroke="#191970" d="M1425.1222,-296.9145C1371.5166,-268.4977 1225.9609,-182.3078 1285,-112 1313.9864,-77.4811 1451.1063,-68.8588 1514.5962,-66.7103"/>
<polygon fill="#191970" stroke="#191970" points="1514.9517,-70.2012 1524.8406,-66.3987 1514.7388,-63.2044 1514.9517,-70.2012"/>
</g>
<!-- Node32&#45;&gt;Node18 -->
<g id="edge42" class="edge">
<title>Node32&#45;&gt;Node18</title>
<path fill="none" stroke="#191970" d="M1444,-296.9005C1444,-287.149 1444,-271.7597 1444,-259.3695"/>
<polygon fill="#191970" stroke="#191970" points="1447.5001,-259.0816 1444,-249.0817 1440.5001,-259.0817 1447.5001,-259.0816"/>
</g>
<!-- Node32&#45;&gt;Node21 -->
<g id="edge43" class="edge">
<title>Node32&#45;&gt;Node21</title>
<path fill="none" stroke="#191970" d="M1463.8429,-296.8416C1510.11,-274.3215 1625.2983,-218.2544 1679.2579,-191.99"/>
<polygon fill="#191970" stroke="#191970" points="1680.8273,-195.1188 1688.287,-187.5952 1677.7637,-188.8247 1680.8273,-195.1188"/>
</g>
<!-- Node23 -->
<g id="node25" class="node">
<title>Node23</title>
<g id="a_node25"><a xlink:href="MatrixFixSize_8h.html" target="_top" xlink:title="iDynTree/Core/MatrixFixSize.h">
<polygon fill="none" stroke="#ff0000" points="1971.5,-112.5 1971.5,-131.5 2132.5,-131.5 2132.5,-112.5 1971.5,-112.5"/>
<text text-anchor="middle" x="2052" y="-119.5" font-family="FreeSans.ttf" font-size="10.00" fill="#000000">iDynTree/Core/MatrixFixSize.h</text>
</a>
</g>
</g>
<!-- Node32&#45;&gt;Node23 -->
<g id="edge44" class="edge">
<title>Node32&#45;&gt;Node23</title>
<path fill="none" stroke="#191970" d="M1475.4084,-296.969C1576.9068,-266.1689 1896.1255,-169.3007 2010.619,-134.5572"/>
<polygon fill="#191970" stroke="#191970" points="2011.8618,-137.8378 2020.4146,-131.5847 2009.8291,-131.1394 2011.8618,-137.8378"/>
</g>
<!-- Node23&#45;&gt;Node3 -->
<g id="edge48" class="edge">
<title>Node23&#45;&gt;Node3</title>
<path fill="none" stroke="#191970" d="M1971.4228,-113.0647C1858.3907,-100.5305 1657.8238,-78.2894 1579.5578,-69.6104"/>
<polygon fill="#191970" stroke="#191970" points="1579.6725,-66.1017 1569.3476,-68.4782 1578.9009,-73.0591 1579.6725,-66.1017"/>
</g>
<!-- Node23&#45;&gt;Node5 -->
<g id="edge45" class="edge">
<title>Node23&#45;&gt;Node5</title>
<path fill="none" stroke="#191970" d="M2123.0282,-112.4782C2188.9805,-103.5973 2290.2025,-89.8665 2388.0929,-76.1189"/>
<polygon fill="#191970" stroke="#191970" points="2388.75,-79.561 2398.1652,-74.7026 2387.7752,-72.6292 2388.75,-79.561"/>
</g>
<!-- Node23&#45;&gt;Node8 -->
<g id="edge46" class="edge">
<title>Node23&#45;&gt;Node8</title>
<path fill="none" stroke="#191970" d="M2051.8343,-112.4984C2052.1191,-98.2481 2054.8077,-71.3765 2070,-56 2087.3754,-38.414 2152.7318,-23.8907 2194.6424,-16.1232"/>
<polygon fill="#191970" stroke="#191970" points="2195.5311,-19.5194 2204.749,-14.2963 2194.2858,-12.631 2195.5311,-19.5194"/>
</g>
<!-- Node23&#45;&gt;Node16 -->
<g id="edge49" class="edge">
<title>Node23&#45;&gt;Node16</title>
<path fill="none" stroke="#191970" d="M2073.1445,-112.3733C2092.8892,-103.3838 2122.5698,-89.8706 2144.8055,-79.7471"/>
<polygon fill="#191970" stroke="#191970" points="2146.4806,-82.8302 2154.1315,-75.5011 2143.58,-76.4594 2146.4806,-82.8302"/>
</g>
<!-- Node23&#45;&gt;Node17 -->
<g id="edge47" class="edge">
<title>Node23&#45;&gt;Node17</title>
<path fill="none" stroke="#191970" d="M2061.0577,-112.2455C2068.5142,-104.2155 2079.2634,-92.6394 2088.1417,-83.0781"/>
<polygon fill="#191970" stroke="#191970" points="2090.8063,-85.3522 2095.0461,-75.6427 2085.6768,-80.589 2090.8063,-85.3522"/>
</g>
<!-- Node51&#45;&gt;Node29 -->
<g id="edge55" class="edge">
<title>Node51&#45;&gt;Node29</title>
<path fill="none" stroke="#191970" d="M1286.3967,-492.3051C1287.6417,-461.8813 1291.4888,-367.8666 1293.1838,-326.4452"/>
<polygon fill="#191970" stroke="#191970" points="1296.689,-326.3882 1293.6009,-316.2534 1289.6949,-326.1019 1296.689,-326.3882"/>
</g>
<!-- Node51&#45;&gt;Node30 -->
<g id="edge54" class="edge">
<title>Node51&#45;&gt;Node30</title>
<path fill="none" stroke="#191970" d="M1211.7088,-499.7398C1050.1292,-493.3381 673.7297,-469.9069 580,-389 561.9342,-373.4058 556.2786,-345.3803 554.5872,-326.367"/>
<polygon fill="#191970" stroke="#191970" points="558.0659,-325.9046 553.978,-316.1302 551.0783,-326.3205 558.0659,-325.9046"/>
</g>
<!-- Node52&#45;&gt;Node27 -->
<g id="edge58" class="edge">
<title>Node52&#45;&gt;Node27</title>
<path fill="none" stroke="#191970" d="M1809.4774,-425.389C1865.8204,-399.1738 1980.8549,-345.6509 2035.2433,-320.3451"/>
<polygon fill="#191970" stroke="#191970" points="2036.7681,-323.4961 2044.3582,-316.1042 2033.8151,-317.1494 2036.7681,-323.4961"/>
</g>
<!-- Node52&#45;&gt;Node29 -->
<g id="edge67" class="edge">
<title>Node52&#45;&gt;Node29</title>
<path fill="none" stroke="#191970" d="M1701.6926,-425.4993C1650.7305,-414.7404 1588.4126,-400.2237 1564,-389 1542.5942,-379.1586 1542.477,-367.6851 1521,-358 1454.95,-328.2144 1432.655,-338.0513 1362,-322 1350.8152,-319.459 1338.5972,-316.6763 1327.6421,-314.1786"/>
<polygon fill="#191970" stroke="#191970" points="1328.1285,-310.6997 1317.6006,-311.8884 1326.5719,-317.5245 1328.1285,-310.6997"/>
</g>
<!-- Node52&#45;&gt;Node30 -->
<g id="edge59" class="edge">
<title>Node52&#45;&gt;Node30</title>
<path fill="none" stroke="#191970" d="M1699.7204,-426.0314C1696.7806,-425.6528 1693.8662,-425.3064 1691,-425 1576.3617,-412.7435 761.8094,-429.857 654,-389 649.2079,-387.1839 600.6054,-346.1825 572.9651,-322.6797"/>
<polygon fill="#191970" stroke="#191970" points="575.0148,-319.8282 565.1318,-316.0103 570.4769,-325.158 575.0148,-319.8282"/>
</g>
<!-- Node52&#45;&gt;Node31 -->
<g id="edge60" class="edge">
<title>Node52&#45;&gt;Node31</title>
<path fill="none" stroke="#191970" d="M1700.9218,-425.4639C1638.8616,-413.1983 1552.5025,-396.1303 1495.9469,-384.9526"/>
<polygon fill="#191970" stroke="#191970" points="1496.5828,-381.5107 1486.0939,-383.0053 1495.2255,-388.3778 1496.5828,-381.5107"/>
</g>
<!-- Node52&#45;&gt;Node32 -->
<g id="edge57" class="edge">
<title>Node52&#45;&gt;Node32</title>
<path fill="none" stroke="#191970" d="M1739.448,-425.389C1673.8968,-399.011 1539.6379,-344.9849 1477.2426,-319.8769"/>
<polygon fill="#191970" stroke="#191970" points="1478.4507,-316.5904 1467.8671,-316.1042 1475.8375,-323.0843 1478.4507,-316.5904"/>
</g>
<!-- Node53 -->
<g id="node28" class="node">
<title>Node53</title>
<g id="a_node28"><a xlink:href="JointState_8h.html" target="_top" xlink:title="iDynTree/Model/JointState.h">
<polygon fill="none" stroke="#000000" points="1720.5,-364 1720.5,-383 1871.5,-383 1871.5,-364 1720.5,-364"/>
<text text-anchor="middle" x="1796" y="-371" font-family="FreeSans.ttf" font-size="10.00" fill="#000000">iDynTree/Model/JointState.h</text>
</a>
</g>
</g>
<!-- Node52&#45;&gt;Node53 -->
<g id="edge61" class="edge">
<title>Node52&#45;&gt;Node53</title>
<path fill="none" stroke="#191970" d="M1781.3114,-425.2967C1784.0418,-415.6685 1787.597,-403.1318 1790.5258,-392.8038"/>
<polygon fill="#191970" stroke="#191970" points="1793.9293,-393.6305 1793.2904,-383.055 1787.1948,-391.7207 1793.9293,-393.6305"/>
</g>
<!-- Node53&#45;&gt;Node4 -->
<g id="edge62" class="edge">
<title>Node53&#45;&gt;Node4</title>
<path fill="none" stroke="#191970" d="M1766.2624,-363.8901C1747.0408,-355.9537 1723.5323,-342.5976 1712,-322 1705.2692,-309.9782 1703.9052,-302.149 1712,-291 1766.3421,-216.1543 2039.598,-157.185 2166.3021,-133.4006"/>
<polygon fill="#191970" stroke="#191970" points="2167.0756,-136.8169 2176.2664,-131.5461 2165.7947,-129.935 2167.0756,-136.8169"/>
</g>
<!-- Node53&#45;&gt;Node27 -->
<g id="edge63" class="edge">
<title>Node53&#45;&gt;Node27</title>
<path fill="none" stroke="#191970" d="M1834.2555,-363.9717C1882.222,-352.0246 1964.4837,-331.5357 2016.7304,-318.5225"/>
<polygon fill="#191970" stroke="#191970" points="2017.5834,-321.9171 2026.441,-316.1039 2015.8915,-315.1246 2017.5834,-321.9171"/>
</g>
<!-- Node53&#45;&gt;Node29 -->
<g id="edge66" class="edge">
<title>Node53&#45;&gt;Node29</title>
<path fill="none" stroke="#191970" d="M1720.3812,-366.9779C1633.508,-358.9183 1486.8622,-343.5764 1362,-322 1350.7881,-320.0626 1338.6451,-317.459 1327.7652,-314.9395"/>
<polygon fill="#191970" stroke="#191970" points="1328.3304,-311.4765 1317.7925,-312.574 1326.7148,-318.2875 1328.3304,-311.4765"/>
</g>
<!-- Node46 -->
<g id="node29" class="node">
<title>Node46</title>
<g id="a_node29"><a xlink:href="SpatialForceVector_8h.html" target="_top" xlink:title="iDynTree/Core/SpatialForce\lVector.h">
<polygon fill="none" stroke="#ff0000" points="2204,-291.5 2204,-321.5 2352,-321.5 2352,-291.5 2204,-291.5"/>
<text text-anchor="start" x="2212" y="-309.5" font-family="FreeSans.ttf" font-size="10.00" fill="#000000">iDynTree/Core/SpatialForce</text>
<text text-anchor="middle" x="2278" y="-298.5" font-family="FreeSans.ttf" font-size="10.00" fill="#000000">Vector.h</text>
</a>
</g>
</g>
<!-- Node53&#45;&gt;Node46 -->
<g id="edge64" class="edge">
<title>Node53&#45;&gt;Node46</title>
<path fill="none" stroke="#191970" d="M1864.547,-363.9717C1951.1874,-351.9283 2100.2734,-331.2047 2193.7633,-318.2093"/>
<polygon fill="#191970" stroke="#191970" points="2194.3328,-321.6638 2203.7556,-316.8203 2193.369,-314.7305 2194.3328,-321.6638"/>
</g>
<!-- Node46&#45;&gt;Node4 -->
<g id="edge65" class="edge">
<title>Node46&#45;&gt;Node4</title>
<path fill="none" stroke="#191970" d="M2277.0386,-291.1599C2275.0651,-265.2036 2269.4559,-211.2271 2255,-168 2251.8379,-158.5443 2246.9235,-148.6658 2242.3632,-140.4979"/>
<polygon fill="#191970" stroke="#191970" points="2245.3632,-138.6944 2237.2987,-131.823 2239.3179,-142.2237 2245.3632,-138.6944"/>
</g>
<!-- Node54&#45;&gt;Node3 -->
<g id="edge69" class="edge">
<title>Node54&#45;&gt;Node3</title>
<path fill="none" stroke="#191970" d="M434.6069,-492.4863C323.6016,-466.9023 38,-392.702 38,-306.5 38,-306.5 38,-306.5 38,-178 38,-101.2654 1295.3396,-71.298 1514.5877,-66.6558"/>
<polygon fill="#191970" stroke="#191970" points="1514.8684,-70.1508 1524.793,-66.4422 1514.7219,-63.1523 1514.8684,-70.1508"/>
</g>
<!-- Node54&#45;&gt;Node11 -->
<g id="edge71" class="edge">
<title>Node54&#45;&gt;Node11</title>
<path fill="none" stroke="#191970" d="M402.2595,-497.3084C267.4764,-486.8668 0,-455.7803 0,-373.5 0,-373.5 0,-373.5 0,-122 0,-24.7346 1603.496,-11.6694 1868.2058,-10.1752"/>
<polygon fill="#191970" stroke="#191970" points="1868.4532,-13.674 1878.434,-10.1195 1868.415,-6.6741 1868.4532,-13.674"/>
</g>
<!-- Node54&#45;&gt;Node27 -->
<g id="edge72" class="edge">
<title>Node54&#45;&gt;Node27</title>
<path fill="none" stroke="#191970" d="M553.5878,-500.5668C872.371,-494.4358 2091.3045,-470.0882 2105,-456 2140.4545,-419.5289 2101.5971,-355.2427 2078.9467,-324.2247"/>
<polygon fill="#191970" stroke="#191970" points="2081.6143,-321.9489 2072.7999,-316.0704 2076.0245,-326.1626 2081.6143,-321.9489"/>
</g>
<!-- Node54&#45;&gt;Node29 -->
<g id="edge70" class="edge">
<title>Node54&#45;&gt;Node29</title>
<path fill="none" stroke="#191970" d="M520.4923,-492.4362C597.6639,-474.6907 765.6639,-434.3239 904,-389 939.8428,-377.2566 946.6391,-368.025 983,-358 1081.8401,-330.749 1202.5671,-315.8028 1260.2161,-309.7458"/>
<polygon fill="#191970" stroke="#191970" points="1260.6369,-313.2211 1270.2268,-308.7173 1259.9215,-306.2577 1260.6369,-313.2211"/>
</g>
<!-- Node54&#45;&gt;Node30 -->
<g id="edge87" class="edge">
<title>Node54&#45;&gt;Node30</title>
<path fill="none" stroke="#191970" d="M477.6262,-492.2729C477.1034,-468.0947 478.2305,-403.9158 502,-358 509.1684,-344.1528 521.4135,-331.747 532.2209,-322.5827"/>
<polygon fill="#191970" stroke="#191970" points="534.5063,-325.236 540.0971,-316.2364 530.1143,-319.7852 534.5063,-325.236"/>
</g>
<!-- Node54&#45;&gt;Node55 -->
<g id="edge73" class="edge">
<title>Node54&#45;&gt;Node55</title>
<path fill="none" stroke="#191970" d="M463.1563,-492.3906C447.9582,-482.5519 424.1152,-467.1167 406.3794,-455.6351"/>
<polygon fill="#191970" stroke="#191970" points="408.0361,-452.5382 397.7395,-450.0419 404.232,-458.4144 408.0361,-452.5382"/>
</g>
<!-- Node55&#45;&gt;Node29 -->
<g id="edge86" class="edge">
<title>Node55&#45;&gt;Node29</title>
<path fill="none" stroke="#191970" d="M449.617,-432.5499C470.828,-430.0686 494.3934,-427.3638 516,-425 672.3278,-407.8975 720.7013,-444.0814 868,-389 890.4063,-380.6213 889.731,-366.7371 912,-358 975.3456,-333.1467 1179.1221,-315.2798 1260.2332,-308.9838"/>
<polygon fill="#191970" stroke="#191970" points="1260.6891,-312.4592 1270.3928,-308.2061 1260.1548,-305.4796 1260.6891,-312.4592"/>
</g>
<!-- Node55&#45;&gt;Node30 -->
<g id="edge79" class="edge">
<title>Node55&#45;&gt;Node30</title>
<path fill="none" stroke="#191970" d="M316.4113,-436.3259C238.6503,-429.0264 126.0212,-409.4317 171,-358 190.6818,-335.4945 368.6406,-319.3615 474.9213,-311.6379"/>
<polygon fill="#191970" stroke="#191970" points="475.2511,-315.1233 484.975,-310.9168 474.7502,-308.1413 475.2511,-315.1233"/>
</g>
<!-- Node55&#45;&gt;Node32 -->
<g id="edge78" class="edge">
<title>Node55&#45;&gt;Node32</title>
<path fill="none" stroke="#191970" d="M449.777,-438.0071C612.9206,-431.6098 1028.3802,-413.3858 1165,-389 1254.9248,-372.9489 1357.0304,-338.4052 1409.2315,-319.5061"/>
<polygon fill="#191970" stroke="#191970" points="1410.4916,-322.7721 1418.6859,-316.0561 1408.092,-316.1962 1410.4916,-322.7721"/>
</g>
<!-- Node56 -->
<g id="node32" class="node">
<title>Node56</title>
<g id="a_node32"><a xlink:href="IJoint_8h.html" target="_top" xlink:title="iDynTree/Model/IJoint.h">
<polygon fill="none" stroke="#000000" points="180,-364 180,-383 308,-383 308,-364 180,-364"/>
<text text-anchor="middle" x="244" y="-371" font-family="FreeSans.ttf" font-size="10.00" fill="#000000">iDynTree/Model/IJoint.h</text>
</a>
</g>
</g>
<!-- Node55&#45;&gt;Node56 -->
<g id="edge74" class="edge">
<title>Node55&#45;&gt;Node56</title>
<path fill="none" stroke="#191970" d="M363.0847,-430.9005C339.5509,-419.5569 300.1899,-400.5844 273.2071,-387.5783"/>
<polygon fill="#191970" stroke="#191970" points="274.4063,-384.2709 263.8784,-383.0817 271.3668,-390.5766 274.4063,-384.2709"/>
</g>
<!-- Node57 -->
<g id="node33" class="node">
<title>Node57</title>
<g id="a_node33"><a xlink:href="Link_8h.html" target="_top" xlink:title="iDynTree/Model/Link.h">
<polygon fill="none" stroke="#ff0000" points="326,-364 326,-383 450,-383 450,-364 326,-364"/>
<text text-anchor="middle" x="388" y="-371" font-family="FreeSans.ttf" font-size="10.00" fill="#000000">iDynTree/Model/Link.h</text>
</a>
</g>
</g>
<!-- Node55&#45;&gt;Node57 -->
<g id="edge76" class="edge">
<title>Node55&#45;&gt;Node57</title>
<path fill="none" stroke="#191970" d="M383.7164,-430.9005C384.4441,-421.149 385.5926,-405.7597 386.5172,-393.3695"/>
<polygon fill="#191970" stroke="#191970" points="390.031,-393.3144 387.285,-383.0817 383.0504,-392.7934 390.031,-393.3144"/>
</g>
<!-- Node62 -->
<g id="node34" class="node">
<title>Node62</title>
<g id="a_node34"><a xlink:href="SolidShapes_8h.html" target="_top" xlink:title="iDynTree/Model/SolidShapes.h">
<polygon fill="none" stroke="#000000" points="696.5,-364 696.5,-383 859.5,-383 859.5,-364 696.5,-364"/>
<text text-anchor="middle" x="778" y="-371" font-family="FreeSans.ttf" font-size="10.00" fill="#000000">iDynTree/Model/SolidShapes.h</text>
</a>
</g>
</g>
<!-- Node55&#45;&gt;Node62 -->
<g id="edge80" class="edge">
<title>Node55&#45;&gt;Node62</title>
<path fill="none" stroke="#191970" d="M439.1744,-430.9717C511.0284,-418.7838 635.2921,-397.7062 711.7059,-384.7448"/>
<polygon fill="#191970" stroke="#191970" points="712.4261,-388.1727 721.7,-383.0496 711.2555,-381.2713 712.4261,-388.1727"/>
</g>
<!-- Node63 -->
<g id="node35" class="node">
<title>Node63</title>
<polygon fill="none" stroke="#bfbfbf" points="253.5,-297 253.5,-316 302.5,-316 302.5,-297 253.5,-297"/>
<text text-anchor="middle" x="278" y="-304" font-family="FreeSans.ttf" font-size="10.00" fill="#000000">cstdlib</text>
</g>
<!-- Node55&#45;&gt;Node63 -->
<g id="edge85" class="edge">
<title>Node55&#45;&gt;Node63</title>
<path fill="none" stroke="#191970" d="M316.2339,-435.7395C251.5516,-429.5736 160.084,-416.2087 138,-389 105.3161,-348.7315 191.7677,-323.7539 243.1054,-312.8716"/>
<polygon fill="#191970" stroke="#191970" points="244.0651,-316.2481 253.1655,-310.8228 242.6681,-309.3889 244.0651,-316.2481"/>
</g>
<!-- Node56&#45;&gt;Node30 -->
<g id="edge75" class="edge">
<title>Node56&#45;&gt;Node30</title>
<path fill="none" stroke="#191970" d="M288.0862,-363.9717C343.7084,-351.9501 439.3475,-331.2797 499.4959,-318.2799"/>
<polygon fill="#191970" stroke="#191970" points="500.529,-321.6375 509.564,-316.1039 499.0502,-314.7955 500.529,-321.6375"/>
</g>
<!-- Node57&#45;&gt;Node30 -->
<g id="edge77" class="edge">
<title>Node57&#45;&gt;Node30</title>
<path fill="none" stroke="#191970" d="M411.7838,-363.9005C440.3819,-352.3579 488.5506,-332.9163 520.8017,-319.8993"/>
<polygon fill="#191970" stroke="#191970" points="522.2972,-323.0701 530.2604,-316.0817 519.6772,-316.5789 522.2972,-323.0701"/>
</g>
<!-- Node62&#45;&gt;Node3 -->
<g id="edge82" class="edge">
<title>Node62&#45;&gt;Node3</title>
<path fill="none" stroke="#191970" d="M787.98,-363.7706C808.1788,-342.9837 852,-291.8538 852,-239.5 852,-239.5 852,-239.5 852,-178 852,-110.0247 1376.8893,-75.6099 1514.3647,-67.762"/>
<polygon fill="#191970" stroke="#191970" points="1514.8756,-71.2388 1524.6633,-67.1827 1514.4824,-64.2499 1514.8756,-71.2388"/>
</g>
<!-- Node62&#45;&gt;Node29 -->
<g id="edge83" class="edge">
<title>Node62&#45;&gt;Node29</title>
<path fill="none" stroke="#191970" d="M834.7999,-363.9623C847.6751,-361.9025 861.2967,-359.8037 874,-358 1017.2065,-337.6667 1188.5731,-318.1466 1260.072,-310.2167"/>
<polygon fill="#191970" stroke="#191970" points="1260.7215,-313.6663 1270.2763,-309.0885 1259.9522,-306.7087 1260.7215,-313.6663"/>
</g>
<!-- Node62&#45;&gt;Node32 -->
<g id="edge84" class="edge">
<title>Node62&#45;&gt;Node32</title>
<path fill="none" stroke="#191970" d="M859.7988,-366.7612C966.9895,-357.7132 1160.7736,-340.6092 1326,-322 1338.475,-320.595 1351.6751,-318.9838 1364.5536,-317.3434"/>
<polygon fill="#191970" stroke="#191970" points="1365.3217,-320.7735 1374.7929,-316.025 1364.4278,-313.8308 1365.3217,-320.7735"/>
</g>
<!-- Node62&#45;&gt;Node63 -->
<g id="edge81" class="edge">
<title>Node62&#45;&gt;Node63</title>
<path fill="none" stroke="#191970" d="M706.8932,-363.9717C598.0059,-349.3808 394.0381,-322.0491 312.7402,-311.1552"/>
<polygon fill="#191970" stroke="#191970" points="312.9277,-307.6491 302.5514,-309.7899 311.9979,-314.5871 312.9277,-307.6491"/>
</g>
<!-- Node64&#45;&gt;Node29 -->
<g id="edge89" class="edge">
<title>Node64&#45;&gt;Node29</title>
<path fill="none" stroke="#191970" d="M1123.3723,-358.4639C1165.2916,-345.6976 1224.2938,-327.7287 1260.7903,-316.6139"/>
<polygon fill="#191970" stroke="#191970" points="1261.908,-319.9323 1270.4545,-313.6707 1259.8686,-313.2359 1261.908,-319.9323"/>
</g>
<!-- Node64&#45;&gt;Node30 -->
<g id="edge90" class="edge">
<title>Node64&#45;&gt;Node30</title>
<path fill="none" stroke="#191970" d="M991.8914,-362.9206C893.6259,-350.2595 730.231,-329.2067 633.2496,-316.711"/>
<polygon fill="#191970" stroke="#191970" points="633.5739,-313.2239 623.2086,-315.4173 632.6794,-320.1666 633.5739,-313.2239"/>
</g>
<!-- Node65&#45;&gt;Node4 -->
<g id="edge93" class="edge">
<title>Node65&#45;&gt;Node4</title>
<path fill="none" stroke="#191970" d="M2682.5942,-620.8115C2701.5535,-600.5887 2742,-551.6307 2742,-502 2742,-502 2742,-502 2742,-239.5 2742,-212.5824 2831.9116,-234.6713 2584,-168 2536.0864,-155.1145 2409.4142,-140.2973 2321.6253,-131.0402"/>
<polygon fill="#191970" stroke="#191970" points="2321.9657,-127.5568 2311.6553,-129.9952 2321.2359,-134.5187 2321.9657,-127.5568"/>
</g>
<!-- Node66&#45;&gt;Node4 -->
<g id="edge97" class="edge">
<title>Node66&#45;&gt;Node4</title>
<path fill="none" stroke="#191970" d="M2536.9145,-363.9092C2529.2147,-330.907 2499.1716,-221.1478 2430,-168 2410.9025,-153.3265 2356.0426,-141.2735 2308.7496,-133.1914"/>
<polygon fill="#191970" stroke="#191970" points="2309.2282,-129.723 2298.7882,-131.5276 2308.0749,-136.6273 2309.2282,-129.723"/>
</g>
<!-- Node66&#45;&gt;Node5 -->
<g id="edge104" class="edge">
<title>Node66&#45;&gt;Node5</title>
<path fill="none" stroke="#191970" d="M2571.0352,-363.8511C2594.0319,-355.6507 2624.6144,-341.9918 2646,-322 2680.126,-290.0981 2705.5859,-265.4291 2684,-224 2644.1199,-147.4597 2548.3303,-100.3658 2495.1532,-79.2029"/>
<polygon fill="#191970" stroke="#191970" points="2496.3318,-75.9061 2485.7429,-75.5519 2493.7997,-82.4321 2496.3318,-75.9061"/>
</g>
<!-- Node66&#45;&gt;Node26 -->
<g id="edge98" class="edge">
<title>Node66&#45;&gt;Node26</title>
<path fill="none" stroke="#191970" d="M2458.2459,-366.2156C2348.2676,-356.2835 2145.2344,-337.9067 1972,-322 1948.2779,-319.8218 1922.6621,-317.4528 1898.7857,-315.2374"/>
<polygon fill="#191970" stroke="#191970" points="1898.9508,-311.7377 1888.67,-314.2983 1898.3037,-318.7078 1898.9508,-311.7377"/>
</g>
<!-- Node66&#45;&gt;Node27 -->
<g id="edge96" class="edge">
<title>Node66&#45;&gt;Node27</title>
<path fill="none" stroke="#191970" d="M2471.5907,-363.9717C2384.7501,-351.6967 2234.116,-330.4046 2142.5968,-317.4683"/>
<polygon fill="#191970" stroke="#191970" points="2142.9515,-313.9837 2132.56,-316.0496 2141.9717,-320.9148 2142.9515,-313.9837"/>
</g>
<!-- Node66&#45;&gt;Node32 -->
<g id="edge103" class="edge">
<title>Node66&#45;&gt;Node32</title>
<path fill="none" stroke="#191970" d="M2458.115,-367.0158C2420.6676,-364.1007 2375.5783,-360.7138 2335,-358 2058.2674,-339.4929 1988.8885,-338.007 1712,-322 1650.04,-318.4181 1580.0225,-314.3685 1527.0962,-311.307"/>
<polygon fill="#191970" stroke="#191970" points="1527.2682,-307.8112 1517.0828,-310.7278 1526.8639,-314.7995 1527.2682,-307.8112"/>
</g>
<!-- Node66&#45;&gt;Node23 -->
<g id="edge99" class="edge">
<title>Node66&#45;&gt;Node23</title>
<path fill="none" stroke="#191970" d="M2529.1392,-363.9831C2494.6159,-331.222 2374.7833,-222.1558 2255,-168 2217.8214,-151.191 2173.9489,-140.261 2136.5196,-133.294"/>
<polygon fill="#191970" stroke="#191970" points="2137.1106,-129.8442 2126.6491,-131.5198 2135.8721,-136.7338 2137.1106,-129.8442"/>
</g>
<!-- Node66&#45;&gt;Node46 -->
<g id="edge102" class="edge">
<title>Node66&#45;&gt;Node46</title>
<path fill="none" stroke="#191970" d="M2501.8822,-363.9717C2461.5083,-353.6075 2396.0922,-336.8148 2346.3713,-324.0512"/>
<polygon fill="#191970" stroke="#191970" points="2347.2047,-320.6518 2336.6484,-321.5553 2345.4641,-327.4319 2347.2047,-320.6518"/>
</g>
<!-- Node67 -->
<g id="node39" class="node">
<title>Node67</title>
<polygon fill="none" stroke="#bfbfbf" points="2560.5,-297 2560.5,-316 2637.5,-316 2637.5,-297 2560.5,-297"/>
<text text-anchor="middle" x="2599" y="-304" font-family="FreeSans.ttf" font-size="10.00" fill="#000000">Eigen/Dense</text>
</g>
<!-- Node66&#45;&gt;Node67 -->
<g id="edge95" class="edge">
<title>Node66&#45;&gt;Node67</title>
<path fill="none" stroke="#191970" d="M2547.5965,-363.9005C2556.953,-353.4525 2572.1052,-336.5325 2583.5401,-323.7635"/>
<polygon fill="#191970" stroke="#191970" points="2586.3555,-325.8661 2590.4194,-316.0817 2581.1408,-321.1963 2586.3555,-325.8661"/>
</g>
<!-- Node35 -->
<g id="node40" class="node">
<title>Node35</title>
<g id="a_node40"><a xlink:href="SpatialMotionVector_8h.html" target="_top" xlink:title="iDynTree/Core/SpatialMotion\lVector.h">
<polygon fill="none" stroke="#ff0000" points="2520.5,-224.5 2520.5,-254.5 2675.5,-254.5 2675.5,-224.5 2520.5,-224.5"/>
<text text-anchor="start" x="2528.5" y="-242.5" font-family="FreeSans.ttf" font-size="10.00" fill="#000000">iDynTree/Core/SpatialMotion</text>
<text text-anchor="middle" x="2598" y="-231.5" font-family="FreeSans.ttf" font-size="10.00" fill="#000000">Vector.h</text>
</a>
</g>
</g>
<!-- Node66&#45;&gt;Node35 -->
<g id="edge100" class="edge">
<title>Node66&#45;&gt;Node35</title>
<path fill="none" stroke="#191970" d="M2538.6175,-363.8262C2538.3666,-347.8581 2539.4823,-315.3327 2551,-291 2556.0752,-280.2779 2564.1523,-270.2179 2572.1893,-261.8842"/>
<polygon fill="#191970" stroke="#191970" points="2574.7797,-264.2461 2579.4716,-254.7468 2569.8799,-259.2469 2574.7797,-264.2461"/>
</g>
<!-- Node35&#45;&gt;Node4 -->
<g id="edge101" class="edge">
<title>Node35&#45;&gt;Node4</title>
<path fill="none" stroke="#191970" d="M2583.2856,-224.2018C2566.3069,-207.5444 2536.7535,-181.4837 2506,-168 2473.6362,-153.8103 2388.7371,-140.8435 2321.7551,-132.3202"/>
<polygon fill="#191970" stroke="#191970" points="2321.9491,-128.8172 2311.5907,-131.0432 2321.0764,-135.7626 2321.9491,-128.8172"/>
</g>
<!-- Node68&#45;&gt;Node5 -->
<g id="edge108" class="edge">
<title>Node68&#45;&gt;Node5</title>
<path fill="none" stroke="#191970" d="M2401.5672,-433.9638C2479.5251,-426.4122 2591.1438,-411.9875 2628,-389 2685.7257,-352.996 2689.4798,-321.8714 2702,-255 2716.6571,-176.7154 2664.0094,-149.9735 2594,-112 2566.8012,-97.2472 2534.0005,-85.9854 2507.4267,-78.298"/>
<polygon fill="#191970" stroke="#191970" points="2508.1457,-74.8645 2497.5716,-75.5269 2506.2509,-81.6032 2508.1457,-74.8645"/>
</g>
<!-- Node68&#45;&gt;Node27 -->
<g id="edge106" class="edge">
<title>Node68&#45;&gt;Node27</title>
<path fill="none" stroke="#191970" d="M2333.7368,-430.8837C2353.6418,-414.7169 2387.887,-381.5523 2368,-358 2366.1018,-355.752 2222.8727,-332.1365 2134.0409,-317.6769"/>
<polygon fill="#191970" stroke="#191970" points="2134.4561,-314.1985 2124.0239,-316.0477 2133.3323,-321.1077 2134.4561,-314.1985"/>
</g>
<!-- Node68&#45;&gt;Node28 -->
<g id="edge107" class="edge">
<title>Node68&#45;&gt;Node28</title>
<path fill="none" stroke="#191970" d="M2312.2602,-430.9005C2302.7478,-420.4525 2287.343,-403.5325 2275.7175,-390.7635"/>
<polygon fill="#191970" stroke="#191970" points="2278.0439,-388.1198 2268.7236,-383.0817 2272.8678,-392.8324 2278.0439,-388.1198"/>
</g>
<!-- Node68&#45;&gt;Node29 -->
<g id="edge109" class="edge">
<title>Node68&#45;&gt;Node29</title>
<path fill="none" stroke="#191970" d="M2240.2268,-434.4724C2086.3291,-422.8715 1761.8211,-397.8084 1711,-389 1657.9959,-379.8133 1646.6517,-369.0284 1594,-358 1491.8712,-336.6081 1464.4864,-341.6069 1362,-322 1350.7345,-319.8448 1338.4955,-317.1623 1327.546,-314.6378"/>
<polygon fill="#191970" stroke="#191970" points="1328.0517,-311.1616 1317.517,-312.2882 1326.455,-317.977 1328.0517,-311.1616"/>
</g>
<!-- Node69&#45;&gt;Node30 -->
<g id="edge111" class="edge">
<title>Node69&#45;&gt;Node30</title>
<path fill="none" stroke="#191970" d="M134.839,-492.2348C129.7174,-466.2295 119.89,-394.7773 157,-358 179.1403,-336.0581 365.2129,-319.5779 474.5842,-311.6799"/>
<polygon fill="#191970" stroke="#191970" points="474.8705,-315.1685 484.5959,-310.9654 474.3721,-308.1862 474.8705,-315.1685"/>
</g>
<!-- Node70&#45;&gt;Node26 -->
<g id="edge113" class="edge">
<title>Node70&#45;&gt;Node26</title>
<path fill="none" stroke="#191970" d="M1616.8875,-430.9568C1635.472,-414.8978 1674.8231,-381.888 1711,-358 1732.1216,-344.0532 1757.3352,-330.3882 1776.3296,-320.6427"/>
<polygon fill="#191970" stroke="#191970" points="1778.0385,-323.7005 1785.3747,-316.0565 1774.8728,-317.4572 1778.0385,-323.7005"/>
</g>
<!-- Node70&#45;&gt;Node30 -->
<g id="edge114" class="edge">
<title>Node70&#45;&gt;Node30</title>
<path fill="none" stroke="#191970" d="M1529.8999,-438.2987C1304.9305,-431.5596 656.1414,-410.3671 616,-389 590.0068,-375.1639 571.8347,-345.0899 562.1549,-325.3302"/>
<polygon fill="#191970" stroke="#191970" points="565.2486,-323.6816 557.8706,-316.0779 558.8966,-326.623 565.2486,-323.6816"/>
</g>
<!-- Node70&#45;&gt;Node31 -->
<g id="edge115" class="edge">
<title>Node70&#45;&gt;Node31</title>
<path fill="none" stroke="#191970" d="M1581.9297,-430.9005C1552.987,-419.3579 1504.2379,-399.9163 1471.5983,-386.8993"/>
<polygon fill="#191970" stroke="#191970" points="1472.6108,-383.5351 1462.0257,-383.0817 1470.0177,-390.0371 1472.6108,-383.5351"/>
</g>
<!-- Node70&#45;&gt;Node53 -->
<g id="edge116" class="edge">
<title>Node70&#45;&gt;Node53</title>
<path fill="none" stroke="#191970" d="M1633.2224,-430.9005C1666.2374,-419.2584 1722.0403,-399.5805 1758.9526,-386.5641"/>
<polygon fill="#191970" stroke="#191970" points="1760.5613,-389.7081 1768.8281,-383.0817 1758.2333,-383.1065 1760.5613,-389.7081"/>
</g>
<!-- Node72 -->
<g id="node45" class="node">
<title>Node72</title>
<g id="a_node45"><a xlink:href="SixAxisForceTorqueSensor_8h.html" target="_top" xlink:title="iDynTree/Sensors/SixAxis\lForceTorqueSensor.h">
<polygon fill="none" stroke="#000000" points="1115,-548.5 1115,-578.5 1255,-578.5 1255,-548.5 1115,-548.5"/>
<text text-anchor="start" x="1123" y="-566.5" font-family="FreeSans.ttf" font-size="10.00" fill="#000000">iDynTree/Sensors/SixAxis</text>
<text text-anchor="middle" x="1185" y="-555.5" font-family="FreeSans.ttf" font-size="10.00" fill="#000000">ForceTorqueSensor.h</text>
</a>
</g>
</g>
<!-- Node71&#45;&gt;Node72 -->
<g id="edge121" class="edge">
<title>Node71&#45;&gt;Node72</title>
<path fill="none" stroke="#191970" d="M987.227,-615.4639C1025.8888,-605.3057 1077.0874,-591.8535 1117.7051,-581.1814"/>
<polygon fill="#191970" stroke="#191970" points="1118.7411,-584.5281 1127.5234,-578.6017 1116.9623,-577.7579 1118.7411,-584.5281"/>
</g>
<!-- Node73 -->
<g id="node46" class="node">
<title>Node73</title>
<g id="a_node46"><a xlink:href="AccelerometerSensor_8h.html" target="_top" xlink:title="iDynTree/Sensors/Accelerometer\lSensor.h">
<polygon fill="none" stroke="#000000" points="390.5,-548.5 390.5,-578.5 565.5,-578.5 565.5,-548.5 390.5,-548.5"/>
<text text-anchor="start" x="398.5" y="-566.5" font-family="FreeSans.ttf" font-size="10.00" fill="#000000">iDynTree/Sensors/Accelerometer</text>
<text text-anchor="middle" x="478" y="-555.5" font-family="FreeSans.ttf" font-size="10.00" fill="#000000">Sensor.h</text>
</a>
</g>
</g>
<!-- Node71&#45;&gt;Node73 -->
<g id="edge125" class="edge">
<title>Node71&#45;&gt;Node73</title>
<path fill="none" stroke="#191970" d="M852.3903,-619.5688C782.7572,-609.6859 677.4784,-594.5587 575.6589,-579.0878"/>
<polygon fill="#191970" stroke="#191970" points="575.913,-575.5863 565.5002,-577.5413 574.8595,-582.5065 575.913,-575.5863"/>
</g>
<!-- Node74 -->
<g id="node47" class="node">
<title>Node74</title>
<g id="a_node47"><a xlink:href="GyroscopeSensor_8h.html" target="_top" xlink:title="iDynTree/Sensors/Gyroscope\lSensor.h">
<polygon fill="none" stroke="#000000" points="941.5,-548.5 941.5,-578.5 1096.5,-578.5 1096.5,-548.5 941.5,-548.5"/>
<text text-anchor="start" x="949.5" y="-566.5" font-family="FreeSans.ttf" font-size="10.00" fill="#000000">iDynTree/Sensors/Gyroscope</text>
<text text-anchor="middle" x="1019" y="-555.5" font-family="FreeSans.ttf" font-size="10.00" fill="#000000">Sensor.h</text>
</a>
</g>
</g>
<!-- Node71&#45;&gt;Node74 -->
<g id="edge127" class="edge">
<title>Node71&#45;&gt;Node74</title>
<path fill="none" stroke="#191970" d="M950.1955,-615.2967C962.1436,-606.302 977.4639,-594.7687 990.6138,-584.8694"/>
<polygon fill="#191970" stroke="#191970" points="993.0002,-587.4538 998.8844,-578.6432 988.7902,-581.8613 993.0002,-587.4538"/>
</g>
<!-- Node75 -->
<g id="node48" class="node">
<title>Node75</title>
<g id="a_node48"><a xlink:href="ThreeAxisAngularAccelerometerSensor_8h.html" target="_top" xlink:title="iDynTree/Sensors/ThreeAxis\lAngularAccelerometerSensor.h">
<polygon fill="none" stroke="#000000" points="756.5,-548.5 756.5,-578.5 923.5,-578.5 923.5,-548.5 756.5,-548.5"/>
<text text-anchor="start" x="764.5" y="-566.5" font-family="FreeSans.ttf" font-size="10.00" fill="#000000">iDynTree/Sensors/ThreeAxis</text>
<text text-anchor="middle" x="840" y="-555.5" font-family="FreeSans.ttf" font-size="10.00" fill="#000000">AngularAccelerometerSensor.h</text>
</a>
</g>
</g>
<!-- Node71&#45;&gt;Node75 -->
<g id="edge130" class="edge">
<title>Node71&#45;&gt;Node75</title>
<path fill="none" stroke="#191970" d="M909.5776,-615.2967C897.4952,-606.302 882.0028,-594.7687 868.7052,-584.8694"/>
<polygon fill="#191970" stroke="#191970" points="870.4529,-581.8072 860.3416,-578.6432 866.2729,-587.4221 870.4529,-581.8072"/>
</g>
<!-- Node76 -->
<g id="node49" class="node">
<title>Node76</title>
<g id="a_node49"><a xlink:href="ThreeAxisForceTorqueContactSensor_8h.html" target="_top" xlink:title="iDynTree/Sensors/ThreeAxis\lForceTorqueContactSensor.h">
<polygon fill="none" stroke="#000000" points="584,-548.5 584,-578.5 738,-578.5 738,-548.5 584,-548.5"/>
<text text-anchor="start" x="592" y="-566.5" font-family="FreeSans.ttf" font-size="10.00" fill="#000000">iDynTree/Sensors/ThreeAxis</text>
<text text-anchor="middle" x="661" y="-555.5" font-family="FreeSans.ttf" font-size="10.00" fill="#000000">ForceTorqueContactSensor.h</text>
</a>
</g>
</g>
<!-- Node71&#45;&gt;Node76 -->
<g id="edge132" class="edge">
<title>Node71&#45;&gt;Node76</title>
<path fill="none" stroke="#191970" d="M869.6311,-615.4639C828.6742,-605.2627 774.3802,-591.7397 731.4466,-581.0462"/>
<polygon fill="#191970" stroke="#191970" points="732.1816,-577.6224 721.6322,-578.6017 730.4898,-584.4149 732.1816,-577.6224"/>
</g>
<!-- Node72&#45;&gt;Node29 -->
<g id="edge124" class="edge">
<title>Node72&#45;&gt;Node29</title>
<path fill="none" stroke="#191970" d="M1183.8777,-548.3747C1183.2409,-533.6667 1183.468,-510.8485 1189,-492 1208.6345,-425.1013 1256.2389,-356.2003 1280.0102,-324.4777"/>
<polygon fill="#191970" stroke="#191970" points="1283.0327,-326.2854 1286.3032,-316.2079 1277.4622,-322.0464 1283.0327,-326.2854"/>
</g>
<!-- Node72&#45;&gt;Node31 -->
<g id="edge123" class="edge">
<title>Node72&#45;&gt;Node31</title>
<path fill="none" stroke="#191970" d="M1185.2372,-548.4959C1186.2272,-532.8203 1189.9586,-508.2869 1203,-492 1249.7819,-433.5761 1332.9104,-401.402 1386.7182,-385.8053"/>
<polygon fill="#191970" stroke="#191970" points="1387.7278,-389.1572 1396.4088,-383.0834 1385.8348,-382.418 1387.7278,-389.1572"/>
</g>
<!-- Node72&#45;&gt;Node54 -->
<g id="edge122" class="edge">
<title>Node72&#45;&gt;Node54</title>
<path fill="none" stroke="#191970" d="M1114.8402,-549.3944C1111.5194,-548.888 1108.2267,-548.4191 1105,-548 867.79,-517.1907 806.2599,-533.2128 568,-512 566.5319,-511.8693 565.0507,-511.7348 563.5593,-511.5968"/>
<polygon fill="#191970" stroke="#191970" points="563.8864,-508.1122 553.5981,-510.6423 563.2186,-515.0803 563.8864,-508.1122"/>
</g>
<!-- Node73&#45;&gt;Node54 -->
<g id="edge126" class="edge">
<title>Node73&#45;&gt;Node54</title>
<path fill="none" stroke="#191970" d="M478,-548.2977C478,-540.3834 478,-530.6043 478,-522.0759"/>
<polygon fill="#191970" stroke="#191970" points="481.5001,-521.8469 478,-511.8469 474.5001,-521.847 481.5001,-521.8469"/>
</g>
<!-- Node74&#45;&gt;Node29 -->
<g id="edge129" class="edge">
<title>Node74&#45;&gt;Node29</title>
<path fill="none" stroke="#191970" d="M1034.3763,-548.2546C1069.2906,-513.76 1157.4655,-427.332 1234,-358 1247.2625,-345.9856 1262.5761,-332.853 1274.4129,-322.8564"/>
<polygon fill="#191970" stroke="#191970" points="1276.937,-325.307 1282.3385,-316.1924 1272.432,-319.9492 1276.937,-325.307"/>
</g>
<!-- Node74&#45;&gt;Node54 -->
<g id="edge128" class="edge">
<title>Node74&#45;&gt;Node54</title>
<path fill="none" stroke="#191970" d="M941.2593,-549.3409C938.135,-548.8697 935.0395,-548.4204 932,-548 770.9661,-525.7261 729.6782,-528.9766 568,-512 566.5342,-511.8461 565.0551,-511.69 563.5655,-511.5322"/>
<polygon fill="#191970" stroke="#191970" points="563.9303,-508.0513 553.6149,-510.4687 563.1863,-515.0117 563.9303,-508.0513"/>
</g>
<!-- Node75&#45;&gt;Node54 -->
<g id="edge131" class="edge">
<title>Node75&#45;&gt;Node54</title>
<path fill="none" stroke="#191970" d="M756.4954,-549.3134C691.9506,-538.348 603.8293,-523.3771 544.1269,-513.2343"/>
<polygon fill="#191970" stroke="#191970" points="544.5057,-509.7486 534.0608,-511.5241 543.3333,-516.6497 544.5057,-509.7486"/>
</g>
<!-- Node76&#45;&gt;Node54 -->
<g id="edge133" class="edge">
<title>Node76&#45;&gt;Node54</title>
<path fill="none" stroke="#191970" d="M616.2332,-548.4554C585.5652,-538.149 545.3229,-524.6249 516.1728,-514.8286"/>
<polygon fill="#191970" stroke="#191970" points="516.9525,-511.3983 506.3585,-511.5303 514.7226,-518.0336 516.9525,-511.3983"/>
</g>
<!-- Node77&#45;&gt;Node2 -->
<g id="edge135" class="edge">
<title>Node77&#45;&gt;Node2</title>
<path fill="none" stroke="#191970" d="M2006.2232,-425.4184C1995.9727,-398.3547 1975.3604,-342.4622 1972,-322 1969.7673,-308.4043 1965.0055,-302.8703 1972,-291 2004.6896,-235.5229 2075.4987,-205.3632 2124.4458,-190.4758"/>
<polygon fill="#191970" stroke="#191970" points="2125.6164,-193.7801 2134.2313,-187.613 2123.6509,-187.0617 2125.6164,-193.7801"/>
</g>
<!-- Node77&#45;&gt;Node4 -->
<g id="edge139" class="edge">
<title>Node77&#45;&gt;Node4</title>
<path fill="none" stroke="#191970" d="M2038.4171,-425.3954C2071.638,-406.9968 2130.891,-376.1338 2185,-358 2260.7036,-332.6291 2310.5161,-383.8554 2361,-322 2413.3684,-257.8356 2304.5749,-171.8634 2254.4644,-137.3165"/>
<polygon fill="#191970" stroke="#191970" points="2256.3631,-134.3753 2246.1206,-131.6658 2252.4379,-140.1712 2256.3631,-134.3753"/>
</g>
<!-- Node77&#45;&gt;Node18 -->
<g id="edge136" class="edge">
<title>Node77&#45;&gt;Node18</title>
<path fill="none" stroke="#191970" d="M1992.6063,-425.3181C1967.8596,-406.6935 1923.0821,-375.4501 1880,-358 1809.2237,-329.3325 1785.8951,-341.2517 1712,-322 1629.1896,-300.4257 1533.7448,-269.5819 1482.0599,-252.3702"/>
<polygon fill="#191970" stroke="#191970" points="1482.9169,-248.9664 1472.3231,-249.1165 1480.6982,-255.6055 1482.9169,-248.9664"/>
</g>
<!-- Node77&#45;&gt;Node26 -->
<g id="edge137" class="edge">
<title>Node77&#45;&gt;Node26</title>
<path fill="none" stroke="#191970" d="M2004.5855,-425.2317C1994.9079,-406.8119 1976.3003,-376.0734 1952,-358 1926.3791,-338.9444 1893.1196,-326.511 1864.7187,-318.6448"/>
<polygon fill="#191970" stroke="#191970" points="1865.4584,-315.2202 1854.8961,-316.0496 1863.6703,-321.988 1865.4584,-315.2202"/>
</g>
<!-- Node77&#45;&gt;Node27 -->
<g id="edge138" class="edge">
<title>Node77&#45;&gt;Node27</title>
<path fill="none" stroke="#191970" d="M2035.222,-425.322C2046.8101,-416.3119 2059.6771,-403.7675 2066,-389 2074.6022,-368.9089 2072.5952,-343.4606 2069.5697,-326.1778"/>
<polygon fill="#191970" stroke="#191970" points="2072.9516,-325.244 2067.5356,-316.1381 2066.091,-326.634 2072.9516,-325.244"/>
</g>
<!-- Node77&#45;&gt;Node29 -->
<g id="edge142" class="edge">
<title>Node77&#45;&gt;Node29</title>
<path fill="none" stroke="#191970" d="M1927.1071,-430.8767C1811.475,-417.6173 1616.9996,-394.7161 1602,-389 1579.3057,-380.3516 1579.4358,-367.2984 1557,-358 1475.584,-324.2577 1448.3156,-339.797 1362,-322 1350.7665,-319.6838 1338.5358,-316.9595 1327.5841,-314.4462"/>
<polygon fill="#191970" stroke="#191970" points="1328.0821,-310.9689 1317.5501,-312.1214 1326.502,-317.7883 1328.0821,-310.9689"/>
</g>
<!-- Node77&#45;&gt;Node30 -->
<g id="edge140" class="edge">
<title>Node77&#45;&gt;Node30</title>
<path fill="none" stroke="#191970" d="M1927.3858,-430.6141C1906.374,-428.4582 1883.889,-426.4044 1863,-425 1732.5666,-416.231 809.4649,-434.7398 687,-389 666.5818,-381.3739 667.1047,-370.136 649,-358 627.9368,-343.8809 602.6327,-330.3146 583.4378,-320.6533"/>
<polygon fill="#191970" stroke="#191970" points="584.7951,-317.4196 574.2819,-316.107 581.682,-323.6892 584.7951,-317.4196"/>
</g>
<!-- Node77&#45;&gt;Node31 -->
<g id="edge141" class="edge">
<title>Node77&#45;&gt;Node31</title>
<path fill="none" stroke="#191970" d="M1927.3409,-430.9709C1837.2424,-420.782 1690.5245,-404.0544 1564,-389 1550.6156,-387.4075 1536.4354,-385.6913 1522.6033,-384.0013"/>
<polygon fill="#191970" stroke="#191970" points="1522.9606,-380.519 1512.6093,-382.7776 1522.1098,-387.4671 1522.9606,-380.519"/>
</g>
</g>
</svg>
