<?xml version="1.0" encoding="UTF-8" standalone="no"?>
<!DOCTYPE svg PUBLIC "-//W3C//DTD SVG 1.1//EN"
 "http://www.w3.org/Graphics/SVG/1.1/DTD/svg11.dtd">
<!-- Generated by graphviz version 2.40.1 (20161225.0304)
 -->
<!-- Title: BerdyHelper.h Pages: 1 -->
<svg width="2592pt" height="643pt"
 viewBox="0.00 0.00 2591.82 643.00" xmlns="http://www.w3.org/2000/svg" xmlns:xlink="http://www.w3.org/1999/xlink">
<g id="graph0" class="graph" transform="scale(1 1) rotate(0) translate(4 639)">
<title>BerdyHelper.h</title>
<!-- Node0 -->
<g id="node1" class="node">
<title>Node0</title>
<polygon fill="#bfbfbf" stroke="#000000" points="1091.3237,-615.5 1091.3237,-634.5 1177.3237,-634.5 1177.3237,-615.5 1091.3237,-615.5"/>
<text text-anchor="middle" x="1134.3237" y="-622.5" font-family="FreeSans.ttf" font-size="10.00" fill="#000000">BerdyHelper.h</text>
</g>
<!-- Node1 -->
<g id="node2" class="node">
<title>Node1</title>
<g id="a_node2"><a xlink:href="Direction_8h.html" target="_top" xlink:title="iDynTree/Core/Direction.h">
<polygon fill="none" stroke="#000000" points="505.8237,-241 505.8237,-260 646.8237,-260 646.8237,-241 505.8237,-241"/>
<text text-anchor="middle" x="576.3237" y="-248" font-family="FreeSans.ttf" font-size="10.00" fill="#000000">iDynTree/Core/Direction.h</text>
</a>
</g>
</g>
<!-- Node0&#45;&gt;Node1 -->
<g id="edge1" class="edge">
<title>Node0&#45;&gt;Node1</title>
<path fill="none" stroke="#191970" d="M1091.2349,-624.406C966.8148,-622.2874 613.4131,-613.2811 575.3237,-579 485.5329,-498.1869 545.0139,-326.2123 568.2206,-269.2566"/>
<polygon fill="#191970" stroke="#191970" points="571.459,-270.5843 572.0874,-260.0081 565.0008,-267.884 571.459,-270.5843"/>
</g>
<!-- Node3 -->
<g id="node4" class="node">
<title>Node3</title>
<g id="a_node4"><a xlink:href="VectorFixSize_8h.html" target="_top" xlink:title="iDynTree/Core/VectorFixSize.h">
<polygon fill="none" stroke="#000000" points="647.8237,-174 647.8237,-193 808.8237,-193 808.8237,-174 647.8237,-174"/>
<text text-anchor="middle" x="728.3237" y="-181" font-family="FreeSans.ttf" font-size="10.00" fill="#000000">iDynTree/Core/VectorFixSize.h</text>
</a>
</g>
</g>
<!-- Node0&#45;&gt;Node3 -->
<g id="edge48" class="edge">
<title>Node0&#45;&gt;Node3</title>
<path fill="none" stroke="#191970" d="M1090.9973,-621.3251C1032.1285,-615.6627 923.9364,-602.8729 834.3237,-579 767.5683,-561.2163 746.0001,-562.5011 689.3237,-523 618.5831,-473.6966 541.6605,-449.9639 571.3237,-369 575.065,-358.7885 674.6473,-244.6676 713.2418,-200.6626"/>
<polygon fill="#191970" stroke="#191970" points="715.9357,-202.8991 719.902,-193.0746 710.6748,-198.2814 715.9357,-202.8991"/>
</g>
<!-- Node4 -->
<g id="node5" class="node">
<title>Node4</title>
<g id="a_node5"><a xlink:href="Utils_8h.html" target="_top" xlink:title="iDynTree/Core/Utils.h">
<polygon fill="none" stroke="#000000" points="592.8237,-56.5 592.8237,-75.5 711.8237,-75.5 711.8237,-56.5 592.8237,-56.5"/>
<text text-anchor="middle" x="652.3237" y="-63.5" font-family="FreeSans.ttf" font-size="10.00" fill="#000000">iDynTree/Core/Utils.h</text>
</a>
</g>
</g>
<!-- Node0&#45;&gt;Node4 -->
<g id="edge49" class="edge">
<title>Node0&#45;&gt;Node4</title>
<path fill="none" stroke="#191970" d="M1091.0346,-624.1434C963.3273,-621.2775 589.7502,-610.3687 472.3237,-579 402.1333,-560.2497 325.3237,-580.1517 325.3237,-507.5 325.3237,-507.5 325.3237,-507.5 325.3237,-317.5 325.3237,-178.0553 514.4731,-105.2431 605.0562,-78.3686"/>
<polygon fill="#191970" stroke="#191970" points="606.1835,-81.686 614.8127,-75.5389 604.2335,-74.9631 606.1835,-81.686"/>
</g>
<!-- Node17 -->
<g id="node18" class="node">
<title>Node17</title>
<g id="a_node18"><a xlink:href="Position_8h.html" target="_top" xlink:title="iDynTree/Core/Position.h">
<polygon fill="none" stroke="#000000" points="1585.3237,-308 1585.3237,-327 1721.3237,-327 1721.3237,-308 1585.3237,-308"/>
<text text-anchor="middle" x="1653.3237" y="-315" font-family="FreeSans.ttf" font-size="10.00" fill="#000000">iDynTree/Core/Position.h</text>
</a>
</g>
</g>
<!-- Node0&#45;&gt;Node17 -->
<g id="edge21" class="edge">
<title>Node0&#45;&gt;Node17</title>
<path fill="none" stroke="#191970" d="M1177.6807,-619.7915C1302.417,-604.2261 1653.3237,-556.1173 1653.3237,-507.5 1653.3237,-507.5 1653.3237,-507.5 1653.3237,-440.5 1653.3237,-403.9994 1653.3237,-361.406 1653.3237,-337.1285"/>
<polygon fill="#191970" stroke="#191970" points="1656.8238,-337.0691 1653.3237,-327.0691 1649.8238,-337.0692 1656.8238,-337.0691"/>
</g>
<!-- Node25 -->
<g id="node26" class="node">
<title>Node25</title>
<g id="a_node26"><a xlink:href="MatrixDynSize_8h.html" target="_top" xlink:title="iDynTree/Core/MatrixDynSize.h">
<polygon fill="none" stroke="#000000" points="2416.8237,-559.5 2416.8237,-578.5 2583.8237,-578.5 2583.8237,-559.5 2416.8237,-559.5"/>
<text text-anchor="middle" x="2500.3237" y="-566.5" font-family="FreeSans.ttf" font-size="10.00" fill="#000000">iDynTree/Core/MatrixDynSize.h</text>
</a>
</g>
</g>
<!-- Node0&#45;&gt;Node25 -->
<g id="edge43" class="edge">
<title>Node0&#45;&gt;Node25</title>
<path fill="none" stroke="#191970" d="M1177.3787,-624.4771C1338.758,-622.2967 1923.0619,-612.4231 2403.3237,-579 2404.4215,-578.9236 2405.526,-578.8446 2406.6363,-578.7633"/>
<polygon fill="#191970" stroke="#191970" points="2407.0589,-582.241 2416.7554,-577.9715 2406.5128,-575.2623 2407.0589,-582.241"/>
</g>
<!-- Node26 -->
<g id="node27" class="node">
<title>Node26</title>
<g id="a_node27"><a xlink:href="VectorDynSize_8h.html" target="_top" xlink:title="iDynTree/Core/VectorDynSize.h">
<polygon fill="none" stroke="#000000" points="580.8237,-369.5 580.8237,-388.5 747.8237,-388.5 747.8237,-369.5 580.8237,-369.5"/>
<text text-anchor="middle" x="664.3237" y="-376.5" font-family="FreeSans.ttf" font-size="10.00" fill="#000000">iDynTree/Core/VectorDynSize.h</text>
</a>
</g>
</g>
<!-- Node0&#45;&gt;Node26 -->
<g id="edge45" class="edge">
<title>Node0&#45;&gt;Node26</title>
<path fill="none" stroke="#191970" d="M1091.0702,-619.6842C1017.346,-609.3214 864.095,-582.0563 748.3237,-523 706.4003,-501.6144 687.042,-498.2572 666.3237,-456 657.5227,-438.0495 658.319,-414.8047 660.5046,-398.571"/>
<polygon fill="#191970" stroke="#191970" points="663.9747,-399.0382 662.1389,-388.6036 657.0669,-397.9055 663.9747,-399.0382"/>
</g>
<!-- Node27 -->
<g id="node28" class="node">
<title>Node27</title>
<g id="a_node28"><a xlink:href="Triplets_8h.html" target="_top" xlink:title="iDynTree/Core/Triplets.h">
<polygon fill="none" stroke="#000000" points="353.3237,-431 353.3237,-450 485.3237,-450 485.3237,-431 353.3237,-431"/>
<text text-anchor="middle" x="419.3237" y="-438" font-family="FreeSans.ttf" font-size="10.00" fill="#000000">iDynTree/Core/Triplets.h</text>
</a>
</g>
</g>
<!-- Node0&#45;&gt;Node27 -->
<g id="edge50" class="edge">
<title>Node0&#45;&gt;Node27</title>
<path fill="none" stroke="#191970" d="M1091.292,-624.1973C956.6298,-621.3679 549.261,-610.2842 499.3237,-579 455.5399,-551.5707 433.141,-490.8507 424.1703,-459.7212"/>
<polygon fill="#191970" stroke="#191970" points="427.5419,-458.7812 421.5443,-450.0475 420.7864,-460.6152 427.5419,-458.7812"/>
</g>
<!-- Node28 -->
<g id="node29" class="node">
<title>Node28</title>
<polygon fill="none" stroke="#bfbfbf" points="1337.8237,-369.5 1337.8237,-388.5 1384.8237,-388.5 1384.8237,-369.5 1337.8237,-369.5"/>
<text text-anchor="middle" x="1361.3237" y="-376.5" font-family="FreeSans.ttf" font-size="10.00" fill="#000000">vector</text>
</g>
<!-- Node0&#45;&gt;Node28 -->
<g id="edge117" class="edge">
<title>Node0&#45;&gt;Node28</title>
<path fill="none" stroke="#191970" d="M1136.5633,-615.082C1144.3302,-582.9039 1173.1049,-480.301 1235.3237,-425 1249.302,-412.5759 1295.3392,-397.6342 1327.7047,-388.2247"/>
<polygon fill="#191970" stroke="#191970" points="1329.0219,-391.4884 1337.6746,-385.3743 1327.0977,-384.7581 1329.0219,-391.4884"/>
</g>
<!-- Node29 -->
<g id="node30" class="node">
<title>Node29</title>
<g id="a_node30"><a xlink:href="Indices_8h.html" target="_top" xlink:title="iDynTree/Model/Indices.h">
<polygon fill="none" stroke="#000000" points="1954.3237,-369.5 1954.3237,-388.5 2092.3237,-388.5 2092.3237,-369.5 1954.3237,-369.5"/>
<text text-anchor="middle" x="2023.3237" y="-376.5" font-family="FreeSans.ttf" font-size="10.00" fill="#000000">iDynTree/Model/Indices.h</text>
</a>
</g>
</g>
<!-- Node0&#45;&gt;Node29 -->
<g id="edge54" class="edge">
<title>Node0&#45;&gt;Node29</title>
<path fill="none" stroke="#191970" d="M1177.6341,-622.4212C1382.2463,-609.7705 2244.9597,-551.0187 2312.3237,-456 2320.2922,-444.7603 2321.2677,-435.4801 2312.3237,-425 2298.7633,-409.1105 2183.3461,-394.6514 2102.5436,-386.343"/>
<polygon fill="#191970" stroke="#191970" points="2102.6789,-382.8388 2092.3765,-385.3111 2101.972,-389.803 2102.6789,-382.8388"/>
</g>
<!-- Node30 -->
<g id="node31" class="node">
<title>Node30</title>
<g id="a_node31"><a xlink:href="LinkState_8h.html" target="_top" xlink:title="iDynTree/Model/LinkState.h">
<polygon fill="none" stroke="#000000" points="938.8237,-431 938.8237,-450 1087.8237,-450 1087.8237,-431 938.8237,-431"/>
<text text-anchor="middle" x="1013.3237" y="-438" font-family="FreeSans.ttf" font-size="10.00" fill="#000000">iDynTree/Model/LinkState.h</text>
</a>
</g>
</g>
<!-- Node0&#45;&gt;Node30 -->
<g id="edge56" class="edge">
<title>Node0&#45;&gt;Node30</title>
<path fill="none" stroke="#191970" d="M1133.8898,-615.2605C1132.3836,-591.7374 1125.7045,-530.9002 1096.3237,-492 1083.8194,-475.4443 1064.3102,-462.9504 1047.3473,-454.4173"/>
<polygon fill="#191970" stroke="#191970" points="1048.7796,-451.2228 1038.2461,-450.0835 1045.77,-457.5428 1048.7796,-451.2228"/>
</g>
<!-- Node50 -->
<g id="node41" class="node">
<title>Node50</title>
<g id="a_node41"><a xlink:href="Traversal_8h.html" target="_top" xlink:title="iDynTree/Model/Traversal.h">
<polygon fill="none" stroke="#000000" points="1477.3237,-431 1477.3237,-450 1625.3237,-450 1625.3237,-431 1477.3237,-431"/>
<text text-anchor="middle" x="1551.3237" y="-438" font-family="FreeSans.ttf" font-size="10.00" fill="#000000">iDynTree/Model/Traversal.h</text>
</a>
</g>
</g>
<!-- Node0&#45;&gt;Node50 -->
<g id="edge79" class="edge">
<title>Node0&#45;&gt;Node50</title>
<path fill="none" stroke="#191970" d="M1177.4317,-619.4862C1237.7876,-611.3299 1344.0462,-595.2542 1379.3237,-579 1445.2077,-548.6439 1507.6609,-487.5012 1535.7638,-457.6638"/>
<polygon fill="#191970" stroke="#191970" points="1538.518,-459.8412 1542.7537,-450.1299 1533.3864,-455.0802 1538.518,-459.8412"/>
</g>
<!-- Node51 -->
<g id="node42" class="node">
<title>Node51</title>
<g id="a_node42"><a xlink:href="FreeFloatingState_8h.html" target="_top" xlink:title="iDynTree/Model/FreeFloating\lState.h">
<polygon fill="none" stroke="#000000" points="933.3237,-492.5 933.3237,-522.5 1087.3237,-522.5 1087.3237,-492.5 933.3237,-492.5"/>
<text text-anchor="start" x="941.3237" y="-510.5" font-family="FreeSans.ttf" font-size="10.00" fill="#000000">iDynTree/Model/FreeFloating</text>
<text text-anchor="middle" x="1010.3237" y="-499.5" font-family="FreeSans.ttf" font-size="10.00" fill="#000000">State.h</text>
</a>
</g>
</g>
<!-- Node0&#45;&gt;Node51 -->
<g id="edge82" class="edge">
<title>Node0&#45;&gt;Node51</title>
<path fill="none" stroke="#191970" d="M1124.1763,-615.3845C1104.5924,-596.8272 1061.1221,-555.6355 1033.9208,-529.8601"/>
<polygon fill="#191970" stroke="#191970" points="1036.0459,-527.052 1026.3797,-522.7143 1031.2311,-532.1332 1036.0459,-527.052"/>
</g>
<!-- Node53 -->
<g id="node44" class="node">
<title>Node53</title>
<g id="a_node44"><a xlink:href="Sensors_8h.html" target="_top" xlink:title="iDynTree/Sensors/Sensors.h">
<polygon fill="none" stroke="#000000" points="1219.8237,-559.5 1219.8237,-578.5 1370.8237,-578.5 1370.8237,-559.5 1219.8237,-559.5"/>
<text text-anchor="middle" x="1295.3237" y="-566.5" font-family="FreeSans.ttf" font-size="10.00" fill="#000000">iDynTree/Sensors/Sensors.h</text>
</a>
</g>
</g>
<!-- Node0&#45;&gt;Node53 -->
<g id="edge94" class="edge">
<title>Node0&#45;&gt;Node53</title>
<path fill="none" stroke="#191970" d="M1162.0006,-615.3733C1188.6566,-606.1016 1229.1475,-592.0178 1258.5121,-581.804"/>
<polygon fill="#191970" stroke="#191970" points="1259.7129,-585.0921 1268.008,-578.5011 1257.4132,-578.4807 1259.7129,-585.0921"/>
</g>
<!-- Node63 -->
<g id="node50" class="node">
<title>Node63</title>
<g id="a_node50"><a xlink:href="LinkTraversalsCache_8h.html" target="_top" xlink:title="iDynTree/Model/LinkTraversals\lCache.h">
<polygon fill="none" stroke="#000000" points="1257.3237,-425.5 1257.3237,-455.5 1421.3237,-455.5 1421.3237,-425.5 1257.3237,-425.5"/>
<text text-anchor="start" x="1265.3237" y="-443.5" font-family="FreeSans.ttf" font-size="10.00" fill="#000000">iDynTree/Model/LinkTraversals</text>
<text text-anchor="middle" x="1339.3237" y="-432.5" font-family="FreeSans.ttf" font-size="10.00" fill="#000000">Cache.h</text>
</a>
</g>
</g>
<!-- Node0&#45;&gt;Node63 -->
<g id="edge114" class="edge">
<title>Node0&#45;&gt;Node63</title>
<path fill="none" stroke="#191970" d="M1145.0568,-615.3402C1176.6876,-586.8725 1270.1239,-502.7799 1314.8827,-462.4969"/>
<polygon fill="#191970" stroke="#191970" points="1317.3029,-465.0276 1322.3945,-455.7363 1312.6201,-459.8245 1317.3029,-465.0276"/>
</g>
<!-- Node2 -->
<g id="node3" class="node">
<title>Node2</title>
<polygon fill="none" stroke="#bfbfbf" points="1535.3237,-56.5 1535.3237,-75.5 1579.3237,-75.5 1579.3237,-56.5 1535.3237,-56.5"/>
<text text-anchor="middle" x="1557.3237" y="-63.5" font-family="FreeSans.ttf" font-size="10.00" fill="#000000">string</text>
</g>
<!-- Node1&#45;&gt;Node2 -->
<g id="edge2" class="edge">
<title>Node1&#45;&gt;Node2</title>
<path fill="none" stroke="#191970" d="M631.1487,-240.9355C724.7313,-224.7736 921.3817,-191.5243 1088.3237,-168 1220.426,-149.3851 1260.225,-175.5506 1386.3237,-132 1402.5342,-126.4014 1403.7587,-119.2009 1419.3237,-112 1454.4348,-95.7565 1496.9393,-82.4817 1525.4167,-74.439"/>
<polygon fill="#191970" stroke="#191970" points="1526.5329,-77.7616 1535.234,-71.7168 1524.6624,-71.0162 1526.5329,-77.7616"/>
</g>
<!-- Node1&#45;&gt;Node3 -->
<g id="edge3" class="edge">
<title>Node1&#45;&gt;Node3</title>
<path fill="none" stroke="#191970" d="M598.1016,-240.9005C624.0621,-229.4574 667.6351,-210.2509 697.1583,-197.2374"/>
<polygon fill="#191970" stroke="#191970" points="698.8475,-200.3178 706.5862,-193.0817 696.024,-193.9125 698.8475,-200.3178"/>
</g>
<!-- Node1&#45;&gt;Node4 -->
<g id="edge20" class="edge">
<title>Node1&#45;&gt;Node4</title>
<path fill="none" stroke="#191970" d="M580.3028,-240.8402C592.3073,-211.6978 628.3239,-124.2626 644.4115,-85.208"/>
<polygon fill="#191970" stroke="#191970" points="647.8114,-86.1435 648.384,-75.5641 641.339,-83.4773 647.8114,-86.1435"/>
</g>
<!-- Node3&#45;&gt;Node2 -->
<g id="edge16" class="edge">
<title>Node3&#45;&gt;Node2</title>
<path fill="none" stroke="#191970" d="M808.9287,-176.8101C911.0691,-167.7511 1081.0761,-150.5678 1141.3237,-132 1159.9394,-126.2628 1161.7005,-117.7126 1180.3237,-112 1244.5936,-92.2855 1445.6645,-74.7926 1524.8312,-68.4899"/>
<polygon fill="#191970" stroke="#191970" points="1525.4718,-71.9504 1535.166,-67.6758 1524.922,-64.972 1525.4718,-71.9504"/>
</g>
<!-- Node3&#45;&gt;Node4 -->
<g id="edge4" class="edge">
<title>Node3&#45;&gt;Node4</title>
<path fill="none" stroke="#191970" d="M722.1043,-173.8845C709.4673,-154.3471 680.6029,-109.7211 664.2318,-84.4106"/>
<polygon fill="#191970" stroke="#191970" points="666.999,-82.2442 658.6291,-75.7484 661.1213,-86.0459 666.999,-82.2442"/>
</g>
<!-- Node6 -->
<g id="node7" class="node">
<title>Node6</title>
<g id="a_node7"><a xlink:href="Span_8h.html" target="_top" xlink:title="iDynTree/Core/Span.h">
<polygon fill="none" stroke="#000000" points="186.8237,-112.5 186.8237,-131.5 307.8237,-131.5 307.8237,-112.5 186.8237,-112.5"/>
<text text-anchor="middle" x="247.3237" y="-119.5" font-family="FreeSans.ttf" font-size="10.00" fill="#000000">iDynTree/Core/Span.h</text>
</a>
</g>
</g>
<!-- Node3&#45;&gt;Node6 -->
<g id="edge6" class="edge">
<title>Node3&#45;&gt;Node6</title>
<path fill="none" stroke="#191970" d="M653.9586,-173.9918C562.4225,-162.2881 408.0958,-142.5561 318.1935,-131.0613"/>
<polygon fill="#191970" stroke="#191970" points="318.4566,-127.5665 308.0934,-129.7699 317.5688,-134.51 318.4566,-127.5665"/>
</g>
<!-- Node7 -->
<g id="node8" class="node">
<title>Node7</title>
<polygon fill="none" stroke="#bfbfbf" points="522.3237,-56.5 522.3237,-75.5 574.3237,-75.5 574.3237,-56.5 522.3237,-56.5"/>
<text text-anchor="middle" x="548.3237" y="-63.5" font-family="FreeSans.ttf" font-size="10.00" fill="#000000">cassert</text>
</g>
<!-- Node3&#45;&gt;Node7 -->
<g id="edge18" class="edge">
<title>Node3&#45;&gt;Node7</title>
<path fill="none" stroke="#191970" d="M713.5936,-173.8845C682.3998,-153.5219 609.4577,-105.9069 571.778,-81.3104"/>
<polygon fill="#191970" stroke="#191970" points="573.292,-78.119 563.005,-75.5836 569.4656,-83.9807 573.292,-78.119"/>
</g>
<!-- Node15 -->
<g id="node16" class="node">
<title>Node15</title>
<polygon fill="none" stroke="#bfbfbf" points="730.3237,-56.5 730.3237,-75.5 786.3237,-75.5 786.3237,-56.5 730.3237,-56.5"/>
<text text-anchor="middle" x="758.3237" y="-63.5" font-family="FreeSans.ttf" font-size="10.00" fill="#000000">sstream</text>
</g>
<!-- Node3&#45;&gt;Node15 -->
<g id="edge17" class="edge">
<title>Node3&#45;&gt;Node15</title>
<path fill="none" stroke="#191970" d="M723.1129,-173.9237C716.2109,-159.8947 705.845,-133.1304 714.3237,-112 718.987,-100.3782 728.1426,-90.0324 736.8999,-82.1099"/>
<polygon fill="#191970" stroke="#191970" points="739.2964,-84.6675 744.6901,-75.5484 734.7869,-79.3136 739.2964,-84.6675"/>
</g>
<!-- Node16 -->
<g id="node17" class="node">
<title>Node16</title>
<polygon fill="none" stroke="#bfbfbf" points="804.3237,-56.5 804.3237,-75.5 854.3237,-75.5 854.3237,-56.5 804.3237,-56.5"/>
<text text-anchor="middle" x="829.3237" y="-63.5" font-family="FreeSans.ttf" font-size="10.00" fill="#000000">cstring</text>
</g>
<!-- Node3&#45;&gt;Node16 -->
<g id="edge19" class="edge">
<title>Node3&#45;&gt;Node16</title>
<path fill="none" stroke="#191970" d="M728.5776,-173.6613C729.4384,-158.8175 732.9979,-130.472 747.3237,-112 759.3654,-96.4732 778.2131,-85.3776 794.8038,-77.9789"/>
<polygon fill="#191970" stroke="#191970" points="796.3592,-81.1225 804.2428,-74.0444 793.6659,-74.6614 796.3592,-81.1225"/>
</g>
<!-- Node5 -->
<g id="node6" class="node">
<title>Node5</title>
<polygon fill="none" stroke="#bfbfbf" points="291.8237,-.5 291.8237,-19.5 344.8237,-19.5 344.8237,-.5 291.8237,-.5"/>
<text text-anchor="middle" x="318.3237" y="-7.5" font-family="FreeSans.ttf" font-size="10.00" fill="#000000">cstddef</text>
</g>
<!-- Node4&#45;&gt;Node5 -->
<g id="edge5" class="edge">
<title>Node4&#45;&gt;Node5</title>
<path fill="none" stroke="#191970" d="M595.2866,-56.4369C526.7051,-44.9382 413.5843,-25.9718 355.4116,-16.2183"/>
<polygon fill="#191970" stroke="#191970" points="355.6532,-12.7101 345.2121,-14.5082 354.4956,-19.6137 355.6532,-12.7101"/>
</g>
<!-- Node6&#45;&gt;Node5 -->
<g id="edge10" class="edge">
<title>Node6&#45;&gt;Node5</title>
<path fill="none" stroke="#191970" d="M186.7697,-119.1169C122.4841,-114.6376 27.0593,-103.4431 4.3237,-76 -1.3471,-69.155 -1.4883,-62.7255 4.3237,-56 22.2731,-35.2295 202.589,-18.9191 281.5804,-12.7132"/>
<polygon fill="#191970" stroke="#191970" points="281.8834,-16.2003 291.5835,-11.9389 281.3431,-9.2212 281.8834,-16.2003"/>
</g>
<!-- Node6&#45;&gt;Node7 -->
<g id="edge7" class="edge">
<title>Node6&#45;&gt;Node7</title>
<path fill="none" stroke="#191970" d="M307.9147,-113.2317C361.8463,-105.0122 442.7384,-91.6637 512.3237,-76 512.4226,-75.9777 512.5216,-75.9554 512.6208,-75.9329"/>
<polygon fill="#191970" stroke="#191970" points="513.1744,-79.4009 522.0537,-73.621 511.508,-72.6021 513.1744,-79.4009"/>
</g>
<!-- Node8 -->
<g id="node9" class="node">
<title>Node8</title>
<polygon fill="none" stroke="#bfbfbf" points="13.3237,-56.5 13.3237,-75.5 77.3237,-75.5 77.3237,-56.5 13.3237,-56.5"/>
<text text-anchor="middle" x="45.3237" y="-63.5" font-family="FreeSans.ttf" font-size="10.00" fill="#000000">algorithm</text>
</g>
<!-- Node6&#45;&gt;Node8 -->
<g id="edge8" class="edge">
<title>Node6&#45;&gt;Node8</title>
<path fill="none" stroke="#191970" d="M212.5987,-112.3733C177.9543,-102.7689 124.6834,-88.0007 87.5983,-77.7197"/>
<polygon fill="#191970" stroke="#191970" points="88.1681,-74.2457 77.5965,-74.9469 86.298,-80.9913 88.1681,-74.2457"/>
</g>
<!-- Node9 -->
<g id="node10" class="node">
<title>Node9</title>
<polygon fill="none" stroke="#bfbfbf" points="95.3237,-56.5 95.3237,-75.5 137.3237,-75.5 137.3237,-56.5 95.3237,-56.5"/>
<text text-anchor="middle" x="116.3237" y="-63.5" font-family="FreeSans.ttf" font-size="10.00" fill="#000000">array</text>
</g>
<!-- Node6&#45;&gt;Node9 -->
<g id="edge9" class="edge">
<title>Node6&#45;&gt;Node9</title>
<path fill="none" stroke="#191970" d="M224.804,-112.3733C203.3293,-103.1932 170.819,-89.2957 146.9869,-79.1079"/>
<polygon fill="#191970" stroke="#191970" points="148.253,-75.8428 137.6821,-75.1303 145.5014,-82.2794 148.253,-75.8428"/>
</g>
<!-- Node10 -->
<g id="node11" class="node">
<title>Node10</title>
<polygon fill="none" stroke="#bfbfbf" points="450.8237,-56.5 450.8237,-75.5 503.8237,-75.5 503.8237,-56.5 450.8237,-56.5"/>
<text text-anchor="middle" x="477.3237" y="-63.5" font-family="FreeSans.ttf" font-size="10.00" fill="#000000">iterator</text>
</g>
<!-- Node6&#45;&gt;Node10 -->
<g id="edge11" class="edge">
<title>Node6&#45;&gt;Node10</title>
<path fill="none" stroke="#191970" d="M289.8243,-112.4134C327.0519,-103.9064 382.8466,-90.8924 440.5814,-76.1211"/>
<polygon fill="#191970" stroke="#191970" points="441.8045,-79.4205 450.6178,-73.5403 440.0612,-72.641 441.8045,-79.4205"/>
</g>
<!-- Node11 -->
<g id="node12" class="node">
<title>Node11</title>
<polygon fill="none" stroke="#bfbfbf" points="155.3237,-56.5 155.3237,-75.5 199.3237,-75.5 199.3237,-56.5 155.3237,-56.5"/>
<text text-anchor="middle" x="177.3237" y="-63.5" font-family="FreeSans.ttf" font-size="10.00" fill="#000000">limits</text>
</g>
<!-- Node6&#45;&gt;Node11 -->
<g id="edge12" class="edge">
<title>Node6&#45;&gt;Node11</title>
<path fill="none" stroke="#191970" d="M235.1307,-112.2455C224.6916,-103.8943 209.4583,-91.7076 197.2497,-81.9408"/>
<polygon fill="#191970" stroke="#191970" points="199.3722,-79.1566 189.3771,-75.6427 194.9993,-84.6227 199.3722,-79.1566"/>
</g>
<!-- Node12 -->
<g id="node13" class="node">
<title>Node12</title>
<polygon fill="none" stroke="#bfbfbf" points="217.8237,-56.5 217.8237,-75.5 282.8237,-75.5 282.8237,-56.5 217.8237,-56.5"/>
<text text-anchor="middle" x="250.3237" y="-63.5" font-family="FreeSans.ttf" font-size="10.00" fill="#000000">stdexcept</text>
</g>
<!-- Node6&#45;&gt;Node12 -->
<g id="edge13" class="edge">
<title>Node6&#45;&gt;Node12</title>
<path fill="none" stroke="#191970" d="M247.8463,-112.2455C248.2377,-104.9382 248.7865,-94.6944 249.2681,-85.7046"/>
<polygon fill="#191970" stroke="#191970" points="252.7671,-85.8156 249.8071,-75.6427 245.7771,-85.4411 252.7671,-85.8156"/>
</g>
<!-- Node13 -->
<g id="node14" class="node">
<title>Node13</title>
<polygon fill="none" stroke="#bfbfbf" points="300.8237,-56.5 300.8237,-75.5 369.8237,-75.5 369.8237,-56.5 300.8237,-56.5"/>
<text text-anchor="middle" x="335.3237" y="-63.5" font-family="FreeSans.ttf" font-size="10.00" fill="#000000">type_traits</text>
</g>
<!-- Node6&#45;&gt;Node13 -->
<g id="edge14" class="edge">
<title>Node6&#45;&gt;Node13</title>
<path fill="none" stroke="#191970" d="M262.6522,-112.2455C276.1541,-103.6534 296.0359,-91.0014 311.5923,-81.1018"/>
<polygon fill="#191970" stroke="#191970" points="313.6134,-83.9643 320.1709,-75.6427 309.8552,-78.0587 313.6134,-83.9643"/>
</g>
<!-- Node14 -->
<g id="node15" class="node">
<title>Node14</title>
<polygon fill="none" stroke="#bfbfbf" points="387.8237,-56.5 387.8237,-75.5 432.8237,-75.5 432.8237,-56.5 387.8237,-56.5"/>
<text text-anchor="middle" x="410.3237" y="-63.5" font-family="FreeSans.ttf" font-size="10.00" fill="#000000">utility</text>
</g>
<!-- Node6&#45;&gt;Node14 -->
<g id="edge15" class="edge">
<title>Node6&#45;&gt;Node14</title>
<path fill="none" stroke="#191970" d="M275.3444,-112.3733C303.8853,-102.5678 348.0924,-87.3801 378.0731,-77.08"/>
<polygon fill="#191970" stroke="#191970" points="379.3317,-80.3484 387.6519,-73.7891 377.0572,-73.7282 379.3317,-80.3484"/>
</g>
<!-- Node17&#45;&gt;Node2 -->
<g id="edge42" class="edge">
<title>Node17&#45;&gt;Node2</title>
<path fill="none" stroke="#191970" d="M1690.5938,-307.9809C1761.838,-287.9514 1906.0493,-237.5026 1856.3237,-168 1824.4507,-123.4503 1660.284,-86.3232 1589.6745,-72.1577"/>
<polygon fill="#191970" stroke="#191970" points="1590.0595,-68.6661 1579.5705,-70.1597 1588.7016,-75.5331 1590.0595,-68.6661"/>
</g>
<!-- Node18 -->
<g id="node19" class="node">
<title>Node18</title>
<g id="a_node19"><a xlink:href="PositionRaw_8h.html" target="_top" xlink:title="iDynTree/Core/PositionRaw.h">
<polygon fill="none" stroke="#000000" points="1575.3237,-241 1575.3237,-260 1731.3237,-260 1731.3237,-241 1575.3237,-241"/>
<text text-anchor="middle" x="1653.3237" y="-248" font-family="FreeSans.ttf" font-size="10.00" fill="#000000">iDynTree/Core/PositionRaw.h</text>
</a>
</g>
</g>
<!-- Node17&#45;&gt;Node18 -->
<g id="edge22" class="edge">
<title>Node17&#45;&gt;Node18</title>
<path fill="none" stroke="#191970" d="M1653.3237,-307.9005C1653.3237,-298.149 1653.3237,-282.7597 1653.3237,-270.3695"/>
<polygon fill="#191970" stroke="#191970" points="1656.8238,-270.0816 1653.3237,-260.0817 1649.8238,-270.0817 1656.8238,-270.0816"/>
</g>
<!-- Node19 -->
<g id="node20" class="node">
<title>Node19</title>
<g id="a_node20"><a xlink:href="PositionSemantics_8h.html" target="_top" xlink:title="iDynTree/Core/PositionSemantics.h">
<polygon fill="none" stroke="#000000" points="1660.8237,-174 1660.8237,-193 1847.8237,-193 1847.8237,-174 1660.8237,-174"/>
<text text-anchor="middle" x="1754.3237" y="-181" font-family="FreeSans.ttf" font-size="10.00" fill="#000000">iDynTree/Core/PositionSemantics.h</text>
</a>
</g>
</g>
<!-- Node17&#45;&gt;Node19 -->
<g id="edge25" class="edge">
<title>Node17&#45;&gt;Node19</title>
<path fill="none" stroke="#191970" d="M1682.1504,-307.834C1701.6898,-299.7541 1726.4041,-286.2503 1740.3237,-266 1753.0754,-247.4489 1755.5194,-221.1296 1755.4621,-203.2427"/>
<polygon fill="#191970" stroke="#191970" points="1758.9565,-202.9974 1755.1599,-193.1062 1751.9596,-203.2061 1758.9565,-202.9974"/>
</g>
<!-- Node20 -->
<g id="node21" class="node">
<title>Node20</title>
<g id="a_node21"><a xlink:href="Rotation_8h.html" target="_top" xlink:title="iDynTree/Core/Rotation.h">
<polygon fill="none" stroke="#000000" points="1381.8237,-241 1381.8237,-260 1518.8237,-260 1518.8237,-241 1381.8237,-241"/>
<text text-anchor="middle" x="1450.3237" y="-248" font-family="FreeSans.ttf" font-size="10.00" fill="#000000">iDynTree/Core/Rotation.h</text>
</a>
</g>
</g>
<!-- Node17&#45;&gt;Node20 -->
<g id="edge27" class="edge">
<title>Node17&#45;&gt;Node20</title>
<path fill="none" stroke="#191970" d="M1624.2388,-307.9005C1588.6634,-296.1589 1528.3229,-276.2436 1488.8992,-263.2318"/>
<polygon fill="#191970" stroke="#191970" points="1489.9479,-259.8923 1479.3547,-260.0817 1487.7539,-266.5396 1489.9479,-259.8923"/>
</g>
<!-- Node18&#45;&gt;Node2 -->
<g id="edge24" class="edge">
<title>Node18&#45;&gt;Node2</title>
<path fill="none" stroke="#191970" d="M1652.0398,-240.668C1648.5606,-216.861 1637.2657,-154.9218 1609.3237,-112 1601.7203,-100.3204 1590.3774,-89.8073 1580.224,-81.7897"/>
<polygon fill="#191970" stroke="#191970" points="1582.1799,-78.8814 1572.0831,-75.671 1577.9741,-84.4771 1582.1799,-78.8814"/>
</g>
<!-- Node18&#45;&gt;Node3 -->
<g id="edge23" class="edge">
<title>Node18&#45;&gt;Node3</title>
<path fill="none" stroke="#191970" d="M1581.7712,-240.9667C1564.0028,-238.801 1544.9885,-236.6544 1527.3237,-235 1271.2073,-211.0131 967.8486,-194.7938 819.3861,-187.6465"/>
<polygon fill="#191970" stroke="#191970" points="819.1232,-184.13 808.9672,-187.1476 818.7883,-191.122 819.1232,-184.13"/>
</g>
<!-- Node19&#45;&gt;Node2 -->
<g id="edge26" class="edge">
<title>Node19&#45;&gt;Node2</title>
<path fill="none" stroke="#191970" d="M1741.1333,-173.9562C1721.2469,-159.737 1682.1988,-132.4709 1647.3237,-112 1627.66,-100.4579 1604.7714,-88.7818 1586.9974,-80.0813"/>
<polygon fill="#191970" stroke="#191970" points="1588.2271,-76.7879 1577.7021,-75.5736 1585.1727,-83.0863 1588.2271,-76.7879"/>
</g>
<!-- Node20&#45;&gt;Node2 -->
<g id="edge28" class="edge">
<title>Node20&#45;&gt;Node2</title>
<path fill="none" stroke="#191970" d="M1480.067,-240.8593C1499.837,-232.8515 1524.6015,-219.4237 1538.3237,-199 1561.5324,-164.4572 1561.6196,-113.4608 1559.541,-85.7239"/>
<polygon fill="#191970" stroke="#191970" points="1563.0189,-85.3232 1558.6133,-75.6878 1556.0487,-85.9675 1563.0189,-85.3232"/>
</g>
<!-- Node20&#45;&gt;Node3 -->
<g id="edge41" class="edge">
<title>Node20&#45;&gt;Node3</title>
<path fill="none" stroke="#191970" d="M1381.7488,-244.1364C1250.9524,-231.9988 965.8421,-205.5412 819.2948,-191.9419"/>
<polygon fill="#191970" stroke="#191970" points="819.2675,-188.4244 808.9868,-190.9854 818.6206,-195.3945 819.2675,-188.4244"/>
</g>
<!-- Node21 -->
<g id="node22" class="node">
<title>Node21</title>
<g id="a_node22"><a xlink:href="RotationRaw_8h.html" target="_top" xlink:title="iDynTree/Core/RotationRaw.h">
<polygon fill="none" stroke="#000000" points="1371.3237,-174 1371.3237,-193 1529.3237,-193 1529.3237,-174 1371.3237,-174"/>
<text text-anchor="middle" x="1450.3237" y="-181" font-family="FreeSans.ttf" font-size="10.00" fill="#000000">iDynTree/Core/RotationRaw.h</text>
</a>
</g>
</g>
<!-- Node20&#45;&gt;Node21 -->
<g id="edge29" class="edge">
<title>Node20&#45;&gt;Node21</title>
<path fill="none" stroke="#191970" d="M1450.3237,-240.9005C1450.3237,-231.149 1450.3237,-215.7597 1450.3237,-203.3695"/>
<polygon fill="#191970" stroke="#191970" points="1453.8238,-203.0816 1450.3237,-193.0817 1446.8238,-203.0817 1453.8238,-203.0816"/>
</g>
<!-- Node24 -->
<g id="node25" class="node">
<title>Node24</title>
<g id="a_node25"><a xlink:href="RotationSemantics_8h.html" target="_top" xlink:title="iDynTree/Core/RotationSemantics.h">
<polygon fill="none" stroke="#000000" points="1189.3237,-112.5 1189.3237,-131.5 1377.3237,-131.5 1377.3237,-112.5 1189.3237,-112.5"/>
<text text-anchor="middle" x="1283.3237" y="-119.5" font-family="FreeSans.ttf" font-size="10.00" fill="#000000">iDynTree/Core/RotationSemantics.h</text>
</a>
</g>
</g>
<!-- Node20&#45;&gt;Node24 -->
<g id="edge38" class="edge">
<title>Node20&#45;&gt;Node24</title>
<path fill="none" stroke="#191970" d="M1430.9395,-240.9075C1412.5203,-231.3961 1384.4309,-215.842 1362.3237,-199 1338.4525,-180.8141 1314.2077,-156.0443 1298.9892,-139.5629"/>
<polygon fill="#191970" stroke="#191970" points="1301.2233,-136.8177 1291.9035,-131.7785 1296.0466,-141.5297 1301.2233,-136.8177"/>
</g>
<!-- Node21&#45;&gt;Node2 -->
<g id="edge37" class="edge">
<title>Node21&#45;&gt;Node2</title>
<path fill="none" stroke="#191970" d="M1459.08,-173.8845C1477.1066,-154.0889 1518.5877,-108.5372 1541.4629,-83.4173"/>
<polygon fill="#191970" stroke="#191970" points="1544.3013,-85.4987 1548.4465,-75.7484 1539.1256,-80.7856 1544.3013,-85.4987"/>
</g>
<!-- Node22 -->
<g id="node23" class="node">
<title>Node22</title>
<g id="a_node23"><a xlink:href="MatrixFixSize_8h.html" target="_top" xlink:title="iDynTree/Core/MatrixFixSize.h">
<polygon fill="none" stroke="#000000" points="756.8237,-112.5 756.8237,-131.5 917.8237,-131.5 917.8237,-112.5 756.8237,-112.5"/>
<text text-anchor="middle" x="837.3237" y="-119.5" font-family="FreeSans.ttf" font-size="10.00" fill="#000000">iDynTree/Core/MatrixFixSize.h</text>
</a>
</g>
</g>
<!-- Node21&#45;&gt;Node22 -->
<g id="edge30" class="edge">
<title>Node21&#45;&gt;Node22</title>
<path fill="none" stroke="#191970" d="M1371.2806,-176.0771C1270.7725,-166.5607 1091.5865,-149.3356 928.096,-132.1762"/>
<polygon fill="#191970" stroke="#191970" points="928.1597,-128.6637 917.8485,-131.0986 927.4275,-135.6253 928.1597,-128.6637"/>
</g>
<!-- Node22&#45;&gt;Node2 -->
<g id="edge34" class="edge">
<title>Node22&#45;&gt;Node2</title>
<path fill="none" stroke="#191970" d="M917.8395,-112.8105C920.702,-112.5292 923.5369,-112.258 926.3237,-112 1155.4097,-90.788 1432.0377,-73.4929 1525.0525,-67.9052"/>
<polygon fill="#191970" stroke="#191970" points="1525.4498,-71.3878 1535.2231,-67.297 1525.0319,-64.4003 1525.4498,-71.3878"/>
</g>
<!-- Node22&#45;&gt;Node4 -->
<g id="edge31" class="edge">
<title>Node22&#45;&gt;Node4</title>
<path fill="none" stroke="#191970" d="M805.5211,-112.3733C774.4921,-102.9807 727.1483,-88.6496 693.309,-78.4064"/>
<polygon fill="#191970" stroke="#191970" points="694.2965,-75.0485 683.7114,-75.5011 692.2684,-81.7483 694.2965,-75.0485"/>
</g>
<!-- Node22&#45;&gt;Node7 -->
<g id="edge32" class="edge">
<title>Node22&#45;&gt;Node7</title>
<path fill="none" stroke="#191970" d="M774.8607,-112.4605C725.5474,-104.5247 654.8389,-92.2534 584.5387,-76.119"/>
<polygon fill="#191970" stroke="#191970" points="585.1566,-72.6694 574.624,-73.8168 583.5732,-79.488 585.1566,-72.6694"/>
</g>
<!-- Node22&#45;&gt;Node15 -->
<g id="edge36" class="edge">
<title>Node22&#45;&gt;Node15</title>
<path fill="none" stroke="#191970" d="M823.563,-112.2455C811.6685,-103.814 794.2587,-91.4729 780.4152,-81.6598"/>
<polygon fill="#191970" stroke="#191970" points="782.1091,-78.5704 771.9268,-75.6427 778.0609,-84.2811 782.1091,-78.5704"/>
</g>
<!-- Node22&#45;&gt;Node16 -->
<g id="edge33" class="edge">
<title>Node22&#45;&gt;Node16</title>
<path fill="none" stroke="#191970" d="M835.9302,-112.2455C834.8863,-104.9382 833.4229,-94.6944 832.1387,-85.7046"/>
<polygon fill="#191970" stroke="#191970" points="835.5804,-85.0472 830.7012,-75.6427 828.6507,-86.0372 835.5804,-85.0472"/>
</g>
<!-- Node23 -->
<g id="node24" class="node">
<title>Node23</title>
<polygon fill="none" stroke="#bfbfbf" points="872.3237,-56.5 872.3237,-75.5 932.3237,-75.5 932.3237,-56.5 872.3237,-56.5"/>
<text text-anchor="middle" x="902.3237" y="-63.5" font-family="FreeSans.ttf" font-size="10.00" fill="#000000">iostream</text>
</g>
<!-- Node22&#45;&gt;Node23 -->
<g id="edge35" class="edge">
<title>Node22&#45;&gt;Node23</title>
<path fill="none" stroke="#191970" d="M848.6459,-112.2455C858.246,-103.9746 872.2129,-91.9416 883.4932,-82.2232"/>
<polygon fill="#191970" stroke="#191970" points="885.8397,-84.8214 891.1313,-75.6427 881.2707,-79.5182 885.8397,-84.8214"/>
</g>
<!-- Node24&#45;&gt;Node2 -->
<g id="edge39" class="edge">
<title>Node24&#45;&gt;Node2</title>
<path fill="none" stroke="#191970" d="M1330.1147,-112.4369C1385.7925,-101.0575 1477.2545,-82.3645 1525.3987,-72.5248"/>
<polygon fill="#191970" stroke="#191970" points="1526.169,-75.9398 1535.2656,-70.5082 1524.7673,-69.0816 1526.169,-75.9398"/>
</g>
<!-- Node24&#45;&gt;Node4 -->
<g id="edge40" class="edge">
<title>Node24&#45;&gt;Node4</title>
<path fill="none" stroke="#191970" d="M1189.2634,-115.0154C1058.0152,-105.1509 825.3932,-87.2073 722.2886,-76.0278"/>
<polygon fill="#191970" stroke="#191970" points="722.4585,-72.5253 712.1334,-74.9005 721.6862,-79.4825 722.4585,-72.5253"/>
</g>
<!-- Node25&#45;&gt;Node2 -->
<g id="edge44" class="edge">
<title>Node25&#45;&gt;Node2</title>
<path fill="none" stroke="#191970" d="M2495.6174,-559.2649C2485.8591,-538.1554 2464.3237,-486.3726 2464.3237,-440.5 2464.3237,-440.5 2464.3237,-440.5 2464.3237,-183.5 2464.3237,-93.4754 1752.5015,-70.7403 1590.0562,-66.7241"/>
<polygon fill="#191970" stroke="#191970" points="1589.8253,-63.2176 1579.7441,-66.4763 1589.6571,-70.2156 1589.8253,-63.2176"/>
</g>
<!-- Node26&#45;&gt;Node2 -->
<g id="edge47" class="edge">
<title>Node26&#45;&gt;Node2</title>
<path fill="none" stroke="#191970" d="M747.9028,-373.3709C874.6881,-364.4629 1104.7105,-346.721 1140.3237,-333 1255.0386,-288.8029 1254.5836,-227.2026 1362.3237,-168 1401.5312,-146.4557 1416.484,-152.3515 1456.3237,-132 1485.2792,-117.2086 1516.2543,-96.0889 1536.1539,-81.7536"/>
<polygon fill="#191970" stroke="#191970" points="1538.451,-84.4104 1544.4706,-75.6917 1534.3278,-78.7536 1538.451,-84.4104"/>
</g>
<!-- Node26&#45;&gt;Node6 -->
<g id="edge46" class="edge">
<title>Node26&#45;&gt;Node6</title>
<path fill="none" stroke="#191970" d="M648.486,-369.2391C585.0125,-330.12 348.7543,-184.5124 271.7555,-137.0575"/>
<polygon fill="#191970" stroke="#191970" points="273.5267,-134.0378 263.1772,-131.7706 269.854,-139.9969 273.5267,-134.0378"/>
</g>
<!-- Node27&#45;&gt;Node4 -->
<g id="edge51" class="edge">
<title>Node27&#45;&gt;Node4</title>
<path fill="none" stroke="#191970" d="M421.5096,-430.9028C428.7235,-400.4761 453.7712,-304.1004 496.3237,-235 535.5322,-171.3301 600.854,-110.3779 633.1045,-82.2372"/>
<polygon fill="#191970" stroke="#191970" points="635.6288,-84.6821 640.9159,-75.5007 631.0572,-79.3811 635.6288,-84.6821"/>
</g>
<!-- Node27&#45;&gt;Node10 -->
<g id="edge52" class="edge">
<title>Node27&#45;&gt;Node10</title>
<path fill="none" stroke="#191970" d="M410.8523,-430.6682C403.0076,-420.8622 391.8878,-404.9932 387.3237,-389 376.7127,-351.8178 380.3189,-340.0269 387.3237,-302 402.9292,-217.2831 447.5809,-123.6155 467.5114,-84.6195"/>
<polygon fill="#191970" stroke="#191970" points="470.7329,-86.0098 472.2239,-75.5204 464.517,-82.7905 470.7329,-86.0098"/>
</g>
<!-- Node27&#45;&gt;Node28 -->
<g id="edge53" class="edge">
<title>Node27&#45;&gt;Node28</title>
<path fill="none" stroke="#191970" d="M485.5809,-436.8928C675.1407,-426.529 1211.1432,-396.9039 1290.3237,-389 1302.5863,-387.7759 1315.9827,-386.0031 1327.8021,-384.289"/>
<polygon fill="#191970" stroke="#191970" points="1328.3393,-387.7477 1337.7148,-382.813 1327.3083,-380.824 1328.3393,-387.7477"/>
</g>
<!-- Node29&#45;&gt;Node2 -->
<g id="edge55" class="edge">
<title>Node29&#45;&gt;Node2</title>
<path fill="none" stroke="#191970" d="M2018.6174,-369.2649C2008.8591,-348.1554 1987.3237,-296.3726 1987.3237,-250.5 1987.3237,-250.5 1987.3237,-250.5 1987.3237,-183.5 1987.3237,-142.0158 1963.7661,-131.8215 1927.3237,-112 1869.3488,-80.4666 1668.9858,-69.9827 1589.8466,-67.0218"/>
<polygon fill="#191970" stroke="#191970" points="1589.6303,-63.512 1579.5117,-66.6526 1589.3803,-70.5075 1589.6303,-63.512"/>
</g>
<!-- Node30&#45;&gt;Node28 -->
<g id="edge78" class="edge">
<title>Node30&#45;&gt;Node28</title>
<path fill="none" stroke="#191970" d="M1066.8204,-430.9575C1078.2044,-428.9605 1090.1579,-426.8886 1101.3237,-425 1199.8794,-408.3302 1225.5442,-409.7432 1323.3237,-389 1324.7835,-388.6903 1326.2713,-388.3605 1327.7716,-388.0164"/>
<polygon fill="#191970" stroke="#191970" points="1328.8058,-391.3668 1337.6914,-385.5964 1327.1468,-384.5662 1328.8058,-391.3668"/>
</g>
<!-- Node30&#45;&gt;Node29 -->
<g id="edge77" class="edge">
<title>Node30&#45;&gt;Node29</title>
<path fill="none" stroke="#191970" d="M1087.9215,-435.3086C1134.1106,-432.1615 1194.6498,-428.1581 1248.3237,-425 1554.2142,-407.0021 1634.0891,-416.2636 1943.8212,-388.9736"/>
<polygon fill="#191970" stroke="#191970" points="1944.3413,-392.4413 1953.9931,-388.0716 1943.723,-385.4687 1944.3413,-392.4413"/>
</g>
<!-- Node31 -->
<g id="node32" class="node">
<title>Node31</title>
<g id="a_node32"><a xlink:href="Transform_8h.html" target="_top" xlink:title="iDynTree/Core/Transform.h">
<polygon fill="none" stroke="#000000" points="1403.3237,-369.5 1403.3237,-388.5 1549.3237,-388.5 1549.3237,-369.5 1403.3237,-369.5"/>
<text text-anchor="middle" x="1476.3237" y="-376.5" font-family="FreeSans.ttf" font-size="10.00" fill="#000000">iDynTree/Core/Transform.h</text>
</a>
</g>
</g>
<!-- Node30&#45;&gt;Node31 -->
<g id="edge57" class="edge">
<title>Node30&#45;&gt;Node31</title>
<path fill="none" stroke="#191970" d="M1084.906,-430.9918C1168.6172,-419.8725 1306.8842,-401.5065 1394.6948,-389.8427"/>
<polygon fill="#191970" stroke="#191970" points="1395.1645,-393.3112 1404.6165,-388.5248 1394.2427,-386.3721 1395.1645,-393.3112"/>
</g>
<!-- Node33 -->
<g id="node34" class="node">
<title>Node33</title>
<g id="a_node34"><a xlink:href="Twist_8h.html" target="_top" xlink:title="iDynTree/Core/Twist.h">
<polygon fill="none" stroke="#000000" points="993.3237,-369.5 993.3237,-388.5 1115.3237,-388.5 1115.3237,-369.5 993.3237,-369.5"/>
<text text-anchor="middle" x="1054.3237" y="-376.5" font-family="FreeSans.ttf" font-size="10.00" fill="#000000">iDynTree/Core/Twist.h</text>
</a>
</g>
</g>
<!-- Node30&#45;&gt;Node33 -->
<g id="edge65" class="edge">
<title>Node30&#45;&gt;Node33</title>
<path fill="none" stroke="#191970" d="M1019.73,-430.8906C1025.7124,-421.917 1034.7984,-408.2879 1042.1576,-397.2491"/>
<polygon fill="#191970" stroke="#191970" points="1045.1923,-399.0068 1047.8271,-388.7449 1039.3679,-395.1239 1045.1923,-399.0068"/>
</g>
<!-- Node43 -->
<g id="node37" class="node">
<title>Node43</title>
<g id="a_node37"><a xlink:href="SpatialAcc_8h.html" target="_top" xlink:title="iDynTree/Core/SpatialAcc.h">
<polygon fill="none" stroke="#000000" points="1133.3237,-369.5 1133.3237,-388.5 1281.3237,-388.5 1281.3237,-369.5 1133.3237,-369.5"/>
<text text-anchor="middle" x="1207.3237" y="-376.5" font-family="FreeSans.ttf" font-size="10.00" fill="#000000">iDynTree/Core/SpatialAcc.h</text>
</a>
</g>
</g>
<!-- Node30&#45;&gt;Node43 -->
<g id="edge69" class="edge">
<title>Node30&#45;&gt;Node43</title>
<path fill="none" stroke="#191970" d="M1043.6362,-430.8906C1076.9502,-420.3298 1130.6045,-403.3208 1167.3418,-391.6747"/>
<polygon fill="#191970" stroke="#191970" points="1168.7493,-394.9002 1177.2241,-388.5419 1166.6339,-388.2275 1168.7493,-394.9002"/>
</g>
<!-- Node44 -->
<g id="node38" class="node">
<title>Node44</title>
<g id="a_node38"><a xlink:href="Wrench_8h.html" target="_top" xlink:title="iDynTree/Core/Wrench.h">
<polygon fill="none" stroke="#000000" points="841.8237,-369.5 841.8237,-388.5 974.8237,-388.5 974.8237,-369.5 841.8237,-369.5"/>
<text text-anchor="middle" x="908.3237" y="-376.5" font-family="FreeSans.ttf" font-size="10.00" fill="#000000">iDynTree/Core/Wrench.h</text>
</a>
</g>
</g>
<!-- Node30&#45;&gt;Node44 -->
<g id="edge71" class="edge">
<title>Node30&#45;&gt;Node44</title>
<path fill="none" stroke="#191970" d="M996.9175,-430.8906C979.8884,-420.9165 953.0397,-405.1908 933.3587,-393.6633"/>
<polygon fill="#191970" stroke="#191970" points="935.0125,-390.5759 924.6148,-388.5419 931.4747,-396.6161 935.0125,-390.5759"/>
</g>
<!-- Node49 -->
<g id="node40" class="node">
<title>Node49</title>
<g id="a_node40"><a xlink:href="ArticulatedBodyInertia_8h.html" target="_top" xlink:title="iDynTree/Core/Articulated\lBodyInertia.h">
<polygon fill="none" stroke="#000000" points="1097.8237,-168.5 1097.8237,-198.5 1238.8237,-198.5 1238.8237,-168.5 1097.8237,-168.5"/>
<text text-anchor="start" x="1105.8237" y="-186.5" font-family="FreeSans.ttf" font-size="10.00" fill="#000000">iDynTree/Core/Articulated</text>
<text text-anchor="middle" x="1168.3237" y="-175.5" font-family="FreeSans.ttf" font-size="10.00" fill="#000000">BodyInertia.h</text>
</a>
</g>
</g>
<!-- Node30&#45;&gt;Node49 -->
<g id="edge74" class="edge">
<title>Node30&#45;&gt;Node49</title>
<path fill="none" stroke="#191970" d="M1061.3466,-430.9671C1071.5665,-428.9694 1082.2982,-426.8948 1092.3237,-425 1136.2671,-416.6947 1261.6686,-423.3349 1290.3237,-389 1341.0676,-328.1981 1248.3196,-243.8222 1197.8456,-204.8271"/>
<polygon fill="#191970" stroke="#191970" points="1199.9217,-202.0089 1189.841,-198.7483 1195.6882,-207.5836 1199.9217,-202.0089"/>
</g>
<!-- Node31&#45;&gt;Node2 -->
<g id="edge64" class="edge">
<title>Node31&#45;&gt;Node2</title>
<path fill="none" stroke="#191970" d="M1482.552,-369.1662C1502.5115,-336.8245 1564.1733,-230.2033 1574.3237,-132 1575.2376,-123.1582 1575.8888,-120.75 1574.3237,-112 1572.6794,-102.8071 1569.3232,-93.047 1566.024,-84.8935"/>
<polygon fill="#191970" stroke="#191970" points="1569.1844,-83.3833 1562.0086,-75.5885 1562.7573,-86.1569 1569.1844,-83.3833"/>
</g>
<!-- Node31&#45;&gt;Node17 -->
<g id="edge58" class="edge">
<title>Node31&#45;&gt;Node17</title>
<path fill="none" stroke="#191970" d="M1503.98,-369.3906C1534.2448,-358.8749 1582.9093,-341.966 1616.4148,-330.3243"/>
<polygon fill="#191970" stroke="#191970" points="1617.5644,-333.6302 1625.8617,-327.0419 1615.2669,-327.0179 1617.5644,-333.6302"/>
</g>
<!-- Node31&#45;&gt;Node20 -->
<g id="edge59" class="edge">
<title>Node31&#45;&gt;Node20</title>
<path fill="none" stroke="#191970" d="M1474.3695,-369.3416C1470.1158,-348.3184 1459.9467,-298.0598 1454.2903,-270.1038"/>
<polygon fill="#191970" stroke="#191970" points="1457.7143,-269.3777 1452.3006,-260.2705 1450.8534,-270.766 1457.7143,-269.3777"/>
</g>
<!-- Node31&#45;&gt;Node22 -->
<g id="edge63" class="edge">
<title>Node31&#45;&gt;Node22</title>
<path fill="none" stroke="#191970" d="M1452.4404,-369.3943C1354.5699,-330.0317 984.0067,-180.9946 870.5436,-135.3607"/>
<polygon fill="#191970" stroke="#191970" points="871.5712,-132.0016 860.9874,-131.5173 868.9592,-138.496 871.5712,-132.0016"/>
</g>
<!-- Node32 -->
<g id="node33" class="node">
<title>Node32</title>
<g id="a_node33"><a xlink:href="TransformSemantics_8h.html" target="_top" xlink:title="iDynTree/Core/TransformSemantics.h">
<polygon fill="none" stroke="#000000" points="935.8237,-112.5 935.8237,-131.5 1132.8237,-131.5 1132.8237,-112.5 935.8237,-112.5"/>
<text text-anchor="middle" x="1034.3237" y="-119.5" font-family="FreeSans.ttf" font-size="10.00" fill="#000000">iDynTree/Core/TransformSemantics.h</text>
</a>
</g>
</g>
<!-- Node31&#45;&gt;Node32 -->
<g id="edge60" class="edge">
<title>Node31&#45;&gt;Node32</title>
<path fill="none" stroke="#191970" d="M1467.1432,-369.2805C1431.2917,-331.5313 1300.1083,-195.3866 1247.3237,-168 1214.2498,-150.84 1175.0976,-140.0752 1139.4394,-133.3246"/>
<polygon fill="#191970" stroke="#191970" points="1139.9457,-129.8595 1129.4826,-131.5251 1138.7007,-136.7479 1139.9457,-129.8595"/>
</g>
<!-- Node32&#45;&gt;Node2 -->
<g id="edge61" class="edge">
<title>Node32&#45;&gt;Node2</title>
<path fill="none" stroke="#191970" d="M1123.3398,-112.4686C1241.9777,-99.7655 1446.1138,-77.9078 1524.948,-69.4666"/>
<polygon fill="#191970" stroke="#191970" points="1525.6478,-72.9118 1535.2183,-68.3669 1524.9024,-65.9516 1525.6478,-72.9118"/>
</g>
<!-- Node32&#45;&gt;Node4 -->
<g id="edge62" class="edge">
<title>Node32&#45;&gt;Node4</title>
<path fill="none" stroke="#191970" d="M969.0896,-112.4369C900.3387,-102.3582 792.4524,-86.5424 722.0519,-76.2219"/>
<polygon fill="#191970" stroke="#191970" points="722.348,-72.728 711.9461,-74.7404 721.3326,-79.654 722.348,-72.728"/>
</g>
<!-- Node34 -->
<g id="node35" class="node">
<title>Node34</title>
<g id="a_node35"><a xlink:href="SpatialMotionVector_8h.html" target="_top" xlink:title="iDynTree/Core/SpatialMotion\lVector.h">
<polygon fill="none" stroke="#ff0000" points="976.8237,-302.5 976.8237,-332.5 1131.8237,-332.5 1131.8237,-302.5 976.8237,-302.5"/>
<text text-anchor="start" x="984.8237" y="-320.5" font-family="FreeSans.ttf" font-size="10.00" fill="#000000">iDynTree/Core/SpatialMotion</text>
<text text-anchor="middle" x="1054.3237" y="-309.5" font-family="FreeSans.ttf" font-size="10.00" fill="#000000">Vector.h</text>
</a>
</g>
</g>
<!-- Node33&#45;&gt;Node34 -->
<g id="edge66" class="edge">
<title>Node33&#45;&gt;Node34</title>
<path fill="none" stroke="#191970" d="M1054.3237,-369.3906C1054.3237,-362.2234 1054.3237,-352.0862 1054.3237,-342.671"/>
<polygon fill="#191970" stroke="#191970" points="1057.8238,-342.5446 1054.3237,-332.5446 1050.8238,-342.5446 1057.8238,-342.5446"/>
</g>
<!-- Node34&#45;&gt;Node3 -->
<g id="edge67" class="edge">
<title>Node34&#45;&gt;Node3</title>
<path fill="none" stroke="#191970" d="M1055.2685,-302.2619C1055.5256,-283.5792 1052.8739,-252.2761 1034.3237,-235 1003.7631,-206.5384 897.985,-193.6617 819.3049,-187.9318"/>
<polygon fill="#191970" stroke="#191970" points="819.1003,-184.409 808.8804,-187.2025 818.6117,-191.392 819.1003,-184.409"/>
</g>
<!-- Node35 -->
<g id="node36" class="node">
<title>Node35</title>
<g id="a_node36"><a xlink:href="LinearMotionVector3_8h.html" target="_top" xlink:title="iDynTree/Core/LinearMotion\lVector3.h">
<polygon fill="none" stroke="#ff0000" points="874.8237,-235.5 874.8237,-265.5 1025.8237,-265.5 1025.8237,-235.5 874.8237,-235.5"/>
<text text-anchor="start" x="882.8237" y="-253.5" font-family="FreeSans.ttf" font-size="10.00" fill="#000000">iDynTree/Core/LinearMotion</text>
<text text-anchor="middle" x="950.3237" y="-242.5" font-family="FreeSans.ttf" font-size="10.00" fill="#000000">Vector3.h</text>
</a>
</g>
</g>
<!-- Node34&#45;&gt;Node35 -->
<g id="edge68" class="edge">
<title>Node34&#45;&gt;Node35</title>
<path fill="none" stroke="#191970" d="M1030.9841,-302.4639C1016.7663,-293.3044 998.3914,-281.4667 982.7715,-271.4038"/>
<polygon fill="#191970" stroke="#191970" points="984.2474,-268.1912 973.9453,-265.7177 980.4563,-274.0758 984.2474,-268.1912"/>
</g>
<!-- Node43&#45;&gt;Node34 -->
<g id="edge70" class="edge">
<title>Node43&#45;&gt;Node34</title>
<path fill="none" stroke="#191970" d="M1183.4175,-369.3906C1161.4645,-360.5664 1128.3121,-347.2404 1101.1008,-336.3026"/>
<polygon fill="#191970" stroke="#191970" points="1102.3356,-333.0268 1091.7517,-332.5446 1099.7248,-339.5217 1102.3356,-333.0268"/>
</g>
<!-- Node45 -->
<g id="node39" class="node">
<title>Node45</title>
<g id="a_node39"><a xlink:href="SpatialForceVector_8h.html" target="_top" xlink:title="iDynTree/Core/SpatialForce\lVector.h">
<polygon fill="none" stroke="#ff0000" points="803.3237,-302.5 803.3237,-332.5 951.3237,-332.5 951.3237,-302.5 803.3237,-302.5"/>
<text text-anchor="start" x="811.3237" y="-320.5" font-family="FreeSans.ttf" font-size="10.00" fill="#000000">iDynTree/Core/SpatialForce</text>
<text text-anchor="middle" x="877.3237" y="-309.5" font-family="FreeSans.ttf" font-size="10.00" fill="#000000">Vector.h</text>
</a>
</g>
</g>
<!-- Node44&#45;&gt;Node45 -->
<g id="edge72" class="edge">
<title>Node44&#45;&gt;Node45</title>
<path fill="none" stroke="#191970" d="M903.48,-369.3906C899.7507,-361.9922 894.4262,-351.4291 889.5535,-341.7623"/>
<polygon fill="#191970" stroke="#191970" points="892.5338,-339.8989 884.9072,-332.5446 886.283,-343.0497 892.5338,-339.8989"/>
</g>
<!-- Node45&#45;&gt;Node3 -->
<g id="edge73" class="edge">
<title>Node45&#45;&gt;Node3</title>
<path fill="none" stroke="#191970" d="M861.656,-302.3447C844.233,-285.6021 815.1379,-257.9695 789.3237,-235 775.6949,-222.8731 759.9549,-209.6019 747.8776,-199.5691"/>
<polygon fill="#191970" stroke="#191970" points="750.1085,-196.8722 740.1725,-193.1945 745.6464,-202.2657 750.1085,-196.8722"/>
</g>
<!-- Node49&#45;&gt;Node2 -->
<g id="edge76" class="edge">
<title>Node49&#45;&gt;Node2</title>
<path fill="none" stroke="#191970" d="M1239.0371,-169.9056C1307.1562,-156.6618 1402.3254,-137.7131 1419.3237,-132 1440.9755,-124.7229 1495.8389,-97.4253 1529.5046,-80.2985"/>
<polygon fill="#191970" stroke="#191970" points="1531.4865,-83.2166 1538.8023,-75.553 1528.3042,-76.9817 1531.4865,-83.2166"/>
</g>
<!-- Node49&#45;&gt;Node22 -->
<g id="edge75" class="edge">
<title>Node49&#45;&gt;Node22</title>
<path fill="none" stroke="#191970" d="M1097.7219,-170.3821C1038.5256,-159.3834 954.8644,-143.8391 898.4848,-133.3638"/>
<polygon fill="#191970" stroke="#191970" points="899.1069,-129.9195 888.6357,-131.5338 897.8281,-136.8017 899.1069,-129.9195"/>
</g>
<!-- Node50&#45;&gt;Node28 -->
<g id="edge81" class="edge">
<title>Node50&#45;&gt;Node28</title>
<path fill="none" stroke="#191970" d="M1521.6362,-430.8906C1487.1965,-419.743 1430.561,-401.411 1394.6443,-389.7853"/>
<polygon fill="#191970" stroke="#191970" points="1395.6909,-386.4454 1385.099,-386.6957 1393.5352,-393.1052 1395.6909,-386.4454"/>
</g>
<!-- Node50&#45;&gt;Node29 -->
<g id="edge80" class="edge">
<title>Node50&#45;&gt;Node29</title>
<path fill="none" stroke="#191970" d="M1624.2974,-430.9918C1710.8817,-419.7101 1854.7179,-400.9688 1943.9953,-389.3362"/>
<polygon fill="#191970" stroke="#191970" points="1944.604,-392.7866 1954.0679,-388.0238 1943.6995,-385.8453 1944.604,-392.7866"/>
</g>
<!-- Node51&#45;&gt;Node26 -->
<g id="edge85" class="edge">
<title>Node51&#45;&gt;Node26</title>
<path fill="none" stroke="#191970" d="M933.1181,-500.105C860.1395,-491.9822 756.8344,-477.2102 722.3237,-456 699.5859,-442.0254 682.6699,-415.5823 673.1458,-397.6273"/>
<polygon fill="#191970" stroke="#191970" points="676.2516,-396.0129 668.625,-388.6586 670.0008,-399.1637 676.2516,-396.0129"/>
</g>
<!-- Node51&#45;&gt;Node28 -->
<g id="edge93" class="edge">
<title>Node51&#45;&gt;Node28</title>
<path fill="none" stroke="#191970" d="M1037.0305,-492.2945C1054.1946,-482.3302 1076.8443,-468.8208 1096.3237,-456 1116.0034,-443.0473 1117.7065,-434.3679 1139.3237,-425 1215.7816,-391.8669 1242.1008,-407.6128 1323.3237,-389 1324.7783,-388.6667 1326.2617,-388.3173 1327.7585,-387.957"/>
<polygon fill="#191970" stroke="#191970" points="1328.8145,-391.3008 1337.665,-385.4766 1327.1143,-384.5104 1328.8145,-391.3008"/>
</g>
<!-- Node51&#45;&gt;Node29 -->
<g id="edge86" class="edge">
<title>Node51&#45;&gt;Node29</title>
<path fill="none" stroke="#191970" d="M1087.5443,-505.0447C1288.1641,-498.3744 1815.5582,-478.8764 1891.3237,-456 1934.5285,-442.9549 1978.5992,-413.2474 2003.3081,-394.7815"/>
<polygon fill="#191970" stroke="#191970" points="2005.6668,-397.3844 2011.4978,-388.5386 2001.4231,-391.8174 2005.6668,-397.3844"/>
</g>
<!-- Node51&#45;&gt;Node30 -->
<g id="edge87" class="edge">
<title>Node51&#45;&gt;Node30</title>
<path fill="none" stroke="#191970" d="M1011.0045,-492.2967C1011.431,-482.7699 1011.9851,-470.3954 1012.4447,-460.1306"/>
<polygon fill="#191970" stroke="#191970" points="1015.945,-460.2016 1012.8959,-450.055 1008.952,-459.8884 1015.945,-460.2016"/>
</g>
<!-- Node51&#45;&gt;Node31 -->
<g id="edge83" class="edge">
<title>Node51&#45;&gt;Node31</title>
<path fill="none" stroke="#191970" d="M1048.5733,-492.4498C1095.1829,-474.5295 1176.6023,-444.5702 1248.3237,-425 1301.3824,-410.5222 1362.52,-398.4291 1408.1216,-390.2813"/>
<polygon fill="#191970" stroke="#191970" points="1408.9534,-393.6885 1418.1913,-388.501 1407.7347,-386.7954 1408.9534,-393.6885"/>
</g>
<!-- Node51&#45;&gt;Node33 -->
<g id="edge84" class="edge">
<title>Node51&#45;&gt;Node33</title>
<path fill="none" stroke="#191970" d="M970.7978,-492.4754C954.9352,-484.2614 938.3082,-472.3591 929.3237,-456 922.6913,-443.9236 921.4412,-436.3001 929.3237,-425 938.3666,-412.0364 973.3967,-399.8007 1004.0807,-391.2121"/>
<polygon fill="#191970" stroke="#191970" points="1005.1205,-394.5566 1013.8519,-388.5555 1003.2839,-387.8018 1005.1205,-394.5566"/>
</g>
<!-- Node52 -->
<g id="node43" class="node">
<title>Node52</title>
<g id="a_node43"><a xlink:href="JointState_8h.html" target="_top" xlink:title="iDynTree/Model/JointState.h">
<polygon fill="none" stroke="#000000" points="731.8237,-431 731.8237,-450 882.8237,-450 882.8237,-431 731.8237,-431"/>
<text text-anchor="middle" x="807.3237" y="-438" font-family="FreeSans.ttf" font-size="10.00" fill="#000000">iDynTree/Model/JointState.h</text>
</a>
</g>
</g>
<!-- Node51&#45;&gt;Node52 -->
<g id="edge88" class="edge">
<title>Node51&#45;&gt;Node52</title>
<path fill="none" stroke="#191970" d="M964.7666,-492.4639C928.9117,-480.63 879.5124,-464.3258 845.6644,-453.1543"/>
<polygon fill="#191970" stroke="#191970" points="846.7165,-449.8159 836.1233,-450.0053 844.5225,-456.4632 846.7165,-449.8159"/>
</g>
<!-- Node52&#45;&gt;Node3 -->
<g id="edge89" class="edge">
<title>Node52&#45;&gt;Node3</title>
<path fill="none" stroke="#191970" d="M804.3233,-430.7391C792.6405,-392.7331 750.0603,-254.2127 734.2694,-202.8422"/>
<polygon fill="#191970" stroke="#191970" points="737.611,-201.8008 731.3271,-193.2706 730.9199,-203.8576 737.611,-201.8008"/>
</g>
<!-- Node52&#45;&gt;Node26 -->
<g id="edge90" class="edge">
<title>Node52&#45;&gt;Node26</title>
<path fill="none" stroke="#191970" d="M784.98,-430.8906C761.0534,-420.6005 722.8928,-404.1888 695.9021,-392.5809"/>
<polygon fill="#191970" stroke="#191970" points="697.0798,-389.2775 686.5106,-388.5419 694.3142,-395.708 697.0798,-389.2775"/>
</g>
<!-- Node52&#45;&gt;Node28 -->
<g id="edge92" class="edge">
<title>Node52&#45;&gt;Node28</title>
<path fill="none" stroke="#191970" d="M879.5373,-430.9981C895.8978,-428.9365 913.2004,-426.8278 929.3237,-425 1089.5378,-406.8373 1130.2364,-408.2479 1290.3237,-389 1302.5592,-387.5289 1315.9494,-385.7001 1327.7715,-384.0102"/>
<polygon fill="#191970" stroke="#191970" points="1328.2936,-387.4712 1337.6884,-382.5735 1327.2899,-380.5435 1328.2936,-387.4712"/>
</g>
<!-- Node52&#45;&gt;Node45 -->
<g id="edge91" class="edge">
<title>Node52&#45;&gt;Node45</title>
<path fill="none" stroke="#191970" d="M809.4765,-430.7452C812.8926,-416.494 820.4138,-389.4556 832.3237,-369 838.3614,-358.6301 846.6452,-348.4216 854.4607,-339.8632"/>
<polygon fill="#191970" stroke="#191970" points="857.0907,-342.1762 861.4286,-332.5101 852.0097,-337.3613 857.0907,-342.1762"/>
</g>
<!-- Node53&#45;&gt;Node2 -->
<g id="edge95" class="edge">
<title>Node53&#45;&gt;Node2</title>
<path fill="none" stroke="#191970" d="M1371.0857,-567.5037C1547.0199,-563.5888 1979.0542,-551.3219 2121.3237,-523 2227.8331,-501.7969 2351.3237,-549.0994 2351.3237,-440.5 2351.3237,-440.5 2351.3237,-440.5 2351.3237,-183.5 2351.3237,-105.1609 1738.6722,-73.7861 1589.6857,-67.3145"/>
<polygon fill="#191970" stroke="#191970" points="1589.5287,-63.8047 1579.3885,-66.8751 1589.2302,-70.7983 1589.5287,-63.8047"/>
</g>
<!-- Node53&#45;&gt;Node10 -->
<g id="edge97" class="edge">
<title>Node53&#45;&gt;Node10</title>
<path fill="none" stroke="#191970" d="M1219.6342,-567.6074C1090.3456,-564.405 832.7394,-554.2071 748.3237,-523 606.5441,-470.5864 477.3237,-468.6577 477.3237,-317.5 477.3237,-317.5 477.3237,-317.5 477.3237,-183.5 477.3237,-149.1399 477.3237,-109.128 477.3237,-85.7764"/>
<polygon fill="#191970" stroke="#191970" points="480.8238,-85.7489 477.3237,-75.7489 473.8238,-85.749 480.8238,-85.7489"/>
</g>
<!-- Node53&#45;&gt;Node26 -->
<g id="edge98" class="edge">
<title>Node53&#45;&gt;Node26</title>
<path fill="none" stroke="#191970" d="M1219.7919,-565.2568C1074.0214,-556.4387 761.6958,-529.2828 687.3237,-456 671.9977,-440.8985 666.7902,-416.048 665.0719,-398.6749"/>
<polygon fill="#191970" stroke="#191970" points="668.5513,-398.2528 664.3754,-388.5156 661.5677,-398.7317 668.5513,-398.2528"/>
</g>
<!-- Node53&#45;&gt;Node28 -->
<g id="edge96" class="edge">
<title>Node53&#45;&gt;Node28</title>
<path fill="none" stroke="#191970" d="M1286.8885,-559.458C1266.4744,-535.1636 1218.2358,-469.7335 1248.3237,-425 1257.6169,-411.1833 1298.1186,-396.9869 1327.989,-388.0888"/>
<polygon fill="#191970" stroke="#191970" points="1329.024,-391.4329 1337.6509,-385.2826 1327.0715,-384.7107 1329.024,-391.4329"/>
</g>
<!-- Node53&#45;&gt;Node29 -->
<g id="edge113" class="edge">
<title>Node53&#45;&gt;Node29</title>
<path fill="none" stroke="#191970" d="M1370.8241,-566.3433C1593.4408,-557.7171 2235.3535,-526.8506 2294.3237,-456 2303.1377,-445.4103 2303.2136,-435.526 2294.3237,-425 2281.9285,-410.3235 2177.9121,-395.911 2102.4353,-387.2367"/>
<polygon fill="#191970" stroke="#191970" points="2102.7835,-383.7538 2092.4525,-386.1035 2101.9939,-390.7091 2102.7835,-383.7538"/>
</g>
<!-- Node54 -->
<g id="node45" class="node">
<title>Node54</title>
<g id="a_node45"><a xlink:href="Model_8h.html" target="_top" xlink:title="iDynTree/Model/Model.h">
<polygon fill="none" stroke="#000000" points="1789.8237,-498 1789.8237,-517 1922.8237,-517 1922.8237,-498 1789.8237,-498"/>
<text text-anchor="middle" x="1856.3237" y="-505" font-family="FreeSans.ttf" font-size="10.00" fill="#000000">iDynTree/Model/Model.h</text>
</a>
</g>
</g>
<!-- Node53&#45;&gt;Node54 -->
<g id="edge99" class="edge">
<title>Node53&#45;&gt;Node54</title>
<path fill="none" stroke="#191970" d="M1370.9827,-560.7058C1477.8945,-548.9856 1672.1015,-527.6955 1779.5931,-515.9116"/>
<polygon fill="#191970" stroke="#191970" points="1780.16,-519.3706 1789.719,-514.8016 1779.3971,-512.4122 1780.16,-519.3706"/>
</g>
<!-- Node54&#45;&gt;Node28 -->
<g id="edge112" class="edge">
<title>Node54&#45;&gt;Node28</title>
<path fill="none" stroke="#191970" d="M1789.6742,-503.0551C1694.4142,-495.9593 1524.6133,-480.34 1468.3237,-456 1448.318,-447.3494 1447.8561,-437.949 1430.3237,-425 1415.739,-414.2281 1398.8054,-402.9221 1385.3636,-394.2145"/>
<polygon fill="#191970" stroke="#191970" points="1386.9924,-391.1008 1376.6874,-388.6397 1383.2084,-396.99 1386.9924,-391.1008"/>
</g>
<!-- Node54&#45;&gt;Node29 -->
<g id="edge105" class="edge">
<title>Node54&#45;&gt;Node29</title>
<path fill="none" stroke="#191970" d="M1884.7059,-497.9637C1907.5224,-489.375 1939.574,-475.1552 1963.3237,-456 1983.8343,-439.4573 2001.5635,-414.6051 2012.3238,-397.6394"/>
<polygon fill="#191970" stroke="#191970" points="2015.5725,-399.0374 2017.8223,-388.6841 2009.6072,-395.3746 2015.5725,-399.0374"/>
</g>
<!-- Node54&#45;&gt;Node31 -->
<g id="edge104" class="edge">
<title>Node54&#45;&gt;Node31</title>
<path fill="none" stroke="#191970" d="M1827.9149,-497.9323C1798.3859,-487.8816 1750.8998,-471.4215 1710.3237,-456 1676.2239,-443.0399 1668.7719,-437.0037 1634.3237,-425 1597.3211,-412.1061 1554.6148,-399.8244 1522.9379,-391.1999"/>
<polygon fill="#191970" stroke="#191970" points="1523.6287,-387.7612 1513.062,-388.5322 1521.8032,-394.5189 1523.6287,-387.7612"/>
</g>
<!-- Node55 -->
<g id="node46" class="node">
<title>Node55</title>
<g id="a_node46"><a xlink:href="IJoint_8h.html" target="_top" xlink:title="iDynTree/Model/IJoint.h">
<polygon fill="none" stroke="#000000" points="2015.3237,-431 2015.3237,-450 2143.3237,-450 2143.3237,-431 2015.3237,-431"/>
<text text-anchor="middle" x="2079.3237" y="-438" font-family="FreeSans.ttf" font-size="10.00" fill="#000000">iDynTree/Model/IJoint.h</text>
</a>
</g>
</g>
<!-- Node54&#45;&gt;Node55 -->
<g id="edge100" class="edge">
<title>Node54&#45;&gt;Node55</title>
<path fill="none" stroke="#191970" d="M1888.2742,-497.9005C1927.603,-486.0843 1994.4836,-465.9901 2037.7707,-452.9845"/>
<polygon fill="#191970" stroke="#191970" points="2038.8626,-456.3111 2047.4325,-450.0817 2036.8483,-449.6072 2038.8626,-456.3111"/>
</g>
<!-- Node56 -->
<g id="node47" class="node">
<title>Node56</title>
<g id="a_node47"><a xlink:href="Link_8h.html" target="_top" xlink:title="iDynTree/Model/Link.h">
<polygon fill="none" stroke="#ff0000" points="2161.3237,-431 2161.3237,-450 2285.3237,-450 2285.3237,-431 2161.3237,-431"/>
<text text-anchor="middle" x="2223.3237" y="-438" font-family="FreeSans.ttf" font-size="10.00" fill="#000000">iDynTree/Model/Link.h</text>
</a>
</g>
</g>
<!-- Node54&#45;&gt;Node56 -->
<g id="edge102" class="edge">
<title>Node54&#45;&gt;Node56</title>
<path fill="none" stroke="#191970" d="M1915.4291,-497.979C1975.275,-488.1596 2070.4254,-472.0566 2152.3237,-456 2158.4175,-454.8053 2164.7925,-453.497 2171.1154,-452.163"/>
<polygon fill="#191970" stroke="#191970" points="2171.9134,-455.5716 2180.9606,-450.0582 2170.4498,-448.7263 2171.9134,-455.5716"/>
</g>
<!-- Node61 -->
<g id="node48" class="node">
<title>Node61</title>
<g id="a_node48"><a xlink:href="SolidShapes_8h.html" target="_top" xlink:title="iDynTree/Model/SolidShapes.h">
<polygon fill="none" stroke="#000000" points="1719.8237,-431 1719.8237,-450 1882.8237,-450 1882.8237,-431 1719.8237,-431"/>
<text text-anchor="middle" x="1801.3237" y="-438" font-family="FreeSans.ttf" font-size="10.00" fill="#000000">iDynTree/Model/SolidShapes.h</text>
</a>
</g>
</g>
<!-- Node54&#45;&gt;Node61 -->
<g id="edge106" class="edge">
<title>Node54&#45;&gt;Node61</title>
<path fill="none" stroke="#191970" d="M1848.4436,-497.9005C1839.9485,-487.552 1826.2413,-470.8542 1815.7957,-458.1295"/>
<polygon fill="#191970" stroke="#191970" points="1818.2395,-455.5902 1809.1893,-450.0817 1812.829,-460.0317 1818.2395,-455.5902"/>
</g>
<!-- Node62 -->
<g id="node49" class="node">
<title>Node62</title>
<polygon fill="none" stroke="#bfbfbf" points="1886.8237,-369.5 1886.8237,-388.5 1935.8237,-388.5 1935.8237,-369.5 1886.8237,-369.5"/>
<text text-anchor="middle" x="1911.3237" y="-376.5" font-family="FreeSans.ttf" font-size="10.00" fill="#000000">cstdlib</text>
</g>
<!-- Node54&#45;&gt;Node62 -->
<g id="edge111" class="edge">
<title>Node54&#45;&gt;Node62</title>
<path fill="none" stroke="#191970" d="M1864.3858,-497.8514C1872.2969,-487.9328 1884.1838,-471.7541 1891.3237,-456 1899.6735,-437.5762 1905.0153,-415.0318 1908.0581,-399.1112"/>
<polygon fill="#191970" stroke="#191970" points="1911.5791,-399.3001 1909.8775,-388.8428 1904.6864,-398.0788 1911.5791,-399.3001"/>
</g>
<!-- Node55&#45;&gt;Node29 -->
<g id="edge101" class="edge">
<title>Node55&#45;&gt;Node29</title>
<path fill="none" stroke="#191970" d="M2070.5737,-430.8906C2062.1575,-421.6478 2049.244,-407.466 2039.0427,-396.2628"/>
<polygon fill="#191970" stroke="#191970" points="2041.5177,-393.7824 2032.1971,-388.7449 2036.3419,-398.4953 2041.5177,-393.7824"/>
</g>
<!-- Node56&#45;&gt;Node29 -->
<g id="edge103" class="edge">
<title>Node56&#45;&gt;Node29</title>
<path fill="none" stroke="#191970" d="M2192.0737,-430.8906C2157.5827,-420.2846 2101.9426,-403.1753 2064.0576,-391.5257"/>
<polygon fill="#191970" stroke="#191970" points="2064.9413,-388.1357 2054.3543,-388.5419 2062.8839,-394.8266 2064.9413,-388.1357"/>
</g>
<!-- Node61&#45;&gt;Node2 -->
<g id="edge108" class="edge">
<title>Node61&#45;&gt;Node2</title>
<path fill="none" stroke="#191970" d="M1808.7962,-430.9801C1836.3136,-394.691 1927.7896,-262.3333 1876.3237,-168 1854.3003,-127.6325 1831.9622,-129.2199 1789.3237,-112 1721.4707,-84.597 1635.6576,-73.0545 1589.7727,-68.5701"/>
<polygon fill="#191970" stroke="#191970" points="1589.8167,-65.0593 1579.5368,-67.6231 1589.1718,-72.0295 1589.8167,-65.0593"/>
</g>
<!-- Node61&#45;&gt;Node28 -->
<g id="edge109" class="edge">
<title>Node61&#45;&gt;Node28</title>
<path fill="none" stroke="#191970" d="M1719.7182,-431.8206C1623.7761,-421.3416 1469.244,-403.5369 1394.9312,-388.7576"/>
<polygon fill="#191970" stroke="#191970" points="1395.4951,-385.3001 1384.9922,-386.6933 1394.0715,-392.1538 1395.4951,-385.3001"/>
</g>
<!-- Node61&#45;&gt;Node31 -->
<g id="edge110" class="edge">
<title>Node61&#45;&gt;Node31</title>
<path fill="none" stroke="#191970" d="M1750.8991,-430.9581C1693.0537,-420.012 1598.266,-402.0752 1536.5814,-390.4026"/>
<polygon fill="#191970" stroke="#191970" points="1537.0757,-386.9341 1526.5993,-388.5137 1535.7741,-393.812 1537.0757,-386.9341"/>
</g>
<!-- Node61&#45;&gt;Node62 -->
<g id="edge107" class="edge">
<title>Node61&#45;&gt;Node62</title>
<path fill="none" stroke="#191970" d="M1818.5112,-430.8906C1836.4319,-420.8713 1864.7332,-405.0483 1885.3761,-393.5071"/>
<polygon fill="#191970" stroke="#191970" points="1887.2365,-396.4769 1894.2569,-388.5419 1883.8204,-390.367 1887.2365,-396.4769"/>
</g>
<!-- Node63&#45;&gt;Node28 -->
<g id="edge115" class="edge">
<title>Node63&#45;&gt;Node28</title>
<path fill="none" stroke="#191970" d="M1344.7619,-425.2977C1347.6567,-417.2055 1351.2488,-407.1639 1354.3471,-398.5029"/>
<polygon fill="#191970" stroke="#191970" points="1357.7285,-399.4415 1357.8012,-388.8469 1351.1375,-397.0837 1357.7285,-399.4415"/>
</g>
<!-- Node63&#45;&gt;Node29 -->
<g id="edge116" class="edge">
<title>Node63&#45;&gt;Node29</title>
<path fill="none" stroke="#191970" d="M1421.5,-430.0762C1437.0393,-428.2611 1453.1702,-426.4827 1468.3237,-425 1676.1759,-404.6628 1731.5202,-410.1477 1943.7578,-389.0051"/>
<polygon fill="#191970" stroke="#191970" points="1944.384,-392.4599 1953.9842,-387.978 1943.6844,-385.4949 1944.384,-392.4599"/>
</g>
</g>
</svg>
