<?xml version="1.0" encoding="UTF-8" standalone="no"?>
<!DOCTYPE svg PUBLIC "-//W3C//DTD SVG 1.1//EN"
 "http://www.w3.org/Graphics/SVG/1.1/DTD/svg11.dtd">
<!-- Generated by graphviz version 2.40.1 (20161225.0304)
 -->
<!-- Title: iDynTree::optimalcontrol::QuadraticLikeCost Pages: 1 -->
<svg width="390pt" height="172pt"
 viewBox="0.00 0.00 389.50 172.00" xmlns="http://www.w3.org/2000/svg" xmlns:xlink="http://www.w3.org/1999/xlink">
<g id="graph0" class="graph" transform="scale(1 1) rotate(0) translate(4 168)">
<title>iDynTree::optimalcontrol::QuadraticLikeCost</title>
<!-- Node4 -->
<g id="node1" class="node">
<title>Node4</title>
<polygon fill="#bfbfbf" stroke="#000000" points="77,-.5 77,-30.5 214,-30.5 214,-.5 77,-.5"/>
<text text-anchor="start" x="85" y="-18.5" font-family="FreeSans.ttf" font-size="10.00" fill="#000000">iDynTree::optimalcontrol</text>
<text text-anchor="middle" x="145.5" y="-7.5" font-family="FreeSans.ttf" font-size="10.00" fill="#000000">::QuadraticLikeCost</text>
</g>
<!-- Node5 -->
<g id="node2" class="node">
<title>Node5</title>
<g id="a_node2"><a xlink:href="classiDynTree_1_1optimalcontrol_1_1Cost.html" target="_top" xlink:title="The Cost virtual class definition. ">
<polygon fill="none" stroke="#000000" points="0,-133.5 0,-163.5 137,-163.5 137,-133.5 0,-133.5"/>
<text text-anchor="start" x="8" y="-151.5" font-family="FreeSans.ttf" font-size="10.00" fill="#000000">iDynTree::optimalcontrol</text>
<text text-anchor="middle" x="68.5" y="-140.5" font-family="FreeSans.ttf" font-size="10.00" fill="#000000">::Cost</text>
</a>
</g>
</g>
<!-- Node5&#45;&gt;Node4 -->
<g id="edge1" class="edge">
<title>Node5&#45;&gt;Node4</title>
<path fill="none" stroke="#191970" d="M82.4961,-124.3249C98.3049,-97.0187 123.5457,-53.421 136.7701,-30.5789"/>
<polygon fill="#191970" stroke="#191970" points="79.3143,-122.8353 77.3329,-133.2432 85.3723,-126.3426 79.3143,-122.8353"/>
</g>
<!-- Node6 -->
<g id="node3" class="node">
<title>Node6</title>
<g id="a_node3"><a xlink:href="classiDynTree_1_1optimalcontrol_1_1SparsityStructure.html" target="_top" xlink:title="iDynTree::optimalcontrol\l::SparsityStructure">
<polygon fill="none" stroke="#000000" points="155,-133.5 155,-163.5 292,-163.5 292,-133.5 155,-133.5"/>
<text text-anchor="start" x="163" y="-151.5" font-family="FreeSans.ttf" font-size="10.00" fill="#000000">iDynTree::optimalcontrol</text>
<text text-anchor="middle" x="223.5" y="-140.5" font-family="FreeSans.ttf" font-size="10.00" fill="#000000">::SparsityStructure</text>
</a>
</g>
</g>
<!-- Node6&#45;&gt;Node4 -->
<g id="edge2" class="edge">
<title>Node6&#45;&gt;Node4</title>
<path fill="none" stroke="#9a32cd" stroke-dasharray="5,2" d="M209.3221,-124.3249C193.308,-97.0187 167.7394,-53.421 154.3432,-30.5789"/>
<polygon fill="#9a32cd" stroke="#9a32cd" points="206.4744,-126.3878 214.5524,-133.2432 212.5126,-122.8466 206.4744,-126.3878"/>
<text text-anchor="start" x="202.5" y="-107" font-family="FreeSans.ttf" font-size="10.00" fill="#000000"> m_secondPartialDerivative</text>
<text text-anchor="middle" x="292" y="-96" font-family="FreeSans.ttf" font-size="10.00" fill="#000000">WRTControlSparsity</text>
<text text-anchor="start" x="202.5" y="-85" font-family="FreeSans.ttf" font-size="10.00" fill="#000000">m_secondPartialDerivativeWRTState</text>
<text text-anchor="middle" x="292" y="-74" font-family="FreeSans.ttf" font-size="10.00" fill="#000000">Sparsity</text>
<text text-anchor="start" x="202.5" y="-63" font-family="FreeSans.ttf" font-size="10.00" fill="#000000">m_secondPartialDerivativeWRTState</text>
<text text-anchor="middle" x="292" y="-52" font-family="FreeSans.ttf" font-size="10.00" fill="#000000">ControlSparsity</text>
</g>
</g>
</svg>
