<?xml version="1.0" encoding="UTF-8" standalone="no"?>
<!DOCTYPE svg PUBLIC "-//W3C//DTD SVG 1.1//EN"
 "http://www.w3.org/Graphics/SVG/1.1/DTD/svg11.dtd">
<!-- Generated by graphviz version 2.40.1 (20161225.0304)
 -->
<!-- Title: iDynTree::optimization::AlglibInterface::AlglibInterfaceImplementation Pages: 1 -->
<svg width="405pt" height="252pt"
 viewBox="0.00 0.00 405.00 252.00" xmlns="http://www.w3.org/2000/svg" xmlns:xlink="http://www.w3.org/1999/xlink">
<g id="graph0" class="graph" transform="scale(1 1) rotate(0) translate(4 248)">
<title>iDynTree::optimization::AlglibInterface::AlglibInterfaceImplementation</title>
<!-- Node1 -->
<g id="node1" class="node">
<title>Node1</title>
<polygon fill="#bfbfbf" stroke="#000000" points="149.5,-.5 149.5,-41.5 320.5,-41.5 320.5,-.5 149.5,-.5"/>
<text text-anchor="start" x="157.5" y="-29.5" font-family="FreeSans.ttf" font-size="10.00" fill="#000000">iDynTree::optimization</text>
<text text-anchor="start" x="157.5" y="-18.5" font-family="FreeSans.ttf" font-size="10.00" fill="#000000">::AlglibInterface::AlglibInterface</text>
<text text-anchor="middle" x="235" y="-7.5" font-family="FreeSans.ttf" font-size="10.00" fill="#000000">Implementation</text>
</g>
<!-- Node2 -->
<g id="node2" class="node">
<title>Node2</title>
<g id="a_node2"><a xlink:href="structiDynTree_1_1optimization_1_1SharedData.html" target="_top" xlink:title="iDynTree::optimization\l::SharedData">
<polygon fill="none" stroke="#000000" points="118.5,-107 118.5,-137 245.5,-137 245.5,-107 118.5,-107"/>
<text text-anchor="start" x="126.5" y="-125" font-family="FreeSans.ttf" font-size="10.00" fill="#000000">iDynTree::optimization</text>
<text text-anchor="middle" x="182" y="-114" font-family="FreeSans.ttf" font-size="10.00" fill="#000000">::SharedData</text>
</a>
</g>
</g>
<!-- Node2&#45;&gt;Node1 -->
<g id="edge1" class="edge">
<title>Node2&#45;&gt;Node1</title>
<path fill="none" stroke="#9a32cd" stroke-dasharray="5,2" d="M194.9433,-97.3345C203.8868,-80.2913 215.6496,-57.8753 224.1117,-41.7494"/>
<polygon fill="#9a32cd" stroke="#9a32cd" points="191.597,-96.179 190.0496,-106.6603 197.7954,-99.4317 191.597,-96.179"/>
<text text-anchor="middle" x="235" y="-63" font-family="FreeSans.ttf" font-size="10.00" fill="#000000"> nlpData</text>
</g>
<!-- Node3 -->
<g id="node3" class="node">
<title>Node3</title>
<g id="a_node3"><a xlink:href="classiDynTree_1_1MatrixDynSize.html" target="_top" xlink:title="Class providing a simple form of matrix with dynamic size. ">
<polygon fill="none" stroke="#000000" points="0,-224.5 0,-243.5 136,-243.5 136,-224.5 0,-224.5"/>
<text text-anchor="middle" x="68" y="-231.5" font-family="FreeSans.ttf" font-size="10.00" fill="#000000">iDynTree::MatrixDynSize</text>
</a>
</g>
</g>
<!-- Node3&#45;&gt;Node2 -->
<g id="edge2" class="edge">
<title>Node3&#45;&gt;Node2</title>
<path fill="none" stroke="#9a32cd" stroke-dasharray="5,2" d="M67.186,-214.1018C67.6452,-201.2124 70.1965,-184.7081 79,-173 91.4716,-156.4136 110.809,-144.8866 129.3755,-137.0457"/>
<polygon fill="#9a32cd" stroke="#9a32cd" points="63.6865,-214.2975 67.2166,-224.2869 70.6865,-214.2764 63.6865,-214.2975"/>
<text text-anchor="middle" x="124.5" y="-198" font-family="FreeSans.ttf" font-size="10.00" fill="#000000"> jacBuffer</text>
<text text-anchor="middle" x="124.5" y="-187" font-family="FreeSans.ttf" font-size="10.00" fill="#000000">constraintJacobian</text>
<text text-anchor="middle" x="124.5" y="-176" font-family="FreeSans.ttf" font-size="10.00" fill="#000000">zeroMatrix</text>
</g>
<!-- Node4 -->
<g id="node4" class="node">
<title>Node4</title>
<g id="a_node4"><a xlink:href="classiDynTree_1_1VectorDynSize.html" target="_top" xlink:title="Class providing a simple form of vector with dynamic size. ">
<polygon fill="none" stroke="#000000" points="187,-224.5 187,-243.5 323,-243.5 323,-224.5 187,-224.5"/>
<text text-anchor="middle" x="255" y="-231.5" font-family="FreeSans.ttf" font-size="10.00" fill="#000000">iDynTree::VectorDynSize</text>
</a>
</g>
</g>
<!-- Node4&#45;&gt;Node1 -->
<g id="edge4" class="edge">
<title>Node4&#45;&gt;Node1</title>
<path fill="none" stroke="#9a32cd" stroke-dasharray="5,2" d="M269.365,-216.1104C271.2709,-212.9053 272.9324,-209.4746 274,-206 278.3077,-191.9802 274.9034,-187.6388 274,-173 270.883,-122.4899 277.1936,-107.5959 260,-60 257.7047,-53.6461 254.2241,-47.263 250.5831,-41.554"/>
<polygon fill="#9a32cd" stroke="#9a32cd" points="266.4453,-214.179 263.6364,-224.3947 272.2028,-218.1603 266.4453,-214.179"/>
<text text-anchor="middle" x="335.5" y="-147" font-family="FreeSans.ttf" font-size="10.00" fill="#000000"> constraintsUpperBounds</text>
<text text-anchor="middle" x="335.5" y="-136" font-family="FreeSans.ttf" font-size="10.00" fill="#000000">variablesUpperBounds</text>
<text text-anchor="middle" x="335.5" y="-125" font-family="FreeSans.ttf" font-size="10.00" fill="#000000">constraintsLowerBounds</text>
<text text-anchor="middle" x="335.5" y="-114" font-family="FreeSans.ttf" font-size="10.00" fill="#000000">solution</text>
<text text-anchor="middle" x="335.5" y="-103" font-family="FreeSans.ttf" font-size="10.00" fill="#000000">x0</text>
<text text-anchor="middle" x="335.5" y="-92" font-family="FreeSans.ttf" font-size="10.00" fill="#000000">variablesLowerBounds</text>
</g>
<!-- Node4&#45;&gt;Node2 -->
<g id="edge3" class="edge">
<title>Node4&#45;&gt;Node2</title>
<path fill="none" stroke="#9a32cd" stroke-dasharray="5,2" d="M210.2409,-221.12C197.8051,-216.5984 186.6824,-211.315 183,-206 168.88,-185.6201 173.0721,-155.265 177.4822,-137.1702"/>
<polygon fill="#9a32cd" stroke="#9a32cd" points="209.3106,-224.5007 219.9051,-224.4171 211.5709,-217.8756 209.3106,-224.5007"/>
<text text-anchor="middle" x="228.5" y="-198" font-family="FreeSans.ttf" font-size="10.00" fill="#000000"> constraintsBuffer</text>
<text text-anchor="middle" x="228.5" y="-187" font-family="FreeSans.ttf" font-size="10.00" fill="#000000">costJacobianBuffer</text>
<text text-anchor="middle" x="228.5" y="-176" font-family="FreeSans.ttf" font-size="10.00" fill="#000000">variablesBuffer</text>
</g>
</g>
</svg>
