<?xml version="1.0" encoding="UTF-8" standalone="no"?>
<!DOCTYPE svg PUBLIC "-//W3C//DTD SVG 1.1//EN"
 "http://www.w3.org/Graphics/SVG/1.1/DTD/svg11.dtd">
<!-- Generated by graphviz version 2.40.1 (20161225.0304)
 -->
<!-- Title: iDynTree::optimization::OsqpInterface::OsqpInterfaceImplementation Pages: 1 -->
<svg width="346pt" height="216pt"
 viewBox="0.00 0.00 345.50 216.00" xmlns="http://www.w3.org/2000/svg" xmlns:xlink="http://www.w3.org/1999/xlink">
<g id="graph0" class="graph" transform="scale(1 1) rotate(0) translate(4 212)">
<title>iDynTree::optimization::OsqpInterface::OsqpInterfaceImplementation</title>
<!-- Node1 -->
<g id="node1" class="node">
<title>Node1</title>
<polygon fill="#bfbfbf" stroke="#000000" points="56,-.5 56,-41.5 221,-41.5 221,-.5 56,-.5"/>
<text text-anchor="start" x="64" y="-29.5" font-family="FreeSans.ttf" font-size="10.00" fill="#000000">iDynTree::optimization</text>
<text text-anchor="start" x="64" y="-18.5" font-family="FreeSans.ttf" font-size="10.00" fill="#000000">::OsqpInterface::OsqpInterface</text>
<text text-anchor="middle" x="138.5" y="-7.5" font-family="FreeSans.ttf" font-size="10.00" fill="#000000">Implementation</text>
</g>
<!-- Node2 -->
<g id="node2" class="node">
<title>Node2</title>
<g id="a_node2"><a xlink:href="structiDynTree_1_1optimization_1_1OsqpSettings.html" target="_top" xlink:title="iDynTree::optimization\l::OsqpSettings">
<polygon fill="none" stroke="#000000" points="0,-177.5 0,-207.5 127,-207.5 127,-177.5 0,-177.5"/>
<text text-anchor="start" x="8" y="-195.5" font-family="FreeSans.ttf" font-size="10.00" fill="#000000">iDynTree::optimization</text>
<text text-anchor="middle" x="63.5" y="-184.5" font-family="FreeSans.ttf" font-size="10.00" fill="#000000">::OsqpSettings</text>
</a>
</g>
</g>
<!-- Node2&#45;&gt;Node1 -->
<g id="edge1" class="edge">
<title>Node2&#45;&gt;Node1</title>
<path fill="none" stroke="#9a32cd" stroke-dasharray="5,2" d="M68.6692,-167.4901C75.0114,-139.9803 87.3426,-95.0288 106.5,-60 109.9461,-53.6989 114.4677,-47.4331 119.0223,-41.8264"/>
<polygon fill="#9a32cd" stroke="#9a32cd" points="65.2065,-166.9386 66.4581,-177.4593 72.0404,-168.4544 65.2065,-166.9386"/>
<text text-anchor="middle" x="149" y="-112.5" font-family="FreeSans.ttf" font-size="10.00" fill="#000000"> previousSettings</text>
<text text-anchor="middle" x="149" y="-101.5" font-family="FreeSans.ttf" font-size="10.00" fill="#000000">settings</text>
</g>
<!-- Node3 -->
<g id="node3" class="node">
<title>Node3</title>
<g id="a_node3"><a xlink:href="classiDynTree_1_1VectorDynSize.html" target="_top" xlink:title="Class providing a simple form of vector with dynamic size. ">
<polygon fill="none" stroke="#000000" points="145.5,-183 145.5,-202 281.5,-202 281.5,-183 145.5,-183"/>
<text text-anchor="middle" x="213.5" y="-190" font-family="FreeSans.ttf" font-size="10.00" fill="#000000">iDynTree::VectorDynSize</text>
</a>
</g>
</g>
<!-- Node3&#45;&gt;Node1 -->
<g id="edge2" class="edge">
<title>Node3&#45;&gt;Node1</title>
<path fill="none" stroke="#9a32cd" stroke-dasharray="5,2" d="M214.6787,-172.3669C215.3355,-144.9103 213.0594,-95.1268 191.5,-60 187.1974,-52.9897 181.1226,-46.8378 174.6129,-41.6159"/>
<polygon fill="#9a32cd" stroke="#9a32cd" points="211.1695,-172.5268 214.2653,-182.6593 218.1639,-172.8078 211.1695,-172.5268"/>
<text text-anchor="middle" x="276" y="-151" font-family="FreeSans.ttf" font-size="10.00" fill="#000000"> constraintsUpperBounds</text>
<text text-anchor="middle" x="276" y="-140" font-family="FreeSans.ttf" font-size="10.00" fill="#000000">costGradient</text>
<text text-anchor="middle" x="276" y="-129" font-family="FreeSans.ttf" font-size="10.00" fill="#000000">constraintsBuffer</text>
<text text-anchor="middle" x="276" y="-118" font-family="FreeSans.ttf" font-size="10.00" fill="#000000">variablesUpperBounds</text>
<text text-anchor="middle" x="276" y="-107" font-family="FreeSans.ttf" font-size="10.00" fill="#000000">solutionBuffer</text>
<text text-anchor="middle" x="276" y="-96" font-family="FreeSans.ttf" font-size="10.00" fill="#000000">constraintsLowerBounds</text>
<text text-anchor="middle" x="276" y="-85" font-family="FreeSans.ttf" font-size="10.00" fill="#000000">variablesBuffer</text>
<text text-anchor="middle" x="276" y="-74" font-family="FreeSans.ttf" font-size="10.00" fill="#000000">iDynTreeInitialGuess</text>
<text text-anchor="middle" x="276" y="-63" font-family="FreeSans.ttf" font-size="10.00" fill="#000000">variablesLowerBounds</text>
</g>
</g>
</svg>
