<?xml version="1.0" encoding="UTF-8" standalone="no"?>
<!DOCTYPE svg PUBLIC "-//W3C//DTD SVG 1.1//EN"
 "http://www.w3.org/Graphics/SVG/1.1/DTD/svg11.dtd">
<!-- Generated by graphviz version 2.40.1 (20161225.0304)
 -->
<!-- Title: iDynTree::IJetsVisualization Pages: 1 -->
<svg width="358pt" height="84pt"
 viewBox="0.00 0.00 357.50 84.00" xmlns="http://www.w3.org/2000/svg" xmlns:xlink="http://www.w3.org/1999/xlink">
<g id="graph0" class="graph" transform="scale(1 1) rotate(0) translate(4 80)">
<title>iDynTree::IJetsVisualization</title>
<!-- Node0 -->
<g id="node1" class="node">
<title>Node0</title>
<polygon fill="#bfbfbf" stroke="#000000" points="110,-56.5 110,-75.5 259,-75.5 259,-56.5 110,-56.5"/>
<text text-anchor="middle" x="184.5" y="-63.5" font-family="FreeSans.ttf" font-size="10.00" fill="#000000">iDynTree::IJetsVisualization</text>
</g>
<!-- Node1 -->
<g id="node2" class="node">
<title>Node1</title>
<g id="a_node2"><a xlink:href="classiDynTree_1_1DummyJetsVisualization.html" target="_top" xlink:title="Dummy jets. ">
<polygon fill="none" stroke="#000000" points="0,-.5 0,-19.5 185,-19.5 185,-.5 0,-.5"/>
<text text-anchor="middle" x="92.5" y="-7.5" font-family="FreeSans.ttf" font-size="10.00" fill="#000000">iDynTree::DummyJetsVisualization</text>
</a>
</g>
</g>
<!-- Node0&#45;&gt;Node1 -->
<g id="edge1" class="edge">
<title>Node0&#45;&gt;Node1</title>
<path fill="none" stroke="#191970" d="M159.4776,-50.769C143.175,-40.8456 122.399,-28.1994 108.3415,-19.6427"/>
<polygon fill="#191970" stroke="#191970" points="158.113,-54.0357 168.4748,-56.2455 161.7527,-48.0563 158.113,-54.0357"/>
</g>
<!-- Node2 -->
<g id="node3" class="node">
<title>Node2</title>
<g id="a_node3"><a xlink:href="classiDynTree_1_1JetsVisualization.html" target="_top" xlink:title="iDynTree::JetsVisualization">
<polygon fill="none" stroke="#000000" points="203.5,-.5 203.5,-19.5 349.5,-19.5 349.5,-.5 203.5,-.5"/>
<text text-anchor="middle" x="276.5" y="-7.5" font-family="FreeSans.ttf" font-size="10.00" fill="#000000">iDynTree::JetsVisualization</text>
</a>
</g>
</g>
<!-- Node0&#45;&gt;Node2 -->
<g id="edge2" class="edge">
<title>Node0&#45;&gt;Node2</title>
<path fill="none" stroke="#191970" d="M209.5224,-50.769C225.825,-40.8456 246.601,-28.1994 260.6585,-19.6427"/>
<polygon fill="#191970" stroke="#191970" points="207.2473,-48.0563 200.5252,-56.2455 210.887,-54.0357 207.2473,-48.0563"/>
</g>
</g>
</svg>
