<?xml version="1.0" encoding="UTF-8" standalone="no"?>
<!DOCTYPE svg PUBLIC "-//W3C//DTD SVG 1.1//EN"
 "http://www.w3.org/Graphics/SVG/1.1/DTD/svg11.dtd">
<!-- Generated by graphviz version 2.40.1 (20161225.0304)
 -->
<!-- Title: iDynTree::SpatialForceVector Pages: 1 -->
<svg width="282pt" height="220pt"
 viewBox="0.00 0.00 282.00 220.00" xmlns="http://www.w3.org/2000/svg" xmlns:xlink="http://www.w3.org/1999/xlink">
<g id="graph0" class="graph" transform="scale(1 1) rotate(0) translate(4 216)">
<title>iDynTree::SpatialForceVector</title>
<!-- Node0 -->
<g id="node1" class="node">
<title>Node0</title>
<polygon fill="#bfbfbf" stroke="#000000" points="72.5,-57.5 72.5,-76.5 228.5,-76.5 228.5,-57.5 72.5,-57.5"/>
<text text-anchor="middle" x="150.5" y="-64.5" font-family="FreeSans.ttf" font-size="10.00" fill="#000000">iDynTree::SpatialForceVector</text>
</g>
<!-- Node3 -->
<g id="node4" class="node">
<title>Node3</title>
<g id="a_node4"><a xlink:href="classiDynTree_1_1SpatialMomentum.html" target="_top" xlink:title="Class representing a spatial momentum, i.e. ">
<polygon fill="none" stroke="#000000" points="0,-.5 0,-19.5 155,-19.5 155,-.5 0,-.5"/>
<text text-anchor="middle" x="77.5" y="-7.5" font-family="FreeSans.ttf" font-size="10.00" fill="#000000">iDynTree::SpatialMomentum</text>
</a>
</g>
</g>
<!-- Node0&#45;&gt;Node3 -->
<g id="edge3" class="edge">
<title>Node0&#45;&gt;Node3</title>
<path fill="none" stroke="#191970" d="M130.1571,-51.1158C117.1524,-40.9615 100.7195,-28.1303 89.7006,-19.5265"/>
<polygon fill="#191970" stroke="#191970" points="128.0806,-53.935 138.1165,-57.3307 132.3887,-48.4177 128.0806,-53.935"/>
</g>
<!-- Node4 -->
<g id="node5" class="node">
<title>Node4</title>
<g id="a_node5"><a xlink:href="classiDynTree_1_1Wrench.html" target="_top" xlink:title="Class representing a wrench, i.e. ">
<polygon fill="none" stroke="#000000" points="173,-.5 173,-19.5 274,-19.5 274,-.5 173,-.5"/>
<text text-anchor="middle" x="223.5" y="-7.5" font-family="FreeSans.ttf" font-size="10.00" fill="#000000">iDynTree::Wrench</text>
</a>
</g>
</g>
<!-- Node0&#45;&gt;Node4 -->
<g id="edge4" class="edge">
<title>Node0&#45;&gt;Node4</title>
<path fill="none" stroke="#191970" d="M170.8429,-51.1158C183.8476,-40.9615 200.2805,-28.1303 211.2994,-19.5265"/>
<polygon fill="#191970" stroke="#191970" points="168.6113,-48.4177 162.8835,-57.3307 172.9194,-53.935 168.6113,-48.4177"/>
</g>
<!-- Node1 -->
<g id="node2" class="node">
<title>Node1</title>
<g id="a_node2"><a xlink:href="classiDynTree_1_1SpatialVector.html" target="_top" xlink:title="iDynTree::SpatialVector\l\&lt; SpatialForceVector \&gt;">
<polygon fill="none" stroke="#000000" points="85.5,-114.5 85.5,-144.5 215.5,-144.5 215.5,-114.5 85.5,-114.5"/>
<text text-anchor="start" x="93.5" y="-132.5" font-family="FreeSans.ttf" font-size="10.00" fill="#000000">iDynTree::SpatialVector</text>
<text text-anchor="middle" x="150.5" y="-121.5" font-family="FreeSans.ttf" font-size="10.00" fill="#000000">&lt; SpatialForceVector &gt;</text>
</a>
</g>
</g>
<!-- Node1&#45;&gt;Node0 -->
<g id="edge1" class="edge">
<title>Node1&#45;&gt;Node0</title>
<path fill="none" stroke="#191970" d="M150.5,-104.3498C150.5,-94.6481 150.5,-84.1303 150.5,-76.7356"/>
<polygon fill="#191970" stroke="#191970" points="147.0001,-104.3705 150.5,-114.3705 154.0001,-104.3705 147.0001,-104.3705"/>
</g>
<!-- Node2 -->
<g id="node3" class="node">
<title>Node2</title>
<g id="a_node3"><a xlink:href="classiDynTree_1_1SpatialVector.html" target="_top" xlink:title="iDynTree::SpatialVector">
<polygon fill="none" stroke="#000000" points="85.5,-192.5 85.5,-211.5 215.5,-211.5 215.5,-192.5 85.5,-192.5"/>
<text text-anchor="middle" x="150.5" y="-199.5" font-family="FreeSans.ttf" font-size="10.00" fill="#000000">iDynTree::SpatialVector</text>
</a>
</g>
</g>
<!-- Node2&#45;&gt;Node1 -->
<g id="edge2" class="edge">
<title>Node2&#45;&gt;Node1</title>
<path fill="none" stroke="#ffa500" stroke-dasharray="5,2" d="M150.5,-182.0177C150.5,-170.2164 150.5,-155.513 150.5,-144.668"/>
<polygon fill="#ffa500" stroke="#ffa500" points="147.0001,-182.2223 150.5,-192.2223 154.0001,-182.2224 147.0001,-182.2223"/>
<text text-anchor="middle" x="209" y="-166" font-family="FreeSans.ttf" font-size="10.00" fill="#000000"> &lt; SpatialForceVector &gt;</text>
</g>
</g>
</svg>
