<?xml version="1.0" encoding="UTF-8" standalone="no"?>
<!DOCTYPE svg PUBLIC "-//W3C//DTD SVG 1.1//EN"
 "http://www.w3.org/Graphics/SVG/1.1/DTD/svg11.dtd">
<!-- Generated by graphviz version 2.40.1 (20161225.0304)
 -->
<!-- Title: iDynTree::ModelCalibrationHelper::ModelCalibrationHelperPimpl Pages: 1 -->
<svg width="290pt" height="106pt"
 viewBox="0.00 0.00 290.00 106.00" xmlns="http://www.w3.org/2000/svg" xmlns:xlink="http://www.w3.org/1999/xlink">
<g id="graph0" class="graph" transform="scale(1 1) rotate(0) translate(4 102)">
<title>iDynTree::ModelCalibrationHelper::ModelCalibrationHelperPimpl</title>
<!-- Node1 -->
<g id="node1" class="node">
<title>Node1</title>
<polygon fill="#bfbfbf" stroke="#000000" points="44.5,-.5 44.5,-30.5 241.5,-30.5 241.5,-.5 44.5,-.5"/>
<text text-anchor="start" x="52.5" y="-18.5" font-family="FreeSans.ttf" font-size="10.00" fill="#000000">iDynTree::ModelCalibration</text>
<text text-anchor="middle" x="143" y="-7.5" font-family="FreeSans.ttf" font-size="10.00" fill="#000000">Helper::ModelCalibrationHelperPimpl</text>
</g>
<!-- Node2 -->
<g id="node2" class="node">
<title>Node2</title>
<g id="a_node2"><a xlink:href="classiDynTree_1_1ModelExporter.html" target="_top" xlink:title="Helper class to export a model to the supported textual formats. ">
<polygon fill="none" stroke="#000000" points="0,-78.5 0,-97.5 136,-97.5 136,-78.5 0,-78.5"/>
<text text-anchor="middle" x="68" y="-85.5" font-family="FreeSans.ttf" font-size="10.00" fill="#000000">iDynTree::ModelExporter</text>
</a>
</g>
</g>
<!-- Node2&#45;&gt;Node1 -->
<g id="edge1" class="edge">
<title>Node2&#45;&gt;Node1</title>
<path fill="none" stroke="#9a32cd" stroke-dasharray="5,2" d="M85.3564,-71.2222C98.0226,-58.9781 115.049,-42.5193 127.3089,-30.668"/>
<polygon fill="#9a32cd" stroke="#9a32cd" points="82.8722,-68.7556 78.1148,-78.2223 87.7373,-73.7885 82.8722,-68.7556"/>
<text text-anchor="middle" x="146" y="-52" font-family="FreeSans.ttf" font-size="10.00" fill="#000000"> modelExporter</text>
</g>
<!-- Node3 -->
<g id="node3" class="node">
<title>Node3</title>
<g id="a_node3"><a xlink:href="classiDynTree_1_1ModelLoader.html" target="_top" xlink:title="Helper class to load a model from a generic format. ">
<polygon fill="none" stroke="#000000" points="154,-78.5 154,-97.5 282,-97.5 282,-78.5 154,-78.5"/>
<text text-anchor="middle" x="218" y="-85.5" font-family="FreeSans.ttf" font-size="10.00" fill="#000000">iDynTree::ModelLoader</text>
</a>
</g>
</g>
<!-- Node3&#45;&gt;Node1 -->
<g id="edge2" class="edge">
<title>Node3&#45;&gt;Node1</title>
<path fill="none" stroke="#9a32cd" stroke-dasharray="5,2" d="M205.9436,-70.2362C200.8087,-63.2588 194.5063,-55.4045 188,-49 181.3366,-42.4408 173.3426,-36.0901 165.9531,-30.7138"/>
<polygon fill="#9a32cd" stroke="#9a32cd" points="203.1129,-72.295 211.7508,-78.43 208.824,-68.2474 203.1129,-72.295"/>
<text text-anchor="middle" x="230.5" y="-52" font-family="FreeSans.ttf" font-size="10.00" fill="#000000"> modelLoader</text>
</g>
</g>
</svg>
