<?xml version="1.0" encoding="UTF-8" standalone="no"?>
<!DOCTYPE svg PUBLIC "-//W3C//DTD SVG 1.1//EN"
 "http://www.w3.org/Graphics/SVG/1.1/DTD/svg11.dtd">
<!-- Generated by graphviz version 2.40.1 (20161225.0304)
 -->
<!-- Title: iDynTree::SpatialInertia Pages: 1 -->
<svg width="175pt" height="287pt"
 viewBox="0.00 0.00 175.00 287.00" xmlns="http://www.w3.org/2000/svg" xmlns:xlink="http://www.w3.org/1999/xlink">
<g id="graph0" class="graph" transform="scale(1 1) rotate(0) translate(4 283)">
<title>iDynTree::SpatialInertia</title>
<!-- Node2 -->
<g id="node1" class="node">
<title>Node2</title>
<polygon fill="#bfbfbf" stroke="#000000" points="18,-.5 18,-19.5 149,-19.5 149,-.5 18,-.5"/>
<text text-anchor="middle" x="83.5" y="-7.5" font-family="FreeSans.ttf" font-size="10.00" fill="#000000">iDynTree::SpatialInertia</text>
</g>
<!-- Node3 -->
<g id="node2" class="node">
<title>Node3</title>
<g id="a_node2"><a xlink:href="classiDynTree_1_1SpatialInertiaRaw.html" target="_top" xlink:title="Class providing the raw coordinates for a spatial inertia, i.e. ">
<polygon fill="none" stroke="#000000" points="7.5,-57.5 7.5,-76.5 159.5,-76.5 159.5,-57.5 7.5,-57.5"/>
<text text-anchor="middle" x="83.5" y="-64.5" font-family="FreeSans.ttf" font-size="10.00" fill="#000000">iDynTree::SpatialInertiaRaw</text>
</a>
</g>
</g>
<!-- Node3&#45;&gt;Node2 -->
<g id="edge1" class="edge">
<title>Node3&#45;&gt;Node2</title>
<path fill="none" stroke="#191970" d="M83.5,-47.2342C83.5,-37.8491 83.5,-27.0651 83.5,-19.5265"/>
<polygon fill="#191970" stroke="#191970" points="80.0001,-47.3307 83.5,-57.3307 87.0001,-47.3308 80.0001,-47.3307"/>
</g>
<!-- Node4 -->
<g id="node3" class="node">
<title>Node4</title>
<g id="a_node3"><a xlink:href="classiDynTree_1_1RotationalInertiaRaw.html" target="_top" xlink:title="Class providing the raw coordinates for a 3d inertia matrix. ">
<polygon fill="none" stroke="#000000" points="0,-124.5 0,-143.5 167,-143.5 167,-124.5 0,-124.5"/>
<text text-anchor="middle" x="83.5" y="-131.5" font-family="FreeSans.ttf" font-size="10.00" fill="#000000">iDynTree::RotationalInertiaRaw</text>
</a>
</g>
</g>
<!-- Node4&#45;&gt;Node3 -->
<g id="edge2" class="edge">
<title>Node4&#45;&gt;Node3</title>
<path fill="none" stroke="#9a32cd" stroke-dasharray="5,2" d="M83.5,-114.1079C83.5,-101.714 83.5,-86.3263 83.5,-76.5817"/>
<polygon fill="#9a32cd" stroke="#9a32cd" points="80.0001,-114.4005 83.5,-124.4005 87.0001,-114.4006 80.0001,-114.4005"/>
<text text-anchor="middle" x="115.5" y="-98" font-family="FreeSans.ttf" font-size="10.00" fill="#000000"> m_rotInertia</text>
</g>
<!-- Node5 -->
<g id="node4" class="node">
<title>Node5</title>
<g id="a_node4"><a xlink:href="classiDynTree_1_1MatrixFixSize.html" target="_top" xlink:title="Matrix3x3">
<polygon fill="none" stroke="#000000" points="51,-181.5 51,-200.5 116,-200.5 116,-181.5 51,-181.5"/>
<text text-anchor="middle" x="83.5" y="-188.5" font-family="FreeSans.ttf" font-size="10.00" fill="#000000">Matrix3x3</text>
</a>
</g>
</g>
<!-- Node5&#45;&gt;Node4 -->
<g id="edge3" class="edge">
<title>Node5&#45;&gt;Node4</title>
<path fill="none" stroke="#191970" d="M83.5,-171.2342C83.5,-161.8491 83.5,-151.0651 83.5,-143.5265"/>
<polygon fill="#191970" stroke="#191970" points="80.0001,-171.3307 83.5,-181.3307 87.0001,-171.3308 80.0001,-171.3307"/>
</g>
<!-- Node6 -->
<g id="node5" class="node">
<title>Node6</title>
<g id="a_node5"><a xlink:href="classiDynTree_1_1MatrixFixSize.html" target="_top" xlink:title="Class providing a simple form of matrix with dynamic size. ">
<polygon fill="none" stroke="#000000" points="18.5,-248.5 18.5,-278.5 148.5,-278.5 148.5,-248.5 18.5,-248.5"/>
<text text-anchor="start" x="26.5" y="-266.5" font-family="FreeSans.ttf" font-size="10.00" fill="#000000">iDynTree::MatrixFixSize</text>
<text text-anchor="middle" x="83.5" y="-255.5" font-family="FreeSans.ttf" font-size="10.00" fill="#000000">&lt; nRows, nCols &gt;</text>
</a>
</g>
</g>
<!-- Node6&#45;&gt;Node5 -->
<g id="edge4" class="edge">
<title>Node6&#45;&gt;Node5</title>
<path fill="none" stroke="#ffa500" stroke-dasharray="5,2" d="M83.5,-238.305C83.5,-225.424 83.5,-210.4836 83.5,-200.8957"/>
<polygon fill="#ffa500" stroke="#ffa500" points="80.0001,-238.4779 83.5,-248.478 87.0001,-238.478 80.0001,-238.4779"/>
<text text-anchor="middle" x="105.5" y="-222" font-family="FreeSans.ttf" font-size="10.00" fill="#000000"> &lt; 3, 3 &gt;</text>
</g>
</g>
</svg>
