<?xml version="1.0" encoding="UTF-8" standalone="no"?>
<!DOCTYPE svg PUBLIC "-//W3C//DTD SVG 1.1//EN"
 "http://www.w3.org/Graphics/SVG/1.1/DTD/svg11.dtd">
<!-- Generated by graphviz version 2.40.1 (20161225.0304)
 -->
<!-- Title: iDynTree::MovableJointImpl&lt; nrOfPosCoords, nrOfDOFs &gt; Pages: 1 -->
<svg width="290pt" height="162pt"
 viewBox="0.00 0.00 289.50 162.00" xmlns="http://www.w3.org/2000/svg" xmlns:xlink="http://www.w3.org/1999/xlink">
<g id="graph0" class="graph" transform="scale(1 1) rotate(0) translate(4 158)">
<title>iDynTree::MovableJointImpl&lt; nrOfPosCoords, nrOfDOFs &gt;</title>
<!-- Node0 -->
<g id="node1" class="node">
<title>Node0</title>
<polygon fill="#bfbfbf" stroke="#000000" points="59.5,-67.5 59.5,-97.5 223.5,-97.5 223.5,-67.5 59.5,-67.5"/>
<text text-anchor="start" x="67.5" y="-85.5" font-family="FreeSans.ttf" font-size="10.00" fill="#000000">iDynTree::MovableJointImpl</text>
<text text-anchor="middle" x="141.5" y="-74.5" font-family="FreeSans.ttf" font-size="10.00" fill="#000000">&lt; nrOfPosCoords, nrOfDOFs &gt;</text>
</g>
<!-- Node2 -->
<g id="node3" class="node">
<title>Node2</title>
<g id="a_node3"><a xlink:href="classiDynTree_1_1PrismaticJoint.html" target="_top" xlink:title="Class representing a prismatic joint, i.e. ">
<polygon fill="none" stroke="#000000" points="0,-.5 0,-30.5 133,-30.5 133,-.5 0,-.5"/>
<text text-anchor="start" x="8" y="-18.5" font-family="FreeSans.ttf" font-size="10.00" fill="#000000">iDynTree::PrismaticJoint</text>
<text text-anchor="middle" x="66.5" y="-7.5" font-family="FreeSans.ttf" font-size="10.00" fill="#000000">&lt; 1, 1 &gt;</text>
</a>
</g>
</g>
<!-- Node0&#45;&gt;Node2 -->
<g id="edge2" class="edge">
<title>Node0&#45;&gt;Node2</title>
<path fill="none" stroke="#191970" d="M116.8692,-60.4965C105.9246,-50.7193 93.3157,-39.4554 83.4513,-30.6432"/>
<polygon fill="#191970" stroke="#191970" points="114.6919,-63.2447 124.4813,-67.2967 119.3555,-58.0243 114.6919,-63.2447"/>
</g>
<!-- Node3 -->
<g id="node4" class="node">
<title>Node3</title>
<g id="a_node4"><a xlink:href="classiDynTree_1_1RevoluteJoint.html" target="_top" xlink:title="Class representing a revolute joint, i.e. ">
<polygon fill="none" stroke="#000000" points="151.5,-.5 151.5,-30.5 281.5,-30.5 281.5,-.5 151.5,-.5"/>
<text text-anchor="start" x="159.5" y="-18.5" font-family="FreeSans.ttf" font-size="10.00" fill="#000000">iDynTree::RevoluteJoint</text>
<text text-anchor="middle" x="216.5" y="-7.5" font-family="FreeSans.ttf" font-size="10.00" fill="#000000">&lt; 1, 1 &gt;</text>
</a>
</g>
</g>
<!-- Node0&#45;&gt;Node3 -->
<g id="edge3" class="edge">
<title>Node0&#45;&gt;Node3</title>
<path fill="none" stroke="#191970" d="M166.1308,-60.4965C177.0754,-50.7193 189.6843,-39.4554 199.5487,-30.6432"/>
<polygon fill="#191970" stroke="#191970" points="163.6445,-58.0243 158.5187,-67.2967 168.3081,-63.2447 163.6445,-58.0243"/>
</g>
<!-- Node1 -->
<g id="node2" class="node">
<title>Node1</title>
<g id="a_node2"><a xlink:href="classiDynTree_1_1IJoint.html" target="_top" xlink:title="Interface (i.e. ">
<polygon fill="none" stroke="#000000" points="96.5,-134.5 96.5,-153.5 186.5,-153.5 186.5,-134.5 96.5,-134.5"/>
<text text-anchor="middle" x="141.5" y="-141.5" font-family="FreeSans.ttf" font-size="10.00" fill="#000000">iDynTree::IJoint</text>
</a>
</g>
</g>
<!-- Node1&#45;&gt;Node0 -->
<g id="edge1" class="edge">
<title>Node1&#45;&gt;Node0</title>
<path fill="none" stroke="#191970" d="M141.5,-124.3693C141.5,-115.681 141.5,-105.6241 141.5,-97.5446"/>
<polygon fill="#191970" stroke="#191970" points="138.0001,-124.3906 141.5,-134.3906 145.0001,-124.3907 138.0001,-124.3906"/>
</g>
</g>
</svg>
