<?xml version="1.0" encoding="UTF-8" standalone="no"?>
<!DOCTYPE svg PUBLIC "-//W3C//DTD SVG 1.1//EN"
 "http://www.w3.org/Graphics/SVG/1.1/DTD/svg11.dtd">
<!-- Generated by graphviz version 2.40.1 (20161225.0304)
 -->
<!-- Title: iDynTree::AngularMotionVector3Semantics Pages: 1 -->
<svg width="291pt" height="174pt"
 viewBox="0.00 0.00 290.50 174.00" xmlns="http://www.w3.org/2000/svg" xmlns:xlink="http://www.w3.org/1999/xlink">
<g id="graph0" class="graph" transform="scale(1 1) rotate(0) translate(4 170)">
<title>iDynTree::AngularMotionVector3Semantics</title>
<!-- Node3 -->
<g id="node1" class="node">
<title>Node3</title>
<polygon fill="#bfbfbf" stroke="#000000" points="12,-.5 12,-30.5 185,-30.5 185,-.5 12,-.5"/>
<text text-anchor="start" x="20" y="-18.5" font-family="FreeSans.ttf" font-size="10.00" fill="#000000">iDynTree::AngularMotionVector3</text>
<text text-anchor="middle" x="98.5" y="-7.5" font-family="FreeSans.ttf" font-size="10.00" fill="#000000">Semantics</text>
</g>
<!-- Node4 -->
<g id="node2" class="node">
<title>Node4</title>
<g id="a_node2"><a xlink:href="classiDynTree_1_1GeomVector3Semantics.html" target="_top" xlink:title="iDynTree::GeomVector3Semantics\l\&lt; AngularMotionVector3Semantics \&gt;">
<polygon fill="none" stroke="#000000" points="0,-68.5 0,-98.5 197,-98.5 197,-68.5 0,-68.5"/>
<text text-anchor="start" x="8" y="-86.5" font-family="FreeSans.ttf" font-size="10.00" fill="#000000">iDynTree::GeomVector3Semantics</text>
<text text-anchor="middle" x="98.5" y="-75.5" font-family="FreeSans.ttf" font-size="10.00" fill="#000000">&lt; AngularMotionVector3Semantics &gt;</text>
</a>
</g>
</g>
<!-- Node4&#45;&gt;Node3 -->
<g id="edge1" class="edge">
<title>Node4&#45;&gt;Node3</title>
<path fill="none" stroke="#191970" d="M98.5,-58.1174C98.5,-48.8378 98.5,-38.6413 98.5,-30.5492"/>
<polygon fill="#191970" stroke="#191970" points="95.0001,-58.4086 98.5,-68.4086 102.0001,-58.4086 95.0001,-58.4086"/>
</g>
<!-- Node5 -->
<g id="node3" class="node">
<title>Node5</title>
<g id="a_node3"><a xlink:href="classiDynTree_1_1GeomVector3Semantics.html" target="_top" xlink:title="Template class providing the semantics for any geometric relation vector. ">
<polygon fill="none" stroke="#000000" points="7.5,-146.5 7.5,-165.5 189.5,-165.5 189.5,-146.5 7.5,-146.5"/>
<text text-anchor="middle" x="98.5" y="-153.5" font-family="FreeSans.ttf" font-size="10.00" fill="#000000">iDynTree::GeomVector3Semantics</text>
</a>
</g>
</g>
<!-- Node5&#45;&gt;Node4 -->
<g id="edge2" class="edge">
<title>Node5&#45;&gt;Node4</title>
<path fill="none" stroke="#ffa500" stroke-dasharray="5,2" d="M98.5,-136.0177C98.5,-124.2164 98.5,-109.513 98.5,-98.668"/>
<polygon fill="#ffa500" stroke="#ffa500" points="95.0001,-136.2223 98.5,-146.2223 102.0001,-136.2224 95.0001,-136.2223"/>
<text text-anchor="middle" x="190.5" y="-120" font-family="FreeSans.ttf" font-size="10.00" fill="#000000"> &lt; AngularMotionVector3Semantics &gt;</text>
</g>
</g>
</svg>
