<?xml version="1.0" encoding="UTF-8" standalone="no"?>
<!DOCTYPE svg PUBLIC "-//W3C//DTD SVG 1.1//EN"
 "http://www.w3.org/Graphics/SVG/1.1/DTD/svg11.dtd">
<!-- Generated by graphviz version 2.40.1 (20161225.0304)
 -->
<!-- Title: iDynTree::MotionVector3 Pages: 1 -->
<svg width="1158pt" height="88pt"
 viewBox="0.00 0.00 1158.00 88.00" xmlns="http://www.w3.org/2000/svg" xmlns:xlink="http://www.w3.org/1999/xlink">
<g id="graph0" class="graph" transform="scale(1 1) rotate(0) translate(4 84)">
<title>iDynTree::MotionVector3</title>
<!-- Node0 -->
<g id="node1" class="node">
<title>Node0</title>
<polygon fill="#bfbfbf" stroke="#000000" points="490,-30 490,-49 625,-49 625,-30 490,-30"/>
<text text-anchor="middle" x="557.5" y="-37" font-family="FreeSans.ttf" font-size="10.00" fill="#000000">iDynTree::MotionVector3</text>
</g>
<!-- Node4 -->
<g id="node5" class="node">
<title>Node4</title>
<g id="a_node5"><a xlink:href="classiDynTree_1_1MotionVector3.html" target="_top" xlink:title="iDynTree::MotionVector3\l\&lt; LinearMotionVector3 \&gt;">
<polygon fill="none" stroke="#000000" points="797.5,-49.5 797.5,-79.5 936.5,-79.5 936.5,-49.5 797.5,-49.5"/>
<text text-anchor="start" x="805.5" y="-67.5" font-family="FreeSans.ttf" font-size="10.00" fill="#000000">iDynTree::MotionVector3</text>
<text text-anchor="middle" x="867" y="-56.5" font-family="FreeSans.ttf" font-size="10.00" fill="#000000">&lt; LinearMotionVector3 &gt;</text>
</a>
</g>
</g>
<!-- Node0&#45;&gt;Node4 -->
<g id="edge4" class="edge">
<title>Node0&#45;&gt;Node4</title>
<path fill="none" stroke="#ffa500" stroke-dasharray="5,2" d="M635.1335,-45.7709C685.0135,-49.8 749.2531,-54.9889 797.4616,-58.883"/>
<polygon fill="#ffa500" stroke="#ffa500" points="635.288,-42.272 625.0386,-44.9555 634.7243,-49.2493 635.288,-42.272"/>
<text text-anchor="middle" x="709.5" y="-59.5" font-family="FreeSans.ttf" font-size="10.00" fill="#000000"> &lt; LinearMotionVector3 &gt;</text>
</g>
<!-- Node6 -->
<g id="node7" class="node">
<title>Node6</title>
<g id="a_node7"><a xlink:href="classiDynTree_1_1MotionVector3.html" target="_top" xlink:title="iDynTree::MotionVector3\l\&lt; AngularMotionVector3 \&gt;">
<polygon fill="none" stroke="#000000" points="794,-.5 794,-30.5 940,-30.5 940,-.5 794,-.5"/>
<text text-anchor="start" x="802" y="-18.5" font-family="FreeSans.ttf" font-size="10.00" fill="#000000">iDynTree::MotionVector3</text>
<text text-anchor="middle" x="867" y="-7.5" font-family="FreeSans.ttf" font-size="10.00" fill="#000000">&lt; AngularMotionVector3 &gt;</text>
</a>
</g>
</g>
<!-- Node0&#45;&gt;Node6 -->
<g id="edge6" class="edge">
<title>Node0&#45;&gt;Node6</title>
<path fill="none" stroke="#ffa500" stroke-dasharray="5,2" d="M631.0243,-28.7685C635.0714,-28.3065 639.0836,-27.879 643,-27.5 693.2957,-22.6324 750.1498,-19.6163 793.9941,-17.8254"/>
<polygon fill="#ffa500" stroke="#ffa500" points="630.4385,-25.3136 620.9267,-29.98 631.2725,-32.2637 630.4385,-25.3136"/>
<text text-anchor="middle" x="709.5" y="-30.5" font-family="FreeSans.ttf" font-size="10.00" fill="#000000"> &lt; AngularMotionVector3 &gt;</text>
</g>
<!-- Node1 -->
<g id="node2" class="node">
<title>Node1</title>
<g id="a_node2"><a xlink:href="classiDynTree_1_1GeomVector3.html" target="_top" xlink:title="iDynTree::GeomVector3\l\&lt; MotionT \&gt;">
<polygon fill="none" stroke="#000000" points="322,-24.5 322,-54.5 453,-54.5 453,-24.5 322,-24.5"/>
<text text-anchor="start" x="330" y="-42.5" font-family="FreeSans.ttf" font-size="10.00" fill="#000000">iDynTree::GeomVector3</text>
<text text-anchor="middle" x="387.5" y="-31.5" font-family="FreeSans.ttf" font-size="10.00" fill="#000000">&lt; MotionT &gt;</text>
</a>
</g>
</g>
<!-- Node1&#45;&gt;Node0 -->
<g id="edge1" class="edge">
<title>Node1&#45;&gt;Node0</title>
<path fill="none" stroke="#191970" d="M463.5025,-39.5C472.327,-39.5 481.2824,-39.5 489.9824,-39.5"/>
<polygon fill="#191970" stroke="#191970" points="463.2265,-36.0001 453.2264,-39.5 463.2264,-43.0001 463.2265,-36.0001"/>
</g>
<!-- Node2 -->
<g id="node3" class="node">
<title>Node2</title>
<g id="a_node3"><a xlink:href="classiDynTree_1_1GeomVector3.html" target="_top" xlink:title="Template class providing the raw coordinates and semantics for any geometric relation vector...">
<polygon fill="none" stroke="#000000" points="90,-30 90,-49 221,-49 221,-30 90,-30"/>
<text text-anchor="middle" x="155.5" y="-37" font-family="FreeSans.ttf" font-size="10.00" fill="#000000">iDynTree::GeomVector3</text>
</a>
</g>
</g>
<!-- Node2&#45;&gt;Node1 -->
<g id="edge2" class="edge">
<title>Node2&#45;&gt;Node1</title>
<path fill="none" stroke="#ffa500" stroke-dasharray="5,2" d="M231.206,-39.5C260.4135,-39.5 293.5128,-39.5 321.7083,-39.5"/>
<polygon fill="#ffa500" stroke="#ffa500" points="231.0517,-36.0001 221.0516,-39.5 231.0516,-43.0001 231.0517,-36.0001"/>
<text text-anchor="middle" x="271.5" y="-42.5" font-family="FreeSans.ttf" font-size="10.00" fill="#000000"> &lt; MotionT &gt;</text>
</g>
<!-- Node3 -->
<g id="node4" class="node">
<title>Node3</title>
<g id="a_node4"><a xlink:href="classiDynTree_1_1VectorFixSize.html" target="_top" xlink:title="Class providing a simple vector of N elements. ">
<polygon fill="none" stroke="#000000" points="0,-30 0,-49 53,-49 53,-30 0,-30"/>
<text text-anchor="middle" x="26.5" y="-37" font-family="FreeSans.ttf" font-size="10.00" fill="#000000">Vector3</text>
</a>
</g>
</g>
<!-- Node3&#45;&gt;Node2 -->
<g id="edge3" class="edge">
<title>Node3&#45;&gt;Node2</title>
<path fill="none" stroke="#191970" d="M63.3438,-39.5C71.6951,-39.5 80.8094,-39.5 89.9519,-39.5"/>
<polygon fill="#191970" stroke="#191970" points="63.2289,-36.0001 53.2289,-39.5 63.2288,-43.0001 63.2289,-36.0001"/>
</g>
<!-- Node5 -->
<g id="node6" class="node">
<title>Node5</title>
<g id="a_node6"><a xlink:href="classiDynTree_1_1LinearMotionVector3.html" target="_top" xlink:title="Class providing the raw coordinates and semantics for any linear motion vector. ">
<polygon fill="none" stroke="#000000" points="981,-55 981,-74 1146,-74 1146,-55 981,-55"/>
<text text-anchor="middle" x="1063.5" y="-62" font-family="FreeSans.ttf" font-size="10.00" fill="#000000">iDynTree::LinearMotionVector3</text>
</a>
</g>
</g>
<!-- Node4&#45;&gt;Node5 -->
<g id="edge5" class="edge">
<title>Node4&#45;&gt;Node5</title>
<path fill="none" stroke="#191970" d="M946.7765,-64.5C958.0285,-64.5 969.6159,-64.5 980.9193,-64.5"/>
<polygon fill="#191970" stroke="#191970" points="946.5551,-61.0001 936.5551,-64.5 946.555,-68.0001 946.5551,-61.0001"/>
</g>
<!-- Node7 -->
<g id="node8" class="node">
<title>Node7</title>
<g id="a_node8"><a xlink:href="classiDynTree_1_1AngularMotionVector3.html" target="_top" xlink:title="Class providing the raw coordinates and semantics for any angular motion vector. ">
<polygon fill="none" stroke="#000000" points="977,-6 977,-25 1150,-25 1150,-6 977,-6"/>
<text text-anchor="middle" x="1063.5" y="-13" font-family="FreeSans.ttf" font-size="10.00" fill="#000000">iDynTree::AngularMotionVector3</text>
</a>
</g>
</g>
<!-- Node6&#45;&gt;Node7 -->
<g id="edge7" class="edge">
<title>Node6&#45;&gt;Node7</title>
<path fill="none" stroke="#191970" d="M950.4063,-15.5C959.2051,-15.5 968.1666,-15.5 976.9995,-15.5"/>
<polygon fill="#191970" stroke="#191970" points="950.1694,-12.0001 940.1693,-15.5 950.1693,-19.0001 950.1694,-12.0001"/>
</g>
</g>
</svg>
