<?xml version="1.0" encoding="UTF-8" standalone="no"?>
<!DOCTYPE svg PUBLIC "-//W3C//DTD SVG 1.1//EN"
 "http://www.w3.org/Graphics/SVG/1.1/DTD/svg11.dtd">
<!-- Generated by graphviz version 2.40.1 (20161225.0304)
 -->
<!-- Title: iDynTree::optimalcontrol::LinearConstraint Pages: 1 -->
<svg width="153pt" height="185pt"
 viewBox="0.00 0.00 152.50 185.00" xmlns="http://www.w3.org/2000/svg" xmlns:xlink="http://www.w3.org/1999/xlink">
<g id="graph0" class="graph" transform="scale(1 1) rotate(0) translate(4 181)">
<title>iDynTree::optimalcontrol::LinearConstraint</title>
<!-- Node2 -->
<g id="node1" class="node">
<title>Node2</title>
<polygon fill="#bfbfbf" stroke="#000000" points="0,-.5 0,-30.5 137,-30.5 137,-.5 0,-.5"/>
<text text-anchor="start" x="8" y="-18.5" font-family="FreeSans.ttf" font-size="10.00" fill="#000000">iDynTree::optimalcontrol</text>
<text text-anchor="middle" x="68.5" y="-7.5" font-family="FreeSans.ttf" font-size="10.00" fill="#000000">::LinearConstraint</text>
</g>
<!-- Node3 -->
<g id="node2" class="node">
<title>Node3</title>
<g id="a_node2"><a xlink:href="classiDynTree_1_1optimalcontrol_1_1Constraint.html" target="_top" xlink:title="The Constraint virtual class definition. ">
<polygon fill="none" stroke="#000000" points="0,-68.5 0,-98.5 137,-98.5 137,-68.5 0,-68.5"/>
<text text-anchor="start" x="8" y="-86.5" font-family="FreeSans.ttf" font-size="10.00" fill="#000000">iDynTree::optimalcontrol</text>
<text text-anchor="middle" x="68.5" y="-75.5" font-family="FreeSans.ttf" font-size="10.00" fill="#000000">::Constraint</text>
</a>
</g>
</g>
<!-- Node3&#45;&gt;Node2 -->
<g id="edge1" class="edge">
<title>Node3&#45;&gt;Node2</title>
<path fill="none" stroke="#191970" d="M68.5,-58.1174C68.5,-48.8378 68.5,-38.6413 68.5,-30.5492"/>
<polygon fill="#191970" stroke="#191970" points="65.0001,-58.4086 68.5,-68.4086 72.0001,-58.4086 65.0001,-58.4086"/>
</g>
<!-- Node4 -->
<g id="node3" class="node">
<title>Node4</title>
<g id="a_node3"><a xlink:href="classiDynTree_1_1VectorDynSize.html" target="_top" xlink:title="Class providing a simple form of vector with dynamic size. ">
<polygon fill="none" stroke="#000000" points=".5,-157.5 .5,-176.5 136.5,-176.5 136.5,-157.5 .5,-157.5"/>
<text text-anchor="middle" x="68.5" y="-164.5" font-family="FreeSans.ttf" font-size="10.00" fill="#000000">iDynTree::VectorDynSize</text>
</a>
</g>
</g>
<!-- Node4&#45;&gt;Node3 -->
<g id="edge2" class="edge">
<title>Node4&#45;&gt;Node3</title>
<path fill="none" stroke="#9a32cd" stroke-dasharray="5,2" d="M68.5,-147.2427C68.5,-132.345 68.5,-112.2186 68.5,-98.597"/>
<polygon fill="#9a32cd" stroke="#9a32cd" points="65.0001,-147.4215 68.5,-157.4215 72.0001,-147.4215 65.0001,-147.4215"/>
<text text-anchor="middle" x="106.5" y="-131" font-family="FreeSans.ttf" font-size="10.00" fill="#000000"> m_lowerBound</text>
<text text-anchor="middle" x="106.5" y="-120" font-family="FreeSans.ttf" font-size="10.00" fill="#000000">m_upperBound</text>
</g>
</g>
</svg>
