<?xml version="1.0" encoding="UTF-8" standalone="no"?>
<!DOCTYPE svg PUBLIC "-//W3C//DTD SVG 1.1//EN"
 "http://www.w3.org/Graphics/SVG/1.1/DTD/svg11.dtd">
<!-- Generated by graphviz version 2.40.1 (20161225.0304)
 -->
<!-- Title: iDynTree::optimalcontrol::LinearCost Pages: 1 -->
<svg width="145pt" height="173pt"
 viewBox="0.00 0.00 145.00 173.00" xmlns="http://www.w3.org/2000/svg" xmlns:xlink="http://www.w3.org/1999/xlink">
<g id="graph0" class="graph" transform="scale(1 1) rotate(0) translate(4 169)">
<title>iDynTree::optimalcontrol::LinearCost</title>
<!-- Node0 -->
<g id="node1" class="node">
<title>Node0</title>
<polygon fill="#bfbfbf" stroke="#000000" points="0,-.5 0,-30.5 137,-30.5 137,-.5 0,-.5"/>
<text text-anchor="start" x="8" y="-18.5" font-family="FreeSans.ttf" font-size="10.00" fill="#000000">iDynTree::optimalcontrol</text>
<text text-anchor="middle" x="68.5" y="-7.5" font-family="FreeSans.ttf" font-size="10.00" fill="#000000">::LinearCost</text>
</g>
<!-- Node1 -->
<g id="node2" class="node">
<title>Node1</title>
<g id="a_node2"><a xlink:href="classiDynTree_1_1optimalcontrol_1_1QuadraticLikeCost.html" target="_top" xlink:title="iDynTree::optimalcontrol\l::QuadraticLikeCost">
<polygon fill="none" stroke="#000000" points="0,-67.5 0,-97.5 137,-97.5 137,-67.5 0,-67.5"/>
<text text-anchor="start" x="8" y="-85.5" font-family="FreeSans.ttf" font-size="10.00" fill="#000000">iDynTree::optimalcontrol</text>
<text text-anchor="middle" x="68.5" y="-74.5" font-family="FreeSans.ttf" font-size="10.00" fill="#000000">::QuadraticLikeCost</text>
</a>
</g>
</g>
<!-- Node1&#45;&gt;Node0 -->
<g id="edge1" class="edge">
<title>Node1&#45;&gt;Node0</title>
<path fill="none" stroke="#191970" d="M68.5,-57.0249C68.5,-48.128 68.5,-38.4287 68.5,-30.6432"/>
<polygon fill="#191970" stroke="#191970" points="65.0001,-57.2966 68.5,-67.2967 72.0001,-57.2967 65.0001,-57.2966"/>
</g>
<!-- Node2 -->
<g id="node3" class="node">
<title>Node2</title>
<g id="a_node3"><a xlink:href="classiDynTree_1_1optimalcontrol_1_1Cost.html" target="_top" xlink:title="The Cost virtual class definition. ">
<polygon fill="none" stroke="#000000" points="0,-134.5 0,-164.5 137,-164.5 137,-134.5 0,-134.5"/>
<text text-anchor="start" x="8" y="-152.5" font-family="FreeSans.ttf" font-size="10.00" fill="#000000">iDynTree::optimalcontrol</text>
<text text-anchor="middle" x="68.5" y="-141.5" font-family="FreeSans.ttf" font-size="10.00" fill="#000000">::Cost</text>
</a>
</g>
</g>
<!-- Node2&#45;&gt;Node1 -->
<g id="edge2" class="edge">
<title>Node2&#45;&gt;Node1</title>
<path fill="none" stroke="#191970" d="M68.5,-124.0249C68.5,-115.128 68.5,-105.4287 68.5,-97.6432"/>
<polygon fill="#191970" stroke="#191970" points="65.0001,-124.2966 68.5,-134.2967 72.0001,-124.2967 65.0001,-124.2966"/>
</g>
</g>
</svg>
