<?xml version="1.0" encoding="UTF-8" standalone="no"?>
<!DOCTYPE svg PUBLIC "-//W3C//DTD SVG 1.1//EN"
 "http://www.w3.org/Graphics/SVG/1.1/DTD/svg11.dtd">
<!-- Generated by graphviz version 2.40.1 (20161225.0304)
 -->
<!-- Title: iDynTree::optimalcontrol::integrators::FixedStepIntegrator Pages: 1 -->
<svg width="568pt" height="137pt"
 viewBox="0.00 0.00 568.00 137.00" xmlns="http://www.w3.org/2000/svg" xmlns:xlink="http://www.w3.org/1999/xlink">
<g id="graph0" class="graph" transform="scale(1 1) rotate(0) translate(4 133)">
<title>iDynTree::optimalcontrol::integrators::FixedStepIntegrator</title>
<!-- Node0 -->
<g id="node1" class="node">
<title>Node0</title>
<polygon fill="#bfbfbf" stroke="#000000" points="173,-49.5 173,-79.5 350,-79.5 350,-49.5 173,-49.5"/>
<text text-anchor="start" x="181" y="-67.5" font-family="FreeSans.ttf" font-size="10.00" fill="#000000">iDynTree::optimalcontrol</text>
<text text-anchor="middle" x="261.5" y="-56.5" font-family="FreeSans.ttf" font-size="10.00" fill="#000000">::integrators::FixedStepIntegrator</text>
</g>
<!-- Node2 -->
<g id="node3" class="node">
<title>Node2</title>
<g id="a_node3"><a xlink:href="classiDynTree_1_1optimalcontrol_1_1integrators_1_1ForwardEuler.html" target="_top" xlink:title="iDynTree::optimalcontrol\l::integrators::ForwardEuler">
<polygon fill="none" stroke="#000000" points="400,-98.5 400,-128.5 546,-128.5 546,-98.5 400,-98.5"/>
<text text-anchor="start" x="408" y="-116.5" font-family="FreeSans.ttf" font-size="10.00" fill="#000000">iDynTree::optimalcontrol</text>
<text text-anchor="middle" x="473" y="-105.5" font-family="FreeSans.ttf" font-size="10.00" fill="#000000">::integrators::ForwardEuler</text>
</a>
</g>
</g>
<!-- Node0&#45;&gt;Node2 -->
<g id="edge2" class="edge">
<title>Node0&#45;&gt;Node2</title>
<path fill="none" stroke="#191970" d="M336.306,-81.8309C359.7878,-87.2712 385.5017,-93.2285 408.2284,-98.4938"/>
<polygon fill="#191970" stroke="#191970" points="336.9263,-78.382 326.3943,-79.5346 335.3463,-85.2014 336.9263,-78.382"/>
</g>
<!-- Node3 -->
<g id="node4" class="node">
<title>Node3</title>
<g id="a_node4"><a xlink:href="classiDynTree_1_1optimalcontrol_1_1integrators_1_1ImplicitTrapezoidal.html" target="_top" xlink:title="iDynTree::optimalcontrol\l::integrators::ImplicitTrapezoidal">
<polygon fill="none" stroke="#000000" points="386,-49.5 386,-79.5 560,-79.5 560,-49.5 386,-49.5"/>
<text text-anchor="start" x="394" y="-67.5" font-family="FreeSans.ttf" font-size="10.00" fill="#000000">iDynTree::optimalcontrol</text>
<text text-anchor="middle" x="473" y="-56.5" font-family="FreeSans.ttf" font-size="10.00" fill="#000000">::integrators::ImplicitTrapezoidal</text>
</a>
</g>
</g>
<!-- Node0&#45;&gt;Node3 -->
<g id="edge3" class="edge">
<title>Node0&#45;&gt;Node3</title>
<path fill="none" stroke="#191970" d="M360.5285,-64.5C368.9692,-64.5 377.4672,-64.5 385.8063,-64.5"/>
<polygon fill="#191970" stroke="#191970" points="360.2758,-61.0001 350.2757,-64.5 360.2757,-68.0001 360.2758,-61.0001"/>
</g>
<!-- Node4 -->
<g id="node5" class="node">
<title>Node4</title>
<g id="a_node5"><a xlink:href="classiDynTree_1_1optimalcontrol_1_1integrators_1_1RK4.html" target="_top" xlink:title="iDynTree::optimalcontrol\l::integrators::RK4">
<polygon fill="none" stroke="#000000" points="404.5,-.5 404.5,-30.5 541.5,-30.5 541.5,-.5 404.5,-.5"/>
<text text-anchor="start" x="412.5" y="-18.5" font-family="FreeSans.ttf" font-size="10.00" fill="#000000">iDynTree::optimalcontrol</text>
<text text-anchor="middle" x="473" y="-7.5" font-family="FreeSans.ttf" font-size="10.00" fill="#000000">::integrators::RK4</text>
</a>
</g>
</g>
<!-- Node0&#45;&gt;Node4 -->
<g id="edge4" class="edge">
<title>Node0&#45;&gt;Node4</title>
<path fill="none" stroke="#191970" d="M336.306,-47.1691C359.7878,-41.7288 385.5017,-35.7715 408.2284,-30.5062"/>
<polygon fill="#191970" stroke="#191970" points="335.3463,-43.7986 326.3943,-49.4654 336.9263,-50.618 335.3463,-43.7986"/>
</g>
<!-- Node1 -->
<g id="node2" class="node">
<title>Node1</title>
<g id="a_node2"><a xlink:href="classiDynTree_1_1optimalcontrol_1_1integrators_1_1Integrator.html" target="_top" xlink:title="The Integrator base class. ">
<polygon fill="none" stroke="#000000" points="0,-49.5 0,-79.5 137,-79.5 137,-49.5 0,-49.5"/>
<text text-anchor="start" x="8" y="-67.5" font-family="FreeSans.ttf" font-size="10.00" fill="#000000">iDynTree::optimalcontrol</text>
<text text-anchor="middle" x="68.5" y="-56.5" font-family="FreeSans.ttf" font-size="10.00" fill="#000000">::integrators::Integrator</text>
</a>
</g>
</g>
<!-- Node1&#45;&gt;Node0 -->
<g id="edge1" class="edge">
<title>Node1&#45;&gt;Node0</title>
<path fill="none" stroke="#191970" d="M147.2707,-64.5C155.7097,-64.5 164.3361,-64.5 172.8795,-64.5"/>
<polygon fill="#191970" stroke="#191970" points="147.088,-61.0001 137.088,-64.5 147.088,-68.0001 147.088,-61.0001"/>
</g>
</g>
</svg>
