<?xml version="1.0" encoding="UTF-8" standalone="no"?>
<!DOCTYPE svg PUBLIC "-//W3C//DTD SVG 1.1//EN"
 "http://www.w3.org/Graphics/SVG/1.1/DTD/svg11.dtd">
<!-- Generated by graphviz version 2.40.1 (20161225.0304)
 -->
<!-- Title: ObserverThread Pages: 1 -->
<svg width="1177pt" height="252pt"
 viewBox="0.00 0.00 1177.00 251.78" xmlns="http://www.w3.org/2000/svg" xmlns:xlink="http://www.w3.org/1999/xlink">
<g id="graph0" class="graph" transform="scale(1 1) rotate(0) translate(4 247.776)">
<title>ObserverThread</title>
<!-- Node2 -->
<g id="node1" class="node">
<title>Node2</title>
<polygon fill="#bfbfbf" stroke="#000000" points="1074,-148.276 1074,-167.276 1169,-167.276 1169,-148.276 1074,-148.276"/>
<text text-anchor="middle" x="1121.5" y="-155.276" font-family="FreeSans.ttf" font-size="10.00" fill="#000000">ObserverThread</text>
</g>
<!-- Node3 -->
<g id="node2" class="node">
<title>Node3</title>
<polygon fill="none" stroke="#bfbfbf" points="728.5,-224.276 728.5,-243.276 846.5,-243.276 846.5,-224.276 728.5,-224.276"/>
<text text-anchor="middle" x="787.5" y="-231.276" font-family="FreeSans.ttf" font-size="10.00" fill="#000000">yarp::os::RateThread</text>
</g>
<!-- Node3&#45;&gt;Node2 -->
<g id="edge1" class="edge">
<title>Node3&#45;&gt;Node2</title>
<path fill="none" stroke="#191970" d="M856.6887,-235.8647C912.2886,-235.3144 991.4738,-229.433 1056,-204.776 1077.9646,-196.3828 1099.3091,-178.7645 1111.3881,-167.6436"/>
<polygon fill="#191970" stroke="#191970" points="856.5749,-232.3651 846.5903,-235.9087 856.6055,-239.365 856.5749,-232.3651"/>
</g>
<!-- Node4 -->
<g id="node3" class="node">
<title>Node4</title>
<g id="a_node3"><a xlink:href="classiDynTree_1_1KinDynComputations.html" target="_top" xlink:title="High level stateful class wrapping several kinematics and dynamics algorithms. ">
<polygon fill="none" stroke="#000000" points="703,-186.276 703,-205.276 872,-205.276 872,-186.276 703,-186.276"/>
<text text-anchor="middle" x="787.5" y="-193.276" font-family="FreeSans.ttf" font-size="10.00" fill="#000000">iDynTree::KinDynComputations</text>
</a>
</g>
</g>
<!-- Node4&#45;&gt;Node2 -->
<g id="edge2" class="edge">
<title>Node4&#45;&gt;Node2</title>
<path fill="none" stroke="#9a32cd" stroke-dasharray="5,2" d="M882.345,-190.8925C933.9143,-187.4239 998.6915,-181.7476 1056,-172.776 1065.1052,-171.3506 1074.8283,-169.3765 1083.9209,-167.328"/>
<polygon fill="#9a32cd" stroke="#9a32cd" points="881.9628,-187.41 872.2134,-191.5571 882.4211,-194.395 881.9628,-187.41"/>
<text text-anchor="middle" x="973" y="-192.776" font-family="FreeSans.ttf" font-size="10.00" fill="#000000"> m_kinDyn</text>
</g>
<!-- Node5 -->
<g id="node4" class="node">
<title>Node5</title>
<g id="a_node4"><a xlink:href="classiDynTree_1_1Transform.html" target="_top" xlink:title="Class representation the relative displacement between two different frames. ">
<polygon fill="none" stroke="#000000" points="730.5,-148.276 730.5,-167.276 844.5,-167.276 844.5,-148.276 730.5,-148.276"/>
<text text-anchor="middle" x="787.5" y="-155.276" font-family="FreeSans.ttf" font-size="10.00" fill="#000000">iDynTree::Transform</text>
</a>
</g>
</g>
<!-- Node5&#45;&gt;Node2 -->
<g id="edge3" class="edge">
<title>Node5&#45;&gt;Node2</title>
<path fill="none" stroke="#9a32cd" stroke-dasharray="5,2" d="M854.6818,-157.776C919.6626,-157.776 1016.4937,-157.776 1073.8906,-157.776"/>
<polygon fill="#9a32cd" stroke="#9a32cd" points="854.5372,-154.2761 844.5371,-157.776 854.5371,-161.2761 854.5372,-154.2761"/>
<text text-anchor="middle" x="973" y="-160.776" font-family="FreeSans.ttf" font-size="10.00" fill="#000000"> m_primarySole_X_secondarySole</text>
</g>
<!-- Node6 -->
<g id="node5" class="node">
<title>Node6</title>
<g id="a_node5"><a xlink:href="classiDynTree_1_1Rotation.html" target="_top" xlink:title="Class representation the rotation of an orientation frame with respect to a reference orientation fra...">
<polygon fill="none" stroke="#000000" points="434.5,-180.276 434.5,-199.276 540.5,-199.276 540.5,-180.276 434.5,-180.276"/>
<text text-anchor="middle" x="487.5" y="-187.276" font-family="FreeSans.ttf" font-size="10.00" fill="#000000">iDynTree::Rotation</text>
</a>
</g>
</g>
<!-- Node6&#45;&gt;Node5 -->
<g id="edge4" class="edge">
<title>Node6&#45;&gt;Node5</title>
<path fill="none" stroke="#9a32cd" stroke-dasharray="5,2" d="M550.768,-183.0274C603.8708,-177.3631 679.0664,-169.3422 730.3679,-163.8701"/>
<polygon fill="#9a32cd" stroke="#9a32cd" points="550.3606,-179.5509 540.7883,-184.0919 551.1031,-186.5114 550.3606,-179.5509"/>
<text text-anchor="middle" x="636.5" y="-180.776" font-family="FreeSans.ttf" font-size="10.00" fill="#000000"> rot</text>
</g>
<!-- Node7 -->
<g id="node6" class="node">
<title>Node7</title>
<g id="a_node6"><a xlink:href="classiDynTree_1_1RotationRaw.html" target="_top" xlink:title="Class providing the raw coordinates for iDynTree::Rotation class. ">
<polygon fill="none" stroke="#000000" points="117,-180.276 117,-199.276 244,-199.276 244,-180.276 117,-180.276"/>
<text text-anchor="middle" x="180.5" y="-187.276" font-family="FreeSans.ttf" font-size="10.00" fill="#000000">iDynTree::RotationRaw</text>
</a>
</g>
</g>
<!-- Node7&#45;&gt;Node6 -->
<g id="edge5" class="edge">
<title>Node7&#45;&gt;Node6</title>
<path fill="none" stroke="#191970" d="M254.2347,-189.776C309.7102,-189.776 384.4331,-189.776 434.2,-189.776"/>
<polygon fill="#191970" stroke="#191970" points="254.1106,-186.2761 244.1106,-189.776 254.1106,-193.2761 254.1106,-186.2761"/>
</g>
<!-- Node8 -->
<g id="node7" class="node">
<title>Node8</title>
<g id="a_node7"><a xlink:href="classiDynTree_1_1MatrixFixSize.html" target="_top" xlink:title="Class providing a simple form of matrix with dynamic size. ">
<polygon fill="none" stroke="#000000" points="0,-180.276 0,-199.276 65,-199.276 65,-180.276 0,-180.276"/>
<text text-anchor="middle" x="32.5" y="-187.276" font-family="FreeSans.ttf" font-size="10.00" fill="#000000">Matrix3x3</text>
</a>
</g>
</g>
<!-- Node8&#45;&gt;Node7 -->
<g id="edge6" class="edge">
<title>Node8&#45;&gt;Node7</title>
<path fill="none" stroke="#191970" d="M75.3502,-189.776C88.2889,-189.776 102.7819,-189.776 116.775,-189.776"/>
<polygon fill="#191970" stroke="#191970" points="75.346,-186.2761 65.346,-189.776 75.346,-193.2761 75.346,-186.2761"/>
</g>
<!-- Node9 -->
<g id="node8" class="node">
<title>Node9</title>
<g id="a_node8"><a xlink:href="classiDynTree_1_1Position.html" target="_top" xlink:title="Class representation the coordinates of the Position of a point with respect to another point...">
<polygon fill="none" stroke="#000000" points="435.5,-65.276 435.5,-84.276 539.5,-84.276 539.5,-65.276 435.5,-65.276"/>
<text text-anchor="middle" x="487.5" y="-72.276" font-family="FreeSans.ttf" font-size="10.00" fill="#000000">iDynTree::Position</text>
</a>
</g>
</g>
<!-- Node9&#45;&gt;Node2 -->
<g id="edge13" class="edge">
<title>Node9&#45;&gt;Node2</title>
<path fill="none" stroke="#9a32cd" stroke-dasharray="5,2" d="M549.9089,-71.2021C626.3501,-67.9784 759.5465,-66.105 872,-83.776 956.8033,-97.102 1053.1619,-131.4095 1097.2101,-148.2136"/>
<polygon fill="#9a32cd" stroke="#9a32cd" points="549.3423,-67.7237 539.5075,-71.664 549.6529,-74.7168 549.3423,-67.7237"/>
<text text-anchor="middle" x="787.5" y="-130.776" font-family="FreeSans.ttf" font-size="10.00" fill="#000000"> m_totalCopInPrimarySole</text>
<text text-anchor="middle" x="787.5" y="-119.776" font-family="FreeSans.ttf" font-size="10.00" fill="#000000">m_secondaryCopInPrimarySole</text>
<text text-anchor="middle" x="787.5" y="-108.776" font-family="FreeSans.ttf" font-size="10.00" fill="#000000">m_desiredComInPrimarySole</text>
<text text-anchor="middle" x="787.5" y="-97.776" font-family="FreeSans.ttf" font-size="10.00" fill="#000000">m_primaryCopInPrimarySole</text>
<text text-anchor="middle" x="787.5" y="-86.776" font-family="FreeSans.ttf" font-size="10.00" fill="#000000">m_comInPrimarySole</text>
</g>
<!-- Node9&#45;&gt;Node5 -->
<g id="edge7" class="edge">
<title>Node9&#45;&gt;Node5</title>
<path fill="none" stroke="#9a32cd" stroke-dasharray="5,2" d="M531.8835,-87.0554C592.1042,-103.7165 698.4304,-133.1334 753.0267,-148.2384"/>
<polygon fill="#9a32cd" stroke="#9a32cd" points="532.4851,-83.5904 521.9138,-84.2971 530.6185,-90.337 532.4851,-83.5904"/>
<text text-anchor="middle" x="636.5" y="-130.776" font-family="FreeSans.ttf" font-size="10.00" fill="#000000"> pos</text>
</g>
<!-- Node10 -->
<g id="node9" class="node">
<title>Node10</title>
<g id="a_node9"><a xlink:href="classiDynTree_1_1PositionRaw.html" target="_top" xlink:title="Class providing the raw coordinates for iDynTree::Position class. ">
<polygon fill="none" stroke="#000000" points="118,-64.276 118,-83.276 243,-83.276 243,-64.276 118,-64.276"/>
<text text-anchor="middle" x="180.5" y="-71.276" font-family="FreeSans.ttf" font-size="10.00" fill="#000000">iDynTree::PositionRaw</text>
</a>
</g>
</g>
<!-- Node10&#45;&gt;Node9 -->
<g id="edge8" class="edge">
<title>Node10&#45;&gt;Node9</title>
<path fill="none" stroke="#191970" d="M253.5803,-74.014C309.5764,-74.1964 385.4693,-74.4436 435.423,-74.6064"/>
<polygon fill="#191970" stroke="#191970" points="253.3782,-70.5135 243.3668,-73.9808 253.3554,-77.5134 253.3782,-70.5135"/>
</g>
<!-- Node11 -->
<g id="node10" class="node">
<title>Node11</title>
<g id="a_node10"><a xlink:href="classiDynTree_1_1VectorFixSize.html" target="_top" xlink:title="Class providing a simple vector of N elements. ">
<polygon fill="none" stroke="#000000" points="6,-42.276 6,-61.276 59,-61.276 59,-42.276 6,-42.276"/>
<text text-anchor="middle" x="32.5" y="-49.276" font-family="FreeSans.ttf" font-size="10.00" fill="#000000">Vector3</text>
</a>
</g>
</g>
<!-- Node11&#45;&gt;Node10 -->
<g id="edge9" class="edge">
<title>Node11&#45;&gt;Node10</title>
<path fill="none" stroke="#191970" d="M69.4766,-57.2725C84.152,-59.454 101.4444,-62.0245 117.9567,-64.479"/>
<polygon fill="#191970" stroke="#191970" points="69.7076,-53.7685 59.3017,-55.76 68.6784,-60.6924 69.7076,-53.7685"/>
</g>
<!-- Node15 -->
<g id="node14" class="node">
<title>Node15</title>
<g id="a_node14"><a xlink:href="classiDynTree_1_1Direction.html" target="_top" xlink:title="Class representing the coordinates of a direction in the 3D space. ">
<polygon fill="none" stroke="#000000" points="277,-20.276 277,-39.276 387,-39.276 387,-20.276 277,-20.276"/>
<text text-anchor="middle" x="332" y="-27.276" font-family="FreeSans.ttf" font-size="10.00" fill="#000000">iDynTree::Direction</text>
</a>
</g>
</g>
<!-- Node11&#45;&gt;Node15 -->
<g id="edge15" class="edge">
<title>Node11&#45;&gt;Node15</title>
<path fill="none" stroke="#191970" d="M69.1591,-49.0832C121.0439,-45.2719 216.3009,-38.2748 276.7726,-33.8328"/>
<polygon fill="#191970" stroke="#191970" points="68.7953,-45.6004 59.0786,-49.8236 69.3082,-52.5816 68.7953,-45.6004"/>
</g>
<!-- Node12 -->
<g id="node11" class="node">
<title>Node12</title>
<g id="a_node11"><a xlink:href="classiDynTree_1_1TransformSemantics.html" target="_top" xlink:title="Class providing the semantics for iDynTree::Transform class. ">
<polygon fill="none" stroke="#000000" points="405,-142.276 405,-161.276 570,-161.276 570,-142.276 405,-142.276"/>
<text text-anchor="middle" x="487.5" y="-149.276" font-family="FreeSans.ttf" font-size="10.00" fill="#000000">iDynTree::TransformSemantics</text>
</a>
</g>
</g>
<!-- Node12&#45;&gt;Node5 -->
<g id="edge10" class="edge">
<title>Node12&#45;&gt;Node5</title>
<path fill="none" stroke="#9a32cd" stroke-dasharray="5,2" d="M580.5565,-153.6371C629.4778,-154.6155 687.8889,-155.7838 730.1601,-156.6292"/>
<polygon fill="#9a32cd" stroke="#9a32cd" points="580.3385,-150.1321 570.2705,-153.4314 580.1984,-157.1307 580.3385,-150.1321"/>
<text text-anchor="middle" x="636.5" y="-157.776" font-family="FreeSans.ttf" font-size="10.00" fill="#000000"> semantics</text>
</g>
<!-- Node13 -->
<g id="node12" class="node">
<title>Node13</title>
<g id="a_node12"><a xlink:href="classiDynTree_1_1RotationSemantics.html" target="_top" xlink:title="Class providing the semantics for iDynTree::Rotation class. ">
<polygon fill="none" stroke="#000000" points="102,-104.276 102,-123.276 259,-123.276 259,-104.276 102,-104.276"/>
<text text-anchor="middle" x="180.5" y="-111.276" font-family="FreeSans.ttf" font-size="10.00" fill="#000000">iDynTree::RotationSemantics</text>
</a>
</g>
</g>
<!-- Node13&#45;&gt;Node12 -->
<g id="edge11" class="edge">
<title>Node13&#45;&gt;Node12</title>
<path fill="none" stroke="#9a32cd" stroke-dasharray="5,2" d="M269.1596,-122.9187C305.6909,-126.8762 348.4186,-131.7499 387,-136.776 399.6827,-138.4282 413.2423,-140.3476 426.165,-142.2504"/>
<polygon fill="#9a32cd" stroke="#9a32cd" points="269.3462,-119.4187 259.0289,-121.8274 268.5965,-126.3784 269.3462,-119.4187"/>
<text text-anchor="middle" x="332" y="-139.776" font-family="FreeSans.ttf" font-size="10.00" fill="#000000"> rotationSemantics</text>
</g>
<!-- Node14 -->
<g id="node13" class="node">
<title>Node14</title>
<g id="a_node13"><a xlink:href="classiDynTree_1_1PositionSemantics.html" target="_top" xlink:title="Class providing the semantics for iDynTree::Position class. ">
<polygon fill="none" stroke="#000000" points="103,-142.276 103,-161.276 258,-161.276 258,-142.276 103,-142.276"/>
<text text-anchor="middle" x="180.5" y="-149.276" font-family="FreeSans.ttf" font-size="10.00" fill="#000000">iDynTree::PositionSemantics</text>
</a>
</g>
</g>
<!-- Node14&#45;&gt;Node12 -->
<g id="edge12" class="edge">
<title>Node14&#45;&gt;Node12</title>
<path fill="none" stroke="#9a32cd" stroke-dasharray="5,2" d="M268.5133,-151.776C311.4158,-151.776 362.7182,-151.776 404.8795,-151.776"/>
<polygon fill="#9a32cd" stroke="#9a32cd" points="268.366,-148.2761 258.3659,-151.776 268.3659,-155.2761 268.366,-148.2761"/>
<text text-anchor="middle" x="332" y="-154.776" font-family="FreeSans.ttf" font-size="10.00" fill="#000000"> positionSemantics</text>
</g>
<!-- Node15&#45;&gt;Node2 -->
<g id="edge14" class="edge">
<title>Node15&#45;&gt;Node2</title>
<path fill="none" stroke="#9a32cd" stroke-dasharray="5,2" d="M395.6481,-18.7331C527.2968,.879 835.6165,29.871 1056,-82.776 1085.093,-97.6466 1106.9297,-131.4393 1116.3671,-148.109"/>
<polygon fill="#9a32cd" stroke="#9a32cd" points="395.0826,-15.2788 385.7234,-20.2442 396.1363,-22.1991 395.0826,-15.2788"/>
<text text-anchor="middle" x="636.5" y="-4.776" font-family="FreeSans.ttf" font-size="10.00" fill="#000000"> m_gravityDirection</text>
</g>
</g>
</svg>
