<?xml version="1.0" encoding="UTF-8" standalone="no"?>
<!DOCTYPE svg PUBLIC "-//W3C//DTD SVG 1.1//EN"
 "http://www.w3.org/Graphics/SVG/1.1/DTD/svg11.dtd">
<!-- Generated by graphviz version 2.40.1 (20161225.0304)
 -->
<!-- Title: iDynTree::optimalcontrol::L2NormCost::L2NormCostImplementation Pages: 1 -->
<svg width="298pt" height="217pt"
 viewBox="0.00 0.00 298.00 217.00" xmlns="http://www.w3.org/2000/svg" xmlns:xlink="http://www.w3.org/1999/xlink">
<g id="graph0" class="graph" transform="scale(1 1) rotate(0) translate(4 213)">
<title>iDynTree::optimalcontrol::L2NormCost::L2NormCostImplementation</title>
<!-- Node1 -->
<g id="node1" class="node">
<title>Node1</title>
<polygon fill="#bfbfbf" stroke="#000000" points="31.5,-.5 31.5,-30.5 258.5,-30.5 258.5,-.5 31.5,-.5"/>
<text text-anchor="start" x="39.5" y="-18.5" font-family="FreeSans.ttf" font-size="10.00" fill="#000000">iDynTree::optimalcontrol</text>
<text text-anchor="middle" x="145" y="-7.5" font-family="FreeSans.ttf" font-size="10.00" fill="#000000">::L2NormCost::L2NormCostImplementation</text>
</g>
<!-- Node2 -->
<g id="node2" class="node">
<title>Node2</title>
<g id="a_node2"><a xlink:href="classiDynTree_1_1optimalcontrol_1_1CostAttributes.html" target="_top" xlink:title="iDynTree::optimalcontrol\l::CostAttributes">
<polygon fill="none" stroke="#000000" points="76.5,-89.5 76.5,-119.5 213.5,-119.5 213.5,-89.5 76.5,-89.5"/>
<text text-anchor="start" x="84.5" y="-107.5" font-family="FreeSans.ttf" font-size="10.00" fill="#000000">iDynTree::optimalcontrol</text>
<text text-anchor="middle" x="145" y="-96.5" font-family="FreeSans.ttf" font-size="10.00" fill="#000000">::CostAttributes</text>
</a>
</g>
</g>
<!-- Node2&#45;&gt;Node1 -->
<g id="edge1" class="edge">
<title>Node2&#45;&gt;Node1</title>
<path fill="none" stroke="#9a32cd" stroke-dasharray="5,2" d="M145,-79.31C145,-63.6343 145,-43.9926 145,-30.6717"/>
<polygon fill="#9a32cd" stroke="#9a32cd" points="141.5001,-79.4023 145,-89.4024 148.5001,-79.4024 141.5001,-79.4023"/>
<text text-anchor="middle" x="174.5" y="-63" font-family="FreeSans.ttf" font-size="10.00" fill="#000000"> controlCost</text>
<text text-anchor="middle" x="174.5" y="-52" font-family="FreeSans.ttf" font-size="10.00" fill="#000000">stateCost</text>
</g>
<!-- Node3 -->
<g id="node3" class="node">
<title>Node3</title>
<g id="a_node3"><a xlink:href="classiDynTree_1_1MatrixDynSize.html" target="_top" xlink:title="Class providing a simple form of matrix with dynamic size. ">
<polygon fill="none" stroke="#000000" points="0,-189.5 0,-208.5 136,-208.5 136,-189.5 0,-189.5"/>
<text text-anchor="middle" x="68" y="-196.5" font-family="FreeSans.ttf" font-size="10.00" fill="#000000">iDynTree::MatrixDynSize</text>
</a>
</g>
</g>
<!-- Node3&#45;&gt;Node2 -->
<g id="edge2" class="edge">
<title>Node3&#45;&gt;Node2</title>
<path fill="none" stroke="#9a32cd" stroke-dasharray="5,2" d="M79.1002,-180.8575C87.0858,-168.3411 98.4449,-151.5765 110,-138 115.4516,-131.5947 121.9847,-125.0818 127.9226,-119.5228"/>
<polygon fill="#9a32cd" stroke="#9a32cd" points="76.0434,-179.1444 73.7038,-189.4777 81.9767,-182.8588 76.0434,-179.1444"/>
<text text-anchor="middle" x="155" y="-163" font-family="FreeSans.ttf" font-size="10.00" fill="#000000"> weightMatrix</text>
<text text-anchor="middle" x="155" y="-152" font-family="FreeSans.ttf" font-size="10.00" fill="#000000">gradientSubMatrix</text>
<text text-anchor="middle" x="155" y="-141" font-family="FreeSans.ttf" font-size="10.00" fill="#000000">hessianMatrix</text>
</g>
<!-- Node4 -->
<g id="node4" class="node">
<title>Node4</title>
<g id="a_node4"><a xlink:href="classiDynTree_1_1VectorDynSize.html" target="_top" xlink:title="Class providing a simple form of vector with dynamic size. ">
<polygon fill="none" stroke="#000000" points="154,-189.5 154,-208.5 290,-208.5 290,-189.5 154,-189.5"/>
<text text-anchor="middle" x="222" y="-196.5" font-family="FreeSans.ttf" font-size="10.00" fill="#000000">iDynTree::VectorDynSize</text>
</a>
</g>
</g>
<!-- Node4&#45;&gt;Node2 -->
<g id="edge3" class="edge">
<title>Node4&#45;&gt;Node2</title>
<path fill="none" stroke="#9a32cd" stroke-dasharray="5,2" d="M218.4233,-179.2074C215.2998,-166.3627 209.6948,-149.8686 200,-138 193.988,-130.64 185.9049,-124.4743 177.7888,-119.5212"/>
<polygon fill="#9a32cd" stroke="#9a32cd" points="215.0747,-180.2893 220.5697,-189.3477 221.9229,-178.8397 215.0747,-180.2893"/>
<text text-anchor="middle" x="232" y="-152" font-family="FreeSans.ttf" font-size="10.00" fill="#000000"> buffer</text>
</g>
</g>
</svg>
