<?xml version="1.0" encoding="UTF-8" standalone="no"?>
<!DOCTYPE svg PUBLIC "-//W3C//DTD SVG 1.1//EN"
 "http://www.w3.org/Graphics/SVG/1.1/DTD/svg11.dtd">
<!-- Generated by graphviz version 2.40.1 (20161225.0304)
 -->
<!-- Title: iDynTree::optimalcontrol::LinearConstraint::LinearConstraintImplementation Pages: 1 -->
<svg width="333pt" height="139pt"
 viewBox="0.00 0.00 332.50 139.00" xmlns="http://www.w3.org/2000/svg" xmlns:xlink="http://www.w3.org/1999/xlink">
<g id="graph0" class="graph" transform="scale(1 1) rotate(0) translate(4 135)">
<title>iDynTree::optimalcontrol::LinearConstraint::LinearConstraintImplementation</title>
<!-- Node1 -->
<g id="node1" class="node">
<title>Node1</title>
<polygon fill="#bfbfbf" stroke="#000000" points="51,-.5 51,-41.5 240,-41.5 240,-.5 51,-.5"/>
<text text-anchor="start" x="59" y="-29.5" font-family="FreeSans.ttf" font-size="10.00" fill="#000000">iDynTree::optimalcontrol</text>
<text text-anchor="start" x="59" y="-18.5" font-family="FreeSans.ttf" font-size="10.00" fill="#000000">::LinearConstraint::LinearConstraint</text>
<text text-anchor="middle" x="145.5" y="-7.5" font-family="FreeSans.ttf" font-size="10.00" fill="#000000">Implementation</text>
</g>
<!-- Node2 -->
<g id="node2" class="node">
<title>Node2</title>
<g id="a_node2"><a xlink:href="classiDynTree_1_1optimalcontrol_1_1SparsityStructure.html" target="_top" xlink:title="iDynTree::optimalcontrol\l::SparsityStructure">
<polygon fill="none" stroke="#000000" points="0,-100.5 0,-130.5 137,-130.5 137,-100.5 0,-100.5"/>
<text text-anchor="start" x="8" y="-118.5" font-family="FreeSans.ttf" font-size="10.00" fill="#000000">iDynTree::optimalcontrol</text>
<text text-anchor="middle" x="68.5" y="-107.5" font-family="FreeSans.ttf" font-size="10.00" fill="#000000">::SparsityStructure</text>
</a>
</g>
</g>
<!-- Node2&#45;&gt;Node1 -->
<g id="edge1" class="edge">
<title>Node2&#45;&gt;Node1</title>
<path fill="none" stroke="#9a32cd" stroke-dasharray="5,2" d="M87.423,-92.2763C100.0125,-76.8255 116.4076,-56.7044 128.5663,-41.7823"/>
<polygon fill="#9a32cd" stroke="#9a32cd" points="84.4748,-90.3537 80.8714,-100.3169 89.9015,-94.7754 84.4748,-90.3537"/>
<text text-anchor="middle" x="149.5" y="-74" font-family="FreeSans.ttf" font-size="10.00" fill="#000000"> stateSparsity</text>
<text text-anchor="middle" x="149.5" y="-63" font-family="FreeSans.ttf" font-size="10.00" fill="#000000">controlSparsity</text>
</g>
<!-- Node3 -->
<g id="node3" class="node">
<title>Node3</title>
<g id="a_node3"><a xlink:href="classiDynTree_1_1VectorDynSize.html" target="_top" xlink:title="Class providing a simple form of vector with dynamic size. ">
<polygon fill="none" stroke="#000000" points="155.5,-106 155.5,-125 291.5,-125 291.5,-106 155.5,-106"/>
<text text-anchor="middle" x="223.5" y="-113" font-family="FreeSans.ttf" font-size="10.00" fill="#000000">iDynTree::VectorDynSize</text>
</a>
</g>
</g>
<!-- Node3&#45;&gt;Node1 -->
<g id="edge2" class="edge">
<title>Node3&#45;&gt;Node1</title>
<path fill="none" stroke="#9a32cd" stroke-dasharray="5,2" d="M214.3852,-96.9068C208.4045,-85.6388 199.9567,-71.3058 190.5,-60 185.061,-53.4975 178.4894,-47.1592 172.0687,-41.5472"/>
<polygon fill="#9a32cd" stroke="#9a32cd" points="211.2987,-98.5585 218.9692,-105.867 217.5305,-95.3703 211.2987,-98.5585"/>
<text text-anchor="middle" x="265" y="-74" font-family="FreeSans.ttf" font-size="10.00" fill="#000000"> stateConstraintsBuffer</text>
<text text-anchor="middle" x="265" y="-63" font-family="FreeSans.ttf" font-size="10.00" fill="#000000">controlConstraintsBuffer</text>
</g>
</g>
</svg>
