<?xml version="1.0" encoding="UTF-8" standalone="no"?>
<!DOCTYPE svg PUBLIC "-//W3C//DTD SVG 1.1//EN"
 "http://www.w3.org/Graphics/SVG/1.1/DTD/svg11.dtd">
<!-- Generated by graphviz version 2.40.1 (20161225.0304)
 -->
<!-- Title: iDynTree::IModelVisualization Pages: 1 -->
<svg width="382pt" height="84pt"
 viewBox="0.00 0.00 381.50 84.00" xmlns="http://www.w3.org/2000/svg" xmlns:xlink="http://www.w3.org/1999/xlink">
<g id="graph0" class="graph" transform="scale(1 1) rotate(0) translate(4 80)">
<title>iDynTree::IModelVisualization</title>
<!-- Node0 -->
<g id="node1" class="node">
<title>Node0</title>
<polygon fill="#bfbfbf" stroke="#000000" points="116,-56.5 116,-75.5 277,-75.5 277,-56.5 116,-56.5"/>
<text text-anchor="middle" x="196.5" y="-63.5" font-family="FreeSans.ttf" font-size="10.00" fill="#000000">iDynTree::IModelVisualization</text>
</g>
<!-- Node1 -->
<g id="node2" class="node">
<title>Node1</title>
<g id="a_node2"><a xlink:href="classiDynTree_1_1DummyModelVisualization.html" target="_top" xlink:title="Dummy model visualization. ">
<polygon fill="none" stroke="#000000" points="0,-.5 0,-19.5 197,-19.5 197,-.5 0,-.5"/>
<text text-anchor="middle" x="98.5" y="-7.5" font-family="FreeSans.ttf" font-size="10.00" fill="#000000">iDynTree::DummyModelVisualization</text>
</a>
</g>
</g>
<!-- Node0&#45;&gt;Node1 -->
<g id="edge1" class="edge">
<title>Node0&#45;&gt;Node1</title>
<path fill="none" stroke="#191970" d="M170.3314,-51.0465C152.8942,-41.0824 130.4889,-28.2794 115.3747,-19.6427"/>
<polygon fill="#191970" stroke="#191970" points="169.0108,-54.323 179.4297,-56.2455 172.4838,-48.2453 169.0108,-54.323"/>
</g>
<!-- Node2 -->
<g id="node3" class="node">
<title>Node2</title>
<g id="a_node3"><a xlink:href="classiDynTree_1_1ModelVisualization.html" target="_top" xlink:title="iDynTree::ModelVisualization">
<polygon fill="none" stroke="#000000" points="215.5,-.5 215.5,-19.5 373.5,-19.5 373.5,-.5 215.5,-.5"/>
<text text-anchor="middle" x="294.5" y="-7.5" font-family="FreeSans.ttf" font-size="10.00" fill="#000000">iDynTree::ModelVisualization</text>
</a>
</g>
</g>
<!-- Node0&#45;&gt;Node2 -->
<g id="edge2" class="edge">
<title>Node0&#45;&gt;Node2</title>
<path fill="none" stroke="#191970" d="M222.6686,-51.0465C240.1058,-41.0824 262.5111,-28.2794 277.6253,-19.6427"/>
<polygon fill="#191970" stroke="#191970" points="220.5162,-48.2453 213.5703,-56.2455 223.9892,-54.323 220.5162,-48.2453"/>
</g>
</g>
</svg>
