<?xml version="1.0" encoding="UTF-8" standalone="no"?>
<!DOCTYPE svg PUBLIC "-//W3C//DTD SVG 1.1//EN"
 "http://www.w3.org/Graphics/SVG/1.1/DTD/svg11.dtd">
<!-- Generated by graphviz version 2.40.1 (20161225.0304)
 -->
<!-- Title: iDynTree::RotationalInertiaRaw Pages: 1 -->
<svg width="175pt" height="163pt"
 viewBox="0.00 0.00 175.00 163.00" xmlns="http://www.w3.org/2000/svg" xmlns:xlink="http://www.w3.org/1999/xlink">
<g id="graph0" class="graph" transform="scale(1 1) rotate(0) translate(4 159)">
<title>iDynTree::RotationalInertiaRaw</title>
<!-- Node0 -->
<g id="node1" class="node">
<title>Node0</title>
<polygon fill="#bfbfbf" stroke="#000000" points="0,-.5 0,-19.5 167,-19.5 167,-.5 0,-.5"/>
<text text-anchor="middle" x="83.5" y="-7.5" font-family="FreeSans.ttf" font-size="10.00" fill="#000000">iDynTree::RotationalInertiaRaw</text>
</g>
<!-- Node1 -->
<g id="node2" class="node">
<title>Node1</title>
<g id="a_node2"><a xlink:href="classiDynTree_1_1MatrixFixSize.html" target="_top" xlink:title="Matrix3x3">
<polygon fill="none" stroke="#000000" points="51,-57.5 51,-76.5 116,-76.5 116,-57.5 51,-57.5"/>
<text text-anchor="middle" x="83.5" y="-64.5" font-family="FreeSans.ttf" font-size="10.00" fill="#000000">Matrix3x3</text>
</a>
</g>
</g>
<!-- Node1&#45;&gt;Node0 -->
<g id="edge1" class="edge">
<title>Node1&#45;&gt;Node0</title>
<path fill="none" stroke="#191970" d="M83.5,-47.2342C83.5,-37.8491 83.5,-27.0651 83.5,-19.5265"/>
<polygon fill="#191970" stroke="#191970" points="80.0001,-47.3307 83.5,-57.3307 87.0001,-47.3308 80.0001,-47.3307"/>
</g>
<!-- Node2 -->
<g id="node3" class="node">
<title>Node2</title>
<g id="a_node3"><a xlink:href="classiDynTree_1_1MatrixFixSize.html" target="_top" xlink:title="Class providing a simple form of matrix with dynamic size. ">
<polygon fill="none" stroke="#000000" points="18.5,-124.5 18.5,-154.5 148.5,-154.5 148.5,-124.5 18.5,-124.5"/>
<text text-anchor="start" x="26.5" y="-142.5" font-family="FreeSans.ttf" font-size="10.00" fill="#000000">iDynTree::MatrixFixSize</text>
<text text-anchor="middle" x="83.5" y="-131.5" font-family="FreeSans.ttf" font-size="10.00" fill="#000000">&lt; nRows, nCols &gt;</text>
</a>
</g>
</g>
<!-- Node2&#45;&gt;Node1 -->
<g id="edge2" class="edge">
<title>Node2&#45;&gt;Node1</title>
<path fill="none" stroke="#ffa500" stroke-dasharray="5,2" d="M83.5,-114.305C83.5,-101.424 83.5,-86.4836 83.5,-76.8957"/>
<polygon fill="#ffa500" stroke="#ffa500" points="80.0001,-114.4779 83.5,-124.478 87.0001,-114.478 80.0001,-114.4779"/>
<text text-anchor="middle" x="105.5" y="-98" font-family="FreeSans.ttf" font-size="10.00" fill="#000000"> &lt; 3, 3 &gt;</text>
</g>
</g>
</svg>
