<?xml version="1.0" encoding="UTF-8" standalone="no"?>
<!DOCTYPE svg PUBLIC "-//W3C//DTD SVG 1.1//EN"
 "http://www.w3.org/Graphics/SVG/1.1/DTD/svg11.dtd">
<!-- Generated by graphviz version 2.40.1 (20161225.0304)
 -->
<!-- Title: iDynTree::optimalcontrol::Cost Pages: 1 -->
<svg width="377pt" height="173pt"
 viewBox="0.00 0.00 377.00 173.00" xmlns="http://www.w3.org/2000/svg" xmlns:xlink="http://www.w3.org/1999/xlink">
<g id="graph0" class="graph" transform="scale(1 1) rotate(0) translate(4 169)">
<title>iDynTree::optimalcontrol::Cost</title>
<!-- Node0 -->
<g id="node1" class="node">
<title>Node0</title>
<polygon fill="#bfbfbf" stroke="#000000" points="77,-134.5 77,-164.5 214,-164.5 214,-134.5 77,-134.5"/>
<text text-anchor="start" x="85" y="-152.5" font-family="FreeSans.ttf" font-size="10.00" fill="#000000">iDynTree::optimalcontrol</text>
<text text-anchor="middle" x="145.5" y="-141.5" font-family="FreeSans.ttf" font-size="10.00" fill="#000000">::Cost</text>
</g>
<!-- Node1 -->
<g id="node2" class="node">
<title>Node1</title>
<g id="a_node2"><a xlink:href="classiDynTree_1_1optimalcontrol_1_1L2NormCost.html" target="_top" xlink:title="iDynTree::optimalcontrol\l::L2NormCost">
<polygon fill="none" stroke="#000000" points="0,-67.5 0,-97.5 137,-97.5 137,-67.5 0,-67.5"/>
<text text-anchor="start" x="8" y="-85.5" font-family="FreeSans.ttf" font-size="10.00" fill="#000000">iDynTree::optimalcontrol</text>
<text text-anchor="middle" x="68.5" y="-74.5" font-family="FreeSans.ttf" font-size="10.00" fill="#000000">::L2NormCost</text>
</a>
</g>
</g>
<!-- Node0&#45;&gt;Node1 -->
<g id="edge1" class="edge">
<title>Node0&#45;&gt;Node1</title>
<path fill="none" stroke="#191970" d="M120.2124,-127.4965C108.976,-117.7193 96.0308,-106.4554 85.9033,-97.6432"/>
<polygon fill="#191970" stroke="#191970" points="118.1861,-130.3728 128.0275,-134.2967 122.781,-125.092 118.1861,-130.3728"/>
</g>
<!-- Node2 -->
<g id="node3" class="node">
<title>Node2</title>
<g id="a_node3"><a xlink:href="classiDynTree_1_1optimalcontrol_1_1QuadraticLikeCost.html" target="_top" xlink:title="iDynTree::optimalcontrol\l::QuadraticLikeCost">
<polygon fill="none" stroke="#000000" points="155,-67.5 155,-97.5 292,-97.5 292,-67.5 155,-67.5"/>
<text text-anchor="start" x="163" y="-85.5" font-family="FreeSans.ttf" font-size="10.00" fill="#000000">iDynTree::optimalcontrol</text>
<text text-anchor="middle" x="223.5" y="-74.5" font-family="FreeSans.ttf" font-size="10.00" fill="#000000">::QuadraticLikeCost</text>
</a>
</g>
</g>
<!-- Node0&#45;&gt;Node2 -->
<g id="edge2" class="edge">
<title>Node0&#45;&gt;Node2</title>
<path fill="none" stroke="#191970" d="M171.116,-127.4965C182.4984,-117.7193 195.6116,-106.4554 205.8706,-97.6432"/>
<polygon fill="#191970" stroke="#191970" points="168.5045,-125.1257 163.1994,-134.2967 173.0657,-130.4357 168.5045,-125.1257"/>
</g>
<!-- Node3 -->
<g id="node4" class="node">
<title>Node3</title>
<g id="a_node4"><a xlink:href="classiDynTree_1_1optimalcontrol_1_1LinearCost.html" target="_top" xlink:title="iDynTree::optimalcontrol\l::LinearCost">
<polygon fill="none" stroke="#000000" points="77,-.5 77,-30.5 214,-30.5 214,-.5 77,-.5"/>
<text text-anchor="start" x="85" y="-18.5" font-family="FreeSans.ttf" font-size="10.00" fill="#000000">iDynTree::optimalcontrol</text>
<text text-anchor="middle" x="145.5" y="-7.5" font-family="FreeSans.ttf" font-size="10.00" fill="#000000">::LinearCost</text>
</a>
</g>
</g>
<!-- Node2&#45;&gt;Node3 -->
<g id="edge3" class="edge">
<title>Node2&#45;&gt;Node3</title>
<path fill="none" stroke="#191970" d="M197.884,-60.4965C186.5016,-50.7193 173.3884,-39.4554 163.1294,-30.6432"/>
<polygon fill="#191970" stroke="#191970" points="195.9343,-63.4357 205.8006,-67.2967 200.4955,-58.1257 195.9343,-63.4357"/>
</g>
<!-- Node4 -->
<g id="node5" class="node">
<title>Node4</title>
<g id="a_node5"><a xlink:href="classiDynTree_1_1optimalcontrol_1_1QuadraticCost.html" target="_top" xlink:title="iDynTree::optimalcontrol\l::QuadraticCost">
<polygon fill="none" stroke="#000000" points="232,-.5 232,-30.5 369,-30.5 369,-.5 232,-.5"/>
<text text-anchor="start" x="240" y="-18.5" font-family="FreeSans.ttf" font-size="10.00" fill="#000000">iDynTree::optimalcontrol</text>
<text text-anchor="middle" x="300.5" y="-7.5" font-family="FreeSans.ttf" font-size="10.00" fill="#000000">::QuadraticCost</text>
</a>
</g>
</g>
<!-- Node2&#45;&gt;Node4 -->
<g id="edge4" class="edge">
<title>Node2&#45;&gt;Node4</title>
<path fill="none" stroke="#191970" d="M248.7876,-60.4965C260.024,-50.7193 272.9692,-39.4554 283.0967,-30.6432"/>
<polygon fill="#191970" stroke="#191970" points="246.219,-58.092 240.9725,-67.2967 250.8139,-63.3728 246.219,-58.092"/>
</g>
</g>
</svg>
