<?xml version="1.0" encoding="UTF-8" standalone="no"?>
<!DOCTYPE svg PUBLIC "-//W3C//DTD SVG 1.1//EN"
 "http://www.w3.org/Graphics/SVG/1.1/DTD/svg11.dtd">
<!-- Generated by graphviz version 2.40.1 (20161225.0304)
 -->
<!-- Title: iDynTree::ICamera Pages: 1 -->
<svg width="274pt" height="84pt"
 viewBox="0.00 0.00 273.50 84.00" xmlns="http://www.w3.org/2000/svg" xmlns:xlink="http://www.w3.org/1999/xlink">
<g id="graph0" class="graph" transform="scale(1 1) rotate(0) translate(4 80)">
<title>iDynTree::ICamera</title>
<!-- Node0 -->
<g id="node1" class="node">
<title>Node0</title>
<polygon fill="#bfbfbf" stroke="#000000" points="69.5,-56.5 69.5,-75.5 176.5,-75.5 176.5,-56.5 69.5,-56.5"/>
<text text-anchor="middle" x="123" y="-63.5" font-family="FreeSans.ttf" font-size="10.00" fill="#000000">iDynTree::ICamera</text>
</g>
<!-- Node1 -->
<g id="node2" class="node">
<title>Node1</title>
<g id="a_node2"><a xlink:href="classiDynTree_1_1Camera.html" target="_top" xlink:title="iDynTree::Camera">
<polygon fill="none" stroke="#000000" points="0,-.5 0,-19.5 104,-19.5 104,-.5 0,-.5"/>
<text text-anchor="middle" x="52" y="-7.5" font-family="FreeSans.ttf" font-size="10.00" fill="#000000">iDynTree::Camera</text>
</a>
</g>
</g>
<!-- Node0&#45;&gt;Node1 -->
<g id="edge1" class="edge">
<title>Node0&#45;&gt;Node1</title>
<path fill="none" stroke="#191970" d="M102.623,-49.928C90.2129,-40.1397 74.77,-27.9595 64.2255,-19.6427"/>
<polygon fill="#191970" stroke="#191970" points="100.6136,-52.8007 110.6327,-56.2455 104.9486,-47.3046 100.6136,-52.8007"/>
</g>
<!-- Node2 -->
<g id="node3" class="node">
<title>Node2</title>
<g id="a_node3"><a xlink:href="classiDynTree_1_1DummyCamera.html" target="_top" xlink:title="Dummy camera. ">
<polygon fill="none" stroke="#000000" points="122.5,-.5 122.5,-19.5 265.5,-19.5 265.5,-.5 122.5,-.5"/>
<text text-anchor="middle" x="194" y="-7.5" font-family="FreeSans.ttf" font-size="10.00" fill="#000000">iDynTree::DummyCamera</text>
</a>
</g>
</g>
<!-- Node0&#45;&gt;Node2 -->
<g id="edge2" class="edge">
<title>Node0&#45;&gt;Node2</title>
<path fill="none" stroke="#191970" d="M143.377,-49.928C155.7871,-40.1397 171.23,-27.9595 181.7745,-19.6427"/>
<polygon fill="#191970" stroke="#191970" points="141.0514,-47.3046 135.3673,-56.2455 145.3864,-52.8007 141.0514,-47.3046"/>
</g>
</g>
</svg>
