<?xml version="1.0" encoding="UTF-8" standalone="no"?>
<!DOCTYPE svg PUBLIC "-//W3C//DTD SVG 1.1//EN"
 "http://www.w3.org/Graphics/SVG/1.1/DTD/svg11.dtd">
<!-- Generated by graphviz version 2.40.1 (20161225.0304)
 -->
<!-- Title: ClassicalAcc.h Pages: 1 -->
<svg width="1126pt" height="151pt"
 viewBox="0.00 0.00 1125.50 151.00" xmlns="http://www.w3.org/2000/svg" xmlns:xlink="http://www.w3.org/1999/xlink">
<g id="graph0" class="graph" transform="scale(1 1) rotate(0) translate(4 147)">
<title>ClassicalAcc.h</title>
<!-- Node16 -->
<g id="node1" class="node">
<title>Node16</title>
<polygon fill="#bfbfbf" stroke="#000000" points="446,-123.5 446,-142.5 532,-142.5 532,-123.5 446,-123.5"/>
<text text-anchor="middle" x="489" y="-130.5" font-family="FreeSans.ttf" font-size="10.00" fill="#000000">ClassicalAcc.h</text>
</g>
<!-- Node17 -->
<g id="node2" class="node">
<title>Node17</title>
<g id="a_node2"><a xlink:href="ClassicalAcc_8cpp.html" target="_top" xlink:title="ClassicalAcc.cpp">
<polygon fill="none" stroke="#000000" points="0,-62 0,-81 98,-81 98,-62 0,-62"/>
<text text-anchor="middle" x="49" y="-69" font-family="FreeSans.ttf" font-size="10.00" fill="#000000">ClassicalAcc.cpp</text>
</a>
</g>
</g>
<!-- Node16&#45;&gt;Node17 -->
<g id="edge1" class="edge">
<title>Node16&#45;&gt;Node17</title>
<path fill="none" stroke="#191970" d="M435.8485,-128.8937C361.8885,-122.6563 223.9481,-109.1224 108,-87 99.5736,-85.3923 90.5729,-83.2502 82.2048,-81.0728"/>
<polygon fill="#191970" stroke="#191970" points="435.5953,-132.3847 445.851,-129.7256 436.1755,-125.4088 435.5953,-132.3847"/>
</g>
<!-- Node18 -->
<g id="node3" class="node">
<title>Node18</title>
<g id="a_node3"><a xlink:href="Rotation_8cpp.html" target="_top" xlink:title="Rotation.cpp">
<polygon fill="none" stroke="#000000" points="116.5,-62 116.5,-81 193.5,-81 193.5,-62 116.5,-62"/>
<text text-anchor="middle" x="155" y="-69" font-family="FreeSans.ttf" font-size="10.00" fill="#000000">Rotation.cpp</text>
</a>
</g>
</g>
<!-- Node16&#45;&gt;Node18 -->
<g id="edge2" class="edge">
<title>Node16&#45;&gt;Node18</title>
<path fill="none" stroke="#191970" d="M435.9609,-126.9352C378.1801,-119.7576 283.2633,-106.2942 203,-87 196.1033,-85.3421 188.7654,-83.1816 181.9561,-81.0025"/>
<polygon fill="#191970" stroke="#191970" points="435.6043,-130.4176 445.9558,-128.16 436.4558,-123.4696 435.6043,-130.4176"/>
</g>
<!-- Node19 -->
<g id="node4" class="node">
<title>Node19</title>
<g id="a_node4"><a xlink:href="RotationRaw_8cpp.html" target="_top" xlink:title="RotationRaw.cpp">
<polygon fill="none" stroke="#000000" points="212,-62 212,-81 310,-81 310,-62 212,-62"/>
<text text-anchor="middle" x="261" y="-69" font-family="FreeSans.ttf" font-size="10.00" fill="#000000">RotationRaw.cpp</text>
</a>
</g>
</g>
<!-- Node16&#45;&gt;Node19 -->
<g id="edge3" class="edge">
<title>Node16&#45;&gt;Node19</title>
<path fill="none" stroke="#191970" d="M443.6622,-120.7707C400.3655,-109.092 336.0093,-91.7328 296.3748,-81.0419"/>
<polygon fill="#191970" stroke="#191970" points="442.8085,-124.1655 453.375,-123.3906 444.6316,-117.407 442.8085,-124.1655"/>
</g>
<!-- Node20 -->
<g id="node5" class="node">
<title>Node20</title>
<g id="a_node5"><a xlink:href="GravityCompensationHelpers_8h.html" target="_top" xlink:title="GravityCompensationHelpers.h">
<polygon fill="none" stroke="#000000" points="328,-62 328,-81 498,-81 498,-62 328,-62"/>
<text text-anchor="middle" x="413" y="-69" font-family="FreeSans.ttf" font-size="10.00" fill="#000000">GravityCompensationHelpers.h</text>
</a>
</g>
</g>
<!-- Node16&#45;&gt;Node20 -->
<g id="edge4" class="edge">
<title>Node16&#45;&gt;Node20</title>
<path fill="none" stroke="#191970" d="M469.066,-116.8692C455.0875,-105.5576 436.8581,-90.8062 425.0424,-81.2449"/>
<polygon fill="#191970" stroke="#191970" points="467.1496,-119.8209 477.125,-123.3906 471.553,-114.3793 467.1496,-119.8209"/>
</g>
<!-- Node22 -->
<g id="node7" class="node">
<title>Node22</title>
<g id="a_node7"><a xlink:href="BerdyHelper_8cpp.html" target="_top" xlink:title="BerdyHelper.cpp">
<polygon fill="none" stroke="#000000" points="516.5,-62 516.5,-81 613.5,-81 613.5,-62 516.5,-62"/>
<text text-anchor="middle" x="565" y="-69" font-family="FreeSans.ttf" font-size="10.00" fill="#000000">BerdyHelper.cpp</text>
</a>
</g>
</g>
<!-- Node16&#45;&gt;Node22 -->
<g id="edge6" class="edge">
<title>Node16&#45;&gt;Node22</title>
<path fill="none" stroke="#191970" d="M508.934,-116.8692C522.9125,-105.5576 541.1419,-90.8062 552.9576,-81.2449"/>
<polygon fill="#191970" stroke="#191970" points="506.447,-114.3793 500.875,-123.3906 510.8504,-119.8209 506.447,-114.3793"/>
</g>
<!-- Node23 -->
<g id="node8" class="node">
<title>Node23</title>
<g id="a_node8"><a xlink:href="ExtWrenchesAndJointTorquesEstimator_8cpp.html" target="_top" xlink:title="ExtWrenchesAndJointTorques\lEstimator.cpp">
<polygon fill="none" stroke="#000000" points="632,-56.5 632,-86.5 790,-86.5 790,-56.5 632,-56.5"/>
<text text-anchor="start" x="640" y="-74.5" font-family="FreeSans.ttf" font-size="10.00" fill="#000000">ExtWrenchesAndJointTorques</text>
<text text-anchor="middle" x="711" y="-63.5" font-family="FreeSans.ttf" font-size="10.00" fill="#000000">Estimator.cpp</text>
</a>
</g>
</g>
<!-- Node16&#45;&gt;Node23 -->
<g id="edge7" class="edge">
<title>Node16&#45;&gt;Node23</title>
<path fill="none" stroke="#191970" d="M533.7518,-120.6025C569.2274,-110.7748 618.9401,-97.0031 656.6927,-86.5446"/>
<polygon fill="#191970" stroke="#191970" points="532.3901,-117.3479 523.6875,-123.3906 534.259,-124.0938 532.3901,-117.3479"/>
</g>
<!-- Node24 -->
<g id="node9" class="node">
<title>Node24</title>
<g id="a_node9"><a xlink:href="KinDynComputations_8cpp.html" target="_top" xlink:title="KinDynComputations.cpp">
<polygon fill="none" stroke="#000000" points="808,-62 808,-81 948,-81 948,-62 808,-62"/>
<text text-anchor="middle" x="878" y="-69" font-family="FreeSans.ttf" font-size="10.00" fill="#000000">KinDynComputations.cpp</text>
</a>
</g>
</g>
<!-- Node16&#45;&gt;Node24 -->
<g id="edge8" class="edge">
<title>Node16&#45;&gt;Node24</title>
<path fill="none" stroke="#191970" d="M542.1449,-125.8786C603.9824,-117.4155 709.0982,-102.481 799,-87 809.4683,-85.1974 820.6837,-83.099 831.2799,-81.0393"/>
<polygon fill="#191970" stroke="#191970" points="541.6652,-122.4116 532.2299,-127.2309 542.6112,-129.3474 541.6652,-122.4116"/>
</g>
<!-- Node25 -->
<g id="node10" class="node">
<title>Node25</title>
<g id="a_node10"><a xlink:href="InverseKinematicsData_8cpp.html" target="_top" xlink:title="InverseKinematicsData.cpp">
<polygon fill="none" stroke="#000000" points="966.5,-62 966.5,-81 1117.5,-81 1117.5,-62 966.5,-62"/>
<text text-anchor="middle" x="1042" y="-69" font-family="FreeSans.ttf" font-size="10.00" fill="#000000">InverseKinematicsData.cpp</text>
</a>
</g>
</g>
<!-- Node16&#45;&gt;Node25 -->
<g id="edge9" class="edge">
<title>Node16&#45;&gt;Node25</title>
<path fill="none" stroke="#191970" d="M542.1998,-129.2061C629.2029,-122.6798 807.2451,-107.9775 957,-87 968.8842,-85.3353 981.6416,-83.1973 993.5658,-81.0445"/>
<polygon fill="#191970" stroke="#191970" points="541.7617,-125.7289 532.0489,-129.9613 542.2811,-132.7096 541.7617,-125.7289"/>
</g>
<!-- Node21 -->
<g id="node6" class="node">
<title>Node21</title>
<g id="a_node6"><a xlink:href="GravityCompensationHelpers_8cpp.html" target="_top" xlink:title="GravityCompensationHelpers.cpp">
<polygon fill="none" stroke="#000000" points="322.5,-.5 322.5,-19.5 503.5,-19.5 503.5,-.5 322.5,-.5"/>
<text text-anchor="middle" x="413" y="-7.5" font-family="FreeSans.ttf" font-size="10.00" fill="#000000">GravityCompensationHelpers.cpp</text>
</a>
</g>
</g>
<!-- Node20&#45;&gt;Node21 -->
<g id="edge5" class="edge">
<title>Node20&#45;&gt;Node21</title>
<path fill="none" stroke="#191970" d="M413,-51.7462C413,-41.0519 413,-28.314 413,-19.7449"/>
<polygon fill="#191970" stroke="#191970" points="409.5001,-51.8906 413,-61.8906 416.5001,-51.8907 409.5001,-51.8906"/>
</g>
</g>
</svg>
