<?xml version="1.0" encoding="UTF-8" standalone="no"?>
<!DOCTYPE svg PUBLIC "-//W3C//DTD SVG 1.1//EN"
 "http://www.w3.org/Graphics/SVG/1.1/DTD/svg11.dtd">
<!-- Generated by graphviz version 2.40.1 (20161225.0304)
 -->
<!-- Title: iDynTree::ModelExporter::Pimpl Pages: 1 -->
<svg width="433pt" height="106pt"
 viewBox="0.00 0.00 433.00 106.00" xmlns="http://www.w3.org/2000/svg" xmlns:xlink="http://www.w3.org/1999/xlink">
<g id="graph0" class="graph" transform="scale(1 1) rotate(0) translate(4 102)">
<title>iDynTree::ModelExporter::Pimpl</title>
<!-- Node1 -->
<g id="node1" class="node">
<title>Node1</title>
<polygon fill="#bfbfbf" stroke="#000000" points="170.5,-.5 170.5,-30.5 306.5,-30.5 306.5,-.5 170.5,-.5"/>
<text text-anchor="start" x="178.5" y="-18.5" font-family="FreeSans.ttf" font-size="10.00" fill="#000000">iDynTree::ModelExporter</text>
<text text-anchor="middle" x="238.5" y="-7.5" font-family="FreeSans.ttf" font-size="10.00" fill="#000000">::Pimpl</text>
</g>
<!-- Node2 -->
<g id="node2" class="node">
<title>Node2</title>
<g id="a_node2"><a xlink:href="classiDynTree_1_1ModelExporterOptions.html" target="_top" xlink:title="Options for the iDynTree exporter. ">
<polygon fill="none" stroke="#000000" points="0,-78.5 0,-97.5 173,-97.5 173,-78.5 0,-78.5"/>
<text text-anchor="middle" x="86.5" y="-85.5" font-family="FreeSans.ttf" font-size="10.00" fill="#000000">iDynTree::ModelExporterOptions</text>
</a>
</g>
</g>
<!-- Node2&#45;&gt;Node1 -->
<g id="edge1" class="edge">
<title>Node2&#45;&gt;Node1</title>
<path fill="none" stroke="#9a32cd" stroke-dasharray="5,2" d="M115.7167,-74.0644C141.8319,-61.6081 180.0091,-43.3986 206.8432,-30.5995"/>
<polygon fill="#9a32cd" stroke="#9a32cd" points="114.2035,-70.9084 106.6844,-78.3726 117.2171,-77.2265 114.2035,-70.9084"/>
<text text-anchor="middle" x="195" y="-52" font-family="FreeSans.ttf" font-size="10.00" fill="#000000"> m_options</text>
</g>
<!-- Node3 -->
<g id="node3" class="node">
<title>Node3</title>
<g id="a_node3"><a xlink:href="classiDynTree_1_1Model.html" target="_top" xlink:title="Class that represents a generic multibody model. ">
<polygon fill="none" stroke="#000000" points="191,-78.5 191,-97.5 286,-97.5 286,-78.5 191,-78.5"/>
<text text-anchor="middle" x="238.5" y="-85.5" font-family="FreeSans.ttf" font-size="10.00" fill="#000000">iDynTree::Model</text>
</a>
</g>
</g>
<!-- Node3&#45;&gt;Node1 -->
<g id="edge2" class="edge">
<title>Node3&#45;&gt;Node1</title>
<path fill="none" stroke="#9a32cd" stroke-dasharray="5,2" d="M238.5,-68.0177C238.5,-56.2164 238.5,-41.513 238.5,-30.668"/>
<polygon fill="#9a32cd" stroke="#9a32cd" points="235.0001,-68.2223 238.5,-78.2223 242.0001,-68.2224 235.0001,-68.2223"/>
<text text-anchor="middle" x="263" y="-52" font-family="FreeSans.ttf" font-size="10.00" fill="#000000"> m_model</text>
</g>
<!-- Node4 -->
<g id="node4" class="node">
<title>Node4</title>
<g id="a_node4"><a xlink:href="classiDynTree_1_1SensorsList.html" target="_top" xlink:title="Structure representing a group of sensors associated with an UndirectedTree. ">
<polygon fill="none" stroke="#000000" points="304,-78.5 304,-97.5 425,-97.5 425,-78.5 304,-78.5"/>
<text text-anchor="middle" x="364.5" y="-85.5" font-family="FreeSans.ttf" font-size="10.00" fill="#000000">iDynTree::SensorsList</text>
</a>
</g>
</g>
<!-- Node4&#45;&gt;Node1 -->
<g id="edge3" class="edge">
<title>Node4&#45;&gt;Node1</title>
<path fill="none" stroke="#9a32cd" stroke-dasharray="5,2" d="M338.8727,-73.2541C317.3561,-60.8736 286.7309,-43.2519 264.9785,-30.7357"/>
<polygon fill="#9a32cd" stroke="#9a32cd" points="337.355,-76.4189 347.7682,-78.3726 340.8462,-70.3516 337.355,-76.4189"/>
<text text-anchor="middle" x="340.5" y="-52" font-family="FreeSans.ttf" font-size="10.00" fill="#000000"> m_sensors</text>
</g>
</g>
</svg>
