<?xml version="1.0" encoding="UTF-8" standalone="no"?>
<!DOCTYPE svg PUBLIC "-//W3C//DTD SVG 1.1//EN"
 "http://www.w3.org/Graphics/SVG/1.1/DTD/svg11.dtd">
<!-- Generated by graphviz version 2.40.1 (20161225.0304)
 -->
<!-- Title: iDynTree::optimization::WorhpInterface::WorhpInterfaceImplementation Pages: 1 -->
<svg width="472pt" height="205pt"
 viewBox="0.00 0.00 472.00 205.00" xmlns="http://www.w3.org/2000/svg" xmlns:xlink="http://www.w3.org/1999/xlink">
<g id="graph0" class="graph" transform="scale(1 1) rotate(0) translate(4 201)">
<title>iDynTree::optimization::WorhpInterface::WorhpInterfaceImplementation</title>
<!-- Node1 -->
<g id="node1" class="node">
<title>Node1</title>
<polygon fill="#bfbfbf" stroke="#000000" points="127.5,-.5 127.5,-41.5 304.5,-41.5 304.5,-.5 127.5,-.5"/>
<text text-anchor="start" x="135.5" y="-29.5" font-family="FreeSans.ttf" font-size="10.00" fill="#000000">iDynTree::optimization</text>
<text text-anchor="start" x="135.5" y="-18.5" font-family="FreeSans.ttf" font-size="10.00" fill="#000000">::WorhpInterface::WorhpInterface</text>
<text text-anchor="middle" x="216" y="-7.5" font-family="FreeSans.ttf" font-size="10.00" fill="#000000">Implementation</text>
</g>
<!-- Node2 -->
<g id="node2" class="node">
<title>Node2</title>
<g id="a_node2"><a xlink:href="classiDynTree_1_1MatrixDynSize.html" target="_top" xlink:title="Class providing a simple form of matrix with dynamic size. ">
<polygon fill="none" stroke="#000000" points="0,-177.5 0,-196.5 136,-196.5 136,-177.5 0,-177.5"/>
<text text-anchor="middle" x="68" y="-184.5" font-family="FreeSans.ttf" font-size="10.00" fill="#000000">iDynTree::MatrixDynSize</text>
</a>
</g>
</g>
<!-- Node2&#45;&gt;Node1 -->
<g id="edge1" class="edge">
<title>Node2&#45;&gt;Node1</title>
<path fill="none" stroke="#9a32cd" stroke-dasharray="5,2" d="M65.0099,-167.3686C62.0039,-139.9264 60.9863,-90.0908 87,-60 93.3119,-52.6989 108.9529,-46.0532 127.2545,-40.3988"/>
<polygon fill="#9a32cd" stroke="#9a32cd" points="61.544,-167.8586 66.3001,-177.3259 68.486,-166.959 61.544,-167.8586"/>
<text text-anchor="middle" x="149.5" y="-118" font-family="FreeSans.ttf" font-size="10.00" fill="#000000"> costHessianBuffer</text>
<text text-anchor="middle" x="149.5" y="-107" font-family="FreeSans.ttf" font-size="10.00" fill="#000000">constraintsHessianBuffer</text>
<text text-anchor="middle" x="149.5" y="-96" font-family="FreeSans.ttf" font-size="10.00" fill="#000000">constraintsJacobianBuffer</text>
</g>
<!-- Node3 -->
<g id="node3" class="node">
<title>Node3</title>
<g id="a_node3"><a xlink:href="structWorhpVariables.html" target="_top" xlink:title="WorhpVariables">
<polygon fill="none" stroke="#000000" points="170,-177.5 170,-196.5 262,-196.5 262,-177.5 170,-177.5"/>
<text text-anchor="middle" x="216" y="-184.5" font-family="FreeSans.ttf" font-size="10.00" fill="#000000">WorhpVariables</text>
</a>
</g>
</g>
<!-- Node3&#45;&gt;Node1 -->
<g id="edge2" class="edge">
<title>Node3&#45;&gt;Node1</title>
<path fill="none" stroke="#9a32cd" stroke-dasharray="5,2" d="M216,-166.8774C216,-135.1676 216,-73.8846 216,-41.7747"/>
<polygon fill="#9a32cd" stroke="#9a32cd" points="212.5001,-167.113 216,-177.1131 219.5001,-167.1131 212.5001,-167.113"/>
<text text-anchor="middle" x="233" y="-107" font-family="FreeSans.ttf" font-size="10.00" fill="#000000"> worhp</text>
</g>
<!-- Node4 -->
<g id="node4" class="node">
<title>Node4</title>
<g id="a_node4"><a xlink:href="classiDynTree_1_1VectorDynSize.html" target="_top" xlink:title="Class providing a simple form of vector with dynamic size. ">
<polygon fill="none" stroke="#000000" points="280,-177.5 280,-196.5 416,-196.5 416,-177.5 280,-177.5"/>
<text text-anchor="middle" x="348" y="-184.5" font-family="FreeSans.ttf" font-size="10.00" fill="#000000">iDynTree::VectorDynSize</text>
</a>
</g>
</g>
<!-- Node4&#45;&gt;Node1 -->
<g id="edge3" class="edge">
<title>Node4&#45;&gt;Node1</title>
<path fill="none" stroke="#9a32cd" stroke-dasharray="5,2" d="M335.7574,-168.8947C318.4782,-143.719 285.5174,-97.0569 254,-60 248.7328,-53.807 242.716,-47.3737 237.0478,-41.5603"/>
<polygon fill="#9a32cd" stroke="#9a32cd" points="333.0502,-171.1371 341.5762,-177.4266 338.8333,-167.193 333.0502,-171.1371"/>
<text text-anchor="middle" x="396" y="-151" font-family="FreeSans.ttf" font-size="10.00" fill="#000000"> constraintsUpperBounds</text>
<text text-anchor="middle" x="396" y="-140" font-family="FreeSans.ttf" font-size="10.00" fill="#000000">costGradientBuffer</text>
<text text-anchor="middle" x="396" y="-129" font-family="FreeSans.ttf" font-size="10.00" fill="#000000">variablesUpperBounds</text>
<text text-anchor="middle" x="396" y="-118" font-family="FreeSans.ttf" font-size="10.00" fill="#000000">constraintsLowerBounds</text>
<text text-anchor="middle" x="396" y="-107" font-family="FreeSans.ttf" font-size="10.00" fill="#000000">variablesBuffer</text>
<text text-anchor="middle" x="396" y="-96" font-family="FreeSans.ttf" font-size="10.00" fill="#000000">constraintsMultipliersBuffer</text>
<text text-anchor="middle" x="396" y="-85" font-family="FreeSans.ttf" font-size="10.00" fill="#000000">constraintsEvaluationBuffer</text>
<text text-anchor="middle" x="396" y="-74" font-family="FreeSans.ttf" font-size="10.00" fill="#000000">variablesLowerBounds</text>
<text text-anchor="middle" x="396" y="-63" font-family="FreeSans.ttf" font-size="10.00" fill="#000000">initialPoint</text>
</g>
</g>
</svg>
