<?xml version="1.0" encoding="UTF-8" standalone="no"?>
<!DOCTYPE svg PUBLIC "-//W3C//DTD SVG 1.1//EN"
 "http://www.w3.org/Graphics/SVG/1.1/DTD/svg11.dtd">
<!-- Generated by graphviz version 2.40.1 (20161225.0304)
 -->
<!-- Title: iDynTree::ForceVector3 Pages: 1 -->
<svg width="1125pt" height="88pt"
 viewBox="0.00 0.00 1125.00 88.00" xmlns="http://www.w3.org/2000/svg" xmlns:xlink="http://www.w3.org/1999/xlink">
<g id="graph0" class="graph" transform="scale(1 1) rotate(0) translate(4 84)">
<title>iDynTree::ForceVector3</title>
<!-- Node0 -->
<g id="node1" class="node">
<title>Node0</title>
<polygon fill="#bfbfbf" stroke="#000000" points="483,-30 483,-49 611,-49 611,-30 483,-30"/>
<text text-anchor="middle" x="547" y="-37" font-family="FreeSans.ttf" font-size="10.00" fill="#000000">iDynTree::ForceVector3</text>
</g>
<!-- Node4 -->
<g id="node5" class="node">
<title>Node4</title>
<g id="a_node5"><a xlink:href="classiDynTree_1_1ForceVector3.html" target="_top" xlink:title="iDynTree::ForceVector3\l\&lt; LinearForceVector3 \&gt;">
<polygon fill="none" stroke="#000000" points="778,-49.5 778,-79.5 910,-79.5 910,-49.5 778,-49.5"/>
<text text-anchor="start" x="786" y="-67.5" font-family="FreeSans.ttf" font-size="10.00" fill="#000000">iDynTree::ForceVector3</text>
<text text-anchor="middle" x="844" y="-56.5" font-family="FreeSans.ttf" font-size="10.00" fill="#000000">&lt; LinearForceVector3 &gt;</text>
</a>
</g>
</g>
<!-- Node0&#45;&gt;Node4 -->
<g id="edge4" class="edge">
<title>Node0&#45;&gt;Node4</title>
<path fill="none" stroke="#ffa500" stroke-dasharray="5,2" d="M621.1319,-45.7401C669.2938,-49.7941 731.5233,-55.0323 777.9802,-58.9428"/>
<polygon fill="#ffa500" stroke="#ffa500" points="621.3373,-42.2451 611.0789,-44.8938 620.7501,-49.2204 621.3373,-42.2451"/>
<text text-anchor="middle" x="692.5" y="-58.5" font-family="FreeSans.ttf" font-size="10.00" fill="#000000"> &lt; LinearForceVector3 &gt;</text>
</g>
<!-- Node6 -->
<g id="node7" class="node">
<title>Node6</title>
<g id="a_node7"><a xlink:href="classiDynTree_1_1ForceVector3.html" target="_top" xlink:title="iDynTree::ForceVector3\l\&lt; AngularForceVector3 \&gt;">
<polygon fill="none" stroke="#000000" points="774,-.5 774,-30.5 914,-30.5 914,-.5 774,-.5"/>
<text text-anchor="start" x="782" y="-18.5" font-family="FreeSans.ttf" font-size="10.00" fill="#000000">iDynTree::ForceVector3</text>
<text text-anchor="middle" x="844" y="-7.5" font-family="FreeSans.ttf" font-size="10.00" fill="#000000">&lt; AngularForceVector3 &gt;</text>
</a>
</g>
</g>
<!-- Node0&#45;&gt;Node6 -->
<g id="edge6" class="edge">
<title>Node0&#45;&gt;Node6</title>
<path fill="none" stroke="#ffa500" stroke-dasharray="5,2" d="M617.8432,-28.729C621.6129,-28.2822 625.3497,-27.8682 629,-27.5 677.1685,-22.6411 731.6211,-19.6273 773.6742,-17.8353"/>
<polygon fill="#ffa500" stroke="#ffa500" points="617.3135,-25.2679 607.8243,-29.9801 618.181,-32.214 617.3135,-25.2679"/>
<text text-anchor="middle" x="692.5" y="-30.5" font-family="FreeSans.ttf" font-size="10.00" fill="#000000"> &lt; AngularForceVector3 &gt;</text>
</g>
<!-- Node1 -->
<g id="node2" class="node">
<title>Node1</title>
<g id="a_node2"><a xlink:href="classiDynTree_1_1GeomVector3.html" target="_top" xlink:title="iDynTree::GeomVector3\l\&lt; ForceT \&gt;">
<polygon fill="none" stroke="#000000" points="315,-24.5 315,-54.5 446,-54.5 446,-24.5 315,-24.5"/>
<text text-anchor="start" x="323" y="-42.5" font-family="FreeSans.ttf" font-size="10.00" fill="#000000">iDynTree::GeomVector3</text>
<text text-anchor="middle" x="380.5" y="-31.5" font-family="FreeSans.ttf" font-size="10.00" fill="#000000">&lt; ForceT &gt;</text>
</a>
</g>
</g>
<!-- Node1&#45;&gt;Node0 -->
<g id="edge1" class="edge">
<title>Node1&#45;&gt;Node0</title>
<path fill="none" stroke="#191970" d="M456.5255,-39.5C465.2939,-39.5 474.17,-39.5 482.7607,-39.5"/>
<polygon fill="#191970" stroke="#191970" points="456.3052,-36.0001 446.3052,-39.5 456.3052,-43.0001 456.3052,-36.0001"/>
</g>
<!-- Node2 -->
<g id="node3" class="node">
<title>Node2</title>
<g id="a_node3"><a xlink:href="classiDynTree_1_1GeomVector3.html" target="_top" xlink:title="Template class providing the raw coordinates and semantics for any geometric relation vector...">
<polygon fill="none" stroke="#000000" points="90,-30 90,-49 221,-49 221,-30 90,-30"/>
<text text-anchor="middle" x="155.5" y="-37" font-family="FreeSans.ttf" font-size="10.00" fill="#000000">iDynTree::GeomVector3</text>
</a>
</g>
</g>
<!-- Node2&#45;&gt;Node1 -->
<g id="edge2" class="edge">
<title>Node2&#45;&gt;Node1</title>
<path fill="none" stroke="#ffa500" stroke-dasharray="5,2" d="M231.376,-39.5C258.4126,-39.5 288.6169,-39.5 314.7342,-39.5"/>
<polygon fill="#ffa500" stroke="#ffa500" points="231.1842,-36.0001 221.1842,-39.5 231.1841,-43.0001 231.1842,-36.0001"/>
<text text-anchor="middle" x="268" y="-42.5" font-family="FreeSans.ttf" font-size="10.00" fill="#000000"> &lt; ForceT &gt;</text>
</g>
<!-- Node3 -->
<g id="node4" class="node">
<title>Node3</title>
<g id="a_node4"><a xlink:href="classiDynTree_1_1VectorFixSize.html" target="_top" xlink:title="Class providing a simple vector of N elements. ">
<polygon fill="none" stroke="#000000" points="0,-30 0,-49 53,-49 53,-30 0,-30"/>
<text text-anchor="middle" x="26.5" y="-37" font-family="FreeSans.ttf" font-size="10.00" fill="#000000">Vector3</text>
</a>
</g>
</g>
<!-- Node3&#45;&gt;Node2 -->
<g id="edge3" class="edge">
<title>Node3&#45;&gt;Node2</title>
<path fill="none" stroke="#191970" d="M63.3438,-39.5C71.6951,-39.5 80.8094,-39.5 89.9519,-39.5"/>
<polygon fill="#191970" stroke="#191970" points="63.2289,-36.0001 53.2289,-39.5 63.2288,-43.0001 63.2289,-36.0001"/>
</g>
<!-- Node5 -->
<g id="node6" class="node">
<title>Node5</title>
<g id="a_node6"><a xlink:href="classiDynTree_1_1LinearForceVector3.html" target="_top" xlink:title="Class providing the raw coordinates and semantics for any linear force vector. ">
<polygon fill="none" stroke="#000000" points="955,-55 955,-74 1113,-74 1113,-55 955,-55"/>
<text text-anchor="middle" x="1034" y="-62" font-family="FreeSans.ttf" font-size="10.00" fill="#000000">iDynTree::LinearForceVector3</text>
</a>
</g>
</g>
<!-- Node4&#45;&gt;Node5 -->
<g id="edge5" class="edge">
<title>Node4&#45;&gt;Node5</title>
<path fill="none" stroke="#191970" d="M920.4944,-64.5C931.8528,-64.5 943.5783,-64.5 954.9871,-64.5"/>
<polygon fill="#191970" stroke="#191970" points="920.1861,-61.0001 910.1861,-64.5 920.186,-68.0001 920.1861,-61.0001"/>
</g>
<!-- Node7 -->
<g id="node8" class="node">
<title>Node7</title>
<g id="a_node8"><a xlink:href="classiDynTree_1_1AngularForceVector3.html" target="_top" xlink:title="Class providing the raw coordinates and semantics for any torque vector. ">
<polygon fill="none" stroke="#000000" points="951,-6 951,-25 1117,-25 1117,-6 951,-6"/>
<text text-anchor="middle" x="1034" y="-13" font-family="FreeSans.ttf" font-size="10.00" fill="#000000">iDynTree::AngularForceVector3</text>
</a>
</g>
</g>
<!-- Node6&#45;&gt;Node7 -->
<g id="edge7" class="edge">
<title>Node6&#45;&gt;Node7</title>
<path fill="none" stroke="#191970" d="M924.403,-15.5C933.1688,-15.5 942.1045,-15.5 950.9019,-15.5"/>
<polygon fill="#191970" stroke="#191970" points="924.2092,-12.0001 914.2092,-15.5 924.2091,-19.0001 924.2092,-12.0001"/>
</g>
</g>
</svg>
