<?xml version="1.0" encoding="UTF-8" standalone="no"?>
<!DOCTYPE svg PUBLIC "-//W3C//DTD SVG 1.1//EN"
 "http://www.w3.org/Graphics/SVG/1.1/DTD/svg11.dtd">
<!-- Generated by graphviz version 2.40.1 (20161225.0304)
 -->
<!-- Title: iDynTree::SpatialMotionVector Pages: 1 -->
<svg width="250pt" height="220pt"
 viewBox="0.00 0.00 250.00 220.00" xmlns="http://www.w3.org/2000/svg" xmlns:xlink="http://www.w3.org/1999/xlink">
<g id="graph0" class="graph" transform="scale(1 1) rotate(0) translate(4 216)">
<title>iDynTree::SpatialMotionVector</title>
<!-- Node0 -->
<g id="node1" class="node">
<title>Node0</title>
<polygon fill="#bfbfbf" stroke="#000000" points="36.5,-57.5 36.5,-76.5 199.5,-76.5 199.5,-57.5 36.5,-57.5"/>
<text text-anchor="middle" x="118" y="-64.5" font-family="FreeSans.ttf" font-size="10.00" fill="#000000">iDynTree::SpatialMotionVector</text>
</g>
<!-- Node3 -->
<g id="node4" class="node">
<title>Node3</title>
<g id="a_node4"><a xlink:href="classiDynTree_1_1SpatialAcc.html" target="_top" xlink:title="Class representing a spatial acceleration, i.e. ">
<polygon fill="none" stroke="#000000" points="0,-.5 0,-19.5 116,-19.5 116,-.5 0,-.5"/>
<text text-anchor="middle" x="58" y="-7.5" font-family="FreeSans.ttf" font-size="10.00" fill="#000000">iDynTree::SpatialAcc</text>
</a>
</g>
</g>
<!-- Node0&#45;&gt;Node3 -->
<g id="edge3" class="edge">
<title>Node0&#45;&gt;Node3</title>
<path fill="none" stroke="#191970" d="M100.3569,-50.239C89.8229,-40.2317 76.8258,-27.8845 68.0279,-19.5265"/>
<polygon fill="#191970" stroke="#191970" points="98.1612,-52.9807 107.8218,-57.3307 102.9824,-47.9057 98.1612,-52.9807"/>
</g>
<!-- Node4 -->
<g id="node5" class="node">
<title>Node4</title>
<g id="a_node5"><a xlink:href="classiDynTree_1_1Twist.html" target="_top" xlink:title="Class representing a twist, i.e. ">
<polygon fill="none" stroke="#000000" points="134,-.5 134,-19.5 224,-19.5 224,-.5 134,-.5"/>
<text text-anchor="middle" x="179" y="-7.5" font-family="FreeSans.ttf" font-size="10.00" fill="#000000">iDynTree::Twist</text>
</a>
</g>
</g>
<!-- Node0&#45;&gt;Node4 -->
<g id="edge4" class="edge">
<title>Node0&#45;&gt;Node4</title>
<path fill="none" stroke="#191970" d="M135.9372,-50.239C146.6467,-40.2317 159.8604,-27.8845 168.805,-19.5265"/>
<polygon fill="#191970" stroke="#191970" points="133.2648,-47.9459 128.3478,-57.3307 138.044,-53.0606 133.2648,-47.9459"/>
</g>
<!-- Node1 -->
<g id="node2" class="node">
<title>Node1</title>
<g id="a_node2"><a xlink:href="classiDynTree_1_1SpatialVector.html" target="_top" xlink:title="iDynTree::SpatialVector\l\&lt; SpatialMotionVector \&gt;">
<polygon fill="none" stroke="#000000" points="49.5,-114.5 49.5,-144.5 186.5,-144.5 186.5,-114.5 49.5,-114.5"/>
<text text-anchor="start" x="57.5" y="-132.5" font-family="FreeSans.ttf" font-size="10.00" fill="#000000">iDynTree::SpatialVector</text>
<text text-anchor="middle" x="118" y="-121.5" font-family="FreeSans.ttf" font-size="10.00" fill="#000000">&lt; SpatialMotionVector &gt;</text>
</a>
</g>
</g>
<!-- Node1&#45;&gt;Node0 -->
<g id="edge1" class="edge">
<title>Node1&#45;&gt;Node0</title>
<path fill="none" stroke="#191970" d="M118,-104.3498C118,-94.6481 118,-84.1303 118,-76.7356"/>
<polygon fill="#191970" stroke="#191970" points="114.5001,-104.3705 118,-114.3705 121.5001,-104.3705 114.5001,-104.3705"/>
</g>
<!-- Node2 -->
<g id="node3" class="node">
<title>Node2</title>
<g id="a_node3"><a xlink:href="classiDynTree_1_1SpatialVector.html" target="_top" xlink:title="iDynTree::SpatialVector">
<polygon fill="none" stroke="#000000" points="53,-192.5 53,-211.5 183,-211.5 183,-192.5 53,-192.5"/>
<text text-anchor="middle" x="118" y="-199.5" font-family="FreeSans.ttf" font-size="10.00" fill="#000000">iDynTree::SpatialVector</text>
</a>
</g>
</g>
<!-- Node2&#45;&gt;Node1 -->
<g id="edge2" class="edge">
<title>Node2&#45;&gt;Node1</title>
<path fill="none" stroke="#ffa500" stroke-dasharray="5,2" d="M118,-182.0177C118,-170.2164 118,-155.513 118,-144.668"/>
<polygon fill="#ffa500" stroke="#ffa500" points="114.5001,-182.2223 118,-192.2223 121.5001,-182.2224 114.5001,-182.2223"/>
<text text-anchor="middle" x="180" y="-166" font-family="FreeSans.ttf" font-size="10.00" fill="#000000"> &lt; SpatialMotionVector &gt;</text>
</g>
</g>
</svg>
