<?xml version="1.0" encoding="UTF-8" standalone="no"?>
<!DOCTYPE svg PUBLIC "-//W3C//DTD SVG 1.1//EN"
 "http://www.w3.org/Graphics/SVG/1.1/DTD/svg11.dtd">
<!-- Generated by graphviz version 2.40.1 (20161225.0304)
 -->
<!-- Title: config.h Pages: 1 -->
<svg width="182pt" height="84pt"
 viewBox="0.00 0.00 181.50 84.00" xmlns="http://www.w3.org/2000/svg" xmlns:xlink="http://www.w3.org/1999/xlink">
<g id="graph0" class="graph" transform="scale(1 1) rotate(0) translate(4 80)">
<title>config.h</title>
<!-- Node1 -->
<g id="node1" class="node">
<title>Node1</title>
<polygon fill="#bfbfbf" stroke="#000000" points="67,-56.5 67,-75.5 122,-75.5 122,-56.5 67,-56.5"/>
<text text-anchor="middle" x="94.5" y="-63.5" font-family="FreeSans.ttf" font-size="10.00" fill="#000000">config.h</text>
</g>
<!-- Node2 -->
<g id="node2" class="node">
<title>Node2</title>
<g id="a_node2"><a xlink:href="urdf__export_8cpp.html" target="_top" xlink:title="urdf_export.cpp">
<polygon fill="none" stroke="#000000" points="0,-.5 0,-19.5 93,-19.5 93,-.5 0,-.5"/>
<text text-anchor="middle" x="46.5" y="-7.5" font-family="FreeSans.ttf" font-size="10.00" fill="#000000">urdf_export.cpp</text>
</a>
</g>
</g>
<!-- Node1&#45;&gt;Node2 -->
<g id="edge1" class="edge">
<title>Node1&#45;&gt;Node2</title>
<path fill="none" stroke="#191970" d="M79.5003,-48.5004C71.3378,-38.9775 61.5511,-27.5596 54.7651,-19.6427"/>
<polygon fill="#191970" stroke="#191970" points="76.9737,-50.9307 86.139,-56.2455 82.2885,-46.3752 76.9737,-50.9307"/>
</g>
<!-- Node3 -->
<g id="node3" class="node">
<title>Node3</title>
<g id="a_node3"><a xlink:href="idyntree-sole-gui_2src_2main_8cpp.html" target="_top" xlink:title="main.cpp">
<polygon fill="none" stroke="#000000" points="111.5,-.5 111.5,-19.5 173.5,-19.5 173.5,-.5 111.5,-.5"/>
<text text-anchor="middle" x="142.5" y="-7.5" font-family="FreeSans.ttf" font-size="10.00" fill="#000000">main.cpp</text>
</a>
</g>
</g>
<!-- Node1&#45;&gt;Node3 -->
<g id="edge2" class="edge">
<title>Node1&#45;&gt;Node3</title>
<path fill="none" stroke="#191970" d="M109.4997,-48.5004C117.6622,-38.9775 127.4489,-27.5596 134.2349,-19.6427"/>
<polygon fill="#191970" stroke="#191970" points="106.7115,-46.3752 102.861,-56.2455 112.0263,-50.9307 106.7115,-46.3752"/>
</g>
</g>
</svg>
