<?xml version="1.0" encoding="UTF-8" standalone="no"?>
<!DOCTYPE svg PUBLIC "-//W3C//DTD SVG 1.1//EN"
 "http://www.w3.org/Graphics/SVG/1.1/DTD/svg11.dtd">
<!-- Generated by graphviz version 2.40.1 (20161225.0304)
 -->
<!-- Title: ConstraintsGroup.h Pages: 1 -->
<svg width="418pt" height="84pt"
 viewBox="0.00 0.00 418.00 84.00" xmlns="http://www.w3.org/2000/svg" xmlns:xlink="http://www.w3.org/1999/xlink">
<g id="graph0" class="graph" transform="scale(1 1) rotate(0) translate(4 80)">
<title>ConstraintsGroup.h</title>
<!-- Node8 -->
<g id="node1" class="node">
<title>Node8</title>
<polygon fill="#bfbfbf" stroke="#000000" points="124,-56.5 124,-75.5 234,-75.5 234,-56.5 124,-56.5"/>
<text text-anchor="middle" x="179" y="-63.5" font-family="FreeSans.ttf" font-size="10.00" fill="#000000">ConstraintsGroup.h</text>
</g>
<!-- Node9 -->
<g id="node2" class="node">
<title>Node9</title>
<g id="a_node2"><a xlink:href="OptimalControl_8h.html" target="_top" xlink:title="OptimalControl.h">
<polygon fill="none" stroke="#000000" points="0,-.5 0,-19.5 100,-19.5 100,-.5 0,-.5"/>
<text text-anchor="middle" x="50" y="-7.5" font-family="FreeSans.ttf" font-size="10.00" fill="#000000">OptimalControl.h</text>
</a>
</g>
</g>
<!-- Node8&#45;&gt;Node9 -->
<g id="edge1" class="edge">
<title>Node8&#45;&gt;Node9</title>
<path fill="none" stroke="#191970" d="M147.6329,-52.3833C124.1716,-42.1985 92.6815,-28.5284 71.8865,-19.5011"/>
<polygon fill="#191970" stroke="#191970" points="146.2574,-55.6017 156.8241,-56.3733 149.0449,-49.1806 146.2574,-55.6017"/>
</g>
<!-- Node10 -->
<g id="node3" class="node">
<title>Node10</title>
<g id="a_node3"><a xlink:href="ConstraintsGroup_8cpp.html" target="_top" xlink:title="ConstraintsGroup.cpp">
<polygon fill="none" stroke="#000000" points="118,-.5 118,-19.5 240,-19.5 240,-.5 118,-.5"/>
<text text-anchor="middle" x="179" y="-7.5" font-family="FreeSans.ttf" font-size="10.00" fill="#000000">ConstraintsGroup.cpp</text>
</a>
</g>
</g>
<!-- Node8&#45;&gt;Node10 -->
<g id="edge2" class="edge">
<title>Node8&#45;&gt;Node10</title>
<path fill="none" stroke="#191970" d="M179,-46.1575C179,-37.155 179,-26.9199 179,-19.6427"/>
<polygon fill="#191970" stroke="#191970" points="175.5001,-46.2455 179,-56.2455 182.5001,-46.2456 175.5001,-46.2455"/>
</g>
<!-- Node11 -->
<g id="node4" class="node">
<title>Node11</title>
<g id="a_node4"><a xlink:href="OptimalControlProblem_8cpp.html" target="_top" xlink:title="OptimalControlProblem.cpp">
<polygon fill="none" stroke="#000000" points="258,-.5 258,-19.5 410,-19.5 410,-.5 258,-.5"/>
<text text-anchor="middle" x="334" y="-7.5" font-family="FreeSans.ttf" font-size="10.00" fill="#000000">OptimalControlProblem.cpp</text>
</a>
</g>
</g>
<!-- Node8&#45;&gt;Node11 -->
<g id="edge3" class="edge">
<title>Node8&#45;&gt;Node11</title>
<path fill="none" stroke="#191970" d="M215.1949,-52.9231C243.5297,-42.686 282.2718,-28.6889 307.7022,-19.5011"/>
<polygon fill="#191970" stroke="#191970" points="213.8612,-49.6835 205.6454,-56.3733 216.2398,-56.267 213.8612,-49.6835"/>
</g>
</g>
</svg>
