<?xml version="1.0" encoding="UTF-8" standalone="no"?>
<!DOCTYPE svg PUBLIC "-//W3C//DTD SVG 1.1//EN"
 "http://www.w3.org/Graphics/SVG/1.1/DTD/svg11.dtd">
<!-- Generated by graphviz version 2.40.1 (20161225.0304)
 -->
<!-- Title: ControlledDynamicalSystem.cpp Pages: 1 -->
<svg width="818pt" height="319pt"
 viewBox="0.00 0.00 817.50 319.00" xmlns="http://www.w3.org/2000/svg" xmlns:xlink="http://www.w3.org/1999/xlink">
<g id="graph0" class="graph" transform="scale(1 1) rotate(0) translate(4 315)">
<title>ControlledDynamicalSystem.cpp</title>
<!-- Node0 -->
<g id="node1" class="node">
<title>Node0</title>
<polygon fill="#bfbfbf" stroke="#000000" points="194,-291.5 194,-310.5 370,-310.5 370,-291.5 194,-291.5"/>
<text text-anchor="middle" x="282" y="-298.5" font-family="FreeSans.ttf" font-size="10.00" fill="#000000">ControlledDynamicalSystem.cpp</text>
</g>
<!-- Node1 -->
<g id="node2" class="node">
<title>Node1</title>
<g id="a_node2"><a xlink:href="ControlledDynamicalSystem_8h.html" target="_top" xlink:title="iDynTree/ControlledDynamical\lSystem.h">
<polygon fill="none" stroke="#000000" points="199.5,-224.5 199.5,-254.5 364.5,-254.5 364.5,-224.5 199.5,-224.5"/>
<text text-anchor="start" x="207.5" y="-242.5" font-family="FreeSans.ttf" font-size="10.00" fill="#000000">iDynTree/ControlledDynamical</text>
<text text-anchor="middle" x="282" y="-231.5" font-family="FreeSans.ttf" font-size="10.00" fill="#000000">System.h</text>
</a>
</g>
</g>
<!-- Node0&#45;&gt;Node1 -->
<g id="edge1" class="edge">
<title>Node0&#45;&gt;Node1</title>
<path fill="none" stroke="#191970" d="M282,-291.3906C282,-284.2234 282,-274.0862 282,-264.671"/>
<polygon fill="#191970" stroke="#191970" points="285.5001,-264.5446 282,-254.5446 278.5001,-264.5446 285.5001,-264.5446"/>
</g>
<!-- Node5 -->
<g id="node6" class="node">
<title>Node5</title>
<polygon fill="none" stroke="#bfbfbf" points="0,-.5 0,-19.5 52,-19.5 52,-.5 0,-.5"/>
<text text-anchor="middle" x="26" y="-7.5" font-family="FreeSans.ttf" font-size="10.00" fill="#000000">cassert</text>
</g>
<!-- Node0&#45;&gt;Node5 -->
<g id="edge26" class="edge">
<title>Node0&#45;&gt;Node5</title>
<path fill="none" stroke="#191970" d="M252.2004,-291.4911C232.6357,-284.0494 207.5195,-272.076 190,-255 162.2354,-227.9382 149,-216.7713 149,-178 149,-178 149,-178 149,-122 149,-73.8817 96.9004,-40.9564 60.5167,-23.8297"/>
<polygon fill="#191970" stroke="#191970" points="61.742,-20.5428 51.1877,-19.6172 58.8612,-26.9225 61.742,-20.5428"/>
</g>
<!-- Node16 -->
<g id="node17" class="node">
<title>Node16</title>
<g id="a_node17"><a xlink:href="Utils_8h.html" target="_top" xlink:title="iDynTree/Core/Utils.h">
<polygon fill="none" stroke="#000000" points="690.5,-56.5 690.5,-75.5 809.5,-75.5 809.5,-56.5 690.5,-56.5"/>
<text text-anchor="middle" x="750" y="-63.5" font-family="FreeSans.ttf" font-size="10.00" fill="#000000">iDynTree/Core/Utils.h</text>
</a>
</g>
</g>
<!-- Node0&#45;&gt;Node16 -->
<g id="edge25" class="edge">
<title>Node0&#45;&gt;Node16</title>
<path fill="none" stroke="#191970" d="M313.6987,-291.421C383.0812,-269.6268 552.1657,-211.9586 677,-132 698.8506,-118.0043 720.468,-97.3855 734.4384,-82.928"/>
<polygon fill="#191970" stroke="#191970" points="737.0322,-85.2791 741.3659,-75.6111 731.949,-80.4664 737.0322,-85.2791"/>
</g>
<!-- Node2 -->
<g id="node3" class="node">
<title>Node2</title>
<g id="a_node3"><a xlink:href="DynamicalSystem_8h.html" target="_top" xlink:title="iDynTree/DynamicalSystem.h">
<polygon fill="none" stroke="#000000" points="330.5,-168.5 330.5,-187.5 491.5,-187.5 491.5,-168.5 330.5,-168.5"/>
<text text-anchor="middle" x="411" y="-175.5" font-family="FreeSans.ttf" font-size="10.00" fill="#000000">iDynTree/DynamicalSystem.h</text>
</a>
</g>
</g>
<!-- Node1&#45;&gt;Node2 -->
<g id="edge2" class="edge">
<title>Node1&#45;&gt;Node2</title>
<path fill="none" stroke="#191970" d="M313.557,-224.4554C334.4201,-214.509 361.5691,-201.5659 381.9098,-191.8686"/>
<polygon fill="#191970" stroke="#191970" points="383.4891,-194.9931 391.0096,-187.5303 380.4767,-188.6744 383.4891,-194.9931"/>
</g>
<!-- Node19 -->
<g id="node20" class="node">
<title>Node19</title>
<g id="a_node20"><a xlink:href="Controller_8h.html" target="_top" xlink:title="iDynTree/Controller.h">
<polygon fill="none" stroke="#000000" points="190.5,-112.5 190.5,-131.5 309.5,-131.5 309.5,-112.5 190.5,-112.5"/>
<text text-anchor="middle" x="250" y="-119.5" font-family="FreeSans.ttf" font-size="10.00" fill="#000000">iDynTree/Controller.h</text>
</a>
</g>
</g>
<!-- Node1&#45;&gt;Node19 -->
<g id="edge22" class="edge">
<title>Node1&#45;&gt;Node19</title>
<path fill="none" stroke="#191970" d="M278.0653,-224.4167C274.2698,-209.9336 268.3316,-187.4475 263,-168 260.5895,-159.2073 257.8538,-149.4899 255.5159,-141.2606"/>
<polygon fill="#191970" stroke="#191970" points="258.8414,-140.159 252.7325,-131.5026 252.1098,-142.0792 258.8414,-140.159"/>
</g>
<!-- Node20 -->
<g id="node21" class="node">
<title>Node20</title>
<polygon fill="none" stroke="#bfbfbf" points="196,-168.5 196,-187.5 254,-187.5 254,-168.5 196,-168.5"/>
<text text-anchor="middle" x="225" y="-175.5" font-family="FreeSans.ttf" font-size="10.00" fill="#000000">memory</text>
</g>
<!-- Node1&#45;&gt;Node20 -->
<g id="edge24" class="edge">
<title>Node1&#45;&gt;Node20</title>
<path fill="none" stroke="#191970" d="M267.9101,-224.2977C259.7507,-215.4941 249.4528,-204.3833 240.9905,-195.2529"/>
<polygon fill="#191970" stroke="#191970" points="243.4911,-192.8021 234.1264,-187.8469 238.3571,-197.5604 243.4911,-192.8021"/>
</g>
<!-- Node3 -->
<g id="node4" class="node">
<title>Node3</title>
<g id="a_node4"><a xlink:href="VectorDynSize_8h.html" target="_top" xlink:title="iDynTree/Core/VectorDynSize.h">
<polygon fill="none" stroke="#000000" points="327.5,-112.5 327.5,-131.5 494.5,-131.5 494.5,-112.5 327.5,-112.5"/>
<text text-anchor="middle" x="411" y="-119.5" font-family="FreeSans.ttf" font-size="10.00" fill="#000000">iDynTree/Core/VectorDynSize.h</text>
</a>
</g>
</g>
<!-- Node2&#45;&gt;Node3 -->
<g id="edge3" class="edge">
<title>Node2&#45;&gt;Node3</title>
<path fill="none" stroke="#191970" d="M411,-168.2455C411,-160.9382 411,-150.6944 411,-141.7046"/>
<polygon fill="#191970" stroke="#191970" points="414.5001,-141.6426 411,-131.6427 407.5001,-141.6427 414.5001,-141.6426"/>
</g>
<!-- Node15 -->
<g id="node16" class="node">
<title>Node15</title>
<g id="a_node16"><a xlink:href="SparsityStructure_8h.html" target="_top" xlink:title="iDynTree/SparsityStructure.h">
<polygon fill="none" stroke="#000000" points="512.5,-112.5 512.5,-131.5 667.5,-131.5 667.5,-112.5 512.5,-112.5"/>
<text text-anchor="middle" x="590" y="-119.5" font-family="FreeSans.ttf" font-size="10.00" fill="#000000">iDynTree/SparsityStructure.h</text>
</a>
</g>
</g>
<!-- Node2&#45;&gt;Node15 -->
<g id="edge15" class="edge">
<title>Node2&#45;&gt;Node15</title>
<path fill="none" stroke="#191970" d="M441.7712,-168.3733C471.665,-159.021 517.2093,-144.7725 549.9217,-134.5385"/>
<polygon fill="#191970" stroke="#191970" points="551.1315,-137.8273 559.6303,-131.5011 549.0414,-131.1466 551.1315,-137.8273"/>
</g>
<!-- Node4 -->
<g id="node5" class="node">
<title>Node4</title>
<g id="a_node5"><a xlink:href="Span_8h.html" target="_top" xlink:title="iDynTree/Core/Span.h">
<polygon fill="none" stroke="#000000" points="242.5,-56.5 242.5,-75.5 363.5,-75.5 363.5,-56.5 242.5,-56.5"/>
<text text-anchor="middle" x="303" y="-63.5" font-family="FreeSans.ttf" font-size="10.00" fill="#000000">iDynTree/Core/Span.h</text>
</a>
</g>
</g>
<!-- Node3&#45;&gt;Node4 -->
<g id="edge4" class="edge">
<title>Node3&#45;&gt;Node4</title>
<path fill="none" stroke="#191970" d="M392.1878,-112.2455C375.1527,-103.4125 349.8425,-90.2887 330.5319,-80.2758"/>
<polygon fill="#191970" stroke="#191970" points="332.0853,-77.1388 321.5966,-75.6427 328.863,-83.353 332.0853,-77.1388"/>
</g>
<!-- Node14 -->
<g id="node15" class="node">
<title>Node14</title>
<polygon fill="none" stroke="#bfbfbf" points="420,-56.5 420,-75.5 464,-75.5 464,-56.5 420,-56.5"/>
<text text-anchor="middle" x="442" y="-63.5" font-family="FreeSans.ttf" font-size="10.00" fill="#000000">string</text>
</g>
<!-- Node3&#45;&gt;Node14 -->
<g id="edge14" class="edge">
<title>Node3&#45;&gt;Node14</title>
<path fill="none" stroke="#191970" d="M416.3998,-112.2455C420.6227,-104.617 426.6173,-93.7881 431.7441,-84.5267"/>
<polygon fill="#191970" stroke="#191970" points="434.881,-86.0867 436.6621,-75.6427 428.7568,-82.6965 434.881,-86.0867"/>
</g>
<!-- Node4&#45;&gt;Node5 -->
<g id="edge5" class="edge">
<title>Node4&#45;&gt;Node5</title>
<path fill="none" stroke="#191970" d="M244.9907,-56.492C198.0785,-48.4577 130.1474,-36.0476 62.3115,-20.161"/>
<polygon fill="#191970" stroke="#191970" points="62.8435,-16.6903 52.3061,-17.792 61.2306,-23.502 62.8435,-16.6903"/>
</g>
<!-- Node6 -->
<g id="node7" class="node">
<title>Node6</title>
<polygon fill="none" stroke="#bfbfbf" points="134,-.5 134,-19.5 198,-19.5 198,-.5 134,-.5"/>
<text text-anchor="middle" x="166" y="-7.5" font-family="FreeSans.ttf" font-size="10.00" fill="#000000">algorithm</text>
</g>
<!-- Node4&#45;&gt;Node6 -->
<g id="edge6" class="edge">
<title>Node4&#45;&gt;Node6</title>
<path fill="none" stroke="#191970" d="M279.4489,-56.3733C257.1609,-47.2629 223.5063,-33.5062 198.6363,-23.3404"/>
<polygon fill="#191970" stroke="#191970" points="199.8247,-20.0451 189.2438,-19.5011 197.1761,-26.5247 199.8247,-20.0451"/>
</g>
<!-- Node7 -->
<g id="node8" class="node">
<title>Node7</title>
<polygon fill="none" stroke="#bfbfbf" points="216,-.5 216,-19.5 258,-19.5 258,-.5 216,-.5"/>
<text text-anchor="middle" x="237" y="-7.5" font-family="FreeSans.ttf" font-size="10.00" fill="#000000">array</text>
</g>
<!-- Node4&#45;&gt;Node7 -->
<g id="edge7" class="edge">
<title>Node4&#45;&gt;Node7</title>
<path fill="none" stroke="#191970" d="M291.5037,-56.2455C281.7558,-47.9746 267.5741,-35.9416 256.1202,-26.2232"/>
<polygon fill="#191970" stroke="#191970" points="258.2541,-23.4437 248.3646,-19.6427 253.7253,-28.7813 258.2541,-23.4437"/>
</g>
<!-- Node8 -->
<g id="node9" class="node">
<title>Node8</title>
<polygon fill="none" stroke="#bfbfbf" points="580.5,-.5 580.5,-19.5 633.5,-19.5 633.5,-.5 580.5,-.5"/>
<text text-anchor="middle" x="607" y="-7.5" font-family="FreeSans.ttf" font-size="10.00" fill="#000000">cstddef</text>
</g>
<!-- Node4&#45;&gt;Node8 -->
<g id="edge8" class="edge">
<title>Node4&#45;&gt;Node8</title>
<path fill="none" stroke="#191970" d="M363.7346,-57.546C416.254,-49.797 494.3591,-37.2272 570.5597,-20.16"/>
<polygon fill="#191970" stroke="#191970" points="571.3462,-23.5706 580.3244,-17.9455 569.7979,-16.744 571.3462,-23.5706"/>
</g>
<!-- Node9 -->
<g id="node10" class="node">
<title>Node9</title>
<polygon fill="none" stroke="#bfbfbf" points="276.5,-.5 276.5,-19.5 329.5,-19.5 329.5,-.5 276.5,-.5"/>
<text text-anchor="middle" x="303" y="-7.5" font-family="FreeSans.ttf" font-size="10.00" fill="#000000">iterator</text>
</g>
<!-- Node4&#45;&gt;Node9 -->
<g id="edge9" class="edge">
<title>Node4&#45;&gt;Node9</title>
<path fill="none" stroke="#191970" d="M303,-56.2455C303,-48.9382 303,-38.6944 303,-29.7046"/>
<polygon fill="#191970" stroke="#191970" points="306.5001,-29.6426 303,-19.6427 299.5001,-29.6427 306.5001,-29.6426"/>
</g>
<!-- Node10 -->
<g id="node11" class="node">
<title>Node10</title>
<polygon fill="none" stroke="#bfbfbf" points="348,-.5 348,-19.5 392,-19.5 392,-.5 348,-.5"/>
<text text-anchor="middle" x="370" y="-7.5" font-family="FreeSans.ttf" font-size="10.00" fill="#000000">limits</text>
</g>
<!-- Node4&#45;&gt;Node10 -->
<g id="edge10" class="edge">
<title>Node4&#45;&gt;Node10</title>
<path fill="none" stroke="#191970" d="M314.6705,-56.2455C324.5661,-47.9746 338.9627,-35.9416 350.5901,-26.2232"/>
<polygon fill="#191970" stroke="#191970" points="353.035,-28.7413 358.4632,-19.6427 348.5458,-23.3703 353.035,-28.7413"/>
</g>
<!-- Node11 -->
<g id="node12" class="node">
<title>Node11</title>
<polygon fill="none" stroke="#bfbfbf" points="410.5,-.5 410.5,-19.5 475.5,-19.5 475.5,-.5 410.5,-.5"/>
<text text-anchor="middle" x="443" y="-7.5" font-family="FreeSans.ttf" font-size="10.00" fill="#000000">stdexcept</text>
</g>
<!-- Node4&#45;&gt;Node11 -->
<g id="edge11" class="edge">
<title>Node4&#45;&gt;Node11</title>
<path fill="none" stroke="#191970" d="M327.0669,-56.3733C349.8428,-47.2629 384.2344,-33.5062 409.649,-23.3404"/>
<polygon fill="#191970" stroke="#191970" points="411.2623,-26.4648 419.2472,-19.5011 408.6625,-19.9654 411.2623,-26.4648"/>
</g>
<!-- Node12 -->
<g id="node13" class="node">
<title>Node12</title>
<polygon fill="none" stroke="#bfbfbf" points="493.5,-.5 493.5,-19.5 562.5,-19.5 562.5,-.5 493.5,-.5"/>
<text text-anchor="middle" x="528" y="-7.5" font-family="FreeSans.ttf" font-size="10.00" fill="#000000">type_traits</text>
</g>
<!-- Node4&#45;&gt;Node12 -->
<g id="edge12" class="edge">
<title>Node4&#45;&gt;Node12</title>
<path fill="none" stroke="#191970" d="M341.4232,-56.4369C380.8471,-46.6247 442.119,-31.3748 483.5948,-21.052"/>
<polygon fill="#191970" stroke="#191970" points="484.5685,-24.4165 493.4271,-18.6048 482.8778,-17.6237 484.5685,-24.4165"/>
</g>
<!-- Node13 -->
<g id="node14" class="node">
<title>Node13</title>
<polygon fill="none" stroke="#bfbfbf" points="70.5,-.5 70.5,-19.5 115.5,-19.5 115.5,-.5 70.5,-.5"/>
<text text-anchor="middle" x="93" y="-7.5" font-family="FreeSans.ttf" font-size="10.00" fill="#000000">utility</text>
</g>
<!-- Node4&#45;&gt;Node13 -->
<g id="edge13" class="edge">
<title>Node4&#45;&gt;Node13</title>
<path fill="none" stroke="#191970" d="M263.6078,-56.4203C229.4856,-47.9882 178.5933,-35.0926 125.3049,-19.9867"/>
<polygon fill="#191970" stroke="#191970" points="126.2601,-16.6196 115.6836,-17.2424 124.34,-23.3511 126.2601,-16.6196"/>
</g>
<!-- Node15&#45;&gt;Node8 -->
<g id="edge19" class="edge">
<title>Node15&#45;&gt;Node8</title>
<path fill="none" stroke="#191970" d="M585.269,-112.4645C579.484,-99.5091 571.1432,-75.702 577,-56 580.0326,-45.7984 586.1244,-35.7475 592.0309,-27.6555"/>
<polygon fill="#191970" stroke="#191970" points="594.823,-29.7667 598.2139,-19.7291 589.3036,-25.4613 594.823,-29.7667"/>
</g>
<!-- Node15&#45;&gt;Node14 -->
<g id="edge21" class="edge">
<title>Node15&#45;&gt;Node14</title>
<path fill="none" stroke="#191970" d="M564.5579,-112.3733C539.3841,-102.848 500.7872,-88.2438 473.6477,-77.9748"/>
<polygon fill="#191970" stroke="#191970" points="474.8049,-74.6705 464.2134,-74.4051 472.3276,-81.2176 474.8049,-74.6705"/>
</g>
<!-- Node15&#45;&gt;Node16 -->
<g id="edge16" class="edge">
<title>Node15&#45;&gt;Node16</title>
<path fill="none" stroke="#191970" d="M617.505,-112.3733C643.8802,-103.1419 683.8851,-89.1402 713.0358,-78.9375"/>
<polygon fill="#191970" stroke="#191970" points="714.5716,-82.1082 722.8539,-75.5011 712.2591,-75.5012 714.5716,-82.1082"/>
</g>
<!-- Node17 -->
<g id="node18" class="node">
<title>Node17</title>
<polygon fill="none" stroke="#bfbfbf" points="482.5,-56.5 482.5,-75.5 529.5,-75.5 529.5,-56.5 482.5,-56.5"/>
<text text-anchor="middle" x="506" y="-63.5" font-family="FreeSans.ttf" font-size="10.00" fill="#000000">vector</text>
</g>
<!-- Node15&#45;&gt;Node17 -->
<g id="edge18" class="edge">
<title>Node15&#45;&gt;Node17</title>
<path fill="none" stroke="#191970" d="M575.3683,-112.2455C562.6006,-103.7337 543.8562,-91.2375 529.0701,-81.3801"/>
<polygon fill="#191970" stroke="#191970" points="530.726,-78.2775 520.464,-75.6427 526.8431,-84.1019 530.726,-78.2775"/>
</g>
<!-- Node18 -->
<g id="node19" class="node">
<title>Node18</title>
<polygon fill="none" stroke="#bfbfbf" points="586,-56.5 586,-75.5 672,-75.5 672,-56.5 586,-56.5"/>
<text text-anchor="middle" x="629" y="-63.5" font-family="FreeSans.ttf" font-size="10.00" fill="#000000">unordered_set</text>
</g>
<!-- Node15&#45;&gt;Node18 -->
<g id="edge20" class="edge">
<title>Node15&#45;&gt;Node18</title>
<path fill="none" stroke="#191970" d="M596.7933,-112.2455C602.2178,-104.4564 609.9661,-93.3308 616.5033,-83.9439"/>
<polygon fill="#191970" stroke="#191970" points="619.4417,-85.849 622.2846,-75.6427 613.6975,-81.8485 619.4417,-85.849"/>
</g>
<!-- Node16&#45;&gt;Node8 -->
<g id="edge17" class="edge">
<title>Node16&#45;&gt;Node8</title>
<path fill="none" stroke="#191970" d="M725.4174,-56.3733C702.0504,-47.2226 666.7138,-33.3844 640.7216,-23.2057"/>
<polygon fill="#191970" stroke="#191970" points="641.8495,-19.8886 631.2618,-19.5011 639.297,-26.4066 641.8495,-19.8886"/>
</g>
<!-- Node19&#45;&gt;Node8 -->
<g id="edge23" class="edge">
<title>Node19&#45;&gt;Node8</title>
<path fill="none" stroke="#191970" d="M278.7475,-112.4077C303.942,-103.7281 341.3745,-90.1678 373,-76 390.4173,-68.1973 393.0865,-62.5843 411,-56 476.8638,-31.7912 499.0382,-37.5058 570.376,-20.2699"/>
<polygon fill="#191970" stroke="#191970" points="571.4305,-23.6143 580.2905,-17.8047 569.7414,-16.8212 571.4305,-23.6143"/>
</g>
</g>
</svg>
