<?xml version="1.0" encoding="UTF-8" standalone="no"?>
<!DOCTYPE svg PUBLIC "-//W3C//DTD SVG 1.1//EN"
 "http://www.w3.org/Graphics/SVG/1.1/DTD/svg11.dtd">
<!-- Generated by graphviz version 2.40.1 (20161225.0304)
 -->
<!-- Title: ContactWrench.h Pages: 1 -->
<svg width="696pt" height="162pt"
 viewBox="0.00 0.00 696.00 162.00" xmlns="http://www.w3.org/2000/svg" xmlns:xlink="http://www.w3.org/1999/xlink">
<g id="graph0" class="graph" transform="scale(1 1) rotate(0) translate(4 158)">
<title>ContactWrench.h</title>
<!-- Node46 -->
<g id="node1" class="node">
<title>Node46</title>
<polygon fill="#bfbfbf" stroke="#000000" points="252.5,-134.5 252.5,-153.5 351.5,-153.5 351.5,-134.5 252.5,-134.5"/>
<text text-anchor="middle" x="302" y="-141.5" font-family="FreeSans.ttf" font-size="10.00" fill="#000000">ContactWrench.h</text>
</g>
<!-- Node47 -->
<g id="node2" class="node">
<title>Node47</title>
<g id="a_node2"><a xlink:href="ExtWrenchesAndJointTorquesEstimator_8h.html" target="_top" xlink:title="ExtWrenchesAndJointTorques\lEstimator.h">
<polygon fill="none" stroke="#000000" points="0,-67.5 0,-97.5 158,-97.5 158,-67.5 0,-67.5"/>
<text text-anchor="start" x="8" y="-85.5" font-family="FreeSans.ttf" font-size="10.00" fill="#000000">ExtWrenchesAndJointTorques</text>
<text text-anchor="middle" x="79" y="-74.5" font-family="FreeSans.ttf" font-size="10.00" fill="#000000">Estimator.h</text>
</a>
</g>
</g>
<!-- Node46&#45;&gt;Node47 -->
<g id="edge1" class="edge">
<title>Node46&#45;&gt;Node47</title>
<path fill="none" stroke="#191970" d="M257.5047,-131.7289C221.84,-121.8931 171.6373,-108.048 133.5519,-97.5446"/>
<polygon fill="#191970" stroke="#191970" points="256.5856,-135.106 267.1563,-134.3906 258.4467,-128.3579 256.5856,-135.106"/>
</g>
<!-- Node48 -->
<g id="node3" class="node">
<title>Node48</title>
<g id="a_node3"><a xlink:href="ExtWrenchesAndJointTorquesEstimator_8cpp.html" target="_top" xlink:title="ExtWrenchesAndJointTorques\lEstimator.cpp">
<polygon fill="none" stroke="#000000" points="53,-.5 53,-30.5 211,-30.5 211,-.5 53,-.5"/>
<text text-anchor="start" x="61" y="-18.5" font-family="FreeSans.ttf" font-size="10.00" fill="#000000">ExtWrenchesAndJointTorques</text>
<text text-anchor="middle" x="132" y="-7.5" font-family="FreeSans.ttf" font-size="10.00" fill="#000000">Estimator.cpp</text>
</a>
</g>
</g>
<!-- Node46&#45;&gt;Node48 -->
<g id="edge4" class="edge">
<title>Node46&#45;&gt;Node48</title>
<path fill="none" stroke="#191970" d="M264.9261,-130.5708C245.9723,-122.7097 223.1417,-111.6379 205,-98 179.0117,-78.4635 155.3477,-48.4931 142.3813,-30.5616"/>
<polygon fill="#191970" stroke="#191970" points="263.8547,-133.9121 274.4389,-134.3856 266.4601,-127.415 263.8547,-133.9121"/>
</g>
<!-- Node49 -->
<g id="node4" class="node">
<title>Node49</title>
<g id="a_node4"><a xlink:href="ExternalWrenchesEstimation_8cpp.html" target="_top" xlink:title="ExternalWrenchesEstimation.cpp">
<polygon fill="none" stroke="#000000" points="213.5,-73 213.5,-92 390.5,-92 390.5,-73 213.5,-73"/>
<text text-anchor="middle" x="302" y="-80" font-family="FreeSans.ttf" font-size="10.00" fill="#000000">ExternalWrenchesEstimation.cpp</text>
</a>
</g>
</g>
<!-- Node46&#45;&gt;Node49 -->
<g id="edge3" class="edge">
<title>Node46&#45;&gt;Node49</title>
<path fill="none" stroke="#191970" d="M302,-124.2462C302,-113.5519 302,-100.814 302,-92.2449"/>
<polygon fill="#191970" stroke="#191970" points="298.5001,-124.3906 302,-134.3906 305.5001,-124.3907 298.5001,-124.3906"/>
</g>
<!-- Node50 -->
<g id="node5" class="node">
<title>Node50</title>
<g id="a_node5"><a xlink:href="skinDynLibConversions_8cpp.html" target="_top" xlink:title="skinDynLibConversions.cpp">
<polygon fill="none" stroke="#000000" points="408.5,-73 408.5,-92 559.5,-92 559.5,-73 408.5,-73"/>
<text text-anchor="middle" x="484" y="-80" font-family="FreeSans.ttf" font-size="10.00" fill="#000000">skinDynLibConversions.cpp</text>
</a>
</g>
</g>
<!-- Node46&#45;&gt;Node50 -->
<g id="edge5" class="edge">
<title>Node46&#45;&gt;Node50</title>
<path fill="none" stroke="#191970" d="M340.1731,-131.1009C374.6918,-119.4366 424.7236,-102.5302 455.7622,-92.0419"/>
<polygon fill="#191970" stroke="#191970" points="338.7908,-127.8735 330.4375,-134.3906 341.0317,-134.5051 338.7908,-127.8735"/>
</g>
<!-- Node51 -->
<g id="node6" class="node">
<title>Node51</title>
<g id="a_node6"><a xlink:href="ContactWrench_8cpp.html" target="_top" xlink:title="ContactWrench.cpp">
<polygon fill="none" stroke="#000000" points="578,-73 578,-92 688,-92 688,-73 578,-73"/>
<text text-anchor="middle" x="633" y="-80" font-family="FreeSans.ttf" font-size="10.00" fill="#000000">ContactWrench.cpp</text>
</a>
</g>
</g>
<!-- Node46&#45;&gt;Node51 -->
<g id="edge6" class="edge">
<title>Node46&#45;&gt;Node51</title>
<path fill="none" stroke="#191970" d="M362.0238,-134.8375C416.28,-126.2758 498.2506,-112.6447 569,-98 577.6202,-96.2157 586.8448,-94.1025 595.5304,-92.0196"/>
<polygon fill="#191970" stroke="#191970" points="361.2254,-131.4199 351.8893,-136.4286 362.3111,-138.3352 361.2254,-131.4199"/>
</g>
<!-- Node47&#45;&gt;Node48 -->
<g id="edge2" class="edge">
<title>Node47&#45;&gt;Node48</title>
<path fill="none" stroke="#191970" d="M97.312,-59.3509C104.8291,-49.8482 113.3209,-39.1132 120.0211,-30.6432"/>
<polygon fill="#191970" stroke="#191970" points="94.4856,-57.2824 91.0265,-67.2967 99.9756,-61.6252 94.4856,-57.2824"/>
</g>
</g>
</svg>
