<?xml version="1.0" encoding="UTF-8" standalone="no"?>
<!DOCTYPE svg PUBLIC "-//W3C//DTD SVG 1.1//EN"
 "http://www.w3.org/Graphics/SVG/1.1/DTD/svg11.dtd">
<!-- Generated by graphviz version 2.40.1 (20161225.0304)
 -->
<!-- Title: Cost.cpp Pages: 1 -->
<svg width="398pt" height="252pt"
 viewBox="0.00 0.00 397.50 252.00" xmlns="http://www.w3.org/2000/svg" xmlns:xlink="http://www.w3.org/1999/xlink">
<g id="graph0" class="graph" transform="scale(1 1) rotate(0) translate(4 248)">
<title>Cost.cpp</title>
<!-- Node0 -->
<g id="node1" class="node">
<title>Node0</title>
<polygon fill="#bfbfbf" stroke="#000000" points="273.5,-224.5 273.5,-243.5 332.5,-243.5 332.5,-224.5 273.5,-224.5"/>
<text text-anchor="middle" x="303" y="-231.5" font-family="FreeSans.ttf" font-size="10.00" fill="#000000">Cost.cpp</text>
</g>
<!-- Node1 -->
<g id="node2" class="node">
<title>Node1</title>
<g id="a_node2"><a xlink:href="Cost_8h.html" target="_top" xlink:title="iDynTree/Cost.h">
<polygon fill="none" stroke="#000000" points="124.5,-168.5 124.5,-187.5 217.5,-187.5 217.5,-168.5 124.5,-168.5"/>
<text text-anchor="middle" x="171" y="-175.5" font-family="FreeSans.ttf" font-size="10.00" fill="#000000">iDynTree/Cost.h</text>
</a>
</g>
</g>
<!-- Node0&#45;&gt;Node1 -->
<g id="edge1" class="edge">
<title>Node0&#45;&gt;Node1</title>
<path fill="none" stroke="#191970" d="M280.3084,-224.3733C258.9289,-215.3032 226.6943,-201.6279 202.7638,-191.4755"/>
<polygon fill="#191970" stroke="#191970" points="203.9683,-188.1846 193.3955,-187.5011 201.2344,-194.6287 203.9683,-188.1846"/>
</g>
<!-- Node4 -->
<g id="node5" class="node">
<title>Node4</title>
<g id="a_node5"><a xlink:href="Utils_8h.html" target="_top" xlink:title="iDynTree/Core/Utils.h">
<polygon fill="none" stroke="#000000" points="270.5,-56.5 270.5,-75.5 389.5,-75.5 389.5,-56.5 270.5,-56.5"/>
<text text-anchor="middle" x="330" y="-63.5" font-family="FreeSans.ttf" font-size="10.00" fill="#000000">iDynTree/Core/Utils.h</text>
</a>
</g>
</g>
<!-- Node0&#45;&gt;Node4 -->
<g id="edge10" class="edge">
<title>Node0&#45;&gt;Node4</title>
<path fill="none" stroke="#191970" d="M304.529,-224.4862C308.7971,-197.9293 320.9092,-122.5651 326.7591,-86.1655"/>
<polygon fill="#191970" stroke="#191970" points="330.2893,-86.2566 328.4205,-75.8279 323.378,-85.1458 330.2893,-86.2566"/>
</g>
<!-- Node8 -->
<g id="node9" class="node">
<title>Node8</title>
<polygon fill="none" stroke="#bfbfbf" points="331,-168.5 331,-187.5 387,-187.5 387,-168.5 331,-168.5"/>
<text text-anchor="middle" x="359" y="-175.5" font-family="FreeSans.ttf" font-size="10.00" fill="#000000">sstream</text>
</g>
<!-- Node0&#45;&gt;Node8 -->
<g id="edge11" class="edge">
<title>Node0&#45;&gt;Node8</title>
<path fill="none" stroke="#191970" d="M312.7545,-224.2455C320.8648,-216.1352 332.5925,-204.4075 342.2081,-194.7919"/>
<polygon fill="#191970" stroke="#191970" points="344.7611,-197.1887 349.3573,-187.6427 339.8113,-192.2389 344.7611,-197.1887"/>
</g>
<!-- Node2 -->
<g id="node3" class="node">
<title>Node2</title>
<polygon fill="none" stroke="#bfbfbf" points="0,-56.5 0,-75.5 44,-75.5 44,-56.5 0,-56.5"/>
<text text-anchor="middle" x="22" y="-63.5" font-family="FreeSans.ttf" font-size="10.00" fill="#000000">string</text>
</g>
<!-- Node1&#45;&gt;Node2 -->
<g id="edge2" class="edge">
<title>Node1&#45;&gt;Node2</title>
<path fill="none" stroke="#191970" d="M147.9762,-168.3665C129.6931,-160.1365 103.9713,-147.2297 84,-132 65.5727,-117.9477 47.8103,-98.1957 36.0566,-83.967"/>
<polygon fill="#191970" stroke="#191970" points="38.5671,-81.5047 29.5626,-75.9217 33.1201,-85.9014 38.5671,-81.5047"/>
</g>
<!-- Node3 -->
<g id="node4" class="node">
<title>Node3</title>
<g id="a_node4"><a xlink:href="SparsityStructure_8h.html" target="_top" xlink:title="iDynTree/SparsityStructure.h">
<polygon fill="none" stroke="#000000" points="93.5,-112.5 93.5,-131.5 248.5,-131.5 248.5,-112.5 93.5,-112.5"/>
<text text-anchor="middle" x="171" y="-119.5" font-family="FreeSans.ttf" font-size="10.00" fill="#000000">iDynTree/SparsityStructure.h</text>
</a>
</g>
</g>
<!-- Node1&#45;&gt;Node3 -->
<g id="edge3" class="edge">
<title>Node1&#45;&gt;Node3</title>
<path fill="none" stroke="#191970" d="M171,-168.2455C171,-160.9382 171,-150.6944 171,-141.7046"/>
<polygon fill="#191970" stroke="#191970" points="174.5001,-141.6426 171,-131.6427 167.5001,-141.6427 174.5001,-141.6426"/>
</g>
<!-- Node3&#45;&gt;Node2 -->
<g id="edge9" class="edge">
<title>Node3&#45;&gt;Node2</title>
<path fill="none" stroke="#191970" d="M145.386,-112.3733C120.0421,-102.848 81.1844,-88.2438 53.8615,-77.9748"/>
<polygon fill="#191970" stroke="#191970" points="54.9555,-74.647 44.3635,-74.4051 52.4928,-81.1995 54.9555,-74.647"/>
</g>
<!-- Node3&#45;&gt;Node4 -->
<g id="edge4" class="edge">
<title>Node3&#45;&gt;Node4</title>
<path fill="none" stroke="#191970" d="M198.3331,-112.3733C224.5434,-103.1419 264.2984,-89.1402 293.2668,-78.9375"/>
<polygon fill="#191970" stroke="#191970" points="294.7542,-82.1244 303.0236,-75.5011 292.4288,-75.5219 294.7542,-82.1244"/>
</g>
<!-- Node5 -->
<g id="node6" class="node">
<title>Node5</title>
<polygon fill="none" stroke="#bfbfbf" points="259.5,-.5 259.5,-19.5 312.5,-19.5 312.5,-.5 259.5,-.5"/>
<text text-anchor="middle" x="286" y="-7.5" font-family="FreeSans.ttf" font-size="10.00" fill="#000000">cstddef</text>
</g>
<!-- Node3&#45;&gt;Node5 -->
<g id="edge7" class="edge">
<title>Node3&#45;&gt;Node5</title>
<path fill="none" stroke="#191970" d="M182.4043,-112.3964C193.1082,-103.2701 209.4548,-89.0414 223,-76 239.6318,-59.9869 257.7464,-40.814 270.2644,-27.2698"/>
<polygon fill="#191970" stroke="#191970" points="273.0837,-29.3744 277.2721,-19.6426 267.929,-24.6384 273.0837,-29.3744"/>
</g>
<!-- Node6 -->
<g id="node7" class="node">
<title>Node6</title>
<polygon fill="none" stroke="#bfbfbf" points="62.5,-56.5 62.5,-75.5 109.5,-75.5 109.5,-56.5 62.5,-56.5"/>
<text text-anchor="middle" x="86" y="-63.5" font-family="FreeSans.ttf" font-size="10.00" fill="#000000">vector</text>
</g>
<!-- Node3&#45;&gt;Node6 -->
<g id="edge6" class="edge">
<title>Node3&#45;&gt;Node6</title>
<path fill="none" stroke="#191970" d="M156.1941,-112.2455C143.2744,-103.7337 124.3069,-91.2375 109.3448,-81.3801"/>
<polygon fill="#191970" stroke="#191970" points="110.9124,-78.2216 100.6362,-75.6427 107.0613,-84.067 110.9124,-78.2216"/>
</g>
<!-- Node7 -->
<g id="node8" class="node">
<title>Node7</title>
<polygon fill="none" stroke="#bfbfbf" points="128,-56.5 128,-75.5 214,-75.5 214,-56.5 128,-56.5"/>
<text text-anchor="middle" x="171" y="-63.5" font-family="FreeSans.ttf" font-size="10.00" fill="#000000">unordered_set</text>
</g>
<!-- Node3&#45;&gt;Node7 -->
<g id="edge8" class="edge">
<title>Node3&#45;&gt;Node7</title>
<path fill="none" stroke="#191970" d="M171,-112.2455C171,-104.9382 171,-94.6944 171,-85.7046"/>
<polygon fill="#191970" stroke="#191970" points="174.5001,-85.6426 171,-75.6427 167.5001,-85.6427 174.5001,-85.6426"/>
</g>
<!-- Node4&#45;&gt;Node5 -->
<g id="edge5" class="edge">
<title>Node4&#45;&gt;Node5</title>
<path fill="none" stroke="#191970" d="M322.3358,-56.2455C316.1527,-48.3761 307.2937,-37.101 299.8711,-27.6542"/>
<polygon fill="#191970" stroke="#191970" points="302.5068,-25.3435 293.5764,-19.6427 297.0025,-29.6683 302.5068,-25.3435"/>
</g>
</g>
</svg>
