<?xml version="1.0" encoding="UTF-8" standalone="no"?>
<!DOCTYPE svg PUBLIC "-//W3C//DTD SVG 1.1//EN"
 "http://www.w3.org/Graphics/SVG/1.1/DTD/svg11.dtd">
<!-- Generated by graphviz version 2.40.1 (20161225.0304)
 -->
<!-- Title: DenavitHartenberg.cpp Pages: 1 -->
<svg width="2258pt" height="755pt"
 viewBox="0.00 0.00 2257.89 755.00" xmlns="http://www.w3.org/2000/svg" xmlns:xlink="http://www.w3.org/1999/xlink">
<g id="graph0" class="graph" transform="scale(1 1) rotate(0) translate(4 751)">
<title>DenavitHartenberg.cpp</title>
<!-- Node0 -->
<g id="node1" class="node">
<title>Node0</title>
<polygon fill="#bfbfbf" stroke="#000000" points="659,-727.5 659,-746.5 789,-746.5 789,-727.5 659,-727.5"/>
<text text-anchor="middle" x="724" y="-734.5" font-family="FreeSans.ttf" font-size="10.00" fill="#000000">DenavitHartenberg.cpp</text>
</g>
<!-- Node1 -->
<g id="node2" class="node">
<title>Node1</title>
<g id="a_node2"><a xlink:href="DenavitHartenberg_8h.html" target="_top" xlink:title="iDynTree/Model/DenavitHartenberg.h">
<polygon fill="none" stroke="#000000" points="737.5,-671.5 737.5,-690.5 934.5,-690.5 934.5,-671.5 737.5,-671.5"/>
<text text-anchor="middle" x="836" y="-678.5" font-family="FreeSans.ttf" font-size="10.00" fill="#000000">iDynTree/Model/DenavitHartenberg.h</text>
</a>
</g>
</g>
<!-- Node0&#45;&gt;Node1 -->
<g id="edge1" class="edge">
<title>Node0&#45;&gt;Node1</title>
<path fill="none" stroke="#191970" d="M743.2535,-727.3733C761.0712,-718.4644 787.7747,-705.1127 807.9594,-695.0203"/>
<polygon fill="#191970" stroke="#191970" points="809.6187,-698.1038 816.9978,-690.5011 806.4882,-691.8428 809.6187,-698.1038"/>
</g>
<!-- Node54 -->
<g id="node36" class="node">
<title>Node54</title>
<g id="a_node36"><a xlink:href="ForwardKinematics_8h.html" target="_top" xlink:title="iDynTree/Model/ForwardKinematics.h">
<polygon fill="none" stroke="#000000" points="386.5,-671.5 386.5,-690.5 583.5,-690.5 583.5,-671.5 386.5,-671.5"/>
<text text-anchor="middle" x="485" y="-678.5" font-family="FreeSans.ttf" font-size="10.00" fill="#000000">iDynTree/Model/ForwardKinematics.h</text>
</a>
</g>
</g>
<!-- Node0&#45;&gt;Node54 -->
<g id="edge76" class="edge">
<title>Node0&#45;&gt;Node54</title>
<path fill="none" stroke="#191970" d="M683.186,-727.4369C642.3689,-717.8731 579.5041,-703.1432 535.5528,-692.845"/>
<polygon fill="#191970" stroke="#191970" points="536.1805,-689.3973 525.6457,-690.5237 534.5835,-696.2128 536.1805,-689.3973"/>
</g>
<!-- Node55 -->
<g id="node37" class="node">
<title>Node55</title>
<g id="a_node37"><a xlink:href="Traversal_8h.html" target="_top" xlink:title="iDynTree/Model/Traversal.h">
<polygon fill="none" stroke="#000000" points="544,-492.5 544,-511.5 692,-511.5 692,-492.5 544,-492.5"/>
<text text-anchor="middle" x="618" y="-499.5" font-family="FreeSans.ttf" font-size="10.00" fill="#000000">iDynTree/Model/Traversal.h</text>
</a>
</g>
</g>
<!-- Node0&#45;&gt;Node55 -->
<g id="edge78" class="edge">
<title>Node0&#45;&gt;Node55</title>
<path fill="none" stroke="#191970" d="M719.7134,-727.4967C703.8001,-692.2172 647.9304,-568.3551 626.4771,-520.7936"/>
<polygon fill="#191970" stroke="#191970" points="629.6422,-519.2981 622.34,-511.6216 623.2613,-522.1763 629.6422,-519.2981"/>
</g>
<!-- Node56 -->
<g id="node38" class="node">
<title>Node56</title>
<g id="a_node38"><a xlink:href="RevoluteJoint_8h.html" target="_top" xlink:title="iDynTree/Model/RevoluteJoint.h">
<polygon fill="none" stroke="#000000" points="56,-615.5 56,-634.5 224,-634.5 224,-615.5 56,-615.5"/>
<text text-anchor="middle" x="140" y="-622.5" font-family="FreeSans.ttf" font-size="10.00" fill="#000000">iDynTree/Model/RevoluteJoint.h</text>
</a>
</g>
</g>
<!-- Node0&#45;&gt;Node56 -->
<g id="edge81" class="edge">
<title>Node0&#45;&gt;Node56</title>
<path fill="none" stroke="#191970" d="M658.84,-734.0872C547.803,-728.5498 326.7714,-714.8745 253,-691 218.0438,-679.6872 182.1582,-656.3292 160.4671,-640.6587"/>
<polygon fill="#191970" stroke="#191970" points="162.4746,-637.7904 152.3494,-634.671 158.3194,-643.4237 162.4746,-637.7904"/>
</g>
<!-- Node60 -->
<g id="node42" class="node">
<title>Node60</title>
<g id="a_node42"><a xlink:href="FixedJoint_8h.html" target="_top" xlink:title="iDynTree/Model/FixedJoint.h">
<polygon fill="none" stroke="#000000" points="180.5,-554 180.5,-573 331.5,-573 331.5,-554 180.5,-554"/>
<text text-anchor="middle" x="256" y="-561" font-family="FreeSans.ttf" font-size="10.00" fill="#000000">iDynTree/Model/FixedJoint.h</text>
</a>
</g>
</g>
<!-- Node0&#45;&gt;Node60 -->
<g id="edge95" class="edge">
<title>Node0&#45;&gt;Node60</title>
<path fill="none" stroke="#191970" d="M658.9475,-733.5433C572.4497,-728.0722 424.9091,-715.4371 377,-691 326.9316,-665.4615 286.2759,-610.675 267.4048,-581.9446"/>
<polygon fill="#191970" stroke="#191970" points="270.1974,-579.8151 261.8581,-573.2801 264.3019,-583.5892 270.1974,-579.8151"/>
</g>
<!-- Node61 -->
<g id="node43" class="node">
<title>Node61</title>
<g id="a_node43"><a xlink:href="LinkState_8h.html" target="_top" xlink:title="iDynTree/Model/LinkState.h">
<polygon fill="none" stroke="#000000" points="1403.5,-492.5 1403.5,-511.5 1552.5,-511.5 1552.5,-492.5 1403.5,-492.5"/>
<text text-anchor="middle" x="1478" y="-499.5" font-family="FreeSans.ttf" font-size="10.00" fill="#000000">iDynTree/Model/LinkState.h</text>
</a>
</g>
</g>
<!-- Node0&#45;&gt;Node61 -->
<g id="edge99" class="edge">
<title>Node0&#45;&gt;Node61</title>
<path fill="none" stroke="#191970" d="M789.206,-730.0644C849.7901,-722.8764 942.2557,-710.0047 1021,-691 1174.8377,-653.8718 1216.3037,-647.4274 1359,-579 1395.4338,-561.5288 1434.0877,-534.7911 1457.1241,-517.8623"/>
<polygon fill="#191970" stroke="#191970" points="1459.4957,-520.4604 1465.4306,-511.6839 1455.318,-514.8438 1459.4957,-520.4604"/>
</g>
<!-- Node63 -->
<g id="node45" class="node">
<title>Node63</title>
<g id="a_node45"><a xlink:href="FreeFloatingState_8h.html" target="_top" xlink:title="iDynTree/Model/FreeFloating\lState.h">
<polygon fill="none" stroke="#000000" points="1196,-548.5 1196,-578.5 1350,-578.5 1350,-548.5 1196,-548.5"/>
<text text-anchor="start" x="1204" y="-566.5" font-family="FreeSans.ttf" font-size="10.00" fill="#000000">iDynTree/Model/FreeFloating</text>
<text text-anchor="middle" x="1273" y="-555.5" font-family="FreeSans.ttf" font-size="10.00" fill="#000000">State.h</text>
</a>
</g>
</g>
<!-- Node0&#45;&gt;Node63 -->
<g id="edge109" class="edge">
<title>Node0&#45;&gt;Node63</title>
<path fill="none" stroke="#191970" d="M789.2206,-727.4527C873.4608,-713.7185 1023.5664,-684.4428 1144,-635 1178.5382,-620.8207 1215.5811,-599.5985 1241.0711,-583.9561"/>
<polygon fill="#191970" stroke="#191970" points="1242.9294,-586.9221 1249.5824,-578.6766 1239.2395,-580.9736 1242.9294,-586.9221"/>
</g>
<!-- Node66 -->
<g id="node48" class="node">
<title>Node66</title>
<g id="a_node48"><a xlink:href="EigenHelpers_8h.html" target="_top" xlink:title="iDynTree/Core/EigenHelpers.h">
<polygon fill="none" stroke="#000000" points="1951.5,-436.5 1951.5,-455.5 2112.5,-455.5 2112.5,-436.5 1951.5,-436.5"/>
<text text-anchor="middle" x="2032" y="-443.5" font-family="FreeSans.ttf" font-size="10.00" fill="#000000">iDynTree/Core/EigenHelpers.h</text>
</a>
</g>
</g>
<!-- Node0&#45;&gt;Node66 -->
<g id="edge123" class="edge">
<title>Node0&#45;&gt;Node66</title>
<path fill="none" stroke="#191970" d="M789.1653,-734.7045C1048.5971,-725.1439 1994,-686.1111 1994,-625 1994,-625 1994,-625 1994,-563.5 1994,-527.2454 2010.5805,-487.6181 2021.837,-464.8929"/>
<polygon fill="#191970" stroke="#191970" points="2025.0965,-466.2076 2026.5555,-455.7137 2018.8708,-463.0073 2025.0965,-466.2076"/>
</g>
<!-- Node2 -->
<g id="node3" class="node">
<title>Node2</title>
<g id="a_node3"><a xlink:href="Indices_8h.html" target="_top" xlink:title="iDynTree/Model/Indices.h">
<polygon fill="none" stroke="#000000" points="409,-436.5 409,-455.5 547,-455.5 547,-436.5 409,-436.5"/>
<text text-anchor="middle" x="478" y="-443.5" font-family="FreeSans.ttf" font-size="10.00" fill="#000000">iDynTree/Model/Indices.h</text>
</a>
</g>
</g>
<!-- Node1&#45;&gt;Node2 -->
<g id="edge2" class="edge">
<title>Node1&#45;&gt;Node2</title>
<path fill="none" stroke="#191970" d="M798.0899,-671.4953C730.4069,-652.6127 588.442,-604.0339 509,-512 497.2668,-498.4071 489.0188,-479.6151 483.9959,-465.5585"/>
<polygon fill="#191970" stroke="#191970" points="487.2589,-464.2792 480.7792,-455.8969 480.6174,-466.4905 487.2589,-464.2792"/>
</g>
<!-- Node4 -->
<g id="node5" class="node">
<title>Node4</title>
<g id="a_node5"><a xlink:href="Model_8h.html" target="_top" xlink:title="iDynTree/Model/Model.h">
<polygon fill="none" stroke="#000000" points="769.5,-615.5 769.5,-634.5 902.5,-634.5 902.5,-615.5 769.5,-615.5"/>
<text text-anchor="middle" x="836" y="-622.5" font-family="FreeSans.ttf" font-size="10.00" fill="#000000">iDynTree/Model/Model.h</text>
</a>
</g>
</g>
<!-- Node1&#45;&gt;Node4 -->
<g id="edge4" class="edge">
<title>Node1&#45;&gt;Node4</title>
<path fill="none" stroke="#191970" d="M836,-671.2455C836,-663.9382 836,-653.6944 836,-644.7046"/>
<polygon fill="#191970" stroke="#191970" points="839.5001,-644.6426 836,-634.6427 832.5001,-644.6427 839.5001,-644.6426"/>
</g>
<!-- Node49 -->
<g id="node30" class="node">
<title>Node49</title>
<g id="a_node30"><a xlink:href="Transform_8h.html" target="_top" xlink:title="iDynTree/Core/Transform.h">
<polygon fill="none" stroke="#000000" points="689,-375 689,-394 835,-394 835,-375 689,-375"/>
<text text-anchor="middle" x="762" y="-382" font-family="FreeSans.ttf" font-size="10.00" fill="#000000">iDynTree/Core/Transform.h</text>
</a>
</g>
</g>
<!-- Node1&#45;&gt;Node49 -->
<g id="edge74" class="edge">
<title>Node1&#45;&gt;Node49</title>
<path fill="none" stroke="#191970" d="M907.7204,-671.444C987.6075,-657.0068 1101.999,-622.9102 1073,-548 1048.6942,-485.2133 1028.8559,-470.433 971,-436 932.9585,-413.3596 885.3711,-400.6449 845.218,-393.5177"/>
<polygon fill="#191970" stroke="#191970" points="845.6231,-390.0367 835.18,-391.8235 844.458,-396.939 845.6231,-390.0367"/>
</g>
<!-- Node53 -->
<g id="node35" class="node">
<title>Node53</title>
<polygon fill="none" stroke="#bfbfbf" points="1106.5,-436.5 1106.5,-455.5 1153.5,-455.5 1153.5,-436.5 1106.5,-436.5"/>
<text text-anchor="middle" x="1130" y="-443.5" font-family="FreeSans.ttf" font-size="10.00" fill="#000000">vector</text>
</g>
<!-- Node1&#45;&gt;Node53 -->
<g id="edge75" class="edge">
<title>Node1&#45;&gt;Node53</title>
<path fill="none" stroke="#191970" d="M922.2497,-671.4684C996.3377,-662.4505 1093.2093,-648.3454 1106,-635 1150.3689,-588.7068 1141.3019,-504.1414 1134.2864,-465.8169"/>
<polygon fill="#191970" stroke="#191970" points="1137.6986,-465.03 1132.3222,-455.9007 1130.832,-466.3902 1137.6986,-465.03"/>
</g>
<!-- Node3 -->
<g id="node4" class="node">
<title>Node3</title>
<polygon fill="none" stroke="#bfbfbf" points="932,-56.5 932,-75.5 976,-75.5 976,-56.5 932,-56.5"/>
<text text-anchor="middle" x="954" y="-63.5" font-family="FreeSans.ttf" font-size="10.00" fill="#000000">string</text>
</g>
<!-- Node2&#45;&gt;Node3 -->
<g id="edge3" class="edge">
<title>Node2&#45;&gt;Node3</title>
<path fill="none" stroke="#191970" d="M408.7501,-441.8032C276.2773,-431.8678 0,-401.123 0,-317.5 0,-317.5 0,-317.5 0,-183.5 0,-88.4849 755.0633,-69.5317 921.711,-66.5056"/>
<polygon fill="#191970" stroke="#191970" points="921.8854,-70.0032 931.8226,-66.3287 921.7629,-63.0043 921.8854,-70.0032"/>
</g>
<!-- Node4&#45;&gt;Node2 -->
<g id="edge66" class="edge">
<title>Node4&#45;&gt;Node2</title>
<path fill="none" stroke="#191970" d="M804.9082,-615.4912C737.5658,-594.5527 580.6182,-543.8011 535,-512 516.4864,-499.0939 500.2073,-478.8407 489.8374,-464.1722"/>
<polygon fill="#191970" stroke="#191970" points="492.7044,-462.1641 484.1772,-455.8762 486.9221,-466.1093 492.7044,-462.1641"/>
</g>
<!-- Node5 -->
<g id="node6" class="node">
<title>Node5</title>
<g id="a_node6"><a xlink:href="IJoint_8h.html" target="_top" xlink:title="iDynTree/Model/IJoint.h">
<polygon fill="none" stroke="#000000" points="284,-492.5 284,-511.5 412,-511.5 412,-492.5 284,-492.5"/>
<text text-anchor="middle" x="348" y="-499.5" font-family="FreeSans.ttf" font-size="10.00" fill="#000000">iDynTree/Model/IJoint.h</text>
</a>
</g>
</g>
<!-- Node4&#45;&gt;Node5 -->
<g id="edge5" class="edge">
<title>Node4&#45;&gt;Node5</title>
<path fill="none" stroke="#191970" d="M798.1135,-615.4507C710.193,-593.2904 492.4443,-538.4071 395.6709,-514.0154"/>
<polygon fill="#191970" stroke="#191970" points="396.4145,-510.5934 385.8623,-511.5432 394.7036,-517.3812 396.4145,-510.5934"/>
</g>
<!-- Node6 -->
<g id="node7" class="node">
<title>Node6</title>
<g id="a_node7"><a xlink:href="Link_8h.html" target="_top" xlink:title="iDynTree/Model/Link.h">
<polygon fill="none" stroke="#000000" points="940,-554 940,-573 1064,-573 1064,-554 940,-554"/>
<text text-anchor="middle" x="1002" y="-561" font-family="FreeSans.ttf" font-size="10.00" fill="#000000">iDynTree/Model/Link.h</text>
</a>
</g>
</g>
<!-- Node4&#45;&gt;Node6 -->
<g id="edge7" class="edge">
<title>Node4&#45;&gt;Node6</title>
<path fill="none" stroke="#191970" d="M861.9375,-615.3906C890.0778,-604.9652 935.1793,-588.2559 966.5726,-576.6252"/>
<polygon fill="#191970" stroke="#191970" points="968.0834,-579.798 976.2446,-573.0419 965.6515,-573.234 968.0834,-579.798"/>
</g>
<!-- Node4&#45;&gt;Node49 -->
<g id="edge52" class="edge">
<title>Node4&#45;&gt;Node49</title>
<path fill="none" stroke="#191970" d="M833.0075,-615.2742C821.8963,-579.1631 782.8818,-452.3659 767.9105,-403.7091"/>
<polygon fill="#191970" stroke="#191970" points="771.2349,-402.6117 764.9487,-394.0833 764.5444,-404.6704 771.2349,-402.6117"/>
</g>
<!-- Node51 -->
<g id="node33" class="node">
<title>Node51</title>
<g id="a_node33"><a xlink:href="SolidShapes_8h.html" target="_top" xlink:title="iDynTree/Model/SolidShapes.h">
<polygon fill="none" stroke="#000000" points="824.5,-492.5 824.5,-511.5 987.5,-511.5 987.5,-492.5 824.5,-492.5"/>
<text text-anchor="middle" x="906" y="-499.5" font-family="FreeSans.ttf" font-size="10.00" fill="#000000">iDynTree/Model/SolidShapes.h</text>
</a>
</g>
</g>
<!-- Node4&#45;&gt;Node51 -->
<g id="edge67" class="edge">
<title>Node4&#45;&gt;Node51</title>
<path fill="none" stroke="#191970" d="M837.4643,-615.3858C840.1036,-600.1804 846.6704,-570.0482 860,-548 866.7105,-536.9003 876.6577,-526.502 885.5871,-518.4095"/>
<polygon fill="#191970" stroke="#191970" points="888.1041,-520.8601 893.3794,-511.672 883.5257,-515.565 888.1041,-520.8601"/>
</g>
<!-- Node52 -->
<g id="node34" class="node">
<title>Node52</title>
<polygon fill="none" stroke="#bfbfbf" points="912.5,-436.5 912.5,-455.5 961.5,-455.5 961.5,-436.5 912.5,-436.5"/>
<text text-anchor="middle" x="937" y="-443.5" font-family="FreeSans.ttf" font-size="10.00" fill="#000000">cstdlib</text>
</g>
<!-- Node4&#45;&gt;Node52 -->
<g id="edge72" class="edge">
<title>Node4&#45;&gt;Node52</title>
<path fill="none" stroke="#191970" d="M841.3949,-615.3029C850.8452,-599.1503 871.8944,-566.6699 898,-548 936.0821,-520.7649 970.1402,-550.3478 997,-512 1010.3704,-492.9111 987.2832,-473.4559 965.9836,-460.6626"/>
<polygon fill="#191970" stroke="#191970" points="967.5008,-457.4993 957.0761,-455.6081 964.0461,-463.5875 967.5008,-457.4993"/>
</g>
<!-- Node4&#45;&gt;Node53 -->
<g id="edge73" class="edge">
<title>Node4&#45;&gt;Node53</title>
<path fill="none" stroke="#191970" d="M849.0811,-615.3891C861.3768,-606.2577 880.201,-592.0255 896,-579 912.0333,-565.7813 913.5228,-559.2405 931,-548 964.1342,-526.6897 976.7716,-529.634 1012,-512 1044.7985,-495.5823 1081.5206,-474.6173 1105.1569,-460.773"/>
<polygon fill="#191970" stroke="#191970" points="1106.9953,-463.7522 1113.838,-455.6634 1103.4446,-457.7195 1106.9953,-463.7522"/>
</g>
<!-- Node5&#45;&gt;Node2 -->
<g id="edge6" class="edge">
<title>Node5&#45;&gt;Node2</title>
<path fill="none" stroke="#191970" d="M370.3478,-492.3733C391.4033,-483.3032 423.1495,-469.6279 446.7175,-459.4755"/>
<polygon fill="#191970" stroke="#191970" points="448.1444,-462.6719 455.9438,-455.5011 445.375,-456.243 448.1444,-462.6719"/>
</g>
<!-- Node6&#45;&gt;Node2 -->
<g id="edge51" class="edge">
<title>Node6&#45;&gt;Node2</title>
<path fill="none" stroke="#191970" d="M960.6061,-553.9676C916.3589,-543.7414 844.1675,-526.9508 782,-512 745.9468,-503.3295 737.165,-500.1916 701,-492 645.4435,-479.4161 581.7739,-466.4238 536.7282,-457.4702"/>
<polygon fill="#191970" stroke="#191970" points="537.3286,-454.0212 526.8389,-455.5099 535.9675,-460.8876 537.3286,-454.0212"/>
</g>
<!-- Node7 -->
<g id="node8" class="node">
<title>Node7</title>
<g id="a_node8"><a xlink:href="SpatialInertia_8h.html" target="_top" xlink:title="iDynTree/Core/SpatialInertia.h">
<polygon fill="none" stroke="#ff0000" points="1571,-492.5 1571,-511.5 1733,-511.5 1733,-492.5 1571,-492.5"/>
<text text-anchor="middle" x="1652" y="-499.5" font-family="FreeSans.ttf" font-size="10.00" fill="#000000">iDynTree/Core/SpatialInertia.h</text>
</a>
</g>
</g>
<!-- Node6&#45;&gt;Node7 -->
<g id="edge8" class="edge">
<title>Node6&#45;&gt;Node7</title>
<path fill="none" stroke="#191970" d="M1064.1881,-558.1685C1165.7599,-549.3751 1373.8516,-531.0034 1560.5709,-512.1309"/>
<polygon fill="#191970" stroke="#191970" points="1560.9761,-515.6079 1570.5723,-511.1175 1560.2704,-508.6436 1560.9761,-515.6079"/>
</g>
<!-- Node17 -->
<g id="node9" class="node">
<title>Node17</title>
<g id="a_node9"><a xlink:href="VectorFixSize_8h.html" target="_top" xlink:title="iDynTree/Core/VectorFixSize.h">
<polygon fill="none" stroke="#000000" points="1429.5,-112.5 1429.5,-131.5 1590.5,-131.5 1590.5,-112.5 1429.5,-112.5"/>
<text text-anchor="middle" x="1510" y="-119.5" font-family="FreeSans.ttf" font-size="10.00" fill="#000000">iDynTree/Core/VectorFixSize.h</text>
</a>
</g>
</g>
<!-- Node7&#45;&gt;Node17 -->
<g id="edge9" class="edge">
<title>Node7&#45;&gt;Node17</title>
<path fill="none" stroke="#191970" d="M1595.9665,-492.4809C1545.3961,-483.6922 1469.0264,-469.9286 1403,-456 1345.118,-443.7895 921.6808,-379.4106 885,-333 858.2587,-299.1653 918.0837,-240.0097 925,-235 931.8713,-230.023 1214.6683,-169.6027 1223,-168 1293.8218,-154.3766 1375.0175,-141.6275 1432.9308,-133.0225"/>
<polygon fill="#191970" stroke="#191970" points="1433.7229,-136.4435 1443.1033,-131.5181 1432.6988,-129.5188 1433.7229,-136.4435"/>
</g>
<!-- Node26 -->
<g id="node16" class="node">
<title>Node26</title>
<g id="a_node16"><a xlink:href="Twist_8h.html" target="_top" xlink:title="iDynTree/Core/Twist.h">
<polygon fill="none" stroke="#000000" points="1767,-436.5 1767,-455.5 1889,-455.5 1889,-436.5 1767,-436.5"/>
<text text-anchor="middle" x="1828" y="-443.5" font-family="FreeSans.ttf" font-size="10.00" fill="#000000">iDynTree/Core/Twist.h</text>
</a>
</g>
</g>
<!-- Node7&#45;&gt;Node26 -->
<g id="edge19" class="edge">
<title>Node7&#45;&gt;Node26</title>
<path fill="none" stroke="#191970" d="M1682.2555,-492.3733C1711.6483,-483.021 1756.4292,-468.7725 1788.5934,-458.5385"/>
<polygon fill="#191970" stroke="#191970" points="1789.6713,-461.8685 1798.1393,-455.5011 1787.5488,-455.198 1789.6713,-461.8685"/>
</g>
<!-- Node47 -->
<g id="node25" class="node">
<title>Node47</title>
<g id="a_node25"><a xlink:href="SpatialAcc_8h.html" target="_top" xlink:title="iDynTree/Core/SpatialAcc.h">
<polygon fill="none" stroke="#000000" points="1601,-436.5 1601,-455.5 1749,-455.5 1749,-436.5 1601,-436.5"/>
<text text-anchor="middle" x="1675" y="-443.5" font-family="FreeSans.ttf" font-size="10.00" fill="#000000">iDynTree/Core/SpatialAcc.h</text>
</a>
</g>
</g>
<!-- Node7&#45;&gt;Node47 -->
<g id="edge39" class="edge">
<title>Node7&#45;&gt;Node47</title>
<path fill="none" stroke="#191970" d="M1656.0063,-492.2455C1659.0735,-484.7776 1663.4003,-474.2427 1667.1497,-465.1137"/>
<polygon fill="#191970" stroke="#191970" points="1670.4779,-466.2226 1671.0396,-455.6427 1664.0028,-463.5631 1670.4779,-466.2226"/>
</g>
<!-- Node48 -->
<g id="node26" class="node">
<title>Node48</title>
<g id="a_node26"><a xlink:href="Wrench_8h.html" target="_top" xlink:title="iDynTree/Core/Wrench.h">
<polygon fill="none" stroke="#000000" points="1411.5,-436.5 1411.5,-455.5 1544.5,-455.5 1544.5,-436.5 1411.5,-436.5"/>
<text text-anchor="middle" x="1478" y="-443.5" font-family="FreeSans.ttf" font-size="10.00" fill="#000000">iDynTree/Core/Wrench.h</text>
</a>
</g>
</g>
<!-- Node7&#45;&gt;Node48 -->
<g id="edge41" class="edge">
<title>Node7&#45;&gt;Node48</title>
<path fill="none" stroke="#191970" d="M1622.0883,-492.3733C1593.1548,-483.0613 1549.1389,-468.8953 1517.3707,-458.671"/>
<polygon fill="#191970" stroke="#191970" points="1518.1128,-455.2331 1507.5213,-455.5011 1515.9682,-461.8965 1518.1128,-455.2331"/>
</g>
<!-- Node17&#45;&gt;Node3 -->
<g id="edge15" class="edge">
<title>Node17&#45;&gt;Node3</title>
<path fill="none" stroke="#191970" d="M1429.4499,-113.887C1305.0579,-101.3584 1071.6582,-77.8505 986.3125,-69.2545"/>
<polygon fill="#191970" stroke="#191970" points="986.4949,-65.7552 976.1945,-68.2354 985.7934,-72.72 986.4949,-65.7552"/>
</g>
<!-- Node11 -->
<g id="node10" class="node">
<title>Node11</title>
<g id="a_node10"><a xlink:href="Utils_8h.html" target="_top" xlink:title="iDynTree/Core/Utils.h">
<polygon fill="none" stroke="#000000" points="1190.5,-56.5 1190.5,-75.5 1309.5,-75.5 1309.5,-56.5 1190.5,-56.5"/>
<text text-anchor="middle" x="1250" y="-63.5" font-family="FreeSans.ttf" font-size="10.00" fill="#000000">iDynTree/Core/Utils.h</text>
</a>
</g>
</g>
<!-- Node17&#45;&gt;Node11 -->
<g id="edge10" class="edge">
<title>Node17&#45;&gt;Node11</title>
<path fill="none" stroke="#191970" d="M1465.5998,-112.4369C1420.9159,-102.8127 1351.943,-87.957 1304.0912,-77.6504"/>
<polygon fill="#191970" stroke="#191970" points="1304.7298,-74.2078 1294.217,-75.5237 1303.2559,-81.0508 1304.7298,-74.2078"/>
</g>
<!-- Node18 -->
<g id="node12" class="node">
<title>Node18</title>
<g id="a_node12"><a xlink:href="Span_8h.html" target="_top" xlink:title="iDynTree/Core/Span.h">
<polygon fill="none" stroke="#ff0000" points="1449.5,-56.5 1449.5,-75.5 1570.5,-75.5 1570.5,-56.5 1449.5,-56.5"/>
<text text-anchor="middle" x="1510" y="-63.5" font-family="FreeSans.ttf" font-size="10.00" fill="#000000">iDynTree/Core/Span.h</text>
</a>
</g>
</g>
<!-- Node17&#45;&gt;Node18 -->
<g id="edge12" class="edge">
<title>Node17&#45;&gt;Node18</title>
<path fill="none" stroke="#191970" d="M1510,-112.2455C1510,-104.9382 1510,-94.6944 1510,-85.7046"/>
<polygon fill="#191970" stroke="#191970" points="1513.5001,-85.6426 1510,-75.6427 1506.5001,-85.6427 1513.5001,-85.6426"/>
</g>
<!-- Node13 -->
<g id="node13" class="node">
<title>Node13</title>
<polygon fill="none" stroke="#bfbfbf" points="1573,-.5 1573,-19.5 1625,-19.5 1625,-.5 1573,-.5"/>
<text text-anchor="middle" x="1599" y="-7.5" font-family="FreeSans.ttf" font-size="10.00" fill="#000000">cassert</text>
</g>
<!-- Node17&#45;&gt;Node13 -->
<g id="edge17" class="edge">
<title>Node17&#45;&gt;Node13</title>
<path fill="none" stroke="#191970" d="M1532.3246,-112.4863C1547.8396,-104.7869 1567.8398,-92.509 1580,-76 1589.9321,-62.5159 1594.6851,-43.961 1596.9522,-29.9583"/>
<polygon fill="#191970" stroke="#191970" points="1600.4425,-30.2619 1598.2889,-19.8883 1593.5034,-29.3407 1600.4425,-30.2619"/>
</g>
<!-- Node16 -->
<g id="node14" class="node">
<title>Node16</title>
<polygon fill="none" stroke="#bfbfbf" points="1814,-56.5 1814,-75.5 1870,-75.5 1870,-56.5 1814,-56.5"/>
<text text-anchor="middle" x="1842" y="-63.5" font-family="FreeSans.ttf" font-size="10.00" fill="#000000">sstream</text>
</g>
<!-- Node17&#45;&gt;Node16 -->
<g id="edge16" class="edge">
<title>Node17&#45;&gt;Node16</title>
<path fill="none" stroke="#191970" d="M1566.6956,-112.4369C1634.309,-101.0322 1745.474,-82.2815 1803.7049,-72.4594"/>
<polygon fill="#191970" stroke="#191970" points="1804.3217,-75.9049 1813.6003,-70.7903 1803.1574,-69.0024 1804.3217,-75.9049"/>
</g>
<!-- Node14 -->
<g id="node15" class="node">
<title>Node14</title>
<polygon fill="none" stroke="#bfbfbf" points="1648,-56.5 1648,-75.5 1698,-75.5 1698,-56.5 1648,-56.5"/>
<text text-anchor="middle" x="1673" y="-63.5" font-family="FreeSans.ttf" font-size="10.00" fill="#000000">cstring</text>
</g>
<!-- Node17&#45;&gt;Node14 -->
<g id="edge18" class="edge">
<title>Node17&#45;&gt;Node14</title>
<path fill="none" stroke="#191970" d="M1538.0207,-112.3733C1565.7438,-102.8488 1608.2481,-88.246 1638.1379,-77.9772"/>
<polygon fill="#191970" stroke="#191970" points="1639.4311,-81.2338 1647.7512,-74.6744 1637.1566,-74.6136 1639.4311,-81.2338"/>
</g>
<!-- Node12 -->
<g id="node11" class="node">
<title>Node12</title>
<polygon fill="none" stroke="#bfbfbf" points="1353.5,-.5 1353.5,-19.5 1406.5,-19.5 1406.5,-.5 1353.5,-.5"/>
<text text-anchor="middle" x="1380" y="-7.5" font-family="FreeSans.ttf" font-size="10.00" fill="#000000">cstddef</text>
</g>
<!-- Node11&#45;&gt;Node12 -->
<g id="edge11" class="edge">
<title>Node11&#45;&gt;Node12</title>
<path fill="none" stroke="#191970" d="M1272.3478,-56.3733C1293.4033,-47.3032 1325.1495,-33.6279 1348.7175,-23.4755"/>
<polygon fill="#191970" stroke="#191970" points="1350.1444,-26.6719 1357.9438,-19.5011 1347.375,-20.243 1350.1444,-26.6719"/>
</g>
<!-- Node18&#45;&gt;Node12 -->
<g id="edge14" class="edge">
<title>Node18&#45;&gt;Node12</title>
<path fill="none" stroke="#191970" d="M1487.6522,-56.3733C1466.5967,-47.3032 1434.8505,-33.6279 1411.2825,-23.4755"/>
<polygon fill="#191970" stroke="#191970" points="1412.625,-20.243 1402.0562,-19.5011 1409.8556,-26.6719 1412.625,-20.243"/>
</g>
<!-- Node18&#45;&gt;Node13 -->
<g id="edge13" class="edge">
<title>Node18&#45;&gt;Node13</title>
<path fill="none" stroke="#191970" d="M1525.5026,-56.2455C1539.158,-47.6534 1559.2657,-35.0014 1574.9989,-25.1018"/>
<polygon fill="#191970" stroke="#191970" points="1577.0751,-27.9307 1583.675,-19.6427 1573.3471,-22.006 1577.0751,-27.9307"/>
</g>
<!-- Node27 -->
<g id="node17" class="node">
<title>Node27</title>
<g id="a_node17"><a xlink:href="SpatialMotionVector_8h.html" target="_top" xlink:title="iDynTree/Core/SpatialMotion\lVector.h">
<polygon fill="none" stroke="#000000" points="1597.5,-369.5 1597.5,-399.5 1752.5,-399.5 1752.5,-369.5 1597.5,-369.5"/>
<text text-anchor="start" x="1605.5" y="-387.5" font-family="FreeSans.ttf" font-size="10.00" fill="#000000">iDynTree/Core/SpatialMotion</text>
<text text-anchor="middle" x="1675" y="-376.5" font-family="FreeSans.ttf" font-size="10.00" fill="#000000">Vector.h</text>
</a>
</g>
</g>
<!-- Node26&#45;&gt;Node27 -->
<g id="edge20" class="edge">
<title>Node26&#45;&gt;Node27</title>
<path fill="none" stroke="#191970" d="M1804.0938,-436.3906C1782.1408,-427.5664 1748.9883,-414.2404 1721.7771,-403.3026"/>
<polygon fill="#191970" stroke="#191970" points="1723.0119,-400.0268 1712.428,-399.5446 1720.4011,-406.5217 1723.0119,-400.0268"/>
</g>
<!-- Node27&#45;&gt;Node17 -->
<g id="edge21" class="edge">
<title>Node27&#45;&gt;Node17</title>
<path fill="none" stroke="#191970" d="M1752.596,-373.435C1799.4213,-364.9911 1852.7161,-351.6202 1867,-333 1875.386,-322.0683 1874.7021,-313.4238 1867,-302 1843.1469,-266.621 1816.6282,-284.1247 1778,-266 1686.517,-223.0754 1582.089,-163.8827 1535.1596,-136.7118"/>
<polygon fill="#191970" stroke="#191970" points="1536.7072,-133.5632 1526.302,-131.5678 1533.1918,-139.6165 1536.7072,-133.5632"/>
</g>
<!-- Node28 -->
<g id="node18" class="node">
<title>Node28</title>
<g id="a_node18"><a xlink:href="LinearMotionVector3_8h.html" target="_top" xlink:title="iDynTree/Core/LinearMotion\lVector3.h">
<polygon fill="none" stroke="#ff0000" points="1530.5,-302.5 1530.5,-332.5 1681.5,-332.5 1681.5,-302.5 1530.5,-302.5"/>
<text text-anchor="start" x="1538.5" y="-320.5" font-family="FreeSans.ttf" font-size="10.00" fill="#000000">iDynTree/Core/LinearMotion</text>
<text text-anchor="middle" x="1606" y="-309.5" font-family="FreeSans.ttf" font-size="10.00" fill="#000000">Vector3.h</text>
</a>
</g>
</g>
<!-- Node27&#45;&gt;Node28 -->
<g id="edge22" class="edge">
<title>Node27&#45;&gt;Node28</title>
<path fill="none" stroke="#191970" d="M1659.3428,-369.2967C1650.3443,-360.559 1638.8787,-349.4257 1628.8852,-339.7218"/>
<polygon fill="#191970" stroke="#191970" points="1631.2077,-337.0985 1621.5952,-332.6432 1626.3313,-342.1205 1631.2077,-337.0985"/>
</g>
<!-- Node34 -->
<g id="node19" class="node">
<title>Node34</title>
<g id="a_node19"><a xlink:href="PrivateMotionForceVertorAssociations_8h.html" target="_top" xlink:title="iDynTree/Core/PrivateMotion\lForceVertorAssociations.h">
<polygon fill="none" stroke="#000000" points="1286.5,-235.5 1286.5,-265.5 1441.5,-265.5 1441.5,-235.5 1286.5,-235.5"/>
<text text-anchor="start" x="1294.5" y="-253.5" font-family="FreeSans.ttf" font-size="10.00" fill="#000000">iDynTree/Core/PrivateMotion</text>
<text text-anchor="middle" x="1364" y="-242.5" font-family="FreeSans.ttf" font-size="10.00" fill="#000000">ForceVertorAssociations.h</text>
</a>
</g>
</g>
<!-- Node27&#45;&gt;Node34 -->
<g id="edge38" class="edge">
<title>Node27&#45;&gt;Node34</title>
<path fill="none" stroke="#191970" d="M1623.6021,-369.4102C1593.5501,-360.0432 1555.1301,-347.1225 1522,-333 1478.214,-314.3351 1430.0049,-288.3159 1398.4952,-270.5183"/>
<polygon fill="#191970" stroke="#191970" points="1400.0958,-267.4022 1389.6725,-265.5031 1396.6365,-273.4877 1400.0958,-267.4022"/>
</g>
<!-- Node35 -->
<g id="node20" class="node">
<title>Node35</title>
<g id="a_node20"><a xlink:href="AngularMotionVector3_8h.html" target="_top" xlink:title="iDynTree/Core/AngularMotion\lVector3.h">
<polygon fill="none" stroke="#ff0000" points="1700,-302.5 1700,-332.5 1858,-332.5 1858,-302.5 1700,-302.5"/>
<text text-anchor="start" x="1708" y="-320.5" font-family="FreeSans.ttf" font-size="10.00" fill="#000000">iDynTree/Core/AngularMotion</text>
<text text-anchor="middle" x="1779" y="-309.5" font-family="FreeSans.ttf" font-size="10.00" fill="#000000">Vector3.h</text>
</a>
</g>
</g>
<!-- Node27&#45;&gt;Node35 -->
<g id="edge24" class="edge">
<title>Node27&#45;&gt;Node35</title>
<path fill="none" stroke="#191970" d="M1698.3396,-369.4639C1712.5574,-360.3044 1730.9323,-348.4667 1746.5522,-338.4038"/>
<polygon fill="#191970" stroke="#191970" points="1748.8674,-341.0758 1755.3784,-332.7177 1745.0764,-335.1912 1748.8674,-341.0758"/>
</g>
<!-- Node36 -->
<g id="node21" class="node">
<title>Node36</title>
<g id="a_node21"><a xlink:href="SpatialVector_8h.html" target="_top" xlink:title="iDynTree/Core/SpatialVector.h">
<polygon fill="none" stroke="#ff0000" points="904.5,-308 904.5,-327 1065.5,-327 1065.5,-308 904.5,-308"/>
<text text-anchor="middle" x="985" y="-315" font-family="FreeSans.ttf" font-size="10.00" fill="#000000">iDynTree/Core/SpatialVector.h</text>
</a>
</g>
</g>
<!-- Node27&#45;&gt;Node36 -->
<g id="edge27" class="edge">
<title>Node27&#45;&gt;Node36</title>
<path fill="none" stroke="#191970" d="M1597.1059,-379.9341C1482.453,-372.7338 1261.6478,-357.0386 1075,-333 1065.5465,-331.7825 1055.5698,-330.282 1045.8369,-328.6986"/>
<polygon fill="#191970" stroke="#191970" points="1046.2543,-325.22 1035.8147,-327.0269 1045.1026,-332.1246 1046.2543,-325.22"/>
</g>
<!-- Node28&#45;&gt;Node34 -->
<g id="edge23" class="edge">
<title>Node28&#45;&gt;Node34</title>
<path fill="none" stroke="#191970" d="M1551.6905,-302.4639C1515.2323,-292.3701 1467.027,-279.024 1428.5988,-268.3848"/>
<polygon fill="#191970" stroke="#191970" points="1429.1178,-264.8969 1418.5464,-265.6017 1427.25,-271.6431 1429.1178,-264.8969"/>
</g>
<!-- Node35&#45;&gt;Node11 -->
<g id="edge26" class="edge">
<title>Node35&#45;&gt;Node11</title>
<path fill="none" stroke="#191970" d="M1747.1,-302.3339C1651.9451,-257.0949 1371.0302,-123.5408 1279.3228,-79.9408"/>
<polygon fill="#191970" stroke="#191970" points="1280.604,-76.6745 1270.0699,-75.5417 1277.5983,-82.9964 1280.604,-76.6745"/>
</g>
<!-- Node35&#45;&gt;Node34 -->
<g id="edge25" class="edge">
<title>Node35&#45;&gt;Node34</title>
<path fill="none" stroke="#191970" d="M1699.8601,-303.4746C1696.8697,-302.972 1693.9083,-302.4788 1691,-302 1586.7408,-284.8345 1560.3223,-282.7777 1456,-266 1454.6957,-265.7902 1453.3811,-265.5781 1452.0582,-265.364"/>
<polygon fill="#191970" stroke="#191970" points="1452.2193,-261.8441 1441.7864,-263.689 1451.0927,-268.7528 1452.2193,-261.8441"/>
</g>
<!-- Node36&#45;&gt;Node11 -->
<g id="edge35" class="edge">
<title>Node36&#45;&gt;Node11</title>
<path fill="none" stroke="#191970" d="M995.0647,-307.948C1034.9097,-270.1329 1181.8961,-130.6344 1232.6388,-82.4767"/>
<polygon fill="#191970" stroke="#191970" points="1235.0812,-84.9842 1239.9252,-75.5615 1230.2624,-79.9067 1235.0812,-84.9842"/>
</g>
<!-- Node36&#45;&gt;Node16 -->
<g id="edge37" class="edge">
<title>Node36&#45;&gt;Node16</title>
<path fill="none" stroke="#191970" d="M1042.2138,-307.9587C1084.5938,-299.7786 1143.205,-286.0982 1192,-266 1216.8786,-255.7528 1218.6618,-244.0514 1244,-235 1280.3957,-221.9986 1906.7757,-161.2817 1932,-132 1952.0848,-108.6845 1912.6078,-88.8957 1879.7427,-77.2318"/>
<polygon fill="#191970" stroke="#191970" points="1880.8614,-73.9154 1870.267,-74.0196 1878.614,-80.5448 1880.8614,-73.9154"/>
</g>
<!-- Node36&#45;&gt;Node34 -->
<g id="edge34" class="edge">
<title>Node36&#45;&gt;Node34</title>
<path fill="none" stroke="#191970" d="M1038.899,-307.9717C1100.675,-297.0509 1202.8258,-278.9925 1276.1441,-266.0312"/>
<polygon fill="#191970" stroke="#191970" points="1277.0531,-269.4249 1286.2911,-264.2375 1275.8345,-262.5318 1277.0531,-269.4249"/>
</g>
<!-- Node37 -->
<g id="node22" class="node">
<title>Node37</title>
<g id="a_node22"><a xlink:href="Position_8h.html" target="_top" xlink:title="Position.h">
<polygon fill="none" stroke="#ff0000" points="654.5,-241 654.5,-260 719.5,-260 719.5,-241 654.5,-241"/>
<text text-anchor="middle" x="687" y="-248" font-family="FreeSans.ttf" font-size="10.00" fill="#000000">Position.h</text>
</a>
</g>
</g>
<!-- Node36&#45;&gt;Node37 -->
<g id="edge28" class="edge">
<title>Node36&#45;&gt;Node37</title>
<path fill="none" stroke="#191970" d="M942.6203,-307.9717C886.0442,-295.2515 786.3997,-272.8483 729.6744,-260.0946"/>
<polygon fill="#191970" stroke="#191970" points="730.1263,-256.6089 719.6021,-257.83 728.5907,-263.4384 730.1263,-256.6089"/>
</g>
<!-- Node31 -->
<g id="node23" class="node">
<title>Node31</title>
<g id="a_node23"><a xlink:href="Rotation_8h.html" target="_top" xlink:title="iDynTree/Core/Rotation.h">
<polygon fill="none" stroke="#ff0000" points="929.5,-174 929.5,-193 1066.5,-193 1066.5,-174 929.5,-174"/>
<text text-anchor="middle" x="998" y="-181" font-family="FreeSans.ttf" font-size="10.00" fill="#000000">iDynTree/Core/Rotation.h</text>
</a>
</g>
</g>
<!-- Node36&#45;&gt;Node31 -->
<g id="edge33" class="edge">
<title>Node36&#45;&gt;Node31</title>
<path fill="none" stroke="#191970" d="M985.9349,-307.8631C988.0524,-286.0364 993.2501,-232.4605 996.0831,-203.2589"/>
<polygon fill="#191970" stroke="#191970" points="999.5915,-203.3409 997.0735,-193.0496 992.6242,-202.6649 999.5915,-203.3409"/>
</g>
<!-- Node15 -->
<g id="node24" class="node">
<title>Node15</title>
<polygon fill="none" stroke="#bfbfbf" points="1923,-56.5 1923,-75.5 1983,-75.5 1983,-56.5 1923,-56.5"/>
<text text-anchor="middle" x="1953" y="-63.5" font-family="FreeSans.ttf" font-size="10.00" fill="#000000">iostream</text>
</g>
<!-- Node36&#45;&gt;Node15 -->
<g id="edge36" class="edge">
<title>Node36&#45;&gt;Node15</title>
<path fill="none" stroke="#191970" d="M1035.9461,-307.9666C1102.9013,-295.2699 1214.1413,-273.5354 1232,-266 1254.7144,-256.4158 1254.6291,-242.8487 1278,-235 1346.9902,-211.831 1876.1356,-245.6434 1932,-199 1964.7773,-171.633 1961.471,-115.6065 1956.8868,-85.7527"/>
<polygon fill="#191970" stroke="#191970" points="1960.3015,-84.9593 1955.1399,-75.7068 1953.405,-86.1586 1960.3015,-84.9593"/>
</g>
<!-- Node37&#45;&gt;Node3 -->
<g id="edge32" class="edge">
<title>Node37&#45;&gt;Node3</title>
<path fill="none" stroke="#191970" d="M686.0831,-240.7514C684.29,-215.4638 683.2851,-147.282 720,-112 748.4659,-84.645 864.3809,-72.5184 921.6559,-68.1121"/>
<polygon fill="#191970" stroke="#191970" points="922.2437,-71.5785 931.9601,-67.3544 921.7303,-64.5973 922.2437,-71.5785"/>
</g>
<!-- Node37&#45;&gt;Node31 -->
<g id="edge29" class="edge">
<title>Node37&#45;&gt;Node31</title>
<path fill="none" stroke="#191970" d="M719.6946,-243.4565C772.9868,-231.9755 879.1133,-209.1123 943.8098,-195.1744"/>
<polygon fill="#191970" stroke="#191970" points="944.7845,-198.5448 953.8231,-193.0172 943.3102,-191.7018 944.7845,-198.5448"/>
</g>
<!-- Node31&#45;&gt;Node3 -->
<g id="edge30" class="edge">
<title>Node31&#45;&gt;Node3</title>
<path fill="none" stroke="#191970" d="M994.3993,-173.8845C987.1798,-154.6053 970.8122,-110.8963 961.2737,-85.4241"/>
<polygon fill="#191970" stroke="#191970" points="964.4351,-83.8859 957.6505,-75.7484 957.8797,-86.3407 964.4351,-83.8859"/>
</g>
<!-- Node31&#45;&gt;Node17 -->
<g id="edge31" class="edge">
<title>Node31&#45;&gt;Node17</title>
<path fill="none" stroke="#191970" d="M1066.5193,-175.2697C1157.8024,-164.305 1319.4853,-144.8841 1420.367,-132.7665"/>
<polygon fill="#191970" stroke="#191970" points="1421.0292,-136.2122 1430.5404,-131.5445 1420.1943,-129.2621 1421.0292,-136.2122"/>
</g>
<!-- Node47&#45;&gt;Node27 -->
<g id="edge40" class="edge">
<title>Node47&#45;&gt;Node27</title>
<path fill="none" stroke="#191970" d="M1675,-436.3906C1675,-429.2234 1675,-419.0862 1675,-409.671"/>
<polygon fill="#191970" stroke="#191970" points="1678.5001,-409.5446 1675,-399.5446 1671.5001,-409.5446 1678.5001,-409.5446"/>
</g>
<!-- Node43 -->
<g id="node27" class="node">
<title>Node43</title>
<g id="a_node27"><a xlink:href="SpatialForceVector_8h.html" target="_top" xlink:title="iDynTree/Core/SpatialForce\lVector.h">
<polygon fill="none" stroke="#000000" points="1193,-369.5 1193,-399.5 1341,-399.5 1341,-369.5 1193,-369.5"/>
<text text-anchor="start" x="1201" y="-387.5" font-family="FreeSans.ttf" font-size="10.00" fill="#000000">iDynTree/Core/SpatialForce</text>
<text text-anchor="middle" x="1267" y="-376.5" font-family="FreeSans.ttf" font-size="10.00" fill="#000000">Vector.h</text>
</a>
</g>
</g>
<!-- Node48&#45;&gt;Node43 -->
<g id="edge42" class="edge">
<title>Node48&#45;&gt;Node43</title>
<path fill="none" stroke="#191970" d="M1445.0313,-436.3906C1413.9631,-427.3352 1366.6298,-413.539 1328.5772,-402.4479"/>
<polygon fill="#191970" stroke="#191970" points="1329.1963,-398.9827 1318.6164,-399.5446 1327.2375,-405.7031 1329.1963,-398.9827"/>
</g>
<!-- Node43&#45;&gt;Node17 -->
<g id="edge43" class="edge">
<title>Node43&#45;&gt;Node17</title>
<path fill="none" stroke="#191970" d="M1192.9735,-379.3804C1090.339,-371.518 915.1898,-355.0376 896,-333 886.9522,-322.6094 887.8515,-313.1099 896,-302 986.1169,-179.1329 1085.0949,-263.8041 1223,-199 1245.9844,-188.1992 1247.4329,-177.462 1271,-168 1318.0271,-149.119 1373.4452,-137.833 1419.0714,-131.1696"/>
<polygon fill="#191970" stroke="#191970" points="1419.8339,-134.5969 1429.2477,-129.7358 1418.8572,-127.6653 1419.8339,-134.5969"/>
</g>
<!-- Node43&#45;&gt;Node34 -->
<g id="edge50" class="edge">
<title>Node43&#45;&gt;Node34</title>
<path fill="none" stroke="#191970" d="M1266.4779,-369.452C1266.5918,-351.8045 1269.1182,-322.3777 1283,-302 1291.9275,-288.8949 1305.4095,-278.4168 1318.8267,-270.4234"/>
<polygon fill="#191970" stroke="#191970" points="1320.5651,-273.4615 1327.5859,-265.5268 1317.1493,-267.3514 1320.5651,-273.4615"/>
</g>
<!-- Node43&#45;&gt;Node36 -->
<g id="edge49" class="edge">
<title>Node43&#45;&gt;Node36</title>
<path fill="none" stroke="#191970" d="M1203.7137,-369.4639C1152.7297,-357.3507 1082.0315,-340.5536 1034.9683,-329.3719"/>
<polygon fill="#191970" stroke="#191970" points="1035.5456,-325.9117 1025.0073,-327.0053 1033.9274,-332.7221 1035.5456,-325.9117"/>
</g>
<!-- Node44 -->
<g id="node28" class="node">
<title>Node44</title>
<g id="a_node28"><a xlink:href="LinearForceVector3_8h.html" target="_top" xlink:title="iDynTree/Core/LinearForce\lVector3.h">
<polygon fill="none" stroke="#ff0000" points="1292,-302.5 1292,-332.5 1436,-332.5 1436,-302.5 1292,-302.5"/>
<text text-anchor="start" x="1300" y="-320.5" font-family="FreeSans.ttf" font-size="10.00" fill="#000000">iDynTree/Core/LinearForce</text>
<text text-anchor="middle" x="1364" y="-309.5" font-family="FreeSans.ttf" font-size="10.00" fill="#000000">Vector3.h</text>
</a>
</g>
</g>
<!-- Node43&#45;&gt;Node44 -->
<g id="edge44" class="edge">
<title>Node43&#45;&gt;Node44</title>
<path fill="none" stroke="#191970" d="M1289.0108,-369.2967C1302.157,-360.2163 1319.0487,-348.5488 1333.471,-338.587"/>
<polygon fill="#191970" stroke="#191970" points="1335.8374,-341.2063 1342.0763,-332.6432 1331.8591,-335.4467 1335.8374,-341.2063"/>
</g>
<!-- Node46 -->
<g id="node29" class="node">
<title>Node46</title>
<g id="a_node29"><a xlink:href="AngularForceVector3_8h.html" target="_top" xlink:title="iDynTree/Core/AngularForce\lVector3.h">
<polygon fill="none" stroke="#ff0000" points="1084,-302.5 1084,-332.5 1236,-332.5 1236,-302.5 1084,-302.5"/>
<text text-anchor="start" x="1092" y="-320.5" font-family="FreeSans.ttf" font-size="10.00" fill="#000000">iDynTree/Core/AngularForce</text>
<text text-anchor="middle" x="1160" y="-309.5" font-family="FreeSans.ttf" font-size="10.00" fill="#000000">Vector3.h</text>
</a>
</g>
</g>
<!-- Node43&#45;&gt;Node46 -->
<g id="edge46" class="edge">
<title>Node43&#45;&gt;Node46</title>
<path fill="none" stroke="#191970" d="M1242.9871,-369.4639C1228.2225,-360.2188 1209.1005,-348.2452 1192.9339,-338.1222"/>
<polygon fill="#191970" stroke="#191970" points="1194.636,-335.0584 1184.303,-332.7177 1190.921,-340.9913 1194.636,-335.0584"/>
</g>
<!-- Node44&#45;&gt;Node34 -->
<g id="edge45" class="edge">
<title>Node44&#45;&gt;Node34</title>
<path fill="none" stroke="#191970" d="M1364,-302.2967C1364,-294.5013 1364,-284.7991 1364,-275.9064"/>
<polygon fill="#191970" stroke="#191970" points="1367.5001,-275.6431 1364,-265.6432 1360.5001,-275.6432 1367.5001,-275.6431"/>
</g>
<!-- Node46&#45;&gt;Node11 -->
<g id="edge48" class="edge">
<title>Node46&#45;&gt;Node11</title>
<path fill="none" stroke="#191970" d="M1165.4944,-302.1461C1181.1417,-258.4208 1225.9165,-133.2999 1243.1368,-85.1789"/>
<polygon fill="#191970" stroke="#191970" points="1246.4725,-86.2451 1246.5465,-75.6505 1239.8818,-83.8865 1246.4725,-86.2451"/>
</g>
<!-- Node46&#45;&gt;Node34 -->
<g id="edge47" class="edge">
<title>Node46&#45;&gt;Node34</title>
<path fill="none" stroke="#191970" d="M1205.7816,-302.4639C1236.1226,-292.499 1276.1149,-279.3642 1308.3002,-268.7936"/>
<polygon fill="#191970" stroke="#191970" points="1309.6102,-272.0473 1318.0187,-265.6017 1307.4259,-265.3968 1309.6102,-272.0473"/>
</g>
<!-- Node49&#45;&gt;Node3 -->
<g id="edge65" class="edge">
<title>Node49&#45;&gt;Node3</title>
<path fill="none" stroke="#191970" d="M688.9905,-376.7249C629.9323,-368.9414 553.0854,-354.9313 531,-333 504.3011,-306.4873 512,-288.1265 512,-250.5 512,-250.5 512,-250.5 512,-183.5 512,-145.9523 525.2317,-132.015 557,-112 587.674,-92.6745 832.8802,-74.2435 921.8756,-68.1277"/>
<polygon fill="#191970" stroke="#191970" points="922.1901,-71.6145 931.9294,-67.4437 921.7148,-64.6306 922.1901,-71.6145"/>
</g>
<!-- Node49&#45;&gt;Node37 -->
<g id="edge53" class="edge">
<title>Node49&#45;&gt;Node37</title>
<path fill="none" stroke="#191970" d="M748.9904,-374.8883C737.1521,-365.4765 720.0384,-350.0914 710,-333 698.4485,-313.3324 692.4823,-287.6129 689.5555,-270.1559"/>
<polygon fill="#191970" stroke="#191970" points="692.9812,-269.3976 688.0429,-260.0241 686.0579,-270.4313 692.9812,-269.3976"/>
</g>
<!-- Node49&#45;&gt;Node31 -->
<g id="edge54" class="edge">
<title>Node49&#45;&gt;Node31</title>
<path fill="none" stroke="#191970" d="M763.5812,-374.7828C768.573,-347.5353 786.694,-270.1065 836,-235 854.3228,-221.9539 908.2617,-206.185 948.9061,-195.5613"/>
<polygon fill="#191970" stroke="#191970" points="949.8537,-198.9315 958.6613,-193.0427 948.1038,-192.1537 949.8537,-198.9315"/>
</g>
<!-- Node50 -->
<g id="node31" class="node">
<title>Node50</title>
<g id="a_node31"><a xlink:href="TransformSemantics_8h.html" target="_top" xlink:title="iDynTree/Core/TransformSemantics.h">
<polygon fill="none" stroke="#000000" points="728.5,-112.5 728.5,-131.5 925.5,-131.5 925.5,-112.5 728.5,-112.5"/>
<text text-anchor="middle" x="827" y="-119.5" font-family="FreeSans.ttf" font-size="10.00" fill="#000000">iDynTree/Core/TransformSemantics.h</text>
</a>
</g>
</g>
<!-- Node49&#45;&gt;Node50 -->
<g id="edge55" class="edge">
<title>Node49&#45;&gt;Node50</title>
<path fill="none" stroke="#191970" d="M759.0153,-374.6986C749.8717,-342.7296 725.0376,-239.4401 762,-168 769.0546,-154.365 782.2195,-143.9036 794.8663,-136.4282"/>
<polygon fill="#191970" stroke="#191970" points="796.7837,-139.3692 803.8888,-131.5099 793.4334,-133.2231 796.7837,-139.3692"/>
</g>
<!-- Node10 -->
<g id="node32" class="node">
<title>Node10</title>
<g id="a_node32"><a xlink:href="MatrixFixSize_8h.html" target="_top" xlink:title="iDynTree/Core/MatrixFixSize.h">
<polygon fill="none" stroke="#000000" points="1761.5,-112.5 1761.5,-131.5 1922.5,-131.5 1922.5,-112.5 1761.5,-112.5"/>
<text text-anchor="middle" x="1842" y="-119.5" font-family="FreeSans.ttf" font-size="10.00" fill="#000000">iDynTree/Core/MatrixFixSize.h</text>
</a>
</g>
</g>
<!-- Node49&#45;&gt;Node10 -->
<g id="edge58" class="edge">
<title>Node49&#45;&gt;Node10</title>
<path fill="none" stroke="#191970" d="M774.5434,-374.7854C797.4043,-357.5515 847.9363,-321.6015 896,-302 1155.0333,-196.3604 1235.4082,-216.0325 1511,-168 1592.2759,-153.8345 1685.3881,-141.2129 1752.1098,-132.7907"/>
<polygon fill="#191970" stroke="#191970" points="1752.6854,-136.246 1762.1714,-131.5272 1751.8132,-129.3005 1752.6854,-136.246"/>
</g>
<!-- Node50&#45;&gt;Node3 -->
<g id="edge56" class="edge">
<title>Node50&#45;&gt;Node3</title>
<path fill="none" stroke="#191970" d="M848.8321,-112.3733C869.3103,-103.3435 900.1399,-89.7494 923.1319,-79.6111"/>
<polygon fill="#191970" stroke="#191970" points="924.715,-82.7383 932.4528,-75.5011 921.8907,-76.3333 924.715,-82.7383"/>
</g>
<!-- Node50&#45;&gt;Node11 -->
<g id="edge57" class="edge">
<title>Node50&#45;&gt;Node11</title>
<path fill="none" stroke="#191970" d="M899.2357,-112.4369C977.8229,-102.0329 1102.5888,-85.5154 1180.2042,-75.2401"/>
<polygon fill="#191970" stroke="#191970" points="1180.9108,-78.6772 1190.365,-73.8949 1179.9921,-71.7377 1180.9108,-78.6772"/>
</g>
<!-- Node10&#45;&gt;Node3 -->
<g id="edge62" class="edge">
<title>Node10&#45;&gt;Node3</title>
<path fill="none" stroke="#191970" d="M1761.4832,-115.7614C1744.1732,-114.4719 1725.98,-113.1556 1709,-112 1429.3503,-92.9687 1091.1693,-73.6947 986.4677,-67.813"/>
<polygon fill="#191970" stroke="#191970" points="986.4223,-64.305 976.2419,-67.2394 986.0302,-71.294 986.4223,-64.305"/>
</g>
<!-- Node10&#45;&gt;Node11 -->
<g id="edge59" class="edge">
<title>Node10&#45;&gt;Node11</title>
<path fill="none" stroke="#191970" d="M1761.4138,-113.4464C1756.5372,-112.9508 1751.7035,-112.4652 1747,-112 1594.7419,-96.9409 1416.0879,-80.7723 1319.8788,-72.1884"/>
<polygon fill="#191970" stroke="#191970" points="1319.967,-68.6825 1309.6957,-71.2807 1319.3454,-75.6548 1319.967,-68.6825"/>
</g>
<!-- Node10&#45;&gt;Node13 -->
<g id="edge60" class="edge">
<title>Node10&#45;&gt;Node13</title>
<path fill="none" stroke="#191970" d="M1822.9236,-112.284C1796.9092,-99.1241 1748.7609,-75.0861 1707,-56 1681.9246,-44.5397 1653.1918,-32.3461 1631.6695,-23.3944"/>
<polygon fill="#191970" stroke="#191970" points="1632.9054,-20.118 1622.3273,-19.5239 1630.2261,-26.585 1632.9054,-20.118"/>
</g>
<!-- Node10&#45;&gt;Node16 -->
<g id="edge64" class="edge">
<title>Node10&#45;&gt;Node16</title>
<path fill="none" stroke="#191970" d="M1842,-112.2455C1842,-104.9382 1842,-94.6944 1842,-85.7046"/>
<polygon fill="#191970" stroke="#191970" points="1845.5001,-85.6426 1842,-75.6427 1838.5001,-85.6427 1845.5001,-85.6426"/>
</g>
<!-- Node10&#45;&gt;Node14 -->
<g id="edge61" class="edge">
<title>Node10&#45;&gt;Node14</title>
<path fill="none" stroke="#191970" d="M1812.9479,-112.3733C1783.7387,-102.6945 1738.7036,-87.7716 1707.6498,-77.4816"/>
<polygon fill="#191970" stroke="#191970" points="1708.6898,-74.1391 1698.0965,-74.316 1706.488,-80.7838 1708.6898,-74.1391"/>
</g>
<!-- Node10&#45;&gt;Node15 -->
<g id="edge63" class="edge">
<title>Node10&#45;&gt;Node15</title>
<path fill="none" stroke="#191970" d="M1861.0816,-112.3733C1878.7402,-103.4644 1905.2053,-90.1127 1925.2098,-80.0203"/>
<polygon fill="#191970" stroke="#191970" points="1926.8158,-83.1303 1934.1674,-75.5011 1923.6628,-76.8806 1926.8158,-83.1303"/>
</g>
<!-- Node51&#45;&gt;Node3 -->
<g id="edge69" class="edge">
<title>Node51&#45;&gt;Node3</title>
<path fill="none" stroke="#191970" d="M829.2648,-492.4866C705.1253,-472.3376 474,-413.0032 474,-250.5 474,-250.5 474,-250.5 474,-183.5 474,-144.2069 491.9895,-131.6783 526,-112 560.1014,-92.269 828.4289,-73.8319 921.9692,-67.9449"/>
<polygon fill="#191970" stroke="#191970" points="922.2191,-71.4362 931.982,-67.3208 921.7836,-64.4498 922.2191,-71.4362"/>
</g>
<!-- Node51&#45;&gt;Node49 -->
<g id="edge71" class="edge">
<title>Node51&#45;&gt;Node49</title>
<path fill="none" stroke="#191970" d="M894.2159,-492.3845C869.5338,-472.2446 812.1794,-425.445 781.7623,-400.6255"/>
<polygon fill="#191970" stroke="#191970" points="783.9077,-397.8587 773.947,-394.2484 779.4822,-403.2823 783.9077,-397.8587"/>
</g>
<!-- Node51&#45;&gt;Node52 -->
<g id="edge68" class="edge">
<title>Node51&#45;&gt;Node52</title>
<path fill="none" stroke="#191970" d="M911.3998,-492.2455C915.6227,-484.617 921.6173,-473.7881 926.7441,-464.5267"/>
<polygon fill="#191970" stroke="#191970" points="929.881,-466.0867 931.6621,-455.6427 923.7568,-462.6965 929.881,-466.0867"/>
</g>
<!-- Node51&#45;&gt;Node53 -->
<g id="edge70" class="edge">
<title>Node51&#45;&gt;Node53</title>
<path fill="none" stroke="#191970" d="M944.2525,-492.4369C987.1043,-481.7239 1055.8841,-464.529 1096.634,-454.3415"/>
<polygon fill="#191970" stroke="#191970" points="1097.5049,-457.7316 1106.3574,-451.9106 1095.8071,-450.9406 1097.5049,-457.7316"/>
</g>
<!-- Node54&#45;&gt;Node2 -->
<g id="edge77" class="edge">
<title>Node54&#45;&gt;Node2</title>
<path fill="none" stroke="#191970" d="M489.1033,-671.3888C496.4614,-653.5725 511.6326,-614.0396 517,-579 519.0862,-565.3811 523.4485,-560.1755 517,-548 503.6723,-522.8358 477.3277,-537.1642 464,-512 456.1475,-497.1736 461.4648,-478.2769 467.6729,-464.506"/>
<polygon fill="#191970" stroke="#191970" points="470.8266,-466.0248 472.1752,-455.5161 464.5677,-462.8902 470.8266,-466.0248"/>
</g>
<!-- Node55&#45;&gt;Node2 -->
<g id="edge79" class="edge">
<title>Node55&#45;&gt;Node2</title>
<path fill="none" stroke="#191970" d="M593.9331,-492.3733C571.1572,-483.2629 536.7656,-469.5062 511.351,-459.3404"/>
<polygon fill="#191970" stroke="#191970" points="512.3375,-455.9654 501.7528,-455.5011 509.7377,-462.4648 512.3375,-455.9654"/>
</g>
<!-- Node55&#45;&gt;Node53 -->
<g id="edge80" class="edge">
<title>Node55&#45;&gt;Node53</title>
<path fill="none" stroke="#191970" d="M692.1756,-493.887C804.7663,-481.5724 1014.3371,-458.6506 1096.0976,-449.7081"/>
<polygon fill="#191970" stroke="#191970" points="1096.7568,-453.1569 1106.317,-448.5903 1095.9957,-446.1984 1096.7568,-453.1569"/>
</g>
<!-- Node56&#45;&gt;Node2 -->
<g id="edge92" class="edge">
<title>Node56&#45;&gt;Node2</title>
<path fill="none" stroke="#191970" d="M141.9553,-614.9929C145.4522,-599.2492 154.0522,-568.3926 171,-548 200.6307,-512.3467 216.0676,-509.4913 259,-492 303.4672,-473.8834 356.0424,-462.5379 398.5327,-455.6482"/>
<polygon fill="#191970" stroke="#191970" points="399.2118,-459.0846 408.548,-454.0759 398.1262,-452.1693 399.2118,-459.0846"/>
</g>
<!-- Node56&#45;&gt;Node27 -->
<g id="edge83" class="edge">
<title>Node56&#45;&gt;Node27</title>
<path fill="none" stroke="#191970" d="M139.2607,-615.4006C138.5114,-600.2156 138.7598,-570.1107 150,-548 166.3834,-515.772 177.6661,-510.0347 209,-492 285.6698,-447.8715 312.6894,-450.228 400,-436 608.5122,-402.0211 1138.9305,-409.0322 1350,-400 1430.2214,-396.5671 1521.5564,-392.1677 1586.9303,-388.9335"/>
<polygon fill="#191970" stroke="#191970" points="1587.3794,-392.4156 1597.1938,-388.4248 1587.0328,-385.4242 1587.3794,-392.4156"/>
</g>
<!-- Node56&#45;&gt;Node49 -->
<g id="edge82" class="edge">
<title>Node56&#45;&gt;Node49</title>
<path fill="none" stroke="#191970" d="M127.5788,-615.18C117.9984,-606.7529 105.4865,-593.6707 100,-579 77.7377,-519.471 56.8374,-482.6508 100,-436 119.3818,-415.0518 505.005,-395.6922 678.5827,-388.0014"/>
<polygon fill="#191970" stroke="#191970" points="678.8626,-391.4926 688.6989,-387.5558 678.5545,-384.4993 678.8626,-391.4926"/>
</g>
<!-- Node57 -->
<g id="node39" class="node">
<title>Node57</title>
<g id="a_node39"><a xlink:href="Axis_8h.html" target="_top" xlink:title="iDynTree/Core/Axis.h">
<polygon fill="none" stroke="#000000" points="540,-308 540,-327 658,-327 658,-308 540,-308"/>
<text text-anchor="middle" x="599" y="-315" font-family="FreeSans.ttf" font-size="10.00" fill="#000000">iDynTree/Core/Axis.h</text>
</a>
</g>
</g>
<!-- Node56&#45;&gt;Node57 -->
<g id="edge84" class="edge">
<title>Node56&#45;&gt;Node57</title>
<path fill="none" stroke="#191970" d="M123.6119,-615.4857C94.7789,-597.3757 38,-554.9861 38,-502 38,-502 38,-502 38,-446 38,-346.1895 379.6699,-323.9036 529.7256,-318.9289"/>
<polygon fill="#191970" stroke="#191970" points="529.8744,-322.4261 539.7591,-318.6127 529.6538,-315.4296 529.8744,-322.4261"/>
</g>
<!-- Node59 -->
<g id="node41" class="node">
<title>Node59</title>
<g id="a_node41"><a xlink:href="MovableJointImpl_8h.html" target="_top" xlink:title="iDynTree/Model/MovableJoint\lImpl.h">
<polygon fill="none" stroke="#000000" points="350,-548.5 350,-578.5 508,-578.5 508,-548.5 350,-548.5"/>
<text text-anchor="start" x="358" y="-566.5" font-family="FreeSans.ttf" font-size="10.00" fill="#000000">iDynTree/Model/MovableJoint</text>
<text text-anchor="middle" x="429" y="-555.5" font-family="FreeSans.ttf" font-size="10.00" fill="#000000">Impl.h</text>
</a>
</g>
</g>
<!-- Node56&#45;&gt;Node59 -->
<g id="edge93" class="edge">
<title>Node56&#45;&gt;Node59</title>
<path fill="none" stroke="#191970" d="M184.8392,-615.4581C228.4056,-606.187 295.5374,-591.9012 348.3905,-580.6539"/>
<polygon fill="#191970" stroke="#191970" points="349.369,-584.0242 358.4214,-578.5193 347.9119,-577.1775 349.369,-584.0242"/>
</g>
<!-- Node57&#45;&gt;Node3 -->
<g id="edge85" class="edge">
<title>Node57&#45;&gt;Node3</title>
<path fill="none" stroke="#191970" d="M593.3379,-307.8251C575.2172,-275.4702 522.7492,-169.829 574,-112 596.9539,-86.0999 834.1632,-71.8923 921.7429,-67.4978"/>
<polygon fill="#191970" stroke="#191970" points="922.078,-70.9856 931.8941,-66.999 921.7344,-63.9941 922.078,-70.9856"/>
</g>
<!-- Node57&#45;&gt;Node11 -->
<g id="edge91" class="edge">
<title>Node57&#45;&gt;Node11</title>
<path fill="none" stroke="#191970" d="M599.6083,-307.8595C600.9317,-291.9395 604.9932,-259.4815 617,-235 648.3971,-170.9823 656.759,-144.9336 720,-112 759.8689,-91.2377 1045.6004,-75.4514 1180.2,-69.0798"/>
<polygon fill="#191970" stroke="#191970" points="1180.5801,-72.5659 1190.4051,-68.6011 1180.252,-65.5736 1180.5801,-72.5659"/>
</g>
<!-- Node57&#45;&gt;Node37 -->
<g id="edge90" class="edge">
<title>Node57&#45;&gt;Node37</title>
<path fill="none" stroke="#191970" d="M611.6083,-307.9005C625.8539,-297.0544 649.2599,-279.2339 666.2177,-266.3229"/>
<polygon fill="#191970" stroke="#191970" points="668.5789,-268.9241 674.4151,-260.0817 664.3385,-263.3547 668.5789,-268.9241"/>
</g>
<!-- Node58 -->
<g id="node40" class="node">
<title>Node58</title>
<g id="a_node40"><a xlink:href="Direction_8h.html" target="_top" xlink:title="iDynTree/Core/Direction.h">
<polygon fill="none" stroke="#000000" points="770.5,-174 770.5,-193 911.5,-193 911.5,-174 770.5,-174"/>
<text text-anchor="middle" x="841" y="-181" font-family="FreeSans.ttf" font-size="10.00" fill="#000000">iDynTree/Core/Direction.h</text>
</a>
</g>
</g>
<!-- Node57&#45;&gt;Node58 -->
<g id="edge86" class="edge">
<title>Node57&#45;&gt;Node58</title>
<path fill="none" stroke="#191970" d="M601.7244,-307.9571C607.1633,-290.6709 621.0423,-254.1937 646,-235 666.4491,-219.2736 727.9601,-204.5892 776.4896,-194.9574"/>
<polygon fill="#191970" stroke="#191970" points="777.1725,-198.3902 786.3171,-193.0399 775.8319,-191.5198 777.1725,-198.3902"/>
</g>
<!-- Node58&#45;&gt;Node3 -->
<g id="edge87" class="edge">
<title>Node58&#45;&gt;Node3</title>
<path fill="none" stroke="#191970" d="M871.3831,-173.8889C892.1349,-165.8349 918.7216,-152.3395 935,-132 945.5821,-118.7779 950.2706,-99.9116 952.3478,-85.7339"/>
<polygon fill="#191970" stroke="#191970" points="955.8516,-85.9006 953.5165,-75.5663 948.8974,-85.1012 955.8516,-85.9006"/>
</g>
<!-- Node58&#45;&gt;Node17 -->
<g id="edge88" class="edge">
<title>Node58&#45;&gt;Node17</title>
<path fill="none" stroke="#191970" d="M885.2831,-173.9912C896.864,-171.76 909.3641,-169.5764 921,-168 1096.3718,-144.2407 1302.9083,-131.6123 1418.9341,-125.9036"/>
<polygon fill="#191970" stroke="#191970" points="1419.3704,-129.3867 1429.1888,-125.4055 1419.0307,-122.3949 1419.3704,-129.3867"/>
</g>
<!-- Node58&#45;&gt;Node11 -->
<g id="edge89" class="edge">
<title>Node58&#45;&gt;Node11</title>
<path fill="none" stroke="#191970" d="M872.3801,-173.8918C918.151,-159.9365 1005.9486,-133.3904 1081,-112 1122.6538,-100.1283 1170.2749,-87.2266 1204.3274,-78.1164"/>
<polygon fill="#191970" stroke="#191970" points="1205.238,-81.4959 1213.9962,-75.534 1203.4317,-74.733 1205.238,-81.4959"/>
</g>
<!-- Node59&#45;&gt;Node5 -->
<g id="edge94" class="edge">
<title>Node59&#45;&gt;Node5</title>
<path fill="none" stroke="#191970" d="M408.9775,-548.2977C396.914,-539.1384 381.5612,-527.4816 369.2789,-518.1562"/>
<polygon fill="#191970" stroke="#191970" points="371.0501,-515.1065 360.9691,-511.8469 366.8171,-520.6816 371.0501,-515.1065"/>
</g>
<!-- Node60&#45;&gt;Node2 -->
<g id="edge97" class="edge">
<title>Node60&#45;&gt;Node2</title>
<path fill="none" stroke="#191970" d="M255.6253,-553.6059C255.6128,-538.162 257.9836,-508.3999 275,-492 292.8308,-474.8152 349.7556,-462.8461 398.803,-455.4337"/>
<polygon fill="#191970" stroke="#191970" points="399.4261,-458.8799 408.8127,-453.9664 398.4108,-451.9539 399.4261,-458.8799"/>
</g>
<!-- Node60&#45;&gt;Node5 -->
<g id="edge98" class="edge">
<title>Node60&#45;&gt;Node5</title>
<path fill="none" stroke="#191970" d="M270.375,-553.8906C285.0931,-544.0519 308.1832,-528.6167 325.3589,-517.1351"/>
<polygon fill="#191970" stroke="#191970" points="327.3575,-520.0091 333.7259,-511.5419 323.4673,-514.1896 327.3575,-520.0091"/>
</g>
<!-- Node60&#45;&gt;Node49 -->
<g id="edge96" class="edge">
<title>Node60&#45;&gt;Node49</title>
<path fill="none" stroke="#191970" d="M253.326,-553.6529C249.9165,-538.798 245.9108,-510.4383 259,-492 298.0318,-437.0174 334.8326,-453.3141 400,-436 493.7529,-411.0911 604.5662,-397.5692 678.6666,-390.7155"/>
<polygon fill="#191970" stroke="#191970" points="679.2293,-394.179 688.8732,-389.7922 678.5985,-387.2075 679.2293,-394.179"/>
</g>
<!-- Node61&#45;&gt;Node2 -->
<g id="edge107" class="edge">
<title>Node61&#45;&gt;Node2</title>
<path fill="none" stroke="#191970" d="M1403.3686,-492.7591C1400.5447,-492.4886 1397.7477,-492.2342 1395,-492 1085.7269,-465.6443 716.3908,-452.7686 557.3033,-448.1148"/>
<polygon fill="#191970" stroke="#191970" points="557.2286,-444.6112 547.1314,-447.8201 557.0258,-451.6083 557.2286,-444.6112"/>
</g>
<!-- Node61&#45;&gt;Node26 -->
<g id="edge101" class="edge">
<title>Node61&#45;&gt;Node26</title>
<path fill="none" stroke="#191970" d="M1537.7695,-492.4369C1598.9277,-482.6516 1693.886,-467.4582 1758.395,-457.1368"/>
<polygon fill="#191970" stroke="#191970" points="1759.1556,-460.5597 1768.4771,-455.5237 1758.0497,-453.6476 1759.1556,-460.5597"/>
</g>
<!-- Node61&#45;&gt;Node47 -->
<g id="edge102" class="edge">
<title>Node61&#45;&gt;Node47</title>
<path fill="none" stroke="#191970" d="M1511.8655,-492.3733C1545.049,-482.9404 1595.755,-468.5265 1631.8194,-458.2747"/>
<polygon fill="#191970" stroke="#191970" points="1632.9145,-461.6021 1641.5764,-455.5011 1631.0005,-454.8689 1632.9145,-461.6021"/>
</g>
<!-- Node61&#45;&gt;Node48 -->
<g id="edge103" class="edge">
<title>Node61&#45;&gt;Node48</title>
<path fill="none" stroke="#191970" d="M1478,-492.2455C1478,-484.9382 1478,-474.6944 1478,-465.7046"/>
<polygon fill="#191970" stroke="#191970" points="1481.5001,-465.6426 1478,-455.6427 1474.5001,-465.6427 1481.5001,-465.6426"/>
</g>
<!-- Node61&#45;&gt;Node49 -->
<g id="edge100" class="edge">
<title>Node61&#45;&gt;Node49</title>
<path fill="none" stroke="#191970" d="M1444.4861,-492.4177C1393.5751,-478.1853 1293.5152,-451.48 1207,-436 1081.8675,-413.6102 935.1172,-398.817 845.3651,-391.0472"/>
<polygon fill="#191970" stroke="#191970" points="845.5089,-387.5467 835.2466,-390.1801 844.9112,-394.5212 845.5089,-387.5467"/>
</g>
<!-- Node61&#45;&gt;Node53 -->
<g id="edge108" class="edge">
<title>Node61&#45;&gt;Node53</title>
<path fill="none" stroke="#191970" d="M1418.5721,-492.4369C1345.1364,-480.6196 1222.6876,-460.9152 1163.7391,-451.4293"/>
<polygon fill="#191970" stroke="#191970" points="1164.2613,-447.9684 1153.8322,-449.8351 1163.1491,-454.8795 1164.2613,-447.9684"/>
</g>
<!-- Node62 -->
<g id="node44" class="node">
<title>Node62</title>
<g id="a_node44"><a xlink:href="ArticulatedBodyInertia_8h.html" target="_top" xlink:title="iDynTree/Core/Articulated\lBodyInertia.h">
<polygon fill="none" stroke="#000000" points="1781.5,-168.5 1781.5,-198.5 1922.5,-198.5 1922.5,-168.5 1781.5,-168.5"/>
<text text-anchor="start" x="1789.5" y="-186.5" font-family="FreeSans.ttf" font-size="10.00" fill="#000000">iDynTree/Core/Articulated</text>
<text text-anchor="middle" x="1852" y="-175.5" font-family="FreeSans.ttf" font-size="10.00" fill="#000000">BodyInertia.h</text>
</a>
</g>
</g>
<!-- Node61&#45;&gt;Node62 -->
<g id="edge104" class="edge">
<title>Node61&#45;&gt;Node62</title>
<path fill="none" stroke="#191970" d="M1493.8514,-492.3123C1522.6454,-474.7911 1581.5407,-439.3322 1592,-436 1674.9283,-409.5801 1923.3535,-464.3094 1982,-400 1993.4989,-387.3907 1991.7231,-326.1479 1976,-302 1957.9807,-274.3256 1935.655,-287.9704 1911,-266 1892.0805,-249.1406 1875.787,-225.1644 1865.1462,-207.401"/>
<polygon fill="#191970" stroke="#191970" points="1868.1667,-205.6327 1860.113,-198.7488 1862.116,-209.1526 1868.1667,-205.6327"/>
</g>
<!-- Node62&#45;&gt;Node3 -->
<g id="edge106" class="edge">
<title>Node62&#45;&gt;Node3</title>
<path fill="none" stroke="#191970" d="M1803.5226,-168.46C1741.9714,-149.5896 1639.081,-118.8605 1600,-112 1479.9776,-90.9305 1100.0744,-72.5623 986.4241,-67.4261"/>
<polygon fill="#191970" stroke="#191970" points="986.4214,-63.9225 976.2746,-66.9707 986.1076,-70.9155 986.4214,-63.9225"/>
</g>
<!-- Node62&#45;&gt;Node10 -->
<g id="edge105" class="edge">
<title>Node62&#45;&gt;Node10</title>
<path fill="none" stroke="#191970" d="M1849.5281,-168.2977C1848.2267,-160.2945 1846.6153,-150.3843 1845.2177,-141.7889"/>
<polygon fill="#191970" stroke="#191970" points="1848.6608,-141.1555 1843.6011,-131.8469 1841.7515,-142.2791 1848.6608,-141.1555"/>
</g>
<!-- Node63&#45;&gt;Node2 -->
<g id="edge115" class="edge">
<title>Node63&#45;&gt;Node2</title>
<path fill="none" stroke="#191970" d="M1195.5694,-556.7066C1084.7194,-546.6505 886.4062,-527.3396 816,-512 788.1229,-505.9263 782.7086,-498.8011 755,-492 689.1485,-475.8366 613.0825,-463.6578 557.3417,-455.9052"/>
<polygon fill="#191970" stroke="#191970" points="557.5605,-452.4025 547.1772,-454.5091 556.608,-459.3374 557.5605,-452.4025"/>
</g>
<!-- Node63&#45;&gt;Node26 -->
<g id="edge111" class="edge">
<title>Node63&#45;&gt;Node26</title>
<path fill="none" stroke="#191970" d="M1350.0996,-560.0676C1464.3928,-554.1323 1672.7361,-539.8232 1742,-512 1769.3643,-501.0078 1795.4485,-478.7466 1811.5685,-463.1289"/>
<polygon fill="#191970" stroke="#191970" points="1814.4421,-465.2055 1819.0439,-455.6623 1809.4952,-460.2528 1814.4421,-465.2055"/>
</g>
<!-- Node63&#45;&gt;Node49 -->
<g id="edge110" class="edge">
<title>Node63&#45;&gt;Node49</title>
<path fill="none" stroke="#191970" d="M1258.8225,-548.3482C1249.3941,-538.1788 1236.8047,-524.4204 1226,-512 1197.2041,-478.8981 1201.4358,-457.1571 1163,-436 1110.0169,-406.8353 946.6507,-393.5986 845.5244,-388.0616"/>
<polygon fill="#191970" stroke="#191970" points="845.5048,-384.5556 835.3325,-387.518 845.1319,-391.5457 845.5048,-384.5556"/>
</g>
<!-- Node63&#45;&gt;Node53 -->
<g id="edge122" class="edge">
<title>Node63&#45;&gt;Node53</title>
<path fill="none" stroke="#191970" d="M1245.5766,-548.393C1229.3144,-538.879 1208.6874,-525.8144 1192,-512 1174.1491,-497.2224 1156.2992,-477.5804 1144.3678,-463.5755"/>
<polygon fill="#191970" stroke="#191970" points="1146.8592,-461.099 1137.7564,-455.6777 1141.4916,-465.5923 1146.8592,-461.099"/>
</g>
<!-- Node63&#45;&gt;Node61 -->
<g id="edge116" class="edge">
<title>Node63&#45;&gt;Node61</title>
<path fill="none" stroke="#191970" d="M1323.1486,-548.4554C1357.9535,-538.0139 1403.7667,-524.27 1436.5151,-514.4455"/>
<polygon fill="#191970" stroke="#191970" points="1437.6598,-517.7563 1446.2323,-511.5303 1435.6483,-511.0515 1437.6598,-517.7563"/>
</g>
<!-- Node64 -->
<g id="node46" class="node">
<title>Node64</title>
<g id="a_node46"><a xlink:href="VectorDynSize_8h.html" target="_top" xlink:title="iDynTree/Core/VectorDynSize.h">
<polygon fill="none" stroke="#000000" points="1805.5,-375 1805.5,-394 1972.5,-394 1972.5,-375 1805.5,-375"/>
<text text-anchor="middle" x="1889" y="-382" font-family="FreeSans.ttf" font-size="10.00" fill="#000000">iDynTree/Core/VectorDynSize.h</text>
</a>
</g>
</g>
<!-- Node63&#45;&gt;Node64 -->
<g id="edge112" class="edge">
<title>Node63&#45;&gt;Node64</title>
<path fill="none" stroke="#191970" d="M1350.3521,-558.5018C1470.0579,-550.2626 1694.4741,-532.6678 1772,-512 1831.2137,-496.2141 1864.6067,-507.3843 1898,-456 1908.0814,-440.4872 1903.513,-419.0389 1897.8556,-403.6883"/>
<polygon fill="#191970" stroke="#191970" points="1900.9827,-402.0908 1893.9316,-394.1831 1894.5124,-404.762 1900.9827,-402.0908"/>
</g>
<!-- Node65 -->
<g id="node47" class="node">
<title>Node65</title>
<g id="a_node47"><a xlink:href="JointState_8h.html" target="_top" xlink:title="iDynTree/Model/JointState.h">
<polygon fill="none" stroke="#000000" points="1234.5,-492.5 1234.5,-511.5 1385.5,-511.5 1385.5,-492.5 1234.5,-492.5"/>
<text text-anchor="middle" x="1310" y="-499.5" font-family="FreeSans.ttf" font-size="10.00" fill="#000000">iDynTree/Model/JointState.h</text>
</a>
</g>
</g>
<!-- Node63&#45;&gt;Node65 -->
<g id="edge117" class="edge">
<title>Node63&#45;&gt;Node65</title>
<path fill="none" stroke="#191970" d="M1282.1461,-548.2977C1287.1751,-539.9388 1293.4555,-529.4997 1298.7791,-520.6509"/>
<polygon fill="#191970" stroke="#191970" points="1301.9197,-522.2201 1304.0758,-511.8469 1295.9215,-518.6114 1301.9197,-522.2201"/>
</g>
<!-- Node64&#45;&gt;Node3 -->
<g id="edge114" class="edge">
<title>Node64&#45;&gt;Node3</title>
<path fill="none" stroke="#191970" d="M1889.3535,-374.8327C1889.4266,-357.674 1886.9914,-321.839 1867,-302 1801.3923,-236.8923 1141.0519,-103.002 986.3192,-72.3479"/>
<polygon fill="#191970" stroke="#191970" points="986.5563,-68.8272 976.0674,-70.3216 985.1989,-75.6943 986.5563,-68.8272"/>
</g>
<!-- Node64&#45;&gt;Node18 -->
<g id="edge113" class="edge">
<title>Node64&#45;&gt;Node18</title>
<path fill="none" stroke="#191970" d="M1891.0162,-374.8232C1893.8658,-358.5673 1897.3526,-325.2748 1884,-302 1844.1661,-232.5659 1621.0825,-119.6641 1539.7085,-80.1758"/>
<polygon fill="#191970" stroke="#191970" points="1541.036,-76.9301 1530.5092,-75.7319 1537.9912,-83.2333 1541.036,-76.9301"/>
</g>
<!-- Node65&#45;&gt;Node17 -->
<g id="edge118" class="edge">
<title>Node65&#45;&gt;Node17</title>
<path fill="none" stroke="#191970" d="M1317.9615,-492.0839C1346.7485,-456.2232 1443.8041,-335.2615 1445,-333 1479.7372,-267.31 1499.1385,-180.1089 1506.5103,-141.6478"/>
<polygon fill="#191970" stroke="#191970" points="1509.9636,-142.2208 1508.3448,-131.7504 1503.0808,-140.945 1509.9636,-142.2208"/>
</g>
<!-- Node65&#45;&gt;Node43 -->
<g id="edge120" class="edge">
<title>Node65&#45;&gt;Node43</title>
<path fill="none" stroke="#191970" d="M1306.4692,-492.4906C1303.0206,-483.1923 1297.6302,-468.6302 1293,-456 1287.3121,-440.4847 1280.974,-423.0576 1275.9795,-409.2929"/>
<polygon fill="#191970" stroke="#191970" points="1279.1545,-407.7811 1272.4553,-399.5731 1272.5737,-410.1673 1279.1545,-407.7811"/>
</g>
<!-- Node65&#45;&gt;Node53 -->
<g id="edge121" class="edge">
<title>Node65&#45;&gt;Node53</title>
<path fill="none" stroke="#191970" d="M1279.0569,-492.3733C1246.8098,-482.3408 1196.4525,-466.6741 1163.3408,-456.3727"/>
<polygon fill="#191970" stroke="#191970" points="1164.2459,-452.9889 1153.6576,-453.3601 1162.1664,-459.6729 1164.2459,-452.9889"/>
</g>
<!-- Node65&#45;&gt;Node64 -->
<g id="edge119" class="edge">
<title>Node65&#45;&gt;Node64</title>
<path fill="none" stroke="#191970" d="M1319.8363,-492.3083C1335.7678,-477.2868 1368.8876,-448.7843 1403,-436 1553.1572,-379.7258 1602.6257,-417.7144 1762,-400 1775.3234,-398.5191 1789.4231,-396.875 1803.1927,-395.2269"/>
<polygon fill="#191970" stroke="#191970" points="1803.6352,-398.699 1813.145,-394.0285 1802.7982,-391.7493 1803.6352,-398.699"/>
</g>
<!-- Node66&#45;&gt;Node17 -->
<g id="edge126" class="edge">
<title>Node66&#45;&gt;Node17</title>
<path fill="none" stroke="#191970" d="M2029.6581,-436.0691C2025.5786,-420.4299 2015.9436,-389.7139 1999,-369 1965.8261,-328.4441 1947.1388,-328.604 1902,-302 1786.5881,-233.9782 1754.8296,-221.4766 1632,-168 1604.091,-155.8492 1571.8396,-143.7712 1547.5086,-135.0421"/>
<polygon fill="#191970" stroke="#191970" points="1548.5296,-131.6905 1537.935,-131.6334 1546.1816,-138.285 1548.5296,-131.6905"/>
</g>
<!-- Node66&#45;&gt;Node11 -->
<g id="edge133" class="edge">
<title>Node66&#45;&gt;Node11</title>
<path fill="none" stroke="#191970" d="M2042.0857,-436.3776C2050.5864,-427.6788 2062.3912,-414.1071 2069,-400 2100.5238,-332.7094 2134.9714,-298.2693 2096,-235 2061.2875,-178.645 2025.865,-188.7083 1963,-168 1873.0593,-138.3727 1844.3816,-156.8296 1753,-132 1728.704,-125.3985 1724.5061,-117.7729 1700,-112 1629.6515,-95.428 1427.8347,-78.9065 1319.9663,-70.9298"/>
<polygon fill="#191970" stroke="#191970" points="1320.0579,-67.4272 1309.8282,-70.1849 1319.5448,-74.4084 1320.0579,-67.4272"/>
</g>
<!-- Node66&#45;&gt;Node27 -->
<g id="edge130" class="edge">
<title>Node66&#45;&gt;Node27</title>
<path fill="none" stroke="#191970" d="M1976.6105,-436.4581C1919.5138,-426.6221 1829.6511,-411.1416 1762.8484,-399.6336"/>
<polygon fill="#191970" stroke="#191970" points="1763.1995,-396.1425 1752.7504,-397.894 1762.011,-403.0409 1763.1995,-396.1425"/>
</g>
<!-- Node66&#45;&gt;Node43 -->
<g id="edge131" class="edge">
<title>Node66&#45;&gt;Node43</title>
<path fill="none" stroke="#191970" d="M1951.217,-439.5057C1805.3549,-427.7795 1499.4307,-403.1856 1351.1467,-391.2647"/>
<polygon fill="#191970" stroke="#191970" points="1351.4272,-387.7761 1341.1788,-390.4634 1350.8662,-394.7536 1351.4272,-387.7761"/>
</g>
<!-- Node66&#45;&gt;Node49 -->
<g id="edge132" class="edge">
<title>Node66&#45;&gt;Node49</title>
<path fill="none" stroke="#191970" d="M1951.246,-439.5906C1933.6987,-438.3049 1915.2322,-437.0334 1898,-436 1504.2063,-412.385 1033.0362,-394.2582 845.2121,-387.4399"/>
<polygon fill="#191970" stroke="#191970" points="845.255,-383.9393 835.1349,-387.0751 845.0017,-390.9347 845.255,-383.9393"/>
</g>
<!-- Node66&#45;&gt;Node10 -->
<g id="edge129" class="edge">
<title>Node66&#45;&gt;Node10</title>
<path fill="none" stroke="#191970" d="M2109.1176,-436.4662C2156.7892,-429.0136 2212.0142,-417.0375 2229,-400 2255.5655,-373.3537 2248,-355.1265 2248,-317.5 2248,-317.5 2248,-317.5 2248,-250.5 2248,-184.8576 2052.6528,-148.453 1932.9637,-132.3086"/>
<polygon fill="#191970" stroke="#191970" points="1933.0711,-128.7923 1922.698,-130.9484 1932.1516,-135.7316 1933.0711,-128.7923"/>
</g>
<!-- Node66&#45;&gt;Node64 -->
<g id="edge125" class="edge">
<title>Node66&#45;&gt;Node64</title>
<path fill="none" stroke="#191970" d="M2009.6563,-436.3906C1985.7297,-426.1005 1947.5691,-409.6888 1920.5784,-398.0809"/>
<polygon fill="#191970" stroke="#191970" points="1921.7561,-394.7775 1911.1869,-394.0419 1918.9905,-401.208 1921.7561,-394.7775"/>
</g>
<!-- Node67 -->
<g id="node49" class="node">
<title>Node67</title>
<polygon fill="none" stroke="#bfbfbf" points="2142.5,-375 2142.5,-394 2219.5,-394 2219.5,-375 2142.5,-375"/>
<text text-anchor="middle" x="2181" y="-382" font-family="FreeSans.ttf" font-size="10.00" fill="#000000">Eigen/Dense</text>
</g>
<!-- Node66&#45;&gt;Node67 -->
<g id="edge124" class="edge">
<title>Node66&#45;&gt;Node67</title>
<path fill="none" stroke="#191970" d="M2055.2813,-436.3906C2080.321,-426.0554 2120.3225,-409.5447 2148.466,-397.9284"/>
<polygon fill="#191970" stroke="#191970" points="2149.974,-401.0925 2157.8822,-394.0419 2147.3033,-394.622 2149.974,-401.0925"/>
</g>
<!-- Node68 -->
<g id="node50" class="node">
<title>Node68</title>
<g id="a_node50"><a xlink:href="MatrixDynSize_8h.html" target="_top" xlink:title="iDynTree/Core/MatrixDynSize.h">
<polygon fill="none" stroke="#000000" points="1919.5,-241 1919.5,-260 2086.5,-260 2086.5,-241 1919.5,-241"/>
<text text-anchor="middle" x="2003" y="-248" font-family="FreeSans.ttf" font-size="10.00" fill="#000000">iDynTree/Core/MatrixDynSize.h</text>
</a>
</g>
</g>
<!-- Node66&#45;&gt;Node68 -->
<g id="edge127" class="edge">
<title>Node66&#45;&gt;Node68</title>
<path fill="none" stroke="#191970" d="M2037.6945,-436.1646C2042.5863,-427.1092 2049.2692,-413.1298 2052,-400 2060.8692,-357.357 2068.1663,-342.4442 2052,-302 2046.4338,-288.0746 2035.1115,-275.7656 2024.7518,-266.676"/>
<polygon fill="#191970" stroke="#191970" points="2026.7219,-263.7643 2016.7782,-260.1072 2022.2709,-269.167 2026.7219,-263.7643"/>
</g>
<!-- Node68&#45;&gt;Node3 -->
<g id="edge128" class="edge">
<title>Node68&#45;&gt;Node3</title>
<path fill="none" stroke="#191970" d="M1997.8307,-240.9529C1987.736,-223.3224 1963.597,-185.8322 1932,-168 1848.3874,-120.812 1812.4627,-153.9658 1719,-132 1689.1624,-124.9875 1683.1555,-117.4866 1653,-112 1586.954,-99.9834 1114.8764,-74.4773 986.2783,-67.689"/>
<polygon fill="#191970" stroke="#191970" points="986.4339,-64.1924 976.2637,-67.1615 986.0657,-71.1827 986.4339,-64.1924"/>
</g>
</g>
</svg>
