<?xml version="1.0" encoding="UTF-8" standalone="no"?>
<!DOCTYPE svg PUBLIC "-//W3C//DTD SVG 1.1//EN"
 "http://www.w3.org/Graphics/SVG/1.1/DTD/svg11.dtd">
<!-- Generated by graphviz version 2.40.1 (20161225.0304)
 -->
<!-- Title: include Pages: 1 -->
<svg width="189pt" height="231pt"
 viewBox="0.00 0.00 189.00 231.00" xmlns="http://www.w3.org/2000/svg" xmlns:xlink="http://www.w3.org/1999/xlink">
<g id="graph0" class="graph" transform="scale(1 1) rotate(0) translate(4 227)">
<title>include</title>
<g id="clust1" class="cluster">
<title>clusterdir_b00de47ad7e2e13a637d9aa605dec95e</title>
<g id="a_clust1"><a xlink:href="dir_b00de47ad7e2e13a637d9aa605dec95e.html" target="_top" xlink:title="visualization">
<polygon fill="#ddddee" stroke="#000000" points="9,-128 9,-215 173,-215 173,-128 9,-128"/>
<text text-anchor="middle" x="91" y="-203" font-family="FreeSans.ttf" font-size="10.00" fill="#000000">visualization</text>
</a>
</g>
</g>
<g id="clust2" class="cluster">
<title>clusterdir_ebbf12392611829121a9105da178e5d3</title>
<g id="a_clust2"><a xlink:href="dir_ebbf12392611829121a9105da178e5d3.html" target="_top">
<polygon fill="#eeeeff" stroke="#000000" points="17,-136 17,-188 165,-188 165,-136 17,-136"/>
</a>
</g>
</g>
<!-- dir_ebbf12392611829121a9105da178e5d3 -->
<g id="node1" class="node">
<title>dir_ebbf12392611829121a9105da178e5d3</title>
<text text-anchor="middle" x="130" y="-159.5" font-family="FreeSans.ttf" font-size="10.00" fill="#000000">include</text>
</g>
<!-- dir_30e5997e332243feb7f49058feeba2a4 -->
<g id="node2" class="node">
<title>dir_30e5997e332243feb7f49058feeba2a4</title>
<g id="a_node2"><a xlink:href="dir_30e5997e332243feb7f49058feeba2a4.html" target="_top" xlink:title="iDynTree">
<polygon fill="#ffffff" stroke="#000000" points="84.5,-180 25.5,-180 25.5,-144 84.5,-144 84.5,-180"/>
<text text-anchor="middle" x="55" y="-159.5" font-family="FreeSans.ttf" font-size="10.00" fill="#000000">iDynTree</text>
</a>
</g>
</g>
<!-- dir_5dd65160827af56e6353642206b80129 -->
<g id="node3" class="node">
<title>dir_5dd65160827af56e6353642206b80129</title>
<g id="a_node3"><a xlink:href="dir_5dd65160827af56e6353642206b80129.html" target="_top" xlink:title="model">
<polygon fill="none" stroke="#ff0000" points="54,-108 0,-108 0,-72 54,-72 54,-108"/>
<text text-anchor="middle" x="27" y="-87.5" font-family="FreeSans.ttf" font-size="10.00" fill="#000000">model</text>
</a>
</g>
</g>
<!-- dir_30e5997e332243feb7f49058feeba2a4&#45;&gt;dir_5dd65160827af56e6353642206b80129 -->
<g id="edge1" class="edge">
<title>dir_30e5997e332243feb7f49058feeba2a4&#45;&gt;dir_5dd65160827af56e6353642206b80129</title>
<path fill="none" stroke="#000000" d="M47.9344,-143.8314C44.874,-135.9617 41.2221,-126.5712 37.8318,-117.8533"/>
<polygon fill="#000000" stroke="#000000" points="41.0473,-116.4647 34.1607,-108.4133 34.5232,-119.0019 41.0473,-116.4647"/>
<g id="a_edge1&#45;headlabel"><a xlink:href="dir_000098_000032.html" target="_top" xlink:title="2">
<text text-anchor="middle" x="44.9963" y="-116.2859" font-family="FreeSans.ttf" font-size="10.00" fill="#000000">2</text>
</a>
</g>
</g>
<!-- dir_aebb8dcc11953d78e620bbef0b9e2183 -->
<g id="node4" class="node">
<title>dir_aebb8dcc11953d78e620bbef0b9e2183</title>
<g id="a_node4"><a xlink:href="dir_aebb8dcc11953d78e620bbef0b9e2183.html" target="_top" xlink:title="core">
<polygon fill="none" stroke="#ff0000" points="81,-36 27,-36 27,0 81,0 81,-36"/>
<text text-anchor="middle" x="54" y="-15.5" font-family="FreeSans.ttf" font-size="10.00" fill="#000000">core</text>
</a>
</g>
</g>
<!-- dir_30e5997e332243feb7f49058feeba2a4&#45;&gt;dir_aebb8dcc11953d78e620bbef0b9e2183 -->
<g id="edge2" class="edge">
<title>dir_30e5997e332243feb7f49058feeba2a4&#45;&gt;dir_aebb8dcc11953d78e620bbef0b9e2183</title>
<path fill="none" stroke="#000000" d="M58.415,-143.5804C60.1709,-133.1767 62.1226,-119.9092 63,-108 64.1756,-92.0432 64.3197,-87.9455 63,-72 62.3055,-63.6085 61.0138,-54.5578 59.6214,-46.3092"/>
<polygon fill="#000000" stroke="#000000" points="63.0544,-45.6235 57.8413,-36.3999 56.1647,-46.8612 63.0544,-45.6235"/>
<g id="a_edge2&#45;headlabel"><a xlink:href="dir_000098_000011.html" target="_top" xlink:title="2">
<text text-anchor="middle" x="66.4844" y="-46.1595" font-family="FreeSans.ttf" font-size="10.00" fill="#000000">2</text>
</a>
</g>
</g>
<!-- dir_5dd65160827af56e6353642206b80129&#45;&gt;dir_aebb8dcc11953d78e620bbef0b9e2183 -->
<g id="edge3" class="edge">
<title>dir_5dd65160827af56e6353642206b80129&#45;&gt;dir_aebb8dcc11953d78e620bbef0b9e2183</title>
<path fill="none" stroke="#000000" d="M33.8132,-71.8314C36.7644,-63.9617 40.2858,-54.5712 43.555,-45.8533"/>
<polygon fill="#000000" stroke="#000000" points="46.8609,-47.0055 47.095,-36.4133 40.3066,-44.5476 46.8609,-47.0055"/>
<g id="a_edge3&#45;headlabel"><a xlink:href="dir_000032_000011.html" target="_top" xlink:title="59">
<text text-anchor="middle" x="48.2573" y="-48.8682" font-family="FreeSans.ttf" font-size="10.00" fill="#000000">59</text>
</a>
</g>
</g>
</g>
</svg>
