<?xml version="1.0" encoding="UTF-8" standalone="no"?>
<!DOCTYPE svg PUBLIC "-//W3C//DTD SVG 1.1//EN"
 "http://www.w3.org/Graphics/SVG/1.1/DTD/svg11.dtd">
<!-- Generated by graphviz version 2.40.1 (20161225.0304)
 -->
<!-- Title: iDynTree Pages: 1 -->
<svg width="188pt" height="231pt"
 viewBox="0.00 0.00 188.00 231.00" xmlns="http://www.w3.org/2000/svg" xmlns:xlink="http://www.w3.org/1999/xlink">
<g id="graph0" class="graph" transform="scale(1 1) rotate(0) translate(4 227)">
<title>iDynTree</title>
<g id="clust1" class="cluster">
<title>clusterdir_e19a85e2c87ef0ba16f64610cbd6c24e</title>
<g id="a_clust1"><a xlink:href="dir_e19a85e2c87ef0ba16f64610cbd6c24e.html" target="_top" xlink:title="include">
<polygon fill="#ddddee" stroke="#000000" points="8,-128 8,-215 172,-215 172,-128 8,-128"/>
<text text-anchor="middle" x="90" y="-203" font-family="FreeSans.ttf" font-size="10.00" fill="#000000">include</text>
</a>
</g>
</g>
<g id="clust2" class="cluster">
<title>clusterdir_98e8eff1bcae34ea41f5986f1960f459</title>
<g id="a_clust2"><a xlink:href="dir_98e8eff1bcae34ea41f5986f1960f459.html" target="_top">
<polygon fill="#eeeeff" stroke="#000000" points="16,-136 16,-188 164,-188 164,-136 16,-136"/>
</a>
</g>
</g>
<!-- dir_98e8eff1bcae34ea41f5986f1960f459 -->
<g id="node1" class="node">
<title>dir_98e8eff1bcae34ea41f5986f1960f459</title>
<text text-anchor="middle" x="126" y="-159.5" font-family="FreeSans.ttf" font-size="10.00" fill="#000000">iDynTree</text>
</g>
<!-- dir_710615f1fcb70e449001c5bcbae9c23a -->
<g id="node3" class="node">
<title>dir_710615f1fcb70e449001c5bcbae9c23a</title>
<g id="a_node3"><a xlink:href="dir_710615f1fcb70e449001c5bcbae9c23a.html" target="_top" xlink:title="estimation">
<polygon fill="none" stroke="#ff0000" points="128.5,-108 59.5,-108 59.5,-72 128.5,-72 128.5,-108"/>
<text text-anchor="middle" x="94" y="-87.5" font-family="FreeSans.ttf" font-size="10.00" fill="#000000">estimation</text>
</a>
</g>
</g>
<!-- dir_98e8eff1bcae34ea41f5986f1960f459&#45;&gt;dir_710615f1fcb70e449001c5bcbae9c23a -->
<g id="edge1" class="edge">
<title>dir_98e8eff1bcae34ea41f5986f1960f459&#45;&gt;dir_710615f1fcb70e449001c5bcbae9c23a</title>
<path fill="none" stroke="#000000" d="M117.925,-143.8314C114.3898,-135.8771 110.164,-126.369 106.2544,-117.5723"/>
<polygon fill="#000000" stroke="#000000" points="109.4435,-116.1299 102.1837,-108.4133 103.0468,-118.9729 109.4435,-116.1299"/>
<g id="a_edge1&#45;headlabel"><a xlink:href="dir_000066_000016.html" target="_top" xlink:title="1">
<text text-anchor="middle" x="113.4979" y="-115.7616" font-family="FreeSans.ttf" font-size="10.00" fill="#000000">1</text>
</a>
</g>
</g>
<!-- dir_5dd65160827af56e6353642206b80129 -->
<g id="node4" class="node">
<title>dir_5dd65160827af56e6353642206b80129</title>
<g id="a_node4"><a xlink:href="dir_5dd65160827af56e6353642206b80129.html" target="_top" xlink:title="model">
<polygon fill="none" stroke="#ff0000" points="152,-36 98,-36 98,0 152,0 152,-36"/>
<text text-anchor="middle" x="125" y="-15.5" font-family="FreeSans.ttf" font-size="10.00" fill="#000000">model</text>
</a>
</g>
</g>
<!-- dir_98e8eff1bcae34ea41f5986f1960f459&#45;&gt;dir_5dd65160827af56e6353642206b80129 -->
<g id="edge2" class="edge">
<title>dir_98e8eff1bcae34ea41f5986f1960f459&#45;&gt;dir_5dd65160827af56e6353642206b80129</title>
<path fill="none" stroke="#000000" d="M131.1191,-143.6727C133.752,-133.2978 136.6796,-120.0284 138,-108 139.7459,-92.0955 139.8856,-87.8885 138,-72 136.9932,-63.5166 135.1264,-54.4376 133.1153,-46.1913"/>
<polygon fill="#000000" stroke="#000000" points="136.4472,-45.0971 130.5446,-36.2988 129.6722,-46.8576 136.4472,-45.0971"/>
<g id="a_edge2&#45;headlabel"><a xlink:href="dir_000066_000032.html" target="_top" xlink:title="1">
<text text-anchor="middle" x="140.0992" y="-45.3621" font-family="FreeSans.ttf" font-size="10.00" fill="#000000">1</text>
</a>
</g>
</g>
<!-- dir_c8cb507e550c56df36b0f50ad97fe673 -->
<g id="node2" class="node">
<title>dir_c8cb507e550c56df36b0f50ad97fe673</title>
<g id="a_node2"><a xlink:href="dir_c8cb507e550c56df36b0f50ad97fe673.html" target="_top" xlink:title="iCub">
<polygon fill="#ffffff" stroke="#000000" points="78,-180 24,-180 24,-144 78,-144 78,-180"/>
<text text-anchor="middle" x="51" y="-159.5" font-family="FreeSans.ttf" font-size="10.00" fill="#000000">iCub</text>
</a>
</g>
</g>
<!-- dir_710615f1fcb70e449001c5bcbae9c23a&#45;&gt;dir_5dd65160827af56e6353642206b80129 -->
<g id="edge3" class="edge">
<title>dir_710615f1fcb70e449001c5bcbae9c23a&#45;&gt;dir_5dd65160827af56e6353642206b80129</title>
<path fill="none" stroke="#000000" d="M101.8226,-71.8314C105.2109,-63.9617 109.2541,-54.5712 113.0076,-45.8533"/>
<polygon fill="#000000" stroke="#000000" points="116.3321,-46.9822 117.0721,-36.4133 109.9027,-44.214 116.3321,-46.9822"/>
<g id="a_edge3&#45;headlabel"><a xlink:href="dir_000016_000032.html" target="_top" xlink:title="46">
<text text-anchor="middle" x="117.5185" y="-48.9066" font-family="FreeSans.ttf" font-size="10.00" fill="#000000">46</text>
</a>
</g>
</g>
</g>
</svg>
