<?xml version="1.0" encoding="UTF-8" standalone="no"?>
<!DOCTYPE svg PUBLIC "-//W3C//DTD SVG 1.1//EN"
 "http://www.w3.org/Graphics/SVG/1.1/DTD/svg11.dtd">
<!-- Generated by graphviz version 2.40.1 (20161225.0304)
 -->
<!-- Title: src Pages: 1 -->
<svg width="193pt" height="303pt"
 viewBox="0.00 0.00 193.08 303.00" xmlns="http://www.w3.org/2000/svg" xmlns:xlink="http://www.w3.org/1999/xlink">
<g id="graph0" class="graph" transform="scale(1 1) rotate(0) translate(4 299)">
<title>src</title>
<g id="clust1" class="cluster">
<title>clusterdir_83bec7f5c80e317dd7f2dfe2ea4fc0c1</title>
<g id="a_clust1"><a xlink:href="dir_83bec7f5c80e317dd7f2dfe2ea4fc0c1.html" target="_top" xlink:title="regressors">
<polygon fill="#ddddee" stroke="#000000" points="9,-200 9,-287 167,-287 167,-200 9,-200"/>
<text text-anchor="middle" x="88" y="-275" font-family="FreeSans.ttf" font-size="10.00" fill="#000000">regressors</text>
</a>
</g>
</g>
<g id="clust2" class="cluster">
<title>clusterdir_516ba38b13ac893c1ab168ce720dbd5a</title>
<g id="a_clust2"><a xlink:href="dir_516ba38b13ac893c1ab168ce720dbd5a.html" target="_top">
<polygon fill="#eeeeff" stroke="#000000" points="17,-208 17,-260 159,-260 159,-208 17,-208"/>
</a>
</g>
</g>
<!-- dir_516ba38b13ac893c1ab168ce720dbd5a -->
<g id="node1" class="node">
<title>dir_516ba38b13ac893c1ab168ce720dbd5a</title>
<text text-anchor="middle" x="52" y="-231.5" font-family="FreeSans.ttf" font-size="10.00" fill="#000000">src</text>
</g>
<!-- dir_fb93052291ccda37fd41b6d18f3dfcc9 -->
<g id="node5" class="node">
<title>dir_fb93052291ccda37fd41b6d18f3dfcc9</title>
<g id="a_node5"><a xlink:href="dir_fb93052291ccda37fd41b6d18f3dfcc9.html" target="_top" xlink:title="model_io">
<polygon fill="none" stroke="#ff0000" points="62,-180 0,-180 0,-144 62,-144 62,-180"/>
<text text-anchor="middle" x="31" y="-159.5" font-family="FreeSans.ttf" font-size="10.00" fill="#000000">model_io</text>
</a>
</g>
</g>
<!-- dir_516ba38b13ac893c1ab168ce720dbd5a&#45;&gt;dir_fb93052291ccda37fd41b6d18f3dfcc9 -->
<g id="edge1" class="edge">
<title>dir_516ba38b13ac893c1ab168ce720dbd5a&#45;&gt;dir_fb93052291ccda37fd41b6d18f3dfcc9</title>
<path fill="none" stroke="#000000" d="M46.7008,-215.8314C44.4302,-208.0463 41.7254,-198.7729 39.206,-190.1347"/>
<polygon fill="#000000" stroke="#000000" points="42.5306,-189.0332 36.3705,-180.4133 35.8106,-190.9933 42.5306,-189.0332"/>
<g id="a_edge1&#45;headlabel"><a xlink:href="dir_000022_000043.html" target="_top" xlink:title="2">
<text text-anchor="middle" x="46.2627" y="-189.1891" font-family="FreeSans.ttf" font-size="10.00" fill="#000000">2</text>
</a>
</g>
</g>
<!-- dir_17b5cd665a07f1025c26019f101ecdcc -->
<g id="node2" class="node">
<title>dir_17b5cd665a07f1025c26019f101ecdcc</title>
<g id="a_node2"><a xlink:href="dir_17b5cd665a07f1025c26019f101ecdcc.html" target="_top" xlink:title="dummy">
<polygon fill="#ffffff" stroke="#000000" points="151,-252 97,-252 97,-216 151,-216 151,-252"/>
<text text-anchor="middle" x="124" y="-231.5" font-family="FreeSans.ttf" font-size="10.00" fill="#000000">dummy</text>
</a>
</g>
</g>
<!-- dir_5ce921df3ac3fade00c4a3bfee44bd2a -->
<g id="node3" class="node">
<title>dir_5ce921df3ac3fade00c4a3bfee44bd2a</title>
<g id="a_node3"><a xlink:href="dir_5ce921df3ac3fade00c4a3bfee44bd2a.html" target="_top" xlink:title="include">
<polygon fill="none" stroke="#ff0000" points="172,-180 118,-180 118,-144 172,-144 172,-180"/>
<text text-anchor="middle" x="145" y="-159.5" font-family="FreeSans.ttf" font-size="10.00" fill="#000000">include</text>
</a>
</g>
</g>
<!-- dir_17b5cd665a07f1025c26019f101ecdcc&#45;&gt;dir_5ce921df3ac3fade00c4a3bfee44bd2a -->
<g id="edge7" class="edge">
<title>dir_17b5cd665a07f1025c26019f101ecdcc&#45;&gt;dir_5ce921df3ac3fade00c4a3bfee44bd2a</title>
<path fill="none" stroke="#000000" d="M129.2992,-215.8314C131.5698,-208.0463 134.2746,-198.7729 136.794,-190.1347"/>
<polygon fill="#000000" stroke="#000000" points="140.1894,-190.9933 139.6295,-180.4133 133.4694,-189.0332 140.1894,-190.9933"/>
<g id="a_edge7&#45;headlabel"><a xlink:href="dir_000050_000023.html" target="_top" xlink:title="1">
<text text-anchor="middle" x="141.9087" y="-192.7391" font-family="FreeSans.ttf" font-size="10.00" fill="#000000">1</text>
</a>
</g>
</g>
<!-- dir_7349e89ef19c117195f8e371603e1b1f -->
<g id="node4" class="node">
<title>dir_7349e89ef19c117195f8e371603e1b1f</title>
<g id="a_node4"><a xlink:href="dir_7349e89ef19c117195f8e371603e1b1f.html" target="_top" xlink:title="sensors">
<polygon fill="none" stroke="#ff0000" points="117,-108 63,-108 63,-72 117,-72 117,-108"/>
<text text-anchor="middle" x="90" y="-87.5" font-family="FreeSans.ttf" font-size="10.00" fill="#000000">sensors</text>
</a>
</g>
</g>
<!-- dir_17b5cd665a07f1025c26019f101ecdcc&#45;&gt;dir_7349e89ef19c117195f8e371603e1b1f -->
<g id="edge8" class="edge">
<title>dir_17b5cd665a07f1025c26019f101ecdcc&#45;&gt;dir_7349e89ef19c117195f8e371603e1b1f</title>
<path fill="none" stroke="#000000" d="M118.5741,-215.5809C115.5874,-205.1773 111.9082,-191.9098 109,-180 103.9569,-159.3476 99.0208,-135.8366 95.4443,-118.025"/>
<polygon fill="#000000" stroke="#000000" points="98.8353,-117.1317 93.4547,-108.0049 91.9693,-118.4951 98.8353,-117.1317"/>
<g id="a_edge8&#45;headlabel"><a xlink:href="dir_000050_000001.html" target="_top" xlink:title="1">
<text text-anchor="middle" x="102.3202" y="-117.6046" font-family="FreeSans.ttf" font-size="10.00" fill="#000000">1</text>
</a>
</g>
</g>
<!-- dir_aebb8dcc11953d78e620bbef0b9e2183 -->
<g id="node6" class="node">
<title>dir_aebb8dcc11953d78e620bbef0b9e2183</title>
<g id="a_node6"><a xlink:href="dir_aebb8dcc11953d78e620bbef0b9e2183.html" target="_top" xlink:title="core">
<polygon fill="none" stroke="#ff0000" points="144,-36 90,-36 90,0 144,0 144,-36"/>
<text text-anchor="middle" x="117" y="-15.5" font-family="FreeSans.ttf" font-size="10.00" fill="#000000">core</text>
</a>
</g>
</g>
<!-- dir_17b5cd665a07f1025c26019f101ecdcc&#45;&gt;dir_aebb8dcc11953d78e620bbef0b9e2183 -->
<g id="edge9" class="edge">
<title>dir_17b5cd665a07f1025c26019f101ecdcc&#45;&gt;dir_aebb8dcc11953d78e620bbef0b9e2183</title>
<path fill="none" stroke="#000000" d="M151.1897,-216.0065C162.6743,-206.7602 174.8058,-194.4006 181,-180 187.3221,-165.302 184.676,-159.572 181,-144 172.3146,-107.208 150.9005,-69.061 135.2259,-44.5178"/>
<polygon fill="#000000" stroke="#000000" points="138.1411,-42.5806 129.7449,-36.1187 132.2788,-46.4061 138.1411,-42.5806"/>
<g id="a_edge9&#45;headlabel"><a xlink:href="dir_000050_000011.html" target="_top" xlink:title="5">
<text text-anchor="middle" x="142.4832" y="-41.5392" font-family="FreeSans.ttf" font-size="10.00" fill="#000000">5</text>
</a>
</g>
</g>
<!-- dir_5ce921df3ac3fade00c4a3bfee44bd2a&#45;&gt;dir_7349e89ef19c117195f8e371603e1b1f -->
<g id="edge2" class="edge">
<title>dir_5ce921df3ac3fade00c4a3bfee44bd2a&#45;&gt;dir_7349e89ef19c117195f8e371603e1b1f</title>
<path fill="none" stroke="#000000" d="M131.1212,-143.8314C124.7864,-135.5386 117.1616,-125.557 110.2074,-116.4533"/>
<polygon fill="#000000" stroke="#000000" points="112.9175,-114.2353 104.0657,-108.4133 107.3548,-118.4847 112.9175,-114.2353"/>
<g id="a_edge2&#45;headlabel"><a xlink:href="dir_000023_000001.html" target="_top" xlink:title="6">
<text text-anchor="middle" x="117.3558" y="-112.8683" font-family="FreeSans.ttf" font-size="10.00" fill="#000000">6</text>
</a>
</g>
</g>
<!-- dir_5ce921df3ac3fade00c4a3bfee44bd2a&#45;&gt;dir_aebb8dcc11953d78e620bbef0b9e2183 -->
<g id="edge3" class="edge">
<title>dir_5ce921df3ac3fade00c4a3bfee44bd2a&#45;&gt;dir_aebb8dcc11953d78e620bbef0b9e2183</title>
<path fill="none" stroke="#000000" d="M141.4538,-143.7623C136.6569,-119.0928 128.0561,-74.8598 122.4392,-45.9731"/>
<polygon fill="#000000" stroke="#000000" points="125.8619,-45.2377 120.5174,-36.0896 118.9905,-46.5738 125.8619,-45.2377"/>
<g id="a_edge3&#45;headlabel"><a xlink:href="dir_000023_000011.html" target="_top" xlink:title="3">
<text text-anchor="middle" x="129.335" y="-45.7243" font-family="FreeSans.ttf" font-size="10.00" fill="#000000">3</text>
</a>
</g>
</g>
<!-- dir_7349e89ef19c117195f8e371603e1b1f&#45;&gt;dir_aebb8dcc11953d78e620bbef0b9e2183 -->
<g id="edge4" class="edge">
<title>dir_7349e89ef19c117195f8e371603e1b1f&#45;&gt;dir_aebb8dcc11953d78e620bbef0b9e2183</title>
<path fill="none" stroke="#000000" d="M96.8132,-71.8314C99.7644,-63.9617 103.2858,-54.5712 106.555,-45.8533"/>
<polygon fill="#000000" stroke="#000000" points="109.8609,-47.0055 110.095,-36.4133 103.3066,-44.5476 109.8609,-47.0055"/>
<g id="a_edge4&#45;headlabel"><a xlink:href="dir_000001_000011.html" target="_top" xlink:title="29">
<text text-anchor="middle" x="111.2573" y="-48.8682" font-family="FreeSans.ttf" font-size="10.00" fill="#000000">29</text>
</a>
</g>
</g>
<!-- dir_fb93052291ccda37fd41b6d18f3dfcc9&#45;&gt;dir_7349e89ef19c117195f8e371603e1b1f -->
<g id="edge5" class="edge">
<title>dir_fb93052291ccda37fd41b6d18f3dfcc9&#45;&gt;dir_7349e89ef19c117195f8e371603e1b1f</title>
<path fill="none" stroke="#000000" d="M45.8882,-143.8314C52.753,-135.454 61.0301,-125.3531 68.5511,-116.1749"/>
<polygon fill="#000000" stroke="#000000" points="71.2803,-118.3665 74.9114,-108.4133 65.8659,-113.9297 71.2803,-118.3665"/>
<g id="a_edge5&#45;headlabel"><a xlink:href="dir_000043_000001.html" target="_top" xlink:title="15">
<text text-anchor="middle" x="71.1981" y="-120.4464" font-family="FreeSans.ttf" font-size="10.00" fill="#000000">15</text>
</a>
</g>
</g>
<!-- dir_fb93052291ccda37fd41b6d18f3dfcc9&#45;&gt;dir_aebb8dcc11953d78e620bbef0b9e2183 -->
<g id="edge6" class="edge">
<title>dir_fb93052291ccda37fd41b6d18f3dfcc9&#45;&gt;dir_aebb8dcc11953d78e620bbef0b9e2183</title>
<path fill="none" stroke="#000000" d="M32.406,-143.836C34.5921,-124.7076 40.1216,-94.3251 54,-72 61.1414,-60.5122 71.5197,-50.1867 81.7996,-41.7164"/>
<polygon fill="#000000" stroke="#000000" points="84.2387,-44.2522 89.9591,-35.3344 79.926,-38.7385 84.2387,-44.2522"/>
<g id="a_edge6&#45;headlabel"><a xlink:href="dir_000043_000011.html" target="_top" xlink:title="22">
<text text-anchor="middle" x="83.1565" y="-46.2032" font-family="FreeSans.ttf" font-size="10.00" fill="#000000">22</text>
</a>
</g>
</g>
</g>
</svg>
