<?xml version="1.0" encoding="UTF-8" standalone="no"?>
<!DOCTYPE svg PUBLIC "-//W3C//DTD SVG 1.1//EN"
 "http://www.w3.org/Graphics/SVG/1.1/DTD/svg11.dtd">
<!-- Generated by graphviz version 2.40.1 (20161225.0304)
 -->
<!-- Title: dummy Pages: 1 -->
<svg width="124pt" height="295pt"
 viewBox="0.00 0.00 124.00 295.00" xmlns="http://www.w3.org/2000/svg" xmlns:xlink="http://www.w3.org/1999/xlink">
<g id="graph0" class="graph" transform="scale(1 1) rotate(0) translate(4 291)">
<title>dummy</title>
<g id="clust1" class="cluster">
<title>clusterdir_516ba38b13ac893c1ab168ce720dbd5a</title>
<g id="a_clust1"><a xlink:href="dir_516ba38b13ac893c1ab168ce720dbd5a.html" target="_top" xlink:title="src">
<polygon fill="#ddddee" stroke="#000000" points="38,-208 38,-279 108,-279 108,-208 38,-208"/>
<text text-anchor="middle" x="73" y="-267" font-family="FreeSans.ttf" font-size="10.00" fill="#000000">src</text>
</a>
</g>
</g>
<!-- dir_17b5cd665a07f1025c26019f101ecdcc -->
<g id="node1" class="node">
<title>dir_17b5cd665a07f1025c26019f101ecdcc</title>
<g id="a_node1"><a xlink:href="dir_17b5cd665a07f1025c26019f101ecdcc.html" target="_top" xlink:title="dummy">
<polygon fill="#eeeeff" stroke="#000000" points="100,-252 46,-252 46,-216 100,-216 100,-252"/>
<text text-anchor="middle" x="73" y="-231.5" font-family="FreeSans.ttf" font-size="10.00" fill="#000000">dummy</text>
</a>
</g>
</g>
<!-- dir_5ce921df3ac3fade00c4a3bfee44bd2a -->
<g id="node2" class="node">
<title>dir_5ce921df3ac3fade00c4a3bfee44bd2a</title>
<g id="a_node2"><a xlink:href="dir_5ce921df3ac3fade00c4a3bfee44bd2a.html" target="_top" xlink:title="include">
<polygon fill="none" stroke="#ff0000" points="100,-180 46,-180 46,-144 100,-144 100,-180"/>
<text text-anchor="middle" x="73" y="-159.5" font-family="FreeSans.ttf" font-size="10.00" fill="#000000">include</text>
</a>
</g>
</g>
<!-- dir_17b5cd665a07f1025c26019f101ecdcc&#45;&gt;dir_5ce921df3ac3fade00c4a3bfee44bd2a -->
<g id="edge4" class="edge">
<title>dir_17b5cd665a07f1025c26019f101ecdcc&#45;&gt;dir_5ce921df3ac3fade00c4a3bfee44bd2a</title>
<path fill="none" stroke="#000000" d="M73,-215.8314C73,-208.131 73,-198.9743 73,-190.4166"/>
<polygon fill="#000000" stroke="#000000" points="76.5001,-190.4132 73,-180.4133 69.5001,-190.4133 76.5001,-190.4132"/>
<g id="a_edge4&#45;headlabel"><a xlink:href="dir_000050_000023.html" target="_top" xlink:title="1">
<text text-anchor="middle" x="79.3393" y="-191.5079" font-family="FreeSans.ttf" font-size="10.00" fill="#000000">1</text>
</a>
</g>
</g>
<!-- dir_7349e89ef19c117195f8e371603e1b1f -->
<g id="node3" class="node">
<title>dir_7349e89ef19c117195f8e371603e1b1f</title>
<g id="a_node3"><a xlink:href="dir_7349e89ef19c117195f8e371603e1b1f.html" target="_top" xlink:title="sensors">
<polygon fill="none" stroke="#ff0000" points="54,-108 0,-108 0,-72 54,-72 54,-108"/>
<text text-anchor="middle" x="27" y="-87.5" font-family="FreeSans.ttf" font-size="10.00" fill="#000000">sensors</text>
</a>
</g>
</g>
<!-- dir_17b5cd665a07f1025c26019f101ecdcc&#45;&gt;dir_7349e89ef19c117195f8e371603e1b1f -->
<g id="edge5" class="edge">
<title>dir_17b5cd665a07f1025c26019f101ecdcc&#45;&gt;dir_7349e89ef19c117195f8e371603e1b1f</title>
<path fill="none" stroke="#000000" d="M57.6025,-215.7193C50.1014,-205.7854 41.7049,-192.9159 37,-180 29.792,-160.2124 27.3893,-136.4903 26.7367,-118.3693"/>
<polygon fill="#000000" stroke="#000000" points="30.2317,-118.0852 26.5302,-108.158 23.2332,-118.2267 30.2317,-118.0852"/>
<g id="a_edge5&#45;headlabel"><a xlink:href="dir_000050_000001.html" target="_top" xlink:title="1">
<text text-anchor="middle" x="33.143" y="-119.1217" font-family="FreeSans.ttf" font-size="10.00" fill="#000000">1</text>
</a>
</g>
</g>
<!-- dir_aebb8dcc11953d78e620bbef0b9e2183 -->
<g id="node4" class="node">
<title>dir_aebb8dcc11953d78e620bbef0b9e2183</title>
<g id="a_node4"><a xlink:href="dir_aebb8dcc11953d78e620bbef0b9e2183.html" target="_top" xlink:title="core">
<polygon fill="none" stroke="#ff0000" points="109,-36 55,-36 55,0 109,0 109,-36"/>
<text text-anchor="middle" x="82" y="-15.5" font-family="FreeSans.ttf" font-size="10.00" fill="#000000">core</text>
</a>
</g>
</g>
<!-- dir_17b5cd665a07f1025c26019f101ecdcc&#45;&gt;dir_aebb8dcc11953d78e620bbef0b9e2183 -->
<g id="edge6" class="edge">
<title>dir_17b5cd665a07f1025c26019f101ecdcc&#45;&gt;dir_aebb8dcc11953d78e620bbef0b9e2183</title>
<path fill="none" stroke="#000000" d="M88.9905,-215.9169C96.6538,-206.0371 105.0166,-193.1563 109,-180 122.9276,-134.0001 106.8081,-78.3417 94.172,-45.6874"/>
<polygon fill="#000000" stroke="#000000" points="97.3842,-44.2943 90.3994,-36.328 90.8918,-46.9113 97.3842,-44.2943"/>
<g id="a_edge6&#45;headlabel"><a xlink:href="dir_000050_000011.html" target="_top" xlink:title="5">
<text text-anchor="middle" x="101.3614" y="-44.0668" font-family="FreeSans.ttf" font-size="10.00" fill="#000000">5</text>
</a>
</g>
</g>
<!-- dir_5ce921df3ac3fade00c4a3bfee44bd2a&#45;&gt;dir_7349e89ef19c117195f8e371603e1b1f -->
<g id="edge1" class="edge">
<title>dir_5ce921df3ac3fade00c4a3bfee44bd2a&#45;&gt;dir_7349e89ef19c117195f8e371603e1b1f</title>
<path fill="none" stroke="#000000" d="M61.3923,-143.8314C56.2022,-135.7079 49.9768,-125.9637 44.2575,-117.0118"/>
<polygon fill="#000000" stroke="#000000" points="47.0974,-114.9559 38.764,-108.4133 41.1985,-118.7246 47.0974,-114.9559"/>
<g id="a_edge1&#45;headlabel"><a xlink:href="dir_000023_000001.html" target="_top" xlink:title="6">
<text text-anchor="middle" x="51.4253" y="-113.9564" font-family="FreeSans.ttf" font-size="10.00" fill="#000000">6</text>
</a>
</g>
</g>
<!-- dir_5ce921df3ac3fade00c4a3bfee44bd2a&#45;&gt;dir_aebb8dcc11953d78e620bbef0b9e2183 -->
<g id="edge2" class="edge">
<title>dir_5ce921df3ac3fade00c4a3bfee44bd2a&#45;&gt;dir_aebb8dcc11953d78e620bbef0b9e2183</title>
<path fill="none" stroke="#000000" d="M74.1399,-143.7623C75.6749,-119.201 78.422,-75.2474 80.2279,-46.3541"/>
<polygon fill="#000000" stroke="#000000" points="83.7387,-46.2885 80.8694,-36.0896 76.7523,-45.8518 83.7387,-46.2885"/>
<g id="a_edge2&#45;headlabel"><a xlink:href="dir_000023_000011.html" target="_top" xlink:title="3">
<text text-anchor="middle" x="86.3483" y="-47.5532" font-family="FreeSans.ttf" font-size="10.00" fill="#000000">3</text>
</a>
</g>
</g>
<!-- dir_7349e89ef19c117195f8e371603e1b1f&#45;&gt;dir_aebb8dcc11953d78e620bbef0b9e2183 -->
<g id="edge3" class="edge">
<title>dir_7349e89ef19c117195f8e371603e1b1f&#45;&gt;dir_aebb8dcc11953d78e620bbef0b9e2183</title>
<path fill="none" stroke="#000000" d="M40.8788,-71.8314C47.2136,-63.5386 54.8384,-53.557 61.7926,-44.4533"/>
<polygon fill="#000000" stroke="#000000" points="64.6452,-46.4847 67.9343,-36.4133 59.0825,-42.2353 64.6452,-46.4847"/>
<g id="a_edge3&#45;headlabel"><a xlink:href="dir_000001_000011.html" target="_top" xlink:title="29">
<text text-anchor="middle" x="64.7195" y="-48.5647" font-family="FreeSans.ttf" font-size="10.00" fill="#000000">29</text>
</a>
</g>
</g>
</g>
</svg>
