<?xml version="1.0" encoding="UTF-8" standalone="no"?>
<!DOCTYPE svg PUBLIC "-//W3C//DTD SVG 1.1//EN"
 "http://www.w3.org/Graphics/SVG/1.1/DTD/svg11.dtd">
<!-- Generated by graphviz version 2.40.1 (20161225.0304)
 -->
<!-- Title: include Pages: 1 -->
<svg width="281pt" height="231pt"
 viewBox="0.00 0.00 281.00 231.00" xmlns="http://www.w3.org/2000/svg" xmlns:xlink="http://www.w3.org/1999/xlink">
<g id="graph0" class="graph" transform="scale(1 1) rotate(0) translate(4 227)">
<title>include</title>
<g id="clust1" class="cluster">
<title>clusterdir_83bec7f5c80e317dd7f2dfe2ea4fc0c1</title>
<g id="a_clust1"><a xlink:href="dir_83bec7f5c80e317dd7f2dfe2ea4fc0c1.html" target="_top" xlink:title="regressors">
<polygon fill="#ddddee" stroke="#000000" points="8,-56 8,-215 184,-215 184,-56 8,-56"/>
<text text-anchor="middle" x="96" y="-203" font-family="FreeSans.ttf" font-size="10.00" fill="#000000">regressors</text>
</a>
</g>
</g>
<g id="clust2" class="cluster">
<title>clusterdir_5ce921df3ac3fade00c4a3bfee44bd2a</title>
<g id="a_clust2"><a xlink:href="dir_5ce921df3ac3fade00c4a3bfee44bd2a.html" target="_top">
<polygon fill="#eeeeff" stroke="#000000" points="16,-64 16,-188 176,-188 176,-64 16,-64"/>
</a>
</g>
</g>
<!-- dir_5ce921df3ac3fade00c4a3bfee44bd2a -->
<g id="node1" class="node">
<title>dir_5ce921df3ac3fade00c4a3bfee44bd2a</title>
<text text-anchor="middle" x="141" y="-159.5" font-family="FreeSans.ttf" font-size="10.00" fill="#000000">include</text>
</g>
<!-- dir_380db9a6b1369e45b23d1c806cefc824 -->
<g id="node2" class="node">
<title>dir_380db9a6b1369e45b23d1c806cefc824</title>
<g id="a_node2"><a xlink:href="dir_380db9a6b1369e45b23d1c806cefc824.html" target="_top" xlink:title="iDynTree">
<polygon fill="#ffffff" stroke="#ff0000" points="89.5,-108 30.5,-108 30.5,-72 89.5,-72 89.5,-108"/>
<text text-anchor="middle" x="60" y="-87.5" font-family="FreeSans.ttf" font-size="10.00" fill="#000000">iDynTree</text>
</a>
</g>
</g>
<!-- dir_fc268a90f89c1b2138a17c6fe77c154a -->
<g id="node3" class="node">
<title>dir_fc268a90f89c1b2138a17c6fe77c154a</title>
<g id="a_node3"><a xlink:href="dir_fc268a90f89c1b2138a17c6fe77c154a.html" target="_top" xlink:title="kdl_codyco">
<polygon fill="#ffffff" stroke="#ff0000" points="95.5,-180 24.5,-180 24.5,-144 95.5,-144 95.5,-180"/>
<text text-anchor="middle" x="60" y="-159.5" font-family="FreeSans.ttf" font-size="10.00" fill="#000000">kdl_codyco</text>
</a>
</g>
</g>
<!-- dir_fc268a90f89c1b2138a17c6fe77c154a&#45;&gt;dir_380db9a6b1369e45b23d1c806cefc824 -->
<g id="edge4" class="edge">
<title>dir_fc268a90f89c1b2138a17c6fe77c154a&#45;&gt;dir_380db9a6b1369e45b23d1c806cefc824</title>
<path fill="none" stroke="#000000" d="M60,-143.8314C60,-136.131 60,-126.9743 60,-118.4166"/>
<polygon fill="#000000" stroke="#000000" points="63.5001,-118.4132 60,-108.4133 56.5001,-118.4133 63.5001,-118.4132"/>
<g id="a_edge4&#45;headlabel"><a xlink:href="dir_000024_000051.html" target="_top" xlink:title="2">
<text text-anchor="middle" x="66.3393" y="-119.5079" font-family="FreeSans.ttf" font-size="10.00" fill="#000000">2</text>
</a>
</g>
</g>
<!-- dir_7349e89ef19c117195f8e371603e1b1f -->
<g id="node4" class="node">
<title>dir_7349e89ef19c117195f8e371603e1b1f</title>
<g id="a_node4"><a xlink:href="dir_7349e89ef19c117195f8e371603e1b1f.html" target="_top" xlink:title="sensors">
<polygon fill="none" stroke="#ff0000" points="246,-108 192,-108 192,-72 246,-72 246,-108"/>
<text text-anchor="middle" x="219" y="-87.5" font-family="FreeSans.ttf" font-size="10.00" fill="#000000">sensors</text>
</a>
</g>
</g>
<!-- dir_fc268a90f89c1b2138a17c6fe77c154a&#45;&gt;dir_7349e89ef19c117195f8e371603e1b1f -->
<g id="edge2" class="edge">
<title>dir_fc268a90f89c1b2138a17c6fe77c154a&#45;&gt;dir_7349e89ef19c117195f8e371603e1b1f</title>
<path fill="none" stroke="#000000" d="M95.7459,-146.0216C119.6277,-135.3201 151.7279,-120.8852 180,-108 180.8312,-107.6212 181.6722,-107.2373 182.5201,-106.8499"/>
<polygon fill="#000000" stroke="#000000" points="184.1094,-109.9717 191.7401,-102.6217 181.1914,-103.6088 184.1094,-109.9717"/>
<g id="a_edge2&#45;headlabel"><a xlink:href="dir_000024_000001.html" target="_top" xlink:title="6">
<text text-anchor="middle" x="182.0255" y="-111.5509" font-family="FreeSans.ttf" font-size="10.00" fill="#000000">6</text>
</a>
</g>
</g>
<!-- dir_aebb8dcc11953d78e620bbef0b9e2183 -->
<g id="node5" class="node">
<title>dir_aebb8dcc11953d78e620bbef0b9e2183</title>
<g id="a_node5"><a xlink:href="dir_aebb8dcc11953d78e620bbef0b9e2183.html" target="_top" xlink:title="core">
<polygon fill="none" stroke="#ff0000" points="273,-36 219,-36 219,0 273,0 273,-36"/>
<text text-anchor="middle" x="246" y="-15.5" font-family="FreeSans.ttf" font-size="10.00" fill="#000000">core</text>
</a>
</g>
</g>
<!-- dir_fc268a90f89c1b2138a17c6fe77c154a&#45;&gt;dir_aebb8dcc11953d78e620bbef0b9e2183 -->
<g id="edge3" class="edge">
<title>dir_fc268a90f89c1b2138a17c6fe77c154a&#45;&gt;dir_aebb8dcc11953d78e620bbef0b9e2183</title>
<path fill="none" stroke="#000000" d="M95.6912,-147.181C98.8191,-146.0476 101.953,-144.9694 105,-144 170.333,-123.2142 212.553,-161.8396 255,-108 268.6602,-90.6734 264.6142,-65.2544 258.1833,-45.8457"/>
<polygon fill="#000000" stroke="#000000" points="261.4173,-44.4989 254.684,-36.3188 254.8465,-46.9124 261.4173,-44.4989"/>
<g id="a_edge3&#45;headlabel"><a xlink:href="dir_000024_000011.html" target="_top" xlink:title="3">
<text text-anchor="middle" x="265.3217" y="-44.3942" font-family="FreeSans.ttf" font-size="10.00" fill="#000000">3</text>
</a>
</g>
</g>
<!-- dir_7349e89ef19c117195f8e371603e1b1f&#45;&gt;dir_aebb8dcc11953d78e620bbef0b9e2183 -->
<g id="edge1" class="edge">
<title>dir_7349e89ef19c117195f8e371603e1b1f&#45;&gt;dir_aebb8dcc11953d78e620bbef0b9e2183</title>
<path fill="none" stroke="#000000" d="M225.8132,-71.8314C228.7644,-63.9617 232.2858,-54.5712 235.555,-45.8533"/>
<polygon fill="#000000" stroke="#000000" points="238.8609,-47.0055 239.095,-36.4133 232.3066,-44.5476 238.8609,-47.0055"/>
<g id="a_edge1&#45;headlabel"><a xlink:href="dir_000001_000011.html" target="_top" xlink:title="29">
<text text-anchor="middle" x="240.2573" y="-48.8682" font-family="FreeSans.ttf" font-size="10.00" fill="#000000">29</text>
</a>
</g>
</g>
</g>
</svg>
