<?xml version="1.0" encoding="UTF-8" standalone="no"?>
<!DOCTYPE svg PUBLIC "-//W3C//DTD SVG 1.1//EN"
 "http://www.w3.org/Graphics/SVG/1.1/DTD/svg11.dtd">
<!-- Generated by graphviz version 2.40.1 (20161225.0304)
 -->
<!-- Title: model Pages: 1 -->
<svg width="182pt" height="231pt"
 viewBox="0.00 0.00 182.00 231.00" xmlns="http://www.w3.org/2000/svg" xmlns:xlink="http://www.w3.org/1999/xlink">
<g id="graph0" class="graph" transform="scale(1 1) rotate(0) translate(4 227)">
<title>model</title>
<g id="clust1" class="cluster">
<title>clusterdir_68267d1309a1af8e8297ef4c3efbcdba</title>
<g id="a_clust1"><a xlink:href="dir_68267d1309a1af8e8297ef4c3efbcdba.html" target="_top" xlink:title="src">
<polygon fill="#ddddee" stroke="#000000" points="8,-56 8,-215 166,-215 166,-56 8,-56"/>
<text text-anchor="middle" x="87" y="-203" font-family="FreeSans.ttf" font-size="10.00" fill="#000000">src</text>
</a>
</g>
</g>
<g id="clust2" class="cluster">
<title>clusterdir_5dd65160827af56e6353642206b80129</title>
<g id="a_clust2"><a xlink:href="dir_5dd65160827af56e6353642206b80129.html" target="_top">
<polygon fill="#eeeeff" stroke="#000000" points="16,-64 16,-188 158,-188 158,-64 16,-64"/>
</a>
</g>
</g>
<!-- dir_5dd65160827af56e6353642206b80129 -->
<g id="node1" class="node">
<title>dir_5dd65160827af56e6353642206b80129</title>
<text text-anchor="middle" x="123" y="-159.5" font-family="FreeSans.ttf" font-size="10.00" fill="#000000">model</text>
</g>
<!-- dir_4e42d8d7040e5636217fe339fb7064ec -->
<g id="node2" class="node">
<title>dir_4e42d8d7040e5636217fe339fb7064ec</title>
<g id="a_node2"><a xlink:href="dir_4e42d8d7040e5636217fe339fb7064ec.html" target="_top" xlink:title="include">
<polygon fill="#ffffff" stroke="#ff0000" points="78,-108 24,-108 24,-72 78,-72 78,-108"/>
<text text-anchor="middle" x="51" y="-87.5" font-family="FreeSans.ttf" font-size="10.00" fill="#000000">include</text>
</a>
</g>
</g>
<!-- dir_aebb8dcc11953d78e620bbef0b9e2183 -->
<g id="node4" class="node">
<title>dir_aebb8dcc11953d78e620bbef0b9e2183</title>
<g id="a_node4"><a xlink:href="dir_aebb8dcc11953d78e620bbef0b9e2183.html" target="_top" xlink:title="core">
<polygon fill="none" stroke="#ff0000" points="105,-36 51,-36 51,0 105,0 105,-36"/>
<text text-anchor="middle" x="78" y="-15.5" font-family="FreeSans.ttf" font-size="10.00" fill="#000000">core</text>
</a>
</g>
</g>
<!-- dir_4e42d8d7040e5636217fe339fb7064ec&#45;&gt;dir_aebb8dcc11953d78e620bbef0b9e2183 -->
<g id="edge1" class="edge">
<title>dir_4e42d8d7040e5636217fe339fb7064ec&#45;&gt;dir_aebb8dcc11953d78e620bbef0b9e2183</title>
<path fill="none" stroke="#000000" d="M57.8132,-71.8314C60.7644,-63.9617 64.2858,-54.5712 67.555,-45.8533"/>
<polygon fill="#000000" stroke="#000000" points="70.8609,-47.0055 71.095,-36.4133 64.3066,-44.5476 70.8609,-47.0055"/>
<g id="a_edge1&#45;headlabel"><a xlink:href="dir_000033_000011.html" target="_top" xlink:title="33">
<text text-anchor="middle" x="72.2573" y="-48.8682" font-family="FreeSans.ttf" font-size="10.00" fill="#000000">33</text>
</a>
</g>
</g>
<!-- dir_30c79c2f60d993eed1939c8b077b0583 -->
<g id="node3" class="node">
<title>dir_30c79c2f60d993eed1939c8b077b0583</title>
<g id="a_node3"><a xlink:href="dir_30c79c2f60d993eed1939c8b077b0583.html" target="_top" xlink:title="src">
<polygon fill="#ffffff" stroke="#000000" points="78,-180 24,-180 24,-144 78,-144 78,-180"/>
<text text-anchor="middle" x="51" y="-159.5" font-family="FreeSans.ttf" font-size="10.00" fill="#000000">src</text>
</a>
</g>
</g>
<!-- dir_30c79c2f60d993eed1939c8b077b0583&#45;&gt;dir_4e42d8d7040e5636217fe339fb7064ec -->
<g id="edge2" class="edge">
<title>dir_30c79c2f60d993eed1939c8b077b0583&#45;&gt;dir_4e42d8d7040e5636217fe339fb7064ec</title>
<path fill="none" stroke="#000000" d="M51,-143.8314C51,-136.131 51,-126.9743 51,-118.4166"/>
<polygon fill="#000000" stroke="#000000" points="54.5001,-118.4132 51,-108.4133 47.5001,-118.4133 54.5001,-118.4132"/>
<g id="a_edge2&#45;headlabel"><a xlink:href="dir_000049_000033.html" target="_top" xlink:title="69">
<text text-anchor="middle" x="57.3393" y="-119.5079" font-family="FreeSans.ttf" font-size="10.00" fill="#000000">69</text>
</a>
</g>
</g>
<!-- dir_30c79c2f60d993eed1939c8b077b0583&#45;&gt;dir_aebb8dcc11953d78e620bbef0b9e2183 -->
<g id="edge3" class="edge">
<title>dir_30c79c2f60d993eed1939c8b077b0583&#45;&gt;dir_aebb8dcc11953d78e620bbef0b9e2183</title>
<path fill="none" stroke="#000000" d="M66.9905,-143.9169C74.6538,-134.0371 83.0166,-121.1563 87,-108 93.0862,-87.8985 90.3561,-64.2346 86.3608,-46.2178"/>
<polygon fill="#000000" stroke="#000000" points="89.7149,-45.201 83.9192,-36.3319 82.9191,-46.8794 89.7149,-45.201"/>
<g id="a_edge3&#45;headlabel"><a xlink:href="dir_000049_000011.html" target="_top" xlink:title="26">
<text text-anchor="middle" x="93.3331" y="-45.51" font-family="FreeSans.ttf" font-size="10.00" fill="#000000">26</text>
</a>
</g>
</g>
</g>
</svg>
