<?xml version="1.0" encoding="UTF-8" standalone="no"?>
<!DOCTYPE svg PUBLIC "-//W3C//DTD SVG 1.1//EN"
 "http://www.w3.org/Graphics/SVG/1.1/DTD/svg11.dtd">
<!-- Generated by graphviz version 2.40.1 (20161225.0304)
 -->
<!-- Title: include Pages: 1 -->
<svg width="158pt" height="223pt"
 viewBox="0.00 0.00 158.00 223.00" xmlns="http://www.w3.org/2000/svg" xmlns:xlink="http://www.w3.org/1999/xlink">
<g id="graph0" class="graph" transform="scale(1 1) rotate(0) translate(4 219)">
<title>include</title>
<g id="clust1" class="cluster">
<title>clusterdir_d32611501a8b9f9ee5f85682f67560af</title>
<g id="a_clust1"><a xlink:href="dir_d32611501a8b9f9ee5f85682f67560af.html" target="_top" xlink:title="yarprobotstatepublisher">
<polygon fill="#ddddee" stroke="#000000" points="8,-136 8,-207 142,-207 142,-136 8,-136"/>
<text text-anchor="middle" x="75" y="-195" font-family="FreeSans.ttf" font-size="10.00" fill="#000000">yarprobotstatepublisher</text>
</a>
</g>
</g>
<!-- dir_517fac0de58368127e466407b6b31ec8 -->
<g id="node1" class="node">
<title>dir_517fac0de58368127e466407b6b31ec8</title>
<g id="a_node1"><a xlink:href="dir_517fac0de58368127e466407b6b31ec8.html" target="_top" xlink:title="include">
<polygon fill="#eeeeff" stroke="#000000" points="102,-180 48,-180 48,-144 102,-144 102,-180"/>
<text text-anchor="middle" x="75" y="-159.5" font-family="FreeSans.ttf" font-size="10.00" fill="#000000">include</text>
</a>
</g>
</g>
<!-- dir_355314d08763ddbf0e6d36531a48f7ae -->
<g id="node2" class="node">
<title>dir_355314d08763ddbf0e6d36531a48f7ae</title>
<g id="a_node2"><a xlink:href="dir_355314d08763ddbf0e6d36531a48f7ae.html" target="_top" xlink:title="high&#45;level">
<polygon fill="none" stroke="#ff0000" points="76.5,-108 11.5,-108 11.5,-72 76.5,-72 76.5,-108"/>
<text text-anchor="middle" x="44" y="-87.5" font-family="FreeSans.ttf" font-size="10.00" fill="#000000">high&#45;level</text>
</a>
</g>
</g>
<!-- dir_517fac0de58368127e466407b6b31ec8&#45;&gt;dir_355314d08763ddbf0e6d36531a48f7ae -->
<g id="edge2" class="edge">
<title>dir_517fac0de58368127e466407b6b31ec8&#45;&gt;dir_355314d08763ddbf0e6d36531a48f7ae</title>
<path fill="none" stroke="#000000" d="M67.1774,-143.8314C63.7891,-135.9617 59.7459,-126.5712 55.9924,-117.8533"/>
<polygon fill="#000000" stroke="#000000" points="59.0973,-116.214 51.9279,-108.4133 52.6679,-118.9822 59.0973,-116.214"/>
<g id="a_edge2&#45;headlabel"><a xlink:href="dir_000085_000072.html" target="_top" xlink:title="1">
<text text-anchor="middle" x="63.1266" y="-115.8928" font-family="FreeSans.ttf" font-size="10.00" fill="#000000">1</text>
</a>
</g>
</g>
<!-- dir_aebb8dcc11953d78e620bbef0b9e2183 -->
<g id="node3" class="node">
<title>dir_aebb8dcc11953d78e620bbef0b9e2183</title>
<g id="a_node3"><a xlink:href="dir_aebb8dcc11953d78e620bbef0b9e2183.html" target="_top" xlink:title="core">
<polygon fill="none" stroke="#ff0000" points="101,-36 47,-36 47,0 101,0 101,-36"/>
<text text-anchor="middle" x="74" y="-15.5" font-family="FreeSans.ttf" font-size="10.00" fill="#000000">core</text>
</a>
</g>
</g>
<!-- dir_517fac0de58368127e466407b6b31ec8&#45;&gt;dir_aebb8dcc11953d78e620bbef0b9e2183 -->
<g id="edge3" class="edge">
<title>dir_517fac0de58368127e466407b6b31ec8&#45;&gt;dir_aebb8dcc11953d78e620bbef0b9e2183</title>
<path fill="none" stroke="#000000" d="M79.6934,-143.6463C82.1071,-133.2631 84.7908,-119.9943 86,-108 87.6049,-92.0807 87.7459,-87.9045 86,-72 85.0716,-63.5425 83.3486,-54.4715 81.4922,-46.2246"/>
<polygon fill="#000000" stroke="#000000" points="84.8544,-45.2356 79.1191,-36.3273 78.0473,-46.8678 84.8544,-45.2356"/>
<g id="a_edge3&#45;headlabel"><a xlink:href="dir_000085_000011.html" target="_top" xlink:title="1">
<text text-anchor="middle" x="88.4534" y="-45.5692" font-family="FreeSans.ttf" font-size="10.00" fill="#000000">1</text>
</a>
</g>
</g>
<!-- dir_355314d08763ddbf0e6d36531a48f7ae&#45;&gt;dir_aebb8dcc11953d78e620bbef0b9e2183 -->
<g id="edge1" class="edge">
<title>dir_355314d08763ddbf0e6d36531a48f7ae&#45;&gt;dir_aebb8dcc11953d78e620bbef0b9e2183</title>
<path fill="none" stroke="#000000" d="M51.5703,-71.8314C54.8493,-63.9617 58.762,-54.5712 62.3945,-45.8533"/>
<polygon fill="#000000" stroke="#000000" points="65.7124,-46.9902 66.3278,-36.4133 59.2508,-44.2979 65.7124,-46.9902"/>
<g id="a_edge1&#45;headlabel"><a xlink:href="dir_000072_000011.html" target="_top" xlink:title="14">
<text text-anchor="middle" x="66.9507" y="-48.9003" font-family="FreeSans.ttf" font-size="10.00" fill="#000000">14</text>
</a>
</g>
</g>
</g>
</svg>
