<?xml version="1.0" encoding="UTF-8" standalone="no"?>
<!DOCTYPE svg PUBLIC "-//W3C//DTD SVG 1.1//EN"
 "http://www.w3.org/Graphics/SVG/1.1/DTD/svg11.dtd">
<!-- Generated by graphviz version 2.40.1 (20161225.0304)
 -->
<!-- Title: src Pages: 1 -->
<svg width="137pt" height="295pt"
 viewBox="0.00 0.00 137.00 295.00" xmlns="http://www.w3.org/2000/svg" xmlns:xlink="http://www.w3.org/1999/xlink">
<g id="graph0" class="graph" transform="scale(1 1) rotate(0) translate(4 291)">
<title>src</title>
<g id="clust1" class="cluster">
<title>clusterdir_316a0dddb2dbe91a12d5288b17ad5f68</title>
<g id="a_clust1"><a xlink:href="dir_316a0dddb2dbe91a12d5288b17ad5f68.html" target="_top" xlink:title="solid&#45;shapes">
<polygon fill="#ddddee" stroke="#000000" points="43,-208 43,-279 121,-279 121,-208 43,-208"/>
<text text-anchor="middle" x="82" y="-267" font-family="FreeSans.ttf" font-size="10.00" fill="#000000">solid&#45;shapes</text>
</a>
</g>
</g>
<!-- dir_599f6a56bfc752d2c332f7ca56b1dfaa -->
<g id="node1" class="node">
<title>dir_599f6a56bfc752d2c332f7ca56b1dfaa</title>
<g id="a_node1"><a xlink:href="dir_599f6a56bfc752d2c332f7ca56b1dfaa.html" target="_top" xlink:title="src">
<polygon fill="#eeeeff" stroke="#000000" points="109,-252 55,-252 55,-216 109,-216 109,-252"/>
<text text-anchor="middle" x="82" y="-231.5" font-family="FreeSans.ttf" font-size="10.00" fill="#000000">src</text>
</a>
</g>
</g>
<!-- dir_015bc75052cfc2d812e3326d1dee41f1 -->
<g id="node2" class="node">
<title>dir_015bc75052cfc2d812e3326d1dee41f1</title>
<g id="a_node2"><a xlink:href="dir_015bc75052cfc2d812e3326d1dee41f1.html" target="_top" xlink:title="include">
<polygon fill="none" stroke="#ff0000" points="54,-180 0,-180 0,-144 54,-144 54,-180"/>
<text text-anchor="middle" x="27" y="-159.5" font-family="FreeSans.ttf" font-size="10.00" fill="#000000">include</text>
</a>
</g>
</g>
<!-- dir_599f6a56bfc752d2c332f7ca56b1dfaa&#45;&gt;dir_015bc75052cfc2d812e3326d1dee41f1 -->
<g id="edge1" class="edge">
<title>dir_599f6a56bfc752d2c332f7ca56b1dfaa&#45;&gt;dir_015bc75052cfc2d812e3326d1dee41f1</title>
<path fill="none" stroke="#000000" d="M68.1212,-215.8314C61.7864,-207.5386 54.1616,-197.557 47.2074,-188.4533"/>
<polygon fill="#000000" stroke="#000000" points="49.9175,-186.2353 41.0657,-180.4133 44.3548,-190.4847 49.9175,-186.2353"/>
<g id="a_edge1&#45;headlabel"><a xlink:href="dir_000068_000069.html" target="_top" xlink:title="1">
<text text-anchor="middle" x="54.3558" y="-184.8683" font-family="FreeSans.ttf" font-size="10.00" fill="#000000">1</text>
</a>
</g>
</g>
<!-- dir_5dd65160827af56e6353642206b80129 -->
<g id="node3" class="node">
<title>dir_5dd65160827af56e6353642206b80129</title>
<g id="a_node3"><a xlink:href="dir_5dd65160827af56e6353642206b80129.html" target="_top" xlink:title="model">
<polygon fill="none" stroke="#ff0000" points="92,-108 38,-108 38,-72 92,-72 92,-108"/>
<text text-anchor="middle" x="65" y="-87.5" font-family="FreeSans.ttf" font-size="10.00" fill="#000000">model</text>
</a>
</g>
</g>
<!-- dir_599f6a56bfc752d2c332f7ca56b1dfaa&#45;&gt;dir_5dd65160827af56e6353642206b80129 -->
<g id="edge2" class="edge">
<title>dir_599f6a56bfc752d2c332f7ca56b1dfaa&#45;&gt;dir_5dd65160827af56e6353642206b80129</title>
<path fill="none" stroke="#000000" d="M79.8469,-215.7623C76.9473,-191.201 71.7584,-147.2474 68.3474,-118.3541"/>
<polygon fill="#000000" stroke="#000000" points="71.7839,-117.6103 67.1356,-108.0896 64.8322,-118.431 71.7839,-117.6103"/>
<g id="a_edge2&#45;headlabel"><a xlink:href="dir_000068_000032.html" target="_top" xlink:title="1">
<text text-anchor="middle" x="75.025" y="-118.3473" font-family="FreeSans.ttf" font-size="10.00" fill="#000000">1</text>
</a>
</g>
</g>
<!-- dir_aebb8dcc11953d78e620bbef0b9e2183 -->
<g id="node4" class="node">
<title>dir_aebb8dcc11953d78e620bbef0b9e2183</title>
<g id="a_node4"><a xlink:href="dir_aebb8dcc11953d78e620bbef0b9e2183.html" target="_top" xlink:title="core">
<polygon fill="none" stroke="#ff0000" points="119,-36 65,-36 65,0 119,0 119,-36"/>
<text text-anchor="middle" x="92" y="-15.5" font-family="FreeSans.ttf" font-size="10.00" fill="#000000">core</text>
</a>
</g>
</g>
<!-- dir_599f6a56bfc752d2c332f7ca56b1dfaa&#45;&gt;dir_aebb8dcc11953d78e620bbef0b9e2183 -->
<g id="edge3" class="edge">
<title>dir_599f6a56bfc752d2c332f7ca56b1dfaa&#45;&gt;dir_aebb8dcc11953d78e620bbef0b9e2183</title>
<path fill="none" stroke="#000000" d="M86.5709,-215.5768C93.4744,-185.5615 105.321,-124.2094 101,-72 100.3055,-63.6085 99.0138,-54.5578 97.6214,-46.3092"/>
<polygon fill="#000000" stroke="#000000" points="101.0544,-45.6235 95.8413,-36.3999 94.1647,-46.8612 101.0544,-45.6235"/>
<g id="a_edge3&#45;headlabel"><a xlink:href="dir_000068_000011.html" target="_top" xlink:title="5">
<text text-anchor="middle" x="104.4844" y="-46.1595" font-family="FreeSans.ttf" font-size="10.00" fill="#000000">5</text>
</a>
</g>
</g>
<!-- dir_015bc75052cfc2d812e3326d1dee41f1&#45;&gt;dir_5dd65160827af56e6353642206b80129 -->
<g id="edge4" class="edge">
<title>dir_015bc75052cfc2d812e3326d1dee41f1&#45;&gt;dir_5dd65160827af56e6353642206b80129</title>
<path fill="none" stroke="#000000" d="M36.589,-143.8314C40.8317,-135.7925 45.9121,-126.1666 50.596,-117.2918"/>
<polygon fill="#000000" stroke="#000000" points="53.7096,-118.8908 55.2819,-108.4133 47.5189,-115.6235 53.7096,-118.8908"/>
<g id="a_edge4&#45;headlabel"><a xlink:href="dir_000069_000032.html" target="_top" xlink:title="1">
<text text-anchor="middle" x="54.5428" y="-120.895" font-family="FreeSans.ttf" font-size="10.00" fill="#000000">1</text>
</a>
</g>
</g>
<!-- dir_5dd65160827af56e6353642206b80129&#45;&gt;dir_aebb8dcc11953d78e620bbef0b9e2183 -->
<g id="edge5" class="edge">
<title>dir_5dd65160827af56e6353642206b80129&#45;&gt;dir_aebb8dcc11953d78e620bbef0b9e2183</title>
<path fill="none" stroke="#000000" d="M71.8132,-71.8314C74.7644,-63.9617 78.2858,-54.5712 81.555,-45.8533"/>
<polygon fill="#000000" stroke="#000000" points="84.8609,-47.0055 85.095,-36.4133 78.3066,-44.5476 84.8609,-47.0055"/>
<g id="a_edge5&#45;headlabel"><a xlink:href="dir_000032_000011.html" target="_top" xlink:title="59">
<text text-anchor="middle" x="86.2573" y="-48.8682" font-family="FreeSans.ttf" font-size="10.00" fill="#000000">59</text>
</a>
</g>
</g>
</g>
</svg>
