<?xml version="1.0" encoding="UTF-8" standalone="no"?>
<!DOCTYPE svg PUBLIC "-//W3C//DTD SVG 1.1//EN"
 "http://www.w3.org/Graphics/SVG/1.1/DTD/svg11.dtd">
<!-- Generated by graphviz version 2.40.1 (20161225.0304)
 -->
<!-- Title: include Pages: 1 -->
<svg width="189pt" height="295pt"
 viewBox="0.00 0.00 189.00 295.00" xmlns="http://www.w3.org/2000/svg" xmlns:xlink="http://www.w3.org/1999/xlink">
<g id="graph0" class="graph" transform="scale(1 1) rotate(0) translate(4 291)">
<title>include</title>
<g id="clust1" class="cluster">
<title>clusterdir_4389f904d0ef83ca978d73e67bfe11a2</title>
<g id="a_clust1"><a xlink:href="dir_4389f904d0ef83ca978d73e67bfe11a2.html" target="_top" xlink:title="plugin">
<polygon fill="#ddddee" stroke="#000000" points="8,-208 8,-279 78,-279 78,-208 8,-208"/>
<text text-anchor="middle" x="43" y="-267" font-family="FreeSans.ttf" font-size="10.00" fill="#000000">plugin</text>
</a>
</g>
</g>
<!-- dir_c44975431ff540c0494452b56f599281 -->
<g id="node1" class="node">
<title>dir_c44975431ff540c0494452b56f599281</title>
<g id="a_node1"><a xlink:href="dir_c44975431ff540c0494452b56f599281.html" target="_top" xlink:title="include">
<polygon fill="#eeeeff" stroke="#000000" points="70,-252 16,-252 16,-216 70,-216 70,-252"/>
<text text-anchor="middle" x="43" y="-231.5" font-family="FreeSans.ttf" font-size="10.00" fill="#000000">include</text>
</a>
</g>
</g>
<!-- dir_355314d08763ddbf0e6d36531a48f7ae -->
<g id="node2" class="node">
<title>dir_355314d08763ddbf0e6d36531a48f7ae</title>
<g id="a_node2"><a xlink:href="dir_355314d08763ddbf0e6d36531a48f7ae.html" target="_top" xlink:title="high&#45;level">
<polygon fill="none" stroke="#ff0000" points="98.5,-108 33.5,-108 33.5,-72 98.5,-72 98.5,-108"/>
<text text-anchor="middle" x="66" y="-87.5" font-family="FreeSans.ttf" font-size="10.00" fill="#000000">high&#45;level</text>
</a>
</g>
</g>
<!-- dir_c44975431ff540c0494452b56f599281&#45;&gt;dir_355314d08763ddbf0e6d36531a48f7ae -->
<g id="edge2" class="edge">
<title>dir_c44975431ff540c0494452b56f599281&#45;&gt;dir_355314d08763ddbf0e6d36531a48f7ae</title>
<path fill="none" stroke="#000000" d="M45.913,-215.7623C49.8532,-191.0928 56.9182,-146.8598 61.5321,-117.9731"/>
<polygon fill="#000000" stroke="#000000" points="64.9896,-118.5165 63.1107,-108.0896 58.0772,-117.4124 64.9896,-118.5165"/>
<g id="a_edge2&#45;headlabel"><a xlink:href="dir_000084_000072.html" target="_top" xlink:title="1">
<text text-anchor="middle" x="67.2264" y="-120.0139" font-family="FreeSans.ttf" font-size="10.00" fill="#000000">1</text>
</a>
</g>
</g>
<!-- dir_aebb8dcc11953d78e620bbef0b9e2183 -->
<g id="node3" class="node">
<title>dir_aebb8dcc11953d78e620bbef0b9e2183</title>
<g id="a_node3"><a xlink:href="dir_aebb8dcc11953d78e620bbef0b9e2183.html" target="_top" xlink:title="core">
<polygon fill="none" stroke="#ff0000" points="93,-36 39,-36 39,0 93,0 93,-36"/>
<text text-anchor="middle" x="66" y="-15.5" font-family="FreeSans.ttf" font-size="10.00" fill="#000000">core</text>
</a>
</g>
</g>
<!-- dir_c44975431ff540c0494452b56f599281&#45;&gt;dir_aebb8dcc11953d78e620bbef0b9e2183 -->
<g id="edge3" class="edge">
<title>dir_c44975431ff540c0494452b56f599281&#45;&gt;dir_aebb8dcc11953d78e620bbef0b9e2183</title>
<path fill="none" stroke="#000000" d="M35.8577,-215.9539C24.874,-185.4413 6.8144,-122.088 24,-72 27.469,-61.8894 33.6899,-52.2137 40.299,-43.9166"/>
<polygon fill="#000000" stroke="#000000" points="43.1265,-45.9949 46.95,-36.1141 37.7992,-41.4539 43.1265,-45.9949"/>
<g id="a_edge3&#45;headlabel"><a xlink:href="dir_000084_000011.html" target="_top" xlink:title="1">
<text text-anchor="middle" x="42.9554" y="-48.0724" font-family="FreeSans.ttf" font-size="10.00" fill="#000000">1</text>
</a>
</g>
</g>
<!-- dir_b7c18fbf081229a9716e24d71701f6e8 -->
<g id="node4" class="node">
<title>dir_b7c18fbf081229a9716e24d71701f6e8</title>
<g id="a_node4"><a xlink:href="dir_b7c18fbf081229a9716e24d71701f6e8.html" target="_top" xlink:title="inverse&#45;kinematics">
<polygon fill="none" stroke="#ff0000" points="181,-180 71,-180 71,-144 181,-144 181,-180"/>
<text text-anchor="middle" x="126" y="-159.5" font-family="FreeSans.ttf" font-size="10.00" fill="#000000">inverse&#45;kinematics</text>
</a>
</g>
</g>
<!-- dir_c44975431ff540c0494452b56f599281&#45;&gt;dir_b7c18fbf081229a9716e24d71701f6e8 -->
<g id="edge4" class="edge">
<title>dir_c44975431ff540c0494452b56f599281&#45;&gt;dir_b7c18fbf081229a9716e24d71701f6e8</title>
<path fill="none" stroke="#000000" d="M63.9444,-215.8314C74.0691,-207.0485 86.3777,-196.3712 97.3548,-186.8489"/>
<polygon fill="#000000" stroke="#000000" points="99.8019,-189.3595 105.0623,-180.1628 95.2149,-184.0718 99.8019,-189.3595"/>
<g id="a_edge4&#45;headlabel"><a xlink:href="dir_000084_000026.html" target="_top" xlink:title="1">
<text text-anchor="middle" x="98.9471" y="-191.3597" font-family="FreeSans.ttf" font-size="10.00" fill="#000000">1</text>
</a>
</g>
</g>
<!-- dir_355314d08763ddbf0e6d36531a48f7ae&#45;&gt;dir_aebb8dcc11953d78e620bbef0b9e2183 -->
<g id="edge1" class="edge">
<title>dir_355314d08763ddbf0e6d36531a48f7ae&#45;&gt;dir_aebb8dcc11953d78e620bbef0b9e2183</title>
<path fill="none" stroke="#000000" d="M66,-71.8314C66,-64.131 66,-54.9743 66,-46.4166"/>
<polygon fill="#000000" stroke="#000000" points="69.5001,-46.4132 66,-36.4133 62.5001,-46.4133 69.5001,-46.4132"/>
<g id="a_edge1&#45;headlabel"><a xlink:href="dir_000072_000011.html" target="_top" xlink:title="14">
<text text-anchor="middle" x="72.3393" y="-47.5079" font-family="FreeSans.ttf" font-size="10.00" fill="#000000">14</text>
</a>
</g>
</g>
<!-- dir_b7c18fbf081229a9716e24d71701f6e8&#45;&gt;dir_355314d08763ddbf0e6d36531a48f7ae -->
<g id="edge5" class="edge">
<title>dir_b7c18fbf081229a9716e24d71701f6e8&#45;&gt;dir_355314d08763ddbf0e6d36531a48f7ae</title>
<path fill="none" stroke="#000000" d="M110.8595,-143.8314C103.8783,-135.454 95.4609,-125.3531 87.8124,-116.1749"/>
<polygon fill="#000000" stroke="#000000" points="90.4351,-113.8548 81.3444,-108.4133 85.0575,-118.3362 90.4351,-113.8548"/>
<g id="a_edge5&#45;headlabel"><a xlink:href="dir_000026_000072.html" target="_top" xlink:title="1">
<text text-anchor="middle" x="94.9174" y="-112.2986" font-family="FreeSans.ttf" font-size="10.00" fill="#000000">1</text>
</a>
</g>
</g>
<!-- dir_b7c18fbf081229a9716e24d71701f6e8&#45;&gt;dir_aebb8dcc11953d78e620bbef0b9e2183 -->
<g id="edge6" class="edge">
<title>dir_b7c18fbf081229a9716e24d71701f6e8&#45;&gt;dir_aebb8dcc11953d78e620bbef0b9e2183</title>
<path fill="none" stroke="#000000" d="M124.5081,-143.6774C122.4477,-124.9522 117.6883,-95.3838 107,-72 102.5225,-62.2043 96.008,-52.5125 89.4846,-44.1017"/>
<polygon fill="#000000" stroke="#000000" points="92.0556,-41.7156 83.0333,-36.1615 86.6228,-46.1297 92.0556,-41.7156"/>
<g id="a_edge6&#45;headlabel"><a xlink:href="dir_000026_000011.html" target="_top" xlink:title="34">
<text text-anchor="middle" x="96.5259" y="-40.2151" font-family="FreeSans.ttf" font-size="10.00" fill="#000000">34</text>
</a>
</g>
</g>
</g>
</svg>
