<?xml version="1.0" encoding="UTF-8" standalone="no"?>
<!DOCTYPE svg PUBLIC "-//W3C//DTD SVG 1.1//EN"
 "http://www.w3.org/Graphics/SVG/1.1/DTD/svg11.dtd">
<!-- Generated by graphviz version 2.40.1 (20161225.0304)
 -->
<!-- Title: src Pages: 1 -->
<svg width="566pt" height="508pt"
 viewBox="0.00 0.00 566.00 508.00" xmlns="http://www.w3.org/2000/svg" xmlns:xlink="http://www.w3.org/1999/xlink">
<g id="graph0" class="graph" transform="scale(1 1) rotate(0) translate(4 504)">
<title>src</title>
<g id="clust1" class="cluster">
<title>clusterdir_68267d1309a1af8e8297ef4c3efbcdba</title>
<g id="a_clust1"><a xlink:href="dir_68267d1309a1af8e8297ef4c3efbcdba.html" target="_top">
<polygon fill="#eeeeff" stroke="#000000" points="8,-8 8,-492 550,-492 550,-8 8,-8"/>
</a>
</g>
</g>
<!-- dir_68267d1309a1af8e8297ef4c3efbcdba -->
<g id="node1" class="node">
<title>dir_68267d1309a1af8e8297ef4c3efbcdba</title>
<text text-anchor="middle" x="427" y="-463.5" font-family="FreeSans.ttf" font-size="10.00" fill="#000000">src</text>
</g>
<!-- dir_aebb8dcc11953d78e620bbef0b9e2183 -->
<g id="node2" class="node">
<title>dir_aebb8dcc11953d78e620bbef0b9e2183</title>
<g id="a_node2"><a xlink:href="dir_aebb8dcc11953d78e620bbef0b9e2183.html" target="_top" xlink:title="core">
<polygon fill="#ffffff" stroke="#ff0000" points="354,-52 300,-52 300,-16 354,-16 354,-52"/>
<text text-anchor="middle" x="327" y="-31.5" font-family="FreeSans.ttf" font-size="10.00" fill="#000000">core</text>
</a>
</g>
</g>
<!-- dir_710615f1fcb70e449001c5bcbae9c23a -->
<g id="node3" class="node">
<title>dir_710615f1fcb70e449001c5bcbae9c23a</title>
<g id="a_node3"><a xlink:href="dir_710615f1fcb70e449001c5bcbae9c23a.html" target="_top" xlink:title="estimation">
<polygon fill="#ffffff" stroke="#ff0000" points="165.5,-340 96.5,-340 96.5,-304 165.5,-304 165.5,-340"/>
<text text-anchor="middle" x="131" y="-319.5" font-family="FreeSans.ttf" font-size="10.00" fill="#000000">estimation</text>
</a>
</g>
</g>
<!-- dir_710615f1fcb70e449001c5bcbae9c23a&#45;&gt;dir_aebb8dcc11953d78e620bbef0b9e2183 -->
<g id="edge21" class="edge">
<title>dir_710615f1fcb70e449001c5bcbae9c23a&#45;&gt;dir_aebb8dcc11953d78e620bbef0b9e2183</title>
<path fill="none" stroke="#000000" d="M123.6444,-303.8912C107.4773,-260.8256 74.3035,-151.1877 127,-88 147.6883,-63.193 237.8097,-46.6125 289.7419,-38.9273"/>
<polygon fill="#000000" stroke="#000000" points="290.4969,-42.3547 299.8963,-37.4657 289.4996,-35.4261 290.4969,-42.3547"/>
<g id="a_edge21&#45;headlabel"><a xlink:href="dir_000016_000011.html" target="_top" xlink:title="47">
<text text-anchor="middle" x="287.3434" y="-43.1771" font-family="FreeSans.ttf" font-size="10.00" fill="#000000">47</text>
</a>
</g>
</g>
<!-- dir_5dd65160827af56e6353642206b80129 -->
<g id="node7" class="node">
<title>dir_5dd65160827af56e6353642206b80129</title>
<g id="a_node7"><a xlink:href="dir_5dd65160827af56e6353642206b80129.html" target="_top" xlink:title="model">
<polygon fill="#ffffff" stroke="#ff0000" points="214,-124 160,-124 160,-88 214,-88 214,-124"/>
<text text-anchor="middle" x="187" y="-103.5" font-family="FreeSans.ttf" font-size="10.00" fill="#000000">model</text>
</a>
</g>
</g>
<!-- dir_710615f1fcb70e449001c5bcbae9c23a&#45;&gt;dir_5dd65160827af56e6353642206b80129 -->
<g id="edge20" class="edge">
<title>dir_710615f1fcb70e449001c5bcbae9c23a&#45;&gt;dir_5dd65160827af56e6353642206b80129</title>
<path fill="none" stroke="#000000" d="M133.2591,-303.6895C137.3054,-273.3197 146.9049,-210.8362 163,-160 165.8044,-151.1423 169.6281,-141.7938 173.399,-133.4101"/>
<polygon fill="#000000" stroke="#000000" points="176.6865,-134.6415 177.7373,-124.0989 170.3414,-131.6852 176.6865,-134.6415"/>
<g id="a_edge20&#45;headlabel"><a xlink:href="dir_000016_000032.html" target="_top" xlink:title="46">
<text text-anchor="middle" x="177.7421" y="-136.5989" font-family="FreeSans.ttf" font-size="10.00" fill="#000000">46</text>
</a>
</g>
</g>
<!-- dir_fb93052291ccda37fd41b6d18f3dfcc9 -->
<g id="node8" class="node">
<title>dir_fb93052291ccda37fd41b6d18f3dfcc9</title>
<g id="a_node8"><a xlink:href="dir_fb93052291ccda37fd41b6d18f3dfcc9.html" target="_top" xlink:title="model_io">
<polygon fill="#ffffff" stroke="#ff0000" points="314,-268 252,-268 252,-232 314,-232 314,-268"/>
<text text-anchor="middle" x="283" y="-247.5" font-family="FreeSans.ttf" font-size="10.00" fill="#000000">model_io</text>
</a>
</g>
</g>
<!-- dir_710615f1fcb70e449001c5bcbae9c23a&#45;&gt;dir_fb93052291ccda37fd41b6d18f3dfcc9 -->
<g id="edge19" class="edge">
<title>dir_710615f1fcb70e449001c5bcbae9c23a&#45;&gt;dir_fb93052291ccda37fd41b6d18f3dfcc9</title>
<path fill="none" stroke="#000000" d="M165.8719,-305.4817C188.7753,-294.6328 218.81,-280.4058 242.7307,-269.0749"/>
<polygon fill="#000000" stroke="#000000" points="244.3634,-272.1744 251.9025,-264.7304 241.3667,-265.8483 244.3634,-272.1744"/>
<g id="a_edge19&#45;headlabel"><a xlink:href="dir_000016_000043.html" target="_top" xlink:title="2">
<text text-anchor="middle" x="242.3302" y="-273.7791" font-family="FreeSans.ttf" font-size="10.00" fill="#000000">2</text>
</a>
</g>
</g>
<!-- dir_7349e89ef19c117195f8e371603e1b1f -->
<g id="node11" class="node">
<title>dir_7349e89ef19c117195f8e371603e1b1f</title>
<g id="a_node11"><a xlink:href="dir_7349e89ef19c117195f8e371603e1b1f.html" target="_top" xlink:title="sensors">
<polygon fill="#ffffff" stroke="#ff0000" points="270,-196 216,-196 216,-160 270,-160 270,-196"/>
<text text-anchor="middle" x="243" y="-175.5" font-family="FreeSans.ttf" font-size="10.00" fill="#000000">sensors</text>
</a>
</g>
</g>
<!-- dir_710615f1fcb70e449001c5bcbae9c23a&#45;&gt;dir_7349e89ef19c117195f8e371603e1b1f -->
<g id="edge18" class="edge">
<title>dir_710615f1fcb70e449001c5bcbae9c23a&#45;&gt;dir_7349e89ef19c117195f8e371603e1b1f</title>
<path fill="none" stroke="#000000" d="M145.1849,-303.7623C164.793,-278.5518 200.292,-232.9103 222.7038,-204.0952"/>
<polygon fill="#000000" stroke="#000000" points="225.5536,-206.132 228.9303,-196.0896 220.0281,-201.8344 225.5536,-206.132"/>
<g id="a_edge18&#45;headlabel"><a xlink:href="dir_000016_000001.html" target="_top" xlink:title="10">
<text text-anchor="middle" x="225.5879" y="-208.2125" font-family="FreeSans.ttf" font-size="10.00" fill="#000000">10</text>
</a>
</g>
</g>
<!-- dir_355314d08763ddbf0e6d36531a48f7ae -->
<g id="node4" class="node">
<title>dir_355314d08763ddbf0e6d36531a48f7ae</title>
<g id="a_node4"><a xlink:href="dir_355314d08763ddbf0e6d36531a48f7ae.html" target="_top" xlink:title="high&#45;level">
<polygon fill="#ffffff" stroke="#ff0000" points="248.5,-340 183.5,-340 183.5,-304 248.5,-304 248.5,-340"/>
<text text-anchor="middle" x="216" y="-319.5" font-family="FreeSans.ttf" font-size="10.00" fill="#000000">high&#45;level</text>
</a>
</g>
</g>
<!-- dir_355314d08763ddbf0e6d36531a48f7ae&#45;&gt;dir_aebb8dcc11953d78e620bbef0b9e2183 -->
<g id="edge11" class="edge">
<title>dir_355314d08763ddbf0e6d36531a48f7ae&#45;&gt;dir_aebb8dcc11953d78e620bbef0b9e2183</title>
<path fill="none" stroke="#000000" d="M192.2501,-303.7797C181.7293,-294.3221 170.3242,-281.8522 164,-268 130.6887,-195.036 103.3223,-152.4998 151,-88 167.5588,-65.5987 243.1707,-48.6671 289.7367,-40.1428"/>
<polygon fill="#000000" stroke="#000000" points="290.5355,-43.5557 299.7656,-38.3542 289.3064,-36.6644 290.5355,-43.5557"/>
<g id="a_edge11&#45;headlabel"><a xlink:href="dir_000072_000011.html" target="_top" xlink:title="14">
<text text-anchor="middle" x="287.4951" y="-44.4818" font-family="FreeSans.ttf" font-size="10.00" fill="#000000">14</text>
</a>
</g>
</g>
<!-- dir_355314d08763ddbf0e6d36531a48f7ae&#45;&gt;dir_5dd65160827af56e6353642206b80129 -->
<g id="edge10" class="edge">
<title>dir_355314d08763ddbf0e6d36531a48f7ae&#45;&gt;dir_5dd65160827af56e6353642206b80129</title>
<path fill="none" stroke="#000000" d="M199.5871,-303.9088C191.6256,-294.0267 182.7716,-281.1464 178,-268 161.598,-222.8106 165.5072,-207.6335 172,-160 173.1772,-151.3639 175.3671,-142.1599 177.717,-133.8427"/>
<polygon fill="#000000" stroke="#000000" points="181.078,-134.8195 180.6052,-124.2353 174.3743,-132.8042 181.078,-134.8195"/>
<g id="a_edge10&#45;headlabel"><a xlink:href="dir_000072_000032.html" target="_top" xlink:title="11">
<text text-anchor="middle" x="182.7622" y="-136.5794" font-family="FreeSans.ttf" font-size="10.00" fill="#000000">11</text>
</a>
</g>
</g>
<!-- dir_355314d08763ddbf0e6d36531a48f7ae&#45;&gt;dir_fb93052291ccda37fd41b6d18f3dfcc9 -->
<g id="edge9" class="edge">
<title>dir_355314d08763ddbf0e6d36531a48f7ae&#45;&gt;dir_fb93052291ccda37fd41b6d18f3dfcc9</title>
<path fill="none" stroke="#000000" d="M232.9069,-303.8314C240.7813,-295.3694 250.292,-285.1489 258.9013,-275.8971"/>
<polygon fill="#000000" stroke="#000000" points="261.6153,-278.1183 265.8654,-268.4133 256.4908,-273.3497 261.6153,-278.1183"/>
<g id="a_edge9&#45;headlabel"><a xlink:href="dir_000072_000043.html" target="_top" xlink:title="1">
<text text-anchor="middle" x="261.2451" y="-280.184" font-family="FreeSans.ttf" font-size="10.00" fill="#000000">1</text>
</a>
</g>
</g>
<!-- dir_2a3c79a8659119928eb3cfb9c5637ece -->
<g id="node5" class="node">
<title>dir_2a3c79a8659119928eb3cfb9c5637ece</title>
<g id="a_node5"><a xlink:href="dir_2a3c79a8659119928eb3cfb9c5637ece.html" target="_top" xlink:title="icub">
<polygon fill="#ffffff" stroke="#ff0000" points="158,-412 104,-412 104,-376 158,-376 158,-412"/>
<text text-anchor="middle" x="131" y="-391.5" font-family="FreeSans.ttf" font-size="10.00" fill="#000000">icub</text>
</a>
</g>
</g>
<!-- dir_2a3c79a8659119928eb3cfb9c5637ece&#45;&gt;dir_aebb8dcc11953d78e620bbef0b9e2183 -->
<g id="edge6" class="edge">
<title>dir_2a3c79a8659119928eb3cfb9c5637ece&#45;&gt;dir_aebb8dcc11953d78e620bbef0b9e2183</title>
<path fill="none" stroke="#000000" d="M107.1509,-375.928C96.7058,-366.5042 85.574,-354.02 80,-340 38.4496,-235.4914 28.0591,-171.8592 103,-88 127.5293,-60.5516 232.5644,-44.6598 289.6719,-37.8947"/>
<polygon fill="#000000" stroke="#000000" points="290.2121,-41.3558 299.7471,-36.737 289.4129,-34.4016 290.2121,-41.3558"/>
<g id="a_edge6&#45;headlabel"><a xlink:href="dir_000063_000011.html" target="_top" xlink:title="2">
<text text-anchor="middle" x="286.965" y="-42.0868" font-family="FreeSans.ttf" font-size="10.00" fill="#000000">2</text>
</a>
</g>
</g>
<!-- dir_2a3c79a8659119928eb3cfb9c5637ece&#45;&gt;dir_710615f1fcb70e449001c5bcbae9c23a -->
<g id="edge3" class="edge">
<title>dir_2a3c79a8659119928eb3cfb9c5637ece&#45;&gt;dir_710615f1fcb70e449001c5bcbae9c23a</title>
<path fill="none" stroke="#000000" d="M131,-375.8314C131,-368.131 131,-358.9743 131,-350.4166"/>
<polygon fill="#000000" stroke="#000000" points="134.5001,-350.4132 131,-340.4133 127.5001,-350.4133 134.5001,-350.4132"/>
<g id="a_edge3&#45;headlabel"><a xlink:href="dir_000063_000016.html" target="_top" xlink:title="1">
<text text-anchor="middle" x="137.3393" y="-351.5079" font-family="FreeSans.ttf" font-size="10.00" fill="#000000">1</text>
</a>
</g>
</g>
<!-- dir_2a3c79a8659119928eb3cfb9c5637ece&#45;&gt;dir_5dd65160827af56e6353642206b80129 -->
<g id="edge4" class="edge">
<title>dir_2a3c79a8659119928eb3cfb9c5637ece&#45;&gt;dir_5dd65160827af56e6353642206b80129</title>
<path fill="none" stroke="#000000" d="M111.5044,-375.9663C102.4897,-366.2894 92.7449,-353.5757 88,-340 82.721,-324.896 84.8159,-319.68 88,-304 101.8322,-235.8848 115.2541,-220.7637 149,-160 154.1761,-150.6797 160.6065,-141.0046 166.6966,-132.4626"/>
<polygon fill="#000000" stroke="#000000" points="169.5468,-134.4944 172.6144,-124.3533 163.8923,-130.368 169.5468,-134.4944"/>
<g id="a_edge4&#45;headlabel"><a xlink:href="dir_000063_000032.html" target="_top" xlink:title="5">
<text text-anchor="middle" x="169.7214" y="-136.5717" font-family="FreeSans.ttf" font-size="10.00" fill="#000000">5</text>
</a>
</g>
</g>
<!-- dir_ca655c1e93447bcdfcc1afb2c793c8bd -->
<g id="node15" class="node">
<title>dir_ca655c1e93447bcdfcc1afb2c793c8bd</title>
<g id="a_node15"><a xlink:href="dir_ca655c1e93447bcdfcc1afb2c793c8bd.html" target="_top" xlink:title="yarp">
<polygon fill="#ffffff" stroke="#ff0000" points="537,-340 483,-340 483,-304 537,-304 537,-340"/>
<text text-anchor="middle" x="510" y="-319.5" font-family="FreeSans.ttf" font-size="10.00" fill="#000000">yarp</text>
</a>
</g>
</g>
<!-- dir_2a3c79a8659119928eb3cfb9c5637ece&#45;&gt;dir_ca655c1e93447bcdfcc1afb2c793c8bd -->
<g id="edge5" class="edge">
<title>dir_2a3c79a8659119928eb3cfb9c5637ece&#45;&gt;dir_ca655c1e93447bcdfcc1afb2c793c8bd</title>
<path fill="none" stroke="#000000" d="M158.2235,-385.555C169.523,-382.2562 182.8172,-378.6401 195,-376 297.8365,-353.7145 325.5847,-359.4237 429,-340 443.3283,-337.3088 458.9868,-333.9324 472.6844,-330.833"/>
<polygon fill="#000000" stroke="#000000" points="473.7568,-334.1781 482.7224,-328.5329 472.1933,-327.3549 473.7568,-334.1781"/>
<g id="a_edge5&#45;headlabel"><a xlink:href="dir_000063_000103.html" target="_top" xlink:title="2">
<text text-anchor="middle" x="470.8871" y="-335.2484" font-family="FreeSans.ttf" font-size="10.00" fill="#000000">2</text>
</a>
</g>
</g>
<!-- dir_b7c18fbf081229a9716e24d71701f6e8 -->
<g id="node6" class="node">
<title>dir_b7c18fbf081229a9716e24d71701f6e8</title>
<g id="a_node6"><a xlink:href="dir_b7c18fbf081229a9716e24d71701f6e8.html" target="_top" xlink:title="inverse&#45;kinematics">
<polygon fill="#ffffff" stroke="#ff0000" points="314,-412 204,-412 204,-376 314,-376 314,-412"/>
<text text-anchor="middle" x="259" y="-391.5" font-family="FreeSans.ttf" font-size="10.00" fill="#000000">inverse&#45;kinematics</text>
</a>
</g>
</g>
<!-- dir_b7c18fbf081229a9716e24d71701f6e8&#45;&gt;dir_aebb8dcc11953d78e620bbef0b9e2183 -->
<g id="edge38" class="edge">
<title>dir_b7c18fbf081229a9716e24d71701f6e8&#45;&gt;dir_aebb8dcc11953d78e620bbef0b9e2183</title>
<path fill="none" stroke="#000000" d="M314.2536,-386.142C349.812,-378.8825 395.474,-365.2326 429,-340 486.1712,-296.9714 489.5383,-266.6302 501,-196 503.5629,-180.2066 509.7186,-173.4159 501,-160 479.5329,-126.9672 448.7795,-150.9024 420,-124 406.7835,-111.6455 412.834,-101.6845 401,-88 390.0767,-75.3687 375.6651,-64.0146 362.4642,-55.0151"/>
<polygon fill="#000000" stroke="#000000" points="364.2901,-52.0268 354.013,-49.4513 360.4409,-57.8735 364.2901,-52.0268"/>
<g id="a_edge38&#45;headlabel"><a xlink:href="dir_000026_000011.html" target="_top" xlink:title="34">
<text text-anchor="middle" x="368.8537" y="-49.1318" font-family="FreeSans.ttf" font-size="10.00" fill="#000000">34</text>
</a>
</g>
</g>
<!-- dir_b7c18fbf081229a9716e24d71701f6e8&#45;&gt;dir_355314d08763ddbf0e6d36531a48f7ae -->
<g id="edge35" class="edge">
<title>dir_b7c18fbf081229a9716e24d71701f6e8&#45;&gt;dir_355314d08763ddbf0e6d36531a48f7ae</title>
<path fill="none" stroke="#000000" d="M248.1493,-375.8314C243.2977,-367.7079 237.4783,-357.9637 232.132,-349.0118"/>
<polygon fill="#000000" stroke="#000000" points="235.1292,-347.2041 226.9968,-340.4133 229.1194,-350.7933 235.1292,-347.2041"/>
<g id="a_edge35&#45;headlabel"><a xlink:href="dir_000026_000072.html" target="_top" xlink:title="1">
<text text-anchor="middle" x="239.4099" y="-346.3344" font-family="FreeSans.ttf" font-size="10.00" fill="#000000">1</text>
</a>
</g>
</g>
<!-- dir_b7c18fbf081229a9716e24d71701f6e8&#45;&gt;dir_5dd65160827af56e6353642206b80129 -->
<g id="edge37" class="edge">
<title>dir_b7c18fbf081229a9716e24d71701f6e8&#45;&gt;dir_5dd65160827af56e6353642206b80129</title>
<path fill="none" stroke="#000000" d="M261.6919,-375.967C263.7901,-357.4726 265.2684,-328.085 258,-304 241.474,-249.2388 204.526,-250.7612 188,-196 181.9524,-175.9606 181.9601,-152.2502 183.3418,-134.1977"/>
<polygon fill="#000000" stroke="#000000" points="186.8459,-134.3193 184.3081,-124.033 179.8773,-133.6568 186.8459,-134.3193"/>
<g id="a_edge37&#45;headlabel"><a xlink:href="dir_000026_000032.html" target="_top" xlink:title="1">
<text text-anchor="middle" x="189.3324" y="-135.6665" font-family="FreeSans.ttf" font-size="10.00" fill="#000000">1</text>
</a>
</g>
</g>
<!-- dir_b7c18fbf081229a9716e24d71701f6e8&#45;&gt;dir_fb93052291ccda37fd41b6d18f3dfcc9 -->
<g id="edge36" class="edge">
<title>dir_b7c18fbf081229a9716e24d71701f6e8&#45;&gt;dir_fb93052291ccda37fd41b6d18f3dfcc9</title>
<path fill="none" stroke="#000000" d="M264.4538,-375.6516C267.3633,-365.2701 270.7893,-352.0011 273,-340 276.7915,-319.4175 279.3439,-295.9038 280.9206,-278.0733"/>
<polygon fill="#000000" stroke="#000000" points="284.414,-278.297 281.7584,-268.0404 277.4383,-277.7144 284.414,-278.297"/>
<g id="a_edge36&#45;headlabel"><a xlink:href="dir_000026_000043.html" target="_top" xlink:title="2">
<text text-anchor="middle" x="286.9444" y="-279.6154" font-family="FreeSans.ttf" font-size="10.00" fill="#000000">2</text>
</a>
</g>
</g>
<!-- dir_5dd65160827af56e6353642206b80129&#45;&gt;dir_aebb8dcc11953d78e620bbef0b9e2183 -->
<g id="edge24" class="edge">
<title>dir_5dd65160827af56e6353642206b80129&#45;&gt;dir_aebb8dcc11953d78e620bbef0b9e2183</title>
<path fill="none" stroke="#000000" d="M214.3258,-91.9468C236.1033,-80.7469 266.7917,-64.9642 290.6431,-52.6978"/>
<polygon fill="#000000" stroke="#000000" points="292.451,-55.7038 299.7432,-48.0178 289.2495,-49.4788 292.451,-55.7038"/>
<g id="a_edge24&#45;headlabel"><a xlink:href="dir_000032_000011.html" target="_top" xlink:title="59">
<text text-anchor="middle" x="290.5529" y="-57.3727" font-family="FreeSans.ttf" font-size="10.00" fill="#000000">59</text>
</a>
</g>
</g>
<!-- dir_fb93052291ccda37fd41b6d18f3dfcc9&#45;&gt;dir_aebb8dcc11953d78e620bbef0b9e2183 -->
<g id="edge17" class="edge">
<title>dir_fb93052291ccda37fd41b6d18f3dfcc9&#45;&gt;dir_aebb8dcc11953d78e620bbef0b9e2183</title>
<path fill="none" stroke="#000000" d="M314.1609,-240.8184C335.4331,-232.7416 362.0244,-218.6618 375,-196 382.9502,-182.115 378.1379,-175.6893 375,-160 371.6007,-143.0033 366.3184,-140.1407 360,-124 351.8482,-103.1757 343.162,-79.4158 336.7484,-61.5397"/>
<polygon fill="#000000" stroke="#000000" points="340.0064,-60.2559 333.3466,-52.016 333.4143,-62.6106 340.0064,-60.2559"/>
<g id="a_edge17&#45;headlabel"><a xlink:href="dir_000043_000011.html" target="_top" xlink:title="22">
<text text-anchor="middle" x="343.8893" y="-60.186" font-family="FreeSans.ttf" font-size="10.00" fill="#000000">22</text>
</a>
</g>
</g>
<!-- dir_fb93052291ccda37fd41b6d18f3dfcc9&#45;&gt;dir_5dd65160827af56e6353642206b80129 -->
<g id="edge16" class="edge">
<title>dir_fb93052291ccda37fd41b6d18f3dfcc9&#45;&gt;dir_5dd65160827af56e6353642206b80129</title>
<path fill="none" stroke="#000000" d="M251.688,-234.8513C235.9824,-225.7026 218.0077,-212.5887 207,-196 194.8105,-177.6304 189.9481,-152.975 188.057,-134.1152"/>
<polygon fill="#000000" stroke="#000000" points="191.5383,-133.7382 187.269,-124.0416 184.5596,-134.2841 191.5383,-133.7382"/>
<g id="a_edge16&#45;headlabel"><a xlink:href="dir_000043_000032.html" target="_top" xlink:title="25">
<text text-anchor="middle" x="194.6491" y="-134.6005" font-family="FreeSans.ttf" font-size="10.00" fill="#000000">25</text>
</a>
</g>
</g>
<!-- dir_fb93052291ccda37fd41b6d18f3dfcc9&#45;&gt;dir_7349e89ef19c117195f8e371603e1b1f -->
<g id="edge15" class="edge">
<title>dir_fb93052291ccda37fd41b6d18f3dfcc9&#45;&gt;dir_7349e89ef19c117195f8e371603e1b1f</title>
<path fill="none" stroke="#000000" d="M272.9063,-231.8314C268.4403,-223.7925 263.0925,-214.1666 258.1621,-205.2918"/>
<polygon fill="#000000" stroke="#000000" points="261.1456,-203.4551 253.2296,-196.4133 255.0265,-206.8546 261.1456,-203.4551"/>
<g id="a_edge15&#45;headlabel"><a xlink:href="dir_000043_000001.html" target="_top" xlink:title="15">
<text text-anchor="middle" x="265.3732" y="-202.7185" font-family="FreeSans.ttf" font-size="10.00" fill="#000000">15</text>
</a>
</g>
</g>
<!-- dir_e126f7cbd61d2153f67b9bffb0e3dc03 -->
<g id="node9" class="node">
<title>dir_e126f7cbd61d2153f67b9bffb0e3dc03</title>
<g id="a_node9"><a xlink:href="dir_e126f7cbd61d2153f67b9bffb0e3dc03.html" target="_top" xlink:title="optimalcontrol">
<polygon fill="#ffffff" stroke="#ff0000" points="542,-124 454,-124 454,-88 542,-88 542,-124"/>
<text text-anchor="middle" x="498" y="-103.5" font-family="FreeSans.ttf" font-size="10.00" fill="#000000">optimalcontrol</text>
</a>
</g>
</g>
<!-- dir_e126f7cbd61d2153f67b9bffb0e3dc03&#45;&gt;dir_aebb8dcc11953d78e620bbef0b9e2183 -->
<g id="edge34" class="edge">
<title>dir_e126f7cbd61d2153f67b9bffb0e3dc03&#45;&gt;dir_aebb8dcc11953d78e620bbef0b9e2183</title>
<path fill="none" stroke="#000000" d="M454.8495,-87.8314C426.6515,-75.9585 390.2318,-60.6239 363.4806,-49.3603"/>
<polygon fill="#000000" stroke="#000000" points="364.67,-46.0635 354.0955,-45.4086 361.9536,-52.515 364.67,-46.0635"/>
<g id="a_edge34&#45;headlabel"><a xlink:href="dir_000006_000011.html" target="_top" xlink:title="81">
<text text-anchor="middle" x="369.0847" y="-42.3416" font-family="FreeSans.ttf" font-size="10.00" fill="#000000">81</text>
</a>
</g>
</g>
<!-- dir_83bec7f5c80e317dd7f2dfe2ea4fc0c1 -->
<g id="node10" class="node">
<title>dir_83bec7f5c80e317dd7f2dfe2ea4fc0c1</title>
<g id="a_node10"><a xlink:href="dir_83bec7f5c80e317dd7f2dfe2ea4fc0c1.html" target="_top" xlink:title="regressors">
<polygon fill="#ffffff" stroke="#ff0000" points="420,-340 352,-340 352,-304 420,-304 420,-340"/>
<text text-anchor="middle" x="386" y="-319.5" font-family="FreeSans.ttf" font-size="10.00" fill="#000000">regressors</text>
</a>
</g>
</g>
<!-- dir_83bec7f5c80e317dd7f2dfe2ea4fc0c1&#45;&gt;dir_aebb8dcc11953d78e620bbef0b9e2183 -->
<g id="edge14" class="edge">
<title>dir_83bec7f5c80e317dd7f2dfe2ea4fc0c1&#45;&gt;dir_aebb8dcc11953d78e620bbef0b9e2183</title>
<path fill="none" stroke="#000000" d="M413.4461,-303.7855C455.1214,-273.8108 526.0926,-212.201 492,-160 470.2357,-126.6756 441.4012,-148.4573 410,-124 394.0084,-111.5447 395.4842,-103.1341 382,-88 373.3068,-78.243 363.2424,-68.072 354.118,-59.2226"/>
<polygon fill="#000000" stroke="#000000" points="356.367,-56.5302 346.7253,-52.1381 351.5236,-61.5841 356.367,-56.5302"/>
<g id="a_edge14&#45;headlabel"><a xlink:href="dir_000021_000011.html" target="_top" xlink:title="18">
<text text-anchor="middle" x="360.9267" y="-54.4673" font-family="FreeSans.ttf" font-size="10.00" fill="#000000">18</text>
</a>
</g>
</g>
<!-- dir_83bec7f5c80e317dd7f2dfe2ea4fc0c1&#45;&gt;dir_fb93052291ccda37fd41b6d18f3dfcc9 -->
<g id="edge13" class="edge">
<title>dir_83bec7f5c80e317dd7f2dfe2ea4fc0c1&#45;&gt;dir_fb93052291ccda37fd41b6d18f3dfcc9</title>
<path fill="none" stroke="#000000" d="M360.0088,-303.8314C347.0784,-294.7927 331.2778,-283.7476 317.3617,-274.0198"/>
<polygon fill="#000000" stroke="#000000" points="319.1843,-271.0235 308.9829,-268.1628 315.1737,-276.7608 319.1843,-271.0235"/>
<g id="a_edge13&#45;headlabel"><a xlink:href="dir_000021_000043.html" target="_top" xlink:title="2">
<text text-anchor="middle" x="323.7571" y="-268.2559" font-family="FreeSans.ttf" font-size="10.00" fill="#000000">2</text>
</a>
</g>
</g>
<!-- dir_83bec7f5c80e317dd7f2dfe2ea4fc0c1&#45;&gt;dir_7349e89ef19c117195f8e371603e1b1f -->
<g id="edge12" class="edge">
<title>dir_83bec7f5c80e317dd7f2dfe2ea4fc0c1&#45;&gt;dir_7349e89ef19c117195f8e371603e1b1f</title>
<path fill="none" stroke="#000000" d="M376.0807,-303.9803C364.8868,-284.6977 345.3047,-253.9293 323,-232 309.9382,-219.1581 293.4448,-207.4374 278.8319,-198.2218"/>
<polygon fill="#000000" stroke="#000000" points="280.3783,-195.0644 270.0239,-192.8199 276.7186,-201.0316 280.3783,-195.0644"/>
<g id="a_edge12&#45;headlabel"><a xlink:href="dir_000021_000001.html" target="_top" xlink:title="12">
<text text-anchor="middle" x="284.9268" y="-192.0233" font-family="FreeSans.ttf" font-size="10.00" fill="#000000">12</text>
</a>
</g>
</g>
<!-- dir_7349e89ef19c117195f8e371603e1b1f&#45;&gt;dir_aebb8dcc11953d78e620bbef0b9e2183 -->
<g id="edge8" class="edge">
<title>dir_7349e89ef19c117195f8e371603e1b1f&#45;&gt;dir_aebb8dcc11953d78e620bbef0b9e2183</title>
<path fill="none" stroke="#000000" d="M253.6387,-159.7623C268.2185,-134.7682 294.5128,-89.6924 311.3428,-60.8409"/>
<polygon fill="#000000" stroke="#000000" points="314.4322,-62.491 316.4477,-52.0896 308.3857,-58.9639 314.4322,-62.491"/>
<g id="a_edge8&#45;headlabel"><a xlink:href="dir_000001_000011.html" target="_top" xlink:title="29">
<text text-anchor="middle" x="315.0735" y="-64.5265" font-family="FreeSans.ttf" font-size="10.00" fill="#000000">29</text>
</a>
</g>
</g>
<!-- dir_7349e89ef19c117195f8e371603e1b1f&#45;&gt;dir_5dd65160827af56e6353642206b80129 -->
<g id="edge7" class="edge">
<title>dir_7349e89ef19c117195f8e371603e1b1f&#45;&gt;dir_5dd65160827af56e6353642206b80129</title>
<path fill="none" stroke="#000000" d="M228.8688,-159.8314C222.4189,-151.5386 214.6555,-141.557 207.5748,-132.4533"/>
<polygon fill="#000000" stroke="#000000" points="210.2236,-130.158 201.3214,-124.4133 204.6981,-134.4556 210.2236,-130.158"/>
<g id="a_edge7&#45;headlabel"><a xlink:href="dir_000001_000032.html" target="_top" xlink:title="13">
<text text-anchor="middle" x="214.6716" y="-128.7523" font-family="FreeSans.ttf" font-size="10.00" fill="#000000">13</text>
</a>
</g>
</g>
<!-- dir_316a0dddb2dbe91a12d5288b17ad5f68 -->
<g id="node12" class="node">
<title>dir_316a0dddb2dbe91a12d5288b17ad5f68</title>
<g id="a_node12"><a xlink:href="dir_316a0dddb2dbe91a12d5288b17ad5f68.html" target="_top" xlink:title="solid&#45;shapes">
<polygon fill="#ffffff" stroke="#ff0000" points="366,-196 288,-196 288,-160 366,-160 366,-196"/>
<text text-anchor="middle" x="327" y="-175.5" font-family="FreeSans.ttf" font-size="10.00" fill="#000000">solid&#45;shapes</text>
</a>
</g>
</g>
<!-- dir_316a0dddb2dbe91a12d5288b17ad5f68&#45;&gt;dir_aebb8dcc11953d78e620bbef0b9e2183 -->
<g id="edge2" class="edge">
<title>dir_316a0dddb2dbe91a12d5288b17ad5f68&#45;&gt;dir_aebb8dcc11953d78e620bbef0b9e2183</title>
<path fill="none" stroke="#000000" d="M327,-159.7623C327,-135.201 327,-91.2474 327,-62.3541"/>
<polygon fill="#000000" stroke="#000000" points="330.5001,-62.0896 327,-52.0896 323.5001,-62.0897 330.5001,-62.0896"/>
<g id="a_edge2&#45;headlabel"><a xlink:href="dir_000067_000011.html" target="_top" xlink:title="5">
<text text-anchor="middle" x="333.3393" y="-63.1842" font-family="FreeSans.ttf" font-size="10.00" fill="#000000">5</text>
</a>
</g>
</g>
<!-- dir_316a0dddb2dbe91a12d5288b17ad5f68&#45;&gt;dir_5dd65160827af56e6353642206b80129 -->
<g id="edge1" class="edge">
<title>dir_316a0dddb2dbe91a12d5288b17ad5f68&#45;&gt;dir_5dd65160827af56e6353642206b80129</title>
<path fill="none" stroke="#000000" d="M291.6721,-159.8314C270.7858,-149.0898 244.3899,-135.5148 223.3308,-124.6844"/>
<polygon fill="#000000" stroke="#000000" points="224.861,-121.5357 214.3674,-120.0747 221.6596,-127.7607 224.861,-121.5357"/>
<g id="a_edge1&#45;headlabel"><a xlink:href="dir_000067_000032.html" target="_top" xlink:title="2">
<text text-anchor="middle" x="229.3562" y="-118.1547" font-family="FreeSans.ttf" font-size="10.00" fill="#000000">2</text>
</a>
</g>
</g>
<!-- dir_1563a38af0d3a5e4a6330d6d45e9792a -->
<g id="node13" class="node">
<title>dir_1563a38af0d3a5e4a6330d6d45e9792a</title>
<g id="a_node13"><a xlink:href="dir_1563a38af0d3a5e4a6330d6d45e9792a.html" target="_top" xlink:title="tools">
<polygon fill="#ffffff" stroke="#ff0000" points="249,-484 195,-484 195,-448 249,-448 249,-484"/>
<text text-anchor="middle" x="222" y="-463.5" font-family="FreeSans.ttf" font-size="10.00" fill="#000000">tools</text>
</a>
</g>
</g>
<!-- dir_1563a38af0d3a5e4a6330d6d45e9792a&#45;&gt;dir_aebb8dcc11953d78e620bbef0b9e2183 -->
<g id="edge31" class="edge">
<title>dir_1563a38af0d3a5e4a6330d6d45e9792a&#45;&gt;dir_aebb8dcc11953d78e620bbef0b9e2183</title>
<path fill="none" stroke="#000000" d="M194.7776,-460.3347C139.0136,-446.9657 17,-407.8993 17,-322 17,-322 17,-322 17,-178 17,-131.3524 33.011,-115.071 71,-88 105.706,-63.2685 227.0748,-45.7802 289.4147,-38.2042"/>
<polygon fill="#000000" stroke="#000000" points="290.0973,-41.6477 299.6131,-36.9894 289.2693,-34.6968 290.0973,-41.6477"/>
<g id="a_edge31&#45;headlabel"><a xlink:href="dir_000036_000011.html" target="_top" xlink:title="5">
<text text-anchor="middle" x="286.8637" y="-42.3921" font-family="FreeSans.ttf" font-size="10.00" fill="#000000">5</text>
</a>
</g>
</g>
<!-- dir_1563a38af0d3a5e4a6330d6d45e9792a&#45;&gt;dir_355314d08763ddbf0e6d36531a48f7ae -->
<g id="edge26" class="edge">
<title>dir_1563a38af0d3a5e4a6330d6d45e9792a&#45;&gt;dir_355314d08763ddbf0e6d36531a48f7ae</title>
<path fill="none" stroke="#000000" d="M210.2492,-447.8241C204.4142,-437.7142 197.9861,-424.6495 195,-412 191.324,-396.428 192.0498,-391.7257 195,-376 196.635,-367.2844 199.6343,-358.1679 202.8642,-349.9601"/>
<polygon fill="#000000" stroke="#000000" points="206.1974,-351.0623 206.8423,-340.4871 199.7434,-348.352 206.1974,-351.0623"/>
<g id="a_edge26&#45;headlabel"><a xlink:href="dir_000036_000072.html" target="_top" xlink:title="5">
<text text-anchor="middle" x="207.4235" y="-352.9759" font-family="FreeSans.ttf" font-size="10.00" fill="#000000">5</text>
</a>
</g>
</g>
<!-- dir_1563a38af0d3a5e4a6330d6d45e9792a&#45;&gt;dir_2a3c79a8659119928eb3cfb9c5637ece -->
<g id="edge25" class="edge">
<title>dir_1563a38af0d3a5e4a6330d6d45e9792a&#45;&gt;dir_2a3c79a8659119928eb3cfb9c5637ece</title>
<path fill="none" stroke="#000000" d="M199.0369,-447.8314C187.8285,-438.9632 174.1791,-428.1637 162.0561,-418.5718"/>
<polygon fill="#000000" stroke="#000000" points="163.9697,-415.6229 153.9558,-412.1628 159.6263,-421.1125 163.9697,-415.6229"/>
<g id="a_edge25&#45;headlabel"><a xlink:href="dir_000036_000063.html" target="_top" xlink:title="1">
<text text-anchor="middle" x="168.5504" y="-413.1267" font-family="FreeSans.ttf" font-size="10.00" fill="#000000">1</text>
</a>
</g>
</g>
<!-- dir_1563a38af0d3a5e4a6330d6d45e9792a&#45;&gt;dir_b7c18fbf081229a9716e24d71701f6e8 -->
<g id="edge32" class="edge">
<title>dir_1563a38af0d3a5e4a6330d6d45e9792a&#45;&gt;dir_b7c18fbf081229a9716e24d71701f6e8</title>
<path fill="none" stroke="#000000" d="M231.3367,-447.8314C235.4243,-439.8771 240.3104,-430.369 244.8309,-421.5723"/>
<polygon fill="#000000" stroke="#000000" points="248.0799,-422.9074 249.5376,-412.4133 241.8539,-419.7078 248.0799,-422.9074"/>
<g id="a_edge32&#45;headlabel"><a xlink:href="dir_000036_000026.html" target="_top" xlink:title="2">
<text text-anchor="middle" x="248.9623" y="-424.9022" font-family="FreeSans.ttf" font-size="10.00" fill="#000000">2</text>
</a>
</g>
</g>
<!-- dir_1563a38af0d3a5e4a6330d6d45e9792a&#45;&gt;dir_5dd65160827af56e6353642206b80129 -->
<g id="edge29" class="edge">
<title>dir_1563a38af0d3a5e4a6330d6d45e9792a&#45;&gt;dir_5dd65160827af56e6353642206b80129</title>
<path fill="none" stroke="#000000" d="M194.7715,-461.9664C165.5848,-456.1608 120.0745,-442.5625 95,-412 74.2672,-386.7295 83.351,-372.5148 80,-340 71.5462,-257.9724 75.6213,-226.0435 125,-160 133.0259,-149.2654 143.5054,-139.1406 153.5587,-130.6225"/>
<polygon fill="#000000" stroke="#000000" points="155.9455,-133.1921 161.4749,-124.1545 151.5165,-127.7713 155.9455,-133.1921"/>
<g id="a_edge29&#45;headlabel"><a xlink:href="dir_000036_000032.html" target="_top" xlink:title="5">
<text text-anchor="middle" x="154.9584" y="-135.1651" font-family="FreeSans.ttf" font-size="10.00" fill="#000000">5</text>
</a>
</g>
</g>
<!-- dir_1563a38af0d3a5e4a6330d6d45e9792a&#45;&gt;dir_fb93052291ccda37fd41b6d18f3dfcc9 -->
<g id="edge27" class="edge">
<title>dir_1563a38af0d3a5e4a6330d6d45e9792a&#45;&gt;dir_fb93052291ccda37fd41b6d18f3dfcc9</title>
<path fill="none" stroke="#000000" d="M249.3604,-459.7608C273.4731,-452.6554 307.157,-438.4357 323,-412 348.591,-369.2987 321.8015,-310.9285 301.4226,-277.1665"/>
<polygon fill="#000000" stroke="#000000" points="304.1649,-274.9507 295.8936,-268.3299 298.2308,-278.6637 304.1649,-274.9507"/>
<g id="a_edge27&#45;headlabel"><a xlink:href="dir_000036_000043.html" target="_top" xlink:title="11">
<text text-anchor="middle" x="308.4785" y="-273.992" font-family="FreeSans.ttf" font-size="10.00" fill="#000000">11</text>
</a>
</g>
</g>
<!-- dir_b00de47ad7e2e13a637d9aa605dec95e -->
<g id="node14" class="node">
<title>dir_b00de47ad7e2e13a637d9aa605dec95e</title>
<g id="a_node14"><a xlink:href="dir_b00de47ad7e2e13a637d9aa605dec95e.html" target="_top" xlink:title="visualization">
<polygon fill="#ffffff" stroke="#ff0000" points="482.5,-196 403.5,-196 403.5,-160 482.5,-160 482.5,-196"/>
<text text-anchor="middle" x="443" y="-175.5" font-family="FreeSans.ttf" font-size="10.00" fill="#000000">visualization</text>
</a>
</g>
</g>
<!-- dir_1563a38af0d3a5e4a6330d6d45e9792a&#45;&gt;dir_b00de47ad7e2e13a637d9aa605dec95e -->
<g id="edge28" class="edge">
<title>dir_1563a38af0d3a5e4a6330d6d45e9792a&#45;&gt;dir_b00de47ad7e2e13a637d9aa605dec95e</title>
<path fill="none" stroke="#000000" d="M249.1845,-458.912C295.9723,-445.0681 390.4081,-409.5223 429,-340 452.2425,-298.1292 450.8289,-240.6136 447.2303,-206.5737"/>
<polygon fill="#000000" stroke="#000000" points="450.6759,-205.9101 446.0136,-196.3963 443.7254,-206.7411 450.6759,-205.9101"/>
<g id="a_edge28&#45;headlabel"><a xlink:href="dir_000036_000030.html" target="_top" xlink:title="1">
<text text-anchor="middle" x="453.9217" y="-206.6423" font-family="FreeSans.ttf" font-size="10.00" fill="#000000">1</text>
</a>
</g>
</g>
<!-- dir_1563a38af0d3a5e4a6330d6d45e9792a&#45;&gt;dir_ca655c1e93447bcdfcc1afb2c793c8bd -->
<g id="edge30" class="edge">
<title>dir_1563a38af0d3a5e4a6330d6d45e9792a&#45;&gt;dir_ca655c1e93447bcdfcc1afb2c793c8bd</title>
<path fill="none" stroke="#000000" d="M249.0845,-463.1445C305.9232,-456.6737 435.1904,-439.3005 469,-412 488.1112,-396.5681 498.6665,-370.2771 504.2603,-350.0833"/>
<polygon fill="#000000" stroke="#000000" points="507.709,-350.7204 506.7522,-340.1689 500.9201,-349.014 507.709,-350.7204"/>
<g id="a_edge30&#45;headlabel"><a xlink:href="dir_000036_000103.html" target="_top" xlink:title="1">
<text text-anchor="middle" x="509.5864" y="-352.3987" font-family="FreeSans.ttf" font-size="10.00" fill="#000000">1</text>
</a>
</g>
</g>
<!-- dir_b00de47ad7e2e13a637d9aa605dec95e&#45;&gt;dir_aebb8dcc11953d78e620bbef0b9e2183 -->
<g id="edge23" class="edge">
<title>dir_b00de47ad7e2e13a637d9aa605dec95e&#45;&gt;dir_aebb8dcc11953d78e620bbef0b9e2183</title>
<path fill="none" stroke="#000000" d="M423.813,-159.9714C413.377,-149.799 400.4949,-136.6284 390,-124 373.1336,-103.7047 356.0961,-79.0579 343.9992,-60.6916"/>
<polygon fill="#000000" stroke="#000000" points="346.8735,-58.6918 338.48,-52.2266 341.0098,-62.5149 346.8735,-58.6918"/>
<g id="a_edge23&#45;headlabel"><a xlink:href="dir_000030_000011.html" target="_top" xlink:title="4">
<text text-anchor="middle" x="351.2151" y="-57.6522" font-family="FreeSans.ttf" font-size="10.00" fill="#000000">4</text>
</a>
</g>
</g>
<!-- dir_b00de47ad7e2e13a637d9aa605dec95e&#45;&gt;dir_5dd65160827af56e6353642206b80129 -->
<g id="edge22" class="edge">
<title>dir_b00de47ad7e2e13a637d9aa605dec95e&#45;&gt;dir_5dd65160827af56e6353642206b80129</title>
<path fill="none" stroke="#000000" d="M403.2809,-166.829C354.3466,-153.0662 271.8497,-129.864 224.134,-116.4439"/>
<polygon fill="#000000" stroke="#000000" points="224.7935,-112.9937 214.2194,-113.6554 222.8982,-119.7323 224.7935,-112.9937"/>
<g id="a_edge22&#45;headlabel"><a xlink:href="dir_000030_000032.html" target="_top" xlink:title="9">
<text text-anchor="middle" x="229.0226" y="-108.7336" font-family="FreeSans.ttf" font-size="10.00" fill="#000000">9</text>
</a>
</g>
</g>
<!-- dir_ca655c1e93447bcdfcc1afb2c793c8bd&#45;&gt;dir_aebb8dcc11953d78e620bbef0b9e2183 -->
<g id="edge33" class="edge">
<title>dir_ca655c1e93447bcdfcc1afb2c793c8bd&#45;&gt;dir_aebb8dcc11953d78e620bbef0b9e2183</title>
<path fill="none" stroke="#000000" d="M518.5858,-303.9755C532.3946,-272.0977 555.1835,-204.9064 526,-160 504.5329,-126.9672 475.3581,-149.1075 445,-124 429.989,-111.5852 434.3201,-101.2058 420,-88 403.4034,-72.6949 381.7359,-59.8003 363.4909,-50.4538"/>
<polygon fill="#000000" stroke="#000000" points="364.8204,-47.2063 354.307,-45.8957 361.7084,-53.4765 364.8204,-47.2063"/>
<g id="a_edge33&#45;headlabel"><a xlink:href="dir_000103_000011.html" target="_top" xlink:title="5">
<text text-anchor="middle" x="369.3025" y="-43.7611" font-family="FreeSans.ttf" font-size="10.00" fill="#000000">5</text>
</a>
</g>
</g>
</g>
</svg>
