<?xml version="1.0" encoding="UTF-8" standalone="no"?>
<!DOCTYPE svg PUBLIC "-//W3C//DTD SVG 1.1//EN"
 "http://www.w3.org/Graphics/SVG/1.1/DTD/svg11.dtd">
<!-- Generated by graphviz version 2.40.1 (20161225.0304)
 -->
<!-- Title: yarprobotstatepublisher Pages: 1 -->
<svg width="316pt" height="375pt"
 viewBox="0.00 0.00 316.00 375.00" xmlns="http://www.w3.org/2000/svg" xmlns:xlink="http://www.w3.org/1999/xlink">
<g id="graph0" class="graph" transform="scale(1 1) rotate(0) translate(4 371)">
<title>yarprobotstatepublisher</title>
<g id="clust1" class="cluster">
<title>clusterdir_1563a38af0d3a5e4a6330d6d45e9792a</title>
<g id="a_clust1"><a xlink:href="dir_1563a38af0d3a5e4a6330d6d45e9792a.html" target="_top" xlink:title="tools">
<polygon fill="#ddddee" stroke="#000000" points="8,-200 8,-359 246,-359 246,-200 8,-200"/>
<text text-anchor="middle" x="127" y="-347" font-family="FreeSans.ttf" font-size="10.00" fill="#000000">tools</text>
</a>
</g>
</g>
<g id="clust2" class="cluster">
<title>clusterdir_d32611501a8b9f9ee5f85682f67560af</title>
<g id="a_clust2"><a xlink:href="dir_d32611501a8b9f9ee5f85682f67560af.html" target="_top">
<polygon fill="#eeeeff" stroke="#000000" points="16,-208 16,-332 238,-332 238,-208 16,-208"/>
</a>
</g>
</g>
<!-- dir_d32611501a8b9f9ee5f85682f67560af -->
<g id="node1" class="node">
<title>dir_d32611501a8b9f9ee5f85682f67560af</title>
<text text-anchor="middle" x="163" y="-303.5" font-family="FreeSans.ttf" font-size="10.00" fill="#000000">yarprobotstatepublisher</text>
</g>
<!-- dir_517fac0de58368127e466407b6b31ec8 -->
<g id="node2" class="node">
<title>dir_517fac0de58368127e466407b6b31ec8</title>
<g id="a_node2"><a xlink:href="dir_517fac0de58368127e466407b6b31ec8.html" target="_top" xlink:title="include">
<polygon fill="#ffffff" stroke="#000000" points="78,-252 24,-252 24,-216 78,-216 78,-252"/>
<text text-anchor="middle" x="51" y="-231.5" font-family="FreeSans.ttf" font-size="10.00" fill="#000000">include</text>
</a>
</g>
</g>
<!-- dir_355314d08763ddbf0e6d36531a48f7ae -->
<g id="node4" class="node">
<title>dir_355314d08763ddbf0e6d36531a48f7ae</title>
<g id="a_node4"><a xlink:href="dir_355314d08763ddbf0e6d36531a48f7ae.html" target="_top" xlink:title="high&#45;level">
<polygon fill="none" stroke="#ff0000" points="138.5,-180 73.5,-180 73.5,-144 138.5,-144 138.5,-180"/>
<text text-anchor="middle" x="106" y="-159.5" font-family="FreeSans.ttf" font-size="10.00" fill="#000000">high&#45;level</text>
</a>
</g>
</g>
<!-- dir_517fac0de58368127e466407b6b31ec8&#45;&gt;dir_355314d08763ddbf0e6d36531a48f7ae -->
<g id="edge9" class="edge">
<title>dir_517fac0de58368127e466407b6b31ec8&#45;&gt;dir_355314d08763ddbf0e6d36531a48f7ae</title>
<path fill="none" stroke="#000000" d="M64.8788,-215.8314C71.2136,-207.5386 78.8384,-197.557 85.7926,-188.4533"/>
<polygon fill="#000000" stroke="#000000" points="88.6452,-190.4847 91.9343,-180.4133 83.0825,-186.2353 88.6452,-190.4847"/>
<g id="a_edge9&#45;headlabel"><a xlink:href="dir_000085_000072.html" target="_top" xlink:title="1">
<text text-anchor="middle" x="88.7195" y="-192.5647" font-family="FreeSans.ttf" font-size="10.00" fill="#000000">1</text>
</a>
</g>
</g>
<!-- dir_aebb8dcc11953d78e620bbef0b9e2183 -->
<g id="node7" class="node">
<title>dir_aebb8dcc11953d78e620bbef0b9e2183</title>
<g id="a_node7"><a xlink:href="dir_aebb8dcc11953d78e620bbef0b9e2183.html" target="_top" xlink:title="core">
<polygon fill="none" stroke="#ff0000" points="162,-36 108,-36 108,0 162,0 162,-36"/>
<text text-anchor="middle" x="135" y="-15.5" font-family="FreeSans.ttf" font-size="10.00" fill="#000000">core</text>
</a>
</g>
</g>
<!-- dir_517fac0de58368127e466407b6b31ec8&#45;&gt;dir_aebb8dcc11953d78e620bbef0b9e2183 -->
<g id="edge10" class="edge">
<title>dir_517fac0de58368127e466407b6b31ec8&#45;&gt;dir_aebb8dcc11953d78e620bbef0b9e2183</title>
<path fill="none" stroke="#000000" d="M51.6563,-215.9567C52.7757,-197.454 55.8046,-168.0599 64,-144 76.474,-107.3789 99.652,-69.1971 116.1305,-44.599"/>
<polygon fill="#000000" stroke="#000000" points="119.1288,-46.4144 121.8662,-36.1792 113.3436,-42.4733 119.1288,-46.4144"/>
<g id="a_edge10&#45;headlabel"><a xlink:href="dir_000085_000011.html" target="_top" xlink:title="1">
<text text-anchor="middle" x="119.4517" y="-48.4836" font-family="FreeSans.ttf" font-size="10.00" fill="#000000">1</text>
</a>
</g>
</g>
<!-- dir_4c35f201f486dab9f9f20c2676597da0 -->
<g id="node3" class="node">
<title>dir_4c35f201f486dab9f9f20c2676597da0</title>
<g id="a_node3"><a xlink:href="dir_4c35f201f486dab9f9f20c2676597da0.html" target="_top" xlink:title="src">
<polygon fill="#ffffff" stroke="#000000" points="78,-324 24,-324 24,-288 78,-288 78,-324"/>
<text text-anchor="middle" x="51" y="-303.5" font-family="FreeSans.ttf" font-size="10.00" fill="#000000">src</text>
</a>
</g>
</g>
<!-- dir_4c35f201f486dab9f9f20c2676597da0&#45;&gt;dir_517fac0de58368127e466407b6b31ec8 -->
<g id="edge6" class="edge">
<title>dir_4c35f201f486dab9f9f20c2676597da0&#45;&gt;dir_517fac0de58368127e466407b6b31ec8</title>
<path fill="none" stroke="#000000" d="M51,-287.8314C51,-280.131 51,-270.9743 51,-262.4166"/>
<polygon fill="#000000" stroke="#000000" points="54.5001,-262.4132 51,-252.4133 47.5001,-262.4133 54.5001,-262.4132"/>
<g id="a_edge6&#45;headlabel"><a xlink:href="dir_000079_000085.html" target="_top" xlink:title="2">
<text text-anchor="middle" x="57.3393" y="-263.5079" font-family="FreeSans.ttf" font-size="10.00" fill="#000000">2</text>
</a>
</g>
</g>
<!-- dir_4c35f201f486dab9f9f20c2676597da0&#45;&gt;dir_355314d08763ddbf0e6d36531a48f7ae -->
<g id="edge3" class="edge">
<title>dir_4c35f201f486dab9f9f20c2676597da0&#45;&gt;dir_355314d08763ddbf0e6d36531a48f7ae</title>
<path fill="none" stroke="#000000" d="M65.8853,-287.5185C73.2462,-277.5296 81.672,-264.6716 87,-252 95.3306,-232.1876 100.1533,-208.3321 102.8541,-190.1605"/>
<polygon fill="#000000" stroke="#000000" points="106.3302,-190.5721 104.2095,-180.1917 99.3941,-189.6289 106.3302,-190.5721"/>
<g id="a_edge3&#45;headlabel"><a xlink:href="dir_000079_000072.html" target="_top" xlink:title="1">
<text text-anchor="middle" x="108.6594" y="-192.0164" font-family="FreeSans.ttf" font-size="10.00" fill="#000000">1</text>
</a>
</g>
</g>
<!-- dir_fb93052291ccda37fd41b6d18f3dfcc9 -->
<g id="node5" class="node">
<title>dir_fb93052291ccda37fd41b6d18f3dfcc9</title>
<g id="a_node5"><a xlink:href="dir_fb93052291ccda37fd41b6d18f3dfcc9.html" target="_top" xlink:title="model_io">
<polygon fill="none" stroke="#ff0000" points="196,-108 134,-108 134,-72 196,-72 196,-108"/>
<text text-anchor="middle" x="165" y="-87.5" font-family="FreeSans.ttf" font-size="10.00" fill="#000000">model_io</text>
</a>
</g>
</g>
<!-- dir_4c35f201f486dab9f9f20c2676597da0&#45;&gt;dir_fb93052291ccda37fd41b6d18f3dfcc9 -->
<g id="edge4" class="edge">
<title>dir_4c35f201f486dab9f9f20c2676597da0&#45;&gt;dir_fb93052291ccda37fd41b6d18f3dfcc9</title>
<path fill="none" stroke="#000000" d="M73.124,-287.9038C84.3836,-278.0204 97.8068,-265.1404 108,-252 130.4372,-223.0756 135.5545,-214.4261 148,-180 155.2418,-159.9679 159.5596,-136.2572 162.0306,-118.2027"/>
<polygon fill="#000000" stroke="#000000" points="165.5338,-118.3954 163.3101,-108.0366 158.5886,-117.5212 165.5338,-118.3954"/>
<g id="a_edge4&#45;headlabel"><a xlink:href="dir_000079_000043.html" target="_top" xlink:title="1">
<text text-anchor="middle" x="167.9021" y="-119.8165" font-family="FreeSans.ttf" font-size="10.00" fill="#000000">1</text>
</a>
</g>
</g>
<!-- dir_ca655c1e93447bcdfcc1afb2c793c8bd -->
<g id="node6" class="node">
<title>dir_ca655c1e93447bcdfcc1afb2c793c8bd</title>
<g id="a_node6"><a xlink:href="dir_ca655c1e93447bcdfcc1afb2c793c8bd.html" target="_top" xlink:title="yarp">
<polygon fill="none" stroke="#ff0000" points="308,-252 254,-252 254,-216 308,-216 308,-252"/>
<text text-anchor="middle" x="281" y="-231.5" font-family="FreeSans.ttf" font-size="10.00" fill="#000000">yarp</text>
</a>
</g>
</g>
<!-- dir_4c35f201f486dab9f9f20c2676597da0&#45;&gt;dir_ca655c1e93447bcdfcc1afb2c793c8bd -->
<g id="edge5" class="edge">
<title>dir_4c35f201f486dab9f9f20c2676597da0&#45;&gt;dir_ca655c1e93447bcdfcc1afb2c793c8bd</title>
<path fill="none" stroke="#000000" d="M78.2243,-291.5573C81.1459,-290.2584 84.1075,-289.0425 87,-288 153.533,-264.02 175.1006,-274.9379 242,-252 242.7142,-251.7551 243.433,-251.5014 244.1547,-251.2401"/>
<polygon fill="#000000" stroke="#000000" points="245.5854,-254.4379 253.5888,-247.4956 243.003,-247.9316 245.5854,-254.4379"/>
<g id="a_edge5&#45;headlabel"><a xlink:href="dir_000079_000103.html" target="_top" xlink:title="1">
<text text-anchor="middle" x="243.2917" y="-255.9029" font-family="FreeSans.ttf" font-size="10.00" fill="#000000">1</text>
</a>
</g>
</g>
<!-- dir_355314d08763ddbf0e6d36531a48f7ae&#45;&gt;dir_fb93052291ccda37fd41b6d18f3dfcc9 -->
<g id="edge1" class="edge">
<title>dir_355314d08763ddbf0e6d36531a48f7ae&#45;&gt;dir_fb93052291ccda37fd41b6d18f3dfcc9</title>
<path fill="none" stroke="#000000" d="M120.8882,-143.8314C127.753,-135.454 136.0301,-125.3531 143.5511,-116.1749"/>
<polygon fill="#000000" stroke="#000000" points="146.2803,-118.3665 149.9114,-108.4133 140.8659,-113.9297 146.2803,-118.3665"/>
<g id="a_edge1&#45;headlabel"><a xlink:href="dir_000072_000043.html" target="_top" xlink:title="1">
<text text-anchor="middle" x="146.1981" y="-120.4464" font-family="FreeSans.ttf" font-size="10.00" fill="#000000">1</text>
</a>
</g>
</g>
<!-- dir_355314d08763ddbf0e6d36531a48f7ae&#45;&gt;dir_aebb8dcc11953d78e620bbef0b9e2183 -->
<g id="edge2" class="edge">
<title>dir_355314d08763ddbf0e6d36531a48f7ae&#45;&gt;dir_aebb8dcc11953d78e620bbef0b9e2183</title>
<path fill="none" stroke="#000000" d="M109.6729,-143.7623C114.641,-119.0928 123.5491,-74.8598 129.3665,-45.9731"/>
<polygon fill="#000000" stroke="#000000" points="132.8137,-46.5838 131.357,-36.0896 125.9515,-45.2018 132.8137,-46.5838"/>
<g id="a_edge2&#45;headlabel"><a xlink:href="dir_000072_000011.html" target="_top" xlink:title="14">
<text text-anchor="middle" x="134.8875" y="-48.1682" font-family="FreeSans.ttf" font-size="10.00" fill="#000000">14</text>
</a>
</g>
</g>
<!-- dir_fb93052291ccda37fd41b6d18f3dfcc9&#45;&gt;dir_aebb8dcc11953d78e620bbef0b9e2183 -->
<g id="edge7" class="edge">
<title>dir_fb93052291ccda37fd41b6d18f3dfcc9&#45;&gt;dir_aebb8dcc11953d78e620bbef0b9e2183</title>
<path fill="none" stroke="#000000" d="M157.4297,-71.8314C154.1507,-63.9617 150.238,-54.5712 146.6055,-45.8533"/>
<polygon fill="#000000" stroke="#000000" points="149.7492,-44.2979 142.6722,-36.4133 143.2876,-46.9902 149.7492,-44.2979"/>
<g id="a_edge7&#45;headlabel"><a xlink:href="dir_000043_000011.html" target="_top" xlink:title="22">
<text text-anchor="middle" x="153.7525" y="-44.024" font-family="FreeSans.ttf" font-size="10.00" fill="#000000">22</text>
</a>
</g>
</g>
<!-- dir_ca655c1e93447bcdfcc1afb2c793c8bd&#45;&gt;dir_aebb8dcc11953d78e620bbef0b9e2183 -->
<g id="edge8" class="edge">
<title>dir_ca655c1e93447bcdfcc1afb2c793c8bd&#45;&gt;dir_aebb8dcc11953d78e620bbef0b9e2183</title>
<path fill="none" stroke="#000000" d="M275.6584,-215.9295C265.6584,-184.2708 241.7453,-117.7957 205,-72 195.3224,-59.9388 182.4202,-49.0073 170.3304,-40.1844"/>
<polygon fill="#000000" stroke="#000000" points="172.3333,-37.3141 162.1399,-34.4251 168.3068,-43.0402 172.3333,-37.3141"/>
<g id="a_edge8&#45;headlabel"><a xlink:href="dir_000103_000011.html" target="_top" xlink:title="5">
<text text-anchor="middle" x="176.9068" y="-34.5591" font-family="FreeSans.ttf" font-size="10.00" fill="#000000">5</text>
</a>
</g>
</g>
</g>
</svg>
