<?xml version="1.0" encoding="UTF-8" standalone="no"?>
<!DOCTYPE svg PUBLIC "-//W3C//DTD SVG 1.1//EN"
 "http://www.w3.org/Graphics/SVG/1.1/DTD/svg11.dtd">
<!-- Generated by graphviz version 2.40.1 (20161225.0304)
 -->
<!-- Title: xml Pages: 1 -->
<svg width="236pt" height="183pt"
 viewBox="0.00 0.00 236.00 183.00" xmlns="http://www.w3.org/2000/svg" xmlns:xlink="http://www.w3.org/1999/xlink">
<g id="graph0" class="graph" transform="scale(1 1) rotate(0) translate(4 179)">
<title>xml</title>
<g id="clust1" class="cluster">
<title>clusterdir_fb93052291ccda37fd41b6d18f3dfcc9</title>
<g id="a_clust1"><a xlink:href="dir_fb93052291ccda37fd41b6d18f3dfcc9.html" target="_top" xlink:title="model_io">
<polygon fill="#ddddee" stroke="#000000" points="8,-8 8,-167 166,-167 166,-8 8,-8"/>
<text text-anchor="middle" x="87" y="-155" font-family="FreeSans.ttf" font-size="10.00" fill="#000000">model_io</text>
</a>
</g>
</g>
<g id="clust2" class="cluster">
<title>clusterdir_5f57de5bbe3f948f16e791110ccbe302</title>
<g id="a_clust2"><a xlink:href="dir_5f57de5bbe3f948f16e791110ccbe302.html" target="_top">
<polygon fill="#eeeeff" stroke="#000000" points="16,-16 16,-140 158,-140 158,-16 16,-16"/>
</a>
</g>
</g>
<!-- dir_5f57de5bbe3f948f16e791110ccbe302 -->
<g id="node1" class="node">
<title>dir_5f57de5bbe3f948f16e791110ccbe302</title>
<text text-anchor="middle" x="123" y="-111.5" font-family="FreeSans.ttf" font-size="10.00" fill="#000000">xml</text>
</g>
<!-- dir_809e01251376aadbde93615b9d36d473 -->
<g id="node2" class="node">
<title>dir_809e01251376aadbde93615b9d36d473</title>
<g id="a_node2"><a xlink:href="dir_809e01251376aadbde93615b9d36d473.html" target="_top" xlink:title="include">
<polygon fill="#ffffff" stroke="#ff0000" points="78,-60 24,-60 24,-24 78,-24 78,-60"/>
<text text-anchor="middle" x="51" y="-39.5" font-family="FreeSans.ttf" font-size="10.00" fill="#000000">include</text>
</a>
</g>
</g>
<!-- dir_40fc0156ed274947f51aa326417dc26c -->
<g id="node3" class="node">
<title>dir_40fc0156ed274947f51aa326417dc26c</title>
<g id="a_node3"><a xlink:href="dir_40fc0156ed274947f51aa326417dc26c.html" target="_top" xlink:title="src">
<polygon fill="#ffffff" stroke="#000000" points="78,-132 24,-132 24,-96 78,-96 78,-132"/>
<text text-anchor="middle" x="51" y="-111.5" font-family="FreeSans.ttf" font-size="10.00" fill="#000000">src</text>
</a>
</g>
</g>
<!-- dir_40fc0156ed274947f51aa326417dc26c&#45;&gt;dir_809e01251376aadbde93615b9d36d473 -->
<g id="edge2" class="edge">
<title>dir_40fc0156ed274947f51aa326417dc26c&#45;&gt;dir_809e01251376aadbde93615b9d36d473</title>
<path fill="none" stroke="#000000" d="M51,-95.8314C51,-88.131 51,-78.9743 51,-70.4166"/>
<polygon fill="#000000" stroke="#000000" points="54.5001,-70.4132 51,-60.4133 47.5001,-70.4133 54.5001,-70.4132"/>
<g id="a_edge2&#45;headlabel"><a xlink:href="dir_000100_000101.html" target="_top" xlink:title="9">
<text text-anchor="middle" x="57.3393" y="-71.5079" font-family="FreeSans.ttf" font-size="10.00" fill="#000000">9</text>
</a>
</g>
</g>
<!-- dir_aebb8dcc11953d78e620bbef0b9e2183 -->
<g id="node4" class="node">
<title>dir_aebb8dcc11953d78e620bbef0b9e2183</title>
<g id="a_node4"><a xlink:href="dir_aebb8dcc11953d78e620bbef0b9e2183.html" target="_top" xlink:title="core">
<polygon fill="none" stroke="#ff0000" points="228,-60 174,-60 174,-24 228,-24 228,-60"/>
<text text-anchor="middle" x="201" y="-39.5" font-family="FreeSans.ttf" font-size="10.00" fill="#000000">core</text>
</a>
</g>
</g>
<!-- dir_40fc0156ed274947f51aa326417dc26c&#45;&gt;dir_aebb8dcc11953d78e620bbef0b9e2183 -->
<g id="edge1" class="edge">
<title>dir_40fc0156ed274947f51aa326417dc26c&#45;&gt;dir_aebb8dcc11953d78e620bbef0b9e2183</title>
<path fill="none" stroke="#000000" d="M78.0963,-100.3747C81.096,-98.8893 84.1099,-97.4068 87,-96 112.8442,-83.4197 142.1537,-69.5449 164.5818,-59.0097"/>
<polygon fill="#000000" stroke="#000000" points="166.1753,-62.1282 173.7424,-54.7126 163.2025,-55.7908 166.1753,-62.1282"/>
<g id="a_edge1&#45;headlabel"><a xlink:href="dir_000100_000011.html" target="_top" xlink:title="1">
<text text-anchor="middle" x="164.1268" y="-63.7252" font-family="FreeSans.ttf" font-size="10.00" fill="#000000">1</text>
</a>
</g>
</g>
</g>
</svg>
