<?xml version="1.0" encoding="UTF-8" standalone="no"?>
<!DOCTYPE svg PUBLIC "-//W3C//DTD SVG 1.1//EN"
 "http://www.w3.org/Graphics/SVG/1.1/DTD/svg11.dtd">
<!-- Generated by graphviz version 2.40.1 (20161225.0304)
 -->
<!-- Title: src Pages: 1 -->
<svg width="258pt" height="375pt"
 viewBox="0.00 0.00 257.80 375.00" xmlns="http://www.w3.org/2000/svg" xmlns:xlink="http://www.w3.org/1999/xlink">
<g id="graph0" class="graph" transform="scale(1 1) rotate(0) translate(4 371)">
<title>src</title>
<g id="clust1" class="cluster">
<title>clusterdir_3938e606227a31511fafb56cc7259e7a</title>
<g id="a_clust1"><a xlink:href="dir_3938e606227a31511fafb56cc7259e7a.html" target="_top" xlink:title="urdf">
<polygon fill="#ddddee" stroke="#000000" points="38.7961,-272 38.7961,-359 214.7961,-359 214.7961,-272 38.7961,-272"/>
<text text-anchor="middle" x="126.7961" y="-347" font-family="FreeSans.ttf" font-size="10.00" fill="#000000">urdf</text>
</a>
</g>
</g>
<g id="clust2" class="cluster">
<title>clusterdir_7bc8f591e845082dc66e6658a344f988</title>
<g id="a_clust2"><a xlink:href="dir_7bc8f591e845082dc66e6658a344f988.html" target="_top">
<polygon fill="#eeeeff" stroke="#000000" points="46.7961,-280 46.7961,-332 206.7961,-332 206.7961,-280 46.7961,-280"/>
</a>
</g>
</g>
<!-- dir_7bc8f591e845082dc66e6658a344f988 -->
<g id="node1" class="node">
<title>dir_7bc8f591e845082dc66e6658a344f988</title>
<text text-anchor="middle" x="81.7961" y="-303.5" font-family="FreeSans.ttf" font-size="10.00" fill="#000000">src</text>
</g>
<!-- dir_7349e89ef19c117195f8e371603e1b1f -->
<g id="node4" class="node">
<title>dir_7349e89ef19c117195f8e371603e1b1f</title>
<g id="a_node4"><a xlink:href="dir_7349e89ef19c117195f8e371603e1b1f.html" target="_top" xlink:title="sensors">
<polygon fill="none" stroke="#ff0000" points="139.7961,-180 85.7961,-180 85.7961,-144 139.7961,-144 139.7961,-180"/>
<text text-anchor="middle" x="112.7961" y="-159.5" font-family="FreeSans.ttf" font-size="10.00" fill="#000000">sensors</text>
</a>
</g>
</g>
<!-- dir_7bc8f591e845082dc66e6658a344f988&#45;&gt;dir_7349e89ef19c117195f8e371603e1b1f -->
<g id="edge5" class="edge">
<title>dir_7bc8f591e845082dc66e6658a344f988&#45;&gt;dir_7349e89ef19c117195f8e371603e1b1f</title>
<path fill="none" stroke="#000000" d="M85.7222,-287.7623C91.033,-263.0928 100.5554,-218.8598 106.7741,-189.9731"/>
<polygon fill="#000000" stroke="#000000" points="110.2187,-190.6023 108.9018,-180.0896 103.3755,-189.129 110.2187,-190.6023"/>
<g id="a_edge5&#45;headlabel"><a xlink:href="dir_000055_000001.html" target="_top" xlink:title="7">
<text text-anchor="middle" x="112.238" y="-192.2139" font-family="FreeSans.ttf" font-size="10.00" fill="#000000">7</text>
</a>
</g>
</g>
<!-- dir_aebb8dcc11953d78e620bbef0b9e2183 -->
<g id="node6" class="node">
<title>dir_aebb8dcc11953d78e620bbef0b9e2183</title>
<g id="a_node6"><a xlink:href="dir_aebb8dcc11953d78e620bbef0b9e2183.html" target="_top" xlink:title="core">
<polygon fill="none" stroke="#ff0000" points="139.7961,-36 85.7961,-36 85.7961,0 139.7961,0 139.7961,-36"/>
<text text-anchor="middle" x="112.7961" y="-15.5" font-family="FreeSans.ttf" font-size="10.00" fill="#000000">core</text>
</a>
</g>
</g>
<!-- dir_7bc8f591e845082dc66e6658a344f988&#45;&gt;dir_aebb8dcc11953d78e620bbef0b9e2183 -->
<g id="edge6" class="edge">
<title>dir_7bc8f591e845082dc66e6658a344f988&#45;&gt;dir_aebb8dcc11953d78e620bbef0b9e2183</title>
<path fill="none" stroke="#000000" d="M62.3209,-287.5498C33.6024,-257.9946 -14.7097,-197.8759 4.7961,-144 19.7288,-102.7551 55.0993,-66.0029 81.3161,-42.9879"/>
<polygon fill="#000000" stroke="#000000" points="83.8091,-45.4609 89.1257,-36.2965 79.2546,-40.1452 83.8091,-45.4609"/>
<g id="a_edge6&#45;headlabel"><a xlink:href="dir_000055_000011.html" target="_top" xlink:title="9">
<text text-anchor="middle" x="82.9268" y="-47.4557" font-family="FreeSans.ttf" font-size="10.00" fill="#000000">9</text>
</a>
</g>
</g>
<!-- dir_5f57de5bbe3f948f16e791110ccbe302 -->
<g id="node7" class="node">
<title>dir_5f57de5bbe3f948f16e791110ccbe302</title>
<g id="a_node7"><a xlink:href="dir_5f57de5bbe3f948f16e791110ccbe302.html" target="_top" xlink:title="xml">
<polygon fill="none" stroke="#ff0000" points="67.7961,-180 13.7961,-180 13.7961,-144 67.7961,-144 67.7961,-180"/>
<text text-anchor="middle" x="40.7961" y="-159.5" font-family="FreeSans.ttf" font-size="10.00" fill="#000000">xml</text>
</a>
</g>
</g>
<!-- dir_7bc8f591e845082dc66e6658a344f988&#45;&gt;dir_5f57de5bbe3f948f16e791110ccbe302 -->
<g id="edge7" class="edge">
<title>dir_7bc8f591e845082dc66e6658a344f988&#45;&gt;dir_5f57de5bbe3f948f16e791110ccbe302</title>
<path fill="none" stroke="#000000" d="M76.6034,-287.7623C69.5794,-263.0928 56.9853,-218.8598 48.7606,-189.9731"/>
<polygon fill="#000000" stroke="#000000" points="52.0513,-188.7489 45.9466,-180.0896 45.3188,-190.6658 52.0513,-188.7489"/>
<g id="a_edge7&#45;headlabel"><a xlink:href="dir_000055_000099.html" target="_top" xlink:title="9">
<text text-anchor="middle" x="55.7663" y="-188.9286" font-family="FreeSans.ttf" font-size="10.00" fill="#000000">9</text>
</a>
</g>
</g>
<!-- dir_017e16ffe28c321712a761cee7c3c776 -->
<g id="node2" class="node">
<title>dir_017e16ffe28c321712a761cee7c3c776</title>
<g id="a_node2"><a xlink:href="dir_017e16ffe28c321712a761cee7c3c776.html" target="_top" xlink:title="deprecated">
<polygon fill="#ffffff" stroke="#000000" points="198.2961,-324 127.2961,-324 127.2961,-288 198.2961,-288 198.2961,-324"/>
<text text-anchor="middle" x="162.7961" y="-303.5" font-family="FreeSans.ttf" font-size="10.00" fill="#000000">deprecated</text>
</a>
</g>
</g>
<!-- dir_628badb9184463bddab600e550de0bc5 -->
<g id="node3" class="node">
<title>dir_628badb9184463bddab600e550de0bc5</title>
<g id="a_node3"><a xlink:href="dir_628badb9184463bddab600e550de0bc5.html" target="_top" xlink:title="include">
<polygon fill="none" stroke="#ff0000" points="189.7961,-252 135.7961,-252 135.7961,-216 189.7961,-216 189.7961,-252"/>
<text text-anchor="middle" x="162.7961" y="-231.5" font-family="FreeSans.ttf" font-size="10.00" fill="#000000">include</text>
</a>
</g>
</g>
<!-- dir_017e16ffe28c321712a761cee7c3c776&#45;&gt;dir_628badb9184463bddab600e550de0bc5 -->
<g id="edge11" class="edge">
<title>dir_017e16ffe28c321712a761cee7c3c776&#45;&gt;dir_628badb9184463bddab600e550de0bc5</title>
<path fill="none" stroke="#000000" d="M162.7961,-287.8314C162.7961,-280.131 162.7961,-270.9743 162.7961,-262.4166"/>
<polygon fill="#000000" stroke="#000000" points="166.2962,-262.4132 162.7961,-252.4133 159.2962,-262.4133 166.2962,-262.4132"/>
<g id="a_edge11&#45;headlabel"><a xlink:href="dir_000093_000056.html" target="_top" xlink:title="6">
<text text-anchor="middle" x="169.1353" y="-263.5079" font-family="FreeSans.ttf" font-size="10.00" fill="#000000">6</text>
</a>
</g>
</g>
<!-- dir_5dd65160827af56e6353642206b80129 -->
<g id="node5" class="node">
<title>dir_5dd65160827af56e6353642206b80129</title>
<g id="a_node5"><a xlink:href="dir_5dd65160827af56e6353642206b80129.html" target="_top" xlink:title="model">
<polygon fill="none" stroke="#ff0000" points="249.7961,-108 195.7961,-108 195.7961,-72 249.7961,-72 249.7961,-108"/>
<text text-anchor="middle" x="222.7961" y="-87.5" font-family="FreeSans.ttf" font-size="10.00" fill="#000000">model</text>
</a>
</g>
</g>
<!-- dir_017e16ffe28c321712a761cee7c3c776&#45;&gt;dir_5dd65160827af56e6353642206b80129 -->
<g id="edge12" class="edge">
<title>dir_017e16ffe28c321712a761cee7c3c776&#45;&gt;dir_5dd65160827af56e6353642206b80129</title>
<path fill="none" stroke="#000000" d="M178.0009,-287.6472C185.4492,-277.6935 193.8568,-264.8281 198.7961,-252 215.9601,-207.4223 220.9322,-151.5815 222.3224,-118.4609"/>
<polygon fill="#000000" stroke="#000000" points="225.831,-118.2607 222.669,-108.1488 218.8349,-118.0255 225.831,-118.2607"/>
<g id="a_edge12&#45;headlabel"><a xlink:href="dir_000093_000032.html" target="_top" xlink:title="1">
<text text-anchor="middle" x="228.548" y="-119.4487" font-family="FreeSans.ttf" font-size="10.00" fill="#000000">1</text>
</a>
</g>
</g>
<!-- dir_628badb9184463bddab600e550de0bc5&#45;&gt;dir_7349e89ef19c117195f8e371603e1b1f -->
<g id="edge1" class="edge">
<title>dir_628badb9184463bddab600e550de0bc5&#45;&gt;dir_7349e89ef19c117195f8e371603e1b1f</title>
<path fill="none" stroke="#000000" d="M150.179,-215.8314C144.4789,-207.6232 137.6298,-197.7606 131.3602,-188.7323"/>
<polygon fill="#000000" stroke="#000000" points="134.1619,-186.6306 125.5831,-180.4133 128.4123,-190.6234 134.1619,-186.6306"/>
<g id="a_edge1&#45;headlabel"><a xlink:href="dir_000056_000001.html" target="_top" xlink:title="5">
<text text-anchor="middle" x="138.5443" y="-185.4636" font-family="FreeSans.ttf" font-size="10.00" fill="#000000">5</text>
</a>
</g>
</g>
<!-- dir_628badb9184463bddab600e550de0bc5&#45;&gt;dir_5dd65160827af56e6353642206b80129 -->
<g id="edge2" class="edge">
<title>dir_628badb9184463bddab600e550de0bc5&#45;&gt;dir_5dd65160827af56e6353642206b80129</title>
<path fill="none" stroke="#000000" d="M170.3951,-215.7623C180.7191,-190.9846 199.2663,-146.4714 211.2986,-117.5939"/>
<polygon fill="#000000" stroke="#000000" points="214.6433,-118.6666 215.2587,-108.0896 208.1817,-115.9742 214.6433,-118.6666"/>
<g id="a_edge2&#45;headlabel"><a xlink:href="dir_000056_000032.html" target="_top" xlink:title="7">
<text text-anchor="middle" x="215.8817" y="-120.5767" font-family="FreeSans.ttf" font-size="10.00" fill="#000000">7</text>
</a>
</g>
</g>
<!-- dir_628badb9184463bddab600e550de0bc5&#45;&gt;dir_aebb8dcc11953d78e620bbef0b9e2183 -->
<g id="edge3" class="edge">
<title>dir_628badb9184463bddab600e550de0bc5&#45;&gt;dir_aebb8dcc11953d78e620bbef0b9e2183</title>
<path fill="none" stroke="#000000" d="M160.6572,-215.9484C158.3375,-197.6895 154.2262,-168.7111 148.7961,-144 141.2859,-109.8235 129.8049,-71.2312 121.8356,-45.8662"/>
<polygon fill="#000000" stroke="#000000" points="125.1229,-44.6537 118.7612,-36.1815 118.451,-46.7718 125.1229,-44.6537"/>
<g id="a_edge3&#45;headlabel"><a xlink:href="dir_000056_000011.html" target="_top" xlink:title="11">
<text text-anchor="middle" x="128.9166" y="-44.7208" font-family="FreeSans.ttf" font-size="10.00" fill="#000000">11</text>
</a>
</g>
</g>
<!-- dir_628badb9184463bddab600e550de0bc5&#45;&gt;dir_5f57de5bbe3f948f16e791110ccbe302 -->
<g id="edge4" class="edge">
<title>dir_628badb9184463bddab600e550de0bc5&#45;&gt;dir_5f57de5bbe3f948f16e791110ccbe302</title>
<path fill="none" stroke="#000000" d="M135.7203,-218.0209C118.2669,-207.7205 95.3807,-194.2139 76.4535,-183.0437"/>
<polygon fill="#000000" stroke="#000000" points="78.1871,-180.0028 67.7961,-177.9345 74.6293,-186.0313 78.1871,-180.0028"/>
<g id="a_edge4&#45;headlabel"><a xlink:href="dir_000056_000099.html" target="_top" xlink:title="11">
<text text-anchor="middle" x="82.7259" y="-176.8845" font-family="FreeSans.ttf" font-size="10.00" fill="#000000">11</text>
</a>
</g>
</g>
<!-- dir_7349e89ef19c117195f8e371603e1b1f&#45;&gt;dir_5dd65160827af56e6353642206b80129 -->
<g id="edge8" class="edge">
<title>dir_7349e89ef19c117195f8e371603e1b1f&#45;&gt;dir_5dd65160827af56e6353642206b80129</title>
<path fill="none" stroke="#000000" d="M139.9871,-144.2022C154.1339,-134.9425 171.6117,-123.5025 186.859,-113.5224"/>
<polygon fill="#000000" stroke="#000000" points="189.0864,-116.2476 195.5366,-107.8425 185.2528,-110.3907 189.0864,-116.2476"/>
<g id="a_edge8&#45;headlabel"><a xlink:href="dir_000001_000032.html" target="_top" xlink:title="13">
<text text-anchor="middle" x="187.6337" y="-118.0918" font-family="FreeSans.ttf" font-size="10.00" fill="#000000">13</text>
</a>
</g>
</g>
<!-- dir_7349e89ef19c117195f8e371603e1b1f&#45;&gt;dir_aebb8dcc11953d78e620bbef0b9e2183 -->
<g id="edge9" class="edge">
<title>dir_7349e89ef19c117195f8e371603e1b1f&#45;&gt;dir_aebb8dcc11953d78e620bbef0b9e2183</title>
<path fill="none" stroke="#000000" d="M112.7961,-143.7623C112.7961,-119.201 112.7961,-75.2474 112.7961,-46.3541"/>
<polygon fill="#000000" stroke="#000000" points="116.2962,-46.0896 112.7961,-36.0896 109.2962,-46.0897 116.2962,-46.0896"/>
<g id="a_edge9&#45;headlabel"><a xlink:href="dir_000001_000011.html" target="_top" xlink:title="29">
<text text-anchor="middle" x="119.1353" y="-47.1842" font-family="FreeSans.ttf" font-size="10.00" fill="#000000">29</text>
</a>
</g>
</g>
<!-- dir_5dd65160827af56e6353642206b80129&#45;&gt;dir_aebb8dcc11953d78e620bbef0b9e2183 -->
<g id="edge10" class="edge">
<title>dir_5dd65160827af56e6353642206b80129&#45;&gt;dir_aebb8dcc11953d78e620bbef0b9e2183</title>
<path fill="none" stroke="#000000" d="M195.605,-72.2022C181.4582,-62.9425 163.9804,-51.5025 148.7331,-41.5224"/>
<polygon fill="#000000" stroke="#000000" points="150.3394,-38.3907 140.0555,-35.8425 146.5057,-44.2476 150.3394,-38.3907"/>
<g id="a_edge10&#45;headlabel"><a xlink:href="dir_000032_000011.html" target="_top" xlink:title="59">
<text text-anchor="middle" x="154.9019" y="-35.4837" font-family="FreeSans.ttf" font-size="10.00" fill="#000000">59</text>
</a>
</g>
</g>
<!-- dir_5f57de5bbe3f948f16e791110ccbe302&#45;&gt;dir_aebb8dcc11953d78e620bbef0b9e2183 -->
<g id="edge13" class="edge">
<title>dir_5f57de5bbe3f948f16e791110ccbe302&#45;&gt;dir_aebb8dcc11953d78e620bbef0b9e2183</title>
<path fill="none" stroke="#000000" d="M49.9149,-143.7623C62.3578,-118.8764 84.7549,-74.0822 99.1878,-45.2165"/>
<polygon fill="#000000" stroke="#000000" points="102.4096,-46.5992 103.7513,-36.0896 96.1486,-43.4686 102.4096,-46.5992"/>
<g id="a_edge13&#45;headlabel"><a xlink:href="dir_000099_000011.html" target="_top" xlink:title="1">
<text text-anchor="middle" x="103.3416" y="-48.584" font-family="FreeSans.ttf" font-size="10.00" fill="#000000">1</text>
</a>
</g>
</g>
</g>
</svg>
