<?xml version="1.0" encoding="UTF-8" standalone="no"?>
<!DOCTYPE svg PUBLIC "-//W3C//DTD SVG 1.1//EN"
 "http://www.w3.org/Graphics/SVG/1.1/DTD/svg11.dtd">
<!-- Generated by graphviz version 2.40.1 (20161225.0304)
 -->
<!-- Title: private Pages: 1 -->
<svg width="220pt" height="367pt"
 viewBox="0.00 0.00 219.65 367.00" xmlns="http://www.w3.org/2000/svg" xmlns:xlink="http://www.w3.org/1999/xlink">
<g id="graph0" class="graph" transform="scale(1 1) rotate(0) translate(4 363)">
<title>private</title>
<g id="clust1" class="cluster">
<title>clusterdir_628badb9184463bddab600e550de0bc5</title>
<g id="a_clust1"><a xlink:href="dir_628badb9184463bddab600e550de0bc5.html" target="_top" xlink:title="include">
<polygon fill="#ddddee" stroke="#000000" points="36.6479,-280 36.6479,-351 106.6479,-351 106.6479,-280 36.6479,-280"/>
<text text-anchor="middle" x="71.6479" y="-339" font-family="FreeSans.ttf" font-size="10.00" fill="#000000">include</text>
</a>
</g>
</g>
<!-- dir_eeba5a9ee7993fb95e69618edbde8baf -->
<g id="node1" class="node">
<title>dir_eeba5a9ee7993fb95e69618edbde8baf</title>
<g id="a_node1"><a xlink:href="dir_eeba5a9ee7993fb95e69618edbde8baf.html" target="_top" xlink:title="private">
<polygon fill="#eeeeff" stroke="#000000" points="98.6479,-324 44.6479,-324 44.6479,-288 98.6479,-288 98.6479,-324"/>
<text text-anchor="middle" x="71.6479" y="-303.5" font-family="FreeSans.ttf" font-size="10.00" fill="#000000">private</text>
</a>
</g>
</g>
<!-- dir_7349e89ef19c117195f8e371603e1b1f -->
<g id="node2" class="node">
<title>dir_7349e89ef19c117195f8e371603e1b1f</title>
<g id="a_node2"><a xlink:href="dir_7349e89ef19c117195f8e371603e1b1f.html" target="_top" xlink:title="sensors">
<polygon fill="none" stroke="#ff0000" points="143.6479,-180 89.6479,-180 89.6479,-144 143.6479,-144 143.6479,-180"/>
<text text-anchor="middle" x="116.6479" y="-159.5" font-family="FreeSans.ttf" font-size="10.00" fill="#000000">sensors</text>
</a>
</g>
</g>
<!-- dir_eeba5a9ee7993fb95e69618edbde8baf&#45;&gt;dir_7349e89ef19c117195f8e371603e1b1f -->
<g id="edge1" class="edge">
<title>dir_eeba5a9ee7993fb95e69618edbde8baf&#45;&gt;dir_7349e89ef19c117195f8e371603e1b1f</title>
<path fill="none" stroke="#000000" d="M88.0906,-287.9196C96.0604,-278.0404 104.9126,-265.1595 109.6479,-252 116.7562,-232.246 118.3421,-208.5223 118.2386,-190.3923"/>
<polygon fill="#000000" stroke="#000000" points="121.7326,-190.0906 118.0009,-180.1747 114.7345,-190.2534 121.7326,-190.0906"/>
<g id="a_edge1&#45;headlabel"><a xlink:href="dir_000057_000001.html" target="_top" xlink:title="2">
<text text-anchor="middle" x="124.6546" y="-191.1182" font-family="FreeSans.ttf" font-size="10.00" fill="#000000">2</text>
</a>
</g>
</g>
<!-- dir_5dd65160827af56e6353642206b80129 -->
<g id="node3" class="node">
<title>dir_5dd65160827af56e6353642206b80129</title>
<g id="a_node3"><a xlink:href="dir_5dd65160827af56e6353642206b80129.html" target="_top" xlink:title="model">
<polygon fill="none" stroke="#ff0000" points="88.6479,-108 34.6479,-108 34.6479,-72 88.6479,-72 88.6479,-108"/>
<text text-anchor="middle" x="61.6479" y="-87.5" font-family="FreeSans.ttf" font-size="10.00" fill="#000000">model</text>
</a>
</g>
</g>
<!-- dir_eeba5a9ee7993fb95e69618edbde8baf&#45;&gt;dir_5dd65160827af56e6353642206b80129 -->
<g id="edge2" class="edge">
<title>dir_eeba5a9ee7993fb95e69618edbde8baf&#45;&gt;dir_5dd65160827af56e6353642206b80129</title>
<path fill="none" stroke="#000000" d="M53.9371,-287.6517C45.7537,-277.8946 36.9175,-265.2041 32.6479,-252 17.83,-206.1743 35.0987,-150.4607 48.6237,-117.7483"/>
<polygon fill="#000000" stroke="#000000" points="51.9212,-118.94 52.6613,-108.3711 45.4919,-116.1717 51.9212,-118.94"/>
<g id="a_edge2&#45;headlabel"><a xlink:href="dir_000057_000032.html" target="_top" xlink:title="4">
<text text-anchor="middle" x="53.1075" y="-120.8644" font-family="FreeSans.ttf" font-size="10.00" fill="#000000">4</text>
</a>
</g>
</g>
<!-- dir_aebb8dcc11953d78e620bbef0b9e2183 -->
<g id="node4" class="node">
<title>dir_aebb8dcc11953d78e620bbef0b9e2183</title>
<g id="a_node4"><a xlink:href="dir_aebb8dcc11953d78e620bbef0b9e2183.html" target="_top" xlink:title="core">
<polygon fill="none" stroke="#ff0000" points="115.6479,-36 61.6479,-36 61.6479,0 115.6479,0 115.6479,-36"/>
<text text-anchor="middle" x="88.6479" y="-15.5" font-family="FreeSans.ttf" font-size="10.00" fill="#000000">core</text>
</a>
</g>
</g>
<!-- dir_eeba5a9ee7993fb95e69618edbde8baf&#45;&gt;dir_aebb8dcc11953d78e620bbef0b9e2183 -->
<g id="edge3" class="edge">
<title>dir_eeba5a9ee7993fb95e69618edbde8baf&#45;&gt;dir_aebb8dcc11953d78e620bbef0b9e2183</title>
<path fill="none" stroke="#000000" d="M49.4266,-287.9032C39.5171,-278.3888 28.9079,-265.8349 23.6479,-252 10.7307,-218.0253 -23.1369,-176.1575 25.6479,-72 31.6368,-59.2134 42.2751,-48.3021 53.1245,-39.7045"/>
<polygon fill="#000000" stroke="#000000" points="55.4328,-42.3505 61.3887,-33.5882 51.2685,-36.7238 55.4328,-42.3505"/>
<g id="a_edge3&#45;headlabel"><a xlink:href="dir_000057_000011.html" target="_top" xlink:title="8">
<text text-anchor="middle" x="54.2325" y="-44.2711" font-family="FreeSans.ttf" font-size="10.00" fill="#000000">8</text>
</a>
</g>
</g>
<!-- dir_5f57de5bbe3f948f16e791110ccbe302 -->
<g id="node5" class="node">
<title>dir_5f57de5bbe3f948f16e791110ccbe302</title>
<g id="a_node5"><a xlink:href="dir_5f57de5bbe3f948f16e791110ccbe302.html" target="_top" xlink:title="xml">
<polygon fill="none" stroke="#ff0000" points="211.6479,-252 157.6479,-252 157.6479,-216 211.6479,-216 211.6479,-252"/>
<text text-anchor="middle" x="184.6479" y="-231.5" font-family="FreeSans.ttf" font-size="10.00" fill="#000000">xml</text>
</a>
</g>
</g>
<!-- dir_eeba5a9ee7993fb95e69618edbde8baf&#45;&gt;dir_5f57de5bbe3f948f16e791110ccbe302 -->
<g id="edge4" class="edge">
<title>dir_eeba5a9ee7993fb95e69618edbde8baf&#45;&gt;dir_5f57de5bbe3f948f16e791110ccbe302</title>
<path fill="none" stroke="#000000" d="M98.7142,-288.7542C113.699,-279.2064 132.516,-267.2168 148.719,-256.8927"/>
<polygon fill="#000000" stroke="#000000" points="150.858,-259.68 157.4108,-251.3546 147.0965,-253.7765 150.858,-259.68"/>
<g id="a_edge4&#45;headlabel"><a xlink:href="dir_000057_000099.html" target="_top" xlink:title="11">
<text text-anchor="middle" x="149.3522" y="-261.506" font-family="FreeSans.ttf" font-size="10.00" fill="#000000">11</text>
</a>
</g>
</g>
<!-- dir_7ab716ed06828ed1645e1d373a35452a -->
<g id="node6" class="node">
<title>dir_7ab716ed06828ed1645e1d373a35452a</title>
<g id="a_node6"><a xlink:href="dir_7ab716ed06828ed1645e1d373a35452a.html" target="_top" xlink:title="iDynTree">
<polygon fill="none" stroke="#ff0000" points="101.1479,-252 42.1479,-252 42.1479,-216 101.1479,-216 101.1479,-252"/>
<text text-anchor="middle" x="71.6479" y="-231.5" font-family="FreeSans.ttf" font-size="10.00" fill="#000000">iDynTree</text>
</a>
</g>
</g>
<!-- dir_eeba5a9ee7993fb95e69618edbde8baf&#45;&gt;dir_7ab716ed06828ed1645e1d373a35452a -->
<g id="edge5" class="edge">
<title>dir_eeba5a9ee7993fb95e69618edbde8baf&#45;&gt;dir_7ab716ed06828ed1645e1d373a35452a</title>
<path fill="none" stroke="#000000" d="M71.6479,-287.8314C71.6479,-280.131 71.6479,-270.9743 71.6479,-262.4166"/>
<polygon fill="#000000" stroke="#000000" points="75.148,-262.4132 71.6479,-252.4133 68.148,-262.4133 75.148,-262.4132"/>
<g id="a_edge5&#45;headlabel"><a xlink:href="dir_000057_000080.html" target="_top" xlink:title="2">
<text text-anchor="middle" x="77.9872" y="-263.5079" font-family="FreeSans.ttf" font-size="10.00" fill="#000000">2</text>
</a>
</g>
</g>
<!-- dir_7349e89ef19c117195f8e371603e1b1f&#45;&gt;dir_5dd65160827af56e6353642206b80129 -->
<g id="edge6" class="edge">
<title>dir_7349e89ef19c117195f8e371603e1b1f&#45;&gt;dir_5dd65160827af56e6353642206b80129</title>
<path fill="none" stroke="#000000" d="M102.7691,-143.8314C96.4343,-135.5386 88.8095,-125.557 81.8553,-116.4533"/>
<polygon fill="#000000" stroke="#000000" points="84.5654,-114.2353 75.7136,-108.4133 79.0027,-118.4847 84.5654,-114.2353"/>
<g id="a_edge6&#45;headlabel"><a xlink:href="dir_000001_000032.html" target="_top" xlink:title="13">
<text text-anchor="middle" x="89.0037" y="-112.8683" font-family="FreeSans.ttf" font-size="10.00" fill="#000000">13</text>
</a>
</g>
</g>
<!-- dir_7349e89ef19c117195f8e371603e1b1f&#45;&gt;dir_aebb8dcc11953d78e620bbef0b9e2183 -->
<g id="edge7" class="edge">
<title>dir_7349e89ef19c117195f8e371603e1b1f&#45;&gt;dir_aebb8dcc11953d78e620bbef0b9e2183</title>
<path fill="none" stroke="#000000" d="M113.1017,-143.7623C108.3048,-119.0928 99.704,-74.8598 94.0871,-45.9731"/>
<polygon fill="#000000" stroke="#000000" points="97.5098,-45.2377 92.1653,-36.0896 90.6384,-46.5738 97.5098,-45.2377"/>
<g id="a_edge7&#45;headlabel"><a xlink:href="dir_000001_000011.html" target="_top" xlink:title="29">
<text text-anchor="middle" x="100.9829" y="-45.7243" font-family="FreeSans.ttf" font-size="10.00" fill="#000000">29</text>
</a>
</g>
</g>
<!-- dir_5dd65160827af56e6353642206b80129&#45;&gt;dir_aebb8dcc11953d78e620bbef0b9e2183 -->
<g id="edge8" class="edge">
<title>dir_5dd65160827af56e6353642206b80129&#45;&gt;dir_aebb8dcc11953d78e620bbef0b9e2183</title>
<path fill="none" stroke="#000000" d="M68.4611,-71.8314C71.4123,-63.9617 74.9337,-54.5712 78.2029,-45.8533"/>
<polygon fill="#000000" stroke="#000000" points="81.5088,-47.0055 81.7429,-36.4133 74.9545,-44.5476 81.5088,-47.0055"/>
<g id="a_edge8&#45;headlabel"><a xlink:href="dir_000032_000011.html" target="_top" xlink:title="59">
<text text-anchor="middle" x="82.9052" y="-48.8682" font-family="FreeSans.ttf" font-size="10.00" fill="#000000">59</text>
</a>
</g>
</g>
<!-- dir_5f57de5bbe3f948f16e791110ccbe302&#45;&gt;dir_aebb8dcc11953d78e620bbef0b9e2183 -->
<g id="edge9" class="edge">
<title>dir_5f57de5bbe3f948f16e791110ccbe302&#45;&gt;dir_aebb8dcc11953d78e620bbef0b9e2183</title>
<path fill="none" stroke="#000000" d="M178.9091,-215.822C172.9455,-197.4648 163.0447,-168.4114 152.6479,-144 138.629,-111.0839 132.8827,-103.8815 116.6479,-72 112.2609,-63.385 107.4309,-54.0259 103.0357,-45.5567"/>
<polygon fill="#000000" stroke="#000000" points="106.024,-43.7169 98.3049,-36.4598 99.8136,-46.9467 106.024,-43.7169"/>
<g id="a_edge9&#45;headlabel"><a xlink:href="dir_000099_000011.html" target="_top" xlink:title="1">
<text text-anchor="middle" x="110.2014" y="-43.0961" font-family="FreeSans.ttf" font-size="10.00" fill="#000000">1</text>
</a>
</g>
</g>
<!-- dir_7ab716ed06828ed1645e1d373a35452a&#45;&gt;dir_7349e89ef19c117195f8e371603e1b1f -->
<g id="edge10" class="edge">
<title>dir_7ab716ed06828ed1645e1d373a35452a&#45;&gt;dir_7349e89ef19c117195f8e371603e1b1f</title>
<path fill="none" stroke="#000000" d="M83.0033,-215.8314C88.0805,-207.7079 94.1706,-197.9637 99.7655,-189.0118"/>
<polygon fill="#000000" stroke="#000000" points="102.8076,-190.7483 105.1396,-180.4133 96.8716,-187.0383 102.8076,-190.7483"/>
<g id="a_edge10&#45;headlabel"><a xlink:href="dir_000080_000001.html" target="_top" xlink:title="3">
<text text-anchor="middle" x="103.3102" y="-192.8013" font-family="FreeSans.ttf" font-size="10.00" fill="#000000">3</text>
</a>
</g>
</g>
<!-- dir_7ab716ed06828ed1645e1d373a35452a&#45;&gt;dir_5dd65160827af56e6353642206b80129 -->
<g id="edge11" class="edge">
<title>dir_7ab716ed06828ed1645e1d373a35452a&#45;&gt;dir_5dd65160827af56e6353642206b80129</title>
<path fill="none" stroke="#000000" d="M70.3814,-215.7623C68.6758,-191.201 65.6234,-147.2474 63.6169,-118.3541"/>
<polygon fill="#000000" stroke="#000000" points="67.0886,-117.8231 62.9041,-108.0896 60.1054,-118.3081 67.0886,-117.8231"/>
<g id="a_edge11&#45;headlabel"><a xlink:href="dir_000080_000032.html" target="_top" xlink:title="3">
<text text-anchor="middle" x="70.17" y="-118.7124" font-family="FreeSans.ttf" font-size="10.00" fill="#000000">3</text>
</a>
</g>
</g>
</g>
</svg>
