<?xml version="1.0" encoding="UTF-8" standalone="no"?>
<!DOCTYPE svg PUBLIC "-//W3C//DTD SVG 1.1//EN"
 "http://www.w3.org/Graphics/SVG/1.1/DTD/svg11.dtd">
<!-- Generated by graphviz version 2.40.1 (20161225.0304)
 -->
<!-- Title: inverse&#45;kinematics Pages: 1 -->
<svg width="263pt" height="447pt"
 viewBox="0.00 0.00 263.00 447.00" xmlns="http://www.w3.org/2000/svg" xmlns:xlink="http://www.w3.org/1999/xlink">
<g id="graph0" class="graph" transform="scale(1 1) rotate(0) translate(4 443)">
<title>inverse&#45;kinematics</title>
<g id="clust1" class="cluster">
<title>clusterdir_68267d1309a1af8e8297ef4c3efbcdba</title>
<g id="a_clust1"><a xlink:href="dir_68267d1309a1af8e8297ef4c3efbcdba.html" target="_top" xlink:title="src">
<polygon fill="#ddddee" stroke="#000000" points="33,-272 33,-431 247,-431 247,-272 33,-272"/>
<text text-anchor="middle" x="140" y="-419" font-family="FreeSans.ttf" font-size="10.00" fill="#000000">src</text>
</a>
</g>
</g>
<g id="clust2" class="cluster">
<title>clusterdir_b7c18fbf081229a9716e24d71701f6e8</title>
<g id="a_clust2"><a xlink:href="dir_b7c18fbf081229a9716e24d71701f6e8.html" target="_top">
<polygon fill="#eeeeff" stroke="#000000" points="41,-280 41,-404 239,-404 239,-280 41,-280"/>
</a>
</g>
</g>
<!-- dir_b7c18fbf081229a9716e24d71701f6e8 -->
<g id="node1" class="node">
<title>dir_b7c18fbf081229a9716e24d71701f6e8</title>
<text text-anchor="middle" x="176" y="-375.5" font-family="FreeSans.ttf" font-size="10.00" fill="#000000">inverse&#45;kinematics</text>
</g>
<!-- dir_264a460a30613f42eafbf69c86d5a428 -->
<g id="node2" class="node">
<title>dir_264a460a30613f42eafbf69c86d5a428</title>
<g id="a_node2"><a xlink:href="dir_264a460a30613f42eafbf69c86d5a428.html" target="_top" xlink:title="include">
<polygon fill="#ffffff" stroke="#ff0000" points="103,-324 49,-324 49,-288 103,-288 103,-324"/>
<text text-anchor="middle" x="76" y="-303.5" font-family="FreeSans.ttf" font-size="10.00" fill="#000000">include</text>
</a>
</g>
</g>
<!-- dir_355314d08763ddbf0e6d36531a48f7ae -->
<g id="node4" class="node">
<title>dir_355314d08763ddbf0e6d36531a48f7ae</title>
<g id="a_node4"><a xlink:href="dir_355314d08763ddbf0e6d36531a48f7ae.html" target="_top" xlink:title="high&#45;level">
<polygon fill="none" stroke="#ff0000" points="175.5,-252 110.5,-252 110.5,-216 175.5,-216 175.5,-252"/>
<text text-anchor="middle" x="143" y="-231.5" font-family="FreeSans.ttf" font-size="10.00" fill="#000000">high&#45;level</text>
</a>
</g>
</g>
<!-- dir_264a460a30613f42eafbf69c86d5a428&#45;&gt;dir_355314d08763ddbf0e6d36531a48f7ae -->
<g id="edge1" class="edge">
<title>dir_264a460a30613f42eafbf69c86d5a428&#45;&gt;dir_355314d08763ddbf0e6d36531a48f7ae</title>
<path fill="none" stroke="#000000" d="M92.9069,-287.8314C100.7813,-279.3694 110.292,-269.1489 118.9013,-259.8971"/>
<polygon fill="#000000" stroke="#000000" points="121.6153,-262.1183 125.8654,-252.4133 116.4908,-257.3497 121.6153,-262.1183"/>
<g id="a_edge1&#45;headlabel"><a xlink:href="dir_000028_000072.html" target="_top" xlink:title="1">
<text text-anchor="middle" x="121.2451" y="-264.184" font-family="FreeSans.ttf" font-size="10.00" fill="#000000">1</text>
</a>
</g>
</g>
<!-- dir_5dd65160827af56e6353642206b80129 -->
<g id="node6" class="node">
<title>dir_5dd65160827af56e6353642206b80129</title>
<g id="a_node6"><a xlink:href="dir_5dd65160827af56e6353642206b80129.html" target="_top" xlink:title="model">
<polygon fill="none" stroke="#ff0000" points="189,-108 135,-108 135,-72 189,-72 189,-108"/>
<text text-anchor="middle" x="162" y="-87.5" font-family="FreeSans.ttf" font-size="10.00" fill="#000000">model</text>
</a>
</g>
</g>
<!-- dir_264a460a30613f42eafbf69c86d5a428&#45;&gt;dir_5dd65160827af56e6353642206b80129 -->
<g id="edge2" class="edge">
<title>dir_264a460a30613f42eafbf69c86d5a428&#45;&gt;dir_5dd65160827af56e6353642206b80129</title>
<path fill="none" stroke="#000000" d="M80.0448,-287.7645C84.3626,-269.3625 91.8376,-240.275 101,-216 114.2414,-180.9178 133.6793,-142.3552 147.0348,-117.2506"/>
<polygon fill="#000000" stroke="#000000" points="150.1814,-118.789 151.83,-108.3233 144.0146,-115.4766 150.1814,-118.789"/>
<g id="a_edge2&#45;headlabel"><a xlink:href="dir_000028_000032.html" target="_top" xlink:title="1">
<text text-anchor="middle" x="150.9817" y="-120.7992" font-family="FreeSans.ttf" font-size="10.00" fill="#000000">1</text>
</a>
</g>
</g>
<!-- dir_aebb8dcc11953d78e620bbef0b9e2183 -->
<g id="node7" class="node">
<title>dir_aebb8dcc11953d78e620bbef0b9e2183</title>
<g id="a_node7"><a xlink:href="dir_aebb8dcc11953d78e620bbef0b9e2183.html" target="_top" xlink:title="core">
<polygon fill="none" stroke="#ff0000" points="134,-36 80,-36 80,0 134,0 134,-36"/>
<text text-anchor="middle" x="107" y="-15.5" font-family="FreeSans.ttf" font-size="10.00" fill="#000000">core</text>
</a>
</g>
</g>
<!-- dir_264a460a30613f42eafbf69c86d5a428&#45;&gt;dir_aebb8dcc11953d78e620bbef0b9e2183 -->
<g id="edge3" class="edge">
<title>dir_264a460a30613f42eafbf69c86d5a428&#45;&gt;dir_aebb8dcc11953d78e620bbef0b9e2183</title>
<path fill="none" stroke="#000000" d="M77.9392,-287.9843C83.1802,-239.2939 97.6574,-104.7961 103.9799,-46.0573"/>
<polygon fill="#000000" stroke="#000000" points="107.4711,-46.3261 105.0615,-36.0089 100.5113,-45.5768 107.4711,-46.3261"/>
<g id="a_edge3&#45;headlabel"><a xlink:href="dir_000028_000011.html" target="_top" xlink:title="19">
<text text-anchor="middle" x="109.9095" y="-47.7039" font-family="FreeSans.ttf" font-size="10.00" fill="#000000">19</text>
</a>
</g>
</g>
<!-- dir_20f7f411b4a792aa2113c379b9da0f5a -->
<g id="node3" class="node">
<title>dir_20f7f411b4a792aa2113c379b9da0f5a</title>
<g id="a_node3"><a xlink:href="dir_20f7f411b4a792aa2113c379b9da0f5a.html" target="_top" xlink:title="src">
<polygon fill="#ffffff" stroke="#000000" points="103,-396 49,-396 49,-360 103,-360 103,-396"/>
<text text-anchor="middle" x="76" y="-375.5" font-family="FreeSans.ttf" font-size="10.00" fill="#000000">src</text>
</a>
</g>
</g>
<!-- dir_20f7f411b4a792aa2113c379b9da0f5a&#45;&gt;dir_264a460a30613f42eafbf69c86d5a428 -->
<g id="edge4" class="edge">
<title>dir_20f7f411b4a792aa2113c379b9da0f5a&#45;&gt;dir_264a460a30613f42eafbf69c86d5a428</title>
<path fill="none" stroke="#000000" d="M76,-359.8314C76,-352.131 76,-342.9743 76,-334.4166"/>
<polygon fill="#000000" stroke="#000000" points="79.5001,-334.4132 76,-324.4133 72.5001,-334.4133 79.5001,-334.4132"/>
<g id="a_edge4&#45;headlabel"><a xlink:href="dir_000027_000028.html" target="_top" xlink:title="12">
<text text-anchor="middle" x="82.3393" y="-335.5079" font-family="FreeSans.ttf" font-size="10.00" fill="#000000">12</text>
</a>
</g>
</g>
<!-- dir_fb93052291ccda37fd41b6d18f3dfcc9 -->
<g id="node5" class="node">
<title>dir_fb93052291ccda37fd41b6d18f3dfcc9</title>
<g id="a_node5"><a xlink:href="dir_fb93052291ccda37fd41b6d18f3dfcc9.html" target="_top" xlink:title="model_io">
<polygon fill="none" stroke="#ff0000" points="242,-180 180,-180 180,-144 242,-144 242,-180"/>
<text text-anchor="middle" x="211" y="-159.5" font-family="FreeSans.ttf" font-size="10.00" fill="#000000">model_io</text>
</a>
</g>
</g>
<!-- dir_20f7f411b4a792aa2113c379b9da0f5a&#45;&gt;dir_fb93052291ccda37fd41b6d18f3dfcc9 -->
<g id="edge5" class="edge">
<title>dir_20f7f411b4a792aa2113c379b9da0f5a&#45;&gt;dir_fb93052291ccda37fd41b6d18f3dfcc9</title>
<path fill="none" stroke="#000000" d="M96.2677,-359.9295C120.7,-337.087 161.4086,-295.4719 185,-252 195.5544,-232.5514 202.234,-208.3545 206.1764,-189.9496"/>
<polygon fill="#000000" stroke="#000000" points="209.612,-190.6175 208.141,-180.1253 202.7479,-189.2448 209.612,-190.6175"/>
<g id="a_edge5&#45;headlabel"><a xlink:href="dir_000027_000043.html" target="_top" xlink:title="2">
<text text-anchor="middle" x="211.6914" y="-192.1991" font-family="FreeSans.ttf" font-size="10.00" fill="#000000">2</text>
</a>
</g>
</g>
<!-- dir_20f7f411b4a792aa2113c379b9da0f5a&#45;&gt;dir_aebb8dcc11953d78e620bbef0b9e2183 -->
<g id="edge6" class="edge">
<title>dir_20f7f411b4a792aa2113c379b9da0f5a&#45;&gt;dir_aebb8dcc11953d78e620bbef0b9e2183</title>
<path fill="none" stroke="#000000" d="M58.7544,-359.6186C36.3312,-333.719 0,-284.0348 0,-234 0,-234 0,-234 0,-162 0,-112.2513 41.6541,-68.5243 72.9837,-42.6715"/>
<polygon fill="#000000" stroke="#000000" points="75.4777,-45.1584 81.0983,-36.1774 71.1038,-39.6931 75.4777,-45.1584"/>
<g id="a_edge6&#45;headlabel"><a xlink:href="dir_000027_000011.html" target="_top" xlink:title="15">
<text text-anchor="middle" x="74.4453" y="-47.1212" font-family="FreeSans.ttf" font-size="10.00" fill="#000000">15</text>
</a>
</g>
</g>
<!-- dir_355314d08763ddbf0e6d36531a48f7ae&#45;&gt;dir_fb93052291ccda37fd41b6d18f3dfcc9 -->
<g id="edge7" class="edge">
<title>dir_355314d08763ddbf0e6d36531a48f7ae&#45;&gt;dir_fb93052291ccda37fd41b6d18f3dfcc9</title>
<path fill="none" stroke="#000000" d="M160.1593,-215.8314C168.1511,-207.3694 177.8038,-197.1489 186.5416,-187.8971"/>
<polygon fill="#000000" stroke="#000000" points="189.288,-190.0866 193.6097,-180.4133 184.1989,-185.2802 189.288,-190.0866"/>
<g id="a_edge7&#45;headlabel"><a xlink:href="dir_000072_000043.html" target="_top" xlink:title="1">
<text text-anchor="middle" x="188.884" y="-192.1494" font-family="FreeSans.ttf" font-size="10.00" fill="#000000">1</text>
</a>
</g>
</g>
<!-- dir_355314d08763ddbf0e6d36531a48f7ae&#45;&gt;dir_5dd65160827af56e6353642206b80129 -->
<g id="edge8" class="edge">
<title>dir_355314d08763ddbf0e6d36531a48f7ae&#45;&gt;dir_5dd65160827af56e6353642206b80129</title>
<path fill="none" stroke="#000000" d="M145.4064,-215.7623C148.6471,-191.201 154.4465,-147.2474 158.2588,-118.3541"/>
<polygon fill="#000000" stroke="#000000" points="161.7749,-118.4616 159.6132,-108.0896 154.8351,-117.5458 161.7749,-118.4616"/>
<g id="a_edge8&#45;headlabel"><a xlink:href="dir_000072_000032.html" target="_top" xlink:title="11">
<text text-anchor="middle" x="164.1197" y="-119.8967" font-family="FreeSans.ttf" font-size="10.00" fill="#000000">11</text>
</a>
</g>
</g>
<!-- dir_355314d08763ddbf0e6d36531a48f7ae&#45;&gt;dir_aebb8dcc11953d78e620bbef0b9e2183 -->
<g id="edge9" class="edge">
<title>dir_355314d08763ddbf0e6d36531a48f7ae&#45;&gt;dir_aebb8dcc11953d78e620bbef0b9e2183</title>
<path fill="none" stroke="#000000" d="M139.9926,-215.9555C133.7191,-178.3144 119.1978,-91.1867 111.6874,-46.1246"/>
<polygon fill="#000000" stroke="#000000" points="115.1206,-45.4336 110.0242,-36.1451 108.2159,-46.5844 115.1206,-45.4336"/>
<g id="a_edge9&#45;headlabel"><a xlink:href="dir_000072_000011.html" target="_top" xlink:title="14">
<text text-anchor="middle" x="118.5121" y="-46.0125" font-family="FreeSans.ttf" font-size="10.00" fill="#000000">14</text>
</a>
</g>
</g>
<!-- dir_fb93052291ccda37fd41b6d18f3dfcc9&#45;&gt;dir_5dd65160827af56e6353642206b80129 -->
<g id="edge10" class="edge">
<title>dir_fb93052291ccda37fd41b6d18f3dfcc9&#45;&gt;dir_5dd65160827af56e6353642206b80129</title>
<path fill="none" stroke="#000000" d="M198.6352,-143.8314C193.0491,-135.6232 186.337,-125.7606 180.1928,-116.7323"/>
<polygon fill="#000000" stroke="#000000" points="183.051,-114.7112 174.5313,-108.4133 177.264,-118.6496 183.051,-114.7112"/>
<g id="a_edge10&#45;headlabel"><a xlink:href="dir_000043_000032.html" target="_top" xlink:title="25">
<text text-anchor="middle" x="187.4207" y="-113.5855" font-family="FreeSans.ttf" font-size="10.00" fill="#000000">25</text>
</a>
</g>
</g>
<!-- dir_fb93052291ccda37fd41b6d18f3dfcc9&#45;&gt;dir_aebb8dcc11953d78e620bbef0b9e2183 -->
<g id="edge11" class="edge">
<title>dir_fb93052291ccda37fd41b6d18f3dfcc9&#45;&gt;dir_aebb8dcc11953d78e620bbef0b9e2183</title>
<path fill="none" stroke="#000000" d="M212.7456,-143.823C213.6785,-124.4059 212.3906,-93.5233 198,-72 185.1595,-52.7952 162.9756,-39.4278 143.7262,-30.7971"/>
<polygon fill="#000000" stroke="#000000" points="144.8549,-27.4748 134.2801,-26.8229 142.1402,-33.927 144.8549,-27.4748"/>
<g id="a_edge11&#45;headlabel"><a xlink:href="dir_000043_000011.html" target="_top" xlink:title="22">
<text text-anchor="middle" x="149.2693" y="-23.7517" font-family="FreeSans.ttf" font-size="10.00" fill="#000000">22</text>
</a>
</g>
</g>
<!-- dir_5dd65160827af56e6353642206b80129&#45;&gt;dir_aebb8dcc11953d78e620bbef0b9e2183 -->
<g id="edge12" class="edge">
<title>dir_5dd65160827af56e6353642206b80129&#45;&gt;dir_aebb8dcc11953d78e620bbef0b9e2183</title>
<path fill="none" stroke="#000000" d="M148.1212,-71.8314C141.7864,-63.5386 134.1616,-53.557 127.2074,-44.4533"/>
<polygon fill="#000000" stroke="#000000" points="129.9175,-42.2353 121.0657,-36.4133 124.3548,-46.4847 129.9175,-42.2353"/>
<g id="a_edge12&#45;headlabel"><a xlink:href="dir_000032_000011.html" target="_top" xlink:title="59">
<text text-anchor="middle" x="134.3558" y="-40.8683" font-family="FreeSans.ttf" font-size="10.00" fill="#000000">59</text>
</a>
</g>
</g>
</g>
</svg>
