<?xml version="1.0" encoding="UTF-8" standalone="no"?>
<!DOCTYPE svg PUBLIC "-//W3C//DTD SVG 1.1//EN"
 "http://www.w3.org/Graphics/SVG/1.1/DTD/svg11.dtd">
<!-- Generated by graphviz version 2.40.1 (20161225.0304)
 -->
<!-- Title: Direction.h Pages: 1 -->
<svg width="4292pt" height="218pt"
 viewBox="0.00 0.00 4291.50 218.00" xmlns="http://www.w3.org/2000/svg" xmlns:xlink="http://www.w3.org/1999/xlink">
<g id="graph0" class="graph" transform="scale(1 1) rotate(0) translate(4 214)">
<title>Direction.h</title>
<!-- Node16 -->
<g id="node1" class="node">
<title>Node16</title>
<polygon fill="#bfbfbf" stroke="#000000" points="1653.5,-190.5 1653.5,-209.5 1723.5,-209.5 1723.5,-190.5 1653.5,-190.5"/>
<text text-anchor="middle" x="1688.5" y="-197.5" font-family="FreeSans.ttf" font-size="10.00" fill="#000000">Direction.h</text>
</g>
<!-- Node17 -->
<g id="node2" class="node">
<title>Node17</title>
<g id="a_node2"><a xlink:href="Axis_8h.html" target="_top" xlink:title="Axis.h">
<polygon fill="none" stroke="#000000" points="645,-134.5 645,-153.5 692,-153.5 692,-134.5 645,-134.5"/>
<text text-anchor="middle" x="668.5" y="-141.5" font-family="FreeSans.ttf" font-size="10.00" fill="#000000">Axis.h</text>
</a>
</g>
</g>
<!-- Node16&#45;&gt;Node17 -->
<g id="edge1" class="edge">
<title>Node16&#45;&gt;Node17</title>
<path fill="none" stroke="#191970" d="M1643.3882,-197.5233C1466.6372,-187.8193 824.4815,-152.5637 692.3652,-145.3102"/>
<polygon fill="#191970" stroke="#191970" points="1643.2124,-201.0188 1653.3893,-198.0724 1643.5962,-194.0293 1643.2124,-201.0188"/>
</g>
<!-- Node19 -->
<g id="node4" class="node">
<title>Node19</title>
<g id="a_node4"><a xlink:href="Rotation_8cpp.html" target="_top" xlink:title="Rotation.cpp">
<polygon fill="none" stroke="#000000" points="0,-73 0,-92 77,-92 77,-73 0,-73"/>
<text text-anchor="middle" x="38.5" y="-80" font-family="FreeSans.ttf" font-size="10.00" fill="#000000">Rotation.cpp</text>
</a>
</g>
</g>
<!-- Node16&#45;&gt;Node19 -->
<g id="edge23" class="edge">
<title>Node16&#45;&gt;Node19</title>
<path fill="none" stroke="#191970" d="M1643.1516,-199.0468C1448.5612,-194.8455 683.3096,-177.1563 443.5,-154 283.6367,-138.5634 242.7309,-135.2354 86.5,-98 79.6001,-96.3555 72.2611,-94.1999 65.4516,-92.0213"/>
<polygon fill="#191970" stroke="#191970" points="1643.2331,-202.5493 1653.306,-199.265 1643.3835,-195.5509 1643.2331,-202.5493"/>
</g>
<!-- Node21 -->
<g id="node6" class="node">
<title>Node21</title>
<g id="a_node6"><a xlink:href="Transform_8cpp.html" target="_top" xlink:title="Transform.cpp">
<polygon fill="none" stroke="#000000" points="95.5,-73 95.5,-92 181.5,-92 181.5,-73 95.5,-73"/>
<text text-anchor="middle" x="138.5" y="-80" font-family="FreeSans.ttf" font-size="10.00" fill="#000000">Transform.cpp</text>
</a>
</g>
</g>
<!-- Node16&#45;&gt;Node21 -->
<g id="edge24" class="edge">
<title>Node16&#45;&gt;Node21</title>
<path fill="none" stroke="#191970" d="M1643.0606,-199.4673C1496.7024,-197.4411 1024.4857,-188.4831 635.5,-154 448.7946,-137.4488 402.439,-128.5023 217.5,-98 205.916,-96.0894 193.4284,-93.7639 181.8774,-91.5013"/>
<polygon fill="#191970" stroke="#191970" points="1643.3837,-202.9719 1653.4298,-199.6067 1643.4778,-195.9725 1643.3837,-202.9719"/>
</g>
<!-- Node24 -->
<g id="node9" class="node">
<title>Node24</title>
<g id="a_node9"><a xlink:href="InverseKinematics_8cpp.html" target="_top" xlink:title="InverseKinematics.cpp">
<polygon fill="none" stroke="#000000" points="1103.5,-6 1103.5,-25 1231.5,-25 1231.5,-6 1103.5,-6"/>
<text text-anchor="middle" x="1167.5" y="-13" font-family="FreeSans.ttf" font-size="10.00" fill="#000000">InverseKinematics.cpp</text>
</a>
</g>
</g>
<!-- Node16&#45;&gt;Node24 -->
<g id="edge48" class="edge">
<title>Node16&#45;&gt;Node24</title>
<path fill="none" stroke="#191970" d="M1643.2956,-197.8996C1546.9785,-192.991 1324.5315,-179.2283 1253.5,-154 1210.5191,-138.7344 1189.2391,-138.0974 1167.5,-98 1154.7344,-74.454 1160.6185,-41.2865 1164.7178,-25.1177"/>
<polygon fill="#191970" stroke="#191970" points="1643.1459,-201.3964 1653.3084,-198.4011 1643.496,-194.4052 1643.1459,-201.3964"/>
</g>
<!-- Node42 -->
<g id="node18" class="node">
<title>Node42</title>
<g id="a_node18"><a xlink:href="Direction_8cpp.html" target="_top" xlink:title="Direction.cpp">
<polygon fill="none" stroke="#000000" points="1452,-134.5 1452,-153.5 1533,-153.5 1533,-134.5 1452,-134.5"/>
<text text-anchor="middle" x="1492.5" y="-141.5" font-family="FreeSans.ttf" font-size="10.00" fill="#000000">Direction.cpp</text>
</a>
</g>
</g>
<!-- Node16&#45;&gt;Node42 -->
<g id="edge22" class="edge">
<title>Node16&#45;&gt;Node42</title>
<path fill="none" stroke="#191970" d="M1645.0587,-187.5882C1609.0484,-177.2996 1558.6132,-162.8895 1525.7539,-153.5011"/>
<polygon fill="#191970" stroke="#191970" points="1644.2296,-190.9913 1654.8064,-190.3733 1646.1527,-184.2606 1644.2296,-190.9913"/>
</g>
<!-- Node43 -->
<g id="node19" class="node">
<title>Node43</title>
<g id="a_node19"><a xlink:href="AttitudeMahonyFilter_8h.html" target="_top" xlink:title="AttitudeMahonyFilter.h">
<polygon fill="none" stroke="#000000" points="1551.5,-134.5 1551.5,-153.5 1677.5,-153.5 1677.5,-134.5 1551.5,-134.5"/>
<text text-anchor="middle" x="1614.5" y="-141.5" font-family="FreeSans.ttf" font-size="10.00" fill="#000000">AttitudeMahonyFilter.h</text>
</a>
</g>
</g>
<!-- Node16&#45;&gt;Node43 -->
<g id="edge25" class="edge">
<title>Node16&#45;&gt;Node43</title>
<path fill="none" stroke="#191970" d="M1667.6343,-184.2097C1654.6375,-174.3743 1638.3378,-162.0394 1627.2421,-153.6427"/>
<polygon fill="#191970" stroke="#191970" points="1665.524,-187.002 1675.6102,-190.2455 1669.7482,-181.4201 1665.524,-187.002"/>
</g>
<!-- Node45 -->
<g id="node21" class="node">
<title>Node45</title>
<g id="a_node21"><a xlink:href="AttitudeQuaternionEKF_8h.html" target="_top" xlink:title="AttitudeQuaternionEKF.h">
<polygon fill="none" stroke="#000000" points="1696,-134.5 1696,-153.5 1831,-153.5 1831,-134.5 1696,-134.5"/>
<text text-anchor="middle" x="1763.5" y="-141.5" font-family="FreeSans.ttf" font-size="10.00" fill="#000000">AttitudeQuaternionEKF.h</text>
</a>
</g>
</g>
<!-- Node16&#45;&gt;Node45 -->
<g id="edge27" class="edge">
<title>Node16&#45;&gt;Node45</title>
<path fill="none" stroke="#191970" d="M1709.6477,-184.2097C1722.8201,-174.3743 1739.34,-162.0394 1750.5857,-153.6427"/>
<polygon fill="#191970" stroke="#191970" points="1707.4828,-181.4581 1701.564,-190.2455 1711.6709,-187.0671 1707.4828,-181.4581"/>
</g>
<!-- Node47 -->
<g id="node23" class="node">
<title>Node47</title>
<g id="a_node23"><a xlink:href="BerdyHelper_8h.html" target="_top" xlink:title="BerdyHelper.h">
<polygon fill="none" stroke="#000000" points="2616.5,-134.5 2616.5,-153.5 2702.5,-153.5 2702.5,-134.5 2616.5,-134.5"/>
<text text-anchor="middle" x="2659.5" y="-141.5" font-family="FreeSans.ttf" font-size="10.00" fill="#000000">BerdyHelper.h</text>
</a>
</g>
</g>
<!-- Node16&#45;&gt;Node47 -->
<g id="edge29" class="edge">
<title>Node16&#45;&gt;Node47</title>
<path fill="none" stroke="#191970" d="M1733.8299,-197.3857C1897.4593,-187.9488 2456.4078,-155.7128 2616.3957,-146.4859"/>
<polygon fill="#191970" stroke="#191970" points="1733.4139,-193.9038 1723.632,-197.9738 1733.817,-200.8922 1733.4139,-193.9038"/>
</g>
<!-- Node50 -->
<g id="node26" class="node">
<title>Node50</title>
<g id="a_node26"><a xlink:href="ExternalWrenchesEstimation_8h.html" target="_top" xlink:title="ExternalWrenchesEstimation.h">
<polygon fill="none" stroke="#000000" points="2135.5,-134.5 2135.5,-153.5 2301.5,-153.5 2301.5,-134.5 2135.5,-134.5"/>
<text text-anchor="middle" x="2218.5" y="-141.5" font-family="FreeSans.ttf" font-size="10.00" fill="#000000">ExternalWrenchesEstimation.h</text>
</a>
</g>
</g>
<!-- Node16&#45;&gt;Node50 -->
<g id="edge32" class="edge">
<title>Node16&#45;&gt;Node50</title>
<path fill="none" stroke="#191970" d="M1733.7234,-195.2217C1822.6892,-185.8215 2021.6388,-164.8004 2135.0777,-152.8144"/>
<polygon fill="#191970" stroke="#191970" points="1733.2621,-191.7508 1723.6852,-196.2823 1733.9977,-198.7121 1733.2621,-191.7508"/>
</g>
<!-- Node59 -->
<g id="node32" class="node">
<title>Node59</title>
<g id="a_node32"><a xlink:href="InverseKinematics_8h.html" target="_top" xlink:title="InverseKinematics.h">
<polygon fill="none" stroke="#000000" points="1262.5,-134.5 1262.5,-153.5 1378.5,-153.5 1378.5,-134.5 1262.5,-134.5"/>
<text text-anchor="middle" x="1320.5" y="-141.5" font-family="FreeSans.ttf" font-size="10.00" fill="#000000">InverseKinematics.h</text>
</a>
</g>
</g>
<!-- Node16&#45;&gt;Node59 -->
<g id="edge40" class="edge">
<title>Node16&#45;&gt;Node59</title>
<path fill="none" stroke="#191970" d="M1643.026,-193.08C1576.3574,-182.9348 1452.0772,-164.0226 1378.7869,-152.8697"/>
<polygon fill="#191970" stroke="#191970" points="1642.8018,-196.5861 1653.2146,-194.6305 1643.855,-189.6658 1642.8018,-196.5861"/>
</g>
<!-- Node64 -->
<g id="node35" class="node">
<title>Node64</title>
<g id="a_node35"><a xlink:href="ObserverThread_8h.html" target="_top" xlink:title="ObserverThread.h">
<polygon fill="none" stroke="#000000" points="2898.5,-134.5 2898.5,-153.5 3002.5,-153.5 3002.5,-134.5 2898.5,-134.5"/>
<text text-anchor="middle" x="2950.5" y="-141.5" font-family="FreeSans.ttf" font-size="10.00" fill="#000000">ObserverThread.h</text>
</a>
</g>
</g>
<!-- Node16&#45;&gt;Node64 -->
<g id="edge49" class="edge">
<title>Node16&#45;&gt;Node64</title>
<path fill="none" stroke="#191970" d="M1733.911,-198.676C1886.511,-194.1133 2394.8454,-177.9941 2814.5,-154 2842.1544,-152.4188 2872.9383,-150.1942 2898.2148,-148.2445"/>
<polygon fill="#191970" stroke="#191970" points="1733.4361,-195.1885 1723.5446,-198.9845 1733.6444,-202.1854 1733.4361,-195.1885"/>
</g>
<!-- Node65 -->
<g id="node36" class="node">
<title>Node65</title>
<g id="a_node36"><a xlink:href="ObserverThread_8cpp.html" target="_top" xlink:title="ObserverThread.cpp">
<polygon fill="none" stroke="#000000" points="2893,-73 2893,-92 3008,-92 3008,-73 2893,-73"/>
<text text-anchor="middle" x="2950.5" y="-80" font-family="FreeSans.ttf" font-size="10.00" fill="#000000">ObserverThread.cpp</text>
</a>
</g>
</g>
<!-- Node16&#45;&gt;Node65 -->
<g id="edge52" class="edge">
<title>Node16&#45;&gt;Node65</title>
<path fill="none" stroke="#191970" d="M1733.7334,-199.4419C1905.7715,-197.0903 2519.3128,-186.5575 2711.5,-154 2791.7791,-140.4003 2883.0426,-108.2147 2925.8621,-92.0757"/>
<polygon fill="#191970" stroke="#191970" points="1733.4681,-195.945 1723.516,-199.579 1733.5621,-202.9444 1733.4681,-195.945"/>
</g>
<!-- Node69 -->
<g id="node38" class="node">
<title>Node69</title>
<g id="a_node38"><a xlink:href="Visualizer_8h.html" target="_top" xlink:title="Visualizer.h">
<polygon fill="none" stroke="#000000" points="3456,-134.5 3456,-153.5 3529,-153.5 3529,-134.5 3456,-134.5"/>
<text text-anchor="middle" x="3492.5" y="-141.5" font-family="FreeSans.ttf" font-size="10.00" fill="#000000">Visualizer.h</text>
</a>
</g>
</g>
<!-- Node16&#45;&gt;Node69 -->
<g id="edge53" class="edge">
<title>Node16&#45;&gt;Node69</title>
<path fill="none" stroke="#191970" d="M1734.0586,-198.5858C1988.1075,-190.6995 3226.5868,-152.2545 3455.9293,-145.1352"/>
<polygon fill="#191970" stroke="#191970" points="1733.6133,-195.0978 1723.7267,-198.9065 1733.8305,-202.0944 1733.6133,-195.0978"/>
</g>
<!-- Node88 -->
<g id="node50" class="node">
<title>Node88</title>
<g id="a_node50"><a xlink:href="YARPConversions_8cpp.html" target="_top" xlink:title="YARPConversions.cpp">
<polygon fill="none" stroke="#000000" points="3547.5,-134.5 3547.5,-153.5 3669.5,-153.5 3669.5,-134.5 3547.5,-134.5"/>
<text text-anchor="middle" x="3608.5" y="-141.5" font-family="FreeSans.ttf" font-size="10.00" fill="#000000">YARPConversions.cpp</text>
</a>
</g>
</g>
<!-- Node16&#45;&gt;Node88 -->
<g id="edge69" class="edge">
<title>Node16&#45;&gt;Node88</title>
<path fill="none" stroke="#191970" d="M1733.762,-199.5815C1981.0665,-197.1874 3171.1427,-184.256 3537.5,-154 3540.7255,-153.7336 3544.0282,-153.4182 3547.3591,-153.0664"/>
<polygon fill="#191970" stroke="#191970" points="1733.6601,-196.0822 1723.6942,-199.6782 1733.7274,-203.0819 1733.6601,-196.0822"/>
</g>
<!-- Node18 -->
<g id="node3" class="node">
<title>Node18</title>
<g id="a_node3"><a xlink:href="Axis_8cpp.html" target="_top" xlink:title="Axis.cpp">
<polygon fill="none" stroke="#000000" points="493.5,-73 493.5,-92 551.5,-92 551.5,-73 493.5,-73"/>
<text text-anchor="middle" x="522.5" y="-80" font-family="FreeSans.ttf" font-size="10.00" fill="#000000">Axis.cpp</text>
</a>
</g>
</g>
<!-- Node17&#45;&gt;Node18 -->
<g id="edge2" class="edge">
<title>Node17&#45;&gt;Node18</title>
<path fill="none" stroke="#191970" d="M636.4406,-130.4955C608.8133,-118.858 569.6239,-102.3501 545.1523,-92.0419"/>
<polygon fill="#191970" stroke="#191970" points="635.113,-133.7341 645.6875,-134.3906 637.8304,-127.2831 635.113,-133.7341"/>
</g>
<!-- Node17&#45;&gt;Node19 -->
<g id="edge3" class="edge">
<title>Node17&#45;&gt;Node19</title>
<path fill="none" stroke="#191970" d="M634.7253,-142.3686C527.0457,-137.0042 192.7155,-119.046 86.5,-98 79.1985,-96.5532 71.4539,-94.3584 64.3654,-92.0718"/>
<polygon fill="#191970" stroke="#191970" points="634.8385,-145.8784 644.9991,-142.8763 635.1841,-138.8869 634.8385,-145.8784"/>
</g>
<!-- Node20 -->
<g id="node5" class="node">
<title>Node20</title>
<g id="a_node5"><a xlink:href="TestUtils_8cpp.html" target="_top" xlink:title="TestUtils.cpp">
<polygon fill="none" stroke="#000000" points="681,-73 681,-92 760,-92 760,-73 681,-73"/>
<text text-anchor="middle" x="720.5" y="-80" font-family="FreeSans.ttf" font-size="10.00" fill="#000000">TestUtils.cpp</text>
</a>
</g>
</g>
<!-- Node17&#45;&gt;Node20 -->
<g id="edge4" class="edge">
<title>Node17&#45;&gt;Node20</title>
<path fill="none" stroke="#191970" d="M683.2338,-126.5744C692.6384,-115.4517 704.4811,-101.4454 712.2604,-92.2449"/>
<polygon fill="#191970" stroke="#191970" points="680.409,-124.4945 676.625,-134.3906 685.7544,-129.0142 680.409,-124.4945"/>
</g>
<!-- Node17&#45;&gt;Node21 -->
<g id="edge5" class="edge">
<title>Node17&#45;&gt;Node21</title>
<path fill="none" stroke="#191970" d="M634.466,-142.6589C556.3246,-139.1521 358.2682,-127.8254 195.5,-98 187.1276,-96.4659 178.1925,-94.2972 169.9396,-92.0667"/>
<polygon fill="#191970" stroke="#191970" points="634.5374,-146.1652 644.68,-143.1029 634.8415,-139.1718 634.5374,-146.1652"/>
</g>
<!-- Node22 -->
<g id="node7" class="node">
<title>Node22</title>
<g id="a_node7"><a xlink:href="BoundingBoxHelpers_8cpp.html" target="_top" xlink:title="BoundingBoxHelpers.cpp">
<polygon fill="none" stroke="#000000" points="778,-73 778,-92 917,-92 917,-73 778,-73"/>
<text text-anchor="middle" x="847.5" y="-80" font-family="FreeSans.ttf" font-size="10.00" fill="#000000">BoundingBoxHelpers.cpp</text>
</a>
</g>
</g>
<!-- Node17&#45;&gt;Node22 -->
<g id="edge6" class="edge">
<title>Node17&#45;&gt;Node22</title>
<path fill="none" stroke="#191970" d="M701.7706,-132.569C735.7752,-120.8859 787.9819,-102.949 819.8081,-92.0143"/>
<polygon fill="#191970" stroke="#191970" points="700.5899,-129.2738 692.2698,-135.8333 702.8645,-135.894 700.5899,-129.2738"/>
</g>
<!-- Node23 -->
<g id="node8" class="node">
<title>Node23</title>
<g id="a_node8"><a xlink:href="ConvexHullHelpers_8cpp.html" target="_top" xlink:title="ConvexHullHelpers.cpp">
<polygon fill="none" stroke="#000000" points="238,-73 238,-92 369,-92 369,-73 238,-73"/>
<text text-anchor="middle" x="303.5" y="-80" font-family="FreeSans.ttf" font-size="10.00" fill="#000000">ConvexHullHelpers.cpp</text>
</a>
</g>
</g>
<!-- Node17&#45;&gt;Node23 -->
<g id="edge7" class="edge">
<title>Node17&#45;&gt;Node23</title>
<path fill="none" stroke="#191970" d="M634.675,-139.1559C580.4779,-131.2772 470.882,-114.8636 378.5,-98 368.5593,-96.1854 357.9108,-94.0821 347.8508,-92.0215"/>
<polygon fill="#191970" stroke="#191970" points="634.3559,-142.6461 644.7543,-140.6154 635.3592,-135.7184 634.3559,-142.6461"/>
</g>
<!-- Node17&#45;&gt;Node24 -->
<g id="edge8" class="edge">
<title>Node17&#45;&gt;Node24</title>
<path fill="none" stroke="#191970" d="M702.4489,-142.1034C783.9966,-137.2017 988.8648,-122.7376 1052.5,-98 1096.4716,-80.9064 1139.1733,-43.047 1157.7759,-25.1856"/>
<polygon fill="#191970" stroke="#191970" points="702.0112,-138.623 692.2346,-142.7058 702.4234,-145.6109 702.0112,-138.623"/>
</g>
<!-- Node25 -->
<g id="node10" class="node">
<title>Node25</title>
<g id="a_node10"><a xlink:href="InverseKinematicsData_8cpp.html" target="_top" xlink:title="InverseKinematicsData.cpp">
<polygon fill="none" stroke="#000000" points="1288,-6 1288,-25 1439,-25 1439,-6 1288,-6"/>
<text text-anchor="middle" x="1363.5" y="-13" font-family="FreeSans.ttf" font-size="10.00" fill="#000000">InverseKinematicsData.cpp</text>
</a>
</g>
</g>
<!-- Node17&#45;&gt;Node25 -->
<g id="edge9" class="edge">
<title>Node17&#45;&gt;Node25</title>
<path fill="none" stroke="#191970" d="M702.4192,-142.8072C836.0213,-137.9669 1319.8286,-119.0429 1344.5,-98 1365.859,-79.7824 1365.9228,-42.8247 1364.5783,-25.2317"/>
<polygon fill="#191970" stroke="#191970" points="702.2192,-139.3121 692.3515,-143.1693 702.4708,-146.3076 702.2192,-139.3121"/>
</g>
<!-- Node26 -->
<g id="node11" class="node">
<title>Node26</title>
<g id="a_node11"><a xlink:href="PrismaticJoint_8h.html" target="_top" xlink:title="PrismaticJoint.h">
<polygon fill="none" stroke="#ff0000" points="570,-73 570,-92 663,-92 663,-73 570,-73"/>
<text text-anchor="middle" x="616.5" y="-80" font-family="FreeSans.ttf" font-size="10.00" fill="#000000">PrismaticJoint.h</text>
</a>
</g>
</g>
<!-- Node17&#45;&gt;Node26 -->
<g id="edge10" class="edge">
<title>Node17&#45;&gt;Node26</title>
<path fill="none" stroke="#191970" d="M653.7662,-126.5744C644.3616,-115.4517 632.5189,-101.4454 624.7396,-92.2449"/>
<polygon fill="#191970" stroke="#191970" points="651.2456,-129.0142 660.375,-134.3906 656.591,-124.4945 651.2456,-129.0142"/>
</g>
<!-- Node28 -->
<g id="node13" class="node">
<title>Node28</title>
<g id="a_node13"><a xlink:href="PrismaticJoint_8cpp.html" target="_top" xlink:title="PrismaticJoint.cpp">
<polygon fill="none" stroke="#000000" points="301.5,-6 301.5,-25 405.5,-25 405.5,-6 301.5,-6"/>
<text text-anchor="middle" x="353.5" y="-13" font-family="FreeSans.ttf" font-size="10.00" fill="#000000">PrismaticJoint.cpp</text>
</a>
</g>
</g>
<!-- Node17&#45;&gt;Node28 -->
<g id="edge18" class="edge">
<title>Node17&#45;&gt;Node28</title>
<path fill="none" stroke="#191970" d="M634.5288,-141.6851C533.6672,-134.6511 242.0938,-113.0891 228.5,-98 198.1301,-64.2895 267.2421,-38.2036 314.3252,-25.0109"/>
<polygon fill="#191970" stroke="#191970" points="634.5538,-145.1951 644.7719,-142.3951 635.0379,-138.2119 634.5538,-145.1951"/>
</g>
<!-- Node32 -->
<g id="node15" class="node">
<title>Node32</title>
<g id="a_node15"><a xlink:href="RevoluteJoint_8h.html" target="_top" xlink:title="RevoluteJoint.h">
<polygon fill="none" stroke="#ff0000" points="935.5,-73 935.5,-92 1025.5,-92 1025.5,-73 935.5,-73"/>
<text text-anchor="middle" x="980.5" y="-80" font-family="FreeSans.ttf" font-size="10.00" fill="#000000">RevoluteJoint.h</text>
</a>
</g>
</g>
<!-- Node17&#45;&gt;Node32 -->
<g id="edge14" class="edge">
<title>Node17&#45;&gt;Node32</title>
<path fill="none" stroke="#191970" d="M702.1376,-139.0524C751.4341,-131.5595 846.0696,-116.2552 925.5,-98 933.0414,-96.2668 941.0932,-94.1508 948.6442,-92.0462"/>
<polygon fill="#191970" stroke="#191970" points="701.4092,-135.6225 692.0424,-140.5737 702.4524,-142.5444 701.4092,-135.6225"/>
</g>
<!-- Node36 -->
<g id="node16" class="node">
<title>Node36</title>
<g id="a_node16"><a xlink:href="RevoluteJoint_8cpp.html" target="_top" xlink:title="RevoluteJoint.cpp">
<polygon fill="none" stroke="#000000" points="957,-6 957,-25 1058,-25 1058,-6 957,-6"/>
<text text-anchor="middle" x="1007.5" y="-13" font-family="FreeSans.ttf" font-size="10.00" fill="#000000">RevoluteJoint.cpp</text>
</a>
</g>
</g>
<!-- Node17&#45;&gt;Node36 -->
<g id="edge19" class="edge">
<title>Node17&#45;&gt;Node36</title>
<path fill="none" stroke="#191970" d="M702.2437,-142.2622C788.6546,-137.4689 1012.6651,-122.751 1034.5,-98 1053.343,-76.6405 1029.6466,-41.8522 1015.9522,-25.1058"/>
<polygon fill="#191970" stroke="#191970" points="701.9691,-138.7719 692.1741,-142.8102 702.3496,-145.7615 701.9691,-138.7719"/>
</g>
<!-- Node37 -->
<g id="node17" class="node">
<title>Node37</title>
<g id="a_node17"><a xlink:href="JointElement_8h.html" target="_top" xlink:title="JointElement.h">
<polygon fill="none" stroke="#ff0000" points="387.5,-73 387.5,-92 475.5,-92 475.5,-73 387.5,-73"/>
<text text-anchor="middle" x="431.5" y="-80" font-family="FreeSans.ttf" font-size="10.00" fill="#000000">JointElement.h</text>
</a>
</g>
</g>
<!-- Node17&#45;&gt;Node37 -->
<g id="edge20" class="edge">
<title>Node17&#45;&gt;Node37</title>
<path fill="none" stroke="#191970" d="M635.1494,-136.0821C598.2085,-127.2142 536.9338,-112.2155 484.5,-98 477.6529,-96.1437 470.3358,-94.0654 463.3925,-92.0486"/>
<polygon fill="#191970" stroke="#191970" points="634.3558,-139.4909 644.8958,-138.415 635.9853,-132.6832 634.3558,-139.4909"/>
</g>
<!-- Node27 -->
<g id="node12" class="node">
<title>Node27</title>
<g id="a_node12"><a xlink:href="ModelTransformers_8cpp.html" target="_top" xlink:title="ModelTransformers.cpp">
<polygon fill="none" stroke="#000000" points="760.5,-6 760.5,-25 890.5,-25 890.5,-6 760.5,-6"/>
<text text-anchor="middle" x="825.5" y="-13" font-family="FreeSans.ttf" font-size="10.00" fill="#000000">ModelTransformers.cpp</text>
</a>
</g>
</g>
<!-- Node26&#45;&gt;Node27 -->
<g id="edge11" class="edge">
<title>Node26&#45;&gt;Node27</title>
<path fill="none" stroke="#191970" d="M656.0194,-69.8311C696.6246,-56.8141 758.9323,-36.8399 795.6109,-25.0817"/>
<polygon fill="#191970" stroke="#191970" points="654.8988,-66.5148 646.4446,-72.9005 657.0357,-73.1807 654.8988,-66.5148"/>
</g>
<!-- Node26&#45;&gt;Node28 -->
<g id="edge12" class="edge">
<title>Node26&#45;&gt;Node28</title>
<path fill="none" stroke="#191970" d="M572.8326,-70.2945C568.6682,-69.1663 564.5063,-68.0526 560.5,-67 502.4759,-51.7547 434.995,-35.181 393.262,-25.0651"/>
<polygon fill="#191970" stroke="#191970" points="571.9134,-73.6716 582.4824,-72.9311 573.7584,-66.9191 571.9134,-73.6716"/>
</g>
<!-- Node29 -->
<g id="node14" class="node">
<title>Node29</title>
<g id="a_node14"><a xlink:href="JointElement_8cpp.html" target="_top" xlink:title="JointElement.cpp">
<polygon fill="none" stroke="#000000" points="567,-6 567,-25 666,-25 666,-6 567,-6"/>
<text text-anchor="middle" x="616.5" y="-13" font-family="FreeSans.ttf" font-size="10.00" fill="#000000">JointElement.cpp</text>
</a>
</g>
</g>
<!-- Node26&#45;&gt;Node29 -->
<g id="edge13" class="edge">
<title>Node26&#45;&gt;Node29</title>
<path fill="none" stroke="#191970" d="M616.5,-62.6079C616.5,-50.214 616.5,-34.8263 616.5,-25.0817"/>
<polygon fill="#191970" stroke="#191970" points="613.0001,-62.9005 616.5,-72.9005 620.0001,-62.9006 613.0001,-62.9005"/>
</g>
<!-- Node32&#45;&gt;Node27 -->
<g id="edge15" class="edge">
<title>Node32&#45;&gt;Node27</title>
<path fill="none" stroke="#191970" d="M949.0647,-68.9118C918.9385,-55.8895 874.2358,-36.5664 847.6665,-25.0817"/>
<polygon fill="#191970" stroke="#191970" points="947.7244,-72.1454 958.2923,-72.9005 950.5019,-65.72 947.7244,-72.1454"/>
</g>
<!-- Node32&#45;&gt;Node29 -->
<g id="edge17" class="edge">
<title>Node32&#45;&gt;Node29</title>
<path fill="none" stroke="#191970" d="M939.0814,-70.3056C934.5164,-69.1175 929.9218,-67.9884 925.5,-67 834.7402,-46.7118 727.3595,-30.549 666.0578,-22.0525"/>
<polygon fill="#191970" stroke="#191970" points="938.3826,-73.7422 948.9492,-72.9691 940.2069,-66.9841 938.3826,-73.7422"/>
</g>
<!-- Node32&#45;&gt;Node36 -->
<g id="edge16" class="edge">
<title>Node32&#45;&gt;Node36</title>
<path fill="none" stroke="#191970" d="M988.212,-63.3628C993.2567,-50.8444 999.6316,-35.0252 1003.6387,-25.0817"/>
<polygon fill="#191970" stroke="#191970" points="984.8599,-62.3171 984.3684,-72.9005 991.3526,-64.9336 984.8599,-62.3171"/>
</g>
<!-- Node37&#45;&gt;Node29 -->
<g id="edge21" class="edge">
<title>Node37&#45;&gt;Node29</title>
<path fill="none" stroke="#191970" d="M467.6275,-69.416C503.5871,-56.3928 557.9196,-36.7156 590.0432,-25.0817"/>
<polygon fill="#191970" stroke="#191970" points="466.2165,-66.2044 458.006,-72.9005 468.6002,-72.7861 466.2165,-66.2044"/>
</g>
<!-- Node44 -->
<g id="node20" class="node">
<title>Node44</title>
<g id="a_node20"><a xlink:href="AttitudeMahonyFilter_8cpp.html" target="_top" xlink:title="AttitudeMahonyFilter.cpp">
<polygon fill="none" stroke="#000000" points="1535,-73 1535,-92 1672,-92 1672,-73 1535,-73"/>
<text text-anchor="middle" x="1603.5" y="-80" font-family="FreeSans.ttf" font-size="10.00" fill="#000000">AttitudeMahonyFilter.cpp</text>
</a>
</g>
</g>
<!-- Node43&#45;&gt;Node44 -->
<g id="edge26" class="edge">
<title>Node43&#45;&gt;Node44</title>
<path fill="none" stroke="#191970" d="M1610.9668,-124.2462C1609.054,-113.5519 1606.7757,-100.814 1605.243,-92.2449"/>
<polygon fill="#191970" stroke="#191970" points="1607.5752,-125.1631 1612.7813,-134.3906 1614.4658,-123.9306 1607.5752,-125.1631"/>
</g>
<!-- Node46 -->
<g id="node22" class="node">
<title>Node46</title>
<g id="a_node22"><a xlink:href="AttitudeQuaternionEKF_8cpp.html" target="_top" xlink:title="AttitudeQuaternionEKF.cpp">
<polygon fill="none" stroke="#000000" points="1690.5,-73 1690.5,-92 1836.5,-92 1836.5,-73 1690.5,-73"/>
<text text-anchor="middle" x="1763.5" y="-80" font-family="FreeSans.ttf" font-size="10.00" fill="#000000">AttitudeQuaternionEKF.cpp</text>
</a>
</g>
</g>
<!-- Node45&#45;&gt;Node46 -->
<g id="edge28" class="edge">
<title>Node45&#45;&gt;Node46</title>
<path fill="none" stroke="#191970" d="M1763.5,-124.2462C1763.5,-113.5519 1763.5,-100.814 1763.5,-92.2449"/>
<polygon fill="#191970" stroke="#191970" points="1760.0001,-124.3906 1763.5,-134.3906 1767.0001,-124.3907 1760.0001,-124.3906"/>
</g>
<!-- Node48 -->
<g id="node24" class="node">
<title>Node48</title>
<g id="a_node24"><a xlink:href="BerdyHelper_8cpp.html" target="_top" xlink:title="BerdyHelper.cpp">
<polygon fill="none" stroke="#000000" points="2611,-73 2611,-92 2708,-92 2708,-73 2611,-73"/>
<text text-anchor="middle" x="2659.5" y="-80" font-family="FreeSans.ttf" font-size="10.00" fill="#000000">BerdyHelper.cpp</text>
</a>
</g>
</g>
<!-- Node47&#45;&gt;Node48 -->
<g id="edge30" class="edge">
<title>Node47&#45;&gt;Node48</title>
<path fill="none" stroke="#191970" d="M2659.5,-124.2462C2659.5,-113.5519 2659.5,-100.814 2659.5,-92.2449"/>
<polygon fill="#191970" stroke="#191970" points="2656.0001,-124.3906 2659.5,-134.3906 2663.0001,-124.3907 2656.0001,-124.3906"/>
</g>
<!-- Node49 -->
<g id="node25" class="node">
<title>Node49</title>
<g id="a_node25"><a xlink:href="BerdySparseMAPSolver_8cpp.html" target="_top" xlink:title="BerdySparseMAPSolver.cpp">
<polygon fill="none" stroke="#000000" points="2726,-73 2726,-92 2875,-92 2875,-73 2726,-73"/>
<text text-anchor="middle" x="2800.5" y="-80" font-family="FreeSans.ttf" font-size="10.00" fill="#000000">BerdySparseMAPSolver.cpp</text>
</a>
</g>
</g>
<!-- Node47&#45;&gt;Node49 -->
<g id="edge31" class="edge">
<title>Node47&#45;&gt;Node49</title>
<path fill="none" stroke="#191970" d="M2690.8116,-130.3428C2717.4729,-118.7139 2755.0931,-102.3051 2778.6235,-92.0419"/>
<polygon fill="#191970" stroke="#191970" points="2689.298,-127.1845 2681.5313,-134.3906 2692.0966,-133.6007 2689.298,-127.1845"/>
</g>
<!-- Node50&#45;&gt;Node48 -->
<g id="edge36" class="edge">
<title>Node50&#45;&gt;Node48</title>
<path fill="none" stroke="#191970" d="M2311.8524,-136.5117C2389.7579,-129.3738 2503.4775,-116.8858 2601.5,-98 2609.8924,-96.3831 2618.8592,-94.2117 2627.1714,-92.0069"/>
<polygon fill="#191970" stroke="#191970" points="2311.2243,-133.0542 2301.5803,-137.4409 2311.8549,-140.0257 2311.2243,-133.0542"/>
</g>
<!-- Node51 -->
<g id="node27" class="node">
<title>Node51</title>
<g id="a_node27"><a xlink:href="ExtWrenchesAndJointTorquesEstimator_8h.html" target="_top" xlink:title="ExtWrenchesAndJointTorques\lEstimator.h">
<polygon fill="none" stroke="#000000" points="2246.5,-67.5 2246.5,-97.5 2404.5,-97.5 2404.5,-67.5 2246.5,-67.5"/>
<text text-anchor="start" x="2254.5" y="-85.5" font-family="FreeSans.ttf" font-size="10.00" fill="#000000">ExtWrenchesAndJointTorques</text>
<text text-anchor="middle" x="2325.5" y="-74.5" font-family="FreeSans.ttf" font-size="10.00" fill="#000000">Estimator.h</text>
</a>
</g>
</g>
<!-- Node50&#45;&gt;Node51 -->
<g id="edge33" class="edge">
<title>Node50&#45;&gt;Node51</title>
<path fill="none" stroke="#191970" d="M2243.9169,-129.3912C2260.6339,-119.7829 2282.4564,-107.24 2299.3249,-97.5446"/>
<polygon fill="#191970" stroke="#191970" points="2242.1446,-126.3729 2235.2188,-134.3906 2245.6328,-132.4419 2242.1446,-126.3729"/>
</g>
<!-- Node52 -->
<g id="node28" class="node">
<title>Node52</title>
<g id="a_node28"><a xlink:href="ExtWrenchesAndJointTorquesEstimator_8cpp.html" target="_top" xlink:title="ExtWrenchesAndJointTorques\lEstimator.cpp">
<polygon fill="none" stroke="#000000" points="2192.5,-.5 2192.5,-30.5 2350.5,-30.5 2350.5,-.5 2192.5,-.5"/>
<text text-anchor="start" x="2200.5" y="-18.5" font-family="FreeSans.ttf" font-size="10.00" fill="#000000">ExtWrenchesAndJointTorques</text>
<text text-anchor="middle" x="2271.5" y="-7.5" font-family="FreeSans.ttf" font-size="10.00" fill="#000000">Estimator.cpp</text>
</a>
</g>
</g>
<!-- Node50&#45;&gt;Node52 -->
<g id="edge38" class="edge">
<title>Node50&#45;&gt;Node52</title>
<path fill="none" stroke="#191970" d="M2221.5167,-123.9153C2224.3596,-108.0094 2229.4118,-85.472 2237.5,-67 2243.1724,-54.0453 2252.0347,-40.7579 2259.2891,-30.9251"/>
<polygon fill="#191970" stroke="#191970" points="2217.9991,-123.7359 2219.8254,-134.1722 2224.9058,-124.8749 2217.9991,-123.7359"/>
</g>
<!-- Node53 -->
<g id="node29" class="node">
<title>Node53</title>
<g id="a_node29"><a xlink:href="GravityCompensationHelpers_8h.html" target="_top" xlink:title="GravityCompensationHelpers.h">
<polygon fill="none" stroke="#ff0000" points="2422.5,-73 2422.5,-92 2592.5,-92 2592.5,-73 2422.5,-73"/>
<text text-anchor="middle" x="2507.5" y="-80" font-family="FreeSans.ttf" font-size="10.00" fill="#000000">GravityCompensationHelpers.h</text>
</a>
</g>
</g>
<!-- Node50&#45;&gt;Node53 -->
<g id="edge35" class="edge">
<title>Node50&#45;&gt;Node53</title>
<path fill="none" stroke="#191970" d="M2273.2317,-132.3529C2328.068,-120.6836 2411.4662,-102.9363 2462.5556,-92.0643"/>
<polygon fill="#191970" stroke="#191970" points="2272.3916,-128.9533 2263.3392,-134.4581 2273.8487,-135.7999 2272.3916,-128.9533"/>
</g>
<!-- Node55 -->
<g id="node30" class="node">
<title>Node55</title>
<g id="a_node30"><a xlink:href="ExternalWrenchesEstimation_8cpp.html" target="_top" xlink:title="ExternalWrenchesEstimation.cpp">
<polygon fill="none" stroke="#000000" points="1855,-73 1855,-92 2032,-92 2032,-73 1855,-73"/>
<text text-anchor="middle" x="1943.5" y="-80" font-family="FreeSans.ttf" font-size="10.00" fill="#000000">ExternalWrenchesEstimation.cpp</text>
</a>
</g>
</g>
<!-- Node50&#45;&gt;Node55 -->
<g id="edge37" class="edge">
<title>Node50&#45;&gt;Node55</title>
<path fill="none" stroke="#191970" d="M2165.7687,-132.2074C2113.5817,-120.5365 2034.68,-102.8912 1986.2671,-92.0643"/>
<polygon fill="#191970" stroke="#191970" points="2165.3102,-135.6912 2175.833,-134.4581 2166.8379,-128.8599 2165.3102,-135.6912"/>
</g>
<!-- Node56 -->
<g id="node31" class="node">
<title>Node56</title>
<g id="a_node31"><a xlink:href="skinDynLibConversions_8h.html" target="_top" xlink:title="skinDynLibConversions.h">
<polygon fill="none" stroke="#ff0000" points="2050.5,-73 2050.5,-92 2190.5,-92 2190.5,-73 2050.5,-73"/>
<text text-anchor="middle" x="2120.5" y="-80" font-family="FreeSans.ttf" font-size="10.00" fill="#000000">skinDynLibConversions.h</text>
</a>
</g>
</g>
<!-- Node50&#45;&gt;Node56 -->
<g id="edge39" class="edge">
<title>Node50&#45;&gt;Node56</title>
<path fill="none" stroke="#191970" d="M2194.5084,-128.944C2176.1578,-117.4281 2151.4138,-101.9 2135.705,-92.0419"/>
<polygon fill="#191970" stroke="#191970" points="2192.8568,-132.0397 2203.1875,-134.3906 2196.5777,-126.1105 2192.8568,-132.0397"/>
</g>
<!-- Node51&#45;&gt;Node52 -->
<g id="edge34" class="edge">
<title>Node51&#45;&gt;Node52</title>
<path fill="none" stroke="#191970" d="M2306.8425,-59.3509C2299.1836,-49.8482 2290.5315,-39.1132 2283.7049,-30.6432"/>
<polygon fill="#191970" stroke="#191970" points="2304.2462,-61.707 2313.2466,-67.2967 2309.6964,-57.3143 2304.2462,-61.707"/>
</g>
<!-- Node59&#45;&gt;Node24 -->
<g id="edge47" class="edge">
<title>Node59&#45;&gt;Node24</title>
<path fill="none" stroke="#191970" d="M1269.0412,-131.8517C1236.2726,-123.1097 1197.9127,-110.67 1186.5,-98 1167.9082,-77.3599 1166.4122,-42.2288 1166.9027,-25.2537"/>
<polygon fill="#191970" stroke="#191970" points="1268.436,-135.3108 1278.9952,-134.4422 1270.199,-128.5364 1268.436,-135.3108"/>
</g>
<!-- Node60 -->
<g id="node33" class="node">
<title>Node60</title>
<g id="a_node33"><a xlink:href="InverseKinematicsData_8h.html" target="_top" xlink:title="InverseKinematicsData.h">
<polygon fill="none" stroke="#ff0000" points="1195.5,-73 1195.5,-92 1335.5,-92 1335.5,-73 1195.5,-73"/>
<text text-anchor="middle" x="1265.5" y="-80" font-family="FreeSans.ttf" font-size="10.00" fill="#000000">InverseKinematicsData.h</text>
</a>
</g>
</g>
<!-- Node59&#45;&gt;Node60 -->
<g id="edge41" class="edge">
<title>Node59&#45;&gt;Node60</title>
<path fill="none" stroke="#191970" d="M1305.208,-126.9007C1295.215,-115.7268 1282.5237,-101.5356 1274.2149,-92.2449"/>
<polygon fill="#191970" stroke="#191970" points="1302.6311,-129.2698 1311.9063,-134.3906 1307.8489,-124.6034 1302.6311,-129.2698"/>
</g>
<!-- Node62 -->
<g id="node34" class="node">
<title>Node62</title>
<g id="a_node34"><a xlink:href="TransformConstraint_8h.html" target="_top" xlink:title="TransformConstraint.h">
<polygon fill="none" stroke="#ff0000" points="1392,-73 1392,-92 1517,-92 1517,-73 1392,-73"/>
<text text-anchor="middle" x="1454.5" y="-80" font-family="FreeSans.ttf" font-size="10.00" fill="#000000">TransformConstraint.h</text>
</a>
</g>
</g>
<!-- Node59&#45;&gt;Node62 -->
<g id="edge44" class="edge">
<title>Node59&#45;&gt;Node62</title>
<path fill="none" stroke="#191970" d="M1350.5911,-130.1895C1375.9082,-118.5701 1411.4454,-102.2601 1433.7095,-92.0419"/>
<polygon fill="#191970" stroke="#191970" points="1349.0661,-127.0384 1341.4375,-134.3906 1351.986,-133.4003 1349.0661,-127.0384"/>
</g>
<!-- Node60&#45;&gt;Node24 -->
<g id="edge42" class="edge">
<title>Node60&#45;&gt;Node24</title>
<path fill="none" stroke="#191970" d="M1243.1009,-67.1864C1224.1517,-54.2312 1197.5864,-36.0693 1181.515,-25.0817"/>
<polygon fill="#191970" stroke="#191970" points="1241.2285,-70.146 1251.459,-72.9005 1245.1792,-64.3674 1241.2285,-70.146"/>
</g>
<!-- Node60&#45;&gt;Node25 -->
<g id="edge43" class="edge">
<title>Node60&#45;&gt;Node25</title>
<path fill="none" stroke="#191970" d="M1287.8991,-67.1864C1306.8483,-54.2312 1333.4136,-36.0693 1349.485,-25.0817"/>
<polygon fill="#191970" stroke="#191970" points="1285.8208,-64.3674 1279.541,-72.9005 1289.7715,-70.146 1285.8208,-64.3674"/>
</g>
<!-- Node62&#45;&gt;Node24 -->
<g id="edge45" class="edge">
<title>Node62&#45;&gt;Node24</title>
<path fill="none" stroke="#191970" d="M1403.6987,-70.6405C1348.1099,-57.6633 1260.076,-37.1118 1208.6392,-25.1039"/>
<polygon fill="#191970" stroke="#191970" points="1403.1508,-74.1066 1413.6847,-72.9717 1404.7422,-67.2899 1403.1508,-74.1066"/>
</g>
<!-- Node62&#45;&gt;Node25 -->
<g id="edge46" class="edge">
<title>Node62&#45;&gt;Node25</title>
<path fill="none" stroke="#191970" d="M1432.9804,-66.6559C1415.4372,-53.7395 1391.2348,-35.9201 1376.5139,-25.0817"/>
<polygon fill="#191970" stroke="#191970" points="1431.334,-69.79 1441.4619,-72.9005 1435.4843,-64.153 1431.334,-69.79"/>
</g>
<!-- Node64&#45;&gt;Node65 -->
<g id="edge50" class="edge">
<title>Node64&#45;&gt;Node65</title>
<path fill="none" stroke="#191970" d="M2950.5,-124.2462C2950.5,-113.5519 2950.5,-100.814 2950.5,-92.2449"/>
<polygon fill="#191970" stroke="#191970" points="2947.0001,-124.3906 2950.5,-134.3906 2954.0001,-124.3907 2947.0001,-124.3906"/>
</g>
<!-- Node66 -->
<g id="node37" class="node">
<title>Node66</title>
<g id="a_node37"><a xlink:href="qticubskinguiplugin_8h.html" target="_top" xlink:title="qticubskinguiplugin.h">
<polygon fill="none" stroke="#ff0000" points="3026,-73 3026,-92 3147,-92 3147,-73 3026,-73"/>
<text text-anchor="middle" x="3086.5" y="-80" font-family="FreeSans.ttf" font-size="10.00" fill="#000000">qticubskinguiplugin.h</text>
</a>
</g>
</g>
<!-- Node64&#45;&gt;Node66 -->
<g id="edge51" class="edge">
<title>Node64&#45;&gt;Node66</title>
<path fill="none" stroke="#191970" d="M2981.0402,-130.1895C3006.7352,-118.5701 3042.8028,-102.2601 3065.3992,-92.0419"/>
<polygon fill="#191970" stroke="#191970" points="2979.4195,-127.0811 2971.75,-134.3906 2982.3038,-133.4593 2979.4195,-127.0811"/>
</g>
<!-- Node70 -->
<g id="node39" class="node">
<title>Node70</title>
<g id="a_node39"><a xlink:href="idyntree-model-view_8cpp.html" target="_top" xlink:title="idyntree&#45;model&#45;view.cpp">
<polygon fill="none" stroke="#000000" points="4145.5,-73 4145.5,-92 4283.5,-92 4283.5,-73 4145.5,-73"/>
<text text-anchor="middle" x="4214.5" y="-80" font-family="FreeSans.ttf" font-size="10.00" fill="#000000">idyntree&#45;model&#45;view.cpp</text>
</a>
</g>
</g>
<!-- Node69&#45;&gt;Node70 -->
<g id="edge54" class="edge">
<title>Node69&#45;&gt;Node70</title>
<path fill="none" stroke="#191970" d="M3538.9821,-134.1628C3804.0026,-98.4416 3875.6478,-131.6112 4136.5,-98 4148.1393,-96.5003 4160.6484,-94.2877 4172.1666,-92.0009"/>
<polygon fill="#191970" stroke="#191970" points="3538.5009,-130.6959 3529.0675,-135.5189 3539.4496,-137.6314 3538.5009,-130.6959"/>
</g>
<!-- Node71 -->
<g id="node40" class="node">
<title>Node71</title>
<g id="a_node40"><a xlink:href="Camera_8h.html" target="_top" xlink:title="Camera.h">
<polygon fill="none" stroke="#ff0000" points="3165.5,-73 3165.5,-92 3229.5,-92 3229.5,-73 3165.5,-73"/>
<text text-anchor="middle" x="3197.5" y="-80" font-family="FreeSans.ttf" font-size="10.00" fill="#000000">Camera.h</text>
</a>
</g>
</g>
<!-- Node69&#45;&gt;Node71 -->
<g id="edge55" class="edge">
<title>Node69&#45;&gt;Node71</title>
<path fill="none" stroke="#191970" d="M3445.7237,-138.1355C3394.3238,-131.0907 3309.6107,-117.7035 3238.5,-98 3232.6333,-96.3744 3226.4293,-94.2512 3220.6719,-92.1"/>
<polygon fill="#191970" stroke="#191970" points="3445.4794,-141.6342 3455.8573,-139.5012 3446.4144,-134.6969 3445.4794,-141.6342"/>
</g>
<!-- Node73 -->
<g id="node41" class="node">
<title>Node73</title>
<g id="a_node41"><a xlink:href="IrrlichtUtils_8h.html" target="_top" xlink:title="IrrlichtUtils.h">
<polygon fill="none" stroke="#ff0000" points="3310.5,-6 3310.5,-25 3390.5,-25 3390.5,-6 3310.5,-6"/>
<text text-anchor="middle" x="3350.5" y="-13" font-family="FreeSans.ttf" font-size="10.00" fill="#000000">IrrlichtUtils.h</text>
</a>
</g>
</g>
<!-- Node69&#45;&gt;Node73 -->
<g id="edge56" class="edge">
<title>Node69&#45;&gt;Node73</title>
<path fill="none" stroke="#191970" d="M3474.1765,-127.4185C3444.1685,-100.2634 3385.4696,-47.145 3361.2969,-25.2705"/>
<polygon fill="#191970" stroke="#191970" points="3472.0637,-130.2269 3481.8269,-134.3416 3476.7606,-125.0366 3472.0637,-130.2269"/>
</g>
<!-- Node80 -->
<g id="node42" class="node">
<title>Node80</title>
<g id="a_node42"><a xlink:href="FloorGridSceneNode_8h.html" target="_top" xlink:title="FloorGridSceneNode.h">
<polygon fill="none" stroke="#ff0000" points="3248,-73 3248,-92 3373,-92 3373,-73 3248,-73"/>
<text text-anchor="middle" x="3310.5" y="-80" font-family="FreeSans.ttf" font-size="10.00" fill="#000000">FloorGridSceneNode.h</text>
</a>
</g>
</g>
<!-- Node69&#45;&gt;Node80 -->
<g id="edge57" class="edge">
<title>Node69&#45;&gt;Node80</title>
<path fill="none" stroke="#191970" d="M3454.3269,-131.1009C3419.8082,-119.4366 3369.7764,-102.5302 3338.7378,-92.0419"/>
<polygon fill="#191970" stroke="#191970" points="3453.4683,-134.5051 3464.0625,-134.3906 3455.7092,-127.8735 3453.4683,-134.5051"/>
</g>
<!-- Node81 -->
<g id="node43" class="node">
<title>Node81</title>
<g id="a_node43"><a xlink:href="DummyImplementations_8h.html" target="_top" xlink:title="DummyImplementations.h">
<polygon fill="none" stroke="#000000" points="3535.5,-73 3535.5,-92 3683.5,-92 3683.5,-73 3535.5,-73"/>
<text text-anchor="middle" x="3609.5" y="-80" font-family="FreeSans.ttf" font-size="10.00" fill="#000000">DummyImplementations.h</text>
</a>
</g>
</g>
<!-- Node69&#45;&gt;Node81 -->
<g id="edge59" class="edge">
<title>Node69&#45;&gt;Node81</title>
<path fill="none" stroke="#191970" d="M3519.6546,-129.7264C3541.6969,-118.1401 3572.1645,-102.1251 3591.3471,-92.0419"/>
<polygon fill="#191970" stroke="#191970" points="3518.0044,-126.6397 3510.7813,-134.3906 3521.2614,-132.8359 3518.0044,-126.6397"/>
</g>
<!-- Node82 -->
<g id="node44" class="node">
<title>Node82</title>
<g id="a_node44"><a xlink:href="Environment_8h.html" target="_top" xlink:title="Environment.h">
<polygon fill="none" stroke="#ff0000" points="3448.5,-6 3448.5,-25 3536.5,-25 3536.5,-6 3448.5,-6"/>
<text text-anchor="middle" x="3492.5" y="-13" font-family="FreeSans.ttf" font-size="10.00" fill="#000000">Environment.h</text>
</a>
</g>
</g>
<!-- Node69&#45;&gt;Node82 -->
<g id="edge62" class="edge">
<title>Node69&#45;&gt;Node82</title>
<path fill="none" stroke="#191970" d="M3475.7787,-126.9123C3469.0241,-118.836 3462.0056,-108.6406 3458.5,-98 3454.1888,-84.9141 3454.5371,-80.1955 3458.5,-67 3463.369,-50.7877 3475.1791,-34.97 3483.5077,-25.2355"/>
<polygon fill="#191970" stroke="#191970" points="3473.286,-129.3753 3482.5638,-134.4913 3478.5014,-124.7063 3473.286,-129.3753"/>
</g>
<!-- Node83 -->
<g id="node45" class="node">
<title>Node83</title>
<g id="a_node45"><a xlink:href="Visualizer_8cpp.html" target="_top" xlink:title="Visualizer.cpp">
<polygon fill="none" stroke="#000000" points="3618.5,-6 3618.5,-25 3702.5,-25 3702.5,-6 3618.5,-6"/>
<text text-anchor="middle" x="3660.5" y="-13" font-family="FreeSans.ttf" font-size="10.00" fill="#000000">Visualizer.cpp</text>
</a>
</g>
</g>
<!-- Node69&#45;&gt;Node83 -->
<g id="edge68" class="edge">
<title>Node69&#45;&gt;Node83</title>
<path fill="none" stroke="#191970" d="M3539.1752,-133.6362C3597.8937,-120.5456 3691.284,-99.5275 3692.5,-98 3710.4886,-75.4043 3684.7986,-41.5033 3669.8816,-25.0876"/>
<polygon fill="#191970" stroke="#191970" points="3538.3568,-130.2326 3529.3571,-135.8232 3539.8789,-137.0651 3538.3568,-130.2326"/>
</g>
<!-- Node84 -->
<g id="node46" class="node">
<title>Node84</title>
<g id="a_node46"><a xlink:href="Light_8h.html" target="_top" xlink:title="Light.h">
<polygon fill="none" stroke="#ff0000" points="3467.5,-73 3467.5,-92 3517.5,-92 3517.5,-73 3467.5,-73"/>
<text text-anchor="middle" x="3492.5" y="-80" font-family="FreeSans.ttf" font-size="10.00" fill="#000000">Light.h</text>
</a>
</g>
</g>
<!-- Node69&#45;&gt;Node84 -->
<g id="edge63" class="edge">
<title>Node69&#45;&gt;Node84</title>
<path fill="none" stroke="#191970" d="M3492.5,-124.2462C3492.5,-113.5519 3492.5,-100.814 3492.5,-92.2449"/>
<polygon fill="#191970" stroke="#191970" points="3489.0001,-124.3906 3492.5,-134.3906 3496.0001,-124.3907 3489.0001,-124.3906"/>
</g>
<!-- Node85 -->
<g id="node47" class="node">
<title>Node85</title>
<g id="a_node47"><a xlink:href="JetsVisualization_8h.html" target="_top" xlink:title="JetsVisualization.h">
<polygon fill="none" stroke="#ff0000" points="3740,-73 3740,-92 3847,-92 3847,-73 3740,-73"/>
<text text-anchor="middle" x="3793.5" y="-80" font-family="FreeSans.ttf" font-size="10.00" fill="#000000">JetsVisualization.h</text>
</a>
</g>
</g>
<!-- Node69&#45;&gt;Node85 -->
<g id="edge65" class="edge">
<title>Node69&#45;&gt;Node85</title>
<path fill="none" stroke="#191970" d="M3539.1275,-133.913C3623.0767,-116.8684 3645.7459,-114.7614 3725.5,-98 3734.2686,-96.1571 3743.6498,-94.0846 3752.5567,-92.069"/>
<polygon fill="#191970" stroke="#191970" points="3538.2393,-130.5221 3529.1416,-135.9519 3539.6397,-137.3805 3538.2393,-130.5221"/>
</g>
<!-- Node86 -->
<g id="node48" class="node">
<title>Node86</title>
<g id="a_node48"><a xlink:href="ModelVisualization_8h.html" target="_top" xlink:title="ModelVisualization.h">
<polygon fill="none" stroke="#ff0000" points="3865.5,-73 3865.5,-92 3983.5,-92 3983.5,-73 3865.5,-73"/>
<text text-anchor="middle" x="3924.5" y="-80" font-family="FreeSans.ttf" font-size="10.00" fill="#000000">ModelVisualization.h</text>
</a>
</g>
</g>
<!-- Node69&#45;&gt;Node86 -->
<g id="edge66" class="edge">
<title>Node69&#45;&gt;Node86</title>
<path fill="none" stroke="#191970" d="M3539.0169,-134.0748C3680.5751,-111.3384 3719.426,-121.3068 3856.5,-98 3866.169,-96.356 3876.527,-94.2006 3886.17,-92.022"/>
<polygon fill="#191970" stroke="#191970" points="3538.3995,-130.6291 3529.0941,-135.6946 3539.5274,-137.5377 3538.3995,-130.6291"/>
</g>
<!-- Node87 -->
<g id="node49" class="node">
<title>Node87</title>
<g id="a_node49"><a xlink:href="VectorsVisualization_8h.html" target="_top" xlink:title="VectorsVisualization.h">
<polygon fill="none" stroke="#ff0000" points="4002,-73 4002,-92 4127,-92 4127,-73 4002,-73"/>
<text text-anchor="middle" x="4064.5" y="-80" font-family="FreeSans.ttf" font-size="10.00" fill="#000000">VectorsVisualization.h</text>
</a>
</g>
</g>
<!-- Node69&#45;&gt;Node87 -->
<g id="edge67" class="edge">
<title>Node69&#45;&gt;Node87</title>
<path fill="none" stroke="#191970" d="M3539.0913,-134.1184C3740.502,-105.1591 3795.4571,-126.891 3992.5,-98 4003.0004,-96.4604 4014.2605,-94.2898 4024.6838,-92.0592"/>
<polygon fill="#191970" stroke="#191970" points="3538.4651,-130.6727 3529.0765,-135.5825 3539.4777,-137.5991 3538.4651,-130.6727"/>
</g>
<!-- Node80&#45;&gt;Node73 -->
<g id="edge58" class="edge">
<title>Node80&#45;&gt;Node73</title>
<path fill="none" stroke="#191970" d="M3321.4792,-64.1099C3329.0197,-51.4795 3338.7244,-35.2241 3344.7796,-25.0817"/>
<polygon fill="#191970" stroke="#191970" points="3318.352,-62.5202 3316.231,-72.9005 3324.3624,-66.1085 3318.352,-62.5202"/>
</g>
<!-- Node81&#45;&gt;Node82 -->
<g id="edge60" class="edge">
<title>Node81&#45;&gt;Node82</title>
<path fill="none" stroke="#191970" d="M3583.9776,-67.8846C3561.2873,-54.891 3528.7667,-36.2681 3509.2322,-25.0817"/>
<polygon fill="#191970" stroke="#191970" points="3582.3196,-70.9684 3592.7368,-72.9005 3585.7982,-64.8939 3582.3196,-70.9684"/>
</g>
<!-- Node81&#45;&gt;Node83 -->
<g id="edge61" class="edge">
<title>Node81&#45;&gt;Node83</title>
<path fill="none" stroke="#191970" d="M3622.9361,-64.8486C3632.6256,-52.1194 3645.3348,-35.4229 3653.2065,-25.0817"/>
<polygon fill="#191970" stroke="#191970" points="3620.079,-62.8236 3616.8071,-72.9005 3625.6489,-67.0634 3620.079,-62.8236"/>
</g>
<!-- Node84&#45;&gt;Node82 -->
<g id="edge64" class="edge">
<title>Node84&#45;&gt;Node82</title>
<path fill="none" stroke="#191970" d="M3492.5,-62.6079C3492.5,-50.214 3492.5,-34.8263 3492.5,-25.0817"/>
<polygon fill="#191970" stroke="#191970" points="3489.0001,-62.9005 3492.5,-72.9005 3496.0001,-62.9006 3489.0001,-62.9005"/>
</g>
</g>
</svg>
