<?xml version="1.0" encoding="UTF-8" standalone="no"?>
<!DOCTYPE svg PUBLIC "-//W3C//DTD SVG 1.1//EN"
 "http://www.w3.org/Graphics/SVG/1.1/DTD/svg11.dtd">
<!-- Generated by graphviz version 2.40.1 (20161225.0304)
 -->
<!-- Title: DynamicalSystem.h Pages: 1 -->
<svg width="1488pt" height="140pt"
 viewBox="0.00 0.00 1488.00 140.00" xmlns="http://www.w3.org/2000/svg" xmlns:xlink="http://www.w3.org/1999/xlink">
<g id="graph0" class="graph" transform="scale(1 1) rotate(0) translate(4 136)">
<title>DynamicalSystem.h</title>
<!-- Node17 -->
<g id="node1" class="node">
<title>Node17</title>
<polygon fill="#bfbfbf" stroke="#000000" points="674.5,-112.5 674.5,-131.5 789.5,-131.5 789.5,-112.5 674.5,-112.5"/>
<text text-anchor="middle" x="732" y="-119.5" font-family="FreeSans.ttf" font-size="10.00" fill="#000000">DynamicalSystem.h</text>
</g>
<!-- Node18 -->
<g id="node2" class="node">
<title>Node18</title>
<g id="a_node2"><a xlink:href="ControlledDynamicalSystem_8h.html" target="_top" xlink:title="ControlledDynamicalSystem.h">
<polygon fill="none" stroke="#000000" points="51.5,-56.5 51.5,-75.5 216.5,-75.5 216.5,-56.5 51.5,-56.5"/>
<text text-anchor="middle" x="134" y="-63.5" font-family="FreeSans.ttf" font-size="10.00" fill="#000000">ControlledDynamicalSystem.h</text>
</a>
</g>
</g>
<!-- Node17&#45;&gt;Node18 -->
<g id="edge1" class="edge">
<title>Node17&#45;&gt;Node18</title>
<path fill="none" stroke="#191970" d="M664.3846,-115.6681C554.1188,-105.3422 335.9351,-84.9103 216.6464,-73.7395"/>
<polygon fill="#191970" stroke="#191970" points="664.107,-119.1574 674.3898,-116.6051 664.7598,-112.1878 664.107,-119.1574"/>
</g>
<!-- Node20 -->
<g id="node4" class="node">
<title>Node20</title>
<g id="a_node4"><a xlink:href="LinearSystem_8h.html" target="_top" xlink:title="LinearSystem.h">
<polygon fill="none" stroke="#000000" points="318,-56.5 318,-75.5 410,-75.5 410,-56.5 318,-56.5"/>
<text text-anchor="middle" x="364" y="-63.5" font-family="FreeSans.ttf" font-size="10.00" fill="#000000">LinearSystem.h</text>
</a>
</g>
</g>
<!-- Node17&#45;&gt;Node20 -->
<g id="edge3" class="edge">
<title>Node17&#45;&gt;Node20</title>
<path fill="none" stroke="#191970" d="M664.2224,-112.2132C601.7827,-103.1174 506.5828,-89.0478 424,-76 419.5147,-75.2913 414.8433,-74.5386 410.175,-73.7766"/>
<polygon fill="#191970" stroke="#191970" points="663.9383,-115.7086 674.3381,-113.685 664.9462,-108.7816 663.9383,-115.7086"/>
</g>
<!-- Node21 -->
<g id="node5" class="node">
<title>Node21</title>
<g id="a_node5"><a xlink:href="OptimalControl_8h.html" target="_top" xlink:title="OptimalControl.h">
<polygon fill="none" stroke="#000000" points="194,-.5 194,-19.5 294,-19.5 294,-.5 194,-.5"/>
<text text-anchor="middle" x="244" y="-7.5" font-family="FreeSans.ttf" font-size="10.00" fill="#000000">OptimalControl.h</text>
</a>
</g>
</g>
<!-- Node17&#45;&gt;Node21 -->
<g id="edge9" class="edge">
<title>Node17&#45;&gt;Node21</title>
<path fill="none" stroke="#191970" d="M664.3443,-120.1331C561.1732,-116.3718 370.0538,-105.5433 309,-76 282.3633,-63.1108 260.4378,-34.6541 250.2116,-19.6668"/>
<polygon fill="#191970" stroke="#191970" points="664.2333,-123.6313 674.3504,-120.4858 664.4799,-116.6356 664.2333,-123.6313"/>
</g>
<!-- Node23 -->
<g id="node7" class="node">
<title>Node23</title>
<g id="a_node7"><a xlink:href="OptimalControlProblem_8cpp.html" target="_top" xlink:title="OptimalControlProblem.cpp">
<polygon fill="none" stroke="#000000" points="434,-.5 434,-19.5 586,-19.5 586,-.5 434,-.5"/>
<text text-anchor="middle" x="510" y="-7.5" font-family="FreeSans.ttf" font-size="10.00" fill="#000000">OptimalControlProblem.cpp</text>
</a>
</g>
</g>
<!-- Node17&#45;&gt;Node23 -->
<g id="edge16" class="edge">
<title>Node17&#45;&gt;Node23</title>
<path fill="none" stroke="#191970" d="M664.3207,-115.1936C587.5509,-106.777 471.2315,-91.638 458,-76 441.4166,-56.4005 472.2135,-32.555 493.081,-19.5656"/>
<polygon fill="#191970" stroke="#191970" points="664.0903,-118.689 674.409,-116.286 664.844,-111.7297 664.0903,-118.689"/>
</g>
<!-- Node24 -->
<g id="node8" class="node">
<title>Node24</title>
<g id="a_node8"><a xlink:href="MultiBodySystem_8h.html" target="_top" xlink:title="MultiBodySystem.h">
<polygon fill="none" stroke="#000000" points="466.5,-56.5 466.5,-75.5 577.5,-75.5 577.5,-56.5 466.5,-56.5"/>
<text text-anchor="middle" x="522" y="-63.5" font-family="FreeSans.ttf" font-size="10.00" fill="#000000">MultiBodySystem.h</text>
</a>
</g>
</g>
<!-- Node17&#45;&gt;Node24 -->
<g id="edge7" class="edge">
<title>Node17&#45;&gt;Node24</title>
<path fill="none" stroke="#191970" d="M685.9496,-109.7199C647.3355,-99.4228 592.9861,-84.9296 557.6292,-75.5011"/>
<polygon fill="#191970" stroke="#191970" points="685.3355,-113.1784 695.8997,-112.3733 687.1392,-106.4147 685.3355,-113.1784"/>
</g>
<!-- Node26 -->
<g id="node10" class="node">
<title>Node26</title>
<g id="a_node10"><a xlink:href="DynamicalSystem_8cpp.html" target="_top" xlink:title="DynamicalSystem.cpp">
<polygon fill="none" stroke="#000000" points="596,-56.5 596,-75.5 722,-75.5 722,-56.5 596,-56.5"/>
<text text-anchor="middle" x="659" y="-63.5" font-family="FreeSans.ttf" font-size="10.00" fill="#000000">DynamicalSystem.cpp</text>
</a>
</g>
</g>
<!-- Node17&#45;&gt;Node26 -->
<g id="edge10" class="edge">
<title>Node17&#45;&gt;Node26</title>
<path fill="none" stroke="#191970" d="M711.049,-105.928C698.2893,-96.1397 682.4115,-83.9595 671.5699,-75.6427"/>
<polygon fill="#191970" stroke="#191970" points="709.2197,-108.9359 719.2844,-112.2455 713.4804,-103.3819 709.2197,-108.9359"/>
</g>
<!-- Node27 -->
<g id="node11" class="node">
<title>Node27</title>
<g id="a_node11"><a xlink:href="FixedStepIntegrator_8cpp.html" target="_top" xlink:title="FixedStepIntegrator.cpp">
<polygon fill="none" stroke="#000000" points="740.5,-56.5 740.5,-75.5 871.5,-75.5 871.5,-56.5 740.5,-56.5"/>
<text text-anchor="middle" x="806" y="-63.5" font-family="FreeSans.ttf" font-size="10.00" fill="#000000">FixedStepIntegrator.cpp</text>
</a>
</g>
</g>
<!-- Node17&#45;&gt;Node27 -->
<g id="edge11" class="edge">
<title>Node17&#45;&gt;Node27</title>
<path fill="none" stroke="#191970" d="M752.8657,-106.2097C765.8625,-96.3743 782.1622,-84.0394 793.2579,-75.6427"/>
<polygon fill="#191970" stroke="#191970" points="750.7518,-103.4201 744.8898,-112.2455 754.976,-109.002 750.7518,-103.4201"/>
</g>
<!-- Node28 -->
<g id="node12" class="node">
<title>Node28</title>
<g id="a_node12"><a xlink:href="ForwardEuler_8cpp.html" target="_top" xlink:title="ForwardEuler.cpp">
<polygon fill="none" stroke="#000000" points="890,-56.5 890,-75.5 990,-75.5 990,-56.5 890,-56.5"/>
<text text-anchor="middle" x="940" y="-63.5" font-family="FreeSans.ttf" font-size="10.00" fill="#000000">ForwardEuler.cpp</text>
</a>
</g>
</g>
<!-- Node17&#45;&gt;Node28 -->
<g id="edge12" class="edge">
<title>Node17&#45;&gt;Node28</title>
<path fill="none" stroke="#191970" d="M777.6118,-109.7199C815.8582,-99.4228 869.69,-84.9296 904.7101,-75.5011"/>
<polygon fill="#191970" stroke="#191970" points="776.5027,-106.3938 767.7565,-112.3733 778.3226,-113.1531 776.5027,-106.3938"/>
</g>
<!-- Node29 -->
<g id="node13" class="node">
<title>Node29</title>
<g id="a_node13"><a xlink:href="ImplicitTrapezoidal_8cpp.html" target="_top" xlink:title="ImplicitTrapezoidal.cpp">
<polygon fill="none" stroke="#000000" points="1008.5,-56.5 1008.5,-75.5 1137.5,-75.5 1137.5,-56.5 1008.5,-56.5"/>
<text text-anchor="middle" x="1073" y="-63.5" font-family="FreeSans.ttf" font-size="10.00" fill="#000000">ImplicitTrapezoidal.cpp</text>
</a>
</g>
</g>
<!-- Node17&#45;&gt;Node29 -->
<g id="edge13" class="edge">
<title>Node17&#45;&gt;Node29</title>
<path fill="none" stroke="#191970" d="M800.0624,-110.8226C862.944,-100.496 955.3664,-85.3181 1014.8702,-75.5462"/>
<polygon fill="#191970" stroke="#191970" points="799.1466,-107.426 789.846,-112.5004 800.281,-114.3335 799.1466,-107.426"/>
</g>
<!-- Node30 -->
<g id="node14" class="node">
<title>Node30</title>
<g id="a_node14"><a xlink:href="Integrator_8cpp.html" target="_top" xlink:title="Integrator.cpp">
<polygon fill="none" stroke="#000000" points="1156,-56.5 1156,-75.5 1240,-75.5 1240,-56.5 1156,-56.5"/>
<text text-anchor="middle" x="1198" y="-63.5" font-family="FreeSans.ttf" font-size="10.00" fill="#000000">Integrator.cpp</text>
</a>
</g>
</g>
<!-- Node17&#45;&gt;Node30 -->
<g id="edge14" class="edge">
<title>Node17&#45;&gt;Node30</title>
<path fill="none" stroke="#191970" d="M799.5732,-116.2517C881.8938,-108.8479 1025.0785,-94.677 1147,-76 1149.854,-75.5628 1152.7914,-75.0786 1155.7467,-74.5661"/>
<polygon fill="#191970" stroke="#191970" points="799.2453,-112.7669 789.5963,-117.1426 799.868,-119.7392 799.2453,-112.7669"/>
</g>
<!-- Node31 -->
<g id="node15" class="node">
<title>Node31</title>
<g id="a_node15"><a xlink:href="MultipleShootingSolver_8cpp.html" target="_top" xlink:title="MultipleShootingSolver.cpp">
<polygon fill="none" stroke="#000000" points="1257.5,-56.5 1257.5,-75.5 1406.5,-75.5 1406.5,-56.5 1257.5,-56.5"/>
<text text-anchor="middle" x="1332" y="-63.5" font-family="FreeSans.ttf" font-size="10.00" fill="#000000">MultipleShootingSolver.cpp</text>
</a>
</g>
</g>
<!-- Node17&#45;&gt;Node31 -->
<g id="edge15" class="edge">
<title>Node17&#45;&gt;Node31</title>
<path fill="none" stroke="#191970" d="M799.9765,-116.631C898.8844,-108.6648 1088.2178,-92.8343 1249,-76 1251.7427,-75.7128 1254.5354,-75.4132 1257.3557,-75.1046"/>
<polygon fill="#191970" stroke="#191970" points="799.5082,-113.1572 789.8207,-117.4469 800.0689,-120.1348 799.5082,-113.1572"/>
</g>
<!-- Node32 -->
<g id="node16" class="node">
<title>Node32</title>
<g id="a_node16"><a xlink:href="RK4_8cpp.html" target="_top" xlink:title="RK4.cpp">
<polygon fill="none" stroke="#000000" points="1424,-56.5 1424,-75.5 1480,-75.5 1480,-56.5 1424,-56.5"/>
<text text-anchor="middle" x="1452" y="-63.5" font-family="FreeSans.ttf" font-size="10.00" fill="#000000">RK4.cpp</text>
</a>
</g>
</g>
<!-- Node17&#45;&gt;Node32 -->
<g id="edge17" class="edge">
<title>Node17&#45;&gt;Node32</title>
<path fill="none" stroke="#191970" d="M799.9548,-119.1941C948.6491,-112.767 1298.9218,-95.9826 1416,-76 1418.5577,-75.5635 1421.195,-75.0192 1423.8246,-74.4115"/>
<polygon fill="#191970" stroke="#191970" points="799.4436,-115.7127 789.6031,-119.6389 799.7442,-122.7063 799.4436,-115.7127"/>
</g>
<!-- Node19 -->
<g id="node3" class="node">
<title>Node19</title>
<g id="a_node3"><a xlink:href="ControlledDynamicalSystem_8cpp.html" target="_top" xlink:title="ControlledDynamicalSystem.cpp">
<polygon fill="none" stroke="#000000" points="0,-.5 0,-19.5 176,-19.5 176,-.5 0,-.5"/>
<text text-anchor="middle" x="88" y="-7.5" font-family="FreeSans.ttf" font-size="10.00" fill="#000000">ControlledDynamicalSystem.cpp</text>
</a>
</g>
</g>
<!-- Node18&#45;&gt;Node19 -->
<g id="edge2" class="edge">
<title>Node18&#45;&gt;Node19</title>
<path fill="none" stroke="#191970" d="M119.6253,-48.5004C111.8029,-38.9775 102.424,-27.5596 95.9208,-19.6427"/>
<polygon fill="#191970" stroke="#191970" points="116.9354,-50.7399 125.9874,-56.2455 122.3445,-46.2967 116.9354,-50.7399"/>
</g>
<!-- Node20&#45;&gt;Node21 -->
<g id="edge4" class="edge">
<title>Node20&#45;&gt;Node21</title>
<path fill="none" stroke="#191970" d="M334.2376,-52.1109C312.4768,-41.9559 283.5318,-28.4482 264.3595,-19.5011"/>
<polygon fill="#191970" stroke="#191970" points="332.8293,-55.316 343.3713,-56.3733 335.7895,-48.9727 332.8293,-55.316"/>
</g>
<!-- Node22 -->
<g id="node6" class="node">
<title>Node22</title>
<g id="a_node6"><a xlink:href="LinearSystem_8cpp.html" target="_top" xlink:title="LinearSystem.cpp">
<polygon fill="none" stroke="#000000" points="312,-.5 312,-19.5 416,-19.5 416,-.5 312,-.5"/>
<text text-anchor="middle" x="364" y="-7.5" font-family="FreeSans.ttf" font-size="10.00" fill="#000000">LinearSystem.cpp</text>
</a>
</g>
</g>
<!-- Node20&#45;&gt;Node22 -->
<g id="edge5" class="edge">
<title>Node20&#45;&gt;Node22</title>
<path fill="none" stroke="#191970" d="M364,-46.1575C364,-37.155 364,-26.9199 364,-19.6427"/>
<polygon fill="#191970" stroke="#191970" points="360.5001,-46.2455 364,-56.2455 367.5001,-46.2456 360.5001,-46.2455"/>
</g>
<!-- Node20&#45;&gt;Node23 -->
<g id="edge6" class="edge">
<title>Node20&#45;&gt;Node23</title>
<path fill="none" stroke="#191970" d="M398.4435,-52.7888C425.1013,-42.5639 461.38,-28.6488 485.2292,-19.5011"/>
<polygon fill="#191970" stroke="#191970" points="397.1816,-49.5241 389.0983,-56.3733 399.6885,-56.0598 397.1816,-49.5241"/>
</g>
<!-- Node25 -->
<g id="node9" class="node">
<title>Node25</title>
<g id="a_node9"><a xlink:href="MultiBodySystem_8cpp.html" target="_top" xlink:title="MultiBodySystem.cpp">
<polygon fill="none" stroke="#000000" points="604,-.5 604,-19.5 726,-19.5 726,-.5 604,-.5"/>
<text text-anchor="middle" x="665" y="-7.5" font-family="FreeSans.ttf" font-size="10.00" fill="#000000">MultiBodySystem.cpp</text>
</a>
</g>
</g>
<!-- Node24&#45;&gt;Node25 -->
<g id="edge8" class="edge">
<title>Node24&#45;&gt;Node25</title>
<path fill="none" stroke="#191970" d="M556.0798,-52.6541C582.1573,-42.4419 617.4815,-28.6086 640.7382,-19.5011"/>
<polygon fill="#191970" stroke="#191970" points="554.6178,-49.4677 546.5826,-56.3733 557.1703,-55.9858 554.6178,-49.4677"/>
</g>
</g>
</svg>
