<?xml version="1.0" encoding="UTF-8" standalone="no"?>
<!DOCTYPE svg PUBLIC "-//W3C//DTD SVG 1.1//EN"
 "http://www.w3.org/Graphics/SVG/1.1/DTD/svg11.dtd">
<!-- Generated by graphviz version 2.40.1 (20161225.0304)
 -->
<!-- Title: dynamicRegressorInterface.hpp Pages: 1 -->
<svg width="763pt" height="252pt"
 viewBox="0.00 0.00 762.50 252.00" xmlns="http://www.w3.org/2000/svg" xmlns:xlink="http://www.w3.org/1999/xlink">
<g id="graph0" class="graph" transform="scale(1 1) rotate(0) translate(4 248)">
<title>dynamicRegressorInterface.hpp</title>
<!-- Node60 -->
<g id="node1" class="node">
<title>Node60</title>
<polygon fill="#bfbfbf" stroke="#000000" points="316,-224.5 316,-243.5 487,-243.5 487,-224.5 316,-224.5"/>
<text text-anchor="middle" x="401.5" y="-231.5" font-family="FreeSans.ttf" font-size="10.00" fill="#000000">dynamicRegressorInterface.hpp</text>
</g>
<!-- Node61 -->
<g id="node2" class="node">
<title>Node61</title>
<g id="a_node2"><a xlink:href="baseDynamicsRegressor_8hpp.html" target="_top" xlink:title="baseDynamicsRegressor.hpp">
<polygon fill="none" stroke="#000000" points="521,-168.5 521,-187.5 678,-187.5 678,-168.5 521,-168.5"/>
<text text-anchor="middle" x="599.5" y="-175.5" font-family="FreeSans.ttf" font-size="10.00" fill="#000000">baseDynamicsRegressor.hpp</text>
</a>
</g>
</g>
<!-- Node60&#45;&gt;Node61 -->
<g id="edge1" class="edge">
<title>Node60&#45;&gt;Node61</title>
<path fill="none" stroke="#191970" d="M445.3845,-221.5882C481.7623,-211.2996 532.7121,-196.8895 565.9067,-187.5011"/>
<polygon fill="#191970" stroke="#191970" points="444.2074,-218.2838 435.5374,-224.3733 446.1125,-225.0195 444.2074,-218.2838"/>
</g>
<!-- Node62 -->
<g id="node3" class="node">
<title>Node62</title>
<g id="a_node3"><a xlink:href="dynamicRegressorGenerator_8hpp.html" target="_top" xlink:title="dynamicRegressorGenerator.hpp">
<polygon fill="none" stroke="#000000" points="270.5,-112.5 270.5,-131.5 446.5,-131.5 446.5,-112.5 270.5,-112.5"/>
<text text-anchor="middle" x="358.5" y="-119.5" font-family="FreeSans.ttf" font-size="10.00" fill="#000000">dynamicRegressorGenerator.hpp</text>
</a>
</g>
</g>
<!-- Node60&#45;&gt;Node62 -->
<g id="edge10" class="edge">
<title>Node60&#45;&gt;Node62</title>
<path fill="none" stroke="#191970" d="M390.8342,-215.6287C386.3212,-207.3645 381.2518,-197.3772 377.5,-188 369.7044,-168.516 363.6473,-144.6272 360.6229,-131.5994"/>
<polygon fill="#191970" stroke="#191970" points="387.8129,-217.3968 395.7642,-224.3987 393.9149,-213.9665 387.8129,-217.3968"/>
</g>
<!-- Node70 -->
<g id="node11" class="node">
<title>Node70</title>
<g id="a_node11"><a xlink:href="subtreeBaseDynamicsRegressor_8hpp.html" target="_top" xlink:title="subtreeBaseDynamicsRegressor.hpp">
<polygon fill="none" stroke="#000000" points="136.5,-168.5 136.5,-187.5 330.5,-187.5 330.5,-168.5 136.5,-168.5"/>
<text text-anchor="middle" x="233.5" y="-175.5" font-family="FreeSans.ttf" font-size="10.00" fill="#000000">subtreeBaseDynamicsRegressor.hpp</text>
</a>
</g>
</g>
<!-- Node60&#45;&gt;Node70 -->
<g id="edge11" class="edge">
<title>Node60&#45;&gt;Node70</title>
<path fill="none" stroke="#191970" d="M363.0714,-221.1905C332.2927,-210.9309 289.8074,-196.7691 262.0034,-187.5011"/>
<polygon fill="#191970" stroke="#191970" points="362.0261,-224.5313 372.6198,-224.3733 364.2398,-217.8905 362.0261,-224.5313"/>
</g>
<!-- Node72 -->
<g id="node13" class="node">
<title>Node72</title>
<g id="a_node13"><a xlink:href="torqueRegressor_8hpp.html" target="_top" xlink:title="torqueRegressor.hpp">
<polygon fill="none" stroke="#000000" points="386.5,-168.5 386.5,-187.5 502.5,-187.5 502.5,-168.5 386.5,-168.5"/>
<text text-anchor="middle" x="444.5" y="-175.5" font-family="FreeSans.ttf" font-size="10.00" fill="#000000">torqueRegressor.hpp</text>
</a>
</g>
</g>
<!-- Node60&#45;&gt;Node72 -->
<g id="edge14" class="edge">
<title>Node60&#45;&gt;Node72</title>
<path fill="none" stroke="#191970" d="M415.1592,-216.2112C422.4263,-206.7472 431.0781,-195.4797 437.0958,-187.6427"/>
<polygon fill="#191970" stroke="#191970" points="412.3043,-214.1824 408.99,-224.2455 417.8564,-218.4456 412.3043,-214.1824"/>
</g>
<!-- Node61&#45;&gt;Node62 -->
<g id="edge2" class="edge">
<title>Node61&#45;&gt;Node62</title>
<path fill="none" stroke="#191970" d="M548.3412,-166.1125C503.9696,-155.8021 440.5832,-141.0733 399.4858,-131.5237"/>
<polygon fill="#191970" stroke="#191970" points="547.8118,-169.5826 558.3445,-168.4369 549.3962,-162.7643 547.8118,-169.5826"/>
</g>
<!-- Node69 -->
<g id="node10" class="node">
<title>Node69</title>
<g id="a_node10"><a xlink:href="baseDynamicsRegressor_8cpp.html" target="_top" xlink:title="baseDynamicsRegressor.cpp">
<polygon fill="none" stroke="#000000" points="598.5,-112.5 598.5,-131.5 754.5,-131.5 754.5,-112.5 598.5,-112.5"/>
<text text-anchor="middle" x="676.5" y="-119.5" font-family="FreeSans.ttf" font-size="10.00" fill="#000000">baseDynamicsRegressor.cpp</text>
</a>
</g>
</g>
<!-- Node61&#45;&gt;Node69 -->
<g id="edge9" class="edge">
<title>Node61&#45;&gt;Node69</title>
<path fill="none" stroke="#191970" d="M621.2116,-162.2097C634.7353,-152.3743 651.6958,-140.0394 663.2413,-131.6427"/>
<polygon fill="#191970" stroke="#191970" points="618.9411,-159.5332 612.9124,-168.2455 623.0584,-165.1944 618.9411,-159.5332"/>
</g>
<!-- Node63 -->
<g id="node4" class="node">
<title>Node63</title>
<g id="a_node4"><a xlink:href="essentialParameters_8hpp.html" target="_top" xlink:title="essentialParameters.hpp">
<polygon fill="none" stroke="#000000" points="0,-56.5 0,-75.5 137,-75.5 137,-56.5 0,-56.5"/>
<text text-anchor="middle" x="68.5" y="-63.5" font-family="FreeSans.ttf" font-size="10.00" fill="#000000">essentialParameters.hpp</text>
</a>
</g>
</g>
<!-- Node62&#45;&gt;Node63 -->
<g id="edge3" class="edge">
<title>Node62&#45;&gt;Node63</title>
<path fill="none" stroke="#191970" d="M298.9518,-110.501C245.4776,-100.175 167.897,-85.1939 117.819,-75.5237"/>
<polygon fill="#191970" stroke="#191970" points="298.4945,-113.9773 308.9767,-112.4369 299.8217,-107.1043 298.4945,-113.9773"/>
</g>
<!-- Node65 -->
<g id="node6" class="node">
<title>Node65</title>
<g id="a_node6"><a xlink:href="sparseNumericalBaseParameters_8hpp.html" target="_top" xlink:title="sparseNumericalBaseParameters.hpp">
<polygon fill="none" stroke="#000000" points="155.5,-56.5 155.5,-75.5 355.5,-75.5 355.5,-56.5 155.5,-56.5"/>
<text text-anchor="middle" x="255.5" y="-63.5" font-family="FreeSans.ttf" font-size="10.00" fill="#000000">sparseNumericalBaseParameters.hpp</text>
</a>
</g>
</g>
<!-- Node62&#45;&gt;Node65 -->
<g id="edge5" class="edge">
<title>Node62&#45;&gt;Node65</title>
<path fill="none" stroke="#191970" d="M331.7568,-107.46C313.325,-97.4388 289.3416,-84.3993 273.2356,-75.6427"/>
<polygon fill="#191970" stroke="#191970" points="330.1015,-110.5438 340.5588,-112.2455 333.4451,-104.394 330.1015,-110.5438"/>
</g>
<!-- Node67 -->
<g id="node8" class="node">
<title>Node67</title>
<g id="a_node8"><a xlink:href="dynamicRegressorGenerator_8cpp.html" target="_top" xlink:title="dynamicRegressorGenerator.cpp">
<polygon fill="none" stroke="#000000" points="374,-56.5 374,-75.5 549,-75.5 549,-56.5 374,-56.5"/>
<text text-anchor="middle" x="461.5" y="-63.5" font-family="FreeSans.ttf" font-size="10.00" fill="#000000">dynamicRegressorGenerator.cpp</text>
</a>
</g>
</g>
<!-- Node62&#45;&gt;Node67 -->
<g id="edge7" class="edge">
<title>Node62&#45;&gt;Node67</title>
<path fill="none" stroke="#191970" d="M385.2432,-107.46C403.675,-97.4388 427.6584,-84.3993 443.7644,-75.6427"/>
<polygon fill="#191970" stroke="#191970" points="383.5549,-104.394 376.4412,-112.2455 386.8985,-110.5438 383.5549,-104.394"/>
</g>
<!-- Node68 -->
<g id="node9" class="node">
<title>Node68</title>
<g id="a_node9"><a xlink:href="DynamicsRegressorGenerator_8cpp.html" target="_top" xlink:title="DynamicsRegressorGenerator.cpp">
<polygon fill="none" stroke="#000000" points="567.5,-56.5 567.5,-75.5 749.5,-75.5 749.5,-56.5 567.5,-56.5"/>
<text text-anchor="middle" x="658.5" y="-63.5" font-family="FreeSans.ttf" font-size="10.00" fill="#000000">DynamicsRegressorGenerator.cpp</text>
</a>
</g>
</g>
<!-- Node62&#45;&gt;Node68 -->
<g id="edge8" class="edge">
<title>Node62&#45;&gt;Node68</title>
<path fill="none" stroke="#191970" d="M419.7568,-110.5654C475.0859,-100.2373 555.5678,-85.214 607.4803,-75.5237"/>
<polygon fill="#191970" stroke="#191970" points="418.9189,-107.1613 409.731,-112.4369 420.2034,-114.0424 418.9189,-107.1613"/>
</g>
<!-- Node64 -->
<g id="node5" class="node">
<title>Node64</title>
<g id="a_node5"><a xlink:href="essentialParameters_8cpp.html" target="_top" xlink:title="essentialParameters.cpp">
<polygon fill="none" stroke="#000000" points="0,-.5 0,-19.5 137,-19.5 137,-.5 0,-.5"/>
<text text-anchor="middle" x="68.5" y="-7.5" font-family="FreeSans.ttf" font-size="10.00" fill="#000000">essentialParameters.cpp</text>
</a>
</g>
</g>
<!-- Node63&#45;&gt;Node64 -->
<g id="edge4" class="edge">
<title>Node63&#45;&gt;Node64</title>
<path fill="none" stroke="#191970" d="M68.5,-46.1575C68.5,-37.155 68.5,-26.9199 68.5,-19.6427"/>
<polygon fill="#191970" stroke="#191970" points="65.0001,-46.2455 68.5,-56.2455 72.0001,-46.2456 65.0001,-46.2455"/>
</g>
<!-- Node66 -->
<g id="node7" class="node">
<title>Node66</title>
<g id="a_node7"><a xlink:href="sparseNumericalBaseParameters_8cpp.html" target="_top" xlink:title="sparseNumericalBaseParameters.cpp">
<polygon fill="none" stroke="#000000" points="156,-.5 156,-19.5 355,-19.5 355,-.5 156,-.5"/>
<text text-anchor="middle" x="255.5" y="-7.5" font-family="FreeSans.ttf" font-size="10.00" fill="#000000">sparseNumericalBaseParameters.cpp</text>
</a>
</g>
</g>
<!-- Node65&#45;&gt;Node66 -->
<g id="edge6" class="edge">
<title>Node65&#45;&gt;Node66</title>
<path fill="none" stroke="#191970" d="M255.5,-46.1575C255.5,-37.155 255.5,-26.9199 255.5,-19.6427"/>
<polygon fill="#191970" stroke="#191970" points="252.0001,-46.2455 255.5,-56.2455 259.0001,-46.2456 252.0001,-46.2455"/>
</g>
<!-- Node70&#45;&gt;Node62 -->
<g id="edge12" class="edge">
<title>Node70&#45;&gt;Node62</title>
<path fill="none" stroke="#191970" d="M264.198,-164.2473C286.8993,-154.0771 317.2315,-140.4883 337.2921,-131.5011"/>
<polygon fill="#191970" stroke="#191970" points="262.6833,-161.0906 254.9883,-168.3733 265.5453,-167.4789 262.6833,-161.0906"/>
</g>
<!-- Node71 -->
<g id="node12" class="node">
<title>Node71</title>
<g id="a_node12"><a xlink:href="subtreeBaseDynamicsRegressor_8cpp.html" target="_top" xlink:title="subtreeBaseDynamicsRegressor.cpp">
<polygon fill="none" stroke="#000000" points="58.5,-112.5 58.5,-131.5 252.5,-131.5 252.5,-112.5 58.5,-112.5"/>
<text text-anchor="middle" x="155.5" y="-119.5" font-family="FreeSans.ttf" font-size="10.00" fill="#000000">subtreeBaseDynamicsRegressor.cpp</text>
</a>
</g>
</g>
<!-- Node70&#45;&gt;Node71 -->
<g id="edge13" class="edge">
<title>Node70&#45;&gt;Node71</title>
<path fill="none" stroke="#191970" d="M211.5064,-162.2097C197.8071,-152.3743 180.6264,-140.0394 168.9309,-131.6427"/>
<polygon fill="#191970" stroke="#191970" points="209.7489,-165.2566 219.9134,-168.2455 213.8314,-159.5703 209.7489,-165.2566"/>
</g>
<!-- Node72&#45;&gt;Node62 -->
<g id="edge15" class="edge">
<title>Node72&#45;&gt;Node62</title>
<path fill="none" stroke="#191970" d="M421.1095,-162.769C405.8701,-152.8456 386.4491,-140.1994 373.3084,-131.6427"/>
<polygon fill="#191970" stroke="#191970" points="419.2301,-165.7218 429.5199,-168.2455 423.0498,-159.8558 419.2301,-165.7218"/>
</g>
<!-- Node73 -->
<g id="node14" class="node">
<title>Node73</title>
<g id="a_node14"><a xlink:href="torqueRegressor_8cpp.html" target="_top" xlink:title="torqueRegressor.cpp">
<polygon fill="none" stroke="#000000" points="464.5,-112.5 464.5,-131.5 580.5,-131.5 580.5,-112.5 464.5,-112.5"/>
<text text-anchor="middle" x="522.5" y="-119.5" font-family="FreeSans.ttf" font-size="10.00" fill="#000000">torqueRegressor.cpp</text>
</a>
</g>
</g>
<!-- Node72&#45;&gt;Node73 -->
<g id="edge16" class="edge">
<title>Node72&#45;&gt;Node73</title>
<path fill="none" stroke="#191970" d="M466.4936,-162.2097C480.1929,-152.3743 497.3736,-140.0394 509.0691,-131.6427"/>
<polygon fill="#191970" stroke="#191970" points="464.1686,-159.5703 458.0866,-168.2455 468.2511,-165.2566 464.1686,-159.5703"/>
</g>
</g>
</svg>
