<?xml version="1.0" encoding="UTF-8" standalone="no"?>
<!DOCTYPE svg PUBLIC "-//W3C//DTD SVG 1.1//EN"
 "http://www.w3.org/Graphics/SVG/1.1/DTD/svg11.dtd">
<!-- Generated by graphviz version 2.40.1 (20161225.0304)
 -->
<!-- Title: DynamicsRegressorGenerator.h Pages: 1 -->
<svg width="430pt" height="84pt"
 viewBox="0.00 0.00 429.50 84.00" xmlns="http://www.w3.org/2000/svg" xmlns:xlink="http://www.w3.org/1999/xlink">
<g id="graph0" class="graph" transform="scale(1 1) rotate(0) translate(4 80)">
<title>DynamicsRegressorGenerator.h</title>
<!-- Node2 -->
<g id="node1" class="node">
<title>Node2</title>
<polygon fill="#bfbfbf" stroke="#000000" points="135.5,-56.5 135.5,-75.5 305.5,-75.5 305.5,-56.5 135.5,-56.5"/>
<text text-anchor="middle" x="220.5" y="-63.5" font-family="FreeSans.ttf" font-size="10.00" fill="#000000">DynamicsRegressorGenerator.h</text>
</g>
<!-- Node3 -->
<g id="node2" class="node">
<title>Node3</title>
<g id="a_node2"><a xlink:href="DummyDynamicsRegressorGenerator_8cpp.html" target="_top" xlink:title="DummyDynamicsRegressorGenerator.cpp">
<polygon fill="none" stroke="#000000" points="0,-.5 0,-19.5 221,-19.5 221,-.5 0,-.5"/>
<text text-anchor="middle" x="110.5" y="-7.5" font-family="FreeSans.ttf" font-size="10.00" fill="#000000">DummyDynamicsRegressorGenerator.cpp</text>
</a>
</g>
</g>
<!-- Node2&#45;&gt;Node3 -->
<g id="edge1" class="edge">
<title>Node2&#45;&gt;Node3</title>
<path fill="none" stroke="#191970" d="M192.2086,-51.5971C172.4889,-41.558 146.72,-28.4393 129.441,-19.6427"/>
<polygon fill="#191970" stroke="#191970" points="190.8399,-54.8277 201.3395,-56.2455 194.0157,-48.5896 190.8399,-54.8277"/>
</g>
<!-- Node4 -->
<g id="node3" class="node">
<title>Node4</title>
<g id="a_node3"><a xlink:href="DynamicsRegressorGenerator_8cpp.html" target="_top" xlink:title="DynamicsRegressorGenerator.cpp">
<polygon fill="none" stroke="#000000" points="239.5,-.5 239.5,-19.5 421.5,-19.5 421.5,-.5 239.5,-.5"/>
<text text-anchor="middle" x="330.5" y="-7.5" font-family="FreeSans.ttf" font-size="10.00" fill="#000000">DynamicsRegressorGenerator.cpp</text>
</a>
</g>
</g>
<!-- Node2&#45;&gt;Node4 -->
<g id="edge2" class="edge">
<title>Node2&#45;&gt;Node4</title>
<path fill="none" stroke="#191970" d="M248.7914,-51.5971C268.5111,-41.558 294.28,-28.4393 311.559,-19.6427"/>
<polygon fill="#191970" stroke="#191970" points="246.9843,-48.5896 239.6605,-56.2455 250.1601,-54.8277 246.9843,-48.5896"/>
</g>
</g>
</svg>
