<?xml version="1.0" encoding="UTF-8" standalone="no"?>
<!DOCTYPE svg PUBLIC "-//W3C//DTD SVG 1.1//EN"
 "http://www.w3.org/Graphics/SVG/1.1/DTD/svg11.dtd">
<!-- Generated by graphviz version 2.40.1 (20161225.0304)
 -->
<!-- Title: DynamicalSystem.cpp Pages: 1 -->
<svg width="925pt" height="252pt"
 viewBox="0.00 0.00 924.50 252.00" xmlns="http://www.w3.org/2000/svg" xmlns:xlink="http://www.w3.org/1999/xlink">
<g id="graph0" class="graph" transform="scale(1 1) rotate(0) translate(4 248)">
<title>DynamicalSystem.cpp</title>
<!-- Node0 -->
<g id="node1" class="node">
<title>Node0</title>
<polygon fill="#bfbfbf" stroke="#000000" points="684,-224.5 684,-243.5 810,-243.5 810,-224.5 684,-224.5"/>
<text text-anchor="middle" x="747" y="-231.5" font-family="FreeSans.ttf" font-size="10.00" fill="#000000">DynamicalSystem.cpp</text>
</g>
<!-- Node1 -->
<g id="node2" class="node">
<title>Node1</title>
<g id="a_node2"><a xlink:href="DynamicalSystem_8h.html" target="_top" xlink:title="iDynTree/DynamicalSystem.h">
<polygon fill="none" stroke="#000000" points="456.5,-168.5 456.5,-187.5 617.5,-187.5 617.5,-168.5 456.5,-168.5"/>
<text text-anchor="middle" x="537" y="-175.5" font-family="FreeSans.ttf" font-size="10.00" fill="#000000">iDynTree/DynamicalSystem.h</text>
</a>
</g>
</g>
<!-- Node0&#45;&gt;Node1 -->
<g id="edge1" class="edge">
<title>Node0&#45;&gt;Node1</title>
<path fill="none" stroke="#191970" d="M710.8997,-224.3733C675.3752,-214.9001 621.012,-200.4032 582.5381,-190.1435"/>
<polygon fill="#191970" stroke="#191970" points="583.1934,-186.696 572.6292,-187.5011 581.3897,-193.4596 583.1934,-186.696"/>
</g>
<!-- Node7 -->
<g id="node8" class="node">
<title>Node7</title>
<polygon fill="none" stroke="#bfbfbf" points="654.5,-.5 654.5,-19.5 707.5,-19.5 707.5,-.5 654.5,-.5"/>
<text text-anchor="middle" x="681" y="-7.5" font-family="FreeSans.ttf" font-size="10.00" fill="#000000">cstddef</text>
</g>
<!-- Node0&#45;&gt;Node7 -->
<g id="edge24" class="edge">
<title>Node0&#45;&gt;Node7</title>
<path fill="none" stroke="#191970" d="M750.1181,-224.3764C758.59,-196.3792 779.4301,-113.3237 749,-56 741.6154,-42.0889 727.9364,-31.6166 714.7728,-24.2062"/>
<polygon fill="#191970" stroke="#191970" points="716.3134,-21.0625 705.8255,-19.5605 713.0876,-27.275 716.3134,-21.0625"/>
</g>
<!-- Node15 -->
<g id="node16" class="node">
<title>Node15</title>
<g id="a_node16"><a xlink:href="Utils_8h.html" target="_top" xlink:title="iDynTree/Core/Utils.h">
<polygon fill="none" stroke="#000000" points="621.5,-56.5 621.5,-75.5 740.5,-75.5 740.5,-56.5 621.5,-56.5"/>
<text text-anchor="middle" x="681" y="-63.5" font-family="FreeSans.ttf" font-size="10.00" fill="#000000">iDynTree/Core/Utils.h</text>
</a>
</g>
</g>
<!-- Node0&#45;&gt;Node15 -->
<g id="edge23" class="edge">
<title>Node0&#45;&gt;Node15</title>
<path fill="none" stroke="#191970" d="M743.2625,-224.4862C732.7391,-197.6994 702.7079,-121.2565 688.5542,-85.2289"/>
<polygon fill="#191970" stroke="#191970" points="691.7752,-83.8556 684.861,-75.8279 685.2599,-86.4152 691.7752,-83.8556"/>
</g>
<!-- Node18 -->
<g id="node19" class="node">
<title>Node18</title>
<g id="a_node19"><a xlink:href="Controller_8h.html" target="_top" xlink:title="iDynTree/Controller.h">
<polygon fill="none" stroke="#000000" points="797.5,-168.5 797.5,-187.5 916.5,-187.5 916.5,-168.5 797.5,-168.5"/>
<text text-anchor="middle" x="857" y="-175.5" font-family="FreeSans.ttf" font-size="10.00" fill="#000000">iDynTree/Controller.h</text>
</a>
</g>
</g>
<!-- Node0&#45;&gt;Node18 -->
<g id="edge21" class="edge">
<title>Node0&#45;&gt;Node18</title>
<path fill="none" stroke="#191970" d="M766.1605,-224.2455C783.5111,-215.4125 809.2901,-202.2887 828.9583,-192.2758"/>
<polygon fill="#191970" stroke="#191970" points="830.7353,-195.2986 838.059,-187.6427 827.5595,-189.0605 830.7353,-195.2986"/>
</g>
<!-- Node2 -->
<g id="node3" class="node">
<title>Node2</title>
<g id="a_node3"><a xlink:href="VectorDynSize_8h.html" target="_top" xlink:title="iDynTree/Core/VectorDynSize.h">
<polygon fill="none" stroke="#000000" points="274.5,-112.5 274.5,-131.5 441.5,-131.5 441.5,-112.5 274.5,-112.5"/>
<text text-anchor="middle" x="358" y="-119.5" font-family="FreeSans.ttf" font-size="10.00" fill="#000000">iDynTree/Core/VectorDynSize.h</text>
</a>
</g>
</g>
<!-- Node1&#45;&gt;Node2 -->
<g id="edge2" class="edge">
<title>Node1&#45;&gt;Node2</title>
<path fill="none" stroke="#191970" d="M506.2288,-168.3733C476.335,-159.021 430.7907,-144.7725 398.0783,-134.5385"/>
<polygon fill="#191970" stroke="#191970" points="398.9586,-131.1466 388.3697,-131.5011 396.8685,-137.8273 398.9586,-131.1466"/>
</g>
<!-- Node14 -->
<g id="node15" class="node">
<title>Node14</title>
<g id="a_node15"><a xlink:href="SparsityStructure_8h.html" target="_top" xlink:title="iDynTree/SparsityStructure.h">
<polygon fill="none" stroke="#000000" points="459.5,-112.5 459.5,-131.5 614.5,-131.5 614.5,-112.5 459.5,-112.5"/>
<text text-anchor="middle" x="537" y="-119.5" font-family="FreeSans.ttf" font-size="10.00" fill="#000000">iDynTree/SparsityStructure.h</text>
</a>
</g>
</g>
<!-- Node1&#45;&gt;Node14 -->
<g id="edge14" class="edge">
<title>Node1&#45;&gt;Node14</title>
<path fill="none" stroke="#191970" d="M537,-168.2455C537,-160.9382 537,-150.6944 537,-141.7046"/>
<polygon fill="#191970" stroke="#191970" points="540.5001,-141.6426 537,-131.6427 533.5001,-141.6427 540.5001,-141.6426"/>
</g>
<!-- Node3 -->
<g id="node4" class="node">
<title>Node3</title>
<g id="a_node4"><a xlink:href="Span_8h.html" target="_top" xlink:title="iDynTree/Core/Span.h">
<polygon fill="none" stroke="#000000" points="211.5,-56.5 211.5,-75.5 332.5,-75.5 332.5,-56.5 211.5,-56.5"/>
<text text-anchor="middle" x="272" y="-63.5" font-family="FreeSans.ttf" font-size="10.00" fill="#000000">iDynTree/Core/Span.h</text>
</a>
</g>
</g>
<!-- Node2&#45;&gt;Node3 -->
<g id="edge3" class="edge">
<title>Node2&#45;&gt;Node3</title>
<path fill="none" stroke="#191970" d="M343.0199,-112.2455C329.8249,-103.6534 310.3949,-91.0014 295.1921,-81.1018"/>
<polygon fill="#191970" stroke="#191970" points="297.0983,-78.1665 286.8084,-75.6427 293.2785,-84.0325 297.0983,-78.1665"/>
</g>
<!-- Node13 -->
<g id="node14" class="node">
<title>Node13</title>
<polygon fill="none" stroke="#bfbfbf" points="351,-56.5 351,-75.5 395,-75.5 395,-56.5 351,-56.5"/>
<text text-anchor="middle" x="373" y="-63.5" font-family="FreeSans.ttf" font-size="10.00" fill="#000000">string</text>
</g>
<!-- Node2&#45;&gt;Node13 -->
<g id="edge13" class="edge">
<title>Node2&#45;&gt;Node13</title>
<path fill="none" stroke="#191970" d="M360.6128,-112.2455C362.5916,-104.8579 365.3744,-94.4689 367.8012,-85.4087"/>
<polygon fill="#191970" stroke="#191970" points="371.2105,-86.2078 370.4171,-75.6427 364.4489,-84.3966 371.2105,-86.2078"/>
</g>
<!-- Node4 -->
<g id="node5" class="node">
<title>Node4</title>
<polygon fill="none" stroke="#bfbfbf" points="510,-.5 510,-19.5 562,-19.5 562,-.5 510,-.5"/>
<text text-anchor="middle" x="536" y="-7.5" font-family="FreeSans.ttf" font-size="10.00" fill="#000000">cassert</text>
</g>
<!-- Node3&#45;&gt;Node4 -->
<g id="edge4" class="edge">
<title>Node3&#45;&gt;Node4</title>
<path fill="none" stroke="#191970" d="M324.7588,-56.4694C371.1216,-47.8295 440.3083,-34.2925 500,-20 500.0986,-19.9764 500.1973,-19.9527 500.2961,-19.9289"/>
<polygon fill="#191970" stroke="#191970" points="500.8801,-23.3918 509.7106,-17.5375 499.1567,-16.6073 500.8801,-23.3918"/>
</g>
<!-- Node5 -->
<g id="node6" class="node">
<title>Node5</title>
<polygon fill="none" stroke="#bfbfbf" points="0,-.5 0,-19.5 64,-19.5 64,-.5 0,-.5"/>
<text text-anchor="middle" x="32" y="-7.5" font-family="FreeSans.ttf" font-size="10.00" fill="#000000">algorithm</text>
</g>
<!-- Node3&#45;&gt;Node5 -->
<g id="edge5" class="edge">
<title>Node3&#45;&gt;Node5</title>
<path fill="none" stroke="#191970" d="M230.0371,-56.4547C191.8647,-47.737 133.7024,-34.3681 74.1718,-20.2599"/>
<polygon fill="#191970" stroke="#191970" points="74.7581,-16.8018 64.2201,-17.8974 73.1413,-23.6126 74.7581,-16.8018"/>
</g>
<!-- Node6 -->
<g id="node7" class="node">
<title>Node6</title>
<polygon fill="none" stroke="#bfbfbf" points="82,-.5 82,-19.5 124,-19.5 124,-.5 82,-.5"/>
<text text-anchor="middle" x="103" y="-7.5" font-family="FreeSans.ttf" font-size="10.00" fill="#000000">array</text>
</g>
<!-- Node3&#45;&gt;Node6 -->
<g id="edge6" class="edge">
<title>Node3&#45;&gt;Node6</title>
<path fill="none" stroke="#191970" d="M242.9755,-56.415C216.7736,-47.7577 176.9167,-34.5777 133.8348,-20.2731"/>
<polygon fill="#191970" stroke="#191970" points="134.8969,-16.9379 124.3034,-17.1074 132.6904,-23.5811 134.8969,-16.9379"/>
</g>
<!-- Node3&#45;&gt;Node7 -->
<g id="edge7" class="edge">
<title>Node3&#45;&gt;Node7</title>
<path fill="none" stroke="#191970" d="M332.7027,-57.3016C335.8467,-56.8594 338.9603,-56.4233 342,-56 451.8272,-40.704 581.7656,-23.2526 644.0674,-14.9251"/>
<polygon fill="#191970" stroke="#191970" points="644.7356,-18.367 654.1841,-13.5736 643.8087,-11.4286 644.7356,-18.367"/>
</g>
<!-- Node8 -->
<g id="node9" class="node">
<title>Node8</title>
<polygon fill="none" stroke="#bfbfbf" points="142.5,-.5 142.5,-19.5 195.5,-19.5 195.5,-.5 142.5,-.5"/>
<text text-anchor="middle" x="169" y="-7.5" font-family="FreeSans.ttf" font-size="10.00" fill="#000000">iterator</text>
</g>
<!-- Node3&#45;&gt;Node8 -->
<g id="edge8" class="edge">
<title>Node3&#45;&gt;Node8</title>
<path fill="none" stroke="#191970" d="M254.0588,-56.2455C237.96,-47.4928 214.1121,-34.527 195.7609,-24.5496"/>
<polygon fill="#191970" stroke="#191970" points="197.1929,-21.3444 186.7356,-19.6427 193.8493,-27.4942 197.1929,-21.3444"/>
</g>
<!-- Node9 -->
<g id="node10" class="node">
<title>Node9</title>
<polygon fill="none" stroke="#bfbfbf" points="214,-.5 214,-19.5 258,-19.5 258,-.5 214,-.5"/>
<text text-anchor="middle" x="236" y="-7.5" font-family="FreeSans.ttf" font-size="10.00" fill="#000000">limits</text>
</g>
<!-- Node3&#45;&gt;Node9 -->
<g id="edge9" class="edge">
<title>Node3&#45;&gt;Node9</title>
<path fill="none" stroke="#191970" d="M265.7293,-56.2455C260.7736,-48.5367 253.717,-37.5598 247.7224,-28.2348"/>
<polygon fill="#191970" stroke="#191970" points="250.5506,-26.1618 242.1989,-19.6427 244.6624,-29.9471 250.5506,-26.1618"/>
</g>
<!-- Node10 -->
<g id="node11" class="node">
<title>Node10</title>
<polygon fill="none" stroke="#bfbfbf" points="276.5,-.5 276.5,-19.5 341.5,-19.5 341.5,-.5 276.5,-.5"/>
<text text-anchor="middle" x="309" y="-7.5" font-family="FreeSans.ttf" font-size="10.00" fill="#000000">stdexcept</text>
</g>
<!-- Node3&#45;&gt;Node10 -->
<g id="edge10" class="edge">
<title>Node3&#45;&gt;Node10</title>
<path fill="none" stroke="#191970" d="M278.4449,-56.2455C283.5382,-48.5367 290.7908,-37.5598 296.952,-28.2348"/>
<polygon fill="#191970" stroke="#191970" points="300.0365,-29.9155 302.6289,-19.6427 294.1962,-26.0566 300.0365,-29.9155"/>
</g>
<!-- Node11 -->
<g id="node12" class="node">
<title>Node11</title>
<polygon fill="none" stroke="#bfbfbf" points="359.5,-.5 359.5,-19.5 428.5,-19.5 428.5,-.5 359.5,-.5"/>
<text text-anchor="middle" x="394" y="-7.5" font-family="FreeSans.ttf" font-size="10.00" fill="#000000">type_traits</text>
</g>
<!-- Node3&#45;&gt;Node11 -->
<g id="edge11" class="edge">
<title>Node3&#45;&gt;Node11</title>
<path fill="none" stroke="#191970" d="M292.9725,-56.3733C312.5567,-47.3838 341.9961,-33.8706 364.051,-23.7471"/>
<polygon fill="#191970" stroke="#191970" points="365.6729,-26.8538 373.3011,-19.5011 362.7527,-20.4919 365.6729,-26.8538"/>
</g>
<!-- Node12 -->
<g id="node13" class="node">
<title>Node12</title>
<polygon fill="none" stroke="#bfbfbf" points="446.5,-.5 446.5,-19.5 491.5,-19.5 491.5,-.5 446.5,-.5"/>
<text text-anchor="middle" x="469" y="-7.5" font-family="FreeSans.ttf" font-size="10.00" fill="#000000">utility</text>
</g>
<!-- Node3&#45;&gt;Node12 -->
<g id="edge12" class="edge">
<title>Node3&#45;&gt;Node12</title>
<path fill="none" stroke="#191970" d="M307.496,-56.4459C338.9453,-47.905 386.3362,-34.8509 436.5587,-20.0679"/>
<polygon fill="#191970" stroke="#191970" points="437.7028,-23.3795 446.3009,-17.1888 435.7189,-16.6665 437.7028,-23.3795"/>
</g>
<!-- Node14&#45;&gt;Node7 -->
<g id="edge18" class="edge">
<title>Node14&#45;&gt;Node7</title>
<path fill="none" stroke="#191970" d="M547.3016,-112.1391C561.4182,-98.8149 587.7878,-74.5914 612,-56 626.2882,-45.0288 643.0929,-33.7932 656.5408,-25.1726"/>
<polygon fill="#191970" stroke="#191970" points="658.6695,-27.9672 665.2424,-19.6576 654.9222,-22.0547 658.6695,-27.9672"/>
</g>
<!-- Node14&#45;&gt;Node13 -->
<g id="edge20" class="edge">
<title>Node14&#45;&gt;Node13</title>
<path fill="none" stroke="#191970" d="M508.8074,-112.3733C479.8446,-102.4835 434.8473,-87.1186 404.6738,-76.8154"/>
<polygon fill="#191970" stroke="#191970" points="405.6484,-73.4499 395.0539,-73.5306 403.3864,-80.0743 405.6484,-73.4499"/>
</g>
<!-- Node14&#45;&gt;Node15 -->
<g id="edge15" class="edge">
<title>Node14&#45;&gt;Node15</title>
<path fill="none" stroke="#191970" d="M561.7545,-112.3733C585.2849,-103.2226 620.8687,-89.3844 647.0426,-79.2057"/>
<polygon fill="#191970" stroke="#191970" points="648.5171,-82.3877 656.5685,-75.5011 645.9799,-75.8636 648.5171,-82.3877"/>
</g>
<!-- Node16 -->
<g id="node17" class="node">
<title>Node16</title>
<polygon fill="none" stroke="#bfbfbf" points="413.5,-56.5 413.5,-75.5 460.5,-75.5 460.5,-56.5 413.5,-56.5"/>
<text text-anchor="middle" x="437" y="-63.5" font-family="FreeSans.ttf" font-size="10.00" fill="#000000">vector</text>
</g>
<!-- Node14&#45;&gt;Node16 -->
<g id="edge17" class="edge">
<title>Node14&#45;&gt;Node16</title>
<path fill="none" stroke="#191970" d="M519.5813,-112.2455C503.9515,-103.4928 480.7981,-90.527 462.9815,-80.5496"/>
<polygon fill="#191970" stroke="#191970" points="464.6543,-77.475 454.2191,-75.6427 461.234,-83.5825 464.6543,-77.475"/>
</g>
<!-- Node17 -->
<g id="node18" class="node">
<title>Node17</title>
<polygon fill="none" stroke="#bfbfbf" points="479,-56.5 479,-75.5 565,-75.5 565,-56.5 479,-56.5"/>
<text text-anchor="middle" x="522" y="-63.5" font-family="FreeSans.ttf" font-size="10.00" fill="#000000">unordered_set</text>
</g>
<!-- Node14&#45;&gt;Node17 -->
<g id="edge19" class="edge">
<title>Node14&#45;&gt;Node17</title>
<path fill="none" stroke="#191970" d="M534.3872,-112.2455C532.4084,-104.8579 529.6256,-94.4689 527.1988,-85.4087"/>
<polygon fill="#191970" stroke="#191970" points="530.5511,-84.3966 524.5829,-75.6427 523.7895,-86.2078 530.5511,-84.3966"/>
</g>
<!-- Node15&#45;&gt;Node7 -->
<g id="edge16" class="edge">
<title>Node15&#45;&gt;Node7</title>
<path fill="none" stroke="#191970" d="M681,-56.2455C681,-48.9382 681,-38.6944 681,-29.7046"/>
<polygon fill="#191970" stroke="#191970" points="684.5001,-29.6426 681,-19.6427 677.5001,-29.6427 684.5001,-29.6426"/>
</g>
<!-- Node18&#45;&gt;Node7 -->
<g id="edge22" class="edge">
<title>Node18&#45;&gt;Node7</title>
<path fill="none" stroke="#191970" d="M853.5126,-168.4326C844.8805,-145.9528 820.4676,-89.1691 783,-56 764.1652,-39.326 738.2868,-27.7507 717.3096,-20.3822"/>
<polygon fill="#191970" stroke="#191970" points="718.353,-17.0407 707.7592,-17.1944 716.1366,-23.6806 718.353,-17.0407"/>
</g>
</g>
</svg>
