<?xml version="1.0" encoding="UTF-8" standalone="no"?>
<!DOCTYPE svg PUBLIC "-//W3C//DTD SVG 1.1//EN"
 "http://www.w3.org/Graphics/SVG/1.1/DTD/svg11.dtd">
<!-- Generated by graphviz version 2.40.1 (20161225.0304)
 -->
<!-- Title: ExternalWrenchesEstimation.h Pages: 1 -->
<svg width="949pt" height="162pt"
 viewBox="0.00 0.00 948.50 162.00" xmlns="http://www.w3.org/2000/svg" xmlns:xlink="http://www.w3.org/1999/xlink">
<g id="graph0" class="graph" transform="scale(1 1) rotate(0) translate(4 158)">
<title>ExternalWrenchesEstimation.h</title>
<!-- Node49 -->
<g id="node1" class="node">
<title>Node49</title>
<polygon fill="#bfbfbf" stroke="#000000" points="292,-134.5 292,-153.5 458,-153.5 458,-134.5 292,-134.5"/>
<text text-anchor="middle" x="375" y="-141.5" font-family="FreeSans.ttf" font-size="10.00" fill="#000000">ExternalWrenchesEstimation.h</text>
</g>
<!-- Node50 -->
<g id="node2" class="node">
<title>Node50</title>
<g id="a_node2"><a xlink:href="ExtWrenchesAndJointTorquesEstimator_8h.html" target="_top" xlink:title="ExtWrenchesAndJointTorques\lEstimator.h">
<polygon fill="none" stroke="#000000" points="0,-67.5 0,-97.5 158,-97.5 158,-67.5 0,-67.5"/>
<text text-anchor="start" x="8" y="-85.5" font-family="FreeSans.ttf" font-size="10.00" fill="#000000">ExtWrenchesAndJointTorques</text>
<text text-anchor="middle" x="79" y="-74.5" font-family="FreeSans.ttf" font-size="10.00" fill="#000000">Estimator.h</text>
</a>
</g>
</g>
<!-- Node49&#45;&gt;Node50 -->
<g id="edge1" class="edge">
<title>Node49&#45;&gt;Node50</title>
<path fill="none" stroke="#191970" d="M319.2643,-132.4198C271.7225,-122.542 203.0504,-108.274 151.2881,-97.5193"/>
<polygon fill="#191970" stroke="#191970" points="318.5718,-135.8506 329.0748,-134.4581 319.9959,-128.9969 318.5718,-135.8506"/>
</g>
<!-- Node51 -->
<g id="node3" class="node">
<title>Node51</title>
<g id="a_node3"><a xlink:href="ExtWrenchesAndJointTorquesEstimator_8cpp.html" target="_top" xlink:title="ExtWrenchesAndJointTorques\lEstimator.cpp">
<polygon fill="none" stroke="#000000" points="16,-.5 16,-30.5 174,-30.5 174,-.5 16,-.5"/>
<text text-anchor="start" x="24" y="-18.5" font-family="FreeSans.ttf" font-size="10.00" fill="#000000">ExtWrenchesAndJointTorques</text>
<text text-anchor="middle" x="95" y="-7.5" font-family="FreeSans.ttf" font-size="10.00" fill="#000000">Estimator.cpp</text>
</a>
</g>
</g>
<!-- Node49&#45;&gt;Node51 -->
<g id="edge7" class="edge">
<title>Node49&#45;&gt;Node51</title>
<path fill="none" stroke="#191970" d="M306.351,-132.299C274.3835,-125.1519 236.5393,-114.191 205,-98 185.6099,-88.0459 184.317,-80.2357 167,-67 150.516,-54.401 131.3949,-40.7683 117.002,-30.6958"/>
<polygon fill="#191970" stroke="#191970" points="305.9952,-135.8026 316.5081,-134.4873 307.4695,-128.9596 305.9952,-135.8026"/>
</g>
<!-- Node52 -->
<g id="node4" class="node">
<title>Node52</title>
<g id="a_node4"><a xlink:href="GravityCompensationHelpers_8h.html" target="_top" xlink:title="GravityCompensationHelpers.h">
<polygon fill="none" stroke="#000000" points="214,-73 214,-92 384,-92 384,-73 214,-73"/>
<text text-anchor="middle" x="299" y="-80" font-family="FreeSans.ttf" font-size="10.00" fill="#000000">GravityCompensationHelpers.h</text>
</a>
</g>
</g>
<!-- Node49&#45;&gt;Node52 -->
<g id="edge3" class="edge">
<title>Node49&#45;&gt;Node52</title>
<path fill="none" stroke="#191970" d="M355.066,-127.8692C341.0875,-116.5576 322.8581,-101.8062 311.0424,-92.2449"/>
<polygon fill="#191970" stroke="#191970" points="353.1496,-130.8209 363.125,-134.3906 357.553,-125.3793 353.1496,-130.8209"/>
</g>
<!-- Node54 -->
<g id="node6" class="node">
<title>Node54</title>
<g id="a_node6"><a xlink:href="BerdyHelper_8cpp.html" target="_top" xlink:title="BerdyHelper.cpp">
<polygon fill="none" stroke="#000000" points="402.5,-73 402.5,-92 499.5,-92 499.5,-73 402.5,-73"/>
<text text-anchor="middle" x="451" y="-80" font-family="FreeSans.ttf" font-size="10.00" fill="#000000">BerdyHelper.cpp</text>
</a>
</g>
</g>
<!-- Node49&#45;&gt;Node54 -->
<g id="edge5" class="edge">
<title>Node49&#45;&gt;Node54</title>
<path fill="none" stroke="#191970" d="M394.934,-127.8692C408.9125,-116.5576 427.1419,-101.8062 438.9576,-92.2449"/>
<polygon fill="#191970" stroke="#191970" points="392.447,-125.3793 386.875,-134.3906 396.8504,-130.8209 392.447,-125.3793"/>
</g>
<!-- Node55 -->
<g id="node7" class="node">
<title>Node55</title>
<g id="a_node7"><a xlink:href="ExternalWrenchesEstimation_8cpp.html" target="_top" xlink:title="ExternalWrenchesEstimation.cpp">
<polygon fill="none" stroke="#000000" points="517.5,-73 517.5,-92 694.5,-92 694.5,-73 517.5,-73"/>
<text text-anchor="middle" x="606" y="-80" font-family="FreeSans.ttf" font-size="10.00" fill="#000000">ExternalWrenchesEstimation.cpp</text>
</a>
</g>
</g>
<!-- Node49&#45;&gt;Node55 -->
<g id="edge6" class="edge">
<title>Node49&#45;&gt;Node55</title>
<path fill="none" stroke="#191970" d="M420.6714,-131.8407C464.5093,-120.1696 529.8324,-102.7784 570.0756,-92.0643"/>
<polygon fill="#191970" stroke="#191970" points="419.6032,-128.5031 410.8403,-134.4581 421.4042,-135.2675 419.6032,-128.5031"/>
</g>
<!-- Node56 -->
<g id="node8" class="node">
<title>Node56</title>
<g id="a_node8"><a xlink:href="skinDynLibConversions_8h.html" target="_top" xlink:title="skinDynLibConversions.h">
<polygon fill="none" stroke="#000000" points="713,-73 713,-92 853,-92 853,-73 713,-73"/>
<text text-anchor="middle" x="783" y="-80" font-family="FreeSans.ttf" font-size="10.00" fill="#000000">skinDynLibConversions.h</text>
</a>
</g>
</g>
<!-- Node49&#45;&gt;Node56 -->
<g id="edge8" class="edge">
<title>Node49&#45;&gt;Node56</title>
<path fill="none" stroke="#191970" d="M461.0428,-133.1776C527.3125,-124.5414 621.134,-111.6619 703,-98 713.7447,-96.2069 725.2634,-94.0902 736.1183,-92.0068"/>
<polygon fill="#191970" stroke="#191970" points="460.5262,-129.7152 451.0601,-134.4736 461.4275,-136.6569 460.5262,-129.7152"/>
</g>
<!-- Node50&#45;&gt;Node51 -->
<g id="edge2" class="edge">
<title>Node50&#45;&gt;Node51</title>
<path fill="none" stroke="#191970" d="M85.0136,-57.3179C87.1573,-48.3414 89.5041,-38.5143 91.3837,-30.6432"/>
<polygon fill="#191970" stroke="#191970" points="81.5492,-56.7572 82.6306,-67.2967 88.3577,-58.3831 81.5492,-56.7572"/>
</g>
<!-- Node53 -->
<g id="node5" class="node">
<title>Node53</title>
<g id="a_node5"><a xlink:href="GravityCompensationHelpers_8cpp.html" target="_top" xlink:title="GravityCompensationHelpers.cpp">
<polygon fill="none" stroke="#000000" points="208.5,-6 208.5,-25 389.5,-25 389.5,-6 208.5,-6"/>
<text text-anchor="middle" x="299" y="-13" font-family="FreeSans.ttf" font-size="10.00" fill="#000000">GravityCompensationHelpers.cpp</text>
</a>
</g>
</g>
<!-- Node52&#45;&gt;Node53 -->
<g id="edge4" class="edge">
<title>Node52&#45;&gt;Node53</title>
<path fill="none" stroke="#191970" d="M299,-62.6079C299,-50.214 299,-34.8263 299,-25.0817"/>
<polygon fill="#191970" stroke="#191970" points="295.5001,-62.9005 299,-72.9005 302.5001,-62.9006 295.5001,-62.9005"/>
</g>
<!-- Node57 -->
<g id="node9" class="node">
<title>Node57</title>
<g id="a_node9"><a xlink:href="iCub_2skinDynLibConversions_8h.html" target="_top" xlink:title="skinDynLibConversions.h">
<polygon fill="none" stroke="#000000" points="631,-6 631,-25 771,-25 771,-6 631,-6"/>
<text text-anchor="middle" x="701" y="-13" font-family="FreeSans.ttf" font-size="10.00" fill="#000000">skinDynLibConversions.h</text>
</a>
</g>
</g>
<!-- Node56&#45;&gt;Node57 -->
<g id="edge9" class="edge">
<title>Node56&#45;&gt;Node57</title>
<path fill="none" stroke="#191970" d="M763.1721,-66.2992C747.4011,-53.4131 725.8701,-35.8207 712.7268,-25.0817"/>
<polygon fill="#191970" stroke="#191970" points="761.2931,-69.2836 771.2514,-72.9005 765.7221,-63.8629 761.2931,-69.2836"/>
</g>
<!-- Node58 -->
<g id="node10" class="node">
<title>Node58</title>
<g id="a_node10"><a xlink:href="skinDynLibConversions_8cpp.html" target="_top" xlink:title="skinDynLibConversions.cpp">
<polygon fill="none" stroke="#000000" points="789.5,-6 789.5,-25 940.5,-25 940.5,-6 789.5,-6"/>
<text text-anchor="middle" x="865" y="-13" font-family="FreeSans.ttf" font-size="10.00" fill="#000000">skinDynLibConversions.cpp</text>
</a>
</g>
</g>
<!-- Node56&#45;&gt;Node58 -->
<g id="edge10" class="edge">
<title>Node56&#45;&gt;Node58</title>
<path fill="none" stroke="#191970" d="M802.8279,-66.2992C818.5989,-53.4131 840.1299,-35.8207 853.2732,-25.0817"/>
<polygon fill="#191970" stroke="#191970" points="800.2779,-63.8629 794.7486,-72.9005 804.7069,-69.2836 800.2779,-63.8629"/>
</g>
</g>
</svg>
