<?xml version="1.0" encoding="UTF-8" standalone="no"?>
<!DOCTYPE svg PUBLIC "-//W3C//DTD SVG 1.1//EN"
 "http://www.w3.org/Graphics/SVG/1.1/DTD/svg11.dtd">
<!-- Generated by graphviz version 2.40.1 (20161225.0304)
 -->
<!-- Title: ExtWrenchesAndJointTorquesEstimator.h Pages: 1 -->
<svg width="2334pt" height="833pt"
 viewBox="0.00 0.00 2334.00 833.00" xmlns="http://www.w3.org/2000/svg" xmlns:xlink="http://www.w3.org/1999/xlink">
<g id="graph0" class="graph" transform="scale(1 1) rotate(0) translate(4 829)">
<title>ExtWrenchesAndJointTorquesEstimator.h</title>
<!-- Node0 -->
<g id="node1" class="node">
<title>Node0</title>
<polygon fill="#bfbfbf" stroke="#000000" points="1042.5,-794.5 1042.5,-824.5 1200.5,-824.5 1200.5,-794.5 1042.5,-794.5"/>
<text text-anchor="start" x="1050.5" y="-812.5" font-family="FreeSans.ttf" font-size="10.00" fill="#000000">ExtWrenchesAndJointTorques</text>
<text text-anchor="middle" x="1121.5" y="-801.5" font-family="FreeSans.ttf" font-size="10.00" fill="#000000">Estimator.h</text>
</g>
<!-- Node1 -->
<g id="node2" class="node">
<title>Node1</title>
<g id="a_node2"><a xlink:href="ExternalWrenchesEstimation_8h.html" target="_top" xlink:title="iDynTree/Estimation\l/ExternalWrenchesEstimation.h">
<polygon fill="none" stroke="#000000" points="1388,-615.5 1388,-645.5 1557,-645.5 1557,-615.5 1388,-615.5"/>
<text text-anchor="start" x="1396" y="-633.5" font-family="FreeSans.ttf" font-size="10.00" fill="#000000">iDynTree/Estimation</text>
<text text-anchor="middle" x="1472.5" y="-622.5" font-family="FreeSans.ttf" font-size="10.00" fill="#000000">/ExternalWrenchesEstimation.h</text>
</a>
</g>
</g>
<!-- Node0&#45;&gt;Node1 -->
<g id="edge1" class="edge">
<title>Node0&#45;&gt;Node1</title>
<path fill="none" stroke="#191970" d="M1153.4717,-794.4495C1174.8078,-784.3229 1203.4398,-770.5741 1228.5,-758 1302.392,-720.9244 1387.8221,-675.744 1435.4659,-650.3366"/>
<polygon fill="#191970" stroke="#191970" points="1437.3025,-653.3237 1444.4762,-645.527 1434.0061,-647.1484 1437.3025,-653.3237"/>
</g>
<!-- Node50 -->
<g id="node38" class="node">
<title>Node50</title>
<g id="a_node38"><a xlink:href="Model_8h.html" target="_top" xlink:title="iDynTree/Model/Model.h">
<polygon fill="none" stroke="#000000" points="933,-682.5 933,-701.5 1066,-701.5 1066,-682.5 933,-682.5"/>
<text text-anchor="middle" x="999.5" y="-689.5" font-family="FreeSans.ttf" font-size="10.00" fill="#000000">iDynTree/Model/Model.h</text>
</a>
</g>
</g>
<!-- Node0&#45;&gt;Node50 -->
<g id="edge83" class="edge">
<title>Node0&#45;&gt;Node50</title>
<path fill="none" stroke="#191970" d="M1088.9201,-794.4541C1072.1356,-785.5595 1052.1711,-773.0816 1037.5,-758 1024.2947,-744.4252 1013.9704,-725.3795 1007.4372,-711.2346"/>
<polygon fill="#191970" stroke="#191970" points="1010.5862,-709.7003 1003.363,-701.9493 1004.1761,-712.5129 1010.5862,-709.7003"/>
</g>
<!-- Node59 -->
<g id="node44" class="node">
<title>Node59</title>
<g id="a_node44"><a xlink:href="SubModel_8h.html" target="_top" xlink:title="iDynTree/Model/SubModel.h">
<polygon fill="none" stroke="#000000" points="0,-554 0,-573 151,-573 151,-554 0,-554"/>
<text text-anchor="middle" x="75.5" y="-561" font-family="FreeSans.ttf" font-size="10.00" fill="#000000">iDynTree/Model/SubModel.h</text>
</a>
</g>
</g>
<!-- Node0&#45;&gt;Node59 -->
<g id="edge102" class="edge">
<title>Node0&#45;&gt;Node59</title>
<path fill="none" stroke="#191970" d="M1042.284,-804.63C943.8208,-797.8115 770.8797,-783.3219 624.5,-758 417.5878,-722.2067 350.7137,-744.943 165.5,-646 134.5335,-629.4574 105.9627,-599.7854 89.6505,-580.8986"/>
<polygon fill="#191970" stroke="#191970" points="92.1726,-578.4599 83.0537,-573.0656 86.8184,-582.9691 92.1726,-578.4599"/>
</g>
<!-- Node60 -->
<g id="node45" class="node">
<title>Node60</title>
<g id="a_node45"><a xlink:href="ContactWrench_8h.html" target="_top" xlink:title="iDynTree/Model/ContactWrench.h">
<polygon fill="none" stroke="#000000" points="1193,-621 1193,-640 1370,-640 1370,-621 1193,-621"/>
<text text-anchor="middle" x="1281.5" y="-628" font-family="FreeSans.ttf" font-size="10.00" fill="#000000">iDynTree/Model/ContactWrench.h</text>
</a>
</g>
</g>
<!-- Node0&#45;&gt;Node60 -->
<g id="edge107" class="edge">
<title>Node0&#45;&gt;Node60</title>
<path fill="none" stroke="#191970" d="M1154.4168,-794.4723C1171.3866,-785.5828 1191.5912,-773.104 1206.5,-758 1238.6718,-725.4069 1262.4155,-676.3536 1273.8618,-649.5878"/>
<polygon fill="#191970" stroke="#191970" points="1277.1584,-650.7754 1277.761,-640.1977 1270.6936,-648.0909 1277.1584,-650.7754"/>
</g>
<!-- Node61 -->
<g id="node46" class="node">
<title>Node61</title>
<g id="a_node46"><a xlink:href="Traversal_8h.html" target="_top" xlink:title="iDynTree/Model/Traversal.h">
<polygon fill="none" stroke="#000000" points="321.5,-554 321.5,-573 469.5,-573 469.5,-554 321.5,-554"/>
<text text-anchor="middle" x="395.5" y="-561" font-family="FreeSans.ttf" font-size="10.00" fill="#000000">iDynTree/Model/Traversal.h</text>
</a>
</g>
</g>
<!-- Node0&#45;&gt;Node61 -->
<g id="edge113" class="edge">
<title>Node0&#45;&gt;Node61</title>
<path fill="none" stroke="#191970" d="M1042.4871,-805.4359C957.483,-799.7603 818.8378,-786.7182 702.5,-758 634.2205,-741.1451 614.852,-738.1083 554.5,-702 495.8855,-666.9313 438.2506,-609.4098 411.3035,-580.7929"/>
<polygon fill="#191970" stroke="#191970" points="413.6239,-578.1487 404.2491,-573.2127 408.4996,-582.9175 413.6239,-578.1487"/>
</g>
<!-- Node62 -->
<g id="node47" class="node">
<title>Node62</title>
<g id="a_node47"><a xlink:href="JointState_8h.html" target="_top" xlink:title="iDynTree/Model/JointState.h">
<polygon fill="none" stroke="#000000" points="2044,-554 2044,-573 2195,-573 2195,-554 2044,-554"/>
<text text-anchor="middle" x="2119.5" y="-561" font-family="FreeSans.ttf" font-size="10.00" fill="#000000">iDynTree/Model/JointState.h</text>
</a>
</g>
</g>
<!-- Node0&#45;&gt;Node62 -->
<g id="edge116" class="edge">
<title>Node0&#45;&gt;Node62</title>
<path fill="none" stroke="#191970" d="M1184.945,-794.457C1304.77,-765.9791 1572.5399,-702.0208 1797.5,-646 1895.6336,-621.5622 2010.3039,-591.9222 2072.8846,-575.6539"/>
<polygon fill="#191970" stroke="#191970" points="2074.0432,-578.9691 2082.8401,-573.0645 2072.2811,-572.1945 2074.0432,-578.9691"/>
</g>
<!-- Node63 -->
<g id="node48" class="node">
<title>Node63</title>
<g id="a_node48"><a xlink:href="FreeFloatingState_8h.html" target="_top" xlink:title="iDynTree/Model/FreeFloating\lState.h">
<polygon fill="none" stroke="#000000" points="1575.5,-615.5 1575.5,-645.5 1729.5,-645.5 1729.5,-615.5 1575.5,-615.5"/>
<text text-anchor="start" x="1583.5" y="-633.5" font-family="FreeSans.ttf" font-size="10.00" fill="#000000">iDynTree/Model/FreeFloating</text>
<text text-anchor="middle" x="1652.5" y="-622.5" font-family="FreeSans.ttf" font-size="10.00" fill="#000000">State.h</text>
</a>
</g>
</g>
<!-- Node0&#45;&gt;Node63 -->
<g id="edge121" class="edge">
<title>Node0&#45;&gt;Node63</title>
<path fill="none" stroke="#191970" d="M1166.3151,-794.3928C1263.4452,-761.6503 1493.0659,-684.2452 1598.2137,-648.7999"/>
<polygon fill="#191970" stroke="#191970" points="1599.6341,-652.0147 1607.9921,-645.5036 1597.398,-645.3814 1599.6341,-652.0147"/>
</g>
<!-- Node64 -->
<g id="node49" class="node">
<title>Node64</title>
<g id="a_node49"><a xlink:href="LinkTraversalsCache_8h.html" target="_top" xlink:title="iDynTree/Model/LinkTraversals\lCache.h">
<polygon fill="none" stroke="#000000" points="525.5,-548.5 525.5,-578.5 689.5,-578.5 689.5,-548.5 525.5,-548.5"/>
<text text-anchor="start" x="533.5" y="-566.5" font-family="FreeSans.ttf" font-size="10.00" fill="#000000">iDynTree/Model/LinkTraversals</text>
<text text-anchor="middle" x="607.5" y="-555.5" font-family="FreeSans.ttf" font-size="10.00" fill="#000000">Cache.h</text>
</a>
</g>
</g>
<!-- Node0&#45;&gt;Node64 -->
<g id="edge129" class="edge">
<title>Node0&#45;&gt;Node64</title>
<path fill="none" stroke="#191970" d="M1042.212,-800.246C891.6504,-780.8684 573.5465,-730.6698 508.5,-646 489.0021,-620.62 522.2074,-597.8437 555.3037,-582.6862"/>
<polygon fill="#191970" stroke="#191970" points="556.8367,-585.8359 564.5919,-578.6172 554.0278,-579.4241 556.8367,-585.8359"/>
</g>
<!-- Node65 -->
<g id="node50" class="node">
<title>Node65</title>
<g id="a_node50"><a xlink:href="Sensors_8h.html" target="_top" xlink:title="iDynTree/Sensors/Sensors.h">
<polygon fill="none" stroke="#000000" points="1046,-738.5 1046,-757.5 1197,-757.5 1197,-738.5 1046,-738.5"/>
<text text-anchor="middle" x="1121.5" y="-745.5" font-family="FreeSans.ttf" font-size="10.00" fill="#000000">iDynTree/Sensors/Sensors.h</text>
</a>
</g>
</g>
<!-- Node0&#45;&gt;Node65 -->
<g id="edge132" class="edge">
<title>Node0&#45;&gt;Node65</title>
<path fill="none" stroke="#191970" d="M1121.5,-794.2977C1121.5,-786.3834 1121.5,-776.6043 1121.5,-768.0759"/>
<polygon fill="#191970" stroke="#191970" points="1125.0001,-767.8469 1121.5,-757.8469 1118.0001,-767.847 1125.0001,-767.8469"/>
</g>
<!-- Node2 -->
<g id="node3" class="node">
<title>Node2</title>
<g id="a_node3"><a xlink:href="Direction_8h.html" target="_top" xlink:title="iDynTree/Core/Direction.h">
<polygon fill="none" stroke="#000000" points="1550,-235.5 1550,-254.5 1691,-254.5 1691,-235.5 1550,-235.5"/>
<text text-anchor="middle" x="1620.5" y="-242.5" font-family="FreeSans.ttf" font-size="10.00" fill="#000000">iDynTree/Core/Direction.h</text>
</a>
</g>
</g>
<!-- Node1&#45;&gt;Node2 -->
<g id="edge2" class="edge">
<title>Node1&#45;&gt;Node2</title>
<path fill="none" stroke="#191970" d="M1504.1421,-615.4839C1518.3158,-606.9409 1533.5935,-594.7673 1541.5,-579 1547.6759,-566.6839 1547.8387,-560.2331 1541.5,-548 1528.7356,-523.3657 1505.2992,-535.4683 1490.5,-512 1453.6537,-453.5697 1438.5747,-419.7687 1469.5,-358 1493.9903,-309.0843 1550.8275,-275.8872 1587.3605,-258.726"/>
<polygon fill="#191970" stroke="#191970" points="1588.9769,-261.8359 1596.6305,-254.5097 1586.0787,-255.464 1588.9769,-261.8359"/>
</g>
<!-- Node4 -->
<g id="node5" class="node">
<title>Node4</title>
<g id="a_node5"><a xlink:href="VectorFixSize_8h.html" target="_top" xlink:title="iDynTree/Core/VectorFixSize.h">
<polygon fill="none" stroke="#000000" points="2004,-174 2004,-193 2165,-193 2165,-174 2004,-174"/>
<text text-anchor="middle" x="2084.5" y="-181" font-family="FreeSans.ttf" font-size="10.00" fill="#000000">iDynTree/Core/VectorFixSize.h</text>
</a>
</g>
</g>
<!-- Node1&#45;&gt;Node4 -->
<g id="edge43" class="edge">
<title>Node1&#45;&gt;Node4</title>
<path fill="none" stroke="#191970" d="M1557.2451,-616.0976C1560.3659,-615.7036 1563.4586,-615.3356 1566.5,-615 1637.0733,-607.213 2141.4759,-611.6986 2204.5,-579 2243.2542,-558.8932 2265.5,-545.6597 2265.5,-502 2265.5,-502 2265.5,-502 2265.5,-373.5 2265.5,-302.6348 2241.0749,-280.2046 2186.5,-235 2166.849,-218.723 2141.1943,-205.8011 2120.5303,-196.9721"/>
<polygon fill="#191970" stroke="#191970" points="2121.7105,-193.6728 2111.1318,-193.0882 2119.037,-200.1422 2121.7105,-193.6728"/>
</g>
<!-- Node18 -->
<g id="node14" class="node">
<title>Node18</title>
<g id="a_node14"><a xlink:href="Position_8h.html" target="_top" xlink:title="iDynTree/Core/Position.h">
<polygon fill="none" stroke="#000000" points="1031.5,-297 1031.5,-316 1167.5,-316 1167.5,-297 1031.5,-297"/>
<text text-anchor="middle" x="1099.5" y="-304" font-family="FreeSans.ttf" font-size="10.00" fill="#000000">iDynTree/Core/Position.h</text>
</a>
</g>
</g>
<!-- Node1&#45;&gt;Node18 -->
<g id="edge17" class="edge">
<title>Node1&#45;&gt;Node18</title>
<path fill="none" stroke="#191970" d="M1437.9249,-615.4381C1418.4624,-606.2142 1394.1899,-593.4269 1374.5,-579 1262.6993,-497.0832 1152.5795,-370.326 1113.9737,-324.1181"/>
<polygon fill="#191970" stroke="#191970" points="1116.4992,-321.6806 1107.4193,-316.2212 1111.1129,-326.1514 1116.4992,-321.6806"/>
</g>
<!-- Node26 -->
<g id="node21" class="node">
<title>Node26</title>
<g id="a_node21"><a xlink:href="MatrixDynSize_8h.html" target="_top" xlink:title="iDynTree/Core/MatrixDynSize.h">
<polygon fill="none" stroke="#000000" points="667,-431 667,-450 834,-450 834,-431 667,-431"/>
<text text-anchor="middle" x="750.5" y="-438" font-family="FreeSans.ttf" font-size="10.00" fill="#000000">iDynTree/Core/MatrixDynSize.h</text>
</a>
</g>
</g>
<!-- Node1&#45;&gt;Node26 -->
<g id="edge38" class="edge">
<title>Node1&#45;&gt;Node26</title>
<path fill="none" stroke="#191970" d="M1432.0524,-615.4795C1406.0003,-605.589 1371.515,-592.0924 1341.5,-579 1259.6894,-543.3147 1246.1165,-517.2237 1160.5,-492 1103.1426,-475.1018 946.6358,-458.3737 844.426,-448.7594"/>
<polygon fill="#191970" stroke="#191970" points="844.6839,-445.2683 834.4016,-447.8228 844.0327,-452.238 844.6839,-445.2683"/>
</g>
<!-- Node27 -->
<g id="node22" class="node">
<title>Node27</title>
<g id="a_node22"><a xlink:href="VectorDynSize_8h.html" target="_top" xlink:title="iDynTree/Core/VectorDynSize.h">
<polygon fill="none" stroke="#000000" points="1995,-492.5 1995,-511.5 2162,-511.5 2162,-492.5 1995,-492.5"/>
<text text-anchor="middle" x="2078.5" y="-499.5" font-family="FreeSans.ttf" font-size="10.00" fill="#000000">iDynTree/Core/VectorDynSize.h</text>
</a>
</g>
</g>
<!-- Node1&#45;&gt;Node27 -->
<g id="edge40" class="edge">
<title>Node1&#45;&gt;Node27</title>
<path fill="none" stroke="#191970" d="M1557.0337,-616.4488C1560.2287,-615.9534 1563.3926,-615.4688 1566.5,-615 1683.1588,-597.401 1721.3069,-626.0454 1829.5,-579 1849.488,-570.3086 1847.8689,-557.4701 1867.5,-548 1903.9231,-530.4293 1947.1108,-519.4988 1984.8969,-512.7323"/>
<polygon fill="#191970" stroke="#191970" points="1985.6254,-516.1585 1994.8886,-511.0163 1984.4405,-509.2595 1985.6254,-516.1585"/>
</g>
<!-- Node28 -->
<g id="node23" class="node">
<title>Node28</title>
<g id="a_node23"><a xlink:href="Indices_8h.html" target="_top" xlink:title="iDynTree/Model/Indices.h">
<polygon fill="none" stroke="#000000" points="377.5,-492.5 377.5,-511.5 515.5,-511.5 515.5,-492.5 377.5,-492.5"/>
<text text-anchor="middle" x="446.5" y="-499.5" font-family="FreeSans.ttf" font-size="10.00" fill="#000000">iDynTree/Model/Indices.h</text>
</a>
</g>
</g>
<!-- Node1&#45;&gt;Node28 -->
<g id="edge44" class="edge">
<title>Node1&#45;&gt;Node28</title>
<path fill="none" stroke="#191970" d="M1387.9059,-616.0131C1385.073,-615.6518 1382.2651,-615.3125 1379.5,-615 1246.7718,-599.9996 905.7973,-622.4829 779.5,-579 756.5365,-571.0939 757.0466,-557.0265 734.5,-548 697.5739,-533.2167 597.4987,-519.2532 525.6931,-510.6713"/>
<polygon fill="#191970" stroke="#191970" points="526.1,-507.1951 515.7581,-509.4965 525.2779,-514.1467 526.1,-507.1951"/>
</g>
<!-- Node29 -->
<g id="node24" class="node">
<title>Node29</title>
<g id="a_node24"><a xlink:href="LinkState_8h.html" target="_top" xlink:title="iDynTree/Model/LinkState.h">
<polygon fill="none" stroke="#000000" points="1383,-554 1383,-573 1532,-573 1532,-554 1383,-554"/>
<text text-anchor="middle" x="1457.5" y="-561" font-family="FreeSans.ttf" font-size="10.00" fill="#000000">iDynTree/Model/LinkState.h</text>
</a>
</g>
</g>
<!-- Node1&#45;&gt;Node29 -->
<g id="edge46" class="edge">
<title>Node1&#45;&gt;Node29</title>
<path fill="none" stroke="#191970" d="M1469.0963,-615.2967C1466.9634,-605.7699 1464.193,-593.3954 1461.8949,-583.1306"/>
<polygon fill="#191970" stroke="#191970" points="1465.2394,-582.0487 1459.6392,-573.055 1458.4085,-583.5781 1465.2394,-582.0487"/>
</g>
<!-- Node49 -->
<g id="node37" class="node">
<title>Node49</title>
<polygon fill="none" stroke="#bfbfbf" points="1104,-492.5 1104,-511.5 1151,-511.5 1151,-492.5 1104,-492.5"/>
<text text-anchor="middle" x="1127.5" y="-499.5" font-family="FreeSans.ttf" font-size="10.00" fill="#000000">vector</text>
</g>
<!-- Node1&#45;&gt;Node49 -->
<g id="edge82" class="edge">
<title>Node1&#45;&gt;Node49</title>
<path fill="none" stroke="#191970" d="M1387.9883,-615.6964C1349.6974,-607.426 1304.3946,-595.4177 1265.5,-579 1241.4113,-568.832 1238.2123,-560.9539 1215.5,-548 1195.9158,-536.8302 1173.3749,-525.0678 1156.0094,-516.2333"/>
<polygon fill="#191970" stroke="#191970" points="1157.4492,-513.0393 1146.9459,-511.6488 1154.2896,-519.2857 1157.4492,-513.0393"/>
</g>
<!-- Node3 -->
<g id="node4" class="node">
<title>Node3</title>
<polygon fill="none" stroke="#bfbfbf" points="988.5,-56.5 988.5,-75.5 1032.5,-75.5 1032.5,-56.5 988.5,-56.5"/>
<text text-anchor="middle" x="1010.5" y="-63.5" font-family="FreeSans.ttf" font-size="10.00" fill="#000000">string</text>
</g>
<!-- Node2&#45;&gt;Node3 -->
<g id="edge3" class="edge">
<title>Node2&#45;&gt;Node3</title>
<path fill="none" stroke="#191970" d="M1610.9067,-235.3265C1594.4228,-219.2087 1559.0527,-186.7783 1523.5,-168 1475.7678,-142.7887 1458.9658,-148.2864 1407.5,-132 1379.8954,-123.2645 1373.7288,-118.4386 1345.5,-112 1235.8928,-87 1102.8088,-73.6618 1042.7064,-68.5277"/>
<polygon fill="#191970" stroke="#191970" points="1042.9474,-65.0357 1032.6907,-67.6909 1042.3645,-72.0114 1042.9474,-65.0357"/>
</g>
<!-- Node2&#45;&gt;Node4 -->
<g id="edge4" class="edge">
<title>Node2&#45;&gt;Node4</title>
<path fill="none" stroke="#191970" d="M1691.224,-235.626C1775.0121,-224.5205 1914.3471,-206.0526 2002.7021,-194.3418"/>
<polygon fill="#191970" stroke="#191970" points="2003.2309,-197.8024 2012.6843,-193.0187 2002.3111,-190.863 2003.2309,-197.8024"/>
</g>
<!-- Node5 -->
<g id="node6" class="node">
<title>Node5</title>
<g id="a_node6"><a xlink:href="Utils_8h.html" target="_top" xlink:title="iDynTree/Core/Utils.h">
<polygon fill="none" stroke="#000000" points="1782,-56.5 1782,-75.5 1901,-75.5 1901,-56.5 1782,-56.5"/>
<text text-anchor="middle" x="1841.5" y="-63.5" font-family="FreeSans.ttf" font-size="10.00" fill="#000000">iDynTree/Core/Utils.h</text>
</a>
</g>
</g>
<!-- Node2&#45;&gt;Node5 -->
<g id="edge16" class="edge">
<title>Node2&#45;&gt;Node5</title>
<path fill="none" stroke="#191970" d="M1668.5379,-235.4924C1721.0663,-222.2661 1802.7837,-192.7338 1840.5,-132 1848.9913,-118.3266 1848.4662,-99.7902 1846.2623,-85.8427"/>
<polygon fill="#191970" stroke="#191970" points="1849.6535,-84.9496 1844.2751,-75.8215 1842.7872,-86.3113 1849.6535,-84.9496"/>
</g>
<!-- Node4&#45;&gt;Node3 -->
<g id="edge12" class="edge">
<title>Node4&#45;&gt;Node3</title>
<path fill="none" stroke="#191970" d="M2003.7366,-177.0705C1899.3326,-168.1714 1723.5655,-151.0294 1661.5,-132 1642.8761,-126.2899 1641.2507,-117.2791 1622.5,-112 1511.8283,-80.8414 1152.8145,-69.526 1042.8268,-66.7413"/>
<polygon fill="#191970" stroke="#191970" points="1042.7692,-63.2389 1032.6859,-66.4911 1042.5965,-70.2368 1042.7692,-63.2389"/>
</g>
<!-- Node4&#45;&gt;Node5 -->
<g id="edge5" class="edge">
<title>Node4&#45;&gt;Node5</title>
<path fill="none" stroke="#191970" d="M2067.2639,-173.7685C2041.8282,-159.5464 1992.5927,-132.5438 1949.5,-112 1924.9323,-100.2877 1896.6061,-88.277 1875.1286,-79.4665"/>
<polygon fill="#191970" stroke="#191970" points="1876.362,-76.1897 1865.7806,-75.6562 1873.7198,-82.6719 1876.362,-76.1897"/>
</g>
<!-- Node7 -->
<g id="node8" class="node">
<title>Node7</title>
<g id="a_node8"><a xlink:href="Span_8h.html" target="_top" xlink:title="iDynTree/Core/Span.h">
<polygon fill="none" stroke="#ff0000" points="2154,-112.5 2154,-131.5 2275,-131.5 2275,-112.5 2154,-112.5"/>
<text text-anchor="middle" x="2214.5" y="-119.5" font-family="FreeSans.ttf" font-size="10.00" fill="#000000">iDynTree/Core/Span.h</text>
</a>
</g>
</g>
<!-- Node4&#45;&gt;Node7 -->
<g id="edge7" class="edge">
<title>Node4&#45;&gt;Node7</title>
<path fill="none" stroke="#191970" d="M2104.8125,-173.8906C2126.3731,-163.6908 2160.6478,-147.4763 2185.1444,-135.8875"/>
<polygon fill="#191970" stroke="#191970" points="2186.7874,-138.9822 2194.3301,-131.5419 2183.7939,-132.6545 2186.7874,-138.9822"/>
</g>
<!-- Node8 -->
<g id="node9" class="node">
<title>Node8</title>
<polygon fill="none" stroke="#bfbfbf" points="2075.5,-56.5 2075.5,-75.5 2127.5,-75.5 2127.5,-56.5 2075.5,-56.5"/>
<text text-anchor="middle" x="2101.5" y="-63.5" font-family="FreeSans.ttf" font-size="10.00" fill="#000000">cassert</text>
</g>
<!-- Node4&#45;&gt;Node8 -->
<g id="edge14" class="edge">
<title>Node4&#45;&gt;Node8</title>
<path fill="none" stroke="#191970" d="M2088.7136,-173.8598C2092.9142,-163.6827 2099.0787,-147.0597 2101.5,-132 2103.9479,-116.7751 2103.8221,-99.3181 2103.1521,-86.1832"/>
<polygon fill="#191970" stroke="#191970" points="2106.6256,-85.6654 2102.4742,-75.9178 2099.6408,-86.1267 2106.6256,-85.6654"/>
</g>
<!-- Node16 -->
<g id="node12" class="node">
<title>Node16</title>
<polygon fill="none" stroke="#bfbfbf" points="1987.5,-56.5 1987.5,-75.5 2043.5,-75.5 2043.5,-56.5 1987.5,-56.5"/>
<text text-anchor="middle" x="2015.5" y="-63.5" font-family="FreeSans.ttf" font-size="10.00" fill="#000000">sstream</text>
</g>
<!-- Node4&#45;&gt;Node16 -->
<g id="edge13" class="edge">
<title>Node4&#45;&gt;Node16</title>
<path fill="none" stroke="#191970" d="M2083.2447,-173.5982C2081.0641,-159.1639 2075.596,-131.8996 2063.5,-112 2056.5446,-100.5573 2046.0352,-90.0386 2036.6216,-81.9565"/>
<polygon fill="#191970" stroke="#191970" points="2038.7053,-79.1391 2028.748,-75.5192 2034.2746,-84.5585 2038.7053,-79.1391"/>
</g>
<!-- Node17 -->
<g id="node13" class="node">
<title>Node17</title>
<polygon fill="none" stroke="#bfbfbf" points="1919.5,-56.5 1919.5,-75.5 1969.5,-75.5 1969.5,-56.5 1919.5,-56.5"/>
<text text-anchor="middle" x="1944.5" y="-63.5" font-family="FreeSans.ttf" font-size="10.00" fill="#000000">cstring</text>
</g>
<!-- Node4&#45;&gt;Node17 -->
<g id="edge15" class="edge">
<title>Node4&#45;&gt;Node17</title>
<path fill="none" stroke="#191970" d="M2073.0432,-173.8845C2049.1493,-153.8306 1993.7615,-107.3445 1964.0939,-82.4449"/>
<polygon fill="#191970" stroke="#191970" points="1966.0249,-79.4962 1956.1151,-75.7484 1961.5248,-84.858 1966.0249,-79.4962"/>
</g>
<!-- Node6 -->
<g id="node7" class="node">
<title>Node6</title>
<polygon fill="none" stroke="#bfbfbf" points="1815,-.5 1815,-19.5 1868,-19.5 1868,-.5 1815,-.5"/>
<text text-anchor="middle" x="1841.5" y="-7.5" font-family="FreeSans.ttf" font-size="10.00" fill="#000000">cstddef</text>
</g>
<!-- Node5&#45;&gt;Node6 -->
<g id="edge6" class="edge">
<title>Node5&#45;&gt;Node6</title>
<path fill="none" stroke="#191970" d="M1841.5,-56.2455C1841.5,-48.9382 1841.5,-38.6944 1841.5,-29.7046"/>
<polygon fill="#191970" stroke="#191970" points="1845.0001,-29.6426 1841.5,-19.6427 1838.0001,-29.6427 1845.0001,-29.6426"/>
</g>
<!-- Node7&#45;&gt;Node6 -->
<g id="edge10" class="edge">
<title>Node7&#45;&gt;Node6</title>
<path fill="none" stroke="#191970" d="M2218.97,-112.0935C2224.6553,-97.8149 2232.1975,-71.4704 2218.5,-56 2196.1373,-30.7428 1968.6081,-16.4709 1878.2247,-11.7614"/>
<polygon fill="#191970" stroke="#191970" points="1878.3206,-8.2618 1868.155,-11.2469 1877.9634,-15.2527 1878.3206,-8.2618"/>
</g>
<!-- Node7&#45;&gt;Node8 -->
<g id="edge8" class="edge">
<title>Node7&#45;&gt;Node8</title>
<path fill="none" stroke="#191970" d="M2195.0746,-112.3733C2177.0979,-103.4644 2150.1559,-90.1127 2129.791,-80.0203"/>
<polygon fill="#191970" stroke="#191970" points="2131.1861,-76.8055 2120.6719,-75.5011 2128.0778,-83.0776 2131.1861,-76.8055"/>
</g>
<!-- Node9 -->
<g id="node10" class="node">
<title>Node9</title>
<polygon fill="none" stroke="#bfbfbf" points="2145.5,-56.5 2145.5,-75.5 2209.5,-75.5 2209.5,-56.5 2145.5,-56.5"/>
<text text-anchor="middle" x="2177.5" y="-63.5" font-family="FreeSans.ttf" font-size="10.00" fill="#000000">algorithm</text>
</g>
<!-- Node7&#45;&gt;Node9 -->
<g id="edge9" class="edge">
<title>Node7&#45;&gt;Node9</title>
<path fill="none" stroke="#191970" d="M2208.0551,-112.2455C2202.9618,-104.5367 2195.7092,-93.5598 2189.548,-84.2348"/>
<polygon fill="#191970" stroke="#191970" points="2192.3038,-82.0566 2183.8711,-75.6427 2186.4635,-85.9155 2192.3038,-82.0566"/>
</g>
<!-- Node11 -->
<g id="node11" class="node">
<title>Node11</title>
<polygon fill="none" stroke="#bfbfbf" points="2273,-56.5 2273,-75.5 2326,-75.5 2326,-56.5 2273,-56.5"/>
<text text-anchor="middle" x="2299.5" y="-63.5" font-family="FreeSans.ttf" font-size="10.00" fill="#000000">iterator</text>
</g>
<!-- Node7&#45;&gt;Node11 -->
<g id="edge11" class="edge">
<title>Node7&#45;&gt;Node11</title>
<path fill="none" stroke="#191970" d="M2229.3059,-112.2455C2242.2256,-103.7337 2261.1931,-91.2375 2276.1552,-81.3801"/>
<polygon fill="#191970" stroke="#191970" points="2278.4387,-84.067 2284.8638,-75.6427 2274.5876,-78.2216 2278.4387,-84.067"/>
</g>
<!-- Node18&#45;&gt;Node3 -->
<g id="edge37" class="edge">
<title>Node18&#45;&gt;Node3</title>
<path fill="none" stroke="#191970" d="M1057.5179,-296.9139C1020.048,-287.4071 969.3172,-271.8562 957.5,-255 919.2677,-200.465 970.3002,-119.0437 996.5856,-83.5718"/>
<polygon fill="#191970" stroke="#191970" points="999.3916,-85.6641 1002.6658,-75.5879 993.8226,-81.423 999.3916,-85.6641"/>
</g>
<!-- Node19 -->
<g id="node15" class="node">
<title>Node19</title>
<g id="a_node15"><a xlink:href="PositionRaw_8h.html" target="_top" xlink:title="iDynTree/Core/PositionRaw.h">
<polygon fill="none" stroke="#000000" points="966.5,-235.5 966.5,-254.5 1122.5,-254.5 1122.5,-235.5 966.5,-235.5"/>
<text text-anchor="middle" x="1044.5" y="-242.5" font-family="FreeSans.ttf" font-size="10.00" fill="#000000">iDynTree/Core/PositionRaw.h</text>
</a>
</g>
</g>
<!-- Node18&#45;&gt;Node19 -->
<g id="edge18" class="edge">
<title>Node18&#45;&gt;Node19</title>
<path fill="none" stroke="#191970" d="M1090.9063,-296.8906C1082.6403,-287.6478 1069.9574,-273.466 1059.9383,-262.2628"/>
<polygon fill="#191970" stroke="#191970" points="1062.49,-259.8657 1053.2149,-254.7449 1057.2722,-264.5321 1062.49,-259.8657"/>
</g>
<!-- Node20 -->
<g id="node16" class="node">
<title>Node20</title>
<g id="a_node16"><a xlink:href="PositionSemantics_8h.html" target="_top" xlink:title="iDynTree/Core/PositionSemantics.h">
<polygon fill="none" stroke="#000000" points="739,-174 739,-193 926,-193 926,-174 739,-174"/>
<text text-anchor="middle" x="832.5" y="-181" font-family="FreeSans.ttf" font-size="10.00" fill="#000000">iDynTree/Core/PositionSemantics.h</text>
</a>
</g>
</g>
<!-- Node18&#45;&gt;Node20 -->
<g id="edge21" class="edge">
<title>Node18&#45;&gt;Node20</title>
<path fill="none" stroke="#191970" d="M1049.3445,-296.9854C1013.2948,-288.9155 964.2433,-275.3603 924.5,-255 895.877,-240.3365 867.3229,-216.3098 849.7915,-200.205"/>
<polygon fill="#191970" stroke="#191970" points="851.8077,-197.2976 842.1187,-193.0112 847.0199,-202.4042 851.8077,-197.2976"/>
</g>
<!-- Node21 -->
<g id="node17" class="node">
<title>Node21</title>
<g id="a_node17"><a xlink:href="Rotation_8h.html" target="_top" xlink:title="iDynTree/Core/Rotation.h">
<polygon fill="none" stroke="#000000" points="1179,-235.5 1179,-254.5 1316,-254.5 1316,-235.5 1179,-235.5"/>
<text text-anchor="middle" x="1247.5" y="-242.5" font-family="FreeSans.ttf" font-size="10.00" fill="#000000">iDynTree/Core/Rotation.h</text>
</a>
</g>
</g>
<!-- Node18&#45;&gt;Node21 -->
<g id="edge23" class="edge">
<title>Node18&#45;&gt;Node21</title>
<path fill="none" stroke="#191970" d="M1122.625,-296.8906C1147.4967,-286.5554 1187.2298,-270.0447 1215.1844,-258.4284"/>
<polygon fill="#191970" stroke="#191970" points="1216.646,-261.6113 1224.5374,-254.5419 1213.9598,-255.1472 1216.646,-261.6113"/>
</g>
<!-- Node19&#45;&gt;Node3 -->
<g id="edge20" class="edge">
<title>Node19&#45;&gt;Node3</title>
<path fill="none" stroke="#191970" d="M1036.1302,-235.1804C1029.1696,-226.3552 1019.7412,-212.7088 1015.5,-199 1003.5426,-160.3501 1005.6027,-112.3542 1008.0994,-85.8763"/>
<polygon fill="#191970" stroke="#191970" points="1011.6113,-85.9501 1009.1924,-75.6351 1004.6508,-85.2072 1011.6113,-85.9501"/>
</g>
<!-- Node19&#45;&gt;Node4 -->
<g id="edge19" class="edge">
<title>Node19&#45;&gt;Node4</title>
<path fill="none" stroke="#191970" d="M1122.783,-238.507C1138.5756,-237.276 1155.0651,-236.0472 1170.5,-235 1471.8127,-214.557 1829.3975,-196.0877 1993.7027,-187.9255"/>
<polygon fill="#191970" stroke="#191970" points="1993.9522,-191.4175 2003.7665,-187.4264 1993.6054,-184.4261 1993.9522,-191.4175"/>
</g>
<!-- Node20&#45;&gt;Node3 -->
<g id="edge22" class="edge">
<title>Node20&#45;&gt;Node3</title>
<path fill="none" stroke="#191970" d="M846.6501,-173.952C867.0896,-160.1811 906.0914,-133.9831 939.5,-112 955.3017,-101.6024 973.1738,-90.0243 987.0338,-81.085"/>
<polygon fill="#191970" stroke="#191970" points="988.9894,-83.9886 995.5004,-75.6306 985.1984,-78.104 988.9894,-83.9886"/>
</g>
<!-- Node21&#45;&gt;Node3 -->
<g id="edge24" class="edge">
<title>Node21&#45;&gt;Node3</title>
<path fill="none" stroke="#191970" d="M1216.8267,-235.4232C1194.5069,-227.6222 1164.1748,-215.2459 1140.5,-199 1091.4929,-165.3708 1045.7482,-111.3377 1023.9128,-83.6315"/>
<polygon fill="#191970" stroke="#191970" points="1026.5884,-81.3704 1017.6897,-75.6202 1021.0603,-85.6646 1026.5884,-81.3704"/>
</g>
<!-- Node21&#45;&gt;Node4 -->
<g id="edge36" class="edge">
<title>Node21&#45;&gt;Node4</title>
<path fill="none" stroke="#191970" d="M1316.3509,-239.9411C1466.8613,-228.8821 1825.1675,-202.5549 1993.8017,-190.1642"/>
<polygon fill="#191970" stroke="#191970" points="1994.1791,-193.646 2003.8957,-189.4225 1993.666,-186.6648 1994.1791,-193.646"/>
</g>
<!-- Node22 -->
<g id="node18" class="node">
<title>Node22</title>
<g id="a_node18"><a xlink:href="RotationRaw_8h.html" target="_top" xlink:title="iDynTree/Core/RotationRaw.h">
<polygon fill="none" stroke="#000000" points="1158.5,-174 1158.5,-193 1316.5,-193 1316.5,-174 1158.5,-174"/>
<text text-anchor="middle" x="1237.5" y="-181" font-family="FreeSans.ttf" font-size="10.00" fill="#000000">iDynTree/Core/RotationRaw.h</text>
</a>
</g>
</g>
<!-- Node21&#45;&gt;Node22 -->
<g id="edge25" class="edge">
<title>Node21&#45;&gt;Node22</title>
<path fill="none" stroke="#191970" d="M1245.9375,-235.3906C1244.5513,-226.8657 1242.482,-214.1392 1240.7396,-203.4235"/>
<polygon fill="#191970" stroke="#191970" points="1244.1442,-202.5535 1239.0845,-193.2449 1237.2349,-203.677 1244.1442,-202.5535"/>
</g>
<!-- Node25 -->
<g id="node20" class="node">
<title>Node25</title>
<g id="a_node20"><a xlink:href="RotationSemantics_8h.html" target="_top" xlink:title="iDynTree/Core/RotationSemantics.h">
<polygon fill="none" stroke="#000000" points="1095.5,-112.5 1095.5,-131.5 1283.5,-131.5 1283.5,-112.5 1095.5,-112.5"/>
<text text-anchor="middle" x="1189.5" y="-119.5" font-family="FreeSans.ttf" font-size="10.00" fill="#000000">iDynTree/Core/RotationSemantics.h</text>
</a>
</g>
</g>
<!-- Node21&#45;&gt;Node25 -->
<g id="edge33" class="edge">
<title>Node21&#45;&gt;Node25</title>
<path fill="none" stroke="#191970" d="M1202.6284,-235.4588C1182.7752,-228.7646 1161.2918,-217.5612 1149.5,-199 1136.7962,-179.0033 1154.7963,-154.5165 1170.5705,-138.6027"/>
<polygon fill="#191970" stroke="#191970" points="1173.1629,-140.9672 1177.9912,-131.5365 1168.3357,-135.8979 1173.1629,-140.9672"/>
</g>
<!-- Node22&#45;&gt;Node3 -->
<g id="edge32" class="edge">
<title>Node22&#45;&gt;Node3</title>
<path fill="none" stroke="#191970" d="M1254.3621,-173.7824C1276.5325,-159.8053 1310.6567,-133.3584 1292.5,-112 1276.4559,-93.1267 1113.7665,-75.7006 1043.0419,-68.9534"/>
<polygon fill="#191970" stroke="#191970" points="1043.1932,-65.4523 1032.9093,-68 1042.5374,-72.4215 1043.1932,-65.4523"/>
</g>
<!-- Node23 -->
<g id="node19" class="node">
<title>Node23</title>
<g id="a_node19"><a xlink:href="MatrixFixSize_8h.html" target="_top" xlink:title="iDynTree/Core/MatrixFixSize.h">
<polygon fill="none" stroke="#ff0000" points="1670,-112.5 1670,-131.5 1831,-131.5 1831,-112.5 1670,-112.5"/>
<text text-anchor="middle" x="1750.5" y="-119.5" font-family="FreeSans.ttf" font-size="10.00" fill="#000000">iDynTree/Core/MatrixFixSize.h</text>
</a>
</g>
</g>
<!-- Node22&#45;&gt;Node23 -->
<g id="edge26" class="edge">
<title>Node22&#45;&gt;Node23</title>
<path fill="none" stroke="#191970" d="M1315.0679,-173.9976C1331.3938,-172.0076 1348.512,-169.9283 1364.5,-168 1465.4945,-155.8192 1581.3781,-142.035 1659.6043,-132.7585"/>
<polygon fill="#191970" stroke="#191970" points="1660.39,-136.1899 1669.9084,-131.5368 1659.5658,-129.2386 1660.39,-136.1899"/>
</g>
<!-- Node23&#45;&gt;Node3 -->
<g id="edge30" class="edge">
<title>Node23&#45;&gt;Node3</title>
<path fill="none" stroke="#191970" d="M1669.9248,-113.3288C1665.0455,-112.8625 1660.2082,-112.4156 1655.5,-112 1420.4908,-91.2568 1136.668,-73.5714 1042.542,-67.9019"/>
<polygon fill="#191970" stroke="#191970" points="1042.7099,-64.4058 1032.5182,-67.3005 1042.2906,-71.3932 1042.7099,-64.4058"/>
</g>
<!-- Node23&#45;&gt;Node5 -->
<g id="edge27" class="edge">
<title>Node23&#45;&gt;Node5</title>
<path fill="none" stroke="#191970" d="M1766.351,-112.2455C1780.3132,-103.6534 1800.8728,-91.0014 1816.9596,-81.1018"/>
<polygon fill="#191970" stroke="#191970" points="1819.1484,-83.8645 1825.8307,-75.6427 1815.4797,-77.9029 1819.1484,-83.8645"/>
</g>
<!-- Node23&#45;&gt;Node8 -->
<g id="edge28" class="edge">
<title>Node23&#45;&gt;Node8</title>
<path fill="none" stroke="#191970" d="M1819.6299,-112.4764C1880.9465,-103.7896 1972.874,-90.1801 2052.5,-76 2056.6831,-75.2551 2061.0575,-74.4295 2065.3972,-73.5814"/>
<polygon fill="#191970" stroke="#191970" points="2066.2351,-76.9831 2075.3538,-71.5887 2064.8614,-70.1193 2066.2351,-76.9831"/>
</g>
<!-- Node23&#45;&gt;Node16 -->
<g id="edge31" class="edge">
<title>Node23&#45;&gt;Node16</title>
<path fill="none" stroke="#191970" d="M1802.7777,-112.4519C1846.863,-104.1743 1911.8364,-91.4486 1977.1997,-76.201"/>
<polygon fill="#191970" stroke="#191970" points="1978.3333,-79.53 1987.2662,-73.8331 1976.7304,-72.7159 1978.3333,-79.53"/>
</g>
<!-- Node23&#45;&gt;Node17 -->
<g id="edge29" class="edge">
<title>Node23&#45;&gt;Node17</title>
<path fill="none" stroke="#191970" d="M1783.9197,-112.456C1814.2768,-103.7724 1860.5483,-90.5014 1909.4439,-76.2963"/>
<polygon fill="#191970" stroke="#191970" points="1910.6289,-79.5967 1919.254,-73.4439 1908.6745,-72.8751 1910.6289,-79.5967"/>
</g>
<!-- Node25&#45;&gt;Node3 -->
<g id="edge34" class="edge">
<title>Node25&#45;&gt;Node3</title>
<path fill="none" stroke="#191970" d="M1158.7288,-112.3733C1126.2079,-102.1991 1075.1651,-86.2304 1042.2707,-75.9394"/>
<polygon fill="#191970" stroke="#191970" points="1043.2743,-72.5862 1032.6854,-72.9407 1041.1842,-79.2669 1043.2743,-72.5862"/>
</g>
<!-- Node25&#45;&gt;Node5 -->
<g id="edge35" class="edge">
<title>Node25&#45;&gt;Node5</title>
<path fill="none" stroke="#191970" d="M1283.6101,-113.9169C1416.0508,-102.5417 1654.3605,-82.0733 1771.9717,-71.9718"/>
<polygon fill="#191970" stroke="#191970" points="1772.2783,-75.4584 1781.942,-71.1154 1771.6792,-68.4841 1772.2783,-75.4584"/>
</g>
<!-- Node26&#45;&gt;Node3 -->
<g id="edge39" class="edge">
<title>Node26&#45;&gt;Node3</title>
<path fill="none" stroke="#191970" d="M740.1154,-430.8509C719.0977,-410.2159 673.5,-359.3575 673.5,-306.5 673.5,-306.5 673.5,-306.5 673.5,-183.5 673.5,-131.7146 718.2817,-133.264 765.5,-112 836.8554,-79.8663 929.6438,-70.1771 977.9863,-67.2575"/>
<polygon fill="#191970" stroke="#191970" points="978.3682,-70.742 988.1636,-66.7045 977.9883,-63.7523 978.3682,-70.742"/>
</g>
<!-- Node27&#45;&gt;Node3 -->
<g id="edge42" class="edge">
<title>Node27&#45;&gt;Node3</title>
<path fill="none" stroke="#191970" d="M1994.9905,-495.0606C1858.5761,-483.6127 1601.0542,-461.487 1581.5,-456 1483.6104,-428.5315 1256.5683,-309.1215 1170.5,-255 1136.4778,-233.6061 1128.3187,-227.0124 1099.5,-199 1071.6711,-171.9496 1064.7661,-164.4642 1043.5,-132 1033.6547,-116.9704 1024.6922,-98.5995 1018.6003,-85.0593"/>
<polygon fill="#191970" stroke="#191970" points="1021.7541,-83.536 1014.5342,-75.782 1015.3429,-86.346 1021.7541,-83.536"/>
</g>
<!-- Node27&#45;&gt;Node7 -->
<g id="edge41" class="edge">
<title>Node27&#45;&gt;Node7</title>
<path fill="none" stroke="#191970" d="M2088.469,-492.4866C2106.8964,-474.2768 2146.1678,-432.4286 2165.5,-389 2204.0175,-302.4726 2212.2576,-187.2527 2214.0203,-141.7145"/>
<polygon fill="#191970" stroke="#191970" points="2217.5191,-141.8059 2214.3434,-131.6982 2210.5227,-141.5801 2217.5191,-141.8059"/>
</g>
<!-- Node28&#45;&gt;Node3 -->
<g id="edge45" class="edge">
<title>Node28&#45;&gt;Node3</title>
<path fill="none" stroke="#191970" d="M402.3355,-492.4267C320.0404,-473.3055 151.5,-427.5476 151.5,-373.5 151.5,-373.5 151.5,-373.5 151.5,-183.5 151.5,-149.9798 148.8352,-132.3124 175.5,-112 207.9638,-87.27 827.6818,-70.4924 977.9068,-66.778"/>
<polygon fill="#191970" stroke="#191970" points="978.3751,-70.2677 988.2863,-66.5238 978.2036,-63.2698 978.3751,-70.2677"/>
</g>
<!-- Node29&#45;&gt;Node28 -->
<g id="edge80" class="edge">
<title>Node29&#45;&gt;Node28</title>
<path fill="none" stroke="#191970" d="M1382.7482,-558.9528C1197.1546,-547.663 716.5901,-518.4298 526.0362,-506.8383"/>
<polygon fill="#191970" stroke="#191970" points="526.0106,-503.3303 515.8165,-506.2166 525.5855,-510.3174 526.0106,-503.3303"/>
</g>
<!-- Node30 -->
<g id="node25" class="node">
<title>Node30</title>
<g id="a_node25"><a xlink:href="Transform_8h.html" target="_top" xlink:title="iDynTree/Core/Transform.h">
<polygon fill="none" stroke="#000000" points="1193.5,-364 1193.5,-383 1339.5,-383 1339.5,-364 1193.5,-364"/>
<text text-anchor="middle" x="1266.5" y="-371" font-family="FreeSans.ttf" font-size="10.00" fill="#000000">iDynTree/Core/Transform.h</text>
</a>
</g>
</g>
<!-- Node29&#45;&gt;Node30 -->
<g id="edge47" class="edge">
<title>Node29&#45;&gt;Node30</title>
<path fill="none" stroke="#191970" d="M1424.6452,-553.9656C1401.0428,-545.8221 1369.6173,-532.1843 1347.5,-512 1309.934,-477.7171 1284.7513,-421.8873 1273.3964,-392.6828"/>
<polygon fill="#191970" stroke="#191970" points="1276.6339,-391.348 1269.8413,-383.2171 1270.0808,-393.8093 1276.6339,-391.348"/>
</g>
<!-- Node32 -->
<g id="node27" class="node">
<title>Node32</title>
<g id="a_node27"><a xlink:href="Twist_8h.html" target="_top" xlink:title="iDynTree/Core/Twist.h">
<polygon fill="none" stroke="#000000" points="1665.5,-492.5 1665.5,-511.5 1787.5,-511.5 1787.5,-492.5 1665.5,-492.5"/>
<text text-anchor="middle" x="1726.5" y="-499.5" font-family="FreeSans.ttf" font-size="10.00" fill="#000000">iDynTree/Core/Twist.h</text>
</a>
</g>
</g>
<!-- Node29&#45;&gt;Node32 -->
<g id="edge55" class="edge">
<title>Node29&#45;&gt;Node32</title>
<path fill="none" stroke="#191970" d="M1499.2361,-553.9581C1546.5515,-543.1406 1623.7292,-525.4959 1674.8136,-513.8168"/>
<polygon fill="#191970" stroke="#191970" points="1675.6976,-517.2051 1684.666,-511.5643 1674.1374,-510.3811 1675.6976,-517.2051"/>
</g>
<!-- Node42 -->
<g id="node31" class="node">
<title>Node42</title>
<g id="a_node31"><a xlink:href="SpatialAcc_8h.html" target="_top" xlink:title="iDynTree/Core/SpatialAcc.h">
<polygon fill="none" stroke="#000000" points="1499.5,-492.5 1499.5,-511.5 1647.5,-511.5 1647.5,-492.5 1499.5,-492.5"/>
<text text-anchor="middle" x="1573.5" y="-499.5" font-family="FreeSans.ttf" font-size="10.00" fill="#000000">iDynTree/Core/SpatialAcc.h</text>
</a>
</g>
</g>
<!-- Node29&#45;&gt;Node42 -->
<g id="edge65" class="edge">
<title>Node29&#45;&gt;Node42</title>
<path fill="none" stroke="#191970" d="M1475.625,-553.8906C1494.6083,-543.8262 1524.6373,-527.9057 1546.4307,-516.3514"/>
<polygon fill="#191970" stroke="#191970" points="1548.3066,-519.3184 1555.5023,-511.5419 1545.0277,-513.1338 1548.3066,-519.3184"/>
</g>
<!-- Node43 -->
<g id="node32" class="node">
<title>Node43</title>
<g id="a_node32"><a xlink:href="Wrench_8h.html" target="_top" xlink:title="iDynTree/Core/Wrench.h">
<polygon fill="none" stroke="#000000" points="1806,-492.5 1806,-511.5 1939,-511.5 1939,-492.5 1806,-492.5"/>
<text text-anchor="middle" x="1872.5" y="-499.5" font-family="FreeSans.ttf" font-size="10.00" fill="#000000">iDynTree/Core/Wrench.h</text>
</a>
</g>
</g>
<!-- Node29&#45;&gt;Node43 -->
<g id="edge67" class="edge">
<title>Node29&#45;&gt;Node43</title>
<path fill="none" stroke="#191970" d="M1521.8884,-553.9581C1596.514,-542.8991 1719.2897,-524.7047 1797.9781,-513.0436"/>
<polygon fill="#191970" stroke="#191970" points="1798.9231,-516.4419 1808.302,-511.5137 1797.8969,-509.5175 1798.9231,-516.4419"/>
</g>
<!-- Node48 -->
<g id="node36" class="node">
<title>Node48</title>
<g id="a_node36"><a xlink:href="ArticulatedBodyInertia_8h.html" target="_top" xlink:title="iDynTree/Core/Articulated\lBodyInertia.h">
<polygon fill="none" stroke="#000000" points="1373,-168.5 1373,-198.5 1514,-198.5 1514,-168.5 1373,-168.5"/>
<text text-anchor="start" x="1381" y="-186.5" font-family="FreeSans.ttf" font-size="10.00" fill="#000000">iDynTree/Core/Articulated</text>
<text text-anchor="middle" x="1443.5" y="-175.5" font-family="FreeSans.ttf" font-size="10.00" fill="#000000">BodyInertia.h</text>
</a>
</g>
</g>
<!-- Node29&#45;&gt;Node48 -->
<g id="edge77" class="edge">
<title>Node29&#45;&gt;Node48</title>
<path fill="none" stroke="#191970" d="M1448.108,-553.7268C1439.2877,-543.9643 1426.439,-528.1266 1419.5,-512 1397.5501,-460.9877 1402.4081,-444.3169 1397.5,-389 1391.5975,-322.4751 1417.5416,-246.2525 1432.8878,-208.0462"/>
<polygon fill="#191970" stroke="#191970" points="1436.1452,-209.3278 1436.7178,-198.7485 1429.6728,-206.6617 1436.1452,-209.3278"/>
</g>
<!-- Node29&#45;&gt;Node49 -->
<g id="edge81" class="edge">
<title>Node29&#45;&gt;Node49</title>
<path fill="none" stroke="#191970" d="M1406.2996,-553.9581C1338.1279,-541.2534 1219.4245,-519.1314 1161.3944,-508.3167"/>
<polygon fill="#191970" stroke="#191970" points="1161.7628,-504.8252 1151.2908,-506.4337 1160.4803,-511.7067 1161.7628,-504.8252"/>
</g>
<!-- Node30&#45;&gt;Node3 -->
<g id="edge54" class="edge">
<title>Node30&#45;&gt;Node3</title>
<path fill="none" stroke="#191970" d="M1193.3727,-371.7577C1042.6662,-366.1777 711.5,-342.7904 711.5,-245 711.5,-245 711.5,-245 711.5,-183.5 711.5,-126.7689 900.3114,-86.0026 977.8544,-71.6525"/>
<polygon fill="#191970" stroke="#191970" points="978.8133,-75.0356 988.0264,-69.804 977.5617,-68.1484 978.8133,-75.0356"/>
</g>
<!-- Node30&#45;&gt;Node18 -->
<g id="edge48" class="edge">
<title>Node30&#45;&gt;Node18</title>
<path fill="none" stroke="#191970" d="M1242.573,-363.9005C1213.8025,-352.3579 1165.3436,-332.9163 1132.8983,-319.8993"/>
<polygon fill="#191970" stroke="#191970" points="1133.9668,-316.5569 1123.3826,-316.0817 1131.3603,-323.0535 1133.9668,-316.5569"/>
</g>
<!-- Node30&#45;&gt;Node21 -->
<g id="edge49" class="edge">
<title>Node30&#45;&gt;Node21</title>
<path fill="none" stroke="#191970" d="M1265.0719,-363.8416C1261.9772,-342.9114 1254.5979,-293.004 1250.4537,-264.9762"/>
<polygon fill="#191970" stroke="#191970" points="1253.8698,-264.1509 1248.9447,-254.7705 1246.9451,-265.1749 1253.8698,-264.1509"/>
</g>
<!-- Node30&#45;&gt;Node23 -->
<g id="edge53" class="edge">
<title>Node30&#45;&gt;Node23</title>
<path fill="none" stroke="#191970" d="M1284.8824,-363.948C1358.8537,-325.5104 1635.0052,-182.0144 1723.2234,-136.1737"/>
<polygon fill="#191970" stroke="#191970" points="1724.8396,-139.2782 1732.0993,-131.5615 1721.6119,-133.0668 1724.8396,-139.2782"/>
</g>
<!-- Node31 -->
<g id="node26" class="node">
<title>Node31</title>
<g id="a_node26"><a xlink:href="TransformSemantics_8h.html" target="_top" xlink:title="iDynTree/Core/TransformSemantics.h">
<polygon fill="none" stroke="#000000" points="1416,-112.5 1416,-131.5 1613,-131.5 1613,-112.5 1416,-112.5"/>
<text text-anchor="middle" x="1514.5" y="-119.5" font-family="FreeSans.ttf" font-size="10.00" fill="#000000">iDynTree/Core/TransformSemantics.h</text>
</a>
</g>
</g>
<!-- Node30&#45;&gt;Node31 -->
<g id="edge50" class="edge">
<title>Node30&#45;&gt;Node31</title>
<path fill="none" stroke="#191970" d="M1271.5306,-363.7338C1281.8895,-343.5507 1306.245,-295.7215 1325.5,-255 1343.6135,-216.6926 1332.7401,-196.0511 1364.5,-168 1378.8225,-155.35 1422.5041,-142.7484 1459.0601,-133.9421"/>
<polygon fill="#191970" stroke="#191970" points="1460.222,-137.2642 1469.1515,-131.562 1458.6151,-130.4511 1460.222,-137.2642"/>
</g>
<!-- Node31&#45;&gt;Node3 -->
<g id="edge51" class="edge">
<title>Node31&#45;&gt;Node3</title>
<path fill="none" stroke="#191970" d="M1428.7178,-112.4686C1314.9266,-99.8252 1119.5151,-78.1128 1042.7775,-69.5864"/>
<polygon fill="#191970" stroke="#191970" points="1043.0834,-66.0989 1032.758,-68.4731 1042.3103,-73.0561 1043.0834,-66.0989"/>
</g>
<!-- Node31&#45;&gt;Node5 -->
<g id="edge52" class="edge">
<title>Node31&#45;&gt;Node5</title>
<path fill="none" stroke="#191970" d="M1570.3418,-112.4369C1627.2458,-102.6918 1715.4696,-87.5832 1775.7236,-77.2645"/>
<polygon fill="#191970" stroke="#191970" points="1776.6229,-80.6615 1785.8886,-75.5237 1775.4412,-73.7619 1776.6229,-80.6615"/>
</g>
<!-- Node33 -->
<g id="node28" class="node">
<title>Node33</title>
<g id="a_node28"><a xlink:href="SpatialMotionVector_8h.html" target="_top" xlink:title="iDynTree/Core/SpatialMotion\lVector.h">
<polygon fill="none" stroke="#ff0000" points="1590,-425.5 1590,-455.5 1745,-455.5 1745,-425.5 1590,-425.5"/>
<text text-anchor="start" x="1598" y="-443.5" font-family="FreeSans.ttf" font-size="10.00" fill="#000000">iDynTree/Core/SpatialMotion</text>
<text text-anchor="middle" x="1667.5" y="-432.5" font-family="FreeSans.ttf" font-size="10.00" fill="#000000">Vector.h</text>
</a>
</g>
</g>
<!-- Node32&#45;&gt;Node33 -->
<g id="edge56" class="edge">
<title>Node32&#45;&gt;Node33</title>
<path fill="none" stroke="#191970" d="M1717.2813,-492.3906C1709.7399,-484.5298 1698.7713,-473.0964 1689.0482,-462.9612"/>
<polygon fill="#191970" stroke="#191970" points="1691.3816,-460.3378 1681.933,-455.5446 1686.3302,-465.1839 1691.3816,-460.3378"/>
</g>
<!-- Node33&#45;&gt;Node4 -->
<g id="edge57" class="edge">
<title>Node33&#45;&gt;Node4</title>
<path fill="none" stroke="#191970" d="M1745.4098,-430.481C1858.5545,-415.8902 2055.1257,-390.3691 2056.5,-389 2106.738,-338.9522 2096.2503,-244.2863 2088.7379,-203.2727"/>
<polygon fill="#191970" stroke="#191970" points="2092.1638,-202.5548 2086.7957,-193.4206 2085.296,-203.9087 2092.1638,-202.5548"/>
</g>
<!-- Node39 -->
<g id="node29" class="node">
<title>Node39</title>
<g id="a_node29"><a xlink:href="SpatialVector_8h.html" target="_top" xlink:title="iDynTree/Core/SpatialVector.h">
<polygon fill="none" stroke="#ff0000" points="1478,-364 1478,-383 1639,-383 1639,-364 1478,-364"/>
<text text-anchor="middle" x="1558.5" y="-371" font-family="FreeSans.ttf" font-size="10.00" fill="#000000">iDynTree/Core/SpatialVector.h</text>
</a>
</g>
</g>
<!-- Node33&#45;&gt;Node39 -->
<g id="edge58" class="edge">
<title>Node33&#45;&gt;Node39</title>
<path fill="none" stroke="#191970" d="M1643.0383,-425.4639C1625.079,-414.4247 1600.7911,-399.4954 1582.8566,-388.4715"/>
<polygon fill="#191970" stroke="#191970" points="1584.4764,-385.3588 1574.1243,-383.1039 1580.8107,-391.3223 1584.4764,-385.3588"/>
</g>
<!-- Node37 -->
<g id="node30" class="node">
<title>Node37</title>
<g id="a_node30"><a xlink:href="PrivateMotionForceVertorAssociations_8h.html" target="_top" xlink:title="iDynTree/Core/PrivateMotion\lForceVertorAssociations.h">
<polygon fill="none" stroke="#000000" points="1790,-291.5 1790,-321.5 1945,-321.5 1945,-291.5 1790,-291.5"/>
<text text-anchor="start" x="1798" y="-309.5" font-family="FreeSans.ttf" font-size="10.00" fill="#000000">iDynTree/Core/PrivateMotion</text>
<text text-anchor="middle" x="1867.5" y="-298.5" font-family="FreeSans.ttf" font-size="10.00" fill="#000000">ForceVertorAssociations.h</text>
</a>
</g>
</g>
<!-- Node33&#45;&gt;Node37 -->
<g id="edge64" class="edge">
<title>Node33&#45;&gt;Node37</title>
<path fill="none" stroke="#191970" d="M1666.6665,-425.2795C1666.5247,-406.9079 1669.1856,-376.218 1686.5,-358 1699.9866,-343.8095 1740.513,-331.6188 1779.8067,-322.6655"/>
<polygon fill="#191970" stroke="#191970" points="1780.7479,-326.0419 1789.7529,-320.4597 1779.2323,-319.2079 1780.7479,-326.0419"/>
</g>
<!-- Node39&#45;&gt;Node5 -->
<g id="edge62" class="edge">
<title>Node39&#45;&gt;Node5</title>
<path fill="none" stroke="#191970" d="M1574.4899,-363.8771C1614.7538,-339.2566 1722.657,-270.8378 1800.5,-199 1829.231,-172.4854 1844.0036,-168.6925 1857.5,-132 1863.2083,-116.4807 1857.8598,-98.1567 1851.8561,-84.759"/>
<polygon fill="#191970" stroke="#191970" points="1854.8916,-83.0023 1847.3096,-75.602 1848.6219,-86.1153 1854.8916,-83.0023"/>
</g>
<!-- Node39&#45;&gt;Node16 -->
<g id="edge63" class="edge">
<title>Node39&#45;&gt;Node16</title>
<path fill="none" stroke="#191970" d="M1585.1432,-363.9436C1609.6432,-354.6798 1646.5925,-339.4895 1676.5,-322 1807.9979,-245.1017 1947.9859,-125.6393 1997.1599,-82.3575"/>
<polygon fill="#191970" stroke="#191970" points="1999.5908,-84.8801 2004.7633,-75.6336 1994.9536,-79.6363 1999.5908,-84.8801"/>
</g>
<!-- Node39&#45;&gt;Node18 -->
<g id="edge59" class="edge">
<title>Node39&#45;&gt;Node18</title>
<path fill="none" stroke="#191970" d="M1493.2239,-363.9717C1409.2166,-351.7092 1263.5598,-330.4477 1174.9107,-317.5077"/>
<polygon fill="#191970" stroke="#191970" points="1175.3228,-314.0308 1164.922,-316.0496 1174.3116,-320.9574 1175.3228,-314.0308"/>
</g>
<!-- Node39&#45;&gt;Node21 -->
<g id="edge60" class="edge">
<title>Node39&#45;&gt;Node21</title>
<path fill="none" stroke="#191970" d="M1535.7892,-363.8758C1499.1682,-348.3823 1424.7728,-317.013 1361.5,-291 1334.5045,-279.9015 1303.8171,-267.5329 1281.0869,-258.4188"/>
<polygon fill="#191970" stroke="#191970" points="1282.1408,-255.0707 1271.5564,-254.6011 1279.5378,-261.5687 1282.1408,-255.0707"/>
</g>
<!-- Node39&#45;&gt;Node37 -->
<g id="edge61" class="edge">
<title>Node39&#45;&gt;Node37</title>
<path fill="none" stroke="#191970" d="M1602.444,-363.9717C1650.6414,-353.5211 1728.9826,-336.5345 1788.0224,-323.733"/>
<polygon fill="#191970" stroke="#191970" points="1789.0344,-327.095 1798.0656,-321.5553 1787.551,-320.254 1789.0344,-327.095"/>
</g>
<!-- Node42&#45;&gt;Node33 -->
<g id="edge66" class="edge">
<title>Node42&#45;&gt;Node33</title>
<path fill="none" stroke="#191970" d="M1588.1875,-492.3906C1600.9093,-484.0673 1619.7527,-471.7389 1635.8806,-461.1872"/>
<polygon fill="#191970" stroke="#191970" points="1638.0531,-463.9484 1644.505,-455.5446 1634.2206,-458.0907 1638.0531,-463.9484"/>
</g>
<!-- Node44 -->
<g id="node33" class="node">
<title>Node44</title>
<g id="a_node33"><a xlink:href="SpatialForceVector_8h.html" target="_top" xlink:title="iDynTree/Core/SpatialForce\lVector.h">
<polygon fill="none" stroke="#000000" points="1798.5,-425.5 1798.5,-455.5 1946.5,-455.5 1946.5,-425.5 1798.5,-425.5"/>
<text text-anchor="start" x="1806.5" y="-443.5" font-family="FreeSans.ttf" font-size="10.00" fill="#000000">iDynTree/Core/SpatialForce</text>
<text text-anchor="middle" x="1872.5" y="-432.5" font-family="FreeSans.ttf" font-size="10.00" fill="#000000">Vector.h</text>
</a>
</g>
</g>
<!-- Node43&#45;&gt;Node44 -->
<g id="edge68" class="edge">
<title>Node43&#45;&gt;Node44</title>
<path fill="none" stroke="#191970" d="M1872.5,-492.3906C1872.5,-485.2234 1872.5,-475.0862 1872.5,-465.671"/>
<polygon fill="#191970" stroke="#191970" points="1876.0001,-465.5446 1872.5,-455.5446 1869.0001,-465.5446 1876.0001,-465.5446"/>
</g>
<!-- Node44&#45;&gt;Node4 -->
<g id="edge69" class="edge">
<title>Node44&#45;&gt;Node4</title>
<path fill="none" stroke="#191970" d="M1946.5726,-432.6997C2002.2161,-425.1326 2071.7619,-411.4405 2089.5,-389 2132.8818,-334.1176 2106.8942,-242.7917 2092.3372,-203.0142"/>
<polygon fill="#191970" stroke="#191970" points="2095.5193,-201.5358 2088.6838,-193.441 2088.9794,-204.0317 2095.5193,-201.5358"/>
</g>
<!-- Node44&#45;&gt;Node39 -->
<g id="edge75" class="edge">
<title>Node44&#45;&gt;Node39</title>
<path fill="none" stroke="#191970" d="M1802.0323,-425.4639C1744.9058,-413.2745 1665.5512,-396.3421 1613.1528,-385.1616"/>
<polygon fill="#191970" stroke="#191970" points="1613.5574,-381.6692 1603.0472,-383.0053 1612.0966,-388.5151 1613.5574,-381.6692"/>
</g>
<!-- Node44&#45;&gt;Node37 -->
<g id="edge76" class="edge">
<title>Node44&#45;&gt;Node37</title>
<path fill="none" stroke="#191970" d="M1871.9362,-425.389C1871.0884,-402.6691 1869.4753,-359.438 1868.4455,-331.8405"/>
<polygon fill="#191970" stroke="#191970" points="1871.94,-331.6239 1868.0695,-321.7614 1864.9449,-331.885 1871.94,-331.6239"/>
</g>
<!-- Node45 -->
<g id="node34" class="node">
<title>Node45</title>
<g id="a_node34"><a xlink:href="LinearForceVector3_8h.html" target="_top" xlink:title="iDynTree/Core/LinearForce\lVector3.h">
<polygon fill="none" stroke="#ff0000" points="1695.5,-358.5 1695.5,-388.5 1839.5,-388.5 1839.5,-358.5 1695.5,-358.5"/>
<text text-anchor="start" x="1703.5" y="-376.5" font-family="FreeSans.ttf" font-size="10.00" fill="#000000">iDynTree/Core/LinearForce</text>
<text text-anchor="middle" x="1767.5" y="-365.5" font-family="FreeSans.ttf" font-size="10.00" fill="#000000">Vector3.h</text>
</a>
</g>
</g>
<!-- Node44&#45;&gt;Node45 -->
<g id="edge70" class="edge">
<title>Node44&#45;&gt;Node45</title>
<path fill="none" stroke="#191970" d="M1848.936,-425.4639C1834.4473,-416.2188 1815.6828,-404.2452 1799.8183,-394.1222"/>
<polygon fill="#191970" stroke="#191970" points="1801.6614,-391.1464 1791.3487,-388.7177 1797.896,-397.0474 1801.6614,-391.1464"/>
</g>
<!-- Node47 -->
<g id="node35" class="node">
<title>Node47</title>
<g id="a_node35"><a xlink:href="AngularForceVector3_8h.html" target="_top" xlink:title="iDynTree/Core/AngularForce\lVector3.h">
<polygon fill="none" stroke="#ff0000" points="1895.5,-358.5 1895.5,-388.5 2047.5,-388.5 2047.5,-358.5 1895.5,-358.5"/>
<text text-anchor="start" x="1903.5" y="-376.5" font-family="FreeSans.ttf" font-size="10.00" fill="#000000">iDynTree/Core/AngularForce</text>
<text text-anchor="middle" x="1971.5" y="-365.5" font-family="FreeSans.ttf" font-size="10.00" fill="#000000">Vector3.h</text>
</a>
</g>
</g>
<!-- Node44&#45;&gt;Node47 -->
<g id="edge72" class="edge">
<title>Node44&#45;&gt;Node47</title>
<path fill="none" stroke="#191970" d="M1894.9646,-425.2967C1908.5085,-416.1306 1925.9475,-404.3285 1940.7575,-394.3055"/>
<polygon fill="#191970" stroke="#191970" points="1942.8042,-397.1466 1949.1243,-388.6432 1938.8809,-391.3494 1942.8042,-397.1466"/>
</g>
<!-- Node45&#45;&gt;Node37 -->
<g id="edge71" class="edge">
<title>Node45&#45;&gt;Node37</title>
<path fill="none" stroke="#191970" d="M1790.1915,-358.2967C1803.8722,-349.1306 1821.4874,-337.3285 1836.447,-327.3055"/>
<polygon fill="#191970" stroke="#191970" points="1838.5387,-330.1171 1844.8983,-321.6432 1834.6424,-324.3017 1838.5387,-330.1171"/>
</g>
<!-- Node47&#45;&gt;Node5 -->
<g id="edge74" class="edge">
<title>Node47&#45;&gt;Node5</title>
<path fill="none" stroke="#191970" d="M1971.8356,-358.3477C1972.0444,-315.5406 1967.4749,-191.6483 1911.5,-112 1901.9889,-98.4664 1887.1096,-87.8777 1873.5106,-80.2889"/>
<polygon fill="#191970" stroke="#191970" points="1874.8655,-77.0478 1864.3821,-75.5151 1871.6215,-83.2508 1874.8655,-77.0478"/>
</g>
<!-- Node47&#45;&gt;Node37 -->
<g id="edge73" class="edge">
<title>Node47&#45;&gt;Node37</title>
<path fill="none" stroke="#191970" d="M1948.1604,-358.4639C1933.9426,-349.3044 1915.5677,-337.4667 1899.9478,-327.4038"/>
<polygon fill="#191970" stroke="#191970" points="1901.4236,-324.1912 1891.1216,-321.7177 1897.6326,-330.0758 1901.4236,-324.1912"/>
</g>
<!-- Node48&#45;&gt;Node3 -->
<g id="edge79" class="edge">
<title>Node48&#45;&gt;Node3</title>
<path fill="none" stroke="#191970" d="M1420.6706,-168.3391C1394.6469,-151.8046 1350.2896,-125.8538 1308.5,-112 1215.3321,-81.1136 1098.7809,-70.7946 1043.0785,-67.4838"/>
<polygon fill="#191970" stroke="#191970" points="1042.9532,-63.9715 1032.7743,-66.911 1042.5646,-70.9607 1042.9532,-63.9715"/>
</g>
<!-- Node48&#45;&gt;Node23 -->
<g id="edge78" class="edge">
<title>Node48&#45;&gt;Node23</title>
<path fill="none" stroke="#191970" d="M1514.3175,-169.3134C1568.4902,-158.4612 1642.2465,-143.686 1692.8432,-133.5502"/>
<polygon fill="#191970" stroke="#191970" points="1693.8391,-136.9203 1702.9568,-131.5241 1692.4641,-130.0566 1693.8391,-136.9203"/>
</g>
<!-- Node50&#45;&gt;Node28 -->
<g id="edge94" class="edge">
<title>Node50&#45;&gt;Node28</title>
<path fill="none" stroke="#191970" d="M932.8957,-690.4148C837.8275,-687.1038 658.1583,-676.9504 508.5,-646 414.2187,-626.5019 359.0784,-656.8975 302.5,-579 278.1073,-545.416 328.7186,-525.0605 376.5192,-513.7873"/>
<polygon fill="#191970" stroke="#191970" points="377.3421,-517.1898 386.3332,-511.5854 375.8095,-510.3596 377.3421,-517.1898"/>
</g>
<!-- Node50&#45;&gt;Node30 -->
<g id="edge93" class="edge">
<title>Node50&#45;&gt;Node30</title>
<path fill="none" stroke="#191970" d="M1028.3389,-682.4314C1048.0421,-674.8395 1073.8579,-662.7144 1092.5,-646 1178.173,-569.1859 1238.2113,-440.6579 1258.7339,-392.4927"/>
<polygon fill="#191970" stroke="#191970" points="1262.0744,-393.5766 1262.7062,-383.0006 1255.617,-390.8742 1262.0744,-393.5766"/>
</g>
<!-- Node50&#45;&gt;Node49 -->
<g id="edge101" class="edge">
<title>Node50&#45;&gt;Node49</title>
<path fill="none" stroke="#191970" d="M1021.3356,-682.3559C1036.8828,-674.5214 1057.2822,-662.1327 1070.5,-646 1086.7218,-626.2008 1110.3429,-556.201 1121.3844,-521.6234"/>
<polygon fill="#191970" stroke="#191970" points="1124.8284,-522.34 1124.5019,-511.7502 1118.1532,-520.2322 1124.8284,-522.34"/>
</g>
<!-- Node51 -->
<g id="node39" class="node">
<title>Node51</title>
<g id="a_node39"><a xlink:href="IJoint_8h.html" target="_top" xlink:title="iDynTree/Model/IJoint.h">
<polygon fill="none" stroke="#000000" points="517.5,-621 517.5,-640 645.5,-640 645.5,-621 517.5,-621"/>
<text text-anchor="middle" x="581.5" y="-628" font-family="FreeSans.ttf" font-size="10.00" fill="#000000">iDynTree/Model/IJoint.h</text>
</a>
</g>
</g>
<!-- Node50&#45;&gt;Node51 -->
<g id="edge84" class="edge">
<title>Node50&#45;&gt;Node51</title>
<path fill="none" stroke="#191970" d="M934.6461,-682.4581C859.2177,-671.3604 734.9507,-653.0771 655.7292,-641.4213"/>
<polygon fill="#191970" stroke="#191970" points="656.2218,-637.9562 645.8188,-639.9632 655.2028,-644.8816 656.2218,-637.9562"/>
</g>
<!-- Node52 -->
<g id="node40" class="node">
<title>Node52</title>
<g id="a_node40"><a xlink:href="Link_8h.html" target="_top" xlink:title="iDynTree/Model/Link.h">
<polygon fill="none" stroke="#000000" points="937.5,-621 937.5,-640 1061.5,-640 1061.5,-621 937.5,-621"/>
<text text-anchor="middle" x="999.5" y="-628" font-family="FreeSans.ttf" font-size="10.00" fill="#000000">iDynTree/Model/Link.h</text>
</a>
</g>
</g>
<!-- Node50&#45;&gt;Node52 -->
<g id="edge86" class="edge">
<title>Node50&#45;&gt;Node52</title>
<path fill="none" stroke="#191970" d="M999.5,-682.3906C999.5,-673.8657 999.5,-661.1392 999.5,-650.4235"/>
<polygon fill="#191970" stroke="#191970" points="1003.0001,-650.2448 999.5,-640.2449 996.0001,-650.2449 1003.0001,-650.2448"/>
</g>
<!-- Node57 -->
<g id="node42" class="node">
<title>Node57</title>
<g id="a_node42"><a xlink:href="SolidShapes_8h.html" target="_top" xlink:title="iDynTree/Model/SolidShapes.h">
<polygon fill="none" stroke="#000000" points="898,-554 898,-573 1061,-573 1061,-554 898,-554"/>
<text text-anchor="middle" x="979.5" y="-561" font-family="FreeSans.ttf" font-size="10.00" fill="#000000">iDynTree/Model/SolidShapes.h</text>
</a>
</g>
</g>
<!-- Node50&#45;&gt;Node57 -->
<g id="edge95" class="edge">
<title>Node50&#45;&gt;Node57</title>
<path fill="none" stroke="#191970" d="M972.899,-682.397C956.9127,-675.0839 937.9002,-663.291 928.5,-646 921.9193,-633.8954 923.2585,-627.7418 928.5,-615 934.2983,-600.9046 946.0269,-588.6184 956.7759,-579.5849"/>
<polygon fill="#191970" stroke="#191970" points="959.0116,-582.2792 964.6904,-573.3349 954.6733,-576.7856 959.0116,-582.2792"/>
</g>
<!-- Node58 -->
<g id="node43" class="node">
<title>Node58</title>
<polygon fill="none" stroke="#bfbfbf" points="792,-492.5 792,-511.5 841,-511.5 841,-492.5 792,-492.5"/>
<text text-anchor="middle" x="816.5" y="-499.5" font-family="FreeSans.ttf" font-size="10.00" fill="#000000">cstdlib</text>
</g>
<!-- Node50&#45;&gt;Node58 -->
<g id="edge100" class="edge">
<title>Node50&#45;&gt;Node58</title>
<path fill="none" stroke="#191970" d="M979.727,-682.4166C963.1495,-673.9412 939.2496,-660.6697 920.5,-646 887.8244,-620.4346 879.5906,-612.7776 855.5,-579 842.3667,-560.5857 831.1627,-537.1182 824.1785,-520.9575"/>
<polygon fill="#191970" stroke="#191970" points="827.3155,-519.3876 820.2203,-511.5194 820.8602,-522.0949 827.3155,-519.3876"/>
</g>
<!-- Node51&#45;&gt;Node28 -->
<g id="edge85" class="edge">
<title>Node51&#45;&gt;Node28</title>
<path fill="none" stroke="#191970" d="M517.3337,-627.3624C446.1665,-622.3806 337.9874,-609.8298 312.5,-579 286.3245,-547.3378 339.3916,-526.0057 386.277,-513.9728"/>
<polygon fill="#191970" stroke="#191970" points="387.2808,-517.3304 396.1572,-511.5459 385.611,-510.5324 387.2808,-517.3304"/>
</g>
<!-- Node52&#45;&gt;Node28 -->
<g id="edge92" class="edge">
<title>Node52&#45;&gt;Node28</title>
<path fill="none" stroke="#191970" d="M937.1242,-629.3103C823.6706,-626.2586 588.5986,-615.5876 516.5,-579 502.7556,-572.0252 476.2367,-540.1423 460.0774,-519.6525"/>
<polygon fill="#191970" stroke="#191970" points="462.7642,-517.4063 453.8537,-511.6745 457.245,-521.7119 462.7642,-517.4063"/>
</g>
<!-- Node53 -->
<g id="node41" class="node">
<title>Node53</title>
<g id="a_node41"><a xlink:href="SpatialInertia_8h.html" target="_top" xlink:title="iDynTree/Core/SpatialInertia.h">
<polygon fill="none" stroke="#ff0000" points="1625.5,-554 1625.5,-573 1787.5,-573 1787.5,-554 1625.5,-554"/>
<text text-anchor="middle" x="1706.5" y="-561" font-family="FreeSans.ttf" font-size="10.00" fill="#000000">iDynTree/Core/SpatialInertia.h</text>
</a>
</g>
</g>
<!-- Node52&#45;&gt;Node53 -->
<g id="edge87" class="edge">
<title>Node52&#45;&gt;Node53</title>
<path fill="none" stroke="#191970" d="M1061.6219,-624.6129C1186.5816,-612.7709 1468.8452,-586.0217 1614.9793,-572.1731"/>
<polygon fill="#191970" stroke="#191970" points="1615.6366,-575.6266 1625.2617,-571.1987 1614.9761,-568.6578 1615.6366,-575.6266"/>
</g>
<!-- Node53&#45;&gt;Node4 -->
<g id="edge88" class="edge">
<title>Node53&#45;&gt;Node4</title>
<path fill="none" stroke="#191970" d="M1765.6698,-553.963C1826.4417,-543.6269 1916.5257,-526.6463 1948.5,-512 1989.5946,-493.176 2085.8081,-426.8606 2110.5,-389 2147.9396,-331.593 2142.817,-299.0778 2118.5,-235 2113.891,-222.8548 2106.0208,-210.6614 2099.0125,-201.19"/>
<polygon fill="#191970" stroke="#191970" points="2101.5839,-198.7942 2092.692,-193.0337 2096.0508,-203.082 2101.5839,-198.7942"/>
</g>
<!-- Node53&#45;&gt;Node32 -->
<g id="edge89" class="edge">
<title>Node53&#45;&gt;Node32</title>
<path fill="none" stroke="#191970" d="M1709.625,-553.8906C1712.4265,-545.276 1716.6233,-532.3708 1720.1306,-521.5858"/>
<polygon fill="#191970" stroke="#191970" points="1723.5667,-522.3371 1723.3309,-511.7449 1716.9098,-520.1722 1723.5667,-522.3371"/>
</g>
<!-- Node53&#45;&gt;Node42 -->
<g id="edge90" class="edge">
<title>Node53&#45;&gt;Node42</title>
<path fill="none" stroke="#191970" d="M1685.7188,-553.8906C1663.6606,-543.6908 1628.595,-527.4763 1603.5331,-515.8875"/>
<polygon fill="#191970" stroke="#191970" points="1604.6809,-512.5622 1594.1353,-511.5419 1601.7429,-518.9158 1604.6809,-512.5622"/>
</g>
<!-- Node53&#45;&gt;Node43 -->
<g id="edge91" class="edge">
<title>Node53&#45;&gt;Node43</title>
<path fill="none" stroke="#191970" d="M1732.4375,-553.8906C1760.5778,-543.4652 1805.6793,-526.7559 1837.0726,-515.1252"/>
<polygon fill="#191970" stroke="#191970" points="1838.5834,-518.298 1846.7446,-511.5419 1836.1515,-511.734 1838.5834,-518.298"/>
</g>
<!-- Node57&#45;&gt;Node3 -->
<g id="edge97" class="edge">
<title>Node57&#45;&gt;Node3</title>
<path fill="none" stroke="#191970" d="M965.3995,-553.7609C942.2727,-538.2563 894.3587,-508.0752 849.5,-492 767.769,-462.7115 717.6751,-518.5839 657.5,-456 610.9515,-407.5882 635.5,-373.66 635.5,-306.5 635.5,-306.5 635.5,-306.5 635.5,-183.5 635.5,-137.767 668.5195,-132.3004 709.5,-112 756.3756,-88.7794 910.6728,-73.9692 978.2812,-68.4437"/>
<polygon fill="#191970" stroke="#191970" points="978.6692,-71.9239 988.3578,-67.6367 978.1103,-64.9462 978.6692,-71.9239"/>
</g>
<!-- Node57&#45;&gt;Node30 -->
<g id="edge99" class="edge">
<title>Node57&#45;&gt;Node30</title>
<path fill="none" stroke="#191970" d="M994.1269,-553.8167C1040.7632,-522.9425 1186.2133,-426.6515 1243.2339,-388.9026"/>
<polygon fill="#191970" stroke="#191970" points="1245.4962,-391.6025 1251.9025,-383.1638 1241.6321,-385.7656 1245.4962,-391.6025"/>
</g>
<!-- Node57&#45;&gt;Node49 -->
<g id="edge98" class="edge">
<title>Node57&#45;&gt;Node49</title>
<path fill="none" stroke="#191970" d="M1002.625,-553.8906C1027.4967,-543.5554 1067.2298,-527.0447 1095.1844,-515.4284"/>
<polygon fill="#191970" stroke="#191970" points="1096.646,-518.6113 1104.5374,-511.5419 1093.9598,-512.1472 1096.646,-518.6113"/>
</g>
<!-- Node57&#45;&gt;Node58 -->
<g id="edge96" class="edge">
<title>Node57&#45;&gt;Node58</title>
<path fill="none" stroke="#191970" d="M954.0313,-553.8906C926.2379,-543.4042 881.5945,-526.5602 850.7477,-514.9217"/>
<polygon fill="#191970" stroke="#191970" points="851.848,-511.596 841.2562,-511.3405 849.3768,-518.1454 851.848,-511.596"/>
</g>
<!-- Node59&#45;&gt;Node3 -->
<g id="edge105" class="edge">
<title>Node59&#45;&gt;Node3</title>
<path fill="none" stroke="#191970" d="M80.6248,-553.9277C90.9972,-533.6328 113.5,-484.5296 113.5,-440.5 113.5,-440.5 113.5,-440.5 113.5,-183.5 113.5,-146.8684 123.3074,-131.2067 154.5,-112 190.1964,-90.0201 826.3,-71.0935 978.1458,-66.8755"/>
<polygon fill="#191970" stroke="#191970" points="978.3273,-70.3719 988.2269,-66.5974 978.1342,-63.3746 978.3273,-70.3719"/>
</g>
<!-- Node59&#45;&gt;Node6 -->
<g id="edge106" class="edge">
<title>Node59&#45;&gt;Node6</title>
<path fill="none" stroke="#191970" d="M75.5,-553.9309C75.5,-533.238 75.5,-482.7813 75.5,-440.5 75.5,-440.5 75.5,-440.5 75.5,-122 75.5,-32.1349 1551.1843,-12.9759 1804.6592,-10.3479"/>
<polygon fill="#191970" stroke="#191970" points="1804.8532,-13.8462 1814.8172,-10.2447 1804.7821,-6.8466 1804.8532,-13.8462"/>
</g>
<!-- Node59&#45;&gt;Node28 -->
<g id="edge103" class="edge">
<title>Node59&#45;&gt;Node28</title>
<path fill="none" stroke="#191970" d="M133.0617,-553.9581C199.5029,-542.9443 308.6384,-524.8531 379.0159,-513.1867"/>
<polygon fill="#191970" stroke="#191970" points="379.8156,-516.602 389.1085,-511.5137 378.6708,-509.6962 379.8156,-516.602"/>
</g>
<!-- Node59&#45;&gt;Node49 -->
<g id="edge104" class="edge">
<title>Node59&#45;&gt;Node49</title>
<path fill="none" stroke="#191970" d="M151.0047,-558.3895C197.5555,-555.2816 258.4809,-551.2908 312.5,-548 615.3854,-529.5482 981.7539,-509.7824 1093.5193,-503.809"/>
<polygon fill="#191970" stroke="#191970" points="1094.0267,-507.287 1103.8259,-503.2587 1093.6535,-500.297 1094.0267,-507.287"/>
</g>
<!-- Node60&#45;&gt;Node18 -->
<g id="edge108" class="edge">
<title>Node60&#45;&gt;Node18</title>
<path fill="none" stroke="#191970" d="M1192.7641,-624.1376C1083.8527,-615.526 910.7818,-598.9238 888.5,-579 862.2239,-555.5045 869.5,-537.2487 869.5,-502 869.5,-502 869.5,-502 869.5,-440.5 869.5,-367.422 957.2585,-333.4964 1024.3579,-318.2374"/>
<polygon fill="#191970" stroke="#191970" points="1025.4839,-321.5746 1034.5135,-316.0323 1023.9985,-314.734 1025.4839,-321.5746"/>
</g>
<!-- Node60&#45;&gt;Node28 -->
<g id="edge110" class="edge">
<title>Node60&#45;&gt;Node28</title>
<path fill="none" stroke="#191970" d="M1192.7082,-623.2522C1044.8538,-611.0108 762.2549,-586.8089 741.5,-579 719.4493,-570.7036 720.1761,-557.2308 698.5,-548 643.4536,-524.5583 576.6691,-513.0509 525.6854,-507.4083"/>
<polygon fill="#191970" stroke="#191970" points="526.0194,-503.9242 515.7075,-506.3561 525.2853,-510.8856 526.0194,-503.9242"/>
</g>
<!-- Node60&#45;&gt;Node29 -->
<g id="edge111" class="edge">
<title>Node60&#45;&gt;Node29</title>
<path fill="none" stroke="#191970" d="M1306.7165,-620.9005C1337.1681,-609.3082 1388.5485,-589.7486 1422.743,-576.7313"/>
<polygon fill="#191970" stroke="#191970" points="1424.2298,-579.9105 1432.3303,-573.0817 1421.7393,-573.3685 1424.2298,-579.9105"/>
</g>
<!-- Node60&#45;&gt;Node43 -->
<g id="edge109" class="edge">
<title>Node60&#45;&gt;Node43</title>
<path fill="none" stroke="#191970" d="M1337.3745,-620.9631C1351.1214,-618.81 1365.8213,-616.6701 1379.5,-615 1471.8258,-603.7278 1712.3093,-618.5352 1796.5,-579 1824.1344,-566.0232 1847.3148,-538.4845 1860.5571,-520.1063"/>
<polygon fill="#191970" stroke="#191970" points="1863.5706,-521.9026 1866.3915,-511.6902 1857.8177,-517.9145 1863.5706,-521.9026"/>
</g>
<!-- Node60&#45;&gt;Node49 -->
<g id="edge112" class="edge">
<title>Node60&#45;&gt;Node49</title>
<path fill="none" stroke="#191970" d="M1269.925,-620.8416C1243.7265,-598.9812 1179.6449,-545.5105 1147.1225,-518.3733"/>
<polygon fill="#191970" stroke="#191970" points="1149.1299,-515.4899 1139.2093,-511.7705 1144.6451,-520.8646 1149.1299,-515.4899"/>
</g>
<!-- Node61&#45;&gt;Node28 -->
<g id="edge114" class="edge">
<title>Node61&#45;&gt;Node28</title>
<path fill="none" stroke="#191970" d="M403.4688,-553.8906C411.0591,-544.7376 422.6661,-530.7409 431.9132,-519.59"/>
<polygon fill="#191970" stroke="#191970" points="434.7297,-521.6766 438.4189,-511.7449 429.3413,-517.2083 434.7297,-521.6766"/>
</g>
<!-- Node61&#45;&gt;Node49 -->
<g id="edge115" class="edge">
<title>Node61&#45;&gt;Node49</title>
<path fill="none" stroke="#191970" d="M464.853,-553.9835C481.7332,-551.8421 499.7493,-549.7023 516.5,-548 736.1353,-525.6801 1001.2108,-509.3176 1093.7087,-503.922"/>
<polygon fill="#191970" stroke="#191970" points="1094.0899,-507.4059 1103.8706,-503.333 1093.6848,-500.4176 1094.0899,-507.4059"/>
</g>
<!-- Node62&#45;&gt;Node4 -->
<g id="edge117" class="edge">
<title>Node62&#45;&gt;Node4</title>
<path fill="none" stroke="#191970" d="M2137.334,-553.9555C2168.009,-536.094 2227.5,-494.4935 2227.5,-440.5 2227.5,-440.5 2227.5,-440.5 2227.5,-373.5 2227.5,-306.0582 2209.5979,-286.0271 2165.5,-235 2151.9283,-219.2958 2132.3885,-206.6819 2115.9007,-197.8687"/>
<polygon fill="#191970" stroke="#191970" points="2117.1114,-194.5569 2106.6138,-193.1241 2113.9267,-200.7905 2117.1114,-194.5569"/>
</g>
<!-- Node62&#45;&gt;Node27 -->
<g id="edge118" class="edge">
<title>Node62&#45;&gt;Node27</title>
<path fill="none" stroke="#191970" d="M2113.0938,-553.8906C2107.1114,-544.917 2098.0253,-531.2879 2090.6661,-520.2491"/>
<polygon fill="#191970" stroke="#191970" points="2093.4558,-518.1239 2084.9966,-511.7449 2087.6314,-522.0068 2093.4558,-518.1239"/>
</g>
<!-- Node62&#45;&gt;Node44 -->
<g id="edge119" class="edge">
<title>Node62&#45;&gt;Node44</title>
<path fill="none" stroke="#191970" d="M2135.2345,-553.9233C2156.3613,-539.8939 2189.3009,-513.129 2171.5,-492 2157.6601,-475.5725 2040.0622,-459.1705 1956.5513,-449.4311"/>
<polygon fill="#191970" stroke="#191970" points="1956.8805,-445.946 1946.5453,-448.2769 1956.0783,-452.8999 1956.8805,-445.946"/>
</g>
<!-- Node62&#45;&gt;Node49 -->
<g id="edge120" class="edge">
<title>Node62&#45;&gt;Node49</title>
<path fill="none" stroke="#191970" d="M2043.716,-558.8017C1842.8706,-546.3501 1302.6398,-512.858 1161.5752,-504.1125"/>
<polygon fill="#191970" stroke="#191970" points="1161.5733,-500.6058 1151.3759,-503.4802 1161.1401,-507.5924 1161.5733,-500.6058"/>
</g>
<!-- Node63&#45;&gt;Node27 -->
<g id="edge124" class="edge">
<title>Node63&#45;&gt;Node27</title>
<path fill="none" stroke="#191970" d="M1702.6203,-615.3816C1787.5531,-589.7622 1958.1893,-538.2909 2036.9358,-514.5375"/>
<polygon fill="#191970" stroke="#191970" points="2038.4076,-517.7494 2046.9707,-511.5106 2036.386,-511.0477 2038.4076,-517.7494"/>
</g>
<!-- Node63&#45;&gt;Node28 -->
<g id="edge125" class="edge">
<title>Node63&#45;&gt;Node28</title>
<path fill="none" stroke="#191970" d="M1575.2129,-616.0989C1572.2752,-615.7014 1569.3632,-615.3327 1566.5,-615 1266.7591,-580.1696 1186.5922,-625.8915 888.5,-579 835.3592,-570.6407 824.2241,-558.677 771.5,-548 688.3974,-531.1711 592.108,-518.3654 526.0331,-510.5912"/>
<polygon fill="#191970" stroke="#191970" points="526.0324,-507.0675 515.6945,-509.3868 525.2224,-514.0205 526.0324,-507.0675"/>
</g>
<!-- Node63&#45;&gt;Node29 -->
<g id="edge126" class="edge">
<title>Node63&#45;&gt;Node29</title>
<path fill="none" stroke="#191970" d="M1608.7382,-615.4639C1574.4441,-603.6808 1527.2509,-587.4657 1494.7492,-576.2984"/>
<polygon fill="#191970" stroke="#191970" points="1495.7593,-572.9447 1485.1646,-573.0053 1493.4846,-579.5649 1495.7593,-572.9447"/>
</g>
<!-- Node63&#45;&gt;Node30 -->
<g id="edge122" class="edge">
<title>Node63&#45;&gt;Node30</title>
<path fill="none" stroke="#191970" d="M1633.167,-615.4522C1611.2658,-598.5661 1574.3441,-570.5809 1541.5,-548 1451.1089,-485.8546 1339.7926,-417.6881 1291.1735,-388.3139"/>
<polygon fill="#191970" stroke="#191970" points="1292.9478,-385.2967 1282.5769,-383.1298 1289.3329,-391.2911 1292.9478,-385.2967"/>
</g>
<!-- Node63&#45;&gt;Node32 -->
<g id="edge123" class="edge">
<title>Node63&#45;&gt;Node32</title>
<path fill="none" stroke="#191970" d="M1715.9824,-615.4981C1749.8672,-606.0687 1786.5999,-593.0549 1796.5,-579 1804.4342,-567.7361 1803.0413,-560.1259 1796.5,-548 1788.927,-533.9617 1774.9927,-523.5084 1761.5386,-516.1453"/>
<polygon fill="#191970" stroke="#191970" points="1762.8906,-512.9074 1752.385,-511.5353 1759.742,-519.1593 1762.8906,-512.9074"/>
</g>
<!-- Node63&#45;&gt;Node49 -->
<g id="edge128" class="edge">
<title>Node63&#45;&gt;Node49</title>
<path fill="none" stroke="#191970" d="M1575.4575,-616.4608C1496.6323,-602.0611 1384.3122,-581.4292 1374.5,-579 1296.9148,-559.7927 1207.8487,-530.0844 1160.7476,-513.7534"/>
<polygon fill="#191970" stroke="#191970" points="1161.6732,-510.3696 1151.0784,-510.384 1159.3698,-516.9797 1161.6732,-510.3696"/>
</g>
<!-- Node63&#45;&gt;Node62 -->
<g id="edge127" class="edge">
<title>Node63&#45;&gt;Node62</title>
<path fill="none" stroke="#191970" d="M1729.6156,-619.4363C1816.461,-606.9767 1956.7216,-586.8536 2043.2219,-574.4435"/>
<polygon fill="#191970" stroke="#191970" points="2043.8355,-577.8914 2053.2371,-573.0067 2042.8413,-570.9624 2043.8355,-577.8914"/>
</g>
<!-- Node64&#45;&gt;Node28 -->
<g id="edge131" class="edge">
<title>Node64&#45;&gt;Node28</title>
<path fill="none" stroke="#191970" d="M568.115,-548.4554C541.4873,-538.284 506.6556,-524.9787 481.0966,-515.2155"/>
<polygon fill="#191970" stroke="#191970" points="482.0399,-511.8292 471.4493,-511.5303 479.542,-518.3684 482.0399,-511.8292"/>
</g>
<!-- Node64&#45;&gt;Node49 -->
<g id="edge130" class="edge">
<title>Node64&#45;&gt;Node49</title>
<path fill="none" stroke="#191970" d="M689.6086,-553.7891C805.742,-540.0541 1012.8435,-515.5603 1093.7752,-505.9886"/>
<polygon fill="#191970" stroke="#191970" points="1094.3739,-509.4423 1103.8936,-504.7919 1093.5517,-502.4907 1094.3739,-509.4423"/>
</g>
<!-- Node65&#45;&gt;Node3 -->
<g id="edge133" class="edge">
<title>Node65&#45;&gt;Node3</title>
<path fill="none" stroke="#191970" d="M1045.7215,-746.1863C872.3254,-740.7794 452.6165,-720.184 335.5,-646 276.0403,-608.337 189.5,-465.3136 189.5,-373.5 189.5,-373.5 189.5,-373.5 189.5,-183.5 189.5,-102.3842 825.6313,-73.0295 977.9956,-67.1618"/>
<polygon fill="#191970" stroke="#191970" points="978.2537,-70.6547 988.1144,-66.7796 977.9894,-63.6597 978.2537,-70.6547"/>
</g>
<!-- Node65&#45;&gt;Node11 -->
<g id="edge135" class="edge">
<title>Node65&#45;&gt;Node11</title>
<path fill="none" stroke="#191970" d="M1197.2375,-744.4571C1458.1173,-731.7597 2303.5,-686.3082 2303.5,-630.5 2303.5,-630.5 2303.5,-630.5 2303.5,-183.5 2303.5,-149.12 2301.7684,-109.1143 2300.5838,-85.7694"/>
<polygon fill="#191970" stroke="#191970" points="2304.077,-85.5473 2300.0562,-75.7451 2297.0867,-85.9153 2304.077,-85.5473"/>
</g>
<!-- Node65&#45;&gt;Node27 -->
<g id="edge136" class="edge">
<title>Node65&#45;&gt;Node27</title>
<path fill="none" stroke="#191970" d="M1197.3312,-741.2984C1315.0189,-729.6022 1547.9347,-701.2581 1738.5,-646 1859.2661,-610.9815 1994.5771,-545.0853 2051.2428,-516.1888"/>
<polygon fill="#191970" stroke="#191970" points="2052.9695,-519.2367 2060.2697,-511.5583 2049.7746,-513.0084 2052.9695,-519.2367"/>
</g>
<!-- Node65&#45;&gt;Node28 -->
<g id="edge138" class="edge">
<title>Node65&#45;&gt;Node28</title>
<path fill="none" stroke="#191970" d="M1045.7215,-746.1863C872.3254,-740.7794 452.6165,-720.184 335.5,-646 295.3187,-620.5484 264.0849,-586.1432 292.5,-548 303.4327,-533.3244 343.5914,-521.6114 380.1567,-513.6777"/>
<polygon fill="#191970" stroke="#191970" points="381.2785,-517.0187 390.3474,-511.5409 379.8419,-510.1677 381.2785,-517.0187"/>
</g>
<!-- Node65&#45;&gt;Node49 -->
<g id="edge134" class="edge">
<title>Node65&#45;&gt;Node49</title>
<path fill="none" stroke="#191970" d="M1121.7352,-738.3565C1122.6257,-701.8479 1125.8011,-571.6569 1127.0194,-521.7066"/>
<polygon fill="#191970" stroke="#191970" points="1130.5215,-521.6592 1127.2664,-511.5768 1123.5235,-521.4885 1130.5215,-521.6592"/>
</g>
<!-- Node65&#45;&gt;Node50 -->
<g id="edge137" class="edge">
<title>Node65&#45;&gt;Node50</title>
<path fill="none" stroke="#191970" d="M1100.5275,-738.3733C1080.9433,-729.3838 1051.5039,-715.8706 1029.449,-705.7471"/>
<polygon fill="#191970" stroke="#191970" points="1030.7473,-702.4919 1020.1989,-701.5011 1027.8271,-708.8538 1030.7473,-702.4919"/>
</g>
</g>
</svg>
