<?xml version="1.0" encoding="UTF-8" standalone="no"?>
<!DOCTYPE svg PUBLIC "-//W3C//DTD SVG 1.1//EN"
 "http://www.w3.org/Graphics/SVG/1.1/DTD/svg11.dtd">
<!-- Generated by graphviz version 2.40.1 (20161225.0304)
 -->
<!-- Title: FixedStepIntegrator.h Pages: 1 -->
<svg width="463pt" height="140pt"
 viewBox="0.00 0.00 462.50 140.00" xmlns="http://www.w3.org/2000/svg" xmlns:xlink="http://www.w3.org/1999/xlink">
<g id="graph0" class="graph" transform="scale(1 1) rotate(0) translate(4 136)">
<title>FixedStepIntegrator.h</title>
<!-- Node21 -->
<g id="node1" class="node">
<title>Node21</title>
<polygon fill="#bfbfbf" stroke="#000000" points="173,-112.5 173,-131.5 293,-131.5 293,-112.5 173,-112.5"/>
<text text-anchor="middle" x="233" y="-119.5" font-family="FreeSans.ttf" font-size="10.00" fill="#000000">FixedStepIntegrator.h</text>
</g>
<!-- Node22 -->
<g id="node2" class="node">
<title>Node22</title>
<g id="a_node2"><a xlink:href="ForwardEuler_8h.html" target="_top" xlink:title="ForwardEuler.h">
<polygon fill="none" stroke="#000000" points="11.5,-56.5 11.5,-75.5 100.5,-75.5 100.5,-56.5 11.5,-56.5"/>
<text text-anchor="middle" x="56" y="-63.5" font-family="FreeSans.ttf" font-size="10.00" fill="#000000">ForwardEuler.h</text>
</a>
</g>
</g>
<!-- Node21&#45;&gt;Node22 -->
<g id="edge1" class="edge">
<title>Node21&#45;&gt;Node22</title>
<path fill="none" stroke="#191970" d="M192.9332,-109.3235C160.473,-99.0536 115.4507,-84.8093 86.0303,-75.5011"/>
<polygon fill="#191970" stroke="#191970" points="191.9826,-112.6937 202.5726,-112.3733 194.0942,-106.0197 191.9826,-112.6937"/>
</g>
<!-- Node24 -->
<g id="node4" class="node">
<title>Node24</title>
<g id="a_node4"><a xlink:href="ImplicitTrapezoidal_8h.html" target="_top" xlink:title="ImplicitTrapezoidal.h">
<polygon fill="none" stroke="#000000" points="124,-56.5 124,-75.5 242,-75.5 242,-56.5 124,-56.5"/>
<text text-anchor="middle" x="183" y="-63.5" font-family="FreeSans.ttf" font-size="10.00" fill="#000000">ImplicitTrapezoidal.h</text>
</a>
</g>
</g>
<!-- Node21&#45;&gt;Node24 -->
<g id="edge3" class="edge">
<title>Node21&#45;&gt;Node24</title>
<path fill="none" stroke="#191970" d="M217.3753,-104.5004C208.8727,-94.9775 198.6782,-83.5596 191.6095,-75.6427"/>
<polygon fill="#191970" stroke="#191970" points="215.0197,-107.1172 224.2907,-112.2455 220.2413,-102.4551 215.0197,-107.1172"/>
</g>
<!-- Node26 -->
<g id="node6" class="node">
<title>Node26</title>
<g id="a_node6"><a xlink:href="RK4_8h.html" target="_top" xlink:title="RK4.h">
<polygon fill="none" stroke="#000000" points="260.5,-56.5 260.5,-75.5 305.5,-75.5 305.5,-56.5 260.5,-56.5"/>
<text text-anchor="middle" x="283" y="-63.5" font-family="FreeSans.ttf" font-size="10.00" fill="#000000">RK4.h</text>
</a>
</g>
</g>
<!-- Node21&#45;&gt;Node26 -->
<g id="edge5" class="edge">
<title>Node21&#45;&gt;Node26</title>
<path fill="none" stroke="#191970" d="M248.6247,-104.5004C257.1273,-94.9775 267.3218,-83.5596 274.3905,-75.6427"/>
<polygon fill="#191970" stroke="#191970" points="245.7587,-102.4551 241.7093,-112.2455 250.9803,-107.1172 245.7587,-102.4551"/>
</g>
<!-- Node28 -->
<g id="node8" class="node">
<title>Node28</title>
<g id="a_node8"><a xlink:href="FixedStepIntegrator_8cpp.html" target="_top" xlink:title="FixedStepIntegrator.cpp">
<polygon fill="none" stroke="#000000" points="323.5,-56.5 323.5,-75.5 454.5,-75.5 454.5,-56.5 323.5,-56.5"/>
<text text-anchor="middle" x="389" y="-63.5" font-family="FreeSans.ttf" font-size="10.00" fill="#000000">FixedStepIntegrator.cpp</text>
</a>
</g>
</g>
<!-- Node21&#45;&gt;Node28 -->
<g id="edge7" class="edge">
<title>Node21&#45;&gt;Node28</title>
<path fill="none" stroke="#191970" d="M269.4284,-108.9231C297.9461,-98.686 336.9381,-84.6889 362.5326,-75.5011"/>
<polygon fill="#191970" stroke="#191970" points="268.0468,-105.7004 259.8174,-112.3733 270.4119,-112.2887 268.0468,-105.7004"/>
</g>
<!-- Node23 -->
<g id="node3" class="node">
<title>Node23</title>
<g id="a_node3"><a xlink:href="ForwardEuler_8cpp.html" target="_top" xlink:title="ForwardEuler.cpp">
<polygon fill="none" stroke="#000000" points="0,-.5 0,-19.5 100,-19.5 100,-.5 0,-.5"/>
<text text-anchor="middle" x="50" y="-7.5" font-family="FreeSans.ttf" font-size="10.00" fill="#000000">ForwardEuler.cpp</text>
</a>
</g>
</g>
<!-- Node22&#45;&gt;Node23 -->
<g id="edge2" class="edge">
<title>Node22&#45;&gt;Node23</title>
<path fill="none" stroke="#191970" d="M53.874,-46.1575C52.9095,-37.155 51.8128,-26.9199 51.0331,-19.6427"/>
<polygon fill="#191970" stroke="#191970" points="50.4094,-46.6753 54.9549,-56.2455 57.3695,-45.9296 50.4094,-46.6753"/>
</g>
<!-- Node25 -->
<g id="node5" class="node">
<title>Node25</title>
<g id="a_node5"><a xlink:href="ImplicitTrapezoidal_8cpp.html" target="_top" xlink:title="ImplicitTrapezoidal.cpp">
<polygon fill="none" stroke="#000000" points="118.5,-.5 118.5,-19.5 247.5,-19.5 247.5,-.5 118.5,-.5"/>
<text text-anchor="middle" x="183" y="-7.5" font-family="FreeSans.ttf" font-size="10.00" fill="#000000">ImplicitTrapezoidal.cpp</text>
</a>
</g>
</g>
<!-- Node24&#45;&gt;Node25 -->
<g id="edge4" class="edge">
<title>Node24&#45;&gt;Node25</title>
<path fill="none" stroke="#191970" d="M183,-46.1575C183,-37.155 183,-26.9199 183,-19.6427"/>
<polygon fill="#191970" stroke="#191970" points="179.5001,-46.2455 183,-56.2455 186.5001,-46.2456 179.5001,-46.2455"/>
</g>
<!-- Node27 -->
<g id="node7" class="node">
<title>Node27</title>
<g id="a_node7"><a xlink:href="RK4_8cpp.html" target="_top" xlink:title="RK4.cpp">
<polygon fill="none" stroke="#000000" points="266,-.5 266,-19.5 322,-19.5 322,-.5 266,-.5"/>
<text text-anchor="middle" x="294" y="-7.5" font-family="FreeSans.ttf" font-size="10.00" fill="#000000">RK4.cpp</text>
</a>
</g>
</g>
<!-- Node26&#45;&gt;Node27 -->
<g id="edge6" class="edge">
<title>Node26&#45;&gt;Node27</title>
<path fill="none" stroke="#191970" d="M286.8976,-46.1575C288.666,-37.155 290.6765,-26.9199 292.1059,-19.6427"/>
<polygon fill="#191970" stroke="#191970" points="283.4092,-45.7584 284.9161,-56.2455 290.278,-47.1077 283.4092,-45.7584"/>
</g>
</g>
</svg>
