<?xml version="1.0" encoding="UTF-8" standalone="no"?>
<!DOCTYPE svg PUBLIC "-//W3C//DTD SVG 1.1//EN"
 "http://www.w3.org/Graphics/SVG/1.1/DTD/svg11.dtd">
<!-- Generated by graphviz version 2.40.1 (20161225.0304)
 -->
<!-- Title: FloorGridSceneNode.h Pages: 1 -->
<svg width="872pt" height="140pt"
 viewBox="0.00 0.00 872.00 140.00" xmlns="http://www.w3.org/2000/svg" xmlns:xlink="http://www.w3.org/1999/xlink">
<g id="graph0" class="graph" transform="scale(1 1) rotate(0) translate(4 136)">
<title>FloorGridSceneNode.h</title>
<!-- Node51 -->
<g id="node1" class="node">
<title>Node51</title>
<polygon fill="#bfbfbf" stroke="#000000" points="183.5,-112.5 183.5,-131.5 308.5,-131.5 308.5,-112.5 183.5,-112.5"/>
<text text-anchor="middle" x="246" y="-119.5" font-family="FreeSans.ttf" font-size="10.00" fill="#000000">FloorGridSceneNode.h</text>
</g>
<!-- Node52 -->
<g id="node2" class="node">
<title>Node52</title>
<g id="a_node2"><a xlink:href="IrrlichtUtils_8h.html" target="_top" xlink:title="IrrlichtUtils.h">
<polygon fill="none" stroke="#000000" points="320,-56.5 320,-75.5 400,-75.5 400,-56.5 320,-56.5"/>
<text text-anchor="middle" x="360" y="-63.5" font-family="FreeSans.ttf" font-size="10.00" fill="#000000">IrrlichtUtils.h</text>
</a>
</g>
</g>
<!-- Node51&#45;&gt;Node52 -->
<g id="edge1" class="edge">
<title>Node51&#45;&gt;Node52</title>
<path fill="none" stroke="#191970" d="M274.8321,-107.8368C295.4395,-97.7139 322.6082,-84.3679 340.6584,-75.5011"/>
<polygon fill="#191970" stroke="#191970" points="273.0297,-104.8227 265.5973,-112.3733 276.116,-111.1056 273.0297,-104.8227"/>
</g>
<!-- Node55 -->
<g id="node5" class="node">
<title>Node55</title>
<g id="a_node5"><a xlink:href="FloorGridSceneNode_8cpp.html" target="_top" xlink:title="FloorGridSceneNode.cpp">
<polygon fill="none" stroke="#000000" points="0,-.5 0,-19.5 136,-19.5 136,-.5 0,-.5"/>
<text text-anchor="middle" x="68" y="-7.5" font-family="FreeSans.ttf" font-size="10.00" fill="#000000">FloorGridSceneNode.cpp</text>
</a>
</g>
</g>
<!-- Node51&#45;&gt;Node55 -->
<g id="edge9" class="edge">
<title>Node51&#45;&gt;Node55</title>
<path fill="none" stroke="#191970" d="M222.1291,-106.9801C184.9083,-83.5603 114.1068,-39.011 83.1378,-19.5249"/>
<polygon fill="#191970" stroke="#191970" points="220.4959,-110.0877 230.8238,-112.4509 224.2239,-104.1629 220.4959,-110.0877"/>
</g>
<!-- Node53 -->
<g id="node3" class="node">
<title>Node53</title>
<g id="a_node3"><a xlink:href="Camera_8cpp.html" target="_top" xlink:title="Camera.cpp">
<polygon fill="none" stroke="#000000" points="154.5,-.5 154.5,-19.5 229.5,-19.5 229.5,-.5 154.5,-.5"/>
<text text-anchor="middle" x="192" y="-7.5" font-family="FreeSans.ttf" font-size="10.00" fill="#000000">Camera.cpp</text>
</a>
</g>
</g>
<!-- Node52&#45;&gt;Node53 -->
<g id="edge2" class="edge">
<title>Node52&#45;&gt;Node53</title>
<path fill="none" stroke="#191970" d="M321.5714,-53.1905C290.7927,-42.9309 248.3074,-28.7691 220.5034,-19.5011"/>
<polygon fill="#191970" stroke="#191970" points="320.5261,-56.5313 331.1198,-56.3733 322.7398,-49.8905 320.5261,-56.5313"/>
</g>
<!-- Node54 -->
<g id="node4" class="node">
<title>Node54</title>
<g id="a_node4"><a xlink:href="Environment_8cpp.html" target="_top" xlink:title="Environment.cpp">
<polygon fill="none" stroke="#000000" points="247.5,-.5 247.5,-19.5 346.5,-19.5 346.5,-.5 247.5,-.5"/>
<text text-anchor="middle" x="297" y="-7.5" font-family="FreeSans.ttf" font-size="10.00" fill="#000000">Environment.cpp</text>
</a>
</g>
</g>
<!-- Node52&#45;&gt;Node54 -->
<g id="edge3" class="edge">
<title>Node52&#45;&gt;Node54</title>
<path fill="none" stroke="#191970" d="M341.2808,-49.3607C330.3818,-39.6727 317.0245,-27.7995 307.848,-19.6427"/>
<polygon fill="#191970" stroke="#191970" points="339.2268,-52.2178 349.0262,-56.2455 343.8774,-46.9859 339.2268,-52.2178"/>
</g>
<!-- Node52&#45;&gt;Node55 -->
<g id="edge4" class="edge">
<title>Node52&#45;&gt;Node55</title>
<path fill="none" stroke="#191970" d="M309.7091,-56.3552C255.926,-46.0406 171.1667,-29.7854 117.6365,-19.5193"/>
<polygon fill="#191970" stroke="#191970" points="309.225,-59.826 319.7052,-58.2722 310.5434,-52.9513 309.225,-59.826"/>
</g>
<!-- Node56 -->
<g id="node6" class="node">
<title>Node56</title>
<g id="a_node6"><a xlink:href="JetsVisualization_8cpp.html" target="_top" xlink:title="JetsVisualization.cpp">
<polygon fill="none" stroke="#000000" points="365,-.5 365,-19.5 483,-19.5 483,-.5 365,-.5"/>
<text text-anchor="middle" x="424" y="-7.5" font-family="FreeSans.ttf" font-size="10.00" fill="#000000">JetsVisualization.cpp</text>
</a>
</g>
</g>
<!-- Node52&#45;&gt;Node56 -->
<g id="edge5" class="edge">
<title>Node52&#45;&gt;Node56</title>
<path fill="none" stroke="#191970" d="M378.6914,-49.645C389.8219,-39.9058 403.5663,-27.8795 412.9798,-19.6427"/>
<polygon fill="#191970" stroke="#191970" points="376.369,-47.0264 371.1479,-56.2455 380.9785,-52.2945 376.369,-47.0264"/>
</g>
<!-- Node57 -->
<g id="node7" class="node">
<title>Node57</title>
<g id="a_node7"><a xlink:href="Light_8cpp.html" target="_top" xlink:title="Light.cpp">
<polygon fill="none" stroke="#000000" points="501.5,-.5 501.5,-19.5 562.5,-19.5 562.5,-.5 501.5,-.5"/>
<text text-anchor="middle" x="532" y="-7.5" font-family="FreeSans.ttf" font-size="10.00" fill="#000000">Light.cpp</text>
</a>
</g>
</g>
<!-- Node52&#45;&gt;Node57 -->
<g id="edge6" class="edge">
<title>Node52&#45;&gt;Node57</title>
<path fill="none" stroke="#191970" d="M399.3435,-53.1905C430.8551,-42.9309 474.3519,-28.7691 502.818,-19.5011"/>
<polygon fill="#191970" stroke="#191970" points="397.993,-49.9493 389.5679,-56.3733 400.1601,-56.6054 397.993,-49.9493"/>
</g>
<!-- Node58 -->
<g id="node8" class="node">
<title>Node58</title>
<g id="a_node8"><a xlink:href="ModelVisualization_8cpp.html" target="_top" xlink:title="ModelVisualization.cpp">
<polygon fill="none" stroke="#000000" points="580.5,-.5 580.5,-19.5 709.5,-19.5 709.5,-.5 580.5,-.5"/>
<text text-anchor="middle" x="645" y="-7.5" font-family="FreeSans.ttf" font-size="10.00" fill="#000000">ModelVisualization.cpp</text>
</a>
</g>
</g>
<!-- Node52&#45;&gt;Node58 -->
<g id="edge7" class="edge">
<title>Node52&#45;&gt;Node58</title>
<path fill="none" stroke="#191970" d="M410.3205,-56.1125C462.8144,-45.7979 544.5439,-29.7388 596.3912,-19.5512"/>
<polygon fill="#191970" stroke="#191970" points="409.3666,-52.7329 400.2291,-58.0953 410.7163,-59.6015 409.3666,-52.7329"/>
</g>
<!-- Node59 -->
<g id="node9" class="node">
<title>Node59</title>
<g id="a_node9"><a xlink:href="VectorsVisualization_8cpp.html" target="_top" xlink:title="VectorsVisualization.cpp">
<polygon fill="none" stroke="#000000" points="728,-.5 728,-19.5 864,-19.5 864,-.5 728,-.5"/>
<text text-anchor="middle" x="796" y="-7.5" font-family="FreeSans.ttf" font-size="10.00" fill="#000000">VectorsVisualization.cpp</text>
</a>
</g>
</g>
<!-- Node52&#45;&gt;Node59 -->
<g id="edge8" class="edge">
<title>Node52&#45;&gt;Node59</title>
<path fill="none" stroke="#191970" d="M410.326,-59.5791C479.771,-50.7125 608.8937,-34.2039 719,-20 721.9413,-19.6206 724.9457,-19.2325 727.9807,-18.8401"/>
<polygon fill="#191970" stroke="#191970" points="409.5898,-56.1446 400.1136,-60.8828 410.4763,-63.0882 409.5898,-56.1446"/>
</g>
</g>
</svg>
