<?xml version="1.0" encoding="UTF-8" standalone="no"?>
<!DOCTYPE svg PUBLIC "-//W3C//DTD SVG 1.1//EN"
 "http://www.w3.org/Graphics/SVG/1.1/DTD/svg11.dtd">
<!-- Generated by graphviz version 2.40.1 (20161225.0304)
 -->
<!-- Title: ForceVector3.cpp Pages: 1 -->
<svg width="721pt" height="498pt"
 viewBox="0.00 0.00 720.50 498.00" xmlns="http://www.w3.org/2000/svg" xmlns:xlink="http://www.w3.org/1999/xlink">
<g id="graph0" class="graph" transform="scale(1 1) rotate(0) translate(4 494)">
<title>ForceVector3.cpp</title>
<!-- Node0 -->
<g id="node1" class="node">
<title>Node0</title>
<polygon fill="#bfbfbf" stroke="#000000" points="216,-470.5 216,-489.5 316,-489.5 316,-470.5 216,-470.5"/>
<text text-anchor="middle" x="266" y="-477.5" font-family="FreeSans.ttf" font-size="10.00" fill="#000000">ForceVector3.cpp</text>
</g>
<!-- Node1 -->
<g id="node2" class="node">
<title>Node1</title>
<g id="a_node2"><a xlink:href="ForceVector3_8h.html" target="_top" xlink:title="iDynTree/Core/ForceVector3.h">
<polygon fill="none" stroke="#000000" points="132,-347.5 132,-366.5 292,-366.5 292,-347.5 132,-347.5"/>
<text text-anchor="middle" x="212" y="-354.5" font-family="FreeSans.ttf" font-size="10.00" fill="#000000">iDynTree/Core/ForceVector3.h</text>
</a>
</g>
</g>
<!-- Node0&#45;&gt;Node1 -->
<g id="edge1" class="edge">
<title>Node0&#45;&gt;Node1</title>
<path fill="none" stroke="#191970" d="M257.5565,-470.4203C250.1261,-461.537 239.5056,-447.6667 233,-434 224.23,-415.5764 218.6009,-392.8701 215.4011,-376.9043"/>
<polygon fill="#191970" stroke="#191970" points="218.7594,-375.8192 213.4903,-366.6276 211.8774,-377.0989 218.7594,-375.8192"/>
</g>
<!-- Node24 -->
<g id="node25" class="node">
<title>Node24</title>
<g id="a_node25"><a xlink:href="LinearForceVector3_8h.html" target="_top" xlink:title="iDynTree/Core/LinearForce\lVector3.h">
<polygon fill="none" stroke="#000000" points="42,-403.5 42,-433.5 186,-433.5 186,-403.5 42,-403.5"/>
<text text-anchor="start" x="50" y="-421.5" font-family="FreeSans.ttf" font-size="10.00" fill="#000000">iDynTree/Core/LinearForce</text>
<text text-anchor="middle" x="114" y="-410.5" font-family="FreeSans.ttf" font-size="10.00" fill="#000000">Vector3.h</text>
</a>
</g>
</g>
<!-- Node0&#45;&gt;Node24 -->
<g id="edge38" class="edge">
<title>Node0&#45;&gt;Node24</title>
<path fill="none" stroke="#191970" d="M242.25,-470.3906C220.4406,-461.5664 187.5048,-448.2404 160.4714,-437.3026"/>
<polygon fill="#191970" stroke="#191970" points="161.7661,-434.0508 151.1834,-433.5446 159.1406,-440.5398 161.7661,-434.0508"/>
</g>
<!-- Node25 -->
<g id="node26" class="node">
<title>Node25</title>
<g id="a_node26"><a xlink:href="AngularForceVector3_8h.html" target="_top" xlink:title="iDynTree/Core/AngularForce\lVector3.h">
<polygon fill="none" stroke="#000000" points="242,-403.5 242,-433.5 394,-433.5 394,-403.5 242,-403.5"/>
<text text-anchor="start" x="250" y="-421.5" font-family="FreeSans.ttf" font-size="10.00" fill="#000000">iDynTree/Core/AngularForce</text>
<text text-anchor="middle" x="318" y="-410.5" font-family="FreeSans.ttf" font-size="10.00" fill="#000000">Vector3.h</text>
</a>
</g>
</g>
<!-- Node0&#45;&gt;Node25 -->
<g id="edge41" class="edge">
<title>Node0&#45;&gt;Node25</title>
<path fill="none" stroke="#191970" d="M274.125,-470.3906C280.7064,-462.6068 290.2496,-451.3202 298.756,-441.2597"/>
<polygon fill="#191970" stroke="#191970" points="301.4954,-443.4407 305.2794,-433.5446 296.15,-438.921 301.4954,-443.4407"/>
</g>
<!-- Node26 -->
<g id="node27" class="node">
<title>Node26</title>
<g id="a_node27"><a xlink:href="PrivatePreProcessorUtils_8h.html" target="_top" xlink:title="iDynTree/Core/PrivatePre\lProcessorUtils.h">
<polygon fill="none" stroke="#000000" points="412,-403.5 412,-433.5 550,-433.5 550,-403.5 412,-403.5"/>
<text text-anchor="start" x="420" y="-421.5" font-family="FreeSans.ttf" font-size="10.00" fill="#000000">iDynTree/Core/PrivatePre</text>
<text text-anchor="middle" x="481" y="-410.5" font-family="FreeSans.ttf" font-size="10.00" fill="#000000">ProcessorUtils.h</text>
</a>
</g>
</g>
<!-- Node0&#45;&gt;Node26 -->
<g id="edge45" class="edge">
<title>Node0&#45;&gt;Node26</title>
<path fill="none" stroke="#191970" d="M299.5938,-470.3906C331.3856,-461.2967 379.8923,-447.4215 418.7499,-436.3064"/>
<polygon fill="#191970" stroke="#191970" points="419.7533,-439.6599 428.4051,-433.5446 417.8281,-432.9298 419.7533,-439.6599"/>
</g>
<!-- Node2 -->
<g id="node3" class="node">
<title>Node2</title>
<g id="a_node3"><a xlink:href="GeomVector3_8h.html" target="_top" xlink:title="iDynTree/Core/GeomVector3.h">
<polygon fill="none" stroke="#000000" points="348.5,-291.5 348.5,-310.5 511.5,-310.5 511.5,-291.5 348.5,-291.5"/>
<text text-anchor="middle" x="430" y="-298.5" font-family="FreeSans.ttf" font-size="10.00" fill="#000000">iDynTree/Core/GeomVector3.h</text>
</a>
</g>
</g>
<!-- Node1&#45;&gt;Node2 -->
<g id="edge2" class="edge">
<title>Node1&#45;&gt;Node2</title>
<path fill="none" stroke="#191970" d="M249.4755,-347.3733C286.5103,-337.8598 343.2682,-323.2797 383.2361,-313.0127"/>
<polygon fill="#191970" stroke="#191970" points="384.1988,-316.3792 393.0135,-310.5011 382.4571,-309.5993 384.1988,-316.3792"/>
</g>
<!-- Node23 -->
<g id="node24" class="node">
<title>Node23</title>
<g id="a_node24"><a xlink:href="PrivateMotionForceVertorAssociations_8h.html" target="_top" xlink:title="iDynTree/Core/PrivateMotion\lForceVertorAssociations.h">
<polygon fill="none" stroke="#000000" points="112.5,-224.5 112.5,-254.5 267.5,-254.5 267.5,-224.5 112.5,-224.5"/>
<text text-anchor="start" x="120.5" y="-242.5" font-family="FreeSans.ttf" font-size="10.00" fill="#000000">iDynTree/Core/PrivateMotion</text>
<text text-anchor="middle" x="190" y="-231.5" font-family="FreeSans.ttf" font-size="10.00" fill="#000000">ForceVertorAssociations.h</text>
</a>
</g>
</g>
<!-- Node1&#45;&gt;Node23 -->
<g id="edge37" class="edge">
<title>Node1&#45;&gt;Node23</title>
<path fill="none" stroke="#191970" d="M210.1996,-347.3845C206.8444,-329.4644 199.5372,-290.4375 194.6936,-264.5681"/>
<polygon fill="#191970" stroke="#191970" points="198.1293,-263.8994 192.8486,-254.7143 191.2489,-265.1877 198.1293,-263.8994"/>
</g>
<!-- Node3 -->
<g id="node4" class="node">
<title>Node3</title>
<g id="a_node4"><a xlink:href="VectorFixSize_8h.html" target="_top" xlink:title="iDynTree/Core/VectorFixSize.h">
<polygon fill="none" stroke="#000000" points="273.5,-112.5 273.5,-131.5 434.5,-131.5 434.5,-112.5 273.5,-112.5"/>
<text text-anchor="middle" x="354" y="-119.5" font-family="FreeSans.ttf" font-size="10.00" fill="#000000">iDynTree/Core/VectorFixSize.h</text>
</a>
</g>
</g>
<!-- Node2&#45;&gt;Node3 -->
<g id="edge3" class="edge">
<title>Node2&#45;&gt;Node3</title>
<path fill="none" stroke="#191970" d="M432.361,-291.1966C435.5009,-276.2457 439.8042,-247.0529 432,-224 420.2514,-189.2955 391.4382,-157.1101 372.3143,-138.5136"/>
<polygon fill="#191970" stroke="#191970" points="374.7032,-135.9555 365.0315,-131.6299 369.8947,-141.0427 374.7032,-135.9555"/>
</g>
<!-- Node4 -->
<g id="node5" class="node">
<title>Node4</title>
<g id="a_node5"><a xlink:href="Utils_8h.html" target="_top" xlink:title="iDynTree/Core/Utils.h">
<polygon fill="none" stroke="#000000" points="553.5,-56.5 553.5,-75.5 672.5,-75.5 672.5,-56.5 553.5,-56.5"/>
<text text-anchor="middle" x="613" y="-63.5" font-family="FreeSans.ttf" font-size="10.00" fill="#000000">iDynTree/Core/Utils.h</text>
</a>
</g>
</g>
<!-- Node2&#45;&gt;Node4 -->
<g id="edge36" class="edge">
<title>Node2&#45;&gt;Node4</title>
<path fill="none" stroke="#191970" d="M453.7133,-291.4554C501.4796,-270.7563 608.271,-216.6754 650,-132 658.4461,-114.8613 645.35,-95.8918 632.4646,-82.7048"/>
<polygon fill="#191970" stroke="#191970" points="634.724,-80.0234 625.0666,-75.6661 629.8989,-85.0948 634.724,-80.0234"/>
</g>
<!-- Node18 -->
<g id="node19" class="node">
<title>Node18</title>
<g id="a_node19"><a xlink:href="Rotation_8h.html" target="_top" xlink:title="iDynTree/Core/Rotation.h">
<polygon fill="none" stroke="#000000" points="285.5,-230 285.5,-249 422.5,-249 422.5,-230 285.5,-230"/>
<text text-anchor="middle" x="354" y="-237" font-family="FreeSans.ttf" font-size="10.00" fill="#000000">iDynTree/Core/Rotation.h</text>
</a>
</g>
</g>
<!-- Node2&#45;&gt;Node18 -->
<g id="edge20" class="edge">
<title>Node2&#45;&gt;Node18</title>
<path fill="none" stroke="#191970" d="M418.125,-291.3906C406.3703,-281.8786 388.1514,-267.1357 374.1328,-255.7917"/>
<polygon fill="#191970" stroke="#191970" points="376.0178,-252.8146 366.0424,-249.2449 371.6144,-258.2562 376.0178,-252.8146"/>
</g>
<!-- Node2&#45;&gt;Node23 -->
<g id="edge35" class="edge">
<title>Node2&#45;&gt;Node23</title>
<path fill="none" stroke="#191970" d="M392.7633,-291.4581C357.0209,-282.2991 302.1787,-268.2458 258.5388,-257.0631"/>
<polygon fill="#191970" stroke="#191970" points="259.3985,-253.6703 248.8426,-254.5784 257.6608,-260.4512 259.3985,-253.6703"/>
</g>
<!-- Node3&#45;&gt;Node4 -->
<g id="edge4" class="edge">
<title>Node3&#45;&gt;Node4</title>
<path fill="none" stroke="#191970" d="M398.2294,-112.4369C442.7415,-102.8127 511.449,-87.957 559.1169,-77.6504"/>
<polygon fill="#191970" stroke="#191970" points="559.9186,-81.058 568.953,-75.5237 558.4392,-74.2161 559.9186,-81.058"/>
</g>
<!-- Node6 -->
<g id="node7" class="node">
<title>Node6</title>
<g id="a_node7"><a xlink:href="Span_8h.html" target="_top" xlink:title="iDynTree/Core/Span.h">
<polygon fill="none" stroke="#000000" points="358.5,-56.5 358.5,-75.5 479.5,-75.5 479.5,-56.5 358.5,-56.5"/>
<text text-anchor="middle" x="419" y="-63.5" font-family="FreeSans.ttf" font-size="10.00" fill="#000000">iDynTree/Core/Span.h</text>
</a>
</g>
</g>
<!-- Node3&#45;&gt;Node6 -->
<g id="edge6" class="edge">
<title>Node3&#45;&gt;Node6</title>
<path fill="none" stroke="#191970" d="M365.3221,-112.2455C374.9223,-103.9746 388.8892,-91.9416 400.1695,-82.2232"/>
<polygon fill="#191970" stroke="#191970" points="402.516,-84.8214 407.8076,-75.6427 397.947,-79.5182 402.516,-84.8214"/>
</g>
<!-- Node7 -->
<g id="node8" class="node">
<title>Node7</title>
<polygon fill="none" stroke="#bfbfbf" points="79,-.5 79,-19.5 131,-19.5 131,-.5 79,-.5"/>
<text text-anchor="middle" x="105" y="-7.5" font-family="FreeSans.ttf" font-size="10.00" fill="#000000">cassert</text>
</g>
<!-- Node3&#45;&gt;Node7 -->
<g id="edge18" class="edge">
<title>Node3&#45;&gt;Node7</title>
<path fill="none" stroke="#191970" d="M350.4462,-112.169C344.6062,-97.4884 331.5364,-70.0625 311,-56 249.5466,-13.919 218.0275,-36.6196 141.4046,-20.0814"/>
<polygon fill="#191970" stroke="#191970" points="141.8527,-16.5923 131.3197,-17.7359 140.2669,-23.4103 141.8527,-16.5923"/>
</g>
<!-- Node15 -->
<g id="node16" class="node">
<title>Node15</title>
<polygon fill="none" stroke="#bfbfbf" points="258,-56.5 258,-75.5 302,-75.5 302,-56.5 258,-56.5"/>
<text text-anchor="middle" x="280" y="-63.5" font-family="FreeSans.ttf" font-size="10.00" fill="#000000">string</text>
</g>
<!-- Node3&#45;&gt;Node15 -->
<g id="edge16" class="edge">
<title>Node3&#45;&gt;Node15</title>
<path fill="none" stroke="#191970" d="M341.1102,-112.2455C330.0746,-103.8943 313.9708,-91.7076 301.0647,-81.9408"/>
<polygon fill="#191970" stroke="#191970" points="302.8283,-78.8862 292.7421,-75.6427 298.6041,-84.4681 302.8283,-78.8862"/>
</g>
<!-- Node16 -->
<g id="node17" class="node">
<title>Node16</title>
<polygon fill="none" stroke="#bfbfbf" points="184,-56.5 184,-75.5 240,-75.5 240,-56.5 184,-56.5"/>
<text text-anchor="middle" x="212" y="-63.5" font-family="FreeSans.ttf" font-size="10.00" fill="#000000">sstream</text>
</g>
<!-- Node3&#45;&gt;Node16 -->
<g id="edge17" class="edge">
<title>Node3&#45;&gt;Node16</title>
<path fill="none" stroke="#191970" d="M329.5893,-112.3733C306.3858,-103.2226 271.2962,-89.3844 245.4858,-79.2057"/>
<polygon fill="#191970" stroke="#191970" points="246.6789,-75.9139 236.0921,-75.5011 244.1108,-82.4258 246.6789,-75.9139"/>
</g>
<!-- Node17 -->
<g id="node18" class="node">
<title>Node17</title>
<polygon fill="none" stroke="#bfbfbf" points="116,-56.5 116,-75.5 166,-75.5 166,-56.5 116,-56.5"/>
<text text-anchor="middle" x="141" y="-63.5" font-family="FreeSans.ttf" font-size="10.00" fill="#000000">cstring</text>
</g>
<!-- Node3&#45;&gt;Node17 -->
<g id="edge19" class="edge">
<title>Node3&#45;&gt;Node17</title>
<path fill="none" stroke="#191970" d="M315.1392,-112.4244C280.8695,-103.8883 229.351,-90.8342 175.8738,-76.1801"/>
<polygon fill="#191970" stroke="#191970" points="176.7936,-72.8032 166.2233,-73.5238 174.9359,-79.5522 176.7936,-72.8032"/>
</g>
<!-- Node5 -->
<g id="node6" class="node">
<title>Node5</title>
<polygon fill="none" stroke="#bfbfbf" points="659.5,-.5 659.5,-19.5 712.5,-19.5 712.5,-.5 659.5,-.5"/>
<text text-anchor="middle" x="686" y="-7.5" font-family="FreeSans.ttf" font-size="10.00" fill="#000000">cstddef</text>
</g>
<!-- Node4&#45;&gt;Node5 -->
<g id="edge5" class="edge">
<title>Node4&#45;&gt;Node5</title>
<path fill="none" stroke="#191970" d="M625.7156,-56.2455C636.602,-47.8943 652.4883,-35.7076 665.22,-25.9408"/>
<polygon fill="#191970" stroke="#191970" points="667.6261,-28.5063 673.4301,-19.6427 663.3654,-22.9523 667.6261,-28.5063"/>
</g>
<!-- Node6&#45;&gt;Node5 -->
<g id="edge10" class="edge">
<title>Node6&#45;&gt;Node5</title>
<path fill="none" stroke="#191970" d="M472.9235,-56.4361C517.695,-48.2291 583.2371,-35.6024 649.536,-19.976"/>
<polygon fill="#191970" stroke="#191970" points="650.4021,-23.3677 659.3209,-17.6488 648.7824,-16.5576 650.4021,-23.3677"/>
</g>
<!-- Node6&#45;&gt;Node7 -->
<g id="edge7" class="edge">
<title>Node6&#45;&gt;Node7</title>
<path fill="none" stroke="#191970" d="M358.2569,-56.8214C293.4224,-46.8859 193.8987,-31.2037 141.1846,-20.0328"/>
<polygon fill="#191970" stroke="#191970" points="141.8078,-16.5864 131.29,-17.8619 140.3075,-23.4237 141.8078,-16.5864"/>
</g>
<!-- Node8 -->
<g id="node9" class="node">
<title>Node8</title>
<polygon fill="none" stroke="#bfbfbf" points="517,-.5 517,-19.5 581,-19.5 581,-.5 517,-.5"/>
<text text-anchor="middle" x="549" y="-7.5" font-family="FreeSans.ttf" font-size="10.00" fill="#000000">algorithm</text>
</g>
<!-- Node6&#45;&gt;Node8 -->
<g id="edge8" class="edge">
<title>Node6&#45;&gt;Node8</title>
<path fill="none" stroke="#191970" d="M441.3478,-56.3733C462.4033,-47.3032 494.1495,-33.6279 517.7175,-23.4755"/>
<polygon fill="#191970" stroke="#191970" points="519.1444,-26.6719 526.9438,-19.5011 516.375,-20.243 519.1444,-26.6719"/>
</g>
<!-- Node9 -->
<g id="node10" class="node">
<title>Node9</title>
<polygon fill="none" stroke="#bfbfbf" points="599,-.5 599,-19.5 641,-19.5 641,-.5 599,-.5"/>
<text text-anchor="middle" x="620" y="-7.5" font-family="FreeSans.ttf" font-size="10.00" fill="#000000">array</text>
</g>
<!-- Node6&#45;&gt;Node9 -->
<g id="edge9" class="edge">
<title>Node6&#45;&gt;Node9</title>
<path fill="none" stroke="#191970" d="M456.8776,-56.4945C489.5441,-48.1448 538.1809,-35.3526 588.9128,-20.2132"/>
<polygon fill="#191970" stroke="#191970" points="590.1753,-23.4885 598.7441,-17.2574 588.1598,-16.7849 590.1753,-23.4885"/>
</g>
<!-- Node10 -->
<g id="node11" class="node">
<title>Node10</title>
<polygon fill="none" stroke="#bfbfbf" points="149.5,-.5 149.5,-19.5 202.5,-19.5 202.5,-.5 149.5,-.5"/>
<text text-anchor="middle" x="176" y="-7.5" font-family="FreeSans.ttf" font-size="10.00" fill="#000000">iterator</text>
</g>
<!-- Node6&#45;&gt;Node10 -->
<g id="edge11" class="edge">
<title>Node6&#45;&gt;Node10</title>
<path fill="none" stroke="#191970" d="M372.7972,-56.4556C332.8752,-48.046 273.4207,-35.1352 212.485,-20.026"/>
<polygon fill="#191970" stroke="#191970" points="213.2452,-16.6085 202.6952,-17.5826 211.55,-23.4001 213.2452,-16.6085"/>
</g>
<!-- Node11 -->
<g id="node12" class="node">
<title>Node11</title>
<polygon fill="none" stroke="#bfbfbf" points="221,-.5 221,-19.5 265,-19.5 265,-.5 221,-.5"/>
<text text-anchor="middle" x="243" y="-7.5" font-family="FreeSans.ttf" font-size="10.00" fill="#000000">limits</text>
</g>
<!-- Node6&#45;&gt;Node11 -->
<g id="edge12" class="edge">
<title>Node6&#45;&gt;Node11</title>
<path fill="none" stroke="#191970" d="M388.7445,-56.3733C356.9952,-46.2712 307.2915,-30.4564 274.9283,-20.159"/>
<polygon fill="#191970" stroke="#191970" points="275.6653,-16.7207 265.0748,-17.0238 273.5428,-23.3911 275.6653,-16.7207"/>
</g>
<!-- Node12 -->
<g id="node13" class="node">
<title>Node12</title>
<polygon fill="none" stroke="#bfbfbf" points="283.5,-.5 283.5,-19.5 348.5,-19.5 348.5,-.5 283.5,-.5"/>
<text text-anchor="middle" x="316" y="-7.5" font-family="FreeSans.ttf" font-size="10.00" fill="#000000">stdexcept</text>
</g>
<!-- Node6&#45;&gt;Node12 -->
<g id="edge13" class="edge">
<title>Node6&#45;&gt;Node12</title>
<path fill="none" stroke="#191970" d="M401.0588,-56.2455C384.96,-47.4928 361.1121,-34.527 342.7609,-24.5496"/>
<polygon fill="#191970" stroke="#191970" points="344.1929,-21.3444 333.7356,-19.6427 340.8493,-27.4942 344.1929,-21.3444"/>
</g>
<!-- Node13 -->
<g id="node14" class="node">
<title>Node13</title>
<polygon fill="none" stroke="#bfbfbf" points="366.5,-.5 366.5,-19.5 435.5,-19.5 435.5,-.5 366.5,-.5"/>
<text text-anchor="middle" x="401" y="-7.5" font-family="FreeSans.ttf" font-size="10.00" fill="#000000">type_traits</text>
</g>
<!-- Node6&#45;&gt;Node13 -->
<g id="edge14" class="edge">
<title>Node6&#45;&gt;Node13</title>
<path fill="none" stroke="#191970" d="M415.8646,-56.2455C413.49,-48.8579 410.1507,-38.4689 407.2385,-29.4087"/>
<polygon fill="#191970" stroke="#191970" points="410.4917,-28.0919 404.0994,-19.6427 403.8275,-30.234 410.4917,-28.0919"/>
</g>
<!-- Node14 -->
<g id="node15" class="node">
<title>Node14</title>
<polygon fill="none" stroke="#bfbfbf" points="453.5,-.5 453.5,-19.5 498.5,-19.5 498.5,-.5 453.5,-.5"/>
<text text-anchor="middle" x="476" y="-7.5" font-family="FreeSans.ttf" font-size="10.00" fill="#000000">utility</text>
</g>
<!-- Node6&#45;&gt;Node14 -->
<g id="edge15" class="edge">
<title>Node6&#45;&gt;Node14</title>
<path fill="none" stroke="#191970" d="M428.9286,-56.2455C437.1838,-48.1352 449.1209,-36.4075 458.9082,-26.7919"/>
<polygon fill="#191970" stroke="#191970" points="461.5046,-29.1476 466.1851,-19.6427 456.5989,-24.1542 461.5046,-29.1476"/>
</g>
<!-- Node18&#45;&gt;Node3 -->
<g id="edge34" class="edge">
<title>Node18&#45;&gt;Node3</title>
<path fill="none" stroke="#191970" d="M354,-229.8845C354,-210.6913 354,-167.286 354,-141.7663"/>
<polygon fill="#191970" stroke="#191970" points="357.5001,-141.7483 354,-131.7484 350.5001,-141.7484 357.5001,-141.7483"/>
</g>
<!-- Node18&#45;&gt;Node15 -->
<g id="edge21" class="edge">
<title>Node18&#45;&gt;Node15</title>
<path fill="none" stroke="#191970" d="M341.7651,-229.8461C321.1997,-212.7423 280.438,-174.8553 265,-132 259.4146,-116.4952 264.4513,-98.1697 270.1478,-84.7678"/>
<polygon fill="#191970" stroke="#191970" points="273.368,-86.145 274.4676,-75.6073 267.0366,-83.1593 273.368,-86.145"/>
</g>
<!-- Node19 -->
<g id="node20" class="node">
<title>Node19</title>
<g id="a_node20"><a xlink:href="RotationRaw_8h.html" target="_top" xlink:title="iDynTree/Core/RotationRaw.h">
<polygon fill="none" stroke="#000000" points="59,-168.5 59,-187.5 217,-187.5 217,-168.5 59,-168.5"/>
<text text-anchor="middle" x="138" y="-175.5" font-family="FreeSans.ttf" font-size="10.00" fill="#000000">iDynTree/Core/RotationRaw.h</text>
</a>
</g>
</g>
<!-- Node18&#45;&gt;Node19 -->
<g id="edge22" class="edge">
<title>Node18&#45;&gt;Node19</title>
<path fill="none" stroke="#191970" d="M320.25,-229.8906C282.7619,-219.2169 222.1403,-201.9566 181.2114,-190.3033"/>
<polygon fill="#191970" stroke="#191970" points="182.0892,-186.9141 171.513,-187.5419 180.1723,-193.6466 182.0892,-186.9141"/>
</g>
<!-- Node22 -->
<g id="node23" class="node">
<title>Node22</title>
<g id="a_node23"><a xlink:href="RotationSemantics_8h.html" target="_top" xlink:title="iDynTree/Core/RotationSemantics.h">
<polygon fill="none" stroke="#000000" points="453,-112.5 453,-131.5 641,-131.5 641,-112.5 453,-112.5"/>
<text text-anchor="middle" x="547" y="-119.5" font-family="FreeSans.ttf" font-size="10.00" fill="#000000">iDynTree/Core/RotationSemantics.h</text>
</a>
</g>
</g>
<!-- Node18&#45;&gt;Node22 -->
<g id="edge31" class="edge">
<title>Node18&#45;&gt;Node22</title>
<path fill="none" stroke="#191970" d="M369.794,-229.8845C403.4532,-209.3925 482.4468,-161.3005 522.6176,-136.8442"/>
<polygon fill="#191970" stroke="#191970" points="524.5369,-139.7734 531.2584,-131.5836 520.8968,-133.7943 524.5369,-139.7734"/>
</g>
<!-- Node19&#45;&gt;Node15 -->
<g id="edge30" class="edge">
<title>Node19&#45;&gt;Node15</title>
<path fill="none" stroke="#191970" d="M150.1068,-168.4509C174.5243,-149.1921 229.892,-105.5218 259.8493,-81.8935"/>
<polygon fill="#191970" stroke="#191970" points="262.2396,-84.4659 267.9238,-75.5249 257.9046,-78.9697 262.2396,-84.4659"/>
</g>
<!-- Node20 -->
<g id="node21" class="node">
<title>Node20</title>
<g id="a_node21"><a xlink:href="MatrixFixSize_8h.html" target="_top" xlink:title="iDynTree/Core/MatrixFixSize.h">
<polygon fill="none" stroke="#000000" points="17.5,-112.5 17.5,-131.5 178.5,-131.5 178.5,-112.5 17.5,-112.5"/>
<text text-anchor="middle" x="98" y="-119.5" font-family="FreeSans.ttf" font-size="10.00" fill="#000000">iDynTree/Core/MatrixFixSize.h</text>
</a>
</g>
</g>
<!-- Node19&#45;&gt;Node20 -->
<g id="edge23" class="edge">
<title>Node19&#45;&gt;Node20</title>
<path fill="none" stroke="#191970" d="M131.0325,-168.2455C125.4689,-160.4564 117.522,-149.3308 110.8171,-139.9439"/>
<polygon fill="#191970" stroke="#191970" points="113.5481,-137.7457 104.8876,-131.6427 107.852,-141.8144 113.5481,-137.7457"/>
</g>
<!-- Node20&#45;&gt;Node4 -->
<g id="edge24" class="edge">
<title>Node20&#45;&gt;Node4</title>
<path fill="none" stroke="#191970" d="M178.7518,-113.2192C278.9903,-102.3195 448.2832,-83.911 543.1702,-73.5931"/>
<polygon fill="#191970" stroke="#191970" points="543.6761,-77.0589 553.2391,-72.4983 542.9193,-70.0999 543.6761,-77.0589"/>
</g>
<!-- Node20&#45;&gt;Node7 -->
<g id="edge25" class="edge">
<title>Node20&#45;&gt;Node7</title>
<path fill="none" stroke="#191970" d="M98.5968,-112.4509C99.7385,-94.184 102.2528,-53.9553 103.7689,-29.6976"/>
<polygon fill="#191970" stroke="#191970" points="107.274,-29.7238 104.4047,-19.5249 100.2876,-29.2871 107.274,-29.7238"/>
</g>
<!-- Node20&#45;&gt;Node15 -->
<g id="edge27" class="edge">
<title>Node20&#45;&gt;Node15</title>
<path fill="none" stroke="#191970" d="M129.8617,-112.4586C158.4822,-103.8514 201.894,-90.7067 248.3562,-76.1695"/>
<polygon fill="#191970" stroke="#191970" points="249.5039,-79.4778 257.9987,-73.1462 247.4096,-72.7984 249.5039,-79.4778"/>
</g>
<!-- Node20&#45;&gt;Node16 -->
<g id="edge29" class="edge">
<title>Node20&#45;&gt;Node16</title>
<path fill="none" stroke="#191970" d="M117.5973,-112.3733C135.7331,-103.4644 162.9135,-90.1127 183.4587,-80.0203"/>
<polygon fill="#191970" stroke="#191970" points="185.2261,-83.0517 192.6584,-75.5011 182.1397,-76.7688 185.2261,-83.0517"/>
</g>
<!-- Node20&#45;&gt;Node17 -->
<g id="edge26" class="edge">
<title>Node20&#45;&gt;Node17</title>
<path fill="none" stroke="#191970" d="M105.49,-112.2455C111.5326,-104.3761 120.1903,-93.101 127.4441,-83.6542"/>
<polygon fill="#191970" stroke="#191970" points="130.2815,-85.7058 133.5958,-75.6427 124.7295,-81.4426 130.2815,-85.7058"/>
</g>
<!-- Node21 -->
<g id="node22" class="node">
<title>Node21</title>
<polygon fill="none" stroke="#bfbfbf" points="0,-56.5 0,-75.5 60,-75.5 60,-56.5 0,-56.5"/>
<text text-anchor="middle" x="30" y="-63.5" font-family="FreeSans.ttf" font-size="10.00" fill="#000000">iostream</text>
</g>
<!-- Node20&#45;&gt;Node21 -->
<g id="edge28" class="edge">
<title>Node20&#45;&gt;Node21</title>
<path fill="none" stroke="#191970" d="M86.1553,-112.2455C76.112,-103.9746 61.5005,-91.9416 49.6996,-82.2232"/>
<polygon fill="#191970" stroke="#191970" points="51.6533,-79.298 41.709,-75.6427 47.2033,-84.7015 51.6533,-79.298"/>
</g>
<!-- Node22&#45;&gt;Node4 -->
<g id="edge33" class="edge">
<title>Node22&#45;&gt;Node4</title>
<path fill="none" stroke="#191970" d="M558.4963,-112.2455C568.2442,-103.9746 582.4259,-91.9416 593.8798,-82.2232"/>
<polygon fill="#191970" stroke="#191970" points="596.2747,-84.7813 601.6354,-75.6427 591.7459,-79.4437 596.2747,-84.7813"/>
</g>
<!-- Node22&#45;&gt;Node15 -->
<g id="edge32" class="edge">
<title>Node22&#45;&gt;Node15</title>
<path fill="none" stroke="#191970" d="M501.4044,-112.4369C447.5397,-101.1394 359.3054,-82.6333 312.1294,-72.7387"/>
<polygon fill="#191970" stroke="#191970" points="312.6683,-69.2757 302.1628,-70.6484 311.2313,-76.1266 312.6683,-69.2757"/>
</g>
<!-- Node24&#45;&gt;Node1 -->
<g id="edge39" class="edge">
<title>Node24&#45;&gt;Node1</title>
<path fill="none" stroke="#191970" d="M137.9735,-403.4554C153.1776,-393.9141 172.7759,-381.6151 187.9875,-372.0691"/>
<polygon fill="#191970" stroke="#191970" points="190.2037,-374.8105 196.8135,-366.5303 186.4828,-368.8813 190.2037,-374.8105"/>
</g>
<!-- Node24&#45;&gt;Node23 -->
<g id="edge40" class="edge">
<title>Node24&#45;&gt;Node23</title>
<path fill="none" stroke="#191970" d="M114.0383,-403.2776C114.5063,-388.4975 116.3839,-365.6276 123,-347 134.1417,-315.6306 155.5333,-283.7722 171.1575,-262.9714"/>
<polygon fill="#191970" stroke="#191970" points="174.142,-264.8313 177.4537,-254.7674 168.5888,-260.5695 174.142,-264.8313"/>
</g>
<!-- Node25&#45;&gt;Node1 -->
<g id="edge42" class="edge">
<title>Node25&#45;&gt;Node1</title>
<path fill="none" stroke="#191970" d="M292.0695,-403.4554C275.4691,-393.8241 254.0256,-381.3828 237.5083,-371.7996"/>
<polygon fill="#191970" stroke="#191970" points="238.8323,-368.5214 228.4262,-366.5303 235.3194,-374.5761 238.8323,-368.5214"/>
</g>
<!-- Node25&#45;&gt;Node4 -->
<g id="edge44" class="edge">
<title>Node25&#45;&gt;Node4</title>
<path fill="none" stroke="#191970" d="M393.4644,-403.4496C506.5877,-379.8287 707,-333.4082 707,-301 707,-301 707,-301 707,-178 707,-135.1654 666.161,-100.139 638.3197,-81.2374"/>
<polygon fill="#191970" stroke="#191970" points="640.092,-78.2145 629.8053,-75.6776 636.2647,-84.0756 640.092,-78.2145"/>
</g>
<!-- Node25&#45;&gt;Node23 -->
<g id="edge43" class="edge">
<title>Node25&#45;&gt;Node23</title>
<path fill="none" stroke="#191970" d="M316.8812,-403.362C315.2141,-388.2365 311.098,-364.7424 301,-347 280.8519,-311.5992 245.5564,-280.3753 220.1694,-260.8268"/>
<polygon fill="#191970" stroke="#191970" points="222.0694,-257.8762 211.9759,-254.6558 217.8581,-263.4677 222.0694,-257.8762"/>
</g>
</g>
</svg>
