<?xml version="1.0" encoding="UTF-8" standalone="no"?>
<!DOCTYPE svg PUBLIC "-//W3C//DTD SVG 1.1//EN"
 "http://www.w3.org/Graphics/SVG/1.1/DTD/svg11.dtd">
<!-- Generated by graphviz version 2.40.1 (20161225.0304)
 -->
<!-- Title: FreeFloatingMatrices.h Pages: 1 -->
<svg width="175pt" height="140pt"
 viewBox="0.00 0.00 175.00 140.00" xmlns="http://www.w3.org/2000/svg" xmlns:xlink="http://www.w3.org/1999/xlink">
<g id="graph0" class="graph" transform="scale(1 1) rotate(0) translate(4 136)">
<title>FreeFloatingMatrices.h</title>
<!-- Node0 -->
<g id="node1" class="node">
<title>Node0</title>
<polygon fill="#bfbfbf" stroke="#000000" points="20.5,-112.5 20.5,-131.5 146.5,-131.5 146.5,-112.5 20.5,-112.5"/>
<text text-anchor="middle" x="83.5" y="-119.5" font-family="FreeSans.ttf" font-size="10.00" fill="#000000">FreeFloatingMatrices.h</text>
</g>
<!-- Node1 -->
<g id="node2" class="node">
<title>Node1</title>
<g id="a_node2"><a xlink:href="MatrixDynSize_8h.html" target="_top" xlink:title="iDynTree/Core/MatrixDynSize.h">
<polygon fill="none" stroke="#000000" points="0,-56.5 0,-75.5 167,-75.5 167,-56.5 0,-56.5"/>
<text text-anchor="middle" x="83.5" y="-63.5" font-family="FreeSans.ttf" font-size="10.00" fill="#000000">iDynTree/Core/MatrixDynSize.h</text>
</a>
</g>
</g>
<!-- Node0&#45;&gt;Node1 -->
<g id="edge1" class="edge">
<title>Node0&#45;&gt;Node1</title>
<path fill="none" stroke="#191970" d="M83.5,-112.2455C83.5,-104.9382 83.5,-94.6944 83.5,-85.7046"/>
<polygon fill="#191970" stroke="#191970" points="87.0001,-85.6426 83.5,-75.6427 80.0001,-85.6427 87.0001,-85.6426"/>
</g>
<!-- Node2 -->
<g id="node3" class="node">
<title>Node2</title>
<polygon fill="none" stroke="#bfbfbf" points="61.5,-.5 61.5,-19.5 105.5,-19.5 105.5,-.5 61.5,-.5"/>
<text text-anchor="middle" x="83.5" y="-7.5" font-family="FreeSans.ttf" font-size="10.00" fill="#000000">string</text>
</g>
<!-- Node1&#45;&gt;Node2 -->
<g id="edge2" class="edge">
<title>Node1&#45;&gt;Node2</title>
<path fill="none" stroke="#191970" d="M83.5,-56.2455C83.5,-48.9382 83.5,-38.6944 83.5,-29.7046"/>
<polygon fill="#191970" stroke="#191970" points="87.0001,-29.6426 83.5,-19.6427 80.0001,-29.6427 87.0001,-29.6426"/>
</g>
</g>
</svg>
