<?xml version="1.0" encoding="UTF-8" standalone="no"?>
<!DOCTYPE svg PUBLIC "-//W3C//DTD SVG 1.1//EN"
 "http://www.w3.org/Graphics/SVG/1.1/DTD/svg11.dtd">
<!-- Generated by graphviz version 2.40.1 (20161225.0304)
 -->
<!-- Title: FreeFloatingMatrices.h Pages: 1 -->
<svg width="971pt" height="263pt"
 viewBox="0.00 0.00 970.50 263.00" xmlns="http://www.w3.org/2000/svg" xmlns:xlink="http://www.w3.org/1999/xlink">
<g id="graph0" class="graph" transform="scale(1 1) rotate(0) translate(4 259)">
<title>FreeFloatingMatrices.h</title>
<!-- Node3 -->
<g id="node1" class="node">
<title>Node3</title>
<polygon fill="#bfbfbf" stroke="#000000" points="630,-235.5 630,-254.5 756,-254.5 756,-235.5 630,-235.5"/>
<text text-anchor="middle" x="693" y="-242.5" font-family="FreeSans.ttf" font-size="10.00" fill="#000000">FreeFloatingMatrices.h</text>
</g>
<!-- Node4 -->
<g id="node2" class="node">
<title>Node4</title>
<g id="a_node2"><a xlink:href="KinDynComputations_8h.html" target="_top" xlink:title="KinDynComputations.h">
<polygon fill="none" stroke="#000000" points="502.5,-179.5 502.5,-198.5 631.5,-198.5 631.5,-179.5 502.5,-179.5"/>
<text text-anchor="middle" x="567" y="-186.5" font-family="FreeSans.ttf" font-size="10.00" fill="#000000">KinDynComputations.h</text>
</a>
</g>
</g>
<!-- Node3&#45;&gt;Node4 -->
<g id="edge1" class="edge">
<title>Node3&#45;&gt;Node4</title>
<path fill="none" stroke="#191970" d="M662.0564,-231.2473C639.1735,-221.0771 608.5986,-207.4883 588.3775,-198.5011"/>
<polygon fill="#191970" stroke="#191970" points="660.7802,-234.5102 671.3398,-235.3733 663.6232,-228.1135 660.7802,-234.5102"/>
</g>
<!-- Node20 -->
<g id="node18" class="node">
<title>Node20</title>
<g id="a_node18"><a xlink:href="Dynamics_8cpp.html" target="_top" xlink:title="Dynamics.cpp">
<polygon fill="none" stroke="#000000" points="650,-179.5 650,-198.5 736,-198.5 736,-179.5 650,-179.5"/>
<text text-anchor="middle" x="693" y="-186.5" font-family="FreeSans.ttf" font-size="10.00" fill="#000000">Dynamics.cpp</text>
</a>
</g>
</g>
<!-- Node3&#45;&gt;Node20 -->
<g id="edge18" class="edge">
<title>Node3&#45;&gt;Node20</title>
<path fill="none" stroke="#191970" d="M693,-225.1575C693,-216.155 693,-205.9199 693,-198.6427"/>
<polygon fill="#191970" stroke="#191970" points="689.5001,-225.2455 693,-235.2455 696.5001,-225.2456 689.5001,-225.2455"/>
</g>
<!-- Node21 -->
<g id="node19" class="node">
<title>Node21</title>
<g id="a_node19"><a xlink:href="FreeFloatingMatrices_8cpp.html" target="_top" xlink:title="FreeFloatingMatrices.cpp">
<polygon fill="none" stroke="#000000" points="754.5,-179.5 754.5,-198.5 891.5,-198.5 891.5,-179.5 754.5,-179.5"/>
<text text-anchor="middle" x="823" y="-186.5" font-family="FreeSans.ttf" font-size="10.00" fill="#000000">FreeFloatingMatrices.cpp</text>
</a>
</g>
</g>
<!-- Node3&#45;&gt;Node21 -->
<g id="edge19" class="edge">
<title>Node3&#45;&gt;Node21</title>
<path fill="none" stroke="#191970" d="M724.6102,-231.3833C748.2535,-221.1985 779.9876,-207.5284 800.9438,-198.5011"/>
<polygon fill="#191970" stroke="#191970" points="723.1472,-228.2025 715.3478,-235.3733 725.9166,-234.6314 723.1472,-228.2025"/>
</g>
<!-- Node5 -->
<g id="node3" class="node">
<title>Node5</title>
<g id="a_node3"><a xlink:href="KinDynComputations_8cpp.html" target="_top" xlink:title="KinDynComputations.cpp">
<polygon fill="none" stroke="#000000" points="47,-123.5 47,-142.5 187,-142.5 187,-123.5 47,-123.5"/>
<text text-anchor="middle" x="117" y="-130.5" font-family="FreeSans.ttf" font-size="10.00" fill="#000000">KinDynComputations.cpp</text>
</a>
</g>
</g>
<!-- Node4&#45;&gt;Node5 -->
<g id="edge2" class="edge">
<title>Node4&#45;&gt;Node5</title>
<path fill="none" stroke="#191970" d="M492.0401,-179.7627C417.0983,-170.5143 298.5621,-155.8496 196,-143 193.1193,-142.6391 190.1797,-142.2701 187.2101,-141.8968"/>
<polygon fill="#191970" stroke="#191970" points="491.9658,-183.28 502.3192,-181.031 492.8231,-176.3327 491.9658,-183.28"/>
</g>
<!-- Node6 -->
<g id="node4" class="node">
<title>Node6</title>
<g id="a_node4"><a xlink:href="InverseKinematicsData_8h.html" target="_top" xlink:title="InverseKinematicsData.h">
<polygon fill="none" stroke="#000000" points="205,-123.5 205,-142.5 345,-142.5 345,-123.5 205,-123.5"/>
<text text-anchor="middle" x="275" y="-130.5" font-family="FreeSans.ttf" font-size="10.00" fill="#000000">InverseKinematicsData.h</text>
</a>
</g>
</g>
<!-- Node4&#45;&gt;Node6 -->
<g id="edge3" class="edge">
<title>Node4&#45;&gt;Node6</title>
<path fill="none" stroke="#191970" d="M507.0412,-177.501C453.1981,-167.175 375.0825,-152.1939 324.6591,-142.5237"/>
<polygon fill="#191970" stroke="#191970" points="506.6549,-180.9907 517.1352,-179.4369 507.9734,-174.116 506.6549,-180.9907"/>
</g>
<!-- Node10 -->
<g id="node8" class="node">
<title>Node10</title>
<g id="a_node8"><a xlink:href="idyntree-model-info_8cpp.html" target="_top" xlink:title="idyntree&#45;model&#45;info.cpp">
<polygon fill="none" stroke="#000000" points="363,-123.5 363,-142.5 497,-142.5 497,-123.5 363,-123.5"/>
<text text-anchor="middle" x="430" y="-130.5" font-family="FreeSans.ttf" font-size="10.00" fill="#000000">idyntree&#45;model&#45;info.cpp</text>
</a>
</g>
</g>
<!-- Node4&#45;&gt;Node10 -->
<g id="edge7" class="edge">
<title>Node4&#45;&gt;Node10</title>
<path fill="none" stroke="#191970" d="M534.0194,-175.5189C509.0689,-165.3201 475.4266,-151.5685 453.2438,-142.5011"/>
<polygon fill="#191970" stroke="#191970" points="532.868,-178.8293 543.4489,-179.3733 535.5166,-172.3497 532.868,-178.8293"/>
</g>
<!-- Node11 -->
<g id="node9" class="node">
<title>Node11</title>
<g id="a_node9"><a xlink:href="ObserverThread_8h.html" target="_top" xlink:title="ObserverThread.h">
<polygon fill="none" stroke="#000000" points="515,-123.5 515,-142.5 619,-142.5 619,-123.5 515,-123.5"/>
<text text-anchor="middle" x="567" y="-130.5" font-family="FreeSans.ttf" font-size="10.00" fill="#000000">ObserverThread.h</text>
</a>
</g>
</g>
<!-- Node4&#45;&gt;Node11 -->
<g id="edge8" class="edge">
<title>Node4&#45;&gt;Node11</title>
<path fill="none" stroke="#191970" d="M567,-169.1575C567,-160.155 567,-149.9199 567,-142.6427"/>
<polygon fill="#191970" stroke="#191970" points="563.5001,-169.2455 567,-179.2455 570.5001,-169.2456 563.5001,-169.2455"/>
</g>
<!-- Node16 -->
<g id="node14" class="node">
<title>Node16</title>
<g id="a_node14"><a xlink:href="urdf2dh_8cpp.html" target="_top" xlink:title="urdf2dh.cpp">
<polygon fill="none" stroke="#000000" points="637,-123.5 637,-142.5 711,-142.5 711,-123.5 637,-123.5"/>
<text text-anchor="middle" x="674" y="-130.5" font-family="FreeSans.ttf" font-size="10.00" fill="#000000">urdf2dh.cpp</text>
</a>
</g>
</g>
<!-- Node4&#45;&gt;Node16 -->
<g id="edge13" class="edge">
<title>Node4&#45;&gt;Node16</title>
<path fill="none" stroke="#191970" d="M594.5199,-174.5971C613.7017,-164.558 638.7678,-151.4393 655.5756,-142.6427"/>
<polygon fill="#191970" stroke="#191970" points="592.875,-171.5075 585.638,-179.2455 596.1209,-177.7095 592.875,-171.5075"/>
</g>
<!-- Node17 -->
<g id="node15" class="node">
<title>Node17</title>
<g id="a_node15"><a xlink:href="robotstatepublisher_8h.html" target="_top" xlink:title="robotstatepublisher.h">
<polygon fill="none" stroke="#000000" points="729,-123.5 729,-142.5 849,-142.5 849,-123.5 729,-123.5"/>
<text text-anchor="middle" x="789" y="-130.5" font-family="FreeSans.ttf" font-size="10.00" fill="#000000">robotstatepublisher.h</text>
</a>
</g>
</g>
<!-- Node4&#45;&gt;Node17 -->
<g id="edge14" class="edge">
<title>Node4&#45;&gt;Node17</title>
<path fill="none" stroke="#191970" d="M614.6428,-176.982C655.4903,-166.6781 713.5475,-152.0331 751.2454,-142.5237"/>
<polygon fill="#191970" stroke="#191970" points="613.7511,-173.5972 604.9109,-179.4369 615.4633,-180.3846 613.7511,-173.5972"/>
</g>
<!-- Node19 -->
<g id="node17" class="node">
<title>Node19</title>
<g id="a_node17"><a xlink:href="robotstatepublisher_8cpp.html" target="_top" xlink:title="robotstatepublisher.cpp">
<polygon fill="none" stroke="#000000" points="831.5,-67.5 831.5,-86.5 962.5,-86.5 962.5,-67.5 831.5,-67.5"/>
<text text-anchor="middle" x="897" y="-74.5" font-family="FreeSans.ttf" font-size="10.00" fill="#000000">robotstatepublisher.cpp</text>
</a>
</g>
</g>
<!-- Node4&#45;&gt;Node19 -->
<g id="edge17" class="edge">
<title>Node4&#45;&gt;Node19</title>
<path fill="none" stroke="#191970" d="M641.7018,-178.803C724.9229,-167.202 849.0569,-149.0781 858,-143 878.0339,-129.3841 889.294,-101.7698 894.1297,-86.943"/>
<polygon fill="#191970" stroke="#191970" points="641.189,-175.3405 631.7661,-180.1841 642.1528,-182.2738 641.189,-175.3405"/>
</g>
<!-- Node7 -->
<g id="node5" class="node">
<title>Node7</title>
<g id="a_node5"><a xlink:href="InverseKinematics_8cpp.html" target="_top" xlink:title="InverseKinematics.cpp">
<polygon fill="none" stroke="#000000" points="0,-67.5 0,-86.5 128,-86.5 128,-67.5 0,-67.5"/>
<text text-anchor="middle" x="64" y="-74.5" font-family="FreeSans.ttf" font-size="10.00" fill="#000000">InverseKinematics.cpp</text>
</a>
</g>
</g>
<!-- Node6&#45;&gt;Node7 -->
<g id="edge4" class="edge">
<title>Node6&#45;&gt;Node7</title>
<path fill="none" stroke="#191970" d="M228.7303,-120.7199C189.9324,-110.4228 135.3241,-95.9296 99.7989,-86.5011"/>
<polygon fill="#191970" stroke="#191970" points="228.1646,-124.1909 238.7278,-123.3733 229.9603,-117.4251 228.1646,-124.1909"/>
</g>
<!-- Node8 -->
<g id="node6" class="node">
<title>Node8</title>
<g id="a_node6"><a xlink:href="InverseKinematicsData_8cpp.html" target="_top" xlink:title="InverseKinematicsData.cpp">
<polygon fill="none" stroke="#000000" points="146.5,-67.5 146.5,-86.5 297.5,-86.5 297.5,-67.5 146.5,-67.5"/>
<text text-anchor="middle" x="222" y="-74.5" font-family="FreeSans.ttf" font-size="10.00" fill="#000000">InverseKinematicsData.cpp</text>
</a>
</g>
</g>
<!-- Node6&#45;&gt;Node8 -->
<g id="edge5" class="edge">
<title>Node6&#45;&gt;Node8</title>
<path fill="none" stroke="#191970" d="M258.7104,-115.7884C249.6438,-106.2085 238.6946,-94.6396 231.1261,-86.6427"/>
<polygon fill="#191970" stroke="#191970" points="256.3522,-118.3884 265.7681,-123.2455 261.4363,-113.5767 256.3522,-118.3884"/>
</g>
<!-- Node9 -->
<g id="node7" class="node">
<title>Node9</title>
<g id="a_node7"><a xlink:href="InverseKinematicsNLP_8cpp.html" target="_top" xlink:title="InverseKinematicsNLP.cpp">
<polygon fill="none" stroke="#000000" points="315.5,-67.5 315.5,-86.5 460.5,-86.5 460.5,-67.5 315.5,-67.5"/>
<text text-anchor="middle" x="388" y="-74.5" font-family="FreeSans.ttf" font-size="10.00" fill="#000000">InverseKinematicsNLP.cpp</text>
</a>
</g>
</g>
<!-- Node6&#45;&gt;Node9 -->
<g id="edge6" class="edge">
<title>Node6&#45;&gt;Node9</title>
<path fill="none" stroke="#191970" d="M303.5792,-118.8368C324.0058,-108.7139 350.9362,-95.3679 368.8281,-86.5011"/>
<polygon fill="#191970" stroke="#191970" points="301.8313,-115.7968 294.4254,-123.3733 304.9396,-122.0688 301.8313,-115.7968"/>
</g>
<!-- Node12 -->
<g id="node10" class="node">
<title>Node12</title>
<g id="a_node10"><a xlink:href="ObserverThread_8cpp.html" target="_top" xlink:title="ObserverThread.cpp">
<polygon fill="none" stroke="#000000" points="478.5,-67.5 478.5,-86.5 593.5,-86.5 593.5,-67.5 478.5,-67.5"/>
<text text-anchor="middle" x="536" y="-74.5" font-family="FreeSans.ttf" font-size="10.00" fill="#000000">ObserverThread.cpp</text>
</a>
</g>
</g>
<!-- Node11&#45;&gt;Node12 -->
<g id="edge9" class="edge">
<title>Node11&#45;&gt;Node12</title>
<path fill="none" stroke="#191970" d="M556.6688,-114.3372C551.5335,-105.0605 545.5434,-94.2398 541.3379,-86.6427"/>
<polygon fill="#191970" stroke="#191970" points="553.6949,-116.1917 561.6002,-123.2455 559.8191,-112.8015 553.6949,-116.1917"/>
</g>
<!-- Node13 -->
<g id="node11" class="node">
<title>Node13</title>
<g id="a_node11"><a xlink:href="qticubskinguiplugin_8h.html" target="_top" xlink:title="qticubskinguiplugin.h">
<polygon fill="none" stroke="#000000" points="611.5,-67.5 611.5,-86.5 732.5,-86.5 732.5,-67.5 611.5,-67.5"/>
<text text-anchor="middle" x="672" y="-74.5" font-family="FreeSans.ttf" font-size="10.00" fill="#000000">qticubskinguiplugin.h</text>
</a>
</g>
</g>
<!-- Node11&#45;&gt;Node13 -->
<g id="edge10" class="edge">
<title>Node11&#45;&gt;Node13</title>
<path fill="none" stroke="#191970" d="M594.2625,-118.46C613.0522,-108.4388 637.5013,-95.3993 653.92,-86.6427"/>
<polygon fill="#191970" stroke="#191970" points="592.4661,-115.4514 585.2896,-123.2455 595.7602,-121.6278 592.4661,-115.4514"/>
</g>
<!-- Node14 -->
<g id="node12" class="node">
<title>Node14</title>
<g id="a_node12"><a xlink:href="qticubskinguiplugin_8cpp.html" target="_top" xlink:title="qticubskinguiplugin.cpp">
<polygon fill="none" stroke="#000000" points="536,-6 536,-25 668,-25 668,-6 536,-6"/>
<text text-anchor="middle" x="602" y="-13" font-family="FreeSans.ttf" font-size="10.00" fill="#000000">qticubskinguiplugin.cpp</text>
</a>
</g>
</g>
<!-- Node13&#45;&gt;Node14 -->
<g id="edge11" class="edge">
<title>Node13&#45;&gt;Node14</title>
<path fill="none" stroke="#191970" d="M653.2743,-60.5482C640.4485,-49.2798 623.8719,-34.716 613.0917,-25.2449"/>
<polygon fill="#191970" stroke="#191970" points="651.2399,-63.4197 661.0625,-67.3906 655.8601,-58.161 651.2399,-63.4197"/>
</g>
<!-- Node15 -->
<g id="node13" class="node">
<title>Node15</title>
<g id="a_node13"><a xlink:href="qticubskinguiplugin__plugin_8cpp.html" target="_top" xlink:title="qticubskinguiplugin\l_plugin.cpp">
<polygon fill="none" stroke="#000000" points="686,-.5 686,-30.5 798,-30.5 798,-.5 686,-.5"/>
<text text-anchor="start" x="694" y="-18.5" font-family="FreeSans.ttf" font-size="10.00" fill="#000000">qticubskinguiplugin</text>
<text text-anchor="middle" x="742" y="-7.5" font-family="FreeSans.ttf" font-size="10.00" fill="#000000">_plugin.cpp</text>
</a>
</g>
</g>
<!-- Node13&#45;&gt;Node15 -->
<g id="edge12" class="edge">
<title>Node13&#45;&gt;Node15</title>
<path fill="none" stroke="#191970" d="M690.4804,-60.7637C701.1405,-51.398 714.4537,-39.7014 724.8761,-30.5446"/>
<polygon fill="#191970" stroke="#191970" points="688.1399,-58.161 682.9375,-67.3906 692.7601,-63.4197 688.1399,-58.161"/>
</g>
<!-- Node18 -->
<g id="node16" class="node">
<title>Node18</title>
<g id="a_node16"><a xlink:href="yarprobotstatepublisher_2src_2main_8cpp.html" target="_top" xlink:title="main.cpp">
<polygon fill="none" stroke="#000000" points="751,-67.5 751,-86.5 813,-86.5 813,-67.5 751,-67.5"/>
<text text-anchor="middle" x="782" y="-74.5" font-family="FreeSans.ttf" font-size="10.00" fill="#000000">main.cpp</text>
</a>
</g>
</g>
<!-- Node17&#45;&gt;Node18 -->
<g id="edge15" class="edge">
<title>Node17&#45;&gt;Node18</title>
<path fill="none" stroke="#191970" d="M786.5197,-113.1575C785.3944,-104.155 784.115,-93.9199 783.2053,-86.6427"/>
<polygon fill="#191970" stroke="#191970" points="783.0673,-113.7569 787.7807,-123.2455 790.0132,-112.8886 783.0673,-113.7569"/>
</g>
<!-- Node17&#45;&gt;Node19 -->
<g id="edge16" class="edge">
<title>Node17&#45;&gt;Node19</title>
<path fill="none" stroke="#191970" d="M816.7771,-118.5971C836.1382,-108.558 861.4385,-95.4393 878.4034,-86.6427"/>
<polygon fill="#191970" stroke="#191970" points="815.0786,-115.5352 807.8122,-123.2455 818.3008,-121.7495 815.0786,-115.5352"/>
</g>
</g>
</svg>
