<?xml version="1.0" encoding="UTF-8" standalone="no"?>
<!DOCTYPE svg PUBLIC "-//W3C//DTD SVG 1.1//EN"
 "http://www.w3.org/Graphics/SVG/1.1/DTD/svg11.dtd">
<!-- Generated by graphviz version 2.40.1 (20161225.0304)
 -->
<!-- Title: GeomVector3.h Pages: 1 -->
<svg width="1159pt" height="319pt"
 viewBox="0.00 0.00 1159.00 319.00" xmlns="http://www.w3.org/2000/svg" xmlns:xlink="http://www.w3.org/1999/xlink">
<g id="graph0" class="graph" transform="scale(1 1) rotate(0) translate(4 315)">
<title>GeomVector3.h</title>
<!-- Node0 -->
<g id="node1" class="node">
<title>Node0</title>
<polygon fill="#bfbfbf" stroke="#000000" points="799.5,-291.5 799.5,-310.5 891.5,-310.5 891.5,-291.5 799.5,-291.5"/>
<text text-anchor="middle" x="845.5" y="-298.5" font-family="FreeSans.ttf" font-size="10.00" fill="#000000">GeomVector3.h</text>
</g>
<!-- Node1 -->
<g id="node2" class="node">
<title>Node1</title>
<g id="a_node2"><a xlink:href="VectorFixSize_8h.html" target="_top" xlink:title="iDynTree/Core/VectorFixSize.h">
<polygon fill="none" stroke="#000000" points="317,-112.5 317,-131.5 478,-131.5 478,-112.5 317,-112.5"/>
<text text-anchor="middle" x="397.5" y="-119.5" font-family="FreeSans.ttf" font-size="10.00" fill="#000000">iDynTree/Core/VectorFixSize.h</text>
</a>
</g>
</g>
<!-- Node0&#45;&gt;Node1 -->
<g id="edge1" class="edge">
<title>Node0&#45;&gt;Node1</title>
<path fill="none" stroke="#191970" d="M799.252,-293.6664C727.1798,-280.754 585.4587,-249.3221 480.5,-188 456.1345,-173.7645 431.1908,-152.9146 415.0965,-138.4747"/>
<polygon fill="#191970" stroke="#191970" points="417.283,-135.7318 407.5368,-131.5769 412.5648,-140.9027 417.283,-135.7318"/>
</g>
<!-- Node2 -->
<g id="node3" class="node">
<title>Node2</title>
<g id="a_node3"><a xlink:href="Utils_8h.html" target="_top" xlink:title="iDynTree/Core/Utils.h">
<polygon fill="none" stroke="#000000" points="726,-56.5 726,-75.5 845,-75.5 845,-56.5 726,-56.5"/>
<text text-anchor="middle" x="785.5" y="-63.5" font-family="FreeSans.ttf" font-size="10.00" fill="#000000">iDynTree/Core/Utils.h</text>
</a>
</g>
</g>
<!-- Node0&#45;&gt;Node2 -->
<g id="edge34" class="edge">
<title>Node0&#45;&gt;Node2</title>
<path fill="none" stroke="#191970" d="M858.3398,-291.3613C895.2571,-262.4977 996.084,-174.8712 948.5,-112 936.8531,-96.6114 894.2923,-84.9095 855.5834,-77.1596"/>
<polygon fill="#191970" stroke="#191970" points="855.8057,-73.6379 845.3232,-75.1768 854.4775,-80.5107 855.8057,-73.6379"/>
</g>
<!-- Node16 -->
<g id="node17" class="node">
<title>Node16</title>
<g id="a_node17"><a xlink:href="Rotation_8h.html" target="_top" xlink:title="iDynTree/Core/Rotation.h">
<polygon fill="none" stroke="#000000" points="655,-230 655,-249 792,-249 792,-230 655,-230"/>
<text text-anchor="middle" x="723.5" y="-237" font-family="FreeSans.ttf" font-size="10.00" fill="#000000">iDynTree/Core/Rotation.h</text>
</a>
</g>
</g>
<!-- Node0&#45;&gt;Node16 -->
<g id="edge18" class="edge">
<title>Node0&#45;&gt;Node16</title>
<path fill="none" stroke="#191970" d="M826.4375,-291.3906C806.3828,-281.2811 774.6066,-265.2628 751.6616,-253.6962"/>
<polygon fill="#191970" stroke="#191970" points="752.9337,-250.418 742.4286,-249.0419 749.7827,-256.6687 752.9337,-250.418"/>
</g>
<!-- Node21 -->
<g id="node22" class="node">
<title>Node21</title>
<g id="a_node22"><a xlink:href="PrivateMotionForceVertorAssociations_8h.html" target="_top" xlink:title="iDynTree/Core/PrivateMotion\lForceVertorAssociations.h">
<polygon fill="none" stroke="#000000" points="996,-224.5 996,-254.5 1151,-254.5 1151,-224.5 996,-224.5"/>
<text text-anchor="start" x="1004" y="-242.5" font-family="FreeSans.ttf" font-size="10.00" fill="#000000">iDynTree/Core/PrivateMotion</text>
<text text-anchor="middle" x="1073.5" y="-231.5" font-family="FreeSans.ttf" font-size="10.00" fill="#000000">ForceVertorAssociations.h</text>
</a>
</g>
</g>
<!-- Node0&#45;&gt;Node21 -->
<g id="edge33" class="edge">
<title>Node0&#45;&gt;Node21</title>
<path fill="none" stroke="#191970" d="M881.125,-291.3906C914.982,-282.2581 966.715,-268.3038 1008.0093,-257.1653"/>
<polygon fill="#191970" stroke="#191970" points="1008.9815,-260.5282 1017.7249,-254.5446 1007.1585,-253.7697 1008.9815,-260.5282"/>
</g>
<!-- Node1&#45;&gt;Node2 -->
<g id="edge2" class="edge">
<title>Node1&#45;&gt;Node2</title>
<path fill="none" stroke="#191970" d="M463.4848,-112.4989C525.79,-103.5245 622.139,-89.6382 715.7362,-76.1097"/>
<polygon fill="#191970" stroke="#191970" points="716.2649,-79.5697 725.6613,-74.6749 715.2634,-72.6417 716.2649,-79.5697"/>
</g>
<!-- Node4 -->
<g id="node5" class="node">
<title>Node4</title>
<g id="a_node5"><a xlink:href="Span_8h.html" target="_top" xlink:title="iDynTree/Core/Span.h">
<polygon fill="none" stroke="#000000" points="228,-56.5 228,-75.5 349,-75.5 349,-56.5 228,-56.5"/>
<text text-anchor="middle" x="288.5" y="-63.5" font-family="FreeSans.ttf" font-size="10.00" fill="#000000">iDynTree/Core/Span.h</text>
</a>
</g>
</g>
<!-- Node1&#45;&gt;Node4 -->
<g id="edge4" class="edge">
<title>Node1&#45;&gt;Node4</title>
<path fill="none" stroke="#191970" d="M378.5136,-112.2455C361.3208,-103.4125 335.7762,-90.2887 316.2868,-80.2758"/>
<polygon fill="#191970" stroke="#191970" points="317.763,-77.0993 307.2688,-75.6427 314.5641,-83.3257 317.763,-77.0993"/>
</g>
<!-- Node5 -->
<g id="node6" class="node">
<title>Node5</title>
<polygon fill="none" stroke="#bfbfbf" points="509.5,-.5 509.5,-19.5 561.5,-19.5 561.5,-.5 509.5,-.5"/>
<text text-anchor="middle" x="535.5" y="-7.5" font-family="FreeSans.ttf" font-size="10.00" fill="#000000">cassert</text>
</g>
<!-- Node1&#45;&gt;Node5 -->
<g id="edge16" class="edge">
<title>Node1&#45;&gt;Node5</title>
<path fill="none" stroke="#191970" d="M394.0942,-112.4241C389.8224,-98.5573 384.4209,-72.7208 396.5,-56 399.6475,-51.643 459.33,-32.9581 499.4569,-20.7836"/>
<polygon fill="#191970" stroke="#191970" points="500.6314,-24.085 509.1909,-17.8413 498.606,-17.3844 500.6314,-24.085"/>
</g>
<!-- Node13 -->
<g id="node14" class="node">
<title>Node13</title>
<polygon fill="none" stroke="#bfbfbf" points="663.5,-56.5 663.5,-75.5 707.5,-75.5 707.5,-56.5 663.5,-56.5"/>
<text text-anchor="middle" x="685.5" y="-63.5" font-family="FreeSans.ttf" font-size="10.00" fill="#000000">string</text>
</g>
<!-- Node1&#45;&gt;Node13 -->
<g id="edge14" class="edge">
<title>Node1&#45;&gt;Node13</title>
<path fill="none" stroke="#191970" d="M446.6817,-112.4369C505.777,-100.9461 603.2246,-81.998 653.4162,-72.2385"/>
<polygon fill="#191970" stroke="#191970" points="654.2303,-75.6459 663.3784,-70.3014 652.8942,-68.7745 654.2303,-75.6459"/>
</g>
<!-- Node14 -->
<g id="node15" class="node">
<title>Node14</title>
<polygon fill="none" stroke="#bfbfbf" points="405.5,-56.5 405.5,-75.5 461.5,-75.5 461.5,-56.5 405.5,-56.5"/>
<text text-anchor="middle" x="433.5" y="-63.5" font-family="FreeSans.ttf" font-size="10.00" fill="#000000">sstream</text>
</g>
<!-- Node1&#45;&gt;Node14 -->
<g id="edge15" class="edge">
<title>Node1&#45;&gt;Node14</title>
<path fill="none" stroke="#191970" d="M403.7707,-112.2455C408.7264,-104.5367 415.783,-93.5598 421.7776,-84.2348"/>
<polygon fill="#191970" stroke="#191970" points="424.8376,-85.9471 427.3011,-75.6427 418.9494,-82.1618 424.8376,-85.9471"/>
</g>
<!-- Node15 -->
<g id="node16" class="node">
<title>Node15</title>
<polygon fill="none" stroke="#bfbfbf" points="479.5,-56.5 479.5,-75.5 529.5,-75.5 529.5,-56.5 479.5,-56.5"/>
<text text-anchor="middle" x="504.5" y="-63.5" font-family="FreeSans.ttf" font-size="10.00" fill="#000000">cstring</text>
</g>
<!-- Node1&#45;&gt;Node15 -->
<g id="edge17" class="edge">
<title>Node1&#45;&gt;Node15</title>
<path fill="none" stroke="#191970" d="M416.138,-112.2455C432.9386,-103.4527 457.8634,-90.4079 476.9618,-80.4125"/>
<polygon fill="#191970" stroke="#191970" points="478.8386,-83.3807 486.0756,-75.6427 475.5927,-77.1787 478.8386,-83.3807"/>
</g>
<!-- Node3 -->
<g id="node4" class="node">
<title>Node3</title>
<polygon fill="none" stroke="#bfbfbf" points="670,-.5 670,-19.5 723,-19.5 723,-.5 670,-.5"/>
<text text-anchor="middle" x="696.5" y="-7.5" font-family="FreeSans.ttf" font-size="10.00" fill="#000000">cstddef</text>
</g>
<!-- Node2&#45;&gt;Node3 -->
<g id="edge3" class="edge">
<title>Node2&#45;&gt;Node3</title>
<path fill="none" stroke="#191970" d="M769.9974,-56.2455C756.342,-47.6534 736.2343,-35.0014 720.5011,-25.1018"/>
<polygon fill="#191970" stroke="#191970" points="722.1529,-22.006 711.825,-19.6427 718.4249,-27.9307 722.1529,-22.006"/>
</g>
<!-- Node4&#45;&gt;Node3 -->
<g id="edge8" class="edge">
<title>Node4&#45;&gt;Node3</title>
<path fill="none" stroke="#191970" d="M349.1412,-57.6767C434.8663,-45.9105 588.8849,-24.7707 659.408,-15.0911"/>
<polygon fill="#191970" stroke="#191970" points="660.1571,-18.5211 669.5882,-13.6938 659.2052,-11.5862 660.1571,-18.5211"/>
</g>
<!-- Node4&#45;&gt;Node5 -->
<g id="edge5" class="edge">
<title>Node4&#45;&gt;Node5</title>
<path fill="none" stroke="#191970" d="M336.6985,-56.467C377.6136,-48.1662 438.0855,-35.4095 499.3409,-20.183"/>
<polygon fill="#191970" stroke="#191970" points="500.3266,-23.5443 509.1759,-17.7184 498.625,-16.7543 500.3266,-23.5443"/>
</g>
<!-- Node6 -->
<g id="node7" class="node">
<title>Node6</title>
<polygon fill="none" stroke="#bfbfbf" points="367.5,-.5 367.5,-19.5 431.5,-19.5 431.5,-.5 367.5,-.5"/>
<text text-anchor="middle" x="399.5" y="-7.5" font-family="FreeSans.ttf" font-size="10.00" fill="#000000">algorithm</text>
</g>
<!-- Node4&#45;&gt;Node6 -->
<g id="edge6" class="edge">
<title>Node4&#45;&gt;Node6</title>
<path fill="none" stroke="#191970" d="M307.5816,-56.3733C325.2402,-47.4644 351.7053,-34.1127 371.7098,-24.0203"/>
<polygon fill="#191970" stroke="#191970" points="373.3158,-27.1303 380.6674,-19.5011 370.1628,-20.8806 373.3158,-27.1303"/>
</g>
<!-- Node7 -->
<g id="node8" class="node">
<title>Node7</title>
<polygon fill="none" stroke="#bfbfbf" points="449.5,-.5 449.5,-19.5 491.5,-19.5 491.5,-.5 449.5,-.5"/>
<text text-anchor="middle" x="470.5" y="-7.5" font-family="FreeSans.ttf" font-size="10.00" fill="#000000">array</text>
</g>
<!-- Node4&#45;&gt;Node7 -->
<g id="edge7" class="edge">
<title>Node4&#45;&gt;Node7</title>
<path fill="none" stroke="#191970" d="M320.901,-56.4792C349.7426,-47.9414 393.3071,-34.8922 439.613,-20.228"/>
<polygon fill="#191970" stroke="#191970" points="440.7485,-23.5397 449.2186,-17.1752 438.6282,-16.8685 440.7485,-23.5397"/>
</g>
<!-- Node8 -->
<g id="node9" class="node">
<title>Node8</title>
<polygon fill="none" stroke="#bfbfbf" points="0,-.5 0,-19.5 53,-19.5 53,-.5 0,-.5"/>
<text text-anchor="middle" x="26.5" y="-7.5" font-family="FreeSans.ttf" font-size="10.00" fill="#000000">iterator</text>
</g>
<!-- Node4&#45;&gt;Node8 -->
<g id="edge9" class="edge">
<title>Node4&#45;&gt;Node8</title>
<path fill="none" stroke="#191970" d="M236.2081,-56.4349C192.4986,-48.1958 128.3197,-35.5344 63.2134,-20.0439"/>
<polygon fill="#191970" stroke="#191970" points="63.7228,-16.5668 53.1821,-17.6361 62.089,-23.3735 63.7228,-16.5668"/>
</g>
<!-- Node9 -->
<g id="node10" class="node">
<title>Node9</title>
<polygon fill="none" stroke="#bfbfbf" points="71.5,-.5 71.5,-19.5 115.5,-19.5 115.5,-.5 71.5,-.5"/>
<text text-anchor="middle" x="93.5" y="-7.5" font-family="FreeSans.ttf" font-size="10.00" fill="#000000">limits</text>
</g>
<!-- Node4&#45;&gt;Node9 -->
<g id="edge10" class="edge">
<title>Node4&#45;&gt;Node9</title>
<path fill="none" stroke="#191970" d="M252.875,-56.4335C221.6585,-47.9565 174.8385,-35.0154 125.6782,-20.2828"/>
<polygon fill="#191970" stroke="#191970" points="126.4034,-16.846 115.8188,-17.3132 124.3845,-23.5485 126.4034,-16.846"/>
</g>
<!-- Node10 -->
<g id="node11" class="node">
<title>Node10</title>
<polygon fill="none" stroke="#bfbfbf" points="134,-.5 134,-19.5 199,-19.5 199,-.5 134,-.5"/>
<text text-anchor="middle" x="166.5" y="-7.5" font-family="FreeSans.ttf" font-size="10.00" fill="#000000">stdexcept</text>
</g>
<!-- Node4&#45;&gt;Node10 -->
<g id="edge11" class="edge">
<title>Node4&#45;&gt;Node10</title>
<path fill="none" stroke="#191970" d="M267.5275,-56.3733C247.9433,-47.3838 218.5039,-33.8706 196.449,-23.7471"/>
<polygon fill="#191970" stroke="#191970" points="197.7473,-20.4919 187.1989,-19.5011 194.8271,-26.8538 197.7473,-20.4919"/>
</g>
<!-- Node11 -->
<g id="node12" class="node">
<title>Node11</title>
<polygon fill="none" stroke="#bfbfbf" points="217,-.5 217,-19.5 286,-19.5 286,-.5 217,-.5"/>
<text text-anchor="middle" x="251.5" y="-7.5" font-family="FreeSans.ttf" font-size="10.00" fill="#000000">type_traits</text>
</g>
<!-- Node4&#45;&gt;Node11 -->
<g id="edge12" class="edge">
<title>Node4&#45;&gt;Node11</title>
<path fill="none" stroke="#191970" d="M282.0551,-56.2455C276.9618,-48.5367 269.7092,-37.5598 263.548,-28.2348"/>
<polygon fill="#191970" stroke="#191970" points="266.3038,-26.0566 257.8711,-19.6427 260.4635,-29.9155 266.3038,-26.0566"/>
</g>
<!-- Node12 -->
<g id="node13" class="node">
<title>Node12</title>
<polygon fill="none" stroke="#bfbfbf" points="304,-.5 304,-19.5 349,-19.5 349,-.5 304,-.5"/>
<text text-anchor="middle" x="326.5" y="-7.5" font-family="FreeSans.ttf" font-size="10.00" fill="#000000">utility</text>
</g>
<!-- Node4&#45;&gt;Node12 -->
<g id="edge13" class="edge">
<title>Node4&#45;&gt;Node12</title>
<path fill="none" stroke="#191970" d="M295.1191,-56.2455C300.4046,-48.4564 307.9541,-37.3308 314.3238,-27.9439"/>
<polygon fill="#191970" stroke="#191970" points="317.2379,-29.8827 319.9568,-19.6427 311.4455,-25.9522 317.2379,-29.8827"/>
</g>
<!-- Node16&#45;&gt;Node1 -->
<g id="edge32" class="edge">
<title>Node16&#45;&gt;Node1</title>
<path fill="none" stroke="#191970" d="M676.5483,-229.9896C636.5073,-221.1996 577.7737,-206.6848 528.5,-188 490.3265,-173.5245 448.5911,-151.2966 422.7247,-136.7024"/>
<polygon fill="#191970" stroke="#191970" points="424.3699,-133.6115 413.949,-131.6995 420.903,-139.6927 424.3699,-133.6115"/>
</g>
<!-- Node16&#45;&gt;Node13 -->
<g id="edge19" class="edge">
<title>Node16&#45;&gt;Node13</title>
<path fill="none" stroke="#191970" d="M721.4028,-229.9248C715.396,-202.499 698.035,-123.232 689.8577,-85.8964"/>
<polygon fill="#191970" stroke="#191970" points="693.1961,-84.7791 687.6375,-75.7595 686.3581,-86.2768 693.1961,-84.7791"/>
</g>
<!-- Node17 -->
<g id="node18" class="node">
<title>Node17</title>
<g id="a_node18"><a xlink:href="RotationRaw_8h.html" target="_top" xlink:title="iDynTree/Core/RotationRaw.h">
<polygon fill="none" stroke="#000000" points="537.5,-168.5 537.5,-187.5 695.5,-187.5 695.5,-168.5 537.5,-168.5"/>
<text text-anchor="middle" x="616.5" y="-175.5" font-family="FreeSans.ttf" font-size="10.00" fill="#000000">iDynTree/Core/RotationRaw.h</text>
</a>
</g>
</g>
<!-- Node16&#45;&gt;Node17 -->
<g id="edge20" class="edge">
<title>Node16&#45;&gt;Node17</title>
<path fill="none" stroke="#191970" d="M706.7813,-229.8906C689.4278,-219.9165 662.0677,-204.1908 642.0118,-192.6633"/>
<polygon fill="#191970" stroke="#191970" points="643.5154,-189.4907 633.1013,-187.5419 640.0272,-195.5596 643.5154,-189.4907"/>
</g>
<!-- Node20 -->
<g id="node21" class="node">
<title>Node20</title>
<g id="a_node21"><a xlink:href="RotationSemantics_8h.html" target="_top" xlink:title="iDynTree/Core/RotationSemantics.h">
<polygon fill="none" stroke="#000000" points="751.5,-112.5 751.5,-131.5 939.5,-131.5 939.5,-112.5 751.5,-112.5"/>
<text text-anchor="middle" x="845.5" y="-119.5" font-family="FreeSans.ttf" font-size="10.00" fill="#000000">iDynTree/Core/RotationSemantics.h</text>
</a>
</g>
</g>
<!-- Node16&#45;&gt;Node20 -->
<g id="edge29" class="edge">
<title>Node16&#45;&gt;Node20</title>
<path fill="none" stroke="#191970" d="M733.4838,-229.8845C754.2163,-209.9167 802.1583,-163.743 828.0912,-138.7667"/>
<polygon fill="#191970" stroke="#191970" points="830.6035,-141.2063 835.3783,-131.7484 825.7476,-136.1645 830.6035,-141.2063"/>
</g>
<!-- Node17&#45;&gt;Node13 -->
<g id="edge28" class="edge">
<title>Node17&#45;&gt;Node13</title>
<path fill="none" stroke="#191970" d="M630.4412,-168.1803C641.4375,-159.7535 656.3915,-146.6714 665.5,-132 674.3698,-117.7132 679.5271,-99.2364 682.3757,-85.4677"/>
<polygon fill="#191970" stroke="#191970" points="685.8229,-86.0735 684.192,-75.6049 678.9386,-84.8056 685.8229,-86.0735"/>
</g>
<!-- Node18 -->
<g id="node19" class="node">
<title>Node18</title>
<g id="a_node19"><a xlink:href="MatrixFixSize_8h.html" target="_top" xlink:title="iDynTree/Core/MatrixFixSize.h">
<polygon fill="none" stroke="#000000" points="496,-112.5 496,-131.5 657,-131.5 657,-112.5 496,-112.5"/>
<text text-anchor="middle" x="576.5" y="-119.5" font-family="FreeSans.ttf" font-size="10.00" fill="#000000">iDynTree/Core/MatrixFixSize.h</text>
</a>
</g>
</g>
<!-- Node17&#45;&gt;Node18 -->
<g id="edge21" class="edge">
<title>Node17&#45;&gt;Node18</title>
<path fill="none" stroke="#191970" d="M609.5325,-168.2455C603.9689,-160.4564 596.022,-149.3308 589.3171,-139.9439"/>
<polygon fill="#191970" stroke="#191970" points="592.0481,-137.7457 583.3876,-131.6427 586.352,-141.8144 592.0481,-137.7457"/>
</g>
<!-- Node18&#45;&gt;Node2 -->
<g id="edge22" class="edge">
<title>Node18&#45;&gt;Node2</title>
<path fill="none" stroke="#191970" d="M612.4284,-112.3733C647.7837,-102.9001 701.888,-88.4032 740.1788,-78.1435"/>
<polygon fill="#191970" stroke="#191970" points="741.287,-81.4701 750.0405,-75.5011 739.4753,-74.7086 741.287,-81.4701"/>
</g>
<!-- Node18&#45;&gt;Node5 -->
<g id="edge23" class="edge">
<title>Node18&#45;&gt;Node5</title>
<path fill="none" stroke="#191970" d="M589.5222,-112.445C605.2725,-99.6652 628.2958,-76.2641 616.5,-56 606.7066,-39.1758 588.2139,-28.0029 571.3684,-20.8865"/>
<polygon fill="#191970" stroke="#191970" points="572.3078,-17.4972 561.7186,-17.1532 569.782,-24.0257 572.3078,-17.4972"/>
</g>
<!-- Node18&#45;&gt;Node13 -->
<g id="edge25" class="edge">
<title>Node18&#45;&gt;Node13</title>
<path fill="none" stroke="#191970" d="M595.4864,-112.2455C612.6792,-103.4125 638.2238,-90.2887 657.7132,-80.2758"/>
<polygon fill="#191970" stroke="#191970" points="659.4359,-83.3257 666.7312,-75.6427 656.237,-77.0993 659.4359,-83.3257"/>
</g>
<!-- Node18&#45;&gt;Node14 -->
<g id="edge27" class="edge">
<title>Node18&#45;&gt;Node14</title>
<path fill="none" stroke="#191970" d="M551.9174,-112.3733C528.5504,-103.2226 493.2138,-89.3844 467.2216,-79.2057"/>
<polygon fill="#191970" stroke="#191970" points="468.3495,-75.8886 457.7618,-75.5011 465.797,-82.4066 468.3495,-75.8886"/>
</g>
<!-- Node18&#45;&gt;Node15 -->
<g id="edge24" class="edge">
<title>Node18&#45;&gt;Node15</title>
<path fill="none" stroke="#191970" d="M563.9586,-112.2455C553.2213,-103.8943 537.5527,-91.7076 524.9953,-81.9408"/>
<polygon fill="#191970" stroke="#191970" points="526.9401,-79.0194 516.8977,-75.6427 522.6425,-84.5449 526.9401,-79.0194"/>
</g>
<!-- Node19 -->
<g id="node20" class="node">
<title>Node19</title>
<polygon fill="none" stroke="#bfbfbf" points="547.5,-56.5 547.5,-75.5 607.5,-75.5 607.5,-56.5 547.5,-56.5"/>
<text text-anchor="middle" x="577.5" y="-63.5" font-family="FreeSans.ttf" font-size="10.00" fill="#000000">iostream</text>
</g>
<!-- Node18&#45;&gt;Node19 -->
<g id="edge26" class="edge">
<title>Node18&#45;&gt;Node19</title>
<path fill="none" stroke="#191970" d="M576.6742,-112.2455C576.8047,-104.9382 576.9876,-94.6944 577.1481,-85.7046"/>
<polygon fill="#191970" stroke="#191970" points="580.6486,-85.7036 577.3278,-75.6427 573.6497,-85.5786 580.6486,-85.7036"/>
</g>
<!-- Node20&#45;&gt;Node2 -->
<g id="edge31" class="edge">
<title>Node20&#45;&gt;Node2</title>
<path fill="none" stroke="#191970" d="M835.0488,-112.2455C826.2731,-104.0549 813.5446,-92.1749 803.186,-82.5069"/>
<polygon fill="#191970" stroke="#191970" points="805.5301,-79.9072 795.8314,-75.6427 800.7539,-85.0246 805.5301,-79.9072"/>
</g>
<!-- Node20&#45;&gt;Node13 -->
<g id="edge30" class="edge">
<title>Node20&#45;&gt;Node13</title>
<path fill="none" stroke="#191970" d="M817.995,-112.3733C790.0213,-102.5825 746.7157,-87.4255 717.2891,-77.1262"/>
<polygon fill="#191970" stroke="#191970" points="718.1021,-73.7026 707.5073,-73.7026 715.7896,-80.3096 718.1021,-73.7026"/>
</g>
</g>
</svg>
