<?xml version="1.0" encoding="UTF-8" standalone="no"?>
<!DOCTYPE svg PUBLIC "-//W3C//DTD SVG 1.1//EN"
 "http://www.w3.org/Graphics/SVG/1.1/DTD/svg11.dtd">
<!-- Generated by graphviz version 2.40.1 (20161225.0304)
 -->
<!-- Title: idyntree&#45;model&#45;info.cpp Pages: 1 -->
<svg width="2261pt" height="677pt"
 viewBox="0.00 0.00 2261.00 677.00" xmlns="http://www.w3.org/2000/svg" xmlns:xlink="http://www.w3.org/1999/xlink">
<g id="graph0" class="graph" transform="scale(1 1) rotate(0) translate(4 673)">
<title>idyntree&#45;model&#45;info.cpp</title>
<!-- Node0 -->
<g id="node1" class="node">
<title>Node0</title>
<polygon fill="#bfbfbf" stroke="#000000" points="1074,-649.5 1074,-668.5 1208,-668.5 1208,-649.5 1074,-649.5"/>
<text text-anchor="middle" x="1141" y="-656.5" font-family="FreeSans.ttf" font-size="10.00" fill="#000000">idyntree&#45;model&#45;info.cpp</text>
</g>
<!-- Node1 -->
<g id="node2" class="node">
<title>Node1</title>
<g id="a_node2"><a xlink:href="Model_8h.html" target="_top" xlink:title="iDynTree/Model/Model.h">
<polygon fill="none" stroke="#000000" points="1007.5,-481.5 1007.5,-500.5 1140.5,-500.5 1140.5,-481.5 1007.5,-481.5"/>
<text text-anchor="middle" x="1074" y="-488.5" font-family="FreeSans.ttf" font-size="10.00" fill="#000000">iDynTree/Model/Model.h</text>
</a>
</g>
</g>
<!-- Node0&#45;&gt;Node1 -->
<g id="edge1" class="edge">
<title>Node0&#45;&gt;Node1</title>
<path fill="none" stroke="#191970" d="M1114.0356,-649.4934C1097.8286,-642.2188 1078.5492,-630.4326 1069,-613 1051.2573,-580.6097 1059.9796,-535.8026 1067.3631,-510.4801"/>
<polygon fill="#191970" stroke="#191970" points="1070.8021,-511.2111 1070.4629,-500.6217 1064.1245,-509.1114 1070.8021,-511.2111"/>
</g>
<!-- Node14 -->
<g id="node33" class="node">
<title>Node14</title>
<polygon fill="none" stroke="#bfbfbf" points="2193,-56.5 2193,-75.5 2253,-75.5 2253,-56.5 2193,-56.5"/>
<text text-anchor="middle" x="2223" y="-63.5" font-family="FreeSans.ttf" font-size="10.00" fill="#000000">iostream</text>
</g>
<!-- Node0&#45;&gt;Node14 -->
<g id="edge110" class="edge">
<title>Node0&#45;&gt;Node14</title>
<path fill="none" stroke="#191970" d="M1208.3652,-655.4579C1442.2541,-642.7206 2205,-597.3247 2205,-547 2205,-547 2205,-547 2205,-183.5 2205,-148.7391 2212.7924,-108.8538 2218.123,-85.6357"/>
<polygon fill="#191970" stroke="#191970" points="2221.5838,-86.211 2220.4972,-75.6721 2214.7745,-84.5884 2221.5838,-86.211"/>
</g>
<!-- Node51 -->
<g id="node37" class="node">
<title>Node51</title>
<polygon fill="none" stroke="#bfbfbf" points="1351.5,-358.5 1351.5,-377.5 1400.5,-377.5 1400.5,-358.5 1351.5,-358.5"/>
<text text-anchor="middle" x="1376" y="-365.5" font-family="FreeSans.ttf" font-size="10.00" fill="#000000">cstdlib</text>
</g>
<!-- Node0&#45;&gt;Node51 -->
<g id="edge111" class="edge">
<title>Node0&#45;&gt;Node51</title>
<path fill="none" stroke="#191970" d="M1129.26,-649.4549C1119.869,-641.0029 1107.4091,-627.7442 1102,-613 1090.3664,-581.2888 1083.9723,-565.5647 1102,-537 1127.3581,-496.8204 1255.8522,-471.9237 1295,-445 1320.5537,-427.4255 1345.7753,-401.7783 1361.1171,-384.991"/>
<polygon fill="#191970" stroke="#191970" points="1363.7348,-387.3144 1367.8131,-377.5359 1358.527,-382.6369 1363.7348,-387.3144"/>
</g>
<!-- Node53 -->
<g id="node39" class="node">
<title>Node53</title>
<g id="a_node39"><a xlink:href="ModelLoader_8h.html" target="_top" xlink:title="iDynTree/ModelIO/ModelLoader.h">
<polygon fill="none" stroke="#000000" points="1111,-593.5 1111,-612.5 1287,-612.5 1287,-593.5 1111,-593.5"/>
<text text-anchor="middle" x="1199" y="-600.5" font-family="FreeSans.ttf" font-size="10.00" fill="#000000">iDynTree/ModelIO/ModelLoader.h</text>
</a>
</g>
</g>
<!-- Node0&#45;&gt;Node53 -->
<g id="edge66" class="edge">
<title>Node0&#45;&gt;Node53</title>
<path fill="none" stroke="#191970" d="M1151.1028,-649.2455C1159.5028,-641.1352 1171.6494,-629.4075 1181.6084,-619.7919"/>
<polygon fill="#191970" stroke="#191970" points="1184.25,-622.1066 1189.0129,-612.6427 1179.3878,-617.0707 1184.25,-622.1066"/>
</g>
<!-- Node57 -->
<g id="node43" class="node">
<title>Node57</title>
<g id="a_node43"><a xlink:href="KinDynComputations_8h.html" target="_top" xlink:title="iDynTree/KinDynComputations.h">
<polygon fill="none" stroke="#000000" points="208.5,-481.5 208.5,-500.5 383.5,-500.5 383.5,-481.5 208.5,-481.5"/>
<text text-anchor="middle" x="296" y="-488.5" font-family="FreeSans.ttf" font-size="10.00" fill="#000000">iDynTree/KinDynComputations.h</text>
</a>
</g>
</g>
<!-- Node0&#45;&gt;Node57 -->
<g id="edge80" class="edge">
<title>Node0&#45;&gt;Node57</title>
<path fill="none" stroke="#191970" d="M1093.148,-649.4862C947.785,-620.5856 511.691,-533.8829 353.8386,-502.4993"/>
<polygon fill="#191970" stroke="#191970" points="354.3401,-499.0306 343.8496,-500.5133 352.9751,-505.8962 354.3401,-499.0306"/>
</g>
<!-- Node62 -->
<g id="node48" class="node">
<title>Node62</title>
<g id="a_node48"><a xlink:href="cmdline_8h.html" target="_top" xlink:title="cmdline.h">
<polygon fill="none" stroke="#000000" points="1781.5,-420 1781.5,-439 1846.5,-439 1846.5,-420 1781.5,-420"/>
<text text-anchor="middle" x="1814" y="-427" font-family="FreeSans.ttf" font-size="10.00" fill="#000000">cmdline.h</text>
</a>
</g>
</g>
<!-- Node0&#45;&gt;Node62 -->
<g id="edge99" class="edge">
<title>Node0&#45;&gt;Node62</title>
<path fill="none" stroke="#191970" d="M1208.0075,-654.6522C1326.1718,-644.3029 1575.7426,-610.2182 1752,-501 1773.7152,-487.5441 1791.9235,-464.058 1802.8743,-447.6892"/>
<polygon fill="#191970" stroke="#191970" points="1805.994,-449.3087 1808.455,-439.0036 1800.1048,-445.5247 1805.994,-449.3087"/>
</g>
<!-- Node2 -->
<g id="node3" class="node">
<title>Node2</title>
<g id="a_node3"><a xlink:href="IJoint_8h.html" target="_top" xlink:title="iDynTree/Model/IJoint.h">
<polygon fill="none" stroke="#000000" points="440,-420 440,-439 568,-439 568,-420 440,-420"/>
<text text-anchor="middle" x="504" y="-427" font-family="FreeSans.ttf" font-size="10.00" fill="#000000">iDynTree/Model/IJoint.h</text>
</a>
</g>
</g>
<!-- Node1&#45;&gt;Node2 -->
<g id="edge2" class="edge">
<title>Node1&#45;&gt;Node2</title>
<path fill="none" stroke="#191970" d="M1007.2932,-486.9497C912.4465,-480.6949 733.3212,-467.0493 582,-445 574.219,-443.8662 566.0395,-442.4697 558.024,-440.9836"/>
<polygon fill="#191970" stroke="#191970" points="558.4807,-437.5075 548.0011,-439.0661 557.1654,-444.3829 558.4807,-437.5075"/>
</g>
<!-- Node3 -->
<g id="node4" class="node">
<title>Node3</title>
<g id="a_node4"><a xlink:href="Indices_8h.html" target="_top" xlink:title="iDynTree/Model/Indices.h">
<polygon fill="none" stroke="#000000" points="320,-358.5 320,-377.5 458,-377.5 458,-358.5 320,-358.5"/>
<text text-anchor="middle" x="389" y="-365.5" font-family="FreeSans.ttf" font-size="10.00" fill="#000000">iDynTree/Model/Indices.h</text>
</a>
</g>
</g>
<!-- Node1&#45;&gt;Node3 -->
<g id="edge58" class="edge">
<title>Node1&#45;&gt;Node3</title>
<path fill="none" stroke="#191970" d="M1007.461,-489.0284C897.7875,-484.9997 684.291,-473.6518 615,-445 594.8581,-436.6713 596.5096,-423.7178 577,-414 543.1921,-397.1601 502.8283,-386.24 468.1835,-379.2876"/>
<polygon fill="#191970" stroke="#191970" points="468.5848,-375.8006 458.1029,-377.3429 467.2588,-382.6739 468.5848,-375.8006"/>
</g>
<!-- Node5 -->
<g id="node6" class="node">
<title>Node5</title>
<g id="a_node6"><a xlink:href="Link_8h.html" target="_top" xlink:title="iDynTree/Model/Link.h">
<polygon fill="none" stroke="#000000" points="624,-420 624,-439 748,-439 748,-420 624,-420"/>
<text text-anchor="middle" x="686" y="-427" font-family="FreeSans.ttf" font-size="10.00" fill="#000000">iDynTree/Model/Link.h</text>
</a>
</g>
</g>
<!-- Node1&#45;&gt;Node5 -->
<g id="edge5" class="edge">
<title>Node1&#45;&gt;Node5</title>
<path fill="none" stroke="#191970" d="M1007.2083,-482.6085C943.1046,-474.2407 843.6599,-460.4369 758,-445 751.6413,-443.8541 744.9876,-442.5566 738.4031,-441.2121"/>
<polygon fill="#191970" stroke="#191970" points="738.6695,-437.6924 728.1654,-439.0756 737.2395,-444.5448 738.6695,-437.6924"/>
</g>
<!-- Node48 -->
<g id="node26" class="node">
<title>Node48</title>
<g id="a_node26"><a xlink:href="Transform_8h.html" target="_top" xlink:title="iDynTree/Core/Transform.h">
<polygon fill="none" stroke="#000000" points="1046,-358.5 1046,-377.5 1192,-377.5 1192,-358.5 1046,-358.5"/>
<text text-anchor="middle" x="1119" y="-365.5" font-family="FreeSans.ttf" font-size="10.00" fill="#000000">iDynTree/Core/Transform.h</text>
</a>
</g>
</g>
<!-- Node1&#45;&gt;Node48 -->
<g id="edge29" class="edge">
<title>Node1&#45;&gt;Node48</title>
<path fill="none" stroke="#191970" d="M1063.5625,-481.2167C1048.953,-466.2921 1025.6169,-437.133 1039,-414 1047.5707,-399.1854 1062.9193,-388.7247 1077.8965,-381.5639"/>
<polygon fill="#191970" stroke="#191970" points="1079.3583,-384.7446 1087.11,-377.5223 1076.5463,-378.3342 1079.3583,-384.7446"/>
</g>
<!-- Node50 -->
<g id="node36" class="node">
<title>Node50</title>
<g id="a_node36"><a xlink:href="SolidShapes_8h.html" target="_top" xlink:title="iDynTree/Model/SolidShapes.h">
<polygon fill="none" stroke="#000000" points="1047.5,-420 1047.5,-439 1210.5,-439 1210.5,-420 1047.5,-420"/>
<text text-anchor="middle" x="1129" y="-427" font-family="FreeSans.ttf" font-size="10.00" fill="#000000">iDynTree/Model/SolidShapes.h</text>
</a>
</g>
</g>
<!-- Node1&#45;&gt;Node50 -->
<g id="edge59" class="edge">
<title>Node1&#45;&gt;Node50</title>
<path fill="none" stroke="#191970" d="M1082.5938,-481.3906C1090.8597,-472.1478 1103.5426,-457.966 1113.5617,-446.7628"/>
<polygon fill="#191970" stroke="#191970" points="1116.2278,-449.0321 1120.2851,-439.2449 1111.01,-444.3657 1116.2278,-449.0321"/>
</g>
<!-- Node1&#45;&gt;Node51 -->
<g id="edge64" class="edge">
<title>Node1&#45;&gt;Node51</title>
<path fill="none" stroke="#191970" d="M1128.6875,-481.4988C1164.8881,-474.118 1212.9005,-462.2113 1253,-445 1291.3881,-428.5233 1331.6503,-401.0865 1355.2534,-383.8004"/>
<polygon fill="#191970" stroke="#191970" points="1357.504,-386.4886 1363.4452,-377.7163 1353.3303,-380.869 1357.504,-386.4886"/>
</g>
<!-- Node52 -->
<g id="node38" class="node">
<title>Node52</title>
<polygon fill="none" stroke="#bfbfbf" points="1286.5,-358.5 1286.5,-377.5 1333.5,-377.5 1333.5,-358.5 1286.5,-358.5"/>
<text text-anchor="middle" x="1310" y="-365.5" font-family="FreeSans.ttf" font-size="10.00" fill="#000000">vector</text>
</g>
<!-- Node1&#45;&gt;Node52 -->
<g id="edge65" class="edge">
<title>Node1&#45;&gt;Node52</title>
<path fill="none" stroke="#191970" d="M1120.322,-481.4676C1150.0292,-474.1563 1188.7431,-462.3391 1220,-445 1235.4664,-436.4203 1270.7855,-404.6026 1292.2929,-384.6514"/>
<polygon fill="#191970" stroke="#191970" points="1294.864,-387.0394 1299.7894,-377.659 1290.0894,-381.9205 1294.864,-387.0394"/>
</g>
<!-- Node2&#45;&gt;Node3 -->
<g id="edge3" class="edge">
<title>Node2&#45;&gt;Node3</title>
<path fill="none" stroke="#191970" d="M486.0313,-419.8906C467.2116,-409.8262 437.4415,-393.9057 415.8359,-382.3514"/>
<polygon fill="#191970" stroke="#191970" points="417.3114,-379.1714 406.8426,-377.5419 414.0102,-385.3442 417.3114,-379.1714"/>
</g>
<!-- Node4 -->
<g id="node5" class="node">
<title>Node4</title>
<polygon fill="none" stroke="#bfbfbf" points="703,-56.5 703,-75.5 747,-75.5 747,-56.5 703,-56.5"/>
<text text-anchor="middle" x="725" y="-63.5" font-family="FreeSans.ttf" font-size="10.00" fill="#000000">string</text>
</g>
<!-- Node3&#45;&gt;Node4 -->
<g id="edge4" class="edge">
<title>Node3&#45;&gt;Node4</title>
<path fill="none" stroke="#191970" d="M319.7377,-363.9209C253.347,-358.5764 159.4324,-346.7894 133,-322 107.2892,-297.8873 114,-280.2487 114,-245 114,-245 114,-245 114,-183.5 114,-124.0003 566.587,-79.8824 692.7161,-68.7427"/>
<polygon fill="#191970" stroke="#191970" points="693.236,-72.2106 702.8932,-67.8531 692.6264,-65.2372 693.236,-72.2106"/>
</g>
<!-- Node5&#45;&gt;Node3 -->
<g id="edge28" class="edge">
<title>Node5&#45;&gt;Node3</title>
<path fill="none" stroke="#191970" d="M639.9196,-419.9581C587.3527,-409.073 501.4017,-391.2751 445.0123,-379.5985"/>
<polygon fill="#191970" stroke="#191970" points="445.6905,-376.1648 435.1885,-377.5643 444.271,-383.0193 445.6905,-376.1648"/>
</g>
<!-- Node6 -->
<g id="node7" class="node">
<title>Node6</title>
<g id="a_node7"><a xlink:href="SpatialInertia_8h.html" target="_top" xlink:title="iDynTree/Core/SpatialInertia.h">
<polygon fill="none" stroke="#000000" points="605,-358.5 605,-377.5 767,-377.5 767,-358.5 605,-358.5"/>
<text text-anchor="middle" x="686" y="-365.5" font-family="FreeSans.ttf" font-size="10.00" fill="#000000">iDynTree/Core/SpatialInertia.h</text>
</a>
</g>
</g>
<!-- Node5&#45;&gt;Node6 -->
<g id="edge6" class="edge">
<title>Node5&#45;&gt;Node6</title>
<path fill="none" stroke="#191970" d="M686,-419.8906C686,-411.3657 686,-398.6392 686,-387.9235"/>
<polygon fill="#191970" stroke="#191970" points="689.5001,-387.7448 686,-377.7449 682.5001,-387.7449 689.5001,-387.7448"/>
</g>
<!-- Node7 -->
<g id="node8" class="node">
<title>Node7</title>
<g id="a_node8"><a xlink:href="SpatialInertiaRaw_8h.html" target="_top" xlink:title="iDynTree/Core/SpatialInertia\lRaw.h">
<polygon fill="none" stroke="#ff0000" points="676.5,-291.5 676.5,-321.5 829.5,-321.5 829.5,-291.5 676.5,-291.5"/>
<text text-anchor="start" x="684.5" y="-309.5" font-family="FreeSans.ttf" font-size="10.00" fill="#000000">iDynTree/Core/SpatialInertia</text>
<text text-anchor="middle" x="753" y="-298.5" font-family="FreeSans.ttf" font-size="10.00" fill="#000000">Raw.h</text>
</a>
</g>
</g>
<!-- Node6&#45;&gt;Node7 -->
<g id="edge7" class="edge">
<title>Node6&#45;&gt;Node7</title>
<path fill="none" stroke="#191970" d="M696.4688,-358.3906C705.2005,-350.3756 717.9785,-338.6466 729.1779,-328.3666"/>
<polygon fill="#191970" stroke="#191970" points="731.6097,-330.8853 736.61,-321.5446 726.8762,-325.7284 731.6097,-330.8853"/>
</g>
<!-- Node16 -->
<g id="node9" class="node">
<title>Node16</title>
<g id="a_node9"><a xlink:href="VectorFixSize_8h.html" target="_top" xlink:title="iDynTree/Core/VectorFixSize.h">
<polygon fill="none" stroke="#000000" points="1586.5,-174 1586.5,-193 1747.5,-193 1747.5,-174 1586.5,-174"/>
<text text-anchor="middle" x="1667" y="-181" font-family="FreeSans.ttf" font-size="10.00" fill="#000000">iDynTree/Core/VectorFixSize.h</text>
</a>
</g>
</g>
<!-- Node6&#45;&gt;Node16 -->
<g id="edge8" class="edge">
<title>Node6&#45;&gt;Node16</title>
<path fill="none" stroke="#191970" d="M767.3576,-366.1426C869.8524,-362.5753 1050.9763,-352.187 1203,-322 1329.9854,-296.7848 1356.82,-271.6117 1481,-235 1528.7941,-220.909 1583.826,-205.8104 1621.5588,-195.6299"/>
<polygon fill="#191970" stroke="#191970" points="1622.4963,-199.0022 1631.2425,-193.0227 1620.6764,-192.2429 1622.4963,-199.0022"/>
</g>
<!-- Node25 -->
<g id="node22" class="node">
<title>Node25</title>
<g id="a_node22"><a xlink:href="Twist_8h.html" target="_top" xlink:title="iDynTree/Core/Twist.h">
<polygon fill="none" stroke="#ff0000" points="294,-297 294,-316 416,-316 416,-297 294,-297"/>
<text text-anchor="middle" x="355" y="-304" font-family="FreeSans.ttf" font-size="10.00" fill="#000000">iDynTree/Core/Twist.h</text>
</a>
</g>
</g>
<!-- Node6&#45;&gt;Node25 -->
<g id="edge24" class="edge">
<title>Node6&#45;&gt;Node25</title>
<path fill="none" stroke="#191970" d="M634.6444,-358.4581C575.7311,-347.512 479.1935,-329.5752 416.3701,-317.9026"/>
<polygon fill="#191970" stroke="#191970" points="416.6748,-314.3994 406.2037,-316.0137 415.3961,-321.2816 416.6748,-314.3994"/>
</g>
<!-- Node41 -->
<g id="node23" class="node">
<title>Node41</title>
<g id="a_node23"><a xlink:href="SpatialMomentum_8h.html" target="_top" xlink:title="iDynTree/Core/SpatialMomentum.h">
<polygon fill="none" stroke="#ff0000" points="472,-297 472,-316 658,-316 658,-297 472,-297"/>
<text text-anchor="middle" x="565" y="-304" font-family="FreeSans.ttf" font-size="10.00" fill="#000000">iDynTree/Core/SpatialMomentum.h</text>
</a>
</g>
</g>
<!-- Node6&#45;&gt;Node41 -->
<g id="edge25" class="edge">
<title>Node6&#45;&gt;Node41</title>
<path fill="none" stroke="#191970" d="M667.0938,-358.3906C647.2034,-348.2811 615.6877,-332.2628 592.9308,-320.6962"/>
<polygon fill="#191970" stroke="#191970" points="594.274,-317.4528 583.7735,-316.0419 591.1022,-323.693 594.274,-317.4528"/>
</g>
<!-- Node46 -->
<g id="node24" class="node">
<title>Node46</title>
<g id="a_node24"><a xlink:href="SpatialAcc_8h.html" target="_top" xlink:title="iDynTree/Core/SpatialAcc.h">
<polygon fill="none" stroke="#ff0000" points="848,-297 848,-316 996,-316 996,-297 848,-297"/>
<text text-anchor="middle" x="922" y="-304" font-family="FreeSans.ttf" font-size="10.00" fill="#000000">iDynTree/Core/SpatialAcc.h</text>
</a>
</g>
</g>
<!-- Node6&#45;&gt;Node46 -->
<g id="edge26" class="edge">
<title>Node6&#45;&gt;Node46</title>
<path fill="none" stroke="#191970" d="M722.6161,-358.4581C763.7811,-347.7308 830.7101,-330.2895 875.5291,-318.61"/>
<polygon fill="#191970" stroke="#191970" points="876.5038,-321.973 885.298,-316.0643 874.7386,-315.1992 876.5038,-321.973"/>
</g>
<!-- Node47 -->
<g id="node25" class="node">
<title>Node47</title>
<g id="a_node25"><a xlink:href="Wrench_8h.html" target="_top" xlink:title="iDynTree/Core/Wrench.h">
<polygon fill="none" stroke="#ff0000" points="142.5,-297 142.5,-316 275.5,-316 275.5,-297 142.5,-297"/>
<text text-anchor="middle" x="209" y="-304" font-family="FreeSans.ttf" font-size="10.00" fill="#000000">iDynTree/Core/Wrench.h</text>
</a>
</g>
</g>
<!-- Node6&#45;&gt;Node47 -->
<g id="edge27" class="edge">
<title>Node6&#45;&gt;Node47</title>
<path fill="none" stroke="#191970" d="M604.6902,-360.7651C523.4781,-353.0476 395.209,-339.5256 285,-322 277.6025,-320.8236 269.8315,-319.4267 262.1986,-317.9605"/>
<polygon fill="#191970" stroke="#191970" points="262.7753,-314.5069 252.287,-316.006 261.4209,-321.3747 262.7753,-314.5069"/>
</g>
<!-- Node16&#45;&gt;Node4 -->
<g id="edge20" class="edge">
<title>Node16&#45;&gt;Node4</title>
<path fill="none" stroke="#191970" d="M1622.0727,-173.9275C1574.9135,-163.8057 1498.6446,-147.2271 1433,-132 1396.4574,-123.5235 1388.0556,-117.8391 1351,-112 1125.5295,-76.4712 849.9479,-68.287 757.194,-66.4855"/>
<polygon fill="#191970" stroke="#191970" points="757.1132,-62.9835 747.0509,-66.3002 756.9853,-69.9823 757.1132,-62.9835"/>
</g>
<!-- Node10 -->
<g id="node10" class="node">
<title>Node10</title>
<g id="a_node10"><a xlink:href="Utils_8h.html" target="_top" xlink:title="iDynTree/Core/Utils.h">
<polygon fill="none" stroke="#000000" points="1356.5,-56.5 1356.5,-75.5 1475.5,-75.5 1475.5,-56.5 1356.5,-56.5"/>
<text text-anchor="middle" x="1416" y="-63.5" font-family="FreeSans.ttf" font-size="10.00" fill="#000000">iDynTree/Core/Utils.h</text>
</a>
</g>
</g>
<!-- Node16&#45;&gt;Node10 -->
<g id="edge9" class="edge">
<title>Node16&#45;&gt;Node10</title>
<path fill="none" stroke="#191970" d="M1662.403,-173.9271C1654.4214,-158.3784 1636.4797,-127.788 1612,-112 1591.1587,-98.5586 1533.1977,-85.8844 1485.6733,-77.257"/>
<polygon fill="#191970" stroke="#191970" points="1486.167,-73.7899 1475.7077,-75.4786 1484.9372,-80.681 1486.167,-73.7899"/>
</g>
<!-- Node17 -->
<g id="node12" class="node">
<title>Node17</title>
<g id="a_node12"><a xlink:href="Span_8h.html" target="_top" xlink:title="iDynTree/Core/Span.h">
<polygon fill="none" stroke="#ff0000" points="1849.5,-112.5 1849.5,-131.5 1970.5,-131.5 1970.5,-112.5 1849.5,-112.5"/>
<text text-anchor="middle" x="1910" y="-119.5" font-family="FreeSans.ttf" font-size="10.00" fill="#000000">iDynTree/Core/Span.h</text>
</a>
</g>
</g>
<!-- Node16&#45;&gt;Node17 -->
<g id="edge11" class="edge">
<title>Node16&#45;&gt;Node17</title>
<path fill="none" stroke="#191970" d="M1704.7021,-173.9581C1747.1772,-163.2082 1816.292,-145.7162 1862.4413,-134.0365"/>
<polygon fill="#191970" stroke="#191970" points="1863.3738,-137.4109 1872.2094,-131.5643 1861.6563,-130.6248 1863.3738,-137.4109"/>
</g>
<!-- Node12 -->
<g id="node13" class="node">
<title>Node12</title>
<polygon fill="none" stroke="#bfbfbf" points="1639,-56.5 1639,-75.5 1691,-75.5 1691,-56.5 1639,-56.5"/>
<text text-anchor="middle" x="1665" y="-63.5" font-family="FreeSans.ttf" font-size="10.00" fill="#000000">cassert</text>
</g>
<!-- Node16&#45;&gt;Node12 -->
<g id="edge22" class="edge">
<title>Node16&#45;&gt;Node12</title>
<path fill="none" stroke="#191970" d="M1699.1113,-173.9754C1732.2833,-162.355 1776.8828,-140.6604 1759,-112 1752.1952,-101.0941 1724.1931,-88.1902 1700.5063,-78.8292"/>
<polygon fill="#191970" stroke="#191970" points="1701.618,-75.5067 1691.0283,-75.1762 1699.1006,-82.0384 1701.618,-75.5067"/>
</g>
<!-- Node15 -->
<g id="node20" class="node">
<title>Node15</title>
<polygon fill="none" stroke="#bfbfbf" points="1565,-56.5 1565,-75.5 1621,-75.5 1621,-56.5 1565,-56.5"/>
<text text-anchor="middle" x="1593" y="-63.5" font-family="FreeSans.ttf" font-size="10.00" fill="#000000">sstream</text>
</g>
<!-- Node16&#45;&gt;Node15 -->
<g id="edge21" class="edge">
<title>Node16&#45;&gt;Node15</title>
<path fill="none" stroke="#191970" d="M1673.2669,-173.9809C1681.899,-159.5546 1695.0838,-131.7469 1683,-112 1676.5886,-101.5227 1650.2731,-88.7476 1627.7412,-79.3214"/>
<polygon fill="#191970" stroke="#191970" points="1628.9665,-76.0413 1618.3853,-75.5031 1626.3214,-82.5223 1628.9665,-76.0413"/>
</g>
<!-- Node13 -->
<g id="node21" class="node">
<title>Node13</title>
<polygon fill="none" stroke="#bfbfbf" points="1497,-56.5 1497,-75.5 1547,-75.5 1547,-56.5 1497,-56.5"/>
<text text-anchor="middle" x="1522" y="-63.5" font-family="FreeSans.ttf" font-size="10.00" fill="#000000">cstring</text>
</g>
<!-- Node16&#45;&gt;Node13 -->
<g id="edge23" class="edge">
<title>Node16&#45;&gt;Node13</title>
<path fill="none" stroke="#191970" d="M1666.6473,-173.8413C1665.5839,-158.72 1661.3887,-129.3919 1645,-112 1638.6496,-105.2608 1590.8219,-88.5491 1556.7193,-77.2365"/>
<polygon fill="#191970" stroke="#191970" points="1557.6675,-73.864 1547.0745,-74.0591 1555.4772,-80.5125 1557.6675,-73.864"/>
</g>
<!-- Node11 -->
<g id="node11" class="node">
<title>Node11</title>
<polygon fill="none" stroke="#bfbfbf" points="1542.5,-.5 1542.5,-19.5 1595.5,-19.5 1595.5,-.5 1542.5,-.5"/>
<text text-anchor="middle" x="1569" y="-7.5" font-family="FreeSans.ttf" font-size="10.00" fill="#000000">cstddef</text>
</g>
<!-- Node10&#45;&gt;Node11 -->
<g id="edge10" class="edge">
<title>Node10&#45;&gt;Node11</title>
<path fill="none" stroke="#191970" d="M1442.3016,-56.3733C1467.4128,-47.1822 1505.4438,-33.2624 1533.2872,-23.0713"/>
<polygon fill="#191970" stroke="#191970" points="1534.8538,-26.2251 1543.0416,-19.5011 1532.4478,-19.6516 1534.8538,-26.2251"/>
</g>
<!-- Node17&#45;&gt;Node11 -->
<g id="edge15" class="edge">
<title>Node17&#45;&gt;Node11</title>
<path fill="none" stroke="#191970" d="M1863.1093,-112.4374C1828.009,-104.5698 1779.1643,-92.1037 1738,-76 1720.2264,-69.0469 1717.4952,-63.6266 1700,-56 1668.651,-42.3342 1631.8142,-29.6873 1605.2008,-21.1272"/>
<polygon fill="#191970" stroke="#191970" points="1606.1247,-17.7483 1595.5343,-18.0529 1604.0032,-24.4191 1606.1247,-17.7483"/>
</g>
<!-- Node17&#45;&gt;Node12 -->
<g id="edge12" class="edge">
<title>Node17&#45;&gt;Node12</title>
<path fill="none" stroke="#191970" d="M1865.9408,-112.4371C1824.3787,-103.3397 1760.3657,-89.1304 1705,-76 1703.7463,-75.7027 1702.4712,-75.3977 1701.1838,-75.0877"/>
<polygon fill="#191970" stroke="#191970" points="1701.773,-71.6287 1691.2278,-72.6536 1700.1105,-78.4284 1701.773,-71.6287"/>
</g>
<!-- Node18 -->
<g id="node14" class="node">
<title>Node18</title>
<polygon fill="none" stroke="#bfbfbf" points="2111,-56.5 2111,-75.5 2175,-75.5 2175,-56.5 2111,-56.5"/>
<text text-anchor="middle" x="2143" y="-63.5" font-family="FreeSans.ttf" font-size="10.00" fill="#000000">algorithm</text>
</g>
<!-- Node17&#45;&gt;Node18 -->
<g id="edge13" class="edge">
<title>Node17&#45;&gt;Node18</title>
<path fill="none" stroke="#191970" d="M1950.0945,-112.4443C1986.8203,-103.6803 2042.9647,-90.2542 2100.735,-76.2995"/>
<polygon fill="#191970" stroke="#191970" points="2101.8762,-79.6245 2110.7741,-73.8731 2100.2317,-72.8205 2101.8762,-79.6245"/>
</g>
<!-- Node19 -->
<g id="node15" class="node">
<title>Node19</title>
<polygon fill="none" stroke="#bfbfbf" points="1747,-56.5 1747,-75.5 1789,-75.5 1789,-56.5 1747,-56.5"/>
<text text-anchor="middle" x="1768" y="-63.5" font-family="FreeSans.ttf" font-size="10.00" fill="#000000">array</text>
</g>
<!-- Node17&#45;&gt;Node19 -->
<g id="edge14" class="edge">
<title>Node17&#45;&gt;Node19</title>
<path fill="none" stroke="#191970" d="M1885.5893,-112.3733C1861.542,-102.8898 1824.7285,-88.3718 1798.7079,-78.1102"/>
<polygon fill="#191970" stroke="#191970" points="1799.8996,-74.8179 1789.3128,-74.4051 1797.3315,-81.3298 1799.8996,-74.8179"/>
</g>
<!-- Node20 -->
<g id="node16" class="node">
<title>Node20</title>
<polygon fill="none" stroke="#bfbfbf" points="1956.5,-56.5 1956.5,-75.5 2009.5,-75.5 2009.5,-56.5 1956.5,-56.5"/>
<text text-anchor="middle" x="1983" y="-63.5" font-family="FreeSans.ttf" font-size="10.00" fill="#000000">iterator</text>
</g>
<!-- Node17&#45;&gt;Node20 -->
<g id="edge16" class="edge">
<title>Node17&#45;&gt;Node20</title>
<path fill="none" stroke="#191970" d="M1922.7156,-112.2455C1933.602,-103.8943 1949.4883,-91.7076 1962.22,-81.9408"/>
<polygon fill="#191970" stroke="#191970" points="1964.6261,-84.5063 1970.4301,-75.6427 1960.3654,-78.9523 1964.6261,-84.5063"/>
</g>
<!-- Node21 -->
<g id="node17" class="node">
<title>Node21</title>
<polygon fill="none" stroke="#bfbfbf" points="1807,-56.5 1807,-75.5 1851,-75.5 1851,-56.5 1807,-56.5"/>
<text text-anchor="middle" x="1829" y="-63.5" font-family="FreeSans.ttf" font-size="10.00" fill="#000000">limits</text>
</g>
<!-- Node17&#45;&gt;Node21 -->
<g id="edge17" class="edge">
<title>Node17&#45;&gt;Node21</title>
<path fill="none" stroke="#191970" d="M1895.8909,-112.2455C1883.5791,-103.7337 1865.5042,-91.2375 1851.2462,-81.3801"/>
<polygon fill="#191970" stroke="#191970" points="1853.1634,-78.4506 1842.9474,-75.6427 1849.1826,-84.2085 1853.1634,-78.4506"/>
</g>
<!-- Node22 -->
<g id="node18" class="node">
<title>Node22</title>
<polygon fill="none" stroke="#bfbfbf" points="2027.5,-56.5 2027.5,-75.5 2092.5,-75.5 2092.5,-56.5 2027.5,-56.5"/>
<text text-anchor="middle" x="2060" y="-63.5" font-family="FreeSans.ttf" font-size="10.00" fill="#000000">stdexcept</text>
</g>
<!-- Node17&#45;&gt;Node22 -->
<g id="edge18" class="edge">
<title>Node17&#45;&gt;Node22</title>
<path fill="none" stroke="#191970" d="M1935.7859,-112.3733C1960.4047,-103.1822 1997.69,-89.2624 2024.9875,-79.0713"/>
<polygon fill="#191970" stroke="#191970" points="2026.4063,-82.2777 2034.5506,-75.5011 2023.958,-75.7198 2026.4063,-82.2777"/>
</g>
<!-- Node23 -->
<g id="node19" class="node">
<title>Node23</title>
<polygon fill="none" stroke="#bfbfbf" points="1869.5,-56.5 1869.5,-75.5 1938.5,-75.5 1938.5,-56.5 1869.5,-56.5"/>
<text text-anchor="middle" x="1904" y="-63.5" font-family="FreeSans.ttf" font-size="10.00" fill="#000000">type_traits</text>
</g>
<!-- Node17&#45;&gt;Node23 -->
<g id="edge19" class="edge">
<title>Node17&#45;&gt;Node23</title>
<path fill="none" stroke="#191970" d="M1908.9549,-112.2455C1908.172,-104.9382 1907.0744,-94.6944 1906.1112,-85.7046"/>
<polygon fill="#191970" stroke="#191970" points="1909.5786,-85.2129 1905.0331,-75.6427 1902.6185,-85.9587 1909.5786,-85.2129"/>
</g>
<!-- Node48&#45;&gt;Node4 -->
<g id="edge57" class="edge">
<title>Node48&#45;&gt;Node4</title>
<path fill="none" stroke="#191970" d="M1108.7027,-358.3114C1089.8468,-341.2406 1047.7651,-306.1771 1005,-291 919.2228,-260.5581 658.4666,-322.129 597,-255 554.0799,-208.126 560.4403,-163.9875 597,-112 608.2637,-95.9831 658.6526,-81.4133 692.7468,-73.1376"/>
<polygon fill="#191970" stroke="#191970" points="693.8155,-76.4816 702.7433,-70.7767 692.2065,-69.669 693.8155,-76.4816"/>
</g>
<!-- Node36 -->
<g id="node27" class="node">
<title>Node36</title>
<g id="a_node27"><a xlink:href="Position_8h.html" target="_top" xlink:title="Position.h">
<polygon fill="none" stroke="#000000" points="1128.5,-297 1128.5,-316 1193.5,-316 1193.5,-297 1128.5,-297"/>
<text text-anchor="middle" x="1161" y="-304" font-family="FreeSans.ttf" font-size="10.00" fill="#000000">Position.h</text>
</a>
</g>
</g>
<!-- Node48&#45;&gt;Node36 -->
<g id="edge30" class="edge">
<title>Node48&#45;&gt;Node36</title>
<path fill="none" stroke="#191970" d="M1125.5625,-358.3906C1131.6908,-349.417 1140.9985,-335.7879 1148.5372,-324.7491"/>
<polygon fill="#191970" stroke="#191970" points="1151.5956,-326.4768 1154.345,-316.2449 1145.815,-322.529 1151.5956,-326.4768"/>
</g>
<!-- Node30 -->
<g id="node30" class="node">
<title>Node30</title>
<g id="a_node30"><a xlink:href="Rotation_8h.html" target="_top" xlink:title="iDynTree/Core/Rotation.h">
<polygon fill="none" stroke="#000000" points="1094.5,-235.5 1094.5,-254.5 1231.5,-254.5 1231.5,-235.5 1094.5,-235.5"/>
<text text-anchor="middle" x="1163" y="-242.5" font-family="FreeSans.ttf" font-size="10.00" fill="#000000">iDynTree/Core/Rotation.h</text>
</a>
</g>
</g>
<!-- Node48&#45;&gt;Node30 -->
<g id="edge52" class="edge">
<title>Node48&#45;&gt;Node30</title>
<path fill="none" stroke="#191970" d="M1153.7227,-358.4044C1171.8051,-351.4487 1192.3209,-340.0236 1203,-322 1215.0103,-301.7296 1197.414,-277.486 1181.9049,-261.6905"/>
<polygon fill="#191970" stroke="#191970" points="1184.2337,-259.0743 1174.5979,-254.6694 1179.3837,-264.1218 1184.2337,-259.0743"/>
</g>
<!-- Node9 -->
<g id="node32" class="node">
<title>Node9</title>
<g id="a_node32"><a xlink:href="MatrixFixSize_8h.html" target="_top" xlink:title="iDynTree/Core/MatrixFixSize.h">
<polygon fill="none" stroke="#000000" points="1441.5,-112.5 1441.5,-131.5 1602.5,-131.5 1602.5,-112.5 1441.5,-112.5"/>
<text text-anchor="middle" x="1522" y="-119.5" font-family="FreeSans.ttf" font-size="10.00" fill="#000000">iDynTree/Core/MatrixFixSize.h</text>
</a>
</g>
</g>
<!-- Node48&#45;&gt;Node9 -->
<g id="edge56" class="edge">
<title>Node48&#45;&gt;Node9</title>
<path fill="none" stroke="#191970" d="M1160.5632,-358.4907C1185.3639,-351.3608 1216.4976,-339.731 1240,-322 1308.1925,-270.5532 1284.4535,-216.1682 1355,-168 1379.5491,-151.2382 1410.0379,-140.5624 1438.2196,-133.7719"/>
<polygon fill="#191970" stroke="#191970" points="1439.1041,-137.1602 1448.0781,-131.5284 1437.5508,-130.3347 1439.1041,-137.1602"/>
</g>
<!-- Node49 -->
<g id="node35" class="node">
<title>Node49</title>
<g id="a_node35"><a xlink:href="TransformSemantics_8h.html" target="_top" xlink:title="iDynTree/Core/TransformSemantics.h">
<polygon fill="none" stroke="#000000" points="1073.5,-112.5 1073.5,-131.5 1270.5,-131.5 1270.5,-112.5 1073.5,-112.5"/>
<text text-anchor="middle" x="1172" y="-119.5" font-family="FreeSans.ttf" font-size="10.00" fill="#000000">iDynTree/Core/TransformSemantics.h</text>
</a>
</g>
</g>
<!-- Node48&#45;&gt;Node49 -->
<g id="edge53" class="edge">
<title>Node48&#45;&gt;Node49</title>
<path fill="none" stroke="#191970" d="M1156.8085,-358.3535C1177.3999,-351.3443 1201.8906,-339.8836 1218,-322 1239.0716,-298.6078 1235.8182,-286.0541 1241,-255 1247.364,-216.8606 1259.2452,-202.0914 1241,-168 1233.5485,-154.0767 1219.8151,-143.6399 1206.551,-136.258"/>
<polygon fill="#191970" stroke="#191970" points="1208.0215,-133.0787 1197.5262,-131.6302 1204.8274,-139.3075 1208.0215,-133.0787"/>
</g>
<!-- Node36&#45;&gt;Node4 -->
<g id="edge51" class="edge">
<title>Node36&#45;&gt;Node4</title>
<path fill="none" stroke="#191970" d="M1135.4328,-296.8845C1128.5588,-294.6267 1121.0687,-292.4571 1114,-291 1024.8552,-272.6247 775.2081,-314.1158 706,-255 657.5314,-213.5994 675.2082,-172.5929 695,-112 698.3045,-101.8832 704.431,-91.8432 710.2903,-83.7364"/>
<polygon fill="#191970" stroke="#191970" points="713.0811,-85.8488 716.3972,-75.7863 707.5298,-81.5846 713.0811,-85.8488"/>
</g>
<!-- Node37 -->
<g id="node28" class="node">
<title>Node37</title>
<g id="a_node28"><a xlink:href="PositionRaw_8h.html" target="_top" xlink:title="iDynTree/Core/PositionRaw.h">
<polygon fill="none" stroke="#000000" points="920,-235.5 920,-254.5 1076,-254.5 1076,-235.5 920,-235.5"/>
<text text-anchor="middle" x="998" y="-242.5" font-family="FreeSans.ttf" font-size="10.00" fill="#000000">iDynTree/Core/PositionRaw.h</text>
</a>
</g>
</g>
<!-- Node36&#45;&gt;Node37 -->
<g id="edge31" class="edge">
<title>Node36&#45;&gt;Node37</title>
<path fill="none" stroke="#191970" d="M1135.5313,-296.8906C1107.8995,-286.4652 1063.6131,-269.7559 1032.7872,-258.1252"/>
<polygon fill="#191970" stroke="#191970" points="1033.8817,-254.7974 1023.2899,-254.5419 1031.4106,-261.3467 1033.8817,-254.7974"/>
</g>
<!-- Node38 -->
<g id="node29" class="node">
<title>Node38</title>
<g id="a_node29"><a xlink:href="PositionSemantics_8h.html" target="_top" xlink:title="iDynTree/Core/PositionSemantics.h">
<polygon fill="none" stroke="#000000" points="714.5,-235.5 714.5,-254.5 901.5,-254.5 901.5,-235.5 714.5,-235.5"/>
<text text-anchor="middle" x="808" y="-242.5" font-family="FreeSans.ttf" font-size="10.00" fill="#000000">iDynTree/Core/PositionSemantics.h</text>
</a>
</g>
</g>
<!-- Node36&#45;&gt;Node38 -->
<g id="edge34" class="edge">
<title>Node36&#45;&gt;Node38</title>
<path fill="none" stroke="#191970" d="M1134.3821,-296.8538C1127.7837,-294.704 1120.6865,-292.593 1114,-291 1046.3202,-274.8758 968.8045,-263.2932 908.7256,-255.7837"/>
<polygon fill="#191970" stroke="#191970" points="908.832,-252.2704 898.4791,-254.5212 907.976,-259.2179 908.832,-252.2704"/>
</g>
<!-- Node36&#45;&gt;Node30 -->
<g id="edge36" class="edge">
<title>Node36&#45;&gt;Node30</title>
<path fill="none" stroke="#191970" d="M1161.3125,-296.8906C1161.5897,-288.3657 1162.0036,-275.6392 1162.3521,-264.9235"/>
<polygon fill="#191970" stroke="#191970" points="1165.8561,-264.8534 1162.6831,-254.7449 1158.8598,-264.6258 1165.8561,-264.8534"/>
</g>
<!-- Node37&#45;&gt;Node4 -->
<g id="edge33" class="edge">
<title>Node37&#45;&gt;Node4</title>
<path fill="none" stroke="#191970" d="M977.3834,-235.4169C959.0368,-226.639 931.6754,-212.9285 909,-199 888.9251,-186.6688 886.3737,-179.831 866,-168 832.6331,-148.6238 818.356,-154.4853 787,-132 767.9561,-118.3436 750.069,-98.2138 738.4483,-83.7794"/>
<polygon fill="#191970" stroke="#191970" points="740.9909,-81.3496 732.0682,-75.6367 735.4808,-85.6669 740.9909,-81.3496"/>
</g>
<!-- Node37&#45;&gt;Node16 -->
<g id="edge32" class="edge">
<title>Node37&#45;&gt;Node16</title>
<path fill="none" stroke="#191970" d="M1076.1955,-235.9744C1079.507,-235.6364 1082.7859,-235.31 1086,-235 1287.4764,-215.5701 1338.6059,-219.2654 1540,-199 1554.096,-197.5816 1569.0515,-195.9078 1583.5631,-194.194"/>
<polygon fill="#191970" stroke="#191970" points="1584.0087,-197.6657 1593.5227,-193.0037 1583.178,-190.7152 1584.0087,-197.6657"/>
</g>
<!-- Node38&#45;&gt;Node4 -->
<g id="edge35" class="edge">
<title>Node38&#45;&gt;Node4</title>
<path fill="none" stroke="#191970" d="M760.744,-235.4668C740.5882,-228.8095 718.989,-217.6342 707,-199 684.3062,-163.7275 702.4255,-112.302 715.1833,-84.8781"/>
<polygon fill="#191970" stroke="#191970" points="718.4591,-86.1468 719.714,-75.6265 712.1725,-83.068 718.4591,-86.1468"/>
</g>
<!-- Node30&#45;&gt;Node4 -->
<g id="edge37" class="edge">
<title>Node30&#45;&gt;Node4</title>
<path fill="none" stroke="#191970" d="M1126.6386,-235.4415C1093.8533,-226.6266 1044.4195,-212.8467 1002,-199 920.0591,-172.2527 896.4569,-171.8004 820,-132 805.1521,-124.2708 769.3578,-98.6211 746.1931,-81.6676"/>
<polygon fill="#191970" stroke="#191970" points="748.1346,-78.751 738.0034,-75.6513 743.9903,-84.3924 748.1346,-78.751"/>
</g>
<!-- Node30&#45;&gt;Node16 -->
<g id="edge50" class="edge">
<title>Node30&#45;&gt;Node16</title>
<path fill="none" stroke="#191970" d="M1231.759,-236.6098C1321.867,-225.6144 1480.0179,-206.3163 1578.8377,-194.2579"/>
<polygon fill="#191970" stroke="#191970" points="1579.3017,-197.7273 1588.8041,-193.0418 1578.4537,-190.7789 1579.3017,-197.7273"/>
</g>
<!-- Node31 -->
<g id="node31" class="node">
<title>Node31</title>
<g id="a_node31"><a xlink:href="RotationRaw_8h.html" target="_top" xlink:title="iDynTree/Core/RotationRaw.h">
<polygon fill="none" stroke="#000000" points="1074,-174 1074,-193 1232,-193 1232,-174 1074,-174"/>
<text text-anchor="middle" x="1153" y="-181" font-family="FreeSans.ttf" font-size="10.00" fill="#000000">iDynTree/Core/RotationRaw.h</text>
</a>
</g>
</g>
<!-- Node30&#45;&gt;Node31 -->
<g id="edge38" class="edge">
<title>Node30&#45;&gt;Node31</title>
<path fill="none" stroke="#191970" d="M1161.4375,-235.3906C1160.0513,-226.8657 1157.982,-214.1392 1156.2396,-203.4235"/>
<polygon fill="#191970" stroke="#191970" points="1159.6442,-202.5535 1154.5845,-193.2449 1152.7349,-203.677 1159.6442,-202.5535"/>
</g>
<!-- Node32 -->
<g id="node34" class="node">
<title>Node32</title>
<g id="a_node34"><a xlink:href="RotationSemantics_8h.html" target="_top" xlink:title="iDynTree/Core/RotationSemantics.h">
<polygon fill="none" stroke="#000000" points="829,-112.5 829,-131.5 1017,-131.5 1017,-112.5 829,-112.5"/>
<text text-anchor="middle" x="923" y="-119.5" font-family="FreeSans.ttf" font-size="10.00" fill="#000000">iDynTree/Core/RotationSemantics.h</text>
</a>
</g>
</g>
<!-- Node30&#45;&gt;Node32 -->
<g id="edge47" class="edge">
<title>Node30&#45;&gt;Node32</title>
<path fill="none" stroke="#191970" d="M1141.801,-235.4795C1121.8358,-226.4119 1091.1692,-212.2229 1065,-199 1023.8469,-178.2059 976.9829,-152.3609 948.7181,-136.5299"/>
<polygon fill="#191970" stroke="#191970" points="950.3138,-133.4118 939.8808,-131.5667 946.886,-139.5152 950.3138,-133.4118"/>
</g>
<!-- Node31&#45;&gt;Node4 -->
<g id="edge46" class="edge">
<title>Node31&#45;&gt;Node4</title>
<path fill="none" stroke="#191970" d="M1136.7902,-173.941C1105.2444,-155.4025 1037.6607,-116.0228 1026,-112 931.8701,-79.5259 813.3043,-69.9362 757.2213,-67.1358"/>
<polygon fill="#191970" stroke="#191970" points="757.3297,-63.6372 747.1797,-66.6746 757.0085,-70.6298 757.3297,-63.6372"/>
</g>
<!-- Node31&#45;&gt;Node9 -->
<g id="edge39" class="edge">
<title>Node31&#45;&gt;Node9</title>
<path fill="none" stroke="#191970" d="M1210.2514,-173.9581C1276.3344,-162.9443 1384.8816,-144.8531 1454.8797,-133.1867"/>
<polygon fill="#191970" stroke="#191970" points="1455.6294,-136.6101 1464.9179,-131.5137 1454.4786,-129.7054 1455.6294,-136.6101"/>
</g>
<!-- Node9&#45;&gt;Node4 -->
<g id="edge43" class="edge">
<title>Node9&#45;&gt;Node4</title>
<path fill="none" stroke="#191970" d="M1441.4757,-115.869C1424.1661,-114.5725 1405.975,-113.2261 1389,-112 1146.2382,-94.4649 853.448,-74.6443 757.297,-68.1699"/>
<polygon fill="#191970" stroke="#191970" points="757.283,-64.6611 747.0705,-67.4817 756.8129,-71.6453 757.283,-64.6611"/>
</g>
<!-- Node9&#45;&gt;Node10 -->
<g id="edge40" class="edge">
<title>Node9&#45;&gt;Node10</title>
<path fill="none" stroke="#191970" d="M1503.5362,-112.2455C1486.8926,-103.4527 1462.2007,-90.4079 1443.2808,-80.4125"/>
<polygon fill="#191970" stroke="#191970" points="1444.7291,-77.2193 1434.2522,-75.6427 1441.4592,-83.4086 1444.7291,-77.2193"/>
</g>
<!-- Node9&#45;&gt;Node12 -->
<g id="edge41" class="edge">
<title>Node9&#45;&gt;Node12</title>
<path fill="none" stroke="#191970" d="M1546.5826,-112.3733C1569.9496,-103.2226 1605.2862,-89.3844 1631.2784,-79.2057"/>
<polygon fill="#191970" stroke="#191970" points="1632.703,-82.4066 1640.7382,-75.5011 1630.1505,-75.8886 1632.703,-82.4066"/>
</g>
<!-- Node9&#45;&gt;Node15 -->
<g id="edge45" class="edge">
<title>Node9&#45;&gt;Node15</title>
<path fill="none" stroke="#191970" d="M1534.3673,-112.2455C1544.9554,-103.8943 1560.4064,-91.7076 1572.7893,-81.9408"/>
<polygon fill="#191970" stroke="#191970" points="1575.0903,-84.5837 1580.7745,-75.6427 1570.7553,-79.0875 1575.0903,-84.5837"/>
</g>
<!-- Node9&#45;&gt;Node13 -->
<g id="edge42" class="edge">
<title>Node9&#45;&gt;Node13</title>
<path fill="none" stroke="#191970" d="M1522,-112.2455C1522,-104.9382 1522,-94.6944 1522,-85.7046"/>
<polygon fill="#191970" stroke="#191970" points="1525.5001,-85.6426 1522,-75.6427 1518.5001,-85.6427 1525.5001,-85.6426"/>
</g>
<!-- Node9&#45;&gt;Node14 -->
<g id="edge44" class="edge">
<title>Node9&#45;&gt;Node14</title>
<path fill="none" stroke="#191970" d="M1602.6031,-118.2354C1749.5854,-111.0745 2056.8456,-94.663 2182.7036,-75.888"/>
<polygon fill="#191970" stroke="#191970" points="2183.54,-79.2999 2192.8804,-74.2992 2182.4602,-72.3837 2183.54,-79.2999"/>
</g>
<!-- Node32&#45;&gt;Node4 -->
<g id="edge48" class="edge">
<title>Node32&#45;&gt;Node4</title>
<path fill="none" stroke="#191970" d="M888.9626,-112.3733C852.0297,-101.9276 793.5005,-85.3739 757.2732,-75.1278"/>
<polygon fill="#191970" stroke="#191970" points="757.8143,-71.6436 747.2392,-72.2899 755.9091,-78.3793 757.8143,-71.6436"/>
</g>
<!-- Node32&#45;&gt;Node10 -->
<g id="edge49" class="edge">
<title>Node32&#45;&gt;Node10</title>
<path fill="none" stroke="#191970" d="M1006.91,-112.4686C1102.5865,-101.6007 1257.2527,-84.0321 1346.4781,-73.897"/>
<polygon fill="#191970" stroke="#191970" points="1346.9545,-77.3655 1356.4956,-72.7591 1346.1644,-70.4102 1346.9545,-77.3655"/>
</g>
<!-- Node49&#45;&gt;Node4 -->
<g id="edge54" class="edge">
<title>Node49&#45;&gt;Node4</title>
<path fill="none" stroke="#191970" d="M1095.9194,-112.4686C996.8325,-100.0551 827.9647,-78.8994 757.443,-70.0644"/>
<polygon fill="#191970" stroke="#191970" points="757.7401,-66.5744 747.3826,-68.8041 756.8699,-73.5201 757.7401,-66.5744"/>
</g>
<!-- Node49&#45;&gt;Node10 -->
<g id="edge55" class="edge">
<title>Node49&#45;&gt;Node10</title>
<path fill="none" stroke="#191970" d="M1213.6679,-112.4369C1255.4266,-102.8529 1319.7891,-88.0812 1364.6728,-77.78"/>
<polygon fill="#191970" stroke="#191970" points="1365.5404,-81.172 1374.504,-75.5237 1363.9745,-74.3494 1365.5404,-81.172"/>
</g>
<!-- Node50&#45;&gt;Node4 -->
<g id="edge61" class="edge">
<title>Node50&#45;&gt;Node4</title>
<path fill="none" stroke="#191970" d="M1047.3353,-422.9744C908.809,-411.7016 638.5886,-388.7578 596,-378 580.454,-374.0731 473.4164,-334.1901 463,-322 440.1014,-295.2022 444,-280.2487 444,-245 444,-245 444,-245 444,-183.5 444,-130.0767 619.0644,-87.7851 692.8342,-72.3355"/>
<polygon fill="#191970" stroke="#191970" points="693.8617,-75.6974 702.9504,-70.2526 692.45,-68.8412 693.8617,-75.6974"/>
</g>
<!-- Node50&#45;&gt;Node48 -->
<g id="edge63" class="edge">
<title>Node50&#45;&gt;Node48</title>
<path fill="none" stroke="#191970" d="M1127.4375,-419.8906C1126.0513,-411.3657 1123.982,-398.6392 1122.2396,-387.9235"/>
<polygon fill="#191970" stroke="#191970" points="1125.6442,-387.0535 1120.5845,-377.7449 1118.7349,-388.177 1125.6442,-387.0535"/>
</g>
<!-- Node50&#45;&gt;Node51 -->
<g id="edge60" class="edge">
<title>Node50&#45;&gt;Node51</title>
<path fill="none" stroke="#191970" d="M1171.8186,-419.9657C1213.0372,-410.6161 1277.3338,-395.5836 1341.3285,-378.3598"/>
<polygon fill="#191970" stroke="#191970" points="1342.442,-381.6843 1351.1783,-375.6904 1340.611,-374.928 1342.442,-381.6843"/>
</g>
<!-- Node50&#45;&gt;Node52 -->
<g id="edge62" class="edge">
<title>Node50&#45;&gt;Node52</title>
<path fill="none" stroke="#191970" d="M1157.2813,-419.8906C1189.5874,-408.9137 1242.3957,-390.9705 1276.6729,-379.3238"/>
<polygon fill="#191970" stroke="#191970" points="1277.9021,-382.6028 1286.2444,-376.0716 1275.65,-375.9749 1277.9021,-382.6028"/>
</g>
<!-- Node53&#45;&gt;Node1 -->
<g id="edge67" class="edge">
<title>Node53&#45;&gt;Node1</title>
<path fill="none" stroke="#191970" d="M1198.3679,-593.2629C1196.9636,-579.1953 1192.4531,-553.111 1178,-537 1164.0789,-521.4819 1143.9479,-510.9393 1125.0983,-503.9077"/>
<polygon fill="#191970" stroke="#191970" points="1125.9924,-500.5133 1115.3976,-500.5429 1123.6985,-507.1268 1125.9924,-500.5133"/>
</g>
<!-- Node53&#45;&gt;Node4 -->
<g id="edge78" class="edge">
<title>Node53&#45;&gt;Node4</title>
<path fill="none" stroke="#191970" d="M1110.908,-597.7645C899.8355,-584.6176 370.0379,-547.8856 199,-501 96.4056,-472.8764 0,-474.3792 0,-368 0,-368 0,-368 0,-183.5 0,-130.2997 46.1462,-130.5707 96,-112 152.1492,-91.0842 572.149,-72.3053 692.7248,-67.3009"/>
<polygon fill="#191970" stroke="#191970" points="692.9582,-70.7943 702.8056,-66.8857 692.6701,-63.8002 692.9582,-70.7943"/>
</g>
<!-- Node53&#45;&gt;Node52 -->
<g id="edge79" class="edge">
<title>Node53&#45;&gt;Node52</title>
<path fill="none" stroke="#191970" d="M1277.5256,-593.4654C1322.3465,-586.2308 1372.2845,-574.4983 1386,-557 1428.8198,-502.3704 1361.3123,-420.4169 1327.4769,-385.1457"/>
<polygon fill="#191970" stroke="#191970" points="1329.5682,-382.2803 1320.0626,-377.6009 1324.5754,-387.1867 1329.5682,-382.2803"/>
</g>
<!-- Node54 -->
<g id="node40" class="node">
<title>Node54</title>
<g id="a_node40"><a xlink:href="Sensors_8h.html" target="_top" xlink:title="iDynTree/Sensors/Sensors.h">
<polygon fill="none" stroke="#000000" points="1225.5,-537.5 1225.5,-556.5 1376.5,-556.5 1376.5,-537.5 1225.5,-537.5"/>
<text text-anchor="middle" x="1301" y="-544.5" font-family="FreeSans.ttf" font-size="10.00" fill="#000000">iDynTree/Sensors/Sensors.h</text>
</a>
</g>
</g>
<!-- Node53&#45;&gt;Node54 -->
<g id="edge68" class="edge">
<title>Node53&#45;&gt;Node54</title>
<path fill="none" stroke="#191970" d="M1216.767,-593.2455C1232.7095,-584.4928 1256.3259,-571.527 1274.4989,-561.5496"/>
<polygon fill="#191970" stroke="#191970" points="1276.3552,-564.5233 1283.4366,-556.6427 1272.9863,-558.3873 1276.3552,-564.5233"/>
</g>
<!-- Node56 -->
<g id="node42" class="node">
<title>Node56</title>
<polygon fill="none" stroke="#bfbfbf" points="1111,-537.5 1111,-556.5 1169,-556.5 1169,-537.5 1111,-537.5"/>
<text text-anchor="middle" x="1140" y="-544.5" font-family="FreeSans.ttf" font-size="10.00" fill="#000000">memory</text>
</g>
<!-- Node53&#45;&gt;Node56 -->
<g id="edge77" class="edge">
<title>Node53&#45;&gt;Node56</title>
<path fill="none" stroke="#191970" d="M1188.723,-593.2455C1180.1782,-585.1352 1167.8222,-573.4075 1157.6915,-563.7919"/>
<polygon fill="#191970" stroke="#191970" points="1159.8218,-560.9884 1150.1592,-556.6427 1155.0028,-566.0655 1159.8218,-560.9884"/>
</g>
<!-- Node54&#45;&gt;Node1 -->
<g id="edge75" class="edge">
<title>Node54&#45;&gt;Node1</title>
<path fill="none" stroke="#191970" d="M1262.2352,-537.4369C1223.6308,-527.9133 1164.2616,-513.2672 1122.5428,-502.9753"/>
<polygon fill="#191970" stroke="#191970" points="1123.1521,-499.5208 1112.6049,-500.5237 1121.4755,-506.317 1123.1521,-499.5208"/>
</g>
<!-- Node54&#45;&gt;Node3 -->
<g id="edge76" class="edge">
<title>Node54&#45;&gt;Node3</title>
<path fill="none" stroke="#191970" d="M1225.2814,-540.0251C1019.6217,-520.8286 463.8243,-467.1721 431,-445 411.1571,-431.5965 399.8442,-405.6053 394.0691,-387.5485"/>
<polygon fill="#191970" stroke="#191970" points="397.3741,-386.3788 391.224,-377.7517 390.6519,-388.3311 397.3741,-386.3788"/>
</g>
<!-- Node54&#45;&gt;Node4 -->
<g id="edge69" class="edge">
<title>Node54&#45;&gt;Node4</title>
<path fill="none" stroke="#191970" d="M1314.5441,-537.295C1354.0421,-507.8758 1463.0442,-418.0361 1410,-358 1367.0025,-309.3348 1182.7138,-338.8541 1120,-322 1085.9592,-312.8516 1081.1522,-299.7234 1047,-291 968.245,-270.8838 744.0753,-308.636 683,-255 635.2441,-213.061 654.2857,-168.1833 684,-112 689.6267,-101.3612 698.2259,-91.1894 706.0985,-83.1287"/>
<polygon fill="#191970" stroke="#191970" points="708.8687,-85.3165 713.5918,-75.8327 703.9854,-80.3012 708.8687,-85.3165"/>
</g>
<!-- Node54&#45;&gt;Node20 -->
<g id="edge71" class="edge">
<title>Node54&#45;&gt;Node20</title>
<path fill="none" stroke="#191970" d="M1376.6207,-542.2047C1501.6958,-532.1772 1738,-503.4471 1738,-429.5 1738,-429.5 1738,-429.5 1738,-368 1738,-217.7673 1918.5098,-269.0723 1980,-132 1986.4553,-117.6101 1986.8416,-99.638 1985.8161,-86.083"/>
<polygon fill="#191970" stroke="#191970" points="1989.2717,-85.481 1984.7249,-75.9114 1982.3117,-86.2277 1989.2717,-85.481"/>
</g>
<!-- Node54&#45;&gt;Node52 -->
<g id="edge70" class="edge">
<title>Node54&#45;&gt;Node52</title>
<path fill="none" stroke="#191970" d="M1301.4839,-537.3762C1302.9001,-509.2097 1307.058,-426.5126 1308.9908,-388.0713"/>
<polygon fill="#191970" stroke="#191970" points="1312.5071,-387.8346 1309.5137,-377.6714 1305.5159,-387.483 1312.5071,-387.8346"/>
</g>
<!-- Node55 -->
<g id="node41" class="node">
<title>Node55</title>
<g id="a_node41"><a xlink:href="VectorDynSize_8h.html" target="_top" xlink:title="iDynTree/Core/VectorDynSize.h">
<polygon fill="none" stroke="#000000" points="1363.5,-174 1363.5,-193 1530.5,-193 1530.5,-174 1363.5,-174"/>
<text text-anchor="middle" x="1447" y="-181" font-family="FreeSans.ttf" font-size="10.00" fill="#000000">iDynTree/Core/VectorDynSize.h</text>
</a>
</g>
</g>
<!-- Node54&#45;&gt;Node55 -->
<g id="edge72" class="edge">
<title>Node54&#45;&gt;Node55</title>
<path fill="none" stroke="#191970" d="M1350.1623,-537.4228C1386.5569,-529.2248 1431.701,-516.3334 1443,-501 1511.2253,-408.4147 1470.9069,-255.869 1453.6487,-202.5819"/>
<polygon fill="#191970" stroke="#191970" points="1456.946,-201.4061 1450.4531,-193.034 1450.3079,-203.6278 1456.946,-201.4061"/>
</g>
<!-- Node55&#45;&gt;Node4 -->
<g id="edge74" class="edge">
<title>Node55&#45;&gt;Node4</title>
<path fill="none" stroke="#191970" d="M1423.1031,-173.92C1398.04,-163.792 1357.5654,-147.2085 1323,-132 1303.7077,-123.5116 1300.374,-117.3986 1280,-112 1180.1446,-85.5407 860.293,-71.2028 757.2893,-67.186"/>
<polygon fill="#191970" stroke="#191970" points="757.3147,-63.6845 747.1878,-66.7983 757.0461,-70.6794 757.3147,-63.6845"/>
</g>
<!-- Node55&#45;&gt;Node17 -->
<g id="edge73" class="edge">
<title>Node55&#45;&gt;Node17</title>
<path fill="none" stroke="#191970" d="M1518.5822,-173.9918C1605.871,-162.3973 1752.4784,-142.9235 1839.3447,-131.3851"/>
<polygon fill="#191970" stroke="#191970" points="1839.9224,-134.8392 1849.3745,-130.0529 1839.0007,-127.9001 1839.9224,-134.8392"/>
</g>
<!-- Node57&#45;&gt;Node3 -->
<g id="edge86" class="edge">
<title>Node57&#45;&gt;Node3</title>
<path fill="none" stroke="#191970" d="M312.3315,-481.4412C325.3081,-473.1657 343.1808,-460.1599 355,-445 368.5617,-427.605 377.9508,-403.9548 383.3732,-387.4726"/>
<polygon fill="#191970" stroke="#191970" points="386.7493,-388.4022 386.3677,-377.8142 380.0632,-386.3292 386.7493,-388.4022"/>
</g>
<!-- Node57&#45;&gt;Node4 -->
<g id="edge81" class="edge">
<title>Node57&#45;&gt;Node4</title>
<path fill="none" stroke="#191970" d="M258.4846,-481.4698C186.9289,-462.1869 38,-416.2569 38,-368 38,-368 38,-368 38,-183.5 38,-170.3536 15.2922,-156.9813 154,-112 255.4084,-79.1145 587.4231,-69.0481 692.6815,-66.6444"/>
<polygon fill="#191970" stroke="#191970" points="692.7851,-70.1431 702.7055,-66.4233 692.6307,-63.1448 692.7851,-70.1431"/>
</g>
<!-- Node57&#45;&gt;Node16 -->
<g id="edge82" class="edge">
<title>Node57&#45;&gt;Node16</title>
<path fill="none" stroke="#191970" d="M383.5597,-488.0741C537.4361,-482.4044 850.1738,-468.3797 957,-445 995.061,-436.6701 1001.4706,-424.4674 1039,-414 1123.8911,-390.3228 1149.9256,-404.431 1234,-378 1254.4922,-371.5577 1257.984,-365.797 1278,-358 1325.9322,-339.3285 1340.3936,-341.4872 1388,-322 1483.7145,-282.8203 1592.1319,-224.8818 1640.8527,-198.0795"/>
<polygon fill="#191970" stroke="#191970" points="1642.7181,-201.0476 1649.7794,-193.149 1639.3337,-194.9201 1642.7181,-201.0476"/>
</g>
<!-- Node57&#45;&gt;Node10 -->
<g id="edge85" class="edge">
<title>Node57&#45;&gt;Node10</title>
<path fill="none" stroke="#191970" d="M383.7125,-487.9026C545.0563,-481.719 876.8821,-466.5611 925,-445 943.0703,-436.9029 939.2393,-422.7554 957,-414 1055.3207,-365.5311 1100.8063,-422.4682 1201,-378 1218.8927,-370.0588 1256.4552,-337.0279 1269,-322 1319.2375,-261.8188 1315.7665,-235.8698 1355,-168 1372.116,-138.3912 1392.6396,-104.3645 1404.9832,-84.0529"/>
<polygon fill="#191970" stroke="#191970" points="1407.9756,-85.8683 1410.1862,-75.5066 1401.9965,-82.2281 1407.9756,-85.8683"/>
</g>
<!-- Node58 -->
<g id="node44" class="node">
<title>Node58</title>
<g id="a_node44"><a xlink:href="MatrixDynSize_8h.html" target="_top" xlink:title="iDynTree/Core/MatrixDynSize.h">
<polygon fill="none" stroke="#000000" points="80.5,-358.5 80.5,-377.5 247.5,-377.5 247.5,-358.5 80.5,-358.5"/>
<text text-anchor="middle" x="164" y="-365.5" font-family="FreeSans.ttf" font-size="10.00" fill="#000000">iDynTree/Core/MatrixDynSize.h</text>
</a>
</g>
</g>
<!-- Node57&#45;&gt;Node58 -->
<g id="edge83" class="edge">
<title>Node57&#45;&gt;Node58</title>
<path fill="none" stroke="#191970" d="M245.9987,-481.449C223.7809,-474.7711 199.0727,-463.584 183,-445 169.3149,-429.1767 165.1815,-405.0126 164.0823,-387.9822"/>
<polygon fill="#191970" stroke="#191970" points="167.5645,-387.3967 163.726,-377.5217 160.5685,-387.6351 167.5645,-387.3967"/>
</g>
<!-- Node59 -->
<g id="node45" class="node">
<title>Node59</title>
<g id="a_node45"><a xlink:href="FreeFloatingMatrices_8h.html" target="_top" xlink:title="iDynTree/Model/FreeFloating\lMatrices.h">
<polygon fill="none" stroke="#000000" points="192,-414.5 192,-444.5 346,-444.5 346,-414.5 192,-414.5"/>
<text text-anchor="start" x="200" y="-432.5" font-family="FreeSans.ttf" font-size="10.00" fill="#000000">iDynTree/Model/FreeFloating</text>
<text text-anchor="middle" x="269" y="-421.5" font-family="FreeSans.ttf" font-size="10.00" fill="#000000">Matrices.h</text>
</a>
</g>
</g>
<!-- Node57&#45;&gt;Node59 -->
<g id="edge87" class="edge">
<title>Node57&#45;&gt;Node59</title>
<path fill="none" stroke="#191970" d="M291.7813,-481.3906C288.5331,-473.9922 283.8957,-463.4291 279.6517,-453.7623"/>
<polygon fill="#191970" stroke="#191970" points="282.8297,-452.2941 275.6049,-444.5446 276.4201,-455.108 282.8297,-452.2941"/>
</g>
<!-- Node60 -->
<g id="node46" class="node">
<title>Node60</title>
<g id="a_node46"><a xlink:href="LinkState_8h.html" target="_top" xlink:title="iDynTree/Model/LinkState.h">
<polygon fill="none" stroke="#000000" points="766.5,-420 766.5,-439 915.5,-439 915.5,-420 766.5,-420"/>
<text text-anchor="middle" x="841" y="-427" font-family="FreeSans.ttf" font-size="10.00" fill="#000000">iDynTree/Model/LinkState.h</text>
</a>
</g>
</g>
<!-- Node57&#45;&gt;Node60 -->
<g id="edge89" class="edge">
<title>Node57&#45;&gt;Node60</title>
<path fill="none" stroke="#191970" d="M383.7795,-484.4224C476.7235,-476.9484 627.5941,-463.3632 757,-445 765.4424,-443.802 774.3301,-442.3602 783.0371,-440.8445"/>
<polygon fill="#191970" stroke="#191970" points="783.9085,-444.2444 793.1378,-439.0416 782.6784,-437.3533 783.9085,-444.2444"/>
</g>
<!-- Node58&#45;&gt;Node4 -->
<g id="edge84" class="edge">
<title>Node58&#45;&gt;Node4</title>
<path fill="none" stroke="#191970" d="M150.25,-358.2336C125.5,-339.3939 76,-295.4127 76,-245 76,-245 76,-245 76,-183.5 76,-157.8658 .7373,-170.6677 227,-112 315.7174,-88.9964 596.7854,-72.6501 692.6211,-67.625"/>
<polygon fill="#191970" stroke="#191970" points="693.049,-71.1076 702.8545,-67.0947 692.6867,-64.117 693.049,-71.1076"/>
</g>
<!-- Node59&#45;&gt;Node58 -->
<g id="edge88" class="edge">
<title>Node59&#45;&gt;Node58</title>
<path fill="none" stroke="#191970" d="M243.3141,-414.4554C226.8703,-404.8241 205.6292,-392.3828 189.2677,-382.7996"/>
<polygon fill="#191970" stroke="#191970" points="190.669,-379.5643 180.2713,-377.5303 187.1312,-385.6045 190.669,-379.5643"/>
</g>
<!-- Node60&#45;&gt;Node3 -->
<g id="edge97" class="edge">
<title>Node60&#45;&gt;Node3</title>
<path fill="none" stroke="#191970" d="M791.7781,-419.9226C780.3803,-417.8424 768.2846,-415.7449 757,-414 729.2019,-409.7016 567.8817,-389.8374 468.2796,-377.6611"/>
<polygon fill="#191970" stroke="#191970" points="468.5946,-374.1736 458.2439,-376.4347 467.7454,-381.1219 468.5946,-374.1736"/>
</g>
<!-- Node60&#45;&gt;Node25 -->
<g id="edge91" class="edge">
<title>Node60&#45;&gt;Node25</title>
<path fill="none" stroke="#191970" d="M789.9334,-419.9766C779.067,-417.9783 767.6573,-415.9011 757,-414 664.2079,-397.4478 638.5158,-404.2914 548,-378 525.8062,-371.5535 521.5635,-366.3149 500,-358 463.8338,-344.0543 422.0838,-329.3728 392.6978,-319.2696"/>
<polygon fill="#191970" stroke="#191970" points="393.8267,-315.9567 383.2321,-316.0265 391.5579,-322.5788 393.8267,-315.9567"/>
</g>
<!-- Node60&#45;&gt;Node46 -->
<g id="edge92" class="edge">
<title>Node60&#45;&gt;Node46</title>
<path fill="none" stroke="#191970" d="M847.3559,-419.8484C860.8415,-399.3703 892.5094,-351.282 909.9513,-324.7962"/>
<polygon fill="#191970" stroke="#191970" points="913.0967,-326.3835 915.6736,-316.1068 907.2505,-322.5335 913.0967,-326.3835"/>
</g>
<!-- Node60&#45;&gt;Node47 -->
<g id="edge93" class="edge">
<title>Node60&#45;&gt;Node47</title>
<path fill="none" stroke="#191970" d="M791.3143,-419.9638C780.0479,-417.904 768.125,-415.8047 757,-414 643.1509,-395.5311 608.657,-416.6829 500,-378 483.8433,-372.2481 482.989,-364.2029 467,-358 390.1261,-328.177 365.8413,-338.2388 285,-322 278.7619,-320.7469 272.2375,-319.4284 265.745,-318.1113"/>
<polygon fill="#191970" stroke="#191970" points="266.1113,-314.6142 255.6145,-316.0522 264.717,-321.4739 266.1113,-314.6142"/>
</g>
<!-- Node60&#45;&gt;Node48 -->
<g id="edge90" class="edge">
<title>Node60&#45;&gt;Node48</title>
<path fill="none" stroke="#191970" d="M884.1325,-419.9581C933.1328,-409.1181 1013.1233,-391.4224 1065.9139,-379.7439"/>
<polygon fill="#191970" stroke="#191970" points="1066.7584,-383.1417 1075.7663,-377.5643 1065.2464,-376.307 1066.7584,-383.1417"/>
</g>
<!-- Node60&#45;&gt;Node52 -->
<g id="edge98" class="edge">
<title>Node60&#45;&gt;Node52</title>
<path fill="none" stroke="#191970" d="M913.5099,-419.9918C1016.4041,-406.4993 1200.6681,-382.3367 1276.2477,-372.4259"/>
<polygon fill="#191970" stroke="#191970" points="1276.7112,-375.8952 1286.1712,-371.1247 1275.801,-368.9546 1276.7112,-375.8952"/>
</g>
<!-- Node61 -->
<g id="node47" class="node">
<title>Node61</title>
<g id="a_node47"><a xlink:href="ArticulatedBodyInertia_8h.html" target="_top" xlink:title="iDynTree/Core/Articulated\lBodyInertia.h">
<polygon fill="none" stroke="#000000" points="715.5,-168.5 715.5,-198.5 856.5,-198.5 856.5,-168.5 715.5,-168.5"/>
<text text-anchor="start" x="723.5" y="-186.5" font-family="FreeSans.ttf" font-size="10.00" fill="#000000">iDynTree/Core/Articulated</text>
<text text-anchor="middle" x="786" y="-175.5" font-family="FreeSans.ttf" font-size="10.00" fill="#000000">BodyInertia.h</text>
</a>
</g>
</g>
<!-- Node60&#45;&gt;Node61 -->
<g id="edge94" class="edge">
<title>Node60&#45;&gt;Node61</title>
<path fill="none" stroke="#191970" d="M869.9794,-419.895C929.0788,-398.8672 1053.9588,-346.2071 1005,-291 916.1916,-190.8575 794.8084,-355.1425 706,-255 689.0845,-235.9257 713.1215,-216.8103 739.1575,-203.1496"/>
<polygon fill="#191970" stroke="#191970" points="740.9948,-206.1447 748.3863,-198.5541 737.8746,-199.8785 740.9948,-206.1447"/>
</g>
<!-- Node61&#45;&gt;Node4 -->
<g id="edge96" class="edge">
<title>Node61&#45;&gt;Node4</title>
<path fill="none" stroke="#191970" d="M773.4937,-168.4472C765.7038,-158.5438 755.8892,-145.045 749,-132 741.0928,-117.0275 734.7018,-98.8768 730.5089,-85.4022"/>
<polygon fill="#191970" stroke="#191970" points="733.842,-84.3316 727.6306,-75.7485 727.1338,-86.3317 733.842,-84.3316"/>
</g>
<!-- Node61&#45;&gt;Node9 -->
<g id="edge95" class="edge">
<title>Node61&#45;&gt;Node9</title>
<path fill="none" stroke="#191970" d="M856.5708,-177.6031C990.8373,-166.3838 1282.8803,-141.9808 1431.3793,-129.5722"/>
<polygon fill="#191970" stroke="#191970" points="1431.7107,-133.0568 1441.3845,-128.7362 1431.1278,-126.0812 1431.7107,-133.0568"/>
</g>
<!-- Node62&#45;&gt;Node4 -->
<g id="edge104" class="edge">
<title>Node62&#45;&gt;Node4</title>
<path fill="none" stroke="#191970" d="M1781.3174,-421.1488C1712.303,-402.5538 1558,-355.5001 1558,-306.5 1558,-306.5 1558,-306.5 1558,-245 1558,-209.8551 1565.3605,-192.3312 1540,-168 1478.2959,-108.8003 1431.3944,-161.1332 1351,-132 1333.7917,-125.7641 1332.5262,-117.2769 1315,-112 1209.1874,-80.1412 864.6157,-69.3438 757.2467,-66.7074"/>
<polygon fill="#191970" stroke="#191970" points="757.1236,-63.2035 747.043,-66.4641 756.9567,-70.2016 757.1236,-63.2035"/>
</g>
<!-- Node62&#45;&gt;Node18 -->
<g id="edge108" class="edge">
<title>Node62&#45;&gt;Node18</title>
<path fill="none" stroke="#191970" d="M1846.6354,-427.7672C1891.4552,-424.1218 1973.2881,-412.8396 2033,-378 2070.3534,-356.2057 2099,-349.7466 2099,-306.5 2099,-306.5 2099,-306.5 2099,-183.5 2099,-146.4993 2118.3719,-106.8689 2131.4081,-84.3889"/>
<polygon fill="#191970" stroke="#191970" points="2134.5396,-85.9729 2136.6959,-75.5998 2128.5415,-82.3642 2134.5396,-85.9729"/>
</g>
<!-- Node62&#45;&gt;Node22 -->
<g id="edge105" class="edge">
<title>Node62&#45;&gt;Node22</title>
<path fill="none" stroke="#191970" d="M1846.6757,-427.2712C1911.2473,-420.908 2049,-396.7564 2049,-306.5 2049,-306.5 2049,-306.5 2049,-183.5 2049,-148.9897 2053.762,-109.0252 2057.0196,-85.7236"/>
<polygon fill="#191970" stroke="#191970" points="2060.4988,-86.119 2058.4705,-75.7201 2053.5713,-85.1142 2060.4988,-86.119"/>
</g>
<!-- Node62&#45;&gt;Node15 -->
<g id="edge101" class="edge">
<title>Node62&#45;&gt;Node15</title>
<path fill="none" stroke="#191970" d="M1814,-419.9309C1814,-399.238 1814,-348.7813 1814,-306.5 1814,-306.5 1814,-306.5 1814,-245 1814,-209.154 1811.996,-196.3039 1790,-168 1768.3979,-140.2029 1677.1873,-100.0909 1626.8007,-79.4276"/>
<polygon fill="#191970" stroke="#191970" points="1627.8822,-76.0891 1617.3004,-75.5637 1625.2449,-82.5733 1627.8822,-76.0891"/>
</g>
<!-- Node62&#45;&gt;Node13 -->
<g id="edge107" class="edge">
<title>Node62&#45;&gt;Node13</title>
<path fill="none" stroke="#191970" d="M1808.8752,-419.9277C1798.5028,-399.6328 1776,-350.5296 1776,-306.5 1776,-306.5 1776,-306.5 1776,-245 1776,-209.7513 1777.9189,-196.3702 1757,-168 1728.3662,-129.1669 1707.9035,-132.0097 1664,-112 1644.7916,-103.2455 1592.5212,-87.0036 1557.0494,-76.3498"/>
<polygon fill="#191970" stroke="#191970" points="1557.6675,-72.8816 1547.084,-73.3707 1555.6626,-79.5883 1557.6675,-72.8816"/>
</g>
<!-- Node62&#45;&gt;Node14 -->
<g id="edge100" class="edge">
<title>Node62&#45;&gt;Node14</title>
<path fill="none" stroke="#191970" d="M1846.5607,-428.2231C1896.058,-425.1207 1992.0709,-414.4816 2064,-378 2106.2346,-356.5791 2143,-353.8563 2143,-306.5 2143,-306.5 2143,-306.5 2143,-183.5 2143,-141.3353 2178.6343,-103.1145 2202.3379,-82.3547"/>
<polygon fill="#191970" stroke="#191970" points="2204.7635,-84.8874 2210.1466,-75.762 2200.2478,-79.5387 2204.7635,-84.8874"/>
</g>
<!-- Node62&#45;&gt;Node51 -->
<g id="edge109" class="edge">
<title>Node62&#45;&gt;Node51</title>
<path fill="none" stroke="#191970" d="M1781.4366,-424.9277C1701.0006,-413.6336 1493.4598,-384.4926 1410.761,-372.8808"/>
<polygon fill="#191970" stroke="#191970" points="1411.0166,-369.3825 1400.6271,-371.4579 1410.0432,-376.3145 1411.0166,-369.3825"/>
</g>
<!-- Node62&#45;&gt;Node52 -->
<g id="edge102" class="edge">
<title>Node62&#45;&gt;Node52</title>
<path fill="none" stroke="#191970" d="M1781.4155,-428.0183C1705.9069,-424.1429 1513.1248,-411.7118 1343.5091,-377.7451"/>
<polygon fill="#191970" stroke="#191970" points="1344.1551,-374.3049 1333.6582,-375.7425 1342.7605,-381.1646 1344.1551,-374.3049"/>
</g>
<!-- Node63 -->
<g id="node49" class="node">
<title>Node63</title>
<polygon fill="none" stroke="#bfbfbf" points="1842,-358.5 1842,-377.5 1880,-377.5 1880,-358.5 1842,-358.5"/>
<text text-anchor="middle" x="1861" y="-365.5" font-family="FreeSans.ttf" font-size="10.00" fill="#000000">map</text>
</g>
<!-- Node62&#45;&gt;Node63 -->
<g id="edge103" class="edge">
<title>Node62&#45;&gt;Node63</title>
<path fill="none" stroke="#191970" d="M1821.3438,-419.8906C1828.2702,-410.8273 1838.826,-397.0149 1847.306,-385.9188"/>
<polygon fill="#191970" stroke="#191970" points="1850.2615,-387.8155 1853.5527,-377.7449 1844.6997,-383.565 1850.2615,-387.8155"/>
</g>
<!-- Node64 -->
<g id="node50" class="node">
<title>Node64</title>
<polygon fill="none" stroke="#bfbfbf" points="1898.5,-358.5 1898.5,-377.5 1955.5,-377.5 1955.5,-358.5 1898.5,-358.5"/>
<text text-anchor="middle" x="1927" y="-365.5" font-family="FreeSans.ttf" font-size="10.00" fill="#000000">typeinfo</text>
</g>
<!-- Node62&#45;&gt;Node64 -->
<g id="edge106" class="edge">
<title>Node62&#45;&gt;Node64</title>
<path fill="none" stroke="#191970" d="M1831.6563,-419.8906C1850.1486,-409.8262 1879.401,-393.9057 1900.6308,-382.3514"/>
<polygon fill="#191970" stroke="#191970" points="1902.3575,-385.3965 1909.4677,-377.5419 1899.0112,-379.2481 1902.3575,-385.3965"/>
</g>
</g>
</svg>
