<?xml version="1.0" encoding="UTF-8" standalone="no"?>
<!DOCTYPE svg PUBLIC "-//W3C//DTD SVG 1.1//EN"
 "http://www.w3.org/Graphics/SVG/1.1/DTD/svg11.dtd">
<!-- Generated by graphviz version 2.40.1 (20161225.0304)
 -->
<!-- Title: iKinConversions.h Pages: 1 -->
<svg width="180pt" height="84pt"
 viewBox="0.00 0.00 180.00 84.00" xmlns="http://www.w3.org/2000/svg" xmlns:xlink="http://www.w3.org/1999/xlink">
<g id="graph0" class="graph" transform="scale(1 1) rotate(0) translate(4 80)">
<title>iKinConversions.h</title>
<!-- Node0 -->
<g id="node1" class="node">
<title>Node0</title>
<polygon fill="#bfbfbf" stroke="#000000" points="17,-56.5 17,-75.5 121,-75.5 121,-56.5 17,-56.5"/>
<text text-anchor="middle" x="69" y="-63.5" font-family="FreeSans.ttf" font-size="10.00" fill="#000000">iKinConversions.h</text>
</g>
<!-- Node1 -->
<g id="node2" class="node">
<title>Node1</title>
<polygon fill="none" stroke="#bfbfbf" points="0,-.5 0,-19.5 44,-19.5 44,-.5 0,-.5"/>
<text text-anchor="middle" x="22" y="-7.5" font-family="FreeSans.ttf" font-size="10.00" fill="#000000">string</text>
</g>
<!-- Node0&#45;&gt;Node1 -->
<g id="edge1" class="edge">
<title>Node0&#45;&gt;Node1</title>
<path fill="none" stroke="#191970" d="M60.8132,-56.2455C54.1411,-48.2958 44.5521,-36.8706 36.5747,-27.3656"/>
<polygon fill="#191970" stroke="#191970" points="39.2026,-25.0524 30.093,-19.6427 33.8408,-29.5525 39.2026,-25.0524"/>
</g>
<!-- Node2 -->
<g id="node3" class="node">
<title>Node2</title>
<polygon fill="none" stroke="#bfbfbf" points="62,-.5 62,-19.5 172,-19.5 172,-.5 62,-.5"/>
<text text-anchor="middle" x="117" y="-7.5" font-family="FreeSans.ttf" font-size="10.00" fill="#000000">iCub/iKin/iKinFwd.h</text>
</g>
<!-- Node0&#45;&gt;Node2 -->
<g id="edge2" class="edge">
<title>Node0&#45;&gt;Node2</title>
<path fill="none" stroke="#191970" d="M77.361,-56.2455C84.175,-48.2958 93.9681,-36.8706 102.1152,-27.3656"/>
<polygon fill="#191970" stroke="#191970" points="104.8843,-29.513 108.7349,-19.6427 99.5695,-24.9575 104.8843,-29.513"/>
</g>
</g>
</svg>
