<?xml version="1.0" encoding="UTF-8" standalone="no"?>
<!DOCTYPE svg PUBLIC "-//W3C//DTD SVG 1.1//EN"
 "http://www.w3.org/Graphics/SVG/1.1/DTD/svg11.dtd">
<!-- Generated by graphviz version 2.40.1 (20161225.0304)
 -->
<!-- Title: InertialElement.h Pages: 1 -->
<svg width="236pt" height="84pt"
 viewBox="0.00 0.00 236.00 84.00" xmlns="http://www.w3.org/2000/svg" xmlns:xlink="http://www.w3.org/1999/xlink">
<g id="graph0" class="graph" transform="scale(1 1) rotate(0) translate(4 80)">
<title>InertialElement.h</title>
<!-- Node57 -->
<g id="node1" class="node">
<title>Node57</title>
<polygon fill="#bfbfbf" stroke="#000000" points="66.5,-56.5 66.5,-75.5 167.5,-75.5 167.5,-56.5 66.5,-56.5"/>
<text text-anchor="middle" x="117" y="-63.5" font-family="FreeSans.ttf" font-size="10.00" fill="#000000">InertialElement.h</text>
</g>
<!-- Node58 -->
<g id="node2" class="node">
<title>Node58</title>
<g id="a_node2"><a xlink:href="InertialElement_8cpp.html" target="_top" xlink:title="InertialElement.cpp">
<polygon fill="none" stroke="#000000" points="0,-.5 0,-19.5 112,-19.5 112,-.5 0,-.5"/>
<text text-anchor="middle" x="56" y="-7.5" font-family="FreeSans.ttf" font-size="10.00" fill="#000000">InertialElement.cpp</text>
</a>
</g>
</g>
<!-- Node57&#45;&gt;Node58 -->
<g id="edge1" class="edge">
<title>Node57&#45;&gt;Node58</title>
<path fill="none" stroke="#191970" d="M98.8751,-49.3607C88.322,-39.6727 75.3888,-27.7995 66.5036,-19.6427"/>
<polygon fill="#191970" stroke="#191970" points="96.6411,-52.0611 106.3746,-56.2455 101.375,-46.9045 96.6411,-52.0611"/>
</g>
<!-- Node59 -->
<g id="node3" class="node">
<title>Node59</title>
<g id="a_node3"><a xlink:href="LinkElement_8cpp.html" target="_top" xlink:title="LinkElement.cpp">
<polygon fill="none" stroke="#000000" points="130,-.5 130,-19.5 228,-19.5 228,-.5 130,-.5"/>
<text text-anchor="middle" x="179" y="-7.5" font-family="FreeSans.ttf" font-size="10.00" fill="#000000">LinkElement.cpp</text>
</a>
</g>
</g>
<!-- Node57&#45;&gt;Node59 -->
<g id="edge2" class="edge">
<title>Node57&#45;&gt;Node59</title>
<path fill="none" stroke="#191970" d="M135.4221,-49.3607C146.1481,-39.6727 159.2934,-27.7995 168.3242,-19.6427"/>
<polygon fill="#191970" stroke="#191970" points="132.8746,-46.9453 127.7996,-56.2455 137.5666,-52.14 132.8746,-46.9453"/>
</g>
</g>
</svg>
