<?xml version="1.0" encoding="UTF-8" standalone="no"?>
<!DOCTYPE svg PUBLIC "-//W3C//DTD SVG 1.1//EN"
 "http://www.w3.org/Graphics/SVG/1.1/DTD/svg11.dtd">
<!-- Generated by graphviz version 2.40.1 (20161225.0304)
 -->
<!-- Title: InertiaNonLinearParametrization.h Pages: 1 -->
<svg width="1092pt" height="420pt"
 viewBox="0.00 0.00 1092.00 420.00" xmlns="http://www.w3.org/2000/svg" xmlns:xlink="http://www.w3.org/1999/xlink">
<g id="graph0" class="graph" transform="scale(1 1) rotate(0) translate(4 416)">
<title>InertiaNonLinearParametrization.h</title>
<!-- Node0 -->
<g id="node1" class="node">
<title>Node0</title>
<polygon fill="#bfbfbf" stroke="#000000" points="620,-392.5 620,-411.5 804,-411.5 804,-392.5 620,-392.5"/>
<text text-anchor="middle" x="712" y="-399.5" font-family="FreeSans.ttf" font-size="10.00" fill="#000000">InertiaNonLinearParametrization.h</text>
</g>
<!-- Node1 -->
<g id="node2" class="node">
<title>Node1</title>
<g id="a_node2"><a xlink:href="VectorFixSize_8h.html" target="_top" xlink:title="iDynTree/Core/VectorFixSize.h">
<polygon fill="none" stroke="#000000" points="734.5,-112.5 734.5,-131.5 895.5,-131.5 895.5,-112.5 734.5,-112.5"/>
<text text-anchor="middle" x="815" y="-119.5" font-family="FreeSans.ttf" font-size="10.00" fill="#000000">iDynTree/Core/VectorFixSize.h</text>
</a>
</g>
</g>
<!-- Node0&#45;&gt;Node1 -->
<g id="edge1" class="edge">
<title>Node0&#45;&gt;Node1</title>
<path fill="none" stroke="#191970" d="M717.607,-392.4834C728.1774,-373.6141 750,-329.8343 750,-290 750,-290 750,-290 750,-234 750,-196.0918 778.1992,-159.5315 797.4502,-138.9893"/>
<polygon fill="#191970" stroke="#191970" points="800.0887,-141.2966 804.5566,-131.6899 795.0731,-136.4136 800.0887,-141.2966"/>
</g>
<!-- Node16 -->
<g id="node17" class="node">
<title>Node16</title>
<g id="a_node17"><a xlink:href="Rotation_8h.html" target="_top" xlink:title="iDynTree/Core/Rotation.h">
<polygon fill="none" stroke="#000000" points="448.5,-224.5 448.5,-243.5 585.5,-243.5 585.5,-224.5 448.5,-224.5"/>
<text text-anchor="middle" x="517" y="-231.5" font-family="FreeSans.ttf" font-size="10.00" fill="#000000">iDynTree/Core/Rotation.h</text>
</a>
</g>
</g>
<!-- Node0&#45;&gt;Node16 -->
<g id="edge18" class="edge">
<title>Node0&#45;&gt;Node16</title>
<path fill="none" stroke="#191970" d="M700.9572,-392.4862C669.0647,-365.0096 576.5291,-285.2866 536.1838,-250.5276"/>
<polygon fill="#191970" stroke="#191970" points="538.268,-247.7034 528.4074,-243.8279 533.699,-253.0066 538.268,-247.7034"/>
</g>
<!-- Node21 -->
<g id="node22" class="node">
<title>Node21</title>
<g id="a_node22"><a xlink:href="Transform_8h.html" target="_top" xlink:title="iDynTree/Core/Transform.h">
<polygon fill="none" stroke="#000000" points="381,-336.5 381,-355.5 527,-355.5 527,-336.5 381,-336.5"/>
<text text-anchor="middle" x="454" y="-343.5" font-family="FreeSans.ttf" font-size="10.00" fill="#000000">iDynTree/Core/Transform.h</text>
</a>
</g>
</g>
<!-- Node0&#45;&gt;Node21 -->
<g id="edge33" class="edge">
<title>Node0&#45;&gt;Node21</title>
<path fill="none" stroke="#191970" d="M667.9414,-392.4369C623.6011,-382.8127 555.1589,-367.957 507.6751,-357.6504"/>
<polygon fill="#191970" stroke="#191970" points="508.3918,-354.2245 497.8769,-355.5237 506.9069,-361.0653 508.3918,-354.2245"/>
</g>
<!-- Node2 -->
<g id="node3" class="node">
<title>Node2</title>
<g id="a_node3"><a xlink:href="Utils_8h.html" target="_top" xlink:title="iDynTree/Core/Utils.h">
<polygon fill="none" stroke="#000000" points="545.5,-56.5 545.5,-75.5 664.5,-75.5 664.5,-56.5 545.5,-56.5"/>
<text text-anchor="middle" x="605" y="-63.5" font-family="FreeSans.ttf" font-size="10.00" fill="#000000">iDynTree/Core/Utils.h</text>
</a>
</g>
</g>
<!-- Node1&#45;&gt;Node2 -->
<g id="edge2" class="edge">
<title>Node1&#45;&gt;Node2</title>
<path fill="none" stroke="#191970" d="M778.8997,-112.3733C743.3752,-102.9001 689.012,-88.4032 650.5381,-78.1435"/>
<polygon fill="#191970" stroke="#191970" points="651.1934,-74.696 640.6292,-75.5011 649.3897,-81.4596 651.1934,-74.696"/>
</g>
<!-- Node4 -->
<g id="node5" class="node">
<title>Node4</title>
<g id="a_node5"><a xlink:href="Span_8h.html" target="_top" xlink:title="iDynTree/Core/Span.h">
<polygon fill="none" stroke="#000000" points="682.5,-56.5 682.5,-75.5 803.5,-75.5 803.5,-56.5 682.5,-56.5"/>
<text text-anchor="middle" x="743" y="-63.5" font-family="FreeSans.ttf" font-size="10.00" fill="#000000">iDynTree/Core/Span.h</text>
</a>
</g>
</g>
<!-- Node1&#45;&gt;Node4 -->
<g id="edge4" class="edge">
<title>Node1&#45;&gt;Node4</title>
<path fill="none" stroke="#191970" d="M802.4586,-112.2455C791.7213,-103.8943 776.0527,-91.7076 763.4953,-81.9408"/>
<polygon fill="#191970" stroke="#191970" points="765.4401,-79.0194 755.3977,-75.6427 761.1425,-84.5449 765.4401,-79.0194"/>
</g>
<!-- Node5 -->
<g id="node6" class="node">
<title>Node5</title>
<polygon fill="none" stroke="#bfbfbf" points="1032,-.5 1032,-19.5 1084,-19.5 1084,-.5 1032,-.5"/>
<text text-anchor="middle" x="1058" y="-7.5" font-family="FreeSans.ttf" font-size="10.00" fill="#000000">cassert</text>
</g>
<!-- Node1&#45;&gt;Node5 -->
<g id="edge16" class="edge">
<title>Node1&#45;&gt;Node5</title>
<path fill="none" stroke="#191970" d="M817.505,-112.1947C821.78,-97.5477 831.9307,-70.165 851,-56 911.1248,-11.3384 944.3848,-36.4633 1021.5355,-20.0782"/>
<polygon fill="#191970" stroke="#191970" points="1022.7229,-23.3963 1031.6811,-17.7393 1021.1504,-16.5752 1022.7229,-23.3963"/>
</g>
<!-- Node13 -->
<g id="node14" class="node">
<title>Node13</title>
<polygon fill="none" stroke="#bfbfbf" points="243,-56.5 243,-75.5 287,-75.5 287,-56.5 243,-56.5"/>
<text text-anchor="middle" x="265" y="-63.5" font-family="FreeSans.ttf" font-size="10.00" fill="#000000">string</text>
</g>
<!-- Node1&#45;&gt;Node13 -->
<g id="edge14" class="edge">
<title>Node1&#45;&gt;Node13</title>
<path fill="none" stroke="#191970" d="M734.0515,-112.9633C730.9959,-112.6356 727.9705,-112.3135 725,-112 564.4825,-95.057 372.2797,-76.3458 297.2366,-69.1007"/>
<polygon fill="#191970" stroke="#191970" points="297.3223,-65.5928 287.0324,-68.1166 296.6502,-72.5605 297.3223,-65.5928"/>
</g>
<!-- Node14 -->
<g id="node15" class="node">
<title>Node14</title>
<polygon fill="none" stroke="#bfbfbf" points="928,-56.5 928,-75.5 984,-75.5 984,-56.5 928,-56.5"/>
<text text-anchor="middle" x="956" y="-63.5" font-family="FreeSans.ttf" font-size="10.00" fill="#000000">sstream</text>
</g>
<!-- Node1&#45;&gt;Node14 -->
<g id="edge15" class="edge">
<title>Node1&#45;&gt;Node14</title>
<path fill="none" stroke="#191970" d="M839.2388,-112.3733C862.2789,-103.2226 897.1214,-89.3844 922.7501,-79.2057"/>
<polygon fill="#191970" stroke="#191970" points="924.0756,-82.4452 932.0775,-75.5011 921.4918,-75.9395 924.0756,-82.4452"/>
</g>
<!-- Node15 -->
<g id="node16" class="node">
<title>Node15</title>
<polygon fill="none" stroke="#bfbfbf" points="860,-56.5 860,-75.5 910,-75.5 910,-56.5 860,-56.5"/>
<text text-anchor="middle" x="885" y="-63.5" font-family="FreeSans.ttf" font-size="10.00" fill="#000000">cstring</text>
</g>
<!-- Node1&#45;&gt;Node15 -->
<g id="edge17" class="edge">
<title>Node1&#45;&gt;Node15</title>
<path fill="none" stroke="#191970" d="M827.1931,-112.2455C837.6321,-103.8943 852.8655,-91.7076 865.074,-81.9408"/>
<polygon fill="#191970" stroke="#191970" points="867.3244,-84.6227 872.9467,-75.6427 862.9515,-79.1566 867.3244,-84.6227"/>
</g>
<!-- Node3 -->
<g id="node4" class="node">
<title>Node3</title>
<polygon fill="none" stroke="#bfbfbf" points="450.5,-.5 450.5,-19.5 503.5,-19.5 503.5,-.5 450.5,-.5"/>
<text text-anchor="middle" x="477" y="-7.5" font-family="FreeSans.ttf" font-size="10.00" fill="#000000">cstddef</text>
</g>
<!-- Node2&#45;&gt;Node3 -->
<g id="edge3" class="edge">
<title>Node2&#45;&gt;Node3</title>
<path fill="none" stroke="#191970" d="M582.996,-56.3733C562.3565,-47.3435 531.2842,-33.7494 508.1111,-23.6111"/>
<polygon fill="#191970" stroke="#191970" points="509.2813,-20.3028 498.7169,-19.5011 506.4755,-26.7159 509.2813,-20.3028"/>
</g>
<!-- Node4&#45;&gt;Node3 -->
<g id="edge8" class="edge">
<title>Node4&#45;&gt;Node3</title>
<path fill="none" stroke="#191970" d="M689.312,-56.4187C644.7355,-48.2013 579.4778,-35.5683 513.4281,-19.9692"/>
<polygon fill="#191970" stroke="#191970" points="514.2186,-16.5596 503.6797,-17.6463 512.596,-23.369 514.2186,-16.5596"/>
</g>
<!-- Node4&#45;&gt;Node5 -->
<g id="edge5" class="edge">
<title>Node4&#45;&gt;Node5</title>
<path fill="none" stroke="#191970" d="M803.6535,-56.8753C868.7068,-46.9496 968.8175,-31.2409 1021.7725,-20.0404"/>
<polygon fill="#191970" stroke="#191970" points="1022.6909,-23.4223 1031.7104,-17.8635 1021.193,-16.5844 1022.6909,-23.4223"/>
</g>
<!-- Node6 -->
<g id="node7" class="node">
<title>Node6</title>
<polygon fill="none" stroke="#bfbfbf" points="672,-.5 672,-19.5 736,-19.5 736,-.5 672,-.5"/>
<text text-anchor="middle" x="704" y="-7.5" font-family="FreeSans.ttf" font-size="10.00" fill="#000000">algorithm</text>
</g>
<!-- Node4&#45;&gt;Node6 -->
<g id="edge6" class="edge">
<title>Node4&#45;&gt;Node6</title>
<path fill="none" stroke="#191970" d="M736.2067,-56.2455C730.7822,-48.4564 723.0339,-37.3308 716.4967,-27.9439"/>
<polygon fill="#191970" stroke="#191970" points="719.3025,-25.8485 710.7154,-19.6427 713.5583,-29.849 719.3025,-25.8485"/>
</g>
<!-- Node7 -->
<g id="node8" class="node">
<title>Node7</title>
<polygon fill="none" stroke="#bfbfbf" points="754,-.5 754,-19.5 796,-19.5 796,-.5 754,-.5"/>
<text text-anchor="middle" x="775" y="-7.5" font-family="FreeSans.ttf" font-size="10.00" fill="#000000">array</text>
</g>
<!-- Node4&#45;&gt;Node7 -->
<g id="edge7" class="edge">
<title>Node4&#45;&gt;Node7</title>
<path fill="none" stroke="#191970" d="M748.574,-56.2455C752.9331,-48.617 759.1211,-37.7881 764.4133,-28.5267"/>
<polygon fill="#191970" stroke="#191970" points="767.5673,-30.0616 769.4899,-19.6427 761.4896,-26.5886 767.5673,-30.0616"/>
</g>
<!-- Node8 -->
<g id="node9" class="node">
<title>Node8</title>
<polygon fill="none" stroke="#bfbfbf" points="814.5,-.5 814.5,-19.5 867.5,-19.5 867.5,-.5 814.5,-.5"/>
<text text-anchor="middle" x="841" y="-7.5" font-family="FreeSans.ttf" font-size="10.00" fill="#000000">iterator</text>
</g>
<!-- Node4&#45;&gt;Node8 -->
<g id="edge9" class="edge">
<title>Node4&#45;&gt;Node8</title>
<path fill="none" stroke="#191970" d="M760.0703,-56.2455C775.247,-47.5731 797.6621,-34.7645 815.0563,-24.825"/>
<polygon fill="#191970" stroke="#191970" points="817.1794,-27.643 824.1253,-19.6427 813.7064,-21.5653 817.1794,-27.643"/>
</g>
<!-- Node9 -->
<g id="node10" class="node">
<title>Node9</title>
<polygon fill="none" stroke="#bfbfbf" points="886,-.5 886,-19.5 930,-19.5 930,-.5 886,-.5"/>
<text text-anchor="middle" x="908" y="-7.5" font-family="FreeSans.ttf" font-size="10.00" fill="#000000">limits</text>
</g>
<!-- Node4&#45;&gt;Node9 -->
<g id="edge10" class="edge">
<title>Node4&#45;&gt;Node9</title>
<path fill="none" stroke="#191970" d="M771.3645,-56.3733C800.5039,-46.4835 845.7756,-31.1186 876.1331,-20.8154"/>
<polygon fill="#191970" stroke="#191970" points="877.467,-24.0589 885.8116,-17.5306 875.2173,-17.4302 877.467,-24.0589"/>
</g>
<!-- Node10 -->
<g id="node11" class="node">
<title>Node10</title>
<polygon fill="none" stroke="#bfbfbf" points="948.5,-.5 948.5,-19.5 1013.5,-19.5 1013.5,-.5 948.5,-.5"/>
<text text-anchor="middle" x="981" y="-7.5" font-family="FreeSans.ttf" font-size="10.00" fill="#000000">stdexcept</text>
</g>
<!-- Node4&#45;&gt;Node10 -->
<g id="edge11" class="edge">
<title>Node4&#45;&gt;Node10</title>
<path fill="none" stroke="#191970" d="M783.9272,-56.4351C821.4936,-47.6465 878.9659,-34.1785 938.4866,-20.116"/>
<polygon fill="#191970" stroke="#191970" points="939.5164,-23.4691 948.4431,-17.7626 937.9062,-16.6568 939.5164,-23.4691"/>
</g>
<!-- Node11 -->
<g id="node12" class="node">
<title>Node11</title>
<polygon fill="none" stroke="#bfbfbf" points="521.5,-.5 521.5,-19.5 590.5,-19.5 590.5,-.5 521.5,-.5"/>
<text text-anchor="middle" x="556" y="-7.5" font-family="FreeSans.ttf" font-size="10.00" fill="#000000">type_traits</text>
</g>
<!-- Node4&#45;&gt;Node11 -->
<g id="edge12" class="edge">
<title>Node4&#45;&gt;Node11</title>
<path fill="none" stroke="#191970" d="M710.8536,-56.3733C679.4891,-46.9807 631.6335,-32.6496 597.4284,-22.4064"/>
<polygon fill="#191970" stroke="#191970" points="598.3107,-19.0171 587.727,-19.5011 596.3025,-25.7229 598.3107,-19.0171"/>
</g>
<!-- Node12 -->
<g id="node13" class="node">
<title>Node12</title>
<polygon fill="none" stroke="#bfbfbf" points="608.5,-.5 608.5,-19.5 653.5,-19.5 653.5,-.5 608.5,-.5"/>
<text text-anchor="middle" x="631" y="-7.5" font-family="FreeSans.ttf" font-size="10.00" fill="#000000">utility</text>
</g>
<!-- Node4&#45;&gt;Node12 -->
<g id="edge13" class="edge">
<title>Node4&#45;&gt;Node12</title>
<path fill="none" stroke="#191970" d="M723.7465,-56.3733C705.9288,-47.4644 679.2253,-34.1127 659.0406,-24.0203"/>
<polygon fill="#191970" stroke="#191970" points="660.5118,-20.8428 650.0022,-19.5011 657.3813,-27.1038 660.5118,-20.8428"/>
</g>
<!-- Node16&#45;&gt;Node1 -->
<g id="edge32" class="edge">
<title>Node16&#45;&gt;Node1</title>
<path fill="none" stroke="#191970" d="M519.7517,-224.1082C524.4047,-209.3481 535.3004,-181.8199 555,-168 569.5976,-157.7593 662.5007,-142.9738 733.128,-132.9512"/>
<polygon fill="#191970" stroke="#191970" points="733.9606,-136.3686 743.3748,-131.5082 732.9844,-129.437 733.9606,-136.3686"/>
</g>
<!-- Node16&#45;&gt;Node13 -->
<g id="edge19" class="edge">
<title>Node16&#45;&gt;Node13</title>
<path fill="none" stroke="#191970" d="M494.4736,-224.3411C435.6586,-199.1126 281.9304,-133.1039 281,-132 270.2077,-119.1957 266.4657,-100.2836 265.2729,-85.9824"/>
<polygon fill="#191970" stroke="#191970" points="268.7551,-85.5259 264.7768,-75.7064 261.7632,-85.8635 268.7551,-85.5259"/>
</g>
<!-- Node17 -->
<g id="node18" class="node">
<title>Node17</title>
<g id="a_node18"><a xlink:href="RotationRaw_8h.html" target="_top" xlink:title="iDynTree/Core/RotationRaw.h">
<polygon fill="none" stroke="#000000" points="564,-168.5 564,-187.5 722,-187.5 722,-168.5 564,-168.5"/>
<text text-anchor="middle" x="643" y="-175.5" font-family="FreeSans.ttf" font-size="10.00" fill="#000000">iDynTree/Core/RotationRaw.h</text>
</a>
</g>
</g>
<!-- Node16&#45;&gt;Node17 -->
<g id="edge20" class="edge">
<title>Node16&#45;&gt;Node17</title>
<path fill="none" stroke="#191970" d="M538.6602,-224.3733C558.9772,-215.3435 589.564,-201.7494 612.375,-191.6111"/>
<polygon fill="#191970" stroke="#191970" points="613.9059,-194.7609 621.6225,-187.5011 611.0628,-188.3642 613.9059,-194.7609"/>
</g>
<!-- Node20 -->
<g id="node21" class="node">
<title>Node20</title>
<g id="a_node21"><a xlink:href="RotationSemantics_8h.html" target="_top" xlink:title="iDynTree/Core/RotationSemantics.h">
<polygon fill="none" stroke="#000000" points="528,-112.5 528,-131.5 716,-131.5 716,-112.5 528,-112.5"/>
<text text-anchor="middle" x="622" y="-119.5" font-family="FreeSans.ttf" font-size="10.00" fill="#000000">iDynTree/Core/RotationSemantics.h</text>
</a>
</g>
</g>
<!-- Node16&#45;&gt;Node20 -->
<g id="edge29" class="edge">
<title>Node16&#45;&gt;Node20</title>
<path fill="none" stroke="#191970" d="M514.938,-224.4931C512.5164,-210.7123 510.1909,-184.9817 522,-168 532.8626,-152.3795 550.4015,-141.9513 567.7806,-135.0394"/>
<polygon fill="#191970" stroke="#191970" points="569.1738,-138.2571 577.3758,-131.5506 566.7818,-131.6785 569.1738,-138.2571"/>
</g>
<!-- Node17&#45;&gt;Node13 -->
<g id="edge28" class="edge">
<title>Node17&#45;&gt;Node13</title>
<path fill="none" stroke="#191970" d="M563.652,-175.2612C476.7923,-170.8905 344.3508,-159.7727 303,-132 286.5909,-120.9791 276.3877,-100.3217 270.7382,-85.0416"/>
<polygon fill="#191970" stroke="#191970" points="274.0372,-83.8709 267.5342,-75.5066 267.4018,-86.1006 274.0372,-83.8709"/>
</g>
<!-- Node18 -->
<g id="node19" class="node">
<title>Node18</title>
<g id="a_node19"><a xlink:href="MatrixFixSize_8h.html" target="_top" xlink:title="iDynTree/Core/MatrixFixSize.h">
<polygon fill="none" stroke="#000000" points="913.5,-112.5 913.5,-131.5 1074.5,-131.5 1074.5,-112.5 913.5,-112.5"/>
<text text-anchor="middle" x="994" y="-119.5" font-family="FreeSans.ttf" font-size="10.00" fill="#000000">iDynTree/Core/MatrixFixSize.h</text>
</a>
</g>
</g>
<!-- Node17&#45;&gt;Node18 -->
<g id="edge21" class="edge">
<title>Node17&#45;&gt;Node18</title>
<path fill="none" stroke="#191970" d="M702.9402,-168.4369C764.2732,-158.6516 859.5028,-143.4582 924.1962,-133.1368"/>
<polygon fill="#191970" stroke="#191970" points="924.9833,-136.5556 934.307,-131.5237 923.8804,-129.643 924.9833,-136.5556"/>
</g>
<!-- Node18&#45;&gt;Node2 -->
<g id="edge22" class="edge">
<title>Node18&#45;&gt;Node2</title>
<path fill="none" stroke="#191970" d="M927.4997,-112.4634C864.9855,-103.4932 768.503,-89.6356 674.7772,-76.111"/>
<polygon fill="#191970" stroke="#191970" points="675.2359,-72.641 664.8385,-74.6766 674.236,-79.5692 675.2359,-72.641"/>
</g>
<!-- Node18&#45;&gt;Node5 -->
<g id="edge23" class="edge">
<title>Node18&#45;&gt;Node5</title>
<path fill="none" stroke="#191970" d="M1023.9458,-112.4983C1041.0054,-105.3713 1060.9324,-93.7417 1071,-76 1079.2556,-61.4515 1074.2034,-42.5217 1068.1506,-28.6678"/>
<polygon fill="#191970" stroke="#191970" points="1071.2663,-27.0716 1063.7424,-19.6123 1064.9724,-30.1355 1071.2663,-27.0716"/>
</g>
<!-- Node18&#45;&gt;Node13 -->
<g id="edge25" class="edge">
<title>Node18&#45;&gt;Node13</title>
<path fill="none" stroke="#191970" d="M913.4846,-112.8068C910.622,-112.5266 907.787,-112.2566 905,-112 672.1499,-90.5592 390.8604,-73.3522 297.1221,-67.8513"/>
<polygon fill="#191970" stroke="#191970" points="297.3206,-64.357 287.1335,-67.2679 296.9123,-71.3451 297.3206,-64.357"/>
</g>
<!-- Node18&#45;&gt;Node14 -->
<g id="edge27" class="edge">
<title>Node18&#45;&gt;Node14</title>
<path fill="none" stroke="#191970" d="M987.3809,-112.2455C982.0954,-104.4564 974.5459,-93.3308 968.1762,-83.9439"/>
<polygon fill="#191970" stroke="#191970" points="971.0545,-81.9522 962.5432,-75.6427 965.2621,-85.8827 971.0545,-81.9522"/>
</g>
<!-- Node18&#45;&gt;Node15 -->
<g id="edge24" class="edge">
<title>Node18&#45;&gt;Node15</title>
<path fill="none" stroke="#191970" d="M975.0136,-112.2455C957.8208,-103.4125 932.2762,-90.2887 912.7868,-80.2758"/>
<polygon fill="#191970" stroke="#191970" points="914.263,-77.0993 903.7688,-75.6427 911.0641,-83.3257 914.263,-77.0993"/>
</g>
<!-- Node19 -->
<g id="node20" class="node">
<title>Node19</title>
<polygon fill="none" stroke="#bfbfbf" points="1002,-56.5 1002,-75.5 1062,-75.5 1062,-56.5 1002,-56.5"/>
<text text-anchor="middle" x="1032" y="-63.5" font-family="FreeSans.ttf" font-size="10.00" fill="#000000">iostream</text>
</g>
<!-- Node18&#45;&gt;Node19 -->
<g id="edge26" class="edge">
<title>Node18&#45;&gt;Node19</title>
<path fill="none" stroke="#191970" d="M1000.6191,-112.2455C1005.9046,-104.4564 1013.4541,-93.3308 1019.8238,-83.9439"/>
<polygon fill="#191970" stroke="#191970" points="1022.7379,-85.8827 1025.4568,-75.6427 1016.9455,-81.9522 1022.7379,-85.8827"/>
</g>
<!-- Node20&#45;&gt;Node2 -->
<g id="edge31" class="edge">
<title>Node20&#45;&gt;Node2</title>
<path fill="none" stroke="#191970" d="M619.0388,-112.2455C616.7962,-104.8579 613.6423,-94.4689 610.8919,-85.4087"/>
<polygon fill="#191970" stroke="#191970" points="614.1812,-84.1948 607.9272,-75.6427 607.483,-86.2282 614.1812,-84.1948"/>
</g>
<!-- Node20&#45;&gt;Node13 -->
<g id="edge30" class="edge">
<title>Node20&#45;&gt;Node13</title>
<path fill="none" stroke="#191970" d="M561.0351,-112.4369C484.5731,-100.4428 356.3143,-80.3238 296.9413,-71.0104"/>
<polygon fill="#191970" stroke="#191970" points="297.4396,-67.5458 287.0179,-69.4538 296.3547,-74.4613 297.4396,-67.5458"/>
</g>
<!-- Node21&#45;&gt;Node13 -->
<g id="edge47" class="edge">
<title>Node21&#45;&gt;Node13</title>
<path fill="none" stroke="#191970" d="M380.8049,-342.9855C252.3911,-335.6841 0,-311.4785 0,-234 0,-234 0,-234 0,-178 0,-127.9974 162.1019,-87.6995 232.7408,-72.5127"/>
<polygon fill="#191970" stroke="#191970" points="233.8015,-75.866 242.862,-70.3745 232.3545,-69.0171 233.8015,-75.866"/>
</g>
<!-- Node21&#45;&gt;Node16 -->
<g id="edge42" class="edge">
<title>Node21&#45;&gt;Node16</title>
<path fill="none" stroke="#191970" d="M459.3713,-336.4509C469.8325,-317.8533 493.0983,-276.4919 506.652,-252.3964"/>
<polygon fill="#191970" stroke="#191970" points="509.7901,-253.9566 511.6423,-243.5249 503.6891,-250.5247 509.7901,-253.9566"/>
</g>
<!-- Node21&#45;&gt;Node18 -->
<g id="edge46" class="edge">
<title>Node21&#45;&gt;Node18</title>
<path fill="none" stroke="#191970" d="M477.2031,-336.375C562.9697,-300.7977 862.2411,-176.6555 961.6342,-135.4258"/>
<polygon fill="#191970" stroke="#191970" points="962.9876,-138.6537 970.8833,-131.5891 960.3054,-132.1879 962.9876,-138.6537"/>
</g>
<!-- Node22 -->
<g id="node23" class="node">
<title>Node22</title>
<g id="a_node23"><a xlink:href="Position_8h.html" target="_top" xlink:title="iDynTree/Core/Position.h">
<polygon fill="none" stroke="#000000" points="212,-280.5 212,-299.5 348,-299.5 348,-280.5 212,-280.5"/>
<text text-anchor="middle" x="280" y="-287.5" font-family="FreeSans.ttf" font-size="10.00" fill="#000000">iDynTree/Core/Position.h</text>
</a>
</g>
</g>
<!-- Node21&#45;&gt;Node22 -->
<g id="edge34" class="edge">
<title>Node21&#45;&gt;Node22</title>
<path fill="none" stroke="#191970" d="M424.0883,-336.3733C395.1548,-327.0613 351.1389,-312.8953 319.3707,-302.671"/>
<polygon fill="#191970" stroke="#191970" points="320.1128,-299.2331 309.5213,-299.5011 317.9682,-305.8965 320.1128,-299.2331"/>
</g>
<!-- Node25 -->
<g id="node26" class="node">
<title>Node25</title>
<g id="a_node26"><a xlink:href="TransformSemantics_8h.html" target="_top" xlink:title="iDynTree/Core/TransformSemantics.h">
<polygon fill="none" stroke="#000000" points="312.5,-112.5 312.5,-131.5 509.5,-131.5 509.5,-112.5 312.5,-112.5"/>
<text text-anchor="middle" x="411" y="-119.5" font-family="FreeSans.ttf" font-size="10.00" fill="#000000">iDynTree/Core/TransformSemantics.h</text>
</a>
</g>
</g>
<!-- Node21&#45;&gt;Node25 -->
<g id="edge43" class="edge">
<title>Node21&#45;&gt;Node25</title>
<path fill="none" stroke="#191970" d="M452.1523,-336.375C445.6329,-302.4133 423.6211,-187.7472 414.7508,-141.5392"/>
<polygon fill="#191970" stroke="#191970" points="418.1633,-140.75 412.8408,-131.5891 411.2888,-142.0697 418.1633,-140.75"/>
</g>
<!-- Node22&#45;&gt;Node13 -->
<g id="edge41" class="edge">
<title>Node22&#45;&gt;Node13</title>
<path fill="none" stroke="#191970" d="M272.0124,-280.4857C261.1044,-267.5543 240.8608,-243.7744 223,-224 208.2484,-207.6679 197.1308,-208.4508 189,-188 172.7077,-147.0213 215.1247,-104.4824 242.9597,-82.0647"/>
<polygon fill="#191970" stroke="#191970" points="245.3011,-84.6778 251.0488,-75.7775 241.0054,-79.1508 245.3011,-84.6778"/>
</g>
<!-- Node22&#45;&gt;Node16 -->
<g id="edge40" class="edge">
<title>Node22&#45;&gt;Node16</title>
<path fill="none" stroke="#191970" d="M320.4725,-280.4369C360.948,-270.8731 423.2867,-256.1432 466.8703,-245.845"/>
<polygon fill="#191970" stroke="#191970" points="467.7673,-249.2295 476.6945,-243.5237 466.1576,-242.4171 467.7673,-249.2295"/>
</g>
<!-- Node23 -->
<g id="node24" class="node">
<title>Node23</title>
<g id="a_node24"><a xlink:href="PositionRaw_8h.html" target="_top" xlink:title="iDynTree/Core/PositionRaw.h">
<polygon fill="none" stroke="#000000" points="198,-168.5 198,-187.5 354,-187.5 354,-168.5 198,-168.5"/>
<text text-anchor="middle" x="276" y="-175.5" font-family="FreeSans.ttf" font-size="10.00" fill="#000000">iDynTree/Core/PositionRaw.h</text>
</a>
</g>
</g>
<!-- Node22&#45;&gt;Node23 -->
<g id="edge35" class="edge">
<title>Node22&#45;&gt;Node23</title>
<path fill="none" stroke="#191970" d="M279.659,-280.4509C279.0066,-262.184 277.5698,-221.9553 276.7035,-197.6976"/>
<polygon fill="#191970" stroke="#191970" points="280.195,-197.3936 276.3402,-187.5249 273.1994,-197.6435 280.195,-197.3936"/>
</g>
<!-- Node24 -->
<g id="node25" class="node">
<title>Node24</title>
<g id="a_node25"><a xlink:href="PositionSemantics_8h.html" target="_top" xlink:title="iDynTree/Core/PositionSemantics.h">
<polygon fill="none" stroke="#000000" points="27.5,-224.5 27.5,-243.5 214.5,-243.5 214.5,-224.5 27.5,-224.5"/>
<text text-anchor="middle" x="121" y="-231.5" font-family="FreeSans.ttf" font-size="10.00" fill="#000000">iDynTree/Core/PositionSemantics.h</text>
</a>
</g>
</g>
<!-- Node22&#45;&gt;Node24 -->
<g id="edge38" class="edge">
<title>Node22&#45;&gt;Node24</title>
<path fill="none" stroke="#191970" d="M252.6669,-280.3733C226.4566,-271.1419 186.7016,-257.1402 157.7332,-246.9375"/>
<polygon fill="#191970" stroke="#191970" points="158.5712,-243.5219 147.9764,-243.5011 156.2458,-250.1244 158.5712,-243.5219"/>
</g>
<!-- Node23&#45;&gt;Node1 -->
<g id="edge36" class="edge">
<title>Node23&#45;&gt;Node1</title>
<path fill="none" stroke="#191970" d="M354.2932,-170.1839C441.7181,-161.4098 587.7297,-146.6174 723.8509,-132.1156"/>
<polygon fill="#191970" stroke="#191970" points="724.4783,-135.5686 734.0505,-131.0275 723.7357,-128.6081 724.4783,-135.5686"/>
</g>
<!-- Node23&#45;&gt;Node13 -->
<g id="edge37" class="edge">
<title>Node23&#45;&gt;Node13</title>
<path fill="none" stroke="#191970" d="M262.3664,-168.4516C251.8452,-160.1822 238.0909,-147.1795 232,-132 225.1257,-114.8682 236.445,-96.1122 247.6547,-82.9881"/>
<polygon fill="#191970" stroke="#191970" points="250.2523,-85.3341 254.4566,-75.6091 245.1054,-80.5897 250.2523,-85.3341"/>
</g>
<!-- Node24&#45;&gt;Node13 -->
<g id="edge39" class="edge">
<title>Node24&#45;&gt;Node13</title>
<path fill="none" stroke="#191970" d="M121.0731,-224.4506C121.7502,-202.0096 126.4695,-145.3038 156,-112 175.9125,-89.5431 208.6066,-77.7356 233.0029,-71.7369"/>
<polygon fill="#191970" stroke="#191970" points="233.904,-75.1217 242.8891,-69.5076 232.3641,-68.2932 233.904,-75.1217"/>
</g>
<!-- Node25&#45;&gt;Node2 -->
<g id="edge45" class="edge">
<title>Node25&#45;&gt;Node2</title>
<path fill="none" stroke="#191970" d="M444.3498,-112.3733C477.028,-102.9404 526.9618,-88.5265 562.477,-78.2747"/>
<polygon fill="#191970" stroke="#191970" points="563.4484,-81.6373 572.0854,-75.5011 561.507,-74.9119 563.4484,-81.6373"/>
</g>
<!-- Node25&#45;&gt;Node13 -->
<g id="edge44" class="edge">
<title>Node25&#45;&gt;Node13</title>
<path fill="none" stroke="#191970" d="M385.9017,-112.3733C361.3216,-102.9453 323.7687,-88.5414 297.0434,-78.2906"/>
<polygon fill="#191970" stroke="#191970" points="297.9707,-74.8977 287.3804,-74.5843 295.4638,-81.4334 297.9707,-74.8977"/>
</g>
</g>
</svg>
