<?xml version="1.0" encoding="UTF-8" standalone="no"?>
<!DOCTYPE svg PUBLIC "-//W3C//DTD SVG 1.1//EN"
 "http://www.w3.org/Graphics/SVG/1.1/DTD/svg11.dtd">
<!-- Generated by graphviz version 2.40.1 (20161225.0304)
 -->
<!-- Title: Graphical Class Hierarchy Pages: 1 -->
<svg width="445pt" height="142pt"
 viewBox="0.00 0.00 445.00 142.00" xmlns="http://www.w3.org/2000/svg" xmlns:xlink="http://www.w3.org/1999/xlink">
<g id="graph0" class="graph" transform="scale(1 1) rotate(0) translate(4 138)">
<title>Graphical Class Hierarchy</title>
<!-- Node0 -->
<g id="node1" class="node">
<title>Node0</title>
<g id="a_node1"><a xlink:href="classiDynTree_1_1VectorFixSize.html" target="_top" xlink:title="Class providing a simple vector of N elements. ">
<polygon fill="none" stroke="#000000" points="0,-52 0,-82 130,-82 130,-52 0,-52"/>
<text text-anchor="start" x="8" y="-70" font-family="FreeSans.ttf" font-size="10.00" fill="#000000">iDynTree::VectorFixSize</text>
<text text-anchor="middle" x="65" y="-59" font-family="FreeSans.ttf" font-size="10.00" fill="#000000">&lt; VecSize &gt;</text>
</a>
</g>
</g>
<!-- Node1 -->
<g id="node2" class="node">
<title>Node1</title>
<g id="a_node2"><a xlink:href="classiDynTree_1_1ClassicalAcc.html" target="_top" xlink:title="Class representing a classical 6D acceleration, i.e. ">
<polygon fill="none" stroke="#000000" points="168.5,-114.5 168.5,-133.5 294.5,-133.5 294.5,-114.5 168.5,-114.5"/>
<text text-anchor="middle" x="231.5" y="-121.5" font-family="FreeSans.ttf" font-size="10.00" fill="#000000">iDynTree::ClassicalAcc</text>
</a>
</g>
</g>
<!-- Node0&#45;&gt;Node1 -->
<g id="edge1" class="edge">
<title>Node0&#45;&gt;Node1</title>
<path fill="none" stroke="#191970" d="M112.6933,-85.8114C129.4471,-92.1881 148.4644,-99.1677 166,-105 175.8869,-108.2884 186.7163,-111.5612 196.672,-114.4404"/>
<polygon fill="#191970" stroke="#191970" points="113.709,-82.4524 103.1188,-82.1397 111.2026,-88.9883 113.709,-82.4524"/>
</g>
<!-- Node2 -->
<g id="node3" class="node">
<title>Node2</title>
<g id="a_node3"><a xlink:href="classiDynTree_1_1Direction.html" target="_top" xlink:title="Class representing the coordinates of a direction in the 3D space. ">
<polygon fill="none" stroke="#000000" points="176.5,-76.5 176.5,-95.5 286.5,-95.5 286.5,-76.5 176.5,-76.5"/>
<text text-anchor="middle" x="231.5" y="-83.5" font-family="FreeSans.ttf" font-size="10.00" fill="#000000">iDynTree::Direction</text>
</a>
</g>
</g>
<!-- Node0&#45;&gt;Node2 -->
<g id="edge2" class="edge">
<title>Node0&#45;&gt;Node2</title>
<path fill="none" stroke="#191970" d="M140.4096,-75.6053C152.5016,-76.9852 164.8162,-78.3904 176.3208,-79.7033"/>
<polygon fill="#191970" stroke="#191970" points="140.6597,-72.1112 130.3273,-74.4548 139.866,-79.0661 140.6597,-72.1112"/>
</g>
<!-- Node3 -->
<g id="node4" class="node">
<title>Node3</title>
<g id="a_node4"><a xlink:href="classiDynTree_1_1GeomVector3.html" target="_top" xlink:title="Template class providing the raw coordinates and semantics for any geometric relation vector...">
<polygon fill="none" stroke="#000000" points="166,-38.5 166,-57.5 297,-57.5 297,-38.5 166,-38.5"/>
<text text-anchor="middle" x="231.5" y="-45.5" font-family="FreeSans.ttf" font-size="10.00" fill="#000000">iDynTree::GeomVector3</text>
</a>
</g>
</g>
<!-- Node0&#45;&gt;Node3 -->
<g id="edge3" class="edge">
<title>Node0&#45;&gt;Node3</title>
<path fill="none" stroke="#191970" d="M140.5399,-58.3798C148.975,-57.4173 157.5166,-56.4425 165.8143,-55.4957"/>
<polygon fill="#191970" stroke="#191970" points="139.866,-54.9339 130.3273,-59.5452 140.6597,-61.8888 139.866,-54.9339"/>
</g>
<!-- Node4 -->
<g id="node5" class="node">
<title>Node4</title>
<g id="a_node5"><a xlink:href="classiDynTree_1_1PositionRaw.html" target="_top" xlink:title="Class providing the raw coordinates for iDynTree::Position class. ">
<polygon fill="none" stroke="#000000" points="169,-.5 169,-19.5 294,-19.5 294,-.5 169,-.5"/>
<text text-anchor="middle" x="231.5" y="-7.5" font-family="FreeSans.ttf" font-size="10.00" fill="#000000">iDynTree::PositionRaw</text>
</a>
</g>
</g>
<!-- Node0&#45;&gt;Node4 -->
<g id="edge4" class="edge">
<title>Node0&#45;&gt;Node4</title>
<path fill="none" stroke="#191970" d="M112.6933,-48.1886C129.4471,-41.8119 148.4644,-34.8323 166,-29 175.8869,-25.7116 186.7163,-22.4388 196.672,-19.5596"/>
<polygon fill="#191970" stroke="#191970" points="111.2026,-45.0117 103.1188,-51.8603 113.709,-51.5476 111.2026,-45.0117"/>
</g>
<!-- Node5 -->
<g id="node6" class="node">
<title>Node5</title>
<g id="a_node6"><a xlink:href="classiDynTree_1_1Position.html" target="_top" xlink:title="Class representation the coordinates of the Position of a point with respect to another point...">
<polygon fill="none" stroke="#000000" points="333,-.5 333,-19.5 437,-19.5 437,-.5 333,-.5"/>
<text text-anchor="middle" x="385" y="-7.5" font-family="FreeSans.ttf" font-size="10.00" fill="#000000">iDynTree::Position</text>
</a>
</g>
</g>
<!-- Node4&#45;&gt;Node5 -->
<g id="edge5" class="edge">
<title>Node4&#45;&gt;Node5</title>
<path fill="none" stroke="#191970" d="M304.622,-10C314.1155,-10 323.6832,-10 332.7424,-10"/>
<polygon fill="#191970" stroke="#191970" points="304.3773,-6.5001 294.3772,-10 304.3772,-13.5001 304.3773,-6.5001"/>
</g>
</g>
</svg>
