<?xml version="1.0" encoding="UTF-8" standalone="no"?>
<!DOCTYPE svg PUBLIC "-//W3C//DTD SVG 1.1//EN"
 "http://www.w3.org/Graphics/SVG/1.1/DTD/svg11.dtd">
<!-- Generated by graphviz version 2.40.1 (20161225.0304)
 -->
<!-- Title: Graphical Class Hierarchy Pages: 1 -->
<svg width="264pt" height="66pt"
 viewBox="0.00 0.00 264.00 66.00" xmlns="http://www.w3.org/2000/svg" xmlns:xlink="http://www.w3.org/1999/xlink">
<g id="graph0" class="graph" transform="scale(1 1) rotate(0) translate(4 62)">
<title>Graphical Class Hierarchy</title>
<!-- Node0 -->
<g id="node1" class="node">
<title>Node0</title>
<g id="a_node1"><a xlink:href="classiDynTree_1_1ILight.html" target="_top" xlink:title="Interface to a light visualization. ">
<polygon fill="none" stroke="#000000" points="0,-19.5 0,-38.5 92,-38.5 92,-19.5 0,-19.5"/>
<text text-anchor="middle" x="46" y="-26.5" font-family="FreeSans.ttf" font-size="10.00" fill="#000000">iDynTree::ILight</text>
</a>
</g>
</g>
<!-- Node1 -->
<g id="node2" class="node">
<title>Node1</title>
<g id="a_node2"><a xlink:href="classiDynTree_1_1DummyLight.html" target="_top" xlink:title="Dummy light. ">
<polygon fill="none" stroke="#000000" points="128,-38.5 128,-57.5 256,-57.5 256,-38.5 128,-38.5"/>
<text text-anchor="middle" x="192" y="-45.5" font-family="FreeSans.ttf" font-size="10.00" fill="#000000">iDynTree::DummyLight</text>
</a>
</g>
</g>
<!-- Node0&#45;&gt;Node1 -->
<g id="edge1" class="edge">
<title>Node0&#45;&gt;Node1</title>
<path fill="none" stroke="#191970" d="M102.2679,-36.3225C110.6795,-37.4172 119.4043,-38.5526 127.9623,-39.6663"/>
<polygon fill="#191970" stroke="#191970" points="102.5634,-32.8316 92.1953,-35.0117 101.66,-39.773 102.5634,-32.8316"/>
</g>
<!-- Node2 -->
<g id="node3" class="node">
<title>Node2</title>
<g id="a_node3"><a xlink:href="classiDynTree_1_1Light.html" target="_top" xlink:title="iDynTree::Light">
<polygon fill="none" stroke="#000000" points="147.5,-.5 147.5,-19.5 236.5,-19.5 236.5,-.5 147.5,-.5"/>
<text text-anchor="middle" x="192" y="-7.5" font-family="FreeSans.ttf" font-size="10.00" fill="#000000">iDynTree::Light</text>
</a>
</g>
</g>
<!-- Node0&#45;&gt;Node2 -->
<g id="edge2" class="edge">
<title>Node0&#45;&gt;Node2</title>
<path fill="none" stroke="#191970" d="M102.2842,-21.6753C117.1289,-19.7435 132.9481,-17.6848 147.1035,-15.8427"/>
<polygon fill="#191970" stroke="#191970" points="101.66,-18.227 92.1953,-22.9883 102.5634,-25.1684 101.66,-18.227"/>
</g>
</g>
</svg>
