<?xml version="1.0" encoding="UTF-8" standalone="no"?>
<!DOCTYPE svg PUBLIC "-//W3C//DTD SVG 1.1//EN"
 "http://www.w3.org/Graphics/SVG/1.1/DTD/svg11.dtd">
<!-- Generated by graphviz version 2.40.1 (20161225.0304)
 -->
<!-- Title: Graphical Class Hierarchy Pages: 1 -->
<svg width="491pt" height="112pt"
 viewBox="0.00 0.00 491.00 112.00" xmlns="http://www.w3.org/2000/svg" xmlns:xlink="http://www.w3.org/1999/xlink">
<g id="graph0" class="graph" transform="scale(1 1) rotate(0) translate(4 108)">
<title>Graphical Class Hierarchy</title>
<!-- Node0 -->
<g id="node1" class="node">
<title>Node0</title>
<g id="a_node1"><a xlink:href="classiDynTree_1_1optimalcontrol_1_1Cost.html" target="_top" xlink:title="The Cost virtual class definition. ">
<polygon fill="none" stroke="#000000" points="0,-48.5 0,-78.5 137,-78.5 137,-48.5 0,-48.5"/>
<text text-anchor="start" x="8" y="-66.5" font-family="FreeSans.ttf" font-size="10.00" fill="#000000">iDynTree::optimalcontrol</text>
<text text-anchor="middle" x="68.5" y="-55.5" font-family="FreeSans.ttf" font-size="10.00" fill="#000000">::Cost</text>
</a>
</g>
</g>
<!-- Node1 -->
<g id="node2" class="node">
<title>Node1</title>
<g id="a_node2"><a xlink:href="classiDynTree_1_1optimalcontrol_1_1L2NormCost.html" target="_top" xlink:title="iDynTree::optimalcontrol\l::L2NormCost">
<polygon fill="none" stroke="#000000" points="173,-73.5 173,-103.5 310,-103.5 310,-73.5 173,-73.5"/>
<text text-anchor="start" x="181" y="-91.5" font-family="FreeSans.ttf" font-size="10.00" fill="#000000">iDynTree::optimalcontrol</text>
<text text-anchor="middle" x="241.5" y="-80.5" font-family="FreeSans.ttf" font-size="10.00" fill="#000000">::L2NormCost</text>
</a>
</g>
</g>
<!-- Node0&#45;&gt;Node1 -->
<g id="edge1" class="edge">
<title>Node0&#45;&gt;Node1</title>
<path fill="none" stroke="#191970" d="M147.316,-74.8896C155.8439,-76.1219 164.4721,-77.3688 172.8657,-78.5817"/>
<polygon fill="#191970" stroke="#191970" points="147.7691,-71.4188 137.3713,-73.4525 146.7679,-78.3468 147.7691,-71.4188"/>
</g>
<!-- Node2 -->
<g id="node3" class="node">
<title>Node2</title>
<g id="a_node3"><a xlink:href="classiDynTree_1_1optimalcontrol_1_1QuadraticLikeCost.html" target="_top" xlink:title="iDynTree::optimalcontrol\l::QuadraticLikeCost">
<polygon fill="none" stroke="#000000" points="173,-24.5 173,-54.5 310,-54.5 310,-24.5 173,-24.5"/>
<text text-anchor="start" x="181" y="-42.5" font-family="FreeSans.ttf" font-size="10.00" fill="#000000">iDynTree::optimalcontrol</text>
<text text-anchor="middle" x="241.5" y="-31.5" font-family="FreeSans.ttf" font-size="10.00" fill="#000000">::QuadraticLikeCost</text>
</a>
</g>
</g>
<!-- Node0&#45;&gt;Node2 -->
<g id="edge2" class="edge">
<title>Node0&#45;&gt;Node2</title>
<path fill="none" stroke="#191970" d="M147.316,-52.566C155.8439,-51.3829 164.4721,-50.1859 172.8657,-49.0215"/>
<polygon fill="#191970" stroke="#191970" points="146.7954,-49.1046 137.3713,-53.9456 147.7574,-56.0382 146.7954,-49.1046"/>
</g>
<!-- Node3 -->
<g id="node4" class="node">
<title>Node3</title>
<g id="a_node4"><a xlink:href="classiDynTree_1_1optimalcontrol_1_1LinearCost.html" target="_top" xlink:title="iDynTree::optimalcontrol\l::LinearCost">
<polygon fill="none" stroke="#000000" points="346,-49.5 346,-79.5 483,-79.5 483,-49.5 346,-49.5"/>
<text text-anchor="start" x="354" y="-67.5" font-family="FreeSans.ttf" font-size="10.00" fill="#000000">iDynTree::optimalcontrol</text>
<text text-anchor="middle" x="414.5" y="-56.5" font-family="FreeSans.ttf" font-size="10.00" fill="#000000">::LinearCost</text>
</a>
</g>
</g>
<!-- Node2&#45;&gt;Node3 -->
<g id="edge3" class="edge">
<title>Node2&#45;&gt;Node3</title>
<path fill="none" stroke="#191970" d="M320.316,-50.8896C328.8439,-52.1219 337.4721,-53.3688 345.8657,-54.5817"/>
<polygon fill="#191970" stroke="#191970" points="320.7691,-47.4188 310.3713,-49.4525 319.7679,-54.3468 320.7691,-47.4188"/>
</g>
<!-- Node4 -->
<g id="node5" class="node">
<title>Node4</title>
<g id="a_node5"><a xlink:href="classiDynTree_1_1optimalcontrol_1_1QuadraticCost.html" target="_top" xlink:title="iDynTree::optimalcontrol\l::QuadraticCost">
<polygon fill="none" stroke="#000000" points="346,-.5 346,-30.5 483,-30.5 483,-.5 346,-.5"/>
<text text-anchor="start" x="354" y="-18.5" font-family="FreeSans.ttf" font-size="10.00" fill="#000000">iDynTree::optimalcontrol</text>
<text text-anchor="middle" x="414.5" y="-7.5" font-family="FreeSans.ttf" font-size="10.00" fill="#000000">::QuadraticCost</text>
</a>
</g>
</g>
<!-- Node2&#45;&gt;Node4 -->
<g id="edge4" class="edge">
<title>Node2&#45;&gt;Node4</title>
<path fill="none" stroke="#191970" d="M320.316,-28.566C328.8439,-27.3829 337.4721,-26.1859 345.8657,-25.0215"/>
<polygon fill="#191970" stroke="#191970" points="319.7954,-25.1046 310.3713,-29.9456 320.7574,-32.0382 319.7954,-25.1046"/>
</g>
</g>
</svg>
