<?xml version="1.0" encoding="UTF-8" standalone="no"?>
<!DOCTYPE svg PUBLIC "-//W3C//DTD SVG 1.1//EN"
 "http://www.w3.org/Graphics/SVG/1.1/DTD/svg11.dtd">
<!-- Generated by graphviz version 2.40.1 (20161225.0304)
 -->
<!-- Title: Graphical Class Hierarchy Pages: 1 -->
<svg width="294pt" height="66pt"
 viewBox="0.00 0.00 294.00 66.00" xmlns="http://www.w3.org/2000/svg" xmlns:xlink="http://www.w3.org/1999/xlink">
<g id="graph0" class="graph" transform="scale(1 1) rotate(0) translate(4 62)">
<title>Graphical Class Hierarchy</title>
<!-- Node0 -->
<g id="node1" class="node">
<title>Node0</title>
<g id="a_node1"><a xlink:href="classiDynTree_1_1ICamera.html" target="_top" xlink:title="Interface to manipulate the camera parameters. ">
<polygon fill="none" stroke="#000000" points="0,-19.5 0,-38.5 107,-38.5 107,-19.5 0,-19.5"/>
<text text-anchor="middle" x="53.5" y="-26.5" font-family="FreeSans.ttf" font-size="10.00" fill="#000000">iDynTree::ICamera</text>
</a>
</g>
</g>
<!-- Node1 -->
<g id="node2" class="node">
<title>Node1</title>
<g id="a_node2"><a xlink:href="classiDynTree_1_1Camera.html" target="_top" xlink:title="iDynTree::Camera">
<polygon fill="none" stroke="#000000" points="162.5,-38.5 162.5,-57.5 266.5,-57.5 266.5,-38.5 162.5,-38.5"/>
<text text-anchor="middle" x="214.5" y="-45.5" font-family="FreeSans.ttf" font-size="10.00" fill="#000000">iDynTree::Camera</text>
</a>
</g>
</g>
<!-- Node0&#45;&gt;Node1 -->
<g id="edge1" class="edge">
<title>Node0&#45;&gt;Node1</title>
<path fill="none" stroke="#191970" d="M117.3271,-36.5324C132.3093,-38.3005 148.0973,-40.1637 162.4902,-41.8622"/>
<polygon fill="#191970" stroke="#191970" points="117.452,-33.0229 107.1107,-35.3267 116.6315,-39.9747 117.452,-33.0229"/>
</g>
<!-- Node2 -->
<g id="node3" class="node">
<title>Node2</title>
<g id="a_node3"><a xlink:href="classiDynTree_1_1DummyCamera.html" target="_top" xlink:title="Dummy camera. ">
<polygon fill="none" stroke="#000000" points="143,-.5 143,-19.5 286,-19.5 286,-.5 143,-.5"/>
<text text-anchor="middle" x="214.5" y="-7.5" font-family="FreeSans.ttf" font-size="10.00" fill="#000000">iDynTree::DummyCamera</text>
</a>
</g>
</g>
<!-- Node0&#45;&gt;Node2 -->
<g id="edge2" class="edge">
<title>Node0&#45;&gt;Node2</title>
<path fill="none" stroke="#191970" d="M117.2053,-21.482C125.6062,-20.4906 134.2626,-19.469 142.786,-18.4631"/>
<polygon fill="#191970" stroke="#191970" points="116.6315,-18.0253 107.1107,-22.6733 117.452,-24.9771 116.6315,-18.0253"/>
</g>
</g>
</svg>
