<?xml version="1.0" encoding="UTF-8" standalone="no"?>
<!DOCTYPE svg PUBLIC "-//W3C//DTD SVG 1.1//EN"
 "http://www.w3.org/Graphics/SVG/1.1/DTD/svg11.dtd">
<!-- Generated by graphviz version 2.40.1 (20161225.0304)
 -->
<!-- Title: Graphical Class Hierarchy Pages: 1 -->
<svg width="294pt" height="142pt"
 viewBox="0.00 0.00 294.00 142.00" xmlns="http://www.w3.org/2000/svg" xmlns:xlink="http://www.w3.org/1999/xlink">
<g id="graph0" class="graph" transform="scale(1 1) rotate(0) translate(4 138)">
<title>Graphical Class Hierarchy</title>
<!-- Node0 -->
<g id="node1" class="node">
<title>Node0</title>
<g id="a_node1"><a xlink:href="classiDynTree_1_1SolidShape.html" target="_top" xlink:title="iDynTree::SolidShape">
<polygon fill="none" stroke="#000000" points="0,-57.5 0,-76.5 119,-76.5 119,-57.5 0,-57.5"/>
<text text-anchor="middle" x="59.5" y="-64.5" font-family="FreeSans.ttf" font-size="10.00" fill="#000000">iDynTree::SolidShape</text>
</a>
</g>
</g>
<!-- Node1 -->
<g id="node2" class="node">
<title>Node1</title>
<g id="a_node2"><a xlink:href="classiDynTree_1_1Box.html" target="_top" xlink:title="Box, i.e. ">
<polygon fill="none" stroke="#000000" points="178.5,-114.5 178.5,-133.5 262.5,-133.5 262.5,-114.5 178.5,-114.5"/>
<text text-anchor="middle" x="220.5" y="-121.5" font-family="FreeSans.ttf" font-size="10.00" fill="#000000">iDynTree::Box</text>
</a>
</g>
</g>
<!-- Node0&#45;&gt;Node1 -->
<g id="edge1" class="edge">
<title>Node0&#45;&gt;Node1</title>
<path fill="none" stroke="#191970" d="M91.0484,-80.4414C109.5221,-88.0882 133.3963,-97.5878 155,-105 164.7435,-108.343 175.4293,-111.6082 185.2917,-114.4623"/>
<polygon fill="#191970" stroke="#191970" points="92.2324,-77.143 81.6558,-76.5209 89.536,-83.6028 92.2324,-77.143"/>
</g>
<!-- Node2 -->
<g id="node3" class="node">
<title>Node2</title>
<g id="a_node3"><a xlink:href="classiDynTree_1_1Cylinder.html" target="_top" xlink:title="iDynTree::Cylinder">
<polygon fill="none" stroke="#000000" points="167.5,-76.5 167.5,-95.5 273.5,-95.5 273.5,-76.5 167.5,-76.5"/>
<text text-anchor="middle" x="220.5" y="-83.5" font-family="FreeSans.ttf" font-size="10.00" fill="#000000">iDynTree::Cylinder</text>
</a>
</g>
</g>
<!-- Node0&#45;&gt;Node2 -->
<g id="edge2" class="edge">
<title>Node0&#45;&gt;Node2</title>
<path fill="none" stroke="#191970" d="M129.5329,-75.2648C142.2302,-76.7632 155.2808,-78.3033 167.3922,-79.7326"/>
<polygon fill="#191970" stroke="#191970" points="129.7918,-71.7711 119.4505,-74.0749 128.9713,-78.7229 129.7918,-71.7711"/>
</g>
<!-- Node3 -->
<g id="node4" class="node">
<title>Node3</title>
<g id="a_node4"><a xlink:href="classiDynTree_1_1ExternalMesh.html" target="_top" xlink:title="iDynTree::ExternalMesh">
<polygon fill="none" stroke="#000000" points="155,-38.5 155,-57.5 286,-57.5 286,-38.5 155,-38.5"/>
<text text-anchor="middle" x="220.5" y="-45.5" font-family="FreeSans.ttf" font-size="10.00" fill="#000000">iDynTree::ExternalMesh</text>
</a>
</g>
</g>
<!-- Node0&#45;&gt;Node3 -->
<g id="edge3" class="edge">
<title>Node0&#45;&gt;Node3</title>
<path fill="none" stroke="#191970" d="M129.5779,-58.7299C137.9635,-57.7403 146.5026,-56.7326 154.8228,-55.7507"/>
<polygon fill="#191970" stroke="#191970" points="128.9713,-55.2771 119.4505,-59.9251 129.7918,-62.2289 128.9713,-55.2771"/>
</g>
<!-- Node4 -->
<g id="node5" class="node">
<title>Node4</title>
<g id="a_node5"><a xlink:href="classiDynTree_1_1Sphere.html" target="_top" xlink:title="iDynTree::Sphere">
<polygon fill="none" stroke="#000000" points="171,-.5 171,-19.5 270,-19.5 270,-.5 171,-.5"/>
<text text-anchor="middle" x="220.5" y="-7.5" font-family="FreeSans.ttf" font-size="10.00" fill="#000000">iDynTree::Sphere</text>
</a>
</g>
</g>
<!-- Node0&#45;&gt;Node4 -->
<g id="edge4" class="edge">
<title>Node0&#45;&gt;Node4</title>
<path fill="none" stroke="#191970" d="M91.0484,-53.5586C109.5221,-45.9118 133.3963,-36.4122 155,-29 164.7435,-25.657 175.4293,-22.3918 185.2917,-19.5377"/>
<polygon fill="#191970" stroke="#191970" points="89.536,-50.3972 81.6558,-57.4791 92.2324,-56.857 89.536,-50.3972"/>
</g>
</g>
</svg>
