<?xml version="1.0" encoding="UTF-8" standalone="no"?>
<!DOCTYPE svg PUBLIC "-//W3C//DTD SVG 1.1//EN"
 "http://www.w3.org/Graphics/SVG/1.1/DTD/svg11.dtd">
<!-- Generated by graphviz version 2.40.1 (20161225.0304)
 -->
<!-- Title: Graphical Class Hierarchy Pages: 1 -->
<svg width="309pt" height="242pt"
 viewBox="0.00 0.00 309.00 242.00" xmlns="http://www.w3.org/2000/svg" xmlns:xlink="http://www.w3.org/1999/xlink">
<g id="graph0" class="graph" transform="scale(1 1) rotate(0) translate(4 238)">
<title>Graphical Class Hierarchy</title>
<!-- Node251 -->
<g id="node1" class="node">
<title>Node251</title>
<polygon fill="none" stroke="#bfbfbf" points="0,-104.5 0,-123.5 101,-123.5 101,-104.5 0,-104.5"/>
<text text-anchor="middle" x="50.5" y="-111.5" font-family="FreeSans.ttf" font-size="10.00" fill="#000000">integral_constant</text>
</g>
<!-- Node0 -->
<g id="node2" class="node">
<title>Node0</title>
<g id="a_node2"><a xlink:href="structiDynTree_1_1details_1_1calculate__byte__size.html" target="_top" xlink:title="iDynTree::details::\lcalculate_byte_size\l\&lt; ElementType, Extent \&gt;">
<polygon fill="none" stroke="#000000" points="149,-192.5 149,-233.5 289,-233.5 289,-192.5 149,-192.5"/>
<text text-anchor="start" x="157" y="-221.5" font-family="FreeSans.ttf" font-size="10.00" fill="#000000">iDynTree::details::</text>
<text text-anchor="start" x="157" y="-210.5" font-family="FreeSans.ttf" font-size="10.00" fill="#000000">calculate_byte_size</text>
<text text-anchor="middle" x="219" y="-199.5" font-family="FreeSans.ttf" font-size="10.00" fill="#000000">&lt; ElementType, Extent &gt;</text>
</a>
</g>
</g>
<!-- Node251&#45;&gt;Node0 -->
<g id="edge1" class="edge">
<title>Node251&#45;&gt;Node0</title>
<path fill="none" stroke="#191970" d="M67.6964,-130.52C84.3322,-145.7902 110.8077,-168.2793 137,-183 143.0788,-186.4165 149.6207,-189.5737 156.2628,-192.4547"/>
<polygon fill="#191970" stroke="#191970" points="70.0609,-127.9392 60.3645,-123.6693 65.2818,-133.0539 70.0609,-127.9392"/>
</g>
<!-- Node253 -->
<g id="node3" class="node">
<title>Node253</title>
<g id="a_node3"><a xlink:href="structiDynTree_1_1details_1_1calculate__byte__size_3_01ElementType_00_01dynamic__extent_01_4.html" target="_top" xlink:title="iDynTree::details::\lcalculate_byte_size\l\&lt; ElementType, dynamic\l_extent \&gt;">
<polygon fill="none" stroke="#000000" points="149.5,-121 149.5,-173 288.5,-173 288.5,-121 149.5,-121"/>
<text text-anchor="start" x="157.5" y="-161" font-family="FreeSans.ttf" font-size="10.00" fill="#000000">iDynTree::details::</text>
<text text-anchor="start" x="157.5" y="-150" font-family="FreeSans.ttf" font-size="10.00" fill="#000000">calculate_byte_size</text>
<text text-anchor="start" x="157.5" y="-139" font-family="FreeSans.ttf" font-size="10.00" fill="#000000">&lt; ElementType, dynamic</text>
<text text-anchor="middle" x="219" y="-128" font-family="FreeSans.ttf" font-size="10.00" fill="#000000">_extent &gt;</text>
</a>
</g>
</g>
<!-- Node251&#45;&gt;Node253 -->
<g id="edge2" class="edge">
<title>Node251&#45;&gt;Node253</title>
<path fill="none" stroke="#191970" d="M109.3805,-125.5315C122.2958,-128.0609 136.0882,-130.7621 149.3796,-133.3651"/>
<polygon fill="#191970" stroke="#191970" points="109.7235,-122.0322 99.2372,-123.545 108.378,-128.9017 109.7235,-122.0322"/>
</g>
<!-- Node254 -->
<g id="node4" class="node">
<title>Node254</title>
<g id="a_node4"><a xlink:href="structiDynTree_1_1details_1_1is__allowed__element__type__conversion.html" target="_top" xlink:title="iDynTree::details::\lis_allowed_element_type\l_conversion\&lt; From, To \&gt;">
<polygon fill="none" stroke="#000000" points="148.5,-60.5 148.5,-101.5 289.5,-101.5 289.5,-60.5 148.5,-60.5"/>
<text text-anchor="start" x="156.5" y="-89.5" font-family="FreeSans.ttf" font-size="10.00" fill="#000000">iDynTree::details::</text>
<text text-anchor="start" x="156.5" y="-78.5" font-family="FreeSans.ttf" font-size="10.00" fill="#000000">is_allowed_element_type</text>
<text text-anchor="middle" x="219" y="-67.5" font-family="FreeSans.ttf" font-size="10.00" fill="#000000">_conversion&lt; From, To &gt;</text>
</a>
</g>
</g>
<!-- Node251&#45;&gt;Node254 -->
<g id="edge3" class="edge">
<title>Node251&#45;&gt;Node254</title>
<path fill="none" stroke="#191970" d="M109.1876,-102.5063C121.8536,-100.0257 135.371,-97.3784 148.4371,-94.8194"/>
<polygon fill="#191970" stroke="#191970" points="108.378,-99.0983 99.2372,-104.455 109.7235,-105.9678 108.378,-99.0983"/>
</g>
<!-- Node255 -->
<g id="node5" class="node">
<title>Node255</title>
<g id="a_node5"><a xlink:href="structiDynTree_1_1details_1_1is__allowed__extent__conversion.html" target="_top" xlink:title="iDynTree::details::\lis_allowed_extent_conversion\l\&lt; From, To \&gt;">
<polygon fill="none" stroke="#000000" points="137,-.5 137,-41.5 301,-41.5 301,-.5 137,-.5"/>
<text text-anchor="start" x="145" y="-29.5" font-family="FreeSans.ttf" font-size="10.00" fill="#000000">iDynTree::details::</text>
<text text-anchor="start" x="145" y="-18.5" font-family="FreeSans.ttf" font-size="10.00" fill="#000000">is_allowed_extent_conversion</text>
<text text-anchor="middle" x="219" y="-7.5" font-family="FreeSans.ttf" font-size="10.00" fill="#000000">&lt; From, To &gt;</text>
</a>
</g>
</g>
<!-- Node251&#45;&gt;Node255 -->
<g id="edge4" class="edge">
<title>Node251&#45;&gt;Node255</title>
<path fill="none" stroke="#191970" d="M69.5335,-97.7217C86.4055,-83.9008 112.1545,-64.2557 137,-51 143.286,-47.6463 150.0278,-44.5128 156.8462,-41.6317"/>
<polygon fill="#191970" stroke="#191970" points="67.0151,-95.2642 61.5714,-104.3535 71.4952,-100.6428 67.0151,-95.2642"/>
</g>
</g>
</svg>
