<?xml version="1.0" encoding="UTF-8" standalone="no"?>
<!DOCTYPE svg PUBLIC "-//W3C//DTD SVG 1.1//EN"
 "http://www.w3.org/Graphics/SVG/1.1/DTD/svg11.dtd">
<!-- Generated by graphviz version 2.40.1 (20161225.0304)
 -->
<!-- Title: Graphical Class Hierarchy Pages: 1 -->
<svg width="354pt" height="88pt"
 viewBox="0.00 0.00 354.00 88.00" xmlns="http://www.w3.org/2000/svg" xmlns:xlink="http://www.w3.org/1999/xlink">
<g id="graph0" class="graph" transform="scale(1 1) rotate(0) translate(4 84)">
<title>Graphical Class Hierarchy</title>
<!-- Node280 -->
<g id="node1" class="node">
<title>Node280</title>
<g id="a_node1"><a xlink:href="classKDL_1_1CoDyCo_1_1Regressors_1_1IBatchDynamicDataset.html" target="_top" xlink:title="A generic interface to dynamic identification offline dataset. ">
<polygon fill="none" stroke="#000000" points="0,-46.5 0,-76.5 140,-76.5 140,-46.5 0,-46.5"/>
<text text-anchor="start" x="8" y="-64.5" font-family="FreeSans.ttf" font-size="10.00" fill="#000000">KDL::CoDyCo::Regressors</text>
<text text-anchor="middle" x="70" y="-53.5" font-family="FreeSans.ttf" font-size="10.00" fill="#000000">::IBatchDynamicDataset</text>
</a>
</g>
</g>
<!-- Node281 -->
<g id="node2" class="node">
<title>Node281</title>
<g id="a_node2"><a xlink:href="classKDL_1_1CoDyCo_1_1Regressors_1_1DynamicDatasetFile.html" target="_top" xlink:title="KDL::CoDyCo::Regressors\l::DynamicDatasetFile">
<polygon fill="none" stroke="#000000" points="191,-49.5 191,-79.5 331,-79.5 331,-49.5 191,-49.5"/>
<text text-anchor="start" x="199" y="-67.5" font-family="FreeSans.ttf" font-size="10.00" fill="#000000">KDL::CoDyCo::Regressors</text>
<text text-anchor="middle" x="261" y="-56.5" font-family="FreeSans.ttf" font-size="10.00" fill="#000000">::DynamicDatasetFile</text>
</a>
</g>
</g>
<!-- Node280&#45;&gt;Node281 -->
<g id="edge1" class="edge">
<title>Node280&#45;&gt;Node281</title>
<path fill="none" stroke="#191970" d="M150.2765,-62.7609C163.7977,-62.9733 177.7367,-63.1922 190.9717,-63.4001"/>
<polygon fill="#191970" stroke="#191970" points="150.0906,-59.2576 140.0368,-62.6001 149.9806,-66.2568 150.0906,-59.2576"/>
</g>
<!-- Node0 -->
<g id="node3" class="node">
<title>Node0</title>
<g id="a_node3"><a xlink:href="classKDL_1_1CoDyCo_1_1Regressors_1_1DynamicDatasetFileCollection.html" target="_top" xlink:title="KDL::CoDyCo::Regressors\l::DynamicDatasetFileCollection">
<polygon fill="none" stroke="#000000" points="176,-.5 176,-30.5 346,-30.5 346,-.5 176,-.5"/>
<text text-anchor="start" x="184" y="-18.5" font-family="FreeSans.ttf" font-size="10.00" fill="#000000">KDL::CoDyCo::Regressors</text>
<text text-anchor="middle" x="261" y="-7.5" font-family="FreeSans.ttf" font-size="10.00" fill="#000000">::DynamicDatasetFileCollection</text>
</a>
</g>
</g>
<!-- Node280&#45;&gt;Node0 -->
<g id="edge2" class="edge">
<title>Node280&#45;&gt;Node0</title>
<path fill="none" stroke="#191970" d="M142.3913,-44.0655C160.9157,-39.6041 180.6743,-34.8454 198.6453,-30.5174"/>
<polygon fill="#191970" stroke="#191970" points="141.443,-40.6937 132.5405,-46.4379 143.0821,-47.4991 141.443,-40.6937"/>
</g>
<!-- Node35 -->
<g id="node4" class="node">
<title>Node35</title>
<polygon fill="none" stroke="#bfbfbf" points="46.5,-6 46.5,-25 93.5,-25 93.5,-6 46.5,-6"/>
<text text-anchor="middle" x="70" y="-13" font-family="FreeSans.ttf" font-size="10.00" fill="#000000">vector</text>
</g>
<!-- Node35&#45;&gt;Node0 -->
<g id="edge3" class="edge">
<title>Node35&#45;&gt;Node0</title>
<path fill="none" stroke="#191970" d="M103.96,-15.5C124.0071,-15.5 150.3562,-15.5 175.7307,-15.5"/>
<polygon fill="#191970" stroke="#191970" points="103.8041,-12.0001 93.8041,-15.5 103.8041,-19.0001 103.8041,-12.0001"/>
</g>
</g>
</svg>
