<?xml version="1.0" encoding="UTF-8" standalone="no"?>
<!DOCTYPE svg PUBLIC "-//W3C//DTD SVG 1.1//EN"
 "http://www.w3.org/Graphics/SVG/1.1/DTD/svg11.dtd">
<!-- Generated by graphviz version 2.40.1 (20161225.0304)
 -->
<!-- Title: Graphical Class Hierarchy Pages: 1 -->
<svg width="217pt" height="88pt"
 viewBox="0.00 0.00 217.00 88.00" xmlns="http://www.w3.org/2000/svg" xmlns:xlink="http://www.w3.org/1999/xlink">
<g id="graph0" class="graph" transform="scale(1 1) rotate(0) translate(4 84)">
<title>Graphical Class Hierarchy</title>
<!-- Node53 -->
<g id="node1" class="node">
<title>Node53</title>
<polygon fill="none" stroke="#bfbfbf" points="0,-30 0,-49 41,-49 41,-30 0,-30"/>
<text text-anchor="middle" x="20.5" y="-37" font-family="FreeSans.ttf" font-size="10.00" fill="#000000">TNLP</text>
</g>
<!-- Node0 -->
<g id="node2" class="node">
<title>Node0</title>
<g id="a_node2"><a xlink:href="classiDynTree_1_1optimization_1_1NLPImplementation.html" target="_top" xlink:title="iDynTree::optimization\l::NLPImplementation">
<polygon fill="none" stroke="#000000" points="79.5,-49.5 79.5,-79.5 206.5,-79.5 206.5,-49.5 79.5,-49.5"/>
<text text-anchor="start" x="87.5" y="-67.5" font-family="FreeSans.ttf" font-size="10.00" fill="#000000">iDynTree::optimization</text>
<text text-anchor="middle" x="143" y="-56.5" font-family="FreeSans.ttf" font-size="10.00" fill="#000000">::NLPImplementation</text>
</a>
</g>
</g>
<!-- Node53&#45;&gt;Node0 -->
<g id="edge1" class="edge">
<title>Node53&#45;&gt;Node0</title>
<path fill="none" stroke="#191970" d="M50.9679,-45.7179C59.6464,-47.4891 69.439,-49.4876 79.3162,-51.5033"/>
<polygon fill="#191970" stroke="#191970" points="51.5017,-42.2548 41.0037,-43.6844 50.1019,-49.1134 51.5017,-42.2548"/>
</g>
<!-- Node55 -->
<g id="node3" class="node">
<title>Node55</title>
<g id="a_node3"><a xlink:href="classinternal_1_1kinematics_1_1InverseKinematicsNLP.html" target="_top" xlink:title="Implementation of the inverse kinematics with IPOPT. ">
<polygon fill="none" stroke="#000000" points="77,-.5 77,-30.5 209,-30.5 209,-.5 77,-.5"/>
<text text-anchor="start" x="85" y="-18.5" font-family="FreeSans.ttf" font-size="10.00" fill="#000000">internal::kinematics</text>
<text text-anchor="middle" x="143" y="-7.5" font-family="FreeSans.ttf" font-size="10.00" fill="#000000">::InverseKinematicsNLP</text>
</a>
</g>
</g>
<!-- Node53&#45;&gt;Node55 -->
<g id="edge2" class="edge">
<title>Node53&#45;&gt;Node55</title>
<path fill="none" stroke="#191970" d="M50.9005,-33.544C58.8964,-31.9774 67.8415,-30.2249 76.9291,-28.4445"/>
<polygon fill="#191970" stroke="#191970" points="50.1442,-30.1255 41.0037,-35.4829 51.4901,-36.9949 50.1442,-30.1255"/>
</g>
</g>
</svg>
