<?xml version="1.0" encoding="UTF-8" standalone="no"?>
<!DOCTYPE svg PUBLIC "-//W3C//DTD SVG 1.1//EN"
 "http://www.w3.org/Graphics/SVG/1.1/DTD/svg11.dtd">
<!-- Generated by graphviz version 2.40.1 (20161225.0304)
 -->
<!-- Title: Integrator.h Pages: 1 -->
<svg width="963pt" height="196pt"
 viewBox="0.00 0.00 963.00 196.00" xmlns="http://www.w3.org/2000/svg" xmlns:xlink="http://www.w3.org/1999/xlink">
<g id="graph0" class="graph" transform="scale(1 1) rotate(0) translate(4 192)">
<title>Integrator.h</title>
<!-- Node0 -->
<g id="node1" class="node">
<title>Node0</title>
<polygon fill="#bfbfbf" stroke="#000000" points="670.5,-168.5 670.5,-187.5 743.5,-187.5 743.5,-168.5 670.5,-168.5"/>
<text text-anchor="middle" x="707" y="-175.5" font-family="FreeSans.ttf" font-size="10.00" fill="#000000">Integrator.h</text>
</g>
<!-- Node1 -->
<g id="node2" class="node">
<title>Node1</title>
<g id="a_node2"><a xlink:href="VectorDynSize_8h.html" target="_top" xlink:title="iDynTree/Core/VectorDynSize.h">
<polygon fill="none" stroke="#000000" points="222.5,-112.5 222.5,-131.5 389.5,-131.5 389.5,-112.5 222.5,-112.5"/>
<text text-anchor="middle" x="306" y="-119.5" font-family="FreeSans.ttf" font-size="10.00" fill="#000000">iDynTree/Core/VectorDynSize.h</text>
</a>
</g>
</g>
<!-- Node0&#45;&gt;Node1 -->
<g id="edge1" class="edge">
<title>Node0&#45;&gt;Node1</title>
<path fill="none" stroke="#191970" d="M670.3509,-172.8819C605.8161,-163.8696 470.5746,-144.983 384.2443,-132.9269"/>
<polygon fill="#191970" stroke="#191970" points="384.6154,-129.4448 374.2274,-131.528 383.6471,-136.3775 384.6154,-129.4448"/>
</g>
<!-- Node12 -->
<g id="node13" class="node">
<title>Node12</title>
<polygon fill="none" stroke="#bfbfbf" points="421,-56.5 421,-75.5 465,-75.5 465,-56.5 421,-56.5"/>
<text text-anchor="middle" x="443" y="-63.5" font-family="FreeSans.ttf" font-size="10.00" fill="#000000">string</text>
</g>
<!-- Node0&#45;&gt;Node12 -->
<g id="edge23" class="edge">
<title>Node0&#45;&gt;Node12</title>
<path fill="none" stroke="#191970" d="M670.3241,-174.4189C599.6162,-167.1438 450.0508,-149.8099 435,-132 424.209,-119.2308 428.19,-99.7829 433.6816,-85.3016"/>
<polygon fill="#191970" stroke="#191970" points="437.0312,-86.3711 437.7577,-75.8012 430.5983,-83.6111 437.0312,-86.3711"/>
</g>
<!-- Node13 -->
<g id="node14" class="node">
<title>Node13</title>
<g id="a_node14"><a xlink:href="MatrixDynSize_8h.html" target="_top" xlink:title="iDynTree/Core/MatrixDynSize.h">
<polygon fill="none" stroke="#000000" points="444.5,-112.5 444.5,-131.5 611.5,-131.5 611.5,-112.5 444.5,-112.5"/>
<text text-anchor="middle" x="528" y="-119.5" font-family="FreeSans.ttf" font-size="10.00" fill="#000000">iDynTree/Core/MatrixDynSize.h</text>
</a>
</g>
</g>
<!-- Node0&#45;&gt;Node13 -->
<g id="edge13" class="edge">
<title>Node0&#45;&gt;Node13</title>
<path fill="none" stroke="#191970" d="M676.2288,-168.3733C646.335,-159.021 600.7907,-144.7725 568.0783,-134.5385"/>
<polygon fill="#191970" stroke="#191970" points="568.9586,-131.1466 558.3697,-131.5011 566.8685,-137.8273 568.9586,-131.1466"/>
</g>
<!-- Node14 -->
<g id="node15" class="node">
<title>Node14</title>
<g id="a_node15"><a xlink:href="SparsityStructure_8h.html" target="_top" xlink:title="iDynTree/SparsityStructure.h">
<polygon fill="none" stroke="#000000" points="629.5,-112.5 629.5,-131.5 784.5,-131.5 784.5,-112.5 629.5,-112.5"/>
<text text-anchor="middle" x="707" y="-119.5" font-family="FreeSans.ttf" font-size="10.00" fill="#000000">iDynTree/SparsityStructure.h</text>
</a>
</g>
</g>
<!-- Node0&#45;&gt;Node14 -->
<g id="edge15" class="edge">
<title>Node0&#45;&gt;Node14</title>
<path fill="none" stroke="#191970" d="M707,-168.2455C707,-160.9382 707,-150.6944 707,-141.7046"/>
<polygon fill="#191970" stroke="#191970" points="710.5001,-141.6426 707,-131.6427 703.5001,-141.6427 710.5001,-141.6426"/>
</g>
<!-- Node16 -->
<g id="node17" class="node">
<title>Node16</title>
<polygon fill="none" stroke="#bfbfbf" points="789.5,-56.5 789.5,-75.5 836.5,-75.5 836.5,-56.5 789.5,-56.5"/>
<text text-anchor="middle" x="813" y="-63.5" font-family="FreeSans.ttf" font-size="10.00" fill="#000000">vector</text>
</g>
<!-- Node0&#45;&gt;Node16 -->
<g id="edge22" class="edge">
<title>Node0&#45;&gt;Node16</title>
<path fill="none" stroke="#191970" d="M738.451,-168.3973C757.0914,-161.1859 779.7775,-149.5029 794,-132 804.6799,-118.8567 809.3577,-99.9818 811.4059,-85.7808"/>
<polygon fill="#191970" stroke="#191970" points="814.9121,-85.9208 812.5493,-75.5928 807.9558,-85.14 814.9121,-85.9208"/>
</g>
<!-- Node18 -->
<g id="node19" class="node">
<title>Node18</title>
<polygon fill="none" stroke="#bfbfbf" points="841,-112.5 841,-131.5 899,-131.5 899,-112.5 841,-112.5"/>
<text text-anchor="middle" x="870" y="-119.5" font-family="FreeSans.ttf" font-size="10.00" fill="#000000">memory</text>
</g>
<!-- Node0&#45;&gt;Node18 -->
<g id="edge24" class="edge">
<title>Node0&#45;&gt;Node18</title>
<path fill="none" stroke="#191970" d="M735.0207,-168.3733C762.0078,-159.1016 803.0017,-145.0178 832.7311,-134.804"/>
<polygon fill="#191970" stroke="#191970" points="834.0248,-138.0605 842.3449,-131.5011 831.7503,-131.4403 834.0248,-138.0605"/>
</g>
<!-- Node19 -->
<g id="node20" class="node">
<title>Node19</title>
<polygon fill="none" stroke="#bfbfbf" points="917,-112.5 917,-131.5 955,-131.5 955,-112.5 917,-112.5"/>
<text text-anchor="middle" x="936" y="-119.5" font-family="FreeSans.ttf" font-size="10.00" fill="#000000">map</text>
</g>
<!-- Node0&#45;&gt;Node19 -->
<g id="edge25" class="edge">
<title>Node0&#45;&gt;Node19</title>
<path fill="none" stroke="#191970" d="M743.6438,-170.9688C782.2101,-163.2709 844.8091,-149.9346 907.2125,-131.9875"/>
<polygon fill="#191970" stroke="#191970" points="908.1973,-135.3461 916.8181,-129.1872 906.2382,-128.6259 908.1973,-135.3461"/>
</g>
<!-- Node2 -->
<g id="node3" class="node">
<title>Node2</title>
<g id="a_node3"><a xlink:href="Span_8h.html" target="_top" xlink:title="iDynTree/Core/Span.h">
<polygon fill="none" stroke="#000000" points="245.5,-56.5 245.5,-75.5 366.5,-75.5 366.5,-56.5 245.5,-56.5"/>
<text text-anchor="middle" x="306" y="-63.5" font-family="FreeSans.ttf" font-size="10.00" fill="#000000">iDynTree/Core/Span.h</text>
</a>
</g>
</g>
<!-- Node1&#45;&gt;Node2 -->
<g id="edge2" class="edge">
<title>Node1&#45;&gt;Node2</title>
<path fill="none" stroke="#191970" d="M306,-112.2455C306,-104.9382 306,-94.6944 306,-85.7046"/>
<polygon fill="#191970" stroke="#191970" points="309.5001,-85.6426 306,-75.6427 302.5001,-85.6427 309.5001,-85.6426"/>
</g>
<!-- Node1&#45;&gt;Node12 -->
<g id="edge12" class="edge">
<title>Node1&#45;&gt;Node12</title>
<path fill="none" stroke="#191970" d="M329.5511,-112.3733C352.1092,-103.1524 386.3112,-89.1721 411.2642,-78.9723"/>
<polygon fill="#191970" stroke="#191970" points="412.7311,-82.1539 420.6634,-75.1303 410.0825,-75.6743 412.7311,-82.1539"/>
</g>
<!-- Node3 -->
<g id="node4" class="node">
<title>Node3</title>
<polygon fill="none" stroke="#bfbfbf" points="0,-.5 0,-19.5 52,-19.5 52,-.5 0,-.5"/>
<text text-anchor="middle" x="26" y="-7.5" font-family="FreeSans.ttf" font-size="10.00" fill="#000000">cassert</text>
</g>
<!-- Node2&#45;&gt;Node3 -->
<g id="edge3" class="edge">
<title>Node2&#45;&gt;Node3</title>
<path fill="none" stroke="#191970" d="M246.7674,-56.4625C199.2809,-48.4562 130.7587,-36.0989 62.3884,-20.1738"/>
<polygon fill="#191970" stroke="#191970" points="62.8408,-16.6846 52.3046,-17.7984 61.2357,-23.4981 62.8408,-16.6846"/>
</g>
<!-- Node4 -->
<g id="node5" class="node">
<title>Node4</title>
<polygon fill="none" stroke="#bfbfbf" points="70,-.5 70,-19.5 134,-19.5 134,-.5 70,-.5"/>
<text text-anchor="middle" x="102" y="-7.5" font-family="FreeSans.ttf" font-size="10.00" fill="#000000">algorithm</text>
</g>
<!-- Node2&#45;&gt;Node4 -->
<g id="edge4" class="edge">
<title>Node2&#45;&gt;Node4</title>
<path fill="none" stroke="#191970" d="M270.9311,-56.3733C235.8396,-46.7403 181.825,-31.9128 144.3592,-21.628"/>
<polygon fill="#191970" stroke="#191970" points="144.83,-18.1278 134.2602,-18.8557 142.9769,-24.8781 144.83,-18.1278"/>
</g>
<!-- Node5 -->
<g id="node6" class="node">
<title>Node5</title>
<polygon fill="none" stroke="#bfbfbf" points="152,-.5 152,-19.5 194,-19.5 194,-.5 152,-.5"/>
<text text-anchor="middle" x="173" y="-7.5" font-family="FreeSans.ttf" font-size="10.00" fill="#000000">array</text>
</g>
<!-- Node2&#45;&gt;Node5 -->
<g id="edge5" class="edge">
<title>Node2&#45;&gt;Node5</title>
<path fill="none" stroke="#191970" d="M283.1365,-56.3733C261.2034,-47.1383 227.9316,-33.1291 203.6976,-22.9253"/>
<polygon fill="#191970" stroke="#191970" points="204.8235,-19.6018 194.2489,-18.9469 202.1071,-26.0533 204.8235,-19.6018"/>
</g>
<!-- Node6 -->
<g id="node7" class="node">
<title>Node6</title>
<polygon fill="none" stroke="#bfbfbf" points="579.5,-.5 579.5,-19.5 632.5,-19.5 632.5,-.5 579.5,-.5"/>
<text text-anchor="middle" x="606" y="-7.5" font-family="FreeSans.ttf" font-size="10.00" fill="#000000">cstddef</text>
</g>
<!-- Node2&#45;&gt;Node6 -->
<g id="edge6" class="edge">
<title>Node2&#45;&gt;Node6</title>
<path fill="none" stroke="#191970" d="M366.625,-57.174C418.0434,-49.2938 493.9248,-36.7396 569.2039,-20.0009"/>
<polygon fill="#191970" stroke="#191970" points="570.3498,-23.3307 579.3377,-17.7211 568.8133,-16.5014 570.3498,-23.3307"/>
</g>
<!-- Node7 -->
<g id="node8" class="node">
<title>Node7</title>
<polygon fill="none" stroke="#bfbfbf" points="212.5,-.5 212.5,-19.5 265.5,-19.5 265.5,-.5 212.5,-.5"/>
<text text-anchor="middle" x="239" y="-7.5" font-family="FreeSans.ttf" font-size="10.00" fill="#000000">iterator</text>
</g>
<!-- Node2&#45;&gt;Node7 -->
<g id="edge7" class="edge">
<title>Node2&#45;&gt;Node7</title>
<path fill="none" stroke="#191970" d="M294.3295,-56.2455C284.4339,-47.9746 270.0373,-35.9416 258.4099,-26.2232"/>
<polygon fill="#191970" stroke="#191970" points="260.4542,-23.3703 250.5368,-19.6427 255.965,-28.7413 260.4542,-23.3703"/>
</g>
<!-- Node8 -->
<g id="node9" class="node">
<title>Node8</title>
<polygon fill="none" stroke="#bfbfbf" points="284,-.5 284,-19.5 328,-19.5 328,-.5 284,-.5"/>
<text text-anchor="middle" x="306" y="-7.5" font-family="FreeSans.ttf" font-size="10.00" fill="#000000">limits</text>
</g>
<!-- Node2&#45;&gt;Node8 -->
<g id="edge8" class="edge">
<title>Node2&#45;&gt;Node8</title>
<path fill="none" stroke="#191970" d="M306,-56.2455C306,-48.9382 306,-38.6944 306,-29.7046"/>
<polygon fill="#191970" stroke="#191970" points="309.5001,-29.6426 306,-19.6427 302.5001,-29.6427 309.5001,-29.6426"/>
</g>
<!-- Node9 -->
<g id="node10" class="node">
<title>Node9</title>
<polygon fill="none" stroke="#bfbfbf" points="346.5,-.5 346.5,-19.5 411.5,-19.5 411.5,-.5 346.5,-.5"/>
<text text-anchor="middle" x="379" y="-7.5" font-family="FreeSans.ttf" font-size="10.00" fill="#000000">stdexcept</text>
</g>
<!-- Node2&#45;&gt;Node9 -->
<g id="edge9" class="edge">
<title>Node2&#45;&gt;Node9</title>
<path fill="none" stroke="#191970" d="M318.7156,-56.2455C329.602,-47.8943 345.4883,-35.7076 358.22,-25.9408"/>
<polygon fill="#191970" stroke="#191970" points="360.6261,-28.5063 366.4301,-19.6427 356.3654,-22.9523 360.6261,-28.5063"/>
</g>
<!-- Node10 -->
<g id="node11" class="node">
<title>Node10</title>
<polygon fill="none" stroke="#bfbfbf" points="429.5,-.5 429.5,-19.5 498.5,-19.5 498.5,-.5 429.5,-.5"/>
<text text-anchor="middle" x="464" y="-7.5" font-family="FreeSans.ttf" font-size="10.00" fill="#000000">type_traits</text>
</g>
<!-- Node2&#45;&gt;Node10 -->
<g id="edge10" class="edge">
<title>Node2&#45;&gt;Node10</title>
<path fill="none" stroke="#191970" d="M333.1612,-56.3733C359.2067,-47.1419 398.7116,-33.1402 427.4979,-22.9375"/>
<polygon fill="#191970" stroke="#191970" points="428.937,-26.1408 437.1933,-19.5011 426.5985,-19.5429 428.937,-26.1408"/>
</g>
<!-- Node11 -->
<g id="node12" class="node">
<title>Node11</title>
<polygon fill="none" stroke="#bfbfbf" points="516.5,-.5 516.5,-19.5 561.5,-19.5 561.5,-.5 516.5,-.5"/>
<text text-anchor="middle" x="539" y="-7.5" font-family="FreeSans.ttf" font-size="10.00" fill="#000000">utility</text>
</g>
<!-- Node2&#45;&gt;Node11 -->
<g id="edge11" class="edge">
<title>Node2&#45;&gt;Node11</title>
<path fill="none" stroke="#191970" d="M352.5577,-56.4212C391.3031,-48.2077 448.0924,-35.6113 506.5607,-19.9629"/>
<polygon fill="#191970" stroke="#191970" points="507.5973,-23.3084 516.3383,-17.3213 505.7716,-16.5507 507.5973,-23.3084"/>
</g>
<!-- Node13&#45;&gt;Node12 -->
<g id="edge14" class="edge">
<title>Node13&#45;&gt;Node12</title>
<path fill="none" stroke="#191970" d="M513.1941,-112.2455C500.2744,-103.7337 481.3069,-91.2375 466.3448,-81.3801"/>
<polygon fill="#191970" stroke="#191970" points="467.9124,-78.2216 457.6362,-75.6427 464.0613,-84.067 467.9124,-78.2216"/>
</g>
<!-- Node14&#45;&gt;Node6 -->
<g id="edge19" class="edge">
<title>Node14&#45;&gt;Node6</title>
<path fill="none" stroke="#191970" d="M641.4067,-112.4797C599.553,-104.9101 550.832,-92.7916 538,-76 522.8531,-56.1792 549.505,-36.684 573.7546,-24.0823"/>
<polygon fill="#191970" stroke="#191970" points="575.4172,-27.1649 582.8387,-19.6037 572.3218,-20.8864 575.4172,-27.1649"/>
</g>
<!-- Node14&#45;&gt;Node12 -->
<g id="edge21" class="edge">
<title>Node14&#45;&gt;Node12</title>
<path fill="none" stroke="#191970" d="M661.9167,-112.4369C608.7942,-101.1685 521.8627,-82.7284 475.1289,-72.8152"/>
<polygon fill="#191970" stroke="#191970" points="475.7559,-69.3704 465.2473,-70.7191 474.3033,-76.2181 475.7559,-69.3704"/>
</g>
<!-- Node15 -->
<g id="node16" class="node">
<title>Node15</title>
<g id="a_node16"><a xlink:href="Utils_8h.html" target="_top" xlink:title="iDynTree/Core/Utils.h">
<polygon fill="none" stroke="#000000" points="547.5,-56.5 547.5,-75.5 666.5,-75.5 666.5,-56.5 547.5,-56.5"/>
<text text-anchor="middle" x="607" y="-63.5" font-family="FreeSans.ttf" font-size="10.00" fill="#000000">iDynTree/Core/Utils.h</text>
</a>
</g>
</g>
<!-- Node14&#45;&gt;Node15 -->
<g id="edge16" class="edge">
<title>Node14&#45;&gt;Node15</title>
<path fill="none" stroke="#191970" d="M689.5813,-112.2455C673.9515,-103.4928 650.7981,-90.527 632.9815,-80.5496"/>
<polygon fill="#191970" stroke="#191970" points="634.6543,-77.475 624.2191,-75.6427 631.234,-83.5825 634.6543,-77.475"/>
</g>
<!-- Node14&#45;&gt;Node16 -->
<g id="edge18" class="edge">
<title>Node14&#45;&gt;Node16</title>
<path fill="none" stroke="#191970" d="M725.4638,-112.2455C742.1074,-103.4527 766.7993,-90.4079 785.7192,-80.4125"/>
<polygon fill="#191970" stroke="#191970" points="787.5408,-83.4086 794.7478,-75.6427 784.2709,-77.2193 787.5408,-83.4086"/>
</g>
<!-- Node17 -->
<g id="node18" class="node">
<title>Node17</title>
<polygon fill="none" stroke="#bfbfbf" points="685,-56.5 685,-75.5 771,-75.5 771,-56.5 685,-56.5"/>
<text text-anchor="middle" x="728" y="-63.5" font-family="FreeSans.ttf" font-size="10.00" fill="#000000">unordered_set</text>
</g>
<!-- Node14&#45;&gt;Node17 -->
<g id="edge20" class="edge">
<title>Node14&#45;&gt;Node17</title>
<path fill="none" stroke="#191970" d="M710.6579,-112.2455C713.4584,-104.7776 717.409,-94.2427 720.8324,-85.1137"/>
<polygon fill="#191970" stroke="#191970" points="724.1499,-86.2349 724.384,-75.6427 717.5955,-83.777 724.1499,-86.2349"/>
</g>
<!-- Node15&#45;&gt;Node6 -->
<g id="edge17" class="edge">
<title>Node15&#45;&gt;Node6</title>
<path fill="none" stroke="#191970" d="M606.8258,-56.2455C606.6953,-48.9382 606.5124,-38.6944 606.3519,-29.7046"/>
<polygon fill="#191970" stroke="#191970" points="609.8503,-29.5786 606.1722,-19.6427 602.8514,-29.7036 609.8503,-29.5786"/>
</g>
</g>
</svg>
