<?xml version="1.0" encoding="UTF-8" standalone="no"?>
<!DOCTYPE svg PUBLIC "-//W3C//DTD SVG 1.1//EN"
 "http://www.w3.org/Graphics/SVG/1.1/DTD/svg11.dtd">
<!-- Generated by graphviz version 2.40.1 (20161225.0304)
 -->
<!-- Title: JointState.h Pages: 1 -->
<svg width="3040pt" height="274pt"
 viewBox="0.00 0.00 3040.00 274.00" xmlns="http://www.w3.org/2000/svg" xmlns:xlink="http://www.w3.org/1999/xlink">
<g id="graph0" class="graph" transform="scale(1 1) rotate(0) translate(4 270)">
<title>JointState.h</title>
<!-- Node35 -->
<g id="node1" class="node">
<title>Node35</title>
<polygon fill="#bfbfbf" stroke="#000000" points="1353.5,-246.5 1353.5,-265.5 1426.5,-265.5 1426.5,-246.5 1353.5,-246.5"/>
<text text-anchor="middle" x="1390" y="-253.5" font-family="FreeSans.ttf" font-size="10.00" fill="#000000">JointState.h</text>
</g>
<!-- Node36 -->
<g id="node2" class="node">
<title>Node36</title>
<g id="a_node2"><a xlink:href="ExtWrenchesAndJointTorquesEstimator_8h.html" target="_top" xlink:title="ExtWrenchesAndJointTorques\lEstimator.h">
<polygon fill="none" stroke="#000000" points="107,-123.5 107,-153.5 265,-153.5 265,-123.5 107,-123.5"/>
<text text-anchor="start" x="115" y="-141.5" font-family="FreeSans.ttf" font-size="10.00" fill="#000000">ExtWrenchesAndJointTorques</text>
<text text-anchor="middle" x="186" y="-130.5" font-family="FreeSans.ttf" font-size="10.00" fill="#000000">Estimator.h</text>
</a>
</g>
</g>
<!-- Node35&#45;&gt;Node36 -->
<g id="edge1" class="edge">
<title>Node35&#45;&gt;Node36</title>
<path fill="none" stroke="#191970" d="M1342.9804,-255.1239C1220.1244,-252.4335 879.5291,-242.4001 598,-210 477.9188,-196.1803 339.7577,-170.0919 257.83,-153.5396"/>
<polygon fill="#191970" stroke="#191970" points="1343.0885,-258.6269 1353.1609,-255.3408 1343.2377,-251.6285 1343.0885,-258.6269"/>
</g>
<!-- Node37 -->
<g id="node3" class="node">
<title>Node37</title>
<g id="a_node3"><a xlink:href="ExtWrenchesAndJointTorquesEstimator_8cpp.html" target="_top" xlink:title="ExtWrenchesAndJointTorques\lEstimator.cpp">
<polygon fill="none" stroke="#000000" points="0,-56.5 0,-86.5 158,-86.5 158,-56.5 0,-56.5"/>
<text text-anchor="start" x="8" y="-74.5" font-family="FreeSans.ttf" font-size="10.00" fill="#000000">ExtWrenchesAndJointTorques</text>
<text text-anchor="middle" x="79" y="-63.5" font-family="FreeSans.ttf" font-size="10.00" fill="#000000">Estimator.cpp</text>
</a>
</g>
</g>
<!-- Node35&#45;&gt;Node37 -->
<g id="edge6" class="edge">
<title>Node35&#45;&gt;Node37</title>
<path fill="none" stroke="#191970" d="M1343.3897,-255.291C1206.9443,-252.8736 796.631,-243.1648 458,-210 287.6623,-193.3175 188.8781,-283.5242 77,-154 60.9854,-135.4595 67.2577,-104.8779 73.1884,-86.6138"/>
<polygon fill="#191970" stroke="#191970" points="1343.4311,-258.7922 1353.4901,-255.4654 1343.552,-251.7932 1343.4311,-258.7922"/>
</g>
<!-- Node38 -->
<g id="node4" class="node">
<title>Node38</title>
<g id="a_node4"><a xlink:href="SimpleLeggedOdometry_8h.html" target="_top" xlink:title="SimpleLeggedOdometry.h">
<polygon fill="none" stroke="#000000" points="1319,-190.5 1319,-209.5 1461,-209.5 1461,-190.5 1319,-190.5"/>
<text text-anchor="middle" x="1390" y="-197.5" font-family="FreeSans.ttf" font-size="10.00" fill="#000000">SimpleLeggedOdometry.h</text>
</a>
</g>
</g>
<!-- Node35&#45;&gt;Node38 -->
<g id="edge3" class="edge">
<title>Node35&#45;&gt;Node38</title>
<path fill="none" stroke="#191970" d="M1390,-236.1575C1390,-227.155 1390,-216.9199 1390,-209.6427"/>
<polygon fill="#191970" stroke="#191970" points="1386.5001,-236.2455 1390,-246.2455 1393.5001,-236.2456 1386.5001,-236.2455"/>
</g>
<!-- Node40 -->
<g id="node6" class="node">
<title>Node40</title>
<g id="a_node6"><a xlink:href="ExternalWrenchesEstimation_8cpp.html" target="_top" xlink:title="ExternalWrenchesEstimation.cpp">
<polygon fill="none" stroke="#000000" points="1479.5,-190.5 1479.5,-209.5 1656.5,-209.5 1656.5,-190.5 1479.5,-190.5"/>
<text text-anchor="middle" x="1568" y="-197.5" font-family="FreeSans.ttf" font-size="10.00" fill="#000000">ExternalWrenchesEstimation.cpp</text>
</a>
</g>
</g>
<!-- Node35&#45;&gt;Node40 -->
<g id="edge5" class="edge">
<title>Node35&#45;&gt;Node40</title>
<path fill="none" stroke="#191970" d="M1430.2931,-243.3235C1462.9368,-233.0536 1508.2134,-218.8093 1537.8,-209.5011"/>
<polygon fill="#191970" stroke="#191970" points="1429.088,-240.0335 1420.5993,-246.3733 1431.1887,-246.7108 1429.088,-240.0335"/>
</g>
<!-- Node41 -->
<g id="node7" class="node">
<title>Node41</title>
<g id="a_node7"><a xlink:href="Dynamics_8h.html" target="_top" xlink:title="Dynamics.h">
<polygon fill="none" stroke="#000000" points="607,-190.5 607,-209.5 681,-209.5 681,-190.5 607,-190.5"/>
<text text-anchor="middle" x="644" y="-197.5" font-family="FreeSans.ttf" font-size="10.00" fill="#000000">Dynamics.h</text>
</a>
</g>
</g>
<!-- Node35&#45;&gt;Node41 -->
<g id="edge7" class="edge">
<title>Node35&#45;&gt;Node41</title>
<path fill="none" stroke="#191970" d="M1343.0564,-252.4761C1205.5391,-242.1531 805.5004,-212.1234 681.2575,-202.7968"/>
<polygon fill="#191970" stroke="#191970" points="1343.0262,-255.9836 1353.2602,-253.2421 1343.5503,-249.0032 1343.0262,-255.9836"/>
</g>
<!-- Node50 -->
<g id="node16" class="node">
<title>Node50</title>
<g id="a_node16"><a xlink:href="Dynamics_8cpp.html" target="_top" xlink:title="Dynamics.cpp">
<polygon fill="none" stroke="#000000" points="941,-129 941,-148 1027,-148 1027,-129 941,-129"/>
<text text-anchor="middle" x="984" y="-136" font-family="FreeSans.ttf" font-size="10.00" fill="#000000">Dynamics.cpp</text>
</a>
</g>
</g>
<!-- Node35&#45;&gt;Node50 -->
<g id="edge36" class="edge">
<title>Node35&#45;&gt;Node50</title>
<path fill="none" stroke="#191970" d="M1343.1536,-247.4331C1300.7103,-239.2485 1236.6388,-225.8356 1182,-210 1117.7614,-191.3821 1044.1856,-162.8454 1007.4479,-148.0844"/>
<polygon fill="#191970" stroke="#191970" points="1342.7149,-250.9124 1353.1938,-249.3494 1344.0273,-244.0366 1342.7149,-250.9124"/>
</g>
<!-- Node52 -->
<g id="node18" class="node">
<title>Node52</title>
<g id="a_node18"><a xlink:href="FreeFloatingState_8h.html" target="_top" xlink:title="FreeFloatingState.h">
<polygon fill="none" stroke="#000000" points="1191,-190.5 1191,-209.5 1301,-209.5 1301,-190.5 1191,-190.5"/>
<text text-anchor="middle" x="1246" y="-197.5" font-family="FreeSans.ttf" font-size="10.00" fill="#000000">FreeFloatingState.h</text>
</a>
</g>
</g>
<!-- Node35&#45;&gt;Node52 -->
<g id="edge20" class="edge">
<title>Node35&#45;&gt;Node52</title>
<path fill="none" stroke="#191970" d="M1355.6818,-242.6541C1329.422,-232.4419 1293.8508,-218.6086 1270.4315,-209.5011"/>
<polygon fill="#191970" stroke="#191970" points="1354.6569,-246.0108 1365.2455,-246.3733 1357.194,-239.4867 1354.6569,-246.0108"/>
</g>
<!-- Node61 -->
<g id="node27" class="node">
<title>Node61</title>
<g id="a_node27"><a xlink:href="JointState_8cpp.html" target="_top" xlink:title="JointState.cpp">
<polygon fill="none" stroke="#000000" points="1674,-190.5 1674,-209.5 1758,-209.5 1758,-190.5 1674,-190.5"/>
<text text-anchor="middle" x="1716" y="-197.5" font-family="FreeSans.ttf" font-size="10.00" fill="#000000">JointState.cpp</text>
</a>
</g>
</g>
<!-- Node35&#45;&gt;Node61 -->
<g id="edge37" class="edge">
<title>Node35&#45;&gt;Node61</title>
<path fill="none" stroke="#191970" d="M1436.6223,-248.6077C1491.3778,-239.8318 1584.9093,-224.5476 1665,-210 1667.9296,-209.4679 1670.9513,-208.9068 1673.9928,-208.333"/>
<polygon fill="#191970" stroke="#191970" points="1435.8544,-245.186 1426.5327,-250.2215 1436.96,-252.0981 1435.8544,-245.186"/>
</g>
<!-- Node62 -->
<g id="node28" class="node">
<title>Node62</title>
<g id="a_node28"><a xlink:href="SubModel_8cpp.html" target="_top" xlink:title="SubModel.cpp">
<polygon fill="none" stroke="#000000" points="1776,-190.5 1776,-209.5 1860,-209.5 1860,-190.5 1776,-190.5"/>
<text text-anchor="middle" x="1818" y="-197.5" font-family="FreeSans.ttf" font-size="10.00" fill="#000000">SubModel.cpp</text>
</a>
</g>
</g>
<!-- Node35&#45;&gt;Node62 -->
<g id="edge38" class="edge">
<title>Node35&#45;&gt;Node62</title>
<path fill="none" stroke="#191970" d="M1436.5271,-251.4157C1507.8607,-244.141 1648.4502,-228.8298 1767,-210 1769.8515,-209.5471 1772.7871,-209.0511 1775.741,-208.53"/>
<polygon fill="#191970" stroke="#191970" points="1436.112,-247.9398 1426.5158,-252.4302 1436.8178,-254.9041 1436.112,-247.9398"/>
</g>
<!-- Node63 -->
<g id="node29" class="node">
<title>Node63</title>
<g id="a_node29"><a xlink:href="Visualizer_8h.html" target="_top" xlink:title="Visualizer.h">
<polygon fill="none" stroke="#000000" points="2507.5,-190.5 2507.5,-209.5 2580.5,-209.5 2580.5,-190.5 2507.5,-190.5"/>
<text text-anchor="middle" x="2544" y="-197.5" font-family="FreeSans.ttf" font-size="10.00" fill="#000000">Visualizer.h</text>
</a>
</g>
</g>
<!-- Node35&#45;&gt;Node63 -->
<g id="edge39" class="edge">
<title>Node35&#45;&gt;Node63</title>
<path fill="none" stroke="#191970" d="M1436.9834,-253.72C1627.1073,-244.4939 2337.3564,-210.0278 2507.299,-201.781"/>
<polygon fill="#191970" stroke="#191970" points="1436.5837,-250.2352 1426.7651,-254.2159 1436.923,-257.227 1436.5837,-250.2352"/>
</g>
<!-- Node77 -->
<g id="node43" class="node">
<title>Node77</title>
<g id="a_node43"><a xlink:href="Visualizer_8cpp.html" target="_top" xlink:title="Visualizer.cpp">
<polygon fill="none" stroke="#000000" points="2948,-62 2948,-81 3032,-81 3032,-62 2948,-62"/>
<text text-anchor="middle" x="2990" y="-69" font-family="FreeSans.ttf" font-size="10.00" fill="#000000">Visualizer.cpp</text>
</a>
</g>
</g>
<!-- Node35&#45;&gt;Node77 -->
<g id="edge71" class="edge">
<title>Node35&#45;&gt;Node77</title>
<path fill="none" stroke="#191970" d="M1436.8493,-254.8302C1629.3292,-249.9272 2359.9481,-230.342 2590,-210 2770.1293,-194.0723 2874.2576,-290.3836 2993,-154 3010.8814,-133.462 3000.5676,-97.9656 2994.061,-81.0279"/>
<polygon fill="#191970" stroke="#191970" points="1436.686,-251.3331 1426.7781,-255.0858 1436.8637,-258.3309 1436.686,-251.3331"/>
</g>
<!-- Node36&#45;&gt;Node37 -->
<g id="edge2" class="edge">
<title>Node36&#45;&gt;Node37</title>
<path fill="none" stroke="#191970" d="M153.3827,-118.0761C137.255,-107.9774 118.1242,-95.9983 103.303,-86.7177"/>
<polygon fill="#191970" stroke="#191970" points="151.6541,-121.1232 161.9871,-123.4639 155.3691,-115.1903 151.6541,-121.1232"/>
</g>
<!-- Node39 -->
<g id="node5" class="node">
<title>Node39</title>
<g id="a_node5"><a xlink:href="SimpleLeggedOdometry_8cpp.html" target="_top" xlink:title="SimpleLeggedOdometry.cpp">
<polygon fill="none" stroke="#000000" points="2046.5,-129 2046.5,-148 2199.5,-148 2199.5,-129 2046.5,-129"/>
<text text-anchor="middle" x="2123" y="-136" font-family="FreeSans.ttf" font-size="10.00" fill="#000000">SimpleLeggedOdometry.cpp</text>
</a>
</g>
</g>
<!-- Node38&#45;&gt;Node39 -->
<g id="edge4" class="edge">
<title>Node38&#45;&gt;Node39</title>
<path fill="none" stroke="#191970" d="M1471.2702,-189.9382C1723.14,-166.7984 1789.6393,-184.0431 2037,-154 2049.6508,-152.4635 2063.2588,-150.2665 2075.8337,-148.0079"/>
<polygon fill="#191970" stroke="#191970" points="1470.7078,-186.4753 1461.0753,-190.8874 1471.3568,-193.4451 1470.7078,-186.4753"/>
</g>
<!-- Node41&#45;&gt;Node37 -->
<g id="edge11" class="edge">
<title>Node41&#45;&gt;Node37</title>
<path fill="none" stroke="#191970" d="M596.501,-199.1499C470.5804,-196.4615 135.2717,-186.3122 98,-154 78.7875,-137.3439 76.8649,-105.5235 77.6379,-86.6407"/>
<polygon fill="#191970" stroke="#191970" points="596.5428,-202.6515 606.6131,-199.3593 596.6877,-195.653 596.5428,-202.6515"/>
</g>
<!-- Node42 -->
<g id="node8" class="node">
<title>Node42</title>
<g id="a_node8"><a xlink:href="GravityCompensationHelpers_8h.html" target="_top" xlink:title="GravityCompensationHelpers.h">
<polygon fill="none" stroke="#000000" points="753,-129 753,-148 923,-148 923,-129 753,-129"/>
<text text-anchor="middle" x="838" y="-136" font-family="FreeSans.ttf" font-size="10.00" fill="#000000">GravityCompensationHelpers.h</text>
</a>
</g>
</g>
<!-- Node41&#45;&gt;Node42 -->
<g id="edge8" class="edge">
<title>Node41&#45;&gt;Node42</title>
<path fill="none" stroke="#191970" d="M684.2172,-187.2507C721.0265,-175.5818 774.6733,-158.5752 807.9004,-148.0419"/>
<polygon fill="#191970" stroke="#191970" points="682.7873,-184.0323 674.3125,-190.3906 684.9027,-190.705 682.7873,-184.0323"/>
</g>
<!-- Node44 -->
<g id="node10" class="node">
<title>Node44</title>
<g id="a_node10"><a xlink:href="BerdyHelper_8cpp.html" target="_top" xlink:title="BerdyHelper.cpp">
<polygon fill="none" stroke="#000000" points="617.5,-62 617.5,-81 714.5,-81 714.5,-62 617.5,-62"/>
<text text-anchor="middle" x="666" y="-69" font-family="FreeSans.ttf" font-size="10.00" fill="#000000">BerdyHelper.cpp</text>
</a>
</g>
</g>
<!-- Node41&#45;&gt;Node44 -->
<g id="edge10" class="edge">
<title>Node41&#45;&gt;Node44</title>
<path fill="none" stroke="#191970" d="M597.2802,-190.3754C577.298,-183.6962 555.8721,-172.5291 544,-154 536.5671,-142.3992 536.3841,-134.4815 544,-123 560.2666,-98.4768 590.7666,-85.6018 617.1999,-78.8576"/>
<polygon fill="#191970" stroke="#191970" points="596.3399,-193.7476 606.9255,-193.3063 598.3752,-187.05 596.3399,-193.7476"/>
</g>
<!-- Node45 -->
<g id="node11" class="node">
<title>Node45</title>
<g id="a_node11"><a xlink:href="KinDynComputations_8cpp.html" target="_top" xlink:title="KinDynComputations.cpp">
<polygon fill="none" stroke="#000000" points="1045,-129 1045,-148 1185,-148 1185,-129 1045,-129"/>
<text text-anchor="middle" x="1115" y="-136" font-family="FreeSans.ttf" font-size="10.00" fill="#000000">KinDynComputations.cpp</text>
</a>
</g>
</g>
<!-- Node41&#45;&gt;Node45 -->
<g id="edge12" class="edge">
<title>Node41&#45;&gt;Node45</title>
<path fill="none" stroke="#191970" d="M691.5139,-195.615C765.4157,-188.5266 912.2738,-173.3678 1036,-154 1046.9088,-152.2924 1058.608,-150.1626 1069.5709,-148.0338"/>
<polygon fill="#191970" stroke="#191970" points="690.7743,-192.1695 681.1511,-196.6018 691.4379,-199.138 690.7743,-192.1695"/>
</g>
<!-- Node46 -->
<g id="node12" class="node">
<title>Node46</title>
<g id="a_node12"><a xlink:href="DynamicsLinearization_8h.html" target="_top" xlink:title="DynamicsLinearization.h">
<polygon fill="none" stroke="#000000" points="433.5,-62 433.5,-81 570.5,-81 570.5,-62 433.5,-62"/>
<text text-anchor="middle" x="502" y="-69" font-family="FreeSans.ttf" font-size="10.00" fill="#000000">DynamicsLinearization.h</text>
</a>
</g>
</g>
<!-- Node41&#45;&gt;Node46 -->
<g id="edge13" class="edge">
<title>Node41&#45;&gt;Node46</title>
<path fill="none" stroke="#191970" d="M597.4174,-189.2251C576.0753,-182.2478 551.8422,-171.1624 535,-154 514.5789,-133.1906 506.3239,-98.1402 503.4017,-81.2189"/>
<polygon fill="#191970" stroke="#191970" points="596.3965,-192.5729 606.9828,-192.1489 598.4427,-185.8786 596.3965,-192.5729"/>
</g>
<!-- Node48 -->
<g id="node14" class="node">
<title>Node48</title>
<g id="a_node14"><a xlink:href="DynamicsLinearizationHelpers_8h.html" target="_top" xlink:title="DynamicsLinearizationHelpers.h">
<polygon fill="none" stroke="#000000" points="283.5,-129 283.5,-148 458.5,-148 458.5,-129 283.5,-129"/>
<text text-anchor="middle" x="371" y="-136" font-family="FreeSans.ttf" font-size="10.00" fill="#000000">DynamicsLinearizationHelpers.h</text>
</a>
</g>
</g>
<!-- Node41&#45;&gt;Node48 -->
<g id="edge15" class="edge">
<title>Node41&#45;&gt;Node48</title>
<path fill="none" stroke="#191970" d="M596.9951,-189.411C545.3502,-177.7767 463.1432,-159.2575 413.4046,-148.0527"/>
<polygon fill="#191970" stroke="#191970" points="596.3732,-192.8585 606.8979,-191.6418 597.9116,-186.0296 596.3732,-192.8585"/>
</g>
<!-- Node41&#45;&gt;Node50 -->
<g id="edge18" class="edge">
<title>Node41&#45;&gt;Node50</title>
<path fill="none" stroke="#191970" d="M691.3315,-194.3788C748.6993,-187.1212 848.1114,-173.1151 932,-154 939.3479,-152.3257 947.1815,-150.1841 954.4796,-148.0309"/>
<polygon fill="#191970" stroke="#191970" points="690.6108,-190.9416 681.1222,-195.6552 691.4792,-197.8875 690.6108,-190.9416"/>
</g>
<!-- Node51 -->
<g id="node17" class="node">
<title>Node51</title>
<g id="a_node17"><a xlink:href="PredictSensorsMeasurements_8cpp.html" target="_top" xlink:title="PredictSensorsMeasurements.cpp">
<polygon fill="none" stroke="#000000" points="553.5,-129 553.5,-148 734.5,-148 734.5,-129 553.5,-129"/>
<text text-anchor="middle" x="644" y="-136" font-family="FreeSans.ttf" font-size="10.00" fill="#000000">PredictSensorsMeasurements.cpp</text>
</a>
</g>
</g>
<!-- Node41&#45;&gt;Node51 -->
<g id="edge19" class="edge">
<title>Node41&#45;&gt;Node51</title>
<path fill="none" stroke="#191970" d="M644,-180.2462C644,-169.5519 644,-156.814 644,-148.2449"/>
<polygon fill="#191970" stroke="#191970" points="640.5001,-180.3906 644,-190.3906 647.5001,-180.3907 640.5001,-180.3906"/>
</g>
<!-- Node43 -->
<g id="node9" class="node">
<title>Node43</title>
<g id="a_node9"><a xlink:href="GravityCompensationHelpers_8cpp.html" target="_top" xlink:title="GravityCompensationHelpers.cpp">
<polygon fill="none" stroke="#000000" points="747.5,-62 747.5,-81 928.5,-81 928.5,-62 747.5,-62"/>
<text text-anchor="middle" x="838" y="-69" font-family="FreeSans.ttf" font-size="10.00" fill="#000000">GravityCompensationHelpers.cpp</text>
</a>
</g>
</g>
<!-- Node42&#45;&gt;Node43 -->
<g id="edge9" class="edge">
<title>Node42&#45;&gt;Node43</title>
<path fill="none" stroke="#191970" d="M838,-118.6079C838,-106.214 838,-90.8263 838,-81.0817"/>
<polygon fill="#191970" stroke="#191970" points="834.5001,-118.9005 838,-128.9005 841.5001,-118.9006 834.5001,-118.9005"/>
</g>
<!-- Node47 -->
<g id="node13" class="node">
<title>Node47</title>
<g id="a_node13"><a xlink:href="DynamicsLinearization_8cpp.html" target="_top" xlink:title="DynamicsLinearization.cpp">
<polygon fill="none" stroke="#000000" points="835.5,-.5 835.5,-19.5 984.5,-19.5 984.5,-.5 835.5,-.5"/>
<text text-anchor="middle" x="910" y="-7.5" font-family="FreeSans.ttf" font-size="10.00" fill="#000000">DynamicsLinearization.cpp</text>
</a>
</g>
</g>
<!-- Node46&#45;&gt;Node47 -->
<g id="edge14" class="edge">
<title>Node46&#45;&gt;Node47</title>
<path fill="none" stroke="#191970" d="M575.4625,-60.4266C652.8973,-48.7545 773.5986,-30.5605 846.8849,-19.5137"/>
<polygon fill="#191970" stroke="#191970" points="574.6689,-57.0066 565.3023,-61.9581 575.7123,-63.9284 574.6689,-57.0066"/>
</g>
<!-- Node48&#45;&gt;Node46 -->
<g id="edge16" class="edge">
<title>Node48&#45;&gt;Node46</title>
<path fill="none" stroke="#191970" d="M398.9015,-124.2298C424.3332,-111.2227 461.1992,-92.3676 483.2657,-81.0817"/>
<polygon fill="#191970" stroke="#191970" points="397.0785,-121.2309 389.7691,-128.9005 400.266,-127.4631 397.0785,-121.2309"/>
</g>
<!-- Node49 -->
<g id="node15" class="node">
<title>Node49</title>
<g id="a_node15"><a xlink:href="DynamicsLinearizationHelpers_8cpp.html" target="_top" xlink:title="DynamicsLinearizationHelpers.cpp">
<polygon fill="none" stroke="#000000" points="229,-62 229,-81 415,-81 415,-62 229,-62"/>
<text text-anchor="middle" x="322" y="-69" font-family="FreeSans.ttf" font-size="10.00" fill="#000000">DynamicsLinearizationHelpers.cpp</text>
</a>
</g>
</g>
<!-- Node48&#45;&gt;Node49 -->
<g id="edge17" class="edge">
<title>Node48&#45;&gt;Node49</title>
<path fill="none" stroke="#191970" d="M357.8214,-120.4803C348.5469,-107.7989 336.4978,-91.3235 329.0075,-81.0817"/>
<polygon fill="#191970" stroke="#191970" points="355.2512,-122.8949 363.9795,-128.9005 360.9014,-118.7627 355.2512,-122.8949"/>
</g>
<!-- Node52&#45;&gt;Node36 -->
<g id="edge24" class="edge">
<title>Node52&#45;&gt;Node36</title>
<path fill="none" stroke="#191970" d="M1180.8947,-198.0001C992.7506,-192.0489 450.5131,-173.6415 274,-154 271.0706,-153.674 268.0913,-153.3111 265.0857,-152.9184"/>
<polygon fill="#191970" stroke="#191970" points="1180.8102,-201.4991 1190.9155,-198.3159 1181.0308,-194.5026 1180.8102,-201.4991"/>
</g>
<!-- Node52&#45;&gt;Node42 -->
<g id="edge25" class="edge">
<title>Node52&#45;&gt;Node42</title>
<path fill="none" stroke="#191970" d="M1180.6616,-190.7769C1117.1116,-181.7238 1017.8626,-167.3673 932,-154 919.9062,-152.1172 906.9498,-150.0278 894.6399,-148.0085"/>
<polygon fill="#191970" stroke="#191970" points="1180.5414,-194.2949 1190.9347,-192.2384 1181.5274,-187.3647 1180.5414,-194.2949"/>
</g>
<!-- Node52&#45;&gt;Node45 -->
<g id="edge26" class="edge">
<title>Node52&#45;&gt;Node45</title>
<path fill="none" stroke="#191970" d="M1216.2549,-186.0357C1191.5264,-174.4265 1156.9948,-158.2151 1135.325,-148.0419"/>
<polygon fill="#191970" stroke="#191970" points="1214.9917,-189.3092 1225.5313,-190.3906 1217.9665,-182.9727 1214.9917,-189.3092"/>
</g>
<!-- Node52&#45;&gt;Node47 -->
<g id="edge31" class="edge">
<title>Node52&#45;&gt;Node47</title>
<path fill="none" stroke="#191970" d="M1271.4494,-184.4967C1281.7137,-176.7437 1292.4303,-166.3631 1298,-154 1315.8903,-114.2882 1326.9287,-88.561 1298,-56 1277.5853,-33.022 1091.5834,-19.5226 984.7018,-13.5982"/>
<polygon fill="#191970" stroke="#191970" points="1269.2382,-181.7723 1263.0567,-190.377 1273.2549,-187.5052 1269.2382,-181.7723"/>
</g>
<!-- Node52&#45;&gt;Node50 -->
<g id="edge30" class="edge">
<title>Node52&#45;&gt;Node50</title>
<path fill="none" stroke="#191970" d="M1187.535,-188.4041C1145.2513,-179.7237 1086.8526,-167.1293 1036,-154 1029.0679,-152.2102 1021.6687,-150.1171 1014.6907,-148.0584"/>
<polygon fill="#191970" stroke="#191970" points="1186.8836,-191.8433 1197.3816,-190.4146 1188.284,-184.9848 1186.8836,-191.8433"/>
</g>
<!-- Node52&#45;&gt;Node51 -->
<g id="edge35" class="edge">
<title>Node52&#45;&gt;Node51</title>
<path fill="none" stroke="#191970" d="M1180.7879,-195.3307C1084.8979,-188.1689 900.301,-173.2555 744,-154 730.1379,-152.2923 715.2415,-150.1504 701.2901,-148.0087"/>
<polygon fill="#191970" stroke="#191970" points="1180.679,-198.8321 1190.9108,-196.0825 1181.1975,-191.8514 1180.679,-198.8321"/>
</g>
<!-- Node53 -->
<g id="node19" class="node">
<title>Node53</title>
<g id="a_node19"><a xlink:href="BerdyHelper_8h.html" target="_top" xlink:title="BerdyHelper.h">
<polygon fill="none" stroke="#000000" points="1203,-129 1203,-148 1289,-148 1289,-129 1203,-129"/>
<text text-anchor="middle" x="1246" y="-136" font-family="FreeSans.ttf" font-size="10.00" fill="#000000">BerdyHelper.h</text>
</a>
</g>
</g>
<!-- Node52&#45;&gt;Node53 -->
<g id="edge21" class="edge">
<title>Node52&#45;&gt;Node53</title>
<path fill="none" stroke="#191970" d="M1246,-180.2462C1246,-169.5519 1246,-156.814 1246,-148.2449"/>
<polygon fill="#191970" stroke="#191970" points="1242.5001,-180.3906 1246,-190.3906 1249.5001,-180.3907 1242.5001,-180.3906"/>
</g>
<!-- Node55 -->
<g id="node21" class="node">
<title>Node55</title>
<g id="a_node21"><a xlink:href="ModelTestUtils_8h.html" target="_top" xlink:title="ModelTestUtils.h">
<polygon fill="none" stroke="#000000" points="1931.5,-129 1931.5,-148 2028.5,-148 2028.5,-129 1931.5,-129"/>
<text text-anchor="middle" x="1980" y="-136" font-family="FreeSans.ttf" font-size="10.00" fill="#000000">ModelTestUtils.h</text>
</a>
</g>
</g>
<!-- Node52&#45;&gt;Node55 -->
<g id="edge27" class="edge">
<title>Node52&#45;&gt;Node55</title>
<path fill="none" stroke="#191970" d="M1311.268,-189.9707C1582.7049,-161.8131 1656.2913,-196.8656 1922,-154 1930.8492,-152.5724 1940.2984,-150.3547 1948.9458,-148.0389"/>
<polygon fill="#191970" stroke="#191970" points="1310.6903,-186.5121 1301.1135,-191.0438 1311.426,-193.4734 1310.6903,-186.5121"/>
</g>
<!-- Node57 -->
<g id="node23" class="node">
<title>Node57</title>
<g id="a_node23"><a xlink:href="DenavitHartenberg_8cpp.html" target="_top" xlink:title="DenavitHartenberg.cpp">
<polygon fill="none" stroke="#000000" points="1345,-129 1345,-148 1475,-148 1475,-129 1345,-129"/>
<text text-anchor="middle" x="1410" y="-136" font-family="FreeSans.ttf" font-size="10.00" fill="#000000">DenavitHartenberg.cpp</text>
</a>
</g>
</g>
<!-- Node52&#45;&gt;Node57 -->
<g id="edge29" class="edge">
<title>Node52&#45;&gt;Node57</title>
<path fill="none" stroke="#191970" d="M1281.2018,-186.7993C1312.2752,-175.1468 1356.8262,-158.4402 1384.5549,-148.0419"/>
<polygon fill="#191970" stroke="#191970" points="1279.7593,-183.6022 1271.625,-190.3906 1282.2173,-190.1565 1279.7593,-183.6022"/>
</g>
<!-- Node58 -->
<g id="node24" class="node">
<title>Node58</title>
<g id="a_node24"><a xlink:href="ForwardKinematics_8cpp.html" target="_top" xlink:title="ForwardKinematics.cpp">
<polygon fill="none" stroke="#000000" points="1493.5,-129 1493.5,-148 1624.5,-148 1624.5,-129 1493.5,-129"/>
<text text-anchor="middle" x="1559" y="-136" font-family="FreeSans.ttf" font-size="10.00" fill="#000000">ForwardKinematics.cpp</text>
</a>
</g>
</g>
<!-- Node52&#45;&gt;Node58 -->
<g id="edge32" class="edge">
<title>Node52&#45;&gt;Node58</title>
<path fill="none" stroke="#191970" d="M1306.1249,-188.6009C1354.2692,-179.4198 1423.513,-166.0952 1484,-154 1493.5177,-152.0968 1503.7058,-150.0187 1513.4082,-148.0201"/>
<polygon fill="#191970" stroke="#191970" points="1305.3507,-185.1854 1296.1825,-190.4952 1306.6609,-192.0617 1305.3507,-185.1854"/>
</g>
<!-- Node59 -->
<g id="node25" class="node">
<title>Node59</title>
<g id="a_node25"><a xlink:href="FreeFloatingState_8cpp.html" target="_top" xlink:title="FreeFloatingState.cpp">
<polygon fill="none" stroke="#000000" points="1643,-129 1643,-148 1765,-148 1765,-129 1643,-129"/>
<text text-anchor="middle" x="1704" y="-136" font-family="FreeSans.ttf" font-size="10.00" fill="#000000">FreeFloatingState.cpp</text>
</a>
</g>
</g>
<!-- Node52&#45;&gt;Node59 -->
<g id="edge33" class="edge">
<title>Node52&#45;&gt;Node59</title>
<path fill="none" stroke="#191970" d="M1311.2089,-189.8942C1454.8975,-171.1268 1493.6708,-176.9093 1633,-154 1643.0841,-152.3419 1653.8949,-150.1813 1663.963,-148.0022"/>
<polygon fill="#191970" stroke="#191970" points="1310.5899,-186.4455 1301.1356,-191.2274 1311.5084,-193.385 1310.5899,-186.4455"/>
</g>
<!-- Node60 -->
<g id="node26" class="node">
<title>Node60</title>
<g id="a_node26"><a xlink:href="ModelTransformers_8cpp.html" target="_top" xlink:title="ModelTransformers.cpp">
<polygon fill="none" stroke="#000000" points="1783,-129 1783,-148 1913,-148 1913,-129 1783,-129"/>
<text text-anchor="middle" x="1848" y="-136" font-family="FreeSans.ttf" font-size="10.00" fill="#000000">ModelTransformers.cpp</text>
</a>
</g>
</g>
<!-- Node52&#45;&gt;Node60 -->
<g id="edge34" class="edge">
<title>Node52&#45;&gt;Node60</title>
<path fill="none" stroke="#191970" d="M1311.3576,-189.9291C1517.2195,-166.5599 1572.5379,-182.7918 1774,-154 1784.785,-152.4587 1796.3553,-150.2875 1807.0681,-148.0569"/>
<polygon fill="#191970" stroke="#191970" points="1310.6541,-186.4869 1301.1209,-191.1095 1311.456,-193.4409 1310.6541,-186.4869"/>
</g>
<!-- Node53&#45;&gt;Node44 -->
<g id="edge22" class="edge">
<title>Node53&#45;&gt;Node44</title>
<path fill="none" stroke="#191970" d="M1207.9268,-126.1553C1203.2706,-124.9417 1198.5509,-123.8481 1194,-123 994.1433,-85.7565 939.1517,-116.458 738,-87 727.4993,-85.4622 716.2392,-83.2923 705.8159,-81.0617"/>
<polygon fill="#191970" stroke="#191970" points="1207.3546,-129.6296 1217.928,-128.9552 1209.2418,-122.8888 1207.3546,-129.6296"/>
</g>
<!-- Node54 -->
<g id="node20" class="node">
<title>Node54</title>
<g id="a_node20"><a xlink:href="BerdySparseMAPSolver_8cpp.html" target="_top" xlink:title="BerdySparseMAPSolver.cpp">
<polygon fill="none" stroke="#000000" points="1140.5,-62 1140.5,-81 1289.5,-81 1289.5,-62 1140.5,-62"/>
<text text-anchor="middle" x="1215" y="-69" font-family="FreeSans.ttf" font-size="10.00" fill="#000000">BerdySparseMAPSolver.cpp</text>
</a>
</g>
</g>
<!-- Node53&#45;&gt;Node54 -->
<g id="edge23" class="edge">
<title>Node53&#45;&gt;Node54</title>
<path fill="none" stroke="#191970" d="M1237.3188,-119.7374C1231.5,-107.1614 1224.0801,-91.1246 1219.4333,-81.0817"/>
<polygon fill="#191970" stroke="#191970" points="1234.1828,-121.2946 1241.5585,-128.9005 1240.5357,-118.3552 1234.1828,-121.2946"/>
</g>
<!-- Node56 -->
<g id="node22" class="node">
<title>Node56</title>
<g id="a_node22"><a xlink:href="urdf2dh_8cpp.html" target="_top" xlink:title="urdf2dh.cpp">
<polygon fill="none" stroke="#000000" points="1943,-62 1943,-81 2017,-81 2017,-62 1943,-62"/>
<text text-anchor="middle" x="1980" y="-69" font-family="FreeSans.ttf" font-size="10.00" fill="#000000">urdf2dh.cpp</text>
</a>
</g>
</g>
<!-- Node55&#45;&gt;Node56 -->
<g id="edge28" class="edge">
<title>Node55&#45;&gt;Node56</title>
<path fill="none" stroke="#191970" d="M1980,-118.6079C1980,-106.214 1980,-90.8263 1980,-81.0817"/>
<polygon fill="#191970" stroke="#191970" points="1976.5001,-118.9005 1980,-128.9005 1983.5001,-118.9006 1976.5001,-118.9005"/>
</g>
<!-- Node64 -->
<g id="node30" class="node">
<title>Node64</title>
<g id="a_node30"><a xlink:href="idyntree-model-view_8cpp.html" target="_top" xlink:title="idyntree&#45;model&#45;view.cpp">
<polygon fill="none" stroke="#000000" points="2218,-129 2218,-148 2356,-148 2356,-129 2218,-129"/>
<text text-anchor="middle" x="2287" y="-136" font-family="FreeSans.ttf" font-size="10.00" fill="#000000">idyntree&#45;model&#45;view.cpp</text>
</a>
</g>
</g>
<!-- Node63&#45;&gt;Node64 -->
<g id="edge40" class="edge">
<title>Node63&#45;&gt;Node64</title>
<path fill="none" stroke="#191970" d="M2497.475,-188.8666C2448.705,-177.1959 2372.8896,-159.0533 2326.8011,-148.0244"/>
<polygon fill="#191970" stroke="#191970" points="2496.9111,-192.3304 2507.4511,-191.2539 2498.5403,-185.5226 2496.9111,-192.3304"/>
</g>
<!-- Node65 -->
<g id="node31" class="node">
<title>Node65</title>
<g id="a_node31"><a xlink:href="Camera_8h.html" target="_top" xlink:title="Camera.h">
<polygon fill="none" stroke="#000000" points="2648,-62 2648,-81 2712,-81 2712,-62 2648,-62"/>
<text text-anchor="middle" x="2680" y="-69" font-family="FreeSans.ttf" font-size="10.00" fill="#000000">Camera.h</text>
</a>
</g>
</g>
<!-- Node63&#45;&gt;Node65 -->
<g id="edge41" class="edge">
<title>Node63&#45;&gt;Node65</title>
<path fill="none" stroke="#191970" d="M2590.4228,-192.464C2614.7669,-186.1636 2643.1551,-174.7077 2661,-154 2679.1341,-132.9567 2680.8482,-98.0177 2680.5033,-81.1708"/>
<polygon fill="#191970" stroke="#191970" points="2589.5523,-189.0733 2580.6291,-194.7853 2591.1667,-195.8846 2589.5523,-189.0733"/>
</g>
<!-- Node67 -->
<g id="node33" class="node">
<title>Node67</title>
<g id="a_node33"><a xlink:href="IrrlichtUtils_8h.html" target="_top" xlink:title="IrrlichtUtils.h">
<polygon fill="none" stroke="#000000" points="2483,-62 2483,-81 2563,-81 2563,-62 2483,-62"/>
<text text-anchor="middle" x="2523" y="-69" font-family="FreeSans.ttf" font-size="10.00" fill="#000000">IrrlichtUtils.h</text>
</a>
</g>
</g>
<!-- Node63&#45;&gt;Node67 -->
<g id="edge43" class="edge">
<title>Node63&#45;&gt;Node67</title>
<path fill="none" stroke="#191970" d="M2531.0412,-182.1178C2525.9067,-173.9634 2520.6112,-163.9266 2518,-154 2511.2832,-128.4661 2516.8048,-97.0176 2520.442,-81.3475"/>
<polygon fill="#191970" stroke="#191970" points="2528.136,-184.0697 2536.6181,-190.4183 2533.9463,-180.1658 2528.136,-184.0697"/>
</g>
<!-- Node74 -->
<g id="node40" class="node">
<title>Node74</title>
<g id="a_node40"><a xlink:href="FloorGridSceneNode_8h.html" target="_top" xlink:title="FloorGridSceneNode.h">
<polygon fill="none" stroke="#000000" points="2526.5,-129 2526.5,-148 2651.5,-148 2651.5,-129 2526.5,-129"/>
<text text-anchor="middle" x="2589" y="-136" font-family="FreeSans.ttf" font-size="10.00" fill="#000000">FloorGridSceneNode.h</text>
</a>
</g>
</g>
<!-- Node63&#45;&gt;Node74 -->
<g id="edge51" class="edge">
<title>Node63&#45;&gt;Node74</title>
<path fill="none" stroke="#191970" d="M2556.9904,-182.2465C2565.0896,-171.1775 2575.2035,-157.3552 2581.8696,-148.2449"/>
<polygon fill="#191970" stroke="#191970" points="2554.1118,-180.2535 2551.0313,-190.3906 2559.761,-184.3871 2554.1118,-180.2535"/>
</g>
<!-- Node75 -->
<g id="node41" class="node">
<title>Node75</title>
<g id="a_node41"><a xlink:href="DummyImplementations_8h.html" target="_top" xlink:title="DummyImplementations.h">
<polygon fill="none" stroke="#000000" points="2814,-129 2814,-148 2962,-148 2962,-129 2814,-129"/>
<text text-anchor="middle" x="2888" y="-136" font-family="FreeSans.ttf" font-size="10.00" fill="#000000">DummyImplementations.h</text>
</a>
</g>
</g>
<!-- Node63&#45;&gt;Node75 -->
<g id="edge54" class="edge">
<title>Node63&#45;&gt;Node75</title>
<path fill="none" stroke="#191970" d="M2590.9609,-191.6044C2654.5808,-180.2305 2767.8562,-159.9792 2834.6274,-148.0419"/>
<polygon fill="#191970" stroke="#191970" points="2590.042,-188.2131 2580.814,-193.4184 2591.2739,-195.1038 2590.042,-188.2131"/>
</g>
<!-- Node76 -->
<g id="node42" class="node">
<title>Node76</title>
<g id="a_node42"><a xlink:href="Environment_8h.html" target="_top" xlink:title="Environment.h">
<polygon fill="none" stroke="#000000" points="2801,-62 2801,-81 2889,-81 2889,-62 2801,-62"/>
<text text-anchor="middle" x="2845" y="-69" font-family="FreeSans.ttf" font-size="10.00" fill="#000000">Environment.h</text>
</a>
</g>
</g>
<!-- Node63&#45;&gt;Node76 -->
<g id="edge58" class="edge">
<title>Node63&#45;&gt;Node76</title>
<path fill="none" stroke="#191970" d="M2590.8701,-193.7103C2647.0495,-185.5918 2737.3374,-170.5308 2767,-154 2783.9595,-144.5486 2821.0072,-100.7888 2837.183,-81.1203"/>
<polygon fill="#191970" stroke="#191970" points="2590.2062,-190.2695 2580.7994,-195.1442 2591.193,-197.1996 2590.2062,-190.2695"/>
</g>
<!-- Node63&#45;&gt;Node77 -->
<g id="edge70" class="edge">
<title>Node63&#45;&gt;Node77</title>
<path fill="none" stroke="#191970" d="M2590.693,-197.9905C2695.5913,-193.0518 2942.9702,-178.877 2971,-154 2991.9962,-135.3654 2992.2386,-98.613 2991.0081,-81.151"/>
<polygon fill="#191970" stroke="#191970" points="2590.5284,-194.4942 2580.7011,-198.4532 2590.8523,-201.4867 2590.5284,-194.4942"/>
</g>
<!-- Node78 -->
<g id="node44" class="node">
<title>Node78</title>
<g id="a_node44"><a xlink:href="Light_8h.html" target="_top" xlink:title="Light.h">
<polygon fill="none" stroke="#000000" points="2708,-129 2708,-148 2758,-148 2758,-129 2708,-129"/>
<text text-anchor="middle" x="2733" y="-136" font-family="FreeSans.ttf" font-size="10.00" fill="#000000">Light.h</text>
</a>
</g>
</g>
<!-- Node63&#45;&gt;Node78 -->
<g id="edge59" class="edge">
<title>Node63&#45;&gt;Node78</title>
<path fill="none" stroke="#191970" d="M2587.6835,-187.6159C2617.772,-178.8394 2658.5596,-166.454 2694,-154 2699.0867,-152.2125 2704.4914,-150.1633 2709.6052,-148.153"/>
<polygon fill="#191970" stroke="#191970" points="2586.5427,-184.3025 2577.913,-190.4488 2588.4921,-191.0256 2586.5427,-184.3025"/>
</g>
<!-- Node79 -->
<g id="node45" class="node">
<title>Node79</title>
<g id="a_node45"><a xlink:href="JetsVisualization_8h.html" target="_top" xlink:title="JetsVisualization.h">
<polygon fill="none" stroke="#000000" points="2206.5,-62 2206.5,-81 2313.5,-81 2313.5,-62 2206.5,-62"/>
<text text-anchor="middle" x="2260" y="-69" font-family="FreeSans.ttf" font-size="10.00" fill="#000000">JetsVisualization.h</text>
</a>
</g>
</g>
<!-- Node63&#45;&gt;Node79 -->
<g id="edge62" class="edge">
<title>Node63&#45;&gt;Node79</title>
<path fill="none" stroke="#191970" d="M2516.4065,-185.6588C2499.0476,-176.6164 2476.1895,-164.672 2456,-154 2430.1592,-140.3408 2424.6404,-135.0254 2398,-123 2361.1738,-106.3767 2317.2379,-90.6554 2288.9962,-81.0548"/>
<polygon fill="#191970" stroke="#191970" points="2514.9465,-188.8446 2525.4328,-190.3574 2518.1786,-182.6354 2514.9465,-188.8446"/>
</g>
<!-- Node80 -->
<g id="node46" class="node">
<title>Node80</title>
<g id="a_node46"><a xlink:href="ModelVisualization_8h.html" target="_top" xlink:title="ModelVisualization.h">
<polygon fill="none" stroke="#000000" points="2070,-62 2070,-81 2188,-81 2188,-62 2070,-62"/>
<text text-anchor="middle" x="2129" y="-69" font-family="FreeSans.ttf" font-size="10.00" fill="#000000">ModelVisualization.h</text>
</a>
</g>
</g>
<!-- Node63&#45;&gt;Node80 -->
<g id="edge65" class="edge">
<title>Node63&#45;&gt;Node80</title>
<path fill="none" stroke="#191970" d="M2497.5768,-190.997C2467.7336,-183.8873 2428.9068,-172.096 2398,-154 2380.6345,-143.8325 2382.8246,-132.3393 2365,-123 2297.3604,-87.56 2271.5609,-103.4857 2197,-87 2188.3693,-85.0917 2179.1315,-83.0114 2170.3345,-81.0123"/>
<polygon fill="#191970" stroke="#191970" points="2496.7996,-194.4096 2507.3287,-193.231 2498.3628,-187.5863 2496.7996,-194.4096"/>
</g>
<!-- Node81 -->
<g id="node47" class="node">
<title>Node81</title>
<g id="a_node47"><a xlink:href="VectorsVisualization_8h.html" target="_top" xlink:title="VectorsVisualization.h">
<polygon fill="none" stroke="#000000" points="2339.5,-62 2339.5,-81 2464.5,-81 2464.5,-62 2339.5,-62"/>
<text text-anchor="middle" x="2402" y="-69" font-family="FreeSans.ttf" font-size="10.00" fill="#000000">VectorsVisualization.h</text>
</a>
</g>
</g>
<!-- Node63&#45;&gt;Node81 -->
<g id="edge68" class="edge">
<title>Node63&#45;&gt;Node81</title>
<path fill="none" stroke="#191970" d="M2525.6765,-183.4185C2495.6685,-156.2634 2436.9696,-103.145 2412.7969,-81.2705"/>
<polygon fill="#191970" stroke="#191970" points="2523.5637,-186.2269 2533.3269,-190.3416 2528.2606,-181.0366 2523.5637,-186.2269"/>
</g>
<!-- Node66 -->
<g id="node32" class="node">
<title>Node66</title>
<g id="a_node32"><a xlink:href="Camera_8cpp.html" target="_top" xlink:title="Camera.cpp">
<polygon fill="none" stroke="#000000" points="2642.5,-.5 2642.5,-19.5 2717.5,-19.5 2717.5,-.5 2642.5,-.5"/>
<text text-anchor="middle" x="2680" y="-7.5" font-family="FreeSans.ttf" font-size="10.00" fill="#000000">Camera.cpp</text>
</a>
</g>
</g>
<!-- Node65&#45;&gt;Node66 -->
<g id="edge42" class="edge">
<title>Node65&#45;&gt;Node66</title>
<path fill="none" stroke="#191970" d="M2680,-51.7462C2680,-41.0519 2680,-28.314 2680,-19.7449"/>
<polygon fill="#191970" stroke="#191970" points="2676.5001,-51.8906 2680,-61.8906 2683.5001,-51.8907 2676.5001,-51.8906"/>
</g>
<!-- Node67&#45;&gt;Node66 -->
<g id="edge44" class="edge">
<title>Node67&#45;&gt;Node66</title>
<path fill="none" stroke="#191970" d="M2557.0863,-58.1477C2586.8153,-46.5023 2629.2107,-29.8952 2655.641,-19.5419"/>
<polygon fill="#191970" stroke="#191970" points="2555.5658,-54.9843 2547.5313,-61.8906 2558.119,-61.5021 2555.5658,-54.9843"/>
</g>
<!-- Node68 -->
<g id="node34" class="node">
<title>Node68</title>
<g id="a_node34"><a xlink:href="Environment_8cpp.html" target="_top" xlink:title="Environment.cpp">
<polygon fill="none" stroke="#000000" points="2814.5,-.5 2814.5,-19.5 2913.5,-19.5 2913.5,-.5 2814.5,-.5"/>
<text text-anchor="middle" x="2864" y="-7.5" font-family="FreeSans.ttf" font-size="10.00" fill="#000000">Environment.cpp</text>
</a>
</g>
</g>
<!-- Node67&#45;&gt;Node68 -->
<g id="edge45" class="edge">
<title>Node67&#45;&gt;Node68</title>
<path fill="none" stroke="#191970" d="M2573.0899,-62.4662C2637.8331,-50.7896 2749.8875,-30.5804 2814.3939,-18.9465"/>
<polygon fill="#191970" stroke="#191970" points="2572.3398,-59.0449 2563.1198,-64.2643 2573.5822,-65.9338 2572.3398,-59.0449"/>
</g>
<!-- Node69 -->
<g id="node35" class="node">
<title>Node69</title>
<g id="a_node35"><a xlink:href="FloorGridSceneNode_8cpp.html" target="_top" xlink:title="FloorGridSceneNode.cpp">
<polygon fill="none" stroke="#000000" points="2488,-.5 2488,-19.5 2624,-19.5 2624,-.5 2488,-.5"/>
<text text-anchor="middle" x="2556" y="-7.5" font-family="FreeSans.ttf" font-size="10.00" fill="#000000">FloorGridSceneNode.cpp</text>
</a>
</g>
</g>
<!-- Node67&#45;&gt;Node69 -->
<g id="edge46" class="edge">
<title>Node67&#45;&gt;Node69</title>
<path fill="none" stroke="#191970" d="M2533.0593,-52.753C2538.9041,-41.8606 2546.0278,-28.5846 2550.7711,-19.7449"/>
<polygon fill="#191970" stroke="#191970" points="2529.8004,-51.4241 2528.1563,-61.8906 2535.9685,-54.7339 2529.8004,-51.4241"/>
</g>
<!-- Node70 -->
<g id="node36" class="node">
<title>Node70</title>
<g id="a_node36"><a xlink:href="JetsVisualization_8cpp.html" target="_top" xlink:title="JetsVisualization.cpp">
<polygon fill="none" stroke="#000000" points="2050,-.5 2050,-19.5 2168,-19.5 2168,-.5 2050,-.5"/>
<text text-anchor="middle" x="2109" y="-7.5" font-family="FreeSans.ttf" font-size="10.00" fill="#000000">JetsVisualization.cpp</text>
</a>
</g>
</g>
<!-- Node67&#45;&gt;Node70 -->
<g id="edge47" class="edge">
<title>Node67&#45;&gt;Node70</title>
<path fill="none" stroke="#191970" d="M2486.1117,-59.0314C2482.0529,-57.8992 2477.958,-56.8581 2474,-56 2344.0527,-27.8275 2308.7863,-37.6743 2177,-20 2174.1616,-19.6193 2171.2578,-19.2222 2168.3257,-18.8149"/>
<polygon fill="#191970" stroke="#191970" points="2485.4451,-62.4846 2496.028,-61.9812 2487.441,-55.7752 2485.4451,-62.4846"/>
</g>
<!-- Node71 -->
<g id="node37" class="node">
<title>Node71</title>
<g id="a_node37"><a xlink:href="Light_8cpp.html" target="_top" xlink:title="Light.cpp">
<polygon fill="none" stroke="#000000" points="2735.5,-.5 2735.5,-19.5 2796.5,-19.5 2796.5,-.5 2735.5,-.5"/>
<text text-anchor="middle" x="2766" y="-7.5" font-family="FreeSans.ttf" font-size="10.00" fill="#000000">Light.cpp</text>
</a>
</g>
</g>
<!-- Node67&#45;&gt;Node71 -->
<g id="edge48" class="edge">
<title>Node67&#45;&gt;Node71</title>
<path fill="none" stroke="#191970" d="M2570.7886,-59.4891C2612.1389,-49.0835 2673.5298,-33.6044 2727,-20 2729.7096,-19.3106 2732.5246,-18.5925 2735.3459,-17.8715"/>
<polygon fill="#191970" stroke="#191970" points="2569.8285,-56.1215 2560.9847,-61.9556 2571.5365,-62.9099 2569.8285,-56.1215"/>
</g>
<!-- Node72 -->
<g id="node38" class="node">
<title>Node72</title>
<g id="a_node38"><a xlink:href="ModelVisualization_8cpp.html" target="_top" xlink:title="ModelVisualization.cpp">
<polygon fill="none" stroke="#000000" points="2186.5,-.5 2186.5,-19.5 2315.5,-19.5 2315.5,-.5 2186.5,-.5"/>
<text text-anchor="middle" x="2251" y="-7.5" font-family="FreeSans.ttf" font-size="10.00" fill="#000000">ModelVisualization.cpp</text>
</a>
</g>
</g>
<!-- Node67&#45;&gt;Node72 -->
<g id="edge49" class="edge">
<title>Node67&#45;&gt;Node72</title>
<path fill="none" stroke="#191970" d="M2484.9757,-59.0515C2481.2811,-57.9688 2477.5778,-56.9322 2474,-56 2416.8116,-41.0988 2350.366,-27.914 2304.9788,-19.5228"/>
<polygon fill="#191970" stroke="#191970" points="2484.057,-62.4302 2494.6424,-61.9851 2486.0898,-55.7319 2484.057,-62.4302"/>
</g>
<!-- Node73 -->
<g id="node39" class="node">
<title>Node73</title>
<g id="a_node39"><a xlink:href="VectorsVisualization_8cpp.html" target="_top" xlink:title="VectorsVisualization.cpp">
<polygon fill="none" stroke="#000000" points="2334,-.5 2334,-19.5 2470,-19.5 2470,-.5 2334,-.5"/>
<text text-anchor="middle" x="2402" y="-7.5" font-family="FreeSans.ttf" font-size="10.00" fill="#000000">VectorsVisualization.cpp</text>
</a>
</g>
</g>
<!-- Node67&#45;&gt;Node73 -->
<g id="edge50" class="edge">
<title>Node67&#45;&gt;Node73</title>
<path fill="none" stroke="#191970" d="M2494.917,-57.2264C2472.1211,-45.6401 2440.6119,-29.6251 2420.7735,-19.5419"/>
<polygon fill="#191970" stroke="#191970" points="2493.5933,-60.4797 2504.0938,-61.8906 2496.765,-54.2395 2493.5933,-60.4797"/>
</g>
<!-- Node74&#45;&gt;Node67 -->
<g id="edge52" class="edge">
<title>Node74&#45;&gt;Node67</title>
<path fill="none" stroke="#191970" d="M2572.3311,-121.5785C2559.7077,-108.7639 2542.8215,-91.6218 2532.4386,-81.0817"/>
<polygon fill="#191970" stroke="#191970" points="2570.0327,-124.2327 2579.5438,-128.9005 2575.0195,-119.3203 2570.0327,-124.2327"/>
</g>
<!-- Node74&#45;&gt;Node69 -->
<g id="edge53" class="edge">
<title>Node74&#45;&gt;Node69</title>
<path fill="none" stroke="#191970" d="M2585.638,-118.4884C2582.6316,-101.6719 2577.8099,-77.0765 2572,-56 2568.4947,-43.2838 2563.3201,-28.984 2559.8123,-19.7525"/>
<polygon fill="#191970" stroke="#191970" points="2582.2603,-119.4949 2587.4191,-128.7489 2589.1571,-118.2976 2582.2603,-119.4949"/>
</g>
<!-- Node75&#45;&gt;Node76 -->
<g id="edge55" class="edge">
<title>Node75&#45;&gt;Node76</title>
<path fill="none" stroke="#191970" d="M2876.4351,-120.4803C2868.2963,-107.7989 2857.7225,-91.3235 2851.1494,-81.0817"/>
<polygon fill="#191970" stroke="#191970" points="2873.4923,-122.3751 2881.8391,-128.9005 2879.3834,-118.5942 2873.4923,-122.3751"/>
</g>
<!-- Node75&#45;&gt;Node77 -->
<g id="edge57" class="edge">
<title>Node75&#45;&gt;Node77</title>
<path fill="none" stroke="#191970" d="M2911.0461,-123.3619C2930.7856,-110.3957 2958.6099,-92.119 2975.413,-81.0817"/>
<polygon fill="#191970" stroke="#191970" points="2909.0507,-120.485 2902.6141,-128.9005 2912.8938,-126.3357 2909.0507,-120.485"/>
</g>
<!-- Node76&#45;&gt;Node68 -->
<g id="edge56" class="edge">
<title>Node76&#45;&gt;Node68</title>
<path fill="none" stroke="#191970" d="M2850.9987,-52.0832C2854.3237,-41.3205 2858.3141,-28.4042 2860.9894,-19.7449"/>
<polygon fill="#191970" stroke="#191970" points="2847.5765,-51.3031 2847.9688,-61.8906 2854.2646,-53.3693 2847.5765,-51.3031"/>
</g>
<!-- Node78&#45;&gt;Node71 -->
<g id="edge61" class="edge">
<title>Node78&#45;&gt;Node71</title>
<path fill="none" stroke="#191970" d="M2737.9963,-119.0446C2745.1553,-91.1679 2758.0653,-40.8972 2763.4909,-19.7705"/>
<polygon fill="#191970" stroke="#191970" points="2734.5778,-118.2853 2735.4804,-128.8416 2741.3578,-120.0265 2734.5778,-118.2853"/>
</g>
<!-- Node78&#45;&gt;Node76 -->
<g id="edge60" class="edge">
<title>Node78&#45;&gt;Node76</title>
<path fill="none" stroke="#191970" d="M2757.7219,-123.711C2779.4288,-110.7256 2810.3662,-92.2184 2828.9829,-81.0817"/>
<polygon fill="#191970" stroke="#191970" points="2755.8318,-120.7632 2749.0469,-128.9005 2759.4254,-126.7704 2755.8318,-120.7632"/>
</g>
<!-- Node79&#45;&gt;Node70 -->
<g id="edge63" class="edge">
<title>Node79&#45;&gt;Node70</title>
<path fill="none" stroke="#191970" d="M2226.8427,-57.9955C2198.2692,-46.358 2157.7377,-29.8501 2132.4281,-19.5419"/>
<polygon fill="#191970" stroke="#191970" points="2225.8247,-61.36 2236.4063,-61.8906 2228.4651,-54.8771 2225.8247,-61.36"/>
</g>
<!-- Node79&#45;&gt;Node72 -->
<g id="edge64" class="edge">
<title>Node79&#45;&gt;Node72</title>
<path fill="none" stroke="#191970" d="M2257.1092,-51.7462C2255.5442,-41.0519 2253.6801,-28.314 2252.4261,-19.7449"/>
<polygon fill="#191970" stroke="#191970" points="2253.6826,-52.5028 2258.5938,-61.8906 2260.6088,-51.4892 2253.6826,-52.5028"/>
</g>
<!-- Node80&#45;&gt;Node70 -->
<g id="edge66" class="edge">
<title>Node80&#45;&gt;Node70</title>
<path fill="none" stroke="#191970" d="M2122.6856,-52.0832C2119.1855,-41.3205 2114.9851,-28.4042 2112.1691,-19.7449"/>
<polygon fill="#191970" stroke="#191970" points="2119.4539,-53.4633 2125.875,-61.8906 2126.1107,-51.2984 2119.4539,-53.4633"/>
</g>
<!-- Node80&#45;&gt;Node72 -->
<g id="edge67" class="edge">
<title>Node80&#45;&gt;Node72</title>
<path fill="none" stroke="#191970" d="M2157.0078,-57.3813C2180.0155,-45.7832 2211.9797,-29.6701 2232.0714,-19.5419"/>
<polygon fill="#191970" stroke="#191970" points="2155.4166,-54.2638 2148.0625,-61.8906 2158.5676,-60.5145 2155.4166,-54.2638"/>
</g>
<!-- Node81&#45;&gt;Node73 -->
<g id="edge69" class="edge">
<title>Node81&#45;&gt;Node73</title>
<path fill="none" stroke="#191970" d="M2402,-51.7462C2402,-41.0519 2402,-28.314 2402,-19.7449"/>
<polygon fill="#191970" stroke="#191970" points="2398.5001,-51.8906 2402,-61.8906 2405.5001,-51.8907 2398.5001,-51.8906"/>
</g>
</g>
</svg>
