<?xml version="1.0" encoding="UTF-8" standalone="no"?>
<!DOCTYPE svg PUBLIC "-//W3C//DTD SVG 1.1//EN"
 "http://www.w3.org/Graphics/SVG/1.1/DTD/svg11.dtd">
<!-- Generated by graphviz version 2.40.1 (20161225.0304)
 -->
<!-- Title: L2NormCost.cpp Pages: 1 -->
<svg width="2363pt" height="632pt"
 viewBox="0.00 0.00 2362.50 632.00" xmlns="http://www.w3.org/2000/svg" xmlns:xlink="http://www.w3.org/1999/xlink">
<g id="graph0" class="graph" transform="scale(1 1) rotate(0) translate(4 628)">
<title>L2NormCost.cpp</title>
<!-- Node0 -->
<g id="node1" class="node">
<title>Node0</title>
<polygon fill="#bfbfbf" stroke="#000000" points="1138,-604.5 1138,-623.5 1235,-623.5 1235,-604.5 1138,-604.5"/>
<text text-anchor="middle" x="1186.5" y="-611.5" font-family="FreeSans.ttf" font-size="10.00" fill="#000000">L2NormCost.cpp</text>
</g>
<!-- Node1 -->
<g id="node2" class="node">
<title>Node1</title>
<g id="a_node2"><a xlink:href="L2NormCost_8h.html" target="_top" xlink:title="iDynTree/L2NormCost.h">
<polygon fill="none" stroke="#000000" points="296,-487 296,-506 427,-506 427,-487 296,-487"/>
<text text-anchor="middle" x="361.5" y="-494" font-family="FreeSans.ttf" font-size="10.00" fill="#000000">iDynTree/L2NormCost.h</text>
</a>
</g>
</g>
<!-- Node0&#45;&gt;Node1 -->
<g id="edge1" class="edge">
<title>Node0&#45;&gt;Node1</title>
<path fill="none" stroke="#191970" d="M1137.9863,-608.3012C1018.9955,-594.1184 703.2883,-555.2478 441.5,-512 434.027,-510.7655 426.1807,-509.3693 418.4441,-507.9332"/>
<polygon fill="#191970" stroke="#191970" points="418.8532,-504.4487 408.3774,-506.0325 417.5544,-511.3272 418.8532,-504.4487"/>
</g>
<!-- Node5 -->
<g id="node6" class="node">
<title>Node5</title>
<g id="a_node6"><a xlink:href="Utils_8h.html" target="_top" xlink:title="iDynTree/Core/Utils.h">
<polygon fill="none" stroke="#000000" points="1690,-56.5 1690,-75.5 1809,-75.5 1809,-56.5 1690,-56.5"/>
<text text-anchor="middle" x="1749.5" y="-63.5" font-family="FreeSans.ttf" font-size="10.00" fill="#000000">iDynTree/Core/Utils.h</text>
</a>
</g>
</g>
<!-- Node0&#45;&gt;Node5 -->
<g id="edge66" class="edge">
<title>Node0&#45;&gt;Node5</title>
<path fill="none" stroke="#191970" d="M1235.0675,-612.8954C1424.9868,-608.4275 2111.6034,-590.8363 2206.5,-568 2277.5241,-550.9085 2354.5,-569.5516 2354.5,-496.5 2354.5,-496.5 2354.5,-496.5 2354.5,-178 2354.5,-124.1046 1978.4904,-85.5782 1819.3293,-71.6846"/>
<polygon fill="#191970" stroke="#191970" points="1819.43,-68.1803 1809.1655,-70.8051 1818.8265,-75.1542 1819.43,-68.1803"/>
</g>
<!-- Node10 -->
<g id="node11" class="node">
<title>Node10</title>
<g id="a_node11"><a xlink:href="VectorDynSize_8h.html" target="_top" xlink:title="iDynTree/Core/VectorDynSize.h">
<polygon fill="none" stroke="#000000" points="935,-358.5 935,-377.5 1102,-377.5 1102,-358.5 935,-358.5"/>
<text text-anchor="middle" x="1018.5" y="-365.5" font-family="FreeSans.ttf" font-size="10.00" fill="#000000">iDynTree/Core/VectorDynSize.h</text>
</a>
</g>
</g>
<!-- Node0&#45;&gt;Node10 -->
<g id="edge65" class="edge">
<title>Node0&#45;&gt;Node10</title>
<path fill="none" stroke="#191970" d="M1181.3881,-604.4175C1174.3576,-591.4089 1161.1346,-567.5417 1148.5,-548 1108.8778,-486.7172 1056.7648,-417.6365 1032.3028,-385.8044"/>
<polygon fill="#191970" stroke="#191970" points="1034.7843,-383.2909 1025.9057,-377.5099 1029.2414,-387.5659 1034.7843,-383.2909"/>
</g>
<!-- Node11 -->
<g id="node12" class="node">
<title>Node11</title>
<g id="a_node12"><a xlink:href="Span_8h.html" target="_top" xlink:title="iDynTree/Core/Span.h">
<polygon fill="none" stroke="#000000" points="1422,-112.5 1422,-131.5 1543,-131.5 1543,-112.5 1422,-112.5"/>
<text text-anchor="middle" x="1482.5" y="-119.5" font-family="FreeSans.ttf" font-size="10.00" fill="#000000">iDynTree/Core/Span.h</text>
</a>
</g>
</g>
<!-- Node0&#45;&gt;Node11 -->
<g id="edge67" class="edge">
<title>Node0&#45;&gt;Node11</title>
<path fill="none" stroke="#191970" d="M1235.4177,-612.1131C1348.971,-607.4373 1639.1651,-593.7853 1880.5,-568 2059.2035,-548.9065 2278.5,-676.2206 2278.5,-496.5 2278.5,-496.5 2278.5,-496.5 2278.5,-368 2278.5,-216.9291 1748.522,-148.6086 1553.4547,-128.5787"/>
<polygon fill="#191970" stroke="#191970" points="1553.6127,-125.0768 1543.3105,-127.5497 1552.9062,-132.0411 1553.6127,-125.0768"/>
</g>
<!-- Node12 -->
<g id="node13" class="node">
<title>Node12</title>
<polygon fill="none" stroke="#bfbfbf" points="1072.5,-56.5 1072.5,-75.5 1124.5,-75.5 1124.5,-56.5 1072.5,-56.5"/>
<text text-anchor="middle" x="1098.5" y="-63.5" font-family="FreeSans.ttf" font-size="10.00" fill="#000000">cassert</text>
</g>
<!-- Node0&#45;&gt;Node12 -->
<g id="edge68" class="edge">
<title>Node0&#45;&gt;Node12</title>
<path fill="none" stroke="#191970" d="M1235.125,-612.9189C1397.7666,-609.0837 1921.9003,-594.8961 2088.5,-568 2193.3417,-551.0742 2316.5,-602.6992 2316.5,-496.5 2316.5,-496.5 2316.5,-496.5 2316.5,-368 2316.5,-83.2623 1716.8833,-184.7681 1413.5,-132 1359.8513,-122.6688 1205.2902,-89.2863 1134.5831,-73.8864"/>
<polygon fill="#191970" stroke="#191970" points="1135.2973,-70.46 1124.7813,-71.7498 1133.8064,-77.2994 1135.2973,-70.46"/>
</g>
<!-- Node20 -->
<g id="node21" class="node">
<title>Node20</title>
<g id="a_node21"><a xlink:href="MatrixDynSize_8h.html" target="_top" xlink:title="iDynTree/Core/MatrixDynSize.h">
<polygon fill="none" stroke="#000000" points="258,-358.5 258,-377.5 425,-377.5 425,-358.5 258,-358.5"/>
<text text-anchor="middle" x="341.5" y="-365.5" font-family="FreeSans.ttf" font-size="10.00" fill="#000000">iDynTree/Core/MatrixDynSize.h</text>
</a>
</g>
</g>
<!-- Node0&#45;&gt;Node20 -->
<g id="edge64" class="edge">
<title>Node0&#45;&gt;Node20</title>
<path fill="none" stroke="#191970" d="M1137.848,-612.2499C958.6419,-605.3055 342.8264,-576.8521 286.5,-512 253.4568,-473.9553 298.7781,-413.9714 325.061,-384.9049"/>
<polygon fill="#191970" stroke="#191970" points="327.6366,-387.2749 331.8883,-377.5705 322.5129,-382.5054 327.6366,-387.2749"/>
</g>
<!-- Node35 -->
<g id="node36" class="node">
<title>Node35</title>
<polygon fill="none" stroke="#bfbfbf" points="2173,-487 2173,-506 2250,-506 2250,-487 2173,-487"/>
<text text-anchor="middle" x="2211.5" y="-494" font-family="FreeSans.ttf" font-size="10.00" fill="#000000">Eigen/Dense</text>
</g>
<!-- Node0&#45;&gt;Node35 -->
<g id="edge69" class="edge">
<title>Node0&#45;&gt;Node35</title>
<path fill="none" stroke="#191970" d="M1235.2534,-611.9873C1378.2795,-605.4204 1808.6922,-580.9222 2158.5,-512 2163.0134,-511.1107 2167.6969,-510.0103 2172.3281,-508.809"/>
<polygon fill="#191970" stroke="#191970" points="2173.5866,-512.0927 2182.297,-506.0611 2171.7264,-505.3444 2173.5866,-512.0927"/>
</g>
<!-- Node36 -->
<g id="node37" class="node">
<title>Node36</title>
<g id="a_node37"><a xlink:href="EigenHelpers_8h.html" target="_top" xlink:title="iDynTree/Core/EigenHelpers.h">
<polygon fill="none" stroke="#000000" points="978,-548.5 978,-567.5 1139,-567.5 1139,-548.5 978,-548.5"/>
<text text-anchor="middle" x="1058.5" y="-555.5" font-family="FreeSans.ttf" font-size="10.00" fill="#000000">iDynTree/Core/EigenHelpers.h</text>
</a>
</g>
</g>
<!-- Node0&#45;&gt;Node36 -->
<g id="edge70" class="edge">
<title>Node0&#45;&gt;Node36</title>
<path fill="none" stroke="#191970" d="M1164.496,-604.3733C1143.8565,-595.3435 1112.7842,-581.7494 1089.6111,-571.6111"/>
<polygon fill="#191970" stroke="#191970" points="1090.7813,-568.3028 1080.2169,-567.5011 1087.9755,-574.7159 1090.7813,-568.3028"/>
</g>
<!-- Node2 -->
<g id="node3" class="node">
<title>Node2</title>
<g id="a_node3"><a xlink:href="Cost_8h.html" target="_top" xlink:title="iDynTree/Cost.h">
<polygon fill="none" stroke="#000000" points="100,-168.5 100,-187.5 193,-187.5 193,-168.5 100,-168.5"/>
<text text-anchor="middle" x="146.5" y="-175.5" font-family="FreeSans.ttf" font-size="10.00" fill="#000000">iDynTree/Cost.h</text>
</a>
</g>
</g>
<!-- Node1&#45;&gt;Node2 -->
<g id="edge2" class="edge">
<title>Node1&#45;&gt;Node2</title>
<path fill="none" stroke="#191970" d="M300.0095,-486.9098C269.4885,-479.6022 233.654,-466.8993 207.5,-445 177.6118,-419.974 165.5,-406.9821 165.5,-368 165.5,-368 165.5,-368 165.5,-306.5 165.5,-267.5827 156.8661,-222.7416 151.2386,-197.6479"/>
<polygon fill="#191970" stroke="#191970" points="154.5768,-196.5497 148.9064,-187.6001 147.7581,-198.1325 154.5768,-196.5497"/>
</g>
<!-- Node3 -->
<g id="node4" class="node">
<title>Node3</title>
<polygon fill="none" stroke="#bfbfbf" points="478.5,-56.5 478.5,-75.5 522.5,-75.5 522.5,-56.5 478.5,-56.5"/>
<text text-anchor="middle" x="500.5" y="-63.5" font-family="FreeSans.ttf" font-size="10.00" fill="#000000">string</text>
</g>
<!-- Node1&#45;&gt;Node3 -->
<g id="edge63" class="edge">
<title>Node1&#45;&gt;Node3</title>
<path fill="none" stroke="#191970" d="M336.4708,-486.9726C296.2018,-469.8228 221.5,-429.6945 221.5,-368 221.5,-368 221.5,-368 221.5,-178 221.5,-139.2415 245.0859,-131.6398 278.5,-112 310.3122,-93.3018 414.6146,-77.3172 468.1549,-70.1017"/>
<polygon fill="#191970" stroke="#191970" points="468.6961,-73.5607 478.1497,-68.7773 467.7765,-66.6214 468.6961,-73.5607"/>
</g>
<!-- Node1&#45;&gt;Node5 -->
<g id="edge61" class="edge">
<title>Node1&#45;&gt;Node5</title>
<path fill="none" stroke="#191970" d="M369.4277,-486.8649C406.4649,-442.1232 563.5094,-255.4776 631.5,-224 637.691,-221.1338 1112.7109,-168.6716 1119.5,-168 1311.6704,-148.9899 1368.8279,-191.6275 1552.5,-132 1568.812,-126.7045 1569.7656,-118.823 1585.5,-112 1619.8953,-97.085 1660.445,-85.661 1692.6179,-77.9284"/>
<polygon fill="#191970" stroke="#191970" points="1693.8164,-81.2421 1702.7508,-75.5477 1692.2154,-74.4277 1693.8164,-81.2421"/>
</g>
<!-- Node9 -->
<g id="node10" class="node">
<title>Node9</title>
<g id="a_node10"><a xlink:href="TimeVaryingObject_8h.html" target="_top" xlink:title="iDynTree/TimeVaryingObject.h">
<polygon fill="none" stroke="#000000" points="488.5,-420 488.5,-439 652.5,-439 652.5,-420 488.5,-420"/>
<text text-anchor="middle" x="570.5" y="-427" font-family="FreeSans.ttf" font-size="10.00" fill="#000000">iDynTree/TimeVaryingObject.h</text>
</a>
</g>
</g>
<!-- Node1&#45;&gt;Node9 -->
<g id="edge11" class="edge">
<title>Node1&#45;&gt;Node9</title>
<path fill="none" stroke="#191970" d="M391.4446,-486.9005C428.1491,-475.134 490.4588,-455.1591 531.042,-442.1492"/>
<polygon fill="#191970" stroke="#191970" points="532.1568,-445.4674 540.6109,-439.0817 530.0198,-438.8015 532.1568,-445.4674"/>
</g>
<!-- Node34 -->
<g id="node35" class="node">
<title>Node34</title>
<polygon fill="none" stroke="#bfbfbf" points="332.5,-420 332.5,-439 390.5,-439 390.5,-420 332.5,-420"/>
<text text-anchor="middle" x="361.5" y="-427" font-family="FreeSans.ttf" font-size="10.00" fill="#000000">memory</text>
</g>
<!-- Node1&#45;&gt;Node34 -->
<g id="edge62" class="edge">
<title>Node1&#45;&gt;Node34</title>
<path fill="none" stroke="#191970" d="M361.5,-486.9005C361.5,-477.149 361.5,-461.7597 361.5,-449.3695"/>
<polygon fill="#191970" stroke="#191970" points="365.0001,-449.0816 361.5,-439.0817 358.0001,-449.0817 365.0001,-449.0816"/>
</g>
<!-- Node2&#45;&gt;Node3 -->
<g id="edge3" class="edge">
<title>Node2&#45;&gt;Node3</title>
<path fill="none" stroke="#191970" d="M152.251,-168.4822C161.7404,-153.6992 182.1722,-125.5173 207.5,-112 252.2523,-88.1161 401.6804,-73.748 468.1464,-68.396"/>
<polygon fill="#191970" stroke="#191970" points="468.7485,-71.8595 478.4432,-67.5859 468.1994,-64.8811 468.7485,-71.8595"/>
</g>
<!-- Node4 -->
<g id="node5" class="node">
<title>Node4</title>
<g id="a_node5"><a xlink:href="SparsityStructure_8h.html" target="_top" xlink:title="iDynTree/SparsityStructure.h">
<polygon fill="none" stroke="#000000" points="0,-112.5 0,-131.5 155,-131.5 155,-112.5 0,-112.5"/>
<text text-anchor="middle" x="77.5" y="-119.5" font-family="FreeSans.ttf" font-size="10.00" fill="#000000">iDynTree/SparsityStructure.h</text>
</a>
</g>
</g>
<!-- Node2&#45;&gt;Node4 -->
<g id="edge4" class="edge">
<title>Node2&#45;&gt;Node4</title>
<path fill="none" stroke="#191970" d="M134.4811,-168.2455C124.2902,-159.9746 109.4638,-147.9416 97.4893,-138.2232"/>
<polygon fill="#191970" stroke="#191970" points="99.3514,-135.2268 89.3812,-131.6427 94.9402,-140.662 99.3514,-135.2268"/>
</g>
<!-- Node4&#45;&gt;Node3 -->
<g id="edge10" class="edge">
<title>Node4&#45;&gt;Node3</title>
<path fill="none" stroke="#191970" d="M149.7357,-112.4369C242.9122,-100.1015 401.0044,-79.172 468.4587,-70.2419"/>
<polygon fill="#191970" stroke="#191970" points="469.0285,-73.6971 478.4826,-68.9148 468.1097,-66.7576 469.0285,-73.6971"/>
</g>
<!-- Node4&#45;&gt;Node5 -->
<g id="edge5" class="edge">
<title>Node4&#45;&gt;Node5</title>
<path fill="none" stroke="#191970" d="M155.0912,-119.4647C219.0581,-117.3938 312.1638,-114.4236 393.5,-112 962.5599,-95.0432 1109.2819,-125.3872 1679.7122,-76.0604"/>
<polygon fill="#191970" stroke="#191970" points="1680.1834,-79.5327 1689.8427,-75.1799 1679.5772,-72.559 1680.1834,-79.5327"/>
</g>
<!-- Node6 -->
<g id="node7" class="node">
<title>Node6</title>
<polygon fill="none" stroke="#bfbfbf" points="1126,-.5 1126,-19.5 1179,-19.5 1179,-.5 1126,-.5"/>
<text text-anchor="middle" x="1152.5" y="-7.5" font-family="FreeSans.ttf" font-size="10.00" fill="#000000">cstddef</text>
</g>
<!-- Node4&#45;&gt;Node6 -->
<g id="edge8" class="edge">
<title>Node4&#45;&gt;Node6</title>
<path fill="none" stroke="#191970" d="M124.6496,-112.4985C198.0527,-98.0611 344.2406,-70.7258 469.5,-56 715.1654,-27.1189 1012.8359,-14.7935 1115.5616,-11.1941"/>
<polygon fill="#191970" stroke="#191970" points="1115.8507,-14.6863 1125.7244,-10.8443 1115.6099,-7.6904 1115.8507,-14.6863"/>
</g>
<!-- Node7 -->
<g id="node8" class="node">
<title>Node7</title>
<polygon fill="none" stroke="#bfbfbf" points="12,-56.5 12,-75.5 59,-75.5 59,-56.5 12,-56.5"/>
<text text-anchor="middle" x="35.5" y="-63.5" font-family="FreeSans.ttf" font-size="10.00" fill="#000000">vector</text>
</g>
<!-- Node4&#45;&gt;Node7 -->
<g id="edge7" class="edge">
<title>Node4&#45;&gt;Node7</title>
<path fill="none" stroke="#191970" d="M70.1842,-112.2455C64.2821,-104.3761 55.8258,-93.101 48.7406,-83.6542"/>
<polygon fill="#191970" stroke="#191970" points="51.5321,-81.5427 42.732,-75.6427 45.932,-85.7427 51.5321,-81.5427"/>
</g>
<!-- Node8 -->
<g id="node9" class="node">
<title>Node8</title>
<polygon fill="none" stroke="#bfbfbf" points="77.5,-56.5 77.5,-75.5 163.5,-75.5 163.5,-56.5 77.5,-56.5"/>
<text text-anchor="middle" x="120.5" y="-63.5" font-family="FreeSans.ttf" font-size="10.00" fill="#000000">unordered_set</text>
</g>
<!-- Node4&#45;&gt;Node8 -->
<g id="edge9" class="edge">
<title>Node4&#45;&gt;Node8</title>
<path fill="none" stroke="#191970" d="M84.99,-112.2455C91.0326,-104.3761 99.6903,-93.101 106.9441,-83.6542"/>
<polygon fill="#191970" stroke="#191970" points="109.7815,-85.7058 113.0958,-75.6427 104.2295,-81.4426 109.7815,-85.7058"/>
</g>
<!-- Node5&#45;&gt;Node6 -->
<g id="edge6" class="edge">
<title>Node5&#45;&gt;Node6</title>
<path fill="none" stroke="#191970" d="M1689.8224,-57.0196C1687.0109,-56.6608 1684.2259,-56.3187 1681.5,-56 1497.1356,-34.4472 1275.5323,-18.3413 1189.3225,-12.4472"/>
<polygon fill="#191970" stroke="#191970" points="1189.4687,-8.9491 1179.2544,-11.7633 1188.9942,-15.933 1189.4687,-8.9491"/>
</g>
<!-- Node9&#45;&gt;Node10 -->
<g id="edge12" class="edge">
<title>Node9&#45;&gt;Node10</title>
<path fill="none" stroke="#191970" d="M640.0085,-419.9581C720.8969,-408.854 854.1896,-390.556 939.09,-378.9011"/>
<polygon fill="#191970" stroke="#191970" points="939.766,-382.3413 949.1971,-377.5137 938.814,-375.4063 939.766,-382.3413"/>
</g>
<!-- Node9&#45;&gt;Node20 -->
<g id="edge24" class="edge">
<title>Node9&#45;&gt;Node20</title>
<path fill="none" stroke="#191970" d="M534.7188,-419.8906C494.8064,-409.1718 430.1603,-391.8105 386.7628,-380.1557"/>
<polygon fill="#191970" stroke="#191970" points="387.5956,-376.7554 377.03,-377.5419 385.78,-383.5159 387.5956,-376.7554"/>
</g>
<!-- Node21 -->
<g id="node22" class="node">
<title>Node21</title>
<g id="a_node22"><a xlink:href="Transform_8h.html" target="_top" xlink:title="iDynTree/Core/Transform.h">
<polygon fill="none" stroke="#000000" points="497.5,-358.5 497.5,-377.5 643.5,-377.5 643.5,-358.5 497.5,-358.5"/>
<text text-anchor="middle" x="570.5" y="-365.5" font-family="FreeSans.ttf" font-size="10.00" fill="#000000">iDynTree/Core/Transform.h</text>
</a>
</g>
</g>
<!-- Node9&#45;&gt;Node21 -->
<g id="edge26" class="edge">
<title>Node9&#45;&gt;Node21</title>
<path fill="none" stroke="#191970" d="M570.5,-419.8906C570.5,-411.3657 570.5,-398.6392 570.5,-387.9235"/>
<polygon fill="#191970" stroke="#191970" points="574.0001,-387.7448 570.5,-377.7449 567.0001,-387.7449 574.0001,-387.7448"/>
</g>
<!-- Node10&#45;&gt;Node3 -->
<g id="edge23" class="edge">
<title>Node10&#45;&gt;Node3</title>
<path fill="none" stroke="#191970" d="M1005.4955,-358.1745C972.8891,-333.7718 884.5943,-269.1211 805.5,-224 773.0355,-205.4799 761.4392,-207.4121 729.5,-188 681.7964,-159.0066 678.5909,-138.5769 629.5,-112 598.1659,-95.0363 559.3128,-82.1704 532.4804,-74.4176"/>
<polygon fill="#191970" stroke="#191970" points="533.4004,-71.0405 522.826,-71.6987 531.5028,-77.7785 533.4004,-71.0405"/>
</g>
<!-- Node10&#45;&gt;Node11 -->
<g id="edge13" class="edge">
<title>Node10&#45;&gt;Node11</title>
<path fill="none" stroke="#191970" d="M1036.6893,-358.3565C1108.1607,-320.4644 1369.9795,-181.6553 1455.3707,-136.3832"/>
<polygon fill="#191970" stroke="#191970" points="1457.2407,-139.3533 1464.4364,-131.5768 1453.9618,-133.1687 1457.2407,-139.3533"/>
</g>
<!-- Node11&#45;&gt;Node6 -->
<g id="edge17" class="edge">
<title>Node11&#45;&gt;Node6</title>
<path fill="none" stroke="#191970" d="M1421.8371,-113.865C1332.6728,-101.7907 1176.1923,-80.1044 1171.5,-76 1158.4838,-64.6145 1154.1176,-44.9464 1152.778,-30.0346"/>
<polygon fill="#191970" stroke="#191970" points="1156.2594,-29.5816 1152.2505,-19.7746 1149.2687,-29.9411 1156.2594,-29.5816"/>
</g>
<!-- Node11&#45;&gt;Node12 -->
<g id="edge14" class="edge">
<title>Node11&#45;&gt;Node12</title>
<path fill="none" stroke="#191970" d="M1421.7707,-113.9008C1323.4742,-100.7884 1140.2315,-76.3311 1138.5,-76 1137.2345,-75.758 1135.9491,-75.5006 1134.6531,-75.2311"/>
<polygon fill="#191970" stroke="#191970" points="1135.1808,-71.7625 1124.6568,-72.9854 1133.6464,-78.5923 1135.1808,-71.7625"/>
</g>
<!-- Node13 -->
<g id="node14" class="node">
<title>Node13</title>
<polygon fill="none" stroke="#bfbfbf" points="1180.5,-56.5 1180.5,-75.5 1244.5,-75.5 1244.5,-56.5 1180.5,-56.5"/>
<text text-anchor="middle" x="1212.5" y="-63.5" font-family="FreeSans.ttf" font-size="10.00" fill="#000000">algorithm</text>
</g>
<!-- Node11&#45;&gt;Node13 -->
<g id="edge15" class="edge">
<title>Node11&#45;&gt;Node13</title>
<path fill="none" stroke="#191970" d="M1431.892,-112.4519C1387.5849,-103.953 1321.2379,-90.8908 1254.5404,-76.1694"/>
<polygon fill="#191970" stroke="#191970" points="1255.2206,-72.7352 1244.6998,-73.9857 1253.7041,-79.569 1255.2206,-72.7352"/>
</g>
<!-- Node14 -->
<g id="node15" class="node">
<title>Node14</title>
<polygon fill="none" stroke="#bfbfbf" points="1262.5,-56.5 1262.5,-75.5 1304.5,-75.5 1304.5,-56.5 1262.5,-56.5"/>
<text text-anchor="middle" x="1283.5" y="-63.5" font-family="FreeSans.ttf" font-size="10.00" fill="#000000">array</text>
</g>
<!-- Node11&#45;&gt;Node14 -->
<g id="edge16" class="edge">
<title>Node11&#45;&gt;Node14</title>
<path fill="none" stroke="#191970" d="M1445.6599,-112.4209C1411.5321,-103.4269 1359.4199,-89.3876 1314.5,-76 1314.4018,-75.9707 1314.3034,-75.9414 1314.2048,-75.9119"/>
<polygon fill="#191970" stroke="#191970" points="1315.3937,-72.616 1304.8063,-73.0115 1313.3295,-79.3047 1315.3937,-72.616"/>
</g>
<!-- Node15 -->
<g id="node16" class="node">
<title>Node15</title>
<polygon fill="none" stroke="#bfbfbf" points="1323,-56.5 1323,-75.5 1376,-75.5 1376,-56.5 1323,-56.5"/>
<text text-anchor="middle" x="1349.5" y="-63.5" font-family="FreeSans.ttf" font-size="10.00" fill="#000000">iterator</text>
</g>
<!-- Node11&#45;&gt;Node15 -->
<g id="edge18" class="edge">
<title>Node11&#45;&gt;Node15</title>
<path fill="none" stroke="#191970" d="M1459.6365,-112.3733C1438.095,-103.3032 1405.6162,-89.6279 1381.5044,-79.4755"/>
<polygon fill="#191970" stroke="#191970" points="1382.6397,-76.156 1372.0652,-75.5011 1379.9233,-82.6075 1382.6397,-76.156"/>
</g>
<!-- Node16 -->
<g id="node17" class="node">
<title>Node16</title>
<polygon fill="none" stroke="#bfbfbf" points="1394.5,-56.5 1394.5,-75.5 1438.5,-75.5 1438.5,-56.5 1394.5,-56.5"/>
<text text-anchor="middle" x="1416.5" y="-63.5" font-family="FreeSans.ttf" font-size="10.00" fill="#000000">limits</text>
</g>
<!-- Node11&#45;&gt;Node16 -->
<g id="edge19" class="edge">
<title>Node11&#45;&gt;Node16</title>
<path fill="none" stroke="#191970" d="M1471.0037,-112.2455C1461.2558,-103.9746 1447.0741,-91.9416 1435.6202,-82.2232"/>
<polygon fill="#191970" stroke="#191970" points="1437.7541,-79.4437 1427.8646,-75.6427 1433.2253,-84.7813 1437.7541,-79.4437"/>
</g>
<!-- Node17 -->
<g id="node18" class="node">
<title>Node17</title>
<polygon fill="none" stroke="#bfbfbf" points="1457,-56.5 1457,-75.5 1522,-75.5 1522,-56.5 1457,-56.5"/>
<text text-anchor="middle" x="1489.5" y="-63.5" font-family="FreeSans.ttf" font-size="10.00" fill="#000000">stdexcept</text>
</g>
<!-- Node11&#45;&gt;Node17 -->
<g id="edge20" class="edge">
<title>Node11&#45;&gt;Node17</title>
<path fill="none" stroke="#191970" d="M1483.7193,-112.2455C1484.6327,-104.9382 1485.9132,-94.6944 1487.0369,-85.7046"/>
<polygon fill="#191970" stroke="#191970" points="1490.5272,-85.9996 1488.2947,-75.6427 1483.5813,-85.1313 1490.5272,-85.9996"/>
</g>
<!-- Node18 -->
<g id="node19" class="node">
<title>Node18</title>
<polygon fill="none" stroke="#bfbfbf" points="1540,-56.5 1540,-75.5 1609,-75.5 1609,-56.5 1540,-56.5"/>
<text text-anchor="middle" x="1574.5" y="-63.5" font-family="FreeSans.ttf" font-size="10.00" fill="#000000">type_traits</text>
</g>
<!-- Node11&#45;&gt;Node18 -->
<g id="edge21" class="edge">
<title>Node11&#45;&gt;Node18</title>
<path fill="none" stroke="#191970" d="M1498.5252,-112.2455C1512.6408,-103.6534 1533.4263,-91.0014 1549.6899,-81.1018"/>
<polygon fill="#191970" stroke="#191970" points="1551.9363,-83.8319 1558.6585,-75.6427 1548.2966,-77.8525 1551.9363,-83.8319"/>
</g>
<!-- Node19 -->
<g id="node20" class="node">
<title>Node19</title>
<polygon fill="none" stroke="#bfbfbf" points="1627,-56.5 1627,-75.5 1672,-75.5 1672,-56.5 1627,-56.5"/>
<text text-anchor="middle" x="1649.5" y="-63.5" font-family="FreeSans.ttf" font-size="10.00" fill="#000000">utility</text>
</g>
<!-- Node11&#45;&gt;Node19 -->
<g id="edge22" class="edge">
<title>Node11&#45;&gt;Node19</title>
<path fill="none" stroke="#191970" d="M1511.2083,-112.3733C1540.6172,-102.5116 1586.2611,-87.2059 1616.9846,-76.9034"/>
<polygon fill="#191970" stroke="#191970" points="1618.4185,-80.1142 1626.7868,-73.6164 1616.1929,-73.4774 1618.4185,-80.1142"/>
</g>
<!-- Node20&#45;&gt;Node3 -->
<g id="edge25" class="edge">
<title>Node20&#45;&gt;Node3</title>
<path fill="none" stroke="#191970" d="M329.7514,-358.3792C307.0777,-338.6509 259.5,-291.1054 259.5,-239.5 259.5,-239.5 259.5,-239.5 259.5,-178 259.5,-140.6561 280.0827,-132.1871 311.5,-112 337.319,-95.4101 421.7448,-79.19 468.544,-71.177"/>
<polygon fill="#191970" stroke="#191970" points="469.1958,-74.6166 478.475,-69.5032 468.0323,-67.714 469.1958,-74.6166"/>
</g>
<!-- Node21&#45;&gt;Node3 -->
<g id="edge60" class="edge">
<title>Node21&#45;&gt;Node3</title>
<path fill="none" stroke="#191970" d="M531.9648,-358.4412C456.7122,-338.6429 297.5,-290.7051 297.5,-239.5 297.5,-239.5 297.5,-239.5 297.5,-178 297.5,-100.8883 411.1839,-76.4666 468.4023,-69.0585"/>
<polygon fill="#191970" stroke="#191970" points="468.8753,-72.527 478.389,-67.8643 468.0442,-65.5765 468.8753,-72.527"/>
</g>
<!-- Node22 -->
<g id="node23" class="node">
<title>Node22</title>
<g id="a_node23"><a xlink:href="Position_8h.html" target="_top" xlink:title="iDynTree/Core/Position.h">
<polygon fill="none" stroke="#000000" points="607.5,-297 607.5,-316 743.5,-316 743.5,-297 607.5,-297"/>
<text text-anchor="middle" x="675.5" y="-304" font-family="FreeSans.ttf" font-size="10.00" fill="#000000">iDynTree/Core/Position.h</text>
</a>
</g>
</g>
<!-- Node21&#45;&gt;Node22 -->
<g id="edge27" class="edge">
<title>Node21&#45;&gt;Node22</title>
<path fill="none" stroke="#191970" d="M586.9063,-358.3906C603.9353,-348.4165 630.7841,-332.6908 650.4651,-321.1633"/>
<polygon fill="#191970" stroke="#191970" points="652.349,-324.1161 659.209,-316.0419 648.8112,-318.0759 652.349,-324.1161"/>
</g>
<!-- Node28 -->
<g id="node29" class="node">
<title>Node28</title>
<g id="a_node29"><a xlink:href="Rotation_8h.html" target="_top" xlink:title="iDynTree/Core/Rotation.h">
<polygon fill="none" stroke="#000000" points="936,-230 936,-249 1073,-249 1073,-230 936,-230"/>
<text text-anchor="middle" x="1004.5" y="-237" font-family="FreeSans.ttf" font-size="10.00" fill="#000000">iDynTree/Core/Rotation.h</text>
</a>
</g>
</g>
<!-- Node21&#45;&gt;Node28 -->
<g id="edge55" class="edge">
<title>Node21&#45;&gt;Node28</title>
<path fill="none" stroke="#191970" d="M611.5567,-358.4768C648.5867,-349.6854 704.4487,-335.9201 752.5,-322 829.8562,-299.5905 919.1726,-269.2807 967.9755,-252.3342"/>
<polygon fill="#191970" stroke="#191970" points="969.1751,-255.6227 977.468,-249.0289 966.8732,-249.012 969.1751,-255.6227"/>
</g>
<!-- Node30 -->
<g id="node31" class="node">
<title>Node30</title>
<g id="a_node31"><a xlink:href="MatrixFixSize_8h.html" target="_top" xlink:title="iDynTree/Core/MatrixFixSize.h">
<polygon fill="none" stroke="#000000" points="808,-112.5 808,-131.5 969,-131.5 969,-112.5 808,-112.5"/>
<text text-anchor="middle" x="888.5" y="-119.5" font-family="FreeSans.ttf" font-size="10.00" fill="#000000">iDynTree/Core/MatrixFixSize.h</text>
</a>
</g>
</g>
<!-- Node21&#45;&gt;Node30 -->
<g id="edge59" class="edge">
<title>Node21&#45;&gt;Node30</title>
<path fill="none" stroke="#191970" d="M571.8773,-358.4542C576.0421,-332.9936 590.8152,-262.7735 631.5,-224 684.5248,-173.4663 765.6442,-146.9357 822.5284,-133.7475"/>
<polygon fill="#191970" stroke="#191970" points="823.5079,-137.115 832.5013,-131.514 821.978,-130.2842 823.5079,-137.115"/>
</g>
<!-- Node33 -->
<g id="node34" class="node">
<title>Node33</title>
<g id="a_node34"><a xlink:href="TransformSemantics_8h.html" target="_top" xlink:title="iDynTree/Core/TransformSemantics.h">
<polygon fill="none" stroke="#000000" points="402,-112.5 402,-131.5 599,-131.5 599,-112.5 402,-112.5"/>
<text text-anchor="middle" x="500.5" y="-119.5" font-family="FreeSans.ttf" font-size="10.00" fill="#000000">iDynTree/Core/TransformSemantics.h</text>
</a>
</g>
</g>
<!-- Node21&#45;&gt;Node33 -->
<g id="edge56" class="edge">
<title>Node21&#45;&gt;Node33</title>
<path fill="none" stroke="#191970" d="M551.3853,-358.459C508.5248,-335.8406 405.453,-274.3189 366.5,-188 353.6786,-159.5882 382.4384,-143.3065 416.5589,-134.0277"/>
<polygon fill="#191970" stroke="#191970" points="417.4432,-137.4144 426.2947,-131.592 415.7442,-130.6237 417.4432,-137.4144"/>
</g>
<!-- Node22&#45;&gt;Node3 -->
<g id="edge54" class="edge">
<title>Node22&#45;&gt;Node3</title>
<path fill="none" stroke="#191970" d="M666.7558,-296.8777C657.6466,-286.7151 643.1109,-270.1038 631.5,-255 602.8731,-217.7613 610.7038,-193.8705 571.5,-168 504.1331,-123.5448 444.6036,-194.4739 393.5,-132 369.2189,-102.3165 428.6732,-82.2886 468.3579,-72.6452"/>
<polygon fill="#191970" stroke="#191970" points="469.2521,-76.0308 478.2037,-70.3634 467.6717,-69.2115 469.2521,-76.0308"/>
</g>
<!-- Node23 -->
<g id="node24" class="node">
<title>Node23</title>
<g id="a_node24"><a xlink:href="PositionRaw_8h.html" target="_top" xlink:title="iDynTree/Core/PositionRaw.h">
<polygon fill="none" stroke="#000000" points="640.5,-230 640.5,-249 796.5,-249 796.5,-230 640.5,-230"/>
<text text-anchor="middle" x="718.5" y="-237" font-family="FreeSans.ttf" font-size="10.00" fill="#000000">iDynTree/Core/PositionRaw.h</text>
</a>
</g>
</g>
<!-- Node22&#45;&gt;Node23 -->
<g id="edge28" class="edge">
<title>Node22&#45;&gt;Node23</title>
<path fill="none" stroke="#191970" d="M681.6609,-296.9005C688.2386,-286.6515 698.8133,-270.1747 706.9493,-257.4976"/>
<polygon fill="#191970" stroke="#191970" points="709.8949,-259.388 712.3506,-249.0817 704.0037,-255.6071 709.8949,-259.388"/>
</g>
<!-- Node27 -->
<g id="node28" class="node">
<title>Node27</title>
<g id="a_node28"><a xlink:href="PositionSemantics_8h.html" target="_top" xlink:title="iDynTree/Core/PositionSemantics.h">
<polygon fill="none" stroke="#000000" points="375,-168.5 375,-187.5 562,-187.5 562,-168.5 375,-168.5"/>
<text text-anchor="middle" x="468.5" y="-175.5" font-family="FreeSans.ttf" font-size="10.00" fill="#000000">iDynTree/Core/PositionSemantics.h</text>
</a>
</g>
</g>
<!-- Node22&#45;&gt;Node27 -->
<g id="edge37" class="edge">
<title>Node22&#45;&gt;Node27</title>
<path fill="none" stroke="#191970" d="M659.9414,-296.8416C624.1144,-274.6012 535.5812,-219.6422 492.6352,-192.9825"/>
<polygon fill="#191970" stroke="#191970" points="494.2989,-189.8957 483.9568,-187.5952 490.607,-195.843 494.2989,-189.8957"/>
</g>
<!-- Node22&#45;&gt;Node28 -->
<g id="edge39" class="edge">
<title>Node22&#45;&gt;Node28</title>
<path fill="none" stroke="#191970" d="M722.2883,-296.9717C781.6477,-284.8833 883.9501,-264.0497 947.7163,-251.0638"/>
<polygon fill="#191970" stroke="#191970" points="948.5067,-254.4748 957.6071,-249.0496 947.1097,-247.6156 948.5067,-254.4748"/>
</g>
<!-- Node23&#45;&gt;Node3 -->
<g id="edge36" class="edge">
<title>Node23&#45;&gt;Node3</title>
<path fill="none" stroke="#191970" d="M702.687,-229.9743C688.1047,-220.6233 666.5081,-205.2792 651.5,-188 626.0508,-158.6997 637.4383,-137.8601 608.5,-112 586.7906,-92.5999 555.6782,-80.527 532.4179,-73.645"/>
<polygon fill="#191970" stroke="#191970" points="533.2361,-70.2396 522.6634,-70.9238 531.3551,-76.9822 533.2361,-70.2396"/>
</g>
<!-- Node24 -->
<g id="node25" class="node">
<title>Node24</title>
<g id="a_node25"><a xlink:href="VectorFixSize_8h.html" target="_top" xlink:title="iDynTree/Core/VectorFixSize.h">
<polygon fill="none" stroke="#000000" points="1128,-168.5 1128,-187.5 1289,-187.5 1289,-168.5 1128,-168.5"/>
<text text-anchor="middle" x="1208.5" y="-175.5" font-family="FreeSans.ttf" font-size="10.00" fill="#000000">iDynTree/Core/VectorFixSize.h</text>
</a>
</g>
</g>
<!-- Node23&#45;&gt;Node24 -->
<g id="edge29" class="edge">
<title>Node23&#45;&gt;Node24</title>
<path fill="none" stroke="#191970" d="M794.2566,-229.9918C883.0292,-218.8499 1029.7734,-200.432 1122.6757,-188.7718"/>
<polygon fill="#191970" stroke="#191970" points="1123.1249,-192.243 1132.6111,-187.5248 1122.2531,-185.2975 1123.1249,-192.243"/>
</g>
<!-- Node24&#45;&gt;Node3 -->
<g id="edge32" class="edge">
<title>Node24&#45;&gt;Node3</title>
<path fill="none" stroke="#191970" d="M1127.9787,-171.8035C1026.9232,-163.5299 859.5591,-148.0454 799.5,-132 777.9622,-126.2459 774.8303,-118.4813 753.5,-112 676.0618,-88.47 581.4237,-75.1974 532.7808,-69.4546"/>
<polygon fill="#191970" stroke="#191970" points="532.8951,-65.9447 522.5608,-68.2796 532.0956,-72.8989 532.8951,-65.9447"/>
</g>
<!-- Node24&#45;&gt;Node5 -->
<g id="edge30" class="edge">
<title>Node24&#45;&gt;Node5</title>
<path fill="none" stroke="#191970" d="M1289.129,-174.5376C1366.2904,-169.7381 1485.4083,-158.4234 1585.5,-132 1607.8456,-126.101 1612.0907,-120.7044 1633.5,-112 1661.0701,-100.7907 1692.4544,-88.3655 1715.6202,-79.2571"/>
<polygon fill="#191970" stroke="#191970" points="1716.9814,-82.4828 1725.0102,-75.5698 1714.4228,-75.9672 1716.9814,-82.4828"/>
</g>
<!-- Node24&#45;&gt;Node11 -->
<g id="edge31" class="edge">
<title>Node24&#45;&gt;Node11</title>
<path fill="none" stroke="#191970" d="M1255.291,-168.4369C1302.4795,-158.7925 1375.372,-143.8948 1425.8124,-133.5858"/>
<polygon fill="#191970" stroke="#191970" points="1426.8054,-136.9553 1435.902,-131.5237 1425.4037,-130.097 1426.8054,-136.9553"/>
</g>
<!-- Node24&#45;&gt;Node12 -->
<g id="edge34" class="edge">
<title>Node24&#45;&gt;Node12</title>
<path fill="none" stroke="#191970" d="M1239.2141,-168.4738C1270.8219,-157.0736 1312.9069,-136.4309 1293.5,-112 1249.5107,-56.6229 1207.2523,-92.577 1138.5,-76 1137.2474,-75.698 1135.9732,-75.389 1134.6867,-75.0755"/>
<polygon fill="#191970" stroke="#191970" points="1135.2813,-71.6175 1124.7345,-72.6254 1133.6079,-78.4145 1135.2813,-71.6175"/>
</g>
<!-- Node25 -->
<g id="node26" class="node">
<title>Node25</title>
<polygon fill="none" stroke="#bfbfbf" points="998.5,-56.5 998.5,-75.5 1054.5,-75.5 1054.5,-56.5 998.5,-56.5"/>
<text text-anchor="middle" x="1026.5" y="-63.5" font-family="FreeSans.ttf" font-size="10.00" fill="#000000">sstream</text>
</g>
<!-- Node24&#45;&gt;Node25 -->
<g id="edge33" class="edge">
<title>Node24&#45;&gt;Node25</title>
<path fill="none" stroke="#191970" d="M1223.7078,-168.4972C1242.8458,-155.3758 1271.4009,-131.1594 1255.5,-112 1229.4553,-80.618 1120.2421,-84.9622 1064.7481,-75.8219"/>
<polygon fill="#191970" stroke="#191970" points="1065.2086,-72.346 1054.7245,-73.8734 1063.8728,-79.2174 1065.2086,-72.346"/>
</g>
<!-- Node26 -->
<g id="node27" class="node">
<title>Node26</title>
<polygon fill="none" stroke="#bfbfbf" points="930.5,-56.5 930.5,-75.5 980.5,-75.5 980.5,-56.5 930.5,-56.5"/>
<text text-anchor="middle" x="955.5" y="-63.5" font-family="FreeSans.ttf" font-size="10.00" fill="#000000">cstring</text>
</g>
<!-- Node24&#45;&gt;Node26 -->
<g id="edge35" class="edge">
<title>Node24&#45;&gt;Node26</title>
<path fill="none" stroke="#191970" d="M1213.9841,-168.1874C1221.0796,-154.0257 1231.0226,-127.8253 1217.5,-112 1185.9349,-75.0599 1054.488,-85.9048 990.6586,-75.7043"/>
<polygon fill="#191970" stroke="#191970" points="991.1352,-72.2321 980.656,-73.7932 989.8214,-79.1077 991.1352,-72.2321"/>
</g>
<!-- Node27&#45;&gt;Node3 -->
<g id="edge38" class="edge">
<title>Node27&#45;&gt;Node3</title>
<path fill="none" stroke="#191970" d="M422.3195,-168.4416C384.1413,-158.3301 339.2317,-139.9319 359.5,-112 372.4243,-94.1888 430.9496,-79.655 468.419,-71.9624"/>
<polygon fill="#191970" stroke="#191970" points="469.2513,-75.3655 478.3736,-69.9771 467.8821,-68.5007 469.2513,-75.3655"/>
</g>
<!-- Node28&#45;&gt;Node3 -->
<g id="edge40" class="edge">
<title>Node28&#45;&gt;Node3</title>
<path fill="none" stroke="#191970" d="M935.9327,-234.9918C885.0941,-229.3464 815.3922,-216.6324 760.5,-188 716.7311,-165.1696 722.7617,-135.7775 679.5,-112 632.4096,-86.1182 570.3278,-74.4134 533.0207,-69.4131"/>
<polygon fill="#191970" stroke="#191970" points="533.0934,-65.8948 522.7351,-68.1211 532.2209,-72.8402 533.0934,-65.8948"/>
</g>
<!-- Node28&#45;&gt;Node24 -->
<g id="edge53" class="edge">
<title>Node28&#45;&gt;Node24</title>
<path fill="none" stroke="#191970" d="M1036.375,-229.8906C1071.5559,-219.2846 1128.3088,-202.1753 1166.9515,-190.5257"/>
<polygon fill="#191970" stroke="#191970" points="1168.2847,-193.7794 1176.8488,-187.5419 1166.2642,-187.0773 1168.2847,-193.7794"/>
</g>
<!-- Node29 -->
<g id="node30" class="node">
<title>Node29</title>
<g id="a_node30"><a xlink:href="RotationRaw_8h.html" target="_top" xlink:title="iDynTree/Core/RotationRaw.h">
<polygon fill="none" stroke="#000000" points="769.5,-168.5 769.5,-187.5 927.5,-187.5 927.5,-168.5 769.5,-168.5"/>
<text text-anchor="middle" x="848.5" y="-175.5" font-family="FreeSans.ttf" font-size="10.00" fill="#000000">iDynTree/Core/RotationRaw.h</text>
</a>
</g>
</g>
<!-- Node28&#45;&gt;Node29 -->
<g id="edge41" class="edge">
<title>Node28&#45;&gt;Node29</title>
<path fill="none" stroke="#191970" d="M980.125,-229.8906C953.7944,-219.5103 911.662,-202.9004 882.1771,-191.2766"/>
<polygon fill="#191970" stroke="#191970" points="883.2907,-187.9534 872.7038,-187.5419 880.7233,-194.4657 883.2907,-187.9534"/>
</g>
<!-- Node32 -->
<g id="node33" class="node">
<title>Node32</title>
<g id="a_node33"><a xlink:href="RotationSemantics_8h.html" target="_top" xlink:title="iDynTree/Core/RotationSemantics.h">
<polygon fill="none" stroke="#000000" points="987.5,-112.5 987.5,-131.5 1175.5,-131.5 1175.5,-112.5 987.5,-112.5"/>
<text text-anchor="middle" x="1081.5" y="-119.5" font-family="FreeSans.ttf" font-size="10.00" fill="#000000">iDynTree/Core/RotationSemantics.h</text>
</a>
</g>
</g>
<!-- Node28&#45;&gt;Node32 -->
<g id="edge50" class="edge">
<title>Node28&#45;&gt;Node32</title>
<path fill="none" stroke="#191970" d="M1010.8012,-229.8845C1023.6045,-210.3471 1052.8487,-165.7211 1069.4352,-140.4106"/>
<polygon fill="#191970" stroke="#191970" points="1072.558,-142.0309 1075.1117,-131.7484 1066.7031,-138.194 1072.558,-142.0309"/>
</g>
<!-- Node29&#45;&gt;Node3 -->
<g id="edge49" class="edge">
<title>Node29&#45;&gt;Node3</title>
<path fill="none" stroke="#191970" d="M832.952,-168.4943C808.9928,-154.2387 761.2297,-127.3603 717.5,-112 653.8579,-89.6454 575.7188,-76.3468 532.7137,-70.1769"/>
<polygon fill="#191970" stroke="#191970" points="532.9552,-66.6767 522.5673,-68.7607 531.9875,-73.6095 532.9552,-66.6767"/>
</g>
<!-- Node29&#45;&gt;Node30 -->
<g id="edge42" class="edge">
<title>Node29&#45;&gt;Node30</title>
<path fill="none" stroke="#191970" d="M855.4675,-168.2455C861.0311,-160.4564 868.978,-149.3308 875.6829,-139.9439"/>
<polygon fill="#191970" stroke="#191970" points="878.648,-141.8144 881.6124,-131.6427 872.9519,-137.7457 878.648,-141.8144"/>
</g>
<!-- Node30&#45;&gt;Node3 -->
<g id="edge46" class="edge">
<title>Node30&#45;&gt;Node3</title>
<path fill="none" stroke="#191970" d="M822.2413,-112.4369C738.1492,-100.2999 596.4127,-79.8431 532.9398,-70.682"/>
<polygon fill="#191970" stroke="#191970" points="533.1334,-67.1738 522.7359,-69.2093 532.1334,-74.102 533.1334,-67.1738"/>
</g>
<!-- Node30&#45;&gt;Node5 -->
<g id="edge43" class="edge">
<title>Node30&#45;&gt;Node5</title>
<path fill="none" stroke="#191970" d="M969.4312,-112.7778C972.4917,-112.5021 975.5228,-112.2414 978.5,-112 1286.9806,-86.986 1368.4234,-106.3676 1679.616,-76.1046"/>
<polygon fill="#191970" stroke="#191970" points="1680.2253,-79.5617 1689.8354,-75.101 1679.5412,-72.5952 1680.2253,-79.5617"/>
</g>
<!-- Node30&#45;&gt;Node12 -->
<g id="edge44" class="edge">
<title>Node30&#45;&gt;Node12</title>
<path fill="none" stroke="#191970" d="M925.7722,-112.4476C959.1647,-103.835 1009.7272,-90.6606 1062.3061,-76.2914"/>
<polygon fill="#191970" stroke="#191970" points="1063.4243,-79.6141 1072.1435,-73.5953 1061.5741,-72.863 1063.4243,-79.6141"/>
</g>
<!-- Node30&#45;&gt;Node25 -->
<g id="edge48" class="edge">
<title>Node30&#45;&gt;Node25</title>
<path fill="none" stroke="#191970" d="M912.223,-112.3733C934.6737,-103.2629 968.5739,-89.5062 993.6255,-79.3404"/>
<polygon fill="#191970" stroke="#191970" points="995.1365,-82.5045 1003.0865,-75.5011 992.5043,-76.0182 995.1365,-82.5045"/>
</g>
<!-- Node30&#45;&gt;Node26 -->
<g id="edge45" class="edge">
<title>Node30&#45;&gt;Node26</title>
<path fill="none" stroke="#191970" d="M900.1705,-112.2455C910.0661,-103.9746 924.4627,-91.9416 936.0901,-82.2232"/>
<polygon fill="#191970" stroke="#191970" points="938.535,-84.7413 943.9632,-75.6427 934.0458,-79.3703 938.535,-84.7413"/>
</g>
<!-- Node31 -->
<g id="node32" class="node">
<title>Node31</title>
<polygon fill="none" stroke="#bfbfbf" points="852.5,-56.5 852.5,-75.5 912.5,-75.5 912.5,-56.5 852.5,-56.5"/>
<text text-anchor="middle" x="882.5" y="-63.5" font-family="FreeSans.ttf" font-size="10.00" fill="#000000">iostream</text>
</g>
<!-- Node30&#45;&gt;Node31 -->
<g id="edge47" class="edge">
<title>Node30&#45;&gt;Node31</title>
<path fill="none" stroke="#191970" d="M887.4549,-112.2455C886.672,-104.9382 885.5744,-94.6944 884.6112,-85.7046"/>
<polygon fill="#191970" stroke="#191970" points="888.0786,-85.2129 883.5331,-75.6427 881.1185,-85.9587 888.0786,-85.2129"/>
</g>
<!-- Node32&#45;&gt;Node3 -->
<g id="edge51" class="edge">
<title>Node32&#45;&gt;Node3</title>
<path fill="none" stroke="#191970" d="M987.4761,-112.8682C984.4488,-112.5752 981.4506,-112.2852 978.5,-112 810.8757,-95.7973 610.1729,-76.5241 532.9585,-69.1141"/>
<polygon fill="#191970" stroke="#191970" points="533.1878,-65.6201 522.8991,-68.1488 532.519,-72.5881 533.1878,-65.6201"/>
</g>
<!-- Node32&#45;&gt;Node5 -->
<g id="edge52" class="edge">
<title>Node32&#45;&gt;Node5</title>
<path fill="none" stroke="#191970" d="M1175.74,-116.8063C1291.9275,-109.9446 1495.652,-96.423 1679.6888,-76.1414"/>
<polygon fill="#191970" stroke="#191970" points="1680.274,-79.598 1689.8263,-75.015 1679.501,-72.6408 1680.274,-79.598"/>
</g>
<!-- Node33&#45;&gt;Node3 -->
<g id="edge57" class="edge">
<title>Node33&#45;&gt;Node3</title>
<path fill="none" stroke="#191970" d="M500.5,-112.2455C500.5,-104.9382 500.5,-94.6944 500.5,-85.7046"/>
<polygon fill="#191970" stroke="#191970" points="504.0001,-85.6426 500.5,-75.6427 497.0001,-85.6427 504.0001,-85.6426"/>
</g>
<!-- Node33&#45;&gt;Node5 -->
<g id="edge58" class="edge">
<title>Node33&#45;&gt;Node5</title>
<path fill="none" stroke="#191970" d="M599.4158,-118.4362C863.3884,-108.8884 1571.3345,-83.0264 1679.8354,-75.8989"/>
<polygon fill="#191970" stroke="#191970" points="1680.1317,-79.3866 1689.8394,-75.1425 1679.6039,-72.4065 1680.1317,-79.3866"/>
</g>
<!-- Node36&#45;&gt;Node5 -->
<g id="edge116" class="edge">
<title>Node36&#45;&gt;Node5</title>
<path fill="none" stroke="#191970" d="M1139.1711,-557.2906C1339.4423,-555.0259 1855.2931,-545.9742 2023.5,-512 2065.9493,-503.4261 2178.6499,-478.1637 2206.5,-445 2305.0926,-327.5968 2255.8765,-175.8607 2116.5,-112 2065.0848,-88.4421 1910.6702,-75.5249 1819.3408,-69.7586"/>
<polygon fill="#191970" stroke="#191970" points="1819.5415,-66.2644 1809.3444,-69.14 1819.1091,-73.251 1819.5415,-66.2644"/>
</g>
<!-- Node36&#45;&gt;Node10 -->
<g id="edge72" class="edge">
<title>Node36&#45;&gt;Node10</title>
<path fill="none" stroke="#191970" d="M1056.4614,-548.3167C1050.204,-518.5938 1031.1825,-428.242 1022.6818,-387.8634"/>
<polygon fill="#191970" stroke="#191970" points="1026.0676,-386.9561 1020.5825,-377.8917 1019.2177,-388.3982 1026.0676,-386.9561"/>
</g>
<!-- Node36&#45;&gt;Node20 -->
<g id="edge74" class="edge">
<title>Node36&#45;&gt;Node20</title>
<path fill="none" stroke="#191970" d="M977.6242,-550.5237C863.624,-538.1447 650.4965,-508.2022 479.5,-445 436.2227,-429.0042 390.2517,-400.7954 363.8022,-383.3224"/>
<polygon fill="#191970" stroke="#191970" points="365.5538,-380.2831 355.2972,-377.6274 361.659,-386.0996 365.5538,-380.2831"/>
</g>
<!-- Node36&#45;&gt;Node21 -->
<g id="edge115" class="edge">
<title>Node36&#45;&gt;Node21</title>
<path fill="none" stroke="#191970" d="M1017.9698,-548.4769C984.2453,-540.1318 935.1896,-527.0117 893.5,-512 781.5148,-471.6761 653.9096,-409.8468 598.5597,-382.2067"/>
<polygon fill="#191970" stroke="#191970" points="599.8984,-378.9627 589.3903,-377.6098 596.7612,-385.2203 599.8984,-378.9627"/>
</g>
<!-- Node36&#45;&gt;Node24 -->
<g id="edge73" class="edge">
<title>Node36&#45;&gt;Node24</title>
<path fill="none" stroke="#191970" d="M1068.3722,-548.3652C1087.8811,-528.2413 1129.5,-479.4563 1129.5,-429.5 1129.5,-429.5 1129.5,-429.5 1129.5,-368 1129.5,-300.3703 1172.7022,-228.8612 1195.2104,-196.1945"/>
<polygon fill="#191970" stroke="#191970" points="1198.3012,-197.8851 1201.2095,-187.6973 1192.5827,-193.8478 1198.3012,-197.8851"/>
</g>
<!-- Node36&#45;&gt;Node30 -->
<g id="edge75" class="edge">
<title>Node36&#45;&gt;Node30</title>
<path fill="none" stroke="#191970" d="M1029.7426,-548.3903C985.9314,-531.721 907.5,-493.0102 907.5,-429.5 907.5,-429.5 907.5,-429.5 907.5,-306.5 907.5,-268.7713 918.4802,-260.6347 927.5,-224 931.4428,-207.9858 934.4849,-204.3689 936.5,-188 937.5861,-179.1777 939.9888,-176.1756 936.5,-168 931.3844,-156.0122 921.4425,-145.6498 911.9273,-137.8114"/>
<polygon fill="#191970" stroke="#191970" points="913.8754,-134.8949 903.8074,-131.5954 909.6203,-140.4532 913.8754,-134.8949"/>
</g>
<!-- Node36&#45;&gt;Node35 -->
<g id="edge71" class="edge">
<title>Node36&#45;&gt;Node35</title>
<path fill="none" stroke="#191970" d="M1139.3265,-557.1604C1358.7738,-554.4757 1962.3553,-544.2892 2158.5,-512 2163.3864,-511.1956 2168.4588,-510.0847 2173.4431,-508.8238"/>
<polygon fill="#191970" stroke="#191970" points="2174.7451,-512.096 2183.4628,-506.075 2172.8931,-505.3455 2174.7451,-512.096"/>
</g>
<!-- Node37 -->
<g id="node38" class="node">
<title>Node37</title>
<g id="a_node38"><a xlink:href="SpatialMotionVector_8h.html" target="_top" xlink:title="iDynTree/Core/SpatialMotion\lVector.h">
<polygon fill="none" stroke="#000000" points="1859,-481.5 1859,-511.5 2014,-511.5 2014,-481.5 1859,-481.5"/>
<text text-anchor="start" x="1867" y="-499.5" font-family="FreeSans.ttf" font-size="10.00" fill="#000000">iDynTree/Core/SpatialMotion</text>
<text text-anchor="middle" x="1936.5" y="-488.5" font-family="FreeSans.ttf" font-size="10.00" fill="#000000">Vector.h</text>
</a>
</g>
</g>
<!-- Node36&#45;&gt;Node37 -->
<g id="edge76" class="edge">
<title>Node36&#45;&gt;Node37</title>
<path fill="none" stroke="#191970" d="M1139.1349,-552.3519C1303.8573,-540.8138 1677.7993,-514.6208 1848.5318,-502.6618"/>
<polygon fill="#191970" stroke="#191970" points="1849.0063,-506.1372 1858.7373,-501.9469 1848.5171,-499.1543 1849.0063,-506.1372"/>
</g>
<!-- Node46 -->
<g id="node47" class="node">
<title>Node46</title>
<g id="a_node47"><a xlink:href="SpatialForceVector_8h.html" target="_top" xlink:title="iDynTree/Core/SpatialForce\lVector.h">
<polygon fill="none" stroke="#000000" points="1348.5,-481.5 1348.5,-511.5 1496.5,-511.5 1496.5,-481.5 1348.5,-481.5"/>
<text text-anchor="start" x="1356.5" y="-499.5" font-family="FreeSans.ttf" font-size="10.00" fill="#000000">iDynTree/Core/SpatialForce</text>
<text text-anchor="middle" x="1422.5" y="-488.5" font-family="FreeSans.ttf" font-size="10.00" fill="#000000">Vector.h</text>
</a>
</g>
</g>
<!-- Node36&#45;&gt;Node46 -->
<g id="edge102" class="edge">
<title>Node36&#45;&gt;Node46</title>
<path fill="none" stroke="#191970" d="M1114.9756,-548.4581C1174.7388,-538.3607 1269.7096,-522.3149 1338.3081,-510.7247"/>
<polygon fill="#191970" stroke="#191970" points="1338.9534,-514.1654 1348.2305,-509.0483 1337.7872,-507.2632 1338.9534,-514.1654"/>
</g>
<!-- Node37&#45;&gt;Node24 -->
<g id="edge77" class="edge">
<title>Node37&#45;&gt;Node24</title>
<path fill="none" stroke="#191970" d="M2014.0124,-490.8253C2078.2629,-484.3184 2162.3609,-471.0013 2183.5,-445 2259.343,-351.7125 2141.0373,-263.5474 2027.5,-224 1960.2492,-200.5751 1498.1005,-185.6733 1299.2061,-180.2763"/>
<polygon fill="#191970" stroke="#191970" points="1299.1644,-176.774 1289.0738,-180.0034 1298.9759,-183.7715 1299.1644,-176.774"/>
</g>
<!-- Node38 -->
<g id="node39" class="node">
<title>Node38</title>
<g id="a_node39"><a xlink:href="LinearMotionVector3_8h.html" target="_top" xlink:title="iDynTree/Core/LinearMotion\lVector3.h">
<polygon fill="none" stroke="#000000" points="1809,-414.5 1809,-444.5 1960,-444.5 1960,-414.5 1809,-414.5"/>
<text text-anchor="start" x="1817" y="-432.5" font-family="FreeSans.ttf" font-size="10.00" fill="#000000">iDynTree/Core/LinearMotion</text>
<text text-anchor="middle" x="1884.5" y="-421.5" font-family="FreeSans.ttf" font-size="10.00" fill="#000000">Vector3.h</text>
</a>
</g>
</g>
<!-- Node37&#45;&gt;Node38 -->
<g id="edge78" class="edge">
<title>Node37&#45;&gt;Node38</title>
<path fill="none" stroke="#191970" d="M1924.7004,-481.2967C1918.1184,-472.816 1909.7848,-462.0785 1902.4141,-452.5817"/>
<polygon fill="#191970" stroke="#191970" points="1905.1491,-450.3971 1896.2529,-444.6432 1899.6192,-454.689 1905.1491,-450.3971"/>
</g>
<!-- Node41 -->
<g id="node42" class="node">
<title>Node41</title>
<g id="a_node42"><a xlink:href="PrivateMotionForceVertorAssociations_8h.html" target="_top" xlink:title="iDynTree/Core/PrivateMotion\lForceVertorAssociations.h">
<polygon fill="none" stroke="#000000" points="1863,-224.5 1863,-254.5 2018,-254.5 2018,-224.5 1863,-224.5"/>
<text text-anchor="start" x="1871" y="-242.5" font-family="FreeSans.ttf" font-size="10.00" fill="#000000">iDynTree/Core/PrivateMotion</text>
<text text-anchor="middle" x="1940.5" y="-231.5" font-family="FreeSans.ttf" font-size="10.00" fill="#000000">ForceVertorAssociations.h</text>
</a>
</g>
</g>
<!-- Node37&#45;&gt;Node41 -->
<g id="edge101" class="edge">
<title>Node37&#45;&gt;Node41</title>
<path fill="none" stroke="#191970" d="M1946.9904,-481.4319C1959.8123,-463.7651 1982.863,-434.3198 2007.5,-414 2032.3789,-393.4807 2054.3133,-405.8925 2070.5,-378 2098.8016,-329.2312 2031.3079,-283.8249 1983.356,-259.0443"/>
<polygon fill="#191970" stroke="#191970" points="1984.8649,-255.8855 1974.3591,-254.5147 1981.717,-262.1378 1984.8649,-255.8855"/>
</g>
<!-- Node42 -->
<g id="node43" class="node">
<title>Node42</title>
<g id="a_node43"><a xlink:href="AngularMotionVector3_8h.html" target="_top" xlink:title="iDynTree/Core/AngularMotion\lVector3.h">
<polygon fill="none" stroke="#000000" points="2016.5,-414.5 2016.5,-444.5 2174.5,-444.5 2174.5,-414.5 2016.5,-414.5"/>
<text text-anchor="start" x="2024.5" y="-432.5" font-family="FreeSans.ttf" font-size="10.00" fill="#000000">iDynTree/Core/AngularMotion</text>
<text text-anchor="middle" x="2095.5" y="-421.5" font-family="FreeSans.ttf" font-size="10.00" fill="#000000">Vector3.h</text>
</a>
</g>
</g>
<!-- Node37&#45;&gt;Node42 -->
<g id="edge87" class="edge">
<title>Node37&#45;&gt;Node42</title>
<path fill="none" stroke="#191970" d="M1972.1827,-481.4639C1995.2192,-471.7567 2025.3941,-459.0415 2050.1286,-448.6188"/>
<polygon fill="#191970" stroke="#191970" points="2051.8055,-451.7103 2059.6617,-444.6017 2049.0873,-445.2596 2051.8055,-451.7103"/>
</g>
<!-- Node43 -->
<g id="node44" class="node">
<title>Node43</title>
<g id="a_node44"><a xlink:href="SpatialVector_8h.html" target="_top" xlink:title="iDynTree/Core/SpatialVector.h">
<polygon fill="none" stroke="#000000" points="1256,-358.5 1256,-377.5 1417,-377.5 1417,-358.5 1256,-358.5"/>
<text text-anchor="middle" x="1336.5" y="-365.5" font-family="FreeSans.ttf" font-size="10.00" fill="#000000">iDynTree/Core/SpatialVector.h</text>
</a>
</g>
</g>
<!-- Node37&#45;&gt;Node43 -->
<g id="edge91" class="edge">
<title>Node37&#45;&gt;Node43</title>
<path fill="none" stroke="#191970" d="M1858.5577,-494.1046C1736.1464,-489.4216 1504.9924,-476.5973 1429.5,-445 1420.9441,-441.4189 1379.7648,-405.9836 1355.1619,-384.4522"/>
<polygon fill="#191970" stroke="#191970" points="1357.3495,-381.7153 1347.5249,-377.7494 1352.732,-386.9764 1357.3495,-381.7153"/>
</g>
<!-- Node39 -->
<g id="node40" class="node">
<title>Node39</title>
<g id="a_node40"><a xlink:href="MotionVector3_8h.html" target="_top" xlink:title="iDynTree/Core/MotionVector3.h">
<polygon fill="none" stroke="#000000" points="1894,-358.5 1894,-377.5 2061,-377.5 2061,-358.5 1894,-358.5"/>
<text text-anchor="middle" x="1977.5" y="-365.5" font-family="FreeSans.ttf" font-size="10.00" fill="#000000">iDynTree/Core/MotionVector3.h</text>
</a>
</g>
</g>
<!-- Node38&#45;&gt;Node39 -->
<g id="edge79" class="edge">
<title>Node38&#45;&gt;Node39</title>
<path fill="none" stroke="#191970" d="M1907.4888,-414.2977C1921.6966,-404.9022 1939.8785,-392.8787 1954.1525,-383.4395"/>
<polygon fill="#191970" stroke="#191970" points="1956.4767,-386.0986 1962.8872,-377.6633 1952.6155,-380.2598 1956.4767,-386.0986"/>
</g>
<!-- Node38&#45;&gt;Node41 -->
<g id="edge86" class="edge">
<title>Node38&#45;&gt;Node41</title>
<path fill="none" stroke="#191970" d="M1880.2242,-414.3811C1876.7818,-398.8366 1874.1737,-374.6187 1885.5,-358 1909.2985,-323.0814 1949.9462,-357.0842 1973.5,-322 1985.8401,-303.619 1973.973,-279.9189 1961.1619,-262.6403"/>
<polygon fill="#191970" stroke="#191970" points="1963.8489,-260.3955 1954.899,-254.7254 1958.3595,-264.7392 1963.8489,-260.3955"/>
</g>
<!-- Node40 -->
<g id="node41" class="node">
<title>Node40</title>
<g id="a_node41"><a xlink:href="GeomVector3_8h.html" target="_top" xlink:title="iDynTree/Core/GeomVector3.h">
<polygon fill="none" stroke="#000000" points="1616,-297 1616,-316 1779,-316 1779,-297 1616,-297"/>
<text text-anchor="middle" x="1697.5" y="-304" font-family="FreeSans.ttf" font-size="10.00" fill="#000000">iDynTree/Core/GeomVector3.h</text>
</a>
</g>
</g>
<!-- Node39&#45;&gt;Node40 -->
<g id="edge80" class="edge">
<title>Node39&#45;&gt;Node40</title>
<path fill="none" stroke="#191970" d="M1934.0572,-358.4581C1884.7044,-347.6181 1804.1384,-329.9224 1750.968,-318.2439"/>
<polygon fill="#191970" stroke="#191970" points="1751.5628,-314.7911 1741.0447,-316.0643 1750.061,-321.6282 1751.5628,-314.7911"/>
</g>
<!-- Node39&#45;&gt;Node41 -->
<g id="edge85" class="edge">
<title>Node39&#45;&gt;Node41</title>
<path fill="none" stroke="#191970" d="M1987.4094,-358.357C2001.3012,-343.6156 2023.5836,-314.6926 2011.5,-291 2004.9864,-278.2286 1993.6608,-267.8854 1981.9436,-259.9119"/>
<polygon fill="#191970" stroke="#191970" points="1983.7304,-256.9009 1973.4056,-254.5239 1979.9946,-262.8206 1983.7304,-256.9009"/>
</g>
<!-- Node40&#45;&gt;Node5 -->
<g id="edge84" class="edge">
<title>Node40&#45;&gt;Node5</title>
<path fill="none" stroke="#191970" d="M1699.6029,-296.7742C1707.3943,-260.739 1734.7112,-134.3983 1745.2801,-85.5168"/>
<polygon fill="#191970" stroke="#191970" points="1748.7355,-86.0971 1747.4279,-75.5833 1741.8936,-84.6177 1748.7355,-86.0971"/>
</g>
<!-- Node40&#45;&gt;Node24 -->
<g id="edge81" class="edge">
<title>Node40&#45;&gt;Node24</title>
<path fill="none" stroke="#191970" d="M1677.8313,-296.9201C1641.756,-279.7385 1562.2117,-243.6485 1491.5,-224 1428.4035,-206.4676 1355.4172,-194.8065 1299.3702,-187.6125"/>
<polygon fill="#191970" stroke="#191970" points="1299.4672,-184.0972 1289.1083,-186.3208 1298.5929,-191.0424 1299.4672,-184.0972"/>
</g>
<!-- Node40&#45;&gt;Node28 -->
<g id="edge82" class="edge">
<title>Node40&#45;&gt;Node28</title>
<path fill="none" stroke="#191970" d="M1615.9663,-298.6172C1481.6271,-285.6292 1215.4838,-259.8981 1083.0951,-247.0987"/>
<polygon fill="#191970" stroke="#191970" points="1083.3156,-243.6037 1073.0252,-246.1251 1082.6419,-250.5713 1083.3156,-243.6037"/>
</g>
<!-- Node40&#45;&gt;Node41 -->
<g id="edge83" class="edge">
<title>Node40&#45;&gt;Node41</title>
<path fill="none" stroke="#191970" d="M1732.0579,-296.9717C1769.4126,-286.6723 1829.7917,-270.0245 1875.9743,-257.291"/>
<polygon fill="#191970" stroke="#191970" points="1877.1863,-260.5875 1885.8963,-254.5553 1875.3257,-253.8393 1877.1863,-260.5875"/>
</g>
<!-- Node42&#45;&gt;Node5 -->
<g id="edge90" class="edge">
<title>Node42&#45;&gt;Node5</title>
<path fill="none" stroke="#191970" d="M2110.8133,-414.3403C2131.1413,-392.5238 2164.5,-350.0828 2164.5,-306.5 2164.5,-306.5 2164.5,-306.5 2164.5,-178 2164.5,-107.3906 1937.7385,-79.9715 1819.4587,-70.4723"/>
<polygon fill="#191970" stroke="#191970" points="1819.6436,-66.9762 1809.4014,-69.6868 1819.0984,-73.9549 1819.6436,-66.9762"/>
</g>
<!-- Node42&#45;&gt;Node39 -->
<g id="edge88" class="edge">
<title>Node42&#45;&gt;Node39</title>
<path fill="none" stroke="#191970" d="M2066.634,-414.4554C2047.8089,-404.644 2023.389,-391.9167 2004.8708,-382.2653"/>
<polygon fill="#191970" stroke="#191970" points="2006.2713,-379.0484 1995.7858,-377.5303 2003.036,-385.2559 2006.2713,-379.0484"/>
</g>
<!-- Node42&#45;&gt;Node41 -->
<g id="edge89" class="edge">
<title>Node42&#45;&gt;Node41</title>
<path fill="none" stroke="#191970" d="M2101.8751,-414.4261C2112.3892,-386.945 2129.6474,-328.1164 2102.5,-291 2092.6289,-277.504 2059.7564,-265.8655 2026.179,-257.0842"/>
<polygon fill="#191970" stroke="#191970" points="2026.7894,-253.6284 2016.2364,-254.5682 2025.0722,-260.4145 2026.7894,-253.6284"/>
</g>
<!-- Node43&#45;&gt;Node5 -->
<g id="edge95" class="edge">
<title>Node43&#45;&gt;Node5</title>
<path fill="none" stroke="#191970" d="M1397.7646,-358.4786C1446.2268,-350.041 1509.1643,-336.7903 1530.5,-322 1622.8914,-257.9527 1589.7183,-189.1361 1671.5,-112 1685.2329,-99.0472 1703.2438,-88.125 1718.4981,-80.1782"/>
<polygon fill="#191970" stroke="#191970" points="1720.2083,-83.236 1727.5769,-75.6232 1717.0692,-76.9793 1720.2083,-83.236"/>
</g>
<!-- Node43&#45;&gt;Node22 -->
<g id="edge92" class="edge">
<title>Node43&#45;&gt;Node22</title>
<path fill="none" stroke="#191970" d="M1255.7791,-360.4897C1127.8552,-348.5875 880.1361,-325.5395 753.7649,-313.7818"/>
<polygon fill="#191970" stroke="#191970" points="754.0511,-310.2934 743.7698,-312.8519 753.4025,-317.2633 754.0511,-310.2934"/>
</g>
<!-- Node43&#45;&gt;Node25 -->
<g id="edge100" class="edge">
<title>Node43&#45;&gt;Node25</title>
<path fill="none" stroke="#191970" d="M1334.6188,-358.489C1332.7842,-349.1897 1329.9241,-334.6267 1327.5,-322 1309.2883,-227.1375 1348.6042,-170.1851 1271.5,-112 1199.0982,-57.3634 1157.8981,-93.6604 1064.5236,-75.9375"/>
<polygon fill="#191970" stroke="#191970" points="1065.2161,-72.5067 1054.7152,-73.9145 1063.8021,-79.3624 1065.2161,-72.5067"/>
</g>
<!-- Node43&#45;&gt;Node28 -->
<g id="edge93" class="edge">
<title>Node43&#45;&gt;Node28</title>
<path fill="none" stroke="#191970" d="M1311.8173,-358.4466C1253.3551,-335.8189 1106.311,-278.9058 1039.0501,-252.8726"/>
<polygon fill="#191970" stroke="#191970" points="1039.9344,-249.4619 1029.3452,-249.1163 1037.4077,-255.9899 1039.9344,-249.4619"/>
</g>
<!-- Node43&#45;&gt;Node31 -->
<g id="edge99" class="edge">
<title>Node43&#45;&gt;Node31</title>
<path fill="none" stroke="#191970" d="M1315.5228,-358.4824C1269.6118,-336.3279 1161.0193,-276.3841 1119.5,-188 1115.7206,-179.9546 1114.9872,-175.6581 1119.5,-168 1136.2659,-139.5487 1167.7341,-160.4513 1184.5,-132 1189.0128,-124.3419 1190.3437,-118.6981 1184.5,-112 1147.5374,-69.6333 994.7016,-85.6299 922.6731,-75.7524"/>
<polygon fill="#191970" stroke="#191970" points="923.0925,-72.2743 912.6557,-74.0972 921.9513,-79.1806 923.0925,-72.2743"/>
</g>
<!-- Node43&#45;&gt;Node41 -->
<g id="edge94" class="edge">
<title>Node43&#45;&gt;Node41</title>
<path fill="none" stroke="#191970" d="M1417.132,-364.8005C1528.3579,-359.5353 1722.5978,-347.0339 1788.5,-322 1810.5243,-313.6338 1811.2084,-302.9714 1831.5,-291 1851.7302,-279.0648 1875.1709,-267.6967 1895.1194,-258.6922"/>
<polygon fill="#191970" stroke="#191970" points="1896.5974,-261.8654 1904.3078,-254.599 1893.7489,-255.4712 1896.5974,-261.8654"/>
</g>
<!-- Node44 -->
<g id="node45" class="node">
<title>Node44</title>
<g id="a_node45"><a xlink:href="PrivatePreProcessorUtils_8h.html" target="_top" xlink:title="iDynTree/Core/PrivatePre\lProcessorUtils.h">
<polygon fill="none" stroke="#000000" points="1344.5,-224.5 1344.5,-254.5 1482.5,-254.5 1482.5,-224.5 1344.5,-224.5"/>
<text text-anchor="start" x="1352.5" y="-242.5" font-family="FreeSans.ttf" font-size="10.00" fill="#000000">iDynTree/Core/PrivatePre</text>
<text text-anchor="middle" x="1413.5" y="-231.5" font-family="FreeSans.ttf" font-size="10.00" fill="#000000">ProcessorUtils.h</text>
</a>
</g>
</g>
<!-- Node43&#45;&gt;Node44 -->
<g id="edge96" class="edge">
<title>Node43&#45;&gt;Node44</title>
<path fill="none" stroke="#191970" d="M1334.2734,-358.2776C1331.3013,-342.9239 1327.6798,-312.5922 1339.5,-291 1346.5157,-278.1843 1358.2536,-267.8674 1370.3373,-259.931"/>
<polygon fill="#191970" stroke="#191970" points="1372.4158,-262.7631 1379.1346,-254.5711 1368.7737,-256.7853 1372.4158,-262.7631"/>
</g>
<!-- Node45 -->
<g id="node46" class="node">
<title>Node45</title>
<g id="a_node46"><a xlink:href="PrivateSemanticsMacros_8h.html" target="_top" xlink:title="iDynTree/Core/PrivateSemantics\lMacros.h">
<polygon fill="none" stroke="#000000" points="1348,-291.5 1348,-321.5 1521,-321.5 1521,-291.5 1348,-291.5"/>
<text text-anchor="start" x="1356" y="-309.5" font-family="FreeSans.ttf" font-size="10.00" fill="#000000">iDynTree/Core/PrivateSemantics</text>
<text text-anchor="middle" x="1434.5" y="-298.5" font-family="FreeSans.ttf" font-size="10.00" fill="#000000">Macros.h</text>
</a>
</g>
</g>
<!-- Node43&#45;&gt;Node45 -->
<g id="edge97" class="edge">
<title>Node43&#45;&gt;Node45</title>
<path fill="none" stroke="#191970" d="M1351.8125,-358.3906C1365.1984,-349.9903 1385.0853,-337.5103 1402.0014,-326.8945"/>
<polygon fill="#191970" stroke="#191970" points="1403.9167,-329.8248 1410.5265,-321.5446 1400.1958,-323.8956 1403.9167,-329.8248"/>
</g>
<!-- Node45&#45;&gt;Node44 -->
<g id="edge98" class="edge">
<title>Node45&#45;&gt;Node44</title>
<path fill="none" stroke="#191970" d="M1429.7348,-291.2967C1427.2377,-283.3299 1424.1165,-273.3718 1421.2798,-264.3213"/>
<polygon fill="#191970" stroke="#191970" points="1424.5771,-263.1386 1418.2464,-254.6432 1417.8975,-265.2323 1424.5771,-263.1386"/>
</g>
<!-- Node46&#45;&gt;Node24 -->
<g id="edge103" class="edge">
<title>Node46&#45;&gt;Node24</title>
<path fill="none" stroke="#191970" d="M1348.4278,-484.1155C1285.5646,-468.8676 1205.5,-436.0833 1205.5,-368 1205.5,-368 1205.5,-368 1205.5,-306.5 1205.5,-267.9908 1206.8632,-223.0076 1207.7518,-197.7779"/>
<polygon fill="#191970" stroke="#191970" points="1211.2536,-197.7909 1208.12,-187.6701 1204.2582,-197.536 1211.2536,-197.7909"/>
</g>
<!-- Node46&#45;&gt;Node41 -->
<g id="edge114" class="edge">
<title>Node46&#45;&gt;Node41</title>
<path fill="none" stroke="#191970" d="M1496.616,-489.7409C1581.634,-481.2043 1715.254,-465.1652 1761.5,-445 1781.7965,-436.1499 1783.1305,-427.7321 1800.5,-414 1806.9865,-408.8718 1912.9122,-328.8793 1917.5,-322 1928.9777,-304.7896 1934.7731,-281.9194 1937.6724,-264.6241"/>
<polygon fill="#191970" stroke="#191970" points="1941.1433,-265.0777 1939.1284,-254.6763 1934.217,-264.064 1941.1433,-265.0777"/>
</g>
<!-- Node46&#45;&gt;Node43 -->
<g id="edge113" class="edge">
<title>Node46&#45;&gt;Node43</title>
<path fill="none" stroke="#191970" d="M1412.038,-481.2087C1405.0573,-470.9803 1395.6913,-457.2087 1387.5,-445 1374.0354,-424.9317 1358.7475,-401.8038 1348.4504,-386.1751"/>
<polygon fill="#191970" stroke="#191970" points="1351.1667,-383.9358 1342.7449,-377.5075 1345.3198,-387.7847 1351.1667,-383.9358"/>
</g>
<!-- Node47 -->
<g id="node48" class="node">
<title>Node47</title>
<g id="a_node48"><a xlink:href="LinearForceVector3_8h.html" target="_top" xlink:title="iDynTree/Core/LinearForce\lVector3.h">
<polygon fill="none" stroke="#000000" points="1438.5,-414.5 1438.5,-444.5 1582.5,-444.5 1582.5,-414.5 1438.5,-414.5"/>
<text text-anchor="start" x="1446.5" y="-432.5" font-family="FreeSans.ttf" font-size="10.00" fill="#000000">iDynTree/Core/LinearForce</text>
<text text-anchor="middle" x="1510.5" y="-421.5" font-family="FreeSans.ttf" font-size="10.00" fill="#000000">Vector3.h</text>
</a>
</g>
</g>
<!-- Node46&#45;&gt;Node47 -->
<g id="edge104" class="edge">
<title>Node46&#45;&gt;Node47</title>
<path fill="none" stroke="#191970" d="M1442.4686,-481.2967C1454.2825,-472.302 1469.4306,-460.7687 1482.4327,-450.8694"/>
<polygon fill="#191970" stroke="#191970" points="1484.7743,-453.4857 1490.6105,-444.6432 1480.5338,-447.9162 1484.7743,-453.4857"/>
</g>
<!-- Node49 -->
<g id="node50" class="node">
<title>Node49</title>
<g id="a_node50"><a xlink:href="AngularForceVector3_8h.html" target="_top" xlink:title="iDynTree/Core/AngularForce\lVector3.h">
<polygon fill="none" stroke="#000000" points="1600.5,-414.5 1600.5,-444.5 1752.5,-444.5 1752.5,-414.5 1600.5,-414.5"/>
<text text-anchor="start" x="1608.5" y="-432.5" font-family="FreeSans.ttf" font-size="10.00" fill="#000000">iDynTree/Core/AngularForce</text>
<text text-anchor="middle" x="1676.5" y="-421.5" font-family="FreeSans.ttf" font-size="10.00" fill="#000000">Vector3.h</text>
</a>
</g>
</g>
<!-- Node46&#45;&gt;Node49 -->
<g id="edge109" class="edge">
<title>Node46&#45;&gt;Node49</title>
<path fill="none" stroke="#191970" d="M1479.5026,-481.4639C1518.0128,-471.3057 1569.0106,-457.8535 1609.469,-447.1814"/>
<polygon fill="#191970" stroke="#191970" points="1610.4723,-450.5366 1619.2488,-444.6017 1608.6868,-443.7681 1610.4723,-450.5366"/>
</g>
<!-- Node47&#45;&gt;Node41 -->
<g id="edge108" class="edge">
<title>Node47&#45;&gt;Node41</title>
<path fill="none" stroke="#191970" d="M1523.1672,-414.4175C1538.1345,-397.6972 1564.6717,-371.3324 1593.5,-358 1687.4101,-314.5687 1729.5857,-365.4223 1823.5,-322 1842.6652,-313.1388 1842.5467,-303.5862 1859.5,-291 1874.2368,-280.0594 1891.2864,-269 1905.9308,-259.9493"/>
<polygon fill="#191970" stroke="#191970" points="1907.9885,-262.7937 1914.696,-254.5925 1904.3382,-256.8208 1907.9885,-262.7937"/>
</g>
<!-- Node48 -->
<g id="node49" class="node">
<title>Node48</title>
<g id="a_node49"><a xlink:href="ForceVector3_8h.html" target="_top" xlink:title="iDynTree/Core/ForceVector3.h">
<polygon fill="none" stroke="#000000" points="1602.5,-358.5 1602.5,-377.5 1762.5,-377.5 1762.5,-358.5 1602.5,-358.5"/>
<text text-anchor="middle" x="1682.5" y="-365.5" font-family="FreeSans.ttf" font-size="10.00" fill="#000000">iDynTree/Core/ForceVector3.h</text>
</a>
</g>
</g>
<!-- Node47&#45;&gt;Node48 -->
<g id="edge105" class="edge">
<title>Node47&#45;&gt;Node48</title>
<path fill="none" stroke="#191970" d="M1552.5759,-414.4554C1581.2746,-404.194 1618.8937,-390.7429 1646.2623,-380.9571"/>
<polygon fill="#191970" stroke="#191970" points="1647.6083,-384.1929 1655.8461,-377.5303 1645.2515,-377.6015 1647.6083,-384.1929"/>
</g>
<!-- Node48&#45;&gt;Node40 -->
<g id="edge106" class="edge">
<title>Node48&#45;&gt;Node40</title>
<path fill="none" stroke="#191970" d="M1684.8438,-358.3906C1686.9449,-349.776 1690.0925,-336.8708 1692.723,-326.0858"/>
<polygon fill="#191970" stroke="#191970" points="1696.1539,-326.7894 1695.1232,-316.2449 1689.3532,-325.1307 1696.1539,-326.7894"/>
</g>
<!-- Node48&#45;&gt;Node41 -->
<g id="edge107" class="edge">
<title>Node48&#45;&gt;Node41</title>
<path fill="none" stroke="#191970" d="M1753.9404,-358.4932C1787.6099,-351.8069 1827.3446,-340.6 1859.5,-322 1885.4158,-307.0092 1908.6296,-281.4805 1923.4922,-262.7826"/>
<polygon fill="#191970" stroke="#191970" points="1926.3665,-264.7871 1929.7131,-254.7347 1920.8281,-260.5061 1926.3665,-264.7871"/>
</g>
<!-- Node49&#45;&gt;Node5 -->
<g id="edge112" class="edge">
<title>Node49&#45;&gt;Node5</title>
<path fill="none" stroke="#191970" d="M1635.5892,-414.4816C1619.4717,-406.3159 1602.6519,-394.4491 1593.5,-378 1583.3717,-359.7961 1593.3223,-326.0392 1607.5,-291 1641.3607,-207.3157 1706.2817,-120.2703 1735.1037,-83.7688"/>
<polygon fill="#191970" stroke="#191970" points="1738.1119,-85.6103 1741.6126,-75.6105 1732.64,-81.2446 1738.1119,-85.6103"/>
</g>
<!-- Node49&#45;&gt;Node41 -->
<g id="edge111" class="edge">
<title>Node49&#45;&gt;Node41</title>
<path fill="none" stroke="#191970" d="M1704.8723,-414.3703C1732.6514,-399.6591 1776.2546,-376.8386 1814.5,-358 1848.3896,-341.307 1863.503,-347.3639 1891.5,-322 1909.2085,-305.957 1922.4558,-281.9919 1930.6817,-264.0188"/>
<polygon fill="#191970" stroke="#191970" points="1933.9397,-265.3037 1934.7315,-254.7385 1927.5239,-262.5039 1933.9397,-265.3037"/>
</g>
<!-- Node49&#45;&gt;Node48 -->
<g id="edge110" class="edge">
<title>Node49&#45;&gt;Node48</title>
<path fill="none" stroke="#191970" d="M1677.9831,-414.2977C1678.7553,-406.3834 1679.7093,-396.6043 1680.5414,-388.0759"/>
<polygon fill="#191970" stroke="#191970" points="1684.0517,-388.1396 1681.5393,-377.8469 1677.0848,-387.4598 1684.0517,-388.1396"/>
</g>
</g>
</svg>
