<?xml version="1.0" encoding="UTF-8" standalone="no"?>
<!DOCTYPE svg PUBLIC "-//W3C//DTD SVG 1.1//EN"
 "http://www.w3.org/Graphics/SVG/1.1/DTD/svg11.dtd">
<!-- Generated by graphviz version 2.40.1 (20161225.0304)
 -->
<!-- Title: LinearMotionVector3.cpp Pages: 1 -->
<svg width="1251pt" height="509pt"
 viewBox="0.00 0.00 1250.72 509.00" xmlns="http://www.w3.org/2000/svg" xmlns:xlink="http://www.w3.org/1999/xlink">
<g id="graph0" class="graph" transform="scale(1 1) rotate(0) translate(4 505)">
<title>LinearMotionVector3.cpp</title>
<!-- Node0 -->
<g id="node1" class="node">
<title>Node0</title>
<polygon fill="#bfbfbf" stroke="#000000" points="318.5,-481.5 318.5,-500.5 455.5,-500.5 455.5,-481.5 318.5,-481.5"/>
<text text-anchor="middle" x="387" y="-488.5" font-family="FreeSans.ttf" font-size="10.00" fill="#000000">LinearMotionVector3.cpp</text>
</g>
<!-- Node1 -->
<g id="node2" class="node">
<title>Node1</title>
<g id="a_node2"><a xlink:href="LinearMotionVector3_8h.html" target="_top" xlink:title="iDynTree/Core/LinearMotion\lVector3.h">
<polygon fill="none" stroke="#000000" points="188.5,-414.5 188.5,-444.5 339.5,-444.5 339.5,-414.5 188.5,-414.5"/>
<text text-anchor="start" x="196.5" y="-432.5" font-family="FreeSans.ttf" font-size="10.00" fill="#000000">iDynTree/Core/LinearMotion</text>
<text text-anchor="middle" x="264" y="-421.5" font-family="FreeSans.ttf" font-size="10.00" fill="#000000">Vector3.h</text>
</a>
</g>
</g>
<!-- Node0&#45;&gt;Node1 -->
<g id="edge1" class="edge">
<title>Node0&#45;&gt;Node1</title>
<path fill="none" stroke="#191970" d="M367.7813,-481.3906C350.5182,-472.7591 324.6404,-459.8202 303.0447,-449.0224"/>
<polygon fill="#191970" stroke="#191970" points="304.5987,-445.8863 294.0892,-444.5446 301.4682,-452.1473 304.5987,-445.8863"/>
</g>
<!-- Node25 -->
<g id="node26" class="node">
<title>Node25</title>
<g id="a_node26"><a xlink:href="AngularMotionVector3_8h.html" target="_top" xlink:title="iDynTree/Core/AngularMotion\lVector3.h">
<polygon fill="none" stroke="#000000" points="0,-414.5 0,-444.5 158,-444.5 158,-414.5 0,-414.5"/>
<text text-anchor="start" x="8" y="-432.5" font-family="FreeSans.ttf" font-size="10.00" fill="#000000">iDynTree/Core/AngularMotion</text>
<text text-anchor="middle" x="79" y="-421.5" font-family="FreeSans.ttf" font-size="10.00" fill="#000000">Vector3.h</text>
</a>
</g>
</g>
<!-- Node0&#45;&gt;Node25 -->
<g id="edge40" class="edge">
<title>Node0&#45;&gt;Node25</title>
<path fill="none" stroke="#191970" d="M339.2129,-481.4581C292.5892,-472.1485 220.6415,-457.7823 164.2072,-446.5138"/>
<polygon fill="#191970" stroke="#191970" points="164.7105,-443.0452 154.2187,-444.5193 163.3397,-449.9097 164.7105,-443.0452"/>
</g>
<!-- Node26 -->
<g id="node27" class="node">
<title>Node26</title>
<g id="a_node27"><a xlink:href="Position_8h.html" target="_top" xlink:title="iDynTree/Core/Position.h">
<polygon fill="none" stroke="#000000" points="869,-291.5 869,-310.5 1005,-310.5 1005,-291.5 869,-291.5"/>
<text text-anchor="middle" x="937" y="-298.5" font-family="FreeSans.ttf" font-size="10.00" fill="#000000">iDynTree/Core/Position.h</text>
</a>
</g>
</g>
<!-- Node0&#45;&gt;Node26 -->
<g id="edge44" class="edge">
<title>Node0&#45;&gt;Node26</title>
<path fill="none" stroke="#191970" d="M385.433,-481.4506C381.7567,-455.3591 375.6428,-382.4576 415,-347 447.2287,-317.9646 721.1793,-306.6605 858.7838,-302.7837"/>
<polygon fill="#191970" stroke="#191970" points="858.9526,-306.2804 868.8524,-302.5064 858.7598,-299.2831 858.9526,-306.2804"/>
</g>
<!-- Node29 -->
<g id="node30" class="node">
<title>Node29</title>
<g id="a_node30"><a xlink:href="PrivatePreProcessorUtils_8h.html" target="_top" xlink:title="iDynTree/Core/PrivatePre\lProcessorUtils.h">
<polygon fill="none" stroke="#000000" points="424,-347.5 424,-377.5 562,-377.5 562,-347.5 424,-347.5"/>
<text text-anchor="start" x="432" y="-365.5" font-family="FreeSans.ttf" font-size="10.00" fill="#000000">iDynTree/Core/PrivatePre</text>
<text text-anchor="middle" x="493" y="-354.5" font-family="FreeSans.ttf" font-size="10.00" fill="#000000">ProcessorUtils.h</text>
</a>
</g>
</g>
<!-- Node0&#45;&gt;Node29 -->
<g id="edge52" class="edge">
<title>Node0&#45;&gt;Node29</title>
<path fill="none" stroke="#191970" d="M390.3439,-481.191C395.9546,-465.7187 408.4036,-435.2274 426,-414 435.5685,-402.457 448.1747,-391.9229 459.8685,-383.4316"/>
<polygon fill="#191970" stroke="#191970" points="461.9798,-386.226 468.1656,-377.6245 457.9659,-380.4911 461.9798,-386.226"/>
</g>
<!-- Node30 -->
<g id="node31" class="node">
<title>Node30</title>
<g id="a_node31"><a xlink:href="PrivateSemanticsMacros_8h.html" target="_top" xlink:title="iDynTree/Core/PrivateSemantics\lMacros.h">
<polygon fill="none" stroke="#000000" points="434.5,-414.5 434.5,-444.5 607.5,-444.5 607.5,-414.5 434.5,-414.5"/>
<text text-anchor="start" x="442.5" y="-432.5" font-family="FreeSans.ttf" font-size="10.00" fill="#000000">iDynTree/Core/PrivateSemantics</text>
<text text-anchor="middle" x="521" y="-421.5" font-family="FreeSans.ttf" font-size="10.00" fill="#000000">Macros.h</text>
</a>
</g>
</g>
<!-- Node0&#45;&gt;Node30 -->
<g id="edge53" class="edge">
<title>Node0&#45;&gt;Node30</title>
<path fill="none" stroke="#191970" d="M407.9375,-481.3906C426.9124,-472.682 455.4407,-459.5888 479.0926,-448.7336"/>
<polygon fill="#191970" stroke="#191970" points="480.5913,-451.8968 488.2199,-444.5446 477.6715,-445.5349 480.5913,-451.8968"/>
</g>
<!-- Node31 -->
<g id="node32" class="node">
<title>Node31</title>
<polygon fill="none" stroke="#bfbfbf" points="625.5,-420 625.5,-439 702.5,-439 702.5,-420 625.5,-420"/>
<text text-anchor="middle" x="664" y="-427" font-family="FreeSans.ttf" font-size="10.00" fill="#000000">Eigen/Dense</text>
</g>
<!-- Node0&#45;&gt;Node31 -->
<g id="edge55" class="edge">
<title>Node0&#45;&gt;Node31</title>
<path fill="none" stroke="#191970" d="M444.6272,-481.473C491.4172,-473.2601 558.9236,-460.3237 617,-445 620.3412,-444.1184 623.7927,-443.1312 627.2372,-442.0934"/>
<polygon fill="#191970" stroke="#191970" points="628.3379,-445.4164 636.8293,-439.0802 626.2399,-438.7381 628.3379,-445.4164"/>
</g>
<!-- Node2 -->
<g id="node3" class="node">
<title>Node2</title>
<g id="a_node3"><a xlink:href="MotionVector3_8h.html" target="_top" xlink:title="iDynTree/Core/MotionVector3.h">
<polygon fill="none" stroke="#000000" points="82.5,-353 82.5,-372 249.5,-372 249.5,-353 82.5,-353"/>
<text text-anchor="middle" x="166" y="-360" font-family="FreeSans.ttf" font-size="10.00" fill="#000000">iDynTree/Core/MotionVector3.h</text>
</a>
</g>
</g>
<!-- Node1&#45;&gt;Node2 -->
<g id="edge2" class="edge">
<title>Node1&#45;&gt;Node2</title>
<path fill="none" stroke="#191970" d="M241.7623,-414.2967C225.7522,-403.351 204.2437,-388.6462 188.2344,-377.701"/>
<polygon fill="#191970" stroke="#191970" points="190.2064,-374.8095 179.9759,-372.055 186.2557,-380.5881 190.2064,-374.8095"/>
</g>
<!-- Node24 -->
<g id="node25" class="node">
<title>Node24</title>
<g id="a_node25"><a xlink:href="PrivateMotionForceVertorAssociations_8h.html" target="_top" xlink:title="iDynTree/Core/PrivateMotion\lForceVertorAssociations.h">
<polygon fill="none" stroke="#000000" points="88.5,-224.5 88.5,-254.5 243.5,-254.5 243.5,-224.5 88.5,-224.5"/>
<text text-anchor="start" x="96.5" y="-242.5" font-family="FreeSans.ttf" font-size="10.00" fill="#000000">iDynTree/Core/PrivateMotion</text>
<text text-anchor="middle" x="166" y="-231.5" font-family="FreeSans.ttf" font-size="10.00" fill="#000000">ForceVertorAssociations.h</text>
</a>
</g>
</g>
<!-- Node1&#45;&gt;Node24 -->
<g id="edge39" class="edge">
<title>Node1&#45;&gt;Node24</title>
<path fill="none" stroke="#191970" d="M265.6591,-414.2541C266.899,-397.1904 267.0683,-369.0467 258,-347 243.8519,-312.6035 214.2584,-281.2908 192.438,-261.4458"/>
<polygon fill="#191970" stroke="#191970" points="194.5984,-258.6837 184.7937,-254.6689 189.9547,-263.9217 194.5984,-258.6837"/>
</g>
<!-- Node3 -->
<g id="node4" class="node">
<title>Node3</title>
<g id="a_node4"><a xlink:href="GeomVector3_8h.html" target="_top" xlink:title="iDynTree/Core/GeomVector3.h">
<polygon fill="none" stroke="#000000" points="303.5,-291.5 303.5,-310.5 466.5,-310.5 466.5,-291.5 303.5,-291.5"/>
<text text-anchor="middle" x="385" y="-298.5" font-family="FreeSans.ttf" font-size="10.00" fill="#000000">iDynTree/Core/GeomVector3.h</text>
</a>
</g>
</g>
<!-- Node2&#45;&gt;Node3 -->
<g id="edge3" class="edge">
<title>Node2&#45;&gt;Node3</title>
<path fill="none" stroke="#191970" d="M200.2188,-352.8906C238.2275,-342.2169 299.6911,-324.9566 341.1884,-313.3033"/>
<polygon fill="#191970" stroke="#191970" points="342.3402,-316.6153 351.0215,-310.5419 340.4477,-309.8759 342.3402,-316.6153"/>
</g>
<!-- Node2&#45;&gt;Node24 -->
<g id="edge38" class="edge">
<title>Node2&#45;&gt;Node24</title>
<path fill="none" stroke="#191970" d="M166,-352.8484C166,-334.133 166,-292.356 166,-265.0844"/>
<polygon fill="#191970" stroke="#191970" points="169.5001,-264.7364 166,-254.7365 162.5001,-264.7365 169.5001,-264.7364"/>
</g>
<!-- Node4 -->
<g id="node5" class="node">
<title>Node4</title>
<g id="a_node5"><a xlink:href="VectorFixSize_8h.html" target="_top" xlink:title="iDynTree/Core/VectorFixSize.h">
<polygon fill="none" stroke="#000000" points="300.5,-112.5 300.5,-131.5 461.5,-131.5 461.5,-112.5 300.5,-112.5"/>
<text text-anchor="middle" x="381" y="-119.5" font-family="FreeSans.ttf" font-size="10.00" fill="#000000">iDynTree/Core/VectorFixSize.h</text>
</a>
</g>
</g>
<!-- Node3&#45;&gt;Node4 -->
<g id="edge4" class="edge">
<title>Node3&#45;&gt;Node4</title>
<path fill="none" stroke="#191970" d="M384.7849,-291.3762C384.1555,-263.2097 382.3075,-180.5126 381.4485,-142.0713"/>
<polygon fill="#191970" stroke="#191970" points="384.9387,-141.5907 381.2161,-131.6714 377.9405,-141.7471 384.9387,-141.5907"/>
</g>
<!-- Node5 -->
<g id="node6" class="node">
<title>Node5</title>
<g id="a_node6"><a xlink:href="Utils_8h.html" target="_top" xlink:title="iDynTree/Core/Utils.h">
<polygon fill="none" stroke="#000000" points="219.5,-56.5 219.5,-75.5 338.5,-75.5 338.5,-56.5 219.5,-56.5"/>
<text text-anchor="middle" x="279" y="-63.5" font-family="FreeSans.ttf" font-size="10.00" fill="#000000">iDynTree/Core/Utils.h</text>
</a>
</g>
</g>
<!-- Node3&#45;&gt;Node5 -->
<g id="edge37" class="edge">
<title>Node3&#45;&gt;Node5</title>
<path fill="none" stroke="#191970" d="M378.056,-291.2659C360.519,-266.19 314.1941,-196.7996 291,-132 285.6035,-116.9232 282.5422,-99.0021 280.8644,-85.6415"/>
<polygon fill="#191970" stroke="#191970" points="284.3379,-85.2083 279.7595,-75.6538 277.3803,-85.978 284.3379,-85.2083"/>
</g>
<!-- Node19 -->
<g id="node20" class="node">
<title>Node19</title>
<g id="a_node20"><a xlink:href="Rotation_8h.html" target="_top" xlink:title="iDynTree/Core/Rotation.h">
<polygon fill="none" stroke="#000000" points="587.5,-230 587.5,-249 724.5,-249 724.5,-230 587.5,-230"/>
<text text-anchor="middle" x="656" y="-237" font-family="FreeSans.ttf" font-size="10.00" fill="#000000">iDynTree/Core/Rotation.h</text>
</a>
</g>
</g>
<!-- Node3&#45;&gt;Node19 -->
<g id="edge21" class="edge">
<title>Node3&#45;&gt;Node19</title>
<path fill="none" stroke="#191970" d="M427.0464,-291.4581C474.7136,-280.6406 552.4651,-262.9959 603.9293,-251.3168"/>
<polygon fill="#191970" stroke="#191970" points="604.8775,-254.6907 613.855,-249.0643 603.3283,-247.8642 604.8775,-254.6907"/>
</g>
<!-- Node3&#45;&gt;Node24 -->
<g id="edge36" class="edge">
<title>Node3&#45;&gt;Node24</title>
<path fill="none" stroke="#191970" d="M350.7813,-291.3906C318.3979,-282.2967 268.9888,-268.4215 229.4082,-257.3064"/>
<polygon fill="#191970" stroke="#191970" points="230.1473,-253.8786 219.5734,-254.5446 228.2547,-260.618 230.1473,-253.8786"/>
</g>
<!-- Node4&#45;&gt;Node5 -->
<g id="edge5" class="edge">
<title>Node4&#45;&gt;Node5</title>
<path fill="none" stroke="#191970" d="M363.233,-112.2455C347.2905,-103.4928 323.6741,-90.527 305.5011,-80.5496"/>
<polygon fill="#191970" stroke="#191970" points="307.0137,-77.3873 296.5634,-75.6427 303.6448,-83.5233 307.0137,-77.3873"/>
</g>
<!-- Node7 -->
<g id="node8" class="node">
<title>Node7</title>
<g id="a_node8"><a xlink:href="Span_8h.html" target="_top" xlink:title="iDynTree/Core/Span.h">
<polygon fill="none" stroke="#000000" points="360.5,-56.5 360.5,-75.5 481.5,-75.5 481.5,-56.5 360.5,-56.5"/>
<text text-anchor="middle" x="421" y="-63.5" font-family="FreeSans.ttf" font-size="10.00" fill="#000000">iDynTree/Core/Span.h</text>
</a>
</g>
</g>
<!-- Node4&#45;&gt;Node7 -->
<g id="edge7" class="edge">
<title>Node4&#45;&gt;Node7</title>
<path fill="none" stroke="#191970" d="M387.9675,-112.2455C393.5311,-104.4564 401.478,-93.3308 408.1829,-83.9439"/>
<polygon fill="#191970" stroke="#191970" points="411.148,-85.8144 414.1124,-75.6427 405.4519,-81.7457 411.148,-85.8144"/>
</g>
<!-- Node8 -->
<g id="node9" class="node">
<title>Node8</title>
<polygon fill="none" stroke="#bfbfbf" points="681,-.5 681,-19.5 733,-19.5 733,-.5 681,-.5"/>
<text text-anchor="middle" x="707" y="-7.5" font-family="FreeSans.ttf" font-size="10.00" fill="#000000">cassert</text>
</g>
<!-- Node4&#45;&gt;Node8 -->
<g id="edge19" class="edge">
<title>Node4&#45;&gt;Node8</title>
<path fill="none" stroke="#191970" d="M403.9093,-112.4003C446.2709,-94.6622 533.1783,-58.3355 540,-56 594.6097,-37.3039 611.7086,-36.399 670.7827,-20.2902"/>
<polygon fill="#191970" stroke="#191970" points="671.9287,-23.6048 680.6363,-17.5692 670.0655,-16.8573 671.9287,-23.6048"/>
</g>
<!-- Node16 -->
<g id="node17" class="node">
<title>Node16</title>
<polygon fill="none" stroke="#bfbfbf" points="873,-56.5 873,-75.5 917,-75.5 917,-56.5 873,-56.5"/>
<text text-anchor="middle" x="895" y="-63.5" font-family="FreeSans.ttf" font-size="10.00" fill="#000000">string</text>
</g>
<!-- Node4&#45;&gt;Node16 -->
<g id="edge17" class="edge">
<title>Node4&#45;&gt;Node16</title>
<path fill="none" stroke="#191970" d="M461.9515,-112.9915C465.0063,-112.6559 468.0307,-112.3245 471,-112 619.8598,-95.7316 657.1503,-92.3601 806,-76 824.6372,-73.9516 845.4638,-71.6142 862.2821,-69.7145"/>
<polygon fill="#191970" stroke="#191970" points="863.1488,-73.1388 872.6919,-68.5368 862.3618,-66.1832 863.1488,-73.1388"/>
</g>
<!-- Node17 -->
<g id="node18" class="node">
<title>Node17</title>
<polygon fill="none" stroke="#bfbfbf" points="622,-56.5 622,-75.5 678,-75.5 678,-56.5 622,-56.5"/>
<text text-anchor="middle" x="650" y="-63.5" font-family="FreeSans.ttf" font-size="10.00" fill="#000000">sstream</text>
</g>
<!-- Node4&#45;&gt;Node17 -->
<g id="edge18" class="edge">
<title>Node4&#45;&gt;Node17</title>
<path fill="none" stroke="#191970" d="M430.6977,-112.431C476.7556,-103.444 547.1329,-89.4092 608,-76 609.2352,-75.7279 610.4901,-75.4482 611.7567,-75.1631"/>
<polygon fill="#191970" stroke="#191970" points="612.6021,-78.5601 621.5634,-72.908 611.0334,-71.7381 612.6021,-78.5601"/>
</g>
<!-- Node18 -->
<g id="node19" class="node">
<title>Node18</title>
<polygon fill="none" stroke="#bfbfbf" points="549,-56.5 549,-75.5 599,-75.5 599,-56.5 549,-56.5"/>
<text text-anchor="middle" x="574" y="-63.5" font-family="FreeSans.ttf" font-size="10.00" fill="#000000">cstring</text>
</g>
<!-- Node4&#45;&gt;Node18 -->
<g id="edge20" class="edge">
<title>Node4&#45;&gt;Node18</title>
<path fill="none" stroke="#191970" d="M414.1779,-112.3733C449.001,-102.2691 503.5209,-86.4499 539.0096,-76.1526"/>
<polygon fill="#191970" stroke="#191970" points="540.297,-79.4235 548.9256,-73.2755 538.3463,-72.7008 540.297,-79.4235"/>
</g>
<!-- Node6 -->
<g id="node7" class="node">
<title>Node6</title>
<polygon fill="none" stroke="#bfbfbf" points="100.5,-.5 100.5,-19.5 153.5,-19.5 153.5,-.5 100.5,-.5"/>
<text text-anchor="middle" x="127" y="-7.5" font-family="FreeSans.ttf" font-size="10.00" fill="#000000">cstddef</text>
</g>
<!-- Node5&#45;&gt;Node6 -->
<g id="edge6" class="edge">
<title>Node5&#45;&gt;Node6</title>
<path fill="none" stroke="#191970" d="M252.8703,-56.3733C227.9232,-47.1822 190.1408,-33.2624 162.4794,-23.0713"/>
<polygon fill="#191970" stroke="#191970" points="163.3822,-19.674 152.7888,-19.5011 160.9622,-26.2424 163.3822,-19.674"/>
</g>
<!-- Node7&#45;&gt;Node6 -->
<g id="edge11" class="edge">
<title>Node7&#45;&gt;Node6</title>
<path fill="none" stroke="#191970" d="M360.4614,-57.0479C310.0094,-49.1781 236.0973,-36.7032 163.4543,-20.1779"/>
<polygon fill="#191970" stroke="#191970" points="164.21,-16.7604 153.6797,-17.9276 162.6395,-23.582 164.21,-16.7604"/>
</g>
<!-- Node7&#45;&gt;Node8 -->
<g id="edge8" class="edge">
<title>Node7&#45;&gt;Node8</title>
<path fill="none" stroke="#191970" d="M481.6931,-56.5727C530.4479,-48.6133 600.8395,-36.2571 670.8276,-20.1138"/>
<polygon fill="#191970" stroke="#191970" points="671.7551,-23.4915 680.6983,-17.8108 670.1646,-16.6745 671.7551,-23.4915"/>
</g>
<!-- Node9 -->
<g id="node10" class="node">
<title>Node9</title>
<polygon fill="none" stroke="#bfbfbf" points="539,-.5 539,-19.5 603,-19.5 603,-.5 539,-.5"/>
<text text-anchor="middle" x="571" y="-7.5" font-family="FreeSans.ttf" font-size="10.00" fill="#000000">algorithm</text>
</g>
<!-- Node7&#45;&gt;Node9 -->
<g id="edge9" class="edge">
<title>Node7&#45;&gt;Node9</title>
<path fill="none" stroke="#191970" d="M446.7859,-56.3733C471.4047,-47.1822 508.69,-33.2624 535.9875,-23.0713"/>
<polygon fill="#191970" stroke="#191970" points="537.4063,-26.2777 545.5506,-19.5011 534.958,-19.7198 537.4063,-26.2777"/>
</g>
<!-- Node10 -->
<g id="node11" class="node">
<title>Node10</title>
<polygon fill="none" stroke="#bfbfbf" points="621,-.5 621,-19.5 663,-19.5 663,-.5 621,-.5"/>
<text text-anchor="middle" x="642" y="-7.5" font-family="FreeSans.ttf" font-size="10.00" fill="#000000">array</text>
</g>
<!-- Node7&#45;&gt;Node10 -->
<g id="edge10" class="edge">
<title>Node7&#45;&gt;Node10</title>
<path fill="none" stroke="#191970" d="M465.2795,-56.4631C501.9684,-48.3087 555.6535,-35.7978 610.816,-20.1751"/>
<polygon fill="#191970" stroke="#191970" points="612.1138,-23.4442 620.7647,-17.3276 610.1876,-16.7144 612.1138,-23.4442"/>
</g>
<!-- Node11 -->
<g id="node12" class="node">
<title>Node11</title>
<polygon fill="none" stroke="#bfbfbf" points="171.5,-.5 171.5,-19.5 224.5,-19.5 224.5,-.5 171.5,-.5"/>
<text text-anchor="middle" x="198" y="-7.5" font-family="FreeSans.ttf" font-size="10.00" fill="#000000">iterator</text>
</g>
<!-- Node7&#45;&gt;Node11 -->
<g id="edge12" class="edge">
<title>Node7&#45;&gt;Node11</title>
<path fill="none" stroke="#191970" d="M380.7868,-56.4736C344.9323,-47.8981 290.7816,-34.7471 234.4988,-20.0762"/>
<polygon fill="#191970" stroke="#191970" points="235.2728,-16.6609 224.7124,-17.5153 233.5006,-23.4329 235.2728,-16.6609"/>
</g>
<!-- Node12 -->
<g id="node13" class="node">
<title>Node12</title>
<polygon fill="none" stroke="#bfbfbf" points="243,-.5 243,-19.5 287,-19.5 287,-.5 243,-.5"/>
<text text-anchor="middle" x="265" y="-7.5" font-family="FreeSans.ttf" font-size="10.00" fill="#000000">limits</text>
</g>
<!-- Node7&#45;&gt;Node12 -->
<g id="edge13" class="edge">
<title>Node7&#45;&gt;Node12</title>
<path fill="none" stroke="#191970" d="M394.1826,-56.3733C367.22,-46.6944 325.6485,-31.7712 296.9834,-21.4812"/>
<polygon fill="#191970" stroke="#191970" points="298.022,-18.1354 287.4275,-18.0509 295.6569,-24.7238 298.022,-18.1354"/>
</g>
<!-- Node13 -->
<g id="node14" class="node">
<title>Node13</title>
<polygon fill="none" stroke="#bfbfbf" points="305.5,-.5 305.5,-19.5 370.5,-19.5 370.5,-.5 305.5,-.5"/>
<text text-anchor="middle" x="338" y="-7.5" font-family="FreeSans.ttf" font-size="10.00" fill="#000000">stdexcept</text>
</g>
<!-- Node7&#45;&gt;Node13 -->
<g id="edge14" class="edge">
<title>Node7&#45;&gt;Node13</title>
<path fill="none" stroke="#191970" d="M406.5425,-56.2455C393.9268,-47.7337 375.4056,-35.2375 360.7955,-25.3801"/>
<polygon fill="#191970" stroke="#191970" points="362.5391,-22.3343 352.2918,-19.6427 358.6239,-28.1371 362.5391,-22.3343"/>
</g>
<!-- Node14 -->
<g id="node15" class="node">
<title>Node14</title>
<polygon fill="none" stroke="#bfbfbf" points="388.5,-.5 388.5,-19.5 457.5,-19.5 457.5,-.5 388.5,-.5"/>
<text text-anchor="middle" x="423" y="-7.5" font-family="FreeSans.ttf" font-size="10.00" fill="#000000">type_traits</text>
</g>
<!-- Node7&#45;&gt;Node14 -->
<g id="edge15" class="edge">
<title>Node7&#45;&gt;Node14</title>
<path fill="none" stroke="#191970" d="M421.3484,-56.2455C421.6093,-48.9382 421.9752,-38.6944 422.2963,-29.7046"/>
<polygon fill="#191970" stroke="#191970" points="425.7964,-29.7613 422.6556,-19.6427 418.8008,-29.5113 425.7964,-29.7613"/>
</g>
<!-- Node15 -->
<g id="node16" class="node">
<title>Node15</title>
<polygon fill="none" stroke="#bfbfbf" points="475.5,-.5 475.5,-19.5 520.5,-19.5 520.5,-.5 475.5,-.5"/>
<text text-anchor="middle" x="498" y="-7.5" font-family="FreeSans.ttf" font-size="10.00" fill="#000000">utility</text>
</g>
<!-- Node7&#45;&gt;Node15 -->
<g id="edge16" class="edge">
<title>Node7&#45;&gt;Node15</title>
<path fill="none" stroke="#191970" d="M434.4124,-56.2455C446.0057,-47.814 462.9748,-35.4729 476.4678,-25.6598"/>
<polygon fill="#191970" stroke="#191970" points="478.7126,-28.355 484.7413,-19.6427 474.5953,-22.6938 478.7126,-28.355"/>
</g>
<!-- Node19&#45;&gt;Node4 -->
<g id="edge35" class="edge">
<title>Node19&#45;&gt;Node4</title>
<path fill="none" stroke="#191970" d="M633.4956,-229.8845C584.7279,-209.0474 469.1703,-159.6728 412.8974,-135.6289"/>
<polygon fill="#191970" stroke="#191970" points="414.0007,-132.2942 403.4297,-131.5836 411.2502,-138.7313 414.0007,-132.2942"/>
</g>
<!-- Node19&#45;&gt;Node16 -->
<g id="edge22" class="edge">
<title>Node19&#45;&gt;Node16</title>
<path fill="none" stroke="#191970" d="M699.1785,-229.9288C731.5456,-221.665 776.2315,-207.8918 812,-188 845.9173,-169.1377 858.5096,-164.9593 879,-132 887.6566,-118.0757 891.6297,-99.8038 893.4532,-86.0165"/>
<polygon fill="#191970" stroke="#191970" points="896.9746,-85.9939 894.535,-75.6837 890.0127,-85.2649 896.9746,-85.9939"/>
</g>
<!-- Node20 -->
<g id="node21" class="node">
<title>Node20</title>
<g id="a_node21"><a xlink:href="RotationRaw_8h.html" target="_top" xlink:title="iDynTree/Core/RotationRaw.h">
<polygon fill="none" stroke="#000000" points="645,-168.5 645,-187.5 803,-187.5 803,-168.5 645,-168.5"/>
<text text-anchor="middle" x="724" y="-175.5" font-family="FreeSans.ttf" font-size="10.00" fill="#000000">iDynTree/Core/RotationRaw.h</text>
</a>
</g>
</g>
<!-- Node19&#45;&gt;Node20 -->
<g id="edge23" class="edge">
<title>Node19&#45;&gt;Node20</title>
<path fill="none" stroke="#191970" d="M666.625,-229.8906C677.0431,-220.4683 693.1364,-205.9134 705.6304,-194.6137"/>
<polygon fill="#191970" stroke="#191970" points="708.1562,-197.0484 713.2252,-187.7449 703.4608,-191.8568 708.1562,-197.0484"/>
</g>
<!-- Node23 -->
<g id="node24" class="node">
<title>Node23</title>
<g id="a_node24"><a xlink:href="RotationSemantics_8h.html" target="_top" xlink:title="iDynTree/Core/RotationSemantics.h">
<polygon fill="none" stroke="#000000" points="480,-112.5 480,-131.5 668,-131.5 668,-112.5 480,-112.5"/>
<text text-anchor="middle" x="574" y="-119.5" font-family="FreeSans.ttf" font-size="10.00" fill="#000000">iDynTree/Core/RotationSemantics.h</text>
</a>
</g>
</g>
<!-- Node19&#45;&gt;Node23 -->
<g id="edge32" class="edge">
<title>Node19&#45;&gt;Node23</title>
<path fill="none" stroke="#191970" d="M649.2896,-229.8845C635.5949,-210.261 604.237,-165.3274 586.6156,-140.0772"/>
<polygon fill="#191970" stroke="#191970" points="589.3963,-137.9459 580.8031,-131.7484 583.6559,-141.9519 589.3963,-137.9459"/>
</g>
<!-- Node20&#45;&gt;Node16 -->
<g id="edge31" class="edge">
<title>Node20&#45;&gt;Node16</title>
<path fill="none" stroke="#191970" d="M778.2473,-168.4923C804.2748,-161.7645 834.5892,-150.5224 857,-132 871.9257,-119.6639 882.2105,-99.842 888.2795,-85.1366"/>
<polygon fill="#191970" stroke="#191970" points="891.6568,-86.1037 891.9597,-75.5132 885.1186,-83.6033 891.6568,-86.1037"/>
</g>
<!-- Node21 -->
<g id="node22" class="node">
<title>Node21</title>
<g id="a_node22"><a xlink:href="MatrixFixSize_8h.html" target="_top" xlink:title="iDynTree/Core/MatrixFixSize.h">
<polygon fill="none" stroke="#000000" points="686.5,-112.5 686.5,-131.5 847.5,-131.5 847.5,-112.5 686.5,-112.5"/>
<text text-anchor="middle" x="767" y="-119.5" font-family="FreeSans.ttf" font-size="10.00" fill="#000000">iDynTree/Core/MatrixFixSize.h</text>
</a>
</g>
</g>
<!-- Node20&#45;&gt;Node21 -->
<g id="edge24" class="edge">
<title>Node20&#45;&gt;Node21</title>
<path fill="none" stroke="#191970" d="M731.49,-168.2455C737.5326,-160.3761 746.1903,-149.101 753.4441,-139.6542"/>
<polygon fill="#191970" stroke="#191970" points="756.2815,-141.7058 759.5958,-131.6427 750.7295,-137.4426 756.2815,-141.7058"/>
</g>
<!-- Node21&#45;&gt;Node5 -->
<g id="edge25" class="edge">
<title>Node21&#45;&gt;Node5</title>
<path fill="none" stroke="#191970" d="M686.0471,-113.0039C682.9927,-112.6649 679.9688,-112.3294 677,-112 532.5583,-95.9756 496.2259,-93.8634 352,-76 350.9209,-75.8663 349.833,-75.7305 348.7381,-75.5929"/>
<polygon fill="#191970" stroke="#191970" points="349.1052,-72.1114 338.7413,-74.3116 348.2152,-79.0546 349.1052,-72.1114"/>
</g>
<!-- Node21&#45;&gt;Node8 -->
<g id="edge26" class="edge">
<title>Node21&#45;&gt;Node8</title>
<path fill="none" stroke="#191970" d="M756.7367,-112.2865C748.0122,-103.5292 735.7085,-89.923 728,-76 719.9917,-61.5354 714.5278,-43.5689 711.1854,-30.035"/>
<polygon fill="#191970" stroke="#191970" points="714.5058,-28.8534 708.8675,-19.8834 707.6814,-30.4116 714.5058,-28.8534"/>
</g>
<!-- Node21&#45;&gt;Node16 -->
<g id="edge28" class="edge">
<title>Node21&#45;&gt;Node16</title>
<path fill="none" stroke="#191970" d="M789.004,-112.3733C809.6435,-103.3435 840.7158,-89.7494 863.8889,-79.6111"/>
<polygon fill="#191970" stroke="#191970" points="865.5245,-82.7159 873.2831,-75.5011 862.7187,-76.3028 865.5245,-82.7159"/>
</g>
<!-- Node21&#45;&gt;Node17 -->
<g id="edge30" class="edge">
<title>Node21&#45;&gt;Node17</title>
<path fill="none" stroke="#191970" d="M746.887,-112.3733C728.1897,-103.4241 700.1256,-89.9917 679.0066,-79.8835"/>
<polygon fill="#191970" stroke="#191970" points="680.3817,-76.6614 669.8506,-75.5011 677.3595,-82.9755 680.3817,-76.6614"/>
</g>
<!-- Node21&#45;&gt;Node18 -->
<g id="edge27" class="edge">
<title>Node21&#45;&gt;Node18</title>
<path fill="none" stroke="#191970" d="M733.8221,-112.3733C698.999,-102.2691 644.4791,-86.4499 608.9904,-76.1526"/>
<polygon fill="#191970" stroke="#191970" points="609.6537,-72.7008 599.0744,-73.2755 607.703,-79.4235 609.6537,-72.7008"/>
</g>
<!-- Node22 -->
<g id="node23" class="node">
<title>Node22</title>
<polygon fill="none" stroke="#bfbfbf" points="737,-56.5 737,-75.5 797,-75.5 797,-56.5 737,-56.5"/>
<text text-anchor="middle" x="767" y="-63.5" font-family="FreeSans.ttf" font-size="10.00" fill="#000000">iostream</text>
</g>
<!-- Node21&#45;&gt;Node22 -->
<g id="edge29" class="edge">
<title>Node21&#45;&gt;Node22</title>
<path fill="none" stroke="#191970" d="M767,-112.2455C767,-104.9382 767,-94.6944 767,-85.7046"/>
<polygon fill="#191970" stroke="#191970" points="770.5001,-85.6426 767,-75.6427 763.5001,-85.6427 770.5001,-85.6426"/>
</g>
<!-- Node23&#45;&gt;Node5 -->
<g id="edge34" class="edge">
<title>Node23&#45;&gt;Node5</title>
<path fill="none" stroke="#191970" d="M523.6229,-112.4369C472.4995,-102.7321 393.3545,-87.708 339.0147,-77.3926"/>
<polygon fill="#191970" stroke="#191970" points="339.6467,-73.9502 329.1693,-75.5237 338.3411,-80.8273 339.6467,-73.9502"/>
</g>
<!-- Node23&#45;&gt;Node16 -->
<g id="edge33" class="edge">
<title>Node23&#45;&gt;Node16</title>
<path fill="none" stroke="#191970" d="M628.8171,-112.4369C696.1065,-100.6979 808.0093,-81.1759 862.7903,-71.6191"/>
<polygon fill="#191970" stroke="#191970" points="863.3933,-75.0669 872.643,-69.9003 862.1903,-68.171 863.3933,-75.0669"/>
</g>
<!-- Node25&#45;&gt;Node2 -->
<g id="edge41" class="edge">
<title>Node25&#45;&gt;Node2</title>
<path fill="none" stroke="#191970" d="M98.7416,-414.2967C112.6915,-403.5537 131.3435,-389.1895 145.4668,-378.3129"/>
<polygon fill="#191970" stroke="#191970" points="147.8055,-380.9295 153.5928,-372.055 143.5344,-375.3835 147.8055,-380.9295"/>
</g>
<!-- Node25&#45;&gt;Node5 -->
<g id="edge43" class="edge">
<title>Node25&#45;&gt;Node5</title>
<path fill="none" stroke="#191970" d="M66.1536,-414.419C47.9934,-391.506 17,-345.8337 17,-301 17,-301 17,-301 17,-178 17,-133.3799 147.1057,-96.0287 223.949,-77.8595"/>
<polygon fill="#191970" stroke="#191970" points="225.0144,-81.2052 233.9606,-75.5293 223.4275,-74.3874 225.0144,-81.2052"/>
</g>
<!-- Node25&#45;&gt;Node24 -->
<g id="edge42" class="edge">
<title>Node25&#45;&gt;Node24</title>
<path fill="none" stroke="#191970" d="M74.211,-414.3626C69.6715,-397.3961 64.678,-369.3391 73,-347 85.9668,-312.1926 115.8348,-281.154 138.2474,-261.4849"/>
<polygon fill="#191970" stroke="#191970" points="140.786,-263.9198 146.1222,-254.7668 136.2429,-258.5943 140.786,-263.9198"/>
</g>
<!-- Node26&#45;&gt;Node16 -->
<g id="edge51" class="edge">
<title>Node26&#45;&gt;Node16</title>
<path fill="none" stroke="#191970" d="M1005.0367,-295.2866C1109.6441,-283.7813 1291.7703,-251.3778 1230,-168 1193.2747,-118.428 1004.2277,-83.3478 927.4595,-70.9382"/>
<polygon fill="#191970" stroke="#191970" points="927.8255,-67.4525 917.3999,-69.3385 926.726,-74.3657 927.8255,-67.4525"/>
</g>
<!-- Node26&#45;&gt;Node19 -->
<g id="edge50" class="edge">
<title>Node26&#45;&gt;Node19</title>
<path fill="none" stroke="#191970" d="M893.4021,-291.4581C843.8729,-280.6181 763.0193,-262.9224 709.6589,-251.2439"/>
<polygon fill="#191970" stroke="#191970" points="710.2173,-247.7833 699.7002,-249.0643 708.7207,-254.6214 710.2173,-247.7833"/>
</g>
<!-- Node27 -->
<g id="node28" class="node">
<title>Node27</title>
<g id="a_node28"><a xlink:href="PositionRaw_8h.html" target="_top" xlink:title="iDynTree/Core/PositionRaw.h">
<polygon fill="none" stroke="#000000" points="859,-168.5 859,-187.5 1015,-187.5 1015,-168.5 859,-168.5"/>
<text text-anchor="middle" x="937" y="-175.5" font-family="FreeSans.ttf" font-size="10.00" fill="#000000">iDynTree/Core/PositionRaw.h</text>
</a>
</g>
</g>
<!-- Node26&#45;&gt;Node27 -->
<g id="edge45" class="edge">
<title>Node26&#45;&gt;Node27</title>
<path fill="none" stroke="#191970" d="M937,-291.3484C937,-271.2295 937,-224.4608 937,-197.7098"/>
<polygon fill="#191970" stroke="#191970" points="940.5001,-197.6067 937,-187.6068 933.5001,-197.6068 940.5001,-197.6067"/>
</g>
<!-- Node28 -->
<g id="node29" class="node">
<title>Node28</title>
<g id="a_node29"><a xlink:href="PositionSemantics_8h.html" target="_top" xlink:title="iDynTree/Core/PositionSemantics.h">
<polygon fill="none" stroke="#000000" points="1033.5,-168.5 1033.5,-187.5 1220.5,-187.5 1220.5,-168.5 1033.5,-168.5"/>
<text text-anchor="middle" x="1127" y="-175.5" font-family="FreeSans.ttf" font-size="10.00" fill="#000000">iDynTree/Core/PositionSemantics.h</text>
</a>
</g>
</g>
<!-- Node26&#45;&gt;Node28 -->
<g id="edge48" class="edge">
<title>Node26&#45;&gt;Node28</title>
<path fill="none" stroke="#191970" d="M951.909,-291.3484C984.8599,-270.017 1064.0888,-218.7267 1103.6725,-193.1015"/>
<polygon fill="#191970" stroke="#191970" points="1105.6678,-195.9792 1112.1603,-187.6068 1101.8637,-190.1031 1105.6678,-195.9792"/>
</g>
<!-- Node27&#45;&gt;Node4 -->
<g id="edge46" class="edge">
<title>Node27&#45;&gt;Node4</title>
<path fill="none" stroke="#191970" d="M858.6411,-170.5608C768.1869,-161.9064 614.6426,-147.0108 472.1848,-132.1141"/>
<polygon fill="#191970" stroke="#191970" points="472.2583,-128.6027 461.948,-131.0416 471.5288,-135.5646 472.2583,-128.6027"/>
</g>
<!-- Node27&#45;&gt;Node16 -->
<g id="edge47" class="edge">
<title>Node27&#45;&gt;Node16</title>
<path fill="none" stroke="#191970" d="M937.1183,-168.2323C936.9595,-155.0138 935.5289,-130.9096 928,-112 923.9416,-101.8071 917.1483,-91.7572 910.7766,-83.6637"/>
<polygon fill="#191970" stroke="#191970" points="913.2649,-81.1821 904.1776,-75.7349 907.8846,-85.6601 913.2649,-81.1821"/>
</g>
<!-- Node28&#45;&gt;Node16 -->
<g id="edge49" class="edge">
<title>Node28&#45;&gt;Node16</title>
<path fill="none" stroke="#191970" d="M1107.2198,-168.4509C1066.2136,-148.6548 971.7802,-103.0663 923.9249,-79.9638"/>
<polygon fill="#191970" stroke="#191970" points="925.2573,-76.7205 914.7301,-75.5249 922.214,-83.0244 925.2573,-76.7205"/>
</g>
<!-- Node30&#45;&gt;Node29 -->
<g id="edge54" class="edge">
<title>Node30&#45;&gt;Node29</title>
<path fill="none" stroke="#191970" d="M514.6464,-414.2967C511.2812,-406.2443 507.0658,-396.1574 503.2512,-387.0296"/>
<polygon fill="#191970" stroke="#191970" points="506.4138,-385.5203 499.3285,-377.6432 499.9551,-388.2195 506.4138,-385.5203"/>
</g>
</g>
</svg>
