<?xml version="1.0" encoding="UTF-8" standalone="no"?>
<!DOCTYPE svg PUBLIC "-//W3C//DTD SVG 1.1//EN"
 "http://www.w3.org/Graphics/SVG/1.1/DTD/svg11.dtd">
<!-- Generated by graphviz version 2.40.1 (20161225.0304)
 -->
<!-- Title: LinearConstraint.h Pages: 1 -->
<svg width="436pt" height="84pt"
 viewBox="0.00 0.00 436.00 84.00" xmlns="http://www.w3.org/2000/svg" xmlns:xlink="http://www.w3.org/1999/xlink">
<g id="graph0" class="graph" transform="scale(1 1) rotate(0) translate(4 80)">
<title>LinearConstraint.h</title>
<!-- Node34 -->
<g id="node1" class="node">
<title>Node34</title>
<polygon fill="#bfbfbf" stroke="#000000" points="146,-56.5 146,-75.5 252,-75.5 252,-56.5 146,-56.5"/>
<text text-anchor="middle" x="199" y="-63.5" font-family="FreeSans.ttf" font-size="10.00" fill="#000000">LinearConstraint.h</text>
</g>
<!-- Node35 -->
<g id="node2" class="node">
<title>Node35</title>
<g id="a_node2"><a xlink:href="ConstraintsGroup_8cpp.html" target="_top" xlink:title="ConstraintsGroup.cpp">
<polygon fill="none" stroke="#000000" points="0,-.5 0,-19.5 122,-19.5 122,-.5 0,-.5"/>
<text text-anchor="middle" x="61" y="-7.5" font-family="FreeSans.ttf" font-size="10.00" fill="#000000">ConstraintsGroup.cpp</text>
</a>
</g>
</g>
<!-- Node34&#45;&gt;Node35 -->
<g id="edge1" class="edge">
<title>Node34&#45;&gt;Node35</title>
<path fill="none" stroke="#191970" d="M165.7787,-52.5189C140.646,-42.3201 106.7582,-28.5685 84.4135,-19.5011"/>
<polygon fill="#191970" stroke="#191970" points="164.6947,-55.8562 175.277,-56.3733 167.3269,-49.3699 164.6947,-55.8562"/>
</g>
<!-- Node36 -->
<g id="node3" class="node">
<title>Node36</title>
<g id="a_node3"><a xlink:href="LinearConstraint_8cpp.html" target="_top" xlink:title="LinearConstraint.cpp">
<polygon fill="none" stroke="#000000" points="140.5,-.5 140.5,-19.5 257.5,-19.5 257.5,-.5 140.5,-.5"/>
<text text-anchor="middle" x="199" y="-7.5" font-family="FreeSans.ttf" font-size="10.00" fill="#000000">LinearConstraint.cpp</text>
</a>
</g>
</g>
<!-- Node34&#45;&gt;Node36 -->
<g id="edge2" class="edge">
<title>Node34&#45;&gt;Node36</title>
<path fill="none" stroke="#191970" d="M199,-46.1575C199,-37.155 199,-26.9199 199,-19.6427"/>
<polygon fill="#191970" stroke="#191970" points="195.5001,-46.2455 199,-56.2455 202.5001,-46.2456 195.5001,-46.2455"/>
</g>
<!-- Node37 -->
<g id="node4" class="node">
<title>Node37</title>
<g id="a_node4"><a xlink:href="OptimalControlProblem_8cpp.html" target="_top" xlink:title="OptimalControlProblem.cpp">
<polygon fill="none" stroke="#000000" points="276,-.5 276,-19.5 428,-19.5 428,-.5 276,-.5"/>
<text text-anchor="middle" x="352" y="-7.5" font-family="FreeSans.ttf" font-size="10.00" fill="#000000">OptimalControlProblem.cpp</text>
</a>
</g>
</g>
<!-- Node34&#45;&gt;Node37 -->
<g id="edge3" class="edge">
<title>Node34&#45;&gt;Node37</title>
<path fill="none" stroke="#191970" d="M234.7279,-52.9231C262.6971,-42.686 300.9393,-28.6889 326.0416,-19.5011"/>
<polygon fill="#191970" stroke="#191970" points="233.4894,-49.6493 225.3016,-56.3733 235.8954,-56.2228 233.4894,-49.6493"/>
</g>
</g>
</svg>
