<?xml version="1.0" encoding="UTF-8" standalone="no"?>
<!DOCTYPE svg PUBLIC "-//W3C//DTD SVG 1.1//EN"
 "http://www.w3.org/Graphics/SVG/1.1/DTD/svg11.dtd">
<!-- Generated by graphviz version 2.40.1 (20161225.0304)
 -->
<!-- Title: LinearCost.cpp Pages: 1 -->
<svg width="1470pt" height="588pt"
 viewBox="0.00 0.00 1470.00 588.00" xmlns="http://www.w3.org/2000/svg" xmlns:xlink="http://www.w3.org/1999/xlink">
<g id="graph0" class="graph" transform="scale(1 1) rotate(0) translate(4 584)">
<title>LinearCost.cpp</title>
<!-- Node0 -->
<g id="node1" class="node">
<title>Node0</title>
<polygon fill="#bfbfbf" stroke="#000000" points="196,-560.5 196,-579.5 285,-579.5 285,-560.5 196,-560.5"/>
<text text-anchor="middle" x="240.5" y="-567.5" font-family="FreeSans.ttf" font-size="10.00" fill="#000000">LinearCost.cpp</text>
</g>
<!-- Node1 -->
<g id="node2" class="node">
<title>Node1</title>
<g id="a_node2"><a xlink:href="LinearCost_8h.html" target="_top" xlink:title="iDynTree/LinearCost.h">
<polygon fill="none" stroke="#000000" points="236,-504.5 236,-523.5 359,-523.5 359,-504.5 236,-504.5"/>
<text text-anchor="middle" x="297.5" y="-511.5" font-family="FreeSans.ttf" font-size="10.00" fill="#000000">iDynTree/LinearCost.h</text>
</a>
</g>
</g>
<!-- Node0&#45;&gt;Node1 -->
<g id="edge1" class="edge">
<title>Node0&#45;&gt;Node1</title>
<path fill="none" stroke="#191970" d="M250.4286,-560.2455C258.6838,-552.1352 270.6209,-540.4075 280.4082,-530.7919"/>
<polygon fill="#191970" stroke="#191970" points="283.0046,-533.1476 287.6851,-523.6427 278.0989,-528.1542 283.0046,-533.1476"/>
</g>
<!-- Node6 -->
<g id="node7" class="node">
<title>Node6</title>
<g id="a_node7"><a xlink:href="Utils_8h.html" target="_top" xlink:title="iDynTree/Core/Utils.h">
<polygon fill="none" stroke="#000000" points="459,-56.5 459,-75.5 578,-75.5 578,-56.5 459,-56.5"/>
<text text-anchor="middle" x="518.5" y="-63.5" font-family="FreeSans.ttf" font-size="10.00" fill="#000000">iDynTree/Core/Utils.h</text>
</a>
</g>
</g>
<!-- Node0&#45;&gt;Node6 -->
<g id="edge64" class="edge">
<title>Node0&#45;&gt;Node6</title>
<path fill="none" stroke="#191970" d="M231.5938,-560.3544C215.5625,-541.945 183.5,-499.8901 183.5,-458 183.5,-458 183.5,-458 183.5,-178 183.5,-141.989 199.8977,-130.9813 230.5,-112 265.9965,-89.9829 375.3649,-77.2385 448.6415,-70.9597"/>
<polygon fill="#191970" stroke="#191970" points="449.0565,-74.4373 458.7301,-70.1163 448.4733,-67.4616 449.0565,-74.4373"/>
</g>
<!-- Node2 -->
<g id="node3" class="node">
<title>Node2</title>
<g id="a_node3"><a xlink:href="QuadraticLikeCost_8h.html" target="_top" xlink:title="iDynTree/QuadraticLikeCost.h">
<polygon fill="none" stroke="#000000" points="217,-448.5 217,-467.5 378,-467.5 378,-448.5 217,-448.5"/>
<text text-anchor="middle" x="297.5" y="-455.5" font-family="FreeSans.ttf" font-size="10.00" fill="#000000">iDynTree/QuadraticLikeCost.h</text>
</a>
</g>
</g>
<!-- Node1&#45;&gt;Node2 -->
<g id="edge2" class="edge">
<title>Node1&#45;&gt;Node2</title>
<path fill="none" stroke="#191970" d="M297.5,-504.2455C297.5,-496.9382 297.5,-486.6944 297.5,-477.7046"/>
<polygon fill="#191970" stroke="#191970" points="301.0001,-477.6426 297.5,-467.6427 294.0001,-477.6427 301.0001,-477.6426"/>
</g>
<!-- Node10 -->
<g id="node11" class="node">
<title>Node10</title>
<g id="a_node11"><a xlink:href="TimeVaryingObject_8h.html" target="_top" xlink:title="iDynTree/TimeVaryingObject.h">
<polygon fill="none" stroke="#000000" points="326.5,-392.5 326.5,-411.5 490.5,-411.5 490.5,-392.5 326.5,-392.5"/>
<text text-anchor="middle" x="408.5" y="-399.5" font-family="FreeSans.ttf" font-size="10.00" fill="#000000">iDynTree/TimeVaryingObject.h</text>
</a>
</g>
</g>
<!-- Node1&#45;&gt;Node10 -->
<g id="edge63" class="edge">
<title>Node1&#45;&gt;Node10</title>
<path fill="none" stroke="#191970" d="M330.2862,-504.3502C349.4167,-497.169 372.6354,-485.5346 387.5,-468 398.5436,-454.9728 403.7971,-436.0851 406.2859,-421.8498"/>
<polygon fill="#191970" stroke="#191970" points="409.7962,-422.0264 407.747,-411.6316 402.8667,-421.0355 409.7962,-422.0264"/>
</g>
<!-- Node3 -->
<g id="node4" class="node">
<title>Node3</title>
<g id="a_node4"><a xlink:href="Cost_8h.html" target="_top" xlink:title="iDynTree/Cost.h">
<polygon fill="none" stroke="#000000" points="212,-168.5 212,-187.5 305,-187.5 305,-168.5 212,-168.5"/>
<text text-anchor="middle" x="258.5" y="-175.5" font-family="FreeSans.ttf" font-size="10.00" fill="#000000">iDynTree/Cost.h</text>
</a>
</g>
</g>
<!-- Node2&#45;&gt;Node3 -->
<g id="edge3" class="edge">
<title>Node2&#45;&gt;Node3</title>
<path fill="none" stroke="#191970" d="M297.5,-448.4116C297.5,-429.0538 297.5,-383.9167 297.5,-346 297.5,-346 297.5,-346 297.5,-290 297.5,-255.5398 280.8304,-218.2666 269.2876,-196.5877"/>
<polygon fill="#191970" stroke="#191970" points="272.3252,-194.8481 264.4233,-187.7906 266.1994,-198.2355 272.3252,-194.8481"/>
</g>
<!-- Node2&#45;&gt;Node10 -->
<g id="edge12" class="edge">
<title>Node2&#45;&gt;Node10</title>
<path fill="none" stroke="#191970" d="M316.5816,-448.3733C334.2402,-439.4644 360.7053,-426.1127 380.7098,-416.0203"/>
<polygon fill="#191970" stroke="#191970" points="382.3158,-419.1303 389.6674,-411.5011 379.1628,-412.8806 382.3158,-419.1303"/>
</g>
<!-- Node35 -->
<g id="node36" class="node">
<title>Node35</title>
<polygon fill="none" stroke="#bfbfbf" points="211.5,-392.5 211.5,-411.5 269.5,-411.5 269.5,-392.5 211.5,-392.5"/>
<text text-anchor="middle" x="240.5" y="-399.5" font-family="FreeSans.ttf" font-size="10.00" fill="#000000">memory</text>
</g>
<!-- Node2&#45;&gt;Node35 -->
<g id="edge62" class="edge">
<title>Node2&#45;&gt;Node35</title>
<path fill="none" stroke="#191970" d="M287.5714,-448.2455C279.3162,-440.1352 267.3791,-428.4075 257.5918,-418.7919"/>
<polygon fill="#191970" stroke="#191970" points="259.9011,-416.1542 250.3149,-411.6427 254.9954,-421.1476 259.9011,-416.1542"/>
</g>
<!-- Node4 -->
<g id="node5" class="node">
<title>Node4</title>
<polygon fill="none" stroke="#bfbfbf" points="754.5,-56.5 754.5,-75.5 798.5,-75.5 798.5,-56.5 754.5,-56.5"/>
<text text-anchor="middle" x="776.5" y="-63.5" font-family="FreeSans.ttf" font-size="10.00" fill="#000000">string</text>
</g>
<!-- Node3&#45;&gt;Node4 -->
<g id="edge4" class="edge">
<title>Node3&#45;&gt;Node4</title>
<path fill="none" stroke="#191970" d="M250.8604,-168.1674C240.8157,-153.9808 226.044,-127.7498 240.5,-112 257.6309,-93.3359 630.8469,-73.2613 744.1636,-67.578"/>
<polygon fill="#191970" stroke="#191970" points="744.4841,-71.0665 754.2977,-67.0735 744.136,-64.0751 744.4841,-71.0665"/>
</g>
<!-- Node5 -->
<g id="node6" class="node">
<title>Node5</title>
<g id="a_node6"><a xlink:href="SparsityStructure_8h.html" target="_top" xlink:title="iDynTree/SparsityStructure.h">
<polygon fill="none" stroke="#000000" points="0,-112.5 0,-131.5 155,-131.5 155,-112.5 0,-112.5"/>
<text text-anchor="middle" x="77.5" y="-119.5" font-family="FreeSans.ttf" font-size="10.00" fill="#000000">iDynTree/SparsityStructure.h</text>
</a>
</g>
</g>
<!-- Node3&#45;&gt;Node5 -->
<g id="edge5" class="edge">
<title>Node3&#45;&gt;Node5</title>
<path fill="none" stroke="#191970" d="M227.385,-168.3733C197.1571,-159.021 151.104,-144.7725 118.0261,-134.5385"/>
<polygon fill="#191970" stroke="#191970" points="118.7967,-131.1133 108.209,-131.5011 116.7277,-137.8005 118.7967,-131.1133"/>
</g>
<!-- Node5&#45;&gt;Node4 -->
<g id="edge11" class="edge">
<title>Node5&#45;&gt;Node4</title>
<path fill="none" stroke="#191970" d="M155.3125,-115.7661C307.5681,-103.5682 639.149,-77.0038 744.0203,-68.6021"/>
<polygon fill="#191970" stroke="#191970" points="744.596,-72.0673 754.2845,-67.7798 744.0369,-65.0896 744.596,-72.0673"/>
</g>
<!-- Node5&#45;&gt;Node6 -->
<g id="edge6" class="edge">
<title>Node5&#45;&gt;Node6</title>
<path fill="none" stroke="#191970" d="M152.5594,-112.4686C235.5572,-101.9293 368.1804,-85.0882 448.9154,-74.8361"/>
<polygon fill="#191970" stroke="#191970" points="449.5024,-78.2898 458.9818,-73.5579 448.6205,-71.3456 449.5024,-78.2898"/>
</g>
<!-- Node7 -->
<g id="node8" class="node">
<title>Node7</title>
<polygon fill="none" stroke="#bfbfbf" points="492,-.5 492,-19.5 545,-19.5 545,-.5 492,-.5"/>
<text text-anchor="middle" x="518.5" y="-7.5" font-family="FreeSans.ttf" font-size="10.00" fill="#000000">cstddef</text>
</g>
<!-- Node5&#45;&gt;Node7 -->
<g id="edge9" class="edge">
<title>Node5&#45;&gt;Node7</title>
<path fill="none" stroke="#191970" d="M115.0994,-112.4509C198.7799,-91.1988 399.5071,-40.2204 482.0775,-19.2501"/>
<polygon fill="#191970" stroke="#191970" points="482.9449,-22.6411 491.7756,-16.7871 481.2217,-15.8564 482.9449,-22.6411"/>
</g>
<!-- Node8 -->
<g id="node9" class="node">
<title>Node8</title>
<polygon fill="none" stroke="#bfbfbf" points="12,-56.5 12,-75.5 59,-75.5 59,-56.5 12,-56.5"/>
<text text-anchor="middle" x="35.5" y="-63.5" font-family="FreeSans.ttf" font-size="10.00" fill="#000000">vector</text>
</g>
<!-- Node5&#45;&gt;Node8 -->
<g id="edge8" class="edge">
<title>Node5&#45;&gt;Node8</title>
<path fill="none" stroke="#191970" d="M70.1842,-112.2455C64.2821,-104.3761 55.8258,-93.101 48.7406,-83.6542"/>
<polygon fill="#191970" stroke="#191970" points="51.5321,-81.5427 42.732,-75.6427 45.932,-85.7427 51.5321,-81.5427"/>
</g>
<!-- Node9 -->
<g id="node10" class="node">
<title>Node9</title>
<polygon fill="none" stroke="#bfbfbf" points="77.5,-56.5 77.5,-75.5 163.5,-75.5 163.5,-56.5 77.5,-56.5"/>
<text text-anchor="middle" x="120.5" y="-63.5" font-family="FreeSans.ttf" font-size="10.00" fill="#000000">unordered_set</text>
</g>
<!-- Node5&#45;&gt;Node9 -->
<g id="edge10" class="edge">
<title>Node5&#45;&gt;Node9</title>
<path fill="none" stroke="#191970" d="M84.99,-112.2455C91.0326,-104.3761 99.6903,-93.101 106.9441,-83.6542"/>
<polygon fill="#191970" stroke="#191970" points="109.7815,-85.7058 113.0958,-75.6427 104.2295,-81.4426 109.7815,-85.7058"/>
</g>
<!-- Node6&#45;&gt;Node7 -->
<g id="edge7" class="edge">
<title>Node6&#45;&gt;Node7</title>
<path fill="none" stroke="#191970" d="M518.5,-56.2455C518.5,-48.9382 518.5,-38.6944 518.5,-29.7046"/>
<polygon fill="#191970" stroke="#191970" points="522.0001,-29.6426 518.5,-19.6427 515.0001,-29.6427 522.0001,-29.6426"/>
</g>
<!-- Node11 -->
<g id="node12" class="node">
<title>Node11</title>
<g id="a_node12"><a xlink:href="VectorDynSize_8h.html" target="_top" xlink:title="iDynTree/Core/VectorDynSize.h">
<polygon fill="none" stroke="#000000" points="937,-112.5 937,-131.5 1104,-131.5 1104,-112.5 937,-112.5"/>
<text text-anchor="middle" x="1020.5" y="-119.5" font-family="FreeSans.ttf" font-size="10.00" fill="#000000">iDynTree/Core/VectorDynSize.h</text>
</a>
</g>
</g>
<!-- Node10&#45;&gt;Node11 -->
<g id="edge13" class="edge">
<title>Node10&#45;&gt;Node11</title>
<path fill="none" stroke="#191970" d="M490.7085,-397.8634C681.3605,-387.1735 1137.5,-354.824 1137.5,-290 1137.5,-290 1137.5,-290 1137.5,-234 1137.5,-203.4754 1138.307,-191.2258 1118.5,-168 1105.5344,-152.7964 1086.4365,-142.2873 1068.5356,-135.1955"/>
<polygon fill="#191970" stroke="#191970" points="1069.3539,-131.7673 1058.7604,-131.5991 1066.9369,-138.3368 1069.3539,-131.7673"/>
</g>
<!-- Node21 -->
<g id="node22" class="node">
<title>Node21</title>
<g id="a_node22"><a xlink:href="MatrixDynSize_8h.html" target="_top" xlink:title="iDynTree/Core/MatrixDynSize.h">
<polygon fill="none" stroke="#000000" points="325,-280.5 325,-299.5 492,-299.5 492,-280.5 325,-280.5"/>
<text text-anchor="middle" x="408.5" y="-287.5" font-family="FreeSans.ttf" font-size="10.00" fill="#000000">iDynTree/Core/MatrixDynSize.h</text>
</a>
</g>
</g>
<!-- Node10&#45;&gt;Node21 -->
<g id="edge25" class="edge">
<title>Node10&#45;&gt;Node21</title>
<path fill="none" stroke="#191970" d="M408.5,-392.4509C408.5,-374.184 408.5,-333.9553 408.5,-309.6976"/>
<polygon fill="#191970" stroke="#191970" points="412.0001,-309.5249 408.5,-299.5249 405.0001,-309.5249 412.0001,-309.5249"/>
</g>
<!-- Node22 -->
<g id="node23" class="node">
<title>Node22</title>
<g id="a_node23"><a xlink:href="Transform_8h.html" target="_top" xlink:title="iDynTree/Core/Transform.h">
<polygon fill="none" stroke="#000000" points="515.5,-336.5 515.5,-355.5 661.5,-355.5 661.5,-336.5 515.5,-336.5"/>
<text text-anchor="middle" x="588.5" y="-343.5" font-family="FreeSans.ttf" font-size="10.00" fill="#000000">iDynTree/Core/Transform.h</text>
</a>
</g>
</g>
<!-- Node10&#45;&gt;Node22 -->
<g id="edge27" class="edge">
<title>Node10&#45;&gt;Node22</title>
<path fill="none" stroke="#191970" d="M439.4431,-392.3733C469.5039,-383.021 515.3026,-368.7725 548.1978,-358.5385"/>
<polygon fill="#191970" stroke="#191970" points="549.4519,-361.8139 557.9607,-355.5011 547.3723,-355.1299 549.4519,-361.8139"/>
</g>
<!-- Node11&#45;&gt;Node4 -->
<g id="edge24" class="edge">
<title>Node11&#45;&gt;Node4</title>
<path fill="none" stroke="#191970" d="M978.8321,-112.4369C930.5704,-101.3604 852.1164,-83.3546 808.4342,-73.3292"/>
<polygon fill="#191970" stroke="#191970" points="809.1618,-69.9052 798.6323,-71.0795 807.5959,-76.7278 809.1618,-69.9052"/>
</g>
<!-- Node12 -->
<g id="node13" class="node">
<title>Node12</title>
<g id="a_node13"><a xlink:href="Span_8h.html" target="_top" xlink:title="iDynTree/Core/Span.h">
<polygon fill="none" stroke="#000000" points="960,-56.5 960,-75.5 1081,-75.5 1081,-56.5 960,-56.5"/>
<text text-anchor="middle" x="1020.5" y="-63.5" font-family="FreeSans.ttf" font-size="10.00" fill="#000000">iDynTree/Core/Span.h</text>
</a>
</g>
</g>
<!-- Node11&#45;&gt;Node12 -->
<g id="edge14" class="edge">
<title>Node11&#45;&gt;Node12</title>
<path fill="none" stroke="#191970" d="M1020.5,-112.2455C1020.5,-104.9382 1020.5,-94.6944 1020.5,-85.7046"/>
<polygon fill="#191970" stroke="#191970" points="1024.0001,-85.6426 1020.5,-75.6427 1017.0001,-85.6427 1024.0001,-85.6426"/>
</g>
<!-- Node12&#45;&gt;Node7 -->
<g id="edge18" class="edge">
<title>Node12&#45;&gt;Node7</title>
<path fill="none" stroke="#191970" d="M959.9471,-59.2451C854.6818,-47.5024 641.0039,-23.6658 555.2907,-14.1041"/>
<polygon fill="#191970" stroke="#191970" points="555.5771,-10.6145 545.2506,-12.9841 554.8009,-17.5713 555.5771,-10.6145"/>
</g>
<!-- Node13 -->
<g id="node14" class="node">
<title>Node13</title>
<polygon fill="none" stroke="#bfbfbf" points="1240.5,-.5 1240.5,-19.5 1292.5,-19.5 1292.5,-.5 1240.5,-.5"/>
<text text-anchor="middle" x="1266.5" y="-7.5" font-family="FreeSans.ttf" font-size="10.00" fill="#000000">cassert</text>
</g>
<!-- Node12&#45;&gt;Node13 -->
<g id="edge15" class="edge">
<title>Node12&#45;&gt;Node13</title>
<path fill="none" stroke="#191970" d="M1068.4687,-56.4496C1109.1893,-48.1379 1169.375,-35.3743 1230.3801,-20.1755"/>
<polygon fill="#191970" stroke="#191970" points="1231.3289,-23.546 1240.1752,-17.7156 1229.6238,-16.7568 1231.3289,-23.546"/>
</g>
<!-- Node14 -->
<g id="node15" class="node">
<title>Node14</title>
<polygon fill="none" stroke="#bfbfbf" points="1098.5,-.5 1098.5,-19.5 1162.5,-19.5 1162.5,-.5 1098.5,-.5"/>
<text text-anchor="middle" x="1130.5" y="-7.5" font-family="FreeSans.ttf" font-size="10.00" fill="#000000">algorithm</text>
</g>
<!-- Node12&#45;&gt;Node14 -->
<g id="edge16" class="edge">
<title>Node12&#45;&gt;Node14</title>
<path fill="none" stroke="#191970" d="M1039.6605,-56.2455C1057.0111,-47.4125 1082.7901,-34.2887 1102.4583,-24.2758"/>
<polygon fill="#191970" stroke="#191970" points="1104.2353,-27.2986 1111.559,-19.6427 1101.0595,-21.0605 1104.2353,-27.2986"/>
</g>
<!-- Node15 -->
<g id="node16" class="node">
<title>Node15</title>
<polygon fill="none" stroke="#bfbfbf" points="1180.5,-.5 1180.5,-19.5 1222.5,-19.5 1222.5,-.5 1180.5,-.5"/>
<text text-anchor="middle" x="1201.5" y="-7.5" font-family="FreeSans.ttf" font-size="10.00" fill="#000000">array</text>
</g>
<!-- Node12&#45;&gt;Node15 -->
<g id="edge17" class="edge">
<title>Node12&#45;&gt;Node15</title>
<path fill="none" stroke="#191970" d="M1052.6829,-56.4605C1081.3315,-47.9102 1124.6071,-34.8521 1170.6626,-20.2167"/>
<polygon fill="#191970" stroke="#191970" points="1171.7529,-23.5427 1180.2171,-17.1703 1169.6264,-16.8735 1171.7529,-23.5427"/>
</g>
<!-- Node16 -->
<g id="node17" class="node">
<title>Node16</title>
<polygon fill="none" stroke="#bfbfbf" points="731,-.5 731,-19.5 784,-19.5 784,-.5 731,-.5"/>
<text text-anchor="middle" x="757.5" y="-7.5" font-family="FreeSans.ttf" font-size="10.00" fill="#000000">iterator</text>
</g>
<!-- Node12&#45;&gt;Node16 -->
<g id="edge19" class="edge">
<title>Node12&#45;&gt;Node16</title>
<path fill="none" stroke="#191970" d="M967.9746,-56.4522C924.0704,-48.2236 859.6067,-35.5686 794.2509,-20.0509"/>
<polygon fill="#191970" stroke="#191970" points="794.7217,-16.5647 784.1815,-17.6387 793.0909,-23.3721 794.7217,-16.5647"/>
</g>
<!-- Node17 -->
<g id="node18" class="node">
<title>Node17</title>
<polygon fill="none" stroke="#bfbfbf" points="802.5,-.5 802.5,-19.5 846.5,-19.5 846.5,-.5 802.5,-.5"/>
<text text-anchor="middle" x="824.5" y="-7.5" font-family="FreeSans.ttf" font-size="10.00" fill="#000000">limits</text>
</g>
<!-- Node12&#45;&gt;Node17 -->
<g id="edge20" class="edge">
<title>Node12&#45;&gt;Node17</title>
<path fill="none" stroke="#191970" d="M985.2233,-56.428C951.953,-47.3241 900.7286,-33.1104 856.5,-20 856.3989,-19.97 856.2975,-19.94 856.1961,-19.9098"/>
<polygon fill="#191970" stroke="#191970" points="857.0934,-16.5246 846.5079,-16.9709 855.0613,-23.2232 857.0934,-16.5246"/>
</g>
<!-- Node18 -->
<g id="node19" class="node">
<title>Node18</title>
<polygon fill="none" stroke="#bfbfbf" points="865,-.5 865,-19.5 930,-19.5 930,-.5 865,-.5"/>
<text text-anchor="middle" x="897.5" y="-7.5" font-family="FreeSans.ttf" font-size="10.00" fill="#000000">stdexcept</text>
</g>
<!-- Node12&#45;&gt;Node18 -->
<g id="edge21" class="edge">
<title>Node12&#45;&gt;Node18</title>
<path fill="none" stroke="#191970" d="M999.3555,-56.3733C979.6108,-47.3838 949.9302,-33.8706 927.6945,-23.7471"/>
<polygon fill="#191970" stroke="#191970" points="928.92,-20.4594 918.3685,-19.5011 926.0194,-26.8302 928.92,-20.4594"/>
</g>
<!-- Node19 -->
<g id="node20" class="node">
<title>Node19</title>
<polygon fill="none" stroke="#bfbfbf" points="948,-.5 948,-19.5 1017,-19.5 1017,-.5 948,-.5"/>
<text text-anchor="middle" x="982.5" y="-7.5" font-family="FreeSans.ttf" font-size="10.00" fill="#000000">type_traits</text>
</g>
<!-- Node12&#45;&gt;Node19 -->
<g id="edge22" class="edge">
<title>Node12&#45;&gt;Node19</title>
<path fill="none" stroke="#191970" d="M1013.8809,-56.2455C1008.5954,-48.4564 1001.0459,-37.3308 994.6762,-27.9439"/>
<polygon fill="#191970" stroke="#191970" points="997.5545,-25.9522 989.0432,-19.6427 991.7621,-29.8827 997.5545,-25.9522"/>
</g>
<!-- Node20 -->
<g id="node21" class="node">
<title>Node20</title>
<polygon fill="none" stroke="#bfbfbf" points="1035,-.5 1035,-19.5 1080,-19.5 1080,-.5 1035,-.5"/>
<text text-anchor="middle" x="1057.5" y="-7.5" font-family="FreeSans.ttf" font-size="10.00" fill="#000000">utility</text>
</g>
<!-- Node12&#45;&gt;Node20 -->
<g id="edge23" class="edge">
<title>Node12&#45;&gt;Node20</title>
<path fill="none" stroke="#191970" d="M1026.9449,-56.2455C1032.0382,-48.5367 1039.2908,-37.5598 1045.452,-28.2348"/>
<polygon fill="#191970" stroke="#191970" points="1048.5365,-29.9155 1051.1289,-19.6427 1042.6962,-26.0566 1048.5365,-29.9155"/>
</g>
<!-- Node21&#45;&gt;Node4 -->
<g id="edge26" class="edge">
<title>Node21&#45;&gt;Node4</title>
<path fill="none" stroke="#191970" d="M410.0055,-280.3222C415.2842,-249.9149 435.9173,-155.7276 494.5,-112 533.5682,-82.8385 678.8882,-71.3396 744.2674,-67.5718"/>
<polygon fill="#191970" stroke="#191970" points="744.6189,-71.0579 754.4111,-67.0127 744.2336,-64.0685 744.6189,-71.0579"/>
</g>
<!-- Node22&#45;&gt;Node4 -->
<g id="edge61" class="edge">
<title>Node22&#45;&gt;Node4</title>
<path fill="none" stroke="#191970" d="M587.2435,-336.3597C584.8866,-315.1194 581.3876,-263.072 597.5,-224 620.9002,-167.2555 651.5373,-169.0156 700.5,-132 721.2009,-116.3502 743.4588,-96.6482 758.5017,-82.8612"/>
<polygon fill="#191970" stroke="#191970" points="761.0934,-85.2318 766.0609,-75.8736 756.3418,-80.0915 761.0934,-85.2318"/>
</g>
<!-- Node23 -->
<g id="node24" class="node">
<title>Node23</title>
<g id="a_node24"><a xlink:href="Position_8h.html" target="_top" xlink:title="iDynTree/Core/Position.h">
<polygon fill="none" stroke="#000000" points="736.5,-280.5 736.5,-299.5 872.5,-299.5 872.5,-280.5 736.5,-280.5"/>
<text text-anchor="middle" x="804.5" y="-287.5" font-family="FreeSans.ttf" font-size="10.00" fill="#000000">iDynTree/Core/Position.h</text>
</a>
</g>
</g>
<!-- Node22&#45;&gt;Node23 -->
<g id="edge28" class="edge">
<title>Node22&#45;&gt;Node23</title>
<path fill="none" stroke="#191970" d="M625.6317,-336.3733C662.3267,-326.8598 718.5639,-312.2797 758.1651,-302.0127"/>
<polygon fill="#191970" stroke="#191970" points="759.0512,-305.3988 767.8528,-299.5011 757.2944,-298.6228 759.0512,-305.3988"/>
</g>
<!-- Node29 -->
<g id="node30" class="node">
<title>Node29</title>
<g id="a_node30"><a xlink:href="Rotation_8h.html" target="_top" xlink:title="iDynTree/Core/Rotation.h">
<polygon fill="none" stroke="#000000" points="606,-224.5 606,-243.5 743,-243.5 743,-224.5 606,-224.5"/>
<text text-anchor="middle" x="674.5" y="-231.5" font-family="FreeSans.ttf" font-size="10.00" fill="#000000">iDynTree/Core/Rotation.h</text>
</a>
</g>
</g>
<!-- Node22&#45;&gt;Node29 -->
<g id="edge56" class="edge">
<title>Node22&#45;&gt;Node29</title>
<path fill="none" stroke="#191970" d="M595.8323,-336.4509C610.2396,-317.688 642.4383,-275.7548 660.8644,-251.758"/>
<polygon fill="#191970" stroke="#191970" points="663.872,-253.588 667.1862,-243.5249 658.3199,-249.3248 663.872,-253.588"/>
</g>
<!-- Node31 -->
<g id="node32" class="node">
<title>Node31</title>
<g id="a_node32"><a xlink:href="MatrixFixSize_8h.html" target="_top" xlink:title="iDynTree/Core/MatrixFixSize.h">
<polygon fill="none" stroke="#000000" points="1301,-112.5 1301,-131.5 1462,-131.5 1462,-112.5 1301,-112.5"/>
<text text-anchor="middle" x="1381.5" y="-119.5" font-family="FreeSans.ttf" font-size="10.00" fill="#000000">iDynTree/Core/MatrixFixSize.h</text>
</a>
</g>
</g>
<!-- Node22&#45;&gt;Node31 -->
<g id="edge60" class="edge">
<title>Node22&#45;&gt;Node31</title>
<path fill="none" stroke="#191970" d="M661.7371,-338.0393C721.4286,-330.7075 807.6289,-318.1919 881.5,-300 1063.824,-255.1 1272.71,-168.891 1350.3369,-135.5912"/>
<polygon fill="#191970" stroke="#191970" points="1351.7651,-138.7869 1359.5645,-131.6162 1348.9956,-132.358 1351.7651,-138.7869"/>
</g>
<!-- Node34 -->
<g id="node35" class="node">
<title>Node34</title>
<g id="a_node35"><a xlink:href="TransformSemantics_8h.html" target="_top" xlink:title="iDynTree/Core/TransformSemantics.h">
<polygon fill="none" stroke="#000000" points="250,-112.5 250,-131.5 447,-131.5 447,-112.5 250,-112.5"/>
<text text-anchor="middle" x="348.5" y="-119.5" font-family="FreeSans.ttf" font-size="10.00" fill="#000000">iDynTree/Core/TransformSemantics.h</text>
</a>
</g>
</g>
<!-- Node22&#45;&gt;Node34 -->
<g id="edge57" class="edge">
<title>Node22&#45;&gt;Node34</title>
<path fill="none" stroke="#191970" d="M578.1875,-336.375C540.9537,-301.6235 413.1824,-182.3702 366.1018,-138.4283"/>
<polygon fill="#191970" stroke="#191970" points="368.4728,-135.8537 358.7741,-131.5891 363.6965,-140.9711 368.4728,-135.8537"/>
</g>
<!-- Node23&#45;&gt;Node4 -->
<g id="edge55" class="edge">
<title>Node23&#45;&gt;Node4</title>
<path fill="none" stroke="#191970" d="M807.2681,-280.4221C813.4895,-258.7102 828.214,-206.2231 830.5,-188 831.6064,-179.1802 832.6427,-176.6268 830.5,-168 822.6195,-136.2719 802.849,-103.554 789.5456,-83.9963"/>
<polygon fill="#191970" stroke="#191970" points="792.381,-81.9434 783.7845,-75.7505 786.6428,-85.9526 792.381,-81.9434"/>
</g>
<!-- Node24 -->
<g id="node25" class="node">
<title>Node24</title>
<g id="a_node25"><a xlink:href="PositionRaw_8h.html" target="_top" xlink:title="iDynTree/Core/PositionRaw.h">
<polygon fill="none" stroke="#000000" points="953.5,-168.5 953.5,-187.5 1109.5,-187.5 1109.5,-168.5 953.5,-168.5"/>
<text text-anchor="middle" x="1031.5" y="-175.5" font-family="FreeSans.ttf" font-size="10.00" fill="#000000">iDynTree/Core/PositionRaw.h</text>
</a>
</g>
</g>
<!-- Node23&#45;&gt;Node24 -->
<g id="edge29" class="edge">
<title>Node23&#45;&gt;Node24</title>
<path fill="none" stroke="#191970" d="M872.5399,-285.0667C930.8677,-279.286 1008.5506,-267.3587 1028.5,-244 1039.1848,-231.4892 1038.838,-212.2781 1036.4673,-197.8027"/>
<polygon fill="#191970" stroke="#191970" points="1039.861,-196.9302 1034.409,-187.8458 1033.0059,-198.3473 1039.861,-196.9302"/>
</g>
<!-- Node28 -->
<g id="node29" class="node">
<title>Node28</title>
<g id="a_node29"><a xlink:href="PositionSemantics_8h.html" target="_top" xlink:title="iDynTree/Core/PositionSemantics.h">
<polygon fill="none" stroke="#000000" points="832,-224.5 832,-243.5 1019,-243.5 1019,-224.5 832,-224.5"/>
<text text-anchor="middle" x="925.5" y="-231.5" font-family="FreeSans.ttf" font-size="10.00" fill="#000000">iDynTree/Core/PositionSemantics.h</text>
</a>
</g>
</g>
<!-- Node23&#45;&gt;Node28 -->
<g id="edge38" class="edge">
<title>Node23&#45;&gt;Node28</title>
<path fill="none" stroke="#191970" d="M825.3006,-280.3733C844.7243,-271.3838 873.9224,-257.8706 895.7964,-247.7471"/>
<polygon fill="#191970" stroke="#191970" points="897.3656,-250.8776 904.9708,-243.5011 894.4255,-244.5249 897.3656,-250.8776"/>
</g>
<!-- Node23&#45;&gt;Node29 -->
<g id="edge40" class="edge">
<title>Node23&#45;&gt;Node29</title>
<path fill="none" stroke="#191970" d="M782.1522,-280.3733C761.0967,-271.3032 729.3505,-257.6279 705.7825,-247.4755"/>
<polygon fill="#191970" stroke="#191970" points="707.125,-244.243 696.5562,-243.5011 704.3556,-250.6719 707.125,-244.243"/>
</g>
<!-- Node24&#45;&gt;Node4 -->
<g id="edge37" class="edge">
<title>Node24&#45;&gt;Node4</title>
<path fill="none" stroke="#191970" d="M1009.7548,-168.4044C988.8788,-159.1649 956.4777,-144.753 928.5,-132 909.3213,-123.2578 904.7681,-120.5434 885.5,-112 859.6101,-100.5205 829.9887,-88.0625 808.1659,-79.0101"/>
<polygon fill="#191970" stroke="#191970" points="809.3079,-75.6949 798.7294,-75.1063 806.6319,-82.1633 809.3079,-75.6949"/>
</g>
<!-- Node25 -->
<g id="node26" class="node">
<title>Node25</title>
<g id="a_node26"><a xlink:href="VectorFixSize_8h.html" target="_top" xlink:title="iDynTree/Core/VectorFixSize.h">
<polygon fill="none" stroke="#000000" points="1122,-112.5 1122,-131.5 1283,-131.5 1283,-112.5 1122,-112.5"/>
<text text-anchor="middle" x="1202.5" y="-119.5" font-family="FreeSans.ttf" font-size="10.00" fill="#000000">iDynTree/Core/VectorFixSize.h</text>
</a>
</g>
</g>
<!-- Node24&#45;&gt;Node25 -->
<g id="edge30" class="edge">
<title>Node24&#45;&gt;Node25</title>
<path fill="none" stroke="#191970" d="M1060.8959,-168.3733C1089.3307,-159.0613 1132.5877,-144.8953 1163.8081,-134.671"/>
<polygon fill="#191970" stroke="#191970" points="1165.0736,-137.9396 1173.4876,-131.5011 1162.895,-131.2872 1165.0736,-137.9396"/>
</g>
<!-- Node25&#45;&gt;Node4 -->
<g id="edge33" class="edge">
<title>Node25&#45;&gt;Node4</title>
<path fill="none" stroke="#191970" d="M1129.752,-112.4369C1035.9147,-100.1015 876.7013,-79.172 808.7686,-70.2419"/>
<polygon fill="#191970" stroke="#191970" points="809.0445,-66.7481 798.6735,-68.9148 808.1321,-73.6884 809.0445,-66.7481"/>
</g>
<!-- Node25&#45;&gt;Node6 -->
<g id="edge31" class="edge">
<title>Node25&#45;&gt;Node6</title>
<path fill="none" stroke="#191970" d="M1121.9828,-112.8263C1119.1207,-112.5406 1116.2863,-112.2642 1113.5,-112 923.7086,-94.0066 699.354,-78.1144 588.1748,-70.5988"/>
<polygon fill="#191970" stroke="#191970" points="588.3104,-67.1001 578.0976,-69.9196 587.8396,-74.0842 588.3104,-67.1001"/>
</g>
<!-- Node25&#45;&gt;Node12 -->
<g id="edge32" class="edge">
<title>Node25&#45;&gt;Node12</title>
<path fill="none" stroke="#191970" d="M1171.2131,-112.3733C1140.8182,-103.021 1094.5107,-88.7725 1061.25,-78.5385"/>
<polygon fill="#191970" stroke="#191970" points="1061.9658,-75.0968 1051.3786,-75.5011 1059.9071,-81.7873 1061.9658,-75.0968"/>
</g>
<!-- Node25&#45;&gt;Node13 -->
<g id="edge35" class="edge">
<title>Node25&#45;&gt;Node13</title>
<path fill="none" stroke="#191970" d="M1199.4266,-112.3904C1195.7133,-98.9315 1191.0582,-74.0894 1200.5,-56 1207.6245,-42.3502 1220.8523,-31.926 1233.6056,-24.4806"/>
<polygon fill="#191970" stroke="#191970" points="1235.5647,-27.4012 1242.7141,-19.5822 1232.2492,-21.2362 1235.5647,-27.4012"/>
</g>
<!-- Node26 -->
<g id="node27" class="node">
<title>Node26</title>
<polygon fill="none" stroke="#bfbfbf" points="1277.5,-56.5 1277.5,-75.5 1333.5,-75.5 1333.5,-56.5 1277.5,-56.5"/>
<text text-anchor="middle" x="1305.5" y="-63.5" font-family="FreeSans.ttf" font-size="10.00" fill="#000000">sstream</text>
</g>
<!-- Node25&#45;&gt;Node26 -->
<g id="edge34" class="edge">
<title>Node25&#45;&gt;Node26</title>
<path fill="none" stroke="#191970" d="M1220.4412,-112.2455C1236.54,-103.4928 1260.3879,-90.527 1278.7391,-80.5496"/>
<polygon fill="#191970" stroke="#191970" points="1280.6507,-83.4942 1287.7644,-75.6427 1277.3071,-77.3444 1280.6507,-83.4942"/>
</g>
<!-- Node27 -->
<g id="node28" class="node">
<title>Node27</title>
<polygon fill="none" stroke="#bfbfbf" points="1209.5,-56.5 1209.5,-75.5 1259.5,-75.5 1259.5,-56.5 1209.5,-56.5"/>
<text text-anchor="middle" x="1234.5" y="-63.5" font-family="FreeSans.ttf" font-size="10.00" fill="#000000">cstring</text>
</g>
<!-- Node25&#45;&gt;Node27 -->
<g id="edge36" class="edge">
<title>Node25&#45;&gt;Node27</title>
<path fill="none" stroke="#191970" d="M1208.074,-112.2455C1212.4331,-104.617 1218.6211,-93.7881 1223.9133,-84.5267"/>
<polygon fill="#191970" stroke="#191970" points="1227.0673,-86.0616 1228.9899,-75.6427 1220.9896,-82.5886 1227.0673,-86.0616"/>
</g>
<!-- Node28&#45;&gt;Node4 -->
<g id="edge39" class="edge">
<title>Node28&#45;&gt;Node4</title>
<path fill="none" stroke="#191970" d="M921.1788,-224.4885C910.8911,-202.6086 883.1223,-147.8381 847.5,-112 835.1333,-99.5584 818.8514,-88.7132 804.9994,-80.683"/>
<polygon fill="#191970" stroke="#191970" points="806.3132,-77.408 795.8758,-75.5884 802.9004,-83.5197 806.3132,-77.408"/>
</g>
<!-- Node29&#45;&gt;Node4 -->
<g id="edge41" class="edge">
<title>Node29&#45;&gt;Node4</title>
<path fill="none" stroke="#191970" d="M666.8504,-224.3443C657.1435,-210.8307 642.9707,-185.9238 654.5,-168 675.3738,-135.5489 704.2505,-157.1646 733.5,-132 748.6616,-118.9558 760.5339,-99.2751 767.9268,-84.7979"/>
<polygon fill="#191970" stroke="#191970" points="771.0993,-86.277 772.3147,-75.752 764.8012,-83.2218 771.0993,-86.277"/>
</g>
<!-- Node29&#45;&gt;Node25 -->
<g id="edge54" class="edge">
<title>Node29&#45;&gt;Node25</title>
<path fill="none" stroke="#191970" d="M710.5811,-224.4087C762.2043,-210.8622 860.2228,-185.795 944.5,-168 1007.936,-154.6056 1080.6909,-141.8699 1132.7345,-133.2098"/>
<polygon fill="#191970" stroke="#191970" points="1133.5645,-136.6201 1142.8582,-131.5331 1132.4207,-129.7142 1133.5645,-136.6201"/>
</g>
<!-- Node30 -->
<g id="node31" class="node">
<title>Node30</title>
<g id="a_node31"><a xlink:href="RotationRaw_8h.html" target="_top" xlink:title="iDynTree/Core/RotationRaw.h">
<polygon fill="none" stroke="#000000" points="663.5,-168.5 663.5,-187.5 821.5,-187.5 821.5,-168.5 663.5,-168.5"/>
<text text-anchor="middle" x="742.5" y="-175.5" font-family="FreeSans.ttf" font-size="10.00" fill="#000000">iDynTree/Core/RotationRaw.h</text>
</a>
</g>
</g>
<!-- Node29&#45;&gt;Node30 -->
<g id="edge42" class="edge">
<title>Node29&#45;&gt;Node30</title>
<path fill="none" stroke="#191970" d="M686.3447,-224.2455C696.388,-215.9746 710.9995,-203.9416 722.8004,-194.2232"/>
<polygon fill="#191970" stroke="#191970" points="725.2967,-196.7015 730.791,-187.6427 720.8467,-191.298 725.2967,-196.7015"/>
</g>
<!-- Node33 -->
<g id="node34" class="node">
<title>Node33</title>
<g id="a_node34"><a xlink:href="RotationSemantics_8h.html" target="_top" xlink:title="iDynTree/Core/RotationSemantics.h">
<polygon fill="none" stroke="#000000" points="503.5,-112.5 503.5,-131.5 691.5,-131.5 691.5,-112.5 503.5,-112.5"/>
<text text-anchor="middle" x="597.5" y="-119.5" font-family="FreeSans.ttf" font-size="10.00" fill="#000000">iDynTree/Core/RotationSemantics.h</text>
</a>
</g>
</g>
<!-- Node29&#45;&gt;Node33 -->
<g id="edge51" class="edge">
<title>Node29&#45;&gt;Node33</title>
<path fill="none" stroke="#191970" d="M659.6156,-224.28C647.8347,-215.9111 631.717,-202.8581 621.5,-188 611.7971,-173.8895 605.5168,-155.3956 601.8243,-141.5755"/>
<polygon fill="#191970" stroke="#191970" points="605.1766,-140.5498 599.4017,-131.6672 598.3769,-142.2123 605.1766,-140.5498"/>
</g>
<!-- Node30&#45;&gt;Node4 -->
<g id="edge50" class="edge">
<title>Node30&#45;&gt;Node4</title>
<path fill="none" stroke="#191970" d="M750.4709,-168.4861C757.3715,-159.6471 766.9397,-145.8049 771.5,-132 776.4561,-116.9971 777.5307,-99.0704 777.4636,-85.689"/>
<polygon fill="#191970" stroke="#191970" points="780.9622,-85.5854 777.1989,-75.6815 773.9646,-85.7706 780.9622,-85.5854"/>
</g>
<!-- Node30&#45;&gt;Node31 -->
<g id="edge43" class="edge">
<title>Node30&#45;&gt;Node31</title>
<path fill="none" stroke="#191970" d="M821.804,-172.0793C926.7224,-164.0866 1117.6913,-148.9867 1290.9133,-132.1344"/>
<polygon fill="#191970" stroke="#191970" points="1291.3683,-135.6067 1300.9806,-131.151 1290.6877,-128.6399 1291.3683,-135.6067"/>
</g>
<!-- Node31&#45;&gt;Node4 -->
<g id="edge47" class="edge">
<title>Node31&#45;&gt;Node4</title>
<path fill="none" stroke="#191970" d="M1300.9786,-112.8688C1298.1177,-112.571 1295.2847,-112.2805 1292.5,-112 1109.6574,-93.5804 889.9724,-75.2601 808.7349,-68.6146"/>
<polygon fill="#191970" stroke="#191970" points="808.8975,-65.1163 798.6459,-67.7911 808.328,-72.0931 808.8975,-65.1163"/>
</g>
<!-- Node31&#45;&gt;Node6 -->
<g id="edge44" class="edge">
<title>Node31&#45;&gt;Node6</title>
<path fill="none" stroke="#191970" d="M1300.9886,-112.762C1298.1249,-112.4945 1295.2885,-112.2394 1292.5,-112 1033.3604,-89.7565 724.484,-74.8858 588.5674,-68.9296"/>
<polygon fill="#191970" stroke="#191970" points="588.4436,-65.4209 578.3007,-68.4822 588.1389,-72.4143 588.4436,-65.4209"/>
</g>
<!-- Node31&#45;&gt;Node13 -->
<g id="edge45" class="edge">
<title>Node31&#45;&gt;Node13</title>
<path fill="none" stroke="#191970" d="M1394.3703,-112.4207C1410.5423,-99.2105 1434.5734,-74.8916 1420.5,-56 1406.362,-37.0217 1343.3481,-22.9977 1302.4355,-15.6948"/>
<polygon fill="#191970" stroke="#191970" points="1303.0039,-12.2412 1292.5534,-13.984 1301.8098,-19.1386 1303.0039,-12.2412"/>
</g>
<!-- Node31&#45;&gt;Node26 -->
<g id="edge49" class="edge">
<title>Node31&#45;&gt;Node26</title>
<path fill="none" stroke="#191970" d="M1368.2618,-112.2455C1356.819,-103.814 1340.0704,-91.4729 1326.7525,-81.6598"/>
<polygon fill="#191970" stroke="#191970" points="1328.7133,-78.757 1318.5865,-75.6427 1324.5609,-84.3924 1328.7133,-78.757"/>
</g>
<!-- Node31&#45;&gt;Node27 -->
<g id="edge46" class="edge">
<title>Node31&#45;&gt;Node27</title>
<path fill="none" stroke="#191970" d="M1356.2298,-112.3733C1332.1034,-103.1822 1295.5638,-89.2624 1268.8123,-79.0713"/>
<polygon fill="#191970" stroke="#191970" points="1270.0313,-75.7904 1259.4404,-75.5011 1267.5393,-82.3318 1270.0313,-75.7904"/>
</g>
<!-- Node32 -->
<g id="node33" class="node">
<title>Node32</title>
<polygon fill="none" stroke="#bfbfbf" points="1351.5,-56.5 1351.5,-75.5 1411.5,-75.5 1411.5,-56.5 1351.5,-56.5"/>
<text text-anchor="middle" x="1381.5" y="-63.5" font-family="FreeSans.ttf" font-size="10.00" fill="#000000">iostream</text>
</g>
<!-- Node31&#45;&gt;Node32 -->
<g id="edge48" class="edge">
<title>Node31&#45;&gt;Node32</title>
<path fill="none" stroke="#191970" d="M1381.5,-112.2455C1381.5,-104.9382 1381.5,-94.6944 1381.5,-85.7046"/>
<polygon fill="#191970" stroke="#191970" points="1385.0001,-85.6426 1381.5,-75.6427 1378.0001,-85.6427 1385.0001,-85.6426"/>
</g>
<!-- Node33&#45;&gt;Node4 -->
<g id="edge52" class="edge">
<title>Node33&#45;&gt;Node4</title>
<path fill="none" stroke="#191970" d="M628.2712,-112.3733C660.7921,-102.1991 711.8349,-86.2304 744.7293,-75.9394"/>
<polygon fill="#191970" stroke="#191970" points="745.8158,-79.2669 754.3146,-72.9407 743.7257,-72.5862 745.8158,-79.2669"/>
</g>
<!-- Node33&#45;&gt;Node6 -->
<g id="edge53" class="edge">
<title>Node33&#45;&gt;Node6</title>
<path fill="none" stroke="#191970" d="M583.7393,-112.2455C571.8448,-103.814 554.435,-91.4729 540.5915,-81.6598"/>
<polygon fill="#191970" stroke="#191970" points="542.2854,-78.5704 532.1031,-75.6427 538.2372,-84.2811 542.2854,-78.5704"/>
</g>
<!-- Node34&#45;&gt;Node4 -->
<g id="edge58" class="edge">
<title>Node34&#45;&gt;Node4</title>
<path fill="none" stroke="#191970" d="M421.5895,-112.4369C515.8674,-100.1015 675.8283,-79.172 744.0799,-70.2419"/>
<polygon fill="#191970" stroke="#191970" points="744.761,-73.6827 754.2223,-68.9148 743.8528,-66.7419 744.761,-73.6827"/>
</g>
<!-- Node34&#45;&gt;Node6 -->
<g id="edge59" class="edge">
<title>Node34&#45;&gt;Node6</title>
<path fill="none" stroke="#191970" d="M377.724,-112.3733C405.9925,-103.0613 448.9965,-88.8953 480.0344,-78.671"/>
<polygon fill="#191970" stroke="#191970" points="481.2544,-81.9542 489.6573,-75.5011 479.0643,-75.3056 481.2544,-81.9542"/>
</g>
</g>
</svg>
