<?xml version="1.0" encoding="UTF-8" standalone="no"?>
<!DOCTYPE svg PUBLIC "-//W3C//DTD SVG 1.1//EN"
 "http://www.w3.org/Graphics/SVG/1.1/DTD/svg11.dtd">
<!-- Generated by graphviz version 2.40.1 (20161225.0304)
 -->
<!-- Title: LinkTraversalsCache.h Pages: 1 -->
<svg width="940pt" height="162pt"
 viewBox="0.00 0.00 940.00 162.00" xmlns="http://www.w3.org/2000/svg" xmlns:xlink="http://www.w3.org/1999/xlink">
<g id="graph0" class="graph" transform="scale(1 1) rotate(0) translate(4 158)">
<title>LinkTraversalsCache.h</title>
<!-- Node4 -->
<g id="node1" class="node">
<title>Node4</title>
<polygon fill="#bfbfbf" stroke="#000000" points="467,-134.5 467,-153.5 592,-153.5 592,-134.5 467,-134.5"/>
<text text-anchor="middle" x="529.5" y="-141.5" font-family="FreeSans.ttf" font-size="10.00" fill="#000000">LinkTraversalsCache.h</text>
</g>
<!-- Node5 -->
<g id="node2" class="node">
<title>Node5</title>
<g id="a_node2"><a xlink:href="BerdyHelper_8h.html" target="_top" xlink:title="BerdyHelper.h">
<polygon fill="none" stroke="#000000" points="146.5,-73 146.5,-92 232.5,-92 232.5,-73 146.5,-73"/>
<text text-anchor="middle" x="189.5" y="-80" font-family="FreeSans.ttf" font-size="10.00" fill="#000000">BerdyHelper.h</text>
</a>
</g>
</g>
<!-- Node4&#45;&gt;Node5 -->
<g id="edge1" class="edge">
<title>Node4&#45;&gt;Node5</title>
<path fill="none" stroke="#191970" d="M456.9324,-132.9955C401.7954,-124.3384 324.1663,-111.5151 256.5,-98 247.602,-96.2228 238.0821,-94.1347 229.0939,-92.077"/>
<polygon fill="#191970" stroke="#191970" points="456.5378,-136.4763 466.9584,-134.5627 457.619,-129.5602 456.5378,-136.4763"/>
</g>
<!-- Node8 -->
<g id="node5" class="node">
<title>Node8</title>
<g id="a_node5"><a xlink:href="ExtWrenchesAndJointTorquesEstimator_8h.html" target="_top" xlink:title="ExtWrenchesAndJointTorques\lEstimator.h">
<polygon fill="none" stroke="#000000" points="265.5,-67.5 265.5,-97.5 423.5,-97.5 423.5,-67.5 265.5,-67.5"/>
<text text-anchor="start" x="273.5" y="-85.5" font-family="FreeSans.ttf" font-size="10.00" fill="#000000">ExtWrenchesAndJointTorques</text>
<text text-anchor="middle" x="344.5" y="-74.5" font-family="FreeSans.ttf" font-size="10.00" fill="#000000">Estimator.h</text>
</a>
</g>
</g>
<!-- Node4&#45;&gt;Node8 -->
<g id="edge4" class="edge">
<title>Node4&#45;&gt;Node8</title>
<path fill="none" stroke="#191970" d="M491.0591,-131.221C461.5787,-121.4207 420.8115,-107.8684 389.7561,-97.5446"/>
<polygon fill="#191970" stroke="#191970" points="490.0002,-134.5573 500.5938,-134.3906 492.2085,-127.9147 490.0002,-134.5573"/>
</g>
<!-- Node10 -->
<g id="node7" class="node">
<title>Node10</title>
<g id="a_node7"><a xlink:href="ExternalWrenchesEstimation_8cpp.html" target="_top" xlink:title="ExternalWrenchesEstimation.cpp">
<polygon fill="none" stroke="#000000" points="441,-73 441,-92 618,-92 618,-73 441,-73"/>
<text text-anchor="middle" x="529.5" y="-80" font-family="FreeSans.ttf" font-size="10.00" fill="#000000">ExternalWrenchesEstimation.cpp</text>
</a>
</g>
</g>
<!-- Node4&#45;&gt;Node10 -->
<g id="edge6" class="edge">
<title>Node4&#45;&gt;Node10</title>
<path fill="none" stroke="#191970" d="M529.5,-124.2462C529.5,-113.5519 529.5,-100.814 529.5,-92.2449"/>
<polygon fill="#191970" stroke="#191970" points="526.0001,-124.3906 529.5,-134.3906 533.0001,-124.3907 526.0001,-124.3906"/>
</g>
<!-- Node11 -->
<g id="node8" class="node">
<title>Node11</title>
<g id="a_node8"><a xlink:href="KinDynComputations_8cpp.html" target="_top" xlink:title="KinDynComputations.cpp">
<polygon fill="none" stroke="#000000" points="636.5,-73 636.5,-92 776.5,-92 776.5,-73 636.5,-73"/>
<text text-anchor="middle" x="706.5" y="-80" font-family="FreeSans.ttf" font-size="10.00" fill="#000000">KinDynComputations.cpp</text>
</a>
</g>
</g>
<!-- Node4&#45;&gt;Node11 -->
<g id="edge7" class="edge">
<title>Node4&#45;&gt;Node11</title>
<path fill="none" stroke="#191970" d="M566.6244,-131.1009C600.1947,-119.4366 648.8521,-102.5302 679.038,-92.0419"/>
<polygon fill="#191970" stroke="#191970" points="565.4535,-127.8023 557.1563,-134.3906 567.7511,-134.4146 565.4535,-127.8023"/>
</g>
<!-- Node12 -->
<g id="node9" class="node">
<title>Node12</title>
<g id="a_node9"><a xlink:href="LinkTraversalsCache_8cpp.html" target="_top" xlink:title="LinkTraversalsCache.cpp">
<polygon fill="none" stroke="#000000" points="795,-73 795,-92 932,-92 932,-73 795,-73"/>
<text text-anchor="middle" x="863.5" y="-80" font-family="FreeSans.ttf" font-size="10.00" fill="#000000">LinkTraversalsCache.cpp</text>
</a>
</g>
</g>
<!-- Node4&#45;&gt;Node12 -->
<g id="edge8" class="edge">
<title>Node4&#45;&gt;Node12</title>
<path fill="none" stroke="#191970" d="M594.5315,-132.6545C646.3109,-123.539 720.61,-110.2763 785.5,-98 795.403,-96.1265 806.0008,-94.0611 816.0917,-92.0656"/>
<polygon fill="#191970" stroke="#191970" points="593.7282,-129.242 584.4854,-134.4208 594.9404,-136.1362 593.7282,-129.242"/>
</g>
<!-- Node6 -->
<g id="node3" class="node">
<title>Node6</title>
<g id="a_node3"><a xlink:href="BerdyHelper_8cpp.html" target="_top" xlink:title="BerdyHelper.cpp">
<polygon fill="none" stroke="#000000" points="0,-6 0,-25 97,-25 97,-6 0,-6"/>
<text text-anchor="middle" x="48.5" y="-13" font-family="FreeSans.ttf" font-size="10.00" fill="#000000">BerdyHelper.cpp</text>
</a>
</g>
</g>
<!-- Node5&#45;&gt;Node6 -->
<g id="edge2" class="edge">
<title>Node5&#45;&gt;Node6</title>
<path fill="none" stroke="#191970" d="M160.1892,-68.5722C132.796,-55.5555 92.6246,-36.467 68.6644,-25.0817"/>
<polygon fill="#191970" stroke="#191970" points="158.7638,-71.7699 169.2981,-72.9005 161.7681,-65.4473 158.7638,-71.7699"/>
</g>
<!-- Node7 -->
<g id="node4" class="node">
<title>Node7</title>
<g id="a_node4"><a xlink:href="BerdySparseMAPSolver_8cpp.html" target="_top" xlink:title="BerdySparseMAPSolver.cpp">
<polygon fill="none" stroke="#000000" points="115,-6 115,-25 264,-25 264,-6 115,-6"/>
<text text-anchor="middle" x="189.5" y="-13" font-family="FreeSans.ttf" font-size="10.00" fill="#000000">BerdySparseMAPSolver.cpp</text>
</a>
</g>
</g>
<!-- Node5&#45;&gt;Node7 -->
<g id="edge3" class="edge">
<title>Node5&#45;&gt;Node7</title>
<path fill="none" stroke="#191970" d="M189.5,-62.6079C189.5,-50.214 189.5,-34.8263 189.5,-25.0817"/>
<polygon fill="#191970" stroke="#191970" points="186.0001,-62.9005 189.5,-72.9005 193.0001,-62.9006 186.0001,-62.9005"/>
</g>
<!-- Node9 -->
<g id="node6" class="node">
<title>Node9</title>
<g id="a_node6"><a xlink:href="ExtWrenchesAndJointTorquesEstimator_8cpp.html" target="_top" xlink:title="ExtWrenchesAndJointTorques\lEstimator.cpp">
<polygon fill="none" stroke="#000000" points="281.5,-.5 281.5,-30.5 439.5,-30.5 439.5,-.5 281.5,-.5"/>
<text text-anchor="start" x="289.5" y="-18.5" font-family="FreeSans.ttf" font-size="10.00" fill="#000000">ExtWrenchesAndJointTorques</text>
<text text-anchor="middle" x="360.5" y="-7.5" font-family="FreeSans.ttf" font-size="10.00" fill="#000000">Estimator.cpp</text>
</a>
</g>
</g>
<!-- Node8&#45;&gt;Node9 -->
<g id="edge5" class="edge">
<title>Node8&#45;&gt;Node9</title>
<path fill="none" stroke="#191970" d="M350.5136,-57.3179C352.6573,-48.3414 355.0041,-38.5143 356.8837,-30.6432"/>
<polygon fill="#191970" stroke="#191970" points="347.0492,-56.7572 348.1306,-67.2967 353.8577,-58.3831 347.0492,-56.7572"/>
</g>
</g>
</svg>
