<?xml version="1.0" encoding="UTF-8" standalone="no"?>
<!DOCTYPE svg PUBLIC "-//W3C//DTD SVG 1.1//EN"
 "http://www.w3.org/Graphics/SVG/1.1/DTD/svg11.dtd">
<!-- Generated by graphviz version 2.40.1 (20161225.0304)
 -->
<!-- Title: MatrixFixSize.h Pages: 1 -->
<svg width="480pt" height="140pt"
 viewBox="0.00 0.00 479.50 140.00" xmlns="http://www.w3.org/2000/svg" xmlns:xlink="http://www.w3.org/1999/xlink">
<g id="graph0" class="graph" transform="scale(1 1) rotate(0) translate(4 136)">
<title>MatrixFixSize.h</title>
<!-- Node0 -->
<g id="node1" class="node">
<title>Node0</title>
<polygon fill="#bfbfbf" stroke="#000000" points="219.5,-112.5 219.5,-131.5 309.5,-131.5 309.5,-112.5 219.5,-112.5"/>
<text text-anchor="middle" x="264.5" y="-119.5" font-family="FreeSans.ttf" font-size="10.00" fill="#000000">MatrixFixSize.h</text>
</g>
<!-- Node1 -->
<g id="node2" class="node">
<title>Node1</title>
<g id="a_node2"><a xlink:href="Utils_8h.html" target="_top" xlink:title="iDynTree/Core/Utils.h">
<polygon fill="none" stroke="#000000" points="0,-56.5 0,-75.5 119,-75.5 119,-56.5 0,-56.5"/>
<text text-anchor="middle" x="59.5" y="-63.5" font-family="FreeSans.ttf" font-size="10.00" fill="#000000">iDynTree/Core/Utils.h</text>
</a>
</g>
</g>
<!-- Node0&#45;&gt;Node1 -->
<g id="edge1" class="edge">
<title>Node0&#45;&gt;Node1</title>
<path fill="none" stroke="#191970" d="M229.2592,-112.3733C194.5806,-102.9001 141.5117,-88.4032 103.9538,-78.1435"/>
<polygon fill="#191970" stroke="#191970" points="104.8498,-74.7601 94.2809,-75.5011 103.0051,-81.5126 104.8498,-74.7601"/>
</g>
<!-- Node3 -->
<g id="node4" class="node">
<title>Node3</title>
<polygon fill="none" stroke="#bfbfbf" points="137.5,-56.5 137.5,-75.5 189.5,-75.5 189.5,-56.5 137.5,-56.5"/>
<text text-anchor="middle" x="163.5" y="-63.5" font-family="FreeSans.ttf" font-size="10.00" fill="#000000">cassert</text>
</g>
<!-- Node0&#45;&gt;Node3 -->
<g id="edge3" class="edge">
<title>Node0&#45;&gt;Node3</title>
<path fill="none" stroke="#191970" d="M246.9071,-112.2455C231.121,-103.4928 207.7361,-90.527 189.7413,-80.5496"/>
<polygon fill="#191970" stroke="#191970" points="191.3341,-77.4308 180.8913,-75.6427 187.9397,-83.5528 191.3341,-77.4308"/>
</g>
<!-- Node4 -->
<g id="node5" class="node">
<title>Node4</title>
<polygon fill="none" stroke="#bfbfbf" points="207.5,-56.5 207.5,-75.5 257.5,-75.5 257.5,-56.5 207.5,-56.5"/>
<text text-anchor="middle" x="232.5" y="-63.5" font-family="FreeSans.ttf" font-size="10.00" fill="#000000">cstring</text>
</g>
<!-- Node0&#45;&gt;Node4 -->
<g id="edge4" class="edge">
<title>Node0&#45;&gt;Node4</title>
<path fill="none" stroke="#191970" d="M258.926,-112.2455C254.5669,-104.617 248.3789,-93.7881 243.0867,-84.5267"/>
<polygon fill="#191970" stroke="#191970" points="246.0104,-82.5886 238.0101,-75.6427 239.9327,-86.0616 246.0104,-82.5886"/>
</g>
<!-- Node5 -->
<g id="node6" class="node">
<title>Node5</title>
<polygon fill="none" stroke="#bfbfbf" points="275.5,-56.5 275.5,-75.5 319.5,-75.5 319.5,-56.5 275.5,-56.5"/>
<text text-anchor="middle" x="297.5" y="-63.5" font-family="FreeSans.ttf" font-size="10.00" fill="#000000">string</text>
</g>
<!-- Node0&#45;&gt;Node5 -->
<g id="edge5" class="edge">
<title>Node0&#45;&gt;Node5</title>
<path fill="none" stroke="#191970" d="M270.2482,-112.2455C274.7435,-104.617 281.1248,-93.7881 286.5825,-84.5267"/>
<polygon fill="#191970" stroke="#191970" points="289.7561,-86.035 291.8177,-75.6427 283.7253,-82.4811 289.7561,-86.035"/>
</g>
<!-- Node6 -->
<g id="node7" class="node">
<title>Node6</title>
<polygon fill="none" stroke="#bfbfbf" points="337.5,-56.5 337.5,-75.5 397.5,-75.5 397.5,-56.5 337.5,-56.5"/>
<text text-anchor="middle" x="367.5" y="-63.5" font-family="FreeSans.ttf" font-size="10.00" fill="#000000">iostream</text>
</g>
<!-- Node0&#45;&gt;Node6 -->
<g id="edge6" class="edge">
<title>Node0&#45;&gt;Node6</title>
<path fill="none" stroke="#191970" d="M282.4412,-112.2455C298.54,-103.4928 322.3879,-90.527 340.7391,-80.5496"/>
<polygon fill="#191970" stroke="#191970" points="342.6507,-83.4942 349.7644,-75.6427 339.3071,-77.3444 342.6507,-83.4942"/>
</g>
<!-- Node7 -->
<g id="node8" class="node">
<title>Node7</title>
<polygon fill="none" stroke="#bfbfbf" points="415.5,-56.5 415.5,-75.5 471.5,-75.5 471.5,-56.5 415.5,-56.5"/>
<text text-anchor="middle" x="443.5" y="-63.5" font-family="FreeSans.ttf" font-size="10.00" fill="#000000">sstream</text>
</g>
<!-- Node0&#45;&gt;Node7 -->
<g id="edge7" class="edge">
<title>Node0&#45;&gt;Node7</title>
<path fill="none" stroke="#191970" d="M295.2712,-112.3733C325.8897,-102.7943 372.9267,-88.0788 405.7778,-77.8014"/>
<polygon fill="#191970" stroke="#191970" points="406.9848,-81.0911 415.4836,-74.7649 404.8947,-74.4104 406.9848,-81.0911"/>
</g>
<!-- Node2 -->
<g id="node3" class="node">
<title>Node2</title>
<polygon fill="none" stroke="#bfbfbf" points="33,-.5 33,-19.5 86,-19.5 86,-.5 33,-.5"/>
<text text-anchor="middle" x="59.5" y="-7.5" font-family="FreeSans.ttf" font-size="10.00" fill="#000000">cstddef</text>
</g>
<!-- Node1&#45;&gt;Node2 -->
<g id="edge2" class="edge">
<title>Node1&#45;&gt;Node2</title>
<path fill="none" stroke="#191970" d="M59.5,-56.2455C59.5,-48.9382 59.5,-38.6944 59.5,-29.7046"/>
<polygon fill="#191970" stroke="#191970" points="63.0001,-29.6426 59.5,-19.6427 56.0001,-29.6427 63.0001,-29.6426"/>
</g>
</g>
</svg>
