<?xml version="1.0" encoding="UTF-8" standalone="no"?>
<!DOCTYPE svg PUBLIC "-//W3C//DTD SVG 1.1//EN"
 "http://www.w3.org/Graphics/SVG/1.1/DTD/svg11.dtd">
<!-- Generated by graphviz version 2.40.1 (20161225.0304)
 -->
<!-- Title: MotionVector3.h Pages: 1 -->
<svg width="786pt" height="375pt"
 viewBox="0.00 0.00 785.98 375.00" xmlns="http://www.w3.org/2000/svg" xmlns:xlink="http://www.w3.org/1999/xlink">
<g id="graph0" class="graph" transform="scale(1 1) rotate(0) translate(4 371)">
<title>MotionVector3.h</title>
<!-- Node0 -->
<g id="node1" class="node">
<title>Node0</title>
<polygon fill="#bfbfbf" stroke="#000000" points="485.4819,-347.5 485.4819,-366.5 580.4819,-366.5 580.4819,-347.5 485.4819,-347.5"/>
<text text-anchor="middle" x="532.9819" y="-354.5" font-family="FreeSans.ttf" font-size="10.00" fill="#000000">MotionVector3.h</text>
</g>
<!-- Node1 -->
<g id="node2" class="node">
<title>Node1</title>
<g id="a_node2"><a xlink:href="GeomVector3_8h.html" target="_top" xlink:title="iDynTree/Core/GeomVector3.h">
<polygon fill="none" stroke="#000000" points="396.4819,-291.5 396.4819,-310.5 559.4819,-310.5 559.4819,-291.5 396.4819,-291.5"/>
<text text-anchor="middle" x="477.9819" y="-298.5" font-family="FreeSans.ttf" font-size="10.00" fill="#000000">iDynTree/Core/GeomVector3.h</text>
</a>
</g>
</g>
<!-- Node0&#45;&gt;Node1 -->
<g id="edge1" class="edge">
<title>Node0&#45;&gt;Node1</title>
<path fill="none" stroke="#191970" d="M523.4016,-347.2455C515.4361,-339.1352 503.9179,-327.4075 494.474,-317.7919"/>
<polygon fill="#191970" stroke="#191970" points="496.9566,-315.3247 487.4524,-310.6427 491.9624,-320.2297 496.9566,-315.3247"/>
</g>
<!-- Node22 -->
<g id="node23" class="node">
<title>Node22</title>
<g id="a_node23"><a xlink:href="PrivateMotionForceVertorAssociations_8h.html" target="_top" xlink:title="iDynTree/Core/PrivateMotion\lForceVertorAssociations.h">
<polygon fill="none" stroke="#000000" points="510.4819,-224.5 510.4819,-254.5 665.4819,-254.5 665.4819,-224.5 510.4819,-224.5"/>
<text text-anchor="start" x="518.4819" y="-242.5" font-family="FreeSans.ttf" font-size="10.00" fill="#000000">iDynTree/Core/PrivateMotion</text>
<text text-anchor="middle" x="587.9819" y="-231.5" font-family="FreeSans.ttf" font-size="10.00" fill="#000000">ForceVertorAssociations.h</text>
</a>
</g>
</g>
<!-- Node0&#45;&gt;Node22 -->
<g id="edge36" class="edge">
<title>Node0&#45;&gt;Node22</title>
<path fill="none" stroke="#191970" d="M542.5776,-347.2251C550.7092,-338.4286 562.1127,-324.7991 568.9819,-311 576.2341,-296.4315 580.9619,-278.7693 583.8875,-264.6444"/>
<polygon fill="#191970" stroke="#191970" points="587.3597,-265.1196 585.7854,-254.6424 580.4824,-263.8145 587.3597,-265.1196"/>
</g>
<!-- Node2 -->
<g id="node3" class="node">
<title>Node2</title>
<g id="a_node3"><a xlink:href="VectorFixSize_8h.html" target="_top" xlink:title="iDynTree/Core/VectorFixSize.h">
<polygon fill="none" stroke="#000000" points="475.4819,-112.5 475.4819,-131.5 636.4819,-131.5 636.4819,-112.5 475.4819,-112.5"/>
<text text-anchor="middle" x="555.9819" y="-119.5" font-family="FreeSans.ttf" font-size="10.00" fill="#000000">iDynTree/Core/VectorFixSize.h</text>
</a>
</g>
</g>
<!-- Node1&#45;&gt;Node2 -->
<g id="edge2" class="edge">
<title>Node1&#45;&gt;Node2</title>
<path fill="none" stroke="#191970" d="M480.3833,-291.3153C484.1886,-276.5196 492.1866,-247.5266 501.9819,-224 514.6232,-193.6379 533.2536,-160.2779 544.9961,-140.2464"/>
<polygon fill="#191970" stroke="#191970" points="548.06,-141.9415 550.1508,-131.555 542.0393,-138.3706 548.06,-141.9415"/>
</g>
<!-- Node3 -->
<g id="node4" class="node">
<title>Node3</title>
<g id="a_node4"><a xlink:href="Utils_8h.html" target="_top" xlink:title="iDynTree/Core/Utils.h">
<polygon fill="none" stroke="#000000" points="75.4819,-56.5 75.4819,-75.5 194.4819,-75.5 194.4819,-56.5 75.4819,-56.5"/>
<text text-anchor="middle" x="134.9819" y="-63.5" font-family="FreeSans.ttf" font-size="10.00" fill="#000000">iDynTree/Core/Utils.h</text>
</a>
</g>
</g>
<!-- Node1&#45;&gt;Node3 -->
<g id="edge35" class="edge">
<title>Node1&#45;&gt;Node3</title>
<path fill="none" stroke="#191970" d="M412.18,-291.4883C368.0987,-284.0745 309.1685,-272.1343 258.9819,-255 140.2806,-214.4741 71.5986,-238.2758 4.9819,-132 -13.5228,-102.4788 25.4577,-85.6228 65.4541,-76.3469"/>
<polygon fill="#191970" stroke="#191970" points="66.3054,-79.7438 75.3366,-74.2042 64.8221,-72.9027 66.3054,-79.7438"/>
</g>
<!-- Node17 -->
<g id="node18" class="node">
<title>Node17</title>
<g id="a_node18"><a xlink:href="Rotation_8h.html" target="_top" xlink:title="iDynTree/Core/Rotation.h">
<polygon fill="none" stroke="#000000" points="268.4819,-230 268.4819,-249 405.4819,-249 405.4819,-230 268.4819,-230"/>
<text text-anchor="middle" x="336.9819" y="-237" font-family="FreeSans.ttf" font-size="10.00" fill="#000000">iDynTree/Core/Rotation.h</text>
</a>
</g>
</g>
<!-- Node1&#45;&gt;Node17 -->
<g id="edge19" class="edge">
<title>Node1&#45;&gt;Node17</title>
<path fill="none" stroke="#191970" d="M455.9507,-291.3906C432.3588,-281.1005 394.7318,-264.6888 368.1186,-253.0809"/>
<polygon fill="#191970" stroke="#191970" points="369.4238,-249.8318 358.8585,-249.0419 366.6252,-256.248 369.4238,-249.8318"/>
</g>
<!-- Node1&#45;&gt;Node22 -->
<g id="edge34" class="edge">
<title>Node1&#45;&gt;Node22</title>
<path fill="none" stroke="#191970" d="M495.1694,-291.3906C510.4012,-282.8747 533.1322,-270.166 552.2859,-259.4573"/>
<polygon fill="#191970" stroke="#191970" points="554.0524,-262.4796 561.0729,-254.5446 550.6364,-256.3697 554.0524,-262.4796"/>
</g>
<!-- Node2&#45;&gt;Node3 -->
<g id="edge3" class="edge">
<title>Node2&#45;&gt;Node3</title>
<path fill="none" stroke="#191970" d="M480.7525,-112.4781C411.7521,-103.6737 306.4329,-90.0576 204.9388,-76.1171"/>
<polygon fill="#191970" stroke="#191970" points="205.1977,-72.6198 194.8138,-74.7235 204.2431,-79.5544 205.1977,-72.6198"/>
</g>
<!-- Node5 -->
<g id="node6" class="node">
<title>Node5</title>
<g id="a_node6"><a xlink:href="Span_8h.html" target="_top" xlink:title="iDynTree/Core/Span.h">
<polygon fill="none" stroke="#000000" points="495.4819,-56.5 495.4819,-75.5 616.4819,-75.5 616.4819,-56.5 495.4819,-56.5"/>
<text text-anchor="middle" x="555.9819" y="-63.5" font-family="FreeSans.ttf" font-size="10.00" fill="#000000">iDynTree/Core/Span.h</text>
</a>
</g>
</g>
<!-- Node2&#45;&gt;Node5 -->
<g id="edge5" class="edge">
<title>Node2&#45;&gt;Node5</title>
<path fill="none" stroke="#191970" d="M555.9819,-112.2455C555.9819,-104.9382 555.9819,-94.6944 555.9819,-85.7046"/>
<polygon fill="#191970" stroke="#191970" points="559.482,-85.6426 555.9819,-75.6427 552.482,-85.6427 559.482,-85.6426"/>
</g>
<!-- Node6 -->
<g id="node7" class="node">
<title>Node6</title>
<polygon fill="none" stroke="#bfbfbf" points="725.9819,-.5 725.9819,-19.5 777.9819,-19.5 777.9819,-.5 725.9819,-.5"/>
<text text-anchor="middle" x="751.9819" y="-7.5" font-family="FreeSans.ttf" font-size="10.00" fill="#000000">cassert</text>
</g>
<!-- Node2&#45;&gt;Node6 -->
<g id="edge17" class="edge">
<title>Node2&#45;&gt;Node6</title>
<path fill="none" stroke="#191970" d="M603.7253,-112.4181C631.38,-105.3498 665.9562,-93.8085 692.9819,-76 712.1119,-63.3944 728.9677,-43.0917 739.7117,-28.3294"/>
<polygon fill="#191970" stroke="#191970" points="742.6973,-30.1681 745.5774,-19.9722 736.9677,-26.1467 742.6973,-30.1681"/>
</g>
<!-- Node14 -->
<g id="node15" class="node">
<title>Node14</title>
<polygon fill="none" stroke="#bfbfbf" points="212.9819,-56.5 212.9819,-75.5 256.9819,-75.5 256.9819,-56.5 212.9819,-56.5"/>
<text text-anchor="middle" x="234.9819" y="-63.5" font-family="FreeSans.ttf" font-size="10.00" fill="#000000">string</text>
</g>
<!-- Node2&#45;&gt;Node14 -->
<g id="edge15" class="edge">
<title>Node2&#45;&gt;Node14</title>
<path fill="none" stroke="#191970" d="M475.3169,-112.61C419.2793,-105.2988 342.7978,-93.7583 267.3676,-76.0499"/>
<polygon fill="#191970" stroke="#191970" points="267.7553,-72.5442 257.216,-73.6272 266.1303,-79.353 267.7553,-72.5442"/>
</g>
<!-- Node15 -->
<g id="node16" class="node">
<title>Node15</title>
<polygon fill="none" stroke="#bfbfbf" points="420.9819,-56.5 420.9819,-75.5 476.9819,-75.5 476.9819,-56.5 420.9819,-56.5"/>
<text text-anchor="middle" x="448.9819" y="-63.5" font-family="FreeSans.ttf" font-size="10.00" fill="#000000">sstream</text>
</g>
<!-- Node2&#45;&gt;Node15 -->
<g id="edge16" class="edge">
<title>Node2&#45;&gt;Node15</title>
<path fill="none" stroke="#191970" d="M537.3439,-112.2455C520.5433,-103.4527 495.6185,-90.4079 476.5201,-80.4125"/>
<polygon fill="#191970" stroke="#191970" points="477.8892,-77.1787 467.4063,-75.6427 474.6433,-83.3807 477.8892,-77.1787"/>
</g>
<!-- Node16 -->
<g id="node17" class="node">
<title>Node16</title>
<polygon fill="none" stroke="#bfbfbf" points="352.9819,-56.5 352.9819,-75.5 402.9819,-75.5 402.9819,-56.5 352.9819,-56.5"/>
<text text-anchor="middle" x="377.9819" y="-63.5" font-family="FreeSans.ttf" font-size="10.00" fill="#000000">cstring</text>
</g>
<!-- Node2&#45;&gt;Node16 -->
<g id="edge18" class="edge">
<title>Node2&#45;&gt;Node16</title>
<path fill="none" stroke="#191970" d="M525.3826,-112.3733C494.0343,-102.5109 445.379,-87.2036 412.6318,-76.9011"/>
<polygon fill="#191970" stroke="#191970" points="413.6058,-73.5384 403.0163,-73.876 411.505,-80.2158 413.6058,-73.5384"/>
</g>
<!-- Node4 -->
<g id="node5" class="node">
<title>Node4</title>
<polygon fill="none" stroke="#bfbfbf" points="132.4819,-.5 132.4819,-19.5 185.4819,-19.5 185.4819,-.5 132.4819,-.5"/>
<text text-anchor="middle" x="158.9819" y="-7.5" font-family="FreeSans.ttf" font-size="10.00" fill="#000000">cstddef</text>
</g>
<!-- Node3&#45;&gt;Node4 -->
<g id="edge4" class="edge">
<title>Node3&#45;&gt;Node4</title>
<path fill="none" stroke="#191970" d="M139.1624,-56.2455C142.3629,-48.7776 146.8779,-38.2427 150.7903,-29.1137"/>
<polygon fill="#191970" stroke="#191970" points="154.1271,-30.2129 154.8493,-19.6427 147.6931,-27.4554 154.1271,-30.2129"/>
</g>
<!-- Node5&#45;&gt;Node4 -->
<g id="edge9" class="edge">
<title>Node5&#45;&gt;Node4</title>
<path fill="none" stroke="#191970" d="M495.2826,-57.2773C492.1377,-56.8414 489.023,-56.4134 485.9819,-56 362.0934,-39.1588 330.2734,-40.7654 206.9819,-20 203.2807,-19.3766 199.4304,-18.6713 195.5923,-17.9308"/>
<polygon fill="#191970" stroke="#191970" points="196.0647,-14.4559 185.5716,-15.9204 194.6878,-21.3191 196.0647,-14.4559"/>
</g>
<!-- Node5&#45;&gt;Node6 -->
<g id="edge6" class="edge">
<title>Node5&#45;&gt;Node6</title>
<path fill="none" stroke="#191970" d="M589.6755,-56.3733C624.9917,-46.2829 680.2561,-30.4931 716.2998,-20.1949"/>
<polygon fill="#191970" stroke="#191970" points="717.2701,-23.5578 725.9238,-17.4452 715.347,-16.8271 717.2701,-23.5578"/>
</g>
<!-- Node7 -->
<g id="node8" class="node">
<title>Node7</title>
<polygon fill="none" stroke="#bfbfbf" points="511.9819,-.5 511.9819,-19.5 575.9819,-19.5 575.9819,-.5 511.9819,-.5"/>
<text text-anchor="middle" x="543.9819" y="-7.5" font-family="FreeSans.ttf" font-size="10.00" fill="#000000">algorithm</text>
</g>
<!-- Node5&#45;&gt;Node7 -->
<g id="edge7" class="edge">
<title>Node5&#45;&gt;Node7</title>
<path fill="none" stroke="#191970" d="M553.8917,-56.2455C552.3258,-48.9382 550.1307,-38.6944 548.2043,-29.7046"/>
<polygon fill="#191970" stroke="#191970" points="551.5659,-28.6873 546.0482,-19.6427 544.7213,-30.1541 551.5659,-28.6873"/>
</g>
<!-- Node8 -->
<g id="node9" class="node">
<title>Node8</title>
<polygon fill="none" stroke="#bfbfbf" points="593.9819,-.5 593.9819,-19.5 635.9819,-19.5 635.9819,-.5 593.9819,-.5"/>
<text text-anchor="middle" x="614.9819" y="-7.5" font-family="FreeSans.ttf" font-size="10.00" fill="#000000">array</text>
</g>
<!-- Node5&#45;&gt;Node8 -->
<g id="edge8" class="edge">
<title>Node5&#45;&gt;Node8</title>
<path fill="none" stroke="#191970" d="M566.2589,-56.2455C574.8037,-48.1352 587.1597,-36.4075 597.2904,-26.7919"/>
<polygon fill="#191970" stroke="#191970" points="599.9791,-29.0655 604.8227,-19.6427 595.1601,-23.9884 599.9791,-29.0655"/>
</g>
<!-- Node9 -->
<g id="node10" class="node">
<title>Node9</title>
<polygon fill="none" stroke="#bfbfbf" points="654.4819,-.5 654.4819,-19.5 707.4819,-19.5 707.4819,-.5 654.4819,-.5"/>
<text text-anchor="middle" x="680.9819" y="-7.5" font-family="FreeSans.ttf" font-size="10.00" fill="#000000">iterator</text>
</g>
<!-- Node5&#45;&gt;Node9 -->
<g id="edge10" class="edge">
<title>Node5&#45;&gt;Node9</title>
<path fill="none" stroke="#191970" d="M577.4702,-56.3733C597.6259,-47.3435 627.97,-33.7494 650.6,-23.6111"/>
<polygon fill="#191970" stroke="#191970" points="652.079,-26.7838 659.774,-19.5011 649.217,-20.3955 652.079,-26.7838"/>
</g>
<!-- Node10 -->
<g id="node11" class="node">
<title>Node10</title>
<polygon fill="none" stroke="#bfbfbf" points="215.9819,-.5 215.9819,-19.5 259.9819,-19.5 259.9819,-.5 215.9819,-.5"/>
<text text-anchor="middle" x="237.9819" y="-7.5" font-family="FreeSans.ttf" font-size="10.00" fill="#000000">limits</text>
</g>
<!-- Node5&#45;&gt;Node10 -->
<g id="edge11" class="edge">
<title>Node5&#45;&gt;Node10</title>
<path fill="none" stroke="#191970" d="M495.4113,-56.7981C424.4389,-45.9442 312.0424,-28.5095 270.0891,-19.8269"/>
<polygon fill="#191970" stroke="#191970" points="270.7394,-16.386 260.217,-17.6228 269.214,-23.2178 270.7394,-16.386"/>
</g>
<!-- Node11 -->
<g id="node12" class="node">
<title>Node11</title>
<polygon fill="none" stroke="#bfbfbf" points="278.4819,-.5 278.4819,-19.5 343.4819,-19.5 343.4819,-.5 278.4819,-.5"/>
<text text-anchor="middle" x="310.9819" y="-7.5" font-family="FreeSans.ttf" font-size="10.00" fill="#000000">stdexcept</text>
</g>
<!-- Node5&#45;&gt;Node11 -->
<g id="edge12" class="edge">
<title>Node5&#45;&gt;Node11</title>
<path fill="none" stroke="#191970" d="M512.5544,-56.4378C473.4004,-47.765 413.9769,-34.4754 353.7125,-20.3813"/>
<polygon fill="#191970" stroke="#191970" points="354.1782,-16.8956 343.6433,-18.0206 352.5804,-23.7108 354.1782,-16.8956"/>
</g>
<!-- Node12 -->
<g id="node13" class="node">
<title>Node12</title>
<polygon fill="none" stroke="#bfbfbf" points="361.4819,-.5 361.4819,-19.5 430.4819,-19.5 430.4819,-.5 361.4819,-.5"/>
<text text-anchor="middle" x="395.9819" y="-7.5" font-family="FreeSans.ttf" font-size="10.00" fill="#000000">type_traits</text>
</g>
<!-- Node5&#45;&gt;Node12 -->
<g id="edge13" class="edge">
<title>Node5&#45;&gt;Node12</title>
<path fill="none" stroke="#191970" d="M528.4769,-56.3733C502.1017,-47.1419 462.0968,-33.1402 432.9461,-22.9375"/>
<polygon fill="#191970" stroke="#191970" points="433.7228,-19.5012 423.128,-19.5011 431.4103,-26.1082 433.7228,-19.5012"/>
</g>
<!-- Node13 -->
<g id="node14" class="node">
<title>Node13</title>
<polygon fill="none" stroke="#bfbfbf" points="448.4819,-.5 448.4819,-19.5 493.4819,-19.5 493.4819,-.5 448.4819,-.5"/>
<text text-anchor="middle" x="470.9819" y="-7.5" font-family="FreeSans.ttf" font-size="10.00" fill="#000000">utility</text>
</g>
<!-- Node5&#45;&gt;Node13 -->
<g id="edge14" class="edge">
<title>Node5&#45;&gt;Node13</title>
<path fill="none" stroke="#191970" d="M541.176,-56.2455C528.2563,-47.7337 509.2888,-35.2375 494.3267,-25.3801"/>
<polygon fill="#191970" stroke="#191970" points="495.8943,-22.2216 485.6181,-19.6427 492.0432,-28.067 495.8943,-22.2216"/>
</g>
<!-- Node17&#45;&gt;Node2 -->
<g id="edge33" class="edge">
<title>Node17&#45;&gt;Node2</title>
<path fill="none" stroke="#191970" d="M354.3042,-229.9167C379.3265,-216.103 427.0741,-189.8533 467.9819,-168 488.1244,-157.2397 510.9842,-145.2984 528.3556,-136.2794"/>
<polygon fill="#191970" stroke="#191970" points="530.1229,-139.3057 537.3897,-131.5957 526.901,-133.0912 530.1229,-139.3057"/>
</g>
<!-- Node17&#45;&gt;Node14 -->
<g id="edge20" class="edge">
<title>Node17&#45;&gt;Node14</title>
<path fill="none" stroke="#191970" d="M307.0609,-229.9769C287.2094,-222.0231 262.4206,-208.6114 248.9819,-188 228.5944,-156.7309 229.5458,-111.1653 232.1837,-85.4863"/>
<polygon fill="#191970" stroke="#191970" points="235.6648,-85.8538 233.402,-75.5034 228.7163,-85.0058 235.6648,-85.8538"/>
</g>
<!-- Node18 -->
<g id="node19" class="node">
<title>Node18</title>
<g id="a_node19"><a xlink:href="RotationRaw_8h.html" target="_top" xlink:title="iDynTree/Core/RotationRaw.h">
<polygon fill="none" stroke="#000000" points="257.9819,-168.5 257.9819,-187.5 415.9819,-187.5 415.9819,-168.5 257.9819,-168.5"/>
<text text-anchor="middle" x="336.9819" y="-175.5" font-family="FreeSans.ttf" font-size="10.00" fill="#000000">iDynTree/Core/RotationRaw.h</text>
</a>
</g>
</g>
<!-- Node17&#45;&gt;Node18 -->
<g id="edge21" class="edge">
<title>Node17&#45;&gt;Node18</title>
<path fill="none" stroke="#191970" d="M336.9819,-229.8906C336.9819,-221.3657 336.9819,-208.6392 336.9819,-197.9235"/>
<polygon fill="#191970" stroke="#191970" points="340.482,-197.7448 336.9819,-187.7449 333.482,-197.7449 340.482,-197.7448"/>
</g>
<!-- Node21 -->
<g id="node22" class="node">
<title>Node21</title>
<g id="a_node22"><a xlink:href="RotationSemantics_8h.html" target="_top" xlink:title="iDynTree/Core/RotationSemantics.h">
<polygon fill="none" stroke="#000000" points="13.9819,-112.5 13.9819,-131.5 201.9819,-131.5 201.9819,-112.5 13.9819,-112.5"/>
<text text-anchor="middle" x="107.9819" y="-119.5" font-family="FreeSans.ttf" font-size="10.00" fill="#000000">iDynTree/Core/RotationSemantics.h</text>
</a>
</g>
</g>
<!-- Node17&#45;&gt;Node21 -->
<g id="edge30" class="edge">
<title>Node17&#45;&gt;Node21</title>
<path fill="none" stroke="#191970" d="M311.4615,-229.8964C286.6276,-220.2597 248.0529,-204.5124 215.9819,-188 185.5537,-172.3335 152.1744,-151.3001 130.6978,-137.2292"/>
<polygon fill="#191970" stroke="#191970" points="132.5391,-134.2508 122.2656,-131.661 128.6818,-140.0922 132.5391,-134.2508"/>
</g>
<!-- Node18&#45;&gt;Node14 -->
<g id="edge29" class="edge">
<title>Node18&#45;&gt;Node14</title>
<path fill="none" stroke="#191970" d="M325.3734,-168.258C314.9126,-159.2655 299.3261,-145.3259 286.9819,-132 272.6698,-116.5496 257.9618,-97.5345 247.8565,-83.8894"/>
<polygon fill="#191970" stroke="#191970" points="250.6602,-81.794 241.931,-75.7896 245.0106,-85.927 250.6602,-81.794"/>
</g>
<!-- Node19 -->
<g id="node20" class="node">
<title>Node19</title>
<g id="a_node20"><a xlink:href="MatrixFixSize_8h.html" target="_top" xlink:title="iDynTree/Core/MatrixFixSize.h">
<polygon fill="none" stroke="#000000" points="296.4819,-112.5 296.4819,-131.5 457.4819,-131.5 457.4819,-112.5 296.4819,-112.5"/>
<text text-anchor="middle" x="376.9819" y="-119.5" font-family="FreeSans.ttf" font-size="10.00" fill="#000000">iDynTree/Core/MatrixFixSize.h</text>
</a>
</g>
</g>
<!-- Node18&#45;&gt;Node19 -->
<g id="edge22" class="edge">
<title>Node18&#45;&gt;Node19</title>
<path fill="none" stroke="#191970" d="M343.9494,-168.2455C349.513,-160.4564 357.4599,-149.3308 364.1648,-139.9439"/>
<polygon fill="#191970" stroke="#191970" points="367.1299,-141.8144 370.0943,-131.6427 361.4338,-137.7457 367.1299,-141.8144"/>
</g>
<!-- Node19&#45;&gt;Node3 -->
<g id="edge23" class="edge">
<title>Node19&#45;&gt;Node3</title>
<path fill="none" stroke="#191970" d="M335.6556,-112.4369C294.2392,-102.8529 230.4042,-88.0812 185.8884,-77.78"/>
<polygon fill="#191970" stroke="#191970" points="186.6694,-74.3683 176.1378,-75.5237 185.0912,-81.1881 186.6694,-74.3683"/>
</g>
<!-- Node19&#45;&gt;Node6 -->
<g id="edge24" class="edge">
<title>Node19&#45;&gt;Node6</title>
<path fill="none" stroke="#191970" d="M440.5833,-112.4709C502.6713,-102.7695 592.5329,-87.5542 625.9819,-76 663.6503,-62.9883 703.8994,-40.153 728.5059,-25.0506"/>
<polygon fill="#191970" stroke="#191970" points="730.4946,-27.9353 737.1326,-19.6777 726.7939,-21.9935 730.4946,-27.9353"/>
</g>
<!-- Node19&#45;&gt;Node14 -->
<g id="edge26" class="edge">
<title>Node19&#45;&gt;Node14</title>
<path fill="none" stroke="#191970" d="M352.5712,-112.3733C328.8052,-103.0007 292.5698,-88.7107 266.6072,-78.472"/>
<polygon fill="#191970" stroke="#191970" points="267.794,-75.1777 257.2072,-74.7649 265.2259,-81.6896 267.794,-75.1777"/>
</g>
<!-- Node19&#45;&gt;Node15 -->
<g id="edge28" class="edge">
<title>Node19&#45;&gt;Node15</title>
<path fill="none" stroke="#191970" d="M389.5234,-112.2455C400.2606,-103.8943 415.9293,-91.7076 428.4866,-81.9408"/>
<polygon fill="#191970" stroke="#191970" points="430.8394,-84.5449 436.5842,-75.6427 426.5418,-79.0194 430.8394,-84.5449"/>
</g>
<!-- Node19&#45;&gt;Node16 -->
<g id="edge25" class="edge">
<title>Node19&#45;&gt;Node16</title>
<path fill="none" stroke="#191970" d="M377.1561,-112.2455C377.2866,-104.9382 377.4695,-94.6944 377.63,-85.7046"/>
<polygon fill="#191970" stroke="#191970" points="381.1305,-85.7036 377.8097,-75.6427 374.1316,-85.5786 381.1305,-85.7036"/>
</g>
<!-- Node20 -->
<g id="node21" class="node">
<title>Node20</title>
<polygon fill="none" stroke="#bfbfbf" points="274.9819,-56.5 274.9819,-75.5 334.9819,-75.5 334.9819,-56.5 274.9819,-56.5"/>
<text text-anchor="middle" x="304.9819" y="-63.5" font-family="FreeSans.ttf" font-size="10.00" fill="#000000">iostream</text>
</g>
<!-- Node19&#45;&gt;Node20 -->
<g id="edge27" class="edge">
<title>Node19&#45;&gt;Node20</title>
<path fill="none" stroke="#191970" d="M364.4405,-112.2455C353.7032,-103.8943 338.0346,-91.7076 325.4773,-81.9408"/>
<polygon fill="#191970" stroke="#191970" points="327.422,-79.0194 317.3796,-75.6427 323.1244,-84.5449 327.422,-79.0194"/>
</g>
<!-- Node21&#45;&gt;Node3 -->
<g id="edge32" class="edge">
<title>Node21&#45;&gt;Node3</title>
<path fill="none" stroke="#191970" d="M112.685,-112.2455C116.3243,-104.6973 121.4743,-94.0158 125.9081,-84.8197"/>
<polygon fill="#191970" stroke="#191970" points="129.1424,-86.1704 130.3328,-75.6427 122.837,-83.1303 129.1424,-86.1704"/>
</g>
<!-- Node21&#45;&gt;Node14 -->
<g id="edge31" class="edge">
<title>Node21&#45;&gt;Node14</title>
<path fill="none" stroke="#191970" d="M129.814,-112.3733C150.2922,-103.3435 181.1218,-89.7494 204.1138,-79.6111"/>
<polygon fill="#191970" stroke="#191970" points="205.6969,-82.7383 213.4347,-75.5011 202.8726,-76.3333 205.6969,-82.7383"/>
</g>
</g>
</svg>
