<?xml version="1.0" encoding="UTF-8" standalone="no"?>
<!DOCTYPE svg PUBLIC "-//W3C//DTD SVG 1.1//EN"
 "http://www.w3.org/Graphics/SVG/1.1/DTD/svg11.dtd">
<!-- Generated by graphviz version 2.40.1 (20161225.0304)
 -->
<!-- Title: ObserverThread.h Pages: 1 -->
<svg width="328pt" height="151pt"
 viewBox="0.00 0.00 327.50 151.00" xmlns="http://www.w3.org/2000/svg" xmlns:xlink="http://www.w3.org/1999/xlink">
<g id="graph0" class="graph" transform="scale(1 1) rotate(0) translate(4 147)">
<title>ObserverThread.h</title>
<!-- Node60 -->
<g id="node1" class="node">
<title>Node60</title>
<polygon fill="#bfbfbf" stroke="#000000" points="73.5,-123.5 73.5,-142.5 177.5,-142.5 177.5,-123.5 73.5,-123.5"/>
<text text-anchor="middle" x="125.5" y="-130.5" font-family="FreeSans.ttf" font-size="10.00" fill="#000000">ObserverThread.h</text>
</g>
<!-- Node61 -->
<g id="node2" class="node">
<title>Node61</title>
<g id="a_node2"><a xlink:href="ObserverThread_8cpp.html" target="_top" xlink:title="ObserverThread.cpp">
<polygon fill="none" stroke="#000000" points="0,-67.5 0,-86.5 115,-86.5 115,-67.5 0,-67.5"/>
<text text-anchor="middle" x="57.5" y="-74.5" font-family="FreeSans.ttf" font-size="10.00" fill="#000000">ObserverThread.cpp</text>
</a>
</g>
</g>
<!-- Node60&#45;&gt;Node61 -->
<g id="edge1" class="edge">
<title>Node60&#45;&gt;Node61</title>
<path fill="none" stroke="#191970" d="M105.6404,-116.645C93.8142,-106.9058 79.2108,-94.8795 69.209,-86.6427"/>
<polygon fill="#191970" stroke="#191970" points="103.711,-119.5902 113.6553,-123.2455 108.161,-114.1867 103.711,-119.5902"/>
</g>
<!-- Node62 -->
<g id="node3" class="node">
<title>Node62</title>
<g id="a_node3"><a xlink:href="qticubskinguiplugin_8h.html" target="_top" xlink:title="qticubskinguiplugin.h">
<polygon fill="none" stroke="#000000" points="133,-67.5 133,-86.5 254,-86.5 254,-67.5 133,-67.5"/>
<text text-anchor="middle" x="193.5" y="-74.5" font-family="FreeSans.ttf" font-size="10.00" fill="#000000">qticubskinguiplugin.h</text>
</a>
</g>
</g>
<!-- Node60&#45;&gt;Node62 -->
<g id="edge2" class="edge">
<title>Node60&#45;&gt;Node62</title>
<path fill="none" stroke="#191970" d="M145.3596,-116.645C157.1858,-106.9058 171.7892,-94.8795 181.791,-86.6427"/>
<polygon fill="#191970" stroke="#191970" points="142.839,-114.1867 137.3447,-123.2455 147.289,-119.5902 142.839,-114.1867"/>
</g>
<!-- Node63 -->
<g id="node4" class="node">
<title>Node63</title>
<g id="a_node4"><a xlink:href="qticubskinguiplugin_8cpp.html" target="_top" xlink:title="qticubskinguiplugin.cpp">
<polygon fill="none" stroke="#000000" points="57.5,-6 57.5,-25 189.5,-25 189.5,-6 57.5,-6"/>
<text text-anchor="middle" x="123.5" y="-13" font-family="FreeSans.ttf" font-size="10.00" fill="#000000">qticubskinguiplugin.cpp</text>
</a>
</g>
</g>
<!-- Node62&#45;&gt;Node63 -->
<g id="edge3" class="edge">
<title>Node62&#45;&gt;Node63</title>
<path fill="none" stroke="#191970" d="M174.7743,-60.5482C161.9485,-49.2798 145.3719,-34.716 134.5917,-25.2449"/>
<polygon fill="#191970" stroke="#191970" points="172.7399,-63.4197 182.5625,-67.3906 177.3601,-58.161 172.7399,-63.4197"/>
</g>
<!-- Node64 -->
<g id="node5" class="node">
<title>Node64</title>
<g id="a_node5"><a xlink:href="qticubskinguiplugin__plugin_8cpp.html" target="_top" xlink:title="qticubskinguiplugin\l_plugin.cpp">
<polygon fill="none" stroke="#000000" points="207.5,-.5 207.5,-30.5 319.5,-30.5 319.5,-.5 207.5,-.5"/>
<text text-anchor="start" x="215.5" y="-18.5" font-family="FreeSans.ttf" font-size="10.00" fill="#000000">qticubskinguiplugin</text>
<text text-anchor="middle" x="263.5" y="-7.5" font-family="FreeSans.ttf" font-size="10.00" fill="#000000">_plugin.cpp</text>
</a>
</g>
</g>
<!-- Node62&#45;&gt;Node64 -->
<g id="edge4" class="edge">
<title>Node62&#45;&gt;Node64</title>
<path fill="none" stroke="#191970" d="M211.9804,-60.7637C222.6405,-51.398 235.9537,-39.7014 246.3761,-30.5446"/>
<polygon fill="#191970" stroke="#191970" points="209.6399,-58.161 204.4375,-67.3906 214.2601,-63.4197 209.6399,-58.161"/>
</g>
</g>
</svg>
