<?xml version="1.0" encoding="UTF-8" standalone="no"?>
<!DOCTYPE svg PUBLIC "-//W3C//DTD SVG 1.1//EN"
 "http://www.w3.org/Graphics/SVG/1.1/DTD/svg11.dtd">
<!-- Generated by graphviz version 2.40.1 (20161225.0304)
 -->
<!-- Title: OptimalControl.h Pages: 1 -->
<svg width="1555pt" height="532pt"
 viewBox="0.00 0.00 1554.50 532.00" xmlns="http://www.w3.org/2000/svg" xmlns:xlink="http://www.w3.org/1999/xlink">
<g id="graph0" class="graph" transform="scale(1 1) rotate(0) translate(4 528)">
<title>OptimalControl.h</title>
<!-- Node0 -->
<g id="node1" class="node">
<title>Node0</title>
<polygon fill="#bfbfbf" stroke="#000000" points="638,-504.5 638,-523.5 738,-523.5 738,-504.5 638,-504.5"/>
<text text-anchor="middle" x="688" y="-511.5" font-family="FreeSans.ttf" font-size="10.00" fill="#000000">OptimalControl.h</text>
</g>
<!-- Node1 -->
<g id="node2" class="node">
<title>Node1</title>
<g id="a_node2"><a xlink:href="DynamicalSystem_8h.html" target="_top" xlink:title="iDynTree/DynamicalSystem.h">
<polygon fill="none" stroke="#000000" points="429.5,-392.5 429.5,-411.5 590.5,-411.5 590.5,-392.5 429.5,-392.5"/>
<text text-anchor="middle" x="510" y="-399.5" font-family="FreeSans.ttf" font-size="10.00" fill="#000000">iDynTree/DynamicalSystem.h</text>
</a>
</g>
</g>
<!-- Node0&#45;&gt;Node1 -->
<g id="edge1" class="edge">
<title>Node0&#45;&gt;Node1</title>
<path fill="none" stroke="#191970" d="M671.1159,-504.3719C655.2171,-495.2284 630.8035,-480.988 610,-468 583.0693,-451.1867 552.7059,-430.962 532.5752,-417.3697"/>
<polygon fill="#191970" stroke="#191970" points="534.3378,-414.3364 524.0951,-411.6274 530.4129,-420.1325 534.3378,-414.3364"/>
</g>
<!-- Node18 -->
<g id="node19" class="node">
<title>Node18</title>
<g id="a_node19"><a xlink:href="LinearSystem_8h.html" target="_top" xlink:title="iDynTree/LinearSystem.h">
<polygon fill="none" stroke="#000000" points="619,-448.5 619,-467.5 757,-467.5 757,-448.5 619,-448.5"/>
<text text-anchor="middle" x="688" y="-455.5" font-family="FreeSans.ttf" font-size="10.00" fill="#000000">iDynTree/LinearSystem.h</text>
</a>
</g>
</g>
<!-- Node0&#45;&gt;Node18 -->
<g id="edge21" class="edge">
<title>Node0&#45;&gt;Node18</title>
<path fill="none" stroke="#191970" d="M688,-504.2455C688,-496.9382 688,-486.6944 688,-477.7046"/>
<polygon fill="#191970" stroke="#191970" points="691.5001,-477.6426 688,-467.6427 684.5001,-477.6427 691.5001,-477.6426"/>
</g>
<!-- Node35 -->
<g id="node36" class="node">
<title>Node35</title>
<g id="a_node36"><a xlink:href="Constraint_8h.html" target="_top" xlink:title="iDynTree/Constraint.h">
<polygon fill="none" stroke="#000000" points="178,-392.5 178,-411.5 300,-411.5 300,-392.5 178,-392.5"/>
<text text-anchor="middle" x="239" y="-399.5" font-family="FreeSans.ttf" font-size="10.00" fill="#000000">iDynTree/Constraint.h</text>
</a>
</g>
</g>
<!-- Node0&#45;&gt;Node35 -->
<g id="edge64" class="edge">
<title>Node0&#45;&gt;Node35</title>
<path fill="none" stroke="#191970" d="M649.7306,-504.4994C612.3169,-495.2078 553.7385,-480.6503 503,-468 427.4207,-449.1563 339.6899,-427.2088 286.8089,-413.9716"/>
<polygon fill="#191970" stroke="#191970" points="287.582,-410.5572 277.0313,-411.524 285.882,-417.3477 287.582,-410.5572"/>
</g>
<!-- Node36 -->
<g id="node37" class="node">
<title>Node36</title>
<g id="a_node37"><a xlink:href="ConstraintsGroup_8h.html" target="_top" xlink:title="iDynTree/ConstraintsGroup.h">
<polygon fill="none" stroke="#000000" points="998,-448.5 998,-467.5 1154,-467.5 1154,-448.5 998,-448.5"/>
<text text-anchor="middle" x="1076" y="-455.5" font-family="FreeSans.ttf" font-size="10.00" fill="#000000">iDynTree/ConstraintsGroup.h</text>
</a>
</g>
</g>
<!-- Node0&#45;&gt;Node36 -->
<g id="edge69" class="edge">
<title>Node0&#45;&gt;Node36</title>
<path fill="none" stroke="#191970" d="M738.3265,-506.7364C804.752,-497.1492 922.3038,-480.183 999.6913,-469.0136"/>
<polygon fill="#191970" stroke="#191970" points="1000.4664,-472.4381 1009.8638,-467.5454 999.4663,-465.5099 1000.4664,-472.4381"/>
</g>
<!-- Node37 -->
<g id="node38" class="node">
<title>Node37</title>
<g id="a_node38"><a xlink:href="Cost_8h.html" target="_top" xlink:title="iDynTree/Cost.h">
<polygon fill="none" stroke="#000000" points="318.5,-392.5 318.5,-411.5 411.5,-411.5 411.5,-392.5 318.5,-392.5"/>
<text text-anchor="middle" x="365" y="-399.5" font-family="FreeSans.ttf" font-size="10.00" fill="#000000">iDynTree/Cost.h</text>
</a>
</g>
</g>
<!-- Node0&#45;&gt;Node37 -->
<g id="edge74" class="edge">
<title>Node0&#45;&gt;Node37</title>
<path fill="none" stroke="#191970" d="M660.4612,-504.4509C602.4171,-484.3242 467.4842,-437.5363 401.9872,-414.8253"/>
<polygon fill="#191970" stroke="#191970" points="403.0639,-411.4942 392.4691,-411.5249 400.7706,-418.1079 403.0639,-411.4942"/>
</g>
<!-- Node38 -->
<g id="node39" class="node">
<title>Node38</title>
<g id="a_node39"><a xlink:href="OptimalControlProblem_8h.html" target="_top" xlink:title="iDynTree/OptimalControlProblem.h">
<polygon fill="none" stroke="#000000" points="794,-448.5 794,-467.5 980,-467.5 980,-448.5 794,-448.5"/>
<text text-anchor="middle" x="887" y="-455.5" font-family="FreeSans.ttf" font-size="10.00" fill="#000000">iDynTree/OptimalControlProblem.h</text>
</a>
</g>
</g>
<!-- Node0&#45;&gt;Node38 -->
<g id="edge77" class="edge">
<title>Node0&#45;&gt;Node38</title>
<path fill="none" stroke="#191970" d="M722.2093,-504.3733C755.7297,-494.9404 806.9505,-480.5265 843.381,-470.2747"/>
<polygon fill="#191970" stroke="#191970" points="844.5591,-473.5792 853.2371,-467.5011 842.6628,-466.8409 844.5591,-473.5792"/>
</g>
<!-- Node39 -->
<g id="node40" class="node">
<title>Node39</title>
<g id="a_node40"><a xlink:href="TimeRange_8h.html" target="_top" xlink:title="iDynTree/TimeRange.h">
<polygon fill="none" stroke="#000000" points="1172.5,-448.5 1172.5,-467.5 1299.5,-467.5 1299.5,-448.5 1172.5,-448.5"/>
<text text-anchor="middle" x="1236" y="-455.5" font-family="FreeSans.ttf" font-size="10.00" fill="#000000">iDynTree/TimeRange.h</text>
</a>
</g>
</g>
<!-- Node0&#45;&gt;Node39 -->
<g id="edge84" class="edge">
<title>Node0&#45;&gt;Node39</title>
<path fill="none" stroke="#191970" d="M738.338,-509.7849C823.3497,-502.5219 1001.0183,-486.7216 1162.2153,-468.0512"/>
<polygon fill="#191970" stroke="#191970" points="1162.7896,-471.5081 1172.3176,-466.8748 1161.9799,-464.555 1162.7896,-471.5081"/>
</g>
<!-- Node2 -->
<g id="node3" class="node">
<title>Node2</title>
<g id="a_node3"><a xlink:href="VectorDynSize_8h.html" target="_top" xlink:title="iDynTree/Core/VectorDynSize.h">
<polygon fill="none" stroke="#000000" points="179.5,-336.5 179.5,-355.5 346.5,-355.5 346.5,-336.5 179.5,-336.5"/>
<text text-anchor="middle" x="263" y="-343.5" font-family="FreeSans.ttf" font-size="10.00" fill="#000000">iDynTree/Core/VectorDynSize.h</text>
</a>
</g>
</g>
<!-- Node1&#45;&gt;Node2 -->
<g id="edge2" class="edge">
<title>Node1&#45;&gt;Node2</title>
<path fill="none" stroke="#191970" d="M467.8198,-392.4369C425.5477,-382.8529 360.3938,-368.0812 314.9583,-357.78"/>
<polygon fill="#191970" stroke="#191970" points="315.5326,-354.3215 305.0062,-355.5237 313.9848,-361.1482 315.5326,-354.3215"/>
</g>
<!-- Node14 -->
<g id="node15" class="node">
<title>Node14</title>
<g id="a_node15"><a xlink:href="SparsityStructure_8h.html" target="_top" xlink:title="iDynTree/SparsityStructure.h">
<polygon fill="none" stroke="#000000" points="364.5,-336.5 364.5,-355.5 519.5,-355.5 519.5,-336.5 364.5,-336.5"/>
<text text-anchor="middle" x="442" y="-343.5" font-family="FreeSans.ttf" font-size="10.00" fill="#000000">iDynTree/SparsityStructure.h</text>
</a>
</g>
</g>
<!-- Node1&#45;&gt;Node14 -->
<g id="edge14" class="edge">
<title>Node1&#45;&gt;Node14</title>
<path fill="none" stroke="#191970" d="M498.1553,-392.2455C488.112,-383.9746 473.5005,-371.9416 461.6996,-362.2232"/>
<polygon fill="#191970" stroke="#191970" points="463.6533,-359.298 453.709,-355.6427 459.2033,-364.7015 463.6533,-359.298"/>
</g>
<!-- Node3 -->
<g id="node4" class="node">
<title>Node3</title>
<g id="a_node4"><a xlink:href="Span_8h.html" target="_top" xlink:title="iDynTree/Core/Span.h">
<polygon fill="none" stroke="#000000" points="366.5,-56.5 366.5,-75.5 487.5,-75.5 487.5,-56.5 366.5,-56.5"/>
<text text-anchor="middle" x="427" y="-63.5" font-family="FreeSans.ttf" font-size="10.00" fill="#000000">iDynTree/Core/Span.h</text>
</a>
</g>
</g>
<!-- Node2&#45;&gt;Node3 -->
<g id="edge3" class="edge">
<title>Node2&#45;&gt;Node3</title>
<path fill="none" stroke="#191970" d="M237.359,-336.3887C218.8626,-328.5706 194.0711,-316.1879 176,-300 108.8705,-239.866 40.8772,-180.0218 100,-112 116.5617,-92.9454 265.1485,-78.3343 356.2335,-71.073"/>
<polygon fill="#191970" stroke="#191970" points="356.5298,-74.5606 366.2247,-70.2876 355.9811,-67.5822 356.5298,-74.5606"/>
</g>
<!-- Node13 -->
<g id="node14" class="node">
<title>Node13</title>
<polygon fill="none" stroke="#bfbfbf" points="543,-56.5 543,-75.5 587,-75.5 587,-56.5 543,-56.5"/>
<text text-anchor="middle" x="565" y="-63.5" font-family="FreeSans.ttf" font-size="10.00" fill="#000000">string</text>
</g>
<!-- Node2&#45;&gt;Node13 -->
<g id="edge13" class="edge">
<title>Node2&#45;&gt;Node13</title>
<path fill="none" stroke="#191970" d="M250.9455,-336.2989C230.2115,-318.4329 190,-278.0991 190,-234 190,-234 190,-234 190,-178 190,-107.1937 267.618,-133.7532 335,-112 371.4208,-100.2421 478.3567,-80.9509 532.6205,-71.5281"/>
<polygon fill="#191970" stroke="#191970" points="533.4765,-74.9321 542.7344,-69.7803 532.2844,-68.0344 533.4765,-74.9321"/>
</g>
<!-- Node4 -->
<g id="node5" class="node">
<title>Node4</title>
<polygon fill="none" stroke="#bfbfbf" points="1212,-.5 1212,-19.5 1264,-19.5 1264,-.5 1212,-.5"/>
<text text-anchor="middle" x="1238" y="-7.5" font-family="FreeSans.ttf" font-size="10.00" fill="#000000">cassert</text>
</g>
<!-- Node3&#45;&gt;Node4 -->
<g id="edge4" class="edge">
<title>Node3&#45;&gt;Node4</title>
<path fill="none" stroke="#191970" d="M487.5228,-60.0464C502.6912,-58.6362 518.9349,-57.1959 534,-56 789.3086,-35.7326 1097.2255,-17.8847 1201.479,-12.0253"/>
<polygon fill="#191970" stroke="#191970" points="1201.9823,-15.5027 1211.7708,-11.4487 1201.5906,-8.5137 1201.9823,-15.5027"/>
</g>
<!-- Node5 -->
<g id="node6" class="node">
<title>Node5</title>
<polygon fill="none" stroke="#bfbfbf" points="628,-.5 628,-19.5 692,-19.5 692,-.5 628,-.5"/>
<text text-anchor="middle" x="660" y="-7.5" font-family="FreeSans.ttf" font-size="10.00" fill="#000000">algorithm</text>
</g>
<!-- Node3&#45;&gt;Node5 -->
<g id="edge5" class="edge">
<title>Node3&#45;&gt;Node5</title>
<path fill="none" stroke="#191970" d="M467.0945,-56.4443C503.8203,-47.6803 559.9647,-34.2542 617.735,-20.2995"/>
<polygon fill="#191970" stroke="#191970" points="618.8762,-23.6245 627.7741,-17.8731 617.2317,-16.8205 618.8762,-23.6245"/>
</g>
<!-- Node6 -->
<g id="node7" class="node">
<title>Node6</title>
<polygon fill="none" stroke="#bfbfbf" points="200,-.5 200,-19.5 242,-19.5 242,-.5 200,-.5"/>
<text text-anchor="middle" x="221" y="-7.5" font-family="FreeSans.ttf" font-size="10.00" fill="#000000">array</text>
</g>
<!-- Node3&#45;&gt;Node6 -->
<g id="edge6" class="edge">
<title>Node3&#45;&gt;Node6</title>
<path fill="none" stroke="#191970" d="M387.2992,-56.42C353.5896,-48.1081 303.7399,-35.4008 251.9414,-20.1526"/>
<polygon fill="#191970" stroke="#191970" points="252.8328,-16.7663 242.2503,-17.2763 250.8411,-23.477 252.8328,-16.7663"/>
</g>
<!-- Node7 -->
<g id="node8" class="node">
<title>Node7</title>
<polygon fill="none" stroke="#bfbfbf" points="55.5,-.5 55.5,-19.5 108.5,-19.5 108.5,-.5 55.5,-.5"/>
<text text-anchor="middle" x="82" y="-7.5" font-family="FreeSans.ttf" font-size="10.00" fill="#000000">cstddef</text>
</g>
<!-- Node3&#45;&gt;Node7 -->
<g id="edge7" class="edge">
<title>Node3&#45;&gt;Node7</title>
<path fill="none" stroke="#191970" d="M368.0844,-56.4369C296.7342,-44.8554 178.7128,-25.6983 119.0202,-16.0091"/>
<polygon fill="#191970" stroke="#191970" points="119.3533,-12.5174 108.9217,-14.3699 118.2317,-19.427 119.3533,-12.5174"/>
</g>
<!-- Node8 -->
<g id="node9" class="node">
<title>Node8</title>
<polygon fill="none" stroke="#bfbfbf" points="260.5,-.5 260.5,-19.5 313.5,-19.5 313.5,-.5 260.5,-.5"/>
<text text-anchor="middle" x="287" y="-7.5" font-family="FreeSans.ttf" font-size="10.00" fill="#000000">iterator</text>
</g>
<!-- Node3&#45;&gt;Node8 -->
<g id="edge8" class="edge">
<title>Node3&#45;&gt;Node8</title>
<path fill="none" stroke="#191970" d="M402.9331,-56.3733C380.1572,-47.2629 345.7656,-33.5062 320.351,-23.3404"/>
<polygon fill="#191970" stroke="#191970" points="321.3375,-19.9654 310.7528,-19.5011 318.7377,-26.4648 321.3375,-19.9654"/>
</g>
<!-- Node9 -->
<g id="node10" class="node">
<title>Node9</title>
<polygon fill="none" stroke="#bfbfbf" points="332,-.5 332,-19.5 376,-19.5 376,-.5 332,-.5"/>
<text text-anchor="middle" x="354" y="-7.5" font-family="FreeSans.ttf" font-size="10.00" fill="#000000">limits</text>
</g>
<!-- Node3&#45;&gt;Node9 -->
<g id="edge9" class="edge">
<title>Node3&#45;&gt;Node9</title>
<path fill="none" stroke="#191970" d="M414.2844,-56.2455C403.398,-47.8943 387.5117,-35.7076 374.78,-25.9408"/>
<polygon fill="#191970" stroke="#191970" points="376.6346,-22.9523 366.5699,-19.6427 372.3739,-28.5063 376.6346,-22.9523"/>
</g>
<!-- Node10 -->
<g id="node11" class="node">
<title>Node10</title>
<polygon fill="none" stroke="#bfbfbf" points="394.5,-.5 394.5,-19.5 459.5,-19.5 459.5,-.5 394.5,-.5"/>
<text text-anchor="middle" x="427" y="-7.5" font-family="FreeSans.ttf" font-size="10.00" fill="#000000">stdexcept</text>
</g>
<!-- Node3&#45;&gt;Node10 -->
<g id="edge10" class="edge">
<title>Node3&#45;&gt;Node10</title>
<path fill="none" stroke="#191970" d="M427,-56.2455C427,-48.9382 427,-38.6944 427,-29.7046"/>
<polygon fill="#191970" stroke="#191970" points="430.5001,-29.6426 427,-19.6427 423.5001,-29.6427 430.5001,-29.6426"/>
</g>
<!-- Node11 -->
<g id="node12" class="node">
<title>Node11</title>
<polygon fill="none" stroke="#bfbfbf" points="477.5,-.5 477.5,-19.5 546.5,-19.5 546.5,-.5 477.5,-.5"/>
<text text-anchor="middle" x="512" y="-7.5" font-family="FreeSans.ttf" font-size="10.00" fill="#000000">type_traits</text>
</g>
<!-- Node3&#45;&gt;Node11 -->
<g id="edge11" class="edge">
<title>Node3&#45;&gt;Node11</title>
<path fill="none" stroke="#191970" d="M441.8059,-56.2455C454.7256,-47.7337 473.6931,-35.2375 488.6552,-25.3801"/>
<polygon fill="#191970" stroke="#191970" points="490.9387,-28.067 497.3638,-19.6427 487.0876,-22.2216 490.9387,-28.067"/>
</g>
<!-- Node12 -->
<g id="node13" class="node">
<title>Node12</title>
<polygon fill="none" stroke="#bfbfbf" points="564.5,-.5 564.5,-19.5 609.5,-19.5 609.5,-.5 564.5,-.5"/>
<text text-anchor="middle" x="587" y="-7.5" font-family="FreeSans.ttf" font-size="10.00" fill="#000000">utility</text>
</g>
<!-- Node3&#45;&gt;Node12 -->
<g id="edge12" class="edge">
<title>Node3&#45;&gt;Node12</title>
<path fill="none" stroke="#191970" d="M454.505,-56.3733C482.3188,-46.6384 525.2899,-31.5985 554.7051,-21.3032"/>
<polygon fill="#191970" stroke="#191970" points="556.2148,-24.4831 564.4972,-17.876 553.9023,-17.8761 556.2148,-24.4831"/>
</g>
<!-- Node14&#45;&gt;Node7 -->
<g id="edge18" class="edge">
<title>Node14&#45;&gt;Node7</title>
<path fill="none" stroke="#191970" d="M402.3372,-336.4871C337.1339,-318.7581 207.5996,-274.3806 138,-188 99.301,-139.9704 87.1897,-64.9252 83.5237,-29.6157"/>
<polygon fill="#191970" stroke="#191970" points="87.0068,-29.2706 82.6072,-19.6324 80.0361,-29.9106 87.0068,-29.2706"/>
</g>
<!-- Node14&#45;&gt;Node13 -->
<g id="edge20" class="edge">
<title>Node14&#45;&gt;Node13</title>
<path fill="none" stroke="#191970" d="M457.8362,-336.4847C477.7669,-323.3487 507.512,-299.1156 491,-280 417.9847,-195.4719 199.0724,-325.361 246,-224 278.3246,-154.1807 309.4877,-147.0096 378,-112 404.8604,-98.2744 486.762,-81.044 532.7671,-72.0688"/>
<polygon fill="#191970" stroke="#191970" points="533.6664,-75.4599 542.8214,-70.1273 532.3391,-68.5869 533.6664,-75.4599"/>
</g>
<!-- Node15 -->
<g id="node16" class="node">
<title>Node15</title>
<g id="a_node16"><a xlink:href="Utils_8h.html" target="_top" xlink:title="iDynTree/Core/Utils.h">
<polygon fill="none" stroke="#000000" points="995.5,-56.5 995.5,-75.5 1114.5,-75.5 1114.5,-56.5 995.5,-56.5"/>
<text text-anchor="middle" x="1055" y="-63.5" font-family="FreeSans.ttf" font-size="10.00" fill="#000000">iDynTree/Core/Utils.h</text>
</a>
</g>
</g>
<!-- Node14&#45;&gt;Node15 -->
<g id="edge15" class="edge">
<title>Node14&#45;&gt;Node15</title>
<path fill="none" stroke="#191970" d="M423.8732,-336.417C403.9584,-324.4997 376.1417,-302.9136 387,-280 397.8201,-257.167 411.6289,-260.2228 431,-244 500.1116,-186.1207 502.0784,-147.3615 585,-112 655.2076,-82.0603 871.9021,-71.3385 984.8684,-67.7173"/>
<polygon fill="#191970" stroke="#191970" points="985.2508,-71.2072 995.1374,-67.3986 985.0336,-64.2106 985.2508,-71.2072"/>
</g>
<!-- Node16 -->
<g id="node17" class="node">
<title>Node16</title>
<polygon fill="none" stroke="#bfbfbf" points="1076.5,-280.5 1076.5,-299.5 1123.5,-299.5 1123.5,-280.5 1076.5,-280.5"/>
<text text-anchor="middle" x="1100" y="-287.5" font-family="FreeSans.ttf" font-size="10.00" fill="#000000">vector</text>
</g>
<!-- Node14&#45;&gt;Node16 -->
<g id="edge17" class="edge">
<title>Node14&#45;&gt;Node16</title>
<path fill="none" stroke="#191970" d="M519.7402,-339.3838C663.4558,-327.1527 965.2438,-301.4686 1066.2505,-292.8723"/>
<polygon fill="#191970" stroke="#191970" points="1066.8075,-296.3376 1076.4747,-292.0022 1066.2139,-289.3629 1066.8075,-296.3376"/>
</g>
<!-- Node17 -->
<g id="node18" class="node">
<title>Node17</title>
<polygon fill="none" stroke="#bfbfbf" points="396,-280.5 396,-299.5 482,-299.5 482,-280.5 396,-280.5"/>
<text text-anchor="middle" x="439" y="-287.5" font-family="FreeSans.ttf" font-size="10.00" fill="#000000">unordered_set</text>
</g>
<!-- Node14&#45;&gt;Node17 -->
<g id="edge19" class="edge">
<title>Node14&#45;&gt;Node17</title>
<path fill="none" stroke="#191970" d="M441.4774,-336.2455C441.086,-328.9382 440.5372,-318.6944 440.0556,-309.7046"/>
<polygon fill="#191970" stroke="#191970" points="443.5466,-309.4411 439.5166,-299.6427 436.5566,-309.8156 443.5466,-309.4411"/>
</g>
<!-- Node15&#45;&gt;Node7 -->
<g id="edge16" class="edge">
<title>Node15&#45;&gt;Node7</title>
<path fill="none" stroke="#191970" d="M995.244,-63.6076C854.8212,-57.8134 492.8865,-41.8763 191,-20 167.0032,-18.2611 140.0814,-15.7962 118.9974,-13.7488"/>
<polygon fill="#191970" stroke="#191970" points="119.1474,-10.2468 108.8531,-12.7523 118.463,-17.2132 119.1474,-10.2468"/>
</g>
<!-- Node18&#45;&gt;Node1 -->
<g id="edge22" class="edge">
<title>Node18&#45;&gt;Node1</title>
<path fill="none" stroke="#191970" d="M657.4007,-448.3733C627.6739,-439.021 582.3841,-424.7725 549.8544,-414.5385"/>
<polygon fill="#191970" stroke="#191970" points="550.7895,-411.1636 540.2,-411.5011 548.6887,-417.8409 550.7895,-411.1636"/>
</g>
<!-- Node18&#45;&gt;Node14 -->
<g id="edge62" class="edge">
<title>Node18&#45;&gt;Node14</title>
<path fill="none" stroke="#191970" d="M677.7281,-448.3032C662.1081,-434.0462 630.9205,-407.4509 600,-392 569.0029,-376.5109 531.9111,-365.373 501.4577,-357.9402"/>
<polygon fill="#191970" stroke="#191970" points="501.9402,-354.4578 491.4029,-355.5607 500.328,-361.2697 501.9402,-354.4578"/>
</g>
<!-- Node19 -->
<g id="node20" class="node">
<title>Node19</title>
<g id="a_node20"><a xlink:href="TimeVaryingObject_8h.html" target="_top" xlink:title="iDynTree/TimeVaryingObject.h">
<polygon fill="none" stroke="#000000" points="647,-392.5 647,-411.5 811,-411.5 811,-392.5 647,-392.5"/>
<text text-anchor="middle" x="729" y="-399.5" font-family="FreeSans.ttf" font-size="10.00" fill="#000000">iDynTree/TimeVaryingObject.h</text>
</a>
</g>
</g>
<!-- Node18&#45;&gt;Node19 -->
<g id="edge23" class="edge">
<title>Node18&#45;&gt;Node19</title>
<path fill="none" stroke="#191970" d="M695.1417,-448.2455C700.8444,-440.4564 708.99,-429.3308 715.8625,-419.9439"/>
<polygon fill="#191970" stroke="#191970" points="718.8568,-421.7789 721.9402,-411.6427 713.2087,-417.6437 718.8568,-421.7789"/>
</g>
<!-- Node34 -->
<g id="node35" class="node">
<title>Node34</title>
<polygon fill="none" stroke="#bfbfbf" points="867,-392.5 867,-411.5 925,-411.5 925,-392.5 867,-392.5"/>
<text text-anchor="middle" x="896" y="-399.5" font-family="FreeSans.ttf" font-size="10.00" fill="#000000">memory</text>
</g>
<!-- Node18&#45;&gt;Node34 -->
<g id="edge63" class="edge">
<title>Node18&#45;&gt;Node34</title>
<path fill="none" stroke="#191970" d="M723.7565,-448.3733C760.8619,-438.3833 818.7176,-422.8068 856.9853,-412.5039"/>
<polygon fill="#191970" stroke="#191970" points="858.0001,-415.8555 866.7463,-409.876 856.1802,-409.0961 858.0001,-415.8555"/>
</g>
<!-- Node19&#45;&gt;Node2 -->
<g id="edge24" class="edge">
<title>Node19&#45;&gt;Node2</title>
<path fill="none" stroke="#191970" d="M649.6855,-392.4686C567.2129,-382.5578 438.3696,-367.0745 352.3545,-356.7379"/>
<polygon fill="#191970" stroke="#191970" points="352.6906,-353.2532 342.3444,-355.535 351.8554,-360.2032 352.6906,-353.2532"/>
</g>
<!-- Node20 -->
<g id="node21" class="node">
<title>Node20</title>
<g id="a_node21"><a xlink:href="MatrixDynSize_8h.html" target="_top" xlink:title="iDynTree/Core/MatrixDynSize.h">
<polygon fill="none" stroke="#000000" points="255.5,-224.5 255.5,-243.5 422.5,-243.5 422.5,-224.5 255.5,-224.5"/>
<text text-anchor="middle" x="339" y="-231.5" font-family="FreeSans.ttf" font-size="10.00" fill="#000000">iDynTree/Core/MatrixDynSize.h</text>
</a>
</g>
</g>
<!-- Node19&#45;&gt;Node20 -->
<g id="edge25" class="edge">
<title>Node19&#45;&gt;Node20</title>
<path fill="none" stroke="#191970" d="M715.8115,-392.2535C684.2774,-369.3867 601.3697,-311.8272 524,-280 485.9511,-264.348 441.2314,-253.0501 405.2915,-245.5685"/>
<polygon fill="#191970" stroke="#191970" points="405.8969,-242.1201 395.4003,-243.559 404.5033,-248.9799 405.8969,-242.1201"/>
</g>
<!-- Node21 -->
<g id="node22" class="node">
<title>Node21</title>
<g id="a_node22"><a xlink:href="Transform_8h.html" target="_top" xlink:title="iDynTree/Core/Transform.h">
<polygon fill="none" stroke="#000000" points="688,-336.5 688,-355.5 834,-355.5 834,-336.5 688,-336.5"/>
<text text-anchor="middle" x="761" y="-343.5" font-family="FreeSans.ttf" font-size="10.00" fill="#000000">iDynTree/Core/Transform.h</text>
</a>
</g>
</g>
<!-- Node19&#45;&gt;Node21 -->
<g id="edge27" class="edge">
<title>Node19&#45;&gt;Node21</title>
<path fill="none" stroke="#191970" d="M734.574,-392.2455C738.9331,-384.617 745.1211,-373.7881 750.4133,-364.5267"/>
<polygon fill="#191970" stroke="#191970" points="753.5673,-366.0616 755.4899,-355.6427 747.4896,-362.5886 753.5673,-366.0616"/>
</g>
<!-- Node20&#45;&gt;Node13 -->
<g id="edge26" class="edge">
<title>Node20&#45;&gt;Node13</title>
<path fill="none" stroke="#191970" d="M340.9065,-224.4092C345.9963,-201.3733 362.1076,-142.5745 399,-112 419.3248,-95.1558 490.5597,-79.6678 532.8233,-71.6758"/>
<polygon fill="#191970" stroke="#191970" points="533.7007,-75.0729 542.8955,-69.8092 532.4251,-68.1901 533.7007,-75.0729"/>
</g>
<!-- Node21&#45;&gt;Node13 -->
<g id="edge61" class="edge">
<title>Node21&#45;&gt;Node13</title>
<path fill="none" stroke="#191970" d="M696.4618,-336.4901C642.189,-324.772 567.6096,-299.1413 530,-244 496.9392,-195.5279 509.6482,-166.2491 532,-112 536.1795,-101.8561 542.9884,-91.8126 549.339,-83.7105"/>
<polygon fill="#191970" stroke="#191970" points="552.2307,-85.7057 555.9041,-75.768 546.8352,-81.2459 552.2307,-85.7057"/>
</g>
<!-- Node22 -->
<g id="node23" class="node">
<title>Node22</title>
<g id="a_node23"><a xlink:href="Position_8h.html" target="_top" xlink:title="iDynTree/Core/Position.h">
<polygon fill="none" stroke="#000000" points="642,-280.5 642,-299.5 778,-299.5 778,-280.5 642,-280.5"/>
<text text-anchor="middle" x="710" y="-287.5" font-family="FreeSans.ttf" font-size="10.00" fill="#000000">iDynTree/Core/Position.h</text>
</a>
</g>
</g>
<!-- Node21&#45;&gt;Node22 -->
<g id="edge28" class="edge">
<title>Node21&#45;&gt;Node22</title>
<path fill="none" stroke="#191970" d="M752.1165,-336.2455C744.8034,-328.2155 734.2609,-316.6394 725.5533,-307.0781"/>
<polygon fill="#191970" stroke="#191970" points="728.1028,-304.6795 718.7817,-299.6427 722.9273,-309.3928 728.1028,-304.6795"/>
</g>
<!-- Node28 -->
<g id="node29" class="node">
<title>Node28</title>
<g id="a_node29"><a xlink:href="Rotation_8h.html" target="_top" xlink:title="iDynTree/Core/Rotation.h">
<polygon fill="none" stroke="#000000" points="843.5,-224.5 843.5,-243.5 980.5,-243.5 980.5,-224.5 843.5,-224.5"/>
<text text-anchor="middle" x="912" y="-231.5" font-family="FreeSans.ttf" font-size="10.00" fill="#000000">iDynTree/Core/Rotation.h</text>
</a>
</g>
</g>
<!-- Node21&#45;&gt;Node28 -->
<g id="edge56" class="edge">
<title>Node21&#45;&gt;Node28</title>
<path fill="none" stroke="#191970" d="M773.8742,-336.4509C799.9507,-317.1094 859.2221,-273.1465 890.9808,-249.5904"/>
<polygon fill="#191970" stroke="#191970" points="893.2117,-252.2934 899.1584,-243.5249 889.0415,-246.6712 893.2117,-252.2934"/>
</g>
<!-- Node30 -->
<g id="node31" class="node">
<title>Node30</title>
<g id="a_node31"><a xlink:href="MatrixFixSize_8h.html" target="_top" xlink:title="iDynTree/Core/MatrixFixSize.h">
<polygon fill="none" stroke="#000000" points="1385.5,-112.5 1385.5,-131.5 1546.5,-131.5 1546.5,-112.5 1385.5,-112.5"/>
<text text-anchor="middle" x="1466" y="-119.5" font-family="FreeSans.ttf" font-size="10.00" fill="#000000">iDynTree/Core/MatrixFixSize.h</text>
</a>
</g>
</g>
<!-- Node21&#45;&gt;Node30 -->
<g id="edge60" class="edge">
<title>Node21&#45;&gt;Node30</title>
<path fill="none" stroke="#191970" d="M791.293,-336.375C903.944,-300.5823 1298.7228,-175.1491 1426.0728,-134.6861"/>
<polygon fill="#191970" stroke="#191970" points="1427.3493,-137.953 1435.8199,-131.5891 1425.2295,-131.2817 1427.3493,-137.953"/>
</g>
<!-- Node33 -->
<g id="node34" class="node">
<title>Node33</title>
<g id="a_node34"><a xlink:href="TransformSemantics_8h.html" target="_top" xlink:title="iDynTree/Core/TransformSemantics.h">
<polygon fill="none" stroke="#000000" points="593.5,-112.5 593.5,-131.5 790.5,-131.5 790.5,-112.5 593.5,-112.5"/>
<text text-anchor="middle" x="692" y="-119.5" font-family="FreeSans.ttf" font-size="10.00" fill="#000000">iDynTree/Core/TransformSemantics.h</text>
</a>
</g>
</g>
<!-- Node21&#45;&gt;Node33 -->
<g id="edge57" class="edge">
<title>Node21&#45;&gt;Node33</title>
<path fill="none" stroke="#191970" d="M768.3819,-336.4183C774.7273,-327.5336 783.4061,-313.6624 787,-300 799.2211,-253.5415 774.3838,-200.04 752,-168 743.3142,-155.5672 730.2458,-144.9864 718.5206,-137.1186"/>
<polygon fill="#191970" stroke="#191970" points="720.2277,-134.0565 709.9109,-131.6452 716.4723,-139.9639 720.2277,-134.0565"/>
</g>
<!-- Node22&#45;&gt;Node13 -->
<g id="edge55" class="edge">
<title>Node22&#45;&gt;Node13</title>
<path fill="none" stroke="#191970" d="M646.822,-280.4368C605.7557,-272.7818 557.589,-260.5787 545,-244 508.8841,-196.4382 538.2092,-120.0652 555.1161,-84.873"/>
<polygon fill="#191970" stroke="#191970" points="558.3492,-86.2327 559.685,-75.7224 552.0865,-83.1057 558.3492,-86.2327"/>
</g>
<!-- Node23 -->
<g id="node24" class="node">
<title>Node23</title>
<g id="a_node24"><a xlink:href="PositionRaw_8h.html" target="_top" xlink:title="iDynTree/Core/PositionRaw.h">
<polygon fill="none" stroke="#000000" points="587,-168.5 587,-187.5 743,-187.5 743,-168.5 587,-168.5"/>
<text text-anchor="middle" x="665" y="-175.5" font-family="FreeSans.ttf" font-size="10.00" fill="#000000">iDynTree/Core/PositionRaw.h</text>
</a>
</g>
</g>
<!-- Node22&#45;&gt;Node23 -->
<g id="edge29" class="edge">
<title>Node22&#45;&gt;Node23</title>
<path fill="none" stroke="#191970" d="M723.0842,-280.4085C738.9032,-267.5883 762.0023,-244.1425 750,-224 741.109,-209.0789 725.5103,-198.7035 710.0823,-191.6373"/>
<polygon fill="#191970" stroke="#191970" points="711.1358,-188.2841 700.5598,-187.6541 708.4346,-194.742 711.1358,-188.2841"/>
</g>
<!-- Node27 -->
<g id="node28" class="node">
<title>Node27</title>
<g id="a_node28"><a xlink:href="PositionSemantics_8h.html" target="_top" xlink:title="iDynTree/Core/PositionSemantics.h">
<polygon fill="none" stroke="#000000" points="553.5,-224.5 553.5,-243.5 740.5,-243.5 740.5,-224.5 553.5,-224.5"/>
<text text-anchor="middle" x="647" y="-231.5" font-family="FreeSans.ttf" font-size="10.00" fill="#000000">iDynTree/Core/PositionSemantics.h</text>
</a>
</g>
</g>
<!-- Node22&#45;&gt;Node27 -->
<g id="edge38" class="edge">
<title>Node22&#45;&gt;Node27</title>
<path fill="none" stroke="#191970" d="M699.0262,-280.2455C689.8118,-272.0549 676.4468,-260.1749 665.5703,-250.5069"/>
<polygon fill="#191970" stroke="#191970" points="667.6474,-247.6704 657.848,-243.6427 662.9968,-252.9023 667.6474,-247.6704"/>
</g>
<!-- Node22&#45;&gt;Node28 -->
<g id="edge40" class="edge">
<title>Node22&#45;&gt;Node28</title>
<path fill="none" stroke="#191970" d="M744.725,-280.3733C778.7508,-270.9404 830.7437,-256.5265 867.7234,-246.2747"/>
<polygon fill="#191970" stroke="#191970" points="869.0266,-249.5455 877.7281,-243.5011 867.1565,-242.7999 869.0266,-249.5455"/>
</g>
<!-- Node23&#45;&gt;Node13 -->
<g id="edge37" class="edge">
<title>Node23&#45;&gt;Node13</title>
<path fill="none" stroke="#191970" d="M637.6822,-168.397C620.2886,-160.9733 598.5578,-149.0569 585,-132 574.4187,-118.6878 569.4223,-99.8314 567.0708,-85.6804"/>
<polygon fill="#191970" stroke="#191970" points="570.5074,-84.9754 565.6958,-75.5362 563.5708,-85.9157 570.5074,-84.9754"/>
</g>
<!-- Node24 -->
<g id="node25" class="node">
<title>Node24</title>
<g id="a_node25"><a xlink:href="VectorFixSize_8h.html" target="_top" xlink:title="iDynTree/Core/VectorFixSize.h">
<polygon fill="none" stroke="#000000" points="1167.5,-112.5 1167.5,-131.5 1328.5,-131.5 1328.5,-112.5 1167.5,-112.5"/>
<text text-anchor="middle" x="1248" y="-119.5" font-family="FreeSans.ttf" font-size="10.00" fill="#000000">iDynTree/Core/VectorFixSize.h</text>
</a>
</g>
</g>
<!-- Node23&#45;&gt;Node24 -->
<g id="edge30" class="edge">
<title>Node23&#45;&gt;Node24</title>
<path fill="none" stroke="#191970" d="M743.169,-171.1346C838.335,-162.6799 1004.2338,-147.631 1157.0109,-132.0866"/>
<polygon fill="#191970" stroke="#191970" points="1157.461,-135.5589 1167.0541,-131.0621 1156.7505,-128.5951 1157.461,-135.5589"/>
</g>
<!-- Node24&#45;&gt;Node3 -->
<g id="edge32" class="edge">
<title>Node24&#45;&gt;Node3</title>
<path fill="none" stroke="#191970" d="M1167.0668,-112.8026C1164.0068,-112.5199 1160.9765,-112.251 1158,-112 881.1883,-88.6532 811.005,-96.928 534,-76 522.227,-75.1105 509.7362,-74.0498 497.6019,-72.9567"/>
<polygon fill="#191970" stroke="#191970" points="497.7939,-69.4598 487.5165,-72.0341 497.1561,-76.4307 497.7939,-69.4598"/>
</g>
<!-- Node24&#45;&gt;Node4 -->
<g id="edge35" class="edge">
<title>Node24&#45;&gt;Node4</title>
<path fill="none" stroke="#191970" d="M1247.1474,-112.4509C1245.5164,-94.184 1241.9246,-53.9553 1239.7587,-29.6976"/>
<polygon fill="#191970" stroke="#191970" points="1243.226,-29.174 1238.8504,-19.5249 1236.2537,-29.7966 1243.226,-29.174"/>
</g>
<!-- Node24&#45;&gt;Node13 -->
<g id="edge33" class="edge">
<title>Node24&#45;&gt;Node13</title>
<path fill="none" stroke="#191970" d="M1167.06,-112.8782C1164.002,-112.5744 1160.9738,-112.2805 1158,-112 944.1226,-91.8281 686.2334,-74.0626 597.1171,-68.1144"/>
<polygon fill="#191970" stroke="#191970" points="597.3105,-64.6196 587.1003,-67.4482 596.8459,-71.6042 597.3105,-64.6196"/>
</g>
<!-- Node24&#45;&gt;Node15 -->
<g id="edge31" class="edge">
<title>Node24&#45;&gt;Node15</title>
<path fill="none" stroke="#191970" d="M1214.8221,-112.3733C1182.4513,-102.9807 1133.0602,-88.6496 1097.7576,-78.4064"/>
<polygon fill="#191970" stroke="#191970" points="1098.3242,-74.9264 1087.7449,-75.5011 1096.3735,-81.6492 1098.3242,-74.9264"/>
</g>
<!-- Node25 -->
<g id="node26" class="node">
<title>Node25</title>
<polygon fill="none" stroke="#bfbfbf" points="1334,-56.5 1334,-75.5 1390,-75.5 1390,-56.5 1334,-56.5"/>
<text text-anchor="middle" x="1362" y="-63.5" font-family="FreeSans.ttf" font-size="10.00" fill="#000000">sstream</text>
</g>
<!-- Node24&#45;&gt;Node25 -->
<g id="edge34" class="edge">
<title>Node24&#45;&gt;Node25</title>
<path fill="none" stroke="#191970" d="M1267.5973,-112.3733C1285.7331,-103.4644 1312.9135,-90.1127 1333.4587,-80.0203"/>
<polygon fill="#191970" stroke="#191970" points="1335.2261,-83.0517 1342.6584,-75.5011 1332.1397,-76.7688 1335.2261,-83.0517"/>
</g>
<!-- Node26 -->
<g id="node27" class="node">
<title>Node26</title>
<polygon fill="none" stroke="#bfbfbf" points="1266,-56.5 1266,-75.5 1316,-75.5 1316,-56.5 1266,-56.5"/>
<text text-anchor="middle" x="1291" y="-63.5" font-family="FreeSans.ttf" font-size="10.00" fill="#000000">cstring</text>
</g>
<!-- Node24&#45;&gt;Node26 -->
<g id="edge36" class="edge">
<title>Node24&#45;&gt;Node26</title>
<path fill="none" stroke="#191970" d="M1255.49,-112.2455C1261.5326,-104.3761 1270.1903,-93.101 1277.4441,-83.6542"/>
<polygon fill="#191970" stroke="#191970" points="1280.2815,-85.7058 1283.5958,-75.6427 1274.7295,-81.4426 1280.2815,-85.7058"/>
</g>
<!-- Node27&#45;&gt;Node13 -->
<g id="edge39" class="edge">
<title>Node27&#45;&gt;Node13</title>
<path fill="none" stroke="#191970" d="M623.2867,-224.4034C607.8161,-216.8624 588.5931,-204.8085 578,-188 558.2143,-156.6052 559.3378,-111.4386 562.0748,-85.7849"/>
<polygon fill="#191970" stroke="#191970" points="565.5571,-86.1446 563.3334,-75.7858 558.6119,-85.2704 565.5571,-86.1446"/>
</g>
<!-- Node28&#45;&gt;Node13 -->
<g id="edge41" class="edge">
<title>Node28&#45;&gt;Node13</title>
<path fill="none" stroke="#191970" d="M883.6641,-224.4439C865.5477,-217.0399 842.7634,-205.128 828,-188 804.4979,-160.7336 827.403,-135.3426 800,-112 769.897,-86.3575 654.7603,-73.4234 597.5945,-68.4705"/>
<polygon fill="#191970" stroke="#191970" points="597.5589,-64.9554 587.3023,-67.6111 596.9763,-71.9312 597.5589,-64.9554"/>
</g>
<!-- Node28&#45;&gt;Node24 -->
<g id="edge54" class="edge">
<title>Node28&#45;&gt;Node24</title>
<path fill="none" stroke="#191970" d="M940.6472,-224.4509C1001.0274,-204.3242 1141.3911,-157.5363 1209.5242,-134.8253"/>
<polygon fill="#191970" stroke="#191970" points="1211.0453,-138.0076 1219.4253,-131.5249 1208.8317,-131.3668 1211.0453,-138.0076"/>
</g>
<!-- Node29 -->
<g id="node30" class="node">
<title>Node29</title>
<g id="a_node30"><a xlink:href="RotationRaw_8h.html" target="_top" xlink:title="iDynTree/Core/RotationRaw.h">
<polygon fill="none" stroke="#000000" points="837,-168.5 837,-187.5 995,-187.5 995,-168.5 837,-168.5"/>
<text text-anchor="middle" x="916" y="-175.5" font-family="FreeSans.ttf" font-size="10.00" fill="#000000">iDynTree/Core/RotationRaw.h</text>
</a>
</g>
</g>
<!-- Node28&#45;&gt;Node29 -->
<g id="edge42" class="edge">
<title>Node28&#45;&gt;Node29</title>
<path fill="none" stroke="#191970" d="M912.6967,-224.2455C913.2187,-216.9382 913.9504,-206.6944 914.5925,-197.7046"/>
<polygon fill="#191970" stroke="#191970" points="918.0898,-197.8667 915.3112,-187.6427 911.1076,-197.3679 918.0898,-197.8667"/>
</g>
<!-- Node32 -->
<g id="node33" class="node">
<title>Node32</title>
<g id="a_node33"><a xlink:href="RotationSemantics_8h.html" target="_top" xlink:title="iDynTree/Core/RotationSemantics.h">
<polygon fill="none" stroke="#000000" points="961,-112.5 961,-131.5 1149,-131.5 1149,-112.5 961,-112.5"/>
<text text-anchor="middle" x="1055" y="-119.5" font-family="FreeSans.ttf" font-size="10.00" fill="#000000">iDynTree/Core/RotationSemantics.h</text>
</a>
</g>
</g>
<!-- Node28&#45;&gt;Node32 -->
<g id="edge51" class="edge">
<title>Node28&#45;&gt;Node32</title>
<path fill="none" stroke="#191970" d="M938.8321,-224.3408C958.2509,-216.4988 984.4153,-204.1074 1004,-188 1020.5139,-174.4182 1034.9445,-154.5472 1044.2012,-140.1603"/>
<polygon fill="#191970" stroke="#191970" points="1047.2032,-141.9606 1049.507,-131.6192 1041.2571,-138.2668 1047.2032,-141.9606"/>
</g>
<!-- Node29&#45;&gt;Node13 -->
<g id="edge50" class="edge">
<title>Node29&#45;&gt;Node13</title>
<path fill="none" stroke="#191970" d="M906.8698,-168.0756C892.6312,-153.273 863.5822,-125.6898 833,-112 791.2346,-93.3041 659.0388,-76.5449 597.3231,-69.5105"/>
<polygon fill="#191970" stroke="#191970" points="597.3321,-65.9895 587.0036,-68.3502 596.5499,-72.9457 597.3321,-65.9895"/>
</g>
<!-- Node29&#45;&gt;Node30 -->
<g id="edge43" class="edge">
<title>Node29&#45;&gt;Node30</title>
<path fill="none" stroke="#191970" d="M995.0943,-169.9468C1095.7394,-159.6993 1269.2005,-142.0378 1375.1614,-131.249"/>
<polygon fill="#191970" stroke="#191970" points="1375.6062,-134.7219 1385.2002,-130.2269 1374.8971,-127.7579 1375.6062,-134.7219"/>
</g>
<!-- Node30&#45;&gt;Node4 -->
<g id="edge45" class="edge">
<title>Node30&#45;&gt;Node4</title>
<path fill="none" stroke="#191970" d="M1458.8759,-112.3974C1447.7034,-98.0152 1424.6683,-70.9737 1399,-56 1359.6327,-33.0349 1308.0988,-20.9456 1274.0661,-15.0243"/>
<polygon fill="#191970" stroke="#191970" points="1274.5353,-11.5545 1264.0989,-13.3795 1273.3955,-18.4611 1274.5353,-11.5545"/>
</g>
<!-- Node30&#45;&gt;Node13 -->
<g id="edge47" class="edge">
<title>Node30&#45;&gt;Node13</title>
<path fill="none" stroke="#191970" d="M1385.4454,-115.4779C1369.7151,-114.269 1353.3438,-113.0558 1338,-112 1050.7845,-92.2365 703.1833,-73.3494 597.1991,-67.7019"/>
<polygon fill="#191970" stroke="#191970" points="597.3185,-64.2034 587.1467,-67.1673 596.9467,-71.1935 597.3185,-64.2034"/>
</g>
<!-- Node30&#45;&gt;Node15 -->
<g id="edge44" class="edge">
<title>Node30&#45;&gt;Node15</title>
<path fill="none" stroke="#191970" d="M1395.8136,-112.4369C1320.159,-102.1287 1200.4585,-85.8192 1124.911,-75.5256"/>
<polygon fill="#191970" stroke="#191970" points="1124.9342,-71.9965 1114.5532,-74.1143 1123.9891,-78.9324 1124.9342,-71.9965"/>
</g>
<!-- Node30&#45;&gt;Node25 -->
<g id="edge49" class="edge">
<title>Node30&#45;&gt;Node25</title>
<path fill="none" stroke="#191970" d="M1447.8846,-112.2455C1431.555,-103.4527 1407.329,-90.4079 1388.7661,-80.4125"/>
<polygon fill="#191970" stroke="#191970" points="1390.3719,-77.3021 1379.9078,-75.6427 1387.0532,-83.4654 1390.3719,-77.3021"/>
</g>
<!-- Node30&#45;&gt;Node26 -->
<g id="edge46" class="edge">
<title>Node30&#45;&gt;Node26</title>
<path fill="none" stroke="#191970" d="M1435.9164,-112.3733C1405.4057,-102.6098 1358.2193,-87.5102 1326.0396,-77.2127"/>
<polygon fill="#191970" stroke="#191970" points="1326.7501,-73.7652 1316.1591,-74.0509 1324.6166,-80.4322 1326.7501,-73.7652"/>
</g>
<!-- Node31 -->
<g id="node32" class="node">
<title>Node31</title>
<polygon fill="none" stroke="#bfbfbf" points="1446,-56.5 1446,-75.5 1506,-75.5 1506,-56.5 1446,-56.5"/>
<text text-anchor="middle" x="1476" y="-63.5" font-family="FreeSans.ttf" font-size="10.00" fill="#000000">iostream</text>
</g>
<!-- Node30&#45;&gt;Node31 -->
<g id="edge48" class="edge">
<title>Node30&#45;&gt;Node31</title>
<path fill="none" stroke="#191970" d="M1467.7419,-112.2455C1469.0467,-104.9382 1470.876,-94.6944 1472.4813,-85.7046"/>
<polygon fill="#191970" stroke="#191970" points="1475.9656,-86.1022 1474.2781,-75.6427 1469.0746,-84.8717 1475.9656,-86.1022"/>
</g>
<!-- Node32&#45;&gt;Node13 -->
<g id="edge52" class="edge">
<title>Node32&#45;&gt;Node13</title>
<path fill="none" stroke="#191970" d="M971.6006,-112.4686C861.4569,-99.8808 672.6567,-78.3036 597.3721,-69.6997"/>
<polygon fill="#191970" stroke="#191970" points="597.4439,-66.1852 587.1111,-68.527 596.649,-73.1399 597.4439,-66.1852"/>
</g>
<!-- Node32&#45;&gt;Node15 -->
<g id="edge53" class="edge">
<title>Node32&#45;&gt;Node15</title>
<path fill="none" stroke="#191970" d="M1055,-112.2455C1055,-104.9382 1055,-94.6944 1055,-85.7046"/>
<polygon fill="#191970" stroke="#191970" points="1058.5001,-85.6426 1055,-75.6427 1051.5001,-85.6427 1058.5001,-85.6426"/>
</g>
<!-- Node33&#45;&gt;Node13 -->
<g id="edge58" class="edge">
<title>Node33&#45;&gt;Node13</title>
<path fill="none" stroke="#191970" d="M670.1679,-112.3733C649.6897,-103.3435 618.8601,-89.7494 595.8681,-79.6111"/>
<polygon fill="#191970" stroke="#191970" points="597.1093,-76.3333 586.5472,-75.5011 594.285,-82.7383 597.1093,-76.3333"/>
</g>
<!-- Node33&#45;&gt;Node15 -->
<g id="edge59" class="edge">
<title>Node33&#45;&gt;Node15</title>
<path fill="none" stroke="#191970" d="M753.9895,-112.4369C818.2239,-102.5274 918.409,-87.0719 985.3405,-76.7464"/>
<polygon fill="#191970" stroke="#191970" points="986.0266,-80.182 995.376,-75.1982 984.9592,-73.2639 986.0266,-80.182"/>
</g>
<!-- Node35&#45;&gt;Node2 -->
<g id="edge67" class="edge">
<title>Node35&#45;&gt;Node2</title>
<path fill="none" stroke="#191970" d="M243.1805,-392.2455C246.381,-384.7776 250.896,-374.2427 254.8084,-365.1137"/>
<polygon fill="#191970" stroke="#191970" points="258.1452,-366.2129 258.8674,-355.6427 251.7112,-363.4554 258.1452,-366.2129"/>
</g>
<!-- Node35&#45;&gt;Node7 -->
<g id="edge65" class="edge">
<title>Node35&#45;&gt;Node7</title>
<path fill="none" stroke="#191970" d="M200.6005,-392.4689C133.0408,-374.5679 0,-333.7611 0,-290 0,-290 0,-290 0,-122 0,-81.257 35.7642,-45.48 60.0541,-25.8797"/>
<polygon fill="#191970" stroke="#191970" points="62.3381,-28.5375 68.0898,-19.6399 58.0448,-23.0087 62.3381,-28.5375"/>
</g>
<!-- Node35&#45;&gt;Node13 -->
<g id="edge66" class="edge">
<title>Node35&#45;&gt;Node13</title>
<path fill="none" stroke="#191970" d="M204.8206,-392.4964C186.1775,-385.4952 164.4275,-373.9952 152,-356 90.1253,-266.4046 81.482,-169.4128 174,-112 235.1789,-74.035 424.5843,-85.1648 496,-76 508.0415,-74.4547 521.2388,-72.5853 532.838,-70.883"/>
<polygon fill="#191970" stroke="#191970" points="533.5841,-74.3107 542.962,-69.3806 532.5565,-67.3865 533.5841,-74.3107"/>
</g>
<!-- Node35&#45;&gt;Node14 -->
<g id="edge68" class="edge">
<title>Node35&#45;&gt;Node14</title>
<path fill="none" stroke="#191970" d="M273.8969,-392.3733C308.0911,-382.9404 360.3415,-368.5265 397.5042,-358.2747"/>
<polygon fill="#191970" stroke="#191970" points="398.8493,-361.5345 407.5584,-355.5011 396.9877,-354.7865 398.8493,-361.5345"/>
</g>
<!-- Node36&#45;&gt;Node13 -->
<g id="edge71" class="edge">
<title>Node36&#45;&gt;Node13</title>
<path fill="none" stroke="#191970" d="M1083.9547,-448.162C1104.9513,-420.9345 1158.5473,-342.4711 1133,-280 1106.5905,-215.4207 1079.9012,-208.3758 1023,-168 1011.0823,-159.5435 918.0139,-116.1416 904,-112 794.6553,-79.6847 658.67,-69.9678 597.489,-67.1287"/>
<polygon fill="#191970" stroke="#191970" points="597.4416,-63.6235 587.2998,-66.6883 597.1393,-70.617 597.4416,-63.6235"/>
</g>
<!-- Node36&#45;&gt;Node14 -->
<g id="edge73" class="edge">
<title>Node36&#45;&gt;Node14</title>
<path fill="none" stroke="#191970" d="M1060.0795,-448.3738C1034.5185,-433.4421 982.2863,-405.0602 934,-392 860.1705,-372.031 650.5119,-357.5637 530.0486,-350.6214"/>
<polygon fill="#191970" stroke="#191970" points="529.9317,-347.1091 519.7485,-350.0336 529.5328,-354.0978 529.9317,-347.1091"/>
</g>
<!-- Node36&#45;&gt;Node16 -->
<g id="edge72" class="edge">
<title>Node36&#45;&gt;Node16</title>
<path fill="none" stroke="#191970" d="M1077.3591,-448.4862C1081.153,-421.9293 1091.9193,-346.5651 1097.1192,-310.1655"/>
<polygon fill="#191970" stroke="#191970" points="1100.6465,-310.2224 1098.596,-299.8279 1093.7169,-309.2324 1100.6465,-310.2224"/>
</g>
<!-- Node36&#45;&gt;Node34 -->
<g id="edge70" class="edge">
<title>Node36&#45;&gt;Node34</title>
<path fill="none" stroke="#191970" d="M1045.0569,-448.3733C1014.5406,-438.8793 967.8059,-424.3396 934.816,-414.0761"/>
<polygon fill="#191970" stroke="#191970" points="935.6405,-410.6672 925.0521,-411.0384 933.5609,-417.3512 935.6405,-410.6672"/>
</g>
<!-- Node37&#45;&gt;Node13 -->
<g id="edge75" class="edge">
<title>Node37&#45;&gt;Node13</title>
<path fill="none" stroke="#191970" d="M318.3198,-393.5707C264.1076,-383.3849 180.6949,-366.3312 170,-356 148.1321,-334.8757 152,-320.4047 152,-290 152,-290 152,-290 152,-178 152,-137.4482 178.8093,-130.2942 215,-112 327.3689,-55.198 371.2474,-93.0301 496,-76 508.0287,-74.3579 521.2232,-72.4676 532.8238,-70.7756"/>
<polygon fill="#191970" stroke="#191970" points="533.5639,-74.2046 542.95,-69.2902 532.5479,-67.2787 533.5639,-74.2046"/>
</g>
<!-- Node37&#45;&gt;Node14 -->
<g id="edge76" class="edge">
<title>Node37&#45;&gt;Node14</title>
<path fill="none" stroke="#191970" d="M378.4124,-392.2455C390.0057,-383.814 406.9748,-371.4729 420.4678,-361.6598"/>
<polygon fill="#191970" stroke="#191970" points="422.7126,-364.355 428.7413,-355.6427 418.5953,-358.6938 422.7126,-364.355"/>
</g>
<!-- Node38&#45;&gt;Node13 -->
<g id="edge80" class="edge">
<title>Node38&#45;&gt;Node13</title>
<path fill="none" stroke="#191970" d="M899.8298,-448.3395C910.3428,-439.8171 924.918,-426.5198 934,-412 993.8275,-316.3508 1067.3638,-261.3441 1004,-168 999.2662,-161.0264 871.133,-114.2124 863,-112 768.2878,-86.2351 652.4545,-73.5354 597.2468,-68.5838"/>
<polygon fill="#191970" stroke="#191970" points="597.3037,-65.0756 587.0378,-67.6953 596.6967,-72.0493 597.3037,-65.0756"/>
</g>
<!-- Node38&#45;&gt;Node14 -->
<g id="edge82" class="edge">
<title>Node38&#45;&gt;Node14</title>
<path fill="none" stroke="#191970" d="M880.5029,-448.3723C869.8329,-433.4385 847.0589,-405.0539 820,-392 770.3783,-368.0613 625.1354,-355.7949 529.8206,-350.1494"/>
<polygon fill="#191970" stroke="#191970" points="529.793,-346.6421 519.6075,-349.5585 529.3885,-353.6304 529.793,-346.6421"/>
</g>
<!-- Node38&#45;&gt;Node15 -->
<g id="edge81" class="edge">
<title>Node38&#45;&gt;Node15</title>
<path fill="none" stroke="#191970" d="M913.1777,-448.4422C932.073,-440.6506 957.4247,-428.2778 976,-412 1029.7817,-364.8703 1014.7968,-327.7818 1068,-280 1169.8127,-188.5621 1268.2672,-249.7457 1338,-132 1342.5295,-124.3518 1343.7592,-118.7709 1338,-112 1324.323,-95.9204 1204.5117,-80.9528 1125.2273,-72.6837"/>
<polygon fill="#191970" stroke="#191970" points="1125.1125,-69.1535 1114.8066,-71.611 1124.3956,-76.1167 1125.1125,-69.1535"/>
</g>
<!-- Node38&#45;&gt;Node16 -->
<g id="edge79" class="edge">
<title>Node38&#45;&gt;Node16</title>
<path fill="none" stroke="#191970" d="M933.2129,-448.4989C958.889,-441.5366 990.3297,-430.0744 1014,-412 1050.8912,-383.8303 1078.2596,-335.3552 1091.371,-308.7795"/>
<polygon fill="#191970" stroke="#191970" points="1094.5303,-310.2858 1095.6882,-299.7544 1088.2156,-307.2651 1094.5303,-310.2858"/>
</g>
<!-- Node38&#45;&gt;Node19 -->
<g id="edge83" class="edge">
<title>Node38&#45;&gt;Node19</title>
<path fill="none" stroke="#191970" d="M859.8388,-448.3733C833.7933,-439.1419 794.2884,-425.1402 765.5021,-414.9375"/>
<polygon fill="#191970" stroke="#191970" points="766.4015,-411.5429 755.8067,-411.5011 764.063,-418.1408 766.4015,-411.5429"/>
</g>
<!-- Node38&#45;&gt;Node34 -->
<g id="edge78" class="edge">
<title>Node38&#45;&gt;Node34</title>
<path fill="none" stroke="#191970" d="M888.5677,-448.2455C889.7421,-440.9382 891.3884,-430.6944 892.8332,-421.7046"/>
<polygon fill="#191970" stroke="#191970" points="896.3191,-422.0714 894.4503,-411.6427 889.4078,-420.9606 896.3191,-422.0714"/>
</g>
</g>
</svg>
