<?xml version="1.0" encoding="UTF-8" standalone="no"?>
<!DOCTYPE svg PUBLIC "-//W3C//DTD SVG 1.1//EN"
 "http://www.w3.org/Graphics/SVG/1.1/DTD/svg11.dtd">
<!-- Generated by graphviz version 2.40.1 (20161225.0304)
 -->
<!-- Title: OptimizationProblem.cpp Pages: 1 -->
<svg width="320pt" height="140pt"
 viewBox="0.00 0.00 320.00 140.00" xmlns="http://www.w3.org/2000/svg" xmlns:xlink="http://www.w3.org/1999/xlink">
<g id="graph0" class="graph" transform="scale(1 1) rotate(0) translate(4 136)">
<title>OptimizationProblem.cpp</title>
<!-- Node0 -->
<g id="node1" class="node">
<title>Node0</title>
<polygon fill="#bfbfbf" stroke="#000000" points="99.5,-112.5 99.5,-131.5 239.5,-131.5 239.5,-112.5 99.5,-112.5"/>
<text text-anchor="middle" x="169.5" y="-119.5" font-family="FreeSans.ttf" font-size="10.00" fill="#000000">OptimizationProblem.cpp</text>
</g>
<!-- Node1 -->
<g id="node2" class="node">
<title>Node1</title>
<g id="a_node2"><a xlink:href="OptimizationProblem_8h.html" target="_top" xlink:title="iDynTree/OptimizationProblem.h">
<polygon fill="none" stroke="#000000" points="0,-56.5 0,-75.5 175,-75.5 175,-56.5 0,-56.5"/>
<text text-anchor="middle" x="87.5" y="-63.5" font-family="FreeSans.ttf" font-size="10.00" fill="#000000">iDynTree/OptimizationProblem.h</text>
</a>
</g>
</g>
<!-- Node0&#45;&gt;Node1 -->
<g id="edge1" class="edge">
<title>Node0&#45;&gt;Node1</title>
<path fill="none" stroke="#191970" d="M155.2167,-112.2455C142.753,-103.7337 124.4549,-91.2375 110.0208,-81.3801"/>
<polygon fill="#191970" stroke="#191970" points="111.8515,-78.392 101.6196,-75.6427 107.9038,-84.1726 111.8515,-78.392"/>
</g>
<!-- Node5 -->
<g id="node6" class="node">
<title>Node5</title>
<g id="a_node6"><a xlink:href="Utils_8h.html" target="_top" xlink:title="iDynTree/Core/Utils.h">
<polygon fill="none" stroke="#000000" points="193,-56.5 193,-75.5 312,-75.5 312,-56.5 193,-56.5"/>
<text text-anchor="middle" x="252.5" y="-63.5" font-family="FreeSans.ttf" font-size="10.00" fill="#000000">iDynTree/Core/Utils.h</text>
</a>
</g>
</g>
<!-- Node0&#45;&gt;Node5 -->
<g id="edge5" class="edge">
<title>Node0&#45;&gt;Node5</title>
<path fill="none" stroke="#191970" d="M183.9575,-112.2455C196.5732,-103.7337 215.0944,-91.2375 229.7045,-81.3801"/>
<polygon fill="#191970" stroke="#191970" points="231.8761,-84.1371 238.2082,-75.6427 227.9609,-78.3343 231.8761,-84.1371"/>
</g>
<!-- Node2 -->
<g id="node3" class="node">
<title>Node2</title>
<polygon fill="none" stroke="#bfbfbf" points="29,-.5 29,-19.5 76,-19.5 76,-.5 29,-.5"/>
<text text-anchor="middle" x="52.5" y="-7.5" font-family="FreeSans.ttf" font-size="10.00" fill="#000000">vector</text>
</g>
<!-- Node1&#45;&gt;Node2 -->
<g id="edge2" class="edge">
<title>Node1&#45;&gt;Node2</title>
<path fill="none" stroke="#191970" d="M81.4035,-56.2455C76.5855,-48.5367 69.7249,-37.5598 63.8968,-28.2348"/>
<polygon fill="#191970" stroke="#191970" points="66.7947,-26.2677 58.5267,-19.6427 60.8587,-29.9777 66.7947,-26.2677"/>
</g>
<!-- Node3 -->
<g id="node4" class="node">
<title>Node3</title>
<polygon fill="none" stroke="#bfbfbf" points="94.5,-.5 94.5,-19.5 152.5,-19.5 152.5,-.5 94.5,-.5"/>
<text text-anchor="middle" x="123.5" y="-7.5" font-family="FreeSans.ttf" font-size="10.00" fill="#000000">memory</text>
</g>
<!-- Node1&#45;&gt;Node3 -->
<g id="edge3" class="edge">
<title>Node1&#45;&gt;Node3</title>
<path fill="none" stroke="#191970" d="M93.7707,-56.2455C98.7264,-48.5367 105.783,-37.5598 111.7776,-28.2348"/>
<polygon fill="#191970" stroke="#191970" points="114.8376,-29.9471 117.3011,-19.6427 108.9494,-26.1618 114.8376,-29.9471"/>
</g>
<!-- Node4 -->
<g id="node5" class="node">
<title>Node4</title>
<polygon fill="none" stroke="#bfbfbf" points="198,-.5 198,-19.5 251,-19.5 251,-.5 198,-.5"/>
<text text-anchor="middle" x="224.5" y="-7.5" font-family="FreeSans.ttf" font-size="10.00" fill="#000000">cstddef</text>
</g>
<!-- Node1&#45;&gt;Node4 -->
<g id="edge4" class="edge">
<title>Node1&#45;&gt;Node4</title>
<path fill="none" stroke="#191970" d="M111.0511,-56.3733C133.3391,-47.2629 166.9937,-33.5062 191.8637,-23.3404"/>
<polygon fill="#191970" stroke="#191970" points="193.3239,-26.5247 201.2562,-19.5011 190.6753,-20.0451 193.3239,-26.5247"/>
</g>
<!-- Node5&#45;&gt;Node4 -->
<g id="edge6" class="edge">
<title>Node5&#45;&gt;Node4</title>
<path fill="none" stroke="#191970" d="M247.6228,-56.2455C243.8487,-48.6973 238.5079,-38.0158 233.9099,-28.8197"/>
<polygon fill="#191970" stroke="#191970" points="236.924,-27.0217 229.3213,-19.6427 230.663,-30.1522 236.924,-27.0217"/>
</g>
</g>
</svg>
