<?xml version="1.0" encoding="UTF-8" standalone="no"?>
<!DOCTYPE svg PUBLIC "-//W3C//DTD SVG 1.1//EN"
 "http://www.w3.org/Graphics/SVG/1.1/DTD/svg11.dtd">
<!-- Generated by graphviz version 2.40.1 (20161225.0304)
 -->
<!-- Title: OptimizationProblem.h Pages: 1 -->
<svg width="203pt" height="84pt"
 viewBox="0.00 0.00 203.00 84.00" xmlns="http://www.w3.org/2000/svg" xmlns:xlink="http://www.w3.org/1999/xlink">
<g id="graph0" class="graph" transform="scale(1 1) rotate(0) translate(4 80)">
<title>OptimizationProblem.h</title>
<!-- Node0 -->
<g id="node1" class="node">
<title>Node0</title>
<polygon fill="#bfbfbf" stroke="#000000" points="30,-56.5 30,-75.5 159,-75.5 159,-56.5 30,-56.5"/>
<text text-anchor="middle" x="94.5" y="-63.5" font-family="FreeSans.ttf" font-size="10.00" fill="#000000">OptimizationProblem.h</text>
</g>
<!-- Node1 -->
<g id="node2" class="node">
<title>Node1</title>
<polygon fill="none" stroke="#bfbfbf" points="0,-.5 0,-19.5 47,-19.5 47,-.5 0,-.5"/>
<text text-anchor="middle" x="23.5" y="-7.5" font-family="FreeSans.ttf" font-size="10.00" fill="#000000">vector</text>
</g>
<!-- Node0&#45;&gt;Node1 -->
<g id="edge1" class="edge">
<title>Node0&#45;&gt;Node1</title>
<path fill="none" stroke="#191970" d="M82.1327,-56.2455C71.5446,-47.8943 56.0936,-35.7076 43.7107,-25.9408"/>
<polygon fill="#191970" stroke="#191970" points="45.7447,-23.0875 35.7255,-19.6427 41.4097,-28.5837 45.7447,-23.0875"/>
</g>
<!-- Node2 -->
<g id="node3" class="node">
<title>Node2</title>
<polygon fill="none" stroke="#bfbfbf" points="65.5,-.5 65.5,-19.5 123.5,-19.5 123.5,-.5 65.5,-.5"/>
<text text-anchor="middle" x="94.5" y="-7.5" font-family="FreeSans.ttf" font-size="10.00" fill="#000000">memory</text>
</g>
<!-- Node0&#45;&gt;Node2 -->
<g id="edge2" class="edge">
<title>Node0&#45;&gt;Node2</title>
<path fill="none" stroke="#191970" d="M94.5,-56.2455C94.5,-48.9382 94.5,-38.6944 94.5,-29.7046"/>
<polygon fill="#191970" stroke="#191970" points="98.0001,-29.6426 94.5,-19.6427 91.0001,-29.6427 98.0001,-29.6426"/>
</g>
<!-- Node3 -->
<g id="node4" class="node">
<title>Node3</title>
<polygon fill="none" stroke="#bfbfbf" points="142,-.5 142,-19.5 195,-19.5 195,-.5 142,-.5"/>
<text text-anchor="middle" x="168.5" y="-7.5" font-family="FreeSans.ttf" font-size="10.00" fill="#000000">cstddef</text>
</g>
<!-- Node0&#45;&gt;Node3 -->
<g id="edge3" class="edge">
<title>Node0&#45;&gt;Node3</title>
<path fill="none" stroke="#191970" d="M107.3898,-56.2455C118.4254,-47.8943 134.5292,-35.7076 147.4353,-25.9408"/>
<polygon fill="#191970" stroke="#191970" points="149.8959,-28.4681 155.7579,-19.6427 145.6717,-22.8862 149.8959,-28.4681"/>
</g>
</g>
</svg>
