<?xml version="1.0" encoding="UTF-8" standalone="no"?>
<!DOCTYPE svg PUBLIC "-//W3C//DTD SVG 1.1//EN"
 "http://www.w3.org/Graphics/SVG/1.1/DTD/svg11.dtd">
<!-- Generated by graphviz version 2.40.1 (20161225.0304)
 -->
<!-- Title: Optimizer.cpp Pages: 1 -->
<svg width="819pt" height="196pt"
 viewBox="0.00 0.00 818.50 196.00" xmlns="http://www.w3.org/2000/svg" xmlns:xlink="http://www.w3.org/1999/xlink">
<g id="graph0" class="graph" transform="scale(1 1) rotate(0) translate(4 192)">
<title>Optimizer.cpp</title>
<!-- Node0 -->
<g id="node1" class="node">
<title>Node0</title>
<polygon fill="#bfbfbf" stroke="#000000" points="529.5,-168.5 529.5,-187.5 613.5,-187.5 613.5,-168.5 529.5,-168.5"/>
<text text-anchor="middle" x="571.5" y="-175.5" font-family="FreeSans.ttf" font-size="10.00" fill="#000000">Optimizer.cpp</text>
</g>
<!-- Node1 -->
<g id="node2" class="node">
<title>Node1</title>
<g id="a_node2"><a xlink:href="VectorDynSize_8h.html" target="_top" xlink:title="iDynTree/Core/VectorDynSize.h">
<polygon fill="none" stroke="#000000" points="327,-112.5 327,-131.5 494,-131.5 494,-112.5 327,-112.5"/>
<text text-anchor="middle" x="410.5" y="-119.5" font-family="FreeSans.ttf" font-size="10.00" fill="#000000">iDynTree/Core/VectorDynSize.h</text>
</a>
</g>
</g>
<!-- Node0&#45;&gt;Node1 -->
<g id="edge1" class="edge">
<title>Node0&#45;&gt;Node1</title>
<path fill="none" stroke="#191970" d="M543.8231,-168.3733C517.1672,-159.1016 476.6762,-145.0178 447.3116,-134.804"/>
<polygon fill="#191970" stroke="#191970" points="448.4105,-131.4807 437.8157,-131.5011 446.1109,-138.0921 448.4105,-131.4807"/>
</g>
<!-- Node13 -->
<g id="node14" class="node">
<title>Node13</title>
<g id="a_node14"><a xlink:href="Optimizer_8h.html" target="_top" xlink:title="iDynTree/Optimizer.h">
<polygon fill="none" stroke="#000000" points="649,-112.5 649,-131.5 768,-131.5 768,-112.5 649,-112.5"/>
<text text-anchor="middle" x="708.5" y="-119.5" font-family="FreeSans.ttf" font-size="10.00" fill="#000000">iDynTree/Optimizer.h</text>
</a>
</g>
</g>
<!-- Node0&#45;&gt;Node13 -->
<g id="edge13" class="edge">
<title>Node0&#45;&gt;Node13</title>
<path fill="none" stroke="#191970" d="M595.0511,-168.3733C617.3391,-159.2629 650.9937,-145.5062 675.8637,-135.3404"/>
<polygon fill="#191970" stroke="#191970" points="677.3239,-138.5247 685.2562,-131.5011 674.6753,-132.0451 677.3239,-138.5247"/>
</g>
<!-- Node17 -->
<g id="node18" class="node">
<title>Node17</title>
<g id="a_node18"><a xlink:href="Utils_8h.html" target="_top" xlink:title="iDynTree/Core/Utils.h">
<polygon fill="none" stroke="#000000" points="512,-112.5 512,-131.5 631,-131.5 631,-112.5 512,-112.5"/>
<text text-anchor="middle" x="571.5" y="-119.5" font-family="FreeSans.ttf" font-size="10.00" fill="#000000">iDynTree/Core/Utils.h</text>
</a>
</g>
</g>
<!-- Node0&#45;&gt;Node17 -->
<g id="edge19" class="edge">
<title>Node0&#45;&gt;Node17</title>
<path fill="none" stroke="#191970" d="M571.5,-168.2455C571.5,-160.9382 571.5,-150.6944 571.5,-141.7046"/>
<polygon fill="#191970" stroke="#191970" points="575.0001,-141.6426 571.5,-131.6427 568.0001,-141.6427 575.0001,-141.6426"/>
</g>
<!-- Node2 -->
<g id="node3" class="node">
<title>Node2</title>
<g id="a_node3"><a xlink:href="Span_8h.html" target="_top" xlink:title="iDynTree/Core/Span.h">
<polygon fill="none" stroke="#000000" points="263,-56.5 263,-75.5 384,-75.5 384,-56.5 263,-56.5"/>
<text text-anchor="middle" x="323.5" y="-63.5" font-family="FreeSans.ttf" font-size="10.00" fill="#000000">iDynTree/Core/Span.h</text>
</a>
</g>
</g>
<!-- Node1&#45;&gt;Node2 -->
<g id="edge2" class="edge">
<title>Node1&#45;&gt;Node2</title>
<path fill="none" stroke="#191970" d="M395.3458,-112.2455C381.9973,-103.6534 362.3414,-91.0014 346.9617,-81.1018"/>
<polygon fill="#191970" stroke="#191970" points="348.7836,-78.1121 338.4806,-75.6427 344.9949,-83.9982 348.7836,-78.1121"/>
</g>
<!-- Node12 -->
<g id="node13" class="node">
<title>Node12</title>
<polygon fill="none" stroke="#bfbfbf" points="402.5,-56.5 402.5,-75.5 446.5,-75.5 446.5,-56.5 402.5,-56.5"/>
<text text-anchor="middle" x="424.5" y="-63.5" font-family="FreeSans.ttf" font-size="10.00" fill="#000000">string</text>
</g>
<!-- Node1&#45;&gt;Node12 -->
<g id="edge12" class="edge">
<title>Node1&#45;&gt;Node12</title>
<path fill="none" stroke="#191970" d="M412.9386,-112.2455C414.7855,-104.8579 417.3828,-94.4689 419.6478,-85.4087"/>
<polygon fill="#191970" stroke="#191970" points="423.0594,-86.193 422.0893,-75.6427 416.2684,-84.4952 423.0594,-86.193"/>
</g>
<!-- Node3 -->
<g id="node4" class="node">
<title>Node3</title>
<polygon fill="none" stroke="#bfbfbf" points="150.5,-.5 150.5,-19.5 202.5,-19.5 202.5,-.5 150.5,-.5"/>
<text text-anchor="middle" x="176.5" y="-7.5" font-family="FreeSans.ttf" font-size="10.00" fill="#000000">cassert</text>
</g>
<!-- Node2&#45;&gt;Node3 -->
<g id="edge3" class="edge">
<title>Node2&#45;&gt;Node3</title>
<path fill="none" stroke="#191970" d="M298.2298,-56.3733C274.1034,-47.1822 237.5638,-33.2624 210.8123,-23.0713"/>
<polygon fill="#191970" stroke="#191970" points="212.0313,-19.7904 201.4404,-19.5011 209.5393,-26.3318 212.0313,-19.7904"/>
</g>
<!-- Node4 -->
<g id="node5" class="node">
<title>Node4</title>
<polygon fill="none" stroke="#bfbfbf" points="220.5,-.5 220.5,-19.5 284.5,-19.5 284.5,-.5 220.5,-.5"/>
<text text-anchor="middle" x="252.5" y="-7.5" font-family="FreeSans.ttf" font-size="10.00" fill="#000000">algorithm</text>
</g>
<!-- Node2&#45;&gt;Node4 -->
<g id="edge4" class="edge">
<title>Node2&#45;&gt;Node4</title>
<path fill="none" stroke="#191970" d="M311.1327,-56.2455C300.5446,-47.8943 285.0936,-35.7076 272.7107,-25.9408"/>
<polygon fill="#191970" stroke="#191970" points="274.7447,-23.0875 264.7255,-19.6427 270.4097,-28.5837 274.7447,-23.0875"/>
</g>
<!-- Node5 -->
<g id="node6" class="node">
<title>Node5</title>
<polygon fill="none" stroke="#bfbfbf" points="302.5,-.5 302.5,-19.5 344.5,-19.5 344.5,-.5 302.5,-.5"/>
<text text-anchor="middle" x="323.5" y="-7.5" font-family="FreeSans.ttf" font-size="10.00" fill="#000000">array</text>
</g>
<!-- Node2&#45;&gt;Node5 -->
<g id="edge5" class="edge">
<title>Node2&#45;&gt;Node5</title>
<path fill="none" stroke="#191970" d="M323.5,-56.2455C323.5,-48.9382 323.5,-38.6944 323.5,-29.7046"/>
<polygon fill="#191970" stroke="#191970" points="327.0001,-29.6426 323.5,-19.6427 320.0001,-29.6427 327.0001,-29.6426"/>
</g>
<!-- Node6 -->
<g id="node7" class="node">
<title>Node6</title>
<polygon fill="none" stroke="#bfbfbf" points="580,-.5 580,-19.5 633,-19.5 633,-.5 580,-.5"/>
<text text-anchor="middle" x="606.5" y="-7.5" font-family="FreeSans.ttf" font-size="10.00" fill="#000000">cstddef</text>
</g>
<!-- Node2&#45;&gt;Node6 -->
<g id="edge6" class="edge">
<title>Node2&#45;&gt;Node6</title>
<path fill="none" stroke="#191970" d="M383.7161,-56.4756C431.7811,-48.4989 501.0161,-36.1764 569.6898,-20.2779"/>
<polygon fill="#191970" stroke="#191970" points="570.877,-23.5947 579.8154,-17.9064 569.2807,-16.7791 570.877,-23.5947"/>
</g>
<!-- Node7 -->
<g id="node8" class="node">
<title>Node7</title>
<polygon fill="none" stroke="#bfbfbf" points="363,-.5 363,-19.5 416,-19.5 416,-.5 363,-.5"/>
<text text-anchor="middle" x="389.5" y="-7.5" font-family="FreeSans.ttf" font-size="10.00" fill="#000000">iterator</text>
</g>
<!-- Node2&#45;&gt;Node7 -->
<g id="edge7" class="edge">
<title>Node2&#45;&gt;Node7</title>
<path fill="none" stroke="#191970" d="M334.9963,-56.2455C344.7442,-47.9746 358.9259,-35.9416 370.3798,-26.2232"/>
<polygon fill="#191970" stroke="#191970" points="372.7747,-28.7813 378.1354,-19.6427 368.2459,-23.4437 372.7747,-28.7813"/>
</g>
<!-- Node8 -->
<g id="node9" class="node">
<title>Node8</title>
<polygon fill="none" stroke="#bfbfbf" points="434.5,-.5 434.5,-19.5 478.5,-19.5 478.5,-.5 434.5,-.5"/>
<text text-anchor="middle" x="456.5" y="-7.5" font-family="FreeSans.ttf" font-size="10.00" fill="#000000">limits</text>
</g>
<!-- Node2&#45;&gt;Node8 -->
<g id="edge8" class="edge">
<title>Node2&#45;&gt;Node8</title>
<path fill="none" stroke="#191970" d="M346.3635,-56.3733C368.0355,-47.2482 400.7779,-33.462 424.9331,-23.2913"/>
<polygon fill="#191970" stroke="#191970" points="426.5186,-26.4214 434.3768,-19.315 423.8022,-19.9699 426.5186,-26.4214"/>
</g>
<!-- Node9 -->
<g id="node10" class="node">
<title>Node9</title>
<polygon fill="none" stroke="#bfbfbf" points="497,-.5 497,-19.5 562,-19.5 562,-.5 497,-.5"/>
<text text-anchor="middle" x="529.5" y="-7.5" font-family="FreeSans.ttf" font-size="10.00" fill="#000000">stdexcept</text>
</g>
<!-- Node2&#45;&gt;Node9 -->
<g id="edge9" class="edge">
<title>Node2&#45;&gt;Node9</title>
<path fill="none" stroke="#191970" d="M358.9127,-56.3733C394.4997,-46.6991 449.3589,-31.7859 487.2097,-21.4964"/>
<polygon fill="#191970" stroke="#191970" points="488.1919,-24.8565 496.9235,-18.8557 486.3556,-18.1016 488.1919,-24.8565"/>
</g>
<!-- Node10 -->
<g id="node11" class="node">
<title>Node10</title>
<polygon fill="none" stroke="#bfbfbf" points="0,-.5 0,-19.5 69,-19.5 69,-.5 0,-.5"/>
<text text-anchor="middle" x="34.5" y="-7.5" font-family="FreeSans.ttf" font-size="10.00" fill="#000000">type_traits</text>
</g>
<!-- Node2&#45;&gt;Node10 -->
<g id="edge10" class="edge">
<title>Node2&#45;&gt;Node10</title>
<path fill="none" stroke="#191970" d="M268.6497,-56.4508C220.9502,-47.9861 149.7378,-34.9656 79.1575,-20.2894"/>
<polygon fill="#191970" stroke="#191970" points="79.7097,-16.8293 69.205,-18.2079 78.2766,-23.681 79.7097,-16.8293"/>
</g>
<!-- Node11 -->
<g id="node12" class="node">
<title>Node11</title>
<polygon fill="none" stroke="#bfbfbf" points="87,-.5 87,-19.5 132,-19.5 132,-.5 87,-.5"/>
<text text-anchor="middle" x="109.5" y="-7.5" font-family="FreeSans.ttf" font-size="10.00" fill="#000000">utility</text>
</g>
<!-- Node2&#45;&gt;Node11 -->
<g id="edge11" class="edge">
<title>Node2&#45;&gt;Node11</title>
<path fill="none" stroke="#191970" d="M283.2087,-56.4939C248.3109,-48.1091 196.2689,-35.2449 141.9793,-20.0241"/>
<polygon fill="#191970" stroke="#191970" points="142.7541,-16.6061 132.1793,-17.2574 140.8522,-23.3428 142.7541,-16.6061"/>
</g>
<!-- Node14 -->
<g id="node15" class="node">
<title>Node14</title>
<polygon fill="none" stroke="#bfbfbf" points="752.5,-.5 752.5,-19.5 810.5,-19.5 810.5,-.5 752.5,-.5"/>
<text text-anchor="middle" x="781.5" y="-7.5" font-family="FreeSans.ttf" font-size="10.00" fill="#000000">memory</text>
</g>
<!-- Node13&#45;&gt;Node14 -->
<g id="edge14" class="edge">
<title>Node13&#45;&gt;Node14</title>
<path fill="none" stroke="#191970" d="M738.0685,-112.3976C754.9108,-105.2338 774.5794,-93.6009 784.5,-76 792.4104,-61.9656 790.7378,-43.4643 787.6163,-29.622"/>
<polygon fill="#191970" stroke="#191970" points="790.9254,-28.4483 784.9578,-19.694 784.1637,-30.2591 790.9254,-28.4483"/>
</g>
<!-- Node15 -->
<g id="node16" class="node">
<title>Node15</title>
<g id="a_node16"><a xlink:href="OptimizationProblem_8h.html" target="_top" xlink:title="iDynTree/OptimizationProblem.h">
<polygon fill="none" stroke="#000000" points="600,-56.5 600,-75.5 775,-75.5 775,-56.5 600,-56.5"/>
<text text-anchor="middle" x="687.5" y="-63.5" font-family="FreeSans.ttf" font-size="10.00" fill="#000000">iDynTree/OptimizationProblem.h</text>
</a>
</g>
</g>
<!-- Node13&#45;&gt;Node15 -->
<g id="edge15" class="edge">
<title>Node13&#45;&gt;Node15</title>
<path fill="none" stroke="#191970" d="M704.8421,-112.2455C702.0416,-104.7776 698.091,-94.2427 694.6676,-85.1137"/>
<polygon fill="#191970" stroke="#191970" points="697.9045,-83.777 691.116,-75.6427 691.3501,-86.2349 697.9045,-83.777"/>
</g>
<!-- Node15&#45;&gt;Node6 -->
<g id="edge18" class="edge">
<title>Node15&#45;&gt;Node6</title>
<path fill="none" stroke="#191970" d="M673.3909,-56.2455C661.0791,-47.7337 643.0042,-35.2375 628.7462,-25.3801"/>
<polygon fill="#191970" stroke="#191970" points="630.6634,-22.4506 620.4474,-19.6427 626.6826,-28.2085 630.6634,-22.4506"/>
</g>
<!-- Node15&#45;&gt;Node14 -->
<g id="edge17" class="edge">
<title>Node15&#45;&gt;Node14</title>
<path fill="none" stroke="#191970" d="M703.8736,-56.2455C718.4308,-47.5731 739.931,-34.7645 756.6152,-24.825"/>
<polygon fill="#191970" stroke="#191970" points="758.5144,-27.7676 765.3141,-19.6427 754.9317,-21.7539 758.5144,-27.7676"/>
</g>
<!-- Node16 -->
<g id="node17" class="node">
<title>Node16</title>
<polygon fill="none" stroke="#bfbfbf" points="664,-.5 664,-19.5 711,-19.5 711,-.5 664,-.5"/>
<text text-anchor="middle" x="687.5" y="-7.5" font-family="FreeSans.ttf" font-size="10.00" fill="#000000">vector</text>
</g>
<!-- Node15&#45;&gt;Node16 -->
<g id="edge16" class="edge">
<title>Node15&#45;&gt;Node16</title>
<path fill="none" stroke="#191970" d="M687.5,-56.2455C687.5,-48.9382 687.5,-38.6944 687.5,-29.7046"/>
<polygon fill="#191970" stroke="#191970" points="691.0001,-29.6426 687.5,-19.6427 684.0001,-29.6427 691.0001,-29.6426"/>
</g>
<!-- Node17&#45;&gt;Node6 -->
<g id="edge20" class="edge">
<title>Node17&#45;&gt;Node6</title>
<path fill="none" stroke="#191970" d="M574.4175,-112.1402C578.2563,-99.2215 585.2495,-75.873 591.5,-56 594.2337,-47.3084 597.3437,-37.7239 600.0204,-29.5636"/>
<polygon fill="#191970" stroke="#191970" points="603.4152,-30.4444 603.2214,-19.8513 596.767,-28.2532 603.4152,-30.4444"/>
</g>
</g>
</svg>
