<?xml version="1.0" encoding="UTF-8" standalone="no"?>
<!DOCTYPE svg PUBLIC "-//W3C//DTD SVG 1.1//EN"
 "http://www.w3.org/Graphics/SVG/1.1/DTD/svg11.dtd">
<!-- Generated by graphviz version 2.40.1 (20161225.0304)
 -->
<!-- Title: PositionRaw.cpp Pages: 1 -->
<svg width="1679pt" height="576pt"
 viewBox="0.00 0.00 1678.50 576.00" xmlns="http://www.w3.org/2000/svg" xmlns:xlink="http://www.w3.org/1999/xlink">
<g id="graph0" class="graph" transform="scale(1 1) rotate(0) translate(4 572)">
<title>PositionRaw.cpp</title>
<!-- Node0 -->
<g id="node1" class="node">
<title>Node0</title>
<polygon fill="#bfbfbf" stroke="#000000" points="951,-548.5 951,-567.5 1047,-567.5 1047,-548.5 951,-548.5"/>
<text text-anchor="middle" x="999" y="-555.5" font-family="FreeSans.ttf" font-size="10.00" fill="#000000">PositionRaw.cpp</text>
</g>
<!-- Node1 -->
<g id="node2" class="node">
<title>Node1</title>
<g id="a_node2"><a xlink:href="PositionRaw_8h.html" target="_top" xlink:title="iDynTree/Core/PositionRaw.h">
<polygon fill="none" stroke="#000000" points="142,-230 142,-249 298,-249 298,-230 142,-230"/>
<text text-anchor="middle" x="220" y="-237" font-family="FreeSans.ttf" font-size="10.00" fill="#000000">iDynTree/Core/PositionRaw.h</text>
</a>
</g>
</g>
<!-- Node0&#45;&gt;Node1 -->
<g id="edge1" class="edge">
<title>Node0&#45;&gt;Node1</title>
<path fill="none" stroke="#191970" d="M950.7275,-555.8112C771.1499,-547.0369 152,-510.8839 152,-429.5 152,-429.5 152,-429.5 152,-368 152,-323.9402 183.6177,-280.2196 203.7339,-256.8619"/>
<polygon fill="#191970" stroke="#191970" points="206.5074,-259.0103 210.5449,-249.2149 201.2802,-254.3545 206.5074,-259.0103"/>
</g>
<!-- Node3 -->
<g id="node4" class="node">
<title>Node3</title>
<g id="a_node4"><a xlink:href="Utils_8h.html" target="_top" xlink:title="iDynTree/Core/Utils.h">
<polygon fill="none" stroke="#000000" points="887.5,-56.5 887.5,-75.5 1006.5,-75.5 1006.5,-56.5 887.5,-56.5"/>
<text text-anchor="middle" x="947" y="-63.5" font-family="FreeSans.ttf" font-size="10.00" fill="#000000">iDynTree/Core/Utils.h</text>
</a>
</g>
</g>
<!-- Node0&#45;&gt;Node3 -->
<g id="edge79" class="edge">
<title>Node0&#45;&gt;Node3</title>
<path fill="none" stroke="#191970" d="M1032.4094,-548.4166C1110.1773,-525.7835 1298.0138,-469.1137 1315,-445 1354.7654,-388.5487 1579.2562,-580.382 1293,-168 1261.419,-122.5042 1108.3173,-91.1857 1016.6862,-76.1713"/>
<polygon fill="#191970" stroke="#191970" points="1017.08,-72.6896 1006.65,-74.5516 1015.9646,-79.6002 1017.08,-72.6896"/>
</g>
<!-- Node15 -->
<g id="node16" class="node">
<title>Node15</title>
<polygon fill="none" stroke="#bfbfbf" points="62,-56.5 62,-75.5 118,-75.5 118,-56.5 62,-56.5"/>
<text text-anchor="middle" x="90" y="-63.5" font-family="FreeSans.ttf" font-size="10.00" fill="#000000">sstream</text>
</g>
<!-- Node0&#45;&gt;Node15 -->
<g id="edge81" class="edge">
<title>Node0&#45;&gt;Node15</title>
<path fill="none" stroke="#191970" d="M950.784,-556.7905C780.699,-552.3364 214.7714,-535.8592 137,-512 69.0491,-491.1536 0,-500.5767 0,-429.5 0,-429.5 0,-429.5 0,-178 0,-135.8672 39.1791,-100.5758 65.8373,-81.4395"/>
<polygon fill="#191970" stroke="#191970" points="68.0813,-84.1434 74.3232,-75.5825 64.105,-78.3824 68.0813,-84.1434"/>
</g>
<!-- Node17 -->
<g id="node18" class="node">
<title>Node17</title>
<g id="a_node18"><a xlink:href="RotationRaw_8h.html" target="_top" xlink:title="iDynTree/Core/RotationRaw.h">
<polygon fill="none" stroke="#000000" points="445,-168.5 445,-187.5 603,-187.5 603,-168.5 445,-168.5"/>
<text text-anchor="middle" x="524" y="-175.5" font-family="FreeSans.ttf" font-size="10.00" fill="#000000">iDynTree/Core/RotationRaw.h</text>
</a>
</g>
</g>
<!-- Node0&#45;&gt;Node17 -->
<g id="edge20" class="edge">
<title>Node0&#45;&gt;Node17</title>
<path fill="none" stroke="#191970" d="M950.9778,-556.3506C796.6264,-550.8674 319.388,-532.4355 253,-512 184.3396,-490.865 114,-501.3397 114,-429.5 114,-429.5 114,-429.5 114,-306.5 114,-268.8735 104.9811,-249.1137 133,-224 134.4031,-222.7424 319.5751,-201.3708 434.5568,-188.2061"/>
<polygon fill="#191970" stroke="#191970" points="435.2317,-191.6517 444.7688,-187.0373 434.4357,-184.6971 435.2317,-191.6517"/>
</g>
<!-- Node20 -->
<g id="node21" class="node">
<title>Node20</title>
<g id="a_node21"><a xlink:href="SpatialMotionVector_8h.html" target="_top" xlink:title="iDynTree/Core/SpatialMotion\lVector.h">
<polygon fill="none" stroke="#000000" points="921.5,-481.5 921.5,-511.5 1076.5,-511.5 1076.5,-481.5 921.5,-481.5"/>
<text text-anchor="start" x="929.5" y="-499.5" font-family="FreeSans.ttf" font-size="10.00" fill="#000000">iDynTree/Core/SpatialMotion</text>
<text text-anchor="middle" x="999" y="-488.5" font-family="FreeSans.ttf" font-size="10.00" fill="#000000">Vector.h</text>
</a>
</g>
</g>
<!-- Node0&#45;&gt;Node20 -->
<g id="edge29" class="edge">
<title>Node0&#45;&gt;Node20</title>
<path fill="none" stroke="#191970" d="M999,-548.3906C999,-541.2234 999,-531.0862 999,-521.671"/>
<polygon fill="#191970" stroke="#191970" points="1002.5001,-521.5446 999,-511.5446 995.5001,-521.5446 1002.5001,-521.5446"/>
</g>
<!-- Node33 -->
<g id="node34" class="node">
<title>Node33</title>
<g id="a_node34"><a xlink:href="SpatialForceVector_8h.html" target="_top" xlink:title="iDynTree/Core/SpatialForce\lVector.h">
<polygon fill="none" stroke="#000000" points="671,-481.5 671,-511.5 819,-511.5 819,-481.5 671,-481.5"/>
<text text-anchor="start" x="679" y="-499.5" font-family="FreeSans.ttf" font-size="10.00" fill="#000000">iDynTree/Core/SpatialForce</text>
<text text-anchor="middle" x="745" y="-488.5" font-family="FreeSans.ttf" font-size="10.00" fill="#000000">Vector.h</text>
</a>
</g>
</g>
<!-- Node0&#45;&gt;Node33 -->
<g id="edge66" class="edge">
<title>Node0&#45;&gt;Node33</title>
<path fill="none" stroke="#191970" d="M959.5912,-548.4581C921.6843,-539.2799 863.4785,-525.1867 817.246,-513.9926"/>
<polygon fill="#191970" stroke="#191970" points="817.8179,-510.5301 807.2751,-511.5784 816.1706,-517.3335 817.8179,-510.5301"/>
</g>
<!-- Node37 -->
<g id="node38" class="node">
<title>Node37</title>
<polygon fill="none" stroke="#bfbfbf" points="1258,-487 1258,-506 1304,-506 1304,-487 1258,-487"/>
<text text-anchor="middle" x="1281" y="-494" font-family="FreeSans.ttf" font-size="10.00" fill="#000000">cstdio</text>
</g>
<!-- Node0&#45;&gt;Node37 -->
<g id="edge80" class="edge">
<title>Node0&#45;&gt;Node37</title>
<path fill="none" stroke="#191970" d="M1047.1375,-552.025C1097.0644,-545.1197 1177.0477,-532.0634 1244,-512 1246.1682,-511.3503 1248.3822,-510.6157 1250.5955,-509.8283"/>
<polygon fill="#191970" stroke="#191970" points="1252.0827,-513.0059 1260.1494,-506.1372 1249.56,-506.4762 1252.0827,-513.0059"/>
</g>
<!-- Node38 -->
<g id="node39" class="node">
<title>Node38</title>
<polygon fill="none" stroke="#bfbfbf" points="1322.5,-487 1322.5,-506 1399.5,-506 1399.5,-487 1322.5,-487"/>
<text text-anchor="middle" x="1361" y="-494" font-family="FreeSans.ttf" font-size="10.00" fill="#000000">Eigen/Dense</text>
</g>
<!-- Node0&#45;&gt;Node38 -->
<g id="edge82" class="edge">
<title>Node0&#45;&gt;Node38</title>
<path fill="none" stroke="#191970" d="M1047.0752,-553.4775C1109.0882,-547.0705 1220.0365,-533.6594 1313,-512 1316.67,-511.1449 1320.4624,-510.1394 1324.2324,-509.0581"/>
<polygon fill="#191970" stroke="#191970" points="1325.5104,-512.3278 1334.0599,-506.0703 1323.4742,-505.6305 1325.5104,-512.3278"/>
</g>
<!-- Node39 -->
<g id="node40" class="node">
<title>Node39</title>
<polygon fill="none" stroke="#bfbfbf" points="1417.5,-487 1417.5,-506 1512.5,-506 1512.5,-487 1417.5,-487"/>
<text text-anchor="middle" x="1465" y="-494" font-family="FreeSans.ttf" font-size="10.00" fill="#000000">Eigen/Geometry</text>
</g>
<!-- Node0&#45;&gt;Node39 -->
<g id="edge83" class="edge">
<title>Node0&#45;&gt;Node39</title>
<path fill="none" stroke="#191970" d="M1047.2135,-554.985C1124.068,-549.6403 1278.8587,-536.6696 1408,-512 1413.0334,-511.0385 1418.2735,-509.8618 1423.4478,-508.5905"/>
<polygon fill="#191970" stroke="#191970" points="1424.4381,-511.9497 1433.2457,-506.0611 1422.6882,-505.172 1424.4381,-511.9497"/>
</g>
<!-- Node2 -->
<g id="node3" class="node">
<title>Node2</title>
<g id="a_node3"><a xlink:href="VectorFixSize_8h.html" target="_top" xlink:title="iDynTree/Core/VectorFixSize.h">
<polygon fill="none" stroke="#000000" points="826.5,-168.5 826.5,-187.5 987.5,-187.5 987.5,-168.5 826.5,-168.5"/>
<text text-anchor="middle" x="907" y="-175.5" font-family="FreeSans.ttf" font-size="10.00" fill="#000000">iDynTree/Core/VectorFixSize.h</text>
</a>
</g>
</g>
<!-- Node1&#45;&gt;Node2 -->
<g id="edge2" class="edge">
<title>Node1&#45;&gt;Node2</title>
<path fill="none" stroke="#191970" d="M298.2827,-232.3264C327.1139,-229.6939 360.0404,-226.6986 390,-224 539.3921,-210.5434 713.0902,-195.1381 816.3242,-186.0075"/>
<polygon fill="#191970" stroke="#191970" points="816.7465,-189.4839 826.3993,-185.1166 816.1298,-182.5111 816.7465,-189.4839"/>
</g>
<!-- Node14 -->
<g id="node15" class="node">
<title>Node14</title>
<polygon fill="none" stroke="#bfbfbf" points="346,-56.5 346,-75.5 390,-75.5 390,-56.5 346,-56.5"/>
<text text-anchor="middle" x="368" y="-63.5" font-family="FreeSans.ttf" font-size="10.00" fill="#000000">string</text>
</g>
<!-- Node1&#45;&gt;Node14 -->
<g id="edge19" class="edge">
<title>Node1&#45;&gt;Node14</title>
<path fill="none" stroke="#191970" d="M213.9182,-229.6804C200.4669,-206.574 171.4845,-148.006 199,-112 215.5375,-90.3595 291.6838,-76.4808 335.9172,-70.0976"/>
<polygon fill="#191970" stroke="#191970" points="336.4723,-73.5542 345.8932,-68.7068 335.5057,-66.6212 336.4723,-73.5542"/>
</g>
<!-- Node2&#45;&gt;Node3 -->
<g id="edge3" class="edge">
<title>Node2&#45;&gt;Node3</title>
<path fill="none" stroke="#191970" d="M910.4104,-168.4509C916.9933,-150.0186 931.5624,-109.2254 940.1989,-85.043"/>
<polygon fill="#191970" stroke="#191970" points="943.5309,-86.1195 943.5983,-75.5249 936.9387,-83.7651 943.5309,-86.1195"/>
</g>
<!-- Node5 -->
<g id="node6" class="node">
<title>Node5</title>
<g id="a_node6"><a xlink:href="Span_8h.html" target="_top" xlink:title="iDynTree/Core/Span.h">
<polygon fill="none" stroke="#000000" points="1354.5,-112.5 1354.5,-131.5 1475.5,-131.5 1475.5,-112.5 1354.5,-112.5"/>
<text text-anchor="middle" x="1415" y="-119.5" font-family="FreeSans.ttf" font-size="10.00" fill="#000000">iDynTree/Core/Span.h</text>
</a>
</g>
</g>
<!-- Node2&#45;&gt;Node5 -->
<g id="edge5" class="edge">
<title>Node2&#45;&gt;Node5</title>
<path fill="none" stroke="#191970" d="M987.7748,-169.0957C1086.1282,-158.2536 1250.6655,-140.1156 1344.2466,-129.7996"/>
<polygon fill="#191970" stroke="#191970" points="1344.9084,-133.2479 1354.4646,-128.6732 1344.1413,-126.2901 1344.9084,-133.2479"/>
</g>
<!-- Node6 -->
<g id="node7" class="node">
<title>Node6</title>
<polygon fill="none" stroke="#bfbfbf" points="1028,-56.5 1028,-75.5 1080,-75.5 1080,-56.5 1028,-56.5"/>
<text text-anchor="middle" x="1054" y="-63.5" font-family="FreeSans.ttf" font-size="10.00" fill="#000000">cassert</text>
</g>
<!-- Node2&#45;&gt;Node6 -->
<g id="edge17" class="edge">
<title>Node2&#45;&gt;Node6</title>
<path fill="none" stroke="#191970" d="M919.5331,-168.4509C944.9189,-149.1094 1002.6202,-105.1465 1033.5376,-81.5904"/>
<polygon fill="#191970" stroke="#191970" points="1035.6654,-84.3694 1041.4986,-75.5249 1031.4231,-78.8013 1035.6654,-84.3694"/>
</g>
<!-- Node2&#45;&gt;Node14 -->
<g id="edge15" class="edge">
<title>Node2&#45;&gt;Node14</title>
<path fill="none" stroke="#191970" d="M826.3133,-171.8105C765.3478,-165.6492 680.133,-153.8401 608,-132 587.8272,-125.8922 584.9236,-118.8772 565,-112 508.3149,-92.4335 439.6103,-78.5047 400.135,-71.3972"/>
<polygon fill="#191970" stroke="#191970" points="400.7384,-67.9497 390.2819,-69.6561 399.5203,-74.8429 400.7384,-67.9497"/>
</g>
<!-- Node2&#45;&gt;Node15 -->
<g id="edge16" class="edge">
<title>Node2&#45;&gt;Node15</title>
<path fill="none" stroke="#191970" d="M826.0665,-175.4508C717.5388,-171.0866 519.1458,-159.7864 352,-132 271.2647,-118.5785 178.8759,-92.7935 128.2223,-77.7326"/>
<polygon fill="#191970" stroke="#191970" points="128.9487,-74.2966 118.3649,-74.78 126.9401,-81.0022 128.9487,-74.2966"/>
</g>
<!-- Node16 -->
<g id="node17" class="node">
<title>Node16</title>
<polygon fill="none" stroke="#bfbfbf" points="618,-56.5 618,-75.5 668,-75.5 668,-56.5 618,-56.5"/>
<text text-anchor="middle" x="643" y="-63.5" font-family="FreeSans.ttf" font-size="10.00" fill="#000000">cstring</text>
</g>
<!-- Node2&#45;&gt;Node16 -->
<g id="edge18" class="edge">
<title>Node2&#45;&gt;Node16</title>
<path fill="none" stroke="#191970" d="M896.3523,-168.4911C879.8529,-154.2314 846.6014,-127.3476 814,-112 769.3175,-90.965 713.378,-78.216 677.9038,-71.6368"/>
<polygon fill="#191970" stroke="#191970" points="678.4879,-68.1858 668.0273,-69.8668 677.253,-75.076 678.4879,-68.1858"/>
</g>
<!-- Node4 -->
<g id="node5" class="node">
<title>Node4</title>
<polygon fill="none" stroke="#bfbfbf" points="1011.5,-.5 1011.5,-19.5 1064.5,-19.5 1064.5,-.5 1011.5,-.5"/>
<text text-anchor="middle" x="1038" y="-7.5" font-family="FreeSans.ttf" font-size="10.00" fill="#000000">cstddef</text>
</g>
<!-- Node3&#45;&gt;Node4 -->
<g id="edge4" class="edge">
<title>Node3&#45;&gt;Node4</title>
<path fill="none" stroke="#191970" d="M962.851,-56.2455C976.8132,-47.6534 997.3728,-35.0014 1013.4596,-25.1018"/>
<polygon fill="#191970" stroke="#191970" points="1015.6484,-27.8645 1022.3307,-19.6427 1011.9797,-21.9029 1015.6484,-27.8645"/>
</g>
<!-- Node5&#45;&gt;Node4 -->
<g id="edge9" class="edge">
<title>Node5&#45;&gt;Node4</title>
<path fill="none" stroke="#191970" d="M1354.4459,-112.6072C1293.3376,-102.7748 1203.3781,-87.2326 1170,-76 1130.6381,-62.7537 1088.2016,-39.8215 1062.3648,-24.7799"/>
<polygon fill="#191970" stroke="#191970" points="1064.0247,-21.6955 1053.6335,-19.6278 1060.4673,-27.7242 1064.0247,-21.6955"/>
</g>
<!-- Node5&#45;&gt;Node6 -->
<g id="edge6" class="edge">
<title>Node5&#45;&gt;Node6</title>
<path fill="none" stroke="#191970" d="M1354.2779,-112.7903C1293.8533,-103.5946 1198.4898,-88.9976 1116,-76 1107.654,-74.685 1098.6797,-73.2497 1090.2222,-71.8876"/>
<polygon fill="#191970" stroke="#191970" points="1090.6694,-68.4146 1080.2392,-70.2754 1089.5533,-75.325 1090.6694,-68.4146"/>
</g>
<!-- Node7 -->
<g id="node8" class="node">
<title>Node7</title>
<polygon fill="none" stroke="#bfbfbf" points="1179,-56.5 1179,-75.5 1243,-75.5 1243,-56.5 1179,-56.5"/>
<text text-anchor="middle" x="1211" y="-63.5" font-family="FreeSans.ttf" font-size="10.00" fill="#000000">algorithm</text>
</g>
<!-- Node5&#45;&gt;Node7 -->
<g id="edge7" class="edge">
<title>Node5&#45;&gt;Node7</title>
<path fill="none" stroke="#191970" d="M1379.9311,-112.3733C1344.8396,-102.7403 1290.825,-87.9128 1253.3592,-77.628"/>
<polygon fill="#191970" stroke="#191970" points="1253.83,-74.1278 1243.2602,-74.8557 1251.9769,-80.8781 1253.83,-74.1278"/>
</g>
<!-- Node8 -->
<g id="node9" class="node">
<title>Node8</title>
<polygon fill="none" stroke="#bfbfbf" points="1261,-56.5 1261,-75.5 1303,-75.5 1303,-56.5 1261,-56.5"/>
<text text-anchor="middle" x="1282" y="-63.5" font-family="FreeSans.ttf" font-size="10.00" fill="#000000">array</text>
</g>
<!-- Node5&#45;&gt;Node8 -->
<g id="edge8" class="edge">
<title>Node5&#45;&gt;Node8</title>
<path fill="none" stroke="#191970" d="M1392.1365,-112.3733C1370.2034,-103.1383 1336.9316,-89.1291 1312.6976,-78.9253"/>
<polygon fill="#191970" stroke="#191970" points="1313.8235,-75.6018 1303.2489,-74.9469 1311.1071,-82.0533 1313.8235,-75.6018"/>
</g>
<!-- Node9 -->
<g id="node10" class="node">
<title>Node9</title>
<polygon fill="none" stroke="#bfbfbf" points="1321.5,-56.5 1321.5,-75.5 1374.5,-75.5 1374.5,-56.5 1321.5,-56.5"/>
<text text-anchor="middle" x="1348" y="-63.5" font-family="FreeSans.ttf" font-size="10.00" fill="#000000">iterator</text>
</g>
<!-- Node5&#45;&gt;Node9 -->
<g id="edge10" class="edge">
<title>Node5&#45;&gt;Node9</title>
<path fill="none" stroke="#191970" d="M1403.3295,-112.2455C1393.4339,-103.9746 1379.0373,-91.9416 1367.4099,-82.2232"/>
<polygon fill="#191970" stroke="#191970" points="1369.4542,-79.3703 1359.5368,-75.6427 1364.965,-84.7413 1369.4542,-79.3703"/>
</g>
<!-- Node10 -->
<g id="node11" class="node">
<title>Node10</title>
<polygon fill="none" stroke="#bfbfbf" points="1393,-56.5 1393,-75.5 1437,-75.5 1437,-56.5 1393,-56.5"/>
<text text-anchor="middle" x="1415" y="-63.5" font-family="FreeSans.ttf" font-size="10.00" fill="#000000">limits</text>
</g>
<!-- Node5&#45;&gt;Node10 -->
<g id="edge11" class="edge">
<title>Node5&#45;&gt;Node10</title>
<path fill="none" stroke="#191970" d="M1415,-112.2455C1415,-104.9382 1415,-94.6944 1415,-85.7046"/>
<polygon fill="#191970" stroke="#191970" points="1418.5001,-85.6426 1415,-75.6427 1411.5001,-85.6427 1418.5001,-85.6426"/>
</g>
<!-- Node11 -->
<g id="node12" class="node">
<title>Node11</title>
<polygon fill="none" stroke="#bfbfbf" points="1455.5,-56.5 1455.5,-75.5 1520.5,-75.5 1520.5,-56.5 1455.5,-56.5"/>
<text text-anchor="middle" x="1488" y="-63.5" font-family="FreeSans.ttf" font-size="10.00" fill="#000000">stdexcept</text>
</g>
<!-- Node5&#45;&gt;Node11 -->
<g id="edge12" class="edge">
<title>Node5&#45;&gt;Node11</title>
<path fill="none" stroke="#191970" d="M1427.7156,-112.2455C1438.602,-103.8943 1454.4883,-91.7076 1467.22,-81.9408"/>
<polygon fill="#191970" stroke="#191970" points="1469.6261,-84.5063 1475.4301,-75.6427 1465.3654,-78.9523 1469.6261,-84.5063"/>
</g>
<!-- Node12 -->
<g id="node13" class="node">
<title>Node12</title>
<polygon fill="none" stroke="#bfbfbf" points="1538.5,-56.5 1538.5,-75.5 1607.5,-75.5 1607.5,-56.5 1538.5,-56.5"/>
<text text-anchor="middle" x="1573" y="-63.5" font-family="FreeSans.ttf" font-size="10.00" fill="#000000">type_traits</text>
</g>
<!-- Node5&#45;&gt;Node12 -->
<g id="edge13" class="edge">
<title>Node5&#45;&gt;Node12</title>
<path fill="none" stroke="#191970" d="M1442.1612,-112.3733C1468.2067,-103.1419 1507.7116,-89.1402 1536.4979,-78.9375"/>
<polygon fill="#191970" stroke="#191970" points="1537.937,-82.1408 1546.1933,-75.5011 1535.5985,-75.5429 1537.937,-82.1408"/>
</g>
<!-- Node13 -->
<g id="node14" class="node">
<title>Node13</title>
<polygon fill="none" stroke="#bfbfbf" points="1625.5,-56.5 1625.5,-75.5 1670.5,-75.5 1670.5,-56.5 1625.5,-56.5"/>
<text text-anchor="middle" x="1648" y="-63.5" font-family="FreeSans.ttf" font-size="10.00" fill="#000000">utility</text>
</g>
<!-- Node5&#45;&gt;Node13 -->
<g id="edge14" class="edge">
<title>Node5&#45;&gt;Node13</title>
<path fill="none" stroke="#191970" d="M1461.5577,-112.4212C1500.3031,-104.2077 1557.0924,-91.6113 1615.5607,-75.9629"/>
<polygon fill="#191970" stroke="#191970" points="1616.5973,-79.3084 1625.3383,-73.3213 1614.7716,-72.5507 1616.5973,-79.3084"/>
</g>
<!-- Node17&#45;&gt;Node14 -->
<g id="edge28" class="edge">
<title>Node17&#45;&gt;Node14</title>
<path fill="none" stroke="#191970" d="M456.3359,-168.4731C413.9544,-160.9632 364.9879,-148.9178 352,-132 341.4998,-118.3225 348.2188,-98.7321 355.9097,-84.4487"/>
<polygon fill="#191970" stroke="#191970" points="359.099,-85.9325 361.1898,-75.546 353.0782,-82.3616 359.099,-85.9325"/>
</g>
<!-- Node18 -->
<g id="node19" class="node">
<title>Node18</title>
<g id="a_node19"><a xlink:href="MatrixFixSize_8h.html" target="_top" xlink:title="iDynTree/Core/MatrixFixSize.h">
<polygon fill="none" stroke="#000000" points="361.5,-112.5 361.5,-131.5 522.5,-131.5 522.5,-112.5 361.5,-112.5"/>
<text text-anchor="middle" x="442" y="-119.5" font-family="FreeSans.ttf" font-size="10.00" fill="#000000">iDynTree/Core/MatrixFixSize.h</text>
</a>
</g>
</g>
<!-- Node17&#45;&gt;Node18 -->
<g id="edge21" class="edge">
<title>Node17&#45;&gt;Node18</title>
<path fill="none" stroke="#191970" d="M509.7167,-168.2455C497.253,-159.7337 478.9549,-147.2375 464.5208,-137.3801"/>
<polygon fill="#191970" stroke="#191970" points="466.3515,-134.392 456.1196,-131.6427 462.4038,-140.1726 466.3515,-134.392"/>
</g>
<!-- Node18&#45;&gt;Node3 -->
<g id="edge22" class="edge">
<title>Node18&#45;&gt;Node3</title>
<path fill="none" stroke="#191970" d="M522.5772,-113.0647C620.5452,-102.2009 784.2706,-84.0452 877.1298,-73.748"/>
<polygon fill="#191970" stroke="#191970" points="877.7137,-77.2048 887.267,-72.6239 876.9421,-70.2474 877.7137,-77.2048"/>
</g>
<!-- Node18&#45;&gt;Node6 -->
<g id="edge23" class="edge">
<title>Node18&#45;&gt;Node6</title>
<path fill="none" stroke="#191970" d="M522.7611,-117.2269C657.5277,-108.9746 922.5945,-91.4395 1015,-76 1015.9049,-75.8488 1016.8195,-75.6868 1017.7404,-75.5156"/>
<polygon fill="#191970" stroke="#191970" points="1018.6461,-78.9013 1027.6971,-73.3941 1017.1873,-72.0549 1018.6461,-78.9013"/>
</g>
<!-- Node18&#45;&gt;Node14 -->
<g id="edge25" class="edge">
<title>Node18&#45;&gt;Node14</title>
<path fill="none" stroke="#191970" d="M429.1102,-112.2455C418.0746,-103.8943 401.9708,-91.7076 389.0647,-81.9408"/>
<polygon fill="#191970" stroke="#191970" points="390.8283,-78.8862 380.7421,-75.6427 386.6041,-84.4681 390.8283,-78.8862"/>
</g>
<!-- Node18&#45;&gt;Node15 -->
<g id="edge27" class="edge">
<title>Node18&#45;&gt;Node15</title>
<path fill="none" stroke="#191970" d="M381.889,-112.4369C309.3116,-100.8905 189.4042,-81.8143 128.3265,-72.0974"/>
<polygon fill="#191970" stroke="#191970" points="128.7632,-68.6229 118.3374,-70.5082 127.6633,-75.536 128.7632,-68.6229"/>
</g>
<!-- Node18&#45;&gt;Node16 -->
<g id="edge24" class="edge">
<title>Node18&#45;&gt;Node16</title>
<path fill="none" stroke="#191970" d="M476.5531,-112.3733C513.2832,-102.14 571.054,-86.0446 607.9664,-75.7606"/>
<polygon fill="#191970" stroke="#191970" points="609.0958,-79.0793 617.7896,-73.0238 607.2171,-72.3361 609.0958,-79.0793"/>
</g>
<!-- Node19 -->
<g id="node20" class="node">
<title>Node19</title>
<polygon fill="none" stroke="#bfbfbf" points="162,-56.5 162,-75.5 222,-75.5 222,-56.5 162,-56.5"/>
<text text-anchor="middle" x="192" y="-63.5" font-family="FreeSans.ttf" font-size="10.00" fill="#000000">iostream</text>
</g>
<!-- Node18&#45;&gt;Node19 -->
<g id="edge26" class="edge">
<title>Node18&#45;&gt;Node19</title>
<path fill="none" stroke="#191970" d="M399.3075,-112.4369C352.5027,-101.9526 277.9826,-85.2601 232.1934,-75.0033"/>
<polygon fill="#191970" stroke="#191970" points="232.8449,-71.5626 222.3217,-72.7921 231.3148,-78.3933 232.8449,-71.5626"/>
</g>
<!-- Node20&#45;&gt;Node2 -->
<g id="edge30" class="edge">
<title>Node20&#45;&gt;Node2</title>
<path fill="none" stroke="#191970" d="M1076.7746,-488.2959C1160.5395,-478.6602 1283.8096,-461.8435 1298,-445 1306.8771,-434.4632 1300.7574,-427.499 1298,-414 1279.6283,-324.0592 1289.6567,-280.1059 1217,-224 1183.6172,-198.2216 1076.9682,-186.7954 998.0401,-181.7923"/>
<polygon fill="#191970" stroke="#191970" points="997.7798,-178.27 987.5858,-181.1565 997.3548,-185.2571 997.7798,-178.27"/>
</g>
<!-- Node21 -->
<g id="node22" class="node">
<title>Node21</title>
<g id="a_node22"><a xlink:href="LinearMotionVector3_8h.html" target="_top" xlink:title="iDynTree/Core/LinearMotion\lVector3.h">
<polygon fill="none" stroke="#000000" points="923.5,-414.5 923.5,-444.5 1074.5,-444.5 1074.5,-414.5 923.5,-414.5"/>
<text text-anchor="start" x="931.5" y="-432.5" font-family="FreeSans.ttf" font-size="10.00" fill="#000000">iDynTree/Core/LinearMotion</text>
<text text-anchor="middle" x="999" y="-421.5" font-family="FreeSans.ttf" font-size="10.00" fill="#000000">Vector3.h</text>
</a>
</g>
</g>
<!-- Node20&#45;&gt;Node21 -->
<g id="edge31" class="edge">
<title>Node20&#45;&gt;Node21</title>
<path fill="none" stroke="#191970" d="M999,-481.2967C999,-473.5013 999,-463.7991 999,-454.9064"/>
<polygon fill="#191970" stroke="#191970" points="1002.5001,-454.6431 999,-444.6432 995.5001,-454.6432 1002.5001,-454.6431"/>
</g>
<!-- Node26 -->
<g id="node27" class="node">
<title>Node26</title>
<g id="a_node27"><a xlink:href="PrivateMotionForceVertorAssociations_8h.html" target="_top" xlink:title="iDynTree/Core/PrivateMotion\lForceVertorAssociations.h">
<polygon fill="none" stroke="#000000" points="791.5,-224.5 791.5,-254.5 946.5,-254.5 946.5,-224.5 791.5,-224.5"/>
<text text-anchor="start" x="799.5" y="-242.5" font-family="FreeSans.ttf" font-size="10.00" fill="#000000">iDynTree/Core/PrivateMotion</text>
<text text-anchor="middle" x="869" y="-231.5" font-family="FreeSans.ttf" font-size="10.00" fill="#000000">ForceVertorAssociations.h</text>
</a>
</g>
</g>
<!-- Node20&#45;&gt;Node26 -->
<g id="edge65" class="edge">
<title>Node20&#45;&gt;Node26</title>
<path fill="none" stroke="#191970" d="M956.6841,-481.4897C940.3193,-473.3701 923.3156,-461.5362 914,-445 894.8966,-411.0894 935.2788,-395.2512 924,-358 918.4276,-339.5955 908.7725,-339.112 900,-322 890.4045,-303.2826 882.1753,-280.8779 876.6119,-264.1432"/>
<polygon fill="#191970" stroke="#191970" points="879.9131,-262.9764 873.5041,-254.5399 873.2532,-265.1318 879.9131,-262.9764"/>
</g>
<!-- Node27 -->
<g id="node28" class="node">
<title>Node27</title>
<g id="a_node28"><a xlink:href="AngularMotionVector3_8h.html" target="_top" xlink:title="iDynTree/Core/AngularMotion\lVector3.h">
<polygon fill="none" stroke="#000000" points="1131,-414.5 1131,-444.5 1289,-444.5 1289,-414.5 1131,-414.5"/>
<text text-anchor="start" x="1139" y="-432.5" font-family="FreeSans.ttf" font-size="10.00" fill="#000000">iDynTree/Core/AngularMotion</text>
<text text-anchor="middle" x="1210" y="-421.5" font-family="FreeSans.ttf" font-size="10.00" fill="#000000">Vector3.h</text>
</a>
</g>
</g>
<!-- Node20&#45;&gt;Node27 -->
<g id="edge46" class="edge">
<title>Node20&#45;&gt;Node27</title>
<path fill="none" stroke="#191970" d="M1046.3525,-481.4639C1077.8699,-471.456 1119.456,-458.2509 1152.8189,-447.657"/>
<polygon fill="#191970" stroke="#191970" points="1153.9692,-450.9641 1162.441,-444.6017 1151.8506,-444.2923 1153.9692,-450.9641"/>
</g>
<!-- Node28 -->
<g id="node29" class="node">
<title>Node28</title>
<g id="a_node29"><a xlink:href="SpatialVector_8h.html" target="_top" xlink:title="iDynTree/Core/SpatialVector.h">
<polygon fill="none" stroke="#000000" points="387.5,-358.5 387.5,-377.5 548.5,-377.5 548.5,-358.5 387.5,-358.5"/>
<text text-anchor="middle" x="468" y="-365.5" font-family="FreeSans.ttf" font-size="10.00" fill="#000000">iDynTree/Core/SpatialVector.h</text>
</a>
</g>
</g>
<!-- Node20&#45;&gt;Node28 -->
<g id="edge50" class="edge">
<title>Node20&#45;&gt;Node28</title>
<path fill="none" stroke="#191970" d="M921.4216,-489.3609C784.7125,-476.6487 514.4306,-450.87 506,-445 486.7617,-431.6048 476.8199,-405.6117 472.0127,-387.5523"/>
<polygon fill="#191970" stroke="#191970" points="475.4029,-386.6794 469.6948,-377.7537 468.5909,-388.2909 475.4029,-386.6794"/>
</g>
<!-- Node22 -->
<g id="node23" class="node">
<title>Node22</title>
<g id="a_node23"><a xlink:href="MotionVector3_8h.html" target="_top" xlink:title="iDynTree/Core/MotionVector3.h">
<polygon fill="none" stroke="#000000" points="1008.5,-358.5 1008.5,-377.5 1175.5,-377.5 1175.5,-358.5 1008.5,-358.5"/>
<text text-anchor="middle" x="1092" y="-365.5" font-family="FreeSans.ttf" font-size="10.00" fill="#000000">iDynTree/Core/MotionVector3.h</text>
</a>
</g>
</g>
<!-- Node21&#45;&gt;Node22 -->
<g id="edge32" class="edge">
<title>Node21&#45;&gt;Node22</title>
<path fill="none" stroke="#191970" d="M1021.9888,-414.2977C1036.1966,-404.9022 1054.3785,-392.8787 1068.6525,-383.4395"/>
<polygon fill="#191970" stroke="#191970" points="1070.9767,-386.0986 1077.3872,-377.6633 1067.1155,-380.2598 1070.9767,-386.0986"/>
</g>
<!-- Node21&#45;&gt;Node26 -->
<g id="edge45" class="edge">
<title>Node21&#45;&gt;Node26</title>
<path fill="none" stroke="#191970" d="M991.0663,-414.2212C983.1318,-399.3994 970.2351,-376.4993 957,-358 944.7143,-340.8277 938.9082,-338.7094 926,-322 911.1832,-302.8199 895.6244,-280.1022 884.5127,-263.3668"/>
<polygon fill="#191970" stroke="#191970" points="887.2557,-261.1686 878.83,-254.7453 881.4111,-265.021 887.2557,-261.1686"/>
</g>
<!-- Node23 -->
<g id="node24" class="node">
<title>Node23</title>
<g id="a_node24"><a xlink:href="GeomVector3_8h.html" target="_top" xlink:title="iDynTree/Core/GeomVector3.h">
<polygon fill="none" stroke="#000000" points="935.5,-297 935.5,-316 1098.5,-316 1098.5,-297 935.5,-297"/>
<text text-anchor="middle" x="1017" y="-304" font-family="FreeSans.ttf" font-size="10.00" fill="#000000">iDynTree/Core/GeomVector3.h</text>
</a>
</g>
</g>
<!-- Node22&#45;&gt;Node23 -->
<g id="edge33" class="edge">
<title>Node22&#45;&gt;Node23</title>
<path fill="none" stroke="#191970" d="M1080.2813,-358.3906C1068.6812,-348.8786 1050.7021,-334.1357 1036.8679,-322.7917"/>
<polygon fill="#191970" stroke="#191970" points="1038.836,-319.8792 1028.884,-316.2449 1034.3974,-325.2921 1038.836,-319.8792"/>
</g>
<!-- Node22&#45;&gt;Node26 -->
<g id="edge44" class="edge">
<title>Node22&#45;&gt;Node26</title>
<path fill="none" stroke="#191970" d="M1098.319,-358.2994C1107.7801,-342.4298 1122.9059,-310.7158 1107,-291 1088.1174,-267.5945 1016.7168,-254.2981 957.0028,-247.1035"/>
<polygon fill="#191970" stroke="#191970" points="957.1059,-243.592 946.7689,-245.9153 956.2985,-250.5453 957.1059,-243.592"/>
</g>
<!-- Node23&#45;&gt;Node2 -->
<g id="edge34" class="edge">
<title>Node23&#45;&gt;Node2</title>
<path fill="none" stroke="#191970" d="M1010.5883,-296.9604C999.8225,-281.1854 977.1132,-248.9311 955,-224 945.8774,-213.715 934.8529,-203.0426 925.6711,-194.5699"/>
<polygon fill="#191970" stroke="#191970" points="927.9257,-191.8895 918.1707,-187.7554 923.2185,-197.0704 927.9257,-191.8895"/>
</g>
<!-- Node23&#45;&gt;Node3 -->
<g id="edge43" class="edge">
<title>Node23&#45;&gt;Node3</title>
<path fill="none" stroke="#191970" d="M1016.5237,-296.8786C1015.1831,-274.0375 1010.4783,-214.9444 996,-168 986.5891,-137.4863 969.3756,-104.6017 958.0612,-84.6575"/>
<polygon fill="#191970" stroke="#191970" points="960.9345,-82.6345 952.8978,-75.7308 954.8751,-86.1395 960.9345,-82.6345"/>
</g>
<!-- Node24 -->
<g id="node25" class="node">
<title>Node24</title>
<g id="a_node25"><a xlink:href="Rotation_8h.html" target="_top" xlink:title="iDynTree/Core/Rotation.h">
<polygon fill="none" stroke="#000000" points="559.5,-230 559.5,-249 696.5,-249 696.5,-230 559.5,-230"/>
<text text-anchor="middle" x="628" y="-237" font-family="FreeSans.ttf" font-size="10.00" fill="#000000">iDynTree/Core/Rotation.h</text>
</a>
</g>
</g>
<!-- Node23&#45;&gt;Node24 -->
<g id="edge35" class="edge">
<title>Node23&#45;&gt;Node24</title>
<path fill="none" stroke="#191970" d="M961.6789,-296.9717C891.0608,-284.8087 769.0395,-263.7921 693.7484,-250.8243"/>
<polygon fill="#191970" stroke="#191970" points="693.8938,-247.2979 683.4448,-249.0496 692.7056,-254.1963 693.8938,-247.2979"/>
</g>
<!-- Node23&#45;&gt;Node26 -->
<g id="edge42" class="edge">
<title>Node23&#45;&gt;Node26</title>
<path fill="none" stroke="#191970" d="M995.7952,-296.9005C973.9167,-286.9961 939.1909,-271.2756 911.6081,-258.7888"/>
<polygon fill="#191970" stroke="#191970" points="912.7359,-255.4574 902.1824,-254.5218 909.8489,-261.8344 912.7359,-255.4574"/>
</g>
<!-- Node24&#45;&gt;Node2 -->
<g id="edge41" class="edge">
<title>Node24&#45;&gt;Node2</title>
<path fill="none" stroke="#191970" d="M671.2876,-229.9581C720.4642,-219.1181 800.7424,-201.4224 853.723,-189.7439"/>
<polygon fill="#191970" stroke="#191970" points="854.5987,-193.1349 863.6108,-187.5643 853.0918,-186.299 854.5987,-193.1349"/>
</g>
<!-- Node24&#45;&gt;Node14 -->
<g id="edge36" class="edge">
<title>Node24&#45;&gt;Node14</title>
<path fill="none" stroke="#191970" d="M628.0054,-229.8433C627.5668,-215.2372 624.9382,-187.1979 612,-168 605.8851,-158.9267 540.8994,-116.6602 531,-112 487.9101,-91.7152 434.096,-78.6846 400.3772,-71.8489"/>
<polygon fill="#191970" stroke="#191970" points="400.6617,-68.338 390.1747,-69.8459 399.3131,-75.2069 400.6617,-68.338"/>
</g>
<!-- Node24&#45;&gt;Node17 -->
<g id="edge37" class="edge">
<title>Node24&#45;&gt;Node17</title>
<path fill="none" stroke="#191970" d="M611.75,-229.8906C594.8831,-219.9165 568.2901,-204.1908 548.7965,-192.6633"/>
<polygon fill="#191970" stroke="#191970" points="550.5251,-189.6194 540.1359,-187.5419 546.962,-195.6447 550.5251,-189.6194"/>
</g>
<!-- Node25 -->
<g id="node26" class="node">
<title>Node25</title>
<g id="a_node26"><a xlink:href="RotationSemantics_8h.html" target="_top" xlink:title="iDynTree/Core/RotationSemantics.h">
<polygon fill="none" stroke="#000000" points="617,-112.5 617,-131.5 805,-131.5 805,-112.5 617,-112.5"/>
<text text-anchor="middle" x="711" y="-119.5" font-family="FreeSans.ttf" font-size="10.00" fill="#000000">iDynTree/Core/RotationSemantics.h</text>
</a>
</g>
</g>
<!-- Node24&#45;&gt;Node25 -->
<g id="edge38" class="edge">
<title>Node24&#45;&gt;Node25</title>
<path fill="none" stroke="#191970" d="M634.7922,-229.8845C648.6539,-210.261 680.3942,-165.3274 698.2306,-140.0772"/>
<polygon fill="#191970" stroke="#191970" points="701.203,-141.9355 704.1139,-131.7484 695.4856,-137.8968 701.203,-141.9355"/>
</g>
<!-- Node25&#45;&gt;Node3 -->
<g id="edge40" class="edge">
<title>Node25&#45;&gt;Node3</title>
<path fill="none" stroke="#191970" d="M751.3017,-112.4369C791.6064,-102.8731 853.6821,-88.1432 897.0818,-77.845"/>
<polygon fill="#191970" stroke="#191970" points="897.9428,-81.238 906.8645,-75.5237 896.3266,-74.4271 897.9428,-81.238"/>
</g>
<!-- Node25&#45;&gt;Node14 -->
<g id="edge39" class="edge">
<title>Node25&#45;&gt;Node14</title>
<path fill="none" stroke="#191970" d="M652.4259,-112.4369C579.6548,-100.5559 458.0521,-80.7024 400.3194,-71.2766"/>
<polygon fill="#191970" stroke="#191970" points="400.7422,-67.7994 390.3089,-69.6423 399.6142,-74.7079 400.7422,-67.7994"/>
</g>
<!-- Node27&#45;&gt;Node3 -->
<g id="edge49" class="edge">
<title>Node27&#45;&gt;Node3</title>
<path fill="none" stroke="#191970" d="M1225.3133,-414.3403C1245.6413,-392.5238 1279,-350.0828 1279,-306.5 1279,-306.5 1279,-306.5 1279,-178 1279,-148.7275 1091.3027,-100.1554 998.1673,-77.8557"/>
<polygon fill="#191970" stroke="#191970" points="998.9155,-74.4361 988.3768,-75.525 997.2943,-81.2458 998.9155,-74.4361"/>
</g>
<!-- Node27&#45;&gt;Node22 -->
<g id="edge47" class="edge">
<title>Node27&#45;&gt;Node22</title>
<path fill="none" stroke="#191970" d="M1181.134,-414.4554C1162.3089,-404.644 1137.889,-391.9167 1119.3708,-382.2653"/>
<polygon fill="#191970" stroke="#191970" points="1120.7713,-379.0484 1110.2858,-377.5303 1117.536,-385.2559 1120.7713,-379.0484"/>
</g>
<!-- Node27&#45;&gt;Node26 -->
<g id="edge48" class="edge">
<title>Node27&#45;&gt;Node26</title>
<path fill="none" stroke="#191970" d="M1206.2451,-414.2632C1202.1491,-399.2698 1194.7143,-376.0628 1184,-358 1163.7577,-323.8742 1159.3606,-310.8411 1125,-291 1096.7361,-274.6794 1019.2832,-260.4261 956.9139,-251.0774"/>
<polygon fill="#191970" stroke="#191970" points="957.0528,-247.5601 946.6489,-249.5622 956.0306,-254.4851 957.0528,-247.5601"/>
</g>
<!-- Node28&#45;&gt;Node3 -->
<g id="edge59" class="edge">
<title>Node28&#45;&gt;Node3</title>
<path fill="none" stroke="#191970" d="M489.7159,-358.3502C508.6976,-349.6338 536.7769,-336.0517 560,-322 580.1571,-309.8035 582.124,-301.9204 603,-291 645.5977,-268.7167 665.486,-282.3816 705,-255 746.4877,-226.2507 739.6509,-200.8191 778,-168 822.1481,-130.2181 881.9532,-97.7384 917.3074,-80.1119"/>
<polygon fill="#191970" stroke="#191970" points="919.1691,-83.0966 926.5974,-75.5421 916.0793,-76.8154 919.1691,-83.0966"/>
</g>
<!-- Node28&#45;&gt;Node15 -->
<g id="edge64" class="edge">
<title>Node28&#45;&gt;Node15</title>
<path fill="none" stroke="#191970" d="M387.4702,-360.6148C308.5636,-352.5971 194.3201,-338.6791 153,-322 94.6699,-298.4546 38,-302.403 38,-239.5 38,-239.5 38,-239.5 38,-178 38,-141.9842 60.3945,-105.0048 75.7908,-83.8372"/>
<polygon fill="#191970" stroke="#191970" points="78.6405,-85.8714 81.875,-75.7823 73.0549,-81.6522 78.6405,-85.8714"/>
</g>
<!-- Node28&#45;&gt;Node19 -->
<g id="edge63" class="edge">
<title>Node28&#45;&gt;Node19</title>
<path fill="none" stroke="#191970" d="M387.4277,-358.5208C323.4719,-350.109 239.8544,-336.8724 209,-322 168.4369,-302.4478 151.5307,-296.0398 133,-255 105.7307,-194.6069 152.9855,-117.9976 177.9908,-83.8398"/>
<polygon fill="#191970" stroke="#191970" points="180.8702,-85.8345 184.0923,-75.7414 175.2794,-81.6222 180.8702,-85.8345"/>
</g>
<!-- Node28&#45;&gt;Node24 -->
<g id="edge57" class="edge">
<title>Node28&#45;&gt;Node24</title>
<path fill="none" stroke="#191970" d="M480.026,-358.3416C507.2452,-336.4812 573.8235,-283.0105 607.613,-255.8733"/>
<polygon fill="#191970" stroke="#191970" points="610.2293,-258.2612 615.8344,-249.2705 605.846,-252.8034 610.2293,-258.2612"/>
</g>
<!-- Node28&#45;&gt;Node26 -->
<g id="edge58" class="edge">
<title>Node28&#45;&gt;Node26</title>
<path fill="none" stroke="#191970" d="M494.168,-358.3832C548.6103,-338.3847 669.8009,-293.9194 679,-291 718.1553,-278.5739 762.4283,-266.463 798.3812,-257.1109"/>
<polygon fill="#191970" stroke="#191970" points="799.4849,-260.4407 808.29,-254.5483 797.7321,-253.6636 799.4849,-260.4407"/>
</g>
<!-- Node29 -->
<g id="node30" class="node">
<title>Node29</title>
<g id="a_node30"><a xlink:href="Position_8h.html" target="_top" xlink:title="Position.h">
<polygon fill="none" stroke="#000000" points="218.5,-297 218.5,-316 283.5,-316 283.5,-297 218.5,-297"/>
<text text-anchor="middle" x="251" y="-304" font-family="FreeSans.ttf" font-size="10.00" fill="#000000">Position.h</text>
</a>
</g>
</g>
<!-- Node28&#45;&gt;Node29 -->
<g id="edge51" class="edge">
<title>Node28&#45;&gt;Node29</title>
<path fill="none" stroke="#191970" d="M426.3947,-358.4412C390.5055,-349.8836 337.4368,-336.4817 292,-322 289.5892,-321.2316 287.1131,-320.4014 284.6291,-319.5383"/>
<polygon fill="#191970" stroke="#191970" points="285.7267,-316.2135 275.1323,-316.1081 283.3486,-322.7972 285.7267,-316.2135"/>
</g>
<!-- Node31 -->
<g id="node32" class="node">
<title>Node31</title>
<g id="a_node32"><a xlink:href="PrivatePreProcessorUtils_8h.html" target="_top" xlink:title="iDynTree/Core/PrivatePre\lProcessorUtils.h">
<polygon fill="none" stroke="#000000" points="399,-224.5 399,-254.5 537,-254.5 537,-224.5 399,-224.5"/>
<text text-anchor="start" x="407" y="-242.5" font-family="FreeSans.ttf" font-size="10.00" fill="#000000">iDynTree/Core/PrivatePre</text>
<text text-anchor="middle" x="468" y="-231.5" font-family="FreeSans.ttf" font-size="10.00" fill="#000000">ProcessorUtils.h</text>
</a>
</g>
</g>
<!-- Node28&#45;&gt;Node31 -->
<g id="edge60" class="edge">
<title>Node28&#45;&gt;Node31</title>
<path fill="none" stroke="#191970" d="M472.1368,-358.3507C475.8231,-349.1921 480.9433,-334.9416 483,-322 485.1625,-308.393 484.9459,-304.6397 483,-291 481.7283,-282.0862 479.2775,-272.5594 476.7197,-264.1541"/>
<polygon fill="#191970" stroke="#191970" points="480.0283,-263.0103 473.6187,-254.5743 473.3685,-265.1661 480.0283,-263.0103"/>
</g>
<!-- Node32 -->
<g id="node33" class="node">
<title>Node32</title>
<g id="a_node33"><a xlink:href="PrivateSemanticsMacros_8h.html" target="_top" xlink:title="iDynTree/Core/PrivateSemantics\lMacros.h">
<polygon fill="none" stroke="#000000" points="301.5,-291.5 301.5,-321.5 474.5,-321.5 474.5,-291.5 301.5,-291.5"/>
<text text-anchor="start" x="309.5" y="-309.5" font-family="FreeSans.ttf" font-size="10.00" fill="#000000">iDynTree/Core/PrivateSemantics</text>
<text text-anchor="middle" x="388" y="-298.5" font-family="FreeSans.ttf" font-size="10.00" fill="#000000">Macros.h</text>
</a>
</g>
</g>
<!-- Node28&#45;&gt;Node32 -->
<g id="edge61" class="edge">
<title>Node28&#45;&gt;Node32</title>
<path fill="none" stroke="#191970" d="M455.5,-358.3906C444.8735,-350.2215 429.2281,-338.1941 415.675,-327.7752"/>
<polygon fill="#191970" stroke="#191970" points="417.6315,-324.8645 407.5702,-321.5446 413.3651,-330.4142 417.6315,-324.8645"/>
</g>
<!-- Node29&#45;&gt;Node1 -->
<g id="edge52" class="edge">
<title>Node29&#45;&gt;Node1</title>
<path fill="none" stroke="#191970" d="M246.5585,-296.9005C241.9084,-286.8505 234.4877,-270.8122 228.6709,-258.2403"/>
<polygon fill="#191970" stroke="#191970" points="231.809,-256.6876 224.4333,-249.0817 225.4561,-259.627 231.809,-256.6876"/>
</g>
<!-- Node29&#45;&gt;Node14 -->
<g id="edge56" class="edge">
<title>Node29&#45;&gt;Node14</title>
<path fill="none" stroke="#191970" d="M265.8393,-296.9803C287.6513,-281.7595 324.0329,-250.9153 307,-224 287.0134,-192.4172 250.9866,-219.5828 231,-188 226.2467,-180.4888 228.1414,-176.4167 231,-168 241.0917,-138.2872 249.7095,-131.8661 274,-112 292.5635,-96.8178 316.9732,-85.0628 336.2658,-77.2369"/>
<polygon fill="#191970" stroke="#191970" points="337.7862,-80.4007 345.83,-73.5052 335.2418,-73.8795 337.7862,-80.4007"/>
</g>
<!-- Node29&#45;&gt;Node24 -->
<g id="edge55" class="edge">
<title>Node29&#45;&gt;Node24</title>
<path fill="none" stroke="#191970" d="M273.6981,-296.9011C279.577,-294.6981 285.9557,-292.5506 292,-291 402.441,-262.6683 433.5092,-273.5934 546,-255 553.6385,-253.7374 561.661,-252.3266 569.5744,-250.8844"/>
<polygon fill="#191970" stroke="#191970" points="570.3051,-254.3087 579.5025,-249.0496 569.033,-247.4253 570.3051,-254.3087"/>
</g>
<!-- Node30 -->
<g id="node31" class="node">
<title>Node30</title>
<g id="a_node31"><a xlink:href="PositionSemantics_8h.html" target="_top" xlink:title="iDynTree/Core/PositionSemantics.h">
<polygon fill="none" stroke="#000000" points="240.5,-168.5 240.5,-187.5 427.5,-187.5 427.5,-168.5 240.5,-168.5"/>
<text text-anchor="middle" x="334" y="-175.5" font-family="FreeSans.ttf" font-size="10.00" fill="#000000">iDynTree/Core/PositionSemantics.h</text>
</a>
</g>
</g>
<!-- Node29&#45;&gt;Node30 -->
<g id="edge53" class="edge">
<title>Node29&#45;&gt;Node30</title>
<path fill="none" stroke="#191970" d="M273.0913,-296.8365C296.948,-285.8944 332.5532,-267.9128 340,-255 350.1107,-237.4679 346.2131,-213.8423 341.311,-197.4033"/>
<polygon fill="#191970" stroke="#191970" points="344.5799,-196.1427 338.0818,-187.7746 337.9432,-198.3685 344.5799,-196.1427"/>
</g>
<!-- Node30&#45;&gt;Node14 -->
<g id="edge54" class="edge">
<title>Node30&#45;&gt;Node14</title>
<path fill="none" stroke="#191970" d="M316.4129,-168.3386C296.3653,-156.0019 267.9566,-133.6509 281,-112 292.8625,-92.3092 316.2876,-80.6099 335.8445,-73.9409"/>
<polygon fill="#191970" stroke="#191970" points="337.1272,-77.2075 345.6372,-70.8964 335.049,-70.5231 337.1272,-77.2075"/>
</g>
<!-- Node32&#45;&gt;Node31 -->
<g id="edge62" class="edge">
<title>Node32&#45;&gt;Node31</title>
<path fill="none" stroke="#191970" d="M406.1532,-291.2967C416.7909,-282.3876 430.4022,-270.9882 442.146,-261.1527"/>
<polygon fill="#191970" stroke="#191970" points="444.4993,-263.7472 449.9186,-254.6432 440.0048,-258.3806 444.4993,-263.7472"/>
</g>
<!-- Node33&#45;&gt;Node2 -->
<g id="edge67" class="edge">
<title>Node33&#45;&gt;Node2</title>
<path fill="none" stroke="#191970" d="M819.2733,-489.6866C904.0583,-481.1244 1036.9598,-465.0875 1083,-445 1103.2945,-436.1454 1103.7108,-426.4811 1122,-414 1148.3193,-396.0389 1168.1021,-405.6146 1184,-378 1241.3798,-278.3314 1052.9508,-214.9123 958.1385,-190.0054"/>
<polygon fill="#191970" stroke="#191970" points="958.9963,-186.6122 948.4393,-187.5059 957.2495,-193.3908 958.9963,-186.6122"/>
</g>
<!-- Node33&#45;&gt;Node26 -->
<g id="edge78" class="edge">
<title>Node33&#45;&gt;Node26</title>
<path fill="none" stroke="#191970" d="M732.8211,-481.2988C725.8133,-471.5503 717.6866,-458.2728 714,-445 694.7045,-375.5298 715.7468,-343.6549 765,-291 777.9485,-277.1572 795.4254,-266.5335 812.3536,-258.6324"/>
<polygon fill="#191970" stroke="#191970" points="813.9347,-261.7604 821.6694,-254.5199 811.1077,-255.3566 813.9347,-261.7604"/>
</g>
<!-- Node33&#45;&gt;Node28 -->
<g id="edge77" class="edge">
<title>Node33&#45;&gt;Node28</title>
<path fill="none" stroke="#191970" d="M670.6861,-492.433C599.2947,-486.8364 498.5949,-473.9329 473,-445 459.3843,-429.6086 460.2907,-405.0153 463.2044,-387.7743"/>
<polygon fill="#191970" stroke="#191970" points="466.6947,-388.1763 465.2765,-377.6768 459.8376,-386.7691 466.6947,-388.1763"/>
</g>
<!-- Node34 -->
<g id="node35" class="node">
<title>Node34</title>
<g id="a_node35"><a xlink:href="LinearForceVector3_8h.html" target="_top" xlink:title="iDynTree/Core/LinearForce\lVector3.h">
<polygon fill="none" stroke="#000000" points="723,-414.5 723,-444.5 867,-444.5 867,-414.5 723,-414.5"/>
<text text-anchor="start" x="731" y="-432.5" font-family="FreeSans.ttf" font-size="10.00" fill="#000000">iDynTree/Core/LinearForce</text>
<text text-anchor="middle" x="795" y="-421.5" font-family="FreeSans.ttf" font-size="10.00" fill="#000000">Vector3.h</text>
</a>
</g>
</g>
<!-- Node33&#45;&gt;Node34 -->
<g id="edge68" class="edge">
<title>Node33&#45;&gt;Node34</title>
<path fill="none" stroke="#191970" d="M756.3458,-481.2967C762.6107,-472.9016 770.5259,-462.2952 777.5598,-452.8698"/>
<polygon fill="#191970" stroke="#191970" points="780.5233,-454.7508 783.6991,-444.6432 774.9132,-450.5642 780.5233,-454.7508"/>
</g>
<!-- Node36 -->
<g id="node37" class="node">
<title>Node36</title>
<g id="a_node37"><a xlink:href="AngularForceVector3_8h.html" target="_top" xlink:title="iDynTree/Core/AngularForce\lVector3.h">
<polygon fill="none" stroke="#000000" points="515,-414.5 515,-444.5 667,-444.5 667,-414.5 515,-414.5"/>
<text text-anchor="start" x="523" y="-432.5" font-family="FreeSans.ttf" font-size="10.00" fill="#000000">iDynTree/Core/AngularForce</text>
<text text-anchor="middle" x="591" y="-421.5" font-family="FreeSans.ttf" font-size="10.00" fill="#000000">Vector3.h</text>
</a>
</g>
</g>
<!-- Node33&#45;&gt;Node36 -->
<g id="edge73" class="edge">
<title>Node33&#45;&gt;Node36</title>
<path fill="none" stroke="#191970" d="M710.4394,-481.4639C688.1273,-471.7567 658.9013,-459.0415 634.9446,-448.6188"/>
<polygon fill="#191970" stroke="#191970" points="636.2774,-445.3818 625.7113,-444.6017 633.4848,-451.8006 636.2774,-445.3818"/>
</g>
<!-- Node34&#45;&gt;Node26 -->
<g id="edge72" class="edge">
<title>Node34&#45;&gt;Node26</title>
<path fill="none" stroke="#191970" d="M773.2115,-414.3805C756.2533,-400.5894 736.9913,-379.1885 746,-358 764.0571,-315.5298 805.6204,-280.9008 835.4344,-260.2762"/>
<polygon fill="#191970" stroke="#191970" points="837.5471,-263.0731 843.8861,-254.5838 833.6367,-257.2672 837.5471,-263.0731"/>
</g>
<!-- Node35 -->
<g id="node36" class="node">
<title>Node35</title>
<g id="a_node36"><a xlink:href="ForceVector3_8h.html" target="_top" xlink:title="iDynTree/Core/ForceVector3.h">
<polygon fill="none" stroke="#000000" points="755,-358.5 755,-377.5 915,-377.5 915,-358.5 755,-358.5"/>
<text text-anchor="middle" x="835" y="-365.5" font-family="FreeSans.ttf" font-size="10.00" fill="#000000">iDynTree/Core/ForceVector3.h</text>
</a>
</g>
</g>
<!-- Node34&#45;&gt;Node35 -->
<g id="edge69" class="edge">
<title>Node34&#45;&gt;Node35</title>
<path fill="none" stroke="#191970" d="M804.8876,-414.2977C810.3822,-405.8498 817.2586,-395.2773 823.0527,-386.369"/>
<polygon fill="#191970" stroke="#191970" points="826.0772,-388.1381 828.5955,-377.8469 820.2092,-384.3215 826.0772,-388.1381"/>
</g>
<!-- Node35&#45;&gt;Node23 -->
<g id="edge70" class="edge">
<title>Node35&#45;&gt;Node23</title>
<path fill="none" stroke="#191970" d="M863.4375,-358.3906C894.5572,-347.8749 944.5964,-330.966 979.0485,-319.3243"/>
<polygon fill="#191970" stroke="#191970" points="980.4089,-322.5591 988.7622,-316.0419 978.168,-315.9274 980.4089,-322.5591"/>
</g>
<!-- Node35&#45;&gt;Node26 -->
<g id="edge71" class="edge">
<title>Node35&#45;&gt;Node26</title>
<path fill="none" stroke="#191970" d="M837.553,-358.0231C841.3207,-343.3335 848.6141,-315.0268 855,-291 857.2759,-282.4372 859.8049,-273.0857 862.0804,-264.7295"/>
<polygon fill="#191970" stroke="#191970" points="865.5308,-265.3803 864.789,-254.8114 858.7781,-263.5361 865.5308,-265.3803"/>
</g>
<!-- Node36&#45;&gt;Node3 -->
<g id="edge76" class="edge">
<title>Node36&#45;&gt;Node3</title>
<path fill="none" stroke="#191970" d="M596.986,-414.3025C608.5436,-386.6206 636.3384,-327.4775 676,-291 698.6096,-270.2055 711.1418,-274.3492 735,-255 776.2687,-221.5306 777.7664,-203.8334 817,-168 853.1586,-134.9752 898.8979,-100.6402 925.3635,-81.4262"/>
<polygon fill="#191970" stroke="#191970" points="927.4967,-84.2031 933.5583,-75.5136 923.4008,-78.5264 927.4967,-84.2031"/>
</g>
<!-- Node36&#45;&gt;Node26 -->
<g id="edge75" class="edge">
<title>Node36&#45;&gt;Node26</title>
<path fill="none" stroke="#191970" d="M600.8966,-414.2691C620.016,-385.999 664.782,-325.1854 717,-291 739.3287,-276.3821 766.2278,-265.4933 791.1512,-257.5895"/>
<polygon fill="#191970" stroke="#191970" points="792.4133,-260.8638 800.9567,-254.598 790.3706,-254.1684 792.4133,-260.8638"/>
</g>
<!-- Node36&#45;&gt;Node35 -->
<g id="edge74" class="edge">
<title>Node36&#45;&gt;Node35</title>
<path fill="none" stroke="#191970" d="M650.6891,-414.4554C692.6511,-403.8789 748.0567,-389.914 787.1271,-380.0663"/>
<polygon fill="#191970" stroke="#191970" points="788.3474,-383.3683 797.1887,-377.5303 786.6365,-376.5806 788.3474,-383.3683"/>
</g>
</g>
</svg>
