<?xml version="1.0" encoding="UTF-8" standalone="no"?>
<!DOCTYPE svg PUBLIC "-//W3C//DTD SVG 1.1//EN"
 "http://www.w3.org/Graphics/SVG/1.1/DTD/svg11.dtd">
<!-- Generated by graphviz version 2.40.1 (20161225.0304)
 -->
<!-- Title: PositionSemantics.cpp Pages: 1 -->
<svg width="808pt" height="218pt"
 viewBox="0.00 0.00 807.50 218.00" xmlns="http://www.w3.org/2000/svg" xmlns:xlink="http://www.w3.org/1999/xlink">
<g id="graph0" class="graph" transform="scale(1 1) rotate(0) translate(4 214)">
<title>PositionSemantics.cpp</title>
<!-- Node0 -->
<g id="node1" class="node">
<title>Node0</title>
<polygon fill="#bfbfbf" stroke="#000000" points="473,-190.5 473,-209.5 600,-209.5 600,-190.5 473,-190.5"/>
<text text-anchor="middle" x="536.5" y="-197.5" font-family="FreeSans.ttf" font-size="10.00" fill="#000000">PositionSemantics.cpp</text>
</g>
<!-- Node1 -->
<g id="node2" class="node">
<title>Node1</title>
<g id="a_node2"><a xlink:href="PositionSemantics_8h.html" target="_top" xlink:title="iDynTree/Core/PositionSemantics.h">
<polygon fill="none" stroke="#000000" points="0,-129 0,-148 187,-148 187,-129 0,-129"/>
<text text-anchor="middle" x="93.5" y="-136" font-family="FreeSans.ttf" font-size="10.00" fill="#000000">iDynTree/Core/PositionSemantics.h</text>
</a>
</g>
</g>
<!-- Node0&#45;&gt;Node1 -->
<g id="edge1" class="edge">
<title>Node0&#45;&gt;Node1</title>
<path fill="none" stroke="#191970" d="M472.8572,-191.6771C404.516,-182.6726 292.7631,-167.7542 196.5,-154 186.6318,-152.59 176.2376,-151.0686 166.0015,-149.549"/>
<polygon fill="#191970" stroke="#191970" points="166.2503,-146.0475 155.8434,-148.0343 165.2178,-152.9709 166.2503,-146.0475"/>
</g>
<!-- Node3 -->
<g id="node4" class="node">
<title>Node3</title>
<g id="a_node4"><a xlink:href="RotationSemantics_8h.html" target="_top" xlink:title="iDynTree/Core/RotationSemantics.h">
<polygon fill="none" stroke="#000000" points="205.5,-129 205.5,-148 393.5,-148 393.5,-129 205.5,-129"/>
<text text-anchor="middle" x="299.5" y="-136" font-family="FreeSans.ttf" font-size="10.00" fill="#000000">iDynTree/Core/RotationSemantics.h</text>
</a>
</g>
</g>
<!-- Node0&#45;&gt;Node3 -->
<g id="edge3" class="edge">
<title>Node0&#45;&gt;Node3</title>
<path fill="none" stroke="#191970" d="M499.7288,-190.4581C458.3894,-179.7308 391.1767,-162.2895 346.1678,-150.61"/>
<polygon fill="#191970" stroke="#191970" points="346.916,-147.1883 336.3575,-148.0643 345.1578,-153.9639 346.916,-147.1883"/>
</g>
<!-- Node4 -->
<g id="node5" class="node">
<title>Node4</title>
<g id="a_node5"><a xlink:href="Utils_8h.html" target="_top" xlink:title="iDynTree/Core/Utils.h">
<polygon fill="none" stroke="#000000" points="285,-62 285,-81 404,-81 404,-62 285,-62"/>
<text text-anchor="middle" x="344.5" y="-69" font-family="FreeSans.ttf" font-size="10.00" fill="#000000">iDynTree/Core/Utils.h</text>
</a>
</g>
</g>
<!-- Node0&#45;&gt;Node4 -->
<g id="edge7" class="edge">
<title>Node0&#45;&gt;Node4</title>
<path fill="none" stroke="#191970" d="M512.2911,-190.4988C492.2962,-182.1668 463.5582,-169.0535 440.5,-154 432.2394,-148.6071 388.3347,-110.1892 362.854,-87.7292"/>
<polygon fill="#191970" stroke="#191970" points="365.1106,-85.0526 355.2969,-81.0598 360.4787,-90.301 365.1106,-85.0526"/>
</g>
<!-- Node6 -->
<g id="node7" class="node">
<title>Node6</title>
<g id="a_node7"><a xlink:href="PrivateSemanticsMacros_8h.html" target="_top" xlink:title="iDynTree/Core/PrivateSemantics\lMacros.h">
<polygon fill="none" stroke="#000000" points="450,-123.5 450,-153.5 623,-153.5 623,-123.5 450,-123.5"/>
<text text-anchor="start" x="458" y="-141.5" font-family="FreeSans.ttf" font-size="10.00" fill="#000000">iDynTree/Core/PrivateSemantics</text>
<text text-anchor="middle" x="536.5" y="-130.5" font-family="FreeSans.ttf" font-size="10.00" fill="#000000">Macros.h</text>
</a>
</g>
</g>
<!-- Node0&#45;&gt;Node6 -->
<g id="edge8" class="edge">
<title>Node0&#45;&gt;Node6</title>
<path fill="none" stroke="#191970" d="M536.5,-190.3906C536.5,-183.2234 536.5,-173.0862 536.5,-163.671"/>
<polygon fill="#191970" stroke="#191970" points="540.0001,-163.5446 536.5,-153.5446 533.0001,-163.5446 540.0001,-163.5446"/>
</g>
<!-- Node7 -->
<g id="node8" class="node">
<title>Node7</title>
<g id="a_node8"><a xlink:href="PrivatePreProcessorUtils_8h.html" target="_top" xlink:title="iDynTree/Core/PrivatePre\lProcessorUtils.h">
<polygon fill="none" stroke="#000000" points="524.5,-56.5 524.5,-86.5 662.5,-86.5 662.5,-56.5 524.5,-56.5"/>
<text text-anchor="start" x="532.5" y="-74.5" font-family="FreeSans.ttf" font-size="10.00" fill="#000000">iDynTree/Core/PrivatePre</text>
<text text-anchor="middle" x="593.5" y="-63.5" font-family="FreeSans.ttf" font-size="10.00" fill="#000000">ProcessorUtils.h</text>
</a>
</g>
</g>
<!-- Node0&#45;&gt;Node7 -->
<g id="edge10" class="edge">
<title>Node0&#45;&gt;Node7</title>
<path fill="none" stroke="#191970" d="M579.9832,-190.3976C599.5751,-183.6689 620.8795,-172.4539 632.5,-154 644.5429,-134.8753 631.0534,-111.4465 616.7477,-94.4493"/>
<polygon fill="#191970" stroke="#191970" points="619.0507,-91.7752 609.7676,-86.6689 613.8402,-96.4497 619.0507,-91.7752"/>
</g>
<!-- Node8 -->
<g id="node9" class="node">
<title>Node8</title>
<polygon fill="none" stroke="#bfbfbf" points="679.5,-129 679.5,-148 725.5,-148 725.5,-129 679.5,-129"/>
<text text-anchor="middle" x="702.5" y="-136" font-family="FreeSans.ttf" font-size="10.00" fill="#000000">cstdio</text>
</g>
<!-- Node0&#45;&gt;Node8 -->
<g id="edge11" class="edge">
<title>Node0&#45;&gt;Node8</title>
<path fill="none" stroke="#191970" d="M564.5934,-190.4738C590.8346,-181.4596 631.0236,-167.3571 665.5,-154 667.3021,-153.3018 669.1483,-152.5729 671.0078,-151.828"/>
<polygon fill="#191970" stroke="#191970" points="672.3421,-155.0638 680.2743,-148.0402 669.6934,-148.5842 672.3421,-155.0638"/>
</g>
<!-- Node9 -->
<g id="node10" class="node">
<title>Node9</title>
<polygon fill="none" stroke="#bfbfbf" points="743.5,-129 743.5,-148 799.5,-148 799.5,-129 743.5,-129"/>
<text text-anchor="middle" x="771.5" y="-136" font-family="FreeSans.ttf" font-size="10.00" fill="#000000">sstream</text>
</g>
<!-- Node0&#45;&gt;Node9 -->
<g id="edge12" class="edge">
<title>Node0&#45;&gt;Node9</title>
<path fill="none" stroke="#191970" d="M588.4299,-190.4279C628.7524,-182.3998 685.807,-169.7316 734.5,-154 736.4385,-153.3737 738.417,-152.6882 740.4011,-151.9652"/>
<polygon fill="#191970" stroke="#191970" points="742.1654,-155.0338 750.2088,-148.1378 739.6206,-148.5127 742.1654,-155.0338"/>
</g>
<!-- Node2 -->
<g id="node3" class="node">
<title>Node2</title>
<polygon fill="none" stroke="#bfbfbf" points="169.5,-62 169.5,-81 213.5,-81 213.5,-62 169.5,-62"/>
<text text-anchor="middle" x="191.5" y="-69" font-family="FreeSans.ttf" font-size="10.00" fill="#000000">string</text>
</g>
<!-- Node1&#45;&gt;Node2 -->
<g id="edge2" class="edge">
<title>Node1&#45;&gt;Node2</title>
<path fill="none" stroke="#191970" d="M107.541,-128.9005C123.6238,-117.9052 150.1906,-99.7422 169.1316,-86.7927"/>
<polygon fill="#191970" stroke="#191970" points="171.2052,-89.6148 177.485,-81.0817 167.2545,-83.8362 171.2052,-89.6148"/>
</g>
<!-- Node3&#45;&gt;Node2 -->
<g id="edge4" class="edge">
<title>Node3&#45;&gt;Node2</title>
<path fill="none" stroke="#191970" d="M284.0262,-128.9005C266.142,-117.8057 236.4938,-99.4128 215.5862,-86.4424"/>
<polygon fill="#191970" stroke="#191970" points="217.2878,-83.3792 206.9451,-81.0817 213.5976,-89.3275 217.2878,-83.3792"/>
</g>
<!-- Node3&#45;&gt;Node4 -->
<g id="edge5" class="edge">
<title>Node3&#45;&gt;Node4</title>
<path fill="none" stroke="#191970" d="M305.9474,-128.9005C312.8311,-118.6515 323.8976,-102.1747 332.412,-89.4976"/>
<polygon fill="#191970" stroke="#191970" points="335.3944,-91.3345 338.0646,-81.0817 329.5835,-87.4316 335.3944,-91.3345"/>
</g>
<!-- Node5 -->
<g id="node6" class="node">
<title>Node5</title>
<polygon fill="none" stroke="#bfbfbf" points="318,-.5 318,-19.5 371,-19.5 371,-.5 318,-.5"/>
<text text-anchor="middle" x="344.5" y="-7.5" font-family="FreeSans.ttf" font-size="10.00" fill="#000000">cstddef</text>
</g>
<!-- Node4&#45;&gt;Node5 -->
<g id="edge6" class="edge">
<title>Node4&#45;&gt;Node5</title>
<path fill="none" stroke="#191970" d="M344.5,-61.8906C344.5,-53.3657 344.5,-40.6392 344.5,-29.9235"/>
<polygon fill="#191970" stroke="#191970" points="348.0001,-29.7448 344.5,-19.7449 341.0001,-29.7449 348.0001,-29.7448"/>
</g>
<!-- Node6&#45;&gt;Node7 -->
<g id="edge9" class="edge">
<title>Node6&#45;&gt;Node7</title>
<path fill="none" stroke="#191970" d="M549.4342,-123.2967C556.722,-114.7303 565.9687,-103.8614 574.1079,-94.2943"/>
<polygon fill="#191970" stroke="#191970" points="576.803,-96.5277 580.617,-86.6432 571.4714,-91.9918 576.803,-96.5277"/>
</g>
</g>
</svg>
