<?xml version="1.0" encoding="UTF-8" standalone="no"?>
<!DOCTYPE svg PUBLIC "-//W3C//DTD SVG 1.1//EN"
 "http://www.w3.org/Graphics/SVG/1.1/DTD/svg11.dtd">
<!-- Generated by graphviz version 2.40.1 (20161225.0304)
 -->
<!-- Title: PrivateUtils.h Pages: 1 -->
<svg width="814pt" height="84pt"
 viewBox="0.00 0.00 813.50 84.00" xmlns="http://www.w3.org/2000/svg" xmlns:xlink="http://www.w3.org/1999/xlink">
<g id="graph0" class="graph" transform="scale(1 1) rotate(0) translate(4 80)">
<title>PrivateUtils.h</title>
<!-- Node43 -->
<g id="node1" class="node">
<title>Node43</title>
<polygon fill="#bfbfbf" stroke="#000000" points="421.5,-56.5 421.5,-75.5 504.5,-75.5 504.5,-56.5 421.5,-56.5"/>
<text text-anchor="middle" x="463" y="-63.5" font-family="FreeSans.ttf" font-size="10.00" fill="#000000">PrivateUtils.h</text>
</g>
<!-- Node44 -->
<g id="node2" class="node">
<title>Node44</title>
<g id="a_node2"><a xlink:href="PrivateUtils_8cpp.html" target="_top" xlink:title="PrivateUtils.cpp">
<polygon fill="none" stroke="#000000" points="0,-.5 0,-19.5 94,-19.5 94,-.5 0,-.5"/>
<text text-anchor="middle" x="47" y="-7.5" font-family="FreeSans.ttf" font-size="10.00" fill="#000000">PrivateUtils.cpp</text>
</a>
</g>
</g>
<!-- Node43&#45;&gt;Node44 -->
<g id="edge1" class="edge">
<title>Node43&#45;&gt;Node44</title>
<path fill="none" stroke="#191970" d="M411.0103,-60.1774C340.9212,-52.1404 212.3006,-36.7315 103,-20 100.0713,-19.5517 97.06,-19.0711 94.0256,-18.572"/>
<polygon fill="#191970" stroke="#191970" points="410.9984,-63.6987 421.331,-61.356 411.7927,-56.7439 410.9984,-63.6987"/>
</g>
<!-- Node45 -->
<g id="node3" class="node">
<title>Node45</title>
<g id="a_node3"><a xlink:href="SpatialInertiaRaw_8cpp.html" target="_top" xlink:title="SpatialInertiaRaw.cpp">
<polygon fill="none" stroke="#000000" points="112,-.5 112,-19.5 234,-19.5 234,-.5 112,-.5"/>
<text text-anchor="middle" x="173" y="-7.5" font-family="FreeSans.ttf" font-size="10.00" fill="#000000">SpatialInertiaRaw.cpp</text>
</a>
</g>
</g>
<!-- Node43&#45;&gt;Node45 -->
<g id="edge2" class="edge">
<title>Node43&#45;&gt;Node45</title>
<path fill="none" stroke="#191970" d="M411.4905,-56.0533C357.988,-45.7218 274.8803,-29.6734 222.2356,-19.5076"/>
<polygon fill="#191970" stroke="#191970" points="410.9678,-59.517 421.4501,-57.9766 412.2951,-52.644 410.9678,-59.517"/>
</g>
<!-- Node46 -->
<g id="node4" class="node">
<title>Node46</title>
<g id="a_node4"><a xlink:href="SpatialMomentum_8cpp.html" target="_top" xlink:title="SpatialMomentum.cpp">
<polygon fill="none" stroke="#000000" points="252,-.5 252,-19.5 378,-19.5 378,-.5 252,-.5"/>
<text text-anchor="middle" x="315" y="-7.5" font-family="FreeSans.ttf" font-size="10.00" fill="#000000">SpatialMomentum.cpp</text>
</a>
</g>
</g>
<!-- Node43&#45;&gt;Node46 -->
<g id="edge3" class="edge">
<title>Node43&#45;&gt;Node46</title>
<path fill="none" stroke="#191970" d="M428.0847,-52.7888C401.0617,-42.5639 364.286,-28.6488 340.1101,-19.5011"/>
<polygon fill="#191970" stroke="#191970" points="426.9664,-56.1078 437.5579,-56.3733 429.4437,-49.5608 426.9664,-56.1078"/>
</g>
<!-- Node47 -->
<g id="node5" class="node">
<title>Node47</title>
<g id="a_node5"><a xlink:href="SpatialMotionVector_8cpp.html" target="_top" xlink:title="SpatialMotionVector.cpp">
<polygon fill="none" stroke="#000000" points="396,-.5 396,-19.5 530,-19.5 530,-.5 396,-.5"/>
<text text-anchor="middle" x="463" y="-7.5" font-family="FreeSans.ttf" font-size="10.00" fill="#000000">SpatialMotionVector.cpp</text>
</a>
</g>
</g>
<!-- Node43&#45;&gt;Node47 -->
<g id="edge4" class="edge">
<title>Node43&#45;&gt;Node47</title>
<path fill="none" stroke="#191970" d="M463,-46.1575C463,-37.155 463,-26.9199 463,-19.6427"/>
<polygon fill="#191970" stroke="#191970" points="459.5001,-46.2455 463,-56.2455 466.5001,-46.2456 459.5001,-46.2455"/>
</g>
<!-- Node48 -->
<g id="node6" class="node">
<title>Node48</title>
<g id="a_node6"><a xlink:href="Transform_8cpp.html" target="_top" xlink:title="Transform.cpp">
<polygon fill="none" stroke="#000000" points="548,-.5 548,-19.5 634,-19.5 634,-.5 548,-.5"/>
<text text-anchor="middle" x="591" y="-7.5" font-family="FreeSans.ttf" font-size="10.00" fill="#000000">Transform.cpp</text>
</a>
</g>
</g>
<!-- Node43&#45;&gt;Node48 -->
<g id="edge5" class="edge">
<title>Node43&#45;&gt;Node48</title>
<path fill="none" stroke="#191970" d="M494.4348,-52.2473C517.6809,-42.0771 548.7411,-28.4883 569.2831,-19.5011"/>
<polygon fill="#191970" stroke="#191970" points="492.7627,-49.1585 485.004,-56.3733 495.5685,-55.5716 492.7627,-49.1585"/>
</g>
<!-- Node49 -->
<g id="node7" class="node">
<title>Node49</title>
<g id="a_node7"><a xlink:href="Twist_8cpp.html" target="_top" xlink:title="Twist.cpp">
<polygon fill="none" stroke="#000000" points="652,-.5 652,-19.5 714,-19.5 714,-.5 652,-.5"/>
<text text-anchor="middle" x="683" y="-7.5" font-family="FreeSans.ttf" font-size="10.00" fill="#000000">Twist.cpp</text>
</a>
</g>
</g>
<!-- Node43&#45;&gt;Node49 -->
<g id="edge6" class="edge">
<title>Node43&#45;&gt;Node49</title>
<path fill="none" stroke="#191970" d="M510.7168,-53.8539C553.463,-42.9731 614.9253,-27.3281 651.7157,-17.9633"/>
<polygon fill="#191970" stroke="#191970" points="509.6469,-50.5145 500.8193,-56.3733 511.3737,-57.2982 509.6469,-50.5145"/>
</g>
<!-- Node50 -->
<g id="node8" class="node">
<title>Node50</title>
<g id="a_node8"><a xlink:href="Wrench_8cpp.html" target="_top" xlink:title="Wrench.cpp">
<polygon fill="none" stroke="#000000" points="732.5,-.5 732.5,-19.5 805.5,-19.5 805.5,-.5 732.5,-.5"/>
<text text-anchor="middle" x="769" y="-7.5" font-family="FreeSans.ttf" font-size="10.00" fill="#000000">Wrench.cpp</text>
</a>
</g>
</g>
<!-- Node43&#45;&gt;Node50 -->
<g id="edge7" class="edge">
<title>Node43&#45;&gt;Node50</title>
<path fill="none" stroke="#191970" d="M514.6,-57.4799C567.1412,-48.6614 650.8998,-34.2095 723,-20 726.047,-19.3995 729.203,-18.7569 732.3684,-18.098"/>
<polygon fill="#191970" stroke="#191970" points="513.8058,-54.064 504.5207,-59.1667 514.9613,-60.968 513.8058,-54.064"/>
</g>
</g>
</svg>
