<?xml version="1.0" encoding="UTF-8" standalone="no"?>
<!DOCTYPE svg PUBLIC "-//W3C//DTD SVG 1.1//EN"
 "http://www.w3.org/Graphics/SVG/1.1/DTD/svg11.dtd">
<!-- Generated by graphviz version 2.40.1 (20161225.0304)
 -->
<!-- Title: qticubskinguiplugin.h Pages: 1 -->
<svg width="270pt" height="95pt"
 viewBox="0.00 0.00 270.00 95.00" xmlns="http://www.w3.org/2000/svg" xmlns:xlink="http://www.w3.org/1999/xlink">
<g id="graph0" class="graph" transform="scale(1 1) rotate(0) translate(4 91)">
<title>qticubskinguiplugin.h</title>
<!-- Node65 -->
<g id="node1" class="node">
<title>Node65</title>
<polygon fill="#bfbfbf" stroke="#000000" points="75.5,-67.5 75.5,-86.5 196.5,-86.5 196.5,-67.5 75.5,-67.5"/>
<text text-anchor="middle" x="136" y="-74.5" font-family="FreeSans.ttf" font-size="10.00" fill="#000000">qticubskinguiplugin.h</text>
</g>
<!-- Node66 -->
<g id="node2" class="node">
<title>Node66</title>
<g id="a_node2"><a xlink:href="qticubskinguiplugin_8cpp.html" target="_top" xlink:title="qticubskinguiplugin.cpp">
<polygon fill="none" stroke="#000000" points="0,-6 0,-25 132,-25 132,-6 0,-6"/>
<text text-anchor="middle" x="66" y="-13" font-family="FreeSans.ttf" font-size="10.00" fill="#000000">qticubskinguiplugin.cpp</text>
</a>
</g>
</g>
<!-- Node65&#45;&gt;Node66 -->
<g id="edge1" class="edge">
<title>Node65&#45;&gt;Node66</title>
<path fill="none" stroke="#191970" d="M117.2743,-60.5482C104.4485,-49.2798 87.8719,-34.716 77.0917,-25.2449"/>
<polygon fill="#191970" stroke="#191970" points="115.2399,-63.4197 125.0625,-67.3906 119.8601,-58.161 115.2399,-63.4197"/>
</g>
<!-- Node67 -->
<g id="node3" class="node">
<title>Node67</title>
<g id="a_node3"><a xlink:href="qticubskinguiplugin__plugin_8cpp.html" target="_top" xlink:title="qticubskinguiplugin\l_plugin.cpp">
<polygon fill="none" stroke="#000000" points="150,-.5 150,-30.5 262,-30.5 262,-.5 150,-.5"/>
<text text-anchor="start" x="158" y="-18.5" font-family="FreeSans.ttf" font-size="10.00" fill="#000000">qticubskinguiplugin</text>
<text text-anchor="middle" x="206" y="-7.5" font-family="FreeSans.ttf" font-size="10.00" fill="#000000">_plugin.cpp</text>
</a>
</g>
</g>
<!-- Node65&#45;&gt;Node67 -->
<g id="edge2" class="edge">
<title>Node65&#45;&gt;Node67</title>
<path fill="none" stroke="#191970" d="M154.4804,-60.7637C165.1405,-51.398 178.4537,-39.7014 188.8761,-30.5446"/>
<polygon fill="#191970" stroke="#191970" points="152.1399,-58.161 146.9375,-67.3906 156.7601,-63.4197 152.1399,-58.161"/>
</g>
</g>
</svg>
