<?xml version="1.0" encoding="UTF-8" standalone="no"?>
<!DOCTYPE svg PUBLIC "-//W3C//DTD SVG 1.1//EN"
 "http://www.w3.org/Graphics/SVG/1.1/DTD/svg11.dtd">
<!-- Generated by graphviz version 2.40.1 (20161225.0304)
 -->
<!-- Title: QuadraticLikeCost.h Pages: 1 -->
<svg width="460pt" height="140pt"
 viewBox="0.00 0.00 459.50 140.00" xmlns="http://www.w3.org/2000/svg" xmlns:xlink="http://www.w3.org/1999/xlink">
<g id="graph0" class="graph" transform="scale(1 1) rotate(0) translate(4 136)">
<title>QuadraticLikeCost.h</title>
<!-- Node34 -->
<g id="node1" class="node">
<title>Node34</title>
<polygon fill="#bfbfbf" stroke="#000000" points="164,-112.5 164,-131.5 279,-131.5 279,-112.5 164,-112.5"/>
<text text-anchor="middle" x="221.5" y="-119.5" font-family="FreeSans.ttf" font-size="10.00" fill="#000000">QuadraticLikeCost.h</text>
</g>
<!-- Node35 -->
<g id="node2" class="node">
<title>Node35</title>
<g id="a_node2"><a xlink:href="LinearCost_8h.html" target="_top" xlink:title="LinearCost.h">
<polygon fill="none" stroke="#000000" points="78,-56.5 78,-75.5 155,-75.5 155,-56.5 78,-56.5"/>
<text text-anchor="middle" x="116.5" y="-63.5" font-family="FreeSans.ttf" font-size="10.00" fill="#000000">LinearCost.h</text>
</a>
</g>
</g>
<!-- Node34&#45;&gt;Node35 -->
<g id="edge1" class="edge">
<title>Node34&#45;&gt;Node35</title>
<path fill="none" stroke="#191970" d="M194.2375,-107.46C175.4478,-97.4388 150.9987,-84.3993 134.58,-75.6427"/>
<polygon fill="#191970" stroke="#191970" points="192.7398,-110.6278 203.2104,-112.2455 196.0339,-104.4514 192.7398,-110.6278"/>
</g>
<!-- Node37 -->
<g id="node4" class="node">
<title>Node37</title>
<g id="a_node4"><a xlink:href="OptimalControlProblem_8cpp.html" target="_top" xlink:title="OptimalControlProblem.cpp">
<polygon fill="none" stroke="#000000" points="107.5,-.5 107.5,-19.5 259.5,-19.5 259.5,-.5 107.5,-.5"/>
<text text-anchor="middle" x="183.5" y="-7.5" font-family="FreeSans.ttf" font-size="10.00" fill="#000000">OptimalControlProblem.cpp</text>
</a>
</g>
</g>
<!-- Node34&#45;&gt;Node37 -->
<g id="edge7" class="edge">
<title>Node34&#45;&gt;Node37</title>
<path fill="none" stroke="#191970" d="M213.0374,-102.8661C209.56,-94.6726 205.6249,-84.9476 202.5,-76 195.5807,-56.1878 189.195,-32.4221 185.8796,-19.5033"/>
<polygon fill="#191970" stroke="#191970" points="209.9162,-104.4661 217.1019,-112.2518 216.3397,-101.6844 209.9162,-104.4661"/>
</g>
<!-- Node38 -->
<g id="node5" class="node">
<title>Node38</title>
<g id="a_node5"><a xlink:href="QuadraticCost_8h.html" target="_top" xlink:title="QuadraticCost.h">
<polygon fill="none" stroke="#000000" points="212,-56.5 212,-75.5 307,-75.5 307,-56.5 212,-56.5"/>
<text text-anchor="middle" x="259.5" y="-63.5" font-family="FreeSans.ttf" font-size="10.00" fill="#000000">QuadraticCost.h</text>
</a>
</g>
</g>
<!-- Node34&#45;&gt;Node38 -->
<g id="edge4" class="edge">
<title>Node34&#45;&gt;Node38</title>
<path fill="none" stroke="#191970" d="M233.7679,-103.9209C240.1488,-94.5176 247.6931,-83.3997 252.9568,-75.6427"/>
<polygon fill="#191970" stroke="#191970" points="230.838,-102.0055 228.1191,-112.2455 236.6303,-105.936 230.838,-102.0055"/>
</g>
<!-- Node40 -->
<g id="node7" class="node">
<title>Node40</title>
<g id="a_node7"><a xlink:href="QuadraticLikeCost_8cpp.html" target="_top" xlink:title="QuadraticLikeCost.cpp">
<polygon fill="none" stroke="#000000" points="325.5,-56.5 325.5,-75.5 451.5,-75.5 451.5,-56.5 325.5,-56.5"/>
<text text-anchor="middle" x="388.5" y="-63.5" font-family="FreeSans.ttf" font-size="10.00" fill="#000000">QuadraticLikeCost.cpp</text>
</a>
</g>
</g>
<!-- Node34&#45;&gt;Node40 -->
<g id="edge8" class="edge">
<title>Node34&#45;&gt;Node40</title>
<path fill="none" stroke="#191970" d="M259.6998,-109.1905C290.2954,-98.9309 332.5278,-84.7691 360.1663,-75.5011"/>
<polygon fill="#191970" stroke="#191970" points="258.5767,-105.8755 250.2083,-112.3733 260.8022,-112.5123 258.5767,-105.8755"/>
</g>
<!-- Node36 -->
<g id="node3" class="node">
<title>Node36</title>
<g id="a_node3"><a xlink:href="LinearCost_8cpp.html" target="_top" xlink:title="LinearCost.cpp">
<polygon fill="none" stroke="#000000" points="0,-.5 0,-19.5 89,-19.5 89,-.5 0,-.5"/>
<text text-anchor="middle" x="44.5" y="-7.5" font-family="FreeSans.ttf" font-size="10.00" fill="#000000">LinearCost.cpp</text>
</a>
</g>
</g>
<!-- Node35&#45;&gt;Node36 -->
<g id="edge2" class="edge">
<title>Node35&#45;&gt;Node36</title>
<path fill="none" stroke="#191970" d="M95.836,-49.928C83.2511,-40.1397 67.5908,-27.9595 56.8977,-19.6427"/>
<polygon fill="#191970" stroke="#191970" points="93.9162,-52.8688 103.9586,-56.2455 98.2138,-47.3434 93.9162,-52.8688"/>
</g>
<!-- Node35&#45;&gt;Node37 -->
<g id="edge3" class="edge">
<title>Node35&#45;&gt;Node37</title>
<path fill="none" stroke="#191970" d="M136.0676,-49.645C147.7198,-39.9058 162.1084,-27.8795 171.9632,-19.6427"/>
<polygon fill="#191970" stroke="#191970" points="133.5988,-47.1469 128.1705,-56.2455 138.0879,-52.5179 133.5988,-47.1469"/>
</g>
<!-- Node38&#45;&gt;Node37 -->
<g id="edge5" class="edge">
<title>Node38&#45;&gt;Node37</title>
<path fill="none" stroke="#191970" d="M238.0703,-50.2097C224.7223,-40.3743 207.9821,-28.0394 196.5865,-19.6427"/>
<polygon fill="#191970" stroke="#191970" points="236.135,-53.1312 246.2618,-56.2455 240.2874,-47.4958 236.135,-53.1312"/>
</g>
<!-- Node39 -->
<g id="node6" class="node">
<title>Node39</title>
<g id="a_node6"><a xlink:href="QuadraticCost_8cpp.html" target="_top" xlink:title="QuadraticCost.cpp">
<polygon fill="none" stroke="#000000" points="277.5,-.5 277.5,-19.5 383.5,-19.5 383.5,-.5 277.5,-.5"/>
<text text-anchor="middle" x="330.5" y="-7.5" font-family="FreeSans.ttf" font-size="10.00" fill="#000000">QuadraticCost.cpp</text>
</a>
</g>
</g>
<!-- Node38&#45;&gt;Node39 -->
<g id="edge6" class="edge">
<title>Node38&#45;&gt;Node39</title>
<path fill="none" stroke="#191970" d="M279.877,-49.928C292.2871,-40.1397 307.73,-27.9595 318.2745,-19.6427"/>
<polygon fill="#191970" stroke="#191970" points="277.5514,-47.3046 271.8673,-56.2455 281.8864,-52.8007 277.5514,-47.3046"/>
</g>
</g>
</svg>
