<?xml version="1.0" encoding="UTF-8" standalone="no"?>
<!DOCTYPE svg PUBLIC "-//W3C//DTD SVG 1.1//EN"
 "http://www.w3.org/Graphics/SVG/1.1/DTD/svg11.dtd">
<!-- Generated by graphviz version 2.40.1 (20161225.0304)
 -->
<!-- Title: QuadraticCost.h Pages: 1 -->
<svg width="1339pt" height="532pt"
 viewBox="0.00 0.00 1339.00 532.00" xmlns="http://www.w3.org/2000/svg" xmlns:xlink="http://www.w3.org/1999/xlink">
<g id="graph0" class="graph" transform="scale(1 1) rotate(0) translate(4 528)">
<title>QuadraticCost.h</title>
<!-- Node0 -->
<g id="node1" class="node">
<title>Node0</title>
<polygon fill="#bfbfbf" stroke="#000000" points="180.5,-504.5 180.5,-523.5 275.5,-523.5 275.5,-504.5 180.5,-504.5"/>
<text text-anchor="middle" x="228" y="-511.5" font-family="FreeSans.ttf" font-size="10.00" fill="#000000">QuadraticCost.h</text>
</g>
<!-- Node1 -->
<g id="node2" class="node">
<title>Node1</title>
<g id="a_node2"><a xlink:href="QuadraticLikeCost_8h.html" target="_top" xlink:title="iDynTree/QuadraticLikeCost.h">
<polygon fill="none" stroke="#000000" points="38.5,-448.5 38.5,-467.5 199.5,-467.5 199.5,-448.5 38.5,-448.5"/>
<text text-anchor="middle" x="119" y="-455.5" font-family="FreeSans.ttf" font-size="10.00" fill="#000000">iDynTree/QuadraticLikeCost.h</text>
</a>
</g>
</g>
<!-- Node0&#45;&gt;Node1 -->
<g id="edge1" class="edge">
<title>Node0&#45;&gt;Node1</title>
<path fill="none" stroke="#191970" d="M209.0136,-504.2455C191.8208,-495.4125 166.2762,-482.2887 146.7868,-472.2758"/>
<polygon fill="#191970" stroke="#191970" points="148.263,-469.0993 137.7688,-467.6427 145.0641,-475.3257 148.263,-469.0993"/>
</g>
<!-- Node9 -->
<g id="node10" class="node">
<title>Node9</title>
<g id="a_node10"><a xlink:href="TimeVaryingObject_8h.html" target="_top" xlink:title="iDynTree/TimeVaryingObject.h">
<polygon fill="none" stroke="#000000" points="256,-392.5 256,-411.5 420,-411.5 420,-392.5 256,-392.5"/>
<text text-anchor="middle" x="338" y="-399.5" font-family="FreeSans.ttf" font-size="10.00" fill="#000000">iDynTree/TimeVaryingObject.h</text>
</a>
</g>
</g>
<!-- Node0&#45;&gt;Node9 -->
<g id="edge62" class="edge">
<title>Node0&#45;&gt;Node9</title>
<path fill="none" stroke="#191970" d="M237.3785,-504.4509C256.0499,-485.4401 298.0834,-442.6423 321.4842,-418.816"/>
<polygon fill="#191970" stroke="#191970" points="324.1352,-421.1119 328.6452,-411.5249 319.141,-416.2069 324.1352,-421.1119"/>
</g>
<!-- Node10 -->
<g id="node11" class="node">
<title>Node10</title>
<g id="a_node11"><a xlink:href="VectorDynSize_8h.html" target="_top" xlink:title="iDynTree/Core/VectorDynSize.h">
<polygon fill="none" stroke="#000000" points="256.5,-280.5 256.5,-299.5 423.5,-299.5 423.5,-280.5 256.5,-280.5"/>
<text text-anchor="middle" x="340" y="-287.5" font-family="FreeSans.ttf" font-size="10.00" fill="#000000">iDynTree/Core/VectorDynSize.h</text>
</a>
</g>
</g>
<!-- Node0&#45;&gt;Node10 -->
<g id="edge63" class="edge">
<title>Node0&#45;&gt;Node10</title>
<path fill="none" stroke="#191970" d="M275.5379,-504.8067C323.7091,-492.6838 395.7303,-466.1916 429,-412 453.6798,-371.8002 399.7066,-327.8442 365.4475,-305.2688"/>
<polygon fill="#191970" stroke="#191970" points="367.1168,-302.182 356.8056,-299.7469 363.3477,-308.0807 367.1168,-302.182"/>
</g>
<!-- Node20 -->
<g id="node21" class="node">
<title>Node20</title>
<g id="a_node21"><a xlink:href="MatrixDynSize_8h.html" target="_top" xlink:title="iDynTree/Core/MatrixDynSize.h">
<polygon fill="none" stroke="#000000" points="145.5,-336.5 145.5,-355.5 312.5,-355.5 312.5,-336.5 145.5,-336.5"/>
<text text-anchor="middle" x="229" y="-343.5" font-family="FreeSans.ttf" font-size="10.00" fill="#000000">iDynTree/Core/MatrixDynSize.h</text>
</a>
</g>
</g>
<!-- Node0&#45;&gt;Node20 -->
<g id="edge64" class="edge">
<title>Node0&#45;&gt;Node20</title>
<path fill="none" stroke="#191970" d="M228.0566,-504.4862C228.2147,-477.9293 228.6633,-402.5651 228.88,-366.1655"/>
<polygon fill="#191970" stroke="#191970" points="232.3818,-365.8486 228.9415,-355.8279 225.3819,-365.8068 232.3818,-365.8486"/>
</g>
<!-- Node34 -->
<g id="node35" class="node">
<title>Node34</title>
<polygon fill="none" stroke="#bfbfbf" points="7,-392.5 7,-411.5 65,-411.5 65,-392.5 7,-392.5"/>
<text text-anchor="middle" x="36" y="-399.5" font-family="FreeSans.ttf" font-size="10.00" fill="#000000">memory</text>
</g>
<!-- Node0&#45;&gt;Node34 -->
<g id="edge65" class="edge">
<title>Node0&#45;&gt;Node34</title>
<path fill="none" stroke="#191970" d="M180.1943,-509.6947C127.4478,-503.8385 47.5391,-491.3134 29,-468 18.6122,-454.937 22.22,-435.5278 27.3115,-421.1354"/>
<polygon fill="#191970" stroke="#191970" points="30.6201,-422.2885 31.1022,-411.7047 24.1252,-419.6778 30.6201,-422.2885"/>
</g>
<!-- Node2 -->
<g id="node3" class="node">
<title>Node2</title>
<g id="a_node3"><a xlink:href="Cost_8h.html" target="_top" xlink:title="iDynTree/Cost.h">
<polygon fill="none" stroke="#000000" points="71.5,-168.5 71.5,-187.5 164.5,-187.5 164.5,-168.5 71.5,-168.5"/>
<text text-anchor="middle" x="118" y="-175.5" font-family="FreeSans.ttf" font-size="10.00" fill="#000000">iDynTree/Cost.h</text>
</a>
</g>
</g>
<!-- Node1&#45;&gt;Node2 -->
<g id="edge2" class="edge">
<title>Node1&#45;&gt;Node2</title>
<path fill="none" stroke="#191970" d="M118.8567,-448.4119C118.5802,-429.0545 118,-383.9182 118,-346 118,-346 118,-346 118,-290 118,-257.7116 118,-220.1872 118,-197.8048"/>
<polygon fill="#191970" stroke="#191970" points="121.5001,-197.5883 118,-187.5884 114.5001,-197.5884 121.5001,-197.5883"/>
</g>
<!-- Node1&#45;&gt;Node9 -->
<g id="edge11" class="edge">
<title>Node1&#45;&gt;Node9</title>
<path fill="none" stroke="#191970" d="M156.6474,-448.3733C193.852,-438.8598 250.8703,-424.2797 291.0216,-414.0127"/>
<polygon fill="#191970" stroke="#191970" points="292.0227,-417.3695 300.8438,-411.5011 290.2884,-410.5877 292.0227,-417.3695"/>
</g>
<!-- Node1&#45;&gt;Node34 -->
<g id="edge61" class="edge">
<title>Node1&#45;&gt;Node34</title>
<path fill="none" stroke="#191970" d="M104.5425,-448.2455C91.9268,-439.7337 73.4056,-427.2375 58.7955,-417.3801"/>
<polygon fill="#191970" stroke="#191970" points="60.5391,-414.3343 50.2918,-411.6427 56.6239,-420.1371 60.5391,-414.3343"/>
</g>
<!-- Node3 -->
<g id="node4" class="node">
<title>Node3</title>
<polygon fill="none" stroke="#bfbfbf" points="378,-56.5 378,-75.5 422,-75.5 422,-56.5 378,-56.5"/>
<text text-anchor="middle" x="400" y="-63.5" font-family="FreeSans.ttf" font-size="10.00" fill="#000000">string</text>
</g>
<!-- Node2&#45;&gt;Node3 -->
<g id="edge3" class="edge">
<title>Node2&#45;&gt;Node3</title>
<path fill="none" stroke="#191970" d="M129.1465,-168.4381C146.409,-154.109 181.1595,-127.1359 215,-112 265.9505,-89.2113 330.0572,-76.4847 367.8752,-70.4527"/>
<polygon fill="#191970" stroke="#191970" points="368.4594,-73.9041 377.8119,-68.9261 367.3964,-66.9853 368.4594,-73.9041"/>
</g>
<!-- Node4 -->
<g id="node5" class="node">
<title>Node4</title>
<g id="a_node5"><a xlink:href="SparsityStructure_8h.html" target="_top" xlink:title="iDynTree/SparsityStructure.h">
<polygon fill="none" stroke="#000000" points="7.5,-112.5 7.5,-131.5 162.5,-131.5 162.5,-112.5 7.5,-112.5"/>
<text text-anchor="middle" x="85" y="-119.5" font-family="FreeSans.ttf" font-size="10.00" fill="#000000">iDynTree/SparsityStructure.h</text>
</a>
</g>
</g>
<!-- Node2&#45;&gt;Node4 -->
<g id="edge4" class="edge">
<title>Node2&#45;&gt;Node4</title>
<path fill="none" stroke="#191970" d="M112.2518,-168.2455C107.7565,-160.617 101.3752,-149.7881 95.9175,-140.5267"/>
<polygon fill="#191970" stroke="#191970" points="98.7747,-138.4811 90.6823,-131.6427 92.7439,-142.035 98.7747,-138.4811"/>
</g>
<!-- Node4&#45;&gt;Node3 -->
<g id="edge10" class="edge">
<title>Node4&#45;&gt;Node3</title>
<path fill="none" stroke="#191970" d="M138.7925,-112.4369C204.5221,-100.7516 313.6317,-81.3544 367.6512,-71.7509"/>
<polygon fill="#191970" stroke="#191970" points="368.4584,-75.1624 377.6914,-69.966 367.2331,-68.2704 368.4584,-75.1624"/>
</g>
<!-- Node5 -->
<g id="node6" class="node">
<title>Node5</title>
<g id="a_node6"><a xlink:href="Utils_8h.html" target="_top" xlink:title="iDynTree/Core/Utils.h">
<polygon fill="none" stroke="#000000" points="721.5,-56.5 721.5,-75.5 840.5,-75.5 840.5,-56.5 721.5,-56.5"/>
<text text-anchor="middle" x="781" y="-63.5" font-family="FreeSans.ttf" font-size="10.00" fill="#000000">iDynTree/Core/Utils.h</text>
</a>
</g>
</g>
<!-- Node4&#45;&gt;Node5 -->
<g id="edge5" class="edge">
<title>Node4&#45;&gt;Node5</title>
<path fill="none" stroke="#191970" d="M162.8141,-115.7391C299.4084,-104.7488 580.2127,-82.1553 711.0445,-71.6286"/>
<polygon fill="#191970" stroke="#191970" points="711.6509,-75.0912 721.338,-70.8004 711.0894,-68.1138 711.6509,-75.0912"/>
</g>
<!-- Node6 -->
<g id="node7" class="node">
<title>Node6</title>
<polygon fill="none" stroke="#bfbfbf" points="609.5,-.5 609.5,-19.5 662.5,-19.5 662.5,-.5 609.5,-.5"/>
<text text-anchor="middle" x="636" y="-7.5" font-family="FreeSans.ttf" font-size="10.00" fill="#000000">cstddef</text>
</g>
<!-- Node4&#45;&gt;Node6 -->
<g id="edge8" class="edge">
<title>Node4&#45;&gt;Node6</title>
<path fill="none" stroke="#191970" d="M122.9748,-112.4388C177.3023,-98.9284 280.4359,-73.9045 369,-56 450.9523,-39.4322 547.8242,-23.6945 599.3857,-15.6218"/>
<polygon fill="#191970" stroke="#191970" points="600.0358,-19.0628 609.3776,-14.0647 598.9579,-12.1463 600.0358,-19.0628"/>
</g>
<!-- Node7 -->
<g id="node8" class="node">
<title>Node7</title>
<polygon fill="none" stroke="#bfbfbf" points="104.5,-56.5 104.5,-75.5 151.5,-75.5 151.5,-56.5 104.5,-56.5"/>
<text text-anchor="middle" x="128" y="-63.5" font-family="FreeSans.ttf" font-size="10.00" fill="#000000">vector</text>
</g>
<!-- Node4&#45;&gt;Node7 -->
<g id="edge7" class="edge">
<title>Node4&#45;&gt;Node7</title>
<path fill="none" stroke="#191970" d="M92.49,-112.2455C98.5326,-104.3761 107.1903,-93.101 114.4441,-83.6542"/>
<polygon fill="#191970" stroke="#191970" points="117.2815,-85.7058 120.5958,-75.6427 111.7295,-81.4426 117.2815,-85.7058"/>
</g>
<!-- Node8 -->
<g id="node9" class="node">
<title>Node8</title>
<polygon fill="none" stroke="#bfbfbf" points="0,-56.5 0,-75.5 86,-75.5 86,-56.5 0,-56.5"/>
<text text-anchor="middle" x="43" y="-63.5" font-family="FreeSans.ttf" font-size="10.00" fill="#000000">unordered_set</text>
</g>
<!-- Node4&#45;&gt;Node8 -->
<g id="edge9" class="edge">
<title>Node4&#45;&gt;Node8</title>
<path fill="none" stroke="#191970" d="M77.6842,-112.2455C71.7821,-104.3761 63.3258,-93.101 56.2406,-83.6542"/>
<polygon fill="#191970" stroke="#191970" points="59.0321,-81.5427 50.232,-75.6427 53.432,-85.7427 59.0321,-81.5427"/>
</g>
<!-- Node5&#45;&gt;Node6 -->
<g id="edge6" class="edge">
<title>Node5&#45;&gt;Node6</title>
<path fill="none" stroke="#191970" d="M756.0736,-56.3733C732.3798,-47.2226 696.5489,-33.3844 670.1932,-23.2057"/>
<polygon fill="#191970" stroke="#191970" points="671.1906,-19.8389 660.6011,-19.5011 668.6686,-26.3689 671.1906,-19.8389"/>
</g>
<!-- Node9&#45;&gt;Node10 -->
<g id="edge12" class="edge">
<title>Node9&#45;&gt;Node10</title>
<path fill="none" stroke="#191970" d="M338.1705,-392.4509C338.4967,-374.184 339.2151,-333.9553 339.6483,-309.6976"/>
<polygon fill="#191970" stroke="#191970" points="343.1507,-309.5858 339.8299,-299.5249 336.1518,-309.4608 343.1507,-309.5858"/>
</g>
<!-- Node9&#45;&gt;Node20 -->
<g id="edge24" class="edge">
<title>Node9&#45;&gt;Node20</title>
<path fill="none" stroke="#191970" d="M319.0136,-392.2455C301.8208,-383.4125 276.2762,-370.2887 256.7868,-360.2758"/>
<polygon fill="#191970" stroke="#191970" points="258.263,-357.0993 247.7688,-355.6427 255.0641,-363.3257 258.263,-357.0993"/>
</g>
<!-- Node21 -->
<g id="node22" class="node">
<title>Node21</title>
<g id="a_node22"><a xlink:href="Transform_8h.html" target="_top" xlink:title="iDynTree/Core/Transform.h">
<polygon fill="none" stroke="#000000" points="540,-336.5 540,-355.5 686,-355.5 686,-336.5 540,-336.5"/>
<text text-anchor="middle" x="613" y="-343.5" font-family="FreeSans.ttf" font-size="10.00" fill="#000000">iDynTree/Core/Transform.h</text>
</a>
</g>
</g>
<!-- Node9&#45;&gt;Node21 -->
<g id="edge26" class="edge">
<title>Node9&#45;&gt;Node21</title>
<path fill="none" stroke="#191970" d="M384.9617,-392.4369C432.4213,-382.7724 505.7866,-367.8326 556.4223,-357.5213"/>
<polygon fill="#191970" stroke="#191970" points="557.1315,-360.9488 566.232,-355.5237 555.7347,-354.0895 557.1315,-360.9488"/>
</g>
<!-- Node10&#45;&gt;Node3 -->
<g id="edge23" class="edge">
<title>Node10&#45;&gt;Node3</title>
<path fill="none" stroke="#191970" d="M324.382,-280.4791C312.7528,-272.3972 297.7668,-259.6339 291,-244 267.6966,-190.1602 258.5688,-160.8875 291,-112 307.9652,-86.4263 342.2573,-75.035 367.8716,-69.9826"/>
<polygon fill="#191970" stroke="#191970" points="368.6465,-73.4004 377.8967,-68.2348 367.4441,-66.5044 368.6465,-73.4004"/>
</g>
<!-- Node11 -->
<g id="node12" class="node">
<title>Node11</title>
<g id="a_node12"><a xlink:href="Span_8h.html" target="_top" xlink:title="iDynTree/Core/Span.h">
<polygon fill="none" stroke="#000000" points="871.5,-56.5 871.5,-75.5 992.5,-75.5 992.5,-56.5 871.5,-56.5"/>
<text text-anchor="middle" x="932" y="-63.5" font-family="FreeSans.ttf" font-size="10.00" fill="#000000">iDynTree/Core/Span.h</text>
</a>
</g>
</g>
<!-- Node10&#45;&gt;Node11 -->
<g id="edge13" class="edge">
<title>Node10&#45;&gt;Node11</title>
<path fill="none" stroke="#191970" d="M382.2104,-280.4395C420.6279,-271.5691 478.8325,-257.707 529,-244 694.328,-198.8283 766.3532,-241.7403 898,-132 912.4998,-119.9131 921.5369,-100.0552 926.616,-85.2734"/>
<polygon fill="#191970" stroke="#191970" points="929.9997,-86.1794 929.6365,-75.5908 923.3173,-84.0948 929.9997,-86.1794"/>
</g>
<!-- Node11&#45;&gt;Node6 -->
<g id="edge17" class="edge">
<title>Node11&#45;&gt;Node6</title>
<path fill="none" stroke="#191970" d="M871.2547,-56.9415C820.6244,-49.0071 746.4366,-36.4936 672.6045,-19.9639"/>
<polygon fill="#191970" stroke="#191970" points="673.1901,-16.508 662.6641,-17.7132 671.6443,-23.3352 673.1901,-16.508"/>
</g>
<!-- Node12 -->
<g id="node13" class="node">
<title>Node12</title>
<polygon fill="none" stroke="#bfbfbf" points="1190,-.5 1190,-19.5 1242,-19.5 1242,-.5 1190,-.5"/>
<text text-anchor="middle" x="1216" y="-7.5" font-family="FreeSans.ttf" font-size="10.00" fill="#000000">cassert</text>
</g>
<!-- Node11&#45;&gt;Node12 -->
<g id="edge14" class="edge">
<title>Node11&#45;&gt;Node12</title>
<path fill="none" stroke="#191970" d="M992.4606,-56.494C1040.8191,-48.5115 1110.5199,-36.1607 1179.9104,-20.0978"/>
<polygon fill="#191970" stroke="#191970" points="1180.7584,-23.494 1189.6973,-17.8067 1179.1628,-16.6783 1180.7584,-23.494"/>
</g>
<!-- Node13 -->
<g id="node14" class="node">
<title>Node13</title>
<polygon fill="none" stroke="#bfbfbf" points="1048,-.5 1048,-19.5 1112,-19.5 1112,-.5 1048,-.5"/>
<text text-anchor="middle" x="1080" y="-7.5" font-family="FreeSans.ttf" font-size="10.00" fill="#000000">algorithm</text>
</g>
<!-- Node11&#45;&gt;Node13 -->
<g id="edge15" class="edge">
<title>Node11&#45;&gt;Node13</title>
<path fill="none" stroke="#191970" d="M957.4421,-56.3733C981.7326,-47.1822 1018.5208,-33.2624 1045.4543,-23.0713"/>
<polygon fill="#191970" stroke="#191970" points="1046.7757,-26.3136 1054.8899,-19.5011 1044.2984,-19.7666 1046.7757,-26.3136"/>
</g>
<!-- Node14 -->
<g id="node15" class="node">
<title>Node14</title>
<polygon fill="none" stroke="#bfbfbf" points="1130,-.5 1130,-19.5 1172,-19.5 1172,-.5 1130,-.5"/>
<text text-anchor="middle" x="1151" y="-7.5" font-family="FreeSans.ttf" font-size="10.00" fill="#000000">array</text>
</g>
<!-- Node11&#45;&gt;Node14 -->
<g id="edge16" class="edge">
<title>Node11&#45;&gt;Node14</title>
<path fill="none" stroke="#191970" d="M975.81,-56.4225C1012.1112,-48.2436 1065.2321,-35.7176 1119.902,-20.1567"/>
<polygon fill="#191970" stroke="#191970" points="1121.1195,-23.4485 1129.7629,-17.3212 1119.185,-16.7211 1121.1195,-23.4485"/>
</g>
<!-- Node15 -->
<g id="node16" class="node">
<title>Node15</title>
<polygon fill="none" stroke="#bfbfbf" points="680.5,-.5 680.5,-19.5 733.5,-19.5 733.5,-.5 680.5,-.5"/>
<text text-anchor="middle" x="707" y="-7.5" font-family="FreeSans.ttf" font-size="10.00" fill="#000000">iterator</text>
</g>
<!-- Node11&#45;&gt;Node15 -->
<g id="edge18" class="edge">
<title>Node11&#45;&gt;Node15</title>
<path fill="none" stroke="#191970" d="M890.9809,-56.4188C854.73,-47.8614 800.1887,-34.7684 743.557,-20.0862"/>
<polygon fill="#191970" stroke="#191970" points="744.2698,-16.6551 733.7105,-17.5226 742.5061,-23.4293 744.2698,-16.6551"/>
</g>
<!-- Node16 -->
<g id="node17" class="node">
<title>Node16</title>
<polygon fill="none" stroke="#bfbfbf" points="752,-.5 752,-19.5 796,-19.5 796,-.5 752,-.5"/>
<text text-anchor="middle" x="774" y="-7.5" font-family="FreeSans.ttf" font-size="10.00" fill="#000000">limits</text>
</g>
<!-- Node11&#45;&gt;Node16 -->
<g id="edge19" class="edge">
<title>Node11&#45;&gt;Node16</title>
<path fill="none" stroke="#191970" d="M904.8388,-56.3733C877.3726,-46.6384 834.9388,-31.5985 805.8913,-21.3032"/>
<polygon fill="#191970" stroke="#191970" points="806.8163,-17.9178 796.2216,-17.876 804.4778,-24.5157 806.8163,-17.9178"/>
</g>
<!-- Node17 -->
<g id="node18" class="node">
<title>Node17</title>
<polygon fill="none" stroke="#bfbfbf" points="814.5,-.5 814.5,-19.5 879.5,-19.5 879.5,-.5 814.5,-.5"/>
<text text-anchor="middle" x="847" y="-7.5" font-family="FreeSans.ttf" font-size="10.00" fill="#000000">stdexcept</text>
</g>
<!-- Node11&#45;&gt;Node17 -->
<g id="edge20" class="edge">
<title>Node11&#45;&gt;Node17</title>
<path fill="none" stroke="#191970" d="M917.1941,-56.2455C904.2744,-47.7337 885.3069,-35.2375 870.3448,-25.3801"/>
<polygon fill="#191970" stroke="#191970" points="871.9124,-22.2216 861.6362,-19.6427 868.0613,-28.067 871.9124,-22.2216"/>
</g>
<!-- Node18 -->
<g id="node19" class="node">
<title>Node18</title>
<polygon fill="none" stroke="#bfbfbf" points="897.5,-.5 897.5,-19.5 966.5,-19.5 966.5,-.5 897.5,-.5"/>
<text text-anchor="middle" x="932" y="-7.5" font-family="FreeSans.ttf" font-size="10.00" fill="#000000">type_traits</text>
</g>
<!-- Node11&#45;&gt;Node18 -->
<g id="edge21" class="edge">
<title>Node11&#45;&gt;Node18</title>
<path fill="none" stroke="#191970" d="M932,-56.2455C932,-48.9382 932,-38.6944 932,-29.7046"/>
<polygon fill="#191970" stroke="#191970" points="935.5001,-29.6426 932,-19.6427 928.5001,-29.6427 935.5001,-29.6426"/>
</g>
<!-- Node19 -->
<g id="node20" class="node">
<title>Node19</title>
<polygon fill="none" stroke="#bfbfbf" points="984.5,-.5 984.5,-19.5 1029.5,-19.5 1029.5,-.5 984.5,-.5"/>
<text text-anchor="middle" x="1007" y="-7.5" font-family="FreeSans.ttf" font-size="10.00" fill="#000000">utility</text>
</g>
<!-- Node11&#45;&gt;Node19 -->
<g id="edge22" class="edge">
<title>Node11&#45;&gt;Node19</title>
<path fill="none" stroke="#191970" d="M945.064,-56.2455C956.3562,-47.814 972.8845,-35.4729 986.0271,-25.6598"/>
<polygon fill="#191970" stroke="#191970" points="988.1669,-28.4301 994.0857,-19.6427 983.9789,-22.8211 988.1669,-28.4301"/>
</g>
<!-- Node20&#45;&gt;Node3 -->
<g id="edge25" class="edge">
<title>Node20&#45;&gt;Node3</title>
<path fill="none" stroke="#191970" d="M229,-336.4116C229,-317.0538 229,-271.9167 229,-234 229,-234 229,-234 229,-178 229,-112.2333 318.6093,-82.9921 368.0916,-71.8586"/>
<polygon fill="#191970" stroke="#191970" points="368.9424,-75.256 377.9948,-69.7511 367.4853,-68.4094 368.9424,-75.256"/>
</g>
<!-- Node21&#45;&gt;Node3 -->
<g id="edge60" class="edge">
<title>Node21&#45;&gt;Node3</title>
<path fill="none" stroke="#191970" d="M586.9826,-336.4072C540.8197,-319.3944 448.0087,-285.2285 433,-280 384.8215,-263.2162 353.8879,-285.347 324,-244 285.73,-191.0571 349.4185,-115.8684 382.2765,-82.7561"/>
<polygon fill="#191970" stroke="#191970" points="384.8401,-85.144 389.5162,-75.6369 379.932,-80.1529 384.8401,-85.144"/>
</g>
<!-- Node22 -->
<g id="node23" class="node">
<title>Node22</title>
<g id="a_node23"><a xlink:href="Position_8h.html" target="_top" xlink:title="iDynTree/Core/Position.h">
<polygon fill="none" stroke="#000000" points="497,-280.5 497,-299.5 633,-299.5 633,-280.5 497,-280.5"/>
<text text-anchor="middle" x="565" y="-287.5" font-family="FreeSans.ttf" font-size="10.00" fill="#000000">iDynTree/Core/Position.h</text>
</a>
</g>
</g>
<!-- Node21&#45;&gt;Node22 -->
<g id="edge27" class="edge">
<title>Node21&#45;&gt;Node22</title>
<path fill="none" stroke="#191970" d="M604.639,-336.2455C597.825,-328.2958 588.0319,-316.8706 579.8848,-307.3656"/>
<polygon fill="#191970" stroke="#191970" points="582.4305,-304.9575 573.2651,-299.6427 577.1157,-309.513 582.4305,-304.9575"/>
</g>
<!-- Node28 -->
<g id="node29" class="node">
<title>Node28</title>
<g id="a_node29"><a xlink:href="Rotation_8h.html" target="_top" xlink:title="iDynTree/Core/Rotation.h">
<polygon fill="none" stroke="#000000" points="707.5,-224.5 707.5,-243.5 844.5,-243.5 844.5,-224.5 707.5,-224.5"/>
<text text-anchor="middle" x="776" y="-231.5" font-family="FreeSans.ttf" font-size="10.00" fill="#000000">iDynTree/Core/Rotation.h</text>
</a>
</g>
</g>
<!-- Node21&#45;&gt;Node28 -->
<g id="edge55" class="edge">
<title>Node21&#45;&gt;Node28</title>
<path fill="none" stroke="#191970" d="M626.8973,-336.4509C655.1664,-317.0268 719.5753,-272.7703 753.7483,-249.2895"/>
<polygon fill="#191970" stroke="#191970" points="755.8781,-252.0727 762.1379,-243.5249 751.9139,-246.3034 755.8781,-252.0727"/>
</g>
<!-- Node30 -->
<g id="node31" class="node">
<title>Node30</title>
<g id="a_node31"><a xlink:href="MatrixFixSize_8h.html" target="_top" xlink:title="iDynTree/Core/MatrixFixSize.h">
<polygon fill="none" stroke="#000000" points="1162.5,-112.5 1162.5,-131.5 1323.5,-131.5 1323.5,-112.5 1162.5,-112.5"/>
<text text-anchor="middle" x="1243" y="-119.5" font-family="FreeSans.ttf" font-size="10.00" fill="#000000">iDynTree/Core/MatrixFixSize.h</text>
</a>
</g>
</g>
<!-- Node21&#45;&gt;Node30 -->
<g id="edge59" class="edge">
<title>Node21&#45;&gt;Node30</title>
<path fill="none" stroke="#191970" d="M640.6986,-336.4236C711.2502,-311.999 903.4298,-245.2649 1063,-188 1113.3993,-169.9132 1171.5386,-148.4946 1207.7868,-135.0743"/>
<polygon fill="#191970" stroke="#191970" points="1209.2444,-138.2668 1217.4056,-131.5106 1206.8125,-131.7028 1209.2444,-138.2668"/>
</g>
<!-- Node33 -->
<g id="node34" class="node">
<title>Node33</title>
<g id="a_node34"><a xlink:href="TransformSemantics_8h.html" target="_top" xlink:title="iDynTree/Core/TransformSemantics.h">
<polygon fill="none" stroke="#000000" points="485.5,-112.5 485.5,-131.5 682.5,-131.5 682.5,-112.5 485.5,-112.5"/>
<text text-anchor="middle" x="584" y="-119.5" font-family="FreeSans.ttf" font-size="10.00" fill="#000000">iDynTree/Core/TransformSemantics.h</text>
</a>
</g>
</g>
<!-- Node21&#45;&gt;Node33 -->
<g id="edge56" class="edge">
<title>Node21&#45;&gt;Node33</title>
<path fill="none" stroke="#191970" d="M621.4977,-336.2186C628.5403,-327.4179 638.0171,-313.786 642,-300 658.2833,-243.6384 667.5252,-220.8227 642,-168 635.7172,-154.9981 623.7765,-144.5481 612.3549,-136.9145"/>
<polygon fill="#191970" stroke="#191970" points="614.1684,-133.9209 603.8241,-131.6305 610.4823,-139.8718 614.1684,-133.9209"/>
</g>
<!-- Node22&#45;&gt;Node3 -->
<g id="edge54" class="edge">
<title>Node22&#45;&gt;Node3</title>
<path fill="none" stroke="#191970" d="M561.6829,-280.4691C556.4934,-266.6584 545.3294,-240.891 529,-224 507.1195,-201.3669 492.0195,-208.3489 468,-188 443.2078,-166.9965 436.6677,-160.4662 421,-132 413.0278,-117.5155 407.5613,-99.5504 404.2086,-86.0222"/>
<polygon fill="#191970" stroke="#191970" points="407.5285,-84.8401 401.881,-75.8759 400.7057,-86.4054 407.5285,-84.8401"/>
</g>
<!-- Node23 -->
<g id="node24" class="node">
<title>Node23</title>
<g id="a_node24"><a xlink:href="PositionRaw_8h.html" target="_top" xlink:title="iDynTree/Core/PositionRaw.h">
<polygon fill="none" stroke="#000000" points="477,-168.5 477,-187.5 633,-187.5 633,-168.5 477,-168.5"/>
<text text-anchor="middle" x="555" y="-175.5" font-family="FreeSans.ttf" font-size="10.00" fill="#000000">iDynTree/Core/PositionRaw.h</text>
</a>
</g>
</g>
<!-- Node22&#45;&gt;Node23 -->
<g id="edge28" class="edge">
<title>Node22&#45;&gt;Node23</title>
<path fill="none" stroke="#191970" d="M564.6156,-280.1435C564.0632,-267.2284 562.897,-243.8838 561,-224 560.1796,-215.4014 558.9936,-205.9338 557.8922,-197.8345"/>
<polygon fill="#191970" stroke="#191970" points="561.3462,-197.262 556.4851,-187.8482 554.4147,-198.2388 561.3462,-197.262"/>
</g>
<!-- Node27 -->
<g id="node28" class="node">
<title>Node27</title>
<g id="a_node28"><a xlink:href="PositionSemantics_8h.html" target="_top" xlink:title="iDynTree/Core/PositionSemantics.h">
<polygon fill="none" stroke="#000000" points="332.5,-224.5 332.5,-243.5 519.5,-243.5 519.5,-224.5 332.5,-224.5"/>
<text text-anchor="middle" x="426" y="-231.5" font-family="FreeSans.ttf" font-size="10.00" fill="#000000">iDynTree/Core/PositionSemantics.h</text>
</a>
</g>
</g>
<!-- Node22&#45;&gt;Node27 -->
<g id="edge37" class="edge">
<title>Node22&#45;&gt;Node27</title>
<path fill="none" stroke="#191970" d="M541.105,-280.3733C518.4918,-271.2629 484.3458,-257.5062 459.1127,-247.3404"/>
<polygon fill="#191970" stroke="#191970" points="460.1666,-243.9917 449.5831,-243.5011 457.5507,-250.4845 460.1666,-243.9917"/>
</g>
<!-- Node22&#45;&gt;Node28 -->
<g id="edge39" class="edge">
<title>Node22&#45;&gt;Node28</title>
<path fill="none" stroke="#191970" d="M601.2722,-280.3733C636.9658,-270.9001 691.5879,-256.4032 730.2451,-246.1435"/>
<polygon fill="#191970" stroke="#191970" points="731.4336,-249.4493 740.2011,-243.5011 729.6379,-242.6835 731.4336,-249.4493"/>
</g>
<!-- Node23&#45;&gt;Node3 -->
<g id="edge36" class="edge">
<title>Node23&#45;&gt;Node3</title>
<path fill="none" stroke="#191970" d="M516.4038,-168.4509C493.2618,-161.2833 464.2918,-149.6278 443,-132 427.5941,-119.2452 415.7567,-99.5233 408.4385,-84.9575"/>
<polygon fill="#191970" stroke="#191970" points="411.5612,-83.374 404.1058,-75.8462 405.2396,-86.3802 411.5612,-83.374"/>
</g>
<!-- Node24 -->
<g id="node25" class="node">
<title>Node24</title>
<g id="a_node25"><a xlink:href="VectorFixSize_8h.html" target="_top" xlink:title="iDynTree/Core/VectorFixSize.h">
<polygon fill="none" stroke="#000000" points="983.5,-112.5 983.5,-131.5 1144.5,-131.5 1144.5,-112.5 983.5,-112.5"/>
<text text-anchor="middle" x="1064" y="-119.5" font-family="FreeSans.ttf" font-size="10.00" fill="#000000">iDynTree/Core/VectorFixSize.h</text>
</a>
</g>
</g>
<!-- Node23&#45;&gt;Node24 -->
<g id="edge29" class="edge">
<title>Node23&#45;&gt;Node24</title>
<path fill="none" stroke="#191970" d="M633.1378,-169.4033C724.784,-159.3204 876.4565,-142.6335 973.2349,-131.9859"/>
<polygon fill="#191970" stroke="#191970" points="973.7411,-135.4515 983.2983,-130.8788 972.9755,-128.4934 973.7411,-135.4515"/>
</g>
<!-- Node24&#45;&gt;Node3 -->
<g id="edge32" class="edge">
<title>Node24&#45;&gt;Node3</title>
<path fill="none" stroke="#191970" d="M983.42,-113.3816C978.5419,-112.9022 973.7062,-112.4379 969,-112 764.8574,-93.0067 519.0825,-74.6715 432.2686,-68.3336"/>
<polygon fill="#191970" stroke="#191970" points="432.4778,-64.8397 422.2499,-67.604 431.9693,-71.8212 432.4778,-64.8397"/>
</g>
<!-- Node24&#45;&gt;Node5 -->
<g id="edge30" class="edge">
<title>Node24&#45;&gt;Node5</title>
<path fill="none" stroke="#191970" d="M1015.6721,-112.4369C966.8319,-102.7724 891.3324,-87.8326 839.2236,-77.5213"/>
<polygon fill="#191970" stroke="#191970" points="839.6178,-74.0315 829.1285,-75.5237 838.2589,-80.8983 839.6178,-74.0315"/>
</g>
<!-- Node24&#45;&gt;Node11 -->
<g id="edge31" class="edge">
<title>Node24&#45;&gt;Node11</title>
<path fill="none" stroke="#191970" d="M1041.3084,-112.3733C1019.9289,-103.3032 987.6943,-89.6279 963.7638,-79.4755"/>
<polygon fill="#191970" stroke="#191970" points="964.9683,-76.1846 954.3955,-75.5011 962.2344,-82.6287 964.9683,-76.1846"/>
</g>
<!-- Node24&#45;&gt;Node12 -->
<g id="edge34" class="edge">
<title>Node24&#45;&gt;Node12</title>
<path fill="none" stroke="#191970" d="M1063.9512,-112.1267C1064.4193,-97.8894 1067.378,-71.5958 1082,-56 1088.9391,-48.5988 1142.5923,-31.6309 1179.8643,-20.5017"/>
<polygon fill="#191970" stroke="#191970" points="1181.2969,-23.7277 1189.8901,-17.5303 1179.3077,-17.0162 1181.2969,-23.7277"/>
</g>
<!-- Node25 -->
<g id="node26" class="node">
<title>Node25</title>
<polygon fill="none" stroke="#bfbfbf" points="1091,-56.5 1091,-75.5 1147,-75.5 1147,-56.5 1091,-56.5"/>
<text text-anchor="middle" x="1119" y="-63.5" font-family="FreeSans.ttf" font-size="10.00" fill="#000000">sstream</text>
</g>
<!-- Node24&#45;&gt;Node25 -->
<g id="edge33" class="edge">
<title>Node24&#45;&gt;Node25</title>
<path fill="none" stroke="#191970" d="M1073.5803,-112.2455C1081.5458,-104.1352 1093.0641,-92.4075 1102.5079,-82.7919"/>
<polygon fill="#191970" stroke="#191970" points="1105.0195,-85.2297 1109.5295,-75.6427 1100.0253,-80.3247 1105.0195,-85.2297"/>
</g>
<!-- Node26 -->
<g id="node27" class="node">
<title>Node26</title>
<polygon fill="none" stroke="#bfbfbf" points="1165,-56.5 1165,-75.5 1215,-75.5 1215,-56.5 1165,-56.5"/>
<text text-anchor="middle" x="1190" y="-63.5" font-family="FreeSans.ttf" font-size="10.00" fill="#000000">cstring</text>
</g>
<!-- Node24&#45;&gt;Node26 -->
<g id="edge35" class="edge">
<title>Node24&#45;&gt;Node26</title>
<path fill="none" stroke="#191970" d="M1085.6602,-112.3733C1105.9772,-103.3435 1136.564,-89.7494 1159.375,-79.6111"/>
<polygon fill="#191970" stroke="#191970" points="1160.9059,-82.7609 1168.6225,-75.5011 1158.0628,-76.3642 1160.9059,-82.7609"/>
</g>
<!-- Node27&#45;&gt;Node3 -->
<g id="edge38" class="edge">
<title>Node27&#45;&gt;Node3</title>
<path fill="none" stroke="#191970" d="M418.0509,-224.3707C404.4045,-207.1427 377.0222,-169.343 367,-132 364.6959,-123.4149 364.2786,-120.4621 367,-112 370.3946,-101.4445 377.2058,-91.2592 383.7631,-83.1676"/>
<polygon fill="#191970" stroke="#191970" points="386.447,-85.4149 390.3508,-75.5654 381.1569,-80.8307 386.447,-85.4149"/>
</g>
<!-- Node28&#45;&gt;Node3 -->
<g id="edge40" class="edge">
<title>Node28&#45;&gt;Node3</title>
<path fill="none" stroke="#191970" d="M759.6445,-224.3124C734.9484,-210.0672 686.3097,-183.4866 642,-168 571.1446,-143.2354 544.1989,-165.4378 477,-132 452.7938,-119.9551 429.9215,-98.6122 415.4927,-83.4601"/>
<polygon fill="#191970" stroke="#191970" points="417.749,-80.7448 408.3906,-75.7776 412.6089,-85.4966 417.749,-80.7448"/>
</g>
<!-- Node28&#45;&gt;Node24 -->
<g id="edge53" class="edge">
<title>Node28&#45;&gt;Node24</title>
<path fill="none" stroke="#191970" d="M844.6649,-230.1684C913.7544,-224.945 1014.0955,-213.1817 1043,-188 1056.149,-176.5446 1061.1394,-156.8858 1062.9953,-141.9952"/>
<polygon fill="#191970" stroke="#191970" points="1066.5064,-142.0184 1063.8866,-131.7526 1059.5327,-141.4115 1066.5064,-142.0184"/>
</g>
<!-- Node29 -->
<g id="node30" class="node">
<title>Node29</title>
<g id="a_node30"><a xlink:href="RotationRaw_8h.html" target="_top" xlink:title="iDynTree/Core/RotationRaw.h">
<polygon fill="none" stroke="#000000" points="876,-168.5 876,-187.5 1034,-187.5 1034,-168.5 876,-168.5"/>
<text text-anchor="middle" x="955" y="-175.5" font-family="FreeSans.ttf" font-size="10.00" fill="#000000">iDynTree/Core/RotationRaw.h</text>
</a>
</g>
</g>
<!-- Node28&#45;&gt;Node29 -->
<g id="edge41" class="edge">
<title>Node28&#45;&gt;Node29</title>
<path fill="none" stroke="#191970" d="M806.7712,-224.3733C836.665,-215.021 882.2093,-200.7725 914.9217,-190.5385"/>
<polygon fill="#191970" stroke="#191970" points="916.1315,-193.8273 924.6303,-187.5011 914.0414,-187.1466 916.1315,-193.8273"/>
</g>
<!-- Node32 -->
<g id="node33" class="node">
<title>Node32</title>
<g id="a_node33"><a xlink:href="RotationSemantics_8h.html" target="_top" xlink:title="iDynTree/Core/RotationSemantics.h">
<polygon fill="none" stroke="#000000" points="701,-112.5 701,-131.5 889,-131.5 889,-112.5 701,-112.5"/>
<text text-anchor="middle" x="795" y="-119.5" font-family="FreeSans.ttf" font-size="10.00" fill="#000000">iDynTree/Core/RotationSemantics.h</text>
</a>
</g>
</g>
<!-- Node28&#45;&gt;Node32 -->
<g id="edge50" class="edge">
<title>Node28&#45;&gt;Node32</title>
<path fill="none" stroke="#191970" d="M777.6199,-224.4509C780.7188,-206.184 787.5433,-165.9553 791.6584,-141.6976"/>
<polygon fill="#191970" stroke="#191970" points="795.1623,-141.9694 793.3842,-131.5249 788.2609,-140.7986 795.1623,-141.9694"/>
</g>
<!-- Node29&#45;&gt;Node3 -->
<g id="edge49" class="edge">
<title>Node29&#45;&gt;Node3</title>
<path fill="none" stroke="#191970" d="M949.8879,-168.2995C941.3795,-153.266 922.7701,-124.7472 898,-112 856.6633,-90.7274 535.9381,-72.8526 432.2314,-67.5792"/>
<polygon fill="#191970" stroke="#191970" points="432.2218,-64.0744 422.0584,-67.0671 431.8698,-71.0655 432.2218,-64.0744"/>
</g>
<!-- Node29&#45;&gt;Node30 -->
<g id="edge42" class="edge">
<title>Node29&#45;&gt;Node30</title>
<path fill="none" stroke="#191970" d="M1004.1817,-168.4369C1053.9884,-158.7522 1131.0385,-143.7703 1184.0788,-133.4569"/>
<polygon fill="#191970" stroke="#191970" points="1184.873,-136.8681 1194.0211,-131.5237 1183.5369,-129.9968 1184.873,-136.8681"/>
</g>
<!-- Node30&#45;&gt;Node3 -->
<g id="edge46" class="edge">
<title>Node30&#45;&gt;Node3</title>
<path fill="none" stroke="#191970" d="M1162.4881,-112.7677C1159.6245,-112.4986 1156.7883,-112.2415 1154,-112 875.1178,-87.8413 537.1196,-71.9901 432.4576,-67.3879"/>
<polygon fill="#191970" stroke="#191970" points="432.3787,-63.8812 422.2355,-66.9417 432.0733,-70.8746 432.3787,-63.8812"/>
</g>
<!-- Node30&#45;&gt;Node5 -->
<g id="edge43" class="edge">
<title>Node30&#45;&gt;Node5</title>
<path fill="none" stroke="#191970" d="M1164.0322,-112.4614C1087.1705,-103.1723 967.0656,-88.6442 863,-76 859.0292,-75.5175 854.9504,-75.0215 850.8341,-74.5206"/>
<polygon fill="#191970" stroke="#191970" points="850.9152,-71.0047 840.5654,-73.2704 850.0691,-77.9534 850.9152,-71.0047"/>
</g>
<!-- Node30&#45;&gt;Node12 -->
<g id="edge44" class="edge">
<title>Node30&#45;&gt;Node12</title>
<path fill="none" stroke="#191970" d="M1240.698,-112.4509C1236.2744,-94.1013 1226.5085,-53.5908 1220.6694,-29.3693"/>
<polygon fill="#191970" stroke="#191970" points="1224.0424,-28.4261 1218.2962,-19.5249 1217.2373,-30.0667 1224.0424,-28.4261"/>
</g>
<!-- Node30&#45;&gt;Node25 -->
<g id="edge48" class="edge">
<title>Node30&#45;&gt;Node25</title>
<path fill="none" stroke="#191970" d="M1221.6836,-112.3733C1201.7784,-103.3838 1171.8564,-89.8706 1149.44,-79.7471"/>
<polygon fill="#191970" stroke="#191970" points="1150.5925,-76.4272 1140.0382,-75.5011 1147.7113,-82.8068 1150.5925,-76.4272"/>
</g>
<!-- Node30&#45;&gt;Node26 -->
<g id="edge45" class="edge">
<title>Node30&#45;&gt;Node26</title>
<path fill="none" stroke="#191970" d="M1233.7681,-112.2455C1226.1683,-104.2155 1215.2123,-92.6394 1206.1632,-83.0781"/>
<polygon fill="#191970" stroke="#191970" points="1208.542,-80.4998 1199.1261,-75.6427 1203.4579,-85.3115 1208.542,-80.4998"/>
</g>
<!-- Node31 -->
<g id="node32" class="node">
<title>Node31</title>
<polygon fill="none" stroke="#bfbfbf" points="1271,-56.5 1271,-75.5 1331,-75.5 1331,-56.5 1271,-56.5"/>
<text text-anchor="middle" x="1301" y="-63.5" font-family="FreeSans.ttf" font-size="10.00" fill="#000000">iostream</text>
</g>
<!-- Node30&#45;&gt;Node31 -->
<g id="edge47" class="edge">
<title>Node30&#45;&gt;Node31</title>
<path fill="none" stroke="#191970" d="M1253.1028,-112.2455C1261.5028,-104.1352 1273.6494,-92.4075 1283.6084,-82.7919"/>
<polygon fill="#191970" stroke="#191970" points="1286.25,-85.1066 1291.0129,-75.6427 1281.3878,-80.0707 1286.25,-85.1066"/>
</g>
<!-- Node32&#45;&gt;Node3 -->
<g id="edge51" class="edge">
<title>Node32&#45;&gt;Node3</title>
<path fill="none" stroke="#191970" d="M727.5459,-112.4369C641.551,-100.2452 496.3421,-79.6586 432.1567,-70.5589"/>
<polygon fill="#191970" stroke="#191970" points="432.607,-67.0878 422.2146,-69.1494 431.6243,-74.0185 432.607,-67.0878"/>
</g>
<!-- Node32&#45;&gt;Node5 -->
<g id="edge52" class="edge">
<title>Node32&#45;&gt;Node5</title>
<path fill="none" stroke="#191970" d="M792.5614,-112.2455C790.7145,-104.8579 788.1172,-94.4689 785.8522,-85.4087"/>
<polygon fill="#191970" stroke="#191970" points="789.2316,-84.4952 783.4107,-75.6427 782.4406,-86.193 789.2316,-84.4952"/>
</g>
<!-- Node33&#45;&gt;Node3 -->
<g id="edge57" class="edge">
<title>Node33&#45;&gt;Node3</title>
<path fill="none" stroke="#191970" d="M552.3693,-112.3733C518.7538,-102.1425 465.8862,-86.0523 432.0948,-75.768"/>
<polygon fill="#191970" stroke="#191970" points="432.8485,-72.3389 422.2627,-72.7756 430.8103,-79.0356 432.8485,-72.3389"/>
</g>
<!-- Node33&#45;&gt;Node5 -->
<g id="edge58" class="edge">
<title>Node33&#45;&gt;Node5</title>
<path fill="none" stroke="#191970" d="M617.8655,-112.3733C651.049,-102.9404 701.755,-88.5265 737.8194,-78.2747"/>
<polygon fill="#191970" stroke="#191970" points="738.9145,-81.6021 747.5764,-75.5011 737.0005,-74.8689 738.9145,-81.6021"/>
</g>
</g>
</svg>
