<?xml version="1.0" encoding="UTF-8" standalone="no"?>
<!DOCTYPE svg PUBLIC "-//W3C//DTD SVG 1.1//EN"
 "http://www.w3.org/Graphics/SVG/1.1/DTD/svg11.dtd">
<!-- Generated by graphviz version 2.40.1 (20161225.0304)
 -->
<!-- Title: RK4.h Pages: 1 -->
<svg width="967pt" height="319pt"
 viewBox="0.00 0.00 967.00 319.00" xmlns="http://www.w3.org/2000/svg" xmlns:xlink="http://www.w3.org/1999/xlink">
<g id="graph0" class="graph" transform="scale(1 1) rotate(0) translate(4 315)">
<title>RK4.h</title>
<!-- Node0 -->
<g id="node1" class="node">
<title>Node0</title>
<polygon fill="#bfbfbf" stroke="#000000" points="436.5,-291.5 436.5,-310.5 481.5,-310.5 481.5,-291.5 436.5,-291.5"/>
<text text-anchor="middle" x="459" y="-298.5" font-family="FreeSans.ttf" font-size="10.00" fill="#000000">RK4.h</text>
</g>
<!-- Node1 -->
<g id="node2" class="node">
<title>Node1</title>
<g id="a_node2"><a xlink:href="FixedStepIntegrator_8h.html" target="_top" xlink:title="iDynTree/Integrators\l/FixedStepIntegrator.h">
<polygon fill="none" stroke="#000000" points="337.5,-224.5 337.5,-254.5 460.5,-254.5 460.5,-224.5 337.5,-224.5"/>
<text text-anchor="start" x="345.5" y="-242.5" font-family="FreeSans.ttf" font-size="10.00" fill="#000000">iDynTree/Integrators</text>
<text text-anchor="middle" x="399" y="-231.5" font-family="FreeSans.ttf" font-size="10.00" fill="#000000">/FixedStepIntegrator.h</text>
</a>
</g>
</g>
<!-- Node0&#45;&gt;Node1 -->
<g id="edge1" class="edge">
<title>Node0&#45;&gt;Node1</title>
<path fill="none" stroke="#191970" d="M449.625,-291.3906C441.9559,-283.5298 430.8013,-272.0964 420.9134,-261.9612"/>
<polygon fill="#191970" stroke="#191970" points="423.1662,-259.2583 413.6777,-254.5446 418.1557,-264.1466 423.1662,-259.2583"/>
</g>
<!-- Node3 -->
<g id="node4" class="node">
<title>Node3</title>
<g id="a_node4"><a xlink:href="VectorDynSize_8h.html" target="_top" xlink:title="iDynTree/Core/VectorDynSize.h">
<polygon fill="none" stroke="#000000" points="225.5,-112.5 225.5,-131.5 392.5,-131.5 392.5,-112.5 225.5,-112.5"/>
<text text-anchor="middle" x="309" y="-119.5" font-family="FreeSans.ttf" font-size="10.00" fill="#000000">iDynTree/Core/VectorDynSize.h</text>
</a>
</g>
</g>
<!-- Node0&#45;&gt;Node3 -->
<g id="edge31" class="edge">
<title>Node0&#45;&gt;Node3</title>
<path fill="none" stroke="#191970" d="M436.2569,-296.0055C402.5911,-288.1388 341.9584,-271.9988 328,-255 301.4605,-222.6797 302.7763,-170.3918 305.9473,-141.9601"/>
<polygon fill="#191970" stroke="#191970" points="309.4652,-142.0519 307.2957,-131.6815 302.5247,-141.1413 309.4652,-142.0519"/>
</g>
<!-- Node22 -->
<g id="node23" class="node">
<title>Node22</title>
<polygon fill="none" stroke="#bfbfbf" points="479,-230 479,-249 559,-249 559,-230 479,-230"/>
<text text-anchor="middle" x="519" y="-237" font-family="FreeSans.ttf" font-size="10.00" fill="#000000">Eigen/Sparse</text>
</g>
<!-- Node0&#45;&gt;Node22 -->
<g id="edge29" class="edge">
<title>Node0&#45;&gt;Node22</title>
<path fill="none" stroke="#191970" d="M468.375,-291.3906C477.4799,-282.0581 491.4974,-267.6902 502.4757,-256.4374"/>
<polygon fill="#191970" stroke="#191970" points="505.0148,-258.8468 509.4928,-249.2449 500.0043,-253.9586 505.0148,-258.8468"/>
</g>
<!-- Node23 -->
<g id="node24" class="node">
<title>Node23</title>
<polygon fill="none" stroke="#bfbfbf" points="577.5,-230 577.5,-249 654.5,-249 654.5,-230 577.5,-230"/>
<text text-anchor="middle" x="616" y="-237" font-family="FreeSans.ttf" font-size="10.00" fill="#000000">Eigen/Dense</text>
</g>
<!-- Node0&#45;&gt;Node23 -->
<g id="edge30" class="edge">
<title>Node0&#45;&gt;Node23</title>
<path fill="none" stroke="#191970" d="M481.8291,-292.0574C508.228,-281.7164 551.9326,-264.5965 582.2563,-252.7181"/>
<polygon fill="#191970" stroke="#191970" points="583.5581,-255.9672 591.5926,-249.0609 581.0049,-249.4494 583.5581,-255.9672"/>
</g>
<!-- Node2 -->
<g id="node3" class="node">
<title>Node2</title>
<g id="a_node3"><a xlink:href="Integrator_8h.html" target="_top" xlink:title="iDynTree/Integrator.h">
<polygon fill="none" stroke="#000000" points="598.5,-168.5 598.5,-187.5 717.5,-187.5 717.5,-168.5 598.5,-168.5"/>
<text text-anchor="middle" x="658" y="-175.5" font-family="FreeSans.ttf" font-size="10.00" fill="#000000">iDynTree/Integrator.h</text>
</a>
</g>
</g>
<!-- Node1&#45;&gt;Node2 -->
<g id="edge2" class="edge">
<title>Node1&#45;&gt;Node2</title>
<path fill="none" stroke="#191970" d="M460.7079,-224.8474C505.7262,-214.1577 565.9665,-199.8535 607.9917,-189.8746"/>
<polygon fill="#191970" stroke="#191970" points="608.8097,-193.2777 617.7306,-187.562 607.1925,-186.4671 608.8097,-193.2777"/>
</g>
<!-- Node1&#45;&gt;Node3 -->
<g id="edge28" class="edge">
<title>Node1&#45;&gt;Node3</title>
<path fill="none" stroke="#191970" d="M387.2341,-224.1389C370.5768,-202.3919 340.1927,-162.7238 322.593,-139.7465"/>
<polygon fill="#191970" stroke="#191970" points="325.1815,-137.37 316.3222,-131.5595 319.6244,-141.6266 325.1815,-137.37"/>
</g>
<!-- Node2&#45;&gt;Node3 -->
<g id="edge3" class="edge">
<title>Node2&#45;&gt;Node3</title>
<path fill="none" stroke="#191970" d="M598.4013,-168.4369C537.4179,-158.6516 442.7308,-143.4582 378.4061,-133.1368"/>
<polygon fill="#191970" stroke="#191970" points="378.7811,-129.6523 368.3529,-131.5237 377.672,-136.5639 378.7811,-129.6523"/>
</g>
<!-- Node14 -->
<g id="node15" class="node">
<title>Node14</title>
<polygon fill="none" stroke="#bfbfbf" points="472,-56.5 472,-75.5 516,-75.5 516,-56.5 472,-56.5"/>
<text text-anchor="middle" x="494" y="-63.5" font-family="FreeSans.ttf" font-size="10.00" fill="#000000">string</text>
</g>
<!-- Node2&#45;&gt;Node14 -->
<g id="edge25" class="edge">
<title>Node2&#45;&gt;Node14</title>
<path fill="none" stroke="#191970" d="M648.9455,-168.1184C635.9605,-154.3363 610.8639,-129.1126 586,-112 567.0469,-98.9555 543.8676,-87.3894 525.5171,-79.1178"/>
<polygon fill="#191970" stroke="#191970" points="526.7059,-75.8169 516.1436,-74.9877 523.8835,-82.2227 526.7059,-75.8169"/>
</g>
<!-- Node15 -->
<g id="node16" class="node">
<title>Node15</title>
<g id="a_node16"><a xlink:href="MatrixDynSize_8h.html" target="_top" xlink:title="iDynTree/Core/MatrixDynSize.h">
<polygon fill="none" stroke="#000000" points="410.5,-112.5 410.5,-131.5 577.5,-131.5 577.5,-112.5 410.5,-112.5"/>
<text text-anchor="middle" x="494" y="-119.5" font-family="FreeSans.ttf" font-size="10.00" fill="#000000">iDynTree/Core/MatrixDynSize.h</text>
</a>
</g>
</g>
<!-- Node2&#45;&gt;Node15 -->
<g id="edge15" class="edge">
<title>Node2&#45;&gt;Node15</title>
<path fill="none" stroke="#191970" d="M629.8074,-168.3733C602.6547,-159.1016 561.4093,-145.0178 531.4975,-134.804"/>
<polygon fill="#191970" stroke="#191970" points="532.4192,-131.4204 521.8247,-131.5011 530.1572,-138.0449 532.4192,-131.4204"/>
</g>
<!-- Node16 -->
<g id="node17" class="node">
<title>Node16</title>
<g id="a_node17"><a xlink:href="SparsityStructure_8h.html" target="_top" xlink:title="iDynTree/SparsityStructure.h">
<polygon fill="none" stroke="#000000" points="633.5,-112.5 633.5,-131.5 788.5,-131.5 788.5,-112.5 633.5,-112.5"/>
<text text-anchor="middle" x="711" y="-119.5" font-family="FreeSans.ttf" font-size="10.00" fill="#000000">iDynTree/SparsityStructure.h</text>
</a>
</g>
</g>
<!-- Node2&#45;&gt;Node16 -->
<g id="edge17" class="edge">
<title>Node2&#45;&gt;Node16</title>
<path fill="none" stroke="#191970" d="M667.2319,-168.2455C674.8317,-160.2155 685.7877,-148.6394 694.8368,-139.0781"/>
<polygon fill="#191970" stroke="#191970" points="697.5421,-141.3115 701.8739,-131.6427 692.458,-136.4998 697.5421,-141.3115"/>
</g>
<!-- Node18 -->
<g id="node19" class="node">
<title>Node18</title>
<polygon fill="none" stroke="#bfbfbf" points="814.5,-56.5 814.5,-75.5 861.5,-75.5 861.5,-56.5 814.5,-56.5"/>
<text text-anchor="middle" x="838" y="-63.5" font-family="FreeSans.ttf" font-size="10.00" fill="#000000">vector</text>
</g>
<!-- Node2&#45;&gt;Node18 -->
<g id="edge24" class="edge">
<title>Node2&#45;&gt;Node18</title>
<path fill="none" stroke="#191970" d="M716.6248,-168.4319C743.5798,-161.7411 774.6694,-150.5483 798,-132 813.3598,-119.7887 824.2366,-99.9487 830.7328,-85.2051"/>
<polygon fill="#191970" stroke="#191970" points="834.1353,-86.1324 834.6902,-75.5521 827.6584,-83.477 834.1353,-86.1324"/>
</g>
<!-- Node20 -->
<g id="node21" class="node">
<title>Node20</title>
<polygon fill="none" stroke="#bfbfbf" points="845,-112.5 845,-131.5 903,-131.5 903,-112.5 845,-112.5"/>
<text text-anchor="middle" x="874" y="-119.5" font-family="FreeSans.ttf" font-size="10.00" fill="#000000">memory</text>
</g>
<!-- Node2&#45;&gt;Node20 -->
<g id="edge26" class="edge">
<title>Node2&#45;&gt;Node20</title>
<path fill="none" stroke="#191970" d="M695.1317,-168.3733C734.1901,-158.247 795.389,-142.3806 835.1002,-132.0851"/>
<polygon fill="#191970" stroke="#191970" points="836.1518,-135.4283 844.9534,-129.5306 834.395,-128.6523 836.1518,-135.4283"/>
</g>
<!-- Node21 -->
<g id="node22" class="node">
<title>Node21</title>
<polygon fill="none" stroke="#bfbfbf" points="921,-112.5 921,-131.5 959,-131.5 959,-112.5 921,-112.5"/>
<text text-anchor="middle" x="940" y="-119.5" font-family="FreeSans.ttf" font-size="10.00" fill="#000000">map</text>
</g>
<!-- Node2&#45;&gt;Node21 -->
<g id="edge27" class="edge">
<title>Node2&#45;&gt;Node21</title>
<path fill="none" stroke="#191970" d="M717.6291,-170.0238C767.1629,-162.7602 839.5473,-150.6735 910.8063,-131.9866"/>
<polygon fill="#191970" stroke="#191970" points="912.0919,-135.266 920.8513,-129.3058 910.2869,-128.5027 912.0919,-135.266"/>
</g>
<!-- Node4 -->
<g id="node5" class="node">
<title>Node4</title>
<g id="a_node5"><a xlink:href="Span_8h.html" target="_top" xlink:title="iDynTree/Core/Span.h">
<polygon fill="none" stroke="#000000" points="248.5,-56.5 248.5,-75.5 369.5,-75.5 369.5,-56.5 248.5,-56.5"/>
<text text-anchor="middle" x="309" y="-63.5" font-family="FreeSans.ttf" font-size="10.00" fill="#000000">iDynTree/Core/Span.h</text>
</a>
</g>
</g>
<!-- Node3&#45;&gt;Node4 -->
<g id="edge4" class="edge">
<title>Node3&#45;&gt;Node4</title>
<path fill="none" stroke="#191970" d="M309,-112.2455C309,-104.9382 309,-94.6944 309,-85.7046"/>
<polygon fill="#191970" stroke="#191970" points="312.5001,-85.6426 309,-75.6427 305.5001,-85.6427 312.5001,-85.6426"/>
</g>
<!-- Node3&#45;&gt;Node14 -->
<g id="edge14" class="edge">
<title>Node3&#45;&gt;Node14</title>
<path fill="none" stroke="#191970" d="M340.8026,-112.3733C374.6945,-102.1141 428.0503,-85.9631 462.0127,-75.6827"/>
<polygon fill="#191970" stroke="#191970" points="463.33,-78.9408 471.8871,-72.6936 461.3019,-72.241 463.33,-78.9408"/>
</g>
<!-- Node5 -->
<g id="node6" class="node">
<title>Node5</title>
<polygon fill="none" stroke="#bfbfbf" points="510,-.5 510,-19.5 562,-19.5 562,-.5 510,-.5"/>
<text text-anchor="middle" x="536" y="-7.5" font-family="FreeSans.ttf" font-size="10.00" fill="#000000">cassert</text>
</g>
<!-- Node4&#45;&gt;Node5 -->
<g id="edge5" class="edge">
<title>Node4&#45;&gt;Node5</title>
<path fill="none" stroke="#191970" d="M350.4596,-56.4514C389.2179,-47.4217 448.6592,-33.3088 500,-20 500.0981,-19.9746 500.1964,-19.9491 500.2948,-19.9235"/>
<polygon fill="#191970" stroke="#191970" points="500.9197,-23.3792 509.6822,-17.4236 499.1183,-16.6149 500.9197,-23.3792"/>
</g>
<!-- Node6 -->
<g id="node7" class="node">
<title>Node6</title>
<polygon fill="none" stroke="#bfbfbf" points="0,-.5 0,-19.5 64,-19.5 64,-.5 0,-.5"/>
<text text-anchor="middle" x="32" y="-7.5" font-family="FreeSans.ttf" font-size="10.00" fill="#000000">algorithm</text>
</g>
<!-- Node4&#45;&gt;Node6 -->
<g id="edge6" class="edge">
<title>Node4&#45;&gt;Node6</title>
<path fill="none" stroke="#191970" d="M256.3641,-56.4692C210.6874,-48.0337 142.5491,-35.0568 74.2685,-20.2074"/>
<polygon fill="#191970" stroke="#191970" points="74.713,-16.7219 64.196,-18.0032 73.2166,-23.5601 74.713,-16.7219"/>
</g>
<!-- Node7 -->
<g id="node8" class="node">
<title>Node7</title>
<polygon fill="none" stroke="#bfbfbf" points="82,-.5 82,-19.5 124,-19.5 124,-.5 82,-.5"/>
<text text-anchor="middle" x="103" y="-7.5" font-family="FreeSans.ttf" font-size="10.00" fill="#000000">array</text>
</g>
<!-- Node4&#45;&gt;Node7 -->
<g id="edge7" class="edge">
<title>Node4&#45;&gt;Node7</title>
<path fill="none" stroke="#191970" d="M269.2992,-56.42C235.5896,-48.1081 185.7399,-35.4008 133.9414,-20.1526"/>
<polygon fill="#191970" stroke="#191970" points="134.8328,-16.7663 124.2503,-17.2763 132.8411,-23.477 134.8328,-16.7663"/>
</g>
<!-- Node8 -->
<g id="node9" class="node">
<title>Node8</title>
<polygon fill="none" stroke="#bfbfbf" points="580.5,-.5 580.5,-19.5 633.5,-19.5 633.5,-.5 580.5,-.5"/>
<text text-anchor="middle" x="607" y="-7.5" font-family="FreeSans.ttf" font-size="10.00" fill="#000000">cstddef</text>
</g>
<!-- Node4&#45;&gt;Node8 -->
<g id="edge8" class="edge">
<title>Node4&#45;&gt;Node8</title>
<path fill="none" stroke="#191970" d="M369.6884,-57.0581C420.7136,-49.1506 495.746,-36.6164 570.3,-19.9824"/>
<polygon fill="#191970" stroke="#191970" points="571.3527,-23.3329 580.3368,-17.7172 569.8116,-16.5047 571.3527,-23.3329"/>
</g>
<!-- Node9 -->
<g id="node10" class="node">
<title>Node9</title>
<polygon fill="none" stroke="#bfbfbf" points="142.5,-.5 142.5,-19.5 195.5,-19.5 195.5,-.5 142.5,-.5"/>
<text text-anchor="middle" x="169" y="-7.5" font-family="FreeSans.ttf" font-size="10.00" fill="#000000">iterator</text>
</g>
<!-- Node4&#45;&gt;Node9 -->
<g id="edge9" class="edge">
<title>Node4&#45;&gt;Node9</title>
<path fill="none" stroke="#191970" d="M284.9331,-56.3733C262.1572,-47.2629 227.7656,-33.5062 202.351,-23.3404"/>
<polygon fill="#191970" stroke="#191970" points="203.3375,-19.9654 192.7528,-19.5011 200.7377,-26.4648 203.3375,-19.9654"/>
</g>
<!-- Node10 -->
<g id="node11" class="node">
<title>Node10</title>
<polygon fill="none" stroke="#bfbfbf" points="214,-.5 214,-19.5 258,-19.5 258,-.5 214,-.5"/>
<text text-anchor="middle" x="236" y="-7.5" font-family="FreeSans.ttf" font-size="10.00" fill="#000000">limits</text>
</g>
<!-- Node4&#45;&gt;Node10 -->
<g id="edge10" class="edge">
<title>Node4&#45;&gt;Node10</title>
<path fill="none" stroke="#191970" d="M296.2844,-56.2455C285.398,-47.8943 269.5117,-35.7076 256.78,-25.9408"/>
<polygon fill="#191970" stroke="#191970" points="258.6346,-22.9523 248.5699,-19.6427 254.3739,-28.5063 258.6346,-22.9523"/>
</g>
<!-- Node11 -->
<g id="node12" class="node">
<title>Node11</title>
<polygon fill="none" stroke="#bfbfbf" points="276.5,-.5 276.5,-19.5 341.5,-19.5 341.5,-.5 276.5,-.5"/>
<text text-anchor="middle" x="309" y="-7.5" font-family="FreeSans.ttf" font-size="10.00" fill="#000000">stdexcept</text>
</g>
<!-- Node4&#45;&gt;Node11 -->
<g id="edge11" class="edge">
<title>Node4&#45;&gt;Node11</title>
<path fill="none" stroke="#191970" d="M309,-56.2455C309,-48.9382 309,-38.6944 309,-29.7046"/>
<polygon fill="#191970" stroke="#191970" points="312.5001,-29.6426 309,-19.6427 305.5001,-29.6427 312.5001,-29.6426"/>
</g>
<!-- Node12 -->
<g id="node13" class="node">
<title>Node12</title>
<polygon fill="none" stroke="#bfbfbf" points="359.5,-.5 359.5,-19.5 428.5,-19.5 428.5,-.5 359.5,-.5"/>
<text text-anchor="middle" x="394" y="-7.5" font-family="FreeSans.ttf" font-size="10.00" fill="#000000">type_traits</text>
</g>
<!-- Node4&#45;&gt;Node12 -->
<g id="edge12" class="edge">
<title>Node4&#45;&gt;Node12</title>
<path fill="none" stroke="#191970" d="M323.8059,-56.2455C336.7256,-47.7337 355.6931,-35.2375 370.6552,-25.3801"/>
<polygon fill="#191970" stroke="#191970" points="372.9387,-28.067 379.3638,-19.6427 369.0876,-22.2216 372.9387,-28.067"/>
</g>
<!-- Node13 -->
<g id="node14" class="node">
<title>Node13</title>
<polygon fill="none" stroke="#bfbfbf" points="446.5,-.5 446.5,-19.5 491.5,-19.5 491.5,-.5 446.5,-.5"/>
<text text-anchor="middle" x="469" y="-7.5" font-family="FreeSans.ttf" font-size="10.00" fill="#000000">utility</text>
</g>
<!-- Node4&#45;&gt;Node13 -->
<g id="edge13" class="edge">
<title>Node4&#45;&gt;Node13</title>
<path fill="none" stroke="#191970" d="M336.505,-56.3733C364.3188,-46.6384 407.2899,-31.5985 436.7051,-21.3032"/>
<polygon fill="#191970" stroke="#191970" points="438.2148,-24.4831 446.4972,-17.876 435.9023,-17.8761 438.2148,-24.4831"/>
</g>
<!-- Node15&#45;&gt;Node14 -->
<g id="edge16" class="edge">
<title>Node15&#45;&gt;Node14</title>
<path fill="none" stroke="#191970" d="M494,-112.2455C494,-104.9382 494,-94.6944 494,-85.7046"/>
<polygon fill="#191970" stroke="#191970" points="497.5001,-85.6426 494,-75.6427 490.5001,-85.6427 497.5001,-85.6426"/>
</g>
<!-- Node16&#45;&gt;Node8 -->
<g id="edge21" class="edge">
<title>Node16&#45;&gt;Node8</title>
<path fill="none" stroke="#191970" d="M658.5689,-112.4976C620.8289,-104.4668 574.607,-91.7623 563,-76 550.7616,-59.3803 567.9342,-39.599 584.2752,-26.0545"/>
<polygon fill="#191970" stroke="#191970" points="586.841,-28.4928 592.5845,-19.5898 582.5426,-22.9679 586.841,-28.4928"/>
</g>
<!-- Node16&#45;&gt;Node14 -->
<g id="edge23" class="edge">
<title>Node16&#45;&gt;Node14</title>
<path fill="none" stroke="#191970" d="M672.4496,-112.4645C635.7623,-103.328 579.037,-89.0402 530,-76 528.7306,-75.6624 527.4367,-75.3157 526.1302,-74.9633"/>
<polygon fill="#191970" stroke="#191970" points="526.6328,-71.4724 516.0638,-72.2117 524.787,-78.2247 526.6328,-71.4724"/>
</g>
<!-- Node17 -->
<g id="node18" class="node">
<title>Node17</title>
<g id="a_node18"><a xlink:href="Utils_8h.html" target="_top" xlink:title="iDynTree/Core/Utils.h">
<polygon fill="none" stroke="#000000" points="572.5,-56.5 572.5,-75.5 691.5,-75.5 691.5,-56.5 572.5,-56.5"/>
<text text-anchor="middle" x="632" y="-63.5" font-family="FreeSans.ttf" font-size="10.00" fill="#000000">iDynTree/Core/Utils.h</text>
</a>
</g>
</g>
<!-- Node16&#45;&gt;Node17 -->
<g id="edge18" class="edge">
<title>Node16&#45;&gt;Node17</title>
<path fill="none" stroke="#191970" d="M697.2393,-112.2455C685.3448,-103.814 667.935,-91.4729 654.0915,-81.6598"/>
<polygon fill="#191970" stroke="#191970" points="655.7854,-78.5704 645.6031,-75.6427 651.7372,-84.2811 655.7854,-78.5704"/>
</g>
<!-- Node16&#45;&gt;Node18 -->
<g id="edge20" class="edge">
<title>Node16&#45;&gt;Node18</title>
<path fill="none" stroke="#191970" d="M732.8321,-112.3733C753.3103,-103.3435 784.1399,-89.7494 807.1319,-79.6111"/>
<polygon fill="#191970" stroke="#191970" points="808.715,-82.7383 816.4528,-75.5011 805.8907,-76.3333 808.715,-82.7383"/>
</g>
<!-- Node19 -->
<g id="node20" class="node">
<title>Node19</title>
<polygon fill="none" stroke="#bfbfbf" points="710,-56.5 710,-75.5 796,-75.5 796,-56.5 710,-56.5"/>
<text text-anchor="middle" x="753" y="-63.5" font-family="FreeSans.ttf" font-size="10.00" fill="#000000">unordered_set</text>
</g>
<!-- Node16&#45;&gt;Node19 -->
<g id="edge22" class="edge">
<title>Node16&#45;&gt;Node19</title>
<path fill="none" stroke="#191970" d="M718.3158,-112.2455C724.2179,-104.3761 732.6742,-93.101 739.7594,-83.6542"/>
<polygon fill="#191970" stroke="#191970" points="742.568,-85.7427 745.768,-75.6427 736.9679,-81.5427 742.568,-85.7427"/>
</g>
<!-- Node17&#45;&gt;Node8 -->
<g id="edge19" class="edge">
<title>Node17&#45;&gt;Node8</title>
<path fill="none" stroke="#191970" d="M627.6453,-56.2455C624.2756,-48.6973 619.507,-38.0158 615.4017,-28.8197"/>
<polygon fill="#191970" stroke="#191970" points="618.5773,-27.3473 611.3048,-19.6427 612.1853,-30.2009 618.5773,-27.3473"/>
</g>
</g>
</svg>
