<?xml version="1.0" encoding="UTF-8" standalone="no"?>
<!DOCTYPE svg PUBLIC "-//W3C//DTD SVG 1.1//EN"
 "http://www.w3.org/Graphics/SVG/1.1/DTD/svg11.dtd">
<!-- Generated by graphviz version 2.40.1 (20161225.0304)
 -->
<!-- Title: Rotation.h Pages: 1 -->
<svg width="944pt" height="252pt"
 viewBox="0.00 0.00 944.44 252.00" xmlns="http://www.w3.org/2000/svg" xmlns:xlink="http://www.w3.org/1999/xlink">
<g id="graph0" class="graph" transform="scale(1 1) rotate(0) translate(4 248)">
<title>Rotation.h</title>
<!-- Node0 -->
<g id="node1" class="node">
<title>Node0</title>
<polygon fill="#bfbfbf" stroke="#000000" points="115.9448,-224.5 115.9448,-243.5 181.9448,-243.5 181.9448,-224.5 115.9448,-224.5"/>
<text text-anchor="middle" x="148.9448" y="-231.5" font-family="FreeSans.ttf" font-size="10.00" fill="#000000">Rotation.h</text>
</g>
<!-- Node1 -->
<g id="node2" class="node">
<title>Node1</title>
<polygon fill="none" stroke="#bfbfbf" points="90.9448,-56.5 90.9448,-75.5 134.9448,-75.5 134.9448,-56.5 90.9448,-56.5"/>
<text text-anchor="middle" x="112.9448" y="-63.5" font-family="FreeSans.ttf" font-size="10.00" fill="#000000">string</text>
</g>
<!-- Node0&#45;&gt;Node1 -->
<g id="edge1" class="edge">
<title>Node0&#45;&gt;Node1</title>
<path fill="none" stroke="#191970" d="M115.9193,-227.8431C78.4186,-220.1017 20.761,-205.6622 7.9448,-188 -21.9744,-146.7679 43.9632,-102.3932 84.4087,-80.2604"/>
<polygon fill="#191970" stroke="#191970" points="86.1572,-83.2947 93.3388,-75.5052 82.8671,-77.1161 86.1572,-83.2947"/>
</g>
<!-- Node2 -->
<g id="node3" class="node">
<title>Node2</title>
<g id="a_node3"><a xlink:href="RotationRaw_8h.html" target="_top" xlink:title="iDynTree/Core/RotationRaw.h">
<polygon fill="none" stroke="#000000" points="16.9448,-168.5 16.9448,-187.5 174.9448,-187.5 174.9448,-168.5 16.9448,-168.5"/>
<text text-anchor="middle" x="95.9448" y="-175.5" font-family="FreeSans.ttf" font-size="10.00" fill="#000000">iDynTree/Core/RotationRaw.h</text>
</a>
</g>
</g>
<!-- Node0&#45;&gt;Node2 -->
<g id="edge2" class="edge">
<title>Node0&#45;&gt;Node2</title>
<path fill="none" stroke="#191970" d="M139.7129,-224.2455C132.1131,-216.2155 121.1571,-204.6394 112.1081,-195.0781"/>
<polygon fill="#191970" stroke="#191970" points="114.4868,-192.4998 105.0709,-187.6427 109.4028,-197.3115 114.4868,-192.4998"/>
</g>
<!-- Node10 -->
<g id="node11" class="node">
<title>Node10</title>
<g id="a_node11"><a xlink:href="RotationSemantics_8h.html" target="_top" xlink:title="iDynTree/Core/RotationSemantics.h">
<polygon fill="none" stroke="#000000" points="54.9448,-112.5 54.9448,-131.5 242.9448,-131.5 242.9448,-112.5 54.9448,-112.5"/>
<text text-anchor="middle" x="148.9448" y="-119.5" font-family="FreeSans.ttf" font-size="10.00" fill="#000000">iDynTree/Core/RotationSemantics.h</text>
</a>
</g>
</g>
<!-- Node0&#45;&gt;Node10 -->
<g id="edge12" class="edge">
<title>Node0&#45;&gt;Node10</title>
<path fill="none" stroke="#191970" d="M160.079,-224.1732C172.8228,-211.6658 191.0724,-189.1388 183.9448,-168 180.3754,-157.4138 173.2914,-147.3356 166.4246,-139.3256"/>
<polygon fill="#191970" stroke="#191970" points="168.8467,-136.7886 159.5039,-131.7924 163.6918,-141.5244 168.8467,-136.7886"/>
</g>
<!-- Node11 -->
<g id="node12" class="node">
<title>Node11</title>
<g id="a_node12"><a xlink:href="VectorFixSize_8h.html" target="_top" xlink:title="iDynTree/Core/VectorFixSize.h">
<polygon fill="none" stroke="#000000" points="440.4448,-112.5 440.4448,-131.5 601.4448,-131.5 601.4448,-112.5 440.4448,-112.5"/>
<text text-anchor="middle" x="520.9448" y="-119.5" font-family="FreeSans.ttf" font-size="10.00" fill="#000000">iDynTree/Core/VectorFixSize.h</text>
</a>
</g>
</g>
<!-- Node0&#45;&gt;Node11 -->
<g id="edge15" class="edge">
<title>Node0&#45;&gt;Node11</title>
<path fill="none" stroke="#191970" d="M180.6613,-224.4509C247.9227,-204.2002 404.8315,-156.9589 479.7315,-134.4083"/>
<polygon fill="#191970" stroke="#191970" points="480.7422,-137.7593 489.3086,-131.5249 478.7241,-131.0565 480.7422,-137.7593"/>
</g>
<!-- Node2&#45;&gt;Node1 -->
<g id="edge11" class="edge">
<title>Node2&#45;&gt;Node1</title>
<path fill="none" stroke="#191970" d="M79.6075,-168.4122C60.9571,-156.1514 34.4271,-133.8788 45.9448,-112 53.5814,-97.4938 68.0873,-86.6797 81.654,-79.1944"/>
<polygon fill="#191970" stroke="#191970" points="83.4756,-82.1946 90.8004,-74.5396 80.3006,-75.956 83.4756,-82.1946"/>
</g>
<!-- Node3 -->
<g id="node4" class="node">
<title>Node3</title>
<g id="a_node4"><a xlink:href="MatrixFixSize_8h.html" target="_top" xlink:title="iDynTree/Core/MatrixFixSize.h">
<polygon fill="none" stroke="#000000" points="261.4448,-112.5 261.4448,-131.5 422.4448,-131.5 422.4448,-112.5 261.4448,-112.5"/>
<text text-anchor="middle" x="341.9448" y="-119.5" font-family="FreeSans.ttf" font-size="10.00" fill="#000000">iDynTree/Core/MatrixFixSize.h</text>
</a>
</g>
</g>
<!-- Node2&#45;&gt;Node3 -->
<g id="edge3" class="edge">
<title>Node2&#45;&gt;Node3</title>
<path fill="none" stroke="#191970" d="M137.9542,-168.4369C180.0552,-158.8529 244.9453,-144.0812 290.1969,-133.78"/>
<polygon fill="#191970" stroke="#191970" points="291.135,-137.1561 300.1087,-131.5237 289.5812,-130.3307 291.135,-137.1561"/>
</g>
<!-- Node3&#45;&gt;Node1 -->
<g id="edge8" class="edge">
<title>Node3&#45;&gt;Node1</title>
<path fill="none" stroke="#191970" d="M296.7192,-112.4306C256.6363,-103.7141 196.6193,-90.0867 144.9448,-76 144.8465,-75.9732 144.7481,-75.9463 144.6496,-75.9193"/>
<polygon fill="#191970" stroke="#191970" points="145.8416,-72.6207 135.2628,-73.2041 143.8964,-79.345 145.8416,-72.6207"/>
</g>
<!-- Node4 -->
<g id="node5" class="node">
<title>Node4</title>
<g id="a_node5"><a xlink:href="Utils_8h.html" target="_top" xlink:title="iDynTree/Core/Utils.h">
<polygon fill="none" stroke="#000000" points="153.4448,-56.5 153.4448,-75.5 272.4448,-75.5 272.4448,-56.5 153.4448,-56.5"/>
<text text-anchor="middle" x="212.9448" y="-63.5" font-family="FreeSans.ttf" font-size="10.00" fill="#000000">iDynTree/Core/Utils.h</text>
</a>
</g>
</g>
<!-- Node3&#45;&gt;Node4 -->
<g id="edge4" class="edge">
<title>Node3&#45;&gt;Node4</title>
<path fill="none" stroke="#191970" d="M319.7689,-112.3733C298.9682,-103.3435 267.6532,-89.7494 244.299,-79.6111"/>
<polygon fill="#191970" stroke="#191970" points="245.398,-76.2727 234.8313,-75.5011 242.6106,-82.6938 245.398,-76.2727"/>
</g>
<!-- Node6 -->
<g id="node7" class="node">
<title>Node6</title>
<polygon fill="none" stroke="#bfbfbf" points="374.9448,-.5 374.9448,-19.5 426.9448,-19.5 426.9448,-.5 374.9448,-.5"/>
<text text-anchor="middle" x="400.9448" y="-7.5" font-family="FreeSans.ttf" font-size="10.00" fill="#000000">cassert</text>
</g>
<!-- Node3&#45;&gt;Node6 -->
<g id="edge6" class="edge">
<title>Node3&#45;&gt;Node6</title>
<path fill="none" stroke="#191970" d="M333.7092,-112.0747C323.6594,-98.6776 309.2506,-74.3716 319.9448,-56 329.7382,-39.1758 348.2309,-28.0029 365.0764,-20.8865"/>
<polygon fill="#191970" stroke="#191970" points="366.6628,-24.0257 374.7263,-17.1532 364.137,-17.4972 366.6628,-24.0257"/>
</g>
<!-- Node7 -->
<g id="node8" class="node">
<title>Node7</title>
<polygon fill="none" stroke="#bfbfbf" points="406.9448,-56.5 406.9448,-75.5 456.9448,-75.5 456.9448,-56.5 406.9448,-56.5"/>
<text text-anchor="middle" x="431.9448" y="-63.5" font-family="FreeSans.ttf" font-size="10.00" fill="#000000">cstring</text>
</g>
<!-- Node3&#45;&gt;Node7 -->
<g id="edge7" class="edge">
<title>Node3&#45;&gt;Node7</title>
<path fill="none" stroke="#191970" d="M357.6216,-112.2455C371.4304,-103.6534 391.7641,-91.0014 407.6741,-81.1018"/>
<polygon fill="#191970" stroke="#191970" points="409.8062,-83.8974 416.4477,-75.6427 406.108,-77.954 409.8062,-83.8974"/>
</g>
<!-- Node8 -->
<g id="node9" class="node">
<title>Node8</title>
<polygon fill="none" stroke="#bfbfbf" points="328.9448,-56.5 328.9448,-75.5 388.9448,-75.5 388.9448,-56.5 328.9448,-56.5"/>
<text text-anchor="middle" x="358.9448" y="-63.5" font-family="FreeSans.ttf" font-size="10.00" fill="#000000">iostream</text>
</g>
<!-- Node3&#45;&gt;Node8 -->
<g id="edge9" class="edge">
<title>Node3&#45;&gt;Node8</title>
<path fill="none" stroke="#191970" d="M344.906,-112.2455C347.1487,-104.8579 350.3025,-94.4689 353.0529,-85.4087"/>
<polygon fill="#191970" stroke="#191970" points="356.4618,-86.2282 356.0176,-75.6427 349.7636,-84.1948 356.4618,-86.2282"/>
</g>
<!-- Node9 -->
<g id="node10" class="node">
<title>Node9</title>
<polygon fill="none" stroke="#bfbfbf" points="474.9448,-56.5 474.9448,-75.5 530.9448,-75.5 530.9448,-56.5 474.9448,-56.5"/>
<text text-anchor="middle" x="502.9448" y="-63.5" font-family="FreeSans.ttf" font-size="10.00" fill="#000000">sstream</text>
</g>
<!-- Node3&#45;&gt;Node9 -->
<g id="edge10" class="edge">
<title>Node3&#45;&gt;Node9</title>
<path fill="none" stroke="#191970" d="M369.6217,-112.3733C396.2777,-103.1016 436.7686,-89.0178 466.1332,-78.804"/>
<polygon fill="#191970" stroke="#191970" points="467.334,-82.0921 475.6291,-75.5011 465.0343,-75.4807 467.334,-82.0921"/>
</g>
<!-- Node5 -->
<g id="node6" class="node">
<title>Node5</title>
<polygon fill="none" stroke="#bfbfbf" points="261.4448,-.5 261.4448,-19.5 314.4448,-19.5 314.4448,-.5 261.4448,-.5"/>
<text text-anchor="middle" x="287.9448" y="-7.5" font-family="FreeSans.ttf" font-size="10.00" fill="#000000">cstddef</text>
</g>
<!-- Node4&#45;&gt;Node5 -->
<g id="edge5" class="edge">
<title>Node4&#45;&gt;Node5</title>
<path fill="none" stroke="#191970" d="M226.0088,-56.2455C237.301,-47.814 253.8293,-35.4729 266.9719,-25.6598"/>
<polygon fill="#191970" stroke="#191970" points="269.1117,-28.4301 275.0305,-19.6427 264.9237,-22.8211 269.1117,-28.4301"/>
</g>
<!-- Node10&#45;&gt;Node1 -->
<g id="edge13" class="edge">
<title>Node10&#45;&gt;Node1</title>
<path fill="none" stroke="#191970" d="M142.6741,-112.2455C137.7184,-104.5367 130.6618,-93.5598 124.6672,-84.2348"/>
<polygon fill="#191970" stroke="#191970" points="127.4954,-82.1618 119.1437,-75.6427 121.6072,-85.9471 127.4954,-82.1618"/>
</g>
<!-- Node10&#45;&gt;Node4 -->
<g id="edge14" class="edge">
<title>Node10&#45;&gt;Node4</title>
<path fill="none" stroke="#191970" d="M160.0928,-112.2455C169.4535,-104.0549 183.0306,-92.1749 194.0798,-82.5069"/>
<polygon fill="#191970" stroke="#191970" points="196.7036,-84.8618 201.9246,-75.6427 192.0941,-79.5937 196.7036,-84.8618"/>
</g>
<!-- Node11&#45;&gt;Node1 -->
<g id="edge27" class="edge">
<title>Node11&#45;&gt;Node1</title>
<path fill="none" stroke="#191970" d="M440.2854,-112.9195C338.4482,-101.3324 173.0708,-82.0628 144.9448,-76 144.8452,-75.9785 144.7455,-75.9569 144.6457,-75.9351"/>
<polygon fill="#191970" stroke="#191970" points="145.7421,-72.6029 135.1867,-73.5162 144.0078,-79.3847 145.7421,-72.6029"/>
</g>
<!-- Node11&#45;&gt;Node4 -->
<g id="edge16" class="edge">
<title>Node11&#45;&gt;Node4</title>
<path fill="none" stroke="#191970" d="M468.3477,-112.4369C414.8607,-102.712 331.9956,-87.6456 275.2515,-77.3285"/>
<polygon fill="#191970" stroke="#191970" points="275.7898,-73.8691 265.325,-75.5237 274.5376,-80.7562 275.7898,-73.8691"/>
</g>
<!-- Node11&#45;&gt;Node6 -->
<g id="edge29" class="edge">
<title>Node11&#45;&gt;Node6</title>
<path fill="none" stroke="#191970" d="M528.6229,-112.144C538.3327,-98.3923 552.3734,-73.2045 539.9448,-56 536.7973,-51.643 477.1148,-32.9581 436.988,-20.7836"/>
<polygon fill="#191970" stroke="#191970" points="437.8389,-17.3844 427.2539,-17.8413 435.8135,-24.085 437.8389,-17.3844"/>
</g>
<!-- Node11&#45;&gt;Node7 -->
<g id="edge30" class="edge">
<title>Node11&#45;&gt;Node7</title>
<path fill="none" stroke="#191970" d="M505.4422,-112.2455C491.7869,-103.6534 471.6791,-91.0014 455.9459,-81.1018"/>
<polygon fill="#191970" stroke="#191970" points="457.5977,-78.006 447.2698,-75.6427 453.8697,-83.9307 457.5977,-78.006"/>
</g>
<!-- Node11&#45;&gt;Node9 -->
<g id="edge28" class="edge">
<title>Node11&#45;&gt;Node9</title>
<path fill="none" stroke="#191970" d="M517.8095,-112.2455C515.4349,-104.8579 512.0955,-94.4689 509.1833,-85.4087"/>
<polygon fill="#191970" stroke="#191970" points="512.4365,-84.0919 506.0442,-75.6427 505.7723,-86.234 512.4365,-84.0919"/>
</g>
<!-- Node12 -->
<g id="node13" class="node">
<title>Node12</title>
<g id="a_node13"><a xlink:href="Span_8h.html" target="_top" xlink:title="iDynTree/Core/Span.h">
<polygon fill="none" stroke="#000000" points="587.4448,-56.5 587.4448,-75.5 708.4448,-75.5 708.4448,-56.5 587.4448,-56.5"/>
<text text-anchor="middle" x="647.9448" y="-63.5" font-family="FreeSans.ttf" font-size="10.00" fill="#000000">iDynTree/Core/Span.h</text>
</a>
</g>
</g>
<!-- Node11&#45;&gt;Node12 -->
<g id="edge17" class="edge">
<title>Node11&#45;&gt;Node12</title>
<path fill="none" stroke="#191970" d="M542.7769,-112.3733C563.2551,-103.3435 594.0847,-89.7494 617.0768,-79.6111"/>
<polygon fill="#191970" stroke="#191970" points="618.6598,-82.7383 626.3976,-75.5011 615.8355,-76.3333 618.6598,-82.7383"/>
</g>
<!-- Node12&#45;&gt;Node5 -->
<g id="edge21" class="edge">
<title>Node12&#45;&gt;Node5</title>
<path fill="none" stroke="#191970" d="M587.2828,-56.5637C512.2699,-44.895 386.931,-25.3978 324.9562,-15.7573"/>
<polygon fill="#191970" stroke="#191970" points="325.2776,-12.2653 314.8584,-14.1866 324.2016,-19.1821 325.2776,-12.2653"/>
</g>
<!-- Node12&#45;&gt;Node6 -->
<g id="edge18" class="edge">
<title>Node12&#45;&gt;Node6</title>
<path fill="none" stroke="#191970" d="M599.7463,-56.467C558.8312,-48.1662 498.3593,-35.4095 437.1039,-20.183"/>
<polygon fill="#191970" stroke="#191970" points="437.8198,-16.7543 427.2689,-17.7184 436.1182,-23.5443 437.8198,-16.7543"/>
</g>
<!-- Node13 -->
<g id="node14" class="node">
<title>Node13</title>
<polygon fill="none" stroke="#bfbfbf" points="444.9448,-.5 444.9448,-19.5 508.9448,-19.5 508.9448,-.5 444.9448,-.5"/>
<text text-anchor="middle" x="476.9448" y="-7.5" font-family="FreeSans.ttf" font-size="10.00" fill="#000000">algorithm</text>
</g>
<!-- Node12&#45;&gt;Node13 -->
<g id="edge19" class="edge">
<title>Node12&#45;&gt;Node13</title>
<path fill="none" stroke="#191970" d="M618.5489,-56.3733C590.1142,-47.0613 546.8571,-32.8953 515.6367,-22.671"/>
<polygon fill="#191970" stroke="#191970" points="516.5499,-19.2872 505.9572,-19.5011 514.3713,-25.9396 516.5499,-19.2872"/>
</g>
<!-- Node14 -->
<g id="node15" class="node">
<title>Node14</title>
<polygon fill="none" stroke="#bfbfbf" points="526.9448,-.5 526.9448,-19.5 568.9448,-19.5 568.9448,-.5 526.9448,-.5"/>
<text text-anchor="middle" x="547.9448" y="-7.5" font-family="FreeSans.ttf" font-size="10.00" fill="#000000">array</text>
</g>
<!-- Node12&#45;&gt;Node14 -->
<g id="edge20" class="edge">
<title>Node12&#45;&gt;Node14</title>
<path fill="none" stroke="#191970" d="M630.5261,-56.2455C614.8963,-47.4928 591.743,-34.527 573.9263,-24.5496"/>
<polygon fill="#191970" stroke="#191970" points="575.5991,-21.475 565.1639,-19.6427 572.1788,-27.5825 575.5991,-21.475"/>
</g>
<!-- Node15 -->
<g id="node16" class="node">
<title>Node15</title>
<polygon fill="none" stroke="#bfbfbf" points="587.4448,-.5 587.4448,-19.5 640.4448,-19.5 640.4448,-.5 587.4448,-.5"/>
<text text-anchor="middle" x="613.9448" y="-7.5" font-family="FreeSans.ttf" font-size="10.00" fill="#000000">iterator</text>
</g>
<!-- Node12&#45;&gt;Node15 -->
<g id="edge22" class="edge">
<title>Node12&#45;&gt;Node15</title>
<path fill="none" stroke="#191970" d="M642.0225,-56.2455C637.3421,-48.5367 630.6776,-37.5598 625.016,-28.2348"/>
<polygon fill="#191970" stroke="#191970" points="627.9809,-26.3741 619.7993,-19.6427 621.9974,-30.007 627.9809,-26.3741"/>
</g>
<!-- Node16 -->
<g id="node17" class="node">
<title>Node16</title>
<polygon fill="none" stroke="#bfbfbf" points="658.9448,-.5 658.9448,-19.5 702.9448,-19.5 702.9448,-.5 658.9448,-.5"/>
<text text-anchor="middle" x="680.9448" y="-7.5" font-family="FreeSans.ttf" font-size="10.00" fill="#000000">limits</text>
</g>
<!-- Node12&#45;&gt;Node16 -->
<g id="edge23" class="edge">
<title>Node12&#45;&gt;Node16</title>
<path fill="none" stroke="#191970" d="M653.693,-56.2455C658.1884,-48.617 664.5697,-37.7881 670.0273,-28.5267"/>
<polygon fill="#191970" stroke="#191970" points="673.2009,-30.035 675.2625,-19.6427 667.1702,-26.4811 673.2009,-30.035"/>
</g>
<!-- Node17 -->
<g id="node18" class="node">
<title>Node17</title>
<polygon fill="none" stroke="#bfbfbf" points="721.4448,-.5 721.4448,-19.5 786.4448,-19.5 786.4448,-.5 721.4448,-.5"/>
<text text-anchor="middle" x="753.9448" y="-7.5" font-family="FreeSans.ttf" font-size="10.00" fill="#000000">stdexcept</text>
</g>
<!-- Node12&#45;&gt;Node17 -->
<g id="edge24" class="edge">
<title>Node12&#45;&gt;Node17</title>
<path fill="none" stroke="#191970" d="M666.4086,-56.2455C683.0523,-47.4527 707.7441,-34.4079 726.664,-24.4125"/>
<polygon fill="#191970" stroke="#191970" points="728.4856,-27.4086 735.6926,-19.6427 725.2157,-21.2193 728.4856,-27.4086"/>
</g>
<!-- Node18 -->
<g id="node19" class="node">
<title>Node18</title>
<polygon fill="none" stroke="#bfbfbf" points="804.4448,-.5 804.4448,-19.5 873.4448,-19.5 873.4448,-.5 804.4448,-.5"/>
<text text-anchor="middle" x="838.9448" y="-7.5" font-family="FreeSans.ttf" font-size="10.00" fill="#000000">type_traits</text>
</g>
<!-- Node12&#45;&gt;Node18 -->
<g id="edge25" class="edge">
<title>Node12&#45;&gt;Node18</title>
<path fill="none" stroke="#191970" d="M680.7789,-56.3733C712.8143,-46.9807 761.6935,-32.6496 796.6303,-22.4064"/>
<polygon fill="#191970" stroke="#191970" points="797.9279,-25.6733 806.5392,-19.5011 795.9584,-18.9561 797.9279,-25.6733"/>
</g>
<!-- Node19 -->
<g id="node20" class="node">
<title>Node19</title>
<polygon fill="none" stroke="#bfbfbf" points="891.4448,-.5 891.4448,-19.5 936.4448,-19.5 936.4448,-.5 891.4448,-.5"/>
<text text-anchor="middle" x="913.9448" y="-7.5" font-family="FreeSans.ttf" font-size="10.00" fill="#000000">utility</text>
</g>
<!-- Node12&#45;&gt;Node19 -->
<g id="edge26" class="edge">
<title>Node12&#45;&gt;Node19</title>
<path fill="none" stroke="#191970" d="M706.8064,-56.4761C752.2692,-48.6659 816.8871,-36.5814 881.4146,-20.1899"/>
<polygon fill="#191970" stroke="#191970" points="882.5377,-23.515 891.3488,-17.6315 880.7919,-16.7361 882.5377,-23.515"/>
</g>
</g>
</svg>
