<?xml version="1.0" encoding="UTF-8" standalone="no"?>
<!DOCTYPE svg PUBLIC "-//W3C//DTD SVG 1.1//EN"
 "http://www.w3.org/Graphics/SVG/1.1/DTD/svg11.dtd">
<!-- Generated by graphviz version 2.40.1 (20161225.0304)
 -->
<!-- Title: RotationSemantics.cpp Pages: 1 -->
<svg width="822pt" height="218pt"
 viewBox="0.00 0.00 821.50 218.00" xmlns="http://www.w3.org/2000/svg" xmlns:xlink="http://www.w3.org/1999/xlink">
<g id="graph0" class="graph" transform="scale(1 1) rotate(0) translate(4 214)">
<title>RotationSemantics.cpp</title>
<!-- Node0 -->
<g id="node1" class="node">
<title>Node0</title>
<polygon fill="#bfbfbf" stroke="#000000" points="395.5,-190.5 395.5,-209.5 523.5,-209.5 523.5,-190.5 395.5,-190.5"/>
<text text-anchor="middle" x="459.5" y="-197.5" font-family="FreeSans.ttf" font-size="10.00" fill="#000000">RotationSemantics.cpp</text>
</g>
<!-- Node1 -->
<g id="node2" class="node">
<title>Node1</title>
<g id="a_node2"><a xlink:href="RotationSemantics_8h.html" target="_top" xlink:title="iDynTree/Core/RotationSemantics.h">
<polygon fill="none" stroke="#000000" points="205.5,-129 205.5,-148 393.5,-148 393.5,-129 205.5,-129"/>
<text text-anchor="middle" x="299.5" y="-136" font-family="FreeSans.ttf" font-size="10.00" fill="#000000">iDynTree/Core/RotationSemantics.h</text>
</a>
</g>
</g>
<!-- Node0&#45;&gt;Node1 -->
<g id="edge1" class="edge">
<title>Node0&#45;&gt;Node1</title>
<path fill="none" stroke="#191970" d="M434.5,-190.3906C407.4942,-180.0103 364.2815,-163.4004 334.0406,-151.7766"/>
<polygon fill="#191970" stroke="#191970" points="334.9144,-148.3628 324.3244,-148.0419 332.4029,-154.8968 334.9144,-148.3628"/>
</g>
<!-- Node3 -->
<g id="node4" class="node">
<title>Node3</title>
<g id="a_node4"><a xlink:href="Utils_8h.html" target="_top" xlink:title="iDynTree/Core/Utils.h">
<polygon fill="none" stroke="#000000" points="246,-62 246,-81 365,-81 365,-62 246,-62"/>
<text text-anchor="middle" x="305.5" y="-69" font-family="FreeSans.ttf" font-size="10.00" fill="#000000">iDynTree/Core/Utils.h</text>
</a>
</g>
</g>
<!-- Node0&#45;&gt;Node3 -->
<g id="edge7" class="edge">
<title>Node0&#45;&gt;Node3</title>
<path fill="none" stroke="#191970" d="M454.3039,-190.4045C445.4109,-174.6861 425.9441,-143.1844 402.5,-123 383.8741,-106.9639 359.4114,-94.0195 339.7126,-85.1192"/>
<polygon fill="#191970" stroke="#191970" points="341.0361,-81.878 330.4715,-81.079 338.232,-88.2918 341.0361,-81.878"/>
</g>
<!-- Node5 -->
<g id="node6" class="node">
<title>Node5</title>
<g id="a_node6"><a xlink:href="PositionSemantics_8h.html" target="_top" xlink:title="iDynTree/Core/PositionSemantics.h">
<polygon fill="none" stroke="#000000" points="0,-129 0,-148 187,-148 187,-129 0,-129"/>
<text text-anchor="middle" x="93.5" y="-136" font-family="FreeSans.ttf" font-size="10.00" fill="#000000">iDynTree/Core/PositionSemantics.h</text>
</a>
</g>
</g>
<!-- Node0&#45;&gt;Node5 -->
<g id="edge5" class="edge">
<title>Node0&#45;&gt;Node5</title>
<path fill="none" stroke="#191970" d="M402.7141,-190.4581C337.1683,-179.4443 229.5036,-161.3531 160.0746,-149.6867"/>
<polygon fill="#191970" stroke="#191970" points="160.5598,-146.2192 150.118,-148.0137 159.3997,-153.1225 160.5598,-146.2192"/>
</g>
<!-- Node6 -->
<g id="node7" class="node">
<title>Node6</title>
<g id="a_node7"><a xlink:href="PrivatePreProcessorUtils_8h.html" target="_top" xlink:title="iDynTree/Core/PrivatePre\lProcessorUtils.h">
<polygon fill="none" stroke="#000000" points="447.5,-56.5 447.5,-86.5 585.5,-86.5 585.5,-56.5 447.5,-56.5"/>
<text text-anchor="start" x="455.5" y="-74.5" font-family="FreeSans.ttf" font-size="10.00" fill="#000000">iDynTree/Core/PrivatePre</text>
<text text-anchor="middle" x="516.5" y="-63.5" font-family="FreeSans.ttf" font-size="10.00" fill="#000000">ProcessorUtils.h</text>
</a>
</g>
</g>
<!-- Node0&#45;&gt;Node6 -->
<g id="edge8" class="edge">
<title>Node0&#45;&gt;Node6</title>
<path fill="none" stroke="#191970" d="M460.6423,-190.3516C462.6856,-175.356 467.7947,-145.8101 478.5,-123 483.1736,-113.0418 489.9154,-103.0838 496.4268,-94.615"/>
<polygon fill="#191970" stroke="#191970" points="499.2503,-96.6887 502.7764,-86.6979 493.7895,-92.3092 499.2503,-96.6887"/>
</g>
<!-- Node7 -->
<g id="node8" class="node">
<title>Node7</title>
<g id="a_node8"><a xlink:href="PrivateSemanticsMacros_8h.html" target="_top" xlink:title="iDynTree/Core/PrivateSemantics\lMacros.h">
<polygon fill="none" stroke="#000000" points="488,-123.5 488,-153.5 661,-153.5 661,-123.5 488,-123.5"/>
<text text-anchor="start" x="496" y="-141.5" font-family="FreeSans.ttf" font-size="10.00" fill="#000000">iDynTree/Core/PrivateSemantics</text>
<text text-anchor="middle" x="574.5" y="-130.5" font-family="FreeSans.ttf" font-size="10.00" fill="#000000">Macros.h</text>
</a>
</g>
</g>
<!-- Node0&#45;&gt;Node7 -->
<g id="edge9" class="edge">
<title>Node0&#45;&gt;Node7</title>
<path fill="none" stroke="#191970" d="M477.4688,-190.3906C493.4649,-181.8361 517.3723,-169.0509 537.453,-158.3121"/>
<polygon fill="#191970" stroke="#191970" points="539.2002,-161.3469 546.3678,-153.5446 535.899,-155.1741 539.2002,-161.3469"/>
</g>
<!-- Node8 -->
<g id="node9" class="node">
<title>Node8</title>
<polygon fill="none" stroke="#bfbfbf" points="679.5,-129 679.5,-148 739.5,-148 739.5,-129 679.5,-129"/>
<text text-anchor="middle" x="709.5" y="-136" font-family="FreeSans.ttf" font-size="10.00" fill="#000000">iostream</text>
</g>
<!-- Node0&#45;&gt;Node8 -->
<g id="edge11" class="edge">
<title>Node0&#45;&gt;Node8</title>
<path fill="none" stroke="#191970" d="M515.2267,-190.4302C558.14,-182.4432 618.6871,-169.8276 670.5,-154 672.7929,-153.2996 675.1408,-152.5231 677.4916,-151.7017"/>
<polygon fill="#191970" stroke="#191970" points="678.8851,-154.9177 687.0384,-148.152 676.4455,-148.3566 678.8851,-154.9177"/>
</g>
<!-- Node9 -->
<g id="node10" class="node">
<title>Node9</title>
<polygon fill="none" stroke="#bfbfbf" points="757.5,-129 757.5,-148 813.5,-148 813.5,-129 757.5,-129"/>
<text text-anchor="middle" x="785.5" y="-136" font-family="FreeSans.ttf" font-size="10.00" fill="#000000">sstream</text>
</g>
<!-- Node0&#45;&gt;Node9 -->
<g id="edge12" class="edge">
<title>Node0&#45;&gt;Node9</title>
<path fill="none" stroke="#191970" d="M523.5894,-194.2354C582.791,-187.8725 672.7598,-175.5563 748.5,-154 750.8173,-153.3405 753.1839,-152.5762 755.5442,-151.7474"/>
<polygon fill="#191970" stroke="#191970" points="756.9939,-154.9398 765.0692,-148.0813 754.4794,-148.407 756.9939,-154.9398"/>
</g>
<!-- Node2 -->
<g id="node3" class="node">
<title>Node2</title>
<polygon fill="none" stroke="#bfbfbf" points="130.5,-62 130.5,-81 174.5,-81 174.5,-62 130.5,-62"/>
<text text-anchor="middle" x="152.5" y="-69" font-family="FreeSans.ttf" font-size="10.00" fill="#000000">string</text>
</g>
<!-- Node1&#45;&gt;Node2 -->
<g id="edge2" class="edge">
<title>Node1&#45;&gt;Node2</title>
<path fill="none" stroke="#191970" d="M278.4385,-128.9005C253.3319,-117.4574 211.1923,-98.2509 182.6402,-85.2374"/>
<polygon fill="#191970" stroke="#191970" points="184.0735,-82.0443 173.5224,-81.0817 181.1703,-88.4139 184.0735,-82.0443"/>
</g>
<!-- Node1&#45;&gt;Node3 -->
<g id="edge3" class="edge">
<title>Node1&#45;&gt;Node3</title>
<path fill="none" stroke="#191970" d="M300.3597,-128.9005C301.2329,-119.149 302.6111,-103.7597 303.7206,-91.3695"/>
<polygon fill="#191970" stroke="#191970" points="307.2359,-91.354 304.6419,-81.0817 300.2639,-90.7296 307.2359,-91.354"/>
</g>
<!-- Node4 -->
<g id="node5" class="node">
<title>Node4</title>
<polygon fill="none" stroke="#bfbfbf" points="279,-.5 279,-19.5 332,-19.5 332,-.5 279,-.5"/>
<text text-anchor="middle" x="305.5" y="-7.5" font-family="FreeSans.ttf" font-size="10.00" fill="#000000">cstddef</text>
</g>
<!-- Node3&#45;&gt;Node4 -->
<g id="edge4" class="edge">
<title>Node3&#45;&gt;Node4</title>
<path fill="none" stroke="#191970" d="M305.5,-61.8906C305.5,-53.3657 305.5,-40.6392 305.5,-29.9235"/>
<polygon fill="#191970" stroke="#191970" points="309.0001,-29.7448 305.5,-19.7449 302.0001,-29.7449 309.0001,-29.7448"/>
</g>
<!-- Node5&#45;&gt;Node2 -->
<g id="edge6" class="edge">
<title>Node5&#45;&gt;Node2</title>
<path fill="none" stroke="#191970" d="M101.9533,-128.9005C111.1538,-118.4525 126.0535,-101.5325 137.2978,-88.7635"/>
<polygon fill="#191970" stroke="#191970" points="140.0803,-90.8997 144.0624,-81.0817 134.8269,-86.2735 140.0803,-90.8997"/>
</g>
<!-- Node7&#45;&gt;Node6 -->
<g id="edge10" class="edge">
<title>Node7&#45;&gt;Node6</title>
<path fill="none" stroke="#191970" d="M561.3389,-123.2967C553.9232,-114.7303 544.5143,-103.8614 536.2323,-94.2943"/>
<polygon fill="#191970" stroke="#191970" points="538.8003,-91.913 529.609,-86.6432 533.5078,-96.4946 538.8003,-91.913"/>
</g>
</g>
</svg>
