<?xml version="1.0" encoding="UTF-8" standalone="no"?>
<!DOCTYPE svg PUBLIC "-//W3C//DTD SVG 1.1//EN"
 "http://www.w3.org/Graphics/SVG/1.1/DTD/svg11.dtd">
<!-- Generated by graphviz version 2.40.1 (20161225.0304)
 -->
<!-- Title: SixAxisForceTorqueSensor.h Pages: 1 -->
<svg width="1949pt" height="151pt"
 viewBox="0.00 0.00 1948.50 151.00" xmlns="http://www.w3.org/2000/svg" xmlns:xlink="http://www.w3.org/1999/xlink">
<g id="graph0" class="graph" transform="scale(1 1) rotate(0) translate(4 147)">
<title>SixAxisForceTorqueSensor.h</title>
<!-- Node57 -->
<g id="node1" class="node">
<title>Node57</title>
<polygon fill="#bfbfbf" stroke="#000000" points="909.5,-123.5 909.5,-142.5 1061.5,-142.5 1061.5,-123.5 909.5,-123.5"/>
<text text-anchor="middle" x="985.5" y="-130.5" font-family="FreeSans.ttf" font-size="10.00" fill="#000000">SixAxisForceTorqueSensor.h</text>
</g>
<!-- Node58 -->
<g id="node2" class="node">
<title>Node58</title>
<g id="a_node2"><a xlink:href="ExternalWrenchesEstimation_8cpp.html" target="_top" xlink:title="ExternalWrenchesEstimation.cpp">
<polygon fill="none" stroke="#000000" points="0,-62 0,-81 177,-81 177,-62 0,-62"/>
<text text-anchor="middle" x="88.5" y="-69" font-family="FreeSans.ttf" font-size="10.00" fill="#000000">ExternalWrenchesEstimation.cpp</text>
</a>
</g>
</g>
<!-- Node57&#45;&gt;Node58 -->
<g id="edge1" class="edge">
<title>Node57&#45;&gt;Node58</title>
<path fill="none" stroke="#191970" d="M899.1591,-130.8936C752.2294,-126.6702 444.3221,-115.0477 185.5,-87 171.3429,-85.4658 156.1014,-83.2835 141.9891,-81.0389"/>
<polygon fill="#191970" stroke="#191970" points="899.3619,-134.4006 909.457,-131.185 899.56,-127.4034 899.3619,-134.4006"/>
</g>
<!-- Node59 -->
<g id="node3" class="node">
<title>Node59</title>
<g id="a_node3"><a xlink:href="ExtWrenchesAndJointTorquesEstimator_8cpp.html" target="_top" xlink:title="ExtWrenchesAndJointTorques\lEstimator.cpp">
<polygon fill="none" stroke="#000000" points="194.5,-56.5 194.5,-86.5 352.5,-86.5 352.5,-56.5 194.5,-56.5"/>
<text text-anchor="start" x="202.5" y="-74.5" font-family="FreeSans.ttf" font-size="10.00" fill="#000000">ExtWrenchesAndJointTorques</text>
<text text-anchor="middle" x="273.5" y="-63.5" font-family="FreeSans.ttf" font-size="10.00" fill="#000000">Estimator.cpp</text>
</a>
</g>
</g>
<!-- Node57&#45;&gt;Node59 -->
<g id="edge2" class="edge">
<title>Node57&#45;&gt;Node59</title>
<path fill="none" stroke="#191970" d="M898.9458,-129.4466C778.0523,-123.8432 551.9348,-111.0332 360.5,-87 357.9122,-86.6751 355.2844,-86.325 352.6334,-85.9545"/>
<polygon fill="#191970" stroke="#191970" points="899.0951,-132.957 909.2448,-129.9183 899.4154,-125.9644 899.0951,-132.957"/>
</g>
<!-- Node60 -->
<g id="node4" class="node">
<title>Node60</title>
<g id="a_node4"><a xlink:href="ForceTorqueSensorElement_8cpp.html" target="_top" xlink:title="ForceTorqueSensorElement.cpp">
<polygon fill="none" stroke="#000000" points="370,-62 370,-81 539,-81 539,-62 370,-62"/>
<text text-anchor="middle" x="454.5" y="-69" font-family="FreeSans.ttf" font-size="10.00" fill="#000000">ForceTorqueSensorElement.cpp</text>
</a>
</g>
</g>
<!-- Node57&#45;&gt;Node60 -->
<g id="edge3" class="edge">
<title>Node57&#45;&gt;Node60</title>
<path fill="none" stroke="#191970" d="M899.1906,-125.4179C810.9123,-117.3102 669.8878,-103.3826 548.5,-87 535.7149,-85.2745 521.9942,-83.1616 509.0951,-81.0574"/>
<polygon fill="#191970" stroke="#191970" points="898.8809,-128.9041 909.1581,-126.3291 899.5183,-121.9331 898.8809,-128.9041"/>
</g>
<!-- Node61 -->
<g id="node5" class="node">
<title>Node61</title>
<g id="a_node5"><a xlink:href="URDFDocument_8cpp.html" target="_top" xlink:title="URDFDocument.cpp">
<polygon fill="none" stroke="#000000" points="557.5,-62 557.5,-81 671.5,-81 671.5,-62 557.5,-62"/>
<text text-anchor="middle" x="614.5" y="-69" font-family="FreeSans.ttf" font-size="10.00" fill="#000000">URDFDocument.cpp</text>
</a>
</g>
</g>
<!-- Node57&#45;&gt;Node61 -->
<g id="edge4" class="edge">
<title>Node57&#45;&gt;Node61</title>
<path fill="none" stroke="#191970" d="M900.9159,-122.116C839.5254,-113.7615 754.5949,-101.2637 680.5,-87 671.4849,-85.2645 661.8363,-83.1477 652.7771,-81.043"/>
<polygon fill="#191970" stroke="#191970" points="900.565,-125.6004 910.944,-123.4724 901.5034,-118.6635 900.565,-125.6004"/>
</g>
<!-- Node62 -->
<g id="node6" class="node">
<title>Node62</title>
<g id="a_node6"><a xlink:href="urdf__sensor__import_8cpp.html" target="_top" xlink:title="urdf_sensor_import.cpp">
<polygon fill="none" stroke="#000000" points="690,-62 690,-81 821,-81 821,-62 690,-62"/>
<text text-anchor="middle" x="755.5" y="-69" font-family="FreeSans.ttf" font-size="10.00" fill="#000000">urdf_sensor_import.cpp</text>
</a>
</g>
</g>
<!-- Node57&#45;&gt;Node62 -->
<g id="edge5" class="edge">
<title>Node57&#45;&gt;Node62</title>
<path fill="none" stroke="#191970" d="M940.0263,-120.8407C896.3781,-109.1696 831.3378,-91.7784 791.2689,-81.0643"/>
<polygon fill="#191970" stroke="#191970" points="939.2501,-124.2561 949.8149,-123.4581 941.0584,-117.4937 939.2501,-124.2561"/>
</g>
<!-- Node63 -->
<g id="node7" class="node">
<title>Node63</title>
<g id="a_node7"><a xlink:href="dirl__utils_8hpp.html" target="_top" xlink:title="dirl_utils.hpp">
<polygon fill="none" stroke="#000000" points="877.5,-62 877.5,-81 957.5,-81 957.5,-62 877.5,-62"/>
<text text-anchor="middle" x="917.5" y="-69" font-family="FreeSans.ttf" font-size="10.00" fill="#000000">dirl_utils.hpp</text>
</a>
</g>
</g>
<!-- Node57&#45;&gt;Node63 -->
<g id="edge6" class="edge">
<title>Node57&#45;&gt;Node63</title>
<path fill="none" stroke="#191970" d="M967.3094,-116.5482C954.85,-105.2798 938.747,-90.716 928.2748,-81.2449"/>
<polygon fill="#191970" stroke="#191970" points="965.1106,-119.2787 974.875,-123.3906 969.806,-114.0871 965.1106,-119.2787"/>
</g>
<!-- Node65 -->
<g id="node9" class="node">
<title>Node65</title>
<g id="a_node9"><a xlink:href="dirl__utils_8cpp.html" target="_top" xlink:title="dirl_utils.cpp">
<polygon fill="none" stroke="#000000" points="326,-.5 326,-19.5 405,-19.5 405,-.5 326,-.5"/>
<text text-anchor="middle" x="365.5" y="-7.5" font-family="FreeSans.ttf" font-size="10.00" fill="#000000">dirl_utils.cpp</text>
</a>
</g>
</g>
<!-- Node57&#45;&gt;Node65 -->
<g id="edge13" class="edge">
<title>Node57&#45;&gt;Node65</title>
<path fill="none" stroke="#191970" d="M944.5379,-120.2554C921.4376,-112.2543 892.4887,-100.834 868.5,-87 849.3189,-75.9385 850.0702,-64.1938 829.5,-56 657.5058,12.5109 597.723,-46.5537 414.5,-20 411.4067,-19.5517 408.2144,-19.0317 405.0121,-18.4691"/>
<polygon fill="#191970" stroke="#191970" points="943.4542,-123.5836 954.0485,-123.4722 945.6971,-116.9527 943.4542,-123.5836"/>
</g>
<!-- Node68 -->
<g id="node12" class="node">
<title>Node68</title>
<g id="a_node12"><a xlink:href="subtreeBaseDynamicsRegressor_8cpp.html" target="_top" xlink:title="subtreeBaseDynamicsRegressor.cpp">
<polygon fill="none" stroke="#000000" points="946.5,-.5 946.5,-19.5 1140.5,-19.5 1140.5,-.5 946.5,-.5"/>
<text text-anchor="middle" x="1043.5" y="-7.5" font-family="FreeSans.ttf" font-size="10.00" fill="#000000">subtreeBaseDynamicsRegressor.cpp</text>
</a>
</g>
</g>
<!-- Node57&#45;&gt;Node68 -->
<g id="edge14" class="edge">
<title>Node57&#45;&gt;Node68</title>
<path fill="none" stroke="#191970" d="M989.6522,-113.5409C993.5092,-97.5428 1000.0835,-74.5686 1009.5,-56 1016.417,-42.3602 1027.3158,-28.4844 1034.9027,-19.5925"/>
<polygon fill="#191970" stroke="#191970" points="986.2235,-112.8346 987.4145,-123.3622 993.0486,-114.3897 986.2235,-112.8346"/>
</g>
<!-- Node69 -->
<g id="node13" class="node">
<title>Node69</title>
<g id="a_node13"><a xlink:href="torqueRegressor_8cpp.html" target="_top" xlink:title="torqueRegressor.cpp">
<polygon fill="none" stroke="#000000" points="1158.5,-.5 1158.5,-19.5 1274.5,-19.5 1274.5,-.5 1158.5,-.5"/>
<text text-anchor="middle" x="1216.5" y="-7.5" font-family="FreeSans.ttf" font-size="10.00" fill="#000000">torqueRegressor.cpp</text>
</a>
</g>
</g>
<!-- Node57&#45;&gt;Node69 -->
<g id="edge15" class="edge">
<title>Node57&#45;&gt;Node69</title>
<path fill="none" stroke="#191970" d="M994.756,-113.9892C1004.3143,-96.349 1020.8681,-70.6727 1042.5,-56 1062.4759,-42.4505 1121.7165,-28.5011 1165.5522,-19.5695"/>
<polygon fill="#191970" stroke="#191970" points="991.4255,-112.8112 989.9512,-123.3029 997.6464,-116.0205 991.4255,-112.8112"/>
</g>
<!-- Node70 -->
<g id="node14" class="node">
<title>Node70</title>
<g id="a_node14"><a xlink:href="AllSensorsTypes_8h.html" target="_top" xlink:title="AllSensorsTypes.h">
<polygon fill="none" stroke="#000000" points="1051.5,-62 1051.5,-81 1155.5,-81 1155.5,-62 1051.5,-62"/>
<text text-anchor="middle" x="1103.5" y="-69" font-family="FreeSans.ttf" font-size="10.00" fill="#000000">AllSensorsTypes.h</text>
</a>
</g>
</g>
<!-- Node57&#45;&gt;Node70 -->
<g id="edge16" class="edge">
<title>Node57&#45;&gt;Node70</title>
<path fill="none" stroke="#191970" d="M1012.8867,-118.7264C1035.1174,-107.1401 1065.8454,-91.1251 1085.192,-81.0419"/>
<polygon fill="#191970" stroke="#191970" points="1011.1877,-115.665 1003.9375,-123.3906 1014.423,-121.8725 1011.1877,-115.665"/>
</g>
<!-- Node72 -->
<g id="node16" class="node">
<title>Node72</title>
<g id="a_node16"><a xlink:href="SixAxisFTSensor_8h.html" target="_top" xlink:title="SixAxisFTSensor.h">
<polygon fill="none" stroke="#000000" points="1174,-62 1174,-81 1279,-81 1279,-62 1174,-62"/>
<text text-anchor="middle" x="1226.5" y="-69" font-family="FreeSans.ttf" font-size="10.00" fill="#000000">SixAxisFTSensor.h</text>
</a>
</g>
</g>
<!-- Node57&#45;&gt;Node72 -->
<g id="edge18" class="edge">
<title>Node57&#45;&gt;Node72</title>
<path fill="none" stroke="#191970" d="M1032.86,-120.9144C1078.5971,-109.2428 1146.9468,-91.8009 1189.0205,-81.0643"/>
<polygon fill="#191970" stroke="#191970" points="1031.7159,-117.5941 1022.8918,-123.4581 1033.4468,-124.3767 1031.7159,-117.5941"/>
</g>
<!-- Node73 -->
<g id="node17" class="node">
<title>Node73</title>
<g id="a_node17"><a xlink:href="ModelSensorsTransformers_8cpp.html" target="_top" xlink:title="ModelSensorsTransformers.cpp">
<polygon fill="none" stroke="#000000" points="1297.5,-62 1297.5,-81 1465.5,-81 1465.5,-62 1297.5,-62"/>
<text text-anchor="middle" x="1381.5" y="-69" font-family="FreeSans.ttf" font-size="10.00" fill="#000000">ModelSensorsTransformers.cpp</text>
</a>
</g>
</g>
<!-- Node57&#45;&gt;Node73 -->
<g id="edge19" class="edge">
<title>Node57&#45;&gt;Node73</title>
<path fill="none" stroke="#191970" d="M1059.9518,-122.0042C1121.3157,-112.8675 1210.6036,-99.4036 1288.5,-87 1300.3004,-85.121 1312.9331,-83.0532 1324.9638,-81.0572"/>
<polygon fill="#191970" stroke="#191970" points="1059.346,-118.5557 1049.9698,-123.4889 1060.3759,-125.4795 1059.346,-118.5557"/>
</g>
<!-- Node74 -->
<g id="node18" class="node">
<title>Node74</title>
<g id="a_node18"><a xlink:href="PredictSensorsMeasurements_8cpp.html" target="_top" xlink:title="PredictSensorsMeasurements.cpp">
<polygon fill="none" stroke="#000000" points="1484,-62 1484,-81 1665,-81 1665,-62 1484,-62"/>
<text text-anchor="middle" x="1574.5" y="-69" font-family="FreeSans.ttf" font-size="10.00" fill="#000000">PredictSensorsMeasurements.cpp</text>
</a>
</g>
</g>
<!-- Node57&#45;&gt;Node74 -->
<g id="edge20" class="edge">
<title>Node57&#45;&gt;Node74</title>
<path fill="none" stroke="#191970" d="M1072.0224,-126.4386C1169.8852,-118.6508 1333.9314,-104.4897 1474.5,-87 1488.2729,-85.2864 1503.0683,-83.1543 1516.9436,-81.0252"/>
<polygon fill="#191970" stroke="#191970" points="1071.5776,-122.9628 1061.8852,-127.2413 1072.1303,-129.9409 1071.5776,-122.9628"/>
</g>
<!-- Node75 -->
<g id="node19" class="node">
<title>Node75</title>
<g id="a_node19"><a xlink:href="Sensors_8cpp.html" target="_top" xlink:title="Sensors.cpp">
<polygon fill="none" stroke="#000000" points="1683,-62 1683,-81 1758,-81 1758,-62 1683,-62"/>
<text text-anchor="middle" x="1720.5" y="-69" font-family="FreeSans.ttf" font-size="10.00" fill="#000000">Sensors.cpp</text>
</a>
</g>
</g>
<!-- Node57&#45;&gt;Node75 -->
<g id="edge21" class="edge">
<title>Node57&#45;&gt;Node75</title>
<path fill="none" stroke="#191970" d="M1071.9061,-130.0146C1230.3767,-124.0775 1561.5911,-109.3987 1674.5,-87 1681.6089,-85.5897 1689.1328,-83.3778 1695.9906,-81.0619"/>
<polygon fill="#191970" stroke="#191970" points="1071.585,-126.5241 1061.7219,-130.3931 1071.845,-133.5192 1071.585,-126.5241"/>
</g>
<!-- Node76 -->
<g id="node20" class="node">
<title>Node76</title>
<g id="a_node20"><a xlink:href="SixAxisForceTorqueSensor_8cpp.html" target="_top" xlink:title="SixAxisForceTorqueSensor.cpp">
<polygon fill="none" stroke="#000000" points="1776.5,-62 1776.5,-81 1940.5,-81 1940.5,-62 1776.5,-62"/>
<text text-anchor="middle" x="1858.5" y="-69" font-family="FreeSans.ttf" font-size="10.00" fill="#000000">SixAxisForceTorqueSensor.cpp</text>
</a>
</g>
</g>
<!-- Node57&#45;&gt;Node76 -->
<g id="edge22" class="edge">
<title>Node57&#45;&gt;Node76</title>
<path fill="none" stroke="#191970" d="M1071.6235,-131.0281C1215.955,-127.0312 1515.6346,-115.7696 1767.5,-87 1780.875,-85.4722 1795.2703,-83.2782 1808.5762,-81.0197"/>
<polygon fill="#191970" stroke="#191970" points="1071.404,-127.5326 1061.5029,-131.3034 1071.5944,-134.5301 1071.404,-127.5326"/>
</g>
<!-- Node64 -->
<g id="node8" class="node">
<title>Node64</title>
<g id="a_node8"><a xlink:href="baseDynamicsRegressor_8cpp.html" target="_top" xlink:title="baseDynamicsRegressor.cpp">
<polygon fill="none" stroke="#000000" points="423.5,-.5 423.5,-19.5 579.5,-19.5 579.5,-.5 423.5,-.5"/>
<text text-anchor="middle" x="501.5" y="-7.5" font-family="FreeSans.ttf" font-size="10.00" fill="#000000">baseDynamicsRegressor.cpp</text>
</a>
</g>
</g>
<!-- Node63&#45;&gt;Node64 -->
<g id="edge7" class="edge">
<title>Node63&#45;&gt;Node64</title>
<path fill="none" stroke="#191970" d="M877.7676,-59.3519C872.9866,-58.1109 868.1513,-56.9572 863.5,-56 836.3909,-50.4212 677.6123,-31.0243 579.5559,-19.2738"/>
<polygon fill="#191970" stroke="#191970" points="876.8603,-62.7322 887.4289,-61.9864 878.702,-55.9788 876.8603,-62.7322"/>
</g>
<!-- Node63&#45;&gt;Node65 -->
<g id="edge8" class="edge">
<title>Node63&#45;&gt;Node65</title>
<path fill="none" stroke="#191970" d="M878.3341,-59.2717C873.3755,-58.0157 868.3432,-56.8801 863.5,-56 666.53,-20.2054 612.7187,-48.0672 414.5,-20 411.4052,-19.5618 408.2119,-19.0491 405.0089,-18.4915"/>
<polygon fill="#191970" stroke="#191970" points="877.7576,-62.7415 888.3248,-61.9758 879.5866,-55.9846 877.7576,-62.7415"/>
</g>
<!-- Node66 -->
<g id="node10" class="node">
<title>Node66</title>
<g id="a_node10"><a xlink:href="dynamicRegressorGenerator_8cpp.html" target="_top" xlink:title="dynamicRegressorGenerator.cpp">
<polygon fill="none" stroke="#000000" points="598,-.5 598,-19.5 773,-19.5 773,-.5 598,-.5"/>
<text text-anchor="middle" x="685.5" y="-7.5" font-family="FreeSans.ttf" font-size="10.00" fill="#000000">dynamicRegressorGenerator.cpp</text>
</a>
</g>
</g>
<!-- Node63&#45;&gt;Node66 -->
<g id="edge9" class="edge">
<title>Node63&#45;&gt;Node66</title>
<path fill="none" stroke="#191970" d="M875.0591,-59.2026C871.1548,-58.1062 867.2566,-57.0244 863.5,-56 815.4618,-42.9009 759.872,-28.6848 723.7725,-19.5772"/>
<polygon fill="#191970" stroke="#191970" points="874.1239,-62.5754 884.6993,-61.9338 876.0321,-55.8404 874.1239,-62.5754"/>
</g>
<!-- Node67 -->
<g id="node11" class="node">
<title>Node67</title>
<g id="a_node11"><a xlink:href="essentialParameters_8cpp.html" target="_top" xlink:title="essentialParameters.cpp">
<polygon fill="none" stroke="#000000" points="791,-.5 791,-19.5 928,-19.5 928,-.5 791,-.5"/>
<text text-anchor="middle" x="859.5" y="-7.5" font-family="FreeSans.ttf" font-size="10.00" fill="#000000">essentialParameters.cpp</text>
</a>
</g>
</g>
<!-- Node63&#45;&gt;Node67 -->
<g id="edge10" class="edge">
<title>Node63&#45;&gt;Node67</title>
<path fill="none" stroke="#191970" d="M901.3739,-54.4007C890.8358,-43.2268 877.4523,-29.0356 868.6903,-19.7449"/>
<polygon fill="#191970" stroke="#191970" points="899.0302,-57.0169 908.4375,-61.8906 904.1227,-52.2142 899.0302,-57.0169"/>
</g>
<!-- Node63&#45;&gt;Node68 -->
<g id="edge11" class="edge">
<title>Node63&#45;&gt;Node68</title>
<path fill="none" stroke="#191970" d="M946.4261,-57.3813C970.1881,-45.7832 1003.2003,-29.6701 1023.9507,-19.5419"/>
<polygon fill="#191970" stroke="#191970" points="944.6389,-54.3589 937.1875,-61.8906 947.7094,-60.6496 944.6389,-54.3589"/>
</g>
<!-- Node63&#45;&gt;Node69 -->
<g id="edge12" class="edge">
<title>Node63&#45;&gt;Node69</title>
<path fill="none" stroke="#191970" d="M967.6425,-61.1864C1024.1288,-49.568 1115.1935,-30.8373 1170.0968,-19.5445"/>
<polygon fill="#191970" stroke="#191970" points="966.604,-57.8267 957.5142,-63.2697 968.0143,-64.6831 966.604,-57.8267"/>
</g>
<!-- Node71 -->
<g id="node15" class="node">
<title>Node71</title>
<g id="a_node15"><a xlink:href="BerdyHelper_8cpp.html" target="_top" xlink:title="BerdyHelper.cpp">
<polygon fill="none" stroke="#000000" points="1293,-.5 1293,-19.5 1390,-19.5 1390,-.5 1293,-.5"/>
<text text-anchor="middle" x="1341.5" y="-7.5" font-family="FreeSans.ttf" font-size="10.00" fill="#000000">BerdyHelper.cpp</text>
</a>
</g>
</g>
<!-- Node70&#45;&gt;Node71 -->
<g id="edge17" class="edge">
<title>Node70&#45;&gt;Node71</title>
<path fill="none" stroke="#191970" d="M1150.2704,-59.4144C1195.4383,-47.7428 1262.937,-30.3009 1304.487,-19.5643"/>
<polygon fill="#191970" stroke="#191970" points="1149.2327,-56.0675 1140.4264,-61.9581 1150.984,-62.8449 1149.2327,-56.0675"/>
</g>
</g>
</svg>
