<?xml version="1.0" encoding="UTF-8" standalone="no"?>
<!DOCTYPE svg PUBLIC "-//W3C//DTD SVG 1.1//EN"
 "http://www.w3.org/Graphics/SVG/1.1/DTD/svg11.dtd">
<!-- Generated by graphviz version 2.40.1 (20161225.0304)
 -->
<!-- Title: SolidShapes.h Pages: 1 -->
<svg width="1157pt" height="420pt"
 viewBox="0.00 0.00 1156.50 420.00" xmlns="http://www.w3.org/2000/svg" xmlns:xlink="http://www.w3.org/1999/xlink">
<g id="graph0" class="graph" transform="scale(1 1) rotate(0) translate(4 416)">
<title>SolidShapes.h</title>
<!-- Node0 -->
<g id="node1" class="node">
<title>Node0</title>
<polygon fill="#bfbfbf" stroke="#000000" points="175,-392.5 175,-411.5 260,-411.5 260,-392.5 175,-392.5"/>
<text text-anchor="middle" x="217.5" y="-399.5" font-family="FreeSans.ttf" font-size="10.00" fill="#000000">SolidShapes.h</text>
</g>
<!-- Node1 -->
<g id="node2" class="node">
<title>Node1</title>
<polygon fill="none" stroke="#bfbfbf" points="0,-336.5 0,-355.5 49,-355.5 49,-336.5 0,-336.5"/>
<text text-anchor="middle" x="24.5" y="-343.5" font-family="FreeSans.ttf" font-size="10.00" fill="#000000">cstdlib</text>
</g>
<!-- Node0&#45;&gt;Node1 -->
<g id="edge1" class="edge">
<title>Node0&#45;&gt;Node1</title>
<path fill="none" stroke="#191970" d="M184.3221,-392.3733C149.4009,-382.2407 94.6717,-366.3607 59.1909,-356.0658"/>
<polygon fill="#191970" stroke="#191970" points="59.8632,-352.6165 49.284,-353.1912 57.9125,-359.3393 59.8632,-352.6165"/>
</g>
<!-- Node2 -->
<g id="node3" class="node">
<title>Node2</title>
<polygon fill="none" stroke="#bfbfbf" points="275.5,-56.5 275.5,-75.5 319.5,-75.5 319.5,-56.5 275.5,-56.5"/>
<text text-anchor="middle" x="297.5" y="-63.5" font-family="FreeSans.ttf" font-size="10.00" fill="#000000">string</text>
</g>
<!-- Node0&#45;&gt;Node2 -->
<g id="edge2" class="edge">
<title>Node0&#45;&gt;Node2</title>
<path fill="none" stroke="#191970" d="M186.0813,-392.45C144.8046,-377.727 77.5,-345.2492 77.5,-290 77.5,-290 77.5,-290 77.5,-178 77.5,-94.9132 203.6597,-73.4374 264.906,-67.9071"/>
<polygon fill="#191970" stroke="#191970" points="265.5099,-71.3697 275.1945,-67.0735 264.9445,-64.3926 265.5099,-71.3697"/>
</g>
<!-- Node3 -->
<g id="node4" class="node">
<title>Node3</title>
<polygon fill="none" stroke="#bfbfbf" points="468,-336.5 468,-355.5 515,-355.5 515,-336.5 468,-336.5"/>
<text text-anchor="middle" x="491.5" y="-343.5" font-family="FreeSans.ttf" font-size="10.00" fill="#000000">vector</text>
</g>
<!-- Node0&#45;&gt;Node3 -->
<g id="edge3" class="edge">
<title>Node0&#45;&gt;Node3</title>
<path fill="none" stroke="#191970" d="M260.0219,-395.2814C306.3245,-387.6567 382.7148,-374.1781 457.701,-355.9902"/>
<polygon fill="#191970" stroke="#191970" points="458.9135,-359.2965 467.7899,-353.512 457.2436,-352.4986 458.9135,-359.2965"/>
</g>
<!-- Node4 -->
<g id="node5" class="node">
<title>Node4</title>
<g id="a_node5"><a xlink:href="Transform_8h.html" target="_top" xlink:title="iDynTree/Core/Transform.h">
<polygon fill="none" stroke="#000000" points="303.5,-336.5 303.5,-355.5 449.5,-355.5 449.5,-336.5 303.5,-336.5"/>
<text text-anchor="middle" x="376.5" y="-343.5" font-family="FreeSans.ttf" font-size="10.00" fill="#000000">iDynTree/Core/Transform.h</text>
</a>
</g>
</g>
<!-- Node0&#45;&gt;Node4 -->
<g id="edge4" class="edge">
<title>Node0&#45;&gt;Node4</title>
<path fill="none" stroke="#191970" d="M244.8331,-392.3733C271.0434,-383.1419 310.7984,-369.1402 339.7668,-358.9375"/>
<polygon fill="#191970" stroke="#191970" points="341.2542,-362.1244 349.5236,-355.5011 338.9288,-355.5219 341.2542,-362.1244"/>
</g>
<!-- Node4&#45;&gt;Node2 -->
<g id="edge48" class="edge">
<title>Node4&#45;&gt;Node2</title>
<path fill="none" stroke="#191970" d="M331.6325,-336.4393C257.0087,-319.2313 115.5,-280.4731 115.5,-234 115.5,-234 115.5,-234 115.5,-178 115.5,-108.5809 212.726,-80.8067 265.0539,-70.8855"/>
<polygon fill="#191970" stroke="#191970" points="265.9519,-74.2807 275.1832,-69.0814 264.7244,-67.3892 265.9519,-74.2807"/>
</g>
<!-- Node5 -->
<g id="node6" class="node">
<title>Node5</title>
<g id="a_node6"><a xlink:href="Position_8h.html" target="_top" xlink:title="iDynTree/Core/Position.h">
<polygon fill="none" stroke="#000000" points="308.5,-280.5 308.5,-299.5 444.5,-299.5 444.5,-280.5 308.5,-280.5"/>
<text text-anchor="middle" x="376.5" y="-287.5" font-family="FreeSans.ttf" font-size="10.00" fill="#000000">iDynTree/Core/Position.h</text>
</a>
</g>
</g>
<!-- Node4&#45;&gt;Node5 -->
<g id="edge5" class="edge">
<title>Node4&#45;&gt;Node5</title>
<path fill="none" stroke="#191970" d="M376.5,-336.2455C376.5,-328.9382 376.5,-318.6944 376.5,-309.7046"/>
<polygon fill="#191970" stroke="#191970" points="380.0001,-309.6426 376.5,-299.6427 373.0001,-309.6427 380.0001,-309.6426"/>
</g>
<!-- Node22 -->
<g id="node23" class="node">
<title>Node22</title>
<g id="a_node23"><a xlink:href="Rotation_8h.html" target="_top" xlink:title="iDynTree/Core/Rotation.h">
<polygon fill="none" stroke="#000000" points="463,-224.5 463,-243.5 600,-243.5 600,-224.5 463,-224.5"/>
<text text-anchor="middle" x="531.5" y="-231.5" font-family="FreeSans.ttf" font-size="10.00" fill="#000000">iDynTree/Core/Rotation.h</text>
</a>
</g>
</g>
<!-- Node4&#45;&gt;Node22 -->
<g id="edge43" class="edge">
<title>Node4&#45;&gt;Node22</title>
<path fill="none" stroke="#191970" d="M394.4498,-336.379C410.397,-327.5762 434.1147,-313.8505 453.5,-300 475.1772,-284.512 498.2658,-264.4807 513.6489,-250.5676"/>
<polygon fill="#191970" stroke="#191970" points="516.3235,-252.8648 521.3444,-243.5353 511.6014,-247.6974 516.3235,-252.8648"/>
</g>
<!-- Node24 -->
<g id="node25" class="node">
<title>Node24</title>
<g id="a_node25"><a xlink:href="MatrixFixSize_8h.html" target="_top" xlink:title="iDynTree/Core/MatrixFixSize.h">
<polygon fill="none" stroke="#000000" points="964,-112.5 964,-131.5 1125,-131.5 1125,-112.5 964,-112.5"/>
<text text-anchor="middle" x="1044.5" y="-119.5" font-family="FreeSans.ttf" font-size="10.00" fill="#000000">iDynTree/Core/MatrixFixSize.h</text>
</a>
</g>
</g>
<!-- Node4&#45;&gt;Node24 -->
<g id="edge47" class="edge">
<title>Node4&#45;&gt;Node24</title>
<path fill="none" stroke="#191970" d="M417.3435,-336.4484C453.2075,-327.795 506.6593,-314.2501 552.5,-300 727.3918,-245.6329 931.9899,-166.4884 1011.0119,-135.321"/>
<polygon fill="#191970" stroke="#191970" points="1012.4364,-138.5215 1020.4499,-131.5909 1009.8635,-132.0115 1012.4364,-138.5215"/>
</g>
<!-- Node27 -->
<g id="node28" class="node">
<title>Node27</title>
<g id="a_node28"><a xlink:href="TransformSemantics_8h.html" target="_top" xlink:title="iDynTree/Core/TransformSemantics.h">
<polygon fill="none" stroke="#000000" points="570,-112.5 570,-131.5 767,-131.5 767,-112.5 570,-112.5"/>
<text text-anchor="middle" x="668.5" y="-119.5" font-family="FreeSans.ttf" font-size="10.00" fill="#000000">iDynTree/Core/TransformSemantics.h</text>
</a>
</g>
</g>
<!-- Node4&#45;&gt;Node27 -->
<g id="edge44" class="edge">
<title>Node4&#45;&gt;Node27</title>
<path fill="none" stroke="#191970" d="M416.2962,-336.4157C466.1028,-322.7933 551.8542,-293.7909 609.5,-244 641.2676,-216.5611 657.4128,-168.1097 664.2811,-141.2628"/>
<polygon fill="#191970" stroke="#191970" points="667.6921,-142.0471 666.6082,-131.5079 660.8832,-140.4227 667.6921,-142.0471"/>
</g>
<!-- Node5&#45;&gt;Node2 -->
<g id="edge42" class="edge">
<title>Node5&#45;&gt;Node2</title>
<path fill="none" stroke="#191970" d="M373.0429,-280.2951C367.6203,-266.2676 355.9042,-240.2327 338.5,-224 311.7536,-199.0539 283.897,-219.007 264.5,-188 246.5861,-159.3638 254.1588,-144.1558 264.5,-112 267.8946,-101.4445 274.7058,-91.2592 281.2631,-83.1676"/>
<polygon fill="#191970" stroke="#191970" points="283.947,-85.4149 287.8508,-75.5654 278.6569,-80.8307 283.947,-85.4149"/>
</g>
<!-- Node6 -->
<g id="node7" class="node">
<title>Node6</title>
<g id="a_node7"><a xlink:href="PositionRaw_8h.html" target="_top" xlink:title="iDynTree/Core/PositionRaw.h">
<polygon fill="none" stroke="#000000" points="287.5,-168.5 287.5,-187.5 443.5,-187.5 443.5,-168.5 287.5,-168.5"/>
<text text-anchor="middle" x="365.5" y="-175.5" font-family="FreeSans.ttf" font-size="10.00" fill="#000000">iDynTree/Core/PositionRaw.h</text>
</a>
</g>
</g>
<!-- Node5&#45;&gt;Node6 -->
<g id="edge6" class="edge">
<title>Node5&#45;&gt;Node6</title>
<path fill="none" stroke="#191970" d="M375.9203,-280.1452C375.1225,-267.232 373.549,-243.8894 371.5,-224 370.6148,-215.4078 369.4182,-205.9412 368.3265,-197.841"/>
<polygon fill="#191970" stroke="#191970" points="371.7819,-197.2772 366.9419,-187.8525 364.8482,-198.2384 371.7819,-197.2772"/>
</g>
<!-- Node21 -->
<g id="node22" class="node">
<title>Node21</title>
<g id="a_node22"><a xlink:href="PositionSemantics_8h.html" target="_top" xlink:title="iDynTree/Core/PositionSemantics.h">
<polygon fill="none" stroke="#000000" points="143,-224.5 143,-243.5 330,-243.5 330,-224.5 143,-224.5"/>
<text text-anchor="middle" x="236.5" y="-231.5" font-family="FreeSans.ttf" font-size="10.00" fill="#000000">iDynTree/Core/PositionSemantics.h</text>
</a>
</g>
</g>
<!-- Node5&#45;&gt;Node21 -->
<g id="edge25" class="edge">
<title>Node5&#45;&gt;Node21</title>
<path fill="none" stroke="#191970" d="M352.4331,-280.3733C329.6572,-271.2629 295.2656,-257.5062 269.851,-247.3404"/>
<polygon fill="#191970" stroke="#191970" points="270.8375,-243.9654 260.2528,-243.5011 268.2377,-250.4648 270.8375,-243.9654"/>
</g>
<!-- Node5&#45;&gt;Node22 -->
<g id="edge27" class="edge">
<title>Node5&#45;&gt;Node22</title>
<path fill="none" stroke="#191970" d="M403.1454,-280.3733C428.6964,-271.1419 467.4512,-257.1402 495.6909,-246.9375"/>
<polygon fill="#191970" stroke="#191970" points="496.9865,-250.1909 505.2022,-243.5011 494.6079,-243.6074 496.9865,-250.1909"/>
</g>
<!-- Node6&#45;&gt;Node2 -->
<g id="edge24" class="edge">
<title>Node6&#45;&gt;Node2</title>
<path fill="none" stroke="#191970" d="M354.0044,-168.4572C344.2149,-159.8095 330.3655,-146.2679 321.5,-132 312.4621,-117.4546 306.1171,-99.003 302.2307,-85.3097"/>
<polygon fill="#191970" stroke="#191970" points="305.5799,-84.2844 299.6364,-75.5137 298.8131,-86.0765 305.5799,-84.2844"/>
</g>
<!-- Node7 -->
<g id="node8" class="node">
<title>Node7</title>
<g id="a_node8"><a xlink:href="VectorFixSize_8h.html" target="_top" xlink:title="iDynTree/Core/VectorFixSize.h">
<polygon fill="none" stroke="#000000" points="785,-112.5 785,-131.5 946,-131.5 946,-112.5 785,-112.5"/>
<text text-anchor="middle" x="865.5" y="-119.5" font-family="FreeSans.ttf" font-size="10.00" fill="#000000">iDynTree/Core/VectorFixSize.h</text>
</a>
</g>
</g>
<!-- Node6&#45;&gt;Node7 -->
<g id="edge7" class="edge">
<title>Node6&#45;&gt;Node7</title>
<path fill="none" stroke="#191970" d="M443.753,-168.9913C446.706,-168.6558 449.6296,-168.3244 452.5,-168 593.2358,-152.0931 630.8364,-148.2586 774.8707,-132.1807"/>
<polygon fill="#191970" stroke="#191970" points="775.4206,-135.6412 784.9703,-131.0528 774.6436,-128.6844 775.4206,-135.6412"/>
</g>
<!-- Node7&#45;&gt;Node2 -->
<g id="edge20" class="edge">
<title>Node7&#45;&gt;Node2</title>
<path fill="none" stroke="#191970" d="M784.9761,-112.8934C782.1159,-112.5887 779.2837,-112.29 776.5,-112 608.6539,-94.5122 407.4567,-75.982 330.0437,-68.9425"/>
<polygon fill="#191970" stroke="#191970" points="330.2338,-65.4455 319.9582,-68.0268 329.6007,-72.4168 330.2338,-65.4455"/>
</g>
<!-- Node8 -->
<g id="node9" class="node">
<title>Node8</title>
<g id="a_node9"><a xlink:href="Utils_8h.html" target="_top" xlink:title="iDynTree/Core/Utils.h">
<polygon fill="none" stroke="#000000" points="594,-56.5 594,-75.5 713,-75.5 713,-56.5 594,-56.5"/>
<text text-anchor="middle" x="653.5" y="-63.5" font-family="FreeSans.ttf" font-size="10.00" fill="#000000">iDynTree/Core/Utils.h</text>
</a>
</g>
</g>
<!-- Node7&#45;&gt;Node8 -->
<g id="edge8" class="edge">
<title>Node7&#45;&gt;Node8</title>
<path fill="none" stroke="#191970" d="M829.0559,-112.3733C793.1931,-102.9001 738.3122,-88.4032 699.4718,-78.1435"/>
<polygon fill="#191970" stroke="#191970" points="700.0308,-74.6712 689.4685,-75.5011 698.243,-81.439 700.0308,-74.6712"/>
</g>
<!-- Node10 -->
<g id="node11" class="node">
<title>Node10</title>
<g id="a_node11"><a xlink:href="Span_8h.html" target="_top" xlink:title="iDynTree/Core/Span.h">
<polygon fill="none" stroke="#000000" points="731,-56.5 731,-75.5 852,-75.5 852,-56.5 731,-56.5"/>
<text text-anchor="middle" x="791.5" y="-63.5" font-family="FreeSans.ttf" font-size="10.00" fill="#000000">iDynTree/Core/Span.h</text>
</a>
</g>
</g>
<!-- Node7&#45;&gt;Node10 -->
<g id="edge10" class="edge">
<title>Node7&#45;&gt;Node10</title>
<path fill="none" stroke="#191970" d="M852.6102,-112.2455C841.5746,-103.8943 825.4708,-91.7076 812.5647,-81.9408"/>
<polygon fill="#191970" stroke="#191970" points="814.3283,-78.8862 804.2421,-75.6427 810.1041,-84.4681 814.3283,-78.8862"/>
</g>
<!-- Node11 -->
<g id="node12" class="node">
<title>Node11</title>
<polygon fill="none" stroke="#bfbfbf" points="1042.5,-.5 1042.5,-19.5 1094.5,-19.5 1094.5,-.5 1042.5,-.5"/>
<text text-anchor="middle" x="1068.5" y="-7.5" font-family="FreeSans.ttf" font-size="10.00" fill="#000000">cassert</text>
</g>
<!-- Node7&#45;&gt;Node11 -->
<g id="edge22" class="edge">
<title>Node7&#45;&gt;Node11</title>
<path fill="none" stroke="#191970" d="M867.8034,-112.3359C871.7594,-97.8734 881.2412,-70.7284 899.5,-56 945.1545,-19.173 971.4268,-34.7353 1032.4581,-20.086"/>
<polygon fill="#191970" stroke="#191970" points="1033.3355,-23.4744 1042.1393,-17.58 1031.5813,-16.6977 1033.3355,-23.4744"/>
</g>
<!-- Node19 -->
<g id="node20" class="node">
<title>Node19</title>
<polygon fill="none" stroke="#bfbfbf" points="976.5,-56.5 976.5,-75.5 1032.5,-75.5 1032.5,-56.5 976.5,-56.5"/>
<text text-anchor="middle" x="1004.5" y="-63.5" font-family="FreeSans.ttf" font-size="10.00" fill="#000000">sstream</text>
</g>
<!-- Node7&#45;&gt;Node19 -->
<g id="edge21" class="edge">
<title>Node7&#45;&gt;Node19</title>
<path fill="none" stroke="#191970" d="M889.395,-112.3733C912.0082,-103.2629 946.1542,-89.5062 971.3873,-79.3404"/>
<polygon fill="#191970" stroke="#191970" points="972.9493,-82.4845 980.9169,-75.5011 970.3334,-75.9917 972.9493,-82.4845"/>
</g>
<!-- Node20 -->
<g id="node21" class="node">
<title>Node20</title>
<polygon fill="none" stroke="#bfbfbf" points="908.5,-56.5 908.5,-75.5 958.5,-75.5 958.5,-56.5 908.5,-56.5"/>
<text text-anchor="middle" x="933.5" y="-63.5" font-family="FreeSans.ttf" font-size="10.00" fill="#000000">cstring</text>
</g>
<!-- Node7&#45;&gt;Node20 -->
<g id="edge23" class="edge">
<title>Node7&#45;&gt;Node20</title>
<path fill="none" stroke="#191970" d="M877.3447,-112.2455C887.388,-103.9746 901.9995,-91.9416 913.8004,-82.2232"/>
<polygon fill="#191970" stroke="#191970" points="916.2967,-84.7015 921.791,-75.6427 911.8467,-79.298 916.2967,-84.7015"/>
</g>
<!-- Node9 -->
<g id="node10" class="node">
<title>Node9</title>
<polygon fill="none" stroke="#bfbfbf" points="462,-.5 462,-19.5 515,-19.5 515,-.5 462,-.5"/>
<text text-anchor="middle" x="488.5" y="-7.5" font-family="FreeSans.ttf" font-size="10.00" fill="#000000">cstddef</text>
</g>
<!-- Node8&#45;&gt;Node9 -->
<g id="edge9" class="edge">
<title>Node8&#45;&gt;Node9</title>
<path fill="none" stroke="#191970" d="M625.1355,-56.3733C597.4034,-46.9611 555.0596,-32.5899 524.8662,-22.3425"/>
<polygon fill="#191970" stroke="#191970" points="525.7255,-18.9381 515.1311,-19.0384 523.4757,-25.5667 525.7255,-18.9381"/>
</g>
<!-- Node10&#45;&gt;Node9 -->
<g id="edge14" class="edge">
<title>Node10&#45;&gt;Node9</title>
<path fill="none" stroke="#191970" d="M732.2075,-56.4975C670.2597,-46.4513 576.1691,-30.8312 525.0827,-19.913"/>
<polygon fill="#191970" stroke="#191970" points="525.68,-16.4608 515.161,-17.7268 524.1736,-23.2968 525.68,-16.4608"/>
</g>
<!-- Node10&#45;&gt;Node11 -->
<g id="edge11" class="edge">
<title>Node10&#45;&gt;Node11</title>
<path fill="none" stroke="#191970" d="M849.5093,-56.492C896.4215,-48.4577 964.3526,-36.0476 1032.1885,-20.161"/>
<polygon fill="#191970" stroke="#191970" points="1033.2694,-23.502 1042.1939,-17.792 1031.6565,-16.6903 1033.2694,-23.502"/>
</g>
<!-- Node12 -->
<g id="node13" class="node">
<title>Node12</title>
<polygon fill="none" stroke="#bfbfbf" points="900.5,-.5 900.5,-19.5 964.5,-19.5 964.5,-.5 900.5,-.5"/>
<text text-anchor="middle" x="932.5" y="-7.5" font-family="FreeSans.ttf" font-size="10.00" fill="#000000">algorithm</text>
</g>
<!-- Node10&#45;&gt;Node12 -->
<g id="edge12" class="edge">
<title>Node10&#45;&gt;Node12</title>
<path fill="none" stroke="#191970" d="M815.7388,-56.3733C838.7789,-47.2226 873.6214,-33.3844 899.2501,-23.2057"/>
<polygon fill="#191970" stroke="#191970" points="900.5756,-26.4452 908.5775,-19.5011 897.9918,-19.9395 900.5756,-26.4452"/>
</g>
<!-- Node13 -->
<g id="node14" class="node">
<title>Node13</title>
<polygon fill="none" stroke="#bfbfbf" points="982.5,-.5 982.5,-19.5 1024.5,-19.5 1024.5,-.5 982.5,-.5"/>
<text text-anchor="middle" x="1003.5" y="-7.5" font-family="FreeSans.ttf" font-size="10.00" fill="#000000">array</text>
</g>
<!-- Node10&#45;&gt;Node13 -->
<g id="edge13" class="edge">
<title>Node10&#45;&gt;Node13</title>
<path fill="none" stroke="#191970" d="M832.9373,-56.4531C867.8825,-48.1949 919.3969,-35.5388 972.6486,-20.1071"/>
<polygon fill="#191970" stroke="#191970" points="973.6403,-23.4637 982.2561,-17.2978 971.6757,-16.7451 973.6403,-23.4637"/>
</g>
<!-- Node14 -->
<g id="node15" class="node">
<title>Node14</title>
<polygon fill="none" stroke="#bfbfbf" points="533,-.5 533,-19.5 586,-19.5 586,-.5 533,-.5"/>
<text text-anchor="middle" x="559.5" y="-7.5" font-family="FreeSans.ttf" font-size="10.00" fill="#000000">iterator</text>
</g>
<!-- Node10&#45;&gt;Node14 -->
<g id="edge15" class="edge">
<title>Node10&#45;&gt;Node14</title>
<path fill="none" stroke="#191970" d="M748.5552,-56.4463C710.8621,-47.9432 654.3343,-34.9074 595.9664,-20.0457"/>
<polygon fill="#191970" stroke="#191970" points="596.7598,-16.636 586.2042,-17.5472 595.0241,-23.4175 596.7598,-16.636"/>
</g>
<!-- Node15 -->
<g id="node16" class="node">
<title>Node15</title>
<polygon fill="none" stroke="#bfbfbf" points="604.5,-.5 604.5,-19.5 648.5,-19.5 648.5,-.5 604.5,-.5"/>
<text text-anchor="middle" x="626.5" y="-7.5" font-family="FreeSans.ttf" font-size="10.00" fill="#000000">limits</text>
</g>
<!-- Node10&#45;&gt;Node15 -->
<g id="edge16" class="edge">
<title>Node10&#45;&gt;Node15</title>
<path fill="none" stroke="#191970" d="M763.1355,-56.3733C733.9961,-46.4835 688.7244,-31.1186 658.3669,-20.8154"/>
<polygon fill="#191970" stroke="#191970" points="659.2827,-17.4302 648.6884,-17.5306 657.033,-24.0589 659.2827,-17.4302"/>
</g>
<!-- Node16 -->
<g id="node17" class="node">
<title>Node16</title>
<polygon fill="none" stroke="#bfbfbf" points="667,-.5 667,-19.5 732,-19.5 732,-.5 667,-.5"/>
<text text-anchor="middle" x="699.5" y="-7.5" font-family="FreeSans.ttf" font-size="10.00" fill="#000000">stdexcept</text>
</g>
<!-- Node10&#45;&gt;Node16 -->
<g id="edge17" class="edge">
<title>Node10&#45;&gt;Node16</title>
<path fill="none" stroke="#191970" d="M775.4748,-56.2455C761.3592,-47.6534 740.5737,-35.0014 724.3101,-25.1018"/>
<polygon fill="#191970" stroke="#191970" points="725.7034,-21.8525 715.3415,-19.6427 722.0637,-27.8319 725.7034,-21.8525"/>
</g>
<!-- Node17 -->
<g id="node18" class="node">
<title>Node17</title>
<polygon fill="none" stroke="#bfbfbf" points="750,-.5 750,-19.5 819,-19.5 819,-.5 750,-.5"/>
<text text-anchor="middle" x="784.5" y="-7.5" font-family="FreeSans.ttf" font-size="10.00" fill="#000000">type_traits</text>
</g>
<!-- Node10&#45;&gt;Node17 -->
<g id="edge18" class="edge">
<title>Node10&#45;&gt;Node17</title>
<path fill="none" stroke="#191970" d="M790.2807,-56.2455C789.3673,-48.9382 788.0868,-38.6944 786.9631,-29.7046"/>
<polygon fill="#191970" stroke="#191970" points="790.4187,-29.1313 785.7053,-19.6427 783.4728,-29.9996 790.4187,-29.1313"/>
</g>
<!-- Node18 -->
<g id="node19" class="node">
<title>Node18</title>
<polygon fill="none" stroke="#bfbfbf" points="837,-.5 837,-19.5 882,-19.5 882,-.5 837,-.5"/>
<text text-anchor="middle" x="859.5" y="-7.5" font-family="FreeSans.ttf" font-size="10.00" fill="#000000">utility</text>
</g>
<!-- Node10&#45;&gt;Node18 -->
<g id="edge19" class="edge">
<title>Node10&#45;&gt;Node18</title>
<path fill="none" stroke="#191970" d="M803.3447,-56.2455C813.388,-47.9746 827.9995,-35.9416 839.8004,-26.2232"/>
<polygon fill="#191970" stroke="#191970" points="842.2967,-28.7015 847.791,-19.6427 837.8467,-23.298 842.2967,-28.7015"/>
</g>
<!-- Node21&#45;&gt;Node2 -->
<g id="edge26" class="edge">
<title>Node21&#45;&gt;Node2</title>
<path fill="none" stroke="#191970" d="M228.0023,-224.2186C220.9597,-215.4179 211.4829,-201.786 207.5,-188 198.1248,-155.5494 189.8693,-140.8114 207.5,-112 220.0366,-91.5132 244.8957,-79.7836 265.3165,-73.3035"/>
<polygon fill="#191970" stroke="#191970" points="266.5673,-76.5855 275.2059,-70.4516 264.6276,-69.8595 266.5673,-76.5855"/>
</g>
<!-- Node22&#45;&gt;Node2 -->
<g id="edge28" class="edge">
<title>Node22&#45;&gt;Node2</title>
<path fill="none" stroke="#191970" d="M462.9699,-231.1375C396.2433,-226.7409 301.5988,-215.6773 278.5,-188 253.8983,-158.5219 273.0245,-110.5693 286.7315,-84.4255"/>
<polygon fill="#191970" stroke="#191970" points="289.8572,-86.0051 291.617,-75.5574 283.726,-82.6273 289.8572,-86.0051"/>
</g>
<!-- Node22&#45;&gt;Node7 -->
<g id="edge41" class="edge">
<title>Node22&#45;&gt;Node7</title>
<path fill="none" stroke="#191970" d="M559.9767,-224.4509C619.9975,-204.3242 759.5256,-157.5363 827.2532,-134.8253"/>
<polygon fill="#191970" stroke="#191970" points="828.7271,-138.0227 837.0954,-131.5249 826.5015,-131.3859 828.7271,-138.0227"/>
</g>
<!-- Node23 -->
<g id="node24" class="node">
<title>Node23</title>
<g id="a_node24"><a xlink:href="RotationRaw_8h.html" target="_top" xlink:title="iDynTree/Core/RotationRaw.h">
<polygon fill="none" stroke="#000000" points="461.5,-168.5 461.5,-187.5 619.5,-187.5 619.5,-168.5 461.5,-168.5"/>
<text text-anchor="middle" x="540.5" y="-175.5" font-family="FreeSans.ttf" font-size="10.00" fill="#000000">iDynTree/Core/RotationRaw.h</text>
</a>
</g>
</g>
<!-- Node22&#45;&gt;Node23 -->
<g id="edge29" class="edge">
<title>Node22&#45;&gt;Node23</title>
<path fill="none" stroke="#191970" d="M533.0677,-224.2455C534.2421,-216.9382 535.8884,-206.6944 537.3332,-197.7046"/>
<polygon fill="#191970" stroke="#191970" points="540.8191,-198.0714 538.9503,-187.6427 533.9078,-196.9606 540.8191,-198.0714"/>
</g>
<!-- Node26 -->
<g id="node27" class="node">
<title>Node26</title>
<g id="a_node27"><a xlink:href="RotationSemantics_8h.html" target="_top" xlink:title="iDynTree/Core/RotationSemantics.h">
<polygon fill="none" stroke="#000000" points="363.5,-112.5 363.5,-131.5 551.5,-131.5 551.5,-112.5 363.5,-112.5"/>
<text text-anchor="middle" x="457.5" y="-119.5" font-family="FreeSans.ttf" font-size="10.00" fill="#000000">iDynTree/Core/RotationSemantics.h</text>
</a>
</g>
</g>
<!-- Node22&#45;&gt;Node26 -->
<g id="edge38" class="edge">
<title>Node22&#45;&gt;Node26</title>
<path fill="none" stroke="#191970" d="M569.2501,-224.4319C604.3985,-213.662 648.5747,-194.1885 628.5,-168 616.6031,-152.4798 574.3007,-141.025 534.7508,-133.4279"/>
<polygon fill="#191970" stroke="#191970" points="535.2456,-129.9601 524.7753,-131.5794 533.9702,-136.8429 535.2456,-129.9601"/>
</g>
<!-- Node23&#45;&gt;Node2 -->
<g id="edge37" class="edge">
<title>Node23&#45;&gt;Node2</title>
<path fill="none" stroke="#191970" d="M461.2162,-169.3802C426.5312,-162.9281 386.5368,-151.6614 354.5,-132 335.0516,-120.0642 318.7461,-99.3058 308.624,-84.2504"/>
<polygon fill="#191970" stroke="#191970" points="311.5035,-82.2572 303.1478,-75.7432 305.6175,-86.0461 311.5035,-82.2572"/>
</g>
<!-- Node23&#45;&gt;Node24 -->
<g id="edge30" class="edge">
<title>Node23&#45;&gt;Node24</title>
<path fill="none" stroke="#191970" d="M619.6758,-169.2595C700.9036,-160.2844 831.2437,-145.8603 953.6657,-132.2036"/>
<polygon fill="#191970" stroke="#191970" points="954.4202,-135.6412 963.9704,-131.0537 953.6439,-128.6843 954.4202,-135.6412"/>
</g>
<!-- Node24&#45;&gt;Node2 -->
<g id="edge34" class="edge">
<title>Node24&#45;&gt;Node2</title>
<path fill="none" stroke="#191970" d="M963.9852,-112.7997C961.1225,-112.5215 958.2872,-112.2539 955.5,-112 715.5637,-90.1434 425.5776,-73.1426 329.8666,-67.7787"/>
<polygon fill="#191970" stroke="#191970" points="329.8597,-64.273 319.6803,-67.2108 329.4699,-71.2621 329.8597,-64.273"/>
</g>
<!-- Node24&#45;&gt;Node8 -->
<g id="edge31" class="edge">
<title>Node24&#45;&gt;Node8</title>
<path fill="none" stroke="#191970" d="M977.5816,-112.4806C914.675,-103.5226 817.5883,-89.6738 723.3327,-76.1177"/>
<polygon fill="#191970" stroke="#191970" points="723.7346,-72.6395 713.338,-74.6798 722.7377,-79.5682 723.7346,-72.6395"/>
</g>
<!-- Node24&#45;&gt;Node11 -->
<g id="edge32" class="edge">
<title>Node24&#45;&gt;Node11</title>
<path fill="none" stroke="#191970" d="M1046.5462,-112.4509C1050.4783,-94.1013 1059.1591,-53.5908 1064.3494,-29.3693"/>
<polygon fill="#191970" stroke="#191970" points="1067.7859,-30.0363 1066.459,-19.5249 1060.9413,-28.5695 1067.7859,-30.0363"/>
</g>
<!-- Node24&#45;&gt;Node19 -->
<g id="edge36" class="edge">
<title>Node24&#45;&gt;Node19</title>
<path fill="none" stroke="#191970" d="M1037.5325,-112.2455C1031.9689,-104.4564 1024.022,-93.3308 1017.3171,-83.9439"/>
<polygon fill="#191970" stroke="#191970" points="1020.0481,-81.7457 1011.3876,-75.6427 1014.352,-85.8144 1020.0481,-81.7457"/>
</g>
<!-- Node24&#45;&gt;Node20 -->
<g id="edge33" class="edge">
<title>Node24&#45;&gt;Node20</title>
<path fill="none" stroke="#191970" d="M1025.4184,-112.3733C1007.7598,-103.4644 981.2947,-90.1127 961.2902,-80.0203"/>
<polygon fill="#191970" stroke="#191970" points="962.8372,-76.8806 952.3326,-75.5011 959.6842,-83.1303 962.8372,-76.8806"/>
</g>
<!-- Node25 -->
<g id="node26" class="node">
<title>Node25</title>
<polygon fill="none" stroke="#bfbfbf" points="1088.5,-56.5 1088.5,-75.5 1148.5,-75.5 1148.5,-56.5 1088.5,-56.5"/>
<text text-anchor="middle" x="1118.5" y="-63.5" font-family="FreeSans.ttf" font-size="10.00" fill="#000000">iostream</text>
</g>
<!-- Node24&#45;&gt;Node25 -->
<g id="edge35" class="edge">
<title>Node24&#45;&gt;Node25</title>
<path fill="none" stroke="#191970" d="M1057.3898,-112.2455C1068.4254,-103.8943 1084.5292,-91.7076 1097.4353,-81.9408"/>
<polygon fill="#191970" stroke="#191970" points="1099.8959,-84.4681 1105.7579,-75.6427 1095.6717,-78.8862 1099.8959,-84.4681"/>
</g>
<!-- Node26&#45;&gt;Node2 -->
<g id="edge39" class="edge">
<title>Node26&#45;&gt;Node2</title>
<path fill="none" stroke="#191970" d="M429.995,-112.3733C402.0213,-102.5825 358.7157,-87.4255 329.2891,-77.1262"/>
<polygon fill="#191970" stroke="#191970" points="330.1021,-73.7026 319.5073,-73.7026 327.7896,-80.3096 330.1021,-73.7026"/>
</g>
<!-- Node26&#45;&gt;Node8 -->
<g id="edge40" class="edge">
<title>Node26&#45;&gt;Node8</title>
<path fill="none" stroke="#191970" d="M491.1936,-112.3733C524.2087,-102.9404 574.6573,-88.5265 610.5386,-78.2747"/>
<polygon fill="#191970" stroke="#191970" points="611.5924,-81.6137 620.2461,-75.5011 609.6693,-74.8831 611.5924,-81.6137"/>
</g>
<!-- Node27&#45;&gt;Node2 -->
<g id="edge45" class="edge">
<title>Node27&#45;&gt;Node2</title>
<path fill="none" stroke="#191970" d="M605.1444,-112.4369C525.2933,-100.3839 391.084,-80.1259 329.7895,-70.8739"/>
<polygon fill="#191970" stroke="#191970" points="329.9754,-67.3624 319.565,-69.3306 328.9306,-74.284 329.9754,-67.3624"/>
</g>
<!-- Node27&#45;&gt;Node8 -->
<g id="edge46" class="edge">
<title>Node27&#45;&gt;Node8</title>
<path fill="none" stroke="#191970" d="M665.8872,-112.2455C663.9084,-104.8579 661.1256,-94.4689 658.6988,-85.4087"/>
<polygon fill="#191970" stroke="#191970" points="662.0511,-84.3966 656.0829,-75.6427 655.2895,-86.2078 662.0511,-84.3966"/>
</g>
</g>
</svg>
