<?xml version="1.0" encoding="UTF-8" standalone="no"?>
<!DOCTYPE svg PUBLIC "-//W3C//DTD SVG 1.1//EN"
 "http://www.w3.org/Graphics/SVG/1.1/DTD/svg11.dtd">
<!-- Generated by graphviz version 2.40.1 (20161225.0304)
 -->
<!-- Title: Span.h Pages: 1 -->
<svg width="3995pt" height="319pt"
 viewBox="0.00 0.00 3995.23 319.00" xmlns="http://www.w3.org/2000/svg" xmlns:xlink="http://www.w3.org/1999/xlink">
<g id="graph0" class="graph" transform="scale(1 1) rotate(0) translate(4 315)">
<title>Span.h</title>
<!-- Node10 -->
<g id="node1" class="node">
<title>Node10</title>
<polygon fill="#bfbfbf" stroke="#000000" points="1899.7337,-291.5 1899.7337,-310.5 1949.7337,-310.5 1949.7337,-291.5 1899.7337,-291.5"/>
<text text-anchor="middle" x="1924.7337" y="-298.5" font-family="FreeSans.ttf" font-size="10.00" fill="#000000">Span.h</text>
</g>
<!-- Node11 -->
<g id="node2" class="node">
<title>Node11</title>
<g id="a_node2"><a xlink:href="VectorDynSize_8h.html" target="_top" xlink:title="VectorDynSize.h">
<polygon fill="none" stroke="#000000" points="1876.7337,-235.5 1876.7337,-254.5 1972.7337,-254.5 1972.7337,-235.5 1876.7337,-235.5"/>
<text text-anchor="middle" x="1924.7337" y="-242.5" font-family="FreeSans.ttf" font-size="10.00" fill="#000000">VectorDynSize.h</text>
</a>
</g>
</g>
<!-- Node10&#45;&gt;Node11 -->
<g id="edge1" class="edge">
<title>Node10&#45;&gt;Node11</title>
<path fill="none" stroke="#191970" d="M1924.7337,-281.1575C1924.7337,-272.155 1924.7337,-261.9199 1924.7337,-254.6427"/>
<polygon fill="#191970" stroke="#191970" points="1921.2338,-281.2455 1924.7337,-291.2455 1928.2338,-281.2456 1921.2338,-281.2455"/>
</g>
<!-- Node66 -->
<g id="node14" class="node">
<title>Node66</title>
<g id="a_node14"><a xlink:href="L2NormCost_8cpp.html" target="_top" xlink:title="L2NormCost.cpp">
<polygon fill="none" stroke="#000000" points="3480.2337,-118 3480.2337,-137 3577.2337,-137 3577.2337,-118 3480.2337,-118"/>
<text text-anchor="middle" x="3528.7337" y="-125" font-family="FreeSans.ttf" font-size="10.00" fill="#000000">L2NormCost.cpp</text>
</a>
</g>
</g>
<!-- Node10&#45;&gt;Node66 -->
<g id="edge100" class="edge">
<title>Node10&#45;&gt;Node66</title>
<path fill="none" stroke="#191970" d="M1960.0799,-300.1536C2193.3453,-294.4011 3503.9365,-259.4487 3560.7337,-199 3577.6823,-180.9618 3554.3583,-152.4332 3539.4579,-137.4474"/>
<polygon fill="#191970" stroke="#191970" points="1959.7069,-296.6616 1949.7956,-300.4054 1959.8783,-303.6595 1959.7069,-296.6616"/>
</g>
<!-- Node220 -->
<g id="node48" class="node">
<title>Node220</title>
<g id="a_node48"><a xlink:href="VectorFixSize_8h.html" target="_top" xlink:title="VectorFixSize.h">
<polygon fill="none" stroke="#ff0000" points="245.7337,-235.5 245.7337,-254.5 335.7337,-254.5 335.7337,-235.5 245.7337,-235.5"/>
<text text-anchor="middle" x="290.7337" y="-242.5" font-family="FreeSans.ttf" font-size="10.00" fill="#000000">VectorFixSize.h</text>
</a>
</g>
</g>
<!-- Node10&#45;&gt;Node220 -->
<g id="edge84" class="edge">
<title>Node10&#45;&gt;Node220</title>
<path fill="none" stroke="#191970" d="M1889.4868,-299.792C1677.5991,-292.5303 574.2838,-254.7178 336.093,-246.5545"/>
<polygon fill="#191970" stroke="#191970" points="1889.6073,-303.2981 1899.7213,-300.1428 1889.8471,-296.3022 1889.6073,-303.2981"/>
</g>
<!-- Node12 -->
<g id="node3" class="node">
<title>Node12</title>
<g id="a_node3"><a xlink:href="CubicSpline_8h.html" target="_top" xlink:title="CubicSpline.h">
<polygon fill="none" stroke="#ff0000" points="319.2337,-179.5 319.2337,-198.5 402.2337,-198.5 402.2337,-179.5 319.2337,-179.5"/>
<text text-anchor="middle" x="360.7337" y="-186.5" font-family="FreeSans.ttf" font-size="10.00" fill="#000000">CubicSpline.h</text>
</a>
</g>
</g>
<!-- Node11&#45;&gt;Node12 -->
<g id="edge2" class="edge">
<title>Node11&#45;&gt;Node12</title>
<path fill="none" stroke="#191970" d="M1866.3403,-244.3612C1625.1288,-241.5459 705.5287,-229.0272 416.7337,-199 412.1169,-198.52 407.3077,-197.8791 402.5325,-197.1527"/>
<polygon fill="#191970" stroke="#191970" points="1866.6041,-247.8644 1876.6439,-244.4803 1866.6851,-240.8648 1866.6041,-247.8644"/>
</g>
<!-- Node14 -->
<g id="node4" class="node">
<title>Node14</title>
<g id="a_node4"><a xlink:href="EigenHelpers_8h.html" target="_top" xlink:title="EigenHelpers.h">
<polygon fill="none" stroke="#ff0000" points="1654.7337,-179.5 1654.7337,-198.5 1744.7337,-198.5 1744.7337,-179.5 1654.7337,-179.5"/>
<text text-anchor="middle" x="1699.7337" y="-186.5" font-family="FreeSans.ttf" font-size="10.00" fill="#000000">EigenHelpers.h</text>
</a>
</g>
</g>
<!-- Node11&#45;&gt;Node14 -->
<g id="edge3" class="edge">
<title>Node11&#45;&gt;Node14</title>
<path fill="none" stroke="#191970" d="M1876.4471,-232.982C1835.0476,-222.6781 1776.2058,-208.0331 1737.9985,-198.5237"/>
<polygon fill="#191970" stroke="#191970" points="1875.7612,-236.418 1886.3105,-235.4369 1877.4519,-229.6252 1875.7612,-236.418"/>
</g>
<!-- Node34 -->
<g id="node5" class="node">
<title>Node34</title>
<g id="a_node5"><a xlink:href="ExtendedKalmanFilter_8h.html" target="_top" xlink:title="ExtendedKalmanFilter.h">
<polygon fill="none" stroke="#ff0000" points="1803.7337,-118 1803.7337,-137 1935.7337,-137 1935.7337,-118 1803.7337,-118"/>
<text text-anchor="middle" x="1869.7337" y="-125" font-family="FreeSans.ttf" font-size="10.00" fill="#000000">ExtendedKalmanFilter.h</text>
</a>
</g>
</g>
<!-- Node11&#45;&gt;Node34 -->
<g id="edge24" class="edge">
<title>Node11&#45;&gt;Node34</title>
<path fill="none" stroke="#191970" d="M1872.9899,-232.8592C1841.651,-224.3415 1805.9878,-212.1591 1796.7337,-199 1778.9774,-173.7508 1819.0828,-149.7935 1846.5971,-137.0364"/>
<polygon fill="#191970" stroke="#191970" points="1872.4119,-236.3264 1882.9739,-235.4925 1874.1972,-229.5578 1872.4119,-236.3264"/>
</g>
<!-- Node39 -->
<g id="node6" class="node">
<title>Node39</title>
<g id="a_node6"><a xlink:href="KalmanFilter_8h.html" target="_top" xlink:title="KalmanFilter.h">
<polygon fill="none" stroke="#ff0000" points="2199.7337,-118 2199.7337,-137 2285.7337,-137 2285.7337,-118 2199.7337,-118"/>
<text text-anchor="middle" x="2242.7337" y="-125" font-family="FreeSans.ttf" font-size="10.00" fill="#000000">KalmanFilter.h</text>
</a>
</g>
</g>
<!-- Node11&#45;&gt;Node39 -->
<g id="edge26" class="edge">
<title>Node11&#45;&gt;Node39</title>
<path fill="none" stroke="#191970" d="M1912.982,-226.1019C1905.6016,-211.569 1899.4192,-191.8624 1910.7337,-179 1952.1688,-131.8965 2129.3616,-156.0028 2190.7337,-143 2198.2906,-141.3989 2206.3416,-139.2332 2213.7948,-137.0289"/>
<polygon fill="#191970" stroke="#191970" points="1910.1358,-228.1818 1918.0827,-235.1888 1916.2399,-224.7554 1910.1358,-228.1818"/>
</g>
<!-- Node42 -->
<g id="node7" class="node">
<title>Node42</title>
<g id="a_node7"><a xlink:href="BerdySparseMAPSolver_8cpp.html" target="_top" xlink:title="BerdySparseMAPSolver.cpp">
<polygon fill="none" stroke="#000000" points="515.2337,-.5 515.2337,-19.5 664.2337,-19.5 664.2337,-.5 515.2337,-.5"/>
<text text-anchor="middle" x="589.7337" y="-7.5" font-family="FreeSans.ttf" font-size="10.00" fill="#000000">BerdySparseMAPSolver.cpp</text>
</a>
</g>
</g>
<!-- Node11&#45;&gt;Node42 -->
<g id="edge27" class="edge">
<title>Node11&#45;&gt;Node42</title>
<path fill="none" stroke="#191970" d="M1866.1283,-244.6666C1634.1406,-243.0992 787.1822,-234.9457 672.7337,-199 661.7659,-195.5552 594.139,-150.8429 585.7337,-143 558.5677,-117.6514 547.4412,-111.263 535.7337,-76 532.9329,-67.5639 532.0071,-64.07 535.7337,-56 543.1171,-40.0115 559.1013,-27.5319 571.7738,-19.6299"/>
<polygon fill="#191970" stroke="#191970" points="1866.3612,-248.1681 1876.3841,-244.7343 1866.4074,-241.1683 1866.3612,-248.1681"/>
</g>
<!-- Node46 -->
<g id="node8" class="node">
<title>Node46</title>
<g id="a_node8"><a xlink:href="KinDynComputations_8cpp.html" target="_top" xlink:title="KinDynComputations.cpp">
<polygon fill="none" stroke="#000000" points="2159.7337,-56.5 2159.7337,-75.5 2299.7337,-75.5 2299.7337,-56.5 2159.7337,-56.5"/>
<text text-anchor="middle" x="2229.7337" y="-63.5" font-family="FreeSans.ttf" font-size="10.00" fill="#000000">KinDynComputations.cpp</text>
</a>
</g>
</g>
<!-- Node11&#45;&gt;Node46 -->
<g id="edge28" class="edge">
<title>Node11&#45;&gt;Node46</title>
<path fill="none" stroke="#191970" d="M1961.2406,-231.8251C1983.6958,-223.31 2012.8402,-211.5116 2037.7337,-199 2053.0572,-191.2984 2054.4518,-184.3873 2070.7337,-179 2151.4727,-152.2855 2394.497,-205.8999 2451.7337,-143 2461.0065,-132.8097 2460.4318,-122.6851 2451.7337,-112 2432.7867,-88.7245 2357.6339,-76.8559 2299.9628,-71.0636"/>
<polygon fill="#191970" stroke="#191970" points="1959.8835,-228.5959 1951.7466,-235.3813 1962.3389,-235.1511 1959.8835,-228.5959"/>
</g>
<!-- Node57 -->
<g id="node9" class="node">
<title>Node57</title>
<g id="a_node9"><a xlink:href="Model_8cpp.html" target="_top" xlink:title="Model.cpp">
<polygon fill="none" stroke="#000000" points="1355.7337,-118 1355.7337,-137 1421.7337,-137 1421.7337,-118 1355.7337,-118"/>
<text text-anchor="middle" x="1388.7337" y="-125" font-family="FreeSans.ttf" font-size="10.00" fill="#000000">Model.cpp</text>
</a>
</g>
</g>
<!-- Node11&#45;&gt;Node57 -->
<g id="edge42" class="edge">
<title>Node11&#45;&gt;Node57</title>
<path fill="none" stroke="#191970" d="M1866.162,-241.4189C1796.3653,-236.2012 1676.6314,-224.2341 1576.7337,-199 1513.7611,-183.0931 1443.0517,-152.5566 1409.0908,-137.0462"/>
<polygon fill="#191970" stroke="#191970" points="1866.2795,-244.9366 1876.5067,-242.17 1866.7865,-237.9549 1866.2795,-244.9366"/>
</g>
<!-- Node59 -->
<g id="node10" class="node">
<title>Node59</title>
<g id="a_node10"><a xlink:href="AlglibInterface_8cpp.html" target="_top" xlink:title="AlglibInterface.cpp">
<polygon fill="none" stroke="#000000" points="1439.7337,-118 1439.7337,-137 1547.7337,-137 1547.7337,-118 1439.7337,-118"/>
<text text-anchor="middle" x="1493.7337" y="-125" font-family="FreeSans.ttf" font-size="10.00" fill="#000000">AlglibInterface.cpp</text>
</a>
</g>
</g>
<!-- Node11&#45;&gt;Node59 -->
<g id="edge62" class="edge">
<title>Node11&#45;&gt;Node59</title>
<path fill="none" stroke="#191970" d="M1866.3675,-241.8537C1805.2688,-237.2182 1707.2078,-225.9554 1626.7337,-199 1580.4978,-183.513 1531.2387,-152.7862 1507.7571,-137.1404"/>
<polygon fill="#191970" stroke="#191970" points="1866.3631,-245.3624 1876.5897,-242.5934 1866.8684,-238.3807 1866.3631,-245.3624"/>
</g>
<!-- Node60 -->
<g id="node11" class="node">
<title>Node60</title>
<g id="a_node11"><a xlink:href="ConstraintsGroup_8cpp.html" target="_top" xlink:title="ConstraintsGroup.cpp">
<polygon fill="none" stroke="#000000" points="2303.7337,-118 2303.7337,-137 2425.7337,-137 2425.7337,-118 2303.7337,-118"/>
<text text-anchor="middle" x="2364.7337" y="-125" font-family="FreeSans.ttf" font-size="10.00" fill="#000000">ConstraintsGroup.cpp</text>
</a>
</g>
</g>
<!-- Node11&#45;&gt;Node60 -->
<g id="edge63" class="edge">
<title>Node11&#45;&gt;Node60</title>
<path fill="none" stroke="#191970" d="M1924.8703,-224.8C1926.1338,-209.7993 1930.4667,-190.0922 1943.7337,-179 2003.8883,-128.7065 2217.3268,-155.4966 2294.7337,-143 2304.687,-141.3931 2315.3497,-139.2514 2325.2763,-137.074"/>
<polygon fill="#191970" stroke="#191970" points="1921.3585,-224.9859 1924.4053,-235.1332 1928.3514,-225.3007 1921.3585,-224.9859"/>
</g>
<!-- Node62 -->
<g id="node12" class="node">
<title>Node62</title>
<g id="a_node12"><a xlink:href="ForwardEuler_8cpp.html" target="_top" xlink:title="ForwardEuler.cpp">
<polygon fill="none" stroke="#000000" points="2519.7337,-118 2519.7337,-137 2619.7337,-137 2619.7337,-118 2519.7337,-118"/>
<text text-anchor="middle" x="2569.7337" y="-125" font-family="FreeSans.ttf" font-size="10.00" fill="#000000">ForwardEuler.cpp</text>
</a>
</g>
</g>
<!-- Node11&#45;&gt;Node62 -->
<g id="edge64" class="edge">
<title>Node11&#45;&gt;Node62</title>
<path fill="none" stroke="#191970" d="M1968.9606,-232.5876C1998.1632,-224.0208 2037.1026,-211.8869 2070.7337,-199 2090.7925,-191.3138 2093.9704,-184.5061 2114.7337,-179 2283.4161,-134.2677 2333.5829,-171.6146 2505.7337,-143 2515.0941,-141.4441 2525.1124,-139.2678 2534.3781,-137.0369"/>
<polygon fill="#191970" stroke="#191970" points="1967.688,-229.3126 1959.0621,-235.4644 1969.6416,-236.0344 1967.688,-229.3126"/>
</g>
<!-- Node65 -->
<g id="node13" class="node">
<title>Node65</title>
<g id="a_node13"><a xlink:href="IpoptInterface_8cpp.html" target="_top" xlink:title="IpoptInterface.cpp">
<polygon fill="none" stroke="#000000" points="1566.2337,-118 1566.2337,-137 1671.2337,-137 1671.2337,-118 1566.2337,-118"/>
<text text-anchor="middle" x="1618.7337" y="-125" font-family="FreeSans.ttf" font-size="10.00" fill="#000000">IpoptInterface.cpp</text>
</a>
</g>
</g>
<!-- Node11&#45;&gt;Node65 -->
<g id="edge65" class="edge">
<title>Node11&#45;&gt;Node65</title>
<path fill="none" stroke="#191970" d="M1866.4108,-242.1363C1794.7529,-237.4923 1678.6204,-225.9532 1645.7337,-199 1626.6456,-183.3558 1621.0418,-152.7002 1619.4044,-137.1051"/>
<polygon fill="#191970" stroke="#191970" points="1866.4474,-245.6452 1876.6453,-242.7724 1866.8818,-238.6587 1866.4474,-245.6452"/>
</g>
<!-- Node11&#45;&gt;Node66 -->
<g id="edge66" class="edge">
<title>Node11&#45;&gt;Node66</title>
<path fill="none" stroke="#191970" d="M1983.3538,-244.4435C2270.5029,-241.5817 3515.9952,-227.5378 3543.7337,-199 3559.9998,-182.2652 3545.1344,-152.6497 3535.4859,-137.3147"/>
<polygon fill="#191970" stroke="#191970" points="1983.1162,-240.9456 1973.1513,-244.5445 1983.1855,-247.9453 1983.1162,-240.9456"/>
</g>
<!-- Node68 -->
<g id="node15" class="node">
<title>Node68</title>
<g id="a_node15"><a xlink:href="LinearSystem_8cpp.html" target="_top" xlink:title="LinearSystem.cpp">
<polygon fill="none" stroke="#000000" points="1953.7337,-118 1953.7337,-137 2057.7337,-137 2057.7337,-118 1953.7337,-118"/>
<text text-anchor="middle" x="2005.7337" y="-125" font-family="FreeSans.ttf" font-size="10.00" fill="#000000">LinearSystem.cpp</text>
</a>
</g>
</g>
<!-- Node11&#45;&gt;Node68 -->
<g id="edge67" class="edge">
<title>Node11&#45;&gt;Node68</title>
<path fill="none" stroke="#191970" d="M1881.0517,-231.957C1850.3745,-220.4752 1817.6299,-202.0138 1834.7337,-179 1838.8834,-173.4165 1921.2846,-150.3434 1970.1616,-137.0522"/>
<polygon fill="#191970" stroke="#191970" points="1880.2787,-235.3962 1890.8734,-235.4365 1882.6163,-228.798 1880.2787,-235.3962"/>
</g>
<!-- Node69 -->
<g id="node16" class="node">
<title>Node69</title>
<g id="a_node16"><a xlink:href="MultipleShootingSolver_8cpp.html" target="_top" xlink:title="MultipleShootingSolver.cpp">
<polygon fill="none" stroke="#000000" points="2675.2337,-118 2675.2337,-137 2824.2337,-137 2824.2337,-118 2675.2337,-118"/>
<text text-anchor="middle" x="2749.7337" y="-125" font-family="FreeSans.ttf" font-size="10.00" fill="#000000">MultipleShootingSolver.cpp</text>
</a>
</g>
</g>
<!-- Node11&#45;&gt;Node69 -->
<g id="edge68" class="edge">
<title>Node11&#45;&gt;Node69</title>
<path fill="none" stroke="#191970" d="M1982.9223,-241.1434C2080.6869,-234.2284 2273.6056,-218.5951 2338.7337,-199 2357.3874,-193.3877 2359.1455,-184.8253 2377.7337,-179 2492.4151,-143.0607 2526.7411,-159.8584 2645.7337,-143 2659.0185,-141.1179 2673.2478,-139.0388 2686.7842,-137.031"/>
<polygon fill="#191970" stroke="#191970" points="1982.6413,-237.6544 1972.9103,-241.8445 1983.1304,-244.6373 1982.6413,-237.6544"/>
</g>
<!-- Node70 -->
<g id="node17" class="node">
<title>Node70</title>
<g id="a_node17"><a xlink:href="OptimalControlProblem_8cpp.html" target="_top" xlink:title="OptimalControlProblem.cpp">
<polygon fill="none" stroke="#000000" points="1727.7337,-56.5 1727.7337,-75.5 1879.7337,-75.5 1879.7337,-56.5 1727.7337,-56.5"/>
<text text-anchor="middle" x="1803.7337" y="-63.5" font-family="FreeSans.ttf" font-size="10.00" fill="#000000">OptimalControlProblem.cpp</text>
</a>
</g>
</g>
<!-- Node11&#45;&gt;Node70 -->
<g id="edge69" class="edge">
<title>Node11&#45;&gt;Node70</title>
<path fill="none" stroke="#191970" d="M1866.6178,-244.0061C1672.086,-240.4471 1044.7809,-227.0316 844.7337,-199 818.3652,-195.3051 628.2152,-163.912 611.7337,-143 603.2053,-132.179 602.181,-121.9284 611.7337,-112 631.1295,-91.8413 1467.36,-72.9341 1727.3948,-67.5332"/>
<polygon fill="#191970" stroke="#191970" points="1866.5774,-247.5059 1876.6392,-244.1877 1866.7043,-240.507 1866.5774,-247.5059"/>
</g>
<!-- Node71 -->
<g id="node18" class="node">
<title>Node71</title>
<g id="a_node18"><a xlink:href="OsqpInterface_8cpp.html" target="_top" xlink:title="OsqpInterface.cpp">
<polygon fill="none" stroke="#000000" points="2076.2337,-118 2076.2337,-137 2181.2337,-137 2181.2337,-118 2076.2337,-118"/>
<text text-anchor="middle" x="2128.7337" y="-125" font-family="FreeSans.ttf" font-size="10.00" fill="#000000">OsqpInterface.cpp</text>
</a>
</g>
</g>
<!-- Node11&#45;&gt;Node71 -->
<g id="edge72" class="edge">
<title>Node11&#45;&gt;Node71</title>
<path fill="none" stroke="#191970" d="M1899.4436,-229.9618C1879.9126,-216.4668 1858.4349,-196.1963 1872.7337,-179 1900.7675,-145.2854 2023.8889,-152.3216 2066.7337,-143 2074.9733,-141.2073 2083.785,-139.113 2092.1029,-137.054"/>
<polygon fill="#191970" stroke="#191970" points="1897.5808,-232.9257 1907.8642,-235.4759 1901.4156,-227.0695 1897.5808,-232.9257"/>
</g>
<!-- Node80 -->
<g id="node19" class="node">
<title>Node80</title>
<g id="a_node19"><a xlink:href="InertialParametersSolidShapesHelpers_8cpp.html" target="_top" xlink:title="InertialParametersSolidShapes\lHelpers.cpp">
<polygon fill="none" stroke="#000000" points="620.7337,-112.5 620.7337,-142.5 786.7337,-142.5 786.7337,-112.5 620.7337,-112.5"/>
<text text-anchor="start" x="628.7337" y="-130.5" font-family="FreeSans.ttf" font-size="10.00" fill="#000000">InertialParametersSolidShapes</text>
<text text-anchor="middle" x="703.7337" y="-119.5" font-family="FreeSans.ttf" font-size="10.00" fill="#000000">Helpers.cpp</text>
</a>
</g>
</g>
<!-- Node11&#45;&gt;Node80 -->
<g id="edge80" class="edge">
<title>Node11&#45;&gt;Node80</title>
<path fill="none" stroke="#191970" d="M1866.6237,-244.2697C1682.4397,-241.6463 1113.1167,-231.0864 931.7337,-199 862.9018,-186.8237 785.9039,-159.7003 741.3099,-142.5814"/>
<polygon fill="#191970" stroke="#191970" points="1866.6038,-247.7696 1876.6518,-244.41 1866.7018,-240.7703 1866.6038,-247.7696"/>
</g>
<!-- Node89 -->
<g id="node20" class="node">
<title>Node89</title>
<g id="a_node20"><a xlink:href="SparseMatrix_8h.html" target="_top" xlink:title="SparseMatrix.h">
<polygon fill="none" stroke="#ff0000" points="545.2337,-56.5 545.2337,-75.5 634.2337,-75.5 634.2337,-56.5 545.2337,-56.5"/>
<text text-anchor="middle" x="589.7337" y="-63.5" font-family="FreeSans.ttf" font-size="10.00" fill="#000000">SparseMatrix.h</text>
</a>
</g>
</g>
<!-- Node11&#45;&gt;Node89 -->
<g id="edge19" class="edge">
<title>Node11&#45;&gt;Node89</title>
<path fill="none" stroke="#191970" d="M1866.309,-244.0393C1641.5902,-240.1685 839.9704,-224.6784 728.7337,-199 713.7069,-195.5311 611.1288,-155.23 601.7337,-143 586.4034,-123.0439 587.0152,-91.4388 588.4961,-75.6468"/>
<polygon fill="#191970" stroke="#191970" points="1866.5104,-247.5432 1876.5688,-244.2149 1866.6302,-240.5442 1866.5104,-247.5432"/>
</g>
<!-- Node93 -->
<g id="node21" class="node">
<title>Node93</title>
<g id="a_node21"><a xlink:href="VectorDynSize_8cpp.html" target="_top" xlink:title="VectorDynSize.cpp">
<polygon fill="none" stroke="#000000" points="2477.2337,-179.5 2477.2337,-198.5 2584.2337,-198.5 2584.2337,-179.5 2477.2337,-179.5"/>
<text text-anchor="middle" x="2530.7337" y="-186.5" font-family="FreeSans.ttf" font-size="10.00" fill="#000000">VectorDynSize.cpp</text>
</a>
</g>
</g>
<!-- Node11&#45;&gt;Node93 -->
<g id="edge21" class="edge">
<title>Node11&#45;&gt;Node93</title>
<path fill="none" stroke="#191970" d="M1983.0587,-241.5195C2082.8053,-235.2428 2292.4654,-220.6363 2468.7337,-199 2471.4392,-198.6679 2474.2075,-198.3053 2477.0006,-197.9214"/>
<polygon fill="#191970" stroke="#191970" points="1982.6506,-238.038 1972.8882,-242.1545 1983.0869,-245.0244 1982.6506,-238.038"/>
</g>
<!-- Node94 -->
<g id="node22" class="node">
<title>Node94</title>
<g id="a_node22"><a xlink:href="BerdyHelper_8h.html" target="_top" xlink:title="BerdyHelper.h">
<polygon fill="none" stroke="#ff0000" points="2586.7337,-56.5 2586.7337,-75.5 2672.7337,-75.5 2672.7337,-56.5 2586.7337,-56.5"/>
<text text-anchor="middle" x="2629.7337" y="-63.5" font-family="FreeSans.ttf" font-size="10.00" fill="#000000">BerdyHelper.h</text>
</a>
</g>
</g>
<!-- Node11&#45;&gt;Node94 -->
<g id="edge22" class="edge">
<title>Node11&#45;&gt;Node94</title>
<path fill="none" stroke="#191970" d="M1983.275,-244.1933C2271.4815,-240.1186 3527.1238,-221.122 3560.7337,-199 3583.6549,-183.9133 3580.8167,-169.7951 3586.7337,-143 3589.7046,-129.5463 3596.2393,-121.9735 3586.7337,-112 3554.816,-78.5113 2855.4573,-68.4867 2672.9685,-66.4366"/>
<polygon fill="#191970" stroke="#191970" points="1982.9872,-240.6969 1973.0375,-244.3375 1983.0859,-247.6962 1982.9872,-240.6969"/>
</g>
<!-- Node95 -->
<g id="node23" class="node">
<title>Node95</title>
<g id="a_node23"><a xlink:href="ExternalWrenchesEstimation_8h.html" target="_top" xlink:title="ExternalWrenchesEstimation.h">
<polygon fill="none" stroke="#ff0000" points="144.7337,-118 144.7337,-137 310.7337,-137 310.7337,-118 144.7337,-118"/>
<text text-anchor="middle" x="227.7337" y="-125" font-family="FreeSans.ttf" font-size="10.00" fill="#000000">ExternalWrenchesEstimation.h</text>
</a>
</g>
</g>
<!-- Node11&#45;&gt;Node95 -->
<g id="edge25" class="edge">
<title>Node11&#45;&gt;Node95</title>
<path fill="none" stroke="#191970" d="M1866.2455,-244.6939C1609.4324,-243.1446 588.3627,-234.7693 449.7337,-199 430.8718,-194.1332 428.8662,-186.1183 410.7337,-179 364.0357,-160.6676 308.277,-145.9491 270.6799,-137.016"/>
<polygon fill="#191970" stroke="#191970" points="1866.4593,-248.1952 1876.4799,-244.7545 1866.5008,-241.1953 1866.4593,-248.1952"/>
</g>
<!-- Node100 -->
<g id="node24" class="node">
<title>Node100</title>
<g id="a_node24"><a xlink:href="BoundingBoxHelpers_8h.html" target="_top" xlink:title="BoundingBoxHelpers.h">
<polygon fill="none" stroke="#ff0000" points="1209.7337,-118 1209.7337,-137 1337.7337,-137 1337.7337,-118 1209.7337,-118"/>
<text text-anchor="middle" x="1273.7337" y="-125" font-family="FreeSans.ttf" font-size="10.00" fill="#000000">BoundingBoxHelpers.h</text>
</a>
</g>
</g>
<!-- Node11&#45;&gt;Node100 -->
<g id="edge29" class="edge">
<title>Node11&#45;&gt;Node100</title>
<path fill="none" stroke="#191970" d="M1866.564,-241.975C1785.645,-236.9968 1634.8346,-224.9222 1508.7337,-199 1431.0383,-183.0284 1342.1891,-152.5212 1299.4089,-137.0317"/>
<polygon fill="#191970" stroke="#191970" points="1866.3638,-245.4691 1876.5557,-242.5753 1866.7837,-238.4817 1866.3638,-245.4691"/>
</g>
<!-- Node101 -->
<g id="node25" class="node">
<title>Node101</title>
<g id="a_node25"><a xlink:href="ConvexHullHelpers_8h.html" target="_top" xlink:title="ConvexHullHelpers.h">
<polygon fill="none" stroke="#ff0000" points="1208.2337,-179.5 1208.2337,-198.5 1327.2337,-198.5 1327.2337,-179.5 1208.2337,-179.5"/>
<text text-anchor="middle" x="1267.7337" y="-186.5" font-family="FreeSans.ttf" font-size="10.00" fill="#000000">ConvexHullHelpers.h</text>
</a>
</g>
</g>
<!-- Node11&#45;&gt;Node101 -->
<g id="edge30" class="edge">
<title>Node11&#45;&gt;Node101</title>
<path fill="none" stroke="#191970" d="M1866.1153,-241.0402C1762.3181,-233.862 1539.4338,-217.6999 1351.7337,-199 1343.8422,-198.2138 1335.5423,-197.3143 1327.3576,-196.3844"/>
<polygon fill="#191970" stroke="#191970" points="1866.1649,-244.5518 1876.3819,-241.7477 1866.6462,-237.5684 1866.1649,-244.5518"/>
</g>
<!-- Node103 -->
<g id="node26" class="node">
<title>Node103</title>
<g id="a_node26"><a xlink:href="InverseKinematicsData_8h.html" target="_top" xlink:title="InverseKinematicsData.h">
<polygon fill="none" stroke="#ff0000" points="1051.7337,-118 1051.7337,-137 1191.7337,-137 1191.7337,-118 1051.7337,-118"/>
<text text-anchor="middle" x="1121.7337" y="-125" font-family="FreeSans.ttf" font-size="10.00" fill="#000000">InverseKinematicsData.h</text>
</a>
</g>
</g>
<!-- Node11&#45;&gt;Node103 -->
<g id="edge36" class="edge">
<title>Node11&#45;&gt;Node103</title>
<path fill="none" stroke="#191970" d="M1866.5322,-242.2652C1773.0875,-237.2854 1584.0219,-224.7819 1425.7337,-199 1412.6064,-196.8618 1240.9518,-155.9829 1161.5391,-137.0173"/>
<polygon fill="#191970" stroke="#191970" points="1866.4621,-245.7663 1876.6314,-242.7939 1866.8281,-238.7758 1866.4621,-245.7663"/>
</g>
<!-- Node107 -->
<g id="node27" class="node">
<title>Node107</title>
<g id="a_node27"><a xlink:href="ObserverThread_8cpp.html" target="_top" xlink:title="ObserverThread.cpp">
<polygon fill="none" stroke="#000000" points="918.2337,-118 918.2337,-137 1033.2337,-137 1033.2337,-118 918.2337,-118"/>
<text text-anchor="middle" x="975.7337" y="-125" font-family="FreeSans.ttf" font-size="10.00" fill="#000000">ObserverThread.cpp</text>
</a>
</g>
</g>
<!-- Node11&#45;&gt;Node107 -->
<g id="edge81" class="edge">
<title>Node11&#45;&gt;Node107</title>
<path fill="none" stroke="#191970" d="M1866.2384,-243.1412C1717.4068,-238.1147 1327.1251,-222.9941 1199.7337,-199 1161.0212,-191.7085 1053.364,-154.7724 1002.721,-137.0345"/>
<polygon fill="#191970" stroke="#191970" points="1866.4186,-246.6491 1876.5301,-243.4856 1866.6528,-239.653 1866.4186,-246.6491"/>
</g>
<!-- Node111 -->
<g id="node28" class="node">
<title>Node111</title>
<g id="a_node28"><a xlink:href="InverseKinematicsNLP_8h.html" target="_top" xlink:title="InverseKinematicsNLP.h">
<polygon fill="none" stroke="#ff0000" points="458.7337,-179.5 458.7337,-198.5 592.7337,-198.5 592.7337,-179.5 458.7337,-179.5"/>
<text text-anchor="middle" x="525.7337" y="-186.5" font-family="FreeSans.ttf" font-size="10.00" fill="#000000">InverseKinematicsNLP.h</text>
</a>
</g>
</g>
<!-- Node11&#45;&gt;Node111 -->
<g id="edge34" class="edge">
<title>Node11&#45;&gt;Node111</title>
<path fill="none" stroke="#191970" d="M1866.5766,-243.6521C1645.4647,-238.4215 856.972,-218.7751 606.7337,-199 602.2136,-198.6428 597.558,-198.2187 592.8712,-197.7499"/>
<polygon fill="#191970" stroke="#191970" points="1866.5926,-247.1534 1876.6724,-243.8903 1866.7578,-240.1553 1866.5926,-247.1534"/>
</g>
<!-- Node112 -->
<g id="node29" class="node">
<title>Node112</title>
<g id="a_node29"><a xlink:href="FreeFloatingState_8h.html" target="_top" xlink:title="FreeFloatingState.h">
<polygon fill="none" stroke="#ff0000" points="2842.7337,-118 2842.7337,-137 2952.7337,-137 2952.7337,-118 2842.7337,-118"/>
<text text-anchor="middle" x="2897.7337" y="-125" font-family="FreeSans.ttf" font-size="10.00" fill="#000000">FreeFloatingState.h</text>
</a>
</g>
</g>
<!-- Node11&#45;&gt;Node112 -->
<g id="edge37" class="edge">
<title>Node11&#45;&gt;Node112</title>
<path fill="none" stroke="#191970" d="M1982.9202,-244.3255C2257.2204,-241.0109 3408.9998,-225.5298 3434.7337,-199 3440.9227,-192.6196 3440.7116,-185.5786 3434.7337,-179 3402.7688,-143.8229 3083.8329,-132.0513 2953.1436,-128.6849"/>
<polygon fill="#191970" stroke="#191970" points="1982.7356,-240.8274 1972.7784,-244.4474 1982.8197,-247.8269 1982.7356,-240.8274"/>
</g>
<!-- Node118 -->
<g id="node30" class="node">
<title>Node118</title>
<g id="a_node30"><a xlink:href="JointState_8h.html" target="_top" xlink:title="JointState.h">
<polygon fill="none" stroke="#ff0000" points="2256.2337,-179.5 2256.2337,-198.5 2329.2337,-198.5 2329.2337,-179.5 2256.2337,-179.5"/>
<text text-anchor="middle" x="2292.7337" y="-186.5" font-family="FreeSans.ttf" font-size="10.00" fill="#000000">JointState.h</text>
</a>
</g>
</g>
<!-- Node11&#45;&gt;Node118 -->
<g id="edge40" class="edge">
<title>Node11&#45;&gt;Node118</title>
<path fill="none" stroke="#191970" d="M1982.8307,-238.0984C2047.6596,-230.0785 2155.5615,-215.7788 2247.7337,-199 2250.4108,-198.5127 2253.1705,-197.9784 2255.9437,-197.4183"/>
<polygon fill="#191970" stroke="#191970" points="1982.303,-234.6368 1972.8049,-239.331 1983.1573,-241.5845 1982.303,-234.6368"/>
</g>
<!-- Node136 -->
<g id="node31" class="node">
<title>Node136</title>
<g id="a_node31"><a xlink:href="PrismaticJoint_8cpp.html" target="_top" xlink:title="PrismaticJoint.cpp">
<polygon fill="none" stroke="#000000" points="2602.7337,-179.5 2602.7337,-198.5 2706.7337,-198.5 2706.7337,-179.5 2602.7337,-179.5"/>
<text text-anchor="middle" x="2654.7337" y="-186.5" font-family="FreeSans.ttf" font-size="10.00" fill="#000000">PrismaticJoint.cpp</text>
</a>
</g>
</g>
<!-- Node11&#45;&gt;Node136 -->
<g id="edge43" class="edge">
<title>Node11&#45;&gt;Node136</title>
<path fill="none" stroke="#191970" d="M1982.8428,-242.8412C2099.1386,-238.1156 2368.6615,-225.1281 2593.7337,-199 2596.6119,-198.6659 2599.5616,-198.291 2602.5355,-197.8877"/>
<polygon fill="#191970" stroke="#191970" points="1982.5888,-239.3485 1972.7372,-243.2466 1982.8695,-246.3429 1982.5888,-239.3485"/>
</g>
<!-- Node137 -->
<g id="node32" class="node">
<title>Node137</title>
<g id="a_node32"><a xlink:href="RevoluteJoint_8cpp.html" target="_top" xlink:title="RevoluteJoint.cpp">
<polygon fill="none" stroke="#000000" points="2725.2337,-179.5 2725.2337,-198.5 2826.2337,-198.5 2826.2337,-179.5 2725.2337,-179.5"/>
<text text-anchor="middle" x="2775.7337" y="-186.5" font-family="FreeSans.ttf" font-size="10.00" fill="#000000">RevoluteJoint.cpp</text>
</a>
</g>
</g>
<!-- Node11&#45;&gt;Node137 -->
<g id="edge44" class="edge">
<title>Node11&#45;&gt;Node137</title>
<path fill="none" stroke="#191970" d="M1983.2752,-243.7386C2114.6642,-240.4391 2442.883,-229.5824 2715.7337,-199 2718.7772,-198.6589 2721.901,-198.2667 2725.0481,-197.8394"/>
<polygon fill="#191970" stroke="#191970" points="1982.9497,-240.2455 1973.0388,-243.9903 1983.1218,-247.2434 1982.9497,-240.2455"/>
</g>
<!-- Node138 -->
<g id="node33" class="node">
<title>Node138</title>
<g id="a_node33"><a xlink:href="Constraint_8h.html" target="_top" xlink:title="Constraint.h">
<polygon fill="none" stroke="#ff0000" points="1952.7337,-179.5 1952.7337,-198.5 2028.7337,-198.5 2028.7337,-179.5 1952.7337,-179.5"/>
<text text-anchor="middle" x="1990.7337" y="-186.5" font-family="FreeSans.ttf" font-size="10.00" fill="#000000">Constraint.h</text>
</a>
</g>
</g>
<!-- Node11&#45;&gt;Node138 -->
<g id="edge45" class="edge">
<title>Node11&#45;&gt;Node138</title>
<path fill="none" stroke="#191970" d="M1944.0092,-228.645C1955.4875,-218.9058 1969.6614,-206.8795 1979.3691,-198.6427"/>
<polygon fill="#191970" stroke="#191970" points="1941.5907,-226.1069 1936.23,-235.2455 1946.1196,-231.4445 1941.5907,-226.1069"/>
</g>
<!-- Node142 -->
<g id="node34" class="node">
<title>Node142</title>
<g id="a_node34"><a xlink:href="DynamicalSystem_8h.html" target="_top" xlink:title="DynamicalSystem.h">
<polygon fill="none" stroke="#ff0000" points="2123.2337,-179.5 2123.2337,-198.5 2238.2337,-198.5 2238.2337,-179.5 2123.2337,-179.5"/>
<text text-anchor="middle" x="2180.7337" y="-186.5" font-family="FreeSans.ttf" font-size="10.00" fill="#000000">DynamicalSystem.h</text>
</a>
</g>
</g>
<!-- Node11&#45;&gt;Node142 -->
<g id="edge48" class="edge">
<title>Node11&#45;&gt;Node142</title>
<path fill="none" stroke="#191970" d="M1978.4824,-233.2425C2025.6426,-222.9262 2093.3578,-208.1135 2137.1969,-198.5237"/>
<polygon fill="#191970" stroke="#191970" points="1977.4718,-229.8807 1968.4508,-235.4369 1978.9678,-236.719 1977.4718,-229.8807"/>
</g>
<!-- Node149 -->
<g id="node35" class="node">
<title>Node149</title>
<g id="a_node35"><a xlink:href="Integrator_8h.html" target="_top" xlink:title="Integrator.h">
<polygon fill="none" stroke="#ff0000" points="2386.2337,-179.5 2386.2337,-198.5 2459.2337,-198.5 2459.2337,-179.5 2386.2337,-179.5"/>
<text text-anchor="middle" x="2422.7337" y="-186.5" font-family="FreeSans.ttf" font-size="10.00" fill="#000000">Integrator.h</text>
</a>
</g>
</g>
<!-- Node11&#45;&gt;Node149 -->
<g id="edge52" class="edge">
<title>Node11&#45;&gt;Node149</title>
<path fill="none" stroke="#191970" d="M1982.9001,-240.7156C2068.3966,-234.0333 2232.8951,-219.7115 2371.7337,-199 2376.3742,-198.3077 2381.2337,-197.4841 2386.0319,-196.6111"/>
<polygon fill="#191970" stroke="#191970" points="1982.5721,-237.2304 1972.8724,-241.4925 1983.1129,-244.2095 1982.5721,-237.2304"/>
</g>
<!-- Node150 -->
<g id="node36" class="node">
<title>Node150</title>
<g id="a_node36"><a xlink:href="FixedStepIntegrator_8h.html" target="_top" xlink:title="FixedStepIntegrator.h">
<polygon fill="none" stroke="#ff0000" points="3303.7337,-118 3303.7337,-137 3423.7337,-137 3423.7337,-118 3303.7337,-118"/>
<text text-anchor="middle" x="3363.7337" y="-125" font-family="FreeSans.ttf" font-size="10.00" fill="#000000">FixedStepIntegrator.h</text>
</a>
</g>
</g>
<!-- Node11&#45;&gt;Node150 -->
<g id="edge56" class="edge">
<title>Node11&#45;&gt;Node150</title>
<path fill="none" stroke="#191970" d="M1983.0822,-244.3427C2259.4679,-241.0936 3424.7089,-225.8212 3450.7337,-199 3474.559,-174.4457 3425.1555,-150.0497 3391.5072,-137.0699"/>
<polygon fill="#191970" stroke="#191970" points="1982.824,-240.8454 1972.8656,-244.462 1982.9059,-247.8449 1982.824,-240.8454"/>
</g>
<!-- Node153 -->
<g id="node37" class="node">
<title>Node153</title>
<g id="a_node37"><a xlink:href="RK4_8h.html" target="_top" xlink:title="RK4.h">
<polygon fill="none" stroke="#ff0000" points="3385.2337,-56.5 3385.2337,-75.5 3430.2337,-75.5 3430.2337,-56.5 3385.2337,-56.5"/>
<text text-anchor="middle" x="3407.7337" y="-63.5" font-family="FreeSans.ttf" font-size="10.00" fill="#000000">RK4.h</text>
</a>
</g>
</g>
<!-- Node11&#45;&gt;Node153 -->
<g id="edge57" class="edge">
<title>Node11&#45;&gt;Node153</title>
<path fill="none" stroke="#191970" d="M1983.2742,-244.3603C2261.9065,-241.1799 3441.4003,-226.1302 3467.7337,-199 3486.1706,-180.0053 3434.5124,-103.3783 3414.9227,-75.8821"/>
<polygon fill="#191970" stroke="#191970" points="1982.9366,-240.8639 1972.977,-244.4771 1983.0161,-247.8634 1982.9366,-240.8639"/>
</g>
<!-- Node154 -->
<g id="node38" class="node">
<title>Node154</title>
<g id="a_node38"><a xlink:href="QuadraticCost_8h.html" target="_top" xlink:title="QuadraticCost.h">
<polygon fill="none" stroke="#ff0000" points="805.2337,-118 805.2337,-137 900.2337,-137 900.2337,-118 805.2337,-118"/>
<text text-anchor="middle" x="852.7337" y="-125" font-family="FreeSans.ttf" font-size="10.00" fill="#000000">QuadraticCost.h</text>
</a>
</g>
</g>
<!-- Node11&#45;&gt;Node154 -->
<g id="edge58" class="edge">
<title>Node11&#45;&gt;Node154</title>
<path fill="none" stroke="#191970" d="M1866.5493,-243.629C1674.9517,-238.9092 1071.1731,-222.3308 986.7337,-199 938.9514,-185.7977 889.0823,-153.4258 865.9607,-137.1598"/>
<polygon fill="#191970" stroke="#191970" points="1866.6178,-247.1316 1876.7004,-243.8774 1866.7891,-240.1337 1866.6178,-247.1316"/>
</g>
<!-- Node155 -->
<g id="node39" class="node">
<title>Node155</title>
<g id="a_node39"><a xlink:href="TimeVaryingObject_8h.html" target="_top" xlink:title="TimeVaryingObject.h">
<polygon fill="none" stroke="#ff0000" points="995.2337,-179.5 995.2337,-198.5 1114.2337,-198.5 1114.2337,-179.5 995.2337,-179.5"/>
<text text-anchor="middle" x="1054.7337" y="-186.5" font-family="FreeSans.ttf" font-size="10.00" fill="#000000">TimeVaryingObject.h</text>
</a>
</g>
</g>
<!-- Node11&#45;&gt;Node155 -->
<g id="edge60" class="edge">
<title>Node11&#45;&gt;Node155</title>
<path fill="none" stroke="#191970" d="M1866.3827,-242.3384C1737.6347,-236.286 1419.5398,-220.3449 1153.7337,-199 1140.9913,-197.9768 1127.3434,-196.7095 1114.3783,-195.4248"/>
<polygon fill="#191970" stroke="#191970" points="1866.2686,-245.8368 1876.4213,-242.8083 1866.5959,-238.8445 1866.2686,-245.8368"/>
</g>
<!-- Node161 -->
<g id="node40" class="node">
<title>Node161</title>
<g id="a_node40"><a xlink:href="OptimalControlSolver_8cpp.html" target="_top" xlink:title="OptimalControlSolver.cpp">
<polygon fill="none" stroke="#000000" points="2844.2337,-179.5 2844.2337,-198.5 2985.2337,-198.5 2985.2337,-179.5 2844.2337,-179.5"/>
<text text-anchor="middle" x="2914.7337" y="-186.5" font-family="FreeSans.ttf" font-size="10.00" fill="#000000">OptimalControlSolver.cpp</text>
</a>
</g>
</g>
<!-- Node11&#45;&gt;Node161 -->
<g id="edge70" class="edge">
<title>Node11&#45;&gt;Node161</title>
<path fill="none" stroke="#191970" d="M1983.2165,-243.5769C2127.9765,-239.7218 2514.5421,-227.3969 2835.7337,-199 2838.4879,-198.7565 2841.294,-198.49 2844.1269,-198.2056"/>
<polygon fill="#191970" stroke="#191970" points="1983.1203,-240.0782 1973.2159,-243.84 1983.3045,-247.0757 1983.1203,-240.0782"/>
</g>
<!-- Node164 -->
<g id="node41" class="node">
<title>Node164</title>
<g id="a_node41"><a xlink:href="Optimizer_8cpp.html" target="_top" xlink:title="Optimizer.cpp">
<polygon fill="none" stroke="#000000" points="3003.7337,-179.5 3003.7337,-198.5 3087.7337,-198.5 3087.7337,-179.5 3003.7337,-179.5"/>
<text text-anchor="middle" x="3045.7337" y="-186.5" font-family="FreeSans.ttf" font-size="10.00" fill="#000000">Optimizer.cpp</text>
</a>
</g>
</g>
<!-- Node11&#45;&gt;Node164 -->
<g id="edge71" class="edge">
<title>Node11&#45;&gt;Node164</title>
<path fill="none" stroke="#191970" d="M1983.22,-243.6483C2176.9028,-238.9894 2796.3231,-222.5807 2994.7337,-199 2997.6008,-198.6593 3000.548,-198.2474 3003.5105,-197.7877"/>
<polygon fill="#191970" stroke="#191970" points="1982.8805,-240.1553 1972.967,-243.8935 1983.0479,-247.1533 1982.8805,-240.1553"/>
</g>
<!-- Node165 -->
<g id="node42" class="node">
<title>Node165</title>
<g id="a_node42"><a xlink:href="DummyDynamicsRegressorGenerator_8cpp.html" target="_top" xlink:title="DummyDynamicsRegressorGenerator.cpp">
<polygon fill="none" stroke="#000000" points="3634.2337,-118 3634.2337,-137 3855.2337,-137 3855.2337,-118 3634.2337,-118"/>
<text text-anchor="middle" x="3744.7337" y="-125" font-family="FreeSans.ttf" font-size="10.00" fill="#000000">DummyDynamicsRegressorGenerator.cpp</text>
</a>
</g>
</g>
<!-- Node11&#45;&gt;Node165 -->
<g id="edge73" class="edge">
<title>Node11&#45;&gt;Node165</title>
<path fill="none" stroke="#191970" d="M1983.1114,-244.2151C2272.1568,-240.2277 3539.4119,-221.5201 3619.7337,-199 3665.2307,-186.2439 3711.681,-153.3512 3732.8784,-137.0077"/>
<polygon fill="#191970" stroke="#191970" points="1982.7987,-240.719 1972.8477,-244.3562 1982.8949,-247.7183 1982.7987,-240.719"/>
</g>
<!-- Node166 -->
<g id="node43" class="node">
<title>Node166</title>
<g id="a_node43"><a xlink:href="DynamicsRegressorGenerator_8cpp.html" target="_top" xlink:title="DynamicsRegressorGenerator.cpp">
<polygon fill="none" stroke="#000000" points="3105.7337,-179.5 3105.7337,-198.5 3287.7337,-198.5 3287.7337,-179.5 3105.7337,-179.5"/>
<text text-anchor="middle" x="3196.7337" y="-186.5" font-family="FreeSans.ttf" font-size="10.00" fill="#000000">DynamicsRegressorGenerator.cpp</text>
</a>
</g>
</g>
<!-- Node11&#45;&gt;Node166 -->
<g id="edge74" class="edge">
<title>Node11&#45;&gt;Node166</title>
<path fill="none" stroke="#191970" d="M1982.834,-243.9621C2153.7642,-240.6414 2669.7258,-228.703 3096.7337,-199 3099.6057,-198.8002 3102.5228,-198.5847 3105.4674,-198.3562"/>
<polygon fill="#191970" stroke="#191970" points="1982.7251,-240.4635 1972.7942,-244.1549 1982.8596,-247.4622 1982.7251,-240.4635"/>
</g>
<!-- Node167 -->
<g id="node44" class="node">
<title>Node167</title>
<g id="a_node44"><a xlink:href="Sensors_8h.html" target="_top" xlink:title="Sensors.h">
<polygon fill="none" stroke="#ff0000" points="3748.7337,-179.5 3748.7337,-198.5 3812.7337,-198.5 3812.7337,-179.5 3748.7337,-179.5"/>
<text text-anchor="middle" x="3780.7337" y="-186.5" font-family="FreeSans.ttf" font-size="10.00" fill="#000000">Sensors.h</text>
</a>
</g>
</g>
<!-- Node11&#45;&gt;Node167 -->
<g id="edge75" class="edge">
<title>Node11&#45;&gt;Node167</title>
<path fill="none" stroke="#191970" d="M1983.0313,-244.6065C2202.6486,-242.879 3000.9641,-234.388 3657.7337,-199 3688.6475,-197.3343 3723.8512,-194.363 3748.6526,-192.0906"/>
<polygon fill="#191970" stroke="#191970" points="1982.9863,-241.1066 1973.0137,-244.6837 1983.0404,-248.1064 1982.9863,-241.1066"/>
</g>
<!-- Node209 -->
<g id="node45" class="node">
<title>Node209</title>
<g id="a_node45"><a xlink:href="Sensors_8cpp.html" target="_top" xlink:title="Sensors.cpp">
<polygon fill="none" stroke="#000000" points="3912.2337,-118 3912.2337,-137 3987.2337,-137 3987.2337,-118 3912.2337,-118"/>
<text text-anchor="middle" x="3949.7337" y="-125" font-family="FreeSans.ttf" font-size="10.00" fill="#000000">Sensors.cpp</text>
</a>
</g>
</g>
<!-- Node11&#45;&gt;Node209 -->
<g id="edge79" class="edge">
<title>Node11&#45;&gt;Node209</title>
<path fill="none" stroke="#191970" d="M1982.9417,-244.3763C2292.0891,-240.9643 3731.0056,-223.8004 3821.7337,-199 3868.1396,-186.315 3915.7919,-153.3885 3937.5562,-137.0224"/>
<polygon fill="#191970" stroke="#191970" points="1982.8095,-240.8774 1972.8487,-244.4872 1982.8865,-247.877 1982.8095,-240.8774"/>
</g>
<!-- Node217 -->
<g id="node46" class="node">
<title>Node217</title>
<g id="a_node46"><a xlink:href="robotstatepublisher_8h.html" target="_top" xlink:title="robotstatepublisher.h">
<polygon fill="none" stroke="#ff0000" points="3305.7337,-179.5 3305.7337,-198.5 3425.7337,-198.5 3425.7337,-179.5 3305.7337,-179.5"/>
<text text-anchor="middle" x="3365.7337" y="-186.5" font-family="FreeSans.ttf" font-size="10.00" fill="#000000">robotstatepublisher.h</text>
</a>
</g>
</g>
<!-- Node11&#45;&gt;Node217 -->
<g id="edge82" class="edge">
<title>Node11&#45;&gt;Node217</title>
<path fill="none" stroke="#191970" d="M1983.0256,-243.9045C2210.0803,-239.5042 3035.611,-222.2279 3296.7337,-199 3299.6273,-198.7426 3302.5848,-198.4456 3305.5688,-198.1186"/>
<polygon fill="#191970" stroke="#191970" points="1982.9155,-240.4059 1972.9849,-244.0983 1983.0506,-247.4046 1982.9155,-240.4059"/>
</g>
<!-- Node219 -->
<g id="node47" class="node">
<title>Node219</title>
<g id="a_node47"><a xlink:href="YARPConversions_8cpp.html" target="_top" xlink:title="YARPConversions.cpp">
<polygon fill="none" stroke="#000000" points="366.7337,-118 366.7337,-137 488.7337,-137 488.7337,-118 366.7337,-118"/>
<text text-anchor="middle" x="427.7337" y="-125" font-family="FreeSans.ttf" font-size="10.00" fill="#000000">YARPConversions.cpp</text>
</a>
</g>
</g>
<!-- Node11&#45;&gt;Node219 -->
<g id="edge83" class="edge">
<title>Node11&#45;&gt;Node219</title>
<path fill="none" stroke="#191970" d="M1866.4786,-244.2678C1632.0176,-241.1353 764.2434,-227.694 644.7337,-199 624.239,-194.0793 621.4482,-186.4557 601.7337,-179 555.9127,-161.6713 501.5578,-146.3928 465.9425,-137.0674"/>
<polygon fill="#191970" stroke="#191970" points="1866.4653,-247.7678 1876.5108,-244.4007 1866.5581,-240.7684 1866.4653,-247.7678"/>
</g>
<!-- Node14&#45;&gt;Node34 -->
<g id="edge4" class="edge">
<title>Node14&#45;&gt;Node34</title>
<path fill="none" stroke="#191970" d="M1735.8058,-175.9504C1768.0334,-164.2916 1814.4901,-147.4852 1843.3577,-137.0419"/>
<polygon fill="#191970" stroke="#191970" points="1734.5091,-172.6974 1726.2962,-179.3906 1736.8905,-179.2799 1734.5091,-172.6974"/>
</g>
<!-- Node14&#45;&gt;Node39 -->
<g id="edge5" class="edge">
<title>Node14&#45;&gt;Node39</title>
<path fill="none" stroke="#191970" d="M1755.3672,-185.17C1865.688,-177.3476 2108.5974,-158.9287 2190.7337,-143 2198.502,-141.4935 2206.771,-139.3068 2214.3758,-137.0485"/>
<polygon fill="#191970" stroke="#191970" points="1754.8435,-181.6981 1745.1147,-185.8935 1755.3363,-188.6808 1754.8435,-181.6981"/>
</g>
<!-- Node14&#45;&gt;Node42 -->
<g id="edge6" class="edge">
<title>Node14&#45;&gt;Node42</title>
<path fill="none" stroke="#191970" d="M1700.7501,-169.2721C1700.4937,-151.4719 1696.9852,-125.9982 1680.7337,-112 1603.8905,-45.8108 898.0222,-19.1158 664.4161,-12.0459"/>
<polygon fill="#191970" stroke="#191970" points="1697.2478,-169.365 1700.5624,-179.428 1704.2466,-169.4944 1697.2478,-169.365"/>
</g>
<!-- Node14&#45;&gt;Node46 -->
<g id="edge7" class="edge">
<title>Node14&#45;&gt;Node46</title>
<path fill="none" stroke="#191970" d="M1722.0383,-173.4074C1734.0561,-164.7704 1748.9902,-153.6521 1761.7337,-143 1777.1733,-130.0943 1776.4405,-120.3843 1794.7337,-112 1857.9882,-83.0088 2053.5785,-71.9522 2159.6357,-68.0094"/>
<polygon fill="#191970" stroke="#191970" points="1719.9943,-170.5662 1713.876,-179.2159 1724.0529,-176.2695 1719.9943,-170.5662"/>
</g>
<!-- Node14&#45;&gt;Node57 -->
<g id="edge8" class="edge">
<title>Node14&#45;&gt;Node57</title>
<path fill="none" stroke="#191970" d="M1644.2431,-182.548C1589.3989,-175.4632 1503.4002,-162.444 1430.7337,-143 1424.7271,-141.3928 1418.3731,-139.2764 1412.4754,-137.126"/>
<polygon fill="#191970" stroke="#191970" points="1644.0856,-186.0561 1654.4469,-183.844 1644.9676,-179.1118 1644.0856,-186.0561"/>
</g>
<!-- Node14&#45;&gt;Node59 -->
<g id="edge9" class="edge">
<title>Node14&#45;&gt;Node59</title>
<path fill="none" stroke="#191970" d="M1657.7783,-176.4745C1618.6739,-164.8001 1561.2037,-147.6427 1525.6952,-137.0419"/>
<polygon fill="#191970" stroke="#191970" points="1656.9629,-179.8836 1667.5462,-179.3906 1658.9654,-173.1761 1656.9629,-179.8836"/>
</g>
<!-- Node14&#45;&gt;Node60 -->
<g id="edge10" class="edge">
<title>Node14&#45;&gt;Node60</title>
<path fill="none" stroke="#191970" d="M1755.4169,-185.7012C1882.6364,-178.001 2191.5659,-158.3323 2294.7337,-143 2305.0757,-141.463 2316.1674,-139.2659 2326.4033,-137.0072"/>
<polygon fill="#191970" stroke="#191970" points="1754.8981,-182.226 1745.127,-186.3219 1755.3196,-189.2133 1754.8981,-182.226"/>
</g>
<!-- Node14&#45;&gt;Node62 -->
<g id="edge11" class="edge">
<title>Node14&#45;&gt;Node62</title>
<path fill="none" stroke="#191970" d="M1755.219,-186.511C1877.8904,-180.7923 2181.3602,-165.459 2434.7337,-143 2462.8154,-140.5108 2494.0966,-136.9681 2519.4713,-133.8978"/>
<polygon fill="#191970" stroke="#191970" points="1754.7867,-183.0272 1744.9594,-186.9864 1755.1108,-190.0196 1754.7867,-183.0272"/>
</g>
<!-- Node14&#45;&gt;Node65 -->
<g id="edge12" class="edge">
<title>Node14&#45;&gt;Node65</title>
<path fill="none" stroke="#191970" d="M1678.8569,-173.1491C1663.8066,-161.722 1643.9885,-146.6749 1631.3011,-137.0419"/>
<polygon fill="#191970" stroke="#191970" points="1676.9965,-176.1311 1687.0775,-179.3906 1681.2295,-170.5559 1676.9965,-176.1311"/>
</g>
<!-- Node14&#45;&gt;Node66 -->
<g id="edge13" class="edge">
<title>Node14&#45;&gt;Node66</title>
<path fill="none" stroke="#191970" d="M1755.3076,-186.4565C1804.7567,-184.2568 1879.0527,-181.1072 1943.7337,-179 2605.3539,-157.4456 2773.5696,-203.8977 3432.7337,-143 3448.1998,-141.5712 3464.948,-139.1675 3480.0595,-136.6741"/>
<polygon fill="#191970" stroke="#191970" points="1754.9789,-182.9676 1745.1453,-186.9108 1755.2916,-189.9606 1754.9789,-182.9676"/>
</g>
<!-- Node14&#45;&gt;Node68 -->
<g id="edge14" class="edge">
<title>Node14&#45;&gt;Node68</title>
<path fill="none" stroke="#191970" d="M1754.9812,-179.6556C1804.7702,-170.9904 1879.8928,-157.3101 1944.7337,-143 1952.843,-141.2103 1961.5136,-139.1172 1969.6975,-137.0585"/>
<polygon fill="#191970" stroke="#191970" points="1754.319,-176.2181 1745.0632,-181.3737 1755.5139,-183.1154 1754.319,-176.2181"/>
</g>
<!-- Node14&#45;&gt;Node69 -->
<g id="edge15" class="edge">
<title>Node14&#45;&gt;Node69</title>
<path fill="none" stroke="#191970" d="M1755.1744,-186.5076C1942.0446,-178.0717 2542.0057,-150.6903 2628.7337,-143 2646.3487,-141.438 2665.3457,-139.246 2682.949,-137.0011"/>
<polygon fill="#191970" stroke="#191970" points="1754.857,-183.0183 1745.025,-186.9655 1755.1726,-190.0112 1754.857,-183.0183"/>
</g>
<!-- Node14&#45;&gt;Node70 -->
<g id="edge16" class="edge">
<title>Node14&#45;&gt;Node70</title>
<path fill="none" stroke="#191970" d="M1713.6739,-171.0493C1726.0424,-155.2779 1744.7342,-131.8203 1761.7337,-112 1772.7166,-99.1947 1785.9103,-84.9143 1794.542,-75.7117"/>
<polygon fill="#191970" stroke="#191970" points="1710.5791,-169.3257 1707.1827,-179.3614 1716.0961,-173.6341 1710.5791,-169.3257"/>
</g>
<!-- Node14&#45;&gt;Node71 -->
<g id="edge17" class="edge">
<title>Node14&#45;&gt;Node71</title>
<path fill="none" stroke="#191970" d="M1755.1333,-184.1509C1827.2677,-177.3591 1957.0898,-163.5 2066.7337,-143 2075.5677,-141.3483 2085.0185,-139.1901 2093.8113,-137.0112"/>
<polygon fill="#191970" stroke="#191970" points="1754.551,-180.6899 1744.9184,-185.1017 1755.1997,-187.6598 1754.551,-180.6899"/>
</g>
<!-- Node14&#45;&gt;Node80 -->
<g id="edge18" class="edge">
<title>Node14&#45;&gt;Node80</title>
<path fill="none" stroke="#191970" d="M1644.2714,-187.0073C1474.3369,-180.7699 962.3943,-160.9651 796.7337,-143 793.4791,-142.6471 790.1654,-142.2546 786.8217,-141.8311"/>
<polygon fill="#191970" stroke="#191970" points="1644.3679,-190.513 1654.4892,-187.381 1644.6239,-183.5177 1644.3679,-190.513"/>
</g>
<!-- Node89&#45;&gt;Node42 -->
<g id="edge20" class="edge">
<title>Node89&#45;&gt;Node42</title>
<path fill="none" stroke="#191970" d="M589.7337,-46.1575C589.7337,-37.155 589.7337,-26.9199 589.7337,-19.6427"/>
<polygon fill="#191970" stroke="#191970" points="586.2338,-46.2455 589.7337,-56.2455 593.2338,-46.2456 586.2338,-46.2455"/>
</g>
<!-- Node94&#45;&gt;Node42 -->
<g id="edge23" class="edge">
<title>Node94&#45;&gt;Node42</title>
<path fill="none" stroke="#191970" d="M2576.4444,-64.2683C2512.7591,-62.2154 2402.9707,-58.7287 2308.7337,-56 1672.3547,-37.573 903.3755,-17.9262 664.2948,-11.8783"/>
<polygon fill="#191970" stroke="#191970" points="2576.5335,-67.7729 2586.6412,-64.5975 2576.7594,-60.7766 2576.5335,-67.7729"/>
</g>
<!-- Node101&#45;&gt;Node100 -->
<g id="edge31" class="edge">
<title>Node101&#45;&gt;Node100</title>
<path fill="none" stroke="#191970" d="M1269.6609,-169.2462C1270.7043,-158.5519 1271.947,-145.814 1272.783,-137.2449"/>
<polygon fill="#191970" stroke="#191970" points="1266.1588,-169.098 1268.6712,-179.3906 1273.1258,-169.7778 1266.1588,-169.098"/>
</g>
<!-- Node101&#45;&gt;Node103 -->
<g id="edge32" class="edge">
<title>Node101&#45;&gt;Node103</title>
<path fill="none" stroke="#191970" d="M1235.6744,-175.4955C1208.047,-163.858 1168.8576,-147.3501 1144.386,-137.0419"/>
<polygon fill="#191970" stroke="#191970" points="1234.3467,-178.7341 1244.9212,-179.3906 1237.0642,-172.2831 1234.3467,-178.7341"/>
</g>
<!-- Node101&#45;&gt;Node107 -->
<g id="edge33" class="edge">
<title>Node101&#45;&gt;Node107</title>
<path fill="none" stroke="#191970" d="M1209.4029,-177.5017C1163.9303,-168.4349 1099.2332,-155.3088 1042.7337,-143 1034.1012,-141.1194 1024.8611,-139.0308 1016.0858,-137.0117"/>
<polygon fill="#191970" stroke="#191970" points="1208.8876,-180.9677 1219.3784,-179.4871 1210.254,-174.1024 1208.8876,-180.9677"/>
</g>
<!-- Node111&#45;&gt;Node103 -->
<g id="edge35" class="edge">
<title>Node111&#45;&gt;Node103</title>
<path fill="none" stroke="#191970" d="M603.0634,-184.6611C704.3973,-178.3945 887.4801,-165.0752 1042.7337,-143 1054.0805,-141.3866 1066.2637,-139.2165 1077.5833,-137.0119"/>
<polygon fill="#191970" stroke="#191970" points="602.6842,-181.1776 592.9166,-185.2818 603.1117,-188.1646 602.6842,-181.1776"/>
</g>
<!-- Node112&#45;&gt;Node46 -->
<g id="edge39" class="edge">
<title>Node112&#45;&gt;Node46</title>
<path fill="none" stroke="#191970" d="M2852.8561,-115.6645C2846.47,-114.2632 2839.9585,-112.9842 2833.7337,-112 2642.0854,-81.6984 2412.9547,-71.1807 2299.9136,-67.6693"/>
<polygon fill="#191970" stroke="#191970" points="2852.1982,-119.1046 2862.7291,-117.9423 2853.7719,-112.2838 2852.1982,-119.1046"/>
</g>
<!-- Node112&#45;&gt;Node94 -->
<g id="edge38" class="edge">
<title>Node112&#45;&gt;Node94</title>
<path fill="none" stroke="#191970" d="M2849.0012,-115.6128C2843.8493,-114.3814 2838.6857,-113.1579 2833.7337,-112 2778.2305,-99.0221 2714.0782,-84.6611 2672.761,-75.4947"/>
<polygon fill="#191970" stroke="#191970" points="2848.295,-119.0426 2858.8359,-117.9752 2849.93,-112.2362 2848.295,-119.0426"/>
</g>
<!-- Node118&#45;&gt;Node112 -->
<g id="edge41" class="edge">
<title>Node118&#45;&gt;Node112</title>
<path fill="none" stroke="#191970" d="M2339.6432,-183.1552C2352.0205,-181.7023 2365.3723,-180.2146 2377.7337,-179 2580.0566,-159.1196 2632.9751,-175.0273 2833.7337,-143 2843.217,-141.4871 2853.3674,-139.2983 2862.7263,-137.0399"/>
<polygon fill="#191970" stroke="#191970" points="2339.0347,-179.7028 2329.5186,-184.3606 2339.8623,-186.6537 2339.0347,-179.7028"/>
</g>
<!-- Node138&#45;&gt;Node60 -->
<g id="edge46" class="edge">
<title>Node138&#45;&gt;Node60</title>
<path fill="none" stroke="#191970" d="M2038.8638,-179.6594C2040.1668,-179.4338 2041.4587,-179.2135 2042.7337,-179 2154.3167,-160.3118 2183.4226,-163.2443 2294.7337,-143 2304.2858,-141.2628 2314.5155,-139.1452 2324.1231,-137.0404"/>
<polygon fill="#191970" stroke="#191970" points="2037.9776,-176.2623 2028.7511,-181.4703 2039.2115,-183.1527 2037.9776,-176.2623"/>
</g>
<!-- Node138&#45;&gt;Node70 -->
<g id="edge47" class="edge">
<title>Node138&#45;&gt;Node70</title>
<path fill="none" stroke="#191970" d="M2038.9289,-179.5613C2040.2093,-179.3654 2041.4793,-179.1778 2042.7337,-179 2086.0398,-172.8626 2405.2538,-175.3113 2434.7337,-143 2444.0199,-132.8219 2444.1152,-122.0903 2434.7337,-112 2416.0943,-91.9523 2043.7594,-75.2303 1879.9568,-68.8136"/>
<polygon fill="#191970" stroke="#191970" points="2038.2966,-176.1182 2028.9994,-181.1987 2039.4356,-183.0249 2038.2966,-176.1182"/>
</g>
<!-- Node142&#45;&gt;Node62 -->
<g id="edge49" class="edge">
<title>Node142&#45;&gt;Node62</title>
<path fill="none" stroke="#191970" d="M2248.4242,-178.9231C2364.0087,-162.5567 2395.1088,-164.0605 2505.7337,-143 2514.6059,-141.3109 2524.097,-139.1883 2532.9802,-137.0605"/>
<polygon fill="#191970" stroke="#191970" points="2247.8757,-175.4659 2238.4721,-180.3467 2248.867,-182.3953 2247.8757,-175.4659"/>
</g>
<!-- Node142&#45;&gt;Node69 -->
<g id="edge50" class="edge">
<title>Node142&#45;&gt;Node69</title>
<path fill="none" stroke="#191970" d="M2248.4764,-178.9837C2432.8659,-157.6877 2481.8298,-166.6196 2661.7337,-143 2674.1923,-141.3643 2687.5769,-139.212 2700.0542,-137.0336"/>
<polygon fill="#191970" stroke="#191970" points="2247.973,-175.5186 2238.4471,-180.1562 2248.7859,-182.4712 2247.973,-175.5186"/>
</g>
<!-- Node142&#45;&gt;Node70 -->
<g id="edge51" class="edge">
<title>Node142&#45;&gt;Node70</title>
<path fill="none" stroke="#191970" d="M2248.6757,-179.2351C2321.8742,-173.8328 2601.6245,-172.7915 2628.7337,-143 2638.0065,-132.8097 2638.201,-122.0099 2628.7337,-112 2615.9502,-98.4839 2081.8763,-76.6573 1879.9712,-68.8722"/>
<polygon fill="#191970" stroke="#191970" points="2248.0844,-175.7749 2238.4504,-180.1836 2248.731,-182.7449 2248.0844,-175.7749"/>
</g>
<!-- Node149&#45;&gt;Node69 -->
<g id="edge55" class="edge">
<title>Node149&#45;&gt;Node69</title>
<path fill="none" stroke="#191970" d="M2469.5028,-178.9089C2525.3086,-167.9382 2631.8048,-148.6716 2696.5107,-137.0392"/>
<polygon fill="#191970" stroke="#191970" points="2468.4955,-175.5405 2459.3694,-180.9224 2469.8597,-182.4063 2468.4955,-175.5405"/>
</g>
<!-- Node149&#45;&gt;Node150 -->
<g id="edge53" class="edge">
<title>Node149&#45;&gt;Node150</title>
<path fill="none" stroke="#191970" d="M2469.4524,-179.1621C2649.7501,-156.0782 3133.6682,-136.2209 3303.7301,-129.7246"/>
<polygon fill="#191970" stroke="#191970" points="2468.7523,-175.7243 2459.3,-180.5101 2469.6737,-182.6634 2468.7523,-175.7243"/>
</g>
<!-- Node150&#45;&gt;Node153 -->
<g id="edge54" class="edge">
<title>Node150&#45;&gt;Node153</title>
<path fill="none" stroke="#191970" d="M3376.4354,-109.7465C3384.3547,-98.6775 3394.2438,-84.8552 3400.7618,-75.7449"/>
<polygon fill="#191970" stroke="#191970" points="3373.5809,-107.7212 3370.6087,-117.8906 3379.2739,-111.7943 3373.5809,-107.7212"/>
</g>
<!-- Node154&#45;&gt;Node70 -->
<g id="edge59" class="edge">
<title>Node154&#45;&gt;Node70</title>
<path fill="none" stroke="#191970" d="M892.8645,-115.4382C898.4885,-114.0853 904.2273,-112.8799 909.7337,-112 1066.2696,-86.9857 1541.0252,-72.6275 1727.436,-67.8266"/>
<polygon fill="#191970" stroke="#191970" points="891.7511,-112.1107 882.9401,-117.9944 893.4971,-118.8895 891.7511,-112.1107"/>
</g>
<!-- Node155&#45;&gt;Node154 -->
<g id="edge61" class="edge">
<title>Node155&#45;&gt;Node154</title>
<path fill="none" stroke="#191970" d="M1013.3485,-176.4001C975.0087,-164.7273 918.8197,-147.6202 884.0746,-137.0419"/>
<polygon fill="#191970" stroke="#191970" points="1012.5853,-179.8263 1023.1712,-179.3906 1014.6242,-173.1297 1012.5853,-179.8263"/>
</g>
<!-- Node167&#45;&gt;Node94 -->
<g id="edge76" class="edge">
<title>Node167&#45;&gt;Node94</title>
<path fill="none" stroke="#191970" d="M3822.2861,-176.6004C3838.4854,-169.5075 3855.3815,-158.7841 3864.7337,-143 3871.7569,-131.1466 3874.2931,-121.922 3864.7337,-112 3843.6134,-90.0784 2888.905,-70.865 2672.8749,-66.7932"/>
<polygon fill="#191970" stroke="#191970" points="3820.8699,-173.3974 3812.8911,-180.3679 3823.4754,-179.8944 3820.8699,-173.3974"/>
</g>
<!-- Node167&#45;&gt;Node165 -->
<g id="edge77" class="edge">
<title>Node167&#45;&gt;Node165</title>
<path fill="none" stroke="#191970" d="M3769.9546,-170.5857C3763.5427,-159.632 3755.6653,-146.1748 3750.438,-137.2449"/>
<polygon fill="#191970" stroke="#191970" points="3767.0363,-172.5286 3775.1087,-179.3906 3773.0774,-168.9923 3767.0363,-172.5286"/>
</g>
<!-- Node167&#45;&gt;Node209 -->
<g id="edge78" class="edge">
<title>Node167&#45;&gt;Node209</title>
<path fill="none" stroke="#191970" d="M3816.5937,-175.9504C3848.6317,-164.2916 3894.8151,-147.4852 3923.5129,-137.0419"/>
<polygon fill="#191970" stroke="#191970" points="3815.3402,-172.6819 3807.14,-179.3906 3817.734,-179.2599 3815.3402,-172.6819"/>
</g>
<!-- Node220&#45;&gt;Node12 -->
<g id="edge87" class="edge">
<title>Node220&#45;&gt;Node12</title>
<path fill="none" stroke="#191970" d="M310.8237,-228.928C323.0591,-219.1397 338.2844,-206.9595 348.6804,-198.6427"/>
<polygon fill="#191970" stroke="#191970" points="308.5491,-226.2655 302.9268,-235.2455 312.9219,-231.7316 308.5491,-226.2655"/>
</g>
<!-- Node220&#45;&gt;Node14 -->
<g id="edge93" class="edge">
<title>Node220&#45;&gt;Node14</title>
<path fill="none" stroke="#191970" d="M346.1183,-242.7988C575.1455,-233.6962 1445.9832,-199.0852 1654.618,-190.7931"/>
<polygon fill="#191970" stroke="#191970" points="345.8709,-239.3057 336.0178,-243.2002 346.149,-246.3002 345.8709,-239.3057"/>
</g>
<!-- Node220&#45;&gt;Node42 -->
<g id="edge96" class="edge">
<title>Node220&#45;&gt;Node42</title>
<path fill="none" stroke="#191970" d="M235.2366,-239.9584C156.0623,-232.1975 18.557,-216.3883 3.7337,-199 -2.0329,-192.2355 .3321,-187.2123 3.7337,-179 19.8493,-140.0935 33.5714,-131.809 70.7337,-112 146.8048,-71.4511 390.4513,-35.5161 514.9575,-19.2376"/>
<polygon fill="#191970" stroke="#191970" points="235.2411,-243.4751 245.5317,-240.9545 235.9153,-236.5076 235.2411,-243.4751"/>
</g>
<!-- Node220&#45;&gt;Node80 -->
<g id="edge99" class="edge">
<title>Node220&#45;&gt;Node80</title>
<path fill="none" stroke="#191970" d="M290.9578,-224.9032C292.2684,-209.958 296.622,-190.2753 309.7337,-179 332.8459,-159.125 511.8605,-142.1449 620.4808,-133.5365"/>
<polygon fill="#191970" stroke="#191970" points="287.4475,-225.0315 290.4541,-235.1908 294.4391,-225.3739 287.4475,-225.0315"/>
</g>
<!-- Node220&#45;&gt;Node94 -->
<g id="edge94" class="edge">
<title>Node220&#45;&gt;Node94</title>
<path fill="none" stroke="#191970" d="M242.1508,-232.3859C220.3246,-225.0844 195.1686,-214.2564 175.7337,-199 142.2582,-172.7217 105.8911,-142.3411 135.7337,-112 178.0663,-68.9603 2248.3815,-77.4399 2308.7337,-76 2408.2302,-73.6262 2525.0393,-69.7009 2586.6449,-67.5419"/>
<polygon fill="#191970" stroke="#191970" points="241.3216,-235.795 251.9122,-235.4957 243.4465,-229.1252 241.3216,-235.795"/>
</g>
<!-- Node220&#45;&gt;Node95 -->
<g id="edge95" class="edge">
<title>Node220&#45;&gt;Node95</title>
<path fill="none" stroke="#191970" d="M236.0343,-234.6717C216.1102,-227.9796 195.5851,-216.9952 183.7337,-199 169.3838,-177.211 196.6132,-150.9357 214.2917,-137.1007"/>
<polygon fill="#191970" stroke="#191970" points="235.1404,-238.0581 245.7263,-237.624 237.1802,-231.3619 235.1404,-238.0581"/>
</g>
<!-- Node220&#45;&gt;Node111 -->
<g id="edge97" class="edge">
<title>Node220&#45;&gt;Node111</title>
<path fill="none" stroke="#191970" d="M340.6189,-233.1125C383.8858,-222.8021 445.6941,-208.0733 485.7683,-198.5237"/>
<polygon fill="#191970" stroke="#191970" points="339.7809,-229.7141 330.8646,-235.4369 341.4036,-236.5234 339.7809,-229.7141"/>
</g>
<!-- Node220&#45;&gt;Node118 -->
<g id="edge98" class="edge">
<title>Node220&#45;&gt;Node118</title>
<path fill="none" stroke="#191970" d="M346.3155,-244.3412C645.1797,-240.7122 2054.8775,-222.4668 2247.7337,-199 2250.4348,-198.6713 2253.2122,-198.2536 2255.998,-197.7762"/>
<polygon fill="#191970" stroke="#191970" points="346.1133,-240.8433 336.1564,-244.4641 346.198,-247.8428 346.1133,-240.8433"/>
</g>
<!-- Node221 -->
<g id="node49" class="node">
<title>Node221</title>
<g id="a_node49"><a xlink:href="ClassicalAcc_8h.html" target="_top" xlink:title="ClassicalAcc.h">
<polygon fill="none" stroke="#ff0000" points="12.7337,-179.5 12.7337,-198.5 98.7337,-198.5 98.7337,-179.5 12.7337,-179.5"/>
<text text-anchor="middle" x="55.7337" y="-186.5" font-family="FreeSans.ttf" font-size="10.00" fill="#000000">ClassicalAcc.h</text>
</a>
</g>
</g>
<!-- Node220&#45;&gt;Node221 -->
<g id="edge85" class="edge">
<title>Node220&#45;&gt;Node221</title>
<path fill="none" stroke="#191970" d="M240.8486,-233.1125C197.5817,-222.8021 135.7733,-208.0733 95.6991,-198.5237"/>
<polygon fill="#191970" stroke="#191970" points="240.0638,-236.5234 250.6028,-235.4369 241.6865,-229.7141 240.0638,-236.5234"/>
</g>
<!-- Node224 -->
<g id="node50" class="node">
<title>Node224</title>
<g id="a_node50"><a xlink:href="Direction_8h.html" target="_top" xlink:title="Direction.h">
<polygon fill="none" stroke="#ff0000" points="192.7337,-179.5 192.7337,-198.5 262.7337,-198.5 262.7337,-179.5 192.7337,-179.5"/>
<text text-anchor="middle" x="227.7337" y="-186.5" font-family="FreeSans.ttf" font-size="10.00" fill="#000000">Direction.h</text>
</a>
</g>
</g>
<!-- Node220&#45;&gt;Node224 -->
<g id="edge88" class="edge">
<title>Node220&#45;&gt;Node224</title>
<path fill="none" stroke="#191970" d="M272.0145,-228.3607C261.1155,-218.6727 247.7582,-206.7995 238.5817,-198.6427"/>
<polygon fill="#191970" stroke="#191970" points="269.9606,-231.2178 279.76,-235.2455 274.6111,-225.9859 269.9606,-231.2178"/>
</g>
<!-- Node221&#45;&gt;Node46 -->
<g id="edge86" class="edge">
<title>Node221&#45;&gt;Node46</title>
<path fill="none" stroke="#191970" d="M61.5852,-169.4959C68.2681,-151.0462 81.1648,-124.3915 102.7337,-112 145.7598,-87.2812 1839.1277,-77.2273 1888.7337,-76 1982.4315,-73.6819 2090.5933,-70.4084 2159.5325,-68.2466"/>
<polygon fill="#191970" stroke="#191970" points="58.1791,-168.6474 58.3498,-179.2408 64.8225,-170.8531 58.1791,-168.6474"/>
</g>
<!-- Node224&#45;&gt;Node94 -->
<g id="edge89" class="edge">
<title>Node224&#45;&gt;Node94</title>
<path fill="none" stroke="#191970" d="M259.9527,-175.0242C278.0552,-166.6526 300.7546,-155.2716 319.7337,-143 338.0369,-131.1654 337.2695,-119.5019 357.7337,-112 459.5175,-74.6876 2200.3597,-78.6878 2308.7337,-76 2408.2279,-73.5324 2525.0379,-69.6442 2586.6443,-67.5161"/>
<polygon fill="#191970" stroke="#191970" points="258.0798,-172.0306 250.4216,-179.352 260.974,-178.4043 258.0798,-172.0306"/>
</g>
<!-- Node224&#45;&gt;Node95 -->
<g id="edge90" class="edge">
<title>Node224&#45;&gt;Node95</title>
<path fill="none" stroke="#191970" d="M227.7337,-169.2462C227.7337,-158.5519 227.7337,-145.814 227.7337,-137.2449"/>
<polygon fill="#191970" stroke="#191970" points="224.2338,-169.3906 227.7337,-179.3906 231.2338,-169.3907 224.2338,-169.3906"/>
</g>
<!-- Node224&#45;&gt;Node107 -->
<g id="edge91" class="edge">
<title>Node224&#45;&gt;Node107</title>
<path fill="none" stroke="#191970" d="M272.9949,-182.9757C284.928,-181.5258 297.8032,-180.0844 309.7337,-179 575.7833,-154.819 645.4025,-181.6795 909.7337,-143 919.6329,-141.5515 930.2345,-139.3561 939.9808,-137.0694"/>
<polygon fill="#191970" stroke="#191970" points="272.2899,-179.5363 262.7981,-184.2434 273.1536,-186.4829 272.2899,-179.5363"/>
</g>
<!-- Node224&#45;&gt;Node219 -->
<g id="edge92" class="edge">
<title>Node224&#45;&gt;Node219</title>
<path fill="none" stroke="#191970" d="M268.7092,-176.4001C306.6694,-164.7273 362.3021,-147.6202 396.7032,-137.0419"/>
<polygon fill="#191970" stroke="#191970" points="267.5133,-173.106 258.9837,-179.3906 269.5708,-179.7968 267.5133,-173.106"/>
</g>
</g>
</svg>
