<?xml version="1.0" encoding="UTF-8" standalone="no"?>
<!DOCTYPE svg PUBLIC "-//W3C//DTD SVG 1.1//EN"
 "http://www.w3.org/Graphics/SVG/1.1/DTD/svg11.dtd">
<!-- Generated by graphviz version 2.40.1 (20161225.0304)
 -->
<!-- Title: SpatialInertiaRaw.h Pages: 1 -->
<svg width="4835pt" height="341pt"
 viewBox="0.00 0.00 4834.50 341.00" xmlns="http://www.w3.org/2000/svg" xmlns:xlink="http://www.w3.org/1999/xlink">
<g id="graph0" class="graph" transform="scale(1 1) rotate(0) translate(4 337)">
<title>SpatialInertiaRaw.h</title>
<!-- Node10 -->
<g id="node1" class="node">
<title>Node10</title>
<polygon fill="#bfbfbf" stroke="#000000" points="715.5,-313.5 715.5,-332.5 826.5,-332.5 826.5,-313.5 715.5,-313.5"/>
<text text-anchor="middle" x="771" y="-320.5" font-family="FreeSans.ttf" font-size="10.00" fill="#000000">SpatialInertiaRaw.h</text>
</g>
<!-- Node11 -->
<g id="node2" class="node">
<title>Node11</title>
<g id="a_node2"><a xlink:href="SpatialInertia_8h.html" target="_top" xlink:title="SpatialInertia.h">
<polygon fill="none" stroke="#000000" points="663.5,-257.5 663.5,-276.5 754.5,-276.5 754.5,-257.5 663.5,-257.5"/>
<text text-anchor="middle" x="709" y="-264.5" font-family="FreeSans.ttf" font-size="10.00" fill="#000000">SpatialInertia.h</text>
</a>
</g>
</g>
<!-- Node10&#45;&gt;Node11 -->
<g id="edge1" class="edge">
<title>Node10&#45;&gt;Node11</title>
<path fill="none" stroke="#191970" d="M752.5779,-306.3607C741.8519,-296.6727 728.7066,-284.7995 719.6758,-276.6427"/>
<polygon fill="#191970" stroke="#191970" points="750.4334,-309.14 760.2004,-313.2455 755.1254,-303.9453 750.4334,-309.14"/>
</g>
<!-- Node128 -->
<g id="node50" class="node">
<title>Node128</title>
<g id="a_node50"><a xlink:href="SpatialInertiaRaw_8cpp.html" target="_top" xlink:title="SpatialInertiaRaw.cpp">
<polygon fill="none" stroke="#000000" points="773,-257.5 773,-276.5 895,-276.5 895,-257.5 773,-257.5"/>
<text text-anchor="middle" x="834" y="-264.5" font-family="FreeSans.ttf" font-size="10.00" fill="#000000">SpatialInertiaRaw.cpp</text>
</a>
</g>
</g>
<!-- Node10&#45;&gt;Node128 -->
<g id="edge61" class="edge">
<title>Node10&#45;&gt;Node128</title>
<path fill="none" stroke="#191970" d="M789.7192,-306.3607C800.6182,-296.6727 813.9755,-284.7995 823.152,-276.6427"/>
<polygon fill="#191970" stroke="#191970" points="787.1226,-303.9859 781.9738,-313.2455 791.7732,-309.2178 787.1226,-303.9859"/>
</g>
<!-- Node12 -->
<g id="node3" class="node">
<title>Node12</title>
<g id="a_node3"><a xlink:href="ArticulatedBodyInertia_8cpp.html" target="_top" xlink:title="ArticulatedBodyInertia.cpp">
<polygon fill="none" stroke="#000000" points="0,-196 0,-215 146,-215 146,-196 0,-196"/>
<text text-anchor="middle" x="73" y="-203" font-family="FreeSans.ttf" font-size="10.00" fill="#000000">ArticulatedBodyInertia.cpp</text>
</a>
</g>
</g>
<!-- Node11&#45;&gt;Node12 -->
<g id="edge2" class="edge">
<title>Node11&#45;&gt;Node12</title>
<path fill="none" stroke="#191970" d="M653.027,-264.2809C552.8135,-258.984 336.2699,-245.59 155,-221 143.2275,-219.403 130.5835,-217.2388 118.8343,-215.0346"/>
<polygon fill="#191970" stroke="#191970" points="653.0538,-267.787 663.2226,-264.813 653.4187,-260.7965 653.0538,-267.787"/>
</g>
<!-- Node13 -->
<g id="node4" class="node">
<title>Node13</title>
<g id="a_node4"><a xlink:href="InertiaNonLinearParametrization_8cpp.html" target="_top" xlink:title="InertiaNonLinearParametrization.cpp">
<polygon fill="none" stroke="#000000" points="164.5,-196 164.5,-215 359.5,-215 359.5,-196 164.5,-196"/>
<text text-anchor="middle" x="262" y="-203" font-family="FreeSans.ttf" font-size="10.00" fill="#000000">InertiaNonLinearParametrization.cpp</text>
</a>
</g>
</g>
<!-- Node11&#45;&gt;Node13 -->
<g id="edge3" class="edge">
<title>Node11&#45;&gt;Node13</title>
<path fill="none" stroke="#191970" d="M653.4801,-259.7031C585.9716,-250.7862 468.5784,-235.137 368,-221 354.5553,-219.1102 340.1589,-217.0379 326.447,-215.0407"/>
<polygon fill="#191970" stroke="#191970" points="653.1012,-263.1834 663.4733,-261.0221 654.0172,-256.2436 653.1012,-263.1834"/>
</g>
<!-- Node14 -->
<g id="node5" class="node">
<title>Node14</title>
<g id="a_node5"><a xlink:href="SpatialInertia_8cpp.html" target="_top" xlink:title="SpatialInertia.cpp">
<polygon fill="none" stroke="#000000" points="377,-196 377,-215 479,-215 479,-196 377,-196"/>
<text text-anchor="middle" x="428" y="-203" font-family="FreeSans.ttf" font-size="10.00" fill="#000000">SpatialInertia.cpp</text>
</a>
</g>
</g>
<!-- Node11&#45;&gt;Node14 -->
<g id="edge4" class="edge">
<title>Node11&#45;&gt;Node14</title>
<path fill="none" stroke="#191970" d="M653.337,-256.1765C608.5512,-247.2847 544.064,-234.0685 488,-221 480.1417,-219.1682 471.738,-217.0794 463.783,-215.0413"/>
<polygon fill="#191970" stroke="#191970" points="652.659,-259.6101 663.1482,-258.1178 654.0178,-252.7432 652.659,-259.6101"/>
</g>
<!-- Node15 -->
<g id="node6" class="node">
<title>Node15</title>
<g id="a_node6"><a xlink:href="TestUtils_8cpp.html" target="_top" xlink:title="TestUtils.cpp">
<polygon fill="none" stroke="#000000" points="497.5,-196 497.5,-215 576.5,-215 576.5,-196 497.5,-196"/>
<text text-anchor="middle" x="537" y="-203" font-family="FreeSans.ttf" font-size="10.00" fill="#000000">TestUtils.cpp</text>
</a>
</g>
</g>
<!-- Node11&#45;&gt;Node15 -->
<g id="edge5" class="edge">
<title>Node11&#45;&gt;Node15</title>
<path fill="none" stroke="#191970" d="M672.5035,-253.9504C639.8968,-242.2916 592.8935,-225.4852 563.6863,-215.0419"/>
<polygon fill="#191970" stroke="#191970" points="671.5304,-257.3194 682.125,-257.3906 673.8872,-250.7281 671.5304,-257.3194"/>
</g>
<!-- Node16 -->
<g id="node7" class="node">
<title>Node16</title>
<g id="a_node7"><a xlink:href="Transform_8cpp.html" target="_top" xlink:title="Transform.cpp">
<polygon fill="none" stroke="#000000" points="595,-196 595,-215 681,-215 681,-196 595,-196"/>
<text text-anchor="middle" x="638" y="-203" font-family="FreeSans.ttf" font-size="10.00" fill="#000000">Transform.cpp</text>
</a>
</g>
</g>
<!-- Node11&#45;&gt;Node16 -->
<g id="edge6" class="edge">
<title>Node11&#45;&gt;Node16</title>
<path fill="none" stroke="#191970" d="M690.0068,-250.5482C676.9978,-239.2798 660.1843,-224.716 649.2502,-215.2449"/>
<polygon fill="#191970" stroke="#191970" points="688.056,-253.4888 697.9063,-257.3906 692.6391,-248.1978 688.056,-253.4888"/>
</g>
<!-- Node17 -->
<g id="node8" class="node">
<title>Node17</title>
<g id="a_node8"><a xlink:href="KinDynComputations_8cpp.html" target="_top" xlink:title="KinDynComputations.cpp">
<polygon fill="none" stroke="#000000" points="722,-6 722,-25 862,-25 862,-6 722,-6"/>
<text text-anchor="middle" x="792" y="-13" font-family="FreeSans.ttf" font-size="10.00" fill="#000000">KinDynComputations.cpp</text>
</a>
</g>
</g>
<!-- Node11&#45;&gt;Node17 -->
<g id="edge7" class="edge">
<title>Node11&#45;&gt;Node17</title>
<path fill="none" stroke="#191970" d="M704.8388,-247.4027C695.8792,-203.1428 676.977,-96.9746 695,-67 707.8708,-45.5942 732.9692,-32.6103 754.4107,-25.0343"/>
<polygon fill="#191970" stroke="#191970" points="701.42,-248.154 706.8739,-257.2373 708.2748,-246.7355 701.42,-248.154"/>
</g>
<!-- Node18 -->
<g id="node9" class="node">
<title>Node18</title>
<g id="a_node9"><a xlink:href="DynamicsUtils_8h.html" target="_top" xlink:title="DynamicsUtils.h">
<polygon fill="none" stroke="#000000" points="3209.5,-196 3209.5,-215 3306.5,-215 3306.5,-196 3209.5,-196"/>
<text text-anchor="middle" x="3258" y="-203" font-family="FreeSans.ttf" font-size="10.00" fill="#000000">DynamicsUtils.h</text>
</a>
</g>
</g>
<!-- Node11&#45;&gt;Node18 -->
<g id="edge8" class="edge">
<title>Node11&#45;&gt;Node18</title>
<path fill="none" stroke="#191970" d="M764.6467,-257.1564C1318.2638,-205.5348 2662.4108,-289.5592 3195,-221 3204.9426,-219.7201 3215.5865,-217.4567 3225.2423,-215.0484"/>
<polygon fill="#191970" stroke="#191970" points="764.1587,-253.687 754.5372,-258.1229 764.8249,-260.6553 764.1587,-253.687"/>
</g>
<!-- Node19 -->
<g id="node10" class="node">
<title>Node19</title>
<g id="a_node10"><a xlink:href="Link_8h.html" target="_top" xlink:title="Link.h">
<polygon fill="none" stroke="#000000" points="2829,-196 2829,-215 2875,-215 2875,-196 2829,-196"/>
<text text-anchor="middle" x="2852" y="-203" font-family="FreeSans.ttf" font-size="10.00" fill="#000000">Link.h</text>
</a>
</g>
</g>
<!-- Node11&#45;&gt;Node19 -->
<g id="edge9" class="edge">
<title>Node11&#45;&gt;Node19</title>
<path fill="none" stroke="#191970" d="M764.672,-257.1381C1214.9148,-212.852 2630.5734,-206.288 2828.8498,-205.5747"/>
<polygon fill="#191970" stroke="#191970" points="764.1399,-253.6739 754.5407,-258.1578 764.841,-260.6387 764.1399,-253.6739"/>
</g>
<!-- Node40 -->
<g id="node23" class="node">
<title>Node40</title>
<g id="a_node23"><a xlink:href="Dynamics_8cpp.html" target="_top" xlink:title="Dynamics.cpp">
<polygon fill="none" stroke="#000000" points="704,-73 704,-92 790,-92 790,-73 704,-73"/>
<text text-anchor="middle" x="747" y="-80" font-family="FreeSans.ttf" font-size="10.00" fill="#000000">Dynamics.cpp</text>
</a>
</g>
</g>
<!-- Node11&#45;&gt;Node40 -->
<g id="edge58" class="edge">
<title>Node11&#45;&gt;Node40</title>
<path fill="none" stroke="#191970" d="M715.5022,-247.5534C718.0717,-239.4114 720.9048,-229.809 723,-221 734.3501,-173.2803 742.6723,-115.1143 745.7243,-92.3237"/>
<polygon fill="#191970" stroke="#191970" points="712.1209,-246.6338 712.3604,-257.226 718.7785,-248.7964 712.1209,-246.6338"/>
</g>
<!-- Node59 -->
<g id="node45" class="node">
<title>Node59</title>
<g id="a_node45"><a xlink:href="URDFModelExport_8cpp.html" target="_top" xlink:title="URDFModelExport.cpp">
<polygon fill="none" stroke="#000000" points="4701.5,-73 4701.5,-92 4826.5,-92 4826.5,-73 4701.5,-73"/>
<text text-anchor="middle" x="4764" y="-80" font-family="FreeSans.ttf" font-size="10.00" fill="#000000">URDFModelExport.cpp</text>
</a>
</g>
</g>
<!-- Node11&#45;&gt;Node59 -->
<g id="edge59" class="edge">
<title>Node11&#45;&gt;Node59</title>
<path fill="none" stroke="#191970" d="M764.8036,-257.1359C1249.5822,-211.2273 2416.9229,-247.7604 2884,-221 3025.3292,-212.9028 3059.8912,-201.3058 3201,-190 3854.4049,-137.6485 4021.8735,-173.584 4673,-98 4686.213,-96.4662 4700.4239,-94.2977 4713.5967,-92.0672"/>
<polygon fill="#191970" stroke="#191970" points="764.1537,-253.6824 754.5379,-258.1306 764.8289,-260.6497 764.1537,-253.6824"/>
</g>
<!-- Node119 -->
<g id="node49" class="node">
<title>Node119</title>
<g id="a_node49"><a xlink:href="InertialParametersSolidShapesHelpers_8cpp.html" target="_top" xlink:title="InertialParametersSolidShapes\lHelpers.cpp">
<polygon fill="none" stroke="#000000" points="3325,-190.5 3325,-220.5 3491,-220.5 3491,-190.5 3325,-190.5"/>
<text text-anchor="start" x="3333" y="-208.5" font-family="FreeSans.ttf" font-size="10.00" fill="#000000">InertialParametersSolidShapes</text>
<text text-anchor="middle" x="3408" y="-197.5" font-family="FreeSans.ttf" font-size="10.00" fill="#000000">Helpers.cpp</text>
</a>
</g>
</g>
<!-- Node11&#45;&gt;Node119 -->
<g id="edge60" class="edge">
<title>Node11&#45;&gt;Node119</title>
<path fill="none" stroke="#191970" d="M764.7133,-257.1483C1345.1448,-202.9008 2754.4636,-271.9629 3316,-221 3318.9036,-220.7365 3321.8537,-220.4334 3324.8294,-220.0976"/>
<polygon fill="#191970" stroke="#191970" points="764.1588,-253.6852 754.5369,-258.1204 764.8245,-260.6535 764.1588,-253.6852"/>
</g>
<!-- Node20 -->
<g id="node11" class="node">
<title>Node20</title>
<g id="a_node11"><a xlink:href="Model_8h.html" target="_top" xlink:title="Model.h">
<polygon fill="none" stroke="#ff0000" points="2735.5,-134.5 2735.5,-153.5 2790.5,-153.5 2790.5,-134.5 2735.5,-134.5"/>
<text text-anchor="middle" x="2763" y="-141.5" font-family="FreeSans.ttf" font-size="10.00" fill="#000000">Model.h</text>
</a>
</g>
</g>
<!-- Node19&#45;&gt;Node20 -->
<g id="edge10" class="edge">
<title>Node19&#45;&gt;Node20</title>
<path fill="none" stroke="#191970" d="M2829.5236,-189.9685C2812.9322,-178.5037 2790.8794,-163.265 2776.8086,-153.5419"/>
<polygon fill="#191970" stroke="#191970" points="2827.8771,-193.0851 2838.0938,-195.8906 2831.8565,-187.3263 2827.8771,-193.0851"/>
</g>
<!-- Node126 -->
<g id="node46" class="node">
<title>Node126</title>
<g id="a_node46"><a xlink:href="Link_8cpp.html" target="_top" xlink:title="Link.cpp">
<polygon fill="none" stroke="#000000" points="2913.5,-134.5 2913.5,-153.5 2970.5,-153.5 2970.5,-134.5 2913.5,-134.5"/>
<text text-anchor="middle" x="2942" y="-141.5" font-family="FreeSans.ttf" font-size="10.00" fill="#000000">Link.cpp</text>
</a>
</g>
</g>
<!-- Node19&#45;&gt;Node126 -->
<g id="edge53" class="edge">
<title>Node19&#45;&gt;Node126</title>
<path fill="none" stroke="#191970" d="M2874.729,-189.9685C2891.5068,-178.5037 2913.8074,-163.265 2928.0362,-153.5419"/>
<polygon fill="#191970" stroke="#191970" points="2872.3443,-187.3589 2866.0625,-195.8906 2876.2936,-193.1384 2872.3443,-187.3589"/>
</g>
<!-- Node127 -->
<g id="node47" class="node">
<title>Node127</title>
<g id="a_node47"><a xlink:href="LinkElement_8h.html" target="_top" xlink:title="LinkElement.h">
<polygon fill="none" stroke="#000000" points="2809,-134.5 2809,-153.5 2895,-153.5 2895,-134.5 2809,-134.5"/>
<text text-anchor="middle" x="2852" y="-141.5" font-family="FreeSans.ttf" font-size="10.00" fill="#000000">LinkElement.h</text>
</a>
</g>
</g>
<!-- Node19&#45;&gt;Node127 -->
<g id="edge54" class="edge">
<title>Node19&#45;&gt;Node127</title>
<path fill="none" stroke="#191970" d="M2852,-185.7462C2852,-175.0519 2852,-162.314 2852,-153.7449"/>
<polygon fill="#191970" stroke="#191970" points="2848.5001,-185.8906 2852,-195.8906 2855.5001,-185.8907 2848.5001,-185.8906"/>
</g>
<!-- Node113 -->
<g id="node48" class="node">
<title>Node113</title>
<g id="a_node48"><a xlink:href="SixAxisForceTorqueSensor_8cpp.html" target="_top" xlink:title="SixAxisForceTorqueSensor.cpp">
<polygon fill="none" stroke="#000000" points="2989,-134.5 2989,-153.5 3153,-153.5 3153,-134.5 2989,-134.5"/>
<text text-anchor="middle" x="3071" y="-141.5" font-family="FreeSans.ttf" font-size="10.00" fill="#000000">SixAxisForceTorqueSensor.cpp</text>
</a>
</g>
</g>
<!-- Node19&#45;&gt;Node113 -->
<g id="edge57" class="edge">
<title>Node19&#45;&gt;Node113</title>
<path fill="none" stroke="#191970" d="M2884.7713,-196.2971C2925.6858,-184.8074 2995.3331,-165.2489 3036.8714,-153.5841"/>
<polygon fill="#191970" stroke="#191970" points="2883.7042,-192.9613 2875.0229,-199.0347 2885.5968,-199.7006 2883.7042,-192.9613"/>
</g>
<!-- Node20&#45;&gt;Node17 -->
<g id="edge18" class="edge">
<title>Node20&#45;&gt;Node17</title>
<path fill="none" stroke="#191970" d="M2725.3155,-143.9401C2465.9057,-143.4216 952.4216,-138.658 865,-98 831.5313,-82.4344 807.0358,-43.4479 797.0063,-25.2019"/>
<polygon fill="#191970" stroke="#191970" points="2725.3662,-147.4401 2735.3729,-143.9592 2725.3796,-140.4401 2725.3662,-147.4401"/>
</g>
<!-- Node21 -->
<g id="node12" class="node">
<title>Node21</title>
<g id="a_node12"><a xlink:href="ExtWrenchesAndJointTorquesEstimator_8h.html" target="_top" xlink:title="ExtWrenchesAndJointTorques\lEstimator.h">
<polygon fill="none" stroke="#000000" points="884,-67.5 884,-97.5 1042,-97.5 1042,-67.5 884,-67.5"/>
<text text-anchor="start" x="892" y="-85.5" font-family="FreeSans.ttf" font-size="10.00" fill="#000000">ExtWrenchesAndJointTorques</text>
<text text-anchor="middle" x="963" y="-74.5" font-family="FreeSans.ttf" font-size="10.00" fill="#000000">Estimator.h</text>
</a>
</g>
</g>
<!-- Node20&#45;&gt;Node21 -->
<g id="edge11" class="edge">
<title>Node20&#45;&gt;Node21</title>
<path fill="none" stroke="#191970" d="M2725.1519,-143.7431C2505.4188,-142.1363 1391.7213,-132.3945 1051,-98 1048.0674,-97.704 1045.0854,-97.3665 1042.0775,-96.9954"/>
<polygon fill="#191970" stroke="#191970" points="2725.1961,-147.2434 2735.2211,-143.8155 2725.2465,-140.2435 2725.1961,-147.2434"/>
</g>
<!-- Node22 -->
<g id="node13" class="node">
<title>Node22</title>
<g id="a_node13"><a xlink:href="ExtWrenchesAndJointTorquesEstimator_8cpp.html" target="_top" xlink:title="ExtWrenchesAndJointTorques\lEstimator.cpp">
<polygon fill="none" stroke="#000000" points="880,-.5 880,-30.5 1038,-30.5 1038,-.5 880,-.5"/>
<text text-anchor="start" x="888" y="-18.5" font-family="FreeSans.ttf" font-size="10.00" fill="#000000">ExtWrenchesAndJointTorques</text>
<text text-anchor="middle" x="959" y="-7.5" font-family="FreeSans.ttf" font-size="10.00" fill="#000000">Estimator.cpp</text>
</a>
</g>
</g>
<!-- Node20&#45;&gt;Node22 -->
<g id="edge17" class="edge">
<title>Node20&#45;&gt;Node22</title>
<path fill="none" stroke="#191970" d="M2725.1669,-143.8043C2461.5516,-142.3534 908.5277,-132.3545 875,-98 851.5864,-74.009 892.6451,-46.8984 925.1799,-30.5112"/>
<polygon fill="#191970" stroke="#191970" points="2725.3595,-147.3053 2735.3784,-143.8597 2725.3976,-140.3054 2725.3595,-147.3053"/>
</g>
<!-- Node23 -->
<g id="node14" class="node">
<title>Node23</title>
<g id="a_node14"><a xlink:href="GravityCompensationHelpers_8h.html" target="_top" xlink:title="GravityCompensationHelpers.h">
<polygon fill="none" stroke="#ff0000" points="1242,-73 1242,-92 1412,-92 1412,-73 1242,-73"/>
<text text-anchor="middle" x="1327" y="-80" font-family="FreeSans.ttf" font-size="10.00" fill="#000000">GravityCompensationHelpers.h</text>
</a>
</g>
</g>
<!-- Node20&#45;&gt;Node23 -->
<g id="edge13" class="edge">
<title>Node20&#45;&gt;Node23</title>
<path fill="none" stroke="#191970" d="M2725.2719,-143.3663C2535.5233,-140.0784 1684.2558,-124.1062 1421,-98 1406.8452,-96.5963 1391.5924,-94.3865 1377.5767,-92.0706"/>
<polygon fill="#191970" stroke="#191970" points="2725.2573,-146.8664 2735.316,-143.5391 2725.3778,-139.8675 2725.2573,-146.8664"/>
</g>
<!-- Node25 -->
<g id="node15" class="node">
<title>Node25</title>
<g id="a_node15"><a xlink:href="SimpleLeggedOdometry_8h.html" target="_top" xlink:title="SimpleLeggedOdometry.h">
<polygon fill="none" stroke="#ff0000" points="1430,-73 1430,-92 1572,-92 1572,-73 1430,-73"/>
<text text-anchor="middle" x="1501" y="-80" font-family="FreeSans.ttf" font-size="10.00" fill="#000000">SimpleLeggedOdometry.h</text>
</a>
</g>
</g>
<!-- Node20&#45;&gt;Node25 -->
<g id="edge14" class="edge">
<title>Node20&#45;&gt;Node25</title>
<path fill="none" stroke="#191970" d="M2725.362,-143.3086C2549.834,-139.9659 1810.533,-124.5454 1581,-98 1568.914,-96.6023 1555.9199,-94.3944 1543.9919,-92.0784"/>
<polygon fill="#191970" stroke="#191970" points="2725.34,-146.8087 2735.4043,-143.4984 2725.4722,-139.81 2725.34,-146.8087"/>
</g>
<!-- Node27 -->
<g id="node16" class="node">
<title>Node27</title>
<g id="a_node16"><a xlink:href="BerdyHelper_8cpp.html" target="_top" xlink:title="BerdyHelper.cpp">
<polygon fill="none" stroke="#000000" points="1590.5,-73 1590.5,-92 1687.5,-92 1687.5,-73 1590.5,-73"/>
<text text-anchor="middle" x="1639" y="-80" font-family="FreeSans.ttf" font-size="10.00" fill="#000000">BerdyHelper.cpp</text>
</a>
</g>
</g>
<!-- Node20&#45;&gt;Node27 -->
<g id="edge15" class="edge">
<title>Node20&#45;&gt;Node27</title>
<path fill="none" stroke="#191970" d="M2725.3349,-143.4989C2560.3548,-141.1315 1900.5989,-129.822 1696,-98 1687.184,-96.6288 1677.777,-94.3995 1669.1988,-92.0536"/>
<polygon fill="#191970" stroke="#191970" points="2725.4278,-147.0005 2735.4762,-143.642 2725.5267,-140.0012 2725.4278,-147.0005"/>
</g>
<!-- Node28 -->
<g id="node17" class="node">
<title>Node28</title>
<g id="a_node17"><a xlink:href="ExternalWrenchesEstimation_8cpp.html" target="_top" xlink:title="ExternalWrenchesEstimation.cpp">
<polygon fill="none" stroke="#000000" points="1705.5,-73 1705.5,-92 1882.5,-92 1882.5,-73 1705.5,-73"/>
<text text-anchor="middle" x="1794" y="-80" font-family="FreeSans.ttf" font-size="10.00" fill="#000000">ExternalWrenchesEstimation.cpp</text>
</a>
</g>
</g>
<!-- Node20&#45;&gt;Node28 -->
<g id="edge16" class="edge">
<title>Node20&#45;&gt;Node28</title>
<path fill="none" stroke="#191970" d="M2725.1719,-143.4321C2603.6811,-141.3033 2212.579,-132.0787 1891,-98 1876.6697,-96.4814 1861.2313,-94.2765 1846.9777,-92.0039"/>
<polygon fill="#191970" stroke="#191970" points="2725.3681,-146.9359 2735.426,-143.606 2725.4868,-139.9369 2725.3681,-146.9359"/>
</g>
<!-- Node29 -->
<g id="node18" class="node">
<title>Node29</title>
<g id="a_node18"><a xlink:href="skinDynLibConversions_8cpp.html" target="_top" xlink:title="skinDynLibConversions.cpp">
<polygon fill="none" stroke="#000000" points="1900.5,-73 1900.5,-92 2051.5,-92 2051.5,-73 1900.5,-73"/>
<text text-anchor="middle" x="1976" y="-80" font-family="FreeSans.ttf" font-size="10.00" fill="#000000">skinDynLibConversions.cpp</text>
</a>
</g>
</g>
<!-- Node20&#45;&gt;Node29 -->
<g id="edge19" class="edge">
<title>Node20&#45;&gt;Node29</title>
<path fill="none" stroke="#191970" d="M2725.3319,-143.0544C2619.9914,-140.0823 2313.5453,-129.1956 2061,-98 2048.6437,-96.4737 2035.3646,-94.3078 2023.0601,-92.0774"/>
<polygon fill="#191970" stroke="#191970" points="2725.3708,-146.5567 2735.4633,-143.3331 2725.5633,-139.5594 2725.3708,-146.5567"/>
</g>
<!-- Node30 -->
<g id="node19" class="node">
<title>Node30</title>
<g id="a_node19"><a xlink:href="InverseKinematicsData_8h.html" target="_top" xlink:title="InverseKinematicsData.h">
<polygon fill="none" stroke="#ff0000" points="2070,-73 2070,-92 2210,-92 2210,-73 2070,-73"/>
<text text-anchor="middle" x="2140" y="-80" font-family="FreeSans.ttf" font-size="10.00" fill="#000000">InverseKinematicsData.h</text>
</a>
</g>
</g>
<!-- Node20&#45;&gt;Node30 -->
<g id="edge20" class="edge">
<title>Node20&#45;&gt;Node30</title>
<path fill="none" stroke="#191970" d="M2725.3234,-142.2361C2636.6917,-137.7772 2408.1945,-124.4783 2219,-98 2207.6497,-96.4115 2195.4652,-94.2503 2184.1456,-92.0463"/>
<polygon fill="#191970" stroke="#191970" points="2725.2659,-145.7375 2735.4268,-142.7364 2725.6121,-138.746 2725.2659,-145.7375"/>
</g>
<!-- Node34 -->
<g id="node20" class="node">
<title>Node34</title>
<g id="a_node20"><a xlink:href="DenavitHartenberg_8h.html" target="_top" xlink:title="DenavitHartenberg.h">
<polygon fill="none" stroke="#ff0000" points="2228.5,-73 2228.5,-92 2347.5,-92 2347.5,-73 2228.5,-73"/>
<text text-anchor="middle" x="2288" y="-80" font-family="FreeSans.ttf" font-size="10.00" fill="#000000">DenavitHartenberg.h</text>
</a>
</g>
</g>
<!-- Node20&#45;&gt;Node34 -->
<g id="edge21" class="edge">
<title>Node20&#45;&gt;Node34</title>
<path fill="none" stroke="#191970" d="M2725.2429,-141.1492C2653.1325,-135.3916 2490.9732,-120.9368 2356,-98 2346.3308,-96.3569 2335.9728,-94.2018 2326.3298,-92.0232"/>
<polygon fill="#191970" stroke="#191970" points="2724.9705,-144.6385 2735.2147,-141.9355 2725.5209,-137.6601 2724.9705,-144.6385"/>
</g>
<!-- Node38 -->
<g id="node21" class="node">
<title>Node38</title>
<g id="a_node21"><a xlink:href="ModelTestUtils_8h.html" target="_top" xlink:title="ModelTestUtils.h">
<polygon fill="none" stroke="#ff0000" points="2365.5,-73 2365.5,-92 2462.5,-92 2462.5,-73 2365.5,-73"/>
<text text-anchor="middle" x="2414" y="-80" font-family="FreeSans.ttf" font-size="10.00" fill="#000000">ModelTestUtils.h</text>
</a>
</g>
</g>
<!-- Node20&#45;&gt;Node38 -->
<g id="edge22" class="edge">
<title>Node20&#45;&gt;Node38</title>
<path fill="none" stroke="#191970" d="M2725.0116,-139.2829C2669.2285,-132.0656 2562.0166,-117.0884 2472,-98 2463.9451,-96.2919 2455.3382,-94.162 2447.2871,-92.0332"/>
<polygon fill="#191970" stroke="#191970" points="2724.7741,-142.781 2735.1379,-140.5807 2725.664,-135.8378 2724.7741,-142.781"/>
</g>
<!-- Node39 -->
<g id="node22" class="node">
<title>Node39</title>
<g id="a_node22"><a xlink:href="ContactWrench_8cpp.html" target="_top" xlink:title="ContactWrench.cpp">
<polygon fill="none" stroke="#000000" points="2481,-73 2481,-92 2591,-92 2591,-73 2481,-73"/>
<text text-anchor="middle" x="2536" y="-80" font-family="FreeSans.ttf" font-size="10.00" fill="#000000">ContactWrench.cpp</text>
</a>
</g>
</g>
<!-- Node20&#45;&gt;Node39 -->
<g id="edge23" class="edge">
<title>Node20&#45;&gt;Node39</title>
<path fill="none" stroke="#191970" d="M2725.3953,-133.8119C2682.5173,-122.1952 2612.9655,-103.3519 2571.142,-92.0208"/>
<polygon fill="#191970" stroke="#191970" points="2724.598,-137.2221 2735.1653,-136.4589 2726.4286,-130.4656 2724.598,-137.2221"/>
</g>
<!-- Node20&#45;&gt;Node40 -->
<g id="edge24" class="edge">
<title>Node20&#45;&gt;Node40</title>
<path fill="none" stroke="#191970" d="M2724.8844,-143.6598C2468.5837,-141.2985 1000.5385,-126.5978 804,-98 794.968,-96.6858 785.3268,-94.4119 776.5916,-92.0046"/>
<polygon fill="#191970" stroke="#191970" points="2725.1396,-147.1621 2735.1712,-143.7539 2725.2037,-140.1624 2725.1396,-147.1621"/>
</g>
<!-- Node41 -->
<g id="node24" class="node">
<title>Node41</title>
<g id="a_node24"><a xlink:href="DynamicsLinearization_8cpp.html" target="_top" xlink:title="DynamicsLinearization.cpp">
<polygon fill="none" stroke="#000000" points="2609.5,-73 2609.5,-92 2758.5,-92 2758.5,-73 2609.5,-73"/>
<text text-anchor="middle" x="2684" y="-80" font-family="FreeSans.ttf" font-size="10.00" fill="#000000">DynamicsLinearization.cpp</text>
</a>
</g>
</g>
<!-- Node20&#45;&gt;Node41 -->
<g id="edge25" class="edge">
<title>Node20&#45;&gt;Node41</title>
<path fill="none" stroke="#191970" d="M2742.6387,-128.1491C2727.96,-116.722 2708.6312,-101.6749 2696.2571,-92.0419"/>
<polygon fill="#191970" stroke="#191970" points="2740.6154,-131.0095 2750.6563,-134.3906 2744.9154,-125.4859 2740.6154,-131.0095"/>
</g>
<!-- Node42 -->
<g id="node25" class="node">
<title>Node42</title>
<g id="a_node25"><a xlink:href="ForwardKinematics_8cpp.html" target="_top" xlink:title="ForwardKinematics.cpp">
<polygon fill="none" stroke="#000000" points="2776.5,-73 2776.5,-92 2907.5,-92 2907.5,-73 2776.5,-73"/>
<text text-anchor="middle" x="2842" y="-80" font-family="FreeSans.ttf" font-size="10.00" fill="#000000">ForwardKinematics.cpp</text>
</a>
</g>
</g>
<!-- Node20&#45;&gt;Node42 -->
<g id="edge26" class="edge">
<title>Node20&#45;&gt;Node42</title>
<path fill="none" stroke="#191970" d="M2783.3613,-128.1491C2798.04,-116.722 2817.3688,-101.6749 2829.7429,-92.0419"/>
<polygon fill="#191970" stroke="#191970" points="2781.0846,-125.4859 2775.3438,-134.3906 2785.3846,-131.0095 2781.0846,-125.4859"/>
</g>
<!-- Node43 -->
<g id="node26" class="node">
<title>Node43</title>
<g id="a_node26"><a xlink:href="FreeFloatingMatrices_8cpp.html" target="_top" xlink:title="FreeFloatingMatrices.cpp">
<polygon fill="none" stroke="#000000" points="2925.5,-73 2925.5,-92 3062.5,-92 3062.5,-73 2925.5,-73"/>
<text text-anchor="middle" x="2994" y="-80" font-family="FreeSans.ttf" font-size="10.00" fill="#000000">FreeFloatingMatrices.cpp</text>
</a>
</g>
</g>
<!-- Node20&#45;&gt;Node43 -->
<g id="edge27" class="edge">
<title>Node20&#45;&gt;Node43</title>
<path fill="none" stroke="#191970" d="M2800.6453,-133.8351C2861.4573,-117.5569 2920.8831,-101.8166 2957.8746,-92.0382"/>
<polygon fill="#191970" stroke="#191970" points="2799.6307,-130.4834 2790.8767,-136.4514 2801.4418,-137.245 2799.6307,-130.4834"/>
</g>
<!-- Node44 -->
<g id="node27" class="node">
<title>Node44</title>
<g id="a_node27"><a xlink:href="FreeFloatingState_8cpp.html" target="_top" xlink:title="FreeFloatingState.cpp">
<polygon fill="none" stroke="#000000" points="3081,-73 3081,-92 3203,-92 3203,-73 3081,-73"/>
<text text-anchor="middle" x="3142" y="-80" font-family="FreeSans.ttf" font-size="10.00" fill="#000000">FreeFloatingState.cpp</text>
</a>
</g>
</g>
<!-- Node20&#45;&gt;Node44 -->
<g id="edge28" class="edge">
<title>Node20&#45;&gt;Node44</title>
<path fill="none" stroke="#191970" d="M2800.7419,-134.0854C2920.8868,-110.5449 2954.4773,-118.4224 3071,-98 3080.8175,-96.2793 3091.3372,-94.1446 3101.1906,-92.0151"/>
<polygon fill="#191970" stroke="#191970" points="2799.9106,-130.6821 2790.787,-136.0682 2801.2781,-137.5472 2799.9106,-130.6821"/>
</g>
<!-- Node45 -->
<g id="node28" class="node">
<title>Node45</title>
<g id="a_node28"><a xlink:href="Jacobians_8cpp.html" target="_top" xlink:title="Jacobians.cpp">
<polygon fill="none" stroke="#000000" points="3221.5,-73 3221.5,-92 3304.5,-92 3304.5,-73 3221.5,-73"/>
<text text-anchor="middle" x="3263" y="-80" font-family="FreeSans.ttf" font-size="10.00" fill="#000000">Jacobians.cpp</text>
</a>
</g>
</g>
<!-- Node20&#45;&gt;Node45 -->
<g id="edge29" class="edge">
<title>Node20&#45;&gt;Node45</title>
<path fill="none" stroke="#191970" d="M2800.6645,-134.1966C2982.8009,-102.966 3034.7096,-132.2995 3212,-98 3219.7228,-96.5059 3227.9396,-94.2952 3235.471,-92.0085"/>
<polygon fill="#191970" stroke="#191970" points="2800.0071,-130.7584 2790.7613,-135.9318 2801.2153,-137.6533 2800.0071,-130.7584"/>
</g>
<!-- Node46 -->
<g id="node29" class="node">
<title>Node46</title>
<g id="a_node29"><a xlink:href="JointState_8cpp.html" target="_top" xlink:title="JointState.cpp">
<polygon fill="none" stroke="#000000" points="3323,-73 3323,-92 3407,-92 3407,-73 3323,-73"/>
<text text-anchor="middle" x="3365" y="-80" font-family="FreeSans.ttf" font-size="10.00" fill="#000000">JointState.cpp</text>
</a>
</g>
</g>
<!-- Node20&#45;&gt;Node46 -->
<g id="edge30" class="edge">
<title>Node20&#45;&gt;Node46</title>
<path fill="none" stroke="#191970" d="M2800.6354,-134.2328C3027.6364,-97.1645 3091.9874,-138.9704 3314,-98 3321.8263,-96.5557 3330.1499,-94.3326 3337.7534,-92.0169"/>
<polygon fill="#191970" stroke="#191970" points="2800.041,-130.7835 2790.7522,-135.8794 2801.1915,-137.6883 2800.041,-130.7835"/>
</g>
<!-- Node47 -->
<g id="node30" class="node">
<title>Node47</title>
<g id="a_node30"><a xlink:href="LinkState_8cpp.html" target="_top" xlink:title="LinkState.cpp">
<polygon fill="none" stroke="#000000" points="3425.5,-73 3425.5,-92 3508.5,-92 3508.5,-73 3425.5,-73"/>
<text text-anchor="middle" x="3467" y="-80" font-family="FreeSans.ttf" font-size="10.00" fill="#000000">LinkState.cpp</text>
</a>
</g>
</g>
<!-- Node20&#45;&gt;Node47 -->
<g id="edge31" class="edge">
<title>Node20&#45;&gt;Node47</title>
<path fill="none" stroke="#191970" d="M2800.9075,-134.2102C3072.559,-91.3482 3149.3215,-145.6223 3416,-98 3423.8346,-96.6009 3432.1608,-94.3926 3439.7643,-92.0767"/>
<polygon fill="#191970" stroke="#191970" points="2800.0638,-130.8009 2790.7464,-135.8442 2801.1752,-137.7121 2800.0638,-130.8009"/>
</g>
<!-- Node48 -->
<g id="node31" class="node">
<title>Node48</title>
<g id="a_node31"><a xlink:href="LinkTraversalsCache_8cpp.html" target="_top" xlink:title="LinkTraversalsCache.cpp">
<polygon fill="none" stroke="#000000" points="3526.5,-73 3526.5,-92 3663.5,-92 3663.5,-73 3526.5,-73"/>
<text text-anchor="middle" x="3595" y="-80" font-family="FreeSans.ttf" font-size="10.00" fill="#000000">LinkTraversalsCache.cpp</text>
</a>
</g>
</g>
<!-- Node20&#45;&gt;Node48 -->
<g id="edge32" class="edge">
<title>Node20&#45;&gt;Node48</title>
<path fill="none" stroke="#191970" d="M2800.6599,-134.2589C3117.3559,-85.1223 3204.2069,-137.2291 3518,-98 3529.6366,-96.5452 3542.1446,-94.3187 3553.6253,-92.003"/>
<polygon fill="#191970" stroke="#191970" points="2800.077,-130.8075 2790.7423,-135.8189 2801.1647,-137.7225 2800.077,-130.8075"/>
</g>
<!-- Node49 -->
<g id="node32" class="node">
<title>Node49</title>
<g id="a_node32"><a xlink:href="Model_8cpp.html" target="_top" xlink:title="Model.cpp">
<polygon fill="none" stroke="#000000" points="3682,-73 3682,-92 3748,-92 3748,-73 3682,-73"/>
<text text-anchor="middle" x="3715" y="-80" font-family="FreeSans.ttf" font-size="10.00" fill="#000000">Model.cpp</text>
</a>
</g>
</g>
<!-- Node20&#45;&gt;Node49 -->
<g id="edge33" class="edge">
<title>Node20&#45;&gt;Node49</title>
<path fill="none" stroke="#191970" d="M2800.7526,-134.2676C3185.69,-76.657 3295.4638,-173.5003 3673,-98 3679.7069,-96.6587 3686.7657,-94.4081 3693.1419,-92.0317"/>
<polygon fill="#191970" stroke="#191970" points="2800.0976,-130.8269 2790.7381,-135.7918 2801.1509,-137.7472 2800.0976,-130.8269"/>
</g>
<!-- Node50 -->
<g id="node33" class="node">
<title>Node50</title>
<g id="a_node33"><a xlink:href="ModelTransformers_8cpp.html" target="_top" xlink:title="ModelTransformers.cpp">
<polygon fill="none" stroke="#000000" points="3766,-73 3766,-92 3896,-92 3896,-73 3766,-73"/>
<text text-anchor="middle" x="3831" y="-80" font-family="FreeSans.ttf" font-size="10.00" fill="#000000">ModelTransformers.cpp</text>
</a>
</g>
</g>
<!-- Node20&#45;&gt;Node50 -->
<g id="edge34" class="edge">
<title>Node20&#45;&gt;Node50</title>
<path fill="none" stroke="#191970" d="M2800.7585,-134.2671C3222.6007,-71.3031 3337.8319,-149.4095 3757,-98 3768.3347,-96.6098 3780.5119,-94.3744 3791.6499,-92.0288"/>
<polygon fill="#191970" stroke="#191970" points="2800.1015,-130.8265 2790.7364,-135.7808 2801.147,-137.748 2800.1015,-130.8265"/>
</g>
<!-- Node51 -->
<g id="node34" class="node">
<title>Node51</title>
<g id="a_node34"><a xlink:href="SolidShapes_8cpp.html" target="_top" xlink:title="SolidShapes.cpp">
<polygon fill="none" stroke="#000000" points="3914,-73 3914,-92 4010,-92 4010,-73 3914,-73"/>
<text text-anchor="middle" x="3962" y="-80" font-family="FreeSans.ttf" font-size="10.00" fill="#000000">SolidShapes.cpp</text>
</a>
</g>
</g>
<!-- Node20&#45;&gt;Node51 -->
<g id="edge35" class="edge">
<title>Node20&#45;&gt;Node51</title>
<path fill="none" stroke="#191970" d="M2800.84,-134.2663C3287.8169,-62.9023 3422.3973,-170.4638 3905,-98 3913.9245,-96.66 3923.4488,-94.4097 3932.1059,-92.0332"/>
<polygon fill="#191970" stroke="#191970" points="2800.1122,-130.8358 2790.7341,-135.7654 2801.1394,-137.76 2800.1122,-130.8358"/>
</g>
<!-- Node52 -->
<g id="node35" class="node">
<title>Node52</title>
<g id="a_node35"><a xlink:href="SubModel_8cpp.html" target="_top" xlink:title="SubModel.cpp">
<polygon fill="none" stroke="#000000" points="4028,-73 4028,-92 4112,-92 4112,-73 4028,-73"/>
<text text-anchor="middle" x="4070" y="-80" font-family="FreeSans.ttf" font-size="10.00" fill="#000000">SubModel.cpp</text>
</a>
</g>
</g>
<!-- Node20&#45;&gt;Node52 -->
<g id="edge36" class="edge">
<title>Node20&#45;&gt;Node52</title>
<path fill="none" stroke="#191970" d="M2800.676,-134.2964C3338.0087,-56.3369 3487.3726,-185.0418 4019,-98 4027.0366,-96.6842 4035.5744,-94.4415 4043.3192,-92.0645"/>
<polygon fill="#191970" stroke="#191970" points="2800.1183,-130.8406 2790.7327,-135.7561 2801.135,-137.7664 2800.1183,-130.8406"/>
</g>
<!-- Node53 -->
<g id="node36" class="node">
<title>Node53</title>
<g id="a_node36"><a xlink:href="Traversal_8cpp.html" target="_top" xlink:title="Traversal.cpp">
<polygon fill="none" stroke="#000000" points="4130.5,-73 4130.5,-92 4211.5,-92 4211.5,-73 4130.5,-73"/>
<text text-anchor="middle" x="4171" y="-80" font-family="FreeSans.ttf" font-size="10.00" fill="#000000">Traversal.cpp</text>
</a>
</g>
</g>
<!-- Node20&#45;&gt;Node53 -->
<g id="edge37" class="edge">
<title>Node20&#45;&gt;Node53</title>
<path fill="none" stroke="#191970" d="M2800.6366,-134.306C3382.9291,-50.4056 3544.7983,-193.3094 4121,-98 4128.8903,-96.6949 4137.2642,-94.4555 4144.8569,-92.0783"/>
<polygon fill="#191970" stroke="#191970" points="2800.1225,-130.8438 2790.7317,-135.7491 2801.1318,-137.7707 2800.1225,-130.8438"/>
</g>
<!-- Node54 -->
<g id="node37" class="node">
<title>Node54</title>
<g id="a_node37"><a xlink:href="ModelCalibrationHelper_8h.html" target="_top" xlink:title="ModelCalibrationHelper.h">
<polygon fill="none" stroke="#ff0000" points="4208,-6 4208,-25 4348,-25 4348,-6 4208,-6"/>
<text text-anchor="middle" x="4278" y="-13" font-family="FreeSans.ttf" font-size="10.00" fill="#000000">ModelCalibrationHelper.h</text>
</a>
</g>
</g>
<!-- Node20&#45;&gt;Node54 -->
<g id="edge38" class="edge">
<title>Node20&#45;&gt;Node54</title>
<path fill="none" stroke="#191970" d="M2800.9569,-134.6891C2949.3052,-123.31 4153.5049,-134.5023 4221,-98 4250.5542,-82.0167 4267.9436,-43.2423 4274.7125,-25.126"/>
<polygon fill="#191970" stroke="#191970" points="2800.3192,-131.2362 2790.7308,-135.7433 2801.037,-138.1993 2800.3192,-131.2362"/>
</g>
<!-- Node56 -->
<g id="node38" class="node">
<title>Node56</title>
<g id="a_node38"><a xlink:href="ModelExporter_8h.html" target="_top" xlink:title="ModelExporter.h">
<polygon fill="none" stroke="#ff0000" points="4268.5,-73 4268.5,-92 4363.5,-92 4363.5,-73 4268.5,-73"/>
<text text-anchor="middle" x="4316" y="-80" font-family="FreeSans.ttf" font-size="10.00" fill="#000000">ModelExporter.h</text>
</a>
</g>
</g>
<!-- Node20&#45;&gt;Node56 -->
<g id="edge39" class="edge">
<title>Node20&#45;&gt;Node56</title>
<path fill="none" stroke="#191970" d="M2800.6749,-134.3032C3441.4903,-42.4768 3616.7338,-184.4707 4254,-98 4263.6751,-96.6872 4274.0247,-94.4454 4283.4419,-92.0684"/>
<polygon fill="#191970" stroke="#191970" points="2800.1265,-130.846 2790.7306,-135.7415 2801.1286,-137.7739 2800.1265,-130.846"/>
</g>
<!-- Node60 -->
<g id="node39" class="node">
<title>Node60</title>
<g id="a_node39"><a xlink:href="ModelLoader_8h.html" target="_top" xlink:title="ModelLoader.h">
<polygon fill="none" stroke="#ff0000" points="1060.5,-73 1060.5,-92 1147.5,-92 1147.5,-73 1060.5,-73"/>
<text text-anchor="middle" x="1104" y="-80" font-family="FreeSans.ttf" font-size="10.00" fill="#000000">ModelLoader.h</text>
</a>
</g>
</g>
<!-- Node20&#45;&gt;Node60 -->
<g id="edge41" class="edge">
<title>Node20&#45;&gt;Node60</title>
<path fill="none" stroke="#191970" d="M2725.3286,-143.4423C2498.6964,-140.0174 1321.0407,-121.2128 1162,-98 1152.9241,-96.6753 1143.2343,-94.4298 1134.4252,-92.0531"/>
<polygon fill="#191970" stroke="#191970" points="2725.3423,-146.9428 2735.3939,-143.5937 2725.4477,-139.9436 2725.3423,-146.9428"/>
</g>
<!-- Node61 -->
<g id="node40" class="node">
<title>Node61</title>
<g id="a_node40"><a xlink:href="URDFDocument_8h.html" target="_top" xlink:title="URDFDocument.h">
<polygon fill="none" stroke="#ff0000" points="1056.5,-6 1056.5,-25 1159.5,-25 1159.5,-6 1056.5,-6"/>
<text text-anchor="middle" x="1108" y="-13" font-family="FreeSans.ttf" font-size="10.00" fill="#000000">URDFDocument.h</text>
</a>
</g>
</g>
<!-- Node20&#45;&gt;Node61 -->
<g id="edge48" class="edge">
<title>Node20&#45;&gt;Node61</title>
<path fill="none" stroke="#191970" d="M2725.1766,-143.51C2495.3173,-140.4523 1293.2938,-123.2966 1220,-98 1175.9405,-82.7933 1134.6565,-43.6245 1117.0054,-25.2671"/>
<polygon fill="#191970" stroke="#191970" points="2725.3336,-147.0123 2735.3791,-143.6449 2725.4263,-140.0129 2725.3336,-147.0123"/>
</g>
<!-- Node65 -->
<g id="node41" class="node">
<title>Node65</title>
<g id="a_node41"><a xlink:href="URDFModelImport_8cpp.html" target="_top" xlink:title="URDFModelImport.cpp">
<polygon fill="none" stroke="#000000" points="1177.5,-6 1177.5,-25 1302.5,-25 1302.5,-6 1177.5,-6"/>
<text text-anchor="middle" x="1240" y="-13" font-family="FreeSans.ttf" font-size="10.00" fill="#000000">URDFModelImport.cpp</text>
</a>
</g>
</g>
<!-- Node20&#45;&gt;Node65 -->
<g id="edge49" class="edge">
<title>Node20&#45;&gt;Node65</title>
<path fill="none" stroke="#191970" d="M2725.3235,-143.5856C2492.6054,-140.9395 1259.8127,-125.631 1233,-98 1213.9804,-78.3999 1227.0489,-42.4492 1235.0515,-25.2149"/>
<polygon fill="#191970" stroke="#191970" points="2725.298,-147.0855 2735.3369,-143.6987 2725.3771,-140.0859 2725.298,-147.0855"/>
</g>
<!-- Node72 -->
<g id="node42" class="node">
<title>Node72</title>
<g id="a_node42"><a xlink:href="InertialElement_8h.html" target="_top" xlink:title="InertialElement.h">
<polygon fill="none" stroke="#ff0000" points="4420.5,-73 4420.5,-92 4521.5,-92 4521.5,-73 4420.5,-73"/>
<text text-anchor="middle" x="4471" y="-80" font-family="FreeSans.ttf" font-size="10.00" fill="#000000">InertialElement.h</text>
</a>
</g>
</g>
<!-- Node20&#45;&gt;Node72 -->
<g id="edge46" class="edge">
<title>Node20&#45;&gt;Node72</title>
<path fill="none" stroke="#191970" d="M2800.6585,-134.3092C3508.436,-33.5719 3701.1912,-188.8913 4406,-98 4416.1252,-96.6943 4426.9699,-94.4547 4436.8432,-92.0776"/>
<polygon fill="#191970" stroke="#191970" points="2800.1308,-130.849 2790.7295,-135.7343 2801.1254,-137.778 2800.1308,-130.849"/>
</g>
<!-- Node74 -->
<g id="node43" class="node">
<title>Node74</title>
<g id="a_node43"><a xlink:href="LinkElement_8cpp.html" target="_top" xlink:title="LinkElement.cpp">
<polygon fill="none" stroke="#000000" points="4422,-6 4422,-25 4520,-25 4520,-6 4422,-6"/>
<text text-anchor="middle" x="4471" y="-13" font-family="FreeSans.ttf" font-size="10.00" fill="#000000">LinkElement.cpp</text>
</a>
</g>
</g>
<!-- Node20&#45;&gt;Node74 -->
<g id="edge50" class="edge">
<title>Node20&#45;&gt;Node74</title>
<path fill="none" stroke="#191970" d="M2800.6709,-134.468C3013.7864,-110.6674 4212.1789,-158.774 4373,-98 4378.227,-96.0247 4435.6601,-46.2924 4460.0971,-25.0143"/>
<polygon fill="#191970" stroke="#191970" points="2800.2066,-130.9988 2790.7297,-135.7358 2801.0922,-137.9426 2800.2066,-130.9988"/>
</g>
<!-- Node75 -->
<g id="node44" class="node">
<title>Node75</title>
<g id="a_node44"><a xlink:href="RobotElement_8cpp.html" target="_top" xlink:title="RobotElement.cpp">
<polygon fill="none" stroke="#000000" points="4539.5,-73 4539.5,-92 4644.5,-92 4644.5,-73 4539.5,-73"/>
<text text-anchor="middle" x="4592" y="-80" font-family="FreeSans.ttf" font-size="10.00" fill="#000000">RobotElement.cpp</text>
</a>
</g>
</g>
<!-- Node20&#45;&gt;Node75 -->
<g id="edge51" class="edge">
<title>Node20&#45;&gt;Node75</title>
<path fill="none" stroke="#191970" d="M2800.8557,-134.3131C3197.3718,-80.5972 4152.999,-149.2705 4531,-98 4540.6366,-96.6929 4550.9455,-94.4213 4560.2946,-92.0137"/>
<polygon fill="#191970" stroke="#191970" points="2800.1476,-130.878 2790.7288,-135.7294 2801.1172,-137.8105 2800.1476,-130.878"/>
</g>
<!-- Node20&#45;&gt;Node59 -->
<g id="edge52" class="edge">
<title>Node20&#45;&gt;Node59</title>
<path fill="none" stroke="#191970" d="M2800.9321,-134.2993C3224.5894,-76.6887 4246.5399,-130.544 4654,-98 4670.9177,-96.6488 4689.2025,-94.395 4705.9155,-92.0188"/>
<polygon fill="#191970" stroke="#191970" points="2800.1476,-130.8748 2790.7282,-135.7252 2801.1164,-137.8074 2800.1476,-130.8748"/>
</g>
<!-- Node21&#45;&gt;Node22 -->
<g id="edge12" class="edge">
<title>Node21&#45;&gt;Node22</title>
<path fill="none" stroke="#191970" d="M961.4791,-57.0249C960.9479,-48.128 960.3689,-38.4287 959.9041,-30.6432"/>
<polygon fill="#191970" stroke="#191970" points="958.0025,-57.5231 962.0923,-67.2967 964.9901,-57.1058 958.0025,-57.5231"/>
</g>
<!-- Node56&#45;&gt;Node54 -->
<g id="edge40" class="edge">
<title>Node56&#45;&gt;Node54</title>
<path fill="none" stroke="#191970" d="M4305.5698,-64.1099C4298.4063,-51.4795 4289.1868,-35.2241 4283.4344,-25.0817"/>
<polygon fill="#191970" stroke="#191970" points="4302.5776,-65.9289 4310.5555,-72.9005 4308.6665,-62.4754 4302.5776,-65.9289"/>
</g>
<!-- Node60&#45;&gt;Node17 -->
<g id="edge43" class="edge">
<title>Node60&#45;&gt;Node17</title>
<path fill="none" stroke="#191970" d="M1063.3891,-70.2281C1059.2182,-69.0864 1055.0329,-67.9886 1051,-67 1040.8005,-64.4997 912.4917,-39.1904 840.39,-25.0075"/>
<polygon fill="#191970" stroke="#191970" points="1062.4415,-73.5973 1073.016,-72.9411 1064.3403,-66.8598 1062.4415,-73.5973"/>
</g>
<!-- Node60&#45;&gt;Node22 -->
<g id="edge42" class="edge">
<title>Node60&#45;&gt;Node22</title>
<path fill="none" stroke="#191970" d="M1073.8766,-68.5809C1049.8203,-57.4653 1016.1726,-41.9177 991.5098,-30.5218"/>
<polygon fill="#191970" stroke="#191970" points="1072.6792,-71.8831 1083.225,-72.9005 1075.6154,-65.5287 1072.6792,-71.8831"/>
</g>
<!-- Node60&#45;&gt;Node61 -->
<g id="edge44" class="edge">
<title>Node60&#45;&gt;Node61</title>
<path fill="none" stroke="#191970" d="M1105.1876,-62.6079C1105.9275,-50.214 1106.8462,-34.8263 1107.428,-25.0817"/>
<polygon fill="#191970" stroke="#191970" points="1101.6754,-62.7097 1104.5731,-72.9005 1108.6629,-63.1269 1101.6754,-62.7097"/>
</g>
<!-- Node60&#45;&gt;Node65 -->
<g id="edge45" class="edge">
<title>Node60&#45;&gt;Node65</title>
<path fill="none" stroke="#191970" d="M1132.6182,-68.4013C1159.0314,-55.389 1197.541,-36.4173 1220.5507,-25.0817"/>
<polygon fill="#191970" stroke="#191970" points="1130.9092,-65.3415 1123.4855,-72.9005 1134.0028,-71.6209 1130.9092,-65.3415"/>
</g>
<!-- Node72&#45;&gt;Node74 -->
<g id="edge47" class="edge">
<title>Node72&#45;&gt;Node74</title>
<path fill="none" stroke="#191970" d="M4471,-62.6079C4471,-50.214 4471,-34.8263 4471,-25.0817"/>
<polygon fill="#191970" stroke="#191970" points="4467.5001,-62.9005 4471,-72.9005 4474.5001,-62.9006 4467.5001,-62.9005"/>
</g>
<!-- Node127&#45;&gt;Node74 -->
<g id="edge55" class="edge">
<title>Node127&#45;&gt;Node74</title>
<path fill="none" stroke="#191970" d="M2905.0372,-134.582C3054.9833,-129.0931 4621.0382,-131.6469 4654,-98 4698.2033,-52.878 4588.0807,-30.2943 4520.0021,-20.9528"/>
<polygon fill="#191970" stroke="#191970" points="2904.8354,-131.0877 2895.046,-135.1397 2905.2256,-138.0768 2904.8354,-131.0877"/>
</g>
<!-- Node127&#45;&gt;Node75 -->
<g id="edge56" class="edge">
<title>Node127&#45;&gt;Node75</title>
<path fill="none" stroke="#191970" d="M2905.1661,-134.0985C3279.9906,-96.633 4175.9066,-146.4037 4531,-98 4540.6358,-96.6865 4550.9444,-94.4129 4560.2935,-92.0055"/>
<polygon fill="#191970" stroke="#191970" points="2904.6335,-130.6348 2895.0466,-135.145 2905.3536,-137.5977 2904.6335,-130.6348"/>
</g>
</g>
</svg>
