<?xml version="1.0" encoding="UTF-8" standalone="no"?>
<!DOCTYPE svg PUBLIC "-//W3C//DTD SVG 1.1//EN"
 "http://www.w3.org/Graphics/SVG/1.1/DTD/svg11.dtd">
<!-- Generated by graphviz version 2.40.1 (20161225.0304)
 -->
<!-- Title: SpatialForceVector.h Pages: 1 -->
<svg width="5605pt" height="207pt"
 viewBox="0.00 0.00 5605.04 207.00" xmlns="http://www.w3.org/2000/svg" xmlns:xlink="http://www.w3.org/1999/xlink">
<g id="graph0" class="graph" transform="scale(1 1) rotate(0) translate(4 203)">
<title>SpatialForceVector.h</title>
<!-- Node32 -->
<g id="node1" class="node">
<title>Node32</title>
<polygon fill="#bfbfbf" stroke="#000000" points="2813.8449,-179.5 2813.8449,-198.5 2929.8449,-198.5 2929.8449,-179.5 2813.8449,-179.5"/>
<text text-anchor="middle" x="2871.8449" y="-186.5" font-family="FreeSans.ttf" font-size="10.00" fill="#000000">SpatialForceVector.h</text>
</g>
<!-- Node33 -->
<g id="node2" class="node">
<title>Node33</title>
<g id="a_node2"><a xlink:href="EigenHelpers_8h.html" target="_top" xlink:title="EigenHelpers.h">
<polygon fill="none" stroke="#ff0000" points="2826.8449,-123.5 2826.8449,-142.5 2916.8449,-142.5 2916.8449,-123.5 2826.8449,-123.5"/>
<text text-anchor="middle" x="2871.8449" y="-130.5" font-family="FreeSans.ttf" font-size="10.00" fill="#000000">EigenHelpers.h</text>
</a>
</g>
</g>
<!-- Node32&#45;&gt;Node33 -->
<g id="edge1" class="edge">
<title>Node32&#45;&gt;Node33</title>
<path fill="none" stroke="#191970" d="M2871.8449,-169.1575C2871.8449,-160.155 2871.8449,-149.9199 2871.8449,-142.6427"/>
<polygon fill="#191970" stroke="#191970" points="2868.345,-169.2455 2871.8449,-179.2455 2875.345,-169.2456 2868.345,-169.2455"/>
</g>
<!-- Node36 -->
<g id="node4" class="node">
<title>Node36</title>
<g id="a_node4"><a xlink:href="SpatialInertiaRaw_8cpp.html" target="_top" xlink:title="SpatialInertiaRaw.cpp">
<polygon fill="none" stroke="#000000" points="687.8449,-.5 687.8449,-19.5 809.8449,-19.5 809.8449,-.5 687.8449,-.5"/>
<text text-anchor="middle" x="748.8449" y="-7.5" font-family="FreeSans.ttf" font-size="10.00" fill="#000000">SpatialInertiaRaw.cpp</text>
</a>
</g>
</g>
<!-- Node32&#45;&gt;Node36 -->
<g id="edge58" class="edge">
<title>Node32&#45;&gt;Node36</title>
<path fill="none" stroke="#191970" d="M2803.5153,-188.5557C2419.0065,-185.9532 533.1106,-171.8 275.8449,-143 154.4842,-129.4141 83.8955,-181.7428 6.8449,-87 -1.8482,-76.3109 -2.5912,-66.0392 6.8449,-56 30.0487,-31.3132 514.4849,-16.1742 687.83,-11.5307"/>
<polygon fill="#191970" stroke="#191970" points="2803.6303,-192.0565 2813.6537,-188.624 2803.6775,-185.0566 2803.6303,-192.0565"/>
</g>
<!-- Node38 -->
<g id="node5" class="node">
<title>Node38</title>
<g id="a_node5"><a xlink:href="SpatialMotionVector_8cpp.html" target="_top" xlink:title="SpatialMotionVector.cpp">
<polygon fill="none" stroke="#000000" points="4621.8449,-.5 4621.8449,-19.5 4755.8449,-19.5 4755.8449,-.5 4621.8449,-.5"/>
<text text-anchor="middle" x="4688.8449" y="-7.5" font-family="FreeSans.ttf" font-size="10.00" fill="#000000">SpatialMotionVector.cpp</text>
</a>
</g>
</g>
<!-- Node32&#45;&gt;Node38 -->
<g id="edge59" class="edge">
<title>Node32&#45;&gt;Node38</title>
<path fill="none" stroke="#191970" d="M2891.5289,-172.7108C2913.5507,-154.8886 2948.1855,-128.1547 2963.8449,-123 3033.1385,-100.1901 5538.6153,-138.9367 5589.8449,-87 5599.5202,-77.1911 5599.3356,-65.9876 5589.8449,-56 5561.203,-25.8585 4959.9976,-14.0691 4755.9263,-10.9263"/>
<polygon fill="#191970" stroke="#191970" points="2889.0327,-170.2304 2883.4998,-179.2657 2893.4596,-175.6528 2889.0327,-170.2304"/>
</g>
<!-- Node47 -->
<g id="node11" class="node">
<title>Node47</title>
<g id="a_node11"><a xlink:href="SpatialForceVector_8cpp.html" target="_top" xlink:title="SpatialForceVector.cpp">
<polygon fill="none" stroke="#000000" points="1029.3449,-62 1029.3449,-81 1156.3449,-81 1156.3449,-62 1029.3449,-62"/>
<text text-anchor="middle" x="1092.8449" y="-69" font-family="FreeSans.ttf" font-size="10.00" fill="#000000">SpatialForceVector.cpp</text>
</a>
</g>
</g>
<!-- Node32&#45;&gt;Node47 -->
<g id="edge57" class="edge">
<title>Node32&#45;&gt;Node47</title>
<path fill="none" stroke="#191970" d="M2803.4543,-188.5723C2572.1419,-186.3476 1798.2158,-172.551 1165.8449,-87 1154.9316,-85.5236 1143.2175,-83.3188 1132.4376,-81.0321"/>
<polygon fill="#191970" stroke="#191970" points="2803.7009,-192.0746 2813.7327,-188.6669 2803.7654,-185.0749 2803.7009,-192.0746"/>
</g>
<!-- Node109 -->
<g id="node44" class="node">
<title>Node109</title>
<g id="a_node44"><a xlink:href="SpatialMomentum_8h.html" target="_top" xlink:title="SpatialMomentum.h">
<polygon fill="none" stroke="#ff0000" points="440.3449,-123.5 440.3449,-142.5 555.3449,-142.5 555.3449,-123.5 440.3449,-123.5"/>
<text text-anchor="middle" x="497.8449" y="-130.5" font-family="FreeSans.ttf" font-size="10.00" fill="#000000">SpatialMomentum.h</text>
</a>
</g>
</g>
<!-- Node32&#45;&gt;Node109 -->
<g id="edge44" class="edge">
<title>Node32&#45;&gt;Node109</title>
<path fill="none" stroke="#191970" d="M2803.4155,-188.0303C2537.8672,-184.1602 1550.0134,-168.7694 736.8449,-143 674.9972,-141.04 604.1804,-137.974 555.7866,-135.7534"/>
<polygon fill="#191970" stroke="#191970" points="2803.6198,-191.5335 2813.6696,-188.1792 2803.7215,-184.5343 2803.6198,-191.5335"/>
</g>
<!-- Node199 -->
<g id="node45" class="node">
<title>Node199</title>
<g id="a_node45"><a xlink:href="Wrench_8h.html" target="_top" xlink:title="Wrench.h">
<polygon fill="none" stroke="#ff0000" points="745.8449,-123.5 745.8449,-142.5 807.8449,-142.5 807.8449,-123.5 745.8449,-123.5"/>
<text text-anchor="middle" x="776.8449" y="-130.5" font-family="FreeSans.ttf" font-size="10.00" fill="#000000">Wrench.h</text>
</a>
</g>
</g>
<!-- Node32&#45;&gt;Node199 -->
<g id="edge50" class="edge">
<title>Node32&#45;&gt;Node199</title>
<path fill="none" stroke="#191970" d="M2803.1996,-187.1651C2471.0902,-178.2877 1037.6424,-139.9712 807.9478,-133.8314"/>
<polygon fill="#191970" stroke="#191970" points="2803.5361,-190.6752 2813.626,-187.4438 2803.7232,-183.6777 2803.5361,-190.6752"/>
</g>
<!-- Node229 -->
<g id="node46" class="node">
<title>Node229</title>
<g id="a_node46"><a xlink:href="PositionRaw_8cpp.html" target="_top" xlink:title="PositionRaw.cpp">
<polygon fill="none" stroke="#000000" points="2972.8449,-123.5 2972.8449,-142.5 3068.8449,-142.5 3068.8449,-123.5 2972.8449,-123.5"/>
<text text-anchor="middle" x="3020.8449" y="-130.5" font-family="FreeSans.ttf" font-size="10.00" fill="#000000">PositionRaw.cpp</text>
</a>
</g>
</g>
<!-- Node32&#45;&gt;Node229 -->
<g id="edge55" class="edge">
<title>Node32&#45;&gt;Node229</title>
<path fill="none" stroke="#191970" d="M2906.9961,-175.7888C2934.2017,-165.5639 2971.2258,-151.6488 2995.5651,-142.5011"/>
<polygon fill="#191970" stroke="#191970" points="2905.5883,-172.5788 2897.4589,-179.3733 2908.051,-179.1313 2905.5883,-172.5788"/>
</g>
<!-- Node230 -->
<g id="node47" class="node">
<title>Node230</title>
<g id="a_node47"><a xlink:href="RotationRaw_8cpp.html" target="_top" xlink:title="RotationRaw.cpp">
<polygon fill="none" stroke="#000000" points="3086.8449,-123.5 3086.8449,-142.5 3184.8449,-142.5 3184.8449,-123.5 3086.8449,-123.5"/>
<text text-anchor="middle" x="3135.8449" y="-130.5" font-family="FreeSans.ttf" font-size="10.00" fill="#000000">RotationRaw.cpp</text>
</a>
</g>
</g>
<!-- Node32&#45;&gt;Node230 -->
<g id="edge56" class="edge">
<title>Node32&#45;&gt;Node230</title>
<path fill="none" stroke="#191970" d="M2926.9676,-177.3073C2975.6142,-166.9883 3045.6437,-152.1336 3090.9476,-142.5237"/>
<polygon fill="#191970" stroke="#191970" points="2925.9842,-173.9379 2916.9281,-179.4369 2927.4368,-180.7856 2925.9842,-173.9379"/>
</g>
<!-- Node111 -->
<g id="node48" class="node">
<title>Node111</title>
<g id="a_node48"><a xlink:href="TestUtils_8cpp.html" target="_top" xlink:title="TestUtils.cpp">
<polygon fill="none" stroke="#000000" points="3203.3449,-123.5 3203.3449,-142.5 3282.3449,-142.5 3282.3449,-123.5 3203.3449,-123.5"/>
<text text-anchor="middle" x="3242.8449" y="-130.5" font-family="FreeSans.ttf" font-size="10.00" fill="#000000">TestUtils.cpp</text>
</a>
</g>
</g>
<!-- Node32&#45;&gt;Node111 -->
<g id="edge60" class="edge">
<title>Node32&#45;&gt;Node111</title>
<path fill="none" stroke="#191970" d="M2940.0503,-180.4523C3005.3544,-171.9859 3106.5675,-158.1262 3193.8449,-143 3196.9246,-142.4662 3200.1071,-141.8849 3203.3027,-141.2798"/>
<polygon fill="#191970" stroke="#191970" points="2939.3551,-177.0129 2929.8853,-181.7642 2940.2511,-183.9553 2939.3551,-177.0129"/>
</g>
<!-- Node112 -->
<g id="node49" class="node">
<title>Node112</title>
<g id="a_node49"><a xlink:href="DynamicsUtils_8h.html" target="_top" xlink:title="DynamicsUtils.h">
<polygon fill="none" stroke="#000000" points="3300.3449,-123.5 3300.3449,-142.5 3397.3449,-142.5 3397.3449,-123.5 3300.3449,-123.5"/>
<text text-anchor="middle" x="3348.8449" y="-130.5" font-family="FreeSans.ttf" font-size="10.00" fill="#000000">DynamicsUtils.h</text>
</a>
</g>
</g>
<!-- Node32&#45;&gt;Node112 -->
<g id="edge61" class="edge">
<title>Node32&#45;&gt;Node112</title>
<path fill="none" stroke="#191970" d="M2940.1728,-182.884C3023.4265,-175.1169 3168.2783,-160.5872 3291.8449,-143 3294.5305,-142.6178 3297.2837,-142.2049 3300.0603,-141.7722"/>
<polygon fill="#191970" stroke="#191970" points="2939.7168,-179.4112 2930.083,-183.8203 2940.3636,-186.3813 2939.7168,-179.4112"/>
</g>
<!-- Node231 -->
<g id="node50" class="node">
<title>Node231</title>
<g id="a_node50"><a xlink:href="JointState_8h.html" target="_top" xlink:title="JointState.h">
<polygon fill="none" stroke="#ff0000" points="285.3449,-123.5 285.3449,-142.5 358.3449,-142.5 358.3449,-123.5 285.3449,-123.5"/>
<text text-anchor="middle" x="321.8449" y="-130.5" font-family="FreeSans.ttf" font-size="10.00" fill="#000000">JointState.h</text>
</a>
</g>
</g>
<!-- Node32&#45;&gt;Node231 -->
<g id="edge62" class="edge">
<title>Node32&#45;&gt;Node231</title>
<path fill="none" stroke="#191970" d="M2803.5389,-188.3847C2459.1931,-185.1804 911.2304,-169.5273 430.8449,-143 406.7477,-141.6693 379.7335,-139.1978 358.6272,-137.0449"/>
<polygon fill="#191970" stroke="#191970" points="2803.5803,-191.8852 2813.6124,-188.4781 2803.6453,-184.8855 2803.5803,-191.8852"/>
</g>
<!-- Node34 -->
<g id="node3" class="node">
<title>Node34</title>
<g id="a_node3"><a xlink:href="PrivateUtils_8h.html" target="_top" xlink:title="PrivateUtils.h">
<polygon fill="none" stroke="#ff0000" points="1467.3449,-62 1467.3449,-81 1550.3449,-81 1550.3449,-62 1467.3449,-62"/>
<text text-anchor="middle" x="1508.8449" y="-69" font-family="FreeSans.ttf" font-size="10.00" fill="#000000">PrivateUtils.h</text>
</a>
</g>
</g>
<!-- Node33&#45;&gt;Node34 -->
<g id="edge2" class="edge">
<title>Node33&#45;&gt;Node34</title>
<path fill="none" stroke="#191970" d="M2816.2223,-131.9025C2582.3168,-127.1711 1684.8073,-107.8142 1559.8449,-87 1551.812,-85.662 1543.2753,-83.4123 1535.5305,-81.0359"/>
<polygon fill="#191970" stroke="#191970" points="2816.4632,-135.4079 2826.5318,-132.1102 2816.6043,-128.4094 2816.4632,-135.4079"/>
</g>
<!-- Node33&#45;&gt;Node38 -->
<g id="edge12" class="edge">
<title>Node33&#45;&gt;Node38</title>
<path fill="none" stroke="#191970" d="M2926.967,-123.3967C2928.2709,-123.2538 2929.5649,-123.1211 2930.8449,-123 2978.9461,-118.4507 4632.1179,-117.1845 4669.8449,-87 4690.165,-70.7423 4690.8373,-36.5206 4689.7974,-19.7212"/>
<polygon fill="#191970" stroke="#191970" points="2926.3368,-119.9484 2916.8523,-124.6702 2927.2112,-126.8935 2926.3368,-119.9484"/>
</g>
<!-- Node42 -->
<g id="node6" class="node">
<title>Node42</title>
<g id="a_node6"><a xlink:href="ArticulatedBodyInertia_8cpp.html" target="_top" xlink:title="ArticulatedBodyInertia.cpp">
<polygon fill="none" stroke="#000000" points="864.8449,-62 864.8449,-81 1010.8449,-81 1010.8449,-62 864.8449,-62"/>
<text text-anchor="middle" x="937.8449" y="-69" font-family="FreeSans.ttf" font-size="10.00" fill="#000000">ArticulatedBodyInertia.cpp</text>
</a>
</g>
</g>
<!-- Node33&#45;&gt;Node42 -->
<g id="edge5" class="edge">
<title>Node33&#45;&gt;Node42</title>
<path fill="none" stroke="#191970" d="M2816.359,-132.8171C2547.9083,-131.7495 1382.0664,-124.9709 1020.8449,-87 1008.0158,-85.6514 994.1991,-83.3985 981.5897,-81.0222"/>
<polygon fill="#191970" stroke="#191970" points="2816.6202,-136.3181 2826.6338,-132.8569 2816.6474,-129.3181 2816.6202,-136.3181"/>
</g>
<!-- Node43 -->
<g id="node7" class="node">
<title>Node43</title>
<g id="a_node7"><a xlink:href="CubicSpline_8cpp.html" target="_top" xlink:title="CubicSpline.cpp">
<polygon fill="none" stroke="#000000" points="4716.8449,-62 4716.8449,-81 4810.8449,-81 4810.8449,-62 4716.8449,-62"/>
<text text-anchor="middle" x="4763.8449" y="-69" font-family="FreeSans.ttf" font-size="10.00" fill="#000000">CubicSpline.cpp</text>
</a>
</g>
</g>
<!-- Node33&#45;&gt;Node43 -->
<g id="edge6" class="edge">
<title>Node33&#45;&gt;Node43</title>
<path fill="none" stroke="#191970" d="M2926.967,-123.3961C2928.2708,-123.2533 2929.5649,-123.1208 2930.8449,-123 3322.9613,-85.9907 4312.5468,-139.8428 4702.8449,-87 4712.4818,-85.6952 4722.7908,-83.4243 4732.1399,-81.0167"/>
<polygon fill="#191970" stroke="#191970" points="2926.3371,-119.9476 2916.8522,-124.6684 2927.2108,-126.8929 2926.3371,-119.9476"/>
</g>
<!-- Node44 -->
<g id="node8" class="node">
<title>Node44</title>
<g id="a_node8"><a xlink:href="Direction_8cpp.html" target="_top" xlink:title="Direction.cpp">
<polygon fill="none" stroke="#000000" points="4829.3449,-62 4829.3449,-81 4910.3449,-81 4910.3449,-62 4829.3449,-62"/>
<text text-anchor="middle" x="4869.8449" y="-69" font-family="FreeSans.ttf" font-size="10.00" fill="#000000">Direction.cpp</text>
</a>
</g>
</g>
<!-- Node33&#45;&gt;Node44 -->
<g id="edge7" class="edge">
<title>Node33&#45;&gt;Node44</title>
<path fill="none" stroke="#191970" d="M2926.9668,-123.3939C2928.2707,-123.2518 2929.5648,-123.12 2930.8449,-123 3348.866,-83.811 4405.3422,-153.8201 4819.8449,-87 4827.8302,-85.7127 4836.3065,-83.4471 4843.9672,-81.039"/>
<polygon fill="#191970" stroke="#191970" points="2926.3383,-119.9452 2916.8516,-124.6625 2927.2095,-126.8908 2926.3383,-119.9452"/>
</g>
<!-- Node45 -->
<g id="node9" class="node">
<title>Node45</title>
<g id="a_node9"><a xlink:href="InertiaNonLinearParametrization_8cpp.html" target="_top" xlink:title="InertiaNonLinearParametrization.cpp">
<polygon fill="none" stroke="#000000" points="4928.3449,-62 4928.3449,-81 5123.3449,-81 5123.3449,-62 4928.3449,-62"/>
<text text-anchor="middle" x="5025.8449" y="-69" font-family="FreeSans.ttf" font-size="10.00" fill="#000000">InertiaNonLinearParametrization.cpp</text>
</a>
</g>
</g>
<!-- Node33&#45;&gt;Node45 -->
<g id="edge8" class="edge">
<title>Node33&#45;&gt;Node45</title>
<path fill="none" stroke="#191970" d="M2926.9666,-123.3922C2928.2706,-123.2506 2929.5648,-123.1194 2930.8449,-123 3811.1692,-40.8959 4038.6455,-159.108 4919.8449,-87 4936.157,-85.6652 4953.78,-83.4165 4969.885,-81.04"/>
<polygon fill="#191970" stroke="#191970" points="2926.3392,-119.9433 2916.8512,-124.658 2927.2084,-126.8892 2926.3392,-119.9433"/>
</g>
<!-- Node46 -->
<g id="node10" class="node">
<title>Node46</title>
<g id="a_node10"><a xlink:href="Rotation_8cpp.html" target="_top" xlink:title="Rotation.cpp">
<polygon fill="none" stroke="#000000" points="491.3449,-62 491.3449,-81 568.3449,-81 568.3449,-62 491.3449,-62"/>
<text text-anchor="middle" x="529.8449" y="-69" font-family="FreeSans.ttf" font-size="10.00" fill="#000000">Rotation.cpp</text>
</a>
</g>
</g>
<!-- Node33&#45;&gt;Node46 -->
<g id="edge9" class="edge">
<title>Node33&#45;&gt;Node46</title>
<path fill="none" stroke="#191970" d="M2816.4151,-132.8568C2488.0617,-131.8795 804.5891,-125.0353 577.8449,-87 570.2449,-85.7251 562.198,-83.4952 554.9095,-81.1174"/>
<polygon fill="#191970" stroke="#191970" points="2816.6186,-136.3573 2826.6288,-132.8866 2816.6391,-129.3573 2816.6186,-136.3573"/>
</g>
<!-- Node33&#45;&gt;Node47 -->
<g id="edge10" class="edge">
<title>Node33&#45;&gt;Node47</title>
<path fill="none" stroke="#191970" d="M2816.506,-132.1083C2541.9541,-127.6033 1332.604,-106.7845 1165.8449,-87 1154.5229,-85.6567 1142.3588,-83.4054 1131.2694,-81.0291"/>
<polygon fill="#191970" stroke="#191970" points="2816.5731,-135.6097 2826.6291,-132.2739 2816.6877,-128.6107 2816.5731,-135.6097"/>
</g>
<!-- Node48 -->
<g id="node12" class="node">
<title>Node48</title>
<g id="a_node12"><a xlink:href="SpatialInertia_8cpp.html" target="_top" xlink:title="SpatialInertia.cpp">
<polygon fill="none" stroke="#000000" points="586.8449,-62 586.8449,-81 688.8449,-81 688.8449,-62 586.8449,-62"/>
<text text-anchor="middle" x="637.8449" y="-69" font-family="FreeSans.ttf" font-size="10.00" fill="#000000">SpatialInertia.cpp</text>
</a>
</g>
</g>
<!-- Node33&#45;&gt;Node48 -->
<g id="edge11" class="edge">
<title>Node33&#45;&gt;Node48</title>
<path fill="none" stroke="#191970" d="M2816.3459,-132.5945C2498.23,-130.1677 913.0099,-116.6593 697.8449,-87 688.3594,-85.6925 678.2174,-83.4207 669.0218,-81.0131"/>
<polygon fill="#191970" stroke="#191970" points="2816.6649,-136.0969 2826.6912,-132.6729 2816.718,-129.0971 2816.6649,-136.0969"/>
</g>
<!-- Node49 -->
<g id="node13" class="node">
<title>Node49</title>
<g id="a_node13"><a xlink:href="TransformDerivative_8cpp.html" target="_top" xlink:title="TransformDerivative.cpp">
<polygon fill="none" stroke="#000000" points="5141.3449,-62 5141.3449,-81 5278.3449,-81 5278.3449,-62 5141.3449,-62"/>
<text text-anchor="middle" x="5209.8449" y="-69" font-family="FreeSans.ttf" font-size="10.00" fill="#000000">TransformDerivative.cpp</text>
</a>
</g>
</g>
<!-- Node33&#45;&gt;Node49 -->
<g id="edge13" class="edge">
<title>Node33&#45;&gt;Node49</title>
<path fill="none" stroke="#191970" d="M2926.9663,-123.3892C2928.2704,-123.2485 2929.5647,-123.1183 2930.8449,-123 3418.1685,-77.9795 4646.271,-139.507 5132.8449,-87 5144.9111,-85.6979 5157.8941,-83.4278 5169.6981,-81.0201"/>
<polygon fill="#191970" stroke="#191970" points="2926.3408,-119.94 2916.8504,-124.6498 2927.2065,-126.8862 2926.3408,-119.94"/>
</g>
<!-- Node50 -->
<g id="node14" class="node">
<title>Node50</title>
<g id="a_node14"><a xlink:href="AttitudeEstimatorUtils_8h.html" target="_top" xlink:title="AttitudeEstimatorUtils.h">
<polygon fill="none" stroke="#ff0000" points="5296.8449,-62 5296.8449,-81 5430.8449,-81 5430.8449,-62 5296.8449,-62"/>
<text text-anchor="middle" x="5363.8449" y="-69" font-family="FreeSans.ttf" font-size="10.00" fill="#000000">AttitudeEstimatorUtils.h</text>
</a>
</g>
</g>
<!-- Node33&#45;&gt;Node50 -->
<g id="edge14" class="edge">
<title>Node33&#45;&gt;Node50</title>
<path fill="none" stroke="#191970" d="M2926.9662,-123.3873C2928.2703,-123.2472 2929.5646,-123.1176 2930.8449,-123 3452.4884,-75.0917 4767.0711,-143.5846 5287.8449,-87 5299.7596,-85.7054 5312.5755,-83.4376 5324.2261,-81.0296"/>
<polygon fill="#191970" stroke="#191970" points="2926.3418,-119.9379 2916.85,-124.6448 2927.2054,-126.8844 2926.3418,-119.9379"/>
</g>
<!-- Node54 -->
<g id="node15" class="node">
<title>Node54</title>
<g id="a_node15"><a xlink:href="ExtendedKalmanFilter_8h.html" target="_top" xlink:title="ExtendedKalmanFilter.h">
<polygon fill="none" stroke="#ff0000" points="5448.8449,-62 5448.8449,-81 5580.8449,-81 5580.8449,-62 5448.8449,-62"/>
<text text-anchor="middle" x="5514.8449" y="-69" font-family="FreeSans.ttf" font-size="10.00" fill="#000000">ExtendedKalmanFilter.h</text>
</a>
</g>
</g>
<!-- Node33&#45;&gt;Node54 -->
<g id="edge15" class="edge">
<title>Node33&#45;&gt;Node54</title>
<path fill="none" stroke="#191970" d="M2926.966,-123.3857C2928.2702,-123.246 2929.5646,-123.117 2930.8449,-123 3486.1445,-72.2597 4885.5456,-147.6997 5439.8449,-87 5451.608,-85.7119 5464.2569,-83.446 5475.754,-81.0379"/>
<polygon fill="#191970" stroke="#191970" points="2926.3427,-119.9361 2916.8496,-124.6405 2927.2044,-126.8829 2926.3427,-119.9361"/>
</g>
<!-- Node57 -->
<g id="node16" class="node">
<title>Node57</title>
<g id="a_node16"><a xlink:href="GravityCompensationHelpers_8h.html" target="_top" xlink:title="GravityCompensationHelpers.h">
<polygon fill="none" stroke="#ff0000" points="1174.8449,-62 1174.8449,-81 1344.8449,-81 1344.8449,-62 1174.8449,-62"/>
<text text-anchor="middle" x="1259.8449" y="-69" font-family="FreeSans.ttf" font-size="10.00" fill="#000000">GravityCompensationHelpers.h</text>
</a>
</g>
</g>
<!-- Node33&#45;&gt;Node57 -->
<g id="edge16" class="edge">
<title>Node33&#45;&gt;Node57</title>
<path fill="none" stroke="#191970" d="M2816.6649,-132.3134C2579.577,-129.2115 1646.2049,-115.4064 1353.8449,-87 1339.5227,-85.6084 1324.0787,-83.3725 1309.9295,-81.0269"/>
<polygon fill="#191970" stroke="#191970" points="2816.728,-135.8144 2826.7727,-132.4447 2816.819,-128.815 2816.728,-135.8144"/>
</g>
<!-- Node59 -->
<g id="node17" class="node">
<title>Node59</title>
<g id="a_node17"><a xlink:href="KalmanFilter_8h.html" target="_top" xlink:title="KalmanFilter.h">
<polygon fill="none" stroke="#ff0000" points="1362.8449,-62 1362.8449,-81 1448.8449,-81 1448.8449,-62 1362.8449,-62"/>
<text text-anchor="middle" x="1405.8449" y="-69" font-family="FreeSans.ttf" font-size="10.00" fill="#000000">KalmanFilter.h</text>
</a>
</g>
</g>
<!-- Node33&#45;&gt;Node59 -->
<g id="edge17" class="edge">
<title>Node33&#45;&gt;Node59</title>
<path fill="none" stroke="#191970" d="M2816.389,-132.0206C2571.652,-127.5863 1594.3646,-108.6659 1458.8449,-87 1450.5143,-85.6682 1441.6483,-83.4204 1433.5993,-81.0438"/>
<polygon fill="#191970" stroke="#191970" points="2816.4152,-135.5215 2826.4768,-132.2027 2816.5416,-128.5227 2816.4152,-135.5215"/>
</g>
<!-- Node61 -->
<g id="node18" class="node">
<title>Node61</title>
<g id="a_node18"><a xlink:href="BerdyHelper_8cpp.html" target="_top" xlink:title="BerdyHelper.cpp">
<polygon fill="none" stroke="#000000" points="1568.3449,-62 1568.3449,-81 1665.3449,-81 1665.3449,-62 1568.3449,-62"/>
<text text-anchor="middle" x="1616.8449" y="-69" font-family="FreeSans.ttf" font-size="10.00" fill="#000000">BerdyHelper.cpp</text>
</a>
</g>
</g>
<!-- Node33&#45;&gt;Node61 -->
<g id="edge18" class="edge">
<title>Node33&#45;&gt;Node61</title>
<path fill="none" stroke="#191970" d="M2816.642,-132.509C2612.3495,-130.4385 1899.4545,-120.8947 1674.8449,-87 1665.8786,-85.6469 1656.3079,-83.4234 1647.5792,-81.0773"/>
<polygon fill="#191970" stroke="#191970" points="2816.7973,-136.0106 2826.8316,-132.6103 2816.8669,-129.011 2816.7973,-136.0106"/>
</g>
<!-- Node62 -->
<g id="node19" class="node">
<title>Node62</title>
<g id="a_node19"><a xlink:href="BerdySparseMAPSolver_8cpp.html" target="_top" xlink:title="BerdySparseMAPSolver.cpp">
<polygon fill="none" stroke="#000000" points="1683.3449,-62 1683.3449,-81 1832.3449,-81 1832.3449,-62 1683.3449,-62"/>
<text text-anchor="middle" x="1757.8449" y="-69" font-family="FreeSans.ttf" font-size="10.00" fill="#000000">BerdySparseMAPSolver.cpp</text>
</a>
</g>
</g>
<!-- Node33&#45;&gt;Node62 -->
<g id="edge19" class="edge">
<title>Node33&#45;&gt;Node62</title>
<path fill="none" stroke="#191970" d="M2816.5491,-131.5375C2631.2719,-126.4792 2033.299,-108.8337 1841.8449,-87 1829.1736,-85.555 1815.5361,-83.3316 1803.0116,-81.0158"/>
<polygon fill="#191970" stroke="#191970" points="2816.5179,-135.0379 2826.6093,-131.8108 2816.7081,-128.0404 2816.5179,-135.0379"/>
</g>
<!-- Node63 -->
<g id="node20" class="node">
<title>Node63</title>
<g id="a_node20"><a xlink:href="ExternalWrenchesEstimation_8cpp.html" target="_top" xlink:title="ExternalWrenchesEstimation.cpp">
<polygon fill="none" stroke="#000000" points="16.3449,-62 16.3449,-81 193.3449,-81 193.3449,-62 16.3449,-62"/>
<text text-anchor="middle" x="104.8449" y="-69" font-family="FreeSans.ttf" font-size="10.00" fill="#000000">ExternalWrenchesEstimation.cpp</text>
</a>
</g>
</g>
<!-- Node33&#45;&gt;Node63 -->
<g id="edge20" class="edge">
<title>Node33&#45;&gt;Node63</title>
<path fill="none" stroke="#191970" d="M2816.504,-132.517C2457.9883,-129.3253 470.5877,-110.6674 201.8449,-87 186.8104,-85.676 170.5783,-83.4149 155.7734,-81.023"/>
<polygon fill="#191970" stroke="#191970" points="2816.6018,-136.0179 2826.6325,-132.6069 2816.664,-129.0181 2816.6018,-136.0179"/>
</g>
<!-- Node64 -->
<g id="node21" class="node">
<title>Node64</title>
<g id="a_node21"><a xlink:href="ExtWrenchesAndJointTorquesEstimator_8cpp.html" target="_top" xlink:title="ExtWrenchesAndJointTorques\lEstimator.cpp">
<polygon fill="none" stroke="#000000" points="210.8449,-56.5 210.8449,-86.5 368.8449,-86.5 368.8449,-56.5 210.8449,-56.5"/>
<text text-anchor="start" x="218.8449" y="-74.5" font-family="FreeSans.ttf" font-size="10.00" fill="#000000">ExtWrenchesAndJointTorques</text>
<text text-anchor="middle" x="289.8449" y="-63.5" font-family="FreeSans.ttf" font-size="10.00" fill="#000000">Estimator.cpp</text>
</a>
</g>
</g>
<!-- Node33&#45;&gt;Node64 -->
<g id="edge21" class="edge">
<title>Node33&#45;&gt;Node64</title>
<path fill="none" stroke="#191970" d="M2816.3859,-132.4966C2471.5832,-129.2979 627.7564,-111.1651 377.8449,-87 374.9111,-86.7163 371.9281,-86.3894 368.9193,-86.0271"/>
<polygon fill="#191970" stroke="#191970" points="2816.5844,-135.9985 2826.6163,-132.5912 2816.6492,-128.9988 2816.5844,-135.9985"/>
</g>
<!-- Node65 -->
<g id="node22" class="node">
<title>Node65</title>
<g id="a_node22"><a xlink:href="SimpleLeggedOdometry_8cpp.html" target="_top" xlink:title="SimpleLeggedOdometry.cpp">
<polygon fill="none" stroke="#000000" points="1850.3449,-62 1850.3449,-81 2003.3449,-81 2003.3449,-62 1850.3449,-62"/>
<text text-anchor="middle" x="1926.8449" y="-69" font-family="FreeSans.ttf" font-size="10.00" fill="#000000">SimpleLeggedOdometry.cpp</text>
</a>
</g>
</g>
<!-- Node33&#45;&gt;Node65 -->
<g id="edge22" class="edge">
<title>Node33&#45;&gt;Node65</title>
<path fill="none" stroke="#191970" d="M2816.2685,-132.4228C2679.285,-130.4795 2314.6494,-122.1393 2012.8449,-87 2000.036,-85.5086 1986.2519,-83.2989 1973.5524,-81.0121"/>
<polygon fill="#191970" stroke="#191970" points="2816.4593,-135.9257 2826.506,-132.5621 2816.5545,-128.9263 2816.4593,-135.9257"/>
</g>
<!-- Node66 -->
<g id="node23" class="node">
<title>Node66</title>
<g id="a_node23"><a xlink:href="KinDynComputations_8cpp.html" target="_top" xlink:title="KinDynComputations.cpp">
<polygon fill="none" stroke="#000000" points="706.8449,-62 706.8449,-81 846.8449,-81 846.8449,-62 706.8449,-62"/>
<text text-anchor="middle" x="776.8449" y="-69" font-family="FreeSans.ttf" font-size="10.00" fill="#000000">KinDynComputations.cpp</text>
</a>
</g>
</g>
<!-- Node33&#45;&gt;Node66 -->
<g id="edge23" class="edge">
<title>Node33&#45;&gt;Node66</title>
<path fill="none" stroke="#191970" d="M2816.0851,-132.2974C2511.4848,-128.3832 1055.128,-108.6626 855.8449,-87 843.6174,-85.6708 830.4613,-83.4239 818.4599,-81.0473"/>
<polygon fill="#191970" stroke="#191970" points="2816.3868,-135.8015 2826.4308,-132.43 2816.4765,-128.802 2816.3868,-135.8015"/>
</g>
<!-- Node67 -->
<g id="node24" class="node">
<title>Node67</title>
<g id="a_node24"><a xlink:href="BoundingBoxHelpers_8cpp.html" target="_top" xlink:title="BoundingBoxHelpers.cpp">
<polygon fill="none" stroke="#000000" points="2021.3449,-62 2021.3449,-81 2160.3449,-81 2160.3449,-62 2021.3449,-62"/>
<text text-anchor="middle" x="2090.8449" y="-69" font-family="FreeSans.ttf" font-size="10.00" fill="#000000">BoundingBoxHelpers.cpp</text>
</a>
</g>
</g>
<!-- Node33&#45;&gt;Node67 -->
<g id="edge24" class="edge">
<title>Node33&#45;&gt;Node67</title>
<path fill="none" stroke="#191970" d="M2816.1657,-131.7767C2697.0984,-128.6291 2409.0878,-118.1776 2169.8449,-87 2158.2028,-85.4828 2145.6953,-83.2925 2134.1436,-81.0341"/>
<polygon fill="#191970" stroke="#191970" points="2816.3921,-135.2836 2826.4788,-132.0421 2816.5722,-128.2859 2816.3921,-135.2836"/>
</g>
<!-- Node68 -->
<g id="node25" class="node">
<title>Node68</title>
<g id="a_node25"><a xlink:href="ConvexHullHelpers_8cpp.html" target="_top" xlink:title="ConvexHullHelpers.cpp">
<polygon fill="none" stroke="#000000" points="2178.3449,-62 2178.3449,-81 2309.3449,-81 2309.3449,-62 2178.3449,-62"/>
<text text-anchor="middle" x="2243.8449" y="-69" font-family="FreeSans.ttf" font-size="10.00" fill="#000000">ConvexHullHelpers.cpp</text>
</a>
</g>
</g>
<!-- Node33&#45;&gt;Node68 -->
<g id="edge25" class="edge">
<title>Node33&#45;&gt;Node68</title>
<path fill="none" stroke="#191970" d="M2816.6923,-130.6218C2716.9311,-125.8296 2500.0334,-113.161 2318.8449,-87 2307.9225,-85.423 2296.1987,-83.2392 2285.3414,-81.0079"/>
<polygon fill="#191970" stroke="#191970" points="2816.6828,-134.1252 2826.8369,-131.1012 2817.0133,-127.133 2816.6828,-134.1252"/>
</g>
<!-- Node69 -->
<g id="node26" class="node">
<title>Node69</title>
<g id="a_node26"><a xlink:href="InverseKinematics_8cpp.html" target="_top" xlink:title="InverseKinematics.cpp">
<polygon fill="none" stroke="#000000" points="2327.8449,-62 2327.8449,-81 2455.8449,-81 2455.8449,-62 2327.8449,-62"/>
<text text-anchor="middle" x="2391.8449" y="-69" font-family="FreeSans.ttf" font-size="10.00" fill="#000000">InverseKinematics.cpp</text>
</a>
</g>
</g>
<!-- Node33&#45;&gt;Node69 -->
<g id="edge26" class="edge">
<title>Node33&#45;&gt;Node69</title>
<path fill="none" stroke="#191970" d="M2816.4695,-128.3824C2738.1085,-121.4722 2590.5127,-107.0737 2465.8449,-87 2455.4776,-85.3307 2444.3633,-83.191 2433.9813,-81.038"/>
<polygon fill="#191970" stroke="#191970" points="2816.3304,-131.8835 2826.5972,-129.2677 2816.9401,-124.91 2816.3304,-131.8835"/>
</g>
<!-- Node70 -->
<g id="node27" class="node">
<title>Node70</title>
<g id="a_node27"><a xlink:href="InverseKinematicsData_8cpp.html" target="_top" xlink:title="InverseKinematicsData.cpp">
<polygon fill="none" stroke="#000000" points="2474.3449,-62 2474.3449,-81 2625.3449,-81 2625.3449,-62 2474.3449,-62"/>
<text text-anchor="middle" x="2549.8449" y="-69" font-family="FreeSans.ttf" font-size="10.00" fill="#000000">InverseKinematicsData.cpp</text>
</a>
</g>
</g>
<!-- Node33&#45;&gt;Node70 -->
<g id="edge27" class="edge">
<title>Node33&#45;&gt;Node70</title>
<path fill="none" stroke="#191970" d="M2816.9069,-122.5072C2755.9596,-110.8666 2658.4814,-92.2489 2599.6729,-81.0168"/>
<polygon fill="#191970" stroke="#191970" points="2816.254,-125.9457 2826.7331,-124.3839 2817.5673,-119.07 2816.254,-125.9457"/>
</g>
<!-- Node71 -->
<g id="node28" class="node">
<title>Node71</title>
<g id="a_node28"><a xlink:href="InverseKinematicsNLP_8cpp.html" target="_top" xlink:title="InverseKinematicsNLP.cpp">
<polygon fill="none" stroke="#000000" points="2643.3449,-62 2643.3449,-81 2788.3449,-81 2788.3449,-62 2643.3449,-62"/>
<text text-anchor="middle" x="2715.8449" y="-69" font-family="FreeSans.ttf" font-size="10.00" fill="#000000">InverseKinematicsNLP.cpp</text>
</a>
</g>
</g>
<!-- Node33&#45;&gt;Node71 -->
<g id="edge28" class="edge">
<title>Node33&#45;&gt;Node71</title>
<path fill="none" stroke="#191970" d="M2837.9757,-119.6477C2808.436,-108.0023 2766.3107,-91.3952 2740.0487,-81.0419"/>
<polygon fill="#191970" stroke="#191970" points="2836.883,-122.9791 2847.4699,-123.3906 2839.4504,-116.4669 2836.883,-122.9791"/>
</g>
<!-- Node72 -->
<g id="node29" class="node">
<title>Node72</title>
<g id="a_node29"><a xlink:href="DenavitHartenberg_8cpp.html" target="_top" xlink:title="DenavitHartenberg.cpp">
<polygon fill="none" stroke="#000000" points="2806.8449,-62 2806.8449,-81 2936.8449,-81 2936.8449,-62 2806.8449,-62"/>
<text text-anchor="middle" x="2871.8449" y="-69" font-family="FreeSans.ttf" font-size="10.00" fill="#000000">DenavitHartenberg.cpp</text>
</a>
</g>
</g>
<!-- Node33&#45;&gt;Node72 -->
<g id="edge29" class="edge">
<title>Node33&#45;&gt;Node72</title>
<path fill="none" stroke="#191970" d="M2871.8449,-113.2462C2871.8449,-102.5519 2871.8449,-89.814 2871.8449,-81.2449"/>
<polygon fill="#191970" stroke="#191970" points="2868.345,-113.3906 2871.8449,-123.3906 2875.345,-113.3907 2868.345,-113.3906"/>
</g>
<!-- Node73 -->
<g id="node30" class="node">
<title>Node73</title>
<g id="a_node30"><a xlink:href="Dynamics_8cpp.html" target="_top" xlink:title="Dynamics.cpp">
<polygon fill="none" stroke="#000000" points="386.8449,-62 386.8449,-81 472.8449,-81 472.8449,-62 386.8449,-62"/>
<text text-anchor="middle" x="429.8449" y="-69" font-family="FreeSans.ttf" font-size="10.00" fill="#000000">Dynamics.cpp</text>
</a>
</g>
</g>
<!-- Node33&#45;&gt;Node73 -->
<g id="edge30" class="edge">
<title>Node33&#45;&gt;Node73</title>
<path fill="none" stroke="#191970" d="M2816.2872,-132.83C2479.6092,-131.6806 719.0299,-123.9317 481.8449,-87 473.5606,-85.7101 464.7516,-83.4436 456.7839,-81.0356"/>
<polygon fill="#191970" stroke="#191970" points="2816.7358,-136.3315 2826.7475,-132.8652 2816.7594,-129.3315 2816.7358,-136.3315"/>
</g>
<!-- Node74 -->
<g id="node31" class="node">
<title>Node74</title>
<g id="a_node31"><a xlink:href="DynamicsLinearization_8cpp.html" target="_top" xlink:title="DynamicsLinearization.cpp">
<polygon fill="none" stroke="#000000" points="2955.3449,-62 2955.3449,-81 3104.3449,-81 3104.3449,-62 2955.3449,-62"/>
<text text-anchor="middle" x="3029.8449" y="-69" font-family="FreeSans.ttf" font-size="10.00" fill="#000000">DynamicsLinearization.cpp</text>
</a>
</g>
</g>
<!-- Node33&#45;&gt;Node74 -->
<g id="edge31" class="edge">
<title>Node33&#45;&gt;Node74</title>
<path fill="none" stroke="#191970" d="M2906.1483,-119.6477C2936.0667,-108.0023 2978.7321,-91.3952 3005.3308,-81.0419"/>
<polygon fill="#191970" stroke="#191970" points="2904.5818,-116.5016 2896.5324,-123.3906 2907.1209,-123.0249 2904.5818,-116.5016"/>
</g>
<!-- Node75 -->
<g id="node32" class="node">
<title>Node75</title>
<g id="a_node32"><a xlink:href="DynamicsLinearizationHelpers_8cpp.html" target="_top" xlink:title="DynamicsLinearizationHelpers.cpp">
<polygon fill="none" stroke="#000000" points="3121.8449,-62 3121.8449,-81 3307.8449,-81 3307.8449,-62 3121.8449,-62"/>
<text text-anchor="middle" x="3214.8449" y="-69" font-family="FreeSans.ttf" font-size="10.00" fill="#000000">DynamicsLinearizationHelpers.cpp</text>
</a>
</g>
</g>
<!-- Node33&#45;&gt;Node75 -->
<g id="edge32" class="edge">
<title>Node33&#45;&gt;Node75</title>
<path fill="none" stroke="#191970" d="M2927.0388,-123.1037C2991.6546,-111.5181 3097.9233,-92.4641 3161.6605,-81.036"/>
<polygon fill="#191970" stroke="#191970" points="2926.2642,-119.6867 2917.0389,-124.8967 2927.4996,-126.5768 2926.2642,-119.6867"/>
</g>
<!-- Node76 -->
<g id="node33" class="node">
<title>Node76</title>
<g id="a_node33"><a xlink:href="Jacobians_8cpp.html" target="_top" xlink:title="Jacobians.cpp">
<polygon fill="none" stroke="#000000" points="3326.3449,-62 3326.3449,-81 3409.3449,-81 3409.3449,-62 3326.3449,-62"/>
<text text-anchor="middle" x="3367.8449" y="-69" font-family="FreeSans.ttf" font-size="10.00" fill="#000000">Jacobians.cpp</text>
</a>
</g>
</g>
<!-- Node33&#45;&gt;Node76 -->
<g id="edge33" class="edge">
<title>Node33&#45;&gt;Node76</title>
<path fill="none" stroke="#191970" d="M2926.9812,-123.5222C2928.2808,-123.3417 2929.5702,-123.1672 2930.8449,-123 3101.6811,-100.5879 3147.7778,-120.2208 3316.8449,-87 3324.4724,-85.5012 3332.5854,-83.3172 3340.0439,-81.059"/>
<polygon fill="#191970" stroke="#191970" points="2926.2739,-120.0885 2916.8905,-125.008 2927.2937,-127.0139 2926.2739,-120.0885"/>
</g>
<!-- Node77 -->
<g id="node34" class="node">
<title>Node77</title>
<g id="a_node34"><a xlink:href="Model_8cpp.html" target="_top" xlink:title="Model.cpp">
<polygon fill="none" stroke="#000000" points="3427.8449,-62 3427.8449,-81 3493.8449,-81 3493.8449,-62 3427.8449,-62"/>
<text text-anchor="middle" x="3460.8449" y="-69" font-family="FreeSans.ttf" font-size="10.00" fill="#000000">Model.cpp</text>
</a>
</g>
</g>
<!-- Node33&#45;&gt;Node77 -->
<g id="edge34" class="edge">
<title>Node33&#45;&gt;Node77</title>
<path fill="none" stroke="#191970" d="M2926.977,-123.4887C2928.2778,-123.3182 2929.5686,-123.1549 2930.8449,-123 3146.7392,-96.7997 3206.3085,-133.0987 3418.8449,-87 3425.3772,-85.5831 3432.2605,-83.369 3438.5218,-81.0532"/>
<polygon fill="#191970" stroke="#191970" points="2926.2899,-120.0509 2916.8791,-124.9177 2927.2708,-126.9819 2926.2899,-120.0509"/>
</g>
<!-- Node78 -->
<g id="node35" class="node">
<title>Node78</title>
<g id="a_node35"><a xlink:href="URDFModelExport_8cpp.html" target="_top" xlink:title="URDFModelExport.cpp">
<polygon fill="none" stroke="#000000" points="3512.3449,-62 3512.3449,-81 3637.3449,-81 3637.3449,-62 3512.3449,-62"/>
<text text-anchor="middle" x="3574.8449" y="-69" font-family="FreeSans.ttf" font-size="10.00" fill="#000000">URDFModelExport.cpp</text>
</a>
</g>
</g>
<!-- Node33&#45;&gt;Node78 -->
<g id="edge35" class="edge">
<title>Node33&#45;&gt;Node78</title>
<path fill="none" stroke="#191970" d="M2926.9748,-123.47C2928.2763,-123.3051 2929.5678,-123.148 2930.8449,-123 3183.8766,-93.6762 3250.522,-121.9013 3502.8449,-87 3513.6108,-85.5109 3525.1651,-83.3018 3535.7974,-81.0151"/>
<polygon fill="#191970" stroke="#191970" points="2926.2991,-120.03 2916.8731,-124.8673 2927.2584,-126.964 2926.2991,-120.03"/>
</g>
<!-- Node79 -->
<g id="node36" class="node">
<title>Node79</title>
<g id="a_node36"><a xlink:href="AlglibInterface_8cpp.html" target="_top" xlink:title="AlglibInterface.cpp">
<polygon fill="none" stroke="#000000" points="3655.8449,-62 3655.8449,-81 3763.8449,-81 3763.8449,-62 3655.8449,-62"/>
<text text-anchor="middle" x="3709.8449" y="-69" font-family="FreeSans.ttf" font-size="10.00" fill="#000000">AlglibInterface.cpp</text>
</a>
</g>
</g>
<!-- Node33&#45;&gt;Node79 -->
<g id="edge36" class="edge">
<title>Node33&#45;&gt;Node79</title>
<path fill="none" stroke="#191970" d="M2926.9723,-123.4481C2928.2745,-123.2897 2929.5669,-123.1399 2930.8449,-123 3247.5759,-88.3176 3331.5985,-133.2717 3646.8449,-87 3656.429,-85.5933 3666.6835,-83.3824 3676.0765,-81.0665"/>
<polygon fill="#191970" stroke="#191970" points="2926.3101,-120.0055 2916.8664,-124.8084 2927.244,-126.943 2926.3101,-120.0055"/>
</g>
<!-- Node80 -->
<g id="node37" class="node">
<title>Node80</title>
<g id="a_node37"><a xlink:href="ConstraintsGroup_8cpp.html" target="_top" xlink:title="ConstraintsGroup.cpp">
<polygon fill="none" stroke="#000000" points="3781.8449,-62 3781.8449,-81 3903.8449,-81 3903.8449,-62 3781.8449,-62"/>
<text text-anchor="middle" x="3842.8449" y="-69" font-family="FreeSans.ttf" font-size="10.00" fill="#000000">ConstraintsGroup.cpp</text>
</a>
</g>
</g>
<!-- Node33&#45;&gt;Node80 -->
<g id="edge37" class="edge">
<title>Node33&#45;&gt;Node80</title>
<path fill="none" stroke="#191970" d="M2926.9709,-123.435C2928.2736,-123.2806 2929.5664,-123.1351 2930.8449,-123 3303.3338,-83.6265 3401.457,-135.6755 3772.8449,-87 3783.5821,-85.5927 3795.1059,-83.3518 3805.6416,-81.0064"/>
<polygon fill="#191970" stroke="#191970" points="2926.3168,-119.991 2916.8627,-124.7733 2927.2356,-126.9304 2926.3168,-119.991"/>
</g>
<!-- Node81 -->
<g id="node38" class="node">
<title>Node81</title>
<g id="a_node38"><a xlink:href="FixedStepIntegrator_8cpp.html" target="_top" xlink:title="FixedStepIntegrator.cpp">
<polygon fill="none" stroke="#000000" points="3922.3449,-62 3922.3449,-81 4053.3449,-81 4053.3449,-62 3922.3449,-62"/>
<text text-anchor="middle" x="3987.8449" y="-69" font-family="FreeSans.ttf" font-size="10.00" fill="#000000">FixedStepIntegrator.cpp</text>
</a>
</g>
</g>
<!-- Node33&#45;&gt;Node81 -->
<g id="edge38" class="edge">
<title>Node33&#45;&gt;Node81</title>
<path fill="none" stroke="#191970" d="M2926.9698,-123.4245C2928.2728,-123.2732 2929.566,-123.1313 2930.8449,-123 3365.3006,-78.4128 3479.2595,-139.3784 3912.8449,-87 3924.3289,-85.6127 3936.6694,-83.3782 3947.9579,-81.0325"/>
<polygon fill="#191970" stroke="#191970" points="2926.3222,-119.9792 2916.8597,-124.7448 2927.2288,-126.9203 2926.3222,-119.9792"/>
</g>
<!-- Node82 -->
<g id="node39" class="node">
<title>Node82</title>
<g id="a_node39"><a xlink:href="ForwardEuler_8cpp.html" target="_top" xlink:title="ForwardEuler.cpp">
<polygon fill="none" stroke="#000000" points="4071.8449,-62 4071.8449,-81 4171.8449,-81 4171.8449,-62 4071.8449,-62"/>
<text text-anchor="middle" x="4121.8449" y="-69" font-family="FreeSans.ttf" font-size="10.00" fill="#000000">ForwardEuler.cpp</text>
</a>
</g>
</g>
<!-- Node33&#45;&gt;Node82 -->
<g id="edge39" class="edge">
<title>Node33&#45;&gt;Node82</title>
<path fill="none" stroke="#191970" d="M2926.9689,-123.416C2928.2722,-123.2673 2929.5656,-123.1282 2930.8449,-123 3431.7035,-72.8256 3564.7145,-159.4082 4062.8449,-87 4072.0677,-85.6594 4081.9215,-83.4089 4090.8827,-81.0325"/>
<polygon fill="#191970" stroke="#191970" points="2926.3266,-119.9698 2916.8574,-124.7221 2927.2234,-126.9122 2926.3266,-119.9698"/>
</g>
<!-- Node83 -->
<g id="node40" class="node">
<title>Node83</title>
<g id="a_node40"><a xlink:href="ImplicitTrapezoidal_8cpp.html" target="_top" xlink:title="ImplicitTrapezoidal.cpp">
<polygon fill="none" stroke="#000000" points="4190.3449,-62 4190.3449,-81 4319.3449,-81 4319.3449,-62 4190.3449,-62"/>
<text text-anchor="middle" x="4254.8449" y="-69" font-family="FreeSans.ttf" font-size="10.00" fill="#000000">ImplicitTrapezoidal.cpp</text>
</a>
</g>
</g>
<!-- Node33&#45;&gt;Node83 -->
<g id="edge40" class="edge">
<title>Node33&#45;&gt;Node83</title>
<path fill="none" stroke="#191970" d="M2926.9684,-123.4108C2928.2718,-123.2636 2929.5654,-123.1262 2930.8449,-123 3483.9453,-68.4299 3628.8999,-152.2282 4180.8449,-87 4192.316,-85.6444 4204.6448,-83.3892 4215.8863,-81.0131"/>
<polygon fill="#191970" stroke="#191970" points="2926.3293,-119.964 2916.856,-124.7081 2927.2201,-126.9071 2926.3293,-119.964"/>
</g>
<!-- Node84 -->
<g id="node41" class="node">
<title>Node84</title>
<g id="a_node41"><a xlink:href="Integrator_8cpp.html" target="_top" xlink:title="Integrator.cpp">
<polygon fill="none" stroke="#000000" points="4337.8449,-62 4337.8449,-81 4421.8449,-81 4421.8449,-62 4337.8449,-62"/>
<text text-anchor="middle" x="4379.8449" y="-69" font-family="FreeSans.ttf" font-size="10.00" fill="#000000">Integrator.cpp</text>
</a>
</g>
</g>
<!-- Node33&#45;&gt;Node84 -->
<g id="edge41" class="edge">
<title>Node33&#45;&gt;Node84</title>
<path fill="none" stroke="#191970" d="M2926.9679,-123.4055C2928.2715,-123.2599 2929.5653,-123.1243 2930.8449,-123 3240.1591,-92.9581 4022.0643,-136.6334 4328.8449,-87 4336.9753,-85.6846 4345.6166,-83.4104 4353.431,-81.0031"/>
<polygon fill="#191970" stroke="#191970" points="2926.3321,-119.9581 2916.8546,-124.6938 2927.2167,-126.902 2926.3321,-119.9581"/>
</g>
<!-- Node85 -->
<g id="node42" class="node">
<title>Node85</title>
<g id="a_node42"><a xlink:href="IpoptInterface_8cpp.html" target="_top" xlink:title="IpoptInterface.cpp">
<polygon fill="none" stroke="#000000" points="4440.3449,-62 4440.3449,-81 4545.3449,-81 4545.3449,-62 4440.3449,-62"/>
<text text-anchor="middle" x="4492.8449" y="-69" font-family="FreeSans.ttf" font-size="10.00" fill="#000000">IpoptInterface.cpp</text>
</a>
</g>
</g>
<!-- Node33&#45;&gt;Node85 -->
<g id="edge42" class="edge">
<title>Node33&#45;&gt;Node85</title>
<path fill="none" stroke="#191970" d="M2926.9676,-123.4025C2928.2713,-123.2578 2929.5651,-123.1232 2930.8449,-123 3594.6365,-59.1159 3770.0078,-176.4137 4430.8449,-87 4440.5205,-85.6909 4450.8703,-83.4502 4460.2874,-81.0732"/>
<polygon fill="#191970" stroke="#191970" points="2926.3337,-119.9547 2916.8538,-124.6856 2927.2148,-126.8991 2926.3337,-119.9547"/>
</g>
<!-- Node86 -->
<g id="node43" class="node">
<title>Node86</title>
<g id="a_node43"><a xlink:href="L2NormCost_8cpp.html" target="_top" xlink:title="L2NormCost.cpp">
<polygon fill="none" stroke="#000000" points="4563.3449,-62 4563.3449,-81 4660.3449,-81 4660.3449,-62 4563.3449,-62"/>
<text text-anchor="middle" x="4611.8449" y="-69" font-family="FreeSans.ttf" font-size="10.00" fill="#000000">L2NormCost.cpp</text>
</a>
</g>
</g>
<!-- Node33&#45;&gt;Node86 -->
<g id="edge43" class="edge">
<title>Node33&#45;&gt;Node86</title>
<path fill="none" stroke="#191970" d="M2926.9673,-123.3993C2928.2711,-123.2556 2929.565,-123.122 2930.8449,-123 3290.1937,-88.748 4197.595,-138.743 4554.8449,-87 4563.8778,-85.6917 4573.5193,-83.4197 4582.2544,-81.0121"/>
<polygon fill="#191970" stroke="#191970" points="2926.3354,-119.9512 2916.853,-124.6771 2927.2128,-126.896 2926.3354,-119.9512"/>
</g>
<!-- Node34&#45;&gt;Node36 -->
<g id="edge3" class="edge">
<title>Node34&#45;&gt;Node36</title>
<path fill="none" stroke="#191970" d="M1471.6862,-59.1306C1467.0637,-57.9115 1462.3716,-56.8234 1457.8449,-56 1334.2115,-33.5127 958.2582,-17.6817 809.9432,-12.1562"/>
<polygon fill="#191970" stroke="#191970" points="1471.0268,-62.582 1481.6032,-61.9565 1472.9452,-55.85 1471.0268,-62.582"/>
</g>
<!-- Node34&#45;&gt;Node38 -->
<g id="edge4" class="edge">
<title>Node34&#45;&gt;Node38</title>
<path fill="none" stroke="#191970" d="M1545.0943,-59.1339C1550.0032,-57.8577 1555.0132,-56.7543 1559.8449,-56 1716.2255,-31.585 4181.2737,-13.4987 4621.753,-10.4537"/>
<polygon fill="#191970" stroke="#191970" points="1543.9074,-55.8327 1535.2497,-61.9396 1545.8261,-62.5646 1543.9074,-55.8327"/>
</g>
<!-- Node109&#45;&gt;Node46 -->
<g id="edge45" class="edge">
<title>Node109&#45;&gt;Node46</title>
<path fill="none" stroke="#191970" d="M507.5994,-114.253C513.267,-103.3606 520.1749,-90.0846 524.7744,-81.2449"/>
<polygon fill="#191970" stroke="#191970" points="504.3559,-112.9041 502.8449,-123.3906 510.5656,-116.1352 504.3559,-112.9041"/>
</g>
<!-- Node109&#45;&gt;Node48 -->
<g id="edge46" class="edge">
<title>Node109&#45;&gt;Node48</title>
<path fill="none" stroke="#191970" d="M528.9344,-119.3428C555.4067,-107.7139 592.7601,-91.3051 616.1235,-81.0419"/>
<polygon fill="#191970" stroke="#191970" points="527.4678,-116.1642 519.7199,-123.3906 530.2831,-122.5731 527.4678,-116.1642"/>
</g>
<!-- Node109&#45;&gt;Node63 -->
<g id="edge47" class="edge">
<title>Node109&#45;&gt;Node63</title>
<path fill="none" stroke="#191970" d="M430.1538,-122.5648C370.1501,-113.2945 280.1516,-99.341 201.8449,-87 189.6315,-85.0752 176.5561,-82.9974 164.0865,-81.0078"/>
<polygon fill="#191970" stroke="#191970" points="429.8413,-126.0579 440.2584,-124.1254 430.9098,-119.14 429.8413,-126.0579"/>
</g>
<!-- Node109&#45;&gt;Node64 -->
<g id="edge48" class="edge">
<title>Node109&#45;&gt;Node64</title>
<path fill="none" stroke="#191970" d="M455.4866,-120.4758C422.2772,-110.6567 375.9474,-96.9582 340.7274,-86.5446"/>
<polygon fill="#191970" stroke="#191970" points="454.7629,-123.9115 465.3449,-123.3906 456.7477,-117.1988 454.7629,-123.9115"/>
</g>
<!-- Node109&#45;&gt;Node73 -->
<g id="edge49" class="edge">
<title>Node109&#45;&gt;Node73</title>
<path fill="none" stroke="#191970" d="M479.6543,-116.5482C467.1949,-105.2798 451.0919,-90.716 440.6197,-81.2449"/>
<polygon fill="#191970" stroke="#191970" points="477.4555,-119.2787 487.2199,-123.3906 482.1509,-114.0871 477.4555,-119.2787"/>
</g>
<!-- Node199&#45;&gt;Node42 -->
<g id="edge51" class="edge">
<title>Node199&#45;&gt;Node42</title>
<path fill="none" stroke="#191970" d="M811.4027,-119.7993C841.9077,-108.1468 885.6438,-91.4402 912.8653,-81.0419"/>
<polygon fill="#191970" stroke="#191970" points="810.0938,-116.5526 802.0011,-123.3906 812.5918,-123.0917 810.0938,-116.5526"/>
</g>
<!-- Node199&#45;&gt;Node46 -->
<g id="edge52" class="edge">
<title>Node199&#45;&gt;Node46</title>
<path fill="none" stroke="#191970" d="M735.599,-124.5387C695.173,-115.9939 631.9224,-101.9522 577.8449,-87 571.3458,-85.203 564.4138,-83.0848 557.8973,-81.0011"/>
<polygon fill="#191970" stroke="#191970" points="735.1103,-128.0124 745.6162,-126.6422 736.5489,-121.1618 735.1103,-128.0124"/>
</g>
<!-- Node199&#45;&gt;Node48 -->
<g id="edge53" class="edge">
<title>Node199&#45;&gt;Node48</title>
<path fill="none" stroke="#191970" d="M745.9774,-119.3428C719.6943,-107.7139 682.6077,-91.3051 659.4111,-81.0419"/>
<polygon fill="#191970" stroke="#191970" points="744.5651,-122.5452 755.1261,-123.3906 747.3974,-116.1437 744.5651,-122.5452"/>
</g>
<!-- Node199&#45;&gt;Node66 -->
<g id="edge54" class="edge">
<title>Node199&#45;&gt;Node66</title>
<path fill="none" stroke="#191970" d="M776.8449,-113.2462C776.8449,-102.5519 776.8449,-89.814 776.8449,-81.2449"/>
<polygon fill="#191970" stroke="#191970" points="773.345,-113.3906 776.8449,-123.3906 780.345,-113.3907 773.345,-113.3906"/>
</g>
<!-- Node231&#45;&gt;Node63 -->
<g id="edge63" class="edge">
<title>Node231&#45;&gt;Node63</title>
<path fill="none" stroke="#191970" d="M278.1729,-120.6229C236.9712,-108.9459 176.0765,-91.6877 138.5131,-81.0419"/>
<polygon fill="#191970" stroke="#191970" points="277.3632,-124.0312 287.9386,-123.3906 279.2719,-117.2965 277.3632,-124.0312"/>
</g>
<!-- Node231&#45;&gt;Node64 -->
<g id="edge64" class="edge">
<title>Node231&#45;&gt;Node64</title>
<path fill="none" stroke="#191970" d="M312.2289,-114.5193C307.577,-105.5789 302.0638,-94.9832 297.673,-86.5446"/>
<polygon fill="#191970" stroke="#191970" points="309.1242,-116.1352 316.8449,-123.3906 315.3339,-112.9041 309.1242,-116.1352"/>
</g>
<!-- Node231&#45;&gt;Node73 -->
<g id="edge65" class="edge">
<title>Node231&#45;&gt;Node73</title>
<path fill="none" stroke="#191970" d="M347.4576,-118.415C367.7588,-106.8546 395.5395,-91.035 413.0884,-81.0419"/>
<polygon fill="#191970" stroke="#191970" points="345.6778,-115.4007 338.7199,-123.3906 349.1417,-121.4836 345.6778,-115.4007"/>
</g>
</g>
</svg>
