<?xml version="1.0" encoding="UTF-8" standalone="no"?>
<!DOCTYPE svg PUBLIC "-//W3C//DTD SVG 1.1//EN"
 "http://www.w3.org/Graphics/SVG/1.1/DTD/svg11.dtd">
<!-- Generated by graphviz version 2.40.1 (20161225.0304)
 -->
<!-- Title: SpatialMotionVector.h Pages: 1 -->
<svg width="1458pt" height="509pt"
 viewBox="0.00 0.00 1458.00 509.00" xmlns="http://www.w3.org/2000/svg" xmlns:xlink="http://www.w3.org/1999/xlink">
<g id="graph0" class="graph" transform="scale(1 1) rotate(0) translate(4 505)">
<title>SpatialMotionVector.h</title>
<!-- Node0 -->
<g id="node1" class="node">
<title>Node0</title>
<polygon fill="#bfbfbf" stroke="#000000" points="395,-481.5 395,-500.5 517,-500.5 517,-481.5 395,-481.5"/>
<text text-anchor="middle" x="456" y="-488.5" font-family="FreeSans.ttf" font-size="10.00" fill="#000000">SpatialMotionVector.h</text>
</g>
<!-- Node1 -->
<g id="node2" class="node">
<title>Node1</title>
<g id="a_node2"><a xlink:href="VectorFixSize_8h.html" target="_top" xlink:title="iDynTree/Core/VectorFixSize.h">
<polygon fill="none" stroke="#000000" points="420.5,-112.5 420.5,-131.5 581.5,-131.5 581.5,-112.5 420.5,-112.5"/>
<text text-anchor="middle" x="501" y="-119.5" font-family="FreeSans.ttf" font-size="10.00" fill="#000000">iDynTree/Core/VectorFixSize.h</text>
</a>
</g>
</g>
<!-- Node0&#45;&gt;Node1 -->
<g id="edge1" class="edge">
<title>Node0&#45;&gt;Node1</title>
<path fill="none" stroke="#191970" d="M394.7161,-488.9918C325.7324,-485.2897 219.9922,-474.7822 195,-445 186.1434,-434.446 191.4788,-427.3202 195,-414 219.8244,-320.0925 232.9169,-291.2549 303,-224 348.8138,-180.0351 417.3203,-150.5044 460.5576,-134.9798"/>
<polygon fill="#191970" stroke="#191970" points="461.9,-138.2181 470.1788,-131.6066 459.584,-131.6123 461.9,-138.2181"/>
</g>
<!-- Node16 -->
<g id="node17" class="node">
<title>Node16</title>
<g id="a_node17"><a xlink:href="LinearMotionVector3_8h.html" target="_top" xlink:title="iDynTree/Core/LinearMotion\lVector3.h">
<polygon fill="none" stroke="#000000" points="380.5,-414.5 380.5,-444.5 531.5,-444.5 531.5,-414.5 380.5,-414.5"/>
<text text-anchor="start" x="388.5" y="-432.5" font-family="FreeSans.ttf" font-size="10.00" fill="#000000">iDynTree/Core/LinearMotion</text>
<text text-anchor="middle" x="456" y="-421.5" font-family="FreeSans.ttf" font-size="10.00" fill="#000000">Vector3.h</text>
</a>
</g>
</g>
<!-- Node0&#45;&gt;Node16 -->
<g id="edge18" class="edge">
<title>Node0&#45;&gt;Node16</title>
<path fill="none" stroke="#191970" d="M456,-481.3906C456,-474.2234 456,-464.0862 456,-454.671"/>
<polygon fill="#191970" stroke="#191970" points="459.5001,-454.5446 456,-444.5446 452.5001,-454.5446 459.5001,-454.5446"/>
</g>
<!-- Node24 -->
<g id="node25" class="node">
<title>Node24</title>
<g id="a_node25"><a xlink:href="PrivateMotionForceVertorAssociations_8h.html" target="_top" xlink:title="iDynTree/Core/PrivateMotion\lForceVertorAssociations.h">
<polygon fill="none" stroke="#000000" points="312.5,-224.5 312.5,-254.5 467.5,-254.5 467.5,-224.5 312.5,-224.5"/>
<text text-anchor="start" x="320.5" y="-242.5" font-family="FreeSans.ttf" font-size="10.00" fill="#000000">iDynTree/Core/PrivateMotion</text>
<text text-anchor="middle" x="390" y="-231.5" font-family="FreeSans.ttf" font-size="10.00" fill="#000000">ForceVertorAssociations.h</text>
</a>
</g>
</g>
<!-- Node0&#45;&gt;Node24 -->
<g id="edge62" class="edge">
<title>Node0&#45;&gt;Node24</title>
<path fill="none" stroke="#191970" d="M490.7227,-481.4044C508.8051,-474.4487 529.3209,-463.0236 540,-445 547.0232,-433.1466 543.6058,-427.2976 540,-414 523.4222,-352.8639 511.5662,-336.9829 468,-291 456.5561,-278.9213 441.7658,-268.2562 428.1459,-259.8103"/>
<polygon fill="#191970" stroke="#191970" points="429.7906,-256.7158 419.4116,-254.588 426.1983,-262.7238 429.7906,-256.7158"/>
</g>
<!-- Node25 -->
<g id="node26" class="node">
<title>Node25</title>
<g id="a_node26"><a xlink:href="AngularMotionVector3_8h.html" target="_top" xlink:title="iDynTree/Core/AngularMotion\lVector3.h">
<polygon fill="none" stroke="#000000" points="204,-414.5 204,-444.5 362,-444.5 362,-414.5 204,-414.5"/>
<text text-anchor="start" x="212" y="-432.5" font-family="FreeSans.ttf" font-size="10.00" fill="#000000">iDynTree/Core/AngularMotion</text>
<text text-anchor="middle" x="283" y="-421.5" font-family="FreeSans.ttf" font-size="10.00" fill="#000000">Vector3.h</text>
</a>
</g>
</g>
<!-- Node0&#45;&gt;Node25 -->
<g id="edge41" class="edge">
<title>Node0&#45;&gt;Node25</title>
<path fill="none" stroke="#191970" d="M428.9688,-481.3906C403.9294,-472.4893 366.0043,-459.0073 335.0871,-448.0165"/>
<polygon fill="#191970" stroke="#191970" points="335.9153,-444.5964 325.3206,-444.5446 333.5705,-451.192 335.9153,-444.5964"/>
</g>
<!-- Node26 -->
<g id="node27" class="node">
<title>Node26</title>
<g id="a_node27"><a xlink:href="SpatialVector_8h.html" target="_top" xlink:title="iDynTree/Core/SpatialVector.h">
<polygon fill="none" stroke="#000000" points="915.5,-358.5 915.5,-377.5 1076.5,-377.5 1076.5,-358.5 915.5,-358.5"/>
<text text-anchor="middle" x="996" y="-365.5" font-family="FreeSans.ttf" font-size="10.00" fill="#000000">iDynTree/Core/SpatialVector.h</text>
</a>
</g>
</g>
<!-- Node0&#45;&gt;Node26 -->
<g id="edge45" class="edge">
<title>Node0&#45;&gt;Node26</title>
<path fill="none" stroke="#191970" d="M497.9236,-481.4507C595.5078,-459.2232 837.6273,-404.0738 944.2202,-379.7943"/>
<polygon fill="#191970" stroke="#191970" points="945.1302,-383.1767 954.1031,-377.5432 943.5755,-376.3515 945.1302,-383.1767"/>
</g>
<!-- Node2 -->
<g id="node3" class="node">
<title>Node2</title>
<g id="a_node3"><a xlink:href="Utils_8h.html" target="_top" xlink:title="iDynTree/Core/Utils.h">
<polygon fill="none" stroke="#000000" points="441.5,-56.5 441.5,-75.5 560.5,-75.5 560.5,-56.5 441.5,-56.5"/>
<text text-anchor="middle" x="501" y="-63.5" font-family="FreeSans.ttf" font-size="10.00" fill="#000000">iDynTree/Core/Utils.h</text>
</a>
</g>
</g>
<!-- Node1&#45;&gt;Node2 -->
<g id="edge2" class="edge">
<title>Node1&#45;&gt;Node2</title>
<path fill="none" stroke="#191970" d="M501,-112.2455C501,-104.9382 501,-94.6944 501,-85.7046"/>
<polygon fill="#191970" stroke="#191970" points="504.5001,-85.6426 501,-75.6427 497.5001,-85.6427 504.5001,-85.6426"/>
</g>
<!-- Node4 -->
<g id="node5" class="node">
<title>Node4</title>
<g id="a_node5"><a xlink:href="Span_8h.html" target="_top" xlink:title="iDynTree/Core/Span.h">
<polygon fill="none" stroke="#000000" points="284.5,-56.5 284.5,-75.5 405.5,-75.5 405.5,-56.5 284.5,-56.5"/>
<text text-anchor="middle" x="345" y="-63.5" font-family="FreeSans.ttf" font-size="10.00" fill="#000000">iDynTree/Core/Span.h</text>
</a>
</g>
</g>
<!-- Node1&#45;&gt;Node4 -->
<g id="edge4" class="edge">
<title>Node1&#45;&gt;Node4</title>
<path fill="none" stroke="#191970" d="M474.1826,-112.3733C448.4668,-103.1419 409.462,-89.1402 381.0401,-78.9375"/>
<polygon fill="#191970" stroke="#191970" points="382.0619,-75.5857 371.4674,-75.5011 379.6968,-82.174 382.0619,-75.5857"/>
</g>
<!-- Node5 -->
<g id="node6" class="node">
<title>Node5</title>
<polygon fill="none" stroke="#bfbfbf" points="581,-.5 581,-19.5 633,-19.5 633,-.5 581,-.5"/>
<text text-anchor="middle" x="607" y="-7.5" font-family="FreeSans.ttf" font-size="10.00" fill="#000000">cassert</text>
</g>
<!-- Node1&#45;&gt;Node5 -->
<g id="edge16" class="edge">
<title>Node1&#45;&gt;Node5</title>
<path fill="none" stroke="#191970" d="M519.7244,-112.4272C534.427,-104.2317 554.7303,-91.3415 569,-76 581.8982,-62.1331 592.259,-43.1221 598.884,-29.0645"/>
<polygon fill="#191970" stroke="#191970" points="602.1193,-30.4038 603.0307,-19.8482 595.7357,-27.5316 602.1193,-30.4038"/>
</g>
<!-- Node13 -->
<g id="node14" class="node">
<title>Node13</title>
<polygon fill="none" stroke="#bfbfbf" points="1031,-56.5 1031,-75.5 1075,-75.5 1075,-56.5 1031,-56.5"/>
<text text-anchor="middle" x="1053" y="-63.5" font-family="FreeSans.ttf" font-size="10.00" fill="#000000">string</text>
</g>
<!-- Node1&#45;&gt;Node13 -->
<g id="edge14" class="edge">
<title>Node1&#45;&gt;Node13</title>
<path fill="none" stroke="#191970" d="M581.9483,-112.9616C585.004,-112.6345 588.0294,-112.3129 591,-112 752.2122,-95.0186 945.2524,-76.3293 1020.6228,-69.0954"/>
<polygon fill="#191970" stroke="#191970" points="1021.2512,-72.5513 1030.8715,-68.1128 1020.583,-65.5833 1021.2512,-72.5513"/>
</g>
<!-- Node14 -->
<g id="node15" class="node">
<title>Node14</title>
<polygon fill="none" stroke="#bfbfbf" points="859,-56.5 859,-75.5 915,-75.5 915,-56.5 859,-56.5"/>
<text text-anchor="middle" x="887" y="-63.5" font-family="FreeSans.ttf" font-size="10.00" fill="#000000">sstream</text>
</g>
<!-- Node1&#45;&gt;Node14 -->
<g id="edge15" class="edge">
<title>Node1&#45;&gt;Node14</title>
<path fill="none" stroke="#191970" d="M566.9172,-112.4369C648.0601,-100.6649 783.1529,-81.0659 848.8232,-71.5386"/>
<polygon fill="#191970" stroke="#191970" points="849.354,-74.9983 858.7479,-70.0988 848.3489,-68.0708 849.354,-74.9983"/>
</g>
<!-- Node15 -->
<g id="node16" class="node">
<title>Node15</title>
<polygon fill="none" stroke="#bfbfbf" points="658,-56.5 658,-75.5 708,-75.5 708,-56.5 658,-56.5"/>
<text text-anchor="middle" x="683" y="-63.5" font-family="FreeSans.ttf" font-size="10.00" fill="#000000">cstring</text>
</g>
<!-- Node1&#45;&gt;Node15 -->
<g id="edge17" class="edge">
<title>Node1&#45;&gt;Node15</title>
<path fill="none" stroke="#191970" d="M532.2869,-112.3733C564.5239,-102.4542 614.6608,-87.0275 648.1472,-76.7239"/>
<polygon fill="#191970" stroke="#191970" points="649.4382,-79.9887 657.9667,-73.7026 647.3796,-73.2983 649.4382,-79.9887"/>
</g>
<!-- Node3 -->
<g id="node4" class="node">
<title>Node3</title>
<polygon fill="none" stroke="#bfbfbf" points="509.5,-.5 509.5,-19.5 562.5,-19.5 562.5,-.5 509.5,-.5"/>
<text text-anchor="middle" x="536" y="-7.5" font-family="FreeSans.ttf" font-size="10.00" fill="#000000">cstddef</text>
</g>
<!-- Node2&#45;&gt;Node3 -->
<g id="edge3" class="edge">
<title>Node2&#45;&gt;Node3</title>
<path fill="none" stroke="#191970" d="M507.0965,-56.2455C511.9145,-48.5367 518.7751,-37.5598 524.6032,-28.2348"/>
<polygon fill="#191970" stroke="#191970" points="527.6413,-29.9777 529.9733,-19.6427 521.7053,-26.2677 527.6413,-29.9777"/>
</g>
<!-- Node4&#45;&gt;Node3 -->
<g id="edge8" class="edge">
<title>Node4&#45;&gt;Node3</title>
<path fill="none" stroke="#191970" d="M377.8341,-56.3733C411.7139,-46.4399 464.433,-30.983 499.5755,-20.6794"/>
<polygon fill="#191970" stroke="#191970" points="500.8223,-23.9613 509.4336,-17.7891 498.8528,-17.244 500.8223,-23.9613"/>
</g>
<!-- Node4&#45;&gt;Node5 -->
<g id="edge5" class="edge">
<title>Node4&#45;&gt;Node5</title>
<path fill="none" stroke="#191970" d="M397.2919,-56.4349C443.2452,-47.7728 511.8235,-34.2228 571,-20 571.0985,-19.9763 571.1972,-19.9525 571.2961,-19.9287"/>
<polygon fill="#191970" stroke="#191970" points="571.882,-23.3913 580.7093,-17.5323 570.1549,-16.6076 571.882,-23.3913"/>
</g>
<!-- Node6 -->
<g id="node7" class="node">
<title>Node6</title>
<polygon fill="none" stroke="#bfbfbf" points="0,-.5 0,-19.5 64,-19.5 64,-.5 0,-.5"/>
<text text-anchor="middle" x="32" y="-7.5" font-family="FreeSans.ttf" font-size="10.00" fill="#000000">algorithm</text>
</g>
<!-- Node4&#45;&gt;Node6 -->
<g id="edge6" class="edge">
<title>Node4&#45;&gt;Node6</title>
<path fill="none" stroke="#191970" d="M284.2699,-57.0063C231.2599,-48.8657 152.0576,-36.0059 74.1647,-20.1327"/>
<polygon fill="#191970" stroke="#191970" points="74.6797,-16.6654 64.1797,-18.0796 73.2698,-23.522 74.6797,-16.6654"/>
</g>
<!-- Node7 -->
<g id="node8" class="node">
<title>Node7</title>
<polygon fill="none" stroke="#bfbfbf" points="82,-.5 82,-19.5 124,-19.5 124,-.5 82,-.5"/>
<text text-anchor="middle" x="103" y="-7.5" font-family="FreeSans.ttf" font-size="10.00" fill="#000000">array</text>
</g>
<!-- Node4&#45;&gt;Node7 -->
<g id="edge7" class="edge">
<title>Node4&#45;&gt;Node7</title>
<path fill="none" stroke="#191970" d="M293.6483,-56.4734C252.7551,-48.5226 193.9069,-36.2713 134.1958,-20.1214"/>
<polygon fill="#191970" stroke="#191970" points="134.7878,-16.6547 124.2183,-17.3881 132.9382,-23.406 134.7878,-16.6547"/>
</g>
<!-- Node8 -->
<g id="node9" class="node">
<title>Node8</title>
<polygon fill="none" stroke="#bfbfbf" points="142.5,-.5 142.5,-19.5 195.5,-19.5 195.5,-.5 142.5,-.5"/>
<text text-anchor="middle" x="169" y="-7.5" font-family="FreeSans.ttf" font-size="10.00" fill="#000000">iterator</text>
</g>
<!-- Node4&#45;&gt;Node8 -->
<g id="edge9" class="edge">
<title>Node4&#45;&gt;Node8</title>
<path fill="none" stroke="#191970" d="M314.7445,-56.3733C284.3719,-46.7093 237.5683,-31.8172 205.2333,-21.5288"/>
<polygon fill="#191970" stroke="#191970" points="206.2875,-18.1914 195.697,-18.4945 204.165,-24.8618 206.2875,-18.1914"/>
</g>
<!-- Node9 -->
<g id="node10" class="node">
<title>Node9</title>
<polygon fill="none" stroke="#bfbfbf" points="214,-.5 214,-19.5 258,-19.5 258,-.5 214,-.5"/>
<text text-anchor="middle" x="236" y="-7.5" font-family="FreeSans.ttf" font-size="10.00" fill="#000000">limits</text>
</g>
<!-- Node4&#45;&gt;Node9 -->
<g id="edge10" class="edge">
<title>Node4&#45;&gt;Node9</title>
<path fill="none" stroke="#191970" d="M326.0136,-56.2455C308.8208,-47.4125 283.2762,-34.2887 263.7868,-24.2758"/>
<polygon fill="#191970" stroke="#191970" points="265.263,-21.0993 254.7688,-19.6427 262.0641,-27.3257 265.263,-21.0993"/>
</g>
<!-- Node10 -->
<g id="node11" class="node">
<title>Node10</title>
<polygon fill="none" stroke="#bfbfbf" points="276.5,-.5 276.5,-19.5 341.5,-19.5 341.5,-.5 276.5,-.5"/>
<text text-anchor="middle" x="309" y="-7.5" font-family="FreeSans.ttf" font-size="10.00" fill="#000000">stdexcept</text>
</g>
<!-- Node4&#45;&gt;Node10 -->
<g id="edge11" class="edge">
<title>Node4&#45;&gt;Node10</title>
<path fill="none" stroke="#191970" d="M338.7293,-56.2455C333.7736,-48.5367 326.717,-37.5598 320.7224,-28.2348"/>
<polygon fill="#191970" stroke="#191970" points="323.5506,-26.1618 315.1989,-19.6427 317.6624,-29.9471 323.5506,-26.1618"/>
</g>
<!-- Node11 -->
<g id="node12" class="node">
<title>Node11</title>
<polygon fill="none" stroke="#bfbfbf" points="359.5,-.5 359.5,-19.5 428.5,-19.5 428.5,-.5 359.5,-.5"/>
<text text-anchor="middle" x="394" y="-7.5" font-family="FreeSans.ttf" font-size="10.00" fill="#000000">type_traits</text>
</g>
<!-- Node4&#45;&gt;Node11 -->
<g id="edge12" class="edge">
<title>Node4&#45;&gt;Node11</title>
<path fill="none" stroke="#191970" d="M353.5351,-56.2455C360.4912,-48.2958 370.4883,-36.8706 378.8051,-27.3656"/>
<polygon fill="#191970" stroke="#191970" points="381.6116,-29.4732 385.5627,-19.6427 376.3436,-24.8637 381.6116,-29.4732"/>
</g>
<!-- Node12 -->
<g id="node13" class="node">
<title>Node12</title>
<polygon fill="none" stroke="#bfbfbf" points="446.5,-.5 446.5,-19.5 491.5,-19.5 491.5,-.5 446.5,-.5"/>
<text text-anchor="middle" x="469" y="-7.5" font-family="FreeSans.ttf" font-size="10.00" fill="#000000">utility</text>
</g>
<!-- Node4&#45;&gt;Node12 -->
<g id="edge13" class="edge">
<title>Node4&#45;&gt;Node12</title>
<path fill="none" stroke="#191970" d="M366.3164,-56.3733C386.2216,-47.3838 416.1436,-33.8706 438.56,-23.7471"/>
<polygon fill="#191970" stroke="#191970" points="440.2887,-26.8068 447.9618,-19.5011 437.4075,-20.4272 440.2887,-26.8068"/>
</g>
<!-- Node17 -->
<g id="node18" class="node">
<title>Node17</title>
<g id="a_node18"><a xlink:href="MotionVector3_8h.html" target="_top" xlink:title="iDynTree/Core/MotionVector3.h">
<polygon fill="none" stroke="#000000" points="306.5,-358.5 306.5,-377.5 473.5,-377.5 473.5,-358.5 306.5,-358.5"/>
<text text-anchor="middle" x="390" y="-365.5" font-family="FreeSans.ttf" font-size="10.00" fill="#000000">iDynTree/Core/MotionVector3.h</text>
</a>
</g>
</g>
<!-- Node16&#45;&gt;Node17 -->
<g id="edge19" class="edge">
<title>Node16&#45;&gt;Node17</title>
<path fill="none" stroke="#191970" d="M439.6854,-414.2977C430.0467,-405.3163 417.8309,-393.9334 407.9241,-384.702"/>
<polygon fill="#191970" stroke="#191970" points="410.2696,-382.1036 400.5674,-377.8469 405.4975,-387.2249 410.2696,-382.1036"/>
</g>
<!-- Node16&#45;&gt;Node24 -->
<g id="edge40" class="edge">
<title>Node16&#45;&gt;Node24</title>
<path fill="none" stroke="#191970" d="M467.6732,-414.4931C477.4196,-400.0652 488.7214,-377.6177 482,-358 468.7849,-319.429 437.3304,-283.7196 414.8847,-261.7949"/>
<polygon fill="#191970" stroke="#191970" points="417.0205,-258.9956 407.3657,-254.6326 412.1925,-264.0642 417.0205,-258.9956"/>
</g>
<!-- Node18 -->
<g id="node19" class="node">
<title>Node18</title>
<g id="a_node19"><a xlink:href="GeomVector3_8h.html" target="_top" xlink:title="iDynTree/Core/GeomVector3.h">
<polygon fill="none" stroke="#000000" points="607.5,-297 607.5,-316 770.5,-316 770.5,-297 607.5,-297"/>
<text text-anchor="middle" x="689" y="-304" font-family="FreeSans.ttf" font-size="10.00" fill="#000000">iDynTree/Core/GeomVector3.h</text>
</a>
</g>
</g>
<!-- Node17&#45;&gt;Node18 -->
<g id="edge20" class="edge">
<title>Node17&#45;&gt;Node18</title>
<path fill="none" stroke="#191970" d="M436.3907,-358.4581C489.3116,-347.573 575.8414,-329.7751 632.6106,-318.0985"/>
<polygon fill="#191970" stroke="#191970" points="633.4107,-321.5073 642.5005,-316.0643 632.0004,-314.6508 633.4107,-321.5073"/>
</g>
<!-- Node17&#45;&gt;Node24 -->
<g id="edge39" class="edge">
<title>Node17&#45;&gt;Node24</title>
<path fill="none" stroke="#191970" d="M390,-358.3416C390,-338.6745 390,-293.4221 390,-264.7784"/>
<polygon fill="#191970" stroke="#191970" points="393.5001,-264.7016 390,-254.7016 386.5001,-264.7016 393.5001,-264.7016"/>
</g>
<!-- Node18&#45;&gt;Node1 -->
<g id="edge21" class="edge">
<title>Node18&#45;&gt;Node1</title>
<path fill="none" stroke="#191970" d="M679.157,-296.8402C648.8272,-267.0751 556.5333,-176.4994 518.0899,-138.7718"/>
<polygon fill="#191970" stroke="#191970" points="520.3343,-136.0704 510.7456,-131.5641 515.4313,-141.0665 520.3343,-136.0704"/>
</g>
<!-- Node18&#45;&gt;Node2 -->
<g id="edge38" class="edge">
<title>Node18&#45;&gt;Node2</title>
<path fill="none" stroke="#191970" d="M668.5095,-296.9058C609.2145,-268.6753 439.8433,-184.5849 411,-132 397.6468,-107.6556 427.4437,-89.8851 456.2667,-78.957"/>
<polygon fill="#191970" stroke="#191970" points="457.6931,-82.1644 465.9403,-75.5136 455.3456,-75.5697 457.6931,-82.1644"/>
</g>
<!-- Node19 -->
<g id="node20" class="node">
<title>Node19</title>
<g id="a_node20"><a xlink:href="Rotation_8h.html" target="_top" xlink:title="iDynTree/Core/Rotation.h">
<polygon fill="none" stroke="#000000" points="782.5,-230 782.5,-249 919.5,-249 919.5,-230 782.5,-230"/>
<text text-anchor="middle" x="851" y="-237" font-family="FreeSans.ttf" font-size="10.00" fill="#000000">iDynTree/Core/Rotation.h</text>
</a>
</g>
</g>
<!-- Node18&#45;&gt;Node19 -->
<g id="edge22" class="edge">
<title>Node18&#45;&gt;Node19</title>
<path fill="none" stroke="#191970" d="M712.2107,-296.9005C739.9994,-285.4077 786.7228,-266.0838 818.1938,-253.068"/>
<polygon fill="#191970" stroke="#191970" points="819.9292,-256.1379 827.8324,-249.0817 817.2539,-249.6693 819.9292,-256.1379"/>
</g>
<!-- Node18&#45;&gt;Node24 -->
<g id="edge37" class="edge">
<title>Node18&#45;&gt;Node24</title>
<path fill="none" stroke="#191970" d="M646.4781,-296.9717C599.9369,-286.5427 524.3478,-269.6047 467.2598,-256.8124"/>
<polygon fill="#191970" stroke="#191970" points="467.7106,-253.3267 457.1873,-254.5553 466.18,-260.1573 467.7106,-253.3267"/>
</g>
<!-- Node19&#45;&gt;Node1 -->
<g id="edge36" class="edge">
<title>Node19&#45;&gt;Node1</title>
<path fill="none" stroke="#191970" d="M827.9202,-229.9022C792.8491,-215.4946 723.8798,-187.8521 664,-168 625.4275,-155.212 580.9967,-142.8249 548.2747,-134.1328"/>
<polygon fill="#191970" stroke="#191970" points="549.077,-130.7248 538.5149,-131.5576 547.291,-137.4931 549.077,-130.7248"/>
</g>
<!-- Node19&#45;&gt;Node13 -->
<g id="edge23" class="edge">
<title>Node19&#45;&gt;Node13</title>
<path fill="none" stroke="#191970" d="M869.464,-229.9684C887.6979,-220.2651 916.098,-204.361 939,-188 970.0274,-165.8342 978.032,-159.9229 1004,-132 1017.8977,-117.0561 1031.5584,-98.2135 1040.9104,-84.4908"/>
<polygon fill="#191970" stroke="#191970" points="1043.9936,-86.1765 1046.6464,-75.9192 1038.1761,-82.2834 1043.9936,-86.1765"/>
</g>
<!-- Node20 -->
<g id="node21" class="node">
<title>Node20</title>
<g id="a_node21"><a xlink:href="RotationRaw_8h.html" target="_top" xlink:title="iDynTree/Core/RotationRaw.h">
<polygon fill="none" stroke="#000000" points="772,-168.5 772,-187.5 930,-187.5 930,-168.5 772,-168.5"/>
<text text-anchor="middle" x="851" y="-175.5" font-family="FreeSans.ttf" font-size="10.00" fill="#000000">iDynTree/Core/RotationRaw.h</text>
</a>
</g>
</g>
<!-- Node19&#45;&gt;Node20 -->
<g id="edge24" class="edge">
<title>Node19&#45;&gt;Node20</title>
<path fill="none" stroke="#191970" d="M851,-229.8906C851,-221.3657 851,-208.6392 851,-197.9235"/>
<polygon fill="#191970" stroke="#191970" points="854.5001,-197.7448 851,-187.7449 847.5001,-197.7449 854.5001,-197.7448"/>
</g>
<!-- Node23 -->
<g id="node24" class="node">
<title>Node23</title>
<g id="a_node24"><a xlink:href="RotationSemantics_8h.html" target="_top" xlink:title="iDynTree/Core/RotationSemantics.h">
<polygon fill="none" stroke="#000000" points="600,-112.5 600,-131.5 788,-131.5 788,-112.5 600,-112.5"/>
<text text-anchor="middle" x="694" y="-119.5" font-family="FreeSans.ttf" font-size="10.00" fill="#000000">iDynTree/Core/RotationSemantics.h</text>
</a>
</g>
</g>
<!-- Node19&#45;&gt;Node23 -->
<g id="edge33" class="edge">
<title>Node19&#45;&gt;Node23</title>
<path fill="none" stroke="#191970" d="M831.6511,-229.8608C813.2576,-220.3156 785.1861,-204.7379 763,-188 743.3093,-173.1446 723.1977,-153.261 709.8069,-139.213"/>
<polygon fill="#191970" stroke="#191970" points="712.1489,-136.5941 702.7531,-131.6983 707.0451,-141.3848 712.1489,-136.5941"/>
</g>
<!-- Node20&#45;&gt;Node13 -->
<g id="edge32" class="edge">
<title>Node20&#45;&gt;Node13</title>
<path fill="none" stroke="#191970" d="M886.9866,-168.4811C912.8145,-160.7792 947.8784,-148.5005 976,-132 999.0633,-118.4675 1021.8623,-97.7623 1036.5933,-83.1579"/>
<polygon fill="#191970" stroke="#191970" points="1039.3647,-85.3325 1043.8976,-75.7563 1034.3822,-80.4156 1039.3647,-85.3325"/>
</g>
<!-- Node21 -->
<g id="node22" class="node">
<title>Node21</title>
<g id="a_node22"><a xlink:href="MatrixFixSize_8h.html" target="_top" xlink:title="iDynTree/Core/MatrixFixSize.h">
<polygon fill="none" stroke="#000000" points="806.5,-112.5 806.5,-131.5 967.5,-131.5 967.5,-112.5 806.5,-112.5"/>
<text text-anchor="middle" x="887" y="-119.5" font-family="FreeSans.ttf" font-size="10.00" fill="#000000">iDynTree/Core/MatrixFixSize.h</text>
</a>
</g>
</g>
<!-- Node20&#45;&gt;Node21 -->
<g id="edge25" class="edge">
<title>Node20&#45;&gt;Node21</title>
<path fill="none" stroke="#191970" d="M857.2707,-168.2455C862.2264,-160.5367 869.283,-149.5598 875.2776,-140.2348"/>
<polygon fill="#191970" stroke="#191970" points="878.3376,-141.9471 880.8011,-131.6427 872.4494,-138.1618 878.3376,-141.9471"/>
</g>
<!-- Node21&#45;&gt;Node2 -->
<g id="edge26" class="edge">
<title>Node21&#45;&gt;Node2</title>
<path fill="none" stroke="#191970" d="M821.0828,-112.4369C751.4068,-102.3284 641.9515,-86.4489 570.8289,-76.1306"/>
<polygon fill="#191970" stroke="#191970" points="571.0217,-72.622 560.6228,-74.6499 570.0166,-79.5495 571.0217,-72.622"/>
</g>
<!-- Node21&#45;&gt;Node5 -->
<g id="edge27" class="edge">
<title>Node21&#45;&gt;Node5</title>
<path fill="none" stroke="#191970" d="M863.1274,-112.4509C813.1205,-92.4482 697.2794,-46.1117 640.1193,-23.2477"/>
<polygon fill="#191970" stroke="#191970" points="641.3969,-19.9892 630.8122,-19.5249 638.7971,-26.4885 641.3969,-19.9892"/>
</g>
<!-- Node21&#45;&gt;Node13 -->
<g id="edge29" class="edge">
<title>Node21&#45;&gt;Node13</title>
<path fill="none" stroke="#191970" d="M915.5364,-112.3733C944.9357,-102.4554 990.6574,-87.0313 1021.1999,-76.7278"/>
<polygon fill="#191970" stroke="#191970" points="1022.5738,-79.9581 1030.9304,-73.4452 1020.3362,-73.3254 1022.5738,-79.9581"/>
</g>
<!-- Node21&#45;&gt;Node14 -->
<g id="edge31" class="edge">
<title>Node21&#45;&gt;Node14</title>
<path fill="none" stroke="#191970" d="M887,-112.2455C887,-104.9382 887,-94.6944 887,-85.7046"/>
<polygon fill="#191970" stroke="#191970" points="890.5001,-85.6426 887,-75.6427 883.5001,-85.6427 890.5001,-85.6426"/>
</g>
<!-- Node21&#45;&gt;Node15 -->
<g id="edge28" class="edge">
<title>Node21&#45;&gt;Node15</title>
<path fill="none" stroke="#191970" d="M851.9311,-112.3733C814.5488,-102.1114 755.6921,-85.9547 718.2431,-75.6746"/>
<polygon fill="#191970" stroke="#191970" points="718.8537,-72.2128 708.2839,-72.9407 717.0006,-78.9631 718.8537,-72.2128"/>
</g>
<!-- Node22 -->
<g id="node23" class="node">
<title>Node22</title>
<polygon fill="none" stroke="#bfbfbf" points="1266,-56.5 1266,-75.5 1326,-75.5 1326,-56.5 1266,-56.5"/>
<text text-anchor="middle" x="1296" y="-63.5" font-family="FreeSans.ttf" font-size="10.00" fill="#000000">iostream</text>
</g>
<!-- Node21&#45;&gt;Node22 -->
<g id="edge30" class="edge">
<title>Node21&#45;&gt;Node22</title>
<path fill="none" stroke="#191970" d="M956.8449,-112.4369C1042.7826,-100.6704 1185.8316,-81.0842 1255.451,-71.5519"/>
<polygon fill="#191970" stroke="#191970" points="1256.1417,-74.9901 1265.5744,-70.1658 1255.1921,-68.0548 1256.1417,-74.9901"/>
</g>
<!-- Node23&#45;&gt;Node2 -->
<g id="edge35" class="edge">
<title>Node23&#45;&gt;Node2</title>
<path fill="none" stroke="#191970" d="M660.8221,-112.3733C628.4513,-102.9807 579.0602,-88.6496 543.7576,-78.4064"/>
<polygon fill="#191970" stroke="#191970" points="544.3242,-74.9264 533.7449,-75.5011 542.3735,-81.6492 544.3242,-74.9264"/>
</g>
<!-- Node23&#45;&gt;Node13 -->
<g id="edge34" class="edge">
<title>Node23&#45;&gt;Node13</title>
<path fill="none" stroke="#191970" d="M755.3064,-112.4369C832.1968,-100.4428 961.1741,-80.3238 1020.8797,-71.0104"/>
<polygon fill="#191970" stroke="#191970" points="1021.5177,-74.4533 1030.8587,-69.4538 1020.4387,-67.5369 1021.5177,-74.4533"/>
</g>
<!-- Node25&#45;&gt;Node2 -->
<g id="edge44" class="edge">
<title>Node25&#45;&gt;Node2</title>
<path fill="none" stroke="#191970" d="M274.0929,-414.1541C261.7642,-391.4254 241,-347.1166 241,-306.5 241,-306.5 241,-306.5 241,-178 241,-133.6089 370.4552,-96.0993 446.6723,-77.8622"/>
<polygon fill="#191970" stroke="#191970" points="447.6689,-81.2233 456.5998,-75.5235 446.0637,-74.4099 447.6689,-81.2233"/>
</g>
<!-- Node25&#45;&gt;Node17 -->
<g id="edge42" class="edge">
<title>Node25&#45;&gt;Node17</title>
<path fill="none" stroke="#191970" d="M309.1751,-414.4554C326.0887,-404.734 347.9829,-392.15 364.7172,-382.5317"/>
<polygon fill="#191970" stroke="#191970" points="366.493,-385.548 373.4188,-377.5303 363.0047,-379.4791 366.493,-385.548"/>
</g>
<!-- Node25&#45;&gt;Node24 -->
<g id="edge43" class="edge">
<title>Node25&#45;&gt;Node24</title>
<path fill="none" stroke="#191970" d="M283.9005,-414.3594C285.2544,-399.4391 288.6273,-376.2861 297,-358 314.1409,-320.5644 345.3726,-284.3556 366.8808,-262.0233"/>
<polygon fill="#191970" stroke="#191970" points="369.5381,-264.3125 374.044,-254.7236 364.5418,-259.4097 369.5381,-264.3125"/>
</g>
<!-- Node26&#45;&gt;Node2 -->
<g id="edge56" class="edge">
<title>Node26&#45;&gt;Node2</title>
<path fill="none" stroke="#191970" d="M915.4202,-364.2854C815.9474,-358.7367 653.1645,-346.2367 598,-322 577.1571,-312.8426 458.2349,-204.9169 443,-188 422.7033,-165.4624 413.0836,-160.9377 404,-132 401.3378,-123.5191 399.2483,-119.5123 404,-112 413.7861,-96.5285 430.3422,-86.1575 447.0327,-79.2507"/>
<polygon fill="#191970" stroke="#191970" points="448.6948,-82.3652 456.8252,-75.572 446.2331,-75.8123 448.6948,-82.3652"/>
</g>
<!-- Node26&#45;&gt;Node14 -->
<g id="edge61" class="edge">
<title>Node26&#45;&gt;Node14</title>
<path fill="none" stroke="#191970" d="M996,-358.3281C996,-336.9175 996,-283.895 996,-239.5 996,-239.5 996,-239.5 996,-178 996,-147.3494 995.6045,-135.561 976,-112 962.7648,-96.0938 942.61,-85.037 924.8253,-77.7577"/>
<polygon fill="#191970" stroke="#191970" points="925.8383,-74.3979 915.2477,-74.0954 923.3381,-80.9362 925.8383,-74.3979"/>
</g>
<!-- Node26&#45;&gt;Node19 -->
<g id="edge54" class="edge">
<title>Node26&#45;&gt;Node19</title>
<path fill="none" stroke="#191970" d="M985.1014,-358.3416C960.539,-336.5742 900.6103,-283.465 869.8683,-256.2212"/>
<polygon fill="#191970" stroke="#191970" points="871.8305,-253.2835 862.025,-249.2705 867.1878,-258.5223 871.8305,-253.2835"/>
</g>
<!-- Node26&#45;&gt;Node22 -->
<g id="edge60" class="edge">
<title>Node26&#45;&gt;Node22</title>
<path fill="none" stroke="#191970" d="M1076.8847,-363.6218C1191.5715,-356.7454 1390.5419,-342.0952 1417,-322 1448.4488,-298.1143 1450,-278.9912 1450,-239.5 1450,-239.5 1450,-239.5 1450,-178 1450,-121.4834 1381.3232,-90.5033 1335.694,-76.1571"/>
<polygon fill="#191970" stroke="#191970" points="1336.6424,-72.7875 1326.0583,-73.2642 1334.6296,-79.4919 1336.6424,-72.7875"/>
</g>
<!-- Node26&#45;&gt;Node24 -->
<g id="edge55" class="edge">
<title>Node26&#45;&gt;Node24</title>
<path fill="none" stroke="#191970" d="M915.2342,-363.852C808.7608,-357.6165 627.6103,-344.1393 565,-322 541.0572,-313.5337 539.5335,-302.7124 517,-291 493.1573,-278.6071 465.6339,-267.1255 442.3179,-258.1631"/>
<polygon fill="#191970" stroke="#191970" points="443.5321,-254.8804 432.9408,-254.6063 441.0495,-261.4254 443.5321,-254.8804"/>
</g>
<!-- Node27 -->
<g id="node28" class="node">
<title>Node27</title>
<g id="a_node28"><a xlink:href="Position_8h.html" target="_top" xlink:title="Position.h">
<polygon fill="none" stroke="#000000" points="1069.5,-297 1069.5,-316 1134.5,-316 1134.5,-297 1069.5,-297"/>
<text text-anchor="middle" x="1102" y="-304" font-family="FreeSans.ttf" font-size="10.00" fill="#000000">Position.h</text>
</a>
</g>
</g>
<!-- Node26&#45;&gt;Node27 -->
<g id="edge46" class="edge">
<title>Node26&#45;&gt;Node27</title>
<path fill="none" stroke="#191970" d="M1012.5625,-358.3906C1029.7537,-348.4165 1056.8582,-332.6908 1076.7266,-321.1633"/>
<polygon fill="#191970" stroke="#191970" points="1078.6606,-324.0877 1085.5538,-316.0419 1075.1477,-318.033 1078.6606,-324.0877"/>
</g>
<!-- Node30 -->
<g id="node31" class="node">
<title>Node30</title>
<g id="a_node31"><a xlink:href="PrivatePreProcessorUtils_8h.html" target="_top" xlink:title="iDynTree/Core/PrivatePre\lProcessorUtils.h">
<polygon fill="none" stroke="#000000" points="1274,-224.5 1274,-254.5 1412,-254.5 1412,-224.5 1274,-224.5"/>
<text text-anchor="start" x="1282" y="-242.5" font-family="FreeSans.ttf" font-size="10.00" fill="#000000">iDynTree/Core/PrivatePre</text>
<text text-anchor="middle" x="1343" y="-231.5" font-family="FreeSans.ttf" font-size="10.00" fill="#000000">ProcessorUtils.h</text>
</a>
</g>
</g>
<!-- Node26&#45;&gt;Node30 -->
<g id="edge57" class="edge">
<title>Node26&#45;&gt;Node30</title>
<path fill="none" stroke="#191970" d="M1029.7961,-358.455C1059.9848,-349.7021 1105.2886,-336.007 1144,-322 1198.5353,-302.2675 1260.0189,-276.1698 1300.0232,-258.6583"/>
<polygon fill="#191970" stroke="#191970" points="1301.468,-261.8465 1309.2157,-254.62 1298.6525,-255.4377 1301.468,-261.8465"/>
</g>
<!-- Node31 -->
<g id="node32" class="node">
<title>Node31</title>
<g id="a_node32"><a xlink:href="PrivateSemanticsMacros_8h.html" target="_top" xlink:title="iDynTree/Core/PrivateSemantics\lMacros.h">
<polygon fill="none" stroke="#000000" points="1234.5,-291.5 1234.5,-321.5 1407.5,-321.5 1407.5,-291.5 1234.5,-291.5"/>
<text text-anchor="start" x="1242.5" y="-309.5" font-family="FreeSans.ttf" font-size="10.00" fill="#000000">iDynTree/Core/PrivateSemantics</text>
<text text-anchor="middle" x="1321" y="-298.5" font-family="FreeSans.ttf" font-size="10.00" fill="#000000">Macros.h</text>
</a>
</g>
</g>
<!-- Node26&#45;&gt;Node31 -->
<g id="edge58" class="edge">
<title>Node26&#45;&gt;Node31</title>
<path fill="none" stroke="#191970" d="M1046.4247,-358.4581C1095.7236,-349.1292 1171.8551,-334.7228 1231.4594,-323.4438"/>
<polygon fill="#191970" stroke="#191970" points="1232.4548,-326.8177 1241.6297,-321.5193 1231.1532,-319.9397 1232.4548,-326.8177"/>
</g>
<!-- Node27&#45;&gt;Node13 -->
<g id="edge53" class="edge">
<title>Node27&#45;&gt;Node13</title>
<path fill="none" stroke="#191970" d="M1116.3139,-296.8091C1147.0109,-274.7567 1214.3977,-218.7954 1189,-168 1167.2562,-124.5123 1117.1789,-94.7555 1084.2381,-79.0661"/>
<polygon fill="#191970" stroke="#191970" points="1085.5755,-75.8288 1075.0277,-74.8314 1082.6513,-82.1888 1085.5755,-75.8288"/>
</g>
<!-- Node27&#45;&gt;Node19 -->
<g id="edge52" class="edge">
<title>Node27&#45;&gt;Node19</title>
<path fill="none" stroke="#191970" d="M1069.4435,-297.8096C1025.3894,-286.0502 946.5733,-265.0116 896.6302,-251.6802"/>
<polygon fill="#191970" stroke="#191970" points="897.3042,-248.2376 886.7398,-249.0401 895.4989,-255.0008 897.3042,-248.2376"/>
</g>
<!-- Node28 -->
<g id="node29" class="node">
<title>Node28</title>
<g id="a_node29"><a xlink:href="PositionRaw_8h.html" target="_top" xlink:title="iDynTree/Core/PositionRaw.h">
<polygon fill="none" stroke="#000000" points="1024,-168.5 1024,-187.5 1180,-187.5 1180,-168.5 1024,-168.5"/>
<text text-anchor="middle" x="1102" y="-175.5" font-family="FreeSans.ttf" font-size="10.00" fill="#000000">iDynTree/Core/PositionRaw.h</text>
</a>
</g>
</g>
<!-- Node27&#45;&gt;Node28 -->
<g id="edge47" class="edge">
<title>Node27&#45;&gt;Node28</title>
<path fill="none" stroke="#191970" d="M1102,-296.8416C1102,-275.9114 1102,-226.004 1102,-197.9762"/>
<polygon fill="#191970" stroke="#191970" points="1105.5001,-197.7704 1102,-187.7705 1098.5001,-197.7705 1105.5001,-197.7704"/>
</g>
<!-- Node29 -->
<g id="node30" class="node">
<title>Node29</title>
<g id="a_node30"><a xlink:href="PositionSemantics_8h.html" target="_top" xlink:title="iDynTree/Core/PositionSemantics.h">
<polygon fill="none" stroke="#000000" points="1235.5,-168.5 1235.5,-187.5 1422.5,-187.5 1422.5,-168.5 1235.5,-168.5"/>
<text text-anchor="middle" x="1329" y="-175.5" font-family="FreeSans.ttf" font-size="10.00" fill="#000000">iDynTree/Core/PositionSemantics.h</text>
</a>
</g>
</g>
<!-- Node27&#45;&gt;Node29 -->
<g id="edge50" class="edge">
<title>Node27&#45;&gt;Node29</title>
<path fill="none" stroke="#191970" d="M1129.0166,-296.8589C1153.878,-287.5367 1191.4183,-272.3081 1222,-255 1242.5037,-243.3957 1245.879,-237.7641 1265,-224 1279.1194,-213.8363 1295.0001,-202.4219 1307.41,-193.5061"/>
<polygon fill="#191970" stroke="#191970" points="1309.6784,-196.1861 1315.7581,-187.5092 1305.5944,-190.5009 1309.6784,-196.1861"/>
</g>
<!-- Node28&#45;&gt;Node1 -->
<g id="edge48" class="edge">
<title>Node28&#45;&gt;Node1</title>
<path fill="none" stroke="#191970" d="M1023.6018,-171.4543C925.3242,-163.1337 751.4186,-148.0306 591.9418,-132.0776"/>
<polygon fill="#191970" stroke="#191970" points="592.2441,-128.5905 581.9446,-131.0745 591.5452,-135.5555 592.2441,-128.5905"/>
</g>
<!-- Node28&#45;&gt;Node13 -->
<g id="edge49" class="edge">
<title>Node28&#45;&gt;Node13</title>
<path fill="none" stroke="#191970" d="M1100.8237,-168.2181C1098.9698,-154.9835 1094.6517,-130.8612 1086,-112 1081.3656,-101.8967 1074.3855,-91.7426 1068.0367,-83.5544"/>
<polygon fill="#191970" stroke="#191970" points="1070.5527,-81.1001 1061.5363,-75.5364 1065.1152,-85.5084 1070.5527,-81.1001"/>
</g>
<!-- Node29&#45;&gt;Node13 -->
<g id="edge51" class="edge">
<title>Node29&#45;&gt;Node13</title>
<path fill="none" stroke="#191970" d="M1316.1619,-168.3723C1296.7248,-154.2033 1258.2432,-127.719 1222,-112 1176.2403,-92.1536 1119.7373,-78.8546 1085.0454,-71.8607"/>
<polygon fill="#191970" stroke="#191970" points="1085.5021,-68.3836 1075.0152,-69.8923 1084.154,-75.2526 1085.5021,-68.3836"/>
</g>
<!-- Node31&#45;&gt;Node30 -->
<g id="edge59" class="edge">
<title>Node31&#45;&gt;Node30</title>
<path fill="none" stroke="#191970" d="M1325.9921,-291.2967C1328.6081,-283.3299 1331.8779,-273.3718 1334.8497,-264.3213"/>
<polygon fill="#191970" stroke="#191970" points="1338.2332,-265.236 1338.0276,-254.6432 1331.5825,-263.0522 1338.2332,-265.236"/>
</g>
</g>
</svg>
