<?xml version="1.0" encoding="UTF-8" standalone="no"?>
<!DOCTYPE svg PUBLIC "-//W3C//DTD SVG 1.1//EN"
 "http://www.w3.org/Graphics/SVG/1.1/DTD/svg11.dtd">
<!-- Generated by graphviz version 2.40.1 (20161225.0304)
 -->
<!-- Title: SpatialMomentum.h Pages: 1 -->
<svg width="4284pt" height="341pt"
 viewBox="0.00 0.00 4284.46 341.00" xmlns="http://www.w3.org/2000/svg" xmlns:xlink="http://www.w3.org/1999/xlink">
<g id="graph0" class="graph" transform="scale(1 1) rotate(0) translate(4 337)">
<title>SpatialMomentum.h</title>
<!-- Node33 -->
<g id="node1" class="node">
<title>Node33</title>
<polygon fill="#bfbfbf" stroke="#000000" points="3775.9634,-313.5 3775.9634,-332.5 3890.9634,-332.5 3890.9634,-313.5 3775.9634,-313.5"/>
<text text-anchor="middle" x="3833.4634" y="-320.5" font-family="FreeSans.ttf" font-size="10.00" fill="#000000">SpatialMomentum.h</text>
</g>
<!-- Node34 -->
<g id="node2" class="node">
<title>Node34</title>
<g id="a_node2"><a xlink:href="SpatialInertia_8h.html" target="_top" xlink:title="SpatialInertia.h">
<polygon fill="none" stroke="#000000" points="1735.9634,-257.5 1735.9634,-276.5 1826.9634,-276.5 1826.9634,-257.5 1735.9634,-257.5"/>
<text text-anchor="middle" x="1781.4634" y="-264.5" font-family="FreeSans.ttf" font-size="10.00" fill="#000000">SpatialInertia.h</text>
</a>
</g>
</g>
<!-- Node33&#45;&gt;Node34 -->
<g id="edge1" class="edge">
<title>Node33&#45;&gt;Node34</title>
<path fill="none" stroke="#191970" d="M3765.8644,-321.1552C3446.5218,-312.4402 2093.4491,-275.5142 1827.0925,-268.2452"/>
<polygon fill="#191970" stroke="#191970" points="3765.8073,-324.6548 3775.8991,-321.429 3765.9983,-317.6574 3765.8073,-324.6548"/>
</g>
<!-- Node37 -->
<g id="node5" class="node">
<title>Node37</title>
<g id="a_node5"><a xlink:href="SpatialInertia_8cpp.html" target="_top" xlink:title="SpatialInertia.cpp">
<polygon fill="none" stroke="#000000" points="1098.4634,-196 1098.4634,-215 1200.4634,-215 1200.4634,-196 1098.4634,-196"/>
<text text-anchor="middle" x="1149.4634" y="-203" font-family="FreeSans.ttf" font-size="10.00" fill="#000000">SpatialInertia.cpp</text>
</a>
</g>
</g>
<!-- Node33&#45;&gt;Node37 -->
<g id="edge56" class="edge">
<title>Node33&#45;&gt;Node37</title>
<path fill="none" stroke="#191970" d="M3765.4759,-322.299C3407.1633,-318.5173 1745.7413,-299.8711 1517.4634,-277 1379.0233,-263.1298 1345.3535,-250.8644 1209.4634,-221 1201.3723,-219.2218 1192.7203,-217.1111 1184.5769,-215.0287"/>
<polygon fill="#191970" stroke="#191970" points="3765.6578,-325.801 3775.6941,-322.4065 3765.7315,-318.8014 3765.6578,-325.801"/>
</g>
<!-- Node39 -->
<g id="node7" class="node">
<title>Node39</title>
<g id="a_node7"><a xlink:href="Transform_8cpp.html" target="_top" xlink:title="Transform.cpp">
<polygon fill="none" stroke="#000000" points="1218.4634,-196 1218.4634,-215 1304.4634,-215 1304.4634,-196 1218.4634,-196"/>
<text text-anchor="middle" x="1261.4634" y="-203" font-family="FreeSans.ttf" font-size="10.00" fill="#000000">Transform.cpp</text>
</a>
</g>
</g>
<!-- Node33&#45;&gt;Node39 -->
<g id="edge58" class="edge">
<title>Node33&#45;&gt;Node39</title>
<path fill="none" stroke="#191970" d="M3765.5613,-322.5657C3451.3596,-320.3954 2136.4717,-309.5059 1726.4634,-277 1544.0025,-262.5343 1497.8134,-257.5346 1318.4634,-221 1310.3238,-219.3419 1301.6286,-217.1814 1293.5443,-215.0023"/>
<polygon fill="#191970" stroke="#191970" points="3765.8536,-326.0677 3775.8773,-322.6363 3765.9016,-319.0679 3765.8536,-326.0677"/>
</g>
<!-- Node45 -->
<g id="node13" class="node">
<title>Node45</title>
<g id="a_node13"><a xlink:href="ExtWrenchesAndJointTorquesEstimator_8cpp.html" target="_top" xlink:title="ExtWrenchesAndJointTorques\lEstimator.cpp">
<polygon fill="none" stroke="#000000" points="3112.4634,-.5 3112.4634,-30.5 3270.4634,-30.5 3270.4634,-.5 3112.4634,-.5"/>
<text text-anchor="start" x="3120.4634" y="-18.5" font-family="FreeSans.ttf" font-size="10.00" fill="#000000">ExtWrenchesAndJointTorques</text>
<text text-anchor="middle" x="3191.4634" y="-7.5" font-family="FreeSans.ttf" font-size="10.00" fill="#000000">Estimator.cpp</text>
</a>
</g>
</g>
<!-- Node33&#45;&gt;Node45 -->
<g id="edge61" class="edge">
<title>Node33&#45;&gt;Node45</title>
<path fill="none" stroke="#191970" d="M3843.623,-304.2574C3871.619,-251.3973 3945.6647,-102.6574 3912.4634,-67 3890.8436,-43.7809 3453.3641,-25.1054 3270.61,-18.2868"/>
<polygon fill="#191970" stroke="#191970" points="3840.4555,-302.7585 3838.8249,-313.2271 3846.6279,-306.0603 3840.4555,-302.7585"/>
</g>
<!-- Node51 -->
<g id="node17" class="node">
<title>Node51</title>
<g id="a_node17"><a xlink:href="ExternalWrenchesEstimation_8cpp.html" target="_top" xlink:title="ExternalWrenchesEstimation.cpp">
<polygon fill="none" stroke="#000000" points="3725.9634,-73 3725.9634,-92 3902.9634,-92 3902.9634,-73 3725.9634,-73"/>
<text text-anchor="middle" x="3814.4634" y="-80" font-family="FreeSans.ttf" font-size="10.00" fill="#000000">ExternalWrenchesEstimation.cpp</text>
</a>
</g>
</g>
<!-- Node33&#45;&gt;Node51 -->
<g id="edge60" class="edge">
<title>Node33&#45;&gt;Node51</title>
<path fill="none" stroke="#191970" d="M3831.9061,-303.2889C3828.0282,-254.2029 3818.0484,-127.8794 3815.2205,-92.0833"/>
<polygon fill="#191970" stroke="#191970" points="3828.4182,-303.581 3832.695,-313.2742 3835.3965,-303.0296 3828.4182,-303.581"/>
</g>
<!-- Node63 -->
<g id="node23" class="node">
<title>Node63</title>
<g id="a_node23"><a xlink:href="Dynamics_8cpp.html" target="_top" xlink:title="Dynamics.cpp">
<polygon fill="none" stroke="#000000" points="3621.4634,-73 3621.4634,-92 3707.4634,-92 3707.4634,-73 3621.4634,-73"/>
<text text-anchor="middle" x="3664.4634" y="-80" font-family="FreeSans.ttf" font-size="10.00" fill="#000000">Dynamics.cpp</text>
</a>
</g>
</g>
<!-- Node33&#45;&gt;Node63 -->
<g id="edge62" class="edge">
<title>Node33&#45;&gt;Node63</title>
<path fill="none" stroke="#191970" d="M3820.6833,-304.8131C3786.9953,-256.8723 3696.6164,-128.2562 3671.1976,-92.0833"/>
<polygon fill="#191970" stroke="#191970" points="3818.0159,-307.1046 3826.629,-313.2742 3823.7432,-303.08 3818.0159,-307.1046"/>
</g>
<!-- Node151 -->
<g id="node47" class="node">
<title>Node151</title>
<g id="a_node47"><a xlink:href="Position_8cpp.html" target="_top" xlink:title="Position.cpp">
<polygon fill="none" stroke="#000000" points="3880.4634,-257.5 3880.4634,-276.5 3956.4634,-276.5 3956.4634,-257.5 3880.4634,-257.5"/>
<text text-anchor="middle" x="3918.4634" y="-264.5" font-family="FreeSans.ttf" font-size="10.00" fill="#000000">Position.cpp</text>
</a>
</g>
</g>
<!-- Node33&#45;&gt;Node151 -->
<g id="edge54" class="edge">
<title>Node33&#45;&gt;Node151</title>
<path fill="none" stroke="#191970" d="M3857.0052,-307.49C3872.0023,-297.6096 3890.9607,-285.1194 3903.8272,-276.6427"/>
<polygon fill="#191970" stroke="#191970" points="3854.6943,-304.8212 3848.2692,-313.2455 3858.5454,-310.6666 3854.6943,-304.8212"/>
</g>
<!-- Node152 -->
<g id="node48" class="node">
<title>Node152</title>
<g id="a_node48"><a xlink:href="Rotation_8cpp.html" target="_top" xlink:title="Rotation.cpp">
<polygon fill="none" stroke="#000000" points="3974.9634,-257.5 3974.9634,-276.5 4051.9634,-276.5 4051.9634,-257.5 3974.9634,-257.5"/>
<text text-anchor="middle" x="4013.4634" y="-264.5" font-family="FreeSans.ttf" font-size="10.00" fill="#000000">Rotation.cpp</text>
</a>
</g>
</g>
<!-- Node33&#45;&gt;Node152 -->
<g id="edge55" class="edge">
<title>Node33&#45;&gt;Node152</title>
<path fill="none" stroke="#191970" d="M3874.2092,-310.3235C3907.2197,-300.0536 3953.005,-285.8093 3982.924,-276.5011"/>
<polygon fill="#191970" stroke="#191970" points="3872.9153,-307.0605 3864.4065,-313.3733 3874.9948,-313.7445 3872.9153,-307.0605"/>
</g>
<!-- Node153 -->
<g id="node49" class="node">
<title>Node153</title>
<g id="a_node49"><a xlink:href="SpatialMomentum_8cpp.html" target="_top" xlink:title="SpatialMomentum.cpp">
<polygon fill="none" stroke="#000000" points="4070.4634,-257.5 4070.4634,-276.5 4196.4634,-276.5 4196.4634,-257.5 4070.4634,-257.5"/>
<text text-anchor="middle" x="4133.4634" y="-264.5" font-family="FreeSans.ttf" font-size="10.00" fill="#000000">SpatialMomentum.cpp</text>
</a>
</g>
</g>
<!-- Node33&#45;&gt;Node153 -->
<g id="edge57" class="edge">
<title>Node33&#45;&gt;Node153</title>
<path fill="none" stroke="#191970" d="M3894.7202,-311.5654C3950.0492,-301.2373 4030.5312,-286.214 4082.4437,-276.5237"/>
<polygon fill="#191970" stroke="#191970" points="3893.8823,-308.1613 3884.6943,-313.4369 3895.1668,-315.0424 3893.8823,-308.1613"/>
</g>
<!-- Node154 -->
<g id="node50" class="node">
<title>Node154</title>
<g id="a_node50"><a xlink:href="Twist_8cpp.html" target="_top" xlink:title="Twist.cpp">
<polygon fill="none" stroke="#000000" points="4214.4634,-257.5 4214.4634,-276.5 4276.4634,-276.5 4276.4634,-257.5 4214.4634,-257.5"/>
<text text-anchor="middle" x="4245.4634" y="-264.5" font-family="FreeSans.ttf" font-size="10.00" fill="#000000">Twist.cpp</text>
</a>
</g>
</g>
<!-- Node33&#45;&gt;Node154 -->
<g id="edge59" class="edge">
<title>Node33&#45;&gt;Node154</title>
<path fill="none" stroke="#191970" d="M3901.3847,-317.1102C3976.2536,-310.0359 4100.0612,-296.6164 4205.4634,-277 4208.2783,-276.4761 4211.1901,-275.8718 4214.0998,-275.225"/>
<polygon fill="#191970" stroke="#191970" points="3900.7832,-313.651 3891.1522,-318.0663 3901.4344,-320.6207 3900.7832,-313.651"/>
</g>
<!-- Node35 -->
<g id="node3" class="node">
<title>Node35</title>
<g id="a_node3"><a xlink:href="ArticulatedBodyInertia_8cpp.html" target="_top" xlink:title="ArticulatedBodyInertia.cpp">
<polygon fill="none" stroke="#000000" points="1544.4634,-196 1544.4634,-215 1690.4634,-215 1690.4634,-196 1544.4634,-196"/>
<text text-anchor="middle" x="1617.4634" y="-203" font-family="FreeSans.ttf" font-size="10.00" fill="#000000">ArticulatedBodyInertia.cpp</text>
</a>
</g>
</g>
<!-- Node34&#45;&gt;Node35 -->
<g id="edge2" class="edge">
<title>Node34&#45;&gt;Node35</title>
<path fill="none" stroke="#191970" d="M1746.2616,-253.7993C1715.1882,-242.1468 1670.6371,-225.4402 1642.9084,-215.0419"/>
<polygon fill="#191970" stroke="#191970" points="1745.2461,-257.1565 1755.8384,-257.3906 1747.704,-250.6022 1745.2461,-257.1565"/>
</g>
<!-- Node36 -->
<g id="node4" class="node">
<title>Node36</title>
<g id="a_node4"><a xlink:href="InertiaNonLinearParametrization_8cpp.html" target="_top" xlink:title="InertiaNonLinearParametrization.cpp">
<polygon fill="none" stroke="#000000" points="1745.9634,-196 1745.9634,-215 1940.9634,-215 1940.9634,-196 1745.9634,-196"/>
<text text-anchor="middle" x="1843.4634" y="-203" font-family="FreeSans.ttf" font-size="10.00" fill="#000000">InertiaNonLinearParametrization.cpp</text>
</a>
</g>
</g>
<!-- Node34&#45;&gt;Node36 -->
<g id="edge3" class="edge">
<title>Node34&#45;&gt;Node36</title>
<path fill="none" stroke="#191970" d="M1798.3744,-250.2253C1809.6882,-239.0028 1824.182,-224.6258 1833.6393,-215.2449"/>
<polygon fill="#191970" stroke="#191970" points="1795.7857,-247.8633 1791.1509,-257.3906 1800.7154,-252.8331 1795.7857,-247.8633"/>
</g>
<!-- Node34&#45;&gt;Node37 -->
<g id="edge4" class="edge">
<title>Node34&#45;&gt;Node37</title>
<path fill="none" stroke="#191970" d="M1725.7619,-265.7068C1623.027,-262.6172 1397.0604,-252.5319 1209.4634,-221 1200.5511,-219.502 1191.0276,-217.3182 1182.2534,-215.06"/>
<polygon fill="#191970" stroke="#191970" points="1725.8068,-269.2095 1735.9041,-266.0009 1726.0098,-262.2124 1725.8068,-269.2095"/>
</g>
<!-- Node38 -->
<g id="node6" class="node">
<title>Node38</title>
<g id="a_node6"><a xlink:href="TestUtils_8cpp.html" target="_top" xlink:title="TestUtils.cpp">
<polygon fill="none" stroke="#000000" points="1958.9634,-196 1958.9634,-215 2037.9634,-215 2037.9634,-196 1958.9634,-196"/>
<text text-anchor="middle" x="1998.4634" y="-203" font-family="FreeSans.ttf" font-size="10.00" fill="#000000">TestUtils.cpp</text>
</a>
</g>
</g>
<!-- Node34&#45;&gt;Node38 -->
<g id="edge5" class="edge">
<title>Node34&#45;&gt;Node38</title>
<path fill="none" stroke="#191970" d="M1828.008,-254.7794C1861.8074,-245.7777 1908.5891,-233.0557 1949.4634,-221 1955.7962,-219.1321 1962.5622,-217.049 1968.9817,-215.0311"/>
<polygon fill="#191970" stroke="#191970" points="1826.7229,-251.4992 1817.9562,-257.4487 1828.5196,-258.2648 1826.7229,-251.4992"/>
</g>
<!-- Node34&#45;&gt;Node39 -->
<g id="edge6" class="edge">
<title>Node34&#45;&gt;Node39</title>
<path fill="none" stroke="#191970" d="M1725.5364,-264.4527C1638.0775,-259.795 1463.8844,-247.8031 1318.4634,-221 1310.0925,-219.4571 1301.158,-217.2854 1292.9051,-215.0548"/>
<polygon fill="#191970" stroke="#191970" points="1725.5961,-267.9604 1735.7644,-264.9848 1725.9598,-260.9699 1725.5961,-267.9604"/>
</g>
<!-- Node40 -->
<g id="node8" class="node">
<title>Node40</title>
<g id="a_node8"><a xlink:href="KinDynComputations_8cpp.html" target="_top" xlink:title="KinDynComputations.cpp">
<polygon fill="none" stroke="#000000" points="102.4634,-6 102.4634,-25 242.4634,-25 242.4634,-6 102.4634,-6"/>
<text text-anchor="middle" x="172.4634" y="-13" font-family="FreeSans.ttf" font-size="10.00" fill="#000000">KinDynComputations.cpp</text>
</a>
</g>
</g>
<!-- Node34&#45;&gt;Node40 -->
<g id="edge7" class="edge">
<title>Node34&#45;&gt;Node40</title>
<path fill="none" stroke="#191970" d="M1725.5428,-262.8058C1616.9597,-254.4012 1385.233,-235.0961 1351.4634,-221 1331.3494,-212.604 1333.7257,-198.0312 1313.4634,-190 1178.4342,-136.4798 108.4899,-204.2592 9.4634,-98 -26.0534,-59.8892 51.1044,-36.7209 110.973,-25.0093"/>
<polygon fill="#191970" stroke="#191970" points="1725.4164,-266.3063 1735.6557,-263.5846 1725.954,-259.327 1725.4164,-266.3063"/>
</g>
<!-- Node41 -->
<g id="node9" class="node">
<title>Node41</title>
<g id="a_node9"><a xlink:href="DynamicsUtils_8h.html" target="_top" xlink:title="DynamicsUtils.h">
<polygon fill="none" stroke="#000000" points="2161.9634,-196 2161.9634,-215 2258.9634,-215 2258.9634,-196 2161.9634,-196"/>
<text text-anchor="middle" x="2210.4634" y="-203" font-family="FreeSans.ttf" font-size="10.00" fill="#000000">DynamicsUtils.h</text>
</a>
</g>
</g>
<!-- Node34&#45;&gt;Node41 -->
<g id="edge8" class="edge">
<title>Node34&#45;&gt;Node41</title>
<path fill="none" stroke="#191970" d="M1837.521,-262.4737C1910.4999,-256.0284 2041.7994,-242.5411 2152.4634,-221 2160.7503,-219.3869 2169.5997,-217.2429 2177.826,-215.0653"/>
<polygon fill="#191970" stroke="#191970" points="1836.8449,-259.0192 1827.1862,-263.3736 1837.4522,-265.9928 1836.8449,-259.0192"/>
</g>
<!-- Node42 -->
<g id="node10" class="node">
<title>Node42</title>
<g id="a_node10"><a xlink:href="Link_8h.html" target="_top" xlink:title="Link.h">
<polygon fill="none" stroke="#000000" points="2097.4634,-196 2097.4634,-215 2143.4634,-215 2143.4634,-196 2097.4634,-196"/>
<text text-anchor="middle" x="2120.4634" y="-203" font-family="FreeSans.ttf" font-size="10.00" fill="#000000">Link.h</text>
</a>
</g>
</g>
<!-- Node34&#45;&gt;Node42 -->
<g id="edge9" class="edge">
<title>Node34&#45;&gt;Node42</title>
<path fill="none" stroke="#191970" d="M1837.3022,-262.0657C1897.9303,-255.8655 1997.2447,-243.242 2080.4634,-221 2086.3633,-219.4231 2092.5876,-217.2661 2098.3231,-215.0624"/>
<polygon fill="#191970" stroke="#191970" points="1836.7811,-258.6002 1827.179,-263.0779 1837.4776,-265.5655 1836.7811,-258.6002"/>
</g>
<!-- Node34&#45;&gt;Node63 -->
<g id="edge51" class="edge">
<title>Node34&#45;&gt;Node63</title>
<path fill="none" stroke="#191970" d="M1837.2663,-263.459C1905.3834,-258.1131 2015.4685,-245.8472 2047.4634,-221 2080.9305,-195.0095 2051.1704,-157.4512 2086.4634,-134 2157.0938,-87.068 3528.7002,-111.229 3612.4634,-98 3620.7448,-96.6921 3629.553,-94.4202 3637.5208,-92.0126"/>
<polygon fill="#191970" stroke="#191970" points="1836.8307,-259.9819 1827.1241,-264.2283 1837.3602,-266.9618 1836.8307,-259.9819"/>
</g>
<!-- Node82 -->
<g id="node42" class="node">
<title>Node82</title>
<g id="a_node42"><a xlink:href="URDFModelExport_8cpp.html" target="_top" xlink:title="URDFModelExport.cpp">
<polygon fill="none" stroke="#000000" points="18.9634,-73 18.9634,-92 143.9634,-92 143.9634,-73 18.9634,-73"/>
<text text-anchor="middle" x="81.4634" y="-80" font-family="FreeSans.ttf" font-size="10.00" fill="#000000">URDFModelExport.cpp</text>
</a>
</g>
</g>
<!-- Node34&#45;&gt;Node82 -->
<g id="edge52" class="edge">
<title>Node34&#45;&gt;Node82</title>
<path fill="none" stroke="#191970" d="M1764.5547,-249.9358C1742.9306,-228.3026 1707.3295,-193.3911 1699.4634,-190 1386.8809,-55.2443 508.5577,-137.4858 170.4634,-98 157.3778,-96.4717 143.2973,-94.2776 130.2838,-92.0191"/>
<polygon fill="#191970" stroke="#191970" points="1762.2751,-252.6068 1771.8118,-257.2222 1767.2348,-247.667 1762.2751,-252.6068"/>
</g>
<!-- Node142 -->
<g id="node46" class="node">
<title>Node142</title>
<g id="a_node46"><a xlink:href="InertialParametersSolidShapesHelpers_8cpp.html" target="_top" xlink:title="InertialParametersSolidShapes\lHelpers.cpp">
<polygon fill="none" stroke="#000000" points="1360.4634,-190.5 1360.4634,-220.5 1526.4634,-220.5 1526.4634,-190.5 1360.4634,-190.5"/>
<text text-anchor="start" x="1368.4634" y="-208.5" font-family="FreeSans.ttf" font-size="10.00" fill="#000000">InertialParametersSolidShapes</text>
<text text-anchor="middle" x="1443.4634" y="-197.5" font-family="FreeSans.ttf" font-size="10.00" fill="#000000">Helpers.cpp</text>
</a>
</g>
</g>
<!-- Node34&#45;&gt;Node142 -->
<g id="edge53" class="edge">
<title>Node34&#45;&gt;Node142</title>
<path fill="none" stroke="#191970" d="M1725.7546,-256.8636C1671.4565,-246.984 1588.2369,-231.8419 1526.2032,-220.5547"/>
<polygon fill="#191970" stroke="#191970" points="1725.4141,-260.3591 1735.8792,-258.7058 1726.6673,-253.4722 1725.4141,-260.3591"/>
</g>
<!-- Node43 -->
<g id="node11" class="node">
<title>Node43</title>
<g id="a_node11"><a xlink:href="Model_8h.html" target="_top" xlink:title="Model.h">
<polygon fill="none" stroke="#ff0000" points="1982.9634,-134.5 1982.9634,-153.5 2037.9634,-153.5 2037.9634,-134.5 1982.9634,-134.5"/>
<text text-anchor="middle" x="2010.4634" y="-141.5" font-family="FreeSans.ttf" font-size="10.00" fill="#000000">Model.h</text>
</a>
</g>
</g>
<!-- Node42&#45;&gt;Node43 -->
<g id="edge10" class="edge">
<title>Node42&#45;&gt;Node43</title>
<path fill="none" stroke="#191970" d="M2094.3764,-190.915C2073.6992,-179.3546 2045.4041,-163.535 2027.5302,-153.5419"/>
<polygon fill="#191970" stroke="#191970" points="2092.8394,-194.0655 2103.2759,-195.8906 2096.2554,-187.9556 2092.8394,-194.0655"/>
</g>
<!-- Node149 -->
<g id="node43" class="node">
<title>Node149</title>
<g id="a_node43"><a xlink:href="Link_8cpp.html" target="_top" xlink:title="Link.cpp">
<polygon fill="none" stroke="#000000" points="2094.9634,-134.5 2094.9634,-153.5 2151.9634,-153.5 2151.9634,-134.5 2094.9634,-134.5"/>
<text text-anchor="middle" x="2123.4634" y="-141.5" font-family="FreeSans.ttf" font-size="10.00" fill="#000000">Link.cpp</text>
</a>
</g>
</g>
<!-- Node42&#45;&gt;Node149 -->
<g id="edge48" class="edge">
<title>Node42&#45;&gt;Node149</title>
<path fill="none" stroke="#191970" d="M2121.427,-185.7462C2121.9486,-175.0519 2122.57,-162.314 2122.988,-153.7449"/>
<polygon fill="#191970" stroke="#191970" points="2117.9236,-185.7319 2120.9321,-195.8906 2124.9153,-186.0731 2117.9236,-185.7319"/>
</g>
<!-- Node150 -->
<g id="node44" class="node">
<title>Node150</title>
<g id="a_node44"><a xlink:href="LinkElement_8h.html" target="_top" xlink:title="LinkElement.h">
<polygon fill="none" stroke="#ff0000" points="2170.4634,-134.5 2170.4634,-153.5 2256.4634,-153.5 2256.4634,-134.5 2170.4634,-134.5"/>
<text text-anchor="middle" x="2213.4634" y="-141.5" font-family="FreeSans.ttf" font-size="10.00" fill="#000000">LinkElement.h</text>
</a>
</g>
</g>
<!-- Node42&#45;&gt;Node150 -->
<g id="edge49" class="edge">
<title>Node42&#45;&gt;Node150</title>
<path fill="none" stroke="#191970" d="M2143.4698,-190.286C2160.8596,-178.7864 2184.1948,-163.355 2199.0341,-153.5419"/>
<polygon fill="#191970" stroke="#191970" points="2141.4052,-187.4553 2134.9946,-195.8906 2145.2664,-193.2941 2141.4052,-187.4553"/>
</g>
<!-- Node136 -->
<g id="node45" class="node">
<title>Node136</title>
<g id="a_node45"><a xlink:href="SixAxisForceTorqueSensor_8cpp.html" target="_top" xlink:title="SixAxisForceTorqueSensor.cpp">
<polygon fill="none" stroke="#000000" points="2274.4634,-134.5 2274.4634,-153.5 2438.4634,-153.5 2438.4634,-134.5 2274.4634,-134.5"/>
<text text-anchor="middle" x="2356.4634" y="-141.5" font-family="FreeSans.ttf" font-size="10.00" fill="#000000">SixAxisForceTorqueSensor.cpp</text>
</a>
</g>
</g>
<!-- Node42&#45;&gt;Node136 -->
<g id="edge50" class="edge">
<title>Node42&#45;&gt;Node136</title>
<path fill="none" stroke="#191970" d="M2148.4682,-191.8501C2150.1439,-191.1886 2151.8172,-190.5657 2153.4634,-190 2201.4796,-173.5009 2257.9366,-161.2564 2299.1063,-153.5661"/>
<polygon fill="#191970" stroke="#191970" points="2146.8135,-188.7522 2139.019,-195.9283 2149.5874,-195.1791 2146.8135,-188.7522"/>
</g>
<!-- Node43&#45;&gt;Node40 -->
<g id="edge18" class="edge">
<title>Node43&#45;&gt;Node40</title>
<path fill="none" stroke="#191970" d="M1972.8098,-142.495C1919.3688,-140.3933 1818.4512,-136.5508 1732.4634,-134 1689.6649,-132.7304 224.6517,-125.0528 191.4634,-98 169.5897,-80.1701 169.839,-42.6788 171.3308,-25.0475"/>
<polygon fill="#191970" stroke="#191970" points="1972.7162,-145.994 1982.8465,-142.8913 1972.9924,-138.9994 1972.7162,-145.994"/>
</g>
<!-- Node44 -->
<g id="node12" class="node">
<title>Node44</title>
<g id="a_node12"><a xlink:href="ExtWrenchesAndJointTorquesEstimator_8h.html" target="_top" xlink:title="ExtWrenchesAndJointTorques\lEstimator.h">
<polygon fill="none" stroke="#000000" points="3059.4634,-67.5 3059.4634,-97.5 3217.4634,-97.5 3217.4634,-67.5 3059.4634,-67.5"/>
<text text-anchor="start" x="3067.4634" y="-85.5" font-family="FreeSans.ttf" font-size="10.00" fill="#000000">ExtWrenchesAndJointTorques</text>
<text text-anchor="middle" x="3138.4634" y="-74.5" font-family="FreeSans.ttf" font-size="10.00" fill="#000000">Estimator.h</text>
</a>
</g>
</g>
<!-- Node43&#45;&gt;Node44 -->
<g id="edge11" class="edge">
<title>Node43&#45;&gt;Node44</title>
<path fill="none" stroke="#191970" d="M2048.5312,-134.5911C2049.8547,-134.3742 2051.1682,-134.1759 2052.4634,-134 2490.069,-74.5659 2606.077,-142.3934 3045.4634,-98 3050.0233,-97.5393 3054.6984,-96.9939 3059.4087,-96.3879"/>
<polygon fill="#191970" stroke="#191970" points="2047.4913,-131.2269 2038.3326,-136.553 2048.8137,-138.1009 2047.4913,-131.2269"/>
</g>
<!-- Node43&#45;&gt;Node45 -->
<g id="edge17" class="edge">
<title>Node43&#45;&gt;Node45</title>
<path fill="none" stroke="#191970" d="M2048.5299,-134.5817C2049.8537,-134.3675 2051.1677,-134.1723 2052.4634,-134 2117.1469,-125.3987 3181.0352,-144.8425 3226.4634,-98 3244.8772,-79.0129 3223.4009,-48.8623 3206.8934,-30.7476"/>
<polygon fill="#191970" stroke="#191970" points="2047.4949,-131.2161 2038.3296,-136.5309 2048.8088,-138.0917 2047.4949,-131.2161"/>
</g>
<!-- Node46 -->
<g id="node14" class="node">
<title>Node46</title>
<g id="a_node14"><a xlink:href="GravityCompensationHelpers_8h.html" target="_top" xlink:title="GravityCompensationHelpers.h">
<polygon fill="none" stroke="#ff0000" points="3273.4634,-73 3273.4634,-92 3443.4634,-92 3443.4634,-73 3273.4634,-73"/>
<text text-anchor="middle" x="3358.4634" y="-80" font-family="FreeSans.ttf" font-size="10.00" fill="#000000">GravityCompensationHelpers.h</text>
</a>
</g>
</g>
<!-- Node43&#45;&gt;Node46 -->
<g id="edge13" class="edge">
<title>Node43&#45;&gt;Node46</title>
<path fill="none" stroke="#191970" d="M2048.5297,-134.5803C2049.8536,-134.3665 2051.1677,-134.1717 2052.4634,-134 2584.4931,-63.4803 2725.0777,-147.605 3259.4634,-98 3274.5339,-96.6011 3290.795,-94.3628 3305.697,-92.0173"/>
<polygon fill="#191970" stroke="#191970" points="2047.4954,-131.2145 2038.3291,-136.5276 2048.8081,-138.0903 2047.4954,-131.2145"/>
</g>
<!-- Node48 -->
<g id="node15" class="node">
<title>Node48</title>
<g id="a_node15"><a xlink:href="SimpleLeggedOdometry_8h.html" target="_top" xlink:title="SimpleLeggedOdometry.h">
<polygon fill="none" stroke="#ff0000" points="3461.4634,-73 3461.4634,-92 3603.4634,-92 3603.4634,-73 3461.4634,-73"/>
<text text-anchor="middle" x="3532.4634" y="-80" font-family="FreeSans.ttf" font-size="10.00" fill="#000000">SimpleLeggedOdometry.h</text>
</a>
</g>
</g>
<!-- Node43&#45;&gt;Node48 -->
<g id="edge14" class="edge">
<title>Node43&#45;&gt;Node48</title>
<path fill="none" stroke="#191970" d="M2048.5288,-134.5734C2049.853,-134.3615 2051.1673,-134.1691 2052.4634,-134 2669.6612,-53.4813 2833.6985,-165.428 3452.4634,-98 3464.8396,-96.6513 3478.1603,-94.3983 3490.3137,-92.0221"/>
<polygon fill="#191970" stroke="#191970" points="2047.4981,-131.2065 2038.327,-136.5113 2048.8045,-138.0835 2047.4981,-131.2065"/>
</g>
<!-- Node50 -->
<g id="node16" class="node">
<title>Node50</title>
<g id="a_node16"><a xlink:href="BerdyHelper_8cpp.html" target="_top" xlink:title="BerdyHelper.cpp">
<polygon fill="none" stroke="#000000" points="200.9634,-73 200.9634,-92 297.9634,-92 297.9634,-73 200.9634,-73"/>
<text text-anchor="middle" x="249.4634" y="-80" font-family="FreeSans.ttf" font-size="10.00" fill="#000000">BerdyHelper.cpp</text>
</a>
</g>
</g>
<!-- Node43&#45;&gt;Node50 -->
<g id="edge15" class="edge">
<title>Node43&#45;&gt;Node50</title>
<path fill="none" stroke="#191970" d="M1972.8091,-142.5175C1919.3673,-140.4426 1818.4487,-136.6318 1732.4634,-134 1415.6219,-124.3023 620.1095,-143.9202 306.4634,-98 297.534,-96.6927 288.0082,-94.4526 279.3512,-92.0755"/>
<polygon fill="#191970" stroke="#191970" points="1972.7173,-146.0165 1982.846,-142.9085 1972.9898,-139.0218 1972.7173,-146.0165"/>
</g>
<!-- Node43&#45;&gt;Node51 -->
<g id="edge16" class="edge">
<title>Node43&#45;&gt;Node51</title>
<path fill="none" stroke="#191970" d="M2048.4241,-138.1808C2060.5497,-136.5435 2074.0452,-134.9513 2086.4634,-134 2808.9677,-78.6532 2994.7408,-162.7476 3716.4634,-98 3731.5611,-96.6455 3747.8592,-94.3907 3762.7484,-92.0146"/>
<polygon fill="#191970" stroke="#191970" points="2047.5998,-134.7621 2038.1825,-139.6164 2048.5715,-141.6943 2047.5998,-134.7621"/>
</g>
<!-- Node52 -->
<g id="node18" class="node">
<title>Node52</title>
<g id="a_node18"><a xlink:href="skinDynLibConversions_8cpp.html" target="_top" xlink:title="skinDynLibConversions.cpp">
<polygon fill="none" stroke="#000000" points="315.9634,-73 315.9634,-92 466.9634,-92 466.9634,-73 315.9634,-73"/>
<text text-anchor="middle" x="391.4634" y="-80" font-family="FreeSans.ttf" font-size="10.00" fill="#000000">skinDynLibConversions.cpp</text>
</a>
</g>
</g>
<!-- Node43&#45;&gt;Node52 -->
<g id="edge19" class="edge">
<title>Node43&#45;&gt;Node52</title>
<path fill="none" stroke="#191970" d="M1972.8079,-142.5582C1919.3645,-140.5319 1818.4441,-136.7786 1732.4634,-134 1174.3033,-115.9623 1031.8676,-156.2592 476.4634,-98 463.4843,-96.6386 449.51,-94.4123 436.7159,-92.0663"/>
<polygon fill="#191970" stroke="#191970" points="1972.7193,-146.0573 1982.845,-142.9397 1972.9852,-139.0624 1972.7193,-146.0573"/>
</g>
<!-- Node53 -->
<g id="node19" class="node">
<title>Node53</title>
<g id="a_node19"><a xlink:href="InverseKinematicsData_8h.html" target="_top" xlink:title="InverseKinematicsData.h">
<polygon fill="none" stroke="#ff0000" points="485.4634,-73 485.4634,-92 625.4634,-92 625.4634,-73 485.4634,-73"/>
<text text-anchor="middle" x="555.4634" y="-80" font-family="FreeSans.ttf" font-size="10.00" fill="#000000">InverseKinematicsData.h</text>
</a>
</g>
</g>
<!-- Node43&#45;&gt;Node53 -->
<g id="edge20" class="edge">
<title>Node43&#45;&gt;Node53</title>
<path fill="none" stroke="#191970" d="M1972.8062,-142.6074C1919.3609,-140.6396 1818.4382,-136.9557 1732.4634,-134 1244.4894,-117.224 1119.5973,-153.1816 634.4634,-98 622.3815,-96.6257 609.3875,-94.3954 597.4967,-92.0496"/>
<polygon fill="#191970" stroke="#191970" points="1972.7216,-146.1066 1982.8438,-142.9774 1972.9795,-139.1113 1972.7216,-146.1066"/>
</g>
<!-- Node57 -->
<g id="node20" class="node">
<title>Node57</title>
<g id="a_node20"><a xlink:href="DenavitHartenberg_8h.html" target="_top" xlink:title="DenavitHartenberg.h">
<polygon fill="none" stroke="#ff0000" points="643.9634,-73 643.9634,-92 762.9634,-92 762.9634,-73 643.9634,-73"/>
<text text-anchor="middle" x="703.4634" y="-80" font-family="FreeSans.ttf" font-size="10.00" fill="#000000">DenavitHartenberg.h</text>
</a>
</g>
</g>
<!-- Node43&#45;&gt;Node57 -->
<g id="edge21" class="edge">
<title>Node43&#45;&gt;Node57</title>
<path fill="none" stroke="#191970" d="M1972.9138,-142.6535C1767.3214,-135.2751 786.7455,-100.0074 771.4634,-98 761.0188,-96.628 749.8197,-94.3984 739.5852,-92.0525"/>
<polygon fill="#191970" stroke="#191970" points="1972.8066,-146.1518 1982.9257,-143.0127 1973.0577,-139.1563 1972.8066,-146.1518"/>
</g>
<!-- Node61 -->
<g id="node21" class="node">
<title>Node61</title>
<g id="a_node21"><a xlink:href="ModelTestUtils_8h.html" target="_top" xlink:title="ModelTestUtils.h">
<polygon fill="none" stroke="#ff0000" points="780.9634,-73 780.9634,-92 877.9634,-92 877.9634,-73 780.9634,-73"/>
<text text-anchor="middle" x="829.4634" y="-80" font-family="FreeSans.ttf" font-size="10.00" fill="#000000">ModelTestUtils.h</text>
</a>
</g>
</g>
<!-- Node43&#45;&gt;Node61 -->
<g id="edge22" class="edge">
<title>Node43&#45;&gt;Node61</title>
<path fill="none" stroke="#191970" d="M1972.6999,-142.567C1780.0652,-135.2429 914.8863,-102.1737 887.4634,-98 878.4987,-96.6356 868.9286,-94.4084 860.1999,-92.0624"/>
<polygon fill="#191970" stroke="#191970" points="1972.7684,-146.072 1982.8942,-142.9544 1973.0343,-139.0771 1972.7684,-146.072"/>
</g>
<!-- Node62 -->
<g id="node22" class="node">
<title>Node62</title>
<g id="a_node22"><a xlink:href="ContactWrench_8cpp.html" target="_top" xlink:title="ContactWrench.cpp">
<polygon fill="none" stroke="#000000" points="896.4634,-73 896.4634,-92 1006.4634,-92 1006.4634,-73 896.4634,-73"/>
<text text-anchor="middle" x="951.4634" y="-80" font-family="FreeSans.ttf" font-size="10.00" fill="#000000">ContactWrench.cpp</text>
</a>
</g>
</g>
<!-- Node43&#45;&gt;Node62 -->
<g id="edge23" class="edge">
<title>Node43&#45;&gt;Node62</title>
<path fill="none" stroke="#191970" d="M1972.6414,-142.6809C1802.4092,-136.6855 1111.4115,-111.7077 1015.4634,-98 1005.6172,-96.5933 995.0718,-94.3526 985.4395,-92.0072"/>
<polygon fill="#191970" stroke="#191970" points="1972.7477,-146.1867 1982.8645,-143.0401 1972.9936,-139.191 1972.7477,-146.1867"/>
</g>
<!-- Node43&#45;&gt;Node63 -->
<g id="edge24" class="edge">
<title>Node43&#45;&gt;Node63</title>
<path fill="none" stroke="#191970" d="M2048.5282,-134.5689C2049.8525,-134.3583 2051.1671,-134.1674 2052.4634,-134 2396.3675,-89.5956 3269.9358,-152.0062 3612.4634,-98 3620.7451,-96.6942 3629.5534,-94.423 3637.5212,-92.0154"/>
<polygon fill="#191970" stroke="#191970" points="2047.4999,-131.2014 2038.3256,-136.5008 2048.8022,-138.0791 2047.4999,-131.2014"/>
</g>
<!-- Node64 -->
<g id="node24" class="node">
<title>Node64</title>
<g id="a_node24"><a xlink:href="DynamicsLinearization_8cpp.html" target="_top" xlink:title="DynamicsLinearization.cpp">
<polygon fill="none" stroke="#000000" points="1024.9634,-73 1024.9634,-92 1173.9634,-92 1173.9634,-73 1024.9634,-73"/>
<text text-anchor="middle" x="1099.4634" y="-80" font-family="FreeSans.ttf" font-size="10.00" fill="#000000">DynamicsLinearization.cpp</text>
</a>
</g>
</g>
<!-- Node43&#45;&gt;Node64 -->
<g id="edge25" class="edge">
<title>Node43&#45;&gt;Node64</title>
<path fill="none" stroke="#191970" d="M1972.5286,-142.545C1831.6545,-137.04 1338.6603,-116.8435 1182.4634,-98 1170.093,-96.5076 1156.7871,-94.2975 1144.5305,-92.0108"/>
<polygon fill="#191970" stroke="#191970" points="1972.6811,-146.0535 1982.8096,-142.945 1972.9533,-139.0588 1972.6811,-146.0535"/>
</g>
<!-- Node65 -->
<g id="node25" class="node">
<title>Node65</title>
<g id="a_node25"><a xlink:href="ForwardKinematics_8cpp.html" target="_top" xlink:title="ForwardKinematics.cpp">
<polygon fill="none" stroke="#000000" points="1191.9634,-73 1191.9634,-92 1322.9634,-92 1322.9634,-73 1191.9634,-73"/>
<text text-anchor="middle" x="1257.4634" y="-80" font-family="FreeSans.ttf" font-size="10.00" fill="#000000">ForwardKinematics.cpp</text>
</a>
</g>
</g>
<!-- Node43&#45;&gt;Node65 -->
<g id="edge26" class="edge">
<title>Node43&#45;&gt;Node65</title>
<path fill="none" stroke="#191970" d="M1972.6015,-143.2762C1869.3243,-140.9054 1574.2245,-131.4825 1331.4634,-98 1320.5409,-96.4935 1308.819,-94.3069 1297.9983,-92.0486"/>
<polygon fill="#191970" stroke="#191970" points="1972.7598,-146.7805 1982.8347,-143.5022 1972.9144,-139.7822 1972.7598,-146.7805"/>
</g>
<!-- Node66 -->
<g id="node26" class="node">
<title>Node66</title>
<g id="a_node26"><a xlink:href="FreeFloatingMatrices_8cpp.html" target="_top" xlink:title="FreeFloatingMatrices.cpp">
<polygon fill="none" stroke="#000000" points="1340.9634,-73 1340.9634,-92 1477.9634,-92 1477.9634,-73 1340.9634,-73"/>
<text text-anchor="middle" x="1409.4634" y="-80" font-family="FreeSans.ttf" font-size="10.00" fill="#000000">FreeFloatingMatrices.cpp</text>
</a>
</g>
</g>
<!-- Node43&#45;&gt;Node66 -->
<g id="edge27" class="edge">
<title>Node43&#45;&gt;Node66</title>
<path fill="none" stroke="#191970" d="M1972.7474,-142.0893C1886.4838,-137.4122 1668.2818,-123.8401 1487.4634,-98 1476.2559,-96.3984 1464.2255,-94.2325 1453.0491,-92.0282"/>
<polygon fill="#191970" stroke="#191970" points="1972.668,-145.5899 1982.8405,-142.6283 1973.0414,-138.5999 1972.668,-145.5899"/>
</g>
<!-- Node67 -->
<g id="node27" class="node">
<title>Node67</title>
<g id="a_node27"><a xlink:href="FreeFloatingState_8cpp.html" target="_top" xlink:title="FreeFloatingState.cpp">
<polygon fill="none" stroke="#000000" points="1496.4634,-73 1496.4634,-92 1618.4634,-92 1618.4634,-73 1496.4634,-73"/>
<text text-anchor="middle" x="1557.4634" y="-80" font-family="FreeSans.ttf" font-size="10.00" fill="#000000">FreeFloatingState.cpp</text>
</a>
</g>
</g>
<!-- Node43&#45;&gt;Node67 -->
<g id="edge28" class="edge">
<title>Node43&#45;&gt;Node67</title>
<path fill="none" stroke="#191970" d="M1972.578,-140.6964C1903.6183,-134.4065 1753.1114,-119.4031 1627.4634,-98 1617.647,-96.3279 1607.13,-94.1872 1597.3088,-92.034"/>
<polygon fill="#191970" stroke="#191970" points="1972.6549,-144.2174 1982.9291,-141.6307 1973.2843,-137.2458 1972.6549,-144.2174"/>
</g>
<!-- Node68 -->
<g id="node28" class="node">
<title>Node68</title>
<g id="a_node28"><a xlink:href="Jacobians_8cpp.html" target="_top" xlink:title="Jacobians.cpp">
<polygon fill="none" stroke="#000000" points="1636.9634,-73 1636.9634,-92 1719.9634,-92 1719.9634,-73 1636.9634,-73"/>
<text text-anchor="middle" x="1678.4634" y="-80" font-family="FreeSans.ttf" font-size="10.00" fill="#000000">Jacobians.cpp</text>
</a>
</g>
</g>
<!-- Node43&#45;&gt;Node68 -->
<g id="edge29" class="edge">
<title>Node43&#45;&gt;Node68</title>
<path fill="none" stroke="#191970" d="M1972.5118,-139.4152C1918.2235,-132.4896 1815.4516,-118.0117 1729.4634,-98 1722.2528,-96.3219 1714.5684,-94.179 1707.4104,-92.0256"/>
<polygon fill="#191970" stroke="#191970" points="1972.3446,-142.9218 1982.7037,-140.6991 1973.2195,-135.9766 1972.3446,-142.9218"/>
</g>
<!-- Node69 -->
<g id="node29" class="node">
<title>Node69</title>
<g id="a_node29"><a xlink:href="JointState_8cpp.html" target="_top" xlink:title="JointState.cpp">
<polygon fill="none" stroke="#000000" points="1738.4634,-73 1738.4634,-92 1822.4634,-92 1822.4634,-73 1738.4634,-73"/>
<text text-anchor="middle" x="1780.4634" y="-80" font-family="FreeSans.ttf" font-size="10.00" fill="#000000">JointState.cpp</text>
</a>
</g>
</g>
<!-- Node43&#45;&gt;Node69 -->
<g id="edge30" class="edge">
<title>Node43&#45;&gt;Node69</title>
<path fill="none" stroke="#191970" d="M1972.6226,-134.7832C1936.3052,-125.8177 1879.9696,-111.5967 1831.4634,-98 1824.8695,-96.1517 1817.8263,-94.0768 1811.1445,-92.0607"/>
<polygon fill="#191970" stroke="#191970" points="1972.2189,-138.2882 1982.7655,-137.2789 1973.8914,-131.4909 1972.2189,-138.2882"/>
</g>
<!-- Node70 -->
<g id="node30" class="node">
<title>Node70</title>
<g id="a_node30"><a xlink:href="LinkState_8cpp.html" target="_top" xlink:title="LinkState.cpp">
<polygon fill="none" stroke="#000000" points="1840.9634,-73 1840.9634,-92 1923.9634,-92 1923.9634,-73 1840.9634,-73"/>
<text text-anchor="middle" x="1882.4634" y="-80" font-family="FreeSans.ttf" font-size="10.00" fill="#000000">LinkState.cpp</text>
</a>
</g>
</g>
<!-- Node43&#45;&gt;Node70 -->
<g id="edge31" class="edge">
<title>Node43&#45;&gt;Node70</title>
<path fill="none" stroke="#191970" d="M1981.3994,-130.0357C1957.2373,-118.4265 1923.4964,-102.2151 1902.3229,-92.0419"/>
<polygon fill="#191970" stroke="#191970" points="1979.934,-133.2146 1990.4634,-134.3906 1982.9655,-126.9051 1979.934,-133.2146"/>
</g>
<!-- Node71 -->
<g id="node31" class="node">
<title>Node71</title>
<g id="a_node31"><a xlink:href="LinkTraversalsCache_8cpp.html" target="_top" xlink:title="LinkTraversalsCache.cpp">
<polygon fill="none" stroke="#000000" points="1941.9634,-73 1941.9634,-92 2078.9634,-92 2078.9634,-73 1941.9634,-73"/>
<text text-anchor="middle" x="2010.4634" y="-80" font-family="FreeSans.ttf" font-size="10.00" fill="#000000">LinkTraversalsCache.cpp</text>
</a>
</g>
</g>
<!-- Node43&#45;&gt;Node71 -->
<g id="edge32" class="edge">
<title>Node43&#45;&gt;Node71</title>
<path fill="none" stroke="#191970" d="M2010.4634,-124.2462C2010.4634,-113.5519 2010.4634,-100.814 2010.4634,-92.2449"/>
<polygon fill="#191970" stroke="#191970" points="2006.9635,-124.3906 2010.4634,-134.3906 2013.9635,-124.3907 2006.9635,-124.3906"/>
</g>
<!-- Node72 -->
<g id="node32" class="node">
<title>Node72</title>
<g id="a_node32"><a xlink:href="Model_8cpp.html" target="_top" xlink:title="Model.cpp">
<polygon fill="none" stroke="#000000" points="2097.4634,-73 2097.4634,-92 2163.4634,-92 2163.4634,-73 2097.4634,-73"/>
<text text-anchor="middle" x="2130.4634" y="-80" font-family="FreeSans.ttf" font-size="10.00" fill="#000000">Model.cpp</text>
</a>
</g>
</g>
<!-- Node43&#45;&gt;Node72 -->
<g id="edge33" class="edge">
<title>Node43&#45;&gt;Node72</title>
<path fill="none" stroke="#191970" d="M2038.3143,-129.7264C2060.9217,-118.1401 2092.1705,-102.1251 2111.845,-92.0419"/>
<polygon fill="#191970" stroke="#191970" points="2036.5164,-126.7149 2029.2134,-134.3906 2039.709,-132.9444 2036.5164,-126.7149"/>
</g>
<!-- Node73 -->
<g id="node33" class="node">
<title>Node73</title>
<g id="a_node33"><a xlink:href="ModelTransformers_8cpp.html" target="_top" xlink:title="ModelTransformers.cpp">
<polygon fill="none" stroke="#000000" points="2181.4634,-73 2181.4634,-92 2311.4634,-92 2311.4634,-73 2181.4634,-73"/>
<text text-anchor="middle" x="2246.4634" y="-80" font-family="FreeSans.ttf" font-size="10.00" fill="#000000">ModelTransformers.cpp</text>
</a>
</g>
</g>
<!-- Node43&#45;&gt;Node73 -->
<g id="edge34" class="edge">
<title>Node43&#45;&gt;Node73</title>
<path fill="none" stroke="#191970" d="M2047.8105,-134.2676C2092.1961,-122.701 2165.7764,-103.5265 2209.8412,-92.0435"/>
<polygon fill="#191970" stroke="#191970" points="2046.7916,-130.9161 2037.9974,-136.8248 2048.5569,-137.6899 2046.7916,-130.9161"/>
</g>
<!-- Node74 -->
<g id="node34" class="node">
<title>Node74</title>
<g id="a_node34"><a xlink:href="SolidShapes_8cpp.html" target="_top" xlink:title="SolidShapes.cpp">
<polygon fill="none" stroke="#000000" points="2329.4634,-73 2329.4634,-92 2425.4634,-92 2425.4634,-73 2329.4634,-73"/>
<text text-anchor="middle" x="2377.4634" y="-80" font-family="FreeSans.ttf" font-size="10.00" fill="#000000">SolidShapes.cpp</text>
</a>
</g>
</g>
<!-- Node43&#45;&gt;Node74 -->
<g id="edge35" class="edge">
<title>Node43&#45;&gt;Node74</title>
<path fill="none" stroke="#191970" d="M2048.5575,-134.7547C2049.8734,-134.4912 2051.1783,-134.2387 2052.4634,-134 2170.6236,-112.0543 2202.6666,-121.8196 2320.4634,-98 2328.6053,-96.3536 2337.3013,-94.1973 2345.3857,-92.0187"/>
<polygon fill="#191970" stroke="#191970" points="2047.4363,-131.4156 2038.3943,-136.9375 2048.9064,-138.2595 2047.4363,-131.4156"/>
</g>
<!-- Node75 -->
<g id="node35" class="node">
<title>Node75</title>
<g id="a_node35"><a xlink:href="SubModel_8cpp.html" target="_top" xlink:title="SubModel.cpp">
<polygon fill="none" stroke="#000000" points="2443.4634,-73 2443.4634,-92 2527.4634,-92 2527.4634,-73 2443.4634,-73"/>
<text text-anchor="middle" x="2485.4634" y="-80" font-family="FreeSans.ttf" font-size="10.00" fill="#000000">SubModel.cpp</text>
</a>
</g>
</g>
<!-- Node43&#45;&gt;Node75 -->
<g id="edge36" class="edge">
<title>Node43&#45;&gt;Node75</title>
<path fill="none" stroke="#191970" d="M2048.5458,-134.6883C2049.8651,-134.4438 2051.1738,-134.2132 2052.4634,-134 2220.7093,-106.183 2267.149,-130.9605 2434.4634,-98 2442.0902,-96.4975 2450.2029,-94.3122 2457.6614,-92.054"/>
<polygon fill="#191970" stroke="#191970" points="2047.457,-131.3389 2038.367,-136.7815 2048.867,-138.1954 2047.457,-131.3389"/>
</g>
<!-- Node76 -->
<g id="node36" class="node">
<title>Node76</title>
<g id="a_node36"><a xlink:href="Traversal_8cpp.html" target="_top" xlink:title="Traversal.cpp">
<polygon fill="none" stroke="#000000" points="2545.9634,-73 2545.9634,-92 2626.9634,-92 2626.9634,-73 2545.9634,-73"/>
<text text-anchor="middle" x="2586.4634" y="-80" font-family="FreeSans.ttf" font-size="10.00" fill="#000000">Traversal.cpp</text>
</a>
</g>
</g>
<!-- Node43&#45;&gt;Node76 -->
<g id="edge37" class="edge">
<title>Node43&#45;&gt;Node76</title>
<path fill="none" stroke="#191970" d="M2048.5405,-134.6552C2049.8613,-134.42 2051.1718,-134.2005 2052.4634,-134 2265.6161,-100.914 2324.5356,-138.1922 2536.4634,-98 2544.1422,-96.5437 2552.3046,-94.3166 2559.7589,-92.001"/>
<polygon fill="#191970" stroke="#191970" points="2047.4681,-131.3007 2038.3545,-136.7036 2048.8483,-138.1633 2047.4681,-131.3007"/>
</g>
<!-- Node77 -->
<g id="node37" class="node">
<title>Node77</title>
<g id="a_node37"><a xlink:href="ModelCalibrationHelper_8h.html" target="_top" xlink:title="ModelCalibrationHelper.h">
<polygon fill="none" stroke="#ff0000" points="2919.4634,-6 2919.4634,-25 3059.4634,-25 3059.4634,-6 2919.4634,-6"/>
<text text-anchor="middle" x="2989.4634" y="-13" font-family="FreeSans.ttf" font-size="10.00" fill="#000000">ModelCalibrationHelper.h</text>
</a>
</g>
</g>
<!-- Node43&#45;&gt;Node77 -->
<g id="edge38" class="edge">
<title>Node43&#45;&gt;Node77</title>
<path fill="none" stroke="#191970" d="M2048.5315,-134.5932C2049.8549,-134.3757 2051.1683,-134.1767 2052.4634,-134 2105.3442,-126.7844 2975.4383,-136.4395 3012.4634,-98 3032.0622,-77.6525 3009.8996,-42.0638 2997.1694,-25.0659"/>
<polygon fill="#191970" stroke="#191970" points="2047.4905,-131.2293 2038.3332,-136.558 2048.8148,-138.1029 2047.4905,-131.2293"/>
</g>
<!-- Node79 -->
<g id="node38" class="node">
<title>Node79</title>
<g id="a_node38"><a xlink:href="ModelExporter_8h.html" target="_top" xlink:title="ModelExporter.h">
<polygon fill="none" stroke="#ff0000" points="2907.9634,-73 2907.9634,-92 3002.9634,-92 3002.9634,-73 2907.9634,-73"/>
<text text-anchor="middle" x="2955.4634" y="-80" font-family="FreeSans.ttf" font-size="10.00" fill="#000000">ModelExporter.h</text>
</a>
</g>
</g>
<!-- Node43&#45;&gt;Node79 -->
<g id="edge39" class="edge">
<title>Node43&#45;&gt;Node79</title>
<path fill="none" stroke="#191970" d="M2048.5326,-134.6017C2049.8557,-134.3818 2051.1688,-134.1799 2052.4634,-134 2425.6599,-82.1275 2527.2692,-156.6338 2899.4634,-98 2908.1328,-96.6343 2917.3774,-94.4066 2925.8049,-92.0607"/>
<polygon fill="#191970" stroke="#191970" points="2047.4873,-131.239 2038.336,-136.5778 2048.8192,-138.1112 2047.4873,-131.239"/>
</g>
<!-- Node83 -->
<g id="node39" class="node">
<title>Node83</title>
<g id="a_node39"><a xlink:href="ModelLoader_8h.html" target="_top" xlink:title="ModelLoader.h">
<polygon fill="none" stroke="#ff0000" points="2644.9634,-73 2644.9634,-92 2731.9634,-92 2731.9634,-73 2644.9634,-73"/>
<text text-anchor="middle" x="2688.4634" y="-80" font-family="FreeSans.ttf" font-size="10.00" fill="#000000">ModelLoader.h</text>
</a>
</g>
</g>
<!-- Node43&#45;&gt;Node83 -->
<g id="edge41" class="edge">
<title>Node43&#45;&gt;Node83</title>
<path fill="none" stroke="#191970" d="M2048.5372,-134.6338C2049.859,-134.4048 2051.1706,-134.1923 2052.4634,-134 2309.682,-95.7421 2380.4155,-143.4375 2636.4634,-98 2644.4402,-96.5845 2652.926,-94.3707 2660.6786,-92.0549"/>
<polygon fill="#191970" stroke="#191970" points="2047.4756,-131.2761 2038.3468,-136.6534 2048.8365,-138.1425 2047.4756,-131.2761"/>
</g>
<!-- Node84 -->
<g id="node40" class="node">
<title>Node84</title>
<g id="a_node40"><a xlink:href="URDFDocument_8h.html" target="_top" xlink:title="URDFDocument.h">
<polygon fill="none" stroke="#ff0000" points="2672.9634,-6 2672.9634,-25 2775.9634,-25 2775.9634,-6 2672.9634,-6"/>
<text text-anchor="middle" x="2724.4634" y="-13" font-family="FreeSans.ttf" font-size="10.00" fill="#000000">URDFDocument.h</text>
</a>
</g>
</g>
<!-- Node43&#45;&gt;Node84 -->
<g id="edge46" class="edge">
<title>Node43&#45;&gt;Node84</title>
<path fill="none" stroke="#191970" d="M2048.5349,-134.618C2049.8573,-134.3935 2051.1697,-134.1862 2052.4634,-134 2128.3412,-123.077 2688.6897,-153.603 2741.4634,-98 2760.5911,-77.8468 2741.9618,-42.164 2731.0847,-25.1046"/>
<polygon fill="#191970" stroke="#191970" points="2047.4813,-131.2579 2038.3414,-136.6163 2048.828,-138.1272 2047.4813,-131.2579"/>
</g>
<!-- Node95 -->
<g id="node41" class="node">
<title>Node95</title>
<g id="a_node41"><a xlink:href="InertialElement_8h.html" target="_top" xlink:title="InertialElement.h">
<polygon fill="none" stroke="#ff0000" points="2788.9634,-73 2788.9634,-92 2889.9634,-92 2889.9634,-73 2788.9634,-73"/>
<text text-anchor="middle" x="2839.4634" y="-80" font-family="FreeSans.ttf" font-size="10.00" fill="#000000">InertialElement.h</text>
</a>
</g>
</g>
<!-- Node43&#45;&gt;Node95 -->
<g id="edge45" class="edge">
<title>Node43&#45;&gt;Node95</title>
<path fill="none" stroke="#191970" d="M2048.5344,-134.614C2049.8569,-134.3906 2051.1694,-134.1847 2052.4634,-134 2370.527,-88.5998 2456.4076,-143.4554 2774.4634,-98 2784.34,-96.5885 2794.9163,-94.3761 2804.6075,-92.0602"/>
<polygon fill="#191970" stroke="#191970" points="2047.4828,-131.2533 2038.3401,-136.6069 2048.8258,-138.1232 2047.4828,-131.2533"/>
</g>
<!-- Node43&#45;&gt;Node82 -->
<g id="edge47" class="edge">
<title>Node43&#45;&gt;Node82</title>
<path fill="none" stroke="#191970" d="M1972.81,-142.4892C1919.3692,-140.3805 1818.4518,-136.5298 1732.4634,-134 1382.7454,-123.7112 506.1889,-136.6709 158.4634,-98 146.537,-96.6737 133.7114,-94.4276 122.014,-92.0509"/>
<polygon fill="#191970" stroke="#191970" points="1972.7159,-145.9881 1982.8466,-142.8868 1972.9931,-138.9936 1972.7159,-145.9881"/>
</g>
<!-- Node44&#45;&gt;Node45 -->
<g id="edge12" class="edge">
<title>Node44&#45;&gt;Node45</title>
<path fill="none" stroke="#191970" d="M3156.7753,-59.3509C3164.2924,-49.8482 3172.7843,-39.1132 3179.4844,-30.6432"/>
<polygon fill="#191970" stroke="#191970" points="3153.9489,-57.2824 3150.4899,-67.2967 3159.4389,-61.6252 3153.9489,-57.2824"/>
</g>
<!-- Node79&#45;&gt;Node77 -->
<g id="edge40" class="edge">
<title>Node79&#45;&gt;Node77</title>
<path fill="none" stroke="#191970" d="M2964.9847,-63.7374C2971.3665,-51.1614 2979.5046,-35.1246 2984.601,-25.0817"/>
<polygon fill="#191970" stroke="#191970" points="2961.7389,-62.3992 2960.3347,-72.9005 2967.9812,-65.5669 2961.7389,-62.3992"/>
</g>
<!-- Node83&#45;&gt;Node40 -->
<g id="edge43" class="edge">
<title>Node83&#45;&gt;Node40</title>
<path fill="none" stroke="#191970" d="M2651.8823,-70.2648C2646.7536,-68.9413 2641.5109,-67.7902 2636.4634,-67 2394.8512,-29.1743 619.5839,-17.8356 242.6752,-15.8431"/>
<polygon fill="#191970" stroke="#191970" points="2650.9491,-73.6381 2661.523,-72.9732 2652.8423,-66.899 2650.9491,-73.6381"/>
</g>
<!-- Node83&#45;&gt;Node45 -->
<g id="edge42" class="edge">
<title>Node83&#45;&gt;Node45</title>
<path fill="none" stroke="#191970" d="M2742.6144,-72.9824C2755.034,-70.9092 2768.1936,-68.7996 2780.4634,-67 2908.094,-48.2803 2940.4714,-47.064 3068.4634,-31 3082.6648,-29.2176 3097.7879,-27.3153 3112.3957,-25.4757"/>
<polygon fill="#191970" stroke="#191970" points="2741.6697,-69.5922 2732.3917,-74.7077 2742.8347,-76.4946 2741.6697,-69.5922"/>
</g>
<!-- Node83&#45;&gt;Node84 -->
<g id="edge44" class="edge">
<title>Node83&#45;&gt;Node84</title>
<path fill="none" stroke="#191970" d="M2698.5448,-63.7374C2705.302,-51.1614 2713.9188,-35.1246 2719.315,-25.0817"/>
<polygon fill="#191970" stroke="#191970" points="2695.2714,-62.435 2693.6213,-72.9005 2701.4376,-65.7482 2695.2714,-62.435"/>
</g>
</g>
</svg>
