<?xml version="1.0" encoding="UTF-8" standalone="no"?>
<!DOCTYPE svg PUBLIC "-//W3C//DTD SVG 1.1//EN"
 "http://www.w3.org/Graphics/SVG/1.1/DTD/svg11.dtd">
<!-- Generated by graphviz version 2.40.1 (20161225.0304)
 -->
<!-- Title: iDynTree::optimization::SharedData Pages: 1 -->
<svg width="315pt" height="128pt"
 viewBox="0.00 0.00 315.00 128.00" xmlns="http://www.w3.org/2000/svg" xmlns:xlink="http://www.w3.org/1999/xlink">
<g id="graph0" class="graph" transform="scale(1 1) rotate(0) translate(4 124)">
<title>iDynTree::optimization::SharedData</title>
<!-- Node1 -->
<g id="node1" class="node">
<title>Node1</title>
<polygon fill="#bfbfbf" stroke="#000000" points="81.5,-.5 81.5,-30.5 208.5,-30.5 208.5,-.5 81.5,-.5"/>
<text text-anchor="start" x="89.5" y="-18.5" font-family="FreeSans.ttf" font-size="10.00" fill="#000000">iDynTree::optimization</text>
<text text-anchor="middle" x="145" y="-7.5" font-family="FreeSans.ttf" font-size="10.00" fill="#000000">::SharedData</text>
</g>
<!-- Node2 -->
<g id="node2" class="node">
<title>Node2</title>
<g id="a_node2"><a xlink:href="classiDynTree_1_1MatrixDynSize.html" target="_top" xlink:title="Class providing a simple form of matrix with dynamic size. ">
<polygon fill="none" stroke="#000000" points="0,-100.5 0,-119.5 136,-119.5 136,-100.5 0,-100.5"/>
<text text-anchor="middle" x="68" y="-107.5" font-family="FreeSans.ttf" font-size="10.00" fill="#000000">iDynTree::MatrixDynSize</text>
</a>
</g>
</g>
<!-- Node2&#45;&gt;Node1 -->
<g id="edge1" class="edge">
<title>Node2&#45;&gt;Node1</title>
<path fill="none" stroke="#9a32cd" stroke-dasharray="5,2" d="M78.7057,-91.7822C86.442,-79.2316 97.5135,-62.457 109,-49 114.4319,-42.6363 120.9806,-36.2356 126.9951,-30.7587"/>
<polygon fill="#9a32cd" stroke="#9a32cd" points="75.6566,-90.0609 73.4882,-100.4315 81.6505,-93.6767 75.6566,-90.0609"/>
<text text-anchor="middle" x="154.5" y="-74" font-family="FreeSans.ttf" font-size="10.00" fill="#000000"> jacBuffer</text>
<text text-anchor="middle" x="154.5" y="-63" font-family="FreeSans.ttf" font-size="10.00" fill="#000000">constraintJacobian</text>
<text text-anchor="middle" x="154.5" y="-52" font-family="FreeSans.ttf" font-size="10.00" fill="#000000">zeroMatrix</text>
</g>
<!-- Node3 -->
<g id="node3" class="node">
<title>Node3</title>
<g id="a_node3"><a xlink:href="classiDynTree_1_1VectorDynSize.html" target="_top" xlink:title="Class providing a simple form of vector with dynamic size. ">
<polygon fill="none" stroke="#000000" points="154,-100.5 154,-119.5 290,-119.5 290,-100.5 154,-100.5"/>
<text text-anchor="middle" x="222" y="-107.5" font-family="FreeSans.ttf" font-size="10.00" fill="#000000">iDynTree::VectorDynSize</text>
</a>
</g>
</g>
<!-- Node3&#45;&gt;Node1 -->
<g id="edge2" class="edge">
<title>Node3&#45;&gt;Node1</title>
<path fill="none" stroke="#9a32cd" stroke-dasharray="5,2" d="M218.4233,-90.2074C215.2998,-77.3627 209.6948,-60.8686 200,-49 193.988,-41.64 185.9049,-35.4743 177.7888,-30.5212"/>
<polygon fill="#9a32cd" stroke="#9a32cd" points="215.0747,-91.2893 220.5697,-100.3477 221.9229,-89.8397 215.0747,-91.2893"/>
<text text-anchor="middle" x="261.5" y="-74" font-family="FreeSans.ttf" font-size="10.00" fill="#000000"> constraintsBuffer</text>
<text text-anchor="middle" x="261.5" y="-63" font-family="FreeSans.ttf" font-size="10.00" fill="#000000">costJacobianBuffer</text>
<text text-anchor="middle" x="261.5" y="-52" font-family="FreeSans.ttf" font-size="10.00" fill="#000000">variablesBuffer</text>
</g>
</g>
</svg>
