<?xml version="1.0" encoding="UTF-8" standalone="no"?>
<!DOCTYPE svg PUBLIC "-//W3C//DTD SVG 1.1//EN"
 "http://www.w3.org/Graphics/SVG/1.1/DTD/svg11.dtd">
<!-- Generated by graphviz version 2.40.1 (20161225.0304)
 -->
<!-- Title: iDynTree::ArticulatedBodyAlgorithmInternalBuffers Pages: 1 -->
<svg width="621pt" height="305pt"
 viewBox="0.00 0.00 621.00 305.00" xmlns="http://www.w3.org/2000/svg" xmlns:xlink="http://www.w3.org/1999/xlink">
<g id="graph0" class="graph" transform="scale(1 1) rotate(0) translate(4 301)">
<title>iDynTree::ArticulatedBodyAlgorithmInternalBuffers</title>
<!-- Node1 -->
<g id="node1" class="node">
<title>Node1</title>
<polygon fill="#bfbfbf" stroke="#000000" points="470,-126 470,-156 613,-156 613,-126 470,-126"/>
<text text-anchor="start" x="478" y="-144" font-family="FreeSans.ttf" font-size="10.00" fill="#000000">iDynTree::ArticulatedBody</text>
<text text-anchor="middle" x="541.5" y="-133" font-family="FreeSans.ttf" font-size="10.00" fill="#000000">AlgorithmInternalBuffers</text>
</g>
<!-- Node2 -->
<g id="node2" class="node">
<title>Node2</title>
<g id="a_node2"><a xlink:href="classiDynTree_1_1LinkAccArray.html" target="_top" xlink:title="Class for storing a vector of spatial accelerations, one for each link in a model. ">
<polygon fill="none" stroke="#000000" points="184.5,-273.5 184.5,-292.5 313.5,-292.5 313.5,-273.5 184.5,-273.5"/>
<text text-anchor="middle" x="249" y="-280.5" font-family="FreeSans.ttf" font-size="10.00" fill="#000000">iDynTree::LinkAccArray</text>
</a>
</g>
</g>
<!-- Node2&#45;&gt;Node1 -->
<g id="edge1" class="edge">
<title>Node2&#45;&gt;Node1</title>
<path fill="none" stroke="#9a32cd" stroke-dasharray="5,2" d="M323.9697,-278.83C364.1315,-273.8933 413.1835,-263.3479 452,-241 488.5469,-219.9588 518.1546,-178.6818 532.3661,-156.3021"/>
<polygon fill="#9a32cd" stroke="#9a32cd" points="323.5027,-275.3605 313.9622,-279.9681 324.2937,-282.3157 323.5027,-275.3605"/>
<text text-anchor="middle" x="397.5" y="-289" font-family="FreeSans.ttf" font-size="10.00" fill="#000000"> linksBiasAcceleration</text>
<text text-anchor="middle" x="397.5" y="-278" font-family="FreeSans.ttf" font-size="10.00" fill="#000000">linksAccelerations</text>
</g>
<!-- Node3 -->
<g id="node3" class="node">
<title>Node3</title>
<g id="a_node3"><a xlink:href="classiDynTree_1_1DOFSpatialForceArray.html" target="_top" xlink:title="Class for storing a vector of spatial force vectors, one for each dof in a model. ...">
<polygon fill="none" stroke="#000000" points="176,-224 176,-254 322,-254 322,-224 176,-224"/>
<text text-anchor="start" x="184" y="-242" font-family="FreeSans.ttf" font-size="10.00" fill="#000000">iDynTree::DOFSpatialForce</text>
<text text-anchor="middle" x="249" y="-231" font-family="FreeSans.ttf" font-size="10.00" fill="#000000">Array</text>
</a>
</g>
</g>
<!-- Node3&#45;&gt;Node1 -->
<g id="edge2" class="edge">
<title>Node3&#45;&gt;Node1</title>
<path fill="none" stroke="#9a32cd" stroke-dasharray="5,2" d="M332.1091,-228.6412C369.6362,-222.2471 413.9799,-212.2545 452,-197 477.8567,-186.6257 504.5608,-168.8287 521.9905,-156.0808"/>
<polygon fill="#9a32cd" stroke="#9a32cd" points="331.5192,-225.1911 322.2213,-230.2703 332.6573,-232.098 331.5192,-225.1911"/>
<text text-anchor="middle" x="397.5" y="-229" font-family="FreeSans.ttf" font-size="10.00" fill="#000000"> U</text>
</g>
<!-- Node4 -->
<g id="node4" class="node">
<title>Node4</title>
<g id="a_node4"><a xlink:href="classiDynTree_1_1LinkArticulatedBodyInertias.html" target="_top" xlink:title="Class for storing a vector of ArticulatedBodyInertias objects , one for each link in a model...">
<polygon fill="none" stroke="#000000" points="179.5,-175 179.5,-205 318.5,-205 318.5,-175 179.5,-175"/>
<text text-anchor="start" x="187.5" y="-193" font-family="FreeSans.ttf" font-size="10.00" fill="#000000">iDynTree::LinkArticulated</text>
<text text-anchor="middle" x="249" y="-182" font-family="FreeSans.ttf" font-size="10.00" fill="#000000">BodyInertias</text>
</a>
</g>
</g>
<!-- Node4&#45;&gt;Node1 -->
<g id="edge3" class="edge">
<title>Node4&#45;&gt;Node1</title>
<path fill="none" stroke="#9a32cd" stroke-dasharray="5,2" d="M328.8982,-184.1063C366.4869,-180.5292 411.7876,-175.0582 452,-167 466.2786,-164.1387 481.5795,-160.0758 495.419,-156.0097"/>
<polygon fill="#9a32cd" stroke="#9a32cd" points="328.1471,-180.6607 318.5114,-185.0656 328.7909,-187.631 328.1471,-180.6607"/>
<text text-anchor="middle" x="397.5" y="-185" font-family="FreeSans.ttf" font-size="10.00" fill="#000000"> linkABIs</text>
</g>
<!-- Node5 -->
<g id="node5" class="node">
<title>Node5</title>
<g id="a_node5"><a xlink:href="classiDynTree_1_1JointDOFsDoubleArray.html" target="_top" xlink:title="Class for storing a vector of scalar values, one for each internal coordinate in a model...">
<polygon fill="none" stroke="#000000" points="175.5,-126 175.5,-156 322.5,-156 322.5,-126 175.5,-126"/>
<text text-anchor="start" x="183.5" y="-144" font-family="FreeSans.ttf" font-size="10.00" fill="#000000">iDynTree::JointDOFsDouble</text>
<text text-anchor="middle" x="249" y="-133" font-family="FreeSans.ttf" font-size="10.00" fill="#000000">Array</text>
</a>
</g>
</g>
<!-- Node5&#45;&gt;Node1 -->
<g id="edge4" class="edge">
<title>Node5&#45;&gt;Node1</title>
<path fill="none" stroke="#9a32cd" stroke-dasharray="5,2" d="M333.0454,-141C376.3626,-141 428.6276,-141 469.9874,-141"/>
<polygon fill="#9a32cd" stroke="#9a32cd" points="332.8101,-137.5001 322.8101,-141 332.8101,-144.5001 332.8101,-137.5001"/>
<text text-anchor="middle" x="397.5" y="-155" font-family="FreeSans.ttf" font-size="10.00" fill="#000000"> D</text>
<text text-anchor="middle" x="397.5" y="-144" font-family="FreeSans.ttf" font-size="10.00" fill="#000000">u</text>
</g>
<!-- Node6 -->
<g id="node6" class="node">
<title>Node6</title>
<g id="a_node6"><a xlink:href="classiDynTree_1_1VectorDynSize.html" target="_top" xlink:title="Class providing a simple form of vector with dynamic size. ">
<polygon fill="none" stroke="#000000" points="0,-131.5 0,-150.5 136,-150.5 136,-131.5 0,-131.5"/>
<text text-anchor="middle" x="68" y="-138.5" font-family="FreeSans.ttf" font-size="10.00" fill="#000000">iDynTree::VectorDynSize</text>
</a>
</g>
</g>
<!-- Node6&#45;&gt;Node5 -->
<g id="edge5" class="edge">
<title>Node6&#45;&gt;Node5</title>
<path fill="none" stroke="#191970" d="M146.1994,-141C155.9084,-141 165.8099,-141 175.4456,-141"/>
<polygon fill="#191970" stroke="#191970" points="146.1705,-137.5001 136.1704,-141 146.1704,-144.5001 146.1705,-137.5001"/>
</g>
<!-- Node7 -->
<g id="node7" class="node">
<title>Node7</title>
<g id="a_node7"><a xlink:href="classiDynTree_1_1DOFSpatialMotionArray.html" target="_top" xlink:title="Class for storing a vector of spatial motion vectors, one for each (internal) dof in a model...">
<polygon fill="none" stroke="#000000" points="173,-77 173,-107 325,-107 325,-77 173,-77"/>
<text text-anchor="start" x="181" y="-95" font-family="FreeSans.ttf" font-size="10.00" fill="#000000">iDynTree::DOFSpatialMotion</text>
<text text-anchor="middle" x="249" y="-84" font-family="FreeSans.ttf" font-size="10.00" fill="#000000">Array</text>
</a>
</g>
</g>
<!-- Node7&#45;&gt;Node1 -->
<g id="edge6" class="edge">
<title>Node7&#45;&gt;Node1</title>
<path fill="none" stroke="#9a32cd" stroke-dasharray="5,2" d="M335.1601,-106.4287C371.2581,-112.4743 413.6653,-119.5773 452,-126 457.7492,-126.9632 463.7061,-127.9614 469.6906,-128.9642"/>
<polygon fill="#9a32cd" stroke="#9a32cd" points="335.5953,-102.9529 325.1545,-104.753 334.439,-109.8567 335.5953,-102.9529"/>
<text text-anchor="middle" x="397.5" y="-129" font-family="FreeSans.ttf" font-size="10.00" fill="#000000"> S</text>
</g>
<!-- Node8 -->
<g id="node8" class="node">
<title>Node8</title>
<g id="a_node8"><a xlink:href="classiDynTree_1_1LinkVelArray.html" target="_top" xlink:title="Class for storing a vector of twists, one for each link in a model. ">
<polygon fill="none" stroke="#000000" points="185.5,-38.5 185.5,-57.5 312.5,-57.5 312.5,-38.5 185.5,-38.5"/>
<text text-anchor="middle" x="249" y="-45.5" font-family="FreeSans.ttf" font-size="10.00" fill="#000000">iDynTree::LinkVelArray</text>
</a>
</g>
</g>
<!-- Node8&#45;&gt;Node1 -->
<g id="edge7" class="edge">
<title>Node8&#45;&gt;Node1</title>
<path fill="none" stroke="#9a32cd" stroke-dasharray="5,2" d="M319.9833,-59.3842C359.5644,-66.8906 409.3342,-78.271 452,-94 474.8892,-102.4382 499.3081,-115.5694 516.8475,-125.8095"/>
<polygon fill="#9a32cd" stroke="#9a32cd" points="320.6212,-55.9429 310.1503,-57.559 319.3436,-62.8253 320.6212,-55.9429"/>
<text text-anchor="middle" x="397.5" y="-97" font-family="FreeSans.ttf" font-size="10.00" fill="#000000"> linksVel</text>
</g>
<!-- Node9 -->
<g id="node9" class="node">
<title>Node9</title>
<g id="a_node9"><a xlink:href="classiDynTree_1_1LinkWrenches.html" target="_top" xlink:title="Vector of wrenches connected in some way to the link of a model. ">
<polygon fill="none" stroke="#000000" points="182.5,-.5 182.5,-19.5 315.5,-19.5 315.5,-.5 182.5,-.5"/>
<text text-anchor="middle" x="249" y="-7.5" font-family="FreeSans.ttf" font-size="10.00" fill="#000000">iDynTree::LinkWrenches</text>
</a>
</g>
</g>
<!-- Node9&#45;&gt;Node1 -->
<g id="edge8" class="edge">
<title>Node9&#45;&gt;Node1</title>
<path fill="none" stroke="#9a32cd" stroke-dasharray="5,2" d="M326.0621,-13.8035C365.6383,-18.4079 413.4967,-28.2403 452,-49 486.913,-67.824 516.5447,-104.9491 531.3604,-125.8248"/>
<polygon fill="#9a32cd" stroke="#9a32cd" points="326.2432,-10.3029 315.9268,-12.7161 325.4964,-17.2629 326.2432,-10.3029"/>
<text text-anchor="middle" x="397.5" y="-52" font-family="FreeSans.ttf" font-size="10.00" fill="#000000"> linksBiasWrench</text>
</g>
</g>
</svg>
