<?xml version="1.0" encoding="UTF-8" standalone="no"?>
<!DOCTYPE svg PUBLIC "-//W3C//DTD SVG 1.1//EN"
 "http://www.w3.org/Graphics/SVG/1.1/DTD/svg11.dtd">
<!-- Generated by graphviz version 2.40.1 (20161225.0304)
 -->
<!-- Title: iDynTree::details::is_std_array&lt; T &gt; Pages: 1 -->
<svg width="271pt" height="264pt"
 viewBox="0.00 0.00 271.00 264.00" xmlns="http://www.w3.org/2000/svg" xmlns:xlink="http://www.w3.org/1999/xlink">
<g id="graph0" class="graph" transform="scale(1 1) rotate(0) translate(4 260)">
<title>iDynTree::details::is_std_array&lt; T &gt;</title>
<!-- Node0 -->
<g id="node1" class="node">
<title>Node0</title>
<polygon fill="#bfbfbf" stroke="#000000" points="24,-.5 24,-30.5 128,-30.5 128,-.5 24,-.5"/>
<text text-anchor="start" x="32" y="-18.5" font-family="FreeSans.ttf" font-size="10.00" fill="#000000">iDynTree::details::</text>
<text text-anchor="middle" x="76" y="-7.5" font-family="FreeSans.ttf" font-size="10.00" fill="#000000">is_std_array&lt; T &gt;</text>
</g>
<!-- Node1 -->
<g id="node2" class="node">
<title>Node1</title>
<g id="a_node2"><a xlink:href="structiDynTree_1_1details_1_1is__std__array__oracle.html" target="_top" xlink:title="iDynTree::details::\lis_std_array_oracle\l\&lt; std::remove_cv_t\&lt; T \&gt; \&gt;">
<polygon fill="none" stroke="#000000" points="0,-68.5 0,-109.5 152,-109.5 152,-68.5 0,-68.5"/>
<text text-anchor="start" x="8" y="-97.5" font-family="FreeSans.ttf" font-size="10.00" fill="#000000">iDynTree::details::</text>
<text text-anchor="start" x="8" y="-86.5" font-family="FreeSans.ttf" font-size="10.00" fill="#000000">is_std_array_oracle</text>
<text text-anchor="middle" x="76" y="-75.5" font-family="FreeSans.ttf" font-size="10.00" fill="#000000">&lt; std::remove_cv_t&lt; T &gt; &gt;</text>
</a>
</g>
</g>
<!-- Node1&#45;&gt;Node0 -->
<g id="edge1" class="edge">
<title>Node1&#45;&gt;Node0</title>
<path fill="none" stroke="#191970" d="M76,-57.9048C76,-48.5365 76,-38.666 76,-30.8074"/>
<polygon fill="#191970" stroke="#191970" points="72.5001,-58.1344 76,-68.1345 79.5001,-58.1345 72.5001,-58.1344"/>
</g>
<!-- Node2 -->
<g id="node3" class="node">
<title>Node2</title>
<polygon fill="none" stroke="#bfbfbf" points="15.5,-174 15.5,-193 104.5,-193 104.5,-174 15.5,-174"/>
<text text-anchor="middle" x="60" y="-181" font-family="FreeSans.ttf" font-size="10.00" fill="#000000">std::false_type</text>
</g>
<!-- Node2&#45;&gt;Node1 -->
<g id="edge2" class="edge">
<title>Node2&#45;&gt;Node1</title>
<path fill="none" stroke="#191970" d="M63.3829,-163.52C66.0535,-147.7464 69.768,-125.808 72.4748,-109.8207"/>
<polygon fill="#191970" stroke="#191970" points="59.8706,-163.2988 61.652,-173.7428 66.7723,-164.4674 59.8706,-163.2988"/>
</g>
<!-- Node3 -->
<g id="node4" class="node">
<title>Node3</title>
<g id="a_node4"><a xlink:href="structiDynTree_1_1details_1_1is__std__array__oracle.html" target="_top" xlink:title="iDynTree::details::\lis_std_array_oracle\&lt; T \&gt;">
<polygon fill="none" stroke="#000000" points="123,-168.5 123,-198.5 263,-198.5 263,-168.5 123,-168.5"/>
<text text-anchor="start" x="131" y="-186.5" font-family="FreeSans.ttf" font-size="10.00" fill="#000000">iDynTree::details::</text>
<text text-anchor="middle" x="193" y="-175.5" font-family="FreeSans.ttf" font-size="10.00" fill="#000000">is_std_array_oracle&lt; T &gt;</text>
</a>
</g>
</g>
<!-- Node3&#45;&gt;Node1 -->
<g id="edge3" class="edge">
<title>Node3&#45;&gt;Node1</title>
<path fill="none" stroke="#ffa500" stroke-dasharray="5,2" d="M166.348,-161.9734C146.9715,-146.3231 120.8897,-125.257 101.7304,-109.7823"/>
<polygon fill="#ffa500" stroke="#ffa500" points="164.2233,-164.7563 174.2019,-168.3169 168.6217,-159.3107 164.2233,-164.7563"/>
<text text-anchor="start" x="148" y="-142" font-family="FreeSans.ttf" font-size="10.00" fill="#000000"> &lt; std::remove_cv_t</text>
<text text-anchor="middle" x="197.5" y="-131" font-family="FreeSans.ttf" font-size="10.00" fill="#000000">&lt; T &gt; &gt;</text>
</g>
<!-- Node4 -->
<g id="node5" class="node">
<title>Node4</title>
<polygon fill="none" stroke="#bfbfbf" points="159,-236.5 159,-255.5 227,-255.5 227,-236.5 159,-236.5"/>
<text text-anchor="middle" x="193" y="-243.5" font-family="FreeSans.ttf" font-size="10.00" fill="#000000">false_type</text>
</g>
<!-- Node4&#45;&gt;Node3 -->
<g id="edge4" class="edge">
<title>Node4&#45;&gt;Node3</title>
<path fill="none" stroke="#191970" d="M193,-226.0501C193,-217.2205 193,-207.0001 193,-198.7892"/>
<polygon fill="#191970" stroke="#191970" points="189.5001,-226.2343 193,-236.2344 196.5001,-226.2344 189.5001,-226.2343"/>
</g>
</g>
</svg>
