<?xml version="1.0" encoding="UTF-8" standalone="no"?>
<!DOCTYPE svg PUBLIC "-//W3C//DTD SVG 1.1//EN"
 "http://www.w3.org/Graphics/SVG/1.1/DTD/svg11.dtd">
<!-- Generated by graphviz version 2.40.1 (20161225.0304)
 -->
<!-- Title: subtreeBaseDynamicsRegressor.hpp Pages: 1 -->
<svg width="758pt" height="196pt"
 viewBox="0.00 0.00 757.50 196.00" xmlns="http://www.w3.org/2000/svg" xmlns:xlink="http://www.w3.org/1999/xlink">
<g id="graph0" class="graph" transform="scale(1 1) rotate(0) translate(4 192)">
<title>subtreeBaseDynamicsRegressor.hpp</title>
<!-- Node61 -->
<g id="node1" class="node">
<title>Node61</title>
<polygon fill="#bfbfbf" stroke="#000000" points="362.5,-168.5 362.5,-187.5 556.5,-187.5 556.5,-168.5 362.5,-168.5"/>
<text text-anchor="middle" x="459.5" y="-175.5" font-family="FreeSans.ttf" font-size="10.00" fill="#000000">subtreeBaseDynamicsRegressor.hpp</text>
</g>
<!-- Node62 -->
<g id="node2" class="node">
<title>Node62</title>
<g id="a_node2"><a xlink:href="dynamicRegressorGenerator_8hpp.html" target="_top" xlink:title="dynamicRegressorGenerator.hpp">
<polygon fill="none" stroke="#000000" points="270.5,-112.5 270.5,-131.5 446.5,-131.5 446.5,-112.5 270.5,-112.5"/>
<text text-anchor="middle" x="358.5" y="-119.5" font-family="FreeSans.ttf" font-size="10.00" fill="#000000">dynamicRegressorGenerator.hpp</text>
</a>
</g>
</g>
<!-- Node61&#45;&gt;Node62 -->
<g id="edge1" class="edge">
<title>Node61&#45;&gt;Node62</title>
<path fill="none" stroke="#191970" d="M433.0281,-163.3225C414.9875,-153.3198 391.6123,-140.3593 375.8913,-131.6427"/>
<polygon fill="#191970" stroke="#191970" points="431.4643,-166.4574 441.9071,-168.2455 434.8587,-160.3354 431.4643,-166.4574"/>
</g>
<!-- Node69 -->
<g id="node9" class="node">
<title>Node69</title>
<g id="a_node9"><a xlink:href="subtreeBaseDynamicsRegressor_8cpp.html" target="_top" xlink:title="subtreeBaseDynamicsRegressor.cpp">
<polygon fill="none" stroke="#000000" points="464.5,-112.5 464.5,-131.5 658.5,-131.5 658.5,-112.5 464.5,-112.5"/>
<text text-anchor="middle" x="561.5" y="-119.5" font-family="FreeSans.ttf" font-size="10.00" fill="#000000">subtreeBaseDynamicsRegressor.cpp</text>
</a>
</g>
</g>
<!-- Node61&#45;&gt;Node69 -->
<g id="edge8" class="edge">
<title>Node61&#45;&gt;Node69</title>
<path fill="none" stroke="#191970" d="M486.234,-163.3225C504.4532,-153.3198 528.0598,-140.3593 543.9366,-131.6427"/>
<polygon fill="#191970" stroke="#191970" points="484.3484,-160.3649 477.267,-168.2455 487.7173,-166.5009 484.3484,-160.3649"/>
</g>
<!-- Node63 -->
<g id="node3" class="node">
<title>Node63</title>
<g id="a_node3"><a xlink:href="essentialParameters_8hpp.html" target="_top" xlink:title="essentialParameters.hpp">
<polygon fill="none" stroke="#000000" points="0,-56.5 0,-75.5 137,-75.5 137,-56.5 0,-56.5"/>
<text text-anchor="middle" x="68.5" y="-63.5" font-family="FreeSans.ttf" font-size="10.00" fill="#000000">essentialParameters.hpp</text>
</a>
</g>
</g>
<!-- Node62&#45;&gt;Node63 -->
<g id="edge2" class="edge">
<title>Node62&#45;&gt;Node63</title>
<path fill="none" stroke="#191970" d="M298.9518,-110.501C245.4776,-100.175 167.897,-85.1939 117.819,-75.5237"/>
<polygon fill="#191970" stroke="#191970" points="298.4945,-113.9773 308.9767,-112.4369 299.8217,-107.1043 298.4945,-113.9773"/>
</g>
<!-- Node65 -->
<g id="node5" class="node">
<title>Node65</title>
<g id="a_node5"><a xlink:href="sparseNumericalBaseParameters_8hpp.html" target="_top" xlink:title="sparseNumericalBaseParameters.hpp">
<polygon fill="none" stroke="#000000" points="155.5,-56.5 155.5,-75.5 355.5,-75.5 355.5,-56.5 155.5,-56.5"/>
<text text-anchor="middle" x="255.5" y="-63.5" font-family="FreeSans.ttf" font-size="10.00" fill="#000000">sparseNumericalBaseParameters.hpp</text>
</a>
</g>
</g>
<!-- Node62&#45;&gt;Node65 -->
<g id="edge4" class="edge">
<title>Node62&#45;&gt;Node65</title>
<path fill="none" stroke="#191970" d="M331.7568,-107.46C313.325,-97.4388 289.3416,-84.3993 273.2356,-75.6427"/>
<polygon fill="#191970" stroke="#191970" points="330.1015,-110.5438 340.5588,-112.2455 333.4451,-104.394 330.1015,-110.5438"/>
</g>
<!-- Node67 -->
<g id="node7" class="node">
<title>Node67</title>
<g id="a_node7"><a xlink:href="dynamicRegressorGenerator_8cpp.html" target="_top" xlink:title="dynamicRegressorGenerator.cpp">
<polygon fill="none" stroke="#000000" points="374,-56.5 374,-75.5 549,-75.5 549,-56.5 374,-56.5"/>
<text text-anchor="middle" x="461.5" y="-63.5" font-family="FreeSans.ttf" font-size="10.00" fill="#000000">dynamicRegressorGenerator.cpp</text>
</a>
</g>
</g>
<!-- Node62&#45;&gt;Node67 -->
<g id="edge6" class="edge">
<title>Node62&#45;&gt;Node67</title>
<path fill="none" stroke="#191970" d="M385.2432,-107.46C403.675,-97.4388 427.6584,-84.3993 443.7644,-75.6427"/>
<polygon fill="#191970" stroke="#191970" points="383.5549,-104.394 376.4412,-112.2455 386.8985,-110.5438 383.5549,-104.394"/>
</g>
<!-- Node68 -->
<g id="node8" class="node">
<title>Node68</title>
<g id="a_node8"><a xlink:href="DynamicsRegressorGenerator_8cpp.html" target="_top" xlink:title="DynamicsRegressorGenerator.cpp">
<polygon fill="none" stroke="#000000" points="567.5,-56.5 567.5,-75.5 749.5,-75.5 749.5,-56.5 567.5,-56.5"/>
<text text-anchor="middle" x="658.5" y="-63.5" font-family="FreeSans.ttf" font-size="10.00" fill="#000000">DynamicsRegressorGenerator.cpp</text>
</a>
</g>
</g>
<!-- Node62&#45;&gt;Node68 -->
<g id="edge7" class="edge">
<title>Node62&#45;&gt;Node68</title>
<path fill="none" stroke="#191970" d="M419.7568,-110.5654C475.0859,-100.2373 555.5678,-85.214 607.4803,-75.5237"/>
<polygon fill="#191970" stroke="#191970" points="418.9189,-107.1613 409.731,-112.4369 420.2034,-114.0424 418.9189,-107.1613"/>
</g>
<!-- Node64 -->
<g id="node4" class="node">
<title>Node64</title>
<g id="a_node4"><a xlink:href="essentialParameters_8cpp.html" target="_top" xlink:title="essentialParameters.cpp">
<polygon fill="none" stroke="#000000" points="0,-.5 0,-19.5 137,-19.5 137,-.5 0,-.5"/>
<text text-anchor="middle" x="68.5" y="-7.5" font-family="FreeSans.ttf" font-size="10.00" fill="#000000">essentialParameters.cpp</text>
</a>
</g>
</g>
<!-- Node63&#45;&gt;Node64 -->
<g id="edge3" class="edge">
<title>Node63&#45;&gt;Node64</title>
<path fill="none" stroke="#191970" d="M68.5,-46.1575C68.5,-37.155 68.5,-26.9199 68.5,-19.6427"/>
<polygon fill="#191970" stroke="#191970" points="65.0001,-46.2455 68.5,-56.2455 72.0001,-46.2456 65.0001,-46.2455"/>
</g>
<!-- Node66 -->
<g id="node6" class="node">
<title>Node66</title>
<g id="a_node6"><a xlink:href="sparseNumericalBaseParameters_8cpp.html" target="_top" xlink:title="sparseNumericalBaseParameters.cpp">
<polygon fill="none" stroke="#000000" points="156,-.5 156,-19.5 355,-19.5 355,-.5 156,-.5"/>
<text text-anchor="middle" x="255.5" y="-7.5" font-family="FreeSans.ttf" font-size="10.00" fill="#000000">sparseNumericalBaseParameters.cpp</text>
</a>
</g>
</g>
<!-- Node65&#45;&gt;Node66 -->
<g id="edge5" class="edge">
<title>Node65&#45;&gt;Node66</title>
<path fill="none" stroke="#191970" d="M255.5,-46.1575C255.5,-37.155 255.5,-26.9199 255.5,-19.6427"/>
<polygon fill="#191970" stroke="#191970" points="252.0001,-46.2455 255.5,-56.2455 259.0001,-46.2456 252.0001,-46.2455"/>
</g>
</g>
</svg>
