<?xml version="1.0" encoding="UTF-8" standalone="no"?>
<!DOCTYPE svg PUBLIC "-//W3C//DTD SVG 1.1//EN"
 "http://www.w3.org/Graphics/SVG/1.1/DTD/svg11.dtd">
<!-- Generated by graphviz version 2.40.1 (20161225.0304)
 -->
<!-- Title: symoro_par_import.hpp Pages: 1 -->
<svg width="452pt" height="140pt"
 viewBox="0.00 0.00 451.50 140.00" xmlns="http://www.w3.org/2000/svg" xmlns:xlink="http://www.w3.org/1999/xlink">
<g id="graph0" class="graph" transform="scale(1 1) rotate(0) translate(4 136)">
<title>symoro_par_import.hpp</title>
<!-- Node6 -->
<g id="node1" class="node">
<title>Node6</title>
<polygon fill="#bfbfbf" stroke="#000000" points="215.5,-112.5 215.5,-131.5 348.5,-131.5 348.5,-112.5 215.5,-112.5"/>
<text text-anchor="middle" x="282" y="-119.5" font-family="FreeSans.ttf" font-size="10.00" fill="#000000">symoro_par_import.hpp</text>
</g>
<!-- Node7 -->
<g id="node2" class="node">
<title>Node7</title>
<g id="a_node2"><a xlink:href="symoro__par__import__serialization_8hpp.html" target="_top" xlink:title="symoro_par_import_serialization.hpp">
<polygon fill="none" stroke="#000000" points="0,-56.5 0,-75.5 198,-75.5 198,-56.5 0,-56.5"/>
<text text-anchor="middle" x="99" y="-63.5" font-family="FreeSans.ttf" font-size="10.00" fill="#000000">symoro_par_import_serialization.hpp</text>
</a>
</g>
</g>
<!-- Node6&#45;&gt;Node7 -->
<g id="edge1" class="edge">
<title>Node6&#45;&gt;Node7</title>
<path fill="none" stroke="#191970" d="M240.575,-109.3235C207.0144,-99.0536 160.466,-84.8093 130.0483,-75.5011"/>
<polygon fill="#191970" stroke="#191970" points="239.9547,-112.7938 250.5412,-112.3733 242.0031,-106.1002 239.9547,-112.7938"/>
</g>
<!-- Node9 -->
<g id="node4" class="node">
<title>Node9</title>
<g id="a_node4"><a xlink:href="symoro__par__import_8cpp.html" target="_top" xlink:title="symoro_par_import.cpp">
<polygon fill="none" stroke="#000000" points="216,-56.5 216,-75.5 348,-75.5 348,-56.5 216,-56.5"/>
<text text-anchor="middle" x="282" y="-63.5" font-family="FreeSans.ttf" font-size="10.00" fill="#000000">symoro_par_import.cpp</text>
</a>
</g>
</g>
<!-- Node6&#45;&gt;Node9 -->
<g id="edge3" class="edge">
<title>Node6&#45;&gt;Node9</title>
<path fill="none" stroke="#191970" d="M282,-102.1575C282,-93.155 282,-82.9199 282,-75.6427"/>
<polygon fill="#191970" stroke="#191970" points="278.5001,-102.2455 282,-112.2455 285.5001,-102.2456 278.5001,-102.2455"/>
</g>
<!-- Node10 -->
<g id="node5" class="node">
<title>Node10</title>
<g id="a_node5"><a xlink:href="par2urdf_8cpp.html" target="_top" xlink:title="par2urdf.cpp">
<polygon fill="none" stroke="#000000" points="366.5,-56.5 366.5,-75.5 443.5,-75.5 443.5,-56.5 366.5,-56.5"/>
<text text-anchor="middle" x="405" y="-63.5" font-family="FreeSans.ttf" font-size="10.00" fill="#000000">par2urdf.cpp</text>
</a>
</g>
</g>
<!-- Node6&#45;&gt;Node10 -->
<g id="edge4" class="edge">
<title>Node6&#45;&gt;Node10</title>
<path fill="none" stroke="#191970" d="M312.5065,-108.1109C334.8112,-97.9559 364.4799,-84.4482 384.1315,-75.5011"/>
<polygon fill="#191970" stroke="#191970" points="310.7953,-105.0442 303.1445,-112.3733 313.6959,-111.415 310.7953,-105.0442"/>
</g>
<!-- Node8 -->
<g id="node3" class="node">
<title>Node8</title>
<g id="a_node3"><a xlink:href="symoro__par__import__serialization_8cpp.html" target="_top" xlink:title="symoro_par_import_serialization.cpp">
<polygon fill="none" stroke="#000000" points=".5,-.5 .5,-19.5 197.5,-19.5 197.5,-.5 .5,-.5"/>
<text text-anchor="middle" x="99" y="-7.5" font-family="FreeSans.ttf" font-size="10.00" fill="#000000">symoro_par_import_serialization.cpp</text>
</a>
</g>
</g>
<!-- Node7&#45;&gt;Node8 -->
<g id="edge2" class="edge">
<title>Node7&#45;&gt;Node8</title>
<path fill="none" stroke="#191970" d="M99,-46.1575C99,-37.155 99,-26.9199 99,-19.6427"/>
<polygon fill="#191970" stroke="#191970" points="95.5001,-46.2455 99,-56.2455 102.5001,-46.2456 95.5001,-46.2455"/>
</g>
</g>
</svg>
