<?xml version="1.0" encoding="UTF-8" standalone="no"?>
<!DOCTYPE svg PUBLIC "-//W3C//DTD SVG 1.1//EN"
 "http://www.w3.org/Graphics/SVG/1.1/DTD/svg11.dtd">
<!-- Generated by graphviz version 2.40.1 (20161225.0304)
 -->
<!-- Title: TimeVaryingObject.h Pages: 1 -->
<svg width="1221pt" height="420pt"
 viewBox="0.00 0.00 1221.00 420.00" xmlns="http://www.w3.org/2000/svg" xmlns:xlink="http://www.w3.org/1999/xlink">
<g id="graph0" class="graph" transform="scale(1 1) rotate(0) translate(4 416)">
<title>TimeVaryingObject.h</title>
<!-- Node0 -->
<g id="node1" class="node">
<title>Node0</title>
<polygon fill="#bfbfbf" stroke="#000000" points="99,-392.5 99,-411.5 218,-411.5 218,-392.5 99,-392.5"/>
<text text-anchor="middle" x="158.5" y="-399.5" font-family="FreeSans.ttf" font-size="10.00" fill="#000000">TimeVaryingObject.h</text>
</g>
<!-- Node1 -->
<g id="node2" class="node">
<title>Node1</title>
<g id="a_node2"><a xlink:href="VectorDynSize_8h.html" target="_top" xlink:title="iDynTree/Core/VectorDynSize.h">
<polygon fill="none" stroke="#000000" points="0,-112.5 0,-131.5 167,-131.5 167,-112.5 0,-112.5"/>
<text text-anchor="middle" x="83.5" y="-119.5" font-family="FreeSans.ttf" font-size="10.00" fill="#000000">iDynTree/Core/VectorDynSize.h</text>
</a>
</g>
</g>
<!-- Node0&#45;&gt;Node1 -->
<g id="edge1" class="edge">
<title>Node0&#45;&gt;Node1</title>
<path fill="none" stroke="#191970" d="M137.3605,-392.4901C105.1548,-376.3882 47.5,-340.5089 47.5,-290 47.5,-290 47.5,-290 47.5,-234 47.5,-199.7942 62.9074,-162.4094 73.5631,-140.6445"/>
<polygon fill="#191970" stroke="#191970" points="76.773,-142.0537 78.1881,-131.5538 70.5341,-138.8795 76.773,-142.0537"/>
</g>
<!-- Node13 -->
<g id="node14" class="node">
<title>Node13</title>
<g id="a_node14"><a xlink:href="MatrixDynSize_8h.html" target="_top" xlink:title="iDynTree/Core/MatrixDynSize.h">
<polygon fill="none" stroke="#000000" points="75,-280.5 75,-299.5 242,-299.5 242,-280.5 75,-280.5"/>
<text text-anchor="middle" x="158.5" y="-287.5" font-family="FreeSans.ttf" font-size="10.00" fill="#000000">iDynTree/Core/MatrixDynSize.h</text>
</a>
</g>
</g>
<!-- Node0&#45;&gt;Node13 -->
<g id="edge13" class="edge">
<title>Node0&#45;&gt;Node13</title>
<path fill="none" stroke="#191970" d="M158.5,-392.4509C158.5,-374.184 158.5,-333.9553 158.5,-309.6976"/>
<polygon fill="#191970" stroke="#191970" points="162.0001,-309.5249 158.5,-299.5249 155.0001,-309.5249 162.0001,-309.5249"/>
</g>
<!-- Node14 -->
<g id="node15" class="node">
<title>Node14</title>
<g id="a_node15"><a xlink:href="Transform_8h.html" target="_top" xlink:title="iDynTree/Core/Transform.h">
<polygon fill="none" stroke="#000000" points="437.5,-336.5 437.5,-355.5 583.5,-355.5 583.5,-336.5 437.5,-336.5"/>
<text text-anchor="middle" x="510.5" y="-343.5" font-family="FreeSans.ttf" font-size="10.00" fill="#000000">iDynTree/Core/Transform.h</text>
</a>
</g>
</g>
<!-- Node0&#45;&gt;Node14 -->
<g id="edge15" class="edge">
<title>Node0&#45;&gt;Node14</title>
<path fill="none" stroke="#191970" d="M218.212,-392.5004C279.6535,-382.7256 375.3186,-367.5061 440.3337,-357.1628"/>
<polygon fill="#191970" stroke="#191970" points="441.1692,-360.574 450.4951,-355.5462 440.0693,-353.6609 441.1692,-360.574"/>
</g>
<!-- Node2 -->
<g id="node3" class="node">
<title>Node2</title>
<g id="a_node3"><a xlink:href="Span_8h.html" target="_top" xlink:title="iDynTree/Core/Span.h">
<polygon fill="none" stroke="#000000" points="242,-56.5 242,-75.5 363,-75.5 363,-56.5 242,-56.5"/>
<text text-anchor="middle" x="302.5" y="-63.5" font-family="FreeSans.ttf" font-size="10.00" fill="#000000">iDynTree/Core/Span.h</text>
</a>
</g>
</g>
<!-- Node1&#45;&gt;Node2 -->
<g id="edge2" class="edge">
<title>Node1&#45;&gt;Node2</title>
<path fill="none" stroke="#191970" d="M121.1474,-112.3733C158.352,-102.8598 215.3703,-88.2797 255.5216,-78.0127"/>
<polygon fill="#191970" stroke="#191970" points="256.5227,-81.3695 265.3438,-75.5011 254.7884,-74.5877 256.5227,-81.3695"/>
</g>
<!-- Node12 -->
<g id="node13" class="node">
<title>Node12</title>
<polygon fill="none" stroke="#bfbfbf" points="381.5,-56.5 381.5,-75.5 425.5,-75.5 425.5,-56.5 381.5,-56.5"/>
<text text-anchor="middle" x="403.5" y="-63.5" font-family="FreeSans.ttf" font-size="10.00" fill="#000000">string</text>
</g>
<!-- Node1&#45;&gt;Node12 -->
<g id="edge12" class="edge">
<title>Node1&#45;&gt;Node12</title>
<path fill="none" stroke="#191970" d="M162.6355,-112.4954C220.8334,-104.748 301.6271,-92.4071 371.5,-76 371.5992,-75.9767 371.6985,-75.9533 371.7979,-75.9297"/>
<polygon fill="#191970" stroke="#191970" points="372.4759,-79.3714 381.2341,-73.4095 370.6696,-72.6084 372.4759,-79.3714"/>
</g>
<!-- Node3 -->
<g id="node4" class="node">
<title>Node3</title>
<polygon fill="none" stroke="#bfbfbf" points="890.5,-.5 890.5,-19.5 942.5,-19.5 942.5,-.5 890.5,-.5"/>
<text text-anchor="middle" x="916.5" y="-7.5" font-family="FreeSans.ttf" font-size="10.00" fill="#000000">cassert</text>
</g>
<!-- Node2&#45;&gt;Node3 -->
<g id="edge3" class="edge">
<title>Node2&#45;&gt;Node3</title>
<path fill="none" stroke="#191970" d="M363.1789,-57.1137C366.3292,-56.7206 369.4506,-56.3465 372.5,-56 563.2544,-34.3279 792.7102,-18.1533 880.2078,-12.3441"/>
<polygon fill="#191970" stroke="#191970" points="880.6542,-15.8223 890.4021,-11.6716 880.1934,-8.8375 880.6542,-15.8223"/>
</g>
<!-- Node4 -->
<g id="node5" class="node">
<title>Node4</title>
<polygon fill="none" stroke="#bfbfbf" points="133.5,-.5 133.5,-19.5 197.5,-19.5 197.5,-.5 133.5,-.5"/>
<text text-anchor="middle" x="165.5" y="-7.5" font-family="FreeSans.ttf" font-size="10.00" fill="#000000">algorithm</text>
</g>
<!-- Node2&#45;&gt;Node4 -->
<g id="edge4" class="edge">
<title>Node2&#45;&gt;Node4</title>
<path fill="none" stroke="#191970" d="M278.9489,-56.3733C256.6609,-47.2629 223.0063,-33.5062 198.1363,-23.3404"/>
<polygon fill="#191970" stroke="#191970" points="199.3247,-20.0451 188.7438,-19.5011 196.6761,-26.5247 199.3247,-20.0451"/>
</g>
<!-- Node5 -->
<g id="node6" class="node">
<title>Node5</title>
<polygon fill="none" stroke="#bfbfbf" points="215.5,-.5 215.5,-19.5 257.5,-19.5 257.5,-.5 215.5,-.5"/>
<text text-anchor="middle" x="236.5" y="-7.5" font-family="FreeSans.ttf" font-size="10.00" fill="#000000">array</text>
</g>
<!-- Node2&#45;&gt;Node5 -->
<g id="edge5" class="edge">
<title>Node2&#45;&gt;Node5</title>
<path fill="none" stroke="#191970" d="M291.0037,-56.2455C281.2558,-47.9746 267.0741,-35.9416 255.6202,-26.2232"/>
<polygon fill="#191970" stroke="#191970" points="257.7541,-23.4437 247.8646,-19.6427 253.2253,-28.7813 257.7541,-23.4437"/>
</g>
<!-- Node6 -->
<g id="node7" class="node">
<title>Node6</title>
<polygon fill="none" stroke="#bfbfbf" points="657,-.5 657,-19.5 710,-19.5 710,-.5 657,-.5"/>
<text text-anchor="middle" x="683.5" y="-7.5" font-family="FreeSans.ttf" font-size="10.00" fill="#000000">cstddef</text>
</g>
<!-- Node2&#45;&gt;Node6 -->
<g id="edge6" class="edge">
<title>Node2&#45;&gt;Node6</title>
<path fill="none" stroke="#191970" d="M363.2919,-57.0647C443.0957,-45.335 580.7346,-25.1046 646.4673,-15.4431"/>
<polygon fill="#191970" stroke="#191970" points="647.3697,-18.8482 656.7544,-13.9311 646.3517,-11.9226 647.3697,-18.8482"/>
</g>
<!-- Node7 -->
<g id="node8" class="node">
<title>Node7</title>
<polygon fill="none" stroke="#bfbfbf" points="276,-.5 276,-19.5 329,-19.5 329,-.5 276,-.5"/>
<text text-anchor="middle" x="302.5" y="-7.5" font-family="FreeSans.ttf" font-size="10.00" fill="#000000">iterator</text>
</g>
<!-- Node2&#45;&gt;Node7 -->
<g id="edge7" class="edge">
<title>Node2&#45;&gt;Node7</title>
<path fill="none" stroke="#191970" d="M302.5,-56.2455C302.5,-48.9382 302.5,-38.6944 302.5,-29.7046"/>
<polygon fill="#191970" stroke="#191970" points="306.0001,-29.6426 302.5,-19.6427 299.0001,-29.6427 306.0001,-29.6426"/>
</g>
<!-- Node8 -->
<g id="node9" class="node">
<title>Node8</title>
<polygon fill="none" stroke="#bfbfbf" points="347.5,-.5 347.5,-19.5 391.5,-19.5 391.5,-.5 347.5,-.5"/>
<text text-anchor="middle" x="369.5" y="-7.5" font-family="FreeSans.ttf" font-size="10.00" fill="#000000">limits</text>
</g>
<!-- Node2&#45;&gt;Node8 -->
<g id="edge8" class="edge">
<title>Node2&#45;&gt;Node8</title>
<path fill="none" stroke="#191970" d="M314.1705,-56.2455C324.0661,-47.9746 338.4627,-35.9416 350.0901,-26.2232"/>
<polygon fill="#191970" stroke="#191970" points="352.535,-28.7413 357.9632,-19.6427 348.0458,-23.3703 352.535,-28.7413"/>
</g>
<!-- Node9 -->
<g id="node10" class="node">
<title>Node9</title>
<polygon fill="none" stroke="#bfbfbf" points="410,-.5 410,-19.5 475,-19.5 475,-.5 410,-.5"/>
<text text-anchor="middle" x="442.5" y="-7.5" font-family="FreeSans.ttf" font-size="10.00" fill="#000000">stdexcept</text>
</g>
<!-- Node2&#45;&gt;Node9 -->
<g id="edge9" class="edge">
<title>Node2&#45;&gt;Node9</title>
<path fill="none" stroke="#191970" d="M326.5669,-56.3733C349.3428,-47.2629 383.7344,-33.5062 409.149,-23.3404"/>
<polygon fill="#191970" stroke="#191970" points="410.7623,-26.4648 418.7472,-19.5011 408.1625,-19.9654 410.7623,-26.4648"/>
</g>
<!-- Node10 -->
<g id="node11" class="node">
<title>Node10</title>
<polygon fill="none" stroke="#bfbfbf" points="493,-.5 493,-19.5 562,-19.5 562,-.5 493,-.5"/>
<text text-anchor="middle" x="527.5" y="-7.5" font-family="FreeSans.ttf" font-size="10.00" fill="#000000">type_traits</text>
</g>
<!-- Node2&#45;&gt;Node10 -->
<g id="edge10" class="edge">
<title>Node2&#45;&gt;Node10</title>
<path fill="none" stroke="#191970" d="M340.9232,-56.4369C380.3471,-46.6247 441.619,-31.3748 483.0948,-21.052"/>
<polygon fill="#191970" stroke="#191970" points="484.0685,-24.4165 492.9271,-18.6048 482.3778,-17.6237 484.0685,-24.4165"/>
</g>
<!-- Node11 -->
<g id="node12" class="node">
<title>Node11</title>
<polygon fill="none" stroke="#bfbfbf" points="70,-.5 70,-19.5 115,-19.5 115,-.5 70,-.5"/>
<text text-anchor="middle" x="92.5" y="-7.5" font-family="FreeSans.ttf" font-size="10.00" fill="#000000">utility</text>
</g>
<!-- Node2&#45;&gt;Node11 -->
<g id="edge11" class="edge">
<title>Node2&#45;&gt;Node11</title>
<path fill="none" stroke="#191970" d="M263.1078,-56.4203C228.9856,-47.9882 178.0933,-35.0926 124.8049,-19.9867"/>
<polygon fill="#191970" stroke="#191970" points="125.7601,-16.6196 115.1836,-17.2424 123.84,-23.3511 125.7601,-16.6196"/>
</g>
<!-- Node13&#45;&gt;Node12 -->
<g id="edge14" class="edge">
<title>Node13&#45;&gt;Node12</title>
<path fill="none" stroke="#191970" d="M158.6768,-280.1567C159.7767,-250.0671 167.3702,-158.5348 218.5,-112 270.1632,-64.9797 304.118,-94.4302 371.5,-76 371.5982,-75.9731 371.6967,-75.9462 371.7952,-75.9191"/>
<polygon fill="#191970" stroke="#191970" points="372.5501,-79.3444 381.1807,-73.1992 370.6016,-72.621 372.5501,-79.3444"/>
</g>
<!-- Node14&#45;&gt;Node12 -->
<g id="edge50" class="edge">
<title>Node14&#45;&gt;Node12</title>
<path fill="none" stroke="#191970" d="M437.271,-336.5283C381.8379,-325.0114 309.6123,-299.6446 275.5,-244 243.3931,-191.6266 270.7427,-152.9889 316.5,-112 332.7139,-97.4757 354.3378,-86.0148 371.9708,-78.1655"/>
<polygon fill="#191970" stroke="#191970" points="373.4767,-81.3283 381.2967,-74.1799 370.7258,-74.8915 373.4767,-81.3283"/>
</g>
<!-- Node15 -->
<g id="node16" class="node">
<title>Node15</title>
<g id="a_node16"><a xlink:href="Position_8h.html" target="_top" xlink:title="iDynTree/Core/Position.h">
<polygon fill="none" stroke="#000000" points="394.5,-280.5 394.5,-299.5 530.5,-299.5 530.5,-280.5 394.5,-280.5"/>
<text text-anchor="middle" x="462.5" y="-287.5" font-family="FreeSans.ttf" font-size="10.00" fill="#000000">iDynTree/Core/Position.h</text>
</a>
</g>
</g>
<!-- Node14&#45;&gt;Node15 -->
<g id="edge16" class="edge">
<title>Node14&#45;&gt;Node15</title>
<path fill="none" stroke="#191970" d="M502.139,-336.2455C495.325,-328.2958 485.5319,-316.8706 477.3848,-307.3656"/>
<polygon fill="#191970" stroke="#191970" points="479.9305,-304.9575 470.7651,-299.6427 474.6157,-309.513 479.9305,-304.9575"/>
</g>
<!-- Node22 -->
<g id="node23" class="node">
<title>Node22</title>
<g id="a_node23"><a xlink:href="Rotation_8h.html" target="_top" xlink:title="iDynTree/Core/Rotation.h">
<polygon fill="none" stroke="#000000" points="587,-224.5 587,-243.5 724,-243.5 724,-224.5 587,-224.5"/>
<text text-anchor="middle" x="655.5" y="-231.5" font-family="FreeSans.ttf" font-size="10.00" fill="#000000">iDynTree/Core/Rotation.h</text>
</a>
</g>
</g>
<!-- Node14&#45;&gt;Node22 -->
<g id="edge45" class="edge">
<title>Node14&#45;&gt;Node22</title>
<path fill="none" stroke="#191970" d="M523.9003,-336.2573C536.5233,-327.0328 555.9192,-312.7376 572.5,-300 594.381,-283.1907 619.0899,-263.4418 635.8157,-249.9567"/>
<polygon fill="#191970" stroke="#191970" points="638.1982,-252.5315 643.7774,-243.5246 633.7992,-247.0864 638.1982,-252.5315"/>
</g>
<!-- Node24 -->
<g id="node25" class="node">
<title>Node24</title>
<g id="a_node25"><a xlink:href="MatrixFixSize_8h.html" target="_top" xlink:title="iDynTree/Core/MatrixFixSize.h">
<polygon fill="none" stroke="#000000" points="1052,-112.5 1052,-131.5 1213,-131.5 1213,-112.5 1052,-112.5"/>
<text text-anchor="middle" x="1132.5" y="-119.5" font-family="FreeSans.ttf" font-size="10.00" fill="#000000">iDynTree/Core/MatrixFixSize.h</text>
</a>
</g>
</g>
<!-- Node14&#45;&gt;Node24 -->
<g id="edge49" class="edge">
<title>Node14&#45;&gt;Node24</title>
<path fill="none" stroke="#191970" d="M537.2266,-336.375C636.316,-300.69 982.8226,-175.9031 1096.2528,-135.0537"/>
<polygon fill="#191970" stroke="#191970" points="1097.6504,-138.2704 1105.873,-131.5891 1095.2786,-131.6845 1097.6504,-138.2704"/>
</g>
<!-- Node27 -->
<g id="node28" class="node">
<title>Node27</title>
<g id="a_node28"><a xlink:href="TransformSemantics_8h.html" target="_top" xlink:title="iDynTree/Core/TransformSemantics.h">
<polygon fill="none" stroke="#000000" points="451,-112.5 451,-131.5 648,-131.5 648,-112.5 451,-112.5"/>
<text text-anchor="middle" x="549.5" y="-119.5" font-family="FreeSans.ttf" font-size="10.00" fill="#000000">iDynTree/Core/TransformSemantics.h</text>
</a>
</g>
</g>
<!-- Node14&#45;&gt;Node27 -->
<g id="edge46" class="edge">
<title>Node14&#45;&gt;Node27</title>
<path fill="none" stroke="#191970" d="M518.8069,-336.1606C525.7273,-327.3227 535.1319,-313.6688 539.5,-300 557.1145,-244.8801 554.3346,-175.334 551.5539,-141.8303"/>
<polygon fill="#191970" stroke="#191970" points="555.0107,-141.2002 550.6037,-131.5654 548.0405,-141.8455 555.0107,-141.2002"/>
</g>
<!-- Node15&#45;&gt;Node12 -->
<g id="edge44" class="edge">
<title>Node15&#45;&gt;Node12</title>
<path fill="none" stroke="#191970" d="M394.0584,-280.5781C351.1882,-273.1151 301.6534,-261.0826 288.5,-244 244.5202,-186.8824 335.2309,-112.9244 380.2167,-81.3646"/>
<polygon fill="#191970" stroke="#191970" points="382.2928,-84.1847 388.5508,-75.6355 378.3274,-78.4162 382.2928,-84.1847"/>
</g>
<!-- Node16 -->
<g id="node17" class="node">
<title>Node16</title>
<g id="a_node17"><a xlink:href="PositionRaw_8h.html" target="_top" xlink:title="iDynTree/Core/PositionRaw.h">
<polygon fill="none" stroke="#000000" points="336.5,-168.5 336.5,-187.5 492.5,-187.5 492.5,-168.5 336.5,-168.5"/>
<text text-anchor="middle" x="414.5" y="-175.5" font-family="FreeSans.ttf" font-size="10.00" fill="#000000">iDynTree/Core/PositionRaw.h</text>
</a>
</g>
</g>
<!-- Node15&#45;&gt;Node16 -->
<g id="edge17" class="edge">
<title>Node15&#45;&gt;Node16</title>
<path fill="none" stroke="#191970" d="M472.9432,-280.3513C485.788,-267.2678 504.6046,-243.3159 493.5,-224 485.1295,-209.4399 470.1806,-199.0571 455.522,-191.8859"/>
<polygon fill="#191970" stroke="#191970" points="456.5605,-188.5162 446.0032,-187.6256 453.7009,-194.9055 456.5605,-188.5162"/>
</g>
<!-- Node21 -->
<g id="node22" class="node">
<title>Node21</title>
<g id="a_node22"><a xlink:href="PositionSemantics_8h.html" target="_top" xlink:title="iDynTree/Core/PositionSemantics.h">
<polygon fill="none" stroke="#000000" points="298,-224.5 298,-243.5 485,-243.5 485,-224.5 298,-224.5"/>
<text text-anchor="middle" x="391.5" y="-231.5" font-family="FreeSans.ttf" font-size="10.00" fill="#000000">iDynTree/Core/PositionSemantics.h</text>
</a>
</g>
</g>
<!-- Node15&#45;&gt;Node21 -->
<g id="edge27" class="edge">
<title>Node15&#45;&gt;Node21</title>
<path fill="none" stroke="#191970" d="M450.1327,-280.2455C439.5446,-271.8943 424.0936,-259.7076 411.7107,-249.9408"/>
<polygon fill="#191970" stroke="#191970" points="413.7447,-247.0875 403.7255,-243.6427 409.4097,-252.5837 413.7447,-247.0875"/>
</g>
<!-- Node15&#45;&gt;Node22 -->
<g id="edge29" class="edge">
<title>Node15&#45;&gt;Node22</title>
<path fill="none" stroke="#191970" d="M495.6779,-280.3733C528.0487,-270.9807 577.4398,-256.6496 612.7424,-246.4064"/>
<polygon fill="#191970" stroke="#191970" points="614.1265,-249.6492 622.7551,-243.5011 612.1758,-242.9264 614.1265,-249.6492"/>
</g>
<!-- Node16&#45;&gt;Node12 -->
<g id="edge26" class="edge">
<title>Node16&#45;&gt;Node12</title>
<path fill="none" stroke="#191970" d="M400.8664,-168.4516C390.3452,-160.1822 376.5909,-147.1795 370.5,-132 363.6257,-114.8682 374.945,-96.1122 386.1547,-82.9881"/>
<polygon fill="#191970" stroke="#191970" points="388.7523,-85.3341 392.9566,-75.6091 383.6054,-80.5897 388.7523,-85.3341"/>
</g>
<!-- Node17 -->
<g id="node18" class="node">
<title>Node17</title>
<g id="a_node18"><a xlink:href="VectorFixSize_8h.html" target="_top" xlink:title="iDynTree/Core/VectorFixSize.h">
<polygon fill="none" stroke="#000000" points="873,-112.5 873,-131.5 1034,-131.5 1034,-112.5 873,-112.5"/>
<text text-anchor="middle" x="953.5" y="-119.5" font-family="FreeSans.ttf" font-size="10.00" fill="#000000">iDynTree/Core/VectorFixSize.h</text>
</a>
</g>
</g>
<!-- Node16&#45;&gt;Node17 -->
<g id="edge18" class="edge">
<title>Node16&#45;&gt;Node17</title>
<path fill="none" stroke="#191970" d="M492.7932,-170.1839C580.2181,-161.4098 726.2297,-146.6174 862.3509,-132.1156"/>
<polygon fill="#191970" stroke="#191970" points="862.9783,-135.5686 872.5505,-131.0275 862.2357,-128.6081 862.9783,-135.5686"/>
</g>
<!-- Node17&#45;&gt;Node2 -->
<g id="edge21" class="edge">
<title>Node17&#45;&gt;Node2</title>
<path fill="none" stroke="#191970" d="M872.5615,-112.8621C869.5031,-112.5628 866.4744,-112.2742 863.5,-112 648.9139,-92.2188 591.7634,-99.2631 373.3599,-76.0212"/>
<polygon fill="#191970" stroke="#191970" points="373.4908,-72.5152 363.1743,-74.9279 372.7436,-79.4752 373.4908,-72.5152"/>
</g>
<!-- Node17&#45;&gt;Node3 -->
<g id="edge24" class="edge">
<title>Node17&#45;&gt;Node3</title>
<path fill="none" stroke="#191970" d="M949.371,-112.2267C945.5377,-102.9806 939.7926,-88.6708 935.5,-76 930.2992,-60.6483 925.2643,-42.9904 921.6856,-29.8043"/>
<polygon fill="#191970" stroke="#191970" points="925.0103,-28.688 919.0503,-19.9284 918.2469,-30.4928 925.0103,-28.688"/>
</g>
<!-- Node17&#45;&gt;Node12 -->
<g id="edge22" class="edge">
<title>Node17&#45;&gt;Node12</title>
<path fill="none" stroke="#191970" d="M872.5515,-112.9633C869.4959,-112.6356 866.4705,-112.3135 863.5,-112 702.9825,-95.057 510.7797,-76.3458 435.7366,-69.1007"/>
<polygon fill="#191970" stroke="#191970" points="435.8223,-65.5928 425.5324,-68.1166 435.1502,-72.5605 435.8223,-65.5928"/>
</g>
<!-- Node18 -->
<g id="node19" class="node">
<title>Node18</title>
<g id="a_node19"><a xlink:href="Utils_8h.html" target="_top" xlink:title="iDynTree/Core/Utils.h">
<polygon fill="none" stroke="#000000" points="701,-56.5 701,-75.5 820,-75.5 820,-56.5 701,-56.5"/>
<text text-anchor="middle" x="760.5" y="-63.5" font-family="FreeSans.ttf" font-size="10.00" fill="#000000">iDynTree/Core/Utils.h</text>
</a>
</g>
</g>
<!-- Node17&#45;&gt;Node18 -->
<g id="edge19" class="edge">
<title>Node17&#45;&gt;Node18</title>
<path fill="none" stroke="#191970" d="M920.3221,-112.3733C887.9513,-102.9807 838.5602,-88.6496 803.2576,-78.4064"/>
<polygon fill="#191970" stroke="#191970" points="803.8242,-74.9264 793.2449,-75.5011 801.8735,-81.6492 803.8242,-74.9264"/>
</g>
<!-- Node19 -->
<g id="node20" class="node">
<title>Node19</title>
<polygon fill="none" stroke="#bfbfbf" points="1012.5,-56.5 1012.5,-75.5 1068.5,-75.5 1068.5,-56.5 1012.5,-56.5"/>
<text text-anchor="middle" x="1040.5" y="-63.5" font-family="FreeSans.ttf" font-size="10.00" fill="#000000">sstream</text>
</g>
<!-- Node17&#45;&gt;Node19 -->
<g id="edge23" class="edge">
<title>Node17&#45;&gt;Node19</title>
<path fill="none" stroke="#191970" d="M968.6542,-112.2455C982.0027,-103.6534 1001.6586,-91.0014 1017.0383,-81.1018"/>
<polygon fill="#191970" stroke="#191970" points="1019.0051,-83.9982 1025.5194,-75.6427 1015.2164,-78.1121 1019.0051,-83.9982"/>
</g>
<!-- Node20 -->
<g id="node21" class="node">
<title>Node20</title>
<polygon fill="none" stroke="#bfbfbf" points="944.5,-56.5 944.5,-75.5 994.5,-75.5 994.5,-56.5 944.5,-56.5"/>
<text text-anchor="middle" x="969.5" y="-63.5" font-family="FreeSans.ttf" font-size="10.00" fill="#000000">cstring</text>
</g>
<!-- Node17&#45;&gt;Node20 -->
<g id="edge25" class="edge">
<title>Node17&#45;&gt;Node20</title>
<path fill="none" stroke="#191970" d="M956.287,-112.2455C958.3977,-104.8579 961.366,-94.4689 963.9547,-85.4087"/>
<polygon fill="#191970" stroke="#191970" points="967.363,-86.2195 966.745,-75.6427 960.6323,-84.2964 967.363,-86.2195"/>
</g>
<!-- Node18&#45;&gt;Node6 -->
<g id="edge20" class="edge">
<title>Node18&#45;&gt;Node6</title>
<path fill="none" stroke="#191970" d="M747.0876,-56.2455C735.4943,-47.814 718.5252,-35.4729 705.0322,-25.6598"/>
<polygon fill="#191970" stroke="#191970" points="706.9047,-22.6938 696.7587,-19.6427 702.7874,-28.355 706.9047,-22.6938"/>
</g>
<!-- Node21&#45;&gt;Node12 -->
<g id="edge28" class="edge">
<title>Node21&#45;&gt;Node12</title>
<path fill="none" stroke="#191970" d="M368.734,-224.3999C354.0403,-216.8573 336.1158,-204.8029 327.5,-188 323.4443,-180.0903 324.9417,-176.5128 327.5,-168 337.8996,-133.3948 366.0531,-101.3565 385.0169,-82.7409"/>
<polygon fill="#191970" stroke="#191970" points="387.6721,-85.0456 392.503,-75.6163 382.8463,-79.975 387.6721,-85.0456"/>
</g>
<!-- Node22&#45;&gt;Node12 -->
<g id="edge30" class="edge">
<title>Node22&#45;&gt;Node12</title>
<path fill="none" stroke="#191970" d="M632.9736,-224.3411C574.1586,-199.1126 420.4304,-133.1039 419.5,-132 408.7077,-119.1957 404.9657,-100.2836 403.7729,-85.9824"/>
<polygon fill="#191970" stroke="#191970" points="407.2551,-85.5259 403.2768,-75.7064 400.2632,-85.8635 407.2551,-85.5259"/>
</g>
<!-- Node22&#45;&gt;Node17 -->
<g id="edge43" class="edge">
<title>Node22&#45;&gt;Node17</title>
<path fill="none" stroke="#191970" d="M661.0527,-224.0971C669.8938,-209.3225 688.6357,-181.7756 712.5,-168 737.9483,-153.3101 805.9644,-141.0933 863.2748,-132.9506"/>
<polygon fill="#191970" stroke="#191970" points="864.05,-136.3765 873.4705,-131.5284 863.0828,-129.4436 864.05,-136.3765"/>
</g>
<!-- Node23 -->
<g id="node24" class="node">
<title>Node23</title>
<g id="a_node24"><a xlink:href="RotationRaw_8h.html" target="_top" xlink:title="iDynTree/Core/RotationRaw.h">
<polygon fill="none" stroke="#000000" points="721.5,-168.5 721.5,-187.5 879.5,-187.5 879.5,-168.5 721.5,-168.5"/>
<text text-anchor="middle" x="800.5" y="-175.5" font-family="FreeSans.ttf" font-size="10.00" fill="#000000">iDynTree/Core/RotationRaw.h</text>
</a>
</g>
</g>
<!-- Node22&#45;&gt;Node23 -->
<g id="edge31" class="edge">
<title>Node22&#45;&gt;Node23</title>
<path fill="none" stroke="#191970" d="M680.4264,-224.3733C704.1202,-215.2226 739.9511,-201.3844 766.3068,-191.2057"/>
<polygon fill="#191970" stroke="#191970" points="767.8314,-194.3689 775.8989,-187.5011 765.3094,-187.8389 767.8314,-194.3689"/>
</g>
<!-- Node26 -->
<g id="node27" class="node">
<title>Node26</title>
<g id="a_node27"><a xlink:href="RotationSemantics_8h.html" target="_top" xlink:title="iDynTree/Core/RotationSemantics.h">
<polygon fill="none" stroke="#000000" points="666.5,-112.5 666.5,-131.5 854.5,-131.5 854.5,-112.5 666.5,-112.5"/>
<text text-anchor="middle" x="760.5" y="-119.5" font-family="FreeSans.ttf" font-size="10.00" fill="#000000">iDynTree/Core/RotationSemantics.h</text>
</a>
</g>
</g>
<!-- Node22&#45;&gt;Node26 -->
<g id="edge40" class="edge">
<title>Node22&#45;&gt;Node26</title>
<path fill="none" stroke="#191970" d="M656.8447,-224.4355C659.2248,-210.5828 665.3359,-184.7636 679.5,-168 691.3415,-153.9852 708.596,-143.3579 724.1401,-135.868"/>
<polygon fill="#191970" stroke="#191970" points="725.8722,-138.9257 733.5337,-131.6078 722.9809,-132.5506 725.8722,-138.9257"/>
</g>
<!-- Node23&#45;&gt;Node12 -->
<g id="edge39" class="edge">
<title>Node23&#45;&gt;Node12</title>
<path fill="none" stroke="#191970" d="M721.2236,-175.9433C629.6715,-172.188 485.9428,-161.623 441.5,-132 425.0522,-121.0369 414.8555,-100.3698 409.2181,-85.0716"/>
<polygon fill="#191970" stroke="#191970" points="412.5155,-83.8959 406.0229,-75.5235 405.8773,-86.1173 412.5155,-83.8959"/>
</g>
<!-- Node23&#45;&gt;Node24 -->
<g id="edge32" class="edge">
<title>Node23&#45;&gt;Node24</title>
<path fill="none" stroke="#191970" d="M857.1956,-168.4369C915.0891,-158.6717 1004.9128,-143.5207 1066.0966,-133.2006"/>
<polygon fill="#191970" stroke="#191970" points="1066.7597,-136.6383 1076.0382,-131.5237 1065.5954,-129.7358 1066.7597,-136.6383"/>
</g>
<!-- Node24&#45;&gt;Node3 -->
<g id="edge34" class="edge">
<title>Node24&#45;&gt;Node3</title>
<path fill="none" stroke="#191970" d="M1141.0552,-112.4558C1152.3873,-98.6285 1169.4084,-72.8406 1155.5,-56 1130.2437,-25.4191 1013.5067,-14.9525 953.0389,-11.5449"/>
<polygon fill="#191970" stroke="#191970" points="952.9581,-8.0359 942.7877,-11.0046 952.5896,-15.0262 952.9581,-8.0359"/>
</g>
<!-- Node24&#45;&gt;Node12 -->
<g id="edge36" class="edge">
<title>Node24&#45;&gt;Node12</title>
<path fill="none" stroke="#191970" d="M1051.9846,-112.8068C1049.122,-112.5266 1046.287,-112.2566 1043.5,-112 810.6499,-90.5592 529.3604,-73.3522 435.6221,-67.8513"/>
<polygon fill="#191970" stroke="#191970" points="435.8206,-64.357 425.6335,-67.2679 435.4123,-71.3451 435.8206,-64.357"/>
</g>
<!-- Node24&#45;&gt;Node18 -->
<g id="edge33" class="edge">
<title>Node24&#45;&gt;Node18</title>
<path fill="none" stroke="#191970" d="M1068.9736,-112.4369C1002.6531,-102.4532 898.9363,-86.8399 830.3498,-76.515"/>
<polygon fill="#191970" stroke="#191970" points="830.4844,-72.9959 820.0748,-74.9682 829.4423,-79.9179 830.4844,-72.9959"/>
</g>
<!-- Node24&#45;&gt;Node19 -->
<g id="edge38" class="edge">
<title>Node24&#45;&gt;Node19</title>
<path fill="none" stroke="#191970" d="M1116.4748,-112.2455C1102.3592,-103.6534 1081.5737,-91.0014 1065.3101,-81.1018"/>
<polygon fill="#191970" stroke="#191970" points="1066.7034,-77.8525 1056.3415,-75.6427 1063.0637,-83.8319 1066.7034,-77.8525"/>
</g>
<!-- Node24&#45;&gt;Node20 -->
<g id="edge35" class="edge">
<title>Node24&#45;&gt;Node20</title>
<path fill="none" stroke="#191970" d="M1104.4793,-112.3733C1076.7562,-102.8488 1034.2519,-88.246 1004.3621,-77.9772"/>
<polygon fill="#191970" stroke="#191970" points="1005.3434,-74.6136 994.7488,-74.6744 1003.0689,-81.2338 1005.3434,-74.6136"/>
</g>
<!-- Node25 -->
<g id="node26" class="node">
<title>Node25</title>
<polygon fill="none" stroke="#bfbfbf" points="1086.5,-56.5 1086.5,-75.5 1146.5,-75.5 1146.5,-56.5 1086.5,-56.5"/>
<text text-anchor="middle" x="1116.5" y="-63.5" font-family="FreeSans.ttf" font-size="10.00" fill="#000000">iostream</text>
</g>
<!-- Node24&#45;&gt;Node25 -->
<g id="edge37" class="edge">
<title>Node24&#45;&gt;Node25</title>
<path fill="none" stroke="#191970" d="M1129.713,-112.2455C1127.6023,-104.8579 1124.634,-94.4689 1122.0453,-85.4087"/>
<polygon fill="#191970" stroke="#191970" points="1125.3677,-84.2964 1119.255,-75.6427 1118.637,-86.2195 1125.3677,-84.2964"/>
</g>
<!-- Node26&#45;&gt;Node12 -->
<g id="edge41" class="edge">
<title>Node26&#45;&gt;Node12</title>
<path fill="none" stroke="#191970" d="M699.5351,-112.4369C623.0731,-100.4428 494.8143,-80.3238 435.4413,-71.0104"/>
<polygon fill="#191970" stroke="#191970" points="435.9396,-67.5458 425.5179,-69.4538 434.8547,-74.4613 435.9396,-67.5458"/>
</g>
<!-- Node26&#45;&gt;Node18 -->
<g id="edge42" class="edge">
<title>Node26&#45;&gt;Node18</title>
<path fill="none" stroke="#191970" d="M760.5,-112.2455C760.5,-104.9382 760.5,-94.6944 760.5,-85.7046"/>
<polygon fill="#191970" stroke="#191970" points="764.0001,-85.6426 760.5,-75.6427 757.0001,-85.6427 764.0001,-85.6426"/>
</g>
<!-- Node27&#45;&gt;Node12 -->
<g id="edge47" class="edge">
<title>Node27&#45;&gt;Node12</title>
<path fill="none" stroke="#191970" d="M524.4017,-112.3733C499.8216,-102.9453 462.2687,-88.5414 435.5434,-78.2906"/>
<polygon fill="#191970" stroke="#191970" points="436.4707,-74.8977 425.8804,-74.5843 433.9638,-81.4334 436.4707,-74.8977"/>
</g>
<!-- Node27&#45;&gt;Node18 -->
<g id="edge48" class="edge">
<title>Node27&#45;&gt;Node18</title>
<path fill="none" stroke="#191970" d="M585.7722,-112.3733C621.4658,-102.9001 676.0879,-88.4032 714.7451,-78.1435"/>
<polygon fill="#191970" stroke="#191970" points="715.9336,-81.4493 724.7011,-75.5011 714.1379,-74.6835 715.9336,-81.4493"/>
</g>
</g>
</svg>
