<?xml version="1.0" encoding="UTF-8" standalone="no"?>
<!DOCTYPE svg PUBLIC "-//W3C//DTD SVG 1.1//EN"
 "http://www.w3.org/Graphics/SVG/1.1/DTD/svg11.dtd">
<!-- Generated by graphviz version 2.40.1 (20161225.0304)
 -->
<!-- Title: urdf_export.cpp Pages: 1 -->
<svg width="773pt" height="151pt"
 viewBox="0.00 0.00 773.00 151.00" xmlns="http://www.w3.org/2000/svg" xmlns:xlink="http://www.w3.org/1999/xlink">
<g id="graph0" class="graph" transform="scale(1 1) rotate(0) translate(4 147)">
<title>urdf_export.cpp</title>
<!-- Node0 -->
<g id="node1" class="node">
<title>Node0</title>
<polygon fill="#bfbfbf" stroke="#000000" points="419,-123.5 419,-142.5 512,-142.5 512,-123.5 419,-123.5"/>
<text text-anchor="middle" x="465.5" y="-130.5" font-family="FreeSans.ttf" font-size="10.00" fill="#000000">urdf_export.cpp</text>
</g>
<!-- Node1 -->
<g id="node2" class="node">
<title>Node1</title>
<g id="a_node2"><a xlink:href="urdf__export_8hpp.html" target="_top" xlink:title="iDynTree/ModelIO/impl\l/urdf_export.hpp">
<polygon fill="none" stroke="#000000" points="0,-56.5 0,-86.5 127,-86.5 127,-56.5 0,-56.5"/>
<text text-anchor="start" x="8" y="-74.5" font-family="FreeSans.ttf" font-size="10.00" fill="#000000">iDynTree/ModelIO/impl</text>
<text text-anchor="middle" x="63.5" y="-63.5" font-family="FreeSans.ttf" font-size="10.00" fill="#000000">/urdf_export.hpp</text>
</a>
</g>
</g>
<!-- Node0&#45;&gt;Node1 -->
<g id="edge1" class="edge">
<title>Node0&#45;&gt;Node1</title>
<path fill="none" stroke="#191970" d="M418.8774,-127.5975C356.7443,-120.1557 243.1744,-105.712 136.9761,-87.193"/>
<polygon fill="#191970" stroke="#191970" points="137.5086,-83.733 127.0533,-85.4468 136.2953,-90.6271 137.5086,-83.733"/>
</g>
<!-- Node3 -->
<g id="node4" class="node">
<title>Node3</title>
<g id="a_node4"><a xlink:href="config_8h.html" target="_top" xlink:title="iDynTree/ModelIO/impl\l/config.h">
<polygon fill="none" stroke="#000000" points="145,-56.5 145,-86.5 272,-86.5 272,-56.5 145,-56.5"/>
<text text-anchor="start" x="153" y="-74.5" font-family="FreeSans.ttf" font-size="10.00" fill="#000000">iDynTree/ModelIO/impl</text>
<text text-anchor="middle" x="208.5" y="-63.5" font-family="FreeSans.ttf" font-size="10.00" fill="#000000">/config.h</text>
</a>
</g>
</g>
<!-- Node0&#45;&gt;Node3 -->
<g id="edge3" class="edge">
<title>Node0&#45;&gt;Node3</title>
<path fill="none" stroke="#191970" d="M425.6257,-123.4581C387.1907,-114.2606 328.1309,-100.1276 281.3052,-88.9223"/>
<polygon fill="#191970" stroke="#191970" points="282.0506,-85.5019 271.5106,-86.5784 280.4215,-92.3097 282.0506,-85.5019"/>
</g>
<!-- Node4 -->
<g id="node5" class="node">
<title>Node4</title>
<g id="a_node5"><a xlink:href="urdf__compatibility_8h.html" target="_top" xlink:title="iDynTree/ModelIO/impl\l/urdf_compatibility.h">
<polygon fill="none" stroke="#000000" points="290,-56.5 290,-86.5 417,-86.5 417,-56.5 290,-56.5"/>
<text text-anchor="start" x="298" y="-74.5" font-family="FreeSans.ttf" font-size="10.00" fill="#000000">iDynTree/ModelIO/impl</text>
<text text-anchor="middle" x="353.5" y="-63.5" font-family="FreeSans.ttf" font-size="10.00" fill="#000000">/urdf_compatibility.h</text>
</a>
</g>
</g>
<!-- Node0&#45;&gt;Node4 -->
<g id="edge4" class="edge">
<title>Node0&#45;&gt;Node4</title>
<path fill="none" stroke="#191970" d="M448,-123.3906C432.4913,-114.8747 409.347,-102.166 389.8451,-91.4573"/>
<polygon fill="#191970" stroke="#191970" points="391.3484,-88.2899 380.8983,-86.5446 387.9791,-94.4257 391.3484,-88.2899"/>
</g>
<!-- Node8 -->
<g id="node9" class="node">
<title>Node8</title>
<polygon fill="none" stroke="#bfbfbf" points="435.5,-62 435.5,-81 495.5,-81 495.5,-62 435.5,-62"/>
<text text-anchor="middle" x="465.5" y="-69" font-family="FreeSans.ttf" font-size="10.00" fill="#000000">iostream</text>
</g>
<!-- Node0&#45;&gt;Node8 -->
<g id="edge8" class="edge">
<title>Node0&#45;&gt;Node8</title>
<path fill="none" stroke="#191970" d="M465.5,-123.3906C465.5,-114.8657 465.5,-102.1392 465.5,-91.4235"/>
<polygon fill="#191970" stroke="#191970" points="469.0001,-91.2448 465.5,-81.2449 462.0001,-91.2449 469.0001,-91.2448"/>
</g>
<!-- Node9 -->
<g id="node10" class="node">
<title>Node9</title>
<polygon fill="none" stroke="#bfbfbf" points="514,-62 514,-81 577,-81 577,-62 514,-62"/>
<text text-anchor="middle" x="545.5" y="-69" font-family="FreeSans.ttf" font-size="10.00" fill="#000000">tinyxml.h</text>
</g>
<!-- Node0&#45;&gt;Node9 -->
<g id="edge9" class="edge">
<title>Node0&#45;&gt;Node9</title>
<path fill="none" stroke="#191970" d="M478,-123.3906C490.5636,-113.7324 510.1423,-98.6812 524.9849,-87.271"/>
<polygon fill="#191970" stroke="#191970" points="527.2928,-89.9115 533.0878,-81.0419 523.0265,-84.3618 527.2928,-89.9115"/>
</g>
<!-- Node10 -->
<g id="node11" class="node">
<title>Node10</title>
<polygon fill="none" stroke="#bfbfbf" points="595,-62 595,-81 670,-81 670,-62 595,-62"/>
<text text-anchor="middle" x="632.5" y="-69" font-family="FreeSans.ttf" font-size="10.00" fill="#000000">kdl/tree.hpp</text>
</g>
<!-- Node0&#45;&gt;Node10 -->
<g id="edge10" class="edge">
<title>Node0&#45;&gt;Node10</title>
<path fill="none" stroke="#191970" d="M491.5938,-123.3906C519.9036,-112.9652 565.2768,-96.2559 596.8592,-84.6252"/>
<polygon fill="#191970" stroke="#191970" points="598.4151,-87.7821 606.5895,-81.0419 595.996,-81.2133 598.4151,-87.7821"/>
</g>
<!-- Node11 -->
<g id="node12" class="node">
<title>Node11</title>
<polygon fill="none" stroke="#bfbfbf" points="688,-62 688,-81 765,-81 765,-62 688,-62"/>
<text text-anchor="middle" x="726.5" y="-69" font-family="FreeSans.ttf" font-size="10.00" fill="#000000">kdl/joint.hpp</text>
</g>
<!-- Node0&#45;&gt;Node11 -->
<g id="edge11" class="edge">
<title>Node0&#45;&gt;Node11</title>
<path fill="none" stroke="#191970" d="M512.1814,-124.4576C555.767,-116.1304 622.4728,-102.485 679.5,-87 682.8348,-86.0945 686.2819,-85.0909 689.7236,-84.0424"/>
<polygon fill="#191970" stroke="#191970" points="690.8305,-87.3633 699.3112,-81.0129 688.7214,-80.6886 690.8305,-87.3633"/>
</g>
<!-- Node2 -->
<g id="node3" class="node">
<title>Node2</title>
<polygon fill="none" stroke="#bfbfbf" points="41.5,-.5 41.5,-19.5 85.5,-19.5 85.5,-.5 41.5,-.5"/>
<text text-anchor="middle" x="63.5" y="-7.5" font-family="FreeSans.ttf" font-size="10.00" fill="#000000">string</text>
</g>
<!-- Node1&#45;&gt;Node2 -->
<g id="edge2" class="edge">
<title>Node1&#45;&gt;Node2</title>
<path fill="none" stroke="#191970" d="M63.5,-56.2977C63.5,-48.3834 63.5,-38.6043 63.5,-30.0759"/>
<polygon fill="#191970" stroke="#191970" points="67.0001,-29.8469 63.5,-19.8469 60.0001,-29.847 67.0001,-29.8469"/>
</g>
<!-- Node5 -->
<g id="node6" class="node">
<title>Node5</title>
<polygon fill="none" stroke="#bfbfbf" points="151,-.5 151,-19.5 266,-19.5 266,-.5 151,-.5"/>
<text text-anchor="middle" x="208.5" y="-7.5" font-family="FreeSans.ttf" font-size="10.00" fill="#000000">urdf_model/model.h</text>
</g>
<!-- Node4&#45;&gt;Node5 -->
<g id="edge5" class="edge">
<title>Node4&#45;&gt;Node5</title>
<path fill="none" stroke="#191970" d="M318.029,-56.4554C294.2598,-46.374 263.232,-33.2139 240.2715,-23.4755"/>
<polygon fill="#191970" stroke="#191970" points="241.5427,-20.2129 230.9699,-19.5303 238.8094,-26.6572 241.5427,-20.2129"/>
</g>
<!-- Node6 -->
<g id="node7" class="node">
<title>Node6</title>
<polygon fill="none" stroke="#bfbfbf" points="284,-.5 284,-19.5 423,-19.5 423,-.5 284,-.5"/>
<text text-anchor="middle" x="353.5" y="-7.5" font-family="FreeSans.ttf" font-size="10.00" fill="#000000">urdf_parser/urdf_parser.h</text>
</g>
<!-- Node4&#45;&gt;Node6 -->
<g id="edge6" class="edge">
<title>Node4&#45;&gt;Node6</title>
<path fill="none" stroke="#191970" d="M353.5,-56.2977C353.5,-48.3834 353.5,-38.6043 353.5,-30.0759"/>
<polygon fill="#191970" stroke="#191970" points="357.0001,-29.8469 353.5,-19.8469 350.0001,-29.847 357.0001,-29.8469"/>
</g>
<!-- Node7 -->
<g id="node8" class="node">
<title>Node7</title>
<polygon fill="none" stroke="#bfbfbf" points="441,-.5 441,-19.5 548,-19.5 548,-.5 441,-.5"/>
<text text-anchor="middle" x="494.5" y="-7.5" font-family="FreeSans.ttf" font-size="10.00" fill="#000000">urdf_world/world.h</text>
</g>
<!-- Node4&#45;&gt;Node7 -->
<g id="edge7" class="edge">
<title>Node4&#45;&gt;Node7</title>
<path fill="none" stroke="#191970" d="M387.9925,-56.4554C411.0028,-46.419 441.0086,-33.3314 463.3055,-23.6061"/>
<polygon fill="#191970" stroke="#191970" points="464.8833,-26.7364 472.65,-19.5303 462.0846,-20.3202 464.8833,-26.7364"/>
</g>
</g>
</svg>
