<?xml version="1.0" encoding="UTF-8" standalone="no"?>
<!DOCTYPE svg PUBLIC "-//W3C//DTD SVG 1.1//EN"
 "http://www.w3.org/Graphics/SVG/1.1/DTD/svg11.dtd">
<!-- Generated by graphviz version 2.40.1 (20161225.0304)
 -->
<!-- Title: URDFDocument.h Pages: 1 -->
<svg width="2409pt" height="655pt"
 viewBox="0.00 0.00 2408.50 655.00" xmlns="http://www.w3.org/2000/svg" xmlns:xlink="http://www.w3.org/1999/xlink">
<g id="graph0" class="graph" transform="scale(1 1) rotate(0) translate(4 651)">
<title>URDFDocument.h</title>
<!-- Node0 -->
<g id="node1" class="node">
<title>Node0</title>
<polygon fill="#bfbfbf" stroke="#000000" points="1235,-627.5 1235,-646.5 1338,-646.5 1338,-627.5 1235,-627.5"/>
<text text-anchor="middle" x="1286.5" y="-634.5" font-family="FreeSans.ttf" font-size="10.00" fill="#000000">URDFDocument.h</text>
</g>
<!-- Node1 -->
<g id="node2" class="node">
<title>Node1</title>
<g id="a_node2"><a xlink:href="XMLDocument_8h.html" target="_top" xlink:title="iDynTree/XMLDocument.h">
<polygon fill="none" stroke="#000000" points="850.5,-403.5 850.5,-422.5 992.5,-422.5 992.5,-403.5 850.5,-403.5"/>
<text text-anchor="middle" x="921.5" y="-410.5" font-family="FreeSans.ttf" font-size="10.00" fill="#000000">iDynTree/XMLDocument.h</text>
</a>
</g>
</g>
<!-- Node0&#45;&gt;Node1 -->
<g id="edge1" class="edge">
<title>Node0&#45;&gt;Node1</title>
<path fill="none" stroke="#191970" d="M1236.9589,-627.4888C1205.9867,-620.2632 1165.958,-608.5321 1133.5,-591 1050.5102,-546.1733 970.1632,-465.4572 937.1857,-430.2296"/>
<polygon fill="#191970" stroke="#191970" points="939.5535,-427.6352 930.1908,-422.6762 934.4175,-432.3915 939.5535,-427.6352"/>
</g>
<!-- Node3 -->
<g id="node4" class="node">
<title>Node3</title>
<polygon fill="none" stroke="#bfbfbf" points="1129.5,-56.5 1129.5,-75.5 1173.5,-75.5 1173.5,-56.5 1129.5,-56.5"/>
<text text-anchor="middle" x="1151.5" y="-63.5" font-family="FreeSans.ttf" font-size="10.00" fill="#000000">string</text>
</g>
<!-- Node0&#45;&gt;Node3 -->
<g id="edge123" class="edge">
<title>Node0&#45;&gt;Node3</title>
<path fill="none" stroke="#191970" d="M1338.3658,-634.5436C1558.0326,-623.8045 2400.5,-579.0917 2400.5,-525 2400.5,-525 2400.5,-525 2400.5,-469 2400.5,-388.5 2348.5,-376 2348.5,-295.5 2348.5,-295.5 2348.5,-295.5 2348.5,-178 2348.5,-2.6403 2133.7518,-131.6807 1959.5,-112 1659.2006,-78.083 1293.1385,-68.6872 1183.8047,-66.5503"/>
<polygon fill="#191970" stroke="#191970" points="1183.8126,-63.0499 1173.7483,-66.3603 1183.6804,-70.0487 1183.8126,-63.0499"/>
</g>
<!-- Node4 -->
<g id="node5" class="node">
<title>Node4</title>
<g id="a_node5"><a xlink:href="JointElement_8h.html" target="_top" xlink:title="JointElement.h">
<polygon fill="none" stroke="#000000" points="516.5,-459.5 516.5,-478.5 604.5,-478.5 604.5,-459.5 516.5,-459.5"/>
<text text-anchor="middle" x="560.5" y="-466.5" font-family="FreeSans.ttf" font-size="10.00" fill="#000000">JointElement.h</text>
</a>
</g>
</g>
<!-- Node0&#45;&gt;Node4 -->
<g id="edge4" class="edge">
<title>Node0&#45;&gt;Node4</title>
<path fill="none" stroke="#191970" d="M1234.9612,-636.4131C1087.1273,-634.3209 669.0028,-625.3941 618.5,-591 583.7451,-567.3307 569.2226,-516.9717 563.6402,-488.9193"/>
<polygon fill="#191970" stroke="#191970" points="567.022,-487.9482 561.8124,-478.7227 560.1318,-489.1834 567.022,-487.9482"/>
</g>
<!-- Node7 -->
<g id="node8" class="node">
<title>Node7</title>
<polygon fill="none" stroke="#bfbfbf" points="673,-347.5 673,-366.5 766,-366.5 766,-347.5 673,-347.5"/>
<text text-anchor="middle" x="719.5" y="-354.5" font-family="FreeSans.ttf" font-size="10.00" fill="#000000">unordered_map</text>
</g>
<!-- Node0&#45;&gt;Node7 -->
<g id="edge125" class="edge">
<title>Node0&#45;&gt;Node7</title>
<path fill="none" stroke="#191970" d="M1234.9087,-633.6031C1080.4786,-622.7523 632.5,-586.0171 632.5,-525 632.5,-525 632.5,-525 632.5,-469 632.5,-427.4126 670.3731,-391.9469 696.1427,-372.6288"/>
<polygon fill="#191970" stroke="#191970" points="698.2836,-375.4001 704.3458,-366.711 694.1881,-369.7232 698.2836,-375.4001"/>
</g>
<!-- Node8 -->
<g id="node9" class="node">
<title>Node8</title>
<polygon fill="none" stroke="#bfbfbf" points="1508,-347.5 1508,-366.5 1555,-366.5 1555,-347.5 1508,-347.5"/>
<text text-anchor="middle" x="1531.5" y="-354.5" font-family="FreeSans.ttf" font-size="10.00" fill="#000000">vector</text>
</g>
<!-- Node0&#45;&gt;Node8 -->
<g id="edge124" class="edge">
<title>Node0&#45;&gt;Node8</title>
<path fill="none" stroke="#191970" d="M1321.8125,-627.3822C1385.375,-609.0192 1512.5,-567.0383 1512.5,-525 1512.5,-525 1512.5,-525 1512.5,-469 1512.5,-436.2688 1520.4852,-398.9052 1526.1022,-376.6716"/>
<polygon fill="#191970" stroke="#191970" points="1529.5415,-377.3545 1528.6965,-366.7934 1522.7711,-375.5763 1529.5415,-377.3545"/>
</g>
<!-- Node35 -->
<g id="node36" class="node">
<title>Node35</title>
<g id="a_node36"><a xlink:href="MaterialElement_8h.html" target="_top" xlink:title="MaterialElement.h">
<polygon fill="none" stroke="#000000" points="1074.5,-459.5 1074.5,-478.5 1180.5,-478.5 1180.5,-459.5 1074.5,-459.5"/>
<text text-anchor="middle" x="1127.5" y="-466.5" font-family="FreeSans.ttf" font-size="10.00" fill="#000000">MaterialElement.h</text>
</a>
</g>
</g>
<!-- Node0&#45;&gt;Node35 -->
<g id="edge67" class="edge">
<title>Node0&#45;&gt;Node35</title>
<path fill="none" stroke="#191970" d="M1242.8641,-627.4514C1207.6255,-618.8505 1161.9263,-605.3803 1149.5,-591 1124.7391,-562.3455 1123.623,-515.4437 1125.3456,-488.9168"/>
<polygon fill="#191970" stroke="#191970" points="1128.8627,-488.8664 1126.2294,-478.604 1121.8882,-488.2686 1128.8627,-488.8664"/>
</g>
<!-- Node36 -->
<g id="node37" class="node">
<title>Node36</title>
<g id="a_node37"><a xlink:href="SensorElement_8h.html" target="_top" xlink:title="SensorElement.h">
<polygon fill="none" stroke="#000000" points="1159,-571.5 1159,-590.5 1258,-590.5 1258,-571.5 1159,-571.5"/>
<text text-anchor="middle" x="1208.5" y="-578.5" font-family="FreeSans.ttf" font-size="10.00" fill="#000000">SensorElement.h</text>
</a>
</g>
</g>
<!-- Node0&#45;&gt;Node36 -->
<g id="edge72" class="edge">
<title>Node0&#45;&gt;Node36</title>
<path fill="none" stroke="#191970" d="M1272.9134,-627.2455C1261.1695,-618.814 1243.9801,-606.4729 1230.3118,-596.6598"/>
<polygon fill="#191970" stroke="#191970" points="1232.0954,-593.6316 1221.9309,-590.6427 1228.0129,-599.3179 1232.0954,-593.6316"/>
</g>
<!-- Node37 -->
<g id="node38" class="node">
<title>Node37</title>
<g id="a_node38"><a xlink:href="Sensors_8h.html" target="_top" xlink:title="iDynTree/Sensors/Sensors.h">
<polygon fill="none" stroke="#000000" points="1773,-515.5 1773,-534.5 1924,-534.5 1924,-515.5 1773,-515.5"/>
<text text-anchor="middle" x="1848.5" y="-522.5" font-family="FreeSans.ttf" font-size="10.00" fill="#000000">iDynTree/Sensors/Sensors.h</text>
</a>
</g>
</g>
<!-- Node0&#45;&gt;Node37 -->
<g id="edge122" class="edge">
<title>Node0&#45;&gt;Node37</title>
<path fill="none" stroke="#191970" d="M1338.0844,-635.4084C1444.0727,-631.5816 1682.7433,-619.944 1758.5,-591 1787.1207,-580.065 1814.7219,-557.4581 1831.6435,-541.7701"/>
<polygon fill="#191970" stroke="#191970" points="1834.2294,-544.1404 1839.0503,-534.7059 1829.3982,-539.0749 1834.2294,-544.1404"/>
</g>
<!-- Node39 -->
<g id="node40" class="node">
<title>Node39</title>
<g id="a_node40"><a xlink:href="Model_8h.html" target="_top" xlink:title="iDynTree/Model/Model.h">
<polygon fill="none" stroke="#000000" points="1751,-459.5 1751,-478.5 1884,-478.5 1884,-459.5 1751,-459.5"/>
<text text-anchor="middle" x="1817.5" y="-466.5" font-family="FreeSans.ttf" font-size="10.00" fill="#000000">iDynTree/Model/Model.h</text>
</a>
</g>
</g>
<!-- Node0&#45;&gt;Node39 -->
<g id="edge121" class="edge">
<title>Node0&#45;&gt;Node39</title>
<path fill="none" stroke="#191970" d="M1338.2443,-634.3329C1447.4655,-628.3102 1694.125,-612.4897 1725.5,-591 1756.8227,-569.5461 1741.0714,-544.8745 1764.5,-515 1773.3109,-503.765 1785.1612,-493.1768 1795.4219,-484.9974"/>
<polygon fill="#191970" stroke="#191970" points="1797.774,-487.6039 1803.5655,-478.732 1793.5055,-482.0559 1797.774,-487.6039"/>
</g>
<!-- Node65 -->
<g id="node49" class="node">
<title>Node65</title>
<g id="a_node49"><a xlink:href="VisualElement_8h.html" target="_top" xlink:title="VisualElement.h">
<polygon fill="none" stroke="#000000" points="1236.5,-515.5 1236.5,-534.5 1332.5,-534.5 1332.5,-515.5 1236.5,-515.5"/>
<text text-anchor="middle" x="1284.5" y="-522.5" font-family="FreeSans.ttf" font-size="10.00" fill="#000000">VisualElement.h</text>
</a>
</g>
</g>
<!-- Node0&#45;&gt;Node65 -->
<g id="edge106" class="edge">
<title>Node0&#45;&gt;Node65</title>
<path fill="none" stroke="#191970" d="M1286.3295,-627.4509C1286.0033,-609.184 1285.2849,-568.9553 1284.8517,-544.6976"/>
<polygon fill="#191970" stroke="#191970" points="1288.3482,-544.4608 1284.6701,-534.5249 1281.3493,-544.5858 1288.3482,-544.4608"/>
</g>
<!-- Node66 -->
<g id="node50" class="node">
<title>Node66</title>
<g id="a_node50"><a xlink:href="ModelLoader_8h.html" target="_top" xlink:title="iDynTree/ModelIO/ModelLoader.h">
<polygon fill="none" stroke="#000000" points="1540.5,-571.5 1540.5,-590.5 1716.5,-590.5 1716.5,-571.5 1540.5,-571.5"/>
<text text-anchor="middle" x="1628.5" y="-578.5" font-family="FreeSans.ttf" font-size="10.00" fill="#000000">iDynTree/ModelIO/ModelLoader.h</text>
</a>
</g>
</g>
<!-- Node0&#45;&gt;Node66 -->
<g id="edge115" class="edge">
<title>Node0&#45;&gt;Node66</title>
<path fill="none" stroke="#191970" d="M1338.0711,-628.5556C1397.2316,-618.8685 1494.4848,-602.944 1559.9715,-592.221"/>
<polygon fill="#191970" stroke="#191970" points="1560.8953,-595.6165 1570.1982,-590.5465 1559.7641,-588.7085 1560.8953,-595.6165"/>
</g>
<!-- Node2 -->
<g id="node3" class="node">
<title>Node2</title>
<polygon fill="none" stroke="#bfbfbf" points="1071.5,-347.5 1071.5,-366.5 1129.5,-366.5 1129.5,-347.5 1071.5,-347.5"/>
<text text-anchor="middle" x="1100.5" y="-354.5" font-family="FreeSans.ttf" font-size="10.00" fill="#000000">memory</text>
</g>
<!-- Node1&#45;&gt;Node2 -->
<g id="edge2" class="edge">
<title>Node1&#45;&gt;Node2</title>
<path fill="none" stroke="#191970" d="M952.2712,-403.3733C982.5274,-393.9076 1028.8157,-379.4264 1061.6055,-369.1681"/>
<polygon fill="#191970" stroke="#191970" points="1062.8168,-372.4565 1071.3156,-366.1303 1060.7267,-365.7758 1062.8168,-372.4565"/>
</g>
<!-- Node1&#45;&gt;Node3 -->
<g id="edge3" class="edge">
<title>Node1&#45;&gt;Node3</title>
<path fill="none" stroke="#191970" d="M939.8168,-403.3337C966.3502,-389.5848 1017.2613,-364.1502 1062.5,-347 1115.3624,-326.9596 1144.2219,-350.6702 1184.5,-311 1210.039,-285.8465 1208.5,-269.846 1208.5,-234 1208.5,-234 1208.5,-234 1208.5,-178 1208.5,-141.1826 1183.7325,-104.2377 1166.8499,-83.3313"/>
<polygon fill="#191970" stroke="#191970" points="1169.5131,-81.06 1160.4063,-75.6456 1164.1489,-85.5574 1169.5131,-81.06"/>
</g>
<!-- Node4&#45;&gt;Node2 -->
<g id="edge64" class="edge">
<title>Node4&#45;&gt;Node2</title>
<path fill="none" stroke="#191970" d="M598.0789,-459.48C651.8388,-446.0192 753.8905,-421.0544 841.5,-403 919.1246,-387.0032 1010.53,-371.5555 1061.3591,-363.2638"/>
<polygon fill="#191970" stroke="#191970" points="1061.9595,-366.7122 1071.269,-361.6541 1060.8371,-359.8028 1061.9595,-366.7122"/>
</g>
<!-- Node4&#45;&gt;Node3 -->
<g id="edge65" class="edge">
<title>Node4&#45;&gt;Node3</title>
<path fill="none" stroke="#191970" d="M563.8312,-459.2912C568.8099,-445.7146 579.1641,-420.7333 593.5,-403 618.5476,-372.0165 626.6205,-362.0752 663.5,-347 770.3489,-303.3234 1170.5,-349.4311 1170.5,-234 1170.5,-234 1170.5,-234 1170.5,-178 1170.5,-145.2688 1162.5148,-107.9052 1156.8978,-85.6716"/>
<polygon fill="#191970" stroke="#191970" points="1160.2289,-84.5763 1154.3035,-75.7934 1153.4585,-86.3545 1160.2289,-84.5763"/>
</g>
<!-- Node5 -->
<g id="node6" class="node">
<title>Node5</title>
<g id="a_node6"><a xlink:href="XMLElement_8h.html" target="_top" xlink:title="iDynTree/XMLElement.h">
<polygon fill="none" stroke="#000000" points="1124.5,-403.5 1124.5,-422.5 1256.5,-422.5 1256.5,-403.5 1124.5,-403.5"/>
<text text-anchor="middle" x="1190.5" y="-410.5" font-family="FreeSans.ttf" font-size="10.00" fill="#000000">iDynTree/XMLElement.h</text>
</a>
</g>
</g>
<!-- Node4&#45;&gt;Node5 -->
<g id="edge5" class="edge">
<title>Node4&#45;&gt;Node5</title>
<path fill="none" stroke="#191970" d="M604.55,-465.0844C710.5387,-455.6632 980.8415,-431.6363 1114.0036,-419.7997"/>
<polygon fill="#191970" stroke="#191970" points="1114.4757,-423.2716 1124.1265,-418.8999 1113.8559,-416.2991 1114.4757,-423.2716"/>
</g>
<!-- Node4&#45;&gt;Node7 -->
<g id="edge66" class="edge">
<title>Node4&#45;&gt;Node7</title>
<path fill="none" stroke="#191970" d="M566.9712,-459.3305C576.7356,-445.347 596.4536,-419.3665 618.5,-403 637.2932,-389.0485 660.9929,-377.9798 680.711,-370.1994"/>
<polygon fill="#191970" stroke="#191970" points="682.2217,-373.3694 690.3213,-366.5395 679.7304,-366.8277 682.2217,-373.3694"/>
</g>
<!-- Node9 -->
<g id="node10" class="node">
<title>Node9</title>
<g id="a_node10"><a xlink:href="Axis_8h.html" target="_top" xlink:title="iDynTree/Core/Axis.h">
<polygon fill="none" stroke="#000000" points="334.5,-347.5 334.5,-366.5 452.5,-366.5 452.5,-347.5 334.5,-347.5"/>
<text text-anchor="middle" x="393.5" y="-354.5" font-family="FreeSans.ttf" font-size="10.00" fill="#000000">iDynTree/Core/Axis.h</text>
</a>
</g>
</g>
<!-- Node4&#45;&gt;Node9 -->
<g id="edge11" class="edge">
<title>Node4&#45;&gt;Node9</title>
<path fill="none" stroke="#191970" d="M546.2617,-459.4509C517.2988,-440.0268 451.3093,-395.7703 416.2977,-372.2895"/>
<polygon fill="#191970" stroke="#191970" points="417.957,-369.188 407.7023,-366.5249 414.058,-375.0017 417.957,-369.188"/>
</g>
<!-- Node33 -->
<g id="node34" class="node">
<title>Node33</title>
<g id="a_node34"><a xlink:href="Transform_8h.html" target="_top" xlink:title="iDynTree/Core/Transform.h">
<polygon fill="none" stroke="#000000" points="470.5,-347.5 470.5,-366.5 616.5,-366.5 616.5,-347.5 470.5,-347.5"/>
<text text-anchor="middle" x="543.5" y="-354.5" font-family="FreeSans.ttf" font-size="10.00" fill="#000000">iDynTree/Core/Transform.h</text>
</a>
</g>
</g>
<!-- Node4&#45;&gt;Node33 -->
<g id="edge56" class="edge">
<title>Node4&#45;&gt;Node33</title>
<path fill="none" stroke="#191970" d="M555.5415,-459.4444C551.122,-450.352 544.9805,-436.1462 542.5,-423 539.6076,-407.671 540.074,-389.9829 541.1449,-376.7786"/>
<polygon fill="#191970" stroke="#191970" points="544.6602,-376.7998 542.1725,-366.5012 537.6949,-376.1034 544.6602,-376.7998"/>
</g>
<!-- Node5&#45;&gt;Node2 -->
<g id="edge7" class="edge">
<title>Node5&#45;&gt;Node2</title>
<path fill="none" stroke="#191970" d="M1174.8232,-403.2455C1161.0144,-394.6534 1140.6807,-382.0014 1124.7708,-372.1018"/>
<polygon fill="#191970" stroke="#191970" points="1126.3368,-368.954 1115.9972,-366.6427 1122.6387,-374.8974 1126.3368,-368.954"/>
</g>
<!-- Node5&#45;&gt;Node3 -->
<g id="edge8" class="edge">
<title>Node5&#45;&gt;Node3</title>
<path fill="none" stroke="#191970" d="M1200.3746,-403.2748C1208.7399,-394.51 1220.4648,-380.8993 1227.5,-367 1242.3489,-337.6632 1246.5,-328.3806 1246.5,-295.5 1246.5,-295.5 1246.5,-295.5 1246.5,-178 1246.5,-146.7875 1241.9397,-136.4196 1222.5,-112 1211.946,-98.7424 1196.4838,-88.0914 1182.6812,-80.3904"/>
<polygon fill="#191970" stroke="#191970" points="1183.9496,-77.1025 1173.4714,-75.5344 1180.6847,-83.2945 1183.9496,-77.1025"/>
</g>
<!-- Node6 -->
<g id="node7" class="node">
<title>Node6</title>
<polygon fill="none" stroke="#bfbfbf" points="1153,-347.5 1153,-366.5 1218,-366.5 1218,-347.5 1153,-347.5"/>
<text text-anchor="middle" x="1185.5" y="-354.5" font-family="FreeSans.ttf" font-size="10.00" fill="#000000">functional</text>
</g>
<!-- Node5&#45;&gt;Node6 -->
<g id="edge6" class="edge">
<title>Node5&#45;&gt;Node6</title>
<path fill="none" stroke="#191970" d="M1189.6291,-403.2455C1188.9766,-395.9382 1188.062,-385.6944 1187.2593,-376.7046"/>
<polygon fill="#191970" stroke="#191970" points="1190.7365,-376.2918 1186.361,-366.6427 1183.7642,-376.9143 1190.7365,-376.2918"/>
</g>
<!-- Node5&#45;&gt;Node7 -->
<g id="edge9" class="edge">
<title>Node5&#45;&gt;Node7</title>
<path fill="none" stroke="#191970" d="M1124.0162,-405.0953C1030.9609,-394.0314 863.4925,-374.1201 776.0843,-363.7276"/>
<polygon fill="#191970" stroke="#191970" points="776.4313,-360.2443 766.088,-362.5391 775.6048,-367.1954 776.4313,-360.2443"/>
</g>
<!-- Node5&#45;&gt;Node8 -->
<g id="edge10" class="edge">
<title>Node5&#45;&gt;Node8</title>
<path fill="none" stroke="#191970" d="M1248.7325,-403.4369C1320.363,-391.6735 1439.5838,-372.0947 1497.6456,-362.5597"/>
<polygon fill="#191970" stroke="#191970" points="1498.4494,-365.9746 1507.7501,-360.9003 1497.315,-359.0671 1498.4494,-365.9746"/>
</g>
<!-- Node9&#45;&gt;Node3 -->
<g id="edge12" class="edge">
<title>Node9&#45;&gt;Node3</title>
<path fill="none" stroke="#191970" d="M403.0946,-347.0694C434.7845,-314.9514 540.3196,-213.3479 649.5,-168 747.4863,-127.3016 785.7622,-168.1947 885.5,-132 901.6213,-126.1496 902.5099,-118.2 918.5,-112 987.1558,-85.3795 1073.4139,-73.5141 1119.3028,-68.7723"/>
<polygon fill="#191970" stroke="#191970" points="1119.6558,-72.2546 1129.2641,-67.7903 1118.969,-65.2883 1119.6558,-72.2546"/>
</g>
<!-- Node10 -->
<g id="node11" class="node">
<title>Node10</title>
<g id="a_node11"><a xlink:href="Direction_8h.html" target="_top" xlink:title="iDynTree/Core/Direction.h">
<polygon fill="none" stroke="#000000" points="347,-168.5 347,-187.5 488,-187.5 488,-168.5 347,-168.5"/>
<text text-anchor="middle" x="417.5" y="-175.5" font-family="FreeSans.ttf" font-size="10.00" fill="#000000">iDynTree/Core/Direction.h</text>
</a>
</g>
</g>
<!-- Node9&#45;&gt;Node10 -->
<g id="edge13" class="edge">
<title>Node9&#45;&gt;Node10</title>
<path fill="none" stroke="#191970" d="M394.7903,-347.3762C398.5669,-319.2097 409.6547,-236.5126 414.8089,-198.0713"/>
<polygon fill="#191970" stroke="#191970" points="418.3433,-198.0479 416.2033,-187.6714 411.4053,-197.1176 418.3433,-198.0479"/>
</g>
<!-- Node12 -->
<g id="node13" class="node">
<title>Node12</title>
<g id="a_node13"><a xlink:href="Utils_8h.html" target="_top" xlink:title="iDynTree/Core/Utils.h">
<polygon fill="none" stroke="#000000" points="357,-56.5 357,-75.5 476,-75.5 476,-56.5 357,-56.5"/>
<text text-anchor="middle" x="416.5" y="-63.5" font-family="FreeSans.ttf" font-size="10.00" fill="#000000">iDynTree/Core/Utils.h</text>
</a>
</g>
</g>
<!-- Node9&#45;&gt;Node12 -->
<g id="edge55" class="edge">
<title>Node9&#45;&gt;Node12</title>
<path fill="none" stroke="#191970" d="M386.473,-347.4727C366.8261,-319.6184 314.2458,-236.0011 337.5,-168 349.4117,-133.1672 378.5908,-101.0182 397.9557,-82.4643"/>
<polygon fill="#191970" stroke="#191970" points="400.3964,-84.9741 405.3301,-75.5981 395.6263,-79.8509 400.3964,-84.9741"/>
</g>
<!-- Node25 -->
<g id="node26" class="node">
<title>Node25</title>
<g id="a_node26"><a xlink:href="Position_8h.html" target="_top" xlink:title="iDynTree/Core/Position.h">
<polygon fill="none" stroke="#000000" points="741.5,-286 741.5,-305 877.5,-305 877.5,-286 741.5,-286"/>
<text text-anchor="middle" x="809.5" y="-293" font-family="FreeSans.ttf" font-size="10.00" fill="#000000">iDynTree/Core/Position.h</text>
</a>
</g>
</g>
<!-- Node9&#45;&gt;Node25 -->
<g id="edge33" class="edge">
<title>Node9&#45;&gt;Node25</title>
<path fill="none" stroke="#191970" d="M452.6609,-348.2539C526.876,-337.2822 654.1795,-318.462 734.9715,-306.518"/>
<polygon fill="#191970" stroke="#191970" points="735.6942,-309.9493 745.0748,-305.0244 734.6704,-303.0246 735.6942,-309.9493"/>
</g>
<!-- Node10&#45;&gt;Node3 -->
<g id="edge14" class="edge">
<title>Node10&#45;&gt;Node3</title>
<path fill="none" stroke="#191970" d="M487.8759,-168.4836C532.438,-161.2435 590.8172,-149.4985 640.5,-132 658.8734,-125.5288 660.8089,-117.4862 679.5,-112 762.4253,-87.6598 1026.7681,-72.3053 1119.2101,-67.5678"/>
<polygon fill="#191970" stroke="#191970" points="1119.5495,-71.0552 1129.3601,-67.0551 1119.1963,-64.0641 1119.5495,-71.0552"/>
</g>
<!-- Node11 -->
<g id="node12" class="node">
<title>Node11</title>
<g id="a_node12"><a xlink:href="VectorFixSize_8h.html" target="_top" xlink:title="iDynTree/Core/VectorFixSize.h">
<polygon fill="none" stroke="#000000" points="0,-112.5 0,-131.5 161,-131.5 161,-112.5 0,-112.5"/>
<text text-anchor="middle" x="80.5" y="-119.5" font-family="FreeSans.ttf" font-size="10.00" fill="#000000">iDynTree/Core/VectorFixSize.h</text>
</a>
</g>
</g>
<!-- Node10&#45;&gt;Node11 -->
<g id="edge15" class="edge">
<title>Node10&#45;&gt;Node11</title>
<path fill="none" stroke="#191970" d="M359.9505,-168.4369C301.1851,-158.6717 210.0087,-143.5207 147.9034,-133.2006"/>
<polygon fill="#191970" stroke="#191970" points="148.2506,-129.7103 137.8121,-131.5237 147.1031,-136.6157 148.2506,-129.7103"/>
</g>
<!-- Node10&#45;&gt;Node12 -->
<g id="edge32" class="edge">
<title>Node10&#45;&gt;Node12</title>
<path fill="none" stroke="#191970" d="M417.4147,-168.4509C417.2516,-150.184 416.8925,-109.9553 416.6759,-85.6976"/>
<polygon fill="#191970" stroke="#191970" points="420.1743,-85.4932 416.585,-75.5249 413.1746,-85.5558 420.1743,-85.4932"/>
</g>
<!-- Node11&#45;&gt;Node3 -->
<g id="edge28" class="edge">
<title>Node11&#45;&gt;Node3</title>
<path fill="none" stroke="#191970" d="M161.0077,-112.7166C163.8724,-112.4619 166.7101,-112.2218 169.5,-112 541.9168,-82.3867 995.4169,-69.784 1119.0596,-66.7527"/>
<polygon fill="#191970" stroke="#191970" points="1119.4294,-70.2448 1129.3419,-66.5042 1119.2602,-63.2469 1119.4294,-70.2448"/>
</g>
<!-- Node11&#45;&gt;Node12 -->
<g id="edge16" class="edge">
<title>Node11&#45;&gt;Node12</title>
<path fill="none" stroke="#191970" d="M137.8787,-112.4369C196.4697,-102.6717 287.3756,-87.5207 349.2966,-77.2006"/>
<polygon fill="#191970" stroke="#191970" points="350.0695,-80.6201 359.358,-75.5237 348.9186,-73.7154 350.0695,-80.6201"/>
</g>
<!-- Node14 -->
<g id="node15" class="node">
<title>Node14</title>
<g id="a_node15"><a xlink:href="Span_8h.html" target="_top" xlink:title="iDynTree/Core/Span.h">
<polygon fill="none" stroke="#000000" points="565,-56.5 565,-75.5 686,-75.5 686,-56.5 565,-56.5"/>
<text text-anchor="middle" x="625.5" y="-63.5" font-family="FreeSans.ttf" font-size="10.00" fill="#000000">iDynTree/Core/Span.h</text>
</a>
</g>
</g>
<!-- Node11&#45;&gt;Node14 -->
<g id="edge18" class="edge">
<title>Node11&#45;&gt;Node14</title>
<path fill="none" stroke="#191970" d="M161.0257,-112.9107C163.8854,-112.6011 166.717,-112.2967 169.5,-112 305.8693,-97.461 465.3137,-81.6479 554.9461,-72.8667"/>
<polygon fill="#191970" stroke="#191970" points="555.3815,-76.3409 564.9929,-71.8832 554.6995,-69.3742 555.3815,-76.3409"/>
</g>
<!-- Node15 -->
<g id="node16" class="node">
<title>Node15</title>
<polygon fill="none" stroke="#bfbfbf" points="224.5,-.5 224.5,-19.5 276.5,-19.5 276.5,-.5 224.5,-.5"/>
<text text-anchor="middle" x="250.5" y="-7.5" font-family="FreeSans.ttf" font-size="10.00" fill="#000000">cassert</text>
</g>
<!-- Node11&#45;&gt;Node15 -->
<g id="edge30" class="edge">
<title>Node11&#45;&gt;Node15</title>
<path fill="none" stroke="#191970" d="M78.8044,-112.1625C76.9567,-97.9699 75.8683,-71.7314 89.5,-56 105.7679,-37.2263 172.0728,-23.0173 214.3536,-15.6456"/>
<polygon fill="#191970" stroke="#191970" points="215.0062,-19.085 224.2806,-13.9629 213.8363,-12.1834 215.0062,-19.085"/>
</g>
<!-- Node23 -->
<g id="node24" class="node">
<title>Node23</title>
<polygon fill="none" stroke="#bfbfbf" points="166.5,-56.5 166.5,-75.5 222.5,-75.5 222.5,-56.5 166.5,-56.5"/>
<text text-anchor="middle" x="194.5" y="-63.5" font-family="FreeSans.ttf" font-size="10.00" fill="#000000">sstream</text>
</g>
<!-- Node11&#45;&gt;Node23 -->
<g id="edge29" class="edge">
<title>Node11&#45;&gt;Node23</title>
<path fill="none" stroke="#191970" d="M100.0973,-112.3733C118.2331,-103.4644 145.4135,-90.1127 165.9587,-80.0203"/>
<polygon fill="#191970" stroke="#191970" points="167.7261,-83.0517 175.1584,-75.5011 164.6397,-76.7688 167.7261,-83.0517"/>
</g>
<!-- Node24 -->
<g id="node25" class="node">
<title>Node24</title>
<polygon fill="none" stroke="#bfbfbf" points="98.5,-56.5 98.5,-75.5 148.5,-75.5 148.5,-56.5 98.5,-56.5"/>
<text text-anchor="middle" x="123.5" y="-63.5" font-family="FreeSans.ttf" font-size="10.00" fill="#000000">cstring</text>
</g>
<!-- Node11&#45;&gt;Node24 -->
<g id="edge31" class="edge">
<title>Node11&#45;&gt;Node24</title>
<path fill="none" stroke="#191970" d="M87.99,-112.2455C94.0326,-104.3761 102.6903,-93.101 109.9441,-83.6542"/>
<polygon fill="#191970" stroke="#191970" points="112.7815,-85.7058 116.0958,-75.6427 107.2295,-81.4426 112.7815,-85.7058"/>
</g>
<!-- Node13 -->
<g id="node14" class="node">
<title>Node13</title>
<polygon fill="none" stroke="#bfbfbf" points="390,-.5 390,-19.5 443,-19.5 443,-.5 390,-.5"/>
<text text-anchor="middle" x="416.5" y="-7.5" font-family="FreeSans.ttf" font-size="10.00" fill="#000000">cstddef</text>
</g>
<!-- Node12&#45;&gt;Node13 -->
<g id="edge17" class="edge">
<title>Node12&#45;&gt;Node13</title>
<path fill="none" stroke="#191970" d="M416.5,-56.2455C416.5,-48.9382 416.5,-38.6944 416.5,-29.7046"/>
<polygon fill="#191970" stroke="#191970" points="420.0001,-29.6426 416.5,-19.6427 413.0001,-29.6427 420.0001,-29.6426"/>
</g>
<!-- Node14&#45;&gt;Node13 -->
<g id="edge22" class="edge">
<title>Node14&#45;&gt;Node13</title>
<path fill="none" stroke="#191970" d="M589.0181,-56.4249C556.0373,-47.7409 505.893,-34.4688 453.1102,-20.1455"/>
<polygon fill="#191970" stroke="#191970" points="453.7952,-16.7048 443.2273,-17.4597 451.9594,-23.4598 453.7952,-16.7048"/>
</g>
<!-- Node14&#45;&gt;Node15 -->
<g id="edge19" class="edge">
<title>Node14&#45;&gt;Node15</title>
<path fill="none" stroke="#191970" d="M564.833,-56.9404C486.0927,-45.1818 351.173,-25.0338 286.7732,-15.4168"/>
<polygon fill="#191970" stroke="#191970" points="287.1025,-11.9272 276.6952,-13.9118 286.0686,-18.8505 287.1025,-11.9272"/>
</g>
<!-- Node16 -->
<g id="node17" class="node">
<title>Node16</title>
<polygon fill="none" stroke="#bfbfbf" points="461.5,-.5 461.5,-19.5 525.5,-19.5 525.5,-.5 461.5,-.5"/>
<text text-anchor="middle" x="493.5" y="-7.5" font-family="FreeSans.ttf" font-size="10.00" fill="#000000">algorithm</text>
</g>
<!-- Node14&#45;&gt;Node16 -->
<g id="edge20" class="edge">
<title>Node14&#45;&gt;Node16</title>
<path fill="none" stroke="#191970" d="M602.8084,-56.3733C581.4289,-47.3032 549.1943,-33.6279 525.2638,-23.4755"/>
<polygon fill="#191970" stroke="#191970" points="526.4683,-20.1846 515.8955,-19.5011 523.7344,-26.6287 526.4683,-20.1846"/>
</g>
<!-- Node17 -->
<g id="node18" class="node">
<title>Node17</title>
<polygon fill="none" stroke="#bfbfbf" points="543.5,-.5 543.5,-19.5 585.5,-19.5 585.5,-.5 543.5,-.5"/>
<text text-anchor="middle" x="564.5" y="-7.5" font-family="FreeSans.ttf" font-size="10.00" fill="#000000">array</text>
</g>
<!-- Node14&#45;&gt;Node17 -->
<g id="edge21" class="edge">
<title>Node14&#45;&gt;Node17</title>
<path fill="none" stroke="#191970" d="M614.8746,-56.2455C605.9527,-48.0549 593.012,-36.1749 582.4808,-26.5069"/>
<polygon fill="#191970" stroke="#191970" points="584.7371,-23.8271 575.0036,-19.6427 580.0032,-28.9837 584.7371,-23.8271"/>
</g>
<!-- Node18 -->
<g id="node19" class="node">
<title>Node18</title>
<polygon fill="none" stroke="#bfbfbf" points="1625,-.5 1625,-19.5 1678,-19.5 1678,-.5 1625,-.5"/>
<text text-anchor="middle" x="1651.5" y="-7.5" font-family="FreeSans.ttf" font-size="10.00" fill="#000000">iterator</text>
</g>
<!-- Node14&#45;&gt;Node18 -->
<g id="edge23" class="edge">
<title>Node14&#45;&gt;Node18</title>
<path fill="none" stroke="#191970" d="M686.2289,-62.6854C877.0854,-52.2682 1461.2071,-20.3864 1614.3959,-12.0252"/>
<polygon fill="#191970" stroke="#191970" points="1614.8751,-15.5043 1624.6694,-11.4644 1614.4935,-8.5147 1614.8751,-15.5043"/>
</g>
<!-- Node19 -->
<g id="node20" class="node">
<title>Node19</title>
<polygon fill="none" stroke="#bfbfbf" points="603.5,-.5 603.5,-19.5 647.5,-19.5 647.5,-.5 603.5,-.5"/>
<text text-anchor="middle" x="625.5" y="-7.5" font-family="FreeSans.ttf" font-size="10.00" fill="#000000">limits</text>
</g>
<!-- Node14&#45;&gt;Node19 -->
<g id="edge24" class="edge">
<title>Node14&#45;&gt;Node19</title>
<path fill="none" stroke="#191970" d="M625.5,-56.2455C625.5,-48.9382 625.5,-38.6944 625.5,-29.7046"/>
<polygon fill="#191970" stroke="#191970" points="629.0001,-29.6426 625.5,-19.6427 622.0001,-29.6427 629.0001,-29.6426"/>
</g>
<!-- Node20 -->
<g id="node21" class="node">
<title>Node20</title>
<polygon fill="none" stroke="#bfbfbf" points="666,-.5 666,-19.5 731,-19.5 731,-.5 666,-.5"/>
<text text-anchor="middle" x="698.5" y="-7.5" font-family="FreeSans.ttf" font-size="10.00" fill="#000000">stdexcept</text>
</g>
<!-- Node14&#45;&gt;Node20 -->
<g id="edge25" class="edge">
<title>Node14&#45;&gt;Node20</title>
<path fill="none" stroke="#191970" d="M638.2156,-56.2455C649.102,-47.8943 664.9883,-35.7076 677.72,-25.9408"/>
<polygon fill="#191970" stroke="#191970" points="680.1261,-28.5063 685.9301,-19.6427 675.8654,-22.9523 680.1261,-28.5063"/>
</g>
<!-- Node21 -->
<g id="node22" class="node">
<title>Node21</title>
<polygon fill="none" stroke="#bfbfbf" points="749,-.5 749,-19.5 818,-19.5 818,-.5 749,-.5"/>
<text text-anchor="middle" x="783.5" y="-7.5" font-family="FreeSans.ttf" font-size="10.00" fill="#000000">type_traits</text>
</g>
<!-- Node14&#45;&gt;Node21 -->
<g id="edge26" class="edge">
<title>Node14&#45;&gt;Node21</title>
<path fill="none" stroke="#191970" d="M652.6612,-56.3733C678.7067,-47.1419 718.2116,-33.1402 746.9979,-22.9375"/>
<polygon fill="#191970" stroke="#191970" points="748.437,-26.1408 756.6933,-19.5011 746.0985,-19.5429 748.437,-26.1408"/>
</g>
<!-- Node22 -->
<g id="node23" class="node">
<title>Node22</title>
<polygon fill="none" stroke="#bfbfbf" points="836,-.5 836,-19.5 881,-19.5 881,-.5 836,-.5"/>
<text text-anchor="middle" x="858.5" y="-7.5" font-family="FreeSans.ttf" font-size="10.00" fill="#000000">utility</text>
</g>
<!-- Node14&#45;&gt;Node22 -->
<g id="edge27" class="edge">
<title>Node14&#45;&gt;Node22</title>
<path fill="none" stroke="#191970" d="M672.0577,-56.4212C710.8031,-48.2077 767.5924,-35.6113 826.0607,-19.9629"/>
<polygon fill="#191970" stroke="#191970" points="827.0973,-23.3084 835.8383,-17.3213 825.2716,-16.5507 827.0973,-23.3084"/>
</g>
<!-- Node25&#45;&gt;Node3 -->
<g id="edge54" class="edge">
<title>Node25&#45;&gt;Node3</title>
<path fill="none" stroke="#191970" d="M877.5383,-288.7093C942.2694,-281.0136 1033.7759,-266.5286 1061.5,-244 1111.0933,-203.7004 1087.0275,-167.6151 1118.5,-112 1123.9745,-102.3261 1131.0524,-92.222 1137.2486,-83.9558"/>
<polygon fill="#191970" stroke="#191970" points="1140.1874,-85.8757 1143.5085,-75.8148 1134.6382,-81.6087 1140.1874,-85.8757"/>
</g>
<!-- Node26 -->
<g id="node27" class="node">
<title>Node26</title>
<g id="a_node27"><a xlink:href="PositionRaw_8h.html" target="_top" xlink:title="iDynTree/Core/PositionRaw.h">
<polygon fill="none" stroke="#000000" points="658.5,-168.5 658.5,-187.5 814.5,-187.5 814.5,-168.5 658.5,-168.5"/>
<text text-anchor="middle" x="736.5" y="-175.5" font-family="FreeSans.ttf" font-size="10.00" fill="#000000">iDynTree/Core/PositionRaw.h</text>
</a>
</g>
</g>
<!-- Node25&#45;&gt;Node26 -->
<g id="edge34" class="edge">
<title>Node25&#45;&gt;Node26</title>
<path fill="none" stroke="#191970" d="M811.3234,-285.9492C813.566,-271.4816 815.8104,-243.6206 804.5,-224 796.5765,-210.2548 782.6872,-199.7659 769.5182,-192.3003"/>
<polygon fill="#191970" stroke="#191970" points="771.0785,-189.1664 760.5984,-187.6119 767.8217,-195.3626 771.0785,-189.1664"/>
</g>
<!-- Node27 -->
<g id="node28" class="node">
<title>Node27</title>
<g id="a_node28"><a xlink:href="PositionSemantics_8h.html" target="_top" xlink:title="iDynTree/Core/PositionSemantics.h">
<polygon fill="none" stroke="#000000" points="866,-224.5 866,-243.5 1053,-243.5 1053,-224.5 866,-224.5"/>
<text text-anchor="middle" x="959.5" y="-231.5" font-family="FreeSans.ttf" font-size="10.00" fill="#000000">iDynTree/Core/PositionSemantics.h</text>
</a>
</g>
</g>
<!-- Node25&#45;&gt;Node27 -->
<g id="edge37" class="edge">
<title>Node25&#45;&gt;Node27</title>
<path fill="none" stroke="#191970" d="M832.9375,-285.8906C858.1453,-275.5554 898.4153,-259.0447 926.7477,-247.4284"/>
<polygon fill="#191970" stroke="#191970" points="928.3023,-250.5739 936.2271,-243.5419 925.6468,-244.0971 928.3023,-250.5739"/>
</g>
<!-- Node28 -->
<g id="node29" class="node">
<title>Node28</title>
<g id="a_node29"><a xlink:href="Rotation_8h.html" target="_top" xlink:title="iDynTree/Core/Rotation.h">
<polygon fill="none" stroke="#000000" points="659,-224.5 659,-243.5 796,-243.5 796,-224.5 659,-224.5"/>
<text text-anchor="middle" x="727.5" y="-231.5" font-family="FreeSans.ttf" font-size="10.00" fill="#000000">iDynTree/Core/Rotation.h</text>
</a>
</g>
</g>
<!-- Node25&#45;&gt;Node28 -->
<g id="edge39" class="edge">
<title>Node25&#45;&gt;Node28</title>
<path fill="none" stroke="#191970" d="M796.6875,-285.8906C783.8099,-276.2324 763.7416,-261.1812 748.528,-249.771"/>
<polygon fill="#191970" stroke="#191970" points="750.3226,-246.7419 740.2225,-243.5419 746.1225,-252.3419 750.3226,-246.7419"/>
</g>
<!-- Node26&#45;&gt;Node3 -->
<g id="edge36" class="edge">
<title>Node26&#45;&gt;Node3</title>
<path fill="none" stroke="#191970" d="M781.1009,-168.4709C818.2374,-160.1222 872.3145,-147.0002 918.5,-132 941.2636,-124.6068 945.7316,-119.3784 968.5,-112 1020.4057,-95.1792 1082.2347,-80.7742 1119.1023,-72.7618"/>
<polygon fill="#191970" stroke="#191970" points="1120.2155,-76.1026 1129.257,-70.5798 1118.7448,-69.2588 1120.2155,-76.1026"/>
</g>
<!-- Node26&#45;&gt;Node11 -->
<g id="edge35" class="edge">
<title>Node26&#45;&gt;Node11</title>
<path fill="none" stroke="#191970" d="M658.4742,-172.4373C551.1224,-164.6123 351.5648,-149.4523 171.2254,-132.1439"/>
<polygon fill="#191970" stroke="#191970" points="171.3083,-128.6358 161.0185,-131.16 170.6365,-135.6035 171.3083,-128.6358"/>
</g>
<!-- Node27&#45;&gt;Node3 -->
<g id="edge38" class="edge">
<title>Node27&#45;&gt;Node3</title>
<path fill="none" stroke="#191970" d="M979.7812,-224.3811C995.4593,-216.2451 1017.0271,-203.4569 1032.5,-188 1060.7639,-159.7652 1052.4146,-140.4123 1080.5,-112 1092.8322,-99.5242 1109.1119,-88.6768 1122.9712,-80.6539"/>
<polygon fill="#191970" stroke="#191970" points="1125.07,-83.4911 1132.1012,-75.5655 1121.6622,-77.3765 1125.07,-83.4911"/>
</g>
<!-- Node28&#45;&gt;Node3 -->
<g id="edge40" class="edge">
<title>Node28&#45;&gt;Node3</title>
<path fill="none" stroke="#191970" d="M796.0696,-227.9386C865.0265,-220.8718 965.8154,-207.6016 999.5,-188 1037.1769,-166.0752 1027.5905,-139.3933 1061.5,-112 1079.0873,-97.7924 1101.7689,-86.234 1119.9621,-78.2569"/>
<polygon fill="#191970" stroke="#191970" points="1121.4387,-81.4326 1129.2807,-74.3084 1118.7076,-74.9873 1121.4387,-81.4326"/>
</g>
<!-- Node28&#45;&gt;Node11 -->
<g id="edge53" class="edge">
<title>Node28&#45;&gt;Node11</title>
<path fill="none" stroke="#191970" d="M658.7438,-228.6957C580.5,-222.0112 449.0915,-208.813 337.5,-188 327.0601,-186.0529 198.2752,-152.6561 127.082,-134.1348"/>
<polygon fill="#191970" stroke="#191970" points="127.5761,-130.6468 117.0169,-131.5156 125.8131,-137.4212 127.5761,-130.6468"/>
</g>
<!-- Node29 -->
<g id="node30" class="node">
<title>Node29</title>
<g id="a_node30"><a xlink:href="RotationRaw_8h.html" target="_top" xlink:title="iDynTree/Core/RotationRaw.h">
<polygon fill="none" stroke="#000000" points="832.5,-168.5 832.5,-187.5 990.5,-187.5 990.5,-168.5 832.5,-168.5"/>
<text text-anchor="middle" x="911.5" y="-175.5" font-family="FreeSans.ttf" font-size="10.00" fill="#000000">iDynTree/Core/RotationRaw.h</text>
</a>
</g>
</g>
<!-- Node28&#45;&gt;Node29 -->
<g id="edge41" class="edge">
<title>Node28&#45;&gt;Node29</title>
<path fill="none" stroke="#191970" d="M759.1307,-224.3733C789.8596,-215.021 836.676,-200.7725 870.3022,-190.5385"/>
<polygon fill="#191970" stroke="#191970" points="871.7344,-193.7612 880.282,-187.5011 869.6962,-187.0644 871.7344,-193.7612"/>
</g>
<!-- Node32 -->
<g id="node33" class="node">
<title>Node32</title>
<g id="a_node33"><a xlink:href="RotationSemantics_8h.html" target="_top" xlink:title="iDynTree/Core/RotationSemantics.h">
<polygon fill="none" stroke="#000000" points="688.5,-112.5 688.5,-131.5 876.5,-131.5 876.5,-112.5 688.5,-112.5"/>
<text text-anchor="middle" x="782.5" y="-119.5" font-family="FreeSans.ttf" font-size="10.00" fill="#000000">iDynTree/Core/RotationSemantics.h</text>
</a>
</g>
</g>
<!-- Node28&#45;&gt;Node32 -->
<g id="edge50" class="edge">
<title>Node28&#45;&gt;Node32</title>
<path fill="none" stroke="#191970" d="M699.7994,-224.4675C670.9739,-212.9879 632.2623,-192.2014 649.5,-168 659.102,-154.519 695.7926,-142.4231 728.2098,-134.0221"/>
<polygon fill="#191970" stroke="#191970" points="729.2536,-137.3687 738.0984,-131.5361 727.5468,-130.5799 729.2536,-137.3687"/>
</g>
<!-- Node29&#45;&gt;Node3 -->
<g id="edge49" class="edge">
<title>Node29&#45;&gt;Node3</title>
<path fill="none" stroke="#191970" d="M922.5025,-168.4231C939.1974,-154.319 972.3934,-127.9165 1004.5,-112 1042.0057,-93.407 1088.6096,-80.3524 1119.1602,-73.0153"/>
<polygon fill="#191970" stroke="#191970" points="1120.313,-76.3403 1129.2556,-70.6588 1118.7218,-69.5236 1120.313,-76.3403"/>
</g>
<!-- Node30 -->
<g id="node31" class="node">
<title>Node30</title>
<g id="a_node31"><a xlink:href="MatrixFixSize_8h.html" target="_top" xlink:title="iDynTree/Core/MatrixFixSize.h">
<polygon fill="none" stroke="#000000" points="179,-112.5 179,-131.5 340,-131.5 340,-112.5 179,-112.5"/>
<text text-anchor="middle" x="259.5" y="-119.5" font-family="FreeSans.ttf" font-size="10.00" fill="#000000">iDynTree/Core/MatrixFixSize.h</text>
</a>
</g>
</g>
<!-- Node29&#45;&gt;Node30 -->
<g id="edge42" class="edge">
<title>Node29&#45;&gt;Node30</title>
<path fill="none" stroke="#191970" d="M832.3585,-168.8866C829.3684,-168.5804 826.4077,-168.2837 823.5,-168 656.8584,-151.7402 462.1265,-136.7424 350.5631,-128.5327"/>
<polygon fill="#191970" stroke="#191970" points="350.5905,-125.0254 340.3611,-127.7838 350.078,-132.0066 350.5905,-125.0254"/>
</g>
<!-- Node30&#45;&gt;Node3 -->
<g id="edge46" class="edge">
<title>Node30&#45;&gt;Node3</title>
<path fill="none" stroke="#191970" d="M340.2323,-116.9316C529.0019,-105.0806 992.805,-75.9629 1119.2248,-68.0262"/>
<polygon fill="#191970" stroke="#191970" points="1119.6426,-71.507 1129.4036,-67.3872 1119.2039,-64.5208 1119.6426,-71.507"/>
</g>
<!-- Node30&#45;&gt;Node12 -->
<g id="edge43" class="edge">
<title>Node30&#45;&gt;Node12</title>
<path fill="none" stroke="#191970" d="M286.4893,-112.3733C312.3699,-103.1419 351.6248,-89.1402 380.2289,-78.9375"/>
<polygon fill="#191970" stroke="#191970" points="381.62,-82.1573 389.8629,-75.5011 379.2683,-75.5642 381.62,-82.1573"/>
</g>
<!-- Node30&#45;&gt;Node15 -->
<g id="edge44" class="edge">
<title>Node30&#45;&gt;Node15</title>
<path fill="none" stroke="#191970" d="M258.7327,-112.4509C257.2648,-94.184 254.0321,-53.9553 252.0828,-29.6976"/>
<polygon fill="#191970" stroke="#191970" points="255.5552,-29.2124 251.2654,-19.5249 248.5777,-29.7731 255.5552,-29.2124"/>
</g>
<!-- Node30&#45;&gt;Node23 -->
<g id="edge48" class="edge">
<title>Node30&#45;&gt;Node23</title>
<path fill="none" stroke="#191970" d="M248.1779,-112.2455C238.5777,-103.9746 224.6108,-91.9416 213.3305,-82.2232"/>
<polygon fill="#191970" stroke="#191970" points="215.553,-79.5182 205.6924,-75.6427 210.984,-84.8214 215.553,-79.5182"/>
</g>
<!-- Node30&#45;&gt;Node24 -->
<g id="edge45" class="edge">
<title>Node30&#45;&gt;Node24</title>
<path fill="none" stroke="#191970" d="M236.1208,-112.3733C213.9955,-103.2629 180.5866,-89.5062 155.8981,-79.3404"/>
<polygon fill="#191970" stroke="#191970" points="157.1536,-76.0723 146.5742,-75.5011 154.4883,-82.5451 157.1536,-76.0723"/>
</g>
<!-- Node31 -->
<g id="node32" class="node">
<title>Node31</title>
<polygon fill="none" stroke="#bfbfbf" points="278.5,-56.5 278.5,-75.5 338.5,-75.5 338.5,-56.5 278.5,-56.5"/>
<text text-anchor="middle" x="308.5" y="-63.5" font-family="FreeSans.ttf" font-size="10.00" fill="#000000">iostream</text>
</g>
<!-- Node30&#45;&gt;Node31 -->
<g id="edge47" class="edge">
<title>Node30&#45;&gt;Node31</title>
<path fill="none" stroke="#191970" d="M268.0351,-112.2455C274.9912,-104.2958 284.9883,-92.8706 293.3051,-83.3656"/>
<polygon fill="#191970" stroke="#191970" points="296.1116,-85.4732 300.0627,-75.6427 290.8436,-80.8637 296.1116,-85.4732"/>
</g>
<!-- Node32&#45;&gt;Node3 -->
<g id="edge51" class="edge">
<title>Node32&#45;&gt;Node3</title>
<path fill="none" stroke="#191970" d="M845.5141,-112.4369C924.7405,-100.4134 1057.7681,-80.2249 1118.9361,-70.942"/>
<polygon fill="#191970" stroke="#191970" points="1119.7879,-74.3528 1129.1495,-69.3919 1118.7376,-67.4321 1119.7879,-74.3528"/>
</g>
<!-- Node32&#45;&gt;Node12 -->
<g id="edge52" class="edge">
<title>Node32&#45;&gt;Node12</title>
<path fill="none" stroke="#191970" d="M719.9982,-112.4369C655.0387,-102.4977 553.6138,-86.9792 486.129,-76.6536"/>
<polygon fill="#191970" stroke="#191970" points="486.4283,-73.1588 476.014,-75.106 485.3695,-80.0782 486.4283,-73.1588"/>
</g>
<!-- Node33&#45;&gt;Node3 -->
<g id="edge63" class="edge">
<title>Node33&#45;&gt;Node3</title>
<path fill="none" stroke="#191970" d="M616.6812,-347.8588C709.5456,-336.1542 860.8016,-316.7017 886.5,-311 998.3444,-286.1853 1132.5,-348.5641 1132.5,-234 1132.5,-234 1132.5,-234 1132.5,-178 1132.5,-145.2688 1140.4852,-107.9052 1146.1022,-85.6716"/>
<polygon fill="#191970" stroke="#191970" points="1149.5415,-86.3545 1148.6965,-75.7934 1142.7711,-84.5763 1149.5415,-86.3545"/>
</g>
<!-- Node33&#45;&gt;Node25 -->
<g id="edge57" class="edge">
<title>Node33&#45;&gt;Node25</title>
<path fill="none" stroke="#191970" d="M584.7706,-347.4581C631.4609,-336.6632 707.5575,-319.0694 758.074,-307.3899"/>
<polygon fill="#191970" stroke="#191970" points="759.178,-310.727 768.1325,-305.0643 757.6011,-303.9069 759.178,-310.727"/>
</g>
<!-- Node33&#45;&gt;Node28 -->
<g id="edge58" class="edge">
<title>Node33&#45;&gt;Node28</title>
<path fill="none" stroke="#191970" d="M570.4502,-347.458C591.5295,-339.3644 621.0881,-326.5958 644.5,-311 670.6479,-293.5816 696.5014,-267.8955 712.2341,-251.0571"/>
<polygon fill="#191970" stroke="#191970" points="714.9169,-253.3102 719.1013,-243.5766 709.7603,-248.5763 714.9169,-253.3102"/>
</g>
<!-- Node33&#45;&gt;Node30 -->
<g id="edge62" class="edge">
<title>Node33&#45;&gt;Node30</title>
<path fill="none" stroke="#191970" d="M541.7268,-347.3484C534.8903,-310.5902 509.9566,-180.7742 496.5,-168 475.4945,-148.0598 408.0973,-136.2429 350.5197,-129.5898"/>
<polygon fill="#191970" stroke="#191970" points="350.5932,-126.0764 340.2669,-128.4467 349.8175,-133.0333 350.5932,-126.0764"/>
</g>
<!-- Node34 -->
<g id="node35" class="node">
<title>Node34</title>
<g id="a_node35"><a xlink:href="TransformSemantics_8h.html" target="_top" xlink:title="iDynTree/Core/TransformSemantics.h">
<polygon fill="none" stroke="#000000" points="435,-112.5 435,-131.5 632,-131.5 632,-112.5 435,-112.5"/>
<text text-anchor="middle" x="533.5" y="-119.5" font-family="FreeSans.ttf" font-size="10.00" fill="#000000">iDynTree/Core/TransformSemantics.h</text>
</a>
</g>
</g>
<!-- Node33&#45;&gt;Node34 -->
<g id="edge59" class="edge">
<title>Node33&#45;&gt;Node34</title>
<path fill="none" stroke="#191970" d="M543.0956,-347.4967C541.6038,-312.4391 536.3898,-189.9096 534.3383,-141.7"/>
<polygon fill="#191970" stroke="#191970" points="537.8315,-141.4637 533.9094,-131.6216 530.8378,-141.7614 537.8315,-141.4637"/>
</g>
<!-- Node34&#45;&gt;Node3 -->
<g id="edge60" class="edge">
<title>Node34&#45;&gt;Node3</title>
<path fill="none" stroke="#191970" d="M632.1073,-113.0647C774.2276,-100.1865 1029.4295,-77.0614 1119.1985,-68.927"/>
<polygon fill="#191970" stroke="#191970" points="1119.6638,-72.3993 1129.3072,-68.011 1119.0321,-65.4278 1119.6638,-72.3993"/>
</g>
<!-- Node34&#45;&gt;Node12 -->
<g id="edge61" class="edge">
<title>Node34&#45;&gt;Node12</title>
<path fill="none" stroke="#191970" d="M513.387,-112.3733C494.6897,-103.4241 466.6256,-89.9917 445.5066,-79.8835"/>
<polygon fill="#191970" stroke="#191970" points="446.8817,-76.6614 436.3506,-75.5011 443.8595,-82.9755 446.8817,-76.6614"/>
</g>
<!-- Node35&#45;&gt;Node2 -->
<g id="edge70" class="edge">
<title>Node35&#45;&gt;Node2</title>
<path fill="none" stroke="#191970" d="M1124.8345,-459.1523C1122.3405,-449.8536 1118.5521,-435.5083 1115.5,-423 1111.7135,-407.4819 1107.7188,-389.8344 1104.8047,-376.6945"/>
<polygon fill="#191970" stroke="#191970" points="1108.2084,-375.8759 1102.6393,-366.8629 1101.3722,-377.3817 1108.2084,-375.8759"/>
</g>
<!-- Node35&#45;&gt;Node3 -->
<g id="edge71" class="edge">
<title>Node35&#45;&gt;Node3</title>
<path fill="none" stroke="#191970" d="M1170.0468,-459.423C1205.4447,-450.6491 1252.1251,-436.9412 1265.5,-423 1286.6322,-400.9732 1284.5,-387.5246 1284.5,-357 1284.5,-357 1284.5,-357 1284.5,-178 1284.5,-125.2649 1222.5653,-92.3475 1183.2248,-76.7578"/>
<polygon fill="#191970" stroke="#191970" points="1184.3525,-73.4423 1173.7612,-73.1662 1181.8686,-79.9868 1184.3525,-73.4423"/>
</g>
<!-- Node35&#45;&gt;Node5 -->
<g id="edge68" class="edge">
<title>Node35&#45;&gt;Node5</title>
<path fill="none" stroke="#191970" d="M1138.4738,-459.2455C1147.6882,-451.0549 1161.0532,-439.1749 1171.9297,-429.5069"/>
<polygon fill="#191970" stroke="#191970" points="1174.5032,-431.9023 1179.652,-422.6427 1169.8526,-426.6704 1174.5032,-431.9023"/>
</g>
<!-- Node35&#45;&gt;Node11 -->
<g id="edge69" class="edge">
<title>Node35&#45;&gt;Node11</title>
<path fill="none" stroke="#191970" d="M1074.472,-466.7101C917.6117,-459.2465 458.529,-432.2394 325.5,-367 214.3403,-312.4856 123.556,-187.2625 92.2368,-140.266"/>
<polygon fill="#191970" stroke="#191970" points="95.0372,-138.154 86.6233,-131.7153 89.1855,-141.9957 95.0372,-138.154"/>
</g>
<!-- Node36&#45;&gt;Node2 -->
<g id="edge102" class="edge">
<title>Node36&#45;&gt;Node2</title>
<path fill="none" stroke="#191970" d="M1179.1651,-571.4955C1142.1442,-557.73 1080.0961,-528.3401 1053.5,-479 1047.0532,-467.0401 1045.3695,-430.7953 1057.5,-403 1062.4548,-391.6468 1071.4478,-381.3318 1079.9335,-373.3602"/>
<polygon fill="#191970" stroke="#191970" points="1082.2634,-375.9722 1087.4535,-366.7357 1077.6362,-370.7196 1082.2634,-375.9722"/>
</g>
<!-- Node36&#45;&gt;Node3 -->
<g id="edge103" class="edge">
<title>Node36&#45;&gt;Node3</title>
<path fill="none" stroke="#191970" d="M1258.2719,-573.611C1285.6053,-567.3309 1318.5173,-555.847 1341.5,-535 1417.4917,-466.0697 1594.4872,-188.8366 1526.5,-112 1503.8902,-86.4472 1270.305,-72.0439 1183.6337,-67.5464"/>
<polygon fill="#191970" stroke="#191970" points="1183.7463,-64.0477 1173.5814,-67.0352 1183.3908,-71.0386 1183.7463,-64.0477"/>
</g>
<!-- Node36&#45;&gt;Node5 -->
<g id="edge73" class="edge">
<title>Node36&#45;&gt;Node5</title>
<path fill="none" stroke="#191970" d="M1207.4807,-571.4862C1204.6353,-544.9293 1196.5606,-469.5651 1192.6606,-433.1655"/>
<polygon fill="#191970" stroke="#191970" points="1196.0985,-432.3981 1191.553,-422.8279 1189.1383,-433.1439 1196.0985,-432.3981"/>
</g>
<!-- Node36&#45;&gt;Node7 -->
<g id="edge104" class="edge">
<title>Node36&#45;&gt;Node7</title>
<path fill="none" stroke="#191970" d="M1170.5483,-571.4358C1095.2365,-551.4192 923.1561,-500.455 795.5,-423 772.8094,-409.2325 750.2928,-388.5712 735.7299,-374.0413"/>
<polygon fill="#191970" stroke="#191970" points="738.0099,-371.3676 728.5071,-366.6826 733.0142,-376.271 738.0099,-371.3676"/>
</g>
<!-- Node36&#45;&gt;Node8 -->
<g id="edge105" class="edge">
<title>Node36&#45;&gt;Node8</title>
<path fill="none" stroke="#191970" d="M1258.183,-574.1767C1310.2708,-566.2657 1387.908,-552.099 1412.5,-535 1469.9886,-495.0278 1458.9715,-460.7946 1498.5,-403 1504.8566,-393.706 1512.1327,-383.5181 1518.2323,-375.0977"/>
<polygon fill="#191970" stroke="#191970" points="1521.2319,-376.9241 1524.29,-366.7802 1515.5736,-372.803 1521.2319,-376.9241"/>
</g>
<!-- Node36&#45;&gt;Node33 -->
<g id="edge74" class="edge">
<title>Node36&#45;&gt;Node33</title>
<path fill="none" stroke="#191970" d="M1158.7351,-577.6219C1003.7224,-566.5994 537.2781,-529.4666 493.5,-479 485.1644,-469.3909 482.5246,-437.6752 498.5,-403 503.7972,-391.5023 513.2213,-381.1708 522.0812,-373.2256"/>
<polygon fill="#191970" stroke="#191970" points="524.5203,-375.7477 529.9247,-366.6349 520.017,-370.3885 524.5203,-375.7477"/>
</g>
<!-- Node36&#45;&gt;Node37 -->
<g id="edge75" class="edge">
<title>Node36&#45;&gt;Node37</title>
<path fill="none" stroke="#191970" d="M1258.1872,-576.6524C1366.8137,-567.1476 1626.5527,-544.4204 1762.3929,-532.5344"/>
<polygon fill="#191970" stroke="#191970" points="1763.0957,-535.9863 1772.7525,-531.6279 1762.4855,-529.013 1763.0957,-535.9863"/>
</g>
<!-- Node37&#45;&gt;Node3 -->
<g id="edge76" class="edge">
<title>Node37&#45;&gt;Node3</title>
<path fill="none" stroke="#191970" d="M1860.7196,-515.335C1881.7377,-497.5263 1922.5,-457.2801 1922.5,-413 1922.5,-413 1922.5,-413 1922.5,-178 1922.5,-127.6776 1877.8576,-129.0176 1830.5,-112 1769.2536,-89.9916 1310.4748,-71.7929 1183.8093,-67.1486"/>
<polygon fill="#191970" stroke="#191970" points="1183.7191,-63.6431 1173.5985,-66.7773 1183.4647,-70.6385 1183.7191,-63.6431"/>
</g>
<!-- Node37&#45;&gt;Node8 -->
<g id="edge77" class="edge">
<title>Node37&#45;&gt;Node8</title>
<path fill="none" stroke="#191970" d="M1817.8722,-515.3751C1770.7879,-499.8483 1678.7116,-466.5557 1608.5,-423 1585.7769,-408.9037 1562.9144,-388.3037 1548.0755,-373.8781"/>
<polygon fill="#191970" stroke="#191970" points="1550.2762,-371.1315 1540.709,-366.5796 1545.3495,-376.1041 1550.2762,-371.1315"/>
</g>
<!-- Node37&#45;&gt;Node18 -->
<g id="edge78" class="edge">
<title>Node37&#45;&gt;Node18</title>
<path fill="none" stroke="#191970" d="M1924.2244,-519.5144C2018.7361,-512.0348 2174.6322,-497.4335 2229.5,-479 2331.244,-444.818 2386.5,-402.8324 2386.5,-295.5 2386.5,-295.5 2386.5,-295.5 2386.5,-122 2386.5,-50.6158 1837.676,-18.97 1688.525,-11.6878"/>
<polygon fill="#191970" stroke="#191970" points="1688.2497,-8.1706 1678.0933,-11.1866 1687.9137,-15.1626 1688.2497,-8.1706"/>
</g>
<!-- Node38 -->
<g id="node39" class="node">
<title>Node38</title>
<g id="a_node39"><a xlink:href="VectorDynSize_8h.html" target="_top" xlink:title="iDynTree/Core/VectorDynSize.h">
<polygon fill="none" stroke="#000000" points="1350,-112.5 1350,-131.5 1517,-131.5 1517,-112.5 1350,-112.5"/>
<text text-anchor="middle" x="1433.5" y="-119.5" font-family="FreeSans.ttf" font-size="10.00" fill="#000000">iDynTree/Core/VectorDynSize.h</text>
</a>
</g>
</g>
<!-- Node37&#45;&gt;Node38 -->
<g id="edge79" class="edge">
<title>Node37&#45;&gt;Node38</title>
<path fill="none" stroke="#191970" d="M1924.1112,-519.3352C2041.4131,-508.7972 2258.6629,-481.6974 2305.5,-423 2317.797,-407.589 2357.7792,-351.0018 2291.5,-280 2188.7685,-169.9485 1728.2038,-135.5396 1527.4958,-125.6568"/>
<polygon fill="#191970" stroke="#191970" points="1527.4227,-122.1493 1517.2656,-125.1633 1527.0853,-129.1412 1527.4227,-122.1493"/>
</g>
<!-- Node37&#45;&gt;Node39 -->
<g id="edge82" class="edge">
<title>Node37&#45;&gt;Node39</title>
<path fill="none" stroke="#191970" d="M1843.1002,-515.2455C1838.8773,-507.617 1832.8827,-496.7881 1827.7559,-487.5267"/>
<polygon fill="#191970" stroke="#191970" points="1830.7432,-485.6965 1822.8379,-478.6427 1824.619,-489.0867 1830.7432,-485.6965"/>
</g>
<!-- Node41 -->
<g id="node42" class="node">
<title>Node41</title>
<g id="a_node42"><a xlink:href="Indices_8h.html" target="_top" xlink:title="iDynTree/Model/Indices.h">
<polygon fill="none" stroke="#000000" points="1964.5,-347.5 1964.5,-366.5 2102.5,-366.5 2102.5,-347.5 1964.5,-347.5"/>
<text text-anchor="middle" x="2033.5" y="-354.5" font-family="FreeSans.ttf" font-size="10.00" fill="#000000">iDynTree/Model/Indices.h</text>
</a>
</g>
</g>
<!-- Node37&#45;&gt;Node41 -->
<g id="edge101" class="edge">
<title>Node37&#45;&gt;Node41</title>
<path fill="none" stroke="#191970" d="M1891.4812,-515.4637C1962.1979,-498.806 2098.017,-462.4071 2125.5,-423 2142.0085,-399.3289 2109.3247,-381.1014 2078.4413,-369.8589"/>
<polygon fill="#191970" stroke="#191970" points="2079.5658,-366.5445 2068.9711,-366.5958 2077.2854,-373.1626 2079.5658,-366.5445"/>
</g>
<!-- Node38&#45;&gt;Node3 -->
<g id="edge81" class="edge">
<title>Node38&#45;&gt;Node3</title>
<path fill="none" stroke="#191970" d="M1385.3429,-112.4369C1327.7463,-100.9993 1232.9431,-82.1731 1183.6003,-72.3745"/>
<polygon fill="#191970" stroke="#191970" points="1183.9958,-68.8848 1173.5056,-70.3699 1182.6323,-75.7507 1183.9958,-68.8848"/>
</g>
<!-- Node38&#45;&gt;Node14 -->
<g id="edge80" class="edge">
<title>Node38&#45;&gt;Node14</title>
<path fill="none" stroke="#191970" d="M1349.6951,-116.1917C1190.1257,-105.1325 845.3233,-81.2353 696.388,-70.913"/>
<polygon fill="#191970" stroke="#191970" points="696.2265,-67.3935 686.0084,-70.1937 695.7425,-74.3768 696.2265,-67.3935"/>
</g>
<!-- Node39&#45;&gt;Node8 -->
<g id="edge100" class="edge">
<title>Node39&#45;&gt;Node8</title>
<path fill="none" stroke="#191970" d="M1816.2741,-459.1836C1813.8929,-444.522 1807.2138,-417.1206 1789.5,-403 1755.2798,-375.7212 1626.8026,-363.4645 1565.0505,-359.057"/>
<polygon fill="#191970" stroke="#191970" points="1565.2505,-355.5626 1555.0343,-358.3695 1564.7711,-362.5461 1565.2505,-355.5626"/>
</g>
<!-- Node39&#45;&gt;Node33 -->
<g id="edge92" class="edge">
<title>Node39&#45;&gt;Node33</title>
<path fill="none" stroke="#191970" d="M1750.8422,-467.3504C1545.1792,-462.0528 929.111,-444.5536 841.5,-423 821.0331,-417.9648 818.5922,-409.3678 798.5,-403 742.5336,-385.2627 677.357,-373.6552 626.9065,-366.5373"/>
<polygon fill="#191970" stroke="#191970" points="627.0812,-363.0284 616.6968,-365.1296 626.125,-369.9627 627.0812,-363.0284"/>
</g>
<!-- Node40 -->
<g id="node41" class="node">
<title>Node40</title>
<g id="a_node41"><a xlink:href="IJoint_8h.html" target="_top" xlink:title="iDynTree/Model/IJoint.h">
<polygon fill="none" stroke="#000000" points="1988.5,-403.5 1988.5,-422.5 2116.5,-422.5 2116.5,-403.5 1988.5,-403.5"/>
<text text-anchor="middle" x="2052.5" y="-410.5" font-family="FreeSans.ttf" font-size="10.00" fill="#000000">iDynTree/Model/IJoint.h</text>
</a>
</g>
</g>
<!-- Node39&#45;&gt;Node40 -->
<g id="edge83" class="edge">
<title>Node39&#45;&gt;Node40</title>
<path fill="none" stroke="#191970" d="M1857.6309,-459.4369C1897.7649,-449.8731 1959.5775,-435.1432 2002.7933,-424.845"/>
<polygon fill="#191970" stroke="#191970" points="2003.6183,-428.2465 2012.5346,-422.5237 2001.9956,-421.4372 2003.6183,-428.2465"/>
</g>
<!-- Node39&#45;&gt;Node41 -->
<g id="edge93" class="edge">
<title>Node39&#45;&gt;Node41</title>
<path fill="none" stroke="#191970" d="M1835.916,-459.4509C1873.9349,-439.7375 1961.2817,-394.4465 2006.0095,-371.2543"/>
<polygon fill="#191970" stroke="#191970" points="2007.8641,-374.2353 2015.1306,-366.5249 2004.6419,-368.021 2007.8641,-374.2353"/>
</g>
<!-- Node42 -->
<g id="node43" class="node">
<title>Node42</title>
<g id="a_node43"><a xlink:href="Link_8h.html" target="_top" xlink:title="iDynTree/Model/Link.h">
<polygon fill="none" stroke="#000000" points="2172.5,-403.5 2172.5,-422.5 2296.5,-422.5 2296.5,-403.5 2172.5,-403.5"/>
<text text-anchor="middle" x="2234.5" y="-410.5" font-family="FreeSans.ttf" font-size="10.00" fill="#000000">iDynTree/Model/Link.h</text>
</a>
</g>
</g>
<!-- Node39&#45;&gt;Node42 -->
<g id="edge86" class="edge">
<title>Node39&#45;&gt;Node42</title>
<path fill="none" stroke="#191970" d="M1884.036,-460.0647C1959.9574,-449.869 2083.7043,-433.2507 2162.0209,-422.7334"/>
<polygon fill="#191970" stroke="#191970" points="2162.8413,-426.1547 2172.2865,-421.3548 2161.9096,-419.217 2162.8413,-426.1547"/>
</g>
<!-- Node63 -->
<g id="node47" class="node">
<title>Node63</title>
<g id="a_node47"><a xlink:href="SolidShapes_8h.html" target="_top" xlink:title="iDynTree/Model/SolidShapes.h">
<polygon fill="none" stroke="#000000" points="1617,-403.5 1617,-422.5 1780,-422.5 1780,-403.5 1617,-403.5"/>
<text text-anchor="middle" x="1698.5" y="-410.5" font-family="FreeSans.ttf" font-size="10.00" fill="#000000">iDynTree/Model/SolidShapes.h</text>
</a>
</g>
</g>
<!-- Node39&#45;&gt;Node63 -->
<g id="edge94" class="edge">
<title>Node39&#45;&gt;Node63</title>
<path fill="none" stroke="#191970" d="M1797.0432,-459.3733C1778.0262,-450.4241 1749.4825,-436.9917 1728.0024,-426.8835"/>
<polygon fill="#191970" stroke="#191970" points="1729.2284,-423.5923 1718.6899,-422.5011 1726.2478,-429.926 1729.2284,-423.5923"/>
</g>
<!-- Node64 -->
<g id="node48" class="node">
<title>Node64</title>
<polygon fill="none" stroke="#bfbfbf" points="1845,-347.5 1845,-366.5 1894,-366.5 1894,-347.5 1845,-347.5"/>
<text text-anchor="middle" x="1869.5" y="-354.5" font-family="FreeSans.ttf" font-size="10.00" fill="#000000">cstdlib</text>
</g>
<!-- Node39&#45;&gt;Node64 -->
<g id="edge99" class="edge">
<title>Node39&#45;&gt;Node64</title>
<path fill="none" stroke="#191970" d="M1829.8916,-459.4891C1839.9087,-451.058 1853.4619,-437.8108 1860.5,-423 1867.3248,-408.6381 1869.4147,-390.6639 1869.8871,-377.101"/>
<polygon fill="#191970" stroke="#191970" points="1873.3884,-376.9508 1869.9719,-366.9219 1866.3886,-376.8924 1873.3884,-376.9508"/>
</g>
<!-- Node40&#45;&gt;Node41 -->
<g id="edge84" class="edge">
<title>Node40&#45;&gt;Node41</title>
<path fill="none" stroke="#191970" d="M2049.1905,-403.2455C2046.6567,-395.7776 2043.0823,-385.2427 2039.985,-376.1137"/>
<polygon fill="#191970" stroke="#191970" points="2043.2991,-374.9879 2036.7716,-366.6427 2036.6702,-377.237 2043.2991,-374.9879"/>
</g>
<!-- Node41&#45;&gt;Node3 -->
<g id="edge85" class="edge">
<title>Node41&#45;&gt;Node3</title>
<path fill="none" stroke="#191970" d="M2017.7453,-347.1932C2005.7946,-338.9536 1989.8743,-326.1177 1980.5,-311 1961.8668,-280.9505 1960.5,-269.3578 1960.5,-234 1960.5,-234 1960.5,-234 1960.5,-178 1960.5,-146.7875 1961.5302,-130.647 1936.5,-112 1905.8575,-89.1721 1328.2517,-71.0856 1183.9548,-66.9108"/>
<polygon fill="#191970" stroke="#191970" points="1183.673,-63.4013 1173.5767,-66.613 1183.4722,-70.3985 1183.673,-63.4013"/>
</g>
<!-- Node42&#45;&gt;Node41 -->
<g id="edge91" class="edge">
<title>Node42&#45;&gt;Node41</title>
<path fill="none" stroke="#191970" d="M2199.9469,-403.3733C2166.0896,-393.9404 2114.354,-379.5265 2077.5574,-369.2747"/>
<polygon fill="#191970" stroke="#191970" points="2078.1747,-365.8135 2067.6022,-366.5011 2076.296,-372.5566 2078.1747,-365.8135"/>
</g>
<!-- Node43 -->
<g id="node44" class="node">
<title>Node43</title>
<g id="a_node44"><a xlink:href="SpatialInertia_8h.html" target="_top" xlink:title="iDynTree/Core/SpatialInertia.h">
<polygon fill="none" stroke="#ff0000" points="2120.5,-347.5 2120.5,-366.5 2282.5,-366.5 2282.5,-347.5 2120.5,-347.5"/>
<text text-anchor="middle" x="2201.5" y="-354.5" font-family="FreeSans.ttf" font-size="10.00" fill="#000000">iDynTree/Core/SpatialInertia.h</text>
</a>
</g>
</g>
<!-- Node42&#45;&gt;Node43 -->
<g id="edge87" class="edge">
<title>Node42&#45;&gt;Node43</title>
<path fill="none" stroke="#191970" d="M2228.7518,-403.2455C2224.2565,-395.617 2217.8752,-384.7881 2212.4175,-375.5267"/>
<polygon fill="#191970" stroke="#191970" points="2215.2747,-373.4811 2207.1823,-366.6427 2209.2439,-377.035 2215.2747,-373.4811"/>
</g>
<!-- Node43&#45;&gt;Node11 -->
<g id="edge89" class="edge">
<title>Node43&#45;&gt;Node11</title>
<path fill="none" stroke="#191970" d="M2120.0927,-347.6427C2117.1943,-347.4089 2114.3232,-347.1933 2111.5,-347 1805.6675,-326.055 1036.0497,-353.7758 732.5,-311 516.9854,-280.63 462.2864,-264.4199 258.5,-188 239.8894,-181.021 236.8632,-175.6063 218.5,-168 187.1222,-155.0029 150.6277,-142.9666 123.0519,-134.4685"/>
<polygon fill="#191970" stroke="#191970" points="123.9079,-131.0705 113.3219,-131.5025 121.8667,-137.7663 123.9079,-131.0705"/>
</g>
<!-- Node44 -->
<g id="node45" class="node">
<title>Node44</title>
<g id="a_node45"><a xlink:href="SpatialInertiaRaw_8h.html" target="_top" xlink:title="iDynTree/Core/SpatialInertia\lRaw.h">
<polygon fill="none" stroke="#ff0000" points="1989,-280.5 1989,-310.5 2142,-310.5 2142,-280.5 1989,-280.5"/>
<text text-anchor="start" x="1997" y="-298.5" font-family="FreeSans.ttf" font-size="10.00" fill="#000000">iDynTree/Core/SpatialInertia</text>
<text text-anchor="middle" x="2065.5" y="-287.5" font-family="FreeSans.ttf" font-size="10.00" fill="#000000">Raw.h</text>
</a>
</g>
</g>
<!-- Node43&#45;&gt;Node44 -->
<g id="edge88" class="edge">
<title>Node43&#45;&gt;Node44</title>
<path fill="none" stroke="#191970" d="M2180.25,-347.3906C2160.9919,-338.682 2132.0378,-325.5888 2108.0329,-314.7336"/>
<polygon fill="#191970" stroke="#191970" points="2109.3232,-311.4759 2098.7693,-310.5446 2106.4389,-317.8541 2109.3232,-311.4759"/>
</g>
<!-- Node46 -->
<g id="node46" class="node">
<title>Node46</title>
<g id="a_node46"><a xlink:href="Twist_8h.html" target="_top" xlink:title="iDynTree/Core/Twist.h">
<polygon fill="none" stroke="#ff0000" points="2160.5,-286 2160.5,-305 2282.5,-305 2282.5,-286 2160.5,-286"/>
<text text-anchor="middle" x="2221.5" y="-293" font-family="FreeSans.ttf" font-size="10.00" fill="#000000">iDynTree/Core/Twist.h</text>
</a>
</g>
</g>
<!-- Node43&#45;&gt;Node46 -->
<g id="edge90" class="edge">
<title>Node43&#45;&gt;Node46</title>
<path fill="none" stroke="#191970" d="M2204.625,-347.3906C2207.4265,-338.776 2211.6233,-325.8708 2215.1306,-315.0858"/>
<polygon fill="#191970" stroke="#191970" points="2218.5667,-315.8371 2218.3309,-305.2449 2211.9098,-313.6722 2218.5667,-315.8371"/>
</g>
<!-- Node63&#45;&gt;Node3 -->
<g id="edge96" class="edge">
<title>Node63&#45;&gt;Node3</title>
<path fill="none" stroke="#191970" d="M1704.5176,-403.3606C1716.131,-383.807 1740.5,-337.7435 1740.5,-295.5 1740.5,-295.5 1740.5,-295.5 1740.5,-178 1740.5,-91.9567 1642.2733,-131.6341 1558.5,-112 1421.8071,-79.963 1253.872,-69.9811 1184.1918,-67.0907"/>
<polygon fill="#191970" stroke="#191970" points="1184.0016,-63.5807 1173.872,-66.6855 1183.7269,-70.5753 1184.0016,-63.5807"/>
</g>
<!-- Node63&#45;&gt;Node8 -->
<g id="edge97" class="edge">
<title>Node63&#45;&gt;Node8</title>
<path fill="none" stroke="#191970" d="M1669.7917,-403.3733C1640.718,-393.624 1595.7771,-378.554 1565.0716,-368.2575"/>
<polygon fill="#191970" stroke="#191970" points="1565.8415,-364.8242 1555.2476,-364.9633 1563.616,-371.461 1565.8415,-364.8242"/>
</g>
<!-- Node63&#45;&gt;Node33 -->
<g id="edge98" class="edge">
<title>Node63&#45;&gt;Node33</title>
<path fill="none" stroke="#191970" d="M1616.9291,-410.4493C1442.0784,-404.7453 1018.2353,-389.6551 663.5,-367 651.683,-366.2453 639.2208,-365.3351 626.9774,-364.375"/>
<polygon fill="#191970" stroke="#191970" points="627.0102,-360.8666 616.7633,-363.5592 626.4528,-367.8443 627.0102,-360.8666"/>
</g>
<!-- Node63&#45;&gt;Node64 -->
<g id="edge95" class="edge">
<title>Node63&#45;&gt;Node64</title>
<path fill="none" stroke="#191970" d="M1727.8959,-403.3733C1757.7093,-393.6098 1803.8171,-378.5102 1835.2613,-368.2127"/>
<polygon fill="#191970" stroke="#191970" points="1836.5019,-371.4894 1844.916,-365.0509 1834.3233,-364.837 1836.5019,-371.4894"/>
</g>
<!-- Node65&#45;&gt;Node2 -->
<g id="edge111" class="edge">
<title>Node65&#45;&gt;Node2</title>
<path fill="none" stroke="#191970" d="M1236.2907,-521.7926C1178.4457,-516.8229 1086.5883,-504.978 1065.5,-479 1040.53,-448.2402 1067.9004,-400.507 1086.4064,-374.8164"/>
<polygon fill="#191970" stroke="#191970" points="1089.2839,-376.813 1092.4822,-366.7125 1083.6832,-372.6139 1089.2839,-376.813"/>
</g>
<!-- Node65&#45;&gt;Node3 -->
<g id="edge112" class="edge">
<title>Node65&#45;&gt;Node3</title>
<path fill="none" stroke="#191970" d="M1288.2825,-515.327C1297.8942,-489.8466 1322.5,-418.6012 1322.5,-357 1322.5,-357 1322.5,-357 1322.5,-178 1322.5,-112.2333 1232.8907,-82.9921 1183.4084,-71.8586"/>
<polygon fill="#191970" stroke="#191970" points="1184.0147,-68.4094 1173.5052,-69.7511 1182.5576,-75.256 1184.0147,-68.4094"/>
</g>
<!-- Node65&#45;&gt;Node5 -->
<g id="edge107" class="edge">
<title>Node65&#45;&gt;Node5</title>
<path fill="none" stroke="#191970" d="M1276.4856,-515.4509C1260.6688,-496.6054 1225.2337,-454.3849 1205.1387,-430.4419"/>
<polygon fill="#191970" stroke="#191970" points="1207.6038,-427.9346 1198.4941,-422.5249 1202.2419,-432.4347 1207.6038,-427.9346"/>
</g>
<!-- Node65&#45;&gt;Node7 -->
<g id="edge113" class="edge">
<title>Node65&#45;&gt;Node7</title>
<path fill="none" stroke="#191970" d="M1236.2041,-518.7497C1153.2352,-506.9539 979.2662,-477.5586 841.5,-423 805.724,-408.8319 767.0784,-386.6372 743.0836,-371.9559"/>
<polygon fill="#191970" stroke="#191970" points="744.688,-368.8327 734.3436,-366.5428 741.0023,-374.7837 744.688,-368.8327"/>
</g>
<!-- Node65&#45;&gt;Node8 -->
<g id="edge114" class="edge">
<title>Node65&#45;&gt;Node8</title>
<path fill="none" stroke="#191970" d="M1298.0927,-515.3623C1327.5082,-494.5534 1399.3522,-443.9872 1460.5,-403 1476.2124,-392.468 1494.0851,-380.8907 1507.9677,-371.9854"/>
<polygon fill="#191970" stroke="#191970" points="1509.9147,-374.8949 1516.4516,-366.5571 1506.1419,-368.9985 1509.9147,-374.8949"/>
</g>
<!-- Node65&#45;&gt;Node33 -->
<g id="edge109" class="edge">
<title>Node65&#45;&gt;Node33</title>
<path fill="none" stroke="#191970" d="M1236.2176,-523.9466C1070.3401,-520.0954 532.5687,-505.5967 507.5,-479 480.0107,-449.8352 509.5896,-400.7078 529.1381,-374.5791"/>
<polygon fill="#191970" stroke="#191970" points="531.9173,-376.7068 535.2862,-366.6618 526.3884,-372.4135 531.9173,-376.7068"/>
</g>
<!-- Node65&#45;&gt;Node35 -->
<g id="edge108" class="edge">
<title>Node65&#45;&gt;Node35</title>
<path fill="none" stroke="#191970" d="M1257.5107,-515.3733C1231.6301,-506.1419 1192.3752,-492.1402 1163.7711,-481.9375"/>
<polygon fill="#191970" stroke="#191970" points="1164.7317,-478.5642 1154.1371,-478.5011 1162.38,-485.1573 1164.7317,-478.5642"/>
</g>
<!-- Node65&#45;&gt;Node63 -->
<g id="edge110" class="edge">
<title>Node65&#45;&gt;Node63</title>
<path fill="none" stroke="#191970" d="M1319.7974,-515.4509C1394.8819,-495.1382 1570.3471,-447.6694 1653.3965,-425.2019"/>
<polygon fill="#191970" stroke="#191970" points="1654.553,-428.5149 1663.2919,-422.5249 1652.7249,-421.7578 1654.553,-428.5149"/>
</g>
<!-- Node66&#45;&gt;Node2 -->
<g id="edge118" class="edge">
<title>Node66&#45;&gt;Node2</title>
<path fill="none" stroke="#191970" d="M1611.6237,-571.3197C1560.7563,-542.4532 1403.9025,-455.7114 1265.5,-403 1242.5218,-394.2486 1180.3813,-377.6092 1139.2608,-366.9241"/>
<polygon fill="#191970" stroke="#191970" points="1140.1099,-363.5286 1129.5518,-364.4103 1138.3553,-370.3052 1140.1099,-363.5286"/>
</g>
<!-- Node66&#45;&gt;Node3 -->
<g id="edge119" class="edge">
<title>Node66&#45;&gt;Node3</title>
<path fill="none" stroke="#191970" d="M1636.582,-571.3113C1654.5825,-549.9744 1699.7626,-497.7465 1742.5,-459 1761.9936,-441.3267 1775.4581,-445.2524 1789.5,-423 1820.4113,-374.0143 1816.5,-353.4233 1816.5,-295.5 1816.5,-295.5 1816.5,-295.5 1816.5,-178 1816.5,-99.4301 1728.8721,-130.4536 1652.5,-112 1562.7895,-90.3235 1279.7848,-73.0882 1183.7476,-67.7331"/>
<polygon fill="#191970" stroke="#191970" points="1183.9331,-64.2381 1173.7553,-67.1814 1183.5471,-71.2275 1183.9331,-64.2381"/>
</g>
<!-- Node66&#45;&gt;Node8 -->
<g id="edge120" class="edge">
<title>Node66&#45;&gt;Node8</title>
<path fill="none" stroke="#191970" d="M1624.332,-571.375C1609.5632,-537.2697 1559.5503,-421.7761 1539.7089,-375.9567"/>
<polygon fill="#191970" stroke="#191970" points="1542.8381,-374.3749 1535.6524,-366.5891 1536.4145,-377.1565 1542.8381,-374.3749"/>
</g>
<!-- Node66&#45;&gt;Node37 -->
<g id="edge117" class="edge">
<title>Node66&#45;&gt;Node37</title>
<path fill="none" stroke="#191970" d="M1666.3193,-571.3733C1703.6938,-561.8598 1760.9724,-547.2797 1801.3071,-537.0127"/>
<polygon fill="#191970" stroke="#191970" points="1802.3466,-540.3598 1811.1742,-534.5011 1800.6198,-533.5761 1802.3466,-540.3598"/>
</g>
<!-- Node66&#45;&gt;Node39 -->
<g id="edge116" class="edge">
<title>Node66&#45;&gt;Node39</title>
<path fill="none" stroke="#191970" d="M1642.4448,-571.4186C1661.8632,-558.2058 1698.2951,-533.884 1730.5,-515 1749.7753,-503.6975 1772.0619,-491.9379 1789.2526,-483.138"/>
<polygon fill="#191970" stroke="#191970" points="1790.8993,-486.2273 1798.2272,-478.5754 1787.7269,-479.9874 1790.8993,-486.2273"/>
</g>
</g>
</svg>
