<?xml version="1.0" encoding="UTF-8" standalone="no"?>
<!DOCTYPE svg PUBLIC "-//W3C//DTD SVG 1.1//EN"
 "http://www.w3.org/Graphics/SVG/1.1/DTD/svg11.dtd">
<!-- Generated by graphviz version 2.40.1 (20161225.0304)
 -->
<!-- Title: urdf_sensor_import.hpp Pages: 1 -->
<svg width="492pt" height="84pt"
 viewBox="0.00 0.00 491.50 84.00" xmlns="http://www.w3.org/2000/svg" xmlns:xlink="http://www.w3.org/1999/xlink">
<g id="graph0" class="graph" transform="scale(1 1) rotate(0) translate(4 80)">
<title>urdf_sensor_import.hpp</title>
<!-- Node5 -->
<g id="node1" class="node">
<title>Node5</title>
<polygon fill="#bfbfbf" stroke="#000000" points="150.5,-56.5 150.5,-75.5 282.5,-75.5 282.5,-56.5 150.5,-56.5"/>
<text text-anchor="middle" x="216.5" y="-63.5" font-family="FreeSans.ttf" font-size="10.00" fill="#000000">urdf_sensor_import.hpp</text>
</g>
<!-- Node6 -->
<g id="node2" class="node">
<title>Node6</title>
<g id="a_node2"><a xlink:href="urdf__sensor__import_8cpp.html" target="_top" xlink:title="urdf_sensor_import.cpp">
<polygon fill="none" stroke="#000000" points="0,-.5 0,-19.5 131,-19.5 131,-.5 0,-.5"/>
<text text-anchor="middle" x="65.5" y="-7.5" font-family="FreeSans.ttf" font-size="10.00" fill="#000000">urdf_sensor_import.cpp</text>
</a>
</g>
</g>
<!-- Node5&#45;&gt;Node6 -->
<g id="edge1" class="edge">
<title>Node5&#45;&gt;Node6</title>
<path fill="none" stroke="#191970" d="M180.877,-52.7888C153.3062,-42.5639 115.7851,-28.6488 91.1191,-19.5011"/>
<polygon fill="#191970" stroke="#191970" points="179.9491,-56.1776 190.5422,-56.3733 182.3832,-49.6144 179.9491,-56.1776"/>
</g>
<!-- Node7 -->
<g id="node3" class="node">
<title>Node7</title>
<g id="a_node3"><a xlink:href="URDFSensorsImport_8cpp.html" target="_top" xlink:title="URDFSensorsImport.cpp">
<polygon fill="none" stroke="#000000" points="149.5,-.5 149.5,-19.5 283.5,-19.5 283.5,-.5 149.5,-.5"/>
<text text-anchor="middle" x="216.5" y="-7.5" font-family="FreeSans.ttf" font-size="10.00" fill="#000000">URDFSensorsImport.cpp</text>
</a>
</g>
</g>
<!-- Node5&#45;&gt;Node7 -->
<g id="edge2" class="edge">
<title>Node5&#45;&gt;Node7</title>
<path fill="none" stroke="#191970" d="M216.5,-46.1575C216.5,-37.155 216.5,-26.9199 216.5,-19.6427"/>
<polygon fill="#191970" stroke="#191970" points="213.0001,-46.2455 216.5,-56.2455 220.0001,-46.2456 213.0001,-46.2455"/>
</g>
<!-- Node8 -->
<g id="node4" class="node">
<title>Node8</title>
<g id="a_node4"><a xlink:href="DynamicsRegressorGenerator_8cpp.html" target="_top" xlink:title="DynamicsRegressorGenerator.cpp">
<polygon fill="none" stroke="#000000" points="301.5,-.5 301.5,-19.5 483.5,-19.5 483.5,-.5 301.5,-.5"/>
<text text-anchor="middle" x="392.5" y="-7.5" font-family="FreeSans.ttf" font-size="10.00" fill="#000000">DynamicsRegressorGenerator.cpp</text>
</a>
</g>
</g>
<!-- Node5&#45;&gt;Node8 -->
<g id="edge3" class="edge">
<title>Node5&#45;&gt;Node8</title>
<path fill="none" stroke="#191970" d="M256.3404,-53.3235C288.6173,-43.0536 333.3852,-28.8093 362.6393,-19.5011"/>
<polygon fill="#191970" stroke="#191970" points="255.2235,-50.0059 246.7555,-56.3733 257.346,-56.6764 255.2235,-50.0059"/>
</g>
</g>
</svg>
