<?xml version="1.0" encoding="UTF-8" standalone="no"?>
<!DOCTYPE svg PUBLIC "-//W3C//DTD SVG 1.1//EN"
 "http://www.w3.org/Graphics/SVG/1.1/DTD/svg11.dtd">
<!-- Generated by graphviz version 2.40.1 (20161225.0304)
 -->
<!-- Title: URDFDocument.cpp Pages: 1 -->
<svg width="3123pt" height="654pt"
 viewBox="0.00 0.00 3123.00 654.00" xmlns="http://www.w3.org/2000/svg" xmlns:xlink="http://www.w3.org/1999/xlink">
<g id="graph0" class="graph" transform="scale(1 1) rotate(0) translate(4 650)">
<title>URDFDocument.cpp</title>
<!-- Node0 -->
<g id="node1" class="node">
<title>Node0</title>
<polygon fill="#bfbfbf" stroke="#000000" points="1770,-626.5 1770,-645.5 1884,-645.5 1884,-626.5 1770,-626.5"/>
<text text-anchor="middle" x="1827" y="-633.5" font-family="FreeSans.ttf" font-size="10.00" fill="#000000">URDFDocument.cpp</text>
</g>
<!-- Node1 -->
<g id="node2" class="node">
<title>Node1</title>
<g id="a_node2"><a xlink:href="URDFDocument_8h.html" target="_top" xlink:title="URDFDocument.h">
<polygon fill="none" stroke="#000000" points="753.5,-570.5 753.5,-589.5 856.5,-589.5 856.5,-570.5 753.5,-570.5"/>
<text text-anchor="middle" x="805" y="-577.5" font-family="FreeSans.ttf" font-size="10.00" fill="#000000">URDFDocument.h</text>
</a>
</g>
</g>
<!-- Node0&#45;&gt;Node1 -->
<g id="edge1" class="edge">
<title>Node0&#45;&gt;Node1</title>
<path fill="none" stroke="#191970" d="M1769.8629,-632.8692C1592.15,-623.1315 1050.0895,-593.4296 866.5245,-583.3712"/>
<polygon fill="#191970" stroke="#191970" points="866.6792,-579.8745 856.5027,-582.8221 866.2962,-586.864 866.6792,-579.8745"/>
</g>
<!-- Node68 -->
<g id="node33" class="node">
<title>Node68</title>
<g id="a_node33"><a xlink:href="RobotElement_8h.html" target="_top" xlink:title="RobotElement.h">
<polygon fill="none" stroke="#000000" points="454,-509 454,-528 548,-528 548,-509 454,-509"/>
<text text-anchor="middle" x="501" y="-516" font-family="FreeSans.ttf" font-size="10.00" fill="#000000">RobotElement.h</text>
</a>
</g>
</g>
<!-- Node0&#45;&gt;Node68 -->
<g id="edge93" class="edge">
<title>Node0&#45;&gt;Node68</title>
<path fill="none" stroke="#191970" d="M1769.6723,-635.3945C1575.7026,-633.0591 944.9934,-623.049 745,-590 668.7198,-577.3947 582.6026,-548.5691 535.8151,-531.6187"/>
<polygon fill="#191970" stroke="#191970" points="536.7644,-528.2392 526.1706,-528.0904 534.3594,-534.8131 536.7644,-528.2392"/>
</g>
<!-- Node69 -->
<g id="node34" class="node">
<title>Node69</title>
<g id="a_node34"><a xlink:href="PrismaticJoint_8h.html" target="_top" xlink:title="iDynTree/Model/Prismatic\lJoint.h">
<polygon fill="none" stroke="#000000" points="2231,-380.5 2231,-410.5 2371,-410.5 2371,-380.5 2231,-380.5"/>
<text text-anchor="start" x="2239" y="-398.5" font-family="FreeSans.ttf" font-size="10.00" fill="#000000">iDynTree/Model/Prismatic</text>
<text text-anchor="middle" x="2301" y="-387.5" font-family="FreeSans.ttf" font-size="10.00" fill="#000000">Joint.h</text>
</a>
</g>
</g>
<!-- Node0&#45;&gt;Node69 -->
<g id="edge100" class="edge">
<title>Node0&#45;&gt;Node69</title>
<path fill="none" stroke="#191970" d="M1830.4643,-626.1286C1835.9253,-611.8937 1847.8211,-585.603 1866,-570 1970.4055,-480.3888 2126.6658,-433.0264 2220.7319,-411.1961"/>
<polygon fill="#191970" stroke="#191970" points="2221.7888,-414.545 2230.7612,-408.9106 2220.2335,-407.72 2221.7888,-414.545"/>
</g>
<!-- Node71 -->
<g id="node41" class="node">
<title>Node71</title>
<g id="a_node41"><a xlink:href="RevoluteJoint_8h.html" target="_top" xlink:title="iDynTree/Model/RevoluteJoint.h">
<polygon fill="none" stroke="#000000" points="2032,-386 2032,-405 2200,-405 2200,-386 2032,-386"/>
<text text-anchor="middle" x="2116" y="-393" font-family="FreeSans.ttf" font-size="10.00" fill="#000000">iDynTree/Model/RevoluteJoint.h</text>
</a>
</g>
</g>
<!-- Node0&#45;&gt;Node71 -->
<g id="edge119" class="edge">
<title>Node0&#45;&gt;Node71</title>
<path fill="none" stroke="#191970" d="M1823.5233,-626.2861C1813.248,-595.6683 1786.4838,-500.0697 1832,-447 1856.3414,-418.6191 1948.8104,-405.8262 2021.7078,-400.092"/>
<polygon fill="#191970" stroke="#191970" points="2022.1456,-403.5691 2031.8549,-399.3289 2021.6206,-396.5888 2022.1456,-403.5691"/>
</g>
<!-- Node72 -->
<g id="node42" class="node">
<title>Node72</title>
<g id="a_node42"><a xlink:href="ModelTransformers_8h.html" target="_top" xlink:title="Collection of function to modify model in various ways. ">
<polygon fill="none" stroke="#000000" points="1874.5,-570.5 1874.5,-589.5 2071.5,-589.5 2071.5,-570.5 1874.5,-570.5"/>
<text text-anchor="middle" x="1973" y="-577.5" font-family="FreeSans.ttf" font-size="10.00" fill="#000000">iDynTree/Model/ModelTransformers.h</text>
</a>
</g>
</g>
<!-- Node0&#45;&gt;Node72 -->
<g id="edge125" class="edge">
<title>Node0&#45;&gt;Node72</title>
<path fill="none" stroke="#191970" d="M1852.0983,-626.3733C1875.9555,-617.2226 1912.0335,-603.3844 1938.571,-593.2057"/>
<polygon fill="#191970" stroke="#191970" points="1940.1459,-596.3503 1948.2292,-589.5011 1937.639,-589.8145 1940.1459,-596.3503"/>
</g>
<!-- Node73 -->
<g id="node43" class="node">
<title>Node73</title>
<g id="a_node43"><a xlink:href="SixAxisForceTorqueSensor_8h.html" target="_top" xlink:title="iDynTree/Sensors/SixAxis\lForceTorqueSensor.h">
<polygon fill="none" stroke="#000000" points="1640,-503.5 1640,-533.5 1780,-533.5 1780,-503.5 1640,-503.5"/>
<text text-anchor="start" x="1648" y="-521.5" font-family="FreeSans.ttf" font-size="10.00" fill="#000000">iDynTree/Sensors/SixAxis</text>
<text text-anchor="middle" x="1710" y="-510.5" font-family="FreeSans.ttf" font-size="10.00" fill="#000000">ForceTorqueSensor.h</text>
</a>
</g>
</g>
<!-- Node0&#45;&gt;Node73 -->
<g id="edge126" class="edge">
<title>Node0&#45;&gt;Node73</title>
<path fill="none" stroke="#191970" d="M1817.4254,-626.3845C1798.9471,-607.8272 1757.9307,-566.6355 1732.265,-540.8601"/>
<polygon fill="#191970" stroke="#191970" points="1734.6857,-538.3309 1725.1496,-533.7143 1729.7254,-543.2701 1734.6857,-538.3309"/>
</g>
<!-- Node17 -->
<g id="node49" class="node">
<title>Node17</title>
<polygon fill="none" stroke="#bfbfbf" points="2090,-570.5 2090,-589.5 2154,-589.5 2154,-570.5 2090,-570.5"/>
<text text-anchor="middle" x="2122" y="-577.5" font-family="FreeSans.ttf" font-size="10.00" fill="#000000">algorithm</text>
</g>
<!-- Node0&#45;&gt;Node17 -->
<g id="edge141" class="edge">
<title>Node0&#45;&gt;Node17</title>
<path fill="none" stroke="#191970" d="M1884.1883,-626.6528C1933.5766,-618.3511 2007.0622,-605.4534 2079.9948,-590.1234"/>
<polygon fill="#191970" stroke="#191970" points="2080.7551,-593.5401 2089.8129,-588.044 2079.3046,-586.692 2080.7551,-593.5401"/>
</g>
<!-- Node76 -->
<g id="node50" class="node">
<title>Node76</title>
<polygon fill="none" stroke="#bfbfbf" points="2172,-570.5 2172,-589.5 2258,-589.5 2258,-570.5 2172,-570.5"/>
<text text-anchor="middle" x="2215" y="-577.5" font-family="FreeSans.ttf" font-size="10.00" fill="#000000">unordered_set</text>
</g>
<!-- Node0&#45;&gt;Node76 -->
<g id="edge142" class="edge">
<title>Node0&#45;&gt;Node76</title>
<path fill="none" stroke="#191970" d="M1884.2141,-629.1213C1949.1019,-621.1062 2058.3058,-606.9722 2161.8961,-590.1135"/>
<polygon fill="#191970" stroke="#191970" points="2162.5996,-593.545 2171.9018,-588.4736 2161.4673,-586.6372 2162.5996,-593.545"/>
</g>
<!-- Node2 -->
<g id="node3" class="node">
<title>Node2</title>
<g id="a_node3"><a xlink:href="XMLDocument_8h.html" target="_top" xlink:title="iDynTree/XMLDocument.h">
<polygon fill="none" stroke="#000000" points="256,-319 256,-338 398,-338 398,-319 256,-319"/>
<text text-anchor="middle" x="327" y="-326" font-family="FreeSans.ttf" font-size="10.00" fill="#000000">iDynTree/XMLDocument.h</text>
</a>
</g>
</g>
<!-- Node1&#45;&gt;Node2 -->
<g id="edge2" class="edge">
<title>Node1&#45;&gt;Node2</title>
<path fill="none" stroke="#191970" d="M753.3963,-579.068C660.6463,-576.5625 470.1889,-567.3873 414,-534 356.436,-499.7956 347.2868,-474.8122 327,-411 320.4501,-390.3974 321.6239,-365.4101 323.6905,-348.3706"/>
<polygon fill="#191970" stroke="#191970" points="327.1587,-348.8407 325.1052,-338.4468 320.2288,-347.8527 327.1587,-348.8407"/>
</g>
<!-- Node4 -->
<g id="node5" class="node">
<title>Node4</title>
<polygon fill="none" stroke="#bfbfbf" points="1586,-.5 1586,-19.5 1630,-19.5 1630,-.5 1586,-.5"/>
<text text-anchor="middle" x="1608" y="-7.5" font-family="FreeSans.ttf" font-size="10.00" fill="#000000">string</text>
</g>
<!-- Node1&#45;&gt;Node4 -->
<g id="edge90" class="edge">
<title>Node1&#45;&gt;Node4</title>
<path fill="none" stroke="#191970" d="M753.0376,-579.5558C615.772,-577.891 246.0904,-570.0883 130,-534 65.8747,-514.0658 0,-524.1523 0,-457 0,-457 0,-457 0,-127.5 0,-10.6515 137.5465,-74.0022 253,-56 387.384,-35.046 1383.6295,-14.4322 1575.9258,-10.6248"/>
<polygon fill="#191970" stroke="#191970" points="1576.0298,-14.1235 1585.9588,-10.427 1575.8918,-7.1249 1576.0298,-14.1235"/>
</g>
<!-- Node5 -->
<g id="node6" class="node">
<title>Node5</title>
<g id="a_node6"><a xlink:href="JointElement_8h.html" target="_top" xlink:title="JointElement.h">
<polygon fill="none" stroke="#000000" points="336,-386 336,-405 424,-405 424,-386 336,-386"/>
<text text-anchor="middle" x="380" y="-393" font-family="FreeSans.ttf" font-size="10.00" fill="#000000">JointElement.h</text>
</a>
</g>
</g>
<!-- Node1&#45;&gt;Node5 -->
<g id="edge5" class="edge">
<title>Node1&#45;&gt;Node5</title>
<path fill="none" stroke="#191970" d="M753.3336,-576.1513C659.723,-568.7784 469.4461,-551.8069 445,-534 405.4188,-505.1685 389.1363,-446.0341 383.1229,-415.195"/>
<polygon fill="#191970" stroke="#191970" points="386.5461,-414.4539 381.3479,-405.222 379.6544,-415.6806 386.5461,-414.4539"/>
</g>
<!-- Node8 -->
<g id="node9" class="node">
<title>Node8</title>
<polygon fill="none" stroke="#bfbfbf" points="86.5,-252 86.5,-271 179.5,-271 179.5,-252 86.5,-252"/>
<text text-anchor="middle" x="133" y="-259" font-family="FreeSans.ttf" font-size="10.00" fill="#000000">unordered_map</text>
</g>
<!-- Node1&#45;&gt;Node8 -->
<g id="edge92" class="edge">
<title>Node1&#45;&gt;Node8</title>
<path fill="none" stroke="#191970" d="M753.484,-577.194C581.5131,-567.1494 38,-529.6564 38,-457 38,-457 38,-457 38,-395.5 38,-345.1048 83.2698,-300.4317 111.3093,-277.5952"/>
<polygon fill="#191970" stroke="#191970" points="113.7017,-280.166 119.3888,-271.2269 109.3685,-274.6684 113.7017,-280.166"/>
</g>
<!-- Node9 -->
<g id="node10" class="node">
<title>Node9</title>
<polygon fill="none" stroke="#bfbfbf" points="1408.5,-252 1408.5,-271 1455.5,-271 1455.5,-252 1408.5,-252"/>
<text text-anchor="middle" x="1432" y="-259" font-family="FreeSans.ttf" font-size="10.00" fill="#000000">vector</text>
</g>
<!-- Node1&#45;&gt;Node9 -->
<g id="edge91" class="edge">
<title>Node1&#45;&gt;Node9</title>
<path fill="none" stroke="#191970" d="M856.7003,-578.2798C1014.5864,-572.8081 1481.2718,-554.9295 1506,-534 1581.1693,-470.3781 1579.3281,-393.0728 1522,-313 1508.1938,-293.7162 1484.7626,-280.6412 1465.2691,-272.4916"/>
<polygon fill="#191970" stroke="#191970" points="1466.379,-269.1674 1455.7914,-268.7765 1463.8244,-275.6846 1466.379,-269.1674"/>
</g>
<!-- Node36 -->
<g id="node20" class="node">
<title>Node36</title>
<g id="a_node20"><a xlink:href="MaterialElement_8h.html" target="_top" xlink:title="MaterialElement.h">
<polygon fill="none" stroke="#000000" points="480,-386 480,-405 586,-405 586,-386 480,-386"/>
<text text-anchor="middle" x="533" y="-393" font-family="FreeSans.ttf" font-size="10.00" fill="#000000">MaterialElement.h</text>
</a>
</g>
</g>
<!-- Node1&#45;&gt;Node36 -->
<g id="edge39" class="edge">
<title>Node1&#45;&gt;Node36</title>
<path fill="none" stroke="#191970" d="M782.3731,-570.381C743.0395,-553.0608 660.4782,-514.0177 600,-467 579.5671,-451.1148 559.7569,-428.8575 547.0459,-413.4125"/>
<polygon fill="#191970" stroke="#191970" points="549.4317,-410.7951 540.4313,-405.2056 543.9816,-415.1879 549.4317,-410.7951"/>
</g>
<!-- Node37 -->
<g id="node21" class="node">
<title>Node37</title>
<g id="a_node21"><a xlink:href="SensorElement_8h.html" target="_top" xlink:title="SensorElement.h">
<polygon fill="none" stroke="#000000" points="812.5,-509 812.5,-528 911.5,-528 911.5,-509 812.5,-509"/>
<text text-anchor="middle" x="862" y="-516" font-family="FreeSans.ttf" font-size="10.00" fill="#000000">SensorElement.h</text>
</a>
</g>
</g>
<!-- Node1&#45;&gt;Node37 -->
<g id="edge44" class="edge">
<title>Node1&#45;&gt;Node37</title>
<path fill="none" stroke="#191970" d="M813.9063,-570.3906C822.4728,-561.1478 835.6169,-546.966 846.0003,-535.7628"/>
<polygon fill="#191970" stroke="#191970" points="848.7375,-537.9584 852.9682,-528.2449 843.6035,-533.2 848.7375,-537.9584"/>
</g>
<!-- Node38 -->
<g id="node22" class="node">
<title>Node38</title>
<g id="a_node22"><a xlink:href="Sensors_8h.html" target="_top" xlink:title="iDynTree/Sensors/Sensors.h">
<polygon fill="none" stroke="#000000" points="1261.5,-447.5 1261.5,-466.5 1412.5,-466.5 1412.5,-447.5 1261.5,-447.5"/>
<text text-anchor="middle" x="1337" y="-454.5" font-family="FreeSans.ttf" font-size="10.00" fill="#000000">iDynTree/Sensors/Sensors.h</text>
</a>
</g>
</g>
<!-- Node1&#45;&gt;Node38 -->
<g id="edge89" class="edge">
<title>Node1&#45;&gt;Node38</title>
<path fill="none" stroke="#191970" d="M846.3025,-570.4507C942.3441,-548.2456 1180.4928,-493.1849 1285.6693,-468.8678"/>
<polygon fill="#191970" stroke="#191970" points="1286.7693,-472.2059 1295.7238,-466.5432 1285.1924,-465.3858 1286.7693,-472.2059"/>
</g>
<!-- Node40 -->
<g id="node25" class="node">
<title>Node40</title>
<g id="a_node25"><a xlink:href="Model_8h.html" target="_top" xlink:title="iDynTree/Model/Model.h">
<polygon fill="none" stroke="#000000" points="1374.5,-386 1374.5,-405 1507.5,-405 1507.5,-386 1374.5,-386"/>
<text text-anchor="middle" x="1441" y="-393" font-family="FreeSans.ttf" font-size="10.00" fill="#000000">iDynTree/Model/Model.h</text>
</a>
</g>
</g>
<!-- Node1&#45;&gt;Node40 -->
<g id="edge88" class="edge">
<title>Node1&#45;&gt;Node40</title>
<path fill="none" stroke="#191970" d="M856.5366,-578.4235C1011.6052,-573.4322 1464.5566,-556.9407 1486,-534 1518.0742,-499.6862 1479.896,-442.2347 1456.539,-413.2993"/>
<polygon fill="#191970" stroke="#191970" points="1458.9533,-410.7296 1449.8602,-405.2921 1453.5778,-415.2133 1458.9533,-410.7296"/>
</g>
<!-- Node66 -->
<g id="node31" class="node">
<title>Node66</title>
<g id="a_node31"><a xlink:href="VisualElement_8h.html" target="_top" xlink:title="VisualElement.h">
<polygon fill="none" stroke="#000000" points="661,-447.5 661,-466.5 757,-466.5 757,-447.5 661,-447.5"/>
<text text-anchor="middle" x="709" y="-454.5" font-family="FreeSans.ttf" font-size="10.00" fill="#000000">VisualElement.h</text>
</a>
</g>
</g>
<!-- Node1&#45;&gt;Node66 -->
<g id="edge73" class="edge">
<title>Node1&#45;&gt;Node66</title>
<path fill="none" stroke="#191970" d="M797.467,-570.3484C781.3439,-549.6906 743.2917,-500.9362 722.7399,-474.6042"/>
<polygon fill="#191970" stroke="#191970" points="725.4098,-472.3365 716.498,-466.6068 719.8916,-476.6434 725.4098,-472.3365"/>
</g>
<!-- Node67 -->
<g id="node32" class="node">
<title>Node67</title>
<g id="a_node32"><a xlink:href="ModelLoader_8h.html" target="_top" xlink:title="iDynTree/ModelIO/ModelLoader.h">
<polygon fill="none" stroke="#000000" points="1301,-509 1301,-528 1477,-528 1477,-509 1301,-509"/>
<text text-anchor="middle" x="1389" y="-516" font-family="FreeSans.ttf" font-size="10.00" fill="#000000">iDynTree/ModelIO/ModelLoader.h</text>
</a>
</g>
</g>
<!-- Node1&#45;&gt;Node67 -->
<g id="edge82" class="edge">
<title>Node1&#45;&gt;Node67</title>
<path fill="none" stroke="#191970" d="M856.5699,-574.5693C953.7971,-564.3304 1165.658,-542.0198 1290.8381,-528.8373"/>
<polygon fill="#191970" stroke="#191970" points="1291.235,-532.3149 1300.8134,-527.7868 1290.5019,-525.3534 1291.235,-532.3149"/>
</g>
<!-- Node3 -->
<g id="node4" class="node">
<title>Node3</title>
<polygon fill="none" stroke="#bfbfbf" points="642,-252 642,-271 700,-271 700,-252 642,-252"/>
<text text-anchor="middle" x="671" y="-259" font-family="FreeSans.ttf" font-size="10.00" fill="#000000">memory</text>
</g>
<!-- Node2&#45;&gt;Node3 -->
<g id="edge3" class="edge">
<title>Node2&#45;&gt;Node3</title>
<path fill="none" stroke="#191970" d="M378.213,-318.9995C389.3445,-316.9797 401.0615,-314.8881 412,-313 510.0667,-296.0728 537.2059,-303.9646 633,-277 635.4605,-276.3074 637.9776,-275.5046 640.4871,-274.6359"/>
<polygon fill="#191970" stroke="#191970" points="641.8695,-277.8553 649.993,-271.0539 639.4012,-271.3049 641.8695,-277.8553"/>
</g>
<!-- Node2&#45;&gt;Node4 -->
<g id="edge4" class="edge">
<title>Node2&#45;&gt;Node4</title>
<path fill="none" stroke="#191970" d="M333.3325,-318.8779C346.7868,-297.4755 377,-243.913 377,-194.5 377,-194.5 377,-194.5 377,-127.5 377,-82.0856 408.3019,-73.9926 450,-56 503.0365,-33.1149 1392.9924,-14.2675 1575.4649,-10.6333"/>
<polygon fill="#191970" stroke="#191970" points="1575.5864,-14.1316 1585.5152,-10.4343 1575.4478,-7.133 1575.5864,-14.1316"/>
</g>
<!-- Node5&#45;&gt;Node3 -->
<g id="edge36" class="edge">
<title>Node5&#45;&gt;Node3</title>
<path fill="none" stroke="#191970" d="M388.948,-385.9676C405.7078,-368.6985 443.7007,-332.248 483,-313 544.5714,-282.8435 567.738,-298.0074 633,-277 635.1491,-276.3082 637.3484,-275.5502 639.5525,-274.753"/>
<polygon fill="#191970" stroke="#191970" points="641.0218,-277.9382 649.1061,-271.0903 638.5159,-271.402 641.0218,-277.9382"/>
</g>
<!-- Node5&#45;&gt;Node4 -->
<g id="edge37" class="edge">
<title>Node5&#45;&gt;Node4</title>
<path fill="none" stroke="#191970" d="M335.8552,-389.2933C306.5409,-382.8684 269.454,-369.9207 247,-344 222.3639,-315.5603 228,-299.1265 228,-261.5 228,-261.5 228,-261.5 228,-127.5 228,-43.4809 320.8799,-73.7623 403,-56 520.4328,-30.5997 1396.2063,-13.7644 1575.8528,-10.5578"/>
<polygon fill="#191970" stroke="#191970" points="1576.0422,-14.0551 1585.9786,-10.3784 1575.9181,-7.0562 1576.0422,-14.0551"/>
</g>
<!-- Node6 -->
<g id="node7" class="node">
<title>Node6</title>
<g id="a_node7"><a xlink:href="XMLElement_8h.html" target="_top" xlink:title="iDynTree/XMLElement.h">
<polygon fill="none" stroke="#000000" points="492,-319 492,-338 624,-338 624,-319 492,-319"/>
<text text-anchor="middle" x="558" y="-326" font-family="FreeSans.ttf" font-size="10.00" fill="#000000">iDynTree/XMLElement.h</text>
</a>
</g>
</g>
<!-- Node5&#45;&gt;Node6 -->
<g id="edge6" class="edge">
<title>Node5&#45;&gt;Node6</title>
<path fill="none" stroke="#191970" d="M405.5031,-385.9005C436.3007,-374.3082 488.265,-354.7486 522.8481,-341.7313"/>
<polygon fill="#191970" stroke="#191970" points="524.4183,-344.8801 532.5442,-338.0817 521.9523,-338.3288 524.4183,-344.8801"/>
</g>
<!-- Node5&#45;&gt;Node8 -->
<g id="edge38" class="edge">
<title>Node5&#45;&gt;Node8</title>
<path fill="none" stroke="#191970" d="M335.9401,-388.0033C300.9819,-380.6499 251.8683,-367.0975 214,-344 185.8925,-326.856 160.5509,-297.8132 145.9696,-279.157"/>
<polygon fill="#191970" stroke="#191970" points="148.7258,-276.9993 139.8832,-271.1633 143.1564,-281.2398 148.7258,-276.9993"/>
</g>
<!-- Node10 -->
<g id="node11" class="node">
<title>Node10</title>
<g id="a_node11"><a xlink:href="Axis_8h.html" target="_top" xlink:title="iDynTree/Core/Axis.h">
<polygon fill="none" stroke="#000000" points="2319,-252 2319,-271 2437,-271 2437,-252 2319,-252"/>
<text text-anchor="middle" x="2378" y="-259" font-family="FreeSans.ttf" font-size="10.00" fill="#000000">iDynTree/Core/Axis.h</text>
</a>
</g>
</g>
<!-- Node5&#45;&gt;Node10 -->
<g id="edge12" class="edge">
<title>Node5&#45;&gt;Node10</title>
<path fill="none" stroke="#191970" d="M424.2721,-386.748C439.0726,-384.1463 455.6955,-381.5733 471,-380 911.1919,-334.7493 1024.3716,-371.9437 1466,-344 1781.2384,-324.0535 2156.4997,-285.3745 2308.7307,-269.0549"/>
<polygon fill="#191970" stroke="#191970" points="2309.2986,-272.5141 2318.8675,-267.9659 2308.5508,-265.5542 2309.2986,-272.5141"/>
</g>
<!-- Node34 -->
<g id="node17" class="node">
<title>Node34</title>
<g id="a_node17"><a xlink:href="Transform_8h.html" target="_top" xlink:title="iDynTree/Core/Transform.h">
<polygon fill="none" stroke="#000000" points="1970,-252 1970,-271 2116,-271 2116,-252 1970,-252"/>
<text text-anchor="middle" x="2043" y="-259" font-family="FreeSans.ttf" font-size="10.00" fill="#000000">iDynTree/Core/Transform.h</text>
</a>
</g>
</g>
<!-- Node5&#45;&gt;Node34 -->
<g id="edge26" class="edge">
<title>Node5&#45;&gt;Node34</title>
<path fill="none" stroke="#191970" d="M424.279,-386.8133C439.0799,-384.2159 455.7014,-381.629 471,-380 837.2771,-340.9987 931.7422,-372.314 1299,-344 1540.6019,-325.3736 1824.9526,-290.1141 1961.6095,-272.3325"/>
<polygon fill="#191970" stroke="#191970" points="1962.1252,-275.7949 1971.5885,-271.0309 1961.2198,-268.8537 1962.1252,-275.7949"/>
</g>
<!-- Node6&#45;&gt;Node3 -->
<g id="edge8" class="edge">
<title>Node6&#45;&gt;Node3</title>
<path fill="none" stroke="#191970" d="M574.1901,-318.9005C592.9863,-307.7559 624.2016,-289.2477 646.0924,-276.2682"/>
<polygon fill="#191970" stroke="#191970" points="648.0233,-279.1924 654.8399,-271.0817 644.4531,-273.1712 648.0233,-279.1924"/>
</g>
<!-- Node6&#45;&gt;Node4 -->
<g id="edge9" class="edge">
<title>Node6&#45;&gt;Node4</title>
<path fill="none" stroke="#191970" d="M554.5667,-318.8925C547.0898,-297.0827 530,-242.0327 530,-194.5 530,-194.5 530,-194.5 530,-127.5 530,-23.8422 650.0662,-74.8264 752,-56 914.6185,-25.9657 1439.9696,-13.4116 1575.7356,-10.6222"/>
<polygon fill="#191970" stroke="#191970" points="1575.9665,-14.1184 1585.8937,-10.4169 1575.825,-7.1198 1575.9665,-14.1184"/>
</g>
<!-- Node7 -->
<g id="node8" class="node">
<title>Node7</title>
<polygon fill="none" stroke="#bfbfbf" points="558.5,-252 558.5,-271 623.5,-271 623.5,-252 558.5,-252"/>
<text text-anchor="middle" x="591" y="-259" font-family="FreeSans.ttf" font-size="10.00" fill="#000000">functional</text>
</g>
<!-- Node6&#45;&gt;Node7 -->
<g id="edge7" class="edge">
<title>Node6&#45;&gt;Node7</title>
<path fill="none" stroke="#191970" d="M562.7281,-318.9005C567.6781,-308.8505 575.5776,-292.8122 581.7697,-280.2403"/>
<polygon fill="#191970" stroke="#191970" points="585.0019,-281.5991 586.2807,-271.0817 578.7223,-278.5061 585.0019,-281.5991"/>
</g>
<!-- Node6&#45;&gt;Node8 -->
<g id="edge10" class="edge">
<title>Node6&#45;&gt;Node8</title>
<path fill="none" stroke="#191970" d="M497.5592,-318.9717C415.475,-306.0314 269.8229,-283.0697 189.7156,-270.441"/>
<polygon fill="#191970" stroke="#191970" points="190.2299,-266.979 179.8068,-268.879 189.1398,-273.8936 190.2299,-266.979"/>
</g>
<!-- Node6&#45;&gt;Node9 -->
<g id="edge11" class="edge">
<title>Node6&#45;&gt;Node9</title>
<path fill="none" stroke="#191970" d="M624.2351,-326.0142C791.9284,-319.4487 1230.1471,-300.5226 1374,-277 1382.0281,-275.6873 1390.552,-273.7343 1398.5232,-271.6535"/>
<polygon fill="#191970" stroke="#191970" points="1399.5269,-275.0075 1408.2456,-268.988 1397.676,-268.2567 1399.5269,-275.0075"/>
</g>
<!-- Node10&#45;&gt;Node4 -->
<g id="edge13" class="edge">
<title>Node10&#45;&gt;Node4</title>
<path fill="none" stroke="#191970" d="M2334.8383,-251.9633C2325.0463,-249.9035 2314.6799,-247.8044 2305,-246 2205.8743,-227.5228 2178.1115,-237.1417 2081,-210 1920.8436,-165.2379 1893.3472,-120.3301 1740,-56 1706.464,-41.9314 1666.9588,-28.5712 1639.9643,-19.9107"/>
<polygon fill="#191970" stroke="#191970" points="1640.8599,-16.5229 1630.2695,-16.8299 1638.7399,-23.1941 1640.8599,-16.5229"/>
</g>
<!-- Node11 -->
<g id="node12" class="node">
<title>Node11</title>
<g id="a_node12"><a xlink:href="Direction_8h.html" target="_top" xlink:title="iDynTree/Core/Direction.h">
<polygon fill="none" stroke="#000000" points="2366.5,-118 2366.5,-137 2507.5,-137 2507.5,-118 2366.5,-118"/>
<text text-anchor="middle" x="2437" y="-125" font-family="FreeSans.ttf" font-size="10.00" fill="#000000">iDynTree/Core/Direction.h</text>
</a>
</g>
</g>
<!-- Node10&#45;&gt;Node11 -->
<g id="edge14" class="edge">
<title>Node10&#45;&gt;Node11</title>
<path fill="none" stroke="#191970" d="M2382.2431,-251.8631C2391.9384,-229.8432 2415.8614,-175.5098 2428.639,-146.4894"/>
<polygon fill="#191970" stroke="#191970" points="2431.9688,-147.6122 2432.7953,-137.0496 2425.5623,-144.7914 2431.9688,-147.6122"/>
</g>
<!-- Node13 -->
<g id="node14" class="node">
<title>Node13</title>
<g id="a_node14"><a xlink:href="Utils_8h.html" target="_top" xlink:title="iDynTree/Core/Utils.h">
<polygon fill="none" stroke="#ff0000" points="2486.5,-.5 2486.5,-19.5 2605.5,-19.5 2605.5,-.5 2486.5,-.5"/>
<text text-anchor="middle" x="2546" y="-7.5" font-family="FreeSans.ttf" font-size="10.00" fill="#000000">iDynTree/Core/Utils.h</text>
</a>
</g>
</g>
<!-- Node10&#45;&gt;Node13 -->
<g id="edge25" class="edge">
<title>Node10&#45;&gt;Node13</title>
<path fill="none" stroke="#191970" d="M2393.3684,-251.8801C2421.3391,-233.6951 2480.9911,-191.7019 2517,-143 2536.2906,-116.9095 2539.4188,-107.7731 2546,-76 2549.1636,-60.7265 2548.9628,-43.0348 2548.0811,-29.8151"/>
<polygon fill="#191970" stroke="#191970" points="2551.5401,-29.1866 2547.1983,-19.5222 2544.5657,-29.7847 2551.5401,-29.1866"/>
</g>
<!-- Node26 -->
<g id="node15" class="node">
<title>Node26</title>
<g id="a_node15"><a xlink:href="Position_8h.html" target="_top" xlink:title="iDynTree/Core/Position.h">
<polygon fill="none" stroke="#ff0000" points="2090,-185 2090,-204 2226,-204 2226,-185 2090,-185"/>
<text text-anchor="middle" x="2158" y="-192" font-family="FreeSans.ttf" font-size="10.00" fill="#000000">iDynTree/Core/Position.h</text>
</a>
</g>
</g>
<!-- Node10&#45;&gt;Node26 -->
<g id="edge20" class="edge">
<title>Node10&#45;&gt;Node26</title>
<path fill="none" stroke="#191970" d="M2346.4794,-251.9005C2307.7614,-240.1091 2241.9764,-220.0746 2199.2641,-207.0668"/>
<polygon fill="#191970" stroke="#191970" points="2200.0481,-203.6469 2189.4622,-204.0817 2198.0087,-210.3433 2200.0481,-203.6469"/>
</g>
<!-- Node11&#45;&gt;Node4 -->
<g id="edge15" class="edge">
<title>Node11&#45;&gt;Node4</title>
<path fill="none" stroke="#191970" d="M2422.3083,-117.9492C2396.6693,-101.8478 2341.56,-69.7175 2290,-56 2165.0271,-22.7511 1758.5325,-12.7744 1640.4446,-10.5431"/>
<polygon fill="#191970" stroke="#191970" points="1640.308,-7.0401 1630.2455,-10.3563 1640.1797,-14.0389 1640.308,-7.0401"/>
</g>
<!-- Node12 -->
<g id="node13" class="node">
<title>Node12</title>
<g id="a_node13"><a xlink:href="VectorFixSize_8h.html" target="_top" xlink:title="iDynTree/Core/VectorFixSize.h">
<polygon fill="none" stroke="#ff0000" points="2356.5,-56.5 2356.5,-75.5 2517.5,-75.5 2517.5,-56.5 2356.5,-56.5"/>
<text text-anchor="middle" x="2437" y="-63.5" font-family="FreeSans.ttf" font-size="10.00" fill="#000000">iDynTree/Core/VectorFixSize.h</text>
</a>
</g>
</g>
<!-- Node11&#45;&gt;Node12 -->
<g id="edge16" class="edge">
<title>Node11&#45;&gt;Node12</title>
<path fill="none" stroke="#191970" d="M2437,-117.8906C2437,-109.3657 2437,-96.6392 2437,-85.9235"/>
<polygon fill="#191970" stroke="#191970" points="2440.5001,-85.7448 2437,-75.7449 2433.5001,-85.7449 2440.5001,-85.7448"/>
</g>
<!-- Node11&#45;&gt;Node13 -->
<g id="edge19" class="edge">
<title>Node11&#45;&gt;Node13</title>
<path fill="none" stroke="#191970" d="M2465.2544,-117.9187C2485.2481,-109.7519 2511.2124,-96.1055 2527,-76 2537.4591,-62.6803 2542.1611,-43.8247 2544.2746,-29.6759"/>
<polygon fill="#191970" stroke="#191970" points="2547.7753,-29.8758 2545.4753,-19.5337 2540.8239,-29.0528 2547.7753,-29.8758"/>
</g>
<!-- Node12&#45;&gt;Node4 -->
<g id="edge18" class="edge">
<title>Node12&#45;&gt;Node4</title>
<path fill="none" stroke="#191970" d="M2356.4289,-57.2808C2351.5486,-56.8265 2346.7099,-56.3953 2342,-56 2071.0398,-33.2586 1742.9409,-16.5201 1640.2841,-11.5349"/>
<polygon fill="#191970" stroke="#191970" points="1640.402,-8.0366 1630.2448,-11.05 1640.0643,-15.0284 1640.402,-8.0366"/>
</g>
<!-- Node12&#45;&gt;Node13 -->
<g id="edge17" class="edge">
<title>Node12&#45;&gt;Node13</title>
<path fill="none" stroke="#191970" d="M2455.9864,-56.2455C2473.1792,-47.4125 2498.7238,-34.2887 2518.2132,-24.2758"/>
<polygon fill="#191970" stroke="#191970" points="2519.9359,-27.3257 2527.2312,-19.6427 2516.737,-21.0993 2519.9359,-27.3257"/>
</g>
<!-- Node26&#45;&gt;Node4 -->
<g id="edge24" class="edge">
<title>Node26&#45;&gt;Node4</title>
<path fill="none" stroke="#191970" d="M2127.4414,-184.8881C2069.2033,-166.2361 1938.7006,-122.8303 1833,-76 1815.5506,-68.2691 1812.8427,-62.7739 1795,-56 1742.2878,-35.988 1677.8725,-22.3796 1640.0491,-15.4226"/>
<polygon fill="#191970" stroke="#191970" points="1640.5795,-11.962 1630.118,-13.637 1639.3407,-18.8515 1640.5795,-11.962"/>
</g>
<!-- Node29 -->
<g id="node16" class="node">
<title>Node29</title>
<g id="a_node16"><a xlink:href="Rotation_8h.html" target="_top" xlink:title="iDynTree/Core/Rotation.h">
<polygon fill="none" stroke="#ff0000" points="2052.5,-118 2052.5,-137 2189.5,-137 2189.5,-118 2052.5,-118"/>
<text text-anchor="middle" x="2121" y="-125" font-family="FreeSans.ttf" font-size="10.00" fill="#000000">iDynTree/Core/Rotation.h</text>
</a>
</g>
</g>
<!-- Node26&#45;&gt;Node29 -->
<g id="edge21" class="edge">
<title>Node26&#45;&gt;Node29</title>
<path fill="none" stroke="#191970" d="M2152.6988,-184.9005C2147.0938,-174.751 2138.1161,-158.4941 2131.1435,-145.8679"/>
<polygon fill="#191970" stroke="#191970" points="2134.1895,-144.1435 2126.2914,-137.0817 2128.0618,-147.5275 2134.1895,-144.1435"/>
</g>
<!-- Node29&#45;&gt;Node4 -->
<g id="edge22" class="edge">
<title>Node29&#45;&gt;Node4</title>
<path fill="none" stroke="#191970" d="M2057.3154,-117.984C2007.4859,-109.6042 1936.8484,-95.6553 1877,-76 1856.5915,-69.2975 1853.4297,-62.6377 1833,-56 1766.091,-34.2609 1684.5241,-20.6359 1640.2929,-14.2674"/>
<polygon fill="#191970" stroke="#191970" points="1640.5327,-10.7667 1630.1426,-12.8396 1639.5576,-17.6985 1640.5327,-10.7667"/>
</g>
<!-- Node29&#45;&gt;Node12 -->
<g id="edge23" class="edge">
<title>Node29&#45;&gt;Node12</title>
<path fill="none" stroke="#191970" d="M2168.8424,-117.9517C2178.8072,-115.9745 2189.245,-113.912 2199,-112 2259.7256,-100.098 2329.211,-86.6926 2377.3593,-77.4375"/>
<polygon fill="#191970" stroke="#191970" points="2378.1391,-80.8517 2387.299,-75.5275 2376.8181,-73.9775 2378.1391,-80.8517"/>
</g>
<!-- Node34&#45;&gt;Node4 -->
<g id="edge35" class="edge">
<title>Node34&#45;&gt;Node4</title>
<path fill="none" stroke="#191970" d="M1998.4095,-251.9439C1939.3674,-237.3345 1834.8233,-204.444 1767,-143 1734.272,-113.3503 1751.9152,-85.4416 1719,-56 1696.5528,-35.9217 1664.1202,-23.8597 1640.1045,-17.1582"/>
<polygon fill="#191970" stroke="#191970" points="1640.942,-13.7595 1630.381,-14.6066 1639.1651,-20.5303 1640.942,-13.7595"/>
</g>
<!-- Node34&#45;&gt;Node26 -->
<g id="edge27" class="edge">
<title>Node34&#45;&gt;Node26</title>
<path fill="none" stroke="#191970" d="M2059.4767,-251.9005C2078.6055,-240.7559 2110.3733,-222.2477 2132.6516,-209.2682"/>
<polygon fill="#191970" stroke="#191970" points="2134.6753,-212.1399 2141.5539,-204.0817 2131.1514,-206.0916 2134.6753,-212.1399"/>
</g>
<!-- Node34&#45;&gt;Node29 -->
<g id="edge28" class="edge">
<title>Node34&#45;&gt;Node29</title>
<path fill="none" stroke="#191970" d="M2046.5535,-251.9907C2052.6107,-236.2593 2065.7692,-204.0663 2081,-179 2088.275,-167.0271 2097.8635,-154.5954 2105.8288,-144.9461"/>
<polygon fill="#191970" stroke="#191970" points="2108.5371,-147.1638 2112.3119,-137.2643 2103.1875,-142.6491 2108.5371,-147.1638"/>
</g>
<!-- Node35 -->
<g id="node18" class="node">
<title>Node35</title>
<g id="a_node18"><a xlink:href="TransformSemantics_8h.html" target="_top" xlink:title="iDynTree/Core/TransformSemantics.h">
<polygon fill="none" stroke="#000000" points="1885.5,-56.5 1885.5,-75.5 2082.5,-75.5 2082.5,-56.5 1885.5,-56.5"/>
<text text-anchor="middle" x="1984" y="-63.5" font-family="FreeSans.ttf" font-size="10.00" fill="#000000">iDynTree/Core/TransformSemantics.h</text>
</a>
</g>
</g>
<!-- Node34&#45;&gt;Node35 -->
<g id="edge29" class="edge">
<title>Node34&#45;&gt;Node35</title>
<path fill="none" stroke="#191970" d="M2035.179,-251.8768C2027.5491,-241.978 2016.2113,-225.8145 2010,-210 1993.4302,-167.8116 1987.3278,-114.4837 1985.1509,-86.0358"/>
<polygon fill="#191970" stroke="#191970" points="1988.6248,-85.5293 1984.4576,-75.7885 1981.6407,-86.002 1988.6248,-85.5293"/>
</g>
<!-- Node31 -->
<g id="node19" class="node">
<title>Node31</title>
<g id="a_node19"><a xlink:href="MatrixFixSize_8h.html" target="_top" xlink:title="iDynTree/Core/MatrixFixSize.h">
<polygon fill="none" stroke="#ff0000" points="2100.5,-56.5 2100.5,-75.5 2261.5,-75.5 2261.5,-56.5 2100.5,-56.5"/>
<text text-anchor="middle" x="2181" y="-63.5" font-family="FreeSans.ttf" font-size="10.00" fill="#000000">iDynTree/Core/MatrixFixSize.h</text>
</a>
</g>
</g>
<!-- Node34&#45;&gt;Node31 -->
<g id="edge32" class="edge">
<title>Node34&#45;&gt;Node31</title>
<path fill="none" stroke="#191970" d="M2039.6323,-251.9481C2031.2825,-226.4049 2012.4868,-155.5154 2044,-112 2053.9022,-98.3264 2091.2541,-86.3167 2124.4588,-78.0003"/>
<polygon fill="#191970" stroke="#191970" points="2125.7031,-81.3 2134.5956,-75.5402 2124.0522,-74.4975 2125.7031,-81.3"/>
</g>
<!-- Node35&#45;&gt;Node4 -->
<g id="edge30" class="edge">
<title>Node35&#45;&gt;Node4</title>
<path fill="none" stroke="#191970" d="M1919.7905,-56.4369C1838.6957,-44.3589 1702.2818,-24.042 1640.3398,-14.8166"/>
<polygon fill="#191970" stroke="#191970" points="1640.7689,-11.342 1630.3624,-13.3306 1639.7377,-18.2656 1640.7689,-11.342"/>
</g>
<!-- Node35&#45;&gt;Node13 -->
<g id="edge31" class="edge">
<title>Node35&#45;&gt;Node13</title>
<path fill="none" stroke="#191970" d="M2079.654,-56.4686C2192.1932,-45.2548 2376.3273,-26.9069 2476.2296,-16.9522"/>
<polygon fill="#191970" stroke="#191970" points="2476.6146,-20.4313 2486.2183,-15.9569 2475.9205,-13.4658 2476.6146,-20.4313"/>
</g>
<!-- Node31&#45;&gt;Node4 -->
<g id="edge34" class="edge">
<title>Node31&#45;&gt;Node4</title>
<path fill="none" stroke="#191970" d="M2100.4765,-56.8899C2097.6162,-56.5862 2094.7838,-56.2887 2092,-56 1922.0082,-38.3731 1718.1461,-19.8535 1640.3317,-12.88"/>
<polygon fill="#191970" stroke="#191970" points="1640.477,-9.3791 1630.2049,-11.9739 1639.8532,-16.3512 1640.477,-9.3791"/>
</g>
<!-- Node31&#45;&gt;Node13 -->
<g id="edge33" class="edge">
<title>Node31&#45;&gt;Node13</title>
<path fill="none" stroke="#191970" d="M2243.331,-56.4369C2308.0162,-46.5126 2408.9585,-31.0255 2476.2592,-20.7"/>
<polygon fill="#191970" stroke="#191970" points="2476.9948,-24.1281 2486.3483,-19.152 2475.9332,-17.2091 2476.9948,-24.1281"/>
</g>
<!-- Node36&#45;&gt;Node3 -->
<g id="edge42" class="edge">
<title>Node36&#45;&gt;Node3</title>
<path fill="none" stroke="#191970" d="M563.4236,-385.8762C585.1566,-377.6883 613.8274,-364.0341 633,-344 650.1453,-326.0844 660.5654,-299.0491 666.053,-280.8582"/>
<polygon fill="#191970" stroke="#191970" points="669.4677,-281.6433 668.7883,-271.0703 662.7259,-279.7593 669.4677,-281.6433"/>
</g>
<!-- Node36&#45;&gt;Node4 -->
<g id="edge43" class="edge">
<title>Node36&#45;&gt;Node4</title>
<path fill="none" stroke="#191970" d="M520.3269,-385.8805C508.8281,-376.4633 492.2943,-361.0744 483,-344 465.0108,-310.9524 464,-299.1265 464,-261.5 464,-261.5 464,-261.5 464,-127.5 464,-78.811 501.7341,-73.9337 547,-56 644.5974,-17.3332 1408.2911,-11.0583 1575.6551,-10.1443"/>
<polygon fill="#191970" stroke="#191970" points="1575.8216,-13.6436 1585.8033,-10.0915 1575.7852,-6.6436 1575.8216,-13.6436"/>
</g>
<!-- Node36&#45;&gt;Node6 -->
<g id="edge40" class="edge">
<title>Node36&#45;&gt;Node6</title>
<path fill="none" stroke="#191970" d="M536.5819,-385.9005C540.2948,-375.95 546.198,-360.1292 550.8676,-347.6147"/>
<polygon fill="#191970" stroke="#191970" points="554.2079,-348.6743 554.4248,-338.0817 547.6496,-346.2271 554.2079,-348.6743"/>
</g>
<!-- Node36&#45;&gt;Node12 -->
<g id="edge41" class="edge">
<title>Node36&#45;&gt;Node12</title>
<path fill="none" stroke="#191970" d="M586.3441,-394.197C862.0223,-387.419 2115.6037,-356.0435 2197,-344 2310.3687,-327.2259 2356.4001,-348.4541 2446,-277 2508.4168,-227.2238 2556.9782,-181.1034 2517,-112 2508.4293,-97.1854 2493.0807,-86.7247 2478.1035,-79.5639"/>
<polygon fill="#191970" stroke="#191970" points="2479.4537,-76.3342 2468.89,-75.5223 2476.6417,-82.7446 2479.4537,-76.3342"/>
</g>
<!-- Node37&#45;&gt;Node3 -->
<g id="edge69" class="edge">
<title>Node37&#45;&gt;Node3</title>
<path fill="none" stroke="#191970" d="M854.7458,-508.7391C826.2637,-470.4151 721.8249,-329.8874 684.4302,-279.571"/>
<polygon fill="#191970" stroke="#191970" points="687.0356,-277.209 678.2614,-271.2706 681.4173,-281.3845 687.0356,-277.209"/>
</g>
<!-- Node37&#45;&gt;Node4 -->
<g id="edge70" class="edge">
<title>Node37&#45;&gt;Node4</title>
<path fill="none" stroke="#191970" d="M860.2251,-508.6486C855.3304,-480.5928 842,-397.8219 842,-328.5 842,-328.5 842,-328.5 842,-127.5 842,-99.8154 756.4119,-114.6722 998,-56 1109.3636,-28.9542 1466.4813,-14.8173 1575.8567,-11.0453"/>
<polygon fill="#191970" stroke="#191970" points="1576.0654,-14.5404 1585.9409,-10.7029 1575.8278,-7.5444 1576.0654,-14.5404"/>
</g>
<!-- Node37&#45;&gt;Node6 -->
<g id="edge45" class="edge">
<title>Node37&#45;&gt;Node6</title>
<path fill="none" stroke="#191970" d="M812.2997,-510.6348C758.6711,-501.4036 677.5133,-485.0469 652,-467 614.2606,-440.305 621.1587,-418.1132 595,-380 587.2729,-368.7417 578.3481,-356.3036 571.1999,-346.4718"/>
<polygon fill="#191970" stroke="#191970" points="573.9444,-344.2952 565.2201,-338.2838 568.2914,-348.4237 573.9444,-344.2952"/>
</g>
<!-- Node37&#45;&gt;Node8 -->
<g id="edge71" class="edge">
<title>Node37&#45;&gt;Node8</title>
<path fill="none" stroke="#191970" d="M812.3355,-514.0065C680.3592,-501.4696 323.8532,-463.5487 219,-411 180.4992,-391.7048 169.6249,-381.8052 149,-344 138.2815,-324.3531 134.6634,-298.6294 133.485,-281.1659"/>
<polygon fill="#191970" stroke="#191970" points="136.9744,-280.8558 133.0128,-271.0295 129.982,-281.1816 136.9744,-280.8558"/>
</g>
<!-- Node37&#45;&gt;Node9 -->
<g id="edge72" class="edge">
<title>Node37&#45;&gt;Node9</title>
<path fill="none" stroke="#191970" d="M888.1819,-508.9687C951.2571,-486.0784 1116.7195,-426.4584 1256,-380 1306.4029,-363.1876 1326.6362,-374.7033 1370,-344 1393.5502,-327.3255 1412.0077,-298.9787 1422.4593,-280.2458"/>
<polygon fill="#191970" stroke="#191970" points="1425.6675,-281.6687 1427.3019,-271.2007 1419.4963,-278.3648 1425.6675,-281.6687"/>
</g>
<!-- Node37&#45;&gt;Node34 -->
<g id="edge46" class="edge">
<title>Node37&#45;&gt;Node34</title>
<path fill="none" stroke="#191970" d="M911.5246,-517.227C1009.7386,-513.983 1235.7827,-502.9256 1422,-467 1610.0554,-430.7198 1654.0312,-406.7008 1835,-344 1898.4137,-322.0289 1970.9623,-292.1413 2011.4388,-275.0273"/>
<polygon fill="#191970" stroke="#191970" points="2012.9354,-278.1944 2020.7738,-271.0661 2010.201,-271.7505 2012.9354,-278.1944"/>
</g>
<!-- Node37&#45;&gt;Node38 -->
<g id="edge47" class="edge">
<title>Node37&#45;&gt;Node38</title>
<path fill="none" stroke="#191970" d="M911.9355,-512.0347C993.1105,-501.5246 1154.5457,-480.623 1253.4317,-467.8199"/>
<polygon fill="#191970" stroke="#191970" points="1253.9251,-471.2853 1263.3929,-466.5302 1253.0262,-464.3433 1253.9251,-471.2853"/>
</g>
<!-- Node38&#45;&gt;Node4 -->
<g id="edge48" class="edge">
<title>Node38&#45;&gt;Node4</title>
<path fill="none" stroke="#191970" d="M1261.3729,-454.724C1170.0431,-450.7209 1022.9433,-439.8789 977,-411 909.9423,-368.8491 880,-340.705 880,-261.5 880,-261.5 880,-261.5 880,-127.5 880,-55.9889 1434.538,-19.8003 1575.6454,-11.7493"/>
<polygon fill="#191970" stroke="#191970" points="1576.0273,-15.2335 1585.8149,-11.1773 1575.6341,-8.2445 1576.0273,-15.2335"/>
</g>
<!-- Node38&#45;&gt;Node9 -->
<g id="edge49" class="edge">
<title>Node38&#45;&gt;Node9</title>
<path fill="none" stroke="#191970" d="M1339.0123,-447.2618C1342.5346,-431.8865 1350.9174,-401.5257 1366,-380 1380.108,-359.8652 1394.6785,-364.6635 1408,-344 1420.4575,-324.6767 1426.6142,-298.7163 1429.5414,-281.1151"/>
<polygon fill="#191970" stroke="#191970" points="1433.0161,-281.5417 1431.0033,-271.1398 1426.0901,-280.5266 1433.0161,-281.5417"/>
</g>
<!-- Node19 -->
<g id="node23" class="node">
<title>Node19</title>
<polygon fill="none" stroke="#bfbfbf" points="1264.5,-386 1264.5,-405 1317.5,-405 1317.5,-386 1264.5,-386"/>
<text text-anchor="middle" x="1291" y="-393" font-family="FreeSans.ttf" font-size="10.00" fill="#000000">iterator</text>
</g>
<!-- Node38&#45;&gt;Node19 -->
<g id="edge50" class="edge">
<title>Node38&#45;&gt;Node19</title>
<path fill="none" stroke="#191970" d="M1329.8125,-447.3906C1323.0334,-438.3273 1312.7022,-424.5149 1304.4027,-413.4188"/>
<polygon fill="#191970" stroke="#191970" points="1307.0812,-411.1563 1298.2888,-405.2449 1301.4757,-415.349 1307.0812,-411.1563"/>
</g>
<!-- Node39 -->
<g id="node24" class="node">
<title>Node39</title>
<g id="a_node24"><a xlink:href="VectorDynSize_8h.html" target="_top" xlink:title="iDynTree/Core/VectorDynSize.h">
<polygon fill="none" stroke="#ff0000" points="935.5,-185 935.5,-204 1102.5,-204 1102.5,-185 935.5,-185"/>
<text text-anchor="middle" x="1019" y="-192" font-family="FreeSans.ttf" font-size="10.00" fill="#000000">iDynTree/Core/VectorDynSize.h</text>
</a>
</g>
</g>
<!-- Node38&#45;&gt;Node39 -->
<g id="edge51" class="edge">
<title>Node38&#45;&gt;Node39</title>
<path fill="none" stroke="#191970" d="M1261.3434,-451.487C1182.9959,-444.7755 1066.5979,-431.7025 1027,-411 981.1137,-387.0098 952.8381,-363.5618 964,-313 972.3051,-275.3794 993.8037,-235.5115 1007.3308,-212.9418"/>
<polygon fill="#191970" stroke="#191970" points="1010.4961,-214.4755 1012.7438,-204.1218 1004.53,-210.814 1010.4961,-214.4755"/>
</g>
<!-- Node38&#45;&gt;Node40 -->
<g id="edge53" class="edge">
<title>Node38&#45;&gt;Node40</title>
<path fill="none" stroke="#191970" d="M1353.25,-447.3906C1370.1169,-437.4165 1396.7099,-421.6908 1416.2035,-410.1633"/>
<polygon fill="#191970" stroke="#191970" points="1418.038,-413.1447 1424.8641,-405.0419 1414.4749,-407.1194 1418.038,-413.1447"/>
</g>
<!-- Node42 -->
<g id="node27" class="node">
<title>Node42</title>
<g id="a_node27"><a xlink:href="Indices_8h.html" target="_top" xlink:title="iDynTree/Model/Indices.h">
<polygon fill="none" stroke="#000000" points="1539,-185 1539,-204 1677,-204 1677,-185 1539,-185"/>
<text text-anchor="middle" x="1608" y="-192" font-family="FreeSans.ttf" font-size="10.00" fill="#000000">iDynTree/Model/Indices.h</text>
</a>
</g>
</g>
<!-- Node38&#45;&gt;Node42 -->
<g id="edge68" class="edge">
<title>Node38&#45;&gt;Node42</title>
<path fill="none" stroke="#191970" d="M1279.4872,-447.4725C1186.8758,-430.8276 1011.3736,-393.4588 975,-344 966.8372,-332.9007 966.8057,-324.0761 975,-313 1039.8396,-225.3571 1373.2386,-202.4768 1528.3953,-196.5493"/>
<polygon fill="#191970" stroke="#191970" points="1528.9379,-200.0318 1538.8027,-196.167 1528.6809,-193.0366 1528.9379,-200.0318"/>
</g>
<!-- Node39&#45;&gt;Node4 -->
<g id="edge52" class="edge">
<title>Node39&#45;&gt;Node4</title>
<path fill="none" stroke="#191970" d="M1029.3136,-184.6249C1057.389,-158.4138 1138.6135,-86.9792 1221,-56 1285.8526,-31.614 1494.63,-16.8051 1575.5397,-11.8574"/>
<polygon fill="#191970" stroke="#191970" points="1575.8678,-15.3441 1585.6399,-11.2506 1575.4479,-8.3567 1575.8678,-15.3441"/>
</g>
<!-- Node40&#45;&gt;Node9 -->
<g id="edge67" class="edge">
<title>Node40&#45;&gt;Node9</title>
<path fill="none" stroke="#191970" d="M1452.7225,-385.8841C1463.1935,-376.4695 1477.8061,-361.0823 1484,-344 1488.6965,-331.0474 1489.3033,-325.7162 1484,-313 1478.0761,-298.7957 1466.1169,-286.5036 1455.1597,-277.4942"/>
<polygon fill="#191970" stroke="#191970" points="1457.1472,-274.607 1447.0926,-271.2672 1452.87,-280.1482 1457.1472,-274.607"/>
</g>
<!-- Node40&#45;&gt;Node34 -->
<g id="edge59" class="edge">
<title>Node40&#45;&gt;Node34</title>
<path fill="none" stroke="#191970" d="M1490.685,-385.9621C1501.0329,-383.9841 1511.8714,-381.9186 1522,-380 1607.3034,-363.8411 1630.3122,-367.1113 1714,-344 1752.3587,-333.4068 1759.7593,-324.0114 1798,-313 1857.3943,-295.8975 1926.4007,-281.9044 1976.014,-272.8434"/>
<polygon fill="#191970" stroke="#191970" points="1976.7645,-276.2646 1985.9825,-271.0415 1975.5193,-269.3762 1976.7645,-276.2646"/>
</g>
<!-- Node41 -->
<g id="node26" class="node">
<title>Node41</title>
<g id="a_node26"><a xlink:href="IJoint_8h.html" target="_top" xlink:title="iDynTree/Model/IJoint.h">
<polygon fill="none" stroke="#000000" points="1732,-252 1732,-271 1860,-271 1860,-252 1732,-252"/>
<text text-anchor="middle" x="1796" y="-259" font-family="FreeSans.ttf" font-size="10.00" fill="#000000">iDynTree/Model/IJoint.h</text>
</a>
</g>
</g>
<!-- Node40&#45;&gt;Node41 -->
<g id="edge54" class="edge">
<title>Node40&#45;&gt;Node41</title>
<path fill="none" stroke="#191970" d="M1488.5257,-385.9907C1551.6284,-373.2118 1657.1113,-351.2614 1674,-344 1713.7827,-326.8951 1754.3241,-296.3138 1777.2082,-277.5739"/>
<polygon fill="#191970" stroke="#191970" points="1779.6296,-280.1122 1785.0757,-271.0242 1775.151,-274.7324 1779.6296,-280.1122"/>
</g>
<!-- Node40&#45;&gt;Node42 -->
<g id="edge60" class="edge">
<title>Node40&#45;&gt;Node42</title>
<path fill="none" stroke="#191970" d="M1453.2404,-385.9337C1465.4795,-376.0793 1484.5144,-359.9494 1499,-344 1538.7747,-300.206 1577.737,-242.0445 1596.4681,-212.8572"/>
<polygon fill="#191970" stroke="#191970" points="1599.6038,-214.4487 1602.0167,-204.1323 1593.697,-210.6923 1599.6038,-214.4487"/>
</g>
<!-- Node43 -->
<g id="node28" class="node">
<title>Node43</title>
<g id="a_node28"><a xlink:href="Link_8h.html" target="_top" xlink:title="iDynTree/Model/Link.h">
<polygon fill="none" stroke="#ff0000" points="984,-319 984,-338 1108,-338 1108,-319 984,-319"/>
<text text-anchor="middle" x="1046" y="-326" font-family="FreeSans.ttf" font-size="10.00" fill="#000000">iDynTree/Model/Link.h</text>
</a>
</g>
</g>
<!-- Node40&#45;&gt;Node43 -->
<g id="edge57" class="edge">
<title>Node40&#45;&gt;Node43</title>
<path fill="none" stroke="#191970" d="M1374.6285,-385.9869C1309.204,-376.3579 1206.4667,-360.5627 1118,-344 1111.7317,-342.8265 1105.173,-341.5219 1098.6749,-340.1818"/>
<polygon fill="#191970" stroke="#191970" points="1099.0696,-336.6885 1088.564,-338.0606 1097.6323,-343.5394 1099.0696,-336.6885"/>
</g>
<!-- Node64 -->
<g id="node29" class="node">
<title>Node64</title>
<g id="a_node29"><a xlink:href="SolidShapes_8h.html" target="_top" xlink:title="iDynTree/Model/SolidShapes.h">
<polygon fill="none" stroke="#000000" points="1126.5,-319 1126.5,-338 1289.5,-338 1289.5,-319 1126.5,-319"/>
<text text-anchor="middle" x="1208" y="-326" font-family="FreeSans.ttf" font-size="10.00" fill="#000000">iDynTree/Model/SolidShapes.h</text>
</a>
</g>
</g>
<!-- Node40&#45;&gt;Node64 -->
<g id="edge61" class="edge">
<title>Node40&#45;&gt;Node64</title>
<path fill="none" stroke="#191970" d="M1407.6168,-385.9005C1366.4379,-374.0594 1296.3502,-353.9054 1251.1311,-340.9025"/>
<polygon fill="#191970" stroke="#191970" points="1251.8991,-337.4816 1241.3213,-338.0817 1249.9646,-344.209 1251.8991,-337.4816"/>
</g>
<!-- Node65 -->
<g id="node30" class="node">
<title>Node65</title>
<polygon fill="none" stroke="#bfbfbf" points="1315.5,-252 1315.5,-271 1364.5,-271 1364.5,-252 1315.5,-252"/>
<text text-anchor="middle" x="1340" y="-259" font-family="FreeSans.ttf" font-size="10.00" fill="#000000">cstdlib</text>
</g>
<!-- Node40&#45;&gt;Node65 -->
<g id="edge66" class="edge">
<title>Node40&#45;&gt;Node65</title>
<path fill="none" stroke="#191970" d="M1433.7363,-385.8631C1416.9209,-363.5535 1375.1046,-308.0744 1353.4595,-279.3571"/>
<polygon fill="#191970" stroke="#191970" points="1356.0119,-276.9286 1347.1979,-271.0496 1350.422,-281.142 1356.0119,-276.9286"/>
</g>
<!-- Node41&#45;&gt;Node42 -->
<g id="edge55" class="edge">
<title>Node41&#45;&gt;Node42</title>
<path fill="none" stroke="#191970" d="M1769.0642,-251.9005C1736.3967,-240.2584 1681.1812,-220.5805 1644.6575,-207.5641"/>
<polygon fill="#191970" stroke="#191970" points="1645.4805,-204.1418 1634.8858,-204.0817 1643.1306,-210.7356 1645.4805,-204.1418"/>
</g>
<!-- Node42&#45;&gt;Node4 -->
<g id="edge56" class="edge">
<title>Node42&#45;&gt;Node4</title>
<path fill="none" stroke="#191970" d="M1608,-184.8402C1608,-155.8223 1608,-69.0088 1608,-29.7113"/>
<polygon fill="#191970" stroke="#191970" points="1611.5001,-29.5641 1608,-19.5641 1604.5001,-29.5642 1611.5001,-29.5641"/>
</g>
<!-- Node43&#45;&gt;Node42 -->
<g id="edge58" class="edge">
<title>Node43&#45;&gt;Node42</title>
<path fill="none" stroke="#191970" d="M1071.9684,-318.9858C1118.5163,-302.227 1219.4796,-267.2142 1307,-246 1381.431,-227.9586 1467.7059,-213.8796 1528.7574,-205.0359"/>
<polygon fill="#191970" stroke="#191970" points="1529.3111,-208.4924 1538.7127,-203.6078 1528.317,-201.5633 1529.3111,-208.4924"/>
</g>
<!-- Node64&#45;&gt;Node4 -->
<g id="edge63" class="edge">
<title>Node64&#45;&gt;Node4</title>
<path fill="none" stroke="#191970" d="M1211.3107,-318.8825C1218.5205,-297.0521 1235,-241.9629 1235,-194.5 1235,-194.5 1235,-194.5 1235,-127.5 1235,-56.3141 1485.2733,-22.9098 1575.8071,-13.1549"/>
<polygon fill="#191970" stroke="#191970" points="1576.2047,-16.6324 1585.7842,-12.1065 1575.4732,-9.6708 1576.2047,-16.6324"/>
</g>
<!-- Node64&#45;&gt;Node9 -->
<g id="edge64" class="edge">
<title>Node64&#45;&gt;Node9</title>
<path fill="none" stroke="#191970" d="M1240.0937,-318.9005C1282.2036,-306.3052 1355.7586,-284.3043 1398.5373,-271.5089"/>
<polygon fill="#191970" stroke="#191970" points="1399.6228,-274.8375 1408.2004,-268.6186 1397.6168,-268.1311 1399.6228,-274.8375"/>
</g>
<!-- Node64&#45;&gt;Node34 -->
<g id="edge65" class="edge">
<title>Node64&#45;&gt;Node34</title>
<path fill="none" stroke="#191970" d="M1289.6893,-322.4283C1414.5555,-313.0811 1660.3792,-294.4185 1869,-277 1898.6036,-274.5283 1931.0267,-271.6788 1959.7778,-269.1026"/>
<polygon fill="#191970" stroke="#191970" points="1960.1369,-272.5845 1969.7836,-268.2038 1959.5106,-265.6126 1960.1369,-272.5845"/>
</g>
<!-- Node64&#45;&gt;Node65 -->
<g id="edge62" class="edge">
<title>Node64&#45;&gt;Node65</title>
<path fill="none" stroke="#191970" d="M1226.9124,-318.9005C1249.163,-307.6067 1286.3122,-288.7506 1311.9259,-275.7497"/>
<polygon fill="#191970" stroke="#191970" points="1313.7898,-278.7288 1321.1227,-271.0817 1310.6215,-272.4868 1313.7898,-278.7288"/>
</g>
<!-- Node66&#45;&gt;Node3 -->
<g id="edge78" class="edge">
<title>Node66&#45;&gt;Node3</title>
<path fill="none" stroke="#191970" d="M707.1156,-447.3051C701.1894,-416.8163 682.8499,-322.4646 674.8253,-281.1804"/>
<polygon fill="#191970" stroke="#191970" points="678.2396,-280.4018 672.8958,-271.2534 671.3682,-281.7375 678.2396,-280.4018"/>
</g>
<!-- Node66&#45;&gt;Node4 -->
<g id="edge79" class="edge">
<title>Node66&#45;&gt;Node4</title>
<path fill="none" stroke="#191970" d="M714.0584,-447.1225C728.0084,-418.9361 766,-335.3902 766,-261.5 766,-261.5 766,-261.5 766,-127.5 766,-85.4389 790.2677,-74.5852 828,-56 895.8251,-22.5925 1437.0759,-12.4852 1575.7318,-10.4318"/>
<polygon fill="#191970" stroke="#191970" points="1575.785,-13.9315 1585.7334,-10.2875 1575.6839,-6.9323 1575.785,-13.9315"/>
</g>
<!-- Node66&#45;&gt;Node6 -->
<g id="edge74" class="edge">
<title>Node66&#45;&gt;Node6</title>
<path fill="none" stroke="#191970" d="M699.6374,-447.3486C684.9157,-432.3489 655.2211,-402.7977 628,-380 612.7237,-367.2062 594.5788,-353.9061 580.591,-344.0273"/>
<polygon fill="#191970" stroke="#191970" points="582.272,-340.932 572.0712,-338.0693 578.2603,-346.6684 582.272,-340.932"/>
</g>
<!-- Node66&#45;&gt;Node8 -->
<g id="edge80" class="edge">
<title>Node66&#45;&gt;Node8</title>
<path fill="none" stroke="#191970" d="M660.7953,-455.6988C587.4878,-452.7192 444.127,-442.9495 327,-411 255.3824,-391.4644 227.748,-395.2042 174,-344 155.704,-326.57 144.3748,-299.2313 138.3819,-280.8531"/>
<polygon fill="#191970" stroke="#191970" points="141.7091,-279.7642 135.4576,-271.2104 135.0104,-281.7957 141.7091,-279.7642"/>
</g>
<!-- Node66&#45;&gt;Node9 -->
<g id="edge81" class="edge">
<title>Node66&#45;&gt;Node9</title>
<path fill="none" stroke="#191970" d="M742.0989,-447.3967C798.3505,-431.3824 916.3943,-399.1006 1018,-380 1141.7421,-356.7381 1181.8876,-390.2376 1299,-344 1320.9136,-335.3482 1322.1929,-325.757 1342,-313 1362.7501,-299.6357 1387.0881,-285.8149 1405.2196,-275.8597"/>
<polygon fill="#191970" stroke="#191970" points="1406.9777,-278.8876 1414.0836,-271.029 1403.628,-272.7411 1406.9777,-278.8876"/>
</g>
<!-- Node66&#45;&gt;Node34 -->
<g id="edge76" class="edge">
<title>Node66&#45;&gt;Node34</title>
<path fill="none" stroke="#191970" d="M757.2234,-455.5338C907.9972,-450.7479 1369.2232,-434.526 1517,-411 1631.8739,-392.7122 1658.0874,-375.7181 1770,-344 1853.0154,-320.4719 1949.5164,-290.746 2002.6732,-274.1634"/>
<polygon fill="#191970" stroke="#191970" points="2003.8941,-277.4489 2012.3955,-271.1262 2001.8068,-270.7673 2003.8941,-277.4489"/>
</g>
<!-- Node66&#45;&gt;Node36 -->
<g id="edge75" class="edge">
<title>Node66&#45;&gt;Node36</title>
<path fill="none" stroke="#191970" d="M681.5,-447.3906C651.5353,-436.92 603.4317,-420.1111 570.1302,-408.4745"/>
<polygon fill="#191970" stroke="#191970" points="570.9017,-405.0366 560.3069,-405.0419 568.5926,-411.6448 570.9017,-405.0366"/>
</g>
<!-- Node66&#45;&gt;Node64 -->
<g id="edge77" class="edge">
<title>Node66&#45;&gt;Node64</title>
<path fill="none" stroke="#191970" d="M724.3662,-447.4135C751.7265,-430.8226 811.1716,-396.9133 866,-380 973.6898,-346.7803 1005.6641,-361.4631 1117,-344 1125.5125,-342.6648 1134.4633,-341.2068 1143.2928,-339.7364"/>
<polygon fill="#191970" stroke="#191970" points="1143.8976,-343.1839 1153.1803,-338.0769 1142.7389,-336.2805 1143.8976,-343.1839"/>
</g>
<!-- Node67&#45;&gt;Node3 -->
<g id="edge85" class="edge">
<title>Node67&#45;&gt;Node3</title>
<path fill="none" stroke="#191970" d="M1326.6857,-508.953C1238.8218,-494.2844 1074.4561,-462.3846 942,-411 844.5174,-373.183 738.6502,-306.4766 693.4706,-276.651"/>
<polygon fill="#191970" stroke="#191970" points="695.2851,-273.6545 685.0196,-271.0333 691.4099,-279.484 695.2851,-273.6545"/>
</g>
<!-- Node67&#45;&gt;Node4 -->
<g id="edge86" class="edge">
<title>Node67&#45;&gt;Node4</title>
<path fill="none" stroke="#191970" d="M1448.5316,-508.9994C1555.1042,-488.4206 1776.0162,-428.7166 1869,-277 1876.1995,-265.2529 1875.6021,-258.0929 1869,-246 1854.8217,-220.0301 1836.3038,-228.2315 1813,-210 1735.7766,-149.5851 1655.8878,-63.5769 1623.2587,-27.2493"/>
<polygon fill="#191970" stroke="#191970" points="1625.6189,-24.6376 1616.3481,-19.509 1620.3972,-29.2996 1625.6189,-24.6376"/>
</g>
<!-- Node67&#45;&gt;Node9 -->
<g id="edge87" class="edge">
<title>Node67&#45;&gt;Node9</title>
<path fill="none" stroke="#191970" d="M1409.3101,-508.746C1439.4064,-493.0101 1494.6895,-458.8723 1517,-411 1535.7065,-370.8608 1523.5997,-349.8231 1499,-313 1488.9051,-297.889 1472.8933,-285.3441 1459.0539,-276.4198"/>
<polygon fill="#191970" stroke="#191970" points="1460.7118,-273.3308 1450.3571,-271.0875 1457.0528,-279.2984 1460.7118,-273.3308"/>
</g>
<!-- Node67&#45;&gt;Node38 -->
<g id="edge84" class="edge">
<title>Node67&#45;&gt;Node38</title>
<path fill="none" stroke="#191970" d="M1380.875,-508.8906C1373.1358,-499.7376 1361.3013,-485.7409 1351.8728,-474.59"/>
<polygon fill="#191970" stroke="#191970" points="1354.3689,-472.1213 1345.2396,-466.7449 1349.0235,-476.6409 1354.3689,-472.1213"/>
</g>
<!-- Node67&#45;&gt;Node40 -->
<g id="edge83" class="edge">
<title>Node67&#45;&gt;Node40</title>
<path fill="none" stroke="#191970" d="M1396.5527,-508.7651C1403.9739,-498.7794 1415.1527,-482.5497 1422,-467 1429.4246,-450.1392 1434.494,-429.7261 1437.5166,-415.0346"/>
<polygon fill="#191970" stroke="#191970" points="1440.9815,-415.5501 1439.4341,-405.0689 1434.1076,-414.2274 1440.9815,-415.5501"/>
</g>
<!-- Node68&#45;&gt;Node5 -->
<g id="edge95" class="edge">
<title>Node68&#45;&gt;Node5</title>
<path fill="none" stroke="#191970" d="M487.7964,-508.9605C474.5738,-499.1269 453.9526,-483.0129 438,-467 421.1844,-450.1209 404.2868,-428.6567 393.104,-413.6697"/>
<polygon fill="#191970" stroke="#191970" points="395.6748,-411.2577 386.9314,-405.2741 390.0351,-415.4042 395.6748,-411.2577"/>
</g>
<!-- Node68&#45;&gt;Node6 -->
<g id="edge94" class="edge">
<title>Node68&#45;&gt;Node6</title>
<path fill="none" stroke="#191970" d="M494.4941,-508.7279C479.6217,-485.0539 446.2639,-423.3877 471,-380 480.9755,-362.5028 499.4882,-350.3441 516.8804,-342.2536"/>
<polygon fill="#191970" stroke="#191970" points="518.5655,-345.3388 526.3661,-338.1694 515.7972,-338.9094 518.5655,-345.3388"/>
</g>
<!-- Node68&#45;&gt;Node8 -->
<g id="edge98" class="edge">
<title>Node68&#45;&gt;Node8</title>
<path fill="none" stroke="#191970" d="M453.6661,-516.5003C367.6458,-512.1068 189.7771,-499.3007 138,-467 78.1872,-429.6864 80.1837,-380.655 100,-313 103.574,-300.798 111.0237,-288.7442 117.9418,-279.3692"/>
<polygon fill="#191970" stroke="#191970" points="120.8621,-281.3167 124.268,-271.2842 115.3491,-277.003 120.8621,-281.3167"/>
</g>
<!-- Node68&#45;&gt;Node9 -->
<g id="edge99" class="edge">
<title>Node68&#45;&gt;Node9</title>
<path fill="none" stroke="#191970" d="M548.4625,-509.6442C601.5451,-499.6541 690.0482,-482.742 766,-467 942.0223,-430.5171 985.2226,-417.6454 1161,-380 1237.7946,-363.5533 1263.5593,-378.7277 1334,-344 1352.9382,-334.6634 1353.8783,-326.6352 1370,-313 1384.0629,-301.1061 1400.055,-287.8284 1412.2748,-277.7341"/>
<polygon fill="#191970" stroke="#191970" points="1414.575,-280.3739 1420.0619,-271.3105 1410.1206,-274.974 1414.575,-280.3739"/>
</g>
<!-- Node68&#45;&gt;Node36 -->
<g id="edge96" class="edge">
<title>Node68&#45;&gt;Node36</title>
<path fill="none" stroke="#191970" d="M503.511,-508.8484C508.7685,-488.6397 521.0214,-441.5427 527.9651,-414.8528"/>
<polygon fill="#191970" stroke="#191970" points="531.37,-415.6659 530.5007,-405.1068 524.5955,-413.9034 531.37,-415.6659"/>
</g>
<!-- Node68&#45;&gt;Node66 -->
<g id="edge97" class="edge">
<title>Node68&#45;&gt;Node66</title>
<path fill="none" stroke="#191970" d="M533.5,-508.8906C569.447,-498.2621 627.4827,-481.1025 666.888,-469.4514"/>
<polygon fill="#191970" stroke="#191970" points="668.131,-472.7337 676.7282,-466.5419 666.1462,-466.021 668.131,-472.7337"/>
</g>
<!-- Node69&#45;&gt;Node10 -->
<g id="edge115" class="edge">
<title>Node69&#45;&gt;Node10</title>
<path fill="none" stroke="#191970" d="M2340.5259,-380.4754C2356.3885,-372.2614 2373.0155,-360.3591 2382,-344 2392.6898,-324.5358 2388.983,-298.4312 2384.3854,-280.8424"/>
<polygon fill="#191970" stroke="#191970" points="2387.7075,-279.7332 2381.5284,-271.1269 2380.9919,-281.7081 2387.7075,-279.7332"/>
</g>
<!-- Node69&#45;&gt;Node34 -->
<g id="edge101" class="edge">
<title>Node69&#45;&gt;Node34</title>
<path fill="none" stroke="#191970" d="M2288.8692,-380.4995C2273.1951,-362.0619 2244.1931,-331.0116 2213,-313 2180.0848,-293.994 2139.4591,-281.3516 2106.1767,-273.3506"/>
<polygon fill="#191970" stroke="#191970" points="2106.6322,-269.8635 2096.1001,-271.0147 2105.0513,-276.6827 2106.6322,-269.8635"/>
</g>
<!-- Node69&#45;&gt;Node42 -->
<g id="edge116" class="edge">
<title>Node69&#45;&gt;Node42</title>
<path fill="none" stroke="#191970" d="M2278.7091,-380.4179C2264.4422,-370.5028 2245.7263,-357.0019 2230,-344 2214.491,-331.1777 2215.0955,-321.8029 2197,-313 2101.5886,-266.585 2064.1065,-302.0344 1961,-277 1919.0705,-266.8195 1910.6985,-257.0888 1869,-246 1804.9482,-228.9669 1730.694,-214.8474 1677.8017,-205.7272"/>
<polygon fill="#191970" stroke="#191970" points="1678.2964,-202.2611 1667.8497,-204.0267 1677.1173,-209.1611 1678.2964,-202.2611"/>
</g>
<!-- Node48 -->
<g id="node35" class="node">
<title>Node48</title>
<g id="a_node35"><a xlink:href="SpatialMotionVector_8h.html" target="_top" xlink:title="iDynTree/Core/SpatialMotion\lVector.h">
<polygon fill="none" stroke="#000000" points="2681.5,-313.5 2681.5,-343.5 2836.5,-343.5 2836.5,-313.5 2681.5,-313.5"/>
<text text-anchor="start" x="2689.5" y="-331.5" font-family="FreeSans.ttf" font-size="10.00" fill="#000000">iDynTree/Core/SpatialMotion</text>
<text text-anchor="middle" x="2759" y="-320.5" font-family="FreeSans.ttf" font-size="10.00" fill="#000000">Vector.h</text>
</a>
</g>
</g>
<!-- Node69&#45;&gt;Node48 -->
<g id="edge102" class="edge">
<title>Node69&#45;&gt;Node48</title>
<path fill="none" stroke="#191970" d="M2371.0589,-385.2512C2451.5666,-373.4739 2583.791,-354.131 2671.1274,-341.3547"/>
<polygon fill="#191970" stroke="#191970" points="2671.8962,-344.7796 2681.2843,-339.8689 2670.8829,-337.8533 2671.8962,-344.7796"/>
</g>
<!-- Node70 -->
<g id="node40" class="node">
<title>Node70</title>
<g id="a_node40"><a xlink:href="MovableJointImpl_8h.html" target="_top" xlink:title="iDynTree/Model/MovableJoint\lImpl.h">
<polygon fill="none" stroke="#000000" points="2030,-313.5 2030,-343.5 2188,-343.5 2188,-313.5 2030,-313.5"/>
<text text-anchor="start" x="2038" y="-331.5" font-family="FreeSans.ttf" font-size="10.00" fill="#000000">iDynTree/Model/MovableJoint</text>
<text text-anchor="middle" x="2109" y="-320.5" font-family="FreeSans.ttf" font-size="10.00" fill="#000000">Impl.h</text>
</a>
</g>
</g>
<!-- Node69&#45;&gt;Node70 -->
<g id="edge117" class="edge">
<title>Node69&#45;&gt;Node70</title>
<path fill="none" stroke="#191970" d="M2257.9115,-380.4639C2229.4783,-370.5419 2192.0397,-357.4774 2161.8155,-346.9304"/>
<polygon fill="#191970" stroke="#191970" points="2162.8713,-343.5919 2152.2765,-343.6017 2160.5649,-350.2011 2162.8713,-343.5919"/>
</g>
<!-- Node48&#45;&gt;Node12 -->
<g id="edge103" class="edge">
<title>Node48&#45;&gt;Node12</title>
<path fill="none" stroke="#191970" d="M2751.5672,-313.4338C2731.242,-273.8565 2670.6895,-166.2686 2588,-112 2563.1055,-95.6619 2532.1411,-84.9061 2504.744,-77.9371"/>
<polygon fill="#191970" stroke="#191970" points="2505.3723,-74.4882 2494.8295,-75.5376 2503.7256,-81.2917 2505.3723,-74.4882"/>
</g>
<!-- Node49 -->
<g id="node36" class="node">
<title>Node49</title>
<g id="a_node36"><a xlink:href="LinearMotionVector3_8h.html" target="_top" xlink:title="iDynTree/Core/LinearMotion\lVector3.h">
<polygon fill="none" stroke="#ff0000" points="2787.5,-246.5 2787.5,-276.5 2938.5,-276.5 2938.5,-246.5 2787.5,-246.5"/>
<text text-anchor="start" x="2795.5" y="-264.5" font-family="FreeSans.ttf" font-size="10.00" fill="#000000">iDynTree/Core/LinearMotion</text>
<text text-anchor="middle" x="2863" y="-253.5" font-family="FreeSans.ttf" font-size="10.00" fill="#000000">Vector3.h</text>
</a>
</g>
</g>
<!-- Node48&#45;&gt;Node49 -->
<g id="edge104" class="edge">
<title>Node48&#45;&gt;Node49</title>
<path fill="none" stroke="#191970" d="M2782.3396,-313.4639C2796.5574,-304.3044 2814.9323,-292.4667 2830.5522,-282.4038"/>
<polygon fill="#191970" stroke="#191970" points="2832.8674,-285.0758 2839.3784,-276.7177 2829.0764,-279.1912 2832.8674,-285.0758"/>
</g>
<!-- Node52 -->
<g id="node37" class="node">
<title>Node52</title>
<g id="a_node37"><a xlink:href="PrivateMotionForceVertorAssociations_8h.html" target="_top" xlink:title="iDynTree/Core/PrivateMotion\lForceVertorAssociations.h">
<polygon fill="none" stroke="#000000" points="2767.5,-179.5 2767.5,-209.5 2922.5,-209.5 2922.5,-179.5 2767.5,-179.5"/>
<text text-anchor="start" x="2775.5" y="-197.5" font-family="FreeSans.ttf" font-size="10.00" fill="#000000">iDynTree/Core/PrivateMotion</text>
<text text-anchor="middle" x="2845" y="-186.5" font-family="FreeSans.ttf" font-size="10.00" fill="#000000">ForceVertorAssociations.h</text>
</a>
</g>
</g>
<!-- Node48&#45;&gt;Node52 -->
<g id="edge114" class="edge">
<title>Node48&#45;&gt;Node52</title>
<path fill="none" stroke="#191970" d="M2759.7065,-313.3316C2761.1579,-295.833 2765.5763,-266.8047 2779,-246 2786.7234,-234.0299 2798.2077,-223.6764 2809.4408,-215.4562"/>
<polygon fill="#191970" stroke="#191970" points="2811.682,-218.1618 2817.9154,-209.5947 2807.7,-212.4047 2811.682,-218.1618"/>
</g>
<!-- Node53 -->
<g id="node38" class="node">
<title>Node53</title>
<g id="a_node38"><a xlink:href="AngularMotionVector3_8h.html" target="_top" xlink:title="iDynTree/Core/AngularMotion\lVector3.h">
<polygon fill="none" stroke="#ff0000" points="2957,-246.5 2957,-276.5 3115,-276.5 3115,-246.5 2957,-246.5"/>
<text text-anchor="start" x="2965" y="-264.5" font-family="FreeSans.ttf" font-size="10.00" fill="#000000">iDynTree/Core/AngularMotion</text>
<text text-anchor="middle" x="3036" y="-253.5" font-family="FreeSans.ttf" font-size="10.00" fill="#000000">Vector3.h</text>
</a>
</g>
</g>
<!-- Node48&#45;&gt;Node53 -->
<g id="edge106" class="edge">
<title>Node48&#45;&gt;Node53</title>
<path fill="none" stroke="#191970" d="M2821.1642,-313.4639C2863.428,-303.2412 2919.4834,-289.6827 2963.7374,-278.9787"/>
<polygon fill="#191970" stroke="#191970" points="2964.6678,-282.3546 2973.5647,-276.6017 2963.0221,-275.5508 2964.6678,-282.3546"/>
</g>
<!-- Node54 -->
<g id="node39" class="node">
<title>Node54</title>
<g id="a_node39"><a xlink:href="SpatialVector_8h.html" target="_top" xlink:title="iDynTree/Core/SpatialVector.h">
<polygon fill="none" stroke="#ff0000" points="2531.5,-252 2531.5,-271 2692.5,-271 2692.5,-252 2531.5,-252"/>
<text text-anchor="middle" x="2612" y="-259" font-family="FreeSans.ttf" font-size="10.00" fill="#000000">iDynTree/Core/SpatialVector.h</text>
</a>
</g>
</g>
<!-- Node48&#45;&gt;Node54 -->
<g id="edge109" class="edge">
<title>Node48&#45;&gt;Node54</title>
<path fill="none" stroke="#191970" d="M2726.0103,-313.4639C2700.9012,-302.0196 2666.6192,-286.3945 2642.2205,-275.274"/>
<polygon fill="#191970" stroke="#191970" points="2643.6223,-272.0665 2633.0713,-271.1039 2640.7191,-278.4361 2643.6223,-272.0665"/>
</g>
<!-- Node49&#45;&gt;Node52 -->
<g id="edge105" class="edge">
<title>Node49&#45;&gt;Node52</title>
<path fill="none" stroke="#191970" d="M2858.9155,-246.2967C2856.7752,-238.3299 2854.0999,-228.3718 2851.6684,-219.3213"/>
<polygon fill="#191970" stroke="#191970" points="2855.0431,-218.3926 2849.0683,-209.6432 2848.2828,-220.2088 2855.0431,-218.3926"/>
</g>
<!-- Node53&#45;&gt;Node13 -->
<g id="edge108" class="edge">
<title>Node53&#45;&gt;Node13</title>
<path fill="none" stroke="#191970" d="M3019.6933,-246.3489C3000.0075,-228.6023 2965.3736,-199.0802 2932,-179 2811.9116,-106.7454 2655.3881,-47.9893 2584.2153,-22.9933"/>
<polygon fill="#191970" stroke="#191970" points="2584.943,-19.5404 2574.3482,-19.5528 2582.6382,-26.1502 2584.943,-19.5404"/>
</g>
<!-- Node53&#45;&gt;Node52 -->
<g id="edge107" class="edge">
<title>Node53&#45;&gt;Node52</title>
<path fill="none" stroke="#191970" d="M2993.1359,-246.4639C2964.8508,-236.5419 2927.6072,-223.4774 2897.5404,-212.9304"/>
<polygon fill="#191970" stroke="#191970" points="2898.6459,-209.6092 2888.0511,-209.6017 2896.3288,-216.2146 2898.6459,-209.6092"/>
</g>
<!-- Node54&#45;&gt;Node13 -->
<g id="edge113" class="edge">
<title>Node54&#45;&gt;Node13</title>
<path fill="none" stroke="#191970" d="M2613.7941,-251.8386C2618.9892,-221.2215 2631.6293,-124.3424 2598,-56 2592.0132,-43.8334 2581.246,-33.4766 2571.0562,-25.6886"/>
<polygon fill="#191970" stroke="#191970" points="2572.9246,-22.7223 2562.7501,-19.7675 2568.8612,-28.4222 2572.9246,-22.7223"/>
</g>
<!-- Node54&#45;&gt;Node26 -->
<g id="edge110" class="edge">
<title>Node54&#45;&gt;Node26</title>
<path fill="none" stroke="#191970" d="M2547.435,-251.9717C2464.4271,-239.7216 2320.5648,-218.4908 2232.8562,-205.5471"/>
<polygon fill="#191970" stroke="#191970" points="2233.1133,-202.0472 2222.7094,-204.0496 2232.0912,-208.9722 2233.1133,-202.0472"/>
</g>
<!-- Node54&#45;&gt;Node29 -->
<g id="edge111" class="edge">
<title>Node54&#45;&gt;Node29</title>
<path fill="none" stroke="#191970" d="M2577.0821,-251.9705C2489.9028,-228.1782 2262.7521,-166.1859 2165.8544,-139.7413"/>
<polygon fill="#191970" stroke="#191970" points="2166.6371,-136.327 2156.0683,-137.0706 2164.794,-143.08 2166.6371,-136.327"/>
</g>
<!-- Node54&#45;&gt;Node52 -->
<g id="edge112" class="edge">
<title>Node54&#45;&gt;Node52</title>
<path fill="none" stroke="#191970" d="M2645.3832,-251.9005C2681.1808,-241.6068 2738.8251,-225.031 2782.9869,-212.3321"/>
<polygon fill="#191970" stroke="#191970" points="2784.1168,-215.6491 2792.7601,-209.5218 2782.1823,-208.9217 2784.1168,-215.6491"/>
</g>
<!-- Node70&#45;&gt;Node41 -->
<g id="edge118" class="edge">
<title>Node70&#45;&gt;Node41</title>
<path fill="none" stroke="#191970" d="M2038.7567,-313.4639C1981.8122,-301.2745 1902.7102,-284.3421 1850.4788,-273.1616"/>
<polygon fill="#191970" stroke="#191970" points="1850.9164,-269.6761 1840.4053,-271.0053 1849.4511,-276.521 1850.9164,-269.6761"/>
</g>
<!-- Node71&#45;&gt;Node10 -->
<g id="edge122" class="edge">
<title>Node71&#45;&gt;Node10</title>
<path fill="none" stroke="#191970" d="M2134.8424,-385.8631C2180.4453,-362.5394 2296.9319,-302.9623 2350.4067,-275.6126"/>
<polygon fill="#191970" stroke="#191970" points="2352.019,-278.7193 2359.3283,-271.0496 2348.8315,-272.4871 2352.019,-278.7193"/>
</g>
<!-- Node71&#45;&gt;Node34 -->
<g id="edge120" class="edge">
<title>Node71&#45;&gt;Node34</title>
<path fill="none" stroke="#191970" d="M2143.9037,-385.9563C2162.5974,-377.934 2185.7694,-364.4488 2197,-344 2203.6324,-331.9236 2205.0506,-324.181 2197,-313 2185.3187,-296.7764 2139.314,-282.7222 2100.602,-273.413"/>
<polygon fill="#191970" stroke="#191970" points="2100.9627,-269.903 2090.4283,-271.0329 2099.3681,-276.7189 2100.9627,-269.903"/>
</g>
<!-- Node71&#45;&gt;Node42 -->
<g id="edge123" class="edge">
<title>Node71&#45;&gt;Node42</title>
<path fill="none" stroke="#191970" d="M2088.9617,-385.9928C2043.0204,-369.9869 1946.6565,-337.0532 1864,-313 1801.899,-294.9285 1781.6225,-304.3224 1723,-277 1685.6433,-259.589 1647.8699,-229.5763 1626.2632,-210.9501"/>
<polygon fill="#191970" stroke="#191970" points="1628.3791,-208.1505 1618.5521,-204.1906 1623.7648,-213.4144 1628.3791,-208.1505"/>
</g>
<!-- Node71&#45;&gt;Node48 -->
<g id="edge121" class="edge">
<title>Node71&#45;&gt;Node48</title>
<path fill="none" stroke="#191970" d="M2177.5871,-385.9672C2192.1321,-383.862 2207.5982,-381.7425 2222,-380 2379.8534,-360.9014 2564.5121,-344.4844 2670.9982,-335.5919"/>
<polygon fill="#191970" stroke="#191970" points="2671.3804,-339.0723 2681.0557,-334.755 2670.7999,-332.0964 2671.3804,-339.0723"/>
</g>
<!-- Node71&#45;&gt;Node70 -->
<g id="edge124" class="edge">
<title>Node71&#45;&gt;Node70</title>
<path fill="none" stroke="#191970" d="M2114.9971,-385.9005C2114.1204,-377.5099 2112.8077,-364.9451 2111.6337,-353.7085"/>
<polygon fill="#191970" stroke="#191970" points="2115.0897,-353.1039 2110.5694,-343.5218 2108.1276,-353.8314 2115.0897,-353.1039"/>
</g>
<!-- Node73&#45;&gt;Node9 -->
<g id="edge140" class="edge">
<title>Node73&#45;&gt;Node9</title>
<path fill="none" stroke="#191970" d="M1706.0299,-503.2891C1695.3325,-465.32 1662.2792,-365.6542 1598,-313 1559.5456,-281.5001 1501.8415,-269.2148 1465.5865,-264.4588"/>
<polygon fill="#191970" stroke="#191970" points="1465.86,-260.9667 1455.5162,-263.2592 1465.032,-267.9176 1465.86,-260.9667"/>
</g>
<!-- Node73&#45;&gt;Node38 -->
<g id="edge127" class="edge">
<title>Node73&#45;&gt;Node38</title>
<path fill="none" stroke="#191970" d="M1639.8416,-506.9323C1572.497,-495.8286 1471.4548,-479.1688 1404.8826,-468.1924"/>
<polygon fill="#191970" stroke="#191970" points="1405.3481,-464.722 1394.9119,-466.5485 1404.2093,-471.6288 1405.3481,-464.722"/>
</g>
<!-- Node74 -->
<g id="node44" class="node">
<title>Node74</title>
<g id="a_node44"><a xlink:href="LinkState_8h.html" target="_top" xlink:title="iDynTree/Model/LinkState.h">
<polygon fill="none" stroke="#000000" points="2426.5,-447.5 2426.5,-466.5 2575.5,-466.5 2575.5,-447.5 2426.5,-447.5"/>
<text text-anchor="middle" x="2501" y="-454.5" font-family="FreeSans.ttf" font-size="10.00" fill="#000000">iDynTree/Model/LinkState.h</text>
</a>
</g>
</g>
<!-- Node73&#45;&gt;Node74 -->
<g id="edge128" class="edge">
<title>Node73&#45;&gt;Node74</title>
<path fill="none" stroke="#191970" d="M1780.196,-513.0423C1925.597,-501.7374 2259.2089,-475.7992 2416.2808,-463.5869"/>
<polygon fill="#191970" stroke="#191970" points="2416.6691,-467.0674 2426.3677,-462.8026 2416.1264,-460.0884 2416.6691,-467.0674"/>
</g>
<!-- Node74&#45;&gt;Node9 -->
<g id="edge139" class="edge">
<title>Node74&#45;&gt;Node9</title>
<path fill="none" stroke="#191970" d="M2426.4253,-453.3422C2331.9781,-447.905 2164.4855,-435.5751 2023,-411 1848.1883,-380.6364 1808.0159,-356.4926 1636,-313 1575.8944,-297.8029 1505.8182,-280.1197 1465.412,-269.9269"/>
<polygon fill="#191970" stroke="#191970" points="1466.113,-266.4942 1455.5607,-267.442 1464.4009,-273.2816 1466.113,-266.4942"/>
</g>
<!-- Node74&#45;&gt;Node34 -->
<g id="edge129" class="edge">
<title>Node74&#45;&gt;Node34</title>
<path fill="none" stroke="#191970" d="M2486.7671,-447.2639C2464.4452,-432.151 2419.652,-402.4506 2380,-380 2322.0576,-347.1936 2308.409,-336.2099 2246,-313 2199.09,-295.5542 2143.9358,-281.9799 2102.9657,-273.1576"/>
<polygon fill="#191970" stroke="#191970" points="2103.6418,-269.7233 2093.1333,-271.0728 2102.1898,-276.571 2103.6418,-269.7233"/>
</g>
<!-- Node74&#45;&gt;Node42 -->
<g id="edge138" class="edge">
<title>Node74&#45;&gt;Node42</title>
<path fill="none" stroke="#191970" d="M2492.1063,-447.1405C2477.7566,-431.5991 2448.1471,-401.0147 2419,-380 2368.1881,-343.3653 2351.797,-339.4207 2295,-313 2221.3653,-278.7467 2203.9349,-265.0956 2125,-246 2044.0954,-226.4279 1811.1305,-208.309 1687.4099,-199.7207"/>
<polygon fill="#191970" stroke="#191970" points="1687.4576,-196.2157 1677.2405,-199.0191 1686.9758,-203.1991 1687.4576,-196.2157"/>
</g>
<!-- Node47 -->
<g id="node45" class="node">
<title>Node47</title>
<g id="a_node45"><a xlink:href="Twist_8h.html" target="_top" xlink:title="iDynTree/Core/Twist.h">
<polygon fill="none" stroke="#000000" points="2866,-386 2866,-405 2988,-405 2988,-386 2866,-386"/>
<text text-anchor="middle" x="2927" y="-393" font-family="FreeSans.ttf" font-size="10.00" fill="#000000">iDynTree/Core/Twist.h</text>
</a>
</g>
</g>
<!-- Node74&#45;&gt;Node47 -->
<g id="edge130" class="edge">
<title>Node74&#45;&gt;Node47</title>
<path fill="none" stroke="#191970" d="M2575.6135,-449.3233C2647.8476,-441.4289 2760.3156,-427.9159 2857,-411 2863.3565,-409.8879 2870.0093,-408.5905 2876.5777,-407.2285"/>
<polygon fill="#191970" stroke="#191970" points="2877.7259,-410.5624 2886.7752,-405.0524 2876.2649,-403.7165 2877.7259,-410.5624"/>
</g>
<!-- Node62 -->
<g id="node46" class="node">
<title>Node62</title>
<g id="a_node46"><a xlink:href="SpatialAcc_8h.html" target="_top" xlink:title="iDynTree/Core/SpatialAcc.h">
<polygon fill="none" stroke="#000000" points="2700,-386 2700,-405 2848,-405 2848,-386 2700,-386"/>
<text text-anchor="middle" x="2774" y="-393" font-family="FreeSans.ttf" font-size="10.00" fill="#000000">iDynTree/Core/SpatialAcc.h</text>
</a>
</g>
</g>
<!-- Node74&#45;&gt;Node62 -->
<g id="edge132" class="edge">
<title>Node74&#45;&gt;Node62</title>
<path fill="none" stroke="#191970" d="M2543.3567,-447.4581C2591.3757,-436.6406 2669.701,-418.9959 2721.545,-407.3168"/>
<polygon fill="#191970" stroke="#191970" points="2722.5576,-410.6765 2731.5439,-405.0643 2721.0192,-403.8476 2722.5576,-410.6765"/>
</g>
<!-- Node63 -->
<g id="node47" class="node">
<title>Node63</title>
<g id="a_node47"><a xlink:href="Wrench_8h.html" target="_top" xlink:title="iDynTree/Core/Wrench.h">
<polygon fill="none" stroke="#ff0000" points="2548.5,-386 2548.5,-405 2681.5,-405 2681.5,-386 2548.5,-386"/>
<text text-anchor="middle" x="2615" y="-393" font-family="FreeSans.ttf" font-size="10.00" fill="#000000">iDynTree/Core/Wrench.h</text>
</a>
</g>
</g>
<!-- Node74&#45;&gt;Node63 -->
<g id="edge134" class="edge">
<title>Node74&#45;&gt;Node63</title>
<path fill="none" stroke="#191970" d="M2518.8125,-447.3906C2537.4685,-437.3262 2566.9797,-421.4057 2588.3974,-409.8514"/>
<polygon fill="#191970" stroke="#191970" points="2590.1734,-412.8702 2597.3126,-405.0419 2586.8498,-406.7095 2590.1734,-412.8702"/>
</g>
<!-- Node75 -->
<g id="node48" class="node">
<title>Node75</title>
<g id="a_node48"><a xlink:href="ArticulatedBodyInertia_8h.html" target="_top" xlink:title="iDynTree/Core/Articulated\lBodyInertia.h">
<polygon fill="none" stroke="#000000" points="2207.5,-112.5 2207.5,-142.5 2348.5,-142.5 2348.5,-112.5 2207.5,-112.5"/>
<text text-anchor="start" x="2215.5" y="-130.5" font-family="FreeSans.ttf" font-size="10.00" fill="#000000">iDynTree/Core/Articulated</text>
<text text-anchor="middle" x="2278" y="-119.5" font-family="FreeSans.ttf" font-size="10.00" fill="#000000">BodyInertia.h</text>
</a>
</g>
</g>
<!-- Node74&#45;&gt;Node75 -->
<g id="edge135" class="edge">
<title>Node74&#45;&gt;Node75</title>
<path fill="none" stroke="#191970" d="M2500.7691,-447.2032C2499.5685,-415.2976 2492.1255,-312.5984 2446,-246 2414.6199,-200.6918 2359.9727,-166.9282 2321.5438,-147.2666"/>
<polygon fill="#191970" stroke="#191970" points="2322.6574,-143.9105 2312.1472,-142.5732 2319.5295,-150.1728 2322.6574,-143.9105"/>
</g>
<!-- Node47&#45;&gt;Node48 -->
<g id="edge131" class="edge">
<title>Node47&#45;&gt;Node48</title>
<path fill="none" stroke="#191970" d="M2902.9297,-385.9005C2877.7693,-375.8663 2837.6409,-359.8627 2806.1397,-347.2997"/>
<polygon fill="#191970" stroke="#191970" points="2807.2516,-343.9752 2796.6665,-343.5218 2804.6585,-350.4772 2807.2516,-343.9752"/>
</g>
<!-- Node62&#45;&gt;Node48 -->
<g id="edge133" class="edge">
<title>Node62&#45;&gt;Node48</title>
<path fill="none" stroke="#191970" d="M2771.8509,-385.9005C2769.953,-377.4234 2767.1013,-364.6856 2764.566,-353.3614"/>
<polygon fill="#191970" stroke="#191970" points="2767.9633,-352.5155 2762.3631,-343.5218 2761.1324,-354.0449 2767.9633,-352.5155"/>
</g>
<!-- Node75&#45;&gt;Node4 -->
<g id="edge137" class="edge">
<title>Node75&#45;&gt;Node4</title>
<path fill="none" stroke="#191970" d="M2281.5692,-112.2569C2284.399,-95.9006 2285.7566,-70.3445 2271,-56 2248.1411,-33.7795 1770.4906,-15.6374 1640.4443,-11.0963"/>
<polygon fill="#191970" stroke="#191970" points="1640.4337,-7.594 1630.3185,-10.7458 1640.1914,-14.5898 1640.4337,-7.594"/>
</g>
<!-- Node75&#45;&gt;Node31 -->
<g id="edge136" class="edge">
<title>Node75&#45;&gt;Node31</title>
<path fill="none" stroke="#191970" d="M2254.0225,-112.2977C2239.0624,-102.8127 2219.878,-90.6495 2204.9274,-81.1705"/>
<polygon fill="#191970" stroke="#191970" points="2206.561,-78.062 2196.2413,-75.6633 2202.8127,-83.9739 2206.561,-78.062"/>
</g>
</g>
</svg>
