<?xml version="1.0" encoding="UTF-8" standalone="no"?>
<!DOCTYPE svg PUBLIC "-//W3C//DTD SVG 1.1//EN"
 "http://www.w3.org/Graphics/SVG/1.1/DTD/svg11.dtd">
<!-- Generated by graphviz version 2.40.1 (20161225.0304)
 -->
<!-- Title: urdf2dh.cpp Pages: 1 -->
<svg width="3054pt" height="643pt"
 viewBox="0.00 0.00 3053.76 643.00" xmlns="http://www.w3.org/2000/svg" xmlns:xlink="http://www.w3.org/1999/xlink">
<g id="graph0" class="graph" transform="scale(1 1) rotate(0) translate(4 639)">
<title>urdf2dh.cpp</title>
<!-- Node0 -->
<g id="node1" class="node">
<title>Node0</title>
<polygon fill="#bfbfbf" stroke="#000000" points="2174,-615.5 2174,-634.5 2248,-634.5 2248,-615.5 2174,-615.5"/>
<text text-anchor="middle" x="2211" y="-622.5" font-family="FreeSans.ttf" font-size="10.00" fill="#000000">urdf2dh.cpp</text>
</g>
<!-- Node1 -->
<g id="node2" class="node">
<title>Node1</title>
<polygon fill="none" stroke="#bfbfbf" points="122,-168.5 122,-187.5 182,-187.5 182,-168.5 122,-168.5"/>
<text text-anchor="middle" x="152" y="-175.5" font-family="FreeSans.ttf" font-size="10.00" fill="#000000">iostream</text>
</g>
<!-- Node0&#45;&gt;Node1 -->
<g id="edge1" class="edge">
<title>Node0&#45;&gt;Node1</title>
<path fill="none" stroke="#191970" d="M2173.6794,-624.3989C1966.1098,-620.981 951.9924,-603.2864 640,-579 514.0446,-569.1952 76,-633.8365 76,-507.5 76,-507.5 76,-507.5 76,-373.5 76,-304.2296 117.9622,-229.9607 139.526,-196.3682"/>
<polygon fill="#191970" stroke="#191970" points="142.6865,-197.9319 145.2555,-187.6533 136.8374,-194.0865 142.6865,-197.9319"/>
</g>
<!-- Node2 -->
<g id="node3" class="node">
<title>Node2</title>
<polygon fill="none" stroke="#bfbfbf" points="2694.5,-559.5 2694.5,-578.5 2749.5,-578.5 2749.5,-559.5 2694.5,-559.5"/>
<text text-anchor="middle" x="2722" y="-566.5" font-family="FreeSans.ttf" font-size="10.00" fill="#000000">fstream</text>
</g>
<!-- Node0&#45;&gt;Node2 -->
<g id="edge2" class="edge">
<title>Node0&#45;&gt;Node2</title>
<path fill="none" stroke="#191970" d="M2248.1672,-623.5082C2326.9073,-619.8953 2516.3604,-608.8093 2684.2283,-578.8519"/>
<polygon fill="#191970" stroke="#191970" points="2685.0177,-582.2659 2694.2335,-577.039 2683.7697,-575.378 2685.0177,-582.2659"/>
</g>
<!-- Node3 -->
<g id="node4" class="node">
<title>Node3</title>
<g id="a_node4"><a xlink:href="TestUtils_8h.html" target="_top" xlink:title="iDynTree/Core/TestUtils.h">
<polygon fill="none" stroke="#000000" points="238.5,-364 238.5,-383 377.5,-383 377.5,-364 238.5,-364"/>
<text text-anchor="middle" x="308" y="-371" font-family="FreeSans.ttf" font-size="10.00" fill="#000000">iDynTree/Core/TestUtils.h</text>
</a>
</g>
</g>
<!-- Node0&#45;&gt;Node3 -->
<g id="edge3" class="edge">
<title>Node0&#45;&gt;Node3</title>
<path fill="none" stroke="#191970" d="M2173.9863,-622.332C2080.8821,-615.5747 1829.4275,-597.0377 1620,-579 1068.227,-531.4765 871.6859,-710.8663 380,-456 352.1517,-441.5648 330.2913,-411.4653 318.2688,-391.8904"/>
<polygon fill="#191970" stroke="#191970" points="321.2652,-390.081 313.174,-383.2411 315.2337,-393.6338 321.2652,-390.081"/>
</g>
<!-- Node13 -->
<g id="node14" class="node">
<title>Node13</title>
<g id="a_node14"><a xlink:href="DenavitHartenberg_8h.html" target="_top" xlink:title="iDynTree/Model/DenavitHartenberg.h">
<polygon fill="none" stroke="#000000" points="2070.5,-498 2070.5,-517 2267.5,-517 2267.5,-498 2070.5,-498"/>
<text text-anchor="middle" x="2169" y="-505" font-family="FreeSans.ttf" font-size="10.00" fill="#000000">iDynTree/Model/DenavitHartenberg.h</text>
</a>
</g>
</g>
<!-- Node0&#45;&gt;Node13 -->
<g id="edge15" class="edge">
<title>Node0&#45;&gt;Node13</title>
<path fill="none" stroke="#191970" d="M2207.563,-615.3845C2200.6717,-596.1053 2185.048,-552.3963 2175.9431,-526.9241"/>
<polygon fill="#191970" stroke="#191970" points="2179.1463,-525.4868 2172.4845,-517.2484 2172.5547,-527.843 2179.1463,-525.4868"/>
</g>
<!-- Node59 -->
<g id="node29" class="node">
<title>Node59</title>
<g id="a_node29"><a xlink:href="ModelTestUtils_8h.html" target="_top" xlink:title="iDynTree/Model/ModelTest\lUtils.h">
<polygon fill="none" stroke="#000000" points="1528.5,-492.5 1528.5,-522.5 1671.5,-522.5 1671.5,-492.5 1528.5,-492.5"/>
<text text-anchor="start" x="1536.5" y="-510.5" font-family="FreeSans.ttf" font-size="10.00" fill="#000000">iDynTree/Model/ModelTest</text>
<text text-anchor="middle" x="1600" y="-499.5" font-family="FreeSans.ttf" font-size="10.00" fill="#000000">Utils.h</text>
</a>
</g>
</g>
<!-- Node0&#45;&gt;Node59 -->
<g id="edge57" class="edge">
<title>Node0&#45;&gt;Node59</title>
<path fill="none" stroke="#191970" d="M2173.699,-617.8267C2076.9217,-599.2157 1816.018,-549.0419 1681.9642,-523.2623"/>
<polygon fill="#191970" stroke="#191970" points="1682.2315,-519.7497 1671.7504,-521.2982 1680.9095,-526.6237 1682.2315,-519.7497"/>
</g>
<!-- Node70 -->
<g id="node43" class="node">
<title>Node70</title>
<g id="a_node43"><a xlink:href="ModelLoader_8h.html" target="_top" xlink:title="iDynTree/ModelIO/ModelLoader.h">
<polygon fill="none" stroke="#000000" points="2500,-559.5 2500,-578.5 2676,-578.5 2676,-559.5 2500,-559.5"/>
<text text-anchor="middle" x="2588" y="-566.5" font-family="FreeSans.ttf" font-size="10.00" fill="#000000">iDynTree/ModelIO/ModelLoader.h</text>
</a>
</g>
</g>
<!-- Node0&#45;&gt;Node70 -->
<g id="edge102" class="edge">
<title>Node0&#45;&gt;Node70</title>
<path fill="none" stroke="#191970" d="M2248.18,-619.4772C2309.7291,-610.3347 2433.9257,-591.8864 2513.9128,-580.005"/>
<polygon fill="#191970" stroke="#191970" points="2514.5477,-583.4492 2523.9249,-578.5178 2513.5192,-576.5251 2514.5477,-583.4492"/>
</g>
<!-- Node73 -->
<g id="node46" class="node">
<title>Node73</title>
<g id="a_node46"><a xlink:href="KinDynComputations_8h.html" target="_top" xlink:title="iDynTree/KinDynComputations.h">
<polygon fill="none" stroke="#000000" points="458.5,-431 458.5,-450 633.5,-450 633.5,-431 458.5,-431"/>
<text text-anchor="middle" x="546" y="-438" font-family="FreeSans.ttf" font-size="10.00" fill="#000000">iDynTree/KinDynComputations.h</text>
</a>
</g>
</g>
<!-- Node0&#45;&gt;Node73 -->
<g id="edge114" class="edge">
<title>Node0&#45;&gt;Node73</title>
<path fill="none" stroke="#191970" d="M2173.8897,-620.8878C1967.5284,-598.0207 959.2159,-486.2888 641.8381,-451.1199"/>
<polygon fill="#191970" stroke="#191970" points="642.07,-447.6243 631.7453,-450.0015 641.299,-454.5817 642.07,-447.6243"/>
</g>
<!-- Node75 -->
<g id="node48" class="node">
<title>Node75</title>
<g id="a_node48"><a xlink:href="iKinConversions_8h.html" target="_top" xlink:title="iDynTree/iKinConversions.h">
<polygon fill="none" stroke="#000000" points="2266,-559.5 2266,-578.5 2416,-578.5 2416,-559.5 2266,-559.5"/>
<text text-anchor="middle" x="2341" y="-566.5" font-family="FreeSans.ttf" font-size="10.00" fill="#000000">iDynTree/iKinConversions.h</text>
</a>
</g>
</g>
<!-- Node0&#45;&gt;Node75 -->
<g id="edge123" class="edge">
<title>Node0&#45;&gt;Node75</title>
<path fill="none" stroke="#191970" d="M2233.3478,-615.3733C2254.4033,-606.3032 2286.1495,-592.6279 2309.7175,-582.4755"/>
<polygon fill="#191970" stroke="#191970" points="2311.1444,-585.6719 2318.9438,-578.5011 2308.375,-579.243 2311.1444,-585.6719"/>
</g>
<!-- Node76 -->
<g id="node49" class="node">
<title>Node76</title>
<polygon fill="none" stroke="#bfbfbf" points="2286,-498 2286,-517 2396,-517 2396,-498 2286,-498"/>
<text text-anchor="middle" x="2341" y="-505" font-family="FreeSans.ttf" font-size="10.00" fill="#000000">iCub/iKin/iKinFwd.h</text>
</g>
<!-- Node0&#45;&gt;Node76 -->
<g id="edge126" class="edge">
<title>Node0&#45;&gt;Node76</title>
<path fill="none" stroke="#191970" d="M2216.1714,-615.1026C2223.7387,-601.3018 2238.9124,-576.0559 2257,-559 2273.0663,-543.8501 2294.2895,-530.8835 2311.383,-521.7509"/>
<polygon fill="#191970" stroke="#191970" points="2313.1262,-524.7896 2320.3956,-517.0821 2309.9064,-518.5741 2313.1262,-524.7896"/>
</g>
<!-- Node77 -->
<g id="node50" class="node">
<title>Node77</title>
<polygon fill="none" stroke="#bfbfbf" points="2768,-559.5 2768,-578.5 2872,-578.5 2872,-559.5 2768,-559.5"/>
<text text-anchor="middle" x="2820" y="-566.5" font-family="FreeSans.ttf" font-size="10.00" fill="#000000">yarp/os/Property.h</text>
</g>
<!-- Node0&#45;&gt;Node77 -->
<g id="edge127" class="edge">
<title>Node0&#45;&gt;Node77</title>
<path fill="none" stroke="#191970" d="M2248.3142,-622.8846C2335.5857,-617.7194 2559.9876,-603.1777 2757.8007,-579.0649"/>
<polygon fill="#191970" stroke="#191970" points="2758.2977,-582.5303 2767.7956,-577.8355 2757.443,-575.5826 2758.2977,-582.5303"/>
</g>
<!-- Node3&#45;&gt;Node1 -->
<g id="edge10" class="edge">
<title>Node3&#45;&gt;Node1</title>
<path fill="none" stroke="#191970" d="M242.8165,-363.9073C216.6276,-356.7019 188.5414,-344.0864 171,-322 142.3527,-285.9303 144.9135,-228.02 148.7316,-197.8011"/>
<polygon fill="#191970" stroke="#191970" points="152.2281,-198.0763 150.194,-187.6785 145.3,-197.0753 152.2281,-198.0763"/>
</g>
<!-- Node4 -->
<g id="node5" class="node">
<title>Node4</title>
<g id="a_node5"><a xlink:href="MatrixDynSize_8h.html" target="_top" xlink:title="iDynTree/Core/MatrixDynSize.h">
<polygon fill="none" stroke="#000000" points="471.5,-297 471.5,-316 638.5,-316 638.5,-297 471.5,-297"/>
<text text-anchor="middle" x="555" y="-304" font-family="FreeSans.ttf" font-size="10.00" fill="#000000">iDynTree/Core/MatrixDynSize.h</text>
</a>
</g>
</g>
<!-- Node3&#45;&gt;Node4 -->
<g id="edge4" class="edge">
<title>Node3&#45;&gt;Node4</title>
<path fill="none" stroke="#191970" d="M343.1268,-363.9717C386.8957,-352.0991 461.7634,-331.7909 509.7773,-318.7669"/>
<polygon fill="#191970" stroke="#191970" points="510.8596,-322.0999 519.5945,-316.1039 509.027,-315.344 510.8596,-322.0999"/>
</g>
<!-- Node5 -->
<g id="node6" class="node">
<title>Node5</title>
<polygon fill="none" stroke="#bfbfbf" points="1412,-56.5 1412,-75.5 1456,-75.5 1456,-56.5 1412,-56.5"/>
<text text-anchor="middle" x="1434" y="-63.5" font-family="FreeSans.ttf" font-size="10.00" fill="#000000">string</text>
</g>
<!-- Node3&#45;&gt;Node5 -->
<g id="edge11" class="edge">
<title>Node3&#45;&gt;Node5</title>
<path fill="none" stroke="#191970" d="M321.712,-363.801C344.0885,-348.0707 389.9789,-316.2153 430,-291 521.5151,-233.3411 544.3841,-218.5684 640,-168 691.3159,-140.8605 701.8342,-126.6724 758,-112 882.0256,-79.6004 1284.837,-69.0269 1401.851,-66.5994"/>
<polygon fill="#191970" stroke="#191970" points="1402.0299,-70.0966 1411.9572,-66.3954 1401.8886,-63.098 1402.0299,-70.0966"/>
</g>
<!-- Node6 -->
<g id="node7" class="node">
<title>Node6</title>
<g id="a_node7"><a xlink:href="Utils_8h.html" target="_top" xlink:title="iDynTree/Core/Utils.h">
<polygon fill="none" stroke="#000000" points="685.5,-56.5 685.5,-75.5 804.5,-75.5 804.5,-56.5 685.5,-56.5"/>
<text text-anchor="middle" x="745" y="-63.5" font-family="FreeSans.ttf" font-size="10.00" fill="#000000">iDynTree/Core/Utils.h</text>
</a>
</g>
</g>
<!-- Node3&#45;&gt;Node6 -->
<g id="edge6" class="edge">
<title>Node3&#45;&gt;Node6</title>
<path fill="none" stroke="#191970" d="M310.6976,-363.8377C316.5723,-341.9155 330,-286.6507 330,-239.5 330,-239.5 330,-239.5 330,-178 330,-124.7482 380.2409,-130.9679 430,-112 473.4928,-95.4208 596.1193,-80.7446 674.9176,-72.6445"/>
<polygon fill="#191970" stroke="#191970" points="675.6603,-76.0871 685.255,-71.5937 674.9523,-69.123 675.6603,-76.0871"/>
</g>
<!-- Node8 -->
<g id="node9" class="node">
<title>Node8</title>
<polygon fill="none" stroke="#bfbfbf" points="195,-.5 195,-19.5 259,-19.5 259,-.5 195,-.5"/>
<text text-anchor="middle" x="227" y="-7.5" font-family="FreeSans.ttf" font-size="10.00" fill="#000000">algorithm</text>
</g>
<!-- Node3&#45;&gt;Node8 -->
<g id="edge8" class="edge">
<title>Node3&#45;&gt;Node8</title>
<path fill="none" stroke="#191970" d="M238.4683,-368.5874C158.4692,-358.7121 38,-328.985 38,-239.5 38,-239.5 38,-239.5 38,-122 38,-54.1371 129.2977,-26.5044 184.9851,-15.9617"/>
<polygon fill="#191970" stroke="#191970" points="185.7088,-19.3879 194.9387,-14.1862 184.4795,-12.4967 185.7088,-19.3879"/>
</g>
<!-- Node9 -->
<g id="node10" class="node">
<title>Node9</title>
<polygon fill="none" stroke="#bfbfbf" points="180,-297 180,-316 236,-316 236,-297 180,-297"/>
<text text-anchor="middle" x="208" y="-304" font-family="FreeSans.ttf" font-size="10.00" fill="#000000">iomanip</text>
</g>
<!-- Node3&#45;&gt;Node9 -->
<g id="edge9" class="edge">
<title>Node3&#45;&gt;Node9</title>
<path fill="none" stroke="#191970" d="M293.6724,-363.9005C277.2615,-352.9052 250.1525,-334.7422 230.8249,-321.7927"/>
<polygon fill="#191970" stroke="#191970" points="232.5569,-318.7402 222.301,-316.0817 228.6605,-324.5556 232.5569,-318.7402"/>
</g>
<!-- Node10 -->
<g id="node11" class="node">
<title>Node10</title>
<polygon fill="none" stroke="#bfbfbf" points="2370.5,-297 2370.5,-316 2417.5,-316 2417.5,-297 2370.5,-297"/>
<text text-anchor="middle" x="2394" y="-304" font-family="FreeSans.ttf" font-size="10.00" fill="#000000">vector</text>
</g>
<!-- Node3&#45;&gt;Node10 -->
<g id="edge12" class="edge">
<title>Node3&#45;&gt;Node10</title>
<path fill="none" stroke="#191970" d="M377.8222,-367.6106C420.3346,-364.2494 475.7628,-360.2658 525,-358 1298.5689,-322.4022 1494.5665,-376.9777 2267,-322 2298.7413,-319.7408 2334.7293,-315.1561 2360.2706,-311.5561"/>
<polygon fill="#191970" stroke="#191970" points="2360.7925,-315.0171 2370.1943,-310.1328 2359.7987,-308.088 2360.7925,-315.0171"/>
</g>
<!-- Node11 -->
<g id="node12" class="node">
<title>Node11</title>
<polygon fill="none" stroke="#bfbfbf" points="2208.5,-297 2208.5,-316 2257.5,-316 2257.5,-297 2208.5,-297"/>
<text text-anchor="middle" x="2233" y="-304" font-family="FreeSans.ttf" font-size="10.00" fill="#000000">cstdlib</text>
</g>
<!-- Node3&#45;&gt;Node11 -->
<g id="edge13" class="edge">
<title>Node3&#45;&gt;Node11</title>
<path fill="none" stroke="#191970" d="M377.8237,-367.6437C420.3367,-364.2943 475.7649,-360.3116 525,-358 1234.6207,-324.6831 1414.9415,-379.6609 2123,-322 2148.2743,-319.9418 2176.6038,-315.909 2198.183,-312.4729"/>
<polygon fill="#191970" stroke="#191970" points="2198.8826,-315.9051 2208.1911,-310.8452 2197.7589,-308.9959 2198.8826,-315.9051"/>
</g>
<!-- Node12 -->
<g id="node13" class="node">
<title>Node12</title>
<polygon fill="none" stroke="#bfbfbf" points="254.5,-297 254.5,-316 301.5,-316 301.5,-297 254.5,-297"/>
<text text-anchor="middle" x="278" y="-304" font-family="FreeSans.ttf" font-size="10.00" fill="#000000">cmath</text>
</g>
<!-- Node3&#45;&gt;Node12 -->
<g id="edge14" class="edge">
<title>Node3&#45;&gt;Node12</title>
<path fill="none" stroke="#191970" d="M303.7017,-363.9005C299.2017,-353.8505 292.0204,-337.8122 286.3912,-325.2403"/>
<polygon fill="#191970" stroke="#191970" points="289.5714,-323.7782 282.2903,-316.0817 283.1826,-326.6389 289.5714,-323.7782"/>
</g>
<!-- Node4&#45;&gt;Node5 -->
<g id="edge5" class="edge">
<title>Node4&#45;&gt;Node5</title>
<path fill="none" stroke="#191970" d="M579.2052,-296.9999C659.2129,-265.9408 922.9395,-166.2908 1149,-112 1239.5016,-90.2651 1348.6753,-75.8574 1401.8068,-69.5839"/>
<polygon fill="#191970" stroke="#191970" points="1402.4365,-73.0344 1411.9656,-68.4034 1401.6284,-66.0811 1402.4365,-73.0344"/>
</g>
<!-- Node7 -->
<g id="node8" class="node">
<title>Node7</title>
<polygon fill="none" stroke="#bfbfbf" points="624.5,-.5 624.5,-19.5 677.5,-19.5 677.5,-.5 624.5,-.5"/>
<text text-anchor="middle" x="651" y="-7.5" font-family="FreeSans.ttf" font-size="10.00" fill="#000000">cstddef</text>
</g>
<!-- Node6&#45;&gt;Node7 -->
<g id="edge7" class="edge">
<title>Node6&#45;&gt;Node7</title>
<path fill="none" stroke="#191970" d="M728.6264,-56.2455C714.0692,-47.5731 692.569,-34.7645 675.8848,-24.825"/>
<polygon fill="#191970" stroke="#191970" points="677.5683,-21.7539 667.1859,-19.6427 673.9856,-27.7676 677.5683,-21.7539"/>
</g>
<!-- Node13&#45;&gt;Node10 -->
<g id="edge56" class="edge">
<title>Node13&#45;&gt;Node10</title>
<path fill="none" stroke="#191970" d="M2214.9284,-497.9397C2319.8343,-475.6503 2569.8113,-419.7963 2593,-389 2637.3101,-330.1528 2495.6379,-313.0218 2427.9383,-308.2501"/>
<polygon fill="#191970" stroke="#191970" points="2427.9544,-304.7438 2417.7479,-307.5859 2427.499,-311.729 2427.9544,-304.7438"/>
</g>
<!-- Node14 -->
<g id="node15" class="node">
<title>Node14</title>
<g id="a_node15"><a xlink:href="Indices_8h.html" target="_top" xlink:title="iDynTree/Model/Indices.h">
<polygon fill="none" stroke="#000000" points="1981,-230 1981,-249 2119,-249 2119,-230 1981,-230"/>
<text text-anchor="middle" x="2050" y="-237" font-family="FreeSans.ttf" font-size="10.00" fill="#000000">iDynTree/Model/Indices.h</text>
</a>
</g>
</g>
<!-- Node13&#45;&gt;Node14 -->
<g id="edge16" class="edge">
<title>Node13&#45;&gt;Node14</title>
<path fill="none" stroke="#191970" d="M2170.4409,-497.8288C2174.7416,-465.3915 2184.5226,-358.7023 2139,-291 2127.3176,-273.6256 2107.6597,-261.3617 2089.7859,-253.1723"/>
<polygon fill="#191970" stroke="#191970" points="2090.6726,-249.7451 2080.1015,-249.0353 2087.9226,-256.1824 2090.6726,-249.7451"/>
</g>
<!-- Node15 -->
<g id="node16" class="node">
<title>Node15</title>
<g id="a_node16"><a xlink:href="Model_8h.html" target="_top" xlink:title="iDynTree/Model/Model.h">
<polygon fill="none" stroke="#000000" points="2217.5,-431 2217.5,-450 2350.5,-450 2350.5,-431 2217.5,-431"/>
<text text-anchor="middle" x="2284" y="-438" font-family="FreeSans.ttf" font-size="10.00" fill="#000000">iDynTree/Model/Model.h</text>
</a>
</g>
</g>
<!-- Node13&#45;&gt;Node15 -->
<g id="edge18" class="edge">
<title>Node13&#45;&gt;Node15</title>
<path fill="none" stroke="#191970" d="M2185.4767,-497.9005C2204.6055,-486.7559 2236.3733,-468.2477 2258.6516,-455.2682"/>
<polygon fill="#191970" stroke="#191970" points="2260.6753,-458.1399 2267.5539,-450.0817 2257.1514,-452.0916 2260.6753,-458.1399"/>
</g>
<!-- Node56 -->
<g id="node19" class="node">
<title>Node56</title>
<g id="a_node19"><a xlink:href="Transform_8h.html" target="_top" xlink:title="iDynTree/Core/Transform.h">
<polygon fill="none" stroke="#000000" points="1534,-297 1534,-316 1680,-316 1680,-297 1534,-297"/>
<text text-anchor="middle" x="1607" y="-304" font-family="FreeSans.ttf" font-size="10.00" fill="#000000">iDynTree/Core/Transform.h</text>
</a>
</g>
</g>
<!-- Node13&#45;&gt;Node56 -->
<g id="edge55" class="edge">
<title>Node13&#45;&gt;Node56</title>
<path fill="none" stroke="#191970" d="M2070.4905,-503.3242C1890.6625,-495.2206 1525.8382,-476.3607 1507,-456 1466.3996,-412.1184 1542.4555,-350.2569 1583.3901,-321.8511"/>
<polygon fill="#191970" stroke="#191970" points="1585.4664,-324.6718 1591.7736,-316.1589 1581.5343,-318.8806 1585.4664,-324.6718"/>
</g>
<!-- Node14&#45;&gt;Node5 -->
<g id="edge17" class="edge">
<title>Node14&#45;&gt;Node5</title>
<path fill="none" stroke="#191970" d="M2029.3225,-229.9399C1977.5282,-206.3698 1837.5844,-144.9996 1715,-112 1626.5771,-88.1966 1518.992,-74.7563 1466.2721,-69.1448"/>
<polygon fill="#191970" stroke="#191970" points="1466.4897,-65.6486 1456.1814,-68.0956 1465.7658,-72.6111 1466.4897,-65.6486"/>
</g>
<!-- Node15&#45;&gt;Node10 -->
<g id="edge54" class="edge">
<title>Node15&#45;&gt;Node10</title>
<path fill="none" stroke="#191970" d="M2342.5135,-430.9437C2367.0434,-423.7327 2393.2467,-411.1026 2408,-389 2420.7346,-369.9218 2412.4353,-342.9945 2404.2037,-325.1574"/>
<polygon fill="#191970" stroke="#191970" points="2407.2559,-323.4358 2399.6482,-316.062 2400.9971,-326.5707 2407.2559,-323.4358"/>
</g>
<!-- Node15&#45;&gt;Node11 -->
<g id="edge53" class="edge">
<title>Node15&#45;&gt;Node11</title>
<path fill="none" stroke="#191970" d="M2250.859,-430.9505C2230.5535,-423.1956 2206.1921,-410.0236 2194,-389 2181.3643,-367.2114 2199.4646,-340.6669 2214.998,-323.6772"/>
<polygon fill="#191970" stroke="#191970" points="2217.8287,-325.7853 2222.2715,-316.167 2212.8003,-320.9155 2217.8287,-325.7853"/>
</g>
<!-- Node15&#45;&gt;Node14 -->
<g id="edge47" class="edge">
<title>Node15&#45;&gt;Node14</title>
<path fill="none" stroke="#191970" d="M2350.7692,-433.9436C2436.8833,-424.8033 2577.5104,-407.2848 2593,-389 2601.9056,-378.4873 2600.1716,-369.7642 2593,-358 2545.1959,-279.583 2268.2402,-252.2643 2129.3592,-243.4104"/>
<polygon fill="#191970" stroke="#191970" points="2129.3955,-239.906 2119.1979,-242.7799 2128.9619,-246.8926 2129.3955,-239.906"/>
</g>
<!-- Node16 -->
<g id="node17" class="node">
<title>Node16</title>
<g id="a_node17"><a xlink:href="IJoint_8h.html" target="_top" xlink:title="iDynTree/Model/IJoint.h">
<polygon fill="none" stroke="#000000" points="1986,-297 1986,-316 2114,-316 2114,-297 1986,-297"/>
<text text-anchor="middle" x="2050" y="-304" font-family="FreeSans.ttf" font-size="10.00" fill="#000000">iDynTree/Model/IJoint.h</text>
</a>
</g>
</g>
<!-- Node15&#45;&gt;Node16 -->
<g id="edge19" class="edge">
<title>Node15&#45;&gt;Node16</title>
<path fill="none" stroke="#191970" d="M2264.4391,-430.8245C2244.3145,-420.754 2212.1599,-404.3391 2185,-389 2145.4206,-366.6467 2100.5983,-338.7181 2073.8511,-321.7635"/>
<polygon fill="#191970" stroke="#191970" points="2075.4989,-318.6636 2065.1823,-316.2512 2071.7428,-324.5706 2075.4989,-318.6636"/>
</g>
<!-- Node17 -->
<g id="node18" class="node">
<title>Node17</title>
<g id="a_node18"><a xlink:href="Link_8h.html" target="_top" xlink:title="iDynTree/Model/Link.h">
<polygon fill="none" stroke="#ff0000" points="2460,-364 2460,-383 2584,-383 2584,-364 2460,-364"/>
<text text-anchor="middle" x="2522" y="-371" font-family="FreeSans.ttf" font-size="10.00" fill="#000000">iDynTree/Model/Link.h</text>
</a>
</g>
</g>
<!-- Node15&#45;&gt;Node17 -->
<g id="edge21" class="edge">
<title>Node15&#45;&gt;Node17</title>
<path fill="none" stroke="#191970" d="M2317.8468,-430.9717C2359.9327,-419.124 2431.859,-398.8758 2478.1344,-385.8487"/>
<polygon fill="#191970" stroke="#191970" points="2479.2072,-389.1828 2487.8846,-383.1039 2477.3103,-382.4447 2479.2072,-389.1828"/>
</g>
<!-- Node15&#45;&gt;Node56 -->
<g id="edge23" class="edge">
<title>Node15&#45;&gt;Node56</title>
<path fill="none" stroke="#191970" d="M2217.424,-437.1334C2073.334,-429.4944 1741.742,-409.8839 1695,-389 1662.9992,-374.7023 1635.2278,-343.837 1619.8336,-324.1784"/>
<polygon fill="#191970" stroke="#191970" points="1622.4906,-321.8897 1613.6607,-316.0344 1616.912,-326.1181 1622.4906,-321.8897"/>
</g>
<!-- Node58 -->
<g id="node28" class="node">
<title>Node58</title>
<g id="a_node28"><a xlink:href="SolidShapes_8h.html" target="_top" xlink:title="iDynTree/Model/SolidShapes.h">
<polygon fill="none" stroke="#000000" points="2202.5,-364 2202.5,-383 2365.5,-383 2365.5,-364 2202.5,-364"/>
<text text-anchor="middle" x="2284" y="-371" font-family="FreeSans.ttf" font-size="10.00" fill="#000000">iDynTree/Model/SolidShapes.h</text>
</a>
</g>
</g>
<!-- Node15&#45;&gt;Node58 -->
<g id="edge48" class="edge">
<title>Node15&#45;&gt;Node58</title>
<path fill="none" stroke="#191970" d="M2284,-430.9005C2284,-421.149 2284,-405.7597 2284,-393.3695"/>
<polygon fill="#191970" stroke="#191970" points="2287.5001,-393.0816 2284,-383.0817 2280.5001,-393.0817 2287.5001,-393.0816"/>
</g>
<!-- Node16&#45;&gt;Node14 -->
<g id="edge20" class="edge">
<title>Node16&#45;&gt;Node14</title>
<path fill="none" stroke="#191970" d="M2050,-296.9005C2050,-287.149 2050,-271.7597 2050,-259.3695"/>
<polygon fill="#191970" stroke="#191970" points="2053.5001,-259.0816 2050,-249.0817 2046.5001,-259.0817 2053.5001,-259.0816"/>
</g>
<!-- Node17&#45;&gt;Node14 -->
<g id="edge22" class="edge">
<title>Node17&#45;&gt;Node14</title>
<path fill="none" stroke="#191970" d="M2514.3192,-363.8549C2499.5386,-346.061 2465.2023,-308.3094 2427,-291 2375.4032,-267.6215 2223.7407,-252.4535 2129.2423,-244.9874"/>
<polygon fill="#191970" stroke="#191970" points="2129.3892,-241.4884 2119.1478,-244.202 2128.8461,-248.4673 2129.3892,-241.4884"/>
</g>
<!-- Node56&#45;&gt;Node5 -->
<g id="edge46" class="edge">
<title>Node56&#45;&gt;Node5</title>
<path fill="none" stroke="#191970" d="M1603.4462,-296.6214C1592.162,-266.2679 1554.6397,-172.7463 1500,-112 1488.9515,-99.7167 1474.0219,-88.9635 1461.1568,-80.949"/>
<polygon fill="#191970" stroke="#191970" points="1462.6174,-77.7444 1452.2389,-75.6145 1459.024,-83.7517 1462.6174,-77.7444"/>
</g>
<!-- Node44 -->
<g id="node20" class="node">
<title>Node44</title>
<g id="a_node20"><a xlink:href="Position_8h.html" target="_top" xlink:title="Position.h">
<polygon fill="none" stroke="#ff0000" points="1475.5,-230 1475.5,-249 1540.5,-249 1540.5,-230 1475.5,-230"/>
<text text-anchor="middle" x="1508" y="-237" font-family="FreeSans.ttf" font-size="10.00" fill="#000000">Position.h</text>
</a>
</g>
</g>
<!-- Node56&#45;&gt;Node44 -->
<g id="edge24" class="edge">
<title>Node56&#45;&gt;Node44</title>
<path fill="none" stroke="#191970" d="M1592.8157,-296.9005C1576.5689,-285.9052 1549.7309,-267.7422 1530.5966,-254.7927"/>
<polygon fill="#191970" stroke="#191970" points="1532.4014,-251.7879 1522.158,-249.0817 1528.478,-257.5851 1532.4014,-251.7879"/>
</g>
<!-- Node38 -->
<g id="node21" class="node">
<title>Node38</title>
<g id="a_node21"><a xlink:href="Rotation_8h.html" target="_top" xlink:title="iDynTree/Core/Rotation.h">
<polygon fill="none" stroke="#ff0000" points="1365.5,-168.5 1365.5,-187.5 1502.5,-187.5 1502.5,-168.5 1365.5,-168.5"/>
<text text-anchor="middle" x="1434" y="-175.5" font-family="FreeSans.ttf" font-size="10.00" fill="#000000">iDynTree/Core/Rotation.h</text>
</a>
</g>
</g>
<!-- Node56&#45;&gt;Node38 -->
<g id="edge37" class="edge">
<title>Node56&#45;&gt;Node38</title>
<path fill="none" stroke="#191970" d="M1551.611,-296.9969C1523.3284,-289.672 1490.1068,-276.9267 1467,-255 1450.8164,-239.6429 1442.1788,-215.0429 1437.8547,-197.7909"/>
<polygon fill="#191970" stroke="#191970" points="1441.1938,-196.6838 1435.6001,-187.686 1434.3618,-198.2082 1441.1938,-196.6838"/>
</g>
<!-- Node57 -->
<g id="node26" class="node">
<title>Node57</title>
<g id="a_node26"><a xlink:href="TransformSemantics_8h.html" target="_top" xlink:title="iDynTree/Core/TransformSemantics.h">
<polygon fill="none" stroke="#000000" points="766.5,-112.5 766.5,-131.5 963.5,-131.5 963.5,-112.5 766.5,-112.5"/>
<text text-anchor="middle" x="865" y="-119.5" font-family="FreeSans.ttf" font-size="10.00" fill="#000000">iDynTree/Core/TransformSemantics.h</text>
</a>
</g>
</g>
<!-- Node56&#45;&gt;Node57 -->
<g id="edge38" class="edge">
<title>Node56&#45;&gt;Node57</title>
<path fill="none" stroke="#191970" d="M1568.6693,-296.969C1444.1781,-266.014 1051.3025,-168.3245 913.4116,-134.0377"/>
<polygon fill="#191970" stroke="#191970" points="914.0958,-130.6013 903.5467,-131.5847 912.4066,-137.3944 914.0958,-130.6013"/>
</g>
<!-- Node21 -->
<g id="node27" class="node">
<title>Node21</title>
<g id="a_node27"><a xlink:href="MatrixFixSize_8h.html" target="_top" xlink:title="iDynTree/Core/MatrixFixSize.h">
<polygon fill="none" stroke="#ff0000" points="1078.5,-230 1078.5,-249 1239.5,-249 1239.5,-230 1078.5,-230"/>
<text text-anchor="middle" x="1159" y="-237" font-family="FreeSans.ttf" font-size="10.00" fill="#000000">iDynTree/Core/MatrixFixSize.h</text>
</a>
</g>
</g>
<!-- Node56&#45;&gt;Node21 -->
<g id="edge41" class="edge">
<title>Node56&#45;&gt;Node21</title>
<path fill="none" stroke="#191970" d="M1558.5039,-296.9423C1547.5053,-294.8835 1535.8645,-292.7902 1525,-291 1497.34,-286.4424 1336.9013,-264.1101 1237.8448,-250.3931"/>
<polygon fill="#191970" stroke="#191970" points="1238.2496,-246.9159 1227.8641,-249.0114 1237.2896,-253.8497 1238.2496,-246.9159"/>
</g>
<!-- Node44&#45;&gt;Node5 -->
<g id="edge36" class="edge">
<title>Node44&#45;&gt;Node5</title>
<path fill="none" stroke="#191970" d="M1510.7456,-229.9413C1514.2831,-215.9342 1519.1759,-189.197 1512,-168 1500.2514,-133.2955 1471.4382,-101.1101 1452.3143,-82.5136"/>
<polygon fill="#191970" stroke="#191970" points="1454.7032,-79.9555 1445.0315,-75.6299 1449.8947,-85.0427 1454.7032,-79.9555"/>
</g>
<!-- Node44&#45;&gt;Node38 -->
<g id="edge25" class="edge">
<title>Node44&#45;&gt;Node38</title>
<path fill="none" stroke="#191970" d="M1496.4375,-229.8906C1484.9921,-220.3786 1467.2527,-205.6357 1453.603,-194.2917"/>
<polygon fill="#191970" stroke="#191970" points="1455.6533,-191.4447 1445.7255,-187.7449 1451.1792,-196.8283 1455.6533,-191.4447"/>
</g>
<!-- Node38&#45;&gt;Node5 -->
<g id="edge26" class="edge">
<title>Node38&#45;&gt;Node5</title>
<path fill="none" stroke="#191970" d="M1434,-168.4509C1434,-150.184 1434,-109.9553 1434,-85.6976"/>
<polygon fill="#191970" stroke="#191970" points="1437.5001,-85.5249 1434,-75.5249 1430.5001,-85.5249 1437.5001,-85.5249"/>
</g>
<!-- Node25 -->
<g id="node22" class="node">
<title>Node25</title>
<g id="a_node22"><a xlink:href="VectorFixSize_8h.html" target="_top" xlink:title="iDynTree/Core/VectorFixSize.h">
<polygon fill="none" stroke="#ff0000" points="472.5,-112.5 472.5,-131.5 633.5,-131.5 633.5,-112.5 472.5,-112.5"/>
<text text-anchor="middle" x="553" y="-119.5" font-family="FreeSans.ttf" font-size="10.00" fill="#000000">iDynTree/Core/VectorFixSize.h</text>
</a>
</g>
</g>
<!-- Node38&#45;&gt;Node25 -->
<g id="edge27" class="edge">
<title>Node38&#45;&gt;Node25</title>
<path fill="none" stroke="#191970" d="M1365.2364,-173.6291C1207.6264,-163.6108 820.3017,-138.9908 643.5662,-127.7568"/>
<polygon fill="#191970" stroke="#191970" points="643.7167,-124.2594 633.5148,-127.1179 643.2726,-131.2453 643.7167,-124.2594"/>
</g>
<!-- Node25&#45;&gt;Node5 -->
<g id="edge34" class="edge">
<title>Node25&#45;&gt;Node5</title>
<path fill="none" stroke="#191970" d="M633.5184,-116.8819C820.2858,-105.0102 1276.6065,-76.0046 1401.7823,-68.0479"/>
<polygon fill="#191970" stroke="#191970" points="1402.1107,-71.5342 1411.8685,-67.4068 1401.6666,-64.5483 1402.1107,-71.5342"/>
</g>
<!-- Node25&#45;&gt;Node6 -->
<g id="edge28" class="edge">
<title>Node25&#45;&gt;Node6</title>
<path fill="none" stroke="#191970" d="M586.006,-112.3733C618.2091,-102.9807 667.3442,-88.6496 702.4639,-78.4064"/>
<polygon fill="#191970" stroke="#191970" points="703.8047,-81.6612 712.4247,-75.5011 701.8447,-74.9412 703.8047,-81.6612"/>
</g>
<!-- Node26 -->
<g id="node23" class="node">
<title>Node26</title>
<g id="a_node23"><a xlink:href="Span_8h.html" target="_top" xlink:title="iDynTree/Core/Span.h">
<polygon fill="none" stroke="#ff0000" points="497.5,-56.5 497.5,-75.5 618.5,-75.5 618.5,-56.5 497.5,-56.5"/>
<text text-anchor="middle" x="558" y="-63.5" font-family="FreeSans.ttf" font-size="10.00" fill="#000000">iDynTree/Core/Span.h</text>
</a>
</g>
</g>
<!-- Node25&#45;&gt;Node26 -->
<g id="edge29" class="edge">
<title>Node25&#45;&gt;Node26</title>
<path fill="none" stroke="#191970" d="M553.8709,-112.2455C554.5234,-104.9382 555.438,-94.6944 556.2407,-85.7046"/>
<polygon fill="#191970" stroke="#191970" points="559.7358,-85.9143 557.139,-75.6427 552.7635,-85.2918 559.7358,-85.9143"/>
</g>
<!-- Node22 -->
<g id="node24" class="node">
<title>Node22</title>
<polygon fill="none" stroke="#bfbfbf" points="452,-.5 452,-19.5 504,-19.5 504,-.5 452,-.5"/>
<text text-anchor="middle" x="478" y="-7.5" font-family="FreeSans.ttf" font-size="10.00" fill="#000000">cassert</text>
</g>
<!-- Node25&#45;&gt;Node22 -->
<g id="edge35" class="edge">
<title>Node25&#45;&gt;Node22</title>
<path fill="none" stroke="#191970" d="M532.0267,-112.4104C517.5693,-104.6742 499.1891,-92.3836 489,-76 480.4689,-62.2824 477.9603,-43.9926 477.4486,-30.1458"/>
<polygon fill="#191970" stroke="#191970" points="480.9468,-29.7409 477.4001,-19.7574 473.9469,-29.7737 480.9468,-29.7409"/>
</g>
<!-- Node26&#45;&gt;Node7 -->
<g id="edge32" class="edge">
<title>Node26&#45;&gt;Node7</title>
<path fill="none" stroke="#191970" d="M574.1994,-56.2455C588.6018,-47.5731 609.8732,-34.7645 626.3799,-24.825"/>
<polygon fill="#191970" stroke="#191970" points="628.225,-27.7996 634.9863,-19.6427 624.614,-21.8028 628.225,-27.7996"/>
</g>
<!-- Node26&#45;&gt;Node8 -->
<g id="edge31" class="edge">
<title>Node26&#45;&gt;Node8</title>
<path fill="none" stroke="#191970" d="M501.4752,-56.4369C435.6331,-45.2974 328.3667,-27.1496 269.3146,-17.159"/>
<polygon fill="#191970" stroke="#191970" points="269.6625,-13.6682 259.2187,-15.4509 268.4947,-20.5701 269.6625,-13.6682"/>
</g>
<!-- Node26&#45;&gt;Node22 -->
<g id="edge30" class="edge">
<title>Node26&#45;&gt;Node22</title>
<path fill="none" stroke="#191970" d="M544.0651,-56.2455C531.9053,-47.7337 514.0536,-35.2375 499.9715,-25.3801"/>
<polygon fill="#191970" stroke="#191970" points="501.9747,-22.51 491.7752,-19.6427 497.9605,-28.2447 501.9747,-22.51"/>
</g>
<!-- Node28 -->
<g id="node25" class="node">
<title>Node28</title>
<polygon fill="none" stroke="#bfbfbf" points="1853.5,-.5 1853.5,-19.5 1906.5,-19.5 1906.5,-.5 1853.5,-.5"/>
<text text-anchor="middle" x="1880" y="-7.5" font-family="FreeSans.ttf" font-size="10.00" fill="#000000">iterator</text>
</g>
<!-- Node26&#45;&gt;Node28 -->
<g id="edge33" class="edge">
<title>Node26&#45;&gt;Node28</title>
<path fill="none" stroke="#191970" d="M618.8053,-60.3525C637.4633,-58.7644 658.065,-57.157 677,-56 1136.4566,-27.9255 1695.7396,-14.1105 1843.0298,-10.7986"/>
<polygon fill="#191970" stroke="#191970" points="1843.386,-14.2916 1853.3056,-10.5696 1843.23,-7.2934 1843.386,-14.2916"/>
</g>
<!-- Node57&#45;&gt;Node5 -->
<g id="edge39" class="edge">
<title>Node57&#45;&gt;Node5</title>
<path fill="none" stroke="#191970" d="M961.8454,-112.4686C1092.3777,-99.6219 1318.0437,-77.4122 1401.6338,-69.1854"/>
<polygon fill="#191970" stroke="#191970" points="1402.1778,-72.6489 1411.7869,-68.1862 1401.4921,-65.6825 1402.1778,-72.6489"/>
</g>
<!-- Node57&#45;&gt;Node6 -->
<g id="edge40" class="edge">
<title>Node57&#45;&gt;Node6</title>
<path fill="none" stroke="#191970" d="M844.3713,-112.3733C825.1081,-103.3838 796.1514,-89.8706 774.4581,-79.7471"/>
<polygon fill="#191970" stroke="#191970" points="775.9015,-76.5584 765.3595,-75.5011 772.9413,-82.9017 775.9015,-76.5584"/>
</g>
<!-- Node21&#45;&gt;Node1 -->
<g id="edge45" class="edge">
<title>Node21&#45;&gt;Node1</title>
<path fill="none" stroke="#191970" d="M1101.9073,-229.9726C1086.7008,-227.7141 1070.2585,-225.5221 1055,-224 722.6578,-190.8481 318.9854,-181.0276 192.1246,-178.6561"/>
<polygon fill="#191970" stroke="#191970" points="192.1516,-175.1562 182.0895,-178.4735 192.0241,-182.155 192.1516,-175.1562"/>
</g>
<!-- Node21&#45;&gt;Node5 -->
<g id="edge44" class="edge">
<title>Node21&#45;&gt;Node5</title>
<path fill="none" stroke="#191970" d="M1169.0747,-229.6882C1193.214,-206.5987 1256.975,-148.0646 1319,-112 1345.6756,-96.4894 1378.5798,-83.9139 1402.348,-75.8565"/>
<polygon fill="#191970" stroke="#191970" points="1403.5367,-79.1499 1411.9302,-72.6846 1401.3369,-72.5045 1403.5367,-79.1499"/>
</g>
<!-- Node21&#45;&gt;Node6 -->
<g id="edge42" class="edge">
<title>Node21&#45;&gt;Node6</title>
<path fill="none" stroke="#191970" d="M1125.9448,-229.9371C1077.2499,-215.925 983.3156,-189.1814 903,-168 838.7943,-151.0672 803.7913,-180.0858 758,-132 746.448,-119.8691 743.76,-100.6122 743.6296,-86.0231"/>
<polygon fill="#191970" stroke="#191970" points="747.1296,-86.0701 743.924,-75.9719 740.1326,-85.8651 747.1296,-86.0701"/>
</g>
<!-- Node21&#45;&gt;Node22 -->
<g id="edge43" class="edge">
<title>Node21&#45;&gt;Node22</title>
<path fill="none" stroke="#191970" d="M1099.7394,-229.9729C1047.5018,-221.0085 969.5657,-206.2506 903,-188 830.3406,-168.0787 810.4984,-165.4695 743,-132 688.1131,-104.784 683.4086,-82.1375 628,-56 590.7054,-38.4073 545.0645,-25.5355 513.9904,-17.9532"/>
<polygon fill="#191970" stroke="#191970" points="514.5825,-14.4964 504.0438,-15.5855 512.9614,-21.3062 514.5825,-14.4964"/>
</g>
<!-- Node58&#45;&gt;Node5 -->
<g id="edge50" class="edge">
<title>Node58&#45;&gt;Node5</title>
<path fill="none" stroke="#191970" d="M2284.2452,-363.749C2284.7793,-341.6453 2286,-286.033 2286,-239.5 2286,-239.5 2286,-239.5 2286,-178 2286,-93.7715 1622.9852,-70.9902 1466.7109,-66.7905"/>
<polygon fill="#191970" stroke="#191970" points="1466.4391,-63.2823 1456.351,-66.5196 1466.2561,-70.2799 1466.4391,-63.2823"/>
</g>
<!-- Node58&#45;&gt;Node10 -->
<g id="edge51" class="edge">
<title>Node58&#45;&gt;Node10</title>
<path fill="none" stroke="#191970" d="M2299.7603,-363.9005C2317.9757,-352.8057 2348.173,-334.4128 2369.4677,-321.4424"/>
<polygon fill="#191970" stroke="#191970" points="2371.5491,-324.2728 2378.2689,-316.0817 2367.9077,-318.2945 2371.5491,-324.2728"/>
</g>
<!-- Node58&#45;&gt;Node11 -->
<g id="edge49" class="edge">
<title>Node58&#45;&gt;Node11</title>
<path fill="none" stroke="#191970" d="M2276.6929,-363.9005C2268.8157,-353.552 2256.1054,-336.8542 2246.4194,-324.1295"/>
<polygon fill="#191970" stroke="#191970" points="2249.1354,-321.9188 2240.2935,-316.0817 2243.5654,-326.1586 2249.1354,-321.9188"/>
</g>
<!-- Node58&#45;&gt;Node56 -->
<g id="edge52" class="edge">
<title>Node58&#45;&gt;Node56</title>
<path fill="none" stroke="#191970" d="M2202.4613,-367.4636C2063.3849,-356.9962 1785.9413,-335.3232 1689,-322 1680.5405,-320.8374 1671.6299,-319.3885 1662.9243,-317.8469"/>
<polygon fill="#191970" stroke="#191970" points="1663.3041,-314.3584 1652.8382,-316.006 1662.0472,-321.2447 1663.3041,-314.3584"/>
</g>
<!-- Node59&#45;&gt;Node3 -->
<g id="edge99" class="edge">
<title>Node59&#45;&gt;Node3</title>
<path fill="none" stroke="#191970" d="M1528.4773,-506.2811C1293.2917,-501.9984 553.0116,-486.24 450,-456 402.5632,-442.0745 354.2402,-409.1637 327.9949,-389.3753"/>
<polygon fill="#191970" stroke="#191970" points="330.0364,-386.53 319.9739,-383.2139 325.7721,-392.0813 330.0364,-386.53"/>
</g>
<!-- Node59&#45;&gt;Node15 -->
<g id="edge58" class="edge">
<title>Node59&#45;&gt;Node15</title>
<path fill="none" stroke="#191970" d="M1671.5854,-500.488C1801.1326,-487.7984 2073.3846,-461.1305 2206.8797,-448.0542"/>
<polygon fill="#191970" stroke="#191970" points="2207.4145,-451.5186 2217.0257,-447.0604 2206.7321,-444.552 2207.4145,-451.5186"/>
</g>
<!-- Node59&#45;&gt;Node16 -->
<g id="edge101" class="edge">
<title>Node59&#45;&gt;Node16</title>
<path fill="none" stroke="#191970" d="M1643.4651,-492.4847C1698.4493,-472.6076 1795.1125,-434.6866 1871,-389 1889.9697,-377.5797 1890.6978,-368.8489 1910,-358 1940.0908,-341.0874 1976.7984,-327.8255 2005.0759,-318.9974"/>
<polygon fill="#191970" stroke="#191970" points="2006.1582,-322.3266 2014.7018,-316.0611 2004.1157,-315.6312 2006.1582,-322.3266"/>
</g>
<!-- Node59&#45;&gt;Node22 -->
<g id="edge100" class="edge">
<title>Node59&#45;&gt;Node22</title>
<path fill="none" stroke="#191970" d="M1528.3123,-507.0026C1301.6946,-505.0323 602.6415,-495.8023 380,-456 188.6572,-421.793 0,-433.8764 0,-239.5 0,-239.5 0,-239.5 0,-178 0,-84.3716 330.5439,-30.2865 441.8886,-14.7238"/>
<polygon fill="#191970" stroke="#191970" points="442.5316,-18.1684 451.9612,-13.338 441.5774,-11.2338 442.5316,-18.1684"/>
</g>
<!-- Node60 -->
<g id="node30" class="node">
<title>Node60</title>
<g id="a_node30"><a xlink:href="FixedJoint_8h.html" target="_top" xlink:title="iDynTree/Model/FixedJoint.h">
<polygon fill="none" stroke="#000000" points="1918.5,-364 1918.5,-383 2069.5,-383 2069.5,-364 1918.5,-364"/>
<text text-anchor="middle" x="1994" y="-371" font-family="FreeSans.ttf" font-size="10.00" fill="#000000">iDynTree/Model/FixedJoint.h</text>
</a>
</g>
</g>
<!-- Node59&#45;&gt;Node60 -->
<g id="edge59" class="edge">
<title>Node59&#45;&gt;Node60</title>
<path fill="none" stroke="#191970" d="M1671.5022,-500.1179C1748.1138,-491.3796 1864.0882,-475.5204 1904,-456 1935.7033,-440.4943 1964.2382,-410.26 1980.3154,-391.0148"/>
<polygon fill="#191970" stroke="#191970" points="1983.2059,-393.0074 1986.7923,-383.038 1977.7717,-388.595 1983.2059,-393.0074"/>
</g>
<!-- Node61 -->
<g id="node31" class="node">
<title>Node61</title>
<g id="a_node31"><a xlink:href="RevoluteJoint_8h.html" target="_top" xlink:title="iDynTree/Model/RevoluteJoint.h">
<polygon fill="none" stroke="#000000" points="1516,-431 1516,-450 1684,-450 1684,-431 1516,-431"/>
<text text-anchor="middle" x="1600" y="-438" font-family="FreeSans.ttf" font-size="10.00" fill="#000000">iDynTree/Model/RevoluteJoint.h</text>
</a>
</g>
</g>
<!-- Node59&#45;&gt;Node61 -->
<g id="edge63" class="edge">
<title>Node59&#45;&gt;Node61</title>
<path fill="none" stroke="#191970" d="M1600,-492.2967C1600,-482.7699 1600,-470.3954 1600,-460.1306"/>
<polygon fill="#191970" stroke="#191970" points="1603.5001,-460.0549 1600,-450.055 1596.5001,-460.055 1603.5001,-460.0549"/>
</g>
<!-- Node65 -->
<g id="node35" class="node">
<title>Node65</title>
<g id="a_node35"><a xlink:href="FreeFloatingState_8h.html" target="_top" xlink:title="iDynTree/Model/FreeFloating\lState.h">
<polygon fill="none" stroke="#000000" points="1242,-425.5 1242,-455.5 1396,-455.5 1396,-425.5 1242,-425.5"/>
<text text-anchor="start" x="1250" y="-443.5" font-family="FreeSans.ttf" font-size="10.00" fill="#000000">iDynTree/Model/FreeFloating</text>
<text text-anchor="middle" x="1319" y="-432.5" font-family="FreeSans.ttf" font-size="10.00" fill="#000000">State.h</text>
</a>
</g>
</g>
<!-- Node59&#45;&gt;Node65 -->
<g id="edge74" class="edge">
<title>Node59&#45;&gt;Node65</title>
<path fill="none" stroke="#191970" d="M1536.9381,-492.4639C1494.064,-482.2412 1437.1992,-468.6827 1392.3061,-457.9787"/>
<polygon fill="#191970" stroke="#191970" points="1392.876,-454.5165 1382.3369,-455.6017 1391.2525,-461.3257 1392.876,-454.5165"/>
</g>
<!-- Node67 -->
<g id="node38" class="node">
<title>Node67</title>
<g id="a_node38"><a xlink:href="LinkState_8h.html" target="_top" xlink:title="iDynTree/Model/LinkState.h">
<polygon fill="none" stroke="#000000" points="1221.5,-364 1221.5,-383 1370.5,-383 1370.5,-364 1221.5,-364"/>
<text text-anchor="middle" x="1296" y="-371" font-family="FreeSans.ttf" font-size="10.00" fill="#000000">iDynTree/Model/LinkState.h</text>
</a>
</g>
</g>
<!-- Node59&#45;&gt;Node67 -->
<g id="edge98" class="edge">
<title>Node59&#45;&gt;Node67</title>
<path fill="none" stroke="#191970" d="M1528.4563,-502.4537C1427.1691,-494.5718 1252.0762,-477.94 1233,-456 1213.4317,-433.494 1245.4894,-405.6101 1270.6043,-388.7062"/>
<polygon fill="#191970" stroke="#191970" points="1272.6049,-391.5806 1279.1022,-383.2118 1268.8042,-385.7023 1272.6049,-391.5806"/>
</g>
<!-- Node60&#45;&gt;Node14 -->
<g id="edge61" class="edge">
<title>Node60&#45;&gt;Node14</title>
<path fill="none" stroke="#191970" d="M2056.824,-363.9782C2081.7396,-356.7853 2107.9861,-344.16 2123,-322 2130.728,-310.5937 2129.3403,-303.2322 2123,-291 2114.4886,-274.579 2098.0666,-262.2816 2082.9507,-253.8292"/>
<polygon fill="#191970" stroke="#191970" points="2084.2764,-250.5735 2073.7901,-249.0608 2081.0443,-256.7827 2084.2764,-250.5735"/>
</g>
<!-- Node60&#45;&gt;Node16 -->
<g id="edge62" class="edge">
<title>Node60&#45;&gt;Node16</title>
<path fill="none" stroke="#191970" d="M2002.0234,-363.9005C2010.7561,-353.4525 2024.8982,-336.5325 2035.5708,-323.7635"/>
<polygon fill="#191970" stroke="#191970" points="2038.2638,-325.9991 2041.9914,-316.0817 2032.8928,-321.5099 2038.2638,-325.9991"/>
</g>
<!-- Node60&#45;&gt;Node56 -->
<g id="edge60" class="edge">
<title>Node60&#45;&gt;Node56</title>
<path fill="none" stroke="#191970" d="M1935.4706,-363.9659C1874.0264,-353.8753 1774.6356,-337.322 1689,-322 1681.6619,-320.6871 1673.961,-319.2757 1666.3397,-317.8586"/>
<polygon fill="#191970" stroke="#191970" points="1666.8766,-314.3985 1656.4036,-316.0002 1665.5896,-321.2791 1666.8766,-314.3985"/>
</g>
<!-- Node61&#45;&gt;Node14 -->
<g id="edge71" class="edge">
<title>Node61&#45;&gt;Node14</title>
<path fill="none" stroke="#191970" d="M1609.6989,-430.8101C1629.7377,-411.0098 1675.4629,-367.0145 1695,-358 1792.5384,-312.9953 1834.5266,-362.5487 1934,-322 1955.8168,-313.1068 1957.8186,-304.6797 1977,-291 1994.0454,-278.8436 2013.4113,-265.1886 2027.9115,-254.9951"/>
<polygon fill="#191970" stroke="#191970" points="2030.0758,-257.752 2036.2468,-249.1398 2026.0521,-252.024 2030.0758,-257.752"/>
</g>
<!-- Node61&#45;&gt;Node56 -->
<g id="edge64" class="edge">
<title>Node61&#45;&gt;Node56</title>
<path fill="none" stroke="#191970" d="M1584.9074,-430.7328C1572.3721,-421.6386 1555.4339,-406.8251 1548,-389 1542.6967,-376.2838 1542.2993,-370.5431 1548,-358 1554.8563,-342.9144 1568.5565,-330.5202 1581.0303,-321.674"/>
<polygon fill="#191970" stroke="#191970" points="1582.9824,-324.5791 1589.3709,-316.1269 1579.106,-318.7504 1582.9824,-324.5791"/>
</g>
<!-- Node34 -->
<g id="node32" class="node">
<title>Node34</title>
<g id="a_node32"><a xlink:href="SpatialMotionVector_8h.html" target="_top" xlink:title="iDynTree/Core/SpatialMotion\lVector.h">
<polygon fill="none" stroke="#ff0000" points="890.5,-224.5 890.5,-254.5 1045.5,-254.5 1045.5,-224.5 890.5,-224.5"/>
<text text-anchor="start" x="898.5" y="-242.5" font-family="FreeSans.ttf" font-size="10.00" fill="#000000">iDynTree/Core/SpatialMotion</text>
<text text-anchor="middle" x="968" y="-231.5" font-family="FreeSans.ttf" font-size="10.00" fill="#000000">Vector.h</text>
</a>
</g>
</g>
<!-- Node61&#45;&gt;Node34 -->
<g id="edge65" class="edge">
<title>Node61&#45;&gt;Node34</title>
<path fill="none" stroke="#191970" d="M1515.6891,-432.2827C1339.5876,-414.2492 945.8339,-369.0471 908,-322 891.7618,-301.8076 913.6824,-277.7486 935.4489,-260.8382"/>
<polygon fill="#191970" stroke="#191970" points="937.7469,-263.4918 943.7037,-254.7301 933.5832,-257.8648 937.7469,-263.4918"/>
</g>
<!-- Node62 -->
<g id="node33" class="node">
<title>Node62</title>
<g id="a_node33"><a xlink:href="Axis_8h.html" target="_top" xlink:title="iDynTree/Core/Axis.h">
<polygon fill="none" stroke="#ff0000" points="1698,-297 1698,-316 1816,-316 1816,-297 1698,-297"/>
<text text-anchor="middle" x="1757" y="-304" font-family="FreeSans.ttf" font-size="10.00" fill="#000000">iDynTree/Core/Axis.h</text>
</a>
</g>
</g>
<!-- Node61&#45;&gt;Node62 -->
<g id="edge67" class="edge">
<title>Node61&#45;&gt;Node62</title>
<path fill="none" stroke="#191970" d="M1605.3998,-430.7854C1615.0107,-414.1778 1636.4898,-379.9954 1662,-358 1680.3539,-342.175 1704.3736,-329.2077 1723.6682,-320.2435"/>
<polygon fill="#191970" stroke="#191970" points="1725.3093,-323.3431 1732.9928,-316.0483 1722.4372,-316.9594 1725.3093,-323.3431"/>
</g>
<!-- Node64 -->
<g id="node34" class="node">
<title>Node64</title>
<g id="a_node34"><a xlink:href="MovableJointImpl_8h.html" target="_top" xlink:title="iDynTree/Model/MovableJoint\lImpl.h">
<polygon fill="none" stroke="#000000" points="1704,-358.5 1704,-388.5 1862,-388.5 1862,-358.5 1704,-358.5"/>
<text text-anchor="start" x="1712" y="-376.5" font-family="FreeSans.ttf" font-size="10.00" fill="#000000">iDynTree/Model/MovableJoint</text>
<text text-anchor="middle" x="1783" y="-365.5" font-family="FreeSans.ttf" font-size="10.00" fill="#000000">Impl.h</text>
</a>
</g>
</g>
<!-- Node61&#45;&gt;Node64 -->
<g id="edge72" class="edge">
<title>Node61&#45;&gt;Node64</title>
<path fill="none" stroke="#191970" d="M1626.2194,-430.9005C1653.8626,-420.7798 1698.0924,-404.5864 1732.5368,-391.9756"/>
<polygon fill="#191970" stroke="#191970" points="1733.7833,-395.2465 1741.9704,-388.5218 1731.3766,-388.6732 1733.7833,-395.2465"/>
</g>
<!-- Node34&#45;&gt;Node25 -->
<g id="edge66" class="edge">
<title>Node34&#45;&gt;Node25</title>
<path fill="none" stroke="#191970" d="M925.9338,-224.3896C882.4673,-209.0722 812.4923,-185.236 751,-168 703.5409,-154.6975 648.9332,-142.2183 609.1026,-133.6234"/>
<polygon fill="#191970" stroke="#191970" points="609.8193,-130.1976 599.3078,-131.5238 608.3521,-137.0422 609.8193,-130.1976"/>
</g>
<!-- Node62&#45;&gt;Node5 -->
<g id="edge68" class="edge">
<title>Node62&#45;&gt;Node5</title>
<path fill="none" stroke="#191970" d="M1746.7824,-296.7698C1715.0441,-266.8434 1614.6653,-174.4206 1521,-112 1502.8859,-99.9284 1481.2532,-88.4788 1464.0908,-80.0221"/>
<polygon fill="#191970" stroke="#191970" points="1465.5919,-76.8603 1455.0667,-75.6469 1462.538,-83.159 1465.5919,-76.8603"/>
</g>
<!-- Node62&#45;&gt;Node6 -->
<g id="edge70" class="edge">
<title>Node62&#45;&gt;Node6</title>
<path fill="none" stroke="#191970" d="M1738.4886,-296.8233C1719.0762,-286.6164 1687.7341,-269.9694 1661,-255 1594.0906,-217.535 1584.5379,-192.8745 1512,-168 1383.465,-123.9232 979.0766,-85.8101 815.1026,-71.7618"/>
<polygon fill="#191970" stroke="#191970" points="814.9162,-68.2333 804.6551,-70.8714 814.3217,-75.208 814.9162,-68.2333"/>
</g>
<!-- Node62&#45;&gt;Node44 -->
<g id="edge69" class="edge">
<title>Node62&#45;&gt;Node44</title>
<path fill="none" stroke="#191970" d="M1716.1513,-296.9606C1675.1887,-287.1896 1610.4112,-271.1796 1555,-255 1552.0438,-254.1368 1548.9939,-253.2115 1545.9347,-252.2583"/>
<polygon fill="#191970" stroke="#191970" points="1546.8254,-248.8686 1536.2346,-249.1612 1544.6962,-255.537 1546.8254,-248.8686"/>
</g>
<!-- Node64&#45;&gt;Node16 -->
<g id="edge73" class="edge">
<title>Node64&#45;&gt;Node16</title>
<path fill="none" stroke="#191970" d="M1842.92,-358.4639C1891.0909,-346.3761 1957.8491,-329.624 2002.4091,-318.4423"/>
<polygon fill="#191970" stroke="#191970" points="2003.2733,-321.834 2012.1207,-316.0053 2001.5695,-315.0445 2003.2733,-321.834"/>
</g>
<!-- Node65&#45;&gt;Node10 -->
<g id="edge97" class="edge">
<title>Node65&#45;&gt;Node10</title>
<path fill="none" stroke="#191970" d="M1396.2392,-433.4173C1430.1921,-430.4886 1470.554,-427.2573 1507,-425 1555.1714,-422.0165 2337.8675,-419.8311 2375,-389 2393.1494,-373.9305 2396.0095,-345.3285 2395.6176,-326.0858"/>
<polygon fill="#191970" stroke="#191970" points="2399.1087,-325.8186 2395.1021,-316.0106 2392.1178,-326.1764 2399.1087,-325.8186"/>
</g>
<!-- Node65&#45;&gt;Node14 -->
<g id="edge81" class="edge">
<title>Node65&#45;&gt;Node14</title>
<path fill="none" stroke="#191970" d="M1372.8591,-425.4554C1438.4099,-407.5406 1552.66,-377.5867 1652,-358 1759.5479,-336.795 1795.7036,-366.2361 1896,-322 1915.9424,-313.2043 1915.4305,-302.4121 1934,-291 1959.2962,-275.4539 1990.1014,-262.005 2013.6076,-252.7527"/>
<polygon fill="#191970" stroke="#191970" points="2015.129,-255.9172 2023.1974,-249.0505 2012.6079,-249.3869 2015.129,-255.9172"/>
</g>
<!-- Node65&#45;&gt;Node56 -->
<g id="edge75" class="edge">
<title>Node65&#45;&gt;Node56</title>
<path fill="none" stroke="#191970" d="M1336.1376,-425.3714C1357.6357,-407.0925 1396.2727,-376.4959 1434,-358 1470.8781,-339.9205 1515.3401,-326.8546 1549.9547,-318.4075"/>
<polygon fill="#191970" stroke="#191970" points="1550.9827,-321.7607 1559.9007,-316.0406 1549.3621,-314.9508 1550.9827,-321.7607"/>
</g>
<!-- Node33 -->
<g id="node36" class="node">
<title>Node33</title>
<g id="a_node36"><a xlink:href="Twist_8h.html" target="_top" xlink:title="iDynTree/Core/Twist.h">
<polygon fill="none" stroke="#000000" points="917,-297 917,-316 1039,-316 1039,-297 917,-297"/>
<text text-anchor="middle" x="978" y="-304" font-family="FreeSans.ttf" font-size="10.00" fill="#000000">iDynTree/Core/Twist.h</text>
</a>
</g>
</g>
<!-- Node65&#45;&gt;Node33 -->
<g id="edge76" class="edge">
<title>Node65&#45;&gt;Node33</title>
<path fill="none" stroke="#191970" d="M1280.5458,-425.389C1213.4198,-399.011 1075.9355,-344.9849 1012.0412,-319.8769"/>
<polygon fill="#191970" stroke="#191970" points="1013.0277,-316.5041 1002.4404,-316.1042 1010.4675,-323.0191 1013.0277,-316.5041"/>
</g>
<!-- Node66 -->
<g id="node37" class="node">
<title>Node66</title>
<g id="a_node37"><a xlink:href="VectorDynSize_8h.html" target="_top" xlink:title="iDynTree/Core/VectorDynSize.h">
<polygon fill="none" stroke="#000000" points="656.5,-297 656.5,-316 823.5,-316 823.5,-297 656.5,-297"/>
<text text-anchor="middle" x="740" y="-304" font-family="FreeSans.ttf" font-size="10.00" fill="#000000">iDynTree/Core/VectorDynSize.h</text>
</a>
</g>
</g>
<!-- Node65&#45;&gt;Node66 -->
<g id="edge78" class="edge">
<title>Node65&#45;&gt;Node66</title>
<path fill="none" stroke="#191970" d="M1241.7424,-436.4113C1105.9873,-428.7066 835.4107,-410.8334 798,-389 773.3899,-374.6372 756.6294,-345.1926 747.6845,-325.6475"/>
<polygon fill="#191970" stroke="#191970" points="750.7908,-324.0118 743.6188,-316.2136 744.3624,-326.7823 750.7908,-324.0118"/>
</g>
<!-- Node65&#45;&gt;Node67 -->
<g id="edge82" class="edge">
<title>Node65&#45;&gt;Node67</title>
<path fill="none" stroke="#191970" d="M1313.7809,-425.2967C1310.4758,-415.6685 1306.1721,-403.1318 1302.6267,-392.8038"/>
<polygon fill="#191970" stroke="#191970" points="1305.8374,-391.3768 1299.2801,-383.055 1299.2166,-393.6496 1305.8374,-391.3768"/>
</g>
<!-- Node69 -->
<g id="node42" class="node">
<title>Node69</title>
<g id="a_node42"><a xlink:href="JointState_8h.html" target="_top" xlink:title="iDynTree/Model/JointState.h">
<polygon fill="none" stroke="#ff0000" points="806.5,-364 806.5,-383 957.5,-383 957.5,-364 806.5,-364"/>
<text text-anchor="middle" x="882" y="-371" font-family="FreeSans.ttf" font-size="10.00" fill="#000000">iDynTree/Model/JointState.h</text>
</a>
</g>
</g>
<!-- Node65&#45;&gt;Node69 -->
<g id="edge93" class="edge">
<title>Node65&#45;&gt;Node69</title>
<path fill="none" stroke="#191970" d="M1241.7416,-429.5577C1171.3687,-419.4661 1064.6083,-403.8448 972,-389 963.6734,-387.6653 954.9218,-386.2161 946.2813,-384.7576"/>
<polygon fill="#191970" stroke="#191970" points="946.6663,-381.273 936.2211,-383.0476 945.4931,-388.174 946.6663,-381.273"/>
</g>
<!-- Node33&#45;&gt;Node34 -->
<g id="edge77" class="edge">
<title>Node33&#45;&gt;Node34</title>
<path fill="none" stroke="#191970" d="M976.5672,-296.9005C975.3149,-288.5099 973.4396,-275.9451 971.7625,-264.7085"/>
<polygon fill="#191970" stroke="#191970" points="975.18,-263.8955 970.2421,-254.5218 968.2567,-264.9289 975.18,-263.8955"/>
</g>
<!-- Node66&#45;&gt;Node5 -->
<g id="edge80" class="edge">
<title>Node66&#45;&gt;Node5</title>
<path fill="none" stroke="#191970" d="M753.9003,-296.8431C778.6499,-280.0177 832.4207,-245.111 882,-224 1071.7297,-143.2127 1315.2844,-89.8165 1401.777,-72.2975"/>
<polygon fill="#191970" stroke="#191970" points="1402.6487,-75.6925 1411.7646,-70.2933 1401.2714,-68.8293 1402.6487,-75.6925"/>
</g>
<!-- Node66&#45;&gt;Node26 -->
<g id="edge79" class="edge">
<title>Node66&#45;&gt;Node26</title>
<path fill="none" stroke="#191970" d="M696.9991,-296.9591C626.463,-278.7302 488.2123,-231.5691 430,-132 413.0875,-103.072 448.966,-86.3439 486.9956,-76.9703"/>
<polygon fill="#191970" stroke="#191970" points="488.2408,-80.2757 497.2062,-74.6301 486.677,-73.4526 488.2408,-80.2757"/>
</g>
<!-- Node67&#45;&gt;Node10 -->
<g id="edge92" class="edge">
<title>Node67&#45;&gt;Node10</title>
<path fill="none" stroke="#191970" d="M1370.6829,-370.203C1566.7791,-361.4395 2093.1525,-337.2011 2267,-322 2298.7006,-319.2281 2334.6935,-314.7045 2360.2469,-311.2578"/>
<polygon fill="#191970" stroke="#191970" points="2360.7415,-314.7228 2370.176,-309.9019 2359.7943,-307.7872 2360.7415,-314.7228"/>
</g>
<!-- Node67&#45;&gt;Node14 -->
<g id="edge91" class="edge">
<title>Node67&#45;&gt;Node14</title>
<path fill="none" stroke="#191970" d="M1370.5516,-366.7475C1513.8242,-353.702 1814.4918,-325.9654 1825,-322 1847.0425,-313.682 1846.7877,-301.2519 1868,-291 1906.2406,-272.5184 1952.2978,-259.5659 1988.5119,-251.2732"/>
<polygon fill="#191970" stroke="#191970" points="1989.4519,-254.6496 1998.4504,-249.0571 1987.9284,-247.8174 1989.4519,-254.6496"/>
</g>
<!-- Node67&#45;&gt;Node56 -->
<g id="edge83" class="edge">
<title>Node67&#45;&gt;Node56</title>
<path fill="none" stroke="#191970" d="M1340.2284,-363.9717C1396.1093,-351.933 1492.2503,-331.221 1552.577,-318.2246"/>
<polygon fill="#191970" stroke="#191970" points="1553.6341,-321.5772 1562.6726,-316.0496 1552.1598,-314.7342 1553.6341,-321.5772"/>
</g>
<!-- Node67&#45;&gt;Node33 -->
<g id="edge84" class="edge">
<title>Node67&#45;&gt;Node33</title>
<path fill="none" stroke="#191970" d="M1248.8792,-363.907C1198.9625,-353.6999 1117.8682,-336.9892 1048,-322 1042.3085,-320.779 1036.3605,-319.4868 1030.4395,-318.1902"/>
<polygon fill="#191970" stroke="#191970" points="1031.069,-314.7451 1020.5506,-316.0158 1029.5656,-321.5818 1031.069,-314.7451"/>
</g>
<!-- Node54 -->
<g id="node39" class="node">
<title>Node54</title>
<g id="a_node39"><a xlink:href="SpatialAcc_8h.html" target="_top" xlink:title="iDynTree/Core/SpatialAcc.h">
<polygon fill="none" stroke="#000000" points="1057,-297 1057,-316 1205,-316 1205,-297 1057,-297"/>
<text text-anchor="middle" x="1131" y="-304" font-family="FreeSans.ttf" font-size="10.00" fill="#000000">iDynTree/Core/SpatialAcc.h</text>
</a>
</g>
</g>
<!-- Node67&#45;&gt;Node54 -->
<g id="edge85" class="edge">
<title>Node67&#45;&gt;Node54</title>
<path fill="none" stroke="#191970" d="M1272.3595,-363.9005C1243.9336,-352.3579 1196.0551,-332.9163 1163.9983,-319.8993"/>
<polygon fill="#191970" stroke="#191970" points="1165.1787,-316.6011 1154.5966,-316.0817 1162.5451,-323.0868 1165.1787,-316.6011"/>
</g>
<!-- Node55 -->
<g id="node40" class="node">
<title>Node55</title>
<g id="a_node40"><a xlink:href="Wrench_8h.html" target="_top" xlink:title="iDynTree/Core/Wrench.h">
<polygon fill="none" stroke="#ff0000" points="1382.5,-297 1382.5,-316 1515.5,-316 1515.5,-297 1382.5,-297"/>
<text text-anchor="middle" x="1449" y="-304" font-family="FreeSans.ttf" font-size="10.00" fill="#000000">iDynTree/Core/Wrench.h</text>
</a>
</g>
</g>
<!-- Node67&#45;&gt;Node55 -->
<g id="edge87" class="edge">
<title>Node67&#45;&gt;Node55</title>
<path fill="none" stroke="#191970" d="M1317.9212,-363.9005C1344.0525,-352.4574 1387.9121,-333.2509 1417.6296,-320.2374"/>
<polygon fill="#191970" stroke="#191970" points="1419.3633,-323.2991 1427.1195,-316.0817 1416.5553,-316.887 1419.3633,-323.2991"/>
</g>
<!-- Node68 -->
<g id="node41" class="node">
<title>Node68</title>
<g id="a_node41"><a xlink:href="ArticulatedBodyInertia_8h.html" target="_top" xlink:title="iDynTree/Core/Articulated\lBodyInertia.h">
<polygon fill="none" stroke="#000000" points="1223.5,-291.5 1223.5,-321.5 1364.5,-321.5 1364.5,-291.5 1223.5,-291.5"/>
<text text-anchor="start" x="1231.5" y="-309.5" font-family="FreeSans.ttf" font-size="10.00" fill="#000000">iDynTree/Core/Articulated</text>
<text text-anchor="middle" x="1294" y="-298.5" font-family="FreeSans.ttf" font-size="10.00" fill="#000000">BodyInertia.h</text>
</a>
</g>
</g>
<!-- Node67&#45;&gt;Node68 -->
<g id="edge88" class="edge">
<title>Node67&#45;&gt;Node68</title>
<path fill="none" stroke="#191970" d="M1295.7134,-363.9005C1295.463,-355.5099 1295.0879,-342.9451 1294.7525,-331.7085"/>
<polygon fill="#191970" stroke="#191970" points="1298.2453,-331.4128 1294.4484,-321.5218 1291.2484,-331.6218 1298.2453,-331.4128"/>
</g>
<!-- Node54&#45;&gt;Node34 -->
<g id="edge86" class="edge">
<title>Node54&#45;&gt;Node34</title>
<path fill="none" stroke="#191970" d="M1107.6461,-296.9005C1083.3397,-286.9096 1044.6358,-271.0006 1014.1324,-258.4624"/>
<polygon fill="#191970" stroke="#191970" points="1015.1253,-255.0864 1004.5455,-254.5218 1012.464,-261.5608 1015.1253,-255.0864"/>
</g>
<!-- Node68&#45;&gt;Node5 -->
<g id="edge90" class="edge">
<title>Node68&#45;&gt;Node5</title>
<path fill="none" stroke="#191970" d="M1299.5984,-291.4087C1309.5326,-265.3665 1331.605,-210.6777 1357,-168 1375.7782,-136.4421 1402.4602,-103.0554 1418.9772,-83.3952"/>
<polygon fill="#191970" stroke="#191970" points="1421.7762,-85.5064 1425.5835,-75.6193 1416.4415,-80.9741 1421.7762,-85.5064"/>
</g>
<!-- Node68&#45;&gt;Node21 -->
<g id="edge89" class="edge">
<title>Node68&#45;&gt;Node21</title>
<path fill="none" stroke="#191970" d="M1263.7034,-291.4639C1240.848,-280.1209 1209.7171,-264.6707 1187.3506,-253.5703"/>
<polygon fill="#191970" stroke="#191970" points="1188.8647,-250.4144 1178.3512,-249.1039 1185.7527,-256.6847 1188.8647,-250.4144"/>
</g>
<!-- Node69&#45;&gt;Node10 -->
<g id="edge96" class="edge">
<title>Node69&#45;&gt;Node10</title>
<path fill="none" stroke="#191970" d="M957.5786,-369.6884C1024.6603,-366.3703 1125.3412,-361.5493 1213,-358 1681.3339,-339.0371 1799.7,-358.4269 2267,-322 2298.7254,-319.527 2334.7153,-314.9677 2360.2613,-311.4316"/>
<polygon fill="#191970" stroke="#191970" points="2360.7716,-314.8944 2370.1871,-310.0365 2359.7972,-307.9625 2360.7716,-314.8944"/>
</g>
<!-- Node69&#45;&gt;Node25 -->
<g id="edge94" class="edge">
<title>Node69&#45;&gt;Node25</title>
<path fill="none" stroke="#191970" d="M878.1357,-363.8337C871.149,-347.2992 855.0668,-313.2239 833,-291 758.0852,-215.5521 642.9522,-160.0566 586.5212,-135.6927"/>
<polygon fill="#191970" stroke="#191970" points="587.5847,-132.3415 577.0129,-131.6433 584.8419,-138.7818 587.5847,-132.3415"/>
</g>
<!-- Node69&#45;&gt;Node66 -->
<g id="edge95" class="edge">
<title>Node69&#45;&gt;Node66</title>
<path fill="none" stroke="#191970" d="M861.6549,-363.9005C837.5077,-352.5072 797.0496,-333.4178 769.4755,-320.4075"/>
<polygon fill="#191970" stroke="#191970" points="770.8448,-317.1835 760.3074,-316.0817 767.8577,-323.5142 770.8448,-317.1835"/>
</g>
<!-- Node70&#45;&gt;Node5 -->
<g id="edge112" class="edge">
<title>Node70&#45;&gt;Node5</title>
<path fill="none" stroke="#191970" d="M2676.3308,-559.8358C2773.4105,-549.3342 2916.8218,-532.3703 2925,-523 2956.3862,-487.0386 3199.0357,-544.7871 2892,-168 2839.6105,-103.7088 2795.7333,-126.0606 2714,-112 2587.8332,-90.2955 1652.8672,-70.4164 1466.3258,-66.6421"/>
<polygon fill="#191970" stroke="#191970" points="1466.1496,-63.1379 1456.0811,-66.4358 1466.0086,-70.1365 1466.1496,-63.1379"/>
</g>
<!-- Node70&#45;&gt;Node10 -->
<g id="edge113" class="edge">
<title>Node70&#45;&gt;Node10</title>
<path fill="none" stroke="#191970" d="M2593.3613,-559.2798C2610.5138,-526.7346 2660.1288,-420.153 2611,-358 2588.4993,-329.5343 2482.635,-315.1453 2427.5304,-309.4789"/>
<polygon fill="#191970" stroke="#191970" points="2427.8406,-305.9926 2417.5445,-308.4906 2427.1511,-312.9586 2427.8406,-305.9926"/>
</g>
<!-- Node70&#45;&gt;Node15 -->
<g id="edge103" class="edge">
<title>Node70&#45;&gt;Node15</title>
<path fill="none" stroke="#191970" d="M2565.1506,-559.3416C2511.5424,-536.6816 2377.5814,-480.0566 2315.9474,-454.0041"/>
<polygon fill="#191970" stroke="#191970" points="2317.2735,-450.7648 2306.6999,-450.0952 2314.5481,-457.2125 2317.2735,-450.7648"/>
</g>
<!-- Node71 -->
<g id="node44" class="node">
<title>Node71</title>
<g id="a_node44"><a xlink:href="Sensors_8h.html" target="_top" xlink:title="iDynTree/Sensors/Sensors.h">
<polygon fill="none" stroke="#000000" points="2650.5,-498 2650.5,-517 2801.5,-517 2801.5,-498 2650.5,-498"/>
<text text-anchor="middle" x="2726" y="-505" font-family="FreeSans.ttf" font-size="10.00" fill="#000000">iDynTree/Sensors/Sensors.h</text>
</a>
</g>
</g>
<!-- Node70&#45;&gt;Node71 -->
<g id="edge104" class="edge">
<title>Node70&#45;&gt;Node71</title>
<path fill="none" stroke="#191970" d="M2609.5625,-559.3906C2632.5512,-549.1457 2669.156,-532.8326 2695.1824,-521.2339"/>
<polygon fill="#191970" stroke="#191970" points="2696.8796,-524.3095 2704.5889,-517.0419 2694.0302,-517.9156 2696.8796,-524.3095"/>
</g>
<!-- Node72 -->
<g id="node45" class="node">
<title>Node72</title>
<polygon fill="none" stroke="#bfbfbf" points="2858,-498 2858,-517 2916,-517 2916,-498 2858,-498"/>
<text text-anchor="middle" x="2887" y="-505" font-family="FreeSans.ttf" font-size="10.00" fill="#000000">memory</text>
</g>
<!-- Node70&#45;&gt;Node72 -->
<g id="edge111" class="edge">
<title>Node70&#45;&gt;Node72</title>
<path fill="none" stroke="#191970" d="M2659.3357,-559.4711C2711.0864,-551.7644 2782.5005,-539.484 2844,-523 2846.9702,-522.2039 2850.0264,-521.2937 2853.0745,-520.3221"/>
<polygon fill="#191970" stroke="#191970" points="2854.3183,-523.5962 2862.668,-517.0745 2852.0738,-516.9658 2854.3183,-523.5962"/>
</g>
<!-- Node71&#45;&gt;Node5 -->
<g id="edge105" class="edge">
<title>Node71&#45;&gt;Node5</title>
<path fill="none" stroke="#191970" d="M2736.2497,-497.8239C2756.9944,-477.1377 2802,-426.1879 2802,-373.5 2802,-373.5 2802,-373.5 2802,-178 2802,-108.7193 1672.7706,-72.8768 1466.2308,-66.9005"/>
<polygon fill="#191970" stroke="#191970" points="1466.1383,-63.3965 1456.0421,-66.6084 1465.9376,-70.3936 1466.1383,-63.3965"/>
</g>
<!-- Node71&#45;&gt;Node10 -->
<g id="edge106" class="edge">
<title>Node71&#45;&gt;Node10</title>
<path fill="none" stroke="#191970" d="M2727.8496,-497.7943C2732.2951,-471.2389 2740.5369,-396.7881 2702,-358 2664.1104,-319.8633 2500.0837,-309.9074 2428.0918,-307.3571"/>
<polygon fill="#191970" stroke="#191970" points="2427.8708,-303.8481 2417.7619,-307.02 2427.6424,-310.8444 2427.8708,-303.8481"/>
</g>
<!-- Node71&#45;&gt;Node14 -->
<g id="edge110" class="edge">
<title>Node71&#45;&gt;Node14</title>
<path fill="none" stroke="#191970" d="M2730.706,-497.9158C2735.3982,-487.7845 2742.2859,-471.1982 2745,-456 2752.815,-412.239 2755.8836,-389.9735 2725,-358 2643.8125,-273.9473 2289.7815,-249.1146 2129.4333,-242.1093"/>
<polygon fill="#191970" stroke="#191970" points="2129.2959,-238.6004 2119.1565,-241.6732 2128.9991,-245.5941 2129.2959,-238.6004"/>
</g>
<!-- Node71&#45;&gt;Node15 -->
<g id="edge109" class="edge">
<title>Node71&#45;&gt;Node15</title>
<path fill="none" stroke="#191970" d="M2663.1416,-497.9717C2582.4097,-485.7341 2442.5523,-464.5339 2357.1379,-451.5865"/>
<polygon fill="#191970" stroke="#191970" points="2357.4106,-448.088 2346.999,-450.0496 2356.3615,-455.0089 2357.4106,-448.088"/>
</g>
<!-- Node71&#45;&gt;Node28 -->
<g id="edge107" class="edge">
<title>Node71&#45;&gt;Node28</title>
<path fill="none" stroke="#191970" d="M2742.5747,-497.8779C2757.5875,-488.5688 2779.643,-473.3487 2795,-456 2889.3433,-349.421 2954,-320.3368 2954,-178 2954,-178 2954,-178 2954,-122 2954,-68.6692 2105.2099,-21.6453 1916.7655,-11.8625"/>
<polygon fill="#191970" stroke="#191970" points="1916.7156,-8.3553 1906.5485,-11.3351 1916.3547,-15.346 1916.7156,-8.3553"/>
</g>
<!-- Node71&#45;&gt;Node66 -->
<g id="edge108" class="edge">
<title>Node71&#45;&gt;Node66</title>
<path fill="none" stroke="#191970" d="M2650.4569,-503.4778C2585.418,-500.1045 2489.0441,-495.3196 2405,-492 1884.2715,-471.4319 1752.2084,-500.7648 1233,-456 1022.3408,-437.8375 920.1583,-529.3322 762,-389 744.3792,-373.3653 740.1576,-345.3496 739.4897,-326.3495"/>
<polygon fill="#191970" stroke="#191970" points="742.9886,-326.1032 739.4387,-316.1208 735.9887,-326.1381 742.9886,-326.1032"/>
</g>
<!-- Node73&#45;&gt;Node4 -->
<g id="edge117" class="edge">
<title>Node73&#45;&gt;Node4</title>
<path fill="none" stroke="#191970" d="M540.2687,-430.8234C531.8609,-415.3876 517.9107,-384.2542 525,-358 528.2706,-345.8876 535.173,-333.696 541.5331,-324.2173"/>
<polygon fill="#191970" stroke="#191970" points="544.3948,-326.2325 547.3286,-316.052 538.6864,-322.1809 544.3948,-326.2325"/>
</g>
<!-- Node73&#45;&gt;Node5 -->
<g id="edge115" class="edge">
<title>Node73&#45;&gt;Node5</title>
<path fill="none" stroke="#191970" d="M533.0989,-430.8729C501.7296,-406.3061 426.6225,-339.7885 463,-291 473.4425,-276.9948 900.7204,-147.4532 1071,-112 1191.5196,-86.9072 1337.5858,-73.4448 1401.4601,-68.3837"/>
<polygon fill="#191970" stroke="#191970" points="1402.0004,-71.8524 1411.6996,-67.589 1401.4587,-64.8734 1402.0004,-71.8524"/>
</g>
<!-- Node73&#45;&gt;Node6 -->
<g id="edge118" class="edge">
<title>Node73&#45;&gt;Node6</title>
<path fill="none" stroke="#191970" d="M494.1727,-430.9261C470.3627,-423.657 444.2926,-410.9832 430,-389 394.8661,-334.961 452.1406,-123.5614 464,-112 478.969,-97.4071 596.8428,-82.0152 675.0945,-73.2515"/>
<polygon fill="#191970" stroke="#191970" points="675.8282,-76.6917 685.382,-72.1118 675.0574,-69.7343 675.8282,-76.6917"/>
</g>
<!-- Node73&#45;&gt;Node14 -->
<g id="edge119" class="edge">
<title>Node73&#45;&gt;Node14</title>
<path fill="none" stroke="#191970" d="M633.5045,-437.0114C817.2622,-429.3718 1238.0404,-410.1475 1380,-389 1438.7495,-380.2482 1451.4414,-367.9491 1510,-358 1664.167,-331.807 1716.3794,-383.8599 1860,-322 1879.3923,-313.6474 1877.643,-301.4331 1896,-291 1927.7366,-272.9628 1966.7674,-259.9965 1997.594,-251.5859"/>
<polygon fill="#191970" stroke="#191970" points="1998.5252,-254.96 2007.2947,-249.0147 1996.7317,-248.1937 1998.5252,-254.96"/>
</g>
<!-- Node73&#45;&gt;Node25 -->
<g id="edge116" class="edge">
<title>Node73&#45;&gt;Node25</title>
<path fill="none" stroke="#191970" d="M458.1729,-431.5129C379.1434,-422.4658 269.5538,-407.2587 230,-389 129.0944,-342.4203 38.6115,-250.5709 113,-168 135.9075,-142.5727 340.2109,-130.2538 462.2127,-125.1161"/>
<polygon fill="#191970" stroke="#191970" points="462.454,-128.6092 472.3011,-124.6997 462.1652,-121.6152 462.454,-128.6092"/>
</g>
<!-- Node73&#45;&gt;Node67 -->
<g id="edge122" class="edge">
<title>Node73&#45;&gt;Node67</title>
<path fill="none" stroke="#191970" d="M630.0622,-430.9836C649.1043,-428.9228 669.2405,-426.8181 688,-425 874.4653,-406.9287 1093.4522,-389.2485 1211.0456,-380.0429"/>
<polygon fill="#191970" stroke="#191970" points="1211.3691,-383.5284 1221.066,-379.2598 1210.8236,-376.5497 1211.3691,-383.5284"/>
</g>
<!-- Node74 -->
<g id="node47" class="node">
<title>Node74</title>
<g id="a_node47"><a xlink:href="FreeFloatingMatrices_8h.html" target="_top" xlink:title="iDynTree/Model/FreeFloating\lMatrices.h">
<polygon fill="none" stroke="#000000" points="534,-358.5 534,-388.5 688,-388.5 688,-358.5 534,-358.5"/>
<text text-anchor="start" x="542" y="-376.5" font-family="FreeSans.ttf" font-size="10.00" fill="#000000">iDynTree/Model/FreeFloating</text>
<text text-anchor="middle" x="611" y="-365.5" font-family="FreeSans.ttf" font-size="10.00" fill="#000000">Matrices.h</text>
</a>
</g>
</g>
<!-- Node73&#45;&gt;Node74 -->
<g id="edge120" class="edge">
<title>Node73&#45;&gt;Node74</title>
<path fill="none" stroke="#191970" d="M555.3129,-430.9005C564.1245,-421.8178 577.681,-407.8442 589.2119,-395.9585"/>
<polygon fill="#191970" stroke="#191970" points="591.9756,-398.1363 596.4266,-388.5218 586.9514,-393.2621 591.9756,-398.1363"/>
</g>
<!-- Node74&#45;&gt;Node4 -->
<g id="edge121" class="edge">
<title>Node74&#45;&gt;Node4</title>
<path fill="none" stroke="#191970" d="M598.2927,-358.2967C589.7371,-348.0605 578.4335,-334.5366 569.5221,-323.8746"/>
<polygon fill="#191970" stroke="#191970" points="572.0849,-321.4832 562.9862,-316.055 566.7139,-325.9724 572.0849,-321.4832"/>
</g>
<!-- Node75&#45;&gt;Node5 -->
<g id="edge124" class="edge">
<title>Node75&#45;&gt;Node5</title>
<path fill="none" stroke="#191970" d="M2416.2211,-563.615C2544.944,-554.1229 2795.2233,-534.3471 2811,-523 2870.1109,-480.4855 2878,-446.312 2878,-373.5 2878,-373.5 2878,-373.5 2878,-178 2878,-21.8861 2688.0751,-129.9796 2533,-112 2318.3599,-87.1143 1624.4053,-70.28 1466.2766,-66.7089"/>
<polygon fill="#191970" stroke="#191970" points="1466.3136,-63.2089 1456.2376,-66.4838 1466.1566,-70.2072 1466.3136,-63.2089"/>
</g>
<!-- Node75&#45;&gt;Node76 -->
<g id="edge125" class="edge">
<title>Node75&#45;&gt;Node76</title>
<path fill="none" stroke="#191970" d="M2341,-559.3906C2341,-550.8657 2341,-538.1392 2341,-527.4235"/>
<polygon fill="#191970" stroke="#191970" points="2344.5001,-527.2448 2341,-517.2449 2337.5001,-527.2449 2344.5001,-527.2448"/>
</g>
</g>
</svg>
