<?xml version="1.0" encoding="UTF-8" standalone="no"?>
<!DOCTYPE svg PUBLIC "-//W3C//DTD SVG 1.1//EN"
 "http://www.w3.org/Graphics/SVG/1.1/DTD/svg11.dtd">
<!-- Generated by graphviz version 2.40.1 (20161225.0304)
 -->
<!-- Title: Visualizer.h Pages: 1 -->
<svg width="1012pt" height="196pt"
 viewBox="0.00 0.00 1012.00 196.00" xmlns="http://www.w3.org/2000/svg" xmlns:xlink="http://www.w3.org/1999/xlink">
<g id="graph0" class="graph" transform="scale(1 1) rotate(0) translate(4 192)">
<title>Visualizer.h</title>
<!-- Node49 -->
<g id="node1" class="node">
<title>Node49</title>
<polygon fill="#bfbfbf" stroke="#000000" points="439.5,-168.5 439.5,-187.5 512.5,-187.5 512.5,-168.5 439.5,-168.5"/>
<text text-anchor="middle" x="476" y="-175.5" font-family="FreeSans.ttf" font-size="10.00" fill="#000000">Visualizer.h</text>
</g>
<!-- Node50 -->
<g id="node2" class="node">
<title>Node50</title>
<g id="a_node2"><a xlink:href="idyntree-model-view_8cpp.html" target="_top" xlink:title="idyntree&#45;model&#45;view.cpp">
<polygon fill="none" stroke="#000000" points="0,-112.5 0,-131.5 138,-131.5 138,-112.5 0,-112.5"/>
<text text-anchor="middle" x="69" y="-119.5" font-family="FreeSans.ttf" font-size="10.00" fill="#000000">idyntree&#45;model&#45;view.cpp</text>
</a>
</g>
</g>
<!-- Node49&#45;&gt;Node50 -->
<g id="edge1" class="edge">
<title>Node49&#45;&gt;Node50</title>
<path fill="none" stroke="#191970" d="M429.1,-171.5469C357.5887,-161.7075 220.8794,-142.8974 138.0213,-131.4968"/>
<polygon fill="#191970" stroke="#191970" points="428.7799,-175.0358 439.1636,-172.9316 429.7341,-168.1011 428.7799,-175.0358"/>
</g>
<!-- Node51 -->
<g id="node3" class="node">
<title>Node51</title>
<g id="a_node3"><a xlink:href="Camera_8h.html" target="_top" xlink:title="Camera.h">
<polygon fill="none" stroke="#000000" points="137,-56.5 137,-75.5 201,-75.5 201,-56.5 137,-56.5"/>
<text text-anchor="middle" x="169" y="-63.5" font-family="FreeSans.ttf" font-size="10.00" fill="#000000">Camera.h</text>
</a>
</g>
</g>
<!-- Node49&#45;&gt;Node51 -->
<g id="edge2" class="edge">
<title>Node49&#45;&gt;Node51</title>
<path fill="none" stroke="#191970" d="M429.1805,-176.7441C356.1248,-173.8026 219.7651,-164.0554 185,-132 169.2244,-117.454 167.7928,-90.2321 168.2834,-75.7098"/>
<polygon fill="#191970" stroke="#191970" points="429.356,-180.2531 439.4802,-177.1306 429.6185,-173.258 429.356,-180.2531"/>
</g>
<!-- Node53 -->
<g id="node5" class="node">
<title>Node53</title>
<g id="a_node5"><a xlink:href="IrrlichtUtils_8h.html" target="_top" xlink:title="IrrlichtUtils.h">
<polygon fill="none" stroke="#000000" points="527,-56.5 527,-75.5 607,-75.5 607,-56.5 527,-56.5"/>
<text text-anchor="middle" x="567" y="-63.5" font-family="FreeSans.ttf" font-size="10.00" fill="#000000">IrrlichtUtils.h</text>
</a>
</g>
</g>
<!-- Node49&#45;&gt;Node53 -->
<g id="edge4" class="edge">
<title>Node49&#45;&gt;Node53</title>
<path fill="none" stroke="#191970" d="M522.6733,-171.0829C565.4018,-163.683 624.0488,-150.4642 638,-132 655.2476,-109.1731 618.2787,-87.5586 591.4938,-75.6124"/>
<polygon fill="#191970" stroke="#191970" points="522.0181,-167.6438 512.735,-172.7502 523.1763,-174.5474 522.0181,-167.6438"/>
</g>
<!-- Node60 -->
<g id="node12" class="node">
<title>Node60</title>
<g id="a_node12"><a xlink:href="FloorGridSceneNode_8h.html" target="_top" xlink:title="FloorGridSceneNode.h">
<polygon fill="none" stroke="#000000" points="504.5,-112.5 504.5,-131.5 629.5,-131.5 629.5,-112.5 504.5,-112.5"/>
<text text-anchor="middle" x="567" y="-119.5" font-family="FreeSans.ttf" font-size="10.00" fill="#000000">FloorGridSceneNode.h</text>
</a>
</g>
</g>
<!-- Node49&#45;&gt;Node60 -->
<g id="edge12" class="edge">
<title>Node49&#45;&gt;Node60</title>
<path fill="none" stroke="#191970" d="M500.7504,-162.769C516.8758,-152.8456 537.426,-140.1994 551.3307,-131.6427"/>
<polygon fill="#191970" stroke="#191970" points="498.5332,-160.0237 491.851,-168.2455 502.2019,-165.9853 498.5332,-160.0237"/>
</g>
<!-- Node61 -->
<g id="node13" class="node">
<title>Node61</title>
<g id="a_node13"><a xlink:href="DummyImplementations_8h.html" target="_top" xlink:title="DummyImplementations.h">
<polygon fill="none" stroke="#000000" points="300,-112.5 300,-131.5 448,-131.5 448,-112.5 300,-112.5"/>
<text text-anchor="middle" x="374" y="-119.5" font-family="FreeSans.ttf" font-size="10.00" fill="#000000">DummyImplementations.h</text>
</a>
</g>
</g>
<!-- Node49&#45;&gt;Node61 -->
<g id="edge15" class="edge">
<title>Node49&#45;&gt;Node61</title>
<path fill="none" stroke="#191970" d="M449.266,-163.3225C431.0468,-153.3198 407.4402,-140.3593 391.5634,-131.6427"/>
<polygon fill="#191970" stroke="#191970" points="447.7827,-166.5009 458.233,-168.2455 451.1516,-160.3649 447.7827,-166.5009"/>
</g>
<!-- Node62 -->
<g id="node14" class="node">
<title>Node62</title>
<g id="a_node14"><a xlink:href="Environment_8h.html" target="_top" xlink:title="Environment.h">
<polygon fill="none" stroke="#000000" points="273,-56.5 273,-75.5 361,-75.5 361,-56.5 273,-56.5"/>
<text text-anchor="middle" x="317" y="-63.5" font-family="FreeSans.ttf" font-size="10.00" fill="#000000">Environment.h</text>
</a>
</g>
</g>
<!-- Node49&#45;&gt;Node62 -->
<g id="edge19" class="edge">
<title>Node49&#45;&gt;Node62</title>
<path fill="none" stroke="#191970" d="M429.0846,-172.8778C380.0235,-166.4405 307.8421,-153.5427 291,-132 277.4983,-114.73 295.3424,-89.5678 307.4695,-75.8378"/>
<polygon fill="#191970" stroke="#191970" points="428.8143,-176.3714 439.1745,-174.1542 429.6929,-169.4268 428.8143,-176.3714"/>
</g>
<!-- Node63 -->
<g id="node15" class="node">
<title>Node63</title>
<g id="a_node15"><a xlink:href="Visualizer_8cpp.html" target="_top" xlink:title="Visualizer.cpp">
<polygon fill="none" stroke="#000000" points="384,-56.5 384,-75.5 468,-75.5 468,-56.5 384,-56.5"/>
<text text-anchor="middle" x="426" y="-63.5" font-family="FreeSans.ttf" font-size="10.00" fill="#000000">Visualizer.cpp</text>
</a>
</g>
</g>
<!-- Node49&#45;&gt;Node63 -->
<g id="edge31" class="edge">
<title>Node49&#45;&gt;Node63</title>
<path fill="none" stroke="#191970" d="M472.0126,-158.2171C468.9002,-144.7942 463.9336,-126.8568 457,-112 450.728,-98.5608 440.7838,-84.6443 433.8552,-75.6881"/>
<polygon fill="#191970" stroke="#191970" points="468.6517,-159.2337 474.1934,-168.2637 475.4924,-157.7488 468.6517,-159.2337"/>
</g>
<!-- Node64 -->
<g id="node16" class="node">
<title>Node64</title>
<g id="a_node16"><a xlink:href="Light_8h.html" target="_top" xlink:title="Light.h">
<polygon fill="none" stroke="#000000" points="194,-112.5 194,-131.5 244,-131.5 244,-112.5 194,-112.5"/>
<text text-anchor="middle" x="219" y="-119.5" font-family="FreeSans.ttf" font-size="10.00" fill="#000000">Light.h</text>
</a>
</g>
</g>
<!-- Node49&#45;&gt;Node64 -->
<g id="edge20" class="edge">
<title>Node49&#45;&gt;Node64</title>
<path fill="none" stroke="#191970" d="M429.368,-168.7651C385.1401,-159.8634 316.8816,-145.7545 258,-132 253.5076,-130.9506 248.7394,-129.7776 244.1362,-128.6145"/>
<polygon fill="#191970" stroke="#191970" points="428.757,-172.2122 439.2501,-170.7478 430.1341,-165.3489 428.757,-172.2122"/>
</g>
<!-- Node65 -->
<g id="node17" class="node">
<title>Node65</title>
<g id="a_node17"><a xlink:href="JetsVisualization_8h.html" target="_top" xlink:title="JetsVisualization.h">
<polygon fill="none" stroke="#000000" points="885.5,-56.5 885.5,-75.5 992.5,-75.5 992.5,-56.5 885.5,-56.5"/>
<text text-anchor="middle" x="939" y="-63.5" font-family="FreeSans.ttf" font-size="10.00" fill="#000000">JetsVisualization.h</text>
</a>
</g>
</g>
<!-- Node49&#45;&gt;Node65 -->
<g id="edge23" class="edge">
<title>Node49&#45;&gt;Node65</title>
<path fill="none" stroke="#191970" d="M522.8195,-174.6777C607.1623,-168.2599 781.1396,-152.9234 838,-132 874.1706,-118.69 910.5227,-90.4174 928.1096,-75.5669"/>
<polygon fill="#191970" stroke="#191970" points="522.4585,-171.1949 512.7487,-175.434 522.9827,-178.1752 522.4585,-171.1949"/>
</g>
<!-- Node66 -->
<g id="node18" class="node">
<title>Node66</title>
<g id="a_node18"><a xlink:href="ModelVisualization_8h.html" target="_top" xlink:title="ModelVisualization.h">
<polygon fill="none" stroke="#000000" points="749,-56.5 749,-75.5 867,-75.5 867,-56.5 749,-56.5"/>
<text text-anchor="middle" x="808" y="-63.5" font-family="FreeSans.ttf" font-size="10.00" fill="#000000">ModelVisualization.h</text>
</a>
</g>
</g>
<!-- Node49&#45;&gt;Node66 -->
<g id="edge26" class="edge">
<title>Node49&#45;&gt;Node66</title>
<path fill="none" stroke="#191970" d="M522.7497,-175.143C612.4599,-169.1821 801.6406,-154.112 821,-132 834.8472,-116.1839 822.7948,-89.9798 814.4182,-75.8151"/>
<polygon fill="#191970" stroke="#191970" points="522.3286,-171.663 512.5783,-175.8081 522.7854,-178.6481 522.3286,-171.663"/>
</g>
<!-- Node67 -->
<g id="node19" class="node">
<title>Node67</title>
<g id="a_node19"><a xlink:href="VectorsVisualization_8h.html" target="_top" xlink:title="VectorsVisualization.h">
<polygon fill="none" stroke="#000000" points="686.5,-112.5 686.5,-131.5 811.5,-131.5 811.5,-112.5 686.5,-112.5"/>
<text text-anchor="middle" x="749" y="-119.5" font-family="FreeSans.ttf" font-size="10.00" fill="#000000">VectorsVisualization.h</text>
</a>
</g>
</g>
<!-- Node49&#45;&gt;Node67 -->
<g id="edge29" class="edge">
<title>Node49&#45;&gt;Node67</title>
<path fill="none" stroke="#191970" d="M522.4874,-168.4641C572.7605,-158.1517 652.4264,-141.81 702.647,-131.5083"/>
<polygon fill="#191970" stroke="#191970" points="521.6274,-165.0676 512.5347,-170.5057 523.0341,-171.9248 521.6274,-165.0676"/>
</g>
<!-- Node52 -->
<g id="node4" class="node">
<title>Node52</title>
<g id="a_node4"><a xlink:href="Camera_8cpp.html" target="_top" xlink:title="Camera.cpp">
<polygon fill="none" stroke="#000000" points="137.5,-.5 137.5,-19.5 212.5,-19.5 212.5,-.5 137.5,-.5"/>
<text text-anchor="middle" x="175" y="-7.5" font-family="FreeSans.ttf" font-size="10.00" fill="#000000">Camera.cpp</text>
</a>
</g>
</g>
<!-- Node51&#45;&gt;Node52 -->
<g id="edge3" class="edge">
<title>Node51&#45;&gt;Node52</title>
<path fill="none" stroke="#191970" d="M171.126,-46.1575C172.0905,-37.155 173.1872,-26.9199 173.9669,-19.6427"/>
<polygon fill="#191970" stroke="#191970" points="167.6305,-45.9296 170.0451,-56.2455 174.5906,-46.6753 167.6305,-45.9296"/>
</g>
<!-- Node53&#45;&gt;Node52 -->
<g id="edge5" class="edge">
<title>Node53&#45;&gt;Node52</title>
<path fill="none" stroke="#191970" d="M516.5711,-60.4163C449.3761,-52.7115 326.8758,-37.7416 223,-20 219.6437,-19.4268 216.1644,-18.7885 212.6824,-18.1196"/>
<polygon fill="#191970" stroke="#191970" points="516.5373,-63.935 526.8693,-61.5898 517.3299,-56.98 516.5373,-63.935"/>
</g>
<!-- Node54 -->
<g id="node6" class="node">
<title>Node54</title>
<g id="a_node6"><a xlink:href="Environment_8cpp.html" target="_top" xlink:title="Environment.cpp">
<polygon fill="none" stroke="#000000" points="312.5,-.5 312.5,-19.5 411.5,-19.5 411.5,-.5 312.5,-.5"/>
<text text-anchor="middle" x="362" y="-7.5" font-family="FreeSans.ttf" font-size="10.00" fill="#000000">Environment.cpp</text>
</a>
</g>
</g>
<!-- Node53&#45;&gt;Node54 -->
<g id="edge6" class="edge">
<title>Node53&#45;&gt;Node54</title>
<path fill="none" stroke="#191970" d="M522.046,-53.7199C484.3513,-43.4228 431.2959,-28.9296 396.7809,-19.5011"/>
<polygon fill="#191970" stroke="#191970" points="521.1904,-57.1143 531.7592,-56.3733 523.035,-50.3617 521.1904,-57.1143"/>
</g>
<!-- Node55 -->
<g id="node7" class="node">
<title>Node55</title>
<g id="a_node7"><a xlink:href="FloorGridSceneNode_8cpp.html" target="_top" xlink:title="FloorGridSceneNode.cpp">
<polygon fill="none" stroke="#000000" points="430,-.5 430,-19.5 566,-19.5 566,-.5 430,-.5"/>
<text text-anchor="middle" x="498" y="-7.5" font-family="FreeSans.ttf" font-size="10.00" fill="#000000">FloorGridSceneNode.cpp</text>
</a>
</g>
</g>
<!-- Node53&#45;&gt;Node55 -->
<g id="edge7" class="edge">
<title>Node53&#45;&gt;Node55</title>
<path fill="none" stroke="#191970" d="M547.197,-49.928C535.1364,-40.1397 520.1286,-27.9595 509.8812,-19.6427"/>
<polygon fill="#191970" stroke="#191970" points="545.0109,-52.6614 554.9811,-56.2455 549.4221,-47.2262 545.0109,-52.6614"/>
</g>
<!-- Node56 -->
<g id="node8" class="node">
<title>Node56</title>
<g id="a_node8"><a xlink:href="JetsVisualization_8cpp.html" target="_top" xlink:title="JetsVisualization.cpp">
<polygon fill="none" stroke="#000000" points="886,-.5 886,-19.5 1004,-19.5 1004,-.5 886,-.5"/>
<text text-anchor="middle" x="945" y="-7.5" font-family="FreeSans.ttf" font-size="10.00" fill="#000000">JetsVisualization.cpp</text>
</a>
</g>
</g>
<!-- Node53&#45;&gt;Node56 -->
<g id="edge8" class="edge">
<title>Node53&#45;&gt;Node56</title>
<path fill="none" stroke="#191970" d="M617.3468,-58.5412C686.8662,-48.242 812.0189,-29.7009 885.8917,-18.7568"/>
<polygon fill="#191970" stroke="#191970" points="616.4738,-55.1323 607.0948,-60.06 617.4997,-62.0567 616.4738,-55.1323"/>
</g>
<!-- Node57 -->
<g id="node9" class="node">
<title>Node57</title>
<g id="a_node9"><a xlink:href="Light_8cpp.html" target="_top" xlink:title="Light.cpp">
<polygon fill="none" stroke="#000000" points="232.5,-.5 232.5,-19.5 293.5,-19.5 293.5,-.5 232.5,-.5"/>
<text text-anchor="middle" x="263" y="-7.5" font-family="FreeSans.ttf" font-size="10.00" fill="#000000">Light.cpp</text>
</a>
</g>
</g>
<!-- Node53&#45;&gt;Node57 -->
<g id="edge9" class="edge">
<title>Node53&#45;&gt;Node57</title>
<path fill="none" stroke="#191970" d="M516.3651,-58.2951C463.066,-49.9239 376.8179,-35.6369 303,-20 299.9188,-19.3473 296.7151,-18.6236 293.522,-17.8725"/>
<polygon fill="#191970" stroke="#191970" points="516.1519,-61.8041 526.5722,-59.8891 517.232,-54.888 516.1519,-61.8041"/>
</g>
<!-- Node58 -->
<g id="node10" class="node">
<title>Node58</title>
<g id="a_node10"><a xlink:href="ModelVisualization_8cpp.html" target="_top" xlink:title="ModelVisualization.cpp">
<polygon fill="none" stroke="#000000" points="738.5,-.5 738.5,-19.5 867.5,-19.5 867.5,-.5 738.5,-.5"/>
<text text-anchor="middle" x="803" y="-7.5" font-family="FreeSans.ttf" font-size="10.00" fill="#000000">ModelVisualization.cpp</text>
</a>
</g>
</g>
<!-- Node53&#45;&gt;Node58 -->
<g id="edge10" class="edge">
<title>Node53&#45;&gt;Node58</title>
<path fill="none" stroke="#191970" d="M616.8224,-54.1777C660.252,-43.8724 722.437,-29.1166 762.7694,-19.5462"/>
<polygon fill="#191970" stroke="#191970" points="615.9559,-50.7861 607.0342,-56.5004 617.5721,-57.597 615.9559,-50.7861"/>
</g>
<!-- Node59 -->
<g id="node11" class="node">
<title>Node59</title>
<g id="a_node11"><a xlink:href="VectorsVisualization_8cpp.html" target="_top" xlink:title="VectorsVisualization.cpp">
<polygon fill="none" stroke="#000000" points="584,-.5 584,-19.5 720,-19.5 720,-.5 584,-.5"/>
<text text-anchor="middle" x="652" y="-7.5" font-family="FreeSans.ttf" font-size="10.00" fill="#000000">VectorsVisualization.cpp</text>
</a>
</g>
</g>
<!-- Node53&#45;&gt;Node59 -->
<g id="edge11" class="edge">
<title>Node53&#45;&gt;Node59</title>
<path fill="none" stroke="#191970" d="M590.5419,-50.49C605.539,-40.6096 624.4973,-28.1194 637.3638,-19.6427"/>
<polygon fill="#191970" stroke="#191970" points="588.2309,-47.8212 581.8059,-56.2455 592.0821,-53.6666 588.2309,-47.8212"/>
</g>
<!-- Node60&#45;&gt;Node53 -->
<g id="edge13" class="edge">
<title>Node60&#45;&gt;Node53</title>
<path fill="none" stroke="#191970" d="M567,-102.1575C567,-93.155 567,-82.9199 567,-75.6427"/>
<polygon fill="#191970" stroke="#191970" points="563.5001,-102.2455 567,-112.2455 570.5001,-102.2456 563.5001,-102.2455"/>
</g>
<!-- Node60&#45;&gt;Node55 -->
<g id="edge14" class="edge">
<title>Node60&#45;&gt;Node55</title>
<path fill="none" stroke="#191970" d="M545.0893,-105.7715C535.5865,-97.7441 525.0449,-87.3474 518,-76 506.7591,-57.8939 501.4809,-33.0583 499.308,-19.6049"/>
<polygon fill="#191970" stroke="#191970" points="543.0726,-108.641 553.0588,-112.1803 547.4594,-103.186 543.0726,-108.641"/>
</g>
<!-- Node61&#45;&gt;Node62 -->
<g id="edge16" class="edge">
<title>Node61&#45;&gt;Node62</title>
<path fill="none" stroke="#191970" d="M356.7729,-105.0751C346.9659,-95.4402 335.036,-83.7196 326.8149,-75.6427"/>
<polygon fill="#191970" stroke="#191970" points="354.4851,-107.734 364.0714,-112.2455 359.3909,-102.7406 354.4851,-107.734"/>
</g>
<!-- Node61&#45;&gt;Node63 -->
<g id="edge18" class="edge">
<title>Node61&#45;&gt;Node63</title>
<path fill="none" stroke="#191970" d="M389.9822,-104.7884C398.8778,-95.2085 409.6204,-83.6396 417.0461,-75.6427"/>
<polygon fill="#191970" stroke="#191970" points="387.2975,-102.536 383.0577,-112.2455 392.427,-107.2992 387.2975,-102.536"/>
</g>
<!-- Node62&#45;&gt;Node54 -->
<g id="edge17" class="edge">
<title>Node62&#45;&gt;Node54</title>
<path fill="none" stroke="#191970" d="M331.2946,-48.2112C338.8996,-38.7472 347.9538,-27.4797 354.2514,-19.6427"/>
<polygon fill="#191970" stroke="#191970" points="328.3741,-46.2581 324.8384,-56.2455 333.8306,-50.6428 328.3741,-46.2581"/>
</g>
<!-- Node64&#45;&gt;Node57 -->
<g id="edge22" class="edge">
<title>Node64&#45;&gt;Node57</title>
<path fill="none" stroke="#191970" d="M226.4936,-102.9253C235.9996,-78.7284 252.0245,-37.9376 259.2581,-19.5249"/>
<polygon fill="#191970" stroke="#191970" points="223.1504,-101.8636 222.7514,-112.4509 229.6656,-104.4232 223.1504,-101.8636"/>
</g>
<!-- Node64&#45;&gt;Node62 -->
<g id="edge21" class="edge">
<title>Node64&#45;&gt;Node62</title>
<path fill="none" stroke="#191970" d="M245.1686,-107.0465C262.6058,-97.0824 285.0111,-84.2794 300.1253,-75.6427"/>
<polygon fill="#191970" stroke="#191970" points="243.0162,-104.2453 236.0703,-112.2455 246.4892,-110.323 243.0162,-104.2453"/>
</g>
<!-- Node65&#45;&gt;Node56 -->
<g id="edge24" class="edge">
<title>Node65&#45;&gt;Node56</title>
<path fill="none" stroke="#191970" d="M941.126,-46.1575C942.0905,-37.155 943.1872,-26.9199 943.9669,-19.6427"/>
<polygon fill="#191970" stroke="#191970" points="937.6305,-45.9296 940.0451,-56.2455 944.5906,-46.6753 937.6305,-45.9296"/>
</g>
<!-- Node65&#45;&gt;Node58 -->
<g id="edge25" class="edge">
<title>Node65&#45;&gt;Node58</title>
<path fill="none" stroke="#191970" d="M906.2601,-52.5189C881.4917,-42.3201 848.095,-28.5685 826.0742,-19.5011"/>
<polygon fill="#191970" stroke="#191970" points="905.0413,-55.8021 915.6208,-56.3733 907.7066,-49.3293 905.0413,-55.8021"/>
</g>
<!-- Node66&#45;&gt;Node56 -->
<g id="edge27" class="edge">
<title>Node66&#45;&gt;Node56</title>
<path fill="none" stroke="#191970" d="M840.9806,-52.5189C865.9311,-42.3201 899.5734,-28.5685 921.7562,-19.5011"/>
<polygon fill="#191970" stroke="#191970" points="839.4834,-49.3497 831.5511,-56.3733 842.132,-55.8293 839.4834,-49.3497"/>
</g>
<!-- Node66&#45;&gt;Node58 -->
<g id="edge28" class="edge">
<title>Node66&#45;&gt;Node58</title>
<path fill="none" stroke="#191970" d="M806.2283,-46.1575C805.4246,-37.155 804.5107,-26.9199 803.861,-19.6427"/>
<polygon fill="#191970" stroke="#191970" points="802.7535,-46.5965 807.1291,-56.2455 809.7258,-45.9739 802.7535,-46.5965"/>
</g>
<!-- Node67&#45;&gt;Node59 -->
<g id="edge30" class="edge">
<title>Node67&#45;&gt;Node59</title>
<path fill="none" stroke="#191970" d="M734.1396,-104.8416C713.4387,-80.9396 676.625,-38.433 660.2492,-19.5249"/>
<polygon fill="#191970" stroke="#191970" points="731.5374,-107.1832 740.7298,-112.4509 736.8288,-102.6004 731.5374,-107.1832"/>
</g>
</g>
</svg>
