<?xml version="1.0" encoding="UTF-8" standalone="no"?>
<!DOCTYPE svg PUBLIC "-//W3C//DTD SVG 1.1//EN"
 "http://www.w3.org/Graphics/SVG/1.1/DTD/svg11.dtd">
<!-- Generated by graphviz version 2.40.1 (20161225.0304)
 -->
<!-- Title: XMLElement.h Pages: 1 -->
<svg width="388pt" height="84pt"
 viewBox="0.00 0.00 388.00 84.00" xmlns="http://www.w3.org/2000/svg" xmlns:xlink="http://www.w3.org/1999/xlink">
<g id="graph0" class="graph" transform="scale(1 1) rotate(0) translate(4 80)">
<title>XMLElement.h</title>
<!-- Node0 -->
<g id="node1" class="node">
<title>Node0</title>
<polygon fill="#bfbfbf" stroke="#000000" points="138.5,-56.5 138.5,-75.5 224.5,-75.5 224.5,-56.5 138.5,-56.5"/>
<text text-anchor="middle" x="181.5" y="-63.5" font-family="FreeSans.ttf" font-size="10.00" fill="#000000">XMLElement.h</text>
</g>
<!-- Node1 -->
<g id="node2" class="node">
<title>Node1</title>
<polygon fill="none" stroke="#bfbfbf" points="0,-.5 0,-19.5 65,-19.5 65,-.5 0,-.5"/>
<text text-anchor="middle" x="32.5" y="-7.5" font-family="FreeSans.ttf" font-size="10.00" fill="#000000">functional</text>
</g>
<!-- Node0&#45;&gt;Node1 -->
<g id="edge1" class="edge">
<title>Node0&#45;&gt;Node1</title>
<path fill="none" stroke="#191970" d="M155.886,-56.3733C131.4313,-47.1822 94.3946,-33.2624 67.2791,-23.0713"/>
<polygon fill="#191970" stroke="#191970" points="68.3719,-19.7431 57.7798,-19.5011 65.9091,-26.2956 68.3719,-19.7431"/>
</g>
<!-- Node2 -->
<g id="node3" class="node">
<title>Node2</title>
<polygon fill="none" stroke="#bfbfbf" points="83.5,-.5 83.5,-19.5 141.5,-19.5 141.5,-.5 83.5,-.5"/>
<text text-anchor="middle" x="112.5" y="-7.5" font-family="FreeSans.ttf" font-size="10.00" fill="#000000">memory</text>
</g>
<!-- Node0&#45;&gt;Node2 -->
<g id="edge2" class="edge">
<title>Node0&#45;&gt;Node2</title>
<path fill="none" stroke="#191970" d="M169.4811,-56.2455C159.2902,-47.9746 144.4638,-35.9416 132.4893,-26.2232"/>
<polygon fill="#191970" stroke="#191970" points="134.3514,-23.2268 124.3812,-19.6427 129.9402,-28.662 134.3514,-23.2268"/>
</g>
<!-- Node3 -->
<g id="node4" class="node">
<title>Node3</title>
<polygon fill="none" stroke="#bfbfbf" points="159.5,-.5 159.5,-19.5 203.5,-19.5 203.5,-.5 159.5,-.5"/>
<text text-anchor="middle" x="181.5" y="-7.5" font-family="FreeSans.ttf" font-size="10.00" fill="#000000">string</text>
</g>
<!-- Node0&#45;&gt;Node3 -->
<g id="edge3" class="edge">
<title>Node0&#45;&gt;Node3</title>
<path fill="none" stroke="#191970" d="M181.5,-56.2455C181.5,-48.9382 181.5,-38.6944 181.5,-29.7046"/>
<polygon fill="#191970" stroke="#191970" points="185.0001,-29.6426 181.5,-19.6427 178.0001,-29.6427 185.0001,-29.6426"/>
</g>
<!-- Node4 -->
<g id="node5" class="node">
<title>Node4</title>
<polygon fill="none" stroke="#bfbfbf" points="222,-.5 222,-19.5 315,-19.5 315,-.5 222,-.5"/>
<text text-anchor="middle" x="268.5" y="-7.5" font-family="FreeSans.ttf" font-size="10.00" fill="#000000">unordered_map</text>
</g>
<!-- Node0&#45;&gt;Node4 -->
<g id="edge4" class="edge">
<title>Node0&#45;&gt;Node4</title>
<path fill="none" stroke="#191970" d="M196.6542,-56.2455C210.0027,-47.6534 229.6586,-35.0014 245.0383,-25.1018"/>
<polygon fill="#191970" stroke="#191970" points="247.0051,-27.9982 253.5194,-19.6427 243.2164,-22.1121 247.0051,-27.9982"/>
</g>
<!-- Node5 -->
<g id="node6" class="node">
<title>Node5</title>
<polygon fill="none" stroke="#bfbfbf" points="333,-.5 333,-19.5 380,-19.5 380,-.5 333,-.5"/>
<text text-anchor="middle" x="356.5" y="-7.5" font-family="FreeSans.ttf" font-size="10.00" fill="#000000">vector</text>
</g>
<!-- Node0&#45;&gt;Node5 -->
<g id="edge5" class="edge">
<title>Node0&#45;&gt;Node5</title>
<path fill="none" stroke="#191970" d="M211.5836,-56.3733C242.6234,-46.4405 290.9222,-30.9849 323.1208,-20.6813"/>
<polygon fill="#191970" stroke="#191970" points="324.5094,-23.9119 332.9669,-17.5306 322.3759,-17.2449 324.5094,-23.9119"/>
</g>
</g>
</svg>
