<?xml version="1.0" encoding="UTF-8" standalone="no"?>
<!DOCTYPE svg PUBLIC "-//W3C//DTD SVG 1.1//EN"
 "http://www.w3.org/Graphics/SVG/1.1/DTD/svg11.dtd">
<!-- Generated by graphviz version 2.40.1 (20161225.0304)
 -->
<!-- Title: YARPConfigurationsLoader.h Pages: 1 -->
<svg width="1148pt" height="308pt"
 viewBox="0.00 0.00 1147.50 308.00" xmlns="http://www.w3.org/2000/svg" xmlns:xlink="http://www.w3.org/1999/xlink">
<g id="graph0" class="graph" transform="scale(1 1) rotate(0) translate(4 304)">
<title>YARPConfigurationsLoader.h</title>
<!-- Node0 -->
<g id="node1" class="node">
<title>Node0</title>
<polygon fill="#bfbfbf" stroke="#000000" points="71,-280.5 71,-299.5 224,-299.5 224,-280.5 71,-280.5"/>
<text text-anchor="middle" x="147.5" y="-287.5" font-family="FreeSans.ttf" font-size="10.00" fill="#000000">YARPConfigurationsLoader.h</text>
</g>
<!-- Node1 -->
<g id="node2" class="node">
<title>Node1</title>
<polygon fill="none" stroke="#bfbfbf" points="0,-224.5 0,-243.5 119,-243.5 119,-224.5 0,-224.5"/>
<text text-anchor="middle" x="59.5" y="-231.5" font-family="FreeSans.ttf" font-size="10.00" fill="#000000">yarp/os/Searchable.h</text>
</g>
<!-- Node0&#45;&gt;Node1 -->
<g id="edge1" class="edge">
<title>Node0&#45;&gt;Node1</title>
<path fill="none" stroke="#191970" d="M132.1716,-280.2455C118.6697,-271.6534 98.7878,-259.0014 83.2314,-249.1018"/>
<polygon fill="#191970" stroke="#191970" points="84.9685,-246.0587 74.6528,-243.6427 81.2103,-251.9643 84.9685,-246.0587"/>
</g>
<!-- Node2 -->
<g id="node3" class="node">
<title>Node2</title>
<g id="a_node3"><a xlink:href="Rotation_8h.html" target="_top" xlink:title="iDynTree/Core/Rotation.h">
<polygon fill="none" stroke="#000000" points="239,-224.5 239,-243.5 376,-243.5 376,-224.5 239,-224.5"/>
<text text-anchor="middle" x="307.5" y="-231.5" font-family="FreeSans.ttf" font-size="10.00" fill="#000000">iDynTree/Core/Rotation.h</text>
</a>
</g>
</g>
<!-- Node0&#45;&gt;Node2 -->
<g id="edge2" class="edge">
<title>Node0&#45;&gt;Node2</title>
<path fill="none" stroke="#191970" d="M175.005,-280.3733C201.3802,-271.1419 241.3851,-257.1402 270.5358,-246.9375"/>
<polygon fill="#191970" stroke="#191970" points="272.0716,-250.1082 280.3539,-243.5011 269.7591,-243.5012 272.0716,-250.1082"/>
</g>
<!-- Node3 -->
<g id="node4" class="node">
<title>Node3</title>
<polygon fill="none" stroke="#bfbfbf" points="293.5,-56.5 293.5,-75.5 337.5,-75.5 337.5,-56.5 293.5,-56.5"/>
<text text-anchor="middle" x="315.5" y="-63.5" font-family="FreeSans.ttf" font-size="10.00" fill="#000000">string</text>
</g>
<!-- Node0&#45;&gt;Node3 -->
<g id="edge33" class="edge">
<title>Node0&#45;&gt;Node3</title>
<path fill="none" stroke="#191970" d="M147.1708,-280.4961C146.6859,-251.3836 149.1708,-162.3644 194.5,-112 217.4298,-86.5232 255.9852,-75.0757 283.4093,-69.9838"/>
<polygon fill="#191970" stroke="#191970" points="284.0329,-73.4282 293.319,-68.3275 282.8788,-66.524 284.0329,-73.4282"/>
</g>
<!-- Node2&#45;&gt;Node3 -->
<g id="edge3" class="edge">
<title>Node2&#45;&gt;Node3</title>
<path fill="none" stroke="#191970" d="M288.2047,-224.4813C250.7296,-204.6908 174.3194,-157.1768 204.5,-112 221.9156,-85.9309 257.1402,-74.6166 283.2607,-69.7177"/>
<polygon fill="#191970" stroke="#191970" points="284.1701,-73.1151 293.4683,-68.0363 283.0323,-66.2082 284.1701,-73.1151"/>
</g>
<!-- Node4 -->
<g id="node5" class="node">
<title>Node4</title>
<g id="a_node5"><a xlink:href="RotationRaw_8h.html" target="_top" xlink:title="iDynTree/Core/RotationRaw.h">
<polygon fill="none" stroke="#000000" points="350.5,-168.5 350.5,-187.5 508.5,-187.5 508.5,-168.5 350.5,-168.5"/>
<text text-anchor="middle" x="429.5" y="-175.5" font-family="FreeSans.ttf" font-size="10.00" fill="#000000">iDynTree/Core/RotationRaw.h</text>
</a>
</g>
</g>
<!-- Node2&#45;&gt;Node4 -->
<g id="edge4" class="edge">
<title>Node2&#45;&gt;Node4</title>
<path fill="none" stroke="#191970" d="M328.4725,-224.3733C348.0567,-215.3838 377.4961,-201.8706 399.551,-191.7471"/>
<polygon fill="#191970" stroke="#191970" points="401.1729,-194.8538 408.8011,-187.5011 398.2527,-188.4919 401.1729,-194.8538"/>
</g>
<!-- Node12 -->
<g id="node13" class="node">
<title>Node12</title>
<g id="a_node13"><a xlink:href="RotationSemantics_8h.html" target="_top" xlink:title="iDynTree/Core/RotationSemantics.h">
<polygon fill="none" stroke="#000000" points="213.5,-112.5 213.5,-131.5 401.5,-131.5 401.5,-112.5 213.5,-112.5"/>
<text text-anchor="middle" x="307.5" y="-119.5" font-family="FreeSans.ttf" font-size="10.00" fill="#000000">iDynTree/Core/RotationSemantics.h</text>
</a>
</g>
</g>
<!-- Node2&#45;&gt;Node12 -->
<g id="edge14" class="edge">
<title>Node2&#45;&gt;Node12</title>
<path fill="none" stroke="#191970" d="M307.5,-224.4509C307.5,-206.184 307.5,-165.9553 307.5,-141.6976"/>
<polygon fill="#191970" stroke="#191970" points="311.0001,-141.5249 307.5,-131.5249 304.0001,-141.5249 311.0001,-141.5249"/>
</g>
<!-- Node13 -->
<g id="node14" class="node">
<title>Node13</title>
<g id="a_node14"><a xlink:href="VectorFixSize_8h.html" target="_top" xlink:title="iDynTree/Core/VectorFixSize.h">
<polygon fill="none" stroke="#000000" points="637,-112.5 637,-131.5 798,-131.5 798,-112.5 637,-112.5"/>
<text text-anchor="middle" x="717.5" y="-119.5" font-family="FreeSans.ttf" font-size="10.00" fill="#000000">iDynTree/Core/VectorFixSize.h</text>
</a>
</g>
</g>
<!-- Node2&#45;&gt;Node13 -->
<g id="edge17" class="edge">
<title>Node2&#45;&gt;Node13</title>
<path fill="none" stroke="#191970" d="M357.923,-224.474C400.6855,-216.0336 463.5024,-202.7813 517.5,-188 575.8579,-172.0251 642.3363,-149.126 682.0538,-134.9288"/>
<polygon fill="#191970" stroke="#191970" points="683.3256,-138.191 691.5536,-131.5164 680.9592,-131.6031 683.3256,-138.191"/>
</g>
<!-- Node4&#45;&gt;Node3 -->
<g id="edge13" class="edge">
<title>Node4&#45;&gt;Node3</title>
<path fill="none" stroke="#191970" d="M429.1267,-168.3431C428.1036,-154.3755 424.3279,-128.4144 410.5,-112 394.2664,-92.7299 368.065,-80.8897 347.2866,-74.0572"/>
<polygon fill="#191970" stroke="#191970" points="348.1756,-70.6692 337.5893,-71.0948 346.1304,-77.3638 348.1756,-70.6692"/>
</g>
<!-- Node5 -->
<g id="node6" class="node">
<title>Node5</title>
<g id="a_node6"><a xlink:href="MatrixFixSize_8h.html" target="_top" xlink:title="iDynTree/Core/MatrixFixSize.h">
<polygon fill="none" stroke="#000000" points="458,-112.5 458,-131.5 619,-131.5 619,-112.5 458,-112.5"/>
<text text-anchor="middle" x="538.5" y="-119.5" font-family="FreeSans.ttf" font-size="10.00" fill="#000000">iDynTree/Core/MatrixFixSize.h</text>
</a>
</g>
</g>
<!-- Node4&#45;&gt;Node5 -->
<g id="edge5" class="edge">
<title>Node4&#45;&gt;Node5</title>
<path fill="none" stroke="#191970" d="M448.4864,-168.2455C465.6792,-159.4125 491.2238,-146.2887 510.7132,-136.2758"/>
<polygon fill="#191970" stroke="#191970" points="512.4359,-139.3257 519.7312,-131.6427 509.237,-133.0993 512.4359,-139.3257"/>
</g>
<!-- Node5&#45;&gt;Node3 -->
<g id="edge10" class="edge">
<title>Node5&#45;&gt;Node3</title>
<path fill="none" stroke="#191970" d="M499.4824,-112.4619C462.015,-103.2641 403.8388,-88.8812 353.5,-76 351.4864,-75.4847 349.4137,-74.9505 347.3247,-74.409"/>
<polygon fill="#191970" stroke="#191970" points="348.1498,-71.0072 337.59,-71.8675 346.3815,-77.7801 348.1498,-71.0072"/>
</g>
<!-- Node6 -->
<g id="node7" class="node">
<title>Node6</title>
<g id="a_node7"><a xlink:href="Utils_8h.html" target="_top" xlink:title="iDynTree/Core/Utils.h">
<polygon fill="none" stroke="#000000" points="479,-56.5 479,-75.5 598,-75.5 598,-56.5 479,-56.5"/>
<text text-anchor="middle" x="538.5" y="-63.5" font-family="FreeSans.ttf" font-size="10.00" fill="#000000">iDynTree/Core/Utils.h</text>
</a>
</g>
</g>
<!-- Node5&#45;&gt;Node6 -->
<g id="edge6" class="edge">
<title>Node5&#45;&gt;Node6</title>
<path fill="none" stroke="#191970" d="M538.5,-112.2455C538.5,-104.9382 538.5,-94.6944 538.5,-85.7046"/>
<polygon fill="#191970" stroke="#191970" points="542.0001,-85.6426 538.5,-75.6427 535.0001,-85.6427 542.0001,-85.6426"/>
</g>
<!-- Node8 -->
<g id="node9" class="node">
<title>Node8</title>
<polygon fill="none" stroke="#bfbfbf" points="506.5,-.5 506.5,-19.5 558.5,-19.5 558.5,-.5 506.5,-.5"/>
<text text-anchor="middle" x="532.5" y="-7.5" font-family="FreeSans.ttf" font-size="10.00" fill="#000000">cassert</text>
</g>
<!-- Node5&#45;&gt;Node8 -->
<g id="edge8" class="edge">
<title>Node5&#45;&gt;Node8</title>
<path fill="none" stroke="#191970" d="M513.6745,-112.4395C498.2121,-105.0336 479.5888,-93.1213 470.5,-76 459.6484,-55.5579 481.7803,-36.8009 502.5493,-24.551"/>
<polygon fill="#191970" stroke="#191970" points="504.5165,-27.4625 511.5689,-19.5558 501.1251,-21.3389 504.5165,-27.4625"/>
</g>
<!-- Node9 -->
<g id="node10" class="node">
<title>Node9</title>
<polygon fill="none" stroke="#bfbfbf" points="616.5,-56.5 616.5,-75.5 666.5,-75.5 666.5,-56.5 616.5,-56.5"/>
<text text-anchor="middle" x="641.5" y="-63.5" font-family="FreeSans.ttf" font-size="10.00" fill="#000000">cstring</text>
</g>
<!-- Node5&#45;&gt;Node9 -->
<g id="edge9" class="edge">
<title>Node5&#45;&gt;Node9</title>
<path fill="none" stroke="#191970" d="M556.4412,-112.2455C572.54,-103.4928 596.3879,-90.527 614.7391,-80.5496"/>
<polygon fill="#191970" stroke="#191970" points="616.6507,-83.4942 623.7644,-75.6427 613.3071,-77.3444 616.6507,-83.4942"/>
</g>
<!-- Node10 -->
<g id="node11" class="node">
<title>Node10</title>
<polygon fill="none" stroke="#bfbfbf" points="362.5,-56.5 362.5,-75.5 422.5,-75.5 422.5,-56.5 362.5,-56.5"/>
<text text-anchor="middle" x="392.5" y="-63.5" font-family="FreeSans.ttf" font-size="10.00" fill="#000000">iostream</text>
</g>
<!-- Node5&#45;&gt;Node10 -->
<g id="edge11" class="edge">
<title>Node5&#45;&gt;Node10</title>
<path fill="none" stroke="#191970" d="M513.4017,-112.3733C489.5445,-103.2226 453.4665,-89.3844 426.929,-79.2057"/>
<polygon fill="#191970" stroke="#191970" points="427.861,-75.8145 417.2708,-75.5011 425.3541,-82.3503 427.861,-75.8145"/>
</g>
<!-- Node11 -->
<g id="node12" class="node">
<title>Node11</title>
<polygon fill="none" stroke="#bfbfbf" points="684.5,-56.5 684.5,-75.5 740.5,-75.5 740.5,-56.5 684.5,-56.5"/>
<text text-anchor="middle" x="712.5" y="-63.5" font-family="FreeSans.ttf" font-size="10.00" fill="#000000">sstream</text>
</g>
<!-- Node5&#45;&gt;Node11 -->
<g id="edge12" class="edge">
<title>Node5&#45;&gt;Node11</title>
<path fill="none" stroke="#191970" d="M568.4117,-112.3733C597.7836,-102.9202 642.6984,-88.4649 674.5648,-78.209"/>
<polygon fill="#191970" stroke="#191970" points="675.9694,-81.4338 684.4163,-75.0384 673.8248,-74.7704 675.9694,-81.4338"/>
</g>
<!-- Node7 -->
<g id="node8" class="node">
<title>Node7</title>
<polygon fill="none" stroke="#bfbfbf" points="577,-.5 577,-19.5 630,-19.5 630,-.5 577,-.5"/>
<text text-anchor="middle" x="603.5" y="-7.5" font-family="FreeSans.ttf" font-size="10.00" fill="#000000">cstddef</text>
</g>
<!-- Node6&#45;&gt;Node7 -->
<g id="edge7" class="edge">
<title>Node6&#45;&gt;Node7</title>
<path fill="none" stroke="#191970" d="M549.8221,-56.2455C559.4223,-47.9746 573.3892,-35.9416 584.6695,-26.2232"/>
<polygon fill="#191970" stroke="#191970" points="587.016,-28.8214 592.3076,-19.6427 582.447,-23.5182 587.016,-28.8214"/>
</g>
<!-- Node12&#45;&gt;Node3 -->
<g id="edge15" class="edge">
<title>Node12&#45;&gt;Node3</title>
<path fill="none" stroke="#191970" d="M308.8935,-112.2455C309.9374,-104.9382 311.4008,-94.6944 312.6851,-85.7046"/>
<polygon fill="#191970" stroke="#191970" points="316.173,-86.0372 314.1225,-75.6427 309.2434,-85.0472 316.173,-86.0372"/>
</g>
<!-- Node12&#45;&gt;Node6 -->
<g id="edge16" class="edge">
<title>Node12&#45;&gt;Node6</title>
<path fill="none" stroke="#191970" d="M346.9478,-112.4369C386.3156,-102.8932 446.9034,-88.2052 489.3708,-77.9101"/>
<polygon fill="#191970" stroke="#191970" points="490.321,-81.2812 499.2149,-75.5237 488.6717,-74.4783 490.321,-81.2812"/>
</g>
<!-- Node13&#45;&gt;Node3 -->
<g id="edge29" class="edge">
<title>Node13&#45;&gt;Node3</title>
<path fill="none" stroke="#191970" d="M637.7584,-112.4881C539.085,-100.6296 380.7016,-81.2742 353.5,-76 351.5913,-75.6299 349.6367,-75.2183 347.6699,-74.779"/>
<polygon fill="#191970" stroke="#191970" points="348.4346,-71.3631 337.8922,-72.4156 346.7899,-78.1672 348.4346,-71.3631"/>
</g>
<!-- Node13&#45;&gt;Node6 -->
<g id="edge18" class="edge">
<title>Node13&#45;&gt;Node6</title>
<path fill="none" stroke="#191970" d="M686.7288,-112.3733C656.835,-103.021 611.2907,-88.7725 578.5783,-78.5385"/>
<polygon fill="#191970" stroke="#191970" points="579.4586,-75.1466 568.8697,-75.5011 577.3685,-81.8273 579.4586,-75.1466"/>
</g>
<!-- Node13&#45;&gt;Node8 -->
<g id="edge31" class="edge">
<title>Node13&#45;&gt;Node8</title>
<path fill="none" stroke="#191970" d="M728.6066,-112.2323C742.792,-98.5855 763.8798,-73.5215 749.5,-56 697.4664,7.402 648.2917,-38.9893 568.5,-20 568.4014,-19.9765 568.3027,-19.953 568.2038,-19.9293"/>
<polygon fill="#191970" stroke="#191970" points="569.3405,-16.6068 558.7874,-17.5459 567.6228,-23.3928 569.3405,-16.6068"/>
</g>
<!-- Node13&#45;&gt;Node9 -->
<g id="edge32" class="edge">
<title>Node13&#45;&gt;Node9</title>
<path fill="none" stroke="#191970" d="M704.2618,-112.2455C692.819,-103.814 676.0704,-91.4729 662.7525,-81.6598"/>
<polygon fill="#191970" stroke="#191970" points="664.7133,-78.757 654.5865,-75.6427 660.5609,-84.3924 664.7133,-78.757"/>
</g>
<!-- Node13&#45;&gt;Node11 -->
<g id="edge30" class="edge">
<title>Node13&#45;&gt;Node11</title>
<path fill="none" stroke="#191970" d="M716.6291,-112.2455C715.9766,-104.9382 715.062,-94.6944 714.2593,-85.7046"/>
<polygon fill="#191970" stroke="#191970" points="717.7365,-85.2918 713.361,-75.6427 710.7642,-85.9143 717.7365,-85.2918"/>
</g>
<!-- Node14 -->
<g id="node15" class="node">
<title>Node14</title>
<g id="a_node15"><a xlink:href="Span_8h.html" target="_top" xlink:title="iDynTree/Core/Span.h">
<polygon fill="none" stroke="#000000" points="797,-56.5 797,-75.5 918,-75.5 918,-56.5 797,-56.5"/>
<text text-anchor="middle" x="857.5" y="-63.5" font-family="FreeSans.ttf" font-size="10.00" fill="#000000">iDynTree/Core/Span.h</text>
</a>
</g>
</g>
<!-- Node13&#45;&gt;Node14 -->
<g id="edge19" class="edge">
<title>Node13&#45;&gt;Node14</title>
<path fill="none" stroke="#191970" d="M741.5669,-112.3733C764.3428,-103.2629 798.7344,-89.5062 824.149,-79.3404"/>
<polygon fill="#191970" stroke="#191970" points="825.7623,-82.4648 833.7472,-75.5011 823.1625,-75.9654 825.7623,-82.4648"/>
</g>
<!-- Node14&#45;&gt;Node7 -->
<g id="edge23" class="edge">
<title>Node14&#45;&gt;Node7</title>
<path fill="none" stroke="#191970" d="M807.9484,-56.4691C765.7957,-48.1525 703.4473,-35.3612 639.9695,-20.0003"/>
<polygon fill="#191970" stroke="#191970" points="640.7319,-16.5838 630.1873,-17.6147 639.0733,-23.3844 640.7319,-16.5838"/>
</g>
<!-- Node14&#45;&gt;Node8 -->
<g id="edge20" class="edge">
<title>Node14&#45;&gt;Node8</title>
<path fill="none" stroke="#191970" d="M796.7992,-57.1641C725.2969,-46.6106 610.8819,-29.2283 568.5,-20 568.401,-19.9784 568.3018,-19.9568 568.2025,-19.935"/>
<polygon fill="#191970" stroke="#191970" points="569.3017,-16.5996 558.7604,-17.6642 567.6648,-23.4055 569.3017,-16.5996"/>
</g>
<!-- Node15 -->
<g id="node16" class="node">
<title>Node15</title>
<polygon fill="none" stroke="#bfbfbf" points="1015.5,-.5 1015.5,-19.5 1079.5,-19.5 1079.5,-.5 1015.5,-.5"/>
<text text-anchor="middle" x="1047.5" y="-7.5" font-family="FreeSans.ttf" font-size="10.00" fill="#000000">algorithm</text>
</g>
<!-- Node14&#45;&gt;Node15 -->
<g id="edge21" class="edge">
<title>Node14&#45;&gt;Node15</title>
<path fill="none" stroke="#191970" d="M890.1622,-56.3733C922.0298,-46.9807 970.6531,-32.6496 1005.407,-22.4064"/>
<polygon fill="#191970" stroke="#191970" points="1006.6615,-25.6855 1015.264,-19.5011 1004.6825,-18.9711 1006.6615,-25.6855"/>
</g>
<!-- Node16 -->
<g id="node17" class="node">
<title>Node16</title>
<polygon fill="none" stroke="#bfbfbf" points="1097.5,-.5 1097.5,-19.5 1139.5,-19.5 1139.5,-.5 1097.5,-.5"/>
<text text-anchor="middle" x="1118.5" y="-7.5" font-family="FreeSans.ttf" font-size="10.00" fill="#000000">array</text>
</g>
<!-- Node14&#45;&gt;Node16 -->
<g id="edge22" class="edge">
<title>Node14&#45;&gt;Node16</title>
<path fill="none" stroke="#191970" d="M915.8715,-56.4614C960.5603,-48.6844 1023.8498,-36.651 1087.4924,-20.0298"/>
<polygon fill="#191970" stroke="#191970" points="1088.5234,-23.3775 1097.294,-17.4338 1086.7312,-16.6108 1088.5234,-23.3775"/>
</g>
<!-- Node17 -->
<g id="node18" class="node">
<title>Node17</title>
<polygon fill="none" stroke="#bfbfbf" points="648,-.5 648,-19.5 701,-19.5 701,-.5 648,-.5"/>
<text text-anchor="middle" x="674.5" y="-7.5" font-family="FreeSans.ttf" font-size="10.00" fill="#000000">iterator</text>
</g>
<!-- Node14&#45;&gt;Node17 -->
<g id="edge24" class="edge">
<title>Node14&#45;&gt;Node17</title>
<path fill="none" stroke="#191970" d="M826.0412,-56.3733C794.0902,-46.5959 744.6514,-31.4671 710.9975,-21.1686"/>
<polygon fill="#191970" stroke="#191970" points="711.6833,-17.7183 701.0968,-18.1389 709.6349,-24.4119 711.6833,-17.7183"/>
</g>
<!-- Node18 -->
<g id="node19" class="node">
<title>Node18</title>
<polygon fill="none" stroke="#bfbfbf" points="719.5,-.5 719.5,-19.5 763.5,-19.5 763.5,-.5 719.5,-.5"/>
<text text-anchor="middle" x="741.5" y="-7.5" font-family="FreeSans.ttf" font-size="10.00" fill="#000000">limits</text>
</g>
<!-- Node14&#45;&gt;Node18 -->
<g id="edge25" class="edge">
<title>Node14&#45;&gt;Node18</title>
<path fill="none" stroke="#191970" d="M837.5589,-56.3733C819.0214,-47.4241 791.1972,-33.9917 770.2587,-23.8835"/>
<polygon fill="#191970" stroke="#191970" points="771.7081,-20.6967 761.1809,-19.5011 768.6648,-27.0006 771.7081,-20.6967"/>
</g>
<!-- Node19 -->
<g id="node20" class="node">
<title>Node19</title>
<polygon fill="none" stroke="#bfbfbf" points="782,-.5 782,-19.5 847,-19.5 847,-.5 782,-.5"/>
<text text-anchor="middle" x="814.5" y="-7.5" font-family="FreeSans.ttf" font-size="10.00" fill="#000000">stdexcept</text>
</g>
<!-- Node14&#45;&gt;Node19 -->
<g id="edge26" class="edge">
<title>Node14&#45;&gt;Node19</title>
<path fill="none" stroke="#191970" d="M850.01,-56.2455C843.9674,-48.3761 835.3097,-37.101 828.0559,-27.6542"/>
<polygon fill="#191970" stroke="#191970" points="830.7705,-25.4426 821.9042,-19.6427 825.2185,-29.7058 830.7705,-25.4426"/>
</g>
<!-- Node20 -->
<g id="node21" class="node">
<title>Node20</title>
<polygon fill="none" stroke="#bfbfbf" points="865,-.5 865,-19.5 934,-19.5 934,-.5 865,-.5"/>
<text text-anchor="middle" x="899.5" y="-7.5" font-family="FreeSans.ttf" font-size="10.00" fill="#000000">type_traits</text>
</g>
<!-- Node14&#45;&gt;Node20 -->
<g id="edge27" class="edge">
<title>Node14&#45;&gt;Node20</title>
<path fill="none" stroke="#191970" d="M864.8158,-56.2455C870.7179,-48.3761 879.1742,-37.101 886.2594,-27.6542"/>
<polygon fill="#191970" stroke="#191970" points="889.068,-29.7427 892.268,-19.6427 883.4679,-25.5427 889.068,-29.7427"/>
</g>
<!-- Node21 -->
<g id="node22" class="node">
<title>Node21</title>
<polygon fill="none" stroke="#bfbfbf" points="952,-.5 952,-19.5 997,-19.5 997,-.5 952,-.5"/>
<text text-anchor="middle" x="974.5" y="-7.5" font-family="FreeSans.ttf" font-size="10.00" fill="#000000">utility</text>
</g>
<!-- Node14&#45;&gt;Node21 -->
<g id="edge28" class="edge">
<title>Node14&#45;&gt;Node21</title>
<path fill="none" stroke="#191970" d="M877.613,-56.3733C896.3103,-47.4241 924.3744,-33.9917 945.4934,-23.8835"/>
<polygon fill="#191970" stroke="#191970" points="947.1405,-26.9755 954.6494,-19.5011 944.1183,-20.6614 947.1405,-26.9755"/>
</g>
</g>
</svg>
